<svg xmlns="http://www.w3.org/2000/svg" xmlns:xlink="http://www.w3.org/1999/xlink" width="300.512" height="281.708" viewBox="0 0 300.512 281.708">
  <defs>
    <linearGradient id="linear-gradient" x1="0.5" x2="0.5" y2="1" gradientUnits="objectBoundingBox">
      <stop offset="0" stop-color="#fff"/>
      <stop offset="1" stop-color="#d2e6ee"/>
    </linearGradient>
    <linearGradient id="linear-gradient-7" x1="-19.527" y1="26.574" x2="-18.481" y2="26.574" xlink:href="#linear-gradient"/>
    <linearGradient id="linear-gradient-8" x1="-28.053" y1="40.71" x2="-27.008" y2="40.71" xlink:href="#linear-gradient"/>
    <linearGradient id="linear-gradient-9" y1="0.5" x2="1" y2="0.5" gradientUnits="objectBoundingBox">
      <stop offset="0" stop-color="#f9b776"/>
      <stop offset="1" stop-color="#f47960"/>
    </linearGradient>
    <linearGradient id="linear-gradient-11" x1="-0.138" y1="0.775" x2="1.475" y2="-0.237" xlink:href="#linear-gradient"/>
    <linearGradient id="linear-gradient-13" x1="78.211" y1="1.605" x2="80.211" y2="4.278" xlink:href="#linear-gradient-9"/>
    <linearGradient id="linear-gradient-14" x1="0.339" y1="0.706" x2="2.358" y2="-1.072" xlink:href="#linear-gradient-9"/>
    <linearGradient id="linear-gradient-15" x1="-0.241" y1="1.066" x2="3.808" y2="-1.521" xlink:href="#linear-gradient"/>
    <linearGradient id="linear-gradient-19" x1="-41.391" y1="-14.688" x2="-41.713" y2="-15.754" xlink:href="#linear-gradient-9"/>
    <linearGradient id="linear-gradient-20" x1="-136.11" y1="-73.662" x2="-137.053" y2="-78.309" xlink:href="#linear-gradient-9"/>
  </defs>
  <g id="Grupo_46159" data-name="Grupo 46159" transform="translate(-464.412 -478.87)">
    <g id="Grupo_46142" data-name="Grupo 46142" transform="translate(468.278 478.87)">
      <g id="Grupo_46137" data-name="Grupo 46137" transform="translate(0 13.841)">
        <g id="Grupo_46134" data-name="Grupo 46134">
          <path id="Trazado_96135" data-name="Trazado 96135" d="M503.454,1093.878a.449.449,0,0,1-.291-.384c-.044-.585-.076-1.182-.1-1.772a.434.434,0,0,1,.432-.447c.6-.013.436.583.554,2.168a.434.434,0,0,1-.413.464A.461.461,0,0,1,503.454,1093.878Z" transform="translate(-503.068 -1047.364)" fill="#00223d"/>
          <path id="Trazado_96136" data-name="Trazado 96136" d="M504.769,705.874c.109-1.123.266-2.255.465-3.365a.439.439,0,0,1,.517-.349c.662.128.23.5-.093,3.811a.437.437,0,0,1-.487.388A.449.449,0,0,1,504.769,705.874Zm1.782-8.717c.34-1.081.73-2.168,1.146-3.193a.448.448,0,0,1,.831.335c-.414,1.023-.79,2.072-1.123,3.129a.448.448,0,0,1-.854-.271ZM510.089,689c.554-.981,1.155-1.952,1.787-2.886a.448.448,0,0,1,.747.493c-.619.916-1.208,1.867-1.751,2.828A.448.448,0,0,1,510.089,689Zm5.22-6.631a.435.435,0,0,1-.048-.62c.749-.846,1.542-1.672,2.358-2.458.419-.4,1.049.229.63.632-.8.769-1.577,1.58-2.31,2.408A.451.451,0,0,1,515.31,682.369Zm6.459-6.041a.432.432,0,0,1,.082-.615c.911-.676,1.861-1.324,2.823-1.927a.445.445,0,0,1,.488.743c-.943.591-1.874,1.226-2.767,1.888A.454.454,0,0,1,521.768,676.328Zm7.837-4.383a.45.45,0,0,1-.247-.224.431.431,0,0,1,.207-.584c1.035-.478,2.1-.922,3.169-1.319a.455.455,0,0,1,.579.257.431.431,0,0,1-.253.566c-1.047.388-2.092.824-3.106,1.292A.452.452,0,0,1,529.606,671.945Zm8.434-2.9a.45.45,0,0,1-.279-.308.432.432,0,0,1,.324-.529c1.113-.26,2.252-.48,3.384-.654a.453.453,0,0,1,.516.366.432.432,0,0,1-.365.5c-1.109.17-2.225.386-3.316.641A.452.452,0,0,1,538.039,669.044Zm8.592-1.541a.434.434,0,0,1,.428-.451c1.147-.03,2.311-.016,3.461.043a.439.439,0,1,1-.033.877c-1.126-.057-2.267-.071-3.39-.042A.452.452,0,0,1,546.631,667.5Zm28.621,9.54c-2.676-2.043-3.278-2.01-2.91-2.564a.449.449,0,0,1,.618-.122c.966.626,1.919,1.3,2.834,2A.439.439,0,1,1,575.252,677.044ZM555.6,668.087a.438.438,0,0,1,.514-.354c1.132.2,2.272.449,3.389.736a.438.438,0,1,1-.214.849c-1.094-.281-2.212-.524-3.321-.721A.447.447,0,0,1,555.6,668.087Zm12.064,4.293c-3.028-1.464-3.618-1.313-3.374-1.933a.455.455,0,0,1,.577-.244c1.076.422,2.146.89,3.181,1.39a.438.438,0,1,1-.384.787Z" transform="translate(-504.591 -667.038)" fill="#00223d"/>
          <path id="Trazado_96137" data-name="Trazado 96137" d="M1226.163,793.572c-1.026-1.1-1.663-1.467-1.236-1.885a.451.451,0,0,1,.632.006c1.107,1.091,1.662,1.525,1.236,1.91A.509.509,0,0,1,1226.163,793.572Z" transform="translate(-1150.091 -778.672)" fill="#00223d"/>
        </g>
        <g id="Grupo_46135" data-name="Grupo 46135" transform="translate(10.463 44.304)">
          <path id="Trazado_96138" data-name="Trazado 96138" d="M1350.953,1097.68a.447.447,0,0,1-.291-.439c.031-.577.05-1.161.057-1.736a.435.435,0,0,1,.452-.427.451.451,0,0,1,.441.451c-.007.587-.027,1.183-.059,1.771a.436.436,0,0,1-.47.409A.459.459,0,0,1,1350.953,1097.68Z" transform="translate(-1273.393 -1095.078)" fill="#00223d"/>
          <path id="Trazado_96139" data-name="Trazado 96139" d="M669.631,1200.292c-1.149-.47-2.293-.994-3.4-1.556a.44.44,0,0,1-.2-.592c.313-.606.566-.038,3.929,1.339a.442.442,0,0,1,.248.575A.455.455,0,0,1,669.631,1200.292Zm5.432,1.385c.169-.659.56-.156,4.116.473a.447.447,0,0,1,.368.51.439.439,0,0,1-.513.354c-1.217-.215-2.444-.484-3.647-.8A.446.446,0,0,1,675.063,1201.677Zm-14.04-6.049c-1.018-.7-2.02-1.461-2.977-2.248a.436.436,0,0,1-.061-.619c.442-.522.561.086,3.545,2.151a.438.438,0,0,1,.115.613A.45.45,0,0,1,661.024,1195.629Zm23.891,8.01a.448.448,0,0,1-.292-.428.435.435,0,0,1,.458-.421c1.214.049,2.442.048,3.649,0a.451.451,0,0,1,.472.419.434.434,0,0,1-.42.458c-1.233.053-2.486.054-3.725,0A.461.461,0,0,1,684.915,1203.639Zm9.625-.662a.451.451,0,0,1-.284-.331.432.432,0,0,1,.352-.511c1.188-.214,2.381-.48,3.547-.792a.455.455,0,0,1,.553.309.432.432,0,0,1-.306.539c-1.19.319-2.408.59-3.621.809A.454.454,0,0,1,694.54,1202.977Zm9.213-2.724a.452.452,0,0,1-.254-.238.431.431,0,0,1,.228-.576c1.109-.465,2.211-.982,3.275-1.537a.456.456,0,0,1,.606.184.431.431,0,0,1-.178.593c-1.086.566-2.211,1.094-3.342,1.569A.453.453,0,0,1,703.753,1200.253Zm8.36-4.643a.454.454,0,0,1-.2-.154.432.432,0,0,1,.095-.613c.976-.692,1.933-1.435,2.846-2.206a.453.453,0,0,1,.63.051.432.432,0,0,1-.042.619c-.931.788-1.908,1.545-2.9,2.252A.451.451,0,0,1,712.113,1195.609Zm6.966-6.422c-.524-.455.093-.546,2.23-3.394a.447.447,0,0,1,.722.528c-.729.972-1.51,1.925-2.321,2.832A.451.451,0,0,1,719.079,1189.187Zm5.57-7.687c-.612-.331-.035-.55,1.405-3.8a.448.448,0,0,1,.82.36c-.492,1.11-1.037,2.211-1.621,3.273A.446.446,0,0,1,724.649,1181.5Zm3.66-8.735a.444.444,0,0,1-.275-.534c.328-1.148.61-2.319.838-3.481a.439.439,0,0,1,.523-.341.448.448,0,0,1,.354.52c-.232,1.186-.52,2.38-.855,3.552a.441.441,0,0,1-.551.3Z" transform="translate(-652.322 -1160.81)" fill="#00223d"/>
          <path id="Trazado_96140" data-name="Trazado 96140" d="M605.454,1351.46c-1.057-1.141-1.589-1.6-1.145-1.963.462-.379.721.209,1.8,1.377a.433.433,0,0,1-.025.62A.453.453,0,0,1,605.454,1351.46Z" transform="translate(-604.152 -1323.06)" fill="#00223d"/>
        </g>
        <g id="Grupo_46136" data-name="Grupo 46136" transform="translate(11.1 10.609)">
          <path id="Trazado_96141" data-name="Trazado 96141" d="M615.856,820.531l6.349-.786a28.425,28.425,0,0,0,6.885,5.875c.248,6.122-.169,6.569.486,6.787l7.317,2.438a.527.527,0,0,0,.583-.172l3.854-4.975a28.316,28.316,0,0,0,9.021-.576l4.619,4.44a.537.537,0,0,0,.605.1l6.85-3.337a.507.507,0,0,0,.282-.529l-.9-6.254a26.987,26.987,0,0,0,5.873-6.68l6.407-.024a.517.517,0,0,0,.491-.351l2.369-7.157a.519.519,0,0,0-.184-.576l-5.12-3.864a27.089,27.089,0,0,0-.722-8.877c4.251-4.461,4.848-4.464,4.537-5.067-3.548-6.594-3.346-7.155-4.041-7.07l-6.349.786a28.423,28.423,0,0,0-6.885-5.875c-.247-6.119.169-6.569-.485-6.787-7.312-2.3-7.486-2.8-7.9-2.265l-3.854,4.975a28.308,28.308,0,0,0-9.021.576c-4.547-4.195-4.606-4.838-5.224-4.537-6.72,3.421-7.228,3.191-7.132,3.866l.9,6.254a26.985,26.985,0,0,0-5.873,6.68c-6.116.148-6.682-.279-6.9.375-2.217,7.122-2.739,7.315-2.185,7.733l5.12,3.864a27.094,27.094,0,0,0,.722,8.877c-4.236,4.446-4.849,4.461-4.537,5.067C615.363,820.056,615.161,820.617,615.856,820.531Z" transform="translate(-610.306 -769.538)" fill="#7d6eb2"/>
          <path id="Trazado_96142" data-name="Trazado 96142" d="M859.905,1020.675a7.334,7.334,0,0,1,7.977-6.751,7.56,7.56,0,0,1,6.99,7.945,7.335,7.335,0,0,1-7.977,6.751h0A7.558,7.558,0,0,1,859.905,1020.675Zm7.034,7.288h0Zm.855-12.726a6.016,6.016,0,0,0-6.551,5.545,6.207,6.207,0,0,0,5.74,6.525,6.024,6.024,0,0,0,6.552-5.545A6.208,6.208,0,0,0,867.794,1015.237Z" transform="translate(-834.056 -988.606)" fill="url(#linear-gradient)"/>
          <path id="Trazado_96143" data-name="Trazado 96143" d="M760.447,938.574h0a19.8,19.8,0,0,1-3-1.428.662.662,0,0,1-.293-.8.625.625,0,0,1,.049-.1.671.671,0,0,1,.916-.226,18.535,18.535,0,0,0,3.48,1.575h0a17.742,17.742,0,0,0,22.29-10.3q.127-.335.24-.678A17.943,17.943,0,0,0,750.1,915.276c-1.815,5.482-.229,9.161-.442,9.726a.675.675,0,0,1-1.282-.1,18.532,18.532,0,0,1,.707-10.78c5.783-15.309,27.569-16.242,35.161-1.52a18.546,18.546,0,0,1,1.169,14.437q-.122.371-.26.735a18.482,18.482,0,0,1-9.287,10.132,19.347,19.347,0,0,1-14.671.931Q760.816,938.714,760.447,938.574Z" transform="translate(-733.643 -888.364)" fill="url(#linear-gradient)"/>
        </g>
      </g>
      <g id="Grupo_46141" data-name="Grupo 46141" transform="translate(75.08 0)">
        <g id="Grupo_46138" data-name="Grupo 46138">
          <path id="Trazado_96144" data-name="Trazado 96144" d="M1228.677,792.265a.272.272,0,0,1-.177-.233c-.026-.355-.046-.717-.057-1.075a.263.263,0,0,1,.262-.271c.363-.008.265.354.336,1.315a.263.263,0,0,1-.251.281A.278.278,0,0,1,1228.677,792.265Z" transform="translate(-1228.443 -764.047)" fill="#00223d"/>
          <path id="Trazado_96145" data-name="Trazado 96145" d="M1229.474,556.879c.066-.681.161-1.368.282-2.041a.266.266,0,0,1,.314-.212c.4.078.14.3-.056,2.312a.265.265,0,0,1-.3.235A.272.272,0,0,1,1229.474,556.879Zm1.081-5.288c.207-.655.443-1.315.7-1.937a.272.272,0,0,1,.5.2c-.251.62-.479,1.257-.681,1.9a.272.272,0,0,1-.518-.165Zm2.147-4.948c.336-.6.7-1.184,1.084-1.751a.272.272,0,0,1,.453.3c-.376.556-.733,1.133-1.062,1.716A.272.272,0,0,1,1232.7,546.642Zm3.167-4.023a.263.263,0,0,1-.029-.376c.454-.513.935-1.015,1.43-1.491.255-.245.636.139.382.383-.485.467-.956.958-1.4,1.461A.273.273,0,0,1,1235.869,542.619Zm3.918-3.665a.262.262,0,0,1,.049-.373c.553-.41,1.129-.8,1.713-1.169a.27.27,0,0,1,.3.451c-.572.358-1.137.744-1.678,1.145A.276.276,0,0,1,1239.787,538.954Zm4.754-2.659a.273.273,0,0,1-.15-.136.261.261,0,0,1,.125-.354c.628-.29,1.275-.559,1.923-.8a.276.276,0,0,1,.351.156.262.262,0,0,1-.153.343c-.635.236-1.269.5-1.884.784A.274.274,0,0,1,1244.542,536.3Zm5.117-1.76a.274.274,0,0,1-.169-.187.262.262,0,0,1,.2-.321c.676-.158,1.366-.292,2.053-.4a.275.275,0,0,1,.313.222.263.263,0,0,1-.221.3c-.673.1-1.35.234-2.012.389A.274.274,0,0,1,1249.658,534.536Zm5.212-.935a.264.264,0,0,1,.26-.273c.7-.018,1.4-.01,2.1.026a.266.266,0,1,1-.02.532c-.683-.035-1.375-.043-2.057-.025A.274.274,0,0,1,1254.87,533.6Zm17.363,5.788c-1.624-1.24-1.988-1.22-1.766-1.556a.272.272,0,0,1,.375-.074c.586.38,1.164.787,1.719,1.211A.266.266,0,1,1,1272.234,539.388Zm-11.923-5.433a.266.266,0,0,1,.312-.215c.687.122,1.378.272,2.056.446a.266.266,0,1,1-.13.515c-.664-.171-1.342-.318-2.015-.438A.271.271,0,0,1,1260.311,533.955Zm7.319,2.6c-1.837-.888-2.195-.8-2.047-1.173a.276.276,0,0,1,.35-.148c.652.256,1.3.54,1.93.843a.266.266,0,1,1-.233.478Z" transform="translate(-1229.366 -533.318)" fill="#00223d"/>
          <path id="Trazado_96146" data-name="Trazado 96146" d="M1667.116,610.081c-.622-.665-1.009-.89-.75-1.144a.274.274,0,0,1,.383,0c.671.662,1.008.925.75,1.159A.309.309,0,0,1,1667.116,610.081Z" transform="translate(-1620.966 -601.042)" fill="#00223d"/>
        </g>
        <g id="Grupo_46139" data-name="Grupo 46139" transform="translate(6.347 26.878)">
          <path id="Trazado_96147" data-name="Trazado 96147" d="M1742.821,794.572a.271.271,0,0,1-.177-.267c.019-.35.031-.7.035-1.053a.264.264,0,0,1,.274-.259.274.274,0,0,1,.268.273c0,.356-.016.718-.036,1.075a.265.265,0,0,1-.285.248A.276.276,0,0,1,1742.821,794.572Z" transform="translate(-1695.769 -792.993)" fill="#00223d"/>
          <path id="Trazado_96148" data-name="Trazado 96148" d="M1329.49,856.823c-.7-.285-1.391-.6-2.061-.944a.267.267,0,0,1-.12-.359c.189-.367.343-.023,2.383.812a.268.268,0,0,1,.151.349A.276.276,0,0,1,1329.49,856.823Zm3.3.84c.1-.4.34-.094,2.5.287a.271.271,0,0,1,.223.309.266.266,0,0,1-.312.215c-.738-.13-1.482-.294-2.212-.485A.27.27,0,0,1,1332.785,857.663Zm-8.517-3.669c-.618-.427-1.225-.886-1.806-1.364a.264.264,0,0,1-.037-.376c.268-.316.34.052,2.151,1.305a.266.266,0,0,1,.07.372A.273.273,0,0,1,1324.268,853.993Zm14.494,4.86a.272.272,0,0,1-.177-.26.264.264,0,0,1,.278-.255c.736.03,1.481.029,2.214,0a.274.274,0,0,1,.286.254.263.263,0,0,1-.254.278c-.748.032-1.508.033-2.26,0A.281.281,0,0,1,1338.762,858.853Zm5.839-.4a.273.273,0,0,1-.172-.2.262.262,0,0,1,.213-.31c.721-.13,1.445-.291,2.152-.481a.276.276,0,0,1,.335.187.262.262,0,0,1-.186.327c-.722.193-1.461.358-2.2.491A.277.277,0,0,1,1344.6,858.451Zm5.589-1.653a.275.275,0,0,1-.154-.145.262.262,0,0,1,.138-.349c.672-.282,1.341-.6,1.987-.933a.276.276,0,0,1,.368.112.262.262,0,0,1-.108.36c-.659.343-1.341.664-2.028.951A.275.275,0,0,1,1350.19,856.8Zm5.072-2.817a.276.276,0,0,1-.124-.094.262.262,0,0,1,.057-.372c.592-.42,1.173-.87,1.726-1.339a.275.275,0,0,1,.382.031.263.263,0,0,1-.025.375c-.565.478-1.157.937-1.762,1.366A.274.274,0,0,1,1355.262,853.982Zm4.226-3.9c-.318-.276.056-.331,1.353-2.059a.271.271,0,0,1,.438.32c-.442.59-.916,1.167-1.408,1.718A.273.273,0,0,1,1359.488,850.086Zm3.379-4.664c-.371-.2-.021-.334.853-2.307a.272.272,0,0,1,.5.219c-.3.674-.629,1.342-.983,1.985A.271.271,0,0,1,1362.867,845.422Zm2.22-5.3a.269.269,0,0,1-.167-.324c.2-.7.37-1.407.508-2.112a.266.266,0,0,1,.317-.207.271.271,0,0,1,.215.315c-.141.719-.315,1.444-.519,2.155a.267.267,0,0,1-.334.18Z" transform="translate(-1318.989 -832.871)" fill="#00223d"/>
          <path id="Trazado_96149" data-name="Trazado 96149" d="M1290.556,948.53c-.641-.692-.964-.97-.695-1.191s.437.127,1.093.836a.262.262,0,0,1-.016.376A.275.275,0,0,1,1290.556,948.53Z" transform="translate(-1289.766 -931.301)" fill="#00223d"/>
        </g>
        <g id="Grupo_46140" data-name="Grupo 46140" transform="translate(6.734 6.436)">
          <path id="Trazado_96150" data-name="Trazado 96150" d="M1296.866,626.436l3.852-.477a17.24,17.24,0,0,0,4.177,3.564c.15,3.714-.1,3.985.295,4.118l4.439,1.479a.319.319,0,0,0,.354-.1l2.338-3.018a17.178,17.178,0,0,0,5.473-.349l2.8,2.694a.326.326,0,0,0,.367.059l4.155-2.025a.307.307,0,0,0,.171-.321l-.543-3.794a16.376,16.376,0,0,0,3.563-4.052l3.887-.015a.313.313,0,0,0,.3-.213l1.437-4.342a.315.315,0,0,0-.112-.35l-3.106-2.344a16.432,16.432,0,0,0-.438-5.385c2.579-2.706,2.941-2.709,2.753-3.074-2.153-4-2.03-4.341-2.452-4.289l-3.852.477a17.243,17.243,0,0,0-4.177-3.564c-.15-3.712.1-3.985-.294-4.118-4.436-1.394-4.542-1.7-4.793-1.374l-2.338,3.018a17.173,17.173,0,0,0-5.473.349c-2.758-2.545-2.795-2.935-3.169-2.753-4.077,2.076-4.385,1.936-4.327,2.346l.544,3.794a16.369,16.369,0,0,0-3.563,4.053c-3.71.09-4.054-.169-4.185.227-1.345,4.321-1.662,4.437-1.326,4.691l3.106,2.344a16.449,16.449,0,0,0,.438,5.385c-2.57,2.7-2.942,2.707-2.753,3.074C1296.567,626.148,1296.445,626.488,1296.866,626.436Z" transform="translate(-1293.499 -595.5)" fill="#f6c343"/>
          <path id="Trazado_96151" data-name="Trazado 96151" d="M1444.922,747.855a4.449,4.449,0,0,1,4.839-4.1,4.586,4.586,0,0,1,4.24,4.82,4.45,4.45,0,0,1-4.84,4.1h0A4.585,4.585,0,0,1,1444.922,747.855Zm4.267,4.421h0Zm.519-7.72a3.65,3.65,0,0,0-3.974,3.364,3.765,3.765,0,0,0,3.482,3.958,3.654,3.654,0,0,0,3.975-3.364A3.766,3.766,0,0,0,1449.707,744.556Z" transform="translate(-1429.24 -728.401)" fill="url(#linear-gradient)"/>
          <path id="Trazado_96152" data-name="Trazado 96152" d="M1384.585,698.048h0a12.013,12.013,0,0,1-1.818-.866.4.4,0,0,1-.178-.486.418.418,0,0,1,.03-.062.408.408,0,0,1,.556-.137,11.255,11.255,0,0,0,2.111.955h0a10.763,10.763,0,0,0,13.523-6.248q.077-.2.146-.411a10.885,10.885,0,0,0-20.65-6.879c-1.1,3.326-.139,5.558-.268,5.9a.41.41,0,0,1-.777-.06,11.241,11.241,0,0,1,.429-6.54c3.508-9.287,16.725-9.853,21.331-.922a11.25,11.25,0,0,1,.709,8.758q-.074.225-.158.446a11.213,11.213,0,0,1-5.634,6.147,11.739,11.739,0,0,1-8.9.565Q1384.809,698.133,1384.585,698.048Z" transform="translate(-1368.323 -667.587)" fill="url(#linear-gradient)"/>
        </g>
      </g>
    </g>
    <g id="Grupo_46143" data-name="Grupo 46143" transform="translate(464.412 497.33)">
      <path id="Trazado_96153" data-name="Trazado 96153" d="M1061.393,2269.109h-40.141c-2.813,0-5.411,2.05-5.411,3.472v87.138c0,1.422,2.6,2.822,5.411,2.822h40.141c2.813,0,6.07-1.4,6.07-2.822v-87.138C1067.463,2271.159,1064.206,2269.109,1061.393,2269.109Z" transform="translate(-958.901 -2107.905)" fill="#00223d"/>
      <path id="Trazado_96154" data-name="Trazado 96154" d="M516.086,2564.846c0-.736-2.537-1.5-5.35-1.5H471.049c-2.813,0-5.326.76-5.326,1.5v60.05c0,.736,2.513,1.43,5.326,1.43h39.687c2.813,0,5.35-.694,5.35-1.43Z" transform="translate(-465.723 -2371.691)" fill="#00223d"/>
      <path id="Trazado_96155" data-name="Trazado 96155" d="M2716.686,1172.827c0-1.808-3.026-3.172-5.839-3.172h-40.176c-2.813,0-4.977,1.364-4.977,3.172v200.253c0,1.808,2.164,3.807,4.977,3.807h40.176c2.813,0,5.839-2,5.839-3.807Z" transform="translate(-2437.986 -1122.25)" fill="#00223d"/>
      <path id="Trazado_96156" data-name="Trazado 96156" d="M1628.881,1901.965c0-1.332-2.426-2.563-5.24-2.563h-39.687c-2.813,0-4.807,1.231-4.807,2.563v126.577c0,1.332,1.994,2.559,4.807,2.559h39.687c2.813,0,5.24-1.227,5.24-2.559Z" transform="translate(-1463.903 -1776.465)" fill="#00223d"/>
      <path id="Trazado_96157" data-name="Trazado 96157" d="M2174.792,1524.788c0-1.495-2.228-2.489-5.041-2.489h-39.686c-2.814,0-5.005.994-5.005,2.489v165.663c0,1.494,2.191,2.579,5.005,2.579h39.686c2.813,0,5.041-1.085,5.041-2.579Z" transform="translate(-1953.309 -1438.395)" fill="#00223d"/>
      <path id="Trazado_96158" data-name="Trazado 96158" d="M2570.116,759.987l32.125-47.287a2.306,2.306,0,0,1,3.834-.029l33.118,47.287a2.47,2.47,0,0,1-1.907,3.914h-65.243A2.469,2.469,0,0,1,2570.116,759.987Z" transform="translate(-2351.908 -711.661)" fill="#00223d"/>
    </g>
    <g id="Grupo_46146" data-name="Grupo 46146" transform="translate(674.897 608.201)">
      <g id="Grupo_46145" data-name="Grupo 46145" transform="translate(0 0)">
        <circle id="Elipse_3866" data-name="Elipse 3866" cx="31.829" cy="31.829" r="31.829" transform="translate(0 45.014) rotate(-45)" fill="#00223d"/>
        <circle id="Elipse_3867" data-name="Elipse 3867" cx="30.771" cy="30.771" r="30.771" transform="translate(1.497 45.014) rotate(-45)" fill="#f6c343"/>
        <path id="Trazado_96159" data-name="Trazado 96159" d="M2682.929,1953.5a.7.7,0,0,1-.317-.076.705.705,0,0,1-.312-.948,28.988,28.988,0,0,1,26-16.011,29.345,29.345,0,0,1,5.251.473.706.706,0,1,1-.253,1.389,27.928,27.928,0,0,0-5-.45,27.585,27.585,0,0,0-24.743,15.235A.705.705,0,0,1,2682.929,1953.5Z" transform="translate(-2663.29 -1920.566)" fill="#fff"/>
        <circle id="Elipse_3868" data-name="Elipse 3868" cx="26.044" cy="26.044" r="26.044" transform="translate(8.852 45.684) rotate(-45)" opacity="0.78" fill="url(#linear-gradient)"/>
        <g id="Grupo_46144" data-name="Grupo 46144" transform="translate(34.213 27.252)">
          <path id="Trazado_96160" data-name="Trazado 96160" d="M2838.753,2083.913v-2.833a23.115,23.115,0,0,1-7.95-1.724,1.639,1.639,0,0,1-.906-1.936l.72-2.639a1.652,1.652,0,0,1,2.243-1.081,19.182,19.182,0,0,0,7.34,1.545c2.845,0,4.967-.964,4.967-2.941,0-1.784-1.639-2.845-5.594-3.906-5.642-1.543-9.692-4-9.692-8.969,0-4.485,3.279-7.908,8.969-8.824v-2.834a1.651,1.651,0,0,1,1.651-1.651h1.665a1.651,1.651,0,0,1,1.651,1.651v2.545a21.061,21.061,0,0,1,6.3,1.131,1.643,1.643,0,0,1,1.027,1.983l-.662,2.441a1.646,1.646,0,0,1-2.173,1.111,17.2,17.2,0,0,0-6.181-1.122c-3.375,0-4.34,1.4-4.34,2.652,0,1.543,2.025,2.6,6.413,3.955,6.269,1.88,8.873,4.484,8.873,9.161,0,4.292-3.183,8.149-9.355,9.114v3.171a1.651,1.651,0,0,1-1.651,1.651H2840.4A1.651,1.651,0,0,1,2838.753,2083.913Z" transform="translate(-2829.838 -2046.12)" fill="#f6c343"/>
        </g>
      </g>
      <rect id="Rectángulo_28275" data-name="Rectángulo 28275" width="62.368" height="11.88" rx="3.634" transform="translate(13.83 85.79)" fill="#f6c343"/>
      <rect id="Rectángulo_28276" data-name="Rectángulo 28276" width="62.368" height="11.88" rx="3.634" transform="translate(13.879 99.203)" fill="#f6c343"/>
      <rect id="Rectángulo_28277" data-name="Rectángulo 28277" width="62.368" height="11.88" rx="3.634" transform="translate(13.928 112.616)" fill="#f6c343"/>
      <rect id="Rectángulo_28278" data-name="Rectángulo 28278" width="62.368" height="11.88" rx="3.634" transform="translate(13.977 125.681)" fill="#f6c343"/>
      <rect id="Rectángulo_28279" data-name="Rectángulo 28279" width="62.368" height="11.88" rx="3.634" transform="translate(14.026 138.747)" fill="#f6c343"/>
    </g>
    <g id="Grupo_46149" data-name="Grupo 46149" transform="translate(607.332 622.308)">
      <g id="Grupo_46148" data-name="Grupo 46148" transform="translate(0 0)">
        <circle id="Elipse_3869" data-name="Elipse 3869" cx="31.829" cy="31.829" r="31.829" transform="translate(0 45.014) rotate(-45)" fill="#00223d"/>
        <circle id="Elipse_3870" data-name="Elipse 3870" cx="30.771" cy="30.771" r="30.771" transform="translate(1.497 45.014) rotate(-45)" fill="#f6c343"/>
        <path id="Trazado_96161" data-name="Trazado 96161" d="M2030.157,2089.8a.706.706,0,0,1-.629-1.024,28.989,28.989,0,0,1,26-16.01,29.368,29.368,0,0,1,5.251.472.706.706,0,1,1-.253,1.389,27.957,27.957,0,0,0-5-.449,27.584,27.584,0,0,0-24.743,15.235A.706.706,0,0,1,2030.157,2089.8Z" transform="translate(-2010.518 -2056.861)" fill="#fff"/>
        <circle id="Elipse_3871" data-name="Elipse 3871" cx="26.044" cy="26.044" r="26.044" transform="translate(8.852 45.684) rotate(-45)" opacity="0.78" fill="url(#linear-gradient)"/>
        <g id="Grupo_46147" data-name="Grupo 46147" transform="translate(34.213 27.252)">
          <path id="Trazado_96162" data-name="Trazado 96162" d="M2185.982,2220.207v-2.833a23.094,23.094,0,0,1-7.95-1.724,1.638,1.638,0,0,1-.906-1.936l.72-2.639a1.652,1.652,0,0,1,2.242-1.081,19.187,19.187,0,0,0,7.341,1.546c2.845,0,4.967-.965,4.967-2.942,0-1.784-1.64-2.845-5.594-3.906-5.642-1.543-9.693-4-9.693-8.969,0-4.485,3.279-7.908,8.969-8.824v-2.834a1.651,1.651,0,0,1,1.651-1.651h1.665a1.651,1.651,0,0,1,1.651,1.651v2.544a21.062,21.062,0,0,1,6.3,1.132,1.642,1.642,0,0,1,1.027,1.983l-.662,2.441a1.647,1.647,0,0,1-2.174,1.112,17.185,17.185,0,0,0-6.18-1.122c-3.376,0-4.34,1.4-4.34,2.652,0,1.543,2.025,2.6,6.413,3.954,6.269,1.881,8.873,4.484,8.873,9.162,0,4.292-3.183,8.15-9.354,9.114v3.171a1.651,1.651,0,0,1-1.651,1.651h-1.665A1.651,1.651,0,0,1,2185.982,2220.207Z" transform="translate(-2177.067 -2182.413)" fill="#f6c343"/>
        </g>
      </g>
      <rect id="Rectángulo_28280" data-name="Rectángulo 28280" width="62.368" height="11.88" rx="3.634" transform="translate(13.83 84.402)" fill="#f6c343"/>
      <rect id="Rectángulo_28281" data-name="Rectángulo 28281" width="62.368" height="11.88" rx="3.634" transform="translate(13.879 97.814)" fill="#f6c343"/>
      <rect id="Rectángulo_28282" data-name="Rectángulo 28282" width="62.368" height="11.88" rx="3.634" transform="translate(13.928 111.227)" fill="#f6c343"/>
      <rect id="Rectángulo_28283" data-name="Rectángulo 28283" width="62.368" height="11.88" rx="3.634" transform="translate(13.977 124.64)" fill="#f6c343"/>
    </g>
    <g id="Grupo_46150" data-name="Grupo 46150" transform="translate(486.994 547.039)">
      <path id="Trazado_96163" data-name="Trazado 96163" d="M847.756,2940.347a.519.519,0,0,1-.4-.183q-.453-.532-.9-1.072a.521.521,0,1,1,.8-.661q.437.532.885,1.058a.52.52,0,0,1-.4.858Z" transform="translate(-829.53 -2757.488)" fill="#00223d"/>
      <path id="Trazado_96164" data-name="Trazado 96164" d="M699.51,1371.557a.519.519,0,0,1-.413-.2c-.563-.733-1.119-1.484-1.654-2.231a.521.521,0,0,1,.847-.606c.527.738,1.077,1.479,1.632,2.2a.521.521,0,0,1-.413.838Zm-3.208-4.489a.52.52,0,0,1-.434-.233c-.512-.771-1.015-1.559-1.495-2.341a.521.521,0,0,1,.888-.544c.473.772.97,1.549,1.475,2.31a.521.521,0,0,1-.433.808Zm-2.885-4.7a.521.521,0,0,1-.454-.265c-.455-.8-.9-1.628-1.321-2.444a.521.521,0,1,1,.925-.478c.416.805.855,1.616,1.3,2.41a.521.521,0,0,1-.453.777Zm-2.533-4.9a.521.521,0,0,1-.472-.3c-.393-.836-.775-1.69-1.134-2.537a.521.521,0,0,1,.959-.406c.354.835.73,1.676,1.117,2.5a.521.521,0,0,1-.471.742Zm-2.152-5.079a.521.521,0,0,1-.487-.337c-.327-.864-.64-1.745-.932-2.619a.521.521,0,1,1,.988-.33c.287.861.6,1.729.918,2.58a.52.52,0,0,1-.3.671A.514.514,0,0,1,688.731,1352.385Zm-1.744-5.233a.521.521,0,0,1-.5-.376c-.257-.89-.5-1.794-.716-2.686a.521.521,0,0,1,1.011-.247c.215.879.452,1.769.705,2.645a.521.521,0,0,1-.5.665Zm-1.31-5.358a.521.521,0,0,1-.51-.418c-.182-.9-.346-1.825-.49-2.737a.521.521,0,1,1,1.029-.162c.141.9.3,1.8.482,2.694a.521.521,0,0,1-.408.613A.514.514,0,0,1,685.677,1341.794Zm-.854-5.449a.521.521,0,0,1-.517-.463c-.1-.906-.185-1.838-.249-2.77a.521.521,0,1,1,1.039-.071c.063.917.145,1.834.245,2.725a.521.521,0,0,1-.459.575A.53.53,0,0,1,684.822,1336.345Zm-.381-5.5a.521.521,0,0,1-.52-.506c-.02-.7-.03-1.413-.03-2.122q0-.327,0-.656a.521.521,0,0,1,.52-.516h0a.521.521,0,0,1,.516.525q0,.324,0,.647c0,.7.01,1.4.03,2.092a.521.521,0,0,1-.506.535Zm.047-5.517h-.023a.521.521,0,0,1-.5-.543c.04-.913.1-1.846.17-2.772a.521.521,0,1,1,1.038.081c-.072.914-.128,1.835-.168,2.736A.521.521,0,0,1,684.488,1325.326Zm.431-5.5a.521.521,0,0,1-.518-.579c.1-.912.221-1.839.353-2.754a.521.521,0,1,1,1.03.149c-.13.9-.248,1.819-.349,2.721A.521.521,0,0,1,684.919,1319.825Zm.789-5.462a.521.521,0,0,1-.513-.612c.16-.906.338-1.823.527-2.725a.521.521,0,1,1,1.019.214c-.187.892-.362,1.8-.521,2.693A.521.521,0,0,1,685.708,1314.363Zm1.131-5.4a.522.522,0,0,1-.506-.644c.216-.894.451-1.8.7-2.684a.521.521,0,0,1,1,.277c-.242.877-.474,1.769-.688,2.652A.521.521,0,0,1,686.839,1308.966Zm1.468-5.314a.521.521,0,0,1-.5-.675c.274-.881.565-1.768.866-2.636a.521.521,0,1,1,.984.341c-.3.858-.585,1.734-.856,2.6A.521.521,0,0,1,688.307,1303.652Zm1.808-5.212a.521.521,0,0,1-.486-.708c.332-.864.682-1.731,1.04-2.575a.521.521,0,0,1,.959.406c-.353.834-.7,1.689-1.027,2.542A.521.521,0,0,1,690.115,1298.44Zm2.155-5.081a.521.521,0,0,1-.471-.741c.392-.841.8-1.682,1.22-2.5a.521.521,0,0,1,.927.474c-.412.8-.816,1.634-1.2,2.464A.52.52,0,0,1,692.27,1293.359ZM738.1,1290.7a9.517,9.517,0,0,1-1.494-.118.521.521,0,1,1,.164-1.028,8.632,8.632,0,0,0,2.591.014.521.521,0,0,1,.149,1.031A9.92,9.92,0,0,1,738.1,1290.7Zm3.98-.85a.521.521,0,0,1-.2-1,12.554,12.554,0,0,0,2.3-1.3.521.521,0,0,1,.6.851,13.639,13.639,0,0,1-2.5,1.4A.518.518,0,0,1,742.081,1289.849Zm-8.01-.1a.52.52,0,0,1-.229-.053,11.694,11.694,0,0,1-2.4-1.59.521.521,0,0,1,.674-.794,10.631,10.631,0,0,0,2.185,1.449.521.521,0,0,1-.23.988Zm-39.287-1.307a.521.521,0,0,1-.454-.775c.455-.812.928-1.62,1.407-2.4a.521.521,0,1,1,.888.544c-.472.769-.938,1.565-1.386,2.365A.521.521,0,0,1,694.785,1288.443Zm51.8-1.727a.521.521,0,0,1-.369-.887,17.546,17.546,0,0,0,1.733-2.04.521.521,0,1,1,.842.612,18.613,18.613,0,0,1-1.836,2.162A.52.52,0,0,1,746.582,1286.716Zm-16.716-.466a.52.52,0,0,1-.405-.193c-.333-.411-.661-.855-.975-1.319-.22-.325-.436-.662-.64-1a.521.521,0,1,1,.891-.538c.2.324.4.645.611.955.3.44.608.86.923,1.249a.521.521,0,0,1-.4.848Zm-32.191-2.514a.521.521,0,0,1-.432-.811c.519-.772,1.058-1.538,1.6-2.277a.521.521,0,0,1,.838.618c-.536.727-1.066,1.481-1.577,2.24A.52.52,0,0,1,697.674,1283.737Zm52.126-1.474a.521.521,0,0,1-.468-.747,12.484,12.484,0,0,0,.892-2.488.521.521,0,0,1,1.012.245,13.532,13.532,0,0,1-.966,2.7A.521.521,0,0,1,749.8,1282.263Zm-22.795-.714a.521.521,0,0,1-.474-.3,25.7,25.7,0,0,1-1.023-2.622.521.521,0,0,1,.989-.325,24.607,24.607,0,0,0,.981,2.515.521.521,0,0,1-.473.737Zm-26.052-2.256a.521.521,0,0,1-.4-.848c.588-.726,1.2-1.439,1.806-2.122a.521.521,0,0,1,.776.694c-.6.67-1.2,1.371-1.773,2.084A.52.52,0,0,1,700.953,1279.293Zm50.133-2.352h-.012a.521.521,0,0,1-.509-.532q0-.123,0-.245a11.794,11.794,0,0,0-.242-2.38.521.521,0,1,1,1.02-.211,12.827,12.827,0,0,1,.264,2.59q0,.134,0,.268A.521.521,0,0,1,751.086,1276.941Zm-25.8-.623a.521.521,0,0,1-.509-.412,26.639,26.639,0,0,1-.438-2.778.521.521,0,1,1,1.036-.107,25.612,25.612,0,0,0,.421,2.669.521.521,0,0,1-.51.629Zm-20.652-1.14a.521.521,0,0,1-.37-.887c.654-.662,1.331-1.311,2.011-1.93a.521.521,0,0,1,.7.77c-.667.607-1.33,1.243-1.972,1.892A.519.519,0,0,1,704.634,1275.178Zm45.337-3.592a.52.52,0,0,1-.472-.3,11.266,11.266,0,0,0-.526-1,14.252,14.252,0,0,0-.846-1.264.521.521,0,0,1,.833-.625,15.3,15.3,0,0,1,.908,1.357c.209.352.4.718.575,1.089a.52.52,0,0,1-.472.74Zm-41.254-.118a.521.521,0,0,1-.329-.925c.7-.567,1.417-1.119,2.139-1.641l.077-.055a.521.521,0,1,1,.6.848l-.07.051c-.706.511-1.41,1.051-2.093,1.606A.518.518,0,0,1,708.717,1271.469Zm16-.628h0a.521.521,0,0,1-.52-.521,27.648,27.648,0,0,1,.146-2.807.521.521,0,1,1,1.036.107,26.548,26.548,0,0,0-.141,2.7A.521.521,0,0,1,724.716,1270.841Zm-11.523-2.593a.521.521,0,0,1-.278-.961c.79-.5,1.6-.974,2.406-1.414a.521.521,0,0,1,.5.914c-.788.429-1.578.894-2.349,1.381A.519.519,0,0,1,713.192,1268.248Zm33.5-1.057a.518.518,0,0,1-.353-.138,15.832,15.832,0,0,0-2.109-1.633.521.521,0,1,1,.567-.874,16.853,16.853,0,0,1,2.248,1.741.521.521,0,0,1-.353.9Zm-28.661-1.58a.521.521,0,0,1-.219-.994c.849-.392,1.716-.756,2.576-1.083a.521.521,0,0,1,.369.974c-.837.318-1.682.673-2.509,1.055A.516.516,0,0,1,718.034,1265.611Zm7.245-.249a.521.521,0,0,1-.511-.625c.108-.527.232-1.057.371-1.585-.6.145-1.2.307-1.8.485a.521.521,0,1,1-.3-1c.8-.239,1.618-.451,2.425-.631a.521.521,0,0,1,.993.315c-.265.867-.49,1.749-.669,2.624A.521.521,0,0,1,725.279,1265.362Zm16.816-1.174a.519.519,0,0,1-.213-.046,19.907,19.907,0,0,0-2.519-.931.521.521,0,0,1,.3-1,20.964,20.964,0,0,1,2.652.98.521.521,0,0,1-.214,1Zm-5.271-1.574a.531.531,0,0,1-.087-.007,25.086,25.086,0,0,0-2.684-.3.521.521,0,1,1,.062-1.04,26.192,26.192,0,0,1,2.8.316.521.521,0,0,1-.086,1.034Zm-8.246-.106a.521.521,0,0,1-.066-1.037c.936-.121,1.876-.2,2.794-.234a.521.521,0,1,1,.04,1.041c-.887.034-1.8.11-2.7.227A.541.541,0,0,1,728.577,1262.508Zm-1.693-2.416a.521.521,0,0,1-.482-.717c.346-.852.738-1.709,1.164-2.548a.521.521,0,1,1,.928.471c-.413.813-.792,1.644-1.128,2.469A.521.521,0,0,1,726.884,1260.092Zm2.489-4.917a.521.521,0,0,1-.444-.791c.475-.78.993-1.565,1.539-2.333a.521.521,0,1,1,.848.6c-.532.747-1.036,1.512-1.5,2.271A.521.521,0,0,1,729.373,1255.176Zm3.206-4.478a.52.52,0,0,1-.4-.859,26.25,26.25,0,0,1,1.937-2.032.521.521,0,1,1,.714.758,25.291,25.291,0,0,0-1.86,1.952A.519.519,0,0,1,732.58,1250.7Zm4-3.765a.521.521,0,0,1-.313-.937,26.258,26.258,0,0,1,2.334-1.564.521.521,0,1,1,.533.894,25.322,25.322,0,0,0-2.241,1.5A.52.52,0,0,1,736.584,1246.933Zm4.721-2.824a.521.521,0,0,1-.222-.992c.819-.386,1.662-.742,2.579-1.087a.521.521,0,1,1,.367.974c-.89.335-1.708.68-2.5,1.055A.518.518,0,0,1,741.306,1244.109Zm5.15-1.962a.521.521,0,0,1-.154-1.018c.8-.247,1.643-.492,2.668-.771a.521.521,0,1,1,.274,1c-1.013.276-1.85.518-2.633.761A.524.524,0,0,1,746.455,1242.146Zm5.318-1.475a.521.521,0,0,1-.133-1.024c.852-.226,1.763-.47,2.646-.731a.521.521,0,1,1,.294,1c-.9.264-1.814.511-2.674.738A.526.526,0,0,1,751.773,1240.672Zm5.279-1.6a.521.521,0,0,1-.184-1.008,19.712,19.712,0,0,0,2.448-1.1.521.521,0,1,1,.5.916,20.737,20.737,0,0,1-2.576,1.158A.519.519,0,0,1,757.053,1239.072Zm4.79-2.666a.521.521,0,0,1-.337-.918,10.272,10.272,0,0,0,1.767-1.922.521.521,0,1,1,.85.6,11.44,11.44,0,0,1-1.944,2.114A.517.517,0,0,1,761.842,1236.406Zm3.16-4.43a.515.515,0,0,1-.2-.04.521.521,0,0,1-.283-.68c.331-.8.651-1.638.979-2.552a.521.521,0,0,1,.98.351c-.333.93-.659,1.78-1,2.6A.521.521,0,0,1,765,1231.976Zm1.872-5.188a.522.522,0,0,1-.5-.68c.281-.873.551-1.749.818-2.626a.521.521,0,0,1,1,.3c-.268.882-.54,1.764-.823,2.642A.521.521,0,0,1,766.873,1226.788Zm1.619-5.275a.527.527,0,0,1-.151-.022.521.521,0,0,1-.347-.65c.268-.883.539-1.764.82-2.642a.521.521,0,1,1,.992.317c-.279.873-.549,1.749-.815,2.627A.521.521,0,0,1,768.492,1221.513Zm1.7-5.249a.521.521,0,0,1-.491-.7c.331-.933.655-1.783.989-2.6a.521.521,0,1,1,.964.394c-.328.8-.646,1.637-.972,2.554A.521.521,0,0,1,770.188,1216.264Zm2.1-5.1a.521.521,0,0,1-.468-.748c.415-.858.855-1.689,1.308-2.471a.521.521,0,1,1,.9.522c-.441.759-.868,1.568-1.272,2.4A.52.52,0,0,1,772.287,1211.169Zm2.772-4.76a.521.521,0,0,1-.426-.819c.537-.766,1.112-1.514,1.71-2.221a.521.521,0,0,1,.8.672c-.578.683-1.134,1.405-1.653,2.146A.52.52,0,0,1,775.059,1206.408Zm3.558-4.2a.521.521,0,0,1-.365-.892c.492-.483,1.009-.957,1.538-1.412q.272-.234.547-.461a.521.521,0,1,1,.663.8q-.267.221-.532.448c-.512.439-1.012.9-1.487,1.365A.519.519,0,0,1,778.617,1202.206Zm4.245-3.517a.521.521,0,0,1-.3-.946c.766-.539,1.558-1.05,2.353-1.518a.521.521,0,1,1,.529.9c-.771.455-1.539.95-2.282,1.473A.519.519,0,0,1,782.862,1198.689Zm4.749-2.8a.521.521,0,0,1-.226-.99c.846-.407,1.713-.778,2.577-1.1a.521.521,0,1,1,.367.974c-.836.315-1.675.673-2.493,1.067A.521.521,0,0,1,787.612,1195.894Zm5.158-1.936a.521.521,0,0,1-.137-1.023c.907-.248,1.829-.453,2.741-.61a.521.521,0,0,1,.176,1.026c-.879.151-1.768.349-2.642.588A.526.526,0,0,1,792.769,1193.958Zm5.429-.93a.521.521,0,0,1-.036-1.04,27.084,27.084,0,0,1,2.811-.05.521.521,0,0,1-.036,1.041,25.891,25.891,0,0,0-2.7.048Z" transform="translate(-683.891 -1191.923)" fill="#00223d"/>
      <path id="Trazado_96165" data-name="Trazado 96165" d="M1839.1,1195.8a.522.522,0,0,1-.1-.01c-.444-.089-.9-.167-1.339-.232a.521.521,0,0,1,.15-1.03c.463.067.932.148,1.395.241a.521.521,0,0,1-.1,1.031Z" transform="translate(-1717.834 -1194.257)" fill="#00223d"/>
    </g>
    <g id="Grupo_46153" data-name="Grupo 46153" transform="translate(580.944 500.352)">
      <path id="Trazado_96166" data-name="Trazado 96166" d="M1643.9,1223.97s2.045,12.279-6.808,14.752-18.4,2.771-20.539,6.53c0,0,.634-24.333,24.828-24.88Z" transform="translate(-1613.966 -1170.741)" fill="#f6c343"/>
      <path id="Trazado_96167" data-name="Trazado 96167" d="M1917.084,1227.146s6.1,10.589,3.923,14.113c-2.072,3.351-25.589,17.932-27.88,19.347a.228.228,0,0,1-.306-.062h0a3.131,3.131,0,0,1-.458-2.8c1.466-4.609,5.962-18.331,8.653-22.044C1904.265,1231.215,1917.084,1227.146,1917.084,1227.146Z" transform="translate(-1861.099 -1176.813)" fill="#7d6eb2"/>
      <path id="Trazado_96168" data-name="Trazado 96168" d="M1971.24,1281.545a.28.28,0,0,0,.222-.036c.128-.083,12.87-8.291,18.217-12.038a2.936,2.936,0,0,0,1.2-2.971,43.721,43.721,0,0,0-2.557-8.5.281.281,0,0,0-.516.224,43.069,43.069,0,0,1,2.521,8.385,2.373,2.373,0,0,1-.969,2.4c-5.338,3.74-18.07,11.943-18.2,12.025a.281.281,0,0,0,.082.508Z" transform="translate(-1931.754 -1204.323)" fill="#fff"/>
      <path id="Trazado_96169" data-name="Trazado 96169" d="M1630.794,935.734s-8.248-9.019-12.265-8.008c-3.821.962-24.832,18.968-26.873,20.723a.228.228,0,0,0-.033.31h0a3.13,3.13,0,0,0,2.531,1.284c4.836,0,19.276-.139,23.629-1.58C1623.039,946.722,1630.794,935.734,1630.794,935.734Z" transform="translate(-1591.577 -908.314)" fill="#7d6eb2"/>
      <path id="Trazado_96170" data-name="Trazado 96170" d="M1674.834,953.607a.281.281,0,0,0,.249-.055c.118-.1,11.786-9.753,16.966-13.709a2.374,2.374,0,0,1,2.582-.2,43.1,43.1,0,0,1,7.23,4.939.281.281,0,1,0,.369-.423,42.84,42.84,0,0,0-7.329-5.009,2.937,2.937,0,0,0-3.194.243c-5.189,3.964-16.866,13.626-16.984,13.723a.281.281,0,0,0,.109.489Z" transform="translate(-1666.028 -918.305)" fill="#fff"/>
      <path id="Trazado_96171" data-name="Trazado 96171" d="M1871.4,795.812a63.123,63.123,0,0,1-13.85,14.023,179.722,179.722,0,0,1-38.416,21.893,2.4,2.4,0,0,1-2.415-.4,42.251,42.251,0,0,1-12.033-16.177,3.482,3.482,0,0,1,.532-3.58,181.476,181.476,0,0,1,32.045-29.459,63.123,63.123,0,0,1,17.426-8.918C1863.834,780.388,1868.867,790.13,1871.4,795.812Z" transform="translate(-1782.383 -769.849)" fill="#f6c343"/>
      <path id="Trazado_96172" data-name="Trazado 96172" d="M2290.163,744.212a65.507,65.507,0,0,1,26.552-3.062,1.177,1.177,0,0,1,1.029,1.406,65.5,65.5,0,0,1-10.87,24.272C2304.34,761.146,2299.307,751.4,2290.163,744.212Z" transform="translate(-2217.856 -740.865)" fill="#7d6eb2"/>
      <g id="Grupo_46151" data-name="Grupo 46151" transform="translate(55.357 14.149)">
        <path id="Trazado_96173" data-name="Trazado 96173" d="M2130.559,879.5c-4.725,3.458-5.547,10.373-1.835,15.444s10.551,6.379,15.276,2.921,5.547-10.373,1.835-15.444S2135.285,876.037,2130.559,879.5Z" transform="translate(-2126.4 -877.562)" fill="#7d6eb2"/>
        <path id="Trazado_96174" data-name="Trazado 96174" d="M2151.568,896.748c-3.765,2.756-4.42,8.265-1.463,12.306s8.407,5.083,12.172,2.328,4.42-8.265,1.463-12.306S2155.333,893.992,2151.568,896.748Z" transform="translate(-2145.991 -893.382)" fill="url(#linear-gradient-7)"/>
        <path id="Trazado_96175" data-name="Trazado 96175" d="M2264.128,933.261a.281.281,0,0,0,.3-.1,7.092,7.092,0,0,0-.086-8.369,7.377,7.377,0,0,0-1.654-1.641.281.281,0,0,0-.327.456,6.805,6.805,0,0,1,1.528,1.516,6.526,6.526,0,0,1,.089,7.7.28.28,0,0,0,.057.393A.275.275,0,0,0,2264.128,933.261Z" transform="translate(-2248.179 -918.381)" fill="#fff"/>
      </g>
      <g id="Grupo_46152" data-name="Grupo 46152" transform="translate(41.855 30.505)">
        <path id="Trazado_96176" data-name="Trazado 96176" d="M1998.7,1036.858a7.536,7.536,0,1,0,10.092,1.93A7.274,7.274,0,0,0,1998.7,1036.858Z" transform="translate(-1995.95 -1035.581)" fill="#7d6eb2"/>
        <path id="Trazado_96177" data-name="Trazado 96177" d="M2012.577,1048.255a6.005,6.005,0,1,0,8.041,1.538A5.8,5.8,0,0,0,2012.577,1048.255Z" transform="translate(-2008.893 -1046.031)" fill="url(#linear-gradient-8)"/>
        <path id="Trazado_96178" data-name="Trazado 96178" d="M2086.087,1071.642a.282.282,0,0,0,.3-.1,4.781,4.781,0,0,0-.056-5.642,4.934,4.934,0,0,0-1.114-1.105.281.281,0,1,0-.327.456,4.386,4.386,0,0,1,.988.981,4.214,4.214,0,0,1,.06,4.974.281.281,0,0,0,.057.393A.274.274,0,0,0,2086.087,1071.642Z" transform="translate(-2075.574 -1061.719)" fill="#fff"/>
      </g>
    </g>
    <g id="Grupo_46158" data-name="Grupo 46158" transform="translate(548.145 594.068)">
      <path id="Trazado_96179" data-name="Trazado 96179" d="M1610.082,3161.4s-.578,3.272-.861,6.511a2.232,2.232,0,0,0,2.135,2.418c4.313.179,13.54.529,16.851.381a.726.726,0,0,0,.639-.994,1.624,1.624,0,0,0-.831-.876l-15.241-7Z" transform="translate(-1574.588 -3004.581)" fill="#26aab7"/>
      <path id="Trazado_96180" data-name="Trazado 96180" d="M1613.042,3137.593l.464,3.914s2.67,1.243,4.493-.157l-1.106-4.362Z" transform="translate(-1578.021 -2982.693)" fill="url(#linear-gradient-9)"/>
      <path id="Trazado_96181" data-name="Trazado 96181" d="M1511.573,2431.892c-.2,1.022-1.077,51.005,4.266,73.4a.761.761,0,0,1-.446.884,13.241,13.241,0,0,1-4.351.884,1.31,1.31,0,0,1-1.3-.94c-1.527-5.2-8.845-31.235-9.8-56.109-1.067-27.794,0-.947,0-.947l.625-17.18Z" transform="translate(-1476.204 -2350.575)" fill="#26aab7"/>
      <path id="Trazado_96182" data-name="Trazado 96182" d="M1432.307,3177.9a23.545,23.545,0,0,0-1.811,6.042,1.362,1.362,0,0,0,1.2,1.631c1.424.14,3.617.32,5.374.308a1.358,1.358,0,0,0,1.344-1.515,11.448,11.448,0,0,0-2.673-6.279Z" transform="translate(-1414.345 -3019.366)" fill="#26aab7"/>
      <path id="Trazado_96183" data-name="Trazado 96183" d="M1440.425,3127.267l1.085,5.918a3.828,3.828,0,0,0,3.2.22l-.518-6.369Z" transform="translate(-1423.271 -2973.771)" fill="url(#linear-gradient-9)"/>
      <path id="Trazado_96184" data-name="Trazado 96184" d="M1397.534,2422.768c-4.37,26.372.948,65.18,2.741,72.775a1.185,1.185,0,0,0,.956.9,7.952,7.952,0,0,0,3.418-.137,1.085,1.085,0,0,0,.781-1c.241-6.141-.192-43.84,3.879-58.739a3.385,3.385,0,0,1,1.305-1.867l7.9-5.618.606-9.081Z" transform="translate(-1383.311 -2339.918)" fill="#26aab7"/>
      <g id="Grupo_46154" data-name="Grupo 46154" transform="translate(12.591 12.6)">
        <path id="Trazado_96185" data-name="Trazado 96185" d="M1425.815,1945.417c-13.1-.216-27.545,3.438-27.545,3.438-3.9,22.776-.682,49.047-.682,49.047,10.138,2.659,21.574-1.625,21.574-1.625,1.685-9.52,9.547-36.312,9.547-36.312a43.134,43.134,0,0,0,16.01-5.081,28.08,28.08,0,0,1-5.549-11.608A43.931,43.931,0,0,1,1425.815,1945.417Z" transform="translate(-1396.339 -1925.136)" fill="url(#linear-gradient-11)"/>
        <path id="Trazado_96186" data-name="Trazado 96186" d="M1835.462,1769.008a2.505,2.505,0,0,0-2.915-.819c-1.927,8.14-12.031,14.74-22.413,17.967a28.083,28.083,0,0,0,5.55,11.608C1832.913,1788.077,1835.462,1769.008,1835.462,1769.008Z" transform="translate(-1767.305 -1768.016)" fill="url(#linear-gradient-9)"/>
      </g>
      <g id="Grupo_46155" data-name="Grupo 46155" transform="translate(77.833)">
        <path id="Trazado_96187" data-name="Trazado 96187" d="M2029.272,1660.271c.135.427-1.424,1.079-2.342-.671-.032-.839-.542-4.432-.041-5.115a66.935,66.935,0,0,1,7.845-8.2,1.232,1.232,0,0,1,.154,1.711l-2.51,2.615a12.143,12.143,0,0,1,1.466,2.9,3.516,3.516,0,0,1-.351,2.589c-.441.794-1.042,1.826-1.61,2.634A3.475,3.475,0,0,1,2029.272,1660.271Z" transform="translate(-2026.67 -1646.283)" fill="url(#linear-gradient-13)"/>
        <path id="Trazado_96188" data-name="Trazado 96188" d="M2045.165,1704.477l-2.288,1.939-.718,1.931,2.04,2.263a26.315,26.315,0,0,1,1.2-4.661C2045.9,1705.121,2045.64,1704.72,2045.165,1704.477Z" transform="translate(-2040.556 -1698.454)" fill="url(#linear-gradient-14)"/>
      </g>
      <path id="Trazado_96189" data-name="Trazado 96189" d="M1296.656,2009.859l-5.023-12.68s-12.232,8.311-14.243,18.848a28.951,28.951,0,0,1,10.633,2.85C1288.928,2013.9,1296.656,2009.859,1296.656,2009.859Z" transform="translate(-1277.111 -1960.859)" fill="url(#linear-gradient-15)"/>
      <path id="Trazado_96190" data-name="Trazado 96190" d="M1304.93,2185.042s-13.733,7.762-18.367,1.134a5.209,5.209,0,0,1-.955-4.048,28.952,28.952,0,0,0-10.633-2.85,14.543,14.543,0,0,0,1.581,9.97c8.117,14.848,30.192-.821,30.192-.821Z" transform="translate(-1274.696 -2124.112)" fill="url(#linear-gradient-9)"/>
      <g id="Grupo_46156" data-name="Grupo 46156" transform="translate(28.554 39.858)">
        <path id="Trazado_96191" data-name="Trazado 96191" d="M1550.6,2084.282l7.495-26.174a.763.763,0,0,1,.646-.55c1.358-.158,5.293-.6,9.836-.988a111.617,111.617,0,0,1,15.625-.519.765.765,0,0,1,.626,1.1c-2.159,4.369-11.042,22.142-15.491,27.964a.769.769,0,0,1-.618.3l-17.39-.162A.766.766,0,0,1,1550.6,2084.282Z" transform="translate(-1550.566 -2053.39)" fill="#00223d"/>
        <path id="Trazado_96192" data-name="Trazado 96192" d="M1726.337,2032.28l5.434-.906a.39.39,0,0,1,.435.507l-.538,1.63a.39.39,0,0,1-.319.264l-5.229.7a.39.39,0,0,1-.431-.475l.333-1.423A.39.39,0,0,1,1726.337,2032.28Z" transform="translate(-1707.553 -2031.369)" fill="#26aab7"/>
        <path id="Trazado_96193" data-name="Trazado 96193" d="M1692.65,2050.983l.448-2.332a.538.538,0,0,1,.475-.435l10.976-1.114a.539.539,0,0,1,.578.662l-.7,2.906a.539.539,0,0,1-.5.413l-10.725.54A.539.539,0,0,1,1692.65,2050.983Z" transform="translate(-1677.934 -2045.472)" fill="#26aab7"/>
        <path id="Trazado_96194" data-name="Trazado 96194" d="M1562.089,2191.432s-1.044-4.293-.623-5.816,1.237-3.482,3.957-3.047a39.826,39.826,0,0,1,5.928,1.581,1.557,1.557,0,0,1-2.229,1.344l1.282.992s-.183,1.589-1.929.74l1.192,1.315a1.389,1.389,0,0,1-2.034.468C1566.348,2188.172,1565.732,2191.949,1562.089,2191.432Z" transform="translate(-1560.248 -2166.864)" fill="url(#linear-gradient-9)"/>
      </g>
      <path id="Trazado_96195" data-name="Trazado 96195" d="M1516.664,1861.246l-4.167,12.05a.434.434,0,0,0,.2.523,9.8,9.8,0,0,0,10.159-.683,2.045,2.045,0,0,0,.942-1.46l1.349-10.429Z" transform="translate(-1487.861 -1838.996)" fill="url(#linear-gradient-9)"/>
      <g id="Grupo_46157" data-name="Grupo 46157" transform="translate(20.894 4.829)">
        <path id="Trazado_96196" data-name="Trazado 96196" d="M1548.05,1753.439s4.575,8.613,3.989,12.092-6.257,3.229-11.209.4l-3.46-9.3Z" transform="translate(-1531.076 -1747.176)" fill="url(#linear-gradient-19)"/>
        <path id="Trazado_96197" data-name="Trazado 96197" d="M1486.533,1707.127a.355.355,0,0,0,.155-.519,9.268,9.268,0,0,1-1.273-2.7s-.823-.527,2.093-1.225,7.265-1.781,8.179-4.263c.891-2.42-1.45-8.506-5.186-3.657a.355.355,0,0,1-.562,0c-.613-.8-2.222-2.451-4.458-1.448a3.357,3.357,0,0,0-2.3,3.244.353.353,0,0,1-.418.361,4.094,4.094,0,0,0-4.78,2.229c-.976,2.144-.341,3.358.236,3.952a.354.354,0,0,1-.151.588,2.13,2.13,0,0,0-1.5,2.431c.124,2.251,2.641,2.053,3.358,1.95a.355.355,0,0,1,.315.112c.615.68,3.383,3.567,6.379,3.915a.358.358,0,0,0,.376-.473l-1.3-3.769a.357.357,0,0,1,.193-.442Z" transform="translate(-1476.56 -1692.936)" fill="#00223d"/>
        <path id="Trazado_96198" data-name="Trazado 96198" d="M1547.563,1825.622s-3.258-2.235-3.5-.353,2.934,2.726,4.5,2.025Z" transform="translate(-1537.068 -1810.896)" fill="url(#linear-gradient-20)"/>
      </g>
    </g>
  </g>
</svg>
