<svg id="Grupo_46891" data-name="Grupo 46891" xmlns="http://www.w3.org/2000/svg" xmlns:xlink="http://www.w3.org/1999/xlink" width="123.833" height="123.833" viewBox="0 0 123.833 123.833">
  <defs>
    <radialGradient id="radial-gradient" cx="0.076" cy="0.019" r="1.465" gradientTransform="translate(0.001)" gradientUnits="objectBoundingBox">
      <stop offset="0" stop-color="#f6f6f7"/>
      <stop offset="0.477" stop-color="#f9f9fa"/>
      <stop offset="0.715" stop-color="#fff"/>
    </radialGradient>
  </defs>
  <g id="Grupo_42274" data-name="Grupo 42274" transform="translate(0 0)">
    <g id="Grupo_18423" data-name="Grupo 18423" transform="translate(0 0)">
      <g id="Grupo_18421" data-name="Grupo 18421">
        <g id="Grupo_18420" data-name="Grupo 18420">
          <g id="Grupo_18419" data-name="Grupo 18419">
            <path id="Trazado_40936" data-name="Trazado 40936" d="M318.456,2207.635a61.916,61.916,0,1,1-61.915-61.915A61.915,61.915,0,0,1,318.456,2207.635Z" transform="translate(-194.623 -2145.721)" fill="#fff"/>
          </g>
        </g>
      </g>
      <path id="Trazado_40937" data-name="Trazado 40937" d="M317.728,2206.843a61.915,61.915,0,1,0-61.915,61.918A61.672,61.672,0,0,0,317.728,2206.843Z" transform="translate(-193.895 -2144.928)" fill="url(#radial-gradient)"/>
      <path id="Trazado_40938" data-name="Trazado 40938" d="M296.6,2200.4a47.26,47.26,0,1,0-47.26,47.26A47.084,47.084,0,0,0,296.6,2200.4Z" transform="translate(-187.238 -2138.278)" fill="none" stroke="#7d6eb2" stroke-miterlimit="10" stroke-width="4"/>
      <g id="Grupo_18422" data-name="Grupo 18422" transform="translate(10.969 34.762)">
        <path id="Trazado_40939" data-name="Trazado 40939" d="M307.148,2164.488a61.924,61.924,0,0,1-106.6,61.66,61.727,61.727,0,0,0,106.6-61.66Z" transform="translate(-200.545 -2164.488)" fill="#eceef0"/>
      </g>
    </g>
  </g>
  <g id="Grupo_42968" data-name="Grupo 42968" transform="translate(38.776 28.452)">
    <g id="Grupo_26578" data-name="Grupo 26578">
      <g id="Grupo_26577" data-name="Grupo 26577">
        <path id="Trazado_67421" data-name="Trazado 67421" d="M3145.677,1915.565a.713.713,0,0,1-.081,0,.656.656,0,0,1-.571-.73c.013-.113,1.379-11.446,1.453-19.575.034-3.656-1.282-6.022-2.556-8.309a16.613,16.613,0,0,1-2.224-5.5c-2.867-17.828,6.853-27.767,17.76-29.708,11.563-2.059,25.571,4.556,28.756,20.868l.057.284a8.757,8.757,0,0,1-.907,6.607,2.625,2.625,0,0,0-.325,1.287,1.233,1.233,0,0,0,.246.723l4.864,6.108a.7.7,0,0,1,.075.118,2.769,2.769,0,0,1-.029,2.478,2.825,2.825,0,0,1-1.827,1.575c-.358.064-.76.149-1.184.239-.627.132-1.331.281-1.94.374.057.346.185,1.081.254,1.335l.757.925a1.408,1.408,0,0,1,.229,1.392,3.36,3.36,0,0,1-1.307,1.454,2.721,2.721,0,0,1,.886,1.531,1.175,1.175,0,0,1-.439,1.025l-.971.786a.848.848,0,0,0-.244.981,4.477,4.477,0,0,1-3.157,5.793c-3.185.892-9.328-.474-11.536-1.022l-.248,8.332a.656.656,0,0,1-1.311-.039l.273-9.152a.656.656,0,0,1,.829-.613c.082.022,8.145,2.21,11.64,1.231a3.169,3.169,0,0,0,2.293-4.042,2.155,2.155,0,0,1,.636-2.489l.915-.74a3.866,3.866,0,0,0-.878-1.029c-.086-.081-.167-.156-.238-.225a.656.656,0,0,1,.194-1.067,3.075,3.075,0,0,0,1.439-1.186.1.1,0,0,0-.019-.092l-.824-1.006a6.833,6.833,0,0,1-.456-1.9.606.606,0,0,1-.032-.116,1.168,1.168,0,0,1,.2-.883,1.143,1.143,0,0,1,.772-.463c.6-.083,1.314-.235,2.007-.381.439-.093.854-.181,1.2-.243a1.6,1.6,0,0,0,.9-.86,1.518,1.518,0,0,0,.06-1.269l-4.827-6.063a2.54,2.54,0,0,1-.52-1.487,3.946,3.946,0,0,1,.479-1.945,7.5,7.5,0,0,0,.779-5.725l-.06-.295c-3.025-15.49-16.292-21.778-27.24-19.828-9.522,1.695-19.609,10.1-16.7,28.209a15.381,15.381,0,0,0,2.076,5.072c1.293,2.323,2.758,4.957,2.721,8.96-.075,8.2-1.449,19.608-1.462,19.721A.656.656,0,0,1,3145.677,1915.565Z" transform="translate(-3141.189 -1851.371)" fill="#00223d"/>
      </g>
    </g>
    <g id="Grupo_26583" data-name="Grupo 26583" transform="translate(7.11 5.762)">
      <g id="Grupo_26580" data-name="Grupo 26580" transform="translate(12.662)">
        <g id="Grupo_26579" data-name="Grupo 26579">
          <path id="Trazado_67422" data-name="Trazado 67422" d="M3207.175,1878.265l-.444,1.777a1.085,1.085,0,0,0,.79,1.315l.98.245a.365.365,0,0,1,.274.336,7.509,7.509,0,0,0,.187,1.249.365.365,0,0,1-.164.4l-.866.519a1.085,1.085,0,0,0-.372,1.489l.942,1.57a1.086,1.086,0,0,0,1.49.372l.865-.52a.364.364,0,0,1,.43.043,7.509,7.509,0,0,0,1.016.752.366.366,0,0,1,.167.4l-.244.98a1.086,1.086,0,0,0,.79,1.316l1.776.444a1.084,1.084,0,0,0,1.315-.79l.245-.98a.366.366,0,0,1,.335-.274,7.431,7.431,0,0,0,1.25-.187.365.365,0,0,1,.4.165l.519.865a1.086,1.086,0,0,0,1.49.372l1.57-.943a1.084,1.084,0,0,0,.371-1.489l-.52-.866a.366.366,0,0,1,.044-.431,7.335,7.335,0,0,0,.751-1.014.366.366,0,0,1,.4-.167l.979.244a1.087,1.087,0,0,0,1.317-.789l.442-1.776a1.085,1.085,0,0,0-.789-1.316l-.98-.244a.367.367,0,0,1-.274-.337,7.452,7.452,0,0,0-.186-1.249.364.364,0,0,1,.164-.4l.866-.52a1.085,1.085,0,0,0,.372-1.489l-.942-1.57a1.085,1.085,0,0,0-1.488-.372l-.866.52a.367.367,0,0,1-.431-.043,7.423,7.423,0,0,0-1.015-.752.367.367,0,0,1-.167-.4l.244-.98a1.084,1.084,0,0,0-.79-1.315l-1.777-.444a1.085,1.085,0,0,0-1.316.79l-.245.979a.367.367,0,0,1-.336.275,7.437,7.437,0,0,0-1.249.186.363.363,0,0,1-.4-.164l-.521-.866a1.084,1.084,0,0,0-1.488-.372l-1.57.942a1.085,1.085,0,0,0-.372,1.489l.519.866a.363.363,0,0,1-.043.431,7.339,7.339,0,0,0-.751,1.015.367.367,0,0,1-.4.168l-.98-.245A1.085,1.085,0,0,0,3207.175,1878.265Zm9.32-.518a3.73,3.73,0,1,1-3.692,2.216A3.733,3.733,0,0,1,3216.494,1877.747Z" transform="translate(-3206.042 -1871.293)" fill="none"/>
          <path id="Trazado_67423" data-name="Trazado 67423" d="M3213.605,1890.195a1.715,1.715,0,0,1-.422-.053l-1.776-.443a1.74,1.74,0,0,1-1.267-2.11l.193-.775a8.162,8.162,0,0,1-.77-.57l-.684.411a1.743,1.743,0,0,1-2.389-.6l-.942-1.57a1.74,1.74,0,0,1,.6-2.388l.684-.411a8.07,8.07,0,0,1-.141-.948l-.776-.194a1.739,1.739,0,0,1-1.267-2.11l.444-1.776a1.742,1.742,0,0,1,2.11-1.267l.775.194a7.863,7.863,0,0,1,.57-.771l-.411-.685a1.741,1.741,0,0,1,.6-2.388l1.57-.942a1.741,1.741,0,0,1,2.388.6l.411.685a8.159,8.159,0,0,1,.948-.142l.193-.774a1.743,1.743,0,0,1,2.111-1.267l1.776.444a1.74,1.74,0,0,1,1.267,2.11l-.194.775a8.159,8.159,0,0,1,.771.571l.684-.411a1.743,1.743,0,0,1,2.388.6l.942,1.57a1.742,1.742,0,0,1-.6,2.388l-.684.411a8.151,8.151,0,0,1,.141.948l.775.194a1.741,1.741,0,0,1,1.267,2.11l-.443,1.777a1.743,1.743,0,0,1-2.111,1.267l-.775-.193a8.234,8.234,0,0,1-.57.77l.41.685a1.738,1.738,0,0,1-.6,2.388l-1.57.943a1.743,1.743,0,0,1-2.389-.6l-.41-.685a8.177,8.177,0,0,1-.948.142l-.194.775A1.743,1.743,0,0,1,3213.605,1890.195Zm-4.013-5.33a1.026,1.026,0,0,1,.68.259,6.676,6.676,0,0,0,.926.686,1.019,1.019,0,0,1,.458,1.117l-.244.98a.43.43,0,0,0,.312.521l1.777.444a.431.431,0,0,0,.521-.313l.243-.98a1.02,1.02,0,0,1,.931-.77,6.715,6.715,0,0,0,1.139-.17,1.018,1.018,0,0,1,1.114.465l.52.866a.43.43,0,0,0,.589.147l1.57-.943a.43.43,0,0,0,.147-.589l-.52-.866a1.018,1.018,0,0,1,.114-1.2,6.941,6.941,0,0,0,.685-.924,1.016,1.016,0,0,1,1.116-.46l.98.245a.43.43,0,0,0,.521-.313l.444-1.776a.43.43,0,0,0-.313-.52l-.98-.245a1.021,1.021,0,0,1-.77-.931,6.894,6.894,0,0,0-.17-1.139,1.019,1.019,0,0,1,.465-1.115l.866-.519a.43.43,0,0,0,.147-.59l-.942-1.57a.431.431,0,0,0-.589-.148l-.866.521a1.019,1.019,0,0,1-1.2-.114,6.788,6.788,0,0,0-.924-.685,1.017,1.017,0,0,1-.46-1.117l.245-.98a.432.432,0,0,0-.313-.521l-1.776-.443a.429.429,0,0,0-.521.312l-.245.98a1.018,1.018,0,0,1-.931.769,6.789,6.789,0,0,0-1.139.17,1.018,1.018,0,0,1-1.114-.465l-.52-.866a.429.429,0,0,0-.59-.147l-1.57.942a.434.434,0,0,0-.2.264.428.428,0,0,0,.048.326l.521.866a1.021,1.021,0,0,1-.114,1.2,6.761,6.761,0,0,0-.686.925,1.018,1.018,0,0,1-1.116.46l-.98-.245a.43.43,0,0,0-.521.313l-.444,1.776a.432.432,0,0,0,.313.521l.98.245a1.017,1.017,0,0,1,.77.93,6.848,6.848,0,0,0,.17,1.138,1.019,1.019,0,0,1-.466,1.115l-.865.52a.432.432,0,0,0-.147.59l.943,1.57a.43.43,0,0,0,.59.147l.866-.52A1.017,1.017,0,0,1,3209.593,1884.865Zm5.186-.457c-.114,0-.228,0-.342-.014a4.383,4.383,0,1,1,4.347-2.61A4.409,4.409,0,0,1,3214.779,1884.408Zm-.026-7.464a3.114,3.114,0,1,0,.24.01C3214.912,1876.948,3214.832,1876.944,3214.753,1876.944Z" transform="translate(-3204.594 -1869.847)" fill="#00223d"/>
        </g>
      </g>
      <g id="Grupo_26582" data-name="Grupo 26582" transform="translate(0 15.394)">
        <g id="Grupo_26581" data-name="Grupo 26581">
          <path id="Trazado_67424" data-name="Trazado 67424" d="M3166.6,1928.92a.819.819,0,0,0,.356,1.1l1.505.769a.438.438,0,0,1,.23.466,8.883,8.883,0,0,0-.121,1.508.437.437,0,0,1-.3.423l-1.607.521a.82.82,0,0,0-.528,1.031l.972,3a.819.819,0,0,0,1.031.526l1.607-.521a.438.438,0,0,1,.492.167,8.827,8.827,0,0,0,.982,1.151.441.441,0,0,1,.086.513l-.769,1.505a.819.819,0,0,0,.356,1.1l2.809,1.435a.819.819,0,0,0,1.1-.357l.769-1.506a.44.44,0,0,1,.467-.229,8.794,8.794,0,0,0,1.507.12.439.439,0,0,1,.424.3l.521,1.609a.819.819,0,0,0,1.031.527l3-.972a.819.819,0,0,0,.527-1.031l-.52-1.608a.435.435,0,0,1,.167-.491,8.941,8.941,0,0,0,1.151-.981.438.438,0,0,1,.512-.087l1.506.769a.818.818,0,0,0,1.1-.357l1.434-2.809a.816.816,0,0,0-.356-1.1l-1.505-.77a.437.437,0,0,1-.23-.466,8.908,8.908,0,0,0,.121-1.508.438.438,0,0,1,.3-.423l1.608-.521a.819.819,0,0,0,.527-1.031l-.972-3a.819.819,0,0,0-1.031-.528l-1.609.521a.437.437,0,0,1-.49-.167,8.819,8.819,0,0,0-.982-1.151.44.44,0,0,1-.087-.512l.77-1.506a.818.818,0,0,0-.356-1.1l-2.809-1.435a.819.819,0,0,0-1.1.356l-.77,1.506a.437.437,0,0,1-.465.229,8.828,8.828,0,0,0-1.508-.121.438.438,0,0,1-.424-.3l-.521-1.609a.818.818,0,0,0-1.031-.527l-3,.971a.818.818,0,0,0-.527,1.031l.521,1.608a.441.441,0,0,1-.167.492,8.827,8.827,0,0,0-1.152.981.439.439,0,0,1-.512.087l-1.506-.77a.818.818,0,0,0-1.1.357Zm9.254-1.011a5.352,5.352,0,1,1-3.444,6.74A5.351,5.351,0,0,1,3175.85,1927.91Z" transform="translate(-3165.436 -1920.657)" fill="none"/>
          <path id="Trazado_67425" data-name="Trazado 67425" d="M3177.819,1943.335a1.477,1.477,0,0,1-1.4-1.021l-.471-1.455a9.513,9.513,0,0,1-1.313-.1l-.7,1.363a1.472,1.472,0,0,1-1.983.641l-2.81-1.435a1.475,1.475,0,0,1-.642-1.984l.7-1.362a9.694,9.694,0,0,1-.854-1l-1.455.47a1.476,1.476,0,0,1-1.857-.948l-.972-3a1.477,1.477,0,0,1,.949-1.857l1.455-.47a9.57,9.57,0,0,1,.105-1.313l-1.363-.7a1.475,1.475,0,0,1-.642-1.984l1.435-2.81a1.473,1.473,0,0,1,1.983-.642l1.364.7a9.5,9.5,0,0,1,1-.855l-.47-1.455a1.475,1.475,0,0,1,.948-1.857l3-.971a1.475,1.475,0,0,1,1.857.948l.471,1.455a9.652,9.652,0,0,1,1.312.105l.7-1.363a1.476,1.476,0,0,1,1.983-.642l2.81,1.435a1.472,1.472,0,0,1,.642,1.984l-.7,1.362a9.328,9.328,0,0,1,.855,1l1.455-.471a1.475,1.475,0,0,1,1.857.949l.972,3a1.476,1.476,0,0,1-.949,1.857l-1.455.471a9.759,9.759,0,0,1-.105,1.312l1.363.7a1.474,1.474,0,0,1,.643,1.984l-1.436,2.809a1.476,1.476,0,0,1-1.984.642l-1.363-.7a9.659,9.659,0,0,1-1,.855l.471,1.455a1.475,1.475,0,0,1-.949,1.857l-3,.972A1.5,1.5,0,0,1,3177.819,1943.335Zm-1.718-3.788a1.091,1.091,0,0,1,1.044.754l.52,1.608a.163.163,0,0,0,.206.106l3-.971a.162.162,0,0,0,.095-.081.157.157,0,0,0,.01-.124l-.52-1.608a1.092,1.092,0,0,1,.409-1.227,8.226,8.226,0,0,0,1.066-.908,1.092,1.092,0,0,1,1.277-.21l1.505.77a.164.164,0,0,0,.219-.071l1.436-2.809a.165.165,0,0,0-.071-.22l-1.507-.769a1.091,1.091,0,0,1-.577-1.157,8.211,8.211,0,0,0,.112-1.4,1.09,1.09,0,0,1,.754-1.051l1.608-.521a.162.162,0,0,0,.1-.205l-.972-3a.156.156,0,0,0-.081-.1.164.164,0,0,0-.125-.01l-1.609.521a1.092,1.092,0,0,1-1.227-.41,8.17,8.17,0,0,0-.908-1.066,1.093,1.093,0,0,1-.211-1.277l.769-1.505a.157.157,0,0,0,.01-.125.16.16,0,0,0-.08-.095l-2.81-1.435a.164.164,0,0,0-.22.071l-.769,1.506a1.089,1.089,0,0,1-1.157.578,8.294,8.294,0,0,0-1.4-.112,1.091,1.091,0,0,1-1.051-.753l-.52-1.609a.163.163,0,0,0-.206-.1l-3,.971a.163.163,0,0,0-.1.206l.521,1.609a1.093,1.093,0,0,1-.41,1.226,8.167,8.167,0,0,0-1.066.909,1.092,1.092,0,0,1-1.277.21l-1.505-.77a.16.16,0,0,0-.125-.01.158.158,0,0,0-.095.081l-1.436,2.809a.163.163,0,0,0,.071.219l1.506.769a1.09,1.09,0,0,1,.578,1.157,8.325,8.325,0,0,0-.112,1.4,1.089,1.089,0,0,1-.754,1.051l-1.608.521a.163.163,0,0,0-.1.206l.972,3a.162.162,0,0,0,.205.1l1.608-.52a1.091,1.091,0,0,1,1.226.409,8.179,8.179,0,0,0,.909,1.066,1.091,1.091,0,0,1,.209,1.276l-.769,1.506a.163.163,0,0,0,.072.22l2.809,1.435a.157.157,0,0,0,.125.01.161.161,0,0,0,.095-.081l.769-1.506a1.094,1.094,0,0,1,1.159-.577,8.172,8.172,0,0,0,1.4.111Zm-.046-1.984a6.008,6.008,0,1,1,1.846-.292A6.017,6.017,0,0,1,3176.056,1937.563Zm-1.45-10.476a4.7,4.7,0,1,0,5.915,3.022,4.7,4.7,0,0,0-5.915-3.022Z" transform="translate(-3163.99 -1919.211)" fill="#00223d"/>
        </g>
      </g>
    </g>
  </g>
</svg>
