<svg xmlns="http://www.w3.org/2000/svg" xmlns:xlink="http://www.w3.org/1999/xlink" width="264.232" height="276.02" viewBox="0 0 264.232 276.02">
  <defs>
    <linearGradient id="linear-gradient" x1="0.5" x2="0.5" y2="1" gradientUnits="objectBoundingBox">
      <stop offset="0" stop-color="#fff"/>
      <stop offset="1" stop-color="#d3d3d3"/>
    </linearGradient>
  </defs>
  <g id="Grupo_46889" data-name="Grupo 46889" transform="translate(-519.48 -743.066)">
    <path id="Trazado_97492" data-name="Trazado 97492" d="M690.767,878.612c-2.026-1.347-4.1-2.624-6.1-4.011a1.761,1.761,0,0,1-.652-1.341c.242-2.807.646-5.6.87-8.41a1.49,1.49,0,0,1,1.029-1.558c2.753-1.1,5.477-2.27,8.211-3.417.443-.186.88-.388,1.644-.726l-4.015-12.606c-3.524.724-6.739,1.33-9.923,2.068a1.954,1.954,0,0,1-2.467-.9c-1.493-2.121-3.282-4.032-4.888-6.076a1.6,1.6,0,0,1-.216-1.318c1.065-2.812,2.127-5.632,3.36-8.373.592-1.315.288-2.019-.891-2.621a8.189,8.189,0,0,1-1.231-.947l-6.105-3.23a4.188,4.188,0,0,1-.763-.153c-2.481-1-2-.978-3.4,1.1-1.7,2.528-3.347,5.084-4.8,7.292l-11-.954-4.358-10.38a42.26,42.26,0,0,0-12.566,4c.719,3.465,1.412,6.846,2.129,10.221a1.169,1.169,0,0,1-.5,1.422c-2.316,1.756-4.59,3.575-6.779,5.485a1.376,1.376,0,0,1-1.723.274c-2.823-1.165-5.672-2.264-8.5-3.417a1.184,1.184,0,0,0-1.67.426,37.664,37.664,0,0,0-5.147,10.141c-.253.714.092,1.02.632,1.365,2.5,1.6,4.956,3.26,7.465,4.842a1.485,1.485,0,0,1,.808,1.782c-.475,3.217-.763,6.46-1.151,9.954l-9.961,4.182a39.374,39.374,0,0,0,3.914,12.748l10.78-2.291c2.095,2.382,3.985,4.647,6.014,6.779a1.889,1.889,0,0,1,.467,2.422c-1.168,2.677-2.232,5.4-3.31,8.115-.213.537-.635,1.162.2,1.6q5.115,2.657,10.229,5.316c.725.376,1.179.13,1.612-.553,1.609-2.543,3.331-5.016,4.9-7.584.6-.991,1.261-1.033,2.286-.9a69.182,69.182,0,0,0,7.631.638,1.661,1.661,0,0,1,1.88,1.275c1.212,3.129,2.547,6.211,3.807,9.246,2.721-.019,10.118-2.391,12.778-4.069-.722-3.334-1.417-6.714-2.207-10.072a1.433,1.433,0,0,1,.69-1.714c2.065-1.648,4.014-3.441,6.063-5.11a1.744,1.744,0,0,1,1.444-.287c2.52.967,5.007,2.022,7.492,3.077,1.389.59,1.948.833,2.477.473L693,880.991C693.01,880.113,692.406,879.7,690.767,878.612Zm-21.6-3.64a19.835,19.835,0,0,1-26.809,8.257h0a19.836,19.836,0,0,1-8.257-26.809h0a19.835,19.835,0,0,1,26.809-8.257h0a19.835,19.835,0,0,1,8.257,26.809Z" transform="translate(-63.856 -56.893)" fill="#12263f"/>
    <path id="Trazado_97493" data-name="Trazado 97493" d="M1116.131,921.361c-.744-.495-1.5-.963-2.238-1.472a.646.646,0,0,1-.239-.492c.089-1.031.237-2.056.319-3.087a.547.547,0,0,1,.378-.572c1.01-.4,2.011-.833,3.014-1.254.163-.069.323-.142.6-.267-.491-1.541-.976-3.065-1.474-4.628-1.293.266-2.474.489-3.643.759a.717.717,0,0,1-.905-.332c-.548-.778-1.2-1.48-1.795-2.23a.587.587,0,0,1-.079-.484c.391-1.033.781-2.068,1.233-3.074a.622.622,0,0,0-.327-.962,3.01,3.01,0,0,1-.452-.348l-2.241-1.186a1.526,1.526,0,0,1-.28-.056c-.911-.365-.736-.359-1.246.4-.622.928-1.229,1.866-1.761,2.677l-4.037-.35-1.6-3.81a15.519,15.519,0,0,0-4.613,1.468c.264,1.272.518,2.513.781,3.752a.429.429,0,0,1-.182.522c-.85.645-1.685,1.312-2.489,2.014a.5.5,0,0,1-.632.1c-1.036-.428-2.082-.831-3.12-1.254a.435.435,0,0,0-.613.157,13.829,13.829,0,0,0-1.889,3.723c-.093.262.034.374.232.5.917.587,1.819,1.2,2.74,1.777a.545.545,0,0,1,.3.654c-.175,1.181-.28,2.372-.423,3.654l-3.656,1.535a14.455,14.455,0,0,0,1.437,4.68l3.957-.841c.769.874,1.463,1.706,2.207,2.488a.694.694,0,0,1,.172.889c-.429.983-.819,1.982-1.215,2.979-.078.2-.233.427.075.587l3.755,1.952c.266.138.433.048.592-.2.591-.933,1.223-1.841,1.8-2.784.222-.364.463-.379.839-.331a25.29,25.29,0,0,0,2.8.234.61.61,0,0,1,.69.468c.445,1.149.935,2.28,1.4,3.394a13.864,13.864,0,0,0,4.69-1.493c-.265-1.224-.52-2.465-.81-3.7a.526.526,0,0,1,.253-.629c.758-.6,1.474-1.263,2.226-1.876a.641.641,0,0,1,.53-.105c.925.355,1.838.742,2.75,1.129.51.216.715.306.909.174l2.1-3.977C1116.955,921.913,1116.733,921.762,1116.131,921.361Zm-7.927-1.336a7.282,7.282,0,0,1-9.842,3.031h0a7.281,7.281,0,0,1-3.031-9.841h0a7.282,7.282,0,0,1,9.841-3.031h0a7.282,7.282,0,0,1,3.031,9.841Z" transform="translate(-407.959 -113.481)" fill="#f5ca56"/>
    <circle id="Elipse_3878" data-name="Elipse 3878" cx="93.42" cy="93.42" r="93.42" transform="translate(519.48 886.97) rotate(-45)" fill="#fff"/>
    <circle id="Elipse_3879" data-name="Elipse 3879" cx="85.191" cy="85.191" r="85.191" transform="translate(531.118 886.97) rotate(-45)" fill="#12263f"/>
    <circle id="Elipse_3880" data-name="Elipse 3880" cx="71.638" cy="71.638" r="71.638" transform="translate(550.285 886.97) rotate(-45)" fill="#fcfcfc"/>
    <circle id="Elipse_3881" data-name="Elipse 3881" cx="53.85" cy="53.85" r="53.85" transform="translate(575.441 886.97) rotate(-45)" fill="#12263f"/>
    <circle id="Elipse_3882" data-name="Elipse 3882" cx="38.239" cy="38.239" r="38.239" transform="translate(597.518 886.97) rotate(-45)" fill="#fcfcfc"/>
    <path id="Trazado_97494" data-name="Trazado 97494" d="M976.586,1232.58a9.751,9.751,0,1,1-9.751-9.751A9.751,9.751,0,0,1,976.586,1232.58Z" transform="translate(-315.239 -345.609)" fill="#12263f"/>
    <g id="Grupo_46878" data-name="Grupo 46878" transform="translate(650.56 815.459)">
      <path id="Trazado_97495" data-name="Trazado 97495" d="M1203.388,1025.071l-.346-6.335,21.446-16.775-1.121,9.173-21.017,16.439Z" transform="translate(-1142.483 -1001.961)" fill="#d1d1d1"/>
      <path id="Trazado_97496" data-name="Trazado 97496" d="M1204.832,1050.929l6.065,1.862,21.446-16.775-9.173-1.121-21.017,16.439Z" transform="translate(-1142.341 -1025.686)"/>
      <path id="Trazado_97497" data-name="Trazado 97497" d="M988.556,1133.657h0a1.433,1.433,0,0,0,2.012.246l60.422-47.26-1.766-2.258-60.422,47.26A1.433,1.433,0,0,0,988.556,1133.657Z" transform="translate(-988.251 -1061.337)"/>
    </g>
    <path id="Trazado_97498" data-name="Trazado 97498" d="M1311.752,1320.518c0,.606.226,1.1.506,1.1s.506-.491.506-1.1-.226-1.1-.506-1.1S1311.752,1319.912,1311.752,1320.518Z" transform="translate(-570.733 -415.192)" fill="#f7a491"/>
    <path id="Trazado_97499" data-name="Trazado 97499" d="M1283.647,1567.129a31.2,31.2,0,0,0,.159-4.068h3.306c-.344,2.37-.613,4.214-.613,4.214l.082.749,0,2.212h-7.233a32.633,32.633,0,0,0,3.683-2.047A1.479,1.479,0,0,0,1283.647,1567.129Z" transform="translate(-547.392 -590.704)" fill="#ffc3b5"/>
    <path id="Trazado_97500" data-name="Trazado 97500" d="M1342.668,1568.526l-.962-2.754h2.517c.131,1.768.18,2.961.18,2.961l.639,1.811.65,2.152s-2.141.552-3.264-.068l.124-2.142Z" transform="translate(-592.311 -592.657)" fill="#ffc3b5"/>
    <path id="Trazado_97501" data-name="Trazado 97501" d="M1295.595,1349.556c.873-1.194,4.474-4.65,4.874-4.643,1.167.02,4.995.022,5.743.4l-.036,6.58c-.122.552-2.765,9.156-2.611,11.039l-.018.018a5.3,5.3,0,0,1-7.734-.372h0a43.41,43.41,0,0,0-.3-4.99C1295.02,1353.859,1293.426,1352.52,1295.595,1349.556Z" transform="translate(-558.295 -433.556)" fill="#fcfcfc"/>
    <path id="Trazado_97502" data-name="Trazado 97502" d="M1313.151,1329.422a19.325,19.325,0,0,0,.117,3.348c.218.92.509.99-1.363,1.27-.735.11-1.444.274-1.444.274s.192-1.352.221-1.922c.048-.94-.216-3.841-.216-3.841Z" transform="translate(-569.803 -421.769)" fill="#ffc3b5"/>
    <path id="Trazado_97503" data-name="Trazado 97503" d="M1311.738,1330.63a3.355,3.355,0,0,1-1.077.382c-.064-1.146-.183-2.461-.183-2.461l2.562.831A3.359,3.359,0,0,1,1311.738,1330.63Z" transform="translate(-569.815 -421.769)" fill="#fc8899"/>
    <path id="Trazado_97504" data-name="Trazado 97504" d="M1307.522,1409.484l4.407,31.35,4.013,14.455h4.366s-1.013-11.646-3.186-15.771c0,0-.948-11.055-1.9-17.816-.142-1.011.561-3.634.378-4.311a62.514,62.514,0,0,0-2.647-8.032Z" transform="translate(-567.686 -479.981)" fill="#00223d"/>
    <path id="Trazado_97505" data-name="Trazado 97505" d="M1295.913,1422.125l-1.02,12.043s1.042,6.882.327,11.449-1.663,8.758-1.663,8.758h-4.014l-.8-22.742s-1.543-12.357-1.009-15.708,3.133-7.835,3.133-7.835l6.313.289s1.712,6.134,1.422,8.193C1298.391,1418.1,1295.913,1422.125,1295.913,1422.125Z" transform="translate(-553.353 -479.067)" fill="#00223d"/>
    <path id="Trazado_97506" data-name="Trazado 97506" d="M1315.756,1327.136c4.771-1.432,3.494-5.638,3.467-5.478.014-.13.464-.66.686-1.112a4.033,4.033,0,0,0-1.7-4.943,4.46,4.46,0,0,0-1.742-5.657,7.024,7.024,0,0,1-2.222-1.968c-1.324-1.766-3.732-3.545-6.626-2.964-2.864.733.971,2.392.591,5.147-.193,1.4.361,1.2,1.224,2.319a6.692,6.692,0,0,0,1.38,7.51C1309.885,1323.924,1310.888,1328.6,1315.756,1327.136Z" transform="translate(-566.989 -404.732)"/>
    <path id="Trazado_97507" data-name="Trazado 97507" d="M1307.374,1308.085c.564,2.324-2.487,4.012-4.9,4.074-1.57.04-2.291-.121-2.545-1.776-.412-2.684.694-4.319,2.243-5C1304.168,1304.514,1306.909,1306.167,1307.374,1308.085Z" transform="translate(-562.152 -404.91)"/>
    <path id="Trazado_97508" data-name="Trazado 97508" d="M1304.5,1309.788a3.173,3.173,0,0,1,1.628,1.43c.566,1.072.285,4.506-2.07,5.639s-3.438-1.439-3.267-3.336S1301.64,1309.14,1304.5,1309.788Z" transform="translate(-562.822 -408.177)" fill="#ffc3b5"/>
    <path id="Trazado_97509" data-name="Trazado 97509" d="M1304.53,1328.9l-1.671-.026a.738.738,0,0,0,.764.68C1304.518,1329.592,1304.53,1328.9,1304.53,1328.9Z" transform="translate(-564.327 -422)" fill="#fff"/>
    <path id="Trazado_97510" data-name="Trazado 97510" d="M1310.625,1312.766c.348-1.775.212-3.12-1.049-3.769s-2.338-1.293-3.466-.126l-.255.144s2.129.589,2.248,1.719,1.25,2.475,1.076,3.03-.375,1.663-.375,1.663l.466-.383A3.137,3.137,0,0,0,1310.625,1312.766Z" transform="translate(-566.484 -407.126)"/>
    <path id="Trazado_97511" data-name="Trazado 97511" d="M1314.865,1320.232c-.176.49-.043.982.3,1.1s.758-.186.934-.676.043-.982-.3-1.1S1315.041,1319.742,1314.865,1320.232Z" transform="translate(-572.92 -415.272)" fill="#ffc3b5"/>
    <path id="Trazado_97512" data-name="Trazado 97512" d="M655.461,1079.6h21.687l-5.176,32.927h2.237L703.4,926.815h-2.237l-.44,2.8H678.991l.439-2.8h-2.237l-29.219,185.709h2.237Zm37.2-98.72-3.58,22.776h-21.71l3.573-22.776Zm-21.417-1.9,3.573-22.776h21.723l-3.58,22.776Zm17.538,26.584-3.58,22.777H663.5l3.573-22.777Zm-3.88,24.68-3.58,22.776H659.631l3.573-22.776Zm15.517-98.72-3.58,22.776H675.12l3.573-22.776ZM655.76,1077.693l3.573-22.776h21.694l-3.58,22.776Z" transform="translate(-92.564 -132.368)" fill="#d1d1d1"/>
    <g id="Grupo_46880" data-name="Grupo 46880" transform="translate(623.88 743.066)">
      <path id="Trazado_97513" data-name="Trazado 97513" d="M999.115,795.628c-.024.083-.2.655-.481,1.506l2.9.585c.03-.475.059-.871.094-1.159.239-2.012,1.184-2.558,1.67-3.675s2.373-1.826,2.141-2.2-1.991,1.156-2.412.991,1.5-2.473,1.272-2.781c-.427-.567-2.257,2.421-2.472,2.174s1.524-3.4.828-3.44-1.468,3.413-1.834,3.26,1.013-3.181.312-3.633c-.375-.242-1.7,5.391-2.3,5.715s-1.427-1.9-1.994-1.707S999.213,795.279,999.115,795.628Z" transform="translate(-967.707 -774.892)" fill="#ffc3b5"/>
      <path id="Trazado_97514" data-name="Trazado 97514" d="M898.838,751.829c-.013.086-.084.681-.183,1.57l-2.884-.663c.168-.445.305-.818.393-1.094.612-1.931-.023-2.819-.006-4.037s-1.409-2.642-1.041-2.891,1.337,1.874,1.789,1.9-.35-2.873-.012-3.058c.622-.34,1.058,3.136,1.355,3s.013-3.726.664-3.475-.07,3.714.326,3.727.389-3.316,1.214-3.438c.441-.065-.672,5.613-.266,6.154s2.082-1.138,2.52-.733S898.892,751.471,898.838,751.829Z" transform="translate(-894.435 -743.066)" fill="#ffc3b5"/>
      <path id="Trazado_97515" data-name="Trazado 97515" d="M977.543,820.069s-3.456-.827-3.489-.549c-.725,6.078-1.052,8.277-1.175,8.34-.419.215-5.971-4.861-6.96-5.2a4.132,4.132,0,0,0-1.482-.123c-1.178.035-1.41.039-1.41.039l-.043,0,.006,1.108c1.327,1.193,4.364,19.272,4.619,19.26.286-.013,6.288,1.5,6.183.992-.017-.082-4.07-3.4-5.219-8.184-.386-1.606-.576-3.336-.785-4.851,1.334.669,6.543,3.232,7.368,2.894C977.724,832.739,977.543,820.069,977.543,820.069Z" transform="translate(-943.369 -798.1)" fill="#167377"/>
      <path id="Trazado_97516" data-name="Trazado 97516" d="M1052.019,931.395s5.584,4.375,5.771,5.15c.268,1.117,5.382-.351,4.149-.579-.284-.052-1.192-.282-1.266-.322-.4-.214-5.369-6.2-5.369-6.2Z" transform="translate(-1007.507 -877.327)" fill="#ffc3b5"/>
      <path id="Trazado_97517" data-name="Trazado 97517" d="M1078.686,952.026l-3.566-.29a5.055,5.055,0,0,1-2.978.883,4.562,4.562,0,0,0-.164,1.941c.026.181.056.726.238.713.659-.045,2.414-.482,4.414-.881a17.24,17.24,0,0,0,4.24-1.5C1082.423,951.965,1078.686,952.026,1078.686,952.026Z" transform="translate(-1021.857 -893.387)"/>
      <path id="Trazado_97518" data-name="Trazado 97518" d="M958.891,891.73a24.409,24.409,0,0,0,8.613-.371c5.234-1.224,11.021-2.356,12.716-1.37,1.365.793,9.888,13.672,9.888,13.672l-3.292,2.4-9.384-10.509s-11.973,4.418-14.662,3.928C956.646,898.367,956.559,893.476,958.891,891.73Z" transform="translate(-939.403 -848.635)" fill="#d1d1d1"/>
      <path id="Trazado_97519" data-name="Trazado 97519" d="M1007.206,967.326s-.249,6.754-.4,7.9,2.866,4.569,2.481,3.376c-.089-.274-.318-1.183-.318-1.268,0-.453,1.12-8.158,1.12-8.158Z" transform="translate(-974.931 -904.618)" fill="#ffc3b5"/>
      <path id="Trazado_97520" data-name="Trazado 97520" d="M1003.821,1001.434l-2.23-3.626a5.056,5.056,0,0,1-2.192-2.2,4.565,4.565,0,0,0-1.785.778c-.146.108-1.145.839-1.076,1.007a19.2,19.2,0,0,0,3.1,3.4,40.047,40.047,0,0,0,3.663,2.625C1004.858,1004.342,1003.821,1001.434,1003.821,1001.434Z" transform="translate(-967.537 -924.99)"/>
      <path id="Trazado_97521" data-name="Trazado 97521" d="M971.922,894.188c-1.43-1.907-12.972-3.718-12.972-3.718l-3.219-6.185-7.116,4.388a64.413,64.413,0,0,0,1.245,7.176c.712,2.016,5.494,2.119,8.415,2.089,2.688-.028,7.6.52,7.6.52l-1.66,14.648a22.93,22.93,0,0,0,4.181.623C968.5,913.714,973.7,896.56,971.922,894.188Z" transform="translate(-933.018 -844.796)" fill="#fcfcfc"/>
      <path id="Trazado_97522" data-name="Trazado 97522" d="M952.1,830.627l-4.015.224s-.092.028-.12.033c-.327.061-.03,11.761.262,16.131a29.221,29.221,0,0,0,.883,6.206,65.389,65.389,0,0,0,7.117-1.615,12.279,12.279,0,0,0,2.372-2.368,17.6,17.6,0,0,1-2.578-6.05c-.666-2.888-1.488-8.008-1.958-9.077A15.251,15.251,0,0,0,952.1,830.627Z" transform="translate(-932.45 -806.143)" fill="#293241"/>
      <path id="Trazado_97523" data-name="Trazado 97523" d="M948.882,817.337l-.114,3.545s2.6,4.478,3.933,3.854c1.12-.524.126-3.93.126-3.93s-.194-.781-.463-1.679a6.5,6.5,0,0,1-.333-1.8C952.06,816.111,948.882,817.337,948.882,817.337Z" transform="translate(-933.128 -796.174)" fill="#ffc3b5"/>
      <path id="Trazado_97524" data-name="Trazado 97524" d="M952.3,817.323c.028-1.212-3.15.014-3.15.014l-.011.346a1.781,1.781,0,0,0,.355.4,4.373,4.373,0,0,0,3.095.891A6.092,6.092,0,0,1,952.3,817.323Z" transform="translate(-933.393 -796.174)" fill="#fc8899"/>
      <g id="Grupo_46879" data-name="Grupo 46879" transform="translate(11.459 11.17)">
        <path id="Trazado_97525" data-name="Trazado 97525" d="M952.336,789.836a9.25,9.25,0,0,1,1.423,3.677,8.708,8.708,0,0,1-.257,2.827l-4.25-5.08Z" transform="translate(-944.936 -787.928)"/>
        <path id="Trazado_97526" data-name="Trazado 97526" d="M963.729,799.168c.06.588-.169,1.094-.511,1.129s-.668-.414-.728-1,.169-1.094.511-1.129S963.669,798.58,963.729,799.168Z" transform="translate(-954.466 -793.927)" fill="#fc8899"/>
        <path id="Trazado_97527" data-name="Trazado 97527" d="M944.243,793.475c-.1-.021-.088,4.87,1.33,6.021s3.885,1.252,4.606.093c.8-1.282.039-6.436-2.07-7.531S944.243,793.475,944.243,793.475Z" transform="translate(-941.303 -789.33)" fill="#ffc3b5"/>
        <path id="Trazado_97528" data-name="Trazado 97528" d="M936.4,784.124a7.86,7.86,0,0,0-2.338,3.329c-.9,2.074.886,4.223,2.384,5.077a2.885,2.885,0,0,1,1.622,1.887l.062-.637a1.586,1.586,0,0,0-.019-.585,2.746,2.746,0,0,0-.213-.517c-.127-.272-.537-1.206-.7-1.453-.422-.65-.5-.791-.3-1.408.16-.476-.025-1.524.222-2.308l2.016-.435a4.221,4.221,0,0,0,1.9-1.038C942.87,783.925,939.253,781.572,936.4,784.124Z" transform="translate(-933.817 -783.011)"/>
        <path id="Trazado_97529" data-name="Trazado 97529" d="M943.251,807.345c.249.537.2,1.089-.115,1.233s-.766-.174-1.014-.71-.2-1.089.115-1.233S943,806.808,943.251,807.345Z" transform="translate(-939.687 -800.004)" fill="#ffc3b5"/>
      </g>
      <path id="Trazado_97530" data-name="Trazado 97530" d="M908.476,789.278a25.289,25.289,0,0,1-5.008-.65c-.623-.282-5.738-4.4-5.738-4.4l.057-11.034-3.6-.274s-1.865,12.2-1.219,13.532c.667,1.379,8.154,7.055,9.651,9.518.863,1.419,2.661,20.717,2.934,20.891,1.937,1.008,7.919,2.015,7.779,1.4A221.858,221.858,0,0,1,908.476,789.278Z" transform="translate(-892.836 -764.569)" fill="#167377"/>
      <path id="Trazado_97531" data-name="Trazado 97531" d="M954.841,811.924l2.317-.735a1.063,1.063,0,0,1-.784,1.25C955.144,812.869,954.841,811.924,954.841,811.924Z" transform="translate(-937.503 -792.14)" fill="#fff"/>
    </g>
    <path id="Trazado_97532" data-name="Trazado 97532" d="M1298.7,935.289a.477.477,0,0,0,.3-.693c-.245-.4-.483-.8-.723-1.2-.531-.887-.58-.906-.537-1.007.1-.242.558-.131.722-.075a5.62,5.62,0,0,0,1.084.391c.753.1,1.3-.48.966-1.21-.307-.668-.654-1.323-1-1.974.807.165,1.611.354,2.42.507a.326.326,0,0,0,.369-.467l-1.269-2.917c-.065-.149-.449-.808-.316-.934s.673.04.8.059c.7.1.951.129,3.243.409a.382.382,0,0,0,.339-.567c-1.6-2.236-1.322-2.44-1.892-2.753a.181.181,0,0,0-.269.148c-.051.336-.039.42.564,1.487q.234.414.488.815c-2.777-.393-3.468-.558-3.843.065-.261.432-.135.55,1.314,3.857-.838-.217-1.684-.383-2.532-.565a.371.371,0,0,0-.42.532c1.11,2.387,1.236,2.4,1.277,2.64,0,.006.147.04-.071.02-.369-.033-1.048-.57-1.755-.488a1.118,1.118,0,0,0-1.072,1.257,7.866,7.866,0,0,0,.967,1.847,9.613,9.613,0,0,0-2.164.708,1.5,1.5,0,0,0-.7.567.4.4,0,0,0,.329.6C1296.129,936.3,1296.487,935.662,1298.7,935.289Z" transform="translate(-558.608 -129.497)" fill="#00223d"/>
    <path id="Trazado_97533" data-name="Trazado 97533" d="M1340.23,977.067a11.93,11.93,0,0,1-.135-2.1c0-.138-.02-.4.12-.483.337-.209.841.37,2.137.654.562.123,1.714.426,1.96-.329a4.259,4.259,0,0,0,.043-1.277c0-.3.01-.609.014-.914,2.1.593,1.983.716,2.46.509a.268.268,0,0,0,.115-.36c-.273-.432-.218-.309-2.863-1.084a.415.415,0,0,0-.537.371c0,.413.11,2.281.087,2.512-.022-.015-.122,0-.144,0a6.837,6.837,0,0,1-2.413-.677c-.653-.27-1.54-.275-1.744.561a8.284,8.284,0,0,0,0,2.109c-1.281-.409-2.559-.829-3.842-1.23a.456.456,0,0,0-.591.409c.057.836.085,1.67.107,2.506a7.734,7.734,0,0,1-2.109-1.078c-.476-.343-1.08.323.178,1.107a7.476,7.476,0,0,0,2.262,1.012.459.459,0,0,0,.593-.409c0-.828-.032-1.658-.084-2.485,1.28.392,2.566.771,3.846,1.164A.424.424,0,0,0,1340.23,977.067Z" transform="translate(-585.555 -164.674)" fill="#26aab7"/>
    <path id="Trazado_97534" data-name="Trazado 97534" d="M1348.63,1029.37a.458.458,0,0,0,.408.461,10.091,10.091,0,0,0,3.521.12c.615-.1.4-1.02-.205-.955a12.237,12.237,0,0,1-2.865.034,9.784,9.784,0,0,1,.288-2.09.471.471,0,0,0-.411-.6c-.759.021-3.631.188-3.657.219a.147.147,0,0,0,0-.077c-.056-.306.169-1.344.146-1.818-.026-.532-.734-.725-1.162-.767-.87-.084-1.833.544-2.68.206-.815-.325.1-1.6-.555-2.6-.506-.77-1.377-.538-2.75-.273a1.027,1.027,0,0,0-.836.464.234.234,0,0,0,.027.273c.413.384.909.211,2.165,0,.16-.026.43-.121.572,0,.474.393-.22,1.475.341,2.387a2.023,2.023,0,0,0,2.055.752c.582-.07,1.3-.409,1.891-.2-.032.506-.079,1.016-.072,1.52a.889.889,0,0,0,.844.981,14.838,14.838,0,0,0,1.864-.062c.412-.019.824-.036,1.236-.059A11.1,11.1,0,0,0,1348.63,1029.37Z" transform="translate(-589.524 -200.201)" fill="#00223d"/>
    <path id="Trazado_97535" data-name="Trazado 97535" d="M1239.131,926.258c-3.285-2.694-4.959-.27-4.014.848a.914.914,0,0,0,1.488-.024c.166-.249-.079-.659-.388-.562-.256.08-.317-.211-.045-.323.366-.151.811.117,1.126.284.736.39,1.7.885,1.821,1.808.187,1.377-1.214,2.834-3.289,2.031-2.993-1.158-2.85-6.055.324-6.868a4.5,4.5,0,0,1,4.642,1.712c.207.277.577-.047.465-.326-.847-2.109-3.539-2.913-5.58-2.2a4.559,4.559,0,0,0-2.824,5.074,4.345,4.345,0,0,0,4.575,3.86A2.987,2.987,0,0,0,1239.131,926.258Z" transform="translate(-513.86 -129.177)" fill="#d1d1d1"/>
    <path id="Trazado_97536" data-name="Trazado 97536" d="M1355.293,1071.193c-.536-.375-1.641-.605-2,.125a.607.607,0,0,0,.32.887c.386.126.745-.081,1.043.276a.811.811,0,0,1-.131,1.019c-.71.837-2.226.58-3.075.116a2.059,2.059,0,0,1-.129-3.591,4.626,4.626,0,0,1,1.5-.472c.284-.067.421-.516.12-.668a2.749,2.749,0,0,0-3.264,1.148,3.3,3.3,0,0,0-.024,3.55,4.238,4.238,0,0,0,3.594,1.743C1356.051,1075.3,1357.03,1072.407,1355.293,1071.193Z" transform="translate(-597.669 -234.565)" fill="#d1d1d1"/>
    <g id="Grupo_46883" data-name="Grupo 46883" transform="translate(680.254 897.159)">
      <g id="Grupo_46882" data-name="Grupo 46882" transform="translate(0)">
        <path id="Trazado_97537" data-name="Trazado 97537" d="M1163.049,1383.872a2.354,2.354,0,0,1-.245.594,22.549,22.549,0,0,1-2.341,3.115l-1.266-2.851s.207-.9.564-2.175A7.324,7.324,0,0,1,1163.049,1383.872Z" transform="translate(-1141.09 -1357.83)" fill="#ffc3b5"/>
        <path id="Trazado_97538" data-name="Trazado 97538" d="M1147.023,1352.74s7.059,3.04,7.287,2.981a18.76,18.76,0,0,0,2.925-8.964c.014-2-2.061-4.4-4.377-3.926-1.165.239-1.148.563-2.872,3.069A28.884,28.884,0,0,0,1147.023,1352.74Z" transform="translate(-1132.32 -1329.172)" fill="#293241"/>
        <path id="Trazado_97539" data-name="Trazado 97539" d="M1114.8,1573.316s.167,2.772.168,2.778a15.115,15.115,0,0,1,.3,1.541c0,1.2-5.708-1.02-4.429-1.553.116-.048.722-.413.76-.822.059-.63.208-1.906.208-1.906Z" transform="translate(-1106.125 -1495.25)" fill="#ffc3b5"/>
        <path id="Trazado_97540" data-name="Trazado 97540" d="M1099.178,1583.041s1.34.368,2.026.46,1.591-.682,2.077-.473c.534.23.513,2.3.513,2.3s-7.186.59-9.207-.021C1093.787,1585.067,1096.439,1583.9,1099.178,1583.041Z" transform="translate(-1094.443 -1502.22)" fill="#c1507f"/>
        <path id="Trazado_97541" data-name="Trazado 97541" d="M1156.557,1573.316s.168,2.772.169,2.778a15.179,15.179,0,0,1,.3,1.541c0,1.2-5.708-1.02-4.429-1.553.116-.048.9-.685.94-1.094.059-.63.028-1.633.028-1.633Z" transform="translate(-1136.204 -1495.25)" fill="#ffc3b5"/>
        <path id="Trazado_97542" data-name="Trazado 97542" d="M1140.943,1583.041s1.34.368,2.026.46,1.591-.682,2.076-.473c.534.23.556,2.3.556,2.3s-7.219.688-9.249-.021C1135.564,1585.034,1138.2,1583.9,1140.943,1583.041Z" transform="translate(-1124.531 -1502.22)" fill="#c1507f"/>
        <g id="Grupo_46881" data-name="Grupo 46881" transform="translate(15.592)">
          <path id="Trazado_97543" data-name="Trazado 97543" d="M1155.259,1326.2l.647,4.093s-2.466,1.98-3.9,1.562c-1.206-.35-.379-1.927-.379-1.927a10.247,10.247,0,0,0,.446-3.33C1151.872,1325.449,1155.259,1326.2,1155.259,1326.2Z" transform="translate(-1151.028 -1317.059)" fill="#ffc3b5"/>
          <path id="Trazado_97544" data-name="Trazado 97544" d="M1156.485,1327.435a10.074,10.074,0,0,1-2.791.786,5.431,5.431,0,0,0,.066-1.626c-.091-.528.581-.653,1.332-.635.982.084,1.858.238,1.858.238l.124.787A2.036,2.036,0,0,1,1156.485,1327.435Z" transform="translate(-1152.718 -1317.06)" fill="#fc8899"/>
          <path id="Trazado_97545" data-name="Trazado 97545" d="M1157.548,1304.265c.1,0-.975,4.572-2.64,5.359s-4.15.377-4.617-.855c-.516-1.362,1.365-6.026,3.708-6.619S1157.548,1304.265,1157.548,1304.265Z" transform="translate(-1150.205 -1299.848)" fill="#ffc3b5"/>
          <path id="Trazado_97546" data-name="Trazado 97546" d="M1162.677,1294.352a5.243,5.243,0,0,1,2.147,2.372,3.375,3.375,0,0,1,1.743,2.665,3.746,3.746,0,0,1-2.821,4.253,2.556,2.556,0,0,0-1.941,1.6l-.19-1.2a4.73,4.73,0,0,1,.936-1.564c.562-.522-.267-1.282-.339-1.9-.056-.478.3-1.4.219-2.188a5.407,5.407,0,0,0-1.855-1.766C1159.006,1296.033,1160.97,1293.367,1162.677,1294.352Z" transform="translate(-1157.262 -1294.136)"/>
          <path id="Trazado_97547" data-name="Trazado 97547" d="M1166.731,1318.068c-.218.528-.129,1.052.2,1.171s.77-.213.987-.741.129-1.052-.2-1.171S1166.949,1317.54,1166.731,1318.068Z" transform="translate(-1162.024 -1310.825)" fill="#ffc3b5"/>
        </g>
        <path id="Trazado_97548" data-name="Trazado 97548" d="M1119.866,1381.938l-9.7-1.581s1.1-2.777,1.5-2.777,7.332,3.029,7.332,3.029l.552,1.108Z" transform="translate(-1105.771 -1354.246)" fill="#ffc3b5"/>
        <path id="Trazado_97549" data-name="Trazado 97549" d="M1143.313,1415.8a31.924,31.924,0,0,1,.573,8.222c-.394,3.546-.425,16.141-.425,16.141l1.5,20.154-3.569.078s-4.233-20.144-4.153-19.626-1.419-14.183-1.419-14.183l5.046-11.229Z" transform="translate(-1124.253 -1381.46)" fill="#dbb44a"/>
        <path id="Trazado_97550" data-name="Trazado 97550" d="M1122.87,1412.152s.63,4.211-.158,6.057-6.762,19.967-6.841,21.444-2.065,17.807-2.065,17.807l-4.15-.117-.9-18.156,1.88-22.819,1.826-5.769Z" transform="translate(-1104.755 -1378.034)" fill="#f5ca56"/>
        <path id="Trazado_97551" data-name="Trazado 97551" d="M1156.619,1338.038a3.724,3.724,0,0,1-1.978.594,6.573,6.573,0,0,1-2.3-.958l.188-.636s2.469-.36,2.531-.321S1156.619,1338.038,1156.619,1338.038Z" transform="translate(-1136.148 -1324.808)" fill="#ffc3b5"/>
        <path id="Trazado_97552" data-name="Trazado 97552" d="M1111.569,1368.249s-3.668,3.461-5.323,2.87-2.341-2.611,1.7-5.566C1111.56,1362.907,1111.569,1368.249,1111.569,1368.249Z" transform="translate(-1102.006 -1345.053)" fill="#ffc3b5"/>
        <path id="Trazado_97553" data-name="Trazado 97553" d="M1116.5,1354.577c.545-2.964,4.494-12.189,4.809-13.888.153-.827,2.283-.844,4.312-.737,2.143.114,4.272.385,4.272.385a6.524,6.524,0,0,1,2.732,1.094c.834.782,1.056,2.945-.144,7.051-.947,3.241-2.121,5.021-2.7,7.382-.118.792-.218,1.573-.352,2.486-.213,3.53,0,8.194,0,8.194s-10.328,2.142-14.191-1.108C1115.242,1365.436,1115.945,1357.614,1116.5,1354.577Z" transform="translate(-1109.426 -1327.108)" fill="#c1507f"/>
        <path id="Trazado_97554" data-name="Trazado 97554" d="M1110.336,1348.509s4.052,3.345,4.289,3.345c.152,0,5.783-4.142,7.083-7.545a2.975,2.975,0,0,0-2.51-3.979c-1.193,0-1.724.312-4.089,2.307A30.191,30.191,0,0,0,1110.336,1348.509Z" transform="translate(-1105.892 -1327.413)" fill="#293241"/>
      </g>
      <path id="Trazado_97555" data-name="Trazado 97555" d="M1151.312,1318.967l1.52.834a.821.821,0,0,1-1.079.295A.8.8,0,0,1,1151.312,1318.967Z" transform="translate(-1135.344 -1312.024)" fill="#fff"/>
    </g>
    <g id="Grupo_46886" data-name="Grupo 46886" transform="translate(599.319 889.321)">
      <path id="Trazado_97556" data-name="Trazado 97556" d="M805.586,1369.883c-.119-.341,1.54-.617,1.628-.962s-2.1-.372-2.173-.675c-.144-.558,2.393-.118,2.343-.379s-2.644-.845-2.363-1.293,2.627.886,2.7.582-2.293-1.044-2.251-1.711c.023-.356,3.881,1.777,4.328,1.583s-.481-1.869-.125-2.117,1.379,3.4,1.625,3.527,5.458,3.1,7.312,3.569c.225-.621,2.882-4.467,3.08-5.054,1.04.74,2.108.842,3.182,1.517-.778,1.95-4.349,7.363-4.892,7.608-1.65.746-8.034-4.549-9.308-5.455s-2.005-.613-2.868-.9S805.705,1370.224,805.586,1369.883Z" transform="translate(-805 -1337.274)" fill="#ffc3b5"/>
      <path id="Trazado_97557" data-name="Trazado 97557" d="M889.91,1315.914a5.458,5.458,0,0,0-6.051-3.611,5.7,5.7,0,0,0-3.574-2.553c-2.854-.611-6.714.516-6.609,3.538-1.107,2.031-1.15,4.933.545,6.477-.589,2.729,1.967,5.369,5.291,5.273a5.875,5.875,0,0,0,5.555,2.874,13.35,13.35,0,0,1,1.462-.161c-.167-.031,3.522,2.8,6.649-1.552C896.366,1321.761,894.125,1316.388,889.91,1315.914Z" transform="translate(-853.905 -1297.431)"/>
      <g id="Grupo_46884" data-name="Grupo 46884" transform="translate(11.032 43.031)">
        <path id="Trazado_97558" data-name="Trazado 97558" d="M865.918,1419.995A15.466,15.466,0,0,1,863.35,1423a11.221,11.221,0,0,0-2.4,4.62c-.52,2.609-.088,15.5-.54,16.419-3.888,3.8-6.7,13.342-7.494,16.252a3.116,3.116,0,0,1-.9,1.476h0l.173,3.289,1.932,1.78a9.859,9.859,0,0,1,.429-4.668s9.79-14.826,10.371-15.959c1.11-3.227,5.153-19.763,5.153-19.763l.938-3.8Z" transform="translate(-849.905 -1419.995)" fill="#ffc3b5"/>
        <path id="Trazado_97559" data-name="Trazado 97559" d="M844.453,1570.31a11.683,11.683,0,0,1,1.327,2.619c.1.734.756,2.4,1.476,2.505.164.024,2.965.23,2.945-.121-.015-.268-1.03-.649-1.5-.975-.814-.562-2.078-5.141-2.078-5.141S844.505,1569.723,844.453,1570.31Z" transform="translate(-844.453 -1527.477)" fill="#7d6eb2"/>
      </g>
      <path id="Trazado_97560" data-name="Trazado 97560" d="M903.183,1289s4.1-7.368,5.094-8.935,3.593-7.791,3.686-8.036-1.788-3.191-1.368-3.292.884,1.553,1.332,1.355,1.756-4.179,2.012-3.981c.478.369-.705,2.469-.451,2.6s1.026-2.311,1.526-2.239-.951,2.239-.811,2.43,1.646-1.85,1.919-1.415c.148.236-1.385,1.783-1.091,1.927s1.658-.854,1.8-.565-1.261.682-1.681,1.458-1.136,1.111-1.433,2.548-.742,6.636-2.264,9.23-4.871,8.335-4.871,8.335Z" transform="translate(-875.729 -1266.106)" fill="#ffc3b5"/>
      <path id="Trazado_97561" data-name="Trazado 97561" d="M916.363,1433.062s6.305,13.482,6.346,15.853c.034,2.032-1.1,13.432-.785,22.926.011.343.446.8,1.078,1.088.355.163,2.073.93,2.073.93l.236.614-5.914-.421-.084-1.615s-2.354-14.2-2.114-18.218c.038-.631.344-4.409.344-4.409l-7.111-13.73,4.473-5.877Z" transform="translate(-880.95 -1384.317)" fill="#ffc3b5"/>
      <g id="Grupo_46885" data-name="Grupo 46885" transform="translate(15.803 20.423)">
        <path id="Trazado_97562" data-name="Trazado 97562" d="M879.954,1498.346s0,0,0,0Z" transform="translate(-874.798 -1453.829)" fill="#f47458"/>
        <path id="Trazado_97563" data-name="Trazado 97563" d="M875.69,1345.6c.169-1.037,1.774-3.631,2.027-4.267,0,0-1.859-2.363-3.37-2.185,0,0-2.029,3.363-3.182,3.476s-5.211.289-5.922.72-3.729,5.065-3.729,5.065,2.712,2.77,3.8,2.764a11.46,11.46,0,0,1,.811-1.391c.164.53,2.691,8.717,2.687,10.571l.02.016a5.306,5.306,0,0,0,7.63-.981h0a42.154,42.154,0,0,1-.093-4.905C876.562,1350.8,877.308,1348.842,875.69,1345.6Z" transform="translate(-861.514 -1339.143)" fill="#7d6eb2"/>
        <path id="Trazado_97564" data-name="Trazado 97564" d="M900.369,1429.442l-12.376-17.88a12.189,12.189,0,0,1-2.3.736,23.873,23.873,0,0,1-5.349.229,1.28,1.28,0,0,1-.011.176c-.206,1.474-2.162,3.756-2.564,8.229a109.389,109.389,0,0,0-.026,14.476C885.97,1434.408,898.034,1431.892,900.369,1429.442Z" transform="translate(-873.042 -1391.312)" fill="#f5ca56"/>
      </g>
      <path id="Trazado_97565" data-name="Trazado 97565" d="M888.565,1337.8a18.71,18.71,0,0,1,.348,3.269c-.087.924.332,3.9,2.212,3.914s.357-3.789.18-4.695a36.1,36.1,0,0,1-.219-3.711Z" transform="translate(-865.198 -1316.872)" fill="#ffc3b5"/>
      <path id="Trazado_97566" data-name="Trazado 97566" d="M891.124,1337.985c-.029-.767-.039-1.407-.039-1.407l-2.521,1.223s.089.479.178,1.09A2.161,2.161,0,0,0,891.124,1337.985Z" transform="translate(-865.198 -1316.872)" fill="#fc8899"/>
      <path id="Trazado_97567" data-name="Trazado 97567" d="M881.566,1317.015a3.221,3.221,0,0,0-1.327,1.777c-.355,1.216.049,4.354,2.558,5.112s3.6-1.727,3.079-3.67S884.236,1315.831,881.566,1317.015Z" transform="translate(-859.121 -1302.557)" fill="#ffc3b5"/>
      <path id="Trazado_97568" data-name="Trazado 97568" d="M899.066,1324.052c-.049.522-.326.92-.618.891s-.489-.477-.44-1,.326-.921.617-.891S899.115,1323.531,899.066,1324.052Z" transform="translate(-871.996 -1307.129)" fill="#ffc3b5"/>
      <path id="Trazado_97569" data-name="Trazado 97569" d="M879.779,1332.451c.3.456.294.994,0,1.2s-.775.006-1.07-.45-.294-.994,0-1.2S879.485,1331.995,879.779,1332.451Z" transform="translate(-857.938 -1313.516)" fill="#ffc3b5"/>
      <path id="Trazado_97570" data-name="Trazado 97570" d="M942.031,1584.044H949.5c.276-.025.344-.248.248-.385a9.079,9.079,0,0,0-2.048-.942c-1.719.179-5.46-1-5.731-1.389A7.271,7.271,0,0,0,942.031,1584.044Z" transform="translate(-903.605 -1493.184)" fill="#7d6eb2"/>
      <path id="Trazado_97571" data-name="Trazado 97571" d="M889.844,1334.46l1.6-.472a.738.738,0,0,1-.554.86C890.041,1335.126,889.844,1334.46,889.844,1334.46Z" transform="translate(-866.12 -1315.006)" fill="#fff"/>
    </g>
    <g id="Grupo_46888" data-name="Grupo 46888" transform="translate(565.619 858.076)">
      <path id="Trazado_97572" data-name="Trazado 97572" d="M739.182,1203.305c.209.008.781.2,1.618,1.781,1.068,2.02,2.63,8.12,2.63,8.12l-4.662,1.736-.6-1.273-.986-9.8S739.124,1203.3,739.182,1203.305Z" transform="translate(-722.446 -1189.621)" fill="#26aab7"/>
      <path id="Trazado_97573" data-name="Trazado 97573" d="M700.995,1200.16a28.475,28.475,0,0,1,6.162.88s1.125,9.666-1.013,17.01c-.478,1.644.4,6.816.4,6.816l-13.813-.182s1.637-12.5,1.02-14.521-.631-9.057-.631-9.057.095-.015,3.1-.535A31.29,31.29,0,0,1,700.995,1200.16Z" transform="translate(-690.421 -1187.355)" fill="#167377"/>
      <path id="Trazado_97574" data-name="Trazado 97574" d="M706.424,1352.67s.305,3.527.867,4.5-.03,2.637-.059,2.865-1.183.554-3.016.358-1.8-.619-1.656-1.3,1.124-1.563,1.183-2.214a16.977,16.977,0,0,0-.562-3Z" transform="translate(-697.46 -1297.22)" fill="#ffc3b5"/>
      <path id="Trazado_97575" data-name="Trazado 97575" d="M704.375,1277.544s9.535-.53,11.664.76-1.513,7.619-1.513,7.619-6.635-.306-19.63.444c-3.078.178-3.343-8.024-2.767-8.7S704.375,1277.544,704.375,1277.544Z" transform="translate(-689.815 -1242.945)" fill="#293241"/>
      <path id="Trazado_97576" data-name="Trazado 97576" d="M703.7,1372.819c-1.888-.2-1.654-1.129-1.5-1.832a6.233,6.233,0,0,1,.96-1.452,3.147,3.147,0,0,0,1.263.614,4.721,4.721,0,0,0,2.762-.558,9.141,9.141,0,0,1,.253,2.435C707.4,1372.261,705.586,1373.021,703.7,1372.819Z" transform="translate(-697.171 -1309.369)" fill="#167377"/>
      <path id="Trazado_97577" data-name="Trazado 97577" d="M692.937,1284.61c.381,2.883,2.267,17.233,2.267,17.233l-4.376.543s-5.382-18.73-5.106-21.6,2.29-3.106,2.29-3.106S691.928,1276.979,692.937,1284.61Z" transform="translate(-685.367 -1243.189)" fill="#3e4654"/>
      <path id="Trazado_97578" data-name="Trazado 97578" d="M688.032,1207.343c1.291-.484,1.923,11.152,2.1,15.942a56.327,56.327,0,0,0,7.266-.073c.467-.035,1.543-.429,2.007-.49a4.659,4.659,0,0,1,1.141-.054,21.541,21.541,0,0,1,2.674,1.2c.253.265.937.934.821,1.223s-1.315-.806-1.315-.806l-.586-.329c.73.713,2.122,1.652,1.921,1.994s-1.451-.62-2.346-1.269c.768.693,1.721,1.934,1.5,2.127-.2.174-1.282-1.262-2.441-1.676-.43-.153-.858.271-1.2.323a2.432,2.432,0,0,1-.876.048l-1.255-.356c-.428.039-.438.292-.87.384-.5.106-1.324.219-1.962.375-3.676.9-4.9,1.315-6.028,1.314C685.177,1227.222,684.979,1208.488,688.032,1207.343Z" transform="translate(-685.487 -1192.519)" fill="#ffc3b5"/>
      <path id="Trazado_97579" data-name="Trazado 97579" d="M684.574,1215.467c-.242-4.906-.206-10.953,2.544-11.985,1.085-.407,3,2.041,2.654,12.085A20.684,20.684,0,0,1,684.574,1215.467Z" transform="translate(-684.481 -1189.718)" fill="#26aab7"/>
      <path id="Trazado_97580" data-name="Trazado 97580" d="M753.47,1363.459a2.383,2.383,0,0,0,.3,2.034c.684.81,3.525,1.6,3.9,2.042a1.229,1.229,0,0,1,.345.812l-7.975-.219.087-2.409.367-1.73Z" transform="translate(-731.708 -1304.992)" fill="#ffc3b5"/>
      <path id="Trazado_97581" data-name="Trazado 97581" d="M753.117,1371.7s-2.049.829-3.039.338-.96-.627-1.247-.444-.389,2.441-.389,2.441l8.968.263c.624-.014.94-.474.433-.867a7.256,7.256,0,0,0-.978-.581A28,28,0,0,0,753.117,1371.7Z" transform="translate(-730.558 -1310.799)" fill="#167377"/>
      <path id="Trazado_97582" data-name="Trazado 97582" d="M753.564,1280.31c.616-1.3,2.018-2.986,4.485-1.969,2.352.97,2.984,3.354,2.241,5.8s-5.629,16.793-5.8,18.767l-3.9.026s.709-11.364.883-14.111A26.591,26.591,0,0,1,753.564,1280.31Z" transform="translate(-732.104 -1243.45)" fill="#3e4654"/>
      <path id="Trazado_97583" data-name="Trazado 97583" d="M718.445,1238.912H705.4a.85.85,0,0,0-.787.529l-4.016,9.827h-7.19a.365.365,0,0,0-.364.365h0a.364.364,0,0,0,.364.365h20.463a1.427,1.427,0,0,0,1.3-.846l4.043-9.038A.853.853,0,0,0,718.445,1238.912Z" transform="translate(-690.652 -1215.271)" fill="url(#linear-gradient)"/>
      <path id="Trazado_97584" data-name="Trazado 97584" d="M755.124,1256.925a.718.718,0,1,1-.538-.939A.768.768,0,0,1,755.124,1256.925Z" transform="translate(-734.352 -1227.562)" fill="#00223d"/>
      <g id="Grupo_46887" data-name="Grupo 46887" transform="translate(6.414 0)">
        <path id="Trazado_97585" data-name="Trazado 97585" d="M714.677,1155.367a10.054,10.054,0,0,1-1.154-.462,5.783,5.783,0,0,0-1.315-.5,3.171,3.171,0,0,0-2.669.712c-.86.933-2.389.169-2.081,5.056.349,5.532,3.425,4.925,3.5,4.831s2.743-3.539,2.743-3.539.933,2.041.933,1.966S719.4,1156.957,714.677,1155.367Z" transform="translate(-707.418 -1154.367)"/>
        <path id="Trazado_97586" data-name="Trazado 97586" d="M716.888,1185.861l.266,1.977s.595,2.848-.171,3.4-3.254-3.478-3.254-3.478l.263-5.009Z" transform="translate(-711.964 -1174.812)" fill="#ffc3b5"/>
        <path id="Trazado_97587" data-name="Trazado 97587" d="M714.366,1184.371a5.67,5.67,0,0,0,3.206,3.166l-.225-1.676-2.9-3.113Z" transform="translate(-712.423 -1174.812)" fill="#fc8899"/>
        <path id="Trazado_97588" data-name="Trazado 97588" d="M715.855,1163.168a2.636,2.636,0,0,1,3.035,2.666,19.947,19.947,0,0,1-.222,2.535c-.352,2.282-1.909,4.291-2.939,4.112a4.946,4.946,0,0,1-3.163-5.395A4.365,4.365,0,0,1,715.855,1163.168Z" transform="translate(-711.088 -1160.683)" fill="#ffc3b5"/>
        <path id="Trazado_97589" data-name="Trazado 97589" d="M711.4,1175.955a.767.767,0,1,1-.583-1.038A.849.849,0,0,1,711.4,1175.955Z" transform="translate(-709.208 -1169.164)" fill="#ffc3b5"/>
        <path id="Trazado_97590" data-name="Trazado 97590" d="M712.16,1164.485s1.244.309,1.706-.491,2.113-2.528,4.213-1.812-1.847-1.741-2.015-1.741-2.183-.014-2.183-.014-1.554,1.278-1.61,1.418-.5,1.671-.5,1.671Z" transform="translate(-710.551 -1158.732)"/>
      </g>
      <path id="Trazado_97591" data-name="Trazado 97591" d="M721.294,1186.885l2.265.433a1.008,1.008,0,0,1-1.218.691C721.12,1187.813,721.294,1186.885,721.294,1186.885Z" transform="translate(-710.994 -1177.792)" fill="#fff"/>
    </g>
    <path id="Trazado_97592" data-name="Trazado 97592" d="M1248.737,1360.135c-.119-.341,1.541-.617,1.629-.962s-2.1-.372-2.173-.675c-.144-.559,2.393-.118,2.343-.379s-2.644-.845-2.363-1.293,2.626.886,2.7.582-2.293-1.044-2.251-1.711c.023-.356,3.881,1.778,4.328,1.583s-.481-1.869-.125-2.117,1.379,3.4,1.625,3.526,5.458,3.1,7.313,3.569c.225-.621.712-1.459.911-2.046,1.041.74,1.813,1.112,2.887,1.787-.778,1.95-1.885,4.085-2.427,4.33-1.651.746-8.034-4.548-9.308-5.454s-2.005-.613-2.867-.9S1248.857,1360.476,1248.737,1360.135Z" transform="translate(-524.917 -440.931)" fill="#ffc3b5"/>
    <path id="Trazado_97593" data-name="Trazado 97593" d="M1302.259,1355.062c.493,2.031-2.137,6.558-2.137,6.558s-3.747-1.768-4.406-2.53c0,0,2.545-4.393,2.712-4.66a2.3,2.3,0,0,1,2.45-1.131C1301.415,1353.361,1302.259,1355.062,1302.259,1355.062Z" transform="translate(-559.181 -439.575)" fill="#d1d1d1"/>
  </g>
</svg>
