<svg xmlns="http://www.w3.org/2000/svg" xmlns:xlink="http://www.w3.org/1999/xlink" width="246.559" height="171.74" viewBox="0 0 246.559 171.74">
  <defs>
    <linearGradient id="linear-gradient" x1="-9.821" y1="37.787" x2="-10.121" y2="42.527" gradientUnits="objectBoundingBox">
      <stop offset="0" stop-color="#fff"/>
      <stop offset="1" stop-color="#d3d3d3"/>
    </linearGradient>
    <linearGradient id="linear-gradient-2" x1="-15.559" y1="26.047" x2="-16.001" y2="29.266" xlink:href="#linear-gradient"/>
    <linearGradient id="linear-gradient-3" x1="0.5" y1="0" x2="0.5" y2="1" xlink:href="#linear-gradient"/>
    <linearGradient id="linear-gradient-16" y1="0.5" x2="1" y2="0.5" gradientUnits="objectBoundingBox">
      <stop offset="0" stop-color="#ff928e"/>
      <stop offset="1" stop-color="#feb3b1"/>
    </linearGradient>
    <linearGradient id="linear-gradient-18" x1="-0.326" y1="-0.124" x2="1.85" y2="1.295" xlink:href="#linear-gradient-16"/>
    <linearGradient id="linear-gradient-19" x1="-0.947" y1="-1.256" x2="0.878" y2="1.192" xlink:href="#linear-gradient-16"/>
    <linearGradient id="linear-gradient-20" x1="0.307" y1="-0.628" x2="0.574" y2="0.921" xlink:href="#linear-gradient-16"/>
    <linearGradient id="linear-gradient-21" x1="-0.056" y1="-1.268" x2="0.49" y2="0.682" xlink:href="#linear-gradient-16"/>
    <linearGradient id="linear-gradient-22" x1="0.008" y1="-0.063" x2="0.866" y2="0.877" xlink:href="#linear-gradient-16"/>
    <linearGradient id="linear-gradient-23" x1="2.695" y1="-7.847" x2="3.743" y2="-7.847" gradientUnits="objectBoundingBox">
      <stop offset="0" stop-color="#020039"/>
      <stop offset="1" stop-color="#090056"/>
    </linearGradient>
    <linearGradient id="linear-gradient-24" x1="0.203" y1="-0.879" x2="1.071" y2="2.854" xlink:href="#linear-gradient-16"/>
    <linearGradient id="linear-gradient-25" x1="24.395" y1="0.5" x2="25.395" y2="0.5" xlink:href="#linear-gradient-16"/>
    <linearGradient id="linear-gradient-26" x1="19.747" y1="0.5" x2="20.747" y2="0.5" xlink:href="#linear-gradient-16"/>
    <linearGradient id="linear-gradient-27" x1="0.196" y1="-0.419" x2="0.467" y2="0.28" xlink:href="#linear-gradient-16"/>
    <linearGradient id="linear-gradient-28" x1="0.291" y1="0.086" x2="1.1" y2="1.572" xlink:href="#linear-gradient-16"/>
    <linearGradient id="linear-gradient-29" x1="1.523" y1="1.716" x2="-0.353" y2="-0.451" xlink:href="#linear-gradient-16"/>
    <linearGradient id="linear-gradient-30" x1="2.433" y1="0.5" x2="3.433" y2="0.5" xlink:href="#linear-gradient-16"/>
    <linearGradient id="linear-gradient-31" x1="11.544" y1="0.5" x2="12.544" y2="0.5" xlink:href="#linear-gradient-16"/>
    <linearGradient id="linear-gradient-32" x1="0.401" y1="0.177" x2="0.592" y2="0.993" xlink:href="#linear-gradient-16"/>
    <linearGradient id="linear-gradient-33" x1="-0.006" y1="-0.626" x2="0.554" y2="0.648" xlink:href="#linear-gradient-16"/>
    <linearGradient id="linear-gradient-34" x1="-358.804" y1="-135.006" x2="-359.748" y2="-139.653" xlink:href="#linear-gradient-16"/>
    <linearGradient id="linear-gradient-35" x1="0" y1="0.5" x2="1" y2="0.5" xlink:href="#linear-gradient"/>
  </defs>
  <g id="Grupo_54463" data-name="Grupo 54463" transform="translate(-216.903 -110.105)">
    <g id="Grupo_54417" data-name="Grupo 54417" transform="translate(216.903 122.283)">
      <path id="Trazado_116688" data-name="Trazado 116688" d="M267.169,217.774c-14.137,8.763-24.128,2-32.673,11.278-26.656,28.955,7.123,39.929-8.568,44.37-17.04,4.823-6.439,26.105,3.149,32.256s16.719,9.851,3.1,16.139-16,13.241-10.291,24.555,16.534,14.879,61.507,15.55,132.068-.752,155.828-7.189,6.439-23,16.428-35.377,11.954-19.639-3.344-31.643-6.583-24.425-1.99-33.185,8.126-24.649-10.31-29.182-39.872,13.551-49.144,4.365-5.191-21.37-25.44-18.3-27.058,26.809-44.717,25.5S297.137,199.2,267.169,217.774Z" transform="translate(-216.903 -210.925)" fill="#e9effe"/>
    </g>
    <g id="Grupo_54423" data-name="Grupo 54423" transform="translate(240.925 110.105)">
      <g id="Grupo_54421" data-name="Grupo 54421" transform="translate(0 12.622)">
        <circle id="Elipse_4092" data-name="Elipse 4092" cx="35.844" cy="35.844" r="35.844" fill="#aee6e6"/>
        <g id="Grupo_54418" data-name="Grupo 54418" transform="translate(3.72 3.72)">
          <circle id="Elipse_4093" data-name="Elipse 4093" cx="30.591" cy="30.591" r="30.591" transform="translate(1.532 1.532)" fill="#aee6e6"/>
          <path id="Trazado_116689" data-name="Trazado 116689" d="M478.7,309.65a32.124,32.124,0,1,1,32.123-32.124A32.16,32.16,0,0,1,478.7,309.65Zm0-61.183a29.059,29.059,0,1,0,29.059,29.059A29.092,29.092,0,0,0,478.7,248.467Z" transform="translate(-446.574 -245.403)" fill="#fff"/>
        </g>
        <g id="Grupo_54419" data-name="Grupo 54419" transform="translate(9.469 9.469)">
          <circle id="Elipse_4094" data-name="Elipse 4094" cx="18.65" cy="18.65" r="18.65" transform="translate(0 26.375) rotate(-45)" fill="#aee6e6"/>
          <path id="Trazado_116690" data-name="Trazado 116690" d="M565.617,384.625A20.182,20.182,0,1,1,585.8,364.443,20.2,20.2,0,0,1,565.617,384.625Zm0-37.3a17.118,17.118,0,1,0,17.118,17.118A17.137,17.137,0,0,0,565.617,347.325Z" transform="translate(-539.242 -338.068)" fill="#fff"/>
        </g>
        <g id="Grupo_54420" data-name="Grupo 54420" transform="translate(27.086 27.086)">
          <circle id="Elipse_4095" data-name="Elipse 4095" cx="7.226" cy="7.226" r="7.226" transform="matrix(0.23, -0.973, 0.973, 0.23, 0.065, 14.13)" fill="#aee6e6"/>
          <path id="Trazado_116691" data-name="Trazado 116691" d="M648.771,456.356a8.758,8.758,0,1,1,8.758-8.758A8.768,8.768,0,0,1,648.771,456.356Zm0-14.451a5.693,5.693,0,1,0,5.693,5.693A5.7,5.7,0,0,0,648.771,441.905Z" transform="translate(-640.013 -438.841)" fill="#fff"/>
        </g>
      </g>
      <g id="Grupo_54422" data-name="Grupo 54422" transform="translate(35.695 0)">
        <rect id="Rectángulo_29389" data-name="Rectángulo 29389" width="1.366" height="51.734" transform="translate(7.987 42.448) rotate(-135.001)" fill="#3c4973"/>
        <path id="Trazado_116692" data-name="Trazado 116692" d="M718.99,433.665c.554-.554,3.167,2.059,2.613,2.613l-9.691,7.618a.385.385,0,0,1-.541-.54Z" transform="translate(-711.285 -394.514)" fill="#00223d"/>
        <path id="Trazado_116693" data-name="Trazado 116693" d="M1005.449,158.845l4.921.489-6.756,6.756A10.444,10.444,0,0,1,995.2,169.1h0Z" transform="translate(-960.902 -152.958)" fill="url(#linear-gradient)"/>
        <path id="Trazado_116694" data-name="Trazado 116694" d="M997.078,115.026l-.489-4.921-6.756,6.756a10.444,10.444,0,0,0-3.008,8.418h0Z" transform="translate(-953.497 -110.105)" fill="url(#linear-gradient-2)"/>
      </g>
    </g>
    <g id="Grupo_54434" data-name="Grupo 54434" transform="translate(240.178 137.863)">
      <path id="Trazado_116727" data-name="Trazado 116727" d="M1455.364,464.583l37.6-72.041h-7.7a1.683,1.683,0,0,1-1.3-2.75l40.078-48.847a2.827,2.827,0,0,1,5.007,1.959l-2.817,47.766a4.773,4.773,0,0,1-5.307,4.461l-5.372-.615-37.31,80.8a5.941,5.941,0,0,1-5.394,3.45h-12.931Z" transform="translate(-1329.043 -339.905)" fill="#aee6e6"/>
      <path id="Trazado_116728" data-name="Trazado 116728" d="M1197.978,879.712l26.547,58.972a9.736,9.736,0,0,0,8.878,5.739h13.686a5,5,0,0,0,4.37-2.573l.487-.877h0a3.913,3.913,0,0,1-3.485-2.134l-35.371-69.3Z" transform="translate(-1102.747 -805.559)" fill="#aee6e6"/>
      <path id="Trazado_116729" data-name="Trazado 116729" d="M832.5,826.674h0a5.806,5.806,0,0,0-8.431,1.34l-39.032,58.643A16.861,16.861,0,0,1,771,894.175H765.51L761.04,881.3s36.286-55.639,45.639-64.055c0,0,9.314-8.394,18.5-2.048a15.326,15.326,0,0,1,5.393,6.8Z" transform="translate(-718.587 -755.699)" fill="#aee6e6"/>
      <path id="Trazado_116730" data-name="Trazado 116730" d="M409.586,1024.331a29.48,29.48,0,0,1,19.195-9.437s6.013,2.049,17.993,23.515,19.932,31.256,29.263,25.909l-.773,1.283a14.072,14.072,0,0,1-12.055,6.812h-5.161a17.655,17.655,0,0,1-14.334-7.344C434.391,1052.107,415.314,1026.344,409.586,1024.331Z" transform="translate(-409.586 -933.361)" fill="#aee6e6"/>
      <path id="Trazado_116731" data-name="Trazado 116731" d="M2024.887,467.1l-.048,0a.418.418,0,0,1-.368-.462l.264-2.332a.418.418,0,0,1,.83.094l-.264,2.332A.417.417,0,0,1,2024.887,467.1Z" transform="translate(-1829.404 -448.948)" fill="#fff" opacity="0.3"/>
      <path id="Trazado_116732" data-name="Trazado 116732" d="M1747.918,411.91a.418.418,0,0,1-.331-.673l33.094-43a1.433,1.433,0,0,1,2.56,1.036l-.584,5.154a.418.418,0,1,1-.83-.094l.584-5.154a.6.6,0,0,0-1.068-.432l-33.095,43A.417.417,0,0,1,1747.918,411.91Z" transform="translate(-1585.892 -364.32)" fill="#fff" opacity="0.3"/>
      <path id="Trazado_116733" data-name="Trazado 116733" d="M1126.365,907.87a.418.418,0,0,1-.346-.652l17.116-25.37a3.062,3.062,0,0,1,5.307.4.418.418,0,1,1-.756.357,2.227,2.227,0,0,0-3.858-.293l-17.116,25.37A.417.417,0,0,1,1126.365,907.87Z" transform="translate(-1039.417 -815.199)" fill="#fff" opacity="0.3"/>
      <path id="Trazado_116734" data-name="Trazado 116734" d="M1089.543,1143.757a.418.418,0,0,1-.346-.651l1.1-1.627a.418.418,0,0,1,.693.468l-1.1,1.627A.418.418,0,0,1,1089.543,1143.757Z" transform="translate(-1007.043 -1044.493)" fill="#fff" opacity="0.3"/>
    </g>
    <g id="Grupo_54435" data-name="Grupo 54435" transform="translate(349.389 125.165)">
      <path id="Trazado_116735" data-name="Trazado 116735" d="M1313.955,237.572a1.047,1.047,0,0,1,.876-.346l34.253,3.143v-4.835a.723.723,0,0,1,.988-.7l22.743,8.731a.753.753,0,0,1,0,1.4l-22.749,8.731a.71.71,0,0,1-.674-.082.733.733,0,0,1-.3-.62v-3.055l-30.346,1.41a2.158,2.158,0,0,1-2.193-1.627l-2.8-11.257A1,1,0,0,1,1313.955,237.572Z" transform="translate(-1313.717 -234.782)" fill="#7d6eb2"/>
      <path id="Trazado_116736" data-name="Trazado 116736" d="M1637.327,259.166a.416.416,0,0,1-.146-.026l-17.82-6.638a.389.389,0,0,0-.327.062.4.4,0,0,0-.163.3v3.431a.418.418,0,1,1-.836,0v-3.431a1.235,1.235,0,0,1,.523-.986,1.21,1.21,0,0,1,1.1-.158l17.819,6.638a.418.418,0,0,1-.146.81Z" transform="translate(-1581.276 -249.613)" fill="#fff" opacity="0.5"/>
      <path id="Trazado_116737" data-name="Trazado 116737" d="M1581.694,288.558a.443.443,0,0,1-.068-.005l-1.838-.3a.418.418,0,0,1,.135-.825l1.838.3a.418.418,0,0,1-.067.83Z" transform="translate(-1547.34 -281.063)" fill="#fff" opacity="0.5"/>
    </g>
    <g id="Grupo_54436" data-name="Grupo 54436" transform="translate(317.179 149.401)">
      <path id="Trazado_116738" data-name="Trazado 116738" d="M1111.2,438.443a1.125,1.125,0,0,0-.943-.374l-37.019,3.4v-5.226a.786.786,0,0,0-1.073-.759l-24.583,9.437a.813.813,0,0,0,0,1.518l24.588,9.437a.773.773,0,0,0,.731-.089.8.8,0,0,0,.332-.67v-3.3l32.8,1.524a2.331,2.331,0,0,0,2.369-1.758l3.021-12.168A1.083,1.083,0,0,0,1111.2,438.443Z" transform="translate(-1047.062 -435.428)" fill="#12263f"/>
      <path id="Trazado_116739" data-name="Trazado 116739" d="M1075.053,462.028a.418.418,0,0,1-.146-.81l19.292-7.179a1.177,1.177,0,0,1,1.105.165,1.245,1.245,0,0,1,.5,1.036v3.726a.418.418,0,1,1-.836,0V455.24a.43.43,0,0,0-.143-.349.338.338,0,0,0-.337-.069L1075.2,462A.416.416,0,0,1,1075.053,462.028Z" transform="translate(-1071.304 -451.728)" fill="#fff" opacity="0.5"/>
      <path id="Trazado_116740" data-name="Trazado 116740" d="M1269.729,493.764a.418.418,0,0,1-.067-.83l1.987-.325a.418.418,0,0,1,.135.825l-1.987.325A.415.415,0,0,1,1269.729,493.764Z" transform="translate(-1242.465 -485.697)" fill="#fff" opacity="0.5"/>
    </g>
    <g id="Grupo_54440" data-name="Grupo 54440" transform="translate(344.077 190.175)">
      <path id="Trazado_116741" data-name="Trazado 116741" d="M1271.151,773.266l64.563-.282a1.107,1.107,0,0,1,1.116,1.113l-.138,22.6a1.106,1.106,0,0,1-1.138,1.1c-5.693-.17-64.045-.919-65.161-.872s-.5-17.8-.339-22.59A1.106,1.106,0,0,1,1271.151,773.266Z" transform="translate(-1269.744 -772.984)" fill="#00223d"/>
      <path id="Trazado_116742" data-name="Trazado 116742" d="M1341.69,803.07h-.009c-3.64-.109-38.532-.544-55.3-.753-4.88-.061-8.344-.1-9.269-.117l-.115,0-.02-.113c-.4-2.236-.39-9.708.019-21.608a.266.266,0,0,1,.264-.257l64.564-.282a.266.266,0,0,1,.191.079.261.261,0,0,1,.077.19l-.138,22.6A.266.266,0,0,1,1341.69,803.07Zm-64.458-1.147c1.074.015,4.457.057,9.152.115,16.769.209,51.662.645,55.305.753h0l.12-22.587-64.552.294C1276.873,792.172,1276.858,799.573,1277.232,801.923Z" transform="translate(-1275.846 -779.098)" fill="#56f"/>
      <path id="Trazado_116743" data-name="Trazado 116743" d="M1304.257,815.584h0c0,.611.2,1.107.455,1.107h24.731c.251,0,.455-.5.455-1.107h0c0-.611-.2-1.107-.455-1.107h-24.731C1304.461,814.477,1304.257,814.972,1304.257,815.584Z" transform="translate(-1300.088 -809.465)" fill="url(#linear-gradient-3)"/>
      <path id="Trazado_116744" data-name="Trazado 116744" d="M1304.257,846.813h0c0,.611.2,1.107.455,1.107h24.731c.251,0,.455-.5.455-1.107h0c0-.611-.2-1.107-.455-1.107h-24.731C1304.461,845.706,1304.257,846.2,1304.257,846.813Z" transform="translate(-1300.088 -836.922)" fill="url(#linear-gradient-3)"/>
      <path id="Trazado_116745" data-name="Trazado 116745" d="M1304.257,878.043h0c0,.611.2,1.106.455,1.106h24.731c.251,0,.455-.5.455-1.106h0c0-.611-.2-1.107-.455-1.107h-24.731C1304.461,876.936,1304.257,877.431,1304.257,878.043Z" transform="translate(-1300.088 -864.379)" fill="url(#linear-gradient-3)"/>
      <path id="Trazado_116746" data-name="Trazado 116746" d="M1304.257,909.272h0c0,.611.2,1.107.455,1.107h24.731c.251,0,.455-.5.455-1.107h0c0-.611-.2-1.107-.455-1.107h-24.731C1304.461,908.165,1304.257,908.661,1304.257,909.272Z" transform="translate(-1300.088 -891.836)" fill="url(#linear-gradient-3)"/>
      <g id="Grupo_54439" data-name="Grupo 54439" transform="translate(30.456 0.866)">
        <circle id="Elipse_4096" data-name="Elipse 4096" cx="4.302" cy="4.302" r="4.302" transform="translate(0 8.361) rotate(-67.5)" fill="url(#linear-gradient-3)"/>
        <circle id="Elipse_4097" data-name="Elipse 4097" cx="4.302" cy="4.302" r="4.302" transform="translate(10.28 5.242) rotate(-37.534)" fill="url(#linear-gradient-3)"/>
        <circle id="Elipse_4098" data-name="Elipse 4098" cx="4.302" cy="4.302" r="4.302" transform="translate(22.011 2.698) rotate(-10.162)" fill="url(#linear-gradient-3)"/>
        <g id="Grupo_54437" data-name="Grupo 54437" transform="translate(2.158 2.71)">
          <path id="Trazado_116747" data-name="Trazado 116747" d="M1545.76,805a2.763,2.763,0,1,1-2.556-1.713c.047,0,.093,0,.139,0v-.7c-.046,0-.093,0-.139,0a3.461,3.461,0,1,0,3.2,2.134Z" transform="translate(-1539.741 -802.586)" fill="#00223d"/>
          <path id="Trazado_116748" data-name="Trazado 116748" d="M1632.8,808.387a2.763,2.763,0,1,1-1.472-5.1c.047,0,.093,0,.139,0v-.7c-.046,0-.093,0-.139,0a3.463,3.463,0,1,0,1.82,6.41Z" transform="translate(-1617.222 -802.586)" fill="#00223d"/>
          <path id="Trazado_116749" data-name="Trazado 116749" d="M1722.689,807.6a2.763,2.763,0,1,1-2.286-4.317c.047,0,.094,0,.14,0v-.7c-.046,0-.093,0-.14,0a3.463,3.463,0,1,0,2.853,5.427Z" transform="translate(-1695.536 -802.586)" fill="#00223d"/>
        </g>
        <g id="Grupo_54438" data-name="Grupo 54438" transform="translate(1.319 12.157)">
          <path id="Trazado_116750" data-name="Trazado 116750" d="M1540.6,880.793h-7.01a.8.8,0,0,0,0,1.594h7.01a.8.8,0,1,0,0-1.594Z" transform="translate(-1532.797 -880.793)" fill="url(#linear-gradient-3)"/>
          <path id="Trazado_116751" data-name="Trazado 116751" d="M1629.118,880.793h-7.01a.8.8,0,1,0,0,1.594h7.01a.8.8,0,1,0,0-1.594Z" transform="translate(-1610.619 -880.793)" fill="url(#linear-gradient-3)"/>
          <path id="Trazado_116752" data-name="Trazado 116752" d="M1710.622,882.386h7.01a.8.8,0,0,0,0-1.594h-7.01a.8.8,0,1,0,0,1.594Z" transform="translate(-1688.441 -880.793)" fill="url(#linear-gradient-3)"/>
          <rect id="Rectángulo_29390" data-name="Rectángulo 29390" width="8.604" height="6.285" rx="2" transform="translate(0 2.479)" fill="url(#linear-gradient-3)"/>
          <rect id="Rectángulo_29391" data-name="Rectángulo 29391" width="8.604" height="6.285" rx="2" transform="translate(10.692 2.479)" fill="url(#linear-gradient-3)"/>
          <rect id="Rectángulo_29392" data-name="Rectángulo 29392" width="8.604" height="6.285" rx="2" transform="translate(21.384 2.479)" fill="url(#linear-gradient-3)"/>
        </g>
      </g>
    </g>
    <g id="Grupo_54441" data-name="Grupo 54441" transform="translate(298.347 159.512)">
      <path id="Trazado_116753" data-name="Trazado 116753" d="M1581.463,519.135q.829.151,1.651.342a.279.279,0,1,1-.127.542q-.806-.189-1.623-.336a.279.279,0,0,1,.1-.548Z" transform="translate(-1497.791 -519.13)" fill="#fff"/>
      <path id="Trazado_116754" data-name="Trazado 116754" d="M1621.134,529.934a13.021,13.021,0,0,1,2.961,1.588.278.278,0,0,1-.331.448h0a12.459,12.459,0,0,0-2.833-1.517.279.279,0,0,1,.2-.519Z" transform="translate(-1532.624 -528.612)" fill="#fff"/>
      <path id="Trazado_116755" data-name="Trazado 116755" d="M1662.613,563.608a4.982,4.982,0,0,1,.4,1.689,5.67,5.67,0,0,1-.171,1.718.278.278,0,0,1-.54-.136,5.1,5.1,0,0,0,.156-1.549,4.429,4.429,0,0,0-.358-1.5.278.278,0,1,1,.511-.221Z" transform="translate(-1568.958 -558.088)" fill="#fff"/>
      <path id="Trazado_116756" data-name="Trazado 116756" d="M1635.6,614.841a14.682,14.682,0,0,1-2.326,2.415.278.278,0,1,1-.357-.426h0a14.142,14.142,0,0,0,2.237-2.322.278.278,0,0,1,.446.333Z" transform="translate(-1543.229 -602.889)" fill="#fff"/>
      <path id="Trazado_116757" data-name="Trazado 116757" d="M1589.369,650.142a23.008,23.008,0,0,1-2.994,1.466.278.278,0,0,1-.208-.515,22.474,22.474,0,0,0,2.921-1.431.278.278,0,0,1,.281.48Z" transform="translate(-1502.063 -633.861)" fill="#fff"/>
      <path id="Trazado_116758" data-name="Trazado 116758" d="M1537.674,671.427q-1.576.512-3.178.929a.278.278,0,0,1-.141-.537q1.587-.415,3.148-.92a.278.278,0,1,1,.171.528Z" transform="translate(-1456.479 -652.554)" fill="#fff"/>
      <path id="Trazado_116759" data-name="Trazado 116759" d="M1484.349,685.333q-1.619.34-3.25.612a.278.278,0,1,1-.092-.547q1.62-.272,3.228-.608a.278.278,0,0,1,.114.543Z" transform="translate(-1409.554 -664.774)" fill="#fff"/>
      <path id="Trazado_116760" data-name="Trazado 116760" d="M1430.275,694.449l-3.278.4a.277.277,0,1,1-.067-.551h.006l3.265-.4h.007a.278.278,0,0,1,.067.551Z" transform="translate(-1361.997 -672.786)" fill="#fff"/>
      <path id="Trazado_116761" data-name="Trazado 116761" d="M1375.962,700.5l-3.286.289a.277.277,0,0,1-.048-.552h0l3.281-.289h0a.277.277,0,1,1,.049.552Z" transform="translate(-1314.248 -678.104)" fill="#fff"/>
      <path id="Trazado_116762" data-name="Trazado 116762" d="M1321.572,705.146c-1.1.084-2.183.2-3.274.305h-.009a.277.277,0,1,1-.051-.552c1.1-.1,2.194-.223,3.289-.307h0a.277.277,0,0,1,.042.553Z" transform="translate(-1266.428 -682.19)" fill="#fff"/>
      <path id="Trazado_116763" data-name="Trazado 116763" d="M1267.625,711.161q-1.625.24-3.239.545a.277.277,0,0,1-.1-.544q1.625-.308,3.261-.549a.277.277,0,1,1,.081.548Z" transform="translate(-1219.014 -687.481)" fill="#fff"/>
      <path id="Trazado_116764" data-name="Trazado 116764" d="M1214.493,721.35q-1.6.376-3.177.826a.277.277,0,1,1-.152-.532q1.591-.455,3.2-.833a.277.277,0,1,1,.127.539Z" transform="translate(-1172.333 -696.443)" fill="#fff"/>
      <path id="Trazado_116765" data-name="Trazado 116765" d="M1162.815,736.371q-1.553.531-3.074,1.145a.277.277,0,1,1-.207-.513q1.535-.621,3.1-1.155a.277.277,0,0,1,.179.524Z" transform="translate(-1126.963 -709.657)" fill="#fff"/>
      <path id="Trazado_116766" data-name="Trazado 116766" d="M1113.415,756.829q-1.482.7-2.918,1.493a.276.276,0,1,1-.267-.484q1.451-.8,2.949-1.509a.277.277,0,0,1,.237.5Z" transform="translate(-1083.641 -727.654)" fill="#fff"/>
      <path id="Trazado_116767" data-name="Trazado 116767" d="M1067.292,783.178q-1.381.883-2.7,1.856a.276.276,0,0,1-.328-.445q1.333-.985,2.731-1.877a.276.276,0,1,1,.3.466Z" transform="translate(-1043.255 -750.836)" fill="#fff"/>
      <path id="Trazado_116768" data-name="Trazado 116768" d="M1025.5,815.557q-1.248,1.061-2.421,2.208a.276.276,0,1,1-.386-.395q1.185-1.159,2.449-2.234a.276.276,0,0,1,.358.421Z" transform="translate(-1006.736 -779.323)" fill="#fff"/>
      <path id="Trazado_116769" data-name="Trazado 116769" d="M988.934,853.651q-1.089,1.224-2.094,2.52a.276.276,0,0,1-.436-.338q1.016-1.31,2.118-2.549a.276.276,0,0,1,.412.367Z" transform="translate(-974.847 -812.84)" fill="#fff"/>
      <path id="Trazado_116770" data-name="Trazado 116770" d="M958.08,896.708q-.917,1.358-1.746,2.774a.276.276,0,0,1-.476-.279q.838-1.429,1.765-2.8a.276.276,0,1,1,.457.309Z" transform="translate(-948.009 -850.722)" fill="#fff"/>
      <path id="Trazado_116771" data-name="Trazado 116771" d="M932.986,943.7q-.744,1.462-1.4,2.964a.276.276,0,0,1-.5-.222q.667-1.515,1.417-2.993a.276.276,0,1,1,.491.25Z" transform="translate(-926.234 -892.067)" fill="#fff"/>
      <path id="Trazado_116772" data-name="Trazado 116772" d="M912.545,993.575l-.6,1.539-.6,1.539a.275.275,0,1,1-.513-.2l0-.008.6-1.531.6-1.534,0,0a.276.276,0,1,1,.514.2Z" transform="translate(-908.439 -935.936)" fill="#fff"/>
      <path id="Trazado_116773" data-name="Trazado 116773" d="M895.184,1044.2a11.085,11.085,0,0,0-.495,1.53,13.422,13.422,0,0,0-.265,1.592.275.275,0,1,1-.547-.062,14.009,14.009,0,0,1,.277-1.657,11.653,11.653,0,0,1,.518-1.6.275.275,0,1,1,.512.2Z" transform="translate(-893.547 -980.443)" fill="#fff"/>
      <path id="Trazado_116774" data-name="Trazado 116774" d="M891.79,1097.75l-.086,1.668a.275.275,0,1,1-.549-.027l.086-1.671a.275.275,0,0,1,.549.028h0Z" transform="translate(-891.154 -1027.602)" fill="#fff"/>
    </g>
    <g id="Grupo_54448" data-name="Grupo 54448" transform="translate(222.458 182.396)">
      <g id="Grupo_54442" data-name="Grupo 54442" transform="translate(24.656 57.452)">
        <rect id="Rectángulo_29393" data-name="Rectángulo 29393" width="2.657" height="28.738" transform="translate(17.368 35.582) rotate(180)" fill="#167377"/>
        <path id="Rectángulo_29394" data-name="Rectángulo 29394" d="M0,0H23.275a0,0,0,0,1,0,0V0a1.73,1.73,0,0,1-1.73,1.73H1.6A1.6,1.6,0,0,1,0,.125V0A0,0,0,0,1,0,0Z" transform="translate(27.676 36.136) rotate(180)" fill="#167377"/>
        <path id="Rectángulo_29395" data-name="Rectángulo 29395" d="M4.41,0H26.69A4.41,4.41,0,0,1,31.1,4.41v0a4.41,4.41,0,0,1-4.41,4.41H4.41A4.41,4.41,0,0,1,0,4.41v0A4.41,4.41,0,0,1,4.41,0Z" fill="#167377"/>
      </g>
      <g id="Grupo_54444" data-name="Grupo 54444" transform="translate(19.449)">
        <path id="Trazado_116775" data-name="Trazado 116775" d="M697.284,1426.971s7.588,5.47,6.271,9.144c0,0-8.3-3.582-9.306-6.4s.17-4.068.17-4.068Z" transform="translate(-661.237 -1339.029)" fill="#7d6eb2"/>
        <path id="Trazado_116776" data-name="Trazado 116776" d="M703.336,1398.686l-1.241,3.587a1.247,1.247,0,0,0,.484,1.464,3.256,3.256,0,0,0,1.027.4,1.453,1.453,0,0,0,1.606-.729l1.484-2.795Z" transform="translate(-668.429 -1315.328)" fill="url(#linear-gradient-16)"/>
        <path id="Trazado_116777" data-name="Trazado 116777" d="M588.782,1131.394s15.586,2.7,22.272,8.877-6.137,25.878-6.137,25.878a7.986,7.986,0,0,1-4.647-2.2s7.6-14.817,1.05-19.138a42.2,42.2,0,0,0-15.856-5.952l3.166-6.994Z" transform="translate(-565.951 -1080.322)" fill="#00223d"/>
        <path id="Trazado_116778" data-name="Trazado 116778" d="M694.1,1464.642c-1.669-.772-6.394-4.08-7.191-4.226s-2.178.79-2.178.79a2.153,2.153,0,0,0,.023,1.658,14.917,14.917,0,0,0,6.882,4.854,5.768,5.768,0,0,0,5.2-.718A7.04,7.04,0,0,0,694.1,1464.642Z" transform="translate(-653.097 -1369.588)" fill="#7d6eb2"/>
        <path id="Trazado_116779" data-name="Trazado 116779" d="M692.84,1485.655a14.918,14.918,0,0,1-6.882-4.854,6.706,6.706,0,0,0,2,2.706c2.968,2.668,8.637,3.629,9.844,3.444.967-.148.876-1.041.238-2.014A5.768,5.768,0,0,1,692.84,1485.655Z" transform="translate(-654.304 -1387.524)" fill="#00223d"/>
        <path id="Trazado_116780" data-name="Trazado 116780" d="M674.048,1437.977a12.826,12.826,0,0,0,1.508,2.922,1.433,1.433,0,0,0,1.213.679,3.693,3.693,0,0,0,1-.121.929.929,0,0,0,.624-1.156l-1.073-3.665Z" transform="translate(-643.833 -1348.693)" fill="url(#linear-gradient-16)"/>
        <path id="Trazado_116781" data-name="Trazado 116781" d="M477.517,1092.662s-3.461,9.255,0,12.07,11.719,5.984,13.564,11.59,4.975,16.5,9.164,20.36c0,0,2.943-.285,4.045-1.458,0,0-2.386-16.265-3.959-20.439-1.363-3.614-3.37-8.831-7.218-11.747-1.1-.834-.91-2.157-.4-3.441l.93-2.339Z" transform="translate(-469.689 -1046.269)" fill="#00223d"/>
        <path id="Trazado_116782" data-name="Trazado 116782" d="M695.147,964.978c-5.8.35-4-8.922-3.891-9.291l-8.809,6.222s.466,4.958,7.79,7.56a9.1,9.1,0,0,0,5.044.365A8.015,8.015,0,0,1,695.147,964.978Z" transform="translate(-651.218 -925.839)" fill="url(#linear-gradient-18)"/>
        <path id="Trazado_116783" data-name="Trazado 116783" d="M796.53,1004.635c-2.163-1.5-4.613,0-4.613,0-2.892,1.891-5.031,2.7-6.609,2.791a8.013,8.013,0,0,0,.134,4.856,12.468,12.468,0,0,0,6.564-4.244,1.046,1.046,0,0,1,1.448-.158c.45.355.888.842.809,1.355-.156,1.011,1.016,1.332,1.1.966a15.1,15.1,0,0,0-.4-2.539s2.346,2.359,3.261,3.265a1.6,1.6,0,0,0,2.067,0S798.692,1006.14,796.53,1004.635Z" transform="translate(-741.378 -968.287)" fill="url(#linear-gradient-19)"/>
        <path id="Trazado_116784" data-name="Trazado 116784" d="M494.786,834.252s8.444-3.381,24.157,9.592a5.906,5.906,0,0,1-.119,5.135c-1.432,2.418-15.075,14.2-16.95,20.735,0,0-8.128,2.641-16.534-3.622C485.34,866.093,486.082,847.908,494.786,834.252Z" transform="translate(-477.919 -818.724)" fill="#7d6eb2"/>
        <path id="Trazado_116785" data-name="Trazado 116785" d="M669.159,803.527l-4.633,6.082a1.655,1.655,0,0,0-.218,1.779,4.725,4.725,0,0,0,4.982,2.653,2.551,2.551,0,0,0,2.1-1.431l2.906-6.008Z" transform="translate(-635.124 -792.059)" fill="url(#linear-gradient-20)"/>
        <path id="Trazado_116786" data-name="Trazado 116786" d="M434.235,858.722c-.98-3.992,8.948-12.892,8.948-12.892l-2.411-8.689S419.334,851.413,424.8,862.89a8.358,8.358,0,0,0,3.029,3.568C429.553,861.812,432.3,859.681,434.235,858.722Z" transform="translate(-423.906 -821.613)" fill="#7d6eb2"/>
        <path id="Trazado_116787" data-name="Trazado 116787" d="M507.175,913.743a.235.235,0,0,1-.228-.179c-1-4.081,8.61-12.755,9.02-13.122a.235.235,0,0,1,.313.349c-.1.088-9.813,8.851-8.877,12.661a.235.235,0,0,1-.228.291Z" transform="translate(-496.852 -877.215)" fill="#00223d"/>
        <path id="Trazado_116788" data-name="Trazado 116788" d="M477.812,1011.6s-11.772,4.57-14.645,1.133a1.928,1.928,0,0,1-.393-.789c-1.931.959-4.682,3.09-6.409,7.737,6.191,3.956,16.773-2.2,19.635-4.016a2.136,2.136,0,0,1,1.581-.29,14.594,14.594,0,0,0,4.038.407c1.5-.232,3.665,5.075,6.1,3.438C487.723,1019.214,485.635,1009.991,477.812,1011.6Z" transform="translate(-452.444 -974.829)" fill="url(#linear-gradient-21)"/>
        <g id="Grupo_54443" data-name="Grupo 54443" transform="translate(30.706)">
          <path id="Trazado_116789" data-name="Trazado 116789" d="M719.544,741.884c.042.162-.974,11.177-.974,11.177l-6.277-.714-.588-10.583S718.844,739.172,719.544,741.884Z" transform="translate(-707.647 -736.774)" fill="url(#linear-gradient-22)"/>
          <path id="Trazado_116790" data-name="Trazado 116790" d="M683.8,715.769l-.127,5.6a.773.773,0,0,0,.024.211c.109.425.592,1.862,2.032,1.278a7.031,7.031,0,0,1,3.388-.826.781.781,0,0,1,.633.84,33.771,33.771,0,0,1-.859,5.175.78.78,0,0,1-.891.562,25.193,25.193,0,0,1-5.641-1.617.782.782,0,0,1-.456-.658c-.094-1.4-.4-5.649-.663-6.82-.251-1.1-1.691-1.617-2.311-1.791a.768.768,0,0,1-.472-.38,2.026,2.026,0,0,1,1.033-3.085.783.783,0,0,0,.382-1.06,2.03,2.03,0,0,1,.825-2.914,2.864,2.864,0,0,1,3.487.446.782.782,0,0,0,1,.008.619.619,0,0,1,.7-.053.77.77,0,0,0,1.048-.447,2.335,2.335,0,0,1,2.549-1.64c2.8.169,3.441,3.176,2.912,5.038s-3.55,1.506-5.127.77c-1.2-.56-2.578.316-3.171.768A.775.775,0,0,0,683.8,715.769Z" transform="translate(-678.11 -708.585)" fill="url(#linear-gradient-23)"/>
          <path id="Trazado_116791" data-name="Trazado 116791" d="M682.824,785.483s.782-3.284-.463-3.93-2.917-.056-2.288,2.191C680.857,786.54,682.824,785.483,682.824,785.483Z" transform="translate(-679.716 -772.522)" fill="url(#linear-gradient-24)"/>
        </g>
      </g>
      <g id="Grupo_54445" data-name="Grupo 54445" transform="translate(49.798 23.354)">
        <path id="Trazado_116792" data-name="Trazado 116792" d="M676.2,1071.29h.057l24.7-.027a1.106,1.106,0,1,0,0-2.211l-24.7.027a1.106,1.106,0,0,0-.054,2.21Z" transform="translate(-675.152 -1048.866)" fill="#00223d"/>
        <path id="Trazado_116793" data-name="Trazado 116793" d="M827.858,901.925H807.289a3.92,3.92,0,0,0-3.546,2.248l-9.509,20.163H819.8a2.383,2.383,0,0,0,2.216-1.507l7.374-18.658A1.643,1.643,0,0,0,827.858,901.925Z" transform="translate(-779.85 -901.925)" fill="#00223d"/>
      </g>
      <g id="Grupo_54447" data-name="Grupo 54447" transform="translate(0 45.543)">
        <g id="Grupo_54446" data-name="Grupo 54446" transform="translate(1.533 2.209)">
          <path id="Trazado_116794" data-name="Trazado 116794" d="M878.991,1154.917a1.065,1.065,0,0,0,.41-.082.993.993,0,0,0,.543-1.32l-21.767-48.989a1.051,1.051,0,0,0-1.363-.526.993.993,0,0,0-.543,1.32l21.767,48.989A1.04,1.04,0,0,0,878.991,1154.917Z" transform="translate(-786.054 -1103.918)" fill="#167377"/>
          <path id="Trazado_116795" data-name="Trazado 116795" d="M834.428,1154.915a1.04,1.04,0,0,0,.954-.608l21.767-48.989a.993.993,0,0,0-.543-1.32,1.051,1.051,0,0,0-1.364.526l-21.767,48.988a.993.993,0,0,0,.543,1.32A1.064,1.064,0,0,0,834.428,1154.915Z" transform="translate(-766.013 -1103.916)" fill="#167377"/>
          <path id="Trazado_116796" data-name="Trazado 116796" d="M321.186,1154.917a1.064,1.064,0,0,0,.41-.082.993.993,0,0,0,.543-1.32l-21.767-48.989a1.051,1.051,0,0,0-1.364-.526.993.993,0,0,0-.543,1.32l21.767,48.989A1.04,1.04,0,0,0,321.186,1154.917Z" transform="translate(-295.627 -1103.918)" fill="#167377"/>
          <path id="Trazado_116797" data-name="Trazado 116797" d="M276.624,1154.915a1.04,1.04,0,0,0,.954-.608l21.767-48.989a.993.993,0,0,0-.543-1.32,1.051,1.051,0,0,0-1.364.526l-21.767,48.988a.993.993,0,0,0,.543,1.32A1.064,1.064,0,0,0,276.624,1154.915Z" transform="translate(-275.587 -1103.916)" fill="#167377"/>
        </g>
        <path id="Trazado_116798" data-name="Trazado 116798" d="M262.91,1086.932a1.194,1.194,0,0,1,.206-.906.943.943,0,0,1,.755-.4H362.9a1.1,1.1,0,0,1,.95.582,1.393,1.393,0,0,1,.074,1.209l-1.073,2.6a1.5,1.5,0,0,1-1.364.977H264.551a1.179,1.179,0,0,1-1.117-1.032Z" transform="translate(-262.892 -1085.627)" fill="#167377"/>
      </g>
    </g>
    <g id="Grupo_54453" data-name="Grupo 54453" transform="translate(367.943 205.068)">
      <path id="Trazado_116799" data-name="Trazado 116799" d="M1593.551,1473.515s.257,1.455.383,2.895a.992.992,0,0,1-.949,1.075c-1.918.08-6.02.235-7.492.169a.323.323,0,0,1-.284-.442h0a.723.723,0,0,1,.37-.389l6.777-3.115Z" transform="translate(-1570.948 -1403.79)" fill="#fff"/>
      <path id="Trazado_116800" data-name="Trazado 116800" d="M1640.142,1464.482l-.207,1.74a2.159,2.159,0,0,1-2-.07l.491-1.939Z" transform="translate(-1617.329 -1395.611)" fill="url(#linear-gradient-25)"/>
      <path id="Trazado_116801" data-name="Trazado 116801" d="M1641.025,1195.583c.089.455.479,22.678-1.9,32.637a.338.338,0,0,0,.2.393,5.879,5.879,0,0,0,1.935.393.582.582,0,0,0,.578-.418c.679-2.31,3.933-13.887,4.357-24.947.474-12.358,0-.421,0-.421l-.278-7.638Z" transform="translate(-1618.368 -1159.429)" fill="#3c4973"/>
      <path id="Trazado_116802" data-name="Trazado 116802" d="M1699.188,1479.8a10.462,10.462,0,0,1,.805,2.686.605.605,0,0,1-.533.725c-.633.062-1.608.143-2.389.137a.6.6,0,0,1-.6-.673,5.09,5.09,0,0,1,1.189-2.792Z" transform="translate(-1668.79 -1409.314)" fill="#fff"/>
      <path id="Trazado_116803" data-name="Trazado 116803" d="M1708.1,1460.523l-.483,2.632a1.7,1.7,0,0,1-1.421.1l.23-2.831Z" transform="translate(-1677.341 -1392.277)" fill="url(#linear-gradient-26)"/>
      <path id="Trazado_116804" data-name="Trazado 116804" d="M1662.874,1192.283c1.943,11.725-.421,28.98-1.219,32.357a.527.527,0,0,1-.426.4,3.538,3.538,0,0,1-1.52-.061.484.484,0,0,1-.347-.444c-.107-2.73.086-19.492-1.724-26.116a1.506,1.506,0,0,0-.581-.83l-3.514-2.5-.269-4.038Z" transform="translate(-1630.813 -1155.447)" fill="#3c4973"/>
      <g id="Grupo_54449" data-name="Grupo 54449" transform="translate(2.482 5.141)">
        <path id="Trazado_116805" data-name="Trazado 116805" d="M1569.075,1010.38a54.73,54.73,0,0,1,12.246,1.529c1.736,10.127.3,21.807.3,21.807-4.507,1.182-9.592-.723-9.592-.723-.749-4.233-4.244-16.145-4.244-16.145a19.176,19.176,0,0,1-7.118-2.259,12.49,12.49,0,0,0,2.467-5.161A19.53,19.53,0,0,0,1569.075,1010.38Z" transform="translate(-1551.877 -1000.901)" fill="#fff"/>
        <path id="Trazado_116806" data-name="Trazado 116806" d="M1487.873,939.742a3.082,3.082,0,0,1,1.124-.9c.857,3.619,5.521,7.092,10.137,8.526a12.489,12.489,0,0,1-2.468,5.161C1489.007,948.221,1487.873,939.742,1487.873,939.742Z" transform="translate(-1487.873 -938.84)" fill="url(#linear-gradient-27)"/>
      </g>
      <g id="Grupo_54450" data-name="Grupo 54450" transform="translate(0 0)">
        <path id="Trazado_116807" data-name="Trazado 116807" d="M1469.945,902.5c-.06.19.633.48,1.041-.3a7.331,7.331,0,0,0,.018-2.274,29.742,29.742,0,0,0-3.488-3.646.547.547,0,0,0-.068.761l1.116,1.163a5.4,5.4,0,0,0-.652,1.288,1.565,1.565,0,0,0,.156,1.151c.2.353.463.812.716,1.171A1.545,1.545,0,0,0,1469.945,902.5Z" transform="translate(-1467.324 -896.278)" fill="url(#linear-gradient-28)"/>
        <path id="Trazado_116808" data-name="Trazado 116808" d="M1480,918.449l1.017.862.32.859-.907,1.006a11.683,11.683,0,0,0-.531-2.072C1479.668,918.735,1479.786,918.557,1480,918.449Z" transform="translate(-1478.268 -915.771)" fill="url(#linear-gradient-29)"/>
      </g>
      <path id="Trazado_116809" data-name="Trazado 116809" d="M1713.149,1035.6l2.233-5.638s5.438,3.7,6.333,8.38a12.868,12.868,0,0,0-4.728,1.267C1716.585,1037.4,1713.149,1035.6,1713.149,1035.6Z" transform="translate(-1683.455 -1013.816)" fill="#fff"/>
      <path id="Trazado_116810" data-name="Trazado 116810" d="M1667.923,1101.9s6.106,3.451,8.166.5a2.316,2.316,0,0,0,.425-1.8,12.87,12.87,0,0,1,4.728-1.267,6.464,6.464,0,0,1-.7,4.433c-3.609,6.6-13.424-.365-13.424-.365Z" transform="translate(-1642.982 -1074.813)" fill="url(#linear-gradient-30)"/>
      <g id="Grupo_54451" data-name="Grupo 54451" transform="translate(10.421 17.722)">
        <path id="Trazado_116811" data-name="Trazado 116811" d="M1568.85,1064.952l-3.333-11.637a.339.339,0,0,0-.287-.244c-.6-.071-2.353-.268-4.373-.439a49.628,49.628,0,0,0-6.947-.231.341.341,0,0,0-.279.49c.96,1.943,4.91,9.844,6.887,12.433a.342.342,0,0,0,.275.135l7.732-.072A.341.341,0,0,0,1568.85,1064.952Z" transform="translate(-1553.597 -1051.218)" fill="#00223d"/>
        <path id="Trazado_116812" data-name="Trazado 116812" d="M1591.791,1043.395l-2.416-.4a.174.174,0,0,0-.193.226l.239.725a.173.173,0,0,0,.142.118l2.325.31a.173.173,0,0,0,.192-.211l-.148-.633A.174.174,0,0,0,1591.791,1043.395Z" transform="translate(-1584.875 -1042.99)" fill="#00223d"/>
        <path id="Trazado_116813" data-name="Trazado 116813" d="M1585.4,1050.709l-.2-1.037a.239.239,0,0,0-.211-.193l-4.88-.5a.24.24,0,0,0-.258.294l.311,1.292a.24.24,0,0,0,.221.183l4.769.24A.24.24,0,0,0,1585.4,1050.709Z" transform="translate(-1576.673 -1048.259)" fill="#aee6e6"/>
        <path id="Trazado_116814" data-name="Trazado 116814" d="M1643.238,1104.539a8.478,8.478,0,0,0,.277-2.586c-.187-.677-.55-1.548-1.759-1.354a17.7,17.7,0,0,0-2.636.7.692.692,0,0,0,.991.6l-.57.441s.081.706.858.329l-.53.585a.618.618,0,0,0,.9.208C1641.345,1103.09,1641.619,1104.769,1643.238,1104.539Z" transform="translate(-1628.789 -1093.616)" fill="url(#linear-gradient-31)"/>
      </g>
      <path id="Trazado_116815" data-name="Trazado 116815" d="M1651.629,978.175l1.853,5.358a.193.193,0,0,1-.088.233,4.355,4.355,0,0,1-4.517-.3.909.909,0,0,1-.419-.649l-.6-4.637Z" transform="translate(-1626.051 -968.282)" fill="url(#linear-gradient-32)"/>
      <g id="Grupo_54452" data-name="Grupo 54452" transform="translate(19.75 2.147)">
        <path id="Trazado_116816" data-name="Trazado 116816" d="M1632.627,937.1s-2.034,3.829-1.773,5.376,2.782,1.436,4.984.179l1.538-4.135Z" transform="translate(-1630.83 -934.319)" fill="url(#linear-gradient-33)"/>
        <path id="Trazado_116817" data-name="Trazado 116817" d="M1641.236,920.361a.158.158,0,0,1-.069-.231,4.124,4.124,0,0,0,.566-1.2s.365-.234-.931-.545-3.23-.792-3.636-1.9c-.4-1.076.645-3.782,2.305-1.626a.158.158,0,0,0,.25,0,1.627,1.627,0,0,1,1.982-.644,1.493,1.493,0,0,1,1.022,1.442.157.157,0,0,0,.186.161,1.82,1.82,0,0,1,2.125.991,1.464,1.464,0,0,1-.1,1.757.157.157,0,0,0,.067.261.947.947,0,0,1,.668,1.081c-.055,1-1.174.913-1.493.867a.158.158,0,0,0-.14.05,5.379,5.379,0,0,1-2.836,1.741.159.159,0,0,1-.167-.21l.577-1.676a.159.159,0,0,0-.086-.2Z" transform="translate(-1636.327 -914.052)" fill="#3c4973"/>
        <path id="Trazado_116818" data-name="Trazado 116818" d="M1666.291,964.674s1.448-.994,1.554-.157-1.3,1.212-2,.9Z" transform="translate(-1661.613 -958.127)" fill="url(#linear-gradient-34)"/>
      </g>
    </g>
    <g id="Grupo_54462" data-name="Grupo 54462" transform="translate(319.396 236.094)">
      <g id="Grupo_54457" data-name="Grupo 54457" transform="translate(0 6.093)">
        <g id="Grupo_54454" data-name="Grupo 54454">
          <path id="Trazado_116819" data-name="Trazado 116819" d="M1082.925,1415.016a.249.249,0,0,1-.213-.12c-.175-.286-.343-.581-.5-.877a.249.249,0,1,1,.439-.234c.153.287.316.573.486.852a.249.249,0,0,1-.083.342A.246.246,0,0,1,1082.925,1415.016Z" transform="translate(-1080.156 -1388.278)" fill="#00223d"/>
          <path id="Trazado_116820" data-name="Trazado 116820" d="M1066.426,1226.413a.249.249,0,0,1-.238-.176,17.779,17.779,0,0,1-.45-1.8l-.037-.195a.249.249,0,1,1,.49-.089l.036.188a17.306,17.306,0,0,0,.438,1.75.249.249,0,0,1-.165.311A.253.253,0,0,1,1066.426,1226.413Zm-.766-5.24h0a.249.249,0,0,1-.247-.251,17.5,17.5,0,0,1,.138-2.05.249.249,0,0,1,.494.063,16.981,16.981,0,0,0-.134,1.991A.249.249,0,0,1,1065.66,1221.172Zm.861-5.226a.249.249,0,0,1-.237-.327,17.567,17.567,0,0,1,.756-1.909.249.249,0,0,1,.451.21,17.079,17.079,0,0,0-.734,1.855A.249.249,0,0,1,1066.521,1215.947Zm2.407-4.717a.249.249,0,0,1-.2-.395,17.728,17.728,0,0,1,1.3-1.591.249.249,0,0,1,.367.336,17.13,17.13,0,0,0-1.26,1.546A.249.249,0,0,1,1068.928,1211.23Zm3.719-3.768a.249.249,0,0,1-.149-.449,17.555,17.555,0,0,1,1.717-1.123.249.249,0,0,1,.247.432,17.049,17.049,0,0,0-1.668,1.091A.248.248,0,0,1,1072.646,1207.462Zm4.687-2.459a.249.249,0,0,1-.08-.485,17.7,17.7,0,0,1,1.978-.547.249.249,0,0,1,.1.487,17.122,17.122,0,0,0-1.923.532A.251.251,0,0,1,1077.333,1205Zm7.237-.852h-.024a17.2,17.2,0,0,0-1.994-.073.244.244,0,0,1-.254-.243.249.249,0,0,1,.243-.254,17.279,17.279,0,0,1,2.052.075.249.249,0,0,1-.024.5Z" transform="translate(-1065.411 -1203.575)" fill="#00223d"/>
          <path id="Trazado_116821" data-name="Trazado 116821" d="M1249.956,1210.238a.249.249,0,0,1-.084-.015c-.305-.11-.619-.213-.931-.306a.249.249,0,1,1,.141-.477c.322.1.645.2.959.315a.249.249,0,0,1-.084.483Z" transform="translate(-1226.615 -1208.723)" fill="#00223d"/>
        </g>
        <g id="Grupo_54455" data-name="Grupo 54455" transform="translate(10.677 9.555)">
          <path id="Trazado_116822" data-name="Trazado 116822" d="M1336.812,1284.076a.249.249,0,0,1-.229-.151c-.128-.3-.266-.6-.411-.89a.249.249,0,0,1,.445-.222c.15.3.292.609.424.916a.249.249,0,0,1-.131.327A.242.242,0,0,1,1336.812,1284.076Z" transform="translate(-1314.12 -1282.676)" fill="url(#linear-gradient-35)"/>
          <path id="Trazado_116823" data-name="Trazado 116823" d="M1189.812,1337.114h-.007a17.473,17.473,0,0,1-2.013-.176.249.249,0,0,1,.072-.492,16.968,16.968,0,0,0,1.955.171.249.249,0,0,1-.007.5Zm3.226-.209a.249.249,0,0,1-.039-.495q.294-.047.589-.1c.447-.087.894-.193,1.329-.315a.249.249,0,0,1,.134.48c-.448.125-.908.234-1.367.323q-.3.059-.606.107A.27.27,0,0,1,1193.037,1336.9Zm4.964-1.581a.249.249,0,0,1-.111-.472,16.919,16.919,0,0,0,1.7-.972.249.249,0,0,1,.271.417,17.4,17.4,0,0,1-1.755,1A.247.247,0,0,1,1198,1335.323Zm4.261-2.994a.249.249,0,0,1-.172-.428,17.16,17.16,0,0,0,1.335-1.437.249.249,0,0,1,.384.318,17.617,17.617,0,0,1-1.375,1.479A.247.247,0,0,1,1202.262,1332.329Zm3.174-4.13a.249.249,0,0,1-.218-.369,17.128,17.128,0,0,0,.849-1.77.249.249,0,1,1,.46.189,17.577,17.577,0,0,1-.873,1.821A.25.25,0,0,1,1205.437,1328.2Zm1.8-4.888a.249.249,0,0,1-.244-.3,16.89,16.89,0,0,0,.28-1.943.249.249,0,0,1,.5.042,17.367,17.367,0,0,1-.289,2A.249.249,0,0,1,1207.24,1323.311Zm.255-5.2a.249.249,0,0,1-.247-.223c-.053-.51-.129-1.024-.228-1.528q-.04-.206-.085-.41a.249.249,0,0,1,.486-.107q.046.209.087.421c.1.519.18,1.048.235,1.573a.249.249,0,0,1-.222.273Z" transform="translate(-1183.499 -1311.661)" fill="url(#linear-gradient-35)"/>
          <path id="Trazado_116824" data-name="Trazado 116824" d="M1154.98,1479.378a.244.244,0,0,1-.082-.014c-.315-.11-.633-.23-.943-.358a.249.249,0,1,1,.19-.46c.3.125.61.242.916.348a.249.249,0,0,1-.082.484Z" transform="translate(-1153.802 -1454.87)" fill="url(#linear-gradient-35)"/>
        </g>
        <g id="Grupo_54456" data-name="Grupo 54456" transform="translate(4.134 4.024)">
          <path id="Trazado_116825" data-name="Trazado 116825" d="M1106.448,1261.9a.208.208,0,0,0,.24,0l2.06-1.453a10.977,10.977,0,0,0,3.462.818l1.192,2.219a.207.207,0,0,0,.216.106l2.985-.484a.207.207,0,0,0,.171-.169l.429-2.482a10.979,10.979,0,0,0,3.026-1.871l2.413.727a.207.207,0,0,0,.228-.077l1.768-2.453a.207.207,0,0,0,0-.24l-1.453-2.06a10.982,10.982,0,0,0,.818-3.462l2.219-1.192a.207.207,0,0,0,.106-.216l-.484-2.985a.207.207,0,0,0-.169-.171l-2.482-.429a10.979,10.979,0,0,0-1.872-3.025l.727-2.414a.207.207,0,0,0-.077-.228l-2.453-1.768a.207.207,0,0,0-.24,0l-2.06,1.453a10.973,10.973,0,0,0-3.462-.818l-1.192-2.219a.207.207,0,0,0-.216-.106l-2.984.484a.207.207,0,0,0-.171.169l-.429,2.482a10.986,10.986,0,0,0-3.025,1.872l-2.413-.727a.207.207,0,0,0-.228.077l-1.768,2.453a.207.207,0,0,0,0,.24l1.453,2.06a10.984,10.984,0,0,0-.818,3.462l-2.219,1.192a.207.207,0,0,0-.106.216l.484,2.984a.207.207,0,0,0,.169.171l2.482.429a10.978,10.978,0,0,0,1.871,3.025l-.726,2.414a.207.207,0,0,0,.077.228Z" transform="translate(-1099.635 -1236.893)" fill="#00223d"/>
          <path id="Trazado_116826" data-name="Trazado 116826" d="M1187.875,1328.206a3.064,3.064,0,1,1,1.213-.253h0A3.057,3.057,0,0,1,1187.875,1328.206Zm0-5.371a2.311,2.311,0,1,0,.921,4.433h0a2.311,2.311,0,0,0-.921-4.433Z" transform="translate(-1174.525 -1311.798)" fill="url(#linear-gradient-3)"/>
          <path id="Trazado_116827" data-name="Trazado 116827" d="M1154.576,1298.783h-.133l-.171,0h-.011l-.076,0,.038-.746a6.975,6.975,0,0,0,1.472-.081,6.874,6.874,0,0,0,4.295-2.506q.109-.137.212-.28a6.87,6.87,0,0,0,1.308-4.033,7.009,7.009,0,0,0-.091-1.123,6.923,6.923,0,0,0-13.757,1.095,7.021,7.021,0,0,0,.091,1.123,6.91,6.91,0,0,0,1.537,3.351l-.57.482a7.66,7.66,0,0,1-1.7-3.713,7.778,7.778,0,0,1-.1-1.245,7.67,7.67,0,0,1,15.24-1.213,7.75,7.75,0,0,1,.1,1.245,7.673,7.673,0,0,1-6.442,7.554h0l-.137.021A7.723,7.723,0,0,1,1154.576,1298.783Z" transform="translate(-1141.205 -1277.82)" fill="url(#linear-gradient-3)"/>
        </g>
      </g>
      <g id="Grupo_54461" data-name="Grupo 54461" transform="translate(28.282 0)">
        <g id="Grupo_54458" data-name="Grupo 54458">
          <path id="Trazado_116828" data-name="Trazado 116828" d="M1308.147,1270.01a.248.248,0,0,1-.213-.119,10,10,0,0,1-.486-.9.249.249,0,1,1,.449-.214,9.6,9.6,0,0,0,.461.853.249.249,0,0,1-.212.378Z" transform="translate(-1306.473 -1254.686)" fill="#00223d"/>
          <path id="Trazado_116829" data-name="Trazado 116829" d="M1299.9,1164.766a.249.249,0,0,1-.246-.213,10.077,10.077,0,0,1-.1-1.434q0-.214.009-.426a.251.251,0,0,1,.259-.238.249.249,0,0,1,.238.259q-.009.2-.009.4a9.526,9.526,0,0,0,.1,1.363.249.249,0,0,1-.211.282Zm.479-4.7a.245.245,0,0,1-.085-.015.249.249,0,0,1-.149-.319,10.1,10.1,0,0,1,.793-1.684.249.249,0,1,1,.429.253,9.575,9.575,0,0,0-.754,1.6A.249.249,0,0,1,1300.375,1160.065Zm2.632-3.925a.249.249,0,0,1-.167-.433,10.011,10.011,0,0,1,1.49-1.116.249.249,0,0,1,.26.424,9.523,9.523,0,0,0-1.415,1.061A.248.248,0,0,1,1303.006,1156.14Zm4.165-2.228a.249.249,0,0,1-.06-.49q.261-.066.529-.118a10.105,10.105,0,0,1,1.31-.168.249.249,0,0,1,.031.5,9.665,9.665,0,0,0-1.246.159q-.254.05-.5.113A.261.261,0,0,1,1307.171,1153.912Z" transform="translate(-1299.546 -1153.136)" fill="#00223d"/>
          <path id="Trazado_116830" data-name="Trazado 116830" d="M1401.026,1156.138a.249.249,0,0,1-.084-.015,9.539,9.539,0,0,0-.927-.281.249.249,0,0,1,.12-.483,10.069,10.069,0,0,1,.976.3.249.249,0,0,1-.084.483Z" transform="translate(-1387.713 -1155.084)" fill="#00223d"/>
        </g>
        <g id="Grupo_54459" data-name="Grupo 54459" transform="translate(6.041 5.387)">
          <path id="Trazado_116831" data-name="Trazado 116831" d="M1453.363,1199.14a.249.249,0,0,1-.233-.162,9.432,9.432,0,0,0-.387-.888.249.249,0,1,1,.446-.222,9.966,9.966,0,0,1,.407.936.249.249,0,0,1-.233.336Z" transform="translate(-1440.255 -1197.73)" fill="#00223d"/>
          <path id="Trazado_116832" data-name="Trazado 116832" d="M1381.356,1239.6a.249.249,0,0,1,0-.5,9.6,9.6,0,0,0,1.731-.176.249.249,0,1,1,.1.488,10.106,10.106,0,0,1-1.821.186Zm4.5-1.146a.249.249,0,0,1-.117-.469,9.5,9.5,0,0,0,1.453-.955.249.249,0,0,1,.31.389,9.943,9.943,0,0,1-1.53,1.005A.246.246,0,0,1,1385.86,1238.452Zm3.46-3.1a.249.249,0,0,1-.205-.389,9.568,9.568,0,0,0,.849-1.519.249.249,0,0,1,.455.2,10.1,10.1,0,0,1-.893,1.6A.248.248,0,0,1,1389.32,1235.352Zm1.642-4.348-.03,0a.249.249,0,0,1-.217-.277,9.479,9.479,0,0,0,.068-1.129c0-.2-.007-.408-.02-.61a.249.249,0,1,1,.5-.032c.014.212.021.428.021.642a9.97,9.97,0,0,1-.071,1.189A.249.249,0,0,1,1390.962,1231Z" transform="translate(-1377.296 -1224.978)" fill="#00223d"/>
          <path id="Trazado_116833" data-name="Trazado 116833" d="M1350.741,1309.365a.241.241,0,0,1-.071-.01,9.939,9.939,0,0,1-.961-.341.249.249,0,1,1,.19-.46,9.465,9.465,0,0,0,.913.324.249.249,0,0,1-.071.487Z" transform="translate(-1349.555 -1295.15)" fill="#00223d"/>
        </g>
        <g id="Grupo_54460" data-name="Grupo 54460" transform="translate(2.447 2.366)">
          <path id="Trazado_116834" data-name="Trazado 116834" d="M1323.659,1186.869a.117.117,0,0,0,.136,0l1.166-.822a6.212,6.212,0,0,0,1.958.463l.674,1.255a.117.117,0,0,0,.122.06l1.688-.274a.118.118,0,0,0,.1-.1l.243-1.4a6.209,6.209,0,0,0,1.712-1.059l1.365.411a.117.117,0,0,0,.129-.044l1-1.388a.118.118,0,0,0,0-.136l-.822-1.165a6.215,6.215,0,0,0,.463-1.959l1.255-.675a.117.117,0,0,0,.06-.122l-.274-1.688a.117.117,0,0,0-.1-.1l-1.4-.243a6.209,6.209,0,0,0-1.059-1.712l.411-1.365a.117.117,0,0,0-.044-.129l-1.388-1a.117.117,0,0,0-.136,0l-1.166.822a6.218,6.218,0,0,0-1.959-.463l-.674-1.255a.117.117,0,0,0-.122-.06l-1.688.274a.118.118,0,0,0-.1.1l-.243,1.4a6.216,6.216,0,0,0-1.712,1.059l-1.365-.411a.116.116,0,0,0-.129.044l-1,1.388a.118.118,0,0,0,0,.136l.822,1.165a6.216,6.216,0,0,0-.463,1.959l-1.255.675a.117.117,0,0,0-.06.122l.274,1.688a.117.117,0,0,0,.1.1l1.4.243a6.215,6.215,0,0,0,1.059,1.712l-.411,1.365a.117.117,0,0,0,.044.129Z" transform="translate(-1319.805 -1172.724)" fill="#00223d"/>
          <path id="Trazado_116835" data-name="Trazado 116835" d="M1368.556,1223.365a1.892,1.892,0,1,1,.748-.156h0A1.881,1.881,0,0,1,1368.556,1223.365Zm.6-.5h0Zm-.6-2.54a1.146,1.146,0,1,0,.455,2.2h0a1.146,1.146,0,0,0-.455-2.2Z" transform="translate(-1361.001 -1213.921)" fill="url(#linear-gradient-3)"/>
          <path id="Trazado_116836" data-name="Trazado 116836" d="M1349.712,1206.727c-.076,0-.153,0-.229-.006l.039-.746a3.81,3.81,0,0,0,.8-.044h0a3.759,3.759,0,0,0,3.137-4.051q-.012-.128-.033-.257a3.754,3.754,0,0,0-7.46.6,3.811,3.811,0,0,0,.049.6,3.746,3.746,0,0,0,.834,1.817l-.57.482a4.5,4.5,0,1,1,4.163,1.542l-.011,0c-.148.024-.3.04-.447.049l-.062,0h-.007C1349.845,1206.725,1349.779,1206.727,1349.712,1206.727Z" transform="translate(-1342.147 -1194.705)" fill="url(#linear-gradient-3)"/>
        </g>
      </g>
    </g>
  </g>
</svg>
