<svg id="Grupo_46891" data-name="Grupo 46891" xmlns="http://www.w3.org/2000/svg" xmlns:xlink="http://www.w3.org/1999/xlink" width="123.833" height="123.833" viewBox="0 0 123.833 123.833">
  <defs>
    <radialGradient id="radial-gradient" cx="0.076" cy="0.019" r="1.465" gradientTransform="translate(0.001)" gradientUnits="objectBoundingBox">
      <stop offset="0" stop-color="#f6f6f7"/>
      <stop offset="0.477" stop-color="#f9f9fa"/>
      <stop offset="0.715" stop-color="#fff"/>
    </radialGradient>
  </defs>
  <g id="Grupo_42274" data-name="Grupo 42274" transform="translate(0 0)">
    <g id="Grupo_18423" data-name="Grupo 18423" transform="translate(0 0)">
      <g id="Grupo_18421" data-name="Grupo 18421">
        <g id="Grupo_18420" data-name="Grupo 18420">
          <g id="Grupo_18419" data-name="Grupo 18419">
            <path id="Trazado_40936" data-name="Trazado 40936" d="M318.456,2207.635a61.916,61.916,0,1,1-61.915-61.915A61.915,61.915,0,0,1,318.456,2207.635Z" transform="translate(-194.623 -2145.721)" fill="#fff"/>
          </g>
        </g>
      </g>
      <path id="Trazado_40937" data-name="Trazado 40937" d="M317.728,2206.843a61.915,61.915,0,1,0-61.915,61.918A61.672,61.672,0,0,0,317.728,2206.843Z" transform="translate(-193.895 -2144.928)" fill="url(#radial-gradient)"/>
      <path id="Trazado_40938" data-name="Trazado 40938" d="M296.6,2200.4a47.26,47.26,0,1,0-47.26,47.26A47.084,47.084,0,0,0,296.6,2200.4Z" transform="translate(-187.238 -2138.278)" fill="none" stroke="#26aab7" stroke-miterlimit="10" stroke-width="4"/>
      <g id="Grupo_18422" data-name="Grupo 18422" transform="translate(10.969 34.762)">
        <path id="Trazado_40939" data-name="Trazado 40939" d="M307.148,2164.488a61.924,61.924,0,0,1-106.6,61.66,61.727,61.727,0,0,0,106.6-61.66Z" transform="translate(-200.545 -2164.488)" fill="#eceef0"/>
      </g>
    </g>
  </g>
  <g id="Grupo_47010" data-name="Grupo 47010" transform="translate(34.56 25.309)">
    <path id="Trazado_26615" data-name="Trazado 26615" d="M867.037,343.547a49.766,49.766,0,0,1-.572-9.751H852.234a49.772,49.772,0,0,1-.572,9.751c-.825,4.432-5.762,4.432-5.762,4.432l13.449,3.565,13.45-3.565S867.862,347.978,867.037,343.547Z" transform="translate(-830.062 -275.307)" fill="#ecc19c"/>
    <g id="Grupo_16163" data-name="Grupo 16163" transform="translate(22.136 57.68)">
      <path id="Trazado_26616" data-name="Trazado 26616" d="M872.071,342.235a6.736,6.736,0,0,1-6.209.972c-5.357-1.581-7.677-4.061-8.517-5.194.175-3.217.176-5.689.176-5.689l14.233.166A49.632,49.632,0,0,0,872.071,342.235Z" transform="translate(-857.345 -332.324)" fill="#cca88d"/>
    </g>
    <g id="Grupo_16164" data-name="Grupo 16164" transform="translate(5.036 33.196)">
      <path id="Trazado_26617" data-name="Trazado 26617" d="M831.56,290.09s-3.253-4.372-4.613-.956a13.057,13.057,0,0,0,1,10.479c1.486,2.266,4.46,5.886,5.4,5.954A3.477,3.477,0,0,0,836,304.352Z" transform="translate(-826.27 -287.829)" fill="#ecc19c"/>
      <path id="Trazado_26618" data-name="Trazado 26618" d="M834.207,294.978s-2.183-2.933-3.1-.642a8.761,8.761,0,0,0,.671,7.031c1,1.52,2.992,3.949,3.624,3.995a2.332,2.332,0,0,0,1.782-.815Z" transform="translate(-828.243 -290.362)" fill="#db9c94" opacity="0.6"/>
    </g>
    <g id="Grupo_16165" data-name="Grupo 16165" transform="translate(44.963 33.799)">
      <path id="Trazado_26619" data-name="Trazado 26619" d="M902.881,291.077s3-4.178,4.293-.89a12.829,12.829,0,0,1-.868,10.053c-1.37,2.166-4.118,5.623-4.995,5.683a3.24,3.24,0,0,1-2.482-1.183Z" transform="translate(-898.829 -288.925)" fill="#ecc19c"/>
      <path id="Trazado_26620" data-name="Trazado 26620" d="M902.857,295.756s2.015-2.8,2.88-.6a8.6,8.6,0,0,1-.582,6.745c-.919,1.454-2.763,3.773-3.351,3.813a2.175,2.175,0,0,1-1.665-.794Z" transform="translate(-899.418 -291.348)" fill="#db9c94" opacity="0.6"/>
    </g>
    <path id="Trazado_26621" data-name="Trazado 26621" d="M851.65,234.28c.109,0,.217,0,.326.005s.218-.005.327-.005c11.56,0,22.43,9.483,22.43,22.287s-10.87,24.079-22.43,24.079c-.109,0-.218,0-.327-.007s-.217.007-.326.007c-11.56,0-22.43-11.276-22.43-24.079S840.09,234.28,851.65,234.28Z" transform="translate(-822.56 -230.55)" fill="#333"/>
    <path id="Trazado_26622" data-name="Trazado 26622" d="M856.05,304.013c-6.156,0-13.405-5.237-16.778-10.136-1.019-1.48-1.378-9.07-1.378-14.275,0-7.485-.119-17.473,2.149-21.641,3.016-5.542,11.546-4.49,16.007-4.49h.084c4.462,0,12.991-1.052,16.007,4.49,2.269,4.169,2.15,14.157,2.15,21.641,0,5.205-.359,12.8-1.378,14.275-3.373,4.9-10.623,10.136-16.779,10.136Z" transform="translate(-826.461 -239.145)" fill="#ecc19c"/>
    <path id="Trazado_26623" data-name="Trazado 26623" d="M870.79,305.176s.121.292.315.66l.315.61.155.325a2.868,2.868,0,0,1,.126.322,1.96,1.96,0,0,1,.086.3,1.723,1.723,0,0,1,.021.277.868.868,0,0,1-.046.264.81.81,0,0,1-.1.258c-.049.075-.079.168-.13.233s-.095.127-.132.179c-.073.106-.116.178-.116.178a1.687,1.687,0,0,0,.209-.028,2.242,2.242,0,0,0,.242-.057,1.292,1.292,0,0,0,.294-.151,1.209,1.209,0,0,0,.163-.111c.049-.05.1-.106.147-.164a1.206,1.206,0,0,0,.237-.432.839.839,0,0,0,.053-.258,1.079,1.079,0,0,0,.014-.269,1.865,1.865,0,0,0-.1-.508,2.194,2.194,0,0,0-.209-.442,2.854,2.854,0,0,0-.267-.365,2.8,2.8,0,0,0-.587-.507A2.15,2.15,0,0,0,870.79,305.176Z" transform="translate(-841.256 -262.435)" fill="#db9c94" opacity="0.6"/>
    <path id="Trazado_26624" data-name="Trazado 26624" d="M860.106,243.949s-24.831,14.531-42.989,8.254c0,0,6.193-5.831,9.212-10.917,3.265-5.5,15.667-20.785,34.534-10.055l-.413-3.653s3.921,2.582,4.5,8.8c0,0,4.66.023,5.728,2.843l-3.026-.78a16.187,16.187,0,0,1,3.026,8.185c.558,9.487-2.914,15.166-2.914,15.166a17.8,17.8,0,0,1-3.2-7.956C863.545,245.394,861.8,245.473,860.106,243.949Z" transform="translate(-817.117 -227.502)" fill="#333"/>
    <g id="Grupo_16167" data-name="Grupo 16167" transform="translate(2.404 11.77)">
      <g id="Grupo_16166" data-name="Grupo 16166">
        <path id="Trazado_26625" data-name="Trazado 26625" d="M862.965,248.892s-.46.544-1.353,1.409c-.448.429-.994.953-1.654,1.513s-1.4,1.2-2.257,1.836a50.962,50.962,0,0,1-6.085,4.029c-.579.337-1.179.658-1.793.972s-1.241.623-1.876.927-1.289.587-1.946.865c-.665.259-1.324.542-2,.784s-1.351.485-2.037.693c-.679.226-1.366.419-2.052.6-.681.2-1.367.347-2.047.489-.675.158-1.355.266-2.021.377a36.139,36.139,0,0,1-3.868.411c-.616.046-1.22.041-1.8.043s-1.142-.019-1.681-.053a28.3,28.3,0,0,1-2.917-.289c-.861-.136-1.6-.3-2.21-.431-1.208-.323-1.88-.536-1.88-.536s.718-.012,1.941.018l2.2-.054c.849-.063,1.8-.1,2.828-.215.516-.046,1.05-.1,1.6-.194s1.121-.136,1.7-.255c1.164-.191,2.383-.437,3.632-.731s2.532-.637,3.822-1.031l.971-.3.97-.324c.651-.2,1.292-.45,1.938-.682,1.292-.464,2.565-.983,3.815-1.507,1.244-.539,2.469-1.074,3.636-1.636s2.3-1.113,3.357-1.656,2.065-1.066,2.98-1.571c1.834-1,3.352-1.881,4.415-2.5Z" transform="translate(-821.486 -248.892)" fill="#1a1a1a"/>
      </g>
    </g>
    <g id="Grupo_16169" data-name="Grupo 16169" transform="translate(1.135 8.838)">
      <g id="Grupo_16168" data-name="Grupo 16168">
        <path id="Trazado_26626" data-name="Trazado 26626" d="M861.928,243.563s-.566.464-1.6,1.213-2.522,1.8-4.367,2.958c-.921.583-1.922,1.212-3,1.842s-2.222,1.286-3.423,1.93-2.45,1.3-3.737,1.929-2.609,1.242-3.939,1.84c-1.34.576-2.684,1.146-4.03,1.654s-2.681.986-3.993,1.4c-.656.205-1.3.41-1.942.577s-1.265.346-1.883.486a35.513,35.513,0,0,1-3.508.665,22.517,22.517,0,0,1-3.018.259,10.423,10.423,0,0,1-1.265-.012,9.278,9.278,0,0,1-1.07-.09c-.322-.042-.607-.083-.853-.123l-.618-.161-.505-.14.525-.01.62-.005c.245-.029.525-.056.835-.083a8.931,8.931,0,0,0,1.023-.147c.37-.064.769-.119,1.192-.226s.872-.184,1.34-.326.964-.241,1.473-.408,1.042-.31,1.585-.506,1.11-.363,1.684-.582,1.168-.413,1.768-.65,1.216-.459,1.836-.711c1.246-.487,2.522-1.025,3.822-1.566s2.613-1.114,3.923-1.693c5.249-2.306,10.471-4.729,14.449-6.461,1.979-.884,3.647-1.594,4.82-2.087S861.928,243.563,861.928,243.563Z" transform="translate(-819.179 -243.563)" fill="#1a1a1a"/>
      </g>
    </g>
    <g id="Grupo_16171" data-name="Grupo 16171" transform="translate(10.251 2.094)">
      <g id="Grupo_16170" data-name="Grupo 16170">
        <path id="Trazado_26627" data-name="Trazado 26627" d="M868.232,235.756l-1.511-.354L865,235.037c-.664-.138-1.417-.263-2.228-.417-.818-.13-1.7-.266-2.631-.379s-1.913-.211-2.923-.286c-1.012-.058-2.054-.106-3.108-.087a30.837,30.837,0,0,0-3.173.187c-.525.067-1.055.113-1.57.218l-.777.133-.762.171a25.524,25.524,0,0,0-2.922.861c-.465.168-.905.376-1.354.545l-1.267.607-1.169.651c-.382.209-.721.456-1.067.671s-.651.456-.953.675-.6.418-.855.635c-.5.442-.984.793-1.339,1.128-.711.667-1.152,1.041-1.152,1.041s.251-.5.751-1.376c.251-.434.61-.924,1.021-1.5.206-.286.461-.558.713-.865a9.613,9.613,0,0,1,.857-.909c.319-.3.635-.631,1-.933s.752-.6,1.156-.907c.419-.28.854-.567,1.306-.85.466-.256.944-.521,1.442-.764a19.645,19.645,0,0,1,3.2-1.185l.846-.226c.286-.064.574-.116.862-.172.576-.123,1.161-.187,1.744-.265s1.171-.09,1.753-.127c.582-.005,1.164-.027,1.737.007l.856.036.842.078c.559.044,1.1.13,1.642.21a28.816,28.816,0,0,1,3.045.661c.956.25,1.835.567,2.64.862a26.347,26.347,0,0,1,3.746,1.745A14.063,14.063,0,0,1,868.232,235.756Z" transform="translate(-835.746 -231.307)" fill="#1a1a1a"/>
      </g>
    </g>
    <g id="Grupo_16173" data-name="Grupo 16173" transform="translate(2.404 7.201)">
      <g id="Grupo_16172" data-name="Grupo 16172">
        <path id="Trazado_26628" data-name="Trazado 26628" d="M859.635,240.755l-.474.092c-.308.052-.756.165-1.325.277-.567.132-1.255.284-2.036.478s-1.658.424-2.609.681c-.477.12-.969.264-1.476.427l-1.572.465-1.643.539-.85.271-.856.31-1.754.622-1.772.7c-1.2.445-2.385.988-3.578,1.506-.3.13-.6.248-.9.386l-.874.428-1.745.835c-1.152.561-2.245,1.19-3.338,1.743-.554.265-1.053.6-1.567.888l-1.5.867c-.995.535-1.869,1.141-2.712,1.657l-1.2.753a12.139,12.139,0,0,0-1.08.693c-.657.464-1.25.85-1.735,1.174-.973.644-1.556.993-1.556.993s.425-.516,1.213-1.387c.4-.434.872-.967,1.442-1.558a27.152,27.152,0,0,1,2.015-1.875,29.951,29.951,0,0,1,2.51-2.089l1.439-1.056c.494-.358.993-.735,1.537-1.058l1.644-1.012c.561-.335,1.113-.7,1.714-.992l1.79-.92.905-.456c.3-.147.618-.275.928-.412,1.249-.526,2.484-1.082,3.756-1.49.629-.221,1.251-.442,1.874-.637l1.861-.522.908-.248.9-.2,1.748-.368c1.149-.181,2.227-.37,3.239-.454.5-.048.984-.106,1.443-.14l1.309-.057c.818-.046,1.538-.013,2.125,0A17.118,17.118,0,0,1,859.635,240.755Z" transform="translate(-821.486 -240.588)" fill="#1a1a1a"/>
      </g>
    </g>
    <g id="Grupo_16175" data-name="Grupo 16175" transform="translate(20.797 51.63)">
      <path id="Trazado_26629" data-name="Trazado 26629" d="M870.819,335.012s-.355,0-.829.021c-.238.01-.51.02-.791.038s-.579.03-.873.033-.587.013-.864,0c-.14,0-.274,0-.4-.012s-.256,0-.372-.014-.227-.009-.326-.014-.185-.015-.258-.02c-.149-.007-.24,0-.24,0a2.258,2.258,0,0,0,.161.178,2.1,2.1,0,0,0,.5.386,1.944,1.944,0,0,0,.375.193,2.5,2.5,0,0,0,.446.15,3.526,3.526,0,0,0,1.012.112,3.744,3.744,0,0,0,1.8-.506A2.335,2.335,0,0,0,870.819,335.012Z" transform="translate(-859.836 -327.483)" fill="#db9c94"/>
      <path id="Trazado_26630" data-name="Trazado 26630" d="M872.316,321.33s-6.623,2.209-17.4.146C854.911,321.476,863.046,335.1,872.316,321.33Z" transform="translate(-854.911 -321.33)" fill="#7a2742"/>
      <g id="Grupo_16174" data-name="Grupo 16174" transform="translate(0.848 0.329)">
        <path id="Trazado_26631" data-name="Trazado 26631" d="M856.452,321.929c2.013,2.241,4.461,3.3,8.557,3.326a8.883,8.883,0,0,0,6.727-3.327A42.516,42.516,0,0,1,856.452,321.929Z" transform="translate(-856.452 -321.927)" fill="#fff"/>
      </g>
    </g>
    <g id="Grupo_16177" data-name="Grupo 16177" transform="translate(11.928 28.865)">
      <path id="Trazado_26632" data-name="Trazado 26632" d="M849.421,282.74a1.708,1.708,0,0,0,1.443-.755,1.394,1.394,0,0,0-.488-1.493c-1.351-1.043-5.8-.5-8.75,1.184a11.96,11.96,0,0,0-2.832,2.939c.145-.085.228-.125.313-.166l.376-.177c.251-.117.5-.233.755-.347.5-.226,1.015-.44,1.534-.629a11.1,11.1,0,0,1,1.978-.539A34.478,34.478,0,0,1,849.421,282.74Z" transform="translate(-838.794 -279.96)"/>
      <g id="Grupo_16176" data-name="Grupo 16176" transform="translate(7.902 9.344)">
        <path id="Trazado_26633" data-name="Trazado 26633" d="M853.181,298.049a3.872,3.872,0,0,1,.025-1.1c.339,1.158,1.132,1.953,1.975,1.858.752-.079,1.307-.847,1.478-1.865a4.411,4.411,0,0,1,.141.7c.179,1.52-.5,2.84-1.495,2.955S853.351,299.57,853.181,298.049Z" transform="translate(-853.154 -296.941)"/>
      </g>
    </g>
    <g id="Grupo_16179" data-name="Grupo 16179" transform="translate(35.085 29.041)">
      <path id="Trazado_26634" data-name="Trazado 26634" d="M882.4,283.059a1.706,1.706,0,0,1-1.442-.754,1.393,1.393,0,0,1,.488-1.493c1.351-1.043,5.8-.5,8.75,1.184a11.955,11.955,0,0,1,2.832,2.939c-.145-.085-.228-.125-.313-.166l-.375-.177c-.251-.118-.5-.234-.755-.347-.5-.226-1.015-.44-1.534-.628a11.1,11.1,0,0,0-1.978-.539A34.551,34.551,0,0,0,882.4,283.059Z" transform="translate(-880.877 -280.279)"/>
      <g id="Grupo_16178" data-name="Grupo 16178" transform="translate(0.572 9.344)">
        <path id="Trazado_26635" data-name="Trazado 26635" d="M885.565,298.367a3.842,3.842,0,0,0-.026-1.1c-.338,1.158-1.131,1.953-1.974,1.858-.752-.08-1.308-.847-1.477-1.865a4.422,4.422,0,0,0-.141.7c-.179,1.52.5,2.841,1.495,2.956S885.4,299.888,885.565,298.367Z" transform="translate(-881.918 -297.259)"/>
      </g>
    </g>
  </g>
</svg>
