<svg id="Grupo_46891" data-name="Grupo 46891" xmlns="http://www.w3.org/2000/svg" xmlns:xlink="http://www.w3.org/1999/xlink" width="123.833" height="123.833" viewBox="0 0 123.833 123.833">
  <defs>
    <radialGradient id="radial-gradient" cx="0.076" cy="0.019" r="1.465" gradientTransform="translate(0.001)" gradientUnits="objectBoundingBox">
      <stop offset="0" stop-color="#f6f6f7"/>
      <stop offset="0.477" stop-color="#f9f9fa"/>
      <stop offset="0.715" stop-color="#fff"/>
    </radialGradient>
  </defs>
  <g id="Grupo_42274" data-name="Grupo 42274" transform="translate(0 0)">
    <g id="Grupo_18423" data-name="Grupo 18423" transform="translate(0 0)">
      <g id="Grupo_18421" data-name="Grupo 18421">
        <g id="Grupo_18420" data-name="Grupo 18420">
          <g id="Grupo_18419" data-name="Grupo 18419">
            <path id="Trazado_40936" data-name="Trazado 40936" d="M318.456,2207.635a61.916,61.916,0,1,1-61.915-61.915A61.915,61.915,0,0,1,318.456,2207.635Z" transform="translate(-194.623 -2145.721)" fill="#fff"/>
          </g>
        </g>
      </g>
      <path id="Trazado_40937" data-name="Trazado 40937" d="M317.728,2206.843a61.915,61.915,0,1,0-61.915,61.918A61.672,61.672,0,0,0,317.728,2206.843Z" transform="translate(-193.895 -2144.928)" fill="url(#radial-gradient)"/>
      <path id="Trazado_40938" data-name="Trazado 40938" d="M296.6,2200.4a47.26,47.26,0,1,0-47.26,47.26A47.084,47.084,0,0,0,296.6,2200.4Z" transform="translate(-187.238 -2138.278)" fill="none" stroke="#26aab7" stroke-miterlimit="10" stroke-width="4"/>
      <g id="Grupo_18422" data-name="Grupo 18422" transform="translate(10.969 34.762)">
        <path id="Trazado_40939" data-name="Trazado 40939" d="M307.148,2164.488a61.924,61.924,0,0,1-106.6,61.66,61.727,61.727,0,0,0,106.6-61.66Z" transform="translate(-200.545 -2164.488)" fill="#eceef0"/>
      </g>
    </g>
  </g>
  <g id="Grupo_47009" data-name="Grupo 47009" transform="translate(34.56 24.709)">
    <path id="Trazado_26594" data-name="Trazado 26594" d="M761.41,176.388a49.082,49.082,0,0,1-.564-9.616H746.812a49.082,49.082,0,0,1-.564,9.616c-.814,4.371-5.683,4.371-5.683,4.371l13.264,3.515,13.264-3.515S762.224,180.759,761.41,176.388Z" transform="translate(-724.946 -109.091)" fill="#ecc19c"/>
    <g id="Grupo_16145" data-name="Grupo 16145" transform="translate(21.83 56.883)">
      <path id="Trazado_26595" data-name="Trazado 26595" d="M766.534,175.075a6.646,6.646,0,0,1-6.124.958c-5.283-1.559-7.571-4-8.4-5.123.173-3.172.174-5.609.174-5.609l14.036.163A48.953,48.953,0,0,0,766.534,175.075Z" transform="translate(-752.011 -165.301)" fill="#cca88d"/>
    </g>
    <g id="Grupo_16146" data-name="Grupo 16146" transform="translate(4.967 32.737)">
      <path id="Trazado_26596" data-name="Trazado 26596" d="M726.153,123.035s-3.208-4.312-4.55-.943a12.877,12.877,0,0,0,.987,10.334c1.465,2.235,4.4,5.8,5.327,5.873a3.428,3.428,0,0,0,2.619-1.2Z" transform="translate(-720.935 -120.805)" fill="#ecc19c"/>
      <path id="Trazado_26597" data-name="Trazado 26597" d="M728.823,127.933s-2.152-2.893-3.052-.633a8.642,8.642,0,0,0,.661,6.934c.983,1.5,2.951,3.895,3.574,3.94a2.3,2.3,0,0,0,1.758-.8Z" transform="translate(-722.942 -123.381)" fill="#db9c94" opacity="0.6"/>
    </g>
    <g id="Grupo_16147" data-name="Grupo 16147" transform="translate(44.342 33.332)">
      <path id="Trazado_26598" data-name="Trazado 26598" d="M797.491,124.023s2.962-4.119,4.233-.877a12.649,12.649,0,0,1-.855,9.914c-1.351,2.136-4.061,5.545-4.926,5.6A3.2,3.2,0,0,1,793.5,137.5Z" transform="translate(-793.495 -121.902)" fill="#ecc19c"/>
      <path id="Trazado_26599" data-name="Trazado 26599" d="M797.485,128.712s1.987-2.764,2.84-.589a8.49,8.49,0,0,1-.574,6.652c-.907,1.433-2.725,3.72-3.305,3.76a2.145,2.145,0,0,1-1.642-.783Z" transform="translate(-794.094 -124.366)" fill="#db9c94" opacity="0.6"/>
    </g>
    <path id="Trazado_26600" data-name="Trazado 26600" d="M746.005,67.257c.108,0,.215,0,.322,0s.214,0,.322,0c11.4,0,22.12,9.352,22.12,21.979s-10.72,23.747-22.12,23.747c-.107,0-.215,0-.322-.007s-.215.007-.322.007c-11.4,0-22.12-11.121-22.12-23.747S734.605,67.257,746.005,67.257Z" transform="translate(-717.318 -63.579)" fill="#333"/>
    <path id="Trazado_26601" data-name="Trazado 26601" d="M750.465,136.29c-6.071,0-13.221-5.165-16.546-10-1.005-1.46-1.359-8.944-1.359-14.078,0-7.381-.118-17.231,2.12-21.342,2.975-5.465,11.386-4.428,15.785-4.428h.083c4.4,0,12.811-1.038,15.785,4.428,2.238,4.111,2.12,13.962,2.12,21.342,0,5.134-.354,12.618-1.359,14.078-3.325,4.832-10.476,10-16.546,10Z" transform="translate(-721.284 -72.318)" fill="#ecc19c"/>
    <path id="Trazado_26602" data-name="Trazado 26602" d="M754.178,76.7s-24.488,14.331-42.4,8.14c0,0,6.108-5.749,9.084-10.766,3.221-5.427,15.451-20.5,34.057-9.915l-.407-3.6s3.867,2.547,4.436,8.683c0,0,4.6.023,5.649,2.8l-2.985-.769a15.963,15.963,0,0,1,2.985,8.072c.55,9.357-2.874,14.957-2.874,14.957a17.546,17.546,0,0,1-3.158-7.846C757.57,78.123,755.852,78.2,754.178,76.7Z" transform="translate(-711.783 -60.479)" fill="#333"/>
    <g id="Grupo_16149" data-name="Grupo 16149" transform="translate(2.371 11.607)">
      <g id="Grupo_16148" data-name="Grupo 16148" transform="translate(0 0)">
        <path id="Trazado_26603" data-name="Trazado 26603" d="M757.058,81.868s-.453.537-1.334,1.389c-.442.424-.981.94-1.631,1.492s-1.384,1.18-2.226,1.81a50.347,50.347,0,0,1-6,3.974c-.571.332-1.163.649-1.769.958s-1.223.615-1.85.914-1.271.578-1.919.853c-.657.256-1.306.535-1.973.773s-1.333.479-2.009.683c-.67.222-1.347.413-2.024.587-.671.192-1.349.341-2.019.482-.666.156-1.337.262-1.993.371a35.506,35.506,0,0,1-3.815.405c-.607.046-1.2.04-1.776.043s-1.127-.018-1.657-.052a27.947,27.947,0,0,1-2.877-.284c-.849-.135-1.581-.3-2.18-.425-1.191-.319-1.854-.53-1.854-.53s.707-.011,1.914.018l2.173-.053c.837-.062,1.773-.1,2.79-.212.508-.044,1.035-.1,1.579-.191s1.106-.135,1.678-.252c1.148-.188,2.349-.431,3.582-.721s2.5-.628,3.768-1.017l.958-.292.956-.32c.643-.2,1.275-.443,1.912-.672,1.274-.457,2.529-.97,3.762-1.486,1.226-.532,2.434-1.059,3.585-1.613s2.263-1.1,3.311-1.632,2.036-1.052,2.939-1.55c1.808-.991,3.305-1.855,4.354-2.47Z" transform="translate(-716.152 -81.868)" fill="#1a1a1a"/>
      </g>
    </g>
    <g id="Grupo_16151" data-name="Grupo 16151" transform="translate(1.118 8.715)">
      <g id="Grupo_16150" data-name="Grupo 16150" transform="translate(0 0)">
        <path id="Trazado_26604" data-name="Trazado 26604" d="M756,76.539s-.558.457-1.575,1.2-2.487,1.771-4.307,2.917c-.909.575-1.9,1.2-2.96,1.816s-2.191,1.268-3.376,1.9-2.417,1.28-3.686,1.9-2.573,1.225-3.884,1.815c-1.321.568-2.646,1.13-3.974,1.631s-2.644.972-3.938,1.377c-.646.2-1.281.4-1.915.57s-1.247.341-1.856.479a35.057,35.057,0,0,1-3.46.656,22.3,22.3,0,0,1-2.976.255,10.277,10.277,0,0,1-1.248-.012,9.275,9.275,0,0,1-1.055-.088c-.317-.042-.6-.082-.841-.122l-.609-.159-.5-.138.518-.01.612-.005c.242-.028.518-.055.824-.082a8.794,8.794,0,0,0,1.009-.145c.365-.064.758-.118,1.176-.223s.86-.182,1.321-.322.951-.237,1.453-.4,1.027-.306,1.563-.5,1.1-.358,1.661-.573,1.153-.408,1.744-.641,1.2-.453,1.811-.7c1.229-.48,2.487-1.011,3.769-1.543s2.576-1.1,3.869-1.67c5.177-2.274,10.326-4.664,14.249-6.372,1.951-.872,3.6-1.572,4.753-2.058S756,76.539,756,76.539Z" transform="translate(-713.844 -76.539)" fill="#1a1a1a"/>
      </g>
    </g>
    <g id="Grupo_16153" data-name="Grupo 16153" transform="translate(10.109 2.065)">
      <g id="Grupo_16152" data-name="Grupo 16152">
        <path id="Trazado_26605" data-name="Trazado 26605" d="M762.449,68.671l-1.491-.349-1.7-.36c-.654-.136-1.4-.259-2.2-.41-.806-.129-1.676-.263-2.6-.374s-1.886-.208-2.883-.281c-1-.057-2.026-.1-3.065-.086a30.234,30.234,0,0,0-3.128.184c-.518.066-1.04.111-1.549.215l-.766.131-.752.168a25.143,25.143,0,0,0-2.881.848c-.459.167-.893.371-1.336.538l-1.249.6-1.153.643c-.377.206-.712.45-1.053.662s-.643.449-.939.666-.593.412-.844.626c-.492.437-.97.783-1.32,1.112-.7.658-1.135,1.027-1.135,1.027s.247-.5.74-1.357c.249-.427.6-.911,1.007-1.474.2-.282.455-.55.7-.853a9.484,9.484,0,0,1,.844-.9c.315-.292.626-.622.985-.92s.741-.6,1.141-.894c.414-.277.843-.559,1.288-.838.459-.252.931-.513,1.422-.753a19.32,19.32,0,0,1,3.159-1.168l.835-.223c.281-.063.565-.115.85-.169.568-.122,1.144-.185,1.72-.262s1.154-.089,1.729-.125c.574-.006,1.148-.027,1.713.006l.844.036.831.077c.551.043,1.09.128,1.619.207a28.3,28.3,0,0,1,3,.652c.943.247,1.81.559,2.6.85a25.951,25.951,0,0,1,3.694,1.721A13.859,13.859,0,0,1,762.449,68.671Z" transform="translate(-730.412 -64.284)" fill="#1a1a1a"/>
      </g>
    </g>
    <g id="Grupo_16155" data-name="Grupo 16155" transform="translate(2.371 7.101)">
      <g id="Grupo_16154" data-name="Grupo 16154">
        <path id="Trazado_26606" data-name="Trazado 26606" d="M753.773,73.729l-.467.092c-.3.051-.745.162-1.307.273-.559.13-1.237.28-2.008.47s-1.635.418-2.574.672c-.47.119-.956.261-1.455.421l-1.55.459-1.621.531-.838.268-.844.306-1.729.613-1.748.69c-1.185.438-2.351.974-3.528,1.484-.294.129-.593.244-.883.38l-.862.422-1.72.823c-1.136.553-2.215,1.174-3.292,1.719-.547.261-1.039.591-1.546.876l-1.477.854c-.981.527-1.844,1.125-2.675,1.634l-1.187.743a12,12,0,0,0-1.066.684c-.647.458-1.232.839-1.71,1.158-.961.635-1.534.979-1.534.979s.419-.509,1.2-1.368c.39-.428.86-.954,1.422-1.536a26.73,26.73,0,0,1,1.987-1.849,29.466,29.466,0,0,1,2.475-2.06l1.42-1.042c.487-.353.979-.724,1.516-1.044l1.622-1c.552-.33,1.1-.694,1.689-.978l1.765-.907.893-.449c.3-.144.61-.271.916-.406,1.231-.518,2.45-1.066,3.7-1.469.62-.218,1.235-.436,1.849-.628l1.835-.514.9-.244.892-.2,1.724-.363c1.133-.179,2.2-.365,3.194-.448.5-.048.97-.105,1.423-.138l1.29-.056c.807-.044,1.517-.012,2.1,0A16.885,16.885,0,0,1,753.773,73.729Z" transform="translate(-716.152 -73.564)" fill="#1a1a1a"/>
      </g>
    </g>
    <path id="Trazado_26607" data-name="Trazado 26607" d="M765.565,138.164s.119.288.31.65l.311.6.153.321a2.79,2.79,0,0,1,.124.318,1.939,1.939,0,0,1,.085.3,1.772,1.772,0,0,1,.021.273.842.842,0,0,1-.046.26.787.787,0,0,1-.1.255c-.049.075-.078.165-.128.23s-.093.125-.13.176c-.072.1-.115.175-.115.175a1.81,1.81,0,0,0,.206-.028c.066-.014.148-.029.239-.056a1.268,1.268,0,0,0,.29-.15,1.184,1.184,0,0,0,.161-.109c.049-.049.1-.1.146-.162a1.187,1.187,0,0,0,.234-.427.824.824,0,0,0,.053-.255,1.113,1.113,0,0,0,.014-.264,1.844,1.844,0,0,0-.1-.5,2.141,2.141,0,0,0-.205-.436,2.83,2.83,0,0,0-.263-.36,2.744,2.744,0,0,0-.578-.5A2.12,2.12,0,0,0,765.565,138.164Z" transform="translate(-736.38 -96.008)" fill="#db9c94" opacity="0.6"/>
    <g id="Grupo_16157" data-name="Grupo 16157" transform="translate(11.775 25.57)">
      <path id="Trazado_26608" data-name="Trazado 26608" d="M743.962,110.341a1.685,1.685,0,0,0,1.423-.745,1.374,1.374,0,0,0-.482-1.473c-1.332-1.028-5.719-.5-8.628,1.168a11.789,11.789,0,0,0-2.793,2.9c.143-.084.224-.124.308-.164l.371-.174q.37-.174.744-.342c.5-.223,1-.434,1.513-.62a11,11,0,0,1,1.95-.532A34.066,34.066,0,0,1,743.962,110.341Z" transform="translate(-733.482 -107.599)"/>
      <g id="Grupo_16156" data-name="Grupo 16156" transform="translate(7.865 9.101)">
        <path id="Trazado_26609" data-name="Trazado 26609" d="M751.567,127.023a3.786,3.786,0,0,1-.1,1.081c-.254-1.162-.981-2-1.816-1.962-.745.027-1.344.745-1.58,1.735a4.334,4.334,0,0,1-.091-.7c-.073-1.508.681-2.761,1.671-2.807S751.5,125.515,751.567,127.023Z" transform="translate(-747.975 -124.37)"/>
      </g>
    </g>
    <g id="Grupo_16159" data-name="Grupo 16159" transform="translate(34.688 25.569)">
      <path id="Trazado_26610" data-name="Trazado 26610" d="M777.206,110.339a1.684,1.684,0,0,1-1.423-.745,1.375,1.375,0,0,1,.481-1.473c1.332-1.028,5.719-.5,8.629,1.168a11.788,11.788,0,0,1,2.792,2.9c-.143-.084-.224-.124-.308-.164l-.371-.174q-.37-.174-.745-.342c-.5-.222-1-.434-1.513-.62a10.954,10.954,0,0,0-1.95-.532A34.006,34.006,0,0,0,777.206,110.339Z" transform="translate(-775.705 -107.597)"/>
      <g id="Grupo_16158" data-name="Grupo 16158" transform="translate(0.519 9.101)">
        <path id="Trazado_26611" data-name="Trazado 26611" d="M776.666,127.021a3.788,3.788,0,0,0,.1,1.081c.254-1.162.981-2,1.816-1.962.745.027,1.344.745,1.58,1.735a4.334,4.334,0,0,0,.091-.7c.073-1.508-.682-2.761-1.671-2.807S776.729,125.513,776.666,127.021Z" transform="translate(-776.661 -124.368)"/>
      </g>
    </g>
    <path id="Trazado_26612" data-name="Trazado 26612" d="M761.522,169.842s.328,0,.766.012c.22.007.47.015.732.029s.535.023.807.023.542.008.8,0c.13,0,.253-.007.373-.014s.237,0,.344-.016.21-.01.3-.016.17-.016.238-.021c.137-.007.223-.005.223-.005a2.162,2.162,0,0,1-.147.165,1.94,1.94,0,0,1-.456.361,1.809,1.809,0,0,1-.345.181,2.26,2.26,0,0,1-.411.142,3.229,3.229,0,0,1-.934.112,3.457,3.457,0,0,1-1.667-.453A2.16,2.16,0,0,1,761.522,169.842Z" transform="translate(-734.531 -110.491)" fill="#db9c94"/>
    <g id="Grupo_16161" data-name="Grupo 16161" transform="translate(20.656 47.855)">
      <path id="Trazado_26613" data-name="Trazado 26613" d="M766.536,148.716c-.742-.359-4.6,1.264-8.36,1.271-3.6.008-7.091-1.615-7.8-1.271-2.184,1.058,2.762,10.746,8.3,10.421C764.206,159.463,768.72,149.774,766.536,148.716Z" transform="translate(-749.847 -148.665)" fill="#7a2742"/>
      <g id="Grupo_16160" data-name="Grupo 16160" transform="translate(0.973 0)">
        <path id="Trazado_26614" data-name="Trazado 26614" d="M766.388,148.744a3.494,3.494,0,0,1-.44,1.952c-.61.842-2.184,2.976-8.619,2.519-5.148-.366-5.685-3.361-5.691-4.55,1.19.073,4.264,1.324,7.417,1.318A36.591,36.591,0,0,0,766.388,148.744Z" transform="translate(-751.639 -148.665)" fill="#fff"/>
      </g>
    </g>
  </g>
</svg>
