<svg id="Grupo_46891" data-name="Grupo 46891" xmlns="http://www.w3.org/2000/svg" xmlns:xlink="http://www.w3.org/1999/xlink" width="123.833" height="123.833" viewBox="0 0 123.833 123.833">
  <defs>
    <radialGradient id="radial-gradient" cx="0.076" cy="0.019" r="1.465" gradientTransform="translate(0.001)" gradientUnits="objectBoundingBox">
      <stop offset="0" stop-color="#f6f6f7"/>
      <stop offset="0.477" stop-color="#f9f9fa"/>
      <stop offset="0.715" stop-color="#fff"/>
    </radialGradient>
  </defs>
  <g id="Grupo_42274" data-name="Grupo 42274" transform="translate(0 0)">
    <g id="Grupo_18423" data-name="Grupo 18423" transform="translate(0 0)">
      <g id="Grupo_18421" data-name="Grupo 18421">
        <g id="Grupo_18420" data-name="Grupo 18420">
          <g id="Grupo_18419" data-name="Grupo 18419">
            <path id="Trazado_40936" data-name="Trazado 40936" d="M318.456,2207.635a61.916,61.916,0,1,1-61.915-61.915A61.915,61.915,0,0,1,318.456,2207.635Z" transform="translate(-194.623 -2145.721)" fill="#fff"/>
          </g>
        </g>
      </g>
      <path id="Trazado_40937" data-name="Trazado 40937" d="M317.728,2206.843a61.915,61.915,0,1,0-61.915,61.918A61.672,61.672,0,0,0,317.728,2206.843Z" transform="translate(-193.895 -2144.928)" fill="url(#radial-gradient)"/>
      <path id="Trazado_40938" data-name="Trazado 40938" d="M296.6,2200.4a47.26,47.26,0,1,0-47.26,47.26A47.084,47.084,0,0,0,296.6,2200.4Z" transform="translate(-187.238 -2138.278)" fill="none" stroke="#26aab7" stroke-miterlimit="10" stroke-width="4"/>
      <g id="Grupo_18422" data-name="Grupo 18422" transform="translate(10.969 34.762)">
        <path id="Trazado_40939" data-name="Trazado 40939" d="M307.148,2164.488a61.924,61.924,0,0,1-106.6,61.66,61.727,61.727,0,0,0,106.6-61.66Z" transform="translate(-200.545 -2164.488)" fill="#eceef0"/>
      </g>
    </g>
  </g>
  <g id="Grupo_47006" data-name="Grupo 47006" transform="translate(-346.733 190.966)">
    <g id="Grupo_46193" data-name="Grupo 46193" transform="translate(381.293 -165.914)">
      <path id="Trazado_26554" data-name="Trazado 26554" d="M80.734,176.432a49.308,49.308,0,0,1-.566-9.66h-14.1a49.287,49.287,0,0,1-.566,9.66c-.818,4.391-5.709,4.391-5.709,4.391l13.325,3.531,13.324-3.531S81.552,180.823,80.734,176.432Z" transform="translate(-44.102 -108.826)" fill="#ecc19c"/>
      <g id="Grupo_16110" data-name="Grupo 16110" transform="translate(21.931 57.144)">
        <path id="Trazado_26555" data-name="Trazado 26555" d="M85.828,175.12a6.676,6.676,0,0,1-6.152.962c-5.307-1.566-7.605-4.023-8.438-5.146.174-3.187.175-5.635.175-5.635l14.1.164A49.13,49.13,0,0,0,85.828,175.12Z" transform="translate(-71.238 -165.301)" fill="#cca88d"/>
      </g>
      <g id="Grupo_16111" data-name="Grupo 16111" transform="translate(4.99 32.887)">
        <path id="Trazado_26556" data-name="Trazado 26556" d="M45.4,123.045s-3.223-4.332-4.571-.947a12.936,12.936,0,0,0,.991,10.381c1.472,2.245,4.418,5.832,5.351,5.9a3.445,3.445,0,0,0,2.631-1.2Z" transform="translate(-40.163 -120.805)" fill="#ecc19c"/>
        <path id="Trazado_26557" data-name="Trazado 26557" d="M48.067,127.94S45.9,125.034,45,127.3a8.677,8.677,0,0,0,.665,6.965c.988,1.506,2.965,3.913,3.59,3.958a2.31,2.31,0,0,0,1.765-.808Z" transform="translate(-42.159 -123.367)" fill="#db9c94" opacity="0.6"/>
      </g>
      <g id="Grupo_16112" data-name="Grupo 16112" transform="translate(44.546 33.485)">
        <path id="Trazado_26558" data-name="Trazado 26558" d="M116.737,124.033s2.975-4.138,4.252-.882a12.707,12.707,0,0,1-.859,9.959c-1.357,2.146-4.08,5.57-4.949,5.63a3.211,3.211,0,0,1-2.459-1.172Z" transform="translate(-112.722 -121.902)" fill="#ecc19c"/>
        <path id="Trazado_26559" data-name="Trazado 26559" d="M116.725,128.719s2-2.776,2.853-.591A8.526,8.526,0,0,1,119,134.81c-.91,1.44-2.737,3.737-3.32,3.777a2.155,2.155,0,0,1-1.65-.786Z" transform="translate(-113.318 -124.352)" fill="#db9c94" opacity="0.6"/>
      </g>
      <path id="Trazado_26560" data-name="Trazado 26560" d="M65.335,67.257c.108,0,.216,0,.324,0s.215,0,.324,0c11.453,0,22.222,9.395,22.222,22.08s-10.769,23.857-22.222,23.857c-.108,0-.216,0-.324-.007s-.216.007-.324.007c-11.453,0-22.222-11.172-22.222-23.857S53.883,67.257,65.335,67.257Z" transform="translate(-36.515 -63.562)" fill="#333"/>
      <path id="Trazado_26561" data-name="Trazado 26561" d="M69.775,136.519c-6.1,0-13.282-5.189-16.623-10.043-1.009-1.466-1.365-8.985-1.365-14.143,0-7.415-.118-17.31,2.13-21.44,2.988-5.49,11.438-4.448,15.858-4.448h.083c4.42,0,12.87-1.042,15.858,4.448,2.248,4.13,2.129,14.026,2.129,21.44,0,5.158-.355,12.677-1.365,14.143-3.341,4.854-10.524,10.043-16.622,10.043Z" transform="translate(-40.46 -72.254)" fill="#ecc19c"/>
      <path id="Trazado_26562" data-name="Trazado 26562" d="M84.683,138.152s.119.289.312.654l.312.6.154.322a2.846,2.846,0,0,1,.125.32,1.985,1.985,0,0,1,.085.3,1.771,1.771,0,0,1,.02.274.859.859,0,0,1-.045.261.815.815,0,0,1-.1.256c-.05.075-.078.166-.129.231s-.093.126-.13.177c-.073.106-.116.176-.116.176a1.687,1.687,0,0,0,.208-.028,2.277,2.277,0,0,0,.24-.057,1.244,1.244,0,0,0,.291-.15,1.2,1.2,0,0,0,.162-.11c.049-.049.1-.1.147-.162a1.193,1.193,0,0,0,.235-.428.832.832,0,0,0,.053-.256,1.12,1.12,0,0,0,.014-.265,1.854,1.854,0,0,0-.1-.5,2.171,2.171,0,0,0-.206-.438,2.852,2.852,0,0,0-.264-.362,2.774,2.774,0,0,0-.581-.5A2.15,2.15,0,0,0,84.683,138.152Z" transform="translate(-55.423 -95.808)" fill="#db9c94" opacity="0.6"/>
      <g id="Grupo_16114" data-name="Grupo 16114" transform="translate(12.227 29.025)">
        <path id="Trazado_26563" data-name="Trazado 26563" d="M64.115,117.005a1.69,1.69,0,0,0,1.561-.406,1.379,1.379,0,0,0-.136-1.55c-1.071-1.309-5.484-1.784-8.709-.816a11.833,11.833,0,0,0-3.391,2.2c.159-.05.248-.07.339-.09l.4-.087c.269-.057.537-.113.806-.166.538-.105,1.078-.2,1.622-.263a10.979,10.979,0,0,1,2.029-.077A34.222,34.222,0,0,1,64.115,117.005Z" transform="translate(-53.439 -113.72)"/>
        <g id="Grupo_16113" data-name="Grupo 16113" transform="translate(7.441 5.796)">
          <path id="Trazado_26564" data-name="Trazado 26564" d="M69.018,129.847c-1,.044-1.858-1.15-1.925-2.666s.686-2.782,1.682-2.827,1.858,1.15,1.925,2.667S70.015,129.8,69.018,129.847Z" transform="translate(-67.088 -124.353)"/>
        </g>
      </g>
      <g id="Grupo_16116" data-name="Grupo 16116" transform="translate(33.968 29.025)">
        <path id="Trazado_26565" data-name="Trazado 26565" d="M95.06,117.005A1.69,1.69,0,0,1,93.5,116.6a1.379,1.379,0,0,1,.137-1.55c1.07-1.309,5.483-1.784,8.709-.816a11.833,11.833,0,0,1,3.391,2.2c-.159-.05-.248-.07-.339-.09l-.4-.087c-.269-.057-.537-.113-.806-.166-.538-.105-1.078-.2-1.622-.263a10.978,10.978,0,0,0-2.029-.077A34.235,34.235,0,0,0,95.06,117.005Z" transform="translate(-93.318 -113.72)"/>
        <g id="Grupo_16115" data-name="Grupo 16115" transform="translate(1.36 5.796)">
          <path id="Trazado_26566" data-name="Trazado 26566" d="M97.5,129.847c1,.044,1.858-1.15,1.925-2.666s-.686-2.782-1.682-2.827-1.858,1.15-1.925,2.667S96.5,129.8,97.5,129.847Z" transform="translate(-95.813 -124.353)"/>
        </g>
      </g>
      <g id="Grupo_16117" data-name="Grupo 16117" transform="translate(20.835 50.939)">
        <path id="Trazado_26567" data-name="Trazado 26567" d="M80.015,160.811s.329,0,.769.013c.221.007.473.015.735.029s.538.023.811.024.545.007.8,0c.13,0,.255-.007.375-.014s.238,0,.345-.015.211-.01.3-.016.172-.016.24-.021c.137-.007.223-.005.223-.005a2.056,2.056,0,0,1-.148.166,1.95,1.95,0,0,1-.458.363,1.816,1.816,0,0,1-.346.182,2.312,2.312,0,0,1-.413.143,3.288,3.288,0,0,1-.939.112,3.47,3.47,0,0,1-1.674-.456A2.169,2.169,0,0,1,80.015,160.811Z" transform="translate(-74.135 -157.049)" fill="#db9c94"/>
        <path id="Trazado_26568" data-name="Trazado 26568" d="M84.8,154.3a2.042,2.042,0,0,1-.406.085,3.645,3.645,0,0,1-.428.028c-.578.009-1.174-.01-1.77-.013s-1.2.008-1.813.056c-.306.027-.618.06-.934.118-.162.037-.318.061-.488.116a2.983,2.983,0,0,0-.52.2l-.057.033c.009-.007-.019.008-.033.014s-.034.019-.053.028c-.037.019-.074.037-.11.059-.073.039-.141.084-.215.131a1.865,1.865,0,0,1-.264.149.973.973,0,0,1-.188.067,1.129,1.129,0,0,1-.111.026,1.094,1.094,0,0,1-.111-.026.978.978,0,0,1-.189-.067,1.856,1.856,0,0,1-.264-.149c-.074-.047-.142-.093-.216-.131-.035-.022-.073-.04-.11-.059-.019-.009-.035-.021-.053-.028s-.041-.021-.033-.014l-.057-.033a2.962,2.962,0,0,0-.52-.2c-.17-.055-.326-.079-.488-.116-.317-.058-.628-.09-.934-.118-.613-.048-1.215-.059-1.813-.056s-1.191.022-1.77.013a3.638,3.638,0,0,1-.428-.028,2.043,2.043,0,0,1-.406-.085,3.08,3.08,0,0,1-.789-.384,2.524,2.524,0,0,0,.665.641,2.168,2.168,0,0,0,.43.225,4.188,4.188,0,0,0,.446.152,17.025,17.025,0,0,0,1.784.362l1.744.271c.285.045.562.1.829.163.126.036.265.063.376.107a2.655,2.655,0,0,1,.3.121l.086.053a.9.9,0,0,0,.12.057,1.2,1.2,0,0,0,.251.081,1.3,1.3,0,0,0,.542.008,5.43,5.43,0,0,1,1.2,0,1.3,1.3,0,0,0,.542-.008,1.2,1.2,0,0,0,.251-.081.9.9,0,0,0,.12-.057l.086-.053a2.708,2.708,0,0,1,.3-.121c.111-.044.25-.071.376-.107.267-.059.544-.118.829-.163l1.744-.271a17.024,17.024,0,0,0,1.784-.362,4.137,4.137,0,0,0,.446-.152,2.158,2.158,0,0,0,.43-.225,2.513,2.513,0,0,0,.664-.641A3.068,3.068,0,0,1,84.8,154.3Z" transform="translate(-69.229 -153.918)" fill="#db9c94"/>
      </g>
      <path id="Trazado_26569" data-name="Trazado 26569" d="M73.6,76.773S49,91.17,31.01,84.951c0,0,6.136-5.776,9.126-10.815,3.236-5.452,15.522-20.592,34.214-9.961l-.409-3.619s3.884,2.558,4.456,8.723c0,0,4.617.023,5.675,2.817l-3-.772a16.036,16.036,0,0,1,3,8.109c.553,9.4-2.887,15.026-2.887,15.026a17.627,17.627,0,0,1-3.172-7.882C77.008,78.2,75.282,78.283,73.6,76.773Z" transform="translate(-31.01 -60.479)" fill="#333"/>
      <g id="Grupo_16119" data-name="Grupo 16119" transform="translate(2.382 11.66)">
        <g id="Grupo_16118" data-name="Grupo 16118" transform="translate(0 0)">
          <path id="Trazado_26570" data-name="Trazado 26570" d="M76.474,81.868s-.455.539-1.34,1.4c-.444.426-.985.944-1.639,1.5s-1.391,1.186-2.236,1.819a50.535,50.535,0,0,1-6.028,3.992c-.574.334-1.168.652-1.777.963s-1.229.618-1.859.918-1.277.581-1.928.856c-.66.257-1.312.537-1.982.777s-1.339.481-2.018.686c-.673.224-1.354.415-2.033.59-.674.193-1.355.343-2.028.485-.669.157-1.343.263-2,.373a35.669,35.669,0,0,1-3.833.407c-.61.046-1.208.04-1.784.043s-1.132-.019-1.665-.052a28.06,28.06,0,0,1-2.89-.286c-.853-.136-1.588-.3-2.19-.427-1.2-.321-1.862-.532-1.862-.532s.71-.011,1.923.018l2.184-.053c.841-.062,1.782-.1,2.8-.213.511-.045,1.041-.1,1.586-.192s1.111-.135,1.686-.253c1.154-.189,2.361-.433,3.6-.724s2.508-.631,3.786-1.022l.962-.293.961-.321c.645-.2,1.281-.445,1.921-.675,1.28-.46,2.541-.974,3.78-1.493,1.232-.534,2.445-1.064,3.6-1.621s2.273-1.1,3.326-1.64,2.045-1.057,2.952-1.557c1.816-1,3.321-1.863,4.374-2.481Z" transform="translate(-35.38 -81.868)" fill="#1a1a1a"/>
        </g>
      </g>
      <g id="Grupo_16121" data-name="Grupo 16121" transform="translate(1.124 8.755)">
        <g id="Grupo_16120" data-name="Grupo 16120" transform="translate(0)">
          <path id="Trazado_26571" data-name="Trazado 26571" d="M75.424,76.539s-.561.46-1.583,1.2-2.5,1.779-4.326,2.931c-.913.578-1.9,1.2-2.973,1.825s-2.2,1.274-3.392,1.912-2.428,1.286-3.7,1.911-2.585,1.231-3.9,1.823c-1.327.571-2.659,1.135-3.992,1.638s-2.656.977-3.956,1.384c-.649.2-1.287.407-1.924.572s-1.253.342-1.865.481a35.212,35.212,0,0,1-3.475.659,22.406,22.406,0,0,1-2.99.256,10.332,10.332,0,0,1-1.254-.013,9.342,9.342,0,0,1-1.06-.089c-.319-.043-.6-.082-.845-.122l-.612-.16-.5-.138.521-.01.614-.005c.243-.028.52-.055.828-.082a8.833,8.833,0,0,0,1.013-.146c.367-.064.762-.118,1.181-.224s.864-.183,1.327-.323.955-.238,1.459-.4,1.032-.307,1.57-.5,1.1-.36,1.669-.576,1.158-.41,1.752-.644,1.2-.455,1.82-.7c1.234-.482,2.5-1.016,3.786-1.55s2.588-1.1,3.887-1.677c5.2-2.284,10.374-4.686,14.314-6.4,1.96-.876,3.613-1.579,4.775-2.068S75.424,76.539,75.424,76.539Z" transform="translate(-33.072 -76.539)" fill="#1a1a1a"/>
        </g>
      </g>
      <g id="Grupo_16123" data-name="Grupo 16123" transform="translate(10.156 2.074)">
        <g id="Grupo_16122" data-name="Grupo 16122">
          <path id="Trazado_26572" data-name="Trazado 26572" d="M81.823,68.691l-1.5-.351-1.709-.362c-.657-.136-1.4-.261-2.207-.412-.81-.129-1.683-.264-2.607-.376s-1.895-.209-2.9-.282c-1-.057-2.035-.105-3.079-.087a30.373,30.373,0,0,0-3.143.185c-.521.066-1.045.111-1.556.216l-.769.132-.756.169a25.322,25.322,0,0,0-2.895.852c-.461.167-.9.373-1.342.54l-1.254.6-1.158.645c-.379.207-.715.452-1.058.665s-.645.451-.944.669-.6.414-.847.629c-.494.439-.975.786-1.326,1.117-.7.661-1.141,1.031-1.141,1.031s.249-.5.744-1.363c.25-.429.6-.915,1.012-1.481.2-.283.457-.553.707-.856a9.536,9.536,0,0,1,.849-.9c.316-.293.629-.625.99-.924s.745-.6,1.146-.9c.415-.278.847-.562,1.294-.842.461-.253.935-.516,1.428-.757a19.407,19.407,0,0,1,3.173-1.174l.839-.224c.282-.064.568-.116.854-.17.57-.122,1.149-.185,1.728-.263s1.16-.089,1.736-.125c.577-.006,1.154-.027,1.721.006l.848.036.835.077c.554.043,1.1.128,1.627.208a28.456,28.456,0,0,1,3.017.655c.947.248,1.818.562,2.615.854a26.069,26.069,0,0,1,3.711,1.729A13.86,13.86,0,0,1,81.823,68.691Z" transform="translate(-49.639 -64.284)" fill="#1a1a1a"/>
        </g>
      </g>
      <g id="Grupo_16125" data-name="Grupo 16125" transform="translate(2.382 7.134)">
        <g id="Grupo_16124" data-name="Grupo 16124" transform="translate(0 0)">
          <path id="Trazado_26573" data-name="Trazado 26573" d="M73.174,73.73l-.47.092c-.3.051-.748.163-1.312.274-.562.13-1.242.281-2.017.473s-1.643.42-2.586.675c-.473.119-.961.262-1.462.423l-1.557.461-1.628.534-.842.269-.848.307-1.737.615-1.755.693c-1.191.44-2.362.979-3.545,1.491-.295.129-.6.245-.887.382l-.866.424-1.729.826c-1.141.556-2.224,1.18-3.307,1.727-.549.262-1.044.594-1.553.88l-1.483.858c-.986.53-1.852,1.131-2.688,1.642l-1.192.746a12.036,12.036,0,0,0-1.07.687c-.651.46-1.238.843-1.718,1.163-.965.638-1.541.984-1.541.984s.42-.511,1.2-1.374c.391-.43.864-.958,1.429-1.543a26.876,26.876,0,0,1,2-1.857,29.549,29.549,0,0,1,2.486-2.069l1.426-1.047c.489-.355.983-.728,1.523-1.048l1.629-1c.555-.331,1.1-.7,1.7-.982l1.773-.912.9-.451c.3-.145.613-.273.92-.408,1.236-.521,2.461-1.071,3.72-1.476.623-.219,1.24-.438,1.857-.631l1.843-.516.9-.245.9-.2,1.731-.365c1.139-.179,2.207-.366,3.209-.45.5-.048.975-.106,1.43-.139l1.3-.056c.811-.045,1.524-.013,2.105,0A16.963,16.963,0,0,1,73.174,73.73Z" transform="translate(-35.38 -73.564)" fill="#1a1a1a"/>
        </g>
      </g>
    </g>
  </g>
</svg>
