<svg xmlns="http://www.w3.org/2000/svg" xmlns:xlink="http://www.w3.org/1999/xlink" width="169.172" height="146.031" viewBox="0 0 169.172 146.031">
  <defs>
    <linearGradient id="linear-gradient" x1="0.5" x2="0.5" y2="1" gradientUnits="objectBoundingBox">
      <stop offset="0" stop-color="#fff"/>
      <stop offset="1" stop-color="#d3d3d3"/>
    </linearGradient>
    <linearGradient id="linear-gradient-2" x1="15.614" y1="8.169" x2="16.617" y2="8.169" gradientUnits="objectBoundingBox">
      <stop offset="0" stop-color="#fff"/>
      <stop offset="1" stop-color="#d2e6ee"/>
    </linearGradient>
    <linearGradient id="linear-gradient-3" x1="0.457" y1="1.875" x2="-0.174" y2="23.658" xlink:href="#linear-gradient-2"/>
    <linearGradient id="linear-gradient-4" x1="0.416" y1="2.737" x2="-0.105" y2="17.471" xlink:href="#linear-gradient-2"/>
    <linearGradient id="linear-gradient-5" x1="0.379" y1="3.815" x2="-0.133" y2="18.536" xlink:href="#linear-gradient-2"/>
    <linearGradient id="linear-gradient-6" x1="0.332" y1="5.009" x2="-0.21" y2="19.87" xlink:href="#linear-gradient-2"/>
    <linearGradient id="linear-gradient-8" x1="-64.185" y1="1.94" x2="-63.178" y2="1.94" gradientUnits="objectBoundingBox">
      <stop offset="0" stop-color="#f9b776"/>
      <stop offset="1" stop-color="#f47960"/>
    </linearGradient>
    <linearGradient id="linear-gradient-9" x1="-83.452" y1="1.625" x2="-82.438" y2="1.625" xlink:href="#linear-gradient-8"/>
    <linearGradient id="linear-gradient-10" x1="-9.939" y1="0.734" x2="-8.945" y2="0.734" xlink:href="#linear-gradient-8"/>
    <linearGradient id="linear-gradient-11" x1="105.141" y1="2.075" x2="107.122" y2="4.758" xlink:href="#linear-gradient-8"/>
    <linearGradient id="linear-gradient-12" x1="-63.758" y1="1.818" x2="-61.756" y2="0.037" xlink:href="#linear-gradient-8"/>
    <linearGradient id="linear-gradient-13" x1="-11.188" y1="0.957" x2="-10.187" y2="0.957" xlink:href="#linear-gradient-8"/>
    <linearGradient id="linear-gradient-14" x1="-25.625" y1="1.035" x2="-24.634" y2="1.035" xlink:href="#linear-gradient-8"/>
    <linearGradient id="linear-gradient-15" x1="-62.545" y1="-24.87" x2="-62.868" y2="-25.936" xlink:href="#linear-gradient-8"/>
    <linearGradient id="linear-gradient-16" x1="-47.509" y1="-20.183" x2="-47.305" y2="-19" gradientUnits="objectBoundingBox">
      <stop offset="0" stop-color="#2b3582"/>
      <stop offset="1" stop-color="#150e42"/>
    </linearGradient>
    <linearGradient id="linear-gradient-17" x1="-206.713" y1="-122.073" x2="-207.659" y2="-126.685" xlink:href="#linear-gradient-8"/>
    <linearGradient id="linear-gradient-18" x1="-35.379" y1="0.5" x2="-34.379" y2="0.5" xlink:href="#linear-gradient-8"/>
    <linearGradient id="linear-gradient-19" x1="254.175" y1="-0.059" x2="254.774" y2="2.435" xlink:href="#linear-gradient-2"/>
    <linearGradient id="linear-gradient-20" x1="-178.626" y1="0.5" x2="-177.626" y2="0.5" xlink:href="#linear-gradient-8"/>
    <linearGradient id="linear-gradient-21" x1="-141.524" y1="0.5" x2="-140.524" y2="0.5" xlink:href="#linear-gradient-8"/>
    <linearGradient id="linear-gradient-22" x1="-72.173" y1="0.85" x2="-71.94" y2="0.282" xlink:href="#linear-gradient-8"/>
    <linearGradient id="linear-gradient-23" x1="-61.864" y1="0.5" x2="-60.864" y2="0.5" xlink:href="#linear-gradient-8"/>
    <linearGradient id="linear-gradient-24" x1="-49.101" y1="-2.533" x2="-50.142" y2="-1.782" xlink:href="#linear-gradient-8"/>
    <linearGradient id="linear-gradient-25" x1="-40.757" y1="-2.102" x2="-39.988" y2="-1.208" xlink:href="#linear-gradient-16"/>
    <linearGradient id="linear-gradient-26" x1="-205.304" y1="-10.997" x2="-209.581" y2="-8.387" xlink:href="#linear-gradient-8"/>
    <linearGradient id="linear-gradient-27" x1="-33.966" y1="0.5" x2="-32.966" y2="0.5" xlink:href="#linear-gradient-8"/>
    <linearGradient id="linear-gradient-28" x1="-16.683" y1="0.5" x2="-15.683" y2="0.5" xlink:href="#linear-gradient-8"/>
    <linearGradient id="linear-gradient-29" x1="-70.778" y1="1.908" x2="-71.089" y2="0.311" xlink:href="#linear-gradient-8"/>
    <linearGradient id="linear-gradient-30" x1="-48.727" y1="-9.209" x2="-47.326" y2="-8.456" xlink:href="#linear-gradient-8"/>
    <linearGradient id="linear-gradient-31" x1="-204.048" y1="-30.532" x2="-198.179" y2="-28.089" xlink:href="#linear-gradient-8"/>
    <linearGradient id="linear-gradient-32" x1="-15.444" y1="0.5" x2="-14.444" y2="0.5" xlink:href="#linear-gradient-8"/>
    <linearGradient id="linear-gradient-34" x1="-71.757" y1="1.164" x2="-72.02" y2="-0.58" xlink:href="#linear-gradient-8"/>
    <linearGradient id="linear-gradient-35" x1="-79.805" y1="1.13" x2="-80.09" y2="-0.791" xlink:href="#linear-gradient-8"/>
    <linearGradient id="linear-gradient-36" x1="28.183" y1="-9.185" x2="-9.638" y2="4.047" xlink:href="#linear-gradient-2"/>
    <linearGradient id="linear-gradient-37" x1="-20.164" y1="0.5" x2="-19.164" y2="0.5" xlink:href="#linear-gradient-8"/>
    <linearGradient id="linear-gradient-38" x1="-10.798" y1="0.5" x2="-9.798" y2="0.5" xlink:href="#linear-gradient-8"/>
    <linearGradient id="linear-gradient-39" x1="-40.217" y1="1.029" x2="-38.929" y2="0.222" xlink:href="#linear-gradient-8"/>
    <linearGradient id="linear-gradient-40" x1="-32.03" y1="0.175" x2="-33.347" y2="1.493" xlink:href="#linear-gradient-8"/>
    <linearGradient id="linear-gradient-41" x1="-103.893" y1="2.763" x2="-100.63" y2="0.44" xlink:href="#linear-gradient-8"/>
    <linearGradient id="linear-gradient-46" x1="-12.36" y1="-0.331" x2="-13.233" y2="5.155" xlink:href="#linear-gradient-2"/>
  </defs>
  <g id="Grupo_46239" data-name="Grupo 46239" transform="translate(-692.209 -901.38)">
    <g id="Grupo_46204" data-name="Grupo 46204" transform="translate(692.209 906.732)">
      <g id="Grupo_46198" data-name="Grupo 46198" transform="translate(0 0)">
        <g id="Grupo_46197" data-name="Grupo 46197">
          <rect id="Rectángulo_28284" data-name="Rectángulo 28284" width="160.477" height="96.557" transform="translate(4.472 4.72)" fill="#fff"/>
          <rect id="Rectángulo_28285" data-name="Rectángulo 28285" width="157.745" height="93.963" transform="translate(5.714 4.72)" fill="#aee6e6"/>
          <path id="Trazado_96390" data-name="Trazado 96390" d="M859.635,989.7H694.478a2.248,2.248,0,0,0-2.269,2.042v2.45a2.247,2.247,0,0,0,2.232,2.043l165.037-1.557a1.944,1.944,0,0,0,1.9-2.043v-.893A1.81,1.81,0,0,0,859.635,989.7Z" transform="translate(-692.209 -989.699)" fill="#00223d"/>
          <path id="Trazado_96391" data-name="Trazado 96391" d="M859.635,2610.187H694.478a2.363,2.363,0,0,0-2.269,2.174v2.45a2.247,2.247,0,0,0,2.232,2.042l165.037-1.557a1.944,1.944,0,0,0,1.9-2.043v-.893C861.381,2611.232,860.763,2610.187,859.635,2610.187Z" transform="translate(-692.209 -2511.993)" fill="#00223d"/>
        </g>
        <path id="Trazado_96392" data-name="Trazado 96392" d="M972.886,1133.1l-146.935-.984a2.409,2.409,0,0,0-1.759.773,2.979,2.979,0,0,0-.8,1.886v80.477a2.611,2.611,0,0,0,2.545,2.572H972.88a2.412,2.412,0,0,0,2.3-2.572v-79.492A2.5,2.5,0,0,0,972.886,1133.1Z" transform="translate(-815.447 -1123.49)" opacity="0.776" fill="url(#linear-gradient)"/>
      </g>
      <g id="Grupo_46203" data-name="Grupo 46203" transform="translate(9.33 9.924)">
        <g id="Grupo_46202" data-name="Grupo 46202">
          <g id="Grupo_46201" data-name="Grupo 46201">
            <g id="Grupo_46199" data-name="Grupo 46199" transform="translate(0.757 2.063)">
              <path id="Trazado_96393" data-name="Trazado 96393" d="M859.992,1188.4c7.413-.109,44.079-.751,51.6-.883a1.328,1.328,0,0,1,1.351,1.328v3.433a1.328,1.328,0,0,1-1.328,1.328H860.012a1.328,1.328,0,0,1-1.328-1.328v-2.55A1.328,1.328,0,0,1,859.992,1188.4Z" transform="translate(-858.684 -1187.52)" fill="#26aab7"/>
              <path id="Trazado_96394" data-name="Trazado 96394" d="M1034.5,1208.363h0a1.337,1.337,0,0,0,1.36,1.337l29.9-.519a1.337,1.337,0,0,0,1.275-1.655l-.136-.555a1.337,1.337,0,0,0-1.346-1.018l-29.766,1.074A1.337,1.337,0,0,0,1034.5,1208.363Z" transform="translate(-1023.846 -1204.836)" fill="#fff" opacity="0.64"/>
            </g>
            <g id="Grupo_46200" data-name="Grupo 46200">
              <path id="Trazado_96395" data-name="Trazado 96395" d="M850.922,1248.8l-4.6,4.68a.472.472,0,0,0,.033.692l.035.029a.439.439,0,0,0,.62-.056l4.21-5.077Z" transform="translate(-846.189 -1243.02)" fill="#fff"/>
              <path id="Trazado_96396" data-name="Trazado 96396" d="M912.613,1160.746a3.044,3.044,0,1,1-4.034-1.386A3.016,3.016,0,0,1,912.613,1160.746Z" transform="translate(-903.158 -1158.719)" opacity="0.5" fill="url(#linear-gradient-2)"/>
              <path id="Trazado_96397" data-name="Trazado 96397" d="M903.132,1153.815a3.326,3.326,0,1,0,4.488,1.542A3.356,3.356,0,0,0,903.132,1153.815Zm2.654,5.561a2.837,2.837,0,1,1,1.385-3.8A2.863,2.863,0,0,1,905.786,1159.376Z" transform="translate(-897.856 -1153.478)" fill="#fff"/>
              <path id="Trazado_96398" data-name="Trazado 96398" d="M903.613,1211.2a.1.1,0,0,1-.1-.075,3.142,3.142,0,0,1-.107-.659.1.1,0,0,1,.2-.011,2.945,2.945,0,0,0,.1.617.1.1,0,0,1-.072.125A.1.1,0,0,1,903.613,1211.2Z" transform="translate(-899.94 -1206.913)" fill="#fff"/>
              <path id="Trazado_96399" data-name="Trazado 96399" d="M860.516,1312.637a.1.1,0,0,1-.075-.172l.07-.075a.1.1,0,0,1,.149.14l-.07.075A.1.1,0,0,1,860.516,1312.637Z" transform="translate(-859.552 -1302.73)" fill="#fff"/>
            </g>
          </g>
        </g>
        <rect id="Rectángulo_28286" data-name="Rectángulo 28286" width="51.963" height="18.603" rx="9.302" transform="translate(1.609 18.063)" fill="#fff" opacity="0.4"/>
        <rect id="Rectángulo_28287" data-name="Rectángulo 28287" width="51.963" height="18.603" rx="9.302" transform="translate(0.946 39.478)" fill="#fff" opacity="0.4"/>
        <rect id="Rectángulo_28288" data-name="Rectángulo 28288" width="51.963" height="22.49" rx="11.245" transform="translate(0.946 60.329)" fill="#fff" opacity="0.4"/>
        <path id="Rectángulo_28289" data-name="Rectángulo 28289" d="M1.994,0H40.36a1.994,1.994,0,0,1,1.994,1.994v0A1.994,1.994,0,0,1,40.36,3.989H1.994A1.994,1.994,0,0,1,0,1.994v0A1.994,1.994,0,0,1,1.994,0Z" transform="translate(6.709 12.021)" fill="#fff" opacity="0.4"/>
        <path id="Rectángulo_28290" data-name="Rectángulo 28290" d="M1.994,0H30.845a1.994,1.994,0,0,1,1.994,1.994v0a1.994,1.994,0,0,1-1.994,1.994H1.994A1.994,1.994,0,0,1,0,1.994v0A1.994,1.994,0,0,1,1.994,0Z" transform="translate(113.361 2.295)" fill="#fff" opacity="0.4"/>
        <rect id="Rectángulo_28291" data-name="Rectángulo 28291" width="36.116" height="3.989" rx="1.994" transform="translate(67.876 10.179)" fill="#fff" opacity="0.4"/>
        <rect id="Rectángulo_28292" data-name="Rectángulo 28292" width="34.712" height="72.906" rx="17.356" transform="translate(111.897 8.821)" fill="#fff" opacity="0.4"/>
        <rect id="Rectángulo_28293" data-name="Rectángulo 28293" width="50.103" height="18.476" rx="9.238" transform="translate(58.537 18.063)" fill="#fff" opacity="0.4"/>
        <rect id="Rectángulo_28294" data-name="Rectángulo 28294" width="50.103" height="41.616" rx="18.404" transform="translate(57.93 38.965)" fill="#fff" opacity="0.4"/>
      </g>
    </g>
    <g id="Grupo_46206" data-name="Grupo 46206" transform="translate(756.585 901.38)">
      <path id="Trazado_96400" data-name="Trazado 96400" d="M1998.878,1778.927c-.03-.368-.406-.686-1.042-.942.692-.381,1.074-.79,1.042-1.191-.1-1.213-3.939-1.893-8.579-1.519s-8.323,1.661-8.225,2.874c.03.368.405.686,1.042.942-.691.381-1.074.79-1.042,1.191.03.368.405.686,1.042.942-.691.381-1.074.79-1.042,1.191.03.368.405.686,1.042.942-.691.381-1.074.79-1.042,1.191.043.536.82.969,2.073,1.251a10.712,10.712,0,0,0,.031,1.311c.181,2.235,2.7,3.988,6.021,3.988s6.2-2.389,6.236-4.632a11.34,11.34,0,0,0-.065-1.463c1.591-.531,2.56-1.18,2.509-1.81-.03-.368-.406-.686-1.042-.942.692-.381,1.074-.79,1.042-1.191-.03-.368-.406-.686-1.042-.942C1998.528,1779.736,1998.911,1779.327,1998.878,1778.927Z" transform="translate(-1968.288 -1722.225)" fill="#00223d"/>
      <g id="Grupo_46205" data-name="Grupo 46205" transform="translate(15.024 55.872)">
        <path id="Trazado_96401" data-name="Trazado 96401" d="M2023.937,1939.6a20.061,20.061,0,0,1-3.681-.3.111.111,0,1,1,.042-.219,24.018,24.018,0,0,0,6.132.193,26.336,26.336,0,0,0,5.142-.887.111.111,0,1,1,.062.214,26.575,26.575,0,0,1-5.187.9C2025.585,1939.569,2024.741,1939.6,2023.937,1939.6Z" transform="translate(-2019.097 -1931.42)" fill="url(#linear-gradient-3)"/>
        <path id="Trazado_96402" data-name="Trazado 96402" d="M2011.469,1895.349a17.511,17.511,0,0,1-4.519-.49.111.111,0,1,1,.061-.214,25.783,25.783,0,0,0,13.664-1.086.111.111,0,0,1,.093.2,21.994,21.994,0,0,1-6.812,1.485C2013.106,1895.316,2012.268,1895.349,2011.469,1895.349Z" transform="translate(-2006.605 -1889.3)" fill="url(#linear-gradient-4)"/>
        <path id="Trazado_96403" data-name="Trazado 96403" d="M2007.369,1860.159a16.285,16.285,0,0,1-4.764-.573.111.111,0,1,1,.07-.212,20.367,20.367,0,0,0,7.187.459,21.769,21.769,0,0,0,6.736-1.466.111.111,0,1,1,.094.2,21.983,21.983,0,0,1-6.812,1.485C2009.016,1860.125,2008.172,1860.159,2007.369,1860.159Z" transform="translate(-2002.529 -1856.241)" fill="url(#linear-gradient-5)"/>
        <path id="Trazado_96404" data-name="Trazado 96404" d="M2019.092,1825.212a19.216,19.216,0,0,1-4.013-.365.111.111,0,1,1,.048-.217,23.241,23.241,0,0,0,6.442.257,21.941,21.941,0,0,0,6.7-1.45.111.111,0,0,1,.092.2,22.163,22.163,0,0,1-6.776,1.469C2020.734,1825.178,2019.894,1825.212,2019.092,1825.212Z" transform="translate(-2014.237 -1823.427)" fill="url(#linear-gradient-6)"/>
      </g>
      <path id="Trazado_96405" data-name="Trazado 96405" d="M1765.266,947.317a15.693,15.693,0,0,0-2.81-5.487,36.322,36.322,0,0,1-7.824-20.226c-.807-14.057,11.66-21.094,23.035-20.139s22.6,9.426,21.372,22.5c-.756,8.046-5.26,14.149-8.613,17.654a18.62,18.62,0,0,0-4.47,7.92c-1.006,3.633-3.4,8.161-9.093,8.437C1769.5,958.337,1766.438,951.471,1765.266,947.317Z" transform="translate(-1754.594 -901.38)" fill="url(#linear-gradient)"/>
      <path id="Trazado_96406" data-name="Trazado 96406" d="M2153,1375.166l3.98-25.889c.082-.535.345-.894.588-.8s.372.6.29,1.135c0,.014-.005.032-.008.046l-4.534,25.648c-.034.193-.132.315-.219.272S2152.975,1375.353,2153,1375.166Z" transform="translate(-2128.854 -1321.37)" fill="#f5ca56"/>
      <path id="Trazado_96407" data-name="Trazado 96407" d="M2009.251,1378.559l-3.98-25.889c-.082-.535-.345-.894-.588-.8s-.372.6-.29,1.135c0,.014.005.032.008.046l4.534,25.648c.034.193.132.315.219.272S2009.28,1378.746,2009.251,1378.559Z" transform="translate(-1989.233 -1324.557)" fill="#f5ca56"/>
      <path id="Trazado_96408" data-name="Trazado 96408" d="M2037.291,1276.707a.418.418,0,0,0-.523-.136l-2.216,1.036-.769-2.192a.471.471,0,0,0-.269-.271.548.548,0,0,0-.681.21l0,.007-1.823,3.323-1.692-4.731,0-.008a.541.541,0,0,0-.256-.289.664.664,0,0,0-.837.165l-2.548,3.508a.307.307,0,0,0,.09.443.427.427,0,0,0,.542-.059l2.244-2.5,2.02,4.5v0a.358.358,0,0,0,.178.175.422.422,0,0,0,.529-.137l1.949-3.128.733,1.582.007.014a.325.325,0,0,0,.019.034.417.417,0,0,0,.522.135l2.631-1.229A.313.313,0,0,0,2037.291,1276.707Z" transform="translate(-2009.189 -1251.022)" fill="#f5ca56"/>
      <path id="Trazado_96409" data-name="Trazado 96409" d="M2339.527,1450.524a.506.506,0,0,1-.406-.807,29.336,29.336,0,0,0,1.847-2.8.505.505,0,0,1,.875.505,30.373,30.373,0,0,1-1.91,2.9A.5.5,0,0,1,2339.527,1450.524Z" transform="translate(-2303.608 -1413.619)" fill="#fff"/>
      <path id="Trazado_96410" data-name="Trazado 96410" d="M2393.563,1118.162a.5.5,0,0,1-.463-.706,23.583,23.583,0,0,0,.542-17.9.505.505,0,1,1,.918-.421,24.218,24.218,0,0,1-.533,18.721A.505.505,0,0,1,2393.563,1118.162Z" transform="translate(-2354.37 -1086.877)" fill="#fff"/>
    </g>
    <g id="Grupo_46233" data-name="Grupo 46233" transform="translate(715.338 950.761)">
      <g id="Grupo_46212" data-name="Grupo 46212" transform="translate(63.515 0)">
        <path id="Trazado_96411" data-name="Trazado 96411" d="M2441.546,3154.58s.339,1.821.515,3.625a1.244,1.244,0,0,1-1.177,1.359c-2.4.123-7.545.367-9.391.3a.4.4,0,0,1-.362-.551h0a.908.908,0,0,1,.459-.493l8.459-3.986Z" transform="translate(-2412.378 -3067.428)" fill="#26aab7"/>
        <path id="Trazado_96412" data-name="Trazado 96412" d="M2565.1,3131.946l-.238,2.184a2.707,2.707,0,0,1-2.506-.063l.593-2.437Z" transform="translate(-2535.678 -3045.868)" fill="url(#linear-gradient-8)"/>
        <path id="Trazado_96413" data-name="Trazado 96413" d="M2566.978,2459.022c.117.569.872,28.427-1.988,40.942a.425.425,0,0,0,.253.491,7.383,7.383,0,0,0,2.43.47.73.73,0,0,0,.719-.531c.824-2.9,4.765-17.459,5.165-31.33.447-15.5-.005-.528-.005-.528l-.44-9.574Z" transform="translate(-2538.142 -2413.961)" fill="#00223d"/>
        <path id="Trazado_96414" data-name="Trazado 96414" d="M2712.587,3168.746a13.106,13.106,0,0,1,1.041,3.358.759.759,0,0,1-.659.915c-.793.085-2.014.2-2.993.2a.756.756,0,0,1-.757-.837,6.378,6.378,0,0,1,1.457-3.515Z" transform="translate(-2673.637 -3080.735)" fill="#26aab7"/>
        <path id="Trazado_96415" data-name="Trazado 96415" d="M2735.391,3120.686l-.574,3.305a2.135,2.135,0,0,1-1.78.139l.255-3.553Z" transform="translate(-2696.017 -3035.486)" fill="url(#linear-gradient-9)"/>
        <path id="Trazado_96416" data-name="Trazado 96416" d="M2605.84,2450.075c2.576,14.677-.182,36.339-1.141,40.583a.66.66,0,0,1-.529.507,4.436,4.436,0,0,1-1.906-.058.606.606,0,0,1-.441-.553c-.167-3.422-.126-24.44-2.475-32.723a1.888,1.888,0,0,0-.738-1.034l-4.435-3.09-.386-5.059Z" transform="translate(-2565.207 -2404.271)" fill="#00223d"/>
        <g id="Grupo_46207" data-name="Grupo 46207" transform="translate(3.18 6.986)">
          <path id="Trazado_96417" data-name="Trazado 96417" d="M2369.517,1997.553a68.621,68.621,0,0,1,15.373,1.77c2.3,12.676.641,27.338.641,27.338-5.637,1.536-12.035-.791-12.035-.791-.99-5.3-5.515-20.192-5.515-20.192a24.046,24.046,0,0,1-8.951-2.747,15.657,15.657,0,0,0,3.032-6.5A24.49,24.49,0,0,0,2369.517,1997.553Z" transform="translate(-2347.851 -1986.443)" fill="#26aab7"/>
          <path id="Trazado_96418" data-name="Trazado 96418" d="M2174.563,1832.159a1.4,1.4,0,0,1,1.62-.472c1.118,4.528,6.785,8.153,12.589,9.9a15.654,15.654,0,0,1-3.032,6.5C2176.085,1842.776,2174.563,1832.159,2174.563,1832.159Z" transform="translate(-2174.563 -1831.595)" fill="url(#linear-gradient-10)"/>
        </g>
        <g id="Grupo_46208" data-name="Grupo 46208">
          <path id="Trazado_96419" data-name="Trazado 96419" d="M2125.448,1724.077c-.073.239.8.594,1.3-.386.014-.468.279-2.473,0-2.852a37.309,37.309,0,0,0-4.417-4.53.687.687,0,0,0-.077.955l1.414,1.445a6.762,6.762,0,0,0-.8,1.623,1.961,1.961,0,0,0,.209,1.441c.25.44.591,1.012.912,1.459A1.937,1.937,0,0,0,2125.448,1724.077Z" transform="translate(-2122.092 -1716.309)" fill="url(#linear-gradient-11)"/>
          <path id="Trazado_96420" data-name="Trazado 96420" d="M2153.99,1771.418l1.286,1.069.411,1.072-1.125,1.273a14.671,14.671,0,0,0-.691-2.592C2153.581,1771.781,2153.727,1771.556,2153.99,1771.418Z" transform="translate(-2151.796 -1768.079)" fill="url(#linear-gradient-12)"/>
        </g>
        <path id="Trazado_96421" data-name="Trazado 96421" d="M2740.707,2051.262l2.733-7.1s6.863,4.568,8.04,10.431a16.134,16.134,0,0,0-5.912,1.645C2745.037,2053.475,2740.707,2051.262,2740.707,2051.262Z" transform="translate(-2703.222 -2024.3)" fill="#26aab7"/>
        <path id="Trazado_96422" data-name="Trazado 96422" d="M2627.992,2219.684s7.7,4.254,10.245.535a2.906,2.906,0,0,0,.511-2.261,16.13,16.13,0,0,1,5.912-1.645,8.108,8.108,0,0,1-.828,5.566c-4.446,8.32-16.834-.3-16.834-.3Z" transform="translate(-2596.403 -2186.014)" fill="url(#linear-gradient-13)"/>
        <path id="Trazado_96423" data-name="Trazado 96423" d="M2579.9,1915.985l2.387,6.695a.242.242,0,0,1-.108.293,5.46,5.46,0,0,1-5.667-.327,1.14,1.14,0,0,1-.533-.809l-.808-5.807Z" transform="translate(-2547.721 -1903.886)" fill="url(#linear-gradient-14)"/>
        <g id="Grupo_46209" data-name="Grupo 46209" transform="translate(24.877 2.435)">
          <path id="Trazado_96424" data-name="Trazado 96424" d="M2534.83,1814.128s-2.5,4.826-2.159,6.762,3.505,1.767,6.251.166l1.879-5.2Z" transform="translate(-2532.638 -1810.635)" fill="url(#linear-gradient-15)"/>
          <path id="Trazado_96425" data-name="Trazado 96425" d="M2552.347,1764.361a.2.2,0,0,1-.089-.289,5.173,5.173,0,0,0,.7-1.513s.456-.3-1.174-.672-4.059-.954-4.582-2.333c-.51-1.344.763-4.749,2.871-2.066a.2.2,0,0,0,.314,0,2.04,2.04,0,0,1,2.477-.831,1.872,1.872,0,0,1,1.3,1.8.2.2,0,0,0,.235.2,2.282,2.282,0,0,1,2.677,1.217,1.835,1.835,0,0,1-.111,2.2.2.2,0,0,0,.088.327,1.187,1.187,0,0,1,.85,1.347c-.057,1.256-1.461,1.159-1.861,1.1a.2.2,0,0,0-.175.064,6.745,6.745,0,0,1-3.535,2.216.2.2,0,0,1-.212-.262l.7-2.108a.2.2,0,0,0-.11-.245Z" transform="translate(-2546.21 -1756.486)" fill="url(#linear-gradient-16)"/>
          <path id="Trazado_96426" data-name="Trazado 96426" d="M2620.588,1881.635s1.8-1.264,1.947-.215-1.621,1.535-2.5,1.152Z" transform="translate(-2614.738 -1873.459)" fill="url(#linear-gradient-17)"/>
        </g>
        <g id="Grupo_46211" data-name="Grupo 46211" transform="translate(13.971 24.533)">
          <g id="Grupo_46210" data-name="Grupo 46210">
            <path id="Trazado_96427" data-name="Trazado 96427" d="M2371.845,2137.041l-4.193-14.642a.426.426,0,0,0-.361-.308c-.76-.089-2.961-.337-5.5-.552a62.471,62.471,0,0,0-8.741-.29.428.428,0,0,0-.35.616c1.208,2.444,6.177,12.386,8.666,15.643a.43.43,0,0,0,.346.17l9.728-.091A.428.428,0,0,0,2371.845,2137.041Z" transform="translate(-2352.653 -2121.182)" fill="#00223d"/>
            <path id="Trazado_96428" data-name="Trazado 96428" d="M2572.334,2247.123a10.653,10.653,0,0,0,.348-3.254c-.236-.852-.692-1.947-2.213-1.7a22.209,22.209,0,0,0-3.316.884.871.871,0,0,0,1.247.752l-.717.554s.1.889,1.079.414l-.667.736a.777.777,0,0,0,1.138.262C2569.952,2245.3,2570.3,2247.412,2572.334,2247.123Z" transform="translate(-2554.155 -2234.802)" fill="url(#linear-gradient-18)"/>
          </g>
          <path id="Trazado_96429" data-name="Trazado 96429" d="M2469.873,2180.122a1.231,1.231,0,1,1-1.23-1.231A1.231,1.231,0,0,1,2469.873,2180.122Z" transform="translate(-2460.458 -2175.394)" fill="url(#linear-gradient-19)"/>
          <path id="Trazado_96430" data-name="Trazado 96430" d="M2411.4,2141.318l.314-.093-.854-2.9a1.32,1.32,0,0,0-.994-.924,83.9,83.9,0,0,0-10.134-.685l-.005.327a85.775,85.775,0,0,1,10.073.677.994.994,0,0,1,.746.7Z" transform="translate(-2396.876 -2135.779)" fill="#fff"/>
        </g>
      </g>
      <g id="Grupo_46213" data-name="Grupo 46213" transform="translate(124.673 67.757)">
        <path id="Trazado_96431" data-name="Trazado 96431" d="M3379.46,2888.828c.447.661,2.223,15.635,2.5,21.166a.654.654,0,0,1-.655.686h0a.656.656,0,0,1-.648-.554l-3.249-20.821Z" transform="translate(-3362.501 -2885.535)" fill="#707070"/>
        <path id="Trazado_96432" data-name="Trazado 96432" d="M3136.763,2888.828c-.447.661-2.223,15.635-2.5,21.166a.654.654,0,0,0,.655.686h0a.655.655,0,0,0,.648-.554l3.249-20.821Z" transform="translate(-3134.086 -2885.535)" fill="#707070"/>
        <path id="Trazado_96433" data-name="Trazado 96433" d="M3151.018,2836.614v.163a2.226,2.226,0,0,1-2.269,2.16l-15.018.255a2.245,2.245,0,0,1-2.351-2.037l-.008-.15a2.217,2.217,0,0,1,2.263-2.246l15.024-.269A2.237,2.237,0,0,1,3151.018,2836.614Z" transform="translate(-3131.372 -2834.489)" fill="#707070"/>
      </g>
      <g id="Grupo_46217" data-name="Grupo 46217" transform="translate(91.19 23.25)">
        <g id="Grupo_46214" data-name="Grupo 46214" transform="translate(14.982 65.693)">
          <path id="Trazado_96434" data-name="Trazado 96434" d="M2832.576,3222.356a13.451,13.451,0,0,0,4.379-.438,1.013,1.013,0,0,1-.987.784h-9.445a.459.459,0,0,1-.443-.58C2827.158,3222.209,2829.445,3222.356,2832.576,3222.356Z" transform="translate(-2826.065 -3219.628)" fill="#00223d"/>
          <path id="Trazado_96435" data-name="Trazado 96435" d="M2826.331,3186.622a.44.44,0,0,1,.078-.16,5.445,5.445,0,0,1,4.13-2.333c2.88.041,3.884.353,6.122.018l.528,1.75a1.007,1.007,0,0,1,.016.522,13.464,13.464,0,0,1-4.379.438C2829.695,3186.855,2827.407,3186.708,2826.331,3186.622Z" transform="translate(-2826.315 -3184.127)" fill="#f5ca56"/>
        </g>
        <path id="Trazado_96436" data-name="Trazado 96436" d="M2950.474,3153.3l.648,2.2a3.811,3.811,0,0,1-2.7.129l-.248-1.91Z" transform="translate(-2925.795 -3089.477)" fill="url(#linear-gradient-20)"/>
        <g id="Grupo_46215" data-name="Grupo 46215" transform="translate(0 62.507)">
          <path id="Trazado_96437" data-name="Trazado 96437" d="M2583.919,3140.365a13.512,13.512,0,0,0,3.687,2.4,1.012,1.012,0,0,1-1.258-.01l-7.362-5.915a.458.458,0,0,1,.017-.728C2579.787,3136.857,2581.478,3138.4,2583.919,3140.365Z" transform="translate(-2578.814 -3135.839)" fill="#00223d"/>
          <path id="Trazado_96438" data-name="Trazado 96438" d="M2581.921,3131.825a.436.436,0,0,1,.161-.077,5.45,5.45,0,0,1,4.674.777c2.22,1.835,2.808,2.707,4.761,3.848l-.679,1.688a1,1,0,0,1-.313.415,13.531,13.531,0,0,1-3.687-2.4C2584.4,3134.112,2582.706,3132.566,2581.921,3131.825Z" transform="translate(-2581.732 -3131.547)" fill="#f5ca56"/>
        </g>
        <path id="Trazado_96439" data-name="Trazado 96439" d="M2901,2738.886s-15.983,1.305-19.262,2.849,2.676,23.176,2.676,23.176a4.282,4.282,0,0,0,2.879-.188s-2.037-15.964-.521-19.426l17.306-2.831Z" transform="translate(-2862.456 -2700.172)" fill="#00223d"/>
        <path id="Trazado_96440" data-name="Trazado 96440" d="M2711.959,3146.416c-.149.135-1.588,3.039-1.588,3.039s-1.6-.347-1.93-1.361l1.442-2.621Z" transform="translate(-2700.587 -3082.123)" fill="url(#linear-gradient-21)"/>
        <path id="Trazado_96441" data-name="Trazado 96441" d="M2763.459,2736.681a8.1,8.1,0,0,1,.5,2.919,4.383,4.383,0,0,1-4.182,4.287l-18.895.862a.905.905,0,0,0-.836.681c-.444,1.718-2.615,6.991-13.223,17.515a.855.855,0,0,1-1.058.115l-1.51-.954a.348.348,0,0,1-.115-.47l11-18.787a4.256,4.256,0,0,1,2.587-1.919l16.1-4.116Z" transform="translate(-2715.29 -2698.101)" fill="#00223d"/>
        <path id="Trazado_96442" data-name="Trazado 96442" d="M3014.762,2252.385a23.776,23.776,0,0,0,4.088,5.312l-4.265,2.38s-.961-3.788-3.157-4.9Z" transform="translate(-2985.213 -2243.151)" fill="url(#linear-gradient-22)"/>
        <path id="Trazado_96443" data-name="Trazado 96443" d="M2860.038,2354.926a23.385,23.385,0,0,1-9.97,0s-6.813-9.158-9.448-11.651a18.749,18.749,0,0,1-13.562,7.574l-.522-1.167s7.45-3.434,9.743-8.711,3.214-7.527,5.3-8.9c1.3-.857,2.078-1.443,2.48-1.762a.667.667,0,0,1,.764-.049C2847.038,2331.606,2857.458,2338.742,2860.038,2354.926Z" transform="translate(-2811.525 -2316.213)" fill="#f5ca56"/>
        <path id="Trazado_96444" data-name="Trazado 96444" d="M3058.456,2465.052a.327.327,0,0,0,.26-.128,20.373,20.373,0,0,0,2.567-4.551.327.327,0,0,0-.611-.235,20.057,20.057,0,0,1-2.475,4.387.327.327,0,0,0,.26.526Z" transform="translate(-3029.085 -2438.119)" fill="#f9c869"/>
        <path id="Trazado_96445" data-name="Trazado 96445" d="M2718.47,2625.886l-1.053-.281-3.2-.741a1.482,1.482,0,0,0-1.124.19l-2.75,1.73,7.594-.012Z" transform="translate(-2702.375 -2593.024)" fill="url(#linear-gradient-23)"/>
        <g id="Grupo_46216" data-name="Grupo 46216" transform="translate(23.696)">
          <path id="Trazado_96446" data-name="Trazado 96446" d="M2972.5,2163.825a22.432,22.432,0,0,0-2.308,5.077c-.342,1.807-.889,2.937,1.167,3.581a4.513,4.513,0,0,0,5.168-1.858s1.874-2.6,1.687-3.785S2972.5,2163.825,2972.5,2163.825Z" transform="translate(-2969.863 -2159.958)" fill="url(#linear-gradient-24)"/>
          <path id="Trazado_96447" data-name="Trazado 96447" d="M2989.391,2109.27l-.266-.035s1.393-2.1.481-2.627-4.625-1.8-5.271-3.266a2.54,2.54,0,0,1,1.43-3.336.143.143,0,0,1,.171.09l.065.178a.145.145,0,0,0,.268.008h0a.143.143,0,0,1,.261-.005c.2.438.794,1.187,2.581,1.766,2.534.822,4.113,2.1,3.918,3.9a.144.144,0,0,0,.206.146c.208-.092.522-.106.886.293.634.693.138,2.211-1.595,3.284a.144.144,0,0,0-.023.23c.259.222.624.717-.548,1.157a2.947,2.947,0,0,1-2.095.2.145.145,0,0,1-.089-.163l.308-1.577a.145.145,0,0,0-.123-.171Z" transform="translate(-2983.272 -2100.001)" fill="url(#linear-gradient-25)"/>
          <path id="Trazado_96448" data-name="Trazado 96448" d="M3069.051,2234.316s.868-2.14,1.78-1.388-.843,2.415-1.652,2.392Z" transform="translate(-3063.04 -2224.724)" fill="url(#linear-gradient-26)"/>
        </g>
      </g>
      <g id="Grupo_46220" data-name="Grupo 46220" transform="translate(86.311 42.224)">
        <g id="Grupo_46218" data-name="Grupo 46218" transform="translate(6.924 14.81)">
          <path id="Trazado_96449" data-name="Trazado 96449" d="M2629.528,2659.007h-.037l-16.223-.016a.725.725,0,1,1,0-1.449l16.223.016a.725.725,0,0,1,.035,1.449Z" transform="translate(-2612.543 -2657.542)" fill="#344966"/>
        </g>
        <g id="Grupo_46219" data-name="Grupo 46219">
          <path id="Trazado_96450" data-name="Trazado 96450" d="M2499.65,2413.524c.006.011.011.022.016.033l6.826,14.717a.725.725,0,1,1-1.315.61l-6.826-14.717a.725.725,0,0,1,1.3-.643Z" transform="translate(-2498.283 -2413.136)" fill="#344966"/>
        </g>
      </g>
      <g id="Grupo_46226" data-name="Grupo 46226" transform="translate(33.708 21.449)">
        <g id="Grupo_46221" data-name="Grupo 46221" transform="translate(2.62 47.691)">
          <rect id="Rectángulo_28295" data-name="Rectángulo 28295" width="1.712" height="18.517" transform="translate(10.58 22.666) rotate(180)" fill="#00223d"/>
          <path id="Trazado_96451" data-name="Trazado 96451" d="M1710.159,3219.991h15a1.114,1.114,0,0,0-1.114-1.114h-12.767a1.114,1.114,0,0,0-1.115,1.114Z" transform="translate(-1707.934 -3196.969)" fill="#00223d"/>
          <rect id="Rectángulo_28296" data-name="Rectángulo 28296" width="18.855" height="5.348" rx="2.674" fill="#00223d"/>
        </g>
        <g id="Grupo_46222" data-name="Grupo 46222" transform="translate(0.692 36.016)">
          <path id="Trazado_96452" data-name="Trazado 96452" d="M1947.486,2722.051a14.894,14.894,0,0,1,5.4,2.307,1.426,1.426,0,0,1,.629,1.363,60.452,60.452,0,0,1-6.395,20.073,2.159,2.159,0,0,0-.208,1.482l.807,3.755,1.5,1.4h-3.854l-2.566-6.944,1.1-.347a2.076,2.076,0,0,0,1.45-1.944l.129-7.449a8.475,8.475,0,0,1,2.035-5.609l-6.155-.3Z" transform="translate(-1923.194 -2718.573)" fill="url(#linear-gradient-27)"/>
          <path id="Trazado_96453" data-name="Trazado 96453" d="M1960.245,3110.8c.351.459-3.778,1.065-5.864.061,0,0-2.891-5.031-2.891-7.621,0,0,.229-.528,1.927-.408,0,0,.971,5.957,2,6.624s2.868.068,2.868.068A6.034,6.034,0,0,1,1960.245,3110.8Z" transform="translate(-1932.713 -3076.264)" fill="#00223d"/>
          <path id="Trazado_96454" data-name="Trazado 96454" d="M1954.208,2745.072c.033-.056,6.627-.792,6.627-.792a15.239,15.239,0,0,0,.459,4.765c.674,2.76,10.356,14.718,10.356,14.718l-1.015,3.218a16.333,16.333,0,0,0,9.264.558l-6.291-3.775s-5.888-20.065-9.495-23.645l-6.61-2.287Z" transform="translate(-1935.266 -2733.397)" fill="url(#linear-gradient-28)"/>
          <path id="Trazado_96455" data-name="Trazado 96455" d="M1645.761,2664.66s-3.8,5.651-4.111,8.229,1.041,3.625,5.027,3.8,14.628.17,14.628.17l9.083-7.762s-6.619-2.362-8.34-3.03S1645.761,2664.66,1645.761,2664.66Z" transform="translate(-1641.607 -2664.66)" fill="#7d6eb2"/>
          <path id="Trazado_96456" data-name="Trazado 96456" d="M2222.155,3200.992a1.858,1.858,0,0,0-.355,2.236s8.658,1.535,11.009.838c0,0-.488-1.114-3.135-2.382l.2.15a.316.316,0,0,1-.209.568C2227.916,3202.3,2224.306,3201.983,2222.155,3200.992Z" transform="translate(-2186.403 -3168.493)" fill="#00223d"/>
        </g>
        <g id="Grupo_46224" data-name="Grupo 46224">
          <path id="Trazado_96457" data-name="Trazado 96457" d="M1652.582,2070.464c-7.766-1.32-11.422,5.014-11.155,6.345a.243.243,0,0,1-.3.279c-.891-.24-2.861-.542-4.082.987a2.4,2.4,0,0,0,.384,3.325.245.245,0,0,1-.2.415c-1.639-.207-5.2-.257-5.784,3.08a3.332,3.332,0,0,0,2.907,4.237.244.244,0,0,1,.081.446,2.594,2.594,0,0,0-1.083,2.9c.47,2.6,5.564,2.385,6.16,2.352a.242.242,0,0,0,.106-.032l8.16-4.654a.244.244,0,0,0,.12-.171l1.647-9.513a.244.244,0,0,0-.065-.212l5.319-7.507C1656.719,2072.46,1652.674,2070.48,1652.582,2070.464Z" transform="translate(-1631.28 -2070.284)" fill="#00223d"/>
          <path id="Trazado_96458" data-name="Trazado 96458" d="M1660.778,2334.762a86.791,86.791,0,0,0,6.6-7,5.921,5.921,0,0,0,1-5.328,73.517,73.517,0,0,0-2.922-7.359c-.247-.828-5.208-.793-5.208-.793s-9.761,6.335-13.6,17.067l4.307,1.341a50.346,50.346,0,0,1,5.067-6.994s-4.358,5.757-4.511,8.113Z" transform="translate(-1645.657 -2299.494)" fill="#7d6eb2"/>
          <path id="Trazado_96459" data-name="Trazado 96459" d="M1880.438,2214.689c-.052.172-1.347,4.465-1.448,4.554a7.248,7.248,0,0,1-4.128-.645l3.2-6.253Z" transform="translate(-1860.036 -2203.737)" fill="url(#linear-gradient-29)"/>
          <g id="Grupo_46223" data-name="Grupo 46223" transform="translate(15.701 0.774)">
            <path id="Trazado_96460" data-name="Trazado 96460" d="M1928.624,2135.2a8.745,8.745,0,0,1-1.105,5.766c-1.731,3.307-3.691,3.3-4.762,2.245a6.979,6.979,0,0,1-2.078-6.052C1920.992,2133.966,1927.72,2132.076,1928.624,2135.2Z" transform="translate(-1918.733 -2130.541)" fill="url(#linear-gradient-30)"/>
            <path id="Trazado_96461" data-name="Trazado 96461" d="M1893.648,2089.848s2.872-4.391,5.566-.935l.048,1.257s3.154-.375,2.6-3.267-3.279-4.7-6.789-3.448-5.523,2.538-5.749,5.054,1.775,1.964,1.775,1.964.653-1.772,1.581-1.956.687,1.2.687,1.2Z" transform="translate(-1889.309 -2083.052)" fill="#00223d"/>
            <path id="Trazado_96462" data-name="Trazado 96462" d="M1928.905,2153.71s1.49-2.248-.037-2.583-1.289,2.191-1.125,3.125Z" transform="translate(-1925.301 -2146.973)" fill="url(#linear-gradient-31)"/>
          </g>
          <path id="Trazado_96463" data-name="Trazado 96463" d="M1654.323,2599.664l-3.25-3.133-4.5,1.9s-4.476.693-7.038,0l-2.562-.694-5.789-1.8-.909,2.57a1.547,1.547,0,0,0,.565,1.777,10.21,10.21,0,0,0,1.462.911c.762.333,18.793-.231,18.793-.231Z" transform="translate(-1630.19 -2564.083)" fill="url(#linear-gradient-32)"/>
        </g>
        <g id="Grupo_46225" data-name="Grupo 46225" transform="translate(11.031 19.938)">
          <path id="Trazado_96464" data-name="Trazado 96464" d="M1813.03,2655.379h.043l18.856-.021a.844.844,0,1,0,0-1.688l-18.856.021a.844.844,0,0,0-.041,1.687Z" transform="translate(-1812.228 -2638.26)" fill="#00223d"/>
          <path id="Trazado_96465" data-name="Trazado 96465" d="M2019.123,2399.327h-15.7a2.993,2.993,0,0,0-2.707,1.716l-7.26,15.393h19.515a1.819,1.819,0,0,0,1.692-1.15l5.629-14.244A1.254,1.254,0,0,0,2019.123,2399.327Z" transform="translate(-1982.472 -2399.327)" fill="#00223d"/>
          <path id="Trazado_96466" data-name="Trazado 96466" d="M2232.152,2505.2c-.34,1.057-.089,2.084.562,2.293s1.453-.478,1.793-1.535.089-2.084-.562-2.293S2232.492,2504.14,2232.152,2505.2Z" transform="translate(-2206.564 -2497.304)" fill="url(#linear-gradient)"/>
        </g>
      </g>
      <g id="Grupo_46230" data-name="Grupo 46230" transform="translate(0 4.467)">
        <g id="Grupo_46227" data-name="Grupo 46227" transform="translate(0 41.309)">
          <path id="Trazado_96467" data-name="Trazado 96467" d="M1466.388,3186.072a22.918,22.918,0,0,0-.276,2.4,1.035,1.035,0,0,0,.933,1.093,45.891,45.891,0,0,0,9.128.128.471.471,0,0,0,.259-.81,14.57,14.57,0,0,0-8.548-3.632Z" transform="translate(-1442.344 -3142.019)" fill="#f6c343"/>
          <path id="Trazado_96468" data-name="Trazado 96468" d="M1454.862,3141.852l.976,2.392a.8.8,0,0,0,.818.494,4.3,4.3,0,0,0,.8-.154,1.048,1.048,0,0,0,.7-1.3l-.737-2.463Z" transform="translate(-1431.778 -3100.276)" fill="url(#linear-gradient-34)"/>
          <path id="Trazado_96469" data-name="Trazado 96469" d="M1131.422,3230.191a10.239,10.239,0,0,1,2.715,3.732.891.891,0,0,1-.847,1.184h-4.021a.948.948,0,0,1-.937-1.109C1128.588,3232.55,1129.326,3230.2,1131.422,3230.191Z" transform="translate(-1125.02 -3184.233)" fill="#f6c343"/>
          <path id="Trazado_96470" data-name="Trazado 96470" d="M1139.6,3190.457s.395,1.747.7,2.9a.37.37,0,0,0,.483.252,3.364,3.364,0,0,1,1.464-.266.284.284,0,0,0,.314-.283l.038-2.9Z" transform="translate(-1135.62 -3146.626)" fill="url(#linear-gradient-35)"/>
          <path id="Trazado_96471" data-name="Trazado 96471" d="M1088.278,2476.272l11.885,36.259s-2.28,1.493-3.366,1.43l-14.117-29.139s-2.47,17.955-1.273,30.845l-4.044.309s-6.574-32.941-1.595-44.224Z" transform="translate(-1073.906 -2471.752)" fill="#00223d"/>
          <path id="Trazado_96472" data-name="Trazado 96472" d="M1218.2,2621.956h-.014a.115.115,0,0,1-.1-.128l.461-3.661a.115.115,0,1,1,.229.029l-.461,3.661A.115.115,0,0,1,1218.2,2621.956Z" transform="translate(-1209.351 -2609.199)" fill="url(#linear-gradient-36)"/>
        </g>
        <path id="Trazado_96473" data-name="Trazado 96473" d="M1098.38,2019.814s-9.629.855-8.267,7.716a93.549,93.549,0,0,0-7.811,21.817.694.694,0,0,0,.563.825l16.036,2.746a.864.864,0,0,0,.981-.635l3.831-14.808,1.493,6.885,4.744-1.236-3.994-20.231S1105.4,2019.941,1098.38,2019.814Z" transform="translate(-1081.779 -2005.89)" fill="#f6c343"/>
        <path id="Trazado_96474" data-name="Trazado 96474" d="M1435.383,2201.481l-.026,0a.119.119,0,0,1-.091-.142l1.337-6.138a.12.12,0,0,1,.234.051l-1.337,6.138A.119.119,0,0,1,1435.383,2201.481Z" transform="translate(-1413.367 -2170.559)" fill="#f2bd4a"/>
        <path id="Trazado_96475" data-name="Trazado 96475" d="M1287.336,2438.015a2.289,2.289,0,0,0-1.656-.216l-1.116.278a.4.4,0,0,1-.5-.347l-1.155-10.277a9.451,9.451,0,0,1-4.213.554l2.657,12.115h9.3Z" transform="translate(-1266.288 -2388.828)" fill="url(#linear-gradient-37)"/>
        <path id="Trazado_96476" data-name="Trazado 96476" d="M1482.858,2125.558l-.281-.934a1.848,1.848,0,0,0-1.08-1.182l-5.083-2.045s-.077-.652,1.074-1.095a1.53,1.53,0,0,0,.882-1.732s-1.572.717-3.874,1.855a5.388,5.388,0,0,0-2.447,2.664l-11.519,14.042,1.353.929a3.611,3.611,0,0,0,5.235-1.285l6.24-11.966A23.256,23.256,0,0,0,1482.858,2125.558Z" transform="translate(-1437.102 -2098.663)" fill="url(#linear-gradient-38)"/>
        <g id="Grupo_46229" data-name="Grupo 46229" transform="translate(16.759)">
          <path id="Trazado_96477" data-name="Trazado 96477" d="M1353.441,1910.2l-2.962,8.289s2.623,2.05,4.536,1.357l1.492-4.751S1355.368,1909.283,1353.441,1910.2Z" transform="translate(-1350.479 -1902.823)" fill="url(#linear-gradient-39)"/>
          <g id="Grupo_46228" data-name="Grupo 46228" transform="translate(2.104)">
            <path id="Trazado_96478" data-name="Trazado 96478" d="M1431.176,1837.013c0,.128-2.853,8.076-2.853,8.076l-4.5-1.725,1.585-7.935S1431.176,1834.875,1431.176,1837.013Z" transform="translate(-1421.479 -1832.617)" fill="url(#linear-gradient-40)"/>
            <path id="Trazado_96479" data-name="Trazado 96479" d="M1396.064,1794.773l-1.161,4.112a.582.582,0,0,0-.023.161c0,.335.083,1.49,1.258,1.333a5.367,5.367,0,0,1,2.663.036.6.6,0,0,1,.307.741,25.77,25.77,0,0,1-1.622,3.661.6.6,0,0,1-.766.245,19.223,19.223,0,0,1-3.862-2.271.6.6,0,0,1-.211-.573c.2-1.052.785-4.251.811-5.168.024-.861-.941-1.518-1.366-1.765a.587.587,0,0,1-.276-.371,1.547,1.547,0,0,1,1.352-2.084.6.6,0,0,0,.485-.711,1.55,1.55,0,0,1,1.166-2,2.187,2.187,0,0,1,2.493.995.6.6,0,0,0,.74.2.472.472,0,0,1,.529.095.588.588,0,0,0,.86-.131,1.782,1.782,0,0,1,2.2-.726c2.035.658,1.937,3,1.192,4.28s-2.911.436-3.936-.409a2.552,2.552,0,0,0-2.49-.037A.591.591,0,0,0,1396.064,1794.773Z" transform="translate(-1391.349 -1790.028)" fill="#00223d"/>
            <path id="Trazado_96480" data-name="Trazado 96480" d="M1386.9,1877.905s1.2-2.278.408-2.993-2.146-.6-2.109,1.183C1385.242,1878.311,1386.9,1877.905,1386.9,1877.905Z" transform="translate(-1385.196 -1869.383)" fill="url(#linear-gradient-41)"/>
          </g>
        </g>
        <path id="Trazado_96481" data-name="Trazado 96481" d="M1220.147,2182.446a11.682,11.682,0,0,1-1.177-.055l-.085-.01-3.506-16.348a.119.119,0,1,1,.233-.05l3.47,16.178c.522.046,3.308.231,4.779-.811l-3.037-14.2.634-1.194a.119.119,0,1,1,.211.112l-.593,1.118,3.051,14.268-.061.046A6.964,6.964,0,0,1,1220.147,2182.446Z" transform="translate(-1206.803 -2143.114)" fill="#f2bd4a"/>
      </g>
      <g id="Grupo_46231" data-name="Grupo 46231" transform="translate(16.459 59.798)">
        <path id="Trazado_96482" data-name="Trazado 96482" d="M2820.712,2737a.568.568,0,0,0,.241-.054.691.691,0,0,0,.319-.876l-12.812-32.51a.594.594,0,0,0-.8-.349.691.691,0,0,0-.319.876l12.813,32.51A.612.612,0,0,0,2820.712,2737Z" transform="translate(-2718.712 -2703.152)" fill="url(#linear-gradient)"/>
        <path id="Trazado_96483" data-name="Trazado 96483" d="M2781.152,2736.994a.611.611,0,0,0,.561-.4l12.813-32.51a.692.692,0,0,0-.32-.876.593.593,0,0,0-.8.349l-12.812,32.51a.691.691,0,0,0,.319.876A.563.563,0,0,0,2781.152,2736.994Z" transform="translate(-2693.586 -2703.15)" fill="url(#linear-gradient)"/>
        <path id="Trazado_96484" data-name="Trazado 96484" d="M1385.693,2737a.567.567,0,0,0,.241-.054.691.691,0,0,0,.32-.876l-12.812-32.51a.593.593,0,0,0-.8-.349.691.691,0,0,0-.32.876l12.813,32.51A.612.612,0,0,0,1385.693,2737Z" transform="translate(-1370.648 -2703.152)" fill="url(#linear-gradient)"/>
        <path id="Trazado_96485" data-name="Trazado 96485" d="M1346.134,2736.994a.611.611,0,0,0,.561-.4l12.813-32.51a.692.692,0,0,0-.32-.876.593.593,0,0,0-.8.349l-12.812,32.51a.691.691,0,0,0,.32.876A.561.561,0,0,0,1346.134,2736.994Z" transform="translate(-1345.524 -2703.15)" fill="url(#linear-gradient)"/>
      </g>
      <g id="Grupo_46232" data-name="Grupo 46232" transform="translate(12.941 55.557)">
        <path id="Trazado_96486" data-name="Trazado 96486" d="M1336.793,2642.227h-18.557v-1.915h18.557C1336.4,2640.312,1336.4,2642.227,1336.793,2642.227Z" transform="translate(-1316.372 -2639.879)" fill="url(#linear-gradient-46)"/>
        <path id="Trazado_96487" data-name="Trazado 96487" d="M1289.4,2635.514a.061.061,0,0,1-.061-.061v-1.794a.061.061,0,0,1,.061-.061h19a.061.061,0,0,0,.061-.06v-.312a.061.061,0,0,0-.061-.061h-20.125a.8.8,0,0,0-.8.8v1.224a.755.755,0,0,0,.755.755H1308.4a.06.06,0,0,0,.061-.06v-.312a.061.061,0,0,0-.061-.061Z" transform="translate(-1287.475 -2633.166)" fill="#8ec8c8"/>
      </g>
      <path id="Trazado_96488" data-name="Trazado 96488" d="M1273.534,2679.763a.565.565,0,0,1,.231-.6,1.377,1.377,0,0,1,.848-.265h111.193a1.5,1.5,0,0,1,1.066.387.6.6,0,0,1,.083.8l-1.2,1.73a1.878,1.878,0,0,1-1.532.65H1275.376a1.254,1.254,0,0,1-1.254-.687Z" transform="translate(-1261.419 -2620.566)" fill="url(#linear-gradient)"/>
    </g>
    <g id="Grupo_46238" data-name="Grupo 46238" transform="translate(694.368 994.748)">
      <g id="Grupo_46237" data-name="Grupo 46237" transform="translate(0.287)">
        <g id="Grupo_46234" data-name="Grupo 46234" transform="translate(0 10.63)">
          <path id="Trazado_96489" data-name="Trazado 96489" d="M736.761,2655.473s-7.954-18.375-1.932-37.733a.15.15,0,0,1,.28.031A270.942,270.942,0,0,1,736.761,2655.473Z" transform="translate(-732.576 -2617.657)" fill="#167377"/>
          <path id="Trazado_96490" data-name="Trazado 96490" d="M764.216,2731.789a.1.1,0,0,1-.1-.075c-1.411-5.013-1.948-13.531-2.149-19.795-.218-6.783-.1-12.455-.1-12.512a.1.1,0,0,1,.1-.1.1.1,0,0,1,.1.1c0,.057-.117,5.725.1,12.5.2,6.252.736,14.752,2.142,19.745a.1.1,0,0,1-.071.126A.1.1,0,0,1,764.216,2731.789Z" transform="translate(-760.063 -2694.36)" fill="#00223d"/>
        </g>
        <g id="Grupo_46235" data-name="Grupo 46235" transform="translate(4.708)">
          <path id="Trazado_96491" data-name="Trazado 96491" d="M811.568,2487.684s-4.914-22.545,4.372-45.36a.142.142,0,0,1,.276.055A391.742,391.742,0,0,1,811.568,2487.684Z" transform="translate(-810.269 -2442.232)" fill="#167377"/>
          <path id="Trazado_96492" data-name="Trazado 96492" d="M828.085,2578.989a.1.1,0,0,1-.1-.093c-1.106-11.666,3.1-38.594,3.144-38.865a.1.1,0,1,1,.2.031c-.043.271-4.246,27.174-3.143,38.814a.1.1,0,0,1-.092.111Z" transform="translate(-826.736 -2534.024)" fill="#00223d"/>
        </g>
        <g id="Grupo_46236" data-name="Grupo 46236" transform="translate(6.592 14.139)">
          <path id="Trazado_96493" data-name="Trazado 96493" d="M841.565,2712.995s-2.354-19.667,9.34-37.367c.076-.116.289-.045.266.089A280.063,280.063,0,0,1,841.565,2712.995Z" transform="translate(-841.371 -2675.57)" fill="#167377"/>
          <path id="Trazado_96494" data-name="Trazado 96494" d="M844.88,2786.232h0a.1.1,0,0,1-.1-.1c.1-5.207,2.114-13.664,3.782-19.841,1.806-6.69,3.61-12.222,3.628-12.277a.1.1,0,0,1,.194.063c-.018.055-1.821,5.583-3.625,12.268-1.664,6.166-3.67,14.6-3.774,19.791A.1.1,0,0,1,844.88,2786.232Z" transform="translate(-844.571 -2749.19)" fill="#00223d"/>
        </g>
      </g>
      <path id="Trazado_96495" data-name="Trazado 96495" d="M728.948,3113.553h10.811a1.309,1.309,0,0,1,1.264,1.557,31.214,31.214,0,0,1-3.312,8.96,1.747,1.747,0,0,1-1.532.924h-3.528a1.779,1.779,0,0,1-1.56-.924,34.271,34.271,0,0,1-3.217-9.146A1.12,1.12,0,0,1,728.948,3113.553Z" transform="translate(-727.846 -3072.874)" fill="url(#linear-gradient)"/>
    </g>
  </g>
</svg>
