<svg xmlns="http://www.w3.org/2000/svg" xmlns:xlink="http://www.w3.org/1999/xlink" width="380.055" height="264.306" viewBox="0 0 380.055 264.306">
  <defs>
    <linearGradient id="linear-gradient" x1="0.5" x2="0.5" y2="1" gradientUnits="objectBoundingBox">
      <stop offset="0" stop-color="#fff"/>
      <stop offset="1" stop-color="#d2e6ee"/>
    </linearGradient>
    <linearGradient id="linear-gradient-5" y1="0.5" x2="1" y2="0.5" gradientUnits="objectBoundingBox">
      <stop offset="0" stop-color="#ff928e"/>
      <stop offset="1" stop-color="#feb3b1"/>
    </linearGradient>
    <linearGradient id="linear-gradient-8" x1="294.087" y1="1.605" x2="296.088" y2="4.278" xlink:href="#linear-gradient-5"/>
    <linearGradient id="linear-gradient-9" x1="0.439" y1="-3.503" x2="0.505" y2="0.689" xlink:href="#linear-gradient-5"/>
    <linearGradient id="linear-gradient-10" x1="0.511" y1="0.146" x2="0.456" y2="1.705" xlink:href="#linear-gradient-5"/>
    <linearGradient id="linear-gradient-11" x1="-47.545" y1="17.427" x2="-48.867" y2="15.942" xlink:href="#linear-gradient-5"/>
    <linearGradient id="linear-gradient-12" x1="-155.484" y1="82.575" x2="-159.791" y2="75.375" xlink:href="#linear-gradient-5"/>
    <linearGradient id="linear-gradient-13" x1="0.5" x2="0.5" y2="1" gradientUnits="objectBoundingBox">
      <stop offset="0" stop-color="#fff"/>
      <stop offset="1" stop-color="#d3d3d3"/>
    </linearGradient>
    <linearGradient id="linear-gradient-25" x1="1.66" y1="1.186" x2="0.085" y2="0.256" xlink:href="#linear-gradient-5"/>
    <linearGradient id="linear-gradient-26" x1="0.892" y1="0.928" x2="-0.916" y2="-1.638" xlink:href="#linear-gradient-5"/>
    <linearGradient id="linear-gradient-27" y1="0.5" x2="1" y2="0.5" gradientUnits="objectBoundingBox">
      <stop offset="0" stop-color="#dae3fe"/>
      <stop offset="1" stop-color="#e9effd"/>
    </linearGradient>
    <linearGradient id="linear-gradient-28" x1="0" y1="0.5" x2="1" y2="0.5" xlink:href="#linear-gradient-27"/>
    <linearGradient id="linear-gradient-40" x1="0" y1="0.5" x2="1" y2="0.5" xlink:href="#linear-gradient-27"/>
    <linearGradient id="linear-gradient-41" x1="0" y1="0.5" x2="1" y2="0.5" xlink:href="#linear-gradient-27"/>
    <linearGradient id="linear-gradient-45" x1="0" y1="0.5" x2="1" y2="0.5" xlink:href="#linear-gradient-27"/>
    <linearGradient id="linear-gradient-49" x1="0" y1="0.5" x2="1" y2="0.5" xlink:href="#linear-gradient-27"/>
    <linearGradient id="linear-gradient-126" x1="0" y1="0.5" x2="1" y2="0.5" xlink:href="#linear-gradient-27"/>
  </defs>
  <g id="Grupo_46190" data-name="Grupo 46190" transform="translate(-323.582 -253.746)">
    <g id="Grupo_46161" data-name="Grupo 46161" transform="translate(323.582 285.13)">
      <path id="Trazado_96199" data-name="Trazado 96199" d="M323.582,425.094V599.949c0,14.384,11.05,26.147,24.912,26.518,61.568,1.647,276.9,5.64,335.511,4.744,10.073-.154,18.234-8.516,18.524-18.962,1.13-40.621,2.966-138.3-3.827-183.652a19.623,19.623,0,0,0-18.514-17c-51.586-1.712-279.855-7.148-338.436-5.783C331.65,406.049,323.582,414.61,323.582,425.094Z" transform="translate(-323.582 -405.597)" fill="#00223d"/>
      <path id="Trazado_96200" data-name="Trazado 96200" d="M374.757,450.318V616.443a15.11,15.11,0,0,0,14.594,15.367L716.172,636a14.684,14.684,0,0,0,14.635-14.9l.547-164.641a10.761,10.761,0,0,0-10.288-10.977l-334.6-7.012A11.633,11.633,0,0,0,374.757,450.318Z" transform="translate(-364.18 -431.672)" fill="#f1f1f1"/>
      <path id="Trazado_96201" data-name="Trazado 96201" d="M731.755,1399.443h-.007l-358.51-6.336a.394.394,0,0,1-.387-.4.4.4,0,0,1,.4-.387l358.51,6.337a.394.394,0,0,1-.007.788Z" transform="translate(-362.668 -1188.385)" fill="#fff" opacity="0.65"/>
    </g>
    <g id="Grupo_46178" data-name="Grupo 46178" transform="translate(345.227 308.341)">
      <path id="Trazado_96202" data-name="Trazado 96202" d="M530.578,934.8h-94.53a5.161,5.161,0,0,1-5.161-5.161v-9.379a3.8,3.8,0,0,1,3.8-3.8h97.246a3.8,3.8,0,0,1,3.8,3.8v9.379A5.161,5.161,0,0,1,530.578,934.8Z" transform="translate(-430.354 -834.088)" fill="#707070" opacity="0.37"/>
      <path id="Trazado_96203" data-name="Trazado 96203" d="M530.578,1105.376h-94.53a5.161,5.161,0,0,1-5.161-5.161v-51.032a3.8,3.8,0,0,1,3.8-3.8h97.246a3.8,3.8,0,0,1,3.8,3.8v51.032A5.161,5.161,0,0,1,530.578,1105.376Z" transform="translate(-430.354 -936.363)" fill="#707070" opacity="0.37"/>
      <path id="Trazado_96204" data-name="Trazado 96204" d="M1093.326,934.8H998.8a5.161,5.161,0,0,1-5.161-5.161v-9.379a3.8,3.8,0,0,1,3.8-3.8h97.246a3.8,3.8,0,0,1,3.8,3.8v9.379A5.16,5.16,0,0,1,1093.326,934.8Z" transform="translate(-876.794 -834.088)" fill="#707070" opacity="0.37"/>
      <path id="Trazado_96205" data-name="Trazado 96205" d="M1093.326,1105.376H998.8a5.161,5.161,0,0,1-5.161-5.161v-51.032a3.8,3.8,0,0,1,3.8-3.8h97.246a3.8,3.8,0,0,1,3.8,3.8v51.032A5.16,5.16,0,0,1,1093.326,1105.376Z" transform="translate(-876.794 -936.363)" fill="#707070" opacity="0.37"/>
      <path id="Trazado_96206" data-name="Trazado 96206" d="M1656.073,934.8h-94.53a5.161,5.161,0,0,1-5.161-5.161v-9.379a3.8,3.8,0,0,1,3.8-3.8h97.246a3.8,3.8,0,0,1,3.8,3.8v9.379A5.161,5.161,0,0,1,1656.073,934.8Z" transform="translate(-1323.233 -834.088)" fill="#707070" opacity="0.37"/>
      <path id="Trazado_96207" data-name="Trazado 96207" d="M1656.073,1105.376h-94.53a5.161,5.161,0,0,1-5.161-5.161v-51.032a3.8,3.8,0,0,1,3.8-3.8h97.246a3.8,3.8,0,0,1,3.8,3.8v51.032A5.161,5.161,0,0,1,1656.073,1105.376Z" transform="translate(-1323.233 -936.363)" fill="#707070" opacity="0.37"/>
      <g id="Grupo_46162" data-name="Grupo 46162" transform="translate(0)">
        <path id="Trazado_96208" data-name="Trazado 96208" d="M428.962,530.063c-.272,11.66-2.494,49.008,3.183,57,8.036,11.31,75.6,5.953,92.12,1.488s8.483-46.432,6.7-58.487-35.178-12.5-59.78-12.055S429.2,519.794,428.962,530.063Z" transform="translate(-428.308 -517.903)" fill="#f6c343"/>
        <path id="Trazado_96209" data-name="Trazado 96209" d="M903.16,610.453a.693.693,0,0,1-.687-.615c-.569-5.041-1.3-9.663-1.831-13.038l-.216-1.376a.693.693,0,0,1,1.369-.214l.216,1.374c.534,3.388,1.267,8.028,1.839,13.1a.693.693,0,0,1-.611.766A.682.682,0,0,1,903.16,610.453Z" transform="translate(-802.842 -578.768)" fill="#fff"/>
        <path id="Trazado_96210" data-name="Trazado 96210" d="M811.7,740.534a.693.693,0,0,1-.091-1.38,103.2,103.2,0,0,0,12.08-2.176c6.533-1.766,9.434-10.882,8.623-27.1a.693.693,0,0,1,.657-.726.708.708,0,0,1,.726.657c.849,16.953-2.4,26.543-9.646,28.5a104.492,104.492,0,0,1-12.258,2.212A.713.713,0,0,1,811.7,740.534Z" transform="translate(-731.911 -669.628)" fill="#fff"/>
        <path id="Trazado_96211" data-name="Trazado 96211" d="M450.243,732.71a.693.693,0,0,1-.689-.63c-.31-3.424-.494-7.567-.546-12.313a.693.693,0,0,1,1.385-.015c.052,4.709.234,8.815.541,12.2a.693.693,0,0,1-.627.753Z" transform="translate(-444.73 -677.49)" opacity="0.56" fill="url(#linear-gradient)"/>
        <path id="Trazado_96212" data-name="Trazado 96212" d="M450.672,559.285h-.021a.693.693,0,0,1-.672-.713c.067-2.25.141-4.35.207-6.218.074-2.094.137-3.9.17-5.293.193-8.3,11.278-10.511,27.861-11.279a.693.693,0,1,1,.064,1.384c-18.706.865-26.4,3.741-26.54,9.927-.032,1.4-.1,3.209-.17,5.31-.066,1.866-.139,3.963-.207,6.21A.693.693,0,0,1,450.672,559.285Z" transform="translate(-445.5 -532.086)" fill="#fff"/>
        <path id="Trazado_96213" data-name="Trazado 96213" d="M599.314,631.87a1.48,1.48,0,0,1-1.259-2.257l25.8-41.871a1.48,1.48,0,0,1,2.521,1.553l-25.8,41.871A1.48,1.48,0,0,1,599.314,631.87Z" transform="translate(-562.797 -572.749)" fill="#fff"/>
        <path id="Trazado_96214" data-name="Trazado 96214" d="M539.061,652.28a1.476,1.476,0,0,1-1.1-.487L527.9,640.67a6.767,6.767,0,0,1-1.669-4.992,6.576,6.576,0,0,1,2.253-4.59l10.6-8.913a1.48,1.48,0,0,1,1.9,2.266l-10.6,8.913a3.605,3.605,0,0,0-1.2,2.525,3.8,3.8,0,0,0,.911,2.8l10.062,11.122a1.48,1.48,0,0,1-1.1,2.473Z" transform="translate(-505.979 -600.349)" fill="#fff"/>
        <path id="Trazado_96215" data-name="Trazado 96215" d="M744.177,652.28a1.48,1.48,0,0,1-1.1-2.473l10.063-11.122a3.8,3.8,0,0,0,.911-2.8,3.606,3.606,0,0,0-1.2-2.525l-10.6-8.913a1.48,1.48,0,1,1,1.9-2.266l10.6,8.913a6.576,6.576,0,0,1,2.253,4.59,6.768,6.768,0,0,1-1.67,4.992l-10.062,11.122A1.476,1.476,0,0,1,744.177,652.28Z" transform="translate(-676.943 -600.349)" fill="#fff"/>
      </g>
      <g id="Grupo_46164" data-name="Grupo 46164" transform="translate(117.003 0.423)">
        <path id="Trazado_96216" data-name="Trazado 96216" d="M995.074,532.11c-.272,11.66-2.494,49.008,3.184,57,8.036,11.31,75.6,5.953,92.121,1.488s8.483-46.432,6.7-58.487-35.178-12.5-59.78-12.055S995.314,521.841,995.074,532.11Z" transform="translate(-994.42 -519.949)" fill="#00223d"/>
        <path id="Trazado_96217" data-name="Trazado 96217" d="M1469.273,610.453a.693.693,0,0,1-.688-.615c-.569-5.041-1.3-9.663-1.831-13.038l-.216-1.376a.693.693,0,1,1,1.369-.214l.216,1.374c.534,3.388,1.266,8.028,1.839,13.1a.694.694,0,0,1-.689.771Z" transform="translate(-1368.955 -579.191)" fill="#fff"/>
        <path id="Trazado_96218" data-name="Trazado 96218" d="M1377.811,740.534a.693.693,0,0,1-.091-1.38,103.208,103.208,0,0,0,12.08-2.176c6.533-1.766,9.434-10.882,8.623-27.1a.692.692,0,0,1,.657-.726.708.708,0,0,1,.726.657c.848,16.953-2.4,26.543-9.646,28.5a104.5,104.5,0,0,1-12.258,2.212A.71.71,0,0,1,1377.811,740.534Z" transform="translate(-1298.024 -670.051)" fill="#fff"/>
        <path id="Trazado_96219" data-name="Trazado 96219" d="M1016.355,732.71a.693.693,0,0,1-.69-.63c-.31-3.424-.494-7.567-.546-12.313a.693.693,0,0,1,1.386-.015c.051,4.709.233,8.815.54,12.2a.693.693,0,0,1-.627.753Z" transform="translate(-1010.842 -677.913)" fill="#fff"/>
        <path id="Trazado_96220" data-name="Trazado 96220" d="M1016.784,559.285h-.021a.693.693,0,0,1-.672-.713c.067-2.25.142-4.35.207-6.218.074-2.094.137-3.9.17-5.293.193-8.3,11.278-10.511,27.861-11.279a.693.693,0,1,1,.064,1.384c-18.706.865-26.4,3.741-26.54,9.927-.032,1.4-.1,3.209-.17,5.31-.066,1.866-.14,3.963-.207,6.21A.693.693,0,0,1,1016.784,559.285Z" transform="translate(-1011.612 -532.509)" fill="#fff"/>
        <g id="Grupo_46163" data-name="Grupo 46163" transform="translate(26.095 8.509)">
          <path id="Trazado_96221" data-name="Trazado 96221" d="M1253.126,588.823a1.48,1.48,0,0,1-1.457-1.743l4.467-24.742a1.48,1.48,0,0,1,1.73-1.192,26.922,26.922,0,0,1,21.617,22.365,1.481,1.481,0,0,1-1.251,1.688l-24.9,3.608A1.463,1.463,0,0,1,1253.126,588.823Zm5.651-24.446-3.829,21.206,21.339-3.093A23.967,23.967,0,0,0,1258.777,564.377Z" transform="translate(-1224.578 -561.121)" fill="#fff"/>
          <path id="Trazado_96222" data-name="Trazado 96222" d="M1142.673,659.333a21.993,21.993,0,1,1,4.086-43.6,1.48,1.48,0,0,1,1.183,1.718l-3.235,17.919,18.031-2.613a1.483,1.483,0,0,1,1.676,1.241,22.01,22.01,0,0,1-21.74,25.336Zm0-41.025a19.032,19.032,0,1,0,19.032,19.032c0-.479-.018-.958-.054-1.436l-18.555,2.689a1.48,1.48,0,0,1-1.669-1.728l3.33-18.441A18.877,18.877,0,0,0,1142.673,618.309Z" transform="translate(-1120.68 -604.14)" fill="#fff"/>
        </g>
      </g>
      <g id="Grupo_46165" data-name="Grupo 46165" transform="translate(234.006 0.423)">
        <path id="Trazado_96223" data-name="Trazado 96223" d="M1561.188,532.11c-.272,11.66-2.494,49.008,3.183,57,8.036,11.31,75.6,5.953,92.121,1.488s8.483-46.432,6.7-58.487-35.178-12.5-59.78-12.055S1561.427,521.841,1561.188,532.11Z" transform="translate(-1560.533 -519.949)" fill="#26aab7"/>
        <path id="Trazado_96224" data-name="Trazado 96224" d="M2035.385,610.453a.693.693,0,0,1-.687-.615c-.569-5.041-1.3-9.663-1.831-13.038l-.216-1.376a.693.693,0,0,1,1.369-.214l.216,1.374c.534,3.388,1.266,8.028,1.839,13.1a.693.693,0,0,1-.611.766A.685.685,0,0,1,2035.385,610.453Z" transform="translate(-1935.067 -579.191)" fill="#fff"/>
        <path id="Trazado_96225" data-name="Trazado 96225" d="M1943.924,740.534a.693.693,0,0,1-.091-1.38,103.19,103.19,0,0,0,12.08-2.176c6.533-1.766,9.434-10.882,8.623-27.1a.693.693,0,0,1,.657-.726.708.708,0,0,1,.726.657c.849,16.953-2.4,26.543-9.646,28.5a104.49,104.49,0,0,1-12.257,2.212A.716.716,0,0,1,1943.924,740.534Z" transform="translate(-1864.136 -670.051)" fill="#fff"/>
        <path id="Trazado_96226" data-name="Trazado 96226" d="M1582.469,732.71a.693.693,0,0,1-.689-.63c-.31-3.424-.494-7.567-.546-12.313a.693.693,0,0,1,1.386-.015c.051,4.709.233,8.815.54,12.2a.693.693,0,0,1-.627.753Z" transform="translate(-1576.955 -677.913)" fill="#fff"/>
        <path id="Trazado_96227" data-name="Trazado 96227" d="M1582.9,559.285h-.021a.693.693,0,0,1-.672-.713c.067-2.25.141-4.35.207-6.218.074-2.094.137-3.9.17-5.293.193-8.3,11.278-10.511,27.861-11.279a.693.693,0,1,1,.064,1.384c-18.707.865-26.4,3.741-26.54,9.927-.032,1.4-.1,3.209-.17,5.31-.066,1.866-.139,3.963-.207,6.21A.692.692,0,0,1,1582.9,559.285Z" transform="translate(-1577.725 -532.509)" fill="#fff"/>
        <path id="Trazado_96228" data-name="Trazado 96228" d="M1754.505,644.456a1.782,1.782,0,0,1-1.78-1.734l-.814-30.384a2.87,2.87,0,0,1,4.083-2.676l30.014,14.038a2.869,2.869,0,0,1,.135,5.13l-26.494,14.124a1.781,1.781,0,1,1-1.676-3.144l25.269-13.471L1755.5,613.366l.784,29.261a1.782,1.782,0,0,1-1.733,1.829Z" transform="translate(-1712.357 -590.904)" fill="#fff"/>
      </g>
      <g id="Grupo_46169" data-name="Grupo 46169" transform="translate(31.139 60.568)">
        <g id="Grupo_46166" data-name="Grupo 46166" transform="translate(0 21.978)">
          <path id="Trazado_96229" data-name="Trazado 96229" d="M609.475,923.607l-5.231-5.1a4.261,4.261,0,0,0-2.975-1.211H589.921a4.261,4.261,0,0,0-2.939,1.175l-5.353,5.1a4.261,4.261,0,0,0-1.321,2.973l-1.335,50.4a4.261,4.261,0,0,0,4.26,4.374h25.6a4.261,4.261,0,0,0,4.257-4.459l-2.336-50.39A4.261,4.261,0,0,0,609.475,923.607Zm-13.793,2.627a3.184,3.184,0,1,1,2.6-2.6A3.186,3.186,0,0,1,595.682,926.234Z" transform="translate(-578.973 -917.294)" fill="url(#linear-gradient)"/>
        </g>
        <path id="Trazado_96230" data-name="Trazado 96230" d="M608.644,995.462l18.893-3.208a1.231,1.231,0,0,1,1.437,1.213v1.069a1.231,1.231,0,0,1-1.092,1.223L608.988,997.9a1.231,1.231,0,0,1-1.369-1.223h0A1.231,1.231,0,0,1,608.644,995.462Z" transform="translate(-601.698 -954.77)" fill="#00223d"/>
        <path id="Trazado_96231" data-name="Trazado 96231" d="M608.644,1022.755l18.893-3.208a1.231,1.231,0,0,1,1.437,1.214v1.069a1.231,1.231,0,0,1-1.092,1.223l-18.893,2.139a1.231,1.231,0,0,1-1.369-1.223h0A1.231,1.231,0,0,1,608.644,1022.755Z" transform="translate(-601.698 -976.421)" fill="#00223d"/>
        <g id="Grupo_46168" data-name="Grupo 46168" transform="translate(4.144 56.065)">
          <circle id="Elipse_3872" data-name="Elipse 3872" cx="10.476" cy="10.476" r="10.476" transform="translate(0 20.391) rotate(-76.717)" fill="#00223d"/>
          <circle id="Elipse_3873" data-name="Elipse 3873" cx="10.127" cy="10.127" r="10.127" transform="translate(1.313 3.788) rotate(-7.018)" fill="#f6c343"/>
          <path id="Trazado_96232" data-name="Trazado 96232" d="M618.079,1101.991a.394.394,0,0,1-.351-.572,9.7,9.7,0,0,1,8.7-5.358,9.815,9.815,0,0,1,1.757.158.394.394,0,1,1-.142.775,9.016,9.016,0,0,0-1.616-.145,8.918,8.918,0,0,0-8,4.925A.394.394,0,0,1,618.079,1101.991Z" transform="translate(-613.828 -1093.201)" fill="#fff" opacity="0.61"/>
          <circle id="Elipse_3874" data-name="Elipse 3874" cx="8.572" cy="8.572" r="8.572" transform="translate(0.701 12.823) rotate(-45)" fill="#fff" opacity="0.61"/>
          <g id="Grupo_46167" data-name="Grupo 46167" transform="translate(9.048 6.757)">
            <path id="Trazado_96233" data-name="Trazado 96233" d="M645.733,1127.355v-.932a7.611,7.611,0,0,1-2.617-.567.54.54,0,0,1-.3-.637l.237-.868a.544.544,0,0,1,.738-.356,6.315,6.315,0,0,0,2.416.509c.937,0,1.635-.318,1.635-.968,0-.587-.539-.936-1.841-1.285-1.857-.508-3.19-1.317-3.19-2.952,0-1.476,1.079-2.6,2.952-2.9v-.933a.543.543,0,0,1,.543-.543h.548a.543.543,0,0,1,.543.543v.837a6.935,6.935,0,0,1,2.074.373.541.541,0,0,1,.338.653l-.218.8a.542.542,0,0,1-.715.366,5.664,5.664,0,0,0-2.034-.369c-1.111,0-1.428.46-1.428.873,0,.508.667.857,2.111,1.3,2.063.619,2.92,1.476,2.92,3.015,0,1.412-1.047,2.682-3.079,3v1.043a.543.543,0,0,1-.543.543h-.548A.544.544,0,0,1,645.733,1127.355Z" transform="translate(-642.799 -1114.916)" fill="#f6c343"/>
          </g>
        </g>
        <path id="Trazado_96234" data-name="Trazado 96234" d="M629.3,840.774a.807.807,0,0,1-.745-.5c-1.382-3.346.2-6.957,1.767-9.4.478-.744,1-1.473,1.5-2.178a20.033,20.033,0,0,0,3.112-5.466,9.8,9.8,0,0,0-1.876-9.131,6.236,6.236,0,0,0-6.571-.982c-2.1,1.106-5.076,4.985-1.459,18.548a.806.806,0,0,1-1.558.415c-3.709-13.909-.815-18.765,2.265-20.389a7.72,7.72,0,0,1,8.546,1.357,11.442,11.442,0,0,1,2.191,10.664,21.536,21.536,0,0,1-3.338,5.919c-.492.69-1,1.4-1.458,2.114-1.114,1.733-2.809,5.065-1.633,7.91a.806.806,0,0,1-.744,1.114Z" transform="translate(-612.887 -810.956)" fill="#00223d"/>
      </g>
      <g id="Grupo_46173" data-name="Grupo 46173" transform="translate(151.238 60.568)">
        <g id="Grupo_46170" data-name="Grupo 46170" transform="translate(0 21.978)">
          <path id="Trazado_96235" data-name="Trazado 96235" d="M1190.566,923.607l-5.231-5.1a4.261,4.261,0,0,0-2.975-1.211h-11.348a4.261,4.261,0,0,0-2.939,1.175l-5.353,5.1a4.262,4.262,0,0,0-1.321,2.973l-1.335,50.4a4.261,4.261,0,0,0,4.26,4.374h25.6a4.261,4.261,0,0,0,4.257-4.459l-2.336-50.39A4.262,4.262,0,0,0,1190.566,923.607Zm-13.794,2.627a3.184,3.184,0,1,1,2.6-2.6A3.186,3.186,0,0,1,1176.772,926.234Z" transform="translate(-1160.063 -917.294)" fill="url(#linear-gradient)"/>
        </g>
        <path id="Trazado_96236" data-name="Trazado 96236" d="M1189.735,995.462l18.893-3.208a1.231,1.231,0,0,1,1.437,1.213v1.069a1.231,1.231,0,0,1-1.093,1.223l-18.893,2.139a1.231,1.231,0,0,1-1.369-1.223h0A1.231,1.231,0,0,1,1189.735,995.462Z" transform="translate(-1182.789 -954.77)" fill="#00223d"/>
        <path id="Trazado_96237" data-name="Trazado 96237" d="M1189.735,1022.755l18.893-3.208a1.231,1.231,0,0,1,1.437,1.214v1.069a1.231,1.231,0,0,1-1.093,1.223l-18.893,2.139a1.231,1.231,0,0,1-1.369-1.223h0A1.231,1.231,0,0,1,1189.735,1022.755Z" transform="translate(-1182.789 -976.421)" fill="#00223d"/>
        <g id="Grupo_46172" data-name="Grupo 46172" transform="translate(3.059 54.981)">
          <circle id="Elipse_3875" data-name="Elipse 3875" cx="10.476" cy="10.476" r="10.476" transform="translate(0 19.357) rotate(-67.5)" fill="#00223d"/>
          <circle id="Elipse_3876" data-name="Elipse 3876" cx="10.127" cy="10.127" r="10.127" transform="matrix(0.973, -0.23, 0.23, 0.973, 1.504, 6.158)" fill="#f6c343"/>
          <path id="Trazado_96238" data-name="Trazado 96238" d="M1199.169,1101.991a.394.394,0,0,1-.351-.572,9.7,9.7,0,0,1,8.7-5.358,9.814,9.814,0,0,1,1.757.158.394.394,0,0,1-.142.775,9.016,9.016,0,0,0-1.616-.145,8.918,8.918,0,0,0-8,4.925A.394.394,0,0,1,1199.169,1101.991Z" transform="translate(-1193.833 -1092.116)" fill="#fff" opacity="0.61"/>
          <circle id="Elipse_3877" data-name="Elipse 3877" cx="8.572" cy="8.572" r="8.572" transform="translate(2.709 9.269) rotate(-22.5)" fill="#fff" opacity="0.61"/>
          <g id="Grupo_46171" data-name="Grupo 46171" transform="translate(10.133 7.842)">
            <path id="Trazado_96239" data-name="Trazado 96239" d="M1226.823,1127.355v-.932a7.611,7.611,0,0,1-2.617-.567.54.54,0,0,1-.3-.637l.237-.868a.544.544,0,0,1,.738-.356,6.316,6.316,0,0,0,2.416.509c.936,0,1.635-.318,1.635-.968,0-.587-.54-.936-1.841-1.285-1.857-.508-3.19-1.317-3.19-2.952,0-1.476,1.079-2.6,2.952-2.9v-.933a.544.544,0,0,1,.543-.543h.548a.543.543,0,0,1,.543.543v.837a6.937,6.937,0,0,1,2.074.373.541.541,0,0,1,.338.653l-.218.8a.542.542,0,0,1-.715.366,5.664,5.664,0,0,0-2.034-.369c-1.111,0-1.428.46-1.428.873,0,.508.667.857,2.111,1.3,2.063.619,2.92,1.476,2.92,3.015,0,1.412-1.047,2.682-3.079,3v1.043a.543.543,0,0,1-.543.543h-.548A.543.543,0,0,1,1226.823,1127.355Z" transform="translate(-1223.889 -1114.916)" fill="#f6c343"/>
          </g>
        </g>
        <path id="Trazado_96240" data-name="Trazado 96240" d="M1210.387,840.774a.806.806,0,0,1-.745-.5c-1.382-3.346.2-6.957,1.767-9.4.478-.744,1-1.473,1.5-2.178a20.026,20.026,0,0,0,3.112-5.466,9.8,9.8,0,0,0-1.876-9.131,6.236,6.236,0,0,0-6.571-.982c-2.1,1.106-5.076,4.985-1.46,18.548a.806.806,0,1,1-1.557.415c-3.709-13.909-.815-18.765,2.265-20.389a7.72,7.72,0,0,1,8.545,1.357,11.442,11.442,0,0,1,2.191,10.664,21.535,21.535,0,0,1-3.338,5.919c-.492.69-1,1.4-1.458,2.114-1.114,1.733-2.808,5.065-1.633,7.91a.806.806,0,0,1-.744,1.114Z" transform="translate(-1193.977 -810.956)" fill="#00223d"/>
      </g>
      <g id="Grupo_46177" data-name="Grupo 46177" transform="translate(271.337 60.568)">
        <g id="Grupo_46174" data-name="Grupo 46174" transform="translate(0 21.978)">
          <path id="Trazado_96241" data-name="Trazado 96241" d="M1771.656,923.607l-5.231-5.1a4.261,4.261,0,0,0-2.975-1.211H1752.1a4.262,4.262,0,0,0-2.939,1.175l-5.353,5.1a4.261,4.261,0,0,0-1.321,2.973l-1.335,50.4a4.261,4.261,0,0,0,4.26,4.374h25.6a4.262,4.262,0,0,0,4.257-4.459l-2.336-50.39A4.262,4.262,0,0,0,1771.656,923.607Zm-13.794,2.627a3.184,3.184,0,1,1,2.6-2.6A3.186,3.186,0,0,1,1757.863,926.234Z" transform="translate(-1741.153 -917.294)" fill="url(#linear-gradient)"/>
        </g>
        <path id="Trazado_96242" data-name="Trazado 96242" d="M1770.825,995.462l18.893-3.208a1.231,1.231,0,0,1,1.437,1.213v1.069a1.231,1.231,0,0,1-1.092,1.223l-18.893,2.139a1.231,1.231,0,0,1-1.369-1.223h0A1.231,1.231,0,0,1,1770.825,995.462Z" transform="translate(-1763.879 -954.77)" fill="#00223d"/>
        <path id="Trazado_96243" data-name="Trazado 96243" d="M1770.825,1022.755l18.893-3.208a1.231,1.231,0,0,1,1.437,1.214v1.069a1.231,1.231,0,0,1-1.092,1.223l-18.893,2.139a1.231,1.231,0,0,1-1.369-1.223h0A1.231,1.231,0,0,1,1770.825,1022.755Z" transform="translate(-1763.879 -976.421)" fill="#00223d"/>
        <g id="Grupo_46176" data-name="Grupo 46176" transform="translate(4.929 56.851)">
          <circle id="Elipse_3878" data-name="Elipse 3878" cx="10.476" cy="10.476" r="10.476" transform="matrix(0.138, -0.99, 0.99, 0.138, 0, 20.752)" fill="#00223d"/>
          <circle id="Elipse_3879" data-name="Elipse 3879" cx="10.127" cy="10.127" r="10.127" transform="translate(0.555 2.969) rotate(-6.845)" fill="#f6c343"/>
          <path id="Trazado_96244" data-name="Trazado 96244" d="M1780.26,1101.991a.394.394,0,0,1-.351-.572,9.7,9.7,0,0,1,8.7-5.358,9.81,9.81,0,0,1,1.757.158.394.394,0,1,1-.142.775,9.009,9.009,0,0,0-1.616-.145,8.917,8.917,0,0,0-8,4.925A.394.394,0,0,1,1780.26,1101.991Z" transform="translate(-1776.794 -1093.987)" fill="#fff" opacity="0.61"/>
          <circle id="Elipse_3880" data-name="Elipse 3880" cx="8.572" cy="8.572" r="8.572" transform="translate(2.024 5.207) rotate(-10.699)" fill="#fff" opacity="0.61"/>
          <g id="Grupo_46175" data-name="Grupo 46175" transform="translate(8.262 5.971)">
            <path id="Trazado_96245" data-name="Trazado 96245" d="M1807.914,1127.355v-.932a7.61,7.61,0,0,1-2.616-.567.54.54,0,0,1-.3-.637l.237-.868a.544.544,0,0,1,.738-.356,6.316,6.316,0,0,0,2.416.509c.936,0,1.635-.318,1.635-.968,0-.587-.539-.936-1.841-1.285-1.857-.508-3.19-1.317-3.19-2.952,0-1.476,1.079-2.6,2.952-2.9v-.933a.543.543,0,0,1,.543-.543h.548a.543.543,0,0,1,.543.543v.837a6.936,6.936,0,0,1,2.074.373.541.541,0,0,1,.338.653l-.218.8a.541.541,0,0,1-.715.366,5.666,5.666,0,0,0-2.034-.369c-1.111,0-1.428.46-1.428.873,0,.508.667.857,2.111,1.3,2.063.619,2.92,1.476,2.92,3.015,0,1.412-1.047,2.682-3.079,3v1.043a.543.543,0,0,1-.543.543h-.548A.544.544,0,0,1,1807.914,1127.355Z" transform="translate(-1804.979 -1114.916)" fill="#f6c343"/>
          </g>
        </g>
        <path id="Trazado_96246" data-name="Trazado 96246" d="M1791.478,840.774a.806.806,0,0,1-.745-.5c-1.382-3.346.2-6.957,1.767-9.4.478-.744,1-1.473,1.5-2.178a20.03,20.03,0,0,0,3.112-5.466,9.8,9.8,0,0,0-1.876-9.131,6.237,6.237,0,0,0-6.572-.982c-2.1,1.106-5.076,4.985-1.459,18.548a.806.806,0,0,1-1.558.415c-3.709-13.909-.815-18.765,2.266-20.389a7.72,7.72,0,0,1,8.546,1.357,11.442,11.442,0,0,1,2.191,10.664,21.538,21.538,0,0,1-3.338,5.919c-.492.69-1,1.4-1.458,2.114-1.114,1.733-2.809,5.065-1.633,7.91a.806.806,0,0,1-.745,1.114Z" transform="translate(-1775.068 -810.956)" fill="#00223d"/>
      </g>
    </g>
    <g id="Grupo_46186" data-name="Grupo 46186" transform="translate(419.799 368.424)">
      <path id="Trazado_96247" data-name="Trazado 96247" d="M945.107,1485.612s-.516,2.92-.769,5.81a1.991,1.991,0,0,0,1.9,2.157c3.849.161,12.081.472,15.035.34a.648.648,0,0,0,.57-.887h0a1.451,1.451,0,0,0-.742-.781l-13.6-6.25Z" transform="translate(-912.252 -1345.691)" fill="#d5f2e8"/>
      <path id="Trazado_96248" data-name="Trazado 96248" d="M946.042,1475.242l.414,3.492s2.382,1.109,4.009-.14l-.986-3.892Z" transform="translate(-913.609 -1337.036)" fill="url(#linear-gradient-5)"/>
      <path id="Trazado_96249" data-name="Trazado 96249" d="M906.094,1159.646c-.179.912-.961,45.508,3.806,65.494a.679.679,0,0,1-.4.789,11.815,11.815,0,0,1-3.882.789,1.169,1.169,0,0,1-1.159-.839c-1.363-4.637-7.892-27.869-8.744-50.062-.952-24.8,0-.844,0-.844l.558-15.329Z" transform="translate(-873.35 -1087.093)" fill="#7d6eb2"/>
      <path id="Trazado_96250" data-name="Trazado 96250" d="M866.1,1492.981a21.008,21.008,0,0,0-1.616,5.39,1.215,1.215,0,0,0,1.069,1.455c1.271.125,3.227.286,4.794.275a1.211,1.211,0,0,0,1.2-1.351,10.217,10.217,0,0,0-2.385-5.6Z" transform="translate(-848.891 -1351.536)" fill="#d5f2e8"/>
      <path id="Trazado_96251" data-name="Trazado 96251" d="M868.912,1470.461l.968,5.281a3.414,3.414,0,0,0,2.851.2l-.462-5.682Z" transform="translate(-852.421 -1333.508)" fill="url(#linear-gradient-5)"/>
      <path id="Trazado_96252" data-name="Trazado 96252" d="M850.5,1156.8c-3.9,23.53.846,58.155,2.446,64.932a1.056,1.056,0,0,0,.853.8,7.093,7.093,0,0,0,3.049-.122.969.969,0,0,0,.7-.892c.215-5.479-.172-39.115,3.461-52.408a3.02,3.02,0,0,1,1.165-1.666l7.051-5.013.54-8.1Z" transform="translate(-836.62 -1082.879)" fill="#7d6eb2"/>
      <g id="Grupo_46179" data-name="Grupo 46179" transform="translate(12.42 11.242)">
        <path id="Trazado_96253" data-name="Trazado 96253" d="M875.512,943.227c-11.684-.193-24.576,3.068-24.576,3.068-3.483,20.322-.609,43.761-.609,43.761,9.045,2.372,19.249-1.45,19.249-1.45,1.5-8.494,8.518-32.4,8.518-32.4a38.488,38.488,0,0,0,14.284-4.533,25.053,25.053,0,0,1-4.952-10.357A39.2,39.2,0,0,1,875.512,943.227Z" transform="translate(-849.213 -925.132)" fill="#d5f2e8"/>
        <path id="Trazado_96254" data-name="Trazado 96254" d="M1056.706,863.89a2.236,2.236,0,0,0-2.6-.73c-1.719,7.263-10.735,13.152-20,16.03a25.055,25.055,0,0,0,4.952,10.357C1054.432,880.9,1056.706,863.89,1056.706,863.89Z" transform="translate(-995.895 -863.005)" fill="url(#linear-gradient-5)"/>
      </g>
      <g id="Grupo_46180" data-name="Grupo 46180" transform="translate(70.631)">
        <path id="Trazado_96255" data-name="Trazado 96255" d="M1133.185,821.091c.12.382-1.271.963-2.09-.6-.028-.748-.484-3.955-.037-4.564a59.732,59.732,0,0,1,7-7.317,1.1,1.1,0,0,1,.137,1.526l-2.24,2.334a10.85,10.85,0,0,1,1.308,2.586,3.138,3.138,0,0,1-.313,2.31c-.393.708-.93,1.629-1.437,2.35A3.1,3.1,0,0,1,1133.185,821.091Z" transform="translate(-1130.864 -808.611)" fill="url(#linear-gradient-8)"/>
        <path id="Trazado_96256" data-name="Trazado 96256" d="M1140.467,834.614l-2.041,1.73-.641,1.723,1.82,2.019a23.482,23.482,0,0,1,1.067-4.159C1141.127,835.188,1140.891,834.83,1140.467,834.614Z" transform="translate(-1136.355 -829.24)" fill="url(#linear-gradient-9)"/>
      </g>
      <path id="Trazado_96257" data-name="Trazado 96257" d="M813.253,976.715,808.771,965.4s-10.914,7.415-12.708,16.817a24.825,24.825,0,0,1,9.192,2.577C806.913,981.066,813.253,976.715,813.253,976.715Z" transform="translate(-794.628 -932.996)" fill="#d5f2e8"/>
      <path id="Trazado_96258" data-name="Trazado 96258" d="M904.844,904.663l-3.718,10.751a.387.387,0,0,0,.177.466,8.739,8.739,0,0,0,9.064-.61,1.824,1.824,0,0,0,.84-1.3l1.2-9.305Z" transform="translate(-877.96 -884.811)" fill="url(#linear-gradient-10)"/>
      <g id="Grupo_46181" data-name="Grupo 46181" transform="translate(19.828 4.308)">
        <path id="Trazado_96259" data-name="Trazado 96259" d="M921.759,856.492s4.082,7.685,3.559,10.789-5.583,2.881-10,.36l-3.087-8.3Z" transform="translate(-906.614 -850.905)" fill="url(#linear-gradient-11)"/>
        <path id="Trazado_96260" data-name="Trazado 96260" d="M893.957,842.119a.317.317,0,0,0,.138-.464,8.267,8.267,0,0,1-1.136-2.412s-.734-.47,1.868-1.093,6.482-1.589,7.3-3.8c.8-2.159-1.294-7.589-4.627-3.263a.317.317,0,0,1-.5,0,3.265,3.265,0,0,0-3.977-1.292,3,3,0,0,0-2.051,2.894.315.315,0,0,1-.373.322A3.652,3.652,0,0,0,886.329,835c-.871,1.913-.3,3,.21,3.526a.316.316,0,0,1-.135.524,1.9,1.9,0,0,0-1.341,2.169c.111,2.009,2.357,1.832,3,1.74a.317.317,0,0,1,.281.1c.548.607,3.018,3.183,5.692,3.493a.319.319,0,0,0,.335-.422l-1.157-3.363a.318.318,0,0,1,.172-.394Z" transform="translate(-885.058 -829.457)" fill="#00223d"/>
        <path id="Trazado_96261" data-name="Trazado 96261" d="M918.347,889.238s-2.907-1.995-3.119-.315,2.618,2.433,4.019,1.807Z" transform="translate(-908.983 -876.099)" fill="url(#linear-gradient-12)"/>
      </g>
      <g id="Grupo_46185" data-name="Grupo 46185" transform="translate(14.357 69.204)">
        <path id="Trazado_96262" data-name="Trazado 96262" d="M1017.181,1237.334a.815.815,0,0,1-.8-.665l-5.3-28.434a.814.814,0,0,1,1.6-.3l5.3,28.434a.815.815,0,0,1-.8.963Z" transform="translate(-979.553 -1194.081)" fill="url(#linear-gradient-13)"/>
        <path id="Trazado_96263" data-name="Trazado 96263" d="M1013.263,1235.2H969.714a1.628,1.628,0,1,1,0-3.256h42.479l11-25.437H960.353a1.628,1.628,0,0,1,0-3.256h65.323a1.628,1.628,0,0,1,1.494,2.275l-12.413,28.693A1.628,1.628,0,0,1,1013.263,1235.2Z" transform="translate(-938.028 -1190.891)" fill="url(#linear-gradient-13)"/>
        <g id="Grupo_46182" data-name="Grupo 46182">
          <path id="Trazado_96264" data-name="Trazado 96264" d="M930.929,1216.235H896.613a1.694,1.694,0,0,1-1.624-1.211l-20.437-68.185H860.278a1.695,1.695,0,1,1,0-3.389h15.538a1.694,1.694,0,0,1,1.624,1.211l20.437,68.186h33.052a1.695,1.695,0,1,1,0,3.389Z" transform="translate(-858.583 -1143.45)" fill="url(#linear-gradient-13)"/>
        </g>
        <g id="Grupo_46183" data-name="Grupo 46183" transform="translate(33.005 70.231)">
          <circle id="Elipse_3881" data-name="Elipse 3881" cx="4.236" cy="4.236" r="4.236" transform="translate(0 8.246) rotate(-76.718)" fill="#00223d"/>
          <circle id="Elipse_3882" data-name="Elipse 3882" cx="3.06" cy="3.06" r="3.06" transform="translate(1.919 2.037)" fill="url(#linear-gradient-13)"/>
        </g>
        <g id="Grupo_46184" data-name="Grupo 46184" transform="translate(65.297 70.467)">
          <circle id="Elipse_3883" data-name="Elipse 3883" cx="4.236" cy="4.236" r="4.236" transform="translate(0 8.364) rotate(-80.783)" fill="#00223d"/>
          <circle id="Elipse_3884" data-name="Elipse 3884" cx="3.06" cy="3.06" r="3.06" transform="translate(1.683 1.801)" fill="url(#linear-gradient-13)"/>
        </g>
        <path id="Trazado_96265" data-name="Trazado 96265" d="M1070.379,1238.959a.814.814,0,0,1-.813-.8l-.564-28.174a.814.814,0,0,1,.8-.83.8.8,0,0,1,.83.8l.564,28.174a.814.814,0,0,1-.8.83Z" transform="translate(-1025.512 -1195.577)" fill="url(#linear-gradient-13)"/>
        <path id="Trazado_96266" data-name="Trazado 96266" d="M1112.565,1238.823a.814.814,0,0,1-.814-.814v-28.046a.814.814,0,1,1,1.628,0v28.046A.814.814,0,0,1,1112.565,1238.823Z" transform="translate(-1059.427 -1195.57)" fill="url(#linear-gradient-13)"/>
        <path id="Trazado_96267" data-name="Trazado 96267" d="M1159.467,1238.7h-.006a.814.814,0,0,1-.809-.82l.193-27.915a.814.814,0,0,1,.814-.808h.006a.814.814,0,0,1,.809.819l-.193,27.915A.814.814,0,0,1,1159.467,1238.7Z" transform="translate(-1096.635 -1195.578)" fill="url(#linear-gradient-13)"/>
        <path id="Trazado_96268" data-name="Trazado 96268" d="M1189.938,1240.025a.815.815,0,0,1-.8-.969l5.291-27.269a.814.814,0,1,1,1.6.31l-5.291,27.269A.815.815,0,0,1,1189.938,1240.025Z" transform="translate(-1120.808 -1197.141)" fill="url(#linear-gradient-13)"/>
        <path id="Trazado_96269" data-name="Trazado 96269" d="M1034.463,1242.67h-60.1a.814.814,0,0,1,0-1.628h60.1a.814.814,0,0,1,0,1.628Z" transform="translate(-949.789 -1220.872)" fill="url(#linear-gradient-13)"/>
        <path id="Trazado_96270" data-name="Trazado 96270" d="M1041.261,1282.692H987.5a.814.814,0,1,1,0-1.628h53.766a.814.814,0,1,1,0,1.628Z" transform="translate(-960.206 -1252.622)" fill="url(#linear-gradient-13)"/>
        <path id="Trazado_96271" data-name="Trazado 96271" d="M1045.581,1319.588H997.5a.814.814,0,1,1,0-1.628h48.08a.814.814,0,1,1,0,1.628Z" transform="translate(-968.144 -1281.893)" fill="url(#linear-gradient-13)"/>
      </g>
      <path id="Trazado_96272" data-name="Trazado 96272" d="M790.63,1045.136s-7.459,16.99,10.774,19.476l2.486-2.072s-9.117-4.973-4.144-14.918C799.747,1047.622,794.359,1043.064,790.63,1045.136Z" transform="translate(-789.12 -995.823)" fill="url(#linear-gradient-25)"/>
      <path id="Trazado_96273" data-name="Trazado 96273" d="M851.044,1131.42h6.63s4.144,5.387,3.729,6.63-4.51.255-4.51.255l-2.12-3.57s-6.216.415-6.216-1.243S851.044,1131.42,851.044,1131.42Z" transform="translate(-836.273 -1064.702)" fill="url(#linear-gradient-26)"/>
    </g>
    <g id="Grupo_46187" data-name="Grupo 46187" transform="translate(541.525 445.851)">
      <path id="Trazado_96274" data-name="Trazado 96274" d="M1479.414,1206.13a1.22,1.22,0,0,1-1.219-1.182c-.024-.774-.443-18.976,12.118-20.92a8.612,8.612,0,0,1,7.072,1.887c6.2,5.11,6.783,18.386,6.8,18.949a1.22,1.22,0,0,1-2.437.095c-.005-.127-.563-12.75-5.921-17.162a6.188,6.188,0,0,0-5.145-1.357c-10.453,1.618-10.058,18.266-10.053,18.434a1.22,1.22,0,0,1-1.181,1.257Z" transform="translate(-1457.5 -1183.767)" fill="#00223d"/>
      <path id="Trazado_96275" data-name="Trazado 96275" d="M1378.118,1314.552l8.926-50.922,33.533-.554,10.808,54.84h-50.365A2.935,2.935,0,0,1,1378.118,1314.552Z" transform="translate(-1378.086 -1246.575)" fill="#7d6eb2"/>
      <path id="Trazado_96276" data-name="Trazado 96276" d="M1590.194,1263.63l-6.513-.554,10.808,54.84h6.466a2.067,2.067,0,0,0,2.023-2.488Z" transform="translate(-1541.189 -1246.575)" fill="#5d4b9d"/>
      <path id="Trazado_96277" data-name="Trazado 96277" d="M1444.549,1205.459a1.22,1.22,0,0,1-1.218-1.182c-.024-.774-.443-18.976,12.118-20.92a8.61,8.61,0,0,1,7.072,1.887c6.2,5.11,6.783,18.386,6.8,18.949a1.22,1.22,0,0,1-2.438.095c-.005-.127-.562-12.75-5.921-17.162a6.188,6.188,0,0,0-5.145-1.357c-10.453,1.617-10.058,18.266-10.053,18.434a1.22,1.22,0,0,1-1.181,1.257Z" transform="translate(-1429.841 -1183.234)" fill="#00223d"/>
    </g>
    <g id="Grupo_46188" data-name="Grupo 46188" transform="translate(584.732 467.835)">
      <path id="Trazado_96278" data-name="Trazado 96278" d="M1676.769,1308.346a.529.529,0,0,1-.528-.512,29.857,29.857,0,0,1,1.038-8.081c1.549-5.524,4.659-8.8,8.994-9.47a6.939,6.939,0,0,1,5.7,1.517c5.181,4.27,5.674,15.52,5.692,16a.529.529,0,1,1-1.056.041c0-.112-.494-11.255-5.309-15.222a5.923,5.923,0,0,0-4.864-1.288c-9.492,1.469-9.141,16.323-9.137,16.473a.529.529,0,0,1-.512.545Z" transform="translate(-1657.822 -1290.064)" fill="#00223d"/>
      <path id="Trazado_96279" data-name="Trazado 96279" d="M1587.169,1388.638l7.718-32.075,28.992-.479,9.345,35.462h-43.544A2.537,2.537,0,0,1,1587.169,1388.638Z" transform="translate(-1587.141 -1342.344)" fill="#26aab7"/>
      <path id="Trazado_96280" data-name="Trazado 96280" d="M1770.526,1356.563l-5.63-.479,9.345,35.462h5.59a1.787,1.787,0,0,0,1.749-2.151Z" transform="translate(-1728.157 -1342.344)" fill="#167377"/>
      <path id="Trazado_96281" data-name="Trazado 96281" d="M1646.626,1307.767a.529.529,0,0,1-.529-.512,29.865,29.865,0,0,1,1.038-8.081c1.549-5.524,4.66-8.8,8.994-9.47a6.939,6.939,0,0,1,5.7,1.518c5.181,4.27,5.674,15.52,5.692,16a.529.529,0,1,1-1.056.041c0-.112-.494-11.255-5.309-15.222a5.92,5.92,0,0,0-4.864-1.288c-9.492,1.469-9.141,16.323-9.137,16.473a.529.529,0,0,1-.512.545Z" transform="translate(-1633.909 -1289.605)" fill="#00223d"/>
    </g>
    <g id="Grupo_46189" data-name="Grupo 46189" transform="translate(503.598 253.746)">
      <path id="Trazado_96282" data-name="Trazado 96282" d="M1372.591,1293.008l-1.171-.209a.2.2,0,1,1,.071-.4h.008l1.157.217h.006a.2.2,0,0,1-.071.388Z" transform="translate(-1334.739 -1077.731)" fill="url(#linear-gradient-27)"/>
      <path id="Trazado_96283" data-name="Trazado 96283" d="M1354,1288.387l-1.142-.328a.219.219,0,1,1,.121-.421h0l.006,0,1.127.334.007,0a.214.214,0,0,1-.12.411Z" transform="translate(-1320.018 -1073.948)" fill="url(#linear-gradient-28)"/>
      <path id="Trazado_96284" data-name="Trazado 96284" d="M1335.961,1281.923l-1.1-.44a.236.236,0,0,1,.175-.439h0l.006,0,1.088.444.006,0a.231.231,0,0,1-.173.429Z" transform="translate(-1305.747 -1068.71)" fill="url(#linear-gradient-28)"/>
      <path id="Trazado_96285" data-name="Trazado 96285" d="M1318.628,1273.746l-1.057-.543a.253.253,0,0,1,.232-.451h0l.006,0,1.04.546.006,0a.248.248,0,0,1-.229.441Z" transform="translate(-1292.042 -1062.123)" fill="url(#linear-gradient-28)"/>
      <path id="Trazado_96286" data-name="Trazado 96286" d="M1302.124,1264l-1-.638a.271.271,0,0,1,.29-.457h0l.006,0,.986.639.006,0a.265.265,0,0,1-.286.446Z" transform="translate(-1279.001 -1054.299)" fill="url(#linear-gradient-28)"/>
      <path id="Trazado_96287" data-name="Trazado 96287" d="M1286.545,1252.823l-.944-.723a.288.288,0,0,1,.35-.457h0l.006,0,.926.723.006,0a.282.282,0,0,1-.345.447Z" transform="translate(-1266.699 -1045.352)" fill="url(#linear-gradient-28)"/>
      <path id="Trazado_96288" data-name="Trazado 96288" d="M1271.971,1240.362l-.88-.8a.3.3,0,1,1,.41-.451l0,0,.005.005.862.8.005.005a.3.3,0,0,1-.4.441Z" transform="translate(-1255.198 -1035.394)" fill="url(#linear-gradient-28)"/>
      <path id="Trazado_96289" data-name="Trazado 96289" d="M1258.469,1226.745l-.812-.87a.322.322,0,1,1,.47-.439l0,0,.005.006.794.865.005.006a.316.316,0,0,1-.464.43Z" transform="translate(-1244.551 -1024.528)" fill="url(#linear-gradient-28)"/>
      <path id="Trazado_96290" data-name="Trazado 96290" d="M1246.1,1212.093l-.74-.931a.339.339,0,0,1,.531-.422l0,0,.005.006.722.925,0,.006a.334.334,0,0,1-.524.413Z" transform="translate(-1234.805 -1012.849)" fill="url(#linear-gradient-28)"/>
      <path id="Trazado_96291" data-name="Trazado 96291" d="M1234.909,1196.507l-.666-.988a.356.356,0,0,1,.591-.4l0,0,0,.007.648.98,0,.007a.351.351,0,0,1-.583.389Z" transform="translate(-1225.997 -1000.435)" fill="url(#linear-gradient-28)"/>
      <path id="Trazado_96292" data-name="Trazado 96292" d="M1224.972,1180.1l-.586-1.036a.373.373,0,0,1,.649-.367l0,0,0,.008.569,1.026,0,.008a.368.368,0,0,1-.642.359Z" transform="translate(-1218.187 -987.381)" fill="url(#linear-gradient-28)"/>
      <path id="Trazado_96293" data-name="Trazado 96293" d="M1216.346,1162.975l-.5-1.08a.39.39,0,1,1,.707-.329v0l0,.008.486,1.067,0,.008a.385.385,0,0,1-.7.322Z" transform="translate(-1211.419 -973.76)" fill="url(#linear-gradient-28)"/>
      <path id="Trazado_96294" data-name="Trazado 96294" d="M1209.11,1145.225l-.414-1.12a.4.4,0,0,1,.76-.281v0l0,.009.4,1.1,0,.009a.4.4,0,0,1-.754.277Z" transform="translate(-1205.758 -959.655)" fill="url(#linear-gradient-28)"/>
      <path id="Trazado_96295" data-name="Trazado 96295" d="M1203.359,1126.96l-.32-1.149a.415.415,0,0,1,.8-.223v0l0,.01.309,1.13,0,.01a.411.411,0,0,1-.793.219Z" transform="translate(-1201.278 -945.157)" fill="url(#linear-gradient-40)"/>
      <path id="Trazado_96296" data-name="Trazado 96296" d="M1199.114,1108.307l-.228-1.169a.424.424,0,1,1,.832-.162v0l0,.01.219,1.152,0,.009a.421.421,0,0,1-.827.159Z" transform="translate(-1197.989 -930.359)" fill="url(#linear-gradient-41)"/>
      <path id="Trazado_96297" data-name="Trazado 96297" d="M1196.275,1089.387l-.142-1.183a.434.434,0,1,1,.861-.1v.012l.134,1.165v.009a.431.431,0,0,1-.856.1Z" transform="translate(-1195.809 -915.355)" fill="url(#linear-gradient-28)"/>
      <path id="Trazado_96298" data-name="Trazado 96298" d="M1194.809,1070.315l-.057-1.19a.443.443,0,1,1,.885-.042v.011l.05,1.172v.009a.44.44,0,0,1-.88.04Z" transform="translate(-1194.716 -900.235)" fill="url(#linear-gradient-28)"/>
      <path id="Trazado_96299" data-name="Trazado 96299" d="M1194.578,1051.19l.025-1.191a.453.453,0,0,1,.906.019v.011l-.03,1.172v.009a.45.45,0,0,1-.9-.021Z" transform="translate(-1194.578 -885.079)" fill="url(#linear-gradient-41)"/>
      <path id="Trazado_96300" data-name="Trazado 96300" d="M1195.425,1032.1l.1-1.186a.462.462,0,1,1,.921.081v.011l-.108,1.168v.009a.459.459,0,0,1-.915-.082Z" transform="translate(-1195.248 -869.955)" fill="url(#linear-gradient-45)"/>
      <path id="Trazado_96301" data-name="Trazado 96301" d="M1197.512,1013.128l.179-1.177a.472.472,0,0,1,.934.142v0l0,.009-.182,1.159,0,.009a.469.469,0,0,1-.927-.143Z" transform="translate(-1196.901 -854.928)" fill="url(#linear-gradient-28)"/>
      <path id="Trazado_96302" data-name="Trazado 96302" d="M1200.787,994.342l.251-1.164a.482.482,0,1,1,.942.2v0l0,.009-.253,1.146,0,.008a.479.479,0,0,1-.936-.2Z" transform="translate(-1199.495 -840.051)" fill="url(#linear-gradient-28)"/>
      <path id="Trazado_96303" data-name="Trazado 96303" d="M1205.193,975.805l.319-1.147a.491.491,0,1,1,.947.264v0l0,.008-.32,1.129,0,.008a.488.488,0,0,1-.94-.264Z" transform="translate(-1202.984 -825.376)" fill="url(#linear-gradient-28)"/>
      <path id="Trazado_96304" data-name="Trazado 96304" d="M1210.676,957.574l.384-1.126a.5.5,0,0,1,.948.323v0l0,.008-.384,1.108,0,.008a.5.5,0,0,1-.942-.324Z" transform="translate(-1207.327 -810.945)" fill="url(#linear-gradient-49)"/>
      <path id="Trazado_96305" data-name="Trazado 96305" d="M1217.193,939.686l.447-1.1a.51.51,0,1,1,.946.383v0l0,.008-.446,1.087,0,.008a.508.508,0,0,1-.94-.383Z" transform="translate(-1212.489 -796.788)" fill="url(#linear-gradient-28)"/>
      <path id="Trazado_96306" data-name="Trazado 96306" d="M1224.695,922.211l.506-1.077a.52.52,0,0,1,.942.443v0l0,.008-.5,1.059,0,.008a.517.517,0,0,1-.935-.443Z" transform="translate(-1218.43 -782.962)" fill="url(#linear-gradient-28)"/>
      <path id="Trazado_96307" data-name="Trazado 96307" d="M1233.14,905.184l.564-1.048a.53.53,0,1,1,.933.5v0l0,.007-.561,1.031,0,.008a.527.527,0,0,1-.927-.5Z" transform="translate(-1225.119 -769.493)" fill="url(#linear-gradient-28)"/>
      <path id="Trazado_96308" data-name="Trazado 96308" d="M1242.494,888.645l.62-1.018a.539.539,0,0,1,.921.561v0l0,.007-.616,1,0,.007a.536.536,0,0,1-.915-.561Z" transform="translate(-1232.528 -756.412)" fill="url(#linear-gradient-28)"/>
      <path id="Trazado_96309" data-name="Trazado 96309" d="M1252.746,872.667l.675-.981a.545.545,0,1,1,.9.618h0l0,.007-.667.966,0,.007a.544.544,0,0,1-.9-.617Z" transform="translate(-1240.648 -743.784)" fill="url(#linear-gradient-28)"/>
      <path id="Trazado_96310" data-name="Trazado 96310" d="M1263.836,857.259l.722-.946a.548.548,0,1,1,.871.665h0l0,.006-.714.932,0,.006a.547.547,0,0,1-.869-.664Z" transform="translate(-1249.432 -731.604)" fill="url(#linear-gradient-28)"/>
      <path id="Trazado_96311" data-name="Trazado 96311" d="M1275.661,842.408l.765-.911a.551.551,0,1,1,.844.709h0l0,.006-.757.9,0,.006a.55.55,0,0,1-.842-.709Z" transform="translate(-1258.801 -719.866)" fill="url(#linear-gradient-28)"/>
      <path id="Trazado_96312" data-name="Trazado 96312" d="M1288.169,828.126l.805-.875a.554.554,0,1,1,.816.751h0l0,.005-.8.863,0,.005a.553.553,0,0,1-.813-.75Z" transform="translate(-1268.71 -708.578)" fill="url(#linear-gradient-28)"/>
      <path id="Trazado_96313" data-name="Trazado 96313" d="M1301.306,814.417l.842-.839a.557.557,0,1,1,.787.79h0l-.005.005-.834.828-.005.005a.556.556,0,0,1-.785-.789Z" transform="translate(-1279.117 -697.744)" fill="url(#linear-gradient-28)"/>
      <path id="Trazado_96314" data-name="Trazado 96314" d="M1315.018,801.28l.876-.8a.561.561,0,1,1,.758.826h0l-.005,0-.867.793-.005,0a.56.56,0,0,1-.756-.826Z" transform="translate(-1289.982 -687.362)" fill="url(#linear-gradient-28)"/>
      <path id="Trazado_96315" data-name="Trazado 96315" d="M1329.257,788.709l.907-.768a.564.564,0,1,1,.729.86h0l-.005,0-.9.758-.005,0a.563.563,0,0,1-.727-.86Z" transform="translate(-1301.264 -677.428)" fill="url(#linear-gradient-28)"/>
      <path id="Trazado_96316" data-name="Trazado 96316" d="M1343.973,776.7l.935-.734a.567.567,0,0,1,.7.892h0l0,0-.926.725,0,0a.566.566,0,0,1-.7-.891Z" transform="translate(-1312.925 -667.935)" fill="url(#linear-gradient-28)"/>
      <path id="Trazado_96317" data-name="Trazado 96317" d="M1359.125,765.229l.959-.7a.57.57,0,0,1,.672.921h0l0,0-.95.691,0,0a.569.569,0,0,1-.67-.92Z" transform="translate(-1324.931 -658.875)" fill="url(#linear-gradient-28)"/>
      <path id="Trazado_96318" data-name="Trazado 96318" d="M1374.662,754.295l.983-.667a.573.573,0,1,1,.644.949h0l0,0-.974.659,0,0a.572.572,0,0,1-.642-.948Z" transform="translate(-1337.243 -650.234)" fill="url(#linear-gradient-28)"/>
      <path id="Trazado_96319" data-name="Trazado 96319" d="M1390.569,743.869l1-.636a.577.577,0,1,1,.617.974h0l0,0-1,.628,0,0a.576.576,0,0,1-.615-.973Z" transform="translate(-1349.849 -641.995)" fill="url(#linear-gradient-28)"/>
      <path id="Trazado_96320" data-name="Trazado 96320" d="M1406.8,733.947l1.023-.605a.58.58,0,0,1,.59,1h0l0,0-1.015.6,0,0a.579.579,0,0,1-.589-1Z" transform="translate(-1362.71 -634.156)" fill="url(#linear-gradient-28)"/>
      <path id="Trazado_96321" data-name="Trazado 96321" d="M1423.317,724.512l1.04-.575a.583.583,0,0,1,.564,1.02h0l0,0-1.032.569,0,0a.582.582,0,0,1-.562-1.019Z" transform="translate(-1375.803 -626.701)" fill="url(#linear-gradient-28)"/>
      <path id="Trazado_96322" data-name="Trazado 96322" d="M1440.1,715.549l1.055-.546a.586.586,0,0,1,.539,1.041h0l0,0-1.047.54,0,0a.585.585,0,0,1-.537-1.04Z" transform="translate(-1389.106 -619.62)" fill="url(#linear-gradient-28)"/>
      <path id="Trazado_96323" data-name="Trazado 96323" d="M1457.121,707.042l1.067-.518a.589.589,0,0,1,.515,1.06h0l0,0-1.06.512,0,0a.588.588,0,0,1-.513-1.059Z" transform="translate(-1402.596 -612.898)" fill="url(#linear-gradient-28)"/>
      <path id="Trazado_96324" data-name="Trazado 96324" d="M1474.343,698.954l1.077-.492a.592.592,0,1,1,.492,1.078h0l0,0-1.071.487,0,0a.591.591,0,0,1-.491-1.076Z" transform="translate(-1416.247 -606.506)" fill="url(#linear-gradient-28)"/>
      <path id="Trazado_96325" data-name="Trazado 96325" d="M1491.742,691.255l1.087-.468a.6.6,0,0,1,.471,1.094h0l-1.081.464h0a.595.595,0,0,1-.47-1.093Z" transform="translate(-1430.039 -600.421)" fill="url(#linear-gradient-28)"/>
      <path id="Trazado_96326" data-name="Trazado 96326" d="M1509.3,683.915l1.1-.447a.6.6,0,0,1,.452,1.109h0l-1.092.443h0a.6.6,0,0,1-.45-1.108Z" transform="translate(-1443.956 -594.618)" fill="url(#linear-gradient-28)"/>
      <path id="Trazado_96327" data-name="Trazado 96327" d="M1527,676.908l1.1-.427a.6.6,0,0,1,.434,1.123h0l-1.1.423h0a.6.6,0,0,1-.433-1.121Z" transform="translate(-1457.989 -589.078)" fill="url(#linear-gradient-28)"/>
      <path id="Trazado_96328" data-name="Trazado 96328" d="M1544.811,670.2l1.11-.409a.605.605,0,1,1,.418,1.136h0l-1.106.405h0a.6.6,0,0,1-.417-1.134Z" transform="translate(-1472.112 -583.776)" fill="url(#linear-gradient-28)"/>
      <path id="Trazado_96329" data-name="Trazado 96329" d="M1562.73,663.783l1.117-.391a.605.605,0,1,1,.4,1.142h0l-1.112.391h0a.606.606,0,1,1-.4-1.143Z" transform="translate(-1486.319 -578.7)" fill="url(#linear-gradient-28)"/>
      <path id="Trazado_96330" data-name="Trazado 96330" d="M1580.752,657.618l1.122-.377a.6.6,0,1,1,.384,1.142h0l-1.117.377h0a.6.6,0,0,1-.386-1.143Z" transform="translate(-1500.612 -573.822)" fill="url(#linear-gradient-28)"/>
      <path id="Trazado_96331" data-name="Trazado 96331" d="M1598.853,651.659l1.126-.365a.6.6,0,1,1,.369,1.141l-1.122.366a.6.6,0,1,1-.376-1.141Z" transform="translate(-1514.969 -569.106)" fill="url(#linear-gradient-28)"/>
      <path id="Trazado_96332" data-name="Trazado 96332" d="M1617.019,645.875l1.129-.355a.6.6,0,1,1,.358,1.139l-1.126.356a.6.6,0,0,1-.363-1.139Z" transform="translate(-1529.378 -564.527)" fill="url(#linear-gradient-28)"/>
      <path id="Trazado_96333" data-name="Trazado 96333" d="M1635.237,640.234l1.132-.347a.594.594,0,1,1,.348,1.137l-1.129.348a.6.6,0,1,1-.353-1.137Z" transform="translate(-1543.828 -560.059)" fill="url(#linear-gradient-28)"/>
      <path id="Trazado_96334" data-name="Trazado 96334" d="M1653.494,634.706l1.133-.341a.592.592,0,0,1,.341,1.133l-1.131.342a.592.592,0,0,1-.344-1.134Z" transform="translate(-1558.311 -555.679)" fill="url(#linear-gradient-28)"/>
      <path id="Trazado_96335" data-name="Trazado 96335" d="M1671.774,629.258l1.134-.336a.589.589,0,1,1,.335,1.129l-1.133.338a.59.59,0,0,1-.338-1.13Z" transform="translate(-1572.813 -551.362)" fill="url(#linear-gradient-28)"/>
      <path id="Trazado_96336" data-name="Trazado 96336" d="M1690.067,623.86l1.134-.334a.586.586,0,0,1,.332,1.124l-1.133.335a.587.587,0,1,1-.334-1.125Z" transform="translate(-1587.326 -547.081)" fill="url(#linear-gradient-28)"/>
      <path id="Trazado_96337" data-name="Trazado 96337" d="M1708.365,618.475l1.134-.334a.583.583,0,0,1,.331,1.119l-1.134.336a.584.584,0,0,1-.332-1.12Z" transform="translate(-1601.843 -542.81)" fill="url(#linear-gradient-28)"/>
      <path id="Trazado_96338" data-name="Trazado 96338" d="M1726.658,613.072l1.134-.336a.581.581,0,1,1,.331,1.113l-1.134.338a.581.581,0,0,1-.332-1.114Z" transform="translate(-1616.358 -538.521)" fill="url(#linear-gradient-28)"/>
      <path id="Trazado_96339" data-name="Trazado 96339" d="M1744.939,607.616l1.133-.34a.578.578,0,1,1,.334,1.106l-1.134.342a.579.579,0,0,1-.335-1.108Z" transform="translate(-1630.864 -534.189)" fill="url(#linear-gradient-28)"/>
      <path id="Trazado_96340" data-name="Trazado 96340" d="M1763.2,602.076l1.131-.346a.575.575,0,1,1,.339,1.1l-1.132.348a.576.576,0,1,1-.339-1.1Z" transform="translate(-1645.352 -529.788)" fill="url(#linear-gradient-28)"/>
      <path id="Trazado_96341" data-name="Trazado 96341" d="M1781.424,596.42l1.128-.354a.572.572,0,1,1,.345,1.092l-1.13.356a.573.573,0,0,1-.345-1.093Z" transform="translate(-1659.816 -525.294)" fill="url(#linear-gradient-28)"/>
      <path id="Trazado_96342" data-name="Trazado 96342" d="M1799.6,590.616l1.124-.364a.57.57,0,1,1,.353,1.083l-1.127.367a.571.571,0,0,1-.353-1.085Z" transform="translate(-1674.244 -520.681)" fill="url(#linear-gradient-28)"/>
      <path id="Trazado_96343" data-name="Trazado 96343" d="M1817.726,584.632l1.12-.376h0a.567.567,0,0,1,.362,1.075l-1.123.379a.568.568,0,1,1-.363-1.076Z" transform="translate(-1688.626 -515.923)" fill="url(#linear-gradient-28)"/>
      <path id="Trazado_96344" data-name="Trazado 96344" d="M1835.777,578.436l1.114-.39h0a.564.564,0,0,1,.373,1.065l-1.118.393a.565.565,0,1,1-.375-1.066h0Z" transform="translate(-1702.953 -510.994)" fill="url(#linear-gradient-28)"/>
      <path id="Trazado_96345" data-name="Trazado 96345" d="M1853.748,572l1.108-.405h0a.562.562,0,0,1,.387,1.054l-1.112.409a.562.562,0,1,1-.388-1.055h0Z" transform="translate(-1717.217 -505.87)" fill="url(#linear-gradient-28)"/>
      <path id="Trazado_96346" data-name="Trazado 96346" d="M1871.615,565.281l1.1-.423h0a.559.559,0,0,1,.4,1.043l-1.105.426a.56.56,0,1,1-.4-1.044h0Z" transform="translate(-1731.399 -500.528)" fill="url(#linear-gradient-28)"/>
      <path id="Trazado_96347" data-name="Trazado 96347" d="M1889.361,558.265l1.092-.442h0a.556.556,0,0,1,.418,1.03l-1.1.446a.557.557,0,0,1-.419-1.032h0Z" transform="translate(-1745.486 -494.943)" fill="url(#linear-gradient-28)"/>
      <path id="Trazado_96348" data-name="Trazado 96348" d="M1906.971,550.914l1.083-.464h0a.553.553,0,0,1,.436,1.017l-1.089.468a.554.554,0,0,1-.438-1.018h0Z" transform="translate(-1759.465 -489.091)" fill="url(#linear-gradient-28)"/>
      <path id="Trazado_96349" data-name="Trazado 96349" d="M1924.428,543.2l1.073-.487,0,0a.551.551,0,0,1,.456,1l-1.079.491a.551.551,0,0,1-.457-1h0Z" transform="translate(-1773.325 -482.949)" fill="url(#linear-gradient-28)"/>
      <path id="Trazado_96350" data-name="Trazado 96350" d="M1941.714,535.081l1.059-.513.005,0a.548.548,0,0,1,.479.985l-1.068.52a.549.549,0,1,1-.48-.987h0Z" transform="translate(-1787.048 -476.483)" fill="url(#linear-gradient-28)"/>
      <path id="Trazado_96351" data-name="Trazado 96351" d="M1958.744,526.4l1.037-.553.006,0a.545.545,0,0,1,.513.962l-1.048.561a.546.546,0,1,1-.515-.963h0Z" transform="translate(-1800.573 -469.558)" fill="url(#linear-gradient-28)"/>
      <path id="Trazado_96352" data-name="Trazado 96352" d="M1975.4,517l1.009-.6.008,0a.542.542,0,0,1,.554.931l-1.022.61a.543.543,0,1,1-.557-.932h0Z" transform="translate(-1813.807 -462.053)" fill="url(#linear-gradient-28)"/>
      <path id="Trazado_96353" data-name="Trazado 96353" d="M1991.591,506.768l.972-.654.008-.006a.534.534,0,0,1,.6.884l-.986.67a.536.536,0,1,1-.6-.887h0Z" transform="translate(-1826.672 -453.878)" fill="url(#linear-gradient-28)"/>
      <path id="Trazado_96354" data-name="Trazado 96354" d="M2007.138,495.533l.923-.719.01-.007a.525.525,0,0,1,.647.828l-.939.737a.528.528,0,1,1-.652-.83h0Z" transform="translate(-1839.03 -444.897)" fill="url(#linear-gradient-28)"/>
      <path id="Trazado_96355" data-name="Trazado 96355" d="M2021.825,483.155l.859-.791.011-.01a.517.517,0,0,1,.7.759l-.876.814a.52.52,0,0,1-.707-.761h0Z" transform="translate(-1850.71 -434.997)" fill="url(#linear-gradient-28)"/>
      <path id="Trazado_96356" data-name="Trazado 96356" d="M2035.38,469.5l.776-.872.011-.012a.509.509,0,0,1,.761.675l-.794.9a.511.511,0,1,1-.766-.677v0Z" transform="translate(-1861.493 -424.075)" fill="url(#linear-gradient-28)"/>
      <path id="Trazado_96357" data-name="Trazado 96357" d="M2047.465,454.514l.668-.952.011-.015a.5.5,0,0,1,.82.573l-.686.985a.5.5,0,1,1-.826-.575v0Z" transform="translate(-1871.111 -412.083)" fill="url(#linear-gradient-40)"/>
      <path id="Trazado_96358" data-name="Trazado 96358" d="M2057.677,438.2l.538-1.03.01-.018a.492.492,0,0,1,.873.454l-.552,1.068a.495.495,0,1,1-.879-.454v0Z" transform="translate(-1879.242 -399.038)" fill="url(#linear-gradient-28)"/>
      <path id="Trazado_96359" data-name="Trazado 96359" d="M2065.647,420.753q.2-.545.386-1.095v0a.484.484,0,0,1,.92.3q-.187.574-.4,1.139a.487.487,0,1,1-.913-.336v-.006Z" transform="translate(-1885.591 -385.101)" fill="url(#linear-gradient-40)"/>
      <path id="Trazado_96360" data-name="Trazado 96360" d="M2070.954,402.341l.209-1.14,0-.022a.476.476,0,0,1,.936.169l-.212,1.185a.478.478,0,1,1-.941-.168v0Z" transform="translate(-1889.817 -370.398)" fill="url(#linear-gradient-41)"/>
      <path id="Trazado_96361" data-name="Trazado 96361" d="M2073.382,383.488l.036-1.161v-.021a.467.467,0,0,1,.935.027l-.032,1.2a.47.47,0,0,1-.939-.025v-.023Z" transform="translate(-1891.751 -355.377)" fill="url(#linear-gradient-28)"/>
      <path id="Trazado_96362" data-name="Trazado 96362" d="M2072.484,364.557l-.132-1.157,0-.019a.459.459,0,0,1,.912-.106l.141,1.2a.462.462,0,1,1-.917.108v0Z" transform="translate(-1890.931 -340.316)" fill="url(#linear-gradient-28)"/>
      <path id="Trazado_96363" data-name="Trazado 96363" d="M2068.771,345.979l-.293-1.125,0-.019a.451.451,0,0,1,.872-.229l.307,1.161a.454.454,0,0,1-.877.232v0Z" transform="translate(-1887.846 -325.561)" fill="url(#linear-gradient-41)"/>
      <path id="Trazado_96364" data-name="Trazado 96364" d="M2062.474,328.107l-.449-1.074-.007-.018a.443.443,0,0,1,.816-.343l.469,1.108a.445.445,0,1,1-.82.347v0Z" transform="translate(-1882.709 -311.385)" fill="url(#linear-gradient-28)"/>
      <path id="Trazado_96365" data-name="Trazado 96365" d="M2053.675,311.327l-.6-1-.01-.017a.434.434,0,0,1,.743-.45l.624,1.026a.437.437,0,0,1-.746.454v0Z" transform="translate(-1875.586 -298.101)" fill="url(#linear-gradient-28)"/>
      <path id="Trazado_96366" data-name="Trazado 96366" d="M2042.474,296.07l-.743-.891-.013-.016a.426.426,0,0,1,.653-.547l.773.919a.429.429,0,0,1-.656.552h0Z" transform="translate(-1866.554 -286.048)" fill="url(#linear-gradient-28)"/>
      <path id="Trazado_96367" data-name="Trazado 96367" d="M2029.031,282.8c-.289-.258-.58-.514-.879-.761a.418.418,0,0,1,.53-.647c.311.254.613.518.914.785a.42.42,0,0,1-.557.63h0Z" transform="translate(-1855.75 -275.604)" fill="url(#linear-gradient-28)"/>
      <path id="Trazado_96368" data-name="Trazado 96368" d="M2013.53,271.866l-.99-.607-.017-.01a.41.41,0,0,1,.427-.7l1.026.623a.412.412,0,0,1-.428.7h0Z" transform="translate(-1843.317 -267.029)" fill="url(#linear-gradient-28)"/>
      <path id="Trazado_96369" data-name="Trazado 96369" d="M1996.535,263.548l-1.074-.448-.017-.007a.4.4,0,0,1,.307-.741l1.11.457a.4.4,0,0,1-.307.747h0Z" transform="translate(-1829.727 -260.549)" fill="url(#linear-gradient-28)"/>
      <path id="Trazado_96370" data-name="Trazado 96370" d="M1978.482,257.894l-1.129-.286-.016,0a.386.386,0,0,1,.187-.749l1.164.286a.391.391,0,1,1-.187.759h0Z" transform="translate(-1815.326 -256.203)" fill="url(#linear-gradient-28)"/>
      <path id="Trazado_96371" data-name="Trazado 96371" d="M1959.793,254.927l-1.16-.121-.016,0a.372.372,0,0,1,.074-.739l1.192.115a.376.376,0,1,1-.072.748h0Z" transform="translate(-1800.443 -253.998)" fill="url(#linear-gradient-28)"/>
      <path id="Trazado_96372" data-name="Trazado 96372" d="M1940.853,254.469l-1.167.048h-.016a.357.357,0,0,1-.032-.713l1.2-.059a.361.361,0,1,1,.035.722h-.019Z" transform="translate(-1785.381 -253.746)" fill="url(#linear-gradient-28)"/>
      <path id="Trazado_96373" data-name="Trazado 96373" d="M1922.076,256.349l-1.145.222-.016,0a.342.342,0,0,1-.132-.671l1.174-.236a.347.347,0,0,1,.137.68h0Z" transform="translate(-1770.474 -255.263)" fill="url(#linear-gradient-28)"/>
      <path id="Trazado_96374" data-name="Trazado 96374" d="M1903.923,261.073l-1.094.4-.015.005a.327.327,0,0,1-.226-.615l1.121-.417a.332.332,0,0,1,.232.622h0Z" transform="translate(-1756.088 -259.044)" fill="url(#linear-gradient-28)"/>
      <path id="Trazado_96375" data-name="Trazado 96375" d="M1886.908,268.683c-.341.188-.682.375-1.015.575a.313.313,0,0,1-.324-.535c.341-.209.691-.4,1.039-.6a.317.317,0,0,1,.31.553h0Z" transform="translate(-1742.637 -265.12)" fill="url(#linear-gradient-28)"/>
      <path id="Trazado_96376" data-name="Trazado 96376" d="M1871.472,279.117l-.9.737-.011.009a.3.3,0,0,1-.379-.461l.921-.763a.3.3,0,1,1,.386.466h0Z" transform="translate(-1730.461 -273.44)" fill="url(#linear-gradient-28)"/>
      <path id="Trazado_96377" data-name="Trazado 96377" d="M1858.06,292.036l-.776.873-.009.01a.284.284,0,0,1-.425-.375l.787-.9a.288.288,0,1,1,.433.379v0Z" transform="translate(-1719.917 -283.734)" fill="url(#linear-gradient-28)"/>
      <path id="Trazado_96378" data-name="Trazado 96378" d="M1846.86,306.993l-.637.984-.006.01a.269.269,0,0,1-.452-.29l.643-1.009a.273.273,0,1,1,.461.293v0Z" transform="translate(-1711.145 -295.645)" fill="url(#linear-gradient-41)"/>
      <path id="Trazado_96379" data-name="Trazado 96379" d="M1838.071,323.556l-.484,1.066,0,.01a.254.254,0,0,1-.463-.208l.485-1.09a.258.258,0,0,1,.472.21v0Z" transform="translate(-1704.302 -308.83)" fill="url(#linear-gradient-40)"/>
      <path id="Trazado_96380" data-name="Trazado 96380" d="M1831.861,341.325l-.321,1.126,0,.01a.239.239,0,0,1-.461-.13l.319-1.15a.244.244,0,0,1,.47.13v0Z" transform="translate(-1699.519 -322.969)" fill="url(#linear-gradient-28)"/>
      <path id="Trazado_96381" data-name="Trazado 96381" d="M1828.423,359.936l-.145,1.162v.011a.225.225,0,0,1-.446-.054l.139-1.184a.229.229,0,1,1,.455.053v0Z" transform="translate(-1696.949 -337.776)" fill="url(#linear-gradient-126)"/>
      <path id="Trazado_96382" data-name="Trazado 96382" d="M1827.767,378.96l.044,1.17v.011a.21.21,0,0,1-.419.017l-.054-1.191a.215.215,0,0,1,.429-.019h0Z" transform="translate(-1696.56 -352.909)" fill="url(#linear-gradient-49)"/>
      <path id="Trazado_96383" data-name="Trazado 96383" d="M1829.718,397.938l.146.721v.006a.2.2,0,0,1-.386.08l-.154-.733a.2.2,0,1,1,.391-.082h0Z" transform="translate(-1698.134 -368.004)" fill="url(#linear-gradient-41)"/>
    </g>
  </g>
</svg>
