<svg id="Grupo_46892" data-name="Grupo 46892" xmlns="http://www.w3.org/2000/svg" xmlns:xlink="http://www.w3.org/1999/xlink" width="123.833" height="123.833" viewBox="0 0 123.833 123.833">
  <defs>
    <radialGradient id="radial-gradient" cx="0.076" cy="0.019" r="1.465" gradientTransform="translate(0.001)" gradientUnits="objectBoundingBox">
      <stop offset="0" stop-color="#f6f6f7"/>
      <stop offset="0.477" stop-color="#f9f9fa"/>
      <stop offset="0.715" stop-color="#fff"/>
    </radialGradient>
  </defs>
  <g id="Grupo_18478" data-name="Grupo 18478" transform="translate(0 0)">
    <g id="Grupo_18423" data-name="Grupo 18423" transform="translate(0 0)">
      <g id="Grupo_18421" data-name="Grupo 18421">
        <g id="Grupo_18420" data-name="Grupo 18420">
          <g id="Grupo_18419" data-name="Grupo 18419">
            <path id="Trazado_40936" data-name="Trazado 40936" d="M318.456,2207.635a61.916,61.916,0,1,1-61.915-61.915A61.915,61.915,0,0,1,318.456,2207.635Z" transform="translate(-194.623 -2145.721)" fill="#fff"/>
          </g>
        </g>
      </g>
      <path id="Trazado_40937" data-name="Trazado 40937" d="M317.728,2206.843a61.915,61.915,0,1,0-61.915,61.918A61.672,61.672,0,0,0,317.728,2206.843Z" transform="translate(-193.895 -2144.928)" fill="url(#radial-gradient)"/>
      <path id="Trazado_40938" data-name="Trazado 40938" d="M296.6,2200.4a47.26,47.26,0,1,0-47.26,47.26A47.084,47.084,0,0,0,296.6,2200.4Z" transform="translate(-187.238 -2138.278)" fill="none" stroke="#7d6eb2" stroke-miterlimit="10" stroke-width="4"/>
      <g id="Grupo_18422" data-name="Grupo 18422" transform="translate(10.969 34.762)">
        <path id="Trazado_40939" data-name="Trazado 40939" d="M307.148,2164.488a61.924,61.924,0,0,1-106.6,61.66,61.727,61.727,0,0,0,106.6-61.66Z" transform="translate(-200.545 -2164.488)" fill="#eceef0"/>
      </g>
    </g>
  </g>
  <g id="Grupo_42969" data-name="Grupo 42969" transform="translate(42.101 34.458)">
    <g id="Grupo_26538" data-name="Grupo 26538" transform="translate(0 0)">
      <g id="Grupo_26537" data-name="Grupo 26537">
        <g id="Grupo_26525" data-name="Grupo 26525">
          <g id="Grupo_26524" data-name="Grupo 26524">
            <path id="Trazado_67369" data-name="Trazado 67369" d="M2159.6,1921.468h-33.041a.513.513,0,0,1-.513-.513v-42.525a.513.513,0,0,1,.513-.513H2159.6a.513.513,0,0,1,.513.513v42.525A.513.513,0,0,1,2159.6,1921.468Zm-32.528-1.026h32.015v-41.5h-32.015Z" transform="translate(-2126.05 -1877.918)" fill="#00223d"/>
          </g>
        </g>
        <g id="Grupo_26534" data-name="Grupo 26534" transform="translate(4.977 6.136)">
          <g id="Grupo_26526" data-name="Grupo 26526" transform="translate(13.994)">
            <path id="Trazado_67370" data-name="Trazado 67370" d="M2212.956,1904.089h-8.649a.513.513,0,1,1,0-1.026h8.649a.513.513,0,1,1,0,1.026Z" transform="translate(-2203.794 -1903.063)" fill="#00223d"/>
          </g>
          <g id="Grupo_26527" data-name="Grupo 26527" transform="translate(13.994 4.183)">
            <path id="Trazado_67371" data-name="Trazado 67371" d="M2212.956,1921.23h-8.649a.513.513,0,1,1,0-1.026h8.649a.513.513,0,1,1,0,1.026Z" transform="translate(-2203.794 -1920.204)" fill="#00223d"/>
          </g>
          <g id="Grupo_26528" data-name="Grupo 26528" transform="translate(13.994 8.365)">
            <path id="Trazado_67372" data-name="Trazado 67372" d="M2212.956,1938.37h-8.649a.513.513,0,1,1,0-1.026h8.649a.513.513,0,1,1,0,1.026Z" transform="translate(-2203.794 -1937.344)" fill="#00223d"/>
          </g>
          <g id="Grupo_26529" data-name="Grupo 26529" transform="translate(0 12.502)">
            <path id="Trazado_67373" data-name="Trazado 67373" d="M2169.227,1955.322H2146.96a.513.513,0,1,1,0-1.026h22.267a.513.513,0,1,1,0,1.026Z" transform="translate(-2146.447 -1954.296)" fill="#00223d"/>
          </g>
          <g id="Grupo_26530" data-name="Grupo 26530" transform="translate(0.07 17.133)">
            <path id="Trazado_67374" data-name="Trazado 67374" d="M2169.82,1974.3h-22.574a.513.513,0,1,1,0-1.026h22.574a.513.513,0,0,1,0,1.026Z" transform="translate(-2146.733 -1973.271)" fill="#00223d"/>
          </g>
          <g id="Grupo_26531" data-name="Grupo 26531" transform="translate(0.07 21.315)">
            <path id="Trazado_67375" data-name="Trazado 67375" d="M2169.82,1991.437h-22.574a.513.513,0,1,1,0-1.026h22.574a.513.513,0,0,1,0,1.026Z" transform="translate(-2146.733 -1990.411)" fill="#00223d"/>
          </g>
          <g id="Grupo_26532" data-name="Grupo 26532" transform="translate(0.07 25.498)">
            <path id="Trazado_67376" data-name="Trazado 67376" d="M2169.82,2008.578h-22.574a.513.513,0,1,1,0-1.026h22.574a.513.513,0,0,1,0,1.026Z" transform="translate(-2146.733 -2007.552)" fill="#00223d"/>
          </g>
          <g id="Grupo_26533" data-name="Grupo 26533" transform="translate(0.07 29.681)">
            <path id="Trazado_67377" data-name="Trazado 67377" d="M2162.044,2025.718h-14.8a.513.513,0,1,1,0-1.026h14.8a.513.513,0,0,1,0,1.026Z" transform="translate(-2146.733 -2024.692)" fill="#00223d"/>
          </g>
        </g>
        <g id="Grupo_26536" data-name="Grupo 26536" transform="translate(4.726 3.66)">
          <g id="Grupo_26535" data-name="Grupo 26535">
            <path id="Trazado_67378" data-name="Trazado 67378" d="M2151.55,1904.128l-.939,3.145h-3.092l4.031-12.254h3.915l4.09,12.254h-3.209l-1.018-3.145Zm3.347-2.073-.822-2.6c-.235-.728-.47-1.637-.666-2.364h-.039c-.2.727-.392,1.655-.606,2.364l-.782,2.6Z" transform="translate(-2147.005 -1894.506)" fill="none"/>
            <path id="Trazado_67379" data-name="Trazado 67379" d="M2157.966,1906.2h-3.21a.513.513,0,0,1-.488-.355l-.9-2.79h-3.022l-.83,2.779a.513.513,0,0,1-.491.366h-3.092a.513.513,0,0,1-.488-.673l4.032-12.255a.513.513,0,0,1,.487-.353h3.915a.514.514,0,0,1,.487.351l4.089,12.254a.512.512,0,0,1-.486.675Zm-2.838-1.026h2.125l-3.748-11.229h-3.174l-3.694,11.229h2l.83-2.78a.513.513,0,0,1,.492-.366h3.776a.514.514,0,0,1,.489.355Zm-1.821-4.192h-2.916a.514.514,0,0,1-.491-.661l.783-2.6c.125-.411.245-.909.362-1.39.081-.334.16-.663.241-.959a.512.512,0,0,1,.5-.38h.038a.513.513,0,0,1,.5.38l.1.36c.173.647.368,1.38.562,1.979l.823,2.6a.513.513,0,0,1-.49.668Zm-2.225-1.026h1.526l-.611-1.932c-.059-.181-.116-.372-.174-.568-.051.2-.1.385-.157.562Z" transform="translate(-2145.416 -1892.917)" fill="#00223d"/>
          </g>
        </g>
      </g>
    </g>
    <g id="Grupo_26552" data-name="Grupo 26552" transform="translate(11.59 21.188)">
      <g id="Grupo_26546" data-name="Grupo 26546" transform="translate(18.777 15.668)">
        <g id="Grupo_26539" data-name="Grupo 26539" transform="translate(3.264 6.228)">
          <path id="Trazado_67382" data-name="Trazado 67382" d="M2274.356,2065.99a2.129,2.129,0,0,1-.771-.145,2.11,2.11,0,0,1-1.349-1.953,2.133,2.133,0,0,1-1.439-.037,2.107,2.107,0,0,1-1.349-1.953,2.132,2.132,0,0,1-1.44-.037,2.109,2.109,0,0,1-1.349-1.954,2.13,2.13,0,0,1-1.44-.037,2.1,2.1,0,0,1-1.2-2.74l.93-2.34a.513.513,0,0,1,.954.379l-.931,2.34a1.068,1.068,0,0,0,.013.826,1.083,1.083,0,0,0,.6.579,1.109,1.109,0,0,0,1.43-.618l.262-.66a.513.513,0,0,1,.885-.121l.077.1a.513.513,0,0,1,.068.5l-.551,1.385a1.066,1.066,0,0,0,.012.826,1.082,1.082,0,0,0,.605.579,1.108,1.108,0,0,0,1.428-.618l.412-1.033a.513.513,0,0,1,.832-.18l.083.08a.514.514,0,0,1,.122.56l-.706,1.777a1.068,1.068,0,0,0,.012.826,1.081,1.081,0,0,0,.6.579,1.11,1.11,0,0,0,1.43-.618l.625-1.573a.513.513,0,0,1,.744-.249l.093.057a.513.513,0,0,1,.209.627l-.93,2.341a1.062,1.062,0,0,0,.012.825,1.081,1.081,0,0,0,.605.579,1.109,1.109,0,0,0,1.43-.617l.478-1.2a.513.513,0,1,1,.953.38l-.478,1.2A2.136,2.136,0,0,1,2274.356,2065.99Z" transform="translate(-2263.869 -2054.47)" fill="#00223d"/>
        </g>
        <g id="Grupo_26540" data-name="Grupo 26540" transform="translate(2.105 1.44)">
          <path id="Trazado_67383" data-name="Trazado 67383" d="M2265.2,2042.691l-3.211-2.292a1.824,1.824,0,0,1-.417-2.562l.09-.125a1.866,1.866,0,0,1,2.587-.42l7.507,5.359Z" transform="translate(-2260.708 -2036.434)" fill="#fff"/>
          <path id="Trazado_67384" data-name="Trazado 67384" d="M2263.61,2041.62a.512.512,0,0,1-.3-.1l-3.211-2.292a2.337,2.337,0,0,1-.533-3.282l.088-.122a2.383,2.383,0,0,1,3.3-.539l7.507,5.359a.513.513,0,1,1-.6.835l-7.508-5.359a1.353,1.353,0,0,0-1.874.3l-.088.123a1.311,1.311,0,0,0,.3,1.845l3.211,2.292a.513.513,0,0,1-.3.931Z" transform="translate(-2259.118 -2034.85)" fill="#00223d"/>
        </g>
        <g id="Grupo_26541" data-name="Grupo 26541" transform="translate(6.036 5.441)">
          <path id="Trazado_67385" data-name="Trazado 67385" d="M2285.569,2060.932l-7.068-3.609a2.088,2.088,0,0,1-.943-2.816,2.131,2.131,0,0,1,2.842-.943l9.843,4.211Z" transform="translate(-2276.819 -2052.832)" fill="#fff"/>
          <path id="Trazado_67386" data-name="Trazado 67386" d="M2283.976,2059.859a.513.513,0,0,1-.232-.056l-7.069-3.609a2.6,2.6,0,0,1-1.167-3.5,2.648,2.648,0,0,1,3.527-1.172l9.817,4.2a.513.513,0,1,1-.4.943l-9.843-4.211a1.627,1.627,0,0,0-2.183.7,1.575,1.575,0,0,0,.713,2.124l7.074,3.612a.513.513,0,0,1-.234.97Z" transform="translate(-2275.227 -2051.246)" fill="#00223d"/>
        </g>
        <g id="Grupo_26542" data-name="Grupo 26542" transform="translate(6.895 2.446)">
          <path id="Trazado_67387" data-name="Trazado 67387" d="M2298.555,2046.2a.511.511,0,0,1-.359-.147,32.1,32.1,0,0,0-6.685-5.026,5.471,5.471,0,0,0-1.649-.593,27.762,27.762,0,0,0-10.478.146.513.513,0,0,1-.245-1,28.345,28.345,0,0,1,10.912-.157,6.509,6.509,0,0,1,1.958.7,33.157,33.157,0,0,1,6.9,5.191.514.514,0,0,1-.36.879Z" transform="translate(-2278.749 -2038.975)" fill="#00223d"/>
        </g>
        <g id="Grupo_26543" data-name="Grupo 26543" transform="translate(14.256 12.921)">
          <path id="Trazado_67388" data-name="Trazado 67388" d="M2316.384,2087.039l-.042,0A10.551,10.551,0,0,1,2309,2082.7a.513.513,0,1,1,.851-.573,9.682,9.682,0,0,0,6.573,3.89.513.513,0,0,1-.04,1.024Z" transform="translate(-2308.912 -2081.898)" fill="#00223d"/>
        </g>
        <g id="Grupo_26544" data-name="Grupo 26544" transform="translate(0 2.004)">
          <path id="Trazado_67389" data-name="Trazado 67389" d="M2252.777,2039.453a.51.51,0,0,1-.3-.1l-1.772-1.264a.513.513,0,0,1,.6-.835l1.772,1.264a.513.513,0,0,1-.3.93Z" transform="translate(-2250.493 -2037.164)" fill="#00223d"/>
        </g>
        <g id="Grupo_26545" data-name="Grupo 26545" transform="translate(1.458)">
          <path id="Trazado_67390" data-name="Trazado 67390" d="M2258.754,2031.24a.51.51,0,0,1-.3-.1l-1.771-1.264a.513.513,0,1,1,.6-.835l1.772,1.264a.513.513,0,0,1-.3.931Z" transform="translate(-2256.47 -2028.95)" fill="#00223d"/>
        </g>
      </g>
      <g id="Grupo_26547" data-name="Grupo 26547">
        <path id="Trazado_67391" data-name="Trazado 67391" d="M2194.074,1969.958a10.627,10.627,0,0,1,0,15.127,10.864,10.864,0,0,1-15.265,0,10.628,10.628,0,0,1,0-15.127A10.864,10.864,0,0,1,2194.074,1969.958Z" transform="translate(-2175.135 -1966.318)" fill="#fff"/>
        <path id="Trazado_67392" data-name="Trazado 67392" d="M2184.852,1987.152a11.321,11.321,0,0,1-7.993-3.275,11.14,11.14,0,0,1,0-15.856,11.39,11.39,0,0,1,15.987,0,11.141,11.141,0,0,1,0,15.856A11.325,11.325,0,0,1,2184.852,1987.152Zm0-21.382a10.3,10.3,0,0,0-7.27,2.979,10.113,10.113,0,0,0,0,14.4,10.362,10.362,0,0,0,14.542,0,10.115,10.115,0,0,0,0-14.4A10.3,10.3,0,0,0,2184.851,1965.77Z" transform="translate(-2173.545 -1964.745)" fill="#00223d"/>
      </g>
      <g id="Grupo_26548" data-name="Grupo 26548" transform="translate(2.688 2.661)">
        <path id="Trazado_67393" data-name="Trazado 67393" d="M2200.5,1980.09a7.982,7.982,0,0,1,0,11.361,8.158,8.158,0,0,1-11.464,0,7.981,7.981,0,0,1,0-11.361A8.158,8.158,0,0,1,2200.5,1980.09Z" transform="translate(-2186.147 -1977.228)" fill="none"/>
        <path id="Trazado_67394" data-name="Trazado 67394" d="M2193.177,1992.736a8.629,8.629,0,0,1-6.093-2.5,8.5,8.5,0,0,1,0-12.09,8.682,8.682,0,0,1,12.186,0,8.5,8.5,0,0,1,0,12.09A8.635,8.635,0,0,1,2193.177,1992.736Zm0-16.059a7.605,7.605,0,0,0-5.371,2.2,7.469,7.469,0,0,0,0,10.632,7.653,7.653,0,0,0,10.742,0,7.468,7.468,0,0,0,0-10.632A7.607,7.607,0,0,0,2193.177,1976.677Z" transform="translate(-2184.558 -1975.652)" fill="#00223d"/>
      </g>
      <g id="Grupo_26549" data-name="Grupo 26549" transform="translate(2.639 10.565)">
        <path id="Trazado_67395" data-name="Trazado 67395" d="M2196.5,2009.067h-11.629a.513.513,0,0,1,0-1.026H2196.5a.513.513,0,0,1,0,1.026Z" transform="translate(-2184.361 -2008.041)" fill="#00223d"/>
      </g>
      <g id="Grupo_26550" data-name="Grupo 26550" transform="translate(3.848 6.789)">
        <path id="Trazado_67396" data-name="Trazado 67396" d="M2198.394,1993.592h-8.567a.513.513,0,0,1,0-1.026h8.567a.513.513,0,0,1,0,1.026Z" transform="translate(-2189.313 -1992.566)" fill="#00223d"/>
      </g>
      <g id="Grupo_26551" data-name="Grupo 26551" transform="translate(3.662 14.342)">
        <path id="Trazado_67397" data-name="Trazado 67397" d="M2199.206,2024.543h-10.143a.513.513,0,1,1,0-1.026h10.143a.513.513,0,1,1,0,1.026Z" transform="translate(-2188.55 -2023.517)" fill="#00223d"/>
      </g>
    </g>
  </g>
</svg>
