<svg xmlns="http://www.w3.org/2000/svg" xmlns:xlink="http://www.w3.org/1999/xlink" width="275.007" height="216.221" viewBox="0 0 275.007 216.221">
  <defs>
    <linearGradient id="linear-gradient" x1="0.5" x2="0.5" y2="1" gradientUnits="objectBoundingBox">
      <stop offset="0" stop-color="#fff"/>
      <stop offset="1" stop-color="#d2e6ee"/>
    </linearGradient>
  </defs>
  <g id="Grupo_42967" data-name="Grupo 42967" transform="translate(-914.326 -1028.435)">
    <g id="men" transform="translate(933.335 1074.016)">
      <g id="man_2" transform="translate(90.297 2.852)">
        <g id="head" transform="translate(38.597 0)">
          <path id="Trazado_24273" data-name="Trazado 24273" d="M234.948,100.338s-.332-1.593,7.016-1.593,10.837-8.908,10.745-11.663-1.1-5.695-2.664-7.164S231.952,83.5,231.952,83.5s.14,1.8.51,4.531A90.663,90.663,0,0,0,234.948,100.338Z" transform="translate(-227.123 -71.892)" fill="#f97070" fill-rule="evenodd"/>
          <path id="Trazado_24274" data-name="Trazado 24274" d="M251.24,119.767a28.622,28.622,0,0,0,17.3-8.584l-8.47-17.071a5.214,5.214,0,0,0-.129-3.515c-.627-1.35-1.939-1.778-2.9-.986-1.561,1.286-1.1,13.593-1.1,13.593a10.24,10.24,0,0,1-6.638,10.624Z" transform="translate(-228.882 -72.861)" fill="#f97070" fill-rule="evenodd"/>
          <g id="Grupo_14474" data-name="Grupo 14474">
            <path id="Trazado_24275" data-name="Trazado 24275" d="M231.407,82.625s16.532-5.051,18.093-3.582,2.572,4.408,2.664,7.164-3.4,11.663-10.745,11.663-7.016,1.593-7.016,1.593c1.868,6.529,4.8,12.65,9.311,13.469a13.6,13.6,0,0,0,3.281-.947,10.24,10.24,0,0,0,6.638-10.624s-.458-12.307,1.1-13.593c.962-.793,2.274-.364,2.9.986,0,0-.055-9.251-2.075-12.466s-3.123-1.745-3.123-1.745-.093-3.031-4.224-3.4-19.839-.459-21.4,7.348,5.1,8.664,5.1,8.664C231.547,84.427,231.407,82.625,231.407,82.625Z" transform="translate(-226.578 -71.017)" fill="#00223d" fill-rule="evenodd"/>
            <path id="Trazado_24276" data-name="Trazado 24276" d="M250.151,79.764c-1.548-1.458-15.493,2.692-18.273,3.54a.184.184,0,1,0,.107.352c2.992-.911,5.988-1.737,8.905-2.453,5.178-1.272,8.45-1.7,9.008-1.171,1.69,1.591,2.527,4.681,2.605,7.035.067,2.02-1.45,5.166-2.55,6.755-1.49,2.152-4.089,4.719-8.01,4.719-1.148,0-4.642,0-6.344.8-.162.076-.962.483-.851,1.012a.184.184,0,0,0,.18.147.192.192,0,0,0,.181-.222c-.042-.2.428-.5.648-.6,1.627-.767,5.059-.767,6.187-.767,4.082,0,6.774-2.653,8.313-4.878,1.051-1.519,2.69-4.755,2.616-6.976C252.791,84.625,251.918,81.428,250.151,79.764Z" transform="translate(-227.102 -71.872)" fill="#fff"/>
            <path id="Trazado_24277" data-name="Trazado 24277" d="M260.087,90.5a2.558,2.558,0,0,0-1.644-1.452,1.754,1.754,0,0,0-1.542.4c-1.488,1.226-1.272,11.842-1.17,13.744a10.3,10.3,0,0,1-2.018,7.121,11.125,11.125,0,0,1-4.508,3.324.184.184,0,0,0,.144.34A11.5,11.5,0,0,0,254,110.541a10.66,10.66,0,0,0,2.1-7.368c-.091-2-.276-12.361,1.035-13.441a1.406,1.406,0,0,1,1.232-.326,2.183,2.183,0,0,1,1.386,1.247.184.184,0,1,0,.334-.155Z" transform="translate(-228.861 -72.84)" fill="#fff"/>
            <g id="Grupo_14473" data-name="Grupo 14473" transform="translate(5.693 13.987)">
              <g id="Grupo_14471" data-name="Grupo 14471" transform="translate(1.521 2.7)">
                <path id="Trazado_24278" data-name="Trazado 24278" d="M236.413,92.536c.216.47.142,1.308-.334,1.52s-1.147-.287-1.361-.753-.125-1.312.334-1.52C235.527,91.569,236.2,92.07,236.413,92.536Z" transform="translate(-234.606 -89.803)" fill="#232323" fill-rule="evenodd"/>
                <path id="Trazado_24279" data-name="Trazado 24279" d="M247.1,90.389c.216.47.125,1.311-.334,1.52-.476.213-1.148-.287-1.362-.753s-.141-1.308.335-1.52S246.887,89.923,247.1,90.389Z" transform="translate(-235.689 -89.585)" fill="#232323" fill-rule="evenodd"/>
              </g>
              <g id="Grupo_14472" data-name="Grupo 14472">
                <path id="Trazado_24280" data-name="Trazado 24280" d="M243.97,86.889a4.239,4.239,0,0,1,.688-.19,6.175,6.175,0,0,1,3.431.3.321.321,0,0,1-.244.594,5.436,5.436,0,0,0-3.063-.27,4.53,4.53,0,0,0-.444.11c-.048.017-.082.027-.114.037a.334.334,0,0,1-.447-.164A.327.327,0,0,1,243.97,86.889Z" transform="translate(-234.013 -86.581)" fill="#232323" fill-rule="evenodd"/>
                <path id="Trazado_24281" data-name="Trazado 24281" d="M232.945,89.433a2.076,2.076,0,0,1,.474-.563,3.406,3.406,0,0,1,1.61-.759,5.865,5.865,0,0,1,1.875-.047.316.316,0,0,1,.278.349.322.322,0,0,1-.359.278,5.248,5.248,0,0,0-1.67.037,2.772,2.772,0,0,0-1.311.615,1.617,1.617,0,0,0-.271.284c-.028.035-.057.064-.054.076a.316.316,0,1,1-.572-.269Z" transform="translate(-232.913 -86.726)" fill="#232323" fill-rule="evenodd"/>
              </g>
              <path id="Trazado_24282" data-name="Trazado 24282" d="M239.667,94l.35,5.426,2.027-.407a.157.157,0,0,1,.062.307l-2.227.448a.143.143,0,0,1-.129-.035.184.184,0,0,1-.059-.126l-.339-5.625a.153.153,0,0,1,.16-.15A.163.163,0,0,1,239.667,94Z" transform="translate(-233.566 -87.317)" fill="#232323" fill-rule="evenodd"/>
              <path id="Trazado_24283" data-name="Trazado 24283" d="M246.175,102.864a14.738,14.738,0,0,1-5.265,2.8s1.593,1.281,3.042.749S246.175,102.864,246.175,102.864Z" transform="translate(-233.724 -88.232)" fill="#fefefe" fill-rule="evenodd"/>
            </g>
          </g>
        </g>
        <g id="body" transform="translate(0 38.138)">
          <path id="pants" d="M329.608,224.421l-2.372-4.25c-7.715,9.551-44.451,15.154-45.921,14.97l.982,7.351c7.738-1.961,15.943-4.167,24.8-6.655A61.838,61.838,0,0,0,329.608,224.421Z" transform="translate(-193.53 -124.275)" fill="#00223d" fill-rule="evenodd"/>
          <g id="body-2" data-name="body">
            <g id="Grupo_14476" data-name="Grupo 14476" transform="translate(0 5.757)">
              <path id="Trazado_24284" data-name="Trazado 24284" d="M354.692,227.132s-.359,13.688,1.162,14.7,2.365-5.828,2.365-5.828-.084,10.051,3.717,13.43,3.074-23.1,3.074-23.1Z" transform="translate(-200.965 -130.657)" fill="#f97070" fill-rule="evenodd"/>
              <g id="Grupo_14475" data-name="Grupo 14475" transform="translate(0 87.842)">
                <path id="Trazado_24285" data-name="Trazado 24285" d="M184.453,233.833c1.469,1.791,13.133.368,13.133.368a1.419,1.419,0,0,0,.029-.617,1.823,1.823,0,0,0-.136-.442c-1.133-2.55-8.093-5.117-10.915-5.278-3-.172-3.519,3.615-2.382,5.578A2.933,2.933,0,0,0,184.453,233.833Z" transform="translate(-183.627 -218.652)" fill="#f97070" fill-rule="evenodd"/>
                <path id="Trazado_24286" data-name="Trazado 24286" d="M190.764,224.9c2.02.552,5.419-3.306,5.419-3.306s3.706-.723,6.648-1.028c-1.119-1.218-3.491-3.282-6.448-2.9C192.234,218.192,188.743,224.346,190.764,224.9Z" transform="translate(-184.291 -217.614)" fill="#f97070" fill-rule="evenodd"/>
              </g>
              <path id="Trazado_24287" data-name="Trazado 24287" d="M325.046,206.769c-5.4,5.568-15.945,9.418-25.668,11.941a1.245,1.245,0,0,0-.245-.484c-13.656-16.627-22.927-37.2-28.833-57.788a207.079,207.079,0,0,1-5.016-21.787c-.5-2.877-.981-5.871-1.263-8.78a1.249,1.249,0,1,0-2.487.24c.287,2.974.778,6.027,1.287,8.966a209.735,209.735,0,0,0,5.077,22.051c5.948,20.726,15.257,41.408,28.926,58.221a173.753,173.753,0,0,1-18.616,3.4s-.367,2.939,1.1,3.123,38.206-5.419,45.921-14.97C325.23,210.9,326.425,207.411,325.046,206.769Z" transform="translate(-191.524 -120.763)" fill="#f1f1f1" fill-rule="evenodd"/>
              <path id="Trazado_24288" data-name="Trazado 24288" d="M293.044,217.81c9.722-2.523,20.272-6.373,25.668-11.941,0,0,.552-8.266-1.469-12.307s-14.873-36.574-14.873-36.574c6.845,2.863,14.875,6.08,20.567,7.919,0,0,9,42.247,15.98,51.432l11.939-.918s1.159-47.261-9.862-60.853-42.12-31.356-51.855-33.744a32.639,32.639,0,0,0-4.806-.776,64.035,64.035,0,0,0-17.419,1.235l-7.9,6.154-4.224-4.776-.459,6.154h-6.245s-9.645,10.012-12.584,22.318c-1.027,4.3-1.112,12.232-.788,20.734.168,4.406.446,8.965.759,13.25.516,7.044,1.127,13.35,1.506,17.022-11.311,1.889-23.354,6.833-29.559,9.629-.058,2.12-2.486,6.513-5.288,8.824a8.857,8.857,0,0,1-3.091,1.6,1.823,1.823,0,0,1,.136.442c3.984.5,35.8,4.3,46.979.683,11.939-3.858,10.87-20.587,10.87-20.587,3.648,8.658,6.786,15.463,8.05,16.546,3.858,3.307,6.8,2.572,6.8,2.572a173.758,173.758,0,0,0,18.616-3.4c-13.669-16.813-22.978-37.5-28.926-58.221a209.727,209.727,0,0,1-5.077-22.051c-.509-2.939-1-5.993-1.287-8.966a1.249,1.249,0,1,1,2.487-.24c.281,2.91.765,5.9,1.263,8.78a207.072,207.072,0,0,0,5.016,21.787c5.907,20.583,15.178,41.161,28.833,57.788A1.244,1.244,0,0,1,293.044,217.81Z" transform="translate(-185.19 -119.864)" fill="#f5ca56" fill-rule="evenodd"/>
              <path id="Trazado_24289" data-name="Trazado 24289" d="M239.748,192.442a.184.184,0,0,0-.324-.107.18.18,0,0,0-.044.133c.552,7.551,1.162,14.223,1.866,20.394a.184.184,0,0,0,.182.164.188.188,0,0,0,.183-.2C240.909,206.657,240.3,199.991,239.748,192.442Z" transform="translate(-189.279 -127.203)" fill="#fff"/>
              <path id="Trazado_24290" data-name="Trazado 24290" d="M296.693,142.779a39.413,39.413,0,0,1-1.816-4.041,37.982,37.982,0,0,1-2.432-8.983c-.505-3.95-.014-7.185,1.458-9.612a.184.184,0,1,0-.314-.191c-1.517,2.5-2.025,5.814-1.509,9.85a38.362,38.362,0,0,0,2.454,9.071,39.574,39.574,0,0,0,1.834,4.079.184.184,0,0,0,.339-.032A.181.181,0,0,0,296.693,142.779Z" transform="translate(-194.601 -119.863)" fill="#fff"/>
              <path id="Trazado_24291" data-name="Trazado 24291" d="M333.095,168.238c-4.8-1.553-9.653-3.471-13.82-5.146-6.794-2.733-13.632-5.633-20.327-8.622a.184.184,0,0,0-.243.093.183.183,0,0,0,.093.244c6.7,2.992,13.546,5.9,20.34,8.628,4.172,1.679,9.028,3.6,13.844,5.155a.178.178,0,0,0,.057.009.184.184,0,0,0,.057-.359Z" transform="translate(-195.291 -123.37)" fill="#fff"/>
              <path id="Trazado_24292" data-name="Trazado 24292" d="M261.786,207.1c-1.6-3.792-3.267-7.866-5.253-12.82-4.056-10.115-8.045-20.38-11.858-30.509a.189.189,0,0,0-.1-.1.185.185,0,0,0-.14,0,.183.183,0,0,0-.1.1.177.177,0,0,0,0,.14c3.814,10.133,7.8,20.4,11.861,30.516,1.985,4.949,3.655,9.024,5.256,12.826a.185.185,0,0,0,.171.112.182.182,0,0,0,.071-.014A.184.184,0,0,0,261.786,207.1Z" transform="translate(-189.779 -124.302)" fill="#fff"/>
            </g>
            <g id="Grupo_14477" data-name="Grupo 14477" transform="translate(60.771)">
              <path id="Trazado_24293" data-name="Trazado 24293" d="M264.329,126.807l7.9-6.154-3.47-6.991a28.622,28.622,0,0,1-17.3,8.584l1.942,5.938h6.245l.459-6.154Z" transform="translate(-251.274 -113.478)" fill="#f1f1f1" fill-rule="evenodd"/>
              <path id="Trazado_24294" data-name="Trazado 24294" d="M272.372,120.551l-3.468-6.989a.179.179,0,0,0-.039-.055.185.185,0,0,0-.261.006,28.462,28.462,0,0,1-11.4,7.235,24.847,24.847,0,0,1-5.781,1.292.184.184,0,0,0,.011.368,25.193,25.193,0,0,0,5.889-1.312,28.863,28.863,0,0,0,11.363-7.14l3.353,6.757a.186.186,0,0,0,.247.084.184.184,0,0,0,.093-.107A.177.177,0,0,0,272.372,120.551Z" transform="translate(-251.254 -113.457)" fill="#fff"/>
            </g>
          </g>
        </g>
      </g>
      <g id="man_1" transform="translate(0 1.208)">
        <g id="body-3" data-name="body" transform="translate(0 39.351)">
          <path id="pants-2" data-name="pants" d="M154.546,254.923l-1.023-9.643-21.545-.862,1.093-14.047-5.5,13.864-3.191-1.077A91.661,91.661,0,0,0,154.546,254.923Z" transform="translate(-87.324 -124.879)" fill="#26aab7" fill-rule="evenodd"/>
          <g id="body-4" data-name="body">
            <g id="Grupo_14478" data-name="Grupo 14478" transform="translate(47.02)">
              <path id="Trazado_24295" data-name="Trazado 24295" d="M147.245,158.492c3.857-12.122,13.219-32.679,13.219-32.679a24.563,24.563,0,0,0-3.042-.912l-6.7,3.123-1.285-7.806-5.051,5.877-6.521-5.051s-.907.136-2.391.427C135.468,121.47,145.408,147.288,147.245,158.492Z" transform="translate(-135.468 -113.712)" fill="#26aab7" fill-rule="evenodd"/>
              <path id="Trazado_24296" data-name="Trazado 24296" d="M150.987,127.29l6.7-3.123-.485-6.455c-8.842.158-17.272-4.734-17.272-4.734l-1.805,7.331,6.521,5.051,5.051-5.877Z" transform="translate(-135.738 -112.978)" fill="#8ec8c8" fill-rule="evenodd"/>
            </g>
            <g id="body-5" data-name="body" transform="translate(0 7.758)">
              <g id="Grupo_14480" data-name="Grupo 14480" transform="translate(48.432 7.016)">
                <path id="Trazado_24297" data-name="Trazado 24297" d="M137.039,200.378c7.808,2.815,15.565,5.7,21.492,7.937.779-2.026,2.945-13.511,5.113-25.66,3.242,5.456,14.063,21.926,26.927,22.692,15.429.917,38.618-19.263,38.618-19.263-.314-4.286-.591-8.844-.759-13.25-22.389,3.673-34.551,13.043-34.551,13.043s-16.439-42.064-21.124-49.962a19.645,19.645,0,0,0-6.591-6.5l-7.556,14.944,3.307,5.144-16.37,16.259c-3.784,13.692-8.505,34.612-8.505,34.612Z" transform="translate(-137.039 -129.419)" fill="#00223d" fill-rule="evenodd"/>
                <g id="Grupo_14479" data-name="Grupo 14479" transform="translate(5.542 45.575)">
                  <path id="Trazado_24298" data-name="Trazado 24298" d="M147.7,180.135a1.836,1.836,0,1,1-1.837,1.837,1.837,1.837,0,0,1,1.837-1.837Z" transform="translate(-143.475 -180.135)" fill="#e0f0ff" fill-rule="evenodd"/>
                  <path id="Trazado_24299" data-name="Trazado 24299" d="M145,192.807a1.791,1.791,0,1,1-1.791,1.791A1.791,1.791,0,0,1,145,192.807Z" transform="translate(-143.206 -181.42)" fill="#e0f0ff" fill-rule="evenodd"/>
                </g>
              </g>
              <path id="Trazado_24300" data-name="Trazado 24300" d="M132.835,244.418l21.545.862,1.414.057,1.653-13.914c-6.014-.01-14.521-.217-23.52-1.051Z" transform="translate(-88.181 -132.636)" fill="#00223d" fill-rule="evenodd"/>
              <path id="Trazado_24301" data-name="Trazado 24301" d="M130.962,229.795c-9.344-.866-19.217-2.408-27.385-5.109a62.82,62.82,0,0,0,18.692,17.9l3.191,1.077Z" transform="translate(-85.215 -132.06)" fill="#00223d" fill-rule="evenodd"/>
              <path id="Trazado_24302" data-name="Trazado 24302" d="M94.964,211.758c9.012,4.375,21.909,6.609,33.927,7.722,9,.835,17.505,1.042,23.52,1.051,5.35.009,8.729-.137,8.729-.137A14.958,14.958,0,0,0,163.622,213a12.779,12.779,0,0,0,0-1.337s-4.236-1.632-10.552-4.011c-5.926-2.232-13.683-5.121-21.492-7.937,0,0,4.721-20.92,8.506-34.612.278-1,.55-1.971.815-2.886L132.388,147.2l3.123-4.224-10.523-20.04a52.075,52.075,0,0,0-13.656,5.41q-.456.282-.89.578c-8.082,5.51-29.022,43.35-27.185,69.066C83.69,204.047,88.249,208.5,94.964,211.758Z" transform="translate(-83.144 -121.745)" fill="#00223d" fill-rule="evenodd"/>
              <path id="Trazado_24303" data-name="Trazado 24303" d="M146.5,165.464l16.371-16.259-3.307-5.144,7.556-14.944a29.424,29.424,0,0,0-5.541-2.673S152.22,147,148.363,159.123c-.331,1.039-.68,2.2-1.044,3.454C147.054,163.494,146.782,164.46,146.5,165.464Z" transform="translate(-89.567 -122.101)" fill="#cce7ff" fill-rule="evenodd"/>
              <path id="Trazado_24304" data-name="Trazado 24304" d="M137.108,147.062l8.508,15.026c.364-1.255.714-2.415,1.044-3.454-1.837-11.2-11.777-37.022-11.777-37.022-1.336.263-3.142.653-5.176,1.186l10.523,20.04Z" transform="translate(-87.864 -121.611)" fill="#cce7ff" fill-rule="evenodd"/>
              <path id="Trazado_24305" data-name="Trazado 24305" d="M118.44,130.771a6.039,6.039,0,0,0-2.669-1.832,3.83,3.83,0,0,0-1.294-.193.185.185,0,0,0-.105.324.181.181,0,0,0,.134.043,3.449,3.449,0,0,1,1.155.177,5.678,5.678,0,0,1,2.5,1.724c2.39,2.732,3.576,8.085,3.426,15.482a.184.184,0,0,0,.181.188.185.185,0,0,0,.188-.181C122.112,138.905,120.927,133.612,118.44,130.771Z" transform="translate(-86.303 -122.334)" fill="#fff"/>
              <path id="Trazado_24306" data-name="Trazado 24306" d="M197.914,186.312c-3.341-8.553-6.839-17.271-10.4-25.911-1.786-4.331-3.914-9.451-6.174-14.576-.692-1.569-1.612-3.633-2.6-5.695-.66-1.384-1.265-2.626-1.965-3.807a16.831,16.831,0,0,0-1.292-1.872.184.184,0,0,0-.327.093.185.185,0,0,0,.039.136,16.4,16.4,0,0,1,1.263,1.83c.692,1.167,1.293,2.4,1.95,3.778.982,2.057,1.9,4.118,2.592,5.685,2.26,5.125,4.388,10.24,6.171,14.568,3.559,8.635,7.057,17.351,10.4,25.9a.181.181,0,0,0,.1.1.176.176,0,0,0,.074.016.19.19,0,0,0,.067-.013.186.186,0,0,0,.105-.239Z" transform="translate(-92.471 -122.906)" fill="#fff"/>
              <path id="Trazado_24307" data-name="Trazado 24307" d="M153.326,230.094a.183.183,0,0,0-.13-.055A244.523,244.523,0,0,1,121.034,228c-13.679-1.913-23.72-5.085-29.847-9.427a.184.184,0,1,0-.213.3c6.167,4.371,16.247,7.562,29.962,9.485a244.681,244.681,0,0,0,32.26,2.045.182.182,0,0,0,.13-.054.183.183,0,0,0,0-.26Z" transform="translate(-83.93 -131.437)" fill="#fff"/>
              <path id="Trazado_24308" data-name="Trazado 24308" d="M165.753,150.638a.185.185,0,0,0-.212.151c-1.657,9.895-3.326,19.587-4.959,28.808-1.2,6.788-2.232,12.492-3.35,18.263-.475,2.455-.885,4.511-1.338,6.569-.146.657-.319,1.432-.514,2.194l-.012.046c-.092.356-.185.724-.306,1.068-7.731-2.912-14.656-5.468-21.166-7.816,1.706-7.569,3.562-15.367,5.52-23.176.927-3.7,1.721-6.761,2.5-9.632q.216-.794.434-1.589L158.686,149.3a.183.183,0,0,0,.025-.23l-3.249-5.055,5.161-10.207a.183.183,0,0,0,.011-.141.187.187,0,0,0-.093-.107.181.181,0,0,0-.14-.01.183.183,0,0,0-.107.092l-5.208,10.3a.18.18,0,0,0,.01.182l3.225,5.018-15.774,15.667c.22-.789.423-1.507.619-2.185a.175.175,0,0,0,.018-.059c.358-1.234.7-2.354,1.037-3.422,1.389-4.366,3.046-8.63,4.63-12.586,1.574-3.936,3.322-8.11,5.342-12.76a.184.184,0,0,0-.237-.244.177.177,0,0,0-.1.1c-2.021,4.651-3.77,8.828-5.347,12.769-1.422,3.553-3.054,7.738-4.409,11.9-.431-2.368-1.065-4.763-1.63-6.8-.745-2.686-1.617-5.546-2.743-9-1.64-5.032-3.508-10.374-5.713-16.329a.181.181,0,0,0-.1-.1.183.183,0,0,0-.141-.005.179.179,0,0,0-.1.1.183.183,0,0,0-.005.141c2.2,5.951,4.07,11.288,5.708,16.315,1.124,3.45,1.994,6.307,2.738,8.988a72.089,72.089,0,0,1,1.742,7.459c-.3.944-.6,1.924-.911,2.993l-8.232-14.538,3.052-4.128a.181.181,0,0,0,.015-.2L128.83,126.16a.184.184,0,0,0-.326.171l8.9,16.941-3.054,4.132a.183.183,0,0,0-.012.2l8.468,14.955c-.37,1.281-.754,2.656-1.241,4.457-.778,2.873-1.574,5.935-2.5,9.638-1.953,7.791-3.807,15.576-5.512,23.14l-.08-.029c-6.8-2.449-11.995-4.261-16.85-5.875-2.743-.913-4.988-1.63-7.064-2.258,1.068-2.267,1.951-4.62,2.6-6.42.838-2.334,1.677-4.922,2.565-7.912,1.266-4.258,2.494-8.851,3.754-14.041.467-1.922,1.012-4.2,1.513-6.521a.182.182,0,0,0-.025-.139.184.184,0,0,0-.116-.08.179.179,0,0,0-.138.025.187.187,0,0,0-.081.116c-.5,2.321-1.045,4.595-1.511,6.512-1.258,5.181-2.485,9.769-3.749,14.023-.886,2.984-1.724,5.566-2.558,7.893a61.866,61.866,0,0,1-2.648,6.424c-1.481-.446-3.232-.957-5.014-1.378a.184.184,0,0,0-.221.137.181.181,0,0,0,.022.139.184.184,0,0,0,.114.083c1.857.439,3.688.977,5.39,1.493,2.068.626,4.31,1.343,7.054,2.256,4.854,1.614,10.048,3.425,16.842,5.873,6.676,2.4,13.794,5.033,21.764,8.035a.171.171,0,0,0,.066.013.184.184,0,0,0,.172-.118,11.691,11.691,0,0,0,.385-1.3c.206-.8.38-1.58.525-2.237.455-2.064.864-4.122,1.341-6.578,1.119-5.777,2.149-11.482,3.351-18.269,1.633-9.224,3.3-18.916,4.959-28.811A.185.185,0,0,0,165.753,150.638Z" transform="translate(-85.249 -122.062)" fill="#fff"/>
              <path id="Trazado_24309" data-name="Trazado 24309" d="M154.544,245.607a.186.186,0,0,0-.176-.17l-21.355-.854.828-10.648a.184.184,0,1,0-.367-.029l-.844,10.838a.184.184,0,0,0,.176.2l21.387.856,1,9.42.379.081Z" transform="translate(-88.16 -132.978)" fill="#fff" fill-rule="evenodd"/>
              <path id="Trazado_24310" data-name="Trazado 24310" d="M131.895,233.848a.184.184,0,0,0-.242-.1.184.184,0,0,0-.1.1l-4.164,10.491-3.717-1.254q.652.423,1.315.833l2.45.826a.171.171,0,0,0,.059.01.184.184,0,0,0,.172-.117L131.9,233.99A.183.183,0,0,0,131.895,233.848Z" transform="translate(-87.252 -132.978)" fill="#fff" fill-rule="evenodd"/>
              <g id="Grupo_14481" data-name="Grupo 14481" transform="translate(77.811 84.398)">
                <path id="Trazado_24311" data-name="Trazado 24311" d="M169.938,229.78s7.891,1.788,12.857,2.411c-1.137-1.963-.616-5.749,2.382-5.578,2.822.161,9.782,2.727,10.915,5.278a8.857,8.857,0,0,0,3.091-1.6c2.8-2.31,5.229-6.7,5.288-8.824.018-.661-.193-1.1-.695-1.187a13.059,13.059,0,0,0-3,.075c-2.942.3-6.648,1.028-6.648,1.028s-3.4,3.858-5.419,3.306,1.469-6.7,5.619-7.237c.951-.864,1.53-1.591,1.177-1.856-1.1-.827-23.088,6.8-23.088,6.8A14.957,14.957,0,0,1,169.938,229.78Z" transform="translate(-169.753 -215.53)" fill="#f97070" fill-rule="evenodd"/>
                <path id="Trazado_24312" data-name="Trazado 24312" d="M204.253,220.505a.945.945,0,0,0-.466-.215,18.667,18.667,0,0,0-4.553.253l-.111.015c-1.642.223-3.34.5-5.046.835a.2.2,0,0,0-.077.035c-1.178,1.328-3.754,3.684-5.258,3.275a.577.577,0,0,1-.276-.159c-.487-.527.15-1.9.282-2.174a9.649,9.649,0,0,1,2.428-3.037,6.445,6.445,0,0,1,3.16-1.506.182.182,0,0,0,.122-.07.185.185,0,0,0-.169-.3,6.7,6.7,0,0,0-3.348,1.589,10.008,10.008,0,0,0-2.523,3.159c-.272.555-.838,1.919-.222,2.586a.936.936,0,0,0,.449.264c2.024.553,5.165-2.869,5.563-3.315,1.678-.324,3.348-.6,4.964-.82,1.072-.146,1.89-.234,2.651-.286a8.682,8.682,0,0,1,1.9.016.574.574,0,0,1,.288.13c.571.5.03,2.152-.15,2.647a17.508,17.508,0,0,1-2.421,4.339,14.9,14.9,0,0,1-2.395,2.571,8.648,8.648,0,0,1-2.876,1.522c-1.393-2.7-8.509-5.1-11-5.238a2.658,2.658,0,0,0-2.5,1.2,4.712,4.712,0,0,0-.22,4.333c-1.537-.2-3.037-.465-4.178-.67-2.734-.494-5.531-1.063-8.314-1.693a.183.183,0,0,0-.22.138.18.18,0,0,0,.023.139.184.184,0,0,0,.115.082c2.788.631,5.591,1.2,8.33,1.7,1.246.225,2.889.51,4.545.717a.177.177,0,0,0,.086-.009.211.211,0,0,0,.084-.063.182.182,0,0,0,.036-.087.186.186,0,0,0-.01-.086,4.438,4.438,0,0,1-.031-4.2,2.316,2.316,0,0,1,2.23-1.131,20.556,20.556,0,0,1,5.606,1.548c1.017.424,4.394,1.939,5.142,3.6a1.763,1.763,0,0,1,.131.419.184.184,0,0,0,.181.154.19.19,0,0,0,.182-.215,2,2,0,0,0-.075-.295,8.984,8.984,0,0,0,2.965-1.579,15.221,15.221,0,0,0,2.455-2.634,17.883,17.883,0,0,0,2.473-4.434C204.6,222.485,204.92,221.086,204.253,220.505Z" transform="translate(-169.732 -215.726)" fill="#fff"/>
              </g>
            </g>
          </g>
        </g>
        <g id="head-2" data-name="head" transform="translate(51.032)">
          <path id="Trazado_24313" data-name="Trazado 24313" d="M157.136,110.457a2.4,2.4,0,0,0,.576,0c9.735.735,12.858-28.655,12.858-28.655-7.919-.621-18.623-5.624-20.277-4.154s-3.878,9.3-3.878,9.3a9.246,9.246,0,0,0-2.283.059,3.405,3.405,0,0,0-2.034.951c-1.193,1.378,2.3,4.133,2.3,4.133l-4.256,17.282s8.429,4.892,17.272,4.734Z" transform="translate(-139.954 -70.018)" fill="#f97070" fill-rule="evenodd"/>
          <path id="Trazado_24314" data-name="Trazado 24314" d="M150.743,76.816c1.653-1.469,12.358,3.533,20.277,4.154,0,0,1.857.346,2.317-4.063s-8.909-10.378-23.512-6.429a3.2,3.2,0,0,1-2.021,1.01c-1.1,0-2.2.735-2.755,6.43a72.693,72.693,0,0,0-.465,8.255,9.246,9.246,0,0,1,2.283-.059S149.089,78.285,150.743,76.816Z" transform="translate(-140.404 -69.188)" fill="#00223d" fill-rule="evenodd"/>
          <path id="Trazado_24315" data-name="Trazado 24315" d="M157.385,117.507a32.443,32.443,0,0,1-11.86-2.283,36.221,36.221,0,0,1-5.315-2.426.184.184,0,0,0-.185.319,36.088,36.088,0,0,0,5.371,2.452,33.234,33.234,0,0,0,11.561,2.309c.146,0,.291,0,.436,0a.185.185,0,0,0,.181-.188A.182.182,0,0,0,157.385,117.507Z" transform="translate(-139.933 -73.606)" fill="#fff"/>
          <path id="Trazado_24316" data-name="Trazado 24316" d="M158.036,113.2a.183.183,0,0,0-.125-.066c-3.861-.338-8.245-5.333-9.951-7.465a.184.184,0,1,0-.288.23c1.735,2.169,6.2,7.251,10.206,7.6a.19.19,0,0,0,.2-.168A.183.183,0,0,0,158.036,113.2Z" transform="translate(-140.714 -72.879)" fill="#fff"/>
          <g id="Grupo_14484" data-name="Grupo 14484" transform="translate(14.66 14.28)">
            <g id="Grupo_14482" data-name="Grupo 14482" transform="translate(1.115 2.567)">
              <path id="Trazado_24317" data-name="Trazado 24317" d="M167.729,90.884c-.211.443-.154,1.241.3,1.449s1.095-.255,1.306-.7.138-1.245-.3-1.449C168.585,89.978,167.94,90.442,167.729,90.884Z" transform="translate(-158.514 -88.158)" fill="#232323" fill-rule="evenodd"/>
              <path id="Trazado_24318" data-name="Trazado 24318" d="M157.6,88.683c-.212.444-.138,1.245.295,1.449.449.209,1.095-.255,1.306-.7s.155-1.241-.295-1.45S157.813,88.242,157.6,88.683Z" transform="translate(-157.488 -87.935)" fill="#232323" fill-rule="evenodd"/>
            </g>
            <g id="Grupo_14483" data-name="Grupo 14483">
              <path id="Trazado_24319" data-name="Trazado 24319" d="M160.353,85.4a4.087,4.087,0,0,0-.651-.191,5.866,5.866,0,0,0-3.266.23.3.3,0,0,0-.167.389.306.306,0,0,0,.39.179,5.172,5.172,0,0,1,2.915-.211c.189.041.329.082.421.111l.107.037a.319.319,0,0,0,.429-.15A.311.311,0,0,0,160.353,85.4Z" transform="translate(-156.247 -85.078)" fill="#232323" fill-rule="evenodd"/>
              <path id="Trazado_24320" data-name="Trazado 24320" d="M170.822,87.981a1.987,1.987,0,0,0-.443-.544,3.236,3.236,0,0,0-1.52-.745,5.586,5.586,0,0,0-1.782-.073.3.3,0,0,0-.269.328.306.306,0,0,0,.337.269,4.959,4.959,0,0,1,1.587.06,2.635,2.635,0,0,1,1.237.6,1.563,1.563,0,0,1,.253.275c.025.033.053.06.05.073a.3.3,0,1,0,.548-.246Z" transform="translate(-157.317 -85.231)" fill="#232323" fill-rule="evenodd"/>
            </g>
            <path id="Trazado_24321" data-name="Trazado 24321" d="M164,94.139l.094,3.438-1.921-.417a.149.149,0,0,0-.063.291l2.109.458a.134.134,0,0,0,.122-.031.174.174,0,0,0,.059-.119l-.1-3.629a.145.145,0,0,0-.15-.145A.154.154,0,0,0,164,94.139Z" transform="translate(-156.829 -85.981)" fill="#232323" fill-rule="evenodd"/>
            <path id="Trazado_24322" data-name="Trazado 24322" d="M157.714,100.113a4.978,4.978,0,0,0,.664,1.269,4.177,4.177,0,0,0,2.522,1.671,5.632,5.632,0,0,0,2.561-.1.156.156,0,0,0,.1-.178.14.14,0,0,0-.173-.109,5.4,5.4,0,0,1-2.428.093,4.169,4.169,0,0,1-2.814-2.38,1.452,1.452,0,0,1-.109-.258l-.034-.071a.151.151,0,0,0-.188-.122A.149.149,0,0,0,157.714,100.113Z" transform="translate(-156.395 -86.583)" fill="#232323" fill-rule="evenodd"/>
          </g>
        </g>
      </g>
    </g>
    <g id="Document" transform="translate(1105.627 1028.435)">
      <g id="Artwork_6" data-name="Artwork 6">
        <g id="Grupo_39656" data-name="Grupo 39656">
          <g id="Grupo_39652" data-name="Grupo 39652" transform="translate(10.991)">
            <path id="Trazado_92892" data-name="Trazado 92892" d="M442.485,191.6H408.359V133.529h25.372l8.755,8.754Z" transform="translate(-408.359 -133.529)" fill="#35363b"/>
            <g id="Grupo_39650" data-name="Grupo 39650" transform="translate(4.878 7.524)">
              <rect id="Rectángulo_27994" data-name="Rectángulo 27994" width="24.409" height="1.671" fill="#555866"/>
              <rect id="Rectángulo_27995" data-name="Rectángulo 27995" width="24.409" height="1.671" transform="translate(0 4.151)" fill="#555866"/>
              <rect id="Rectángulo_27996" data-name="Rectángulo 27996" width="24.409" height="1.671" transform="translate(0 8.303)" fill="#555866"/>
              <rect id="Rectángulo_27997" data-name="Rectángulo 27997" width="24.409" height="1.671" transform="translate(0 12.454)" fill="#555866"/>
              <rect id="Rectángulo_27998" data-name="Rectángulo 27998" width="24.409" height="1.671" transform="translate(0 16.605)" fill="#555866"/>
              <rect id="Rectángulo_27999" data-name="Rectángulo 27999" width="14.367" height="1.671" transform="translate(0 20.757)" fill="#42444f"/>
            </g>
            <g id="Grupo_39651" data-name="Grupo 39651" transform="translate(4.878 36.632)">
              <rect id="Rectángulo_28000" data-name="Rectángulo 28000" width="24.409" height="1.671" fill="#555866"/>
              <rect id="Rectángulo_28001" data-name="Rectángulo 28001" width="24.409" height="1.671" transform="translate(0 4.151)" fill="#555866"/>
              <rect id="Rectángulo_28002" data-name="Rectángulo 28002" width="24.409" height="1.671" transform="translate(0 8.303)" fill="#555866"/>
              <rect id="Rectángulo_28003" data-name="Rectángulo 28003" width="14.367" height="1.671" transform="translate(0 12.454)" fill="#42444f"/>
            </g>
            <path id="Trazado_92893" data-name="Trazado 92893" d="M451.361,142.283h-8.755v-8.754h0l8.755,8.754Z" transform="translate(-417.234 -133.529)" fill="#27282b"/>
          </g>
          <g id="Grupo_39655" data-name="Grupo 39655" transform="translate(0 10.051)">
            <path id="Trazado_92894" data-name="Trazado 92894" d="M427.649,205.165H393.523V147.1h25.372l8.755,8.755Z" transform="translate(-393.523 -147.096)" fill="url(#linear-gradient)"/>
            <g id="Grupo_39653" data-name="Grupo 39653" transform="translate(4.878 7.524)">
              <rect id="Rectángulo_28004" data-name="Rectángulo 28004" width="24.409" height="1.671" fill="#42444f"/>
              <rect id="Rectángulo_28005" data-name="Rectángulo 28005" width="24.409" height="1.671" transform="translate(0 4.151)" fill="#42444f"/>
              <rect id="Rectángulo_28006" data-name="Rectángulo 28006" width="24.409" height="1.671" transform="translate(0 8.303)" fill="#42444f"/>
              <rect id="Rectángulo_28007" data-name="Rectángulo 28007" width="24.409" height="1.671" transform="translate(0 12.454)" fill="#42444f"/>
              <rect id="Rectángulo_28008" data-name="Rectángulo 28008" width="24.409" height="1.671" transform="translate(0 16.605)" fill="#42444f"/>
              <rect id="Rectángulo_28009" data-name="Rectángulo 28009" width="14.367" height="1.671" transform="translate(0 20.757)" fill="#42444f"/>
            </g>
            <g id="Grupo_39654" data-name="Grupo 39654" transform="translate(4.878 36.633)">
              <rect id="Rectángulo_28010" data-name="Rectángulo 28010" width="24.409" height="1.671" fill="#42444f"/>
              <rect id="Rectángulo_28011" data-name="Rectángulo 28011" width="24.409" height="1.671" transform="translate(0 4.151)" fill="#42444f"/>
              <rect id="Rectángulo_28012" data-name="Rectángulo 28012" width="24.409" height="1.671" transform="translate(0 8.303)" fill="#42444f"/>
              <rect id="Rectángulo_28013" data-name="Rectángulo 28013" width="14.367" height="1.671" transform="translate(0 12.454)" fill="#42444f"/>
            </g>
            <path id="Trazado_92895" data-name="Trazado 92895" d="M436.525,155.851H427.77V147.1h0l8.755,8.755Z" transform="translate(-402.398 -147.096)" fill="#c5cbd6"/>
          </g>
        </g>
      </g>
    </g>
    <g id="Grupo_42966" data-name="Grupo 42966" transform="translate(914.326 1062.495)">
      <path id="Trazado_92922" data-name="Trazado 92922" d="M348.872,286.142v39.582H290.68V286.142a3.991,3.991,0,0,1,3.992-3.992H344.88A3.991,3.991,0,0,1,348.872,286.142Z" transform="translate(-287.944 -282.15)" fill="#35363b" opacity="0.25" style="mix-blend-mode: multiply;isolation: isolate"/>
      <path id="Trazado_94708" data-name="Trazado 94708" d="M348.872,294.093V282.15H290.68v11.943c0,.665,1.787,1.2,3.992,1.2H344.88C347.085,295.3,348.872,294.758,348.872,294.093Z" transform="translate(-287.944 -238.577)" fill="#35363b" opacity="0.25" style="mix-blend-mode: multiply;isolation: isolate"/>
      <g id="Artwork_4" data-name="Artwork 4" transform="translate(0 1.768)">
        <g id="Grupo_39695" data-name="Grupo 39695">
          <rect id="Rectángulo_28103" data-name="Rectángulo 28103" width="58.193" height="52.656" rx="4.306" fill="url(#linear-gradient)"/>
          <g id="Grupo_39694" data-name="Grupo 39694" transform="translate(37.881 3.031)">
            <path id="Trazado_92926" data-name="Trazado 92926" d="M345.6,289.352a2.024,2.024,0,1,1-2.024-2.024A2.024,2.024,0,0,1,345.6,289.352Z" transform="translate(-329.55 -287.328)" fill="#26aab7"/>
            <path id="Trazado_92927" data-name="Trazado 92927" d="M339.123,289.352a2.024,2.024,0,1,1-2.024-2.024A2.024,2.024,0,0,1,339.123,289.352Z" transform="translate(-329.076 -287.328)" fill="#f5ca56"/>
            <path id="Trazado_92928" data-name="Trazado 92928" d="M332.65,289.352a2.024,2.024,0,1,1-2.024-2.024A2.024,2.024,0,0,1,332.65,289.352Z" transform="translate(-328.602 -287.328)" fill="#7d6eb2"/>
          </g>
        </g>
      </g>
      <g id="Grupo_39703" data-name="Grupo 39703" transform="translate(6.477 17.817)">
        <g id="gear" transform="translate(0 0.872)">
          <g id="Grupo_39698" data-name="Grupo 39698">
            <g id="gear-2" data-name="gear">
              <path id="Trazado_92931" data-name="Trazado 92931" d="M315.784,314.922a10.672,10.672,0,0,0,0-3.961h-3.442a7.25,7.25,0,0,0-.648-1.568l2.432-2.432a10.642,10.642,0,0,0-2.8-2.8l-2.434,2.434a7.219,7.219,0,0,0-1.568-.649V302.5a10.68,10.68,0,0,0-3.962,0v3.443a7.252,7.252,0,0,0-1.567.649l-2.434-2.434a10.6,10.6,0,0,0-2.8,2.8l2.432,2.432a7.2,7.2,0,0,0-.649,1.568H294.9a10.672,10.672,0,0,0,0,3.961h3.441a7.221,7.221,0,0,0,.649,1.568l-2.432,2.432a10.607,10.607,0,0,0,2.8,2.8l2.434-2.434a7.351,7.351,0,0,0,1.567.65v3.442a10.677,10.677,0,0,0,3.962,0v-3.442a7.317,7.317,0,0,0,1.568-.65l2.434,2.434a10.62,10.62,0,0,0,2.8-2.8l-2.432-2.434a7.267,7.267,0,0,0,.648-1.568Zm-10.44.163a2.144,2.144,0,1,1,2.144-2.144A2.144,2.144,0,0,1,305.344,315.085Z" transform="translate(-294.718 -302.315)" fill="#6f7082"/>
            </g>
          </g>
        </g>
        <g id="Data_server" data-name="Data server" transform="translate(24.965)">
          <g id="Grupo_39702" data-name="Grupo 39702">
            <g id="Grupo_39699" data-name="Grupo 39699" transform="translate(0 14.676)">
              <path id="Trazado_92932" data-name="Trazado 92932" d="M321.655,319.251v5.2c0,1.044,4.659,1.892,10.406,1.892s10.407-.848,10.407-1.892v-5.2Z" transform="translate(-321.655 -317.359)" fill="#fff"/>
              <ellipse id="Elipse_3779" data-name="Elipse 3779" cx="10.406" cy="1.892" rx="10.406" ry="1.892" fill="#6f7082"/>
            </g>
            <g id="Grupo_39700" data-name="Grupo 39700" transform="translate(0 7.338)">
              <path id="Trazado_92933" data-name="Trazado 92933" d="M321.655,311.334v5.2c0,1.045,4.659,1.893,10.406,1.893s10.407-.847,10.407-1.893v-5.2Z" transform="translate(-321.655 -309.441)" fill="#fff"/>
              <ellipse id="Elipse_3780" data-name="Elipse 3780" cx="10.406" cy="1.892" rx="10.406" ry="1.892" fill="#6f7082"/>
            </g>
            <g id="Grupo_39701" data-name="Grupo 39701">
              <path id="Trazado_92934" data-name="Trazado 92934" d="M321.655,303.416v5.2c0,1.045,4.659,1.893,10.406,1.893s10.407-.847,10.407-1.893v-5.2Z" transform="translate(-321.655 -301.524)" fill="#fff"/>
              <ellipse id="Elipse_3781" data-name="Elipse 3781" cx="10.406" cy="1.892" rx="10.406" ry="1.892" fill="#6f7082"/>
            </g>
          </g>
        </g>
      </g>
    </g>
    <g id="chat" transform="translate(1019.447 1038.319)">
      <g id="Grupo_39680" data-name="Grupo 39680">
        <path id="Trazado_92914" data-name="Trazado 92914" d="M368.546,106.406H351.9a8.844,8.844,0,0,0-.506,17.674l-5.468,6.5,10.308-6.487h12.309a8.845,8.845,0,1,0,0-17.69Z" transform="translate(-343.059 -106.406)" fill="#7d6eb2"/>
        <path id="Trazado_92915" data-name="Trazado 92915" d="M352.932,112.867a2.876,2.876,0,1,0,2.876,2.876A2.876,2.876,0,0,0,352.932,112.867Zm7.805,0a2.876,2.876,0,1,0,2.876,2.876A2.876,2.876,0,0,0,360.737,112.867Zm7.8,0a2.876,2.876,0,1,0,2.876,2.876A2.875,2.875,0,0,0,368.542,112.867Z" transform="translate(-343.571 -106.879)" fill="#fff"/>
      </g>
    </g>
  </g>
</svg>
