<svg xmlns="http://www.w3.org/2000/svg" xmlns:xlink="http://www.w3.org/1999/xlink" width="242.472" height="161.73" viewBox="0 0 242.472 161.73">
  <defs>
    <linearGradient id="linear-gradient" x1="0.5" x2="0.5" y2="1" gradientUnits="objectBoundingBox">
      <stop offset="0" stop-color="#fff"/>
      <stop offset="1" stop-color="#d3d3d3"/>
    </linearGradient>
  </defs>
  <g id="Grupo_46875" data-name="Grupo 46875" transform="translate(-271.363 -415.284)">
    <g id="Grupo_46874" data-name="Grupo 46874" transform="translate(364.532 415.284)">
      <g id="Grupo_46297" data-name="Grupo 46297" transform="translate(2.531 1.664)">
        <path id="Trazado_95915" data-name="Trazado 95915" d="M274.436,1299.948a4.663,4.663,0,0,1-6.351,1.7l-18.894-10.908a4.664,4.664,0,0,1-1.7-6.352l34.952-60.538a4.663,4.663,0,0,1,6.351-1.7l18.894,10.908a4.664,4.664,0,0,1,1.7,6.351Z" transform="translate(-246.869 -1221.531)" fill="#d8dff5"/>
        <path id="Trazado_95916" data-name="Trazado 95916" d="M480.984,1290.55l-26.947-15.558,7.308-12.656,26.947,15.557Z" transform="translate(-427.456 -1257.099)" fill="#7d6eb2"/>
        <rect id="Rectángulo_28185" data-name="Rectángulo 28185" width="14.615" height="31.116" transform="matrix(0.5, -0.866, 0.866, 0.5, 16.249, 35.789)" fill="#402f7c" opacity="0.75"/>
        <rect id="Rectángulo_28186" data-name="Rectángulo 28186" width="14.615" height="31.115" transform="translate(5.917 53.685) rotate(-60)" fill="#1f1164" opacity="0.5"/>
        <path id="Trazado_95917" data-name="Trazado 95917" d="M414.847,1791.921a2.357,2.357,0,1,0,3.22-.862A2.359,2.359,0,0,0,414.847,1791.921Z" transform="translate(-393.018 -1717.709)" fill="#8076f5"/>
      </g>
      <g id="Grupo_46298" data-name="Grupo 46298" transform="translate(0.543)">
        <path id="Trazado_95918" data-name="Trazado 95918" d="M261.582,1287.584a4.664,4.664,0,0,1-5.7,3.287l-21.073-5.647a4.661,4.661,0,0,1-3.287-5.693l18.092-67.523a4.665,4.665,0,0,1,5.7-3.289l21.073,5.647a4.664,4.664,0,0,1,3.288,5.694Z" transform="translate(-231.369 -1208.561)" fill="#eceffa"/>
        <rect id="Rectángulo_28187" data-name="Rectángulo 28187" width="14.615" height="31.116" transform="translate(13.596 20.814) rotate(-74.999)" fill="#aee6e6"/>
        <path id="Trazado_95919" data-name="Trazado 95919" d="M325.7,1438.5l-30.055-8.054,3.782-14.117,30.055,8.053Z" transform="translate(-287.401 -1389.672)" fill="#167377" opacity="0.75"/>
        <rect id="Rectángulo_28188" data-name="Rectángulo 28188" width="14.615" height="31.115" transform="matrix(0.259, -0.966, 0.966, 0.259, 2.899, 60.737)" fill="#26aab7" opacity="0.5"/>
        <path id="Trazado_95920" data-name="Trazado 95920" d="M414.612,1792.489a2.357,2.357,0,1,0,2.887-1.666A2.356,2.356,0,0,0,414.612,1792.489Z" transform="translate(-391.031 -1716.044)" fill="#8076f5"/>
      </g>
      <g id="Grupo_46299" data-name="Grupo 46299" transform="translate(0 3.275)">
        <path id="Trazado_95921" data-name="Trazado 95921" d="M258.256,1308.638a4.664,4.664,0,0,1-4.65,4.649H231.789a4.663,4.663,0,0,1-4.649-4.649v-69.9a4.662,4.662,0,0,1,4.649-4.649h21.817a4.663,4.663,0,0,1,4.65,4.649Z" transform="translate(-227.14 -1234.085)" fill="#fff"/>
        <rect id="Rectángulo_28189" data-name="Rectángulo 28189" width="31.116" height="14.615" transform="translate(0 8.013)" fill="#f5ca56"/>
        <rect id="Rectángulo_28190" data-name="Rectángulo 28190" width="31.116" height="14.615" transform="translate(0 28.68)" fill="#f9c869" opacity="0.75"/>
        <rect id="Rectángulo_28191" data-name="Rectángulo 28191" width="31.116" height="14.615" transform="translate(0 49.345)" fill="#ffce83" opacity="0.5"/>
        <path id="Trazado_95922" data-name="Trazado 95922" d="M414.541,1793.1a2.357,2.357,0,1,0,2.356-2.358A2.356,2.356,0,0,0,414.541,1793.1Z" transform="translate(-390.496 -1719.321)" fill="#00223d"/>
      </g>
    </g>
    <g id="Grupo_46873" data-name="Grupo 46873" transform="translate(271.363 431.301)">
      <g id="Grupo_46851" data-name="Grupo 46851" transform="translate(164.781 3.513)">
        <path id="Trazado_97330" data-name="Trazado 97330" d="M699.551,1338.4c0,2.947-3.857,5.336-8.616,5.336s-8.616-2.389-8.616-5.336,3.857-5.336,8.616-5.336S699.551,1335.456,699.551,1338.4Z" transform="translate(-652.089 -1225.024)" fill="#344966"/>
        <path id="Trazado_97331" data-name="Trazado 97331" d="M598.737,895.5a38.846,38.846,0,0,0-25.444,68.2c.029.031,6.068,6.558,7.064,13.395l.181,4.184a5.871,5.871,0,0,0,1.521,3.7c.082.09.167.176.254.26H615.16c.087-.084.172-.171.254-.26a5.871,5.871,0,0,0,1.521-3.7l.181-4.184c1-6.836,7.035-13.364,7.064-13.395a38.846,38.846,0,0,0-25.443-68.2Z" transform="translate(-559.891 -895.504)" fill="url(#linear-gradient)"/>
        <path id="Rectángulo_28272" data-name="Rectángulo 28272" d="M0,0H33.012a0,0,0,0,1,0,0V.916A23.323,23.323,0,0,1,9.689,24.239h0A9.689,9.689,0,0,1,0,14.55V0A0,0,0,0,1,0,0Z" transform="translate(22.34 89.735)" fill="url(#linear-gradient)"/>
        <path id="Trazado_97332" data-name="Trazado 97332" d="M640.012,983.676a38.871,38.871,0,0,1-31.154-62.111,38.848,38.848,0,0,0-4.027,61.765c.029.031,6.068,6.558,7.064,13.395l.181,4.185a5.872,5.872,0,0,0,1.522,3.7c.081.09.167.176.253.26H646.7c.087-.084.172-.171.254-.26a5.871,5.871,0,0,0,1.521-3.7l.181-4.185c1-6.836,7.036-13.364,7.064-13.395a39.062,39.062,0,0,0,5.615-6.021A38.682,38.682,0,0,1,640.012,983.676Z" transform="translate(-591.428 -915.13)" fill="#efefef" opacity="0.3"/>
        <g id="Grupo_46849" data-name="Grupo 46849" transform="translate(22.093 16.403)">
          <path id="Trazado_97333" data-name="Trazado 97333" d="M669.573,1003.216l-7.718-33.666-6.774,19.582-1.987-.687,9.171-26.511,7.876,34.352,8.067-19.691,7.471,12.614-1.809,1.071-5.319-8.979Z" transform="translate(-653.094 -961.933)" fill="#f5ca56"/>
        </g>
        <g id="Grupo_46850" data-name="Grupo 46850" transform="translate(21.302 39.129)">
          <path id="Trazado_97334" data-name="Trazado 97334" d="M758.812,1109.641l-.185.019a1.776,1.776,0,0,1-1.949-1.583l-5.4-52.126a1.776,1.776,0,0,1,1.583-1.949l.185-.019a1.776,1.776,0,0,1,1.949,1.583l5.4,52.126A1.776,1.776,0,0,1,758.812,1109.641Z" transform="translate(-751.27 -1053.973)" fill="#344966"/>
          <path id="Trazado_97335" data-name="Trazado 97335" d="M647.79,1109.679h0a1.869,1.869,0,0,0,2.051-1.667l5.379-51.941a1.869,1.869,0,0,0-1.666-2.051h0a1.869,1.869,0,0,0-2.051,1.667l-5.379,51.941A1.869,1.869,0,0,0,647.79,1109.679Z" transform="translate(-620.131 -1054.001)" fill="#344966"/>
        </g>
        <path id="Trazado_97336" data-name="Trazado 97336" d="M678.635,1262.58H646.474a1.827,1.827,0,0,1-1.827-1.827h0a1.827,1.827,0,0,1,1.827-1.827h32.161a1.827,1.827,0,0,1,1.827,1.827h0A1.827,1.827,0,0,1,678.635,1262.58Z" transform="translate(-623.698 -1169.19)" fill="#344966"/>
        <path id="Trazado_97337" data-name="Trazado 97337" d="M678.635,1292.251H646.474a1.827,1.827,0,0,1-1.827-1.827h0a1.827,1.827,0,0,1,1.827-1.827h32.161a1.827,1.827,0,0,1,1.827,1.827h0A1.827,1.827,0,0,1,678.635,1292.251Z" transform="translate(-623.698 -1191.535)" fill="#344966"/>
        <path id="Trazado_97338" data-name="Trazado 97338" d="M678.635,1325.454H646.474a1.827,1.827,0,0,1-1.827-1.827h0a1.827,1.827,0,0,1,1.827-1.827h32.161a1.828,1.828,0,0,1,1.827,1.827h0A1.827,1.827,0,0,1,678.635,1325.454Z" transform="translate(-623.698 -1216.54)" fill="#344966"/>
      </g>
      <g id="Grupo_46852" data-name="Grupo 46852" transform="translate(0 0)">
        <path id="Trazado_97339" data-name="Trazado 97339" d="M1292.367,1153.127a24.88,24.88,0,1,1,5.325-34.781A24.908,24.908,0,0,1,1292.367,1153.127Zm-2.974-5.426h0a18.765,18.765,0,0,0,2.873-26.38h0a18.765,18.765,0,0,0-26.381-2.873h0a18.764,18.764,0,0,0-2.873,26.381h0A18.764,18.764,0,0,0,1289.393,1147.7Z" transform="translate(-1235.756 -1091.419)" fill="url(#linear-gradient)"/>
        <path id="Trazado_97340" data-name="Trazado 97340" d="M1246.344,1117.928c-.595.115-.989-.306-1.975-1.338-1.764-1.848-3.529-3.7-5.355-5.48a1.651,1.651,0,0,0-1.362-.292c-2.405.682-4.77,1.51-7.181,2.167-.747.2-1.1.426-1.241,1.23-.573,3.212-1.235,6.408-1.857,9.576-2.939.46-10.254-.25-12.624-1.253.042-3.108.037-6.286.157-9.458a1.571,1.571,0,0,0-1.155-1.812,65.437,65.437,0,0,1-6.389-3.413,1.8,1.8,0,0,0-2.324-.073c-2.323,1.644-4.745,3.147-7.1,4.753-.631.432-1.119.476-1.607-.123q-3.449-4.224-6.893-8.45c-.565-.693.036-1.078.422-1.465,1.954-1.954,3.9-3.921,5.915-5.808a1.787,1.787,0,0,0,.5-2.279c-.963-2.612-1.756-5.288-2.683-8.142l-10.223-2.05a37.277,37.277,0,0,1,1.377-12.54l10.219.1c1.646-2.889,3.112-5.6,4.73-8.215a1.4,1.4,0,0,0-.034-1.851c-1.586-2.314-3.1-4.677-4.67-7-.34-.5-.524-.9-.037-1.422a35.614,35.614,0,0,1,8.27-6.881,1.12,1.12,0,0,1,1.61.255c2.024,2.061,4.088,4.084,6.1,6.152a1.3,1.3,0,0,0,1.6.408c2.617-.84,5.274-1.567,7.944-2.225a1.106,1.106,0,0,0,.965-1.048c.641-3.2,1.306-6.4,1.98-9.676a40,40,0,0,1,12.414,1.234c-.036,3.617-.071,7.211-.1,10.65l9.2,4.949c2.087-1.375,4.48-2.976,6.9-4.536,1.986-1.281,1.578-1.474,3.36.32a3.909,3.909,0,0,0,.605.419l4.093,5.094a7.805,7.805,0,0,0,.714,1.284,1.6,1.6,0,0,1-.207,2.61c-2.1,1.918-4.077,3.97-6.055,6.014a1.511,1.511,0,0,0-.306,1.225c.63,2.378,1.467,4.708,1.97,7.11a1.848,1.848,0,0,0,1.8,1.71c3.042.552,6.062,1.23,9.394,1.922-.417,4.2-.824,8.307-1.235,12.454-.791.007-1.246.019-1.7.014-2.8-.028-5.925.3-8.728.225a1.409,1.409,0,0,0-1.478.968c-1.247,2.356-2.329,4.3-3.592,6.646a1.668,1.668,0,0,0,.064,1.41c1.216,1.953,2.539,3.839,3.793,5.768,1.015,1.561,1.387,2.144,1.051,2.9Zm-5.911-15.284a25.762,25.762,0,1,0-19.148,4.7A25.594,25.594,0,0,0,1240.433,1102.644Z" transform="translate(-1183.3 -1040.225)" fill="url(#linear-gradient)"/>
      </g>
      <path id="Trazado_97341" data-name="Trazado 97341" d="M1327.3,1430.588l-2.569,4.637c-.232.152-.471.042-1.067-.225-1.066-.477-2.132-.954-3.214-1.393a.752.752,0,0,0-.627.112c-.9.7-1.758,1.464-2.665,2.159a.619.619,0,0,0-.312.735c.313,1.459.586,2.926.87,4.374a16.328,16.328,0,0,1-5.559,1.653c-.519-1.322-1.071-2.666-1.569-4.029a.718.718,0,0,0-.8-.567,29.965,29.965,0,0,1-3.294-.339c-.443-.065-.727-.053-1,.371-.7,1.1-1.463,2.153-2.18,3.239-.193.292-.391.394-.7.226q-2.191-1.191-4.379-2.384c-.359-.195-.172-.463-.075-.693.489-1.164.971-2.333,1.5-3.481a.817.817,0,0,0-.182-1.051c-.86-.939-1.659-1.934-2.544-2.981l-4.681.9a17.036,17.036,0,0,1-1.586-5.545l4.342-1.726c.2-1.508.348-2.908.58-4.295a.642.642,0,0,0-.334-.777c-1.072-.7-2.122-1.443-3.188-2.156-.23-.154-.378-.29-.262-.6a16.285,16.285,0,0,1,2.31-4.343.512.512,0,0,1,.725-.171c1.213.522,2.436,1.021,3.647,1.548a.594.594,0,0,0,.747-.1c.963-.808,1.961-1.575,2.977-2.316a.505.505,0,0,0,.227-.61c-.282-1.466-.553-2.933-.835-4.437a18.251,18.251,0,0,1,5.466-1.625l1.8,4.524,4.748.5c.646-.943,1.382-2.035,2.135-3.114.619-.886.412-.9,1.477-.446a1.817,1.817,0,0,0,.328.073l2.613,1.447a3.646,3.646,0,0,0,.524.42.733.733,0,0,1,.364,1.14c-.556,1.175-1.039,2.386-1.522,3.593a.688.688,0,0,0,.083.571c.678.9,1.435,1.739,2.063,2.668a.845.845,0,0,0,1.059.411c1.383-.292,2.778-.528,4.308-.811.551,1.851,1.089,3.657,1.632,5.484-.334.14-.524.223-.717.3-1.192.474-2.379.958-3.579,1.41a.644.644,0,0,0-.458.665c-.12,1.213-.318,2.417-.446,3.629a.762.762,0,0,0,.271.586c.852.616,1.738,1.185,2.6,1.785C1327.049,1430.025,1327.307,1430.208,1327.3,1430.588Zm-10.255-2.8a8.579,8.579,0,0,0-3.348-11.661h0a8.579,8.579,0,0,0-11.661,3.348h0a8.579,8.579,0,0,0,3.348,11.661h0a8.579,8.579,0,0,0,11.661-3.349Z" transform="translate(-1271.277 -1314.705)" fill="#fcfcfc"/>
      <rect id="Rectángulo_28273" data-name="Rectángulo 28273" width="151.751" height="97.251" rx="1" transform="translate(43.865 44.094)" fill="#00223d"/>
      <rect id="Rectángulo_28274" data-name="Rectángulo 28274" width="144.301" height="80.396" transform="translate(47.59 49.589)" fill="url(#linear-gradient)"/>
      <path id="Trazado_97342" data-name="Trazado 97342" d="M698.243,1591.135H859.719a2.824,2.824,0,0,0,2.823-2.824v-4.235H691.185A7.058,7.058,0,0,0,698.243,1591.135Z" transform="translate(-657.123 -1449.789)" fill="#00223d"/>
      <path id="Trazado_97343" data-name="Trazado 97343" d="M691.479,1586.037a6.715,6.715,0,0,1-.294-1.961H862.542a6.7,6.7,0,0,1-.294,1.961Z" transform="translate(-657.123 -1449.789)" fill="#26aab7" opacity="0.6"/>
      <path id="Trazado_97344" data-name="Trazado 97344" d="M1147.322,1321.45h-19.956l-40.065-72.812v-7.583h15.783Z" transform="translate(-1039.711 -1191.466)" fill="#fff" opacity="0.5" style="mix-blend-mode: soft-light;isolation: isolate"/>
      <path id="Trazado_97345" data-name="Trazado 97345" d="M897.675,1321.45H870.461l-44.237-80.4h27.214Z" transform="translate(-725.599 -1191.466)" fill="#fff" opacity="0.5" style="mix-blend-mode: soft-light;isolation: isolate"/>
      <path id="Trazado_97346" data-name="Trazado 97346" d="M745.974,1241.055H758.5l41.7,75.778v4.617h-9.984Z" transform="translate(-608.304 -1191.466)" fill="#fff" opacity="0.5" style="mix-blend-mode: soft-light;isolation: isolate"/>
      <path id="Trazado_97347" data-name="Trazado 97347" d="M1445.605,1358.528l-1.194,2.737c-.121.1-.262.049-.61-.069-.623-.211-1.247-.421-1.877-.61a.424.424,0,0,0-.345.1c-.467.443-.908.914-1.379,1.353a.349.349,0,0,0-.136.429c.254.8.485,1.61.722,2.407a9.22,9.22,0,0,1-3.03,1.224c-.362-.714-.743-1.438-1.1-2.176a.405.405,0,0,0-.48-.276,16.872,16.872,0,0,1-1.866-.014c-.251-.013-.41.009-.539.261-.333.653-.706,1.285-1.05,1.933-.093.174-.2.242-.382.164l-2.583-1.1c-.211-.091-.121-.25-.078-.384.212-.68.42-1.361.655-2.033a.461.461,0,0,0-.158-.58c-.532-.481-1.033-1-1.586-1.537l-2.578.755a9.612,9.612,0,0,1-1.186-3.025l2.343-1.2c.03-.856.04-1.65.1-2.44a.363.363,0,0,0-.229-.419c-.638-.338-1.266-.7-1.9-1.038-.137-.075-.227-.142-.179-.321a9.181,9.181,0,0,1,1.063-2.558.289.289,0,0,1,.4-.134c.708.228,1.421.443,2.128.674a.335.335,0,0,0,.413-.1c.5-.5,1.016-.989,1.547-1.457a.286.286,0,0,0,.095-.355c-.237-.807-.467-1.615-.706-2.444a10.3,10.3,0,0,1,2.98-1.2c.424.83.846,1.654,1.25,2.442l2.689.029c.311-.564.667-1.215,1.031-1.86.3-.529.184-.525.8-.329a1.078,1.078,0,0,0,.189.023l1.542.672a2,2,0,0,0,.317.207c.3.124.384.29.265.62-.249.689-.455,1.393-.662,2.1a.388.388,0,0,0,.076.316c.428.468.9.9,1.3,1.387a.475.475,0,0,0,.616.174c.76-.238,1.53-.444,2.373-.685l1.208,2.989c-.179.1-.282.153-.387.207-.643.329-1.283.664-1.932.981a.364.364,0,0,0-.221.4c0,.686-.049,1.372-.057,2.059a.429.429,0,0,0,.183.314c.511.3,1.039.572,1.555.862C1445.437,1358.226,1445.591,1358.314,1445.605,1358.528Zm-5.9-1.024a4.834,4.834,0,0,0-2.5-6.362h0a4.834,4.834,0,0,0-6.362,2.5h0a4.833,4.833,0,0,0,2.5,6.361h0a4.833,4.833,0,0,0,6.362-2.5Z" transform="translate(-1421.607 -1269.812)" fill="#fec55e"/>
      <g id="Grupo_46855" data-name="Grupo 46855" transform="translate(158.771 9.766)">
        <path id="Trazado_97371" data-name="Trazado 97371" d="M810.557,1126.226c.175.007.655.168,1.356,1.493a49.757,49.757,0,0,1,2.2,6.805l-3.907,1.455-.5-1.067-.827-8.216S810.509,1126.224,810.557,1126.226Z" transform="translate(-796.53 -1114.756)" fill="#8ec8c8"/>
        <path id="Trazado_97372" data-name="Trazado 97372" d="M829.227,1123.241a23.864,23.864,0,0,1,5.165.738s.942,8.1-.848,14.257c-.4,1.377.331,5.712.331,5.712l-11.577-.153s1.372-10.479.855-12.171-.529-7.591-.529-7.591.079-.012,2.6-.448A26.184,26.184,0,0,1,829.227,1123.241Z" transform="translate(-820.365 -1112.508)" fill="#d5f2e8"/>
        <path id="Trazado_97373" data-name="Trazado 97373" d="M849.208,1268a15.582,15.582,0,0,0,.727,3.775c.471.818-.025,2.21-.05,2.4s-.991.464-2.528.3-1.512-.519-1.388-1.092.942-1.31.991-1.855a14.282,14.282,0,0,0-.471-2.51Z" transform="translate(-841.695 -1221.522)" fill="#ffc3b5"/>
        <path id="Trazado_97374" data-name="Trazado 97374" d="M799.294,1196.667s7.991-.443,9.776.637-1.268,6.385-1.268,6.385-5.56-.256-16.453.372c-2.579.149-2.8-6.725-2.319-7.294S799.294,1196.667,799.294,1196.667Z" transform="translate(-787.09 -1167.668)" fill="#02101a"/>
        <path id="Trazado_97375" data-name="Trazado 97375" d="M846.586,1286.756c-1.582-.168-1.387-.946-1.26-1.536a5.234,5.234,0,0,1,.8-1.217,2.644,2.644,0,0,0,1.059.515,3.955,3.955,0,0,0,2.315-.468,7.66,7.66,0,0,1,.212,2.041A4.6,4.6,0,0,1,846.586,1286.756Z" transform="translate(-841.115 -1233.576)" fill="#293241"/>
        <path id="Trazado_97376" data-name="Trazado 97376" d="M852.776,1202.626c.319,2.416,1.9,14.443,1.9,14.443l-3.668.455s-4.511-15.7-4.279-18.1,1.92-2.6,1.92-2.6S851.931,1196.23,852.776,1202.626Z" transform="translate(-846.432 -1167.91)" fill="#00223d"/>
        <path id="Trazado_97377" data-name="Trazado 97377" d="M818.81,1130.057c1.083-.406,1.612,9.347,1.758,13.362a47.211,47.211,0,0,0,6.09-.061c.391-.03,1.294-.36,1.682-.411a3.907,3.907,0,0,1,.956-.045,18,18,0,0,1,2.241,1.009c.212.222.785.782.688,1.025s-1.1-.676-1.1-.676l-.491-.275c.612.6,1.779,1.384,1.61,1.671s-1.216-.519-1.966-1.064c.643.581,1.443,1.621,1.258,1.783-.165.146-1.074-1.058-2.046-1.4-.36-.129-.719.227-1,.271a2.046,2.046,0,0,1-.734.041l-1.052-.3c-.358.032-.367.244-.729.321-.42.089-1.109.184-1.644.314-3.081.753-4.109,1.1-5.052,1.1C816.418,1146.719,816.252,1131.017,818.81,1130.057Z" transform="translate(-816.677 -1117.633)" fill="#ffc3b5"/>
        <path id="Trazado_97378" data-name="Trazado 97378" d="M862.088,1136.434c-.2-4.111-.173-9.18,2.132-10.044.909-.341,2.513,1.71,2.224,10.128A17.3,17.3,0,0,1,862.088,1136.434Z" transform="translate(-862.009 -1114.854)" fill="#8ec8c8"/>
        <path id="Trazado_97379" data-name="Trazado 97379" d="M796.684,1279.323a2,2,0,0,0-.113,1.72c.417.784,2.6,1.939,2.832,2.364a1.031,1.031,0,0,1,.139.727l-6.494-1.593.5-1.957.607-1.353Z" transform="translate(-778.061 -1229.981)" fill="#ffc3b5"/>
        <path id="Trazado_97380" data-name="Trazado 97380" d="M792.9,1285.588s-1.825.316-2.549-.261-.676-.683-.942-.584c-.172.064-.433.844-.6,1.392a.534.534,0,0,0,.384.671l6.762,1.672c.514.1.854-.222.508-.635a6.168,6.168,0,0,0-.7-.649A23.536,23.536,0,0,0,792.9,1285.588Z" transform="translate(-774.052 -1234.108)" fill="#293241"/>
        <path id="Trazado_97381" data-name="Trazado 97381" d="M785.928,1199.063a2.77,2.77,0,0,1,3.759-1.651c1.972.813,2.5,2.812,1.879,4.858s-4.718,14.075-4.86,15.729l-3.27.022s.594-9.525.74-11.827A22.3,22.3,0,0,1,785.928,1199.063Z" transform="translate(-767.942 -1168.169)" fill="#00223d"/>
        <path id="Trazado_97382" data-name="Trazado 97382" d="M804.165,1160.022h-10.93a.712.712,0,0,0-.66.444l-3.366,8.236h-6.026a.305.305,0,0,0-.305.306h0a.306.306,0,0,0,.305.306h17.151a1.2,1.2,0,0,0,1.092-.709l3.389-7.575A.715.715,0,0,0,804.165,1160.022Z" transform="translate(-780.871 -1140.208)" fill="#00223d"/>
        <path id="Trazado_97383" data-name="Trazado 97383" d="M810.725,1177.014a.6.6,0,1,1-.451-.787A.643.643,0,0,1,810.725,1177.014Z" transform="translate(-793.316 -1152.404)" fill="#fff"/>
        <g id="Grupo_46854" data-name="Grupo 46854" transform="translate(5.376)">
          <path id="Trazado_97384" data-name="Trazado 97384" d="M832.7,1080.614a8.423,8.423,0,0,1-.967-.387,4.887,4.887,0,0,0-1.1-.416,2.658,2.658,0,0,0-2.237.6c-.721.782-2,.141-1.744,4.237.292,4.636,2.87,4.127,2.932,4.049s2.3-2.967,2.3-2.967.782,1.711.782,1.648S836.654,1081.946,832.7,1080.614Z" transform="translate(-826.613 -1079.776)"/>
          <path id="Trazado_97385" data-name="Trazado 97385" d="M842.623,1109.323l.223,1.657s.5,2.386-.143,2.847-2.727-2.916-2.727-2.916l.22-4.2Z" transform="translate(-838.496 -1100.062)" fill="#ffc3b5"/>
          <path id="Trazado_97386" data-name="Trazado 97386" d="M840.86,1108.075a4.752,4.752,0,0,0,2.688,2.653l-.189-1.4-2.428-2.609Z" transform="translate(-839.232 -1100.062)" fill="#fc8899"/>
          <path id="Trazado_97387" data-name="Trazado 97387" d="M834.653,1088.126a2.209,2.209,0,0,1,2.544,2.234,16.823,16.823,0,0,1-.186,2.125c-.3,1.912-1.6,3.6-2.463,3.446a4.146,4.146,0,0,1-2.651-4.522A3.659,3.659,0,0,1,834.653,1088.126Z" transform="translate(-830.658 -1086.043)" fill="#ffc3b5"/>
          <path id="Trazado_97388" data-name="Trazado 97388" d="M852.1,1100.15a.643.643,0,1,1-.489-.869A.711.711,0,0,1,852.1,1100.15Z" transform="translate(-850.258 -1094.458)" fill="#ffc3b5"/>
          <path id="Trazado_97389" data-name="Trazado 97389" d="M831.029,1088.929s1.043.26,1.43-.412a3.15,3.15,0,0,1,3.531-1.518c1.76.6-1.549-1.46-1.689-1.46l-1.83-.011s-1.3,1.071-1.349,1.189-.422,1.4-.422,1.4Z" transform="translate(-829.681 -1084.108)"/>
        </g>
        <path id="Trazado_97390" data-name="Trazado 97390" d="M837.467,1110.641l1.9.362a.845.845,0,0,1-1.021.58C837.322,1111.418,837.467,1110.641,837.467,1110.641Z" transform="translate(-828.834 -1103.02)" fill="#fff"/>
      </g>
      <g id="Grupo_46871" data-name="Grupo 46871" transform="translate(84.87 73.148)">
        <path id="Trazado_97455" data-name="Trazado 97455" d="M948.446,1340.429a7.532,7.532,0,0,0,.934-.154,4.4,4.4,0,0,1,1.059-.152,2.415,2.415,0,0,1,1.867.968c.486.835,1.748.518.715,4.1-1.169,4.056-3.356,3.1-3.4,3.017s-1.458-3.083-1.458-3.083-1.03,1.364-1.017,1.309S944.674,1340.835,948.446,1340.429Z" transform="translate(-895.874 -1339.22)"/>
        <path id="Trazado_97456" data-name="Trazado 97456" d="M975.345,1375.983c.015-.267,1.227.012,1.385-.2s-1.328-.845-1.3-1.075c.059-.422,1.67.595,1.709.4s-1.57-1.323-1.251-1.551,1.546,1.347,1.68,1.158-1.273-1.361-1.057-1.8c.116-.237,2.152,2.31,2.513,2.3s.2-1.414.512-1.483-.017,2.717.117,2.869a40.952,40.952,0,0,0,3.993,4.5c.329-.362,2.365-2.157,2.666-2.5.5.8,1.282,1.25,1.826,2.015-1.082,1.114-4.263,3.643-4.7,3.658-1.339.044-4.211-5.376-4.827-6.355s-1.2-.985-1.707-1.424S975.33,1376.25,975.345,1375.983Z" transform="translate(-937.757 -1363.904)" fill="#edaea2"/>
        <path id="Trazado_97457" data-name="Trazado 97457" d="M960.977,1389.282s4.52-3.478,5.368-5.043-1.156-2.677-2.732-2.695-4.911,4.672-4.911,4.672Z" transform="translate(-912.053 -1370.414)" fill="#00223d"/>
        <path id="Trazado_97458" data-name="Trazado 97458" d="M985.914,1609.707s.135,2.427.135,2.432c.05.308.245,1.07.245,1.349,0,1.052-4.6-.893-3.566-1.359.093-.042.582-.361.612-.719.047-.552.167-1.669.167-1.669Z" transform="translate(-937.696 -1542.24)" fill="#ffc3b5"/>
        <path id="Trazado_97459" data-name="Trazado 97459" d="M985.835,1619.343a16.329,16.329,0,0,0,1.632.4c.553.081,1.281-.6,1.672-.414.431.2.387,2.185.387,2.185s-5.76.345-7.388-.189C981.493,1621.116,983.629,1620.093,985.835,1619.343Z" transform="translate(-940.79 -1549.464)" fill="#fcfcfc"/>
        <path id="Trazado_97460" data-name="Trazado 97460" d="M944.9,1610.649s.135,2.427.136,2.432c.05.308.245,1.069.245,1.35,0,1.052-4.6-.893-3.566-1.36.093-.042.727-.6.757-.958.047-.552.022-1.43.022-1.43Z" transform="translate(-886.557 -1542.95)" fill="#ffc3b5"/>
        <path id="Trazado_97461" data-name="Trazado 97461" d="M944.736,1620.286a16.42,16.42,0,0,0,1.632.4c.552.081,1.281-.6,1.672-.414.43.2.448,2.015.448,2.015s-6.158.454-7.606.028C940.231,1622.125,942.529,1621.035,944.736,1620.286Z" transform="translate(-889.565 -1550.174)" fill="#fcfcfc"/>
        <path id="Trazado_97462" data-name="Trazado 97462" d="M954.356,1468.77l-1.944.854-4.087,19.885.166,14.906,3.277.078s1.524-13.04,1.524-14.05,7.06-17.684,7.06-17.684Z" transform="translate(-903.294 -1436.103)" fill="#02101a"/>
        <path id="Trazado_97463" data-name="Trazado 97463" d="M936.756,1468.548s1.432,15.32,1.432,17.9,1.161,17.036,1.161,17.036l3.284-.019s.237-4.405.589-10.887c.055-1.015-.071-3.063,0-4.114.511-7.558,1.1-20.284.811-20.584C941.882,1465.615,936.756,1468.548,936.756,1468.548Z" transform="translate(-884.194 -1434.786)" fill="#00223d"/>
        <path id="Trazado_97464" data-name="Trazado 97464" d="M943.478,1380.052a13.632,13.632,0,0,1,3.206.667c.713.443,1.083,2.291,1.083,2.291s-.406,9.61-.219,11.857c.146,1.738.219,8.848.219,8.848s-8.332,1.258-11.615.255c0,0,.566-5.161.452-6.494s.044-13.554.244-14.423a3.205,3.205,0,0,1,2.017-2.679A18.309,18.309,0,0,1,943.478,1380.052Z" transform="translate(-887.706 -1369.274)" fill="#fcfcfc"/>
        <path id="Trazado_97465" data-name="Trazado 97465" d="M955.78,1369.323l.835,3.169s-1.522,1.907-2.77,1.68c-1.046-.191-.9-1.536-.9-1.536a8.213,8.213,0,0,0,.155-2.765C952.857,1368.975,955.78,1369.323,955.78,1369.323Z" transform="translate(-900.698 -1361.161)" fill="#ffc3b5"/>
        <path id="Trazado_97466" data-name="Trazado 97466" d="M956.056,1369.871c-.245-.9,2.677-.548,2.677-.548l.069.262a1.471,1.471,0,0,1-.273.476,4.062,4.062,0,0,1-2.425,1.207A4.383,4.383,0,0,0,956.056,1369.871Z" transform="translate(-903.65 -1361.161)" fill="#fc8899"/>
        <path id="Trazado_97467" data-name="Trazado 97467" d="M1162.023,1599.018s-.841.82-.86,1.121-.075,3.526.269,3.827,1.352.514,1.027.854c-.245.256-2.129.2-3.378.132-.365-.02-.822-2.929-.966-3.356-.21-.621-.72-2.02-.529-2.452a3.639,3.639,0,0,1,1.163-1.049,5.718,5.718,0,0,0,1.289-1.373Z" transform="translate(-1157.126 -1532.461)" fill="#ffc3b5"/>
        <path id="Trazado_97468" data-name="Trazado 97468" d="M1112.519,1613.615s-.752,2.125-.753,2.131c-.056.337-.276,1.168-.276,1.474,0,1.151,5.185-.975,4.024-1.485a1.223,1.223,0,0,1-.47-.806,2.7,2.7,0,0,1,.437-1.359Z" transform="translate(-1098.915 -1545.149)" fill="#ffc3b5"/>
        <path id="Trazado_97469" data-name="Trazado 97469" d="M1094.3,1453.5s.378,3.809.378,3.866c0,6.163,1.221,18.2.989,19.359-.567,2.825-6.667,17.241-6.667,17.241l-3.3-.394,4.3-17.26-1.581-6.947-2.237-13.732Z" transform="translate(-1072.558 -1424.6)" fill="#02101a"/>
        <path id="Trazado_97470" data-name="Trazado 97470" d="M1103.98,1458.524l-.625,3.61-1.693,14.86-6.445,14.523s.906,2.113,2.244,2.41l10.258-14.911,6.372-19.08-.223-4.238Z" transform="translate(-1093.306 -1426.259)" fill="#00223d"/>
        <path id="Trazado_97471" data-name="Trazado 97471" d="M1157.841,1602.2s1.937,5.455,2.7,5.718c.2.07,1.167.248,1.35.675a1.85,1.85,0,0,1,0,.559h-4.038s-.511-2.4-.713-3.46a15.677,15.677,0,0,1-.95-2.815C1156.3,1602.64,1157.841,1602.2,1157.841,1602.2Z" transform="translate(-1156.177 -1536.584)" fill="#26aab7"/>
        <path id="Trazado_97472" data-name="Trazado 97472" d="M1095.218,1624.17l.594-1.876a5.153,5.153,0,0,0,1.87.44,18.778,18.778,0,0,0,1.841-.44c2.489.819,4.527,1.217,4.156,1.876h-8.462Z" transform="translate(-1082.937 -1551.719)" fill="#26aab7"/>
        <path id="Trazado_97473" data-name="Trazado 97473" d="M1019.116,1412.836l-.34.205a2.617,2.617,0,0,1-.415.3c-.085.02-2.409-.031-2.409-.031s-.008.773.007.773,1.222.984,1.222.984l.257.117,1.583-.473,1.446-.182s1.026-.119,1.026-.144a6.735,6.735,0,0,0-.07-.876c-.04-.04-.621-.635-.621-.635s-.445-.1-.46-.1-.446-.085-.461-.09-.69.1-.69.1Z" transform="translate(-981.133 -1393.863)" fill="#edaea2"/>
        <path id="Trazado_97474" data-name="Trazado 97474" d="M1016.247,1414.42a3.894,3.894,0,0,0-.72.16c-.25.1-2.231,1.6-2.231,1.6s-.266.145-.405.03a.32.32,0,0,1-.13-.25s-.235.131-.4.04a.269.269,0,0,1-.135-.315.451.451,0,0,1-.365-.05c-.135-.115-.065-.41-.065-.41s-.425.26-.591.085-.095-.36.07-.5,1.146-.791,1.261-.866.441-.42.54-.465.345-.18.345-.18.41.045.436.06.14.3.345.376a.524.524,0,0,0,.455-.061.4.4,0,0,0,.005-.155,3.5,3.5,0,0,1-.2-.455c-.035-.175-.08-.225-.145-.265s-.42-.144-.6-.215a2.942,2.942,0,0,0-.91.135l-.351.15s.065-.259.285-.3.5-.1.65-.116a6.848,6.848,0,0,1,.681.1,2.681,2.681,0,0,1,.66.105,7.87,7.87,0,0,0,1.376-.01S1016.607,1413.97,1016.247,1414.42Z" transform="translate(-974.827 -1393.691)" fill="#ffc3b5"/>
        <path id="Trazado_97475" data-name="Trazado 97475" d="M945.827,1400.705c.471-.01,5.915-.056,7.96-.073a2.258,2.258,0,0,0,1.375-.483l4.548-3.579,2.761,2.9-5.556,3.84a9.153,9.153,0,0,1-2.961.462c-2.148-.217-7.608-1.311-8.155-1.236Z" transform="translate(-904.79 -1381.73)" fill="#ffc3b5"/>
        <path id="Trazado_97476" data-name="Trazado 97476" d="M1046.024,1402.615c-.472-.01-6.205-.094-8.251-.111a2.252,2.252,0,0,1-1.375-.483l-4.549-3.58-1.992,2.3,5.647,4.079a1.9,1.9,0,0,0,1.305.351c2.147-.217,8.03-.792,8.577-.718Z" transform="translate(-1009.099 -1383.14)" fill="#edaea2"/>
        <path id="Trazado_97477" data-name="Trazado 97477" d="M936.026,1387.467s3.807-4.005,5.185-5.016a1.978,1.978,0,0,1,3.212,1.59c.128,2.547-4.92,7.1-4.92,7.1Z" transform="translate(-884.332 -1370.772)" fill="#00223d"/>
        <path id="Trazado_97478" data-name="Trazado 97478" d="M1087.235,1387.47s-3.808-4.005-5.185-5.016-4.147-.152-3.928,1.585c.224,1.771,6.444,6.254,6.444,6.254Z" transform="translate(-1062.224 -1370.775)" fill="#26aab7"/>
        <path id="Trazado_97479" data-name="Trazado 97479" d="M1099.434,1385.02c.089.613,1.719,17.289,1.719,17.289-7.721,3.729-11.981.664-11.981.664s.253-11.71-.051-13.3c-.2-1.055-.013-8.162.67-8.358a12.47,12.47,0,0,1,2.542-.533,28.554,28.554,0,0,1,5.219.065A8.284,8.284,0,0,1,1099.434,1385.02Z" transform="translate(-1078.842 -1369.774)" fill="#26aab7"/>
        <path id="Trazado_97480" data-name="Trazado 97480" d="M1107.61,1366.523l-.569,3.473s2.08,4.419,3.323,4.047c1.042-.312.4-4.107.4-4.107a10,10,0,0,1-.4-3.058C1110.537,1365.857,1107.61,1366.523,1107.61,1366.523Z" transform="translate(-1093.092 -1358.942)" fill="#ffc3b5"/>
        <path id="Trazado_97481" data-name="Trazado 97481" d="M1111.951,1366.877c.17-1.02-2.757-.354-2.757-.354l-.048.3a1.642,1.642,0,0,0,.317.5,3.932,3.932,0,0,0,2.56,1.111A5.316,5.316,0,0,1,1111.951,1366.877Z" transform="translate(-1094.678 -1358.942)" fill="#fc8899"/>
        <path id="Trazado_97482" data-name="Trazado 97482" d="M1102.535,1343.1c-.083-.029-.663,4.1.438,5.24s3.248,1.509,4.018.613c.852-.99.809-5.431-.9-6.6S1102.535,1343.1,1102.535,1343.1Z" transform="translate(-1088.499 -1340.617)" fill="#ffc3b5"/>
        <path id="Trazado_97483" data-name="Trazado 97483" d="M1108.459,1337.364a3.1,3.1,0,0,0-2.262,1.726,3.264,3.264,0,0,0,.936,4.368,2.551,2.551,0,0,1,1.186,1.921l.2-.526a2.886,2.886,0,0,0,.151-1.26,2.391,2.391,0,0,0-.2-.758c-.291-.6.623-.995.88-1.493.2-.383.207-1.259.518-1.892l.371-.484a2.428,2.428,0,0,1,1.7-.459C1112.775,1338.687,1111.745,1334.764,1108.459,1337.364Z" transform="translate(-1094.019 -1336.471)"/>
        <path id="Trazado_97484" data-name="Trazado 97484" d="M1118.631,1356.418c.009.5-.23.917-.534.922s-.556-.4-.565-.9.23-.917.533-.922S1118.622,1355.914,1118.631,1356.418Z" transform="translate(-1103.355 -1350.813)" fill="#ffc3b5"/>
        <path id="Trazado_97485" data-name="Trazado 97485" d="M1106.234,1363.024l-1.82.185a.8.8,0,0,0,.915.629C1106.308,1363.767,1106.234,1363.024,1106.234,1363.024Z" transform="translate(-1087.719 -1356.468)" fill="#fff"/>
        <path id="Trazado_97486" data-name="Trazado 97486" d="M1135.309,1415.641a.505.505,0,0,1,0-.113c.121-1.221,1.134-11.47,1.3-11.905.154-.394,4.7-6.894,4.7-6.894l2.234,3.043-4.371,5.83c-.1.37-1.675,7.289-1.675,7.289s-.323,1.261-.469,2.017c.066.182.131.354.188.494a4.524,4.524,0,0,0,.471.757,5.172,5.172,0,0,1,.558.987c.046.178.13.548.177.771s.112.484.123.6a1.168,1.168,0,0,0,.141.325.2.2,0,0,1-.23.281c-.159-.053-.282-.258-.359-.387-.215-.361-.33-1.021-.383-.986s-.242,1.155-.272,1.281a13.718,13.718,0,0,1-.383,1.664c-.128.238-.3.2-.341.05-.038-.128.141-1.948.141-1.948s.023-.232-.079-.16-.268,1.724-.339,1.966-.232.37-.369.175a7.322,7.322,0,0,1,.12-1.988s.032-.22-.062-.2-.212,1.428-.286,1.55a.185.185,0,0,1-.346-.038,8.666,8.666,0,0,1,.165-1.8s-.013-.124-.072-.083-.245,1.234-.366,1.344a.129.129,0,0,1-.187,0c-.223-.152.119-1.287.116-1.852a13.928,13.928,0,0,0,.18-1.869C1135.332,1415.81,1135.318,1415.706,1135.309,1415.641Z" transform="translate(-1132.572 -1381.85)" fill="#ffc3b5"/>
        <path id="Trazado_97487" data-name="Trazado 97487" d="M1126.935,1390.625l3.883,2.606a42.119,42.119,0,0,1,3.363-4.415c1.471-1.452-.536-5.9-1.484-5.649C1130.576,1383.73,1126.935,1390.625,1126.935,1390.625Z" transform="translate(-1121.747 -1371.629)" fill="#26aab7"/>
        <path id="Trazado_97488" data-name="Trazado 97488" d="M955.585,1347.077a2.007,2.007,0,0,0-2.7,1.483,15.3,15.3,0,0,0-.252,1.922c-.113,1.754.714,3.5,1.509,3.54a3.767,3.767,0,0,0,3.239-3.491A3.324,3.324,0,0,0,955.585,1347.077Z" transform="translate(-901.404 -1344.354)" fill="#ffc3b5"/>
        <path id="Trazado_97489" data-name="Trazado 97489" d="M950.456,1360.119a.584.584,0,1,0,.6-.676A.647.647,0,0,0,950.456,1360.119Z" transform="translate(-895.07 -1353.771)" fill="#ffc3b5"/>
        <path id="Trazado_97490" data-name="Trazado 97490" d="M955.308,1348.314s-.976.025-1.188-.646a2.862,2.862,0,0,0-2.834-2.04c-1.679.187,1.66-.991,1.785-.963l1.626.348s.945,1.206.964,1.319.1,1.326.1,1.326Z" transform="translate(-899.318 -1342.642)"/>
        <path id="Trazado_97491" data-name="Trazado 97491" d="M963.479,1367.83l-1.755-.05a.768.768,0,0,0,.791.714C963.455,1368.549,963.479,1367.83,963.479,1367.83Z" transform="translate(-909.73 -1360.05)" fill="#fff"/>
      </g>
    </g>
  </g>
</svg>
