<svg xmlns="http://www.w3.org/2000/svg" xmlns:xlink="http://www.w3.org/1999/xlink" width="213.955" height="215.067" viewBox="0 0 213.955 215.067">
  <defs>
    <clipPath id="clip-path">
      <path id="Trazado_97723" data-name="Trazado 97723" d="M221.112,212.584c.032,3.32-.88,9.216-2.73,10.407a5.391,5.391,0,0,1-3.657.674s-1.781,2.851-3.731,2.766a6.09,6.09,0,0,1-3.32-1.328s-.095.211-.269.516v28.413a8.749,8.749,0,0,1-5.1,8.12,7.5,7.5,0,0,1-2.972.611h-79.7c-4.468,0-8.083-3.9-8.083-8.731V126.44L86.1,131.019l-.3.053a2.436,2.436,0,0,1-.732-.016c-2.266-.4-3.7-4.047-4.1-9.411-1.049.211-2.1.4-3.151.585-1.291.221-2.582.437-3.884.617l-1.95.263c-.648.068-1.3.153-1.955.206.632-.169,1.275-.306,1.913-.464l1.923-.406c1.28-.274,2.571-.5,3.863-.732,1.07-.179,2.134-.364,3.209-.516a48.938,48.938,0,0,1-.005-5.428l-2.218.111c-1.923.09-3.847.137-5.77.19-1.929.032-3.852.068-5.781.063s-3.852-.005-5.781-.074c1.923-.148,3.847-.242,5.775-.327s3.847-.142,5.77-.19,3.852-.074,5.781-.069l2.24.005a64.908,64.908,0,0,1,.912-7.783l.016-.079c-1.1-.174-2.2-.358-3.3-.543-2.224-.374-4.442-.79-6.661-1.18-2.213-.437-4.432-.848-6.64-1.307l-3.314-.69c-1.1-.253-2.2-.485-3.3-.754,1.117.153,2.234.332,3.346.5l3.341.553c2.224.369,4.442.79,6.661,1.18,2.213.437,4.432.848,6.639,1.307,1.091.227,2.182.453,3.272.69a64.321,64.321,0,0,1,2.192-8.716L82.4,97.479c-1.612-1.107-3.2-2.245-4.785-3.383s-3.156-2.3-4.711-3.483-3.109-2.366-4.627-3.6c1.644,1.054,3.257,2.16,4.864,3.272s3.2,2.245,4.785,3.383,3.156,2.3,4.711,3.483l1.57,1.2a43,43,0,0,1,1.876-4.69c-.743-.659-1.47-1.344-2.192-2.029-.838-.806-1.67-1.612-2.477-2.45s-1.618-1.67-2.382-2.55c.912.722,1.792,1.491,2.661,2.261s1.718,1.565,2.561,2.361c.68.653,1.36,1.312,2.029,1.987,2.092-4.268,4.479-6.766,6.576-6.4a2.364,2.364,0,0,1,.7.237v-.005l.032.021,17.964,10.455V83.272c0-9.833,3.615-10.312,8.083-10.312H135.6c.927,0,1.686,1.054,1.686,2.361v.564c0,3.062,1.676,3.072,3.731,3.072h36.918c2.076,0,3.741-.011,3.741-3.072v-.564c0-1.307.748-2.361,1.691-2.361h15.961c4.458,0,8.073,1.307,8.073,10.312v75.659a32.121,32.121,0,0,1,3.162,5.491c2.793,6.8,7.941,31.975,7.941,31.975l-1.133.09c.116.822.206,1.576.269,2.255v.005C218.456,201.6,221.085,209.576,221.112,212.584Z" transform="translate(-58.66 -72.96)" fill="none"/>
    </clipPath>
  </defs>
  <g id="Grupo_47000" data-name="Grupo 47000" transform="translate(-46.985 -36.631)">
    <g id="Background_Complete" data-name="Background Complete" transform="translate(53.086 36.631)">
      <g id="Grupo_46908" data-name="Grupo 46908" transform="translate(0 80.241)">
        <path id="Trazado_97594" data-name="Trazado 97594" d="M59.525,209.51a15.276,15.276,0,1,1,19.642,9A15.276,15.276,0,0,1,59.525,209.51Z" transform="translate(-58.563 -188.906)" fill="#ebebeb"/>
        <path id="Trazado_97595" data-name="Trazado 97595" d="M87.509,211.953c-1.753,4.891-6.885,8.272-6.885,8.272s-5.774-2.106-8.6-6.462c-2.36-3.633-1.638-7.942,1.269-9.2,4.167-1.812,6.155,5.581,6.155,5.581s.229-7.652,4.706-6.851C87.27,203.847,88.967,207.874,87.509,211.953Z" transform="translate(-64.262 -195.682)" fill="#fff"/>
      </g>
      <g id="Grupo_46910" data-name="Grupo 46910" transform="translate(167.426 114.142)">
        <path id="Trazado_97596" data-name="Trazado 97596" d="M398.461,282.153a15.273,15.273,0,0,1-16.006-1.382,15.275,15.275,0,1,1,16.006,1.382Z" transform="translate(-376.293 -253.241)" fill="#ebebeb"/>
        <g id="Grupo_46909" data-name="Grupo 46909" transform="translate(6.161 8.89)">
          <path id="Trazado_97597" data-name="Trazado 97597" d="M406.025,275.158a4.648,4.648,0,1,1-4.233-5.029A4.649,4.649,0,0,1,406.025,275.158Z" transform="translate(-392.13 -270.111)" fill="#fff"/>
          <path id="Trazado_97598" data-name="Trazado 97598" d="M404.156,296.654l-.164,1.911a15.273,15.273,0,0,1-16.006-1.382l.163-1.9a8.033,8.033,0,0,1,16.007,1.375Z" transform="translate(-387.986 -278.542)" fill="#fff"/>
        </g>
      </g>
      <g id="Grupo_46912" data-name="Grupo 46912" transform="translate(153.611)">
        <circle id="Elipse_3885" data-name="Elipse 3885" cx="16.781" cy="16.781" r="16.781" transform="translate(0 13.153) rotate(-23.073)" fill="#ebebeb"/>
        <g id="xsrjP0" transform="translate(11.3 10.736)">
          <g id="Grupo_46911" data-name="Grupo 46911">
            <path id="Trazado_97599" data-name="Trazado 97599" d="M386.071,74.96c-.444-.279-.83-.684-1.425-.627-.228.023-.178-.167-.179-.29q0-3.355,0-6.705c0-.162.01-.3.188-.386,1.707-.861,2.447-2.555,3.493-4a6.679,6.679,0,0,0,1.238-5.071c-.071-.5.163-.729.617-.832a1.121,1.121,0,0,1,1.276.4,9,9,0,0,1,.975,2.929,10.5,10.5,0,0,1-.311,2.512c-.078.614-.221,1.22-.337,1.842.15.109.324.052.484.054q2.832,0,5.665,0c.8,0,1.185.229,1.3.757a1.513,1.513,0,0,1-.823,1.637c-.141.071-.4.007-.414.228s.246.2.377.293c.683.469.556,1.436-.234,2-.19.133-.559.072-.569.351,0,.222.341.22.5.377a1.279,1.279,0,0,1-.547,1.974,2.517,2.517,0,0,0-.332.128c-.094.063-.186.133,0,.262a1.113,1.113,0,0,1-.023,1.991l-.246.177a1.6,1.6,0,0,1-.994.218q-4.442.009-8.883,0A1.053,1.053,0,0,1,386.071,74.96Z" transform="translate(-377.643 -57.004)" fill="#fff" fill-rule="evenodd"/>
            <path id="Trazado_97600" data-name="Trazado 97600" d="M371.529,79.391c0-1.42.007-2.841,0-4.26,0-.289.027-.431.382-.427q2.6.032,5.2,0c.34,0,.393.113.391.415q-.014,4.287,0,8.574c0,.364-.1.466-.462.46-1.68-.019-3.36-.023-5.039,0-.418.006-.476-.14-.472-.506C371.542,82.232,371.529,80.812,371.529,79.391Z" transform="translate(-371.521 -65.377)" fill="#fff" fill-rule="evenodd"/>
          </g>
        </g>
      </g>
      <g id="Grupo_46913" data-name="Grupo 46913" transform="translate(10.349 156.714)">
        <path id="Trazado_97601" data-name="Trazado 97601" d="M96.713,371.472c.867,5.625-2.309,11.562-2.309,11.562s-6.66.988-11.659-1.728c-4.17-2.265-5.725-6.792-3.586-9.526,3.066-3.921,8.842,2.159,8.842,2.159s-3.777-7.488.953-9.055C92.25,363.791,95.987,366.782,96.713,371.472Z" transform="translate(-78.203 -348.52)" fill="#ebebeb"/>
        <path id="Trazado_97602" data-name="Trazado 97602" d="M124.047,343.141c-2.518,3.348-7.277,4.725-7.277,4.725s-3.943-3-5.081-7.03c-.949-3.361.636-6.507,3.176-6.784,3.641-.4,3.406,5.768,3.406,5.768s2-5.837,5.259-4.151C125.8,336.843,126.145,340.348,124.047,343.141Z" transform="translate(-93.912 -334.033)" fill="#ebebeb"/>
      </g>
    </g>
    <g id="Floor" transform="translate(46.985 245.317)">
      <path id="Trazado_97603" data-name="Trazado 97603" d="M46.985,432.924,73.73,432.8l26.744-.047,53.489-.088,53.489.088,26.744.046,26.744.129-26.744.129-26.744.046-53.489.088-53.489-.088-26.744-.047Z" transform="translate(-46.985 -432.661)" fill="#263238"/>
    </g>
    <g id="Device" transform="translate(100.407 49.957)">
      <g id="Grupo_46938" data-name="Grupo 46938">
        <g id="Grupo_46937" data-name="Grupo 46937">
          <path id="Trazado_97604" data-name="Trazado 97604" d="M246.456,61.92h-89.08a9.1,9.1,0,0,0-9.011,9.179V254.481a9.1,9.1,0,0,0,9.011,9.179h89.08a9.107,9.107,0,0,0,9.021-9.179V71.1A9.1,9.1,0,0,0,246.456,61.92Zm3.388,186.891c0,4.827-3.615,8.731-8.073,8.731h-79.7c-4.468,0-8.083-3.9-8.083-8.731V78.05c0-9.833,3.615-10.312,8.083-10.312h15.961c.927,0,1.686,1.054,1.686,2.361v.564c0,3.062,1.676,3.072,3.736,3.072h36.918c2.076,0,3.736-.011,3.736-3.072V70.1c0-1.307.748-2.361,1.691-2.361h15.966c4.458,0,8.073,1.307,8.073,10.312Z" transform="translate(-148.365 -61.92)" fill="#12263f"/>
          <path id="Trazado_97605" data-name="Trazado 97605" d="M249.952,75.966h-10.07a.622.622,0,0,1-.622-.622h0a.622.622,0,0,1,.622-.622h10.07a.622.622,0,0,1,.622.622h0A.622.622,0,0,1,249.952,75.966Z" transform="translate(-191.363 -67.976)" fill="#fff"/>
          <line id="Línea_1518" data-name="Línea 1518" x1="0.3" transform="translate(5.327 176.068)" fill="none"/>
          <g id="Grupo_46936" data-name="Grupo 46936" transform="translate(5.625 5.817)">
            <path id="Trazado_97606" data-name="Trazado 97606" d="M254.9,83.272V254.034c0,4.827-3.615,8.731-8.073,8.731h-79.7c-4.468,0-8.083-3.9-8.083-8.731V83.272c0-9.833,3.615-10.312,8.083-10.312h15.961c.927,0,1.686,1.054,1.686,2.361v.564c0,3.062,1.676,3.072,3.736,3.072h36.918c2.076,0,3.736-.011,3.736-3.072v-.564c0-1.307.748-2.361,1.691-2.361h15.966C251.281,72.96,254.9,74.267,254.9,83.272Z" transform="translate(-159.042 -72.96)" fill="#fff"/>
            <path id="Trazado_97607" data-name="Trazado 97607" d="M254.891,83.272V96.014H159.04V83.272c0-9.833,3.615-10.312,8.083-10.312H183.09c.927,0,1.686,1.054,1.686,2.361v.564c0,3.062,1.676,3.072,3.731,3.072h36.918c2.076,0,3.741-.011,3.741-3.072v-.564c0-1.307.748-2.361,1.691-2.361h15.961C251.276,72.96,254.891,74.267,254.891,83.272Z" transform="translate(-159.04 -72.96)" fill="#7d6eb2"/>
            <g id="Grupo_46915" data-name="Grupo 46915" transform="translate(6.252 11.342)">
              <path id="Trazado_97608" data-name="Trazado 97608" d="M173.737,100.141,170.9,97.488l2.832-2.653.439.468-2.332,2.185,2.332,2.185Z" transform="translate(-170.905 -94.65)" fill="#fff"/>
              <path id="Trazado_97609" data-name="Trazado 97609" d="M320.953,100.16h-1.895V99.5a.159.159,0,0,0-.089-.141,2.353,2.353,0,0,1-.212-.123.161.161,0,0,0-.167-.007l-.57.329-.947-1.641.57-.328a.158.158,0,0,0,.075-.149c0-.04,0-.08,0-.121s0-.081,0-.121a.161.161,0,0,0-.076-.149l-.57-.328.947-1.641.569.328a.159.159,0,0,0,.167-.007,2.119,2.119,0,0,1,.212-.123.159.159,0,0,0,.089-.141v-.657h1.895v.657a.159.159,0,0,0,.089.141,2.184,2.184,0,0,1,.213.123.158.158,0,0,0,.167.007l.569-.328.947,1.641-.571.329a.158.158,0,0,0-.076.149c0,.041,0,.081,0,.121s0,.079,0,.119a.157.157,0,0,0,.074.15l.571.33-.946,1.641-.57-.329a.161.161,0,0,0-.167.007,2.28,2.28,0,0,1-.212.123.159.159,0,0,0-.089.141Zm-1.5-.4h1.1V99.5a.553.553,0,0,1,.3-.493,1.95,1.95,0,0,0,.175-.1.551.551,0,0,1,.58-.018l.228.131.552-.956-.23-.132a.549.549,0,0,1-.271-.511l0-.1,0-.1a.55.55,0,0,1,.273-.51l.228-.131-.552-.956-.227.131a.552.552,0,0,1-.58-.018,1.8,1.8,0,0,0-.175-.1.552.552,0,0,1-.306-.493v-.261h-1.1v.261a.552.552,0,0,1-.305.493,1.682,1.682,0,0,0-.175.1.555.555,0,0,1-.581.018l-.227-.131-.551.956.227.131a.555.555,0,0,1,.273.512c0,.034,0,.067,0,.1s0,.067,0,.1a.554.554,0,0,1-.272.512l-.227.131.551.956.228-.131a.55.55,0,0,1,.581.019,1.785,1.785,0,0,0,.175.1.554.554,0,0,1,.3.493Zm.552-1.018a1.426,1.426,0,1,1,1.426-1.425A1.426,1.426,0,0,1,320.005,98.747Zm0-2.456a1.03,1.03,0,1,0,1.031,1.031A1.032,1.032,0,0,0,320.005,96.291Z" transform="translate(-240.051 -94.484)" fill="#fff"/>
            </g>
            <g id="Grupo_46919" data-name="Grupo 46919" transform="translate(6.252 3.117)">
              <g id="u5Zjqx" transform="translate(11.585)">
                <g id="Grupo_46916" data-name="Grupo 46916">
                  <path id="Trazado_97610" data-name="Trazado 97610" d="M196.346,79.594l-.154.153-.087.088a2.1,2.1,0,0,0-2.974,0c-.027-.028-.055-.058-.083-.087L192.9,79.6l0,0v0l.011-.009c.065-.058.128-.118.195-.173a2.412,2.412,0,0,1,1.049-.488c.1-.018.2-.027.3-.04.034,0,.255,0,.261,0,.068,0,.136.008.2.015a2.306,2.306,0,0,1,.549.131,2.4,2.4,0,0,1,.371.174,2.32,2.32,0,0,1,.354.248c.055.047.109.1.163.146Z" transform="translate(-192.891 -78.876)" fill="#fff"/>
                  <path id="Trazado_97611" data-name="Trazado 97611" d="M194.056,80.936l-.244-.242a1.719,1.719,0,0,1,.992-.5,1.738,1.738,0,0,1,1.492.494l-.245.244a1.41,1.41,0,0,0-1.994,0Z" transform="translate(-193.327 -79.492)" fill="#fff"/>
                  <path id="Trazado_97612" data-name="Trazado 97612" d="M196.246,81.8l-.242.242a.721.721,0,0,0-1.022,0l-.242-.242A1.059,1.059,0,0,1,196.246,81.8Z" transform="translate(-193.765 -80.108)" fill="#fff"/>
                </g>
                <path id="Trazado_97613" data-name="Trazado 97613" d="M196.191,82.758a.219.219,0,1,1-.219-.219A.219.219,0,0,1,196.191,82.758Z" transform="translate(-194.245 -80.609)" fill="#fff"/>
              </g>
              <g id="Grupo_46917" data-name="Grupo 46917" transform="translate(0 0.549)">
                <path id="Trazado_97614" data-name="Trazado 97614" d="M170.9,80.553a.635.635,0,1,1,.635.635A.635.635,0,0,1,170.9,80.553Z" transform="translate(-170.905 -79.918)" fill="#fff"/>
                <path id="Trazado_97615" data-name="Trazado 97615" d="M174.7,80.553a.635.635,0,1,1,.635.635A.635.635,0,0,1,174.7,80.553Z" transform="translate(-172.701 -79.918)" fill="#fff"/>
                <path id="Trazado_97616" data-name="Trazado 97616" d="M178.5,80.553a.635.635,0,1,1,.635.635A.635.635,0,0,1,178.5,80.553Z" transform="translate(-174.497 -79.918)" fill="#fff"/>
                <path id="Trazado_97617" data-name="Trazado 97617" d="M182.3,80.553a.635.635,0,1,1,.635.635A.635.635,0,0,1,182.3,80.553Z" transform="translate(-176.294 -79.918)" fill="#fff"/>
                <path id="Trazado_97618" data-name="Trazado 97618" d="M186.093,80.553a.635.635,0,1,1,.635.635A.635.635,0,0,1,186.093,80.553Z" transform="translate(-178.09 -79.918)" fill="#fff"/>
              </g>
              <g id="Grupo_46918" data-name="Grupo 46918" transform="translate(77.239 0.175)">
                <path id="Trazado_97619" data-name="Trazado 97619" d="M322.655,81.6h-5.171v-2.4h5.171Zm-4.908-.263h4.644V79.471h-4.644Z" transform="translate(-317.484 -79.208)" fill="#fff"/>
                <rect id="Rectángulo_28296" data-name="Rectángulo 28296" width="3.334" height="1.582" transform="translate(0.429 0.407)" fill="#fff"/>
                <rect id="Rectángulo_28297" data-name="Rectángulo 28297" width="0.46" height="1.281" transform="translate(5.174 0.557)" fill="#fff"/>
              </g>
            </g>
            <path id="Trazado_97620" data-name="Trazado 97620" d="M180.765,410.292h-.729v3.347h-1.362v-1.705h-2.411v1.705H174.9v-3.347h-.729l3.3-3.406Z" transform="translate(-166.199 -230.925)" fill="#ebebeb"/>
            <g id="Grupo_46920" data-name="Grupo 46920" transform="translate(79.943 175.96)">
              <rect id="Rectángulo_28298" data-name="Rectángulo 28298" width="7.945" height="1.135" fill="#ebebeb"/>
              <rect id="Rectángulo_28299" data-name="Rectángulo 28299" width="7.945" height="1.135" transform="translate(0 2.809)" fill="#ebebeb"/>
              <rect id="Rectángulo_28300" data-name="Rectángulo 28300" width="7.945" height="1.135" transform="translate(0 5.618)" fill="#ebebeb"/>
            </g>
            <g id="Grupo_46925" data-name="Grupo 46925" transform="translate(6.252 29.92)">
              <g id="Grupo_46923" data-name="Grupo 46923">
                <g id="Grupo_46922" data-name="Grupo 46922">
                  <path id="Trazado_97621" data-name="Trazado 97621" d="M179.065,139.638a5.262,5.262,0,0,1-1.542.645,5.347,5.347,0,1,1,1.542-.645Z" transform="translate(-170.905 -129.74)" fill="#dbdbdb"/>
                  <g id="Grupo_46921" data-name="Grupo 46921" transform="translate(2.536 3.11)">
                    <path id="Trazado_97622" data-name="Trazado 97622" d="M181.219,137.27a1.627,1.627,0,1,1-1.627-1.627A1.627,1.627,0,0,1,181.219,137.27Z" transform="translate(-176.78 -135.643)" fill="#fff"/>
                    <path id="Trazado_97623" data-name="Trazado 97623" d="M181.341,144.725v.671a5.262,5.262,0,0,1-1.542.646,5.318,5.318,0,0,1-4.082-.648v-.669a2.812,2.812,0,0,1,5.624,0Z" transform="translate(-175.717 -138.609)" fill="#fff"/>
                  </g>
                </g>
              </g>
              <g id="Grupo_46924" data-name="Grupo 46924" transform="translate(17.401 0.307)">
                <rect id="Rectángulo_28301" data-name="Rectángulo 28301" width="33.995" height="2.803" fill="#ebebeb"/>
                <rect id="Rectángulo_28302" data-name="Rectángulo 28302" width="29.672" height="1.857" transform="translate(0 4.674)" fill="#ebebeb"/>
                <rect id="Rectángulo_28303" data-name="Rectángulo 28303" width="49.065" height="1.857" transform="translate(0 8.249)" fill="#ebebeb"/>
              </g>
            </g>
            <g id="Grupo_46926" data-name="Grupo 46926" transform="translate(0.003 45.047)">
              <rect id="Rectángulo_28304" data-name="Rectángulo 28304" width="95.835" height="67.112" transform="translate(95.835 67.112) rotate(180)" fill="#ebebeb"/>
              <path id="Trazado_97624" data-name="Trazado 97624" d="M180.3,187.523a7.939,7.939,0,1,0,7.939-7.94A7.939,7.939,0,0,0,180.3,187.523Z" transform="translate(-169.099 -168.445)" fill="#dbdbdb"/>
              <path id="Trazado_97625" data-name="Trazado 97625" d="M239.8,225.674H293.1l-26.647-36.119Z" transform="translate(-197.247 -173.162)" fill="#c7c7c7"/>
              <path id="Trazado_97626" data-name="Trazado 97626" d="M200.155,237.314h44l-22-23.521Z" transform="translate(-178.493 -184.628)" fill="#dbdbdb"/>
              <rect id="Rectángulo_28305" data-name="Rectángulo 28305" width="95.835" height="14.46" transform="translate(0 52.653)" fill="#dbdbdb"/>
            </g>
            <g id="Grupo_46931" data-name="Grupo 46931" transform="translate(6.252 137.649)">
              <g id="Grupo_46929" data-name="Grupo 46929">
                <g id="Grupo_46928" data-name="Grupo 46928">
                  <path id="Trazado_97627" data-name="Trazado 97627" d="M179.065,344.08a5.261,5.261,0,0,1-1.542.646,5.347,5.347,0,1,1,1.542-.646Z" transform="translate(-170.905 -334.182)" fill="#dbdbdb"/>
                  <g id="Grupo_46927" data-name="Grupo 46927" transform="translate(2.536 3.111)">
                    <path id="Trazado_97628" data-name="Trazado 97628" d="M181.219,341.712a1.627,1.627,0,1,1-1.627-1.627A1.627,1.627,0,0,1,181.219,341.712Z" transform="translate(-176.78 -340.085)" fill="#fff"/>
                    <path id="Trazado_97629" data-name="Trazado 97629" d="M181.341,349.167v.671a5.261,5.261,0,0,1-1.542.646,5.316,5.316,0,0,1-4.082-.648v-.669a2.812,2.812,0,0,1,5.624,0Z" transform="translate(-175.717 -343.051)" fill="#fff"/>
                  </g>
                </g>
              </g>
              <g id="Grupo_46930" data-name="Grupo 46930" transform="translate(17.401 0.307)">
                <rect id="Rectángulo_28306" data-name="Rectángulo 28306" width="43.72" height="2.803" fill="#ebebeb"/>
                <rect id="Rectángulo_28307" data-name="Rectángulo 28307" width="55.811" height="1.857" transform="translate(0 4.674)" fill="#ebebeb"/>
                <rect id="Rectángulo_28308" data-name="Rectángulo 28308" width="19.013" height="1.857" transform="translate(0 8.249)" fill="#ebebeb"/>
              </g>
            </g>
            <g id="Grupo_46932" data-name="Grupo 46932" transform="translate(0.003 152.777)">
              <rect id="Rectángulo_28309" data-name="Rectángulo 28309" width="95.835" height="16.393" fill="#ebebeb"/>
              <path id="Trazado_97630" data-name="Trazado 97630" d="M196.129,389.284H181.185a7.94,7.94,0,0,1,14.944,0Z" transform="translate(-169.518 -372.89)" fill="#dbdbdb"/>
            </g>
            <g id="Grupo_46934" data-name="Grupo 46934" transform="translate(6.351 116.099)">
              <circle id="Elipse_3887" data-name="Elipse 3887" cx="3.172" cy="3.172" r="3.172" fill="#ebebeb"/>
              <g id="xsrjP0-2" data-name="xsrjP0" transform="translate(1.146 1.04)">
                <g id="Grupo_46933" data-name="Grupo 46933">
                  <path id="Trazado_97631" data-name="Trazado 97631" d="M176.019,298.652c-.084-.053-.157-.13-.269-.119-.043,0-.034-.032-.034-.055,0-.423,0-.845,0-1.268,0-.031,0-.056.035-.073.322-.163.463-.483.66-.757a1.264,1.264,0,0,0,.234-.959c-.014-.095.031-.138.116-.157a.212.212,0,0,1,.241.076,1.7,1.7,0,0,1,.184.554,2,2,0,0,1-.059.475c-.014.116-.042.231-.064.348.028.021.062.01.092.01h1.071c.15,0,.224.043.244.143a.286.286,0,0,1-.155.309c-.026.013-.075,0-.078.043s.046.038.071.055c.129.089.105.271-.044.377-.036.025-.106.013-.107.066s.064.041.094.071a.241.241,0,0,1-.1.373.462.462,0,0,0-.063.024c-.017.012-.035.025,0,.05a.21.21,0,0,1,0,.376l-.047.034a.306.306,0,0,1-.188.041h-1.679A.2.2,0,0,1,176.019,298.652Z" transform="translate(-174.426 -295.258)" fill="#fff" fill-rule="evenodd"/>
                  <path id="Trazado_97632" data-name="Trazado 97632" d="M173.27,299.49c0-.268,0-.537,0-.805,0-.055,0-.082.072-.081q.492.005.982,0c.064,0,.074.022.074.078q0,.811,0,1.621c0,.069-.018.089-.087.087-.317,0-.635,0-.952,0-.079,0-.09-.027-.09-.1C173.272,300.027,173.27,299.759,173.27,299.49Z" transform="translate(-173.268 -296.841)" fill="#fff" fill-rule="evenodd"/>
                </g>
              </g>
            </g>
            <g id="Grupo_46935" data-name="Grupo 46935" transform="translate(13.013 116.098)">
              <path id="Trazado_97633" data-name="Trazado 97633" d="M183.827,297.209a3.172,3.172,0,1,1,3.835,2.329A3.172,3.172,0,0,1,183.827,297.209Z" transform="translate(-183.736 -293.283)" fill="#ffc727"/>
              <path id="Trazado_97634" data-name="Trazado 97634" d="M189.751,298.351a4.065,4.065,0,0,1-1.62,1.54,4.059,4.059,0,0,1-1.618-1.54,1.282,1.282,0,0,1,.484-1.868c.9-.273,1.135,1.3,1.135,1.3s.232-1.573,1.136-1.3A1.282,1.282,0,0,1,189.751,298.351Z" transform="translate(-184.958 -294.782)" fill="#fff"/>
            </g>
            <rect id="Rectángulo_28310" data-name="Rectángulo 28310" width="45.025" height="1.833" transform="translate(24.179 118.856)" fill="#ebebeb"/>
            <path id="Trazado_97635" data-name="Trazado 97635" d="M159.045,319.095l11.979-.1L183,318.964l23.959-.066,23.959.066L242.9,319l11.979.1-11.979.1-11.979.035-23.959.066L183,319.226l-11.979-.035Z" transform="translate(-159.042 -189.302)" fill="#ebebeb"/>
          </g>
        </g>
      </g>
    </g>
    <g id="Icons" transform="translate(55.041 69.831)">
      <g id="Grupo_46939" data-name="Grupo 46939" transform="translate(0 82.607)">
        <rect id="Rectángulo_28311" data-name="Rectángulo 28311" width="33.459" height="33.459" transform="translate(0 8.62) rotate(-14.929)" fill="#12263f"/>
        <path id="Trazado_97636" data-name="Trazado 97636" d="M92.081,287.175l-4.335,1.156-1.327-4.978,4.252-1.133c-.082-.383-.139-.683-.21-.98-.319-1.315-.722-2.615-.946-3.946a5.661,5.661,0,0,1,3.443-6.556,41.69,41.69,0,0,1,5.415-1.492l1.208,4.53c-.657.175-1.314.336-1.962.527a9.419,9.419,0,0,0-1.713.581,1.684,1.684,0,0,0-.962,1.942c.289,1.285.666,2.549,1.033,3.928l4.943-1.318c.226,1.684.451,3.244.617,4.81.016.152-.311.437-.525.5-1.184.35-2.382.651-3.675,1l3.405,12.771-5.263,1.4C94.353,295.7,93.23,291.484,92.081,287.175Z" transform="translate(-73.695 -262.478)" fill="#fff"/>
      </g>
      <g id="Grupo_46941" data-name="Grupo 46941" transform="translate(155.325 117.558)">
        <rect id="Rectángulo_28312" data-name="Rectángulo 28312" width="33.551" height="33.551" transform="translate(3.307 0) rotate(5.657)" fill="#12263f"/>
        <g id="Grupo_46940" data-name="Grupo 46940" transform="translate(5.369 5.317)">
          <path id="Trazado_97637" data-name="Trazado 97637" d="M393.158,340.282c.317-3.344-1.556-5.712-4.867-6.072q-6.869-.749-13.754-1.362a5.18,5.18,0,0,0-5.929,4.884c-.258,2.284-.459,4.578-.686,6.865-.222,2.239-.458,4.479-.663,6.72-.31,3.419,1.558,5.811,4.937,6.18q6.8.747,13.608,1.348a5.224,5.224,0,0,0,6-4.981Q392.521,347.078,393.158,340.282Zm-3.542,13.4a3,3,0,0,1-3.6,2.972q-6.806-.631-13.6-1.347a2.99,2.99,0,0,1-2.96-3.608q.65-6.866,1.36-13.725a3.022,3.022,0,0,1,3.6-2.989q6.807.627,13.6,1.347a3.031,3.031,0,0,1,2.961,3.628c-.2,2.29-.447,4.576-.674,6.863S389.868,351.4,389.616,353.687Z" transform="translate(-367.227 -332.82)" fill="#fff"/>
          <path id="Trazado_97638" data-name="Trazado 97638" d="M386.749,345.288a6.45,6.45,0,1,0,5.733,7.145A6.441,6.441,0,0,0,386.749,345.288Zm-1.14,10.684a4.354,4.354,0,0,1-3.789-4.642,4.3,4.3,0,0,1,8.557.845A4.358,4.358,0,0,1,385.609,355.972Z" transform="translate(-373.118 -338.702)" fill="#fff"/>
          <path id="Trazado_97639" data-name="Trazado 97639" d="M406.293,345a1.336,1.336,0,0,1-1.662,1.176,1.351,1.351,0,0,1-1.238-1.738,1.427,1.427,0,0,1,1.684-1.211A1.445,1.445,0,0,1,406.293,345Z" transform="translate(-384.319 -337.742)" fill="#fff"/>
        </g>
      </g>
      <g id="Grupo_46942" data-name="Grupo 46942" transform="translate(155.697 39.571)">
        <rect id="Rectángulo_28313" data-name="Rectángulo 28313" width="24.952" height="24.951" transform="translate(8.365 0) rotate(19.587)" fill="#26aab7"/>
        <path id="Trazado_97640" data-name="Trazado 97640" d="M367.065,199.148a8.588,8.588,0,0,0,5.8.249c-1.928-1.425-2.554-2.391-2.431-3.732l1.475.445a4.227,4.227,0,0,1-1.532-4.682l1.351.926c-.864-2.525-.638-4.164.8-5.257a11.44,11.44,0,0,0,6.3,6.559c.073-.249.124-.438.183-.624a3.74,3.74,0,0,1,3.314-2.814,3.786,3.786,0,0,1,3.9,1.94.8.8,0,0,0,.762.461c.66-.012,1.319-.014,2.045-.021a3.947,3.947,0,0,1-2.071,1.318l0,.12,1.956.178c.015.032.031.065.046.1-.629.3-1.246.632-1.891.893a1.016,1.016,0,0,0-.674.66,11.127,11.127,0,0,1-13.281,7.113,11.3,11.3,0,0,1-5.77-3.484C367.248,199.382,367.158,199.263,367.065,199.148Z" transform="translate(-362.153 -180.58)" fill="#fff"/>
      </g>
      <g id="Grupo_46944" data-name="Grupo 46944" transform="translate(155.415 0)">
        <rect id="Rectángulo_28314" data-name="Rectángulo 28314" width="21.683" height="21.682" transform="matrix(0.949, -0.316, 0.316, 0.949, 0, 6.859)" fill="#ffc727"/>
        <g id="Grupo_46943" data-name="Grupo 46943" transform="translate(5.718 5.655)">
          <path id="Trazado_97641" data-name="Trazado 97641" d="M370.927,128.595c-.066-1.292-.141-2.487-.18-3.685a1.281,1.281,0,0,0-.416-.943,8.022,8.022,0,1,1,13.431-7.976A8.087,8.087,0,0,1,379,125.722a8.6,8.6,0,0,1-4.01.545,1.269,1.269,0,0,0-.741.186C373.164,127.129,372.1,127.837,370.927,128.595Zm1.247-2.4c.687-.445,1.26-.842,1.861-1.19a1.142,1.142,0,0,1,.7-.137,7.134,7.134,0,0,0,3.333-.224,6.674,6.674,0,0,0,3.864-9.494,6.255,6.255,0,0,0-6.413-3.382,6.677,6.677,0,0,0-3.815,11.656,1.239,1.239,0,0,1,.344.712C372.124,124.782,372.132,125.442,372.174,126.19Z" transform="translate(-368.06 -110.369)" fill="#fff"/>
          <path id="Trazado_97642" data-name="Trazado 97642" d="M374.857,121.168c.285-.868,1.024-.962,1.642-.314.242.253.309.344.563.64a.979.979,0,0,1,.189,1.27c-.19.334-.093.539.188.756A5.625,5.625,0,0,0,380.4,124.7a.535.535,0,0,0,.647-.388c.4-1.021.414-1.015,1.505-.886l.377.046a.932.932,0,0,1,.769,1.492,2.238,2.238,0,0,1-1.956,1.227,8.168,8.168,0,0,1-5.788-1.97,3.088,3.088,0,0,1-1.153-1.528A2.7,2.7,0,0,1,374.857,121.168Z" transform="translate(-371.208 -115.129)" fill="#fff"/>
        </g>
      </g>
    </g>
    <g id="Character" transform="translate(53.137 55.774)">
      <g id="Grupo_46999" data-name="Grupo 46999">
        <g id="Grupo_46998" data-name="Grupo 46998" clip-path="url(#clip-path)">
          <g id="Grupo_46997" data-name="Grupo 46997" transform="translate(-0.001 12.627)">
            <g id="Grupo_46996" data-name="Grupo 46996" transform="translate(0 0)">
              <g id="Grupo_46960" data-name="Grupo 46960" transform="translate(49.721 96.918)">
                <g id="Grupo_46952" data-name="Grupo 46952">
                  <g id="Grupo_46948" data-name="Grupo 46948" transform="translate(0 150.832)">
                    <path id="Trazado_97643" data-name="Trazado 97643" d="M153.842,619.94c1.837.593,54.2-.086,56.173-1.379.759-.478,1.106-8.114,1.258-17.351,0-.1,0-.193,0-.289.036-1.9.061-3.865.063-5.851,0-.273,0-.547.01-.819l-2.541-27.164-35.027.351,3.457,26.909.041,1.065.211,5.57.021.573s-19.926,9.225-21.95,10.876C153.553,614.074,152,619.356,153.842,619.94Z" transform="translate(-153.019 -567.086)" fill="#ad6359"/>
                    <path id="Trazado_97644" data-name="Trazado 97644" d="M153.842,644.326c1.837.593,54.2-.086,56.173-1.379.759-.479,1.106-8.114,1.258-17.351,0-.1,0-.193,0-.289.036-1.9.061-3.865.063-5.851,0-.273,0-.547.01-.819l-34.111.1.041,1.065.211,5.57.021.573s-19.926,9.225-21.95,10.876C153.553,638.46,152,643.742,153.842,644.326Z" transform="translate(-153.019 -591.472)" fill="#ebebeb"/>
                    <g id="Grupo_46947" data-name="Grupo 46947" transform="translate(0 33.75)">
                      <path id="Trazado_97645" data-name="Trazado 97645" d="M153.834,650.3c.945.3,15.171.272,29.076-.008,2.8-.056,5.575-.12,8.226-.192,9.917-.272,18.111-.681,18.871-1.178.753-.473,1.1-7.9,1.249-16.965,0-.128.008-.256.008-.384,0-.1,0-.2.008-.3h-.04l-33.746.064.016.576s-19.929,9.219-21.947,10.869S152,649.72,153.834,650.3Z" transform="translate(-153.016 -631.204)" fill="#a6a6a6"/>
                      <g id="Grupo_46946" data-name="Grupo 46946" transform="translate(1.25)">
                        <g id="Grupo_46945" data-name="Grupo 46945">
                          <path id="Trazado_97646" data-name="Trazado 97646" d="M155.528,662.978c8.824-.331,44.444-.834,53.191-.491.071,0,.072.051,0,.055-8.738.52-44.361.734-53.19.58C155.343,663.119,155.342,662.985,155.528,662.978Z" transform="translate(-155.389 -645.912)" fill="#263238"/>
                          <path id="Trazado_97647" data-name="Trazado 97647" d="M192.162,631.425c3.465-.693,7.72-.215,10.406,2.225.1.094-.032.241-.145.207a48.864,48.864,0,0,0-10.241-1.993A.222.222,0,0,1,192.162,631.425Z" transform="translate(-172.7 -631.135)" fill="#263238"/>
                          <path id="Trazado_97648" data-name="Trazado 97648" d="M187.441,634.354c3.465-.693,7.72-.215,10.406,2.225.1.095-.032.241-.145.207a48.867,48.867,0,0,0-10.242-1.993A.222.222,0,0,1,187.441,634.354Z" transform="translate(-170.467 -632.52)" fill="#263238"/>
                          <path id="Trazado_97649" data-name="Trazado 97649" d="M182.72,637.283c3.465-.693,7.72-.215,10.406,2.225.1.094-.032.241-.145.206a48.863,48.863,0,0,0-10.241-1.993A.222.222,0,0,1,182.72,637.283Z" transform="translate(-168.234 -633.906)" fill="#263238"/>
                        </g>
                      </g>
                      <path id="Trazado_97650" data-name="Trazado 97650" d="M209.747,650.3c2.8-.056,5.575-.12,8.226-.192,9.917-.272,18.111-.681,18.871-1.178.753-.473,1.1-7.9,1.249-16.965,0-.128.008-.256.008-.384,0-.1,0-.2.008-.3h-.039C233.448,634.525,217.156,645.37,209.747,650.3Z" transform="translate(-179.853 -631.204)" fill="#263238"/>
                    </g>
                  </g>
                  <g id="Grupo_46951" data-name="Grupo 46951" transform="translate(17.418)">
                    <path id="Trazado_97651" data-name="Trazado 97651" d="M190.825,465.691h37.71s-7.593-88.076-7.3-89.614c.377-1.97,2.6-10.886,5.567-22.532.929-3.645,1.93-7.553,2.971-11.607,2.812-10.957,5.911-22.932,8.611-33.353,4.053-15.611,7.217-27.738,7.217-27.738h-31.96s-3.724,11.807-8.418,27.17c-7.65,24.967-17.87,59.329-18.879,67.683C184.714,389.188,190.825,465.691,190.825,465.691Z" transform="translate(-186.07 -280.847)" fill="#26aab7"/>
                    <g id="Grupo_46950" data-name="Grupo 46950" transform="translate(6.345 8.005)">
                      <g id="Grupo_46949" data-name="Grupo 46949" transform="translate(0 170.131)">
                        <path id="Trazado_97652" data-name="Trazado 97652" d="M198.191,619.175c5.759-.12,4.1-.167,9.865-.222,2.819-.027,21.342-.189,23.975.248a.061.061,0,0,1,0,.118c-2.634.436-21.156.274-23.975.248-5.761-.056-4.106-.1-9.865-.223A.084.084,0,0,1,198.191,619.175Z" transform="translate(-198.11 -618.901)" fill="#263238"/>
                      </g>
                      <path id="Trazado_97653" data-name="Trazado 97653" d="M238.521,377.879c1.237-5.451,3.084-10.793,4.692-16.144q4.9-16.308,9.864-32.6,2.476-8.147,4.974-16.287,1.265-4.109,2.543-8.215c.839-2.676,1.794-5.33,2.551-8.031.308-1.1.476-.495.082.9-.8,2.812-1.58,5.628-2.4,8.434q-2.436,8.335-4.9,16.66-4.9,16.572-9.893,33.119-2.489,8.3-4.992,16.6A67.986,67.986,0,0,0,239,380.341a36.969,36.969,0,0,0-.333,8.588c.361,5.77,1.03,11.531,1.563,17.286l1.6,17.3q1.593,17.218,3.159,34.44c.131,1.455.258,2.91.37,4.367.037.487-.7.451-.751-.018-1.242-11.351-2.194-22.739-3.26-34.108q-1.591-16.969-3.179-33.938c-.265-2.84-.568-5.685-.57-8.541A35.229,35.229,0,0,1,238.521,377.879Z" transform="translate(-216.793 -296.038)" fill="#263238"/>
                    </g>
                  </g>
                  <path id="Trazado_97654" data-name="Trazado 97654" d="M245.286,280.847c2.219,17.165,6.448,49.349,9.532,72.7,7.209-28.291,18.8-72.7,18.8-72.7Z" transform="translate(-196.665 -280.847)" fill="#263238"/>
                </g>
                <g id="Grupo_46959" data-name="Grupo 46959" transform="translate(39.957)">
                  <g id="Grupo_46956" data-name="Grupo 46956" transform="translate(0 151.547)">
                    <path id="Trazado_97655" data-name="Trazado 97655" d="M229.658,621.086c1.835.6,54.2.112,56.178-1.175.761-.475,1.135-8.11,1.322-17.346q0-.145,0-.289c.043-1.9.074-3.864.085-5.851,0-.273,0-.547.013-.819.122-13.332-.839-27.164-.839-27.164l-34.227.223.956,26.912.036,1.066.191,5.571.018.573s-19.96,9.151-21.989,10.795C229.391,615.218,227.823,620.5,229.658,621.086Z" transform="translate(-228.844 -568.442)" fill="#ad6359"/>
                    <path id="Trazado_97656" data-name="Trazado 97656" d="M229.658,645.446c1.835.6,54.2.112,56.178-1.175.761-.475,1.135-8.11,1.322-17.346q0-.145,0-.289c.043-1.9.074-3.864.085-5.851,0-.273,0-.547.013-.819l-34.11-.029.036,1.066.191,5.571.018.573s-19.96,9.151-21.989,10.795C229.391,639.578,227.823,644.855,229.658,645.446Z" transform="translate(-228.844 -592.802)" fill="#ebebeb"/>
                    <g id="Grupo_46955" data-name="Grupo 46955" transform="translate(0 33.624)">
                      <path id="Trazado_97657" data-name="Trazado 97657" d="M229.658,651.4c1.835.6,54.2.112,56.178-1.175.761-.475,1.135-8.11,1.322-17.346q0-.145,0-.289l-33.786-.063.018.573s-19.96,9.151-21.989,10.795C229.391,645.536,227.823,650.813,229.658,651.4Z" transform="translate(-228.844 -632.383)" fill="#a6a6a6"/>
                      <g id="Grupo_46954" data-name="Grupo 46954" transform="translate(1.249)">
                        <g id="Grupo_46953" data-name="Grupo 46953">
                          <path id="Trazado_97658" data-name="Trazado 97658" d="M231.353,664.075c8.825-.3,44.446-.672,53.192-.3.071,0,.072.051,0,.055-8.74.487-44.363.572-53.191.386C231.168,664.216,231.167,664.081,231.353,664.075Z" transform="translate(-231.214 -647.09)" fill="#263238"/>
                          <path id="Trazado_97659" data-name="Trazado 97659" d="M268.1,632.53c3.467-.68,7.72-.187,10.4,2.263.1.095-.033.241-.145.207a48.813,48.813,0,0,0-10.234-2.031A.222.222,0,0,1,268.1,632.53Z" transform="translate(-248.579 -632.251)" fill="#263238"/>
                          <path id="Trazado_97660" data-name="Trazado 97660" d="M263.371,635.441c3.467-.681,7.72-.187,10.4,2.263.1.1-.033.241-.145.207a48.87,48.87,0,0,0-10.234-2.031A.222.222,0,0,1,263.371,635.441Z" transform="translate(-246.341 -633.628)" fill="#263238"/>
                          <path id="Trazado_97661" data-name="Trazado 97661" d="M258.639,638.353c3.468-.681,7.721-.187,10.4,2.263.1.1-.032.241-.145.207a48.86,48.86,0,0,0-10.234-2.031A.222.222,0,0,1,258.639,638.353Z" transform="translate(-244.103 -635.005)" fill="#263238"/>
                        </g>
                      </g>
                    </g>
                  </g>
                  <g id="Grupo_46957" data-name="Grupo 46957" transform="translate(6.069)">
                    <path id="Trazado_97662" data-name="Trazado 97662" d="M240.361,280.847s.737,15.291,4.237,27.4c.28,1,.585,1.986.913,2.931a56.817,56.817,0,0,1,9.212,4.734s.368,12.3.737,26.024c.409,15.339.833,32.448.745,36.077-.32,13.577,1.7,88.228,1.7,88.228l37.7.152s-6.817-83.367-6.769-88.341c.072-7.994-1.826-43.325-3.292-69.094-.9-15.875-1.634-28.115-1.634-28.115Z" transform="translate(-240.361 -280.847)" fill="#26aab7"/>
                    <path id="Trazado_97663" data-name="Trazado 97663" d="M276.029,619.776c5.76-.1,4.105-.149,9.866-.18,2.819-.015,21.342-.1,23.974.35a.061.061,0,0,1,0,.117c-2.636.425-21.157.185-23.976.146-5.76-.08-4.105-.12-9.864-.264A.084.084,0,0,1,276.029,619.776Z" transform="translate(-257.196 -441.087)" fill="#26aab7"/>
                    <path id="Trazado_97664" data-name="Trazado 97664" d="M316.758,291.1c.694,21.035,1.43,42.071,2.37,63.1.944,21.1,2.216,42.188,3.981,63.233.987,11.758,1.916,28.3,3.185,40.028.008.079-.112.107-.122.027-2.745-20.865-4.276-46.666-5.626-67.664s-2.264-42.025-2.98-63.05c-.4-11.893-.715-23.79-1.07-35.685C316.491,290.913,316.753,290.928,316.758,291.1Z" transform="translate(-276.377 -285.632)" fill="#26aab7"/>
                  </g>
                  <g id="Grupo_46958" data-name="Grupo 46958" transform="translate(9.301 29.402)">
                    <path id="Trazado_97665" data-name="Trazado 97665" d="M246.846,336.665a70.009,70.009,0,0,1,10.779,5.646.125.125,0,0,1-.113.222c-3.638-1.767-7.351-3.469-10.886-5.434A.243.243,0,0,1,246.846,336.665Z" transform="translate(-246.495 -336.644)" fill="#263238"/>
                  </g>
                  <path id="Trazado_97666" data-name="Trazado 97666" d="M242.729,304.526c.3,1.617.692,3.216,1.041,4.823.327,1.508.569,3.046.967,4.536a7.72,7.72,0,0,0,2.113,3.8c.592.55,1.243,1.036,1.874,1.54.339.271.707.532,1.06.807-.046-.213-.083-.43-.122-.65q-.161-.919-.314-1.84-.343-2.042-.655-4.09c-.41-2.682-.788-5.393-1.347-8.048a.086.086,0,0,1,.168-.042c.668,2.631,1.406,5.234,1.988,7.888.285,1.3,1.3,7.727,1.349,8.182s.086.941.1,1.412a5.6,5.6,0,0,1,0,1.443c-.027.117-.169.1-.219.019l-.007,0a5.672,5.672,0,0,1-.408-1.4c-.118-.458-.222-.924-.3-1.39-.03-.168-.053-.34-.077-.513-.633-.385-1.222-.893-1.814-1.322-.638-.462-1.288-.912-1.891-1.419a7.244,7.244,0,0,1-2.307-3.606,26.231,26.231,0,0,1-.757-4.618c-.2-1.826-.354-3.662-.609-5.481C242.546,304.46,242.708,304.416,242.729,304.526Z" transform="translate(-235.333 -292.018)" fill="#263238"/>
                </g>
              </g>
              <g id="Grupo_46995" data-name="Grupo 46995">
                <g id="Grupo_46974" data-name="Grupo 46974">
                  <g id="Grupo_46973" data-name="Grupo 46973">
                    <path id="Trazado_97667" data-name="Trazado 97667" d="M220.285,191.866c-2.16,17.22-5.936,46.1-12.041,48.438-1.058.4-5.554,1.3-8.628-2.164-5.182-5.834-14.14-25.494-16.643-31.818-1.11-2.8,17.173-11.955,18.738-9.136,2.193,3.948,4.494,9.891,4.931,9.693.729-.33,1.972-7.663,6.857-17.958C219.568,176.129,221.088,185.465,220.285,191.866Z" transform="translate(-117.444 -137.424)" fill="#ad6359"/>
                    <g id="Grupo_46971" data-name="Grupo 46971">
                      <path id="Trazado_97668" data-name="Trazado 97668" d="M172.753,198.14c1.8,3.866,8.574,10.333,10.809,11.265s13.612-10.22,13.322-12.687-7.358-15.015-11.258-16.947S170.888,194.134,172.753,198.14Z" transform="translate(-112.531 -136.04)" fill="#d08b73"/>
                      <g id="Grupo_46961" data-name="Grupo 46961" transform="translate(75.84 37.61)">
                        <path id="Trazado_97669" data-name="Trazado 97669" d="M210.268,189.015a35.361,35.361,0,0,1,.941-10.242c1.107-3.958,3.2-9.709,1.091-10.384-4.324-1.385-9.531,12.96-9.531,12.96s-1.282,6.7,2.88,8.45A4.485,4.485,0,0,0,210.268,189.015Z" transform="translate(-202.583 -168.295)" fill="#d08b73"/>
                      </g>
                      <g id="Grupo_46968" data-name="Grupo 46968">
                        <g id="Grupo_46963" data-name="Grupo 46963" transform="translate(65.527 38.055)">
                          <g id="Grupo_46962" data-name="Grupo 46962" transform="translate(0 5.145)">
                            <path id="Trazado_97670" data-name="Trazado 97670" d="M189.431,198.611l-6.414-1.131,3.274-18.575,8.117,1.431Z" transform="translate(-183.014 -178.905)" fill="#ffc727"/>
                            <path id="Trazado_97671" data-name="Trazado 97671" d="M194.4,180.336l-1.9,6.972-3.081,11.306-6.415-1.131,3.274-18.578Z" transform="translate(-183.012 -178.905)" fill="#ffc727"/>
                            <path id="Trazado_97672" data-name="Trazado 97672" d="M196.222,180.336l-1.9,6.972-7.47-1.317L188.1,178.9Z" transform="translate(-184.831 -178.905)" opacity="0.1"/>
                          </g>
                          <rect id="Rectángulo_28315" data-name="Rectángulo 28315" width="10.255" height="7.79" transform="translate(2.918 0) rotate(9.996)" fill="#ffc727"/>
                        </g>
                        <g id="Grupo_46966" data-name="Grupo 46966" transform="translate(19.305)">
                          <g id="Grupo_46964" data-name="Grupo 46964" transform="translate(58.513 25.211)">
                            <path id="Trazado_97673" data-name="Trazado 97673" d="M214.319,157.778l-7.983-.6,2.188-12.414,7.707,2.167Z" transform="translate(-206.336 -144.765)" fill="#ffc727"/>
                          </g>
                          <path id="Trazado_97674" data-name="Trazado 97674" d="M159.43,120.3,156.2,138.618l-13.441-.744-32.59,5.865,7.755-44,28.62,16.658Z" transform="translate(-102.331 -98.256)" fill="#f5ca56"/>
                          <ellipse id="Elipse_3888" data-name="Elipse 3888" cx="22.449" cy="7.216" rx="22.449" ry="7.216" transform="matrix(0.174, -0.985, 0.985, 0.174, 0, 44.216)" fill="#ffc727"/>
                          <ellipse id="Elipse_3889" data-name="Elipse 3889" cx="19.929" cy="5.908" rx="19.929" ry="5.908" transform="matrix(0.174, -0.985, 0.985, 0.174, 1.424, 41.516)" opacity="0.2"/>
                          <path id="Trazado_97675" data-name="Trazado 97675" d="M118.11,136.426c-.255,1.444-.55,2.841-.878,4.179a4.456,4.456,0,0,1-6.555-4.671l.366-2.075a4.453,4.453,0,0,1,7.728-2.178C118.618,133.21,118.4,134.8,118.11,136.426Z" transform="translate(-102.538 -112.65)" fill="#ffc727"/>
                          <g id="Grupo_46965" data-name="Grupo 46965" transform="translate(45.354 17.462)">
                            <path id="Trazado_97676" data-name="Trazado 97676" d="M196.8,155.227l-15.438-1.158,4.231-24.008,14.9,4.19Z" transform="translate(-181.364 -130.061)" fill="#ffc727"/>
                            <path id="Trazado_97677" data-name="Trazado 97677" d="M196.8,155.227l-15.438-1.158,4.231-24.008,14.9,4.19Z" transform="translate(-181.364 -130.061)" opacity="0.2"/>
                          </g>
                          <path id="Trazado_97678" data-name="Trazado 97678" d="M121.36,106.151a13.942,13.942,0,0,1,1.558,4.775,31.783,31.783,0,0,1,.4,5.035c.024.843-.03,1.684-.053,2.527-.07.839-.114,1.68-.2,2.518s-.177,1.675-.306,2.506-.245,1.666-.394,2.494a55.34,55.34,0,0,1-2.617,9.745,28.784,28.784,0,0,1-2.192,4.553,11.956,11.956,0,0,1-3.346,3.737,12.347,12.347,0,0,0,3.143-3.858,28.745,28.745,0,0,0,2.048-4.562,58.649,58.649,0,0,0,2.491-9.7,60.179,60.179,0,0,0,1.062-9.96,31.947,31.947,0,0,0-.26-5A14.519,14.519,0,0,0,121.36,106.151Z" transform="translate(-104.238 -101.288)" opacity="0.2"/>
                        </g>
                        <g id="Grupo_46967" data-name="Grupo 46967" transform="translate(0 1.043)">
                          <path id="Trazado_97679" data-name="Trazado 97679" d="M97.327,98.9c.915.723,1.791,1.488,2.66,2.26s1.719,1.564,2.564,2.361,1.672,1.613,2.479,2.449l1.21,1.256c.39.433.793.852,1.171,1.3-.462-.357-.9-.74-1.35-1.109l-1.311-1.149c-.874-.767-1.719-1.564-2.563-2.362s-1.671-1.613-2.479-2.45S98.092,99.782,97.327,98.9Z" transform="translate(-76.951 -98.901)" fill="#263238"/>
                          <path id="Trazado_97680" data-name="Trazado 97680" d="M95.726,163.421c-1.272.331-2.554.605-3.838.871s-2.571.5-3.861.732-2.584.435-3.883.612L82.2,165.9c-.653.068-1.3.155-1.958.209.635-.171,1.276-.308,1.914-.463l1.923-.408c1.282-.271,2.571-.5,3.861-.732s2.584-.435,3.883-.611S94.417,163.538,95.726,163.421Z" transform="translate(-68.868 -129.423)" fill="#263238"/>
                          <path id="Trazado_97681" data-name="Trazado 97681" d="M63.834,154.225c1.923-.152,3.847-.246,5.771-.33s3.849-.141,5.775-.19,3.85-.073,5.777-.068l2.889.009c.964.023,1.927.027,2.891.065-.961.081-1.923.129-2.885.193l-2.886.138c-1.924.091-3.849.14-5.774.189s-3.851.072-5.777.067S65.762,154.291,63.834,154.225Z" transform="translate(-61.107 -124.794)" fill="#263238"/>
                          <path id="Trazado_97682" data-name="Trazado 97682" d="M76.919,99.629c1.646,1.057,3.258,2.16,4.865,3.271s3.2,2.245,4.783,3.385,3.157,2.3,4.711,3.484l2.331,1.777c.765.608,1.541,1.2,2.3,1.822-.826-.524-1.632-1.076-2.449-1.612L91.04,110.1c-1.61-1.106-3.2-2.245-4.783-3.386s-3.156-2.3-4.71-3.484S78.437,100.862,76.919,99.629Z" transform="translate(-67.297 -99.245)" fill="#263238"/>
                          <path id="Trazado_97683" data-name="Trazado 97683" d="M85.261,135.219c-2.237-.308-4.463-.672-6.687-1.045s-4.441-.79-6.662-1.183c-2.213-.435-4.431-.847-6.639-1.3l-3.312-.694c-1.1-.25-2.2-.483-3.3-.749,1.119.149,2.233.33,3.349.495l3.338.549c2.225.374,4.441.79,6.662,1.184,2.213.436,4.431.847,6.639,1.3S83.064,134.7,85.261,135.219Z" transform="translate(-58.659 -113.728)" fill="#263238"/>
                        </g>
                      </g>
                      <g id="Grupo_46970" data-name="Grupo 46970" transform="translate(57.673 38.743)">
                        <path id="Trazado_97684" data-name="Trazado 97684" d="M188.931,179.61c-.244,2.246-2.752.673-2.752.673s3.064,3.135,1.917,5.354c-1.111,2.136-4.074.128-4.288-.013.161.168,2.9,3.122,1.519,5.233-1.439,2.193-4.066-.334-4.236-.5.1.206,1.406,2.946-.008,4.311-2.432,2.344-5.96-4.571-8.6-5.305,0,0-1.754,4.324-1.831,4.438,0,0-3.491-6.511-2.3-10.009a2.358,2.358,0,0,1,2.469-1.625s-1.357-1.975-.321-3.671c.534-.869,2.4-.788,2.4-.788a2.957,2.957,0,0,1-.005-3.078,2.842,2.842,0,0,1,2.553-.9s-.256-2.017.954-2.935C178.838,168.94,189.449,174.8,188.931,179.61Z" transform="translate(-168.108 -170.445)" fill="#d08b73"/>
                        <g id="Grupo_46969" data-name="Grupo 46969" transform="translate(2.864 3.224)">
                          <path id="Trazado_97685" data-name="Trazado 97685" d="M182.557,176.625a.032.032,0,0,1,.02-.061,21.024,21.024,0,0,1,10.573,6.683c.085.105-.049.289-.165.191A43.057,43.057,0,0,0,182.557,176.625Z" transform="translate(-177.797 -176.563)" fill="#263238"/>
                          <path id="Trazado_97686" data-name="Trazado 97686" d="M177.11,184.064c-.043-.019-.012-.091.037-.077a19.694,19.694,0,0,1,11.081,8.007c.087.139.027.351-.086.2C186.24,189.625,180.689,185.658,177.11,184.064Z" transform="translate(-175.22 -180.074)" fill="#263238"/>
                          <path id="Trazado_97687" data-name="Trazado 97687" d="M183.743,201.181a27.064,27.064,0,0,0-10.177-8.5c-.052-.028-.008-.1.042-.088a17.729,17.729,0,0,1,6.462,3.547,12.122,12.122,0,0,1,3.805,4.949C183.908,201.168,183.8,201.261,183.743,201.181Z" transform="translate(-173.543 -184.146)" fill="#263238"/>
                        </g>
                        <path id="Trazado_97688" data-name="Trazado 97688" d="M190.189,189.107c.1.127-.2.136-.1.266.412.546,2.608,4.044,1.648,5.162-.771.894-2.508.478-3.112.057l-1.52-1.06,1.059,1.524a7.563,7.563,0,0,1,1.076,2.207,2.71,2.71,0,0,1-.164,2.211,1.549,1.549,0,0,1-1.807.731,4.689,4.689,0,0,1-1.977-1.266l-1.547-1.558.947,1.97a7.1,7.1,0,0,1,.575,1.724,2.93,2.93,0,0,1-.1,1.69,1.4,1.4,0,0,1-1.2.855,3.085,3.085,0,0,1-1.612-.618,24.265,24.265,0,0,1-2.878-2.49c-.467-.441-.936-.884-1.427-1.3a4.584,4.584,0,0,0-1.637-1.015,4.952,4.952,0,0,1,1.517,1.146c.452.452.883.927,1.315,1.4a20.706,20.706,0,0,0,2.808,2.7,3.6,3.6,0,0,0,1.909.8,1.978,1.978,0,0,0,1.814-1.192,3.589,3.589,0,0,0,.181-2.094,7.837,7.837,0,0,0-.612-1.93l-.6.411a5.379,5.379,0,0,0,2.32,1.519,2.244,2.244,0,0,0,1.517-.083,2.534,2.534,0,0,0,1.118-1,3.42,3.42,0,0,0,.209-2.8,8.226,8.226,0,0,0-1.221-2.409l-.461.464c.786.51,2.677,1.186,4.047-.051C193.828,193.2,190.789,189.706,190.189,189.107Z" transform="translate(-172.04 -179.273)" fill="#263238"/>
                        <path id="Trazado_97689" data-name="Trazado 97689" d="M202.4,186.618a4.545,4.545,0,0,0,1.355.293,1.048,1.048,0,0,0,.96-.458,2.138,2.138,0,0,0,.2-1.2c-.033-.454-.09-.93-.169-1.419a3.6,3.6,0,0,1,.657,1.343,2.113,2.113,0,0,1-.152,1.61,1.5,1.5,0,0,1-.7.564,1.564,1.564,0,0,1-.851.046A2.432,2.432,0,0,1,202.4,186.618Z" transform="translate(-184.331 -176.78)" fill="#263238"/>
                      </g>
                    </g>
                    <g id="Grupo_46972" data-name="Grupo 46972" transform="translate(64.098 44.082)">
                      <path id="Trazado_97690" data-name="Trazado 97690" d="M180.3,211.6l19.986-16.074s4.846,10.011,5.131,9.971,3.455-13.325,8.712-21.6,6.527.7,5.41,7.538-6.378,44.676-11.105,48.145-9.169-.873-11.082-2.716C194.717,234.324,180.3,211.6,180.3,211.6Z" transform="translate(-180.299 -180.577)" fill="#00223d"/>
                      <path id="Trazado_97691" data-name="Trazado 97691" d="M187.584,231.339c.625-.642,6.908-5.539,8.3-6.574s2.779-2.067,4.17-3.1c1.438-1.065,2.851-2.221,4.369-3.168a.063.063,0,0,1,.078.1c-1.314,1.213-2.8,2.268-4.208,3.372q-2.082,1.633-4.169,3.261c-1.392,1.083-7.712,5.789-8.476,6.21C187.58,231.476,187.541,231.383,187.584,231.339Z" transform="translate(-183.737 -198.511)" fill="#fff"/>
                      <path id="Trazado_97692" data-name="Trazado 97692" d="M227.964,227.871c.554,1.18,1.034,2.39,1.5,3.606s.883,2.448,1.279,3.688.754,2.492,1.052,3.761a33.8,33.8,0,0,1,.724,3.84c-.194-.623-.354-1.252-.555-1.87-.174-.624-.369-1.243-.56-1.862l-1.163-3.711-1.158-3.715-.572-1.862C228.331,229.119,228.134,228.5,227.964,227.871Z" transform="translate(-202.847 -202.95)" fill="#fff"/>
                    </g>
                  </g>
                </g>
                <g id="Grupo_46975" data-name="Grupo 46975" transform="translate(89.214 40.811)">
                  <path id="Trazado_97693" data-name="Trazado 97693" d="M228.058,243.79c.865.857,54-1.954,54.26-2.3.7-.937-18.307-57.493-30.765-66.44-2.679-1.924-9.874.653-11.722,2.507-1.159,1.163-3.684,8.514-5.335,14.593C231.192,204.321,227.305,243.037,228.058,243.79Z" transform="translate(-227.963 -174.37)" fill="#fff"/>
                </g>
                <g id="Grupo_46989" data-name="Grupo 46989" transform="translate(89.724 5.887)">
                  <path id="Trazado_97694" data-name="Trazado 97694" d="M250.719,174.459c-2.105,1.563-3.724,9.647,1.095,10.742s9.287-6.516,9.945-8.975S255.275,171.077,250.719,174.459Z" transform="translate(-238.267 -138.736)" fill="#ffc727"/>
                  <g id="Grupo_46988" data-name="Grupo 46988">
                    <g id="Grupo_46977" data-name="Grupo 46977" transform="translate(8.724 24.902)">
                      <g id="Grupo_46976" data-name="Grupo 46976" transform="translate(0.003)">
                        <path id="Trazado_97695" data-name="Trazado 97695" d="M250.66,175.809c2.988.384,7.526-4.6,9.124-8.416.108-.262-.545-2.832-1.191-5.992-.385-1.919-.767-4.065-.975-6.049l-12.124,4.328a31.785,31.785,0,0,1,2,7.49,4.518,4.518,0,0,1,0,.823c0,.038-.006.084,0,.136C247.4,169.7,247.772,175.436,250.66,175.809Z" transform="translate(-245.493 -155.351)" fill="#d08b73"/>
                      </g>
                      <path id="Trazado_97696" data-name="Trazado 97696" d="M257.04,155.742c-.128,2.517-1.082,11.589-8.269,12.507a8.678,8.678,0,0,1-1.283.067.5.5,0,0,1,.006-.14,4.637,4.637,0,0,0,0-.821,31.949,31.949,0,0,0-2.007-7.491Z" transform="translate(-245.487 -155.536)" fill="#263238"/>
                    </g>
                    <g id="Grupo_46987" data-name="Grupo 46987">
                      <g id="Grupo_46978" data-name="Grupo 46978" transform="translate(1.003 3.84)">
                        <path id="Trazado_97697" data-name="Trazado 97697" d="M250.886,121.578c1.768,4.287.652,17.264-2.218,20.407-4.16,4.557-11.576,5.66-15.6.522-3.9-4.981-2.146-21.868,1.116-24.787C238.987,113.421,248.274,115.245,250.886,121.578Z" transform="translate(-230.835 -115.381)" fill="#d08b73"/>
                      </g>
                      <path id="Trazado_97698" data-name="Trazado 97698" d="M265.254,165.572s0,0,0,0" transform="translate(-246.114 -135.282)" fill="none" stroke="#f4a69d" stroke-linecap="round" stroke-linejoin="round" stroke-width="0"/>
                      <g id="Grupo_46984" data-name="Grupo 46984" transform="translate(2.188 14.565)">
                        <g id="Grupo_46979" data-name="Grupo 46979" transform="translate(7.288 3.586)">
                          <path id="Trazado_97699" data-name="Trazado 97699" d="M247.035,144.146c.01-.033.065.047.061.083-.1.872-.065,1.888.7,2.242.024.011.017.055-.012.048C246.834,146.3,246.8,144.957,247.035,144.146Z" transform="translate(-246.915 -143.296)" fill="#263238"/>
                          <path id="Trazado_97700" data-name="Trazado 97700" d="M247.926,142.54c1.415.007,1.3,2.837-.015,2.83C246.621,145.363,246.74,142.534,247.926,142.54Z" transform="translate(-246.95 -142.54)" fill="#263238"/>
                        </g>
                        <g id="Grupo_46980" data-name="Grupo 46980" transform="translate(0.565 3.301)">
                          <path id="Trazado_97701" data-name="Trazado 97701" d="M236.879,143.8c-.005-.034-.07.038-.071.074-.009.878-.167,1.881-.972,2.139-.025.008-.024.052.005.049C236.815,145.971,237.011,144.637,236.879,143.8Z" transform="translate(-234.942 -142.849)" fill="#263238"/>
                          <path id="Trazado_97702" data-name="Trazado 97702" d="M235.349,142.006c-1.405-.166-1.635,2.657-.333,2.811C236.3,144.968,236.526,142.145,235.349,142.006Z" transform="translate(-234.156 -141.999)" fill="#263238"/>
                        </g>
                        <path id="Trazado_97703" data-name="Trazado 97703" d="M249.043,138.332a11.108,11.108,0,0,1-1.08-.432,1.878,1.878,0,0,1-1.017-.651.6.6,0,0,1,.126-.72,1.487,1.487,0,0,1,1.5-.09,2.184,2.184,0,0,1,1.216,1A.639.639,0,0,1,249.043,138.332Z" transform="translate(-239.608 -135.993)" fill="#263238"/>
                        <path id="Trazado_97704" data-name="Trazado 97704" d="M233.806,137.571a10.966,10.966,0,0,0,1.137-.244,1.878,1.878,0,0,0,1.112-.471.6.6,0,0,0,0-.731,1.484,1.484,0,0,0-1.465-.341,2.182,2.182,0,0,0-1.366.777A.639.639,0,0,0,233.806,137.571Z" transform="translate(-233.083 -135.734)" fill="#263238"/>
                        <path id="Trazado_97705" data-name="Trazado 97705" d="M247.714,159.715c-.218.2-.439.471-.759.484a2.321,2.321,0,0,1-.933-.26.031.031,0,0,0-.04.043,1.181,1.181,0,0,0,1.092.523.934.934,0,0,0,.722-.747C247.813,159.708,247.746,159.686,247.714,159.715Z" transform="translate(-239.183 -147.072)" fill="#263238"/>
                        <g id="Grupo_46982" data-name="Grupo 46982" transform="translate(2.671 0.308)">
                          <g id="Grupo_46981" data-name="Grupo 46981">
                            <path id="Trazado_97706" data-name="Trazado 97706" d="M243.2,145.99a2.987,2.987,0,0,1-2.048,1.245,3.756,3.756,0,0,1-1.076,0,1.085,1.085,0,0,1-.2-.032c-.064-.011-.121-.021-.191-.038a.218.218,0,0,1-.168-.2v-.006a.4.4,0,0,1,.012-.09v-.006l0-.077c.01-.676.119-1.7.119-1.7-.252.113-1.533.626-1.5.275a44.958,44.958,0,0,1,1.537-8.984.081.081,0,0,1,.159.029c-.174,2.81-.842,5.57-1.062,8.389a5.248,5.248,0,0,1,1.426-.368c.095.032-.245,1.974-.225,2.279a.107.107,0,0,0,0,.033,4.14,4.14,0,0,0,3.129-.83C243.19,145.86,243.257,145.922,243.2,145.99Z" transform="translate(-238.153 -136.318)" fill="#263238"/>
                          </g>
                        </g>
                        <g id="Grupo_46983" data-name="Grupo 46983" transform="translate(5.099 9.891)">
                          <path id="Trazado_97707" data-name="Trazado 97707" d="M242.76,155.673a3.516,3.516,0,0,0,1.455,1.025,1.581,1.581,0,0,0,.962.016c.685-.214.673-.852.521-1.39a3.791,3.791,0,0,0-.349-.82A4.551,4.551,0,0,1,242.76,155.673Z" transform="translate(-242.76 -154.504)" fill="#263238"/>
                          <path id="Trazado_97708" data-name="Trazado 97708" d="M245.521,157.434a1.581,1.581,0,0,0,.962.016c.685-.214.673-.852.521-1.39A1.632,1.632,0,0,0,245.521,157.434Z" transform="translate(-244.066 -155.24)" fill="#f392b9"/>
                        </g>
                      </g>
                      <path id="Trazado_97709" data-name="Trazado 97709" d="M252.126,128.89c.317-1.133,3.243-13.348,2.921-14.679-.294-1.212-1.62-.717-1.64-.786s-.06-1.175-.745-1.588a1.855,1.855,0,0,0-1.482.027s-.208-1.165-.942-1.481a1.48,1.48,0,0,0-1.432.309,1.949,1.949,0,0,0-1.171-1.389,1.266,1.266,0,0,0-1.414.538s-.31-1.111-1.076-1.326-1.424.607-1.424.607a1.678,1.678,0,0,0-1.348-1.025,1.464,1.464,0,0,0-1.289,1,2,2,0,0,0-1.422-1c-.872-.025-1.174,1.061-1.174,1.061s-.356-.97-1.177-.906-1.014,1.212-1.014,1.212-.461-1.066-1.425-.754c-1.482.481-1.668,7.563-2.006,10.641,0,0,.415-1.472,1.043-1.526s1.1.947,2.272,1.206c1.67.369,4.451-1.591,6.754-1.1,2.238.478,3.9,2.829,4.7,6.344C248.549,128.236,251.373,131.581,252.126,128.89Z" transform="translate(-230.793 -108.094)" fill="#263238"/>
                      <g id="Grupo_46985" data-name="Grupo 46985" transform="translate(0 15.741)">
                        <path id="Trazado_97710" data-name="Trazado 97710" d="M245.509,145.943a3.616,3.616,0,0,1-2.912-4.2h0a3.611,3.611,0,1,1,2.912,4.2Zm-2.437-4.111a3.128,3.128,0,1,0,2.859-2.565A3.134,3.134,0,0,0,243.072,141.832Z" transform="translate(-235.369 -138.35)" fill="#ffc727"/>
                        <path id="Trazado_97711" data-name="Trazado 97711" d="M231.454,145.184c-1.48-.069-2.61-1.743-2.518-3.732a4.314,4.314,0,0,1,.878-2.487,2.25,2.25,0,0,1,3.847.179,4.305,4.305,0,0,1,.645,2.557c-.087,1.882-1.238,3.382-2.616,3.48A2.1,2.1,0,0,1,231.454,145.184Zm-1.262-5.918a3.831,3.831,0,0,0-.775,2.208c-.079,1.723.844,3.171,2.059,3.227s2.268-1.3,2.349-3.023a3.836,3.836,0,0,0-.566-2.27,1.926,1.926,0,0,0-1.493-.957,1.516,1.516,0,0,0-.183,0A1.989,1.989,0,0,0,230.193,139.266Z" transform="translate(-228.931 -137.966)" fill="#ffc727"/>
                        <path id="Trazado_97712" data-name="Trazado 97712" d="M240.724,144.267l.327-.355c-.526-.485-1.763-1.161-2.687-.26l.337.346C239.528,143.188,240.675,144.222,240.724,144.267Z" transform="translate(-233.393 -140.446)" fill="#ffc727"/>
                        <path id="Trazado_97713" data-name="Trazado 97713" d="M264.872,146.144l.439-.2c-.094-.2-.95-2.006-2.019-2.23-1-.208-7.492.1-7.768.112l.023.482c1.861-.09,6.874-.285,7.645-.122C263.9,144.333,264.645,145.649,264.872,146.144Z" transform="translate(-241.511 -140.65)" fill="#ffc727"/>
                      </g>
                      <g id="Grupo_46986" data-name="Grupo 46986" transform="translate(17.99 16.77)">
                        <path id="Trazado_97714" data-name="Trazado 97714" d="M263.54,143.5s2.579-4.348,4.531-3.459.229,7.042-1.911,8.026a2.245,2.245,0,0,1-3.09-.978Z" transform="translate(-263.071 -139.919)" fill="#d08b73"/>
                        <path id="Trazado_97715" data-name="Trazado 97715" d="M268.621,143.47c.035-.006.046.043.016.058a5.673,5.673,0,0,0-2.659,3.759,1.24,1.24,0,0,1,1.824-.476c.042.026.008.091-.036.085a1.381,1.381,0,0,0-1.48.594,6.684,6.684,0,0,0-.633,1.28c-.062.144-.317.089-.276-.074l.01-.037C265.2,146.7,266.522,143.826,268.621,143.47Z" transform="translate(-264.158 -141.599)" fill="#263238"/>
                      </g>
                    </g>
                  </g>
                </g>
                <g id="Grupo_46994" data-name="Grupo 46994" transform="translate(112.836 42.349)">
                  <g id="Grupo_46993" data-name="Grupo 46993">
                    <g id="Grupo_46992" data-name="Grupo 46992" transform="translate(1.89 1.152)">
                      <path id="Trazado_97716" data-name="Trazado 97716" d="M281.962,181.164c17.2,11.825,29.608,30.364,30.8,34.28,2.89,9.478,7.209,26.189,7.874,33.693.246,2.775-21.137,2.257-21.493-.7-1.115-9.26-5.1-29.41-5.2-29.757-.712-2.437-6.778-12.992-13.021-24.476S274.725,176.187,281.962,181.164Z" transform="translate(-276.379 -179.476)" fill="#ad6359"/>
                      <g id="Grupo_46991" data-name="Grupo 46991" transform="translate(19.205 68.944)">
                        <path id="Trazado_97717" data-name="Trazado 97717" d="M318.091,339.575a3.318,3.318,0,0,0,3.6-1.18,4.923,4.923,0,0,0,2.874,1.717c2.007.292,3.344-2.727,3.344-2.727a6.067,6.067,0,0,0,3.32,1.328c1.949.086,3.732-2.768,3.732-2.768a5.38,5.38,0,0,0,3.655-.671c1.849-1.193,2.761-7.088,2.73-10.407s-3.228-12.7-3.656-14.553l-21.3.017s-4.094,14.922-3.5,18.819C313.381,332.432,315.639,338.738,318.091,339.575Z" transform="translate(-312.825 -310.314)" fill="#d08b73"/>
                        <g id="Grupo_46990" data-name="Grupo 46990" transform="translate(6.358 16.08)">
                          <path id="Trazado_97718" data-name="Trazado 97718" d="M327.056,353.831c-1.366-3.363-1.664-6.948-2.165-10.509a.062.062,0,0,1,.123-.016c.457,3.547,1.611,6.958,2.208,10.479A.087.087,0,0,1,327.056,353.831Z" transform="translate(-324.891 -341.976)" fill="#263238"/>
                          <path id="Trazado_97719" data-name="Trazado 97719" d="M340.248,352.221a9.437,9.437,0,0,1-.39-2.443q-.119-1.31-.192-2.624c-.1-1.753-.159-3.509-.167-5.265,0-.078.119-.1.123-.016.1,1.747.231,3.493.407,5.234q.131,1.307.285,2.612a11.286,11.286,0,0,1,.173,2.471A.125.125,0,0,1,340.248,352.221Z" transform="translate(-331.801 -341.298)" fill="#263238"/>
                          <path id="Trazado_97720" data-name="Trazado 97720" d="M354.268,350.307a6.585,6.585,0,0,1-.234-2.219q-.043-1.2-.1-2.4c-.075-1.6-.151-3.2-.282-4.792-.006-.08.116-.1.123-.016.141,1.62.3,3.238.432,4.858q.094,1.193.174,2.389a6.176,6.176,0,0,1-.032,2.177A.044.044,0,0,1,354.268,350.307Z" transform="translate(-338.496 -340.83)" fill="#263238"/>
                        </g>
                      </g>
                    </g>
                    <path id="Trazado_97721" data-name="Trazado 97721" d="M296.432,247.636l23.371-1.885s-5.148-25.173-7.94-31.977-16.7-23.587-31.2-33.531c-9.864-6.764-9.259-.979-4.7,7.982s15.287,29.459,15.792,31.08S296.432,247.636,296.432,247.636Z" transform="translate(-272.792 -177.29)" fill="#00223d"/>
                    <path id="Trazado_97722" data-name="Trazado 97722" d="M318.386,300.1c.874-.2,8.806-.933,10.532-1.055s3.455-.24,5.183-.357c1.785-.12,3.6-.33,5.388-.307a.063.063,0,0,1,.013.124c-1.761.311-3.583.4-5.362.566q-2.634.251-5.269.494c-1.757.16-9.617.71-10.487.652C318.309,300.208,318.327,300.109,318.386,300.1Z" transform="translate(-294.336 -234.57)" fill="#fff"/>
                  </g>
                </g>
              </g>
            </g>
          </g>
        </g>
      </g>
    </g>
  </g>
</svg>
