<svg id="Grupo_46891" data-name="Grupo 46891" xmlns="http://www.w3.org/2000/svg" xmlns:xlink="http://www.w3.org/1999/xlink" width="123.833" height="123.833" viewBox="0 0 123.833 123.833">
  <defs>
    <radialGradient id="radial-gradient" cx="0.076" cy="0.019" r="1.465" gradientTransform="translate(0.001)" gradientUnits="objectBoundingBox">
      <stop offset="0" stop-color="#f6f6f7"/>
      <stop offset="0.477" stop-color="#f9f9fa"/>
      <stop offset="0.715" stop-color="#fff"/>
    </radialGradient>
    <radialGradient id="radial-gradient-2" cx="0.5" cy="0.5" r="0.5" gradientUnits="objectBoundingBox">
      <stop offset="0" stop-color="#db9c94" stop-opacity="0.6"/>
      <stop offset="1" stop-color="#ecc19c"/>
    </radialGradient>
  </defs>
  <g id="Grupo_42274" data-name="Grupo 42274" transform="translate(0 0)">
    <g id="Grupo_18423" data-name="Grupo 18423" transform="translate(0 0)">
      <g id="Grupo_18421" data-name="Grupo 18421">
        <g id="Grupo_18420" data-name="Grupo 18420">
          <g id="Grupo_18419" data-name="Grupo 18419">
            <path id="Trazado_40936" data-name="Trazado 40936" d="M318.456,2207.635a61.916,61.916,0,1,1-61.915-61.915A61.915,61.915,0,0,1,318.456,2207.635Z" transform="translate(-194.623 -2145.721)" fill="#fff"/>
          </g>
        </g>
      </g>
      <path id="Trazado_40937" data-name="Trazado 40937" d="M317.728,2206.843a61.915,61.915,0,1,0-61.915,61.918A61.672,61.672,0,0,0,317.728,2206.843Z" transform="translate(-193.895 -2144.928)" fill="url(#radial-gradient)"/>
      <path id="Trazado_40938" data-name="Trazado 40938" d="M296.6,2200.4a47.26,47.26,0,1,0-47.26,47.26A47.084,47.084,0,0,0,296.6,2200.4Z" transform="translate(-187.238 -2138.278)" fill="none" stroke="#26aab7" stroke-miterlimit="10" stroke-width="4"/>
      <g id="Grupo_18422" data-name="Grupo 18422" transform="translate(10.969 34.762)">
        <path id="Trazado_40939" data-name="Trazado 40939" d="M307.148,2164.488a61.924,61.924,0,0,1-106.6,61.66,61.727,61.727,0,0,0,106.6-61.66Z" transform="translate(-200.545 -2164.488)" fill="#eceef0"/>
      </g>
    </g>
  </g>
  <g id="Grupo_47008" data-name="Grupo 47008" transform="translate(34.56 24.726)">
    <path id="Trazado_26574" data-name="Trazado 26574" d="M627.038,343.708a50.585,50.585,0,0,1-.581-9.912H611.989a50.568,50.568,0,0,1-.581,9.912c-.84,4.505-5.858,4.505-5.858,4.505l13.672,3.624,13.672-3.624S627.877,348.213,627.038,343.708Z" transform="translate(-589.451 -274.338)" fill="#ecc19c"/>
    <g id="Grupo_16127" data-name="Grupo 16127" transform="translate(22.502 58.635)">
      <path id="Trazado_26575" data-name="Trazado 26575" d="M631.966,342.4a6.849,6.849,0,0,1-6.312.988c-5.445-1.607-7.8-4.129-8.658-5.28.178-3.27.18-5.782.18-5.782l14.468.168A50.4,50.4,0,0,0,631.966,342.4Z" transform="translate(-616.996 -332.325)" fill="#cca88d"/>
    </g>
    <g id="Grupo_16128" data-name="Grupo 16128" transform="translate(5.12 33.745)">
      <path id="Trazado_26576" data-name="Trazado 26576" d="M591.3,290.128s-3.307-4.445-4.69-.972a13.274,13.274,0,0,0,1.017,10.652c1.51,2.3,4.533,5.983,5.49,6.053a3.534,3.534,0,0,0,2.7-1.235Z" transform="translate(-585.921 -287.829)" fill="#ecc19c"/>
      <path id="Trazado_26577" data-name="Trazado 26577" d="M593.917,295s-2.218-2.982-3.146-.652a8.9,8.9,0,0,0,.682,7.147c1.013,1.546,3.042,4.014,3.684,4.061a2.369,2.369,0,0,0,1.811-.829Z" transform="translate(-587.854 -290.311)" fill="#db9c94" opacity="0.6"/>
    </g>
    <g id="Grupo_16129" data-name="Grupo 16129" transform="translate(45.707 34.358)">
      <path id="Trazado_26578" data-name="Trazado 26578" d="M662.6,291.112s3.053-4.246,4.363-.9a13.039,13.039,0,0,1-.882,10.219c-1.393,2.2-4.187,5.716-5.078,5.777a3.294,3.294,0,0,1-2.523-1.2Z" transform="translate(-658.48 -288.925)" fill="#ecc19c"/>
      <path id="Trazado_26579" data-name="Trazado 26579" d="M662.553,295.78s2.049-2.849,2.928-.607a8.749,8.749,0,0,1-.592,6.857c-.934,1.477-2.809,3.834-3.407,3.876a2.212,2.212,0,0,1-1.693-.807Z" transform="translate(-659.057 -291.299)" fill="#db9c94" opacity="0.6"/>
    </g>
    <path id="Trazado_26580" data-name="Trazado 26580" d="M611.673,234.28c.111,0,.222,0,.332.006s.221-.006.332-.006c11.752,0,22.8,9.64,22.8,22.656s-11.05,24.478-22.8,24.478c-.111,0-.221,0-.332-.007s-.222.007-.332.007c-11.751,0-22.8-11.463-22.8-24.478S599.921,234.28,611.673,234.28Z" transform="translate(-582.101 -230.489)" fill="#333"/>
    <path id="Trazado_26581" data-name="Trazado 26581" d="M616,304.85c-6.258,0-13.628-5.324-17.056-10.3-1.035-1.5-1.4-9.22-1.4-14.512,0-7.608-.121-17.762,2.185-22,3.066-5.633,11.737-4.564,16.272-4.564h.086c4.535,0,13.205-1.07,16.272,4.564,2.306,4.238,2.185,14.391,2.185,22,0,5.292-.365,13.007-1.4,14.512-3.428,4.981-10.8,10.3-17.056,10.3Z" transform="translate(-585.923 -238.909)" fill="#ecc19c"/>
    <path id="Trazado_26582" data-name="Trazado 26582" d="M620.469,244.222s-25.242,14.772-43.7,8.391c0,0,6.3-5.927,9.364-11.1,3.32-5.594,15.926-21.129,35.106-10.221l-.42-3.713s3.985,2.625,4.572,8.95c0,0,4.737.023,5.823,2.89l-3.077-.793a16.454,16.454,0,0,1,3.077,8.321c.567,9.644-2.962,15.417-2.962,15.417A18.086,18.086,0,0,1,625,254.279C623.965,245.69,622.195,245.771,620.469,244.222Z" transform="translate(-576.768 -227.502)" fill="#333"/>
    <g id="Grupo_16131" data-name="Grupo 16131" transform="translate(2.444 11.965)">
      <g id="Grupo_16130" data-name="Grupo 16130" transform="translate(0)">
        <path id="Trazado_26583" data-name="Trazado 26583" d="M623.3,248.892s-.467.553-1.375,1.432c-.456.437-1.011.969-1.681,1.538s-1.427,1.217-2.294,1.866a51.786,51.786,0,0,1-6.185,4.1c-.588.342-1.2.669-1.824.988s-1.261.634-1.907.942-1.31.6-1.978.879c-.677.263-1.346.551-2.034.8s-1.374.493-2.071.7c-.691.23-1.389.426-2.086.605-.691.2-1.39.352-2.081.5-.687.161-1.378.271-2.054.383a36.745,36.745,0,0,1-3.933.418c-.626.047-1.24.041-1.83.044s-1.161-.019-1.708-.054a28.788,28.788,0,0,1-2.965-.294c-.875-.139-1.63-.305-2.247-.438-1.228-.328-1.911-.545-1.911-.545s.729-.012,1.973.018l2.241-.055c.863-.064,1.827-.1,2.875-.219.524-.046,1.068-.1,1.628-.2s1.14-.139,1.73-.26c1.184-.194,2.422-.445,3.693-.743s2.573-.648,3.884-1.048l.987-.3.986-.329c.662-.207,1.314-.457,1.971-.693,1.313-.472,2.607-1,3.878-1.532,1.264-.548,2.509-1.092,3.7-1.663s2.333-1.132,3.412-1.683,2.1-1.084,3.03-1.6c1.864-1.021,3.407-1.912,4.488-2.546Z" transform="translate(-581.138 -248.892)" fill="#1a1a1a"/>
      </g>
    </g>
    <g id="Grupo_16133" data-name="Grupo 16133" transform="translate(1.153 8.984)">
      <g id="Grupo_16132" data-name="Grupo 16132">
        <path id="Trazado_26584" data-name="Trazado 26584" d="M622.286,243.563s-.576.472-1.624,1.233-2.564,1.825-4.439,3.007c-.937.592-1.954,1.232-3.051,1.872s-2.259,1.307-3.48,1.962-2.491,1.32-3.8,1.961-2.652,1.262-4,1.871c-1.362.586-2.728,1.165-4.1,1.681s-2.725,1-4.059,1.42c-.666.209-1.321.417-1.974.587s-1.286.351-1.914.494a35.955,35.955,0,0,1-3.567.676,22.888,22.888,0,0,1-3.067.263,10.6,10.6,0,0,1-1.287-.012,9.449,9.449,0,0,1-1.087-.092c-.327-.043-.617-.084-.867-.125l-.628-.163-.513-.142.534-.01.63-.006c.249-.029.534-.057.849-.084a9.065,9.065,0,0,0,1.04-.15c.376-.065.781-.121,1.212-.23s.887-.187,1.363-.331.98-.244,1.5-.414,1.059-.315,1.611-.515,1.129-.369,1.712-.591,1.188-.42,1.8-.661,1.236-.466,1.867-.723c1.266-.5,2.564-1.042,3.885-1.591s2.655-1.132,3.988-1.721c5.337-2.344,10.645-4.808,14.688-6.568,2.011-.9,3.708-1.62,4.9-2.122S622.286,243.563,622.286,243.563Z" transform="translate(-578.83 -243.563)" fill="#1a1a1a"/>
      </g>
    </g>
    <g id="Grupo_16135" data-name="Grupo 16135" transform="translate(10.42 2.129)">
      <g id="Grupo_16134" data-name="Grupo 16134" transform="translate(0)">
        <path id="Trazado_26585" data-name="Trazado 26585" d="M628.421,235.83l-1.537-.36-1.754-.371c-.675-.14-1.44-.267-2.265-.423-.831-.133-1.727-.271-2.675-.385s-1.944-.214-2.972-.29c-1.029-.059-2.088-.107-3.159-.089a31.321,31.321,0,0,0-3.225.19c-.534.068-1.072.115-1.6.221l-.789.135-.775.173a25.99,25.99,0,0,0-2.97.875c-.473.171-.92.382-1.377.554l-1.287.618-1.189.662c-.388.212-.733.464-1.085.682s-.662.463-.969.686-.611.425-.869.646c-.507.45-1,.807-1.361,1.146-.723.678-1.171,1.058-1.171,1.058s.256-.513.763-1.4c.256-.441.62-.939,1.038-1.52.209-.29.469-.567.725-.879a9.724,9.724,0,0,1,.871-.924c.324-.3.646-.642,1.016-.948s.764-.614,1.176-.922c.426-.285.869-.576,1.328-.864.473-.261.959-.529,1.466-.776a19.963,19.963,0,0,1,3.256-1.2l.861-.23c.29-.065.583-.118.876-.174.586-.125,1.18-.19,1.773-.269s1.19-.092,1.782-.129c.592-.006,1.184-.027,1.765.007l.87.037.856.079c.569.045,1.124.132,1.669.213a29.336,29.336,0,0,1,3.1.672c.972.255,1.865.576,2.683.876a26.747,26.747,0,0,1,3.808,1.774A14.289,14.289,0,0,1,628.421,235.83Z" transform="translate(-595.397 -231.307)" fill="#1a1a1a"/>
      </g>
    </g>
    <g id="Grupo_16137" data-name="Grupo 16137" transform="translate(2.444 7.32)">
      <g id="Grupo_16136" data-name="Grupo 16136" transform="translate(0)">
        <path id="Trazado_26586" data-name="Trazado 26586" d="M619.917,240.758l-.482.094c-.313.053-.768.168-1.346.281-.577.134-1.275.289-2.07.486s-1.686.431-2.653.693c-.485.122-.986.268-1.5.434l-1.6.473-1.671.548-.864.276-.87.315-1.783.632-1.8.71c-1.222.453-2.424,1-3.637,1.53-.3.133-.611.252-.91.392l-.889.435-1.774.849c-1.171.57-2.282,1.21-3.393,1.772-.563.269-1.071.61-1.594.9l-1.523.881c-1.011.544-1.9,1.16-2.757,1.685l-1.223.766a12.351,12.351,0,0,0-1.1.7c-.668.472-1.27.864-1.764,1.193-.99.654-1.581,1.01-1.581,1.01s.431-.525,1.232-1.41c.4-.441.887-.983,1.466-1.584a27.464,27.464,0,0,1,2.048-1.906,30.415,30.415,0,0,1,2.551-2.124l1.463-1.074c.5-.364,1.009-.747,1.562-1.076l1.672-1.029c.569-.34,1.131-.714,1.741-1.008l1.82-.935.92-.463c.31-.149.629-.28.944-.418,1.269-.534,2.525-1.1,3.817-1.514.639-.224,1.273-.449,1.906-.647l1.891-.53.924-.252.919-.2,1.777-.374c1.169-.184,2.265-.376,3.292-.462.512-.049,1-.108,1.468-.142l1.33-.058c.832-.046,1.564-.013,2.16,0A17.4,17.4,0,0,1,619.917,240.758Z" transform="translate(-581.138 -240.588)" fill="#1a1a1a"/>
      </g>
    </g>
    <path id="Trazado_26587" data-name="Trazado 26587" d="M630.635,307.036s.123.3.321.671l.32.62.158.331a2.874,2.874,0,0,1,.128.328,1.973,1.973,0,0,1,.087.309,1.755,1.755,0,0,1,.021.281.849.849,0,0,1-.046.268.823.823,0,0,1-.1.262c-.051.077-.081.171-.133.237s-.1.129-.134.182c-.074.109-.119.181-.119.181a1.728,1.728,0,0,0,.213-.029,2.337,2.337,0,0,0,.246-.058,1.288,1.288,0,0,0,.3-.154,1.2,1.2,0,0,0,.166-.113c.05-.05.1-.107.15-.167a1.22,1.22,0,0,0,.241-.439.856.856,0,0,0,.054-.262,1.156,1.156,0,0,0,.014-.273,1.9,1.9,0,0,0-.105-.516,2.2,2.2,0,0,0-.211-.449,2.928,2.928,0,0,0-.271-.371,2.845,2.845,0,0,0-.6-.515A2.191,2.191,0,0,0,630.635,307.036Z" transform="translate(-600.503 -262.547)" fill="#db9c94" opacity="0.6"/>
    <g id="Grupo_16138" data-name="Grupo 16138" transform="translate(20.075 51.384)">
      <path id="Trazado_26588" data-name="Trazado 26588" d="M631.347,335.609s-.361-.006-.842.013c-.242.008-.518.016-.8.032s-.589.026-.888.026-.6.007-.878,0c-.143,0-.279-.007-.41-.015s-.261,0-.378-.017-.231-.012-.332-.018-.187-.017-.262-.022c-.151-.008-.244-.006-.244-.006a2.392,2.392,0,0,0,.162.182,2.159,2.159,0,0,0,.5.4,1.974,1.974,0,0,0,.38.2,2.516,2.516,0,0,0,.452.157,3.578,3.578,0,0,0,1.028.122,3.8,3.8,0,0,0,1.834-.5A2.383,2.383,0,0,0,631.347,335.609Z" transform="translate(-618.672 -326.517)" fill="#db9c94"/>
      <path id="Trazado_26589" data-name="Trazado 26589" d="M632.7,319.363s-11.106,3.215-20.042,0C612.657,319.363,621.893,335.132,632.7,319.363Z" transform="translate(-612.657 -319.363)" fill="#fff"/>
    </g>
    <g id="Grupo_16140" data-name="Grupo 16140" transform="translate(12.265 28.88)">
      <path id="Trazado_26590" data-name="Trazado 26590" d="M609.495,281.956a1.735,1.735,0,0,0,1.466-.769,1.416,1.416,0,0,0-.5-1.518c-1.375-1.058-5.9-.5-8.893,1.217a12.153,12.153,0,0,0-2.874,2.992c.147-.087.231-.128.318-.169l.382-.18q.382-.18.767-.354c.512-.23,1.031-.449,1.559-.641a11.275,11.275,0,0,1,2.009-.551A35.11,35.11,0,0,1,609.495,281.956Z" transform="translate(-598.695 -279.132)"/>
      <g id="Grupo_16139" data-name="Grupo 16139" transform="translate(8.024 7.89)">
        <path id="Trazado_26591" data-name="Trazado 26591" d="M616.635,297.128a4.091,4.091,0,0,0,.112-1.154c-.069-1.556-.954-2.781-1.976-2.736s-1.795,1.344-1.726,2.9a4.119,4.119,0,0,0,.169.99,4.109,4.109,0,0,1,1.682-.513A4.519,4.519,0,0,1,616.635,297.128Z" transform="translate(-613.04 -293.237)"/>
      </g>
    </g>
    <g id="Grupo_16142" data-name="Grupo 16142" transform="translate(35.712 28.895)">
      <path id="Trazado_26592" data-name="Trazado 26592" d="M642.158,281.983a1.733,1.733,0,0,1-1.465-.769,1.416,1.416,0,0,1,.5-1.518c1.374-1.058,5.9-.5,8.892,1.217a12.145,12.145,0,0,1,2.874,2.992,3.524,3.524,0,0,0-.318-.169l-.382-.18q-.382-.18-.766-.354c-.513-.23-1.031-.449-1.56-.641a11.266,11.266,0,0,0-2.009-.551A35.11,35.11,0,0,0,642.158,281.983Z" transform="translate(-640.612 -279.159)"/>
      <g id="Grupo_16141" data-name="Grupo 16141" transform="translate(0.611 7.89)">
        <path id="Trazado_26593" data-name="Trazado 26593" d="M641.82,297.155a4.058,4.058,0,0,1-.112-1.154c.069-1.556.953-2.781,1.976-2.736s1.8,1.344,1.726,2.9a4.113,4.113,0,0,1-.169.99,4.1,4.1,0,0,0-1.682-.513A4.519,4.519,0,0,0,641.82,297.155Z" transform="translate(-641.703 -293.264)"/>
      </g>
    </g>
    <g id="Grupo_16143" data-name="Grupo 16143" transform="translate(12.312 44.739)">
      <circle id="Elipse_1077" data-name="Elipse 1077" cx="4.097" cy="4.097" r="4.097" transform="translate(0 0)" fill="url(#radial-gradient-2)"/>
      <circle id="Elipse_1078" data-name="Elipse 1078" cx="4.097" cy="4.097" r="4.097" transform="translate(27.375 0)" fill="url(#radial-gradient-2)"/>
    </g>
  </g>
</svg>
