<svg xmlns="http://www.w3.org/2000/svg" xmlns:xlink="http://www.w3.org/1999/xlink" width="352.813" height="210.542" viewBox="0 0 352.813 210.542">
  <defs>
    <clipPath id="clip-path">
      <path id="Trazado_26183" data-name="Trazado 26183" d="M464.093,180.064l-11.8.041a3.469,3.469,0,0,1-.435,4.192,2.7,2.7,0,0,1-2.831.653c-1.193-.592-1.791-2.716-.659-4.831-.206-.007-.5-.016-.865-.026a27.808,27.808,0,0,0-4.5.045,4.863,4.863,0,0,0-2.858,1.2,4.047,4.047,0,0,0-1,1.661,4.11,4.11,0,0,0-.178,1.2c-.006,1.15.045,12.648.046,12.935a2.876,2.876,0,0,0-2.822.988,2.688,2.688,0,0,0,2.84,4.318s.086,24.63.089,25.248l24.97-.088Z" transform="translate(-435.557 -180.037)" fill="none"/>
    </clipPath>
    <clipPath id="clip-path-2">
      <path id="Trazado_26197" data-name="Trazado 26197" d="M424.829,154.467l7.035.467a2.965,2.965,0,0,0,1.061,3.3,2.706,2.706,0,0,0,2.8.193A2.8,2.8,0,0,0,437,155.275l4.3.285a17.967,17.967,0,0,0,.731-4.2,20.356,20.356,0,1,0-33.225,14.382l-.549,8.264-.617,9.294a7.989,7.989,0,0,0,.054,1.6,7.89,7.89,0,0,0,.435,1.707,7.98,7.98,0,0,0,5.932,5.039,5.907,5.907,0,0,0,4.023,2.794c.3-5.5.924-17.12.93-17.43a2.413,2.413,0,0,1-2.613-.871,2.383,2.383,0,0,1,.36-3.127,2.428,2.428,0,0,1,2.708-.3c.019-.345.7-9.979,1.015-14.452C422.1,155.463,423.649,154.389,424.829,154.467Z" transform="translate(-401.364 -129.655)" fill="none"/>
    </clipPath>
    <clipPath id="clip-path-3">
      <rect id="Rectángulo_4014" data-name="Rectángulo 4014" width="100.869" height="54.164" rx="1" fill="#26aab7"/>
    </clipPath>
    <linearGradient id="linear-gradient" x1="0.5" x2="0.5" y2="1" gradientUnits="objectBoundingBox">
      <stop offset="0" stop-color="#fff"/>
      <stop offset="1" stop-color="#d2e6ee"/>
    </linearGradient>
    <clipPath id="clip-path-4">
      <path id="Trazado_26215" data-name="Trazado 26215" d="M322.2,198.807c.44.558,2.176,1.53,2.618,2.683s-1.043,1.456-1.043,1.456c.219,1.824.451,4.015-.685,5.592-.839,1.164-2.426,2.159-3.79,1.241.367,1.185.811,2.446,1.348,3.763a46.415,46.415,0,0,0,2.324,4.869,19.976,19.976,0,0,1-2.214.4,20.2,20.2,0,0,1-5.471-.083c-2.659-1.576-3.245-2.913-3.27-3.859-.041-1.571,1.461-2.261,1.883-4.171.438-1.984-.594-3.9-1.537-5.218a1.63,1.63,0,0,1-1.67.016c-.65-.5-1.285-1.683-.684-2.393a1.717,1.717,0,0,1,2.036-.481,5.622,5.622,0,0,0,1.213-4.935c1.888-.382,6.788-2.67,7.654-4.727C320.992,193.285,321.76,198.249,322.2,198.807Z" transform="translate(-309.766 -192.958)" fill="#d08b73"/>
    </clipPath>
    <clipPath id="clip-path-5">
      <path id="Trazado_26225" data-name="Trazado 26225" d="M317.935,228.224a23.072,23.072,0,0,1,7.737,9.677q.044-5.738.088-11.478l-2.87-4.172,1.388-4.673,4.361.7,2.213,3.738-1.021,4.6c.269,2.655.634,6.391,1.028,10.924.342,3.922.634,7.73-1.159,8.916a5.316,5.316,0,0,1-2.372.781,5.43,5.43,0,0,1-1.933-.319c-1.629-.6-6.977-5.472-13.667-12.641Z" transform="translate(-311.73 -217.579)" fill="#d08b73"/>
    </clipPath>
    <clipPath id="clip-path-6">
      <path id="Trazado_26234" data-name="Trazado 26234" d="M208.254,245.513l-4.118,7.6,6.775,5.517a8.535,8.535,0,0,1-.448-4.079,8.821,8.821,0,0,1,2.858-5.277Z" transform="translate(-204.136 -245.513)" fill="#d08b73"/>
    </clipPath>
    <clipPath id="clip-path-7">
      <path id="Trazado_26238" data-name="Trazado 26238" d="M203.778,261.121c-.584-.864-1.217-1.751-1.9-2.653-1.178-1.547-2.361-2.936-3.507-4.177-4.958.205-7.475,1.95-8.757,3.2-2.7,2.632-3.392,6.36-3.181,21.41.079,5.619.194,10.278.287,13.549a12.823,12.823,0,0,0,19.348-1.009c-.171-4.3-.386-7.782-.55-10.154-.368-5.32-.5-8.365-.887-12.433C204.322,265.61,204.006,262.941,203.778,261.121Z" transform="translate(-186.392 -254.291)" fill="#00223d"/>
    </clipPath>
    <clipPath id="clip-path-8">
      <path id="Trazado_26257" data-name="Trazado 26257" d="M498.211,293.59s.018,20.265.745,23.875,10.232,21.893,10.232,21.893l1.853,2.679,4.588-2.679a87.251,87.251,0,0,0-2.907-12.732c-1.874-5.614-4.757-8.047-4.286-10.227a73.247,73.247,0,0,0,.753-16.57c-.6-5.624-2.033-12.14-2.033-12.14l-9.662.183Z" transform="translate(-497.492 -287.689)" fill="#12263f"/>
    </clipPath>
    <clipPath id="clip-path-9">
      <path id="Trazado_26265" data-name="Trazado 26265" d="M506.319,217.614c-.2.534-.486,1.36-.6,1.56a23.758,23.758,0,0,0-2.156,1.8c-.284.482.844.847.844.847-.031-.013-.688,2.355-.706,2.59a3.252,3.252,0,0,0,1.57,2.716,3.341,3.341,0,0,0,3.392,0c-.264.963-.543,1.921-.82,2.88l4.749,1.725a22.291,22.291,0,0,1,.7-4.568c.485-1.132,1.568-4.083,1.568-4.083a1.227,1.227,0,0,0,.977-.311c.514-.416.777-1.761-.057-2.081a1.145,1.145,0,0,0-1.528.574c-.618-.082-1.141-1.557-1.339-2.024-.619-1.468-.247-2.9.055-4.384-.033.16-.943.473-1.093.6a3.845,3.845,0,0,0-1,1.824,9.742,9.742,0,0,0-.249,1.02c-.142.729.04,1.129-.859.856A18.18,18.18,0,0,1,506.319,217.614Z" transform="translate(-503.514 -214.86)" fill="#d08b73"/>
    </clipPath>
  </defs>
  <g id="Grupo_46890" data-name="Grupo 46890" transform="translate(-80.594 -65.234)">
    <g id="BACKGROUND" transform="translate(80.594 65.235)">
      <g id="Grupo_15917" data-name="Grupo 15917" transform="translate(0)" opacity="0.2">
        <circle id="Elipse_1058" data-name="Elipse 1058" cx="9.353" cy="9.353" r="9.353" transform="translate(308.745 116.669) rotate(-72.134)" fill="#00223d"/>
        <circle id="Elipse_1059" data-name="Elipse 1059" cx="9.353" cy="9.353" r="9.353" transform="translate(330.331 70.735) rotate(-13.194)" fill="#00223d"/>
        <circle id="Elipse_1060" data-name="Elipse 1060" cx="3.566" cy="3.566" r="3.566" transform="translate(311.359 88.365)" fill="#00223d"/>
        <circle id="Elipse_1061" data-name="Elipse 1061" cx="8.297" cy="8.297" r="8.297" transform="translate(146.998 10.383)" fill="#eef9f9"/>
        <circle id="Elipse_1062" data-name="Elipse 1062" cx="5.224" cy="5.224" r="5.224" transform="matrix(0.722, -0.692, 0.692, 0.722, 122.029, 10.227)" fill="#eef2f5"/>
        <circle id="Elipse_1063" data-name="Elipse 1063" cx="5.224" cy="5.224" r="5.224" transform="translate(183.046)" fill="#eef2f5"/>
        <circle id="Elipse_1064" data-name="Elipse 1064" cx="16.135" cy="16.135" r="16.135" transform="translate(0 113.843) rotate(-9.217)" fill="#b0c0d2"/>
        <circle id="Elipse_1065" data-name="Elipse 1065" cx="16.135" cy="16.135" r="16.135" transform="translate(7.667 22.828)" fill="#aee6e6"/>
        <circle id="Elipse_1066" data-name="Elipse 1066" cx="4.606" cy="4.606" r="4.606" transform="translate(37.158 94.358)" fill="#fcf3f1"/>
      </g>
      <circle id="Elipse_1067" data-name="Elipse 1067" cx="4.871" cy="4.871" r="4.871" transform="translate(23.802 154.323)" fill="#fcf3f1" opacity="0.2"/>
    </g>
    <g id="OBJECTS" transform="translate(103.861 92.445)">
      <g id="Grupo_15980" data-name="Grupo 15980" transform="translate(0)">
        <g id="Grupo_15935" data-name="Grupo 15935" transform="translate(120.369)">
          <rect id="Rectángulo_4007" data-name="Rectángulo 4007" width="144.831" height="104.174" rx="3" fill="#12263f"/>
          <rect id="Rectángulo_4008" data-name="Rectángulo 4008" width="138.199" height="99.603" rx="3" transform="translate(3.316 2.286)" fill="#fefefe"/>
          <g id="Grupo_15927" data-name="Grupo 15927" transform="translate(71.054 42.225)">
            <g id="Grupo_15926" data-name="Grupo 15926" clip-path="url(#clip-path)">
              <g id="Grupo_15925" data-name="Grupo 15925" transform="translate(-24.721 -32.914)">
                <path id="Trazado_26169" data-name="Trazado 26169" d="M439.216,243.107h-1.14a5.342,5.342,0,0,1-5.363-5.322v-.616h11.848v.55A5.366,5.366,0,0,1,439.216,243.107Z" transform="translate(-409.712 -169.7)" fill="#12263f"/>
                <circle id="Elipse_1068" data-name="Elipse 1068" cx="20.356" cy="20.356" r="20.356" transform="translate(0 28.788) rotate(-45)" fill="#f5ca56"/>
                <path id="Trazado_26170" data-name="Trazado 26170" d="M446.567,209.264H422.88V186.29h23.605Z" transform="translate(-405.826 -149.594)" fill="#f5ca56"/>
                <g id="Grupo_15923" data-name="Grupo 15923" transform="translate(23.69 26.787)">
                  <path id="Trazado_26171" data-name="Trazado 26171" d="M434.69,198.076h-.669V173.243h.582Z" transform="translate(-433.919 -171.225)" fill="#282e5b"/>
                  <path id="Trazado_26172" data-name="Trazado 26172" d="M450.394,197.749h-.669V172.5h.58Z" transform="translate(-440.125 -170.931)" fill="#282e5b"/>
                  <path id="Trazado_26173" data-name="Trazado 26173" d="M437.239,173.031h-.021c-.474-.013-.68-.515-.879-1-.186-.453-.4-.967-.758-1.049a.924.924,0,0,0-.8.3,1.089,1.089,0,0,0-.252.876l-.66.109a1.756,1.756,0,0,1,.427-1.446,1.582,1.582,0,0,1,1.43-.491c.7.16.993.874,1.229,1.448a2.039,2.039,0,0,0,.305.592,3.75,3.75,0,0,0,.445-.812c.284-.612.579-1.245,1.138-1.248h0c.534,0,.808.577,1.073,1.135.114.24.325.686.444.728a2.83,2.83,0,0,0,.342-.678c.261-.624.587-1.4,1.331-1.558a1.763,1.763,0,0,1,1.765.833,1.809,1.809,0,0,1,.23,1.166l-.663-.088a1.146,1.146,0,0,0-.139-.731,1.114,1.114,0,0,0-1.054-.527c-.4.086-.642.658-.853,1.163-.233.555-.452,1.08-.958,1.087h-.008c-.516,0-.784-.563-1.043-1.109-.111-.235-.343-.723-.468-.753-.131,0-.422.626-.531.861C438.043,172.424,437.761,173.03,437.239,173.031Z" transform="translate(-433.852 -169.907)" fill="#282e5b"/>
                </g>
                <g id="Grupo_15924" data-name="Grupo 15924" transform="translate(17.032 53.621)">
                  <path id="Trazado_26174" data-name="Trazado 26174" d="M446.571,227.627l-23.687-3.394v1.656l23.492,3.365A8,8,0,0,0,446.571,227.627Z" transform="translate(-422.86 -218.209)" fill="#bec6c4"/>
                  <path id="Trazado_26175" data-name="Trazado 26175" d="M446.564,222.254l-23.7-3.4v1.656l23.7,3.4Z" transform="translate(-422.853 -216.085)" fill="#bec6c4"/>
                  <path id="Trazado_26176" data-name="Trazado 26176" d="M446.531,214.273H422.844v1.178l23.687,3.4Z" transform="translate(-422.844 -214.273)" fill="#bec6c4"/>
                  <path id="Trazado_26177" data-name="Trazado 26177" d="M445.871,232.9,422.9,229.607v.082a8.052,8.052,0,0,0,.166,1.6l21.9,3.138A7.981,7.981,0,0,0,445.871,232.9Z" transform="translate(-422.866 -220.333)" fill="#bec6c4"/>
                  <path id="Trazado_26178" data-name="Trazado 26178" d="M424.088,235.15a7.96,7.96,0,0,0,7.285,4.664h7.708a7.978,7.978,0,0,0,5-1.8Z" transform="translate(-423.336 -222.523)" fill="#bec6c4"/>
                  <path id="Trazado_26179" data-name="Trazado 26179" d="M446.531,219.617l-23.687-3.4.013,1.595,23.7,3.4Z" transform="translate(-422.844 -215.043)" fill="#eeeff0"/>
                  <path id="Trazado_26180" data-name="Trazado 26180" d="M446.564,226.414v-1.423l-23.7-3.4.011,1.595,23.688,3.394C446.565,226.528,446.564,226.472,446.564,226.414Z" transform="translate(-422.853 -217.167)" fill="#eeeff0"/>
                  <path id="Trazado_26181" data-name="Trazado 26181" d="M446.376,230.336l-23.492-3.365.008,1.594,22.973,3.291A7.95,7.95,0,0,0,446.376,230.336Z" transform="translate(-422.86 -219.291)" fill="#eeeff0"/>
                  <path id="Trazado_26182" data-name="Trazado 26182" d="M445.072,235.521l-21.9-3.138a7.9,7.9,0,0,0,.553,1.674l20,2.865A8.032,8.032,0,0,0,445.072,235.521Z" transform="translate(-422.974 -221.43)" fill="#eeeff0"/>
                </g>
              </g>
            </g>
          </g>
          <g id="Grupo_15930" data-name="Grupo 15930" transform="translate(50.373 11.753)">
            <g id="Grupo_15929" data-name="Grupo 15929" clip-path="url(#clip-path-2)">
              <g id="Grupo_15928" data-name="Grupo 15928" transform="translate(0 0.001)">
                <path id="Trazado_26184" data-name="Trazado 26184" d="M423.369,232.3a8.108,8.108,0,0,1-1.009-.136,5.92,5.92,0,0,0,9.735.641,8.093,8.093,0,0,1-1.035.005Z" transform="translate(-409.661 -170.163)" fill="#12263f"/>
                <path id="Trazado_26185" data-name="Trazado 26185" d="M442.032,151.361a20.356,20.356,0,1,0-33.225,14.382l-.549,8.264,6.745.448,1.625-24.476a1.735,1.735,0,0,1,.529-1.376,1.581,1.581,0,0,1,1.461-.39c.687.207.93.941,1.125,1.53a2.032,2.032,0,0,0,.264.612,3.791,3.791,0,0,0,.5-.78c.327-.591.665-1.2,1.222-1.166h0c.533.036.766.631.992,1.207.1.247.276.707.393.757a2.845,2.845,0,0,0,.388-.653c.3-.6.683-1.355,1.436-1.462a1.763,1.763,0,0,1,1.7.954,1.784,1.784,0,0,1,.155,1.137l-1.645,24.777,6.745.448.549-8.264A20.325,20.325,0,0,0,442.032,151.361Z" transform="translate(-401.364 -129.656)" fill="#f5ca56"/>
                <path id="Trazado_26186" data-name="Trazado 26186" d="M435.5,162.444a1.023,1.023,0,0,0-.107-.394,1.116,1.116,0,0,0-1.014-.6c-.408.058-.686.612-.933,1.1-.271.538-.526,1.045-1.032,1.018h-.007c-.515-.034-.743-.616-.963-1.179-.094-.243-.292-.746-.415-.784-.13-.008-.464.6-.59.822-.311.566-.634,1.15-1.156,1.115l-.021,0c-.473-.039-.644-.562-.808-1.06-.154-.465-.328-.993-.684-1.1a.925.925,0,0,0-.815.244,1,1,0,0,0-.3.623h.012l-1.645,24.779,8.81.585Z" transform="translate(-410.711 -142.184)" fill="#f5ca56"/>
                <path id="Trazado_26187" data-name="Trazado 26187" d="M426.227,161.81h-.012a1,1,0,0,1,.3-.623.925.925,0,0,1,.815-.244c.355.108.53.635.683,1.1.165.5.335,1.021.808,1.06l.021,0c.521.034.844-.55,1.156-1.115.126-.227.46-.83.59-.822.123.039.321.542.415.784.22.563.448,1.144.963,1.179h.007c.506.027.761-.48,1.032-1.018.246-.489.525-1.043.933-1.1a1.116,1.116,0,0,1,1.014.6,1.024,1.024,0,0,1,.107.394l-1.671,25.167.668.045,1.645-24.777a1.783,1.783,0,0,0-.155-1.137,1.763,1.763,0,0,0-1.7-.954c-.754.107-1.132.858-1.436,1.462a2.844,2.844,0,0,1-.388.653c-.116-.05-.3-.51-.393-.757-.226-.576-.458-1.171-.992-1.207h0c-.556-.037-.9.575-1.222,1.165a3.791,3.791,0,0,1-.5.78,2.029,2.029,0,0,1-.264-.612c-.195-.589-.438-1.323-1.125-1.53a1.581,1.581,0,0,0-1.461.39,1.735,1.735,0,0,0-.529,1.376l-1.625,24.476.667.044Z" transform="translate(-410.276 -141.746)" fill="#12263f"/>
                <path id="Trazado_26188" data-name="Trazado 26188" d="M412.036,212.854l-.11,1.652,23.2,5a7.993,7.993,0,0,0,.309-1.609Z" transform="translate(-405.538 -162.534)" fill="#bec6c4"/>
                <path id="Trazado_26189" data-name="Trazado 26189" d="M412.392,207.491l-.11,1.652,23.4,5.04.11-1.652Z" transform="translate(-405.679 -160.414)" fill="#bec6c4"/>
                <path id="Trazado_26190" data-name="Trazado 26190" d="M428.936,204.062l-16.222-1.077-.075,1.134,23.4,5.04.306-4.605Z" transform="translate(-405.819 -158.634)" fill="#bec6c4"/>
                <path id="Trazado_26191" data-name="Trazado 26191" d="M411.731,218.3a7.989,7.989,0,0,0,.055,1.6l21.626,4.657a8,8,0,0,0,1.012-1.458l-22.687-4.886Z" transform="translate(-405.454 -164.653)" fill="#bec6c4"/>
                <path id="Trazado_26192" data-name="Trazado 26192" d="M412.552,223.828a7.979,7.979,0,0,0,5.932,5.039,8.117,8.117,0,0,0,1.009.136l7.691.51a8.1,8.1,0,0,0,1.035-.005,7.964,7.964,0,0,0,4.082-1.427Z" transform="translate(-405.785 -166.87)" fill="#bec6c4"/>
                <path id="Trazado_26193" data-name="Trazado 26193" d="M412.569,204.86l-.106,1.591,23.4,5.04.106-1.591Z" transform="translate(-405.75 -159.375)" fill="#eeeff0"/>
                <path id="Trazado_26194" data-name="Trazado 26194" d="M412.213,210.223l-.105,1.591,23.4,5.038c0-.057.016-.113.02-.17l.094-1.42Z" transform="translate(-405.61 -161.494)" fill="#eeeff0"/>
                <path id="Trazado_26195" data-name="Trazado 26195" d="M411.752,217.177l22.687,4.886a7.909,7.909,0,0,0,.615-1.482l-23.2-5Z" transform="translate(-405.469 -163.613)" fill="#eeeff0"/>
                <path id="Trazado_26196" data-name="Trazado 26196" d="M412.268,222.712l19.749,4.253a8.019,8.019,0,0,0,1.442-1.3l-21.626-4.657A7.887,7.887,0,0,0,412.268,222.712Z" transform="translate(-405.501 -165.755)" fill="#eeeff0"/>
              </g>
            </g>
          </g>
          <path id="Trazado_26198" data-name="Trazado 26198" d="M491.2,142.877a15.036,15.036,0,1,1,0,30.073" transform="translate(-386.493 -123.127)" fill="none" stroke="#12263f" stroke-linecap="round" stroke-linejoin="round" stroke-width="1.772"/>
          <g id="Grupo_15931" data-name="Grupo 15931" transform="translate(13.446 15.776)">
            <line id="Línea_467" data-name="Línea 467" x2="27.373" fill="none" stroke="#baccc6" stroke-linecap="round" stroke-linejoin="round" stroke-width="1"/>
            <line id="Línea_468" data-name="Línea 468" x2="27.373" transform="translate(0 3.973)" fill="none" stroke="#baccc6" stroke-linecap="round" stroke-linejoin="round" stroke-width="1"/>
            <line id="Línea_469" data-name="Línea 469" x2="27.373" transform="translate(0 7.947)" fill="none" stroke="#baccc6" stroke-linecap="round" stroke-linejoin="round" stroke-width="1"/>
            <line id="Línea_470" data-name="Línea 470" x2="27.373" transform="translate(0 11.92)" fill="none" stroke="#baccc6" stroke-linecap="round" stroke-linejoin="round" stroke-width="1"/>
            <line id="Línea_471" data-name="Línea 471" x2="10.616" transform="translate(0 15.894)" fill="none" stroke="#baccc6" stroke-linecap="round" stroke-linejoin="round" stroke-width="1"/>
          </g>
          <g id="Grupo_15932" data-name="Grupo 15932" transform="translate(38.852 69.529)">
            <path id="Trazado_26199" data-name="Trazado 26199" d="M388.1,234.419h3.656a4.991,4.991,0,0,0,.118-1.07V225.18h-9.555v13.177h4.546a5,5,0,0,0,1.234-.16Z" transform="translate(-382.315 -225.18)" fill="#c1507f"/>
            <path id="Trazado_26200" data-name="Trazado 26200" d="M391.873,244.234a5.009,5.009,0,0,0,3.656-3.778h-3.656Z" transform="translate(-386.092 -231.217)" fill="#a73464"/>
          </g>
          <g id="Grupo_15933" data-name="Grupo 15933" transform="translate(43.512 53.122)">
            <path id="Trazado_26201" data-name="Trazado 26201" d="M395.8,207.292h3.657a5.036,5.036,0,0,0,.117-1.071v-8.168H390.02v13.176h4.546a5,5,0,0,0,1.234-.159Z" transform="translate(-390.02 -198.053)" fill="#aee6e6"/>
            <path id="Trazado_26202" data-name="Trazado 26202" d="M399.577,217.107a5.01,5.01,0,0,0,3.657-3.778h-3.657Z" transform="translate(-393.797 -204.09)" fill="#e8e8e8"/>
          </g>
          <g id="Grupo_15934" data-name="Grupo 15934" transform="translate(49.611 78.768)">
            <path id="Trazado_26203" data-name="Trazado 26203" d="M407.041,251.544h4.388a6.04,6.04,0,0,0,.141-1.285v-9.8H400.1v15.813h5.456a5.98,5.98,0,0,0,1.481-.192Z" transform="translate(-400.104 -240.456)" fill="#7d6eb2"/>
            <path id="Trazado_26204" data-name="Trazado 26204" d="M411.574,263.322a6.011,6.011,0,0,0,4.388-4.533h-4.388Z" transform="translate(-404.637 -247.701)" fill="#4a3691"/>
          </g>
        </g>
        <g id="Grupo_15940" data-name="Grupo 15940" transform="translate(2.073 0.743)">
          <g id="Grupo_15938" data-name="Grupo 15938">
            <rect id="Rectángulo_4009" data-name="Rectángulo 4009" width="104.186" height="64.188" rx="3" fill="#00223d"/>
            <g id="Grupo_15937" data-name="Grupo 15937" transform="translate(1.658 2.619)">
              <rect id="Rectángulo_4010" data-name="Rectángulo 4010" width="100.869" height="54.164" rx="3" fill="#fff"/>
              <g id="Grupo_15936" data-name="Grupo 15936" clip-path="url(#clip-path-3)">
                <rect id="Rectángulo_4011" data-name="Rectángulo 4011" width="28.664" height="9.815" rx="1" transform="translate(10.522 45.964)" fill="#26aab7"/>
                <path id="Trazado_94713" data-name="Trazado 94713" d="M2.939,0h40a2.939,2.939,0,0,1,2.939,2.939V6.876A2.939,2.939,0,0,1,42.94,9.815h-40A2.939,2.939,0,0,1,0,6.876V2.939A2.939,2.939,0,0,1,2.939,0Z" transform="translate(44.468 45.964)" fill="#26aab7"/>
                <path id="Trazado_94712" data-name="Trazado 94712" d="M0,0H118.285V4.365H0Z" transform="translate(-8.708 -0.021)" fill="#26aab7"/>
              </g>
            </g>
            <path id="Trazado_26205" data-name="Trazado 26205" d="M209.248,113.478c0-.362-.812-.654-1.814-.654s-1.815.293-1.815.654.812.654,1.815.654S209.248,113.84,209.248,113.478Z" transform="translate(-155.341 -111.994)" fill="#282e5b"/>
            <path id="Trazado_26206" data-name="Trazado 26206" d="M209.088,113.587c0-.269-.6-.487-1.351-.487s-1.351.218-1.351.487.6.488,1.351.488S209.088,113.857,209.088,113.587Z" transform="translate(-155.644 -112.104)" fill="#565699"/>
            <path id="Trazado_26207" data-name="Trazado 26207" d="M131.452,167.024V115.017c0-1.969,4.421-3.564,9.875-3.564h-8.961c-5.454,0-9.875,1.595-9.875,3.564v52.008c0,1.968,4.421,3.564,9.875,3.564h8.961C135.873,170.588,131.452,168.992,131.452,167.024Z" transform="translate(-122.491 -111.453)" fill="#034c8a" opacity="0.1"/>
          </g>
          <g id="Grupo_15939" data-name="Grupo 15939" transform="translate(12.181 8.871)">
            <rect id="Rectángulo_4015" data-name="Rectángulo 4015" width="79.824" height="17.752" rx="1" fill="#12263f"/>
            <rect id="Rectángulo_4016" data-name="Rectángulo 4016" width="28.785" height="16.834" rx="1" transform="translate(0 19.424)" fill="#c1507f"/>
            <rect id="Rectángulo_4017" data-name="Rectángulo 4017" width="21.125" height="5.848" rx="1.813" transform="translate(3.064 21.133)" fill="url(#linear-gradient)"/>
            <line id="Línea_472" data-name="Línea 472" x2="19.351" transform="translate(4.354 28.533)" fill="none" stroke="#fefefe" stroke-linecap="round" stroke-linejoin="round" stroke-width="0.5"/>
            <line id="Línea_473" data-name="Línea 473" x2="19.351" transform="translate(33.018 19.424)" fill="none" stroke="#f6c343" stroke-linecap="round" stroke-linejoin="round" stroke-width="0.5"/>
            <line id="Línea_474" data-name="Línea 474" x2="19.351" transform="translate(60.473 27.659)" fill="none" stroke="#baccc6" stroke-linecap="round" stroke-linejoin="round" stroke-width="0.5"/>
            <line id="Línea_475" data-name="Línea 475" x2="19.351" transform="translate(60.473 29.1)" fill="none" stroke="#baccc6" stroke-linecap="round" stroke-linejoin="round" stroke-width="0.5"/>
            <line id="Línea_476" data-name="Línea 476" x2="19.351" transform="translate(60.473 30.541)" fill="none" stroke="#baccc6" stroke-linecap="round" stroke-linejoin="round" stroke-width="0.5"/>
            <line id="Línea_477" data-name="Línea 477" x2="19.351" transform="translate(60.473 31.982)" fill="none" stroke="#baccc6" stroke-linecap="round" stroke-linejoin="round" stroke-width="0.5"/>
            <line id="Línea_478" data-name="Línea 478" x2="19.351" transform="translate(60.473 33.423)" fill="none" stroke="#baccc6" stroke-linecap="round" stroke-linejoin="round" stroke-width="0.5"/>
            <line id="Línea_479" data-name="Línea 479" x2="46.806" transform="translate(33.018 21.096)" fill="none" stroke="#baccc6" stroke-linecap="round" stroke-linejoin="round" stroke-width="0.5"/>
            <line id="Línea_480" data-name="Línea 480" x2="46.806" transform="translate(33.018 22.768)" fill="none" stroke="#baccc6" stroke-linecap="round" stroke-linejoin="round" stroke-width="0.5"/>
            <line id="Línea_481" data-name="Línea 481" x2="46.806" transform="translate(33.018 24.44)" fill="none" stroke="#baccc6" stroke-linecap="round" stroke-linejoin="round" stroke-width="0.5"/>
            <line id="Línea_482" data-name="Línea 482" x2="46.806" transform="translate(33.018 26.112)" fill="none" stroke="#baccc6" stroke-linecap="round" stroke-linejoin="round" stroke-width="0.5"/>
            <line id="Línea_483" data-name="Línea 483" x2="46.806" transform="translate(33.018 34.864)" fill="none" stroke="#baccc6" stroke-linecap="round" stroke-linejoin="round" stroke-width="0.5"/>
            <line id="Línea_484" data-name="Línea 484" x2="46.806" transform="translate(33.018 36.258)" fill="none" stroke="#baccc6" stroke-linecap="round" stroke-linejoin="round" stroke-width="0.5"/>
            <line id="Línea_485" data-name="Línea 485" x2="30.519" transform="translate(33.018 37.652)" fill="none" stroke="#baccc6" stroke-linecap="round" stroke-linejoin="round" stroke-width="0.5"/>
            <line id="Línea_486" data-name="Línea 486" x2="17.779" transform="translate(33.018 28.315)" fill="none" stroke="#c1507f" stroke-linecap="round" stroke-linejoin="round" stroke-width="0.5"/>
            <line id="Línea_487" data-name="Línea 487" x2="17.779" transform="translate(33.018 30.342)" fill="none" stroke="#c1507f" stroke-linecap="round" stroke-linejoin="round" stroke-width="0.5"/>
            <line id="Línea_488" data-name="Línea 488" x2="12.699" transform="translate(33.018 32.369)" fill="none" stroke="#c1507f" stroke-linecap="round" stroke-linejoin="round" stroke-width="0.5"/>
            <line id="Línea_489" data-name="Línea 489" x2="19.351" transform="translate(4.354 30.084)" fill="none" stroke="#fefefe" stroke-linecap="round" stroke-linejoin="round" stroke-width="0.5"/>
            <line id="Línea_490" data-name="Línea 490" x2="19.351" transform="translate(4.354 31.636)" fill="none" stroke="#fefefe" stroke-linecap="round" stroke-linejoin="round" stroke-width="0.5"/>
            <line id="Línea_491" data-name="Línea 491" x2="11.933" transform="translate(4.354 33.187)" fill="none" stroke="#fefefe" stroke-linecap="round" stroke-linejoin="round" stroke-width="0.5"/>
          </g>
        </g>
        <g id="Grupo_15977" data-name="Grupo 15977" transform="translate(30.717 42.516)">
          <g id="Grupo_15949" data-name="Grupo 15949" transform="translate(80.568)">
            <g id="Grupo_15941" data-name="Grupo 15941" transform="translate(9.161 63.209)">
              <path id="Trazado_26208" data-name="Trazado 26208" d="M326.712,385.968l6.548-.883a13.1,13.1,0,0,0,1.624,5.612c3.327,5.806,10.593,6.659,10.357,8.033-.093.538-1.06,1.2-4.476.824-1.108-.12-4.432-.4-5.4-1.627a3.414,3.414,0,0,0-2.91-.942l.171,2.364-5.191-.371C327.328,397.452,326.823,388.724,326.712,385.968Z" transform="translate(-321.567 -324.567)" fill="#aee6e6"/>
              <path id="Trazado_26209" data-name="Trazado 26209" d="M332.251,287.6c.8,15.064.16,24.633-.648,30.743a135.371,135.371,0,0,0-1.264,22.087c.031,1.278.38,5.8.414,6.51-2.283.156-6.6.958-8.885,1.114-2.066-6.614-.942-16.186-1.1-20.037-.149-3.608.165-4.182.009-11.376-.15-6.912-.225-10.368-.867-12.578a28.96,28.96,0,0,1-1.683-8.007,18.773,18.773,0,0,1,.22-4.055,15.979,15.979,0,0,1,3.146-6.978c1.2.15,2.454.353,3.767.624A49.163,49.163,0,0,1,332.251,287.6Z" transform="translate(-318.206 -285.026)" fill="#12263f"/>
            </g>
            <g id="Grupo_15942" data-name="Grupo 15942" transform="translate(3.09 62.434)">
              <path id="Trazado_26210" data-name="Trazado 26210" d="M317.062,385.968l6.548-.883a13.1,13.1,0,0,0,1.624,5.612c3.327,5.806,10.594,6.659,10.357,8.033-.093.538-1.06,1.2-4.475.824-1.108-.12-4.432-.4-5.4-1.627a3.412,3.412,0,0,0-2.909-.942l.171,2.364-5.191-.371C317.678,397.452,317.173,388.724,317.062,385.968Z" transform="translate(-311.682 -323.792)" fill="#aee6e6"/>
              <path id="Trazado_26211" data-name="Trazado 26211" d="M323.2,287.1c.8,15.064.159,24.633-.648,30.743a135.289,135.289,0,0,0-1.264,22.087c.031,1.278.38,5.8.413,6.51-2.282.156-6.6.958-8.884,1.114-2.066-6.614-.942-16.186-1.1-20.037-.149-3.608.165-4.182.009-11.376-.129-5.973-.159-8.96-.868-12.578-.827-4.221-1.553-4.257-2.217-8.177a34.4,34.4,0,0,1-.3-9.141q.25-1.241.5-2.482l2.992-.016a42.316,42.316,0,0,0,4.477,1.4A49.178,49.178,0,0,1,323.2,287.1Z" transform="translate(-308.167 -283.745)" fill="#12263f"/>
            </g>
            <g id="Grupo_15946" data-name="Grupo 15946">
              <path id="Trazado_26212" data-name="Trazado 26212" d="M305.432,189.893s-1.04-1.745-.764-2.708A5.031,5.031,0,0,1,308.4,184.3c1.992-.358,6.423.673,7.309-.818s.54-2.7-.124-2.387c.18-.9,2.827-.93,3.688,1.282a7.515,7.515,0,0,1-.435,6.672c-1.162,2.157-5.731,3.506-7.6,3.907-.016.524-.388,5.494-.388,5.494l.154,5.431a2.628,2.628,0,0,1-2.476,1.969c-2.116.166-5.172-6.87-5.436-11.417S304.294,189.81,305.432,189.893Z" transform="translate(-303.058 -180.519)" fill="#12263f"/>
              <g id="Grupo_15945" data-name="Grupo 15945" transform="translate(4.057 7.524)">
                <path id="Trazado_26213" data-name="Trazado 26213" d="M322.2,198.807c.44.558,2.176,1.53,2.618,2.683s-1.043,1.456-1.043,1.456c.219,1.824.451,4.015-.685,5.592-.839,1.164-2.426,2.159-3.79,1.241.367,1.185.811,2.446,1.348,3.763a46.415,46.415,0,0,0,2.324,4.869,19.976,19.976,0,0,1-2.214.4,20.2,20.2,0,0,1-5.471-.083c-2.659-1.576-3.245-2.913-3.27-3.859-.041-1.571,1.461-2.261,1.883-4.171.438-1.984-.594-3.9-1.537-5.218a1.63,1.63,0,0,1-1.67.016c-.65-.5-1.285-1.683-.684-2.393a1.717,1.717,0,0,1,2.036-.481,5.622,5.622,0,0,0,1.213-4.935c1.888-.382,6.788-2.67,7.654-4.727C320.992,193.285,321.76,198.249,322.2,198.807Z" transform="translate(-309.766 -192.958)" fill="#d08b73"/>
                <g id="Grupo_15944" data-name="Grupo 15944" clip-path="url(#clip-path-4)">
                  <g id="Grupo_15943" data-name="Grupo 15943" transform="translate(4.011 12.181)" opacity="0.5" style="mix-blend-mode: multiply;isolation: isolate">
                    <path id="Trazado_26214" data-name="Trazado 26214" d="M316.409,213.1a2.856,2.856,0,0,0,.58,1.3,11.069,11.069,0,0,0,2.291,2.544,9.086,9.086,0,0,0,2.991,1.683,2.514,2.514,0,0,0,1.415.166,10.049,10.049,0,0,0-1.292-.5,11.8,11.8,0,0,1-2.793-1.737,15.785,15.785,0,0,1-2.32-2.36C316.751,213.523,316.479,213.065,316.409,213.1Z" transform="translate(-316.398 -213.097)" fill="#bc6c56"/>
                  </g>
                </g>
              </g>
              <path id="Trazado_26216" data-name="Trazado 26216" d="M312.538,211.2c-.013-.071-.143-.1-.308-.172a1.656,1.656,0,0,1-.266-.136c-.107-.07-.14-.11-.14-.149a2.046,2.046,0,0,1,0-.324.175.175,0,0,1,.087-.145c.131-.092.276-.152.266-.225s-.126-.145-.388-.112a.536.536,0,0,0-.409.342.977.977,0,0,0-.054.271,1.092,1.092,0,0,0,.006.284.574.574,0,0,0,.189.332.842.842,0,0,0,.245.144,1.017,1.017,0,0,0,.423.071C312.428,211.365,312.552,211.263,312.538,211.2Z" transform="translate(-306.32 -192.141)" fill="#bc6c56"/>
            </g>
            <path id="Trazado_26217" data-name="Trazado 26217" d="M312.295,220.258a47.745,47.745,0,0,0-3.439,7.311c-2.644,7.132-2.937,13.2-3.27,21.453-.133,3.282-.2,7.753.059,13.089a8.792,8.792,0,0,0,2.048.614l3.2.782a10.441,10.441,0,0,1,2.18.533l2.308.564a15.771,15.771,0,0,0,4.069.373,26.972,26.972,0,0,0,8.931-1.626c-.284,0-.557-7.811-.566-8.421-.014-.979,0-1.277-.018-2.1a57.982,57.982,0,0,0-1.016-9.32c-.992-5.474-1.487-8.211-3.008-11.374a28.129,28.129,0,0,0-4.192-6.336,5.2,5.2,0,0,1-3.246.2C314.132,225.368,312.5,223.082,312.295,220.258Z" transform="translate(-304.011 -196.223)" fill="#aee6e6"/>
            <path id="Trazado_26218" data-name="Trazado 26218" d="M333.122,267.42v3.421l-8.565-4.521-2.15,1.071h-3.485v-3.708l2.97,1.775,2.373-1.019Z" transform="translate(-309.328 -213.383)" fill="#344966"/>
            <path id="Trazado_26219" data-name="Trazado 26219" d="M322.379,247.328l-3.456,2.592.648,2.916h3.348l1.3-1.512,8.317,3.24a3.331,3.331,0,0,0,3.546-.864c1.016-1.332.424-3.616-.414-5.077-2.27-3.959-1.343-11.607-5.4-19.766-.648,1.3-.831,2.736-1.479,4.032,1.764,4.429-.826,10.874.939,15.3Z" transform="translate(-309.328 -199.621)" fill="#d08b73"/>
            <path id="Trazado_26220" data-name="Trazado 26220" d="M334.289,262.254a4.469,4.469,0,0,1-2.685.752,5.408,5.408,0,0,1-2.013-.317,3.641,3.641,0,0,1-1.482-1.19c-.412-.48-.9-.922-1.329-1.388l-1.787-1.935c-.51.5-1.124.881-1.64,1.376.272-.261,2.662,1.736,2.937,1.94l2,1.479A4.243,4.243,0,0,0,330.054,264a6.177,6.177,0,0,0,4.163-.49,4.042,4.042,0,0,0,1.272-2.269,6.717,6.717,0,0,0,.189-2.964,8.674,8.674,0,0,1-.209,2.048,3.555,3.555,0,0,1-1,1.772C334.413,262.156,334.352,262.206,334.289,262.254Z" transform="translate(-311.079 -211.207)" fill="#bc6c56"/>
            <path id="Trazado_26221" data-name="Trazado 26221" d="M317.87,252.2s-5.149-2.825-6.677-4.659-2.019-7.287-1.542-7.931,8.857,7.532,8.857,7.532l2.025,3.108Z" transform="translate(-305.594 -203.856)" fill="#344966"/>
            <path id="Trazado_26222" data-name="Trazado 26222" d="M325.574,236.473a43.355,43.355,0,0,1,4.242,3.732,4.142,4.142,0,0,1,.845,2.571c.056.985.139,1.958.22,2.942l-5.979-7.613Z" transform="translate(-311.69 -202.63)" fill="#344966"/>
            <g id="Grupo_15948" data-name="Grupo 15948" transform="translate(5.245 22.415)">
              <path id="Trazado_26223" data-name="Trazado 26223" d="M317.935,228.224a23.072,23.072,0,0,1,7.737,9.677q.044-5.738.088-11.478l-2.87-4.172,1.388-4.673,4.361.7,2.213,3.738-1.021,4.6c.269,2.655.634,6.391,1.028,10.924.342,3.922.634,7.73-1.159,8.916a5.316,5.316,0,0,1-2.372.781,5.43,5.43,0,0,1-1.933-.319c-1.629-.6-6.977-5.472-13.667-12.641Z" transform="translate(-311.73 -217.579)" fill="#d08b73"/>
              <g id="Grupo_15947" data-name="Grupo 15947" clip-path="url(#clip-path-5)">
                <path id="Trazado_26224" data-name="Trazado 26224" d="M329.433,246.208l-6.36,6.416.945.957,5.847-5.915Z" transform="translate(-316.212 -228.893)" fill="#bc6c56"/>
              </g>
            </g>
            <path id="Trazado_26226" data-name="Trazado 26226" d="M317.686,247.837l6.665-6.948c-1.514-3.481-10.65-14.887-14.216-6.988C306.676,241.561,316.1,246.685,317.686,247.837Z" transform="translate(-305.556 -200.535)" fill="#aee6e6"/>
          </g>
          <g id="Grupo_15960" data-name="Grupo 15960" transform="translate(10.005 24.811)">
            <path id="Trazado_26227" data-name="Trazado 26227" d="M243.359,281.54c-.165-.079-.34-.142-.508-.215a12,12,0,0,0-1.774-.717c-.708-.178-1.386-.418-2.088-.608.305-.06.621-.1.922-.172.262-.064.522-.182.784-.263a1.9,1.9,0,0,0,.712-.351.7.7,0,0,0,.263-.692,6.238,6.238,0,0,0-1.223.365c-.433.132-3.078.907-3.97,1.154q-2.282.631-4.474,1.166l-.472.048-.125-.345-6.985.037-9.517-1.487a63.158,63.158,0,0,0-4.6-12.828c-3.311-6.795-5.234-7.562-6.389-7.732a5.475,5.475,0,0,0-5.146,2.3c-1.731,2.709.223,6.608,3.147,12.259,3.6,6.962,5.4,10.444,8.436,12.128,5.734,3.186,12.777,1.447,17.184.359a35.748,35.748,0,0,0,5.084-1.669l-.107-.3,2.28-.067a10.824,10.824,0,0,1,1.687,1.014c.617.454,1.42,1.149,1.42,1.149a1.139,1.139,0,0,0,.967.065c.109-.048.37-.186.4-.318s-.085-.276-.207-.406a6.293,6.293,0,0,0-.916-.8,5.748,5.748,0,0,1-.852-.76,3.156,3.156,0,0,1,1.459-.057,3.907,3.907,0,0,1,1.218.507c.4.235.706.6,1.12.832a2.1,2.1,0,0,0,.911.272.984.984,0,0,0,.781-.36A14.353,14.353,0,0,0,240,283.194c-.429-.219-.846-.4-1.243-.561-.147-.165-.16-.238-.139-.273.1-.174,1.141.242,1.2.264.163.066.346.156.714.337.507.249,1,.514,1.493.783a1.067,1.067,0,0,0,1.4-.214c-.063.045-.779-.5-.858-.552a11.661,11.661,0,0,0-1.436-.8,14.889,14.889,0,0,0-1.871-.737c-.058-.106-.071-.186-.039-.24q.146-.248,1.568.256a7.054,7.054,0,0,0,1.658.518,1.513,1.513,0,0,0,.979-.18C243.6,281.667,243.541,281.628,243.359,281.54Z" transform="translate(-191.028 -236.285)" fill="#718aa7"/>
            <path id="Trazado_26228" data-name="Trazado 26228" d="M221.934,366.935c.722-.259,1.7-.621,1.578-1.626s-2.574-2.193-3.374-2.863c-.061-2.529-.31-4.923-1.776-7.058,0-.007-.066.032-.067,0-.013-.319-.163-.326-.095-.754A5.1,5.1,0,0,1,219.415,353a13.47,13.47,0,0,1,1.4.1c5.971-6.9,10.808-14.1,10.931-23.485a4.82,4.82,0,0,0-.5-2.673c-.944-1.7-2.936-3-4.515-4.212a43.269,43.269,0,0,0-6.446-4.086c-.247-.128-.569-.276-.769-.385a24.9,24.9,0,0,0-4.253-1.719A42.675,42.675,0,0,0,210.2,314.9c-2.3-.481-10.484-1.618-11.9-1.591s-.573,3.443-.638,3.667c-.614,2.132,0,3.467.218,5.347.018.149-.036.16.042.389.016.049-.1-.273.156.1,1.071,1.569.745,2.7,2.949,4.228,3.364,2.326,9.4.98,13.961,1.642a21.511,21.511,0,0,1,6.645,2.842c-.673,3.47-1.617,4.336-3.176,8.239-.809,2.027-5.469,10.48-5.95,12.351s1.3-.413,1.262.61c-.3.669-.719,1.634-1.129,2.384a14.131,14.131,0,0,0-3.574,4.58c.593.279,1.887.881,2.316,1.087s.05.05.288.166c.038.019,0-.03.013-.025.262.12.49.248.751.373.109-.5.66-.338.956-.179a6.569,6.569,0,0,1,2.433,2.115c.595.893.532,2,1.311,2.705a4.72,4.72,0,0,0,2.569,1.239A4.6,4.6,0,0,0,221.934,366.935Z" transform="translate(-190.739 -257.805)" fill="#6550af"/>
            <g id="Grupo_15950" data-name="Grupo 15950" transform="translate(0.58 57.378)">
              <path id="Trazado_26229" data-name="Trazado 26229" d="M188.023,326.4s10.027,3.946,15.7,4.7,9.5-.709,10.581-.435,4.3,9,7.766,12.414,13.288,10.771,14.4,11.815,2.825,5.388,2.825,5.388l2.43-.863-.5-1.241s8.319-3.7,9.123-4.9,1.645-5.488.409-6.888-2.231,3.63-3.734,4.239-6.948.363-8.53-.149-16.1-24.272-18.032-25.5-14.7-5.7-17.648-5.655-14.267-1.684-14.267-1.684Z" transform="translate(-187.616 -316.892)" fill="#b0c0d2"/>
              <path id="Trazado_26230" data-name="Trazado 26230" d="M205.681,331.741c3.42-.01,6.261.163,8.245.327a68.571,68.571,0,0,0,4.753,8.414c.961,1.322,13.774,13.372,14.06,13.006l4.759-6.095c-5.354-7.508-10.629-15.08-16.139-22.471a9.189,9.189,0,0,0-1.831-2.006c-1.334-.977-3.861-1.061-5.5-1.478-2.107-.535-4.219-1.048-6.331-1.559-2.8-.677-5.728-1.17-8.463-2.079-1.4-.464-11.392-1.386-11.461-1.392.222.021-.236,3.682-.272,3.956a11.666,11.666,0,0,0,.394,5.564,10.3,10.3,0,0,0,2.884,4.493C193.717,332.889,197.207,331.766,205.681,331.741Z" transform="translate(-187.351 -316.407)" fill="#7d6eb2"/>
              <path id="Trazado_26231" data-name="Trazado 26231" d="M268.122,373.147c.973-.659,2.948-4.271,2.948-4.271l7.756-1.032s2.011-4.275,2.822-4.011c1,.326,1.213.785,1.418,1.785a8.147,8.147,0,0,1,.106,2.57,8.239,8.239,0,0,1-1.407,3.753c-.79,1.13-2.163,1.306-3.316,1.978-1.261.736-2.522,1.5-3.808,2.211-.379.209-.9.622-.455,1.058l-3.258,1.785Z" transform="translate(-219.27 -335.144)" fill="#00223d"/>
            </g>
            <g id="Grupo_15953" data-name="Grupo 15953" transform="translate(10.732 14.499)">
              <path id="Trazado_26232" data-name="Trazado 26232" d="M208.254,245.513l-4.118,7.6,6.775,5.517a8.535,8.535,0,0,1-.448-4.079,8.821,8.821,0,0,1,2.858-5.277Z" transform="translate(-204.136 -245.513)" fill="#d08b73"/>
              <g id="Grupo_15952" data-name="Grupo 15952" clip-path="url(#clip-path-6)">
                <g id="Grupo_15951" data-name="Grupo 15951" transform="translate(5.57 1.234)" opacity="0.5" style="mix-blend-mode: multiply;isolation: isolate">
                  <path id="Trazado_26233" data-name="Trazado 26233" d="M213.517,247.558c-.361.1-.182,1.847.824,3.719a8.236,8.236,0,0,0,1.624,2.189c.58.514,1.127.558,1.193.384s-.174-.472-.444-1-.7-1.361-1.159-2.217C214.624,248.9,213.888,247.451,213.517,247.558Z" transform="translate(-213.345 -247.553)" fill="#ee5f43"/>
                </g>
              </g>
            </g>
            <g id="Grupo_15955" data-name="Grupo 15955" transform="translate(0 19.808)">
              <path id="Trazado_26235" data-name="Trazado 26235" d="M203.778,261.121c-.584-.864-1.217-1.751-1.9-2.653-1.178-1.547-2.361-2.936-3.507-4.177-4.958.205-7.475,1.95-8.757,3.2-2.7,2.632-3.392,6.36-3.181,21.41.079,5.619.194,10.278.287,13.549a12.823,12.823,0,0,0,19.348-1.009c-.171-4.3-.386-7.782-.55-10.154-.368-5.32-.5-8.365-.887-12.433C204.322,265.61,204.006,262.941,203.778,261.121Z" transform="translate(-186.392 -254.291)" fill="#b0c0d2"/>
              <g id="Grupo_15954" data-name="Grupo 15954" clip-path="url(#clip-path-7)">
                <path id="Trazado_26236" data-name="Trazado 26236" d="M192.329,265.344a11.96,11.96,0,0,0-.125,1.254c.009,1.147-.023,2.294-.005,3.44a24.862,24.862,0,0,0,.983,5.466,17.674,17.674,0,0,0,1.863,4.6,41.064,41.064,0,0,0,2.344,3.728,22.757,22.757,0,0,0,2.162,2.619,15.646,15.646,0,0,0,4.508,3.115,17.984,17.984,0,0,0,6,1.194,13.924,13.924,0,0,1,2.58.147" transform="translate(-188.685 -258.659)" fill="#00223d" stroke="#031d31" stroke-miterlimit="10" stroke-width="1.464"/>
                <path id="Trazado_26237" data-name="Trazado 26237" d="M199.751,261.6a12.333,12.333,0,0,0,2.133,1.722,7.652,7.652,0,0,1,1.407,1.651A47.489,47.489,0,0,1,209.7,278.6c.163.566.316,1.138.484,1.7a11.075,11.075,0,0,0,.391,1.562.884.884,0,0,1,.153.6" transform="translate(-191.671 -257.18)" fill="#00223d" stroke="#031d31" stroke-miterlimit="10" stroke-width="1.772"/>
              </g>
            </g>
            <g id="Grupo_15958" data-name="Grupo 15958" transform="translate(12.854)">
              <g id="Grupo_15956" data-name="Grupo 15956">
                <path id="Trazado_26239" data-name="Trazado 26239" d="M210.633,237.593c-.353.076-1.011-1.055-1.245-1.287-.8-.8-1.529-1.27-1.7-2.505a12.259,12.259,0,0,1,.232-2.933,19.718,19.718,0,0,1,.5-3.133,8.21,8.21,0,0,1,3.866-5.348c3.614-1.978,11.524-.42,11.145,3.943a17.6,17.6,0,0,1-1.321,6.586s-5.193,4.064-6.567,3.99A29.794,29.794,0,0,0,210.633,237.593Z" transform="translate(-207.645 -221.541)" fill="#12263f"/>
                <path id="Trazado_26240" data-name="Trazado 26240" d="M223.979,231.652a36.977,36.977,0,0,1-.875,6.327,2.341,2.341,0,0,0-.134,1.692,9.212,9.212,0,0,1,.914,2.365c-.072.354-1.024.66-1.333.429s-1.106-.776-1.106-.776a51.016,51.016,0,0,1-2.618,4.649,2.346,2.346,0,0,1-2.86-.014c-.694-.6-3.68-3.258-4.149-5.466a8.488,8.488,0,0,1-.218-3.292s-1.287-2.067-.321-3.235a1.972,1.972,0,0,1,2.552-.659c.557.274,1.046,1.393,1.046,1.393s2.883-2.162,3.069-3.224-.068-.98-.068-.98a6.514,6.514,0,0,0,3.05,1.175A27.688,27.688,0,0,0,223.979,231.652Z" transform="translate(-208.939 -225.223)" fill="#d08b73"/>
              </g>
              <g id="Grupo_15957" data-name="Grupo 15957" transform="translate(2.795 9.344)" opacity="0.5" style="mix-blend-mode: multiply;isolation: isolate">
                <path id="Trazado_26241" data-name="Trazado 26241" d="M212.92,238.8c.026-.068-.209-.153-.255-.362a.974.974,0,0,1,1.361-.923c.246.166.494.258.516.183s-.076-.186-.311-.454a1.159,1.159,0,0,0-1.424-.028,1.136,1.136,0,0,0-.45,1.363.543.543,0,0,0,.395.267C212.858,238.852,212.913,238.834,212.92,238.8Z" transform="translate(-212.266 -236.99)" fill="#ee5f43"/>
              </g>
            </g>
            <g id="Grupo_15959" data-name="Grupo 15959" transform="translate(2.089 23.27)">
              <path id="Trazado_26242" data-name="Trazado 26242" d="M241.989,298.082l5.106-.149a10.768,10.768,0,0,1,1.686,1.014c.617.454,1.42,1.149,1.42,1.149a1.136,1.136,0,0,0,.967.065c.109-.048.37-.186.4-.318s-.085-.276-.208-.406a6.3,6.3,0,0,0-.916-.8,5.743,5.743,0,0,1-.852-.76,3.157,3.157,0,0,1,1.459-.057,3.908,3.908,0,0,1,1.218.507c.4.235.705.6,1.12.832a2.1,2.1,0,0,0,.911.271.984.984,0,0,0,.781-.36,14.371,14.371,0,0,0-2.784-1.859c-.43-.219-.846-.4-1.244-.561-.147-.165-.16-.238-.139-.273.1-.174,1.141.242,1.2.264.163.066.346.156.714.337.507.249,1,.514,1.493.783a1.067,1.067,0,0,0,1.4-.214c-.063.045-.779-.5-.858-.551a11.647,11.647,0,0,0-1.436-.8,14.97,14.97,0,0,0-1.871-.737c-.058-.106-.071-.186-.039-.24q.146-.248,1.568.256a7.056,7.056,0,0,0,1.658.518,1.514,1.514,0,0,0,.979-.18c.176-.133.12-.172-.063-.26-.165-.079-.341-.142-.508-.215a11.992,11.992,0,0,0-1.774-.718c-.708-.178-1.386-.418-2.088-.608.305-.06.621-.1.922-.172.262-.064.522-.181.784-.263a1.9,1.9,0,0,0,.712-.351.705.705,0,0,0,.263-.692,6.237,6.237,0,0,0-1.223.365c-.433.132-3.078.907-3.97,1.154q-2.282.631-4.474,1.166l-2.393.244Z" transform="translate(-210.42 -272.866)" fill="#d08b73"/>
              <path id="Trazado_26243" data-name="Trazado 26243" d="M190.5,262.366c-1.731,2.709.223,6.608,3.147,12.259,3.6,6.962,5.4,10.444,8.436,12.128,5.734,3.186,12.778,1.447,17.185.359a35.69,35.69,0,0,0,5.084-1.669l-1.217-3.371-6.985.038-9.517-1.487a63.155,63.155,0,0,0-4.6-12.828c-3.311-6.795-5.234-7.562-6.389-7.733A5.478,5.478,0,0,0,190.5,262.366Z" transform="translate(-189.846 -260.014)" fill="#b0c0d2"/>
            </g>
          </g>
          <g id="Grupo_15961" data-name="Grupo 15961" transform="translate(0 52.435)">
            <rect id="Rectángulo_4018" data-name="Rectángulo 4018" width="27.526" height="5.257" rx="2.085" transform="translate(9.105 45.025)" fill="#f6c343"/>
            <path id="Trazado_26244" data-name="Trazado 26244" d="M173.926,295.584c0-4.474.114-8.89-.056-13.344a48.011,48.011,0,0,1,.34-8.838c.189-1.286,1.05-7.158,3.6-6.051.492.214.712.911.8,1.239l-.339,26.994a1.967,1.967,0,0,1-1.755,2.125h-.831A1.967,1.967,0,0,1,173.926,295.584Z" transform="translate(-171.416 -267.214)" fill="#f6c343"/>
            <path id="Trazado_26245" data-name="Trazado 26245" d="M173.812,289.081v28.246a8.579,8.579,0,0,0,8.579,8.579h21.133" transform="translate(-171.416 -275.855)" fill="none" stroke="#00223d" stroke-linecap="round" stroke-linejoin="round" stroke-width="1.5"/>
            <rect id="Rectángulo_4019" data-name="Rectángulo 4019" width="2.141" height="30.677" transform="translate(20.066 50.283)" fill="#00223d" stroke="#00223d" stroke-linecap="round" stroke-linejoin="round" stroke-width="1"/>
            <rect id="Rectángulo_4020" data-name="Rectángulo 4020" width="5.567" height="10.491" transform="translate(18.354 64.301)" fill="#00223d" stroke="#00223d" stroke-linecap="round" stroke-linejoin="round" stroke-width="1"/>
            <path id="Trazado_26246" data-name="Trazado 26246" d="M211.293,398.068a33.8,33.8,0,0,0-37.481,0V396.33a34.884,34.884,0,0,1,37.481,0Z" transform="translate(-171.416 -316.079)" fill="#00223d" stroke="#00223d" stroke-linecap="round" stroke-linejoin="round" stroke-width="1"/>
            <path id="Trazado_26247" data-name="Trazado 26247" d="M174.643,401.206a2.4,2.4,0,1,0-2.4,2.4A2.4,2.4,0,0,0,174.643,401.206Z" transform="translate(-169.85 -319.217)" fill="#00223d" stroke="#00223d" stroke-linecap="round" stroke-linejoin="round" stroke-width="1"/>
            <circle id="Elipse_1069" data-name="Elipse 1069" cx="2.397" cy="2.397" r="2.397" transform="translate(37.481 79.592)" fill="#00223d" stroke="#00223d" stroke-linecap="round" stroke-linejoin="round" stroke-width="1"/>
            <circle id="Elipse_1070" data-name="Elipse 1070" cx="2.263" cy="2.263" r="2.263" transform="translate(18.874 79.726)" fill="#00223d" stroke="#00223d" stroke-linecap="round" stroke-linejoin="round" stroke-width="1"/>
          </g>
          <g id="Grupo_15962" data-name="Grupo 15962" transform="translate(46.357 76.775)">
            <line id="Línea_492" data-name="Línea 492" y1="56.901" x2="39.407" transform="translate(13.519 3.145)" fill="none" stroke="#b0c0d2" stroke-linecap="round" stroke-linejoin="round" stroke-width="2.916"/>
            <line id="Línea_493" data-name="Línea 493" x2="38.189" y2="56.901" transform="translate(14.127 3.145)" fill="none" stroke="#b0c0d2" stroke-linecap="round" stroke-linejoin="round" stroke-width="2.916"/>
            <rect id="Rectángulo_4021" data-name="Rectángulo 4021" width="66.443" height="6.289" rx="2.838" transform="translate(0)" fill="#eff4ef"/>
            <path id="Trazado_26248" data-name="Trazado 26248" d="M310.047,313.8H249.389a2.888,2.888,0,0,1-2.842-2.393,2.915,2.915,0,0,0-.051.5v.5a2.893,2.893,0,0,0,2.893,2.893h60.658a2.893,2.893,0,0,0,2.893-2.893v-.5a2.852,2.852,0,0,0-.051-.5A2.888,2.888,0,0,1,310.047,313.8Z" transform="translate(-246.496 -309.019)" fill="#b0c0d2"/>
          </g>
          <rect id="Rectángulo_4022" data-name="Rectángulo 4022" width="3.12" height="29.193" rx="1.306" transform="translate(75.921 34.908) rotate(8.154)" fill="#12263f"/>
          <rect id="Rectángulo_4023" data-name="Rectángulo 4023" width="1.868" height="25.53" rx="0.916" transform="matrix(0.966, -0.259, 0.259, 0.966, 75.186, 51.277)" fill="#12263f"/>
          <rect id="Rectángulo_4024" data-name="Rectángulo 4024" width="10.139" height="3.01" rx="1.476" transform="translate(76.649 73.631)" fill="#12263f"/>
          <rect id="Rectángulo_4025" data-name="Rectángulo 4025" width="16.92" height="1.505" rx="0.738" transform="translate(51.013 75.137)" fill="#12263f"/>
          <g id="Grupo_15976" data-name="Grupo 15976" transform="translate(164.058 17.165)">
            <path id="Trazado_26249" data-name="Trazado 26249" d="M481.641,287.925s-5.653,25.777-6.576,29.609-4.9,24.089-4.9,24.089l5.5,1.816s4.828-10.353,5.352-12.859-.273-8.137,1.092-10.411,7.357-14.916,7.357-14.916l-.4-17.564Z" transform="translate(-452.584 -240.035)" fill="#b0c0d2"/>
            <g id="Grupo_15969" data-name="Grupo 15969" transform="translate(34.108 47.654)">
              <path id="Trazado_26250" data-name="Trazado 26250" d="M498.211,293.59s.018,20.265.745,23.875,10.232,21.893,10.232,21.893l1.853,2.679,4.588-2.679a87.251,87.251,0,0,0-2.907-12.732c-1.874-5.614-4.757-8.047-4.286-10.227a73.247,73.247,0,0,0,.753-16.57c-.6-5.624-2.033-12.14-2.033-12.14l-9.662.183Z" transform="translate(-497.492 -287.689)" fill="#b0c0d2"/>
              <g id="Grupo_15968" data-name="Grupo 15968" clip-path="url(#clip-path-8)">
                <path id="Trazado_26251" data-name="Trazado 26251" d="M519.825,339.145s-2.226-8.426-3.021-10.176-4.77-8.586-4.77-10.017,1.272-7.632,1.272-10.811-2.909-14.154-2.909-14.154" transform="translate(-502.592 -290.178)" fill="none" stroke="#12263f" stroke-miterlimit="10" stroke-width="0.516"/>
                <g id="Grupo_15963" data-name="Grupo 15963" transform="translate(4.337 4.031)">
                  <path id="Trazado_26252" data-name="Trazado 26252" d="M504.76,294.354a1.162,1.162,0,0,0-.069.4,3.407,3.407,0,0,0,.037,1.109c.087.45.135,1,.289,1.606a6.985,6.985,0,0,0,.754,1.874,5.166,5.166,0,0,0,2.8,2.3,4.556,4.556,0,0,0,1.086.229,1.006,1.006,0,0,0,.406-.01,13.746,13.746,0,0,1-1.427-.4A5.291,5.291,0,0,1,506,299.207a7.3,7.3,0,0,1-.745-1.8c-.161-.578-.23-1.127-.343-1.581a4.072,4.072,0,0,1-.118-1.068A1.227,1.227,0,0,0,504.76,294.354Z" transform="translate(-504.663 -294.354)" fill="#12263f"/>
                </g>
                <g id="Grupo_15964" data-name="Grupo 15964" transform="translate(-1.913 3.691)">
                  <path id="Trazado_26253" data-name="Trazado 26253" d="M494.332,293.82c-.013-.007.011.2.292.34a2.715,2.715,0,0,0,1.207.129c1.011-.015,2.41-.053,3.953-.111s2.94-.127,3.95-.19a9.889,9.889,0,0,0,1.631-.157,9.978,9.978,0,0,0-1.641-.032c-1.011.014-2.408.052-3.949.111s-2.936.126-3.946.189a3.023,3.023,0,0,1-1.163-.035C494.41,293.974,494.354,293.8,494.332,293.82Z" transform="translate(-494.329 -293.792)" fill="#12263f"/>
                </g>
                <g id="Grupo_15965" data-name="Grupo 15965" transform="translate(-3.317 1.938)">
                  <path id="Trazado_26254" data-name="Trazado 26254" d="M492.007,291.361a13.359,13.359,0,0,0,1.854-.011l4.467-.142,4.468-.116a13.355,13.355,0,0,0,1.851-.1,1.824,1.824,0,0,0-.5-.053c-.32-.017-.783-.031-1.356-.04-1.145-.018-2.728-.013-4.474.038s-3.327.136-4.469.221c-.571.042-1.032.083-1.351.119A1.779,1.779,0,0,0,492.007,291.361Z" transform="translate(-492.007 -290.893)" fill="#12263f"/>
                </g>
                <g id="Grupo_15966" data-name="Grupo 15966" transform="translate(5.787 1.824)">
                  <path id="Trazado_26255" data-name="Trazado 26255" d="M507.15,290.7a4.605,4.605,0,0,0,.109,2.207,2.353,2.353,0,0,0,.08-1.11C507.308,291.187,507.224,290.7,507.15,290.7Z" transform="translate(-507.06 -290.705)" fill="#12263f"/>
                </g>
                <g id="Grupo_15967" data-name="Grupo 15967" transform="translate(2.61 1.289)">
                  <path id="Trazado_26256" data-name="Trazado 26256" d="M501.887,289.821a7.717,7.717,0,0,0,.145,2.861,7.717,7.717,0,0,0-.145-2.861Z" transform="translate(-501.807 -289.821)" fill="#12263f"/>
                </g>
              </g>
            </g>
            <path id="Trazado_26258" data-name="Trazado 26258" d="M518.823,363.655l-8.87,5.064s3.476,9.261,3.415,12.3c-.095,4.777-8.463,4.871-7.748,8.866.105.587,3.789.073,6.557.318s4.878-.95,5.13-2.584,2.448-2.5,2.448-2.5l.771,3.1,2.843-1.474Z" transform="translate(-466.579 -270.055)" fill="#12263f"/>
            <path id="Trazado_26259" data-name="Trazado 26259" d="M466.941,371.592,456.912,368.2s-1.541,12.3-3.92,14.2c-5.167,4.123-12.56,5-11.845,7.939.141.579,1.328,1.34,5.367,1.153,1.309-.061,5.244-.155,6.322-1.407s3.4-.827,3.4-.827l-.067,2.512,6.148-.08C462.136,386.267,464.616,379.223,466.941,371.592Z" transform="translate(-441.098 -271.85)" fill="#12263f"/>
            <g id="Grupo_15974" data-name="Grupo 15974" transform="translate(37.751 0.505)">
              <path id="Trazado_26260" data-name="Trazado 26260" d="M511.575,217.842c-.979-.453-4.289-1.441-4.479-2.571a1.759,1.759,0,0,1,.131-.867c2.007-5.63,10.005-5.613,14.264-2.877a5.37,5.37,0,0,0,4.179.974c1.612-.278,3.135-.979,4.759-1.17a8.822,8.822,0,0,1,8.784,5.476c1.66,4.31-1.429,7.764-1.774,11.96a8.265,8.265,0,0,0,.4,3.917c.366.847.579,1.056-.5,1.3a7.165,7.165,0,0,1-2.231.03,7.408,7.408,0,0,1-3.322-.9c-1.826-1.156-1.751-3.037-2.021-4.918-.377-2.632-.651-5.278-1.035-7.911-.193-1.325-1.49-4.836-3-5.02-1.772-.18-1.605.273-1.605.273.419,1.12.077,3.459-.156,4.6a10.089,10.089,0,0,1-8.671,8.041c-1.638.188-3.574-.959-5.13-1.511l2.307-6Z" transform="translate(-504.924 -209.734)" fill="#12263f"/>
              <g id="Grupo_15971" data-name="Grupo 15971" transform="translate(0 3.1)">
                <path id="Trazado_26261" data-name="Trazado 26261" d="M506.319,217.614c-.2.534-.486,1.36-.6,1.56a23.758,23.758,0,0,0-2.156,1.8c-.284.482.844.847.844.847-.031-.013-.688,2.355-.706,2.59a3.252,3.252,0,0,0,1.57,2.716,3.341,3.341,0,0,0,3.392,0c-.264.963-.543,1.921-.82,2.88l4.749,1.725a22.291,22.291,0,0,1,.7-4.568c.485-1.132,1.568-4.083,1.568-4.083a1.227,1.227,0,0,0,.977-.311c.514-.416.777-1.761-.057-2.081a1.145,1.145,0,0,0-1.528.574c-.618-.082-1.141-1.557-1.339-2.024-.619-1.468-.247-2.9.055-4.384-.033.16-.943.473-1.093.6a3.845,3.845,0,0,0-1,1.824,9.742,9.742,0,0,0-.249,1.02c-.142.729.04,1.129-.859.856A18.18,18.18,0,0,1,506.319,217.614Z" transform="translate(-503.514 -214.86)" fill="#d08b73"/>
                <g id="Grupo_15970" data-name="Grupo 15970" clip-path="url(#clip-path-9)">
                  <path id="Trazado_26262" data-name="Trazado 26262" d="M514.994,231.333a121.44,121.44,0,0,1-5.466,3.325,9.833,9.833,0,0,0,5.466-3.325Z" transform="translate(-505.89 -221.367)" fill="#bc6c56"/>
                  <path id="Trazado_26263" data-name="Trazado 26263" d="M522.283,226.276c-.043,0-.026.2.214.278a.5.5,0,0,0,.414-.052.738.738,0,0,0,.257-.9.357.357,0,0,0-.21-.178.373.373,0,0,0-.212.005c-.2.088-.285.173-.264.209s.145.036.3.016c.088.007.1.022.118.076a.519.519,0,0,1-.012.279.373.373,0,0,1-.348.316C522.4,226.335,522.325,226.257,522.283,226.276Z" transform="translate(-510.924 -219.031)" fill="#bc6c56"/>
                  <path id="Trazado_26264" data-name="Trazado 26264" d="M515.912,212.947a4.791,4.791,0,0,0-1.452.932,4.911,4.911,0,0,0-.636.612c-.107.12-.222.24-.332.373a3.49,3.49,0,0,0-.267.461c-.159.325-.288.667-.423,1.029-.068.181-.136.364-.206.55a3.535,3.535,0,0,0-.138.6c-.06.4-.163.748-.457.851a1.362,1.362,0,0,1-.954-.112,5.774,5.774,0,0,1-1.565-.913,3.14,3.14,0,0,0-1.106-.639c-.3-.076-.476-.018-.472,0s.169.018.434.123a3.606,3.606,0,0,1,1,.7,5.517,5.517,0,0,0,1.6,1.012,1.621,1.621,0,0,0,1.178.13.9.9,0,0,0,.5-.474,2.473,2.473,0,0,0,.166-.617A3.274,3.274,0,0,1,512.9,217l.2-.54c.128-.353.253-.7.394-1.009a3.3,3.3,0,0,1,.234-.43l.3-.356a5.152,5.152,0,0,1,.584-.616C515.381,213.34,515.94,212.991,515.912,212.947Z" transform="translate(-505.249 -214.103)" fill="#bc6c56"/>
                </g>
              </g>
              <g id="Grupo_15972" data-name="Grupo 15972" transform="translate(31.44 4.53)">
                <path id="Trazado_26266" data-name="Trazado 26266" d="M561.965,235.934a5.131,5.131,0,0,0-.754-.4,5.89,5.89,0,0,1-1.727-1.467,6.512,6.512,0,0,1-1.342-3.037,9.464,9.464,0,0,1,.269-4.093c.2-.71.46-1.409.614-2.13a6.906,6.906,0,0,0,.109-2.121,7.372,7.372,0,0,0-1.2-3.337,6.618,6.618,0,0,0-1.658-1.711,2,2,0,0,0-.771-.407,10.877,10.877,0,0,1,2.1,2.326,7.371,7.371,0,0,1,1.029,3.175,6.658,6.658,0,0,1-.13,1.96c-.15.67-.409,1.355-.618,2.1a9.55,9.55,0,0,0-.238,4.331,6.619,6.619,0,0,0,1.543,3.2,5.353,5.353,0,0,0,1.929,1.409A1.821,1.821,0,0,0,561.965,235.934Z" transform="translate(-555.497 -217.225)" fill="#282e5b"/>
              </g>
              <g id="Grupo_15973" data-name="Grupo 15973" transform="translate(7.457 11.535)">
                <path id="Trazado_26267" data-name="Trazado 26267" d="M515.844,232.978c.011.05.365.034.9-.16a5.111,5.111,0,0,0,2.986-3.106c.173-.541.175-.9.125-.905a7.412,7.412,0,0,1-4.01,4.172Z" transform="translate(-515.844 -228.806)" fill="#282e5b"/>
              </g>
            </g>
            <g id="Grupo_15975" data-name="Grupo 15975" transform="translate(11.258)">
              <path id="Trazado_26268" data-name="Trazado 26268" d="M533.383,290.739s-5.146,14.418-4.911,17.365,3.143,4.675,3.261,5.5c.076.533-.893,1.121-1.355.957a1.261,1.261,0,0,1-.439-.323c-.639-.633-1.251-1.331-1.934-1.916-.4-.345-.57-.375-.527.154.025.3.193,1.987-.065,2.169-.2.137-.636.491-.672-.039s-.507-5.206-.389-6.384a31.509,31.509,0,0,0,0-3.449c-.016-1.526.033-3.042.167-4.566a54.394,54.394,0,0,1,.831-5.822c.35-1.764.628-3.735,1.7-5.231C530.869,286.614,533.383,290.739,533.383,290.739Z" transform="translate(-486.038 -240.287)" fill="#d08b73"/>
              <path id="Trazado_26269" data-name="Trazado 26269" d="M518.128,251.136a69.777,69.777,0,0,1,.5,10.326c-.048,1.837-.166,3.584-.334,5.229a12.412,12.412,0,0,1,3.735,1.519c1.825,1.129,2.408,2.187,4.278,3.03a9.128,9.128,0,0,0,2.9.757,50.544,50.544,0,0,0-2.3-17.3c-1.879-5.848-4-8.472-5.142-9.725a21.519,21.519,0,0,0-5.071-4.076q-.077.1-.147.195C514.66,243.766,516.592,248.3,518.128,251.136Z" transform="translate(-481.862 -221.544)" fill="#f5ca56"/>
              <path id="Trazado_26270" data-name="Trazado 26270" d="M467.876,226.833s-4.333-5.6-4.569-7.01a18.519,18.519,0,0,1-.275-3.339c.039-.413.52-1.611.653-2.475a3.841,3.841,0,0,0-.663-2.141c-.088-.138.069-2.632-.226-2.868s-.884-.315-.746,2.809c-1.551-.275-2.318-.137-2.338.982a17.867,17.867,0,0,0,1.061,3.988,21.012,21.012,0,0,0,.452,3.182c.334,1.3,1.716,8.4,4.954,11.185C468.591,230.47,467.876,226.833,467.876,226.833Z" transform="translate(-459.712 -208.899)" fill="#d08b73"/>
              <path id="Trazado_26271" data-name="Trazado 26271" d="M494.989,238.245a15.054,15.054,0,0,0-1.693-.343,26.161,26.161,0,0,0-5.606-.092c-1.566.112-3,.02-4.562-.016-1.994-.047-3.988-.1-5.978-.214a17.816,17.816,0,0,1-3.527-.36c-2.63-.7-3.04-1.487-4.164-1.257-1.5.307-1.936,2.124-3.553,5.01a33.385,33.385,0,0,1-4,5.646,75.629,75.629,0,0,0,12.277,1.762,18.492,18.492,0,0,0,6.1-.161h0s.3.825.606,1.964a26.548,26.548,0,0,1,.665,3.85c.186,2.165-.679,7.71-3.816,14.32a13.725,13.725,0,0,1,3.906-.585c3.036-.007,4.461.973,7.865,1.222a20.336,20.336,0,0,0,4.37-.159c.059-.912.641-1.54.6-2.365-.047-.876-.324-1.877.123-2.643.18-.308-.306-1.257-.03-2.033a34.023,34.023,0,0,1,3.8-7.128,23.687,23.687,0,0,0,2.793-5.148c1-2.44,1.242-5.171-.3-7.449A10.023,10.023,0,0,0,494.989,238.245Z" transform="translate(-460.579 -219.578)" fill="#f5ca56"/>
            </g>
            <path id="Trazado_26272" data-name="Trazado 26272" d="M492.3,255.2a23.759,23.759,0,0,0,4.549-1.608c-3.129,3.288-2.991,7.315-3.349,9.581C492.921,256.51,492.3,255.2,492.3,255.2Z" transform="translate(-461.331 -226.563)" fill="#dbb348"/>
          </g>
        </g>
        <line id="Línea_498" data-name="Línea 498" x2="284.903" transform="translate(0 180.821)" fill="none" stroke="#00223d" stroke-linecap="round" stroke-linejoin="round" stroke-width="5.023"/>
      </g>
    </g>
  </g>
</svg>
