<svg xmlns="http://www.w3.org/2000/svg" xmlns:xlink="http://www.w3.org/1999/xlink" width="123.833" height="123.833" viewBox="0 0 123.833 123.833">
  <defs>
    <radialGradient id="radial-gradient" cx="0.076" cy="0.019" r="1.465" gradientTransform="translate(0.001)" gradientUnits="objectBoundingBox">
      <stop offset="0" stop-color="#f6f6f7"/>
      <stop offset="0.477" stop-color="#f9f9fa"/>
      <stop offset="0.715" stop-color="#fff"/>
    </radialGradient>
  </defs>
  <g id="Grupo_46893" data-name="Grupo 46893" transform="translate(0 0.001)">
    <g id="Grupo_18531" data-name="Grupo 18531" transform="translate(0 0)">
      <g id="Grupo_18423" data-name="Grupo 18423" transform="translate(0 0)">
        <g id="Grupo_18421" data-name="Grupo 18421">
          <g id="Grupo_18420" data-name="Grupo 18420">
            <g id="Grupo_18419" data-name="Grupo 18419">
              <path id="Trazado_40936" data-name="Trazado 40936" d="M318.456,2207.635a61.916,61.916,0,1,1-61.915-61.915A61.915,61.915,0,0,1,318.456,2207.635Z" transform="translate(-194.623 -2145.721)" fill="#fff"/>
            </g>
          </g>
        </g>
        <path id="Trazado_40937" data-name="Trazado 40937" d="M317.728,2206.843a61.915,61.915,0,1,0-61.915,61.918A61.672,61.672,0,0,0,317.728,2206.843Z" transform="translate(-193.895 -2144.928)" fill="url(#radial-gradient)"/>
        <path id="Trazado_40938" data-name="Trazado 40938" d="M296.6,2200.4a47.26,47.26,0,1,0-47.26,47.26A47.084,47.084,0,0,0,296.6,2200.4Z" transform="translate(-187.238 -2138.278)" fill="none" stroke="#7d6eb2" stroke-miterlimit="10" stroke-width="4"/>
        <g id="Grupo_18422" data-name="Grupo 18422" transform="translate(10.969 34.762)">
          <path id="Trazado_40939" data-name="Trazado 40939" d="M307.148,2164.488a61.924,61.924,0,0,1-106.6,61.66,61.727,61.727,0,0,0,106.6-61.66Z" transform="translate(-200.545 -2164.488)" fill="#eceef0"/>
        </g>
      </g>
    </g>
    <g id="Grupo_42970" data-name="Grupo 42970" transform="translate(38.262 33.148)">
      <g id="Grupo_26570" data-name="Grupo 26570" transform="translate(0 0)">
        <g id="Grupo_26568" data-name="Grupo 26568">
          <g id="Grupo_26567" data-name="Grupo 26567">
            <g id="Grupo_26566" data-name="Grupo 26566">
              <g id="Grupo_26564" data-name="Grupo 26564">
                <path id="Trazado_67407" data-name="Trazado 67407" d="M2770.836,1900.876a1.628,1.628,0,0,1-1-.323,52.283,52.283,0,0,1-4.958-4.574,61.731,61.731,0,0,1-6.843-8.5,53.864,53.864,0,0,1-6.074-12.076,47.8,47.8,0,0,1-1.92-7.271,46.259,46.259,0,0,1-.733-8.036.858.858,0,0,1,.3-.632,1.519,1.519,0,0,1,.77-.352,66.857,66.857,0,0,0,8.893-2.243,37.993,37.993,0,0,0,10.917-5.211,1.152,1.152,0,0,1,1.3,0,38,38,0,0,0,10.917,5.211,66.823,66.823,0,0,0,8.893,2.243,1.515,1.515,0,0,1,.769.352.858.858,0,0,1,.3.632,46.354,46.354,0,0,1-.732,8.036,47.857,47.857,0,0,1-1.92,7.271,53.894,53.894,0,0,1-6.074,12.076,61.751,61.751,0,0,1-6.843,8.5,52.269,52.269,0,0,1-4.959,4.574A1.626,1.626,0,0,1,2770.836,1900.876Z" transform="translate(-2748.742 -1850.907)" fill="none"/>
                <path id="Trazado_67408" data-name="Trazado 67408" d="M2769.3,1899.927a2.2,2.2,0,0,1-1.354-.445,53.041,53.041,0,0,1-5.013-4.625,62.151,62.151,0,0,1-6.905-8.576,54.389,54.389,0,0,1-6.138-12.2,48.5,48.5,0,0,1-1.943-7.357,46.947,46.947,0,0,1-.74-8.134,1.41,1.41,0,0,1,.486-1.05,2.078,2.078,0,0,1,1.057-.49,66.39,66.39,0,0,0,8.811-2.223,37.478,37.478,0,0,0,10.754-5.126,1.76,1.76,0,0,1,1.974,0,37.481,37.481,0,0,0,10.754,5.126,66.337,66.337,0,0,0,8.811,2.223,2.072,2.072,0,0,1,1.055.49,1.41,1.41,0,0,1,.487,1.05,46.824,46.824,0,0,1-.742,8.134,48.344,48.344,0,0,1-1.942,7.357,54.447,54.447,0,0,1-6.137,12.2,62.285,62.285,0,0,1-6.905,8.576,53.19,53.19,0,0,1-5.014,4.625A2.2,2.2,0,0,1,2769.3,1899.927Zm0-49.417a.53.53,0,0,0-.312.088,38.557,38.557,0,0,1-11.081,5.3,67.454,67.454,0,0,1-8.975,2.263.967.967,0,0,0-.482.212.318.318,0,0,0-.119.215,45.774,45.774,0,0,0,.724,7.937,47.146,47.146,0,0,0,1.9,7.186,53.294,53.294,0,0,0,6.011,11.95,61.065,61.065,0,0,0,6.78,8.421,51.926,51.926,0,0,0,4.9,4.525,1.227,1.227,0,0,0,1.305,0,51.888,51.888,0,0,0,4.9-4.525,61.124,61.124,0,0,0,6.78-8.421,53.289,53.289,0,0,0,6.011-11.95,47.257,47.257,0,0,0,1.9-7.186,45.648,45.648,0,0,0,.723-7.937.312.312,0,0,0-.119-.215.964.964,0,0,0-.481-.212,67.45,67.45,0,0,1-8.976-2.263,38.578,38.578,0,0,1-11.081-5.3A.525.525,0,0,0,2769.3,1850.51Z" transform="translate(-2747.202 -1849.395)" fill="#00223d"/>
              </g>
              <g id="Grupo_26565" data-name="Grupo 26565" transform="translate(3.312 3.715)">
                <path id="Trazado_67409" data-name="Trazado 67409" d="M2779.9,1907.343c-.915-.786-2.171-1.933-3.611-3.43a58.4,58.4,0,0,1-6.48-8.047,50.574,50.574,0,0,1-5.709-11.342,44.646,44.646,0,0,1-1.789-6.774,42.97,42.97,0,0,1-.631-5.544,74.71,74.71,0,0,0,7.661-2.037,44.674,44.674,0,0,0,10.558-4.788,44.713,44.713,0,0,0,10.558,4.788,74.651,74.651,0,0,0,7.661,2.037,42.9,42.9,0,0,1-.631,5.544,44.435,44.435,0,0,1-1.788,6.774,50.6,50.6,0,0,1-5.709,11.342,58.323,58.323,0,0,1-6.48,8.047C2782.07,1905.409,2780.814,1906.556,2779.9,1907.343Z" transform="translate(-2761.117 -1864.817)" fill="#fff"/>
                <path id="Trazado_67410" data-name="Trazado 67410" d="M2778.359,1906.366a.559.559,0,0,1-.366-.137c-1.207-1.037-2.435-2.2-3.65-3.467a58.982,58.982,0,0,1-6.542-8.125,51.175,51.175,0,0,1-5.771-11.469,45.224,45.224,0,0,1-1.812-6.86,43.773,43.773,0,0,1-.639-5.616.562.562,0,0,1,.448-.578,73.829,73.829,0,0,0,7.6-2.021,44.205,44.205,0,0,0,10.424-4.724.565.565,0,0,1,.616,0,44.189,44.189,0,0,0,10.424,4.724,73.695,73.695,0,0,0,7.6,2.021.562.562,0,0,1,.447.578,43.574,43.574,0,0,1-.638,5.616,45.249,45.249,0,0,1-1.811,6.86,51.189,51.189,0,0,1-5.772,11.469,59,59,0,0,1-6.542,8.125c-1.217,1.264-2.445,2.431-3.651,3.468A.56.56,0,0,1,2778.359,1906.366Zm-17.632-35.25a42.529,42.529,0,0,0,.6,4.993,43.989,43.989,0,0,0,1.766,6.688,50.04,50.04,0,0,0,5.646,11.216,57.788,57.788,0,0,0,6.417,7.97c1.068,1.11,2.144,2.142,3.206,3.075,1.061-.932,2.138-1.964,3.206-3.075a57.833,57.833,0,0,0,6.417-7.97,50.015,50.015,0,0,0,5.645-11.216,44.048,44.048,0,0,0,1.766-6.687,42.448,42.448,0,0,0,.6-4.993c-1.56-.336-4.237-.974-7.248-1.953a46.1,46.1,0,0,1-10.384-4.653,46.1,46.1,0,0,1-10.384,4.653C2764.963,1870.143,2762.288,1870.78,2760.728,1871.116Z" transform="translate(-2759.577 -1863.277)" fill="#00223d"/>
              </g>
            </g>
          </g>
        </g>
        <g id="Grupo_26569" data-name="Grupo 26569" transform="translate(12.499 16.231)">
          <path id="Trazado_67411" data-name="Trazado 67411" d="M2803.092,1926.223a2.262,2.262,0,0,1-1.605-.665l-4.811-4.81a2.271,2.271,0,0,1,3.212-3.211l3.2,3.2,7.182-7.94a2.27,2.27,0,0,1,3.211,3.211l-8.788,9.546A2.262,2.262,0,0,1,2803.092,1926.223Z" transform="translate(-2795.448 -1911.576)" fill="none"/>
          <path id="Trazado_67412" data-name="Trazado 67412" d="M2801.552,1925.256a2.814,2.814,0,0,1-2-.83l-4.81-4.81a2.833,2.833,0,1,1,4.007-4.006l2.786,2.786,6.785-7.5a2.842,2.842,0,0,1,4.027-.02,2.833,2.833,0,0,1,0,4.007l-8.772,9.529A2.826,2.826,0,0,1,2801.552,1925.256Zm-4.811-9.352a1.708,1.708,0,0,0-1.208,2.916l4.81,4.81a1.709,1.709,0,0,0,2.416,0l8.771-9.529a1.716,1.716,0,0,0,.517-1.225,1.708,1.708,0,0,0-2.916-1.208l-7.163,7.92a.562.562,0,0,1-.815.021l-3.2-3.2A1.7,1.7,0,0,0,2796.741,1915.9Z" transform="translate(-2793.908 -1910.047)" fill="#00223d"/>
        </g>
      </g>
      <g id="Grupo_26575" data-name="Grupo 26575" transform="translate(28.751 3.042)">
        <g id="Grupo_26571" data-name="Grupo 26571" transform="translate(1.78 8.495)">
          <path id="Trazado_67413" data-name="Trazado 67413" d="M2864.532,1911.882s.054.968.1,1.266l-1.243,23.7a2.492,2.492,0,0,0,2.35,2.627c.047,0,.094,0,.14,0a2.491,2.491,0,0,0,2.486-2.353l.987-19.384a5.58,5.58,0,0,0,.719.052,5.494,5.494,0,0,0,.82-.068l.976,19.152a2.492,2.492,0,0,0,2.485,2.353c.047,0,.094,0,.141,0a2.493,2.493,0,0,0,2.349-2.626c-.058-.94-1.047-16.422-1.379-23.163l.071-1.1.043-15.2h-3.829c-1.275-3.91-2.06-2.782-2.8,0h-3.827l-.339,13.161-.252,1.586Z" transform="translate(-2862.826 -1894.044)" fill="#fff"/>
          <path id="Trazado_67414" data-name="Trazado 67414" d="M2864.343,1938.5c-.056,0-.113,0-.169,0a3.059,3.059,0,0,1-2.883-3.22l1.241-23.644c-.049-.363-.095-1.166-.1-1.262a.59.59,0,0,1,.006-.119l.247-1.55.339-13.124a.562.562,0,0,1,.562-.548h3.4c.442-1.554.907-2.505,1.716-2.528.723-.021,1.289.719,1.918,2.528h3.424a.563.563,0,0,1,.563.564l-.043,15.2-.07,1.106c.137,2.79.481,8.949,1.335,22.461l.042.663a3.006,3.006,0,0,1-.764,2.2,3.038,3.038,0,0,1-2.115,1.025c-.06,0-.116,0-.173,0a3.054,3.054,0,0,1-3.047-2.884l-.945-18.561c-.162.009-.315.01-.475,0l-.957,18.8A3.056,3.056,0,0,1,2864.343,1938.5Zm-.785-28.134c.021.37.062.96.093,1.145a.552.552,0,0,1,.007.122l-1.244,23.7a1.932,1.932,0,0,0,1.819,2.035c.035,0,.072,0,.109,0a1.929,1.929,0,0,0,1.924-1.823l.987-19.382a.566.566,0,0,1,.2-.4.559.559,0,0,1,.433-.125,4.362,4.362,0,0,0,1.383-.014.561.561,0,0,1,.644.527l.976,19.152a1.928,1.928,0,0,0,3.37,1.168,1.891,1.891,0,0,0,.483-1.381l-.042-.662c-.859-13.569-1.2-19.73-1.339-22.509a.465.465,0,0,1,0-.064l.071-1.1.04-14.6h-3.265a.563.563,0,0,1-.535-.388,6.031,6.031,0,0,0-.945-2.09,6.182,6.182,0,0,0-.777,2.06.563.563,0,0,1-.543.418h-3.279l-.325,12.613a.627.627,0,0,1-.007.074Z" transform="translate(-2861.286 -1892.504)" fill="#00223d"/>
        </g>
        <g id="Grupo_26572" data-name="Grupo 26572" transform="translate(3.53 0)">
          <circle id="Elipse_2822" data-name="Elipse 2822" cx="4.083" cy="4.083" r="4.083" transform="translate(0 5.774) rotate(-45)" fill="#fff"/>
          <path id="Trazado_67415" data-name="Trazado 67415" d="M2876.69,1874.271a4.646,4.646,0,1,1,4.645-4.646A4.651,4.651,0,0,1,2876.69,1874.271Zm0-8.166a3.521,3.521,0,1,0,3.521,3.521A3.525,3.525,0,0,0,2876.69,1866.1Z" transform="translate(-2870.915 -1863.851)" fill="#00223d"/>
        </g>
        <g id="Grupo_26573" data-name="Grupo 26573" transform="translate(3.321 10.906)">
          <path id="Trazado_67416" data-name="Trazado 67416" d="M2874.689,1903.619s3.232,0,3.289,0c2.389.112,5.284,0,5.279,4.451,0,.159-.016,7.221-.02,8.787a2.089,2.089,0,0,1-1.437,2.1,3.3,3.3,0,0,1-1.847.109l-9.142-2.252-.022,0a2.314,2.314,0,0,1-1.637-2.458,4.219,4.219,0,0,1,.192-1.045,2.788,2.788,0,0,1,1.76-1.693,2.286,2.286,0,0,1,1.432.156l5.9,2.559c.635.155.534-.4.627-.919a3.9,3.9,0,0,0,.045-.942l-.3-3.7Z" transform="translate(-2868.582 -1903.055)" fill="#fff"/>
          <path id="Trazado_67417" data-name="Trazado 67417" d="M2879.177,1918.168a4.237,4.237,0,0,1-.879-.094l-9.136-2.25a2.879,2.879,0,0,1-2.11-3.063,4.553,4.553,0,0,1,.226-1.194,3.328,3.328,0,0,1,2.157-2.042,2.826,2.826,0,0,1,1.786.186l5.694,2.471c0-.025,0-.049.007-.07.012-.112.024-.229.045-.345a3.323,3.323,0,0,0,.038-.807l-.294-3.692a.563.563,0,1,1,1.122-.089l.3,3.7a4.451,4.451,0,0,1-.053,1.087c-.016.087-.025.176-.034.262a1.251,1.251,0,0,1-.43.988,1.007,1.007,0,0,1-.85.115.562.562,0,0,1-.091-.03l-5.9-2.559a1.739,1.739,0,0,0-1.078-.124,2.219,2.219,0,0,0-1.363,1.337,3.777,3.777,0,0,0-.161.9c-.066.753.453,1.756,1.153,1.852.02,0,.061.01.08.014l9.143,2.252a2.72,2.72,0,0,0,1.513-.089,1.515,1.515,0,0,0,1.074-1.542l.012-5.686c0-1.672.007-3.061.007-3.131,0-3.688-2.026-3.773-4.377-3.873l-.365-.015c-.091,0-2,0-3.262,0a.562.562,0,1,1,0-1.125c3.245,0,3.3,0,3.316,0l.36.016c2.3.1,5.46.229,5.455,5,0,.07,0,1.46-.006,3.132l-.012,5.655a2.649,2.649,0,0,1-1.8,2.624A3.639,3.639,0,0,1,2879.177,1918.168Z" transform="translate(-2867.043 -1901.515)" fill="#00223d"/>
        </g>
        <g id="Grupo_26574" data-name="Grupo 26574" transform="translate(0 10.907)">
          <path id="Trazado_67418" data-name="Trazado 67418" d="M2861.114,1908.765l-.5,4.752c-.02.506-.021,1.018.89.933l6.561-1.164c1.125-.084,2.49.005,2.741,1.411a7.093,7.093,0,0,1,.055,1.078c0,1.121-1.072,1.736-2.25,1.878l-9.545.92c-.635-.006-1.242.068-1.681-.391a2.237,2.237,0,0,1-.649-1.714s.086-8.578.1-8.754c.314-3.381,2.46-4.092,4.911-4.092l.171,0,3.68,0Z" transform="translate(-2856.175 -1903.059)" fill="#fff"/>
          <path id="Trazado_67419" data-name="Trazado 67419" d="M2857.128,1917.6a2.156,2.156,0,0,1-1.688-.567,2.784,2.784,0,0,1-.8-2.1c.026-2.591.088-8.625.1-8.8.382-4.125,3.306-4.6,5.471-4.6.063,0,.125,0,.188,0l3.663,0a.563.563,0,0,1,0,1.125l-3.674,0a.135.135,0,0,0-.027,0l-.15,0c-2.855,0-4.115,1.038-4.351,3.581-.011.236-.066,5.339-.1,8.708a1.679,1.679,0,0,0,.495,1.319c.2.213.5.222,1.02.218h.229l9.515-.917c.281-.034,1.742-.264,1.742-1.318a7.4,7.4,0,0,0-.046-.978c-.1-.565-.429-1.071-2.119-.952l-6.531,1.159-.046.006a1.408,1.408,0,0,1-1.158-.3,1.49,1.49,0,0,1-.348-1.212c0-.012,0-.025,0-.037l.5-4.751a.563.563,0,0,1,1.119.117l-.5,4.733a1.821,1.821,0,0,0,.008.328.868.868,0,0,0,.247.007l6.537-1.159.056-.007c1.966-.146,3.089.484,3.337,1.874a7.544,7.544,0,0,1,.064,1.176c0,1.279-1.077,2.235-2.745,2.437l-9.559.921a.522.522,0,0,1-.06,0h-.395Z" transform="translate(-2854.635 -1901.52)" fill="#00223d"/>
        </g>
      </g>
    </g>
  </g>
</svg>
