<svg xmlns="http://www.w3.org/2000/svg" width="145.809" height="293.077" viewBox="0 0 145.809 293.077">
  <g id="Grupo_53941" data-name="Grupo 53941" transform="translate(-926.307 -451.532)">
    <g id="Grupo_46726" data-name="Grupo 46726" transform="translate(926.307 489.814)">
      <path id="Trazado_97178" data-name="Trazado 97178" d="M725.8,1473.615h28.35a6.354,6.354,0,0,1,6.354,6.354v13.216a6.354,6.354,0,0,1-6.354,6.354h-.21l2.276,7.623a.361.361,0,0,1-.565.39l-10.5-8.013H725.8a6.354,6.354,0,0,1-6.354-6.354v-13.216A6.354,6.354,0,0,1,725.8,1473.615Z" transform="translate(-719.445 -1473.615)" fill="#dee7f3"/>
      <path id="Trazado_97179" data-name="Trazado 97179" d="M786.013,1520.125H758.794a3.145,3.145,0,0,1-3.145-3.145h0a3.145,3.145,0,0,1,3.145-3.145h27.219a3.145,3.145,0,0,1,3.145,3.145h0A3.145,3.145,0,0,1,786.013,1520.125Z" transform="translate(-751.322 -1509.028)" fill="#00223d" opacity="0.25"/>
      <path id="Trazado_97180" data-name="Trazado 97180" d="M786.013,1600.484H758.794a3.145,3.145,0,0,1-3.145-3.145h0a3.145,3.145,0,0,1,3.145-3.145h27.219a3.145,3.145,0,0,1,3.145,3.145h0A3.145,3.145,0,0,1,786.013,1600.484Z" transform="translate(-751.322 -1579.781)" fill="#00223d" opacity="0.25"/>
    </g>
    <g id="Grupo_53210" data-name="Grupo 53210" transform="translate(1021.84 482.419)">
      <path id="Trazado_97178-2" data-name="Trazado 97178" d="M754.149,1473.615H725.8a6.354,6.354,0,0,0-6.354,6.354v13.216a6.354,6.354,0,0,0,6.354,6.354h.21l-2.275,7.623a.361.361,0,0,0,.565.39l10.5-8.013h19.345a6.354,6.354,0,0,0,6.354-6.354v-13.216A6.354,6.354,0,0,0,754.149,1473.615Z" transform="translate(-719.445 -1473.615)" fill="#dee7f3"/>
      <path id="Trazado_97179-2" data-name="Trazado 97179" d="M758.794,1520.125h27.219a3.145,3.145,0,0,0,3.145-3.145h0a3.145,3.145,0,0,0-3.145-3.145H758.794a3.145,3.145,0,0,0-3.145,3.145h0A3.145,3.145,0,0,0,758.794,1520.125Z" transform="translate(-752.427 -1509.028)" fill="#00223d" opacity="0.25"/>
      <path id="Trazado_97180-2" data-name="Trazado 97180" d="M758.794,1600.484h27.219a3.145,3.145,0,0,0,3.145-3.145h0a3.145,3.145,0,0,0-3.145-3.145H758.794a3.145,3.145,0,0,0-3.145,3.145h0A3.145,3.145,0,0,0,758.794,1600.484Z" transform="translate(-752.427 -1579.781)" fill="#00223d" opacity="0.25"/>
    </g>
    <g id="Grupo_53209" data-name="Grupo 53209" transform="translate(952.576 462.759)">
      <g id="Grupo_46746" data-name="Grupo 46746" transform="translate(19.46)">
        <path id="v-2" d="M1204.235,1625.025h.009l7.158.027,1.621,16.908-8.356,4.411-8.911-4.362,1.44-16.957Z" transform="translate(-1177.654 -1585.707)" fill="#e49963"/>
        <g id="Grupo_46745" data-name="Grupo 46745" transform="translate(0)">
          <path id="Trazado_97195" data-name="Trazado 97195" d="M1147.624,1519.955c4.406,11.009,14.988,17.129,23.634,13.668s12.085-15.19,7.679-26.2-14.987-17.13-23.634-13.669S1143.219,1508.945,1147.624,1519.955Z" transform="translate(-1140.71 -1488.099)" fill="#e49963"/>
          <path id="Trazado_97196" data-name="Trazado 97196" d="M1257.433,1555.3a1.62,1.62,0,1,0,.4-2.255A1.619,1.619,0,0,0,1257.433,1555.3Z" transform="translate(-1222.966 -1532.364)"/>
          <path id="Trazado_97197" data-name="Trazado 97197" d="M1211.037,1573.62a1.753,1.753,0,1,0,.438-2.441A1.753,1.753,0,0,0,1211.037,1573.62Z" transform="translate(-1188.702 -1545.73)"/>
          <path id="Trazado_97198" data-name="Trazado 97198" d="M1248.857,1572.347c2.19,1.726,4.928,3.809,4.928,3.809a4.251,4.251,0,0,1-3.057,3.784c1.117-1.013,2.1-2.359.934-3.915S1248.857,1572.347,1248.857,1572.347Z" transform="translate(-1216.85 -1546.823)" fill="#d68d5d"/>
          <g id="Grupo_46740" data-name="Grupo 46740" transform="translate(18.335 22.397)">
            <path id="Trazado_97199" data-name="Trazado 97199" d="M1197.454,1564.848a.809.809,0,0,1-.787-1c.283-1.185,1.469-3.431,3.933-3.442a.808.808,0,1,1,.008,1.616c-1.825.008-2.364,2.179-2.369,2.2A.808.808,0,0,1,1197.454,1564.848Z" transform="translate(-1196.645 -1560.41)" fill="#201d40"/>
          </g>
          <g id="Grupo_46741" data-name="Grupo 46741" transform="translate(32.098 16.97)">
            <path id="Trazado_97200" data-name="Trazado 97200" d="M1249.876,1542.226a.674.674,0,0,1-.58-1.014,3.318,3.318,0,0,1,2.075-1.483,3.451,3.451,0,0,1,2.807.89.674.674,0,0,1-.841,1.052,2.188,2.188,0,0,0-1.72-.617,1.945,1.945,0,0,0-1.158.839A.674.674,0,0,1,1249.876,1542.226Z" transform="translate(-1249.203 -1539.683)" fill="#201d40"/>
          </g>
          <path id="Trazado_97201" data-name="Trazado 97201" d="M1127.527,1498.513c-3.726-10.609,5.351-16.708,5.351-16.708s-2.436-.218-2.726-3.638a9,9,0,0,0,5.662-.122c12.1-4.38,20.43-4.322,20.43.855,0,1.843,7.99.58,7.321,12.975.047-.875-2.808-5.971-5.506-6.479s-.263,3.1-5.9,3.872c-5.69.781-9.873-.6-13.349,2.607-2.719,2.8-3.393,17.039-2.98,17.9C1134.882,1507.806,1129.164,1503.175,1127.527,1498.513Z" transform="translate(-1126.629 -1474.88)" fill="#00223d"/>
          <path id="Trazado_97202" data-name="Trazado 97202" d="M1192.433,1572.347s.515,6.46-.417,8.458c-.97-2.591-3.051.155-5.006.413-4.724.625-13.246-.95-14.09,6.135-5.773,1.827-11.181-10.53-11.181-10.53-.331,13.8,9.771,21.645,24.308,19.347C1195.626,1594.658,1196.514,1581.321,1192.433,1572.347Z" transform="translate(-1152.539 -1546.823)" fill="#00223d"/>
          <g id="Grupo_46742" data-name="Grupo 46742" transform="translate(26.735 34.935)">
            <path id="Trazado_97203" data-name="Trazado 97203" d="M1231.926,1612.115a12.264,12.264,0,0,1-2.916-1.143.539.539,0,0,1,.509-.951c2.236,1.2,4.241,1.536,5.959,1.012a5.621,5.621,0,0,0,3.1-2.455.539.539,0,0,1,.955.5,6.626,6.626,0,0,1-3.723,2.979A7.283,7.283,0,0,1,1231.926,1612.115Z" transform="translate(-1228.725 -1608.291)" fill="#d68d5d"/>
          </g>
          <g id="Grupo_46744" data-name="Grupo 46744" transform="translate(2.194 29.323)">
            <path id="Trazado_97204" data-name="Trazado 97204" d="M1141.878,1587.626c2.431,1.365,3.5,4.085,2.379,6.075s-3.994,2.5-6.426,1.13-3.5-4.085-2.379-6.075S1139.447,1586.26,1141.878,1587.626Z" transform="translate(-1135.008 -1586.858)" fill="#e49963"/>
            <g id="Grupo_46743" data-name="Grupo 46743" transform="translate(2.711 2.251)">
              <path id="Trazado_97205" data-name="Trazado 97205" d="M1149.15,1599.93a.618.618,0,0,0,.186-.21,2.756,2.756,0,0,0-.293-3.373,2.939,2.939,0,0,0-3.347-.614.61.61,0,0,0,.551,1.088,1.74,1.74,0,0,1,1.923.376,1.562,1.562,0,0,1,.094,1.943.61.61,0,0,0,.887.789Z" transform="translate(-1145.361 -1595.453)" fill="#d68d5d"/>
            </g>
          </g>
        </g>
      </g>
      <path id="Trazado_97206" data-name="Trazado 97206" d="M1239.127,2474.323c1.523-4.137,4.779-4.6,4.779-4.6,6.33,8.733,21.873,3.374,21.359,15.187-23.637-.153-33.461,0-33.461,0a86.593,86.593,0,0,1,1.044-11.674l1.231.226Z" transform="translate(-1184.804 -2209.213)" fill="#7d6eb2"/>
      <path id="Trazado_97207" data-name="Trazado 97207" d="M1104.073,2475.2c1.524-4.137,4.78-4.6,4.78-4.6,6.329,8.732,21.873,3.374,21.359,15.185-23.637-.151-33.461,0-33.461,0a86.654,86.654,0,0,1,1.043-11.671l1.232.226Z" transform="translate(-1085.115 -2209.859)" fill="#36c"/>
      <path id="Trazado_97208" data-name="Trazado 97208" d="M1233.847,1960.59s3.838,55.972,2.279,68.416-7.08,28.4-6.454,69.557c-7.705,1.928-18.869,0-18.869,0s-1.655-46.541,6.491-67.329c-3.312-20.192-13.941-66.44-13.941-66.44Z" transform="translate(-1163.802 -1833.401)" fill="#213755"/>
      <path id="Trazado_97209" data-name="Trazado 97209" d="M1137.563,1966.432s-7.749,62.838-11.542,74.757-11.191,22-18.059,62.544c-7.918.4-15.292,0-15.292,0s1.069-51.432,13.4-63.129c.417-20.476-1.994-73.768-1.994-73.768Z" transform="translate(-1082.103 -1837.712)" fill="#344966"/>
      <g id="v" transform="translate(17.961 54.286)">
        <path id="h-5" d="M1122.682,1685.3s13.459-4.713,17.947-2.551c13.945,6.714,17.144,0,17.144,0,4.457.384,17.908,2.551,17.908,2.551,0,15.023,1,30.1.73,41.466-.193,9.9,1.694,36.842,1.694,36.842s-14.839,3.891-28.876,3.991a132.07,132.07,0,0,1-28.324-3.833s.75-27.288,1.373-37.43C1122.076,1714.968,1122.682,1700.283,1122.682,1685.3Z" transform="translate(-1120.905 -1682.182)" fill="#7d6eb2"/>
      </g>
      <g id="c" transform="translate(68.913 57.402)">
        <path id="c-2" data-name="c" d="M1343.231,1716.417c-5.555-13.254-22.041-21.685-23.925-22.328l-3.823,17.016a99.576,99.576,0,0,1,13.668,9.75c-.975,4.737-.811,9.384-3.554,15.377,0,0,2.382-3.287,5.321-1.342,2.857,1.89,8.11-1.969,8.11-1.969S1347.474,1726.541,1343.231,1716.417Z" transform="translate(-1315.482 -1694.089)" fill="#5b4e86"/>
      </g>
      <g id="c-3" data-name="c" transform="translate(0 57.402)">
        <g id="c-4" data-name="c" transform="translate(55.023 5.135)">
          <g id="c-5" data-name="c">
            <path id="c-6" data-name="c" d="M1304.99,1764.387a1.524,1.524,0,0,0,.289.058h.316a1.5,1.5,0,0,0,1.278-1.049l14.81-47.748a1.275,1.275,0,0,0,.061-.478c0-.037,0-.076,0-.113s-.014-.065-.019-.1a1.5,1.5,0,0,0-1.03-1.193,1.535,1.535,0,0,0-.282-.06,1.565,1.565,0,0,0-.321,0H1282.81l-14.94,50.739h37.146Z" transform="translate(-1266.448 -1713.698)" fill="#aee6e6"/>
            <path id="c-7" data-name="c" d="M1279.142,1713.766a1.505,1.505,0,0,0-1.883.991l-14.717,47.629-.033.112a1.5,1.5,0,0,0,.984,1.877l0,0a1.5,1.5,0,0,0,1.883-.99l14.755-47.738A1.5,1.5,0,0,0,1279.142,1713.766Z" transform="translate(-1262.441 -1713.698)" fill="#00223d"/>
          </g>
        </g>
        <path id="c-8" data-name="c" d="M1431.681,1801.667a1.549,1.549,0,0,1,.446-.194c-.016-.024-.033-.045-.049-.069-.927-1.4-.865-3.072.138-3.737a1.618,1.618,0,0,1,.536-.225,2.247,2.247,0,0,1,.69-2.5,1.684,1.684,0,0,1,.962-.269,2.245,2.245,0,0,1,.735-2.618,2.634,2.634,0,0,1,2.867,4.325,1.88,1.88,0,0,1-.831.3c.668,1.3.534,2.727-.374,3.329a1.606,1.606,0,0,1-.535.225,2.246,2.246,0,0,1-.69,2.5,1.658,1.658,0,0,1-.888.268,1.921,1.921,0,0,1-.585,2.317,2.224,2.224,0,0,1-2.421-3.652Z" transform="translate(-1331.79 -1766.171)" fill="#e49963"/>
        <path id="Trazado_97210" data-name="Trazado 97210" d="M1258.746,1798.649l3.4-1.969a6.421,6.421,0,0,1,6.4-4.937c-.625,2.022-1.525,4.937-1.525,4.937s2.686,2.086,9.057-1.484c6.229-1.4,3.568,3.141,5.632,3.467,3.046.481-2.221,6.467-8.439,7.382-8.047,1.186-9-.461-9-.461l-4.553,1.591Z" transform="translate(-1204.69 -1766.171)" fill="#e49963"/>
        <path id="c-9" data-name="c" d="M1074.926,1731.717c11.359-.793,30.737-6.4,30.737-6.4,3.1,4.757,2.243,11.074,2.243,11.074-17.64,15.466-44.19,20.466-52.336,16.743-7.437-3.4-2.187-48.67,16.486-59.04h0C1078.457,1704.921,1074.926,1731.717,1074.926,1731.717Z" transform="translate(-1052.319 -1694.089)" fill="#5b4e86"/>
      </g>
    </g>
    <g id="Grupo_46794" data-name="Grupo 46794" transform="translate(939.564 705.735)">
      <g id="Grupo_46792" data-name="Grupo 46792" transform="translate(8.506 27.825)">
        <path id="Trazado_97307" data-name="Trazado 97307" d="M1424.251,2093.141v5.532h1.506a1.325,1.325,0,0,1,1.325,1.325v.219a1.324,1.324,0,0,1-1.325,1.325h-64.2a1.541,1.541,0,0,1-1.541-1.541v-7.968a1.54,1.54,0,0,1,1.541-1.54h64.2a1.325,1.325,0,0,1,1.325,1.322h0a1.325,1.325,0,0,1-1.325,1.324Z" transform="translate(-1360.021 -2090.495)" fill="#12263f"/>
        <path id="Rectángulo_28257" data-name="Rectángulo 28257" d="M1.207,0H57.271a0,0,0,0,1,0,0V5.532a0,0,0,0,1,0,0H1.207A1.207,1.207,0,0,1,0,4.325V1.207A1.207,1.207,0,0,1,1.207,0Z" transform="translate(7.149 2.647)" fill="#fff"/>
      </g>
      <g id="Grupo_46793" data-name="Grupo 46793" transform="translate(0 15.599)">
        <path id="Trazado_97308" data-name="Trazado 97308" d="M1342.17,2063.7v6.122h-1.507a1.4,1.4,0,0,0-1.323,1.465v.247a1.4,1.4,0,0,0,1.323,1.464h64.2a1.63,1.63,0,0,0,1.541-1.7v-8.817a1.629,1.629,0,0,0-1.541-1.7h-64.2a1.4,1.4,0,0,0-1.323,1.464h0a1.4,1.4,0,0,0,1.323,1.465Z" transform="translate(-1339.34 -2060.77)" fill="#7d6eb2"/>
        <path id="Rectángulo_28258" data-name="Rectángulo 28258" d="M1.336,0H57.271a0,0,0,0,1,0,0V6.121a0,0,0,0,1,0,0H1.336A1.336,1.336,0,0,1,0,4.785V1.336A1.336,1.336,0,0,1,1.336,0Z" transform="translate(59.911 9.05) rotate(180)" fill="#fff"/>
      </g>
      <path id="Rectángulo_28259" data-name="Rectángulo 28259" d="M2.166,0H61.055a2.167,2.167,0,0,1,2.167,2.167V7.759a2.167,2.167,0,0,1-2.167,2.167H2.167A2.167,2.167,0,0,1,0,7.76V2.166A2.166,2.166,0,0,1,2.166,0Z" transform="translate(5.232 0)" fill="#5b7393"/>
      <rect id="Rectángulo_28260" data-name="Rectángulo 28260" width="63.222" height="5.673" rx="1.238" transform="translate(9.363 9.926)" fill="#7d6eb2"/>
    </g>
    <g id="Grupo_54152" data-name="Grupo 54152" transform="translate(933.966 565.53)">
      <path id="Trazado_100437" data-name="Trazado 100437" d="M2505.22,1127.775h-37.037c-1.752,0-3.172,1.708-3.172,3.814v27.565c0,2.106,1.42,3.814,3.172,3.814h37.037c1.752,0,3.172-1.708,3.172-3.814v-27.565C2508.392,1129.483,2506.972,1127.775,2505.22,1127.775Z" transform="translate(-2465.011 -1127.775)" fill="#d7e9f9"/>
      <path id="Trazado_100438" data-name="Trazado 100438" d="M2508.388,1131.591v1.511h-43.381v-1.511c0-2.106,1.42-3.813,3.172-3.813h37.038C2506.968,1127.778,2508.388,1129.485,2508.388,1131.591Z" transform="translate(-2465.006 -1127.778)" fill="#7d6eb2"/>
      <g id="Grupo_50283" data-name="Grupo 50283" transform="translate(6.56 11.829)">
        <rect id="Rectángulo_29047" data-name="Rectángulo 29047" width="5.332" height="10.387" rx="2" transform="translate(0 7.876)" fill="#7d6eb2"/>
        <rect id="Rectángulo_29048" data-name="Rectángulo 29048" width="5.332" height="12.931" rx="2" transform="translate(8.31 5.332)" fill="#7d6eb2"/>
        <rect id="Rectángulo_29049" data-name="Rectángulo 29049" width="5.332" height="15.494" rx="2" transform="translate(16.619 2.77)" fill="#00223d"/>
        <rect id="Rectángulo_29050" data-name="Rectángulo 29050" width="5.332" height="18.264" rx="2" transform="translate(24.929)" fill="#00223d"/>
      </g>
      <circle id="Elipse_4018" data-name="Elipse 4018" cx="1.038" cy="1.038" r="1.038" transform="translate(2.133 1.858)" fill="#d8e5ed"/>
      <circle id="Elipse_4019" data-name="Elipse 4019" cx="1.038" cy="1.038" r="1.038" transform="translate(4.959 1.858)" fill="#d8e5ed"/>
      <circle id="Elipse_4020" data-name="Elipse 4020" cx="1.038" cy="1.038" r="1.038" transform="translate(7.786 1.858)" fill="#d8e5ed"/>
    </g>
    <g id="Grupo_47021" data-name="Grupo 47021" transform="translate(1034.532 582.542)">
      <g id="Grupo_47020" data-name="Grupo 47020" transform="translate(2.133 2.141)">
        <path id="Trazado_97743" data-name="Trazado 97743" d="M1368.092,208.637a16.387,16.387,0,0,1-21.4,24.708l-5.805,2.5,2.5-5.805a16.387,16.387,0,0,1,24.708-21.4Z" transform="translate(-1339.845 -203.571)" fill="#fdfdfd" fill-rule="evenodd"/>
        <path id="Trazado_97744" data-name="Trazado 97744" d="M1353.782,234.235a16.641,16.641,0,0,1-9.855-3.224l-5.66,2.438a.274.274,0,0,1-.36-.36l2.438-5.66A16.662,16.662,0,1,1,1354.9,234.2C1354.527,234.223,1354.154,234.235,1353.782,234.235Zm-9.819-3.812a.274.274,0,0,1,.165.055,16.112,16.112,0,1,0-1.741-24.295,16.179,16.179,0,0,0-1.509,21.045.275.275,0,0,1,.033.273l-2.228,5.173,5.173-2.228A.272.272,0,0,1,1343.963,230.423Z" transform="translate(-1337.12 -200.923)" fill="#00223d"/>
      </g>
      <circle id="Elipse_3890" data-name="Elipse 3890" cx="13.927" cy="13.927" r="13.927" transform="translate(4.865 4.866)" fill="#f5ca56"/>
      <path id="Trazado_97745" data-name="Trazado 97745" d="M1332.569,215.085a18.729,18.729,0,0,1-10.2-3.014.274.274,0,0,1,.3-.46,18.251,18.251,0,0,0,19.791.021.274.274,0,1,1,.3.461A18.789,18.789,0,0,1,1332.569,215.085Zm13.359-5.688a.274.274,0,0,1-.2-.464,18.2,18.2,0,0,0,2.292-22.359.274.274,0,1,1,.464-.292,18.881,18.881,0,0,1,2.795,11.827,18.59,18.59,0,0,1-5.155,11.2A.274.274,0,0,1,1345.928,209.4Zm-28.9-2.769a.275.275,0,0,1-.23-.125,18.811,18.811,0,0,1-2.911-12.161.274.274,0,1,1,.545.057,18.258,18.258,0,0,0,2.826,11.8.274.274,0,0,1-.23.424Zm-1.911-16.232a.274.274,0,0,1-.259-.365,18.795,18.795,0,0,1,23-11.778.274.274,0,0,1-.154.526,18.248,18.248,0,0,0-22.325,11.434A.274.274,0,0,1,1315.116,190.4Zm30.456-7.021a.274.274,0,0,1-.193-.079,18.271,18.271,0,0,0-3.8-2.872.274.274,0,0,1,.271-.477,18.821,18.821,0,0,1,3.91,2.959.274.274,0,0,1-.192.47Z" transform="translate(-1313.785 -177.498)" fill="#00223d"/>
    </g>
    <g id="Grupo_47026" data-name="Grupo 47026" transform="translate(1017.33 451.532)">
      <g id="Grupo_47025" data-name="Grupo 47025" transform="translate(0 0)">
        <path id="Trazado_97773" data-name="Trazado 97773" d="M2503.177,333.578H2516.5a1.669,1.669,0,0,0,1.665-1.665V319.422H2511.5l-1.665,1.665h-6.662a1.67,1.67,0,0,0-1.666,1.665v9.16A1.669,1.669,0,0,0,2503.177,333.578Z" transform="translate(-2501.237 -319.148)" fill="#eff4ef" fill-rule="evenodd"/>
        <path id="Trazado_97774" data-name="Trazado 97774" d="M2513.774,331.127h-13.323a1.942,1.942,0,0,1-1.94-1.939v-9.16a1.942,1.942,0,0,1,1.94-1.939H2507l1.585-1.585a.274.274,0,0,1,.194-.08h6.662a.274.274,0,0,1,.274.274v12.491A1.942,1.942,0,0,1,2513.774,331.127Zm-13.323-12.491a1.393,1.393,0,0,0-1.392,1.391v9.16a1.393,1.393,0,0,0,1.392,1.391h13.323a1.393,1.393,0,0,0,1.391-1.391V316.97h-6.274l-1.585,1.585a.274.274,0,0,1-.193.08Z" transform="translate(-2498.511 -316.422)" fill="#00223d"/>
      </g>
      <path id="Trazado_97775" data-name="Trazado 97775" d="M2539.393,371.641h-4.164a.274.274,0,0,1,0-.548h4.164a.274.274,0,0,1,0,.548Z" transform="translate(-2531.625 -366.097)" fill="#00223d"/>
      <path id="Trazado_97776" data-name="Trazado 97776" d="M2536.9,408.087h-1.666a.274.274,0,0,1,0-.548h1.666a.274.274,0,1,1,0,.548Z" transform="translate(-2531.625 -399.212)" fill="#00223d"/>
    </g>
    <path id="Trazado_97777" data-name="Trazado 97777" d="M1428.187,282.747a9.167,9.167,0,1,0,8.637,6.075l-1.382,1.382a7.458,7.458,0,1,1-2.48-4.007l1.221-1.221a9.139,9.139,0,0,0-6-2.23Zm-4.825,8.265a1.147,1.147,0,0,1,1.622-1.622l3.2,3.2,7.217-7.217a1.147,1.147,0,1,1,1.622,1.622L1429,295.026a1.147,1.147,0,0,1-1.622,0Z" transform="translate(-374.863 309.414)" fill="#fff" fill-rule="evenodd"/>
  </g>
</svg>
