<svg xmlns="http://www.w3.org/2000/svg" xmlns:xlink="http://www.w3.org/1999/xlink" width="315.112" height="261.29" viewBox="0 0 315.112 261.29">
  <defs>
    <linearGradient id="linear-gradient" x1="0.5" x2="0.5" y2="1" gradientUnits="objectBoundingBox">
      <stop offset="0" stop-color="#fff"/>
      <stop offset="1" stop-color="#d3d3d3"/>
    </linearGradient>
    <linearGradient id="linear-gradient-9" y1="0.5" x2="1" y2="0.5" gradientUnits="objectBoundingBox">
      <stop offset="0" stop-color="#ff928e"/>
      <stop offset="1" stop-color="#feb3b1"/>
    </linearGradient>
    <linearGradient id="linear-gradient-12" x1="294.087" y1="1.605" x2="296.088" y2="4.278" xlink:href="#linear-gradient-9"/>
    <linearGradient id="linear-gradient-13" x1="0.439" y1="-3.503" x2="0.505" y2="0.689" xlink:href="#linear-gradient-9"/>
    <linearGradient id="linear-gradient-14" x1="0.511" y1="0.146" x2="0.456" y2="1.705" xlink:href="#linear-gradient-9"/>
    <linearGradient id="linear-gradient-15" x1="-47.545" y1="17.427" x2="-48.867" y2="15.942" xlink:href="#linear-gradient-9"/>
    <linearGradient id="linear-gradient-16" x1="-155.484" y1="82.575" x2="-159.791" y2="75.375" xlink:href="#linear-gradient-9"/>
    <linearGradient id="linear-gradient-29" x1="1.66" y1="1.186" x2="0.085" y2="0.256" xlink:href="#linear-gradient-9"/>
    <linearGradient id="linear-gradient-30" x1="0.892" y1="0.928" x2="-0.916" y2="-1.638" xlink:href="#linear-gradient-9"/>
  </defs>
  <g id="Grupo_47029" data-name="Grupo 47029" transform="translate(-756.929 -275.695)">
    <g id="Grupo_47036" data-name="Grupo 47036" transform="translate(797.011 326.813)">
      <path id="Trazado_97779" data-name="Trazado 97779" d="M1516.25,555.589s17.091-12.609,47.962,4.575c0,0,15.974,6.073,19.634,21.622a28.14,28.14,0,0,0,5.46,11.277,35.214,35.214,0,0,1,7.785,19.3,32.952,32.952,0,0,0,4.057,13.322c2.673,4.8,5.453,12.677,4.432,23.811,0,0,9.879,10.655,4.322,34.4,0,0,4.523,14.886-5.684,28.311,0,0,2.543,17.129-12.221,22.872,0,0-7.792,17.814-30.994,18.9a30.026,30.026,0,0,0-9.779,2.172c-4.417,1.773-12.351,3.5-23.749.505-18.523-4.871-16.664-16.111-16.664-16.111V558.321Z" transform="translate(-1410.938 -551.129)" fill="#d6f2f2"/>
      <path id="Trazado_97780" data-name="Trazado 97780" d="M1068.25,555.589s-17.091-12.609-47.962,4.575c0,0-16.734,6.362-19.872,22.736a20.281,20.281,0,0,1-4.555,9.362,35.252,35.252,0,0,0-8.551,21.775,21,21,0,0,1-3.185,10.335,38.123,38.123,0,0,0-5.417,19.844,20.921,20.921,0,0,1-2.236,9.1c-2.5,4.979-5.533,14.939-1.874,30.575a34.02,34.02,0,0,0,2.641,23.5,27.583,27.583,0,0,1,2.986,10.21c.409,4.625,2.14,11.18,8.2,15.342a29.1,29.1,0,0,1,6.85,6.656c3.869,5.2,12.127,13.174,26.894,14.293a44.272,44.272,0,0,1,11.859,2.543c4.539,1.658,12.218,3.048,22.991.215,18.523-4.871,16.664-16.111,16.664-16.111V558.321Z" transform="translate(-972.902 -551.129)" fill="#d6f2f2"/>
      <path id="Trazado_97781" data-name="Trazado 97781" d="M1240.361,1062.747c-8.249-1-14.871-5.713-19.682-13.995l-.057-.1a8.457,8.457,0,0,1,2.877-11.361,7.287,7.287,0,0,0,1.882-1.623,38.446,38.446,0,0,1-18.368-2.927,27.593,27.593,0,0,1-9.886-7.47,17.45,17.45,0,0,0,5.46,9.994,19.069,19.069,0,0,0,7.166,3.5c2.485.546,3.539,3.011,4.456,5.353a47.569,47.569,0,0,0,3.073,6.417,35.653,35.653,0,0,0,7.63,9.367,22.089,22.089,0,0,0-10.4,9.333,20.488,20.488,0,0,0-2.52,7.131,30.807,30.807,0,0,1,6.444-7.889,19.988,19.988,0,0,1,14.176-4.941A33.934,33.934,0,0,0,1240.361,1062.747Z" transform="translate(-1155.513 -937.276)" fill="#12263f"/>
      <g id="Grupo_47029-2" data-name="Grupo 47029" transform="translate(30.124 122.957)">
        <path id="Trazado_97782" data-name="Trazado 97782" d="M1154.813,1240.639q-.64,0-1.283-.037a18.855,18.855,0,0,1-14.316-7.794c-5.572-7.411-4.3-14.152-2.257-18.5l.072-.151c.849-1.766,1.323,1.538,1.221,3.49-.218,4.184,3.079,10.644,7.182,14.143,4.75,4.051,12.443,3.96,18.306,4.156,2.2.073,4.048.219,2.089,1.531A21.133,21.133,0,0,1,1154.813,1240.639Z" transform="translate(-1135.217 -1213.651)" fill="#12263f"/>
      </g>
      <g id="Grupo_47030" data-name="Grupo 47030" transform="translate(15.614 151.104)">
        <path id="Trazado_97783" data-name="Trazado 97783" d="M1079.252,1386.3a4.33,4.33,0,0,1-5.688-1.512,93.762,93.762,0,0,0-16.531-19.478h0c.588.269,14.481,6.744,22.219,20.99Z" transform="translate(-1057.033 -1365.311)" fill="#12263f"/>
      </g>
      <path id="Trazado_97784" data-name="Trazado 97784" d="M1033.589,1106.237c1.667-3.175,6.045-4.356,9.44-4.787a47.732,47.732,0,0,1,9.7.2c-.532-.061-8.894-7.786-18.376-1.771-.6-5.7-7.611-8.193-7.611-8.193a21.218,21.218,0,0,1,2.137,3.809,13.727,13.727,0,0,1,1.192,8.011c-.581,2.745-2.467,5.033-5.606,6.8C1024.464,1110.306,1031.115,1111.608,1033.589,1106.237Z" transform="translate(-1014.895 -991.362)" fill="#12263f"/>
      <path id="Trazado_97785" data-name="Trazado 97785" d="M1296.414,933.8c3.438-1.018,7.338,1.3,10.013,3.43a47.737,47.737,0,0,1,6.62,7.091c-.327-.424-.619-11.8-11.541-14.409,3.673-4.4.568-11.169.568-11.169a21.231,21.231,0,0,1-1.241,4.188,13.728,13.728,0,0,1-4.912,6.44c-2.373,1.5-5.329,1.74-8.785.723C1287.135,930.1,1290.838,935.771,1296.414,933.8Z" transform="translate(-1228.817 -850.519)" fill="#12263f"/>
      <g id="Grupo_47034" data-name="Grupo 47034" transform="translate(114.931 41.063)">
        <path id="Trazado_97786" data-name="Trazado 97786" d="M1611.1,1007.655c8.936-1.088,16.109-6.188,21.321-15.161l.062-.107a9.162,9.162,0,0,0-3.117-12.307,7.9,7.9,0,0,1-2.039-1.759,41.65,41.65,0,0,0,19.9-3.171,29.892,29.892,0,0,0,10.71-8.092,18.9,18.9,0,0,1-5.915,10.826,20.661,20.661,0,0,1-7.763,3.791c-2.692.592-3.834,3.262-4.827,5.8a51.533,51.533,0,0,1-3.329,6.952,38.613,38.613,0,0,1-8.265,10.147,23.93,23.93,0,0,1,11.262,10.11,22.2,22.2,0,0,1,2.73,7.725,33.373,33.373,0,0,0-6.981-8.546,21.654,21.654,0,0,0-15.357-5.352A36.758,36.758,0,0,1,1611.1,1007.655Z" transform="translate(-1607.589 -930.929)" fill="#12263f"/>
        <g id="Grupo_47031" data-name="Grupo 47031" transform="translate(24.013 81.894)">
          <path id="Trazado_97787" data-name="Trazado 97787" d="M1733.406,1240.639q.64,0,1.283-.037a18.855,18.855,0,0,0,14.316-7.794c5.572-7.411,4.3-14.152,2.257-18.5l-.072-.151c-.848-1.766-1.323,1.538-1.221,3.49.218,4.184-3.079,10.644-7.182,14.143-4.75,4.051-12.442,3.96-18.306,4.156-2.2.073-4.048.219-2.089,1.531A21.135,21.135,0,0,0,1733.406,1240.639Z" transform="translate(-1721.564 -1213.651)" fill="#12263f"/>
        </g>
        <g id="Grupo_47032" data-name="Grupo 47032" transform="translate(0 14.905)">
          <path id="Trazado_97788" data-name="Trazado 97788" d="M1601.9,876.849q.467-.164.927-.355a14.427,14.427,0,0,0,8.4-9.354c2.119-6.837-.581-11.436-3.22-14.09l-.092-.092c-1.084-1.072-.562,1.462.026,2.86,1.26,3,.552,8.561-1.524,12.166-2.4,4.173-8.044,6.075-12.274,7.718-1.584.615-2.9,1.2-1.123,1.652A16.433,16.433,0,0,0,1601.9,876.849Z" transform="translate(-1592.176 -852.701)" fill="#12263f"/>
        </g>
        <g id="Grupo_47033" data-name="Grupo 47033" transform="translate(38.911 117.208)">
          <path id="Trazado_97789" data-name="Trazado 97789" d="M1801.839,1416.817a4.339,4.339,0,0,0,5.88.36,95,95,0,0,1,21.978-13.244h0c-.644.069-15.907,1.824-27.858,12.883Z" transform="translate(-1801.839 -1403.934)" fill="#12263f"/>
        </g>
        <path id="Trazado_97790" data-name="Trazado 97790" d="M1740.7,786.942c-1.667-3.175-6.045-4.356-9.44-4.787a47.739,47.739,0,0,0-9.7.2c.532-.062,8.894-7.786,18.376-1.771.6-5.7,7.611-8.193,7.611-8.193a21.241,21.241,0,0,0-2.137,3.809,13.732,13.732,0,0,0-1.193,8.011c.582,2.745,2.468,5.033,5.606,6.8C1749.828,791.011,1743.177,792.313,1740.7,786.942Z" transform="translate(-1697.552 -772.388)" fill="#12263f"/>
        <path id="Trazado_97791" data-name="Trazado 97791" d="M1868.56,1106.237c-1.667-3.175-6.045-4.356-9.439-4.787a47.734,47.734,0,0,0-9.7.2c.532-.061,8.894-7.786,18.376-1.771.6-5.7,7.612-8.193,7.612-8.193a21.214,21.214,0,0,0-2.137,3.809,13.726,13.726,0,0,0-1.193,8.011c.582,2.745,2.468,5.033,5.606,6.8C1877.685,1110.306,1871.034,1111.608,1868.56,1106.237Z" transform="translate(-1801.68 -1032.425)" fill="#12263f"/>
      </g>
      <g id="Grupo_47035" data-name="Grupo 47035" transform="translate(98.256 7.187)">
        <rect id="Rectángulo_28323" data-name="Rectángulo 28323" width="186.259" height="4.168" transform="translate(0 186.258) rotate(-89.865)" fill="url(#linear-gradient)"/>
      </g>
    </g>
    <g id="Grupo_47040" data-name="Grupo 47040" transform="translate(957.252 384.468)">
      <path id="Trazado_97792" data-name="Trazado 97792" d="M2098.546,1199.864s-.525-1.18-.865-1.738-1.791-2.2-2.038-1.825-1.235,2.865-.71,3.563-.034,1.914,2.577,2.649Z" transform="translate(-2036.813 -1164.175)" fill="#ffb27d"/>
      <path id="Trazado_97793" data-name="Trazado 97793" d="M2139.065,1175.6s-13.365,11.156-18.576,10.124a102.75,102.75,0,0,1-10.329-2.952l-1.25,3.2s5.609,7.608,11.456,7.658a33.31,33.31,0,0,0,15.893-3.957Z" transform="translate(-2048.318 -1147.359)" fill="#7d6eb2"/>
      <path id="Trazado_97794" data-name="Trazado 97794" d="M2330.227,1800.824s-.388,6.259-1.6,6.348c-.161.012-6.142.012-6.142.012l-7.634-.045a2.477,2.477,0,0,1,2.281-2.228c2.231-.389,5.966-1.957,7.318-4.907C2325.875,1796.9,2330.227,1800.824,2330.227,1800.824Z" transform="translate(-2216.041 -1654.909)" fill="#b54273"/>
      <path id="Trazado_97795" data-name="Trazado 97795" d="M2286.411,1472.931a15.915,15.915,0,0,1-4.133.776,15.174,15.174,0,0,1-3.858-.551,105.65,105.65,0,0,0-2.841-13.535c-1.261-4.88-3.061-11.154-5.622-18.95-7.081-21.547-9.235-34.152-9.431-35.346-.011-.062-.015-.094-.015-.094l.023-.011,21.771-9.559s-2.691,29.7.742,41.095a48.1,48.1,0,0,1,1.246,5.461C2286.461,1454.6,2286.411,1472.931,2286.411,1472.931Z" transform="translate(-2171.785 -1326.581)" fill="#00223d"/>
      <path id="Trazado_97796" data-name="Trazado 97796" d="M2275.644,1459.622c-1.261-4.88-3.061-11.154-5.622-18.95-7.081-21.547-9.235-34.152-9.431-35.346,0-.035,0-.069.008-.1l21.77-9.559s-2.691,29.7.742,41.095C2283.593,1438.351,2275.644,1459.622,2275.644,1459.622Z" transform="translate(-2171.849 -1326.581)" fill="#073458"/>
      <path id="Trazado_97797" data-name="Trazado 97797" d="M2238.606,1800.824s-.388,6.259-1.6,6.348c-.161.012-6.141.012-6.141.012l-7.634-.045a2.477,2.477,0,0,1,2.281-2.228c2.232-.389,5.967-1.957,7.319-4.907C2234.254,1796.9,2238.606,1800.824,2238.606,1800.824Z" transform="translate(-2141.424 -1654.909)" fill="#b54273"/>
      <path id="Trazado_97798" data-name="Trazado 97798" d="M2239.54,1399.434a309.953,309.953,0,0,0,3.047,42.871c3.33,23.628,2.2,33.657,2.2,33.657a22.685,22.685,0,0,0,3.21.816,14.566,14.566,0,0,0,4.764-.551s4.766-23.637,3.4-35.463,6.526-40.581,6.526-40.581Z" transform="translate(-2154.7 -1329.652)" fill="#00223d"/>
      <path id="Trazado_97799" data-name="Trazado 97799" d="M2281.759,1110.015l-2.971,3.831-6.237.339c-.035-.5-.126-2.594-.207-4.489,0-.112-.008-.224-.013-.333-.067-1.613-.094-3.382-.094-3.382l4.946-3.431,1.855-1.422c0,.034.291,1.744.292,2C2279.35,1108.047,2281.759,1110.015,2281.759,1110.015Z" transform="translate(-2181.333 -1086.709)" fill="#ffb27d"/>
      <path id="Trazado_97800" data-name="Trazado 97800" d="M2232.691,1195.567c.087,10.157.764,33.918,1.263,34.4,5.29,5.107,28.56-1.4,29.794-7.026s-4.689-72.137-13.725-74.793c-1.875-.55-11.9,2.69-11.9,2.69a63.578,63.578,0,0,0-2.6,9.353c-.382,1.942-1.63,15.8-2.358,25.052-.192,2.468-.35,4.608-.442,6.109C2232.683,1191.975,2232.674,1193.487,2232.691,1195.567Z" transform="translate(-2149.121 -1124.953)" fill="#7d6eb2"/>
      <path id="Trazado_97801" data-name="Trazado 97801" d="M2278.8,1108.829c-.719,2.37-4.844,5.272-6.585,6.393,0-.112-.008-.224-.013-.333-.067-1.613-.123-4.872-.123-4.872l4.975-1.941C2278.281,1107.76,2279.1,1107.854,2278.8,1108.829Z" transform="translate(-2181.205 -1092.236)" fill="#fca56b"/>
      <path id="Trazado_97802" data-name="Trazado 97802" d="M2258.209,1055.645s9.238,2.882,10.944-2.9,4.048-9.3-1.779-11.386-7.628-.218-8.667,1.573S2255.85,1054.747,2258.209,1055.645Z" transform="translate(-2168.969 -1037.285)" fill="#ffb27d"/>
      <path id="Trazado_97803" data-name="Trazado 97803" d="M2264.105,1028.526s.589,6.726,1.98,6.435,3.227-.34,3.023,1.688,1.714,5.468,2.992,5.46c4.3-.027,9.04-11.6,7.862-13.692C2276.563,1022.376,2259.194,1021.158,2264.105,1028.526Z" transform="translate(-2174.004 -1023.434)" fill="#00223d"/>
      <path id="Trazado_97804" data-name="Trazado 97804" d="M2264.459,1136.768c.119-.05,6.877-3.082,7.667-2.821s1.775,2.675,1.775,2.675l-11.9,2.69A5.91,5.91,0,0,1,2264.459,1136.768Z" transform="translate(-2172.999 -1113.425)" fill="#635986"/>
      <g id="Grupo_47038" data-name="Grupo 47038" transform="translate(0 4.26)">
        <path id="Trazado_97805" data-name="Trazado 97805" d="M2038.031,1309.9l34.744,36.9a1.824,1.824,0,0,0,2.571.026l2.364-2.224a1.824,1.824,0,0,0,.13-2.568l-34.812-36.966c-.671-.713-1.255-.152-2,.547l-2.363,2.224C2037.923,1308.538,2037.359,1309.188,2038.031,1309.9Z" transform="translate(-1990.35 -1256.791)" fill="#00223d"/>
        <path id="Trazado_97806" data-name="Trazado 97806" d="M2141.984,1420.575l15.645,16.629a1.86,1.86,0,0,0,2.621.08l2.364-2.224a1.86,1.86,0,0,0,.08-2.621l-15.645-16.629Z" transform="translate(-2075.254 -1347.25)" fill="#d5f2e8"/>
        <path id="Trazado_97807" data-name="Trazado 97807" d="M1790.5,1096.426a29.692,29.692,0,1,0,1.281-41.969c-.156.149-.313.3-.464.45A29.687,29.687,0,0,0,1790.5,1096.426Zm2.547-40.624a27.849,27.849,0,1,1-1.2,39.357A27.719,27.719,0,0,1,1793.043,1055.8Z" transform="translate(-1782.43 -1046.391)" fill="#00223d"/>
        <g id="Grupo_47037" data-name="Grupo 47037" transform="translate(1.849 1.849)" opacity="0.3">
          <path id="Trazado_97808" data-name="Trazado 97808" d="M1799.96,1103.273a27.856,27.856,0,1,0,1.2-39.356A27.706,27.706,0,0,0,1799.96,1103.273Z" transform="translate(-1792.396 -1056.355)" fill="#b3cff9"/>
        </g>
      </g>
      <path id="Trazado_97809" data-name="Trazado 97809" d="M2232.691,1248.07c22.079-14.952,20.279-35.516,20.279-35.516-8.615,4.86-17.154,16.364-19.808,25.194-.192,2.468-.35,4.608-.442,6.109C2232.683,1244.478,2232.674,1245.989,2232.691,1248.07Z" transform="translate(-2149.121 -1177.455)" fill="#635986"/>
      <g id="Grupo_47039" data-name="Grupo 47039" transform="translate(58.115 25.888)">
        <path id="Trazado_97810" data-name="Trazado 97810" d="M2101.564,1355.919a5.7,5.7,0,0,1-2.666-1.647s-.628.043.1,1.382c.061.112.2.4.3.6a.13.13,0,0,1-.109.187,13.9,13.9,0,0,0-3.34.07c-.226.047-.292.588-.283.818a2.088,2.088,0,0,0,.44,1.425,7.3,7.3,0,0,0,2.638,1.382,7.974,7.974,0,0,0,4.081-.513l1.336-.619-.415-2.484-.335.071C2102.78,1356.706,2102.12,1356.055,2101.564,1355.919Z" transform="translate(-2095.568 -1318.76)" fill="#ffb27d"/>
        <path id="Trazado_97811" data-name="Trazado 97811" d="M2167.854,1162.926s18.755,3.571-5.518,30.731c-3.882,4.344-24.856,10-24.856,10s-2.127-1.81-1.055-3.276c0,0,14.441-10.486,17.619-12.154,1.429-.75,5.548-16.738,7.878-20.588A10.5,10.5,0,0,1,2167.854,1162.926Z" transform="translate(-2128.596 -1162.926)" fill="#7d6eb2"/>
      </g>
      <path id="Trazado_97812" data-name="Trazado 97812" d="M2101.163,1197.453a9.565,9.565,0,0,1-.733-1.791,9.9,9.9,0,0,0-1.21-2.74c-.128-.127-.548.037-.6.584a3.176,3.176,0,0,0,.3,1.186,13.371,13.371,0,0,1,.4,2.357C2099.611,1197.995,2101.163,1197.453,2101.163,1197.453Z" transform="translate(-2039.939 -1161.434)" fill="#ffb27d"/>
    </g>
    <g id="Grupo_47043" data-name="Grupo 47043" transform="translate(887.341 275.695)">
      <g id="Grupo_47041" data-name="Grupo 47041" transform="translate(0)">
        <path id="Trazado_97813" data-name="Trazado 97813" d="M1651.977,694.3a1.09,1.09,0,0,1,.194,1.166.01.01,0,0,1,0,.006,7.246,7.246,0,0,1-2.289,2.511c-.138.111-.261.213-.367.306-.028.025-.056.049-.082.074l-.064.057c-1.006.928-.627,1.14-2.435,3.022-2.061,2.144-3.48,2.183-3.884,1.988-.342-.166.353-1.3,1.121-2.582.037-.062.074-.124.112-.187.1-.17.2-.342.306-.513.9-1.539.67-2.26.456-4.55-.173-1.861-2.895-10.4-2.895-10.4l3.95-.68s1.189,6.8,2.5,7.842c.7.558,1.485.565,2.159.978.048.029.094.058.14.089A5.187,5.187,0,0,1,1651.977,694.3Z" transform="translate(-1608.272 -608.645)" fill="#ffb27d"/>
        <path id="Trazado_97814" data-name="Trazado 97814" d="M1655.532,733.394a1.089,1.089,0,0,1,.194,1.166.01.01,0,0,1,0,.006,8.393,8.393,0,0,1-2.293,2.5c-.136.113-.257.217-.364.314-.028.025-.056.049-.082.074l-.064.057c-1.006.928-.627,1.14-2.435,3.022-2.061,2.145-3.48,2.183-3.884,1.988-.341-.166.353-1.3,1.121-2.582a8.785,8.785,0,0,0,3.674-2.707c1.2-1.526,2.008-3.471,2.822-4.666l.232-.043A5.182,5.182,0,0,1,1655.532,733.394Z" transform="translate(-1611.827 -647.742)" fill="#233862"/>
        <path id="Trazado_97815" data-name="Trazado 97815" d="M1471.476,686.555c-.244,1.219-1.982,1.016-3.924.541s-1.48.089-4.244-.216-3.6-1.336-3.685-1.747c-.075-.365,1.29-.493,2.755-.662.184-.021.369-.043.554-.066,1.654-.207,2.865-1.274,4.367-2.151,1.422-.83,3.546-4.212,3.546-4.212l3.79.3s-1.989,3.021-2.758,4.334a4.581,4.581,0,0,0-.372,2.583A4.858,4.858,0,0,1,1471.476,686.555Z" transform="translate(-1459.621 -603.371)" fill="#ffb27d"/>
        <path id="Trazado_97816" data-name="Trazado 97816" d="M1467.552,715.309c-1.942-.475-1.48.089-4.244-.216s-3.6-1.336-3.685-1.747c-.075-.365,1.29-.493,2.755-.662l.014.028a7.789,7.789,0,0,0,3.958,1.23c1.875.045,3.861-.491,5.155-.471a4.858,4.858,0,0,1-.029,1.3C1471.232,715.986,1469.494,715.783,1467.552,715.309Z" transform="translate(-1459.621 -631.583)" fill="#233862"/>
        <path id="Trazado_97817" data-name="Trazado 97817" d="M1601.755,566.681l3.543,9.533,4.625,12.448a7.491,7.491,0,0,0,2.457-.225,10.647,10.647,0,0,0,2.376-1.157s-1.284-13.365-3.68-21.037a13.659,13.659,0,0,0-2.062-4.459C1605.3,557.395,1601.755,566.681,1601.755,566.681Z" transform="translate(-1575.376 -507.729)" fill="#dbdada"/>
        <path id="Trazado_97818" data-name="Trazado 97818" d="M1529.23,503.407c2.017-.65,7.279-.01,12.986,1.023a3.871,3.871,0,0,0,4-1.805h0l14.363-1.122s5.722,11.374,1.455,17.151c-2.493,3.375-10.9,2.892-13.44,2.37-7-1.435-14.952-5.591-15.984-5.8-1.688-.338-2.364,3.039-4.052,6.585s-15.871,15.7-15.871,15.7a12.489,12.489,0,0,1-3.08-.316,3.036,3.036,0,0,1-1.323-.835S1524,505.1,1529.23,503.407Z" transform="translate(-1499.249 -459.595)" fill="#eff4ef"/>
        <path id="Trazado_97819" data-name="Trazado 97819" d="M1700.8,462.444c-.062,8.253-2.192,12.045-2.192,12.045-18.492-2.481-22.583-19.487-22.583-19.487a6.665,6.665,0,0,0,5.412-2.446l15.565-9.93.946-.6.974-.621s.291,1.573.646,4.109a129.642,129.642,0,0,1,1.2,13.792C1700.794,460.344,1700.807,461.394,1700.8,462.444Z" transform="translate(-1635.861 -410.648)" fill="#00223d"/>
        <path id="Trazado_97820" data-name="Trazado 97820" d="M1696.746,298.944c5.115,2.816,15.491,8.655,15.545,8.617,0,0,3.814,1.437,5.978,0,3.606-2.395,5.54-8.84-1.055-14.387-3.289-2.766-5.626-3.44-5.981-7.857-.193-2.406-3.495-10.368-8.977-9.565a7.623,7.623,0,0,1-1.325.08,5.094,5.094,0,0,0-2.743.714C1695.108,278.38,1689.078,297.854,1696.746,298.944Z" transform="translate(-1649.698 -275.695)" fill="#00223d"/>
        <path id="Trazado_97821" data-name="Trazado 97821" d="M1733.365,352.757c-.022.014,2.517.881,4.214.13,1.6-.706,2.807-3.334,2.784-3.335-.727-.034-1.556-1.2-2.139-4.837l-.31.111-5.2,1.872s.377,1.669.621,3.258C1733.539,351.29,1733.649,352.569,1733.365,352.757Z" transform="translate(-1682.03 -331.906)" fill="#ffb27d"/>
        <path id="Trazado_97822" data-name="Trazado 97822" d="M1732.713,347.185s.207.9.51,2.583a5.873,5.873,0,0,0,4.691-4.455Z" transform="translate(-1682.03 -332.393)" fill="#ed975d"/>
        <path id="Trazado_97823" data-name="Trazado 97823" d="M1712.5,309.388s7.117-.955,6.454-5.378-.191-7.525-4.764-7.1-5.2,2.243-5.338,3.773S1710.635,309.522,1712.5,309.388Z" transform="translate(-1662.595 -292.939)" fill="#ffb27d"/>
        <path id="Trazado_97824" data-name="Trazado 97824" d="M1710.284,296.539s4.556,3.926,7.655,4.243,4.272-.678,4.272-.678a12.1,12.1,0,0,1-2.926-3.964,2.18,2.18,0,0,0-1.8-1.285C1715.276,294.664,1711.082,294.577,1710.284,296.539Z" transform="translate(-1663.764 -291.223)" fill="#00223d"/>
        <path id="Trazado_97825" data-name="Trazado 97825" d="M1709.482,298.711a11.221,11.221,0,0,0-2,2.567,8.616,8.616,0,0,0-.233,4.58s-2.375-4.618-1.03-6.861C1707.64,296.617,1709.482,298.711,1709.482,298.711Z" transform="translate(-1660.113 -293.746)" fill="#00223d"/>
        <path id="Trazado_97826" data-name="Trazado 97826" d="M1703.928,383.6c.215,14.407.059,11.4,1.635,12.764a6.052,6.052,0,0,0,2.852.618c4.418.293,12.184-.434,12.479-1.251,1.019-2.825.3-3.7,1.15-8.027.088-.46.2-.958.327-1.5.709-2.97,1.4-3.981-1.116-8.753-2.281-4.323-4.605-7.861-4.819-7.734-6.017,3.572-6.546.6-6.546.6S1703.822,376.573,1703.928,383.6Z" transform="translate(-1658.586 -352.264)" fill="#00223d"/>
        <path id="Trazado_97827" data-name="Trazado 97827" d="M1620.844,600.952l4.625,12.448a7.492,7.492,0,0,0,2.457-.225,10.649,10.649,0,0,0,2.376-1.157s-1.284-13.365-3.68-21.037Z" transform="translate(-1590.923 -532.467)" fill="#eff4ef"/>
        <path id="Trazado_97828" data-name="Trazado 97828" d="M1694.771,372.955s-5.458.8-6.238,3.81c-.692,2.675-3.171,17.833-3.171,17.833s1.116,2.622,2.57,1.168,4.576-15.138,4.576-15.138Z" transform="translate(-1643.468 -354.905)" fill="#00223d"/>
        <path id="Trazado_97829" data-name="Trazado 97829" d="M1719.492,504.895a8.427,8.427,0,0,1-1.213,1.318.893.893,0,0,1-.493.106l.615-1.108Z" transform="translate(-1669.874 -462.358)" fill="#ffb27d"/>
        <path id="Trazado_97830" data-name="Trazado 97830" d="M1716.462,498.359l-2.655,1.289a.473.473,0,0,0,.44.17,6.318,6.318,0,0,0,1.151-.316Z" transform="translate(-1666.633 -457.035)" fill="#ffb27d"/>
        <path id="Trazado_97831" data-name="Trazado 97831" d="M1752.737,459.215c-4.107-.325-14.466-3.817-12.7-6.281.82-1.14,6.307-1.647,9.14-5.261.763-.974-.1-3.63-.208-5.135-.047-.648-.015-1.118.208-1.224.206-.1.468.174.738.621a22.447,22.447,0,0,1,1.484,3.52l.136-.032A129.679,129.679,0,0,1,1752.737,459.215Z" transform="translate(-1687.834 -410.56)" fill="#344966"/>
        <path id="Trazado_97832" data-name="Trazado 97832" d="M1721.523,498.543s-4.358-.97-5.062-.583a10.244,10.244,0,0,0-2.637,2.285c-.215.49,1.566-.372,2.145-.527a5.156,5.156,0,0,1,1.851.405,6.151,6.151,0,0,0,3.317.333Z" transform="translate(-1666.632 -456.635)" fill="#ffb27d"/>
        <path id="Trazado_97833" data-name="Trazado 97833" d="M1754.221,369.731s5.812.387,7.837,3.213c2.852,3.977,5.913,20.986,2.671,23.247-3.651,2.546-14.021.609-14.021.609s-.971-2.884.169-2.992c3.09-.295,9.127-1.58,9.07-2.928-.086-2.05-3.892-8.854-3.892-10.2S1754.221,369.731,1754.221,369.731Z" transform="translate(-1696.37 -352.279)" fill="#00223d"/>
      </g>
      <g id="Grupo_47042" data-name="Grupo 47042" transform="translate(21.086 29.256)">
        <path id="Trazado_97834" data-name="Trazado 97834" d="M1605.951,514.69h27.733v.612H1606.2Z" transform="translate(-1599.879 -499.592)" fill="#00223d"/>
        <path id="Trazado_97835" data-name="Trazado 97835" d="M1600.555,449.046h-21l-6.318-15.711h20.97Z" transform="translate(-1573.235 -433.335)" fill="#00223d"/>
        <path id="Trazado_97836" data-name="Trazado 97836" d="M1635.666,471.274a.728.728,0,0,1,.713-1,1.433,1.433,0,0,1,1.286,1,.728.728,0,0,1-.713,1A1.433,1.433,0,0,1,1635.666,471.274Z" transform="translate(-1624.046 -463.419)" fill="#fff"/>
      </g>
    </g>
    <g id="Grupo_47063" data-name="Grupo 47063" transform="translate(756.929 314.963)">
      <rect id="Rectángulo_28324" data-name="Rectángulo 28324" width="117.686" height="78.803" rx="2" fill="#12263f" opacity="0.8"/>
      <g id="Grupo_47053" data-name="Grupo 47053" transform="translate(10.159 7.651)">
        <path id="Trazado_97837" data-name="Trazado 97837" d="M920.357,529.409s3.419-2.558,9.594.928a6.82,6.82,0,0,1,3.928,4.386,5.742,5.742,0,0,0,1.092,2.288,7.2,7.2,0,0,1,1.557,3.915,6.752,6.752,0,0,0,.811,2.7,8.326,8.326,0,0,1,.887,4.831s1.976,2.161.865,6.978a6.926,6.926,0,0,1-1.137,5.743s.509,3.475-2.445,4.64a7.074,7.074,0,0,1-6.2,3.834,5.934,5.934,0,0,0-1.956.44,7.392,7.392,0,0,1-4.751.1c-3.706-.988-3.334-3.268-3.334-3.268V529.964Z" transform="translate(-899.291 -528.505)" fill="url(#linear-gradient)"/>
        <path id="Trazado_97838" data-name="Trazado 97838" d="M830.74,529.409s-3.419-2.558-9.594.928a6.758,6.758,0,0,0-3.975,4.612,4.139,4.139,0,0,1-.911,1.9,7.205,7.205,0,0,0-1.711,4.417,4.3,4.3,0,0,1-.637,2.1,7.815,7.815,0,0,0-1.084,4.026,4.294,4.294,0,0,1-.447,1.847,9.152,9.152,0,0,0-.375,6.2,6.991,6.991,0,0,0,.528,4.767,5.653,5.653,0,0,1,.6,2.071,4.114,4.114,0,0,0,1.641,3.112,5.858,5.858,0,0,1,1.37,1.35,7.165,7.165,0,0,0,5.38,2.9,8.762,8.762,0,0,1,2.372.516,7.515,7.515,0,0,0,4.6.044c3.706-.988,3.334-3.268,3.334-3.268V529.964Z" transform="translate(-811.666 -528.505)" fill="url(#linear-gradient)"/>
        <g id="Grupo_47052" data-name="Grupo 47052" transform="translate(1.914 1.458)">
          <path id="Trazado_97839" data-name="Trazado 97839" d="M859.006,621.116a5.633,5.633,0,0,1-4.265-3.076l-.012-.022a1.873,1.873,0,0,1,.624-2.5,1.591,1.591,0,0,0,.408-.357,8.223,8.223,0,0,1-3.981-.643,6,6,0,0,1-2.142-1.642,3.855,3.855,0,0,0,1.183,2.2,4.11,4.11,0,0,0,1.553.769c.539.12.767.662.966,1.176a10.53,10.53,0,0,0,.666,1.41,7.814,7.814,0,0,0,1.653,2.058,4.815,4.815,0,0,0-2.253,2.051,4.541,4.541,0,0,0-.546,1.567,6.758,6.758,0,0,1,1.4-1.734,4.3,4.3,0,0,1,3.072-1.086A7.256,7.256,0,0,0,859.006,621.116Z" transform="translate(-844.504 -598.679)" fill="#00223d" opacity="0.8"/>
          <g id="Grupo_47044" data-name="Grupo 47044" transform="translate(4.112 23.485)">
            <path id="Trazado_97840" data-name="Trazado 97840" d="M848.056,668.38c-.085,0-.171,0-.257-.008a3.759,3.759,0,0,1-2.864-1.581,3.511,3.511,0,0,1-.451-3.754l.014-.031c.17-.358.265.312.244.708a4.252,4.252,0,0,0,1.437,2.869c.95.822,2.489.8,3.662.843.439.015.81.044.418.31A4.184,4.184,0,0,1,848.056,668.38Z" transform="translate(-844.136 -662.905)" fill="#00223d" opacity="0.8"/>
          </g>
          <g id="Grupo_47045" data-name="Grupo 47045" transform="translate(11.24 9.896)">
            <path id="Trazado_97841" data-name="Trazado 97841" d="M884.562,594.581q-.094-.033-.185-.072a2.913,2.913,0,0,1-1.681-1.9,2.721,2.721,0,0,1,.644-2.858l.019-.019c.217-.217.112.3-.005.58a3.3,3.3,0,0,0,.3,2.468,4.61,4.61,0,0,0,2.456,1.566c.317.125.58.242.224.335A3.244,3.244,0,0,1,884.562,594.581Z" transform="translate(-882.543 -589.682)" fill="#00223d" opacity="0.8"/>
          </g>
          <g id="Grupo_47046" data-name="Grupo 47046" transform="translate(1.209 29.195)">
            <path id="Trazado_97842" data-name="Trazado 97842" d="M832.941,697.929a.86.86,0,0,1-1.138-.307,18.944,18.944,0,0,0-3.307-3.951h0a10.606,10.606,0,0,1,4.445,4.258Z" transform="translate(-828.496 -693.671)" fill="#00223d" opacity="0.8"/>
          </g>
          <path id="Trazado_97843" data-name="Trazado 97843" d="M889.908,689.671a2.423,2.423,0,0,1-.727-1.995,9.406,9.406,0,0,1,.282-1.92,3.2,3.2,0,0,0-.816,3.6c-1.163-.027-1.839,1.3-1.839,1.3a4.321,4.321,0,0,1,.82-.327,2.819,2.819,0,0,1,1.642-.034,2.108,2.108,0,0,1,1.229,1.285A1.685,1.685,0,0,0,889.908,689.671Z" transform="translate(-874.776 -658.03)" fill="#00223d" opacity="0.8"/>
          <path id="Trazado_97844" data-name="Trazado 97844" d="M849.382,576.342a2.423,2.423,0,0,1,1.888-.971,9.413,9.413,0,0,1,1.94.04,3.2,3.2,0,0,0-3.676-.359c-.119-1.157-1.523-1.662-1.523-1.662a4.317,4.317,0,0,1,.427.773,2.82,2.82,0,0,1,.239,1.625,2.109,2.109,0,0,1-1.122,1.38A1.685,1.685,0,0,0,849.382,576.342Z" transform="translate(-842.81 -566.518)" fill="#00223d" opacity="0.8"/>
          <path id="Trazado_97845" data-name="Trazado 97845" d="M823.805,641.115a2.424,2.424,0,0,1,1.888-.971,9.428,9.428,0,0,1,1.94.04,3.2,3.2,0,0,0-3.676-.359c-.119-1.157-1.523-1.662-1.523-1.662a4.334,4.334,0,0,1,.427.773,2.82,2.82,0,0,1,.239,1.625,2.109,2.109,0,0,1-1.122,1.38A1.686,1.686,0,0,0,823.805,641.115Z" transform="translate(-821.98 -619.269)" fill="#00223d" opacity="0.8"/>
          <path id="Trazado_97846" data-name="Trazado 97846" d="M885.123,541.254a3.025,3.025,0,0,0,.908-2.491,11.754,11.754,0,0,0-.352-2.4c.032.13,2.234,1.958,1.019,4.5,1.452-.033,2.3,1.627,2.3,1.627a5.394,5.394,0,0,0-1.024-.409,3.52,3.52,0,0,0-2.051-.042,2.633,2.633,0,0,0-1.534,1.6A2.1,2.1,0,0,1,885.123,541.254Z" transform="translate(-872.712 -536.365)" fill="#00223d" opacity="0.8"/>
          <path id="Trazado_97847" data-name="Trazado 97847" d="M860.166,708.427a2.825,2.825,0,0,0,.848-2.326,10.983,10.983,0,0,0-.329-2.238c.03.121,2.086,1.828.952,4.2,1.355-.031,2.144,1.519,2.144,1.519a5.062,5.062,0,0,0-.956-.382,3.287,3.287,0,0,0-1.915-.039,2.458,2.458,0,0,0-1.432,1.5A1.965,1.965,0,0,1,860.166,708.427Z" transform="translate(-852.434 -672.776)" fill="#00223d" opacity="0.8"/>
          <g id="Grupo_47050" data-name="Grupo 47050" transform="translate(19.999 0.001)">
            <path id="Trazado_97848" data-name="Trazado 97848" d="M939.332,621.116a5.633,5.633,0,0,0,4.265-3.076l.012-.022a1.873,1.873,0,0,0-.624-2.5,1.589,1.589,0,0,1-.408-.357,8.223,8.223,0,0,0,3.98-.643,6,6,0,0,0,2.142-1.642,3.855,3.855,0,0,1-1.183,2.2,4.109,4.109,0,0,1-1.553.769c-.539.12-.767.662-.966,1.176a10.53,10.53,0,0,1-.666,1.41,7.817,7.817,0,0,1-1.653,2.058,4.812,4.812,0,0,1,2.253,2.051,4.549,4.549,0,0,1,.546,1.567,6.759,6.759,0,0,0-1.4-1.734,4.3,4.3,0,0,0-3.072-1.086A7.256,7.256,0,0,1,939.332,621.116Z" transform="translate(-937.552 -598.68)" fill="#00223d" opacity="0.8"/>
            <g id="Grupo_47047" data-name="Grupo 47047" transform="translate(5.881 23.484)">
              <path id="Trazado_97849" data-name="Trazado 97849" d="M963.8,668.38c.085,0,.171,0,.257-.008a3.758,3.758,0,0,0,2.864-1.581,3.511,3.511,0,0,0,.452-3.754l-.014-.031c-.17-.358-.265.312-.244.708a4.252,4.252,0,0,1-1.437,2.869c-.95.822-2.489.8-3.662.843-.439.015-.81.044-.418.31A4.184,4.184,0,0,0,963.8,668.38Z" transform="translate(-961.429 -662.905)" fill="#00223d" opacity="0.8"/>
            </g>
            <g id="Grupo_47048" data-name="Grupo 47048" transform="translate(1.078 9.895)">
              <path id="Trazado_97850" data-name="Trazado 97850" d="M937.492,594.581q.094-.033.185-.072a2.913,2.913,0,0,0,1.681-1.9,2.721,2.721,0,0,0-.644-2.858l-.018-.019c-.217-.217-.112.3.005.58a3.294,3.294,0,0,1-.3,2.468,4.61,4.61,0,0,1-2.455,1.566c-.317.125-.58.242-.225.335A3.244,3.244,0,0,0,937.492,594.581Z" transform="translate(-935.546 -589.682)" fill="#00223d" opacity="0.8"/>
            </g>
            <g id="Grupo_47049" data-name="Grupo 47049" transform="translate(10.127 29.451)">
              <path id="Trazado_97851" data-name="Trazado 97851" d="M984.3,697.668a.859.859,0,0,0,1.176.073,18.942,18.942,0,0,1,4.4-2.687h0a10.605,10.605,0,0,0-5.573,2.614Z" transform="translate(-984.305 -695.054)" fill="#00223d" opacity="0.8"/>
            </g>
            <path id="Trazado_97852" data-name="Trazado 97852" d="M932.953,689.671a2.423,2.423,0,0,0,.727-1.995,9.419,9.419,0,0,0-.282-1.92,3.2,3.2,0,0,1,.816,3.6c1.163-.027,1.839,1.3,1.839,1.3a4.327,4.327,0,0,0-.82-.327,2.82,2.82,0,0,0-1.642-.034,2.109,2.109,0,0,0-1.229,1.285A1.686,1.686,0,0,1,932.953,689.671Z" transform="translate(-931.803 -658.031)" fill="#00223d" opacity="0.8"/>
            <path id="Trazado_97853" data-name="Trazado 97853" d="M965.257,576.342a2.423,2.423,0,0,0-1.888-.971,9.415,9.415,0,0,0-1.94.04,3.2,3.2,0,0,1,3.676-.359c.119-1.157,1.523-1.662,1.523-1.662a4.306,4.306,0,0,0-.427.773,2.821,2.821,0,0,0-.239,1.625,2.108,2.108,0,0,0,1.122,1.38A1.686,1.686,0,0,1,965.257,576.342Z" transform="translate(-955.548 -566.519)" fill="#00223d" opacity="0.8"/>
            <path id="Trazado_97854" data-name="Trazado 97854" d="M990.834,641.115a2.424,2.424,0,0,0-1.888-.971,9.426,9.426,0,0,0-1.94.04,3.2,3.2,0,0,1,3.676-.359c.119-1.157,1.523-1.662,1.523-1.662a4.325,4.325,0,0,0-.428.773,2.819,2.819,0,0,0-.239,1.625,2.109,2.109,0,0,0,1.121,1.38A1.686,1.686,0,0,1,990.834,641.115Z" transform="translate(-976.378 -619.27)" fill="#00223d" opacity="0.8"/>
            <path id="Trazado_97855" data-name="Trazado 97855" d="M933.612,541.254a3.025,3.025,0,0,1-.908-2.491,11.754,11.754,0,0,1,.352-2.4c-.032.13-2.234,1.958-1.019,4.5-1.452-.033-2.3,1.627-2.3,1.627a5.384,5.384,0,0,1,1.024-.409,3.52,3.52,0,0,1,2.051-.042,2.633,2.633,0,0,1,1.534,1.6A2.1,2.1,0,0,0,933.612,541.254Z" transform="translate(-929.74 -536.366)" fill="#00223d" opacity="0.8"/>
            <path id="Trazado_97856" data-name="Trazado 97856" d="M959.943,708.427a2.826,2.826,0,0,1-.848-2.326,10.993,10.993,0,0,1,.329-2.238c-.03.121-2.086,1.828-.951,4.2-1.355-.031-2.144,1.519-2.144,1.519a5.055,5.055,0,0,1,.956-.382,3.286,3.286,0,0,1,1.914-.039,2.458,2.458,0,0,1,1.433,1.5A1.965,1.965,0,0,0,959.943,708.427Z" transform="translate(-951.394 -672.777)" fill="#00223d" opacity="0.8"/>
          </g>
          <g id="Grupo_47051" data-name="Grupo 47051" transform="translate(17.739 0)">
            <rect id="Rectángulo_28325" data-name="Rectángulo 28325" width="37.785" height="0.834" transform="translate(0 37.785) rotate(-89.862)" fill="#00223d" opacity="0.8"/>
          </g>
        </g>
      </g>
      <g id="Grupo_47054" data-name="Grupo 47054" transform="translate(53.834 5.931)">
        <rect id="Rectángulo_28326" data-name="Rectángulo 28326" width="31.212" height="3.178" fill="#7d6eb2"/>
        <rect id="Rectángulo_28327" data-name="Rectángulo 28327" width="24.983" height="1.589" transform="translate(0 7.673)" fill="url(#linear-gradient)"/>
        <rect id="Rectángulo_28328" data-name="Rectángulo 28328" width="16.311" height="1.589" transform="translate(0 11.954)" fill="#8ec8c8"/>
        <rect id="Rectángulo_28329" data-name="Rectángulo 28329" width="16.311" height="1.589" transform="translate(18.753 11.954)" fill="url(#linear-gradient)"/>
        <rect id="Rectángulo_28330" data-name="Rectángulo 28330" width="15.068" height="1.589" transform="translate(27.529 7.673)" fill="#8ec8c8"/>
        <rect id="Rectángulo_28331" data-name="Rectángulo 28331" width="14.485" height="3.178" transform="translate(33.08)" fill="#f5ca56"/>
      </g>
      <g id="Grupo_47055" data-name="Grupo 47055" transform="translate(9.478 57.437)">
        <rect id="Rectángulo_28332" data-name="Rectángulo 28332" width="24.929" height="2.539" fill="#7d6eb2"/>
        <rect id="Rectángulo_28333" data-name="Rectángulo 28333" width="19.954" height="1.269" transform="translate(0 6.128)" fill="url(#linear-gradient)"/>
        <rect id="Rectángulo_28334" data-name="Rectángulo 28334" width="13.027" height="1.269" transform="translate(0 9.547)" fill="url(#linear-gradient)"/>
        <rect id="Rectángulo_28335" data-name="Rectángulo 28335" width="13.028" height="1.269" transform="translate(14.978 9.547)" fill="#8ec8c8"/>
        <rect id="Rectángulo_28336" data-name="Rectángulo 28336" width="12.035" height="1.269" transform="translate(21.988 6.128)" fill="url(#linear-gradient)"/>
        <rect id="Rectángulo_28337" data-name="Rectángulo 28337" width="11.57" height="2.539" transform="translate(26.421)" fill="#f5ca56"/>
      </g>
      <g id="Grupo_47057" data-name="Grupo 47057" transform="translate(56.87 27.864)">
        <path id="Trazado_97857" data-name="Trazado 97857" d="M1202,637.96a1.882,1.882,0,1,1-2.662.016A1.882,1.882,0,0,1,1202,637.96Z" transform="translate(-1173.658 -637.417)" fill="#8ec8c8"/>
        <path id="Trazado_97858" data-name="Trazado 97858" d="M1159.815,680.409a2.094,2.094,0,1,1-2.962.018A2.094,2.094,0,0,1,1159.815,680.409Z" transform="translate(-1139.009 -671.938)" fill="#8ec8c8"/>
        <path id="Trazado_97859" data-name="Trazado 97859" d="M1111.972,658.345a1.788,1.788,0,1,1-2.528.015A1.788,1.788,0,0,1,1111.972,658.345Z" transform="translate(-1100.471 -654.041)" fill="#8ec8c8"/>
        <path id="Trazado_97860" data-name="Trazado 97860" d="M1066.4,684.466a1.788,1.788,0,1,1-2.528.015A1.788,1.788,0,0,1,1066.4,684.466Z" transform="translate(-1063.357 -675.314)" fill="#8ec8c8"/>
        <g id="Grupo_47056" data-name="Grupo 47056" transform="translate(1.709 1.773)">
          <path id="Trazado_97861" data-name="Trazado 97861" d="M1072.563,655.483l8.53-4.889,9.06,4.371,7.6-7.995.23.219-7.764,8.162-9.118-4.4-8.385,4.806Z" transform="translate(-1072.563 -646.97)" fill="#8ec8c8"/>
        </g>
      </g>
      <g id="Grupo_47059" data-name="Grupo 47059" transform="translate(89.033 27.697)">
        <path id="Trazado_97862" data-name="Trazado 97862" d="M1237.319,695.146a1.56,1.56,0,1,1,2.174-.377A1.561,1.561,0,0,1,1237.319,695.146Z" transform="translate(-1236.657 -681.955)" fill="#8ec8c8"/>
        <path id="Trazado_97863" data-name="Trazado 97863" d="M1264.345,653.27a1.736,1.736,0,1,1,2.419-.42A1.736,1.736,0,0,1,1264.345,653.27Z" transform="translate(-1258.607 -647.591)" fill="#8ec8c8"/>
        <path id="Trazado_97864" data-name="Trazado 97864" d="M1308.875,666.8a1.482,1.482,0,1,1,2.065-.358A1.482,1.482,0,0,1,1308.875,666.8Z" transform="translate(-1294.96 -658.985)" fill="#8ec8c8"/>
        <path id="Trazado_97865" data-name="Trazado 97865" d="M1342.56,639.211a1.482,1.482,0,1,1,2.065-.358A1.482,1.482,0,0,1,1342.56,639.211Z" transform="translate(-1322.394 -636.518)" fill="#8ec8c8"/>
        <g id="Grupo_47058" data-name="Grupo 47058" transform="translate(1.451 1.38)">
          <path id="Trazado_97866" data-name="Trazado 97866" d="M1264.13,644.158l-6.305,5.164-8-2.335-5.124,7.576-.218-.148,5.231-7.735,8.056,2.35,6.2-5.076Z" transform="translate(-1244.478 -643.954)" fill="#8ec8c8"/>
        </g>
      </g>
      <g id="Grupo_47061" data-name="Grupo 47061" transform="translate(59.909 53.434)">
        <g id="Grupo_47060" data-name="Grupo 47060">
          <path id="Trazado_97867" data-name="Trazado 97867" d="M1093.061,788.277l-1.818-9.55-.794,4.08H1079.73v-.645h10.187l1.332-6.847,1.9,9.986.856-3.371h1.851l1.262-5.879,1.616,8.964.85-3.432h3.823l1.407-4.613,1.231,8.077.989-3.464h3.163l.929-5.065,2,7.969.723-2.9h4.091l.214,2.419,2.253-8.808,1.481,6.412h6.653v.645h-7.166l-1-4.328-2.531,9.895-.495-5.59h-3l-1.226,4.92-1.9-7.586-.489,2.666h-3.214l-1.668,5.841-1.249-8.2-.719,2.357h-3.8l-1.453,5.873-1.573-8.72-.686,3.195h-1.87Z" transform="translate(-1079.73 -775.194)" fill="#fff"/>
        </g>
      </g>
      <g id="Grupo_47062" data-name="Grupo 47062" transform="translate(56.692 49.497)">
        <path id="Trazado_97868" data-name="Trazado 97868" d="M1117.418,777.278H1062.4v-23.3h55.02Zm-54.665-.356h54.309v-22.59h-54.309Z" transform="translate(-1062.398 -753.977)" fill="#fff"/>
      </g>
    </g>
    <g id="Grupo_47064" data-name="Grupo 47064" transform="translate(756.929 387.116)">
      <path id="Trazado_96247" data-name="Trazado 96247" d="M945.107,1485.612s-.516,2.92-.769,5.81a1.991,1.991,0,0,0,1.9,2.157c3.849.161,12.081.472,15.035.34a.648.648,0,0,0,.57-.887h0a1.451,1.451,0,0,0-.742-.781l-13.6-6.25Z" transform="translate(-912.252 -1345.691)" fill="#d5f2e8"/>
      <path id="Trazado_96248" data-name="Trazado 96248" d="M946.042,1475.242l.414,3.492s2.382,1.109,4.009-.14l-.986-3.892Z" transform="translate(-913.609 -1337.036)" fill="url(#linear-gradient-9)"/>
      <path id="Trazado_96249" data-name="Trazado 96249" d="M906.094,1159.646c-.179.912-.961,45.508,3.806,65.494a.679.679,0,0,1-.4.789,11.815,11.815,0,0,1-3.882.789,1.169,1.169,0,0,1-1.159-.839c-1.363-4.637-7.892-27.869-8.744-50.062-.952-24.8,0-.844,0-.844l.558-15.329Z" transform="translate(-873.35 -1087.093)" fill="#7d6eb2"/>
      <path id="Trazado_96250" data-name="Trazado 96250" d="M866.1,1492.981a21.008,21.008,0,0,0-1.616,5.39,1.215,1.215,0,0,0,1.069,1.455c1.271.125,3.227.286,4.794.275a1.211,1.211,0,0,0,1.2-1.351,10.217,10.217,0,0,0-2.385-5.6Z" transform="translate(-848.891 -1351.536)" fill="#d5f2e8"/>
      <path id="Trazado_96251" data-name="Trazado 96251" d="M868.912,1470.461l.968,5.281a3.414,3.414,0,0,0,2.851.2l-.462-5.682Z" transform="translate(-852.421 -1333.508)" fill="url(#linear-gradient-9)"/>
      <path id="Trazado_96252" data-name="Trazado 96252" d="M850.5,1156.8c-3.9,23.53.846,58.155,2.446,64.932a1.056,1.056,0,0,0,.853.8,7.093,7.093,0,0,0,3.049-.122.969.969,0,0,0,.7-.892c.215-5.479-.172-39.115,3.461-52.408a3.02,3.02,0,0,1,1.165-1.666l7.051-5.013.54-8.1Z" transform="translate(-836.62 -1082.879)" fill="#7d6eb2"/>
      <g id="Grupo_46179" data-name="Grupo 46179" transform="translate(12.42 11.242)">
        <path id="Trazado_96253" data-name="Trazado 96253" d="M875.512,943.227c-11.684-.193-24.576,3.068-24.576,3.068-3.483,20.322-.609,43.761-.609,43.761,9.045,2.372,19.249-1.45,19.249-1.45,1.5-8.494,8.518-32.4,8.518-32.4a38.488,38.488,0,0,0,14.284-4.533,25.053,25.053,0,0,1-4.952-10.357A39.2,39.2,0,0,1,875.512,943.227Z" transform="translate(-849.213 -925.132)" fill="#00223d"/>
        <path id="Trazado_96254" data-name="Trazado 96254" d="M1056.706,863.89a2.236,2.236,0,0,0-2.6-.73c-1.719,7.263-10.735,13.152-20,16.03a25.055,25.055,0,0,0,4.952,10.357C1054.432,880.9,1056.706,863.89,1056.706,863.89Z" transform="translate(-995.895 -863.005)" fill="url(#linear-gradient-9)"/>
      </g>
      <g id="Grupo_46180" data-name="Grupo 46180" transform="translate(70.631)">
        <path id="Trazado_96255" data-name="Trazado 96255" d="M1133.185,821.091c.12.382-1.271.963-2.09-.6-.028-.748-.484-3.955-.037-4.564a59.732,59.732,0,0,1,7-7.317,1.1,1.1,0,0,1,.137,1.526l-2.24,2.334a10.85,10.85,0,0,1,1.308,2.586,3.138,3.138,0,0,1-.313,2.31c-.393.708-.93,1.629-1.437,2.35A3.1,3.1,0,0,1,1133.185,821.091Z" transform="translate(-1130.864 -808.611)" fill="url(#linear-gradient-12)"/>
        <path id="Trazado_96256" data-name="Trazado 96256" d="M1140.467,834.614l-2.041,1.73-.641,1.723,1.82,2.019a23.482,23.482,0,0,1,1.067-4.159C1141.127,835.188,1140.891,834.83,1140.467,834.614Z" transform="translate(-1136.355 -829.24)" fill="url(#linear-gradient-13)"/>
      </g>
      <path id="Trazado_96257" data-name="Trazado 96257" d="M813.253,976.715,808.771,965.4s-10.914,7.415-12.708,16.817a24.825,24.825,0,0,1,9.192,2.577C806.913,981.066,813.253,976.715,813.253,976.715Z" transform="translate(-794.628 -932.996)" fill="#00223d"/>
      <path id="Trazado_96258" data-name="Trazado 96258" d="M904.844,904.663l-3.718,10.751a.387.387,0,0,0,.177.466,8.739,8.739,0,0,0,9.064-.61,1.824,1.824,0,0,0,.84-1.3l1.2-9.305Z" transform="translate(-877.96 -884.811)" fill="url(#linear-gradient-14)"/>
      <g id="Grupo_46181" data-name="Grupo 46181" transform="translate(19.828 4.308)">
        <path id="Trazado_96259" data-name="Trazado 96259" d="M921.759,856.492s4.082,7.685,3.559,10.789-5.583,2.881-10,.36l-3.087-8.3Z" transform="translate(-906.614 -850.905)" fill="url(#linear-gradient-15)"/>
        <path id="Trazado_96260" data-name="Trazado 96260" d="M893.957,842.119a.317.317,0,0,0,.138-.464,8.267,8.267,0,0,1-1.136-2.412s-.734-.47,1.868-1.093,6.482-1.589,7.3-3.8c.8-2.159-1.294-7.589-4.627-3.263a.317.317,0,0,1-.5,0,3.265,3.265,0,0,0-3.977-1.292,3,3,0,0,0-2.051,2.894.315.315,0,0,1-.373.322A3.652,3.652,0,0,0,886.329,835c-.871,1.913-.3,3,.21,3.526a.316.316,0,0,1-.135.524,1.9,1.9,0,0,0-1.341,2.169c.111,2.009,2.357,1.832,3,1.74a.317.317,0,0,1,.281.1c.548.607,3.018,3.183,5.692,3.493a.319.319,0,0,0,.335-.422l-1.157-3.363a.318.318,0,0,1,.172-.394Z" transform="translate(-885.058 -829.457)" fill="#00223d"/>
        <path id="Trazado_96261" data-name="Trazado 96261" d="M918.347,889.238s-2.907-1.995-3.119-.315,2.618,2.433,4.019,1.807Z" transform="translate(-908.983 -876.099)" fill="url(#linear-gradient-16)"/>
      </g>
      <g id="Grupo_46185" data-name="Grupo 46185" transform="translate(14.357 69.204)">
        <path id="Trazado_96262" data-name="Trazado 96262" d="M1017.181,1237.334a.815.815,0,0,1-.8-.665l-5.3-28.434a.814.814,0,0,1,1.6-.3l5.3,28.434a.815.815,0,0,1-.8.963Z" transform="translate(-979.553 -1194.081)" fill="url(#linear-gradient)"/>
        <path id="Trazado_96263" data-name="Trazado 96263" d="M1013.263,1235.2H969.714a1.628,1.628,0,1,1,0-3.256h42.479l11-25.437H960.353a1.628,1.628,0,0,1,0-3.256h65.323a1.628,1.628,0,0,1,1.494,2.275l-12.413,28.693A1.628,1.628,0,0,1,1013.263,1235.2Z" transform="translate(-938.028 -1190.891)" fill="url(#linear-gradient)"/>
        <g id="Grupo_46182" data-name="Grupo 46182">
          <path id="Trazado_96264" data-name="Trazado 96264" d="M930.929,1216.235H896.613a1.694,1.694,0,0,1-1.624-1.211l-20.437-68.185H860.278a1.695,1.695,0,1,1,0-3.389h15.538a1.694,1.694,0,0,1,1.624,1.211l20.437,68.186h33.052a1.695,1.695,0,1,1,0,3.389Z" transform="translate(-858.583 -1143.45)" fill="url(#linear-gradient)"/>
        </g>
        <g id="Grupo_46183" data-name="Grupo 46183" transform="translate(33.005 70.231)">
          <circle id="Elipse_3881" data-name="Elipse 3881" cx="4.236" cy="4.236" r="4.236" transform="translate(0 8.246) rotate(-76.718)" fill="#00223d"/>
          <circle id="Elipse_3882" data-name="Elipse 3882" cx="3.06" cy="3.06" r="3.06" transform="translate(1.919 2.037)" fill="url(#linear-gradient)"/>
        </g>
        <g id="Grupo_46184" data-name="Grupo 46184" transform="translate(65.297 70.467)">
          <circle id="Elipse_3883" data-name="Elipse 3883" cx="4.236" cy="4.236" r="4.236" transform="translate(0 8.364) rotate(-80.783)" fill="#00223d"/>
          <circle id="Elipse_3884" data-name="Elipse 3884" cx="3.06" cy="3.06" r="3.06" transform="translate(1.683 1.801)" fill="url(#linear-gradient)"/>
        </g>
        <path id="Trazado_96265" data-name="Trazado 96265" d="M1070.379,1238.959a.814.814,0,0,1-.813-.8l-.564-28.174a.814.814,0,0,1,.8-.83.8.8,0,0,1,.83.8l.564,28.174a.814.814,0,0,1-.8.83Z" transform="translate(-1025.512 -1195.577)" fill="url(#linear-gradient)"/>
        <path id="Trazado_96266" data-name="Trazado 96266" d="M1112.565,1238.823a.814.814,0,0,1-.814-.814v-28.046a.814.814,0,1,1,1.628,0v28.046A.814.814,0,0,1,1112.565,1238.823Z" transform="translate(-1059.427 -1195.57)" fill="url(#linear-gradient)"/>
        <path id="Trazado_96267" data-name="Trazado 96267" d="M1159.467,1238.7h-.006a.814.814,0,0,1-.809-.82l.193-27.915a.814.814,0,0,1,.814-.808h.006a.814.814,0,0,1,.809.819l-.193,27.915A.814.814,0,0,1,1159.467,1238.7Z" transform="translate(-1096.635 -1195.578)" fill="url(#linear-gradient)"/>
        <path id="Trazado_96268" data-name="Trazado 96268" d="M1189.938,1240.025a.815.815,0,0,1-.8-.969l5.291-27.269a.814.814,0,1,1,1.6.31l-5.291,27.269A.815.815,0,0,1,1189.938,1240.025Z" transform="translate(-1120.808 -1197.141)" fill="url(#linear-gradient)"/>
        <path id="Trazado_96269" data-name="Trazado 96269" d="M1034.463,1242.67h-60.1a.814.814,0,0,1,0-1.628h60.1a.814.814,0,0,1,0,1.628Z" transform="translate(-949.789 -1220.872)" fill="url(#linear-gradient)"/>
        <path id="Trazado_96270" data-name="Trazado 96270" d="M1041.261,1282.692H987.5a.814.814,0,1,1,0-1.628h53.766a.814.814,0,1,1,0,1.628Z" transform="translate(-960.206 -1252.622)" fill="url(#linear-gradient)"/>
        <path id="Trazado_96271" data-name="Trazado 96271" d="M1045.581,1319.588H997.5a.814.814,0,1,1,0-1.628h48.08a.814.814,0,1,1,0,1.628Z" transform="translate(-968.144 -1281.893)" fill="url(#linear-gradient)"/>
      </g>
      <path id="Trazado_96272" data-name="Trazado 96272" d="M790.63,1045.136s-7.459,16.99,10.774,19.476l2.486-2.072s-9.117-4.973-4.144-14.918C799.747,1047.622,794.359,1043.064,790.63,1045.136Z" transform="translate(-789.12 -995.823)" fill="url(#linear-gradient-29)"/>
      <path id="Trazado_96273" data-name="Trazado 96273" d="M851.044,1131.42h6.63s4.144,5.387,3.729,6.63-4.51.255-4.51.255l-2.12-3.57s-6.216.415-6.216-1.243S851.044,1131.42,851.044,1131.42Z" transform="translate(-836.273 -1064.702)" fill="url(#linear-gradient-30)"/>
    </g>
    <g id="Grupo_47065" data-name="Grupo 47065" transform="translate(505.407 -10639.78)">
      <g id="Grupo_47066" data-name="Grupo 47066" transform="translate(474.855 10930.84)">
        <g id="Grupo_47020" data-name="Grupo 47020" transform="translate(3.883 3.898)">
          <path id="Trazado_97743" data-name="Trazado 97743" d="M1391.049,212.576a29.836,29.836,0,0,1-38.969,44.987l-10.57,4.553,4.553-10.57a29.836,29.836,0,0,1,44.987-38.969Z" transform="translate(-1339.62 -203.353)" fill="#fdfdfd" fill-rule="evenodd"/>
          <path id="Trazado_97744" data-name="Trazado 97744" d="M1367.457,261.576a30.3,30.3,0,0,1-17.944-5.87l-10.306,4.439a.5.5,0,0,1-.656-.656l4.439-10.306a30.338,30.338,0,1,1,26.5,12.325Q1368.474,261.576,1367.457,261.576Zm-17.878-6.941a.5.5,0,0,1,.3.1,29.336,29.336,0,1,0-3.17-44.235,29.458,29.458,0,0,0-2.748,38.317.5.5,0,0,1,.059.5l-4.056,9.418,9.418-4.056A.5.5,0,0,1,1349.579,254.634Z" transform="translate(-1337.12 -200.923)" fill="#00223d"/>
        </g>
        <circle id="Elipse_3890" data-name="Elipse 3890" cx="25.358" cy="25.358" r="25.358" transform="translate(8.858 8.86)" fill="#12263f"/>
        <path id="Trazado_97745" data-name="Trazado 97745" d="M1347.987,245.935a34.1,34.1,0,0,1-18.579-5.488.5.5,0,0,1,.544-.838,33.23,33.23,0,0,0,36.034.038.5.5,0,0,1,.541.839A34.21,34.21,0,0,1,1347.987,245.935Zm24.323-10.356a.5.5,0,0,1-.36-.845,33.133,33.133,0,0,0,4.174-40.71.5.5,0,1,1,.845-.532,34.375,34.375,0,0,1,5.088,21.534,33.848,33.848,0,0,1-9.387,20.4A.5.5,0,0,1,1372.31,235.578Zm-52.621-5.042a.5.5,0,0,1-.419-.227,34.249,34.249,0,0,1-5.3-22.141.5.5,0,1,1,.993.1,33.249,33.249,0,0,0,5.145,21.494.5.5,0,0,1-.418.771Zm-3.48-29.555a.5.5,0,0,1-.471-.665,34.221,34.221,0,0,1,41.869-21.445.5.5,0,0,1-.279.958,33.224,33.224,0,0,0-40.648,20.819A.5.5,0,0,1,1316.209,200.981Zm55.453-12.784a.5.5,0,0,1-.35-.144,33.279,33.279,0,0,0-6.911-5.23.5.5,0,1,1,.493-.868,34.278,34.278,0,0,1,7.119,5.387.5.5,0,0,1-.35.855Z" transform="translate(-1313.784 -177.498)" fill="#00223d"/>
      </g>
      <path id="Trazado_97869" data-name="Trazado 97869" d="M1435.717,282.747a16.692,16.692,0,1,0,15.726,11.061l-2.516,2.517a13.58,13.58,0,1,1-4.517-7.3l2.223-2.222a16.64,16.64,0,0,0-10.916-4.06Zm-8.785,15.049a2.088,2.088,0,0,1,2.953-2.953l5.832,5.832,13.14-13.14a2.088,2.088,0,0,1,2.953,2.953L1437.193,305.1a2.088,2.088,0,0,1-2.953,0Z" transform="translate(-926.646 10665.606)" fill="#fff" fill-rule="evenodd"/>
    </g>
    <g id="Grupo_47066-2" data-name="Grupo 47066" transform="translate(908.085 438.104)">
      <g id="Grupo_46129" data-name="Grupo 46129" transform="translate(0 55.857)">
        <path id="Trazado_96115" data-name="Trazado 96115" d="M134.053,93.013h63.4v1.752H135.663A1.928,1.928,0,0,0,133.75,96.7v6.974a1.928,1.928,0,0,0,1.913,1.931h61.792v1.752h-63.4a2.565,2.565,0,0,1-2.546-2.546V95.559a2.565,2.565,0,0,1,2.546-2.546Z" transform="translate(-131.253 -64.329)" fill="#00223d" fill-rule="evenodd"/>
        <path id="Trazado_96116" data-name="Trazado 96116" d="M133.923,93.406h61.792v10.835H133.923a1.928,1.928,0,0,1-1.913-1.931V95.337a1.928,1.928,0,0,1,1.913-1.931Z" transform="translate(-129.513 -62.969)" fill="#eadce4" fill-rule="evenodd"/>
        <path id="Trazado_96117" data-name="Trazado 96117" d="M134.053,89.8h63.4v1.752H135.663a1.928,1.928,0,0,0-1.913,1.931v6.974a1.928,1.928,0,0,0,1.913,1.931h61.792v1.752h-63.4a2.565,2.565,0,0,1-2.546-2.546V92.343a2.565,2.565,0,0,1,2.546-2.546Z" transform="translate(-131.253 -75.453)" fill="#f5ca56" fill-rule="evenodd"/>
        <path id="Trazado_96118" data-name="Trazado 96118" d="M133.923,90.19h61.792v10.835H133.923a1.928,1.928,0,0,1-1.913-1.931V92.121a1.928,1.928,0,0,1,1.913-1.931Z" transform="translate(-129.513 -74.093)" fill="#eadce4" fill-rule="evenodd"/>
        <path id="Trazado_96119" data-name="Trazado 96119" d="M134,86.58h63.4v1.752H135.606a1.935,1.935,0,0,0-1.917,1.935v6.969a1.935,1.935,0,0,0,1.917,1.935H197.4v1.752H134a2.568,2.568,0,0,1-2.546-2.546V89.126A2.568,2.568,0,0,1,134,86.58Z" transform="translate(-131.45 -86.58)" fill="#26aab7" fill-rule="evenodd"/>
        <path id="Trazado_96120" data-name="Trazado 96120" d="M133.869,86.973h61.792v10.84H133.869a1.935,1.935,0,0,1-1.917-1.935V88.908a1.935,1.935,0,0,1,1.917-1.935Z" transform="translate(-129.714 -85.221)" fill="#eadce4" fill-rule="evenodd"/>
      </g>
      <g id="Grupo_46130" data-name="Grupo 46130" transform="translate(17.179)">
        <path id="Trazado_96121" data-name="Trazado 96121" d="M171.066,89.233c2.4,4.388-5.364,28.64-5.364,28.64l-4.093-.089.294-22.709c-10.314,3.884-16.3,0-16.3,0l.294,22.709-4.089.089s-7.767-24.252-5.369-28.64c2.078-3.737,14.055-5.364,17.314-5.039,3.259-.326,15.241,1.3,17.314,5.039Z" transform="translate(-132.967 -39.115)" fill="#00223d" fill-rule="evenodd"/>
        <path id="Trazado_96122" data-name="Trazado 96122" d="M154.443,97.091l-7.767-.178-1.806-.95-.236.95-2.876-.294-.031-4.923,4.093.089s5.453,3.527,7.469,3.527c2.047,0,1.155,1.779,1.155,1.779Z" transform="translate(-113.085 -13.027)" fill="#167377" fill-rule="evenodd"/>
        <path id="Trazado_96123" data-name="Trazado 96123" d="M135.482,97.091l7.8-.178,1.806-.95.241.95,2.845-.294.058-4.923-4.089.089s-5.458,3.527-7.473,3.527c-2.047,0-1.186,1.779-1.186,1.779Z" transform="translate(-135.303 -13.027)" fill="#167377" fill-rule="evenodd"/>
        <path id="Trazado_96124" data-name="Trazado 96124" d="M143.429,104.826h6.818L141.44,94.8l8.628-16.748c-6.8-.192-10.652,9.939-13.689,16.623a2.966,2.966,0,0,0,.548,3.255Z" transform="translate(-132.485 -60.219)" fill="#167377" fill-rule="evenodd"/>
        <path id="Trazado_96125" data-name="Trazado 96125" d="M149.24,104.024l-5.658,3.674,5.837-12.6-8.8-17.046c6.657-.187,10.514,9,13.524,15.566a4.188,4.188,0,0,1-.415,4.2Z" transform="translate(-116.925 -60.219)" fill="#167377" fill-rule="evenodd"/>
        <path id="Trazado_96126" data-name="Trazado 96126" d="M139.265,75.87c-.682.089-1.128,1.008-1.008,2.078s.771,1.864,1.454,1.775c.682-.058,1.155-1,1.008-2.073-.12-1.066-.771-1.868-1.454-1.779Z" transform="translate(-125.151 -67.79)" fill="#ffb699" fill-rule="evenodd"/>
        <path id="Trazado_96127" data-name="Trazado 96127" d="M142.489,75.87c.682.089,1.128,1.008,1.008,2.078s-.771,1.864-1.454,1.775c-.682-.058-1.124-1-1.008-2.073s.771-1.868,1.454-1.779Z" transform="translate(-115.538 -67.79)" fill="#ffb699" fill-rule="evenodd"/>
        <path id="Trazado_96128" data-name="Trazado 96128" d="M147.018,77.986h1.9a9.387,9.387,0,0,1,9.368,9.368v17.76a6.84,6.84,0,0,1-6.818,6.818h-7a6.841,6.841,0,0,1-6.822-6.818V87.354a9.387,9.387,0,0,1,9.368-9.368Z" transform="translate(-127.184 -60.449)" fill="#167377" fill-rule="evenodd"/>
        <path id="Trazado_96129" data-name="Trazado 96129" d="M139.3,77.421h5.694v2.488a2.515,2.515,0,0,1-2.493,2.524h-.682a2.52,2.52,0,0,1-2.519-2.524Z" transform="translate(-121.48 -62.403)" fill="#e58d6e" fill-rule="evenodd"/>
        <path id="Trazado_96130" data-name="Trazado 96130" d="M144.641,74.25c3.469-.058,6.345,3.531,6.434,8.035s-2.666,8.245-6.136,8.3c-3.442.058-6.345-3.558-6.4-8.066-.089-4.5,2.635-8.209,6.1-8.271Z" transform="translate(-124.124 -73.375)" fill="#ffb699" fill-rule="evenodd"/>
        <path id="Trazado_96131" data-name="Trazado 96131" d="M138.242,81.57h22.482a1.026,1.026,0,0,1,1.03.994V98.229a1.026,1.026,0,0,1-1.03.994H138.242a1,1,0,0,1-1.03-.994V82.564a1,1,0,0,1,1.03-.994Z" transform="translate(-128.699 -48.052)" fill="#f9eff4" fill-rule="evenodd"/>
        <path id="Trazado_96132" data-name="Trazado 96132" d="M142.489,89.337a3.257,3.257,0,1,0-3.255-3.259,3.277,3.277,0,0,0,3.255,3.259Z" transform="translate(-121.705 -43.718)" fill="#c8c6cc" fill-rule="evenodd"/>
        <path id="Trazado_96133" data-name="Trazado 96133" d="M153.615,78.378s-2.675-3.937-6.916-4.3-7.058,3.933-7.058,3.933a2,2,0,0,0-1.324,2.056c-.058,1.752,1.6,5.4,1.6,5.4l.334-2.854a3.55,3.55,0,0,0,.892-1.195,2.761,2.761,0,0,0-.183-1.289,13.279,13.279,0,0,0,5.957,1.226,8.008,8.008,0,0,0,2.751-.428,1.382,1.382,0,0,0,.013.49,3.618,3.618,0,0,0,.887,1.195l.334,2.854s1.668-3.647,1.605-5.4a2.423,2.423,0,0,0-.134-.593A9.476,9.476,0,0,0,153.615,78.378Z" transform="translate(-124.885 -74.053)" fill="#00223d"/>
      </g>
    </g>
  </g>
</svg>
