<svg id="Grupo_46891" data-name="Grupo 46891" xmlns="http://www.w3.org/2000/svg" xmlns:xlink="http://www.w3.org/1999/xlink" width="123.833" height="123.833" viewBox="0 0 123.833 123.833">
  <defs>
    <radialGradient id="radial-gradient" cx="0.076" cy="0.019" r="1.465" gradientTransform="translate(0.001)" gradientUnits="objectBoundingBox">
      <stop offset="0" stop-color="#f6f6f7"/>
      <stop offset="0.477" stop-color="#f9f9fa"/>
      <stop offset="0.715" stop-color="#fff"/>
    </radialGradient>
  </defs>
  <g id="Grupo_42274" data-name="Grupo 42274" transform="translate(0 0)">
    <g id="Grupo_18423" data-name="Grupo 18423" transform="translate(0 0)">
      <g id="Grupo_18421" data-name="Grupo 18421">
        <g id="Grupo_18420" data-name="Grupo 18420">
          <g id="Grupo_18419" data-name="Grupo 18419">
            <path id="Trazado_40936" data-name="Trazado 40936" d="M318.456,2207.635a61.916,61.916,0,1,1-61.915-61.915A61.915,61.915,0,0,1,318.456,2207.635Z" transform="translate(-194.623 -2145.721)" fill="#fff"/>
          </g>
        </g>
      </g>
      <path id="Trazado_40937" data-name="Trazado 40937" d="M317.728,2206.843a61.915,61.915,0,1,0-61.915,61.918A61.672,61.672,0,0,0,317.728,2206.843Z" transform="translate(-193.895 -2144.928)" fill="url(#radial-gradient)"/>
      <path id="Trazado_40938" data-name="Trazado 40938" d="M296.6,2200.4a47.26,47.26,0,1,0-47.26,47.26A47.084,47.084,0,0,0,296.6,2200.4Z" transform="translate(-187.238 -2138.278)" fill="none" stroke="#26aab7" stroke-miterlimit="10" stroke-width="4"/>
      <g id="Grupo_18422" data-name="Grupo 18422" transform="translate(10.969 34.762)">
        <path id="Trazado_40939" data-name="Trazado 40939" d="M307.148,2164.488a61.924,61.924,0,0,1-106.6,61.66,61.727,61.727,0,0,0,106.6-61.66Z" transform="translate(-200.545 -2164.488)" fill="#eceef0"/>
      </g>
    </g>
  </g>
  <g id="Grupo_47007" data-name="Grupo 47007" transform="translate(34.417 25.664)">
    <path id="Trazado_26533" data-name="Trazado 26533" d="M217.248,176.6a50.133,50.133,0,0,1-.576-9.826H202.331a50.155,50.155,0,0,1-.576,9.826c-.832,4.467-5.806,4.467-5.806,4.467l13.553,3.592,13.554-3.592S218.08,181.065,217.248,176.6Z" transform="translate(-179.987 -107.83)" fill="#ecc19c"/>
    <g id="Grupo_16090" data-name="Grupo 16090" transform="translate(22.307 58.126)">
      <path id="Trazado_26534" data-name="Trazado 26534" d="M222.233,175.289a6.791,6.791,0,0,1-6.258.979c-5.4-1.593-7.736-4.092-8.582-5.235.176-3.242.177-5.732.177-5.732l14.343.167A50.022,50.022,0,0,0,222.233,175.289Z" transform="translate(-207.393 -165.301)" fill="#cca88d"/>
    </g>
    <g id="Grupo_16091" data-name="Grupo 16091" transform="translate(5.075 33.452)">
      <path id="Trazado_26535" data-name="Trazado 26535" d="M181.649,123.084s-3.278-4.406-4.649-.964a13.158,13.158,0,0,0,1.008,10.56c1.5,2.284,4.494,5.932,5.443,6a3.5,3.5,0,0,0,2.677-1.225Z" transform="translate(-176.318 -120.805)" fill="#ecc19c"/>
      <path id="Trazado_26536" data-name="Trazado 26536" d="M184.282,127.966s-2.2-2.956-3.12-.647a8.831,8.831,0,0,0,.676,7.085c1,1.532,3.015,3.98,3.652,4.026a2.351,2.351,0,0,0,1.8-.822Z" transform="translate(-178.272 -123.314)" fill="#db9c94" opacity="0.6"/>
    </g>
    <g id="Grupo_16092" data-name="Grupo 16092" transform="translate(45.311 34.06)">
      <path id="Trazado_26537" data-name="Trazado 26537" d="M252.96,124.07s3.027-4.209,4.325-.9a12.925,12.925,0,0,1-.874,10.131c-1.381,2.183-4.15,5.666-5.033,5.727a3.266,3.266,0,0,1-2.5-1.192Z" transform="translate(-248.877 -121.902)" fill="#ecc19c"/>
      <path id="Trazado_26538" data-name="Trazado 26538" d="M252.926,128.744s2.031-2.824,2.9-.6a8.673,8.673,0,0,1-.586,6.8c-.927,1.464-2.785,3.8-3.378,3.842a2.192,2.192,0,0,1-1.678-.8Z" transform="translate(-249.46 -124.302)" fill="#db9c94" opacity="0.6"/>
    </g>
    <path id="Trazado_26539" data-name="Trazado 26539" d="M201.871,67.257c.11,0,.22,0,.329,0s.219,0,.329,0c11.649,0,22.6,9.556,22.6,22.459s-10.955,24.266-22.6,24.266c-.11,0-.22,0-.329-.007s-.219.007-.329.007c-11.649,0-22.6-11.364-22.6-24.266S190.222,67.257,201.871,67.257Z" transform="translate(-172.557 -63.498)" fill="#333"/>
    <path id="Trazado_26540" data-name="Trazado 26540" d="M206.238,137.381c-6.2,0-13.509-5.278-16.908-10.215-1.027-1.492-1.389-9.14-1.389-14.386,0-7.542-.12-17.608,2.167-21.809,3.04-5.585,11.635-4.524,16.131-4.524h.085c4.5,0,13.091-1.06,16.131,4.524,2.287,4.2,2.167,14.267,2.167,21.809,0,5.246-.362,12.894-1.389,14.386-3.4,4.937-10.705,10.215-16.909,10.215Z" transform="translate(-176.42 -72.011)" fill="#ecc19c"/>
    <path id="Trazado_26541" data-name="Trazado 26541" d="M220.837,138.152s.122.294.318.665l.318.614.156.328a2.887,2.887,0,0,1,.127.326,1.957,1.957,0,0,1,.087.306,1.8,1.8,0,0,1,.021.279.858.858,0,0,1-.047.266.8.8,0,0,1-.1.26c-.05.076-.08.169-.131.235s-.095.128-.133.18c-.074.108-.117.179-.117.179a1.7,1.7,0,0,0,.211-.028,2.281,2.281,0,0,0,.244-.058,1.268,1.268,0,0,0,.3-.152,1.216,1.216,0,0,0,.164-.112c.05-.05.1-.106.149-.165a1.214,1.214,0,0,0,.239-.436.846.846,0,0,0,.054-.26,1.14,1.14,0,0,0,.014-.27,1.886,1.886,0,0,0-.1-.512,2.178,2.178,0,0,0-.21-.445,2.9,2.9,0,0,0-.269-.368,2.822,2.822,0,0,0-.591-.511A2.187,2.187,0,0,0,220.837,138.152Z" transform="translate(-191.075 -95.081)" fill="#db9c94" opacity="0.6"/>
    <g id="Grupo_16094" data-name="Grupo 16094" transform="translate(12.437 29.524)">
      <path id="Trazado_26542" data-name="Trazado 26542" d="M200.453,117.062a1.72,1.72,0,0,0,1.588-.413,1.4,1.4,0,0,0-.139-1.577c-1.089-1.331-5.578-1.815-8.859-.83a12.022,12.022,0,0,0-3.449,2.24,3.529,3.529,0,0,1,.344-.092l.409-.088q.409-.087.82-.169c.547-.107,1.1-.2,1.649-.268a11.168,11.168,0,0,1,2.064-.079A34.8,34.8,0,0,1,200.453,117.062Z" transform="translate(-189.594 -113.72)"/>
      <g id="Grupo_16093" data-name="Grupo 16093" transform="translate(7.568 5.896)">
        <path id="Trazado_26543" data-name="Trazado 26543" d="M205.205,129.941c-1.013.045-1.89-1.169-1.959-2.712s.7-2.83,1.711-2.875,1.89,1.169,1.959,2.713S206.219,129.9,205.205,129.941Z" transform="translate(-203.242 -124.353)"/>
      </g>
    </g>
    <g id="Grupo_16096" data-name="Grupo 16096" transform="translate(34.551 29.524)">
      <path id="Trazado_26544" data-name="Trazado 26544" d="M231.244,117.062a1.719,1.719,0,0,1-1.588-.413,1.4,1.4,0,0,1,.139-1.577c1.089-1.331,5.578-1.815,8.859-.83a12.031,12.031,0,0,1,3.449,2.24,3.491,3.491,0,0,0-.345-.092l-.409-.088q-.409-.087-.82-.169c-.547-.107-1.1-.2-1.649-.268a11.169,11.169,0,0,0-2.064-.079A34.816,34.816,0,0,0,231.244,117.062Z" transform="translate(-229.472 -113.72)"/>
      <g id="Grupo_16095" data-name="Grupo 16095" transform="translate(1.383 5.896)">
        <path id="Trazado_26545" data-name="Trazado 26545" d="M233.683,129.941c1.014.045,1.891-1.169,1.959-2.712s-.7-2.83-1.711-2.875-1.891,1.169-1.959,2.713S232.67,129.9,233.683,129.941Z" transform="translate(-231.967 -124.353)"/>
      </g>
    </g>
    <g id="Grupo_16097" data-name="Grupo 16097" transform="translate(21.193 51.814)">
      <path id="Trazado_26546" data-name="Trazado 26546" d="M216.169,160.811s.335,0,.782.013c.225.007.481.015.747.03s.547.024.825.024.555.007.816,0c.132,0,.258-.007.381-.014s.242,0,.351-.016.215-.011.308-.017.174-.016.243-.021c.14-.007.227-.006.227-.006a2.087,2.087,0,0,1-.15.169,1.99,1.99,0,0,1-.465.369,1.871,1.871,0,0,1-.353.185,2.353,2.353,0,0,1-.42.145,3.342,3.342,0,0,1-.954.114,3.532,3.532,0,0,1-1.7-.464A2.216,2.216,0,0,1,216.169,160.811Z" transform="translate(-210.188 -156.985)" fill="#db9c94"/>
      <path id="Trazado_26547" data-name="Trazado 26547" d="M221.223,154.308a2.078,2.078,0,0,1-.413.086,3.694,3.694,0,0,1-.435.028c-.589.009-1.194-.011-1.8-.013s-1.221.008-1.844.057c-.311.028-.628.061-.95.12-.165.038-.323.062-.5.118a3.013,3.013,0,0,0-.528.2l-.058.034c.008-.007-.02.008-.034.014s-.035.019-.054.028c-.037.019-.075.038-.111.06-.075.039-.144.085-.22.134a1.888,1.888,0,0,1-.268.152,1,1,0,0,1-.192.068,1.121,1.121,0,0,1-.113.026c-.036-.008-.079-.015-.113-.026a.989.989,0,0,1-.191-.068,1.9,1.9,0,0,1-.269-.152c-.075-.048-.145-.094-.219-.134-.036-.022-.074-.041-.111-.06-.019-.009-.035-.021-.054-.028s-.043-.021-.034-.014l-.058-.034a3.046,3.046,0,0,0-.528-.2c-.174-.056-.332-.08-.5-.118-.322-.059-.639-.092-.95-.12-.624-.049-1.236-.06-1.844-.057s-1.212.022-1.8.013a3.71,3.71,0,0,1-.436-.028,2.078,2.078,0,0,1-.413-.086,3.12,3.12,0,0,1-.8-.39,2.564,2.564,0,0,0,.675.652,2.2,2.2,0,0,0,.438.228,4.208,4.208,0,0,0,.454.154,17.321,17.321,0,0,0,1.815.368l1.774.276c.29.045.572.105.843.166.129.037.27.064.383.109a2.753,2.753,0,0,1,.31.123l.087.054a.912.912,0,0,0,.123.058,1.226,1.226,0,0,0,.255.083,1.319,1.319,0,0,0,.552.008,5.522,5.522,0,0,1,1.226,0,1.322,1.322,0,0,0,.552-.008,1.247,1.247,0,0,0,.255-.083.907.907,0,0,0,.122-.058l.088-.054a2.7,2.7,0,0,1,.309-.123c.113-.045.255-.073.383-.109.272-.06.553-.12.843-.166l1.774-.276a17.321,17.321,0,0,0,1.815-.368,4.262,4.262,0,0,0,.454-.154,2.206,2.206,0,0,0,.437-.228,2.558,2.558,0,0,0,.676-.652A3.132,3.132,0,0,1,221.223,154.308Z" transform="translate(-205.384 -153.918)" fill="#db9c94"/>
    </g>
    <path id="Trazado_26548" data-name="Trazado 26548" d="M210.487,77.053S185.464,91.7,167.165,85.371c0,0,6.241-5.875,9.283-11,3.291-5.545,15.788-20.945,34.8-10.132l-.416-3.681s3.951,2.6,4.533,8.872c0,0,4.7.023,5.772,2.865l-3.05-.786a16.312,16.312,0,0,1,3.05,8.249C221.7,89.318,218.2,95.04,218.2,95.04a17.936,17.936,0,0,1-3.227-8.017C213.953,78.509,212.2,78.589,210.487,77.053Z" transform="translate(-167.165 -60.479)" fill="#333"/>
    <g id="Grupo_16099" data-name="Grupo 16099" transform="translate(2.423 11.861)">
      <g id="Grupo_16098" data-name="Grupo 16098">
        <path id="Trazado_26549" data-name="Trazado 26549" d="M213.334,81.868s-.463.548-1.364,1.42c-.451.433-1,.96-1.667,1.524s-1.414,1.206-2.274,1.85a51.46,51.46,0,0,1-6.132,4.061c-.583.339-1.188.663-1.807.979s-1.25.628-1.891.934-1.3.591-1.961.871c-.67.262-1.335.546-2.016.79s-1.361.489-2.053.7c-.684.227-1.376.422-2.068.6-.686.2-1.378.349-2.063.493-.68.16-1.366.268-2.036.379a36.271,36.271,0,0,1-3.9.414c-.621.047-1.229.041-1.815.044s-1.151-.019-1.693-.053a28.533,28.533,0,0,1-2.94-.291c-.868-.138-1.616-.3-2.228-.434-1.217-.326-1.895-.541-1.895-.541s.723-.012,1.956.018l2.221-.054c.855-.063,1.812-.1,2.85-.217.519-.045,1.058-.1,1.613-.2s1.13-.138,1.715-.257c1.173-.192,2.4-.441,3.66-.736s2.551-.642,3.851-1.039l.978-.3.977-.327c.657-.2,1.3-.453,1.954-.686,1.3-.467,2.585-.991,3.845-1.519,1.253-.543,2.487-1.082,3.664-1.649s2.313-1.122,3.383-1.668,2.08-1.075,3-1.584c1.848-1.013,3.378-1.9,4.449-2.524Z" transform="translate(-171.534 -81.868)" fill="#1a1a1a"/>
      </g>
    </g>
    <g id="Grupo_16101" data-name="Grupo 16101" transform="translate(1.143 8.906)">
      <g id="Grupo_16100" data-name="Grupo 16100" transform="translate(0 0)">
        <path id="Trazado_26550" data-name="Trazado 26550" d="M212.306,76.539s-.571.467-1.61,1.223-2.541,1.809-4.4,2.981c-.928.588-1.937,1.222-3.024,1.856s-2.239,1.3-3.45,1.945-2.469,1.308-3.766,1.944-2.629,1.252-3.969,1.854c-1.35.581-2.7,1.155-4.061,1.666s-2.7.994-4.024,1.407c-.661.207-1.31.414-1.957.582s-1.274.348-1.9.489a35.8,35.8,0,0,1-3.536.67,22.785,22.785,0,0,1-3.041.261,10.5,10.5,0,0,1-1.275-.013,9.478,9.478,0,0,1-1.078-.09c-.324-.043-.612-.084-.859-.124l-.623-.162-.51-.141.53-.01.626-.006c.247-.029.528-.056.841-.084a8.992,8.992,0,0,0,1.031-.148c.373-.065.775-.12,1.2-.228s.879-.186,1.351-.329.971-.242,1.484-.411,1.05-.312,1.6-.511,1.119-.366,1.7-.586,1.177-.417,1.781-.655,1.226-.463,1.851-.717c1.255-.49,2.541-1.033,3.851-1.577s2.633-1.123,3.954-1.706c5.29-2.323,10.552-4.766,14.56-6.511,1.995-.891,3.676-1.606,4.857-2.1S212.306,76.539,212.306,76.539Z" transform="translate(-169.226 -76.539)" fill="#1a1a1a"/>
      </g>
    </g>
    <g id="Grupo_16103" data-name="Grupo 16103" transform="translate(10.33 2.11)">
      <g id="Grupo_16102" data-name="Grupo 16102">
        <path id="Trazado_26551" data-name="Trazado 26551" d="M218.531,68.767l-1.523-.357-1.738-.368c-.668-.139-1.428-.265-2.245-.419-.823-.131-1.712-.269-2.652-.382s-1.927-.212-2.946-.287c-1.02-.058-2.071-.107-3.132-.088a30.907,30.907,0,0,0-3.2.189c-.529.067-1.063.113-1.583.22l-.782.134-.768.172a25.722,25.722,0,0,0-2.945.867c-.469.17-.912.379-1.365.55l-1.276.612-1.178.657c-.385.21-.728.46-1.076.676s-.656.459-.96.681-.606.421-.862.639c-.5.446-.991.8-1.349,1.136-.717.672-1.161,1.049-1.161,1.049s.253-.508.756-1.386c.254-.436.615-.93,1.029-1.507.208-.288.465-.562.719-.871a9.628,9.628,0,0,1,.863-.916c.322-.3.639-.636,1.006-.94s.758-.608,1.166-.914c.423-.283.861-.571,1.316-.857.469-.258.951-.525,1.453-.77a19.727,19.727,0,0,1,3.228-1.194l.853-.228c.287-.065.578-.118.869-.173.581-.124,1.169-.189,1.757-.267s1.179-.091,1.767-.128c.587-.006,1.173-.027,1.75.006l.862.037.85.079c.563.044,1.113.13,1.655.211a28.936,28.936,0,0,1,3.069.666c.963.252,1.849.571,2.661.868a26.549,26.549,0,0,1,3.775,1.759A14.191,14.191,0,0,1,218.531,68.767Z" transform="translate(-185.794 -64.284)" fill="#1a1a1a"/>
      </g>
    </g>
    <g id="Grupo_16105" data-name="Grupo 16105" transform="translate(2.423 7.256)">
      <g id="Grupo_16104" data-name="Grupo 16104">
        <path id="Trazado_26552" data-name="Trazado 26552" d="M209.977,73.733l-.477.094c-.31.052-.761.166-1.335.279-.572.133-1.264.286-2.052.481s-1.671.427-2.63.687c-.481.121-.977.267-1.487.43l-1.584.469-1.656.543-.856.274-.862.313-1.767.626-1.786.7c-1.211.448-2.4,1-3.6,1.517-.3.131-.607.25-.9.389l-.881.431-1.758.841c-1.161.565-2.263,1.2-3.364,1.756-.558.267-1.061.6-1.58.9l-1.509.873c-1,.539-1.884,1.15-2.733,1.67l-1.213.759a12.262,12.262,0,0,0-1.089.7c-.662.468-1.259.857-1.748,1.183-.981.649-1.568,1-1.568,1s.428-.52,1.222-1.4c.4-.437.879-.975,1.453-1.57a27.451,27.451,0,0,1,2.03-1.889,30.232,30.232,0,0,1,2.529-2.1l1.451-1.065c.5-.361,1-.74,1.549-1.066l1.657-1.02c.565-.337,1.121-.709,1.727-1l1.8-.927.913-.459c.307-.148.623-.277.935-.415,1.258-.53,2.5-1.09,3.785-1.5.633-.222,1.261-.445,1.889-.642l1.875-.525.916-.25.911-.2,1.762-.371c1.158-.182,2.245-.373,3.264-.457.508-.049.991-.108,1.454-.141l1.319-.057c.825-.045,1.55-.013,2.142,0A17.258,17.258,0,0,1,209.977,73.733Z" transform="translate(-171.534 -73.564)" fill="#1a1a1a"/>
      </g>
    </g>
    <g id="Grupo_16108" data-name="Grupo 16108" transform="translate(10.712 32.082)">
      <g id="Grupo_16107" data-name="Grupo 16107">
        <g id="Grupo_16106" data-name="Grupo 16106">
          <path id="Trazado_26553" data-name="Trazado 26553" d="M224.557,119.64s-1.987-.4-3.094-.632-2.264-.455-3.271-.557a15.313,15.313,0,0,0-3.4,0c-1.208.15-2.617.279-3.9.54s-2.416.536-2.869.636a17.932,17.932,0,0,1-2.393.177v0l-.057,0-.143,0v0a17.832,17.832,0,0,1-2.392-.182c-.453-.1-1.585-.379-2.868-.642s-2.692-.4-3.9-.548a15.342,15.342,0,0,0-3.4,0c-1.006.1-2.164.325-3.271.55s-3.1.626-3.1.626a16.64,16.64,0,0,0,0,1.786,1.469,1.469,0,0,0,.163.617,9.246,9.246,0,0,0,.879,1.02c.264.265.277.478.44,1.032s.5,1.812.765,2.542a12.493,12.493,0,0,0,1.192,2.844,4.682,4.682,0,0,0,2.149,1.562,9.761,9.761,0,0,0,2.943.657,13.12,13.12,0,0,0,2.453-.085,5.7,5.7,0,0,0,1.849-.489,6.71,6.71,0,0,0,1.914-1.344,12.435,12.435,0,0,0,1.789-2.489,10.6,10.6,0,0,0,.9-2.377,3.783,3.783,0,0,1,.71-1.61c.1-.129.517-.136.77-.127v.009l.085-.006.114.008v-.013c.252-.008.667,0,.769.129a3.785,3.785,0,0,1,.707,1.611,10.566,10.566,0,0,0,.9,2.379,12.449,12.449,0,0,0,1.784,2.493A6.712,6.712,0,0,0,211.7,131.1a5.716,5.716,0,0,0,1.849.492,13.1,13.1,0,0,0,2.453.09,9.761,9.761,0,0,0,2.945-.651,4.681,4.681,0,0,0,2.153-1.558,12.5,12.5,0,0,0,1.2-2.842c.265-.73.606-1.987.77-2.541s.177-.767.441-1.031a9.233,9.233,0,0,0,.882-1.018,1.465,1.465,0,0,0,.164-.616A16.6,16.6,0,0,0,224.557,119.64Zm-21.544,4.014a8.573,8.573,0,0,1-.774,2.314,7.453,7.453,0,0,1-2.993,3.7,7.786,7.786,0,0,1-4.688.812,5.18,5.18,0,0,1-3.938-2.321,10.177,10.177,0,0,1-1.173-5.491c.052-1.722,1.3-2.51,2.879-2.8a23.445,23.445,0,0,1,3.917-.38,11.885,11.885,0,0,1,4.512.679,4.338,4.338,0,0,1,1.883,1.329A2.6,2.6,0,0,1,203.013,123.654Zm18.6-.451c-.092,2.389-.562,5.423-2.9,6.66a6.471,6.471,0,0,1-2.363.66,7.225,7.225,0,0,1-5.289-1.347,9.24,9.24,0,0,1-3.011-5.518c-.33-3,2.758-3.914,5.2-4.1a19.407,19.407,0,0,1,5.855.373c1.4.341,2.541,1.176,2.52,2.74C221.622,122.842,221.617,123.02,221.61,123.2Z" transform="translate(-186.483 -118.334)"/>
        </g>
      </g>
    </g>
  </g>
</svg>
