<svg xmlns="http://www.w3.org/2000/svg" xmlns:xlink="http://www.w3.org/1999/xlink" width="228.667" height="265.622" viewBox="0 0 228.667 265.622">
  <defs>
    <linearGradient id="linear-gradient" x1="0.5" x2="0.5" y2="1" gradientUnits="objectBoundingBox">
      <stop offset="0" stop-color="#fff"/>
      <stop offset="1" stop-color="#d3d3d3"/>
    </linearGradient>
    <linearGradient id="linear-gradient-3" x1="1" y1="0.5" x2="0" y2="0.5" gradientUnits="objectBoundingBox">
      <stop offset="0" stop-color="#ff928e"/>
      <stop offset="1" stop-color="#feb3b1"/>
    </linearGradient>
    <linearGradient id="linear-gradient-6" x1="-293.087" y1="1.605" x2="-295.088" y2="4.278" xlink:href="#linear-gradient-3"/>
    <linearGradient id="linear-gradient-7" x1="0.561" y1="-3.503" x2="0.495" y2="0.689" xlink:href="#linear-gradient-3"/>
    <linearGradient id="linear-gradient-8" x1="0.489" y1="0.146" x2="0.544" y2="1.705" xlink:href="#linear-gradient-3"/>
    <linearGradient id="linear-gradient-9" x1="48.545" y1="17.427" x2="49.867" y2="15.942" xlink:href="#linear-gradient-3"/>
    <linearGradient id="linear-gradient-10" x1="156.484" y1="82.575" x2="160.791" y2="75.375" xlink:href="#linear-gradient-3"/>
    <linearGradient id="linear-gradient-11" x1="-0.66" y1="1.186" x2="0.915" y2="0.256" xlink:href="#linear-gradient-3"/>
    <linearGradient id="linear-gradient-12" x1="0.108" y1="0.928" x2="1.916" y2="-1.638" xlink:href="#linear-gradient-3"/>
    <radialGradient id="radial-gradient" cx="0.076" cy="0.019" r="1.465" gradientTransform="translate(0.001)" gradientUnits="objectBoundingBox">
      <stop offset="0" stop-color="#f6f6f7"/>
      <stop offset="0.477" stop-color="#f9f9fa"/>
      <stop offset="0.715" stop-color="#fff"/>
    </radialGradient>
  </defs>
  <g id="Grupo_54150" data-name="Grupo 54150" transform="translate(-1298.469 -185.709)">
    <path id="Trazado_97724" data-name="Trazado 97724" d="M2722.975,888.906a.388.388,0,1,1,0-.775,33.439,33.439,0,1,0,0-66.878.388.388,0,1,1,0-.775,34.214,34.214,0,0,1,0,68.429Z" transform="translate(-1230.054 -553.884)" fill="#eff4ef"/>
    <g id="Grupo_47019" data-name="Grupo 47019" transform="translate(1348.853 230.937)">
      <path id="Trazado_97725" data-name="Trazado 97725" d="M1958.1,548.782l-4.738,8.2h40.174l-4.737-8.2a8.252,8.252,0,0,0-7.318-4.225h-16.065A8.252,8.252,0,0,0,1958.1,548.782Z" transform="translate(-1909.092 -544.557)" fill-rule="evenodd" fill="url(#linear-gradient)"/>
      <rect id="Rectángulo_28316" data-name="Rectángulo 28316" width="127.947" height="179.863" rx="8" transform="translate(0.388 9.357)" fill="#00223d"/>
      <rect id="Rectángulo_28317" data-name="Rectángulo 28317" width="106.823" height="158.739" transform="translate(10.95 19.919)" fill="#fdfdfd"/>
      <path id="Trazado_97726" data-name="Trazado 97726" d="M1959.35,602.133v10.639a7.392,7.392,0,0,1-7.37,7.37h-37.351a7.391,7.391,0,0,1-7.37-7.37V602.133a2.116,2.116,0,0,1,2.113-2.112h47.866A2.116,2.116,0,0,1,1959.35,602.133Z" transform="translate(-1868.943 -592.853)" fill-rule="evenodd" fill="url(#linear-gradient)"/>
      <path id="Trazado_97727" data-name="Trazado 97727" d="M1966.6,633.254a1.431,1.431,0,0,1,0-2.862h34.261a1.431,1.431,0,0,1,0,2.862Z" transform="translate(-1919.371 -619.3)" fill="#dbdada" fill-rule="evenodd"/>
      <path id="Trazado_97728" data-name="Trazado 97728" d="M1966.6,685.588a1.431,1.431,0,0,1,0-2.862h34.261a1.431,1.431,0,0,1,0,2.862Z" transform="translate(-1919.371 -664.871)" fill="#dbdada" fill-rule="evenodd"/>
      <g id="Grupo_47018" data-name="Grupo 47018" transform="translate(31.576 42.365)">
        <g id="Grupo_47014" data-name="Grupo 47014" transform="translate(0 99.226)">
          <path id="Trazado_97729" data-name="Trazado 97729" d="M1856.448,1640.216h62.884a1.344,1.344,0,0,1,0,2.687h-62.884a1.344,1.344,0,0,1,0-2.687Z" transform="translate(-1855.105 -1640.216)" fill="#dbdada" fill-rule="evenodd"/>
          <path id="Trazado_97730" data-name="Trazado 97730" d="M1856.448,1689.286h62.884a1.343,1.343,0,0,1,0,2.687h-62.884a1.343,1.343,0,0,1,0-2.687Z" transform="translate(-1855.105 -1682.945)" fill="#dbdada" fill-rule="evenodd"/>
          <path id="Trazado_97731" data-name="Trazado 97731" d="M1856.448,1738.353h37.878a1.344,1.344,0,0,1,0,2.688h-37.878a1.344,1.344,0,0,1,0-2.687Z" transform="translate(-1855.105 -1725.671)" fill="#dbdada" fill-rule="evenodd"/>
        </g>
        <g id="Grupo_47015" data-name="Grupo 47015" transform="translate(0 60.363)">
          <path id="Trazado_97732" data-name="Trazado 97732" d="M1858.625,1346.941l1.229-1.229a.41.41,0,0,1,.58,0l2.049,2.049,3.688-3.688a.41.41,0,0,1,.58,0l1.229,1.229a.41.41,0,0,1,0,.58l-5.207,5.208a.409.409,0,0,1-.58,0l-3.568-3.568a.409.409,0,0,1,0-.58Zm-1.88-7.458a1.644,1.644,0,0,0-1.639,1.639v13.114a1.644,1.644,0,0,0,1.639,1.639h13.114a1.644,1.644,0,0,0,1.639-1.639v-13.114a1.644,1.644,0,0,0-1.639-1.639Z" transform="translate(-1855.106 -1339.482)" fill="#7d6eb2" fill-rule="evenodd"/>
          <rect id="Rectángulo_28318" data-name="Rectángulo 28318" width="42.621" height="4.322" rx="2.161" transform="translate(22.949)" fill="#dbdada"/>
          <path id="Trazado_97733" data-name="Trazado 97733" d="M2034.037,1398.833h39.934a1.344,1.344,0,1,1,0,2.687h-39.933a1.344,1.344,0,1,1,0-2.687Z" transform="translate(-2009.745 -1391.163)" fill="#dbdada" fill-rule="evenodd"/>
          <path id="Trazado_97734" data-name="Trazado 97734" d="M2034.037,1445.535h29.035a1.343,1.343,0,1,1,0,2.687h-29.034a1.343,1.343,0,1,1,0-2.687Z" transform="translate(-2009.745 -1431.83)" fill="#dbdada" fill-rule="evenodd"/>
        </g>
        <g id="Grupo_47016" data-name="Grupo 47016" transform="translate(0 30.181)">
          <path id="Trazado_97735" data-name="Trazado 97735" d="M1858.625,1113.391l1.229-1.23a.411.411,0,0,1,.58,0l2.049,2.049,3.688-3.688a.411.411,0,0,1,.58,0l1.229,1.23a.41.41,0,0,1,0,.58l-5.207,5.207a.41.41,0,0,1-.58,0l-3.568-3.568a.408.408,0,0,1,0-.579Zm-1.88-7.459a1.644,1.644,0,0,0-1.639,1.639v13.114a1.644,1.644,0,0,0,1.639,1.639h13.114a1.644,1.644,0,0,0,1.639-1.639v-13.114a1.644,1.644,0,0,0-1.639-1.639Z" transform="translate(-1855.106 -1105.932)" fill="#7d6eb2" fill-rule="evenodd"/>
          <rect id="Rectángulo_28319" data-name="Rectángulo 28319" width="42.621" height="4.322" rx="2.161" transform="translate(22.949)" fill="#dbdada"/>
          <path id="Trazado_97736" data-name="Trazado 97736" d="M2034.037,1165.284h39.934a1.344,1.344,0,1,1,0,2.687h-39.933a1.344,1.344,0,1,1,0-2.687Z" transform="translate(-2009.745 -1157.614)" fill="#dbdada" fill-rule="evenodd"/>
          <path id="Trazado_97737" data-name="Trazado 97737" d="M2034.037,1211.985h29.035a1.344,1.344,0,0,1,0,2.688h-29.034a1.344,1.344,0,0,1,0-2.687Z" transform="translate(-2009.745 -1198.28)" fill="#dbdada" fill-rule="evenodd"/>
        </g>
        <g id="Grupo_47017" data-name="Grupo 47017" transform="translate(0)">
          <path id="Trazado_97738" data-name="Trazado 97738" d="M1858.625,879.842l1.229-1.229a.41.41,0,0,1,.58,0l2.049,2.049,3.688-3.688a.41.41,0,0,1,.58,0l1.229,1.229a.41.41,0,0,1,0,.58l-5.207,5.207a.41.41,0,0,1-.58,0l-3.568-3.568a.408.408,0,0,1,0-.58Zm-1.88-7.458a1.644,1.644,0,0,0-1.639,1.639v13.114a1.644,1.644,0,0,0,1.639,1.639h13.114a1.644,1.644,0,0,0,1.639-1.639V874.022a1.644,1.644,0,0,0-1.639-1.639Z" transform="translate(-1855.106 -872.383)" fill="#7d6eb2" fill-rule="evenodd"/>
          <rect id="Rectángulo_28320" data-name="Rectángulo 28320" width="42.621" height="4.322" rx="2.161" transform="translate(22.949)" fill="#dbdada"/>
          <path id="Trazado_97739" data-name="Trazado 97739" d="M2034.037,931.734h39.934a1.344,1.344,0,1,1,0,2.687h-39.933a1.344,1.344,0,0,1,0-2.687Z" transform="translate(-2009.745 -924.064)" fill="#dbdada" fill-rule="evenodd"/>
          <path id="Trazado_97740" data-name="Trazado 97740" d="M2034.037,978.436h29.035a1.344,1.344,0,0,1,0,2.687h-29.034a1.344,1.344,0,1,1,0-2.687Z" transform="translate(-2009.745 -964.731)" fill="#dbdada" fill-rule="evenodd"/>
        </g>
      </g>
      <path id="Trazado_97741" data-name="Trazado 97741" d="M1828.349,1924.823H1731.51a.388.388,0,0,1,0-.776h96.839a.388.388,0,1,1,0,.776Z" transform="translate(-1715.568 -1745.777)" fill="#8673c6"/>
      <path id="Trazado_97742" data-name="Trazado 97742" d="M1736.618,792.119a.388.388,0,0,1-.274-.662,8.005,8.005,0,0,0,2.365-5.7V738.149a.388.388,0,0,1,.776,0v47.612a8.776,8.776,0,0,1-2.593,6.244A.388.388,0,0,1,1736.618,792.119Zm-122.988,0a.388.388,0,0,1-.274-.114,8.776,8.776,0,0,1-2.593-6.244V738.149a.388.388,0,1,1,.775,0v47.612a8.006,8.006,0,0,0,2.366,5.7.388.388,0,0,1-.274.662ZM1739.1,733.137a.388.388,0,0,1-.388-.388v-4.744a.388.388,0,0,1,.776,0v4.744A.387.387,0,0,1,1739.1,733.137Zm-127.947,0a.387.387,0,0,1-.387-.388v-4.744a.388.388,0,1,1,.775,0v4.744A.387.387,0,0,1,1611.151,733.137Zm127.947-52.2a.388.388,0,0,1-.388-.388v-4.744a.388.388,0,0,1,.776,0v4.744A.388.388,0,0,1,1739.1,680.941Zm-127.947,0a.387.387,0,0,1-.387-.388v-4.744a.388.388,0,1,1,.775,0v4.744A.387.387,0,0,1,1611.151,680.941ZM1739.1,670.8a.388.388,0,0,1-.388-.388V622.8a8.071,8.071,0,0,0-8.062-8.062h-19.625a.388.388,0,0,1,0-.775h19.625a8.847,8.847,0,0,1,8.837,8.837V670.41A.388.388,0,0,1,1739.1,670.8Zm-127.947,0a.388.388,0,0,1-.387-.388V622.8a8.847,8.847,0,0,1,8.837-8.837h19.625a.388.388,0,1,1,0,.775H1619.6a8.072,8.072,0,0,0-8.062,8.062V670.41A.387.387,0,0,1,1611.151,670.8Z" transform="translate(-1610.763 -604.991)" fill="#8673c6"/>
    </g>
    <g id="Grupo_47021" data-name="Grupo 47021" transform="translate(1322.281 235.556)">
      <g id="Grupo_47020" data-name="Grupo 47020" transform="translate(3.016 3.027)">
        <path id="Trazado_97743" data-name="Trazado 97743" d="M1379.672,210.624a23.171,23.171,0,0,1-30.264,34.937L1341.2,249.1l3.535-8.209a23.171,23.171,0,0,1,34.938-30.264Z" transform="translate(-1339.732 -203.461)" fill="#fdfdfd" fill-rule="evenodd"/>
        <path id="Trazado_97744" data-name="Trazado 97744" d="M1360.68,248.027a23.531,23.531,0,0,1-13.935-4.559l-8,3.447a.388.388,0,0,1-.51-.509l3.447-8a23.561,23.561,0,1,1,20.583,9.572C1361.734,248.009,1361.206,248.027,1360.68,248.027Zm-13.884-5.391a.387.387,0,0,1,.233.078,22.783,22.783,0,1,0-2.462-34.353,22.877,22.877,0,0,0-2.134,29.757.389.389,0,0,1,.046.386l-3.151,7.314,7.314-3.15A.384.384,0,0,1,1346.8,242.636Z" transform="translate(-1337.12 -200.923)" fill="#00223d"/>
      </g>
      <circle id="Elipse_3890" data-name="Elipse 3890" cx="19.693" cy="19.693" r="19.693" transform="translate(6.879 6.881)" fill="#00223d"/>
      <path id="Trazado_97745" data-name="Trazado 97745" d="M1340.346,230.646a26.483,26.483,0,0,1-14.429-4.262.388.388,0,0,1,.422-.651,25.807,25.807,0,0,0,27.984.03.388.388,0,1,1,.42.652A26.568,26.568,0,0,1,1340.346,230.646Zm18.89-8.043a.388.388,0,0,1-.279-.656,25.732,25.732,0,0,0,3.241-31.616.388.388,0,1,1,.656-.413,26.7,26.7,0,0,1,3.952,16.724,26.286,26.286,0,0,1-7.29,15.843A.387.387,0,0,1,1359.236,222.6Zm-40.866-3.916a.388.388,0,0,1-.326-.177,26.6,26.6,0,0,1-4.116-17.2.388.388,0,0,1,.771.081,25.817,25.817,0,0,0,4,16.692.388.388,0,0,1-.325.6Zm-2.7-22.953a.388.388,0,0,1-.366-.517,26.576,26.576,0,0,1,32.516-16.654.388.388,0,0,1-.217.744,25.8,25.8,0,0,0-31.567,16.168A.388.388,0,0,1,1315.667,195.735Zm43.066-9.928a.387.387,0,0,1-.272-.112,25.835,25.835,0,0,0-5.367-4.061.388.388,0,0,1,.383-.674,26.621,26.621,0,0,1,5.528,4.183.388.388,0,0,1-.272.664Z" transform="translate(-1313.784 -177.498)" fill="#00223d"/>
    </g>
    <circle id="Elipse_3891" data-name="Elipse 3891" cx="4.458" cy="4.458" r="4.458" transform="translate(1375.424 222.02)" fill="#eff4ef"/>
    <circle id="Elipse_3893" data-name="Elipse 3893" cx="29.793" cy="29.793" r="29.793" transform="translate(1463.127 271.014)" fill="#5b7393"/>
    <circle id="Elipse_3894" data-name="Elipse 3894" cx="25.819" cy="25.819" r="25.819" transform="translate(1467.102 274.989)" fill="#fff"/>
    <circle id="Elipse_3895" data-name="Elipse 3895" cx="24.205" cy="24.205" r="24.205" transform="translate(1468.715 276.602)" fill="#fff"/>
    <path id="Trazado_97749" data-name="Trazado 97749" d="M2749.793,922.135a24.206,24.206,0,0,0-24.206-24.205v24.205Z" transform="translate(-1232.667 -621.328)" fill="#dee7f3" fill-rule="evenodd"/>
    <circle id="Elipse_3896" data-name="Elipse 3896" cx="0.807" cy="0.807" r="0.807" transform="translate(1492.113 279.83)" fill="#00223d"/>
    <path id="Trazado_97750" data-name="Trazado 97750" d="M2641.7,943.923a.807.807,0,1,0,1.1.3A.806.806,0,0,0,2641.7,943.923Z" transform="translate(-1159.272 -661.283)" fill="#00223d" fill-rule="evenodd"/>
    <path id="Trazado_97751" data-name="Trazado 97751" d="M2584.276,1001.35a.807.807,0,1,0,1.1-.3A.806.806,0,0,0,2584.276,1001.35Z" transform="translate(-1109.523 -711.031)" fill="#00223d" fill-rule="evenodd"/>
    <path id="Trazado_97752" data-name="Trazado 97752" d="M2563.258,1079.8a.806.806,0,1,0,.806-.807A.807.807,0,0,0,2563.258,1079.8Z" transform="translate(-1091.315 -778.989)" fill="#00223d" fill-rule="evenodd"/>
    <path id="Trazado_97753" data-name="Trazado 97753" d="M2584.276,1158.243a.807.807,0,1,0,.3-1.1A.806.806,0,0,0,2584.276,1158.243Z" transform="translate(-1109.523 -846.947)" fill="#00223d" fill-rule="evenodd"/>
    <path id="Trazado_97754" data-name="Trazado 97754" d="M2641.7,1215.67a.807.807,0,1,0-.295-1.1A.807.807,0,0,0,2641.7,1215.67Z" transform="translate(-1159.272 -896.696)" fill="#00223d" fill-rule="evenodd"/>
    <path id="Trazado_97755" data-name="Trazado 97755" d="M2720.151,1236.69a.807.807,0,1,0-.807-.807A.807.807,0,0,0,2720.151,1236.69Z" transform="translate(-1227.231 -914.905)" fill="#00223d" fill-rule="evenodd"/>
    <path id="Trazado_97756" data-name="Trazado 97756" d="M2798.6,1215.67a.807.807,0,1,0-1.1-.3A.807.807,0,0,0,2798.6,1215.67Z" transform="translate(-1295.187 -896.695)" fill="#00223d" fill-rule="evenodd"/>
    <path id="Trazado_97757" data-name="Trazado 97757" d="M2856.022,1158.243a.807.807,0,1,0-1.1.295A.807.807,0,0,0,2856.022,1158.243Z" transform="translate(-1344.935 -846.947)" fill="#00223d" fill-rule="evenodd"/>
    <path id="Trazado_97758" data-name="Trazado 97758" d="M2877.044,1079.8a.807.807,0,1,0-.807.807A.807.807,0,0,0,2877.044,1079.8Z" transform="translate(-1363.146 -778.99)" fill="#00223d" fill-rule="evenodd"/>
    <path id="Trazado_97759" data-name="Trazado 97759" d="M2856.023,1001.351a.807.807,0,1,0-.295,1.1A.806.806,0,0,0,2856.023,1001.351Z" transform="translate(-1344.936 -711.032)" fill="#00223d" fill-rule="evenodd"/>
    <path id="Trazado_97760" data-name="Trazado 97760" d="M2798.6,943.924a.807.807,0,1,0,.3,1.1A.807.807,0,0,0,2798.6,943.924Z" transform="translate(-1295.188 -661.284)" fill="#00223d" fill-rule="evenodd"/>
    <path id="Rectángulo_28321" data-name="Rectángulo 28321" d="M1.614,0h0A1.614,1.614,0,0,1,3.227,1.614v11.3a1.614,1.614,0,0,1-1.614,1.614h0A1.614,1.614,0,0,1,0,12.91V1.614A1.614,1.614,0,0,1,1.614,0Z" transform="translate(1491.307 286.285)" fill="#5b7393"/>
    <rect id="Rectángulo_28322" data-name="Rectángulo 28322" width="17.75" height="3.227" rx="1.614" transform="translate(1492.92 299.194)" fill="#5b7393"/>
    <path id="Trazado_97761" data-name="Trazado 97761" d="M2720.151,1102.985a.809.809,0,0,0,.807-.807v-16.137a.807.807,0,0,0-1.614,0v16.137A.809.809,0,0,0,2720.151,1102.985Z" transform="translate(-1227.231 -784.427)" fill="#5b7393" fill-rule="evenodd"/>
    <path id="Trazado_99551" data-name="Trazado 99551" d="M4.841,0A4.841,4.841,0,1,1,0,4.841,4.841,4.841,0,0,1,4.841,0Z" transform="translate(1488.079 295.967)" fill="#00223d"/>
    <circle id="Elipse_3898" data-name="Elipse 3898" cx="1.614" cy="1.614" r="1.614" transform="translate(1491.307 299.194)" fill="#dee7f3"/>
    <path id="Trazado_97762" data-name="Trazado 97762" d="M1898.65,292.876a4.887,4.887,0,1,0,4.888,4.888,4.888,4.888,0,0,0-4.888-4.888Zm-1.323-6.225h2.647a.544.544,0,0,1,.5.307l.875,1.751a9.4,9.4,0,0,1,1.8.746l1.857-.619a.545.545,0,0,1,.569.134l.936.936.936.936a.544.544,0,0,1,.134.568l-.619,1.857a9.35,9.35,0,0,1,.745,1.8l1.751.875a.544.544,0,0,1,.307.5v2.647a.545.545,0,0,1-.307.5l-1.751.875a9.343,9.343,0,0,1-.745,1.8l.619,1.857a.545.545,0,0,1-.134.569l-.936.936-.936.936a.545.545,0,0,1-.569.134l-1.856-.619a9.4,9.4,0,0,1-1.8.746l-.875,1.75a.544.544,0,0,1-.5.307h-2.647a.544.544,0,0,1-.5-.307l-.875-1.751a9.428,9.428,0,0,1-1.8-.746l-1.857.619a.544.544,0,0,1-.568-.134l-.936-.936-.936-.936a.544.544,0,0,1-.135-.569l.619-1.857a9.437,9.437,0,0,1-.746-1.8l-1.751-.875a.545.545,0,0,1-.307-.5V296.44a.544.544,0,0,1,.307-.5l1.751-.875a9.44,9.44,0,0,1,.746-1.8l-.619-1.857a.544.544,0,0,1,.135-.568l.936-.936.936-.936a.544.544,0,0,1,.568-.134l1.857.619a9.427,9.427,0,0,1,1.8-.746l.875-1.751A.544.544,0,0,1,1897.327,286.651Z" transform="translate(-588.57 -3.312)" fill="#eff4ef" stroke="#00223d" stroke-width="1" fill-rule="evenodd"/>
    <path id="Trazado_97772" data-name="Trazado 97772" d="M2720.687,655.74a.387.387,0,0,1-.274-.114l-3.7-3.7a.386.386,0,0,1,0-.549l3.7-3.7a.388.388,0,0,1,.548,0l3.7,3.7a.388.388,0,0,1,0,.549l-3.7,3.7A.385.385,0,0,1,2720.687,655.74Zm-3.151-4.088,3.151,3.152,3.152-3.152-3.152-3.152Z" transform="translate(-1224.84 -403.316)" fill="#eff4ef"/>
    <g id="Grupo_47026" data-name="Grupo 47026" transform="translate(1458.51 204.375)">
      <g id="Grupo_47025" data-name="Grupo 47025" transform="translate(0 0)">
        <path id="Trazado_97773" data-name="Trazado 97773" d="M2503.867,339.439h18.84a2.36,2.36,0,0,0,2.355-2.355V319.422h-9.42l-2.354,2.355h-9.421a2.362,2.362,0,0,0-2.355,2.355v12.953A2.36,2.36,0,0,0,2503.867,339.439Z" transform="translate(-2501.124 -319.034)" fill="#eff4ef" fill-rule="evenodd"/>
        <path id="Trazado_97774" data-name="Trazado 97774" d="M2520.094,337.214h-18.84a2.746,2.746,0,0,1-2.743-2.742V321.519a2.746,2.746,0,0,1,2.743-2.742h9.26l2.241-2.241a.388.388,0,0,1,.274-.114h9.42a.387.387,0,0,1,.387.388v17.662A2.746,2.746,0,0,1,2520.094,337.214Zm-18.84-17.662a1.97,1.97,0,0,0-1.968,1.967v12.953a1.97,1.97,0,0,0,1.968,1.967h18.84a1.969,1.969,0,0,0,1.967-1.967V317.2h-8.872l-2.241,2.241a.388.388,0,0,1-.274.114Z" transform="translate(-2498.511 -316.422)" fill="#00223d"/>
      </g>
      <path id="Trazado_97775" data-name="Trazado 97775" d="M2541.231,371.868h-5.888a.388.388,0,0,1,0-.775h5.888a.388.388,0,0,1,0,.775Z" transform="translate(-2530.246 -364.028)" fill="#00223d"/>
      <path id="Trazado_97776" data-name="Trazado 97776" d="M2537.7,408.314h-2.355a.388.388,0,0,1,0-.775h2.355a.388.388,0,1,1,0,.775Z" transform="translate(-2530.246 -395.764)" fill="#00223d"/>
    </g>
    <path id="Trazado_97777" data-name="Trazado 97777" d="M1431.985,282.747a12.963,12.963,0,1,0,12.213,8.59l-1.954,1.954a10.546,10.546,0,1,1-3.508-5.665l1.726-1.726a12.923,12.923,0,0,0-8.477-3.153Zm-6.823,11.687a1.622,1.622,0,0,1,2.293-2.293l4.529,4.529,10.2-10.2a1.621,1.621,0,0,1,2.293,2.293l-11.352,11.352a1.621,1.621,0,0,1-2.293,0Z" transform="translate(-83.132 -33.59)" fill="#fff" fill-rule="evenodd"/>
    <path id="Trazado_97778" data-name="Trazado 97778" d="M2219.895,236.691a.386.386,0,0,1-.274-.113l-1.6-1.6a.388.388,0,0,1,.548-.548l1.6,1.6a.388.388,0,0,1-.274.662Zm-6.4,0a.388.388,0,0,1-.274-.662l1.6-1.6a.388.388,0,1,1,.548.548l-1.6,1.6A.387.387,0,0,1,2213.5,236.691Zm1.6-4.8a.387.387,0,0,1-.275-.114l-1.6-1.6a.388.388,0,1,1,.548-.548l1.6,1.6a.388.388,0,0,1-.274.662Zm3.2,0a.388.388,0,0,1-.274-.662l1.6-1.6a.388.388,0,1,1,.548.548l-1.6,1.6A.39.39,0,0,1,2218.3,231.893Z" transform="translate(-797.289 -21.253)" fill="#eff4ef"/>
    <g id="Grupo_47028" data-name="Grupo 47028" transform="translate(1445.923 335.955)">
      <path id="Trazado_96247" data-name="Trazado 96247" d="M956.193,1485.612s.365,2.267.543,4.512a1.5,1.5,0,0,1-1.346,1.675c-2.719.125-8.536.367-10.624.264a.5.5,0,0,1-.4-.689h0a1.088,1.088,0,0,1,.524-.607l9.609-4.854Z" transform="translate(-924.144 -1376.948)" fill="#12263f"/>
      <path id="Trazado_96248" data-name="Trazado 96248" d="M949.168,1475.122l-.293,2.712s-1.683.861-2.833-.108l.7-3.022Z" transform="translate(-916.82 -1367.79)" fill="url(#linear-gradient-3)"/>
      <path id="Trazado_96249" data-name="Trazado 96249" d="M898,1159.646c.126.708.679,35.342-2.69,50.863a.541.541,0,0,0,.281.613,7.709,7.709,0,0,0,2.743.613.838.838,0,0,0,.819-.651c.963-3.6,5.576-21.643,6.178-38.879.672-19.259,0-.656,0-.656l-.395-11.9Z" transform="translate(-865.87 -1103.301)" fill="#00223d"/>
      <path id="Trazado_96250" data-name="Trazado 96250" d="M868.318,1492.981a17.5,17.5,0,0,1,1.141,4.187.934.934,0,0,1-.755,1.13,32.352,32.352,0,0,1-3.388.213.913.913,0,0,1-.847-1.049,8.372,8.372,0,0,1,1.685-4.352Z" transform="translate(-825.215 -1383.134)" fill="#12263f"/>
      <path id="Trazado_96251" data-name="Trazado 96251" d="M871.611,1470.415l-.684,4.1a2.229,2.229,0,0,1-2.014.152l.327-4.413Z" transform="translate(-827.999 -1364.057)" fill="url(#linear-gradient-3)"/>
      <path id="Trazado_96252" data-name="Trazado 96252" d="M862.606,1156.249c2.755,18.273-.6,45.164-1.728,50.427a.781.781,0,0,1-.6.623,4.567,4.567,0,0,1-2.155-.094.743.743,0,0,1-.492-.693c-.152-4.255.121-30.377-2.446-40.7a2.357,2.357,0,0,0-.823-1.294l-4.982-3.893-.382-6.292Z" transform="translate(-817.146 -1098.841)" fill="#00223d"/>
      <g id="Grupo_46179" data-name="Grupo 46179" transform="translate(3.52 8.731)">
        <path id="Trazado_96253" data-name="Trazado 96253" d="M861.131,942.8a71.076,71.076,0,0,1,17.365,2.383c2.461,15.782.43,33.985.43,33.985-6.392,1.842-13.6-1.126-13.6-1.126-1.062-6.6-6.019-25.161-6.019-25.161a25.507,25.507,0,0,1-10.093-3.521,20.364,20.364,0,0,0,3.5-8.043A25.423,25.423,0,0,0,861.131,942.8Z" transform="translate(-836.745 -928.747)" fill="#8ec8c8"/>
        <path id="Trazado_96254" data-name="Trazado 96254" d="M1034.109,863.693a1.483,1.483,0,0,1,1.837-.567c1.215,5.64,7.586,10.214,14.13,12.449a20.368,20.368,0,0,1-3.5,8.043C1035.716,876.906,1034.109,863.693,1034.109,863.693Z" transform="translate(-1034.109 -863.005)" fill="url(#linear-gradient-3)"/>
      </g>
      <g id="Grupo_46180" data-name="Grupo 46180">
        <path id="Trazado_96255" data-name="Trazado 96255" d="M1134.58,818.3c-.085.3.9.748,1.477-.465.02-.581.341-3.071.026-3.545a44.714,44.714,0,0,0-4.946-5.683.914.914,0,0,0-.1,1.186l1.583,1.812a8.777,8.777,0,0,0-.924,2.008,2.652,2.652,0,0,0,.221,1.794c.278.55.657,1.265,1.015,1.825A2.135,2.135,0,0,0,1134.58,818.3Z" transform="translate(-1130.864 -808.611)" fill="url(#linear-gradient-6)"/>
        <path id="Trazado_96256" data-name="Trazado 96256" d="M1138.1,834.614l1.442,1.344L1140,837.3l-1.286,1.568a19.7,19.7,0,0,0-.754-3.229C1137.639,835.06,1137.805,834.782,1138.1,834.614Z" transform="translate(-1135.653 -830.44)" fill="url(#linear-gradient-7)"/>
      </g>
      <path id="Trazado_96257" data-name="Trazado 96257" d="M796.063,974.187l3.166-8.786s7.712,5.759,8.979,13.06a16.326,16.326,0,0,0-6.495,2C800.543,977.566,796.063,974.187,796.063,974.187Z" transform="translate(-753.958 -940.235)" fill="#8ec8c8"/>
      <path id="Trazado_96258" data-name="Trazado 96258" d="M906.452,904.663l2.627,8.35a.315.315,0,0,1-.125.362,5.706,5.706,0,0,1-6.4-.474,1.433,1.433,0,0,1-.593-1.012l-.851-7.226Z" transform="translate(-870.183 -889.246)" fill="url(#linear-gradient-8)"/>
      <g id="Grupo_46181" data-name="Grupo 46181" transform="translate(28.005 3.346)">
        <path id="Trazado_96259" data-name="Trazado 96259" d="M914.778,856.492s-2.885,5.968-2.515,8.379,3.945,2.238,7.067.28l2.181-6.444Z" transform="translate(-912.23 -852.153)" fill="url(#linear-gradient-9)"/>
        <path id="Trazado_96260" data-name="Trazado 96260" d="M890.949,839.291a.258.258,0,0,1-.1-.36,6.707,6.707,0,0,0,.8-1.873s.519-.365-1.32-.849-4.58-1.234-5.156-2.954c-.562-1.677.914-5.894,3.27-2.534a.212.212,0,0,0,.354,0,2.212,2.212,0,0,1,2.81-1,2.347,2.347,0,0,1,1.449,2.248.23.23,0,0,0,.263.25,2.5,2.5,0,0,1,3.014,1.544c.615,1.486.215,2.327-.149,2.739a.255.255,0,0,0,.1.407,1.476,1.476,0,0,1,.947,1.684c-.078,1.56-1.665,1.422-2.117,1.351a.213.213,0,0,0-.2.077c-.388.471-2.133,2.472-4.022,2.713a.243.243,0,0,1-.237-.328l.818-2.612a.256.256,0,0,0-.122-.306Z" transform="translate(-883.987 -829.457)" fill="#00223d"/>
        <path id="Trazado_96261" data-name="Trazado 96261" d="M915.852,889.017s2.054-1.549,2.2-.244-1.85,1.889-2.84,1.4Z" transform="translate(-909.219 -878.814)" fill="url(#linear-gradient-10)"/>
      </g>
      <path id="Trazado_96272" data-name="Trazado 96272" d="M798.489,1045.016s5.271,13.194-7.613,15.125l-1.757-1.609s6.442-3.862,2.928-11.586C792.048,1046.947,795.854,1043.406,798.489,1045.016Z" transform="translate(-744.292 -1006.719)" fill="url(#linear-gradient-11)"/>
      <path id="Trazado_96273" data-name="Trazado 96273" d="M855.9,1131.42h-4.685s-2.928,4.184-2.635,5.149,3.187.2,3.187.2l1.5-2.773s4.392.322,4.392-.965S855.9,1131.42,855.9,1131.42Z" transform="translate(-811.071 -1079.607)" fill="url(#linear-gradient-12)"/>
    </g>
    <g id="Grupo_54465" data-name="Grupo 54465" transform="translate(1318.369 356.327)">
      <g id="Grupo_46103" data-name="Grupo 46103" transform="translate(0 27.546)">
        <g id="Grupo_46101" data-name="Grupo 46101">
          <path id="Trazado_96014" data-name="Trazado 96014" d="M202.134,71.541c1.049-.495,1.975-.939,2.789-1.338-.243-.877-.486-1.749-.73-2.625-.26-.868-.508-1.745-.751-2.621-.91.1-1.925.21-3.083.34l-2.324.264a14.747,14.747,0,0,0-2.953-3.619l.763-2.261c.382-1.09.709-2.063,1.015-2.927-.8-.44-1.594-.881-2.386-1.309s-1.611-.877-2.407-1.321c-.562.726-1.2,1.522-1.908,2.441l-1.5,1.908a14.884,14.884,0,0,0-4.068-.478l-.99-2.185c-.478-1.053-.893-1.984-1.279-2.823-.881.226-1.762.457-2.638.684s-1.761.457-2.638.684c.084.918.159,1.938.273,3.087l.21,2.386a15.344,15.344,0,0,0-3.33,2.416l-2.143-.893c-1.074-.453-2.013-.843-2.873-1.2-.482.772-.965,1.548-1.447,2.3l-1.447,2.319c.688.608,1.447,1.3,2.294,2.068l1.707,1.518a15.245,15.245,0,0,0-.818,5.452l-1.975.939c-1.049.495-1.975.939-2.8,1.321.243.877.491,1.753.751,2.621.243.877.486,1.749.73,2.625.914-.1,1.942-.214,3.091-.323l2.11-.226a15.127,15.127,0,0,0,3.1,3.938l-.671,1.9c-.382,1.086-.709,2.059-1.015,2.923.8.44,1.59.868,2.386,1.309s1.6.881,2.4,1.3c.566-.709,1.212-1.51,1.917-2.407l1.262-1.59a14.685,14.685,0,0,0,4.437.537l.818,1.833c.461,1.061.889,1.988,1.258,2.814.881-.231,1.757-.457,2.638-.684s1.757-.457,2.638-.684c-.08-.9-.159-1.921-.252-3.074l-.176-2.055a15.545,15.545,0,0,0,3.573-2.667l1.908.784c1.074.44,2.009.826,2.864,1.166.486-.755.969-1.531,1.451-2.3s.965-1.531,1.447-2.3c-.688-.608-1.447-1.3-2.311-2.063l-1.631-1.434a14.885,14.885,0,0,0,.7-5.507Zm-14.9,10.925a9.622,9.622,0,1,1,6.895-11.731A9.626,9.626,0,0,1,187.232,82.467Z" transform="translate(-164.698 -52.987)" fill="#5b7393"/>
        </g>
        <g id="Grupo_46102" data-name="Grupo 46102" transform="translate(8.335 8.352)">
          <path id="Trazado_96015" data-name="Trazado 96015" d="M176.753,78.442a11.8,11.8,0,1,1,13.4-9.94A11.813,11.813,0,0,1,176.753,78.442Zm3.171-21.385A9.824,9.824,0,1,0,188.2,68.213,9.836,9.836,0,0,0,179.924,57.057Z" transform="translate(-166.685 -54.978)" fill="#00223d"/>
        </g>
      </g>
      <g id="Grupo_46105" data-name="Grupo 46105" transform="translate(11.529)">
        <path id="Trazado_96016" data-name="Trazado 96016" d="M191.684,55.91c.591-.5,1.107-.944,1.569-1.342-.31-.52-.617-1.04-.923-1.564s-.625-1.036-.931-1.56c-.57.222-1.2.466-1.929.751l-1.447.566a9.932,9.932,0,0,0-2.521-1.824l.1-1.59c.059-.763.1-1.447.151-2.055-.587-.147-1.178-.294-1.761-.432s-1.187-.289-1.774-.44c-.239.566-.507,1.187-.809,1.9l-.642,1.485a9.819,9.819,0,0,0-2.7.39l-1.015-1.237c-.487-.6-.914-1.124-1.309-1.6-.524.3-1.053.6-1.581.893l-1.577.893c.21.575.432,1.216.7,1.938l.545,1.5a10.342,10.342,0,0,0-1.732,2.126l-1.531-.21c-.768-.109-1.439-.2-2.055-.281-.176.583-.352,1.162-.537,1.732s-.357,1.162-.533,1.74q.818.409,1.829.939l1.363.684a10.025,10.025,0,0,0,.407,3.649l-1.111.944c-.591.5-1.111.944-1.573,1.334.306.52.612,1.04.931,1.556s.612,1.044.919,1.564c.57-.218,1.216-.47,1.933-.738l1.321-.5a10.152,10.152,0,0,0,2.672,2l-.1,1.338c-.059.768-.1,1.447-.151,2.055.587.147,1.17.285,1.762.436s1.174.294,1.77.428c.243-.558.52-1.183.822-1.879l.537-1.241a9.712,9.712,0,0,0,2.948-.415l.843,1.04c.478.6.914,1.128,1.292,1.6l1.581-.893,1.581-.893c-.205-.566-.432-1.208-.692-1.933l-.461-1.292a10.518,10.518,0,0,0,1.841-2.332l1.363.176c.763.1,1.434.189,2.042.264.185-.57.361-1.153.541-1.732s.361-1.153.537-1.732c-.545-.273-1.153-.587-1.841-.931l-1.3-.646a9.907,9.907,0,0,0-.491-3.666Zm-7.721,9.583a6.409,6.409,0,1,1,2.428-8.732A6.408,6.408,0,0,1,183.963,65.493Z" transform="translate(-167.447 -46.419)" fill="#7d6eb2"/>
        <g id="Grupo_46104" data-name="Grupo 46104" transform="translate(5.511 5.62)">
          <path id="Trazado_96017" data-name="Trazado 96017" d="M177.505,63.428a7.859,7.859,0,1,1,6.924-8.694A7.872,7.872,0,0,1,177.505,63.428Zm-1.623-14.314a6.547,6.547,0,1,0,7.243,5.767A6.558,6.558,0,0,0,175.882,49.114Z" transform="translate(-168.761 -47.759)" fill="#00223d"/>
        </g>
      </g>
      <g id="Grupo_46107" data-name="Grupo 46107" transform="translate(36.224 15.614)">
        <path id="Trazado_96018" data-name="Trazado 96018" d="M198.444,60.518q.956-.717,1.7-1.283c-.285-.558-.566-1.116-.851-1.673s-.579-1.107-.864-1.665c-.6.193-1.271.4-2.034.65l-1.531.495A10.2,10.2,0,0,0,192.376,55l.206-1.631c.109-.784.2-1.489.285-2.114-.6-.189-1.2-.377-1.791-.554s-1.208-.373-1.8-.562c-.281.566-.6,1.187-.956,1.908l-.751,1.493a10.234,10.234,0,0,0-2.81.231l-.969-1.338c-.466-.646-.872-1.216-1.246-1.732l-1.686.822q-.843.415-1.686.822c.18.608.373,1.288.6,2.047l.466,1.581a10.6,10.6,0,0,0-1.917,2.084l-1.569-.31c-.784-.159-1.468-.294-2.1-.415-.222.587-.44,1.174-.667,1.753l-.654,1.761c.545.315,1.149.679,1.829,1.082l1.359.788a10.524,10.524,0,0,0,.193,3.791l-1.2.906c-.642.474-1.2.9-1.707,1.271.285.558.57,1.116.864,1.669s.566,1.111.851,1.669c.6-.193,1.283-.411,2.042-.642l1.392-.44a10.461,10.461,0,0,0,2.63,2.235l-.189,1.371c-.109.784-.2,1.485-.285,2.11.6.193,1.191.369,1.787.558s1.2.377,1.8.554c.285-.558.612-1.187.965-1.887l.633-1.246a10.129,10.129,0,0,0,3.07-.243l.8,1.124c.457.65.872,1.22,1.233,1.728q.843-.415,1.686-.822c.562-.277,1.124-.549,1.686-.822-.176-.6-.369-1.275-.591-2.042l-.4-1.359a10.793,10.793,0,0,0,2.047-2.29l1.4.268c.78.151,1.468.285,2.093.4.222-.579.44-1.166.663-1.753s.445-1.166.663-1.753c-.545-.315-1.153-.679-1.841-1.078l-1.3-.742a10.128,10.128,0,0,0-.277-3.812Zm-8.56,9.407a6.624,6.624,0,1,1,3.049-8.858A6.625,6.625,0,0,1,189.885,69.925Z" transform="translate(-173.335 -50.142)" fill="#8ec8c8"/>
        <g id="Grupo_46106" data-name="Grupo 46106" transform="translate(5.533 5.693)">
          <path id="Trazado_96019" data-name="Trazado 96019" d="M183.2,67.729a8.12,8.12,0,1,1,7.683-8.535A8.127,8.127,0,0,1,183.2,67.729Zm-.784-14.864a6.764,6.764,0,1,0,7.109,6.4A6.772,6.772,0,0,0,182.416,52.865Z" transform="translate(-174.654 -51.499)" fill="#00223d"/>
        </g>
      </g>
    </g>
    <g id="Grupo_54466" data-name="Grupo 54466" transform="translate(1309.811 185.709)">
      <g id="Grupo_18423" data-name="Grupo 18423" transform="translate(0 0)">
        <g id="Grupo_18421" data-name="Grupo 18421">
          <g id="Grupo_18420" data-name="Grupo 18420">
            <g id="Grupo_18419" data-name="Grupo 18419">
              <path id="Trazado_40936" data-name="Trazado 40936" d="M231.954,2164.386a18.665,18.665,0,1,1-18.665-18.665A18.665,18.665,0,0,1,231.954,2164.386Z" transform="translate(-194.623 -2145.721)" fill="#fff"/>
            </g>
          </g>
        </g>
        <path id="Trazado_40937" data-name="Trazado 40937" d="M232.331,2164.8a18.665,18.665,0,1,0-18.665,18.666A18.591,18.591,0,0,0,232.331,2164.8Z" transform="translate(-195 -2146.133)" fill="url(#radial-gradient)"/>
        <path id="Trazado_40938" data-name="Trazado 40938" d="M231.419,2168.3a14.247,14.247,0,1,0-14.247,14.247A14.195,14.195,0,0,0,231.419,2168.3Z" transform="translate(-198.45 -2149.578)" fill="none" stroke="#00223d" stroke-miterlimit="10" stroke-width="2"/>
        <g id="Grupo_18422" data-name="Grupo 18422" transform="translate(3.307 10.479)">
          <path id="Trazado_40939" data-name="Trazado 40939" d="M232.682,2164.488a18.668,18.668,0,0,1-32.137,18.588,18.608,18.608,0,0,0,32.137-18.588Z" transform="translate(-200.545 -2164.488)" fill="#eceef0"/>
        </g>
      </g>
      <g id="Grupo_53219" data-name="Grupo 53219" transform="translate(9.608 9.745)">
        <path id="Trazado_100971" data-name="Trazado 100971" d="M-1392.8,959.707h.3q3.417,0,6.833,0a1.245,1.245,0,0,1,1.158.6,1.231,1.231,0,0,1-1.132,1.871c-.793.006-1.587,0-2.381,0h-4.4c-.126,0-.251,0-.377,0a1.161,1.161,0,0,1-.892-.4q-1.13-1.241-2.267-2.475c-.023-.025-.046-.051-.07-.075-.117-.117-.24-.137-.329-.046-.115.118-.066.226.029.329q1.174,1.282,2.348,2.563a1.448,1.448,0,0,0,1.04.491c.039,0,.078.01.127.017v3.353h-5.946v-.181q0-3.819,0-7.638a2.816,2.816,0,0,1,3.038-2.889,2.974,2.974,0,0,1,2.914,3.021c.007.417,0,.833.005,1.25C-1392.8,959.561-1392.8,959.622-1392.8,959.707Z" transform="translate(1398.758 -949.045)" fill="#12263f"/>
        <path id="Trazado_100972" data-name="Trazado 100972" d="M-1317.439,777.97a3.082,3.082,0,0,1-3.089,3.091,3.09,3.09,0,0,1-3.088-3.079,3.1,3.1,0,0,1,3.076-3.1A3.091,3.091,0,0,1-1317.439,777.97Z" transform="translate(1326.19 -774.886)" fill="#12263f"/>
        <path id="Trazado_100973" data-name="Trazado 100973" d="M-1202.429,1211.724v1.449c-.067,0-.128.009-.189.009H-1215.1c-.486,0-.682-.2-.683-.688,0-.08,0-.16,0-.24a.546.546,0,0,1,.515-.523,1.861,1.861,0,0,1,.188-.006h12.647Z" transform="translate(1222.053 -1196.758)" fill="#12263f"/>
        <path id="Trazado_100974" data-name="Trazado 100974" d="M-1143.788,966.123q-2.115,0-4.23,0a1.142,1.142,0,0,1-.3-.033.538.538,0,0,1-.386-.576.542.542,0,0,1,.475-.487,1.968,1.968,0,0,1,.239-.008q4,0,8,0a.24.24,0,0,0,.274-.2q1.117-3.287,2.248-6.57a.566.566,0,0,1,.564-.437.522.522,0,0,1,.506.41.817.817,0,0,1-.035.4c-.353,1.054-.716,2.1-1.077,3.156q-.654,1.909-1.309,3.818a.629.629,0,0,1-.733.524Z" transform="translate(1157.277 -951.548)" fill="#12263f"/>
      </g>
    </g>
    <g id="Grupo_54467" data-name="Grupo 54467" transform="translate(1384.473 185.709)">
      <g id="Grupo_18423-2" data-name="Grupo 18423" transform="translate(0 0)">
        <g id="Grupo_18421-2" data-name="Grupo 18421">
          <g id="Grupo_18420-2" data-name="Grupo 18420">
            <g id="Grupo_18419-2" data-name="Grupo 18419">
              <path id="Trazado_40936-2" data-name="Trazado 40936" d="M231.954,2164.386a18.665,18.665,0,1,1-18.665-18.665A18.665,18.665,0,0,1,231.954,2164.386Z" transform="translate(-194.623 -2145.721)" fill="#fff"/>
            </g>
          </g>
        </g>
        <path id="Trazado_40937-2" data-name="Trazado 40937" d="M232.331,2164.8a18.665,18.665,0,1,0-18.665,18.666A18.591,18.591,0,0,0,232.331,2164.8Z" transform="translate(-195 -2146.133)" fill="url(#radial-gradient)"/>
        <path id="Trazado_40938-2" data-name="Trazado 40938" d="M231.419,2168.3a14.247,14.247,0,1,0-14.247,14.247A14.195,14.195,0,0,0,231.419,2168.3Z" transform="translate(-198.45 -2149.578)" fill="none" stroke="#00223d" stroke-miterlimit="10" stroke-width="2"/>
        <g id="Grupo_18422-2" data-name="Grupo 18422" transform="translate(3.307 10.479)">
          <path id="Trazado_40939-2" data-name="Trazado 40939" d="M232.682,2164.488a18.668,18.668,0,0,1-32.137,18.588,18.608,18.608,0,0,0,32.137-18.588Z" transform="translate(-200.545 -2164.488)" fill="#eceef0"/>
        </g>
      </g>
      <g id="Grupo_53221" data-name="Grupo 53221" transform="translate(9.789 10.181)">
        <path id="Trazado_100983" data-name="Trazado 100983" d="M-2667.428,722.9h-1.565a.367.367,0,0,1-.161-.008c-.051-.028-.116-.091-.114-.137s.07-.11.123-.131a.587.587,0,0,1,.2-.008q6.555,0,13.111-.007a.4.4,0,0,1,.421.284h-1.482v.586h-.608c-.286,0-.573,0-.859,0a.751.751,0,0,0-.8.75.74.74,0,0,0,.794.728c.476,0,.952,0,1.449,0,0,.089.01.161.01.232q0,2.588,0,5.175c0,.411-.138.547-.556.547h-9.409c-.423,0-.559-.137-.559-.565q0-3.59,0-7.179Zm1.756,4.009a3.509,3.509,0,0,0,3.51,3.513,3.51,3.51,0,0,0,3.5-3.52,3.512,3.512,0,0,0-3.521-3.5A3.51,3.51,0,0,0-2665.672,726.911Z" transform="translate(2670.911 -720.82)" fill="#12263f"/>
        <path id="Trazado_100984" data-name="Trazado 100984" d="M-2408.958,761.416h-1.435v-3.709a.419.419,0,0,0,0-.162,1.169,1.169,0,0,0-.136-.192,1.33,1.33,0,0,0-.151.2.4.4,0,0,0,0,.162v3.7h-.82l-.067-.061a.632.632,0,0,0,.176-.088,1.51,1.51,0,0,0-.518-2.489.257.257,0,0,1-.2-.292q.017-3.159.022-6.319c0-.288-.022-.31-.317-.311h-2.188a.431.431,0,0,1-.443-.295.4.4,0,0,1,.129-.478.517.517,0,0,1,.3-.112c1.458,0,2.919-.036,4.375.027a2.62,2.62,0,0,1,2.464,2.627c.007.688,0,1.377,0,2.065a.445.445,0,0,1-.39.492.437.437,0,0,1-.495-.465c0-.627,0-1.254,0-1.881,0-.124.055-.316-.156-.31-.194.006-.135.19-.135.307q0,3.671,0,7.342Z" transform="translate(2427.114 -748.005)" fill="#12263f"/>
        <path id="Trazado_100985" data-name="Trazado 100985" d="M-2703.809,1027.028h-5.61a2.511,2.511,0,0,1,1.094-2.1,2.785,2.785,0,0,1,3.069-.215A2.6,2.6,0,0,1-2703.809,1027.028Z" transform="translate(2709.419 -1010.22)" fill="#12263f"/>
        <path id="Trazado_100986" data-name="Trazado 100986" d="M-2420.07,1027.014a2.582,2.582,0,0,1,1.335-2.247,2.786,2.786,0,0,1,3.075.08,2.542,2.542,0,0,1,1.2,2.167Z" transform="translate(2431.907 -1010.208)" fill="#12263f"/>
        <path id="Trazado_100987" data-name="Trazado 100987" d="M-2563.855,1027.459a2.7,2.7,0,0,1,2.754-2.645,2.716,2.716,0,0,1,2.826,2.645Z" transform="translate(2569.812 -1010.66)" fill="#12263f"/>
        <path id="Trazado_100988" data-name="Trazado 100988" d="M-2381.331,947.834a1.212,1.212,0,0,1,1.233-1.227,1.226,1.226,0,0,1,1.221,1.224,1.235,1.235,0,0,1-1.219,1.23A1.221,1.221,0,0,1-2381.331,947.834Z" transform="translate(2394.753 -935.653)" fill="#12263f"/>
        <path id="Trazado_100989" data-name="Trazado 100989" d="M-2668.568,947.822a1.224,1.224,0,0,1-1.226,1.24,1.231,1.231,0,0,1-1.228-1.219,1.222,1.222,0,0,1,1.228-1.235A1.216,1.216,0,0,1-2668.568,947.822Z" transform="translate(2672.593 -935.652)" fill="#12263f"/>
        <path id="Trazado_100990" data-name="Trazado 100990" d="M-2524.5,946.6a1.219,1.219,0,0,1,1.227,1.235,1.226,1.226,0,0,1-1.227,1.219,1.232,1.232,0,0,1-1.229-1.218A1.226,1.226,0,0,1-2524.5,946.6Z" transform="translate(2533.239 -935.649)" fill="#12263f"/>
        <path id="Trazado_100991" data-name="Trazado 100991" d="M-2329.43,679.95a1.111,1.111,0,0,1-1.122,1.111,1.119,1.119,0,0,1-1.118-1.119,1.126,1.126,0,0,1,1.136-1.124A1.118,1.118,0,0,1-2329.43,679.95Z" transform="translate(2347.123 -678.817)" fill="#12263f"/>
        <path id="Trazado_100992" data-name="Trazado 100992" d="M-2655.764,702.612v.284h-.229q-6.484,0-12.968,0c-.115,0-.3.067-.309-.129-.006-.214.19-.149.312-.149q6.464,0,12.927,0Z" transform="translate(2670.912 -701.632)" fill="#12263f"/>
        <path id="Trazado_100994" data-name="Trazado 100994" d="M-2571.083,749.746v.234q0,1.462,0,2.925c0,.3.011.315.307.315h3.022a3.167,3.167,0,0,1-3.241,2.931,3.194,3.194,0,0,1-3.149-3.411A3.149,3.149,0,0,1-2571.083,749.746Z" transform="translate(2579.682 -746.843)" fill="#12263f"/>
      </g>
    </g>
    <g id="Grupo_54468" data-name="Grupo 54468" transform="translate(1347.142 185.709)">
      <g id="Grupo_18423-3" data-name="Grupo 18423" transform="translate(0 0)">
        <g id="Grupo_18421-3" data-name="Grupo 18421">
          <g id="Grupo_18420-3" data-name="Grupo 18420">
            <g id="Grupo_18419-3" data-name="Grupo 18419">
              <path id="Trazado_40936-3" data-name="Trazado 40936" d="M231.954,2164.386a18.665,18.665,0,1,1-18.665-18.665A18.665,18.665,0,0,1,231.954,2164.386Z" transform="translate(-194.623 -2145.721)" fill="#fff"/>
            </g>
          </g>
        </g>
        <path id="Trazado_40937-3" data-name="Trazado 40937" d="M232.331,2164.8a18.665,18.665,0,1,0-18.665,18.666A18.591,18.591,0,0,0,232.331,2164.8Z" transform="translate(-195 -2146.133)" fill="url(#radial-gradient)"/>
        <path id="Trazado_40938-3" data-name="Trazado 40938" d="M231.419,2168.3a14.247,14.247,0,1,0-14.247,14.247A14.195,14.195,0,0,0,231.419,2168.3Z" transform="translate(-198.45 -2149.578)" fill="none" stroke="#00223d" stroke-miterlimit="10" stroke-width="2"/>
        <g id="Grupo_18422-3" data-name="Grupo 18422" transform="translate(3.307 10.479)">
          <path id="Trazado_40939-3" data-name="Trazado 40939" d="M232.682,2164.488a18.668,18.668,0,0,1-32.137,18.588,18.608,18.608,0,0,0,32.137-18.588Z" transform="translate(-200.545 -2164.488)" fill="#eceef0"/>
        </g>
      </g>
      <path id="Trazado_101000" data-name="Trazado 101000" d="M-3765.534,588.958V589h-2.866l-.566-2.72h-.02q-.082,1.357-.163,2.711h-9.573c.117-1.448.233-2.887.35-4.326a.089.089,0,0,0-.053.042q-.989,1.647-1.979,3.294a1.752,1.752,0,0,1-1.141.818,1.629,1.629,0,0,1-1.732-.908,1.956,1.956,0,0,1-.086-1.287c.062-.257.162-.5.248-.755l1.866-5.462c.01-.03.018-.061.032-.112l-.1.062c-.285.188-.57.377-.855.565a.449.449,0,0,1-.522.005.444.444,0,0,1,.01-.736c.178-.127.365-.242.545-.367a.113.113,0,0,0,.045-.09.765.765,0,0,1,.042-.478,1.874,1.874,0,0,1,.631-.8,2.24,2.24,0,0,1,1.211-.512.851.851,0,0,1,.614.149.1.1,0,0,0,.092-.007c.168-.106.331-.221.5-.325a.114.114,0,0,0,.056-.159,2.192,2.192,0,0,1,.876-2.452,2.115,2.115,0,0,1,2.387-.069,2.091,2.091,0,0,1,1.064,2.136,2.093,2.093,0,0,1-1.383,1.82,2.127,2.127,0,0,1-2.234-.354c-.08-.063-.152-.136-.231-.208l-.754.5a3.376,3.376,0,0,0,.65.538.1.1,0,0,1,.047.143q-.564,1.484-1.122,2.97c-.012.031-.021.063-.031.094a6.383,6.383,0,0,1,2.28-1.4,7.063,7.063,0,0,1,2.644-.4c0-.129,0-.241,0-.354,0-.07-.023-.094-.086-.117q-.419-.155-.833-.325a2.227,2.227,0,0,1-.253-.144,2.955,2.955,0,0,0,2.144-2.847,3.021,3.021,0,0,0-2.317-3.091,4.175,4.175,0,0,1,.806-.469,4.3,4.3,0,0,1,4.672.811,3.512,3.512,0,0,1,.668,4.191,4.049,4.049,0,0,1-1.286,1.4,5.635,5.635,0,0,1-.859.411c-.029.014-.072.041-.073.064-.007.148,0,.3,0,.445l.052.008c.391.048.788.069,1.173.148a5.662,5.662,0,0,1,3.6,2.291,4.256,4.256,0,0,1,.7,1.377c.307,1.151.6,2.3.9,3.456C-3765.681,588.428-3765.606,588.693-3765.534,588.958Zm-12.608-11.99a1.327,1.327,0,0,0,1.321,1.329,1.329,1.329,0,0,0,1.325-1.325,1.321,1.321,0,0,0-1.316-1.321A1.319,1.319,0,0,0-3778.142,576.967Z" transform="translate(3793.384 -563.164)" fill="#12263f"/>
    </g>
  </g>
</svg>
