<svg xmlns="http://www.w3.org/2000/svg" xmlns:xlink="http://www.w3.org/1999/xlink" width="280.933" height="151" viewBox="0 0 280.933 151">
  <defs>
    <linearGradient id="linear-gradient" x1="0.5" x2="0.5" y2="1" gradientUnits="objectBoundingBox">
      <stop offset="0" stop-color="#fff"/>
      <stop offset="1" stop-color="#d3d3d3"/>
    </linearGradient>
  </defs>
  <g id="Grupo_42974" data-name="Grupo 42974" transform="translate(-41.675 -67.932)">
    <g id="Grupo_42974-2" data-name="Grupo 42974" transform="translate(140.218 67.932)" opacity="0.29">
      <path id="Trazado_94714" data-name="Trazado 94714" d="M327.745,141.276H265.283V92.994h51.145l11.318,11.318Z" transform="translate(-252.966 -80.569)" fill="#c9c8c3"/>
      <line id="Línea_1491" data-name="Línea 1491" x1="10.949" transform="translate(0 13.001)" fill="none" stroke="#fff" stroke-miterlimit="10" stroke-width="2.075"/>
      <line id="Línea_1492" data-name="Línea 1492" y1="10.949" transform="translate(12.659)" fill="none" stroke="#fff" stroke-miterlimit="10" stroke-width="2.075"/>
      <path id="Trazado_94715" data-name="Trazado 94715" d="M366.372,94.846v11.291H377.69" transform="translate(-303.937 -81.503)" fill="#fff"/>
    </g>
    <g id="Grupo_42996" data-name="Grupo 42996" transform="translate(62.096 77.987)">
      <g id="Grupo_42995" data-name="Grupo 42995" transform="translate(0 0)">
        <g id="Grupo_42987" data-name="Grupo 42987">
          <path id="Trazado_94716" data-name="Trazado 94716" d="M105.466,227.476l53.456-2.361,16.287,71.31-83.372.453-8.5-40.783A23.839,23.839,0,0,1,105.466,227.476Z" transform="translate(-82.865 -157.242)" fill="#00223d"/>
          <g id="Grupo_42976" data-name="Grupo 42976" transform="translate(7.563 33.936)">
            <line id="Línea_1493" data-name="Línea 1493" x2="2.542" y2="9.94" transform="translate(17.219 25.69)" fill="none" stroke="#122832" stroke-miterlimit="10" stroke-width="5.917"/>
            <line id="Línea_1494" data-name="Línea 1494" x2="2.542" y2="9.94" transform="translate(39.658 25.69)" fill="none" stroke="#122832" stroke-miterlimit="10" stroke-width="5.917"/>
            <g id="Grupo_42975" data-name="Grupo 42975">
              <path id="Trazado_94717" data-name="Trazado 94717" d="M108.371,183.979h44.041l-9.431-27.316H103.013a4.889,4.889,0,0,0-4.622,6.485l6.282,18.2A3.912,3.912,0,0,0,108.371,183.979Z" transform="translate(-98.12 -156.663)" fill="#00223d"/>
            </g>
          </g>
          <g id="Grupo_42986" data-name="Grupo 42986" transform="translate(7.479)">
            <g id="Grupo_42985" data-name="Grupo 42985">
              <g id="Grupo_42984" data-name="Grupo 42984">
                <g id="Grupo_42977" data-name="Grupo 42977" transform="translate(41.41 55.646)">
                  <path id="Trazado_94718" data-name="Trazado 94718" d="M297.726,262.246c7.16-4.752,19.93-12.9,19.93-12.9s22.573-14.647,22.153-15.9-8.038,2.027-8.038,2.027c.6-1.158,7.554-5.3,7.277-6.053s-9.111,4.085-9.5,3.718,8.818-5.342,8.28-6.338-9.747,3.979-10.262,3.742,8.681-5.718,7.514-6.567-13.9,8.794-15.045,8.577,2.851-5.913,2.644-8.438-10.64,12.923-10.64,12.923c-2.4,2.085-21.256,10.183-21.256,10.183Z" transform="translate(-236.59 -212.243)" fill="#df9257"/>
                  <path id="Trazado_94719" data-name="Trazado 94719" d="M348.887,239.89l-3.348,6.182s1.555-6.285,1.159-6.779Z" transform="translate(-264.2 -220.038)" fill="#b6613b"/>
                  <path id="Trazado_94720" data-name="Trazado 94720" d="M224.6,236.711s-23.681-50.367-38.456-31.188c-15.886,20.621,12.653,39.379,27.2,54.76a10.7,10.7,0,0,0,14.585.879l34.308-22.985L256.434,226.3Z" transform="translate(-181.476 -200.814)" fill="#df9257"/>
                  <path id="Trazado_94721" data-name="Trazado 94721" d="M199.1,246.222c6.331-7.167,15.02-16.667,21.909-23.272-7.975-13.594-24.677-31.005-34.86-17.787C174.717,220,186.29,233.877,199.1,246.222Z" transform="translate(-181.476 -200.454)" fill="#26aab7"/>
                </g>
                <g id="Grupo_42978" data-name="Grupo 42978" transform="translate(9.836 47.268)">
                  <path id="Trazado_94722" data-name="Trazado 94722" d="M117.813,211.68c-.815-12.708,20.966-22.968,20.966-22.968l8.106-5.158.485,1.353,13.522,12.638,2.242-5.846-.127-2.188,2.217,2.328c1.632.268,8.289,9.351,10.034,13.58,2.655,6.435,3.465,14.871,3.72,19.935,6.023,49.316,6.487,50.852,6.487,50.852H125.161S122.873,290.586,117.813,211.68Z" transform="translate(-117.791 -183.554)" fill="#26aab7"/>
                  <path id="Trazado_94723" data-name="Trazado 94723" d="M130.368,203.584c.622-.411,39.782,82.719,39.782,82.719H121.612s-4.106-36.416-3.506-65.773C118.106,220.531,118.815,211.234,130.368,203.584Z" transform="translate(-117.92 -193.653)" fill="#18939f"/>
                </g>
                <g id="Grupo_42981" data-name="Grupo 42981" transform="translate(36.814)">
                  <g id="Grupo_42980" data-name="Grupo 42980">
                    <path id="Trazado_94724" data-name="Trazado 94724" d="M201.718,108.776c1.145-2.331.76-6.04.76-6.04s9.616-3.28,7.32-8.778S196.2,91.529,196.2,91.529s4.278-6.56-4.128-1.224c-3.342,2.121-3.9,2.642-6.494,1.486s-6.715.328-7.914,2.5c-.743,1.348-.286,2.545-1.3,2.439-3.761-.394-5.521,3.533-2.938,11.857,0,0-1.3,4.244,1.232,10.863.915,2.391,4.034,3.193,4.034,3.193" transform="translate(-172.206 -88.214)" fill="#0e162e"/>
                    <path id="Trazado_94725" data-name="Trazado 94725" d="M203.759,118.326s2.852,19.29-3.022,26.728c-3.015,2.919-6.573,1.639-8.856,1.551-.088-.824.358,6.7.759,13.444,0,.017,0,.034,0,.051-.119,1.161-1.677,1.53-3.512,1.425a10.975,10.975,0,0,1-7.353-3.552l-5.578-5.99,3.112-14.021a23.455,23.455,0,0,0,.494-4.179c-2.265-.285-3.84-3.745-2.894-5.993.9-2.145,4.412-2.286,4.96-.261.555,2.053,2.274,2,2.489.295.123-.981-.619-9.038,5.189-9.989,3.487.244,4.292,2.661,6.067,2.758s3.415-3.646,4.29-2.636C202.656,121.145,203.759,118.326,203.759,118.326Z" transform="translate(-174.216 -103.124)" fill="#df9257"/>
                    <path id="Trazado_94726" data-name="Trazado 94726" d="M179.7,140.026c1.213-4.088,3.9-.73,3.9-.73Z" transform="translate(-175.985 -113.316)" fill="#b6613b"/>
                    <path id="Trazado_94727" data-name="Trazado 94727" d="M205.687,175.656l-3.507-.311,2.793,7.162Z" transform="translate(-187.32 -132.148)" fill="#b6613b"/>
                    <g id="Grupo_42979" data-name="Grupo 42979" transform="translate(20.741 22.052)">
                      <path id="Trazado_94728" data-name="Trazado 94728" d="M225.089,146.257s1.626,4.115,1.389,4.1c-.625-.051-1.906.02-1.906.02Z" transform="translate(-219.351 -139.533)" fill="#b6613b"/>
                      <ellipse id="Elipse_3849" data-name="Elipse 3849" cx="1.108" cy="0.535" rx="1.108" ry="0.535" transform="translate(7.162 7.393) rotate(-88.584)" fill="#0e162e"/>
                      <path id="Trazado_94729" data-name="Trazado 94729" d="M220.4,143.767c-.015.612.212,1.114.508,1.121s.547-.482.562-1.095-.212-1.114-.508-1.121S220.414,143.155,220.4,143.767Z" transform="translate(-217.246 -137.725)" fill="#0e162e"/>
                      <path id="Trazado_94730" data-name="Trazado 94730" d="M214.421,134.826c-.707.07-.757-2.428,2.82-2.1,1.011.092,1.869,1.087,1.395,1.846C218.326,135.064,216.982,134.573,214.421,134.826Z" transform="translate(-214.041 -132.694)" fill="#0e162e"/>
                      <path id="Trazado_94731" data-name="Trazado 94731" d="M230.844,135.35c.672.231,1.7-1.653-.293-2.345a1.27,1.27,0,0,0-1.639,1.772C229.166,135.238,229.784,134.986,230.844,135.35Z" transform="translate(-221.462 -132.8)" fill="#0e162e"/>
                      <path id="Trazado_94732" data-name="Trazado 94732" d="M224.06,157.221l-4.8-.382s.505,2.307,2.61,2.475C223.561,159.45,224.06,157.221,224.06,157.221Z" transform="translate(-216.672 -144.868)" fill="#fff"/>
                    </g>
                  </g>
                </g>
                <path id="Trazado_94733" data-name="Trazado 94733" d="M167.079,341.22c8.538-.973,23.864-2.754,23.864-2.754s30.7.643,30.9-.663-18.631-11.276-18.631-11.276c-3.082.766-35.475-1.846-35.475-1.846Z" transform="translate(-132.807 -207.445)" fill="#df9257"/>
                <g id="Grupo_42982" data-name="Grupo 42982" transform="translate(0 53.056)">
                  <path id="Trazado_94734" data-name="Trazado 94734" d="M129.212,215.413c.207-4.195,5.992-18.385-2.174-20.1-8.612-1.8-34.07,24.275-28.223,67.817,1.327,9.88,7.04,18.035,24.17,14.9l32.376-4.772-.981-12.42L123,253.655S128.6,227.867,129.212,215.413Z" transform="translate(-97.951 -195.229)" fill="#df9257"/>
                </g>
                <g id="Grupo_42983" data-name="Grupo 42983" transform="translate(0.209 53.069)">
                  <path id="Trazado_94735" data-name="Trazado 94735" d="M132.366,243.209c1.307-12.421,2.287-20.805,2.615-27.456.207-4.194.436-18.712-7.731-20.423-6.264-1.312-23.317,14.873-28.877,39.054C107.622,237.763,122.983,240.21,132.366,243.209Z" transform="translate(-98.373 -195.256)" fill="#26aab7"/>
                </g>
              </g>
            </g>
          </g>
        </g>
        <g id="Grupo_42994" data-name="Grupo 42994" transform="translate(53.14 23.875)">
          <g id="Grupo_42993" data-name="Grupo 42993" transform="translate(10.209)">
            <g id="Grupo_42990" data-name="Grupo 42990">
              <g id="Grupo_42988" data-name="Grupo 42988">
                <rect id="Rectángulo_28104" data-name="Rectángulo 28104" width="6.87" height="6.7" rx="3.35" transform="translate(0)" fill="#fff" opacity="0.33"/>
                <path id="Trazado_94736" data-name="Trazado 94736" d="M211.9,142.938c.359-.568.71-1.143,1.04-1.733.89-1.594,1.71-3.25,2.6-4.833h-3.056a2.171,2.171,0,0,0-1.844,2.39v1.919A2.407,2.407,0,0,0,211.9,142.938Z" transform="translate(-210.641 -136.371)" fill="#fff" opacity="0.33"/>
              </g>
              <g id="Grupo_42989" data-name="Grupo 42989" transform="translate(0)">
                <rect id="Rectángulo_28105" data-name="Rectángulo 28105" width="6.87" height="6.7" rx="3.35" fill="none" stroke="#0e162e" stroke-miterlimit="10" stroke-width="2.156"/>
              </g>
            </g>
            <g id="Grupo_42992" data-name="Grupo 42992" transform="translate(8.404 0.134)">
              <g id="Grupo_42991" data-name="Grupo 42991">
                <rect id="Rectángulo_28106" data-name="Rectángulo 28106" width="4.616" height="6.469" rx="2.308" transform="translate(0 0)" fill="#fff" opacity="0.33"/>
                <path id="Trazado_94737" data-name="Trazado 94737" d="M228.152,142.727q1.57-2.98,3.134-5.964a1.13,1.13,0,0,0-.494-.121H229.01a1.669,1.669,0,0,0-1.417,1.837v2.795A2.051,2.051,0,0,0,228.152,142.727Z" transform="translate(-227.593 -136.641)" fill="#fff" opacity="0.33"/>
              </g>
              <rect id="Rectángulo_28107" data-name="Rectángulo 28107" width="4.616" height="6.469" rx="2.308" transform="translate(0 0)" fill="none" stroke="#0e162e" stroke-miterlimit="10" stroke-width="1.657"/>
            </g>
            <line id="Línea_1495" data-name="Línea 1495" x2="1.402" transform="translate(6.871 3.952)" fill="none" stroke="#0e162e" stroke-miterlimit="10" stroke-width="2.156"/>
          </g>
          <line id="Línea_1496" data-name="Línea 1496" x2="10.143" y2="0.138" transform="translate(0 1.605)" fill="none" stroke="#0e162e" stroke-miterlimit="10" stroke-width="2.156"/>
        </g>
      </g>
    </g>
    <g id="Grupo_43002" data-name="Grupo 43002" transform="translate(41.675 164.921)">
      <g id="Grupo_42998" data-name="Grupo 42998" transform="translate(89.497)">
        <g id="Grupo_42997" data-name="Grupo 42997" transform="translate(0)">
          <rect id="Rectángulo_28108" data-name="Rectángulo 28108" width="43.657" height="5.12" transform="translate(0 42.334)" fill="#7d6eb2"/>
          <path id="Trazado_94738" data-name="Trazado 94738" d="M278.388,348.948q-3.292,2.492-6.478,5.12h19.009v-5.12Z" transform="translate(-247.262 -306.615)" fill="#6858a0"/>
          <path id="Trazado_94739" data-name="Trazado 94739" d="M350.344,311.014H281.537l16.609-47.453h68.807Z" transform="translate(-252.116 -263.561)" fill="#7d6eb2"/>
          <line id="Línea_1497" data-name="Línea 1497" x2="69.153" transform="translate(30.656 41.982)" fill="none" stroke="#fff" stroke-miterlimit="10" stroke-width="1.311"/>
          <path id="Trazado_94740" data-name="Trazado 94740" d="M367.057,309.715a4.32,4.32,0,1,0-4.32,4.32A4.32,4.32,0,0,0,367.057,309.715Z" transform="translate(-290.881 -284.654)" fill="#fff"/>
        </g>
      </g>
      <rect id="Rectángulo_28109" data-name="Rectángulo 28109" width="280.933" height="7.384" transform="translate(0 46.611)" fill="#00223d"/>
      <g id="Grupo_43001" data-name="Grupo 43001" transform="translate(21.61 6.788)">
        <g id="Grupo_42999" data-name="Grupo 42999" transform="translate(0 16.753)">
          <path id="Trazado_94741" data-name="Trazado 94741" d="M94.989,334.384h0a9.725,9.725,0,0,1-9.725-9.725V311.045h19.449v13.614A9.725,9.725,0,0,1,94.989,334.384Z" transform="translate(-85.264 -311.045)" fill="#ffb701"/>
          <path id="Trazado_94742" data-name="Trazado 94742" d="M92.775,335.515a20.23,20.23,0,0,1-7.511-11.346v7.108A9.725,9.725,0,0,0,94.988,341h0a9.678,9.678,0,0,0,6.6-2.593A14.391,14.391,0,0,1,92.775,335.515Z" transform="translate(-85.264 -317.662)" fill="#ffb701" style="mix-blend-mode: multiply;isolation: isolate"/>
          <circle id="Elipse_3850" data-name="Elipse 3850" cx="7.347" cy="7.347" r="7.347" transform="matrix(0.974, -0.227, 0.227, 0.974, 11.274, 4.453)" fill="none" stroke="#ffb701" stroke-miterlimit="10" stroke-width="2.622"/>
        </g>
        <g id="Grupo_43000" data-name="Grupo 43000" transform="translate(4.07)" opacity="0.61">
          <path id="Trazado_94743" data-name="Trazado 94743" d="M98.251,291.433a33.463,33.463,0,0,1-3.508-5.624,10.341,10.341,0,0,1-1.268-4.188,4.409,4.409,0,0,1,1.757-3.837c1.823-1.2,4.485-.241,5.658,1.6a7.844,7.844,0,0,1,.519,6.327,60.075,60.075,0,0,1-2.52,6.034" transform="translate(-93.473 -277.253)" fill="#fff"/>
          <path id="Trazado_94744" data-name="Trazado 94744" d="M110.356,304.57a4.212,4.212,0,0,1,1.463-1.885,1.282,1.282,0,1,1,1.173,2.2,4.2,4.2,0,0,1-2.063.172" transform="translate(-101.986 -289.968)" fill="#fff"/>
        </g>
      </g>
    </g>
    <g id="Grupo_43021" data-name="Grupo 43021" transform="translate(70.201 68.143)">
      <g id="Grupo_43012" data-name="Grupo 43012" transform="translate(117.488 26.952)">
        <g id="Grupo_43011" data-name="Grupo 43011">
          <g id="Grupo_43004" data-name="Grupo 43004" transform="translate(12.867 23.774)">
            <g id="Grupo_43003" data-name="Grupo 43003">
              <path id="Trazado_94745" data-name="Trazado 94745" d="M387.452,191.17l-12-20.436a.143.143,0,0,0-.258.084v17.426a.138.138,0,0,0,.076.121.961.961,0,0,1,.258,1.473.174.174,0,0,1-.036.036.949.949,0,0,1-1.582-.693.924.924,0,0,1,.486-.814.148.148,0,0,0,.081-.129v-17.42a.143.143,0,0,0-.258-.084L362.168,190.75a.143.143,0,0,0,0,.161l5.953,12.606h13.429l5.91-12.186A.142.142,0,0,0,387.452,191.17Z" transform="translate(-362.141 -170.676)" fill="#00223d"/>
            </g>
            <path id="Rectángulo_28110" data-name="Rectángulo 28110" d="M.308,0H13.34a.308.308,0,0,1,.308.308v4A1.558,1.558,0,0,1,12.09,5.869H1.558A1.558,1.558,0,0,1,0,4.31v-4A.308.308,0,0,1,.308,0Z" transform="translate(5.866 33.357)" fill="#00223d"/>
          </g>
          <g id="Grupo_43010" data-name="Grupo 43010">
            <g id="Grupo_43007" data-name="Grupo 43007" transform="translate(5.749)">
              <g id="Grupo_43005" data-name="Grupo 43005" transform="translate(1.357 1.11)">
                <path id="Trazado_94746" data-name="Trazado 94746" d="M350.52,124.961a18.5,18.5,0,0,0,18.5,18.5" transform="translate(-350.52 -124.961)" fill="none" stroke="#f5ca56" stroke-miterlimit="10" stroke-width="1.497"/>
                <path id="Trazado_94747" data-name="Trazado 94747" d="M406.349,181.287a18.5,18.5,0,0,0-18.5-18.5" transform="translate(-369.34 -144.032)" fill="none" stroke="#f6c343" stroke-miterlimit="10" stroke-width="1.497"/>
              </g>
              <g id="Grupo_43006" data-name="Grupo 43006">
                <rect id="Rectángulo_28111" data-name="Rectángulo 28111" width="2.714" height="2.714" fill="#00223d"/>
                <rect id="Rectángulo_28112" data-name="Rectángulo 28112" width="2.714" height="2.714" transform="translate(36.762 36.516)" fill="#00223d"/>
              </g>
            </g>
            <g id="Grupo_43009" data-name="Grupo 43009" transform="translate(0 18.628)">
              <line id="Línea_1498" data-name="Línea 1498" x2="48.852" transform="translate(1.419 1.11)" fill="none" stroke="#f5ca56" stroke-miterlimit="10" stroke-width="1.497"/>
              <g id="Grupo_43008" data-name="Grupo 43008">
                <rect id="Rectángulo_28113" data-name="Rectángulo 28113" width="2.714" height="2.714" transform="translate(24.118)" fill="#00223d"/>
                <rect id="Rectángulo_28114" data-name="Rectángulo 28114" width="2.714" height="2.714" fill="#00223d"/>
                <rect id="Rectángulo_28115" data-name="Rectángulo 28115" width="2.714" height="2.714" transform="translate(48.358)" fill="#00223d"/>
              </g>
            </g>
          </g>
        </g>
      </g>
      <g id="Grupo_43013" data-name="Grupo 43013" transform="translate(0 0)">
        <path id="Trazado_94748" data-name="Trazado 94748" d="M102.937,93.371l21.828.226a2.012,2.012,0,0,1,1.8,1.165l1.992,4.29a.245.245,0,0,0,.466-.093l.219-5.316.22-21.249a3.764,3.764,0,0,0-3.725-3.8L103.2,68.359a3.764,3.764,0,0,0-3.8,3.724l-.181,17.486A3.764,3.764,0,0,0,102.937,93.371Z" transform="translate(-99.212 -68.359)" fill="#a0a0a0" opacity="0.22"/>
        <path id="Rectángulo_28116" data-name="Rectángulo 28116" d="M.555,0H4.042A.556.556,0,0,1,4.6.556V7.08a.556.556,0,0,1-.556.556H.556A.556.556,0,0,1,0,7.08V.555A.555.555,0,0,1,.555,0Z" transform="translate(10.401 12.426) rotate(0.591)" fill="#26aab7"/>
        <rect id="Rectángulo_28117" data-name="Rectángulo 28117" width="4.597" height="4.598" rx="0.431" transform="translate(5.215 15.41) rotate(0.593)" fill="#7d6eb2"/>
        <rect id="Rectángulo_28118" data-name="Rectángulo 28118" width="4.597" height="11.749" rx="0.556" transform="matrix(1, 0.01, -0.01, 1, 15.552, 8.366)" fill="#7d6eb2"/>
        <rect id="Rectángulo_28119" data-name="Rectángulo 28119" width="4.153" height="15.16" rx="0.888" transform="translate(20.695 5.007) rotate(0.593)" fill="url(#linear-gradient)"/>
      </g>
      <g id="Grupo_43020" data-name="Grupo 43020" transform="translate(160.936 71.295)" style="isolation: isolate">
        <g id="Grupo_43019" data-name="Grupo 43019" style="mix-blend-mode: multiply;isolation: isolate">
          <g id="Grupo_43014" data-name="Grupo 43014" transform="translate(13.035 2.648)">
            <circle id="Elipse_3851" data-name="Elipse 3851" cx="10.925" cy="10.925" r="10.925" transform="translate(18.733 2.77)" fill="#8ec8c8" style="mix-blend-mode: multiply;isolation: isolate"/>
            <circle id="Elipse_3852" data-name="Elipse 3852" cx="10.925" cy="10.925" r="10.925" transform="matrix(0.361, -0.933, 0.933, 0.361, 0, 20.375)" fill="#ffce83" style="mix-blend-mode: multiply;isolation: isolate"/>
            <circle id="Elipse_3853" data-name="Elipse 3853" cx="10.925" cy="10.925" r="10.925" transform="translate(9.639 18.42) rotate(-9.282)" fill="#26aab7" style="mix-blend-mode: multiply;isolation: isolate"/>
          </g>
          <g id="Grupo_43018" data-name="Grupo 43018">
            <rect id="Rectángulo_28120" data-name="Rectángulo 28120" width="67.6" height="44.728" transform="translate(0.843 1.067)" fill="none" stroke="#a0a0a0" stroke-miterlimit="10" stroke-width="0.771" stroke-dasharray="5.231"/>
            <g id="Grupo_43017" data-name="Grupo 43017">
              <g id="Grupo_43015" data-name="Grupo 43015">
                <rect id="Rectángulo_28121" data-name="Rectángulo 28121" width="3.162" height="3.162" fill="#fff" stroke="#00223d" stroke-miterlimit="10" stroke-width="1.744"/>
                <rect id="Rectángulo_28122" data-name="Rectángulo 28122" width="3.162" height="3.162" transform="translate(66.699)" fill="#fff" stroke="#00223d" stroke-miterlimit="10" stroke-width="1.744"/>
              </g>
              <g id="Grupo_43016" data-name="Grupo 43016" transform="translate(0 43.268)">
                <rect id="Rectángulo_28123" data-name="Rectángulo 28123" width="3.162" height="3.162" fill="#fff" stroke="#00223d" stroke-miterlimit="10" stroke-width="1.744"/>
                <rect id="Rectángulo_28124" data-name="Rectángulo 28124" width="3.162" height="3.162" transform="translate(66.699)" fill="#fff" stroke="#00223d" stroke-miterlimit="10" stroke-width="1.744"/>
              </g>
            </g>
          </g>
        </g>
        <path id="Trazado_94749" data-name="Trazado 94749" d="M519.75,302.15l-2.109,6.115a.644.644,0,0,1-1.224-.019l-4.183-13.479a.644.644,0,0,1,.82-.8l13.5,4.537a.644.644,0,0,1-.011,1.224l-6.376,2.019A.644.644,0,0,0,519.75,302.15Z" transform="translate(-468.387 -253.392)" fill="#00223d"/>
      </g>
    </g>
    <g id="Grupo_43024" data-name="Grupo 43024" transform="translate(52.02 95.069)">
      <g id="Grupo_43022" data-name="Grupo 43022" transform="translate(205.058)" style="isolation: isolate">
        <path id="Trazado_94750" data-name="Trazado 94750" d="M484.217,137.749a4.034,4.034,0,1,0-4.039,4.03A4.034,4.034,0,0,0,484.217,137.749Z" transform="translate(-476.149 -128.236)" fill="#7d6eb2" style="mix-blend-mode: multiply;isolation: isolate"/>
        <rect id="Rectángulo_28125" data-name="Rectángulo 28125" width="17" height="9.797" transform="translate(4.044 0) rotate(0.064)" fill="none" stroke="#a0a0a0" stroke-miterlimit="10" stroke-width="0.771" stroke-dasharray="5.231" style="mix-blend-mode: multiply;isolation: isolate"/>
      </g>
      <g id="Grupo_43023" data-name="Grupo 43023" transform="translate(0 30.165)">
        <path id="Trazado_94751" data-name="Trazado 94751" d="M84.284,226.667a3.025,3.025,0,1,0-3.029,3.022A3.025,3.025,0,0,0,84.284,226.667Z" transform="translate(-70.453 -203.744)" fill="#f6c343"/>
        <rect id="Rectángulo_28126" data-name="Rectángulo 28126" width="11.67" height="22.907" transform="translate(0.026 0) rotate(0.064)" fill="none" stroke="#a0a0a0" stroke-miterlimit="10" stroke-width="0.771" stroke-dasharray="5.231"/>
      </g>
    </g>
  </g>
</svg>
