<svg xmlns="http://www.w3.org/2000/svg" xmlns:xlink="http://www.w3.org/1999/xlink" width="203.859" height="175.359" viewBox="0 0 203.859 175.359">
  <defs>
    <linearGradient id="linear-gradient" x1="0.5" x2="0.5" y2="1" gradientUnits="objectBoundingBox">
      <stop offset="0" stop-color="#fff"/>
      <stop offset="1" stop-color="#d3d3d3"/>
    </linearGradient>
    <linearGradient id="linear-gradient-4" x1="0.5" x2="0.5" y2="1" gradientUnits="objectBoundingBox">
      <stop offset="0" stop-color="#fff"/>
      <stop offset="1" stop-color="#d2e6ee"/>
    </linearGradient>
  </defs>
  <g id="Grupo_46132" data-name="Grupo 46132" transform="translate(-103.362 -31.308)">
    <g id="Grupo_46099" data-name="Grupo 46099" transform="translate(123.574 92.136)">
      <path id="Trazado_96006" data-name="Trazado 96006" d="M114.786,56.243l2.652,3.58c-.714,1.074,4.811-5.693,4.811-5.693l1.943.853-3.6,6.112a2.341,2.341,0,0,1-3.881.152l-3.9-.123-1.866-3.777C111.467,57.762,114.463,55.64,114.786,56.243Z" transform="translate(-110.945 -54.129)" fill="#00223d" fill-rule="evenodd"/>
      <path id="Trazado_96007" data-name="Trazado 96007" d="M112.5,55.664l-.027,4.67A8.358,8.358,0,0,1,112.5,55.664Z" transform="translate(-108.957 -51.573)" fill="#191e7f" fill-rule="evenodd"/>
    </g>
    <g id="Grupo_46100" data-name="Grupo 46100" transform="translate(208.853 36.331)">
      <path id="Trazado_96008" data-name="Trazado 96008" d="M173.088,33.192A30.148,30.148,0,1,1,142.94,63.34a30.161,30.161,0,0,1,30.148-30.148Zm0,8.894A21.252,21.252,0,1,1,151.837,63.34a21.252,21.252,0,0,1,21.251-21.254Z" transform="translate(-142.94 -33.192)" fill-rule="evenodd" fill="url(#linear-gradient)"/>
      <path id="Trazado_96009" data-name="Trazado 96009" d="M167.529,36.529a21.252,21.252,0,1,1-21.251,21.254,21.252,21.252,0,0,1,21.251-21.254Zm0,7A14.292,14.292,0,1,1,153.28,57.783a14.275,14.275,0,0,1,14.249-14.252Z" transform="translate(-137.381 -27.635)" fill="#5b7393" fill-rule="evenodd"/>
      <path id="Trazado_96010" data-name="Trazado 96010" d="M163.154,39.156A14.292,14.292,0,1,1,148.9,53.408a14.275,14.275,0,0,1,14.249-14.252Zm0,5.93a8.32,8.32,0,1,1-8.319,8.321,8.3,8.3,0,0,1,8.319-8.321Z" transform="translate(-133.006 -23.26)" fill-rule="evenodd" fill="url(#linear-gradient)"/>
      <path id="Trazado_96011" data-name="Trazado 96011" d="M159.449,58.021A8.32,8.32,0,1,0,151.13,49.7a8.3,8.3,0,0,0,8.319,8.319Z" transform="translate(-129.301 -19.554)" fill="#5b7393" fill-rule="evenodd"/>
      <path id="Trazado_96012" data-name="Trazado 96012" d="M158.082,51.934l26.606-5.6,1.483-3.542L196.8,39.249l-3.377,6.26,5.437,4.366-11.285.659L185.1,48.722l-26.771,4.283.824,1.812-5.272-1.153L158,49.216Z" transform="translate(-124.72 -23.105)" fill="#00223d" fill-rule="evenodd"/>
    </g>
    <path id="Trazado_96013" data-name="Trazado 96013" d="M156.122,34.087l.794,4.271,6.147-1.143L150.4,49.636l-6.882-7.011L126.837,59.964l3.13,3.012,13.584-14.117,6.793,6.921,16.674-16.36.237,6.521,4.342-.158-.527-14.475Z" transform="translate(39.096 0)" fill="#00223d"/>
    <g id="Grupo_46108" data-name="Grupo 46108" transform="translate(266.846 71.586)">
      <g id="Grupo_46103" data-name="Grupo 46103" transform="translate(0 17.506)">
        <g id="Grupo_46101" data-name="Grupo 46101">
          <path id="Trazado_96014" data-name="Trazado 96014" d="M188.489,64.779c.666-.315,1.255-.6,1.773-.85L189.8,62.26c-.165-.552-.323-1.109-.477-1.666-.578.064-1.223.133-1.959.216l-1.477.168a9.372,9.372,0,0,0-1.876-2.3l.485-1.437c.243-.693.45-1.311.645-1.86-.506-.28-1.013-.56-1.517-.832s-1.024-.557-1.53-.84c-.357.461-.76.968-1.213,1.551l-.954,1.213a9.459,9.459,0,0,0-2.585-.3l-.629-1.389c-.3-.669-.568-1.261-.813-1.794-.56.144-1.119.291-1.677.434s-1.119.291-1.677.434c.053.584.1,1.231.173,1.962l.133,1.517a9.752,9.752,0,0,0-2.116,1.535l-1.362-.568c-.682-.288-1.279-.536-1.826-.762-.306.49-.613.984-.92,1.463l-.92,1.474c.437.386.92.826,1.458,1.314l1.085.965a9.688,9.688,0,0,0-.52,3.465l-1.255.6c-.666.315-1.255.6-1.778.84.155.557.312,1.114.477,1.666l.464,1.669c.581-.064,1.234-.136,1.964-.205l1.341-.144a9.615,9.615,0,0,0,1.972,2.5l-.426,1.207c-.243.69-.45,1.309-.645,1.858.506.28,1.01.552,1.517.832s1.016.56,1.527.829c.36-.45.77-.96,1.218-1.53l.8-1.01a9.333,9.333,0,0,0,2.82.341l.52,1.165c.293.674.565,1.263.8,1.788.56-.147,1.117-.291,1.677-.434s1.117-.291,1.677-.434c-.051-.573-.1-1.221-.16-1.954L182.13,74.5a9.879,9.879,0,0,0,2.271-1.7l1.213.5c.682.28,1.277.525,1.82.741.309-.48.616-.973.922-1.463s.613-.973.92-1.463c-.437-.386-.92-.826-1.469-1.311l-1.037-.912a9.46,9.46,0,0,0,.445-3.5Zm-9.47,6.943a6.115,6.115,0,1,1,4.382-7.455A6.117,6.117,0,0,1,179.019,71.722Z" transform="translate(-164.698 -52.987)" fill="url(#linear-gradient)"/>
        </g>
        <g id="Grupo_46102" data-name="Grupo 46102" transform="translate(5.297 5.308)">
          <path id="Trazado_96015" data-name="Trazado 96015" d="M173.084,69.89a7.5,7.5,0,1,1,8.513-6.317A7.507,7.507,0,0,1,173.084,69.89ZM175.1,56.3a6.243,6.243,0,1,0,5.259,7.09A6.251,6.251,0,0,0,175.1,56.3Z" transform="translate(-166.685 -54.978)" fill="#00223d"/>
        </g>
      </g>
      <g id="Grupo_46105" data-name="Grupo 46105" transform="translate(7.327)">
        <path id="Trazado_96016" data-name="Trazado 96016" d="M182.85,52.451c.376-.317.7-.6,1-.853-.2-.331-.392-.661-.586-.994s-.4-.658-.592-.992c-.362.141-.765.3-1.226.477l-.92.36a6.312,6.312,0,0,0-1.6-1.159l.064-1.01c.037-.485.067-.92.1-1.306-.373-.093-.749-.187-1.119-.275s-.754-.184-1.127-.28c-.152.36-.322.754-.514,1.207l-.408.944a6.24,6.24,0,0,0-1.714.248l-.645-.786c-.309-.378-.581-.714-.832-1.016l-1,.568-1,.568c.133.365.275.773.445,1.231l.347.954a6.572,6.572,0,0,0-1.1,1.351l-.973-.133c-.488-.069-.914-.125-1.306-.179-.112.37-.224.738-.341,1.1s-.227.738-.338,1.106q.52.26,1.162.6l.866.434a6.371,6.371,0,0,0,.259,2.319l-.706.6c-.376.317-.706.6-1,.848.195.331.389.661.592.989s.389.664.584.994c.362-.139.773-.3,1.229-.469l.84-.32a6.451,6.451,0,0,0,1.7,1.271l-.067.85c-.037.488-.067.92-.1,1.306.373.093.744.181,1.12.277s.746.187,1.125.272c.155-.354.331-.752.522-1.194l.341-.789a6.172,6.172,0,0,0,1.874-.264l.536.661c.3.384.581.717.821,1.016l1-.568,1-.568c-.131-.36-.275-.768-.44-1.229l-.293-.821a6.684,6.684,0,0,0,1.17-1.482l.866.112c.485.064.912.12,1.3.168.117-.362.229-.733.344-1.1s.229-.733.341-1.1c-.347-.173-.733-.373-1.17-.592l-.824-.41a6.3,6.3,0,0,0-.312-2.33Zm-4.907,6.09a4.073,4.073,0,1,1,1.543-5.549A4.072,4.072,0,0,1,177.943,58.541Z" transform="translate(-167.447 -46.419)" fill="#00223d"/>
        <g id="Grupo_46104" data-name="Grupo 46104" transform="translate(3.502 3.572)">
          <path id="Trazado_96017" data-name="Trazado 96017" d="M174.318,57.717a4.995,4.995,0,1,1,4.4-5.525A5,5,0,0,1,174.318,57.717Zm-1.031-9.1a4.161,4.161,0,1,0,4.6,3.665A4.168,4.168,0,0,0,173.287,48.62Z" transform="translate(-168.761 -47.759)" fill="#5b7393"/>
        </g>
      </g>
      <g id="Grupo_46107" data-name="Grupo 46107" transform="translate(23.021 9.923)">
        <path id="Trazado_96018" data-name="Trazado 96018" d="M189.293,56.736q.608-.456,1.079-.816c-.181-.354-.36-.709-.541-1.063s-.368-.7-.549-1.058c-.381.123-.808.256-1.293.413l-.973.315a6.479,6.479,0,0,0-1.581-1.3l.131-1.037c.069-.5.125-.946.181-1.343-.381-.12-.762-.24-1.138-.352s-.768-.237-1.146-.357c-.179.36-.378.754-.608,1.213l-.477.949a6.5,6.5,0,0,0-1.786.147l-.616-.85c-.3-.41-.554-.773-.792-1.1l-1.071.522q-.536.264-1.072.522c.115.386.237.818.384,1.3l.3,1a6.738,6.738,0,0,0-1.218,1.325l-1-.2c-.5-.1-.933-.187-1.333-.264-.141.373-.28.746-.424,1.114l-.416,1.119c.346.2.73.432,1.162.688l.864.5a6.688,6.688,0,0,0,.123,2.41l-.765.576c-.408.3-.765.573-1.085.808.181.354.362.709.549,1.061s.36.706.541,1.061c.384-.123.816-.261,1.3-.408l.885-.28a6.648,6.648,0,0,0,1.671,1.421l-.12.872c-.069.5-.125.944-.181,1.341.379.123.757.235,1.136.354s.762.24,1.143.352c.181-.355.389-.754.613-1.2l.4-.792a6.437,6.437,0,0,0,1.951-.155l.509.714c.291.413.554.776.784,1.1q.536-.264,1.071-.522t1.071-.522c-.112-.381-.235-.81-.376-1.3l-.253-.864a6.859,6.859,0,0,0,1.3-1.455l.888.171c.5.1.933.181,1.33.253.141-.368.28-.741.421-1.114s.283-.741.421-1.114c-.346-.2-.733-.432-1.17-.685l-.826-.472a6.437,6.437,0,0,0-.176-2.423Zm-5.44,5.978a4.21,4.21,0,1,1,1.938-5.629A4.21,4.21,0,0,1,183.853,62.715Z" transform="translate(-173.335 -50.142)" fill="#00223d"/>
        <g id="Grupo_46106" data-name="Grupo 46106" transform="translate(3.516 3.618)">
          <path id="Trazado_96019" data-name="Trazado 96019" d="M180.086,61.814a5.161,5.161,0,1,1,4.883-5.424A5.165,5.165,0,0,1,180.086,61.814Zm-.5-9.446a4.3,4.3,0,1,0,4.518,4.067A4.3,4.3,0,0,0,179.587,52.367Z" transform="translate(-174.654 -51.499)" fill="#5b7393"/>
        </g>
      </g>
    </g>
    <g id="Grupo_46109" data-name="Grupo 46109" transform="translate(128.584 57.56)">
      <path id="Trazado_96020" data-name="Trazado 96020" d="M136.837,42.319c28.877,20.308,64.931,41.372,99.6,45.642,0,0,4.545,5.805-.3,24.071-4.83,18.2-10.646,21.454-10.646,21.454-32.822-11.962-74.511-9.593-109.465-4.635Z" transform="translate(-107.491 -39.221)" fill="#12263f" fill-rule="evenodd"/>
      <path id="Trazado_96021" data-name="Trazado 96021" d="M136.666,41.19l4.211,1.013c6.53,1.57,6.938,23.229.877,48.433-6.048,25.14-16.272,44.307-22.8,42.737l-4.209-1.013c6.528,1.57,16.755-17.6,22.8-42.737,6.061-25.2,5.653-46.863-.877-48.433Z" transform="translate(-109.631 -41.101)" fill="#26aab7" fill-rule="evenodd"/>
      <path id="Trazado_96022" data-name="Trazado 96022" d="M117.122,84c6.061-25.2,16.27-44.309,22.738-42.753,6.53,1.57,6.938,23.229.877,48.433-6.045,25.14-16.272,44.307-22.8,42.737-6.469-1.557-6.863-23.274-.816-48.417Zm2.561.616c5.123-21.3,13.426-37.569,18.49-36.35,5.126,1.231,5.062,19.487-.059,40.783s-13.364,37.585-18.49,36.351c-5.064-1.218-5.062-19.484.059-40.783Z" transform="translate(-112.825 -41.157)" fill="#8ec8c8" fill-rule="evenodd"/>
      <path id="Trazado_96023" data-name="Trazado 96023" d="M117.8,80.214c5.123-21.3,13.426-37.569,18.49-36.35,5.126,1.231,5.062,19.487-.059,40.783S122.87,122.231,117.744,121c-5.064-1.218-5.062-19.484.059-40.783Z" transform="translate(-110.944 -36.756)" fill="#26aab7" fill-rule="evenodd"/>
      <path id="Trazado_96024" data-name="Trazado 96024" d="M116.66,80.4q1.607-6.685,3.214-13.364c1.085-4.515,2.156-8.972,3.241-13.487,1.781-.152,3.742-.261,5.843-.4l5.917-.45a148.719,148.719,0,0,1-3.148,17.125,152.7,152.7,0,0,1-5.04,16.928l-5.1-3.228c-1.791-1.141-3.414-2.175-4.928-3.121Z" transform="translate(-106.438 -21.934)" fill="#5b7393" fill-rule="evenodd"/>
      <path id="Trazado_96025" data-name="Trazado 96025" d="M117.5,65.681c1.775-7.383,4.63-13.087,6.461-12.647,1.77.426,1.783,6.818.005,14.2s-4.691,13.071-6.461,12.647c-1.831-.44-1.783-6.821-.005-14.2Z" transform="translate(-107.285 -21.416)" fill="#0c2c46" fill-rule="evenodd"/>
      <path id="Trazado_96026" data-name="Trazado 96026" d="M168.63,59.449a15.257,15.257,0,0,1,1.677.272c10.8,2.6,17.064,14.95,14.025,27.581S170.1,108.087,159.3,105.491a18.418,18.418,0,0,1-2.519-.8c.3.072.533.192.84.267,0,0,5.816-3.249,10.645-21.454,4.638-17.671.594-23.677.363-24.055Z" transform="translate(-39.62 -10.693)" fill="#26aab7" fill-rule="evenodd"/>
      <path id="Trazado_96027" data-name="Trazado 96027" d="M139.231,69.129l50.893,12.239c1.343.323.613,5.5-1.063,6.845l-52.228-8.041c1.943-2.439,3.23-8.065,2.4-11.043Z" transform="translate(-72.844 5.428)" fill="#3b5372" fill-rule="evenodd"/>
      <path id="Trazado_96028" data-name="Trazado 96028" d="M150.932,74.492c1.226,11.011-6.925,39.261-9.934,46.671l22.765,4.121s10.558-34.773,6.088-47.857Z" transform="translate(-65.906 14.359)" fill="#3b5372" fill-rule="evenodd"/>
      <path id="Trazado_96029" data-name="Trazado 96029" d="M143.064,121.652l17.258,3.119S170.88,90,166.41,76.914L152.782,74.8c1.479,10.491-6.639,38.877-9.718,46.852Z" transform="translate(-62.465 14.872)" fill="#12263f" fill-rule="evenodd"/>
    </g>
    <g id="Grupo_46125" data-name="Grupo 46125" transform="translate(190.08 60.136)">
      <g id="Grupo_46121" data-name="Grupo 46121">
        <g id="Grupo_46110" data-name="Grupo 46110" transform="translate(26.55)">
          <rect id="Rectángulo_28267" data-name="Rectángulo 28267" width="0.91" height="10.028" fill="#00223d"/>
        </g>
        <g id="Grupo_46115" data-name="Grupo 46115" transform="translate(31.898 1.664)">
          <g id="Grupo_46111" data-name="Grupo 46111" transform="translate(0 0)">
            <rect id="Rectángulo_28268" data-name="Rectángulo 28268" width="9.689" height="0.911" transform="translate(0 9.023) rotate(-68.628)" fill="#00223d"/>
          </g>
          <g id="Grupo_46112" data-name="Grupo 46112" transform="translate(4.781 4.376)">
            <rect id="Rectángulo_28269" data-name="Rectángulo 28269" width="9.704" height="0.91" transform="translate(0 7.254) rotate(-48.371)" fill="#00223d"/>
          </g>
          <g id="Grupo_46113" data-name="Grupo 46113" transform="translate(8.707 11.52)">
            <rect id="Rectángulo_28270" data-name="Rectángulo 28270" width="9.093" height="0.91" transform="translate(0 3.697) rotate(-23.99)" fill="#00223d"/>
          </g>
          <g id="Grupo_46114" data-name="Grupo 46114" transform="translate(12.625 20.593)">
            <rect id="Rectángulo_28271" data-name="Rectángulo 28271" width="0.91" height="8.398" transform="matrix(0.066, -0.998, 0.998, 0.066, 0, 0.908)" fill="#00223d"/>
          </g>
        </g>
        <g id="Grupo_46120" data-name="Grupo 46120" transform="translate(0 1.07)">
          <g id="Grupo_46116" data-name="Grupo 46116" transform="translate(17.605 0)">
            <rect id="Rectángulo_28272" data-name="Rectángulo 28272" width="0.911" height="9.657" transform="translate(0 0.313) rotate(-20.06)" fill="#00223d"/>
          </g>
          <g id="Grupo_46117" data-name="Grupo 46117" transform="translate(8.784 3.633)">
            <rect id="Rectángulo_28273" data-name="Rectángulo 28273" width="0.91" height="11.008" transform="translate(0 0.623) rotate(-43.167)" fill="#00223d"/>
          </g>
          <g id="Grupo_46118" data-name="Grupo 46118" transform="translate(3.363 11.101)">
            <rect id="Rectángulo_28274" data-name="Rectángulo 28274" width="0.91" height="10.214" transform="translate(0 0.831) rotate(-65.975)" fill="#00223d"/>
          </g>
          <g id="Grupo_46119" data-name="Grupo 46119" transform="translate(0 20.631)">
            <path id="Trazado_96030" data-name="Trazado 96030" d="M135.951,51.73l-.055-.909,9.089-.556.055.909Z" transform="translate(-135.897 -50.265)" fill="#00223d"/>
          </g>
        </g>
      </g>
      <g id="Grupo_46124" data-name="Grupo 46124" transform="translate(9.758 11.768)">
        <path id="Trazado_96031" data-name="Trazado 96031" d="M155.115,65.9a6.393,6.393,0,0,1-5.795,3.031,6.3,6.3,0,0,1-5.731-3.148Z" transform="translate(-132.843 -14.488)" fill="url(#linear-gradient-4)"/>
        <path id="Trazado_96032" data-name="Trazado 96032" d="M164.922,89.591a26.6,26.6,0,0,1,.325-7.3c.717-4.92,11.954-13.45,6.578-26.574-4.971-12.162-24.972-12.2-30.607-.315-5.8,12.175,5.416,21.768,6.032,26.7a26.656,26.656,0,0,1,.176,7.311Z" transform="translate(-139.558 -46.539)" fill="url(#linear-gradient)"/>
        <path id="Trazado_96033" data-name="Trazado 96033" d="M142.9,62.627l15.616.16-.072,6.765a1.63,1.63,0,0,1-1.645,1.613l-12.359-.128a1.6,1.6,0,0,1-1.61-1.645Z" transform="translate(-134.111 -19.745)" fill="url(#linear-gradient-4)"/>
        <path id="Trazado_96034" data-name="Trazado 96034" d="M143.447,63l15.531.16a.859.859,0,0,1,.869.888h0a.892.892,0,0,1-.888.909l-15.531-.16a.926.926,0,0,1-.909-.928h0a.9.9,0,0,1,.928-.869Z" transform="translate(-134.627 -19.119)" fill="#00223d"/>
        <path id="Trazado_96035" data-name="Trazado 96035" d="M143.436,64.006l15.534.16a.854.854,0,0,1,.866.885h0a.89.89,0,0,1-.885.909L143.417,65.8a.928.928,0,0,1-.909-.93h0a.891.891,0,0,1,.928-.866Z" transform="translate(-134.645 -17.449)" fill="#00223d"/>
        <path id="Trazado_96036" data-name="Trazado 96036" d="M143.427,64.946l15.531.16a.882.882,0,0,1,.869.885h0a.892.892,0,0,1-.888.909l-15.531-.16a.924.924,0,0,1-.909-.928h0a.919.919,0,0,1,.928-.866Z" transform="translate(-134.66 -15.883)" fill="#00223d"/>
        <path id="Trazado_96037" data-name="Trazado 96037" d="M157.1,57.484a3.026,3.026,0,0,0-3.47-2.02,2.529,2.529,0,0,0-2.455,2.1c-.024.424-.045,1.615-.067,3.19l-.5-.005-.792-.008-.474-.005c.013-1.573.021-2.764.016-3.188a2.6,2.6,0,0,0-2.489-2.164,3.026,3.026,0,0,0-3.473,1.959,3.55,3.55,0,0,0,2.015,4.411l2.817.075c-.051,5.115-.152,12.866-.152,12.975l1.1.013c.008-.445.1-7.959.152-12.978l.472.005.794.008.5.005c-.056,5.019-.093,12.535-.1,12.98l1.1.005c0-.109.04-7.858.1-12.972l2.572.024.221-.043A3.555,3.555,0,0,0,157.1,57.484ZM145.77,60.7a2.443,2.443,0,0,1-1.322-3.007,1.941,1.941,0,0,1,2.268-1.213c.845.12,1.522.608,1.541,1.1.005.41,0,1.589-.013,3.15Zm8.894.091-2.447-.024c.019-1.559.043-2.737.067-3.15.016-.49.658-.946,1.5-1.058a1.929,1.929,0,0,1,2.271,1.255A2.429,2.429,0,0,1,154.665,60.792Z" transform="translate(-133.499 -31.866)" fill="#00223d"/>
        <g id="Grupo_46122" data-name="Grupo 46122" transform="translate(29.575 13.733)">
          <path id="Trazado_96038" data-name="Trazado 96038" d="M152.061,55.5l-1.407-.437a12.368,12.368,0,0,0,.429-3.364l1.474-.011A13.714,13.714,0,0,1,152.061,55.5Z" transform="translate(-150.654 -51.691)" fill="#f9eff4"/>
        </g>
        <g id="Grupo_46123" data-name="Grupo 46123" transform="translate(22.659 2.709)">
          <path id="Trazado_96039" data-name="Trazado 96039" d="M154.9,55.346a8.555,8.555,0,0,0-.6-1.391,11.722,11.722,0,0,0-6.234-4.99l.426-1.41a13.092,13.092,0,0,1,7.1,5.693,9.906,9.906,0,0,1,.706,1.631Z" transform="translate(-148.059 -47.555)" fill="#f9eff4"/>
        </g>
      </g>
    </g>
    <g id="Grupo_46126" data-name="Grupo 46126" transform="translate(222.055 126.86)">
      <path id="Trazado_96040" data-name="Trazado 96040" d="M158.331,78.412l-.338,43.259-3.105.075s-1.964-11.016-1.964-16a23.229,23.229,0,0,1,1.25-8.057l-2.228-16.667s.717-.97,1.378-1.911c.08-.005.16-.008.237-.016a46.443,46.443,0,0,0,4.771-.682Z" transform="translate(-141.145 -48.413)" fill="#dbdada" fill-rule="evenodd"/>
      <path id="Trazado_96041" data-name="Trazado 96041" d="M162.39,78.791l-4.225,6.525-6.341,36.46-3.1.075c-.189-4.433-.8-21.406,3.313-24.266l-.027-2.7h0c-.2-4-.421-11.261.405-14.953l1.359-1.586a11.688,11.688,0,0,0,5.389.85c1.311-.131,2.415-.28,3.225-.408Z" transform="translate(-146.75 -48.518)" fill="#dbdada" fill-rule="evenodd"/>
      <path id="Trazado_96042" data-name="Trazado 96042" d="M158.4,98.219l-5.848-.005-1.4-.592-.133.6h-2.2l-.181-3.5,3.1-.075s4.235,2.3,5.773,2.231.893,1.346.893,1.346Z" transform="translate(-146.659 -21.384)" fill="#7d6eb2" fill-rule="evenodd"/>
      <path id="Trazado_96043" data-name="Trazado 96043" d="M162.82,98.219l-5.845-.005-1.407-.592-.128.6h-2.2l-.189-3.5,3.105-.075s4.238,2.3,5.773,2.231.893,1.346.893,1.346Z" transform="translate(-139.307 -21.384)" fill="#7d6eb2" fill-rule="evenodd"/>
      <path id="Trazado_96044" data-name="Trazado 96044" d="M179.283,72.214l-7.423,5.8a2.028,2.028,0,0,1-2.316.125L165.282,75.5l-1.069-.307v0l-3.23-.928-.578-.592h-1.527l-.512.53-3.049.874a5.423,5.423,0,0,0-.693.768l1.49-4.2-1.631-1.759-6.45,14.071a1.494,1.494,0,0,0,1.517,2.108l3.907-2.543-.125,11.746c3.8,2.441,9.662,1.471,11.728-.019q.34-7.141.688-14.273l4.323,1.847a2.03,2.03,0,0,0,2.2-.405l8.332-8.031Z" transform="translate(-147.893 -62.605)" fill="#7d6eb2" fill-rule="evenodd"/>
      <path id="Trazado_96045" data-name="Trazado 96045" d="M151.319,69.39c.44-.155,1,.277,1.245.973s.091,1.386-.352,1.543-1-.277-1.242-.973-.093-1.386.349-1.543Z" transform="translate(-142.969 -63.491)" fill="#fc9" stroke="#ff0" stroke-miterlimit="10" stroke-width="0.198" fill-rule="evenodd"/>
      <path id="Trazado_96046" data-name="Trazado 96046" d="M150.375,69.228l.288-.171a.2.2,0,0,1,.261.072l2.247,3.819a.194.194,0,0,1-.067.264l-.288.165a.191.191,0,0,1-.261-.067l-2.247-3.82a.194.194,0,0,1,.067-.264Z" transform="translate(-143.915 -64.031)" fill-rule="evenodd"/>
      <path id="Trazado_96047" data-name="Trazado 96047" d="M154.323,69.268c.464.067.757.709.658,1.439s-.557,1.269-1.024,1.207-.757-.706-.658-1.437.557-1.271,1.024-1.21Z" transform="translate(-138.921 -63.649)" fill="#ffb699" fill-rule="evenodd"/>
      <path id="Trazado_96048" data-name="Trazado 96048" d="M159.651,72.216a5.111,5.111,0,0,1,1.135-1.458,4.392,4.392,0,0,1,2.114-.778.515.515,0,0,1-.115.576,3.089,3.089,0,0,1-.949.57,2.327,2.327,0,0,0,1.2-.221c.9-.32,1.879-1.071,2.215-.57s-.045,1.661-1.135,2.388a22.438,22.438,0,0,1-3.1,1.519Z" transform="translate(-128.312 -62.455)" fill="#ffb699" fill-rule="evenodd"/>
      <path id="Trazado_96049" data-name="Trazado 96049" d="M151.68,70.411h3.364v3.113a1.684,1.684,0,0,1-1.682,1.682h0a1.685,1.685,0,0,1-1.682-1.682Z" transform="translate(-141.587 -61.738)" fill="#f49e7f" fill-rule="evenodd"/>
      <path id="Trazado_96050" data-name="Trazado 96050" d="M154.7,77.269c2.039,0,3.7-2.231,3.7-4.96s-1.663-4.96-3.7-4.96-3.7,2.226-3.7,4.96,1.661,4.96,3.7,4.96Z" transform="translate(-142.729 -66.839)" fill="#ffb699" fill-rule="evenodd"/>
      <path id="Trazado_96051" data-name="Trazado 96051" d="M152.362,70.787a7.912,7.912,0,0,0,3.558.73,5.608,5.608,0,0,0,4-1.775,6.3,6.3,0,0,0-4.134-2.572c-2.529-.221-4.219,2.351-4.219,2.351a1.2,1.2,0,0,0-.789,1.229,10.925,10.925,0,0,0,.957,3.228l.2-1.706a2.119,2.119,0,0,0,.53-.714,1.626,1.626,0,0,0-.107-.77Z" transform="translate(-143.084 -67.157)" fill="#12263f" fill-rule="evenodd"/>
      <path id="Trazado_96052" data-name="Trazado 96052" d="M153.533,69.31s-.088.051-.259.125c.1-.259.259-.125.259-.125Zm.786-1.266a1.2,1.2,0,0,1,.792,1.229,10.842,10.842,0,0,1-.957,3.228l-.2-1.706a2.19,2.19,0,0,1-.533-.714,1.639,1.639,0,0,1,.112-.77Z" transform="translate(-138.932 -65.68)" fill="#12263f" fill-rule="evenodd"/>
      <path id="Trazado_96053" data-name="Trazado 96053" d="M150.209,73.325a4.26,4.26,0,0,0,.416-1.349c-.061-.664.035-2.428.88-2.708.864-.288,1.994,1.788,1.178,2.292-.011-.011-.235-.424-.272-.381-.029-.019-.053.037-.037.283a2.453,2.453,0,0,1-.32,1.618,4.561,4.561,0,0,1-.9.733Z" transform="translate(-144.037 -63.687)" fill="#ffb699" fill-rule="evenodd"/>
    </g>
    <g id="Grupo_46127" data-name="Grupo 46127" transform="translate(253.393 125.389)">
      <path id="Trazado_96054" data-name="Trazado 96054" d="M165.334,75.255a5.093,5.093,0,0,0-1.125-1.445,4.358,4.358,0,0,0-2.1-.773.516.516,0,0,0,.117.57,3.058,3.058,0,0,0,.941.562,2.227,2.227,0,0,1-1.194-.216c-.9-.317-1.863-1.061-2.2-.565s.048,1.647,1.127,2.37a21.955,21.955,0,0,0,3.073,1.509Z" transform="translate(-159.651 -55.893)" fill="#ffbd99" fill-rule="evenodd"/>
      <path id="Trazado_96055" data-name="Trazado 96055" d="M166.6,78.559l.336,42.953,3.081.075s1.4-11.648,1.4-16.6a21.584,21.584,0,0,0-.989-7.4l2.508-16.44s-.709-.962-1.367-1.892l-.235-.021a45.971,45.971,0,0,1-4.736-.677Z" transform="translate(-148.071 -46.697)" fill="#12263f" fill-rule="evenodd"/>
      <path id="Trazado_96056" data-name="Trazado 96056" d="M167.181,78.934l4.19,6.48,6.3,36.2,3.084.075s.592-14.057-.864-19.14-2.244-5.683-2.244-5.683.6-11.568-.562-16.792L175.729,78.5a11.6,11.6,0,0,1-5.349.842c-1.3-.128-2.393-.277-3.2-.405Z" transform="translate(-147.11 -46.8)" fill="#12263f" fill-rule="evenodd"/>
      <path id="Trazado_96057" data-name="Trazado 96057" d="M181.474,70.688l4.451,1.239a4.181,4.181,0,0,1,2.809,2.593L192.8,85.577a2.936,2.936,0,0,1-.584,2.985l-4.582,5.051L185.816,91.5s-3.382,3.7-6.274,3.42-3.811-.986-3.811-.986l-.645-11.3L173.8,85.057a2.753,2.753,0,0,1-3.787,1.109l-8.892-5.016,1.418-2.572,6.226,3.087a1.78,1.78,0,0,0,2.455-.97l1.97-5.283a4.19,4.19,0,0,1,1.9-2.2l3.617-2Zm5.187,9.078,2.164,5.253a2.931,2.931,0,0,1-.536,3.086l-1.565,1.73Z" transform="translate(-157.197 -59.805)" fill="#dee7f3" fill-rule="evenodd"/>
      <path id="Trazado_96058" data-name="Trazado 96058" d="M171.11,78.536c-.208.139-.472.32-.632.44-.291.216-.472.357-.472.357a3.015,3.015,0,0,0,1.57,1.986,7.806,7.806,0,0,0,.989-1.09Z" transform="translate(-142.404 -46.735)" fill="#ffbd99" fill-rule="evenodd"/>
      <path id="Trazado_96059" data-name="Trazado 96059" d="M171.048,69.834h-3.326v2.8a1.669,1.669,0,0,0,1.666,1.663h0a1.668,1.668,0,0,0,1.661-1.663Z" transform="translate(-146.209 -61.227)" fill="#eda27c" fill-rule="evenodd"/>
      <path id="Trazado_96060" data-name="Trazado 96060" d="M170.028,66.952c-1.932.069-3.425,2.122-3.329,4.582s.573,4.76,3.462,4.95,3.62-2.751,3.529-5.211-1.733-4.4-3.662-4.321Z" transform="translate(-147.921 -66.03)" fill="#ffbd99" fill-rule="evenodd"/>
      <path id="Trazado_96061" data-name="Trazado 96061" d="M174.9,68.455a2.159,2.159,0,0,0-1.765-1.8c-1.578-.283-7.375.65-7.375.65s.877,3.124,3.007,3.524a13.591,13.591,0,0,0,4.8-.251,6.872,6.872,0,0,0,.251,2.441,6.936,6.936,0,0,0,1.053,1.711s1.485-2.351,1.186-4.243-1.157-2.036-1.157-2.036Z" transform="translate(-149.483 -66.605)" fill="#3c4973" fill-rule="evenodd"/>
      <path id="Trazado_96062" data-name="Trazado 96062" d="M168.689,98.439l5.845-.005,1.4-.592.133.6h2.2l.187-3.5-3.1-.075s-4.235,2.3-5.771,2.228-.9,1.346-.9,1.346Z" transform="translate(-144.817 -19.541)" fill="#dee7f3" fill-rule="evenodd"/>
      <path id="Trazado_96063" data-name="Trazado 96063" d="M164.33,98.222l5.8,0,1.4-.586.128.589h2.188l.184-3.473-3.081-.075s-4.206,2.284-5.728,2.215-.888,1.333-.888,1.333Z" transform="translate(-152.077 -19.859)" fill="#dee7f3" fill-rule="evenodd"/>
    </g>
    <path id="Trazado_96064" data-name="Trazado 96064" d="M143.02,68.475c-1.119,3.036-2.239,6.01-3.334,9-1.306-.984-2.609-1.927-3.894-2.871s-2.564-1.887-3.822-2.809c1.072-2.953,2.146-5.909,3.241-8.9-.28-.187-.536-.392-.816-.576q-8.184,22.433-16.019,43.835-7.656,20.986-15.014,41.047c.256.227.49.45.722.677q1.083-2.955,2.17-5.909c1.141,1.048,2.284,2.114,3.449,3.161,1.143,1.066,2.308,2.154,3.476,3.22-.746,2.01-1.493,4-2.215,5.968.232.227.488.472.746.7q7.588-20.306,15.526-41.519,8.148-21.69,16.648-44.408c-.28-.205-.56-.41-.864-.616ZM113.645,147.12c-1.167-1.066-2.332-2.154-3.5-3.2-1.143-1.069-2.308-2.135-3.452-3.18q.876-2.339,1.748-4.739c1.143,1.048,2.308,2.092,3.473,3.159,1.167,1.048,2.332,2.114,3.521,3.18-.605,1.6-1.189,3.2-1.794,4.779Zm2.26-6.01c-1.189-1.066-2.354-2.132-3.542-3.2-1.143-1.047-2.308-2.092-3.476-3.14.584-1.578,1.167-3.18,1.749-4.779,1.167,1.047,2.332,2.071,3.521,3.118,1.165,1.045,2.356,2.114,3.545,3.158-.608,1.621-1.213,3.22-1.8,4.84Zm2.263-6.09c-1.191-1.069-2.38-2.114-3.545-3.161-1.189-1.045-2.354-2.071-3.521-3.116.584-1.6,1.167-3.2,1.772-4.822,1.165,1,2.354,2.052,3.545,3.076,1.189,1.047,2.378,2.074,3.59,3.14-.632,1.621-1.237,3.262-1.842,4.883Zm2.308-6.154c-1.213-1.048-2.4-2.092-3.593-3.118s-2.378-2.071-3.566-3.076c.608-1.621,1.189-3.262,1.8-4.883,1.189,1,2.378,2.031,3.566,3.057,1.213,1.026,2.425,2.071,3.638,3.1-.632,1.661-1.237,3.3-1.842,4.923Zm2.308-6.194c-1.213-1.047-2.426-2.074-3.614-3.1-1.213-1.024-2.4-2.05-3.59-3.055.605-1.621,1.213-3.281,1.794-4.923,1.213,1,2.4,2.01,3.614,3.015,1.213,1.026,2.425,2.052,3.66,3.078-.629,1.661-1.234,3.321-1.863,4.984Zm2.354-6.277c-1.237-1.026-2.471-2.052-3.684-3.057s-2.4-2.01-3.614-3.036c.608-1.642,1.213-3.281,1.842-4.963,1.189,1,2.4,1.988,3.638,2.993,1.213,1.026,2.447,2.031,3.684,3.057-.629,1.682-1.261,3.342-1.866,5.006Zm2.354-6.32c-1.234-1.024-2.471-2.031-3.7-3.036-1.213-1-2.426-1.988-3.638-2.993.608-1.663,1.213-3.345,1.842-5.027,1.213.986,2.449,1.97,3.66,2.975,1.237.986,2.495,1.991,3.732,3-.629,1.7-1.258,3.4-1.89,5.086Zm2.38-6.4c-1.237-1-2.495-1.988-3.732-2.993-1.234-.986-2.447-1.97-3.684-2.956.629-1.682,1.237-3.382,1.866-5.067,1.234.965,2.471,1.951,3.708,2.913,1.258.986,2.516,1.991,3.777,2.975-.653,1.724-1.282,3.446-1.935,5.128Zm2.423-6.44c-1.258-1-2.516-1.991-3.777-2.975s-2.495-1.948-3.7-2.913c.605-1.7,1.234-3.406,1.863-5.128,1.237.965,2.495,1.927,3.756,2.892,1.258.986,2.516,1.97,3.8,2.953-.65,1.724-1.3,3.446-1.935,5.171Zm2.425-6.525c-1.258-.984-2.54-1.967-3.8-2.932s-2.516-1.93-3.753-2.892q.944-2.587,1.89-5.171c1.258.944,2.516,1.908,3.777,2.873l3.846,2.892L134.72,90.71Zm2.471-6.584-3.846-2.892c-1.282-.965-2.54-1.908-3.8-2.852.629-1.743,1.282-3.486,1.914-5.229,1.282.944,2.54,1.866,3.822,2.809,1.282.965,2.588,1.927,3.894,2.892-.677,1.764-1.33,3.529-1.983,5.272Z" transform="translate(0 51.649)" fill="#5b7393" fill-rule="evenodd"/>
    <path id="Trazado_96065" data-name="Trazado 96065" d="M111.207,74.212l.928,1.546,1.418,1.359s2.836-.272,3.526.149a1.541,1.541,0,0,1,.546,1.434h-5.581l-.418-.728.037.728H109.9l-.117-2.841Z" transform="translate(10.685 71.453)" fill="#00223d" fill-rule="evenodd"/>
    <path id="Trazado_96066" data-name="Trazado 96066" d="M114.186,80.345l-.546,16.912-2.511.069a108.777,108.777,0,0,1-1.223-11.461,12.305,12.305,0,0,1,1.37-5.589L109,61.479c.349,2.239,5.829,5.387,5.829,5.387Z" transform="translate(9.388 50.247)" fill="#9fbfed" fill-rule="evenodd"/>
    <path id="Trazado_96067" data-name="Trazado 96067" d="M116.294,57.584a4.415,4.415,0,0,1,.165-1.591,3.8,3.8,0,0,1,1.189-1.525.449.449,0,0,1,.187.464,2.924,2.924,0,0,1-.426.848s.261-.064.768-.709c.522-.656.89-1.642,1.37-1.437.461.216.722,1.237.253,2.26a19.48,19.48,0,0,1-1.562,2.543Z" transform="translate(21.513 37.137)" fill="#ffb699" fill-rule="evenodd"/>
    <path id="Trazado_96068" data-name="Trazado 96068" d="M114.907,68.1l.93,1.546,1.413,1.359s2.836-.275,3.532.149a1.532,1.532,0,0,1,.541,1.434h-5.581l-.418-.728.037.728H113.6l-.12-2.841Z" transform="translate(16.852 61.277)" fill="#00223d" fill-rule="evenodd"/>
    <path id="Trazado_96069" data-name="Trazado 96069" d="M110.371,56.524h3.161l-.085-3.182a7.159,7.159,0,0,1-1.772.72c-.389-.024-1.3-.92-1.3-.92Z" transform="translate(11.673 36.363)" fill="#f4a57d" fill-rule="evenodd"/>
    <path id="Trazado_96070" data-name="Trazado 96070" d="M113.074,54.088s.256.331,1.5.418,1.658-.376,1.658-.376l1.916.506a4.983,4.983,0,0,1,3.1,2.452l2.551,4.755a.482.482,0,0,0,.821.045l4.211-5.107,1.943.853-4.608,7.844a2.341,2.341,0,0,1-3.883.152l-2.215-3.023-.059,10.9c-2.415,1.466-8.295,1.466-10.619,0l-.642-14.092A4.717,4.717,0,0,1,111.3,55Z" transform="translate(8.97 37.938)" fill="#12263f" fill-rule="evenodd"/>
    <path id="Trazado_96071" data-name="Trazado 96071" d="M119.61,61.373l11.139,3.612a1.871,1.871,0,0,1,.994,2.791l-8.428,13.079-2.356.328a49.419,49.419,0,0,1,2.719-8.484A12.5,12.5,0,0,1,127.5,68.05l-11.344.005a5.354,5.354,0,0,1-3.878-1.639c-1.45-1.517-3.316-3.729-3.286-5.043,2.324,1.466,8.2,1.466,10.619,0Z" transform="translate(9.374 50.071)" fill="#b9d2fc" fill-rule="evenodd"/>
    <path id="Trazado_96072" data-name="Trazado 96072" d="M112.992,59.074c1.757,0,3.185-1.855,3.185-4.131s-1.429-4.134-3.185-4.134-3.18,1.855-3.18,4.134,1.431,4.131,3.18,4.131Z" transform="translate(10.742 32.478)" fill="#ffbd99" fill-rule="evenodd"/>
    <path id="Trazado_96073" data-name="Trazado 96073" d="M112.246,50.562h5.5a.287.287,0,0,1,.288.288v1.2a1.5,1.5,0,0,1-1.493,1.493h-1.381l-.147.408a.8.8,0,0,0,.155.808l.277.307-.368.434a.988.988,0,0,0-.221.474l-.168.914s-.24-1.154-.76-.92-.107,1.573.269,1.685a.34.34,0,0,0,.464-.213,6.181,6.181,0,0,0-.485,1.6c-.048.93-2.676.808-2.676-.152a5.24,5.24,0,0,1-1.677-4.848,2.914,2.914,0,0,1,.938-1.711v-.28a1.491,1.491,0,0,1,1.487-1.487Z" transform="translate(10.546 32.066)" fill="#3c4973" fill-rule="evenodd"/>
    <g id="Grupo_46131" data-name="Grupo 46131" transform="translate(178.227 178.63)">
      <g id="Grupo_46129" data-name="Grupo 46129" transform="translate(0 0)">
        <path id="Trazado_96115" data-name="Trazado 96115" d="M133.029,93.013h37.9v1.048H133.991a1.152,1.152,0,0,0-1.143,1.154v4.169a1.152,1.152,0,0,0,1.143,1.154h36.937v1.047h-37.9a1.534,1.534,0,0,1-1.522-1.522V94.535a1.534,1.534,0,0,1,1.522-1.522Z" transform="translate(-131.355 -75.867)" fill="#69746b" fill-rule="evenodd"/>
        <path id="Trazado_96116" data-name="Trazado 96116" d="M133.153,93.406H170.09v6.477H133.153a1.152,1.152,0,0,1-1.143-1.154V94.56a1.152,1.152,0,0,1,1.143-1.154Z" transform="translate(-130.517 -75.212)" fill="#eadce4" fill-rule="evenodd"/>
        <path id="Trazado_96117" data-name="Trazado 96117" d="M133.029,89.8h37.9v1.047H133.991A1.152,1.152,0,0,0,132.848,92v4.169a1.152,1.152,0,0,0,1.143,1.154h36.937v1.048h-37.9a1.534,1.534,0,0,1-1.522-1.522V91.319a1.534,1.534,0,0,1,1.522-1.522Z" transform="translate(-131.355 -81.222)" fill="#26aab7" fill-rule="evenodd"/>
        <path id="Trazado_96118" data-name="Trazado 96118" d="M133.153,90.19H170.09v6.477H133.153a1.152,1.152,0,0,1-1.143-1.154V91.344a1.152,1.152,0,0,1,1.143-1.154Z" transform="translate(-130.517 -80.568)" fill="#eadce4" fill-rule="evenodd"/>
        <path id="Trazado_96119" data-name="Trazado 96119" d="M132.972,86.58h37.9v1.047H133.934a1.157,1.157,0,0,0-1.146,1.157V92.95a1.157,1.157,0,0,0,1.146,1.157h36.937v1.047h-37.9a1.535,1.535,0,0,1-1.522-1.522V88.1a1.535,1.535,0,0,1,1.522-1.522Z" transform="translate(-131.45 -86.58)" fill="#5b7393" fill-rule="evenodd"/>
        <path id="Trazado_96120" data-name="Trazado 96120" d="M133.1,86.973h36.937v6.48H133.1a1.157,1.157,0,0,1-1.146-1.157V88.13a1.157,1.157,0,0,1,1.146-1.157Z" transform="translate(-130.614 -85.926)" fill="#eadce4" fill-rule="evenodd"/>
      </g>
    </g>
  </g>
</svg>
