<svg xmlns="http://www.w3.org/2000/svg" xmlns:xlink="http://www.w3.org/1999/xlink" width="235.114" height="194.75" viewBox="0 0 235.114 194.75">
  <defs>
    <linearGradient id="linear-gradient" x1="0.5" x2="0.5" y2="1" gradientUnits="objectBoundingBox">
      <stop offset="0" stop-color="#fff"/>
      <stop offset="1" stop-color="#f1f7fa"/>
    </linearGradient>
    <clipPath id="clip-path">
      <path id="Trazado_116504" data-name="Trazado 116504" d="M728.714,1111.943a13.449,13.449,0,1,0,13.449,13.449A13.449,13.449,0,0,0,728.714,1111.943Zm0,21.112a7.662,7.662,0,1,1,7.662-7.662A7.662,7.662,0,0,1,728.714,1133.055Z" transform="translate(-715.265 -1111.943)" fill="#fff" opacity="0.57"/>
    </clipPath>
    <clipPath id="clip-path-2">
      <path id="Trazado_116506" data-name="Trazado 116506" d="M1117.583,1111.943a13.449,13.449,0,1,0,13.449,13.449A13.449,13.449,0,0,0,1117.583,1111.943Zm0,21.112a7.662,7.662,0,1,1,7.662-7.662A7.662,7.662,0,0,1,1117.583,1133.055Z" transform="translate(-1104.134 -1111.943)" fill="#fff" opacity="0.57"/>
    </clipPath>
    <clipPath id="clip-path-3">
      <path id="Trazado_116508" data-name="Trazado 116508" d="M1506.452,1111.943a13.449,13.449,0,1,0,13.449,13.449A13.449,13.449,0,0,0,1506.452,1111.943Zm0,21.112a7.662,7.662,0,1,1,7.662-7.662A7.662,7.662,0,0,1,1506.452,1133.055Z" transform="translate(-1493.003 -1111.943)" fill="#fff" opacity="0.57"/>
    </clipPath>
    <linearGradient id="linear-gradient-2" x1="0.918" y1="-0.764" x2="-1.18" y2="5.578" gradientUnits="objectBoundingBox">
      <stop offset="0" stop-color="#cb236d"/>
      <stop offset="1" stop-color="#4c246d"/>
    </linearGradient>
    <linearGradient id="linear-gradient-3" x1="-281928.906" y1="153298.953" x2="-281929.094" y2="153306.844" gradientUnits="objectBoundingBox">
      <stop offset="0.004" stop-color="#e38ddd"/>
      <stop offset="1" stop-color="#9571f6"/>
    </linearGradient>
    <linearGradient id="linear-gradient-4" x1="-177.349" y1="7.302" x2="-177.621" y2="8.176" gradientUnits="objectBoundingBox">
      <stop offset="0" stop-color="#09005d"/>
      <stop offset="1" stop-color="#1a0f91"/>
    </linearGradient>
    <linearGradient id="linear-gradient-5" x1="-201.689" y1="8.404" x2="-201.891" y2="9.053" xlink:href="#linear-gradient-4"/>
    <linearGradient id="linear-gradient-6" x1="-185.471" y1="7.689" x2="-185.704" y2="8.435" xlink:href="#linear-gradient-4"/>
    <linearGradient id="linear-gradient-7" x1="-5.143" y1="-0.153" x2="-5.331" y2="0.692" gradientUnits="objectBoundingBox">
      <stop offset="0" stop-color="#febbba"/>
      <stop offset="1" stop-color="#ff928e"/>
    </linearGradient>
    <linearGradient id="linear-gradient-8" x1="5.467" y1="-0.195" x2="4.693" y2="2.435" xlink:href="#linear-gradient-7"/>
    <linearGradient id="linear-gradient-9" x1="-49.998" y1="1.602" x2="-48.963" y2="-1.187" xlink:href="#linear-gradient-7"/>
    <linearGradient id="linear-gradient-10" x1="-20.21" y1="1.698" x2="-19.747" y2="-1.193" xlink:href="#linear-gradient-7"/>
    <linearGradient id="linear-gradient-11" x1="-66.054" y1="1.857" x2="-65.799" y2="0.807" xlink:href="#linear-gradient-7"/>
    <linearGradient id="linear-gradient-12" x1="-46.82" y1="-2.806" x2="-45.287" y2="-5.06" xlink:href="#linear-gradient-7"/>
    <linearGradient id="linear-gradient-13" x1="-176.021" y1="-9.691" x2="-170.229" y2="-16.832" xlink:href="#linear-gradient-7"/>
    <linearGradient id="linear-gradient-14" x1="-8.372" y1="0.5" x2="-7.372" y2="0.5" xlink:href="#linear-gradient-7"/>
    <linearGradient id="linear-gradient-15" x1="0.5" x2="0.5" y2="1" gradientUnits="objectBoundingBox">
      <stop offset="0" stop-color="#fff"/>
      <stop offset="1" stop-color="#d3d3d3"/>
    </linearGradient>
    <linearGradient id="linear-gradient-17" x1="5.098" y1="0.5" x2="6.098" y2="0.5" xlink:href="#linear-gradient-7"/>
    <linearGradient id="linear-gradient-18" x1="-31.288" y1="-497.624" x2="-30.603" y2="-536.607" xlink:href="#linear-gradient-4"/>
    <linearGradient id="linear-gradient-19" x1="-0.076" y1="0.929" x2="9.617" y2="-5.995" gradientUnits="objectBoundingBox">
      <stop offset="0" stop-color="#a22b25"/>
      <stop offset="1" stop-color="#c0423c"/>
    </linearGradient>
    <linearGradient id="linear-gradient-20" x1="-35.375" y1="-55.571" x2="-34.527" y2="-60.024" xlink:href="#linear-gradient-4"/>
    <linearGradient id="linear-gradient-21" x1="0.315" y1="-1.265" x2="1.106" y2="6.067" xlink:href="#linear-gradient-19"/>
    <linearGradient id="linear-gradient-22" x1="0.349" y1="0.157" x2="0.783" y2="1.217" xlink:href="#linear-gradient-19"/>
    <linearGradient id="linear-gradient-23" x1="0.559" y1="-0.637" x2="0.155" y2="8.98" xlink:href="#linear-gradient-19"/>
    <linearGradient id="linear-gradient-24" x1="-26.77" y1="-41.141" x2="-27.415" y2="-39.358" xlink:href="#linear-gradient-19"/>
    <linearGradient id="linear-gradient-25" x1="-114.148" y1="-144.991" x2="-116.802" y2="-138.791" xlink:href="#linear-gradient-19"/>
    <linearGradient id="linear-gradient-27" x1="3.5" y1="0.082" x2="-0.552" y2="0.661" xlink:href="#linear-gradient-7"/>
    <linearGradient id="linear-gradient-28" x1="0.868" y1="0.219" x2="1.567" y2="-0.412" xlink:href="#linear-gradient-7"/>
    <linearGradient id="linear-gradient-29" x1="-46.294" y1="1.885" x2="-46.524" y2="0.326" xlink:href="#linear-gradient-7"/>
    <linearGradient id="linear-gradient-30" x1="-36.382" y1="-11.402" x2="-34.949" y2="-10.668" xlink:href="#linear-gradient-7"/>
    <linearGradient id="linear-gradient-31" x1="-157.35" y1="-37.44" x2="-151.16" y2="-35.091" xlink:href="#linear-gradient-7"/>
    <linearGradient id="linear-gradient-32" x1="-9.776" y1="0.5" x2="-8.776" y2="0.5" xlink:href="#linear-gradient-7"/>
  </defs>
  <g id="Grupo_54390" data-name="Grupo 54390" transform="translate(-468.798 -945.052)">
    <g id="Grupo_54368" data-name="Grupo 54368" transform="translate(475.701 945.052)">
      <g id="Grupo_54346" data-name="Grupo 54346">
        <path id="Trazado_116500" data-name="Trazado 116500" d="M550.675,957.858V1072.7c0,9.447,6.635,17.173,14.959,17.417,36.97,1.082,166.271,3.7,201.464,3.116,6.049-.1,10.949-5.593,11.123-12.454.679-26.679,1.781-90.835-2.3-120.62-.859-6.272-5.525-10.963-11.117-11.166-30.976-1.124-168.044-4.695-203.22-3.8C555.519,945.35,550.675,950.972,550.675,957.858Z" transform="translate(-550.675 -945.052)" fill="#00223d"/>
        <path id="Trazado_116501" data-name="Trazado 116501" d="M626.006,1005.758v109.108c0,5.516,3.9,10.01,8.763,10.093l196.245,2.751c4.819.082,8.77-4.318,8.788-9.786l.328-108.133c.013-3.91-2.733-7.114-6.178-7.209l-200.919-4.605C629.18,997.87,626.006,1001.385,626.006,1005.758Z" transform="translate(-619.655 -993.512)" fill="url(#linear-gradient)"/>
        <path id="Trazado_116502" data-name="Trazado 116502" d="M678.988,1064.726v100.186c0,5.065,3.689,9.192,8.284,9.267l185.5,2.526c4.555.075,8.289-3.964,8.306-8.986l.31-99.291c.012-3.59-2.583-6.532-5.84-6.62l-189.917-4.229C681.989,1057.483,678.988,1060.71,678.988,1064.726Z" transform="translate(-668.17 -1048.091)" fill="#dbdada" opacity="0.37"/>
      </g>
      <g id="Grupo_54348" data-name="Grupo 54348" transform="translate(115.265 19.01)">
        <g id="Grupo_54347" data-name="Grupo 54347" opacity="0.53">
          <rect id="Rectángulo_29353" data-name="Rectángulo 29353" width="5.712" height="100.757" fill="#fff"/>
          <rect id="Rectángulo_29354" data-name="Rectángulo 29354" width="5.712" height="100.757" transform="translate(9.545)" fill="#fff"/>
          <rect id="Rectángulo_29355" data-name="Rectángulo 29355" width="5.712" height="100.757" transform="translate(19.09)" fill="#fff"/>
          <rect id="Rectángulo_29356" data-name="Rectángulo 29356" width="5.712" height="100.757" transform="translate(28.635)" fill="#fff"/>
          <rect id="Rectángulo_29357" data-name="Rectángulo 29357" width="5.712" height="100.757" transform="translate(38.18)" fill="#fff"/>
          <rect id="Rectángulo_29358" data-name="Rectángulo 29358" width="5.712" height="100.757" transform="translate(47.725)" fill="#fff"/>
          <rect id="Rectángulo_29359" data-name="Rectángulo 29359" width="5.712" height="100.757" transform="translate(57.27)" fill="#fff"/>
        </g>
        <rect id="Rectángulo_29360" data-name="Rectángulo 29360" width="5.712" height="52.73" transform="translate(0 48.027)" fill="#12263f"/>
        <rect id="Rectángulo_29361" data-name="Rectángulo 29361" width="5.712" height="34.608" transform="translate(9.545 66.15)" fill="#12263f"/>
        <rect id="Rectángulo_29362" data-name="Rectángulo 29362" width="5.712" height="79.396" transform="translate(19.09 21.361)" fill="#12263f"/>
        <rect id="Rectángulo_29363" data-name="Rectángulo 29363" width="5.712" height="19.074" transform="translate(28.635 81.683)" fill="#12263f"/>
        <rect id="Rectángulo_29364" data-name="Rectángulo 29364" width="5.712" height="68.781" transform="translate(38.18 31.976)" fill="#12263f"/>
        <rect id="Rectángulo_29365" data-name="Rectángulo 29365" width="5.712" height="56.872" transform="translate(47.725 43.885)" fill="#12263f"/>
        <rect id="Rectángulo_29366" data-name="Rectángulo 29366" width="5.712" height="43.928" transform="translate(57.27 56.829)" fill="#12263f"/>
      </g>
      <g id="Grupo_54358" data-name="Grupo 54358" transform="translate(13.876 14.07)">
        <g id="Grupo_54351" data-name="Grupo 54351">
          <g id="Grupo_54350" data-name="Grupo 54350">
            <path id="Trazado_116503" data-name="Trazado 116503" d="M728.714,1111.943a13.449,13.449,0,1,0,13.449,13.449A13.449,13.449,0,0,0,728.714,1111.943Zm0,21.112a7.662,7.662,0,1,1,7.662-7.662A7.662,7.662,0,0,1,728.714,1133.055Z" transform="translate(-715.265 -1111.943)" fill="#fff" opacity="0.57"/>
            <g id="Grupo_54349" data-name="Grupo 54349" clip-path="url(#clip-path)">
              <path id="Trazado_116605" data-name="Trazado 116605" d="M0,0H39.951V16.907H0Z" transform="translate(-5.332 10.491)" fill="#12263f"/>
            </g>
          </g>
        </g>
        <g id="Grupo_54354" data-name="Grupo 54354" transform="translate(32.785)">
          <g id="Grupo_54353" data-name="Grupo 54353">
            <path id="Trazado_116505" data-name="Trazado 116505" d="M1117.583,1111.943a13.449,13.449,0,1,0,13.449,13.449A13.449,13.449,0,0,0,1117.583,1111.943Zm0,21.112a7.662,7.662,0,1,1,7.662-7.662A7.662,7.662,0,0,1,1117.583,1133.055Z" transform="translate(-1104.134 -1111.943)" fill="#fff" opacity="0.57"/>
            <g id="Grupo_54352" data-name="Grupo 54352" clip-path="url(#clip-path-2)">
              <path id="Trazado_116604" data-name="Trazado 116604" d="M0,0H39.951V23.442H0Z" transform="translate(-5.332 3.956)" fill="#12263f"/>
            </g>
          </g>
        </g>
        <g id="Grupo_54357" data-name="Grupo 54357" transform="translate(65.571)">
          <g id="Grupo_54356" data-name="Grupo 54356">
            <path id="Trazado_116507" data-name="Trazado 116507" d="M1506.452,1111.943a13.449,13.449,0,1,0,13.449,13.449A13.449,13.449,0,0,0,1506.452,1111.943Zm0,21.112a7.662,7.662,0,1,1,7.662-7.662A7.662,7.662,0,0,1,1506.452,1133.055Z" transform="translate(-1493.003 -1111.943)" fill="#fff" opacity="0.57"/>
            <g id="Grupo_54355" data-name="Grupo 54355" clip-path="url(#clip-path-3)">
              <path id="Trazado_116603" data-name="Trazado 116603" d="M0,0H39.951V8.453H0Z" transform="translate(-5.332 18.945)" fill="#12263f"/>
            </g>
          </g>
        </g>
      </g>
      <g id="Grupo_54359" data-name="Grupo 54359" transform="translate(18.08 73.362)">
        <path id="Trazado_116509" data-name="Trazado 116509" d="M850.369,1864.029l-82.315-.618a2.956,2.956,0,0,1-2.934-2.956v-42.292a2.956,2.956,0,0,1,2.956-2.956h82.316a2.956,2.956,0,0,1,2.956,2.956v42.91A2.956,2.956,0,0,1,850.369,1864.029Z" transform="translate(-765.12 -1815.206)" fill="#fff" opacity="0.24"/>
        <path id="Trazado_116510" data-name="Trazado 116510" d="M871.108,1920.145l-10.585-11.191-15.177,16.508-10.709-11.556-10.044,11.354-7.7-9.357-15.179,15.8v11.428a2.75,2.75,0,0,0,2.729,2.75l76.559.575a2.749,2.749,0,0,0,2.77-2.749V1912.62Z" transform="translate(-798.626 -1901.05)" fill="#fff" opacity="0.54"/>
        <rect id="Rectángulo_29370" data-name="Rectángulo 29370" width="0.278" height="26.625" transform="translate(72.546 18.784)" fill="#fff"/>
        <rect id="Rectángulo_29371" data-name="Rectángulo 29371" width="0.278" height="37.351" transform="translate(61.757 7.904)" fill="#12263f"/>
        <rect id="Rectángulo_29372" data-name="Rectángulo 29372" width="0.278" height="20.931" transform="translate(46.58 24.21)" fill="#12263f"/>
        <rect id="Rectángulo_29373" data-name="Rectángulo 29373" width="0.278" height="31.875" transform="translate(36.155 13.265)" fill="#12263f"/>
        <rect id="Rectángulo_29374" data-name="Rectángulo 29374" width="0.278" height="21.27" transform="translate(25.827 23.871)" fill="#12263f"/>
        <rect id="Rectángulo_29375" data-name="Rectángulo 29375" width="0.278" height="30.878" transform="translate(18.288 14.059)" fill="#12263f"/>
        <path id="Trazado_116511" data-name="Trazado 116511" d="M953.8,1944.98a2.987,2.987,0,1,1-2.987-2.987A2.988,2.988,0,0,1,953.8,1944.98Z" transform="translate(-932.419 -1931.304)" fill="#12263f"/>
        <path id="Trazado_116512" data-name="Trazado 116512" d="M1055.831,2068.71a2.1,2.1,0,1,1-2.1-2.1A2.1,2.1,0,0,1,1055.831,2068.71Z" transform="translate(-1027.468 -2045.411)" fill="#12263f"/>
        <path id="Trazado_116513" data-name="Trazado 116513" d="M1175.276,1946.671a2.23,2.23,0,1,1-2.23-2.23A2.23,2.23,0,0,1,1175.276,1946.671Z" transform="translate(-1136.612 -1933.545)" fill="#12263f"/>
        <path id="Trazado_116514" data-name="Trazado 116514" d="M1305.2,2073.851a2.055,2.055,0,1,1-2.055-2.055A2.055,2.055,0,0,1,1305.2,2073.851Z" transform="translate(-1255.902 -2050.163)" fill="#12263f"/>
        <path id="Trazado_116515" data-name="Trazado 116515" d="M1481.525,1884.766a1.864,1.864,0,1,1-1.865-1.864A1.864,1.864,0,0,1,1481.525,1884.766Z" transform="translate(-1417.711 -1877.194)" fill="#12263f"/>
        <circle id="Elipse_4088" data-name="Elipse 4088" cx="1.914" cy="1.914" r="1.914" transform="translate(71.002 20.152) rotate(-85.269)" fill="url(#linear-gradient-2)"/>
      </g>
      <g id="Grupo_54363" data-name="Grupo 54363" transform="translate(16.498 49.928)">
        <g id="Grupo_54360" data-name="Grupo 54360" opacity="0.48">
          <path id="Trazado_116516" data-name="Trazado 116516" d="M771.1,1664.647H748.1c-.962,0-1.741.543-1.741,1.213s.78,1.213,1.741,1.213H771.1c.962,0,1.742-.543,1.742-1.213S772.058,1664.647,771.1,1664.647Z" transform="translate(-746.363 -1653.907)" fill="#fff"/>
          <path id="Trazado_116517" data-name="Trazado 116517" d="M771.1,1600.951H748.1c-.962,0-1.741.543-1.741,1.213s.78,1.213,1.741,1.213H771.1c.962,0,1.742-.543,1.742-1.213S772.058,1600.951,771.1,1600.951Z" transform="translate(-746.363 -1595.581)" fill="#fff"/>
          <path id="Trazado_116518" data-name="Trazado 116518" d="M771.1,1537.256H748.1c-.962,0-1.741.543-1.741,1.213s.78,1.213,1.741,1.213H771.1c.962,0,1.742-.543,1.742-1.213S772.058,1537.256,771.1,1537.256Z" transform="translate(-746.363 -1537.256)" fill="#fff"/>
        </g>
        <g id="Grupo_54361" data-name="Grupo 54361" transform="translate(31.96)" opacity="0.48">
          <path id="Trazado_116519" data-name="Trazado 116519" d="M1150.181,1664.647h-22.992c-.962,0-1.741.543-1.741,1.213s.78,1.213,1.741,1.213h22.992c.962,0,1.742-.543,1.742-1.213S1151.143,1664.647,1150.181,1664.647Z" transform="translate(-1125.448 -1653.907)" fill="#fff"/>
          <path id="Trazado_116520" data-name="Trazado 116520" d="M1150.181,1600.951h-22.992c-.962,0-1.741.543-1.741,1.213s.78,1.213,1.741,1.213h22.992c.962,0,1.742-.543,1.742-1.213S1151.143,1600.951,1150.181,1600.951Z" transform="translate(-1125.448 -1595.581)" fill="#fff"/>
          <path id="Trazado_116521" data-name="Trazado 116521" d="M1150.181,1537.256h-22.992c-.962,0-1.741.543-1.741,1.213s.78,1.213,1.741,1.213h22.992c.962,0,1.742-.543,1.742-1.213S1151.143,1537.256,1150.181,1537.256Z" transform="translate(-1125.448 -1537.256)" fill="#fff"/>
        </g>
        <g id="Grupo_54362" data-name="Grupo 54362" transform="translate(63.921)" opacity="0.48">
          <path id="Trazado_116522" data-name="Trazado 116522" d="M1529.265,1664.647h-22.992c-.962,0-1.742.543-1.742,1.213s.78,1.213,1.742,1.213h22.992c.962,0,1.742-.543,1.742-1.213S1530.227,1664.647,1529.265,1664.647Z" transform="translate(-1504.532 -1653.907)" fill="#fff"/>
          <path id="Trazado_116523" data-name="Trazado 116523" d="M1529.265,1600.951h-22.992c-.962,0-1.742.543-1.742,1.213s.78,1.213,1.742,1.213h22.992c.962,0,1.742-.543,1.742-1.213S1530.227,1600.951,1529.265,1600.951Z" transform="translate(-1504.532 -1595.581)" fill="#fff"/>
          <path id="Trazado_116524" data-name="Trazado 116524" d="M1529.265,1537.256h-22.992c-.962,0-1.742.543-1.742,1.213s.78,1.213,1.742,1.213h22.992c.962,0,1.742-.543,1.742-1.213S1530.227,1537.256,1529.265,1537.256Z" transform="translate(-1504.532 -1537.256)" fill="#fff"/>
        </g>
      </g>
      <g id="Grupo_54367" data-name="Grupo 54367" transform="translate(179.233 16.626)">
        <g id="Grupo_54364" data-name="Grupo 54364" transform="translate(0 31.25)">
          <circle id="Elipse_4089" data-name="Elipse 4089" cx="11.161" cy="11.161" r="11.161" transform="translate(0 15.784) rotate(-45)" fill="#fff" opacity="0.91"/>
          <path id="Trazado_116525" data-name="Trazado 116525" d="M2772.84,1604.159a7.17,7.17,0,1,1-6.632-4.445q.182,0,.362.009v-1.818c-.12,0-.24-.008-.362-.008a8.98,8.98,0,1,0,8.3,5.537Z" transform="translate(-2750.424 -1590.733)" fill="#12263f"/>
          <path id="Trazado_116526" data-name="Trazado 116526" d="M2752.612,1888.6h-18.188a2.067,2.067,0,0,0,0,4.134h18.188a2.067,2.067,0,1,0,0-4.134Z" transform="translate(-2727.654 -1856.928)" fill="#fff" opacity="0.5"/>
        </g>
        <g id="Grupo_54365" data-name="Grupo 54365" transform="translate(4.575)">
          <circle id="Elipse_4090" data-name="Elipse 4090" cx="11.161" cy="11.161" r="11.161" fill="#fff" opacity="0.91"/>
          <path id="Trazado_116527" data-name="Trazado 116527" d="M2769.153,1187.451a7.169,7.169,0,1,1-3.82-13.235q.182,0,.362.009v-1.817c-.12,0-.24-.008-.362-.008a8.985,8.985,0,1,0,4.721,16.631Z" transform="translate(-2754.198 -1169.859)" fill="#12263f"/>
          <path id="Trazado_116528" data-name="Trazado 116528" d="M2753.181,1463.1h-18.188a2.067,2.067,0,1,0,0,4.134h18.188a2.067,2.067,0,1,0,0-4.134Z" transform="translate(-2732.75 -1436.054)" fill="#fff" opacity="0.5"/>
        </g>
        <g id="Grupo_54366" data-name="Grupo 54366" transform="translate(4.663 71.929)">
          <circle id="Elipse_4091" data-name="Elipse 4091" cx="11.161" cy="11.161" r="11.161" transform="translate(0)" fill="#fff" opacity="0.91"/>
          <path id="Trazado_116529" data-name="Trazado 116529" d="M2774.383,2034.244a7.169,7.169,0,1,1-5.929-11.2c.121,0,.242,0,.361.009v-1.817c-.12,0-.24-.008-.361-.008a8.985,8.985,0,1,0,7.4,14.081Z" transform="translate(-2757.144 -2019.052)" fill="#12263f"/>
          <path id="Trazado_116530" data-name="Trazado 116530" d="M2733.952,2316.067h18.188a2.067,2.067,0,0,0,0-4.134h-18.188a2.067,2.067,0,0,0,0,4.134Z" transform="translate(-2731.885 -2285.248)" fill="#fff" opacity="0.5"/>
        </g>
      </g>
    </g>
    <g id="Grupo_54373" data-name="Grupo 54373" transform="translate(554.903 1007.211)">
      <g id="Grupo_54370" data-name="Grupo 54370" transform="translate(36.364 5.761)">
        <g id="Grupo_54369" data-name="Grupo 54369" transform="translate(22.244)">
          <path id="Trazado_116531" data-name="Trazado 116531" d="M2187.98,1759.979c1.278.1,2.406-1.222,4.365-3.565,1.391-1.666,1.789-2.651,2.123-3.007.3-.32,1.487-1.8.89-2.247,0,0-.641-.319-.933-.433a.98.98,0,0,0-.79.013c-.2.1-2.106,1.31-2.106,1.31a32.765,32.765,0,0,0-3.208,2.05,15.277,15.277,0,0,0-2.909,2.693,1.611,1.611,0,0,0,.2,1.681,3.5,3.5,0,0,0,1.3,1.205A3.405,3.405,0,0,0,2187.98,1759.979Z" transform="translate(-2185.253 -1750.65)" fill="#f5ca56"/>
          <path id="Trazado_116532" data-name="Trazado 116532" d="M2260.331,1763.585a7.312,7.312,0,0,1,1.231.306l.013.006a4.423,4.423,0,0,1,1.022.655c.143-.141.289-.287.43-.432-1.328-1.181-2.056-.916-2.056-.916C2260.688,1763.371,2260.608,1763.421,2260.331,1763.585Z" transform="translate(-2254.001 -1762.123)" fill="#f5ca56"/>
          <path id="Trazado_116533" data-name="Trazado 116533" d="M2270.834,1760.669h0Z" transform="translate(-2263.619 -1759.824)" fill="url(#linear-gradient-3)"/>
          <path id="Trazado_116534" data-name="Trazado 116534" d="M2267.746,1752.616a3.612,3.612,0,0,1,2.006.961,7.777,7.777,0,0,0,1.024-1.108.329.329,0,0,0,.05-.177c0-.112-.139-.233-.563-.442a4.042,4.042,0,0,0-.567-.219.456.456,0,0,0-.327.013C2269.289,1751.678,2268.694,1752.058,2267.746,1752.616Z" transform="translate(-2260.791 -1751.526)" fill="url(#linear-gradient-4)"/>
          <path id="Trazado_116535" data-name="Trazado 116535" d="M2243.083,1768.5c.072.152.31.294.792.568l1.876-1.358a5.106,5.106,0,0,0-.891-.343.461.461,0,0,0-.359.047c-.67.4-1.258.741-1.258.741S2242.993,1768.317,2243.083,1768.5Z" transform="translate(-2238.189 -1765.947)" fill="url(#linear-gradient-5)"/>
          <path id="Trazado_116536" data-name="Trazado 116536" d="M2252.444,1772.591c.116.066.486.275.591.329a1.118,1.118,0,0,0,1.342-.089c.077-.067.521-.456,1-.926a4.426,4.426,0,0,0-1.022-.655l-.09-.041Z" transform="translate(-2246.779 -1769.476)" fill="url(#linear-gradient-6)"/>
          <path id="Trazado_116537" data-name="Trazado 116537" d="M2264.985,1777.581h-.007l-.825-.085a.071.071,0,0,1,.015-.141l.731.075-.086-.48a.071.071,0,0,1,.057-.082.07.07,0,0,1,.082.057l.1.572a.07.07,0,0,1-.069.083Z" transform="translate(-2257.443 -1774.657)" fill="#fff" opacity="0.5"/>
          <path id="Trazado_116538" data-name="Trazado 116538" d="M2256.535,1772.942h0a.07.07,0,0,1-.066-.074l.022-.388a.071.071,0,0,1,.063-.066l.467-.049a.069.069,0,0,1,.077.063.071.071,0,0,1-.063.078l-.407.042-.019.328A.071.071,0,0,1,2256.535,1772.942Z" transform="translate(-2250.461 -1770.533)" fill="#fff" opacity="0.5"/>
        </g>
        <path id="Trazado_116539" data-name="Trazado 116539" d="M1922.208,1856.555s11.464,4.151,16.844,2.185a5.568,5.568,0,0,0,.686-.3c5.015-2.648,5.629-9.812,5.629-9.812l2.251.446s.735,11.52-7.159,16.47c-3.885,2.436-9.859,3.281-19.039.378Z" transform="translate(-1921.419 -1840.367)" fill="url(#linear-gradient-7)"/>
        <path id="Trazado_116540" data-name="Trazado 116540" d="M2204.623,1784.731l-.114-.624a3.429,3.429,0,0,1,.773-3.027c1.8-2.17,3.11-1.372,3.11-1.372a4.866,4.866,0,0,0-.087.876.386.386,0,0,0,.648.276l2.931-2.693s.82,4.277-5.464,7.216Z" transform="translate(-2180.562 -1775.846)" fill="url(#linear-gradient-8)"/>
      </g>
      <path id="Trazado_116541" data-name="Trazado 116541" d="M1551,1765.862s.478.956-2.634,2.449c-1.735.833-5.111,2.064-5.556,5.66a4.125,4.125,0,0,1-3.453,3.626c-4.605.706-11.7,3.1-12.838,11.093-.867,6.1,2.245,8.417,5.51,9.218a4.625,4.625,0,0,1,3.507,5.342c-.465,2.322.229,5.007,4.252,7.13,9.015,4.757,18.019-11.27,18.019-11.27l1.845-27.985Z" transform="translate(-1523.315 -1758.818)" fill="#3c4973"/>
      <path id="Trazado_116542" data-name="Trazado 116542" d="M1496.591,3044.844l-.37,3.039a1.255,1.255,0,0,1-1.1,1.1,19.418,19.418,0,0,1-4.067.064,1.075,1.075,0,0,1-.9-1.394,11.07,11.07,0,0,1,2.039-3.971h3.371A1.039,1.039,0,0,1,1496.591,3044.844Z" transform="translate(-1490.1 -2928.904)" fill="#00223d"/>
      <path id="Trazado_116543" data-name="Trazado 116543" d="M1809.62,2635.239l.569,3.347s-1.905,19.3-2.244,27.021a6.048,6.048,0,0,0,.9,3.438l3.313,5.38-8.421-4.969-.168-1.028,1.378-1.9-1.806-21.622a6.634,6.634,0,0,1,.755-3.669l1.742-3.272Z" transform="translate(-1776.725 -2554.899)" fill="url(#linear-gradient-9)"/>
      <path id="Trazado_116544" data-name="Trazado 116544" d="M1810.4,3022.508h-2.687a1.618,1.618,0,0,1-1.284-.629c-.838-1.089-2.573-3.212-3.4-3.268-1.117-.075-.974,3.9-.974,3.9h-.626l-.793-4.936a2.921,2.921,0,0,1,1.533-3.054h0a4.131,4.131,0,0,0,1.64,2.724c1.385.835,5.635,3.827,5.635,3.827a3.835,3.835,0,0,1,1.092.029A.711.711,0,0,1,1810.4,3022.508Z" transform="translate(-1774.416 -2902.202)" fill="#00223d"/>
      <path id="Trazado_116545" data-name="Trazado 116545" d="M1524.284,2638.986s-11.163,21.175-12.937,26.009a46.438,46.438,0,0,0-2.42,9.25c-.037.6-.779,1.169-2.825,1.169a1.962,1.962,0,0,1-1.826-.833,1.192,1.192,0,0,1-.045-1.155c.646-1.307,2.695-5.483,3.454-7.377.906-2.261,2.855-12.51,3.924-16.073s2.277-7.429,6.932-10.989C1518.54,2638.986,1521.735,2635.857,1524.284,2638.986Z" transform="translate(-1502.922 -2557.057)" fill="url(#linear-gradient-10)"/>
      <path id="Trazado_116546" data-name="Trazado 116546" d="M1779.163,1967.093c2.88-12.2-4.415-19.1-4.415-19.1,3.7-3.55,9.839-5.546,12.11-6.193a1.773,1.773,0,0,1,1.6.328c1.948,1.573,7.1,6.14,6.329,9.866-.556,2.684-5.625,16.076-5.625,16.076A11.136,11.136,0,0,1,1779.163,1967.093Z" transform="translate(-1750.75 -1919.859)" fill="#12263f"/>
      <path id="Trazado_116547" data-name="Trazado 116547" d="M1677.908,2248.606c1.172-3.53,6.384-6.041,6.384-6.041a11.136,11.136,0,0,0,10,.974,20.062,20.062,0,0,1,.326,7.751c-.725,3.734-5.277,27.728-5.277,27.728-7.171,1.453-18.2-1.462-18.2-1.462C1675.71,2269.447,1676.736,2252.137,1677.908,2248.606Z" transform="translate(-1655.878 -2195.332)" fill="#aee6e6"/>
      <path id="Trazado_116548" data-name="Trazado 116548" d="M1840.936,1833.212l-2.341,10.516c-.224.926.62.775,1.557.6,1.533-.289,3.51-.885,4.171-2.078a1.136,1.136,0,0,0,.12-.4l1.006-7.292a1.31,1.31,0,0,0-.767-1.376l-1.941-.861A1.311,1.311,0,0,0,1840.936,1833.212Z" transform="translate(-1809.18 -1819.572)" fill="url(#linear-gradient-11)"/>
      <g id="Grupo_54371" data-name="Grupo 54371" transform="translate(27.12 0)">
        <path id="Trazado_116549" data-name="Trazado 116549" d="M1853.622,1726.331a10.375,10.375,0,0,1,3.563,5.984c1.071,4.3-.67,5.838-2.453,5.743a8.278,8.278,0,0,1-6.612-3.729C1845.879,1731.247,1850.356,1724.27,1853.622,1726.331Z" transform="translate(-1844.502 -1722.277)" fill="url(#linear-gradient-12)"/>
        <path id="Trazado_116550" data-name="Trazado 116550" d="M1817.651,1692.637s-.913-6.156,4.2-5.215l1.033,1.076s2.5-2.818-.267-4.948-6.611-1.584-8.736,2.293-2.9,6.6-1.115,9.011,3.122.343,3.122.343-.817-2.085-.139-2.98,1.553.52,1.553.52Z" transform="translate(-1811.774 -1682.318)" fill="#3c4973"/>
        <path id="Trazado_116551" data-name="Trazado 116551" d="M1852.386,1791.623s-.451-3.167-2.069-2.262.583,2.959,1.466,3.657Z" transform="translate(-1846.539 -1780.187)" fill="url(#linear-gradient-13)"/>
      </g>
      <path id="Trazado_116552" data-name="Trazado 116552" d="M1708.8,2018.116s-4.969,7.951-5.963,13.914,8.448,8.448,11.926,4.969l-.5-2.485s-5.466.994-5.963-1.988,4.472-8.944,4.472-8.944S1711.28,2019.11,1708.8,2018.116Z" transform="translate(-1684.831 -1989.805)" fill="url(#linear-gradient-14)"/>
      <g id="Grupo_54372" data-name="Grupo 54372" transform="translate(28.094 29.017)">
        <path id="Trazado_116553" data-name="Trazado 116553" d="M1823.35,2070.579l5.649-19.727a.576.576,0,0,1,.487-.414c1.023-.119,3.989-.455,7.413-.744a84.2,84.2,0,0,1,11.776-.391.577.577,0,0,1,.472.831c-1.628,3.293-8.323,16.688-11.675,21.075a.578.578,0,0,1-.466.229l-13.106-.122A.578.578,0,0,1,1823.35,2070.579Z" transform="translate(-1823.328 -2047.297)" fill="#7d6eb2"/>
        <path id="Trazado_116554" data-name="Trazado 116554" d="M1985.851,2027.171l4.1-.683a.294.294,0,0,1,.328.382l-.405,1.228a.294.294,0,0,1-.24.2l-3.941.526a.294.294,0,0,1-.325-.358l.251-1.073A.294.294,0,0,1,1985.851,2027.171Z" transform="translate(-1971.694 -2026.485)" fill="url(#linear-gradient-15)"/>
        <path id="Trazado_116555" data-name="Trazado 116555" d="M1954.792,2043.968l.338-1.757a.406.406,0,0,1,.358-.328l8.272-.839a.406.406,0,0,1,.436.5l-.526,2.19a.406.406,0,0,1-.375.311l-8.083.407A.407.407,0,0,1,1954.792,2043.968Z" transform="translate(-1943.702 -2039.814)" fill="url(#linear-gradient-15)"/>
        <path id="Trazado_116556" data-name="Trazado 116556" d="M1833.866,2173.056s-.787-3.236-.469-4.384.932-2.624,2.982-2.3a29.986,29.986,0,0,1,4.468,1.191,1.173,1.173,0,0,1-1.68,1.013l.966.748s-.138,1.2-1.454.558l.9.991a1.047,1.047,0,0,1-1.533.353C1837.076,2170.6,1836.612,2173.445,1833.866,2173.056Z" transform="translate(-1832.479 -2154.54)" fill="url(#linear-gradient-17)"/>
      </g>
      <path id="Trazado_116557" data-name="Trazado 116557" d="M1571.169,1872.468a.841.841,0,0,1-.427-.15,6.844,6.844,0,0,1-2.733-6.889,6.43,6.43,0,0,1,2.245-3.9,9.9,9.9,0,0,1,2.7-1.388c1.555-.588,3.156-1.105,4.759-1.538l.4-.106a14.544,14.544,0,0,0,2.783-.946,4.605,4.605,0,0,0,2.307-2.3,6.889,6.889,0,0,0,.354-1.825,5.533,5.533,0,0,1,.535-2.2.038.038,0,0,1,.054-.015.039.039,0,0,1,.015.053,5.475,5.475,0,0,0-.525,2.171,6.954,6.954,0,0,1-.359,1.846,4.681,4.681,0,0,1-2.345,2.345,14.612,14.612,0,0,1-2.8.952l-.4.106c-1.6.432-3.2.949-4.751,1.536a9.825,9.825,0,0,0-2.683,1.376,6.353,6.353,0,0,0-2.217,3.857,6.764,6.764,0,0,0,2.7,6.809c.155.1.449.224.576.047a.04.04,0,0,1,.055-.009.039.039,0,0,1,.009.055A.3.3,0,0,1,1571.169,1872.468Z" transform="translate(-1561.334 -1836.957)" fill="#91b3fa"/>
      <path id="Trazado_116558" data-name="Trazado 116558" d="M1586.691,1996.221a.04.04,0,0,1-.033-.017,6.6,6.6,0,0,1-1.224-3.688,4.158,4.158,0,0,1,1.7-3.406.039.039,0,0,1,.054.01.039.039,0,0,1-.011.055,4.079,4.079,0,0,0-1.666,3.341,6.523,6.523,0,0,0,1.21,3.644.039.039,0,0,1-.011.054A.037.037,0,0,1,1586.691,1996.221Z" transform="translate(-1577.396 -1963.238)" fill="#91b3fa"/>
    </g>
    <g id="Grupo_54382" data-name="Grupo 54382" transform="translate(619.946 1035.36)">
      <g id="Grupo_54374" data-name="Grupo 54374" transform="translate(49.866 66.739)">
        <path id="Trazado_116559" data-name="Trazado 116559" d="M3121.281,2866.352c.671.992,3.334,23.445,3.751,31.738a.983.983,0,0,1-1.953.2l-4.872-31.221Z" transform="translate(-3095.851 -2861.415)" fill="#00223d"/>
        <path id="Trazado_116560" data-name="Trazado 116560" d="M2859.905,2866.352c-.67.992-3.334,23.445-3.751,31.738a.983.983,0,0,0,1.953.2l4.872-31.221Z" transform="translate(-2855.891 -2861.415)" fill="#00223d"/>
        <path id="Trazado_116561" data-name="Trazado 116561" d="M2882.5,2810.973l0,.245a3.338,3.338,0,0,1-3.4,3.239l-22.519.383a3.367,3.367,0,0,1-3.525-3.056l-.012-.224a3.325,3.325,0,0,1,3.394-3.367l22.529-.4A3.355,3.355,0,0,1,2882.5,2810.973Z" transform="translate(-2853.04 -2807.789)" fill="#00223d"/>
      </g>
      <g id="Grupo_54378" data-name="Grupo 54378" transform="translate(3.286 0)">
        <g id="Grupo_54375" data-name="Grupo 54375" transform="translate(22.466 98.508)">
          <path id="Trazado_116562" data-name="Trazado 116562" d="M2576.8,3226c4,0,5.775-.343,6.566-.656a1.519,1.519,0,0,1-1.479,1.177h-14.162a.689.689,0,0,1-.664-.87C2568.671,3225.777,2572.1,3226,2576.8,3226Z" transform="translate(-2567.033 -3221.906)" fill="url(#linear-gradient-18)"/>
          <path id="Trazado_116563" data-name="Trazado 116563" d="M2567.319,3188.351a.667.667,0,0,1,.116-.241c1.079-1.377,3.246-3.54,6.194-3.5,4.318.061,5.824.53,9.18.027l.792,2.624a1.506,1.506,0,0,1,.024.783c-.792.313-2.563.656-6.566.656C2572.362,3188.7,2568.933,3188.481,2567.319,3188.351Z" transform="translate(-2567.295 -3184.611)" fill="#3c4973"/>
        </g>
        <path id="Trazado_116564" data-name="Trazado 116564" d="M2702.083,3151.389l.972,3.3a5.713,5.713,0,0,1-4.046.193l-.372-2.863Z" transform="translate(-2665.075 -3055.681)" fill="url(#linear-gradient-19)"/>
        <g id="Grupo_54376" data-name="Grupo 54376" transform="translate(0 93.731)">
          <path id="Trazado_116565" data-name="Trazado 116565" d="M2308.213,3139.238c3.121,2.507,4.716,3.351,5.528,3.6a1.518,1.518,0,0,1-1.887-.014l-11.04-8.87a.686.686,0,0,1,.024-1.091C2302.017,3133.979,2304.552,3136.3,2308.213,3139.238Z" transform="translate(-2300.557 -3132.452)" fill="url(#linear-gradient-20)"/>
          <path id="Trazado_116566" data-name="Trazado 116566" d="M2303.906,3128.359a.668.668,0,0,1,.24-.115c1.7-.393,4.737-.714,7.01,1.165,3.329,2.752,4.21,4.058,7.14,5.77l-1.019,2.532a1.485,1.485,0,0,1-.469.622c-.812-.253-2.407-1.1-5.528-3.6C2307.619,3131.789,2305.083,3129.47,2303.906,3128.359Z" transform="translate(-2303.624 -3127.944)" fill="#3c4973"/>
        </g>
        <path id="Trazado_116567" data-name="Trazado 116567" d="M2656.332,2704.752s-23.967,1.957-28.884,4.271,4.012,34.753,4.012,34.753,1.339.644,4.317-.282c0,0-3.054-23.938-.781-29.13l25.95-4.244Z" transform="translate(-2598.536 -2646.7)" fill="#167377"/>
        <path id="Trazado_116568" data-name="Trazado 116568" d="M2445.539,3144.365c-.223.2-2.381,4.557-2.381,4.557s-2.4-.52-2.893-2.041l2.162-3.93Z" transform="translate(-2428.485 -3047.955)" fill="url(#linear-gradient-21)"/>
        <path id="Trazado_116569" data-name="Trazado 116569" d="M2516.163,2702.376a12.141,12.141,0,0,1,.749,4.376,6.571,6.571,0,0,1-6.271,6.429l-28.333,1.292a1.359,1.359,0,0,0-1.254,1.021c-.666,2.575-3.92,10.484-19.828,26.264a1.283,1.283,0,0,1-1.587.173l-2.264-1.43a.522.522,0,0,1-.171-.7l16.5-28.171a6.385,6.385,0,0,1,3.879-2.877l24.148-6.173Z" transform="translate(-2443.931 -2644.525)" fill="#26aab7"/>
        <path id="Trazado_116570" data-name="Trazado 116570" d="M2771.807,2180.427s3.035,5.366,6.13,7.966l-6.4,3.569s-1.441-5.681-4.734-7.345Z" transform="translate(-2727.497 -2166.581)" fill="url(#linear-gradient-22)"/>
        <path id="Trazado_116571" data-name="Trazado 116571" d="M2617.777,2301.386a35.058,35.058,0,0,1-14.95,0s-10.216-13.733-14.168-17.471a28.11,28.11,0,0,1-20.336,11.358l-.783-1.749s11.171-5.15,14.61-13.062,4.82-11.288,7.949-13.352c1.948-1.286,3.115-2.164,3.718-2.644a1,1,0,0,1,1.146-.073C2598.284,2266.417,2613.908,2277.118,2617.777,2301.386Z" transform="translate(-2545.031 -2243.335)" fill="#3c4973"/>
        <path id="Trazado_116572" data-name="Trazado 116572" d="M2821.741,2415.965l-.233-.155,3.78-6.7.254.119A30.753,30.753,0,0,1,2821.741,2415.965Z" transform="translate(-2777.586 -2375.983)" fill="#162248"/>
        <path id="Trazado_116573" data-name="Trazado 116573" d="M2454.5,2583.413l-1.58-.421-4.8-1.111a2.226,2.226,0,0,0-1.686.284l-4.123,2.594,11.387-.019Z" transform="translate(-2430.364 -2534.136)" fill="url(#linear-gradient-23)"/>
        <g id="Grupo_54377" data-name="Grupo 54377" transform="translate(35.532)">
          <path id="Trazado_116574" data-name="Trazado 116574" d="M2725.969,2084.981s-2.95,4.9-3.461,7.613-1.333,4.4,1.751,5.37a6.768,6.768,0,0,0,7.75-2.786s2.81-3.893,2.529-5.676S2725.969,2084.981,2725.969,2084.981Z" transform="translate(-2722.01 -2079.182)" fill="url(#linear-gradient-24)"/>
          <path id="Trazado_116575" data-name="Trazado 116575" d="M2745.274,2030.094l-.4-.052s2.089-3.156.722-3.939-6.936-2.7-7.9-4.9a3.809,3.809,0,0,1,2.144-5,.214.214,0,0,1,.257.135l.1.266a.216.216,0,0,0,.4.011.215.215,0,0,1,.392-.008c.3.657,1.191,1.779,3.869,2.648,3.8,1.232,6.168,3.148,5.876,5.848a.216.216,0,0,0,.309.219c.311-.137.781-.159,1.328.439.951,1.04.206,3.315-2.391,4.925a.215.215,0,0,0-.035.345c.388.333.935,1.074-.822,1.736a4.417,4.417,0,0,1-3.141.3.216.216,0,0,1-.133-.243l.462-2.366a.216.216,0,0,0-.184-.256Z" transform="translate(-2736.097 -2016.195)" fill="#3c4973"/>
          <path id="Trazado_116576" data-name="Trazado 116576" d="M2826.663,2159.358s1.3-3.209,2.668-2.081-1.264,3.621-2.478,3.588Z" transform="translate(-2817.84 -2145.162)" fill="url(#linear-gradient-25)"/>
        </g>
      </g>
      <g id="Grupo_54380" data-name="Grupo 54380" transform="translate(6.351 50.661)">
        <g id="Grupo_54379" data-name="Grupo 54379">
          <path id="Trazado_116577" data-name="Trazado 116577" d="M2362.379,2619.281h-.056l-24.326-.024a1.087,1.087,0,1,1,0-2.174l24.326.024a1.087,1.087,0,0,1,.053,2.172Z" transform="translate(-2336.909 -2617.084)" fill="url(#linear-gradient-15)"/>
        </g>
      </g>
      <g id="Grupo_54381" data-name="Grupo 54381" transform="translate(0 51.614)">
        <path id="Trazado_116578" data-name="Trazado 116578" d="M2491.143,2657.623c.106.44,10.257,38.509,12.83,48.16a1.731,1.731,0,1,1-3.348.878l-11.268-45.684Z" transform="translate(-2470.153 -2655.159)" fill="#3c4973"/>
        <path id="Trazado_116579" data-name="Trazado 116579" d="M2304.6,2657.623c-.106.44-10.257,38.509-12.83,48.16a1.731,1.731,0,1,0,3.348.878l11.267-45.684Z" transform="translate(-2289.167 -2655.159)" fill="#3c4973"/>
        <path id="Trazado_116580" data-name="Trazado 116580" d="M2439.59,2642.858h6.322v5.077a1.314,1.314,0,0,1-1.306,1.321h-.867v11.4a.988.988,0,1,1-1.977,0v-11.4h-.44a1.743,1.743,0,0,1-1.733-1.753Z" transform="translate(-2424.582 -2641.638)" fill="#3c4973"/>
        <path id="Trazado_116581" data-name="Trazado 116581" d="M2298.45,2628.394h-35.3a1.084,1.084,0,0,0-1.047.821l-.493,1.933a1.091,1.091,0,0,0,1.053,1.368l36.22-.21a1.092,1.092,0,0,0,1.043-1.362l-.428-1.722A1.084,1.084,0,0,0,2298.45,2628.394Z" transform="translate(-2261.576 -2628.394)" fill="#3c4973"/>
      </g>
    </g>
    <g id="Grupo_54389" data-name="Grupo 54389" transform="translate(468.798 1033.845)">
      <g id="Grupo_54383" data-name="Grupo 54383" transform="translate(10.367 69.608)">
        <rect id="Rectángulo_29376" data-name="Rectángulo 29376" width="2.493" height="26.955" transform="translate(15.401 32.994) rotate(180)" fill="#00223d"/>
        <path id="Trazado_116582" data-name="Trazado 116582" d="M630.19,3203.748h21.831v-.117a1.505,1.505,0,0,0-1.505-1.505h-18.7A1.623,1.623,0,0,0,630.19,3203.748Z" transform="translate(-626.95 -3170.233)" fill="#00223d"/>
        <rect id="Rectángulo_29377" data-name="Rectángulo 29377" width="27.448" height="7.785" rx="3.892" fill="#00223d"/>
      </g>
      <g id="Grupo_54384" data-name="Grupo 54384" transform="translate(7.56 52.613)">
        <path id="Trazado_116583" data-name="Trazado 116583" d="M881.005,2682.316a21.7,21.7,0,0,1,7.868,3.358,2.076,2.076,0,0,1,.916,1.984,88,88,0,0,1-9.309,29.22,3.143,3.143,0,0,0-.3,2.157l1.174,5.466,2.178,2.042h-5.61l-3.735-10.109,1.6-.505a3.022,3.022,0,0,0,2.111-2.83l.187-10.844a12.338,12.338,0,0,1,2.962-8.165l-8.96-.436Z" transform="translate(-845.642 -2677.254)" fill="url(#linear-gradient-27)"/>
        <path id="Trazado_116584" data-name="Trazado 116584" d="M895.43,3092.318c.511.669-5.5,1.551-8.536.089,0,0-4.209-7.323-4.209-11.094,0,0,.334-.769,2.806-.594,0,0,1.413,8.671,2.906,9.643s4.175.1,4.175.1A8.788,8.788,0,0,1,895.43,3092.318Z" transform="translate(-855.35 -3042.043)" fill="#b54273"/>
        <path id="Trazado_116585" data-name="Trazado 116585" d="M885.529,2709.368c.048-.083,9.647-1.154,9.647-1.154a22.191,22.191,0,0,0,.668,6.937c.982,4.018,15.076,21.425,15.076,21.425l-1.478,4.685a23.771,23.771,0,0,0,13.486.811l-9.158-5.5s-8.571-29.208-13.821-34.419l-9.622-3.329Z" transform="translate(-857.955 -2692.373)" fill="url(#linear-gradient-28)"/>
        <path id="Trazado_116586" data-name="Trazado 116586" d="M564.514,2622.272s-5.53,8.226-5.984,11.978,1.515,5.277,7.318,5.528,21.294.247,21.294.247l13.222-11.3s-9.635-3.438-12.141-4.41S564.514,2622.272,564.514,2622.272Z" transform="translate(-558.467 -2622.272)" fill="#3c4973"/>
        <path id="Trazado_116587" data-name="Trazado 116587" d="M1166.12,3183.412a2.706,2.706,0,0,0-.516,3.255s12.6,2.234,16.025,1.22c0,0-.711-1.622-4.564-3.467l.284.218a.46.46,0,0,1-.3.826C1174.506,3185.319,1169.251,3184.854,1166.12,3183.412Z" transform="translate(-1114.075 -3136.103)" fill="#b54273"/>
      </g>
      <g id="Grupo_54386" data-name="Grupo 54386" transform="translate(3.646)">
        <path id="Trazado_116588" data-name="Trazado 116588" d="M540.365,2046.623c-.931-.13-4.362-.452-5.007,1.747a.393.393,0,0,1-.635.209c-1.051-.985-3.547-2.818-6.4-1.357-2.522,1.29-2.379,3.78-2,5.3.091.366-.3.688-.6.483-2.111-1.457-7-4.019-10.355.62-3.125,4.326-.8,7.165.793,8.435a.426.426,0,0,1-.228.731c-1.2.167-2.865.919-3.714,3.636-1.331,4.257,5.883,7.492,6.733,7.856a.352.352,0,0,0,.171.026l14.844-1.341a.417.417,0,0,0,.3-.175l9.536-13.236a.441.441,0,0,0,.072-.366l-3.2-12.3A.356.356,0,0,0,540.365,2046.623Z" transform="translate(-512.048 -2042.455)" fill="#3c4973"/>
        <path id="Trazado_116589" data-name="Trazado 116589" d="M584.307,2285.5a126.259,126.259,0,0,0,9.61-10.194,8.618,8.618,0,0,0,1.459-7.756,107.018,107.018,0,0,0-4.254-10.713c-.36-1.205-7.581-1.155-7.581-1.155s-14.21,9.222-19.793,24.844l6.27,1.952A73.274,73.274,0,0,1,577.4,2272.3s-6.343,8.38-6.567,11.81Z" transform="translate(-559.39 -2233.976)" fill="#b54273"/>
        <path id="Trazado_116590" data-name="Trazado 116590" d="M810.629,2178.946c-.075.25-1.96,6.5-2.108,6.629s-4.133.344-6.01-.938l3.183-6.663Z" transform="translate(-778.023 -2162.818)" fill="url(#linear-gradient-29)"/>
        <g id="Grupo_54385" data-name="Grupo 54385" transform="translate(23.99)">
          <path id="Trazado_116591" data-name="Trazado 116591" d="M844.323,2066.821s1.573,3.342.011,8.546-4.364,5.741-6.187,4.523a10.159,10.159,0,0,1-4.641-8.077C833.072,2067.157,842.168,2062.6,844.323,2066.821Z" transform="translate(-830.38 -2059.507)" fill="url(#linear-gradient-30)"/>
          <path id="Trazado_116592" data-name="Trazado 116592" d="M803.191,2010.118s2.893-7.069,7.7-2.873l.417,1.783s4.405-1.406,2.818-5.388-6.836-7.134-11.509-4.374-6.34,6.472-5.97,10.13,3.079,2.318,3.079,2.318.444-2.713,1.72-3.232,1.312,1.522,1.312,1.522Z" transform="translate(-796.594 -1998.223)" fill="#3c4973"/>
          <path id="Trazado_116593" data-name="Trazado 116593" d="M840.25,2116.382s1.509-3.625-.766-3.683-1.238,3.487-.745,4.777Z" transform="translate(-834.574 -2103.048)" fill="url(#linear-gradient-31)"/>
        </g>
        <path id="Trazado_116594" data-name="Trazado 116594" d="M581.653,2555.8l-4.732-4.561L570.376,2554s-6.516,1.01-10.245,0l-3.729-1.01-8.427-2.624-1.323,3.74a2.252,2.252,0,0,0,.823,2.587,14.85,14.85,0,0,0,2.128,1.326c1.11.486,27.357-.336,27.357-.336Z" transform="translate(-543.616 -2503.817)" fill="url(#linear-gradient-32)"/>
      </g>
      <g id="Grupo_54387" data-name="Grupo 54387" transform="translate(22.61 29.208)">
        <path id="Trazado_116595" data-name="Trazado 116595" d="M738.148,2613.261h.063l27.448-.03a1.229,1.229,0,1,0,0-2.457l-27.448.03a1.229,1.229,0,0,0-.06,2.456Z" transform="translate(-736.981 -2588.339)" fill="#dbdada"/>
        <path id="Trazado_116596" data-name="Trazado 116596" d="M963.956,2344.665H941.1a4.357,4.357,0,0,0-3.941,2.5l-10.568,22.408H955a2.648,2.648,0,0,0,2.463-1.675l8.195-20.736A1.825,1.825,0,0,0,963.956,2344.665Z" transform="translate(-910.603 -2344.665)" fill="#dbdada"/>
        <path id="Trazado_116597" data-name="Trazado 116597" d="M1176.391,2456.075c-.5,1.539-.129,3.033.817,3.338s2.116-.7,2.611-2.235.129-3.033-.817-3.338S1176.886,2454.536,1176.391,2456.075Z" transform="translate(-1139.142 -2444.586)" fill="#fff" opacity="0.24"/>
      </g>
      <g id="Grupo_54388" data-name="Grupo 54388" transform="translate(0.976 55.715)">
        <path id="Trazado_116598" data-name="Trazado 116598" d="M1155.992,2709.164a1.023,1.023,0,0,0,.4-.081.981.981,0,0,0,.526-1.3l-21.081-48.129a1.012,1.012,0,0,0-1.32-.517.981.981,0,0,0-.526,1.3l21.081,48.129A1.006,1.006,0,0,0,1155.992,2709.164Z" transform="translate(-1078.806 -2659.06)" fill="#3c4973"/>
        <path id="Trazado_116599" data-name="Trazado 116599" d="M1103.279,2709.162a1.006,1.006,0,0,0,.924-.6l21.081-48.129a.981.981,0,0,0-.526-1.3,1.012,1.012,0,0,0-1.321.517l-21.081,48.129a.981.981,0,0,0,.526,1.3A1.023,1.023,0,0,0,1103.279,2709.162Z" transform="translate(-1049.842 -2659.058)" fill="#3c4973"/>
        <path id="Trazado_116600" data-name="Trazado 116600" d="M534.089,2709.164a1.023,1.023,0,0,0,.4-.081.981.981,0,0,0,.526-1.3l-21.081-48.129a1.012,1.012,0,0,0-1.321-.517.981.981,0,0,0-.526,1.3l21.081,48.129A1.006,1.006,0,0,0,534.089,2709.164Z" transform="translate(-509.335 -2659.06)" fill="#3c4973"/>
        <path id="Trazado_116601" data-name="Trazado 116601" d="M481.379,2709.162a1.006,1.006,0,0,0,.924-.6l21.081-48.129a.981.981,0,0,0-.526-1.3,1.012,1.012,0,0,0-1.321.517l-21.081,48.129a.981.981,0,0,0,.526,1.3A1.022,1.022,0,0,0,481.379,2709.162Z" transform="translate(-480.374 -2659.058)" fill="#3c4973"/>
      </g>
      <path id="Trazado_116602" data-name="Trazado 116602" d="M468.812,2638.427a1.348,1.348,0,0,1,.165-.878.728.728,0,0,1,.606-.386H549a.88.88,0,0,1,.761.563,1.6,1.6,0,0,1,.059,1.171l-.861,2.518a1.242,1.242,0,0,1-1.094.946H470.128a1.036,1.036,0,0,1-.9-1Z" transform="translate(-468.798 -2583.294)" fill="#3c4973"/>
    </g>
  </g>
</svg>
