<svg xmlns="http://www.w3.org/2000/svg" xmlns:xlink="http://www.w3.org/1999/xlink" width="341.036" height="293.359" viewBox="0 0 341.036 293.359">
  <defs>
    <linearGradient id="linear-gradient" x1="0.5" x2="0.5" y2="1" gradientUnits="objectBoundingBox">
      <stop offset="0" stop-color="#fff"/>
      <stop offset="1" stop-color="#d3d3d3"/>
    </linearGradient>
    <linearGradient id="linear-gradient-3" x1="0.5" x2="0.5" y2="1" gradientUnits="objectBoundingBox">
      <stop offset="0" stop-color="#fff"/>
      <stop offset="1" stop-color="#d2e6ee"/>
    </linearGradient>
  </defs>
  <g id="Grupo_46132" data-name="Grupo 46132" transform="translate(-103.362 -31.308)">
    <g id="Grupo_46099" data-name="Grupo 46099" transform="translate(137.174 133.067)">
      <path id="Trazado_96006" data-name="Trazado 96006" d="M117.37,57.665l4.437,5.988c-1.195,1.8,8.048-9.524,8.048-9.524l3.251,1.427L127.077,65.78a3.917,3.917,0,0,1-6.492.254l-6.519-.205-3.121-6.318C111.819,60.207,116.831,56.657,117.37,57.665Z" transform="translate(-110.945 -54.129)" fill="#00223d" fill-rule="evenodd"/>
      <path id="Trazado_96007" data-name="Trazado 96007" d="M112.751,55.664l-.045,7.812C111.4,59.989,112.751,55.664,112.751,55.664Z" transform="translate(-106.816 -48.82)" fill="#191e7f" fill-rule="evenodd"/>
    </g>
    <g id="Grupo_46100" data-name="Grupo 46100" transform="translate(279.837 39.711)">
      <path id="Trazado_96008" data-name="Trazado 96008" d="M193.375,33.192A50.435,50.435,0,1,1,142.94,83.627a50.457,50.457,0,0,1,50.435-50.435Zm0,14.879a35.553,35.553,0,1,1-35.551,35.555,35.552,35.552,0,0,1,35.551-35.555Z" transform="translate(-142.94 -33.192)" fill-rule="evenodd" fill="url(#linear-gradient)"/>
      <path id="Trazado_96009" data-name="Trazado 96009" d="M181.829,36.529a35.553,35.553,0,1,1-35.551,35.555,35.552,35.552,0,0,1,35.551-35.555Zm0,11.714a23.909,23.909,0,1,1-23.837,23.842,23.881,23.881,0,0,1,23.837-23.842Z" transform="translate(-131.394 -21.65)" fill="#00223d" fill-rule="evenodd"/>
      <path id="Trazado_96010" data-name="Trazado 96010" d="M172.742,39.156A23.909,23.909,0,1,1,148.905,63a23.881,23.881,0,0,1,23.837-23.842Zm0,9.921A13.919,13.919,0,1,1,158.826,63a13.882,13.882,0,0,1,13.916-13.921Z" transform="translate(-122.308 -12.563)" fill-rule="evenodd" fill="url(#linear-gradient)"/>
      <path id="Trazado_96011" data-name="Trazado 96011" d="M165.046,69.218A13.919,13.919,0,1,0,151.13,55.3a13.881,13.881,0,0,0,13.916,13.916Z" transform="translate(-114.612 -4.867)" fill="#00223d" fill-rule="evenodd"/>
      <path id="Trazado_96012" data-name="Trazado 96012" d="M160.908,60.47l44.509-9.37,2.481-5.925,17.776-5.925-5.649,10.473,9.095,7.3-18.879,1.1L206.106,55.1l-44.784,7.165,1.378,3.032-8.819-1.929,6.89-7.441Z" transform="translate(-105.097 -12.241)" fill="#00223d" fill-rule="evenodd"/>
    </g>
    <path id="Trazado_96013" data-name="Trazado 96013" d="M175.827,35.957l1.328,7.145,10.283-1.912-21.18,20.78L154.745,50.242l-27.908,29,5.236,5.039L154.8,60.669l11.364,11.578,27.893-27.368.4,10.908,7.264-.264-.882-24.215Z" transform="translate(81.2 0)" fill="#f6c343"/>
    <g id="Grupo_46108" data-name="Grupo 46108" transform="translate(376.854 98.689)">
      <g id="Grupo_46103" data-name="Grupo 46103" transform="translate(0 29.286)">
        <g id="Grupo_46101" data-name="Grupo 46101">
          <path id="Trazado_96014" data-name="Trazado 96014" d="M204.5,72.713c1.115-.526,2.1-1,2.965-1.422-.259-.932-.517-1.859-.776-2.791-.277-.923-.54-1.855-.8-2.787-.968.107-2.047.223-3.277.361l-2.47.281A15.678,15.678,0,0,0,197,62.507l.812-2.4c.406-1.159.754-2.194,1.079-3.112-.847-.468-1.694-.936-2.537-1.391s-1.712-.932-2.559-1.4c-.6.771-1.271,1.619-2.029,2.6l-1.6,2.029a15.824,15.824,0,0,0-4.325-.508l-1.052-2.323c-.508-1.119-.95-2.109-1.36-3-.936.241-1.873.486-2.8.727s-1.873.486-2.8.727c.089.977.169,2.06.29,3.282l.223,2.537a16.313,16.313,0,0,0-3.54,2.568l-2.279-.95c-1.141-.482-2.14-.9-3.054-1.275-.513.82-1.026,1.645-1.538,2.448l-1.538,2.466c.731.647,1.538,1.382,2.439,2.2l1.815,1.614a16.208,16.208,0,0,0-.87,5.8l-2.1,1c-1.115.526-2.1,1-2.974,1.4.259.932.522,1.864.8,2.787.259.932.517,1.859.776,2.791.972-.107,2.065-.227,3.286-.343l2.243-.241a16.082,16.082,0,0,0,3.3,4.187l-.713,2.02c-.406,1.155-.754,2.189-1.079,3.108.847.468,1.69.923,2.537,1.391s1.7.936,2.555,1.387c.6-.754,1.289-1.605,2.038-2.559l1.342-1.69a15.613,15.613,0,0,0,4.718.571l.869,1.949c.491,1.128.945,2.114,1.338,2.992.936-.245,1.868-.486,2.8-.727s1.868-.486,2.8-.727c-.085-.959-.169-2.042-.268-3.268l-.187-2.185a16.527,16.527,0,0,0,3.8-2.836l2.029.834c1.141.468,2.136.878,3.045,1.24.517-.8,1.03-1.627,1.543-2.448s1.026-1.628,1.538-2.448c-.731-.647-1.538-1.382-2.457-2.194l-1.734-1.525a15.825,15.825,0,0,0,.745-5.855ZM188.656,84.329a10.229,10.229,0,1,1,7.33-12.472A10.234,10.234,0,0,1,188.656,84.329Z" transform="translate(-164.698 -52.987)" fill="#f6c343"/>
        </g>
        <g id="Grupo_46102" data-name="Grupo 46102" transform="translate(8.862 8.88)">
          <path id="Trazado_96015" data-name="Trazado 96015" d="M177.389,79.924a12.54,12.54,0,1,1,14.242-10.568A12.559,12.559,0,0,1,177.389,79.924Zm3.371-22.736a10.444,10.444,0,1,0,8.8,11.861A10.457,10.457,0,0,0,180.76,57.188Z" transform="translate(-166.685 -54.978)" fill="#00223d"/>
        </g>
      </g>
      <g id="Grupo_46105" data-name="Grupo 46105" transform="translate(12.258)">
        <path id="Trazado_96016" data-name="Trazado 96016" d="M193.215,56.51c.629-.531,1.177-1,1.668-1.427-.33-.553-.656-1.106-.981-1.663s-.664-1.1-.99-1.659c-.606.236-1.28.495-2.051.8l-1.538.6a10.56,10.56,0,0,0-2.68-1.94l.107-1.69c.062-.812.111-1.538.16-2.185-.624-.156-1.253-.312-1.873-.459s-1.262-.308-1.886-.468c-.254.6-.539,1.262-.861,2.02l-.682,1.578a10.439,10.439,0,0,0-2.867.415l-1.079-1.315c-.517-.633-.972-1.195-1.391-1.7-.557.317-1.119.633-1.681.95l-1.677.95c.223.611.459,1.293.745,2.06l.58,1.6a11,11,0,0,0-1.842,2.261l-1.628-.223c-.816-.116-1.529-.21-2.185-.3-.187.62-.375,1.235-.571,1.842s-.379,1.235-.566,1.85q.869.435,1.944,1l1.449.727a10.658,10.658,0,0,0,.433,3.879l-1.182,1c-.629.531-1.182,1-1.672,1.418.326.553.651,1.106.99,1.654s.651,1.11.977,1.663c.606-.232,1.293-.5,2.056-.785l1.4-.535a10.793,10.793,0,0,0,2.84,2.127l-.112,1.422c-.062.816-.111,1.538-.161,2.185.624.156,1.244.3,1.873.464s1.249.312,1.882.455c.259-.593.553-1.257.874-2l.571-1.32a10.325,10.325,0,0,0,3.135-.441l.9,1.106c.508.642.972,1.2,1.373,1.7l1.681-.95,1.681-.95c-.218-.6-.459-1.284-.736-2.056l-.491-1.373a11.181,11.181,0,0,0,1.957-2.479l1.449.187c.812.107,1.525.2,2.171.281.2-.606.383-1.226.575-1.842s.383-1.226.571-1.842c-.58-.29-1.226-.624-1.957-.99l-1.378-.687a10.533,10.533,0,0,0-.522-3.9ZM185.006,66.7a6.813,6.813,0,1,1,2.582-9.283A6.813,6.813,0,0,1,185.006,66.7Z" transform="translate(-167.447 -46.419)" fill="#00223d"/>
        <g id="Grupo_46104" data-name="Grupo 46104" transform="translate(5.859 5.975)">
          <path id="Trazado_96017" data-name="Trazado 96017" d="M178.058,64.417a8.356,8.356,0,1,1,7.362-9.243A8.369,8.369,0,0,1,178.058,64.417ZM176.332,49.2a6.96,6.96,0,1,0,7.7,6.131A6.972,6.972,0,0,0,176.332,49.2Z" transform="translate(-168.761 -47.759)" fill="#f6c343"/>
        </g>
      </g>
      <g id="Grupo_46107" data-name="Grupo 46107" transform="translate(38.512 16.601)">
        <path id="Trazado_96018" data-name="Trazado 96018" d="M200.031,61.173q1.017-.763,1.806-1.364c-.3-.593-.6-1.186-.905-1.779s-.615-1.177-.919-1.77c-.638.205-1.351.428-2.163.691l-1.627.526a10.839,10.839,0,0,0-2.644-2.167l.218-1.735c.116-.834.21-1.583.3-2.247-.638-.2-1.275-.4-1.9-.589s-1.284-.4-1.917-.6c-.3.6-.633,1.262-1.017,2.029l-.8,1.587a10.881,10.881,0,0,0-2.987.245l-1.03-1.422c-.495-.687-.927-1.293-1.324-1.842l-1.792.874q-.9.441-1.793.874c.192.647.4,1.369.642,2.176l.495,1.681a11.272,11.272,0,0,0-2.038,2.216l-1.668-.33c-.834-.169-1.561-.312-2.229-.441-.236.624-.468,1.249-.709,1.864l-.7,1.873c.58.334,1.222.722,1.944,1.15l1.445.838a11.19,11.19,0,0,0,.205,4.031l-1.28.963c-.682.5-1.28.959-1.815,1.351.3.593.606,1.186.918,1.775s.6,1.182.905,1.775c.642-.205,1.364-.437,2.171-.682l1.48-.468a11.121,11.121,0,0,0,2.8,2.377l-.2,1.458c-.116.834-.21,1.578-.3,2.243.633.205,1.266.392,1.9.593s1.275.4,1.913.589c.3-.593.651-1.262,1.026-2.007l.673-1.324a10.769,10.769,0,0,0,3.264-.259l.852,1.195c.486.691.927,1.3,1.311,1.837.6-.294,1.2-.584,1.793-.874s1.195-.584,1.792-.874c-.187-.638-.392-1.356-.629-2.171l-.424-1.445a11.475,11.475,0,0,0,2.176-2.435l1.485.285c.829.161,1.561.3,2.225.424.236-.615.468-1.24.7-1.864s.473-1.24.7-1.864c-.58-.334-1.226-.722-1.957-1.146l-1.382-.789a10.768,10.768,0,0,0-.294-4.053Zm-9.1,10a7.042,7.042,0,1,1,3.242-9.417A7.043,7.043,0,0,1,190.93,71.175Z" transform="translate(-173.335 -50.142)" fill="#00223d"/>
        <g id="Grupo_46106" data-name="Grupo 46106" transform="translate(5.883 6.052)">
          <path id="Trazado_96019" data-name="Trazado 96019" d="M183.74,68.754a8.633,8.633,0,1,1,8.169-9.074A8.64,8.64,0,0,1,183.74,68.754Zm-.834-15.8a7.191,7.191,0,1,0,7.558,6.8A7.2,7.2,0,0,0,182.906,52.952Z" transform="translate(-174.654 -51.499)" fill="#f6c343"/>
        </g>
      </g>
    </g>
    <g id="Grupo_46109" data-name="Grupo 46109" transform="translate(145.556 75.225)">
      <path id="Trazado_96020" data-name="Trazado 96020" d="M150.839,42.319c48.308,33.972,108.624,69.211,166.625,76.354,0,0,7.6,9.712-.5,40.268-8.08,30.454-17.809,35.89-17.809,35.89-54.907-20.012-124.649-16.048-183.123-7.754Z" transform="translate(-101.746 -37.136)" fill="#00223d" fill-rule="evenodd"/>
      <path id="Trazado_96021" data-name="Trazado 96021" d="M151.418,41.19l7.045,1.694c10.924,2.626,11.607,38.859,1.467,81.023-10.117,42.056-27.222,74.121-38.146,71.494l-7.041-1.694c10.92,2.626,28.029-29.438,38.142-71.494,10.14-42.163,9.457-78.4-1.467-81.023Z" transform="translate(-106.19 -41.042)" fill="#dba50e" fill-rule="evenodd"/>
      <path id="Trazado_96022" data-name="Trazado 96022" d="M120.013,112.826c10.14-42.163,27.217-74.125,38.039-71.521,10.924,2.626,11.607,38.859,1.467,81.023-10.113,42.056-27.222,74.121-38.142,71.494-10.822-2.6-11.482-38.935-1.364-81Zm4.285,1.03c8.57-35.627,22.46-62.848,30.931-60.811,8.574,2.06,8.467,32.6-.1,68.226s-22.357,62.875-30.931,60.811c-8.472-2.038-8.468-32.595.1-68.226Z" transform="translate(-112.825 -41.157)" fill="#f6c343" fill-rule="evenodd"/>
      <path id="Trazado_96023" data-name="Trazado 96023" d="M120.392,104.717c8.57-35.627,22.46-62.848,30.931-60.811,8.575,2.06,8.467,32.6-.1,68.226s-22.357,62.875-30.931,60.811c-8.472-2.038-8.468-32.595.1-68.226Z" transform="translate(-108.919 -32.017)" fill="#dba50e" fill-rule="evenodd"/>
      <path id="Trazado_96024" data-name="Trazado 96024" d="M116.66,99.045q2.689-11.183,5.377-22.357c1.815-7.553,3.607-15.009,5.422-22.562,2.979-.254,6.26-.437,9.774-.673l9.9-.754a248.781,248.781,0,0,1-5.266,28.649,255.442,255.442,0,0,1-8.432,28.319l-8.53-5.4c-3-1.908-5.712-3.638-8.245-5.221Z" transform="translate(-99.56 -1.233)" fill="#00223d" fill-rule="evenodd"/>
      <path id="Trazado_96025" data-name="Trazado 96025" d="M118.411,74.207c2.97-12.351,7.745-21.893,10.808-21.158,2.961.713,2.983,11.406.009,23.762s-7.848,21.867-10.808,21.158c-3.063-.736-2.983-11.41-.009-23.762Z" transform="translate(-101.319 -0.157)" fill="#0c2c46" fill-rule="evenodd"/>
      <path id="Trazado_96026" data-name="Trazado 96026" d="M176.6,59.449a25.522,25.522,0,0,1,2.8.455c18.072,4.347,28.546,25.01,23.463,46.141S179.063,140.815,161,136.472a30.809,30.809,0,0,1-4.214-1.338c.508.12.892.321,1.4.446,0,0,9.729-5.435,17.809-35.89,7.759-29.563.994-39.609.606-40.242Z" transform="translate(39.219 22.115)" fill="#f6c343" fill-rule="evenodd"/>
      <path id="Trazado_96027" data-name="Trazado 96027" d="M140.845,69.129,225.984,89.6c2.247.54,1.026,9.208-1.779,11.451L136.832,87.6c3.251-4.08,5.4-13.493,4.013-18.473Z" transform="translate(-29.786 55.597)" fill="#dba50e" fill-rule="evenodd"/>
      <path id="Trazado_96028" data-name="Trazado 96028" d="M157.616,74.492c2.051,18.42-11.584,65.68-16.618,78.076l38.084,6.894s17.662-58.171,10.184-80.06Z" transform="translate(-15.377 74.147)" fill="#dba50e" fill-rule="evenodd"/>
      <path id="Trazado_96029" data-name="Trazado 96029" d="M143.064,153.179l28.872,5.217s17.662-58.171,10.184-80.06l-22.8-3.536c2.475,17.55-11.107,65.038-16.257,78.379Z" transform="translate(-8.23 75.213)" fill="#f6c343" fill-rule="evenodd"/>
    </g>
    <g id="Grupo_46125" data-name="Grupo 46125" transform="translate(248.432 79.535)">
      <g id="Grupo_46121" data-name="Grupo 46121">
        <g id="Grupo_46110" data-name="Grupo 46110" transform="translate(44.415)">
          <rect id="Rectángulo_28267" data-name="Rectángulo 28267" width="1.523" height="16.776" fill="#f6c343"/>
        </g>
        <g id="Grupo_46115" data-name="Grupo 46115" transform="translate(53.362 2.784)">
          <g id="Grupo_46111" data-name="Grupo 46111" transform="translate(0 0)">
            <rect id="Rectángulo_28268" data-name="Rectángulo 28268" width="16.209" height="1.524" transform="translate(0 15.094) rotate(-68.628)" fill="#f6c343"/>
          </g>
          <g id="Grupo_46112" data-name="Grupo 46112" transform="translate(7.998 7.321)">
            <rect id="Rectángulo_28269" data-name="Rectángulo 28269" width="16.234" height="1.523" transform="translate(0 12.134) rotate(-48.371)" fill="#f6c343"/>
          </g>
          <g id="Grupo_46113" data-name="Grupo 46113" transform="translate(14.566 19.272)">
            <rect id="Rectángulo_28270" data-name="Rectángulo 28270" width="15.211" height="1.522" transform="translate(0 6.185) rotate(-23.99)" fill="#f6c343"/>
          </g>
          <g id="Grupo_46114" data-name="Grupo 46114" transform="translate(21.12 34.449)">
            <rect id="Rectángulo_28271" data-name="Rectángulo 28271" width="1.523" height="14.049" transform="matrix(0.066, -0.998, 0.998, 0.066, 0, 1.519)" fill="#f9c61e"/>
          </g>
        </g>
        <g id="Grupo_46120" data-name="Grupo 46120" transform="translate(0 1.79)">
          <g id="Grupo_46116" data-name="Grupo 46116" transform="translate(29.451 0)">
            <rect id="Rectángulo_28272" data-name="Rectángulo 28272" width="1.524" height="16.156" transform="translate(0 0.523) rotate(-20.06)" fill="#f6c343"/>
          </g>
          <g id="Grupo_46117" data-name="Grupo 46117" transform="translate(14.695 6.078)">
            <rect id="Rectángulo_28273" data-name="Rectángulo 28273" width="1.522" height="18.415" transform="translate(0 1.041) rotate(-43.167)" fill="#f6c343"/>
          </g>
          <g id="Grupo_46118" data-name="Grupo 46118" transform="translate(5.626 18.571)">
            <rect id="Rectángulo_28274" data-name="Rectángulo 28274" width="1.522" height="17.087" transform="translate(0 1.39) rotate(-65.975)" fill="#f6c343"/>
          </g>
          <g id="Grupo_46119" data-name="Grupo 46119" transform="translate(0 34.513)">
            <path id="Trazado_96030" data-name="Trazado 96030" d="M135.988,52.716l-.092-1.521,15.2-.93.091,1.521Z" transform="translate(-135.897 -50.265)" fill="#f6c343"/>
          </g>
        </g>
      </g>
      <g id="Grupo_46124" data-name="Grupo 46124" transform="translate(16.325 19.687)">
        <path id="Trazado_96031" data-name="Trazado 96031" d="M162.87,65.98c-1.641,3.059-5.364,5.114-9.694,5.07-4.4-.045-8.08-2.176-9.587-5.266Z" transform="translate(-125.612 20.03)" fill="url(#linear-gradient-3)"/>
        <path id="Trazado_96032" data-name="Trazado 96032" d="M181.989,118.561s-.66-3.986.544-12.217,20-22.5,11-44.455c-8.316-20.346-41.776-20.408-51.2-.526-9.707,20.368,9.06,36.416,10.091,44.669s.294,12.231.294,12.231Z" transform="translate(-139.558 -46.539)" fill="#f6c343"/>
        <path id="Trazado_96033" data-name="Trazado 96033" d="M142.945,62.627l26.125.268-.12,11.317a2.726,2.726,0,0,1-2.751,2.7l-20.676-.214a2.679,2.679,0,0,1-2.693-2.751Z" transform="translate(-128.244 9.11)" fill="url(#linear-gradient-3)"/>
        <path id="Trazado_96034" data-name="Trazado 96034" d="M144.071,63l25.982.268a1.436,1.436,0,0,1,1.454,1.485h0a1.492,1.492,0,0,1-1.485,1.52l-25.982-.268a1.549,1.549,0,0,1-1.52-1.552h0A1.5,1.5,0,0,1,144.071,63Z" transform="translate(-129.316 10.41)" fill="#00223d"/>
        <path id="Trazado_96035" data-name="Trazado 96035" d="M144.06,64.006l25.987.268a1.429,1.429,0,0,1,1.449,1.48h0a1.489,1.489,0,0,1-1.48,1.52l-25.987-.263a1.553,1.553,0,0,1-1.52-1.556h0a1.49,1.49,0,0,1,1.552-1.449Z" transform="translate(-129.354 13.88)" fill="#00223d"/>
        <path id="Trazado_96036" data-name="Trazado 96036" d="M144.051,64.946l25.982.268a1.476,1.476,0,0,1,1.454,1.48h0A1.492,1.492,0,0,1,170,68.214l-25.982-.268A1.546,1.546,0,0,1,142.5,66.4h0a1.538,1.538,0,0,1,1.552-1.449Z" transform="translate(-129.385 17.131)" fill="#00223d"/>
        <path id="Trazado_96037" data-name="Trazado 96037" d="M166.462,58.921a5.062,5.062,0,0,0-5.805-3.38c-2.354.317-4.044,1.775-4.107,3.518-.04.709-.076,2.7-.111,5.337l-.834-.009-1.324-.013-.794-.009c.022-2.631.036-4.624.027-5.333-.067-1.788-1.784-3.273-4.165-3.621a5.063,5.063,0,0,0-5.81,3.277,5.939,5.939,0,0,0,3.371,7.38l4.713.125c-.085,8.557-.254,21.523-.254,21.706l1.846.022c.013-.745.174-13.314.254-21.71l.789.009,1.329.013.829.009c-.094,8.4-.156,20.97-.16,21.715l1.846.009c0-.183.067-13.145.165-21.7l4.3.04.37-.071A5.948,5.948,0,0,0,166.462,58.921ZM147.5,64.3a4.087,4.087,0,0,1-2.212-5.03,3.247,3.247,0,0,1,3.794-2.029c1.413.2,2.546,1.017,2.577,1.833.009.687,0,2.657-.022,5.27Zm14.879.152-4.093-.04c.031-2.608.071-4.579.112-5.27.027-.82,1.1-1.583,2.5-1.77a3.227,3.227,0,0,1,3.8,2.1A4.064,4.064,0,0,1,162.382,64.455Z" transform="translate(-126.974 -16.065)" fill="#00223d"/>
        <g id="Grupo_46122" data-name="Grupo 46122" transform="translate(49.476 22.974)">
          <path id="Trazado_96038" data-name="Trazado 96038" d="M153.008,58.067l-2.354-.731a20.691,20.691,0,0,0,.718-5.627l2.466-.018A22.943,22.943,0,0,1,153.008,58.067Z" transform="translate(-150.654 -51.691)" fill="#f9eff4"/>
        </g>
        <g id="Grupo_46123" data-name="Grupo 46123" transform="translate(37.905 4.532)">
          <path id="Trazado_96039" data-name="Trazado 96039" d="M159.5,60.588a14.314,14.314,0,0,0-1.008-2.328c-3.349-6.149-10.358-8.325-10.429-8.347l.713-2.359c.326.1,8.053,2.5,11.879,9.524a16.575,16.575,0,0,1,1.182,2.729Z" transform="translate(-148.059 -47.555)" fill="#f9eff4"/>
        </g>
      </g>
    </g>
    <g id="Grupo_46126" data-name="Grupo 46126" transform="translate(301.923 191.157)">
      <path id="Trazado_96040" data-name="Trazado 96040" d="M162.629,78.412l-.566,72.368-5.195.125s-3.286-18.429-3.286-26.767a38.859,38.859,0,0,1,2.091-13.479l-3.728-27.882s1.2-1.623,2.305-3.2c.134-.009.268-.013.4-.027a77.695,77.695,0,0,0,7.982-1.141Z" transform="translate(-133.878 -28.227)" fill="#7d6eb2" fill-rule="evenodd"/>
      <path id="Trazado_96041" data-name="Trazado 96041" d="M171.683,79.089,164.616,90,154.008,151l-5.186.125c-.317-7.415-1.333-35.81,5.542-40.594l-.045-4.512h0c-.339-6.7-.7-18.839.678-25.015l2.274-2.653a19.553,19.553,0,0,0,9.016,1.422c2.194-.218,4.04-.468,5.4-.682Z" transform="translate(-145.519 -28.445)" fill="#7d6eb2" fill-rule="evenodd"/>
      <path id="Trazado_96042" data-name="Trazado 96042" d="M164.971,100.626l-9.783-.009-2.345-.99-.223,1h-3.683l-.3-5.859,5.186-.125s7.085,3.852,9.658,3.732,1.494,2.252,1.494,2.252Z" transform="translate(-145.331 27.912)" fill="#00223d" fill-rule="evenodd"/>
      <path id="Trazado_96043" data-name="Trazado 96043" d="M169.4,100.626l-9.778-.009-2.354-.99-.214,1h-3.683l-.317-5.859,5.195-.125s7.09,3.852,9.658,3.732,1.494,2.252,1.494,2.252Z" transform="translate(-130.06 27.912)" fill="#00223d" fill-rule="evenodd"/>
      <path id="Trazado_96044" data-name="Trazado 96044" d="M200.4,73.778l-12.418,9.7a3.392,3.392,0,0,1-3.875.21l-7.13-4.41-1.788-.513v0l-5.4-1.552-.968-.99h-2.555l-.856.887-5.1,1.462a9.071,9.071,0,0,0-1.159,1.284l2.493-7.023-2.729-2.943L148.124,93.429a2.5,2.5,0,0,0,2.537,3.527L157.2,92.7l-.21,19.65c6.354,4.084,16.164,2.461,19.619-.031q.568-11.945,1.15-23.877l7.232,3.09a3.4,3.4,0,0,0,3.688-.678l13.939-13.435Z" transform="translate(-147.893 -57.704)" fill-rule="evenodd" fill="url(#linear-gradient-3)"/>
      <path id="Trazado_96045" data-name="Trazado 96045" d="M151.634,69.411c.736-.259,1.668.464,2.082,1.627s.152,2.319-.589,2.582-1.668-.464-2.078-1.628-.156-2.319.584-2.582Z" transform="translate(-137.665 -59.543)" fill="#fc9" stroke="#ff0" stroke-miterlimit="10" stroke-width="0.198" fill-rule="evenodd"/>
      <path id="Trazado_96046" data-name="Trazado 96046" d="M150.438,69.359l.482-.285a.326.326,0,0,1,.437.12l3.759,6.39a.324.324,0,0,1-.111.441l-.482.276a.319.319,0,0,1-.437-.111l-3.759-6.39a.324.324,0,0,1,.111-.441Z" transform="translate(-139.63 -60.664)" fill-rule="evenodd"/>
      <path id="Trazado_96047" data-name="Trazado 96047" d="M155.025,69.271c.776.112,1.266,1.186,1.1,2.408s-.932,2.122-1.712,2.02-1.266-1.182-1.1-2.4.932-2.127,1.712-2.024Z" transform="translate(-129.258 -59.871)" fill="#ffb699" fill-rule="evenodd"/>
      <path id="Trazado_96048" data-name="Trazado 96048" d="M159.651,73.721a8.549,8.549,0,0,1,1.9-2.439,7.348,7.348,0,0,1,3.536-1.3.861.861,0,0,1-.192.963,5.167,5.167,0,0,1-1.587.954,3.894,3.894,0,0,0,2.015-.37c1.507-.535,3.144-1.792,3.705-.954s-.076,2.778-1.9,4a37.541,37.541,0,0,1-5.181,2.542Z" transform="translate(-107.224 -57.392)" fill="#ffb699" fill-rule="evenodd"/>
      <path id="Trazado_96049" data-name="Trazado 96049" d="M151.68,70.411h5.627v5.208a2.816,2.816,0,0,1-2.814,2.814h0a2.819,2.819,0,0,1-2.814-2.814Z" transform="translate(-134.795 -55.901)" fill="#f49e7f" fill-rule="evenodd"/>
      <path id="Trazado_96050" data-name="Trazado 96050" d="M157.187,83.944c3.411,0,6.193-3.732,6.193-8.3s-2.782-8.3-6.193-8.3-6.193,3.723-6.193,8.3,2.778,8.3,6.193,8.3Z" transform="translate(-137.168 -66.496)" fill="#ffb699" fill-rule="evenodd"/>
      <path id="Trazado_96051" data-name="Trazado 96051" d="M153.426,73.23a13.236,13.236,0,0,0,5.953,1.222,9.382,9.382,0,0,0,6.7-2.97s-2.675-3.933-6.916-4.3-7.058,3.933-7.058,3.933a2,2,0,0,0-1.32,2.056c-.058,1.752,1.6,5.4,1.6,5.4l.334-2.854a3.544,3.544,0,0,0,.887-1.195,2.72,2.72,0,0,0-.178-1.289Z" transform="translate(-137.906 -67.157)" fill-rule="evenodd" fill="url(#linear-gradient-3)"/>
      <path id="Trazado_96052" data-name="Trazado 96052" d="M153.707,70.162s-.147.085-.433.21c.16-.433.433-.21.433-.21Zm1.315-2.118a2,2,0,0,1,1.324,2.056c.062,1.752-1.6,5.4-1.6,5.4l-.334-2.854a3.663,3.663,0,0,1-.892-1.195,2.743,2.743,0,0,1,.187-1.289Z" transform="translate(-129.281 -64.089)" fill-rule="evenodd" fill="url(#linear-gradient-3)"/>
      <path id="Trazado_96053" data-name="Trazado 96053" d="M150.209,76.073a7.128,7.128,0,0,0,.7-2.256c-.1-1.11.058-4.062,1.471-4.53,1.445-.482,3.335,2.992,1.971,3.835-.018-.018-.392-.709-.455-.638-.049-.031-.089.062-.062.473a4.1,4.1,0,0,1-.535,2.707,7.63,7.63,0,0,1-1.5,1.226Z" transform="translate(-139.883 -59.949)" fill="#ffb699" fill-rule="evenodd"/>
    </g>
    <g id="Grupo_46127" data-name="Grupo 46127" transform="translate(354.349 188.696)">
      <path id="Trazado_96054" data-name="Trazado 96054" d="M169.158,76.747a8.52,8.52,0,0,0-1.882-2.417,7.29,7.29,0,0,0-3.518-1.293.863.863,0,0,0,.2.954,5.114,5.114,0,0,0,1.574.941,3.725,3.725,0,0,1-2-.361c-1.5-.531-3.117-1.775-3.683-.945s.08,2.756,1.886,3.964a36.731,36.731,0,0,0,5.141,2.524Z" transform="translate(-159.651 -44.357)" fill="#ffbd99" fill-rule="evenodd"/>
      <path id="Trazado_96055" data-name="Trazado 96055" d="M166.6,78.559l.562,71.855,5.155.125s2.345-19.485,2.345-27.77-1.654-12.374-1.654-12.374l4.2-27.5s-1.186-1.61-2.287-3.166c-.129-.013-.263-.022-.392-.036a76.9,76.9,0,0,1-7.923-1.133Z" transform="translate(-135.6 -25.257)" fill="#00223d" fill-rule="evenodd"/>
      <path id="Trazado_96056" data-name="Trazado 96056" d="M167.181,79.228l7.009,10.84,10.532,60.561,5.159.125s.99-23.516-1.445-32.019-3.754-9.506-3.754-9.506,1.012-19.352-.941-28.091l-2.261-2.64a19.407,19.407,0,0,1-8.949,1.409c-2.18-.214-4-.464-5.351-.678Z" transform="translate(-133.604 -25.472)" fill="#00223d" fill-rule="evenodd"/>
      <path id="Trazado_96057" data-name="Trazado 96057" d="M195.168,70.688l7.446,2.073a6.994,6.994,0,0,1,4.7,4.339l6.8,18.5a4.912,4.912,0,0,1-.977,4.994l-7.665,8.45-3.037-3.531s-5.658,6.189-10.5,5.721-6.376-1.65-6.376-1.65l-1.079-18.9-2.145,4.044A4.6,4.6,0,0,1,176,96.581l-14.875-8.392,2.372-4.3,10.416,5.163a2.978,2.978,0,0,0,4.107-1.623l3.3-8.838a7.009,7.009,0,0,1,3.179-3.687l6.051-3.344Zm8.677,15.187,3.621,8.789a4.9,4.9,0,0,1-.9,5.163l-2.617,2.894Z" transform="translate(-154.555 -52.482)" fill="#26aab7" fill-rule="evenodd"/>
      <path id="Trazado_96058" data-name="Trazado 96058" d="M171.853,78.536c-.348.232-.789.535-1.057.736-.486.361-.789.6-.789.6a5.044,5.044,0,0,0,2.626,3.322,13.06,13.06,0,0,0,1.654-1.824Z" transform="translate(-123.83 -25.337)" fill="#ffbd99" fill-rule="evenodd"/>
      <path id="Trazado_96059" data-name="Trazado 96059" d="M173.287,69.834h-5.565v4.677a2.793,2.793,0,0,0,2.787,2.782h0a2.791,2.791,0,0,0,2.778-2.782Z" transform="translate(-131.733 -55.436)" fill="#eda27c" fill-rule="evenodd"/>
      <path id="Trazado_96060" data-name="Trazado 96060" d="M172.271,66.954c-3.233.116-5.73,3.549-5.569,7.665s.959,7.964,5.792,8.28,6.055-4.6,5.9-8.717-2.9-7.353-6.127-7.228Z" transform="translate(-135.288 -65.411)" fill="#ffbd99" fill-rule="evenodd"/>
      <path id="Trazado_96061" data-name="Trazado 96061" d="M181.046,69.7a3.611,3.611,0,0,0-2.952-3.005c-2.64-.473-12.338,1.088-12.338,1.088s1.467,5.226,5.03,5.895a22.736,22.736,0,0,0,8.031-.419,11.5,11.5,0,0,0,.419,4.084A11.6,11.6,0,0,0,181,80.2s2.484-3.933,1.984-7.1-1.935-3.407-1.935-3.407Z" transform="translate(-138.533 -66.605)" fill="#00223d" fill-rule="evenodd"/>
      <path id="Trazado_96062" data-name="Trazado 96062" d="M168.777,100.844l9.778-.009,2.345-.99.223,1h3.683l.312-5.855-5.19-.125s-7.085,3.848-9.654,3.728-1.5,2.252-1.5,2.252Z" transform="translate(-128.842 31.144)" fill="#26aab7" fill-rule="evenodd"/>
      <path id="Trazado_96063" data-name="Trazado 96063" d="M164.419,100.609l9.7,0,2.337-.981.214.985h3.661l.308-5.81-5.155-.125S168.45,98.5,165.9,98.379s-1.485,2.229-1.485,2.229Z" transform="translate(-143.921 30.483)" fill="#26aab7" fill-rule="evenodd"/>
    </g>
    <path id="Trazado_96064" data-name="Trazado 96064" d="M169.706,72.617c-1.873,5.079-3.745,10.055-5.578,15.062-2.185-1.645-4.365-3.224-6.514-4.8s-4.289-3.157-6.394-4.7c1.793-4.94,3.589-9.885,5.422-14.893-.468-.312-.9-.655-1.364-.963q-13.691,37.528-26.8,73.331-12.808,35.107-25.117,68.667c.428.379.82.754,1.208,1.133q1.812-4.943,3.63-9.885c1.908,1.752,3.821,3.536,5.77,5.288,1.913,1.784,3.861,3.6,5.814,5.386-1.248,3.362-2.5,6.693-3.705,9.983.388.379.816.789,1.249,1.168q12.695-33.97,25.973-69.456,13.631-36.284,27.85-74.29c-.468-.343-.936-.687-1.445-1.03ZM120.565,204.181c-1.953-1.784-3.9-3.6-5.85-5.351-1.913-1.788-3.861-3.572-5.774-5.319q1.465-3.913,2.925-7.928c1.913,1.752,3.861,3.5,5.81,5.284,1.953,1.752,3.9,3.536,5.89,5.32-1.012,2.675-1.989,5.355-3,7.995Zm3.781-10.055c-1.989-1.784-3.937-3.567-5.926-5.351-1.913-1.752-3.861-3.5-5.814-5.253.977-2.64,1.953-5.319,2.925-7.995,1.953,1.752,3.9,3.465,5.89,5.217,1.949,1.748,3.942,3.536,5.93,5.284-1.017,2.711-2.029,5.386-3.005,8.1Zm3.786-10.189c-1.993-1.788-3.982-3.536-5.93-5.288-1.989-1.748-3.937-3.465-5.89-5.212.977-2.68,1.953-5.355,2.965-8.066,1.949,1.681,3.937,3.433,5.93,5.146,1.989,1.752,3.977,3.469,6.006,5.253-1.057,2.711-2.069,5.458-3.081,8.169Zm3.861-10.3c-2.029-1.752-4.017-3.5-6.011-5.217s-3.977-3.465-5.966-5.146c1.017-2.711,1.989-5.458,3.005-8.169,1.989,1.681,3.977,3.4,5.966,5.114,2.029,1.717,4.058,3.465,6.086,5.181-1.057,2.778-2.069,5.525-3.081,8.236Zm3.861-10.363c-2.029-1.752-4.058-3.469-6.046-5.186-2.029-1.712-4.017-3.429-6.006-5.11,1.012-2.711,2.029-5.489,3-8.236,2.029,1.681,4.017,3.362,6.046,5.043,2.029,1.717,4.058,3.433,6.122,5.15-1.052,2.778-2.064,5.556-3.117,8.338Zm3.937-10.5c-2.069-1.717-4.133-3.433-6.162-5.114s-4.017-3.362-6.046-5.079c1.017-2.747,2.029-5.489,3.081-8.3,1.989,1.681,4.017,3.326,6.086,5.007,2.029,1.717,4.093,3.4,6.162,5.114-1.052,2.814-2.109,5.591-3.121,8.374Zm3.937-10.572c-2.064-1.712-4.133-3.4-6.2-5.079-2.029-1.681-4.058-3.326-6.086-5.007,1.017-2.782,2.029-5.6,3.081-8.41,2.029,1.65,4.1,3.3,6.122,4.976,2.069,1.65,4.174,3.331,6.242,5.012-1.052,2.849-2.1,5.694-3.161,8.508ZM147.71,131.5c-2.069-1.681-4.174-3.326-6.242-5.007-2.064-1.65-4.093-3.3-6.162-4.945,1.052-2.814,2.069-5.658,3.121-8.476,2.064,1.614,4.133,3.264,6.2,4.874,2.1,1.65,4.209,3.331,6.318,4.976-1.092,2.885-2.145,5.765-3.237,8.579Zm4.053-10.773c-2.1-1.681-4.209-3.331-6.318-4.976s-4.174-3.26-6.2-4.874c1.012-2.849,2.064-5.7,3.117-8.579,2.069,1.614,4.174,3.224,6.283,4.838,2.1,1.65,4.209,3.3,6.354,4.94-1.088,2.885-2.18,5.765-3.237,8.65Zm4.058-10.915c-2.1-1.645-4.249-3.291-6.358-4.9s-4.209-3.228-6.278-4.838q1.578-4.327,3.161-8.65c2.1,1.578,4.209,3.193,6.318,4.807l6.434,4.838-3.277,8.748ZM159.955,98.8q-3.217-2.421-6.434-4.838c-2.145-1.614-4.249-3.193-6.358-4.771,1.052-2.916,2.145-5.832,3.2-8.748,2.145,1.578,4.249,3.121,6.394,4.7,2.145,1.614,4.33,3.224,6.514,4.838-1.133,2.952-2.225,5.9-3.317,8.82Z" transform="translate(0 107.273)" fill="#00223d" fill-rule="evenodd"/>
    <path id="Trazado_96065" data-name="Trazado 96065" d="M112.168,74.212,113.72,76.8l2.372,2.274s4.744-.455,5.9.25a2.577,2.577,0,0,1,.914,2.4h-9.337l-.7-1.217.062,1.217h-2.956l-.2-4.753Z" transform="translate(22.192 148.403)" fill="#00223d" fill-rule="evenodd"/>
    <path id="Trazado_96066" data-name="Trazado 96066" d="M117.676,93.039l-.914,28.292-4.2.116s-2.109-13.631-2.047-19.173a20.585,20.585,0,0,1,2.292-9.35L109,61.479c.584,3.745,9.752,9.011,9.752,9.011Z" transform="translate(19.498 104.361)" fill="#9fbfed" fill-rule="evenodd"/>
    <path id="Trazado_96067" data-name="Trazado 96067" d="M116.3,60.261a7.385,7.385,0,0,1,.276-2.662,6.35,6.35,0,0,1,1.989-2.55.751.751,0,0,1,.312.776,4.891,4.891,0,0,1-.713,1.418s.437-.107,1.284-1.186c.874-1.1,1.489-2.747,2.292-2.4.771.361,1.208,2.069.424,3.781a32.587,32.587,0,0,1-2.613,4.254Z" transform="translate(44.681 77.131)" fill="#ffb699" fill-rule="evenodd"/>
    <path id="Trazado_96068" data-name="Trazado 96068" d="M115.867,68.1l1.556,2.586,2.363,2.274s4.744-.459,5.908.25a2.563,2.563,0,0,1,.905,2.4h-9.337l-.7-1.217.062,1.217h-2.943l-.2-4.753Z" transform="translate(35.001 127.269)" fill="#00223d" fill-rule="evenodd"/>
    <path id="Trazado_96069" data-name="Trazado 96069" d="M110.371,58.8h5.288l-.143-5.324a11.976,11.976,0,0,1-2.965,1.2c-.651-.04-2.18-1.538-2.18-1.538Z" transform="translate(24.244 75.524)" fill="#f4a57d" fill-rule="evenodd"/>
    <path id="Trazado_96070" data-name="Trazado 96070" d="M115.985,54.088s.428.553,2.515.7,2.773-.629,2.773-.629l3.206.847a8.335,8.335,0,0,1,5.19,4.1l4.267,7.955a.806.806,0,0,0,1.373.076l7.045-8.543,3.251,1.427L137.9,73.145a3.917,3.917,0,0,1-6.5.254l-3.705-5.056-.1,18.228c-4.04,2.452-13.876,2.452-17.764,0L108.757,63a7.892,7.892,0,0,1,4.258-7.375Z" transform="translate(18.63 78.796)" fill="#00223d" fill-rule="evenodd"/>
    <path id="Trazado_96071" data-name="Trazado 96071" d="M126.756,61.373l18.634,6.042a3.13,3.13,0,0,1,1.663,4.668l-14.1,21.88-3.942.548s1.891-8.557,4.548-14.193a20.919,20.919,0,0,1,6.394-7.776l-18.977.009a8.956,8.956,0,0,1-6.488-2.742c-2.426-2.537-5.547-6.238-5.5-8.436,3.888,2.452,13.725,2.452,17.764,0Z" transform="translate(19.47 103.994)" fill="#b9d2fc" fill-rule="evenodd"/>
    <path id="Trazado_96072" data-name="Trazado 96072" d="M115.132,64.636c2.938,0,5.328-3.1,5.328-6.911s-2.39-6.916-5.328-6.916-5.319,3.1-5.319,6.916,2.394,6.911,5.319,6.911Z" transform="translate(22.31 67.454)" fill="#ffbd99" fill-rule="evenodd"/>
    <path id="Trazado_96073" data-name="Trazado 96073" d="M113.963,50.562h9.194a.48.48,0,0,1,.482.482V53.05a2.5,2.5,0,0,1-2.5,2.5h-2.31l-.245.682a1.347,1.347,0,0,0,.259,1.351l.464.513-.615.727a1.652,1.652,0,0,0-.37.794l-.281,1.529s-.4-1.931-1.271-1.538-.178,2.631.45,2.818a.568.568,0,0,0,.776-.357,10.339,10.339,0,0,0-.812,2.68c-.08,1.556-4.477,1.351-4.477-.254,0,0-3.96-3.393-2.8-8.111a4.876,4.876,0,0,1,1.57-2.863V53.05a2.5,2.5,0,0,1,2.488-2.488Z" transform="translate(21.904 66.6)" fill="#00223d" fill-rule="evenodd"/>
    <g id="Grupo_46128" data-name="Grupo 46128" transform="translate(150.202 213.279)">
      <path id="Trazado_96074" data-name="Trazado 96074" d="M153.34,94.2c14.42,0,26.678,1.409,31.061,3.4,1.035-.482,1.614-.959,1.743-1.462h0v3.077c0,2.747-14.7,5.016-32.8,5.016s-32.8-2.27-32.8-5.016l.027-3.255c0,.58.6,1.11,1.712,1.614,4.414-1.966,16.641-3.375,31.065-3.375Z" transform="translate(-90.799 4.257)" fill="#f9c61e" fill-rule="evenodd"/>
      <path id="Trazado_96075" data-name="Trazado 96075" d="M153.32,93.469c18.13,0,32.8,2.27,32.8,5.016,0,2.773-14.674,5.021-32.8,5.021-18.1,0-32.777-2.247-32.777-5.021,0-2.747,14.674-5.016,32.777-5.016Z" transform="translate(-90.778 1.732)" fill="#dba50e" fill-rule="evenodd"/>
      <path id="Trazado_96076" data-name="Trazado 96076" d="M134.829,101.062c-.125-.455-.223-.905-.326-1.311a41.161,41.161,0,0,1-4.816-.352,10.054,10.054,0,0,1-2.876-.807c-.7-.352-.981-.731-.905-1.186,1.133-.049,2.243-.1,3.353-.152a1.936,1.936,0,0,0,1.284,1.012,13.038,13.038,0,0,0,3.705.553c-.125-.5-.25-.981-.352-1.413-.1-.4-.2-.78-.3-1.133-1.208-.076-2.444-.178-3.656-.33a7.634,7.634,0,0,1-1.966-.428c-.4-.174-.553-.352-.477-.553.152-.33.856-.58,2.091-.78.406-.054.883-.1,1.463-.129.557-.049,1.213-.076,1.966-.076a.511.511,0,0,1-.049-.174h1.284c.027.049.054.125.076.174.655,0,1.262.027,1.792.076.531.027,1.035.076,1.463.129a7.05,7.05,0,0,1,2.47.651c-.807.027-1.641.054-2.47.076a3.122,3.122,0,0,0-1.186-.428,16.455,16.455,0,0,0-1.917-.174c.1.2.178.428.281.655s.223.477.352.758c1.409.071,2.368.125,2.849.174a23.147,23.147,0,0,1,2.394.3,12.359,12.359,0,0,1,1.815.455,3.643,3.643,0,0,1,1.186.655c.655.553.477,1.084-.633,1.561a8.667,8.667,0,0,1-2.341.58,27.793,27.793,0,0,1-3.558.281c.178.4.379.856.58,1.311-.856,0-1.712.022-2.573.022Zm-1.739-6.755a14.143,14.143,0,0,0-2.167.2c-.531.1-.834.254-.856.4,0,.178.227.33.731.455a16.993,16.993,0,0,0,2.644.281c-.076-.254-.125-.508-.2-.736l-.152-.6Zm3.353,4.512a9.227,9.227,0,0,0,3.152-.531c.682-.25.856-.58.557-.932a2.457,2.457,0,0,0-1.364-.629,24.169,24.169,0,0,0-3.4-.379c.125.352.3.7.455,1.11.174.4.375.856.6,1.36Z" transform="translate(-72.265 2.888)" fill="#fdce2f"/>
      <path id="Trazado_96077" data-name="Trazado 96077" d="M153.082,92.536c14.425,0,26.678,1.413,31.065,3.4,1.008-.45,1.614-.954,1.717-1.463h0l.022,3.077c0,2.773-14.7,5.021-32.8,5.021-18.125,0-32.8-2.247-32.8-5.021V94.329c0,.553.6,1.106,1.739,1.61,4.388-1.989,16.641-3.4,31.061-3.4Z" transform="translate(-91.677 -1.495)" fill="#f9c61e" fill-rule="evenodd"/>
      <path id="Trazado_96078" data-name="Trazado 96078" d="M153.082,91.812c18.13,0,32.8,2.247,32.8,5.021s-14.674,5.016-32.8,5.016c-18.1,0-32.8-2.243-32.8-5.016s14.7-5.021,32.8-5.021Z" transform="translate(-91.677 -3.999)" fill="#dba50e" fill-rule="evenodd"/>
      <path id="Trazado_96079" data-name="Trazado 96079" d="M134.578,99.4c-.125-.455-.227-.883-.352-1.289-1.966-.076-3.581-.2-4.816-.375a9,9,0,0,1-2.876-.807c-.682-.33-.959-.731-.883-1.164,1.11-.071,2.247-.125,3.331-.174a2.073,2.073,0,0,0,1.311,1.008,12.516,12.516,0,0,0,3.705.58c-.125-.531-.254-1.008-.379-1.436-.1-.406-.2-.785-.276-1.137-1.213-.076-2.448-.174-3.683-.326a7.383,7.383,0,0,1-1.94-.406c-.428-.174-.58-.375-.482-.58.129-.325.834-.58,2.069-.754.406-.076.91-.1,1.463-.152.58-.027,1.235-.054,1.966-.076a.569.569,0,0,0-.049-.178H134a1.433,1.433,0,0,0,.076.178c.655.022,1.235.049,1.788.076.531.022,1.012.076,1.44.125a7.293,7.293,0,0,1,2.5.655c-.834.027-1.641.049-2.475.076a3.033,3.033,0,0,0-1.208-.4,11.731,11.731,0,0,0-1.891-.178c.076.2.174.4.276.629.1.254.2.5.33.758,1.436.076,2.394.152,2.872.178a24.092,24.092,0,0,1,2.394.3,13.046,13.046,0,0,1,1.792.455,3.819,3.819,0,0,1,1.208.655c.655.58.482,1.11-.629,1.565a10.225,10.225,0,0,1-2.345.606,28.236,28.236,0,0,1-3.554.25c.174.428.352.856.553,1.311-.856.027-1.69.027-2.546.027Zm-1.739-6.76a13.942,13.942,0,0,0-2.167.205c-.557.125-.834.25-.861.428-.022.152.2.3.709.428a14.683,14.683,0,0,0,2.644.276c-.049-.254-.125-.477-.174-.7s-.1-.428-.152-.633Zm3.326,4.512a10.005,10.005,0,0,0,3.179-.5c.656-.276.829-.58.553-.932a2.437,2.437,0,0,0-1.36-.655,21.579,21.579,0,0,0-3.429-.352c.152.325.3.7.477,1.084.178.428.379.883.58,1.36Z" transform="translate(-73.147 -2.865)" fill="#fdce2f"/>
      <path id="Trazado_96080" data-name="Trazado 96080" d="M150.671,91.315c14.42,0,26.673,1.409,31.061,3.4,1.012-.455,1.614-.959,1.717-1.463h.027v3.077c0,2.773-14.7,5.016-32.8,5.016-18.13,0-32.8-2.243-32.8-5.016V93.1c0,.557.629,1.11,1.739,1.614,4.414-1.993,16.641-3.4,31.065-3.4Z" transform="translate(-100.031 -5.718)" fill="#f9c61e" fill-rule="evenodd"/>
      <path id="Trazado_96081" data-name="Trazado 96081" d="M150.671,90.591c18.13,0,32.8,2.243,32.8,5.016s-14.674,5.016-32.8,5.016c-18.1,0-32.8-2.243-32.8-5.016s14.7-5.016,32.8-5.016Z" transform="translate(-100.031 -8.222)" fill="#dba50e" fill-rule="evenodd"/>
      <path id="Trazado_96082" data-name="Trazado 96082" d="M132.16,98.178c-.125-.45-.223-.883-.325-1.284a46.854,46.854,0,0,1-4.816-.379,8.688,8.688,0,0,1-2.876-.807c-.7-.325-.981-.731-.905-1.159,1.133-.076,2.243-.125,3.326-.178a2.063,2.063,0,0,0,1.311,1.012,12.816,12.816,0,0,0,3.705.58c-.125-.531-.25-1.008-.352-1.44-.1-.4-.2-.78-.3-1.133-1.208-.076-2.444-.178-3.656-.33a7.53,7.53,0,0,1-1.966-.4c-.4-.178-.553-.379-.477-.58.125-.33.856-.58,2.091-.758.379-.076.883-.1,1.44-.152.58-.022,1.235-.049,1.966-.076,0-.049-.027-.1-.027-.174h1.284a1.813,1.813,0,0,0,.076.174l1.792.076c.531.027,1.034.076,1.463.129a7.448,7.448,0,0,1,2.47.655c-.807.022-1.641.049-2.47.076a3.066,3.066,0,0,0-1.186-.406,12.124,12.124,0,0,0-1.917-.174c.076.2.178.4.276.629.1.254.227.5.33.758,1.436.071,2.394.147,2.876.174a23.139,23.139,0,0,1,2.394.3,11.158,11.158,0,0,1,1.788.455,3.761,3.761,0,0,1,1.213.655c.655.58.477,1.11-.633,1.561a9.653,9.653,0,0,1-2.345.606,28.092,28.092,0,0,1-3.554.254c.178.428.352.856.58,1.311-.856.022-1.712.022-2.573.022Zm-1.739-6.755a14.741,14.741,0,0,0-2.167.2c-.553.125-.834.254-.856.428-.027.152.227.3.7.428a15.277,15.277,0,0,0,2.671.281c-.076-.254-.125-.482-.2-.709-.049-.227-.1-.428-.152-.629Zm3.353,4.512a10.062,10.062,0,0,0,3.152-.5c.682-.276.834-.58.557-.932a2.453,2.453,0,0,0-1.364-.655,21.522,21.522,0,0,0-3.429-.352c.152.326.3.7.482,1.084.174.428.375.883.6,1.36Z" transform="translate(-81.497 -7.088)" fill="#fdce2f"/>
      <path id="Trazado_96083" data-name="Trazado 96083" d="M154.041,90.24c14.425,0,26.678,1.413,31.065,3.407,1.03-.482,1.614-.959,1.739-1.462h0v3.072c0,2.773-14.7,5.021-32.8,5.021-18.13,0-32.8-2.247-32.8-5.021V92.006c0,.58.633,1.11,1.739,1.614,4.414-1.966,16.641-3.38,31.065-3.38Z" transform="translate(-88.374 -9.437)" fill="#f9c61e" fill-rule="evenodd"/>
      <path id="Trazado_96084" data-name="Trazado 96084" d="M154.041,89.516c18.13,0,32.8,2.247,32.8,4.994,0,2.773-14.674,5.016-32.8,5.016-18.1,0-32.8-2.243-32.8-5.016,0-2.747,14.7-4.994,32.8-4.994Z" transform="translate(-88.374 -11.941)" fill="#dba50e" fill-rule="evenodd"/>
      <path id="Trazado_96085" data-name="Trazado 96085" d="M135.534,97.108c-.129-.455-.227-.91-.33-1.311a42.251,42.251,0,0,1-4.816-.352,10.2,10.2,0,0,1-2.876-.807c-.7-.352-.981-.731-.905-1.186,1.133-.049,2.243-.1,3.353-.152a1.967,1.967,0,0,0,1.284,1.008,12.9,12.9,0,0,0,3.71.557c-.129-.5-.254-.985-.357-1.413-.1-.4-.2-.78-.3-1.133-1.213-.076-2.448-.178-3.656-.33a7.463,7.463,0,0,1-1.966-.428c-.406-.178-.557-.352-.482-.557.125-.325.856-.575,2.091-.78.406-.049.883-.1,1.463-.125.557-.049,1.213-.049,1.944-.076,0-.049-.027-.125-.027-.178h1.289c.022.053.049.129.076.178.655,0,1.257.027,1.788.076.531.027,1.034.076,1.463.125a6.94,6.94,0,0,1,2.47.655c-.807.027-1.636.049-2.47.076a3.123,3.123,0,0,0-1.186-.428,15.534,15.534,0,0,0-1.917-.174c.076.2.178.428.281.651s.227.508.326.758c1.44.076,2.394.125,2.876.178a21.979,21.979,0,0,1,2.394.3,11.893,11.893,0,0,1,1.793.45,3.963,3.963,0,0,1,1.208.655c.655.557.477,1.088-.629,1.565a8.7,8.7,0,0,1-2.345.58,27,27,0,0,1-3.558.276c.178.406.379.856.58,1.311-.856,0-1.712.027-2.568.027Zm-1.743-6.755a13.6,13.6,0,0,0-2.167.2c-.553.125-.829.25-.856.4-.027.178.227.33.7.455a18.691,18.691,0,0,0,2.675.276c-.076-.25-.129-.5-.205-.731l-.152-.6Zm3.358,4.512a9.309,9.309,0,0,0,3.148-.531c.682-.254.834-.58.557-.932a2.426,2.426,0,0,0-1.364-.633,24.17,24.17,0,0,0-3.429-.379c.152.357.3.709.482,1.11s.379.861.606,1.364Z" transform="translate(-69.84 -10.806)" fill="#fdce2f"/>
      <path id="Trazado_96086" data-name="Trazado 96086" d="M153.026,88.928c14.425,0,26.678,1.414,31.065,3.407,1.034-.482,1.614-.959,1.739-1.463h0v3.077c0,2.747-14.7,5.016-32.8,5.016s-32.8-2.27-32.8-5.016l.027-3.255c0,.58.606,1.11,1.712,1.614,4.414-1.966,16.645-3.38,31.065-3.38Z" transform="translate(-91.885 -13.975)" fill="#f9c61e" fill-rule="evenodd"/>
      <path id="Trazado_96087" data-name="Trazado 96087" d="M152.826,88.19c18.032,0,32.63,2.256,32.63,4.99,0,2.76-14.6,4.994-32.63,4.994-18.005,0-32.6-2.234-32.6-4.994,0-2.733,14.594-4.99,32.6-4.99Z" transform="translate(-91.868 -16.527)" fill="#dba50e" fill-rule="evenodd"/>
      <path id="Trazado_96088" data-name="Trazado 96088" d="M134.519,95.8c-.129-.455-.227-.905-.33-1.311a42.334,42.334,0,0,1-4.816-.352,10.167,10.167,0,0,1-2.872-.807c-.709-.352-.985-.731-.91-1.186,1.133-.049,2.243-.1,3.353-.152A1.953,1.953,0,0,0,130.23,93a12.9,12.9,0,0,0,3.71.557c-.129-.5-.254-.985-.352-1.413-.1-.4-.205-.78-.3-1.133-1.213-.076-2.448-.178-3.656-.33a7.736,7.736,0,0,1-1.966-.428c-.406-.178-.557-.352-.482-.553.152-.33.856-.58,2.1-.785.4-.049.878-.1,1.463-.125.553-.049,1.208-.076,1.966-.076a.434.434,0,0,1-.054-.178h1.289c.022.054.049.129.076.178.655,0,1.257.027,1.788.076.531.027,1.034.076,1.463.125a7.005,7.005,0,0,1,2.47.655c-.807.027-1.636.054-2.47.076a3.124,3.124,0,0,0-1.186-.428,15.535,15.535,0,0,0-1.913-.174c.1.2.174.428.276.655s.227.477.352.754c1.413.076,2.372.125,2.849.178a21.983,21.983,0,0,1,2.394.3,12.22,12.22,0,0,1,1.815.455,3.678,3.678,0,0,1,1.186.651c.655.557.477,1.088-.629,1.565a8.7,8.7,0,0,1-2.345.58,27,27,0,0,1-3.558.276c.178.406.379.861.584,1.311-.861,0-1.717.027-2.573.027ZM132.78,89.04a13.6,13.6,0,0,0-2.171.2c-.526.1-.829.25-.856.4,0,.178.227.33.731.455a17.743,17.743,0,0,0,2.649.276c-.076-.25-.129-.5-.2-.731l-.152-.6Zm3.353,4.512a9.2,9.2,0,0,0,3.148-.531c.682-.25.861-.58.557-.932a2.426,2.426,0,0,0-1.36-.629,23.582,23.582,0,0,0-3.407-.379c.125.352.3.7.455,1.106.178.406.379.861.606,1.364Z" transform="translate(-73.351 -15.344)" fill="#f9c61e"/>
      <path id="Trazado_96089" data-name="Trazado 96089" d="M152.772,87.266c14.42,0,26.673,1.413,31.061,3.4,1.008-.455,1.614-.959,1.717-1.463h0l.022,3.077c0,2.773-14.7,5.016-32.8,5.016-18.13,0-32.8-2.243-32.8-5.016V89.054c0,.557.606,1.11,1.739,1.614,4.388-1.989,16.641-3.4,31.065-3.4Z" transform="translate(-92.763 -19.723)" fill="#f9c61e" fill-rule="evenodd"/>
      <path id="Trazado_96090" data-name="Trazado 96090" d="M152.594,86.542c18.032,0,32.63,2.234,32.63,4.99s-14.6,4.994-32.63,4.994c-18.005,0-32.626-2.234-32.626-4.994s14.621-4.99,32.626-4.99Z" transform="translate(-92.763 -22.228)" fill="#dba50e" fill-rule="evenodd"/>
      <path id="Trazado_96091" data-name="Trazado 96091" d="M134.261,94.134c-.125-.455-.227-.883-.352-1.289a48.136,48.136,0,0,1-4.816-.379,8.884,8.884,0,0,1-2.876-.807c-.678-.325-.954-.731-.878-1.159,1.106-.076,2.243-.125,3.326-.174a2.073,2.073,0,0,0,1.311,1.008,12.541,12.541,0,0,0,3.705.58c-.125-.531-.25-1.008-.379-1.436-.1-.406-.2-.785-.276-1.137-1.208-.076-2.444-.174-3.679-.326a7.47,7.47,0,0,1-1.944-.406c-.428-.174-.58-.379-.477-.58.125-.325.829-.58,2.064-.758.406-.076.91-.1,1.463-.147.58-.027,1.24-.054,1.966-.076a.57.57,0,0,0-.049-.178h1.311c.027.076.054.125.076.178.655.022,1.235.049,1.792.076.526.022,1.008.071,1.436.125a7.292,7.292,0,0,1,2.5.655c-.834.027-1.641.049-2.47.076a3.079,3.079,0,0,0-1.213-.406,11.758,11.758,0,0,0-1.891-.174c.076.2.178.4.276.629.1.254.205.5.33.758,1.436.076,2.394.152,2.872.174a24.1,24.1,0,0,1,2.4.3,11.95,11.95,0,0,1,1.788.455,3.9,3.9,0,0,1,1.213.655c.655.58.477,1.11-.633,1.565a10.246,10.246,0,0,1-2.345.6,28.144,28.144,0,0,1-3.554.254c.178.428.352.856.553,1.311-.856.027-1.685.027-2.546.027Zm-1.739-6.76a14.733,14.733,0,0,0-2.167.2c-.557.129-.834.254-.856.428-.027.152.2.3.7.433a14.692,14.692,0,0,0,2.649.276c-.054-.254-.129-.482-.178-.709s-.1-.428-.152-.629Zm3.331,4.512a10.1,10.1,0,0,0,3.175-.5c.655-.276.834-.58.553-.932a2.437,2.437,0,0,0-1.36-.655,21.519,21.519,0,0,0-3.429-.352c.152.325.3.7.477,1.084.178.428.379.883.584,1.36Z" transform="translate(-74.23 -21.093)" fill="#f9c61e"/>
      <path id="Trazado_96092" data-name="Trazado 96092" d="M150.357,86.044c14.425,0,26.678,1.413,31.065,3.407,1.008-.455,1.614-.959,1.712-1.463h.027v3.077c0,2.773-14.7,5.016-32.8,5.016-18.13,0-32.8-2.243-32.8-5.016V87.837c0,.553.633,1.11,1.739,1.614,4.414-1.993,16.645-3.407,31.065-3.407Z" transform="translate(-101.117 -23.95)" fill="#f9c61e" fill-rule="evenodd"/>
      <path id="Trazado_96093" data-name="Trazado 96093" d="M150.357,85.321c18.13,0,32.8,2.243,32.8,5.016s-14.674,5.016-32.8,5.016c-18.1,0-32.8-2.243-32.8-5.016s14.7-5.016,32.8-5.016Z" transform="translate(-101.117 -26.451)" fill="#dba50e" fill-rule="evenodd"/>
      <path id="Trazado_96094" data-name="Trazado 96094" d="M131.85,92.908c-.129-.455-.227-.883-.33-1.284a48.242,48.242,0,0,1-4.816-.379,8.66,8.66,0,0,1-2.872-.807c-.709-.33-.985-.731-.91-1.159,1.133-.076,2.243-.125,3.326-.178a2.083,2.083,0,0,0,1.311,1.008,12.713,12.713,0,0,0,3.71.584c-.129-.531-.254-1.012-.357-1.44-.1-.4-.2-.78-.3-1.133-1.213-.076-2.448-.178-3.656-.33a7.675,7.675,0,0,1-1.966-.4c-.406-.178-.557-.379-.482-.58.125-.33.856-.58,2.1-.758.375-.076.878-.1,1.436-.152.58-.022,1.235-.049,1.966-.076,0-.049-.027-.1-.027-.174h1.289a.806.806,0,0,0,.076.174c.655.027,1.257.053,1.788.076s1.034.076,1.463.125a7.525,7.525,0,0,1,2.47.655c-.807.027-1.636.054-2.47.076a3.145,3.145,0,0,0-1.186-.4,12.049,12.049,0,0,0-1.913-.178c.076.205.174.406.276.633.1.25.227.5.325.754,1.44.076,2.394.152,2.876.178a21.98,21.98,0,0,1,2.394.3,11.341,11.341,0,0,1,1.792.455,3.782,3.782,0,0,1,1.208.655c.655.58.477,1.106-.629,1.561a9.707,9.707,0,0,1-2.345.606,28.16,28.16,0,0,1-3.558.254c.178.428.357.856.584,1.311-.861.022-1.717.022-2.573.022Zm-1.739-6.755a13.6,13.6,0,0,0-2.171.2c-.553.125-.829.25-.856.428-.027.152.227.3.7.428a14.958,14.958,0,0,0,2.675.276c-.076-.25-.129-.477-.205-.7-.049-.227-.1-.428-.147-.629Zm3.353,4.512a10.03,10.03,0,0,0,3.148-.5c.682-.276.834-.58.557-.932a2.4,2.4,0,0,0-1.36-.655,21.509,21.509,0,0,0-3.433-.357c.152.33.3.709.482,1.088.174.428.379.878.606,1.36Z" transform="translate(-82.583 -25.316)" fill="#fdce2f"/>
      <path id="Trazado_96095" data-name="Trazado 96095" d="M153.727,84.97c14.425,0,26.678,1.413,31.065,3.4,1.034-.477,1.614-.954,1.739-1.463h0v3.077c0,2.773-14.7,5.021-32.8,5.021-18.125,0-32.8-2.247-32.8-5.021V86.736c0,.58.633,1.11,1.743,1.614,4.41-1.966,16.641-3.38,31.061-3.38Z" transform="translate(-89.46 -27.665)" fill="#f9c61e" fill-rule="evenodd"/>
      <path id="Trazado_96096" data-name="Trazado 96096" d="M153.727,84.246c18.13,0,32.8,2.243,32.8,4.994,0,2.773-14.674,5.016-32.8,5.016-18.1,0-32.8-2.243-32.8-5.016,0-2.751,14.7-4.994,32.8-4.994Z" transform="translate(-89.46 -30.169)" fill="#dba50e" fill-rule="evenodd"/>
      <path id="Trazado_96097" data-name="Trazado 96097" d="M135.22,91.838c-.125-.455-.227-.91-.33-1.311a42.18,42.18,0,0,1-4.816-.357,10.075,10.075,0,0,1-2.872-.8c-.709-.357-.985-.731-.91-1.186,1.137-.054,2.243-.1,3.353-.152a1.965,1.965,0,0,0,1.289,1.008,12.869,12.869,0,0,0,3.705.557c-.125-.508-.254-.985-.352-1.413-.1-.406-.205-.78-.3-1.137-1.213-.076-2.448-.174-3.656-.325a7.65,7.65,0,0,1-1.966-.428c-.406-.178-.557-.357-.482-.557.129-.325.861-.58,2.1-.78.4-.049.883-.1,1.463-.125.553-.053,1.208-.053,1.94-.076,0-.049-.027-.129-.027-.178h1.289c.027.049.049.129.076.178.655,0,1.262.022,1.788.076.531.022,1.034.076,1.462.125a6.91,6.91,0,0,1,2.47.655c-.8.027-1.636.049-2.47.076a3.026,3.026,0,0,0-1.182-.428,16.528,16.528,0,0,0-1.917-.178c.076.205.174.428.276.655s.227.5.325.758c1.44.076,2.4.125,2.876.174a23.141,23.141,0,0,1,2.394.3,12.117,12.117,0,0,1,1.792.455,3.821,3.821,0,0,1,1.208.655c.655.557.482,1.083-.629,1.565a8.828,8.828,0,0,1-2.345.58,27.776,27.776,0,0,1-3.554.276c.174.406.375.856.58,1.311-.861,0-1.717.027-2.573.027Zm-1.739-6.76a14.061,14.061,0,0,0-2.172.205c-.553.125-.829.25-.856.4-.022.178.227.33.709.455a18.529,18.529,0,0,0,2.671.276c-.076-.254-.125-.5-.2-.731l-.152-.606Zm3.353,4.517a9.36,9.36,0,0,0,3.152-.531c.678-.254.829-.58.553-.936a2.457,2.457,0,0,0-1.36-.629,24.243,24.243,0,0,0-3.429-.379c.152.357.3.709.477,1.11s.379.856.606,1.364Z" transform="translate(-70.926 -29.035)" fill="#f9c61e"/>
      <path id="Trazado_96098" data-name="Trazado 96098" d="M122.377,91.1l-.785,2.332-.562,1.422s2.889.54,4.04.575.664-1.084.664-1.084l-.08-2.011Z" transform="translate(-89.09 -6.465)" fill="#ffbd99" fill-rule="evenodd"/>
      <path id="Trazado_96099" data-name="Trazado 96099" d="M120.035,91.243l-2.359,2.2-1.494,2.02s2.684,1.989,3.852,1.427,1.213-3.077,1.213-3.077Z" transform="translate(-105.855 -5.967)" fill="#ffbd99" fill-rule="evenodd"/>
      <path id="Trazado_96100" data-name="Trazado 96100" d="M124.716,82.4a12.282,12.282,0,0,0-2.983,1.333c-.486.531-.3,2.011-.3,2.011l3.937-.874Z" transform="translate(-87.814 -36.541)" fill="#f4a082" fill-rule="evenodd"/>
      <path id="Trazado_96101" data-name="Trazado 96101" d="M125.529,78.767l.754,12.936-4.249,3.069.649,1.62,3.224-.335,3.831-3.161L127.455,79Z" transform="translate(-85.621 -49.12)" fill="#167377" fill-rule="evenodd"/>
      <path id="Trazado_96102" data-name="Trazado 96102" d="M133.232,86.189l-11.994,6.425-.366-3.219a3.111,3.111,0,0,1,2.127-3.3l10.59-3.442ZM121.7,103.958c1.779-3.491,3.014-6.278,3.014-6.278s1.217-.147,3.059-.437l-1.266,25.2-4.3.218-.508-18.7Zm13.5-21.14c-.459-.022-.838-.062-1.128-.085.29.022.669.062,1.128.085Z" transform="translate(-89.704 -35.693)" fill="#00223d" fill-rule="evenodd"/>
      <path id="Trazado_96103" data-name="Trazado 96103" d="M125.132,82.443a11.906,11.906,0,0,0-3.112,1c-.54.477-.49,2.171-.49,2.171l3.991-.673Z" transform="translate(-87.368 -36.406)" fill="#ffb699" fill-rule="evenodd"/>
      <path id="Trazado_96104" data-name="Trazado 96104" d="M123.258,75.716l-.7-1.164s1.07-3.366,4.4-2.18c3.309,1.168,4.419,19.3,11.25,23.507,0,0-1.07,1.632-4.9-.606-3.812-2.256-7.179-7.781-8.815-13.328-1.614-5.547-1.226-6.229-1.226-6.229Z" transform="translate(-83.805 -72.118)" fill="#00223d" fill-rule="evenodd"/>
      <path id="Trazado_96105" data-name="Trazado 96105" d="M128.317,77.614c-.945,1.654-3.059,5-5.128,5.23a11.157,11.157,0,0,1,1.168-2.551L122.5,77.676l3.349-2.448Z" transform="translate(-84.012 -61.362)" fill="#f4a082" fill-rule="evenodd"/>
      <path id="Trazado_96106" data-name="Trazado 96106" d="M124.6,79.825l-.919,1.168L122.517,85.6a5.227,5.227,0,0,0,.548,3.924,53.229,53.229,0,0,1,3.255,6.118c.232,1.048,1.677,10.742,1.677,10.742a17.4,17.4,0,0,0,7.429-.21c4.691-.985,5.569-1.57,5.569-1.57A78.828,78.828,0,0,1,139.4,94.12c-.441-5.569-2.3-12.061-3.558-14.046-.718-1.124-7.032-4.312-7.032-4.312Z" transform="translate(-84.508 -59.511)" fill="#d5f2e8" fill-rule="evenodd"/>
      <path id="Trazado_96107" data-name="Trazado 96107" d="M161.091,82.265s3.581,7.3-2.573,11.321c-6.176,4-18.589,5.422-18.589,5.422a132.86,132.86,0,0,1-6.238,12.182C130.343,116.844,120,126.729,120,126.729l-3.549-2.426,19.04-30.816a7.282,7.282,0,0,1,4.33-3.456l8.628-2.515.357-3.54a19.335,19.335,0,0,0,7.032-.29,31.4,31.4,0,0,0,5.253-1.422Z" transform="translate(-104.921 -37.021)" fill="#00223d" fill-rule="evenodd"/>
      <path id="Trazado_96108" data-name="Trazado 96108" d="M130.735,78.612c-1.422,3.161,2.345,15.548,2.345,15.548l-10.938,8.03,1.249,2.51s15.223-6.456,15.455-9.283c.169-2.1-1.177-10.626-1.962-15.865-.441-2.965-4.45-3.9-5.957-1.311A4.1,4.1,0,0,0,130.735,78.612Z" transform="translate(-85.24 -56.167)" fill="#167377" fill-rule="evenodd"/>
      <path id="Trazado_96109" data-name="Trazado 96109" d="M122.157,74.278l1.788-1.614c1.752.682,2.18,1.6,2.626,3.309L125.4,77.355Z" transform="translate(-85.192 -70.23)" fill="#1363b2" fill-rule="evenodd"/>
      <path id="Trazado_96110" data-name="Trazado 96110" d="M122.514,81.693S126,86.129,128.582,85.7a4.661,4.661,0,0,0,3.366-6.617c-1.6-3.014-3.424-6.943-7.353-5.426-3.951,1.516-4.321,3.482-3.817,5.426a4.31,4.31,0,0,0,1.734,2.608Z" transform="translate(-90.569 -67.956)" fill="#ffb699" fill-rule="evenodd"/>
      <path id="Trazado_96111" data-name="Trazado 96111" d="M128.5,78.241a8.721,8.721,0,0,1-4.089,6.055c-3.616,2.06-5.23-4.361-3.442-8.1a6.319,6.319,0,0,1,10.059-1.6c3,3.037,2.626,7.045,1.752,8.467a6.992,6.992,0,0,1-3.077-2.1,7.364,7.364,0,0,1-1.2-2.724Z" transform="translate(-91.844 -69.837)" fill="#00223d" fill-rule="evenodd"/>
      <path id="Trazado_96112" data-name="Trazado 96112" d="M143.009,89.927l-14.358,2.314-9.56-11.6-.272.232a.352.352,0,0,0-.04.495l9.078,11.009h0l.062.334a.333.333,0,0,0,.388.294l14.813-2.39Z" transform="translate(-97.162 -42.646)" fill="#b9d2fc" fill-rule="evenodd"/>
      <path id="Trazado_96113" data-name="Trazado 96113" d="M115.428,95.6c2.328.1,8.766-3.407,8.766-3.407l4.726.116a2.234,2.234,0,0,1,.339,1.173,2.736,2.736,0,0,1-.37,1.761l-.027,2.4h-1.021l-.45-2.39-4.437,2.372-8.882.018S113.087,95.476,115.428,95.6Z" transform="translate(-113.867 -2.692)" fill="#167377" fill-rule="evenodd"/>
      <path id="Trazado_96114" data-name="Trazado 96114" d="M120.281,96.861c2.319-.205,8.24-4.526,8.24-4.526l4.7-.508a2.268,2.268,0,0,1,.486,1.119,2.773,2.773,0,0,1-.134,1.8l.29,2.385-1.012.134-.762-2.31-4.084,2.934L119.2,99.073S117.945,97.053,120.281,96.861Z" transform="translate(-96.581 -3.947)" fill="#167377" fill-rule="evenodd"/>
    </g>
    <g id="Grupo_46131" data-name="Grupo 46131" transform="translate(228.604 221.906)">
      <g id="Grupo_46129" data-name="Grupo 46129" transform="translate(0 55.857)">
        <path id="Trazado_96115" data-name="Trazado 96115" d="M134.053,93.013h63.4v1.752H135.663A1.928,1.928,0,0,0,133.75,96.7v6.974a1.928,1.928,0,0,0,1.913,1.931h61.792v1.752h-63.4a2.565,2.565,0,0,1-2.546-2.546V95.559a2.565,2.565,0,0,1,2.546-2.546Z" transform="translate(-131.253 -64.329)" fill="#d5f2e8" fill-rule="evenodd"/>
        <path id="Trazado_96116" data-name="Trazado 96116" d="M133.923,93.406h61.792v10.835H133.923a1.928,1.928,0,0,1-1.913-1.931V95.337a1.928,1.928,0,0,1,1.913-1.931Z" transform="translate(-129.513 -62.969)" fill="#eadce4" fill-rule="evenodd"/>
        <path id="Trazado_96117" data-name="Trazado 96117" d="M134.053,89.8h63.4v1.752H135.663a1.928,1.928,0,0,0-1.913,1.931v6.974a1.928,1.928,0,0,0,1.913,1.931h61.792v1.752h-63.4a2.565,2.565,0,0,1-2.546-2.546V92.343a2.565,2.565,0,0,1,2.546-2.546Z" transform="translate(-131.253 -75.453)" fill="#00223d" fill-rule="evenodd"/>
        <path id="Trazado_96118" data-name="Trazado 96118" d="M133.923,90.19h61.792v10.835H133.923a1.928,1.928,0,0,1-1.913-1.931V92.121a1.928,1.928,0,0,1,1.913-1.931Z" transform="translate(-129.513 -74.093)" fill="#eadce4" fill-rule="evenodd"/>
        <path id="Trazado_96119" data-name="Trazado 96119" d="M134,86.58h63.4v1.752H135.606a1.935,1.935,0,0,0-1.917,1.935v6.969a1.935,1.935,0,0,0,1.917,1.935H197.4v1.752H134a2.568,2.568,0,0,1-2.546-2.546V89.126A2.568,2.568,0,0,1,134,86.58Z" transform="translate(-131.45 -86.58)" fill="#26aab7" fill-rule="evenodd"/>
        <path id="Trazado_96120" data-name="Trazado 96120" d="M133.869,86.973h61.792v10.84H133.869a1.935,1.935,0,0,1-1.917-1.935V88.908a1.935,1.935,0,0,1,1.917-1.935Z" transform="translate(-129.714 -85.221)" fill="#eadce4" fill-rule="evenodd"/>
      </g>
      <g id="Grupo_46130" data-name="Grupo 46130" transform="translate(17.179)">
        <path id="Trazado_96121" data-name="Trazado 96121" d="M171.066,89.233c2.4,4.388-5.364,28.64-5.364,28.64l-4.093-.089.294-22.709c-10.314,3.884-16.3,0-16.3,0l.294,22.709-4.089.089s-7.767-24.252-5.369-28.64c2.078-3.737,14.055-5.364,17.314-5.039,3.259-.326,15.241,1.3,17.314,5.039Z" transform="translate(-132.967 -39.115)" fill="#00223d" fill-rule="evenodd"/>
        <path id="Trazado_96122" data-name="Trazado 96122" d="M154.443,97.091l-7.767-.178-1.806-.95-.236.95-2.876-.294-.031-4.923,4.093.089s5.453,3.527,7.469,3.527c2.047,0,1.155,1.779,1.155,1.779Z" transform="translate(-113.085 -13.027)" fill="#167377" fill-rule="evenodd"/>
        <path id="Trazado_96123" data-name="Trazado 96123" d="M135.482,97.091l7.8-.178,1.806-.95.241.95,2.845-.294.058-4.923-4.089.089s-5.458,3.527-7.473,3.527c-2.047,0-1.186,1.779-1.186,1.779Z" transform="translate(-135.303 -13.027)" fill="#167377" fill-rule="evenodd"/>
        <path id="Trazado_96124" data-name="Trazado 96124" d="M143.429,104.826h6.818L141.44,94.8l8.628-16.748c-6.8-.192-10.652,9.939-13.689,16.623a2.966,2.966,0,0,0,.548,3.255Z" transform="translate(-132.485 -60.219)" fill="#167377" fill-rule="evenodd"/>
        <path id="Trazado_96125" data-name="Trazado 96125" d="M149.24,104.024l-5.658,3.674,5.837-12.6-8.8-17.046c6.657-.187,10.514,9,13.524,15.566a4.188,4.188,0,0,1-.415,4.2Z" transform="translate(-116.925 -60.219)" fill="#167377" fill-rule="evenodd"/>
        <path id="Trazado_96126" data-name="Trazado 96126" d="M139.265,75.87c-.682.089-1.128,1.008-1.008,2.078s.771,1.864,1.454,1.775c.682-.058,1.155-1,1.008-2.073-.12-1.066-.771-1.868-1.454-1.779Z" transform="translate(-125.151 -67.79)" fill="#ffb699" fill-rule="evenodd"/>
        <path id="Trazado_96127" data-name="Trazado 96127" d="M142.489,75.87c.682.089,1.128,1.008,1.008,2.078s-.771,1.864-1.454,1.775c-.682-.058-1.124-1-1.008-2.073s.771-1.868,1.454-1.779Z" transform="translate(-115.538 -67.79)" fill="#ffb699" fill-rule="evenodd"/>
        <path id="Trazado_96128" data-name="Trazado 96128" d="M147.018,77.986h1.9a9.387,9.387,0,0,1,9.368,9.368v17.76a6.84,6.84,0,0,1-6.818,6.818h-7a6.841,6.841,0,0,1-6.822-6.818V87.354a9.387,9.387,0,0,1,9.368-9.368Z" transform="translate(-127.184 -60.449)" fill="#167377" fill-rule="evenodd"/>
        <path id="Trazado_96129" data-name="Trazado 96129" d="M139.3,77.421h5.694v2.488a2.515,2.515,0,0,1-2.493,2.524h-.682a2.52,2.52,0,0,1-2.519-2.524Z" transform="translate(-121.48 -62.403)" fill="#e58d6e" fill-rule="evenodd"/>
        <path id="Trazado_96130" data-name="Trazado 96130" d="M144.641,74.25c3.469-.058,6.345,3.531,6.434,8.035s-2.666,8.245-6.136,8.3c-3.442.058-6.345-3.558-6.4-8.066-.089-4.5,2.635-8.209,6.1-8.271Z" transform="translate(-124.124 -73.375)" fill="#ffb699" fill-rule="evenodd"/>
        <path id="Trazado_96131" data-name="Trazado 96131" d="M138.242,81.57h22.482a1.026,1.026,0,0,1,1.03.994V98.229a1.026,1.026,0,0,1-1.03.994H138.242a1,1,0,0,1-1.03-.994V82.564a1,1,0,0,1,1.03-.994Z" transform="translate(-128.699 -48.052)" fill="#f9eff4" fill-rule="evenodd"/>
        <path id="Trazado_96132" data-name="Trazado 96132" d="M142.489,89.337a3.257,3.257,0,1,0-3.255-3.259,3.277,3.277,0,0,0,3.255,3.259Z" transform="translate(-121.705 -43.718)" fill="#c8c6cc" fill-rule="evenodd"/>
        <path id="Trazado_96133" data-name="Trazado 96133" d="M153.615,78.378s-2.675-3.937-6.916-4.3-7.058,3.933-7.058,3.933a2,2,0,0,0-1.324,2.056c-.058,1.752,1.6,5.4,1.6,5.4l.334-2.854a3.55,3.55,0,0,0,.892-1.195,2.761,2.761,0,0,0-.183-1.289,13.279,13.279,0,0,0,5.957,1.226,8.008,8.008,0,0,0,2.751-.428,1.382,1.382,0,0,0,.013.49,3.618,3.618,0,0,0,.887,1.195l.334,2.854s1.668-3.647,1.605-5.4a2.423,2.423,0,0,0-.134-.593A9.476,9.476,0,0,0,153.615,78.378Z" transform="translate(-124.885 -74.053)" fill="#00223d"/>
      </g>
    </g>
  </g>
</svg>
