<svg xmlns="http://www.w3.org/2000/svg" xmlns:xlink="http://www.w3.org/1999/xlink" width="390.125" height="279.267" viewBox="0 0 390.125 279.267">
  <defs>
    <linearGradient id="linear-gradient" x1="0.5" x2="0.5" y2="1" gradientUnits="objectBoundingBox">
      <stop offset="0" stop-color="#fff"/>
      <stop offset="1" stop-color="#d2e6ee"/>
    </linearGradient>
  </defs>
  <g id="Grupo_45802" data-name="Grupo 45802" transform="translate(-317.227 -142.915)">
    <g id="Grupo_45808" data-name="Grupo 45808" transform="translate(344.267 310.326)">
      <path id="Trazado_95863" data-name="Trazado 95863" d="M348.657,302.539l-2.237,31.332h29.888l-2.059-31.391Z" transform="translate(-338.215 -276.775)" fill="#26aab7"/>
      <g id="Grupo_45805" data-name="Grupo 45805" transform="translate(16.371 27.624)">
        <g id="Grupo_45803" data-name="Grupo 45803" transform="translate(0 0.023)">
          <path id="Trazado_95864" data-name="Trazado 95864" d="M353.167,304.955h0a.958.958,0,0,1,1.024-.869h0a.879.879,0,1,1,0,1.734h0A.96.96,0,0,1,353.167,304.955Zm1.025-.54a.555.555,0,1,0,0,1.073h0a.555.555,0,1,0,0-1.073Zm-.863.539h0Z" transform="translate(-353.167 -304.085)" fill="#eae6ff"/>
        </g>
        <g id="Grupo_45804" data-name="Grupo 45804" transform="translate(10.189)">
          <path id="Trazado_95865" data-name="Trazado 95865" d="M361.586,304.935h0a.8.8,0,0,1,.24-.562,1.109,1.109,0,0,1,.783-.307h0a.955.955,0,0,1,1.024.864.8.8,0,0,1-.31.624,1.12,1.12,0,0,1-.713.244h0A.959.959,0,0,1,361.586,304.935Zm1.023-.539a.776.776,0,0,0-.548.212.462.462,0,0,0-.144.326h0a.634.634,0,0,0,.7.535h0a.8.8,0,0,0,.5-.169.478.478,0,0,0,.189-.368.632.632,0,0,0-.693-.535Z" transform="translate(-361.586 -304.066)" fill="#eae6ff"/>
        </g>
        <path id="Trazado_95866" data-name="Trazado 95866" d="M358.87,311.166c.1,0,.192,0,.29,0a5.5,5.5,0,0,0,4.244-1.792,6.37,6.37,0,0,0,1.192-4.576.327.327,0,0,0-.374-.28.331.331,0,0,0-.282.374,5.788,5.788,0,0,1-1.047,4.06,4.876,4.876,0,0,1-3.755,1.552,4.441,4.441,0,0,1-3.633-1.268c-1.46-1.624-1.1-4.294-1.1-4.321a.331.331,0,0,0-.656-.094,6.6,6.6,0,0,0,1.258,4.854A4.93,4.93,0,0,0,358.87,311.166Z" transform="translate(-353.055 -303.973)" fill="#eae6ff"/>
      </g>
      <path id="Trazado_95867" data-name="Trazado 95867" d="M360.5,309.8l-3.572,23.3,32.449-.076L386.1,309.735Z" transform="translate(-336.005 -275.25)" fill="#f5ca56"/>
      <g id="Grupo_45807" data-name="Grupo 45807">
        <path id="Trazado_95868" data-name="Trazado 95868" d="M351.1,342.284a6.581,6.581,0,1,0,6.581,6.581A6.582,6.582,0,0,0,351.1,342.284Zm0,9.637a3.055,3.055,0,1,1,3.068-3.056A3.054,3.054,0,0,1,351.1,351.921Z" transform="translate(-338.615 -268.406)" fill="#707070"/>
        <path id="Trazado_95869" data-name="Trazado 95869" d="M350.2,342.284a6.581,6.581,0,1,0,6.581,6.581A6.583,6.583,0,0,0,350.2,342.284Zm0,9.637a3.055,3.055,0,1,1,3.068-3.056A3.054,3.054,0,0,1,350.2,351.921Z" transform="translate(-338.804 -268.406)" fill="#00223d"/>
        <path id="Trazado_95870" data-name="Trazado 95870" d="M381.82,342.284a6.581,6.581,0,1,0,6.581,6.581A6.583,6.583,0,0,0,381.82,342.284Zm0,9.637a3.055,3.055,0,1,1,3.069-3.056A3.053,3.053,0,0,1,381.82,351.921Z" transform="translate(-332.155 -268.406)" fill="#707070"/>
        <path id="Trazado_95871" data-name="Trazado 95871" d="M380.926,342.284a6.581,6.581,0,1,0,6.581,6.581A6.582,6.582,0,0,0,380.926,342.284Zm0,9.637A3.055,3.055,0,1,1,384,348.865,3.053,3.053,0,0,1,380.926,351.921Z" transform="translate(-332.343 -268.406)" fill="#00223d"/>
        <g id="Grupo_45806" data-name="Grupo 45806">
          <path id="Trazado_95872" data-name="Trazado 95872" d="M428.122,281.241H408.346a6.023,6.023,0,0,0-5.113,2.839L391.28,303.273" transform="translate(-328.782 -281.241)" fill="none" stroke="#00223d" stroke-miterlimit="10" stroke-width="1.5"/>
          <path id="Trazado_95873" data-name="Trazado 95873" d="M349,335.21H393.2a4.792,4.792,0,0,0,4.731-4.033l4.572-28.525a4.791,4.791,0,0,0-4.731-5.549H344.433a4.792,4.792,0,0,0-4.731,5.549l4.574,28.525A4.79,4.79,0,0,0,349,335.21Z" transform="translate(-339.64 -277.906)" fill="none" stroke="#00223d" stroke-miterlimit="10" stroke-width="1.5"/>
          <line id="Línea_1499" data-name="Línea 1499" y2="38.106" transform="translate(31.461 19.199)" fill="none" stroke="#00223d" stroke-miterlimit="10" stroke-width="1.5"/>
          <line id="Línea_1500" data-name="Línea 1500" x1="58.468" transform="translate(2.226 38.252)" fill="none" stroke="#00223d" stroke-miterlimit="10" stroke-width="1.5"/>
          <line id="Línea_1501" data-name="Línea 1501" x1="3.782" y2="38.106" transform="translate(45.132 19.199)" fill="none" stroke="#00223d" stroke-miterlimit="10" stroke-width="1.5"/>
          <line id="Línea_1502" data-name="Línea 1502" x2="3.491" y2="38.106" transform="translate(14.88 19.199)" fill="none" stroke="#00223d" stroke-miterlimit="10" stroke-width="1.5"/>
          <path id="Trazado_95874" data-name="Trazado 95874" d="M396.5,327.158l7.16,10.647a4.362,4.362,0,0,1-3.62,6.8H341.48" transform="translate(-339.254 -271.586)" fill="none" stroke="#00223d" stroke-miterlimit="10" stroke-width="1.5"/>
        </g>
      </g>
    </g>
    <g id="Grupo_46034" data-name="Grupo 46034" transform="translate(420.335 225.093)">
      <rect id="Rectángulo_28159" data-name="Rectángulo 28159" width="60.62" height="16.307" transform="translate(74.443 145.861)" fill="#12263f"/>
      <rect id="Rectángulo_28160" data-name="Rectángulo 28160" width="210.144" height="151.185" rx="9.387" fill="#12263f"/>
      <rect id="Rectángulo_28161" data-name="Rectángulo 28161" width="197.766" height="131.167" rx="5.768" transform="translate(5.87 5.513)" fill="url(#linear-gradient)"/>
      <path id="Rectángulo_28162" data-name="Rectángulo 28162" d="M7.322,0H105.41a7.322,7.322,0,0,1,7.322,7.322V10.28a0,0,0,0,1,0,0H0a0,0,0,0,1,0,0V7.322A7.322,7.322,0,0,1,7.322,0Z" transform="translate(48.387 160.751)" fill="#12263f"/>
      <g id="Grupo_45811" data-name="Grupo 45811" transform="translate(53.098 14.572)" opacity="0.35">
        <g id="Grupo_45810" data-name="Grupo 45810">
          <g id="Grupo_45809" data-name="Grupo 45809">
            <rect id="Rectángulo_28163" data-name="Rectángulo 28163" width="138.378" height="93.014" rx="5.01" fill="#fff"/>
          </g>
        </g>
      </g>
      <g id="Grupo_45919" data-name="Grupo 45919" transform="translate(53.098 14.572)" opacity="0.25" style="mix-blend-mode: multiply;isolation: isolate">
        <g id="Grupo_45918" data-name="Grupo 45918" transform="translate(9.171 14.065)">
          <g id="Grupo_45814" data-name="Grupo 45814" transform="translate(3.981 53.881)">
            <g id="Grupo_45813" data-name="Grupo 45813">
              <g id="Grupo_45812" data-name="Grupo 45812">
                <rect id="Rectángulo_28164" data-name="Rectángulo 28164" width="6.028" height="15.133" fill="#fca70c"/>
              </g>
            </g>
          </g>
          <g id="Grupo_45817" data-name="Grupo 45817" transform="translate(17.563 40.596)">
            <g id="Grupo_45816" data-name="Grupo 45816">
              <g id="Grupo_45815" data-name="Grupo 45815">
                <rect id="Rectángulo_28165" data-name="Rectángulo 28165" width="6.028" height="28.417" fill="#b1affd"/>
              </g>
            </g>
          </g>
          <g id="Grupo_45820" data-name="Grupo 45820" transform="translate(31.146 43.535)">
            <g id="Grupo_45819" data-name="Grupo 45819">
              <g id="Grupo_45818" data-name="Grupo 45818">
                <rect id="Rectángulo_28166" data-name="Rectángulo 28166" width="6.028" height="25.479" fill="#fca70c"/>
              </g>
            </g>
          </g>
          <g id="Grupo_45823" data-name="Grupo 45823" transform="translate(44.729 29.149)">
            <g id="Grupo_45822" data-name="Grupo 45822">
              <g id="Grupo_45821" data-name="Grupo 45821">
                <rect id="Rectángulo_28167" data-name="Rectángulo 28167" width="6.028" height="39.864" fill="#b1affd"/>
              </g>
            </g>
          </g>
          <g id="Grupo_45826" data-name="Grupo 45826" transform="translate(17.563 40.596)" opacity="0.15" style="mix-blend-mode: multiply;isolation: isolate">
            <g id="Grupo_45825" data-name="Grupo 45825">
              <g id="Grupo_45824" data-name="Grupo 45824">
                <rect id="Rectángulo_28168" data-name="Rectángulo 28168" width="2.767" height="28.417" opacity="0.26"/>
              </g>
            </g>
          </g>
          <g id="Grupo_45829" data-name="Grupo 45829" transform="translate(3.981 53.881)" opacity="0.15" style="mix-blend-mode: multiply;isolation: isolate">
            <g id="Grupo_45828" data-name="Grupo 45828">
              <g id="Grupo_45827" data-name="Grupo 45827">
                <rect id="Rectángulo_28169" data-name="Rectángulo 28169" width="2.766" height="15.133" opacity="0.26"/>
              </g>
            </g>
          </g>
          <g id="Grupo_45832" data-name="Grupo 45832" transform="translate(44.729 29.149)" opacity="0.62" style="mix-blend-mode: multiply;isolation: isolate">
            <g id="Grupo_45831" data-name="Grupo 45831">
              <g id="Grupo_45830" data-name="Grupo 45830">
                <rect id="Rectángulo_28170" data-name="Rectángulo 28170" width="2.767" height="39.864" opacity="0.26"/>
              </g>
            </g>
          </g>
          <g id="Grupo_45835" data-name="Grupo 45835" transform="translate(31.146 43.535)" opacity="0.15" style="mix-blend-mode: multiply;isolation: isolate">
            <g id="Grupo_45834" data-name="Grupo 45834">
              <g id="Grupo_45833" data-name="Grupo 45833">
                <rect id="Rectángulo_28171" data-name="Rectángulo 28171" width="2.767" height="25.479" opacity="0.26"/>
              </g>
            </g>
          </g>
          <g id="Grupo_45838" data-name="Grupo 45838" transform="translate(0 15.736)">
            <g id="Grupo_45837" data-name="Grupo 45837">
              <g id="Grupo_45836" data-name="Grupo 45836">
                <path id="Trazado_95875" data-name="Trazado 95875" d="M507.89,304.923H453.943V247.48h.823V304.1H507.89Z" transform="translate(-453.943 -247.48)" fill="#d5dbda"/>
              </g>
            </g>
          </g>
          <g id="Grupo_45841" data-name="Grupo 45841" transform="translate(4.991 20.592)">
            <g id="Grupo_45840" data-name="Grupo 45840">
              <g id="Grupo_45839" data-name="Grupo 45839">
                <path id="Trazado_95876" data-name="Trazado 95876" d="M458.617,277.694l-.55-.612,14.112-12.672,13.071,2.84L499.4,251.492l.612.55-14.474,16.113L472.416,265.3Z" transform="translate(-458.068 -251.492)" fill="#d5dbda"/>
              </g>
            </g>
          </g>
          <g id="Grupo_45844" data-name="Grupo 45844" transform="translate(44.059 18.264)">
            <g id="Grupo_45843" data-name="Grupo 45843">
              <g id="Grupo_45842" data-name="Grupo 45842">
                <path id="Trazado_95877" data-name="Trazado 95877" d="M494.338,254.775l-3.991-3.827,5.152-1.379Z" transform="translate(-490.347 -249.569)" fill="#d5dbda"/>
              </g>
            </g>
          </g>
          <g id="Grupo_45857" data-name="Grupo 45857" transform="translate(59.055 52.807)">
            <g id="Grupo_45847" data-name="Grupo 45847">
              <g id="Grupo_45846" data-name="Grupo 45846">
                <g id="Grupo_45845" data-name="Grupo 45845">
                  <rect id="Rectángulo_28172" data-name="Rectángulo 28172" width="4.139" height="4.139" fill="#b1affd"/>
                </g>
              </g>
            </g>
            <g id="Grupo_45850" data-name="Grupo 45850" transform="translate(0 7.253)">
              <g id="Grupo_45849" data-name="Grupo 45849">
                <g id="Grupo_45848" data-name="Grupo 45848">
                  <rect id="Rectángulo_28173" data-name="Rectángulo 28173" width="4.139" height="4.14" fill="#fca70c"/>
                </g>
              </g>
            </g>
            <g id="Grupo_45853" data-name="Grupo 45853" transform="translate(5.28 9.04)">
              <g id="Grupo_45852" data-name="Grupo 45852">
                <g id="Grupo_45851" data-name="Grupo 45851">
                  <rect id="Rectángulo_28174" data-name="Rectángulo 28174" width="13.122" height="2.352" fill="#efefef"/>
                </g>
              </g>
            </g>
            <g id="Grupo_45856" data-name="Grupo 45856" transform="translate(5.28 1.787)">
              <g id="Grupo_45855" data-name="Grupo 45855">
                <g id="Grupo_45854" data-name="Grupo 45854">
                  <rect id="Rectángulo_28175" data-name="Rectángulo 28175" width="13.122" height="2.352" fill="#efefef"/>
                </g>
              </g>
            </g>
          </g>
          <g id="Grupo_45870" data-name="Grupo 45870" transform="translate(83.399 52.807)">
            <g id="Grupo_45860" data-name="Grupo 45860">
              <g id="Grupo_45859" data-name="Grupo 45859">
                <g id="Grupo_45858" data-name="Grupo 45858">
                  <rect id="Rectángulo_28176" data-name="Rectángulo 28176" width="4.14" height="4.139" fill="#b1affd"/>
                </g>
              </g>
            </g>
            <g id="Grupo_45863" data-name="Grupo 45863" transform="translate(0 7.253)">
              <g id="Grupo_45862" data-name="Grupo 45862">
                <g id="Grupo_45861" data-name="Grupo 45861">
                  <rect id="Rectángulo_28177" data-name="Rectángulo 28177" width="4.14" height="4.14" fill="#fca70c"/>
                </g>
              </g>
            </g>
            <g id="Grupo_45866" data-name="Grupo 45866" transform="translate(5.28 9.04)">
              <g id="Grupo_45865" data-name="Grupo 45865">
                <g id="Grupo_45864" data-name="Grupo 45864">
                  <rect id="Rectángulo_28178" data-name="Rectángulo 28178" width="13.122" height="2.352" fill="#efefef"/>
                </g>
              </g>
            </g>
            <g id="Grupo_45869" data-name="Grupo 45869" transform="translate(5.28 1.787)">
              <g id="Grupo_45868" data-name="Grupo 45868">
                <g id="Grupo_45867" data-name="Grupo 45867">
                  <rect id="Rectángulo_28179" data-name="Rectángulo 28179" width="13.122" height="2.352" fill="#efefef"/>
                </g>
              </g>
            </g>
          </g>
          <g id="Grupo_45883" data-name="Grupo 45883" transform="translate(105.321 52.807)">
            <g id="Grupo_45873" data-name="Grupo 45873">
              <g id="Grupo_45872" data-name="Grupo 45872">
                <g id="Grupo_45871" data-name="Grupo 45871">
                  <rect id="Rectángulo_28180" data-name="Rectángulo 28180" width="4.139" height="4.139" fill="#b1affd"/>
                </g>
              </g>
            </g>
            <g id="Grupo_45876" data-name="Grupo 45876" transform="translate(0 7.253)">
              <g id="Grupo_45875" data-name="Grupo 45875">
                <g id="Grupo_45874" data-name="Grupo 45874">
                  <rect id="Rectángulo_28181" data-name="Rectángulo 28181" width="4.139" height="4.14" fill="#fca70c"/>
                </g>
              </g>
            </g>
            <g id="Grupo_45879" data-name="Grupo 45879" transform="translate(5.28 9.04)">
              <g id="Grupo_45878" data-name="Grupo 45878">
                <g id="Grupo_45877" data-name="Grupo 45877">
                  <rect id="Rectángulo_28182" data-name="Rectángulo 28182" width="8.635" height="2.352" fill="#efefef"/>
                </g>
              </g>
            </g>
            <g id="Grupo_45882" data-name="Grupo 45882" transform="translate(5.28 1.787)">
              <g id="Grupo_45881" data-name="Grupo 45881">
                <g id="Grupo_45880" data-name="Grupo 45880">
                  <rect id="Rectángulo_28183" data-name="Rectángulo 28183" width="8.635" height="2.352" fill="#efefef"/>
                </g>
              </g>
            </g>
          </g>
          <g id="Grupo_45917" data-name="Grupo 45917">
            <g id="Grupo_45886" data-name="Grupo 45886" transform="translate(59.83 13.256)">
              <g id="Grupo_45885" data-name="Grupo 45885">
                <g id="Grupo_45884" data-name="Grupo 45884">
                  <rect id="Rectángulo_28184" data-name="Rectángulo 28184" width="59.406" height="1.08" fill="#efefef"/>
                </g>
              </g>
            </g>
            <g id="Grupo_45889" data-name="Grupo 45889">
              <g id="Grupo_45888" data-name="Grupo 45888">
                <g id="Grupo_45887" data-name="Grupo 45887">
                  <rect id="Rectángulo_28185" data-name="Rectángulo 28185" width="119.235" height="2.472" fill="#efefef"/>
                </g>
              </g>
            </g>
            <g id="Grupo_45892" data-name="Grupo 45892" transform="translate(59.651 16.615)">
              <g id="Grupo_45891" data-name="Grupo 45891">
                <g id="Grupo_45890" data-name="Grupo 45890">
                  <rect id="Rectángulo_28186" data-name="Rectángulo 28186" width="59.584" height="1.08" fill="#efefef"/>
                </g>
              </g>
            </g>
            <g id="Grupo_45895" data-name="Grupo 45895" transform="translate(59.651 9.897)">
              <g id="Grupo_45894" data-name="Grupo 45894">
                <g id="Grupo_45893" data-name="Grupo 45893">
                  <rect id="Rectángulo_28187" data-name="Rectángulo 28187" width="59.584" height="1.08" fill="#efefef"/>
                </g>
              </g>
            </g>
            <g id="Grupo_45898" data-name="Grupo 45898" transform="translate(59.651 19.974)">
              <g id="Grupo_45897" data-name="Grupo 45897">
                <g id="Grupo_45896" data-name="Grupo 45896">
                  <rect id="Rectángulo_28188" data-name="Rectángulo 28188" width="59.584" height="1.08" fill="#efefef"/>
                </g>
              </g>
            </g>
            <g id="Grupo_45901" data-name="Grupo 45901" transform="translate(59.651 23.333)">
              <g id="Grupo_45900" data-name="Grupo 45900">
                <g id="Grupo_45899" data-name="Grupo 45899">
                  <rect id="Rectángulo_28189" data-name="Rectángulo 28189" width="59.584" height="1.08" fill="#efefef"/>
                </g>
              </g>
            </g>
            <g id="Grupo_45904" data-name="Grupo 45904" transform="translate(59.651 26.691)">
              <g id="Grupo_45903" data-name="Grupo 45903">
                <g id="Grupo_45902" data-name="Grupo 45902">
                  <rect id="Rectángulo_28190" data-name="Rectángulo 28190" width="59.584" height="1.08" fill="#efefef"/>
                </g>
              </g>
            </g>
            <g id="Grupo_45907" data-name="Grupo 45907" transform="translate(59.651 30.05)">
              <g id="Grupo_45906" data-name="Grupo 45906">
                <g id="Grupo_45905" data-name="Grupo 45905">
                  <rect id="Rectángulo_28191" data-name="Rectángulo 28191" width="59.584" height="1.08" fill="#efefef"/>
                </g>
              </g>
            </g>
            <g id="Grupo_45910" data-name="Grupo 45910" transform="translate(59.651 33.409)">
              <g id="Grupo_45909" data-name="Grupo 45909">
                <g id="Grupo_45908" data-name="Grupo 45908">
                  <rect id="Rectángulo_28192" data-name="Rectángulo 28192" width="59.584" height="1.08" fill="#efefef"/>
                </g>
              </g>
            </g>
            <g id="Grupo_45913" data-name="Grupo 45913" transform="translate(59.651 36.768)">
              <g id="Grupo_45912" data-name="Grupo 45912">
                <g id="Grupo_45911" data-name="Grupo 45911">
                  <rect id="Rectángulo_28193" data-name="Rectángulo 28193" width="59.584" height="1.08" fill="#efefef"/>
                </g>
              </g>
            </g>
            <g id="Grupo_45916" data-name="Grupo 45916" transform="translate(66.946 40.127)">
              <g id="Grupo_45915" data-name="Grupo 45915">
                <g id="Grupo_45914" data-name="Grupo 45914">
                  <rect id="Rectángulo_28194" data-name="Rectángulo 28194" width="52.289" height="1.08" fill="#efefef"/>
                </g>
              </g>
            </g>
          </g>
        </g>
        <path id="Trazado_95878" data-name="Trazado 95878" d="M578.68,222.856H452.429a6.063,6.063,0,0,0-6.063,6.063v5.307H584.744v-5.307A6.063,6.063,0,0,0,578.68,222.856Z" transform="translate(-446.366 -222.856)" fill="#00223d"/>
        <path id="Trazado_95879" data-name="Trazado 95879" d="M546.6,228.029a1.748,1.748,0,1,1-1.748-1.748A1.748,1.748,0,0,1,546.6,228.029Z" transform="translate(-426.025 -222.136)" fill="#cfcfff"/>
        <circle id="Elipse_3861" data-name="Elipse 3861" cx="1.748" cy="1.748" r="1.748" transform="translate(124.21 4.145)" fill="#cfcfff"/>
        <circle id="Elipse_3862" data-name="Elipse 3862" cx="1.748" cy="1.748" r="1.748" transform="translate(131.335 4.145)" fill="#cfcfff"/>
      </g>
      <g id="Grupo_46033" data-name="Grupo 46033" transform="translate(16.34 31.524)">
        <g id="Grupo_45922" data-name="Grupo 45922" transform="translate(0 3.622)">
          <g id="Grupo_45921" data-name="Grupo 45921">
            <g id="Grupo_45920" data-name="Grupo 45920">
              <rect id="Rectángulo_28195" data-name="Rectángulo 28195" width="138.378" height="93.014" rx="5.01" fill="#00223d" opacity="0.169" style="mix-blend-mode: multiply;isolation: isolate"/>
            </g>
          </g>
        </g>
        <g id="Grupo_45925" data-name="Grupo 45925" transform="translate(2.807)">
          <g id="Grupo_45924" data-name="Grupo 45924">
            <g id="Grupo_45923" data-name="Grupo 45923">
              <rect id="Rectángulo_28196" data-name="Rectángulo 28196" width="138.378" height="93.014" rx="5.01" fill="#fff"/>
            </g>
          </g>
        </g>
        <g id="Grupo_46032" data-name="Grupo 46032" transform="translate(11.977 14.066)">
          <g id="Grupo_45928" data-name="Grupo 45928" transform="translate(3.981 53.881)">
            <g id="Grupo_45927" data-name="Grupo 45927">
              <g id="Grupo_45926" data-name="Grupo 45926">
                <rect id="Rectángulo_28197" data-name="Rectángulo 28197" width="6.028" height="15.133" fill="#7d6eb2"/>
              </g>
            </g>
          </g>
          <g id="Grupo_45931" data-name="Grupo 45931" transform="translate(17.563 40.596)">
            <g id="Grupo_45930" data-name="Grupo 45930">
              <g id="Grupo_45929" data-name="Grupo 45929">
                <rect id="Rectángulo_28198" data-name="Rectángulo 28198" width="6.028" height="28.417" fill="#26aab7"/>
              </g>
            </g>
          </g>
          <g id="Grupo_45934" data-name="Grupo 45934" transform="translate(31.146 43.535)">
            <g id="Grupo_45933" data-name="Grupo 45933">
              <g id="Grupo_45932" data-name="Grupo 45932">
                <rect id="Rectángulo_28199" data-name="Rectángulo 28199" width="6.028" height="25.479" fill="#7d6eb2"/>
              </g>
            </g>
          </g>
          <g id="Grupo_45937" data-name="Grupo 45937" transform="translate(44.729 29.149)">
            <g id="Grupo_45936" data-name="Grupo 45936">
              <g id="Grupo_45935" data-name="Grupo 45935">
                <rect id="Rectángulo_28200" data-name="Rectángulo 28200" width="6.028" height="39.864" fill="#26aab7"/>
              </g>
            </g>
          </g>
          <g id="Grupo_45952" data-name="Grupo 45952" transform="translate(0 20.867)">
            <g id="Grupo_45951" data-name="Grupo 45951">
              <g id="Grupo_45950" data-name="Grupo 45950">
                <path id="Trazado_95880" data-name="Trazado 95880" d="M479.837,318.038H425.891V265.727h.823v51.489h53.123Z" transform="translate(-425.891 -265.727)" fill="#d5dbda"/>
              </g>
            </g>
          </g>
          <g id="Grupo_45955" data-name="Grupo 45955" transform="translate(4.991 20.592)">
            <g id="Grupo_45954" data-name="Grupo 45954">
              <g id="Grupo_45953" data-name="Grupo 45953">
                <path id="Trazado_95881" data-name="Trazado 95881" d="M430.565,291.7l-.55-.612,14.112-12.672,13.071,2.84L471.352,265.5l.612.55-14.474,16.113-13.127-2.852Z" transform="translate(-430.015 -265.499)" fill="#d5dbda"/>
              </g>
            </g>
          </g>
          <g id="Grupo_45958" data-name="Grupo 45958" transform="translate(44.059 18.264)">
            <g id="Grupo_45957" data-name="Grupo 45957">
              <g id="Grupo_45956" data-name="Grupo 45956">
                <path id="Trazado_95882" data-name="Trazado 95882" d="M466.286,268.782l-3.991-3.827,5.152-1.379Z" transform="translate(-462.295 -263.576)" fill="#d5dbda"/>
              </g>
            </g>
          </g>
          <g id="Grupo_45971" data-name="Grupo 45971" transform="translate(59.055 52.807)">
            <g id="Grupo_45961" data-name="Grupo 45961">
              <g id="Grupo_45960" data-name="Grupo 45960">
                <g id="Grupo_45959" data-name="Grupo 45959">
                  <rect id="Rectángulo_28205" data-name="Rectángulo 28205" width="4.14" height="4.139" fill="#7d6eb2"/>
                </g>
              </g>
            </g>
            <g id="Grupo_45964" data-name="Grupo 45964" transform="translate(0 7.253)">
              <g id="Grupo_45963" data-name="Grupo 45963">
                <g id="Grupo_45962" data-name="Grupo 45962">
                  <rect id="Rectángulo_28206" data-name="Rectángulo 28206" width="4.14" height="4.14" fill="#26aab7"/>
                </g>
              </g>
            </g>
            <g id="Grupo_45967" data-name="Grupo 45967" transform="translate(5.28 9.04)">
              <g id="Grupo_45966" data-name="Grupo 45966">
                <g id="Grupo_45965" data-name="Grupo 45965">
                  <rect id="Rectángulo_28207" data-name="Rectángulo 28207" width="13.122" height="2.352" fill="#efefef"/>
                </g>
              </g>
            </g>
            <g id="Grupo_45970" data-name="Grupo 45970" transform="translate(5.28 1.787)">
              <g id="Grupo_45969" data-name="Grupo 45969">
                <g id="Grupo_45968" data-name="Grupo 45968">
                  <rect id="Rectángulo_28208" data-name="Rectángulo 28208" width="13.122" height="2.352" fill="#efefef"/>
                </g>
              </g>
            </g>
          </g>
          <g id="Grupo_45984" data-name="Grupo 45984" transform="translate(83.399 52.807)">
            <g id="Grupo_45974" data-name="Grupo 45974">
              <g id="Grupo_45973" data-name="Grupo 45973">
                <g id="Grupo_45972" data-name="Grupo 45972">
                  <rect id="Rectángulo_28209" data-name="Rectángulo 28209" width="4.14" height="4.139" fill="#7d6eb2"/>
                </g>
              </g>
            </g>
            <g id="Grupo_45977" data-name="Grupo 45977" transform="translate(0 7.253)">
              <g id="Grupo_45976" data-name="Grupo 45976">
                <g id="Grupo_45975" data-name="Grupo 45975">
                  <rect id="Rectángulo_28210" data-name="Rectángulo 28210" width="4.14" height="4.14" fill="#26aab7"/>
                </g>
              </g>
            </g>
            <g id="Grupo_45980" data-name="Grupo 45980" transform="translate(5.28 9.04)">
              <g id="Grupo_45979" data-name="Grupo 45979">
                <g id="Grupo_45978" data-name="Grupo 45978">
                  <rect id="Rectángulo_28211" data-name="Rectángulo 28211" width="13.122" height="2.352" fill="#efefef"/>
                </g>
              </g>
            </g>
            <g id="Grupo_45983" data-name="Grupo 45983" transform="translate(5.28 1.787)">
              <g id="Grupo_45982" data-name="Grupo 45982">
                <g id="Grupo_45981" data-name="Grupo 45981">
                  <rect id="Rectángulo_28212" data-name="Rectángulo 28212" width="13.122" height="2.352" fill="#efefef"/>
                </g>
              </g>
            </g>
          </g>
          <g id="Grupo_45997" data-name="Grupo 45997" transform="translate(105.321 52.807)">
            <g id="Grupo_45987" data-name="Grupo 45987">
              <g id="Grupo_45986" data-name="Grupo 45986">
                <g id="Grupo_45985" data-name="Grupo 45985">
                  <rect id="Rectángulo_28213" data-name="Rectángulo 28213" width="4.14" height="4.139" fill="#7d6eb2"/>
                </g>
              </g>
            </g>
            <g id="Grupo_45990" data-name="Grupo 45990" transform="translate(0 7.253)">
              <g id="Grupo_45989" data-name="Grupo 45989">
                <g id="Grupo_45988" data-name="Grupo 45988">
                  <rect id="Rectángulo_28214" data-name="Rectángulo 28214" width="4.14" height="4.14" fill="#26aab7"/>
                </g>
              </g>
            </g>
            <g id="Grupo_45993" data-name="Grupo 45993" transform="translate(5.28 9.04)">
              <g id="Grupo_45992" data-name="Grupo 45992">
                <g id="Grupo_45991" data-name="Grupo 45991">
                  <rect id="Rectángulo_28215" data-name="Rectángulo 28215" width="8.635" height="2.352" fill="#efefef"/>
                </g>
              </g>
            </g>
            <g id="Grupo_45996" data-name="Grupo 45996" transform="translate(5.28 1.787)">
              <g id="Grupo_45995" data-name="Grupo 45995">
                <g id="Grupo_45994" data-name="Grupo 45994">
                  <rect id="Rectángulo_28216" data-name="Rectángulo 28216" width="8.635" height="2.352" fill="#efefef"/>
                </g>
              </g>
            </g>
          </g>
          <g id="Grupo_46031" data-name="Grupo 46031">
            <g id="Grupo_46000" data-name="Grupo 46000" transform="translate(59.83 13.256)">
              <g id="Grupo_45999" data-name="Grupo 45999">
                <g id="Grupo_45998" data-name="Grupo 45998">
                  <rect id="Rectángulo_28217" data-name="Rectángulo 28217" width="59.406" height="1.08" fill="#efefef"/>
                </g>
              </g>
            </g>
            <g id="Grupo_46003" data-name="Grupo 46003">
              <g id="Grupo_46002" data-name="Grupo 46002">
                <g id="Grupo_46001" data-name="Grupo 46001">
                  <rect id="Rectángulo_28218" data-name="Rectángulo 28218" width="119.235" height="2.472" fill="#efefef"/>
                </g>
              </g>
            </g>
            <g id="Grupo_46006" data-name="Grupo 46006" transform="translate(59.651 16.615)">
              <g id="Grupo_46005" data-name="Grupo 46005">
                <g id="Grupo_46004" data-name="Grupo 46004">
                  <rect id="Rectángulo_28219" data-name="Rectángulo 28219" width="59.584" height="1.08" fill="#efefef"/>
                </g>
              </g>
            </g>
            <g id="Grupo_46009" data-name="Grupo 46009" transform="translate(59.651 9.897)">
              <g id="Grupo_46008" data-name="Grupo 46008">
                <g id="Grupo_46007" data-name="Grupo 46007">
                  <rect id="Rectángulo_28220" data-name="Rectángulo 28220" width="59.584" height="1.08" fill="#efefef"/>
                </g>
              </g>
            </g>
            <g id="Grupo_46012" data-name="Grupo 46012" transform="translate(59.651 19.974)">
              <g id="Grupo_46011" data-name="Grupo 46011">
                <g id="Grupo_46010" data-name="Grupo 46010">
                  <rect id="Rectángulo_28221" data-name="Rectángulo 28221" width="59.584" height="1.08" fill="#efefef"/>
                </g>
              </g>
            </g>
            <g id="Grupo_46015" data-name="Grupo 46015" transform="translate(59.651 23.333)">
              <g id="Grupo_46014" data-name="Grupo 46014">
                <g id="Grupo_46013" data-name="Grupo 46013">
                  <rect id="Rectángulo_28222" data-name="Rectángulo 28222" width="59.584" height="1.08" fill="#efefef"/>
                </g>
              </g>
            </g>
            <g id="Grupo_46018" data-name="Grupo 46018" transform="translate(59.651 26.691)">
              <g id="Grupo_46017" data-name="Grupo 46017">
                <g id="Grupo_46016" data-name="Grupo 46016">
                  <rect id="Rectángulo_28223" data-name="Rectángulo 28223" width="59.584" height="1.08" fill="#efefef"/>
                </g>
              </g>
            </g>
            <g id="Grupo_46021" data-name="Grupo 46021" transform="translate(59.651 30.05)">
              <g id="Grupo_46020" data-name="Grupo 46020">
                <g id="Grupo_46019" data-name="Grupo 46019">
                  <rect id="Rectángulo_28224" data-name="Rectángulo 28224" width="59.584" height="1.08" fill="#efefef"/>
                </g>
              </g>
            </g>
            <g id="Grupo_46024" data-name="Grupo 46024" transform="translate(59.651 33.409)">
              <g id="Grupo_46023" data-name="Grupo 46023">
                <g id="Grupo_46022" data-name="Grupo 46022">
                  <rect id="Rectángulo_28225" data-name="Rectángulo 28225" width="59.584" height="1.08" fill="#efefef"/>
                </g>
              </g>
            </g>
            <g id="Grupo_46027" data-name="Grupo 46027" transform="translate(59.651 36.768)">
              <g id="Grupo_46026" data-name="Grupo 46026">
                <g id="Grupo_46025" data-name="Grupo 46025">
                  <rect id="Rectángulo_28226" data-name="Rectángulo 28226" width="59.584" height="1.08" fill="#efefef"/>
                </g>
              </g>
            </g>
            <g id="Grupo_46030" data-name="Grupo 46030" transform="translate(66.946 40.127)">
              <g id="Grupo_46029" data-name="Grupo 46029">
                <g id="Grupo_46028" data-name="Grupo 46028">
                  <rect id="Rectángulo_28227" data-name="Rectángulo 28227" width="52.289" height="1.08" fill="#efefef"/>
                </g>
              </g>
            </g>
          </g>
        </g>
        <path id="Trazado_95883" data-name="Trazado 95883" d="M550.628,236.863H424.377a6.063,6.063,0,0,0-6.063,6.063v5.307H556.692v-5.307A6.063,6.063,0,0,0,550.628,236.863Z" transform="translate(-415.506 -236.863)" fill="#26aab7"/>
        <path id="Trazado_95884" data-name="Trazado 95884" d="M518.552,242.036a1.748,1.748,0,1,1-1.749-1.748A1.749,1.749,0,0,1,518.552,242.036Z" transform="translate(-395.165 -236.143)" fill="#cfcfff"/>
        <path id="Trazado_95885" data-name="Trazado 95885" d="M524.441,242.036a1.749,1.749,0,1,1-1.749-1.748A1.749,1.749,0,0,1,524.441,242.036Z" transform="translate(-393.927 -236.143)" fill="#cfcfff"/>
        <path id="Trazado_95886" data-name="Trazado 95886" d="M530.327,242.036a1.748,1.748,0,1,1-1.748-1.748A1.749,1.749,0,0,1,530.327,242.036Z" transform="translate(-392.689 -236.143)" fill="#cfcfff"/>
      </g>
    </g>
    <g id="Grupo_46038" data-name="Grupo 46038" transform="translate(621.018 314.714)">
      <rect id="Rectángulo_28228" data-name="Rectángulo 28228" width="81.704" height="94.486" rx="6.949" transform="translate(0 0)" fill="#00223d"/>
      <g id="Grupo_46036" data-name="Grupo 46036" transform="translate(7.558 9.889)">
        <g id="Grupo_46035" data-name="Grupo 46035">
          <rect id="Rectángulo_28229" data-name="Rectángulo 28229" width="69.099" height="19.407" rx="1.773" fill="url(#linear-gradient)"/>
          <rect id="Rectángulo_28230" data-name="Rectángulo 28230" width="17.768" height="12.319" rx="1.773" transform="translate(0 26.29)" fill="url(#linear-gradient)"/>
          <rect id="Rectángulo_28231" data-name="Rectángulo 28231" width="17.768" height="12.319" rx="1.773" transform="translate(25.666 26.29)" fill="url(#linear-gradient)"/>
          <rect id="Rectángulo_28232" data-name="Rectángulo 28232" width="17.768" height="12.319" rx="1.773" transform="translate(51.332 26.29)" fill="url(#linear-gradient)"/>
          <rect id="Rectángulo_28233" data-name="Rectángulo 28233" width="17.768" height="12.319" rx="1.773" transform="translate(0 46.094)" fill="url(#linear-gradient)"/>
          <rect id="Rectángulo_28234" data-name="Rectángulo 28234" width="17.768" height="12.319" rx="1.773" transform="translate(25.666 46.094)" fill="url(#linear-gradient)"/>
          <rect id="Rectángulo_28235" data-name="Rectángulo 28235" width="17.768" height="12.319" rx="1.773" transform="translate(0 65.898)" fill="url(#linear-gradient)"/>
          <rect id="Rectángulo_28236" data-name="Rectángulo 28236" width="17.768" height="12.319" rx="1.773" transform="translate(25.666 65.898)" fill="url(#linear-gradient)"/>
        </g>
        <rect id="Rectángulo_28237" data-name="Rectángulo 28237" width="17.768" height="32.123" rx="1.773" transform="translate(51.332 46.094)" fill="url(#linear-gradient)"/>
      </g>
      <g id="Grupo_46037" data-name="Grupo 46037" transform="translate(6.302 8.634)" opacity="0.45">
        <path id="Trazado_95891" data-name="Trazado 95891" d="M573.518,294.147A2.146,2.146,0,0,1,575.664,292h64.808a2.146,2.146,0,0,1,2.146,2.146v15.115a2.145,2.145,0,0,1-2.146,2.146H575.664" transform="translate(-573.518 -292.001)" fill="url(#linear-gradient)"/>
        <rect id="Rectángulo_28238" data-name="Rectángulo 28238" width="17.768" height="12.319" rx="1.773" transform="translate(0 26.289)" fill="#e2deff"/>
        <rect id="Rectángulo_28239" data-name="Rectángulo 28239" width="17.768" height="12.319" rx="1.773" transform="translate(25.666 26.289)" fill="#e2deff"/>
        <rect id="Rectángulo_28240" data-name="Rectángulo 28240" width="17.768" height="12.319" rx="1.773" transform="translate(51.332 26.289)" fill="url(#linear-gradient)"/>
        <rect id="Rectángulo_28241" data-name="Rectángulo 28241" width="17.768" height="12.319" rx="1.773" transform="translate(0 46.093)" fill="#e2deff"/>
        <rect id="Rectángulo_28242" data-name="Rectángulo 28242" width="17.768" height="12.319" rx="1.773" transform="translate(25.666 46.093)" fill="#e2deff"/>
        <rect id="Rectángulo_28243" data-name="Rectángulo 28243" width="17.768" height="12.319" rx="1.773" transform="translate(0 65.897)" fill="#e2deff"/>
        <rect id="Rectángulo_28244" data-name="Rectángulo 28244" width="17.768" height="12.319" rx="1.773" transform="translate(25.666 65.897)" fill="#e2deff"/>
      </g>
      <rect id="Rectángulo_28245" data-name="Rectángulo 28245" width="17.768" height="32.123" rx="1.773" transform="translate(57.634 54.727)" fill="#f6c343"/>
      <path id="Trazado_95892" data-name="Trazado 95892" d="M617.187,361.319V333.488a2.145,2.145,0,0,1,2.146-2.146h13.476a2.14,2.14,0,0,1,.749.142,2.141,2.141,0,0,0-2-1.4H618.078a2.146,2.146,0,0,0-2.146,2.147v27.831a2.142,2.142,0,0,0,1.4,2A2.133,2.133,0,0,1,617.187,361.319Z" transform="translate(-558.298 -275.359)" fill="#f9c110"/>
    </g>
    <g id="Grupo_46043" data-name="Grupo 46043" transform="translate(433.811 357.613)">
      <path id="Trazado_95894" data-name="Trazado 95894" d="M417.9,320.388l-4.269,44.227,41.944.009-4.057-44.312Z" transform="translate(-413.627 -320.312)" fill="#f5ca56"/>
      <g id="Grupo_46041" data-name="Grupo 46041" transform="translate(11.583 2.754)">
        <g id="Grupo_46039" data-name="Grupo 46039" transform="translate(0 0.035)">
          <path id="Trazado_95895" data-name="Trazado 95895" d="M423.2,323.951h0a1.469,1.469,0,0,1,1.57-1.334h0a1.349,1.349,0,1,1,0,2.661h0A1.47,1.47,0,0,1,423.2,323.951Zm1.571-.827a.85.85,0,1,0,0,1.646h0a.85.85,0,1,0,0-1.646Zm-1.324.827h0Z" transform="translate(-423.198 -322.617)" fill="#00223d"/>
        </g>
        <g id="Grupo_46040" data-name="Grupo 46040" transform="translate(15.633)">
          <path id="Trazado_95896" data-name="Trazado 95896" d="M436.115,323.922h0a1.218,1.218,0,0,1,.368-.862,1.691,1.691,0,0,1,1.2-.472h.007a1.467,1.467,0,0,1,1.571,1.325,1.224,1.224,0,0,1-.476.958,1.724,1.724,0,0,1-1.093.376h0A1.47,1.47,0,0,1,436.115,323.922Zm1.569-.827a1.188,1.188,0,0,0-.841.324.7.7,0,0,0-.22.5h0a.972.972,0,0,0,1.066.821h0a1.225,1.225,0,0,0,.772-.26.734.734,0,0,0,.29-.564.97.97,0,0,0-1.065-.821Z" transform="translate(-436.115 -322.588)" fill="#00223d"/>
        </g>
      </g>
      <g id="Grupo_46042" data-name="Grupo 46042" transform="translate(12.579 3.574)">
        <path id="Trazado_95897" data-name="Trazado 95897" d="M431.952,333.481c.146,0,.294,0,.447-.007a8.436,8.436,0,0,0,6.51-2.75c2.4-2.862,1.854-6.853,1.83-7.021a.508.508,0,0,0-1.006.144c0,.038.5,3.722-1.607,6.23a7.48,7.48,0,0,1-5.762,2.381c-2.487.074-4.34-.571-5.574-1.945-2.239-2.493-1.688-6.59-1.682-6.631a.509.509,0,0,0-1.007-.144c-.025.186-.626,4.6,1.929,7.449A7.575,7.575,0,0,0,431.952,333.481Z" transform="translate(-424.021 -323.266)" fill="#00223d"/>
      </g>
    </g>
    <g id="Grupo_46051" data-name="Grupo 46051" transform="translate(317.636 247.168)">
      <path id="Trazado_95898" data-name="Trazado 95898" d="M384.643,238.228c1.623,2.8.221,6.633,1.859,9.428.656,1.118,1.766,2,2.08,3.256a2.838,2.838,0,0,1-4.081,3.2,3.471,3.471,0,0,0-.631-.312c-.81-.237-1.543.482-2.239.957a3.417,3.417,0,0,1-2.948.522,4.373,4.373,0,0,1-2.454-2.947c-1.172-3.517-.339-7.368.743-10.914.541-1.772,1.34-3.737,3.078-4.38" transform="translate(-305.436 -227.379)" fill="#00223d"/>
      <path id="Trazado_95899" data-name="Trazado 95899" d="M421.271,264.726c.027.39.621.725.225,1.546-.881,1.83-3.627,4.365-6.912,3.2-.143.051-18.144,10.457-19.531,10.457s-10.834-8.94-13.924-20c-.737-2.64-.45-5.744,2.022-7.08a5.849,5.849,0,0,1,3.4,3.026c2.047,3.863,8.175,16.656,9.533,17.139,1.693-1.128,9.936-3.577,16.612-6.413a4.517,4.517,0,0,0,2.588-2.163,21.525,21.525,0,0,1,2.774-4.324c.357-.365,4.307-2.481,4.307-1.786,0,.4-1.159,1.467-2.671,2.425a3.621,3.621,0,0,0-1.285,1.789c-.258.508,2.831-.425,3.087.644C421.539,263.334,421.257,264.523,421.271,264.726Z" transform="translate(-304.361 -224.054)" fill="#ffb9b0"/>
      <path id="Trazado_95900" data-name="Trazado 95900" d="M382.536,252.577a8.108,8.108,0,0,1,5.376,4.169,16.8,16.8,0,0,1,.732,1.68c.959,2.44,2.278,4.647,3.236,7.086a14.356,14.356,0,0,1-4.233,2.042,9.045,9.045,0,0,1-3.941.529,2,2,0,0,1-.663-.146,2.185,2.185,0,0,1-.69-.593q-.615-.706-1.2-1.44a3.956,3.956,0,0,1-.8-1.377,4.182,4.182,0,0,1,.189-2.146" transform="translate(-304.466 -224.11)" fill="#8ec8c8"/>
      <path id="Trazado_95901" data-name="Trazado 95901" d="M384.279,258.132a.835.835,0,0,0-.309-.263.559.559,0,0,0-.647.287,1.486,1.486,0,0,0-.134.752,10.258,10.258,0,0,0,.46,2.92l-.306,5.145.007.011a9.028,9.028,0,0,0,3.685-.537c.557-.207,1.157-.421,1.762-.666C388.178,262.882,386.2,260.426,384.279,258.132Z" transform="translate(-303.853 -223.003)" fill="#26aab7" opacity="0.35" style="mix-blend-mode: multiply;isolation: isolate"/>
      <path id="Trazado_95902" data-name="Trazado 95902" d="M379.662,248.519s-.069,3.222.426,3.432a12.627,12.627,0,0,0,2.082.644l.033,6.666-8.888-1.34-6.114-3.4s6.355-2.107,6.411-2.74-.35-4.2-.35-4.2" transform="translate(-307.215 -225.161)" fill="#ffb9b0"/>
      <g id="Grupo_46044" data-name="Grupo 46044" transform="translate(56.971 71.075)">
        <path id="Trazado_95903" data-name="Trazado 95903" d="M366.53,330.26l0,.025c-2.431,11.529-1.273,27.368-1.815,36.046.127.035,3.3.433,3.3.433s7.521-36.583,8.886-43.589a9.9,9.9,0,0,0,.173-1.357c.328-5.272-4.423-5.541-7.1-1.182a18.244,18.244,0,0,0-1.225,2.353c-.151.344-.292.692-.438,1.064l0,.012a34.32,34.32,0,0,0-1.179,3.68l-.028.133c-.111.369-.2.743-.292,1.118l-.018.085C366.7,329.469,366.615,329.858,366.53,330.26Z" transform="translate(-364.71 -281.514)" fill="#ffb9b0"/>
        <path id="Trazado_95904" data-name="Trazado 95904" d="M380.421,295.15c-.09.954-.6,5.493-1.209,10.848-.522,4.5-1.093,9.577-1.538,13.6-.33,3.014-.573,5.417-.674,6.549a14.673,14.673,0,0,1-.268,1.946v.025c-1.145,5.265-4.782,5.571-6.994,4.35a4.418,4.418,0,0,1-.84-.572,2.826,2.826,0,0,1-.942-1.552v-.012c-.139-1.082-.28-2.557-.407-4.312v-.025c-.012-.012-.012-.012-.012-.025l-.013-.037c-.267-3.421-.5-7.822-.7-12.108-.241-5.266-.395-10.34-.432-13.2-.013-.166-.013-.318-.025-.471-.039-8.774,8.025-14.4,13.036-11.674a1.277,1.277,0,0,1,.178.088,1.885,1.885,0,0,0,.191.115c.572.381.762,1.691.776,3.191C380.573,292.962,380.5,294.158,380.421,295.15Z" transform="translate(-364.362 -287.783)" fill="#ffb9b0"/>
        <path id="Trazado_95905" data-name="Trazado 95905" d="M368.183,321.627l-.614-2.3c0,.012,0,.012.006.028a36.748,36.748,0,0,1-.762,8.025l-.028.133c-.088.363-.18.749-.292,1.118l-.018.085a6.259,6.259,0,0,0-.26,1.178l0,.025c-.007,1.042,2.212-3.586,2.721-4.668.063-.138.1-.217.1-.217l-.6-2.411Z" transform="translate(-364.395 -281.149)" fill="#ffb9b0"/>
      </g>
      <g id="Grupo_46045" data-name="Grupo 46045" transform="translate(71.493 70.692)">
        <path id="Trazado_95906" data-name="Trazado 95906" d="M382.195,332.419v.025c-.23,12.071,3.5,26.265,4.484,35.033.12,0,3.045-.391,3.045-.391s.557-36.982.6-44.29a11.064,11.064,0,0,0-.074-1.393c-.6-5.324-4.918-4.411-6.587.587a21.6,21.6,0,0,0-.7,2.644c-.076.38-.144.761-.212,1.167v.013a39.765,39.765,0,0,0-.436,3.953l0,.14c-.038.395-.056.789-.073,1.184l0,.09C382.211,331.59,382.2,332,382.195,332.419Z" transform="translate(-375.557 -281.087)" fill="#ffb9b0"/>
        <path id="Trazado_95907" data-name="Trazado 95907" d="M385.855,333.875a3.143,3.143,0,0,1-.848-.37,2.418,2.418,0,0,1-1.11-1.307v-.013c-.317-1.04-.695-2.492-1.113-4.206-.01-.015-.01-.015-.009-.028l-.018-.044c-.815-3.329-1.782-7.65-2.683-11.855-1.107-5.175-2.112-10.188-2.627-13.033-.041-.154-.487-2.226-.517-2.378-1.547-8.818,5.331-14.563,10.33-12.883l.195.068c1.006.4,1.284,3.938,1.51,6.327s1.924,27.15,2.349,31.627a17.883,17.883,0,0,1,.087,2.007C391.282,333.322,388.056,334.534,385.855,333.875Z" transform="translate(-376.709 -287.466)" fill="#ffb9b0"/>
        <path id="Trazado_95908" data-name="Trazado 95908" d="M382.661,323.051l-.943-2.134c0,.013,0,.013.01.027a41.036,41.036,0,0,1,.677,8.17l0,.14c-.018.383-.035.79-.073,1.184l0,.09a7.265,7.265,0,0,0-.034,1.237v.025c.171,1.038,1.382-4.116,1.656-5.319.033-.152.054-.241.054-.241l-.95-2.249Z" transform="translate(-375.656 -280.432)" fill="#ffb9b0"/>
      </g>
      <path id="Trazado_95909" data-name="Trazado 95909" d="M370.852,280.048s-6.472,8.223-5.808,16.485c.276,3.438.7,6.469,1.094,9.929.057.5.833,7.764.614,7.771,0,0,13.337,4.121,26.222-1.278,0-.881,1.031-17.791-5.929-33.914A112.159,112.159,0,0,1,370.852,280.048Z" transform="translate(-307.678 -218.546)" fill="#7d6eb2"/>
      <path id="Trazado_95910" data-name="Trazado 95910" d="M390.965,266.846c-.051,2.355-1.3,3.789-3.1,5.774a70.2,70.2,0,0,0-.975,9.1c-.1,1.817.677,2.958,0,3.107-2.587,2.257-11.911,4.085-16.188,1,.448-3.8-1.253-12.161-2.4-16.414-.179-.655-.336-1.208-.479-1.634-1.069-3.23-3-13.589-1.57-14.04.284-.09.726-.206,1.238-.361,2.235-.674,5.538-1.832,5.538-1.832s1.938,5.732,6.975,6.424c2.75-1.133,2.508-4.61,2.475-6.209.9.248,1.295.495,4.082,1.32.781,1.127.107,3.477,1.369,6.982C388.242,260.935,391.027,263.977,390.965,266.846Z" transform="translate(-307.521 -224.327)" fill="#8ec8c8"/>
      <path id="Trazado_95911" data-name="Trazado 95911" d="M385.591,237.69s.509,6.227-.553,9.491a7.747,7.747,0,0,1-6.718,4.643c-7.436,0-8.77-10.1-8.731-10.589s10.967-4.727,10.967-4.727Z" transform="translate(-306.713 -227.489)" fill="#ffb9b0"/>
      <path id="Trazado_95912" data-name="Trazado 95912" d="M383.456,288.237" transform="translate(-303.797 -216.612)" fill="#f2f2f2"/>
      <g id="Grupo_46046" data-name="Grupo 46046" transform="translate(81.452 156.239)">
        <path id="Trazado_95913" data-name="Trazado 95913" d="M396.523,362.489c-2.647.477-5.475-.267-6.635-.067-.959.163-3.42.788-4.341-.04s-.773-3.751.286-4.14a3.8,3.8,0,0,0,.687.166,7.237,7.237,0,0,0,3.133-.257c2.014.829,2.088,1.191,4.377,1.653a14.883,14.883,0,0,1,2.917.885C397.935,361.14,398.014,362.222,396.523,362.489Z" transform="translate(-384.938 -358.151)" fill="#8ec8c8"/>
      </g>
      <g id="Grupo_46047" data-name="Grupo 46047" transform="translate(55.325 154.199)">
        <path id="Trazado_95914" data-name="Trazado 95914" d="M372.491,364.009c-2.652-.447-4.33-1.913-5.49-2.115-.957-.171-3.369-.64-3.622-1.629-.188-.735.541-3.791,1.669-3.8a3.869,3.869,0,0,0,.591.389,7.254,7.254,0,0,0,3.035.817c1.616,1.461,1.564,1.826,3.562,3.034a14.872,14.872,0,0,1,2.446,1.819C375.459,363.282,373.986,364.26,372.491,364.009Z" transform="translate(-363.35 -356.465)" fill="#8ec8c8"/>
      </g>
      <g id="Grupo_46048" data-name="Grupo 46048" transform="translate(25.822 28.561)">
        <path id="Trazado_95915" data-name="Trazado 95915" d="M338.972,262.078l2.435-2.9,14.857,13.285s7.254-9.655,9.249-12.67c2.194-3.315,4.172-6.151,7.38-6.7.739.456-.249,12.363-.635,12.651-4.483,3.354-13.205,14.171-15.979,14.734C353.075,281.124,338.972,262.078,338.972,262.078Z" transform="translate(-338.972 -252.563)" fill="#ffb9b0"/>
        <path id="Trazado_95916" data-name="Trazado 95916" d="M369.972,252.655s-3.035.039-4.34,1.113-7.541,10.959-7.541,10.959a4.394,4.394,0,0,0,1.64,3.434,9.1,9.1,0,0,0,4.491,1.944s3.13-3.115,4.894-4.532c1.1-.884,1.208,1.3,1.208,1.3l5.519-5.388Z" transform="translate(-334.953 -252.655)" fill="#8ec8c8"/>
      </g>
      <path id="Trazado_95917" data-name="Trazado 95917" d="M366.908,257.408c-.166-.088-.328-.184-.485-.278a4.09,4.09,0,0,1-1.993-2.011,6.665,6.665,0,0,1-.042-4.889,19.453,19.453,0,0,1,2.04-2.341,7.227,7.227,0,0,0,1.2-4.065,26.819,26.819,0,0,1,.289-4.29c.514-2.4,1.2-4.684,3.047-6.229,2.961-2.476,8.9-3.943,12.127-1.182.587.5.7.905,1.495.983a5.831,5.831,0,0,1,2.71.792c1.059.612,2.344,1.475,2.2,2.866a4.982,4.982,0,0,1-2.02,2.94,2.448,2.448,0,0,1-1.141.255c-1.259.024-2.3-.794-3.539-.662a2.353,2.353,0,0,0-1.549.861c-.445.549-.385,1.316-.9,1.829-.834.824-2.126.754-3.114,1.29a1.044,1.044,0,0,0-.426.351,1.122,1.122,0,0,0-.108.529l-.057,1.56c-.49-.215-.541-.913-.945-1.264a1.123,1.123,0,0,0-1.416.091,2.375,2.375,0,0,0-.683,1.358,3.9,3.9,0,0,0,.275,1.863c.323,1.06,1.232,2.015,1.965,1.314.533.783-.05,2.09-.069,2.975-.016.7,0,2.094.654,2.555.6.425,1.56.1,1.6,1.2a2.1,2.1,0,0,1-1.961,1.9,7.355,7.355,0,0,1-2.935-.512,4.6,4.6,0,0,0-2.942-.144,8.9,8.9,0,0,1-1.652.743A2.588,2.588,0,0,1,366.908,257.408Z" transform="translate(-307.901 -228.725)" fill="#00223d"/>
      <path id="Trazado_95918" data-name="Trazado 95918" d="M346.047,262.448s-3.492-2.8-3.73-3.565-.289-1.587-.577-2.336a4.372,4.372,0,0,0-2.423-2.411c-.875-.361-.447-.657-1.385-.476-1.415.274-2.087,1.66-2.652,2.745-2.412,4.622,4.194,5.5,4.426,5.507.482.019,2.94,2.805,2.94,2.805" transform="translate(-314.038 -223.894)" fill="#ffb9b0"/>
      <g id="Grupo_46050" data-name="Grupo 46050" transform="translate(8.471 6.597)">
        <path id="Trazado_95919" data-name="Trazado 95919" d="M335.023,260.663l2.391,1.6a.659.659,0,0,0,.931-.211l5.254-8.8-3.114-1.755-5.64,8.253A.659.659,0,0,0,335.023,260.663Z" transform="translate(-322.513 -230.936)" fill="#00223d"/>
        <g id="Grupo_46049" data-name="Grupo 46049">
          <path id="Trazado_95920" data-name="Trazado 95920" d="M328.091,244.545l.823.56,3.328-4.851-.823-.56a2.783,2.783,0,0,0-3.784.98h0A2.763,2.763,0,0,0,328.091,244.545Z" transform="translate(-324.126 -233.5)" fill="#00223d"/>
          <path id="Trazado_95921" data-name="Trazado 95921" d="M325.4,251.323l15.31,2.324,3.5-5.1-7.726-13.376Z" transform="translate(-324.475 -234.366)" fill="url(#linear-gradient)"/>
          <path id="Trazado_95922" data-name="Trazado 95922" d="M326.206,249.621l14.331,2.112,1.394-2.031-12.061-5.42Z" transform="translate(-324.305 -232.451)" fill="#00223d"/>
          <path id="Trazado_95923" data-name="Trazado 95923" d="M343.375,254.295h0a1.947,1.947,0,0,0,2.647-.685l.621-.907a1.932,1.932,0,0,0-.318-2.706h0a1.948,1.948,0,0,0-2.647.685l-.622.906A1.931,1.931,0,0,0,343.375,254.295Z" transform="translate(-320.847 -231.308)" fill="#00223d"/>
          <path id="Trazado_95924" data-name="Trazado 95924" d="M343.678,250.55l-.62.905a1.811,1.811,0,1,0,2.965,2.02l.621-.9a2.021,2.021,0,0,0,.127-.213,1.779,1.779,0,1,1-2.94-2A2.066,2.066,0,0,0,343.678,250.55Z" transform="translate(-320.847 -231.174)" fill="url(#linear-gradient)"/>
          <path id="Trazado_95925" data-name="Trazado 95925" d="M325.058,251.966h0a1.143,1.143,0,0,0,1.554-.4l10.5-15.3a1.136,1.136,0,0,0-.188-1.59h0a1.142,1.142,0,0,0-1.554.4l-10.5,15.3A1.136,1.136,0,0,0,325.058,251.966Z" transform="translate(-324.635 -234.507)" fill="#00223d"/>
          <path id="Trazado_95926" data-name="Trazado 95926" d="M337.2,234.883l-8.747,12.745a1.144,1.144,0,0,1-1.554.4.95.95,0,0,1-.269-.292l-1.756,2.559a1.064,1.064,0,1,0,1.742,1.187l10.5-15.3A1.205,1.205,0,0,0,337.2,234.883Z" transform="translate(-324.635 -234.428)" fill="url(#linear-gradient)"/>
          <path id="Trazado_95927" data-name="Trazado 95927" d="M339.389,254.04l.991.675a3.474,3.474,0,0,0,4.725-1.224l.985-1.434a3.449,3.449,0,0,0-.57-4.833l-.991-.675a3.474,3.474,0,0,0-4.725,1.224l-.985,1.434A3.45,3.45,0,0,0,339.389,254.04Z" transform="translate(-321.804 -232.079)" fill="url(#linear-gradient)"/>
          <path id="Trazado_95928" data-name="Trazado 95928" d="M339.035,248.594l-1.474,2.148a1.091,1.091,0,0,0,.18,1.53l4.61,3.142a1.1,1.1,0,0,0,1.5-.387l1.474-2.148a1.1,1.1,0,0,1-1.5.387l-4.61-3.141A1.093,1.093,0,0,1,339.035,248.594Z" transform="translate(-321.966 -231.545)" fill="#00223d"/>
        </g>
      </g>
      <path id="Trazado_95929" data-name="Trazado 95929" d="M335.4,258.094a4.816,4.816,0,0,1,.841-3.6,7.739,7.739,0,0,1,.858-.925,1.186,1.186,0,0,1,.517-.341,1.629,1.629,0,0,1,1.119.253,2.038,2.038,0,0,1,.917.911,1.215,1.215,0,0,1-.673,1.462.253.253,0,0,0-.123.122c-.028.084.03.19.085.284a2.079,2.079,0,0,1,.355,1.195.7.7,0,0,1-.822.615c-.18-.029-.421-.1-.48.039a.294.294,0,0,0,0,.156,1.279,1.279,0,0,1-.278,1.008.353.353,0,0,1-.221.139.586.586,0,0,1-.232-.031,3.156,3.156,0,0,1-.818-.363" transform="translate(-313.912 -223.979)" fill="#ffb9b0"/>
      <path id="Trazado_95930" data-name="Trazado 95930" d="M341.489,259.077a18.327,18.327,0,0,1-.286-1.878,4.272,4.272,0,0,0-2.02-3.512.511.511,0,0,0-.328-.094.362.362,0,0,0-.267.315.972.972,0,0,0,.064.433c.142.444.772,1.278.577,1.736a5.194,5.194,0,0,0-.5,2.177c.022.664.332,1.743,1.118,1.852" transform="translate(-313.232 -223.898)" fill="#ffb9b0"/>
      <line id="Línea_1503" data-name="Línea 1503" x2="3.08" y2="7.263" transform="translate(10.503)" fill="none" stroke="#00223d" stroke-linecap="round" stroke-linejoin="round" stroke-width="0.75"/>
      <line id="Línea_1504" data-name="Línea 1504" x2="6.313" y2="4.731" transform="translate(4.071 6.459)" fill="none" stroke="#00223d" stroke-linecap="round" stroke-linejoin="round" stroke-width="0.75"/>
      <line id="Línea_1505" data-name="Línea 1505" x2="7.851" y2="0.771" transform="translate(0 15.256)" fill="none" stroke="#00223d" stroke-linecap="round" stroke-linejoin="round" stroke-width="0.75"/>
    </g>
    <g id="Grupo_46060" data-name="Grupo 46060" transform="translate(554.613 156.19)">
      <g id="Grupo_46059" data-name="Grupo 46059" transform="translate(0 3.284)">
        <path id="Trazado_95931" data-name="Trazado 95931" d="M527.988,180.193s-2.82-1.99-2.92-2.825a19.319,19.319,0,0,0-2.7-4.9c-.628-.674-3.935-1.819-4.639-1.921s-4.751.243-4.248.8,3.122.351,3.626.654l.5.3s-.5.684-.3,1.1-.864,1.051-.461,1.755-.163.657.2,1.393c.6,1.214,2.119,1.89,2.522,1.559.3.719,1.458,2.186,2.542,2.085s3.716,2.366,3.716,2.366" transform="translate(-513.442 -153.666)" fill="#ffb9b0"/>
        <path id="Trazado_95932" data-name="Trazado 95932" d="M562.822,166.819c.1,1.894-.039,5.192.5,5.681s2.292.413,2.292.413-6.257,7.911-6.816,7.477-7.96-6.465-6.3-6.777,3.291-.244,3.244-1.1-.094-1.722-.142-2.583" transform="translate(-505.28 -154.448)" fill="#ffb9b0"/>
        <path id="Trazado_95933" data-name="Trazado 95933" d="M570.759,208.049s-12.208,1.386-15.018,1.444-2.671-1.41-2.671-1.41a111.713,111.713,0,0,0-1.249-12.853c-.542-2.307-.783-3.159-1.255-5.351-1.05-4.871-1-5.8-2.117-11.815l7.292-5.861a3.847,3.847,0,0,0,3.811,2.281c4.086.052,5.357-2.809,5.357-2.809l9.946,6.6.933,16.063L574.6,207.57" transform="translate(-506.082 -153.427)" fill="#f5ca56"/>
        <path id="Trazado_95934" data-name="Trazado 95934" d="M563.309,167.252a21.229,21.229,0,0,1-.861,2.807,3.181,3.181,0,0,1-3.368,2.32l-3.738.088a4.268,4.268,0,0,1-2.919-.616c-.766-.666-.783-1.785-.953-2.707q-.325-1.768-.53-3.557a52.305,52.305,0,0,1-.329-7.033,5.014,5.014,0,0,1,.083-.962.7.7,0,0,1,.16-.353.785.785,0,0,1,.449-.173,38.365,38.365,0,0,1,7.067-.453,8.025,8.025,0,0,1,4.758,1.264,8.962,8.962,0,0,1,2.529,4.279c.091.254.159.593-.062.748" transform="translate(-505.629 -156.597)" fill="#ffb9b0"/>
        <g id="Grupo_46055" data-name="Grupo 46055" transform="translate(18.657 53.524)">
          <g id="Grupo_46052" data-name="Grupo 46052" transform="translate(5.422 42.947)">
            <path id="Trazado_95935" data-name="Trazado 95935" d="M538.476,238.007a26.629,26.629,0,0,0,.729,3.258c.323.829,3.046.064,3.227-.472s-.857-4.485-.857-4.485" transform="translate(-532.257 -236.308)" fill="#ed9c80"/>
            <path id="Trazado_95936" data-name="Trazado 95936" d="M544.459,240.75c.236.894.534,2.613.534,2.613l-2.723,1.185-.447-.419a5.037,5.037,0,0,1-1.51,1.2,11.313,11.313,0,0,1-2.635.731c-2.377.255-4.126-.191-4.267-.52-.589-1.377,2.565-1.746,3.19-1.911a4.179,4.179,0,0,0,2.987-2.993c.139-.721-.04-.848.363-.827a.96.96,0,0,1,.681.321,1.719,1.719,0,0,0,1.934.449,2.056,2.056,0,0,0,.965-.8A1.188,1.188,0,0,1,544.459,240.75Z" transform="translate(-533.338 -235.578)" fill="#f5ca56"/>
          </g>
          <g id="Grupo_46053" data-name="Grupo 46053">
            <path id="Trazado_95937" data-name="Trazado 95937" d="M552.531,213.7a46.134,46.134,0,0,1-13.9.329c.6,1.725,2.076,3.933,2.637,6.361,1.854,8.016,2.5,18.784,2.969,25.446,0,0-.89,1.71-3.743.408-4.263-10.528-11.706-31.865-11.637-36.494.088-5.893,14.8-7.316,25.577-8.768" transform="translate(-528.858 -200.789)" fill="#00223d"/>
            <path id="Trazado_95938" data-name="Trazado 95938" d="M571.04,201.932c3.39,2.475-18.789,11.8-18.789,11.8a36.933,36.933,0,0,1-7.269.693,5.3,5.3,0,0,1-.541-1.375c-.131-.644-.061-1.314-.173-1.961a4.559,4.559,0,0,0-2.216-2.987,9.973,9.973,0,0,0-3.625-1.174,48.6,48.6,0,0,0-8.235-.145c6.666-4.914,20.3-5.556,26.657-5.961C558.066,202.826,570.553,201.577,571.04,201.932Z" transform="translate(-528.577 -200.822)" fill="#00223d"/>
          </g>
          <g id="Grupo_46054" data-name="Grupo 46054" transform="translate(11.16 49.114)">
            <path id="Trazado_95939" data-name="Trazado 95939" d="M544.285,242.538a26.658,26.658,0,0,0,.153,3.335c.174.874,2.989.592,3.259.094s-.067-4.565-.067-4.565" transform="translate(-536.774 -241.403)" fill="#ed9c80"/>
            <path id="Trazado_95940" data-name="Trazado 95940" d="M549.816,246.169c.078.923.073,2.666.073,2.666l-2.886.7-.368-.491a5.029,5.029,0,0,1-1.7.925,11.312,11.312,0,0,1-2.723.263c-2.384-.16-4.029-.9-4.111-1.251-.343-1.458,2.827-1.276,3.472-1.329a4.18,4.18,0,0,0,3.46-2.43c.263-.686.109-.842.5-.75a.96.96,0,0,1,.615.433,1.718,1.718,0,0,0,1.827.777,2.057,2.057,0,0,0,1.089-.623A1.187,1.187,0,0,1,549.816,246.169Z" transform="translate(-538.079 -240.764)" fill="#f5ca56"/>
          </g>
          <path id="Trazado_95941" data-name="Trazado 95941" d="M575.89,201.334a137.371,137.371,0,0,1-15.025.479c-1.919,0-16.434,2.723-17.822,5.182-2.284,4.046,1.49,27.691,1.14,44.619,0,0,1.74,1.452,4.818.087.765-8.316,5.679-27.933,2.289-37.091,8,1.061,14.458,2.117,21.732-.294a5.806,5.806,0,0,0,3.742-3.967C577.53,208.139,577.129,203.309,575.89,201.334Z" transform="translate(-526.03 -200.714)" fill="#00223d"/>
        </g>
        <g id="Grupo_46056" data-name="Grupo 46056" transform="translate(9.336 18.777)">
          <path id="Trazado_95942" data-name="Trazado 95942" d="M561.479,172.112s-1.744.1-2.084.123a16.026,16.026,0,0,0-4.311.816c-1.978.732-3.373,2.572-4.983,4.011-1.55,1.385-9.584,9.039-11.082,9.321s-14.653-8.732-14.653-8.732l-3.211,3.212s14.273,13.188,18.529,13.211c2.066.011,13.459-5.987,17.106-8.318Z" transform="translate(-521.156 -172.112)" fill="#f5ca56"/>
          <path id="Trazado_95943" data-name="Trazado 95943" d="M539.718,190.129c-2.934.166-16.38-10.1-17.938-11.3l-.623.623s14.273,13.188,18.529,13.211c1.722.008,9.917-4.154,14.711-6.891l1.242-.72-.744-4.434S542.834,189.954,539.718,190.129Z" transform="translate(-521.156 -170.7)" fill="#ce4a30" opacity="0.25" style="mix-blend-mode: multiply;isolation: isolate"/>
        </g>
        <g id="Grupo_46057" data-name="Grupo 46057" transform="translate(7.471 35.91)">
          <path id="Trazado_95944" data-name="Trazado 95944" d="M526.19,207.14h32.672L553,188.042a2.511,2.511,0,0,0-2.4-1.774H521.99a1.628,1.628,0,0,0-1.556,2.106Z" transform="translate(-519.458 -186.268)" fill="#00223d"/>
          <path id="Trazado_95945" data-name="Trazado 95945" d="M525.936,207.14h32.18l-5.858-19.1a2.511,2.511,0,0,0-2.4-1.774H521.245a1.629,1.629,0,0,0-1.558,2.106l5.612,18.3A.665.665,0,0,0,525.936,207.14Z" transform="translate(-519.615 -186.268)" fill="url(#linear-gradient)"/>
        </g>
        <path id="Trazado_95946" data-name="Trazado 95946" d="M569.976,181.409a127.913,127.913,0,0,0-2.373,18.363c-5.709,2.216-8.034,5.515-13.62,8,0,0-4.411-.732-4.874.932-.268.96,5.164,1.723,5.164,1.723,5.177.024,18.832-3.759,19.755-4.013s3.615-17.611,3.723-27.03a5.92,5.92,0,0,0-.869-3.833,5.022,5.022,0,0,0-1.685-1.247,23.488,23.488,0,0,0-10.425-2.63" transform="translate(-505.945 -153.427)" fill="#ce4a30" opacity="0.25" style="mix-blend-mode: multiply;isolation: isolate"/>
        <path id="Trazado_95947" data-name="Trazado 95947" d="M555.36,202.593a3.269,3.269,0,0,0-2.718-.86,19.95,19.95,0,0,0-2.183.174c-.329.045-.709.122-.743.479s1.6,0,2.457.247a43.177,43.177,0,0,1-5.052.138,1.449,1.449,0,0,0-.582.059.484.484,0,0,0-.327.443.6.6,0,0,0,.231.385,3.429,3.429,0,0,0,1.738.7,13.384,13.384,0,0,0,7.679-.678" transform="translate(-506.552 -147.107)" fill="#ffb9b0"/>
        <path id="Trazado_95948" data-name="Trazado 95948" d="M568.773,181.271c-.134,7.859-.692,11.456-.54,19.316-3.945.844-9.407,5.311-14.994,7.8a2.95,2.95,0,0,0,.185,2.044c.426.156,18.844-4.328,20.308-5.677,1.318-1.215,3.062-15.946,3.17-25.366a5.92,5.92,0,0,0-.869-3.833,5.022,5.022,0,0,0-1.685-1.247,23.488,23.488,0,0,0-10.425-2.63" transform="translate(-505.096 -153.427)" fill="#f5ca56"/>
        <g id="Grupo_46058" data-name="Grupo 46058" transform="translate(21.13 43.642)">
          <path id="Trazado_95949" data-name="Trazado 95949" d="M540.172,195.69c.116,1.675-1.863,3.032-4.421,3.032s-4.727-1.357-4.845-3.032,1.863-3.033,4.421-3.033S540.054,194.015,540.172,195.69Z" transform="translate(-530.901 -192.657)" stroke="#00223d" stroke-miterlimit="10" stroke-width="1" opacity="0.45" fill="url(#linear-gradient)"/>
          <ellipse id="Elipse_3863" data-name="Elipse 3863" cx="1.685" cy="2.946" rx="1.685" ry="2.946" transform="matrix(0.039, -0.999, 0.999, 0.039, 1.628, 4.602)" fill="#00223d"/>
        </g>
      </g>
      <path id="Trazado_95950" data-name="Trazado 95950" d="M557.845,161.3c-.062-.294-.714-.352-1.37-.27a10.44,10.44,0,0,0-2.761.582c-.359.28-.339.48-.53.5s-.2-.175-.618-.358a5.551,5.551,0,0,0-2.082.028c-.655.082-1.278.228-1.265.528a1.68,1.68,0,0,0,.263.905c.133.084.133.069.649,1.254a1.251,1.251,0,0,0,1.578.857c1.078-.235,1.146-1.463,1.23-1.976s.161-.589.324-.61.276.031.484.508.358,1.576,1.463,1.637c1.446.081,2.073-.414,2.274-1.341.271-1.257.209-1.262.318-1.376a6.852,6.852,0,0,1,1.081.092l-.024-.375A8.175,8.175,0,0,1,557.845,161.3Zm-5.253,2.531a1.259,1.259,0,0,1-1.066,1.319c-.663.084-.967-.269-1.326-1.118a2.2,2.2,0,0,1-.214-1.532c.113-.2.471-.2,1.294-.248s1.1-.07,1.232.293A4.467,4.467,0,0,1,552.592,163.832Zm4.715-.693c-.137.911-.471,1.349-1.38,1.458-1.288.155-1.536-.353-1.726-.967a4.472,4.472,0,0,1-.241-1.267c.04-.384.31-.436,1.121-.588s1.894-.343,2.054-.173A2.191,2.191,0,0,1,557.307,163.139Z" transform="translate(-505.92 -152.388)" fill="#f5ca56"/>
      <path id="Trazado_95951" data-name="Trazado 95951" d="M566.734,160.79a13.96,13.96,0,0,0-.359-1.938,6.175,6.175,0,0,0-3.018-3.956,9.652,9.652,0,0,0-6.83-.68c-1.25.35-1.714,1.008-2.358.99a7.082,7.082,0,0,1-1.749-.576c-4.886-1.756-4.066,3.027-3.546,4.34.231.581,1.339,1,1.486,1.245a14.906,14.906,0,0,1,.225,1.946,1.032,1.032,0,0,0,.609.719s.027-1.539.051-1.748a1.939,1.939,0,0,1,.723-1.443,4.483,4.483,0,0,1,1.757-.494,13.384,13.384,0,0,1,3.6.6c.913.783,1.147,2.569,1.4,3.62.119.49.243.819.443.812.151-1.446.654-1.483,1.519-.989a2.52,2.52,0,0,1,.736,1.956,2.064,2.064,0,0,1-1.458,2.135c-.345.074.7,2.047,1.177,2.539a2.637,2.637,0,0,0,.51.448,2.337,2.337,0,0,0,.588.218l.7.19a1.827,1.827,0,0,0,.96.082c.516-.145.788-.692,1.02-1.175.381-.792.821-1.559,1.133-2.382A14.145,14.145,0,0,0,566.734,160.79Z" transform="translate(-506.076 -153.884)" fill="#00223d"/>
    </g>
    <g id="Grupo_46066" data-name="Grupo 46066" transform="translate(641.468 199.238)">
      <path id="Trazado_95952" data-name="Trazado 95952" d="M647.05,225.721H585.208l7.406-5.479V193.494a4.041,4.041,0,0,1,4.041-4.041h50.4a4.041,4.041,0,0,1,4.041,4.041V221.68A4.041,4.041,0,0,1,647.05,225.721Z" transform="translate(-585.208 -189.453)" fill="#26aab7"/>
      <g id="Grupo_46065" data-name="Grupo 46065" transform="translate(12.274 5.217)">
        <rect id="Rectángulo_28246" data-name="Rectángulo 28246" width="28.262" height="2.704" transform="translate(19.973)" fill="#fff" opacity="0.45"/>
        <rect id="Rectángulo_28247" data-name="Rectángulo 28247" width="28.262" height="2.704" transform="translate(19.973 4.04)" fill="#fff" opacity="0.45"/>
        <rect id="Rectángulo_28248" data-name="Rectángulo 28248" width="28.262" height="2.704" transform="translate(19.973 8.08)" fill="#fff" opacity="0.45"/>
        <rect id="Rectángulo_28249" data-name="Rectángulo 28249" width="28.262" height="2.704" transform="translate(19.973 12.016)" fill="#fff" opacity="0.45"/>
        <rect id="Rectángulo_28250" data-name="Rectángulo 28250" width="19.709" height="2.704" transform="translate(19.973 16.725)" fill="#fff" opacity="0.45"/>
        <g id="Grupo_46064" data-name="Grupo 46064">
          <rect id="Rectángulo_28251" data-name="Rectángulo 28251" width="17.753" height="20.758" rx="3.385" fill="url(#linear-gradient)"/>
          <rect id="Rectángulo_28252" data-name="Rectángulo 28252" width="17.753" height="2.228" transform="translate(0 23.343)" fill="#fff" opacity="0.45"/>
          <g id="Grupo_46063" data-name="Grupo 46063" transform="translate(2.142 4.648)">
            <path id="Trazado_95953" data-name="Trazado 95953" d="M605.605,205.968h-6.442a.8.8,0,0,1-.776-.593l-1.239-4.577a.8.8,0,0,1,.776-1.013h8.921a.8.8,0,0,1,.776,1.013l-1.239,4.577A.8.8,0,0,1,605.605,205.968Z" transform="translate(-597.12 -197.145)" fill="#26aab7"/>
            <g id="Grupo_46061" data-name="Grupo 46061" transform="translate(1.702)">
              <path id="Trazado_95954" data-name="Trazado 95954" d="M606.445,207.457h-7.759a.16.16,0,0,1,0-.321h7.638l2.7-9.416a.159.159,0,0,1,.154-.116h1.688a.16.16,0,0,1,0,.321H609.3l-2.7,9.416A.159.159,0,0,1,606.445,207.457Z" transform="translate(-598.526 -197.604)" fill="#26aab7"/>
            </g>
            <g id="Grupo_46062" data-name="Grupo 46062" transform="translate(1.173 10.176)">
              <path id="Trazado_95955" data-name="Trazado 95955" d="M599.966,206.95a.939.939,0,1,1-.939-.938A.939.939,0,0,1,599.966,206.95Z" transform="translate(-598.089 -206.012)" fill="#26aab7"/>
              <circle id="Elipse_3864" data-name="Elipse 3864" cx="0.938" cy="0.938" r="0.938" transform="translate(6.822)" fill="#26aab7"/>
            </g>
          </g>
        </g>
      </g>
    </g>
    <g id="Grupo_46073" data-name="Grupo 46073" transform="translate(468.425 142.915)">
      <path id="Trazado_95956" data-name="Trazado 95956" d="M447.376,198.151h78.792l-9.436-6.981V148.062a5.147,5.147,0,0,0-5.148-5.147H447.376a5.147,5.147,0,0,0-5.148,5.147V193A5.148,5.148,0,0,0,447.376,198.151Z" transform="translate(-442.228 -142.915)" fill="#f5ca56"/>
      <g id="Grupo_46072" data-name="Grupo 46072" transform="translate(6.845 7.993)">
        <g id="Grupo_46067" data-name="Grupo 46067" transform="translate(0 0)" opacity="0.45">
          <rect id="Rectángulo_28253" data-name="Rectángulo 28253" width="36.008" height="3.446" transform="translate(36.008 3.446) rotate(180)" fill="#fff"/>
          <rect id="Rectángulo_28254" data-name="Rectángulo 28254" width="36.008" height="3.445" transform="translate(36.008 8.593) rotate(180)" fill="#fff"/>
          <rect id="Rectángulo_28255" data-name="Rectángulo 28255" width="36.008" height="3.445" transform="translate(36.008 13.74) rotate(180)" fill="#fff"/>
          <rect id="Rectángulo_28256" data-name="Rectángulo 28256" width="36.008" height="3.445" transform="translate(36.008 18.755) rotate(180)" fill="#fff"/>
          <rect id="Rectángulo_28257" data-name="Rectángulo 28257" width="36.008" height="3.445" transform="translate(36.008 23.77) rotate(180)" fill="#fff"/>
          <rect id="Rectángulo_28258" data-name="Rectángulo 28258" width="36.008" height="3.445" transform="translate(36.008 32.883) rotate(180)" fill="#fff"/>
          <rect id="Rectángulo_28259" data-name="Rectángulo 28259" width="61.456" height="3.445" transform="translate(61.456 38.31) rotate(180)" fill="#fff"/>
        </g>
        <g id="Grupo_46071" data-name="Grupo 46071" transform="translate(38.837 0)">
          <rect id="Rectángulo_28260" data-name="Rectángulo 28260" width="22.619" height="26.448" rx="4.313" transform="translate(22.619 26.448) rotate(180)" fill="url(#linear-gradient)"/>
          <rect id="Rectángulo_28261" data-name="Rectángulo 28261" width="22.619" height="2.839" transform="translate(22.619 32.58) rotate(180)" fill="#fff" opacity="0.45"/>
          <g id="Grupo_46070" data-name="Grupo 46070" transform="translate(1.795 5.923)">
            <path id="Trazado_95957" data-name="Trazado 95957" d="M487.927,165.069h8.208a1.025,1.025,0,0,0,.989-.756l1.578-5.83a1.023,1.023,0,0,0-.987-1.291H486.348a1.023,1.023,0,0,0-.988,1.291l1.578,5.83A1.025,1.025,0,0,0,487.927,165.069Z" transform="translate(-480.644 -153.829)" fill="#f5ca56"/>
            <g id="Grupo_46068" data-name="Grupo 46068">
              <path id="Trazado_95958" data-name="Trazado 95958" d="M487.294,166.965h9.885a.2.2,0,1,0,0-.408h-9.732l-3.44-12a.2.2,0,0,0-.2-.148h-2.151a.2.2,0,1,0,0,.408h2l3.44,12A.2.2,0,0,0,487.294,166.965Z" transform="translate(-481.457 -154.413)" fill="#f5ca56"/>
            </g>
            <g id="Grupo_46069" data-name="Grupo 46069" transform="translate(5.518 12.964)">
              <path id="Trazado_95959" data-name="Trazado 95959" d="M493.2,166.321a1.2,1.2,0,1,0,1.195-1.2A1.195,1.195,0,0,0,493.2,166.321Z" transform="translate(-484.506 -165.125)" fill="#f5ca56"/>
              <path id="Trazado_95960" data-name="Trazado 95960" d="M486.016,166.321a1.2,1.2,0,1,0,1.195-1.2A1.195,1.195,0,0,0,486.016,166.321Z" transform="translate(-486.016 -165.125)" fill="#f5ca56"/>
            </g>
          </g>
        </g>
      </g>
    </g>
    <g id="Grupo_46080" data-name="Grupo 46080" transform="translate(610.709 250.028)">
      <path id="Trazado_95961" data-name="Trazado 95961" d="M583.056,368.9a8.721,8.721,0,0,1-3.624,2.744c-1.933.864-6.033,1.27-3.755,2.031a13.657,13.657,0,0,0,6.278.085,27.12,27.12,0,0,1,4.235-.257c2.093-.013,2.109-.143,1.828-2.5C587.629,367.757,584,367.069,583.056,368.9Z" transform="translate(-556.594 -202.721)" fill="#26aab7"/>
      <path id="Trazado_95962" data-name="Trazado 95962" d="M613.783,368.034c-.116.655.813,2.64-.851,4.1s-5.44,2.991-2.936,3.047a14.579,14.579,0,0,0,6.181-1.151c1.272-.629.256-1.619,1.836-2.117,2.08-.657,1.651-2.187.57-3.133C617.2,365.66,614.158,365.915,613.783,368.034Z" transform="translate(-549.412 -203.03)" fill="#26aab7"/>
      <path id="Trazado_95963" data-name="Trazado 95963" d="M611.68,317.792s4.986-14.66-9.16-26.736c0,0-7.581,3.018-13.652,3.383a33.7,33.7,0,0,1-7.208-.154s-.4,13.024-.42,20.043Z" transform="translate(-555.284 -218.88)" fill="#00223d"/>
      <path id="Trazado_95964" data-name="Trazado 95964" d="M580.293,334.081c-.274-6.555,6.833-5.7,9.455-.8,5.419,10.125-2,33.444-2.98,44.494a5.628,5.628,0,0,1-3.752.234,2.62,2.62,0,0,1-1.09-1.205C582.083,363.25,580.586,341.09,580.293,334.081Z" transform="translate(-555.484 -210.82)" fill="#00223d"/>
      <path id="Trazado_95965" data-name="Trazado 95965" d="M589.5,341.24c-.818,2.677-9.89,5.492-9.154-4.25.326-4.321,1.195-28.18,1.362-30.479s.553-5.662,1.664-6.082c5.559-2.1,15.391,5.17,13.928,13.807C596.322,320.008,591.193,335.689,589.5,341.24Z" transform="translate(-555.481 -216.986)" fill="#00223d"/>
      <path id="Trazado_95966" data-name="Trazado 95966" d="M599.768,338.146c-2.193-6.182,4.933-7.276,8.974-3.467,9.464,8.92,9.831,29.937,12.151,40.786a8.3,8.3,0,0,1-4.138,1.185,1.479,1.479,0,0,1-1.128-.577C611.783,363.074,602.115,344.757,599.768,338.146Z" transform="translate(-551.474 -210.172)" fill="#00223d"/>
      <path id="Trazado_95967" data-name="Trazado 95967" d="M610.628,342.557c.248,2.787-7.315,8.548-10.291-.756-1.32-4.127-6.972-28.514-7.68-30.708s-.514-6.725.358-7.531c4.364-4.033,14.215-.487,16.1,8.066C610.381,317.344,610.115,336.776,610.628,342.557Z" transform="translate(-552.974 -216.6)" fill="#00223d"/>
      <g id="Grupo_46079" data-name="Grupo 46079">
        <path id="Trazado_95968" data-name="Trazado 95968" d="M575.25,249.425c.258-.272.516-.545.745-.84,1.792-2.292,2.054-4.324,3.714-6.984a20.749,20.749,0,0,1,1.207-2.309,9.659,9.659,0,0,1,2.7-2.209c.776-.407.109,1.3.109,1.3s.658-.955,1.295-.887c.248.027.292,1.485.3,1.734a12.247,12.247,0,0,1-1.36,5.79,2.982,2.982,0,0,0-.464,1.316,2.941,2.941,0,0,0,1.564-.77,1.889,1.889,0,0,1,1.636-.477,4.482,4.482,0,0,1-.315.684,7.167,7.167,0,0,1-2.864,3.39c-.813.385-1.754.454-2.548.876-1.434.762-2.131,2.527-3.587,3.247" transform="translate(-556.543 -230.241)" fill="#f2a181"/>
        <rect id="Rectángulo_28262" data-name="Rectángulo 28262" width="6.195" height="11.406" rx="0.646" transform="matrix(0.923, 0.386, -0.386, 0.923, 26.628, 7.086)" fill="#5e5dbb"/>
        <rect id="Rectángulo_28263" data-name="Rectángulo 28263" width="5.194" height="10.182" transform="translate(27.009 7.909) rotate(22.698)" fill="#b4b4db"/>
        <path id="Trazado_95969" data-name="Trazado 95969" d="M591.593,256.7a33.867,33.867,0,0,0-6.923,1.169c-4.926,1.479-6.62,3.76-8.322,4.7,3.305-4.2,6.99-13.106,6.99-13.106s-4.444-3.65-4.955-2.786-19.162,22.689-18.578,26.223c.241,1.457,2.4,2.9,4.309,2.832,5.289-.182,11.43-2.106,17.868-4.213,2.831-.926,3.7,1.07,3.7,1.07" transform="translate(-559.793 -228.239)" fill="#f1f1f1"/>
        <path id="Trazado_95970" data-name="Trazado 95970" d="M574.025,260.177s-2.349,4.735-3.055,5.043,1.712-.986,3.035-2.353a28.039,28.039,0,0,0,3.133-4.952A27.188,27.188,0,0,0,574.025,260.177Z" transform="translate(-557.469 -225.848)" fill="#707070"/>
        <path id="Trazado_95971" data-name="Trazado 95971" d="M580.072,240.829a1.071,1.071,0,0,1,.333.746,5.881,5.881,0,0,1-.091,3.139,4.527,4.527,0,0,1-1.264,1.607,9.885,9.885,0,0,1-1.923,1.314" transform="translate(-556.148 -229.44)" fill="#f2a181"/>
        <path id="Trazado_95972" data-name="Trazado 95972" d="M586.745,234.32c-1.247.359-1.9,1.968-2.329,3.069a17.073,17.073,0,0,0-.931,4.14,5.683,5.683,0,0,0,.2,2.913,6.121,6.121,0,0,0,.813,1.267,2.682,2.682,0,0,0,.586.617.9.9,0,0,0,.811.138c.388-.149.545-.605.655-1.006a26.5,26.5,0,0,1,2.98-7.536" transform="translate(-554.83 -230.809)" fill="#00223d"/>
        <path id="Trazado_95973" data-name="Trazado 95973" d="M585.454,241.328c-.026-.833-.9-1.376-1.661-.513a5.313,5.313,0,0,0-.831,3.069c-.044,1.2.886,1.434,1.651,1.6" transform="translate(-554.922 -229.535)" fill="#f2a181"/>
        <path id="Trazado_95974" data-name="Trazado 95974" d="M578.24,259.26c1.538-1.763,6.418-4.672,12.941-4.465,4.494.142,16.733.883,18.1,3.89.7,1.537,1.45,17.275.426,22.7-.77,4.081-2.739,14.189-2.739,16.629s1.311,3.486.7,4.194c-1.37,1.587-10.735,2.252-15.132,2.252-3.913,0-10.574-1.043-10.912-2.3-.5-1.86.764-1.791.936-3.742s.664-14.614-.053-16.686c-1.3-3.742-1.926-9.844-2.954-12.612C578.772,267.024,576.7,261.024,578.24,259.26Z" transform="translate(-556.031 -226.506)" fill="#f1f1f1"/>
        <path id="Trazado_95975" data-name="Trazado 95975" d="M604.17,269.02c.466.971,3.633,6.063,3.633,6.063l.128.61a25.158,25.158,0,0,1-.322,2.721c-.77,4.081-2.739,14.189-2.739,16.629s1.255,3.441.7,4.194c-1.08,1.463-18.738,4.754-17.87.668.079-.369,14.821-11.617,14.9-11.995.679-3.228,1.272-5.554,1.57-7.908C604.886,274.337,603.7,268.05,604.17,269.02Z" transform="translate(-553.931 -223.534)" fill="#707070"/>
        <path id="Trazado_95976" data-name="Trazado 95976" d="M586.155,250.7a48.342,48.342,0,0,1-.247,5.326,8.072,8.072,0,0,1-1.219.685s.721,4.449,1.836,4.119S595,256.783,595,256.783s-1.044-.425-1.044-.837.991-8.465.991-8.465" transform="translate(-554.558 -228.042)" fill="#ffbe9d"/>
        <path id="Trazado_95977" data-name="Trazado 95977" d="M591.6,234.777c-1.074.293-3.9-.293-4.681.877s-1.463,4-1.756,4.779c-.582,1.553-.962,3.213-1.385,4.814-.552,2.086-1.461,5.909.581,7.654a2.717,2.717,0,0,0,1.574.8c.967.174,1.928.373,2.9.546a9.719,9.719,0,0,0,4.645.1c1.987-.645,3.077-3.378,3.588-5.233l2.925-10.631Z" transform="translate(-554.893 -230.713)" fill="#ffbe9d"/>
        <path id="Trazado_95978" data-name="Trazado 95978" d="M585.966,260.162s-.431,19.977-1.244,32.129l2.939,4.051,2.019-5.073a154.476,154.476,0,0,0-1.91-30.967Z" transform="translate(-554.551 -225.375)" fill="#26aab7"/>
        <path id="Trazado_95979" data-name="Trazado 95979" d="M585.191,258.931l.069.275a5.587,5.587,0,0,0,.608,1.48h0l1.8.139s1.225-.643,1.387-1.333-2.011-1.82-2.011-1.82l-.264.1a3.935,3.935,0,0,0-1.57,1.129Z" transform="translate(-554.453 -225.899)" fill="#26aab7"/>
        <path id="Trazado_95980" data-name="Trazado 95980" d="M593.656,253.446a7.527,7.527,0,0,1,2.056,2.084c-.927,2.12-3.022,5.888-5.33,7.6a10.419,10.419,0,0,0-3.659-4.574S593.011,257.441,593.656,253.446Z" transform="translate(-554.13 -226.788)" fill="#fff"/>
        <path id="Trazado_95981" data-name="Trazado 95981" d="M587.364,258.514a7.739,7.739,0,0,0-3.585,3.407,17.136,17.136,0,0,1,.487-6.324s1.477-1.889,1.987-1.928A9.926,9.926,0,0,0,587.364,258.514Z" transform="translate(-554.771 -226.741)" fill="#fff"/>
        <g id="Grupo_46078" data-name="Grupo 46078" transform="translate(5.938 30.321)">
          <path id="Trazado_95982" data-name="Trazado 95982" d="M587.741,294.522a6.648,6.648,0,0,0-4.317,2.41.465.465,0,0,0-.188.372c.029.178.238.257.416.286,1.037.167,1.205-.5,2.175-.9.655-.274,1.3-.557,1.956-.84" transform="translate(-560.803 -248.471)" fill="#f2a181"/>
          <g id="Grupo_46077" data-name="Grupo 46077" transform="translate(0 25.487)">
            <g id="Grupo_46074" data-name="Grupo 46074" transform="translate(0 3.227)">
              <path id="Trazado_95983" data-name="Trazado 95983" d="M584.057,281.263l7.913,25.36a.908.908,0,0,1-.839,1.272l-16.51,1.449a1.53,1.53,0,0,1-1.383-1.066L564.729,283.3c-.213-.68.77-1.653,1.433-1.658l16.51-1.449A1.53,1.53,0,0,1,584.057,281.263Z" transform="translate(-564.699 -280.197)" fill="#00223d"/>
            </g>
            <g id="Grupo_46075" data-name="Grupo 46075" transform="translate(0.024 3.889)">
              <path id="Trazado_95984" data-name="Trazado 95984" d="M583.511,281.81l7.8,24.969a.908.908,0,0,1-.839,1.273l-16.51,1.449a1.531,1.531,0,0,1-1.383-1.067l-7.8-24.968a.908.908,0,0,1,.839-1.273l16.509-1.449A1.532,1.532,0,0,1,583.511,281.81Z" transform="translate(-564.719 -280.744)" fill="url(#linear-gradient)"/>
            </g>
            <g id="Grupo_46076" data-name="Grupo 46076" transform="translate(5.626)">
              <path id="Trazado_95985" data-name="Trazado 95985" d="M569.348,281.072l.586,2.189,7.722-.682-.635-2.18Z" transform="translate(-569.348 -276.928)" fill="#fff"/>
              <path id="Trazado_95986" data-name="Trazado 95986" d="M570.573,279.642c.16.51.773,2.476.773,2.476l3.686-.341-.773-2.476a2.506,2.506,0,0,0-2.446-1.762A1.508,1.508,0,0,0,570.573,279.642Zm.817-.051a.847.847,0,0,1,.7-1.18,1.409,1.409,0,0,1,1.372.989.846.846,0,0,1-.7,1.18A1.406,1.406,0,0,1,571.39,279.591Z" transform="translate(-569.111 -277.531)" fill="#fff"/>
            </g>
          </g>
          <path id="Trazado_95987" data-name="Trazado 95987" d="M594.128,293.059c-1.732.361-6.348,1.738-6.833,1.967a20.447,20.447,0,0,0-2.943,2.176c-1.737,1.743-.848,2.555-1.533,4.919a1.381,1.381,0,0,0-.042.374c0,.246.333.459.668.229.182.3.718.116.978-.215,0,.236.326.385.857.091.287-.159.236-.144.9-.736a6.978,6.978,0,0,1,1.878-1.144,13.644,13.644,0,0,0,1.834-.837c.7-.461,1.951-.571,2.568-2.573a2,2,0,0,1,.963-.962l2.822-1.769" transform="translate(-560.899 -248.779)" fill="#ffbe9d"/>
          <path id="Trazado_95988" data-name="Trazado 95988" d="M603.281,268.266c.735,2.619,3.789,20.767,3.789,20.767L589.862,301.5l1.432,3.764s20.59-6.913,22.212-11.639,1.547-26.073-4.172-33.562c-1.82-2.384-5.468-3.587-5.468-3.587" transform="translate(-559.409 -256.472)" fill="#f1f1f1"/>
          <path id="Trazado_95989" data-name="Trazado 95989" d="M586.816,298.458a11.052,11.052,0,0,0-1.2.925c-.491.518-.861,1.092-1.387,1.711" transform="translate(-560.594 -247.644)" fill="none" stroke="#f2a181" stroke-miterlimit="10" stroke-width="0.25"/>
          <path id="Trazado_95990" data-name="Trazado 95990" d="M586.026,297.516a6.218,6.218,0,0,0-1.418,1.72,23.24,23.24,0,0,1-1.129,2.18" transform="translate(-560.751 -247.842)" fill="none" stroke="#f2a181" stroke-miterlimit="10" stroke-width="0.25"/>
          <path id="Trazado_95991" data-name="Trazado 95991" d="M585.031,296.754c-.167.267-.875.933-1.018,1.213a10.96,10.96,0,0,0-.98,2.8" transform="translate(-560.845 -248.002)" fill="none" stroke="#f2a181" stroke-miterlimit="10" stroke-width="0.25"/>
        </g>
        <path id="Trazado_95992" data-name="Trazado 95992" d="M598,247.977c-.674-.395-1.191-.811-1.63-.165-.232.342-.374.816-.771.933a.8.8,0,0,1-.9-.639,2.312,2.312,0,0,1,.149-1.214q.407-1.307.812-2.615a3.939,3.939,0,0,0,.19-2.619,2.881,2.881,0,0,0-.825-1.058A8.743,8.743,0,0,0,591,238.883a42.669,42.669,0,0,1-4.322-.888,4.682,4.682,0,0,1-1.646-.828,3.552,3.552,0,0,1-1.167-2.661,5.491,5.491,0,0,1,.845-2.836,4.72,4.72,0,0,0,.431.984,3.658,3.658,0,0,1,.788-1.234c.42,2.342,10.28,1.559,12.583,2.592,1.6.715,2.918,1.184,2.87,3.771a.947.947,0,0,0,.312.411,7.2,7.2,0,0,1,2.205,5.228c.218,2.873-1.455,5.982-3.095,8.351a5.327,5.327,0,0,1-1.218,1.456,3.231,3.231,0,0,1-2.291.518c-.71-.136-2.112-.075-2.125-.8-.01-.518,1.1-1.441,1.4-1.859" transform="translate(-554.73 -231.419)" fill="#00223d"/>
        <path id="Trazado_95993" data-name="Trazado 95993" d="M593.415,247.968a.9.9,0,0,0,1.352,1.025,3.117,3.117,0,0,0,1.968-2.413c.232-1.243-.436-2.485-1.572-2.161a1.677,1.677,0,0,0-1.073,1.635" transform="translate(-552.728 -228.697)" fill="#ffbe9d"/>
        <path id="Trazado_95994" data-name="Trazado 95994" d="M585.911,250.5l3.164.582a4.411,4.411,0,0,1-3.2,1.182" transform="translate(-554.31 -227.406)" fill="#f2a181"/>
      </g>
    </g>
    <g id="Grupo_46083" data-name="Grupo 46083" transform="translate(380.839 203.797)" opacity="0.3">
      <g id="Grupo_46082" data-name="Grupo 46082">
        <g id="Grupo_46081" data-name="Grupo 46081" transform="translate(13.147 12.033)">
          <path id="Trazado_95995" data-name="Trazado 95995" d="M380.722,206.229l4.237,2.133-2.119-5.2" transform="translate(-380.722 -203.163)" fill="#00223d"/>
        </g>
        <path id="Trazado_95996" data-name="Trazado 95996" d="M369.859,201.672a8.971,8.971,0,1,0,8.956-8.452A8.715,8.715,0,0,0,369.859,201.672Z" transform="translate(-369.859 -193.22)" fill="#00223d"/>
      </g>
      <path id="Trazado_95997" data-name="Trazado 95997" d="M375.447,198.02v6.042a.633.633,0,0,0,.95.548l5.232-3.021a.633.633,0,0,0,0-1.1l-5.232-3.021A.633.633,0,0,0,375.447,198.02Z" transform="translate(-368.684 -192.344)" fill="#fefefe"/>
    </g>
    <g id="Grupo_46088" data-name="Grupo 46088" transform="translate(682.345 268.066)" opacity="0.3">
      <g id="Grupo_46085" data-name="Grupo 46085">
        <g id="Grupo_46084" data-name="Grupo 46084" transform="translate(0.527 12.032)">
          <path id="Trazado_95998" data-name="Trazado 95998" d="M623.656,259.331l-4.237,2.133,2.119-5.2" transform="translate(-619.418 -256.265)" fill="#00223d"/>
        </g>
        <path id="Trazado_95999" data-name="Trazado 95999" d="M636.895,254.774a8.971,8.971,0,1,1-8.956-8.451A8.715,8.715,0,0,1,636.895,254.774Z" transform="translate(-618.983 -246.323)" fill="#00223d"/>
      </g>
      <g id="Grupo_46087" data-name="Grupo 46087" transform="translate(3.697 2.776)">
        <g id="Grupo_46086" data-name="Grupo 46086" transform="translate(3.586)">
          <path id="Trazado_96000" data-name="Trazado 96000" d="M625.072,258.34c1.952.031,3.929.057,5.723-.06.568-.038,1.059-.89.369-1.158a1.256,1.256,0,0,0,.712-.583.567.567,0,0,0-.346-.761c.678.159.944-.856.416-1.182a1.485,1.485,0,0,0,.571-.864.847.847,0,0,0-.413-.893,1.559,1.559,0,0,0-.7-.115l-2.435-.017a5.033,5.033,0,0,0-.359-3.558c-.195-.317-.716-.7-1.132-.453-.389.229-.281.8-.261,1.156A4.011,4.011,0,0,1,625,253.544S625.093,256.72,625.072,258.34Z" transform="translate(-625.001 -248.617)" fill="#fefefe"/>
        </g>
        <rect id="Rectángulo_28264" data-name="Rectángulo 28264" width="2.95" height="4.792" transform="translate(0 4.927)" fill="#fefefe"/>
      </g>
    </g>
    <g id="Grupo_46093" data-name="Grupo 46093" transform="translate(540.109 204.461)" opacity="0.3">
      <g id="Grupo_46090" data-name="Grupo 46090">
        <g id="Grupo_46089" data-name="Grupo 46089" transform="translate(10.308 2.013)">
          <path id="Trazado_96001" data-name="Trazado 96001" d="M511.12,198.771l3.092-3.34-4.236.83" transform="translate(-509.975 -195.431)" fill="#00223d"/>
        </g>
        <path id="Trazado_96002" data-name="Trazado 96002" d="M501.458,199.9a6.506,6.506,0,1,0,6.5-6.129A6.32,6.32,0,0,0,501.458,199.9Z" transform="translate(-501.458 -193.768)" fill="#00223d"/>
      </g>
      <g id="Grupo_46092" data-name="Grupo 46092" transform="translate(2.854 2.013)">
        <g id="Grupo_46091" data-name="Grupo 46091" transform="translate(2.349)">
          <path id="Trazado_96003" data-name="Trazado 96003" d="M505.8,202.483c1.279.022,2.573.041,3.749-.045.373-.027.693-.644.242-.84a.848.848,0,0,0,.466-.422.423.423,0,0,0-.226-.552c.444.115.618-.621.272-.858a1.087,1.087,0,0,0,.374-.626.64.64,0,0,0-.27-.649.931.931,0,0,0-.461-.082l-1.6-.013a4.007,4.007,0,0,0-.235-2.58c-.128-.23-.47-.5-.742-.328-.254.166-.184.578-.171.839A2.964,2.964,0,0,1,505.757,199S505.818,201.308,505.8,202.483Z" transform="translate(-505.757 -195.431)" fill="#fefefe"/>
        </g>
        <rect id="Rectángulo_28265" data-name="Rectángulo 28265" width="1.933" height="3.475" transform="translate(0 3.573)" fill="#fefefe"/>
      </g>
    </g>
    <g id="Grupo_46094" data-name="Grupo 46094" transform="translate(564.73 149.458)" opacity="0.3">
      <path id="Trazado_96004" data-name="Trazado 96004" d="M538.873,163.876a9.56,9.56,0,1,0-2.178,2l3.711,1.979Z" transform="translate(-521.802 -148.321)" fill="#00223d"/>
      <path id="Trazado_96005" data-name="Trazado 96005" d="M526.5,154.193a2.339,2.339,0,0,1,3.309.034l.6.609.614-.6a2.339,2.339,0,1,1,3.282,3.334l-2.275,2.241-.013.016a2.34,2.34,0,0,1-3.309-.035l-2.239-2.286A2.34,2.34,0,0,1,526.5,154.193Z" transform="translate(-520.961 -147.227)" fill="#fff"/>
    </g>
  </g>
</svg>
