<svg xmlns="http://www.w3.org/2000/svg" width="70.437" height="88.047" viewBox="0 0 70.437 88.047">
  <g id="Grupo_54469" data-name="Grupo 54469" transform="translate(-234.184 -16811.977)">
    <g id="Grupo_14192" data-name="Grupo 14192" transform="translate(234.184 16811.977)">
      <g id="Grupo_14191" data-name="Grupo 14191" transform="translate(0)">
        <g id="Grupo_14190" data-name="Grupo 14190">
          <path id="Trazado_23516" data-name="Trazado 23516" d="M233.47,8.8a1.467,1.467,0,0,0,1.467-1.467V1.467a1.467,1.467,0,0,0-2.935,0v5.87A1.467,1.467,0,0,0,233.47,8.8Z" transform="translate(-198.252)" fill="#12263f"/>
          <path id="Trazado_23517" data-name="Trazado 23517" d="M140.177,26.818l2.935,5.082a1.467,1.467,0,0,0,2.551-1.451l-.01-.017-2.935-5.082a1.467,1.467,0,0,0-2.551,1.451Z" transform="translate(-123.105 -20.094)" fill="#12263f"/>
          <path id="Trazado_23518" data-name="Trazado 23518" d="M73.337,94.706l.017.01,5.082,2.935a1.467,1.467,0,0,0,1.484-2.532l-.017-.01-5.082-2.935a1.467,1.467,0,1,0-1.484,2.532Z" transform="translate(-68.098 -75.102)" fill="#12263f"/>
          <path id="Trazado_23519" data-name="Trazado 23519" d="M56.808,185.467A1.467,1.467,0,0,0,55.34,184H49.47a1.467,1.467,0,0,0,0,2.935h5.87A1.467,1.467,0,0,0,56.808,185.467Z" transform="translate(-48.003 -150.249)" fill="#12263f"/>
          <path id="Trazado_23520" data-name="Trazado 23520" d="M78.452,260.164l-.017.01-5.082,2.935a1.467,1.467,0,0,0,1.45,2.552l.017-.01,5.082-2.935a1.467,1.467,0,0,0-1.45-2.551Z" transform="translate(-68.097 -212.286)" fill="#12263f"/>
          <path id="Trazado_23521" data-name="Trazado 23521" d="M370.9,263.118l-.017-.01-5.082-2.935a1.467,1.467,0,1,0-1.485,2.532l.017.01,5.082,2.935a1.467,1.467,0,0,0,1.485-2.532Z" transform="translate(-305.706 -212.286)" fill="#12263f"/>
          <path id="Trazado_23522" data-name="Trazado 23522" d="M391.34,184h-5.87a1.467,1.467,0,1,0,0,2.935h5.87a1.467,1.467,0,0,0,0-2.935Z" transform="translate(-322.371 -150.249)" fill="#12263f"/>
          <path id="Trazado_23523" data-name="Trazado 23523" d="M365.117,97.847a1.468,1.468,0,0,0,.734-.2l5.082-2.935a1.467,1.467,0,1,0-1.451-2.551l-.017.01-5.082,2.935a1.467,1.467,0,0,0,.734,2.738Z" transform="translate(-305.751 -75.102)" fill="#12263f"/>
          <path id="Trazado_23524" data-name="Trazado 23524" d="M308.731,32.437h0a1.467,1.467,0,0,0,2-.538h0l2.935-5.082a1.467,1.467,0,0,0-2.532-1.485l-.01.017L308.2,30.432A1.468,1.468,0,0,0,308.731,32.437Z" transform="translate(-260.307 -20.094)" fill="#12263f"/>
          <path id="Trazado_23525" data-name="Trazado 23525" d="M184.145,189.349a1.467,1.467,0,0,0,1.467-1.467V171.739h2.935a5.87,5.87,0,1,0-5.87-5.87V168.8h-2.935V165.87a5.87,5.87,0,1,0-5.87,5.87h2.935v16.142a1.467,1.467,0,0,0,2.935,0V171.739h2.935v16.142A1.467,1.467,0,0,0,184.145,189.349Zm1.467-23.479a2.935,2.935,0,1,1,2.935,2.935h-2.935Zm-8.8,2.935h-2.935a2.935,2.935,0,1,1,2.935-2.935Z" transform="translate(-145.992 -130.652)" fill="#12263f"/>
          <path id="Trazado_23526" data-name="Trazado 23526" d="M136.682,64.029a23.479,23.479,0,0,0-16.023,41.6,4.373,4.373,0,0,1,1.676,3.356v3.441a4.4,4.4,0,0,0,2.935,4.132V118.3a4.374,4.374,0,0,0,1.145,2.935,4.335,4.335,0,0,0,0,5.87,4.383,4.383,0,0,0,3.258,7.337,1.431,1.431,0,0,0,1.206-2.255,1.555,1.555,0,0,0-.164-.254,1.516,1.516,0,0,0-.408-.267c-.043-.022-.085-.04-.129-.057a1.557,1.557,0,0,0-.462-.092c-.015,0-.028-.009-.043-.009a1.467,1.467,0,1,1,0-2.935h5.87a1.467,1.467,0,1,0,0-2.935h-5.87a1.467,1.467,0,1,1,0-2.935h5.87a1.467,1.467,0,1,0,0-2.935h-5.87A1.467,1.467,0,0,1,128.2,118.3v-1.467h7.337a1.467,1.467,0,1,0,0-2.935h-8.8a1.468,1.468,0,0,1-1.467-1.467v-3.441a7.3,7.3,0,0,0-2.751-5.628,20.544,20.544,0,0,1,14.024-36.392,20.78,20.78,0,0,1,19.543,20.39,20.423,20.423,0,0,1-7.623,16.087,7.274,7.274,0,0,0-2.649,5.713v3.271a1.468,1.468,0,0,1-1.467,1.467h-4.4a1.467,1.467,0,1,0,0,2.935h2.935V118.3a1.467,1.467,0,0,1-1.467,1.467h-1.467a1.467,1.467,0,1,0,0,2.935h1.467a1.467,1.467,0,0,1,0,2.935h-1.467a1.467,1.467,0,1,0,0,2.935h1.467a1.467,1.467,0,1,1,0,2.935h-7.337a1.467,1.467,0,0,0,0,2.935h5.619a4.4,4.4,0,0,1-7.441,1.457,1.468,1.468,0,1,0-2.192,1.952,7.321,7.321,0,0,0,12.695-3.641,4.36,4.36,0,0,0,1.915-7.105,4.335,4.335,0,0,0,0-5.87,4.374,4.374,0,0,0,1.145-2.935v-1.737a4.4,4.4,0,0,0,2.935-4.132v-3.271a4.411,4.411,0,0,1,1.557-3.429,23.34,23.34,0,0,0,8.715-18.393A23.752,23.752,0,0,0,136.682,64.029Z" transform="translate(-100.323 -52.262)" fill="#12263f"/>
        </g>
      </g>
    </g>
  </g>
</svg>
