<svg xmlns="http://www.w3.org/2000/svg" xmlns:xlink="http://www.w3.org/1999/xlink" width="141.922" height="141.922" viewBox="0 0 141.922 141.922">
  <defs>
    <linearGradient id="linear-gradient" x1="0.5" x2="0.5" y2="1" gradientUnits="objectBoundingBox">
      <stop offset="0" stop-color="#fff"/>
      <stop offset="1" stop-color="#d3d3d3"/>
    </linearGradient>
  </defs>
  <g id="spread-social-distancing-home-human" transform="translate(-16 -16)">
    <path id="Trazado_24323" data-name="Trazado 24323" d="M386.577,161.461v18.923H344V161.461A9.461,9.461,0,0,1,353.461,152l4.731,14.192h14.192L377.115,152A9.462,9.462,0,0,1,386.577,161.461Z" transform="translate(-231.02 -95.789)" fill="#aee6e6"/>
    <path id="Trazado_24324" data-name="Trazado 24324" d="M399.654,58.365v7.1a9.461,9.461,0,0,1-7.167,9.178,9.236,9.236,0,0,1-2.294.284h-4.731a9.236,9.236,0,0,1-2.294-.284A9.461,9.461,0,0,1,376,65.461v-7.1h7.1l7.1-2.365,2.365,2.365Z" transform="translate(-253.559 -28.173)" fill="#ffdaaa"/>
    <path id="Trazado_24325" data-name="Trazado 24325" d="M399.654,33.461v2.365h-7.1l-2.365-2.365-7.1,2.365H376V33.461A9.461,9.461,0,0,1,385.461,24h4.731A9.461,9.461,0,0,1,399.654,33.461Z" transform="translate(-253.559 -5.635)" fill="#00223d"/>
    <path id="Trazado_24326" data-name="Trazado 24326" d="M399.654,152l-4.731,14.192H380.731L376,152h23.654Z" transform="translate(-253.559 -95.789)" fill="url(#linear-gradient)"/>
    <path id="Trazado_24327" data-name="Trazado 24327" d="M226.577,408.558v11.827H184V401.461A9.462,9.462,0,0,1,193.461,392l4.731,14.192h14.192L217.115,392a9.462,9.462,0,0,1,9.461,9.461Z" transform="translate(-118.327 -264.828)" fill="#b54273"/>
    <path id="Trazado_24328" data-name="Trazado 24328" d="M239.654,298.365v7.1a9.461,9.461,0,0,1-7.167,9.178,9.238,9.238,0,0,1-2.294.284h-4.731a9.238,9.238,0,0,1-2.294-.284A9.461,9.461,0,0,1,216,305.461v-7.1h7.1l7.1-2.365,2.365,2.365Z" transform="translate(-140.866 -197.212)" fill="#ffdaaa"/>
    <path id="Trazado_24329" data-name="Trazado 24329" d="M239.654,273.461v2.365h-7.1l-2.365-2.365-7.1,2.365H216v-2.365A9.462,9.462,0,0,1,225.461,264h4.731A9.462,9.462,0,0,1,239.654,273.461Z" transform="translate(-140.866 -174.674)" fill="#00223d"/>
    <path id="Trazado_24330" data-name="Trazado 24330" d="M239.654,392l-4.731,14.192H220.731L216,392h23.654Z" transform="translate(-140.866 -264.828)" fill="url(#linear-gradient)"/>
    <path id="Trazado_24331" data-name="Trazado 24331" d="M66.577,161.461v18.923H24V161.461A9.461,9.461,0,0,1,33.461,152l4.731,14.192H52.384L57.115,152A9.461,9.461,0,0,1,66.577,161.461Z" transform="translate(-5.635 -95.789)" fill="#7d6eb2"/>
    <path id="Trazado_24332" data-name="Trazado 24332" d="M79.654,63.1v2.365a9.461,9.461,0,0,1-7.167,9.178,9.236,9.236,0,0,1-2.294.284H65.461a9.236,9.236,0,0,1-2.294-.284A9.461,9.461,0,0,1,56,65.461v-7.1h7.1L70.192,56l2.365,2.365h7.1Z" transform="translate(-28.173 -28.173)" fill="#ffdaaa"/>
    <path id="Trazado_24333" data-name="Trazado 24333" d="M79.654,33.461v2.365h-7.1l-2.365-2.365-7.1,2.365H56V33.461A9.461,9.461,0,0,1,65.461,24h4.731A9.461,9.461,0,0,1,79.654,33.461Z" transform="translate(-28.173 -5.635)" fill="#00223d"/>
    <path id="Trazado_24334" data-name="Trazado 24334" d="M79.654,152l-4.731,14.192H60.731L56,152H79.654Z" transform="translate(-28.173 -95.789)" fill="url(#linear-gradient)"/>
    <path id="Trazado_24335" data-name="Trazado 24335" d="M442.923,161.461v18.923h-9.461V161.461A9.462,9.462,0,0,0,424,152h9.461A9.461,9.461,0,0,1,442.923,161.461Z" transform="translate(-287.366 -95.789)" fill="#8bd6d6"/>
    <path id="Trazado_24336" data-name="Trazado 24336" d="M433.461,152l-4.731,14.192H424L428.731,152Z" transform="translate(-287.366 -95.789)" fill="url(#linear-gradient)"/>
    <path id="Trazado_24337" data-name="Trazado 24337" d="M422.192,72v4.731a9.461,9.461,0,0,1-7.167,9.178,9.235,9.235,0,0,1-2.294.284H408a9.235,9.235,0,0,0,2.294-.284,9.461,9.461,0,0,0,7.167-9.178V72Z" transform="translate(-276.097 -39.442)" fill="#ffc477"/>
    <path id="Trazado_24338" data-name="Trazado 24338" d="M422.192,33.461v4.731h-4.731V33.461A9.462,9.462,0,0,0,408,24h4.731A9.462,9.462,0,0,1,422.192,33.461Z" transform="translate(-276.097 -5.635)" fill="#00223d"/>
    <path id="Trazado_24339" data-name="Trazado 24339" d="M409.461,119.324v9.461H400v-9.461l.071-.284a9.235,9.235,0,0,0,2.294.284H407.1a9.235,9.235,0,0,0,2.294-.284Z" transform="translate(-270.463 -72.574)" fill="#ffdaaa"/>
    <path id="Trazado_24340" data-name="Trazado 24340" d="M122.923,161.461v18.923h-9.461V161.461A9.461,9.461,0,0,0,104,152h9.461A9.461,9.461,0,0,1,122.923,161.461Z" transform="translate(-61.981 -95.789)" fill="#6351a0"/>
    <path id="Trazado_24341" data-name="Trazado 24341" d="M113.461,152l-4.731,14.192H104L108.731,152Z" transform="translate(-61.981 -95.789)" fill="url(#linear-gradient)"/>
    <path id="Trazado_24342" data-name="Trazado 24342" d="M102.192,72v4.731a9.461,9.461,0,0,1-7.167,9.178,9.235,9.235,0,0,1-2.294.284H88a9.235,9.235,0,0,0,2.294-.284,9.461,9.461,0,0,0,7.167-9.178V72Z" transform="translate(-50.712 -39.442)" fill="#ffc477"/>
    <path id="Trazado_24343" data-name="Trazado 24343" d="M102.192,33.461v4.731H97.461V33.461A9.461,9.461,0,0,0,88,24h4.731A9.462,9.462,0,0,1,102.192,33.461Z" transform="translate(-50.712 -5.635)" fill="#00223d"/>
    <path id="Trazado_24344" data-name="Trazado 24344" d="M89.461,119.324v9.461H80v-9.461l.071-.284a9.235,9.235,0,0,0,2.294.284H87.1a9.235,9.235,0,0,0,2.294-.284Z" transform="translate(-45.077 -72.574)" fill="#ffdaaa"/>
    <path id="Trazado_24345" data-name="Trazado 24345" d="M282.923,401.461v18.923h-9.461V401.461A9.462,9.462,0,0,0,264,392h9.461A9.461,9.461,0,0,1,282.923,401.461Z" transform="translate(-174.674 -264.828)" fill="#c1507f"/>
    <path id="Trazado_24346" data-name="Trazado 24346" d="M262.192,312v4.731a9.461,9.461,0,0,1-7.167,9.178,9.238,9.238,0,0,1-2.294.284H248a9.238,9.238,0,0,0,2.294-.284,9.461,9.461,0,0,0,7.167-9.178V312Z" transform="translate(-163.404 -208.482)" fill="#ffc477"/>
    <path id="Trazado_24347" data-name="Trazado 24347" d="M262.192,273.461v4.731h-4.731v-4.731A9.461,9.461,0,0,0,248,264h4.731A9.461,9.461,0,0,1,262.192,273.461Z" transform="translate(-163.404 -174.674)" fill="#00223d"/>
    <path id="Trazado_24348" data-name="Trazado 24348" d="M273.461,392l-4.731,14.192H264L268.731,392Z" transform="translate(-174.674 -264.828)" fill="url(#linear-gradient)"/>
    <path id="Trazado_24349" data-name="Trazado 24349" d="M249.461,359.324v9.461H240v-9.461l.071-.284a9.233,9.233,0,0,0,2.294.284H247.1a9.233,9.233,0,0,0,2.294-.284Z" transform="translate(-157.77 -241.613)" fill="#ffdaaa"/>
    <path id="Trazado_24350" data-name="Trazado 24350" d="M211.48,293.846H206.75v-5.724a11.86,11.86,0,0,0,7.1-10.833v-9.461A11.827,11.827,0,0,0,202.019,256h-4.731a11.827,11.827,0,0,0-11.827,11.827v9.461a11.86,11.86,0,0,0,7.1,10.833v5.724h-4.731A11.827,11.827,0,0,0,176,305.673V324.6a2.366,2.366,0,0,0,2.365,2.365h42.577a2.365,2.365,0,0,0,2.365-2.365V305.673A11.827,11.827,0,0,0,211.48,293.846Zm-14.192-33.115h4.731a7.118,7.118,0,0,1,7.1,7.1h-3.761l-1.656-1.679a2.382,2.382,0,0,0-2.436-.568l-6.718,2.247h-4.352A7.118,7.118,0,0,1,197.288,260.731Zm-7.1,16.558v-4.731h4.731a2.806,2.806,0,0,0,.757-.118l5.7-1.916,1.325,1.348a2.443,2.443,0,0,0,1.679.686h4.731v4.731a7.118,7.118,0,0,1-7.1,7.1h-4.731A7.118,7.118,0,0,1,190.192,277.288Zm11.827,11.827v4.731h-4.731v-4.731Zm6.174,9.461-3.146,9.461H194.261l-3.146-9.461Zm10.384,23.654H180.731V305.673a7.077,7.077,0,0,1,5.464-6.883l4.116,12.371a2.4,2.4,0,0,0,2.247,1.608H206.75A2.4,2.4,0,0,0,209,311.16l4.116-12.371a7.077,7.077,0,0,1,5.464,6.883Z" transform="translate(-112.693 -169.039)" fill="#00223d"/>
    <path id="Trazado_24351" data-name="Trazado 24351" d="M371.48,53.846H366.75V48.122a11.86,11.86,0,0,0,7.1-10.833V27.827A11.827,11.827,0,0,0,362.019,16h-4.731a11.827,11.827,0,0,0-11.827,11.827v9.461a11.86,11.86,0,0,0,7.1,10.833v5.724h-4.731A11.827,11.827,0,0,0,336,65.673V84.6a2.365,2.365,0,0,0,2.365,2.365h42.577a2.365,2.365,0,0,0,2.365-2.365V65.673A11.827,11.827,0,0,0,371.48,53.846ZM357.288,20.731h4.731a7.118,7.118,0,0,1,7.1,7.1h-3.761L363.7,26.147a2.382,2.382,0,0,0-2.436-.568l-6.718,2.247h-4.352A7.118,7.118,0,0,1,357.288,20.731Zm-7.1,16.558V32.558h4.731a2.806,2.806,0,0,0,.757-.118l5.7-1.916,1.325,1.348a2.443,2.443,0,0,0,1.679.686h4.731v4.731a7.118,7.118,0,0,1-7.1,7.1h-4.731A7.118,7.118,0,0,1,350.192,37.288Zm11.827,11.827v4.731h-4.731V49.115Zm6.174,9.461-3.146,9.461H354.261l-3.146-9.461ZM378.577,82.23H340.731V65.673a7.077,7.077,0,0,1,5.464-6.883L350.31,71.16a2.4,2.4,0,0,0,2.247,1.608H366.75A2.4,2.4,0,0,0,369,71.16l4.116-12.371a7.077,7.077,0,0,1,5.464,6.883Z" transform="translate(-225.385)" fill="#00223d"/>
    <path id="Trazado_24352" data-name="Trazado 24352" d="M51.48,53.846H46.75V48.122a11.86,11.86,0,0,0,7.1-10.833V27.827A11.827,11.827,0,0,0,42.019,16H37.288A11.827,11.827,0,0,0,25.461,27.827v9.461a11.86,11.86,0,0,0,7.1,10.833v5.724H27.827A11.827,11.827,0,0,0,16,65.673V84.6a2.365,2.365,0,0,0,2.365,2.365H60.942A2.365,2.365,0,0,0,63.307,84.6V65.673A11.827,11.827,0,0,0,51.48,53.846ZM37.288,20.731h4.731a7.118,7.118,0,0,1,7.1,7.1H45.354L43.7,26.147a2.382,2.382,0,0,0-2.436-.568l-6.718,2.247H30.192A7.118,7.118,0,0,1,37.288,20.731Zm-7.1,16.558V32.558h4.731a2.806,2.806,0,0,0,.757-.118l5.7-1.916L42.7,31.872a2.443,2.443,0,0,0,1.679.686h4.731v4.731a7.118,7.118,0,0,1-7.1,7.1H37.288A7.118,7.118,0,0,1,30.192,37.288ZM42.019,49.115v4.731H37.288V49.115Zm6.174,9.461-3.146,9.461H34.261l-3.146-9.461ZM58.577,82.23H20.731V65.673a7.077,7.077,0,0,1,5.464-6.883L30.31,71.16a2.4,2.4,0,0,0,2.247,1.608H46.75A2.4,2.4,0,0,0,49,71.16l4.116-12.371a7.077,7.077,0,0,1,5.464,6.883Z" fill="#00223d"/>
    <path id="Trazado_24353" data-name="Trazado 24353" d="M88,272h4.731v4.731H88Z" transform="translate(-50.712 -180.308)" fill="#00223d"/>
    <path id="Trazado_24354" data-name="Trazado 24354" d="M144,440h4.731v4.731H144Z" transform="translate(-90.154 -298.636)" fill="#00223d"/>
    <path id="Trazado_24355" data-name="Trazado 24355" d="M92.731,304H88v42.577a2.366,2.366,0,0,0,2.365,2.365h9.461v-4.731h-7.1Z" transform="translate(-50.712 -202.847)" fill="#00223d"/>
    <path id="Trazado_24356" data-name="Trazado 24356" d="M408,272h4.731v4.731H408Z" transform="translate(-276.097 -180.308)" fill="#00223d"/>
    <path id="Trazado_24357" data-name="Trazado 24357" d="M352,440h4.731v4.731H352Z" transform="translate(-236.655 -298.636)" fill="#00223d"/>
    <path id="Trazado_24358" data-name="Trazado 24358" d="M391.1,344.211H384v4.731h9.461a2.365,2.365,0,0,0,2.365-2.365V304H391.1Z" transform="translate(-259.193 -202.847)" fill="#00223d"/>
    <path id="Trazado_24359" data-name="Trazado 24359" d="M160,72h4.731v4.731H160Z" transform="translate(-101.423 -39.442)" fill="#00223d"/>
    <path id="Trazado_24360" data-name="Trazado 24360" d="M336,72h4.731v4.731H336Z" transform="translate(-225.385 -39.442)" fill="#00223d"/>
    <path id="Trazado_24361" data-name="Trazado 24361" d="M192,72h37.846v4.731H192Z" transform="translate(-123.962 -39.442)" fill="#00223d"/>
  </g>
</svg>
