<svg xmlns="http://www.w3.org/2000/svg" width="33.076" height="238.89" viewBox="0 0 33.076 238.89">
  <g id="Grupo_54469" data-name="Grupo 54469" transform="translate(-198 -11737.51)">
    <path id="Trazado_66716" data-name="Trazado 66716" d="M284.534,519.716v64.689l32.345-32.345Z" transform="translate(-85.803 11297.974)" fill="#7d6eb2"/>
    <path id="Trazado_66717" data-name="Trazado 66717" d="M282.8,812.32a.851.851,0,0,1-.851-.851V707.234a.851.851,0,1,1,1.7,0V811.468A.851.851,0,0,1,282.8,812.32Z" transform="translate(-83.949 11164.08)" fill="#00223d"/>
    <path id="Trazado_66723" data-name="Trazado 66723" d="M301.576,349.31H281.949V236.955a.851.851,0,0,1,1.7,0V347.608h17.924a.851.851,0,1,1,0,1.7Z" transform="translate(-83.949 11501.405)" fill="#00223d"/>
    <path id="Trazado_66724" data-name="Trazado 66724" d="M316.7,615.99a.851.851,0,0,1-.6-1.453l9.953-9.953-9.953-9.953a.851.851,0,0,1,1.2-1.2l11.157,11.157L317.3,615.74A.848.848,0,0,1,316.7,615.99Z" transform="translate(-108.263 11245.28)" fill="#00223d"/>
  </g>
</svg>
