<svg xmlns="http://www.w3.org/2000/svg" xmlns:xlink="http://www.w3.org/1999/xlink" width="283.184" height="193.83" viewBox="0 0 283.184 193.83"><defs><linearGradient id="a" y1="0.5" x2="1" y2="0.5" gradientUnits="objectBoundingBox"><stop offset="0" stop-color="#fff"/><stop offset="1" stop-color="#f1f1f1"/></linearGradient><linearGradient id="b" y1="0.5" x2="1" y2="0.5" gradientUnits="objectBoundingBox"><stop offset="0" stop-color="#dae3fe"/><stop offset="1" stop-color="#e9effd"/></linearGradient><linearGradient id="f" x1="-25.145" y1="-9.119" x2="-25.584" y2="-8.419" gradientUnits="objectBoundingBox"><stop offset="0" stop-color="#ff928e"/><stop offset="1" stop-color="#feb3b1"/></linearGradient><linearGradient id="g" x1="-4.623" y1="0.5" x2="-3.623" y2="0.5" xlink:href="#f"/><linearGradient id="h" x1="-10.807" y1="0.5" x2="-9.807" y2="0.5" xlink:href="#f"/><linearGradient id="i" x1="-7.232" y1="0.5" x2="-6.232" y2="0.5" xlink:href="#f"/><linearGradient id="j" x1="-17.303" y1="0.5" x2="-16.303" y2="0.5" xlink:href="#f"/><linearGradient id="k" x1="-8.223" y1="0.531" x2="-4.241" y2="0.806" xlink:href="#f"/><linearGradient id="l" y1="0.5" x2="1" y2="0.5" gradientUnits="objectBoundingBox"><stop offset="0" stop-color="#4042e2"/><stop offset="1" stop-color="#4f52ff"/></linearGradient><linearGradient id="n" x1="0" y1="0.5" x2="1" y2="0.5" xlink:href="#b"/><linearGradient id="ae" x1="0" y1="0.5" x2="1" y2="0.5" xlink:href="#b"/><linearGradient id="ak" x1="0" y1="0.5" x2="1" y2="0.5" xlink:href="#b"/><linearGradient id="dg" x1="0" y1="0.5" x2="1" y2="0.5" xlink:href="#b"/><linearGradient id="dh" x1="0" y1="0.5" x2="1" y2="0.5" xlink:href="#b"/><linearGradient id="dj" x1="0" y1="0.5" x2="1" y2="0.5" xlink:href="#b"/><linearGradient id="ey" x1="63.595" y1="2.975" x2="62.501" y2="4.177" xlink:href="#f"/><linearGradient id="ez" x1="1.052" y1="-0.413" x2="-0.071" y2="1.958" xlink:href="#f"/><linearGradient id="fa" x1="-168.312" y1="91.667" x2="-169.791" y2="90.146" xlink:href="#f"/><linearGradient id="fb" x1="-468.554" y1="337.71" x2="-472.683" y2="332.067" xlink:href="#f"/><linearGradient id="fc" x1="0.448" y1="0.39" x2="0.728" y2="1.085" xlink:href="#f"/><linearGradient id="fd" x1="2.218" y1="-0.201" x2="0.182" y2="0.693" xlink:href="#f"/><linearGradient id="fe" x1="1.372" y1="-0.874" x2="0.009" y2="1.713" xlink:href="#f"/><linearGradient id="ff" x1="-313.521" y1="-0.843" x2="-314.027" y2="2.39" xlink:href="#f"/><linearGradient id="fg" x1="-310.118" y1="-0.223" x2="-310.633" y2="2.539" xlink:href="#f"/><linearGradient id="fh" x1="-45.132" y1="-0.312" x2="-47.577" y2="1.239" gradientUnits="objectBoundingBox"><stop offset="0" stop-color="#fff"/><stop offset="1" stop-color="#d3d3d3"/></linearGradient><linearGradient id="fi" x1="0.581" y1="-0.165" x2="0.411" y2="1.995" xlink:href="#f"/><linearGradient id="fj" x1="-134.69" y1="-75.13" x2="-137.573" y2="-75.563" xlink:href="#f"/><linearGradient id="fk" x1="-383.644" y1="-247.769" x2="-391.808" y2="-249.186" xlink:href="#f"/><linearGradient id="fl" x1="-73.544" y1="0.5" x2="-72.544" y2="0.5" xlink:href="#f"/><linearGradient id="fm" x1="-60.573" y1="102.239" x2="-59.699" y2="102.239" xlink:href="#f"/><clipPath id="fn"><path d="M789.732,897.127a6.762,6.762,0,0,0,1.752-2.632,45.8,45.8,0,0,0,3.72-13.739,6.76,6.76,0,0,0-.185-3.156,6.766,6.766,0,0,0-1.751,2.632c-.856,1.787-4.248,3.487-4.938,6.036s1.382,5.728,1.219,7.7A6.764,6.764,0,0,0,789.732,897.127Z" transform="translate(-788.188 -877.6)" fill="none"/></clipPath><linearGradient id="fo" x1="0.732" y1="-0.719" x2="-0.967" y2="8.506" xlink:href="#fh"/><linearGradient id="fp" x1="0.868" y1="-1.454" x2="-0.831" y2="7.77" xlink:href="#fh"/><linearGradient id="fq" x1="1.034" y1="-2.354" x2="-0.666" y2="6.87" xlink:href="#fh"/><linearGradient id="fr" x1="1.217" y1="-3.352" x2="-0.482" y2="5.872" xlink:href="#fh"/><linearGradient id="fs" x1="1.205" y1="-1.843" x2="0.345" y2="0.915" xlink:href="#fh"/><linearGradient id="ft" x1="5.512" y1="-10.517" x2="-3.623" y2="9.563" xlink:href="#fh"/><linearGradient id="fu" x1="-212.46" y1="-43.549" x2="-211.543" y2="-43.549" xlink:href="#f"/><linearGradient id="fv" x1="-50.548" y1="6.692" x2="-52.665" y2="17.468" gradientUnits="objectBoundingBox"><stop offset="0" stop-color="#09005d"/><stop offset="1" stop-color="#1a0f91"/></linearGradient><linearGradient id="fw" x1="-200.75" y1="0.5" x2="-199.75" y2="0.5" gradientUnits="objectBoundingBox"><stop offset="0" stop-color="#e1473d"/><stop offset="1" stop-color="#e9605a"/></linearGradient><linearGradient id="fx" x1="-131.447" y1="6.579" x2="-136.687" y2="19.2" xlink:href="#fv"/><linearGradient id="fy" x1="-241.002" y1="0.5" x2="-240.002" y2="0.5" xlink:href="#fw"/><linearGradient id="fz" x1="-0.096" y1="-0.295" x2="0.91" y2="0.944" xlink:href="#fw"/><linearGradient id="ga" x1="0.217" y1="0.319" x2="3.214" y2="2.874" xlink:href="#fw"/><linearGradient id="gb" x1="0.517" y1="0.565" x2="0.305" y2="0.346" xlink:href="#fw"/><linearGradient id="gc" x1="-32.391" y1="0.5" x2="-31.391" y2="0.5" xlink:href="#fw"/><linearGradient id="gd" x1="-100.235" y1="0.5" x2="-99.235" y2="0.5" xlink:href="#fw"/><linearGradient id="ge" x1="0.45" y1="-0.049" x2="0.618" y2="1.617" xlink:href="#fw"/><linearGradient id="gf" x1="0.998" y1="-0.269" x2="0.028" y2="1.14" xlink:href="#fw"/><linearGradient id="gg" x1="2.085" y1="-2.766" x2="-1.076" y2="4.062" xlink:href="#fw"/></defs><g transform="translate(-151.287 -114.123)"><g transform="translate(182.949 149.686)"><path d="M1067.635,1166.021l-4.422,39.661h51.306l-6.683-39.661Z" transform="translate(-981.45 -1058.177)" fill="#00223d"/><path d="M463.48,385.109v90.834A13.78,13.78,0,0,0,476.9,489.719c33.177.855,149.214,2.93,180.8,2.464a10.139,10.139,0,0,0,9.982-9.85c.609-21.1,1.6-71.845-2.062-95.4a10.434,10.434,0,0,0-9.976-8.831c-27.8-.889-150.8-3.713-182.372-3A10.016,10.016,0,0,0,463.48,385.109Z" transform="translate(-463.48 -374.981)" fill="#00223d"/><path d="M505.287,407.024v86.3a7.984,7.984,0,0,0,7.864,7.983l176.113,2.176a7.77,7.77,0,0,0,7.886-7.74l.295-85.527a5.683,5.683,0,0,0-5.544-5.7l-180.307-3.643A6.157,6.157,0,0,0,505.287,407.024Z" transform="translate(-499.587 -397.338)" fill="#344966"/><path d="M536.438,447.93v76.092a7.277,7.277,0,0,0,7.378,7l165.87,2.778a7.261,7.261,0,0,0,7.618-6.737l2.072-75.682a5.129,5.129,0,0,0-5.183-5.116l-171.769-3.8A5.663,5.663,0,0,0,536.438,447.93Z" transform="translate(-526.491 -433.262)" opacity="0.14" fill="url(#a)"/><path d="M696.762,1155.4h0l-193.189-3.292a.27.27,0,0,1,0-.541h0l193.189,3.291a.27.27,0,0,1,0,.541Z" transform="translate(-497.874 -1045.694)" fill="#bdd0fb"/><path d="M1024.386,1446.025H949.3c-2.04,0-3.572-1.452-3.177-3.012l.964-3.811a3.107,3.107,0,0,1,3.048-2.034l72.389-2.259a3.2,3.2,0,0,1,3.291,1.973l1.737,6.07C1028,1444.528,1026.459,1446.025,1024.386,1446.025Z" transform="translate(-880.266 -1290.405)" fill="#00223d"/><path d="M1264.6,1455.538a.27.27,0,0,1,0-.541l3.1-.045a.274.274,0,0,1,.275.266.271.271,0,0,1-.267.275l-3.1.045Z" transform="translate(-1155.153 -1307.718)" fill="#bdd0fb"/><path d="M965.19,1461.984a.27.27,0,0,1-.267-.313l.443-2.771a3.118,3.118,0,0,1,3.038-2.63l32.9-.481a.276.276,0,0,1,.274.266.27.27,0,0,1-.266.274l-32.9.481a2.578,2.578,0,0,0-2.512,2.175l-.443,2.771A.27.27,0,0,1,965.19,1461.984Z" transform="translate(-896.557 -1308.439)" fill="#bdd0fb"/></g><g transform="translate(152.561 260.653)"><g transform="translate(0 0)"><path d="M270.367,1189.089l-28.293-.157a1.485,1.485,0,0,0-1.282,2.249l.142.237a1.485,1.485,0,0,0,1.273.721h28.151a1.485,1.485,0,0,0,1.485-1.485v-.079A1.485,1.485,0,0,0,270.367,1189.089Z" transform="translate(-240.579 -1188.932)" fill="url(#b)"/><path d="M488.067,1191.815v.046a1.485,1.485,0,0,0,1.485,1.485h6.281a1.485,1.485,0,0,0,1.435-1.1h0a1.485,1.485,0,0,0-1.424-1.868l-6.281-.046A1.485,1.485,0,0,0,488.067,1191.815Z" transform="translate(-454.326 -1190.139)" fill="url(#b)"/></g><g transform="translate(0 5.331)"><path d="M263.561,1228.193l-21.487-.158a1.485,1.485,0,0,0-1.282,2.25l.142.236a1.485,1.485,0,0,0,1.273.721h21.345a1.485,1.485,0,0,0,1.485-1.485v-.079A1.485,1.485,0,0,0,263.561,1228.193Z" transform="translate(-240.579 -1228.035)" fill="url(#b)"/><path d="M438.147,1230.918v.046a1.485,1.485,0,0,0,1.485,1.485h6.281a1.485,1.485,0,0,0,1.435-1.1h0a1.485,1.485,0,0,0-1.424-1.869l-6.281-.046A1.485,1.485,0,0,0,438.147,1230.918Z" transform="translate(-411.212 -1229.242)" fill="url(#b)"/></g></g><g transform="translate(377.003 163.407)"><path d="M1916.661,475.786l-28.293-.158a1.485,1.485,0,0,0-1.282,2.25l.142.237a1.485,1.485,0,0,0,1.273.721h28.151a1.485,1.485,0,0,0,1.485-1.485v-.079A1.485,1.485,0,0,0,1916.661,475.786Z" transform="translate(-1886.873 -475.629)" fill="#00223d"/><path d="M2134.362,478.512v.046a1.485,1.485,0,0,0,1.485,1.485h6.281a1.485,1.485,0,0,0,1.435-1.1h0a1.485,1.485,0,0,0-1.424-1.868l-6.281-.046A1.485,1.485,0,0,0,2134.362,478.512Z" transform="translate(-2100.621 -476.836)" fill="#00223d"/><g transform="translate(0 5.331)"><path d="M1909.855,514.89l-21.487-.158a1.485,1.485,0,0,0-1.282,2.25l.142.237a1.485,1.485,0,0,0,1.273.721h21.345a1.485,1.485,0,0,0,1.485-1.485v-.079A1.485,1.485,0,0,0,1909.855,514.89Z" transform="translate(-1886.873 -514.732)" fill="#00223d"/><path d="M2084.441,517.615v.046a1.485,1.485,0,0,0,1.485,1.485h6.281a1.485,1.485,0,0,0,1.435-1.1h0a1.485,1.485,0,0,0-1.424-1.868l-6.281-.046A1.485,1.485,0,0,0,2084.441,517.615Z" transform="translate(-2057.506 -515.939)" fill="#00223d"/></g></g><g transform="translate(300.196 167.676)"><g transform="translate(0 0)"><path d="M1334.323,605.834a8.032,8.032,0,0,1-5.822-9.753l16.716-66.228a7.076,7.076,0,0,1,8.242-5.208l97.252,19.347a5.218,5.218,0,0,1,4.064,6.3L1437,626.548a4.953,4.953,0,0,1-6.036,3.678Z" transform="translate(-1327.605 -522.112)" fill="#00223d"/><g transform="translate(0 6.684)"><path d="M1325.265,625.99a2.333,2.333,0,0,1-1.609-3.135c3.509-8.734,15.152-38.877,19.668-65.089a2.157,2.157,0,0,1,2.542-1.755l97.74,19.217a2.483,2.483,0,0,1,1.961,2.9c-2.09,10.976-10.857,56.138-16.53,71.6a1.967,1.967,0,0,1-2.318,1.23Z" transform="translate(-1323.487 -555.97)" fill="#d5f2e8"/><path d="M1345.388,639.353a2.245,2.245,0,0,1-1.548-3.017c3.377-8.406,14.582-37.413,18.928-62.638a2.076,2.076,0,0,1,2.446-1.689l94.06,18.494a2.389,2.389,0,0,1,1.887,2.791c-2.011,10.563-10.448,54.024-15.908,68.908a1.893,1.893,0,0,1-2.231,1.184Z" transform="translate(-1340.925 -569.789)" fill="#dbdada"/></g><path d="M1854.621,769.15l-1.689,6.692a1.887,1.887,0,0,0,1.4,2.3l6.889,1.625a1.887,1.887,0,0,0,2.262-1.375l1.776-7.035a1.887,1.887,0,0,0-1.488-2.317l-6.975-1.282A1.887,1.887,0,0,0,1854.621,769.15Z" transform="translate(-1780.702 -732.172)" fill="#fff" opacity="0.6"/><path d="M1665.172,740.5l6.889,1.625a1.887,1.887,0,0,0,2.262-1.375l1.51-5.984a1.887,1.887,0,0,0-1.473-2.314l-6.961-1.34a1.887,1.887,0,0,0-2.186,1.391l-1.438,5.7A1.887,1.887,0,0,0,1665.172,740.5Z" transform="translate(-1617.333 -700.522)" fill="#fff" opacity="0.6"/><path d="M1600.843,1019.771l-6.547-1.572a2.059,2.059,0,0,0-2.477,1.5l-1.543,6.115a2.059,2.059,0,0,0,1.451,2.489l6.493,1.786a2.059,2.059,0,0,0,2.542-1.481l1.6-6.327A2.059,2.059,0,0,0,1600.843,1019.771Z" transform="translate(-1553.849 -948.449)" fill="#fff" opacity="0.6"/><path d="M1507.08,1005.5l1.509-5.978a2.024,2.024,0,0,0-1.49-2.463l-6.615-1.589a2.024,2.024,0,0,0-2.435,1.472l-1.455,5.764a2.024,2.024,0,0,0,1.426,2.446l6.561,1.8A2.024,2.024,0,0,0,1507.08,1005.5Z" transform="translate(-1472.941 -928.82)" fill="#fff" opacity="0.6"/><path d="M1556.912,814.012l1.239-4.908a2.178,2.178,0,0,0-1.627-2.656L1550.19,805a2.178,2.178,0,0,0-2.6,1.59l-1.184,4.69a2.178,2.178,0,0,0,1.554,2.638l6.279,1.662A2.178,2.178,0,0,0,1556.912,814.012Z" transform="translate(-1515.961 -764.321)" fill="#fff" opacity="0.6"/><path d="M1530.2,901.716l1.895-7.506a2.024,2.024,0,0,0-1.444-2.452l-6.426-1.7a2.177,2.177,0,0,0-2.669,1.572l-1.911,7.57a2.024,2.024,0,0,0,1.508,2.467l6.631,1.526A2.024,2.024,0,0,0,1530.2,901.716Z" transform="translate(-1492.848 -837.763)" fill="#fff" opacity="0.6"/><path d="M1759.668,759.41l6.889,1.625a1.887,1.887,0,0,0,2.262-1.375l1.645-6.518a1.887,1.887,0,0,0-1.473-2.315l-6.961-1.34a1.887,1.887,0,0,0-2.186,1.391l-1.573,6.232A1.887,1.887,0,0,0,1759.668,759.41Z" transform="translate(-1698.947 -716.392)" fill="#8ec8c8"/><path d="M1624.885,925.935l1.772-7.021a2.059,2.059,0,0,0-1.469-2.494l-6.509-1.723a2.059,2.059,0,0,0-2.523,1.487l-1.826,7.233a2.059,2.059,0,0,0,1.535,2.51l6.562,1.51A2.059,2.059,0,0,0,1624.885,925.935Z" transform="translate(-1574.624 -859.048)" fill="#8ec8c8"/><path d="M1744.244,849.021l-7.535-1.719a1.562,1.562,0,0,0-1.861,1.14l-1.7,6.751a1.562,1.562,0,0,0,1.115,1.892l7.47,1.977a1.561,1.561,0,0,0,1.914-1.127l1.769-7.009A1.561,1.561,0,0,0,1744.244,849.021Z" transform="translate(-1677.253 -800.866)" fill="#fff" opacity="0.6"/><path d="M1829.253,870.9l-1.623,6.429a1.963,1.963,0,0,0,1.4,2.378l6.695,1.772a1.963,1.963,0,0,0,2.405-1.417l1.682-6.661a1.963,1.963,0,0,0-1.467-2.394l-6.753-1.54A1.963,1.963,0,0,0,1829.253,870.9Z" transform="translate(-1758.847 -820.002)" fill="#fff" opacity="0.6"/><path d="M1640.4,835.05l7.47,1.977a1.561,1.561,0,0,0,1.914-1.127l1.657-6.566a1.562,1.562,0,0,0-1.167-1.9l-7.536-1.719a1.562,1.562,0,0,0-1.861,1.14l-1.592,6.308A1.562,1.562,0,0,0,1640.4,835.05Z" transform="translate(-1596.195 -782.218)" fill="#fff" opacity="0.6"/><path d="M1719.711,941.262l-6.509-1.723a2.059,2.059,0,0,0-2.523,1.487l-1.72,6.815a2.059,2.059,0,0,0,1.535,2.51l6.562,1.51a2.059,2.059,0,0,0,2.458-1.5l1.666-6.6A2.058,2.058,0,0,0,1719.711,941.262Z" transform="translate(-1656.352 -880.502)" fill="#fff" opacity="0.6"/><path d="M1814.13,965.826l-6.964-1.843a1.823,1.823,0,0,0-2.234,1.316l-1.732,6.861a1.823,1.823,0,0,0,1.359,2.223l7.022,1.616a1.823,1.823,0,0,0,2.177-1.331l1.674-6.633A1.823,1.823,0,0,0,1814.13,965.826Z" transform="translate(-1737.751 -901.621)" fill="#fff" opacity="0.6"/><path d="M1573.143,721.849l5.228,1.234a2.616,2.616,0,0,0,3.137-1.906l1.085-4.3a2.331,2.331,0,0,0-1.819-2.859l-5.874-1.131a2.561,2.561,0,0,0-2.966,1.888l-.906,3.59A2.86,2.86,0,0,0,1573.143,721.849Z" transform="translate(-1537.204 -684.772)" fill="#fff" opacity="0.6"/><path d="M1434.733,983.046a2.178,2.178,0,0,0-1.6-2.65l-2.276-.547a3.009,3.009,0,0,0-3.772,1.84l-1.049,4.155a3,3,0,0,0,2.411,3.4l2.425.667a2.024,2.024,0,0,0,2.5-1.456Z" transform="translate(-1411.994 -915.284)" fill="#fff" opacity="0.6"/><path d="M1973.7,1109.974l-4.475-1.075a2.061,2.061,0,0,0-2.479,1.5l-1.965,7.785a2.061,2.061,0,0,0,1.452,2.491l4.421,1.216a3.034,3.034,0,0,0,3.9-1.808l1.685-6.676A3.026,3.026,0,0,0,1973.7,1109.974Z" transform="translate(-1877.297 -1026.783)" fill="#8ec8c8"/><path d="M1450.979,884.662l2.226.512a2.178,2.178,0,0,0,2.6-1.589l1.926-7.631a2.178,2.178,0,0,0-1.554-2.638l-2.224-.589a3.027,3.027,0,0,0-3.86,1.818l-1.685,6.676A3.034,3.034,0,0,0,1450.979,884.662Z" transform="translate(-1431.317 -822.747)" fill="#fff" opacity="0.6"/><path d="M1477.9,798.506l2.781.736a1.647,1.647,0,0,0,2.018-1.189l1.391-5.512a1.647,1.647,0,0,0-1.23-2.009l-2.831-.646a3,3,0,0,0-3.729,1.85l-.848,3.359A3.009,3.009,0,0,0,1477.9,798.506Z" transform="translate(-1454.674 -751.229)" fill="#8ec8c8"/><path d="M2050.8,804.931l-4.535-.873a1.963,1.963,0,0,0-2.274,1.447l-1.941,7.69a1.962,1.962,0,0,0,1.452,2.39l4.625,1.091a3.006,3.006,0,0,0,3.757-1.844l1.624-6.432C2053.891,806.88,2052.648,805.287,2050.8,804.931Z" transform="translate(-1944.035 -763.521)" fill="#fff" opacity="0.6"/><path d="M1694.574,1042.445l-6.547-1.573a2.059,2.059,0,0,0-2.477,1.5l-1.649,6.533a2.059,2.059,0,0,0,1.45,2.489l6.493,1.785a2.059,2.059,0,0,0,2.542-1.481l1.7-6.746A2.059,2.059,0,0,0,1694.574,1042.445Z" transform="translate(-1634.711 -968.031)" fill="#fff" opacity="0.6"/><path d="M2024.084,913.69l-4.561-1.04a1.962,1.962,0,0,0-2.339,1.433l-1.846,7.315a1.962,1.962,0,0,0,1.4,2.378l4.543,1.2a3.026,3.026,0,0,0,3.859-1.818l1.522-6.028A3.036,3.036,0,0,0,2024.084,913.69Z" transform="translate(-1920.964 -857.296)" fill="#8ec8c8"/><path d="M2000.934,1014.914l-4.722-1.25a1.823,1.823,0,0,0-2.234,1.316l-1.52,6.024a1.823,1.823,0,0,0,1.359,2.223l4.781,1.1a3,3,0,0,0,3.736-1.849l1.049-4.155A3.009,3.009,0,0,0,2000.934,1014.914Z" transform="translate(-1901.207 -944.529)" fill="#fff" opacity="0.6"/><path d="M1899.454,990.14l-1.626,6.442a1.823,1.823,0,0,0,1.359,2.223l7.022,1.615a1.824,1.824,0,0,0,2.177-1.331l1.568-6.215a1.823,1.823,0,0,0-1.3-2.209l-6.964-1.843A1.823,1.823,0,0,0,1899.454,990.14Z" transform="translate(-1819.479 -923.075)" fill="#fff" opacity="0.6"/><path d="M1882.037,1087.8l-6.543-1.572a2.061,2.061,0,0,0-2.479,1.5l-1.859,7.367a2.06,2.06,0,0,0,1.452,2.491l6.49,1.785a2.06,2.06,0,0,0,2.544-1.483l1.913-7.579A2.061,2.061,0,0,0,1882.037,1087.8Z" transform="translate(-1796.436 -1007.2)" fill="#fff" opacity="0.6"/><path d="M1501.068,708.051l2.741.647a1.647,1.647,0,0,0,1.975-1.2l1.361-5.391a1.647,1.647,0,0,0-1.286-2.02l-2.931-.564a2.973,2.973,0,0,0-3.6,1.878l-.812,3.215A3.029,3.029,0,0,0,1501.068,708.051Z" transform="translate(-1474.596 -673.207)" fill="#fff" opacity="0.6"/><path d="M1788.305,1065.269l-6.433-1.545a2.175,2.175,0,0,0-2.617,1.583l-1.726,6.839a2.061,2.061,0,0,0,1.452,2.491l6.49,1.784a2.061,2.061,0,0,0,2.544-1.483l1.807-7.161A2.061,2.061,0,0,0,1788.305,1065.269Z" transform="translate(-1715.574 -987.764)" fill="#fff" opacity="0.6"/><path d="M1949.359,787.128l-1.806,7.156a1.962,1.962,0,0,0,1.452,2.391l6.741,1.59a1.963,1.963,0,0,0,2.354-1.43l1.876-7.435a1.963,1.963,0,0,0-1.532-2.408l-6.811-1.311A1.963,1.963,0,0,0,1949.359,787.128Z" transform="translate(-1862.421 -747.65)" fill="#fff" opacity="0.6"/><path d="M1923.219,892.492l-1.734,6.872a1.963,1.963,0,0,0,1.4,2.378l6.695,1.772a1.963,1.963,0,0,0,2.405-1.417l1.793-7.1a1.963,1.963,0,0,0-1.467-2.394l-6.753-1.54A1.963,1.963,0,0,0,1923.219,892.492Z" transform="translate(-1839.906 -838.648)" fill="#fff" opacity="0.6"/><path d="M1534.957,647.29l-.213,2.349a1.535,1.535,0,0,0,1.153,1.627l.107.027a1.535,1.535,0,0,0,1.864-1.112l.585-2.32a1.535,1.535,0,0,0-1.31-1.9l-.48-.056A1.535,1.535,0,0,0,1534.957,647.29Z" transform="translate(-1505.938 -626.95)" fill="#fff"/><path d="M1613.476,660.819l-.213,2.349a1.535,1.535,0,0,0,1.153,1.627l.107.027a1.535,1.535,0,0,0,1.864-1.113l.586-2.32a1.535,1.535,0,0,0-1.31-1.9l-.479-.056A1.535,1.535,0,0,0,1613.476,660.819Z" transform="translate(-1573.752 -638.635)" fill="#fff"/><path d="M1708.563,684.068l-.213,2.349a1.534,1.534,0,0,0,1.153,1.627l.107.027a1.535,1.535,0,0,0,1.864-1.112l.586-2.32a1.535,1.535,0,0,0-1.31-1.9l-.48-.056A1.535,1.535,0,0,0,1708.563,684.068Z" transform="translate(-1655.876 -658.714)" fill="#fff"/><path d="M1802.458,701.277l-.213,2.349a1.535,1.535,0,0,0,1.153,1.627l.107.027a1.535,1.535,0,0,0,1.864-1.113l.586-2.32a1.535,1.535,0,0,0-1.31-1.9l-.479-.056A1.535,1.535,0,0,0,1802.458,701.277Z" transform="translate(-1736.969 -673.577)" fill="#fff"/><path d="M1900.706,711.09l-.213,2.349a1.535,1.535,0,0,0,1.153,1.627l.107.027a1.535,1.535,0,0,0,1.864-1.113l.585-2.32a1.535,1.535,0,0,0-1.31-1.9l-.48-.056A1.535,1.535,0,0,0,1900.706,711.09Z" transform="translate(-1821.823 -682.052)" fill="#fff"/><path d="M2001.334,736.489l-.213,2.349a1.535,1.535,0,0,0,1.153,1.627l.107.027a1.535,1.535,0,0,0,1.864-1.112l.586-2.32a1.535,1.535,0,0,0-1.31-1.9l-.479-.056A1.535,1.535,0,0,0,2001.334,736.489Z" transform="translate(-1908.732 -703.988)" fill="#fff"/><path d="M2087.1,754.329l-.213,2.349a1.535,1.535,0,0,0,1.153,1.627l.107.027a1.535,1.535,0,0,0,1.864-1.113l.585-2.32a1.535,1.535,0,0,0-1.31-1.9l-.479-.056A1.535,1.535,0,0,0,2087.1,754.329Z" transform="translate(-1982.804 -719.396)" fill="#fff"/><circle cx="3.223" cy="3.223" r="3.223" transform="translate(28.478 12.352) rotate(-22.5)" fill="#d5f2e8"/><circle cx="3.223" cy="3.223" r="3.223" transform="translate(47.923 14.462)" fill="#d5f2e8"/><circle cx="3.223" cy="3.223" r="3.223" transform="translate(66.892 18.392)" fill="#d5f2e8"/><circle cx="3.223" cy="3.223" r="3.223" transform="translate(86.716 21.639)" fill="#d5f2e8"/><circle cx="3.223" cy="3.223" r="3.223" transform="translate(105.555 30.95) rotate(-80.85)" fill="#d5f2e8"/><path d="M1551.75,521.779l-.883-.223a1.692,1.692,0,0,1-1.354-1.96l2.852-11.3a1.581,1.581,0,0,1,1.421-1.134l2.024-.211a1.763,1.763,0,0,1,2.023,2.118L1553.84,520.8A1.712,1.712,0,0,1,1551.75,521.779Z" transform="translate(-1518.662 -506.942)" fill="#8ec8c8"/><path d="M1686.168,549.106l-.882-.223a1.692,1.692,0,0,1-1.354-1.96l2.852-11.3a1.581,1.581,0,0,1,1.421-1.134l2.024-.211a1.764,1.764,0,0,1,2.023,2.118l-3.994,11.733A1.712,1.712,0,0,1,1686.168,549.106Z" transform="translate(-1634.755 -530.543)" fill="#8ec8c8"/><path d="M1825.506,579.888l-.882-.223a1.692,1.692,0,0,1-1.354-1.96l2.852-11.3a1.581,1.581,0,0,1,1.421-1.134l2.024-.211a1.764,1.764,0,0,1,2.023,2.118l-3.993,11.733A1.712,1.712,0,0,1,1825.506,579.888Z" transform="translate(-1755.097 -557.128)" fill="#8ec8c8"/><path d="M1970.149,607.662l-.883-.223a1.692,1.692,0,0,1-1.354-1.96l2.852-11.3a1.581,1.581,0,0,1,1.421-1.134l2.024-.211a1.764,1.764,0,0,1,2.023,2.118l-3.994,11.733A1.712,1.712,0,0,1,1970.149,607.662Z" transform="translate(-1880.02 -581.115)" fill="#8ec8c8"/><path d="M2111.534,633.441l-.882-.223a1.692,1.692,0,0,1-1.354-1.96l2.852-11.3a1.581,1.581,0,0,1,1.421-1.134l2.024-.211a1.763,1.763,0,0,1,2.023,2.118l-3.993,11.732A1.712,1.712,0,0,1,2111.534,633.441Z" transform="translate(-2002.13 -603.38)" fill="#8ec8c8"/></g><g transform="translate(46.864 32.562)"><path d="M1669.547,752.64a.854.854,0,0,1-.791-.532l-1.454-3.567a.855.855,0,0,1,1.583-.645l1.079,2.647,7.775-4.636a.854.854,0,1,1,.875,1.468l-8.628,5.144A.854.854,0,0,1,1669.547,752.64Z" transform="translate(-1667.238 -745.786)" fill="#8ec8c8"/></g><g transform="translate(86.512 40.936)"><path d="M1960.361,814.062a.855.855,0,0,1-.791-.532l-1.454-3.567a.854.854,0,1,1,1.582-.645l1.079,2.647,7.775-4.636a.854.854,0,0,1,.875,1.468l-8.628,5.144A.855.855,0,0,1,1960.361,814.062Z" transform="translate(-1958.052 -807.208)" fill="#8ec8c8"/></g><g transform="translate(65.663 64.861)"><path d="M1807.433,989.553a.854.854,0,0,1-.791-.532l-1.454-3.567a.854.854,0,0,1,1.582-.645l1.079,2.647,7.775-4.636a.854.854,0,0,1,.875,1.468l-8.628,5.144A.854.854,0,0,1,1807.433,989.553Z" transform="translate(-1805.124 -982.7)" fill="#8ec8c8"/></g><g transform="translate(73.524 81.779)"><path d="M1865.094,1113.651a.855.855,0,0,1-.791-.532l-1.454-3.567a.854.854,0,0,1,1.583-.645l1.079,2.647,7.775-4.636a.855.855,0,0,1,.875,1.468l-8.628,5.145A.856.856,0,0,1,1865.094,1113.651Z" transform="translate(-1862.785 -1106.797)" fill="#8ec8c8"/></g><g transform="translate(22.939 68.792)"><path d="M1494.056,1018.384a.855.855,0,0,1-.791-.532l-1.454-3.567a.854.854,0,0,1,1.583-.645l1.079,2.647,7.775-4.636a.854.854,0,0,1,.875,1.468l-8.628,5.144A.854.854,0,0,1,1494.056,1018.384Z" transform="translate(-1491.746 -1011.53)" fill="#8ec8c8"/></g><g transform="translate(27.041 55.462)"><path d="M1524.14,920.61a.855.855,0,0,1-.791-.532l-1.455-3.567a.854.854,0,0,1,1.583-.645l1.079,2.647,7.775-4.635a.854.854,0,1,1,.875,1.468l-8.628,5.145A.854.854,0,0,1,1524.14,920.61Z" transform="translate(-1521.83 -913.757)" fill="#8ec8c8"/></g><g transform="translate(43.629 43.925)"><g transform="translate(1.471)"><path d="M1660.449,839.614a.769.769,0,0,1-.66-.372l-5.381-8.945a.769.769,0,0,1,1.318-.793l5.381,8.945a.769.769,0,0,1-.658,1.165Z" transform="translate(-1654.298 -829.13)" fill="#8ec8c8"/></g><g transform="translate(0 1.221)"><path d="M1643.949,845.369a.768.768,0,0,0,.755-.058l8.666-5.821a.769.769,0,0,0-.858-1.277l-8.666,5.821a.769.769,0,0,0,.1,1.335Z" transform="translate(-1643.506 -838.083)" fill="#8ec8c8"/></g></g><g transform="translate(50.123 73.66)"><g transform="translate(1.471)"><path d="M1708.083,1057.725a.768.768,0,0,1-.66-.373l-5.381-8.945a.769.769,0,0,1,1.318-.793l5.381,8.945a.769.769,0,0,1-.658,1.165Z" transform="translate(-1701.932 -1047.241)" fill="#8ec8c8"/></g><g transform="translate(0 1.22)"><path d="M1691.583,1063.48a.768.768,0,0,0,.755-.058L1701,1057.6a.769.769,0,0,0-.858-1.277l-8.666,5.821a.769.769,0,0,0,.1,1.335Z" transform="translate(-1691.14 -1056.193)" fill="#8ec8c8"/></g></g></g><g transform="translate(399.603 212.975)"><path d="M2053.166,895.477a.52.52,0,0,0,.359-.143l7.083-6.71a3.29,3.29,0,0,1,2.271-.9h24.111a.522.522,0,0,0,0-1.044H2062.88a4.328,4.328,0,0,0-2.989,1.191l-7.084,6.71a.522.522,0,0,0,.359.9Z" transform="translate(-2052.645 -880.205)" fill="#00223d"/><path d="M2151.571,863.987h20.408a.522.522,0,0,0,0-1.044h-20.408a.522.522,0,1,0,0,1.044Z" transform="translate(-2137.634 -859.707)" fill="#00223d"/><path d="M2175.927,840.253h17.088a.522.522,0,0,0,0-1.043h-17.088a.522.522,0,0,0,0,1.043Z" transform="translate(-2158.669 -839.21)" fill="#00223d"/></g><g transform="translate(151.287 132.333)"><g transform="translate(0 0)"><path d="M231.256,254l7.7,83.467c.285,3.094,3.6,5.484,7.582,5.463l124.814-.662c4.056-.021,7.365-2.537,7.495-5.7l3.354-81.563c.135-3.3-3.228-6.035-7.457-6.073L238.875,247.7C234.457,247.657,230.939,250.569,231.256,254Z" transform="translate(-231.236 -247.697)" fill="#00223d"/><path d="M276.555,354.8l6.816,69.838c.167,1.711,2.142,3.035,4.515,3.026l122.68-.461c2.463-.009,4.458-1.447,4.479-3.227l.791-67.418c.021-1.782-1.944-3.245-4.409-3.282L281.14,351.317C278.492,351.278,276.368,352.891,276.555,354.8Z" transform="translate(-270.367 -337.19)" fill="#f1f1f1"/><path d="M519.994,384.32h.573a.907.907,0,0,1,.907.891l1.188,68.295a.907.907,0,0,1-.907.923h0a.907.907,0,0,1-.907-.884l-1.761-68.295A.907.907,0,0,1,519.994,384.32Z" transform="translate(-479.844 -365.694)" fill="#00223d"/><g transform="translate(11.26 22.986)"><path d="M315.384,416.3l20.142.167a1.544,1.544,0,0,1,1.532,1.544h0a1.544,1.544,0,0,1-1.555,1.544l-20.134-.132a1.545,1.545,0,0,1-1.494-1.193l-.008-.035A1.545,1.545,0,0,1,315.384,416.3Z" transform="translate(-313.826 -416.3)" fill="#00223d"/><path d="M351.728,458.769c3.874.1,11.842.217,15.177.265a1.543,1.543,0,0,1,1.521,1.544v.225a1.544,1.544,0,0,1-1.544,1.544H351.849a1.544,1.544,0,0,1-1.47-1.071l-.158-.49A1.543,1.543,0,0,1,351.728,458.769Z" transform="translate(-345.194 -452.978)" fill="#00223d"/><path d="M359.347,500.888v.251a1.465,1.465,0,0,0,1.465,1.465h13.828a1.423,1.423,0,0,0,1.423-1.423h0a1.443,1.443,0,0,0-1.443-1.443H360.5A1.15,1.15,0,0,0,359.347,500.888Z" transform="translate(-353.141 -488.363)" fill="#00223d"/></g><g transform="translate(112.941 3.283)"><circle cx="3.827" cy="3.827" r="3.827" transform="translate(0 6.828) rotate(-63.135)" fill="#8ec8c8"/><circle cx="3.827" cy="3.827" r="3.827" transform="matrix(0.849, -0.529, 0.529, 0.849, 11.494, 4.371)" fill="#8ec8c8"/><circle cx="3.827" cy="3.827" r="3.827" transform="translate(22.984 5.736) rotate(-41.692)" fill="#8ec8c8"/></g></g><g transform="translate(50.183 23.17)"><path d="M620.692,417.771l-20.2-.124a1.156,1.156,0,0,0-1.162,1.213l.57,11.737a1.214,1.214,0,0,0,1.244,1.148h21.631a1.214,1.214,0,0,0,1.244-1.148l.424-8.7Z" transform="translate(-599.331 -417.648)" fill="#d5f2e8"/><path d="M755.106,422.819a1.156,1.156,0,0,1-1.112-1.247l.216-2.74,3.814,4.093Z" transform="translate(-732.905 -418.671)" fill="#8ec8c8"/><g transform="translate(3.1 4.324)"><path d="M639.238,449.367H622.926c-.472,0-.855.255-.855.57s.383.57.855.57h16.313c.472,0,.855-.255.855-.57S639.71,449.367,639.238,449.367Z" transform="translate(-622.071 -449.367)" fill="#fff" opacity="0.58"/><path d="M639.238,474.057H622.926c-.472,0-.855.255-.855.57s.383.57.855.57h16.313c.472,0,.855-.255.855-.57S639.71,474.057,639.238,474.057Z" transform="translate(-622.071 -470.691)" fill="#fff" opacity="0.58"/></g></g><g transform="translate(80.14 23.17)"><path d="M840.424,417.771l-20.2-.124a1.156,1.156,0,0,0-1.162,1.213l.57,11.737a1.214,1.214,0,0,0,1.244,1.148H842.51a1.214,1.214,0,0,0,1.244-1.148l.424-8.7Z" transform="translate(-819.063 -417.648)" fill="#d5f2e8"/><path d="M974.838,422.819a1.156,1.156,0,0,1-1.112-1.247l.216-2.74,3.814,4.093Z" transform="translate(-952.637 -418.671)" fill="#8ec8c8"/><g transform="translate(3.1 4.324)"><path d="M858.97,449.367H842.657c-.472,0-.854.255-.854.57s.383.57.854.57H858.97c.472,0,.854-.255.854-.57S859.442,449.367,858.97,449.367Z" transform="translate(-841.803 -449.367)" fill="#fff" opacity="0.58"/><path d="M858.97,474.057H842.657c-.472,0-.854.255-.854.57s.383.57.854.57H858.97c.472,0,.854-.255.854-.57S859.442,474.057,858.97,474.057Z" transform="translate(-841.803 -470.691)" fill="#fff" opacity="0.58"/></g></g><g transform="translate(110.096 23.17)"><path d="M1060.156,417.771l-20.2-.124a1.156,1.156,0,0,0-1.162,1.213l.57,11.737a1.214,1.214,0,0,0,1.244,1.148h21.631a1.214,1.214,0,0,0,1.244-1.148l.424-8.7Z" transform="translate(-1038.796 -417.648)" fill="#d5f2e8"/><path d="M1194.569,422.819a1.156,1.156,0,0,1-1.112-1.247l.216-2.74,3.814,4.093Z" transform="translate(-1172.369 -418.671)" fill="#8ec8c8"/><g transform="translate(3.1 4.324)"><path d="M1078.7,449.367H1062.39c-.472,0-.854.255-.854.57s.383.57.854.57H1078.7c.472,0,.855-.255.855-.57S1079.174,449.367,1078.7,449.367Z" transform="translate(-1061.535 -449.367)" fill="#fff" opacity="0.58"/><path d="M1078.7,474.057H1062.39c-.472,0-.854.255-.854.57s.383.57.854.57H1078.7c.472,0,.855-.255.855-.57S1079.174,474.057,1078.7,474.057Z" transform="translate(-1061.535 -470.691)" fill="#fff" opacity="0.58"/></g></g><g transform="translate(80.14 41.654)"><path d="M840.424,553.352l-20.2-.124a1.156,1.156,0,0,0-1.162,1.213l.57,11.689a1.175,1.175,0,0,0,1.244,1.1H842.51a1.175,1.175,0,0,0,1.244-1.1l.424-8.674Z" transform="translate(-819.063 -553.228)" fill="#d5f2e8"/><path d="M974.838,558.4a1.156,1.156,0,0,1-1.112-1.246l.216-2.74,3.814,4.093Z" transform="translate(-952.637 -554.25)" fill="#8ec8c8"/><g transform="translate(3.1 4.324)"><path d="M858.97,584.947H842.657c-.472,0-.854.255-.854.57s.383.57.854.57H858.97c.472,0,.854-.255.854-.57S859.442,584.947,858.97,584.947Z" transform="translate(-841.803 -584.947)" fill="#fff" opacity="0.58"/><path d="M858.97,609.638H842.657c-.472,0-.854.255-.854.57s.383.57.854.57H858.97c.472,0,.854-.255.854-.57S859.442,609.638,858.97,609.638Z" transform="translate(-841.803 -606.272)" fill="#fff" opacity="0.58"/></g></g><g transform="translate(110.096 41.654)"><path d="M1060.156,553.352l-20.2-.124a1.156,1.156,0,0,0-1.162,1.213l.57,11.689a1.175,1.175,0,0,0,1.244,1.1h21.631a1.175,1.175,0,0,0,1.244-1.1l.424-8.674Z" transform="translate(-1038.796 -553.228)" fill="#d5f2e8"/><path d="M1194.569,558.4a1.156,1.156,0,0,1-1.112-1.246l.216-2.74,3.814,4.093Z" transform="translate(-1172.369 -554.25)" fill="#8ec8c8"/><g transform="translate(3.1 4.324)"><path d="M1078.7,584.947H1062.39c-.472,0-.854.255-.854.57s.383.57.854.57H1078.7c.472,0,.855-.255.855-.57S1079.174,584.947,1078.7,584.947Z" transform="translate(-1061.535 -584.947)" fill="#fff" opacity="0.58"/><path d="M1078.7,609.638H1062.39c-.472,0-.854.255-.854.57s.383.57.854.57H1078.7c.472,0,.855-.255.855-.57S1079.174,609.638,1078.7,609.638Z" transform="translate(-1061.535 -606.272)" fill="#fff" opacity="0.58"/></g></g><g transform="translate(80.14 60.137)"><path d="M840.424,688.932l-20.2-.124a1.156,1.156,0,0,0-1.162,1.213l.57,11.712a1.193,1.193,0,0,0,1.244,1.123H842.51a1.193,1.193,0,0,0,1.244-1.122l.424-8.686Z" transform="translate(-819.063 -688.808)" fill="#d5f2e8"/><path d="M974.838,693.979a1.156,1.156,0,0,1-1.112-1.247l.216-2.74,3.814,4.093Z" transform="translate(-952.637 -689.83)" fill="#8ec8c8"/><g transform="translate(3.1 4.324)"><path d="M858.97,720.527H842.657c-.472,0-.854.255-.854.57s.383.57.854.57H858.97c.472,0,.854-.255.854-.57S859.442,720.527,858.97,720.527Z" transform="translate(-841.803 -720.527)" fill="#fff" opacity="0.58"/><path d="M858.97,745.218H842.657c-.472,0-.854.255-.854.57s.383.57.854.57H858.97c.472,0,.854-.255.854-.57S859.442,745.218,858.97,745.218Z" transform="translate(-841.803 -741.852)" fill="#fff" opacity="0.58"/></g></g><g transform="translate(110.096 60.137)"><path d="M1060.156,688.932l-20.2-.124a1.156,1.156,0,0,0-1.162,1.213l.57,11.712a1.194,1.194,0,0,0,1.244,1.123h21.631a1.193,1.193,0,0,0,1.244-1.122l.424-8.686Z" transform="translate(-1038.796 -688.808)" fill="#d5f2e8"/><path d="M1194.569,693.979a1.156,1.156,0,0,1-1.112-1.247l.216-2.74,3.814,4.093Z" transform="translate(-1172.369 -689.83)" fill="#8ec8c8"/><g transform="translate(3.1 4.324)"><path d="M1078.7,720.527H1062.39c-.472,0-.854.255-.854.57s.383.57.854.57H1078.7c.472,0,.855-.255.855-.57S1079.174,720.527,1078.7,720.527Z" transform="translate(-1061.535 -720.527)" fill="#fff" opacity="0.58"/><path d="M1078.7,745.218H1062.39c-.472,0-.854.255-.854.57s.383.57.854.57H1078.7c.472,0,.855-.255.855-.57S1079.174,745.218,1078.7,745.218Z" transform="translate(-1061.535 -741.852)" fill="#fff" opacity="0.58"/></g></g></g><g transform="translate(182.723 172.497)"><path d="M597.1,622.111s3.315,14.571-10.09,22.929l-3.2-1.646s11.037-9.515,11.859-20.172L590.8,621.8l-1.849-2.986Z" transform="translate(-567.185 -608.386)" fill="url(#f)"/><g transform="translate(17.731)"><path d="M612.725,542.3,592.832,545.8a1.156,1.156,0,0,0-.926,1.4l2.658,11.426a1.2,1.2,0,0,0,1.426.888l21.281-3.872a1.2,1.2,0,0,0,1.022-1.333l-1.138-8.624Z" transform="translate(-591.876 -542.305)" fill="#d5f2e8"/><path d="M746.053,546.412a1.156,1.156,0,0,1-1.317-1.027l-.277-2.735,4.485,3.344Z" transform="translate(-723.656 -542.603)" fill="#8ec8c8"/><g transform="translate(3.732 4.308)"><path d="M636.043,573.923l-16.05,2.92c-.464.085-.8.4-.739.713s.478.492.943.408l16.05-2.92c.464-.085.795-.4.739-.713S636.507,573.839,636.043,573.923Z" transform="translate(-619.248 -573.902)" fill="#fff" opacity="0.58"/><path d="M640.463,598.215l-16.05,2.92c-.464.085-.795.4-.739.714s.478.492.943.407l16.049-2.92c.464-.085.8-.4.739-.713S640.927,598.131,640.463,598.215Z" transform="translate(-623.066 -594.883)" fill="#fff" opacity="0.58"/></g></g><path d="M482.3,1013.273s-6.75,14.712-10.291,20.805c0,0-.7,3.834,0,5.04l.6.266-2.8-.083a50.152,50.152,0,0,1-.054-5.445.713.713,0,0,1,.582-.269s1.2-9.5,4.674-11.532l3.367-11.6Z" transform="translate(-468.613 -946.634)" fill="url(#g)"/><path d="M467.013,1186.452c0,.068-2.185.036-3.374.015a.946.946,0,0,1-.907-.746l-.9-4.717a.848.848,0,0,1,.644-.985l.5-.115a2.685,2.685,0,0,1,.49,1.9c-.225.923-.425,3.315.143,3.594a8.3,8.3,0,0,0,2.2.328S466.976,1185.844,467.013,1186.452Z" transform="translate(-461.82 -1092.979)" fill="#00223d"/><path d="M563.907,1212.983a.247.247,0,0,1-.125.461c-1.99-.02-6.448-.083-6.844-.248-.512-.213.186-2.051.921-2.673l4.055,1.323Z" transform="translate(-543.819 -1119.424)" fill="#00223d"/><path d="M572.112,1024.222s-4.362,21.1-5.6,25.218l2.919,1.832s-1.463-.249-2.547-.328a3.716,3.716,0,0,1-2.082-1.323l.35-.558s1.094-20.987.828-23.37Z" transform="translate(-550.765 -958.521)" fill="url(#h)"/><path d="M638.325,623.748s.6,10.977-9.392,16.586l2.406,5.487s9.048-5.473,8.714-20.4a1.734,1.734,0,0,1,.424-1.169l1.923-2.231a3.452,3.452,0,0,0,.734-3.092l-.253-1.012a.525.525,0,0,0-.772-.326l-.2.117a3.53,3.53,0,0,0-1.449,1.611l-.944,2.111a2.029,2.029,0,0,1-2.027,1.193l-.584-.05Z" transform="translate(-606.15 -607.268)" fill="url(#i)"/><path d="M562.607,778.7c-1.672.464-7.336,1.954-10.872,1.893l2.171,12.252-.173,2,7.079-.032a54.9,54.9,0,0,1,3.565-6.935c.454-.666.116-1.461-.141-2.226l.354-.235a.963.963,0,0,0,.381-1.1l-1.724-5.274A.526.526,0,0,0,562.607,778.7Z" transform="translate(-539.477 -746.452)" fill="#00223d"/><path d="M540.25,887.773l-.139,1.211s2,5.991-1,19.983a13.96,13.96,0,0,1-11.84-2.564s1.507-13.207,1.918-13.822c2.05-3.064,3.415-3.73,3.415-3.73l.062-1.323S538.378,888.561,540.25,887.773Z" transform="translate(-518.347 -840.463)" fill="#8ec8c8"/><path d="M573.826,757.321c.025-.033-1.478-4.537-1.478-4.537l-2.152.2-.841,5.109S572.728,758.77,573.826,757.321Z" transform="translate(-554.695 -724.089)" fill="url(#j)"/><path d="M551.441,699.292c.143.089,4.6,1.931,3.642,6.557a.868.868,0,0,1-.494.619,7.55,7.55,0,0,1-3.745.62c-2.334-.237-3.864-4.311-3.8-5.5S550.018,698.406,551.441,699.292Z" transform="translate(-535.424 -677.7)" fill="url(#k)"/><path d="M495.04,686.46s-2.933,2.555-1.982,4.253.625,1.529.625,1.529-1.271.034-.286.883,1.586.306,1.642,1.291,10.7,18.715,4.358,23.153-14.854,3.17-17.209-3.532,5.3-13.993,5.027-19.745a11.417,11.417,0,0,1,2.563-7.32,8.535,8.535,0,0,1,2.775-2.521,1.7,1.7,0,0,1,1.689-.015A2.411,2.411,0,0,1,495.04,686.46Z" transform="translate(-479.023 -664.868)" fill="#3c4973"/><g transform="translate(3.908 19.9)" opacity="0.8"><path d="M497.9,809.1h0a7.708,7.708,0,0,1-4.248-1.615,7.975,7.975,0,0,1-2.765-3.582c-1.07-2.986.251-6.084,1.416-8.817l.195-.458c.485-1.145,1.019-2.29,1.535-3.4.349-.748.709-1.522,1.051-2.288a.035.035,0,1,1,.065.029c-.342.767-.7,1.541-1.052,2.289-.516,1.107-1.049,2.251-1.534,3.395l-.195.458c-1.16,2.721-2.475,5.806-1.415,8.766a8.323,8.323,0,0,0,6.95,5.15.035.035,0,0,1,0,.071Z" transform="translate(-490.489 -775.198)" fill="url(#l)"/><path d="M568.635,689.815a.035.035,0,0,1-.035-.03,2.041,2.041,0,0,0-1.083-1.447.035.035,0,1,1,.029-.064,2.119,2.119,0,0,1,1.123,1.5.035.035,0,0,1-.03.04Z" transform="translate(-556.998 -688.271)" fill="url(#l)"/></g></g><g transform="translate(157.584 265.871)"><path d="M616.68,1269.631c-.272,0-.493-.15-.493-.334v-39.989c0-.185.221-.334.493-.334s.493.15.493.334V1269.3C617.173,1269.481,616.952,1269.631,616.68,1269.631Z" transform="translate(-570.003 -1228.733)" fill="#00223d"/><path d="M518.684,1269.631c-.272,0-.493-.15-.493-.334v-39.989c0-.185.221-.334.493-.334s.493.15.493.334V1269.3C519.177,1269.481,518.956,1269.631,518.684,1269.631Z" transform="translate(-485.367 -1228.733)" fill="#00223d"/><path d="M277.92,1269.885a.7.7,0,0,1-.193-.027c-.251-.073-.367-.269-.261-.439l25.211-40.243a.6.6,0,0,1,.647-.177c.25.072.367.269.261.439l-25.211,40.243A.537.537,0,0,1,277.92,1269.885Z" transform="translate(-277.427 -1228.733)" fill="#00223d"/><path d="M392.144,1269.885a.7.7,0,0,1-.193-.027c-.251-.073-.367-.269-.261-.439l25.21-40.243a.6.6,0,0,1,.647-.177c.251.072.367.269.261.439l-25.21,40.243A.537.537,0,0,1,392.144,1269.885Z" transform="translate(-376.079 -1228.733)" fill="#00223d"/><rect width="24.483" height="0.943" rx="0.472" transform="translate(23.654)" fill="#00223d"/><path d="M450.185,1274.778H434.567c-.272,0-.493-.15-.493-.334s.221-.335.493-.335h15.618c.272,0,.493.15.493.335S450.458,1274.778,450.185,1274.778Z" transform="translate(-412.718 -1267.715)" fill="#00223d"/><rect width="15.618" height="0.669" transform="translate(17.057 14.005)" fill="#00223d"/><rect width="15.618" height="0.669" transform="translate(12.417 21.616)" fill="#00223d"/><path d="M345.316,1442.257H329.7c-.272,0-.493-.15-.493-.334s.221-.335.493-.335h15.618c.272,0,.493.15.493.335S345.589,1442.257,345.316,1442.257Z" transform="translate(-322.146 -1412.361)" fill="#00223d"/><path d="M310.814,1498.084H295.2c-.272,0-.493-.15-.493-.335s.221-.334.493-.334h15.618c.272,0,.493.15.493.334S311.087,1498.084,310.814,1498.084Z" transform="translate(-292.348 -1460.577)" fill="#00223d"/></g><g transform="translate(170.119 114.122)"><g transform="translate(0 11.4)"><path d="M2147.811,997.983l.425-.8a.2.2,0,1,0-.36-.19h0l0,.008-.415.788,0,.008a.2.2,0,0,0,.359.189Z" transform="translate(-1905.023 -887.933)" fill="url(#n)"/><path d="M2156.965,977.584l.283-.866a.205.205,0,1,0-.39-.128h0l0,.011-.274.844,0,.011a.2.2,0,0,0,.389.127Z" transform="translate(-1912.914 -870.285)" fill="url(#b)"/><path d="M2162.243,956.009q.061-.453.089-.909a.207.207,0,1,0-.414-.025h0q-.026.441-.085.88a.207.207,0,0,0,.41.055Z" transform="translate(-1917.462 -851.658)" fill="url(#b)"/><path d="M2161.538,934.061q-.054-.455-.144-.9a.209.209,0,1,0-.41.082h0q.087.433.14.871a.209.209,0,0,0,.414-.049Z" transform="translate(-1916.726 -832.751)" fill="url(#n)"/><path d="M2154.686,913.167q-.168-.425-.369-.837a.211.211,0,0,0-.38.184h0q.193.4.358.808a.21.21,0,1,0,.391-.156Z" transform="translate(-1910.626 -814.806)" fill="url(#b)"/><path d="M2143.044,894.452l-.545-.731a.213.213,0,0,0-.341.254h0l.008.01.53.71.008.01a.212.212,0,0,0,.34-.254Z" transform="translate(-1900.434 -798.762)" fill="url(#b)"/><path d="M2127.977,878.415l-.665-.62a.215.215,0,1,0-.293.314h0l.008.007.651.605.008.007a.214.214,0,0,0,.292-.313Z" transform="translate(-1887.336 -785.032)" fill="url(#b)"/><path d="M2110.6,864.906l-.745-.519a.216.216,0,1,0-.247.355h0l.007,0,.731.508.007,0a.216.216,0,0,0,.247-.355Z" transform="translate(-1872.278 -773.468)" fill="url(#b)"/><path d="M2091.692,853.638l-.8-.431a.218.218,0,0,0-.208.384h0l.006,0,.786.423.006,0a.218.218,0,1,0,.207-.383Z" transform="translate(-1855.918 -763.823)" fill="url(#b)"/><path d="M2071.751,844.317l-.833-.354a.22.22,0,1,0-.173.406h0l.005,0,.822.349.005,0a.22.22,0,0,0,.172-.4Z" transform="translate(-1838.678 -755.847)" fill="url(#b)"/><path d="M2051.1,836.7l-.857-.288a.222.222,0,1,0-.141.421h0l0,0,.848.283,0,0a.222.222,0,0,0,.141-.42Z" transform="translate(-1820.831 -749.332)" fill="url(#b)"/><path d="M2029.949,830.6l-.874-.228a.224.224,0,1,0-.113.434h0l.866.224h0a.223.223,0,0,0,.112-.433Z" transform="translate(-1802.561 -744.119)" fill="url(#b)"/><path d="M2008.452,825.875l-.886-.173a.226.226,0,0,0-.087.443h0l.879.17h0a.225.225,0,0,0,.086-.443Z" transform="translate(-1783.995 -740.087)" fill="url(#b)"/><path d="M1986.716,822.417l-.895-.122a.228.228,0,0,0-.062.451h0l.887.12h0a.227.227,0,0,0,.061-.45Z" transform="translate(-1765.224 -737.146)" fill="url(#b)"/><path d="M1964.824,820.148l-.9-.075a.23.23,0,0,0-.038.458h0l.893.073h0a.229.229,0,0,0,.038-.457Z" transform="translate(-1746.32 -735.229)" fill="url(#b)"/><path d="M1942.843,819.014l-.9-.029a.232.232,0,1,0-.015.463h0l.9.027h0a.231.231,0,0,0,.015-.462Z" transform="translate(-1727.342 -734.289)" fill="url(#b)"/><path d="M1920.834,818.877l-.9.016a.233.233,0,0,0,.008.467h0l.9-.017h0a.233.233,0,1,0-.008-.466Z" transform="translate(-1708.342 -734.196)" fill="url(#b)"/><path d="M1898.849,819.633l-.9.059a.235.235,0,0,0,.031.47h0l.894-.06h0a.235.235,0,1,0-.031-.468Z" transform="translate(-1689.365 -734.848)" fill="url(#ae)"/><path d="M1876.939,821.422l-.9.093a.237.237,0,0,0,.049.471h0l.893-.094h0a.236.236,0,1,0-.049-.47Z" transform="translate(-1670.451 -736.393)" fill="url(#b)"/><path d="M1855.093,823.9l-.894.116a.238.238,0,1,0,.062.473h0l.89-.117h0a.238.238,0,0,0-.062-.472Z" transform="translate(-1651.59 -738.529)" fill="url(#b)"/><path d="M1833.322,826.932l-.89.139a.24.24,0,0,0,.074.474h0l.887-.139h0a.24.24,0,1,0-.074-.473Z" transform="translate(-1632.794 -741.151)" fill="url(#b)"/><path d="M1811.635,830.511l-.887.161a.241.241,0,1,0,.086.475h0l.883-.161h0a.241.241,0,0,0-.086-.474Z" transform="translate(-1614.071 -744.241)" fill="url(#b)"/><path d="M1790.044,834.609l-.883.181a.243.243,0,1,0,.1.476h0l.879-.182h0a.243.243,0,1,0-.1-.475Z" transform="translate(-1595.431 -747.779)" fill="url(#b)"/><path d="M1768.556,839.2l-.878.2a.245.245,0,1,0,.109.477h0l.875-.2h0a.244.244,0,0,0-.109-.476Z" transform="translate(-1576.879 -751.744)" fill="url(#ak)"/><path d="M1747.174,844.266l-.874.219a.246.246,0,1,0,.12.477h0l.871-.22h0a.246.246,0,0,0-.12-.476Z" transform="translate(-1558.42 -756.117)" fill="url(#b)"/><path d="M1725.9,849.779l-.869.237a.248.248,0,0,0,.13.478h0l.866-.237a.247.247,0,1,0-.129-.477Z" transform="translate(-1540.058 -760.878)" fill="url(#ae)"/><path d="M1704.75,855.709l-.864.254a.249.249,0,0,0,.14.478h0l.861-.254a.249.249,0,1,0-.139-.478Z" transform="translate(-1521.794 -765.998)" fill="url(#b)"/><path d="M1683.709,862.033l-.859.269a.251.251,0,0,0,.15.479h0l.857-.269a.25.25,0,1,0-.149-.478Z" transform="translate(-1503.629 -771.459)" fill="url(#b)"/><path d="M1662.783,868.725l-.855.283a.252.252,0,0,0,.159.479h0l.852-.283a.252.252,0,1,0-.158-.478Z" transform="translate(-1485.562 -777.238)" fill="url(#b)"/><path d="M1641.968,875.76l-.85.3a.254.254,0,1,0,.167.479h0l.848-.3a.253.253,0,1,0-.166-.479Z" transform="translate(-1467.591 -783.312)" fill="url(#b)"/><path d="M1621.264,883.111l-.846.309a.255.255,0,0,0,.175.48h0l.844-.309a.255.255,0,1,0-.174-.479Z" transform="translate(-1449.715 -789.66)" fill="url(#b)"/><path d="M1600.663,890.754l-.841.32a.257.257,0,1,0,.183.48h0l.839-.32a.256.256,0,1,0-.182-.479Z" transform="translate(-1431.929 -796.26)" fill="url(#b)"/><path d="M1580.162,898.662l-.838.33a.258.258,0,0,0,.19.481h0l.836-.331a.258.258,0,1,0-.189-.48Z" transform="translate(-1414.228 -803.088)" fill="url(#b)"/><path d="M1559.755,906.811l-.834.339a.26.26,0,0,0,.2.481h0l.832-.34a.259.259,0,1,0-.2-.481Z" transform="translate(-1396.608 -810.126)" fill="url(#b)"/><path d="M1539.434,915.177l-.83.348a.261.261,0,0,0,.2.482h0l.828-.348a.261.261,0,1,0-.2-.481Z" transform="translate(-1379.061 -817.35)" fill="url(#b)"/><path d="M1519.191,923.736l-.827.355a.263.263,0,0,0,.208.483h0l.825-.355a.262.262,0,1,0-.207-.483Z" transform="translate(-1361.582 -824.741)" fill="url(#b)"/><path d="M1499.019,932.463l-.824.361a.264.264,0,0,0,.212.484h0l.823-.362a.264.264,0,1,0-.212-.484Z" transform="translate(-1344.163 -832.278)" fill="url(#b)"/><path d="M1478.908,941.335l-.822.366a.266.266,0,0,0,.217.486h0l.82-.367a.266.266,0,1,0-.216-.485Z" transform="translate(-1326.797 -839.94)" fill="url(#b)"/><path d="M1458.849,950.33l-.82.371a.267.267,0,1,0,.22.487h0l.819-.371a.267.267,0,1,0-.22-.487Z" transform="translate(-1309.474 -847.707)" fill="url(#b)"/><path d="M1438.832,959.421l-.818.374a.269.269,0,0,0,.224.489h0l.817-.375a.269.269,0,0,0-.223-.489Z" transform="translate(-1292.188 -855.559)" fill="url(#b)"/><path d="M1418.847,968.587l-.817.377a.271.271,0,0,0,.226.492h0l.816-.377a.27.27,0,0,0-.226-.491Z" transform="translate(-1274.928 -863.475)" fill="url(#b)"/><path d="M1398.881,977.8l-.816.377a.272.272,0,0,0,.229.494h0l.816-.378a.272.272,0,0,0-.228-.493Z" transform="translate(-1257.685 -871.431)" fill="url(#b)"/><path d="M1378.919,987.024l-.816.377a.274.274,0,0,0,.229.5h0l.816-.378a.273.273,0,0,0-.229-.5Z" transform="translate(-1240.443 -879.397)" fill="url(#b)"/><path d="M1358.947,996.236l-.817.376a.275.275,0,0,0,.23.5h0l.817-.377a.275.275,0,0,0-.23-.5Z" transform="translate(-1223.192 -887.353)" fill="url(#b)"/><path d="M1338.955,1005.41l-.818.374a.277.277,0,0,0,.229.5h0l.818-.375a.276.276,0,1,0-.23-.5Z" transform="translate(-1205.924 -895.277)" fill="url(#b)"/><path d="M1318.931,1014.522l-.819.37a.278.278,0,1,0,.229.507h0l.819-.372a.278.278,0,1,0-.229-.506Z" transform="translate(-1188.627 -903.147)" fill="url(#b)"/><path d="M1298.867,1023.548l-.821.366a.28.28,0,1,0,.227.511h0l.821-.367a.279.279,0,1,0-.228-.51Z" transform="translate(-1171.294 -910.943)" fill="url(#b)"/><path d="M1278.75,1032.462l-.823.361a.281.281,0,1,0,.225.515h0l.824-.362a.281.281,0,1,0-.226-.514Z" transform="translate(-1153.916 -918.642)" fill="url(#b)"/><path d="M1258.571,1041.24l-.826.355a.283.283,0,0,0,.222.52h0l.827-.356a.282.282,0,1,0-.224-.519Z" transform="translate(-1136.483 -926.224)" fill="url(#b)"/><path d="M1238.321,1049.859l-.828.347a.284.284,0,0,0,.218.525h0l.83-.349a.284.284,0,1,0-.221-.523Z" transform="translate(-1118.988 -933.668)" fill="url(#b)"/><path d="M1217.99,1058.291l-.832.339a.286.286,0,1,0,.214.53h0l.833-.341a.285.285,0,1,0-.217-.528Z" transform="translate(-1101.423 -940.952)" fill="url(#b)"/><path d="M1197.572,1066.512l-.835.33a.287.287,0,0,0,.209.536h0l.837-.331a.287.287,0,1,0-.212-.533Z" transform="translate(-1083.782 -948.053)" fill="url(#b)"/><path d="M1177.058,1074.5l-.839.319a.289.289,0,1,0,.2.541h0l.841-.321a.289.289,0,1,0-.206-.539Z" transform="translate(-1066.058 -954.95)" fill="url(#b)"/><path d="M1156.443,1082.219l-.844.308a.29.29,0,1,0,.2.547h0l.845-.31a.29.29,0,1,0-.2-.544Z" transform="translate(-1048.245 -961.621)" fill="url(#b)"/><path d="M1135.721,1089.654l-.848.3a.292.292,0,0,0,.19.552h0l.85-.3a.292.292,0,1,0-.193-.55Z" transform="translate(-1030.341 -968.043)" fill="url(#b)"/><path d="M1114.889,1096.775l-.852.282a.293.293,0,1,0,.182.558h0l.855-.284a.293.293,0,1,0-.186-.556Z" transform="translate(-1012.339 -974.194)" fill="url(#b)"/><path d="M1093.943,1103.555l-.857.267h0a.3.3,0,0,0,.176.563h0l.86-.269a.295.295,0,0,0-.176-.562Z" transform="translate(-994.24 -980.051)" fill="url(#b)"/><path d="M1072.881,1109.97l-.861.252h0a.3.3,0,1,0,.166.569h0l.865-.254a.3.3,0,0,0-.167-.568Z" transform="translate(-976.041 -985.593)" fill="url(#b)"/><path d="M1051.7,1116l-.866.235h0a.3.3,0,1,0,.156.575h0l.869-.237a.3.3,0,1,0-.156-.574Z" transform="translate(-957.741 -990.798)" fill="url(#b)"/><path d="M1030.415,1121.606l-.871.217h0a.3.3,0,0,0,.145.582h0l.874-.219a.3.3,0,1,0-.146-.58Z" transform="translate(-939.343 -995.645)" fill="url(#b)"/><path d="M1009.014,1126.776l-.875.2h0a.3.3,0,0,0,.134.587h0l.879-.2a.3.3,0,0,0-.134-.586Z" transform="translate(-920.85 -1000.112)" fill="url(#b)"/><path d="M987.508,1131.482l-.879.179h0a.3.3,0,1,0,.121.593h0l.883-.181a.3.3,0,1,0-.121-.592Z" transform="translate(-902.266 -1004.177)" fill="url(#b)"/><path d="M965.9,1135.7l-.883.159h0a.3.3,0,0,0,.108.6h0l.887-.161a.3.3,0,0,0-.108-.6Z" transform="translate(-883.596 -1007.824)" fill="url(#b)"/><path d="M944.2,1139.413l-.886.136h0a.306.306,0,1,0,.093.6h0l.891-.138a.305.305,0,0,0-.093-.6Z" transform="translate(-864.845 -1011.03)" fill="url(#b)"/><path d="M922.418,1142.529l-.89.111h0a.307.307,0,0,0,.076.61h0l.895-.112a.307.307,0,1,0-.076-.609Z" transform="translate(-846.017 -1013.722)" fill="url(#b)"/><path d="M900.556,1145.025l-.893.085h0a.309.309,0,0,0,.059.615h0l.9-.087a.308.308,0,1,0-.059-.614Z" transform="translate(-827.124 -1015.878)" fill="url(#ae)"/><path d="M878.635,1146.9l-.895.06h0a.31.31,0,0,0,.042.619h0l.9-.061a.31.31,0,1,0-.042-.618Z" transform="translate(-808.181 -1017.499)" fill="url(#ae)"/><path d="M856.675,1148.154l-.9.035h0a.312.312,0,1,0,.024.623h0l.9-.036a.311.311,0,1,0-.025-.622Z" transform="translate(-789.204 -1018.581)" fill="url(#b)"/><path d="M834.691,1148.781l-.9.009h0a.313.313,0,1,0,.006.627h0l.9-.01a.313.313,0,1,0-.007-.626Z" transform="translate(-770.209 -1019.124)" fill="url(#b)"/><path d="M812.7,1148.66l-.9-.018h0a.315.315,0,0,0-.012.63h0l.9.017a.314.314,0,0,0,.012-.629Z" transform="translate(-751.209 -1019.004)" fill="url(#ak)"/><path d="M790.729,1147.833l-.9-.044h0a.316.316,0,0,0-.031.632h0l.9.044a.316.316,0,0,0,.031-.631Z" transform="translate(-732.222 -1018.266)" fill="url(#ae)"/><path d="M768.791,1146.338l-.893-.072h0a.318.318,0,0,0-.051.634h0l.9.072a.318.318,0,0,0,.05-.633Z" transform="translate(-713.267 -1016.95)" fill="url(#b)"/><path d="M746.909,1144.157l-.891-.1h0a.319.319,0,1,0-.071.635h0l.9.1a.319.319,0,1,0,.071-.634Z" transform="translate(-694.36 -1015.041)" fill="url(#b)"/><path d="M725.11,1141.266l-.887-.129h0a.321.321,0,1,0-.093.635h0l.893.129a.321.321,0,1,0,.092-.634Z" transform="translate(-675.525 -1012.518)" fill="url(#b)"/><path d="M703.421,1137.64l-.882-.16h0a.323.323,0,0,0-.115.635h0l.888.16a.322.322,0,1,0,.114-.634Z" transform="translate(-656.786 -1009.359)" fill="url(#b)"/><path d="M681.873,1133.25l-.875-.191h0a.324.324,0,0,0-.138.633h0l.882.192a.324.324,0,0,0,.138-.632Z" transform="translate(-638.171 -1005.537)" fill="url(#b)"/><path d="M660.5,1128.062l-.867-.224h0a.326.326,0,0,0-.163.631h0l.875.225a.325.325,0,0,0,.162-.63Z" transform="translate(-619.709 -1001.026)" fill="url(#b)"/><path d="M639.355,1122.043l-.857-.259h0a.327.327,0,1,0-.189.626h0l.865.26a.327.327,0,0,0,.188-.626Z" transform="translate(-601.439 -995.794)" fill="url(#b)"/><path d="M618.473,1115.153l-.845-.295h0a.329.329,0,1,0-.216.621h0l.853.3a.328.328,0,1,0,.216-.62Z" transform="translate(-583.402 -989.809)" fill="url(#b)"/><path d="M597.916,1107.352l-.831-.332,0,0a.33.33,0,0,0-.245.613h0l.84.335a.33.33,0,0,0,.244-.613Z" transform="translate(-565.646 -983.034)" fill="url(#b)"/><path d="M577.747,1098.6l-.813-.372,0,0a.332.332,0,0,0-.276.6h0l.823.375a.331.331,0,1,0,.275-.6Z" transform="translate(-548.227 -975.435)" fill="url(#b)"/><path d="M558.04,1088.855l-.793-.413,0,0a.333.333,0,1,0-.308.591h0l.8.417a.333.333,0,1,0,.306-.591Z" transform="translate(-531.208 -966.977)" fill="url(#b)"/><path d="M538.878,1078.08l-.769-.455,0,0a.335.335,0,0,0-.341.576h0l.78.46a.334.334,0,0,0,.34-.576Z" transform="translate(-514.664 -957.626)" fill="url(#b)"/><path d="M520.357,1066.241l-.741-.5,0,0a.336.336,0,1,0-.375.558h0l.752.5a.336.336,0,0,0,.374-.558Z" transform="translate(-498.676 -947.354)" fill="url(#b)"/><path d="M502.582,1053.315l-.709-.543-.005,0a.338.338,0,0,0-.411.536h0l.72.55a.337.337,0,1,0,.41-.536Z" transform="translate(-483.335 -936.14)" fill="url(#b)"/><path d="M485.662,1039.287l-.672-.587-.005,0a.339.339,0,0,0-.447.511h0l.683.6a.339.339,0,1,0,.445-.511Z" transform="translate(-468.737 -923.974)" fill="url(#b)"/><path d="M469.712,1024.169l-.631-.631,0,0a.341.341,0,0,0-.482.482h0l.642.64a.34.34,0,0,0,.481-.482Z" transform="translate(-454.98 -910.865)" fill="url(#b)"/><path d="M454.817,1008.011l-.587-.672,0-.005a.342.342,0,0,0-.516.451h0l.6.682a.342.342,0,0,0,.515-.45Z" transform="translate(-442.138 -896.859)" fill="url(#b)"/><path d="M441.049,990.884l-.54-.71,0-.005a.344.344,0,1,0-.548.416h0l.549.721a.343.343,0,1,0,.546-.417Z" transform="translate(-430.273 -882.018)" fill="url(#b)"/><path d="M428.461,972.87l-.491-.745,0-.006a.345.345,0,0,0-.577.38h0l.5.756a.345.345,0,0,0,.576-.381Z" transform="translate(-419.43 -866.412)" fill="url(#b)"/><path d="M417.1,954.061l-.441-.776,0-.006a.347.347,0,0,0-.6.343h0l.449.787a.347.347,0,1,0,.6-.343Z" transform="translate(-409.645 -850.124)" fill="url(#b)"/><path d="M406.976,934.554l-.391-.8,0-.006a.349.349,0,0,0-.627.305h0l.4.814a.348.348,0,0,0,.626-.305Z" transform="translate(-400.938 -833.235)" fill="url(#b)"/><path d="M398.112,914.446l-.34-.826,0-.006a.35.35,0,1,0-.648.266h0l.345.837a.35.35,0,1,0,.646-.267Z" transform="translate(-393.316 -815.83)" fill="url(#b)"/><path d="M390.5,893.831l-.289-.845,0-.006a.352.352,0,0,0-.665.228h0l.294.857a.351.351,0,0,0,.664-.228Z" transform="translate(-386.776 -797.991)" fill="url(#b)"/><path d="M384.126,872.8l-.239-.861,0-.006a.353.353,0,0,0-.681.189h0l.243.872a.353.353,0,0,0,.679-.189Z" transform="translate(-381.307 -779.795)" fill="url(#b)"/><path d="M378.973,851.435l-.19-.873v-.006a.355.355,0,1,0-.693.151h0l.193.885a.354.354,0,0,0,.692-.151Z" transform="translate(-376.894 -761.315)" fill="url(#b)"/><path d="M375.019,829.817l-.141-.882v-.006a.356.356,0,0,0-.7.113h0l.144.894a.356.356,0,0,0,.7-.113Z" transform="translate(-373.515 -742.618)" fill="url(#b)"/><path d="M372.238,808.016l-.094-.889v-.006a.358.358,0,0,0-.711.075h0l.1.9a.357.357,0,1,0,.711-.076Z" transform="translate(-371.149 -723.766)" fill="url(#dg)"/><path d="M370.609,786.1l-.047-.892V785.2a.359.359,0,0,0-.718.038h0l.049.9a.359.359,0,0,0,.717-.039Z" transform="translate(-369.779 -704.817)" fill="url(#dh)"/><path d="M370.095,764.128l0-.894v-.005a.361.361,0,0,0-.722,0h0l0,.9a.36.36,0,0,0,.721,0Z" transform="translate(-369.37 -685.824)" fill="url(#b)"/><path d="M370.4,742.157l.04-.893v-.005a.362.362,0,1,0-.724-.033h0l-.04.9a.362.362,0,0,0,.723.032Z" transform="translate(-369.633 -666.833)" fill="url(#dj)"/><path d="M371.733,720.239l.083-.89v-.005a.364.364,0,1,0-.725-.067h0l-.083.9a.363.363,0,0,0,.724.067Z" transform="translate(-370.784 -647.889)" fill="url(#b)"/><path d="M374.11,698.421l.125-.885v-.005a.365.365,0,1,0-.724-.1h0l-.125.9a.365.365,0,1,0,.723.1Z" transform="translate(-372.836 -629.034)" fill="url(#b)"/><path d="M377.507,676.752l.166-.879v-.005a.367.367,0,0,0-.721-.136h0l-.167.889a.366.366,0,0,0,.72.135Z" transform="translate(-375.769 -610.309)" fill="url(#b)"/><path d="M381.9,655.273l.206-.87v0a.368.368,0,1,0-.717-.169h0l-.207.88a.368.368,0,1,0,.716.168Z" transform="translate(-379.566 -591.75)" fill="url(#b)"/><path d="M387.272,634.028l.245-.86v0a.37.37,0,1,0-.712-.2h0l-.246.87a.369.369,0,1,0,.711.2Z" transform="translate(-384.204 -573.394)" fill="url(#dj)"/><path d="M393.589,613.054l.282-.849,0,0a.372.372,0,0,0-.7-.235h0l-.285.858a.371.371,0,0,0,.7.234Z" transform="translate(-389.661 -555.274)" fill="url(#b)"/><path d="M400.825,592.387l.319-.836,0,0a.373.373,0,0,0-.7-.266h0l-.322.845a.373.373,0,1,0,.7.265Z" transform="translate(-395.913 -537.421)" fill="url(#b)"/><path d="M408.951,572.062l.355-.821,0,0a.375.375,0,0,0-.688-.3h0l-.358.83a.374.374,0,1,0,.687.3Z" transform="translate(-402.934 -519.865)" fill="url(#b)"/><path d="M417.941,552.108l.389-.806,0,0a.376.376,0,0,0-.677-.327h0l-.392.815a.376.376,0,0,0,.677.326Z" transform="translate(-410.7 -502.631)" fill="url(#b)"/><path d="M427.762,532.557l.422-.789,0,0a.378.378,0,0,0-.666-.356h0l-.426.8a.377.377,0,0,0,.665.355Z" transform="translate(-419.186 -485.746)" fill="url(#b)"/><path d="M438.385,513.436l.454-.771,0,0a.379.379,0,1,0-.653-.385h0l-.458.779a.379.379,0,1,0,.653.384Z" transform="translate(-428.365 -469.233)" fill="url(#b)"/><path d="M449.782,494.768l.485-.752,0,0a.381.381,0,1,0-.64-.412h0l-.489.76a.38.38,0,0,0,.64.411Z" transform="translate(-438.213 -453.113)" fill="url(#b)"/><path d="M461.922,476.579l.514-.732,0,0a.382.382,0,1,0-.626-.439h0l-.518.74a.382.382,0,0,0,.625.438Z" transform="translate(-448.703 -437.409)" fill="url(#b)"/><path d="M474.775,458.89l.542-.712,0,0a.384.384,0,0,0-.61-.465h0l-.547.719a.383.383,0,1,0,.61.464Z" transform="translate(-459.808 -422.137)" fill="url(#b)"/><path d="M488.312,441.721l.569-.69,0,0a.385.385,0,1,0-.594-.491h0l-.574.7a.385.385,0,1,0,.594.489Z" transform="translate(-471.505 -407.315)" fill="url(#b)"/><path d="M502.5,425.09l.6-.668,0,0a.387.387,0,0,0-.578-.515h0l-.6.675a.386.386,0,1,0,.577.514Z" transform="translate(-483.769 -392.959)" fill="url(#b)"/><path d="M517.324,409.013l.62-.645,0,0a.388.388,0,0,0-.56-.538h0l-.626.652a.388.388,0,1,0,.56.537Z" transform="translate(-496.574 -379.082)" fill="url(#b)"/><path d="M532.743,393.509l.644-.622,0,0a.39.39,0,1,0-.542-.561h0l-.649.628a.389.389,0,1,0,.541.56Z" transform="translate(-509.898 -365.701)" fill="url(#b)"/><path d="M548.73,378.589l.666-.6,0,0a.391.391,0,1,0-.523-.583h0l-.672.6a.391.391,0,0,0,.523.581Z" transform="translate(-523.711 -352.825)" fill="url(#b)"/><path d="M565.248,364.254l.687-.574,0,0a.393.393,0,0,0-.5-.6h0l-.693.58a.392.392,0,0,0,.5.6Z" transform="translate(-537.985 -340.455)" fill="url(#b)"/><path d="M582.261,350.505l.706-.55,0,0a.394.394,0,1,0-.485-.622h0l-.712.556a.394.394,0,1,0,.485.621Z" transform="translate(-552.685 -328.592)" fill="url(#b)"/><path d="M599.736,337.34l.724-.526,0,0a.4.4,0,0,0-.466-.641h0l-.73.532a.4.4,0,0,0,.466.639Z" transform="translate(-567.785 -317.232)" fill="url(#b)"/><path d="M617.64,324.756l.741-.5,0,0a.4.4,0,0,0-.447-.658h0l-.747.508a.4.4,0,0,0,.446.657Z" transform="translate(-583.255 -306.376)" fill="url(#b)"/><path d="M635.943,312.754l.757-.479,0,0a.4.4,0,1,0-.427-.674h0l-.762.484a.4.4,0,1,0,.427.673Z" transform="translate(-599.07 -296.022)" fill="url(#b)"/><path d="M654.618,301.328l.771-.456,0,0a.4.4,0,0,0-.408-.69h0l-.777.46a.4.4,0,0,0,.408.688Z" transform="translate(-615.206 -286.167)" fill="url(#b)"/><path d="M673.638,290.478l.785-.432,0,0a.4.4,0,0,0-.388-.7h0l-.79.437a.4.4,0,0,0,.388.7Z" transform="translate(-631.64 -276.809)" fill="url(#b)"/><path d="M692.978,280.2l.8-.409,0,0a.4.4,0,0,0-.369-.718h0l-.8.413a.4.4,0,1,0,.369.717Z" transform="translate(-648.35 -267.947)" fill="url(#b)"/><path d="M712.617,270.5l.809-.386,0,0a.405.405,0,1,0-.349-.731h0l-.814.39a.4.4,0,1,0,.349.73Z" transform="translate(-665.319 -259.578)" fill="url(#b)"/><path d="M732.531,261.364l.819-.363h0a.407.407,0,0,0-.329-.744h0l-.825.366a.406.406,0,1,0,.329.743Z" transform="translate(-682.525 -251.703)" fill="url(#b)"/><path d="M752.7,252.8l.829-.339h0a.408.408,0,0,0-.309-.756h0l-.835.343a.408.408,0,0,0,.31.754Z" transform="translate(-699.953 -244.321)" fill="url(#b)"/><path d="M773.106,244.806l.838-.316h0a.41.41,0,1,0-.289-.767h0l-.844.319a.409.409,0,0,0,.289.766Z" transform="translate(-717.583 -237.43)" fill="url(#b)"/><path d="M793.728,237.379l.846-.293h0a.411.411,0,1,0-.269-.777h0l-.853.3a.411.411,0,0,0,.269.776Z" transform="translate(-735.401 -231.03)" fill="url(#b)"/><path d="M814.549,230.523l.854-.27h0a.413.413,0,0,0-.249-.787h0l-.861.273a.412.412,0,0,0,.249.786Z" transform="translate(-753.391 -225.123)" fill="url(#b)"/><path d="M835.554,224.236l.861-.246h0a.414.414,0,1,0-.228-.8h0l-.868.249a.414.414,0,1,0,.229.8Z" transform="translate(-771.539 -219.708)" fill="url(#b)"/><path d="M856.726,218.522l.868-.223h0a.416.416,0,1,0-.207-.805h0l-.874.226a.415.415,0,0,0,.208.8Z" transform="translate(-789.833 -214.788)" fill="url(#b)"/><path d="M878.048,213.381l.873-.2h0a.417.417,0,0,0-.186-.814h0l-.88.2a.417.417,0,1,0,.187.813Z" transform="translate(-808.256 -210.364)" fill="url(#b)"/><path d="M899.505,208.817l.878-.176h0a.419.419,0,1,0-.165-.821h0l-.885.178a.418.418,0,1,0,.165.82Z" transform="translate(-826.795 -206.438)" fill="url(#b)"/><path d="M921.081,204.832l.883-.152h0a.42.42,0,1,0-.143-.829h0l-.889.155a.42.42,0,1,0,.144.828Z" transform="translate(-845.438 -203.012)" fill="url(#b)"/><path d="M942.761,201.432l.887-.128h0a.422.422,0,1,0-.121-.835h0l-.893.13a.422.422,0,0,0,.122.834Z" transform="translate(-864.17 -200.092)" fill="url(#b)"/><path d="M964.529,198.679l.808-.1h0a.423.423,0,1,0-.1-.841h0l-.814.1a.423.423,0,1,0,.1.84Z" transform="translate(-882.979 -197.739)" fill="url(#b)"/></g><g transform="translate(83.979)"><path d="M1014.336,163.465l-.356,5.368,3.788-2.067Z" transform="translate(-1010.078 -156.738)" fill="#167377"/><path d="M1013.957,119.368l-15.339,11.755a1.362,1.362,0,0,1-1.939-.294l-11.222-15.845a.546.546,0,0,1,.546-.852Z" transform="translate(-985.356 -114.122)" fill="#8ec8c8"/><path d="M1016.6,154.08l24.341-1.482-22.538,4.045-.162,1.484Z" transform="translate(-1012.342 -147.352)" fill="#167377"/><path d="M1017.221,183.78l-3.241,1.293,2.161-2.8Z" transform="translate(-1010.078 -172.978)" fill="#8ec8c8"/></g></g><g transform="translate(291.042 229.11)"><path d="M1428.723,1024.61a.243.243,0,0,0-.448.047,4,4,0,0,1-1.848,2.633c-.055.025-.108.049-.159.074a.561.561,0,0,1,.069-.508c.343-.525-.276-1.241-.276-1.241a1.6,1.6,0,0,1-.521,1.028,1.536,1.536,0,0,0-.329,1.729c.6,2.321,1.493,5.391-1.993,7.634s-8.4-4.233-8.4-4.233l2.437,7.724s3.761,2.775,8.135-1.127,1.475-9.581,1.475-9.581S1430.205,1027.444,1428.723,1024.61Z" transform="translate(-1393.217 -1015.358)" fill="url(#ey)"/><path d="M1258.324,970.33c1.547-2.033,4-2.752,6.2-3.84a6.96,6.96,0,0,0,3.185-4.1c.515-1.4.587-2.956,2.07-3.695.7-.348,1.467-.2,2.139-.45a11.451,11.451,0,0,1,2.551-.653,4.034,4.034,0,0,1,3.813,6.284c-.892,1.3-1.452,3.773,2.426,7.377,6.024,5.6,1.444,9.445,1.444,9.445,1.168,7.544-9.729,7.477-9.729,7.477a7.677,7.677,0,0,1-7.688,2.425c-3.763-.79-4.339-4.392-5.714-7.41-.975-2.141-2.693-3.96-2.673-6.449A10.862,10.862,0,0,1,1258.324,970.33Z" transform="translate(-1256.346 -957.567)" fill="#3c4973"/><path d="M1364.641,1069.994a7.117,7.117,0,0,0-6.967,1.775,1.788,1.788,0,0,0-.515,1.782c.776,2.856,2.822,11.293,1.028,14.943,0,0,3.162,3.486,6.612.676,0,0,1.548-6.746,3.575-9.708,1.4-2.045-2.232-7.678-3.151-9.039A1.076,1.076,0,0,0,1364.641,1069.994Z" transform="translate(-1343.361 -1054.426)" fill="#8ec8c8"/><path d="M1380.811,1030.144a35.524,35.524,0,0,0-1.658,6.286,3.3,3.3,0,0,0,3.311-.533,48.457,48.457,0,0,1,.412-5.137Z" transform="translate(-1362.41 -1020.249)" fill="url(#ez)"/><path d="M1381.285,986.315s4.033,5.645,1.622,7.284-5.283-2.372-5.283-2.372-.936-3.09.043-4.138S1381.285,986.315,1381.285,986.315Z" transform="translate(-1360.742 -982.367)" fill="url(#fa)"/><path d="M1372.31,976.147s1.853.439,2.113,1.277-2.628,1.616-3.437,1.654l-.652,3.383s-1.927-3.183-1.164-5.021S1372.31,976.147,1372.31,976.147Z" transform="translate(-1353.635 -973.549)" fill="#3c4973"/><path d="M1371.271,1012.954s-1.57-1.818-2.195-.633,1.413,2.075,2.119,1.493Z" transform="translate(-1353.606 -1004.509)" fill="url(#fb)"/><path d="M1364.462,1316.315c-.012.306.526,2.735.819,4.031a2.136,2.136,0,0,1-.23,1.531l-10.135,17.057a2.313,2.313,0,0,0-.266.664,14.635,14.635,0,0,0-.37,4.547l.524,1.089-2.267-.515-.493-6.089.642-.391a3.051,3.051,0,0,0,1.234-1.444,87.006,87.006,0,0,0,3.779-10.654c.667-3.138,4.152-5.687,4.152-5.687l-.612-1.448Z" transform="translate(-1338.997 -1267.406)" fill="url(#fc)"/><path d="M1337.179,1481.04a13.836,13.836,0,0,0,1.369-2.7c.144-.756.545-2.09,1.3-1.688a44.3,44.3,0,0,1,.233,5.105c-.122,1.434,1.621,1.388,1.621,1.388a1.629,1.629,0,0,1,.833.419.408.408,0,0,1-.274.687,9.8,9.8,0,0,1-2.429-.138.743.743,0,0,1-.6-.686l-.251-4.225-1.545,1.95Z" transform="translate(-1326.159 -1405.822)" fill="#8ec8c8"/><path d="M1366.819,1333.641s-.357,15.257-.406,17.424.342,6.969,2.515,8.4l-.945.7a12.637,12.637,0,0,1-2.336-2.936,17.821,17.821,0,0,0-1.688-2.567l.43-.881a1.936,1.936,0,0,0,.157-1.242c-.469-2.272-2.035-9.829-2.462-11.457a7.331,7.331,0,0,1,1.214-6.634C1365.053,1332.3,1366.819,1333.641,1366.819,1333.641Z" transform="translate(-1347.409 -1282.016)" fill="url(#fd)"/><path d="M1375.415,1494.343a.133.133,0,0,1-.134-.114,19.726,19.726,0,0,0-.62-3.076c-.282-.6-1.2-3.15,0-3.366,0,0,2.993,4.373,3.568,4.963a1.126,1.126,0,0,0,1.3.206,2.164,2.164,0,0,1,.982.7.4.4,0,0,1-.312.637l-2.016.019a1.418,1.418,0,0,1-1.33-.894,7.574,7.574,0,0,0-1.675-2.763l.369,3.535a.134.134,0,0,1-.132.148Z" transform="translate(-1358.01 -1415.5)" fill="#8ec8c8"/><path d="M1350.368,1194.026a7.156,7.156,0,0,0,.244,3.833l4.33,15.121a.468.468,0,0,1-.293.57,28.885,28.885,0,0,1-11.365,1.378.659.659,0,0,1-.6-.514c-.383-1.724-1.69-7.605-1.959-8.813-1.025-4.6-2.17-9.57,2.866-12.573C1345.909,1194.021,1348.074,1194.607,1350.368,1194.026Z" transform="translate(-1328.453 -1160.926)" fill="#8ec8c8"/><path d="M1318.578,1086.723s-4.927,4.094-6.149,9.689,7.2,6.189,7.2,6.189a2.6,2.6,0,0,1,2.5-.821c1.357.455.105-2.228-1.483-2.221s-.852,1.263-3.1.245c-2.188-.991-3.541-4.057,2.043-8.7a2.529,2.529,0,0,0,.737-1C1321.411,1087.365,1320.55,1085.575,1318.578,1086.723Z" transform="translate(-1304.678 -1068.81)" fill="url(#fe)"/><g transform="translate(1.892 2.458)" opacity="0.8"><path d="M1271.662,997.588a.066.066,0,0,0,.059-.093c-1.407-3-1.73-5.553-.959-7.583a7.448,7.448,0,0,1,4.331-4.052c4.354-1.876,5.352-3.8,5.671-6.69s1.968-3.444,1.985-3.449a.065.065,0,0,0-.039-.125c-.071.022-1.747.581-2.076,3.559-.321,2.907-1.274,4.724-5.593,6.584a7.572,7.572,0,0,0-4.4,4.126c-.784,2.064-.46,4.65.963,7.685A.065.065,0,0,0,1271.662,997.588Z" transform="translate(-1270.223 -975.593)" fill="#fff"/></g><g transform="translate(19.933 0.718)" opacity="0.8"><path d="M1404.454,965.829h0c.036,0,.064-.044.063-.081a3.134,3.134,0,0,0-1.878-2.914.063.063,0,0,0-.083.038.064.064,0,0,0,.041.081,3.017,3.017,0,0,1,1.79,2.8A.076.076,0,0,0,1404.454,965.829Z" transform="translate(-1402.554 -962.83)" fill="#fff"/></g></g><g transform="translate(226.608 217.083)"><path d="M988.114,1034.47s-7.642,9.307-10.453,7.064,4.778-14.467,4.778-14.467Z" transform="translate(-950.68 -1005.564)" fill="#7d6eb2"/><path d="M1055.995,1495.609a.527.527,0,0,1,.014-.138c.69-2.736,4.115-4.44,4.115-4.44l1.357.106a9.413,9.413,0,0,1,.555,4.549c0,.018-.009.036-.014.054A32.209,32.209,0,0,1,1055.995,1495.609Z" transform="translate(-1018.874 -1406.274)" fill="#7d6eb2"/><path d="M1085.6,1476.981l-.575,2.767a.453.453,0,0,1-.387.373,3.842,3.842,0,0,1-.891-.014.569.569,0,0,1-.451-.668l.4-2.457Z" transform="translate(-1042.452 -1394.14)" fill="url(#ff)"/><path d="M967.8,1498.182a.409.409,0,0,1,.033-.062,10.489,10.489,0,0,1,6.237-3.915l1.755-.055a8.423,8.423,0,0,1,.8,3.874,8.109,8.109,0,0,1-2.675.382C971.631,1498.47,968.882,1498.271,967.8,1498.182Z" transform="translate(-942.706 -1408.968)" fill="#7d6eb2"/><path d="M1014.64,1471.944c-.02.131-.26,2.119-.353,2.89a.381.381,0,0,1-.322.345,4.017,4.017,0,0,1-1.205-.018.519.519,0,0,1-.393-.521v-3.121Z" transform="translate(-981.194 -1389.422)" fill="url(#fg)"/><path d="M1013.038,1208.5a156.261,156.261,0,0,0-4.156,36.33.783.783,0,0,0,.622.764,9.13,9.13,0,0,0,1.962.227.727.727,0,0,0,.693-.607c.594-3.481,4-23.089,5.94-26.272,0,0,1.277,17.464.869,26.524a.43.43,0,0,0,.379.447,7.228,7.228,0,0,0,1.575,0,.575.575,0,0,0,.512-.488c.423-2.946,2.856-20.48,2.753-33.11-.006-.712-1.884-3.809-1.884-3.809Z" transform="translate(-978.183 -1162.259)" fill="url(#fh)"/><path d="M1010.682,1025.25c5.825-.842,12.224-.069,15.33.322a4.1,4.1,0,0,1,2.588,1.389c2.628,3.041,8.395,11.367,1.607,19.758a12.641,12.641,0,0,1-2.941-2.15,10.37,10.37,0,0,0-.761-8.139,7.722,7.722,0,0,1-.2.779,48.278,48.278,0,0,0-2.28,13.908.435.435,0,0,1-.273.407c-2.855,1.144-8.35.463-10.195.188a.62.62,0,0,1-.519-.7c.649-4.7-1.554-11.576-3.306-16.089C1009.038,1033.136,1010.32,1025.75,1010.682,1025.25Z" transform="translate(-978.743 -1003.668)" fill="#7d6eb2"/><path d="M1057.389,977.523l.8,6.648a.621.621,0,0,1-.441.672,7.016,7.016,0,0,1-4.449-.061.727.727,0,0,1-.429-.826l1.017-4.68Z" transform="translate(-1016.165 -962.774)" fill="url(#fi)"/><g transform="translate(34.018 6.939)"><path d="M1042.347,939.38c-.071.077-2.781,6.434-2.781,6.434l3.663,1.471,3.464-5.644S1043.537,938.1,1042.347,939.38Z" transform="translate(-1038.703 -936.529)" fill="url(#fj)"/><path d="M1039.667,925.607a.568.568,0,0,1-.009.5l-1.568,3.069a.55.55,0,0,1-.089.127.93.93,0,0,1-1.489.091,5,5,0,0,0-1.5-1.416.567.567,0,0,0-.746.3,21.125,21.125,0,0,0-1.015,2.954.564.564,0,0,0,.375.668,15.726,15.726,0,0,0,3.464.759.567.567,0,0,0,.519-.264c.491-.779,1.877-2.957,2.363-3.512.451-.515,1.357-.394,1.768-.306a.571.571,0,0,0,.448-.09,1.249,1.249,0,0,0,.34-1.928.568.568,0,0,1,.123-.781,1.254,1.254,0,0,0,.359-1.808,1.768,1.768,0,0,0-1.974-.805.589.589,0,0,1-.64-.3.375.375,0,0,0-.307-.21.55.55,0,0,1-.488-.615,1.452,1.452,0,0,0-.922-1.6c-1.587-.737-2.834.725-3.1,1.905s1.5,1.881,2.59,1.945C1038.97,924.335,1039.462,925.168,1039.667,925.607Z" transform="translate(-1033.237 -920.239)" fill="#00223d"/><path d="M1078.32,979.126s.545-2.037,1.421-2.023,1.62.835.608,1.883C1079.088,980.291,1078.32,979.126,1078.32,979.126Z" transform="translate(-1072.174 -969.35)" fill="url(#fk)"/></g><path d="M1134.261,1061.6a17.777,17.777,0,0,0,.729-6.989l-.317.036a17.428,17.428,0,0,1-.712,6.843Z" transform="translate(-1086.211 -1029.352)" fill="#00223d"/><path d="M1094.949,1169.348a12.651,12.651,0,0,0,2.941,2.15,24.429,24.429,0,0,1-5.376,4.781l-.281.631a1.568,1.568,0,0,1-1.358.927c-3.247.155-4.146-.534-1.157-2.619A11.565,11.565,0,0,0,1094.949,1169.348Z" transform="translate(-1046.426 -1128.448)" fill="url(#fl)"/><path d="M952.674,1065.979a64.011,64.011,0,0,1,5.044,5.805c.947,1.545-.107,4.36-2.258,3.706s-4.654-8.045-4.654-8.045Z" transform="translate(-928.026 -1039.171)" fill="url(#fm)"/><g transform="translate(0 0)"><path d="M927.9,1026.326s-5.958,8.226-7.572,9.835c-1.874,1.868-5.215-.55-4.528-2.353s7.109-8.282,7.109-8.282Z" transform="translate(-897.716 -1004.234)" fill="#00223d"/><path d="M826.61,888.574l-19.576-13.34-5.261,20.331,23.294,1.046Z" transform="translate(-799.312 -874.431)" fill="#7d6eb2"/><ellipse cx="10.792" cy="2.199" rx="10.792" ry="2.199" transform="translate(0 20.834) rotate(-74.85)" fill="#5e4e98"/><path d="M797.955,897.127a6.763,6.763,0,0,0,1.752-2.632,45.792,45.792,0,0,0,3.72-13.739,6.762,6.762,0,0,0-.184-3.156,6.764,6.764,0,0,0-1.751,2.632,45.8,45.8,0,0,0-3.72,13.739A6.764,6.764,0,0,0,797.955,897.127Z" transform="translate(-795.801 -876.474)" fill="#7d6eb2"/><g transform="translate(0.61 1.126)"><g clip-path="url(#fn)"><path d="M798.081,927.052c-.479,1.77.086,3.463,1.973,3.974a3.327,3.327,0,1,0,1.735-6.409C799.9,924.105,798.56,925.282,798.081,927.052Z" transform="translate(-796.593 -918.102)" fill="#00223d"/></g></g><path d="M968.849,971.127a12.539,12.539,0,0,0-4.1-.9,22.4,22.4,0,0,1-2.451,8.422l4.444,1.2a1.492,1.492,0,0,0,1.752-.829,20.977,20.977,0,0,0,1.735-5.6A2.208,2.208,0,0,0,968.849,971.127Z" transform="translate(-937.948 -956.477)" fill="#00223d"/><path d="M984.8,980.819l3.463.938a.381.381,0,0,0,.462-.484.146.146,0,1,0-.277.089.089.089,0,0,1-.108.113l-3.463-.937a.089.089,0,0,1-.063-.109l.067-.246a.089.089,0,0,1,.109-.063l3.488.945a.146.146,0,0,0,.076-.281l-3.488-.944a.381.381,0,0,0-.467.268l-.067.246A.381.381,0,0,0,984.8,980.819Z" transform="translate(-957.145 -964.762)" fill="url(#fo)"/><path d="M984.022,992.68l3.462.938a.381.381,0,0,0,.462-.483.146.146,0,0,0-.278.089.089.089,0,0,1-.108.113L984.1,992.4a.09.09,0,0,1-.063-.109l.067-.246a.089.089,0,0,1,.11-.063l3.488.944a.146.146,0,1,0,.076-.281l-3.488-.945a.381.381,0,0,0-.467.268l-.067.246A.381.381,0,0,0,984.022,992.68Z" transform="translate(-956.471 -975.006)" fill="url(#fp)"/><path d="M866.506,900.335a.146.146,0,0,0,.117-.263l-14.953-9.637a.146.146,0,0,0-.158.245l14.953,9.637A.145.145,0,0,0,866.506,900.335Z" transform="translate(-842.212 -887.54)" fill="#3c4973"/><path d="M970.921,968.789a.146.146,0,0,0,.127-.256l-.749-.572a.146.146,0,0,0-.177.232l.749.572A.143.143,0,0,0,970.921,968.789Z" transform="translate(-944.659 -954.49)" fill="#3c4973"/><path d="M978.19,1005.241l3.463.937a.381.381,0,0,0,.462-.483.146.146,0,0,0-.277.089.089.089,0,0,1-.108.113l-3.463-.937a.089.089,0,0,1-.063-.109l.067-.246a.089.089,0,0,1,.109-.063l3.488.945a.146.146,0,1,0,.076-.281l-3.488-.945a.381.381,0,0,0-.467.268l-.067.246A.381.381,0,0,0,978.19,1005.241Z" transform="translate(-951.434 -985.855)" fill="url(#fq)"/><path d="M971.854,1019.219l3.463.938a.381.381,0,0,0,.462-.484.146.146,0,0,0-.278.089.089.089,0,0,1-.108.113l-3.463-.937a.089.089,0,0,1-.063-.109l.067-.246a.089.089,0,0,1,.109-.063l3.488.944a.146.146,0,1,0,.076-.281l-3.488-.945a.381.381,0,0,0-.467.268l-.067.247A.381.381,0,0,0,971.854,1019.219Z" transform="translate(-945.961 -997.927)" fill="url(#fr)"/><path d="M920.49,1058.192a2.419,2.419,0,0,0,.507.08,2.36,2.36,0,0,0,1.961-.867l4.43-5.4a.146.146,0,1,0-.225-.185l-4.43,5.4a2.073,2.073,0,0,1-1.721.761,2.031,2.031,0,0,1-1.6-.907l-.059-.091a.146.146,0,0,0-.246.156c.021.033.042.065.063.1A2.31,2.31,0,0,0,920.49,1058.192Z" transform="translate(-900.625 -1026.899)" fill="url(#fs)"/><path d="M983.046,1042.388a.146.146,0,0,0,.151-.048l.494-.6a.146.146,0,1,0-.225-.185l-.494.6a.146.146,0,0,0,.02.205A.148.148,0,0,0,983.046,1042.388Z" transform="translate(-955.778 -1018.029)" fill="url(#ft)"/><path d="M802.215,930a.146.146,0,0,0,.175-.093,2.56,2.56,0,0,1,1.382-1.647,3.213,3.213,0,0,1,2.326.145.146.146,0,0,0,.128-.262,3.453,3.453,0,0,0-2.562-.153,2.835,2.835,0,0,0-1.548,1.822.145.145,0,0,0,.09.185Z" transform="translate(-799.599 -919.829)" fill="#f1f1f1"/></g><path d="M937.6,1041.866s-.868-1.261-2.008-.544a3.6,3.6,0,0,0-1.609,2.471C934.14,1043.924,939.951,1044.046,937.6,1041.866Z" transform="translate(-913.476 -1017.685)" fill="url(#fu)"/></g><g transform="translate(390.763 226.937)"><path d="M2107.3,1483.469s.272,1.542.406,3.067a1.051,1.051,0,0,1-1.005,1.139c-2.032.085-6.378.249-7.938.18a.342.342,0,0,1-.3-.469h0a.767.767,0,0,1,.392-.413l7.179-3.3Z" transform="translate(-2083.353 -1409.598)" fill="url(#fv)"/><path d="M2150.289,1475.023l-.219,1.844a2.288,2.288,0,0,1-2.117-.074l.521-2.054Z" transform="translate(-2126.12 -1402.058)" fill="url(#fw)"/><path d="M2151.083,1222.578c.095.481.507,24.026-2.009,34.577a.358.358,0,0,0,.21.417,6.241,6.241,0,0,0,2.05.417.617.617,0,0,0,.612-.443c.719-2.448,4.167-14.713,4.617-26.43.5-13.092,0-.446,0-.446l-.295-8.093Z" transform="translate(-2127.079 -1184.274)" fill="#00223d"/><path d="M2205.777,1489.367a11.089,11.089,0,0,1,.853,2.846.641.641,0,0,1-.564.768c-.671.066-1.7.151-2.531.145a.639.639,0,0,1-.633-.713,5.39,5.39,0,0,1,1.259-2.958Z" transform="translate(-2173.572 -1414.692)" fill="url(#fx)"/><path d="M2214.042,1471.287l-.511,2.788a1.8,1.8,0,0,1-1.505.1l.244-3Z" transform="translate(-2181.457 -1398.984)" fill="url(#fy)"/><path d="M2172.52,1219.629c2.059,12.422-.446,30.7-1.291,34.281a.557.557,0,0,1-.45.424,3.746,3.746,0,0,1-1.61-.064.512.512,0,0,1-.368-.471c-.113-2.893.091-20.651-1.827-27.669a1.6,1.6,0,0,0-.615-.88l-3.723-2.646-.285-4.278Z" transform="translate(-2138.553 -1180.603)" fill="#00223d"/><g transform="translate(2.63 5.875)"><path d="M2084.329,1048.846a57.974,57.974,0,0,1,12.975,1.62c1.839,10.729.322,23.1.322,23.1-4.776,1.252-10.163-.766-10.163-.766-.794-4.484-4.5-17.1-4.5-17.1a20.322,20.322,0,0,1-7.541-2.393,13.229,13.229,0,0,0,2.614-5.468A20.7,20.7,0,0,0,2084.329,1048.846Z" transform="translate(-2066.108 -1039.232)" fill="#c1507f"/><path d="M2007.09,985.245a1.1,1.1,0,0,1,1.215-.489c.908,3.834,5.826,7.047,10.715,8.567a13.227,13.227,0,0,1-2.614,5.468C2008.291,994.227,2007.09,985.245,2007.09,985.245Z" transform="translate(-2007.09 -984.717)" fill="url(#fz)"/></g><path d="M1990.577,948.214c-.063.2.671.508,1.1-.316a7.77,7.77,0,0,0,.019-2.41,31.536,31.536,0,0,0-3.7-3.863.58.58,0,0,0-.073.806l1.183,1.232a5.721,5.721,0,0,0-.69,1.365,1.657,1.657,0,0,0,.165,1.22c.208.374.491.86.759,1.241A1.636,1.636,0,0,0,1990.577,948.214Z" transform="translate(-1987.801 -941.625)" fill="url(#ga)"/><path d="M1999.724,962.437l1.078.914.338.91-.961,1.066a12.4,12.4,0,0,0-.563-2.2C1999.376,962.74,1999.5,962.551,1999.724,962.437Z" transform="translate(-1997.893 -959.6)" fill="url(#gb)"/><path d="M2218.554,1073.087l2.366-5.973s5.761,3.915,6.709,8.878a13.633,13.633,0,0,0-5.009,1.342C2222.194,1074.991,2218.554,1073.087,2218.554,1073.087Z" transform="translate(-2187.095 -1050.006)" fill="#c1507f"/><path d="M2176.2,1134.952s6.469,3.656,8.652.534a2.454,2.454,0,0,0,.45-1.907,13.634,13.634,0,0,1,5.009-1.342,6.854,6.854,0,0,1-.745,4.7c-3.823,6.994-14.222-.387-14.222-.387Z" transform="translate(-2149.774 -1106.25)" fill="url(#gc)"/><g transform="translate(11.041 18.775)"><path d="M2084.945,1101.479l-3.531-12.329a.359.359,0,0,0-.3-.259c-.64-.075-2.493-.284-4.633-.465a52.548,52.548,0,0,0-7.36-.244.361.361,0,0,0-.3.519c1.017,2.058,5.2,10.43,7.3,13.172a.361.361,0,0,0,.291.143l8.191-.076A.361.361,0,0,0,2084.945,1101.479Z" transform="translate(-2068.784 -1086.928)" fill="#8ec8c8"/><path d="M2104.952,1079.77l-2.56-.426a.183.183,0,0,0-.2.239l.253.768a.184.184,0,0,0,.15.124l2.463.329a.184.184,0,0,0,.2-.224l-.157-.67A.184.184,0,0,0,2104.952,1079.77Z" transform="translate(-2097.626 -1079.341)" fill="#00223d"/><path d="M2099.306,1086.8l-.211-1.1a.254.254,0,0,0-.223-.2l-5.17-.525a.254.254,0,0,0-.272.312l.329,1.368a.253.253,0,0,0,.234.194l5.052.254A.254.254,0,0,0,2099.306,1086.8Z" transform="translate(-2090.063 -1084.2)" fill="#00223d"/><path d="M2153.426,1137.6a8.966,8.966,0,0,0,.293-2.74c-.2-.717-.583-1.64-1.864-1.435a18.747,18.747,0,0,0-2.792.745.734.734,0,0,0,1.05.633l-.6.467s.086.748.909.348l-.562.62a.654.654,0,0,0,.958.22C2151.42,1136.06,2151.71,1137.839,2153.426,1137.6Z" transform="translate(-2138.118 -1126.023)" fill="url(#gd)"/></g><path d="M2161.261,1018.5l1.963,5.676a.2.2,0,0,1-.093.246,4.614,4.614,0,0,1-4.785-.322.964.964,0,0,1-.444-.688l-.635-4.913Z" transform="translate(-2134.163 -1008.02)" fill="url(#ge)"/><g transform="translate(20.924 2.275)"><path d="M2143.186,979.947s-2.155,4.057-1.879,5.7,2.948,1.521,5.28.19l1.63-4.381Z" transform="translate(-2141.282 -976.997)" fill="url(#gf)"/><path d="M2151.552,964.994a.167.167,0,0,1-.073-.245,4.369,4.369,0,0,0,.6-1.273s.388-.248-.986-.577-3.422-.839-3.853-2.008c-.42-1.14.683-4.007,2.443-1.722a.167.167,0,0,0,.265,0,1.724,1.724,0,0,1,2.1-.682,1.581,1.581,0,0,1,1.083,1.528.166.166,0,0,0,.2.17,1.929,1.929,0,0,1,2.252,1.05,1.551,1.551,0,0,1-.111,1.862.167.167,0,0,0,.071.277,1,1,0,0,1,.708,1.145c-.059,1.06-1.244.967-1.582.919a.168.168,0,0,0-.149.052,5.7,5.7,0,0,1-3,1.844.169.169,0,0,1-.177-.223l.611-1.776a.168.168,0,0,0-.091-.208Z" transform="translate(-2146.35 -958.31)" fill="#00223d"/><path d="M2174.622,1005.887s1.535-1.053,1.647-.166-1.382,1.284-2.122.954Z" transform="translate(-2169.667 -998.95)" fill="url(#gg)"/></g></g></g></svg>