<?xml version="1.0" encoding="utf-8"?>
<!-- Generator: Adobe Illustrator 25.2.3, SVG Export Plug-In . SVG Version: 6.00 Build 0)  -->
<svg version="1.1" id="Capa_1" xmlns="http://www.w3.org/2000/svg" xmlns:xlink="http://www.w3.org/1999/xlink" x="0px" y="0px"
	 viewBox="0 0 90 90" style="enable-background:new 0 0 90 90;" xml:space="preserve">
<style type="text/css">
	.st0{fill-rule:evenodd;clip-rule:evenodd;fill:#FFE9D4;}
	.st1{fill:#00223D;}
	.st2{fill-rule:evenodd;clip-rule:evenodd;fill:#012B4D;}
	.st3{fill-rule:evenodd;clip-rule:evenodd;fill:#00223D;}
	.st4{fill-rule:evenodd;clip-rule:evenodd;fill:#CD4022;}
</style>
<g transform="translate(314.354 -52.722)">
	<path class="st0" d="M-269.4,142.7c24.8,0,45-20.2,45-45c0-24.8-20.2-45-45-45c-24.8,0-45,20.2-45,45
		C-314.3,122.6-294.2,142.7-269.4,142.7z"/>
	<circle class="st1" cx="-269.4" cy="97.7" r="43.7"/>
	<path class="st2" d="M-313.1,97.9l16.8-19l44.3,12l15,14.1l-32.4,36.4C-293.5,141.4-313,121.9-313.1,97.9z"/>
	<path class="st3" d="M-269.4,117.8c16.7,0,30.2-11.1,30.2-24.6s-13.6-24.6-30.2-24.6s-30.2,11.1-30.2,24.6S-286,117.8-269.4,117.8z
		"/>
	<path class="st0" d="M-269.4,122.6c15.7,0,28.5-11.2,28.5-24.9s-12.8-24.9-28.5-24.9s-28.5,11.2-28.5,24.9S-285,122.6-269.4,122.6z
		"/>
	<path class="st3" d="M-261.6,101c1.7-0.2,3-1.7,2.9-3.4c0.1-1.8-1.2-3.3-2.9-3.4c-1.7,0.2-3,1.7-2.9,3.4
		C-264.6,99.3-263.3,100.8-261.6,101z"/>
	<path class="st3" d="M-289,101c1.7-0.2,3-1.7,2.9-3.4c0.1-1.8-1.2-3.3-2.9-3.4c-1.7,0.2-3,1.7-2.9,3.4
		C-292,99.3-290.7,100.8-289,101z"/>
	<path class="st0" d="M-241.4,106.7c2.8,0,5.1-2.6,5.1-5.9c0-3.2-2.3-5.9-5.1-5.9s-5.1,2.6-5.1,5.9S-244.2,106.7-241.4,106.7z"/>
	<path class="st0" d="M-297.3,106.7c2.8,0,5.1-2.6,5.1-5.9c0-3.2-2.3-5.9-5.1-5.9c-2.8,0-5.1,2.6-5.1,5.9S-300.1,106.7-297.3,106.7z
		"/>
	<path class="st3" d="M-270.7,113.8c4.5,1.2,10.9,0.4,16.1-5.6c1.4-1.6,0.1-1.7-1.2-0.8c-5.1,3.7-10.2,5.7-14.9,5.3
		C-272.2,112.7-272.9,112.8-270.7,113.8z"/>
	<path class="st3" d="M-289.3,94.3c25.6-0.9,33.5-12.3,36.6-19.6c1-2.5-5.7-2-7.5,0.4C-264.8,81.8-275.4,89.8-289.3,94.3z"/>
	<path class="st3" d="M-301.4,85c24.5,7.5,43.2-6.8,48.4-12.7C-262.7,66.1-284.7,56.2-301.4,85z"/>
	<path class="st3" d="M-265.2,104.9c-2,2.3-5.4,2.5-7.7,0.5c-0.2-0.2-0.4-0.3-0.5-0.5c-0.5-0.7-0.2-0.7,0.1-0.5
		c1.6,0.8,6.3,0.8,7.9,0C-265,104.2-264.7,104.2-265.2,104.9z"/>
	<path class="st3" d="M-295.7,88c-1.1,7-2.2,11.6,0,19.1C-293.5,114.7-305.9,93.4-295.7,88z"/>
	<path class="st3" d="M-243,88c1.1,7,2.2,11.6,0,19.1C-245.2,114.7-232.8,93.4-243,88z"/>
	<path class="st3" d="M-237.5,87.1c-15.6-0.5-24.1-8.5-27.1-15.7c-1-2.5,7-0.4,9.3,1.5C-248.3,79.2-248.5,82.3-237.5,87.1z"/>
	<path class="st4" d="M-255.4,107.4c0.3,0,0.6,0,0.9,0c7.3-0.6,9-3.6,9.7-7.4c0.8-4.2,0.8-5.7,1.9-6.1c0.9-0.3,1-1.2,1-2.3
		c-0.1-1.1-0.1-1.2-1.5-1.7c-4-0.6-8-0.8-12-0.6v1.1c3.7-0.2,7.2,0.2,8.2,0.9c2.4,1.4,1.9,8.2,0.1,11.5c-1.3,2.4-5,3.5-8.3,3.6
		L-255.4,107.4z M-269.4,91.5c-1.6,0-8.3-1.7-13-2.1c-0.3,0-0.6,0-0.9-0.1v1.1c3.8,0.2,7.7,1,9.1,2.9c2.3,3.1-1.4,10.6-5,12.3
		c-1.3,0.6-2.7,0.8-4.2,0.8v1.1c4,0.3,7.7-2,9.4-5.6c1.4-2.6,1-6.3,4.6-6.3c3.6,0,3.3,3.6,4.6,6.2c1.6,3.7,5.3,5.9,9.3,5.7v-1.1
		c-1.4,0-2.9-0.2-4.2-0.8c-3.5-1.7-7.3-9.2-5-12.3c1.4-1.9,5.3-2.7,9.1-2.9v-1.1c-0.3,0-0.6,0-0.9,0.1
		C-260.5,89.7-265.6,91.4-269.4,91.5z M-283.3,89.3c-4-0.2-8,0-12,0.6c-1.4,0.5-1.5,0.6-1.5,1.7c-0.1,1.1,0.1,2,1,2.3
		c1.2,0.4,1.2,1.9,1.9,6.1c0.7,3.8,2.4,6.9,9.7,7.4c0.3,0,0.6,0,0.9,0v-1.1c-3.3,0-7-1.2-8.3-3.6c-1.9-3.4-2.3-10.1,0.1-11.5
		c1-0.6,4.6-1,8.2-0.9L-283.3,89.3z"/>
	<path class="st3" d="M-263.7,89c2.7-3.8,6.1-4.6,9.9-2c1,0.7,0.5,0.8-0.1,0.7c-3-2.1-7.2-1.4-9.3,1.7c0,0.1-0.1,0.1-0.1,0.2
		C-263.6,90.1-264.3,90-263.7,89z"/>
	<path class="st3" d="M-276.2,89c-2.7-3.8-6.1-4.6-9.9-2c-1,0.7-0.5,0.8,0.1,0.7c3-2.1,7.2-1.4,9.3,1.7c0,0.1,0.1,0.1,0.1,0.2
		C-276.3,90.1-275.6,90-276.2,89z"/>
</g>
</svg>
