<svg xmlns="http://www.w3.org/2000/svg" xmlns:xlink="http://www.w3.org/1999/xlink" width="368.649" height="367.435" viewBox="0 0 368.649 367.435"><defs><linearGradient id="a" x1="0.5" x2="0.5" y2="1" gradientUnits="objectBoundingBox"><stop offset="0" stop-color="#fff"/><stop offset="1" stop-color="#d3d3d3"/></linearGradient></defs><g transform="translate(-836 -351.882)"><g transform="translate(836 351.882)"><g transform="translate(0 154.595)"><ellipse cx="184.325" cy="106.42" rx="184.325" ry="106.42" fill="#f0f0f0" opacity="0.436"/></g><g transform="translate(12.822 173.049)"><path d="M290.282,381.713a10.035,10.035,0,0,0-1.472-5.175h0a11.359,11.359,0,0,0-.632-.968l-.033-.045a10.481,10.481,0,0,0-.692-.848l-.064-.069a8.942,8.942,0,0,0-.746-.722c-.022-.02-.046-.037-.069-.056a7.292,7.292,0,0,0-.818-.6c-.16-.1-.319-.19-.476-.268-.073-.037-.144-.063-.216-.1s-.166-.078-.248-.11c-.119-.045-.236-.08-.353-.113-.031-.009-.064-.022-.095-.03a3.586,3.586,0,0,0-.409-.08l-.024,0a2.581,2.581,0,0,0-1.521.232h0l-.01,0v0c-4.211,2.112-28.478,17.551-39.645,24.512l-5.534,3.359a1.249,1.249,0,0,0-.408.387c-.014.019-.028.039-.041.06a1.642,1.642,0,0,0-.127.237c-.022.053-.04.11-.059.167s-.047.138-.064.216c-.01.046-.015.1-.022.145-.256.138-.565.307-.915.5l-.818.442a32.244,32.244,0,0,0-6.313-4.679c-7.654-4.418-17.8-6.853-28.56-6.853s-20.907,2.434-28.561,6.853c-7.93,4.578-12.3,10.762-12.3,17.41s4.367,12.831,12.3,17.409c7.654,4.419,17.8,6.853,28.561,6.853s20.906-2.434,28.561-6.853c7.931-4.578,12.3-10.761,12.3-17.409a16.024,16.024,0,0,0-2.6-8.6l.73-.395a1.635,1.635,0,0,0,1.568.154l.034-.018c3.79-2.087,40.73-17.829,48.281-21.88h0l0,0h0A3.384,3.384,0,0,0,290.282,381.713Zm-65.317,45.168c-6.611,3.817-15.513,5.919-25.07,5.919s-18.461-2.1-25.071-5.919c-5.679-3.278-8.8-7.314-8.8-11.362s3.126-8.085,8.8-11.363c6.609-3.816,15.513-5.917,25.071-5.917s18.461,2.1,25.07,5.917c5.678,3.278,8.8,7.314,8.8,11.363S230.643,423.6,224.965,426.881Z" transform="translate(-59.795 -265.693)" fill="#e0e0e0"/><path d="M270.5,260.839l-37.47-21.679a7.62,7.62,0,0,0-6.894,0L35.8,349.051c-1.9,1.1-1.9,2.881,0,3.98l37.469,21.679a7.622,7.622,0,0,0,6.894,0L151.5,333.529l10.964,6.374c5.806,3.352,15.22,3.353,21.026,0l32.685-18.733c5.807-3.35,5.808-8.784,0-12.136l-10.956-6.37L270.5,264.819C272.407,263.72,272.407,261.938,270.5,260.839Z" transform="translate(-34.375 -238.336)" fill="#e0e0e0"/><ellipse cx="36.74" cy="21.212" rx="36.74" ry="21.212" transform="translate(262.246 82.695)" fill="#e0e0e0"/></g><g transform="translate(37.099 0)"><g transform="translate(78.867 190.57)"><g transform="translate(0.005)"><path d="M209.908,341.23l28.161-16.283c2.9-1.676,4.354-3.872,4.355-6.069s.012-3.918.012-3.918l-26.5-15.041a6.2,6.2,0,0,1-2.8-4.855v-34.72l-49.187,28.423,0,34.72a6.2,6.2,0,0,0,2.8,4.855l22.136,12.887C194.689,344.582,204.1,344.582,209.908,341.23Z" transform="translate(-163.944 -260.345)" fill="#344966"/></g><path d="M175.753,335.532v3.9l-9.015-5.2a6.2,6.2,0,0,1-2.8-4.855V294.665l9.372-5.406c.193,2.38.4,4.839.6,7.235l-6.57,3.8v27.126a6.157,6.157,0,0,0,2.8,4.855Z" transform="translate(-163.938 -266.241)" fill="#263238"/><path d="M168.206,322.977a6.2,6.2,0,0,0,2.8,4.856l18.739,10.925c5.806,3.352,15.22,3.353,21.026,0l28.175-16.282c5.807-3.35,5.807-8.784,0-12.136L220.2,299.409a6.2,6.2,0,0,1-2.8-4.855V267.424l-49.189,28.422Z" transform="translate(-164.808 -261.788)" fill="#12263f"/><path d="M225.908,302.709v0l-5.71-3.3a6.2,6.2,0,0,1-2.8-4.855V267.424l-49.189,28.422v27.131a6.2,6.2,0,0,0,2.8,4.856l5.611,3.239Z" transform="translate(-164.808 -261.788)" opacity="0.15"/><path d="M251.633,328.954v3.917c0,2.2-1.457,4.386-4.354,6.069l-28.166,16.274a21.088,21.088,0,0,1-10.035,2.493v-3.9a21.078,21.078,0,0,0,10.035-2.493l28.166-16.29C250.176,333.356,251.633,331.155,251.633,328.954Z" transform="translate(-173.143 -274.335)" fill="#344966"/></g><path d="M68.157,310.178a7.517,7.517,0,0,0,6.791-.126L265.174,200.229a7.743,7.743,0,0,0,3.5-6.069V27.658a7.514,7.514,0,0,0-3.287-5.944,7.513,7.513,0,0,0-6.791.126L68.376,131.664a7.748,7.748,0,0,0-3.5,6.069l0,166.5A7.516,7.516,0,0,0,68.157,310.178Z" transform="translate(-64.87 -20.963)" fill="#344966"/><path d="M76.633,311.122,266.858,201.3a7.746,7.746,0,0,0,3.5-6.069V28.726c0-2.235-1.569-3.141-3.5-2.023L76.636,136.527a7.746,7.746,0,0,0-3.5,6.069l0,166.5C73.129,311.333,74.7,312.239,76.633,311.122Z" transform="translate(-66.554 -22.036)" fill="#12263f"/><path d="M81.386,289.863l0-142.325a4.646,4.646,0,0,1,2.1-3.641L263.365,40.046c1.161-.67,2.1-.127,2.1,1.214l.006,142.328a4.646,4.646,0,0,1-2.1,3.641L83.488,291.077C82.327,291.748,81.386,291.2,81.386,289.863Z" transform="translate(-68.238 -24.796)" fill="#27debf"/><path d="M81.386,289.863l0-142.325a4.646,4.646,0,0,1,2.1-3.641L263.365,40.046c1.161-.67,2.1-.127,2.1,1.214l.006,142.328a4.646,4.646,0,0,1-2.1,3.641L83.488,291.077C82.327,291.748,81.386,291.2,81.386,289.863Z" transform="translate(-68.238 -24.796)" fill="url(#a)"/><path d="M195.985,304.273a2.08,2.08,0,0,1-1.054-.274,2.683,2.683,0,0,1-1.162-2.473,7.6,7.6,0,0,1,3.487-6.04h0a2.392,2.392,0,0,1,3.885,2.243,7.6,7.6,0,0,1-3.487,6.04A3.387,3.387,0,0,1,195.985,304.273Zm2.937-8.494a2.6,2.6,0,0,0-1.268.4h0a6.838,6.838,0,0,0-3.089,5.351,1.619,1.619,0,0,0,2.691,1.552,6.834,6.834,0,0,0,3.089-5.35,1.943,1.943,0,0,0-.764-1.784A1.306,1.306,0,0,0,198.922,295.779Z" transform="translate(-91.154 -76.838)" fill="#27debf"/></g><g transform="translate(75.906 28.934)"><g transform="translate(0 10.561)"><g transform="translate(4.411 2.537)"><path d="M304.417,73.762,119.158,180.6v136.54a2.364,2.364,0,0,0,3.541,2.053l3.3-1.907L300.963,216.4a7.632,7.632,0,0,0,3.453-5.98Z" transform="translate(-119.158 -73.762)" fill="#f0f0f0"/><path d="M303.62,75.14V210.421a6.866,6.866,0,0,1-3.055,5.29L125.6,316.592l-3.3,1.907a1.536,1.536,0,0,1-.774.212,1.6,1.6,0,0,1-1.1-.447,1.549,1.549,0,0,1-.476-1.129V181.055L303.62,75.14m.8-1.378L119.158,180.6v136.54a2.371,2.371,0,0,0,2.369,2.372,2.337,2.337,0,0,0,1.172-.318l3.3-1.907L300.963,216.4a7.632,7.632,0,0,0,3.453-5.98V73.762Z" transform="translate(-119.158 -73.762)" fill="#e0e0e0"/></g><path d="M298.894,70.575,113.624,177.4l4.406,2.544L303.288,73.112Z" transform="translate(-113.618 -70.575)" fill="#455a64" opacity="0.8"/><path d="M119.269,345.933a2.385,2.385,0,0,1-1.24-2.085V207.308l-4.406-2.544-.006,135.785a3.827,3.827,0,0,0,.033.5,3.66,3.66,0,0,0,1.8,2.675l3.638,2.1.178.1Z" transform="translate(-113.617 -97.937)" fill="#ebebeb"/></g><g transform="translate(0.006)"><path d="M113.624,174.756v-9.212a3.836,3.836,0,0,1,1.718-2.994L297.176,57.727a3.787,3.787,0,0,1,3.442-.009l.947.547a3.808,3.808,0,0,1,1.724,2.985v9.227L118.03,177.3Z" transform="translate(-113.624 -57.309)" fill="#7d6eb2"/><path d="M113.624,174.756v-9.212a3.836,3.836,0,0,1,1.718-2.994L297.176,57.727a3.787,3.787,0,0,1,3.442-.009l.947.547a3.808,3.808,0,0,1,1.724,2.985v9.227L118.03,177.3Z" transform="translate(-113.624 -57.309)" fill="#6851bc"/><path d="M119.158,168.783a3.837,3.837,0,0,1,1.718-2.994L302.7,60.96c.949-.555,1.718-.113,1.718.986v9.227L119.158,177.994Z" transform="translate(-114.752 -58.004)" fill="#27debf"/><path d="M119.158,168.783a3.837,3.837,0,0,1,1.718-2.994L302.7,60.96c.949-.555,1.718-.113,1.718.986v9.227L119.158,177.994Z" transform="translate(-114.752 -58.004)" fill="#7d6eb2"/><path d="M118.532,193.673a3.556,3.556,0,0,0-.5,1.7v9.211l-4.4-2.54v-9.219a3.527,3.527,0,0,1,.5-1.7Z" transform="translate(-113.625 -84.597)" fill="#27debf"/><path d="M118.532,193.673a3.556,3.556,0,0,0-.5,1.7v9.211l-4.4-2.54v-9.219a3.527,3.527,0,0,1,.5-1.7Z" transform="translate(-113.625 -84.597)" fill="#4c35a0"/><g transform="translate(168.645 9.73)"><path d="M341.713,72.552c0,1.031.724,1.449,1.617.934a3.574,3.574,0,0,0,1.617-2.8c0-1.031-.724-1.449-1.617-.934A3.574,3.574,0,0,0,341.713,72.552Z" transform="translate(-328.778 -69.531)" fill="#fafafa"/><path d="M333.589,77.242c0,1.032.724,1.45,1.617.934a3.572,3.572,0,0,0,1.617-2.8c0-1.031-.724-1.449-1.617-.933A3.571,3.571,0,0,0,333.589,77.242Z" transform="translate(-327.122 -70.487)" fill="#fafafa"/><path d="M325.465,81.933c0,1.031.724,1.449,1.617.934a3.574,3.574,0,0,0,1.617-2.8c0-1.032-.724-1.449-1.617-.934A3.574,3.574,0,0,0,325.465,81.933Z" transform="translate(-325.465 -71.444)" fill="#fafafa"/></g></g><g transform="translate(4.411 19.481)"><path d="M119.158,201.045V337.524a2.364,2.364,0,0,0,3.541,2.053l3.3-1.907,40.485-23.344V173.752l-47.329,27.291Z" transform="translate(-119.158 -100.534)" fill="#fafafa"/><path d="M182.672,157.3V289.862l130.812-75.524V81.78Z" transform="translate(-132.109 -81.78)" fill="#fafafa"/><g transform="translate(5.29 86.549)"><path d="M157.008,193.837l-30.193,17.446a2.236,2.236,0,0,0-1.012,1.752v3.143c0,.645.453.907,1.012.584l30.193-17.446a2.237,2.237,0,0,0,1.012-1.753v-3.142C158.019,193.775,157.567,193.514,157.008,193.837Z" transform="translate(-125.803 -191.149)" fill="#27debf"/><path d="M157.008,193.837l-30.193,17.446a2.236,2.236,0,0,0-1.012,1.752v3.143c0,.645.453.907,1.012.584l30.193-17.446a2.237,2.237,0,0,0,1.012-1.753v-3.142C158.019,193.775,157.567,193.514,157.008,193.837Z" transform="translate(-125.803 -191.149)" fill="#fafafa" opacity="0.8"/><path d="M172.484,194.431l-.89-.857a3.965,3.965,0,0,0,.283-1.422,1.681,1.681,0,0,0-.665-1.528,1.053,1.053,0,0,0-1.083.047,3.556,3.556,0,0,0-1.4,2.892,1.684,1.684,0,0,0,.665,1.528.949.949,0,0,0,.478.128,1.206,1.206,0,0,0,.606-.177,2.4,2.4,0,0,0,.79-.81l.73.7a.349.349,0,0,0,.243.1.355.355,0,0,0,.253-.107A.351.351,0,0,0,172.484,194.431Zm-2.356.006a.377.377,0,0,1-.382.048c-.146-.084-.315-.375-.315-.92a2.9,2.9,0,0,1,1.048-2.286.519.519,0,0,1,.253-.081.259.259,0,0,1,.13.034c.145.084.314.375.314.921A2.9,2.9,0,0,1,170.128,194.437Z" transform="translate(-134.556 -190.497)" fill="#455a64"/></g><g transform="translate(5.276 106.759)"><g transform="translate(0 11.42)"><g transform="translate(0)"><path d="M126.535,233.736l-.677.391c-.04.023-.072,0-.072-.054v-1.833a.174.174,0,0,1,.072-.139l.677-.391c.04-.023.072,0,.072.055V233.6A.173.173,0,0,1,126.535,233.736Z" transform="translate(-125.786 -230.529)" fill="#455a64"/><path d="M127.81,233l-.677.391c-.04.023-.072,0-.072-.054V231.5a.174.174,0,0,1,.072-.139l.677-.391c.04-.023.072,0,.072.055v1.833A.174.174,0,0,1,127.81,233Z" transform="translate(-126.046 -230.379)" fill="#455a64"/><path d="M129.085,232.264l-.678.391c-.04.023-.072,0-.072-.054v-1.834a.173.173,0,0,1,.072-.138l.678-.391c.04-.023.072,0,.072.055v1.833A.174.174,0,0,1,129.085,232.264Z" transform="translate(-126.306 -230.229)" fill="#455a64"/><path d="M126.535,236.706l-.677.391c-.04.023-.072,0-.072-.054v-1.833a.174.174,0,0,1,.072-.139l.677-.391c.04-.023.072,0,.072.055v1.833A.173.173,0,0,1,126.535,236.706Z" transform="translate(-125.786 -231.135)" fill="#455a64"/><path d="M127.81,235.97l-.677.391c-.04.023-.072,0-.072-.055v-1.833a.174.174,0,0,1,.072-.138l.677-.391c.04-.023.072,0,.072.055v1.833A.174.174,0,0,1,127.81,235.97Z" transform="translate(-126.046 -230.985)" fill="#455a64"/><path d="M129.085,235.234l-.678.391c-.04.023-.072,0-.072-.055v-1.833a.173.173,0,0,1,.072-.138l.678-.391c.04-.023.072,0,.072.055V235.1A.174.174,0,0,1,129.085,235.234Z" transform="translate(-126.306 -230.835)" fill="#455a64"/></g><g transform="translate(0 9.224)"><g transform="translate(0 0.418)"><path d="M126.643,244.516l-.833-.508c-.032-.019-.032-.093,0-.15l.833-1.47c.041-.071.1-.061.1.018v1.978C126.741,244.462,126.683,244.54,126.643,244.516Z" transform="translate(-125.786 -242.34)" fill="#455a64"/></g><g transform="translate(0.337)"><path d="M126.379,243.5l1.1-.634v.522l-1.1.634c-.093.053-.17-.02-.17-.163A.45.45,0,0,1,126.379,243.5Z" transform="translate(-126.209 -242.03)" fill="#455a64"/><path d="M128.058,242.663l.374-.216v.522l-.374.216Z" transform="translate(-126.586 -241.944)" fill="#455a64"/><path d="M129.591,242v1.919a.444.444,0,0,1-.17.358c-.093.054-.17-.017-.17-.163v-1.658l-.464.268V242.2l.634-.365C129.515,241.779,129.591,241.853,129.591,242Z" transform="translate(-126.735 -241.816)" fill="#455a64"/></g></g><g transform="translate(0 15.924)"><path d="M126.967,250.426a3.632,3.632,0,0,0-1.155,3.1c.137,1,.73.962.794,1.425.007.05.04.068.076.048l.742-.421a.188.188,0,0,0,.076-.135c.078-.611.835-1.35.841-2.838C128.345,250.467,127.72,249.909,126.967,250.426Z" transform="translate(-125.786 -250.232)" fill="#455a64"/><path d="M127.621,256.967l-.716.414c-.049.028-.089,0-.089-.068v-.659a.213.213,0,0,1,.089-.17l.716-.413c.049-.029.088,0,.088.067v.66A.212.212,0,0,1,127.621,256.967Z" transform="translate(-125.996 -251.42)" fill="#455a64"/></g><path d="M127.14,230.936a4.348,4.348,0,0,0-1.3,2.747,2.884,2.884,0,0,0,.189,1.5l-.24,1.252c-.02.1.037.158.1.093l.721-.787a1.121,1.121,0,0,0,1.05-.309,4.345,4.345,0,0,0,1.3-2.751C129.128,230.931,128.214,230.052,127.14,230.936Zm.26,4.1c-.665.384-1.2-.136-1.2-1.159a3.181,3.181,0,0,1,1.2-2.55c.664-.383,1.2.137,1.2,1.159A3.181,3.181,0,0,1,127.4,235.04Z" transform="translate(-125.786 -230.302)" fill="#455a64"/><path d="M127.14,261.284a4.347,4.347,0,0,0-1.3,2.747,2.884,2.884,0,0,0,.189,1.5l-.24,1.252c-.02.1.037.158.1.093l.721-.787a1.121,1.121,0,0,0,1.05-.309,4.345,4.345,0,0,0,1.3-2.751C129.128,261.279,128.214,260.4,127.14,261.284Zm.26,4.1c-.665.384-1.2-.136-1.2-1.159a3.181,3.181,0,0,1,1.2-2.55c.664-.383,1.2.137,1.2,1.159A3.181,3.181,0,0,1,127.4,265.388Z" transform="translate(-125.786 -236.491)" fill="#455a64"/><g transform="translate(0 32.967)"><path d="M128.44,272.319a1.676,1.676,0,0,1-.635,1.345c-.351.2-.636-.072-.636-.612a1.678,1.678,0,0,1,.636-1.345C128.156,271.5,128.44,271.779,128.44,272.319Z" transform="translate(-126.068 -271.64)" fill="#455a64"/><path d="M129.92,272.619a1.116,1.116,0,0,1-.423.9c-.234.135-.424-.047-.424-.407a1.115,1.115,0,0,1,.424-.9C129.731,272.076,129.92,272.259,129.92,272.619Z" transform="translate(-126.456 -271.748)" fill="#455a64"/><path d="M128.526,276.728l-1.5.867v-1.9a1.3,1.3,0,0,1,.544-1.038l.414-.24c.3-.173.543.011.543.411Z" transform="translate(-126.039 -272.193)" fill="#455a64"/><path d="M129.584,274.125l-.413.238v2.19l.779-.45v-1.7C129.95,274.132,129.786,274.008,129.584,274.125Z" transform="translate(-126.476 -272.138)" fill="#455a64"/><path d="M125.8,275c0,.36.19.542.424.408a1.119,1.119,0,0,0,.423-.9c0-.36-.189-.542-.423-.408A1.117,1.117,0,0,0,125.8,275Z" transform="translate(-125.788 -272.133)" fill="#455a64"/><path d="M126.152,276.063l.413-.239v2.19l-.779.45v-1.7A.877.877,0,0,1,126.152,276.063Z" transform="translate(-125.786 -272.493)" fill="#455a64"/></g></g><g transform="translate(6.482)"><path d="M134.789,226.215l17.679-10.207c.476-.275.862-.08.862.435a1.848,1.848,0,0,1-.862,1.431l-17.679,10.207c-.475.275-.861.079-.861-.436A1.849,1.849,0,0,1,134.789,226.215Z" transform="translate(-133.928 -215.884)" fill="#e0e0e0"/><path d="M134.789,236.668l17.679-10.207c.476-.275.862-.08.862.435a1.848,1.848,0,0,1-.862,1.431l-17.679,10.207c-.475.275-.861.08-.861-.435A1.849,1.849,0,0,1,134.789,236.668Z" transform="translate(-133.928 -218.015)" fill="#e0e0e0"/><path d="M134.789,247.121l17.679-10.207c.476-.275.862-.079.862.436a1.848,1.848,0,0,1-.862,1.431l-17.679,10.207c-.475.275-.861.08-.861-.436A1.849,1.849,0,0,1,134.789,247.121Z" transform="translate(-133.928 -220.146)" fill="#e0e0e0"/><path d="M134.789,257.574l17.679-10.208c.476-.275.862-.08.862.436a1.848,1.848,0,0,1-.862,1.431L134.789,259.44c-.475.275-.861.08-.861-.436A1.849,1.849,0,0,1,134.789,257.574Z" transform="translate(-133.928 -222.278)" fill="#e0e0e0"/><path d="M134.789,268.027l17.679-10.208c.476-.275.862-.08.862.436a1.849,1.849,0,0,1-.862,1.431l-17.679,10.207c-.475.275-.861.08-.861-.436A1.849,1.849,0,0,1,134.789,268.027Z" transform="translate(-133.928 -224.409)" fill="#e0e0e0"/><path d="M138.852,276.562l17.679-10.208c.475-.275.861-.08.861.436a1.848,1.848,0,0,1-.861,1.431l-17.679,10.207c-.476.275-.862.08-.862-.436A1.848,1.848,0,0,1,138.852,276.562Z" transform="translate(-134.756 -226.15)" fill="#455a64"/><path d="M138.852,283.623l17.679-10.208c.475-.275.861-.08.861.436a1.847,1.847,0,0,1-.861,1.431L138.852,285.49c-.476.275-.862.08-.862-.436A1.848,1.848,0,0,1,138.852,283.623Z" transform="translate(-134.756 -227.589)" fill="#e0e0e0"/><path d="M138.852,290.684l17.679-10.207c.475-.275.861-.079.861.436a1.847,1.847,0,0,1-.861,1.431L138.852,292.55c-.476.275-.862.08-.862-.435A1.848,1.848,0,0,1,138.852,290.684Z" transform="translate(-134.756 -229.029)" fill="#e0e0e0"/><path d="M143.174,295.172l17.679-10.207c.476-.275.861-.08.861.436a1.847,1.847,0,0,1-.861,1.43l-17.679,10.207c-.476.275-.862.08-.862-.435A1.848,1.848,0,0,1,143.174,295.172Z" transform="translate(-135.638 -229.945)" fill="#e0e0e0"/><g transform="translate(3.234 66.39)"><path d="M138.16,302.952l1.435-2.533c.055-.1.055-.224,0-.257l-1.435-.876c-.069-.042-.17.092-.17.227v3.409C137.99,303.056,138.091,303.075,138.16,302.952Z" transform="translate(-137.99 -299.278)" fill="#455a64"/></g><path d="M143.174,302.209,160.853,292c.476-.275.861-.079.861.436a1.848,1.848,0,0,1-.861,1.431l-17.679,10.207c-.476.275-.862.08-.862-.436A1.848,1.848,0,0,1,143.174,302.209Z" transform="translate(-135.638 -231.379)" fill="#e0e0e0"/><g transform="translate(3.234 71.992)"><path d="M138.16,309.989l1.435-2.533c.055-.1.055-.224,0-.257l-1.435-.876c-.069-.042-.17.091-.17.227v3.408C137.99,310.093,138.091,310.111,138.16,309.989Z" transform="translate(-137.99 -306.315)" fill="#455a64"/></g><path d="M143.174,309.245l17.679-10.207c.476-.275.861-.08.861.436a1.847,1.847,0,0,1-.861,1.43l-17.679,10.208c-.476.275-.862.079-.862-.436A1.848,1.848,0,0,1,143.174,309.245Z" transform="translate(-135.638 -232.814)" fill="#e0e0e0"/><g transform="translate(3.234 77.594)"><path d="M138.16,317.025l1.435-2.533c.055-.1.055-.224,0-.257l-1.435-.875c-.069-.043-.17.092-.17.226v3.409C137.99,317.129,138.091,317.148,138.16,317.025Z" transform="translate(-137.99 -313.352)" fill="#455a64"/></g><path d="M143.174,316.282l17.679-10.207c.476-.275.861-.08.861.436a1.848,1.848,0,0,1-.861,1.431l-17.679,10.207c-.476.275-.862.08-.862-.436A1.848,1.848,0,0,1,143.174,316.282Z" transform="translate(-135.638 -234.249)" fill="#e0e0e0"/><g transform="translate(3.234 83.195)"><path d="M138.16,324.062l1.435-2.533c.055-.1.055-.225,0-.257l-1.435-.876c-.069-.042-.17.092-.17.227v3.408C137.99,324.166,138.091,324.185,138.16,324.062Z" transform="translate(-137.99 -320.388)" fill="#455a64"/></g><path d="M143.174,323.318l17.679-10.207c.476-.275.861-.08.861.435a1.847,1.847,0,0,1-.861,1.431l-17.679,10.208c-.476.275-.862.079-.862-.436A1.848,1.848,0,0,1,143.174,323.318Z" transform="translate(-135.638 -235.684)" fill="#e0e0e0"/><g transform="translate(3.234 88.797)"><path d="M138.16,331.1l1.435-2.533c.055-.1.055-.224,0-.257l-1.435-.875c-.069-.043-.17.092-.17.226v3.409C137.99,331.2,138.091,331.221,138.16,331.1Z" transform="translate(-137.99 -327.425)" fill="#455a64"/></g><path d="M143.174,330.355l17.679-10.208c.476-.275.861-.08.861.436a1.847,1.847,0,0,1-.861,1.431l-17.679,10.207c-.476.275-.862.08-.862-.436A1.848,1.848,0,0,1,143.174,330.355Z" transform="translate(-135.638 -237.118)" fill="#e0e0e0"/><g transform="translate(3.234 94.399)"><path d="M138.16,338.135,139.6,335.6c.055-.1.055-.224,0-.258l-1.435-.875c-.069-.042-.17.092-.17.227V338.1C137.99,338.239,138.091,338.258,138.16,338.135Z" transform="translate(-137.99 -334.461)" fill="#455a64"/></g><path d="M143.174,337.391l17.679-10.207c.476-.275.861-.08.861.435a1.847,1.847,0,0,1-.861,1.431l-17.679,10.207c-.476.275-.862.08-.862-.435A1.848,1.848,0,0,1,143.174,337.391Z" transform="translate(-135.638 -238.553)" fill="#e0e0e0"/><g transform="translate(3.234 100)"><path d="M138.16,345.171l1.435-2.533c.055-.1.055-.224,0-.257l-1.435-.876c-.069-.042-.17.092-.17.227v3.409C137.99,345.275,138.091,345.294,138.16,345.171Z" transform="translate(-137.99 -341.497)" fill="#455a64"/></g><path d="M143.174,344.428l17.679-10.207c.476-.275.861-.08.861.436a1.848,1.848,0,0,1-.861,1.431l-17.679,10.207c-.476.275-.862.08-.862-.436A1.848,1.848,0,0,1,143.174,344.428Z" transform="translate(-135.638 -239.988)" fill="#e0e0e0"/><g transform="translate(3.234 105.602)"><path d="M138.16,352.208l1.435-2.533c.055-.1.055-.224,0-.257l-1.435-.876c-.069-.042-.17.092-.17.227v3.408C137.99,352.312,138.091,352.33,138.16,352.208Z" transform="translate(-137.99 -348.534)" fill="#455a64"/></g></g></g><g transform="translate(53.797 6.824)"><g transform="translate(0 36.41)"><path d="M187.6,186.557,245.7,153.009a1.905,1.905,0,0,0,.862-1.493V136.7c0-.549-.386-.772-.862-.5L187.6,169.748a1.9,1.9,0,0,0-.862,1.493V186.06C186.734,186.609,187.12,186.832,187.6,186.557Z" transform="translate(-186.734 -136.088)" fill="#f0f0f0"/><g transform="translate(3.772 31.749)"><g transform="translate(1.97 4.525)"><path d="M194.133,185.775a.17.17,0,0,1,.006-.036l.382-1.591-.527.3a.026.026,0,0,1-.034,0,.06.06,0,0,1-.014-.044v-.287a.148.148,0,0,1,.014-.061.1.1,0,0,1,.034-.041l.844-.487a.026.026,0,0,1,.034,0,.059.059,0,0,1,.014.044v.253a.707.707,0,0,1-.029.154l-.382,1.595a.466.466,0,0,1-.019.057.077.077,0,0,1-.032.038l-.248.143a.023.023,0,0,1-.029,0A.051.051,0,0,1,194.133,185.775Z" transform="translate(-193.946 -182.036)" fill="#455a64"/><path d="M195.819,182.968a.429.429,0,0,1,.228-.072.223.223,0,0,1,.158.069.4.4,0,0,1,.094.181,1.164,1.164,0,0,1,.036.26c0,.078,0,.158,0,.243s0,.166,0,.242a1.8,1.8,0,0,1-.036.3,1.319,1.319,0,0,1-.094.289,1.1,1.1,0,0,1-.158.252.837.837,0,0,1-.228.191.435.435,0,0,1-.228.072.231.231,0,0,1-.158-.069.407.407,0,0,1-.093-.182,1.261,1.261,0,0,1-.037-.26c0-.073,0-.152,0-.237s0-.167,0-.247a1.992,1.992,0,0,1,.037-.3,1.363,1.363,0,0,1,.093-.289,1.161,1.161,0,0,1,.158-.252A.843.843,0,0,1,195.819,182.968Zm.189,1.1c0-.156,0-.309,0-.456a1.125,1.125,0,0,0-.013-.118.213.213,0,0,0-.032-.081.075.075,0,0,0-.057-.034.145.145,0,0,0-.088.027.306.306,0,0,0-.089.075.4.4,0,0,0-.057.1.729.729,0,0,0-.032.118.882.882,0,0,0-.011.132q-.01.23,0,.456a.646.646,0,0,0,.01.119.192.192,0,0,0,.032.081.082.082,0,0,0,.057.034.155.155,0,0,0,.089-.027.3.3,0,0,0,.088-.076.373.373,0,0,0,.057-.1A.476.476,0,0,0,196,184.2.971.971,0,0,0,196.007,184.065Z" transform="translate(-194.222 -181.907)" fill="#455a64"/><path d="M197.344,182.408c0,.072,0,.14,0,.207a.986.986,0,0,1-.02.162.733.733,0,0,1-.052.153.6.6,0,0,1-.085.132.49.49,0,0,1-.121.1.248.248,0,0,1-.119.039.117.117,0,0,1-.085-.034.213.213,0,0,1-.051-.093.562.562,0,0,1-.022-.139c0-.034,0-.068,0-.1s0-.068,0-.107a.914.914,0,0,1,.022-.163.762.762,0,0,1,.051-.152.561.561,0,0,1,.085-.132.447.447,0,0,1,.119-.1.247.247,0,0,1,.121-.04.116.116,0,0,1,.084.034.22.22,0,0,1,.053.092A.612.612,0,0,1,197.344,182.408Zm.442-.575a.238.238,0,0,1,.025-.053.108.108,0,0,1,.037-.036l.145-.084c.014-.007.024-.008.031,0a.038.038,0,0,1,.012.033l0,.015a.1.1,0,0,1,0,.02L197.157,184a.3.3,0,0,1-.026.053.1.1,0,0,1-.037.035l-.145.084c-.014.008-.023.009-.031,0a.038.038,0,0,1-.012-.033l0-.014a.069.069,0,0,1,.006-.02Zm-.791.97a.217.217,0,0,0,.018.095c.01.018.028.02.053,0a.114.114,0,0,0,.054-.067.48.48,0,0,0,.019-.116,1.7,1.7,0,0,0,0-.18.265.265,0,0,0-.019-.1c-.01-.018-.027-.019-.054,0a.122.122,0,0,0-.053.066.4.4,0,0,0-.018.117A1.356,1.356,0,0,0,196.995,182.8Zm1.169.084c0,.07,0,.139,0,.207a.991.991,0,0,1-.021.162.686.686,0,0,1-.052.152.56.56,0,0,1-.085.132.459.459,0,0,1-.119.1.252.252,0,0,1-.121.041.114.114,0,0,1-.084-.035.215.215,0,0,1-.052-.092.612.612,0,0,1-.021-.139c0-.035,0-.068,0-.1s0-.068,0-.107a.985.985,0,0,1,.021-.162.754.754,0,0,1,.052-.153.53.53,0,0,1,.084-.131.444.444,0,0,1,.121-.1.238.238,0,0,1,.119-.039.11.11,0,0,1,.084.033.215.215,0,0,1,.052.093A.608.608,0,0,1,198.164,182.887Zm-.35.395a.231.231,0,0,0,.019.1c.01.018.027.019.054,0a.12.12,0,0,0,.053-.066.461.461,0,0,0,.018-.117,1.692,1.692,0,0,0,0-.18.244.244,0,0,0-.018-.095c-.01-.017-.028-.02-.053,0a.115.115,0,0,0-.054.067.424.424,0,0,0-.019.116A1.7,1.7,0,0,0,197.814,183.282Z" transform="translate(-194.525 -181.654)" fill="#455a64"/></g><path d="M193.667,180.388l-.584-.9a11.717,11.717,0,0,0-1.379,3.715l.943-.073A8.634,8.634,0,0,1,193.667,180.388Z" transform="translate(-191.52 -176.687)" fill="#455a64"/><path d="M195.667,177.995V176.47a6.613,6.613,0,0,0-2.23,2.4l.584.9A4.9,4.9,0,0,1,195.667,177.995Z" transform="translate(-191.873 -176.072)" fill="#455a64"/><path d="M192.462,185.477a7.637,7.637,0,0,1,.139-1.413l-.943.073a10.433,10.433,0,0,0-.185,1.911,7.321,7.321,0,0,0,.185,1.7l.943-1.016A5.353,5.353,0,0,1,192.462,185.477Z" transform="translate(-191.472 -177.62)" fill="#455a64"/><path d="M198.922,178.32a3.134,3.134,0,0,0-1.379-2.123,2.211,2.211,0,0,0-2.23.171v1.524a1.629,1.629,0,0,1,1.646-.123,2.31,2.31,0,0,1,1.02,1.566,5.4,5.4,0,0,1,.138,1.254,7.7,7.7,0,0,1-.138,1.413,8.654,8.654,0,0,1-1.02,2.743,4.89,4.89,0,0,1-1.646,1.778,1.628,1.628,0,0,1-1.646.123,2.3,2.3,0,0,1-1.019-1.566l-.943,1.016a3.134,3.134,0,0,0,1.379,2.124,2.212,2.212,0,0,0,2.229-.171,6.619,6.619,0,0,0,2.23-2.4,11.724,11.724,0,0,0,1.379-3.715,10.446,10.446,0,0,0,.185-1.912A7.329,7.329,0,0,0,198.922,178.32Z" transform="translate(-191.52 -175.97)" fill="#27debf"/></g><path d="M207.906,171.032l17.679-10.207c.476-.275.862-.079.862.436a1.848,1.848,0,0,1-.862,1.431L207.906,172.9c-.476.275-.862.08-.862-.435A1.848,1.848,0,0,1,207.906,171.032Z" transform="translate(-190.875 -141.107)" fill="#455a64"/><path d="M207.906,173.847l30.614-17.67c.476-.275.862-.079.862.436a1.848,1.848,0,0,1-.862,1.431l-30.614,17.67c-.476.275-.862.08-.862-.436A1.848,1.848,0,0,1,207.906,173.847Z" transform="translate(-190.875 -140.159)" fill="#e0e0e0"/></g><g transform="translate(63.052)"><path d="M266.8,140.821,324.9,107.273a1.907,1.907,0,0,0,.861-1.493V90.967c0-.549-.386-.772-.861-.5L266.8,124.012a1.9,1.9,0,0,0-.862,1.493v14.819C265.936,140.873,266.322,141.1,266.8,140.821Z" transform="translate(-265.936 -90.352)" fill="#f0f0f0"/><g transform="translate(4.297 31.442)"><g transform="translate(1.918 4.496)"><path d="M273.742,138.643a1.068,1.068,0,0,1,.044-.309,1.23,1.23,0,0,1,.115-.28,1.15,1.15,0,0,1,.166-.229.837.837,0,0,1,.192-.158.453.453,0,0,1,.193-.064.249.249,0,0,1,.166.037.306.306,0,0,1,.116.146.666.666,0,0,1,.044.259.937.937,0,0,1-.012.152c-.008.049-.018.1-.03.142s-.026.092-.041.136-.03.087-.046.128l-.334.909a.364.364,0,0,0-.02.045.085.085,0,0,1-.036.041l-.281.162a.018.018,0,0,1-.025,0,.059.059,0,0,1-.01-.037.063.063,0,0,1,0-.023.067.067,0,0,1,.006-.017l.227-.621a.377.377,0,0,1-.166.024.249.249,0,0,1-.139-.059.341.341,0,0,1-.095-.145A.672.672,0,0,1,273.742,138.643Zm.708-.409a.229.229,0,0,0-.015-.09.1.1,0,0,0-.1-.065.163.163,0,0,0-.072.024.317.317,0,0,0-.072.059.46.46,0,0,0-.061.084.436.436,0,0,0-.042.1.365.365,0,0,0-.017.108.211.211,0,0,0,.017.09.107.107,0,0,0,.042.052.091.091,0,0,0,.061.014.161.161,0,0,0,.072-.023.287.287,0,0,0,.072-.059.465.465,0,0,0,.1-.185A.4.4,0,0,0,274.45,138.234Z" transform="translate(-273.742 -135.924)" fill="#455a64"/><path d="M275.745,136.808a.427.427,0,0,1,.228-.071.221.221,0,0,1,.158.069.4.4,0,0,1,.094.181,1.274,1.274,0,0,1,.036.26c0,.077,0,.158,0,.243s0,.166,0,.242a1.971,1.971,0,0,1-.036.3,1.314,1.314,0,0,1-.094.29,1.125,1.125,0,0,1-.158.252.851.851,0,0,1-.228.191.436.436,0,0,1-.229.072.229.229,0,0,1-.158-.069.413.413,0,0,1-.094-.182,1.26,1.26,0,0,1-.036-.26c0-.073,0-.152,0-.237s0-.167,0-.247a1.982,1.982,0,0,1,.036-.3,1.338,1.338,0,0,1,.094-.289,1.16,1.16,0,0,1,.158-.252A.876.876,0,0,1,275.745,136.808Zm.188,1.1c.006-.156.006-.309,0-.456a.815.815,0,0,0-.013-.118.2.2,0,0,0-.031-.081.075.075,0,0,0-.056-.034.149.149,0,0,0-.088.026.306.306,0,0,0-.089.076.372.372,0,0,0-.057.1.641.641,0,0,0-.032.118,1,1,0,0,0-.012.132q-.01.231,0,.456a.718.718,0,0,0,.011.119.182.182,0,0,0,.032.081.081.081,0,0,0,.057.034.158.158,0,0,0,.089-.028.286.286,0,0,0,.088-.075.372.372,0,0,0,.057-.1.508.508,0,0,0,.032-.118A.885.885,0,0,0,275.932,137.906Z" transform="translate(-274.044 -135.748)" fill="#455a64"/><path d="M277.27,136.249c0,.072,0,.139,0,.207a.9.9,0,0,1-.021.162.708.708,0,0,1-.051.152.593.593,0,0,1-.086.133.453.453,0,0,1-.12.1.244.244,0,0,1-.119.04.116.116,0,0,1-.085-.034.213.213,0,0,1-.051-.093.56.56,0,0,1-.022-.139c0-.034,0-.068,0-.1s0-.068,0-.107a.934.934,0,0,1,.022-.164.714.714,0,0,1,.051-.151.56.56,0,0,1,.085-.132.434.434,0,0,1,.119-.1.247.247,0,0,1,.12-.04.115.115,0,0,1,.084.034.206.206,0,0,1,.052.092A.566.566,0,0,1,277.27,136.249Zm.441-.575a.276.276,0,0,1,.026-.053.1.1,0,0,1,.037-.036l.145-.084a.029.029,0,0,1,.031,0,.038.038,0,0,1,.012.033l0,.015a.066.066,0,0,1-.005.02l-.873,2.271a.251.251,0,0,1-.026.053.109.109,0,0,1-.038.035l-.144.084c-.013.007-.024.009-.031,0a.039.039,0,0,1-.012-.033l0-.014a.073.073,0,0,1,.006-.019Zm-.791.97a.229.229,0,0,0,.019.095c.01.018.028.02.053,0a.113.113,0,0,0,.053-.067.449.449,0,0,0,.02-.116,1.717,1.717,0,0,0,0-.18.247.247,0,0,0-.02-.1c-.01-.018-.027-.019-.053,0a.117.117,0,0,0-.053.066.435.435,0,0,0-.019.117A1.393,1.393,0,0,0,276.919,136.645Zm1.17.084c0,.07,0,.139,0,.207a1.2,1.2,0,0,1-.021.162.723.723,0,0,1-.052.152.585.585,0,0,1-.085.132.449.449,0,0,1-.12.1.236.236,0,0,1-.12.04.113.113,0,0,1-.085-.034.219.219,0,0,1-.051-.092.571.571,0,0,1-.021-.139c0-.035,0-.068,0-.1s0-.068,0-.108a.916.916,0,0,1,.021-.163.759.759,0,0,1,.051-.152.556.556,0,0,1,.085-.131.453.453,0,0,1,.12-.1.235.235,0,0,1,.12-.039.111.111,0,0,1,.084.033.223.223,0,0,1,.052.093A.652.652,0,0,1,278.09,136.728Zm-.35.395a.219.219,0,0,0,.019.1c.01.018.027.019.053,0a.12.12,0,0,0,.054-.066.434.434,0,0,0,.017-.117,1.361,1.361,0,0,0,0-.18.234.234,0,0,0-.017-.095c-.01-.017-.028-.02-.054,0a.118.118,0,0,0-.053.067.391.391,0,0,0-.019.116A1.7,1.7,0,0,0,277.74,137.123Z" transform="translate(-274.347 -135.495)" fill="#455a64"/></g><path d="M275.528,131.873v-1.525a6.613,6.613,0,0,0-2.23,2.4l.584.9A4.893,4.893,0,0,1,275.528,131.873Z" transform="translate(-271.734 -129.95)" fill="#455a64"/><path d="M278.735,132.2a3.134,3.134,0,0,0-1.379-2.124,2.21,2.21,0,0,0-2.229.171v1.524a1.631,1.631,0,0,1,1.645-.123,2.312,2.312,0,0,1,1.02,1.567,5.393,5.393,0,0,1,.138,1.254,7.7,7.7,0,0,1-.138,1.412,8.634,8.634,0,0,1-1.018,2.74,4.919,4.919,0,0,1-1.647,1.782,1.633,1.633,0,0,1-1.646.123,2.308,2.308,0,0,1-1.019-1.567,5.345,5.345,0,0,1-.139-1.254,7.624,7.624,0,0,1,.139-1.412,8.632,8.632,0,0,1,1.019-2.743l-.583-.9a11.718,11.718,0,0,0-1.379,3.715,10.444,10.444,0,0,0-.185,1.912,7.337,7.337,0,0,0,.185,1.7A3.134,3.134,0,0,0,272.9,142.1a2.211,2.211,0,0,0,2.23-.171,6.617,6.617,0,0,0,2.229-2.4v0a11.719,11.719,0,0,0,1.379-3.715,10.43,10.43,0,0,0,.185-1.912A7.316,7.316,0,0,0,278.735,132.2Z" transform="translate(-271.333 -129.848)" fill="#27debf"/></g><path d="M287.748,124.91,305.427,114.7c.476-.275.862-.08.862.436a1.848,1.848,0,0,1-.862,1.431l-17.679,10.207c-.476.275-.861.08-.861-.436A1.847,1.847,0,0,1,287.748,124.91Z" transform="translate(-270.208 -95.292)" fill="#455a64"/><path d="M287.748,127.725l30.614-17.669c.475-.275.861-.08.861.436a1.849,1.849,0,0,1-.861,1.431l-30.614,17.67c-.476.275-.861.08-.861-.436A1.85,1.85,0,0,1,287.748,127.725Z" transform="translate(-270.208 -94.345)" fill="#e0e0e0"/></g></g><g transform="translate(53.797 34.829)"><path d="M195.032,202.715l12.4-7.181c.476-.275.861-.08.861.436a1.848,1.848,0,0,1-.861,1.431l-12.4,7.181c-.476.275-.861.08-.861-.436A1.848,1.848,0,0,1,195.032,202.715Z" transform="translate(-188.25 -139.779)" fill="#455a64"/><path d="M309.186,126.321h0m-.365.211V221.24a1.133,1.133,0,0,1-.463.8L187.531,291.8V197.092a1.128,1.128,0,0,1,.464-.8l1.51-.873a2.706,2.706,0,0,0,1.259-2.182v-5.478a1.131,1.131,0,0,1,.464-.8l17.346-10.012v5.091a1.3,1.3,0,0,0,1.274,1.412,1.56,1.56,0,0,0,.783-.225l98.191-56.687m-99.882,50.2h0m100.2-51.2a.785.785,0,0,0-.385.118L210.232,182.53a.785.785,0,0,1-.385.118c-.283,0-.478-.225-.478-.615v-5.478c0-.389-.193-.615-.477-.615a.785.785,0,0,0-.384.118L190.83,186.264a1.907,1.907,0,0,0-.862,1.493v5.478a1.9,1.9,0,0,1-.861,1.493l-1.51.872a1.9,1.9,0,0,0-.862,1.493v95.094c0,.39.194.615.477.615a.772.772,0,0,0,.384-.118l121.16-69.951a1.9,1.9,0,0,0,.861-1.493V126.145c0-.389-.194-.615-.477-.615Z" transform="translate(-186.734 -125.53)" fill="#e0e0e0"/><g transform="translate(6.917 63.525)"><path d="M196.3,217.5a.834.834,0,0,1-.423-.111,1,1,0,0,1-.451-.9v-3.61a2.315,2.315,0,0,1,1.061-1.837l9.608-5.54a.916.916,0,0,1,1.459.842v3.611a2.309,2.309,0,0,1-1.061,1.837l-9.608,5.541A1.184,1.184,0,0,1,196.3,217.5Zm.585-5.772a1.515,1.515,0,0,0-.663,1.148v3.61c0,.137.037.2.054.213s.093.008.211-.06l9.608-5.541a1.511,1.511,0,0,0,.663-1.147v-3.611c0-.136-.037-.2-.053-.213s-.093-.008-.212.06Z" transform="translate(-195.423 -205.325)" fill="#e0e0e0"/><path d="M197.826,214.281l6.262-3.634c.317-.183.574-.053.574.291a1.232,1.232,0,0,1-.574.954l-6.263,3.634c-.317.183-.574.053-.574-.291A1.23,1.23,0,0,1,197.826,214.281Z" transform="translate(-195.796 -206.394)" fill="#e0e0e0"/><g transform="translate(9.738 2.908)"><path d="M207.665,209.729l.519.736c.02.029.059.006.079-.045l.519-1.336c.025-.064,0-.124-.039-.1l-1.038.6A.126.126,0,0,0,207.665,209.729Z" transform="translate(-207.655 -208.978)" fill="#455a64"/></g></g><g transform="translate(5.637 43.356)"><g transform="translate(0 67.212)"><path d="M194.646,264.532c.459-.265.831-.05.831.48a1.839,1.839,0,0,1-.831,1.439c-.459.265-.831.05-.831-.48A1.836,1.836,0,0,1,194.646,264.532Z" transform="translate(-193.815 -264.418)" fill="#27debf"/></g><g transform="translate(6.467 59.744)"><path d="M202.77,255.151c.459-.265.831-.05.831.48a1.838,1.838,0,0,1-.831,1.439c-.459.265-.831.05-.831-.48A1.837,1.837,0,0,1,202.77,255.151Z" transform="translate(-201.939 -255.037)" fill="#27debf"/></g><g transform="translate(12.935 56.01)"><path d="M210.894,250.461c.459-.265.83-.05.83.479a1.836,1.836,0,0,1-.83,1.439c-.459.265-.831.05-.831-.479A1.836,1.836,0,0,1,210.894,250.461Z" transform="translate(-210.063 -250.347)" fill="#27debf"/></g><g transform="translate(19.402 53.916)"><path d="M219.018,247.83c.459-.265.831-.05.831.48a1.838,1.838,0,0,1-.831,1.439c-.459.265-.831.05-.831-.48A1.837,1.837,0,0,1,219.018,247.83Z" transform="translate(-218.187 -247.716)" fill="#27debf"/></g><g transform="translate(25.877 47.192)"><path d="M227.151,239.384c.459-.265.831-.05.831.479a1.835,1.835,0,0,1-.831,1.439c-.459.265-.831.05-.831-.479A1.838,1.838,0,0,1,227.151,239.384Z" transform="translate(-226.32 -239.27)" fill="#27debf"/></g><g transform="translate(32.337 44.808)"><path d="M235.266,236.389c.459-.264.831-.05.831.48a1.836,1.836,0,0,1-.831,1.439c-.459.265-.831.05-.831-.48A1.839,1.839,0,0,1,235.266,236.389Z" transform="translate(-234.435 -236.276)" fill="#27debf"/></g><g transform="translate(38.804 37.34)"><path d="M243.389,227.008c.459-.265.831-.05.831.48a1.837,1.837,0,0,1-.831,1.439c-.459.264-.831.05-.831-.48A1.836,1.836,0,0,1,243.389,227.008Z" transform="translate(-242.558 -226.894)" fill="#27debf"/></g><g transform="translate(45.272 35.473)"><path d="M251.514,224.663c.459-.264.831-.05.831.48a1.836,1.836,0,0,1-.831,1.439c-.459.265-.831.05-.831-.48A1.839,1.839,0,0,1,251.514,224.663Z" transform="translate(-250.683 -224.55)" fill="#27debf"/></g><g transform="translate(51.74 14.936)"><path d="M259.638,198.866c.459-.265.831-.05.831.48a1.837,1.837,0,0,1-.831,1.439c-.459.264-.831.05-.831-.48A1.838,1.838,0,0,1,259.638,198.866Z" transform="translate(-258.807 -198.752)" fill="#27debf"/></g><g transform="translate(58.208 26.138)"><path d="M267.762,212.937c.459-.265.831-.05.831.48a1.835,1.835,0,0,1-.831,1.439c-.458.265-.83.05-.83-.48A1.837,1.837,0,0,1,267.762,212.937Z" transform="translate(-266.932 -212.823)" fill="#27debf"/></g><g transform="translate(64.675 26.138)"><path d="M275.886,212.937c.459-.265.831-.05.831.48a1.836,1.836,0,0,1-.831,1.439c-.459.265-.83.05-.83-.48A1.837,1.837,0,0,1,275.886,212.937Z" transform="translate(-275.056 -212.823)" fill="#27debf"/></g><g transform="translate(71.143 26.138)"><path d="M284.01,212.937c.459-.264.831-.05.831.48a1.836,1.836,0,0,1-.831,1.439c-.458.265-.83.05-.83-.48A1.838,1.838,0,0,1,284.01,212.937Z" transform="translate(-283.18 -212.824)" fill="#27debf"/></g><g transform="translate(77.609 14.936)"><path d="M292.134,198.866c.459-.265.831-.05.831.48a1.837,1.837,0,0,1-.831,1.439c-.459.265-.831.05-.831-.48A1.838,1.838,0,0,1,292.134,198.866Z" transform="translate(-291.303 -198.752)" fill="#27debf"/></g><g transform="translate(84.077 12.79)"><path d="M300.258,196.17c.459-.264.831-.05.831.48a1.836,1.836,0,0,1-.831,1.439c-.459.265-.831.05-.831-.48A1.839,1.839,0,0,1,300.258,196.17Z" transform="translate(-299.427 -196.057)" fill="#27debf"/></g><g transform="translate(90.567 3.734)"><path d="M308.411,184.795c.459-.265.831-.05.831.479a1.838,1.838,0,0,1-.831,1.439c-.459.265-.831.05-.831-.479A1.835,1.835,0,0,1,308.411,184.795Z" transform="translate(-307.58 -184.681)" fill="#27debf"/></g><g transform="translate(96.668 3.45)"><ellipse cx="1.175" cy="0.678" rx="1.175" ry="0.678" transform="translate(0 2.036) rotate(-60.003)" fill="#27debf"/></g><g transform="translate(103.136 3.45)"><ellipse cx="1.175" cy="0.678" rx="1.175" ry="0.678" transform="translate(0 2.036) rotate(-60.003)" fill="#27debf"/></g><g transform="translate(109.947)"><path d="M332.755,180.1c.459-.264.831-.05.831.48a1.838,1.838,0,0,1-.831,1.439c-.459.265-.831.05-.831-.48A1.837,1.837,0,0,1,332.755,180.1Z" transform="translate(-331.924 -179.991)" fill="#27debf"/></g><g transform="translate(0.615 0.873)"><path d="M194.786,248.709a.2.2,0,0,1-.15-.33l6.53-7.5a.186.186,0,0,1,.051-.042l6.42-3.707,6.458-2.1,6.432-6.689a.208.208,0,0,1,.075-.049l6.42-2.365,6.435-7.431a.2.2,0,0,1,.1-.061l6.364-1.837,6.436-20.434a.2.2,0,0,1,.168-.139.2.2,0,0,1,.194.1l6.409,11.1,6.369-.01,6.337.01,6.409-11.1a.205.205,0,0,1,.11-.089l6.406-2.126,6.43-9a.2.2,0,0,1,.162-.083h12.882l6.422-3.707a.2.2,0,1,1,.2.345l-6.468,3.734a.2.2,0,0,1-.1.026H285.451l-6.409,8.973a.2.2,0,0,1-.1.073l-6.4,2.122-6.429,11.137a.2.2,0,0,1-.173.1h0l-6.452-.01-6.484.01h0a.2.2,0,0,1-.173-.1l-6.24-10.81-6.332,20.105a.2.2,0,0,1-.134.131l-6.41,1.85-6.43,7.424a.213.213,0,0,1-.082.057l-6.424,2.368-6.436,6.691a.2.2,0,0,1-.083.051l-6.467,2.094-6.354,3.673-6.509,7.48A.2.2,0,0,1,194.786,248.709Z" transform="translate(-194.587 -181.088)" fill="#27debf"/></g></g><g transform="translate(5.637 39.622)"><path d="M194.757,254.494a.4.4,0,0,1-.2-.743l109.948-63.478a.4.4,0,0,1,.4.689L194.955,254.441A.4.4,0,0,1,194.757,254.494Z" transform="translate(-193.926 -178.343)" fill="#e0e0e0"/><g transform="translate(0 67.212)"><path d="M194.646,259.842c.459-.265.831-.051.831.479a1.838,1.838,0,0,1-.831,1.439c-.459.265-.831.05-.831-.479A1.834,1.834,0,0,1,194.646,259.842Z" transform="translate(-193.815 -259.728)" fill="#27debf"/></g><g transform="translate(6.467 56.01)"><path d="M202.769,245.77c.459-.265.831-.05.831.48a1.837,1.837,0,0,1-.83,1.439c-.459.265-.831.05-.831-.48A1.837,1.837,0,0,1,202.769,245.77Z" transform="translate(-201.939 -245.656)" fill="#27debf"/></g><g transform="translate(12.591 54.328)"><ellipse cx="1.175" cy="0.678" rx="1.175" ry="0.678" transform="translate(0 2.036) rotate(-60.003)" fill="#27debf"/></g><g transform="translate(19.402 41.074)"><path d="M219.017,227.008c.459-.265.831-.05.831.48a1.838,1.838,0,0,1-.83,1.439c-.459.264-.831.05-.831-.48A1.837,1.837,0,0,1,219.017,227.008Z" transform="translate(-218.187 -226.894)" fill="#27debf"/></g><g transform="translate(25.877 44.808)"><path d="M227.151,231.7c.459-.265.831-.05.831.48a1.836,1.836,0,0,1-.831,1.439c-.459.265-.831.05-.831-.48A1.838,1.838,0,0,1,227.151,231.7Z" transform="translate(-226.32 -231.585)" fill="#27debf"/></g><g transform="translate(32.339 42.941)"><path d="M235.267,229.354c.459-.265.831-.05.831.48a1.837,1.837,0,0,1-.831,1.439c-.459.264-.83.05-.83-.48A1.837,1.837,0,0,1,235.267,229.354Z" transform="translate(-234.437 -229.24)" fill="#27debf"/></g><g transform="translate(38.804 37.34)"><path d="M243.389,222.318c.459-.265.831-.05.831.48a1.837,1.837,0,0,1-.831,1.439c-.459.265-.831.05-.831-.48A1.836,1.836,0,0,1,243.389,222.318Z" transform="translate(-242.558 -222.204)" fill="#27debf"/></g><g transform="translate(45.272 29.872)"><path d="M251.514,212.937c.458-.265.831-.05.831.48a1.838,1.838,0,0,1-.831,1.439c-.459.265-.831.05-.831-.48A1.836,1.836,0,0,1,251.514,212.937Z" transform="translate(-250.683 -212.823)" fill="#27debf"/></g><g transform="translate(51.74 28.005)"><path d="M259.638,210.592c.459-.265.831-.05.831.48a1.836,1.836,0,0,1-.831,1.439c-.459.265-.831.05-.831-.48A1.838,1.838,0,0,1,259.638,210.592Z" transform="translate(-258.807 -210.478)" fill="#27debf"/></g><g transform="translate(58.207 22.404)"><path d="M267.762,203.556c.459-.264.831-.05.831.48a1.838,1.838,0,0,1-.831,1.439c-.459.265-.831.05-.831-.48A1.837,1.837,0,0,1,267.762,203.556Z" transform="translate(-266.931 -203.443)" fill="#27debf"/></g><g transform="translate(64.675 22.404)"><path d="M275.886,203.557c.458-.265.831-.05.831.479a1.838,1.838,0,0,1-.831,1.439c-.459.265-.831.05-.831-.479A1.835,1.835,0,0,1,275.886,203.557Z" transform="translate(-275.055 -203.443)" fill="#27debf"/></g><g transform="translate(71.143 7.468)"><path d="M284.01,184.795c.459-.265.831-.05.831.479a1.834,1.834,0,0,1-.831,1.439c-.458.265-.83.05-.83-.479A1.837,1.837,0,0,1,284.01,184.795Z" transform="translate(-283.18 -184.681)" fill="#27debf"/></g><g transform="translate(77.61 14.883)"><path d="M292.134,194.109c.459-.265.831-.05.831.48a1.837,1.837,0,0,1-.831,1.439c-.459.264-.83.05-.83-.48A1.837,1.837,0,0,1,292.134,194.109Z" transform="translate(-291.304 -193.995)" fill="#27debf"/></g><g transform="translate(84.077 7.468)"><path d="M300.258,184.795c.459-.265.831-.05.831.479a1.837,1.837,0,0,1-.831,1.44c-.459.264-.831.049-.831-.48A1.838,1.838,0,0,1,300.258,184.795Z" transform="translate(-299.427 -184.681)" fill="#27debf"/></g><g transform="translate(90.544 3.734)"><path d="M308.382,180.1c.459-.264.831-.05.831.48a1.836,1.836,0,0,1-.831,1.439c-.458.265-.831.05-.831-.48A1.839,1.839,0,0,1,308.382,180.1Z" transform="translate(-307.551 -179.991)" fill="#27debf"/></g><g transform="translate(97.012 3.734)"><path d="M316.506,180.1c.459-.265.831-.05.831.48a1.837,1.837,0,0,1-.831,1.439c-.459.265-.831.05-.831-.48A1.838,1.838,0,0,1,316.506,180.1Z" transform="translate(-315.675 -179.99)" fill="#27debf"/></g><g transform="translate(103.48)"><path d="M324.631,175.414c.459-.265.831-.05.831.479a1.837,1.837,0,0,1-.831,1.439c-.459.265-.831.05-.831-.479A1.836,1.836,0,0,1,324.631,175.414Z" transform="translate(-323.8 -175.3)" fill="#27debf"/></g><g transform="translate(109.947)"><path d="M332.755,175.414c.459-.265.831-.05.831.479a1.837,1.837,0,0,1-.831,1.439c-.459.265-.831.05-.831-.479A1.836,1.836,0,0,1,332.755,175.414Z" transform="translate(-331.924 -175.3)" fill="#27debf"/></g><g transform="translate(0.632 0.874)"><path d="M194.808,244.008a.188.188,0,0,1-.1-.027.2.2,0,0,1-.072-.271l6.514-11.229a.2.2,0,0,1,.131-.095l6.325-1.351,6.425-13.45a.2.2,0,0,1,.279-.087l6.4,3.7,6.337-1.836,6.425-5.567,6.456-7.453a.194.194,0,0,1,.095-.061l6.426-1.855,6.434-5.572a.2.2,0,0,1,.131-.049h6.337l6.416-14.816a.2.2,0,0,1,.152-.118.2.2,0,0,1,.181.066l6.316,7.295,6.317-7.295a.18.18,0,0,1,.051-.041l6.491-3.747a.2.2,0,0,1,.1-.027h6.413l6.4-3.694a.2.2,0,0,1,.1-.027h6.468a.2.2,0,0,1,0,.4h-6.414l-6.4,3.694a.2.2,0,0,1-.1.027h-6.414l-6.416,3.7-6.444,7.443a.206.206,0,0,1-.3,0l-6.26-7.229-6.342,14.646a.2.2,0,0,1-.183.12h-6.393l-6.411,5.552a.2.2,0,0,1-.075.041l-6.412,1.85-6.437,7.428-6.479,5.616a.188.188,0,0,1-.076.041l-6.46,1.872a.2.2,0,0,1-.154-.019l-6.288-3.631L207.923,231.3a.2.2,0,0,1-.139.108l-6.335,1.353-6.469,11.152A.2.2,0,0,1,194.808,244.008Z" transform="translate(-194.609 -176.398)" fill="#27debf"/></g><g opacity="0.3"><g transform="translate(0 67.212)"><path d="M194.646,259.842c.459-.265.831-.051.831.479a1.838,1.838,0,0,1-.831,1.439c-.459.265-.831.05-.831-.479A1.834,1.834,0,0,1,194.646,259.842Z" transform="translate(-193.815 -259.728)"/></g><g transform="translate(6.467 56.01)"><path d="M202.769,245.77c.459-.265.831-.05.831.48a1.837,1.837,0,0,1-.83,1.439c-.459.265-.831.05-.831-.48A1.837,1.837,0,0,1,202.769,245.77Z" transform="translate(-201.939 -245.656)"/></g><g transform="translate(12.591 54.328)"><ellipse cx="1.175" cy="0.678" rx="1.175" ry="0.678" transform="translate(0 2.036) rotate(-60.003)"/></g><g transform="translate(19.402 41.074)"><path d="M219.017,227.008c.459-.265.831-.05.831.48a1.838,1.838,0,0,1-.83,1.439c-.459.264-.831.05-.831-.48A1.837,1.837,0,0,1,219.017,227.008Z" transform="translate(-218.187 -226.894)"/></g><g transform="translate(25.877 44.808)"><path d="M227.151,231.7c.459-.265.831-.05.831.48a1.836,1.836,0,0,1-.831,1.439c-.459.265-.831.05-.831-.48A1.838,1.838,0,0,1,227.151,231.7Z" transform="translate(-226.32 -231.585)"/></g><g transform="translate(32.339 42.941)"><path d="M235.267,229.354c.459-.265.831-.05.831.48a1.837,1.837,0,0,1-.831,1.439c-.459.264-.83.05-.83-.48A1.837,1.837,0,0,1,235.267,229.354Z" transform="translate(-234.437 -229.24)"/></g><g transform="translate(38.804 37.34)"><path d="M243.389,222.318c.459-.265.831-.05.831.48a1.837,1.837,0,0,1-.831,1.439c-.459.265-.831.05-.831-.48A1.836,1.836,0,0,1,243.389,222.318Z" transform="translate(-242.558 -222.204)"/></g><g transform="translate(45.272 29.872)"><path d="M251.514,212.937c.458-.265.831-.05.831.48a1.838,1.838,0,0,1-.831,1.439c-.459.265-.831.05-.831-.48A1.836,1.836,0,0,1,251.514,212.937Z" transform="translate(-250.683 -212.823)"/></g><g transform="translate(51.74 28.005)"><path d="M259.638,210.592c.459-.265.831-.05.831.48a1.836,1.836,0,0,1-.831,1.439c-.459.265-.831.05-.831-.48A1.838,1.838,0,0,1,259.638,210.592Z" transform="translate(-258.807 -210.478)"/></g><g transform="translate(58.207 22.404)"><path d="M267.762,203.556c.459-.264.831-.05.831.48a1.838,1.838,0,0,1-.831,1.439c-.459.265-.831.05-.831-.48A1.837,1.837,0,0,1,267.762,203.556Z" transform="translate(-266.931 -203.443)"/></g><g transform="translate(64.675 22.404)"><path d="M275.886,203.557c.458-.265.831-.05.831.479a1.838,1.838,0,0,1-.831,1.439c-.459.265-.831.05-.831-.479A1.835,1.835,0,0,1,275.886,203.557Z" transform="translate(-275.055 -203.443)"/></g><g transform="translate(71.143 7.468)"><path d="M284.01,184.795c.459-.265.831-.05.831.479a1.834,1.834,0,0,1-.831,1.439c-.458.265-.83.05-.83-.479A1.837,1.837,0,0,1,284.01,184.795Z" transform="translate(-283.18 -184.681)"/></g><g transform="translate(77.61 14.883)"><path d="M292.134,194.109c.459-.265.831-.05.831.48a1.837,1.837,0,0,1-.831,1.439c-.459.264-.83.05-.83-.48A1.837,1.837,0,0,1,292.134,194.109Z" transform="translate(-291.304 -193.995)"/></g><g transform="translate(84.077 7.468)"><path d="M300.258,184.795c.459-.265.831-.05.831.479a1.837,1.837,0,0,1-.831,1.44c-.459.264-.831.049-.831-.48A1.838,1.838,0,0,1,300.258,184.795Z" transform="translate(-299.427 -184.681)"/></g><g transform="translate(90.544 3.734)"><path d="M308.382,180.1c.459-.264.831-.05.831.48a1.836,1.836,0,0,1-.831,1.439c-.458.265-.831.05-.831-.48A1.839,1.839,0,0,1,308.382,180.1Z" transform="translate(-307.551 -179.991)"/></g><g transform="translate(97.012 3.734)"><path d="M316.506,180.1c.459-.265.831-.05.831.48a1.837,1.837,0,0,1-.831,1.439c-.459.265-.831.05-.831-.48A1.838,1.838,0,0,1,316.506,180.1Z" transform="translate(-315.675 -179.99)"/></g><g transform="translate(103.48)"><path d="M324.631,175.414c.459-.265.831-.05.831.479a1.837,1.837,0,0,1-.831,1.439c-.459.265-.831.05-.831-.479A1.836,1.836,0,0,1,324.631,175.414Z" transform="translate(-323.8 -175.3)"/></g><g transform="translate(109.947)"><path d="M332.755,175.414c.459-.265.831-.05.831.479a1.837,1.837,0,0,1-.831,1.439c-.459.265-.831.05-.831-.479A1.836,1.836,0,0,1,332.755,175.414Z" transform="translate(-331.924 -175.3)"/></g><g transform="translate(0.632 0.874)"><path d="M194.808,244.008a.188.188,0,0,1-.1-.027.2.2,0,0,1-.072-.271l6.514-11.229a.2.2,0,0,1,.131-.095l6.325-1.351,6.425-13.45a.2.2,0,0,1,.279-.087l6.4,3.7,6.337-1.836,6.425-5.567,6.456-7.453a.194.194,0,0,1,.095-.061l6.426-1.855,6.434-5.572a.2.2,0,0,1,.131-.049h6.337l6.416-14.816a.2.2,0,0,1,.152-.118.2.2,0,0,1,.181.066l6.316,7.295,6.317-7.295a.18.18,0,0,1,.051-.041l6.491-3.747a.2.2,0,0,1,.1-.027h6.413l6.4-3.694a.2.2,0,0,1,.1-.027h6.468a.2.2,0,0,1,0,.4h-6.414l-6.4,3.694a.2.2,0,0,1-.1.027h-6.414l-6.416,3.7-6.444,7.443a.206.206,0,0,1-.3,0l-6.26-7.229-6.342,14.646a.2.2,0,0,1-.183.12h-6.393l-6.411,5.552a.2.2,0,0,1-.075.041l-6.412,1.85-6.437,7.428-6.479,5.616a.188.188,0,0,1-.076.041l-6.46,1.872a.2.2,0,0,1-.154-.019l-6.288-3.631L207.923,231.3a.2.2,0,0,1-.139.108l-6.335,1.353-6.469,11.152A.2.2,0,0,1,194.808,244.008Z" transform="translate(-194.609 -176.398)"/></g></g><g transform="translate(0 35.901)"><path d="M198.967,224.114l6.262-3.634c.318-.183.575-.053.575.291a1.23,1.23,0,0,1-.575.954l-6.262,3.634c-.317.183-.574.053-.574-.291A1.233,1.233,0,0,1,198.967,224.114Z" transform="translate(-194.749 -220.397)" fill="#e0e0e0"/><g transform="translate(0 5.173)"><path d="M194.646,227.009c.459-.265.83-.05.83.479a1.836,1.836,0,0,1-.83,1.439c-.459.265-.831.05-.831-.479A1.836,1.836,0,0,1,194.646,227.009Z" transform="translate(-193.815 -226.895)" fill="#27debf"/><path d="M194.646,227.009c.459-.265.83-.05.83.479a1.836,1.836,0,0,1-.83,1.439c-.459.265-.831.05-.831-.479A1.836,1.836,0,0,1,194.646,227.009Z" transform="translate(-193.815 -226.895)" opacity="0.3"/></g></g><g transform="translate(0 39.625)"><path d="M198.967,228.792l6.262-3.634c.318-.183.575-.053.575.291a1.23,1.23,0,0,1-.575.954l-6.262,3.634c-.317.183-.574.053-.574-.291A1.232,1.232,0,0,1,198.967,228.792Z" transform="translate(-194.749 -225.075)" fill="#e0e0e0"/><g transform="translate(0 5.183)"><path d="M194.646,231.7c.459-.265.83-.05.83.48a1.838,1.838,0,0,1-.83,1.439c-.459.264-.831.05-.831-.48A1.836,1.836,0,0,1,194.646,231.7Z" transform="translate(-193.815 -231.585)" fill="#27debf"/></g></g></g><g transform="translate(6.269 92.022)"><g transform="translate(0 22.45)"><g transform="translate(0 0.758)"><path d="M194.808,289.343a.2.2,0,0,1-.143-.338l3.282-3.375,3.222-.408,3.253-4.2,3.257.447,3.164-2.857,3.23-1.936,3.293-4.565,3.27,1.025,3.143-2.808a.2.2,0,0,1,.266.3l-3.313,2.959-3.211-1.007-3.209,4.419-3.234,1.935-3.271,2.958-3.211-.441-3.214,4.152-3.246.411-3.184,3.274A.2.2,0,0,1,194.808,289.343Z" transform="translate(-194.609 -270.274)" fill="#27debf"/></g><g transform="translate(0.422 3.324)"><path d="M196.195,279.988a.928.928,0,0,1,.083-.072.723.723,0,0,1,.088-.061.945.945,0,0,1,.49-.148.594.594,0,0,1,.388.147.94.94,0,0,1,.255.41,1.974,1.974,0,0,1,.092.639,3.093,3.093,0,0,1-.092.744,3.47,3.47,0,0,1-.255.705,2.925,2.925,0,0,1-.388.6,1.879,1.879,0,0,1-.49.417.944.944,0,0,1-.49.148.6.6,0,0,1-.388-.148.938.938,0,0,1-.255-.409,1.945,1.945,0,0,1-.092-.639,2.779,2.779,0,0,1,.03-.411,3.729,3.729,0,0,1,.081-.389c.033-.127.07-.251.111-.371s.081-.237.123-.347l.861-2.451c.015-.033.033-.072.052-.121a.225.225,0,0,1,.094-.109l.271-.155a.048.048,0,0,1,.069.008.149.149,0,0,1,.027.1.238.238,0,0,1-.008.062.28.28,0,0,1-.017.046Zm-.606,2.07a1.241,1.241,0,0,0,.054.384.628.628,0,0,0,.154.261.372.372,0,0,0,.244.1.6.6,0,0,0,.325-.1,1.2,1.2,0,0,0,.324-.278,1.813,1.813,0,0,0,.244-.385,2.259,2.259,0,0,0,.154-.439,1.928,1.928,0,0,0,.053-.446,1.251,1.251,0,0,0-.053-.385.635.635,0,0,0-.154-.261.364.364,0,0,0-.244-.1.592.592,0,0,0-.324.1,1.213,1.213,0,0,0-.325.279,1.841,1.841,0,0,0-.244.384,2.274,2.274,0,0,0-.154.439A1.952,1.952,0,0,0,195.589,282.058Z" transform="translate(-195.139 -274.406)" fill="#455a64"/><path d="M199.115,280.4a.959.959,0,0,0,.066.194.264.264,0,0,0,.127.134.382.382,0,0,0,.225.02,1.166,1.166,0,0,0,.362-.15,1.346,1.346,0,0,0,.279-.217,1.4,1.4,0,0,0,.232-.3,1.684,1.684,0,0,0,.158-.38,1.594,1.594,0,0,0,.06-.446.951.951,0,0,0-.057-.365.314.314,0,0,0-.154-.173.363.363,0,0,0-.229-.01,1.2,1.2,0,0,0-.288.123l-.393.227a.068.068,0,0,1-.09-.006.159.159,0,0,1-.038-.117v-.261a.381.381,0,0,1,.026-.136c.018-.046.034-.088.05-.127l.851-1.906-1.362.787a.068.068,0,0,1-.09-.006.156.156,0,0,1-.038-.117V276.9a.375.375,0,0,1,.038-.16.236.236,0,0,1,.09-.111l1.864-1.076a.07.07,0,0,1,.091.006.157.157,0,0,1,.037.116v.262a.469.469,0,0,1-.023.142,1.215,1.215,0,0,1-.062.155l-.837,1.876a1,1,0,0,1,.433-.137.489.489,0,0,1,.336.1.732.732,0,0,1,.217.34,1.771,1.771,0,0,1,.079.571,2.749,2.749,0,0,1-.095.722,3,3,0,0,1-.253.642,2.673,2.673,0,0,1-.373.525,1.963,1.963,0,0,1-.457.373,1.4,1.4,0,0,1-.547.2.565.565,0,0,1-.378-.08.6.6,0,0,1-.223-.287,1.244,1.244,0,0,1-.079-.424.293.293,0,0,1,.032-.131.184.184,0,0,1,.073-.089l.217-.127c.035-.02.063-.02.083,0A.146.146,0,0,1,199.115,280.4Z" transform="translate(-195.859 -273.914)" fill="#455a64"/><path d="M202.651,278.355a1.052,1.052,0,0,0,.066.2.276.276,0,0,0,.128.134.371.371,0,0,0,.225.018,1.11,1.11,0,0,0,.362-.15,1.335,1.335,0,0,0,.279-.215,1.416,1.416,0,0,0,.232-.3,1.707,1.707,0,0,0,.158-.379,1.6,1.6,0,0,0,.06-.446.94.94,0,0,0-.057-.365.309.309,0,0,0-.154-.173.357.357,0,0,0-.229-.01,1.092,1.092,0,0,0-.288.123l-.393.227a.069.069,0,0,1-.09-.006.155.155,0,0,1-.038-.116v-.263a.369.369,0,0,1,.027-.135c.017-.046.033-.088.049-.127l.851-1.905-1.362.787a.071.071,0,0,1-.091-.006.16.16,0,0,1-.037-.117v-.263a.384.384,0,0,1,.037-.16.256.256,0,0,1,.091-.111l1.864-1.076a.069.069,0,0,1,.091.006.158.158,0,0,1,.037.116v.262a.48.48,0,0,1-.023.141,1.216,1.216,0,0,1-.062.157l-.837,1.876a.987.987,0,0,1,.432-.138.487.487,0,0,1,.337.105.716.716,0,0,1,.217.34,1.768,1.768,0,0,1,.079.571,2.767,2.767,0,0,1-.095.722,2.994,2.994,0,0,1-.253.641,2.564,2.564,0,0,1-.374.525,1.912,1.912,0,0,1-.456.373,1.369,1.369,0,0,1-.547.2.567.567,0,0,1-.379-.08.607.607,0,0,1-.223-.287,1.237,1.237,0,0,1-.077-.424.292.292,0,0,1,.031-.131.2.2,0,0,1,.073-.09l.218-.126c.035-.02.063-.019.083,0A.153.153,0,0,1,202.651,278.355Z" transform="translate(-196.58 -273.497)" fill="#455a64"/></g><g transform="translate(0.209 6.12)"><path d="M195.447,293.287l27.944-16.194c.317-.183.574-.053.574.291a1.233,1.233,0,0,1-.574.954l-27.945,16.194c-.317.182-.574.053-.574-.291A1.23,1.23,0,0,1,195.447,293.287Z" transform="translate(-194.872 -277.01)" fill="#e0e0e0"/></g><g transform="translate(0.209)"><path d="M195.447,273.039l6.262-3.634c.317-.183.574-.053.574.29a1.233,1.233,0,0,1-.574.954l-6.263,3.634c-.317.183-.574.053-.574-.291A1.23,1.23,0,0,1,195.447,273.039Z" transform="translate(-194.872 -269.322)" fill="#e0e0e0"/></g></g><g transform="translate(0 42.895)"><path d="M194.808,316.77a.2.2,0,0,1-.139-.056.2.2,0,0,1,0-.282l3.282-3.375,3.243-.411,3.266-2.855,3.148-.858,3.282-6.534,3.292,1.612,3.174-2.8.054-.011,3.152-.6,3.181-5.5a.2.2,0,1,1,.345.2l-3.273,5.66-3.277.622-3.293,2.9-3.176-1.556-3.184,6.342-3.275.892-3.246,2.863-3.225.409-3.184,3.274A.2.2,0,0,1,194.808,316.77Z" transform="translate(-194.609 -295.004)" fill="#27debf"/><g opacity="0.3"><path d="M194.808,316.77a.2.2,0,0,1-.139-.056.2.2,0,0,1,0-.282l3.282-3.375,3.243-.411,3.266-2.855,3.148-.858,3.282-6.534,3.292,1.612,3.174-2.8.054-.011,3.152-.6,3.181-5.5a.2.2,0,1,1,.345.2l-3.273,5.66-3.277.622-3.293,2.9-3.176-1.556-3.184,6.342-3.275.892-3.246,2.863-3.225.409-3.184,3.274A.2.2,0,0,1,194.808,316.77Z" transform="translate(-194.609 -295.004)"/></g><g transform="translate(0.315 6.045)"><path d="M196.541,311.143a.368.368,0,0,1-.037.16.236.236,0,0,1-.09.111l-.194.111a.068.068,0,0,1-.09-.006.156.156,0,0,1-.037-.117v-4.015l-.767,1.339a.181.181,0,0,1-.095.1.074.074,0,0,1-.086-.024l-.112-.161a.187.187,0,0,1-.026-.131.384.384,0,0,1,.049-.158l1.013-1.78a.326.326,0,0,1,.076-.095.74.74,0,0,1,.076-.051l.194-.111a.068.068,0,0,1,.09.006.156.156,0,0,1,.037.117Z" transform="translate(-195.004 -303.352)" fill="#455a64"/><path d="M199.15,307.138a2.991,2.991,0,0,0,.213-.524,2.054,2.054,0,0,0,.071-.573.866.866,0,0,0-.146-.561c-.1-.115-.252-.112-.463.01a1.038,1.038,0,0,0-.282.234,1.464,1.464,0,0,0-.194.313,2.074,2.074,0,0,0-.123.363c-.029.126-.055.254-.074.381a.442.442,0,0,1-.049.152.218.218,0,0,1-.072.085l-.219.127a.057.057,0,0,1-.073,0,.133.133,0,0,1-.03-.1,2.735,2.735,0,0,1,.08-.593,3.284,3.284,0,0,1,.217-.628,2.945,2.945,0,0,1,.348-.573,1.643,1.643,0,0,1,.471-.418.868.868,0,0,1,.459-.141.474.474,0,0,1,.331.144.857.857,0,0,1,.2.379,2.113,2.113,0,0,1,.069.566,3.723,3.723,0,0,1-.025.435,2.645,2.645,0,0,1-.077.405,3.721,3.721,0,0,1-.14.413q-.085.209-.209.447l-1.055,2.125,1.447-.835a.07.07,0,0,1,.091.006.159.159,0,0,1,.038.117v.262a.378.378,0,0,1-.038.16.246.246,0,0,1-.091.111l-2.039,1.177a.066.066,0,0,1-.089-.006.152.152,0,0,1-.039-.117v-.261a.462.462,0,0,1,.025-.153,1.423,1.423,0,0,1,.08-.185Z" transform="translate(-195.546 -303.024)" fill="#455a64"/><path d="M203.615,304.068q0,.325,0,.613c0,.192,0,.4,0,.619a4.924,4.924,0,0,1-.079.835,3.591,3.591,0,0,1-.219.764,2.608,2.608,0,0,1-.372.638,1.862,1.862,0,0,1-.537.463.919.919,0,0,1-.537.157.522.522,0,0,1-.371-.208,1.243,1.243,0,0,1-.221-.51,3.563,3.563,0,0,1-.078-.745c0-.217,0-.421,0-.613s0-.4,0-.619a5.011,5.011,0,0,1,.078-.836,3.615,3.615,0,0,1,.221-.764,2.671,2.671,0,0,1,.371-.64,1.862,1.862,0,0,1,.537-.468.9.9,0,0,1,.537-.152.54.54,0,0,1,.372.211,1.242,1.242,0,0,1,.219.51A3.506,3.506,0,0,1,203.615,304.068Zm-1.969,2.368a1.492,1.492,0,0,0,.2.9c.127.145.315.146.56,0a1.34,1.34,0,0,0,.561-.651,2.943,2.943,0,0,0,.2-1.135c0-.221,0-.427,0-.62s0-.4,0-.612a1.5,1.5,0,0,0-.2-.908c-.128-.146-.314-.149-.561-.008a1.347,1.347,0,0,0-.56.656,2.981,2.981,0,0,0-.2,1.14c0,.22,0,.426,0,.619S201.643,306.219,201.646,306.437Z" transform="translate(-196.267 -302.597)" fill="#455a64"/></g><g transform="translate(0.209 8.06)"><path d="M195.447,321.4l27.944-16.193c.317-.183.574-.053.574.291a1.233,1.233,0,0,1-.574.954l-27.945,16.193c-.317.183-.574.053-.574-.291A1.232,1.232,0,0,1,195.447,321.4Z" transform="translate(-194.872 -305.128)" fill="#e0e0e0"/></g><g transform="translate(0.209 1.939)"><path d="M195.447,301.157l6.262-3.634c.317-.183.574-.053.574.291a1.233,1.233,0,0,1-.574.954l-6.263,3.634c-.317.182-.574.053-.574-.291A1.23,1.23,0,0,1,195.447,301.157Z" transform="translate(-194.872 -297.44)" fill="#e0e0e0"/></g></g><g transform="translate(38.805)"><g transform="translate(0 0.759)"><path d="M243.552,261.143a.2.2,0,0,1-.124-.355l3.234-2.58,3.257-3.721,3.306-.478,3.154-.713,3.265-3.856,3.214.568,3.223-5.1,3.275.053,3.168-2.832a.2.2,0,0,1,.266.3l-3.285,2.936-3.207-.053-3.246,5.141-3.253-.575-3.2,3.783-3.3.744-3.176.461-3.184,3.634-3.26,2.6A.2.2,0,0,1,243.552,261.143Z" transform="translate(-243.354 -242.075)" fill="#27debf"/></g><g transform="translate(0.421 3.445)"><path d="M244.939,251.788a.836.836,0,0,1,.082-.072.647.647,0,0,1,.088-.061.937.937,0,0,1,.49-.148.594.594,0,0,1,.389.147.942.942,0,0,1,.255.409,1.983,1.983,0,0,1,.092.639,3.1,3.1,0,0,1-.092.745,3.486,3.486,0,0,1-.255.705,2.922,2.922,0,0,1-.389.6,1.891,1.891,0,0,1-.49.417.951.951,0,0,1-.49.148.6.6,0,0,1-.388-.148.936.936,0,0,1-.256-.41,1.959,1.959,0,0,1-.092-.638,2.675,2.675,0,0,1,.031-.411,3.545,3.545,0,0,1,.08-.388c.033-.127.07-.251.111-.371s.081-.237.123-.348l.861-2.45c.016-.033.033-.073.052-.121a.214.214,0,0,1,.094-.109l.271-.155a.046.046,0,0,1,.068.008.148.148,0,0,1,.027.1.243.243,0,0,1-.008.062.267.267,0,0,1-.017.045Zm-.607,2.069a1.241,1.241,0,0,0,.054.384.635.635,0,0,0,.154.261.369.369,0,0,0,.243.1.594.594,0,0,0,.325-.1,1.2,1.2,0,0,0,.324-.278,1.834,1.834,0,0,0,.244-.385,2.279,2.279,0,0,0,.154-.439,1.932,1.932,0,0,0,.053-.447,1.248,1.248,0,0,0-.053-.384.63.63,0,0,0-.154-.261.365.365,0,0,0-.244-.1.592.592,0,0,0-.324.1,1.212,1.212,0,0,0-.325.279,1.812,1.812,0,0,0-.243.384,2.277,2.277,0,0,0-.154.439A1.947,1.947,0,0,0,244.333,253.857Z" transform="translate(-243.883 -246.326)" fill="#455a64"/><path d="M248.946,250.212a3.029,3.029,0,0,0,.213-.524,2.077,2.077,0,0,0,.071-.572.873.873,0,0,0-.146-.561c-.1-.115-.253-.112-.464.01a1.053,1.053,0,0,0-.282.235,1.377,1.377,0,0,0-.193.312,2,2,0,0,0-.123.363c-.03.126-.055.254-.073.381a.458.458,0,0,1-.049.152.227.227,0,0,1-.074.086l-.217.126a.058.058,0,0,1-.074,0,.131.131,0,0,1-.03-.1,2.78,2.78,0,0,1,.08-.593,3.306,3.306,0,0,1,.217-.627,2.914,2.914,0,0,1,.349-.573,1.625,1.625,0,0,1,.47-.417.87.87,0,0,1,.459-.142.479.479,0,0,1,.331.145.865.865,0,0,1,.2.378,2.117,2.117,0,0,1,.068.566,3.722,3.722,0,0,1-.024.435,2.776,2.776,0,0,1-.078.406,3.393,3.393,0,0,1-.14.412c-.057.139-.126.289-.208.447l-1.055,2.126,1.447-.836a.07.07,0,0,1,.092.006.157.157,0,0,1,.037.116v.262a.372.372,0,0,1-.037.16.238.238,0,0,1-.092.111l-2.039,1.177a.069.069,0,0,1-.09-.006.154.154,0,0,1-.037-.117v-.261a.455.455,0,0,1,.024-.152,1.38,1.38,0,0,1,.08-.186Z" transform="translate(-244.612 -245.921)" fill="#455a64"/><path d="M252.845,245.462a.07.07,0,0,1,.09.006.159.159,0,0,1,.037.116v.263a.845.845,0,0,1-.014.147c-.009.054-.022.112-.037.175l-1.051,4.782a1.248,1.248,0,0,1-.049.148.211.211,0,0,1-.089.105l-.217.126a.059.059,0,0,1-.08,0,.141.141,0,0,1-.033-.1c0-.009,0-.022,0-.033a.513.513,0,0,1,.013-.063l1.055-4.791-1.552.9a.07.07,0,0,1-.091-.006.156.156,0,0,1-.037-.116v-.263a.376.376,0,0,1,.037-.16.243.243,0,0,1,.091-.11Z" transform="translate(-245.292 -245.449)" fill="#455a64"/></g><g transform="translate(0.21 6.12)"><path d="M244.191,265.086l27.944-16.194c.318-.183.575-.053.575.291a1.23,1.23,0,0,1-.575.954L244.191,266.33c-.317.183-.574.053-.574-.291A1.233,1.233,0,0,1,244.191,265.086Z" transform="translate(-243.617 -248.809)" fill="#e0e0e0"/></g><g transform="translate(0.21)"><path d="M244.191,244.838l6.262-3.633c.318-.183.575-.053.575.291a1.229,1.229,0,0,1-.575.953l-6.262,3.634c-.317.183-.574.053-.574-.291A1.233,1.233,0,0,1,244.191,244.838Z" transform="translate(-243.617 -241.122)" fill="#e0e0e0"/></g></g><g transform="translate(38.805 22.385)"><g transform="translate(0 0.77)"><path d="M243.552,289.264a.2.2,0,0,1-.17-.3l3.306-5.421,3.323.615,3.129-.855,3.236-3.948,3.215-.81,3.268-5.823,3.34.97,3.141-.6,3.185-2.835a.2.2,0,0,1,.28.016.2.2,0,0,1-.016.281l-3.268,2.908-.053.011-3.289.623-3.128-.908-3.2,5.7-3.254.822-3.233,3.942-.06.017-3.278.9-.045-.007-3.1-.573-3.163,5.187A.2.2,0,0,1,243.552,289.264Z" transform="translate(-243.353 -270.207)" fill="#27debf"/></g><g transform="translate(0 0.77)" opacity="0.3"><path d="M243.552,289.264a.2.2,0,0,1-.17-.3l3.306-5.421,3.323.615,3.129-.855,3.236-3.948,3.215-.81,3.268-5.823,3.34.97,3.141-.6,3.185-2.835a.2.2,0,0,1,.28.016.2.2,0,0,1-.016.281l-3.268,2.908-.053.011-3.289.623-3.128-.908-3.2,5.7-3.254.822-3.233,3.942-.06.017-3.278.9-.045-.007-3.1-.573-3.163,5.187A.2.2,0,0,1,243.552,289.264Z" transform="translate(-243.353 -270.207)"/></g><g transform="translate(0.38 5.032)"><path d="M245.145,281.45a.594.594,0,0,1-.066.049l-.061.04a.962.962,0,0,1-.44.141.567.567,0,0,1-.378-.113.842.842,0,0,1-.268-.385,1.883,1.883,0,0,1-.1-.677,2.961,2.961,0,0,1,.095-.739,3.383,3.383,0,0,1,.258-.692,2.9,2.9,0,0,1,.379-.58,1.721,1.721,0,0,1,.456-.395.966.966,0,0,1,.494-.154.552.552,0,0,1,.374.145.9.9,0,0,1,.236.407,2.314,2.314,0,0,1,.045,1.026c-.025.139-.057.277-.094.416s-.08.274-.123.405-.086.255-.123.363l-.861,2.45c-.016.034-.033.074-.052.122a.207.207,0,0,1-.095.108l-.27.157a.048.048,0,0,1-.068-.008.156.156,0,0,1-.025-.1.243.243,0,0,1,.006-.062.21.21,0,0,1,.017-.046Zm.611-2.058A1.265,1.265,0,0,0,245.7,279a.575.575,0,0,0-.151-.252.35.35,0,0,0-.235-.087.607.607,0,0,0-.3.092,1.139,1.139,0,0,0-.3.254,1.647,1.647,0,0,0-.232.357,2.013,2.013,0,0,0-.151.424,1.979,1.979,0,0,0-.054.455,1.251,1.251,0,0,0,.054.394.558.558,0,0,0,.151.249.346.346,0,0,0,.232.088.587.587,0,0,0,.3-.093,1.138,1.138,0,0,0,.3-.252,1.654,1.654,0,0,0,.235-.358,2.075,2.075,0,0,0,.151-.422A1.957,1.957,0,0,0,245.757,279.392Z" transform="translate(-243.83 -276.047)" fill="#455a64"/><path d="M247.68,280.418a1,1,0,0,0,.067.2.267.267,0,0,0,.127.133.376.376,0,0,0,.225.02,1.149,1.149,0,0,0,.362-.151,1.414,1.414,0,0,0,.279-.215,1.43,1.43,0,0,0,.233-.3,1.736,1.736,0,0,0,.158-.38,1.561,1.561,0,0,0,.06-.446.953.953,0,0,0-.056-.365.318.318,0,0,0-.154-.174.355.355,0,0,0-.23-.009,1.124,1.124,0,0,0-.287.123l-.393.227a.069.069,0,0,1-.09-.006.155.155,0,0,1-.038-.116v-.262a.382.382,0,0,1,.026-.136c.017-.047.033-.089.049-.127l.853-1.9-1.363.786a.067.067,0,0,1-.09-.006.155.155,0,0,1-.038-.116v-.262a.366.366,0,0,1,.038-.16.237.237,0,0,1,.09-.111l1.865-1.077a.07.07,0,0,1,.09.006.16.16,0,0,1,.037.117v.263a.5.5,0,0,1-.023.141,1.281,1.281,0,0,1-.063.156l-.837,1.875a.992.992,0,0,1,.433-.137.485.485,0,0,1,.335.1.734.734,0,0,1,.219.341,1.816,1.816,0,0,1,.078.571,2.759,2.759,0,0,1-.1.721,2.951,2.951,0,0,1-.253.642,2.636,2.636,0,0,1-.373.525,1.948,1.948,0,0,1-.456.373,1.391,1.391,0,0,1-.548.2.57.57,0,0,1-.378-.08.594.594,0,0,1-.222-.286,1.22,1.22,0,0,1-.078-.425.319.319,0,0,1,.03-.132.2.2,0,0,1,.074-.089l.217-.125c.035-.021.062-.021.083,0A.143.143,0,0,1,247.68,280.418Z" transform="translate(-244.525 -275.56)" fill="#455a64"/></g><g transform="translate(0.21 6.12)"><path d="M244.191,293.2l27.944-16.194c.318-.183.575-.053.575.291a1.23,1.23,0,0,1-.575.954l-27.944,16.194c-.317.183-.574.053-.574-.291A1.232,1.232,0,0,1,244.191,293.2Z" transform="translate(-243.617 -276.927)" fill="#e0e0e0"/></g><g transform="translate(0.21)"><path d="M244.191,272.956l6.262-3.633c.318-.183.575-.053.575.29a1.23,1.23,0,0,1-.575.954l-6.262,3.634c-.317.183-.574.053-.574-.291A1.233,1.233,0,0,1,244.191,272.956Z" transform="translate(-243.617 -269.24)" fill="#e0e0e0"/></g></g></g><g transform="translate(81.035 61.738)"><g transform="translate(0 13.117)"><path d="M296.41,220.213a3.65,3.65,0,0,1,3.686-.275l-3.686,9.939Z" transform="translate(-290.133 -219.559)" fill="#27debf"/><path d="M291.78,224.362a10.949,10.949,0,0,1,3.686-3.982v9.665Z" transform="translate(-289.189 -219.726)" fill="#27debf"/><path d="M288.913,231.525a19.345,19.345,0,0,1,2.282-6.143l3.686,5.682Z" transform="translate(-288.604 -220.746)" fill="#27debf"/><path d="M291.2,224.362a19.345,19.345,0,0,0-2.282,6.143l5.968-.46V220.38A10.949,10.949,0,0,0,291.2,224.362Z" transform="translate(-288.604 -219.726)" opacity="0.3"/><path d="M300.1,220.035a5.173,5.173,0,0,1,2.282,3.508l-5.968,6.432Z" transform="translate(-290.133 -219.656)" fill="#27debf"/><path d="M288.834,238.952a12.02,12.02,0,0,1-.309-2.808,17.149,17.149,0,0,1,.309-3.164l5.968-.46Z" transform="translate(-288.525 -222.202)" fill="#27debf"/><path d="M302.378,231.942a19.366,19.366,0,0,1-2.282,6.143L296.41,232.4Z" transform="translate(-290.133 -222.084)" fill="#27debf"/><path d="M295.466,242.185a3.652,3.652,0,0,1-3.686.275l3.686-9.939Z" transform="translate(-289.189 -222.202)" fill="#27debf"/><path d="M288.913,238.952l5.968-6.432-3.686,9.939A5.17,5.17,0,0,1,288.913,238.952Z" transform="translate(-288.604 -222.202)" fill="#27debf"/><path d="M302.378,224.441a12.059,12.059,0,0,1,.309,2.808,17.221,17.221,0,0,1-.309,3.164l-5.968.46Z" transform="translate(-290.133 -220.554)" fill="#27debf"/><path d="M300.1,238.2a10.968,10.968,0,0,1-3.686,3.982V232.52Z" transform="translate(-290.133 -222.202)" fill="#27debf"/><g transform="translate(1.191 21.195)"><path d="M292.33,249.9l6.262-3.634c.317-.183.574-.053.574.291a1.231,1.231,0,0,1-.574.954l-6.262,3.634c-.318.183-.575.053-.575-.291A1.231,1.231,0,0,1,292.33,249.9Z" transform="translate(-290.375 -246.182)" fill="#455a64"/><path d="M290.595,255.195l9.025-5.235c.317-.183.574-.053.574.291a1.233,1.233,0,0,1-.574.954l-9.025,5.235c-.317.183-.574.053-.574-.291A1.233,1.233,0,0,1,290.595,255.195Z" transform="translate(-290.021 -246.935)" fill="#e0e0e0"/><path d="M290.595,259.9l9.025-5.236c.317-.183.574-.053.574.291a1.231,1.231,0,0,1-.574.954l-9.025,5.236c-.317.182-.574.052-.574-.291A1.232,1.232,0,0,1,290.595,259.9Z" transform="translate(-290.021 -247.894)" fill="#e0e0e0"/><path d="M290.595,264.6l9.025-5.236c.317-.183.574-.052.574.291a1.231,1.231,0,0,1-.574.954l-9.025,5.236c-.317.183-.574.053-.574-.291A1.232,1.232,0,0,1,290.595,264.6Z" transform="translate(-290.021 -248.852)" fill="#e0e0e0"/></g></g><g transform="translate(22.636)"><path d="M324.844,203.736a3.65,3.65,0,0,1,3.686-.275l-3.686,9.938Z" transform="translate(-318.567 -203.082)" fill="#27debf"/><path d="M320.214,207.884A10.96,10.96,0,0,1,323.9,203.9v9.664Z" transform="translate(-317.623 -203.249)" fill="#27debf"/><path d="M317.347,215.047a19.35,19.35,0,0,1,2.282-6.143l3.686,5.683Z" transform="translate(-317.038 -204.269)" fill="#27debf"/><path d="M328.53,203.558a5.168,5.168,0,0,1,2.282,3.507l-5.968,6.432Z" transform="translate(-318.567 -203.179)" fill="#27debf"/><path d="M317.268,222.474a12.057,12.057,0,0,1-.309-2.807,17.231,17.231,0,0,1,.309-3.164l5.968-.46Z" transform="translate(-316.959 -205.724)" fill="#27debf"/><path d="M330.812,215.464a19.348,19.348,0,0,1-2.282,6.143l-3.686-5.683Z" transform="translate(-318.567 -205.607)" fill="#27debf"/><path d="M323.9,225.707a3.651,3.651,0,0,1-3.686.275l3.686-9.939Z" transform="translate(-317.623 -205.724)" fill="#27debf"/><path d="M317.347,222.474l5.968-6.432-3.686,9.939A5.168,5.168,0,0,1,317.347,222.474Z" transform="translate(-317.038 -205.724)" fill="#27debf"/><path d="M319.55,207.884a19.353,19.353,0,0,0-2.282,6.143,17.23,17.23,0,0,0-.309,3.164,12.058,12.058,0,0,0,.309,2.807,5.168,5.168,0,0,0,2.282,3.508l3.686-9.939V203.9A10.961,10.961,0,0,0,319.55,207.884Z" transform="translate(-316.959 -203.249)" opacity="0.3"/><path d="M330.812,207.963a12.022,12.022,0,0,1,.309,2.808,17.139,17.139,0,0,1-.309,3.164l-5.968.46Z" transform="translate(-318.567 -204.077)" fill="#27debf"/><path d="M328.53,221.725a10.959,10.959,0,0,1-3.686,3.981v-9.665Z" transform="translate(-318.567 -205.724)" fill="#27debf"/><g transform="translate(1.191 21.243)"><path d="M320.764,233.482l6.262-3.633c.317-.183.574-.053.574.291a1.233,1.233,0,0,1-.574.954l-6.262,3.633c-.318.183-.574.053-.574-.291A1.233,1.233,0,0,1,320.764,233.482Z" transform="translate(-318.809 -229.766)" fill="#455a64"/><path d="M319.029,238.779l9.024-5.236c.317-.183.574-.053.574.291a1.232,1.232,0,0,1-.574.954l-9.024,5.236c-.317.183-.574.053-.574-.291A1.232,1.232,0,0,1,319.029,238.779Z" transform="translate(-318.455 -230.519)" fill="#e0e0e0"/><path d="M319.029,243.48l9.024-5.235c.317-.184.574-.053.574.291a1.231,1.231,0,0,1-.574.953l-9.024,5.236c-.317.183-.574.053-.574-.291A1.231,1.231,0,0,1,319.029,243.48Z" transform="translate(-318.455 -231.478)" fill="#e0e0e0"/><path d="M319.029,248.181l9.024-5.235c.317-.183.574-.053.574.291a1.233,1.233,0,0,1-.574.954l-9.024,5.235c-.317.183-.574.053-.574-.291A1.233,1.233,0,0,1,319.029,248.181Z" transform="translate(-318.455 -232.436)" fill="#e0e0e0"/></g></g></g></g></g></g><g transform="translate(114.288 266.007)"><g transform="translate(66.918)"><g transform="translate(8.913)"><path d="M310.907,364.317a10.627,10.627,0,0,0-4.527-8.485,3.393,3.393,0,0,0-3.352-.464l0,0c-5.326,2.673-42.755,26.675-45.149,27.856l-.03.016a1.707,1.707,0,0,0-.76,1.543,5.354,5.354,0,0,0,2.281,4.276,1.7,1.7,0,0,0,1.709.224l.034-.018c3.79-2.087,40.73-17.83,48.282-21.88h0l0,0h0A3.386,3.386,0,0,0,310.907,364.317Z" transform="translate(-257.085 -355.105)" fill="#7d6eb2"/><path d="M309.435,359.142a9.588,9.588,0,0,0-3.055-3.309,3.4,3.4,0,0,0-3.344-.468c-.177.1-.232.13-.108.058-4.863,2.487-32.719,20.258-42.092,26.034l-.062.038-.379.233-.115.071-.213.131-.252.154-.018.011c-.992.6-1.661,1-1.919,1.127l-.03.016a1.22,1.22,0,0,0-.22.17,1.879,1.879,0,0,0-.539,1.373,3.841,3.841,0,0,0,.026.537c.008.068.021.138.033.207.017.109.039.219.065.329.021.088.043.174.068.261.03.1.065.205.1.308.027.076.052.153.083.229,0,.013.011.024.017.037Z" transform="translate(-257.085 -355.105)" opacity="0.1"/><path d="M259.359,396.232a5.331,5.331,0,0,1-2.272-4.258c.052-1.539,1.152-2.126,2.458-1.313a5.332,5.332,0,0,1,2.272,4.257C261.765,396.457,260.664,397.045,259.359,396.232Z" transform="translate(-257.085 -362.28)" fill="#5c49a2"/></g><path d="M245.891,397.481a4.1,4.1,0,0,0,1.745,3.272,1.3,1.3,0,0,0,1.3.175v0l0,0h0l9.053-4.82.006,0h0a1.305,1.305,0,0,0,.579-1.178,4.1,4.1,0,0,0-1.746-3.272,1.3,1.3,0,0,0-1.306-.174h0l-9.052,4.819h0A1.3,1.3,0,0,0,245.891,397.481Z" transform="translate(-245.889 -362.5)" fill="#12263f"/><path d="M246.479,396.3a1.3,1.3,0,0,0-.588,1.183,3.518,3.518,0,0,0,.273,1.4l11.675-6.229a3.521,3.521,0,0,0-1-1,1.3,1.3,0,0,0-1.306-.174l-9.052,4.819Z" transform="translate(-245.889 -362.5)" fill="#344966"/></g><g transform="translate(0 20.349)"><path d="M240.365,403.335c0-5.8-3.833-11.6-11.5-16.03-15.334-8.853-40.2-8.853-55.53,0-7.666,4.426-11.5,10.228-11.5,16.029h0v10.687c0,5.8,3.834,11.6,11.5,16.029,15.334,8.853,40.2,8.853,55.529,0,7.667-4.426,11.5-10.228,11.5-16.029V403.335Zm-65.131-12.741c6.848-3.954,16.034-6.132,25.867-6.132s19.019,2.177,25.866,6.132c6.192,3.574,9.6,8.1,9.6,12.741s-3.41,9.166-9.6,12.741c-6.847,3.954-16.034,6.131-25.866,6.131s-19.018-2.177-25.867-6.131c-6.191-3.574-9.6-8.1-9.6-12.741S169.041,394.168,175.233,390.594Z" transform="translate(-161.832 -380.665)" fill="#7d6eb2"/><path d="M173.331,419.365c15.334,8.853,40.2,8.853,55.53,0s15.334-23.207,0-32.06-40.2-8.853-55.53,0S158,410.512,173.331,419.365Zm-7.7-16.03c0-4.642,3.41-9.167,9.6-12.741,6.848-3.954,16.034-6.132,25.867-6.132s19.018,2.177,25.866,6.132c6.192,3.574,9.6,8.1,9.6,12.741s-3.41,9.166-9.6,12.741c-6.849,3.954-16.035,6.131-25.866,6.131s-19.019-2.177-25.867-6.131C169.039,412.5,165.628,407.977,165.628,403.335Z" transform="translate(-161.831 -380.665)" fill="#fff" opacity="0.3"/><g transform="translate(3.795 3.796)"><path d="M166.6,404.307a10.534,10.534,0,0,0,1.534,5.346,21.389,21.389,0,0,1,8.073-7.4c6.842-3.957,16.032-6.136,25.867-6.136s19.017,2.18,25.86,6.136a21.482,21.482,0,0,1,8.08,7.4,10.6,10.6,0,0,0,1.526-5.346c0-4.64-3.41-9.167-9.606-12.744-6.843-3.949-16.032-6.129-25.86-6.129s-19.024,2.18-25.867,6.129C170.008,395.14,166.6,399.667,166.6,404.307Z" transform="translate(-166.598 -385.434)" fill="#27debf"/><path d="M166.6,404.307a10.534,10.534,0,0,0,1.534,5.346,21.389,21.389,0,0,1,8.073-7.4c6.842-3.957,16.032-6.136,25.867-6.136s19.017,2.18,25.86,6.136a21.482,21.482,0,0,1,8.08,7.4,10.6,10.6,0,0,0,1.526-5.346c0-4.64-3.41-9.167-9.606-12.744-6.843-3.949-16.032-6.129-25.86-6.129s-19.024,2.18-25.867,6.129C170.008,395.14,166.6,399.667,166.6,404.307Z" transform="translate(-166.598 -385.434)" fill="#7d6eb2"/></g><path d="M176.284,397.645c6.848-3.954,16.034-6.132,25.867-6.132s19.018,2.177,25.866,6.132c5.109,2.95,8.318,6.546,9.286,10.322-.968,3.775-4.177,7.372-9.286,10.321-6.849,3.954-16.035,6.131-25.866,6.131s-19.019-2.177-25.867-6.131c-5.109-2.95-8.318-6.546-9.286-10.321C167.966,404.191,171.174,400.594,176.284,397.645Z" transform="translate(-162.885 -382.877)" fill="#fff" opacity="0.4"/><path d="M191.845,430.283v10.678a51.4,51.4,0,0,1-18.508-6c-7.67-4.428-11.506-10.23-11.506-16.033V408.244a13.462,13.462,0,0,1,.471-3.5h.007c-1.86,6.9,1.815,14.209,11.027,19.533A51.551,51.551,0,0,0,191.845,430.283Z" transform="translate(-161.831 -385.575)" opacity="0.1"/></g></g><g transform="translate(261.178 102.34)"><g transform="translate(27.863 72.541)"><g transform="translate(29.072 82.352)"><path d="M431.2,352.663c.465.189.564,1.084.594,2.86.024,1.345.259,3.7-1.325,4.129s-3.883.141-4.863-1.147c-1.223-1.609-2.042-3.019-3.794-4.987-1.521-1.708-3.171-3.306-3.747-5.666-.521-2.133-.027-3.041,1.433-3.625,2.008-.8,5.069,2.037,6.618,2.508C427.448,347.139,430.734,352.475,431.2,352.663Z" transform="translate(-417.862 -344.084)" fill="#f5ca56"/></g><g transform="translate(36.384 88.362)"><path d="M433.109,352.559l-.049,2.18a5.336,5.336,0,0,1-5.511.025c-.091-.213-.5-3.13-.5-3.13Z" transform="translate(-427.047 -351.633)" fill="#12263f"/></g><g transform="translate(0 103.079)"><path d="M405.82,370.134a36.763,36.763,0,0,1,.882,3.574c.238,1.323.572,3.535.088,4.515s-2.3,1.579-5.088,1.5c-1.806-.054-4.651,1.11-6.6,2.142-2.017,1.066-6.169,1.415-8.27,1.121-2.476-.347-5.015-1.845-5.394-2.882s.179-2.093,6.085-4.454c.054-.022,8.193-2.467,11.094-5.527Z" transform="translate(-381.344 -370.119)" fill="#f5ca56"/></g><g transform="translate(17.265 100.723)"><path d="M410.3,367.174s-.044,1.618-.057,2.542-1.136,2.277-3.959,2.113c-1.983-.116-3.356-.681-3.241-2.313l.053-2.356Z" transform="translate(-403.032 -367.16)" fill="#12263f"/></g><g transform="translate(11.165)"><path d="M428.717,301.037a59.2,59.2,0,0,0-2.317-11.409s1-9.775,1.581-19.052c.629-10.02,1.212-15.179-.758-29.65,0,0-30.721-2.759-31.559,8.821s.352,41.134.619,46.235,1.047,9.626,1.913,17.9c.855,8.17,3.333,27.476,3.333,27.476a7.644,7.644,0,0,0,7.2.014s2.8-23.13,2.692-29.012a50.234,50.234,0,0,0-1.939-12.877s.829-9.545,1.558-17.848,1.393-12.284,1.6-15.9l.7-.33s.387,14.361.655,19.463.968,10,2.228,19.5c1.093,8.236,4.509,25.685,4.509,25.685,3.652,2.082,5.909-.129,5.909-.129S429.555,308.18,428.717,301.037Z" transform="translate(-395.369 -240.638)" fill="#12263f"/></g><g transform="translate(28.44 18.01)"><path d="M417.069,270.353s7.937-3.692,11.945-7.092c0,0-3.764,5.058-8.6,7.229,0,0-2.1,17.782-2.088,17.429l-.588-17.577Z" transform="translate(-417.069 -263.261)" fill="#12263f"/></g></g><path d="M410.157,188.565l1.2,10.607,10.017-.505-1.113-12.379Z" transform="translate(-359.356 -157.014)" fill="#ffa8a7"/><g transform="translate(0 23.675)"><path d="M428.712,194.242c3.729-.172,5.623.388,7.3,3.6s2.331,12.828,2.914,17.784.728,8.452-1.311,8.962-9.98.728-9.98.728Z" transform="translate(-362.919 -182.305)" fill="#d0a941"/><path d="M428.428,199.728c-.541-2.969-4.444-6.088-8.1-5.494q-1.273.207-2.48.42c-.439,1.784-5.329,2.9-10,1.8-1.408.369-6.044,1.237-7.216,1.626-3.358,1.115-4.744,4.419-5.266,15.369,0,0,.269,24.8.138,29.735a40.393,40.393,0,0,0,21.823,2.649c10.059-1.961,11.359-6.086,11.359-6.086l-1.5-11.344S429.65,206.443,428.428,199.728Z" transform="translate(-356.341 -182.294)" fill="#f5ca56"/><path d="M409.961,193.09l.075.667a14.867,14.867,0,0,0,6.151,0c3.254-.724,3.912-1.643,3.912-1.643l-.068-.757s.81-.3,1.236.947a13.551,13.551,0,0,1,.471,1.521s.375,2.279-3.451,3.44a11.826,11.826,0,0,1-9.528-1.041l-1.5.316s1.3-2.991,1.69-3.6a1,1,0,0,1,.938-.52Z" transform="translate(-358.765 -181.716)" fill="#d0a941"/><g transform="translate(0.753)"><path d="M367.153,179.255,347.29,189.62l9.87,26.986L375.7,206.223Z" transform="translate(-347.29 -179.255)" fill="#12263f"/><path d="M366.827,182.574l-16.663,8.7,8.735,23.2,15.551-8.712Z" transform="translate(-347.876 -179.932)" fill="#f5f5f5"/><path d="M364.418,185.45l-.322-.826c-.178-.456-1.565-.184-3.1.607l-2.934,1.515c-1.533.791-2.631,1.8-2.453,2.258l.323.826Z" transform="translate(-348.983 -180.305)" opacity="0.15"/><g transform="translate(4.926 1.583)"><path d="M363.665,181.5c-.11-.285-.713-.239-1.348.1l-1.149.621s-.709-1.783-3.351-.549-2.04,3.3-2.04,3.3l-1.22.673c-.673.371-1.153.907-1.072,1.2l.149.525,10.232-5.339S363.775,181.788,363.665,181.5Z" transform="translate(-353.478 -181.244)" fill="#27debf"/><path d="M363.094,182.973c-.952.468-1.326.693-1.052,1.4.313.8.6,1.379.6,1.379l-4.526,2.368s-.377-1.021-.542-1.415-.5-.582-1.216-.205l-.268-.283,7.139-3.638Z" transform="translate(-354.011 -181.515)" fill="#27debf"/><path d="M363.094,182.973c-.952.468-1.326.693-1.052,1.4.313.8.6,1.379.6,1.379l-4.526,2.368s-.377-1.021-.542-1.415-.5-.582-1.216-.205l-.268-.283,7.139-3.638Z" transform="translate(-354.011 -181.515)" opacity="0.3"/><path d="M364.662,185.5l-.322-.826c-.178-.455-1.565-.184-3.1.607l-2.935,1.515c-1.533.791-2.631,1.8-2.453,2.258l.322.826Z" transform="translate(-353.959 -181.899)" fill="#27debf"/></g></g><g transform="translate(21.376 15.787)"><path d="M396.114,199.085c-4.586.4-6.539,1.235-9.981,7.442C382.4,213.264,375.215,225.456,374.3,227a8.165,8.165,0,0,0-.413,7.366c1.021,1.837,4.262,2.678,7.936-1.473,4.369-4.935,12.5-16.988,12.5-16.988S401.229,206.792,396.114,199.085Z" transform="translate(-373.196 -199.085)" fill="#ffa8a7"/></g><path d="M370.316,236.388c-3.515-.427-11.724-11.565-14.059-15.2a25.953,25.953,0,0,0-7.112-7.5c-3.721-2.749-3.18-6.972-1.556-10.843.563-1.341,2.469-.468,2.469-.468l.672,1.837,1.163,3.18c.788.732,1.237.97,1.29.752.1-.411-.579-2.122-.563-3.9.02-2.145,1.522-.736,1.97.017a26.568,26.568,0,0,1,1.586,3.543c.749,1.92.439,3.864,1.352,5.172s13.161,13.044,13.161,13.044Z" transform="translate(-346.344 -183.911)" fill="#ffa8a7"/><path d="M394.92,198.783c-2.778-.069-6.117.374-8.7,3.734s-12.935,21.628-12.935,21.628l-5.808-5.206a10.123,10.123,0,0,0-4.466,6.312,62.972,62.972,0,0,0,5.259,7.138c2.454,2.694,5.194,4.562,7.438,3.734s4.537-2.606,9.372-9.336,10.109-14.673,10.109-14.673S398.516,204.356,394.92,198.783Z" transform="translate(-349.742 -183.236)" fill="#d0a941"/></g><g transform="translate(41.506 18.566)"><path d="M400.72,172.837s-2.5,3.794-2.216,4.168,2.126.708,2.126.708Z" transform="translate(-398.481 -172.837)" fill="#f28f8f"/></g><g transform="translate(41.935 15.044)"><path d="M402,174.373a2.98,2.98,0,1,1,2.98-2.98A2.983,2.983,0,0,1,402,174.373Zm0-5.3a2.317,2.317,0,1,0,2.317,2.317A2.32,2.32,0,0,0,402,169.075Z" transform="translate(-399.02 -168.413)" fill="#263238"/></g><g transform="translate(43.545 7.572)"><path d="M408.186,159.523c-5.061,1.068-6.522,3.292-7,11.332-.5,8.4.36,11.041,1.463,12.172.745.763,4.885.9,6.974.326,2.613-.72,8.521-2.814,11.288-7.04,3.254-4.972,4.109-11.709.625-14.473C416.633,157.949,410.246,159.088,408.186,159.523Z" transform="translate(-401.042 -159.027)" fill="#ffa8a7"/></g><path d="M408.851,189.484l-.235-1.548a10.015,10.015,0,0,1-5.189,1.176A12.544,12.544,0,0,0,408.851,189.484Z" transform="translate(-357.984 -157.35)" fill="#f28f8f"/><path d="M399.37,171.374l9,1.164-.363.632-8.636-1.121Z" transform="translate(-357.156 -153.973)" fill="#263238"/><g transform="translate(40.808)"><path d="M399.623,160.828a2.822,2.822,0,0,0,1.142-.069,1.8,1.8,0,0,0,.617,2.11,2.547,2.547,0,0,0,2.27.3,2.192,2.192,0,0,0-.248,1.564,2.537,2.537,0,0,0,2.621,1.892c.053,1.176.068,2.326,1.324,2.862,0,0,.8-3.1,3.417-2.715,2.634.393,2.99,3.75,1.33,5.791s-3.188,1.268-3.207,1.258c.153.077.205,1.067.259,1.255a9.09,9.09,0,0,0,.673,1.7,8.11,8.11,0,0,0,2.368,2.777,5.832,5.832,0,0,0,4.749,1.321,5.112,5.112,0,0,0,3.46-2.784,2.983,2.983,0,0,1,.564-1.005,3.3,3.3,0,0,1,1.29-.559,3.79,3.79,0,0,0,2.142-5.347,3.473,3.473,0,0,0,1.33-6.067,4.168,4.168,0,0,0,1.792-4.522,4.235,4.235,0,0,0-2.992-2.868c-1.022-.3-.629-.456-.945-1.457a3.668,3.668,0,0,0-4.661-2.405,3.536,3.536,0,0,0-2.527-2.719,3.5,3.5,0,0,0-1.787-.069c-.42.109-1.283.5-1.441.9-.532-.523-.7-1.214-1.356-1.691a3.837,3.837,0,0,0-5.65,1.208A4.713,4.713,0,0,0,402.623,150a3.864,3.864,0,0,0-3.222,1.968,3.282,3.282,0,0,0,.434,3.68,3.765,3.765,0,0,0-1.954,1.692,2.37,2.37,0,0,0,.276,2.641,2.047,2.047,0,0,0,.988.736A3,3,0,0,0,399.623,160.828Z" transform="translate(-397.604 -149.516)" fill="#00223d"/><g transform="translate(7.979 18.228)"><path d="M409.339,175.928l.093-3.515a1.758,1.758,0,0,0-.093,3.515Z" transform="translate(-407.627 -172.412)" fill="#263238"/></g></g></g></g></g></svg>