<?xml version="1.0" encoding="utf-8"?>
<!-- Generator: Adobe Illustrator 25.2.3, SVG Export Plug-In . SVG Version: 6.00 Build 0)  -->
<svg version="1.1" id="Capa_1" xmlns="http://www.w3.org/2000/svg" xmlns:xlink="http://www.w3.org/1999/xlink" x="0px" y="0px"
	 viewBox="0 0 90 90" style="enable-background:new 0 0 90 90;" xml:space="preserve">
<style type="text/css">
	.st0{fill:#FFE9D4;}
	.st1{fill-rule:evenodd;clip-rule:evenodd;fill:#00223D;}
	.st2{fill-rule:evenodd;clip-rule:evenodd;fill:#012B4D;}
	.st3{fill-rule:evenodd;clip-rule:evenodd;fill:#FFE9D4;}
	.st4{fill-rule:evenodd;clip-rule:evenodd;fill:#CD4022;}
</style>
<g transform="translate(321.867 -194.654)">
	<circle class="st0" cx="-276.9" cy="239.7" r="45"/>
	<path class="st1" d="M-276.9,283.4c24.1,0,43.7-19.6,43.7-43.7c0-24.1-19.6-43.7-43.7-43.7c-24.1,0-43.7,19.6-43.7,43.7
		C-320.5,263.8-301,283.3-276.9,283.4z"/>
	<path class="st2" d="M-320.6,239.8l16.7-19l44.3,12l15,14.1l-32.4,36.4C-301,283.3-320.5,263.8-320.6,239.8z"/>
	<path class="st1" d="M-276.9,259.7c16.6,0,30.2-11.1,30.2-24.6c0-13.6-13.6-24.6-30.2-24.6c-16.6,0-30.2,11.1-30.2,24.6
		C-307.1,248.6-293.5,259.7-276.9,259.7z"/>
	<path class="st3" d="M-276.9,264.5c15.7,0,28.5-11.2,28.5-24.9s-12.8-24.9-28.5-24.9s-28.5,11.2-28.5,24.9
		C-305.3,253.4-292.5,264.5-276.9,264.5z"/>
	<path class="st3" d="M-248.9,248.7c2.8,0,5.1-2.6,5.1-5.9c0-3.2-2.3-5.9-5.1-5.9s-5.1,2.6-5.1,5.9
		C-254,246-251.7,248.7-248.9,248.7z"/>
	<path class="st3" d="M-304.8,248.7c2.8,0,5.1-2.6,5.1-5.9c0-3.2-2.3-5.9-5.1-5.9c-2.8,0-5.1,2.6-5.1,5.9
		C-309.9,246-307.6,248.7-304.8,248.7z"/>
	<path class="st1" d="M-296.8,236.2c25.6-0.9,33.5-12.3,36.5-19.5c1-2.5-5.7-2-7.5,0.4C-272.4,223.7-282.9,231.7-296.8,236.2z"/>
	<path class="st1" d="M-308.9,226.9c24.5,7.5,43.2-6.8,48.4-12.7C-270.2,208-292.2,198.1-308.9,226.9z"/>
	<path class="st1" d="M-272.8,246.9c-2,2.3-5.4,2.5-7.7,0.5c-0.2-0.2-0.4-0.3-0.5-0.5c-0.5-0.7-0.2-0.7,0.1-0.5
		c1.6,0.8,6.3,0.8,7.9,0C-272.5,246.1-272.2,246.2-272.8,246.9z"/>
	<path class="st1" d="M-303.2,230c-1.1,7-2.2,11.6,0,19.1C-301,256.6-313.4,235.4-303.2,230z"/>
	<path class="st1" d="M-250.5,230c1.1,7,2.2,11.6,0,19.1C-252.7,256.6-240.3,235.4-250.5,230z"/>
	<path class="st4" d="M-262.9,249.4c0.3,0,0.6,0,0.9,0c7.3-0.6,9-3.6,9.7-7.4c0.8-4.2,0.8-5.7,1.9-6.1c0.9-0.3,1-1.2,1-2.3
		c-0.1-1.1-0.1-1.2-1.5-1.7c-4-0.6-8-0.8-12-0.6v1.1c3.7-0.2,7.2,0.2,8.2,0.9c2.4,1.4,1.9,8.2,0.1,11.5c-1.3,2.4-5,3.5-8.3,3.6
		L-262.9,249.4z M-276.9,233.4c-1.6,0-8.3-1.7-13-2.1c-0.3,0-0.6,0-0.9-0.1v1.1c3.8,0.2,7.7,1,9.1,2.9c2.3,3.1-1.4,10.6-5,12.3
		c-1.3,0.6-2.7,0.8-4.2,0.8v1.1c4,0.3,7.7-2,9.4-5.6c1.4-2.6,1-6.3,4.6-6.3s3.3,3.6,4.6,6.2c1.6,3.6,5.3,5.9,9.3,5.7v-1.1
		c-1.4,0-2.9-0.2-4.2-0.8c-3.5-1.7-7.3-9.2-5-12.3c1.4-1.9,5.3-2.7,9.1-2.9v-1.1c-0.3,0-0.6,0-0.9,0.1
		C-268.1,231.6-273.1,233.3-276.9,233.4L-276.9,233.4z M-290.8,231.2c-4-0.2-8,0-12,0.6c-1.4,0.5-1.5,0.6-1.5,1.7s0.1,2,1,2.3
		c1.2,0.4,1.2,1.9,1.9,6.1c0.7,3.8,2.4,6.9,9.7,7.4c0.3,0,0.6,0,0.9,0v-1.1c-3.3,0-7-1.2-8.3-3.6c-1.9-3.4-2.3-10.1,0.1-11.5
		c1-0.6,4.6-1,8.2-0.9L-290.8,231.2z"/>
	<path class="st1" d="M-270.7,224.6c3.8-2.7,7.3-2.4,10,1.3c0.7,0.9,0.3,0.9-0.3,0.6c-2.2-3-6.4-3.6-9.3-1.4
		c-0.1,0.1-0.1,0.1-0.2,0.2C-271,225.6-271.6,225.3-270.7,224.6z"/>
	<path class="st1" d="M-263.3,237.1c1.7-0.2,3-1.7,2.9-3.4c0.1-1.8-1.2-3.3-2.9-3.4c-1.7,0.2-3,1.7-2.9,3.4
		C-266.3,235.4-265,237-263.3,237.1z"/>
	<path class="st1" d="M-290.6,237.1c1.7-0.2,3-1.7,2.9-3.4c0.1-1.8-1.2-3.3-2.9-3.4c-1.7,0.2-3,1.7-2.9,3.4
		C-293.6,235.4-292.4,237-290.6,237.1z"/>
</g>
</svg>
