<svg xmlns="http://www.w3.org/2000/svg" width="104.526" height="104.526" viewBox="0 0 104.526 104.526"><g transform="translate(321.867 -194.654)"><circle cx="44.255" cy="44.255" r="44.255" transform="translate(-321.867 281.349) rotate(-78.377)" fill="#ffe9d4"/><path d="M-269.6,289.919a43.084,43.084,0,0,0,43-43,43.084,43.084,0,0,0-43-43,43.085,43.085,0,0,0-43,43A43.085,43.085,0,0,0-269.6,289.919Z" fill="#00223d" fill-rule="evenodd"/><path d="M-312.6,247.07l16.475-18.657,43.564,11.839,14.721,13.847-31.878,35.818A43,43,0,0,1-312.6,247.07Z" fill="#012b4d" fill-rule="evenodd"/><path d="M-269.6,266.641c16.375,0,29.731-10.888,29.731-24.237s-13.356-24.236-29.731-24.236-29.731,10.887-29.731,24.236S-285.978,266.641-269.6,266.641Z" fill="#00223d" fill-rule="evenodd"/><path d="M-269.6,271.385c15.426,0,28.008-10.991,28.008-24.468S-254.178,222.45-269.6,222.45s-28.006,10.991-28.006,24.467S-285.029,271.385-269.6,271.385Z" fill="#ffe9d4" fill-rule="evenodd"/><path d="M-242.108,255.769c2.77,0,5.03-2.6,5.03-5.784s-2.26-5.784-5.03-5.784-5.031,2.6-5.031,5.784S-244.879,255.769-242.108,255.769Z" fill="#ffe9d4" fill-rule="evenodd"/><path d="M-297.1,255.769c2.771,0,5.031-2.6,5.031-5.784s-2.26-5.784-5.031-5.784-5.03,2.6-5.03,5.784S-299.868,255.769-297.1,255.769Z" fill="#ffe9d4" fill-rule="evenodd"/><path d="M-289.206,243.518c25.22-.933,32.991-12.066,35.949-19.229,1.017-2.464-5.648-1.985-7.336.417C-265.163,231.213-275.568,239.141-289.206,243.518Z" fill="#00223d" fill-rule="evenodd"/><path d="M-301.105,234.4c24.139,7.36,42.481-6.647,47.592-12.472C-263.052,215.786-284.669,206.035-301.105,234.4Z" fill="#00223d" fill-rule="evenodd"/><path d="M-265.557,254a5.358,5.358,0,0,1-8.09,0c-.51-.677-.22-.7.147-.522,1.559.75,6.209.819,7.8,0C-265.34,253.285-265.048,253.319-265.557,254Z" fill="#00223d" fill-rule="evenodd"/><path d="M-295.5,237.4c-1.058,6.873-2.115,11.368,0,18.77S-305.544,242.689-295.5,237.4Z" fill="#00223d" fill-rule="evenodd"/><path d="M-243.708,237.4c1.058,6.873,2.115,11.368,0,18.77S-233.661,242.689-243.708,237.4Z" fill="#00223d" fill-rule="evenodd"/><path d="M-255.874,256.471c.3,0,.6-.017.916-.041,7.168-.542,8.833-3.525,9.518-7.3.751-4.141.76-5.584,1.9-5.964.838-.279,1.015-1.206.951-2.284s-.1-1.195-1.522-1.65a56.165,56.165,0,0,0-11.766-.633v1.117c3.591-.166,7.06.243,8.086.848,2.352,1.388,1.9,8.057.063,11.358-1.29,2.322-4.9,3.485-8.149,3.495Zm-13.78-15.713c-1.586.035-8.127-1.714-12.754-2.094-.3-.024-.609-.045-.924-.062v1.117c3.732.173,7.6.968,8.982,2.815,2.285,3.046-1.395,10.47-4.885,12.119a9.8,9.8,0,0,1-4.1.767v1.051a9.46,9.46,0,0,0,9.236-5.5c1.358-2.6.941-6.189,4.493-6.189s3.2,3.524,4.556,6.126a9.389,9.389,0,0,0,9.173,5.561V255.42a9.8,9.8,0,0,1-4.1-.767c-3.489-1.649-7.17-9.073-4.885-12.119,1.385-1.847,5.25-2.642,8.982-2.815V238.6c-.316.017-.625.038-.924.062C-260.939,239-265.923,240.676-269.654,240.758Zm-13.678-2.156a56.165,56.165,0,0,0-11.766.633c-1.419.455-1.46.571-1.522,1.65s.113,2.005.951,2.284c1.143.38,1.152,1.823,1.9,5.964.684,3.772,2.349,6.755,9.517,7.3.314.024.619.037.916.041V255.42c-3.248-.01-6.858-1.173-8.149-3.495-1.833-3.3-2.29-9.97.063-11.358,1.025-.6,4.495-1.014,8.086-.848Z" fill="#cd4022" fill-rule="evenodd"/><path d="M-263.49,232.088c3.762-2.7,7.142-2.377,9.857,1.288.685.924.263.877-.3.579a6.556,6.556,0,0,0-9.371-1.239C-263.811,233.113-264.424,232.759-263.49,232.088Z" fill="#00223d" fill-rule="evenodd"/><path d="M-256.231,244.425a3.166,3.166,0,0,0,2.871-3.384,3.165,3.165,0,0,0-2.871-3.383,3.165,3.165,0,0,0-2.873,3.383A3.166,3.166,0,0,0-256.231,244.425Z" fill="#00223d" fill-rule="evenodd"/><path d="M-283.114,244.425a3.166,3.166,0,0,0,2.872-3.384,3.165,3.165,0,0,0-2.872-3.383,3.165,3.165,0,0,0-2.871,3.383A3.166,3.166,0,0,0-283.114,244.425Z" fill="#00223d" fill-rule="evenodd"/></g></svg>