<svg id="Grupo_26712" data-name="Grupo 26712" xmlns="http://www.w3.org/2000/svg" xmlns:xlink="http://www.w3.org/1999/xlink" width="110.251" height="110.252" viewBox="0 0 110.251 110.252">
  <defs>
    <linearGradient id="linear-gradient" x1="0.5" x2="0.5" y2="1" gradientUnits="objectBoundingBox">
      <stop offset="0" stop-color="#fff"/>
      <stop offset="1" stop-color="#d2e6ee"/>
    </linearGradient>
  </defs>
  <g id="Grupo_26657" data-name="Grupo 26657" transform="translate(100.045 52.989)">
    <path id="Trazado_67499" data-name="Trazado 67499" d="M1807.31,4821.872a.52.52,0,0,1-.445-.788,52.306,52.306,0,0,0,2.8-5.316.52.52,0,0,1,.947.431,53.546,53.546,0,0,1-2.855,5.422A.52.52,0,0,1,1807.31,4821.872Zm5.021-11.026a.521.521,0,0,1-.495-.681,52.511,52.511,0,0,0,1.516-5.813.52.52,0,0,1,1.02.2,53.8,53.8,0,0,1-1.546,5.93A.521.521,0,0,1,1812.331,4810.846Zm2.385-11.88-.044,0a.519.519,0,0,1-.474-.562c.125-1.475.188-2.971.188-4.446,0-.52-.008-1.044-.023-1.561a.52.52,0,1,1,1.039-.031c.016.527.024,1.063.024,1.592,0,1.505-.064,3.03-.192,4.533A.52.52,0,0,1,1814.715,4798.966Z" transform="translate(-1806.79 -4791.86)" fill="#00223d"/>
  </g>
  <g id="Grupo_26658" data-name="Grupo 26658" transform="translate(11.055 1.573)">
    <path id="Trazado_67500" data-name="Trazado 67500" d="M1656.728,4728.661a.52.52,0,0,1-.426-.817,53.5,53.5,0,0,1,3.782-4.82.52.52,0,1,1,.78.687,52.671,52.671,0,0,0-3.708,4.728A.521.521,0,0,1,1656.728,4728.661Zm8.012-9.09a.519.519,0,0,1-.348-.905l.133-.12a54.047,54.047,0,0,1,4.642-3.721.52.52,0,1,1,.6.846,53.212,53.212,0,0,0-4.553,3.649l-.13.117A.52.52,0,0,1,1664.74,4719.571Zm62.108-6.533a.516.516,0,0,1-.261-.071,52.432,52.432,0,0,0-5.361-2.714.52.52,0,0,1,.416-.953,53.37,53.37,0,0,1,5.467,2.768.52.52,0,0,1-.261.97Zm-52.249-.512a.52.52,0,0,1-.252-.975,53.718,53.718,0,0,1,5.52-2.659.52.52,0,0,1,.4.961,52.512,52.512,0,0,0-5.413,2.608A.524.524,0,0,1,1674.6,4712.526Zm41.143-4.328a.509.509,0,0,1-.151-.023,52.381,52.381,0,0,0-5.84-1.416.52.52,0,1,1,.188-1.023,53.459,53.459,0,0,1,5.955,1.444.52.52,0,0,1-.151,1.018Zm-29.944-.295a.52.52,0,0,1-.142-1.02,53.526,53.526,0,0,1,5.98-1.332.52.52,0,1,1,.167,1.026,52.588,52.588,0,0,0-5.864,1.306A.526.526,0,0,1,1685.8,4707.9Zm18.024-1.886h-.035a52.983,52.983,0,0,0-6.008-.063.52.52,0,1,1-.048-1.039,54.154,54.154,0,0,1,6.126.064.52.52,0,0,1-.034,1.039Z" transform="translate(-1656.209 -4704.857)" fill="#00223d"/>
  </g>
  <g id="Grupo_26659" data-name="Grupo 26659" transform="translate(1.57 52.827)">
    <path id="Trazado_67501" data-name="Trazado 67501" d="M1693.772,4847.437h-.164a.52.52,0,0,1,0-1.04h.157a52.552,52.552,0,0,0,5.844-.327.52.52,0,0,1,.116,1.033A53.431,53.431,0,0,1,1693.772,4847.437Zm-6.221-.362-.061,0a54.6,54.6,0,0,1-6.037-1.052.52.52,0,0,1,.236-1.013,53.454,53.454,0,0,0,5.922,1.031.52.52,0,0,1-.06,1.036Zm18.1-.989a.52.52,0,0,1-.116-1.026,52.343,52.343,0,0,0,5.767-1.686.52.52,0,1,1,.349.98,53.463,53.463,0,0,1-5.882,1.719A.506.506,0,0,1,1705.649,4846.085Zm-29.9-1.765a.527.527,0,0,1-.176-.03,53.227,53.227,0,0,1-5.64-2.4.52.52,0,1,1,.461-.932,52.091,52.091,0,0,0,5.53,2.347.52.52,0,0,1-.176,1.01Zm-10.859-5.372a.519.519,0,0,1-.283-.084,53.5,53.5,0,0,1-4.939-3.625.52.52,0,0,1,.662-.8,52.215,52.215,0,0,0,4.842,3.554.52.52,0,0,1-.284.957Zm-9.337-7.716a.516.516,0,0,1-.375-.159c-1.05-1.092-2.068-2.243-3.026-3.423q-.493-.608-.967-1.225a.52.52,0,1,1,.826-.632q.465.606.948,1.2c.94,1.157,1.938,2.287,2.969,3.358a.519.519,0,0,1-.375.88Zm-7.369-9.621a.519.519,0,0,1-.446-.252,53.575,53.575,0,0,1-2.848-5.426.52.52,0,0,1,.947-.43,52.547,52.547,0,0,0,2.793,5.32.521.521,0,0,1-.446.788Zm-5-11.035a.52.52,0,0,1-.5-.362,53.183,53.183,0,0,1-1.528-5.933.52.52,0,0,1,1.021-.2,51.992,51.992,0,0,0,1.5,5.817.52.52,0,0,1-.336.654A.532.532,0,0,1,1643.181,4810.577Zm-2.338-11.887a.52.52,0,0,1-.518-.479c-.11-1.4-.166-2.821-.166-4.227,0-.632.011-1.27.033-1.9a.52.52,0,0,1,1.04.037c-.022.615-.033,1.242-.033,1.862,0,1.378.054,2.773.162,4.145a.519.519,0,0,1-.477.559Z" transform="translate(-1640.159 -4791.585)" fill="#00223d"/>
  </g>
  <circle id="Elipse_2835" data-name="Elipse 2835" cx="38.98" cy="38.98" r="38.98" transform="translate(0 55.126) rotate(-45)" fill="url(#linear-gradient)"/>
  <g id="Grupo_26678" data-name="Grupo 26678" transform="translate(48.599 54.02)">
    <g id="Grupo_26660" data-name="Grupo 26660" transform="translate(0 10.018)">
      <path id="Trazado_67502" data-name="Trazado 67502" d="M1728.354,4824.023h-5.715a2.022,2.022,0,0,1-2.022-2.021v-8.545a2.022,2.022,0,0,1,2.022-2.021h8.546a2.021,2.021,0,0,1,2.021,2.021v10.221Z" transform="translate(-1720.098 -4810.915)" fill="#26aab7"/>
      <path id="Trazado_67503" data-name="Trazado 67503" d="M1727.995,4824.184h-5.715a2.544,2.544,0,0,1-2.541-2.542V4813.1a2.544,2.544,0,0,1,2.541-2.542h8.546a2.545,2.545,0,0,1,2.541,2.542v10.221a.52.52,0,1,1-1.04,0V4813.1a1.5,1.5,0,0,0-1.5-1.5h-8.546a1.5,1.5,0,0,0-1.5,1.5v8.545a1.5,1.5,0,0,0,1.5,1.5h5.715a.52.52,0,0,1,0,1.04Z" transform="translate(-1719.738 -4810.555)" fill="#00223d"/>
    </g>
    <g id="Grupo_26661" data-name="Grupo 26661" transform="translate(14.746 10.018)">
      <path id="Trazado_67504" data-name="Trazado 67504" d="M1745.57,4822.385v-8.929a2.021,2.021,0,0,1,2.021-2.021h8.545a2.021,2.021,0,0,1,2.021,2.021V4823.6Z" transform="translate(-1745.05 -4810.915)" fill="#f5ca56"/>
      <path id="Trazado_67505" data-name="Trazado 67505" d="M1757.8,4823.763a.521.521,0,0,1-.52-.52V4813.1a1.5,1.5,0,0,0-1.5-1.5h-8.545a1.5,1.5,0,0,0-1.5,1.5v8.929a.52.52,0,1,1-1.04,0V4813.1a2.545,2.545,0,0,1,2.541-2.542h8.545a2.545,2.545,0,0,1,2.541,2.542v10.146A.52.52,0,0,1,1757.8,4823.763Z" transform="translate(-1744.69 -4810.555)" fill="#00223d"/>
    </g>
    <g id="Grupo_26662" data-name="Grupo 26662" transform="translate(29.492 10.018)">
      <rect id="Rect치ngulo_25696" data-name="Rect치ngulo 25696" width="12.588" height="12.588" rx="3.42" transform="translate(0.52 0.52)" fill="#f5ca56"/>
      <path id="Trazado_67506" data-name="Trazado 67506" d="M1780.729,4824.184h-8.545a2.545,2.545,0,0,1-2.542-2.542V4813.1a2.545,2.545,0,0,1,2.542-2.542h8.545a2.545,2.545,0,0,1,2.541,2.542v8.545A2.545,2.545,0,0,1,1780.729,4824.184Zm-8.545-12.588a1.5,1.5,0,0,0-1.5,1.5v8.545a1.5,1.5,0,0,0,1.5,1.5h8.545a1.5,1.5,0,0,0,1.5-1.5V4813.1a1.5,1.5,0,0,0-1.5-1.5Z" transform="translate(-1769.642 -4810.555)" fill="#00223d"/>
    </g>
    <g id="Grupo_26663" data-name="Grupo 26663" transform="translate(3.195 0.236)">
      <path id="Trazado_67507" data-name="Trazado 67507" d="M1731.962,4802.6a.52.52,0,0,1-.485-.332l-1.052-2.708H1727.2l-1.054,2.708a.52.52,0,0,1-.969-.377l2.854-7.333a.913.913,0,0,1,.178-.295.832.832,0,0,1,1.189-.014.89.89,0,0,1,.2.314l2.847,7.328a.521.521,0,0,1-.485.708Zm-4.355-4.079h2.414l-1.206-3.1Z" transform="translate(-1725.144 -4794.003)" fill="#00223d"/>
    </g>
    <g id="Grupo_26664" data-name="Grupo 26664" transform="translate(18.747 0.264)">
      <path id="Trazado_67508" data-name="Trazado 67508" d="M1755.238,4802.644h-3.259a.52.52,0,0,1-.52-.52v-7.552a.52.52,0,0,1,.52-.521h3.01a2.508,2.508,0,0,1,2.506,2.505,2.379,2.379,0,0,1-.584,1.585,2.482,2.482,0,0,1,.907,1.921A2.584,2.584,0,0,1,1755.238,4802.644Zm-2.739-1.04h2.739a1.543,1.543,0,0,0,1.541-1.541,1.441,1.441,0,0,0-.821-1.309H1752.5Zm0-3.89h3.32a1.328,1.328,0,0,0,.636-1.158,1.466,1.466,0,0,0-1.466-1.465h-2.49Z" transform="translate(-1751.46 -4794.051)" fill="#00223d"/>
    </g>
    <g id="Grupo_26665" data-name="Grupo 26665" transform="translate(31.847)">
      <path id="Trazado_67509" data-name="Trazado 67509" d="M1778.1,4802.556a4.349,4.349,0,0,1-1.717-.343,4.439,4.439,0,0,1-2.416-2.416,4.473,4.473,0,0,1,6.97-5.175.52.52,0,0,1-.66.8,3.434,3.434,0,0,0-5.354,3.963,3.4,3.4,0,0,0,1.867,1.868,3.446,3.446,0,0,0,2.447.065,3.771,3.771,0,0,0,1.036-.577.52.52,0,0,1,.638.822,4.814,4.814,0,0,1-1.32.733A4.36,4.36,0,0,1,1778.1,4802.556Z" transform="translate(-1773.627 -4793.604)" fill="#00223d"/>
    </g>
    <g id="Grupo_26668" data-name="Grupo 26668" transform="translate(18.522 13.794)">
      <g id="Grupo_26666" data-name="Grupo 26666">
        <path id="Trazado_67510" data-name="Trazado 67510" d="M1755.873,4822.258a.518.518,0,0,1-.368-.152l-4.273-4.272a.52.52,0,0,1,.735-.736l4.273,4.273a.52.52,0,0,1-.368.887Z" transform="translate(-1751.08 -4816.946)" fill="#00223d"/>
      </g>
      <g id="Grupo_26667" data-name="Grupo 26667">
        <path id="Trazado_67511" data-name="Trazado 67511" d="M1751.6,4823.021a.52.52,0,0,1-.368-.887l5.035-5.036a.52.52,0,0,1,.735.736l-5.035,5.034A.515.515,0,0,1,1751.6,4823.021Z" transform="translate(-1751.08 -4816.946)" fill="#00223d"/>
      </g>
    </g>
    <g id="Grupo_26671" data-name="Grupo 26671" transform="translate(33.628 13.794)">
      <g id="Grupo_26669" data-name="Grupo 26669">
        <path id="Trazado_67512" data-name="Trazado 67512" d="M1782.2,4823.021a.514.514,0,0,1-.368-.152l-5.035-5.034a.52.52,0,0,1,.735-.736l5.036,5.036a.52.52,0,0,1-.368.887Z" transform="translate(-1776.641 -4816.946)" fill="#00223d"/>
      </g>
      <g id="Grupo_26670" data-name="Grupo 26670">
        <path id="Trazado_67513" data-name="Trazado 67513" d="M1777.161,4823.021a.52.52,0,0,1-.368-.887l5.035-5.036a.52.52,0,1,1,.736.736l-5.036,5.034A.514.514,0,0,1,1777.161,4823.021Z" transform="translate(-1776.641 -4816.946)" fill="#00223d"/>
      </g>
    </g>
    <g id="Grupo_26673" data-name="Grupo 26673" transform="translate(3.19 13.202)">
      <g id="Grupo_26672" data-name="Grupo 26672">
        <path id="Trazado_67514" data-name="Trazado 67514" d="M1727.887,4822.248a.523.523,0,0,1-.389-.174l-2.23-2.507a.52.52,0,0,1,.777-.692l1.832,2.059,4.056-4.805a.52.52,0,1,1,.794.671l-4.443,5.264a.52.52,0,0,1-.391.185Z" transform="translate(-1725.136 -4815.944)" fill="#00223d"/>
      </g>
    </g>
    <g id="Grupo_26677" data-name="Grupo 26677" transform="translate(6.474 18.079)">
      <g id="Grupo_26675" data-name="Grupo 26675">
        <g id="Grupo_26674" data-name="Grupo 26674">
          <path id="Trazado_67515" data-name="Trazado 67515" d="M1758.351,4838.53l-1.8-4.427a6.626,6.626,0,0,0-1.433-2.171l-6.321-6.38a1.661,1.661,0,0,0-2.347.018,1.535,1.535,0,0,0-.017,2.242l3.115,3.115-4.4-4.4a1.81,1.81,0,0,0-2.56,2.56l4.155,4.155-.745-.745-4.155-4.155a1.811,1.811,0,0,0-2.561,2.56l4.9,4.9-9.532-9.533a1.811,1.811,0,0,0-2.56,2.561l9.374,9.373.056.075-4.506-1.493a1.874,1.874,0,0,0-1.006,3.609l8.056,4.395,6.112,1.974Z" transform="translate(-1731.053 -4824.556)" fill="#fff"/>
          <path id="Trazado_67516" data-name="Trazado 67516" d="M1749.816,4846.92a.516.516,0,0,1-.16-.025l-6.112-1.973a.585.585,0,0,1-.089-.039l-8.014-4.372a2.394,2.394,0,0,1,1.337-4.594l.039.011,2.453.813-7.907-7.906a2.275,2.275,0,0,1-.669-1.638,2.351,2.351,0,0,1,2.326-2.327h.018a2.273,2.273,0,0,1,1.62.669l3.277,3.277a2.348,2.348,0,0,1,2.278-1.873h.018a2.291,2.291,0,0,1,.981.217,2.352,2.352,0,0,1,2.306-2.033h.018a2.272,2.272,0,0,1,1.62.669,2.214,2.214,0,0,1,.57-.954,2.183,2.183,0,0,1,3.083-.018l6.323,6.382a7.11,7.11,0,0,1,1.545,2.342l1.8,4.427a.519.519,0,0,1-.113.562l-8.174,8.229A.52.52,0,0,1,1749.816,4846.92Zm-5.906-2.973,5.763,1.86,7.708-7.76-1.668-4.108a6.078,6.078,0,0,0-1.32-2l-6.321-6.38a1.142,1.142,0,0,0-1.61.02,1.1,1.1,0,0,0-.343.761,1.035,1.035,0,0,0,.326.746l3.115,3.115a.52.52,0,1,1-.735.735l-4.4-4.4a1.264,1.264,0,0,0-.9-.365,1.31,1.31,0,0,0-1.294,1.294,1.243,1.243,0,0,0,.365.9l4.156,4.155a.52.52,0,1,1-.736.736l-4.9-4.9a1.235,1.235,0,0,0-.895-.365,1.3,1.3,0,0,0-.911.384,1.28,1.28,0,0,0-.02,1.806l4.9,4.9a.519.519,0,0,1,0,.735.521.521,0,0,1-.735,0l-9.532-9.533a1.244,1.244,0,0,0-.885-.364,1.309,1.309,0,0,0-1.3,1.294,1.24,1.24,0,0,0,.364.895l9.374,9.374a.465.465,0,0,1,.051.059l.055.075a.52.52,0,0,1-.582.8l-4.485-1.486a1.355,1.355,0,0,0-1.634,1.055,1.352,1.352,0,0,0,.925,1.558.52.52,0,0,1,.095.04Z" transform="translate(-1730.693 -4824.196)" fill="#00223d"/>
        </g>
      </g>
      <g id="Grupo_26676" data-name="Grupo 26676" transform="translate(18.034 12.947)">
        <rect id="Rect치ngulo_25697" data-name="Rect치ngulo 25697" width="13.172" height="3.013" transform="translate(0.52 9.834) rotate(-45)" fill="#1363b2"/>
        <path id="Trazado_67517" data-name="Trazado 67517" d="M1763.858,4858.589a.519.519,0,0,1-.367-.152l-2.131-2.131a.52.52,0,0,1,0-.735l9.314-9.314a.522.522,0,0,1,.735,0l2.13,2.131a.519.519,0,0,1,0,.735l-9.314,9.313A.519.519,0,0,1,1763.858,4858.589Zm-1.4-2.651,1.4,1.4,8.579-8.578-1.4-1.4Z" transform="translate(-1761.208 -4846.104)" fill="#00223d"/>
      </g>
    </g>
  </g>
  <g id="Grupo_26679" data-name="Grupo 26679" transform="translate(89.576 34.081)">
    <path id="Trazado_67518" data-name="Trazado 67518" d="M1793.512,4760.745l8.89,8.74-3.556,3.5-8.89-8.74Z" transform="translate(-1789.436 -4760.225)" fill="#f5ca56"/>
    <path id="Trazado_67519" data-name="Trazado 67519" d="M1798.487,4773.142a.518.518,0,0,1-.365-.149l-8.891-8.74a.52.52,0,0,1,.729-.742l8.526,8.382,2.814-2.767-8.513-8.37a.52.52,0,0,1,.729-.742l8.89,8.741a.521.521,0,0,1,0,.742l-3.556,3.5A.518.518,0,0,1,1798.487,4773.142Z" transform="translate(-1789.076 -4759.865)" fill="#00223d"/>
  </g>
  <g id="Grupo_26680" data-name="Grupo 26680" transform="translate(48.599 20.576)">
    <path id="Trazado_67520" data-name="Trazado 67520" d="M1759.173,4757.67v4.12a1.668,1.668,0,0,1-1.677,1.648h-34.863a2.006,2.006,0,0,1-2.017-1.983V4739.54a1.668,1.668,0,0,1,1.677-1.648h35.517a1.35,1.35,0,0,1,1.362,1.338Z" transform="translate(-1720.098 -4737.372)" fill="#26aab7"/>
    <path id="Trazado_67521" data-name="Trazado 67521" d="M1757.137,4763.6h-34.863a2.522,2.522,0,0,1-2.536-2.5V4739.18a2.185,2.185,0,0,1,2.2-2.167h35.518a1.873,1.873,0,0,1,1.882,1.858.52.52,0,0,1-1.04,0,.832.832,0,0,0-.842-.819h-35.518a1.144,1.144,0,0,0-1.156,1.127V4761.1a1.482,1.482,0,0,0,1.5,1.462h34.863a1.144,1.144,0,0,0,1.156-1.128v-4.121a.52.52,0,0,1,1.04,0v4.121A2.185,2.185,0,0,1,1757.137,4763.6Z" transform="translate(-1719.738 -4737.012)" fill="#00223d"/>
  </g>
  <g id="Grupo_26681" data-name="Grupo 26681" transform="translate(51.533 16.867)">
    <path id="Trazado_67522" data-name="Trazado 67522" d="M1741.926,4760.872V4733.7a2.1,2.1,0,0,0-2.017-2.085h-14.327v25.958h13.906a2.444,2.444,0,0,1,2.438,2.354Z" transform="translate(-1725.062 -4731.097)" fill="#fff"/>
    <path id="Trazado_67523" data-name="Trazado 67523" d="M1741.566,4761.031a.52.52,0,0,1-.52-.52v-.943a1.927,1.927,0,0,0-1.918-1.833h-13.906a.52.52,0,0,1-.519-.52v-25.958a.52.52,0,0,1,.519-.52h14.328a2.606,2.606,0,0,1,2.537,2.606v27.169A.52.52,0,0,1,1741.566,4761.031Zm-15.825-4.336h13.386a2.984,2.984,0,0,1,1.918.707v-24.059a1.572,1.572,0,0,0-1.5-1.565h-13.807Z" transform="translate(-1724.702 -4730.737)" fill="#00223d"/>
  </g>
  <g id="Grupo_26682" data-name="Grupo 26682" transform="translate(67.877 16.867)">
    <path id="Trazado_67524" data-name="Trazado 67524" d="M1769.583,4736.561v-4.944h-14.142a2.46,2.46,0,0,0-2.2,2.563v26.011a2.512,2.512,0,0,1,2.2-2.615h14.142v-21.014Z" transform="translate(-1752.718 -4731.097)" fill="#fff"/>
    <path id="Trazado_67525" data-name="Trazado 67525" d="M1752.878,4760.35a.52.52,0,0,1-.52-.52v-26.011a2.969,2.969,0,0,1,2.723-3.083h14.142a.52.52,0,0,1,.52.52v4.944a.52.52,0,0,1-1.04,0v-4.424h-13.622a1.948,1.948,0,0,0-1.682,2.042V4757.4a2.424,2.424,0,0,1,1.682-.706H1768.7v-2.364a.52.52,0,1,1,1.04,0v2.884a.52.52,0,0,1-.52.52h-14.142c-.963,0-1.682,1.106-1.682,2.1A.52.52,0,0,1,1752.878,4760.35Z" transform="translate(-1752.358 -4730.737)" fill="#00223d"/>
  </g>
  <g id="Grupo_26683" data-name="Grupo 26683" transform="translate(78.773 23.464)">
    <path id="Trazado_67526" data-name="Trazado 67526" d="M1784.554,4744.944a7.33,7.33,0,0,1,0,10.489,7.635,7.635,0,0,1-10.668,0,7.329,7.329,0,0,1,0-10.489A7.635,7.635,0,0,1,1784.554,4744.944Z" transform="translate(-1771.156 -4742.256)" fill="#fff"/>
    <path id="Trazado_67527" data-name="Trazado 67527" d="M1778.86,4757.764a8.108,8.108,0,0,1-5.7-2.317,7.849,7.849,0,0,1,0-11.231,8.166,8.166,0,0,1,11.4,0,7.85,7.85,0,0,1,0,11.23A8.109,8.109,0,0,1,1778.86,4757.764Zm0-14.827a7.064,7.064,0,0,0-4.969,2.021,6.809,6.809,0,0,0,0,9.748,7.121,7.121,0,0,0,9.939,0,6.808,6.808,0,0,0,0-9.747A7.064,7.064,0,0,0,1778.859,4742.938Z" transform="translate(-1770.796 -4741.899)" fill="#00223d"/>
  </g>
  <g id="Grupo_26684" data-name="Grupo 26684" transform="translate(55.036 19.646)">
    <path id="Trazado_67528" data-name="Trazado 67528" d="M1734.977,4741.066a.519.519,0,0,1-.485-.332l-.589-1.515h-1.679l-.59,1.515a.52.52,0,1,1-.969-.376l1.734-4.456a.778.778,0,0,1,.148-.244.716.716,0,0,1,1.018-.014.73.73,0,0,1,.167.263l1.729,4.45a.519.519,0,0,1-.485.708Zm-2.348-2.886h.87l-.435-1.119Z" transform="translate(-1730.63 -4735.44)" fill="#00223d"/>
  </g>
  <g id="Grupo_26685" data-name="Grupo 26685" transform="translate(55.373 27.277)">
    <path id="Trazado_67529" data-name="Trazado 67529" d="M1733.652,4753.867h-1.931a.52.52,0,0,1-.52-.52v-4.476a.52.52,0,0,1,.52-.52h1.784a1.7,1.7,0,0,1,1.7,1.7,1.635,1.635,0,0,1-.273.916,1.676,1.676,0,0,1,.464,1.162A1.743,1.743,0,0,1,1733.652,4753.867Zm-1.411-1.04h1.411a.7.7,0,0,0,.7-.7.645.645,0,0,0-.328-.563h-1.785Zm0-2.306h1.691a.573.573,0,0,0,.229-.474.657.657,0,0,0-.657-.657h-1.264Z" transform="translate(-1731.201 -4748.351)" fill="#00223d"/>
  </g>
  <g id="Grupo_26686" data-name="Grupo 26686" transform="translate(55.035 34.66)">
    <path id="Trazado_67530" data-name="Trazado 67530" d="M1733.492,4766.575a2.784,2.784,0,0,1-1.1-.221,3.051,3.051,0,0,1-.917-.609,3.1,3.1,0,0,1-.626-.933,2.862,2.862,0,0,1,4.46-3.314.52.52,0,0,1-.66.8,1.819,1.819,0,0,0-2.447.121,1.82,1.82,0,0,0-.4,1.981,2.052,2.052,0,0,0,.4.606,2,2,0,0,0,.59.388,1.816,1.816,0,0,0,1.3.035,2.044,2.044,0,0,0,.555-.31.52.52,0,0,1,.638.821,3.035,3.035,0,0,1-.84.467A2.813,2.813,0,0,1,1733.492,4766.575Z" transform="translate(-1730.628 -4760.845)" fill="#00223d"/>
  </g>
  <g id="Grupo_26687" data-name="Grupo 26687" transform="translate(62.07 20.616)">
    <path id="Trazado_67531" data-name="Trazado 67531" d="M1743.052,4740.71a.52.52,0,0,1-.52-.52V4737.6a.52.52,0,0,1,1.04,0v2.589A.52.52,0,0,1,1743.052,4740.71Z" transform="translate(-1742.532 -4737.081)" fill="#00223d"/>
  </g>
  <g id="Grupo_26688" data-name="Grupo 26688" transform="translate(60.775 21.91)">
    <path id="Trazado_67532" data-name="Trazado 67532" d="M1743.451,4740.311h-2.589a.52.52,0,0,1,0-1.04h2.589a.52.52,0,0,1,0,1.04Z" transform="translate(-1740.342 -4739.271)" fill="#00223d"/>
  </g>
  <g id="Grupo_26689" data-name="Grupo 26689" transform="translate(60.992 29.307)">
    <path id="Trazado_67533" data-name="Trazado 67533" d="M1743.817,4752.827h-2.589a.52.52,0,0,1,0-1.04h2.589a.52.52,0,1,1,0,1.04Z" transform="translate(-1740.709 -4751.787)" fill="#00223d"/>
  </g>
  <g id="Grupo_26690" data-name="Grupo 26690" transform="translate(84.221 25.932)">
    <path id="Trazado_67534" data-name="Trazado 67534" d="M1780.535,4757a.519.519,0,0,1-.52-.519V4746.6a.52.52,0,0,1,1.04,0v9.889A.519.519,0,0,1,1780.535,4757Z" transform="translate(-1780.015 -4746.076)" fill="#00223d"/>
  </g>
  <g id="Grupo_26691" data-name="Grupo 26691" transform="translate(87.155 25.108)">
    <path id="Trazado_67535" data-name="Trazado 67535" d="M1785.5,4756.846a.52.52,0,0,1-.52-.521V4745.2a.52.52,0,0,1,1.04,0v11.124A.521.521,0,0,1,1785.5,4756.846Z" transform="translate(-1784.979 -4744.681)" fill="#00223d"/>
  </g>
  <g id="Grupo_26692" data-name="Grupo 26692" transform="translate(10.689 29.016)">
    <path id="Trazado_67536" data-name="Trazado 67536" d="M1687.839,4753.512a1.432,1.432,0,0,0-1.453-1.337h-25.839l-4.079,4.011v37.159a1.292,1.292,0,0,0,1.3,1.281h28.407a1.631,1.631,0,0,0,1.632-1.63Z" transform="translate(-1655.948 -4751.655)" fill="#fff"/>
    <path id="Trazado_67537" data-name="Trazado 67537" d="M1685.818,4794.786h-28.407a1.814,1.814,0,0,1-1.823-1.8v-37.159a.52.52,0,0,1,.155-.371l4.08-4.011a.52.52,0,0,1,.364-.149h25.839a1.943,1.943,0,0,1,1.973,1.857l-.03,39.484A2.155,2.155,0,0,1,1685.818,4794.786Zm-29.19-38.742v36.94a.773.773,0,0,0,.783.761h28.407a1.113,1.113,0,0,0,1.112-1.111l.03-39.483a.915.915,0,0,0-.933-.816H1660.4Z" transform="translate(-1655.589 -4751.295)" fill="#00223d"/>
  </g>
  <g id="Grupo_26693" data-name="Grupo 26693" transform="translate(10.688 29.016)">
    <path id="Trazado_67538" data-name="Trazado 67538" d="M1660.548,4752.175v2.674a1.348,1.348,0,0,1-1.36,1.336h-2.72Z" transform="translate(-1655.948 -4751.655)" fill="#fff"/>
    <path id="Trazado_67539" data-name="Trazado 67539" d="M1658.827,4756.346h-2.719a.519.519,0,0,1-.365-.89l4.08-4.012a.52.52,0,0,1,.885.371v2.674A1.871,1.871,0,0,1,1658.827,4756.346Zm-1.449-1.04h1.449a.83.83,0,0,0,.84-.817v-1.434Z" transform="translate(-1655.588 -4751.295)" fill="#00223d"/>
  </g>
  <g id="Grupo_26694" data-name="Grupo 26694" transform="translate(26.063 51.403)">
    <path id="Trazado_67540" data-name="Trazado 67540" d="M1692.951,4790.217h-10.827a.52.52,0,0,1,0-1.04h10.827a.52.52,0,0,1,0,1.04Z" transform="translate(-1681.604 -4789.177)" fill="#00223d"/>
  </g>
  <g id="Grupo_26695" data-name="Grupo 26695" transform="translate(26.063 48.501)">
    <path id="Trazado_67541" data-name="Trazado 67541" d="M1687.847,4785.3h-5.723a.52.52,0,1,1,0-1.04h5.723a.52.52,0,1,1,0,1.04Z" transform="translate(-1681.604 -4784.265)" fill="#00223d"/>
  </g>
  <g id="Grupo_26696" data-name="Grupo 26696" transform="translate(26.063 39.688)">
    <path id="Trazado_67542" data-name="Trazado 67542" d="M1692.951,4770.393h-10.827a.52.52,0,1,1,0-1.04h10.827a.52.52,0,1,1,0,1.04Z" transform="translate(-1681.604 -4769.353)" fill="#00223d"/>
  </g>
  <g id="Grupo_26697" data-name="Grupo 26697" transform="translate(26.063 36.785)">
    <path id="Trazado_67543" data-name="Trazado 67543" d="M1687.847,4765.48h-5.723a.52.52,0,0,1,0-1.041h5.723a.52.52,0,0,1,0,1.041Z" transform="translate(-1681.604 -4764.44)" fill="#00223d"/>
  </g>
  <g id="Grupo_26698" data-name="Grupo 26698" transform="translate(26.063 63.302)">
    <path id="Trazado_67544" data-name="Trazado 67544" d="M1692.951,4810.35h-10.827a.52.52,0,0,1,0-1.04h10.827a.52.52,0,0,1,0,1.04Z" transform="translate(-1681.604 -4809.31)" fill="#00223d"/>
  </g>
  <g id="Grupo_26699" data-name="Grupo 26699" transform="translate(26.063 60.399)">
    <path id="Trazado_67545" data-name="Trazado 67545" d="M1687.847,4805.438h-5.723a.52.52,0,1,1,0-1.04h5.723a.52.52,0,1,1,0,1.04Z" transform="translate(-1681.604 -4804.398)" fill="#00223d"/>
  </g>
  <g id="Grupo_26703" data-name="Grupo 26703" transform="translate(15.163 59.073)">
    <g id="Grupo_26700" data-name="Grupo 26700">
      <path id="Trazado_67546" data-name="Trazado 67546" d="M1667.422,4808.817h-2.827a1,1,0,0,1-1-1v-4.227a1,1,0,0,1,1-1h4.227a1,1,0,0,1,1,1v5.056Z" transform="translate(-1663.338 -4802.333)" fill="#26aab7"/>
      <path id="Trazado_67547" data-name="Trazado 67547" d="M1667.244,4808.9h-2.827a1.258,1.258,0,0,1-1.257-1.257v-4.227a1.259,1.259,0,0,1,1.257-1.257h4.227a1.259,1.259,0,0,1,1.258,1.257v5.056a.257.257,0,0,1-.515,0v-5.056a.744.744,0,0,0-.743-.743h-4.227a.743.743,0,0,0-.742.743v4.227a.743.743,0,0,0,.742.742h2.827a.257.257,0,0,1,0,.515Z" transform="translate(-1663.16 -4802.155)" fill="#00223d"/>
    </g>
    <g id="Grupo_26702" data-name="Grupo 26702" transform="translate(1.578 1.576)">
      <g id="Grupo_26701" data-name="Grupo 26701">
        <path id="Trazado_67548" data-name="Trazado 67548" d="M1667.191,4807.939a.258.258,0,0,1-.192-.086l-1.1-1.24a.257.257,0,1,1,.385-.342l.906,1.019,2.006-2.377a.257.257,0,1,1,.393.331l-2.2,2.6a.259.259,0,0,1-.193.092Z" transform="translate(-1665.83 -4804.821)" fill="#00223d"/>
      </g>
    </g>
  </g>
  <g id="Grupo_26707" data-name="Grupo 26707" transform="translate(15.163 47.244)">
    <g id="Grupo_26704" data-name="Grupo 26704">
      <path id="Trazado_67549" data-name="Trazado 67549" d="M1667.422,4788.8h-2.827a1,1,0,0,1-1-1v-4.228a1,1,0,0,1,1-1h4.227a1,1,0,0,1,1,1v5.056Z" transform="translate(-1663.338 -4782.316)" fill="#26aab7"/>
      <path id="Trazado_67550" data-name="Trazado 67550" d="M1667.244,4788.879h-2.827a1.258,1.258,0,0,1-1.257-1.257V4783.4a1.258,1.258,0,0,1,1.257-1.257h4.227a1.259,1.259,0,0,1,1.258,1.257v5.056a.257.257,0,0,1-.515,0V4783.4a.744.744,0,0,0-.743-.742h-4.227a.743.743,0,0,0-.742.742v4.228a.742.742,0,0,0,.742.742h2.827a.258.258,0,0,1,0,.515Z" transform="translate(-1663.16 -4782.138)" fill="#00223d"/>
    </g>
    <g id="Grupo_26706" data-name="Grupo 26706" transform="translate(1.578 1.575)">
      <g id="Grupo_26705" data-name="Grupo 26705">
        <path id="Trazado_67551" data-name="Trazado 67551" d="M1667.191,4787.922a.257.257,0,0,1-.192-.086l-1.1-1.241a.257.257,0,0,1,.385-.341l.906,1.018,2.006-2.377a.257.257,0,0,1,.393.332l-2.2,2.6a.256.256,0,0,1-.193.092Z" transform="translate(-1665.83 -4784.804)" fill="#00223d"/>
      </g>
    </g>
  </g>
  <g id="Grupo_26711" data-name="Grupo 26711" transform="translate(15.163 35.414)">
    <g id="Grupo_26708" data-name="Grupo 26708">
      <path id="Trazado_67552" data-name="Trazado 67552" d="M1667.422,4768.783h-2.827a1,1,0,0,1-1-1v-4.227a1,1,0,0,1,1-1h4.227a1,1,0,0,1,1,1v5.056Z" transform="translate(-1663.338 -4762.299)" fill="#26aab7"/>
      <path id="Trazado_67553" data-name="Trazado 67553" d="M1667.244,4768.862h-2.827a1.258,1.258,0,0,1-1.257-1.257v-4.228a1.259,1.259,0,0,1,1.257-1.257h4.227a1.259,1.259,0,0,1,1.258,1.257v5.056a.257.257,0,0,1-.515,0v-5.056a.744.744,0,0,0-.743-.742h-4.227a.743.743,0,0,0-.742.742v4.228a.743.743,0,0,0,.742.743h2.827a.257.257,0,0,1,0,.514Z" transform="translate(-1663.16 -4762.121)" fill="#00223d"/>
    </g>
    <g id="Grupo_26710" data-name="Grupo 26710" transform="translate(1.578 1.575)">
      <g id="Grupo_26709" data-name="Grupo 26709">
        <path id="Trazado_67554" data-name="Trazado 67554" d="M1667.191,4767.9a.258.258,0,0,1-.192-.086l-1.1-1.24a.257.257,0,0,1,.385-.342l.906,1.019,2.006-2.377a.257.257,0,1,1,.393.332l-2.2,2.6a.261.261,0,0,1-.193.091Z" transform="translate(-1665.83 -4764.787)" fill="#00223d"/>
      </g>
    </g>
  </g>
</svg>
