<svg id="Grupo_49901" data-name="Grupo 49901" xmlns="http://www.w3.org/2000/svg" xmlns:xlink="http://www.w3.org/1999/xlink" width="103.929" height="103.929" viewBox="0 0 103.929 103.929">
  <defs>
    <radialGradient id="radial-gradient" cx="0.076" cy="0.019" r="1.465" gradientTransform="translate(0.001)" gradientUnits="objectBoundingBox">
      <stop offset="0" stop-color="#f6f6f7"/>
      <stop offset="0.477" stop-color="#f9f9fa"/>
      <stop offset="0.715" stop-color="#fff"/>
    </radialGradient>
  </defs>
  <g id="Grupo_18423" data-name="Grupo 18423" transform="translate(0 0)">
    <g id="Grupo_18421" data-name="Grupo 18421">
      <g id="Grupo_18420" data-name="Grupo 18420">
        <g id="Grupo_18419" data-name="Grupo 18419">
          <path id="Trazado_40936" data-name="Trazado 40936" d="M298.552,2197.684a51.964,51.964,0,1,1-51.964-51.963A51.964,51.964,0,0,1,298.552,2197.684Z" transform="translate(-194.623 -2145.721)" fill="#fff"/>
        </g>
      </g>
    </g>
    <path id="Trazado_40937" data-name="Trazado 40937" d="M298.078,2197.168a51.963,51.963,0,1,0-51.964,51.966A51.758,51.758,0,0,0,298.078,2197.168Z" transform="translate(-194.149 -2145.205)" fill="url(#radial-gradient)"/>
    <path id="Trazado_40938" data-name="Trazado 40938" d="M281.6,2193.014a39.664,39.664,0,1,0-39.664,39.664A39.517,39.517,0,0,0,281.6,2193.014Z" transform="translate(-189.818 -2140.878)" fill="none" stroke="#26aab7" stroke-miterlimit="10" stroke-width="4"/>
    <g id="Grupo_18422" data-name="Grupo 18422" transform="translate(9.206 29.174)">
      <path id="Trazado_40939" data-name="Trazado 40939" d="M290.013,2164.488a51.97,51.97,0,0,1-89.468,51.749,51.805,51.805,0,0,0,89.468-51.749Z" transform="translate(-200.545 -2164.488)" fill="#eceef0"/>
    </g>
  </g>
  <g id="Grupo_28524" data-name="Grupo 28524" transform="translate(29.84 26.452)">
    <path id="Trazado_67940" data-name="Trazado 67940" d="M141.627,208.348H112.853a3.439,3.439,0,0,1-3.434-3.436v-3.543a.857.857,0,0,1,.857-.857h2.16a.617.617,0,1,0,0-1.235h-2.16a.857.857,0,0,1-.857-.858v-3.134a.857.857,0,0,1,.857-.857h2.16a.618.618,0,0,0,0-1.235h-2.16a.857.857,0,0,1-.857-.857V189.2a.857.857,0,0,1,.857-.858h2.16a.617.617,0,1,0,0-1.235h-2.16a.857.857,0,0,1-.857-.857v-3.134a.857.857,0,0,1,.857-.858h2.16a.617.617,0,1,0,0-1.234h-2.16a.857.857,0,0,1-.857-.857V177.03a.857.857,0,0,1,.857-.857h2.16a.617.617,0,1,0,0-1.235h-2.16a.857.857,0,0,1-.857-.858v-3.134a.857.857,0,0,1,.857-.857h2.16a.617.617,0,1,0,0-1.235h-2.16a.857.857,0,0,1-.857-.858v-3.543a3.438,3.438,0,0,1,3.434-3.434h28.773a3.439,3.439,0,0,1,3.436,3.434v40.461A3.439,3.439,0,0,1,141.627,208.348Zm-30.493-6.12v2.684a1.722,1.722,0,0,0,1.72,1.72h28.773a1.722,1.722,0,0,0,1.72-1.72V164.451a1.722,1.722,0,0,0-1.72-1.719H112.853a1.722,1.722,0,0,0-1.72,1.719v2.685h1.3a2.333,2.333,0,1,1,0,4.666h-1.3v1.419h1.3a2.333,2.333,0,1,1,0,4.666h-1.3v1.419h1.3a2.333,2.333,0,1,1,0,4.665h-1.3v1.419h1.3a2.333,2.333,0,1,1,0,4.666h-1.3v1.42h1.3a2.332,2.332,0,1,1,0,4.664h-1.3v1.42h1.3a2.333,2.333,0,1,1,0,4.666Z" transform="translate(-105.783 -161.017)" fill="#00223d"/>
    <path id="Trazado_67941" data-name="Trazado 67941" d="M144.391,213.317c-.094,0-.19,0-.286-.011l-28.677-2.343a.858.858,0,0,1,.14-1.711l28.678,2.344a1.72,1.72,0,0,0,1.854-1.574l3.3-40.326a1.72,1.72,0,0,0-1.574-1.855l-3.795-.31a.858.858,0,0,1,.14-1.71l3.795.31a3.433,3.433,0,0,1,3.144,3.7l-3.3,40.326a3.433,3.433,0,0,1-3.418,3.155Z" transform="translate(-105.676 -160.918)" fill="#00223d"/>
    <path id="Trazado_67942" data-name="Trazado 67942" d="M112.51,171.679H108.19a2.333,2.333,0,1,1,0-4.665h4.319a2.333,2.333,0,1,1,0,4.665Zm-4.319-2.951a.618.618,0,0,0,0,1.235h4.319a.618.618,0,1,0,0-1.235Z" transform="translate(-105.857 -160.893)" fill="#00223d"/>
    <path id="Trazado_67943" data-name="Trazado 67943" d="M112.51,177.641H108.19a2.333,2.333,0,1,1,0-4.666h4.319a2.333,2.333,0,1,1,0,4.666Zm-4.319-2.951a.618.618,0,0,0,0,1.235h4.319a.618.618,0,1,0,0-1.235Z" transform="translate(-105.857 -160.77)" fill="#00223d"/>
    <path id="Trazado_67944" data-name="Trazado 67944" d="M112.51,183.6H108.19a2.333,2.333,0,1,1,0-4.665h4.319a2.333,2.333,0,1,1,0,4.665Zm-4.319-2.95a.617.617,0,1,0,0,1.234h4.319a.617.617,0,1,0,0-1.234Z" transform="translate(-105.857 -160.647)" fill="#00223d"/>
    <path id="Trazado_67945" data-name="Trazado 67945" d="M112.51,189.564H108.19a2.333,2.333,0,0,1,0-4.666h4.319a2.333,2.333,0,1,1,0,4.666Zm-4.319-2.951a.618.618,0,0,0,0,1.235h4.319a.618.618,0,1,0,0-1.235Z" transform="translate(-105.857 -160.524)" fill="#00223d"/>
    <path id="Trazado_67946" data-name="Trazado 67946" d="M112.51,195.525H108.19a2.332,2.332,0,1,1,0-4.664h4.319a2.332,2.332,0,1,1,0,4.664Zm-4.319-2.95a.618.618,0,0,0,0,1.235h4.319a.618.618,0,1,0,0-1.235Z" transform="translate(-105.857 -160.401)" fill="#00223d"/>
    <path id="Trazado_67947" data-name="Trazado 67947" d="M112.51,201.488H108.19a2.333,2.333,0,0,1,0-4.666h4.319a2.333,2.333,0,1,1,0,4.666Zm-4.319-2.951a.617.617,0,0,0,0,1.235h4.319a.617.617,0,1,0,0-1.235Z" transform="translate(-105.857 -160.278)" fill="#00223d"/>
    <path id="Trazado_67948" data-name="Trazado 67948" d="M127.186,175.411h-9.166a.858.858,0,0,1-.858-.858V167.87a.857.857,0,0,1,.858-.857h9.166a.857.857,0,0,1,.857.857v6.682A.857.857,0,0,1,127.186,175.411Zm-8.309-1.716h7.452v-4.967h-7.452Z" transform="translate(-105.624 -160.893)" fill="#00223d"/>
    <path id="Trazado_67949" data-name="Trazado 67949" d="M138.6,175.411h-7.06a.857.857,0,0,1-.857-.858V167.87a.857.857,0,0,1,.857-.857h7.06a.857.857,0,0,1,.857.857v6.682A.857.857,0,0,1,138.6,175.411Zm-6.2-1.716h5.344v-4.967H132.4Z" transform="translate(-105.344 -160.893)" fill="#00223d"/>
    <path id="Trazado_67950" data-name="Trazado 67950" d="M127.186,185.506h-9.166a.857.857,0,0,1-.858-.857v-6.682a.857.857,0,0,1,.858-.857h9.166a.857.857,0,0,1,.857.857v6.682A.857.857,0,0,1,127.186,185.506Zm-8.309-1.715h7.452v-4.968h-7.452Z" transform="translate(-105.624 -160.685)" fill="#00223d"/>
    <path id="Trazado_67951" data-name="Trazado 67951" d="M138.6,185.506h-7.06a.857.857,0,0,1-.857-.857v-6.682a.857.857,0,0,1,.857-.857h7.06a.857.857,0,0,1,.857.857v6.682A.857.857,0,0,1,138.6,185.506Zm-6.2-1.715h5.344v-4.968H132.4Z" transform="translate(-105.344 -160.685)" fill="#00223d"/>
    <path id="Trazado_67952" data-name="Trazado 67952" d="M135.352,191.131H118.019a.858.858,0,1,1,0-1.716h17.333a.858.858,0,0,1,0,1.716Z" transform="translate(-105.624 -160.431)" fill="#00223d"/>
    <path id="Trazado_67953" data-name="Trazado 67953" d="M135.352,195.26H118.019a.858.858,0,1,1,0-1.716h17.333a.858.858,0,0,1,0,1.716Z" transform="translate(-105.624 -160.345)" fill="#00223d"/>
    <path id="Trazado_67954" data-name="Trazado 67954" d="M135.352,199.389H118.019a.857.857,0,1,1,0-1.715h17.333a.857.857,0,1,1,0,1.715Z" transform="translate(-105.624 -160.26)" fill="#00223d"/>
  </g>
</svg>
