<svg xmlns="http://www.w3.org/2000/svg" xmlns:xlink="http://www.w3.org/1999/xlink" width="310.502" height="211.986" viewBox="0 0 310.502 211.986">
  <defs>
    <linearGradient id="linear-gradient" x1="0.5" x2="0.5" y2="1" gradientUnits="objectBoundingBox">
      <stop offset="0" stop-color="#fff"/>
      <stop offset="1" stop-color="#f1f7fa"/>
    </linearGradient>
    <linearGradient id="linear-gradient-2" x1="0.5" x2="0.5" y2="1" gradientUnits="objectBoundingBox">
      <stop offset="0" stop-color="#fff"/>
      <stop offset="1" stop-color="#d3d3d3"/>
    </linearGradient>
  </defs>
  <g id="Grupo_46795" data-name="Grupo 46795" transform="translate(-343.613 -798.768)">
    <g id="Grupo_46739" data-name="Grupo 46739" transform="translate(343.613 801.788)">
      <g id="Grupo_46726" data-name="Grupo 46726" transform="translate(39.849 63.506)">
        <path id="Trazado_97178" data-name="Trazado 97178" d="M726.654,1473.615h32.163a7.209,7.209,0,0,1,7.209,7.209v14.994a7.209,7.209,0,0,1-7.209,7.208h-.239l2.581,8.648a.41.41,0,0,1-.641.443l-11.917-9.091H726.654a7.209,7.209,0,0,1-7.209-7.208v-14.994A7.209,7.209,0,0,1,726.654,1473.615Z" transform="translate(-719.445 -1473.615)" fill="#f1f1f1"/>
        <path id="Trazado_97179" data-name="Trazado 97179" d="M790.1,1520.971h-30.88a3.568,3.568,0,0,1-3.568-3.569h0a3.568,3.568,0,0,1,3.568-3.568H790.1a3.568,3.568,0,0,1,3.568,3.568h0A3.568,3.568,0,0,1,790.1,1520.971Z" transform="translate(-750.74 -1508.381)" fill="#00223d" opacity="0.25"/>
        <path id="Trazado_97180" data-name="Trazado 97180" d="M790.1,1601.33h-30.88a3.568,3.568,0,0,1-3.568-3.568h0a3.568,3.568,0,0,1,3.568-3.568H790.1a3.568,3.568,0,0,1,3.568,3.568h0A3.568,3.568,0,0,1,790.1,1601.33Z" transform="translate(-750.74 -1577.843)" fill="#00223d" opacity="0.25"/>
      </g>
      <g id="Grupo_46727" data-name="Grupo 46727" transform="translate(200.954 23.034)">
        <path id="Trazado_97181" data-name="Trazado 97181" d="M1950.455,1175.156h-35.076a7.862,7.862,0,0,0-7.862,7.862v16.351a7.862,7.862,0,0,0,7.862,7.861h.26l-2.815,9.431a.447.447,0,0,0,.7.484l13-9.915h23.935a7.862,7.862,0,0,0,7.862-7.861v-16.351A7.862,7.862,0,0,0,1950.455,1175.156Z" transform="translate(-1907.517 -1175.156)" fill="#f1f1f1"/>
        <rect id="Rectángulo_28254" data-name="Rectángulo 28254" width="41.66" height="7.136" rx="3.568" transform="translate(4.153 6.684)" fill="#00223d" opacity="0.25"/>
        <path id="Rectángulo_28255" data-name="Rectángulo 28255" d="M3.568,0H20.106a3.568,3.568,0,0,1,3.568,3.568v0a3.568,3.568,0,0,1-3.568,3.568H3.568A3.568,3.568,0,0,1,0,3.568v0A3.568,3.568,0,0,1,3.568,0Z" transform="translate(5.296 17.473)" fill="#00223d" opacity="0.25"/>
      </g>
      <g id="Grupo_46728" data-name="Grupo 46728" transform="translate(8.753 142.679)">
        <path id="Trazado_97182" data-name="Trazado 97182" d="M491.191,2058.988a7.716,7.716,0,0,1,4.787-1.507c4.018,0,6.146,2.187,6.146,5.26a7.865,7.865,0,0,1-2.6,5.377c-2.216,2.333-3.812,3.486-4.816,3.486a1.665,1.665,0,0,1-1.684-1.684c0-.827.768-1.654,2.1-2.866a1.261,1.261,0,0,1,.236-.207c1.507-1.389,1.98-2.157,1.98-3.1a1.755,1.755,0,0,0-1.95-1.832,6.348,6.348,0,0,0-1.891.354,6.1,6.1,0,0,1-1.6.355,1.843,1.843,0,0,1-1.773-1.891A2.234,2.234,0,0,1,491.191,2058.988Zm4.048,19.708a2.935,2.935,0,0,1-3.014-3.014,2.889,2.889,0,0,1,3.014-2.777,2.832,2.832,0,0,1,2.777,2.777A2.869,2.869,0,0,1,495.239,2078.7Z" transform="translate(-490.127 -2057.481)" fill="#26aab7"/>
      </g>
      <g id="Grupo_46729" data-name="Grupo 46729" transform="translate(250.501 76.894)">
        <path id="Trazado_97183" data-name="Trazado 97183" d="M2273.6,1573.339a5.072,5.072,0,0,1,3.148-.991c2.642,0,4.042,1.438,4.042,3.458a5.174,5.174,0,0,1-1.71,3.537c-1.457,1.535-2.507,2.293-3.167,2.293a1.1,1.1,0,0,1-1.108-1.107c0-.544.506-1.088,1.38-1.885a.9.9,0,0,1,.155-.136c.991-.913,1.3-1.418,1.3-2.04a1.155,1.155,0,0,0-1.282-1.205,4.166,4.166,0,0,0-1.244.233,3.992,3.992,0,0,1-1.05.233,1.211,1.211,0,0,1-1.165-1.244A1.469,1.469,0,0,1,2273.6,1573.339Zm2.662,12.961a1.93,1.93,0,0,1-1.982-1.982,1.9,1.9,0,0,1,1.982-1.826,1.862,1.862,0,0,1,1.826,1.826A1.887,1.887,0,0,1,2276.261,1586.3Z" transform="translate(-2272.9 -1572.348)" fill="#3c4973"/>
      </g>
      <g id="Grupo_46735" data-name="Grupo 46735" transform="translate(271.248 115.578)">
        <g id="Grupo_46730" data-name="Grupo 46730">
          <path id="Trazado_97184" data-name="Trazado 97184" d="M2463.973,1891.74h-36.891a1.181,1.181,0,0,1-1.181-1.181V1858.8a1.181,1.181,0,1,1,2.362,0v30.574h35.71a1.181,1.181,0,1,1,0,2.362Z" transform="translate(-2425.901 -1857.623)" fill="#3c4973"/>
        </g>
        <g id="Grupo_46734" data-name="Grupo 46734" transform="translate(2.793 5.094)">
          <g id="Grupo_46731" data-name="Grupo 46731" transform="translate(0 3.094)">
            <path id="Trazado_97185" data-name="Trazado 97185" d="M2447.676,1936.172a1.18,1.18,0,0,1-.849-2l11.923-12.334a1.18,1.18,0,0,1,1.491-.17l5.638,3.657,5.946-6.908a1.181,1.181,0,1,1,1.79,1.54l-6.618,7.69a1.181,1.181,0,0,1-1.538.22l-5.687-3.689-11.247,11.635A1.179,1.179,0,0,1,2447.676,1936.172Z" transform="translate(-2446.495 -1918.005)" fill="#f5ca56"/>
          </g>
          <g id="Grupo_46733" data-name="Grupo 46733" transform="translate(21.843)">
            <g id="Grupo_46732" data-name="Grupo 46732">
              <path id="Trazado_97186" data-name="Trazado 97186" d="M2612.882,1903.756l-1.682-3.408-3.621-1.156,8.062-4Z" transform="translate(-2607.578 -1895.188)" fill="#f5ca56"/>
            </g>
          </g>
        </g>
      </g>
      <g id="Grupo_46736" data-name="Grupo 46736" transform="translate(54.329 20.246)">
        <path id="Trazado_97187" data-name="Trazado 97187" d="M833.378,1168.885a7.146,7.146,0,1,1,7.146-7.146A7.154,7.154,0,0,1,833.378,1168.885Zm0-12.324a5.178,5.178,0,1,0,5.178,5.178A5.184,5.184,0,0,0,833.378,1156.561Z" transform="translate(-826.232 -1154.593)" fill="#00223d"/>
      </g>
      <g id="Grupo_46737" data-name="Grupo 46737" transform="translate(274.261 80.948)">
        <path id="Trazado_97188" data-name="Trazado 97188" d="M2453.356,1612.709a5.234,5.234,0,1,1,5.235-5.234A5.24,5.24,0,0,1,2453.356,1612.709Zm0-9.027a3.793,3.793,0,1,0,3.793,3.793A3.8,3.8,0,0,0,2453.356,1603.682Z" transform="translate(-2448.122 -1602.24)" fill="#ebf3fa" opacity="0.25"/>
      </g>
      <g id="Grupo_46738" data-name="Grupo 46738" transform="translate(0 110.711)">
        <path id="Trazado_97189" data-name="Trazado 97189" d="M430.281,1831.13a4.7,4.7,0,1,1,4.7-4.7A4.705,4.705,0,0,1,430.281,1831.13Zm0-8.105a3.406,3.406,0,1,0,3.405,3.405A3.409,3.409,0,0,0,430.281,1823.024Z" transform="translate(-425.581 -1821.73)" fill="#7d6eb2"/>
      </g>
      <path id="Trazado_97190" data-name="Trazado 97190" d="M2285.586,1089.974a2.557,2.557,0,1,1-2.557-2.557A2.556,2.556,0,0,1,2285.586,1089.974Z" transform="translate(-2028.944 -1076.281)" fill="#fff"/>
      <circle id="Elipse_3864" data-name="Elipse 3864" cx="5.028" cy="5.028" r="5.028" transform="translate(20.38 61.035) rotate(-45)" fill="#ebf3fa" opacity="0.25"/>
      <path id="Trazado_97191" data-name="Trazado 97191" d="M2382.673,1009.072a3.78,3.78,0,1,1-3.78-3.78A3.779,3.779,0,0,1,2382.673,1009.072Z" transform="translate(-2110.753 -1005.292)" fill="#ebf3fa" opacity="0.25"/>
      <path id="Trazado_97192" data-name="Trazado 97192" d="M2526.131,1681.895a3.226,3.226,0,1,1-3.227-3.227A3.226,3.226,0,0,1,2526.131,1681.895Z" transform="translate(-2235.714 -1587.357)" fill="#ebf3fa" opacity="0.25"/>
      <path id="Trazado_97193" data-name="Trazado 97193" d="M2310.034,1151.656a4.023,4.023,0,1,1-4.022-4.022A4.022,4.022,0,0,1,2310.034,1151.656Z" transform="translate(-2047.543 -1128.332)" fill="#fff"/>
      <circle id="Elipse_3865" data-name="Elipse 3865" cx="4.08" cy="4.08" r="4.08" transform="translate(68.086 13.811) rotate(-22.5)" fill="#00223d"/>
    </g>
    <path id="Trazado_97194" data-name="Trazado 97194" d="M871.421,2528.125h-241.5a1.427,1.427,0,0,1-1.427-1.427h0a1.427,1.427,0,0,1,1.427-1.426h241.5a1.427,1.427,0,0,1,1.427,1.426h0A1.427,1.427,0,0,1,871.421,2528.125Z" transform="translate(-257.366 -1517.371)" fill="url(#linear-gradient)"/>
    <g id="Grupo_46788" data-name="Grupo 46788" transform="translate(358.243 858.609)">
      <g id="Grupo_46746" data-name="Grupo 46746" transform="translate(80.433 6.856)">
        <path id="v-2" d="M1200.146,1625.025h0l3.707.014.839,8.755-4.327,2.284-4.615-2.259.746-8.781Z" transform="translate(-1186.382 -1604.665)" fill="#e49963"/>
        <g id="Grupo_46745" data-name="Grupo 46745">
          <path id="Trazado_97195" data-name="Trazado 97195" d="M1146.7,1506.856c2.282,5.7,7.761,8.87,12.239,7.078s6.258-7.866,3.976-13.567-7.761-8.871-12.239-7.079S1144.417,1501.155,1146.7,1506.856Z" transform="translate(-1143.119 -1490.359)" fill="#e49963"/>
          <path id="Trazado_97196" data-name="Trazado 97196" d="M1257.293,1554.076a.839.839,0,1,0,.209-1.167A.838.838,0,0,0,1257.293,1554.076Z" transform="translate(-1239.445 -1542.198)"/>
          <path id="Trazado_97197" data-name="Trazado 97197" d="M1210.886,1572.292a.908.908,0,1,0,.227-1.264A.907.907,0,0,0,1210.886,1572.292Z" transform="translate(-1199.32 -1557.85)"/>
          <path id="Trazado_97198" data-name="Trazado 97198" d="M1248.857,1572.347c1.134.894,2.552,1.973,2.552,1.973a2.2,2.2,0,0,1-1.583,1.959c.578-.524,1.085-1.222.484-2.027S1248.857,1572.347,1248.857,1572.347Z" transform="translate(-1232.283 -1559.13)" fill="#d68d5d"/>
          <g id="Grupo_46740" data-name="Grupo 46740" transform="translate(9.494 11.598)">
            <path id="Trazado_97199" data-name="Trazado 97199" d="M1197.064,1562.708a.419.419,0,0,1-.407-.515,2.232,2.232,0,0,1,2.037-1.782.418.418,0,1,1,0,.837c-.945,0-1.224,1.128-1.227,1.14A.418.418,0,0,1,1197.064,1562.708Z" transform="translate(-1196.645 -1560.41)" fill="#201d40"/>
          </g>
          <g id="Grupo_46741" data-name="Grupo 46741" transform="translate(16.621 8.788)">
            <path id="Trazado_97200" data-name="Trazado 97200" d="M1249.551,1541a.353.353,0,0,1-.176-.048.349.349,0,0,1-.125-.477,1.722,1.722,0,0,1,1.075-.768,1.789,1.789,0,0,1,1.453.46.349.349,0,1,1-.436.545,1.133,1.133,0,0,0-.891-.319,1.008,1.008,0,0,0-.6.435A.349.349,0,0,1,1249.551,1541Z" transform="translate(-1249.203 -1539.683)" fill="#201d40"/>
          </g>
          <path id="Trazado_97201" data-name="Trazado 97201" d="M1127.094,1487.118a7.543,7.543,0,0,1,2.771-8.652s-1.261-.113-1.412-1.884a4.66,4.66,0,0,0,2.932-.063c6.266-2.268,10.579-2.238,10.579.443,0,.954,4.138.3,3.791,6.719.024-.453-1.454-3.092-2.851-3.355s-.136,1.6-3.055,2c-2.946.4-5.113-.311-6.912,1.351-1.408,1.449-1.757,8.823-1.543,9.267C1130.9,1491.93,1127.942,1489.532,1127.094,1487.118Z" transform="translate(-1126.629 -1474.88)" fill="#3c4973"/>
          <path id="Trazado_97202" data-name="Trazado 97202" d="M1177.63,1572.347s.266,3.345-.216,4.38c-.5-1.342-1.58.08-2.592.214-2.446.323-6.859-.492-7.3,3.177-2.989.946-5.79-5.453-5.79-5.453-.171,7.149,5.06,11.208,12.588,10.019C1179.283,1583.9,1179.743,1576.995,1177.63,1572.347Z" transform="translate(-1156.972 -1559.13)" fill="#3c4973"/>
          <g id="Grupo_46742" data-name="Grupo 46742" transform="translate(13.844 18.091)">
            <path id="Trazado_97203" data-name="Trazado 97203" d="M1230.383,1610.271a6.36,6.36,0,0,1-1.51-.592.279.279,0,0,1,.263-.492,4.04,4.04,0,0,0,3.086.524,2.912,2.912,0,0,0,1.606-1.271.279.279,0,0,1,.494.259,3.432,3.432,0,0,1-1.928,1.543A3.774,3.774,0,0,1,1230.383,1610.271Z" transform="translate(-1228.725 -1608.291)" fill="#d68d5d"/>
          </g>
          <g id="Grupo_46744" data-name="Grupo 46744" transform="translate(1.136 15.185)">
            <path id="Trazado_97204" data-name="Trazado 97204" d="M1138.566,1587.256a2.183,2.183,0,1,1-3.328.585A2.413,2.413,0,0,1,1138.566,1587.256Z" transform="translate(-1135.008 -1586.858)" fill="#e49963"/>
            <g id="Grupo_46743" data-name="Grupo 46743" transform="translate(1.404 1.165)">
              <path id="Trazado_97205" data-name="Trazado 97205" d="M1147.323,1597.771a.321.321,0,0,0,.1-.108,1.427,1.427,0,0,0-.152-1.747,1.521,1.521,0,0,0-1.733-.318.316.316,0,1,0,.285.563.9.9,0,0,1,1,.195.808.808,0,0,1,.048,1.006.316.316,0,0,0,.459.408Z" transform="translate(-1145.361 -1595.453)" fill="#d68d5d"/>
            </g>
          </g>
        </g>
      </g>
      <path id="Trazado_97206" data-name="Trazado 97206" d="M1235.6,2472.107a3.425,3.425,0,0,1,2.475-2.381c3.278,4.522,11.326,1.747,11.06,7.864-12.24-.079-17.327,0-17.327,0a44.836,44.836,0,0,1,.541-6.045l.638.117Z" transform="translate(-1137.109 -2327.966)"/>
      <path id="Trazado_97207" data-name="Trazado 97207" d="M1100.543,2472.981a3.423,3.423,0,0,1,2.475-2.38c3.278,4.522,11.327,1.747,11.06,7.863-12.24-.079-17.327,0-17.327,0a44.909,44.909,0,0,1,.54-6.044l.638.117Z" transform="translate(-1020.369 -2328.723)"/>
      <path id="Trazado_97208" data-name="Trazado 97208" d="M1219.144,1960.59s1.987,28.984,1.18,35.428-3.666,14.706-3.342,36.02c-3.99,1-9.771,0-9.771,0s-.857-24.1,3.361-34.866c-1.715-10.456-7.219-34.4-7.219-34.4Z" transform="translate(-1112.515 -1887.87)" fill="#213755"/>
      <path id="Trazado_97209" data-name="Trazado 97209" d="M1115.917,1966.432s-4.013,32.54-5.977,38.712-5.8,11.39-9.352,32.387c-4.1.205-7.919,0-7.919,0s.553-26.634,6.94-32.691c.216-10.6-1.033-38.2-1.033-38.2Z" transform="translate(-1016.841 -1892.92)" fill="#344966"/>
      <g id="v" transform="translate(79.657 34.967)">
        <path id="h-5" d="M1121.825,1683.8s6.97-2.44,9.294-1.321c7.222,3.477,8.878,0,8.878,0,2.308.2,9.274,1.321,9.274,1.321,0,7.78.519,15.586.378,21.473-.1,5.127.878,19.078.878,19.078a70.4,70.4,0,0,1-14.953,2.067,68.4,68.4,0,0,1-14.667-1.985s.388-14.131.711-19.383C1121.511,1699.16,1121.825,1691.556,1121.825,1683.8Z" transform="translate(-1120.905 -1682.183)" fill="#7d6eb2"/>
      </g>
      <g id="c" transform="translate(106.042 36.582)">
        <path id="c-2" data-name="c" d="M1329.851,1705.652c-2.877-6.864-11.413-11.229-12.389-11.562l-1.98,8.812a51.584,51.584,0,0,1,7.078,5.049c-.5,2.453-.42,4.86-1.841,7.963,0,0,1.234-1.7,2.755-.7,1.479.979,4.2-1.019,4.2-1.019A7.289,7.289,0,0,0,1329.851,1705.652Z" transform="translate(-1315.482 -1694.09)" fill="#6f5fa5"/>
      </g>
      <g id="c-3" data-name="c" transform="translate(70.357 36.582)">
        <g id="c-4" data-name="c" transform="translate(28.493 2.659)">
          <g id="c-5" data-name="c">
            <path id="c-6" data-name="c" d="M1287.092,1739.947a.751.751,0,0,0,.149.03h.164a.778.778,0,0,0,.662-.543l7.669-24.725a.744.744,0,0,0,.031-.15.811.811,0,0,0,0-.1c0-.02,0-.039,0-.059s-.007-.034-.01-.051a.78.78,0,0,0-.68-.649.841.841,0,0,0-.166,0h-19.306l-7.736,26.274h19.236Z" transform="translate(-1267.134 -1713.698)" fill="#8ec8c8"/>
            <path id="c-7" data-name="c" d="M1271.089,1713.733a.78.78,0,0,0-.975.513l-7.621,24.664-.017.058a.779.779,0,0,0,.51.972h0a.778.778,0,0,0,.975-.512l7.641-24.721A.779.779,0,0,0,1271.089,1713.733Z" transform="translate(-1262.441 -1713.698)" fill="#00223d"/>
          </g>
        </g>
        <path id="c-8" data-name="c" d="M1431.322,1796.882a.8.8,0,0,1,.231-.1l-.025-.036a1.407,1.407,0,0,1,.072-1.935.837.837,0,0,1,.277-.116,1.164,1.164,0,0,1,.357-1.294.876.876,0,0,1,.5-.139,1.163,1.163,0,0,1,.381-1.356,1.364,1.364,0,0,1,1.485,2.24.975.975,0,0,1-.431.155,1.325,1.325,0,0,1-.194,1.724.834.834,0,0,1-.277.116,1.164,1.164,0,0,1-.357,1.294.864.864,0,0,1-.46.139,1,1,0,0,1-.3,1.2,1.152,1.152,0,0,1-1.254-1.891Z" transform="translate(-1379.595 -1778.502)" fill="#e49963"/>
        <path id="Trazado_97210" data-name="Trazado 97210" d="M1258.746,1795.319l1.76-1.02a3.325,3.325,0,0,1,3.313-2.556l-.79,2.556s1.391,1.08,4.69-.768c3.225-.725,1.847,1.626,2.917,1.8,1.577.249-1.15,3.349-4.37,3.823-4.167.614-4.661-.239-4.661-.239l-2.358.824Z" transform="translate(-1230.754 -1778.501)" fill="#e49963"/>
        <path id="c-9" data-name="c" d="M1064.025,1713.575c5.882-.411,15.917-3.317,15.917-3.317a9.484,9.484,0,0,1,1.162,5.735c-9.135,8.009-22.883,10.6-27.1,8.67-3.851-1.76-1.133-25.2,8.537-30.573h0C1065.854,1699.7,1064.025,1713.575,1064.025,1713.575Z" transform="translate(-1052.319 -1694.09)" fill="#6f5fa5"/>
      </g>
      <g id="Grupo_46755" data-name="Grupo 46755" transform="translate(144.273 0)">
        <path id="Trazado_97211" data-name="Trazado 97211" d="M1767.234,2471.244c-3.278,4.372-11.326,1.689-11.06,7.6,12.24-.076,17.327,0,17.327,0a41.982,41.982,0,0,0-.541-5.844Z" transform="translate(-1734.64 -2329.279)" fill="#060f17"/>
        <path id="Trazado_97212" data-name="Trazado 97212" d="M1902.287,2472.088c-3.277,4.372-11.326,1.689-11.06,7.6,12.24-.076,17.327,0,17.327,0a41.969,41.969,0,0,0-.54-5.843Z" transform="translate(-1851.379 -2330.008)" fill="#060f17"/>
        <path id="Trazado_97213" data-name="Trazado 97213" d="M1787.241,1979.039s-1.988,28.021-1.18,34.25,3.666,14.217,3.342,34.822c3.99.966,9.771,0,9.771,0s.857-23.3-3.361-33.706c1.715-10.108,7.219-33.261,7.219-33.261Z" transform="translate(-1760.313 -1903.818)" fill="#060f17"/>
        <path id="Trazado_97214" data-name="Trazado 97214" d="M1851.69,1984.686s4.013,31.458,5.978,37.424,5.795,11.012,9.351,31.311a42.584,42.584,0,0,0,8.987-.811s-1.621-24.937-8.008-30.792c-.216-10.251,1.032-36.93,1.032-36.93Z" transform="translate(-1817.209 -1908.699)" fill="#060f17"/>
        <g id="Grupo_46752" data-name="Grupo 46752" transform="translate(32.871 7.228)">
          <g id="Grupo_46751" data-name="Grupo 46751">
            <g id="Grupo_46750" data-name="Grupo 46750">
              <path id="Trazado_97215" data-name="Trazado 97215" d="M1867.633,1519.658c-2.175,5.435-7.4,8.456-11.668,6.748s-5.966-7.5-3.791-12.935,7.4-8.457,11.668-6.748S1869.808,1514.223,1867.633,1519.658Z" transform="translate(-1849.68 -1502.364)" fill="#e49963"/>
              <path id="Trazado_97216" data-name="Trazado 97216" d="M1862.62,1564.678a.8.8,0,1,1-.2-1.113A.8.8,0,0,1,1862.62,1564.678Z" transform="translate(-1858.269 -1551.787)"/>
              <path id="Trazado_97217" data-name="Trazado 97217" d="M1906.022,1582.044a.866.866,0,1,1-.217-1.2A.866.866,0,0,1,1906.022,1582.044Z" transform="translate(-1895.682 -1566.708)"/>
              <path id="Trazado_97218" data-name="Trazado 97218" d="M1865.35,1582.1c-1.081.852-2.433,1.881-2.433,1.881a2.1,2.1,0,0,0,1.509,1.868c-.551-.5-1.034-1.165-.461-1.933S1865.35,1582.1,1865.35,1582.1Z" transform="translate(-1859.784 -1567.93)" fill="#d68d5d"/>
              <g id="Grupo_46747" data-name="Grupo 46747" transform="translate(9.961 12.624)">
                <path id="Trazado_97219" data-name="Trazado 97219" d="M1915.232,1572.906a.4.4,0,0,1-.388-.307c-.011-.042-.278-1.082-1.169-1.086a.4.4,0,1,1,0-.8,2.128,2.128,0,0,1,1.942,1.7.4.4,0,0,1-.3.48A.393.393,0,0,1,1915.232,1572.906Z" transform="translate(-1913.277 -1570.715)"/>
              </g>
              <g id="Grupo_46748" data-name="Grupo 46748" transform="translate(2.94 9.944)">
                <path id="Trazado_97220" data-name="Trazado 97220" d="M1863.745,1552.21a.332.332,0,0,1-.286-.163.969.969,0,0,0-.578-.417,1.086,1.086,0,0,0-.844.305.333.333,0,1,1-.415-.52,1.7,1.7,0,0,1,1.385-.439,1.637,1.637,0,0,1,1.024.732.332.332,0,0,1-.286.5Z" transform="translate(-1861.497 -1550.955)"/>
              </g>
              <path id="Trazado_97221" data-name="Trazado 97221" d="M1856.253,1495.481c-1.573-5.057.417-7.744.417-7.744-1.351-.271-1.875.2-1.875.2a3,3,0,0,1-.166-2.6c-2.791-1.088-4.181.719-6.7,1.329-3.449.834-7.708-.542-8.107-4.752a.719.719,0,0,1,1.121-.663,3.167,3.167,0,0,0,1.879.549,3.386,3.386,0,0,1-.76-1.942.718.718,0,0,1,1.187-.56c.717.6,2.047,1.161,4.418.716,1.578-.3,5.192-2.823,7.443-2.33a5.548,5.548,0,0,1,3.929,4.211,5.782,5.782,0,0,1,4.976,5.447c.446,4.89-5.219,8.643-5.219,8.643Z" transform="translate(-1839.818 -1477.62)" fill="#3c4973"/>
              <path id="Trazado_97222" data-name="Trazado 97222" d="M1947.644,1600.665a2.081,2.081,0,1,0,3.174.546A2.3,2.3,0,0,0,1947.644,1600.665Z" transform="translate(-1931.825 -1583.648)" fill="#e49963"/>
              <g id="Grupo_46749" data-name="Grupo 46749" transform="translate(15.704 17.745)">
                <path id="Trazado_97223" data-name="Trazado 97223" d="M1955.932,1610.693a.3.3,0,0,1-.092-.1,1.361,1.361,0,0,1,.138-1.666,1.451,1.451,0,0,1,1.652-.309.3.3,0,0,1-.27.538.858.858,0,0,0-.949.189.769.769,0,0,0-.043.959.3.3,0,0,1-.436.391Z" transform="translate(-1955.623 -1608.478)" fill="#d68d5d"/>
              </g>
              <path id="Trazado_97224" data-name="Trazado 97224" d="M1864.5,1620.072a.255.255,0,0,1,.269-.384,18.069,18.069,0,0,0,4.78.427.255.255,0,0,1,.2.425,3.18,3.18,0,0,1-5.246-.468Z" transform="translate(-1861.116 -1600.419)" fill="#fff"/>
            </g>
          </g>
        </g>
        <path id="Trazado_97225" data-name="Trazado 97225" d="M1681.292,1672.3s.2-.554-17.411-.412l-4.722,5.582c4.887,3.919,21.257,4.615,21.257,4.615Z" transform="translate(-1650.786 -1638.297)" fill="#060f17"/>
        <path id="Trazado_97226" data-name="Trazado 97226" d="M1869.579,1668.416l5.556-.519,5.375,1.5-6.056,6.232Z" transform="translate(-1832.672 -1634.868)" fill="#6451a8"/>
        <path id="Trazado_97227" data-name="Trazado 97227" d="M1883.782,1645.941c2.264,1.859,2.727,3.144,7.536.659l.722-7.4-7.83-.617Z" transform="translate(-1844.95 -1609.532)" fill="#e49963"/>
        <path id="Trazado_97228" data-name="Trazado 97228" d="M1820.872,1675.679h0l-1.646-.652.22-2.325-4.567,3.667-1.29.206-1.233-.431-3.841-4.422-.2,2.327-1.453.291h0l-5.239.848-.624,29.078-2.067,9.893A49.855,49.855,0,0,0,1821.3,1716l-.257-9.931,5.429-28.419Z" transform="translate(-1771.609 -1638.174)" fill="#7d6eb2"/>
        <path id="Trazado_97229" data-name="Trazado 97229" d="M1878.671,1729.174l-3.282,22.2,1.818,2.525,2.369-1.82.806-22.722Z" transform="translate(-1837.695 -1687.835)" fill="#2e2d57"/>
        <path id="Trazado_97230" data-name="Trazado 97230" d="M1898.15,1707.828l1.2-.316,1.222.533-.517,2.633-1.72-.155Z" transform="translate(-1857.37 -1669.11)" fill="#2e2d57"/>
        <g id="Grupo_46753" data-name="Grupo 46753" transform="translate(23.394 33.735)">
          <path id="Trazado_97231" data-name="Trazado 97231" d="M1783.369,1673.094l-.823,26.819-3.55,17.27s-5.614-.566-9.063-3.848l4.42-13,1.511-27.168Z" transform="translate(-1769.933 -1673.094)" fill="#060f17"/>
          <path id="Trazado_97232" data-name="Trazado 97232" d="M1837.752,1673.094l-.819,26.459-4.086-20.278Z" transform="translate(-1824.316 -1673.094)" fill="#122739"/>
        </g>
        <g id="Grupo_46754" data-name="Grupo 46754" transform="translate(40.967 35.45)">
          <path id="Trazado_97233" data-name="Trazado 97233" d="M1906.815,1685.745l-7.29,43.479s9.674,1.188,13.652-1.428l-2.158-14.292,2.638-24.265Z" transform="translate(-1899.525 -1685.745)" fill="#060f17"/>
          <path id="Trazado_97234" data-name="Trazado 97234" d="M1926.127,1685.745l-4.26,25.484L1929.5,1692Z" transform="translate(-1918.837 -1685.745)" fill="#122739"/>
        </g>
        <path id="Trazado_97235" data-name="Trazado 97235" d="M1597.5,1434.2c.388,1.356.5,2.819,2.224,3.551,0,0-.254,4.5-.064,8.2,0,0,4.164-4.7,4.163-4.7a24.751,24.751,0,0,1-.2-5.9c.059-.415.141-.828.206-1.244a4.66,4.66,0,0,0-.139-3.261c-2.376-4.707-1.576-6.257-1.9-6.486-.532-.234-1.782.713-1.075,3.026a8.456,8.456,0,0,1,.515,3.337s-1.8-.339-2.434.289C1598.5,1431.29,1597.046,1432.613,1597.5,1434.2Z" transform="translate(-1597.412 -1424.318)" fill="#e49963"/>
        <path id="Trazado_97236" data-name="Trazado 97236" d="M1605.179,1536.5a15.986,15.986,0,0,1,5.592-1.173c4.461,13.3,7.641,18.305,6.315,22.122-1.106,3.182-4.6,2.928-6.315.543C1608.513,1554.845,1606.516,1542.895,1605.179,1536.5Z" transform="translate(-1604.126 -1520.272)" fill="#060f17"/>
        <path id="Trazado_97237" data-name="Trazado 97237" d="M1986.917,1711.508l14.056,21.99,16.694,9.426-5.146,5.123-16.748-7.341-11.495-16.219Z" transform="translate(-1931.819 -1672.564)" fill="#060f17"/>
        <path id="Trazado_97238" data-name="Trazado 97238" d="M1867.366,1676.575a11.56,11.56,0,0,1-3.969,2.622l-2.248-5.945,1.144-1.53Z" transform="translate(-1825.386 -1638.174)" fill="#fff"/>
        <path id="Trazado_97239" data-name="Trazado 97239" d="M1907,1682.824a9.957,9.957,0,0,0,3.439,3.286l3.271-5.432-.854-1.727Z" transform="translate(-1865.016 -1644.422)" fill="#fff"/>
      </g>
      <g id="с" transform="translate(73.6 93.976)">
        <path id="с-2" data-name="с" d="M1204.191,2124.371H1081.462c-2.884,0-5.223-1.574-5.223-3.515h0c0-1.941,2.339-3.515,5.223-3.515h122.729c2.885,0,5.223,1.574,5.223,3.515h0C1209.414,2122.8,1207.076,2124.371,1204.191,2124.371Z" transform="translate(-1076.239 -2117.342)" fill="url(#linear-gradient-2)"/>
        <g id="Grupo_46756" data-name="Grupo 46756" transform="translate(49.562 4.333)">
          <path id="Trazado_97240" data-name="Trazado 97240" d="M1443.392,2201.517h0a1.656,1.656,0,0,1-1.387-2.562l32.4-49.659,2.774,1.811-32.4,49.659A1.656,1.656,0,0,1,1443.392,2201.517Z" transform="translate(-1441.733 -2149.296)" fill="url(#linear-gradient-2)"/>
        </g>
        <g id="Grupo_46757" data-name="Grupo 46757" transform="translate(48.162 4.333)">
          <path id="Trazado_97241" data-name="Trazado 97241" d="M1465.2,2201.517h0a1.656,1.656,0,0,0,1.387-2.562l-32.4-49.659-2.774,1.811,32.4,49.659A1.657,1.657,0,0,0,1465.2,2201.517Z" transform="translate(-1431.413 -2149.296)" fill="url(#linear-gradient-2)"/>
        </g>
      </g>
      <g id="с-3" data-name="с" transform="translate(200.539 74.542)">
        <path id="с-4" data-name="с" d="M2045.738,2339.3h0a1.586,1.586,0,0,1-1.586-1.587V2309.6h3.173v28.108A1.587,1.587,0,0,1,2045.738,2339.3Z" transform="translate(-2039.84 -2264.101)" fill="url(#linear-gradient-2)"/>
        <path id="с-5" data-name="с" d="M2127.831,2339.3h0a1.586,1.586,0,0,1-1.586-1.587V2309.6h3.173v28.108A1.587,1.587,0,0,1,2127.831,2339.3Z" transform="translate(-2110.801 -2264.101)" fill="url(#linear-gradient-2)"/>
        <path id="с-6" data-name="с" d="M2235.554,2339.3h0a1.586,1.586,0,0,1-1.586-1.587V2309.6h3.173v28.108A1.587,1.587,0,0,1,2235.554,2339.3Z" transform="translate(-2203.915 -2264.101)" fill="url(#linear-gradient-2)"/>
        <path id="с-7" data-name="с" d="M2317.648,2339.3h0a1.587,1.587,0,0,1-1.587-1.587V2309.6h3.173v28.108A1.586,1.586,0,0,1,2317.648,2339.3Z" transform="translate(-2274.877 -2264.101)" fill="url(#linear-gradient-2)"/>
        <path id="с-8" data-name="с" d="M2037.566,1977.821v33.449a.689.689,0,0,1-.689.689h-20.74a3.789,3.789,0,0,0-3.789,3.788h0a3.788,3.788,0,0,0,3.789,3.789h25.217a3.788,3.788,0,0,0,3.789-3.789v-37.927a3.789,3.789,0,0,0-3.789-3.789h0A3.789,3.789,0,0,0,2037.566,1977.821Z" transform="translate(-2012.349 -1974.032)" fill="#344966"/>
        <rect id="с-9" data-name="с" width="16.397" height="38.542" transform="translate(29.006 0)" fill="#344966"/>
        <path id="с-10" data-name="с" d="M2158.488,1977.821v33.449a.69.69,0,0,1-.689.689h-20.74a3.788,3.788,0,0,0-3.789,3.788h0a3.788,3.788,0,0,0,3.789,3.789h25.218a3.788,3.788,0,0,0,3.789-3.789v-37.927a3.789,3.789,0,0,0-3.789-3.789h0A3.789,3.789,0,0,0,2158.488,1977.821Z" transform="translate(-2116.873 -1974.032)" fill="url(#linear-gradient-2)"/>
      </g>
      <g id="с-11" data-name="с" transform="translate(29.092 74.542)">
        <path id="с-12" data-name="с" d="M1057.159,2339.3h0a1.586,1.586,0,0,0,1.586-1.587V2309.6h-3.173v28.108A1.587,1.587,0,0,0,1057.159,2339.3Z" transform="translate(-1013.867 -2264.101)" fill="url(#linear-gradient-2)"/>
        <path id="с-13" data-name="с" d="M975.065,2339.3h0a1.587,1.587,0,0,0,1.586-1.587V2309.6h-3.173v28.108A1.587,1.587,0,0,0,975.065,2339.3Z" transform="translate(-942.904 -2264.101)" fill="url(#linear-gradient-2)"/>
        <path id="с-14" data-name="с" d="M867.344,2339.3h0a1.587,1.587,0,0,0,1.586-1.587V2309.6h-3.173v28.108A1.587,1.587,0,0,0,867.344,2339.3Z" transform="translate(-849.79 -2264.101)" fill="url(#linear-gradient-2)"/>
        <path id="с-15" data-name="с" d="M785.249,2339.3h0a1.587,1.587,0,0,0,1.586-1.587V2309.6h-3.173v28.108A1.587,1.587,0,0,0,785.249,2339.3Z" transform="translate(-778.828 -2264.101)" fill="url(#linear-gradient-2)"/>
        <path id="с-16" data-name="с" d="M876.507,1977.821v33.449a.689.689,0,0,0,.689.689h20.739a3.789,3.789,0,0,1,3.789,3.788h0a3.788,3.788,0,0,1-3.789,3.789H872.719a3.788,3.788,0,0,1-3.789-3.789v-37.927a3.789,3.789,0,0,1,3.789-3.789h0A3.789,3.789,0,0,1,876.507,1977.821Z" transform="translate(-852.533 -1974.032)" fill="#344966"/>
        <rect id="с-17" data-name="с" width="16.397" height="38.542" transform="translate(20.186 38.542) rotate(180)" fill="#344966"/>
        <path id="с-18" data-name="с" d="M755.586,1977.821v33.449a.689.689,0,0,0,.689.689h20.739a3.789,3.789,0,0,1,3.789,3.788h0a3.788,3.788,0,0,1-3.789,3.789H751.8a3.788,3.788,0,0,1-3.789-3.789v-37.927a3.789,3.789,0,0,1,3.789-3.789h0A3.789,3.789,0,0,1,755.586,1977.821Z" transform="translate(-748.009 -1974.032)" fill="url(#linear-gradient-2)"/>
      </g>
      <g id="Grupo_46762" data-name="Grupo 46762" transform="translate(153.534 37.598)">
        <path id="Trazado_97242" data-name="Trazado 97242" d="M2094.671,1729.537c-3.5-1.262-8.9-4.022-5.312-9.065s3.5-2.842,2.207-8.968,3.063-10.945,7.216-9.726,5.212,4.58,10.3,3.729,9.321,3.91,7.405,8.039-2.734,6.116-.943,8.4,9.864,4.747,6.5,10.222-4.91,5.138-3.74,7.945-1.528,6-6.208,5.565-8.917-2.206-10.633-7.431S2094.671,1729.537,2094.671,1729.537Z" transform="translate(-2030.888 -1701.588)" fill="#3c4973"/>
        <path id="Trazado_97243" data-name="Trazado 97243" d="M2011.861,2461.047l-2.765.826-2.082-2.128a10.287,10.287,0,0,0-.318-3.094l5.165-.857A44.729,44.729,0,0,1,2011.861,2461.047Z" transform="translate(-1960.457 -2353.522)" fill="#e49963"/>
        <path id="Trazado_97244" data-name="Trazado 97244" d="M1952.607,2484.73a2.83,2.83,0,0,0-2.062-1.917c-2.732,3.643-9.44,1.408-9.218,6.336,10.2-.063,14.44,0,14.44,0a34.988,34.988,0,0,0-.45-4.87l-.531.094Z" transform="translate(-1903.948 -2376.877)" fill="#aaa5a5"/>
        <path id="Trazado_97245" data-name="Trazado 97245" d="M1880.267,2463.743l-2.879.2-1.656-1.764a16.808,16.808,0,0,0,.463-3.859l4.853.216A44.727,44.727,0,0,1,1880.267,2463.743Z" transform="translate(-1847.253 -2355.704)" fill="#e49963"/>
        <path id="Trazado_97246" data-name="Trazado 97246" d="M1818.308,2484.73a2.831,2.831,0,0,0-2.063-1.917c-2.731,3.643-9.439,1.408-9.218,6.336,10.2-.063,14.44,0,14.44,0a34.951,34.951,0,0,0-.45-4.87l-.532.094Z" transform="translate(-1787.86 -2376.877)" fill="#aaa5a5"/>
        <path id="Trazado_97247" data-name="Trazado 97247" d="M1909.382,2141.929c-7.859,1.058-30,9.262-31.233,10.747-2.549,3.066-1.205,19.75-2.416,33.516l6.435.38c3.083-11.211,2.837-16.049,4.231-28.908,0,0,25.294,1.895,34.434-4.274C1930.256,2147.027,1915.737,2140.422,1909.382,2141.929Z" transform="translate(-1847.253 -2082.03)" fill="#213755"/>
        <path id="Trazado_97248" data-name="Trazado 97248" d="M1934.129,2022.791c1.857.317,2.573,1.807,3.021,4.551-7.076,4.169-17.588,4.466-17.588,4.466l-3.35-1.657S1924.64,2027.115,1934.129,2022.791Z" transform="translate(-1882.242 -1979.235)" fill="#d68d5d"/>
        <path id="Trazado_97249" data-name="Trazado 97249" d="M2067.99,1910.634c-3.1,4.5-14.959,14.177-16.923,14.481l-2.379-6.658s11.582-12.536,13.69-14.751C2066.021,1899.861,2073.06,1903.3,2067.99,1910.634Z" transform="translate(-1996.755 -1874.922)" fill="#d68d5d"/>
        <path id="Trazado_97250" data-name="Trazado 97250" d="M2094.825,1906.678c2.483-2.676,5.717-8.715,9.926-8.286s4.512,4.9,3.243,7.3-5.649,8.331-5.649,8.331Z" transform="translate(-2036.636 -1871.686)" fill="#9b9393"/>
        <path id="Trazado_97251" data-name="Trazado 97251" d="M1959.555,2043.109c1.784.615,2.8,6.234,2.3,6.664-7.648,3.029-23.559-.247-23.559-.247l-.845-2.881A125.363,125.363,0,0,0,1959.555,2043.109Z" transform="translate(-1900.603 -1996.798)" fill="#e49963"/>
        <path id="Trazado_97252" data-name="Trazado 97252" d="M2131.021,1927.214c-1.749-9.022-2.5-12.22-3.229-16.466-1.8-10.494,3.483-17.87-5.566-22.9l-6.6,1.063c-5.334,5.611-8.617,10.7-8.9,14.222-.387,4.538,4.116,7,4.116,7l-1.812,12.356s-.426,1.009,7.011,2.414S2131.021,1927.214,2131.021,1927.214Z" transform="translate(-2046.908 -1862.592)" fill="#aaa5a5"/>
        <path id="Trazado_97253" data-name="Trazado 97253" d="M2120.188,1919.445c-3.1,4.552-16.328,16.119-18.317,16.222l-1.423-6.9s12.021-14.087,14.129-16.328C2118.219,1908.548,2125.258,1912.023,2120.188,1919.445Z" transform="translate(-2041.497 -1882.454)" fill="#e49963"/>
        <path id="Trazado_97254" data-name="Trazado 97254" d="M2152.735,1916.245c2.31-3.362,6.971-9.565,11.18-9.136s4.512,4.9,3.244,7.3-5.649,8.331-5.649,8.331Z" transform="translate(-2086.693 -1879.221)" fill="#9b9393"/>
        <path id="Trazado_97255" data-name="Trazado 97255" d="M1874.653,2064.41c-2.433-.6-7.722-2.375-9.852,3.2.535,1.022,2.493-1.5,3.334-1.736,1.335-.371,2.481.331,3.491,1.3,1.449,1.385,3.872.125,3.872.125Z" transform="translate(-1837.804 -2014.564)" fill="#e49963"/>
        <g id="Grupo_46758" data-name="Grupo 46758" transform="translate(0 32.898)">
          <path id="Trazado_97256" data-name="Trazado 97256" d="M1777.821,2097.348h-22.853v-3.068h25.921A3.069,3.069,0,0,1,1777.821,2097.348Z" transform="translate(-1742.864 -2073.928)" fill="#3c4973"/>
          <path id="Trazado_97257" data-name="Trazado 97257" d="M1666.061,1948.339l11.751,19.276,2.716-1.427-13.178-21.993h0A3.068,3.068,0,0,0,1666.061,1948.339Z" transform="translate(-1665.708 -1944.195)" fill="#3c4973"/>
        </g>
        <path id="Trazado_97258" data-name="Trazado 97258" d="M2157.339,1759.867c-1.111,4.641-4.967,7.7-8.612,6.823s-5.7-5.343-4.588-9.983,4.967-7.7,8.611-6.823S2158.451,1755.226,2157.339,1759.867Z" transform="translate(-2079.002 -1743.206)" fill="#e49963"/>
        <path id="Trazado_97259" data-name="Trazado 97259" d="M2186.063,1842.481l-6.058,3.755s-.537,2.677-.806,3.546c-.554,1.792,1.568,2.576,3.361,1.46a5.249,5.249,0,0,0,2.25-2.608Z" transform="translate(-2109.491 -1823.375)" fill="#e49963"/>
        <path id="Trazado_97260" data-name="Trazado 97260" d="M2142.988,1747.642c1.722.148,5.451-.151,6.81-1.763.97,3.274,5.092,6.391,8.5,7.853.137-3.36.112-9.54-5.911-12.108C2147.657,1739.606,2142.988,1747.642,2142.988,1747.642Z" transform="translate(-2078.268 -1735.914)" fill="#3c4973"/>
        <path id="Trazado_97261" data-name="Trazado 97261" d="M2150.785,1804.129a.652.652,0,1,1-.293-.874A.652.652,0,0,1,2150.785,1804.129Z" transform="translate(-2083.938 -1789.409)"/>
        <path id="Trazado_97262" data-name="Trazado 97262" d="M2187.889,1812.948a.706.706,0,1,1-.317-.946A.705.705,0,0,1,2187.889,1812.948Z" transform="translate(-2115.924 -1796.965)"/>
        <g id="Grupo_46759" data-name="Grupo 46759" transform="translate(71.103 13.881)">
          <path id="Trazado_97263" data-name="Trazado 97263" d="M2191.7,1805.469a.243.243,0,0,1-.114-.116,1.869,1.869,0,0,0-1.318-.913.245.245,0,0,1,.069-.486,2.337,2.337,0,0,1,1.7,1.192.246.246,0,0,1-.121.326A.242.242,0,0,1,2191.7,1805.469Z" transform="translate(-2190.06 -1803.951)" fill="#2e2d57"/>
        </g>
        <g id="Grupo_46760" data-name="Grupo 46760" transform="translate(65.288 12.887)">
          <path id="Trazado_97264" data-name="Trazado 97264" d="M2147.309,1797.511a.251.251,0,0,1-.065-.047.246.246,0,0,1,0-.347,1.721,1.721,0,0,1,1.71-.419.245.245,0,0,1-.159.464,1.232,1.232,0,0,0-1.207.3A.245.245,0,0,1,2147.309,1797.511Z" transform="translate(-2147.173 -1796.623)" fill="#2e2d57"/>
        </g>
        <path id="Trazado_97265" data-name="Trazado 97265" d="M2154.541,1820.362a6.533,6.533,0,0,1-1.013.962.258.258,0,0,0-.085.344,3.554,3.554,0,0,0,1.575,1.1.069.069,0,0,0,.073-.115,3.362,3.362,0,0,1-.8-.936.306.306,0,0,1,0-.279c.1-.2.306-.614.443-.955A.116.116,0,0,0,2154.541,1820.362Z" transform="translate(-2087.275 -1804.224)" fill="#d68d5d"/>
        <path id="Trazado_97266" data-name="Trazado 97266" d="M2224.858,1821.5a1.7,1.7,0,1,0,2.624.065A1.875,1.875,0,0,0,2224.858,1821.5Z" transform="translate(-2148.275 -1804.806)" fill="#e49963"/>
        <g id="Grupo_46761" data-name="Grupo 46761" transform="translate(76.721 17.112)">
          <path id="Trazado_97267" data-name="Trazado 97267" d="M2231.852,1829.706a.241.241,0,0,1-.086-.072,1.11,1.11,0,0,1-.085-1.36,1.182,1.182,0,0,1,1.295-.445.246.246,0,1,1-.154.466.7.7,0,0,0-.743.265.628.628,0,0,0,.08.779.246.246,0,0,1-.306.367Z" transform="translate(-2231.486 -1827.777)" fill="#d68d5d"/>
        </g>
        <path id="Trazado_97268" data-name="Trazado 97268" d="M1985.29,2150.42c-7.859,1.058-30.032,8.245-31.266,9.729-2.549,3.066,3.126,16.2,4.941,33.1h7.586c-.079-12.044.883-23.124-2.823-27.051,0,0,21.253-1.418,31.848-1.418C2000.976,2164.78,2003.964,2146.53,1985.29,2150.42Z" transform="translate(-1914.367 -2089.087)" fill="#344966"/>
        <path id="Trazado_97269" data-name="Trazado 97269" d="M2159.05,1847.353a.2.2,0,0,1,.183-.318,14.2,14.2,0,0,0,3.763,0,.2.2,0,0,1,.183.318,2.494,2.494,0,0,1-4.13,0Z" transform="translate(-2092.117 -1827.311)" fill="#fff"/>
      </g>
      <g id="Grupo_46787" data-name="Grupo 46787" transform="translate(0 41.083)">
        <g id="Grupo_46763" data-name="Grupo 46763" transform="translate(50.879 27.275)">
          <path id="Trazado_97270" data-name="Trazado 97270" d="M1039.76,2047.431c-1.5,1-1.085,6.441-.519,6.718,7.8.954,20.985-5.512,20.985-5.512l.516-2.892A135.357,135.357,0,0,1,1039.76,2047.431Z" transform="translate(-1021.09 -2029.836)" fill="#e49963"/>
          <path id="Trazado_97271" data-name="Trazado 97271" d="M910.2,1936.582c2.79,4.461,15,16,16.9,16.168l1.614-6.54s-10.961-13.9-12.893-16.115C912.482,1926.246,905.631,1929.307,910.2,1936.582Z" transform="translate(-908.677 -1928.424)" fill="#e49963"/>
        </g>
        <path id="Trazado_97272" data-name="Trazado 97272" d="M796.972,1738.88c.335-4.567-.985-8.6-4.627-10.658-3.692-2.083-8.316-.04-8.316-.04h0s-3.914-1.393-7.462,2.515-.864,7.346-2.316,10.2c-.859,1.688-5.229,2.035-4.1,7.533.326,1.585,2.232,2.653,3.847,2.759,2.838.187,5.48-.91,6.63.187,3.79,3.615,12.19,2.307,13.365-1,.365-1.025,7.92.959,7.167-6.024C800.778,1740.81,796.672,1742.963,796.972,1738.88Z" transform="translate(-737.896 -1727.286)" fill="#3c4973"/>
        <g id="Grupo_46766" data-name="Grupo 46766" transform="translate(43.903 25.253)">
          <g id="Grupo_46765" data-name="Grupo 46765">
            <g id="Grupo_46764" data-name="Grupo 46764">
              <path id="Trazado_97273" data-name="Trazado 97273" d="M865.484,1914.62l-6-1.108-2.25,2.993,4.781,9.8,7.032-5.969Z" transform="translate(-857.235 -1913.513)" fill="#e49963"/>
            </g>
          </g>
        </g>
        <g id="Grupo_46769" data-name="Grupo 46769" transform="translate(36.684 25.245)">
          <g id="Grupo_46768" data-name="Grupo 46768">
            <g id="Grupo_46767" data-name="Grupo 46767">
              <path id="Trazado_97274" data-name="Trazado 97274" d="M827.239,1938.206c-.1-1.865,2.911-9.524,1.325-13.378-1.156-3.1-3.086-8.306-5.45-9.175-1.115-.41-2.261-.7-3.651-1.079,0,0,.784,3.907-.85,4.039-3.145.252-5.149-5.146-5.149-5.146-1.7-.162-9.473,2.393-9.469,3.032.018,5,4.082,12.3,5.411,17.708.523,5.841-1.515,12.83-1.522,13.495,0,0,12.511,3.517,19.927-.566C827.966,1946.567,827.38,1940.782,827.239,1938.206Z" transform="translate(-803.995 -1913.459)" fill="#c1507f"/>
            </g>
          </g>
        </g>
        <path id="Trazado_97275" data-name="Trazado 97275" d="M824.144,2121.723s-2.762,6.968-3.435,11.354,3.128,7.2,3.128,7.2h31.61s3.384-5.488,2.409-9.278-3.217-4.393-3.217-4.393Z" transform="translate(-781.69 -2068.237)" fill="#c1507f"/>
        <path id="Trazado_97276" data-name="Trazado 97276" d="M948.291,2156.017c-4.036-.569-15.749,3.981-20.743,13.865H941.52Z" transform="translate(-874.11 -2097.839)" fill="#d68d5d"/>
        <g id="Grupo_46770" data-name="Grupo 46770" transform="translate(69.755 58.012)">
          <path id="Trazado_97277" data-name="Trazado 97277" d="M1047.879,2158.9a11.209,11.209,0,0,0,1.412-2.009,3.486,3.486,0,0,1,5.62-.659c5.826,6.424,18.246,21.066,21.014,22.888.782.514,5.347,3.143,9.686,2.623,0,0,2.142.816.715,2.517-.734.876-11.762,1.78-11.762,1.78l-.86-3.238c-6.419-4.75-14.41-4.409-21.186-13.095A26.106,26.106,0,0,1,1047.879,2158.9Z" transform="translate(-1047.879 -2155.098)" fill="#d68d5d"/>
          <path id="Trazado_97278" data-name="Trazado 97278" d="M1237.973,2347.33l4.438,2.88.61-.727-3.6-3.357c2.045-1.613,6.78-.267,6.78-.267,1.551-1,4.575-4.252,4.887-5.993-.993-1.237-4.3,1.309-4.3,1.309a4.059,4.059,0,0,1-1.755,2.787,15.46,15.46,0,0,1-10.152-1.739S1232.425,2345.944,1237.973,2347.33Z" transform="translate(-1209.055 -2314.518)" fill="#c1507f"/>
        </g>
        <g id="Grupo_46771" data-name="Grupo 46771" transform="translate(67.285 62.622)">
          <path id="Trazado_97279" data-name="Trazado 97279" d="M1032.071,2189.157a2.089,2.089,0,0,0-1.528,1.724c-.316,2.242-1.948,6.781.26,11.536,5.421,11.671,8.622,19.362,9.19,22.374-1.416,2.652,4.23,9.9,4.315,10.371l4.064-1.272s-2.332-3.468-3.171-4.827c-2-3.234-2.326-7.2-2.651-10.28-1.387-13.134,1-21.427-8.505-29.132A2.22,2.22,0,0,0,1032.071,2189.157Z" transform="translate(-1029.666 -2189.091)" fill="#e49963"/>
          <path id="Trazado_97280" data-name="Trazado 97280" d="M1086.693,2457.92l.4,5.275.948.044.486-4.9c2.523.648,4.324,5.229,4.324,5.229,1.737.626,6.155,1.061,7.729.252.382-1.54-3.649-2.626-3.649-2.626a4.061,4.061,0,0,1-3.281.3,15.707,15.707,0,0,1-4.933-9.128S1084.43,2452.668,1086.693,2457.92Z" transform="translate(-1078.39 -2416.663)" fill="#c1507f"/>
        </g>
        <g id="Grupo_46774" data-name="Grupo 46774" transform="translate(45.765 20.731)">
          <g id="Grupo_46773" data-name="Grupo 46773">
            <g id="Grupo_46772" data-name="Grupo 46772">
              <path id="Trazado_97281" data-name="Trazado 97281" d="M875.834,1880.9l-4.871-.729.388,4.521s.932,2.049,2.014,2.187l3.985-1.079Z" transform="translate(-870.963 -1880.17)" fill="#e49963"/>
            </g>
          </g>
        </g>
        <g id="Grupo_46778" data-name="Grupo 46778" transform="translate(39.935 3.458)">
          <path id="Trazado_97282" data-name="Trazado 97282" d="M835.55,1764.251c1.258,5.252,5.621,8.708,9.745,7.721s6.449-6.046,5.192-11.3-5.621-8.709-9.745-7.721S834.293,1759,835.55,1764.251Z" transform="translate(-834.228 -1752.785)" fill="#e49963"/>
          <path id="Trazado_97283" data-name="Trazado 97283" d="M933.13,1814.34a.738.738,0,1,0,.331-.99A.737.737,0,0,0,933.13,1814.34Z" transform="translate(-918.804 -1805.071)"/>
          <path id="Trazado_97284" data-name="Trazado 97284" d="M890.366,1824.319a.8.8,0,1,0,.359-1.071A.8.8,0,0,0,890.366,1824.319Z" transform="translate(-881.833 -1813.62)"/>
          <g id="Grupo_46775" data-name="Grupo 46775" transform="translate(7.248 8.32)">
            <path id="Trazado_97285" data-name="Trazado 97285" d="M881.83,1815.855a.274.274,0,0,0,.128-.132,2.117,2.117,0,0,1,1.492-1.033.278.278,0,0,0-.078-.55,2.643,2.643,0,0,0-1.918,1.35.278.278,0,0,0,.376.365Z" transform="translate(-881.428 -1814.137)" fill="#2e2d57"/>
          </g>
          <g id="Grupo_46776" data-name="Grupo 46776" transform="translate(13.884 7.195)">
            <path id="Trazado_97286" data-name="Trazado 97286" d="M932.414,1806.849a.278.278,0,0,0,.071-.446,1.949,1.949,0,0,0-1.935-.475.278.278,0,0,0,.18.526,1.392,1.392,0,0,1,1.365.344A.277.277,0,0,0,932.414,1806.849Z" transform="translate(-930.364 -1805.844)" fill="#2e2d57"/>
          </g>
          <path id="Trazado_97287" data-name="Trazado 97287" d="M925.99,1832.708a7.4,7.4,0,0,0,1.146,1.089.293.293,0,0,1,.1.389,4.009,4.009,0,0,1-1.782,1.246.078.078,0,0,1-.082-.13,3.785,3.785,0,0,0,.908-1.059.348.348,0,0,0,0-.316c-.116-.229-.346-.695-.5-1.08A.131.131,0,0,1,925.99,1832.708Z" transform="translate(-912.138 -1821.835)" fill="#d68d5d"/>
          <path id="Trazado_97288" data-name="Trazado 97288" d="M831.283,1833.991a1.919,1.919,0,1,1-2.97.073A2.122,2.122,0,0,1,831.283,1833.991Z" transform="translate(-827.976 -1822.492)" fill="#e49963"/>
          <g id="Grupo_46777" data-name="Grupo 46777" transform="translate(1.275 11.976)">
            <path id="Trazado_97289" data-name="Trazado 97289" d="M838.838,1843.282a.277.277,0,0,0,.1-.082,1.256,1.256,0,0,0,.1-1.539,1.338,1.338,0,0,0-1.466-.5.278.278,0,1,0,.174.528.792.792,0,0,1,.841.3.711.711,0,0,1-.089.881.278.278,0,0,0,.346.416Z" transform="translate(-837.376 -1841.099)" fill="#d68d5d"/>
          </g>
          <path id="Trazado_97290" data-name="Trazado 97290" d="M896.216,1861.589a.221.221,0,0,1,.2-.353,15.735,15.735,0,0,0,4.169,0,.221.221,0,0,1,.2.353,2.763,2.763,0,0,1-4.575,0Z" transform="translate(-886.924 -1846.528)" fill="#fff"/>
        </g>
        <path id="Trazado_97291" data-name="Trazado 97291" d="M832.271,1757.419c4.923-.659,11.812-5.676,12.377-8.25-.953-3.092-6.026-4.646-8.891-3.214S830.186,1753.528,832.271,1757.419Z" transform="translate(-791.115 -1742.959)" fill="#3c4973"/>
        <path id="Trazado_97292" data-name="Trazado 97292" d="M1171.135,1944.549h0a1.248,1.248,0,0,1-.8-1.574l7.6-23.279a1.248,1.248,0,0,1,1.574-.8h0a1.248,1.248,0,0,1,.8,1.574l-7.6,23.28A1.248,1.248,0,0,1,1171.135,1944.549Z" transform="translate(-1083.922 -1892.86)" fill="#fff"/>
        <path id="Trazado_97293" data-name="Trazado 97293" d="M1199.563,2016.706l1.548-4.743a6.414,6.414,0,0,1,0,5.319c-1.342,2.59-2.619,2.706-2.619,2.706Z" transform="translate(-1108.314 -1973.36)" fill="#e49963"/>
        <path id="Trazado_97294" data-name="Trazado 97294" d="M1185.058,2017.093c-.392-.921-1.314-3.224-.392-3.214s1.072,1.129,1.072,1.129Z" transform="translate(-1096.02 -1975.016)" fill="#e49963"/>
        <g id="Grupo_46786" data-name="Grupo 46786" transform="translate(0 21.13)">
          <g id="Grupo_46781" data-name="Grupo 46781" transform="translate(12.91 2.809)">
            <g id="Grupo_46780" data-name="Grupo 46780">
              <g id="Grupo_46779" data-name="Grupo 46779">
                <path id="Trazado_97295" data-name="Trazado 97295" d="M628.678,1908.1a3.452,3.452,0,0,0,.719-4.271c1.147-.246,7.2,8.919,9.806,14.743,4.551-4.586,12.569-10.78,14.737-11.141,0,0,2.925-.786,3.976,2.75.938,3.156-2.721,5.393-2.721,5.393s-15.651,11.05-17.966,10.067C633.628,1924.111,630.368,1910.959,628.678,1908.1Z" transform="translate(-628.678 -1903.821)" fill="#e49963"/>
              </g>
            </g>
          </g>
          <g id="Grupo_46785" data-name="Grupo 46785">
            <g id="Grupo_46784" data-name="Grupo 46784">
              <g id="Grupo_46783" data-name="Grupo 46783">
                <g id="Grupo_46782" data-name="Grupo 46782">
                  <path id="Trazado_97296" data-name="Trazado 97296" d="M543.114,1889.931c1.277.078,2.856-.553,3.349.592l2.521-1.229.153-1.52c-2.166-3.47-7.445-4.455-7.968-4.5-1.358-.119-1.989-.259-2.095-.077s-.439,1.39,1.532,1.627c2.473.3.831,2.273-4.186.392-1.256-.471-3.62.141-2.765,1.058C534.6,1887.284,537.3,1889.577,543.114,1889.931Z" transform="translate(-533.472 -1883.108)" fill="#e49963"/>
                </g>
              </g>
            </g>
          </g>
        </g>
      </g>
    </g>
    <g id="Grupo_46790" data-name="Grupo 46790" transform="translate(432.034 798.768)">
      <path id="Trazado_97297" data-name="Trazado 97297" d="M1401.5,1412.273a7.833,7.833,0,0,1-.443,2.6c-1.446,4.15-6.271,7.2-12,7.2s-10.557-3.048-12-7.2a7.827,7.827,0,0,1-.443-2.6Z" transform="translate(-1342.583 -1344.225)" fill="#3c4973"/>
      <path id="Trazado_97298" data-name="Trazado 97298" d="M1401.5,1412.273a7.833,7.833,0,0,1-.443,2.6h-24.005a7.827,7.827,0,0,1-.443-2.6Z" transform="translate(-1342.583 -1344.225)" fill="#00223d"/>
      <path id="Trazado_97299" data-name="Trazado 97299" d="M1300.179,795.927a26.063,26.063,0,1,0-46.662,15.967,32.624,32.624,0,0,1,6.916,20v.128H1287.8v-.128a32.717,32.717,0,0,1,6.934-20.021A25.944,25.944,0,0,0,1300.179,795.927Z" transform="translate(-1227.644 -769.865)" fill="url(#linear-gradient-2)"/>
      <g id="Grupo_46789" data-name="Grupo 46789" transform="translate(34.398 19.123)">
        <path id="Trazado_97300" data-name="Trazado 97300" d="M1396.126,990.473a.666.666,0,0,1-.629-.886c.031-.088,3.1-8.943,5.337-17.96,3.959-15.982,1.922-18.58.862-18.955-3.115-1.1-5.6.528-7.127,2.091a13.289,13.289,0,0,0-1.288,1.543,25.246,25.246,0,0,1,1.768,3.765c1.38,3.687,1.747,7.131.981,9.212a3.27,3.27,0,0,1-3.536,2.293,3.777,3.777,0,0,1-3.372-2.668,12.512,12.512,0,0,1,.249-7.522,20.083,20.083,0,0,1,2.34-5.139,12.922,12.922,0,0,0-3.138-3.547c-1.715-1.25-3.326-1.3-4.788-.162-3.018,2.359-3.134,9.455-.334,20.521a146.661,146.661,0,0,0,5.357,16.5.666.666,0,0,1-1.236.5,148.019,148.019,0,0,1-5.41-16.657c-2.984-11.789-2.714-19.161.8-21.91,1.932-1.51,4.2-1.462,6.393.135a13.808,13.808,0,0,1,3.168,3.468,14.13,14.13,0,0,1,1.093-1.261c2.549-2.6,5.576-3.458,8.524-2.415,1.835.649,2.588,3.119,2.3,7.55a78.251,78.251,0,0,1-2.316,12.989c-2.248,9.075-5.339,17.981-5.37,18.07A.667.667,0,0,1,1396.126,990.473Zm-3.657-32.919a18.919,18.919,0,0,0-1.82,4.21,11.383,11.383,0,0,0-.28,6.675,2.465,2.465,0,0,0,2.225,1.809,1.94,1.94,0,0,0,2.185-1.424C1395.661,966.425,1394.589,961.523,1392.468,957.554Z" transform="translate(-1380.108 -950.391)" fill="#f5ca56"/>
      </g>
      <path id="Rectángulo_28256" data-name="Rectángulo 28256" d="M5.014,0H27.559a5.013,5.013,0,0,1,5.013,5.013v0a5.013,5.013,0,0,1-5.013,5.013H5.014A5.014,5.014,0,0,1,0,5.014v0A5.014,5.014,0,0,1,5.014,0Z" transform="translate(30.187 58.872)" fill="#3c4973"/>
      <path id="Trazado_97301" data-name="Trazado 97301" d="M1821.634,988.952h-8.522a2.2,2.2,0,0,1-2.2-2.2h0a2.2,2.2,0,0,1,2.2-2.2h8.522a2.2,2.2,0,0,1,2.2,2.2h0A2.2,2.2,0,0,1,1821.634,988.952Z" transform="translate(-1730.884 -961.818)" fill="#f5ca56"/>
      <path id="Trazado_97302" data-name="Trazado 97302" d="M1066.089,988.952h-8.521a2.2,2.2,0,0,1-2.2-2.2h0a2.2,2.2,0,0,1,2.2-2.2h8.521a2.2,2.2,0,0,1,2.2,2.2h0A2.2,2.2,0,0,1,1066.089,988.952Z" transform="translate(-1055.371 -961.818)" fill="#f5ca56"/>
      <path id="Trazado_97303" data-name="Trazado 97303" d="M1143.126,778.968l-6.781-5.16a2.2,2.2,0,0,1-.418-3.078h0a2.2,2.2,0,0,1,3.078-.418l6.781,5.16a2.2,2.2,0,0,1,.418,3.078h0A2.2,2.2,0,0,1,1143.126,778.968Z" transform="translate(-1126.993 -769.864)" fill="#f5ca56"/>
      <path id="Trazado_97304" data-name="Trazado 97304" d="M1746.658,778.968l6.781-5.16a2.2,2.2,0,0,0,.418-3.078h0a2.2,2.2,0,0,0-3.078-.418l-6.781,5.16a2.2,2.2,0,0,0-.418,3.078h0A2.2,2.2,0,0,0,1746.658,778.968Z" transform="translate(-1670.28 -769.864)" fill="#f5ca56"/>
      <path id="Trazado_97305" data-name="Trazado 97305" d="M1143.126,1176.7l-6.781,5.16a2.2,2.2,0,0,0-.418,3.078h0a2.2,2.2,0,0,0,3.078.418l6.781-5.16a2.2,2.2,0,0,0,.418-3.078h0A2.2,2.2,0,0,0,1143.126,1176.7Z" transform="translate(-1126.993 -1133.2)" fill="#f5ca56"/>
      <path id="Trazado_97306" data-name="Trazado 97306" d="M1746.658,1176.7l6.781,5.16a2.2,2.2,0,0,1,.418,3.078h0a2.2,2.2,0,0,1-3.078.418l-6.781-5.16a2.2,2.2,0,0,1-.418-3.078h0A2.2,2.2,0,0,1,1746.658,1176.7Z" transform="translate(-1670.28 -1133.2)" fill="#f5ca56"/>
    </g>
    <g id="Grupo_46794" data-name="Grupo 46794" transform="translate(467.52 939.771)">
      <g id="Grupo_46792" data-name="Grupo 46792" transform="translate(2.804 9.173)">
        <path id="Trazado_97307" data-name="Trazado 97307" d="M1381.195,2091.367v1.824h.5a.436.436,0,0,1,.437.437v.072a.436.436,0,0,1-.437.437h-21.164a.508.508,0,0,1-.508-.508V2091a.508.508,0,0,1,.508-.508h21.164a.436.436,0,0,1,.437.436h0a.436.436,0,0,1-.437.437Z" transform="translate(-1360.02 -2090.494)" fill="#f5ca56"/>
        <path id="Rectángulo_28257" data-name="Rectángulo 28257" d="M.912,0H18.881a0,0,0,0,1,0,0V1.824a0,0,0,0,1,0,0H.912A.912.912,0,0,1,0,.912v0A.912.912,0,0,1,.912,0Z" transform="translate(2.357 0.873)" fill="#fff"/>
      </g>
      <g id="Grupo_46793" data-name="Grupo 46793" transform="translate(0 5.143)">
        <path id="Trazado_97308" data-name="Trazado 97308" d="M1340.273,2061.735v2.018h-.5a.462.462,0,0,0-.436.483v.081a.461.461,0,0,0,.436.482h21.164a.537.537,0,0,0,.508-.562v-2.906a.537.537,0,0,0-.508-.562h-21.164a.461.461,0,0,0-.436.483h0a.461.461,0,0,0,.436.483Z" transform="translate(-1339.34 -2060.77)" fill="#b54273"/>
        <path id="Rectángulo_28258" data-name="Rectángulo 28258" d="M1.009,0H18.881a0,0,0,0,1,0,0V2.018a0,0,0,0,1,0,0H1.009A1.009,1.009,0,0,1,0,1.009v0A1.009,1.009,0,0,1,1.009,0Z" transform="translate(19.751 2.983) rotate(180)" fill="#fff"/>
      </g>
      <path id="Rectángulo_28259" data-name="Rectángulo 28259" d="M1.635,0H19.206a1.636,1.636,0,0,1,1.636,1.636v0a1.636,1.636,0,0,1-1.636,1.636H1.636A1.636,1.636,0,0,1,0,1.637v0A1.635,1.635,0,0,1,1.635,0Z" transform="translate(1.725 0)" fill="#f5ca56"/>
      <rect id="Rectángulo_28260" data-name="Rectángulo 28260" width="20.843" height="1.87" rx="0.935" transform="translate(3.087 3.272)" fill="#7d6eb2"/>
    </g>
  </g>
</svg>
