<svg xmlns="http://www.w3.org/2000/svg" width="337.823" height="178.098" viewBox="0 0 337.823 178.098"><g transform="translate(-1122.511 -658.144)"><g transform="translate(1363.469 769.83)" opacity="0.4"><g transform="translate(0 0)"><path d="M2770.723,1499.936l-1.154-.641a2.267,2.267,0,0,1-1.168-2.015c0-.094,0-.188,0-.282s0-.188,0-.282a2.267,2.267,0,0,1,1.168-2.015l1.154-.641a2.278,2.278,0,0,0,1.094-2.576c0-.011-.007-.024-.01-.034a2.274,2.274,0,0,0-2.232-1.683l-1.322.021a2.287,2.287,0,0,1-2.031-1.185c-.083-.146-.167-.291-.25-.434a2.291,2.291,0,0,1-.015-2.358l.677-1.126a2.275,2.275,0,0,0-.342-2.777l-.028-.028a2.274,2.274,0,0,0-2.777-.342l-1.126.677a2.291,2.291,0,0,1-2.358-.015l-.434-.25a2.288,2.288,0,0,1-1.186-2.031l.021-1.322a2.274,2.274,0,0,0-1.683-2.232c-.011,0-.023-.006-.034-.011a2.278,2.278,0,0,0-2.576,1.094l-.641,1.154a2.266,2.266,0,0,1-2.014,1.168c-.094,0-.188,0-.282,0s-.188,0-.282,0a2.267,2.267,0,0,1-2.014-1.168l-.641-1.154a2.278,2.278,0,0,0-2.576-1.094c-.01,0-.024.006-.034.011a2.274,2.274,0,0,0-1.683,2.232l.021,1.322a2.287,2.287,0,0,1-1.186,2.031l-.433.25a2.291,2.291,0,0,1-2.358.015l-1.126-.677a2.275,2.275,0,0,0-2.777.342l-.028.028a2.275,2.275,0,0,0-.342,2.777l.677,1.126a2.291,2.291,0,0,1-.015,2.358c-.083.143-.167.288-.25.434a2.288,2.288,0,0,1-2.031,1.185l-1.323-.021a2.274,2.274,0,0,0-2.232,1.683c0,.011-.006.024-.01.034a2.278,2.278,0,0,0,1.094,2.576l1.154.641a2.267,2.267,0,0,1,1.168,2.015c0,.094,0,.188,0,.282s0,.188,0,.282a2.267,2.267,0,0,1-1.168,2.015l-1.154.641a2.278,2.278,0,0,0-1.094,2.576c0,.011.007.024.01.034a2.274,2.274,0,0,0,2.232,1.683l1.323-.021a2.288,2.288,0,0,1,2.031,1.186c.083.145.167.29.25.434a2.29,2.29,0,0,1,.015,2.358l-.677,1.126a2.275,2.275,0,0,0,.342,2.777l.028.028a2.275,2.275,0,0,0,2.777.342l1.126-.677a2.291,2.291,0,0,1,2.358.015l.433.25a2.287,2.287,0,0,1,1.186,2.031l-.021,1.322a2.274,2.274,0,0,0,1.683,2.232c.01,0,.024.007.034.011a2.277,2.277,0,0,0,2.576-1.094l.641-1.153a2.267,2.267,0,0,1,2.014-1.169c.094,0,.188,0,.282,0s.188,0,.282,0a2.266,2.266,0,0,1,2.014,1.169l.641,1.153a2.277,2.277,0,0,0,2.576,1.094c.011,0,.023-.006.034-.011a2.274,2.274,0,0,0,1.683-2.232l-.021-1.322a2.289,2.289,0,0,1,1.186-2.031l.434-.25a2.291,2.291,0,0,1,2.358-.015l1.126.677a2.275,2.275,0,0,0,2.777-.342l.028-.028a2.275,2.275,0,0,0,.342-2.777l-.677-1.126a2.291,2.291,0,0,1,.015-2.358c.084-.143.167-.288.25-.434a2.287,2.287,0,0,1,2.031-1.186l1.322.021a2.274,2.274,0,0,0,2.232-1.683c0-.011.006-.024.01-.034A2.278,2.278,0,0,0,2770.723,1499.936Zm-19.551,9.88A12.817,12.817,0,1,1,2763.99,1497,12.816,12.816,0,0,1,2751.173,1509.816Z" transform="translate(-2730.452 -1476.278)" fill="#dee4f0"/><circle cx="5.786" cy="5.786" r="5.786" transform="translate(14.935 15.042)" fill="#dee4f0"/></g></g><path d="M2272.143,1497.34l-.673-.374a1.322,1.322,0,0,1-.682-1.176c0-.055,0-.11,0-.165s0-.11,0-.165a1.323,1.323,0,0,1,.682-1.176l.673-.374a1.329,1.329,0,0,0,.638-1.5c0-.006,0-.014-.006-.02a1.327,1.327,0,0,0-1.3-.983l-.772.013a1.337,1.337,0,0,1-1.186-.692c-.049-.085-.1-.17-.146-.253a1.337,1.337,0,0,1-.009-1.377l.4-.657a1.328,1.328,0,0,0-.2-1.621l-.016-.016a1.328,1.328,0,0,0-1.621-.2l-.657.4a1.337,1.337,0,0,1-1.377-.009l-.253-.146a1.336,1.336,0,0,1-.692-1.186l.012-.772a1.327,1.327,0,0,0-.982-1.3l-.02-.006a1.329,1.329,0,0,0-1.5.638l-.374.673a1.323,1.323,0,0,1-1.176.682l-.165,0-.165,0a1.323,1.323,0,0,1-1.176-.682l-.374-.673a1.33,1.33,0,0,0-1.5-.638l-.02.006a1.328,1.328,0,0,0-.983,1.3l.013.772a1.336,1.336,0,0,1-.692,1.186l-.253.146a1.337,1.337,0,0,1-1.377.009l-.657-.4a1.328,1.328,0,0,0-1.621.2l-.016.016a1.328,1.328,0,0,0-.2,1.621l.4.657a1.337,1.337,0,0,1-.009,1.377l-.146.253a1.336,1.336,0,0,1-1.186.692l-.772-.013a1.327,1.327,0,0,0-1.3.983c0,.006,0,.014-.006.02a1.329,1.329,0,0,0,.638,1.5l.673.374a1.323,1.323,0,0,1,.682,1.176c0,.055,0,.11,0,.165s0,.11,0,.165a1.323,1.323,0,0,1-.682,1.176l-.673.374a1.329,1.329,0,0,0-.638,1.5c0,.006,0,.014.006.02a1.327,1.327,0,0,0,1.3.983l.772-.012a1.335,1.335,0,0,1,1.186.692l.146.253a1.337,1.337,0,0,1,.009,1.377l-.4.657a1.328,1.328,0,0,0,.2,1.621l.016.016a1.328,1.328,0,0,0,1.621.2l.657-.4a1.337,1.337,0,0,1,1.377.009l.253.146a1.336,1.336,0,0,1,.692,1.186l-.013.772a1.327,1.327,0,0,0,.983,1.3l.02.006a1.33,1.33,0,0,0,1.5-.639l.374-.673a1.322,1.322,0,0,1,1.176-.682l.165,0,.165,0a1.323,1.323,0,0,1,1.176.682l.374.673a1.33,1.33,0,0,0,1.5.639l.02-.006a1.327,1.327,0,0,0,.982-1.3l-.012-.772a1.336,1.336,0,0,1,.692-1.186l.253-.146a1.337,1.337,0,0,1,1.377-.009l.657.4a1.328,1.328,0,0,0,1.621-.2l.016-.016a1.328,1.328,0,0,0,.2-1.621l-.4-.657a1.337,1.337,0,0,1,.009-1.377c.049-.083.1-.168.146-.253a1.336,1.336,0,0,1,1.186-.692l.772.012a1.327,1.327,0,0,0,1.3-.983c0-.006,0-.014.006-.02A1.329,1.329,0,0,0,2272.143,1497.34Zm-11.412,5.767a7.482,7.482,0,1,1,7.482-7.482A7.481,7.481,0,0,1,2260.73,1503.107Z" transform="translate(-957.369 -712.613)" fill="#dee4f0" opacity="0.4"/><path d="M1814.4,966.841l-173.883,3.209-4.084-3.209V865.312H1814.4l4.084,3.209Z" transform="translate(-436.904 -187.038)" fill="#00223d"/><path d="M1814.4,743.814l-173.883,3.209-4.084-3.209V730.977H1814.4l4.084,3.209Z" transform="translate(-436.904 -72.834)" fill="#00223d"/><rect width="177.968" height="101.529" transform="translate(1203.609 681.483)" fill="#efeaea"/><rect width="48.264" height="24.845" transform="translate(1210.247 691.789)" fill="#b2e5e0"/><g transform="translate(1312.711 752.975)"><rect width="50.567" height="2.018" transform="translate(7.842 0.634)" fill="#fff"/><rect width="50.567" height="2.018" transform="translate(7.842 8.649)" fill="#fff"/><rect width="50.567" height="2.018" transform="translate(7.842 16.753)" fill="#fff"/><path d="M2393.493,1367.086h-.115a1.643,1.643,0,0,1-1.643-1.643h0a1.643,1.643,0,0,1,1.643-1.643h.115a1.643,1.643,0,0,1,1.644,1.643h0A1.643,1.643,0,0,1,2393.493,1367.086Z" transform="translate(-2391.735 -1363.8)" fill="#fff"/><path d="M2393.493,1420.568h-.115a1.643,1.643,0,0,1-1.643-1.643h0a1.643,1.643,0,0,1,1.643-1.643h.115a1.643,1.643,0,0,1,1.644,1.643h0A1.643,1.643,0,0,1,2393.493,1420.568Z" transform="translate(-2391.735 -1409.267)" fill="#fff"/><path d="M2393.493,1474.822h-.115a1.643,1.643,0,0,1-1.643-1.643h0a1.643,1.643,0,0,1,1.643-1.643h.115a1.643,1.643,0,0,1,1.644,1.643h0A1.643,1.643,0,0,1,2393.493,1474.822Z" transform="translate(-2391.735 -1455.391)" fill="#fff"/></g><g transform="translate(1210.111 723.393)"><rect width="50.567" height="2.018" transform="translate(7.842 0.634)" fill="#fff"/><rect width="50.567" height="2.018" transform="translate(7.842 8.649)" fill="#fff"/><path d="M1708.836,1169.686h-.115a1.643,1.643,0,0,1-1.643-1.643h0a1.643,1.643,0,0,1,1.643-1.643h.115a1.643,1.643,0,0,1,1.643,1.643h0A1.643,1.643,0,0,1,1708.836,1169.686Z" transform="translate(-1707.077 -1166.399)" fill="#fff"/><rect width="3.402" height="3.287" rx="1.643" transform="translate(0 8.015)" fill="#fff"/></g><rect width="177.968" height="12.837" transform="translate(1203.609 661.352)" fill="#efeaea"/><g transform="translate(1210.141 665.158)"><g transform="translate(0 0)"><g transform="translate(14.972)"><circle cx="1.848" cy="1.848" r="1.848" transform="translate(0 2.613) rotate(-45)" fill="#67b4d2"/></g><g transform="translate(7.387)"><circle cx="1.848" cy="1.848" r="1.848" transform="translate(0 2.613) rotate(-45)" fill="#eb908b"/></g><g transform="translate(0 0.199)"><circle cx="1.848" cy="1.848" r="1.848" transform="translate(0 1.414) rotate(-22.5)" fill="#ffaa3f"/></g></g></g><g transform="translate(1304.349 691.913)"><rect width="84.927" height="50.46" rx="5" transform="translate(0 0)" fill="#b2e5e0"/><rect width="84.927" height="50.46" rx="5" transform="translate(2.618 2.392)" fill="#3fb8a9"/><g transform="translate(9.219 9.676)"><g transform="translate(25.993)"><rect width="2.354" height="36.113" fill="#fff"/></g><g transform="translate(20.795)"><rect width="2.354" height="36.113" fill="#fff"/></g><g transform="translate(15.596)"><rect width="2.354" height="36.113" fill="#fff"/></g><g transform="translate(10.397)"><rect width="2.354" height="36.113" fill="#fff"/></g><g transform="translate(5.199)"><rect width="2.354" height="36.113" fill="#fff"/></g><rect width="2.354" height="36.113" fill="#fff"/></g><g transform="translate(35.212 34.479)"><rect width="2.354" height="11.31" fill="#c6e0dd"/></g><g transform="translate(30.013 22.32)"><rect width="2.354" height="23.469" fill="#c6e0dd"/></g><g transform="translate(24.815 16.24)"><rect width="2.354" height="29.549" fill="#c6e0dd"/></g><g transform="translate(19.616 25.23)"><rect width="2.354" height="20.559" fill="#c6e0dd"/></g><g transform="translate(14.417 31.083)"><rect width="2.354" height="14.706" fill="#c6e0dd"/></g><g transform="translate(9.219 35.707)"><rect width="2.354" height="10.082" fill="#c6e0dd"/></g><circle cx="4.53" cy="4.53" r="4.53" transform="translate(45.97 17.574) rotate(-76.717)" fill="#fff"/><g transform="translate(60.404 9.789)"><rect width="20.117" height="1.3" fill="#fff"/><rect width="20.117" height="1.3" transform="translate(0 3.842)" fill="#fff"/><rect width="11.132" height="1.3" transform="translate(0 7.647)" fill="#fff"/></g><circle cx="4.53" cy="4.53" r="4.53" transform="translate(46.889 26.181)" fill="#fff"/><g transform="translate(60.404 26.294)"><rect width="20.117" height="1.3" fill="#fff"/><rect width="20.117" height="1.3" transform="translate(0 3.842)" fill="#fff"/><rect width="11.132" height="1.3" transform="translate(0 7.647)" fill="#fff"/></g></g><rect width="314.531" height="3.836" transform="translate(1145.803 832.405)" fill="#12263f"/><g transform="translate(1294.882 708.484)"><path d="M2280.682,1162.386s-4.688-5.754-7.16-6.478,1.918,3.069,1.748,3.751-2.643,2.813-1.108,4.518a7.531,7.531,0,0,0,4.347,1.961Z" transform="translate(-2272.765 -1142.493)" fill="#ffac95"/><path d="M2515.614,1156.386h-7.245l-.782-2.473-1.092-3.452,3.629-1.931,1.742-.926Z" transform="translate(-2471.469 -1135.512)" fill="#ffac95"/><path d="M2510.123,1153.782a11.81,11.81,0,0,1-2.537,5.383l-1.092-3.452Z" transform="translate(-2471.469 -1140.764)" fill="#e9928b"/><path d="M2632.213,1454.155l-.852.469a12.859,12.859,0,0,0-.938,3.495c0,1.236-.724,3.41-.255,3.58s1.662-2.77,1.833-3.324.639,2.046.81,2.77-.384,3.495,0,3.623,2.216-1.918,2.472-2.856.084-2.319.254-2.106.406,2.127.939,1.85c.23-.12-.171-2.387-.682-3.793s-1.151-4.219-1.151-4.219Z" transform="translate(-2576.474 -1395.69)" fill="#ffac95"/><path d="M2595.5,1254.315c-.938,1.023-3.923.427-3.923.427s-1.363-13.3-2.046-14.577c-.448-.841-2.593-4.705-4.007-7.252-.736-1.327-1.276-2.294-1.276-2.294s-.307-1.45-.585-3.345c-.568-3.846-1.021-9.526,1.427-8.656h0c2.879,1.028,7.2,9.828,9.282,15.4a26.453,26.453,0,0,1,1.125,3.593C2596.267,1241.444,2595.5,1254.315,2595.5,1254.315Z" transform="translate(-2536.691 -1195.808)" fill="#7d6eb2"/><path d="M2668.164,1756.116c-.481.34,1.217,5.846.616,6.511s-4.59,5.068-4.59,5.068a7.882,7.882,0,0,1-.082-3.953c.458-1.736.6-5.1-2.3-9.483a23.838,23.838,0,0,0-1.675-2.225l3.933-5.583a27.615,27.615,0,0,0,3.081,3.552,8.568,8.568,0,0,0,.793.647c1.736,1.227,5.948,6.337,5.948,6.337l-1.887,2.084S2668.647,1755.776,2668.164,1756.116Z" transform="translate(-2602.083 -1644.62)" fill="#7d6eb2"/><path d="M2358.095,1803.764c.256,2.109-.7,8.661-.7,8.661h-2.813s.191-4.7-.384-4.825-3.516,4.825-4.411,4.825h-6.841a7.9,7.9,0,0,1,2.877-2.716c1.642-.849,4.335-3.1,5.6-8.531.164-.7.3-1.46.415-2.273l6.777-.831s-.317,1.486-.476,3.1A12.606,12.606,0,0,0,2358.095,1803.764Z" transform="translate(-2332.427 -1688.505)" fill="#7d6eb2"/><path d="M2399.894,1798.905l6.777-.831s-.317,1.486-.476,3.1h-6.716C2399.643,1800.475,2399.783,1799.719,2399.894,1798.905Z" transform="translate(-2380.49 -1688.505)" fill="#e9928b"/><path d="M2667.146,1750l-5.34,4.255a23.838,23.838,0,0,0-1.675-2.225l3.933-5.583A27.615,27.615,0,0,0,2667.146,1750Z" transform="translate(-2602.083 -1644.62)" fill="#e9928b"/><path d="M2552.519,1436.5l-6.521,5.626s-4.677-4.89-9.3-10.089v0c-4.122-4.639-8.2-9.521-8.861-11.39a50.053,50.053,0,0,1-1.7-8.378c-.386-2.782-.6-5.048-.6-5.048l.322-6.887.828-17.663.364-.218,4.112-2.468H2534s.174.3.463.811c1.31,2.317,4.977,8.973,5.4,11.592.511,3.2-2.046,24.934-.767,26.212S2552.519,1436.5,2552.519,1436.5Z" transform="translate(-2487.659 -1333.064)" fill="#aaa5a5"/><path d="M2536.7,1508.2c-4.122-4.639-8.2-9.521-8.861-11.39-1.406-3.964-2.3-13.426-2.3-13.426l.322-6.887c3.744-3.588,7.281-6.922,7.281-6.922s2.3,12.275,0,16.878,2.439,5.281.511,10.613C2531.866,1502.005,2537.681,1501.739,2536.7,1508.2Z" transform="translate(-2487.659 -1409.23)" fill="#dbdada"/><path d="M2415.878,1412.262c-.445.8-.791,1.4-.982,1.729-1.279,2.174-10.485,30.048-10.485,30.048h-8.567s1.918-15.088,4.092-27.107c1.879-10.385,7.861-30.416,9.452-35.667.253-.826.394-1.286.394-1.286h11.125s.309.775.726,2.046a44.669,44.669,0,0,1,2.087,9.59C2424.153,1396.614,2418.4,1407.71,2415.878,1412.262Z" transform="translate(-2377.4 -1333.064)" fill="#aaa5a5"/><path d="M2386.567,1821.4" transform="translate(-2369.513 -1708.333)" fill="none" stroke="#040707" stroke-miterlimit="10" stroke-width="1"/><path d="M2501.038,1380.79a6.88,6.88,0,0,1-2.572,1.235,16.346,16.346,0,0,1-4.839.422,36.47,36.47,0,0,1-7.406-1.181l.394-1.286h13.96S2500.749,1380.278,2501.038,1380.79Z" transform="translate(-2454.233 -1333.064)" fill="#dbdada"/><path d="M2352.026,1206.552a19.552,19.552,0,0,1-.729,4.158c-.084.264-.171.547-.258.847-1.089,3.688-2.491,9.81-2.491,9.81a11.145,11.145,0,0,1-3.337,1.049c-5.033.8-10.623-1.049-10.623-1.049s1.023-5.626-1.023-7.927a11.942,11.942,0,0,1-2.557-5.286s-8.608,3.324-10.74,2.9-12.871-12.191-12.871-12.958,2.729-3.751,2.729-3.751,10.57,9.462,10.909,9.462,10.572-6.306,13.567-7.927a30.232,30.232,0,0,1,7.7-2.3v0h.005c.606-.11.979-.166.979-.166s.241.082.64.233c1.46.555,5.043,2.015,6.682,3.621h0a3.25,3.25,0,0,1,.69.918C2352.044,1199.79,2352.287,1203.342,2352.026,1206.552Z" transform="translate(-2302.206 -1174.451)" fill="#7d6eb2"/><path d="M2486.5,1100.825s-1.6,10.366.767,11.1,5.242-2.594,5.242-2.594.831-3.964,0-6.585S2489.573,1102.615,2486.5,1100.825Z" transform="translate(-2454.025 -1095.743)" fill="#ffac95"/><path d="M2408.686,1454.194l-.759-.115c4.723-31.187,13.783-62.086,13.874-62.394l.736.217C2422.446,1392.21,2413.4,1423.06,2408.686,1454.194Z" transform="translate(-2387.672 -1343.016)" fill="#dbdada"/><path d="M2526.852,1453.156l-.1-.005c-.138-.008-3.4-.276-3.916-8.2l-.027-.409h7.853l-.011.394c-.007.26-.217,6.385-3.7,8.173Zm-3.224-7.848c.487,6.046,2.623,6.938,3.077,7.058,2.518-1.407,3.047-5.727,3.152-7.058Z" transform="translate(-2485.336 -1387.951)" fill="#dbdada"/><path d="M2479.161,1297.7c-5.033.8-10.623-1.049-10.623-1.049s1.023-5.626-1.023-7.928a11.939,11.939,0,0,1-2.557-5.286s4.619-2.642,4.278-.852-1.79,8.2,4.176,8.066C2478.645,1290.537,2475.619,1296.5,2479.161,1297.7Z" transform="translate(-2436.157 -1249.742)" fill="#64559b"/><path d="M2554.632,1213.6c-1.458-.954-3.685-.788-5.168-3.631a4.763,4.763,0,0,0-2.7-2.476,18.515,18.515,0,0,0-2.849-.634,8.387,8.387,0,0,1-5-2.644,9.64,9.64,0,0,1-1.874-9.7v0h0l1.619.066c1.46.555,5.043,2.015,6.682,3.621h0C2548.228,1199.232,2552.547,1208.031,2554.632,1213.6Z" transform="translate(-2496.948 -1175.394)" fill="#64559b"/><path d="M2529.538,1100.475c-2.637,5.286-13.242,7.194-16.1.928-3.325-7.288-5.434-5.5-10.933-5.115s-9.4-2.557-8.95-8.823c.445-6.214-3.831-6.877-5.03-12.5-.021-.089-.031-.141-.031-.141a3.6,3.6,0,0,0-2.547-2.578s-1.406-.959,0-3.2,10.421-4.092,12.531,1.854,1.918,8.951,8.695,8.631,11.188,2.238,11.636,8.567,10.868,2.238,11.316,9.526A5.526,5.526,0,0,1,2529.538,1100.475Z" transform="translate(-2453.471 -1066.912)" fill="#00223d"/></g><g transform="translate(1385.432 687.899)"><path d="M3138.151,1041.742l-1.682-4s-3.113-3.281-1.346-5.931,9.254-3.281,10.895,6.394a3.3,3.3,0,0,1,3.113,2.65c.463,2.566-1.851,4.248-2.566,6.141a4.691,4.691,0,0,1-2.313,2.566l-2.987.462Z" transform="translate(-3095.982 -1015.05)" fill="#0c1b3c"/><path d="M3263.622,1466.667a24.182,24.182,0,0,0-2.187,4.333c-.421,1.514-.8,1.977-.463,2.271s1.178-1.22,1.767-1.977.673,2.019.673,3.028-.485,2.818.062,2.86,1.957-2.314,2.462-3.281.278-7.235.278-7.235Z" transform="translate(-3203.324 -1386.176)" fill="#e9928b"/><path d="M3238.246,1842.935l-1.262.946s-.946,3.658-.5,5.079h14.954a8.957,8.957,0,0,0-4.417-3.012c-2.965-.931-3.849-1.246-4.291-2.066S3238.246,1842.935,3238.246,1842.935Z" transform="translate(-3182.512 -1706.058)" fill="#7dc4be"/><path d="M3029.71,1839.567l1.073,1.451s1.325,3.217.757,5.079h-12.493a3.9,3.9,0,0,1,2.271-3.013,37.081,37.081,0,0,0,3.912-2.066Z" transform="translate(-2997.762 -1703.195)" fill="#7dc4be"/><rect width="14.953" height="1.483" transform="translate(53.968 142.902)" fill="#fff"/><rect width="12.493" height="1.483" transform="translate(21.284 142.902)" fill="#fff"/><path d="M3241.609,1813.1h-5.743l-.4-2.683-.419-2.808,6.12-.882.256,3.69Z" transform="translate(-3181.394 -1675.278)" fill="#e9928b"/><path d="M3066.626,1813.469l-.378,2.68-.379,2.683h-5.552l.348-2.683.345-2.68Z" transform="translate(-3032.848 -1681.008)" fill="#e9928b"/><path d="M3062.984,1813.469h5.616l-.378,2.68h-5.583Z" transform="translate(-3034.822 -1681.008)" fill="#de6667"/><path d="M3241.422,1810.419h-5.956l-.419-2.808,6.12-.882Z" transform="translate(-3181.394 -1675.278)" fill="#de6667"/><path d="M3090.652,1484.286h-8.958s-6.94-24.734-7.7-28.269-3.365-11.313-3.365-11.313l-6.731,39.582H3056s-.332-19.054,0-25.366c.264-5.038,1.606-21.105,2.972-29.107a19.881,19.881,0,0,1,1.021-4.207c1.639-3.406,21.7,3.912,21.7,3.912s.138.777.376,2.125c.767,4.342,2.585,14.594,4.252,23.745C3088.506,1467.374,3090.652,1484.286,3090.652,1484.286Z" transform="translate(-3029.05 -1350.5)" fill="#00223d"/><path d="M3118.718,1497.8l-3.008-10.642s-3.092,5.889-2.208,10.642-2.705,6.5-.159,11.568-1.118,8.935,1.35,12.1Z" transform="translate(-3077.137 -1403.596)" fill="#011526"/><path d="M3099.766,1431.644a18.321,18.321,0,0,1-8.818-.471c-8.015-2.222-12.252-1.9-14.282-1.36a19.869,19.869,0,0,1,1.02-4.207c1.639-3.406,21.7,3.912,21.7,3.912S3099.528,1430.3,3099.766,1431.644Z" transform="translate(-3046.747 -1350.5)" fill="#011526"/><path d="M3022.626,1117.679s-.5-2.617.631-3.966,3.839.751,3.839.751,1.751,1.884.849,3.654S3022.626,1117.679,3022.626,1117.679Z" transform="translate(-3000.71 -1085.73)" fill="#e9928b"/><path d="M3047.575,1174.039c-1.1,6.37-2.9,13.459-2.675,16.612.419,5.89.673,8.076,1.01,9.171s-4.963,2.018-10.684,0a46.757,46.757,0,0,0-9.145-1.938c-3.1-.386-5.493-.5-5.493-.5s1.6-8.5,2.1-12.958a51.836,51.836,0,0,0-.031-9.59l-.008.008c-.245.189-6.5,4.974-9.725,1.874a4.559,4.559,0,0,1-1.079-1.826c-2.113-6.127,1.926-20.921,1.926-20.921l4.795.672s-.673,11.526-.251,11.61,4.964-4.038,7.15-5.636a12.01,12.01,0,0,1,5.462-1.657,25.055,25.055,0,0,1,4.969-.026,29.151,29.151,0,0,1,4.872.621,16.509,16.509,0,0,1,6.317,2.575C3048.962,1163.539,3048.535,1168.518,3047.575,1174.039Z" transform="translate(-2991.122 -1120.34)" fill="#7dc4be"/><path d="M3130.13,1297.43c.335,1.095-4.964,2.018-10.684,0a46.776,46.776,0,0,0-9.145-1.938c1.059-1.317,2.867-2.654,6.621-3.764,9.211-2.729.419-7.416,5.705-10.485s5.734-12.457,5.734-12.457l3.434,2.862c-1.1,6.37-2.9,13.459-2.675,16.612C3129.539,1294.149,3129.792,1296.336,3130.13,1297.43Z" transform="translate(-3075.342 -1217.949)" fill="#379690" opacity="0.65"/><path d="M3152.1,1187.086c-2.332,4.363-8.937,8.178-8.937,8.178a23.923,23.923,0,0,1-.9-8.774,25.043,25.043,0,0,1,4.969-.026A29.126,29.126,0,0,1,3152.1,1187.086Z" transform="translate(-3102.457 -1147.869)" fill="#fff"/><path d="M3222.88,1203.351c1.151-1.279,3.533-.168,6.478,4.122s5.468,13.8,5.973,17.078-.252,14.554-1.851,19.433l-4.3-.337s-1.087-16.152-1.255-17.246-3.617-9.759-5.048-14.47S3221.366,1205.034,3222.88,1203.351Z" transform="translate(-3170.111 -1161.895)" fill="#7dc4be"/><path d="M3156.235,1145.015c0,.632-.926,1.724-3.2,2.146s-5.048-1.22-4.207-2.314a4.9,4.9,0,0,0,.622-2.087,24.232,24.232,0,0,0,.179-3s4.92-4.585,4.879-2.23a2.561,2.561,0,0,0,1.724,2.777A11.467,11.467,0,0,0,3156.235,1145.015Z" transform="translate(-3107.967 -1105.788)" fill="#e9928b"/><path d="M3158.909,1137.527c-1.312,3.309-3.375,4.68-5.058,5.232a24.26,24.26,0,0,0,.179-3S3158.95,1135.172,3158.909,1137.527Z" transform="translate(-3112.365 -1105.788)" fill="#de6667"/><path d="M3004.019,1111.966l-8.762,11.279a.72.72,0,0,1-1.008.127,2.971,2.971,0,0,1-.524-4.17l7.38-9.5Z" transform="translate(-2975.703 -1082.704)" fill="#8fb9cf"/><path d="M3011.216,1117.557l-8.762,11.279a.716.716,0,0,1-.478.272,2.969,2.969,0,0,1,.215-3.329l7.38-9.5Z" transform="translate(-2982.9 -1088.296)" fill="#7a9db0"/><path d="M3073.672,1098.614c-1.288,1.659-2.687,2.728-3.123,2.389s.254-1.958,1.543-3.617,2.687-2.729,3.123-2.39S3074.96,1096.955,3073.672,1098.614Z" transform="translate(-3041.435 -1070.149)" fill="#8fb9cf"/><rect width="7.621" height="6.879" transform="matrix(0.613, -0.79, 0.79, 0.613, 23.681, 26.634)" fill="#8fb9cf"/><path d="M3064.178,1097.708l-3.175-2.466a.407.407,0,0,1-.072-.571h0a.407.407,0,0,1,.571-.072l3.175,2.466a.407.407,0,0,1,.072.571h0A.407.407,0,0,1,3064.178,1097.708Z" transform="translate(-3033.298 -1069.792)" fill="#7a9db0"/><path d="M3072.038,1085.86l-3.175-2.466a.407.407,0,0,1-.072-.571h0a.407.407,0,0,1,.571-.072l3.175,2.466a.407.407,0,0,1,.072.571h0A.407.407,0,0,1,3072.038,1085.86Z" transform="translate(-3039.98 -1059.719)" fill="#7a9db0"/><path d="M3054.772,1108.085l-3.175-2.466a.407.407,0,0,1-.072-.571h0a.407.407,0,0,1,.571-.072l3.175,2.466a.407.407,0,0,1,.072.571h0A.407.407,0,0,1,3054.772,1108.085Z" transform="translate(-3025.301 -1078.614)" fill="#7a9db0"/><path d="M2906.022,954.844l-.006.008c-.186.239-.374.465-.56.677-.215.243-.428.466-.635.667-.864.834-1.622,1.269-1.922,1.036l-.01.012-23.284-8.62,13.858-17.839,14.11,20.429-.009.012c.262.2.118.866-.317,1.723-.09.178-.194.366-.309.561s-.253.41-.4.622C2906.382,954.366,2906.208,954.6,2906.022,954.844Z" transform="translate(-2879.219 -930.599)" fill="#b2d3e4"/><path d="M2948.09,993.28l-.006.007-18.995-14.263,2.352-3.028,17.167,16.572C2948.449,992.8,2948.275,993.041,2948.09,993.28Z" transform="translate(-2921.285 -969.035)" fill="#fff" opacity="0.15"/><path d="M2921.949,1021.635c-.215.243-.427.466-.635.667l-22.308-11.261,3.476-2.5Z" transform="translate(-2895.711 -996.705)" fill="#fff" opacity="0.15"/><path d="M2967.283,974.52l-16.7-18.005,1.113-1.016,15.893,18.461C2967.5,974.138,2967.4,974.326,2967.283,974.52Z" transform="translate(-2939.562 -951.609)" fill="#fff" opacity="0.15"/><path d="M2886.677,940.472a39.4,39.4,0,0,1-3.24,3.693h0c-2.7,2.693-5.1,4.127-6.033,3.4-1.3-1.007.755-5.815,4.582-10.741s7.98-8.1,9.276-7.1c.931.723.135,3.407-1.807,6.688A39.07,39.07,0,0,1,2886.677,940.472Z" transform="translate(-2877.014 -929.543)" fill="#8fb9cf"/><path d="M2939.642,996.8a.384.384,0,0,1,.471-.606c.328.255,1.72-.211,4.06-2.545l.187-.187a29.6,29.6,0,0,0,2.234-2.571,29.056,29.056,0,0,0,2.074-3.029c1.683-2.844,1.79-4.309,1.462-4.563a.384.384,0,0,1,.471-.606c1.248.969-.474,4.211-1.272,5.559a31.42,31.42,0,0,1-4.613,5.939l-.242.236C2943.25,995.613,2940.807,997.706,2939.642,996.8Z" transform="translate(-2930.131 -974.662)" fill="#8fb9cf"/><path d="M2917.123,977.122a39.354,39.354,0,0,1-3.24,3.693h0a5.066,5.066,0,0,1,6.018-7.747A39.042,39.042,0,0,1,2917.123,977.122Z" transform="translate(-2907.459 -966.193)" fill="#12263f"/><path d="M2930.118,985.741c-.384.495-.967.685-1.3.425s-.294-.872.09-1.366.967-.685,1.3-.425S2930.5,985.246,2930.118,985.741Z" transform="translate(-2920.861 -976.059)" fill="#fff" opacity="0.15"/><path d="M3043.33,1126.863s-.166-3.545-1.208-4.748-1.917-.984-1.736,0,.975,2.712.2,4.351Z" transform="translate(-3015.883 -1092.558)" fill="#e9928b"/><path d="M3051.981,1801.285v3.484h8.823l.8-3.484Z" transform="translate(-3025.761 -1670.65)" fill="#011526"/><path d="M3219.634,1804.769h9.973l-.288-3.484h-10.74Z" transform="translate(-3167.394 -1670.65)" fill="#011526"/><path d="M3267.644,1852.9l-.242-.083c.011-.034.3-.832,2-1.457l.088.24C3267.919,1852.175,3267.647,1852.891,3267.644,1852.9Z" transform="translate(-3208.901 -1713.22)" fill="#fff"/><path d="M3280.431,1858.17l-.247-.065a2.524,2.524,0,0,1,1.762-1.678l.068.247A2.268,2.268,0,0,0,3280.431,1858.17Z" transform="translate(-3219.767 -1717.529)" fill="#fff"/><path d="M3296.018,1860.783l-.255-.023a2.279,2.279,0,0,1,.535-1.235l.185.176A2.051,2.051,0,0,0,3296.018,1860.783Z" transform="translate(-3233.011 -1720.163)" fill="#fff"/><path d="M3058.43,1851.757a7.534,7.534,0,0,0-2.6-.462l-.008-.256a7.66,7.66,0,0,1,2.7.48Z" transform="translate(-3029.028 -1712.947)" fill="#fff"/><path d="M3049.519,1856.8a7.985,7.985,0,0,0-2.441-.685l.016-.255a8.083,8.083,0,0,1,2.529.706Z" transform="translate(-3021.593 -1717.046)" fill="#fff"/><path d="M3040.176,1860.82a3.8,3.8,0,0,0-1.467-.52l.038-.253a3.935,3.935,0,0,1,1.6.582Z" transform="translate(-3014.478 -1720.607)" fill="#fff"/><path d="M3027.305,1249.229a29.593,29.593,0,0,0-1.176,6.59l-.008.008c-.246.189-6.5,4.974-9.725,1.875a4.562,4.562,0,0,1-1.079-1.826c1.782.246,3.3,2.122,5.414-.056C3024.006,1252.436,3027.305,1249.229,3027.305,1249.229Z" transform="translate(-2994.592 -1201.322)" fill="#379690" opacity="0.65"/><path d="M3136.776,1080.995s-3.491,9.59-.841,11.525,6.9-2.482,6.9-2.482a3.355,3.355,0,0,0,2.776-1.388c.968-1.472-.715-2.118-1.472-1.648s-1.64-.245-1.052-2.054.252-1.893-.883-1.641S3136.9,1081.5,3136.776,1080.995Z" transform="translate(-3096.29 -1058.299)" fill="#e9928b"/><path d="M3219.951,1521.81a369.209,369.209,0,0,0-9.932-49.107l.736-.216a369.98,369.98,0,0,1,9.957,49.221Z" transform="translate(-3160.116 -1391.124)" fill="#011526"/></g><g transform="translate(1122.511 683.49)"><path d="M1582.671,1037.6a33.306,33.306,0,0,1-1.194-5.252c0-1.273,1.167-4.854,1.817-4.934s1.923,6.924,2.48,7.879-.478,2.308-.478,2.308Z" transform="translate(-1512.699 -1008.334)" fill="#91415c"/><g transform="translate(0 107.762)"><g transform="translate(0.592)"><path d="M1168.922,1628.919l-4.231-4.661,1.623-1.664,3.284-3.366,4.05,4.461-3.164,3.5Z" transform="translate(-1158.963 -1619.228)" fill="#91415c"/><path d="M1179.693,1627.189l-4.171-4.594,3.284-3.366,4.05,4.461Z" transform="translate(-1168.171 -1619.228)" fill="#75354a"/><path d="M1134.545,1652.8l4.23,4.66s-.232,4.029,1.574,6.495,2.29,4.188,1.465,6.018l-12.583-13.861Z" transform="translate(-1128.816 -1647.765)" fill="#aaa5a5"/><path d="M1126.464,1677.4" transform="translate(-1126.464 -1668.686)" fill="#fff"/><path d="M1210.434,1769.9" transform="translate(-1197.851 -1747.321)" fill="#fff"/><path d="M1173.917,1685.963a13.937,13.937,0,0,0-3.3-1.353l.068-.247a13.883,13.883,0,0,1,3.383,1.392Z" transform="translate(-1164 -1674.602)" fill="#fff"/><path d="M1176.748,1700.687a7.344,7.344,0,0,0-2.995-.291l-.028-.254a7.472,7.472,0,0,1,3.123.31Z" transform="translate(-1166.643 -1687.978)" fill="#fff"/><path d="M1180.4,1711.914l-.093-.238a9.072,9.072,0,0,1,2.381-.553l.016.255A8.962,8.962,0,0,0,1180.4,1711.914Z" transform="translate(-1172.235 -1697.352)" fill="#fff"/></g><rect width="1.36" height="18.721" transform="translate(0 9.256) rotate(-42.234)" fill="#fff"/></g><path d="M1201.044,1302.373s-.079.437-.224,1.184c-.308,1.587-.917,4.584-1.7,7.795-1.01,4.128-2.311,8.612-3.648,10.916-1.547,2.667-7.914,8.292-13.439,12.9-4.7,3.918-8.791,7.1-8.791,7.1l-8.554-8.779s17.7-15.955,18.178-16.593,2.578-9.908,3.376-17.23a43.655,43.655,0,0,1,2.306-9.361,65.467,65.467,0,0,1,2.626-6.4l8.277,3.025.081.776.8,7.781Z" transform="translate(-1158.368 -1226.396)" fill="#00223d"/><path d="M1299.219,1375.572c-.308,1.588-.917,4.584-1.7,7.8-1.01,4.128-2.311,8.611-3.648,10.915-1.547,2.667-7.914,8.292-13.439,12.9,1.325-7.205,9.846-6.556,8.585-11.825-1.313-5.491,4.178-7.64,1.989-14.8s1.354-11.937,1.354-11.937S1295.571,1371.828,1299.219,1375.572Z" transform="translate(-1256.767 -1298.411)" fill="#011526"/><path d="M1454.739,1014.292a9.4,9.4,0,0,0-2.48,3.426,11.667,11.667,0,0,0-.912,3.259c-.6,4.536-8.476-.358-8.476-.358l3.82-8,3.13-1.671,2.438,1.657Z" transform="translate(-1394.863 -994.342)" fill="#91415c"/><path d="M1442.871,1056.438s.624-1.946,1.505-2.018,7.328.869,7.627,2.369a5.4,5.4,0,0,1,0,2.454Z" transform="translate(-1394.863 -1031.295)" fill="#dbdada"/><path d="M1574.3,1093.644l.637-2.945a17.459,17.459,0,0,0-4.059-.621c-1.114.144-2.149,3.566-2.149,3.566Z" transform="translate(-1501.863 -1061.597)" fill="#dbdada"/><path d="M1495.446,1148.034s4.125,1.108,12.844-6.724-7.233-4.736-7.233-4.736Z" transform="translate(-1439.56 -1100.628)" fill="#dbdada"/><rect width="26.572" height="0.767" transform="translate(44.357 119.626)" fill="#040707"/><path d="M1391.374,1669.17l-8.091-37.193-8.09,37.193-.75-.163,8.465-38.916a.383.383,0,0,1,.75,0l8.466,38.916Z" transform="translate(-1336.69 -1520.445)" fill="#040707"/><g transform="translate(47.471 119.703)"><g transform="translate(0)"><path d="M1450.646,1705.927h-6.295l-.141-2.32-.285-4.695h6.026l.464,4.695Z" transform="translate(-1443.231 -1698.912)" fill="#91415c"/><path d="M1450.416,1703.607h-6.205l-.285-4.695h6.026Z" transform="translate(-1443.231 -1698.912)" fill="#75354a"/><path d="M1440.412,1745.722h6.293s2.827,2.88,5.867,3.2,4.64,1.12,5.44,2.96h-18.721Z" transform="translate(-1439.292 -1738.707)" fill="#aaa5a5"/><path d="M1439.292,1790.568" transform="translate(-1439.292 -1776.833)" fill="#fff"/><path d="M1564.218,1790.568" transform="translate(-1545.497 -1776.833)" fill="#fff"/><path d="M1474.563,1753.535l-.137-.216a13.9,13.9,0,0,1,3.3-1.569l.053.25A13.954,13.954,0,0,0,1474.563,1753.535Z" transform="translate(-1469.161 -1743.832)" fill="#fff"/><path d="M1488.286,1759.242l-.207-.15a7.468,7.468,0,0,1,2.328-2.1l.108.232A7.347,7.347,0,0,0,1488.286,1759.242Z" transform="translate(-1480.768 -1748.286)" fill="#fff"/><path d="M1503.418,1763.832l-.239-.091a9.08,9.08,0,0,1,1.19-2.134l.2.16A8.984,8.984,0,0,0,1503.418,1763.832Z" transform="translate(-1493.605 -1752.212)" fill="#fff"/></g><rect width="18.721" height="1.36" transform="translate(0 13.175)" fill="#fff"/></g><path d="M1569.192,1669.17l-8.091-37.193-8.091,37.193-.75-.163,8.465-38.916a.384.384,0,0,1,.75,0l8.465,38.916Z" transform="translate(-1487.861 -1520.445)" fill="#040707"/><rect width="26.647" height="0.767" transform="translate(41.262 133.854)" fill="#040707"/><path d="M1375.414,1366.952h-12.892s.25-21.477.25-25.3c0-2.717-2.576-7.2-5.267-13.143a84.291,84.291,0,0,1-3.17-7.945,71.37,71.37,0,0,1-2.633-10.173,39.974,39.974,0,0,1-.709-6.3l6.926.776,10.106,1.134s1.108,3.916,2.483,8.967c2.192,8.072,5.059,19.047,5.157,21.592C1375.823,1340.7,1375.414,1366.952,1375.414,1366.952Z" transform="translate(-1316.754 -1243.556)" fill="#00223d"/><path d="M1347.483,1297.81c-2.8-1.177-5.673-2.306-8.53-2.163a17.112,17.112,0,0,1-3.256-.157,23.378,23.378,0,0,1-7.019-2.256,30.962,30.962,0,0,1-4.768-2.929,65.487,65.487,0,0,1,2.626-6.4l8.277,3.025.081.776,10.106,1.134S1346.107,1292.758,1347.483,1297.81Z" transform="translate(-1293.728 -1226.396)" fill="#011526"/><path d="M1381.711,1070.449s-10.744,10.5-13.847,11.221-14.563-2.984-16.474-2.865c-.864.055-2.686,6.126-4.414,12.759-2.094,8.015-4.061,16.846-4.061,16.846a50.767,50.767,0,0,0-14.086-2.745,19.959,19.959,0,0,1-3.49-.542c-6.071-1.521-8.327-5.427-8.327-5.427,8.595-12.3,8.714-23.039,10.5-29.724s8.953-7.162,14.325-5.491c2.38.74,7.52,1.671,9.908,2.507s14.683,5.611,15.518,5.611,10.982-5.73,10.982-5.73C1381.472,1066.868,1381.711,1070.449,1381.711,1070.449Z" transform="translate(-1287.864 -1039.158)" fill="#aaa5a5"/><path d="M1726.986,1066.376a17.121,17.121,0,0,1,3.82-2.544c1.751-.716,4.138-2.186,4.138-1.411s-2.149,1.868-2.149,1.868l6.546-.595s-2.885,2.924-5.193,3.481-5.252,1.591-5.252,1.591Z" transform="translate(-1636.402 -1037.913)" fill="#91415c"/><rect width="39.549" height="22.919" transform="translate(70.126 5.518) rotate(-4.767)" fill="#8ec8c8"/><rect width="34.774" height="18.145" transform="translate(72.703 7.699) rotate(-4.767)" fill="#fff"/><path d="M1642.264,990.7l6.74-14.3,9.016,12.988Z" transform="translate(-1564.377 -964.97)" fill="#8ec8c8"/><path d="M1742.627,1000.9l5.213-11.062,6.974,10.046Z" transform="translate(-1649.7 -976.391)" fill="#8ec8c8"/><path d="M1722.424,957.282a2.352,2.352,0,1,1-2.54-2.149A2.352,2.352,0,0,1,1722.424,957.282Z" transform="translate(-1628.531 -946.883)" fill="#8ec8c8"/><path d="M1432.518,1403.318h-.767c0-.23.03-23.063-.1-28.565-.131-5.433-9.606-27.469-9.7-27.691l.7-.3c.393.912,9.629,22.4,9.764,27.977C1432.547,1380.245,1432.518,1403.088,1432.518,1403.318Z" transform="translate(-1377.075 -1279.827)" fill="#011526"/><path d="M1394.218,1249.83c-2.094,8.015-4.061,16.846-4.061,16.846a50.773,50.773,0,0,0-14.086-2.745,19.944,19.944,0,0,1-3.49-.542,8,8,0,0,1,.654-.652c7.191-6.446,9.879-2.149,13.4-6.8C1389.262,1252.454,1391.814,1252.26,1394.218,1249.83Z" transform="translate(-1335.107 -1197.425)" fill="#dbdada"/><path d="M1435.371,909.092l1.313-1.373s.12-2.447-2.348-5.63-3.9-1.989-2.785,0-2.229.955-5.213.557-5.451.025-3.979,1.962.2,2.017-3.462,3.529-3.1,3.74,0,3.979,1.038,2.069-1.351,4.616-.559,3.979,2.067,2.547,3.183.159,2.308,2.388,2.228.318,3.661-1.273,1.035,1.194,3.223-2.308S1435.371,909.092,1435.371,909.092Z" transform="translate(-1372.322 -900.124)" fill="#0c1b3c"/><path d="M1502.162,1023.693a9.4,9.4,0,0,0-2.481,3.426c-1.743-1.853-.743-5.033-.743-5.033l.743-.079Z" transform="translate(-1442.286 -1003.742)" fill="#75354a"/><path d="M1493.308,948.785s-.4,4.039.358,6.108,1.512,2.149.6,2.944-1.512.637-1.711,1.552.2,4.059-2.109,3.979-4.775-3.382-5.014-4.218c0,0-2.427-.8-2.467-2.825s1.95-2.706,2.746-1.751,1.671-.279,1.711-1.791.995-3.661,2.626-3.541S1492.433,947.731,1493.308,948.785Z" transform="translate(-1428.946 -941.19)" fill="#91415c"/></g><path d="M2547.708,1146.181c-2.637,5.286-13.242,7.194-16.1.928-3.324-7.288-5.434-5.5-10.933-5.115s-9.4-2.557-8.95-8.823c.445-6.214-3.831-6.876-5.03-12.5.176.744,1.163,4.2,4.424,5.265,3.665,1.2,6.989,4.634,5.2,8.544s4.992,3.314,9.868-.992,8.544,2.685,7.777,8.823C2533.252,1148.02,2542.259,1151.4,2547.708,1146.181Z" transform="translate(-1176.759 -404.134)" fill="#011526"/><path d="M1707.982,1318.555v-20.331s7.079,1.79,8.976,8.183,8.47,9.078,11.883,7.033,3.218-7.544,7.74-9.462,7.3,2.813,12.612,8.056,12.389,6.265,17.951,1.534,10.935-6.01,15.138-1.662,6.1,4.731,10.9,3.836a8.82,8.82,0,0,1,7.912,2.813Z" transform="translate(-497.735 -555.076)" fill="#b2e5e0"/><rect width="85.981" height="1.875" transform="translate(1217.38 769.765)" fill="#fff"/><path d="M1713.075,1468.875h0a1.982,1.982,0,0,0-1.982,1.982h0a1.982,1.982,0,0,0,1.982,1.982h0a1.982,1.982,0,0,0,1.982-1.982h0A1.982,1.982,0,0,0,1713.075,1468.875Z" transform="translate(-500.38 -700.154)" fill="#fff"/><path d="M1707.96,1306.778h93.115s-1.97-11.252-9.176-11.252-5.432,9.919-14.725,7.389-10.3-17.746-20.291-18.513-12.389,13.426-17.572,13.426-6.194-5.9-12.768-6.276-6.194,9.345-11,9.856S1707.833,1304.988,1707.96,1306.778Z" transform="translate(-497.713 -543.3)" fill="#3fb8a9" opacity="0.38"/><rect width="24.806" height="24.806" rx="12.403" transform="translate(1268.52 691.789)" fill="#b2e5e0"/><rect width="24.806" height="24.806" rx="12.403" transform="translate(1271.078 694.305)" fill="#fff"/><path d="M2164.636,1022.415l9.975-6.985-9.975-6.985Z" transform="translate(-885.957 -308.722)" fill="#344966"/></g></svg>