<?xml version="1.0" encoding="utf-8"?>
<!-- Generator: Adobe Illustrator 25.2.3, SVG Export Plug-In . SVG Version: 6.00 Build 0)  -->
<svg version="1.1" id="Capa_1" xmlns="http://www.w3.org/2000/svg" xmlns:xlink="http://www.w3.org/1999/xlink" x="0px" y="0px"
	 viewBox="0 0 90 90" style="enable-background:new 0 0 90 90;" xml:space="preserve">
<style type="text/css">
	.st0{fill-rule:evenodd;clip-rule:evenodd;fill:#FFE9D4;}
	.st1{fill-rule:evenodd;clip-rule:evenodd;fill:#00223D;}
	.st2{fill-rule:evenodd;clip-rule:evenodd;fill:#012B4D;}
	.st3{fill-rule:evenodd;clip-rule:evenodd;fill:#CD4022;}
</style>
<g transform="translate(313.858 -496.658)">
	<path class="st0" d="M-268.9,586.7c24.8,0,45-20.2,45-45c0-24.8-20.2-45-45-45c-24.8,0-45,20.2-45,45
		C-313.8,566.5-293.7,586.6-268.9,586.7z"/>
	<path class="st1" d="M-268.9,585.4c24.1,0,43.7-19.6,43.7-43.7c0-24.1-19.6-43.7-43.7-43.7c-24.1,0-43.7,19.6-43.7,43.7
		C-312.5,565.8-293,585.3-268.9,585.4z"/>
	<path class="st2" d="M-312.6,541.8l16.8-19l44.3,12l15,14.1l-32.4,36.4C-293,585.3-312.5,565.9-312.6,541.8z"/>
	<path class="st1" d="M-268.9,561.7c16.7,0,30.2-11.1,30.2-24.6c0-13.6-13.6-24.6-30.2-24.6s-30.2,11.1-30.2,24.6
		S-285.5,561.7-268.9,561.7z"/>
	<path class="st0" d="M-268.9,566.5c15.7,0,28.5-11.2,28.5-24.9s-12.8-24.9-28.5-24.9s-28.5,11.2-28.5,24.9
		S-284.5,566.5-268.9,566.5z"/>
	<path class="st0" d="M-240.9,550.7c2.8,0,5.1-2.6,5.1-5.9c0-3.2-2.3-5.9-5.1-5.9s-5.1,2.6-5.1,5.9S-243.7,550.7-240.9,550.7z"/>
	<path class="st0" d="M-296.8,550.7c2.8,0,5.1-2.6,5.1-5.9c0-3.2-2.3-5.9-5.1-5.9c-2.8,0-5.1,2.6-5.1,5.9S-299.6,550.7-296.8,550.7z
		"/>
	<path class="st1" d="M-269.2,557.4c4.9,0.8,10.3,0.6,15.2-5.2c1.3-1.6,0.1-1.7-1.2-0.8c-5.1,3.7-9.2,5.3-13.9,4.9
		C-270.7,556.2-271.4,556.4-269.2,557.4z"/>
	<path class="st1" d="M-288.8,538.2c25.6-0.9,33.5-12.3,36.6-19.6c1-2.5-5.7-2-7.5,0.4C-264.3,525.7-274.9,533.8-288.8,538.2z"/>
	<path class="st1" d="M-299.7,525.9c24.5,7.5,42-3.8,47.2-9.7C-262.2,510-283,497.1-299.7,525.9z"/>
	<path class="st1" d="M-264.7,548.9c-2,2.3-5.4,2.5-7.7,0.5c-0.2-0.2-0.4-0.3-0.5-0.5c-0.5-0.7-0.2-0.7,0.1-0.5
		c1.6,0.8,6.3,0.8,7.9,0C-264.5,548.1-264.2,548.2-264.7,548.9z"/>
	<path class="st1" d="M-295.2,532c-1.1,7-2.1,11.6,0,19.1C-293,558.6-305.4,537.4-295.2,532z"/>
	<path class="st1" d="M-242.5,532c1.1,7,2.2,11.6,0,19.1C-244.7,558.6-232.3,537.4-242.5,532z"/>
	<path class="st1" d="M-237,531c-15.6-0.5-24.1-8.5-27.1-15.7c-1-2.5,7-0.4,9.3,1.5C-247.8,523.2-248,526.3-237,531z"/>
	<path class="st3" d="M-254.9,551.4c0.3,0,0.6,0,0.9,0c7.3-0.6,9-3.6,9.7-7.4c0.8-4.2,0.8-5.7,1.9-6.1c0.9-0.3,1-1.2,1-2.3
		c-0.1-1.1-0.1-1.2-1.5-1.7c-4-0.6-8-0.8-12-0.6v1.1c3.7-0.2,7.2,0.2,8.2,0.9c2.4,1.4,1.9,8.2,0.1,11.5c-1.3,2.4-5,3.5-8.3,3.6
		L-254.9,551.4z M-268.9,535.4c-1.6,0-8.3-1.7-13-2.1c-0.3,0-0.6,0-0.9-0.1v1.1c3.8,0.2,7.7,1,9.1,2.9c2.3,3.1-1.4,10.6-5,12.3
		c-1.3,0.6-2.7,0.8-4.2,0.8v1.1c4,0.3,7.7-2,9.4-5.6c1.4-2.6,1-6.3,4.6-6.3s3.3,3.6,4.6,6.2c1.6,3.7,5.3,5.9,9.3,5.7v-1.1
		c-1.4,0-2.9-0.2-4.2-0.8c-3.5-1.7-7.3-9.2-5-12.3c1.4-1.9,5.3-2.7,9.1-2.9v-1.1c-0.3,0-0.6,0-0.9,0.1
		C-260.1,533.6-265.1,535.3-268.9,535.4L-268.9,535.4z M-282.8,533.2c-4-0.2-8,0-12,0.6c-1.4,0.5-1.5,0.6-1.5,1.7s0.1,2,1,2.3
		c1.2,0.4,1.2,1.9,1.9,6.1c0.7,3.8,2.4,6.9,9.7,7.4c0.3,0,0.6,0,0.9,0v-1.1c-3.3,0-7-1.2-8.3-3.6c-1.9-3.4-2.3-10.1,0.1-11.5
		c1-0.6,4.6-1,8.2-0.9L-282.8,533.2z"/>
	<path class="st1" d="M-265,536.8c0.9-4.6,3.7-6.7,8.2-5.9c1.1,0.2,0.8,0.5,0.2,0.6c-3.6-0.7-7.1,1.7-7.8,5.3c0,0.1,0,0.2,0,0.3
		C-264.6,537.8-265.3,537.9-265,536.8z"/>
	<path class="st1" d="M-274.8,535c-1.4-4.5-4.3-6.3-8.8-5.1c-1.1,0.3-0.8,0.5-0.1,0.7c3.5-1,7.2,1,8.3,4.5c0,0.1,0,0.2,0.1,0.3
		C-275.2,536-274.5,536.1-274.8,535z"/>
	<path class="st1" d="M-254.4,544.1c1.7-0.2,3-1.7,2.9-3.4c0.1-1.8-1.2-3.3-2.9-3.4c-1.7,0.2-3,1.7-2.9,3.4
		C-257.5,542.4-256.2,544-254.4,544.1z"/>
	<path class="st1" d="M-282.1,544.1c1.7-0.2,3-1.7,2.9-3.4c0.1-1.8-1.2-3.3-2.9-3.4c-1.7,0.2-3,1.7-2.9,3.4
		C-285.1,542.4-283.8,544-282.1,544.1z"/>
</g>
</svg>
