<svg xmlns="http://www.w3.org/2000/svg" xmlns:xlink="http://www.w3.org/1999/xlink" width="268.691" height="463.315" viewBox="0 0 268.691 463.315"><defs><linearGradient id="a" y1="0.5" x2="1" y2="0.5" gradientUnits="objectBoundingBox"><stop offset="0" stop-color="#dae3fe"/><stop offset="1" stop-color="#e9effd"/></linearGradient><linearGradient id="b" y1="0.5" x2="1" y2="0.5" gradientUnits="objectBoundingBox"><stop offset="0" stop-color="#ff928e"/><stop offset="1" stop-color="#feb3b1"/></linearGradient><linearGradient id="d" x1="3.671" y1="-3.524" x2="-2.066" y2="3.756" gradientUnits="objectBoundingBox"><stop offset="0" stop-color="#cb236d"/><stop offset="1" stop-color="#4c246d"/></linearGradient><linearGradient id="e" x1="2.714" y1="-1.154" x2="2.254" y2="-0.791" xlink:href="#b"/><linearGradient id="f" x1="0.712" y1="0.072" x2="0.368" y2="1.278" xlink:href="#b"/><linearGradient id="g" x1="6.553" y1="0.019" x2="2.186" y2="0.36" xlink:href="#b"/><linearGradient id="h" x1="0.131" y1="-0.57" x2="0.638" y2="0.842" xlink:href="#b"/><linearGradient id="i" x1="-0.99" y1="-2.829" x2="1.084" y2="1.777" xlink:href="#b"/><linearGradient id="j" x1="1.767" y1="-2.661" x2="1.351" y2="-1.666" xlink:href="#b"/></defs><g transform="translate(0)"><g transform="translate(84.549)"><path d="M643.776,710.451l170.482-1.529a5.993,5.993,0,0,1,6.045,6.026l-.746,130.82a5.986,5.986,0,0,1-6.163,5.954c-30.825-.919-167.675-4.974-173.716-4.721-5.97.25-2.727-104.84-1.835-130.769A5.986,5.986,0,0,1,643.776,710.451Z" transform="translate(-636.161 -708.922)" fill="#7d6eb2"/><path d="M817.409,850.826h-.041c-24.51-.732-147.924-4.4-170.517-4.713l-.468-.007-.082-.461c-2.139-12.066-2.1-61.292.106-125.414a1.251,1.251,0,0,1,1.244-1.208l170.482-1.529a1.255,1.255,0,0,1,.9.371,1.226,1.226,0,0,1,.364.892l-.746,130.821A1.254,1.254,0,0,1,817.409,850.826Zm-170.069-5.841c23.8.36,145.716,3.98,170.062,4.707l.033,0a.124.124,0,0,0,.086-.123l.746-130.821-.129-.689.005.566-170.482,1.528a.119.119,0,0,0-.121.115C645.366,783.529,645.293,832.238,647.339,844.985Z" transform="translate(-639.994 -712.758)" fill="url(#a)"/><rect width="158.255" height="11.982" rx="5.991" transform="translate(11.265 16.925)" fill="#fff" opacity="0.71"/></g><g transform="translate(122.876 41.778)" opacity="0.81"><g transform="translate(44.681 0.754)"><path d="M817.136,864.7a2.863,2.863,0,0,1-2.189-1.016l-3.866-4.593a33.656,33.656,0,0,1-8.43-.213l-4.093,4.4a2.869,2.869,0,0,1-3.255.663l-7.926-3.517a2.865,2.865,0,0,1-1.69-2.86l.514-5.984a33.722,33.722,0,0,1-5.813-6.108l-6,.214a2.876,2.876,0,0,1-2.771-1.83l-3.117-8.094a2.86,2.86,0,0,1,.829-3.218l4.59-3.865a33.648,33.648,0,0,1,.214-8.428l-4.4-4.094a2.863,2.863,0,0,1-.665-3.254l3.518-7.927a2.845,2.845,0,0,1,2.864-1.689l5.981.514a33.622,33.622,0,0,1,6.108-5.813l-.214-6a2.863,2.863,0,0,1,1.833-2.772l8.091-3.117a2.865,2.865,0,0,1,3.221.832l3.862,4.588a33.508,33.508,0,0,1,8.429.213l4.094-4.4a2.863,2.863,0,0,1,3.254-.665l7.927,3.518a2.865,2.865,0,0,1,1.69,2.86l-.514,5.985a33.684,33.684,0,0,1,5.814,6.108l6-.215a2.869,2.869,0,0,1,2.771,1.833l3.116,8.091a2.862,2.862,0,0,1-.83,3.22l-4.589,3.862a33.679,33.679,0,0,1-.213,8.43l4.4,4.093a2.864,2.864,0,0,1,.667,3.251l-3.52,7.93a2.873,2.873,0,0,1-2.854,1.692l-5.99-.515a33.7,33.7,0,0,1-6.107,5.813l.214,6a2.868,2.868,0,0,1-1.826,2.77l-8.1,3.118A2.855,2.855,0,0,1,817.136,864.7Zm-4.18-10.421,4.691,5.571,5.867-2.26-.259-7.28,1.034-.7a29.193,29.193,0,0,0,6.859-6.53l.755-1,7.261.623,2.552-5.747-5.334-4.968.233-1.229a29.15,29.15,0,0,0,.241-9.467l-.172-1.24,5.573-4.691L840,809.5l-7.279.26-.7-1.034a29.189,29.189,0,0,0-6.53-6.86l-1-.755.623-7.262-5.746-2.552-4.968,5.335-1.23-.234a29.066,29.066,0,0,0-9.465-.239l-1.24.171-4.692-5.573-5.867,2.26.26,7.279-1.034.7a29.176,29.176,0,0,0-6.859,6.529l-.755,1-7.263-.623-2.55,5.747,5.334,4.967-.233,1.229a29.173,29.173,0,0,0-.24,9.466l.172,1.24-5.573,4.692,2.26,5.866,7.28-.259.7,1.034a29.2,29.2,0,0,0,6.528,6.86l1,.755-.623,7.262,5.747,2.551,4.966-5.334,1.229.234a29.189,29.189,0,0,0,9.467.24Zm-38.723-13.129h0ZM843.168,814.6l0,0Zm-1.982-5.142ZM775.063,807.8h0Zm45.114-17.378,0,0ZM797,789.843l0,.005Zm10.524,58.6a23.186,23.186,0,1,1,22.93-26.774,2.267,2.267,0,0,1-4.479.7,18.859,18.859,0,0,0-1.03-3.839,18.651,18.651,0,1,0-2.716,18.209,2.267,2.267,0,0,1,3.574,2.791,23.287,23.287,0,0,1-18.279,8.912Z" transform="translate(-768.309 -785.905)" fill="#fff"/><path d="M831.565,859.1a9.965,9.965,0,1,1,8.127-15.713h0a9.962,9.962,0,0,1-8.127,15.714Zm-.026-15.4a5.437,5.437,0,1,0,4.451,2.3h0a5.4,5.4,0,0,0-3.517-2.22A5.6,5.6,0,0,0,831.539,843.705Z" transform="translate(-792.152 -809.743)" fill="#fff"/></g><path d="M707.425,824.807a1.919,1.919,0,0,1-.235-.015l-4.148-.514a1.98,1.98,0,0,1-1.7-1.557l-.533-2.515a16.822,16.822,0,0,1-3.1-1.757l-2.43.833a1.985,1.985,0,0,1-2.211-.657l-2.565-3.288a1.98,1.98,0,0,1-.1-2.306l1.4-2.152a16.8,16.8,0,0,1-.948-3.436l-2.31-1.13a1.983,1.983,0,0,1-1.1-2.027l.512-4.139a1.987,1.987,0,0,1,1.557-1.7l2.517-.535a16.8,16.8,0,0,1,1.756-3.1l-.833-2.431a1.985,1.985,0,0,1,.656-2.208l3.29-2.566a1.988,1.988,0,0,1,2.315-.091l2.143,1.392a16.834,16.834,0,0,1,3.436-.949l1.13-2.31a2,2,0,0,1,2.036-1.1l4.131.512a1.989,1.989,0,0,1,1.7,1.557l.534,2.516a16.791,16.791,0,0,1,3.1,1.756l2.43-.833a1.988,1.988,0,0,1,2.2.65l2.571,3.3a1.988,1.988,0,0,1,.1,2.306l-1.4,2.152a16.789,16.789,0,0,1,.949,3.435l2.31,1.13a1.993,1.993,0,0,1,1.1,2.027l-.511,4.141a1.99,1.99,0,0,1-1.556,1.7l-2.518.534a16.815,16.815,0,0,1-1.755,3.1l.833,2.43a1.988,1.988,0,0,1-.654,2.207l-3.292,2.568a1.985,1.985,0,0,1-2.3.1l-2.154-1.4a16.918,16.918,0,0,1-3.435.949l-1.13,2.309A1.988,1.988,0,0,1,707.425,824.807Zm-1.269-2.609,0,0Zm-1.7-1.169,2.138.264,1.5-3.06.933-.1a13.483,13.483,0,0,0,4.2-1.16l.852-.393,2.854,1.856,1.7-1.326-1.1-3.221.589-.731a13.444,13.444,0,0,0,2.147-3.791l.325-.881,3.333-.706.264-2.139-3.061-1.5-.1-.933a13.408,13.408,0,0,0-1.159-4.2l-.394-.851,1.856-2.856-1.325-1.7-3.221,1.1-.731-.589a13.437,13.437,0,0,0-3.791-2.148l-.881-.324-.707-3.333-2.138-.264-1.5,3.061-.934.1a13.381,13.381,0,0,0-4.2,1.16l-.852.392-2.857-1.856-1.7,1.326,1.1,3.221-.589.731a13.425,13.425,0,0,0-2.147,3.792l-.324.881-3.333.706-.264,2.138,3.06,1.5.1.934a13.422,13.422,0,0,0,1.159,4.2l.393.851-1.856,2.856,1.325,1.7,3.221-1.1.731.588a13.447,13.447,0,0,0,3.791,2.147l.881.324Zm-1.009-.125h0Zm-9.273-4.839-.006,0Zm-.92-1.182,0,0Zm-.079-1.645.009.011Zm-3.143-9.982.009,0Zm31.844-8.8,0,0Zm-1.472-2.788h0Zm-23.055-1.31.018.013Zm10.183-2.433.013,0Zm-.033,28.508a12.053,12.053,0,0,1-1.467-.09,11.765,11.765,0,1,1,10.72-18.912,11.868,11.868,0,0,1,1.323,2.126,1.7,1.7,0,0,1-3.063,1.478,8.363,8.363,0,1,0,.265,6.652,1.7,1.7,0,0,1,3.172,1.223,11.774,11.774,0,0,1-10.95,7.522Z" transform="translate(-687.434 -784.54)" fill="#fff"/></g><path d="M607.579,1530.958c8.86.408,17.436.153,23.162-.142-5.213-3.71-17.224-11.784-27.275-15l-6.9-.413s-2.338,3.556-3.172,11.693C594.537,1528.523,597.879,1530.512,607.579,1530.958Z" transform="translate(-522.473 -1069.844)" fill="#00223d"/><path d="M630.714,1540.337l-.071-.051c-5.726.294-14.3.551-23.162.142-9.7-.446-13.041-2.436-14.185-3.862-.038.375-.078.746-.11,1.142a3.232,3.232,0,0,0,2.968,3.489c7.256.548,25.247,1.791,33.923,1.335A1.21,1.21,0,0,0,630.714,1540.337Z" transform="translate(-522.375 -1079.315)" fill="#010508"/><path d="M489.97,1528.912c-.649-4.159-1.689-10.172-2.494-11.709-1.261-2.412-5.578,0-5.578,0a11.457,11.457,0,0,0-4.425,3.769c-.889,1.5-3.348,5.773-5.015,8.674a1.947,1.947,0,0,0-.261,1.034l17.287.605A3.451,3.451,0,0,0,489.97,1528.912Z" transform="translate(-468.233 -1070.169)" fill="#00223d"/><path d="M472.2,1542.464a1.969,1.969,0,0,0,1.916,1.913l12.316.338a3.474,3.474,0,0,0,3.055-1.647Z" transform="translate(-468.234 -1081.955)" fill="#010508"/><path d="M497.394,1491.3c-.149.5-2.383,11.327-3.361,16.08a2.716,2.716,0,0,1-2.793,2.169c-.731-.037-1.582-.1-2.475-.219a3.275,3.275,0,0,1-2.85-3.123c-.159-4.163-.237-12.156,1.292-15.252C489.316,1486.681,497.394,1491.3,497.394,1491.3Z" transform="translate(-474.337 -1058.09)" fill="url(#b)"/><path d="M596.68,1495.868c.958-.03-.382,4.947,1.068,9.84a2.516,2.516,0,0,0,2.3,1.984c.746.01,1.629,0,2.526-.078a2.776,2.776,0,0,0,2.559-2.5l1.179-12.688Z" transform="translate(-523.943 -1059.559)" fill="url(#b)"/><path d="M573.526,1249.533c-.428,2.081-15.521,90.118-16.437,135.673a1.55,1.55,0,0,1-1.334,1.51,30.422,30.422,0,0,1-9.266-.062,1.09,1.09,0,0,1-.9-1c-.527-8.489-4.77-80.265.425-114.053,0,0-42.916,90.321-49.421,115.227a1.309,1.309,0,0,1-1.34.98,32.452,32.452,0,0,1-8.7-1.545,2.271,2.271,0,0,1-1.432-2.669c3.634-14.906,29.106-117.594,46.4-140.22Z" transform="translate(-473.99 -948.102)" fill="#12263f"/><path d="M594.933,1289.81a.564.564,0,0,1-.4-.957l5.747-5.878a.564.564,0,0,1,.806.789l-5.747,5.876A.561.561,0,0,1,594.933,1289.81Z" transform="translate(-522.909 -965.75)" fill="url(#d)"/><path d="M673.225,1047.556a54.472,54.472,0,0,1-28.541.069c-12.559-3.294-37.317-8.741-54.176-5.706l-1.4,44.106,57.631,6.587.517-11.71s35.037-5.057,53.989-28.094a93.859,93.859,0,0,1-10.589-14.347A45.3,45.3,0,0,1,673.225,1047.556Z" transform="translate(-520.555 -856.399)" fill="#aee6e6"/><path d="M793.678,974.664l-4.445-1.952s.221,22.2-16.32,36.325a93.886,93.886,0,0,0,10.588,14.346C792.843,1012.028,798.277,996.306,793.678,974.664Z" transform="translate(-602.812 -826.975)" fill="url(#e)"/><path d="M638.522,1000.355s-3.347,19.963-3.8,26.236c0,0,16.157,4.462,20.375,2.07l-.528-24.148Z" transform="translate(-540.97 -839.346)" fill="url(#f)"/><g transform="translate(0 219.884)"><path d="M470.828,1107.878l142.394-.956a5.844,5.844,0,0,1,5.883,5.889l-.6,78.65a5.844,5.844,0,0,1-6.019,5.8l-140.852-4.233a5.844,5.844,0,0,1-5.668-5.767l-.943-73.461A5.844,5.844,0,0,1,470.828,1107.878Z" transform="translate(-465.023 -1106.922)" fill="#12263f"/><path d="M616.5,1196.36l-140.889-4.234a1.108,1.108,0,0,1-1.075-1.095l-.943-73.46a1.11,1.11,0,0,1,1.1-1.124l142.394-.955a1.108,1.108,0,0,1,1.116,1.117l-.6,78.65A1.11,1.11,0,0,1,616.5,1196.36Zm-140.831-5.366,140.848,4.232.553-78.627-142.368.981Z" transform="translate(-468.859 -1110.757)" fill="#fff"/><path d="M490.4,1129.8h0c0,2.536,1.477,4.592,3.3,4.592H614.808c1.822,0,3.3-2.056,3.3-4.592h0c0-2.537-1.477-4.593-3.3-4.593H493.7C491.874,1125.2,490.4,1127.259,490.4,1129.8Z" transform="translate(-476.379 -1115.103)" fill="#fff"/><path d="M488.824,1154.131h50.99a3.269,3.269,0,0,1,3.268,3.269v42.1a3.268,3.268,0,0,1-3.359,3.267l-49.947-1.384a3.269,3.269,0,0,1-3.177-3.183l-1.043-40.715A3.269,3.269,0,0,1,488.824,1154.131Z" transform="translate(-474.212 -1128.049)" fill="#fff"/><path d="M607.127,1156.006h56.919a2.538,2.538,0,0,1,2.242,2.754h0a2.539,2.539,0,0,1-2.242,2.755H607.127a2.538,2.538,0,0,1-2.242-2.755h0A2.538,2.538,0,0,1,607.127,1156.006Z" transform="translate(-527.615 -1128.889)" fill="#fff"/><path d="M604.885,1178.736h0a2.532,2.532,0,0,0,2.238,2.748H664.05a2.533,2.533,0,0,0,2.238-2.748v-1.7a2.518,2.518,0,0,0-2.293-2.749l-56.926,1.7A2.549,2.549,0,0,0,604.885,1178.736Z" transform="translate(-527.615 -1137.069)" fill="#fff"/></g><path d="M574.587,1068.524l-14.144-23.8s-29.573,25.335-38.517,60.568l15.685,9.855C544.047,1103.648,555.261,1088.343,574.587,1068.524Z" transform="translate(-490.489 -859.201)" fill="#aee6e6"/><path d="M541.6,1216.486a3.838,3.838,0,0,1-3.409-2.232c-1.6-3.484-4.754-10.127-6.4-12.272a8.019,8.019,0,0,1,5.029-.139c3.215.751,5.938-.563,6.032-2.347l-15.033-6.442c-.541-1.535-2.725-10.147,7.743-28.847l-15.685-9.855a75.013,75.013,0,0,0,1.26,42.924s2.957,17.217,8.947,20.7,15.093-1.412,15.093-1.412Z" transform="translate(-488.436 -908.263)" fill="url(#g)"/><g transform="translate(84.529 129.134)"><path d="M657.008,967.05s5.37,12.338,5.731,18.813,1.755,10.678-5.731,11.982-13.8-2.426-17.213-8.876c0,0-5.354-9.94-4.153-14.01S657.008,967.05,657.008,967.05Z" transform="translate(-625.831 -953.575)" fill="url(#h)"/><path d="M634.548,973.416h.946s-3.9-8-.474-9.405,17-4.174,19.93-8.991c2.824-4.643.306-10.641-3.461-12.319a.5.5,0,0,0-.642.236l-.311.591a.509.509,0,0,1-.938-.1h0a.507.507,0,0,0-.912-.139c-.9,1.441-3.323,3.782-9.835,4.984-9.239,1.705-15.346,5.444-15.5,11.829a.509.509,0,0,1-.787.417c-.682-.416-1.773-.611-3.232.616-2.537,2.133-1.5,7.666,4.062,12.218a.506.506,0,0,1-.024.815c-1.009.656-2.51,2.217,1.383,4.3,3.983,2.13,6.341,1.9,7.231,1.669a.509.509,0,0,0,.386-.526l-.35-5.658a.507.507,0,0,1,.507-.54Z" transform="translate(-618.024 -942.66)" fill="#00223d"/><path d="M642.889,995.561s-2.05-7.882-5.583-5.672,1.834,8.831,4.674,9.126Z" transform="translate(-626.132 -963.621)" fill="url(#i)"/></g><path d="M780.261,942.745v8.913s7.256,9.231,16.7,9.594c0,0,8.322-.547,8.041-6.711L791.7,952a63.712,63.712,0,0,1-7.149-2.494S783.4,943.027,780.261,942.745Z" transform="translate(-606.1 -813.564)" fill="url(#j)"/></g></svg>