<svg xmlns="http://www.w3.org/2000/svg" xmlns:xlink="http://www.w3.org/1999/xlink" width="122.485" height="122.486" viewBox="0 0 122.485 122.486"><defs><radialGradient id="a" cx="0.076" cy="0.019" r="1.465" gradientTransform="translate(0.001)" gradientUnits="objectBoundingBox"><stop offset="0" stop-color="#f6f6f7"/><stop offset="0.477" stop-color="#f9f9fa"/><stop offset="0.715" stop-color="#fff"/></radialGradient></defs><g transform="translate(-168 -5598)"><g transform="translate(168 5598)"><g transform="translate(0 0)"><path d="M317.108,2206.962a61.243,61.243,0,1,1-61.242-61.241A61.242,61.242,0,0,1,317.108,2206.962Z" transform="translate(-194.623 -2145.721)" fill="#fff"/><path d="M316.4,2206.189a61.241,61.241,0,1,0-61.242,61.244A61,61,0,0,0,316.4,2206.189Z" transform="translate(-193.912 -2144.948)" fill="url(#a)"/><path d="M295.588,2199.9a46.746,46.746,0,1,0-46.746,46.746A46.572,46.572,0,0,0,295.588,2199.9Z" transform="translate(-187.413 -2138.455)" fill="none" stroke="#26aab7" stroke-miterlimit="10" stroke-width="4"/><g transform="translate(10.85 34.383)"><path d="M305.988,2164.488a61.25,61.25,0,0,1-105.443,60.989,61.055,61.055,0,0,0,105.443-60.989Z" transform="translate(-200.545 -2164.488)" fill="#eceef0"/></g></g></g><g transform="translate(208.144 5631.506)"><g transform="translate(0 0)"><path d="M2159.651,1921.529h-33.087a.514.514,0,0,1-.514-.514v-42.584a.514.514,0,0,1,.514-.514h33.087a.514.514,0,0,1,.514.514v42.584A.513.513,0,0,1,2159.651,1921.529Zm-32.573-1.027h32.059v-41.557h-32.059Z" transform="translate(-2126.05 -1877.918)" fill="#00223d"/><g transform="translate(4.984 6.145)"><g transform="translate(14.014)"><path d="M2212.969,1904.09h-8.662a.514.514,0,1,1,0-1.027h8.662a.514.514,0,1,1,0,1.027Z" transform="translate(-2203.794 -1903.063)" fill="#00223d"/></g><g transform="translate(14.014 4.189)"><path d="M2212.969,1921.231h-8.662a.514.514,0,1,1,0-1.027h8.662a.514.514,0,1,1,0,1.027Z" transform="translate(-2203.794 -1920.204)" fill="#00223d"/></g><g transform="translate(14.014 8.377)"><path d="M2212.969,1938.372h-8.662a.514.514,0,0,1,0-1.028h8.662a.514.514,0,0,1,0,1.028Z" transform="translate(-2203.794 -1937.344)" fill="#00223d"/></g><g transform="translate(0 12.52)"><path d="M2169.259,1955.323h-22.3a.514.514,0,1,1,0-1.027h22.3a.514.514,0,1,1,0,1.027Z" transform="translate(-2146.447 -1954.296)" fill="#00223d"/></g><g transform="translate(0.07 17.157)"><path d="M2169.852,1974.3h-22.606a.514.514,0,1,1,0-1.027h22.606a.514.514,0,0,1,0,1.027Z" transform="translate(-2146.733 -1973.271)" fill="#00223d"/></g><g transform="translate(0.07 21.345)"><path d="M2169.852,1991.439h-22.606a.514.514,0,0,1,0-1.028h22.606a.514.514,0,0,1,0,1.028Z" transform="translate(-2146.733 -1990.411)" fill="#00223d"/></g><g transform="translate(0.07 25.534)"><path d="M2169.852,2008.579h-22.606a.514.514,0,1,1,0-1.027h22.606a.514.514,0,0,1,0,1.027Z" transform="translate(-2146.733 -2007.552)" fill="#00223d"/></g><g transform="translate(0.07 29.722)"><path d="M2162.065,2025.72h-14.819a.514.514,0,0,1,0-1.028h14.819a.514.514,0,0,1,0,1.028Z" transform="translate(-2146.733 -2024.692)" fill="#00223d"/></g></g><g transform="translate(4.732 3.665)"><path d="M2151.555,1904.141l-.941,3.15h-3.1l4.037-12.272h3.92l4.1,12.272h-3.214l-1.019-3.15Zm3.351-2.076-.823-2.6c-.235-.729-.471-1.639-.667-2.367h-.039c-.2.728-.392,1.657-.607,2.367l-.784,2.6Z" transform="translate(-2147.004 -1894.505)" fill="none"/><path d="M2157.983,1906.216h-3.215a.514.514,0,0,1-.489-.356l-.9-2.794h-3.026l-.832,2.783a.514.514,0,0,1-.492.367h-3.1a.514.514,0,0,1-.488-.674l4.038-12.272a.513.513,0,0,1,.488-.353h3.92a.515.515,0,0,1,.488.351l4.1,12.271a.513.513,0,0,1-.486.677Zm-2.841-1.027h2.128l-3.753-11.245h-3.178l-3.7,11.245h2l.831-2.783a.515.515,0,0,1,.493-.367h3.782a.514.514,0,0,1,.489.356Zm-1.824-4.2h-2.92a.514.514,0,0,1-.492-.662l.784-2.6c.125-.412.245-.91.362-1.392.081-.335.161-.664.241-.961a.513.513,0,0,1,.5-.38h.039a.513.513,0,0,1,.5.38l.1.361c.173.648.369,1.382.563,1.982l.824,2.606a.514.514,0,0,1-.49.669Zm-2.229-1.027h1.528l-.612-1.935c-.058-.181-.117-.372-.174-.569-.051.2-.1.385-.157.563Z" transform="translate(-2145.416 -1892.917)" fill="#00223d"/></g></g><g transform="translate(11.606 21.218)"><g transform="translate(18.804 15.69)"><g transform="translate(3.269 6.236)"><path d="M2274.37,2066.006a2.126,2.126,0,0,1-.772-.145,2.113,2.113,0,0,1-1.351-1.956,2.133,2.133,0,0,1-1.441-.037,2.11,2.11,0,0,1-1.351-1.956,2.132,2.132,0,0,1-1.442-.038,2.112,2.112,0,0,1-1.351-1.957,2.131,2.131,0,0,1-1.442-.037,2.107,2.107,0,0,1-1.2-2.744l.932-2.344a.514.514,0,0,1,.955.38l-.933,2.343a1.069,1.069,0,0,0,.013.827,1.083,1.083,0,0,0,.605.58,1.11,1.11,0,0,0,1.432-.619l.263-.661a.513.513,0,0,1,.886-.121l.077.1a.513.513,0,0,1,.068.5l-.551,1.387a1.065,1.065,0,0,0,.012.827,1.082,1.082,0,0,0,.606.58,1.109,1.109,0,0,0,1.431-.619l.412-1.034a.513.513,0,0,1,.833-.181l.084.08a.514.514,0,0,1,.122.561l-.707,1.78a1.068,1.068,0,0,0,.012.827,1.084,1.084,0,0,0,.606.58,1.112,1.112,0,0,0,1.432-.62l.626-1.575a.514.514,0,0,1,.745-.249l.094.057a.514.514,0,0,1,.209.628l-.932,2.345a1.065,1.065,0,0,0,.012.826,1.083,1.083,0,0,0,.606.58,1.111,1.111,0,0,0,1.433-.618l.478-1.2a.514.514,0,1,1,.954.38l-.479,1.2A2.139,2.139,0,0,1,2274.37,2066.006Z" transform="translate(-2263.869 -2054.47)" fill="#00223d"/></g><g transform="translate(2.108 1.442)"><path d="M2265.206,2042.7l-3.216-2.3a1.827,1.827,0,0,1-.417-2.566l.09-.125a1.868,1.868,0,0,1,2.591-.421l7.518,5.366Z" transform="translate(-2260.708 -2036.434)" fill="#fff"/><path d="M2263.616,2041.629a.513.513,0,0,1-.3-.1l-3.216-2.3a2.339,2.339,0,0,1-.534-3.286l.088-.123a2.386,2.386,0,0,1,3.306-.539l7.518,5.366a.513.513,0,1,1-.6.836l-7.518-5.366a1.355,1.355,0,0,0-1.877.3l-.088.123a1.313,1.313,0,0,0,.3,1.848l3.216,2.3a.514.514,0,0,1-.3.932Z" transform="translate(-2259.118 -2034.85)" fill="#00223d"/></g><g transform="translate(6.044 5.448)"><path d="M2285.581,2060.942l-7.078-3.614a2.09,2.09,0,0,1-.945-2.819,2.134,2.134,0,0,1,2.846-.945l9.856,4.217Z" transform="translate(-2276.818 -2052.831)" fill="#fff"/><path d="M2283.989,2059.872a.512.512,0,0,1-.233-.057l-7.079-3.614a2.6,2.6,0,0,1-1.169-3.508,2.652,2.652,0,0,1,3.532-1.173l9.83,4.2a.514.514,0,1,1-.4.945l-9.856-4.217a1.629,1.629,0,0,0-2.186.7,1.576,1.576,0,0,0,.714,2.127l7.084,3.617a.514.514,0,0,1-.234.972Z" transform="translate(-2275.227 -2051.246)" fill="#00223d"/></g><g transform="translate(6.905 2.45)"><path d="M2298.583,2046.212a.512.512,0,0,1-.36-.147,32.156,32.156,0,0,0-6.694-5.033,5.472,5.472,0,0,0-1.651-.594,27.8,27.8,0,0,0-10.493.146.514.514,0,0,1-.245-1,28.377,28.377,0,0,1,10.928-.158,6.518,6.518,0,0,1,1.961.705,33.2,33.2,0,0,1,6.914,5.2.514.514,0,0,1-.36.88Z" transform="translate(-2278.749 -2038.975)" fill="#00223d"/></g><g transform="translate(14.276 12.939)"><path d="M2316.394,2087.046h-.042A10.564,10.564,0,0,1,2309,2082.7a.513.513,0,1,1,.852-.574,9.694,9.694,0,0,0,6.583,3.9.514.514,0,0,1-.04,1.026Z" transform="translate(-2308.912 -2081.898)" fill="#00223d"/></g><g transform="translate(0 2.007)"><path d="M2252.78,2039.457a.512.512,0,0,1-.3-.1l-1.774-1.266a.514.514,0,0,1,.6-.836l1.774,1.266a.514.514,0,0,1-.3.932Z" transform="translate(-2250.493 -2037.164)" fill="#00223d"/></g><g transform="translate(1.46)"><path d="M2258.757,2031.243a.511.511,0,0,1-.3-.1l-1.774-1.266a.514.514,0,1,1,.6-.836l1.774,1.266a.514.514,0,0,1-.3.932Z" transform="translate(-2256.469 -2028.95)" fill="#00223d"/></g></g><path d="M2194.1,1969.962a10.643,10.643,0,0,1,0,15.148,10.879,10.879,0,0,1-15.286,0,10.643,10.643,0,0,1,0-15.148A10.88,10.88,0,0,1,2194.1,1969.962Z" transform="translate(-2175.134 -1966.317)" fill="#fff"/><path d="M2184.867,1987.184a11.335,11.335,0,0,1-8-3.28,11.156,11.156,0,0,1,0-15.878,11.407,11.407,0,0,1,16.009,0,11.157,11.157,0,0,1,0,15.878A11.341,11.341,0,0,1,2184.867,1987.184Zm0-21.412a10.312,10.312,0,0,0-7.281,2.984,10.129,10.129,0,0,0,0,14.418,10.377,10.377,0,0,0,14.563,0,10.129,10.129,0,0,0,0-14.418A10.317,10.317,0,0,0,2184.867,1965.772Z" transform="translate(-2173.545 -1964.745)" fill="#00223d"/><g transform="translate(2.691 2.665)"><path d="M2200.518,1980.093a7.994,7.994,0,0,1,0,11.377,8.17,8.17,0,0,1-11.48,0,7.992,7.992,0,0,1,0-11.377A8.17,8.17,0,0,1,2200.518,1980.093Z" transform="translate(-2186.146 -1977.227)" fill="none"/><path d="M2193.189,1992.76a8.639,8.639,0,0,1-6.1-2.5,8.506,8.506,0,0,1,0-12.106,8.693,8.693,0,0,1,12.2,0,8.507,8.507,0,0,1,0,12.106A8.645,8.645,0,0,1,2193.189,1992.76Zm0-16.082a7.616,7.616,0,0,0-5.378,2.2,7.48,7.48,0,0,0,0,10.647,7.664,7.664,0,0,0,10.757,0,7.48,7.48,0,0,0,0-10.647A7.618,7.618,0,0,0,2193.189,1976.678Z" transform="translate(-2184.558 -1975.652)" fill="#00223d"/></g><g transform="translate(2.643 10.58)"><path d="M2196.52,2009.069h-11.645a.514.514,0,0,1,0-1.028h11.645a.514.514,0,0,1,0,1.028Z" transform="translate(-2184.361 -2008.041)" fill="#00223d"/></g><g transform="translate(3.853 6.798)"><path d="M2198.406,1993.594h-8.579a.514.514,0,0,1,0-1.028h8.579a.514.514,0,0,1,0,1.028Z" transform="translate(-2189.313 -1992.566)" fill="#00223d"/></g><g transform="translate(3.667 14.362)"><path d="M2199.221,2024.545h-10.157a.514.514,0,1,1,0-1.027h10.157a.514.514,0,1,1,0,1.027Z" transform="translate(-2188.55 -2023.517)" fill="#00223d"/></g></g></g></g></svg>