<svg id="Grupo_49901" data-name="Grupo 49901" xmlns="http://www.w3.org/2000/svg" xmlns:xlink="http://www.w3.org/1999/xlink" width="103.929" height="103.929" viewBox="0 0 103.929 103.929">
  <defs>
    <radialGradient id="radial-gradient" cx="0.076" cy="0.019" r="1.465" gradientTransform="translate(0.001)" gradientUnits="objectBoundingBox">
      <stop offset="0" stop-color="#f6f6f7"/>
      <stop offset="0.477" stop-color="#f9f9fa"/>
      <stop offset="0.715" stop-color="#fff"/>
    </radialGradient>
  </defs>
  <g id="Grupo_18423" data-name="Grupo 18423" transform="translate(0 0)">
    <g id="Grupo_18421" data-name="Grupo 18421">
      <g id="Grupo_18420" data-name="Grupo 18420">
        <g id="Grupo_18419" data-name="Grupo 18419">
          <path id="Trazado_40936" data-name="Trazado 40936" d="M298.552,2197.684a51.964,51.964,0,1,1-51.964-51.963A51.964,51.964,0,0,1,298.552,2197.684Z" transform="translate(-194.623 -2145.721)" fill="#fff"/>
        </g>
      </g>
    </g>
    <path id="Trazado_40937" data-name="Trazado 40937" d="M298.078,2197.168a51.963,51.963,0,1,0-51.964,51.966A51.758,51.758,0,0,0,298.078,2197.168Z" transform="translate(-194.149 -2145.205)" fill="url(#radial-gradient)"/>
    <path id="Trazado_40938" data-name="Trazado 40938" d="M281.6,2193.014a39.664,39.664,0,1,0-39.664,39.664A39.517,39.517,0,0,0,281.6,2193.014Z" transform="translate(-189.818 -2140.878)" fill="none" stroke="#26aab7" stroke-miterlimit="10" stroke-width="4"/>
    <g id="Grupo_18422" data-name="Grupo 18422" transform="translate(9.206 29.174)">
      <path id="Trazado_40939" data-name="Trazado 40939" d="M290.013,2164.488a51.97,51.97,0,0,1-89.468,51.749,51.805,51.805,0,0,0,89.468-51.749Z" transform="translate(-200.545 -2164.488)" fill="#eceef0"/>
    </g>
  </g>
  <g id="Grupo_28523" data-name="Grupo 28523" transform="translate(24.691 30.464)">
    <path id="Trazado_67929" data-name="Trazado 67929" d="M377.752,247.155a.733.733,0,0,1-.364-.1c-.119-.068-12-6.772-23.85-4.3a.732.732,0,0,1-.881-.716V214.426a.732.732,0,0,1,.582-.716,27.7,27.7,0,0,1,3.812-.515.732.732,0,1,1,.1,1.46,26.472,26.472,0,0,0-3.028.374v26.127c11.041-1.917,21.53,3.3,23.632,4.432,2.1-1.13,12.591-6.35,23.632-4.432V215.029c-11.665-2.14-23.151,4.348-23.268,4.415a.732.732,0,1,1-.728-1.269c.5-.289,12.474-7.049,24.877-4.465a.732.732,0,0,1,.582.716V242.04a.732.732,0,0,1-.881.716c-11.861-2.473-23.732,4.234-23.85,4.3A.734.734,0,0,1,377.752,247.155Z" transform="translate(-349.479 -210.089)" fill="#00223d"/>
    <path id="Trazado_67930" data-name="Trazado 67930" d="M435.18,223.3a.732.732,0,0,1-.139-1.45,33.341,33.341,0,0,1,10.415-.468.732.732,0,1,1-.178,1.453,31.808,31.808,0,0,0-9.956.452A.765.765,0,0,1,435.18,223.3Z" transform="translate(-394.879 -214.555)" fill="#00223d"/>
    <path id="Trazado_67931" data-name="Trazado 67931" d="M450.405,230.869a.787.787,0,0,1-.091-.006,29.5,29.5,0,0,0-6-.1.732.732,0,0,1-.119-1.459,30.986,30.986,0,0,1,6.3.106.732.732,0,0,1-.089,1.458Z" transform="translate(-399.916 -219.01)" fill="#00223d"/>
    <path id="Trazado_67932" data-name="Trazado 67932" d="M385.849,269.061a.73.73,0,0,1-.276-.054,42.358,42.358,0,0,0-10.731-2.846.731.731,0,1,1,.173-1.453,43.805,43.805,0,0,1,11.111,2.944.732.732,0,0,1-.277,1.409Z" transform="translate(-361.435 -238.719)" fill="#00223d"/>
    <path id="Trazado_67933" data-name="Trazado 67933" d="M385.644,257.949a.731.731,0,0,1-.273-.053,42.3,42.3,0,0,0-10.529-2.764.731.731,0,1,1,.173-1.453,43.757,43.757,0,0,1,10.9,2.86.732.732,0,0,1-.273,1.41Z" transform="translate(-361.435 -232.597)" fill="#00223d"/>
    <path id="Trazado_67934" data-name="Trazado 67934" d="M408.146,279.964a.731.731,0,0,1-.732-.731v-6.269a.732.732,0,1,1,1.463,0v6.269A.731.731,0,0,1,408.146,279.964Z" transform="translate(-379.873 -242.898)" fill="#00223d"/>
    <path id="Trazado_67935" data-name="Trazado 67935" d="M401.329,251.263H346.247a.732.732,0,0,1-.732-.731V217.767a.731.731,0,0,1,.732-.731h3.178a.731.731,0,1,1,0,1.463h-2.446v31.3H400.6V218.5h-2.446a.731.731,0,1,1,0-1.463h3.178a.731.731,0,0,1,.731.731v32.764A.732.732,0,0,1,401.329,251.263Z" transform="translate(-345.515 -212.261)" fill="#00223d"/>
    <path id="Trazado_67936" data-name="Trazado 67936" d="M412.511,246.876c-.024,0-.048,0-.072,0l-3.421-.339a.733.733,0,0,1-.656-.8l.2-1.972a8.388,8.388,0,0,1-1.451-.777l-1.532,1.257a.731.731,0,0,1-1.03-.1l-2.179-2.659a.732.732,0,0,1,.1-1.03L404,239.2a8.347,8.347,0,0,1-.477-1.575l-1.972-.195a.731.731,0,0,1-.656-.8l.339-3.42a.733.733,0,0,1,.8-.656l1.972.2a8.363,8.363,0,0,1,.776-1.451l-1.256-1.532a.732.732,0,0,1,.1-1.03l2.658-2.179a.732.732,0,0,1,1.03.1l1.256,1.533a8.38,8.38,0,0,1,1.575-.477l.2-1.972a.736.736,0,0,1,.8-.656l3.42.339a.731.731,0,0,1,.656.8l-.2,1.972a8.315,8.315,0,0,1,1.451.777l1.533-1.257a.732.732,0,0,1,1.03.1l2.179,2.658a.733.733,0,0,1-.1,1.03l-1.533,1.257a8.359,8.359,0,0,1,.477,1.575l1.972.2a.731.731,0,0,1,.656.8l-.339,3.42a.734.734,0,0,1-.8.656l-1.972-.2a8.344,8.344,0,0,1-.776,1.451l1.256,1.533a.732.732,0,0,1-.1,1.03L417.3,245.4a.732.732,0,0,1-1.03-.1l-1.257-1.533a8.394,8.394,0,0,1-1.575.477l-.2,1.972a.731.731,0,0,1-.728.659Zm-2.62-1.726,1.964.195.178-1.8a.732.732,0,0,1,.637-.654,6.912,6.912,0,0,0,2.222-.673.732.732,0,0,1,.892.191l1.149,1.4,1.527-1.251-1.15-1.4a.732.732,0,0,1-.012-.913,6.9,6.9,0,0,0,1.1-2.046.732.732,0,0,1,.766-.5l1.8.179.195-1.964-1.8-.178a.733.733,0,0,1-.654-.637,6.911,6.911,0,0,0-.672-2.222.731.731,0,0,1,.19-.892l1.4-1.149-1.251-1.526-1.4,1.149a.731.731,0,0,1-.912.012,6.917,6.917,0,0,0-2.047-1.1.732.732,0,0,1-.5-.766l.178-1.8-1.964-.194-.178,1.8a.731.731,0,0,1-.637.654,6.911,6.911,0,0,0-2.222.673.731.731,0,0,1-.892-.191l-1.149-1.4-1.527,1.251,1.149,1.4a.732.732,0,0,1,.012.912,6.912,6.912,0,0,0-1.1,2.047.735.735,0,0,1-.766.5l-1.8-.179-.194,1.964,1.8.178a.732.732,0,0,1,.654.637,6.9,6.9,0,0,0,.673,2.221.732.732,0,0,1-.191.893l-1.4,1.149,1.251,1.527,1.4-1.149a.73.73,0,0,1,.913-.012,6.9,6.9,0,0,0,2.047,1.1.732.732,0,0,1,.5.767Z" transform="translate(-376.253 -216.725)" fill="#00223d"/>
    <path id="Trazado_67937" data-name="Trazado 67937" d="M417.783,248.063c-.2,0-.4-.009-.606-.029a6.1,6.1,0,1,1,.606.029Zm-.007-10.735a4.639,4.639,0,1,0,.46.023A4.586,4.586,0,0,0,417.775,237.328Z" transform="translate(-382.24 -222.712)" fill="#00223d"/>
    <path id="Trazado_67938" data-name="Trazado 67938" d="M374.823,224.714a.732.732,0,0,1-.714-.572l-.34-1.522a7.142,7.142,0,0,1-1.194-.209l-.836,1.316a.732.732,0,0,1-1.01.226l-2.415-1.534a.732.732,0,0,1-.225-1.01l.836-1.317a7.063,7.063,0,0,1-.7-.991l-1.522.339a.732.732,0,0,1-.873-.555l-.623-2.792a.731.731,0,0,1,.555-.873l1.522-.34a7.048,7.048,0,0,1,.209-1.194l-1.316-.836a.732.732,0,0,1-.225-1.01l1.534-2.415a.73.73,0,0,1,1.01-.225l1.316.836a7.071,7.071,0,0,1,.992-.7l-.339-1.522a.732.732,0,0,1,.554-.873l2.792-.623a.731.731,0,0,1,.873.555l.34,1.522a7.089,7.089,0,0,1,1.194.209l.836-1.316a.731.731,0,0,1,1.01-.226l2.415,1.534a.731.731,0,0,1,.225,1.01l-.836,1.316a7.108,7.108,0,0,1,.7.992l1.522-.339a.731.731,0,0,1,.873.554l.623,2.792a.732.732,0,0,1-.555.874l-1.522.339a7.085,7.085,0,0,1-.209,1.194l1.316.836a.731.731,0,0,1,.226,1.01l-1.534,2.415a.732.732,0,0,1-1.01.225l-1.316-.836a7.012,7.012,0,0,1-.992.7l.339,1.523a.731.731,0,0,1-.555.873l-2.792.622A.729.729,0,0,1,374.823,224.714Zm-2.565-3.9a.724.724,0,0,1,.245.043,5.613,5.613,0,0,0,1.863.326.731.731,0,0,1,.711.572l.3,1.353,1.364-.3-.3-1.353a.731.731,0,0,1,.4-.82,5.617,5.617,0,0,0,1.548-1.087.731.731,0,0,1,.907-.1l1.17.743.749-1.18-1.17-.743a.731.731,0,0,1-.3-.863,5.625,5.625,0,0,0,.326-1.862.732.732,0,0,1,.572-.711l1.353-.3-.3-1.364-1.353.3a.732.732,0,0,1-.82-.4,5.633,5.633,0,0,0-1.087-1.548.732.732,0,0,1-.1-.907l.743-1.17-1.18-.749-.743,1.17a.73.73,0,0,1-.862.3,5.628,5.628,0,0,0-1.863-.326.732.732,0,0,1-.711-.572l-.3-1.353-1.364.3.3,1.353a.733.733,0,0,1-.4.82,5.619,5.619,0,0,0-1.548,1.087.731.731,0,0,1-.907.1l-1.17-.743-.749,1.18,1.17.743a.731.731,0,0,1,.3.863,5.62,5.62,0,0,0-.326,1.863.732.732,0,0,1-.573.711l-1.353.3.3,1.364,1.353-.3a.733.733,0,0,1,.82.4,5.62,5.62,0,0,0,1.086,1.547.731.731,0,0,1,.1.907l-.743,1.17,1.18.749.743-1.17A.731.731,0,0,1,372.258,220.816Z" transform="translate(-356.438 -206.304)" fill="#00223d"/>
    <path id="Trazado_67939" data-name="Trazado 67939" d="M379.39,225.7a5.2,5.2,0,1,1,4.4-2.41A5.168,5.168,0,0,1,379.39,225.7Zm.016-8.935a3.763,3.763,0,0,0-.821.091,3.717,3.717,0,1,0,.821-.091Z" transform="translate(-361.437 -211.3)" fill="#00223d"/>
  </g>
</svg>
