<svg xmlns="http://www.w3.org/2000/svg" xmlns:xlink="http://www.w3.org/1999/xlink" width="122.485" height="122.486" viewBox="0 0 122.485 122.486"><defs><radialGradient id="a" cx="0.076" cy="0.019" r="1.465" gradientTransform="translate(0.001)" gradientUnits="objectBoundingBox"><stop offset="0" stop-color="#f6f6f7"/><stop offset="0.477" stop-color="#f9f9fa"/><stop offset="0.715" stop-color="#fff"/></radialGradient></defs><g transform="translate(-168 -5598)"><g transform="translate(168 5598)"><g transform="translate(0 0)"><path d="M317.108,2206.962a61.243,61.243,0,1,1-61.242-61.241A61.242,61.242,0,0,1,317.108,2206.962Z" transform="translate(-194.623 -2145.721)" fill="#fff"/><path d="M316.4,2206.189a61.241,61.241,0,1,0-61.242,61.244A61,61,0,0,0,316.4,2206.189Z" transform="translate(-193.912 -2144.948)" fill="url(#a)"/><path d="M295.588,2199.9a46.746,46.746,0,1,0-46.746,46.746A46.572,46.572,0,0,0,295.588,2199.9Z" transform="translate(-187.413 -2138.455)" fill="none" stroke="#26aab7" stroke-miterlimit="10" stroke-width="4"/><g transform="translate(10.85 34.383)"><path d="M305.988,2164.488a61.25,61.25,0,0,1-105.443,60.989,61.055,61.055,0,0,0,105.443-60.989Z" transform="translate(-200.545 -2164.488)" fill="#eceef0"/></g></g></g><g transform="translate(-50.798 5308.905)"><g transform="translate(263.92 364.846)"><path d="M266.026,375.283h-.008a5.18,5.18,0,0,1-1.731-.3.5.5,0,1,1,.335-.94,4.149,4.149,0,0,0,1.4.242h.006a4.169,4.169,0,0,0,.008-8.339,3.528,3.528,0,0,0-1.182.167.5.5,0,1,1-.28-.957,5.213,5.213,0,0,1,1.453-.207h.011a5.167,5.167,0,0,1-.01,10.334Z" transform="translate(-263.956 -364.949)" fill="#00223d"/></g><g transform="translate(257.789 364.84)"><path d="M262.975,375.278h-.01a5.167,5.167,0,0,1,.01-10.335h.008a5.174,5.174,0,0,1,5.158,5.175h0a5.167,5.167,0,0,1-5.166,5.159Zm0-9.337a4.17,4.17,0,0,0-.007,8.34h.008a4.17,4.17,0,0,0,.006-8.34Z" transform="translate(-257.81 -364.943)" fill="#00223d"/></g><g transform="translate(253.08 364.429)"><path d="M263.847,370.169a5.129,5.129,0,1,1-5.12-5.138,5.13,5.13,0,0,1,5.12,5.138Z" transform="translate(-253.09 -364.532)" fill="#00223d"/><path d="M258.717,375.789h-.009a5.629,5.629,0,0,1,.008-11.257h.01a5.629,5.629,0,0,1-.009,11.257Zm0-10.26a4.631,4.631,0,0,0-.006,9.262h.007a4.63,4.63,0,0,0,4.63-4.624h0a4.629,4.629,0,0,0-4.623-4.639Z" transform="translate(-253.089 -364.531)" fill="#00223d"/></g><g transform="translate(280.274 332.757)"><path d="M280.849,342.848h0a.5.5,0,0,1-.5-.5l.014-9.069a.5.5,0,0,1,.5-.5h0a.5.5,0,0,1,.5.5l-.014,9.069A.5.5,0,0,1,280.849,342.848Z" transform="translate(-280.35 -332.782)" fill="#00223d"/></g><g transform="translate(277.329 339.641)"><path d="M280.8,343.593h0a.5.5,0,0,1-.351-.146l-2.907-2.914a.5.5,0,0,1,.705-.705l2.555,2.562,2.562-2.556a.5.5,0,0,1,.705.705l-2.915,2.908A.5.5,0,0,1,280.8,343.593Z" transform="translate(-277.398 -339.683)" fill="#00223d"/></g><g transform="translate(280.591 353.368)"><path d="M281.166,363.894h0a.5.5,0,0,1-.5-.5l.016-9.454a.5.5,0,0,1,.5-.5h0a.5.5,0,0,1,.5.5l-.016,9.454A.5.5,0,0,1,281.166,363.894Z" transform="translate(-280.667 -353.443)" fill="#00223d"/></g><g transform="translate(277.644 360.253)"><path d="M281.122,364.256a.5.5,0,0,1-.353-.147L277.86,361.2a.5.5,0,0,1,.705-.705l2.558,2.562,2.561-2.556a.5.5,0,0,1,.705.705l-2.915,2.908A.494.494,0,0,1,281.122,364.256Z" transform="translate(-277.714 -360.345)" fill="#00223d"/></g><g transform="translate(266.051 352.572)"><path d="M266.592,363.985a.5.5,0,0,1-.388-.813l8.375-10.342a.5.5,0,1,1,.775.628L266.979,363.8A.5.5,0,0,1,266.592,363.985Z" transform="translate(-266.092 -352.645)" fill="#00223d"/></g><g transform="translate(265.357 359.04)"><path d="M266.229,364.227a.5.5,0,0,1-.5-.458l-.335-4.1a.5.5,0,0,1,.456-.538.5.5,0,0,1,.538.456l.3,3.6,3.607-.294a.5.5,0,0,1,.082.994l-4.1.335Z" transform="translate(-265.396 -359.129)" fill="#00223d"/></g><g transform="translate(286.302 352.592)"><path d="M295.229,364.035a.5.5,0,0,1-.389-.186L286.5,353.477a.5.5,0,1,1,.777-.624l8.339,10.371a.5.5,0,0,1-.389.812Z" transform="translate(-286.393 -352.665)" fill="#00223d"/></g><g transform="translate(290.895 359.091)"><path d="M295.6,364.278l-.042,0-4.1-.349a.5.5,0,0,1-.455-.54.522.522,0,0,1,.539-.455l3.606.307.307-3.6a.517.517,0,0,1,.539-.455.5.5,0,0,1,.455.539l-.349,4.1a.492.492,0,0,1-.175.339A.5.5,0,0,1,295.6,364.278Z" transform="translate(-290.997 -359.18)" fill="#00223d"/></g><g transform="translate(259.753 334.988)"><path d="M263.626,342.71h-.007a3.846,3.846,0,0,1,.008-7.692h.007a3.846,3.846,0,0,1-.008,7.692Zm0-6.695a2.849,2.849,0,0,0-.006,5.7h.005a2.849,2.849,0,0,0,.006-5.7Z" transform="translate(-259.778 -335.018)" fill="#00223d"/></g><g transform="translate(298.284 350.753)"><path d="M302.251,358.515h-.007a3.847,3.847,0,0,1,.008-7.693h.007a3.847,3.847,0,0,1-.008,7.693Zm-.005-1h.005a2.849,2.849,0,0,0,.006-5.7h-.005a2.849,2.849,0,0,0-.006,5.7Z" transform="translate(-298.404 -350.822)" fill="#00223d"/></g><g transform="translate(293.813 334.351)"><path d="M296.268,339.071h0a2.346,2.346,0,0,1,0-4.691h.005a2.346,2.346,0,0,1,0,4.691Zm0-3.694a1.348,1.348,0,0,0,0,2.7h0a1.348,1.348,0,0,0,0-2.7Z" transform="translate(-293.922 -334.379)" fill="#00223d"/></g><g transform="translate(275.304 322.728)"><path d="M280.91,333.813H280.9a5.542,5.542,0,0,1,.013-11.085h.008a5.548,5.548,0,0,1,5.53,5.551h0a5.54,5.54,0,0,1-5.539,5.533Zm0-10.087a4.545,4.545,0,0,0-.01,9.09h.01a4.545,4.545,0,0,0,.007-9.09Z" transform="translate(-275.368 -322.728)" fill="#00223d"/></g><g transform="translate(306.04 340.375)"><path d="M308.524,345.109h-.005a2.346,2.346,0,0,1,0-4.691h.005a2.346,2.346,0,0,1,0,4.691Zm0-3.694a1.348,1.348,0,0,0,0,2.7h0a1.348,1.348,0,0,0,0-2.7Z" transform="translate(-306.179 -340.418)" fill="#00223d"/></g><g transform="translate(257.761 353.337)"><path d="M260.129,358.1h0a2.349,2.349,0,0,1-2.342-2.349,2.352,2.352,0,0,1,2.343-2.341h.007a2.345,2.345,0,0,1,0,4.691Zm0-3.693a1.354,1.354,0,0,0-1.347,1.346,1.349,1.349,0,0,0,1.347,1.35h0a1.348,1.348,0,0,0,0-2.7Z" transform="translate(-257.782 -353.412)" fill="#00223d"/></g><g transform="translate(249.349 344.895)"><path d="M251.7,349.641h-.005a2.346,2.346,0,0,1,0-4.691h0a2.346,2.346,0,0,1,0,4.691Zm0-3.694a1.348,1.348,0,0,0,0,2.7h0a1.348,1.348,0,0,0,0-2.7Z" transform="translate(-249.349 -344.949)" fill="#00223d"/></g><g transform="translate(282.334 365.107)"><path d="M284.484,375.546h-.008a5.148,5.148,0,0,1-1.731-.3.5.5,0,1,1,.337-.94,4.155,4.155,0,0,0,1.4.242h.007a4.169,4.169,0,0,0,.008-8.339h-.009a4.208,4.208,0,0,0-1.174.168.5.5,0,1,1-.28-.957,4.949,4.949,0,0,1,1.465-.208,5.167,5.167,0,0,1-.011,10.334Z" transform="translate(-282.415 -365.211)" fill="#00223d"/></g><g transform="translate(276.201 365.102)"><path d="M281.43,375.541h-.008a5.167,5.167,0,0,1,.011-10.335h.008a5.176,5.176,0,0,1,5.158,5.176h0A5.173,5.173,0,0,1,281.43,375.541Zm0-9.337a4.17,4.17,0,0,0-.008,8.34h.007a4.17,4.17,0,0,0,.008-8.34Z" transform="translate(-276.267 -365.206)" fill="#00223d"/></g><g transform="translate(271.494 364.692)"><path d="M282.3,370.431a5.128,5.128,0,1,1-5.12-5.136,5.13,5.13,0,0,1,5.12,5.136Z" transform="translate(-271.549 -364.796)" fill="#00223d"/><path d="M277.175,376.052h-.009a5.629,5.629,0,0,1,.008-11.257h.01a5.625,5.625,0,0,1,5.618,5.636h0a5.628,5.628,0,0,1-5.627,5.621Zm0-10.26a4.631,4.631,0,0,0-.006,9.262h.007a4.631,4.631,0,0,0,.007-9.262Z" transform="translate(-271.548 -364.795)" fill="#00223d"/></g><g transform="translate(300.747 365.024)"><path d="M302.942,375.462h-.008a5.14,5.14,0,0,1-1.73-.3.5.5,0,1,1,.335-.939,4.165,4.165,0,0,0,1.4.241h.006a4.169,4.169,0,0,0,.009-8.339,3.837,3.837,0,0,0-1.184.169.507.507,0,0,1-.618-.34.5.5,0,0,1,.34-.618,5.2,5.2,0,0,1,1.453-.208h.011a5.167,5.167,0,0,1-.011,10.334Z" transform="translate(-300.873 -365.128)" fill="#00223d"/></g><g transform="translate(294.615 365.019)"><path d="M299.889,375.457h-.008a5.167,5.167,0,0,1,.008-10.334h.01a5.174,5.174,0,0,1,5.158,5.174h0a5.167,5.167,0,0,1-5.168,5.159Zm0-9.336a4.169,4.169,0,0,0-.006,8.339h.007a4.169,4.169,0,0,0,.007-8.339Z" transform="translate(-294.726 -365.123)" fill="#00223d"/></g><g transform="translate(289.907 364.608)"><path d="M300.763,370.347a5.128,5.128,0,1,1-5.12-5.136,5.129,5.129,0,0,1,5.12,5.136Z" transform="translate(-290.007 -364.712)" fill="#00223d"/><path d="M295.633,375.969h-.009a5.629,5.629,0,0,1,.008-11.258h.01a5.629,5.629,0,0,1-.009,11.258Zm0-10.26a4.631,4.631,0,0,0-.006,9.262h.007a4.63,4.63,0,0,0,4.63-4.626h0a4.627,4.627,0,0,0-4.623-4.637Z" transform="translate(-290.006 -364.711)" fill="#00223d"/></g><g transform="translate(282.428 343.867)"><path d="M284.579,354.253h-.008a5.161,5.161,0,0,1-1.731-.3.5.5,0,1,1,.335-.94,4.19,4.19,0,0,0,1.4.242h.006a4.169,4.169,0,0,0,.008-8.339h-.009a4.21,4.21,0,0,0-1.173.167.5.5,0,1,1-.28-.957,5.16,5.16,0,0,1,1.453-.207h.011a5.167,5.167,0,0,1-.01,10.334Z" transform="translate(-282.509 -343.919)" fill="#00223d"/></g><g transform="translate(276.296 343.861)"><path d="M281.526,354.248h-.008a5.167,5.167,0,0,1,.01-10.335h.008a5.167,5.167,0,0,1-.01,10.335Zm0-9.337a4.17,4.17,0,0,0-.007,8.34h.007a4.17,4.17,0,0,0,.007-8.34Z" transform="translate(-276.362 -343.913)" fill="#00223d"/></g><g transform="translate(271.588 343.45)"><path d="M282.4,349.138a5.129,5.129,0,1,1-5.12-5.137,5.132,5.132,0,0,1,5.12,5.137Z" transform="translate(-271.643 -343.502)" fill="#00223d"/><path d="M277.269,354.759h-.01a5.629,5.629,0,0,1,.01-11.257h.01a5.628,5.628,0,0,1,5.618,5.637h0a5.63,5.63,0,0,1-5.628,5.62Zm0-10.26a4.631,4.631,0,0,0-.008,9.262h.008a4.631,4.631,0,0,0,.008-9.262Z" transform="translate(-271.642 -343.501)" fill="#00223d"/></g></g></g></svg>