<svg xmlns="http://www.w3.org/2000/svg" xmlns:xlink="http://www.w3.org/1999/xlink" width="181.926" height="171.578" viewBox="0 0 181.926 171.578"><defs><linearGradient id="a" x1="0.5" x2="0.5" y2="1" gradientUnits="objectBoundingBox"><stop offset="0" stop-color="#fff"/><stop offset="1" stop-color="#d3d3d3"/></linearGradient><linearGradient id="c" y1="0.5" x2="1" y2="0.5" gradientUnits="objectBoundingBox"><stop offset="0" stop-color="#ff928e"/><stop offset="1" stop-color="#feb3b1"/></linearGradient><linearGradient id="f" x1="294.087" y1="1.605" x2="296.088" y2="4.278" xlink:href="#c"/><linearGradient id="g" x1="0.439" y1="-3.503" x2="0.505" y2="0.689" xlink:href="#c"/><linearGradient id="h" x1="0.511" y1="0.146" x2="0.456" y2="1.705" xlink:href="#c"/><linearGradient id="i" x1="-47.545" y1="17.427" x2="-48.867" y2="15.942" xlink:href="#c"/><linearGradient id="j" x1="-155.484" y1="82.575" x2="-159.791" y2="75.375" xlink:href="#c"/><linearGradient id="k" x1="1.66" y1="1.186" x2="0.085" y2="0.256" xlink:href="#c"/><linearGradient id="l" x1="0.892" y1="0.928" x2="-0.916" y2="-1.638" xlink:href="#c"/></defs><g transform="translate(-1298.469 -204.375)"><path d="M2722.9,874.888a.308.308,0,1,1,0-.617,26.589,26.589,0,1,0,0-53.178.308.308,0,1,1,0-.617,27.205,27.205,0,0,1,0,54.411Z" transform="translate(-1269.706 -566.629)" fill="#eff4ef"/><g transform="translate(1338.634 225.495)"><path d="M1957.133,547.916l-3.767,6.524h31.944l-3.766-6.524a6.562,6.562,0,0,0-5.819-3.359h-12.774A6.562,6.562,0,0,0,1957.133,547.916Z" transform="translate(-1918.162 -544.557)" fill-rule="evenodd" fill="url(#a)"/><rect width="101.737" height="143.018" rx="8" transform="translate(0.308 7.44)" fill="#00223d"/><rect width="84.94" height="126.221" transform="translate(8.707 15.838)" fill="#fdfdfd"/><path d="M1948.679,601.7v8.459a5.877,5.877,0,0,1-5.86,5.86h-29.7a5.877,5.877,0,0,1-5.86-5.86V601.7a1.683,1.683,0,0,1,1.68-1.68H1947A1.683,1.683,0,0,1,1948.679,601.7Z" transform="translate(-1876.792 -594.321)" fill-rule="evenodd" fill="url(#a)"/><path d="M1966.308,632.668a1.138,1.138,0,1,1,0-2.276h27.243a1.138,1.138,0,0,1,0,2.276Z" transform="translate(-1928.753 -621.572)" fill="#dbdada" fill-rule="evenodd"/><path d="M1966.308,685a1.138,1.138,0,1,1,0-2.276h27.243a1.138,1.138,0,0,1,0,2.276Z" transform="translate(-1928.753 -668.528)" fill="#dbdada" fill-rule="evenodd"/><g transform="translate(25.108 33.686)"><g transform="translate(0 78.9)"><path d="M1856.173,1640.216h50a1.068,1.068,0,0,1,0,2.137h-50a1.068,1.068,0,0,1,0-2.137Z" transform="translate(-1855.105 -1640.216)" fill="#dbdada" fill-rule="evenodd"/><path d="M1856.173,1689.286h50a1.068,1.068,0,0,1,0,2.137h-50a1.068,1.068,0,0,1,0-2.137Z" transform="translate(-1855.105 -1684.244)" fill="#dbdada" fill-rule="evenodd"/><path d="M1856.173,1738.353h30.119a1.068,1.068,0,0,1,0,2.137h-30.119a1.068,1.068,0,0,1,0-2.137Z" transform="translate(-1855.105 -1728.269)" fill="#dbdada" fill-rule="evenodd"/></g><g transform="translate(0 47.997)"><path d="M1857.9,1345.413l.978-.978a.326.326,0,0,1,.461,0l1.629,1.629,2.933-2.933a.326.326,0,0,1,.461,0l.978.978a.326.326,0,0,1,0,.461l-4.141,4.141a.326.326,0,0,1-.461,0l-2.837-2.837a.326.326,0,0,1,0-.461Zm-1.494-5.931a1.307,1.307,0,0,0-1.3,1.3v10.428a1.307,1.307,0,0,0,1.3,1.3h10.427a1.307,1.307,0,0,0,1.3-1.3v-10.428a1.307,1.307,0,0,0-1.3-1.3Z" transform="translate(-1855.106 -1339.482)" fill="#26aab7" fill-rule="evenodd"/><rect width="33.89" height="3.437" rx="1.718" transform="translate(18.248)" fill="#dbdada"/><path d="M2033.762,1398.833h31.753a1.068,1.068,0,1,1,0,2.137h-31.753a1.068,1.068,0,0,1,0-2.137Z" transform="translate(-2014.446 -1392.734)" fill="#dbdada" fill-rule="evenodd"/><path d="M2033.762,1445.535h23.087a1.068,1.068,0,0,1,0,2.136h-23.087a1.068,1.068,0,1,1,0-2.136Z" transform="translate(-2014.446 -1434.637)" fill="#dbdada" fill-rule="evenodd"/></g><g transform="translate(0 23.999)"><path d="M1857.9,1111.863l.978-.978a.326.326,0,0,1,.461,0l1.629,1.629,2.933-2.933a.326.326,0,0,1,.461,0l.978.978a.326.326,0,0,1,0,.461l-4.141,4.141a.325.325,0,0,1-.461,0l-2.837-2.837a.326.326,0,0,1,0-.461Zm-1.494-5.931a1.307,1.307,0,0,0-1.3,1.3v10.428a1.307,1.307,0,0,0,1.3,1.3h10.427a1.307,1.307,0,0,0,1.3-1.3v-10.428a1.307,1.307,0,0,0-1.3-1.3Z" transform="translate(-1855.106 -1105.932)" fill="#26aab7" fill-rule="evenodd"/><rect width="33.89" height="3.437" rx="1.718" transform="translate(18.248)" fill="#dbdada"/><path d="M2033.762,1165.284h31.753a1.068,1.068,0,1,1,0,2.136h-31.753a1.068,1.068,0,1,1,0-2.136Z" transform="translate(-2014.446 -1159.185)" fill="#dbdada" fill-rule="evenodd"/><path d="M2033.762,1211.985h23.087a1.068,1.068,0,0,1,0,2.137h-23.087a1.068,1.068,0,0,1,0-2.137Z" transform="translate(-2014.446 -1201.087)" fill="#dbdada" fill-rule="evenodd"/></g><g transform="translate(0)"><path d="M1857.9,878.314l.978-.978a.326.326,0,0,1,.461,0l1.629,1.629,2.933-2.933a.326.326,0,0,1,.461,0l.978.978a.326.326,0,0,1,0,.461l-4.141,4.141a.326.326,0,0,1-.461,0l-2.837-2.837a.326.326,0,0,1,0-.461Zm-1.494-5.931a1.307,1.307,0,0,0-1.3,1.3v10.428a1.307,1.307,0,0,0,1.3,1.3h10.427a1.307,1.307,0,0,0,1.3-1.3V873.687a1.307,1.307,0,0,0-1.3-1.3Z" transform="translate(-1855.106 -872.383)" fill="#26aab7" fill-rule="evenodd"/><rect width="33.89" height="3.437" rx="1.718" transform="translate(18.248)" fill="#dbdada"/><path d="M2033.762,931.734h31.753a1.068,1.068,0,1,1,0,2.137h-31.753a1.068,1.068,0,0,1,0-2.137Z" transform="translate(-2014.446 -925.635)" fill="#dbdada" fill-rule="evenodd"/><path d="M2033.762,978.436h23.087a1.068,1.068,0,0,1,0,2.137h-23.087a1.068,1.068,0,0,1,0-2.137Z" transform="translate(-2014.446 -967.538)" fill="#dbdada" fill-rule="evenodd"/></g></g><path d="M1808.432,1924.664h-77a.308.308,0,1,1,0-.616h77a.308.308,0,1,1,0,.616Z" transform="translate(-1718.754 -1782.296)" fill="#8673c6"/><path d="M1710.837,755.623a.308.308,0,0,1-.218-.526,6.366,6.366,0,0,0,1.881-4.529V712.709a.308.308,0,0,1,.617,0v37.859a6.978,6.978,0,0,1-2.062,4.965A.307.307,0,0,1,1710.837,755.623Zm-97.794,0a.308.308,0,0,1-.218-.09,6.978,6.978,0,0,1-2.062-4.965V712.709a.308.308,0,0,1,.617,0v37.859a6.366,6.366,0,0,0,1.881,4.529.308.308,0,0,1-.218.526Zm99.765-46.9a.308.308,0,0,1-.308-.308v-3.772a.308.308,0,1,1,.617,0v3.772A.308.308,0,0,1,1712.808,708.724Zm-101.737,0a.308.308,0,0,1-.308-.308v-3.772a.308.308,0,1,1,.617,0v3.772A.308.308,0,0,1,1611.071,708.724Zm101.737-41.5a.308.308,0,0,1-.308-.308v-3.772a.308.308,0,1,1,.617,0v3.772A.308.308,0,0,1,1712.808,667.22Zm-101.737,0a.308.308,0,0,1-.308-.308v-3.772a.308.308,0,1,1,.617,0v3.772A.308.308,0,0,1,1611.071,667.22Zm101.737-8.065a.308.308,0,0,1-.308-.308V620.987a6.418,6.418,0,0,0-6.41-6.41h-15.6a.308.308,0,0,1,0-.617h15.6a7.035,7.035,0,0,1,7.027,7.027v37.859A.308.308,0,0,1,1712.808,659.154Zm-101.737,0a.308.308,0,0,1-.308-.308V620.987a7.035,7.035,0,0,1,7.027-7.027h15.6a.308.308,0,0,1,0,.617h-15.6a6.418,6.418,0,0,0-6.411,6.41v37.859A.308.308,0,0,1,1611.071,659.154Z" transform="translate(-1610.763 -606.828)" fill="#8673c6"/></g><g transform="translate(1317.506 229.168)"><g transform="translate(2.398 2.407)"><path d="M1371.57,209.234a18.424,18.424,0,0,1-24.064,27.78l-6.527,2.811,2.811-6.527a18.424,18.424,0,0,1,27.78-24.064Z" transform="translate(-1339.811 -203.538)" fill="#fdfdfd" fill-rule="evenodd"/><path d="M1355.854,238.377a18.712,18.712,0,0,1-11.081-3.625l-6.364,2.741a.308.308,0,0,1-.405-.405l2.741-6.364a18.734,18.734,0,1,1,16.367,7.611Q1356.482,238.377,1355.854,238.377Zm-11.04-4.286a.309.309,0,0,1,.185.062,18.116,18.116,0,1,0-1.958-27.316,18.191,18.191,0,0,0-1.7,23.661.308.308,0,0,1,.036.307l-2.5,5.816,5.816-2.5A.307.307,0,0,1,1344.814,234.091Z" transform="translate(-1337.12 -200.923)" fill="#00223d"/></g><circle cx="15.659" cy="15.659" r="15.659" transform="translate(5.47 5.471)" fill="#00223d"/><path d="M1334.9,219.759a21.057,21.057,0,0,1-11.473-3.389.308.308,0,0,1,.336-.517,20.52,20.52,0,0,0,22.252.024.308.308,0,0,1,.334.518A21.126,21.126,0,0,1,1334.9,219.759Zm15.02-6.4a.308.308,0,0,1-.222-.522,20.46,20.46,0,0,0,2.577-25.139.308.308,0,1,1,.522-.329,21.227,21.227,0,0,1,3.142,13.3,20.9,20.9,0,0,1-5.8,12.6A.307.307,0,0,1,1349.925,213.364Zm-32.495-3.114a.308.308,0,0,1-.259-.14,21.15,21.15,0,0,1-3.273-13.673.308.308,0,1,1,.613.064,20.531,20.531,0,0,0,3.177,13.273.308.308,0,0,1-.258.476ZM1315.281,192a.308.308,0,0,1-.291-.411,21.132,21.132,0,0,1,25.855-13.243.308.308,0,1,1-.173.592,20.516,20.516,0,0,0-25.1,12.856A.308.308,0,0,1,1315.281,192Zm34.244-7.894a.308.308,0,0,1-.216-.089,20.551,20.551,0,0,0-4.268-3.229.308.308,0,1,1,.3-.536,21.167,21.167,0,0,1,4.4,3.326.308.308,0,0,1-.216.528Z" transform="translate(-1313.784 -177.498)" fill="#00223d"/></g><circle cx="3.545" cy="3.545" r="3.545" transform="translate(1359.762 218.405)" fill="#eff4ef"/><circle cx="23.69" cy="23.69" r="23.69" transform="translate(1429.499 257.363)" fill="#5b7393"/><circle cx="20.53" cy="20.53" r="20.53" transform="translate(1432.659 260.523)" fill="#fff"/><circle cx="19.247" cy="19.247" r="19.247" transform="translate(1433.942 261.807)" fill="#fff"/><path d="M2744.834,917.177a19.247,19.247,0,0,0-19.247-19.247v19.247Z" transform="translate(-1272.398 -636.123)" fill="#dee7f3" fill-rule="evenodd"/><circle cx="0.642" cy="0.642" r="0.642" transform="translate(1452.547 264.373)" fill="#00223d"/><path d="M2641.621,943.9a.642.642,0,1,0,.876.235A.642.642,0,0,0,2641.621,943.9Z" transform="translate(-1196.771 -677.293)" fill="#00223d" fill-rule="evenodd"/><path d="M2584.253,1001.267a.642.642,0,1,0,.877-.235A.642.642,0,0,0,2584.253,1001.267Z" transform="translate(-1145.51 -728.554)" fill="#00223d" fill-rule="evenodd"/><path d="M2563.257,1079.632a.642.642,0,1,0,.641-.642A.641.641,0,0,0,2563.257,1079.632Z" transform="translate(-1126.749 -798.578)" fill="#00223d" fill-rule="evenodd"/><path d="M2584.253,1157.995a.642.642,0,1,0,.235-.876A.642.642,0,0,0,2584.253,1157.995Z" transform="translate(-1145.51 -868.601)" fill="#00223d" fill-rule="evenodd"/><path d="M2641.621,1215.362a.642.642,0,1,0-.235-.876A.642.642,0,0,0,2641.621,1215.362Z" transform="translate(-1196.771 -919.863)" fill="#00223d" fill-rule="evenodd"/><path d="M2719.986,1236.359a.642.642,0,1,0-.642-.641A.641.641,0,0,0,2719.986,1236.359Z" transform="translate(-1266.796 -938.626)" fill="#00223d" fill-rule="evenodd"/><path d="M2798.348,1215.361a.642.642,0,1,0-.876-.235A.642.642,0,0,0,2798.348,1215.361Z" transform="translate(-1336.819 -919.862)" fill="#00223d" fill-rule="evenodd"/><path d="M2855.714,1157.995a.642.642,0,1,0-.876.235A.641.641,0,0,0,2855.714,1157.995Z" transform="translate(-1388.079 -868.601)" fill="#00223d" fill-rule="evenodd"/><path d="M2876.713,1079.633a.642.642,0,1,0-.642.642A.642.642,0,0,0,2876.713,1079.633Z" transform="translate(-1406.844 -798.579)" fill="#00223d" fill-rule="evenodd"/><path d="M2855.715,1001.268a.641.641,0,1,0-.235.876A.641.641,0,0,0,2855.715,1001.268Z" transform="translate(-1388.08 -728.555)" fill="#00223d" fill-rule="evenodd"/><path d="M2798.349,943.9a.642.642,0,1,0,.235.876A.642.642,0,0,0,2798.349,943.9Z" transform="translate(-1336.82 -677.294)" fill="#00223d" fill-rule="evenodd"/><path d="M1.283,0h0A1.283,1.283,0,0,1,2.566,1.283v8.982a1.283,1.283,0,0,1-1.283,1.283h0A1.283,1.283,0,0,1,0,10.265V1.283A1.283,1.283,0,0,1,1.283,0Z" transform="translate(1451.906 269.505)" fill="#5b7393"/><rect width="14.114" height="2.566" rx="1.283" transform="translate(1453.189 279.77)" fill="#5b7393"/><path d="M2719.986,1099.348a.643.643,0,0,0,.641-.642v-12.831a.642.642,0,1,0-1.283,0v12.831A.644.644,0,0,0,2719.986,1099.348Z" transform="translate(-1266.796 -804.181)" fill="#5b7393" fill-rule="evenodd"/><path d="M3.849,0A3.849,3.849,0,1,1,0,3.849,3.849,3.849,0,0,1,3.849,0Z" transform="translate(1449.34 277.204)" fill="#00223d"/><circle cx="1.283" cy="1.283" r="1.283" transform="translate(1451.906 279.77)" fill="#dee7f3"/><path d="M1896.374,291.6a3.886,3.886,0,1,0,3.886,3.886,3.886,3.886,0,0,0-3.886-3.886Zm-1.052-4.949h2.1a.433.433,0,0,1,.4.244l.7,1.392a7.474,7.474,0,0,1,1.432.593l1.476-.492a.433.433,0,0,1,.452.107l.744.744.744.744a.432.432,0,0,1,.107.452l-.492,1.477a7.454,7.454,0,0,1,.593,1.432l1.392.7a.432.432,0,0,1,.244.4v2.1a.432.432,0,0,1-.244.4l-1.392.7a7.453,7.453,0,0,1-.593,1.432l.492,1.476a.433.433,0,0,1-.107.452l-.744.744-.744.744a.433.433,0,0,1-.452.107l-1.476-.492a7.468,7.468,0,0,1-1.432.593l-.7,1.392a.433.433,0,0,1-.4.244h-2.1a.433.433,0,0,1-.4-.244l-.7-1.392a7.466,7.466,0,0,1-1.432-.593l-1.477.492a.433.433,0,0,1-.452-.107l-.744-.744-.744-.744a.433.433,0,0,1-.107-.452l.492-1.477a7.465,7.465,0,0,1-.593-1.432l-1.392-.7a.433.433,0,0,1-.244-.4v-2.1a.432.432,0,0,1,.244-.4l1.392-.7a7.467,7.467,0,0,1,.593-1.431l-.492-1.477a.433.433,0,0,1,.107-.452l.744-.744.744-.744a.432.432,0,0,1,.452-.107l1.477.492a7.468,7.468,0,0,1,1.432-.593l.7-1.392A.433.433,0,0,1,1895.322,286.651Z" transform="translate(-588.569 -19.488)" fill="#eff4ef" stroke="#00223d" stroke-width="1" fill-rule="evenodd"/><g transform="translate(1457.133 317.727)"><path d="M2780.729,1462.335v-15.483a1.724,1.724,0,0,0-1.72-1.72h-10.322a1.725,1.725,0,0,0-1.72,1.72v15.483a1.724,1.724,0,0,0,1.72,1.72h10.322A1.723,1.723,0,0,0,2780.729,1462.335Z" transform="translate(-2766.659 -1444.824)" fill="#fff" fill-rule="evenodd"/><path d="M2776.318,1461.672H2766a2.031,2.031,0,0,1-2.028-2.028v-15.483a2.031,2.031,0,0,1,2.028-2.029h10.322a2.031,2.031,0,0,1,2.028,2.029v15.483A2.031,2.031,0,0,1,2776.318,1461.672ZM2766,1442.749a1.413,1.413,0,0,0-1.412,1.412v15.483a1.413,1.413,0,0,0,1.412,1.412h10.322a1.413,1.413,0,0,0,1.412-1.412v-15.483a1.413,1.413,0,0,0-1.412-1.412Z" transform="translate(-2763.967 -1442.132)" fill="#00223d"/><path d="M2797.99,1480.532h-8.6a.308.308,0,0,1-.308-.308v-4.3a.308.308,0,0,1,.308-.308h8.6a.308.308,0,0,1,.309.308v4.3A.308.308,0,0,1,2797.99,1480.532Zm-8.293-.617h7.985v-3.684H2789.7Z" transform="translate(-2786.5 -1472.174)" fill="#00223d"/><path d="M2790.249,1544.918a1.168,1.168,0,1,1,1.168-1.168A1.17,1.17,0,0,1,2790.249,1544.918Zm0-1.72a.552.552,0,1,0,.552.552A.552.552,0,0,0,2790.249,1543.2Z" transform="translate(-2786.5 -1532.26)" fill="#00223d"/><path d="M2823.73,1544.918a1.168,1.168,0,1,1,1.169-1.168A1.17,1.17,0,0,1,2823.73,1544.918Zm0-1.72a.552.552,0,1,0,.552.552A.552.552,0,0,0,2823.73,1543.2Z" transform="translate(-2816.541 -1532.26)" fill="#00223d"/><path d="M2857.214,1544.918a1.168,1.168,0,1,1,1.168-1.168A1.17,1.17,0,0,1,2857.214,1544.918Zm0-1.72a.552.552,0,1,0,.552.552A.552.552,0,0,0,2857.214,1543.2Z" transform="translate(-2846.584 -1532.26)" fill="#00223d"/><path d="M2790.249,1578.4a1.169,1.169,0,1,1,1.168-1.169A1.17,1.17,0,0,1,2790.249,1578.4Zm0-1.72a.552.552,0,1,0,.552.552A.552.552,0,0,0,2790.249,1576.681Z" transform="translate(-2786.5 -1562.302)" fill="#00223d"/><path d="M2823.73,1578.4a1.169,1.169,0,1,1,1.169-1.169A1.17,1.17,0,0,1,2823.73,1578.4Zm0-1.72a.552.552,0,1,0,.552.552A.552.552,0,0,0,2823.73,1576.681Z" transform="translate(-2816.541 -1562.302)" fill="#00223d"/><path d="M2857.214,1578.4a1.169,1.169,0,1,1,1.168-1.169A1.17,1.17,0,0,1,2857.214,1578.4Zm0-1.72a.552.552,0,1,0,.552.552A.552.552,0,0,0,2857.214,1576.681Z" transform="translate(-2846.584 -1562.302)" fill="#00223d"/></g><path d="M2719.85,654.065a.308.308,0,0,1-.218-.09l-2.942-2.942a.308.308,0,0,1,0-.436l2.942-2.942a.309.309,0,0,1,.436,0l2.942,2.942a.308.308,0,0,1,0,.436l-2.942,2.942A.306.306,0,0,1,2719.85,654.065Zm-2.506-3.25,2.506,2.506,2.506-2.506-2.506-2.506Z" transform="translate(-1264.333 -411.484)" fill="#eff4ef"/><g transform="translate(1425.828 204.375)"><g transform="translate(0 0)"><path d="M2503.384,335.339h14.981a1.876,1.876,0,0,0,1.872-1.872V319.422h-7.49l-1.872,1.872h-7.491a1.878,1.878,0,0,0-1.873,1.872v10.3A1.877,1.877,0,0,0,2503.384,335.339Z" transform="translate(-2501.203 -319.114)" fill="#eff4ef" fill-rule="evenodd"/><path d="M2515.673,332.955h-14.981a2.183,2.183,0,0,1-2.181-2.181v-10.3a2.183,2.183,0,0,1,2.181-2.181h7.363l1.782-1.782a.309.309,0,0,1,.218-.09h7.49a.308.308,0,0,1,.308.308v14.044A2.183,2.183,0,0,1,2515.673,332.955Zm-14.981-14.044a1.566,1.566,0,0,0-1.564,1.564v10.3a1.566,1.566,0,0,0,1.564,1.564h14.981a1.566,1.566,0,0,0,1.564-1.564V317.039h-7.054l-1.782,1.782a.308.308,0,0,1-.218.09Z" transform="translate(-2498.511 -316.422)" fill="#00223d"/></g><path d="M2539.945,371.71h-4.681a.308.308,0,1,1,0-.617h4.681a.308.308,0,1,1,0,.617Z" transform="translate(-2531.21 -365.475)" fill="#00223d"/><path d="M2537.136,408.156h-1.873a.308.308,0,1,1,0-.617h1.873a.308.308,0,0,1,0,.617Z" transform="translate(-2531.21 -398.176)" fill="#00223d"/></g><path d="M1429.328,282.747a10.308,10.308,0,1,0,9.711,6.83l-1.554,1.554a8.386,8.386,0,1,1-2.789-4.5l1.372-1.372a10.275,10.275,0,0,0-6.741-2.507Zm-5.425,9.293a1.289,1.289,0,1,1,1.823-1.823l3.6,3.6,8.114-8.114a1.289,1.289,0,1,1,1.823,1.823l-9.026,9.026a1.289,1.289,0,0,1-1.823,0Z" transform="translate(-90.693 -42.764)" fill="#fff" fill-rule="evenodd"/><path d="M2218.5,235.221a.308.308,0,0,1-.218-.09l-1.271-1.272a.308.308,0,0,1,.436-.436l1.272,1.272a.308.308,0,0,1-.218.526Zm-5.086,0a.308.308,0,0,1-.218-.526l1.272-1.272a.308.308,0,1,1,.436.436l-1.272,1.272A.307.307,0,0,1,2213.418,235.221Zm1.271-3.815a.307.307,0,0,1-.218-.09l-1.272-1.272a.308.308,0,0,1,.436-.436l1.272,1.272a.308.308,0,0,1-.218.526Zm2.543,0a.308.308,0,0,1-.218-.526l1.271-1.272a.308.308,0,0,1,.436.436l-1.272,1.272A.308.308,0,0,1,2217.233,231.407Z" transform="translate(-821.226 -22.05)" fill="#eff4ef"/><g transform="translate(1305.345 284.211)"><path d="M944.81,1485.612s-.318,1.8-.475,3.588a1.23,1.23,0,0,0,1.176,1.332c2.377.1,7.46.292,9.284.21a.4.4,0,0,0,.352-.548h0a.9.9,0,0,0-.458-.483l-8.4-3.859Z" transform="translate(-924.522 -1399.208)" fill="#12263f"/><path d="M946.042,1475.036l.256,2.156a2.676,2.676,0,0,0,2.476-.086l-.609-2.4Z" transform="translate(-926.014 -1389.691)" fill="url(#c)"/><path d="M901.964,1159.645c-.11.563-.593,28.1,2.351,40.444a.419.419,0,0,1-.246.487,7.291,7.291,0,0,1-2.4.487.722.722,0,0,1-.716-.518c-.841-2.863-4.873-17.21-5.4-30.914-.588-15.313,0-.521,0-.521l.345-9.466Z" transform="translate(-881.743 -1114.842)" fill="#5b7393"/><path d="M865.476,1492.981a12.975,12.975,0,0,0-1,3.329.75.75,0,0,0,.66.9c.785.077,1.993.176,2.961.17a.748.748,0,0,0,.74-.834,6.309,6.309,0,0,0-1.473-3.46Z" transform="translate(-854.847 -1405.636)" fill="#12263f"/><path d="M868.912,1470.383l.6,3.261a2.109,2.109,0,0,0,1.76.121l-.285-3.509Z" transform="translate(-858.728 -1385.812)" fill="url(#c)"/><path d="M849.922,1155.856c-2.408,14.53.522,35.912,1.51,40.1a.652.652,0,0,0,.527.5,4.379,4.379,0,0,0,1.883-.075.6.6,0,0,0,.43-.551c.133-3.383-.106-24.154,2.137-32.363a1.865,1.865,0,0,1,.719-1.029l4.354-3.1.334-5Z" transform="translate(-841.353 -1110.208)" fill="#5b7393"/><g transform="translate(7.67 6.942)"><path d="M865.453,942.5a67.831,67.831,0,0,0-15.176,1.894c-2.151,12.549-.376,27.024-.376,27.024,5.586,1.465,11.887-.9,11.887-.9.928-5.245,5.26-20.007,5.26-20.007a23.769,23.769,0,0,0,8.821-2.8,15.469,15.469,0,0,1-3.058-6.4A24.207,24.207,0,0,1,865.453,942.5Z" transform="translate(-849.213 -931.322)" fill="#12263f"/><path d="M1048.063,863.552a1.381,1.381,0,0,0-1.606-.451c-1.062,4.485-6.629,8.122-12.349,9.9a15.473,15.473,0,0,0,3.058,6.4C1046.659,874.058,1048.063,863.552,1048.063,863.552Z" transform="translate(-1010.511 -863.005)" fill="url(#c)"/></g><g transform="translate(43.616)"><path d="M1132.3,816.318c.074.236-.785.595-1.29-.369-.018-.462-.3-2.442-.023-2.819a36.89,36.89,0,0,1,4.322-4.519.679.679,0,0,1,.085.943l-1.383,1.441a6.7,6.7,0,0,1,.808,1.6,1.938,1.938,0,0,1-.193,1.427c-.243.437-.574,1.006-.887,1.451A1.914,1.914,0,0,1,1132.3,816.318Z" transform="translate(-1130.864 -808.611)" fill="url(#f)"/><path d="M1139.441,834.614l-1.26,1.069-.4,1.064,1.124,1.247a14.5,14.5,0,0,1,.659-2.568C1139.849,834.969,1139.7,834.748,1139.441,834.614Z" transform="translate(-1136.902 -831.295)" fill="url(#g)"/></g><path d="M806.678,972.387l-2.767-6.986s-6.739,4.579-7.848,10.385a15.331,15.331,0,0,1,5.676,1.591C802.763,975.074,806.678,972.387,806.678,972.387Z" transform="translate(-795.177 -945.39)" fill="#12263f"/><path d="M903.414,904.663l-2.3,6.639a.239.239,0,0,0,.109.288,5.4,5.4,0,0,0,5.6-.377,1.126,1.126,0,0,0,.519-.8l.743-5.746Z" transform="translate(-886.812 -892.404)" fill="url(#h)"/><g transform="translate(12.244 2.661)"><path d="M918.114,856.492s2.521,4.745,2.2,6.662-3.448,1.779-6.176.222l-1.906-5.124Z" transform="translate(-908.762 -853.042)" fill="url(#i)"/><path d="M890.553,837.276a.2.2,0,0,0,.085-.286,5.106,5.106,0,0,1-.7-1.489s-.453-.29,1.153-.675,4-.981,4.506-2.349c.491-1.333-.8-4.686-2.857-2.015a.2.2,0,0,1-.31,0,2.016,2.016,0,0,0-2.456-.8,1.849,1.849,0,0,0-1.266,1.787.194.194,0,0,1-.23.2,2.255,2.255,0,0,0-2.634,1.228,1.814,1.814,0,0,0,.13,2.177.2.2,0,0,1-.083.324,1.174,1.174,0,0,0-.828,1.339c.068,1.24,1.455,1.131,1.85,1.075a.2.2,0,0,1,.174.061,6.666,6.666,0,0,0,3.515,2.157.2.2,0,0,0,.207-.261l-.714-2.077a.2.2,0,0,1,.106-.244Z" transform="translate(-885.058 -829.457)" fill="#00223d"/><path d="M917.149,888.86s-1.795-1.232-1.926-.195,1.616,1.5,2.482,1.116Z" transform="translate(-911.367 -880.747)" fill="url(#j)"/></g><path d="M790.052,1044.93s-4.606,10.492,6.653,12.027l1.535-1.279a6.7,6.7,0,0,1-2.559-9.212S792.355,1043.65,790.052,1044.93Z" transform="translate(-789.12 -1014.478)" fill="url(#k)"/><path d="M850.093,1131.42h4.094s2.559,3.327,2.3,4.094-2.785.157-2.785.157l-1.309-2.2s-3.839.256-3.839-.768S850.093,1131.42,850.093,1131.42Z" transform="translate(-840.972 -1090.221)" fill="url(#l)"/></g></g></svg>