<svg xmlns="http://www.w3.org/2000/svg" xmlns:xlink="http://www.w3.org/1999/xlink" width="258.904" height="193.603" viewBox="0 0 258.904 193.603"><defs><linearGradient id="a" x1="0.5" x2="0.5" y2="1" gradientUnits="objectBoundingBox"><stop offset="0" stop-color="#fff"/><stop offset="1" stop-color="#d3d3d3"/></linearGradient></defs><g transform="translate(-55.847 -90.246)"><g transform="translate(35.849 100.685)"><g transform="translate(182.558 49.206)"><g transform="translate(62.302)"><path d="M394.536,191.57l-5.3,3.6,8.242,2.185v6.966l4.023-4.906,9.125,2.32,9.027-19.981Z" transform="translate(-388.867 -177.899)" fill="#a7a9ac" style="mix-blend-mode:multiply;isolation:isolate"/><path d="M399.832,201.091v6.565l5.634-5.963Z" transform="translate(-392.109 -183.816)" fill="#fff"/><path d="M401.868,194.074,424.055,176.2,413.48,197.054Z" transform="translate(-392.732 -176.197)" fill="#fff"/><path d="M420.026,176.2,388.7,190.182l9.136,3.892Z" transform="translate(-388.703 -176.197)" fill="#fff"/><path d="M401.245,194.074l-1.413-.6,23.6-17.275Z" transform="translate(-392.109 -176.197)" fill="#19365a"/></g><path d="M367.487,214.257c-6.635,5.925-15.916,8.145-24.809,8a27.677,27.677,0,0,1-11.331-2.2,10.919,10.919,0,0,1-4.637-3.735,6.081,6.081,0,0,1-.631-5.742,4.261,4.261,0,0,1,4.974-2.359c2.043.7,3.037,3.21,2.6,5.325a9.389,9.389,0,0,1-3.661,5.182,24.925,24.925,0,0,1-15.181,4.947,46.737,46.737,0,0,1-15.891-3.028" transform="translate(-298.923 -185.943)" fill="none" stroke="#00223d" stroke-linecap="round" stroke-linejoin="round" stroke-width="0.85" stroke-dasharray="2.835"/></g><path d="M159.452,198.436a6.054,6.054,0,0,0,2.25-.347,4.119,4.119,0,0,0,1.364-1.017,6.427,6.427,0,1,0-11.05-5.465,3.071,3.071,0,0,0-5.756-.618c-.829-3.15-2.242-6.283-4.76-8.35s-6.329-2.793-9.086-1.058c-3.495,2.2-3.955,7.064-3.682,11.184-.18-2.728-5.59.224-6.126,1.566-2.221-1.629-6.431.119-4.413,2.825,1.7,2.278,7.562,1.842,9.96,1.834C138.587,198.955,149.024,198.708,159.452,198.436Z" transform="translate(-60.888 -128.341)" fill="#fff"/><path d="M362.768,123.118a6.049,6.049,0,0,0,2.249-.347,4.122,4.122,0,0,0,1.365-1.017,6.427,6.427,0,1,0-11.05-5.465,3.071,3.071,0,0,0-5.756-.618c-.828-3.15-2.242-6.283-4.76-8.35s-6.33-2.794-9.087-1.058c-3.495,2.2-3.954,7.064-3.682,11.184-.18-2.728-5.59.224-6.126,1.566-2.221-1.629-6.43.119-4.412,2.825,1.7,2.278,7.562,1.842,9.96,1.834C341.9,123.637,352.339,123.39,362.768,123.118Z" transform="translate(-123.115 -105.289)" fill="#eff4ef"/></g><g transform="translate(55.847 187.353)"><g transform="translate(132.074 34.623)"><path d="M8.061,0h6A8.061,8.061,0,0,1,22.12,8.061V32.346a0,0,0,0,1,0,0H0a0,0,0,0,1,0,0V8.061A8.061,8.061,0,0,1,8.061,0Z" transform="translate(24.448 25.686) rotate(6.242)" fill="#00223d"/><path d="M273.522,308a12.812,12.812,0,0,1-5.575-3.416c-3.659-3.716-5.371-9.38-5.088-16.835,0-.008,0-.016,0-.024a52.507,52.507,0,0,0-7.79-.278c-.473,12.451,3.9,19.431,7.712,23.093a19.948,19.948,0,0,0,9.126,5.159,4.008,4.008,0,0,0,.791.08,3.932,3.932,0,0,0,.824-7.78Z" transform="translate(-255.004 -282.321)" fill="#a05e47"/><path d="M274.353,322.479a4.081,4.081,0,0,0,4.812-3.164,4.039,4.039,0,0,0-3.146-4.783,13.227,13.227,0,0,1-5.754-3.526,15.537,15.537,0,0,1-1.752-2.142l-5.835,5.773a22.909,22.909,0,0,0,2.255,2.516A20.6,20.6,0,0,0,274.353,322.479Z" transform="translate(-257.343 -288.885)" fill="#525d54"/><path d="M262.638,281.31a1.9,1.9,0,0,0-.32-.939.7.7,0,0,0-.888-.208c-.423.291-.2.971-.409,1.439a1.147,1.147,0,0,1-.94.581,8.132,8.132,0,0,1-1.154-.037,3.974,3.974,0,0,0-3.9,3.243,1.37,1.37,0,0,0,.149,1.007,1.665,1.665,0,0,0,1.174.514,15.606,15.606,0,0,0,3.527.247c1.06-.086,2.816-.381,2.986-1.61A15.913,15.913,0,0,0,262.638,281.31Z" transform="translate(-254.991 -280.074)" fill="#a05e47"/><path d="M257.455,287.253a1.242,1.242,0,0,1-.141-.188.136.136,0,0,1,.044-.187.134.134,0,0,1,.187.044.538.538,0,0,0,.412.305c.3.017.631-.321.734-.452a.136.136,0,0,1,.2-.017.713.713,0,0,0,.611.253c.264-.065.4-.409.4-.412a.136.136,0,0,1,.115-.088.138.138,0,0,1,.13.065.617.617,0,0,0,.381.332.349.349,0,0,0,.262-.061c1.111-.8-.243-3.394-.257-3.42a.136.136,0,1,1,.241-.128c.061.116,1.477,2.833.18,3.765a.628.628,0,0,1-.47.112.742.742,0,0,1-.436-.271.828.828,0,0,1-.477.371.877.877,0,0,1-.754-.225,1.249,1.249,0,0,1-.87.45A.7.7,0,0,1,257.455,287.253Z" transform="translate(-255.696 -281.039)" fill="#632a1a"/><path d="M260.717,286.7a.138.138,0,0,1-.034-.071,19.124,19.124,0,0,0-.787-3.322.136.136,0,1,1,.241-.126,18.725,18.725,0,0,1,.815,3.4.137.137,0,0,1-.235.114Z" transform="translate(-256.487 -281.004)" fill="#632a1a"/><path d="M258.927,287.052a.131.131,0,0,1-.033-.068,18.629,18.629,0,0,0-.836-3.225.136.136,0,1,1,.237-.134,18.148,18.148,0,0,1,.866,3.311.136.136,0,0,1-.234.116Z" transform="translate(-255.924 -281.139)" fill="#632a1a"/><path d="M262.964,286.172a.135.135,0,0,1-.031-.129.668.668,0,0,1,.37-.424,6,6,0,0,1-.368-1.066,2.2,2.2,0,0,1,.038-1.189.833.833,0,0,1,.273-.415.741.741,0,0,1,.743-.048,1.533,1.533,0,0,1,.526.449,4.169,4.169,0,0,1,.824,1.632.136.136,0,1,1-.265.064,3.886,3.886,0,0,0-.77-1.524,1.254,1.254,0,0,0-.428-.373.465.465,0,0,0-.465.018.576.576,0,0,0-.179.285,1.938,1.938,0,0,0-.03,1.044,5.877,5.877,0,0,0,.365,1.042.221.221,0,0,1-.136.324.4.4,0,0,0-.234.255.137.137,0,0,1-.168.1A.142.142,0,0,1,262.964,286.172Z" transform="translate(-257.403 -280.916)" fill="#632a1a"/><path d="M272.218,321.415l1.9,24.586a24.331,24.331,0,0,0,13.389,2.112c7.837-.911,9.553-4.375,9.553-4.375s-1.354-24.124-1.581-24.364-1.155-8.166-12.494-6.547S272.218,321.415,272.218,321.415Z" transform="translate(-260.262 -290.032)" fill="#69746b"/><path d="M295.808,326.687s6.288,10.606,2.243,22.381c0,0,6.47-9.318,6.23-12.39S295.808,326.687,295.808,326.687Z" transform="translate(-267.483 -294.34)" fill="#525d54"/><path d="M309.538,331.484,300.285,316.8a3.934,3.934,0,0,0-6.657,4.194l8.117,12.885-5.7,12.4a9.809,9.809,0,0,0,7.15,3.286l6.592-14.342A3.934,3.934,0,0,0,309.538,331.484Z" transform="translate(-266.631 -290.751)" fill="#a05e47"/><g transform="translate(19.264 18.466)"><path d="M291.349,306.684l-2.456,6.364-3.963,1.539-2.179-2.835,1.477-3.828Z" transform="translate(-282.752 -306.684)" fill="#a05e47"/></g><path d="M289.384,310.747l-5.624-.272-.786,2.037C285.9,313.215,289.384,310.747,289.384,310.747Z" transform="translate(-263.555 -289.379)" fill="#774031"/><rect width="11.58" height="16.557" rx="5.79" transform="translate(20.779 4.652) rotate(21.098)" fill="#a05e47"/><path d="M291.135,289.936l-2.629-1.015a4.4,4.4,0,0,0-5.258,1.713,4.055,4.055,0,0,0,1.538,1.48,6.707,6.707,0,0,0,3.967.516,4.3,4.3,0,0,1,1.572-.035,1.21,1.21,0,0,1,.982,1.085,1.394,1.394,0,0,1-.709,1.041,2.739,2.739,0,0,0-.646.489,1.851,1.851,0,0,0-.316.978,4.228,4.228,0,0,0,1.674,4.609c.083.068.168.135.255.2l2.082-5.4A4.394,4.394,0,0,0,291.135,289.936Z" transform="translate(-263.639 -282.692)" fill="#171e26" opacity="0.3"/><path d="M296.872,305.755a1.419,1.419,0,1,1-.813-1.835A1.419,1.419,0,0,1,296.872,305.755Z" transform="translate(-266.969 -287.343)" fill="#a05e47"/><path d="M300.285,316.8a3.934,3.934,0,0,0-6.657,4.194l4.169,6.619a32.1,32.1,0,0,0,7-3.646Z" transform="translate(-266.631 -290.751)" fill="#525d54"/><path d="M303.511,364.5a2.967,2.967,0,0,1-.823,1.161,1.036,1.036,0,0,1-1.317-.008c-.172-.18-.265-.452-.5-.545-.291-.116-.591.124-.892.21a1.2,1.2,0,0,1-1.355-.791.957.957,0,0,0-.27-.491c-.347-.239-.877.217-1.22-.028-.263-.187-.189-.643-.446-.838-.139-.1-.333-.1-.494-.167a.747.747,0,0,1-.389-.73,2.2,2.2,0,0,1,.273-.831l.6-1.246a2.149,2.149,0,0,1,.443-.679,2.07,2.07,0,0,1,1.676-.3,9.331,9.331,0,0,1,3.223.91,4.655,4.655,0,0,1,2,1.92C304.409,362.815,303.851,363.8,303.511,364.5Z" transform="translate(-267.483 -304.285)" fill="#a05e47"/></g><g transform="translate(6.399 40.325)"><path d="M8.061,0h6A8.061,8.061,0,0,1,22.12,8.061V32.347a0,0,0,0,1,0,0H0a0,0,0,0,1,0,0V8.061A8.061,8.061,0,0,1,8.061,0Z" transform="translate(0 22.17)" fill="#00223d"/><g transform="translate(3.88)"><g transform="translate(16.217 21.749)"><path d="M105.073,320.026a3.937,3.937,0,0,1,5.258,1.83l6.116,12.647,14.366-5.344c.754,4.839,2.765,7.016,2.765,7.016l-17.688,6.977a3.938,3.938,0,0,1-4.956-1.962l-7.692-15.907A3.936,3.936,0,0,1,105.073,320.026Z" transform="translate(-102.849 -319.633)" fill="#a05e47"/><path d="M114.054,347.184a3.927,3.927,0,0,0,2.742-.03l6.552-2.584a22.585,22.585,0,0,1-5.36-6.3l-.635.236-2.368-4.9c-2.321-.8-6.455-.92-9.18-.9l6.035,12.481A3.929,3.929,0,0,0,114.054,347.184Z" transform="translate(-103.753 -323.635)" fill="#7f4637"/><path d="M107.278,330.949l3.516,4.538,5.835-3.286-5-10.34a3.93,3.93,0,0,0-4.357-2.126l-.183.1Z" transform="translate(-104.147 -319.638)" fill="#aaa5a5"/><path d="M146.907,331.169a1.838,1.838,0,0,1,.954-.067.67.67,0,0,1,.517.711c-.1.485-.79.538-1.126.9a1.1,1.1,0,0,0-.164,1.053,7.761,7.761,0,0,0,.464,1.011,3.829,3.829,0,0,1-1.421,4.682,1.322,1.322,0,0,1-.951.244,1.6,1.6,0,0,1-.9-.851,15.062,15.062,0,0,1-1.538-3.041c-.32-.975-.715-2.644.313-3.255A15.363,15.363,0,0,1,146.907,331.169Z" transform="translate(-114.953 -323.131)" fill="#a05e47"/><path d="M145.335,339.227a1.226,1.226,0,0,0,.22.055.132.132,0,0,0,.15-.11.129.129,0,0,0-.11-.15.52.52,0,0,1-.425-.251,1.075,1.075,0,0,1,.127-.821.131.131,0,0,0-.059-.183c-.273-.128-.425-.279-.452-.448a.688.688,0,0,1,.217-.507.131.131,0,0,0-.07-.225.594.594,0,0,1-.437-.214.345.345,0,0,1-.044-.256c.294-1.285,3.106-1.053,3.135-1.051a.131.131,0,1,0,.023-.262c-.125-.011-3.069-.253-3.411,1.248a.61.61,0,0,0,.076.459.719.719,0,0,0,.4.286.8.8,0,0,0-.151.562.846.846,0,0,0,.482.586,1.206,1.206,0,0,0-.074.942A.68.68,0,0,0,145.335,339.227Z" transform="translate(-115.499 -324.269)" fill="#7f4637"/><path d="M145.134,337.391a.127.127,0,0,0,.076,0,18.43,18.43,0,0,1,3.245-.543.131.131,0,0,0,.022-.262,18.093,18.093,0,0,0-3.33.55.13.13,0,0,0-.1.158A.128.128,0,0,0,145.134,337.391Z" transform="translate(-115.764 -324.821)" fill="#7f4637"/><path d="M145.522,339.11a.13.13,0,0,0,.073,0,17.937,17.937,0,0,1,3.178-.464.131.131,0,0,0,.031-.261,17.522,17.522,0,0,0-3.266.468.13.13,0,0,0-.1.156A.129.129,0,0,0,145.522,339.11Z" transform="translate(-115.883 -325.371)" fill="#7f4637"/><path d="M146.088,340.92a.132.132,0,0,0,.092,0,7.834,7.834,0,0,1,2.554-.5.132.132,0,0,0,.135-.128.134.134,0,0,0-.128-.135,8,8,0,0,0-2.657.516.132.132,0,0,0-.074.171A.13.13,0,0,0,146.088,340.92Z" transform="translate(-116.056 -325.914)" fill="#7f4637"/><path d="M144.785,334.775a.131.131,0,0,0,.126-.021.644.644,0,0,0,.239-.487,5.746,5.746,0,0,0,1.085-.071,2.127,2.127,0,0,0,1.043-.479.8.8,0,0,0,.266-.4.712.712,0,0,0-.235-.677,1.475,1.475,0,0,0-.595-.3,4.022,4.022,0,0,0-1.758-.121.131.131,0,0,0,.042.26,3.748,3.748,0,0,1,1.642.114,1.225,1.225,0,0,1,.492.241.45.45,0,0,1,.158.42.557.557,0,0,1-.187.266,1.866,1.866,0,0,1-.917.417,5.553,5.553,0,0,1-1.062.065.212.212,0,0,0-.237.242.381.381,0,0,1-.139.3.131.131,0,0,0-.021.185A.139.139,0,0,0,144.785,334.775Z" transform="translate(-115.657 -323.471)" fill="#7f4637"/></g><path d="M104.559,324.579,102.641,349.4a24.566,24.566,0,0,1-13.517,2.132c-7.912-.92-9.645-4.416-9.645-4.416s1.367-24.356,1.6-24.6,1.166-8.244,12.613-6.61S104.559,324.579,104.559,324.579Z" transform="translate(-79.479 -296.677)" fill="#dbdada"/><g transform="translate(11.565 12.125)"><path d="M96.145,305.763v6.887l4.121,3.305,2.134-2.294V309.52Z" transform="translate(-96.145 -305.763)" fill="#a05e47"/></g><path d="M97.384,310.969l5.4,1.788v2.2C99.769,314.559,97.384,310.969,97.384,310.969Z" transform="translate(-84.959 -295.232)" fill="#7f4637"/><rect width="11.691" height="16.716" rx="5.845" transform="translate(23.256 18.543) rotate(180)" fill="#a05e47"/><path d="M95.5,299.4c.189.466.813.84,1.181.5a.958.958,0,0,0,.234-.489,7.5,7.5,0,0,0,.124-2.991c-.189-1.165-.625-2.467.04-3.442a1.83,1.83,0,0,1,2.049-.677c.38.132.707.389,1.089.511a5.563,5.563,0,0,0,2.369-.184c1.46-.189,3.051.372,4.362-.3a2.6,2.6,0,0,0,1.367-1.928,1.183,1.183,0,0,0-1.117-1.435c-1.017-.187-2.083.3-3.085.042-.625-.16-1.161-.6-1.8-.7-.889-.14-1.728.4-2.6.6-.894.207-1.839.063-2.735.26a5.023,5.023,0,0,0-3.5,4.139,14.765,14.765,0,0,0,.45,5.69q.214,1.008.428,2.016a2.195,2.195,0,0,0,.76,1.486.423.423,0,0,0,.26.081c.251-.025.319-.355.316-.607a17.912,17.912,0,0,0-.491-3.669C95.349,298.659,95.355,299.049,95.5,299.4Z" transform="translate(-83.723 -288.291)" fill="#171c27"/><path d="M94.181,304.19a1.433,1.433,0,1,0,1.433-1.433A1.433,1.433,0,0,0,94.181,304.19Z" transform="translate(-83.979 -292.718)" fill="#a05e47"/><g transform="translate(2.593 20.526)"><path d="M119.438,350.368a.311.311,0,0,1,.285-.04.337.337,0,0,1,.12.189,1.438,1.438,0,0,0,1.141.967.965.965,0,0,0,1.055-.91,1.6,1.6,0,0,0-.5-.922,2.845,2.845,0,0,0,1.706,1.154.4.4,0,0,0,.244-.037.4.4,0,0,0,.152-.232,1.629,1.629,0,0,0-.151-1.33,2.126,2.126,0,0,0,.643.482.72.72,0,0,0,.759-.094c.31-.3.156-.813-.019-1.207q-.284-.639-.569-1.278a6.549,6.549,0,0,0-.765-1.4,5.072,5.072,0,0,0-2.193-1.477,11.079,11.079,0,0,0-5.538-.663.969.969,0,0,0-.352.1.979.979,0,0,0-.377.663,12.306,12.306,0,0,0,.083,6.113c.221.8.511,1.02,1.367.942A8.45,8.45,0,0,0,119.438,350.368Z" transform="translate(-92.86 -325.705)" fill="#a05e47"/><g transform="translate(0.158 0.278)"><path d="M87.022,318.287a3.936,3.936,0,0,1,4.278,3.563l1.277,13.991,15.326-.111a47.258,47.258,0,0,0-1.049,7.953l-17.841.058a3.938,3.938,0,0,1-3.949-3.579l-1.606-17.6A3.936,3.936,0,0,1,87.022,318.287Z" transform="translate(-83.443 -318.27)" fill="#a05e47"/></g><path d="M123.541,351.227a19.02,19.02,0,0,0-1.409-2.551,1.6,1.6,0,0,0-1.334-.607" transform="translate(-94.718 -327.111)" fill="none" stroke="#7f4637" stroke-linecap="round" stroke-linejoin="round" stroke-width="0.567"/><path d="M126.105,350.021l-1.229-2.711a2.512,2.512,0,0,0-1.584-1.188" transform="translate(-95.481 -326.516)" fill="none" stroke="#7f4637" stroke-linecap="round" stroke-linejoin="round" stroke-width="0.567"/><path d="M91.354,321.577a4.077,4.077,0,1,0-8.121.741l1.062,11.646,8.094-1.037Z" transform="translate(-83.215 -317.869)" fill="#aaa5a5"/><path d="M83.443,325.663l.922,10.1s6.195-.791,8.094-1.037l-1-10.978" transform="translate(-83.285 -319.669)" fill="none" stroke="#00223d" stroke-linecap="round" stroke-linejoin="round" stroke-width="0.283"/></g><path d="M93.826,316.142l2.775,5.494,2.974-2.266,2.86,2.051a12.892,12.892,0,0,0,1.019-3.523" transform="translate(-83.87 -296.815)" fill="none" stroke="#00223d" stroke-linecap="round" stroke-linejoin="round" stroke-width="0.283"/><path d="M101.439,321.25l-.167,8.916h1.941" transform="translate(-86.149 -298.378)" fill="none" stroke="#00223d" stroke-linecap="round" stroke-linejoin="round" stroke-width="0.283"/></g></g><g transform="translate(70.768 41.21)"><path d="M8.061,0h6A8.061,8.061,0,0,1,22.12,8.061V32.347a0,0,0,0,1,0,0H0a0,0,0,0,1,0,0V8.061A8.061,8.061,0,0,1,8.061,0Z" transform="translate(0 22.532) rotate(-7.91)" fill="#00223d"/><g transform="translate(9.395)"><path d="M196.648,290.728a9.009,9.009,0,0,0-3.214-.664,9.959,9.959,0,0,0-3.2.168,5.544,5.544,0,0,0-3.209,3.085,12.751,12.751,0,0,0-.9,3.12c-.182,1.015-.416,2-.54,3.03-.268,2.214-.288,4.452-.646,6.655-.656,4.042-2.419,7.808-3.609,11.726s-1.778,8.277-.114,12.018a1.98,1.98,0,0,0,.588.842,2.121,2.121,0,0,0,.894.307,32.99,32.99,0,0,0,5.93.5,5.405,5.405,0,0,0,2.111-.318,4.278,4.278,0,0,0,1.486-1.154c1.583-1.8,2.24-4.211,2.849-6.531l1.753-6.669c1.631-6.205,3.271-12.477,3.454-18.891.062-2.186-.153-4.623-1.761-6.105A6.18,6.18,0,0,0,196.648,290.728Z" transform="translate(-180.186 -289.705)" fill="#00223d"/><g transform="translate(12.695 18.731)"><path d="M225.848,328.276c-16.115,2.334-20.917-9.126-21.126-9.654a3.23,3.23,0,0,0-6.03,2.318,22.213,22.213,0,0,0,6.038,8.162c3.835,3.327,10.586,6.96,21.149,5.686.293-.035.591-.075.89-.118A17.951,17.951,0,0,0,225.848,328.276Z" transform="translate(-198.48 -316.558)" fill="#dba38d"/><path d="M240.363,331.212a2.3,2.3,0,0,1,1.314-.226c.44.1.817.591.628,1-.161.35-.674.59-.554.956a.617.617,0,0,0,.228.273c1.185.922,2.772,1.1,4.155,1.684a2.217,2.217,0,0,1,1.425,1.345,1.663,1.663,0,0,1-.419,1.432,3.747,3.747,0,0,1-1.265.874,10.612,10.612,0,0,1-8,.4,2.08,2.08,0,0,1-.8-.439,2.309,2.309,0,0,1-.446-.769,7.263,7.263,0,0,1-.544-1.682,4.1,4.1,0,0,1,1.112-3.314C238.139,331.724,239.155,331.675,240.363,331.212Z" transform="translate(-209.979 -320.965)" fill="#dba38d"/><path d="M207.823,323.143a15.31,15.31,0,0,1-3.1-4.521,3.23,3.23,0,0,0-6.03,2.318,21.5,21.5,0,0,0,4.473,6.672A22.671,22.671,0,0,0,207.823,323.143Z" transform="translate(-198.48 -316.558)" fill="#496386"/><path d="M203.224,328.581a.107.107,0,0,1-.09-.032,21.667,21.667,0,0,1-4.5-6.709.108.108,0,0,1,.062-.139.106.106,0,0,1,.139.062,21.4,21.4,0,0,0,4.386,6.569,22.793,22.793,0,0,0,4.5-4.319,15.4,15.4,0,0,1-3.06-4.49.108.108,0,0,1,.2-.079,15.193,15.193,0,0,0,3.078,4.486.107.107,0,0,1,.008.139,22.911,22.911,0,0,1-4.681,4.492A.1.1,0,0,1,203.224,328.581Z" transform="translate(-198.526 -317.421)" fill="#5b7393"/></g><path d="M200.663,321.935a37.791,37.791,0,0,1,.1,6.586c-.115,4.853.044,9.821,1.652,14.427.545,1.561,1.05,2.958-.181,4.327-2.449,2.722-8.236,3.352-11.6,3.452-2.151.064-9.323-.06-10.238-3.066-.3-.975.785-3.188.972-4.23a42.191,42.191,0,0,0,.18-7.1,39.443,39.443,0,0,0-.747-9.1,11.923,11.923,0,0,1,.629-8,6.848,6.848,0,0,1,2.811-3.3,12.406,12.406,0,0,1,5.746-1.219c2.26-.008,5.23.11,7.264,1.2,1.917,1.027,2.963,3.563,3.341,5.577Q200.628,321.706,200.663,321.935Z" transform="translate(-180.233 -297.259)" fill="#5b7393"/><g transform="translate(5.731)"><g transform="translate(0 0.573)"><path d="M196.826,309.542l.117,4.154s.028,2-3.038,1.971a3.1,3.1,0,0,1-3.264-2.808l-.194-6.907Z" transform="translate(-189.057 -295.155)" fill="#eeb399"/><path d="M191.83,310.936l5.462,1.64.062,2.211C194.323,314.469,191.83,310.936,191.83,310.936Z" transform="translate(-189.48 -296.68)" fill="#c18b76"/><rect width="11.729" height="16.77" rx="5.864" transform="translate(13.291 16.763) rotate(178.388)" fill="#eeb399"/><path d="M188.445,304.209a1.437,1.437,0,1,0,1.4-1.477A1.437,1.437,0,0,0,188.445,304.209Z" transform="translate(-188.444 -294.169)" fill="#eeb399"/></g><path d="M202.043,292.461s-4.949,6.715-12.365,6.255c0,0-1.641-8.862,5.574-9.126A8.366,8.366,0,0,1,202.043,292.461Z" transform="translate(-188.772 -289.566)" fill="#00223d"/></g><g transform="translate(1.687 18.935)"><path d="M204.173,338.112C188.618,333.3,189.2,320.887,189.24,320.32a3.23,3.23,0,0,0-6.441-.5,22.217,22.217,0,0,0,1.949,9.964c2.034,4.652,6.571,10.831,16.657,14.217q.421.142.854.276A17.954,17.954,0,0,0,204.173,338.112Z" transform="translate(-182.663 -316.852)" fill="#eeb399"/><path d="M190.1,325.735a15.289,15.289,0,0,1-.859-5.415,3.23,3.23,0,0,0-6.441-.5,21.505,21.505,0,0,0,1.175,7.947A22.684,22.684,0,0,0,190.1,325.735Z" transform="translate(-182.663 -316.852)" fill="#496386"/><path d="M183.892,329.136a.11.11,0,0,1-.068-.068,21.649,21.649,0,0,1-1.179-7.989.108.108,0,1,1,.214.017,21.386,21.386,0,0,0,1.14,7.815,22.76,22.76,0,0,0,5.921-1.967,15.4,15.4,0,0,1-.835-5.368.109.109,0,0,1,.115-.1.108.108,0,0,1,.1.115,15.214,15.214,0,0,0,.853,5.372.106.106,0,0,1-.052.13,22.927,22.927,0,0,1-6.156,2.046A.107.107,0,0,1,183.892,329.136Z" transform="translate(-182.616 -318.115)" fill="#5b7393"/><path d="M215.586,347.436a2.306,2.306,0,0,1,1.284.361.8.8,0,0,1,.138,1.174c-.3.246-.863.244-.912.625a.609.609,0,0,0,.089.345c.675,1.341,2.031,2.183,3.028,3.305a2.217,2.217,0,0,1,.71,1.827,1.664,1.664,0,0,1-.994,1.113,3.759,3.759,0,0,1-1.518.246,10.615,10.615,0,0,1-7.4-3.069,2.077,2.077,0,0,1-.532-.738,2.3,2.3,0,0,1-.073-.885,7.291,7.291,0,0,1,.232-1.754,4.1,4.1,0,0,1,2.427-2.516C213.358,346.944,214.3,347.335,215.586,347.436Z" transform="translate(-190.814 -326.141)" fill="#eeb399"/></g></g></g><g transform="translate(0 41.024)"><path d="M8.061,0h6A8.061,8.061,0,0,1,22.12,8.061V32.347a0,0,0,0,1,0,0H0a0,0,0,0,1,0,0V8.061A8.061,8.061,0,0,1,8.061,0Z" transform="translate(229.586 20.392)" fill="#19365a"/><path d="M377.6,320.523a3.9,3.9,0,0,0-5.515-.054l-9.935,9.743-11.7-9.627c-2.323,4.259-4.89,5.622-4.89,5.622l14.215,12.254a3.9,3.9,0,0,0,5.276-.17l12.5-12.254A3.9,3.9,0,0,0,377.6,320.523Z" transform="translate(-150.637 -298.497)" fill="#eeb399"/><path d="M385.161,320.523a3.9,3.9,0,0,0-5.515-.054l-9.39,9.209c.74,1.867,2.2,4.982,4.236,6.769l10.615-10.41A3.9,3.9,0,0,0,385.161,320.523Z" transform="translate(-158.195 -298.497)" fill="#aaa5a5"/><path d="M346.7,316.98a1.813,1.813,0,0,0-.867-.382.663.663,0,0,0-.72.49c-.068.486.557.766.747,1.218a1.1,1.1,0,0,1-.2,1.036,7.853,7.853,0,0,1-.771.788,3.792,3.792,0,0,0-.243,4.84,1.306,1.306,0,0,0,.8.546,1.589,1.589,0,0,0,1.12-.493,14.936,14.936,0,0,0,2.452-2.319c.624-.8,1.551-2.226.8-3.14A15.249,15.249,0,0,0,346.7,316.98Z" transform="translate(-150.124 -297.653)" fill="#eeb399"/><path d="M347.262,325.128a1.163,1.163,0,0,1-.223-.023.13.13,0,0,1-.1-.152.128.128,0,0,1,.153-.1.513.513,0,0,0,.48-.092,1.067,1.067,0,0,0,.157-.808.127.127,0,0,1,.025-.1.131.131,0,0,1,.091-.05.524.524,0,0,0,.539-.812.13.13,0,0,1,.141-.187.591.591,0,0,0,.48-.054.338.338,0,0,0,.127-.224c.157-1.3-2.543-2.021-2.57-2.029a.13.13,0,1,1,.066-.251c.121.031,2.947.792,2.763,2.305a.6.6,0,0,1-.224.4.707.707,0,0,1-.473.131.8.8,0,0,1-.047.575.84.84,0,0,1-.645.384,1.2,1.2,0,0,1-.246.9A.674.674,0,0,1,347.262,325.128Z" transform="translate(-150.912 -298.768)" fill="#b57359"/><path d="M348.065,323.477a.13.13,0,0,1-.072-.022,18.252,18.252,0,0,0-2.844-1.593.13.13,0,0,1,.067-.25,17.873,17.873,0,0,1,2.92,1.626.13.13,0,0,1-.072.239Z" transform="translate(-150.481 -299.187)" fill="#b57359"/><path d="M347.154,324.961a.127.127,0,0,1-.069-.02,17.783,17.783,0,0,0-2.808-1.5.13.13,0,0,1,.059-.253,17.329,17.329,0,0,1,2.887,1.53.13.13,0,0,1-.069.239Z" transform="translate(-150.213 -299.67)" fill="#b57359"/><path d="M346.275,326.547a.128.128,0,0,1-.085-.032,7.772,7.772,0,0,0-2.215-1.319.13.13,0,0,1-.083-.164.133.133,0,0,1,.164-.083,7.917,7.917,0,0,1,2.3,1.371.13.13,0,0,1-.085.228Z" transform="translate(-150.124 -300.207)" fill="#b57359"/><path d="M349.409,321.43a.129.129,0,0,1-.11-.061.637.637,0,0,1-.059-.534,5.7,5.7,0,0,1-.987-.43,2.1,2.1,0,0,1-.812-.8.791.791,0,0,1-.115-.459.707.707,0,0,1,.446-.553,1.473,1.473,0,0,1,.655-.08,3.978,3.978,0,0,1,1.679.476.129.129,0,0,1,.051.176.131.131,0,0,1-.177.051,3.7,3.7,0,0,0-1.568-.443,1.2,1.2,0,0,0-.539.06.442.442,0,0,0-.288.338.545.545,0,0,0,.085.31,1.851,1.851,0,0,0,.715.7,5.56,5.56,0,0,0,.969.416.209.209,0,0,1,.139.3.378.378,0,0,0,.029.33.13.13,0,0,1-.042.179A.136.136,0,0,1,349.409,321.43Z" transform="translate(-151.176 -298.239)" fill="#b57359"/><path d="M379.45,325l1.9,24.586a24.331,24.331,0,0,0,13.389,2.112c7.837-.911,9.554-4.374,9.554-4.374s-1.354-24.125-1.582-24.364-1.155-8.166-12.494-6.547S379.45,325,379.45,325Z" transform="translate(-161.007 -297.529)" fill="#dee7f3"/><rect width="257.221" height="6.096" transform="translate(0 49.377)" fill="#00223d"/><g transform="translate(21.914 30.976)"><rect width="34.639" height="1.687" rx="0.5" transform="translate(34.639 19.612) rotate(180)" fill="url(#a)"/><path d="M121.835,353.521H150.1a2.554,2.554,0,0,0,2.424-2.092l2.439-15.4a1.746,1.746,0,0,0-1.761-2.093H124.937a2.555,2.555,0,0,0-2.425,2.093l-2.439,15.4A1.746,1.746,0,0,0,121.835,353.521Z" transform="translate(-103.531 -333.935)" fill="url(#a)"/><circle cx="2.604" cy="2.604" r="2.604" transform="translate(31.996 7.148)" fill="#12263f"/></g><path d="M403.664,331.276s1.734,20.761-3.353,21.169-13.668,0-13.668,0S397,350.462,398.134,344.7,403.664,331.276,403.664,331.276Z" transform="translate(-163.21 -302.146)" fill="#aaa5a5"/><path d="M392.815,322.4c3.96-.557,4.518-4.112,4.515-6.11a18.083,18.083,0,0,0-4.6.124,20.278,20.278,0,0,0-5.063,1.337C387.792,319.431,388.548,323,392.815,322.4Z" transform="translate(-163.525 -297.529)" fill="#eeb399"/><g transform="translate(225.633 11.978)"><path d="M396.01,306.559v6.822l-3.143,2.862-3.053-1.86v-4.1Z" transform="translate(-389.814 -306.559)" fill="#eeb399"/></g><path d="M395.159,311.516l-5.345,1.771v2.184C392.8,315.072,395.159,311.516,395.159,311.516Z" transform="translate(-164.181 -296.098)" fill="#cc957f"/><rect width="11.58" height="16.557" rx="5.79" transform="translate(220.249 1.64)" fill="#eeb399"/><path d="M380.788,292.64a1.207,1.207,0,0,0-.346,1.227,1.133,1.133,0,0,0,.492.483,2.652,2.652,0,0,0,2.364.124.692.692,0,0,0-.008.89,1.312,1.312,0,0,0,.845.435,3.372,3.372,0,0,0,2.757-1.029,1.257,1.257,0,0,0,1.17,1.262c.576.019,1.132-.371,1.7-.25.165.278-.1.733.169.918a.463.463,0,0,0,.224.065c.534.051,1.172-.044,1.517.366s.154.989.017,1.488a1.756,1.756,0,0,0,.054,1.377c.249.4.931.531,1.178.128.069-.115.1-.252.169-.364s.233-.19.341-.111a.309.309,0,0,1,.089.271,5.828,5.828,0,0,1-.6,1.675c-.207.56-.185,1.319.339,1.6a1.469,1.469,0,0,0,.514.138,2.218,2.218,0,0,0,1.622-.246,2.452,2.452,0,0,0,.738-1.393,1.5,1.5,0,0,0,.08-.616.518.518,0,0,0-.377-.45c-.246-.688.5-1.543.058-2.125a2.3,2.3,0,0,0-.361-.319,1.984,1.984,0,0,1-.6-1.239,9.054,9.054,0,0,1-.019-1.406,11.363,11.363,0,0,0-.278-2.713,2.684,2.684,0,0,0-.414-1.04,1.08,1.08,0,0,0-.967-.466,2.781,2.781,0,0,0-1.113-1.72,1.682,1.682,0,0,0-1.957.054.879.879,0,0,1-.382.257.672.672,0,0,1-.359-.074,4.2,4.2,0,0,0-3.365-.294,1.583,1.583,0,0,1-.482.2,1.418,1.418,0,0,1-.52-.083,1.437,1.437,0,0,0-1.218.134c-.378.283-.213.594-.244.968-.035.425-.271.4-.674.55A5.2,5.2,0,0,0,380.788,292.64Z" transform="translate(-161.292 -289.298)" fill="#12263f"/><path d="M400.207,304.8a1.419,1.419,0,1,1-1.419-1.419A1.419,1.419,0,0,1,400.207,304.8Z" transform="translate(-166.493 -293.608)" fill="#eeb399"/><g transform="translate(211.739 20.598)"><g transform="translate(0 0.204)"><path d="M396.693,319.288a3.942,3.942,0,0,0-4.265,3.574l-1.491,16.89L375.1,340.77a23.115,23.115,0,0,0,.5,7.852l19.211-1.235a3.934,3.934,0,0,0,3.667-3.581l1.788-20.253A3.935,3.935,0,0,0,396.693,319.288Z" transform="translate(-371.375 -319.273)" fill="#eeb399"/><path d="M371.922,358.087a2.967,2.967,0,0,1-1.37-.384,1.034,1.034,0,0,1-.435-1.243c.112-.222.337-.4.346-.65.011-.314-.315-.515-.5-.769a1.2,1.2,0,0,1,.289-1.543c.144-.124.323-.235.372-.419.108-.407-.5-.754-.385-1.159.089-.31.543-.394.639-.7a2.235,2.235,0,0,0-.009-.522.746.746,0,0,1,.557-.611,2.188,2.188,0,0,1,.874-.023l1.377.15a2.151,2.151,0,0,1,.789.189,2.072,2.072,0,0,1,.843,1.478,9.33,9.33,0,0,1,.227,3.341,4.653,4.653,0,0,1-1.134,2.533C373.813,358.366,372.7,358.172,371.922,358.087Z" transform="translate(-369.792 -328.687)" fill="#eeb399"/></g><path d="M403.832,319a4.022,4.022,0,0,0-4.353,3.648l-1.252,14.176a25.136,25.136,0,0,0,7.875,2.142l1.378-15.614A4.016,4.016,0,0,0,403.832,319Z" transform="translate(-378.495 -318.98)" fill="#aaa5a5"/><path d="M399.38,325.882l-1.153,13.05s4.828,2.071,7.875,2.142l1.3-13.436" transform="translate(-378.495 -321.092)" fill="none" stroke="#00223d" stroke-linecap="round" stroke-linejoin="round" stroke-width="0.283"/></g><g transform="translate(178.125 30.976)"><rect width="34.639" height="1.687" rx="0.5" transform="translate(16.822 17.925)" fill="url(#a)"/><path d="M354.509,353.521H326.242a2.554,2.554,0,0,1-2.424-2.092l-2.44-15.4a1.747,1.747,0,0,1,1.762-2.093h28.266a2.555,2.555,0,0,1,2.425,2.093l2.439,15.4A1.746,1.746,0,0,1,354.509,353.521Z" transform="translate(-321.353 -333.935)" fill="url(#a)"/><g transform="translate(14.831 6.352)"><path d="M343.2,347.535a6.026,6.026,0,0,0-.407.775.856.856,0,0,0,.092.831.847.847,0,0,0,.34.224,1.843,1.843,0,0,0,1.957-.528,2.949,2.949,0,0,0,.7-1.985,1.8,1.8,0,0,0-.619-1.538,1.349,1.349,0,0,0-.493-.2,1.145,1.145,0,0,0-.826.106c-.353.215-.379.618-.414.987A3.411,3.411,0,0,1,343.2,347.535Z" transform="translate(-342.724 -343.698)" fill="#19365a"/><path d="M345.132,343.853a1.019,1.019,0,0,1,.024-.439.466.466,0,0,1,.295-.308.578.578,0,0,1,.155-.018.468.468,0,0,1,.33.1.343.343,0,0,1,.1.263.66.66,0,0,1-.085.273.958.958,0,0,1-.462.441C345.2,344.277,345.164,344.114,345.132,343.853Z" transform="translate(-343.457 -343.088)" fill="#19365a"/></g></g></g><g transform="translate(9.901)"><path d="M109.076,245.252A15.071,15.071,0,1,0,93.217,260.3l2.189,5.37,2.6-5.891A15.075,15.075,0,0,0,109.076,245.252Z" transform="translate(-78.934 -230.181)" fill="#fff" stroke="#00223d" stroke-linecap="round" stroke-linejoin="round" stroke-width="1"/><path d="M102.824,245.339v-3.547H99.276a2.665,2.665,0,1,0-5.331,0H90.4v12.425h3.547a2.665,2.665,0,0,1,5.331,0h3.547v-3.547a2.666,2.666,0,0,0,0-5.332Z" transform="translate(-82.443 -232.919)" fill="#5b7393"/></g><g transform="translate(228.21 2.255)"><path d="M422.274,254.847a15.071,15.071,0,1,0-20.72,6.979l-.274,5.792,4.84-4.249A15.074,15.074,0,0,0,422.274,254.847Z" transform="translate(-393.527 -233.43)" fill="#fff" stroke="#00223d" stroke-linecap="round" stroke-linejoin="round" stroke-width="1"/><path d="M417.73,249.644a2.654,2.654,0,0,0-.655.091V246.1h-3.547a2.666,2.666,0,0,1-5.332,0H404.65v3.547a2.666,2.666,0,0,0,0,5.332v3.547h3.62a2.666,2.666,0,0,1,5.332,0h3.474v-3.638a2.662,2.662,0,1,0,.655-5.241Z" transform="translate(-396.116 -237.307)" fill="#5b7393"/></g><g transform="translate(66.85 3.316)"><path d="M162.4,256.376a15.071,15.071,0,1,1,20.72,6.979l.274,5.792-4.84-4.249A15.074,15.074,0,0,1,162.4,256.376Z" transform="translate(-161.001 -234.959)" fill="#fff" stroke="#00223d" stroke-linecap="round" stroke-linejoin="round" stroke-width="1"/><path d="M182.778,247.4a2.666,2.666,0,0,0-5.332,0H173.9V259.83h3.547a2.666,2.666,0,1,1,5.332,0h3.547V247.4Z" transform="translate(-164.949 -237.952)" fill="#ea3065"/></g><g transform="translate(169.219 6.228)"><path d="M333.308,265.747a15.071,15.071,0,1,0-21.73-2.417l-2.693,5.136,6.181-1.81A15.074,15.074,0,0,0,333.308,265.747Z" transform="translate(-308.518 -239.156)" fill="#fff" stroke="#00223d" stroke-linecap="round" stroke-linejoin="round" stroke-width="1"/><path d="M333.4,254.932v-3.547h-3.547a2.666,2.666,0,1,0-5.332,0h-3.547v3.547a2.666,2.666,0,1,1,0,5.332v3.547h3.547a2.666,2.666,0,1,1,5.332,0H333.4v-3.547a2.666,2.666,0,0,0,0-5.332Z" transform="translate(-312.331 -242.083)" fill="#ea3065"/></g></g><g transform="translate(141.388 90.246)"><g transform="translate(0.534)"><path d="M230.72,265.86s-.158,6.122,13.379,6.122,12.907-6.122,12.907-6.122Z" transform="translate(-201.564 -143.994)" fill="#ea3065"/><rect width="33.848" height="17.644" rx="4.709" transform="translate(25.555 105.932)" fill="#00223d"/><path d="M273.686,130.933c-.938-13.238-9.112-39.061-40.922-40.612v-.075q-.77,0-1.523.019-.754-.019-1.523-.019v.075c-31.81,1.55-39.984,27.373-40.922,40.612-.967,13.652,6.127,24.294,12.039,34.936s8.062,24.885,8.976,30.044a5.63,5.63,0,0,0,5.59,5h31.681a5.63,5.63,0,0,0,5.59-5c.914-5.159,3.064-19.4,8.976-30.044S274.653,144.584,273.686,130.933Z" transform="translate(-188.706 -90.246)" fill="#dee7f3"/><path d="M234.129,228.478a111.9,111.9,0,0,0,5.316-35.4c-.057-4.729-.439-9.561-2.321-13.9-.339-.783-.926-1.667-1.776-1.6-.751.06-1.213.841-1.456,1.554a9.353,9.353,0,0,0,7.844,12.311,4.843,4.843,0,0,0,2.2-.189,5.51,5.51,0,0,0,2.862-3.445,16.74,16.74,0,0,0,.608-9.893c-.2-.811-.692-1.777-1.526-1.718-.588.042-.992.6-1.258,1.124a12.612,12.612,0,0,0-.343,9.25,8.363,8.363,0,0,0,1.953,3.622c2.418,2.377,6.724,1.763,9.171-.583s3.361-5.883,3.593-9.265c.112-1.624-.307-3.755-1.92-3.979-1.662-.23-2.62,1.8-2.994,3.436a124.246,124.246,0,0,0-2.111,43.364c.348,2.721.837,5.552,2.479,7.748" transform="translate(-202.387 -116.552)" fill="none" stroke="#00223d" stroke-miterlimit="10" stroke-width="1"/><path d="M204.936,109.658a14.365,14.365,0,0,0-2.926,4.633,5.538,5.538,0,0,0,.72,5.23c1.668,1.986,4.866,1.954,7.145.718s3.9-3.369,5.621-5.313c2.7-3.062,5.905-5.855,9.79-7.111,1.473-.477,3.019-.724,4.461-1.292a5.8,5.8,0,0,0,3.4-2.974,4.846,4.846,0,0,0-1.858-5.49c-4.078-2.947-9.372-.153-13.368,1.547A34.889,34.889,0,0,0,204.936,109.658Z" transform="translate(-192.675 -92.243)" fill="#bfcde0"/></g><path d="M200.361,147.932v-3.547h-3.547a2.666,2.666,0,1,0-5.332,0h-3.547V156.81h3.547a2.666,2.666,0,1,1,5.332,0h3.547v-3.547a2.666,2.666,0,1,0,0-5.332Z" transform="translate(-187.936 -106)" fill="#00223d"/><path d="M302.089,142.567a2.645,2.645,0,0,0-.655.091V139.02h-3.547a2.666,2.666,0,0,1-5.332,0h-3.547v3.547a2.666,2.666,0,0,0,0,5.332v3.547h3.62a2.666,2.666,0,0,1,5.332,0h3.475v-3.638a2.662,2.662,0,1,0,.655-5.241Z" transform="translate(-218.054 -105.174)" fill="#00223d"/><path d="M219.948,210.175a2.666,2.666,0,1,0-5.332,0H211.07V222.6h3.547a2.666,2.666,0,1,1,5.332,0H223.5V210.175Z" transform="translate(-195.016 -126.135)" fill="#00223d"/><path d="M281.443,206.242V202.7H277.9a2.666,2.666,0,1,0-5.331,0h-3.547v3.547a2.666,2.666,0,1,1,0,5.332v3.547h3.547a2.666,2.666,0,1,1,5.331,0h3.547v-3.547a2.666,2.666,0,1,0,0-5.332Z" transform="translate(-212.752 -123.846)" fill="#00223d"/></g></g></svg>