<svg xmlns="http://www.w3.org/2000/svg" xmlns:xlink="http://www.w3.org/1999/xlink" width="200.217" height="199.909" viewBox="0 0 200.217 199.909"><defs><linearGradient id="a" x1="0.5" x2="0.5" y2="1" gradientUnits="objectBoundingBox"><stop offset="0" stop-color="#fff"/><stop offset="1" stop-color="#f1f7fa"/></linearGradient></defs><g transform="translate(-938.758 278.163)"><g transform="translate(938.758 -278.163)"><ellipse cx="100.109" cy="10.895" rx="100.109" ry="10.895" transform="translate(0 133.988)" fill="#eff4ef"/><g transform="translate(46.085)"><path d="M1109.824-233.934l-100.4-.7a.42.42,0,0,0-.424.418l-.92,131.51a.421.421,0,0,0,.418.423l100.26.7a.422.422,0,0,0,.424-.418l.92-131.651A.279.279,0,0,0,1109.824-233.934Z" transform="translate(-1008.079 243.629)" fill="#00223d"/><rect width="94.425" height="124.985" transform="translate(3.799 12.455)" fill="url(#a)"/><path d="M1093.031-240.658l-15.055-.105c.02-.2.034-.406.035-.613a6.74,6.74,0,0,0-6.693-6.787,6.74,6.74,0,0,0-6.787,6.693c0,.207.01.41.027.613l-15.055-.106a5.2,5.2,0,0,0-5.233,5.16l-.049,7.083a1.2,1.2,0,0,0,1.193,1.209l51.519.36a1.2,1.2,0,0,0,1.209-1.193l.05-7.083A5.2,5.2,0,0,0,1093.031-240.658Zm-21.79,3.524a4.289,4.289,0,0,1-4.259-4.319,4.289,4.289,0,0,1,4.319-4.259,4.289,4.289,0,0,1,4.259,4.319A4.289,4.289,0,0,1,1071.241-237.134Z" transform="translate(-1020.194 248.163)" fill="#b3b3b3"/><g transform="translate(8.539 25.846)"><rect width="40.517" height="1.03" rx="0.264" transform="translate(0.228)" fill="#00223d"/><rect width="40.517" height="1.03" rx="0.264" transform="translate(0.228 7.554)" fill="#00223d"/><rect width="40.517" height="1.03" rx="0.264" transform="translate(16.366 37.77)" fill="#00223d"/><rect width="40.517" height="1.03" rx="0.264" transform="translate(16.366 46.011)" fill="#00223d"/><rect width="55.969" height="1.03" rx="0.264" transform="translate(16.366 41.891)" fill="#00223d"/><rect width="20.945" height="1.03" rx="0.264" transform="translate(58.944 37.77)" fill="#00223d"/><rect width="40.517" height="1.03" rx="0.264" transform="translate(0.228 28.156)" fill="#00223d"/><rect width="40.517" height="1.03" rx="0.264" transform="translate(42.462 7.554)" fill="#00223d"/><rect width="82.751" height="1.03" rx="0.264" transform="translate(0.228 12.705)" fill="#00223d"/><rect width="82.751" height="1.03" rx="0.264" transform="translate(0.228 18.542)" fill="#00223d"/><rect width="82.751" height="1.03" rx="0.264" transform="translate(0.228 23.349)" fill="#00223d"/><path d="M1032.827-143.265h-11.674a.229.229,0,0,1-.229-.229v-11.674a.229.229,0,0,1,.229-.229h11.674a.229.229,0,0,1,.229.229v11.674A.229.229,0,0,1,1032.827-143.265Zm-11.446-.457H1032.6V-154.94h-11.217Z" transform="translate(-1020.924 191.222)" fill="#00223d"/><path d="M1027.032-145.88h-.019a.3.3,0,0,1-.269-.2,20.613,20.613,0,0,0-3.262-5.976.305.305,0,0,1,.052-.428.305.305,0,0,1,.428.052,21.293,21.293,0,0,1,3.114,5.484,32.064,32.064,0,0,1,8.8-10.56.305.305,0,0,1,.428.054.3.3,0,0,1-.054.427,31.384,31.384,0,0,0-8.947,10.981A.3.3,0,0,1,1027.032-145.88Z" transform="translate(-1021.76 191.952)" fill="#7d6eb2" stroke="#7d6eb2" stroke-width="1"/><rect width="40.517" height="1.03" rx="0.264" transform="translate(16.366 63.866)" fill="#00223d"/><rect width="55.969" height="1.03" rx="0.264" transform="translate(16.366 59.746)" fill="#00223d"/><path d="M1032.827-112.276h-11.674a.229.229,0,0,1-.229-.228v-11.675a.229.229,0,0,1,.229-.229h11.674a.229.229,0,0,1,.229.229V-112.5A.228.228,0,0,1,1032.827-112.276Zm-11.446-.457H1032.6V-123.95h-11.217Z" transform="translate(-1020.924 180.834)" fill="#00223d"/><path d="M1027.032-114.89h-.019a.3.3,0,0,1-.269-.2,20.623,20.623,0,0,0-3.262-5.976.3.3,0,0,1,.052-.427.305.305,0,0,1,.428.052,21.271,21.271,0,0,1,3.114,5.484,32.057,32.057,0,0,1,8.8-10.56.3.3,0,0,1,.428.054.3.3,0,0,1-.054.427,31.39,31.39,0,0,0-8.947,10.98A.3.3,0,0,1,1027.032-114.89Z" transform="translate(-1021.76 181.565)" fill="#7d6eb2" stroke="#7d6eb2" stroke-width="1"/><rect width="40.517" height="1.03" rx="0.264" transform="translate(16.366 77.601)" fill="#00223d"/><rect width="55.969" height="1.03" rx="0.264" transform="translate(16.366 81.721)" fill="#00223d"/><path d="M1032.827-83.352h-11.674a.229.229,0,0,1-.229-.229V-95.254a.229.229,0,0,1,.229-.229h11.674a.229.229,0,0,1,.229.229V-83.58A.229.229,0,0,1,1032.827-83.352Zm-11.446-.457H1032.6V-95.026h-11.217Z" transform="translate(-1020.924 171.138)" fill="#00223d"/><path d="M1027.032-85.966h-.019a.3.3,0,0,1-.269-.2,20.614,20.614,0,0,0-3.262-5.976.3.3,0,0,1,.052-.427.305.305,0,0,1,.428.052,21.278,21.278,0,0,1,3.114,5.483,32.071,32.071,0,0,1,8.8-10.56.305.305,0,0,1,.428.054.3.3,0,0,1-.054.427,31.39,31.39,0,0,0-8.947,10.981A.3.3,0,0,1,1027.032-85.966Z" transform="translate(-1021.76 171.87)" fill="#7d6eb2" stroke="#7d6eb2" stroke-width="1"/><rect width="40.517" height="1.03" rx="0.264" transform="translate(16.366 96.142)" fill="#00223d"/><rect width="40.517" height="1.03" rx="0.264" transform="translate(16.366 104.383)" fill="#00223d"/><rect width="55.969" height="1.03" rx="0.264" transform="translate(16.366 100.263)" fill="#00223d"/><path d="M1032.827-55.461h-11.674a.229.229,0,0,1-.229-.229V-67.364a.229.229,0,0,1,.229-.229h11.674a.229.229,0,0,1,.229.229V-55.69A.229.229,0,0,1,1032.827-55.461Zm-11.446-.457H1032.6V-67.136h-11.217Z" transform="translate(-1020.924 161.79)" fill="#a2acc2"/><path d="M1027.032-58.075h-.019a.3.3,0,0,1-.269-.2,20.614,20.614,0,0,0-3.262-5.976.305.305,0,0,1,.052-.428.305.305,0,0,1,.428.053,21.267,21.267,0,0,1,3.114,5.483,32.064,32.064,0,0,1,8.8-10.56.305.305,0,0,1,.428.054.3.3,0,0,1-.054.427,31.393,31.393,0,0,0-8.947,10.981A.3.3,0,0,1,1027.032-58.075Z" transform="translate(-1021.76 162.52)" fill="#7d6eb2" stroke="#7d6eb2" stroke-width="1"/></g><path d="M1107.508-221.051H1082.1a.229.229,0,0,1-.229-.229.229.229,0,0,1,.229-.228h25.409a.228.228,0,0,1,.228.228A.229.229,0,0,1,1107.508-221.051Z" transform="translate(-1032.814 239.228)" fill="#fff"/></g><g transform="translate(148.106 39.193)"><path d="M1205.326-167.127s9.126.689,10.5-.344a2.912,2.912,0,0,0,1.033-2.755,21.552,21.552,0,0,0-1.377-4.649c-1.033-2.411-4.133-6.544-4.305-7.06s-1.033-4.477-1.033-4.477l-3.616.517v1.377h-1.205a12.215,12.215,0,0,0,2.411,3.444c1.378,1.205,3.1,7.577,3.1,7.577l-5.51.344Z" transform="translate(-1170.489 202.893)" fill="#ffa08b"/><path d="M1214.609-163.677a.075.075,0,0,1-.064-.036,8.772,8.772,0,0,1-1.044-3.3.077.077,0,0,1,.069-.083.08.08,0,0,1,.083.069,8.59,8.59,0,0,0,1.022,3.238.077.077,0,0,1-.025.105A.075.075,0,0,1,1214.609-163.677Z" transform="translate(-1173.228 196.42)" fill="#c77968"/><path d="M1219.274-159.268a.076.076,0,0,1-.077-.076.076.076,0,0,1,.077-.076c.391,0,1.082-.847,1.315-1.173a.078.078,0,0,1,.107-.018.077.077,0,0,1,.017.107C1220.623-160.379,1219.814-159.268,1219.274-159.268Z" transform="translate(-1175.138 194.249)" fill="#c77968"/><path d="M1162.564-148.375s-1.894,9.814-2.411,10.5a108.4,108.4,0,0,0-4.3,11.708c-.517,2.066-2.927,4.993-2.927,5.682s1.377,5.682,1.721,5.51.172-1.722.172-1.722,1.205,1.033,1.723.861-.345-1.205-.345-1.205.861.689,1.205.689-.688-1.722-.688-1.722l-.345-2.066a30,30,0,0,0,1.206-3.96s7.4-11.019,7.575-12.4,1.722-10.5,1.722-10.5Z" transform="translate(-1152.923 190.143)" fill="#ffa08b"/><path d="M1167.184-131.167a4.338,4.338,0,0,1-.847-.078.076.076,0,0,1-.06-.09.077.077,0,0,1,.09-.06,4.933,4.933,0,0,0,1.692,0,.077.077,0,0,1,.09.06.076.076,0,0,1-.06.09A5.059,5.059,0,0,1,1167.184-131.167Z" transform="translate(-1157.399 184.452)" fill="#c77968"/><path d="M1155.328-104.591a.18.18,0,0,1-.09-.024c-.29-.162-.292-1.258-.25-2.419,0-.114.007-.2.007-.247,0-.345.166-1.675.173-1.732a.075.075,0,0,1,.085-.066.076.076,0,0,1,.066.085c0,.014-.172,1.377-.172,1.713,0,.047,0,.136-.007.253-.051,1.421.006,2.188.172,2.28.006,0,.022.012.061-.015.258-.172.332-.836.4-1.422a2.348,2.348,0,0,1,.28-1.151,15.605,15.605,0,0,0,1.193-1.877.076.076,0,0,1,.1-.03.076.076,0,0,1,.029.1,15.228,15.228,0,0,1-1.218,1.911,2.524,2.524,0,0,0-.237,1.06c-.072.65-.146,1.322-.463,1.532A.24.24,0,0,1,1155.328-104.591Z" transform="translate(-1153.609 177.029)" fill="#c77968"/><g transform="translate(9.425 109.994)"><path d="M1173.563-45.748a10.8,10.8,0,0,1-3.371,3.934c-1.967,1.124-3.091,1.966-3.091,2.809s2.67,2.529,5.76,1.545,6.462-1.545,6.6-1.826,0-4.636,0-4.636Z" transform="translate(-1167.101 45.748)" fill="#3b3348"/><path d="M1167.1-36.546a.979.979,0,0,1,.024-.2c.021-.016.291-.21,1.1.06.843.281,2.248,1.545,4.074,1.124s4.76-2.468,7.227-2.849a8.983,8.983,0,0,1-.062,1.585c-.141.281-3.512.843-6.6,1.826S1167.1-35.7,1167.1-36.546Z" transform="translate(-1167.101 43.289)" fill="#f6ebe3"/><path d="M1172.46-39.683a.044.044,0,0,1-.021-.005,5.928,5.928,0,0,0-2.3-.905.035.035,0,0,1-.041-.035.038.038,0,0,1,.035-.041,5.723,5.723,0,0,1,2.335.906,13.474,13.474,0,0,0,2.363-1.252,10.041,10.041,0,0,0,2.232-3.061.042.042,0,0,1,.04-.036.036.036,0,0,1,.036.037,10.08,10.08,0,0,1-2.264,3.122,13.653,13.653,0,0,1-2.4,1.268A.036.036,0,0,1,1172.46-39.683Z" transform="translate(-1168.104 45.2)" fill="#f6ebe3"/><path d="M1178.143-38l-.012,0a.038.038,0,0,1-.024-.048,12.869,12.869,0,0,1,3.053-5.207.038.038,0,0,1,.054,0,.038.038,0,0,1,0,.054,12.809,12.809,0,0,0-3.032,5.175A.038.038,0,0,1,1178.143-38Z" transform="translate(-1170.789 44.917)" fill="#f6ebe3"/><path d="M1180.607-38.438h-.011a.038.038,0,0,1-.026-.047,9.955,9.955,0,0,1,2.539-3.717.038.038,0,0,1,.054,0,.038.038,0,0,1,0,.054,9.859,9.859,0,0,0-2.518,3.681A.038.038,0,0,1,1180.607-38.438Z" transform="translate(-1171.615 44.563)" fill="#f6ebe3"/><path d="M1173.709-38.31a.149.149,0,0,1-.106-.043,5.99,5.99,0,0,0-2.186-1.286.152.152,0,0,1-.1-.188.154.154,0,0,1,.189-.105,6.191,6.191,0,0,1,2.313,1.36.152.152,0,0,1,0,.215A.151.151,0,0,1,1173.709-38.31Z" transform="translate(-1168.51 43.8)" fill="#f6ebe3"/><path d="M1175.182-39.211a.154.154,0,0,1-.1-.041c-.421-.391-1.615-1.394-2.135-1.394h-.017a.154.154,0,0,1-.159-.146.153.153,0,0,1,.146-.159c.733-.033,2.207,1.321,2.373,1.475a.153.153,0,0,1,.008.215A.155.155,0,0,1,1175.182-39.211Z" transform="translate(-1169 44.14)" fill="#f6ebe3"/><path d="M1176.514-40.111a.154.154,0,0,1-.114-.05,4.35,4.35,0,0,0-2.458-1.492.152.152,0,0,1-.135-.168.151.151,0,0,1,.167-.135,4.559,4.559,0,0,1,2.652,1.592.152.152,0,0,1-.011.215A.154.154,0,0,1,1176.514-40.111Z" transform="translate(-1169.349 44.477)" fill="#f6ebe3"/><path d="M1177.762-41.592a.151.151,0,0,1-.132-.076c-.524-.917-2.483-1.469-2.5-1.475a.152.152,0,0,1-.106-.187.153.153,0,0,1,.188-.106c.085.023,2.1.59,2.686,1.616a.152.152,0,0,1-.057.208A.144.144,0,0,1,1177.762-41.592Z" transform="translate(-1169.754 44.975)" fill="#f6ebe3"/></g><g transform="translate(27.514 110.623)"><path d="M1199.935-44.8a10.624,10.624,0,0,1-2.889,4.2c-1.807,1.3-2.819,2.244-2.731,3.068s2.872,2.2,5.792.914,6.159-2.181,6.267-2.47-.48-4.534-.48-4.534Z" transform="translate(-1194.31 44.802)" fill="#3b3348"/><path d="M1194.316-35.444a.936.936,0,0,1,0-.2c.019-.018.263-.236,1.082-.056.854.187,2.358,1.278,4.1.677s4.4-2.906,6.771-3.535a8.827,8.827,0,0,1,.1,1.556c-.108.289-3.347,1.188-6.267,2.47S1194.4-34.621,1194.316-35.444Z" transform="translate(-1194.31 42.709)" fill="#f6ebe3"/><path d="M1199.312-38.784a.038.038,0,0,1-.017,0,5.8,5.8,0,0,0-2.346-.646.038.038,0,0,1-.045-.03.037.037,0,0,1,.03-.045,5.6,5.6,0,0,1,2.377.644,13.26,13.26,0,0,0,2.18-1.47,9.9,9.9,0,0,0,1.865-3.224.039.039,0,0,1,.036-.04.04.04,0,0,1,.04.033,9.914,9.914,0,0,1-1.89,3.287,13.391,13.391,0,0,1-2.212,1.489A.034.034,0,0,1,1199.312-38.784Z" transform="translate(-1195.179 44.398)" fill="#f6ebe3"/><path d="M1205.135-37.525h-.008a.039.039,0,0,1-.029-.046,12.662,12.662,0,0,1,2.447-5.409.039.039,0,0,1,.054,0,.039.039,0,0,1,0,.054,12.579,12.579,0,0,0-2.429,5.374A.038.038,0,0,1,1205.135-37.525Z" transform="translate(-1197.926 44.195)" fill="#f6ebe3"/><path d="M1207.421-38.18h-.007a.037.037,0,0,1-.031-.044,9.79,9.79,0,0,1,2.1-3.9.038.038,0,0,1,.054,0,.038.038,0,0,1,0,.054,9.7,9.7,0,0,0-2.08,3.86A.038.038,0,0,1,1207.421-38.18Z" transform="translate(-1198.692 43.908)" fill="#f6ebe3"/><path d="M1200.489-37.211a.151.151,0,0,1-.094-.033,5.893,5.893,0,0,0-2.27-1.03.152.152,0,0,1-.124-.176.151.151,0,0,1,.177-.124,6.085,6.085,0,0,1,2.4,1.091.151.151,0,0,1,.025.213A.151.151,0,0,1,1200.489-37.211Z" transform="translate(-1195.547 42.715)" fill="#f6ebe3"/><path d="M1201.836-38.248a.151.151,0,0,1-.091-.031c-.456-.342-1.747-1.215-2.247-1.139a.153.153,0,0,1-.174-.128.154.154,0,0,1,.128-.174c.709-.106,2.3,1.063,2.475,1.2a.153.153,0,0,1,.031.213A.151.151,0,0,1,1201.836-38.248Z" transform="translate(-1195.99 43.101)" fill="#f6ebe3"/><path d="M1203.045-39.263a.15.15,0,0,1-.1-.039,4.273,4.273,0,0,0-2.557-1.2.153.153,0,0,1-.152-.153.153.153,0,0,1,.152-.152,4.484,4.484,0,0,1,2.76,1.282.152.152,0,0,1,.011.215A.149.149,0,0,1,1203.045-39.263Z" transform="translate(-1196.295 43.464)" fill="#f6ebe3"/><path d="M1204.112-40.841a.151.151,0,0,1-.124-.063c-.608-.842-2.579-1.178-2.6-1.181a.153.153,0,0,1-.126-.176.152.152,0,0,1,.176-.126c.086.015,2.115.36,2.8,1.3a.153.153,0,0,1-.035.213A.154.154,0,0,1,1204.112-40.841Z" transform="translate(-1196.64 43.993)" fill="#f6ebe3"/></g><path d="M1192.624-117.516a44.11,44.11,0,0,0,.753,4.7,17.287,17.287,0,0,1,0,4.517,1.1,1.1,0,0,1,1.317,1.129c0,1.317.377,13.739.941,15.433s2.07,8.846,1.694,10.728,1.6,12.327,1.788,13.081-4.047.282-6.494.659-.941-2.259-.941-2.259-1.318-.188-1.318-.564-2.258-12.8-2.635-15.621-4.046-18.539-4.046-18.539-1.035,19.479-1.035,20.609,1.129,6.211,1.317,7.152-1.317,5.082-1.317,6.023.094,4.047-.847,4.235-3.577-1.882-7.341-1.882c0,0-2.258-1.318-.941-1.883s.47-1.411.282-1.788a3.854,3.854,0,0,1-.753-3.2c.376-1.882-.564-14.116-.564-15.81s.753-24.279.753-24.279Z" transform="translate(-1159.48 179.799)" fill="#282233"/><path d="M1206.137-57.757a.083.083,0,0,1-.029-.005.076.076,0,0,1-.043-.1c.372-.929,1.867-5.039,1.881-5.08a.076.076,0,0,1,.1-.045.076.076,0,0,1,.045.1c-.015.041-1.51,4.152-1.883,5.084A.076.076,0,0,1,1206.137-57.757Z" transform="translate(-1170.735 161.522)" fill="#627695"/><path d="M1203.159-45.569a1.479,1.479,0,0,1-1.04-.308.076.076,0,0,1,0-.108.076.076,0,0,1,.108,0c.013.013,1.144,1.046,4.421-1.139a.076.076,0,0,1,.106.021.076.076,0,0,1-.021.106A6.8,6.8,0,0,1,1203.159-45.569Z" transform="translate(-1169.406 156.208)" fill="#627695"/><path d="M1178.475-60.121a.078.078,0,0,1-.043-.013c-1.693-1.128-4.248-6.756-4.356-7a.077.077,0,0,1,.038-.1.077.077,0,0,1,.1.039c.026.058,2.645,5.828,4.3,6.932a.076.076,0,0,1,.021.106A.075.075,0,0,1,1178.475-60.121Z" transform="translate(-1160.011 162.945)" fill="#627695"/><path d="M1182.81-44.349a.081.081,0,0,1-.048-.017,13.789,13.789,0,0,0-6.359-2.619.076.076,0,0,1-.068-.084.076.076,0,0,1,.084-.068,13.957,13.957,0,0,1,6.439,2.651.075.075,0,0,1,.012.107A.076.076,0,0,1,1182.81-44.349Z" transform="translate(-1160.77 156.207)" fill="#627695"/><path d="M1184.61-70.786a.076.076,0,0,1-.07-.047c-.557-1.3-3.915-7.273-3.949-7.333a.076.076,0,0,1,.029-.1.075.075,0,0,1,.1.029c.035.06,3.4,6.041,3.956,7.347a.076.076,0,0,1-.04.1A.07.07,0,0,1,1184.61-70.786Z" transform="translate(-1162.194 166.646)" fill="#627695"/><path d="M1187.348-104.106a.077.077,0,0,1-.057-.025c-.028-.032-2.823-3.2-3.008-3.384a65.833,65.833,0,0,1-.586-6.637.075.075,0,0,1,.071-.08.074.074,0,0,1,.08.071c.147,2.506.415,6.316.548,6.544.183.181,2.895,3.254,3.01,3.385a.077.077,0,0,1-.007.108A.077.077,0,0,1,1187.348-104.106Z" transform="translate(-1163.238 178.699)" fill="#627695"/><path d="M1187.985-104.566a.076.076,0,0,1-.075-.065l-.534-3.68-.565-5.838a.076.076,0,0,1,.068-.083.079.079,0,0,1,.083.068l.565,5.834.534,3.677a.077.077,0,0,1-.064.086Z" transform="translate(-1164.282 178.698)" fill="#627695"/><path d="M1201.165-107.962a.075.075,0,0,1-.057-.025c-.047-.053-4.741-5.288-5.389-8.676a.076.076,0,0,1,.061-.089.076.076,0,0,1,.089.06c.64,3.346,5.305,8.551,5.352,8.6a.077.077,0,0,1-.005.108A.077.077,0,0,1,1201.165-107.962Z" transform="translate(-1167.268 179.543)" fill="#627695"/><path d="M1173.287-107.973a.076.076,0,0,1-.048-.017.077.077,0,0,1-.012-.107,16.269,16.269,0,0,0,2.721-6.076.077.077,0,0,1,.091-.058.076.076,0,0,1,.058.091,16.447,16.447,0,0,1-2.751,6.139A.077.077,0,0,1,1173.287-107.973Z" transform="translate(-1159.723 178.699)" fill="#627695"/><path d="M1185.658-100.918l-5.285-.085a.077.077,0,0,1-.075-.078.076.076,0,0,1,.076-.075h0l5.269.087,7.89-1.4a.077.077,0,0,1,.089.062.076.076,0,0,1-.062.088Z" transform="translate(-1162.099 174.757)" fill="#627695"/><path d="M1193.744-98.4h-.009c-.066-.007-6.6-.72-7.7-.644s-3.371.079-3.393.079a.076.076,0,0,1-.076-.076.076.076,0,0,1,.076-.076c.022,0,2.268,0,3.382-.079s7.46.615,7.73.644a.076.076,0,0,1,.068.084A.076.076,0,0,1,1193.744-98.4Z" transform="translate(-1162.858 173.66)" fill="#627695"/><g transform="translate(10.394 14.183)"><path d="M1180.9-169.924a24.977,24.977,0,0,0,2.509,4.588,6.9,6.9,0,0,1-6.214,1.615,15.308,15.308,0,0,0-1.6-5.924Z" transform="translate(-1170.917 183.183)" fill="#ffa08b"/><path d="M1181.907-167.9c-.4-.785-.723-1.5-.855-1.8l-5.173.634A4.774,4.774,0,0,0,1181.907-167.9Z" transform="translate(-1171.012 183.105)" fill="#c77968"/><path d="M1169.545-187.182a5,5,0,0,1,2.393-1.019,12.465,12.465,0,0,0,2.55-.634c1.008-.44,2.01-1.269,3.067-.968a13.073,13.073,0,0,1,1.521.848c.592.259,1.336.261,1.756.751a1.776,1.776,0,0,1,.06,1.818,5.893,5.893,0,0,0-.66,1.788,4.79,4.79,0,0,1-.038.691,3.135,3.135,0,0,1-.4.818c-.552.993-.541,2.232-1.134,3.2a4.124,4.124,0,0,1-1.839,1.509,6.269,6.269,0,0,1-4.019.445,5.348,5.348,0,0,1-3.29-2.3,7.315,7.315,0,0,1-.769-1.784,6.622,6.622,0,0,1-.04-2.871A3.08,3.08,0,0,1,1169.545-187.182Z" transform="translate(-1168.558 189.868)" fill="#12263f"/><g transform="translate(10.133 7.797)"><path d="M1184.485-178.07a.818.818,0,0,1,.918.174.832.832,0,0,1,.154.705,1.653,1.653,0,0,1-.334.662.954.954,0,0,1-.738.452.745.745,0,0,1-.616-.546A1.118,1.118,0,0,1,1184.485-178.07Z" transform="translate(-1183.799 178.139)" fill="#c77968"/></g><path d="M1179.271-183.745a4.332,4.332,0,0,0-3.159-2.815,6.252,6.252,0,0,0-3.376.459c-2.13.891-3.585,2.886-2.9,5.242a15.671,15.671,0,0,0,3.149,5.167,5.457,5.457,0,0,0,.877.9,3.513,3.513,0,0,0,1.25.562,6.608,6.608,0,0,0,2.8.411,2.152,2.152,0,0,0,1-.388,3.19,3.19,0,0,0,.742-.949,4.889,4.889,0,0,0,.853-2.174,4.511,4.511,0,0,0-.1-1.015q-.1-.538-.217-1.073a5.366,5.366,0,0,0-.205-.981q-.187-1.036-.39-2.069A8.631,8.631,0,0,0,1179.271-183.745Z" transform="translate(-1168.928 188.782)" fill="#ffa08b"/><path d="M1181.327-174.786a.073.073,0,0,1-.083-.031.072.072,0,0,1,.022-.1c.183-.118.474-.348.372-.569a.716.716,0,0,0-.128-.173l-.017-.019a3.972,3.972,0,0,1-1.036-2.339.072.072,0,0,1,.068-.076.073.073,0,0,1,.076.069,3.83,3.83,0,0,0,1,2.25l.017.018a.872.872,0,0,1,.153.21c.11.241-.037.5-.427.752A.058.058,0,0,1,1181.327-174.786Z" transform="translate(-1172.547 185.921)" fill="#c77968"/><path d="M1180.482-173h0a.288.288,0,0,1-.225-.031.311.311,0,0,1-.149-.2.307.307,0,0,1,.046-.241.283.283,0,0,1,.188-.125.072.072,0,0,1,.083.06.073.073,0,0,1-.061.083.133.133,0,0,0-.09.063.163.163,0,0,0-.026.127.172.172,0,0,0,.08.1.144.144,0,0,0,.11.017.387.387,0,0,0,.094-.053l.274-.188a.072.072,0,0,1,.1.019.072.072,0,0,1-.019.1l-.273.189A.506.506,0,0,1,1180.482-173Z" transform="translate(-1172.425 184.413)" fill="#c77968"/><path d="M1177.129-176a.509.509,0,0,0-.64-.332.509.509,0,0,0-.332.64.509.509,0,0,0,.639.332A.509.509,0,0,0,1177.129-176Z" transform="translate(-1171.097 185.338)" fill="#333"/><path d="M1176.563-177.375a.212.212,0,0,1-.119,0,1.685,1.685,0,0,0-1.586.5.219.219,0,0,1-.308.022.219.219,0,0,1-.023-.308,2.113,2.113,0,0,1,2.024-.64.219.219,0,0,1,.159.265A.219.219,0,0,1,1176.563-177.375Z" transform="translate(-1170.541 185.842)" fill="#4e3933"/><path d="M1183.037-179.422a.225.225,0,0,1-.119,0,1.685,1.685,0,0,0-1.586.5.218.218,0,0,1-.308.023.218.218,0,0,1-.022-.308,2.109,2.109,0,0,1,2.023-.64.218.218,0,0,1,.159.265A.219.219,0,0,1,1183.037-179.422Z" transform="translate(-1172.711 186.528)" fill="#4e3933"/><path d="M1178.617-171.189a.036.036,0,0,1-.042-.015.362.362,0,0,1,.054-.449.036.036,0,0,1,.051,0,.036.036,0,0,1,0,.051.292.292,0,0,0-.042.357.036.036,0,0,1-.011.051Z" transform="translate(-1171.897 183.766)" fill="#c77968"/><path d="M1175.435-175.6a.072.072,0,0,1-.069-.015.072.072,0,0,1-.008-.1,2.517,2.517,0,0,1,.826-.655,2.056,2.056,0,0,1,.987.084.073.073,0,0,1,.047.092.073.073,0,0,1-.092.047,1.957,1.957,0,0,0-.9-.084,2.445,2.445,0,0,0-.759.61A.071.071,0,0,1,1175.435-175.6Z" transform="translate(-1170.831 185.357)" fill="#333"/><path d="M1182.044-177.78a.509.509,0,0,1,.332-.639.509.509,0,0,1,.639.332.508.508,0,0,1-.332.639A.509.509,0,0,1,1182.044-177.78Z" transform="translate(-1173.07 186.038)" fill="#333"/><path d="M1183.248-178.291a.067.067,0,0,1-.04,0,2.433,2.433,0,0,0-.972-.062,1.954,1.954,0,0,0-.687.584.073.073,0,0,1-.1.015.073.073,0,0,1-.015-.1,2.051,2.051,0,0,1,.76-.636,2.509,2.509,0,0,1,1.052.06.074.074,0,0,1,.052.089A.073.073,0,0,1,1183.248-178.291Z" transform="translate(-1172.869 186.068)" fill="#333"/><path d="M1181.9-170.087c-.083.026-.173.052-.273.075a.037.037,0,0,1-.044-.027.036.036,0,0,1,.027-.044,2.174,2.174,0,0,0,.954-.416.036.036,0,0,1,.051,0,.037.037,0,0,1,0,.051A1.863,1.863,0,0,1,1181.9-170.087Z" transform="translate(-1172.923 183.379)" fill="#6b4640"/><path d="M1182.242-172.389a2.162,2.162,0,0,1-1.254,1.229,3.318,3.318,0,0,1-1.691-.228c-.143-.051-.24-.213-.074-.283C1179.366-171.732,1182.539-173.022,1182.242-172.389Z" transform="translate(-1172.103 184.067)" fill="#fff"/><path d="M1171.613-177.849a12.627,12.627,0,0,0,.166-5.653c.005.047,1.594-.651,1.687-.689a6.825,6.825,0,0,1,5.556-.176,2.673,2.673,0,0,0-.6-1.966,3.09,3.09,0,0,0-2.151-1.058,6.131,6.131,0,0,0-2.126.4l-2.36.737a5.137,5.137,0,0,0-1.457.626c-1.126.792-1.04,2.481-.87,3.695A6.753,6.753,0,0,0,1171.613-177.849Z" transform="translate(-1168.827 189.039)" fill="#12263f"/><g transform="translate(1.346 10.624)"><path d="M1171.237-173.858a.817.817,0,0,0-.652.669.835.835,0,0,0,.279.667,1.653,1.653,0,0,0,.655.349.954.954,0,0,0,.863-.055.744.744,0,0,0,.191-.8A1.117,1.117,0,0,0,1171.237-173.858Z" transform="translate(-1170.582 173.887)" fill="#ffa08b"/><path d="M1172.287-172.393a.032.032,0,0,1-.023,0,.306.306,0,0,1-.193-.247.307.307,0,0,1,.132-.284.087.087,0,0,0,.023-.017.036.036,0,0,0,0-.017.455.455,0,0,0-.176-.187,1.012,1.012,0,0,0-.472-.2.49.49,0,0,0-.443.173.2.2,0,0,0-.037.181.036.036,0,0,1-.019.048.036.036,0,0,1-.048-.019.259.259,0,0,1,.045-.253.562.562,0,0,1,.509-.2,1.081,1.081,0,0,1,.506.212.527.527,0,0,1,.2.22.1.1,0,0,1,.006.066.1.1,0,0,1-.048.053.235.235,0,0,0-.1.217.232.232,0,0,0,.145.187.036.036,0,0,1,.021.047A.035.035,0,0,1,1172.287-172.393Z" transform="translate(-1170.725 173.731)" fill="#c77968"/></g><path d="M1171.59-183.588c-.06,0-.12,0-.181-.007a.076.076,0,0,1-.07-.082.076.076,0,0,1,.082-.07,4.25,4.25,0,0,0,2.462-.882,5.733,5.733,0,0,1,2.119-.915,5.477,5.477,0,0,1,1.925.205c.309.071.628.144.942.187a2.179,2.179,0,0,0,2.389-.973.077.077,0,0,1,.1-.043.077.077,0,0,1,.043.1,2.293,2.293,0,0,1-2.552,1.068c-.32-.045-.643-.118-.955-.189a5.334,5.334,0,0,0-1.871-.2,5.583,5.583,0,0,0-2.06.894A4.775,4.775,0,0,1,1171.59-183.588Z" transform="translate(-1169.49 188.629)" fill="#a36b64"/><path d="M1170.779-184.647c-.062,0-.123,0-.184-.009a.077.077,0,0,1-.068-.084.076.076,0,0,1,.084-.068,2.82,2.82,0,0,0,2.116-.965c.107-.1.214-.2.32-.3a5,5,0,0,1,1.65-1.193,3.577,3.577,0,0,1,1.8-.11c.1.016.2.034.3.053a4.157,4.157,0,0,0,.9.1,3.322,3.322,0,0,0,.869-.177,2.645,2.645,0,0,0,.893-.438.075.075,0,0,1,.107.01.076.076,0,0,1-.009.107,2.772,2.772,0,0,1-.945.466,3.469,3.469,0,0,1-.909.184,4.4,4.4,0,0,1-.933-.1c-.1-.018-.2-.036-.3-.051a3.432,3.432,0,0,0-1.726.1,4.877,4.877,0,0,0-1.6,1.16c-.107.1-.214.2-.322.3A3.151,3.151,0,0,1,1170.779-184.647Z" transform="translate(-1169.217 189.195)" fill="#a36b64"/></g><path d="M1173.307-164.406s5.459-1.318,7.152-3.952,6.587,0,6.587,0,.753-.376.941-.188l.564.564h3.952s.471,5.929-.094,8.376c0,0-3.011-.377-3.576.564s0,12.8,0,13.928,1.882,11.669,1.882,11.669a5.229,5.229,0,0,1-3.2.564c-2.07-.188-1.694-.941-5.27,0s-8.093,3.012-13.739,2.635c0,0,1.13-9.41,1.318-11.857a90.26,90.26,0,0,0-.376-9.034,16.031,16.031,0,0,1-6.023-.564s.188-.564.564-1.506a24.276,24.276,0,0,0,1.318-3.952c.188-1.129.941-1.694.941-2.07a5.672,5.672,0,0,1,3.576-4.329C1172.649-164.5,1173.307-164.406,1173.307-164.406Z" transform="translate(-1156.444 197.234)" fill="#abe0e3"/><path d="M1189.717-140.363a.076.076,0,0,1-.041-.012.076.076,0,0,1-.024-.106c.8-1.261,2.321-5.793,3.541-9.434.768-2.294,1.432-4.275,1.726-4.863a2.619,2.619,0,0,1,2.523-1.359.076.076,0,0,1,.068.084.077.077,0,0,1-.084.068,2.466,2.466,0,0,0-2.37,1.276c-.289.578-.951,2.554-1.718,4.843-1.222,3.649-2.744,8.19-3.556,9.467A.076.076,0,0,1,1189.717-140.363Z" transform="translate(-1165.231 192.747)" fill="#282233"/><path d="M1182.922-126.769a.076.076,0,0,1-.065-.037.076.076,0,0,1,.025-.105c4.255-2.589,8.022-14.89,8.06-15.014a.075.075,0,0,1,.094-.051.076.076,0,0,1,.051.094c-.038.125-3.822,12.48-8.127,15.1A.076.076,0,0,1,1182.922-126.769Z" transform="translate(-1162.953 187.999)" fill="#282233"/><path d="M1171.972-144.483a.076.076,0,0,1-.075-.063l-.941-5.27a.077.077,0,0,1,.062-.088.078.078,0,0,1,.089.062l.941,5.27a.076.076,0,0,1-.061.088Z" transform="translate(-1158.967 190.656)" fill="#282233"/><path d="M1171.392-144.944a.073.073,0,0,1-.048-.017,5.481,5.481,0,0,1-1.52-2.872.075.075,0,0,1,.061-.088.076.076,0,0,1,.089.061,5.431,5.431,0,0,0,1.467,2.782.076.076,0,0,1,.01.107A.075.075,0,0,1,1171.392-144.944Z" transform="translate(-1158.588 189.991)" fill="#282233"/><path d="M1180.94-160.335a.077.077,0,0,1-.069-.044.077.077,0,0,1,.037-.1c2.777-1.3,5.78-4.653,5.81-4.687a.077.077,0,0,1,.108-.006.077.077,0,0,1,.007.108c-.031.034-3.055,3.414-5.86,4.723A.077.077,0,0,1,1180.94-160.335Z" transform="translate(-1162.289 195.78)" fill="#282233"/><g transform="translate(25.492)"><path d="M1208.049-207.382c-2.065-2.912-4.132-4.36-5.483-3.636-.034.018-2.091,5.06-10.381,11.612l-.449.344-.006,0c-.67.475-.6,1.721.15,2.784s1.907,1.537,2.577,1.062c.053-.038,7.417-4.259,14.068-4.773a1.826,1.826,0,0,0,.549-.036h0a1.347,1.347,0,0,0,.483-.211C1210.866-201.16,1210.192-204.361,1208.049-207.382Z" transform="translate(-1191.268 211.203)" fill="#f6ded3"/><path d="M1214.567-199.849c-.423,0-1.927-.3-4.445-4-2.942-4.322-2.065-7.034-2.056-7.061a.037.037,0,0,1,.048-.024.038.038,0,0,1,.023.049c-.008.027-.871,2.706,2.047,6.994,2.907,4.272,4.471,3.964,4.487,3.961a.037.037,0,0,1,.046.028.038.038,0,0,1-.028.046A.555.555,0,0,1,1214.567-199.849Z" transform="translate(-1196.855 211.114)" fill="#282233"/><path d="M1211.872-199.967a.037.037,0,0,1-.021-.007.038.038,0,0,1-.011-.053,3.45,3.45,0,0,0,.11-3.588,3.273,3.273,0,0,0-3.134-1.324.037.037,0,0,1-.044-.031.038.038,0,0,1,.03-.045,3.355,3.355,0,0,1,3.211,1.357,3.526,3.526,0,0,1-.11,3.672A.038.038,0,0,1,1211.872-199.967Z" transform="translate(-1197.135 209.139)" fill="#282233"/><path d="M1193.391-194.932c-.388.322-.787.649-1.206.98l-.449.344-.006,0c-.67.475-.6,1.721.15,2.784s1.907,1.537,2.577,1.062c.015-.011.566-.328,1.494-.8A8.254,8.254,0,0,1,1193.391-194.932Z" transform="translate(-1191.268 205.749)" fill="#a2acc2"/><path d="M1203.7-191.549a13.543,13.543,0,0,0,4.059,4.5.959.959,0,0,1,.166,1.457l-.794.844a1.542,1.542,0,0,1-2.048.174,14.678,14.678,0,0,1-4.423-5.81Z" transform="translate(-1194.415 204.615)" fill="#f6ded3"/></g><path d="M1209.812-185.444a8.2,8.2,0,0,0,.173-1.768.44.44,0,0,0-.105-.339.77.77,0,0,0-.253-.1c-.237-.085-.381-.319-.557-.5a2.749,2.749,0,0,0-1.961-.613,6.536,6.536,0,0,0-2.6.4c-.243.1-.521.324-.421.568l1.254.213a.961.961,0,0,0-.8.388,1.042,1.042,0,0,0,.824.267,10.465,10.465,0,0,1,1.9.11q-.73.327-1.452.673c-.066.032-.14.074-.15.147-.016.116.136.174.253.187a9.523,9.523,0,0,0,2.546-.064.813.813,0,0,1,.653.072.934.934,0,0,1,.211.33.509.509,0,0,0,.263.281C1209.718-185.155,1209.785-185.315,1209.812-185.444Z" transform="translate(-1170.068 203.682)" fill="#ffa08b"/><path d="M1206.2-182.05s-1.385-1.011-1.385-1.2-.377-1.506,0-1.506.753.565.941,1.318a5.734,5.734,0,0,0,.942,1.694Z" transform="translate(-1170.262 202.337)" fill="#ffa08b"/></g><g transform="translate(87.961 77.071)"><g transform="translate(45.16 97.703)"><path d="M1145.14-44.737s.4,3.742,0,3.92,2.794,1.6,4.389-.356V-46.34Z" transform="translate(-1138.509 46.34)" fill="#ffa08b"/><path d="M1141.99-39.907l-.21.267c-.75.953-3.279,4.171-3.956,5.078-.8,1.07-3.99,3.92-2,4.99s6.983-2.673,10.374-5.7c0,0,1-3.208,0-4.633C1146.2-39.907,1142.765-38.125,1141.99-39.907Z" transform="translate(-1135.183 44.184)" fill="#4d3932"/><path d="M1146.393-33.987c-.1.423-.181.7-.181.7-3.391,3.029-8.379,6.772-10.374,5.7a1.1,1.1,0,0,1-.626-.773C1137.514-27.6,1142.725-31.073,1146.393-33.987Z" transform="translate(-1135.193 42.199)" fill="#333"/><path d="M1142.782-33.718l.119-.176-1.555-1.046,1.866.523a.106.106,0,0,0,.123-.055.106.106,0,0,0-.03-.132l-1.469-1.141,2.173.615a.105.105,0,0,0,.124-.056.106.106,0,0,0-.033-.132l-1.641-1.2,2.549.675a.107.107,0,0,0,.124-.059.107.107,0,0,0-.038-.132l-1.879-1.259,2.193.56.052-.207-2.793-.713a.105.105,0,0,0-.123.06.106.106,0,0,0,.038.132l1.865,1.25-2.48-.657a.107.107,0,0,0-.123.057.107.107,0,0,0,.033.132L1143.5-35.5l-2.129-.6a.107.107,0,0,0-.124.055.107.107,0,0,0,.03.132l1.472,1.143-1.981-.555a.107.107,0,0,0-.126.058.106.106,0,0,0,.037.133Z" transform="translate(-1137.009 43.429)" fill="#333"/></g><g transform="translate(26.013 97.595)"><path d="M1123.145-44.916a13.17,13.17,0,0,1-.663,4.36h4.416V-46.5l-3.736.4Z" transform="translate(-1111.778 46.502)" fill="#ffa08b"/><path d="M1121.5-39.115s-2.99.673-4.043-.521a20.081,20.081,0,0,1-2.751,2.372c-1.868,1.387-8.153,2.775-8.323,4.36s7.3,1.982,12.4,0c0,0,3.736-.2,3.736-1.189A43.569,43.569,0,0,0,1121.5-39.115Z" transform="translate(-1106.382 44.201)" fill="#4d3932"/><path d="M1118.584-31.6s3.252-.164,3.843-.938a5.781,5.781,0,0,1,.092.822c0,.991-3.736,1.189-3.736,1.189-5.1,1.982-12.568,1.586-12.4,0a.74.74,0,0,1,.066-.217C1108.664-29.951,1114.389-30.047,1118.584-31.6Z" transform="translate(-1106.382 41.82)" fill="#333"/><path d="M1118.408-34.542l.2-.077-.534-1.387.875.716a.107.107,0,0,0,.13,0,.108.108,0,0,0,.039-.124l-.4-1.086,1.259.816a.107.107,0,0,0,.126-.007.108.108,0,0,0,.031-.124l-.533-1.319,1.221.853a.108.108,0,0,0,.131-.006.107.107,0,0,0,.027-.128l-.611-1.282,1.131.821.126-.174-1.472-1.07a.108.108,0,0,0-.132,0,.107.107,0,0,0-.028.128l.618,1.3-1.184-.828a.107.107,0,0,0-.128,0,.109.109,0,0,0-.033.124l.541,1.34-1.243-.806a.108.108,0,0,0-.126.006.107.107,0,0,0-.033.121l.374,1.019-.885-.724a.108.108,0,0,0-.131,0,.107.107,0,0,0-.037.126Z" transform="translate(-1110.182 43.698)" fill="#333"/></g><path d="M1134.681-115.5s2,6.979,1.8,7.582,2.21,18.885,2.21,19.287,1.407,2.009,1,3.014a3.678,3.678,0,0,0,0,2.21s1.607,15.871,1.607,16.474v3.616c0,.6-2.009-1.205-3.817-.8s-4.42,1.206-4.42,1.206-.8-2.612-.6-3.014,0-1,.4-1.808S1131.454-80.4,1131.454-81s-2.009-4.822-2.009-6.027-2.612-12.657-2.612-12.657-1.406,13.059-1,14.265,1.407,5.626,1.206,6.228l-.8,2.411v11.854s1,3.616,0,3.616-4.219-2.21-8.036-2.411a12.593,12.593,0,0,1-.4-3.214c.2-.6,0-5.826,0-6.429V-83.811a62.384,62.384,0,0,1-.8-8.238c0-3.415.4-9.844,0-11.653s0-11.05,0-11.05Z" transform="translate(-1083.864 167.226)" fill="#7d6eb2"/><path d="M1142.735-59.975a.037.037,0,0,1-.037-.031c0-.01-.2-1.009-.4-1.6s-3.774-4.966-3.811-5.011a.037.037,0,0,1,.006-.053.038.038,0,0,1,.053.005,62.459,62.459,0,0,1,3.824,5.035c.2.6.4,1.6.4,1.612a.038.038,0,0,1-.03.045Z" transform="translate(-1091.127 150.861)"/><path d="M1123.09-59.877a.038.038,0,0,1-.033-.019c-.453-.742-4.425-7.262-4.221-7.671a.038.038,0,0,1,.051-.017.039.039,0,0,1,.017.051c-.141.281,2.445,4.7,4.218,7.6a.038.038,0,0,1-.013.052A.039.039,0,0,1,1123.09-59.877Z" transform="translate(-1084.541 151.165)"/><path d="M1128.635-69.349a.037.037,0,0,1-.036-.029c-.071-.281-.532-1.3-1.066-2.476-.993-2.188-2.351-5.184-2.351-5.971a.039.039,0,0,1,.039-.039.038.038,0,0,1,.038.039c0,.771,1.355,3.758,2.344,5.94.558,1.23,1,2.2,1.07,2.488a.038.038,0,0,1-.028.047Z" transform="translate(-1086.67 154.609)"/><path d="M1125.825-38.392a3.077,3.077,0,0,1-1.543-.421,35.654,35.654,0,0,0-4.213-1.8.038.038,0,0,1-.023-.049.037.037,0,0,1,.048-.023,35.6,35.6,0,0,1,4.225,1.811,2.89,2.89,0,0,0,2.576.2.039.039,0,0,1,.051.017.038.038,0,0,1-.017.051A2.724,2.724,0,0,1,1125.825-38.392Z" transform="translate(-1084.948 142.149)"/><path d="M1142.445-39.624a.036.036,0,0,1-.025-.009.038.038,0,0,1,0-.053,5.222,5.222,0,0,1,3.038-1.621A5.5,5.5,0,0,1,1148.9-40.3a.038.038,0,0,1,.008.054.038.038,0,0,1-.053.007,5.437,5.437,0,0,0-3.388-1,5.143,5.143,0,0,0-2.989,1.594A.039.039,0,0,1,1142.445-39.624Z" transform="translate(-1092.444 142.363)"/><path d="M1130.146-97.766a.039.039,0,0,1-.029-.014l-1-1.205-1.2-1.406a.038.038,0,0,1-.009-.02l-1.205-9.442a.038.038,0,0,1,.033-.043.038.038,0,0,1,.042.033l1.2,9.432,1.2,1.4,1,1.206a.038.038,0,0,1,0,.054A.038.038,0,0,1,1130.146-97.766Z" transform="translate(-1087.177 165.347)"/><path d="M1126.977-100.75a.035.035,0,0,1-.017,0l-2.162-1.034a.038.038,0,0,1-.021-.031l-.8-8.036a.038.038,0,0,1,.034-.042.037.037,0,0,1,.042.035l.8,8.015,2.143,1.024a.038.038,0,0,1,.018.051A.038.038,0,0,1,1126.977-100.75Z" transform="translate(-1086.265 165.347)"/><path d="M1141.9-104.382c-2.5,0-4.406-1.713-5.583-3.2a15.727,15.727,0,0,1-2.065-3.475.038.038,0,0,1,.021-.05.038.038,0,0,1,.049.021,15.663,15.663,0,0,0,2.055,3.458c1.231,1.55,3.26,3.353,5.943,3.148h0a.038.038,0,0,1,.038.035.038.038,0,0,1-.035.041Q1142.109-104.382,1141.9-104.382Z" transform="translate(-1089.709 165.752)"/><path d="M1116.916-103.223a.039.039,0,0,1-.025-.009.039.039,0,0,1,0-.054,14.642,14.642,0,0,0,2.7-8.688.038.038,0,0,1,.038-.039.039.039,0,0,1,.038.039,14.715,14.715,0,0,1-2.716,8.737A.036.036,0,0,1,1116.916-103.223Z" transform="translate(-1083.887 166.056)"/><g transform="translate(34.425)"><path d="M1123.418-173.161a25.226,25.226,0,0,1-1.138,5.167,7.268,7.268,0,0,0,6.461-.368s0-.272.136-6.265Z" transform="translate(-1120.123 187.045)" fill="#ffa08b"/><path d="M1123.489-170.616c.167-.876.279-1.658.322-1.986l5.2-.848A4.83,4.83,0,0,1,1123.489-170.616Z" transform="translate(-1120.528 186.65)" fill="#c77968"/><path d="M1128.1-192.175a2.557,2.557,0,0,1-.63-.192c-.427-.238-.646-.814-1.126-.9-.413-.076-.784.256-1.195.34-.725.15-1.434-.483-2.164-.36-.352.059-.657.289-1.008.354-.681.124-1.524-.353-2,.148l1.192.606c-.253.316-.768.213-1.116.422-.427.256-.531.939-1.015,1.054a1.493,1.493,0,0,0,1.087.447,3.277,3.277,0,0,1-.487,1.026l.579.049a4.329,4.329,0,0,0,.229,2.365,1.782,1.782,0,0,1,.772-1.7,3.415,3.415,0,0,1,1.858-.554,6.52,6.52,0,0,1,4.284,1.371,6.523,6.523,0,0,1,2.349,3.835,7.921,7.921,0,0,0,.981-2.034,3.893,3.893,0,0,1,.327,1.088c-.248-.513.425-1,.52-1.563a1.619,1.619,0,0,0-.084-.686l-.584-2.135a3.81,3.81,0,0,1,.884.279c-.044-.02-.222-.331-.305-.4a2.754,2.754,0,0,0-.538-.235,1.212,1.212,0,0,1-.717-.679A3.235,3.235,0,0,0,1128.1-192.175Z" transform="translate(-1119.035 193.306)" fill="#12263f"/><g transform="translate(0.186 7.833)"><path d="M1120.408-181.477a.861.861,0,0,0-.949.257.879.879,0,0,0-.1.755,1.752,1.752,0,0,0,.406.667,1.008,1.008,0,0,0,.812.413.784.784,0,0,0,.6-.624A1.176,1.176,0,0,0,1120.408-181.477Z" transform="translate(-1119.314 181.524)" fill="#c77968"/></g><path d="M1120.961-187.686a4.561,4.561,0,0,1,3.083-3.218,6.588,6.588,0,0,1,3.583.2c2.31.759,4,2.733,3.482,5.263a16.523,16.523,0,0,1-2.878,5.686,5.771,5.771,0,0,1-.846,1.023,3.723,3.723,0,0,1-1.266.694,6.959,6.959,0,0,1-2.9.663,2.264,2.264,0,0,1-1.086-.324,3.348,3.348,0,0,1-.858-.935,5.147,5.147,0,0,1-1.076-2.212,4.669,4.669,0,0,1,.02-1.074q.058-.574.139-1.145a5.74,5.74,0,0,1,.134-1.047q.109-1.1.238-2.2A9.109,9.109,0,0,1,1120.961-187.686Z" transform="translate(-1119.416 192.555)" fill="#ffa08b"/><path d="M1124.305-178.329a.078.078,0,0,0,.085-.039.076.076,0,0,0-.032-.1c-.2-.108-.527-.326-.438-.566a.752.752,0,0,1,.12-.193l.016-.021a4.19,4.19,0,0,0,.895-2.542.077.077,0,0,0-.078-.074.077.077,0,0,0-.075.078,4.03,4.03,0,0,1-.863,2.445l-.015.021a.868.868,0,0,0-.144.233c-.1.263.081.523.51.754A.072.072,0,0,0,1124.305-178.329Z" transform="translate(-1120.615 189.472)" fill="#c77968"/><path d="M1125.519-176.517h0a.3.3,0,0,0,.233-.051.331.331,0,0,0,.14-.218.325.325,0,0,0-.068-.25.3.3,0,0,0-.208-.116.076.076,0,0,0-.082.07.076.076,0,0,0,.07.082.147.147,0,0,1,.1.058.176.176,0,0,1,.037.132.178.178,0,0,1-.076.115.151.151,0,0,1-.114.028.385.385,0,0,1-.1-.048l-.3-.176a.076.076,0,0,0-.1.028.077.077,0,0,0,.028.1l.3.176A.544.544,0,0,0,1125.519-176.517Z" transform="translate(-1121.046 187.891)" fill="#c77968"/><path d="M1128.306-181.433a.229.229,0,0,0,.125-.006,1.778,1.778,0,0,1,1.708.395.229.229,0,0,0,.325,0,.23.23,0,0,0,0-.325,2.221,2.221,0,0,0-2.177-.5.23.23,0,0,0-.145.291A.229.229,0,0,0,1128.306-181.433Z" transform="translate(-1122.083 189.511)" fill="#4e3933"/><path d="M1121.553-182.995a.221.221,0,0,0,.124-.007,1.776,1.776,0,0,1,1.708.4.23.23,0,0,0,.325,0,.23.23,0,0,0,0-.326,2.223,2.223,0,0,0-2.177-.5.23.23,0,0,0-.145.292A.231.231,0,0,0,1121.553-182.995Z" transform="translate(-1119.819 190.035)" fill="#4e3933"/><path d="M1124.209-174.845a7.515,7.515,0,0,0,1.513.181.039.039,0,0,0,.039-.039.038.038,0,0,0-.038-.039c-.021,0-2.138-.015-3.007-.907a.037.037,0,0,0-.054,0,.038.038,0,0,0,0,.054A3.19,3.19,0,0,0,1124.209-174.845Z" transform="translate(-1120.247 187.391)" fill="#6b4640"/><path d="M1127.755-174.26a.038.038,0,0,0,.04-.015.241.241,0,0,0-.025-.3.039.039,0,0,0-.054,0,.039.039,0,0,0,0,.055.165.165,0,0,1,.017.2.038.038,0,0,0,.009.053Z" transform="translate(-1121.941 187.031)" fill="#c77968"/><path d="M1123.311-181.269a.461.461,0,0,0-.346-.553.462.462,0,0,0-.554.345.462.462,0,0,0,.346.554A.461.461,0,0,0,1123.311-181.269Z" transform="translate(-1120.163 189.461)" fill="#333"/><path d="M1121.783-181.625a.067.067,0,0,0,.036,0,2.2,2.2,0,0,1,.874-.126,1.781,1.781,0,0,1,.662.479.065.065,0,0,0,.093.005.065.065,0,0,0,.005-.093,1.856,1.856,0,0,0-.73-.52,2.271,2.271,0,0,0-.946.13.066.066,0,0,0-.041.084A.068.068,0,0,0,1121.783-181.625Z" transform="translate(-1119.939 189.483)" fill="#333"/><path d="M1128.857-179.985a.461.461,0,0,1,.554-.346.462.462,0,0,1,.346.554.462.462,0,0,1-.554.345A.461.461,0,0,1,1128.857-179.985Z" transform="translate(-1122.323 188.961)" fill="#333"/><path d="M1130.011-179.729a.069.069,0,0,1-.032-.017,2.193,2.193,0,0,0-.729-.5,1.775,1.775,0,0,0-.806.14.066.066,0,0,1-.086-.036.066.066,0,0,1,.035-.086,1.856,1.856,0,0,1,.886-.146,2.281,2.281,0,0,1,.793.532.067.067,0,0,1,0,.094A.066.066,0,0,1,1130.011-179.729Z" transform="translate(-1122.159 188.976)" fill="#333"/><path d="M1124.5-173.818c.089.021.186.039.293.056a.038.038,0,0,0,.043-.033.039.039,0,0,0-.032-.044,2.289,2.289,0,0,1-1.036-.357.039.039,0,0,0-.054,0,.039.039,0,0,0,0,.054A1.99,1.99,0,0,0,1124.5-173.818Z" transform="translate(-1120.601 186.903)" fill="#6b4640"/><path d="M1134.73-181.133a2.819,2.819,0,0,1-.642.8,1.051,1.051,0,0,1-.969.207,10.5,10.5,0,0,1-.039-2.534,12.678,12.678,0,0,0-.132-2.29.293.293,0,0,1,.015-.2.286.286,0,0,1,.216-.1,6.129,6.129,0,0,1,1.747-.015c.4.054.856.205.968.59.119.408-.251,1.052-.337,1.479A6.231,6.231,0,0,1,1134.73-181.133Z" transform="translate(-1123.695 190.628)" fill="#12263f"/><path d="M1128.684-185.674a2.458,2.458,0,0,1,.014-1.122q.809.675,1.672,1.28a.515.515,0,0,1,.35-.49,3.106,3.106,0,0,0,.593-.257c.428-.318.337-.978.161-1.482a5.806,5.806,0,0,0-3.192-3.714,7.263,7.263,0,0,0-2.668-.3,6.843,6.843,0,0,0-2.137.293,2.579,2.579,0,0,0-1.579,1.387c-.1.247-.144.511-.235.76a2.3,2.3,0,0,1-.664.961,6.352,6.352,0,0,0,2.1-.326c-.4.534-1.451.5-1.547,1.161a1.354,1.354,0,0,1,1.137-.273,4.849,4.849,0,0,0,1.2.113c1.052-.137,2.205-1.722,3.36-.985a4.407,4.407,0,0,1,.915,1.339C1128.426-186.841,1128.261-186.055,1128.684-185.674Z" transform="translate(-1119.694 192.79)" fill="#12263f"/><g transform="translate(9.411 10.062)"><path d="M1134.548-178.158a.861.861,0,0,1,.74.648.878.878,0,0,1-.238.723,1.747,1.747,0,0,1-.658.421,1,1,0,0,1-.911.014.781.781,0,0,1-.267-.824A1.176,1.176,0,0,1,1134.548-178.158Z" transform="translate(-1133.19 178.17)" fill="#ffa08b"/><path d="M1133.935-176.548a.045.045,0,0,0,.024,0,.324.324,0,0,0,.182-.275.324.324,0,0,0-.163-.287.109.109,0,0,1-.025-.016.045.045,0,0,1,0-.017.476.476,0,0,1,.169-.211,1.055,1.055,0,0,1,.479-.249.515.515,0,0,1,.48.145.2.2,0,0,1,.054.186.039.039,0,0,0,.024.049.038.038,0,0,0,.048-.024.271.271,0,0,0-.068-.261.593.593,0,0,0-.552-.171,1.14,1.14,0,0,0-.514.265.555.555,0,0,0-.194.248.1.1,0,0,0,0,.07.108.108,0,0,0,.054.051.246.246,0,0,1,.128.219.245.245,0,0,1-.138.208.038.038,0,0,0-.019.051A.038.038,0,0,0,1133.935-176.548Z" transform="translate(-1133.421 178.01)" fill="#c77968"/></g></g><path d="M1107.292-137.34s-.8,3.617-2.009,3.817-9.241-9.644-10.045-10.447-2.889-3.22-3.152-3.518,5.161,1.108,5.161,1.308,7.032,5.224,7.032,5.224Z" transform="translate(-1075.573 177.962)" fill="#ffa08b"/><path d="M1128.6-165.293a10.9,10.9,0,0,1-6.228.4l.8,15.671s4.219-.6,4.219-1S1128.6-165.293,1128.6-165.293Z" transform="translate(-1085.727 183.916)" fill="#f6ebe3"/><path d="M1123.934-168.819l1.507,1.506s7.031,1.607,7.634,2.21.8,2.411,1.205,2.813,1,.4,1,1.206-.4,1.607,0,2.008.4.2.4.8a35.491,35.491,0,0,0,.8,4.018c.2.8,1.808,4.822,2.21,5.023s-.1,3.516-.1,3.516-5.726,1.1-7.533-.5c0,0,.8,9.041.8,9.241s.6,3.214.6,3.214a11.2,11.2,0,0,0-3.415,2.009c-1.607,1.407-5.224,4.219-9.04,3.416s-5.626-3.215-7.233-3.817a32.152,32.152,0,0,0,0-4.42,7.808,7.808,0,0,1,0-2.21l-.4-5.023-4.822-5.425,1-6.027a4.466,4.466,0,0,1-.4-3.014c.4-1.607,1.607-4.219,1.607-4.62s7.032-4.621,7.032-4.621l1.205-1.407s1.206,18.082,1.607,16.474S1123.934-168.819,1123.934-168.819Z" transform="translate(-1080.763 185.132)" fill="#f5ca56"/><path d="M1142.545-136.14a.039.039,0,0,1-.036-.024,5.79,5.79,0,0,1-.4-1.621v-.8a.079.079,0,0,1,.034-.061,11.11,11.11,0,0,1,4.229-.58c1.193.2,2.8.6,2.816.6a.037.037,0,0,1,.028.046.038.038,0,0,1-.047.028c-.016,0-1.619-.4-2.809-.6a11.179,11.179,0,0,0-4.176.571v.8a5.847,5.847,0,0,0,.4,1.593.039.039,0,0,1-.021.05A.035.035,0,0,1,1142.545-136.14Z" transform="translate(-1092.343 175.193)"/><path d="M1141.958-142.777a.039.039,0,0,1-.037-.027,34.825,34.825,0,0,1-1.026-8.757.038.038,0,0,1,.038-.038.038.038,0,0,1,.039.038,34.7,34.7,0,0,0,1.023,8.736.039.039,0,0,1-.027.047Z" transform="translate(-1091.938 179.326)"/><path d="M1140.266-144.8a.039.039,0,0,1-.031-.016c-.951-1.3-2.641-4.282-2.658-4.312a.038.038,0,0,1,.015-.052.038.038,0,0,1,.052.015c.017.03,1.7,3,2.653,4.3a.038.038,0,0,1-.009.053A.037.037,0,0,1,1140.266-144.8Z" transform="translate(-1090.824 178.516)"/><path d="M1146.072-149.423h-.009a.038.038,0,0,1-.028-.047c.2-.8,1.395-4.783,1.406-4.823a.039.039,0,0,1,.048-.026.038.038,0,0,1,.025.048c-.012.04-1.207,4.027-1.406,4.82A.037.037,0,0,1,1146.072-149.423Z" transform="translate(-1093.66 180.238)"/><path d="M1127.637-156.621h-.011a.038.038,0,0,1-.025-.048l2.21-6.831a.04.04,0,0,1,.009-.015,12.086,12.086,0,0,1,1.412-1.21,9.97,9.97,0,0,1,2.343-.791l-1.644-1.219a.038.038,0,0,1-.008-.053.038.038,0,0,1,.053-.008l1.711,1.268a.037.037,0,0,1,.014.039.037.037,0,0,1-.029.029,10.862,10.862,0,0,0-2.4.8,11.932,11.932,0,0,0-1.394,1.194l-2.207,6.822A.039.039,0,0,1,1127.637-156.621Z" transform="translate(-1087.481 184.423)"/><path d="M1122.381-157.574a.039.039,0,0,1-.037-.031l-.7-3.234c-.009-.034-1.006-3.6-1.78-3.788a3.714,3.714,0,0,0-1.589,0,.037.037,0,0,1-.042-.019.038.038,0,0,1,.007-.045l2.009-2.01a.039.039,0,0,1,.054,0,.038.038,0,0,1,0,.054l-1.919,1.92a3.743,3.743,0,0,1,1.5.026c.816.2,1.794,3.695,1.836,3.844l.7,3.236a.038.038,0,0,1-.029.045Z" transform="translate(-1084.341 184.391)"/><path d="M1115.346-142.28h0a.039.039,0,0,1-.037-.039c0-.072.194-7.24-.4-8.623a.038.038,0,0,1,.02-.05.039.039,0,0,1,.05.02c.6,1.4.413,8.359.4,8.655A.039.039,0,0,1,1115.346-142.28Z" transform="translate(-1083.226 179.123)"/><path d="M1114.755-145.993a.038.038,0,0,1-.034-.021l-1.624-3.114a.038.038,0,0,1,.016-.051.038.038,0,0,1,.051.016l1.624,3.114a.039.039,0,0,1-.016.052A.043.043,0,0,1,1114.755-145.993Z" transform="translate(-1082.618 178.516)"/><path d="M1113.226-154.15a.038.038,0,0,1-.03-.014,20.891,20.891,0,0,0-2.205-2.205.038.038,0,0,1,0-.054.039.039,0,0,1,.054,0,21.106,21.106,0,0,1,2.214,2.215.038.038,0,0,1-.006.054A.037.037,0,0,1,1113.226-154.15Z" transform="translate(-1081.909 180.947)"/><path d="M1140.329-157.08h-.007a.039.039,0,0,1-.031-.045c1-5.391,3.351-5.648,3.45-5.656a.036.036,0,0,1,.04.035.038.038,0,0,1-.035.041c-.024,0-2.395.268-3.381,5.594A.038.038,0,0,1,1140.329-157.08Z" transform="translate(-1091.735 183.074)"/><path d="M1127.105-119.92a.039.039,0,0,1-.039-.036l-1.281-24.351a.037.037,0,0,1,.036-.04.04.04,0,0,1,.041.036l1.281,24.351a.039.039,0,0,1-.037.04Z" transform="translate(-1086.873 176.895)"/><path d="M1149.4-67.314a.043.043,0,0,1-.015,0,.039.039,0,0,1-.02-.05l.6-1.407a.038.038,0,0,1,.05-.02.038.038,0,0,1,.02.051l-.6,1.406A.037.037,0,0,1,1149.4-67.314Z" transform="translate(-1094.774 151.57)"/><g transform="translate(0 15.138)"><path d="M1069.908-169.054l-2.655-1.481,2.295,1.964Z" transform="translate(-1067.252 170.535)" fill="#b3b3b3"/><rect width="5.023" height="64.892" transform="matrix(0.598, -0.801, 0.801, 0.598, 8.781, 9.564)" fill="#12263f"/><path d="M1070.277-169.182l-.6.805,2.48,3.493a14.374,14.374,0,0,0,3.12,3.2l3.018,2.253,3-4.025-3.019-2.254a14.388,14.388,0,0,0-3.95-2.083Z" transform="translate(-1068.065 170.081)" fill="#b3b3b3"/><rect width="5.424" height="1.607" transform="translate(59.695 47.823) rotate(-53.258)" fill="#b3b3b3"/><path d="M1163.857-100.291l-1.193,1.6a.409.409,0,0,1-.572.083l-3.053-2.28,1.683-2.254,3.053,2.279A.409.409,0,0,1,1163.857-100.291Z" transform="translate(-1098.019 147.944)" fill="#b3b3b3"/><path d="M1150.1-102.838a13.209,13.209,0,0,1-7.37-2.912,17.949,17.949,0,0,1-4.412-4.769,8.363,8.363,0,0,0-1.752-2.089c-.679-.507-.989-.463-1.09-.421-.181.076-.259.358-.272.451a.384.384,0,0,1-.427.327.38.38,0,0,1-.329-.423,1.361,1.361,0,0,1,.727-1.055,1.918,1.918,0,0,1,1.848.511,9,9,0,0,1,1.925,2.269,17.3,17.3,0,0,0,4.238,4.588,12.659,12.659,0,0,0,6.924,2.761h.007a.381.381,0,0,1,.381.376.381.381,0,0,1-.375.386Z" transform="translate(-1089.775 151.522)" fill="#b3b3b3"/><path d="M1160.231-99.966a.044.044,0,0,1-.023-.007.038.038,0,0,1-.007-.053l1.683-2.254a.038.038,0,0,1,.053-.007.037.037,0,0,1,.007.053l-1.682,2.254A.037.037,0,0,1,1160.231-99.966Z" transform="translate(-1098.406 147.661)"/><path d="M1079.517-158.85a.037.037,0,0,1-.032-.019.037.037,0,0,1,.013-.052,7.753,7.753,0,0,0,2.988-4,.038.038,0,0,1,.048-.025.038.038,0,0,1,.025.048,7.823,7.823,0,0,1-3.022,4.045A.034.034,0,0,1,1079.517-158.85Z" transform="translate(-1071.35 167.992)"/></g><path d="M1103.994-136.336s-3.578-1.456-4.382-2.259-6.669-10.118-7.353-10.383a16.733,16.733,0,0,1-2.2-1.379,1.2,1.2,0,0,1-.472-1.308c.367-1.327,1.092-3.8,1.386-3.8.4,0,.2,2.411.2,2.411s1-2.21,1.205-1.808a1.57,1.57,0,0,1,0,1s.4-.4.6-.4-.2,2.21-.2,2.21.6-1.607.8-1.205-.2,1.607-.2,1.607a15.357,15.357,0,0,1,2.009,3.014c.2.8,8.612,6.368,9.128,8.408a7.051,7.051,0,0,1-.315,4.007Z" transform="translate(-1074.724 180.624)" fill="#ffa08b"/><path d="M1134.177-134.951s4.42-1.607,7.031.2c0,0,.4,4.42-.6,4.822s-1,1.205-14.666.8c0,0-5.023,1.808-5.625,1.406a2.162,2.162,0,0,1-.8-1s-.8-.2-1-.6a2.473,2.473,0,0,0-.4-.6l-.6-.4-.362-.73s1.567-.074,1.968-.074a10.47,10.47,0,0,0,3.014-1.205c0-.2-2.009-1.607-1.807-2.21s1.205.4,2.21.8,2.611,1.205,2.611,1.205l.6.4s7.434-1.607,8.438-1.808Z" transform="translate(-1083.975 173.966)" fill="#ffa08b"/><path d="M1142.729-133.234a.075.075,0,0,1-.073-.055.076.076,0,0,1,.051-.094,17.862,17.862,0,0,1,5.511-.257.076.076,0,0,1,.071.081.077.077,0,0,1-.081.071,17.733,17.733,0,0,0-5.458.251A.081.081,0,0,1,1142.729-133.234Z" transform="translate(-1092.527 173.329)" fill="#c77968"/><path d="M1150.585-127.533a.076.076,0,0,1-.076-.076.076.076,0,0,1,.076-.076c.261,0,.715-.594.939-.967a.076.076,0,0,1,.1-.027.076.076,0,0,1,.026.1C1151.591-128.468,1151.018-127.533,1150.585-127.533Z" transform="translate(-1095.16 171.647)" fill="#c77968"/></g><g transform="translate(6.604 93.697)"><path d="M978.16-182.962a4.31,4.31,0,0,1,3.271-.485,12.788,12.788,0,0,1,3.14,1.27c1.29.661,2.747,1.555,2.877,3,.085.94-.445,1.834-.489,2.776-.071,1.538,1.149,3.029.705,4.5-.263.873-1.058,1.5-1.375,2.349-.352.946-.066,2.014-.273,3a3.115,3.115,0,0,1-2.384,2.358c-.751.15-1.619.043-2.188.554-.755.678-.47,1.978-1.058,2.8a2.4,2.4,0,0,1-2.514.663c-.9-.205-1.727-.658-2.635-.808a4.105,4.105,0,0,0-3.183.824c-1.036.822-2.82-.214-3.686-1.215a3.414,3.414,0,0,1-.439-3.712c.9-1.746,3.2-2.466,4-4.265a25.157,25.157,0,0,1,.828-2.619c.368-.632,1-1.08,1.358-1.718.743-1.327.1-2.988.29-4.5C974.662-180.185,976.481-181.835,978.16-182.962Z" transform="translate(-955.867 183.565)" fill="#12263f"/><path d="M1011.85-124.189h3.047s2.591,1.524,3.048,1.371.61-.457,1.219-.457,2.133-.3,2.133-.61a19.884,19.884,0,0,1,.537-2.075h-11.392Z" transform="translate(-970.237 164.256)" fill="#ffa08b"/><path d="M1000.2-147.158s1.509,10.33,1.341,10.832,1.844,2.347,1.844,2.347l4.3,1.16a2.9,2.9,0,0,1-.3,1.828s-12.8,1.371-11.54-4.665c.48-2.3,1.173-10.394,1.173-10.394Z" transform="translate(-965.314 171.362)" fill="#a2acc2"/><path d="M961.214-121.445a60.267,60.267,0,0,1-4.191,5.532c-.838.671-3.186,2.012-3.186,2.012s-.671,1.844-.335,1.844-.5.5-.671.5-.335-1.844-.335-1.844-.671,2.515-.336,2.515c0,0-.67.335-.838-.168s.168.5-.168.335-1.677-3.185-1.006-4.023,5.532-2.515,5.868-3.353,1.508-4.694,2.179-5.532S961.214-121.445,961.214-121.445Z" transform="translate(-949.964 163.522)" fill="#ffa08b"/><g transform="translate(9.292 81.716)"><path d="M972.5-60.647s-2.9,3.987-3.574,4.386-3.986.979-4.563,1.547-.438.03-.287,2.222-.156,6.706.972,9.007,2.612,2.111,2.612,2.111,1.285-.529,1.494-1.336-.411-3.407-.132-4.483,1.391-5.382,2.139-6.05,4.759-5.084,4.759-5.084Z" transform="translate(-963.941 60.647)" fill="#ffa08b"/><path d="M967.657-39.072s1.285-.529,1.494-1.336-.411-3.407-.132-4.483a34.011,34.011,0,0,1,1.847-5.647,6.775,6.775,0,0,1-2.373-3.24c-1.128.383-3.636.88-4.132,1.367-.577.568-.438.03-.287,2.222s-.156,6.706.972,9.007S967.657-39.072,967.657-39.072Z" transform="translate(-963.941 58.345)" fill="#7d6eb2"/><path d="M969.055-42.045A3.308,3.308,0,0,0,965.98-43.7a36.339,36.339,0,0,1-1.111-8.46,1.707,1.707,0,0,0-.508.291c-.577.568-.438.03-.287,2.222s-.156,6.706.972,9.007,2.612,2.111,2.612,2.111,1.285-.529,1.494-1.336A8.647,8.647,0,0,0,969.055-42.045Z" transform="translate(-963.941 57.802)" fill="#f6ded3"/><path d="M969.154-39.314h0c-.025,0-2.521-.348-2.826-4.459-.013-.055-1.4-6.017-1.116-8.22a.04.04,0,0,1,.043-.033.038.038,0,0,1,.033.043c-.283,2.19,1.1,8.138,1.115,8.2.3,4.051,2.736,4.393,2.76,4.4a.039.039,0,0,1,.033.043A.038.038,0,0,1,969.154-39.314Z" transform="translate(-964.353 57.758)" fill="#282233"/><path d="M970.654-43.849a.076.076,0,0,1-.054-.023,6.106,6.106,0,0,0-1.864-1.268.077.077,0,0,1-.043-.092.075.075,0,0,1,.086-.053,6.724,6.724,0,0,1,1.755.547c-.529-.5-1.1-.972-1.655-1.427a.076.076,0,0,1-.018-.1.076.076,0,0,1,.092-.035,11.067,11.067,0,0,1,2.022.957,1.651,1.651,0,0,0-.249-.3,2.462,2.462,0,0,0-.426-.293c-.064-.038-.129-.076-.191-.116-.124-.079-.244-.168-.359-.254a3.353,3.353,0,0,0-.624-.4.076.076,0,0,1-.042-.092.076.076,0,0,1,.085-.053,8.872,8.872,0,0,1,1.823.507,10.187,10.187,0,0,0-1.51-.952.076.076,0,0,1-.038-.091.077.077,0,0,1,.083-.053,8.631,8.631,0,0,1,1.89.485,4.71,4.71,0,0,0-.6-.425c-.428-.271-.87-.533-1.315-.78a.076.076,0,0,1-.035-.091.077.077,0,0,1,.085-.051,8.68,8.68,0,0,1,2.021.513,3.105,3.105,0,0,0-.434-.35c-.17-.113-.355-.211-.534-.307a4.759,4.759,0,0,1-.72-.439.077.077,0,0,1-.025-.084.077.077,0,0,1,.072-.052,4.68,4.68,0,0,1,1.8.345,11.521,11.521,0,0,0-1.4-1.076.077.077,0,0,1-.033-.082.076.076,0,0,1,.067-.057,3.421,3.421,0,0,1,2.008.709.076.076,0,0,1,.025.105.076.076,0,0,1-.1.024,3.69,3.69,0,0,0-1.675-.691,11.566,11.566,0,0,1,1.574,1.288.077.077,0,0,1,.008.1.077.077,0,0,1-.1.022,4.522,4.522,0,0,0-1.926-.529c.161.1.332.2.5.285.183.1.372.2.547.314a3.239,3.239,0,0,1,.737.677.076.076,0,0,1,0,.1.075.075,0,0,1-.1.017,5.944,5.944,0,0,0-1.906-.6c.318.184.634.374.943.569a3.4,3.4,0,0,1,.876.712.076.076,0,0,1,0,.094.077.077,0,0,1-.091.024,8.434,8.434,0,0,0-1.738-.536,10.264,10.264,0,0,1,1.574,1.106.077.077,0,0,1,.015.1.079.079,0,0,1-.1.028,8.728,8.728,0,0,0-1.86-.635c.088.061.173.124.257.186.113.084.231.172.35.248.061.039.124.076.188.114a2.592,2.592,0,0,1,.451.311,2.6,2.6,0,0,1,.45.61.077.077,0,0,1-.013.094.076.076,0,0,1-.094.009,10.833,10.833,0,0,0-1.837-.952A20.3,20.3,0,0,1,971-44.5a.076.076,0,0,1,.006.1.076.076,0,0,1-.1.02,6.582,6.582,0,0,0-1.562-.632,6.262,6.262,0,0,1,1.365,1.029.076.076,0,0,1,0,.108A.073.073,0,0,1,970.654-43.849Z" transform="translate(-965.533 57.042)" fill="#f6ded3"/><path d="M971.316-46.067a.455.455,0,0,1-.36-.251,1.562,1.562,0,0,1,.1-1.451c.078-.151.168-.3.255-.439a3.642,3.642,0,0,0,.412-.821.426.426,0,0,0,.009-.253l-.379.8a5.5,5.5,0,0,1-.73,1.243,1.894,1.894,0,0,1-1.258.714.077.077,0,0,1-.082-.069.077.077,0,0,1,.07-.082,1.751,1.751,0,0,0,1.155-.661,5.419,5.419,0,0,0,.709-1.209l.39-.822-.009,0a.163.163,0,0,1-.051-.051,7.674,7.674,0,0,1-1.964.9,1.335,1.335,0,0,1-.5.075.564.564,0,0,1-.455-.271.56.56,0,0,1,.122-.632,1.277,1.277,0,0,1,.548-.3,9.539,9.539,0,0,1,1.747-.324.866.866,0,0,1,.538.055.393.393,0,0,1,.163.187.379.379,0,0,1,.235.106,1.184,1.184,0,0,1,.234,1.049,12.547,12.547,0,0,1-.3,1.582,1.963,1.963,0,0,1-.338.779.411.411,0,0,1-.192.144A.268.268,0,0,1,971.316-46.067Zm.445-3.408c.166.092.165.32.113.491a3.8,3.8,0,0,1-.429.856c-.085.14-.174.285-.249.43a1.451,1.451,0,0,0-.108,1.305c.059.1.166.2.265.168a.267.267,0,0,0,.118-.094,1.841,1.841,0,0,0,.308-.721,12.483,12.483,0,0,0,.293-1.562,1.062,1.062,0,0,0-.185-.918.285.285,0,0,0-.1-.06A.292.292,0,0,1,971.761-49.476Zm-.479-.37a1.709,1.709,0,0,0-.209.017,9.357,9.357,0,0,0-1.72.318,1.125,1.125,0,0,0-.484.259.415.415,0,0,0-.1.455.418.418,0,0,0,.334.191,1.217,1.217,0,0,0,.439-.07,7.485,7.485,0,0,0,2-.929.221.221,0,0,1,.066-.09.244.244,0,0,0-.091-.1A.469.469,0,0,0,971.282-49.846Z" transform="translate(-965.497 57.078)" fill="#f6ded3"/></g><g transform="translate(17.893 87.847)"><path d="M977.11-49.581s.566,6.269.6,7.055-1.023,3.973-.8,4.751-.181.4,1.822,1.3,5.834,3.309,8.394,3.405,3.1-1.3,3.1-1.3.142-1.382-.47-1.948-3.2-1.25-4.013-2.005-4.083-3.773-4.318-4.747.047-8.359.047-8.359Z" transform="translate(-976.878 51.425)" fill="#ffa08b"/><path d="M990.223-29.927s.142-1.382-.47-1.948-3.2-1.25-4.013-2.005a34.01,34.01,0,0,1-4.1-4.3,6.775,6.775,0,0,1-3.977.558c-.2,1.175-.945,3.618-.751,4.287.227.778-.181.4,1.822,1.305s5.834,3.309,8.394,3.405S990.223-29.927,990.223-29.927Z" transform="translate(-976.879 46.985)" fill="#7d6eb2"/><path d="M987.786-30.674a3.306,3.306,0,0,0-2.912,1.926,36.313,36.313,0,0,1-7.979-3.024,1.714,1.714,0,0,0,.015.585c.227.778-.181.4,1.822,1.3s5.834,3.309,8.394,3.405,3.1-1.3,3.1-1.3.142-1.382-.47-1.948A8.622,8.622,0,0,0,987.786-30.674Z" transform="translate(-976.879 44.837)" fill="#f6ded3"/><path d="M987.5-28.057a6.739,6.739,0,0,1-2.73-.661c-.054-.014-5.963-1.612-7.769-2.906a.038.038,0,0,1-.009-.053.038.038,0,0,1,.053-.009c1.8,1.286,7.692,2.881,7.751,2.9,3.716,1.653,5.164-.331,5.178-.352a.039.039,0,0,1,.053-.009.038.038,0,0,1,.009.053A3.121,3.121,0,0,1,987.5-28.057Z" transform="translate(-976.915 44.811)" fill="#282233"/><path d="M985.05-32.9a.076.076,0,0,1-.054-.022.077.077,0,0,1-.007-.1,6.779,6.779,0,0,1,1.312-1.287c-.693.227-1.375.509-2.039.782a.076.076,0,0,1-.094-.029.076.076,0,0,1,.013-.1,11.065,11.065,0,0,1,1.8-1.328,1.678,1.678,0,0,0-.382.078,2.393,2.393,0,0,0-.457.236c-.065.039-.129.078-.195.114-.128.072-.263.135-.394.2a3.342,3.342,0,0,0-.646.361.076.076,0,0,1-.1-.007.076.076,0,0,1-.007-.1,8.9,8.9,0,0,1,1.309-1.366,10.116,10.116,0,0,0-1.553.88.076.076,0,0,1-.1-.009.077.077,0,0,1-.007-.1,8.645,8.645,0,0,1,1.322-1.435,4.676,4.676,0,0,0-.656.323c-.441.249-.882.515-1.31.789a.076.076,0,0,1-.1-.013.076.076,0,0,1,0-.1,8.618,8.618,0,0,1,1.407-1.538,3.1,3.1,0,0,0-.513.217c-.18.1-.354.213-.523.325a4.768,4.768,0,0,1-.728.426.074.074,0,0,1-.086-.018.075.075,0,0,1-.012-.087,4.676,4.676,0,0,1,1.157-1.426,11.464,11.464,0,0,0-1.612.727.076.076,0,0,1-.088-.01.077.077,0,0,1-.019-.086,3.431,3.431,0,0,1,1.574-1.433.075.075,0,0,1,.1.028.076.076,0,0,1-.028.1,3.678,3.678,0,0,0-1.4,1.149,11.527,11.527,0,0,1,1.879-.778.076.076,0,0,1,.091.041.075.075,0,0,1-.027.1,4.516,4.516,0,0,0-1.377,1.447c.168-.092.329-.2.487-.305a6.291,6.291,0,0,1,.536-.333,3.21,3.21,0,0,1,.945-.328.077.077,0,0,1,.084.047.075.075,0,0,1-.031.092,5.944,5.944,0,0,0-1.433,1.395c.312-.193.63-.382.948-.561a3.4,3.4,0,0,1,1.042-.435.077.077,0,0,1,.083.044.076.076,0,0,1-.023.091,8.452,8.452,0,0,0-1.294,1.278,10.2,10.2,0,0,1,1.72-.864.076.076,0,0,1,.094.034.076.076,0,0,1-.022.1,8.767,8.767,0,0,0-1.439,1.338c.095-.049.191-.093.285-.138.128-.06.261-.122.385-.191.064-.036.126-.074.19-.112a2.586,2.586,0,0,1,.487-.25,2.572,2.572,0,0,1,.75-.106.074.074,0,0,1,.076.055.074.074,0,0,1-.037.087,10.864,10.864,0,0,0-1.708,1.168,20.432,20.432,0,0,1,2.1-.759.076.076,0,0,1,.09.043.076.076,0,0,1-.029.1,6.57,6.57,0,0,0-1.3,1.076,6.3,6.3,0,0,1,1.552-.715.077.077,0,0,1,.1.051.077.077,0,0,1-.051.1,6.119,6.119,0,0,0-2,1.042A.075.075,0,0,1,985.05-32.9Z" transform="translate(-978.49 46.941)" fill="#f6ded3"/><path d="M984.01-34.061a.073.073,0,0,1-.031-.007.076.076,0,0,1-.039-.1,1.748,1.748,0,0,0-.036-1.33,5.433,5.433,0,0,0-.73-1.2l-.54-.733-.009.007a.163.163,0,0,1-.07.021,7.617,7.617,0,0,1-.136,2.155,1.354,1.354,0,0,1-.168.473.566.566,0,0,1-.453.273h0a.56.56,0,0,1-.5-.407,1.273,1.273,0,0,1,0-.624,9.463,9.463,0,0,1,.54-1.693.87.87,0,0,1,.3-.448.391.391,0,0,1,.242-.055.378.378,0,0,1,.2-.158,1.186,1.186,0,0,1,1.035.291,12.62,12.62,0,0,1,1.253,1.01,1.968,1.968,0,0,1,.527.666.423.423,0,0,1,.036.237.412.412,0,0,1-.418.275,1.56,1.56,0,0,1-1.229-.778c-.1-.14-.183-.289-.267-.433a3.613,3.613,0,0,0-.528-.751.428.428,0,0,0-.218-.128l.523.711a5.489,5.489,0,0,1,.749,1.231,1.9,1.9,0,0,1,.034,1.447A.077.077,0,0,1,984.01-34.061Zm-1.669-3.515a.241.241,0,0,0-.124.033.723.723,0,0,0-.241.374,9.42,9.42,0,0,0-.533,1.666,1.127,1.127,0,0,0,0,.548.415.415,0,0,0,.355.3h0a.417.417,0,0,0,.326-.2,1.236,1.236,0,0,0,.147-.42,7.5,7.5,0,0,0,.126-2.2.218.218,0,0,1-.048-.1Zm.413-.073a.531.531,0,0,1,.346.174,3.8,3.8,0,0,1,.551.782c.083.141.168.287.261.423a1.457,1.457,0,0,0,1.1.713c.117,0,.253-.054.273-.154a.258.258,0,0,0-.027-.148,1.836,1.836,0,0,0-.489-.612,12.416,12.416,0,0,0-1.238-1,1.06,1.06,0,0,0-.9-.271.275.275,0,0,0-.1.061.285.285,0,0,1,.082.072A.255.255,0,0,1,982.754-37.649Z" transform="translate(-978.346 46.899)" fill="#f6ded3"/></g><path d="M993.339-97.037c-.5-2.179-3.521-14.082-3.353-14.418a10.988,10.988,0,0,0,0-2.347c0-.336-1.174-.5-1.174-1.006v-1.844c0-.336-.5-.336-.5-.336v-.838c0-.335-.5-.5-.5-.5s-.335-5.03-.5-6.538a8.149,8.149,0,0,0-.671-2.515l-10.73-2.347c-3.185,3.856-5.7,7.042-5.867,11.736s1.844,17.1,1.844,19.28.5,10.729.5,10.729v5.2c-.838.838-.838.5-.838,1.509s2.682,4.359,2.682,4.359l.168,1.341a6.868,6.868,0,0,0-.5,2.347v1.341s.838.671,4.023.838,2.515-.67,2.347-1.341a6.319,6.319,0,0,1,.671-2.682c.168-.336-.838-1.006-.838-1.006v-4.192s8.215-5.532,8.886-6.538,4.359-4.024,4.862-5.532S993.841-94.857,993.339-97.037Zm-8.216,2.851c-.67.168-5.365,4.694-5.365,4.694v-3.186a11.3,11.3,0,0,0,.336-3.521c-.168-1.676.5-9.892.5-9.892,0,.671,4.527,10.562,4.527,10.562C984.285-94.689,985.794-94.354,985.123-94.186Z" transform="translate(-956.689 165.519)" fill="#12263f"/><path d="M986.458-164.492s0,3.353.671,3.521,2.682,1.006,2.682,1.006l-4.024,1.341-5.029-1.762s1.844-.249,1.844-1.423v-3.856Z" transform="translate(-960.287 177.565)" fill="#ffa08b"/><path d="M987.46-162.913c-.073-.816-.073-1.578-.073-1.578l-3.856-1.173v.412A3.448,3.448,0,0,0,987.46-162.913Z" transform="translate(-961.216 177.565)" fill="#c77968"/><path d="M976.575-52.909c-.72,0-1.241-.895-1.265-.938a.076.076,0,0,1,.028-.1.077.077,0,0,1,.1.029c.006.011.647,1.112,1.415.805.4-.159.472-.271.551-.39a1.077,1.077,0,0,1,.622-.447l.243-.1c.712-.279,1.518-.6,1.389-.983-.065-.194-.213-.273-.439-.391a2.574,2.574,0,0,1-1.061-.932c-.147-.221-.347-.5-.578-.826-.823-1.152-1.949-2.73-1.949-3.408,0-.2-.088-.241-.117-.253-.332-.137-1.268.481-1.933,1.145a.076.076,0,0,1-.108,0,.076.076,0,0,1,0-.108c.56-.56,1.624-1.375,2.1-1.178a.376.376,0,0,1,.211.394c0,.63,1.156,2.249,1.921,3.32.233.326.434.607.582.829a2.406,2.406,0,0,0,1,.882c.231.121.429.225.513.477.174.524-.666.854-1.478,1.173l-.242.1c-.4.159-.473.272-.552.391a1.076,1.076,0,0,1-.621.447A.909.909,0,0,1,976.575-52.909Z" transform="translate(-957.839 142.486)" fill="#a2acc2"/><path d="M976.767-63.477a.077.077,0,0,1-.057-.025.077.077,0,0,1,.006-.108,3.507,3.507,0,0,0,.682-.973A60.785,60.785,0,0,1,981.94-69.3a.077.077,0,0,1,.108,0,.076.076,0,0,1,0,.108,63.742,63.742,0,0,0-4.511,4.674,3.6,3.6,0,0,1-.717,1.018A.074.074,0,0,1,976.767-63.477Z" transform="translate(-958.923 145.27)" fill="#a2acc2"/><path d="M982.105-53.566a.077.077,0,0,1-.058-.027.076.076,0,0,1,.008-.107l2.012-1.731a.077.077,0,0,1,.108.008.077.077,0,0,1-.008.108l-2.012,1.73A.076.076,0,0,1,982.105-53.566Z" transform="translate(-960.712 140.621)" fill="#a2acc2"/><path d="M995.805-73.745a.075.075,0,0,1-.059-.027,25.362,25.362,0,0,0-2.829-2.567.077.077,0,0,1-.013-.107.076.076,0,0,1,.107-.013,25.519,25.519,0,0,1,2.852,2.589.076.076,0,0,1-.01.107A.074.074,0,0,1,995.805-73.745Z" transform="translate(-964.353 147.669)" fill="#a2acc2"/><path d="M997.9-76.9a.078.078,0,0,1-.038-.01,11.884,11.884,0,0,0-5.16-1.331.076.076,0,0,1-.076-.076.076.076,0,0,1,.076-.076,12.052,12.052,0,0,1,5.235,1.352.077.077,0,0,1,.029.1A.077.077,0,0,1,997.9-76.9Z" transform="translate(-964.263 148.313)" fill="#a2acc2"/><path d="M997.73-75.729a.078.078,0,0,1-.066-.037c-.483-.805-3.948-1.967-3.982-1.979a.077.077,0,0,1-.049-.1.077.077,0,0,1,.1-.048c.145.048,3.553,1.192,4.065,2.045a.076.076,0,0,1-.026.1A.077.077,0,0,1,997.73-75.729Z" transform="translate(-964.601 148.144)" fill="#a2acc2"/><path d="M982.106-70.94a.078.078,0,0,1-.037-.009.077.077,0,0,1-.03-.1l1.677-3.018a.076.076,0,0,1,.1-.03.077.077,0,0,1,.03.1l-1.677,3.018A.076.076,0,0,1,982.106-70.94Z" transform="translate(-960.713 146.876)" fill="#a2acc2"/><path d="M973.28-80.45l-.018,0a.077.077,0,0,1-.056-.092c.011-.049,1.177-4.882,1.508-6.869a.076.076,0,0,1,.087-.062.077.077,0,0,1,.063.088c-.332,1.992-1.5,6.831-1.51,6.879A.077.077,0,0,1,973.28-80.45Z" transform="translate(-957.754 151.356)" fill="#a2acc2"/><path d="M978.92-47.473a3.616,3.616,0,0,1-2.164-1.045.076.076,0,0,1,0-.108.076.076,0,0,1,.108,0,3.3,3.3,0,0,0,2.282.985A7.357,7.357,0,0,0,981.4-48.7c.654-.4.885-.532.992-.425a.076.076,0,0,1,0,.108.078.078,0,0,1-.1.009h0a4.025,4.025,0,0,0-.815.439,7.453,7.453,0,0,1-2.315,1.083A1.836,1.836,0,0,1,978.92-47.473Zm3.369-1.548Z" transform="translate(-958.938 138.514)" fill="#a2acc2"/><path d="M984.452-98.36h-.006a.077.077,0,0,1-.07-.082c.194-2.589.446-6.521.35-6.821a14.164,14.164,0,0,0-3.151-1.484.076.076,0,0,1-.045-.1.076.076,0,0,1,.1-.046,13.573,13.573,0,0,1,3.214,1.527,60.14,60.14,0,0,1-.313,6.933A.077.077,0,0,1,984.452-98.36Z" transform="translate(-960.544 157.865)" fill="#a2acc2"/><path d="M986.134-111.7h-.009a.076.076,0,0,1-.067-.084c.012-.105,1.179-10.473,1.346-13.951a.076.076,0,0,1,.079-.072.075.075,0,0,1,.072.08c-.166,3.483-1.334,13.856-1.346,13.96A.077.077,0,0,1,986.134-111.7Z" transform="translate(-962.063 164.205)" fill="#a2acc2"/><path d="M986.445-113.481a.079.079,0,0,1-.047-.016.077.077,0,0,1-.013-.107l.79-1.008,1-10.875a.077.077,0,0,1,.082-.069.077.077,0,0,1,.069.083l-1.006,10.9a.073.073,0,0,1-.016.04l-.8,1.025A.075.075,0,0,1,986.445-113.481Z" transform="translate(-962.167 164.121)" fill="#a2acc2"/><path d="M991.185-110.028a.075.075,0,0,1-.06-.029.076.076,0,0,1,.013-.107c1.5-1.163,3.673-2.506,3.695-2.52a.077.077,0,0,1,.105.025.076.076,0,0,1-.025.1c-.021.014-2.193,1.353-3.681,2.51A.078.078,0,0,1,991.185-110.028Z" transform="translate(-963.756 159.81)" fill="#a2acc2"/><path d="M994.211-108.513a.073.073,0,0,1-.046-.015.075.075,0,0,1-.015-.106,18.279,18.279,0,0,1,2.193-2.026.077.077,0,0,1,.108.012.077.077,0,0,1-.012.107,18.583,18.583,0,0,0-2.167,2A.075.075,0,0,1,994.211-108.513Z" transform="translate(-964.77 159.133)" fill="#a2acc2"/><path d="M987.15-105.232a.077.077,0,0,1-.07-.046.077.077,0,0,1,.04-.1c.012,0,1.183-.508,2.175-1a.077.077,0,0,1,.1.034.076.076,0,0,1-.034.1c-1,.5-2.172,1-2.183,1.008A.084.084,0,0,1,987.15-105.232Z" transform="translate(-962.403 157.696)" fill="#a2acc2"/><path d="M991.941-120.039a.087.087,0,0,1-.029-.005.077.077,0,0,1-.043-.1,37.6,37.6,0,0,0,.5-5.34.076.076,0,0,1,.065-.072.077.077,0,0,1,.083.049,26.5,26.5,0,0,1,1.01,5.391.076.076,0,0,1-.076.076.076.076,0,0,1-.076-.076,29.177,29.177,0,0,0-.871-4.947,30.566,30.566,0,0,1-.491,4.976A.076.076,0,0,1,991.941-120.039Z" transform="translate(-964.01 164.121)" fill="#a2acc2"/><path d="M978.993-121.47a.074.074,0,0,1-.027,0,.076.076,0,0,1-.045-.1c.015-.043,1.534-4.221,2.1-5.469a26.947,26.947,0,0,0-3.135,4.513.076.076,0,0,1-.1.049.076.076,0,0,1-.048-.1,23.2,23.2,0,0,1,3.4-4.747.089.089,0,0,1,.088.035c.036.047.025.112-.047.267-.552,1.183-2.1,5.458-2.121,5.5A.076.076,0,0,1,978.993-121.47Z" transform="translate(-959.276 164.713)" fill="#a2acc2"/><path d="M993.353-86.677a.079.079,0,0,1-.034-.008c-1.679-.84-6.051-8.91-6.236-9.253a.076.076,0,0,1,.031-.1.077.077,0,0,1,.1.031c.045.084,4.534,8.37,6.171,9.189a.077.077,0,0,1,.034.1A.077.077,0,0,1,993.353-86.677Z" transform="translate(-962.403 154.23)" fill="#a2acc2"/><path d="M972.949-138.735s5.7,3.856,10.9,2.682l1.677-1.174a40.31,40.31,0,0,1,0-4.527c.167-.67,1.509-4.862,1.509-4.862a14.706,14.706,0,0,0-.336-2.85l2.012-.5s-.168-5.2-1.007-6.036-5.2-1.844-5.2-1.844-3.018,2.18-7.712,0c0,0-3.94.587-4.443,1.258a40.975,40.975,0,0,0-2.515,5.868c-.5,1.509-.838,1.509-1.508,3.521a21.216,21.216,0,0,1-2.18,5.365c-1.173,1.844-1.508.838-1.508,2.515a20,20,0,0,1-1.174,4.862s2.682.838,3.353,2.012c0,0,2.347-1.174,2.85-2.515a6.311,6.311,0,0,0,.336-2.682,2.86,2.86,0,0,0,1.006-1.844c0-1.006,3.018-6.874,3.018-6.874a19.881,19.881,0,0,1,.838,3.856c0,1.173-.671,2.514-.5,3.018A1.511,1.511,0,0,0,972.949-138.735Z" transform="translate(-953.819 174.945)" fill="#f1f1f1"/><path d="M986.157-151.407a4.8,4.8,0,0,0-4.266-2.6,4.8,4.8,0,0,0-4.5,3.115,4.8,4.8,0,0,0-4.495-3.115,4.841,4.841,0,0,0-.719.054c-.644,1.409-1.467,3.481-1.813,4.519-.46,1.382-.78,1.5-1.346,3.053a4.792,4.792,0,0,0,3.878,1.973,4.8,4.8,0,0,0,1.431-.219c.142-.281.228-.449.228-.449s.039.125.1.332a4.815,4.815,0,0,0,2.735-2.78,4.8,4.8,0,0,0,4.5,3.115,4.8,4.8,0,0,0,4.266-2.6,4.807,4.807,0,0,0,3.157,2.47l.251-.787a14.706,14.706,0,0,0-.336-2.85l2.012-.5a27.9,27.9,0,0,0-.649-5.323c-.056,0-.112,0-.169,0A4.8,4.8,0,0,0,986.157-151.407Z" transform="translate(-956.353 173.658)" fill="#7d6eb2"/><path d="M988.882-134.977a.039.039,0,0,1-.026-.01.038.038,0,0,1,0-.054c1.384-1.467,2.726-3.008,3.988-4.578a.038.038,0,0,1,.054-.006.038.038,0,0,1,.006.053c-1.264,1.573-2.607,3.115-3.992,4.583A.039.039,0,0,1,988.882-134.977Z" transform="translate(-962.997 168.839)" fill="#282233"/><path d="M988.3-139.572a.038.038,0,0,1-.029-.013.038.038,0,0,1,0-.054,13.881,13.881,0,0,0,3.972-4.59.038.038,0,0,1,.05-.02.038.038,0,0,1,.019.051,13.927,13.927,0,0,1-3.991,4.618A.038.038,0,0,1,988.3-139.572Z" transform="translate(-962.801 170.388)" fill="#282233"/><path d="M997.183-133.946a.039.039,0,0,1-.033-.019.039.039,0,0,1,.014-.053,2.148,2.148,0,0,0,.377-.288,32.98,32.98,0,0,0-.179-4.329.036.036,0,0,1,0-.015c.014-.042,1.343-4.2,1.508-4.86a14.937,14.937,0,0,0-.249-3.138l-.359-2.113a.037.037,0,0,1,.031-.044.037.037,0,0,1,.044.031l.36,2.113a14.567,14.567,0,0,1,.248,3.169c-.163.651-1.445,4.661-1.507,4.857a30.44,30.44,0,0,1,.156,4.382,2.244,2.244,0,0,1-.392.3A.039.039,0,0,1,997.183-133.946Z" transform="translate(-965.779 171.913)" fill="#282233"/><path d="M971.167-132.935h-.007a.038.038,0,0,1-.031-.044,53.756,53.756,0,0,0,.723-10.614.038.038,0,0,1,.037-.039.037.037,0,0,1,.039.037,53.856,53.856,0,0,1-.724,10.63A.038.038,0,0,1,971.167-132.935Z" transform="translate(-957.059 170.18)" fill="#282233"/><path d="M969.457-127.462a.5.5,0,0,1-.232-.055,1.192,1.192,0,0,1-.451-.525,29.673,29.673,0,0,1-1.859-4.035.038.038,0,0,1,.023-.049.038.038,0,0,1,.049.023,29.662,29.662,0,0,0,1.854,4.024,1.134,1.134,0,0,0,.419.494.447.447,0,0,0,.358.016.271.271,0,0,0,.163-.163.039.039,0,0,1,.049-.025.039.039,0,0,1,.024.049.348.348,0,0,1-.207.209A.506.506,0,0,1,969.457-127.462Z" transform="translate(-955.646 166.323)" fill="#282233"/><path d="M977.072-141.429a.037.037,0,0,1-.036-.025c-.244-.7-.475-1.4-.687-2.109a.038.038,0,0,1,.026-.047.037.037,0,0,1,.047.025c.211.7.441,1.411.685,2.105a.038.038,0,0,1-.023.049Z" transform="translate(-958.808 170.173)" fill="#282233"/><path d="M1002.292-132.156a.038.038,0,0,1-.017,0c-.024-.012-2.368-1.2-3.036-2.87a.038.038,0,0,1,.021-.05.038.038,0,0,1,.049.021c.658,1.644,2.976,2.819,3,2.83a.038.038,0,0,1,.017.051A.038.038,0,0,1,1002.292-132.156Z" transform="translate(-966.48 167.314)" fill="#282233"/><path d="M1003.129-129.048a.036.036,0,0,1-.017,0c-.028-.013-2.859-1.332-4.339-1.17a.037.037,0,0,1-.042-.034.038.038,0,0,1,.034-.042c1.5-.17,4.35,1.163,4.379,1.177a.039.039,0,0,1,.019.051A.039.039,0,0,1,1003.129-129.048Z" transform="translate(-966.311 165.715)" fill="#282233"/><g transform="translate(27.443 24.464)"><path d="M.492,0h18.9a.492.492,0,0,1,.492.492V14.409a0,0,0,0,1,0,0H0a0,0,0,0,1,0,0V.492A.492.492,0,0,1,.492,0Z" transform="translate(6.628)" fill="#8c8888"/><path d="M.126,0h26.26a.127.127,0,0,1,.127.127V.882a.127.127,0,0,1-.127.127H.464A.464.464,0,0,1,0,.545V.126A.126.126,0,0,1,.126,0Z" transform="translate(0 13.833)" fill="#8c8888"/><path d="M1015.875-136.612a.559.559,0,0,1-.223-.509,1.654,1.654,0,0,1,.168-.554l.456-1.043c.155-.354.362-.752.741-.831a1.127,1.127,0,0,1,.769.207,1.978,1.978,0,0,1,.793.728.851.851,0,0,1-.109,1.007,1.471,1.471,0,0,1-.514.251C1017.444-137.172,1016.436-136.257,1015.875-136.612Z" transform="translate(-999.425 144.352)" fill="#e5dbce"/></g><path d="M1020.582-126.21s.841-2.286,1.177-2.133,0,1.067,0,1.067a10.916,10.916,0,0,0,.8-1.371c0-.152.373-1.219.541-1.219s.336.153.336.61c0,0,.168-.914.5-.914s.336.762.336.762v1.676c0,.305.5-1.371.5-1.371s.168-.914.336-.914.336.457.336,1.371a11.581,11.581,0,0,1-.168,1.828l-.5,1.219Z" transform="translate(-973.635 165.668)" fill="#ffa08b"/><g transform="translate(19.403 0.379)"><path d="M990.362-177.726a8.787,8.787,0,0,1-.123,1.34q-.276,1.908-.61,3.807a5.269,5.269,0,0,1-1.133,1.956,6.172,6.172,0,0,1-1.064.931,3.868,3.868,0,0,1-.745.6,1.667,1.667,0,0,1-1.4-.092c-.44-.205-.825-.511-1.254-.735-.316-.166-.655-.287-.967-.462a3.225,3.225,0,0,1-1.322-1.412,6.337,6.337,0,0,1-.3-.8,15.739,15.739,0,0,1-1.112-5.55c.143-2.491,2.214-3.914,4.558-4.049a6.368,6.368,0,0,1,3.4.7A4.408,4.408,0,0,1,990.362-177.726Z" transform="translate(-979.541 182.732)" fill="#ffa08b"/><path d="M990.023-169.39a.076.076,0,0,1-.07-.058.074.074,0,0,1,.057-.088c.231-.052.466-.221.445-.432a.609.609,0,0,0-.061-.184l-.009-.021a3.274,3.274,0,0,1-.129-2.252.075.075,0,0,1,.093-.049.075.075,0,0,1,.049.093,3.123,3.123,0,0,0,.123,2.149l.009.02a.732.732,0,0,1,.073.23c.03.3-.259.524-.56.59Z" transform="translate(-982.771 179.469)" fill="#c77968"/><path d="M988.8-168.093h0a.283.283,0,0,1-.2-.1.287.287,0,0,1-.069-.214.287.287,0,0,1,.115-.193.285.285,0,0,1,.218-.055.074.074,0,0,1,.06.086.075.075,0,0,1-.086.06.138.138,0,0,0-.1.028.137.137,0,0,0-.057.092.135.135,0,0,0,.034.1.14.14,0,0,0,.1.051.367.367,0,0,0,.1-.017l.307-.078a.074.074,0,0,1,.09.053.073.073,0,0,1-.053.09l-.307.078A.516.516,0,0,1,988.8-168.093Z" transform="translate(-982.293 178.191)" fill="#c77968"/><path d="M986.554-171.546a.518.518,0,0,0-.5-.535.518.518,0,0,0-.535.5.517.517,0,0,0,.5.535A.518.518,0,0,0,986.554-171.546Z" transform="translate(-981.284 179.337)" fill="#333"/><path d="M993.122-171.331a.518.518,0,0,0-.5-.535.518.518,0,0,0-.535.5.518.518,0,0,0,.5.535A.518.518,0,0,0,993.122-171.331Z" transform="translate(-983.486 179.265)" fill="#333"/><path d="M986.491-173.083a.11.11,0,0,1-.058-.019,1.835,1.835,0,0,0-1.808-.059.111.111,0,0,1-.152-.041.112.112,0,0,1,.042-.152,2.032,2.032,0,0,1,2.041.067.111.111,0,0,1,.032.154A.11.11,0,0,1,986.491-173.083Z" transform="translate(-980.929 179.847)" fill="#4e3933"/><path d="M993.388-172.635a.106.106,0,0,1-.057-.019,1.835,1.835,0,0,0-1.809-.059.111.111,0,0,1-.152-.041.111.111,0,0,1,.041-.152,2.032,2.032,0,0,1,2.042.067.11.11,0,0,1,.031.154A.111.111,0,0,1,993.388-172.635Z" transform="translate(-983.241 179.696)" fill="#4e3933"/><path d="M986.418-166.413a.035.035,0,0,1-.033-.024.218.218,0,0,1,.092-.257.037.037,0,0,1,.05.013.037.037,0,0,1-.013.051.143.143,0,0,0-.06.168.038.038,0,0,1-.023.048A.033.033,0,0,1,986.418-166.413Z" transform="translate(-981.571 177.533)" fill="#c77968"/><path d="M986.436-171.551a1.788,1.788,0,0,0-.455-.324,1.581,1.581,0,0,0-.248-.094,1.42,1.42,0,0,0-.257-.041,1.318,1.318,0,0,0-.517.092c-.045.015-.092.032-.146.044a.32.32,0,0,1-.094.008.21.21,0,0,1-.09-.031.48.48,0,0,1-.189-.242.614.614,0,0,0,.233.142.111.111,0,0,0,.1-.015l.12-.066a1.3,1.3,0,0,1,.283-.118,1.024,1.024,0,0,1,.316-.036,1.184,1.184,0,0,1,.309.063,1.148,1.148,0,0,1,.275.146A1,1,0,0,1,986.436-171.551Z" transform="translate(-980.924 179.388)" fill="#333"/><path d="M991.606-171.378a1.012,1.012,0,0,1,.393-.45,1.137,1.137,0,0,1,.283-.128,1.2,1.2,0,0,1,.313-.044,1.021,1.021,0,0,1,.313.055,1.283,1.283,0,0,1,.274.135c.041.026.081.052.116.073s.049.029.094.021a.594.594,0,0,0,.241-.128.475.475,0,0,1-.2.23.208.208,0,0,1-.092.026.3.3,0,0,1-.093-.013c-.053-.016-.1-.035-.142-.053a1.327,1.327,0,0,0-.511-.124,1.37,1.37,0,0,0-.259.026,1.462,1.462,0,0,0-.253.078A1.8,1.8,0,0,0,991.606-171.378Z" transform="translate(-983.325 179.309)" fill="#333"/><path d="M987.828-165.615a1.718,1.718,0,0,0,.829.251,1.5,1.5,0,0,0,.9-.259,1.786,1.786,0,0,0,.461-.807.288.288,0,0,0,.031-.138.242.242,0,0,0-.059-.118.847.847,0,0,0-.808-.293,1.044,1.044,0,0,1-.3.049,1.158,1.158,0,0,1-.236-.07,1.146,1.146,0,0,0-.7.058,4.165,4.165,0,0,1-.681.22c-.39.064-.193.38-.035.58A2.217,2.217,0,0,0,987.828-165.615Z" transform="translate(-981.793 177.645)" fill="#ef7575"/><path d="M989.985-166.194a1.944,1.944,0,0,1-1.372.57,3.019,3.019,0,0,1-1.313-.607c-.1-.074-.135-.218.02-.226C987.454-166.464,990.407-166.579,989.985-166.194Z" transform="translate(-981.853 177.459)" fill="#fff"/><path d="M986.884-179.979a17.079,17.079,0,0,1,3.428,3.829,5.806,5.806,0,0,0-.192-3.734,3.667,3.667,0,0,0-.407-.967,3.207,3.207,0,0,0-.7-.723,5.639,5.639,0,0,0-4.951-1.251,7.319,7.319,0,0,0-2.024,1.059,6.384,6.384,0,0,0-1.343,1.137,4.219,4.219,0,0,0-.911,2.769,6.259,6.259,0,0,0,.806,2.837c.064.118.17.254.3.221.029-.007.406-.772.478-.862.151-.189.316-.365.485-.539a10.07,10.07,0,0,1,1.61-1.325A20.8,20.8,0,0,0,986.884-179.979Z" transform="translate(-979.361 182.995)" fill="#12263f"/><g transform="translate(0 7.567)"><path d="M980.067-171.606a.832.832,0,0,0-.852.422.847.847,0,0,0,.043.734,1.688,1.688,0,0,0,.51.556.968.968,0,0,0,.847.239.754.754,0,0,0,.454-.7A1.136,1.136,0,0,0,980.067-171.606Z" transform="translate(-979.15 171.613)" fill="#ffa08b"/><path d="M980.659-169.9a.037.037,0,0,1-.023-.009.312.312,0,0,1-.1-.3.311.311,0,0,1,.223-.227.09.09,0,0,0,.027-.009s0,0,0-.017a.462.462,0,0,0-.106-.239,1.031,1.031,0,0,0-.385-.351.5.5,0,0,0-.484.016.2.2,0,0,0-.1.161.038.038,0,0,1-.034.04.038.038,0,0,1-.04-.035.263.263,0,0,1,.128-.227.572.572,0,0,1,.558-.023,1.1,1.1,0,0,1,.414.375.528.528,0,0,1,.12.279.1.1,0,0,1-.017.066.109.109,0,0,1-.063.034.236.236,0,0,0-.174.174.233.233,0,0,0,.077.228.038.038,0,0,1,0,.053A.038.038,0,0,1,980.659-169.9Z" transform="translate(-979.314 171.468)" fill="#c77968"/></g></g></g></g></g></svg>