<svg xmlns="http://www.w3.org/2000/svg" width="236.848" height="516.398" viewBox="0 0 236.848 516.398"><g transform="translate(-510 -1128.515)"><g transform="translate(510 1128.515)"><g transform="translate(0 0)"><path d="M212.813,267.313l1.625,19.5L205.5,373.752l15.438,77.189S205.5,468,208.75,472.065s21.938-19.5,21.938-19.5l-2.438-76.376,26-71.5L290,374.564l34.125,75.563S329,467.19,337.127,468s-6.5-21.125-6.5-21.125l-19.5-79.626L279.438,253.5S238.813,270.563,212.813,267.313Z" transform="translate(-160.717 43.862)" fill="#12263f"/><path d="M276.626,253.5S236,270.563,210,267.313l.383,4.6c6.7,3.05,23.976,9.989,36.18,6.778,11.312-2.977,25.232-13.363,31.868-18.706Z" transform="translate(-157.904 43.862)" fill="#1d1d1d"/><path d="M226.938,266.846l1.8,5.9,10.52-1.8-1.283-5.645Z" transform="translate(-147.318 51.241)" fill="#bfbfc0"/><path d="M244.938,268.583l-2.053-8.467,1.8-1.283,3.336,8.98" transform="translate(-137.35 47.195)" fill="#393762"/><path d="M214.859,270.063l-1.026-7.441,2.822.513,1.026,8.211" transform="translate(-155.509 49.564)" fill="#393762"/><path d="M241.5,198.563l41.019,20.87a5.471,5.471,0,0,0,7.543-2.8L309.751,168.5l11.375,3.25-18.688,65a11.139,11.139,0,0,1-14.328,8.071l-41.735-9.7Z" transform="translate(-138.216 -9.265)" fill="#f6ba99"/><path d="M283.6,208.283a5.4,5.4,0,0,1-1.085-.414L241.5,187l4.875,36.563,32.864,7.636Z" transform="translate(-138.216 2.298)" fill="#7d6eb2"/><path d="M223.875,191.063,193,208.938l27.625,99.939s19.5,9.75,35.75,6.5,30.875-20.313,30.875-20.313L271.814,187l-38.188,1.625Z" transform="translate(-168.53 2.298)" fill="#7d6eb2"/><path d="M207.029,174.985s-7.07-7.615-8.158-2.176,6.526,9.789,9.245,10.333S207.029,174.985,207.029,174.985Z" transform="translate(-164.926 -7.795)" fill="#f6ba99"/><path d="M223.765,174.843s1.445-10.29,5.447-6.451.247,11.764-1.674,13.766S223.765,174.843,223.765,174.843Z" transform="translate(-149.301 -9.868)" fill="#f6ba99"/><path d="M208.466,184.5l3.378,18.632,5.525,4.193A11.418,11.418,0,0,0,234.12,204l2.741-4.677-4.425-18.691Z" transform="translate(-158.863 -1.68)" fill="#f2957e"/><path d="M218.011,153.687s-7.776-1.62-13.987,8.141c-4.974,7.816.865,30.432,3.388,39.129a8.009,8.009,0,0,0,4.245,4.992l10.709,5.122a8.037,8.037,0,0,0,10.3-3.019l6.094-9.844a8.031,8.031,0,0,0,1.061-5.733l-5.067-26.6a15,15,0,0,0-12.9-12.158A17.078,17.078,0,0,0,218.011,153.687Z" transform="translate(-162.855 -18.586)" fill="#f6ba99"/><path d="M217.444,180.976c.32,1.321-.011,2.533-.738,2.709s-1.575-.752-1.893-2.074.011-2.535.738-2.711S217.125,179.655,217.444,180.976Z" transform="translate(-154.972 -2.777)" fill="#393762"/><path d="M207.835,188.247a2.717,2.717,0,0,0,2.176-3.263c-.544-2.72-2.72-7.07-1.632-12.509s7.613-8.7,7.613-8.7,1.087,2.176,8.158,4.895,11.422,2.72,11.422,2.72,0,7.069,1.632,9.245,4.35,5.983,4.895,2.176-2.176-15.772-2.176-15.772,3.807,0,1.632-7.07-15.772-10.333-25.562-10.333-21.211,15.228-17.947,21.211a48.677,48.677,0,0,1,4.35,10.334S206.2,189.335,207.835,188.247Z" transform="translate(-165.731 -21.058)" fill="#00223d"/><g transform="translate(62.846)"><path d="M245.724,237.806l2.529-9.862c13.016-50.772,77.866-36.483,87.135-72.643,4.027-15.707-6.138-29.211-25.129-34.08-20.821-5.338-36.872,2.615-40.993,18.686l-1.029,4.017c-1.03,4.019-3.692,5.283-7.709,4.253L221.818,136.7c-3.651-.936-5.74-3.417-5.083-5.974l1.03-4.019c11.33-44.2,54.164-65.524,105.665-52.321,50.408,12.922,75.612,49.747,64.658,92.48C372.545,227.5,307.07,211.1,298.55,244.34l-1.687,6.575c-1.03,4.019-3.785,5.645-7.8,4.615l-38.718-9.924C246.327,244.576,244.694,241.823,245.724,237.806Zm-18.361,57.963c4.119-16.07,21.736-25.57,38.9-21.169,16.439,4.214,27.677,21.111,23.558,37.18s-22.1,25.477-38.9,21.169C233.752,328.549,223.243,311.842,227.363,295.769Z" transform="translate(-216.615 -70.51)" fill="#f5ca56"/></g><g transform="translate(62.846 4.956)"><path d="M245.724,240.856l2.529-9.862c13.016-50.772,77.866-36.483,87.135-72.643,4.027-15.707-6.138-29.211-25.129-34.08-20.821-5.338-36.872,2.615-40.993,18.686l-1.029,4.017c-1.03,4.019-3.692,5.283-7.709,4.253l-38.71-11.481c-3.651-.936-5.74-3.417-5.083-5.974l1.03-4.019c11.33-44.2,54.164-65.524,105.665-52.321,50.408,12.922,75.612,49.747,64.658,92.48-15.543,60.634-81.019,44.238-89.539,77.478l-1.687,6.575c-1.03,4.019-3.785,5.645-7.8,4.615l-38.718-9.926C246.327,247.626,244.694,244.873,245.724,240.856Zm-18.361,57.963c4.119-16.07,21.736-25.57,38.9-21.169,16.439,4.214,27.677,21.111,23.558,37.18s-22.1,25.477-38.9,21.169C233.752,331.6,223.243,314.892,227.363,298.819Z" transform="translate(-216.615 -73.56)" fill="#f5ca56"/></g><path d="M294.875,184.875l13.813-13.813,3.25-23.563s-1.625,0-6.5,3.25-9.75,15.438-9.75,15.438-7.313,6.5-9.75,8.938-2.438,6.5-2.438,6.5Z" transform="translate(-111.965 -22.39)" fill="#f6ba99"/><path d="M222,229.188l22.75-5.688,13.813,2.438L256.938,230H245.563l10.563,7.313,12.188,3.25-4.063,4.063-20.313,1.625-17.875-8.938Z" transform="translate(-150.404 25.112)" fill="#f6ba99"/><path d="M202.412,200.5l-24.011,59a6.068,6.068,0,0,0,7.007,8.2l68.972-15.8-4.843-8.327-40.626.813,3.25-9.75Z" transform="translate(-177.941 10.736)" fill="#f6ba99"/><path d="M205.433,244.376l3.25-9.75-9.75-34.125-15.425,37.9C197.735,236.717,205.433,244.376,205.433,244.376Z" transform="translate(-174.462 10.736)" fill="#7d6eb2"/><ellipse cx="1.181" cy="2.148" rx="1.181" ry="2.148" transform="translate(50.105 163.835) rotate(-9.785)" fill="#393762"/><path d="M218.883,171.8c.2,1.168-.156,2.207-.8,2.317s-1.328-.748-1.529-1.916.156-2.207.8-2.317S218.682,170.636,218.883,171.8Z" transform="translate(-153.843 -8.403)" fill="#393762"/><path d="M207.4,169.109s.643-2.363,4.509-2.363" transform="translate(-159.527 -10.361)" fill="none" stroke="#393762" stroke-linecap="round" stroke-miterlimit="10" stroke-width="1"/><path d="M215.259,169.4s1.76-3.65,4.769-2.5" transform="translate(-154.617 -10.407)" fill="none" stroke="#393762" stroke-linecap="round" stroke-miterlimit="10" stroke-width="1"/><path d="M214.309,169.337l2.363,10.524-2.792.644" transform="translate(-155.48 -8.741)" fill="none" stroke="#393762" stroke-linecap="round" stroke-miterlimit="10" stroke-width="0.5"/><path d="M229.611,376.625c-8.125,1.625-9.75-1.625-9.75-1.625s-15.438,17.063-12.188,21.125S229.611,376.625,229.611,376.625Z" transform="translate(-159.64 119.802)" fill="#7d6eb2"/><path d="M278.684,376.712c1.168,3.6,5.741,16.218,12.7,16.913,8.125.813-6.5-21.125-6.5-21.125S283.426,375.383,278.684,376.712Z" transform="translate(-114.975 118.24)" fill="#7d6eb2"/></g></g></g></svg>