<svg xmlns="http://www.w3.org/2000/svg" xmlns:xlink="http://www.w3.org/1999/xlink" width="323.508" height="180.541" viewBox="0 0 323.508 180.541"><defs><linearGradient id="a" x1="0.5" x2="0.5" y2="1" gradientUnits="objectBoundingBox"><stop offset="0" stop-color="#fff"/><stop offset="1" stop-color="#f1f1f1"/></linearGradient></defs><g transform="translate(-59.284 -88.365)"><g transform="translate(59.784 185.15)"><rect width="47.74" height="7.246" fill="none" stroke="#00223d" stroke-miterlimit="10" stroke-width="1"/><rect width="47.74" height="7.246" transform="translate(0 10.748)" fill="none" stroke="#00223d" stroke-miterlimit="10" stroke-width="1"/><rect width="47.74" height="7.246" transform="translate(0 21.495)" fill="none" stroke="#00223d" stroke-miterlimit="10" stroke-width="1"/><rect width="47.74" height="7.246" transform="translate(0 32.243)" fill="none" stroke="#00223d" stroke-miterlimit="10" stroke-width="1"/></g><circle cx="24.657" cy="24.657" r="24.657" transform="translate(86.382 150.448) rotate(-80.44)" fill="none" stroke="#00223d" stroke-miterlimit="10" stroke-width="1"/><circle cx="24.657" cy="24.657" r="24.657" transform="translate(288.48 123.944) rotate(-45)" fill="none" stroke="#00223d" stroke-miterlimit="10" stroke-width="1"/><g transform="translate(283.13 115.304)"><g transform="translate(0 33.743)"><g transform="translate(53.048)"><path d="M583.684,203.891l5.549,14.64,13.442,17.819-1.875,5.08L583.461,227.4a21.567,21.567,0,0,1-5.607-6.89l-5.893-11.439Z" transform="translate(-571.961 -203.891)" fill="#f57373"/><path d="M579.5,215.676l5.79-7.559-1.6-4.226-11.723,5.184,3.2,6.214A2.574,2.574,0,0,0,579.5,215.676Z" transform="translate(-571.961 -203.891)" fill="#e04444"/></g><path d="M495.5,203.891l-5.549,14.64L476.508,236.35l1.876,5.08L495.721,227.4a21.552,21.552,0,0,0,5.608-6.89l5.893-11.439Z" transform="translate(-476.508 -203.891)" fill="#f57373"/><path d="M513.588,215.676l-5.79-7.559,1.6-4.226,11.723,5.184-3.2,6.214A2.575,2.575,0,0,1,513.588,215.676Z" transform="translate(-490.409 -203.891)" fill="#e04444"/></g><path d="M621.463,266.835v-84.63a11.188,11.188,0,0,1,3.632-8.368,15.875,15.875,0,0,0-.229-23.916l-5.071,5.9a8.119,8.119,0,1,1-10.56,0l-5.07-5.9a15.875,15.875,0,0,0-.23,23.916,11.188,11.188,0,0,1,3.633,8.368v84.63a11.189,11.189,0,0,1-3.632,8.368,15.875,15.875,0,0,0,.229,23.916l5.071-5.9a8.119,8.119,0,1,1,10.56,0l5.071,5.9A15.875,15.875,0,0,0,625.1,275.2,11.189,11.189,0,0,1,621.463,266.835Z" transform="translate(-530.755 -146.172)" fill="#091c38"/><path d="M506.822,400l-.677,10.872H484.887s.729-3.7,3.96-4.846,8.545-2.657,8.545-2.657L498.85,400Z" transform="translate(-480.23 -257.27)" fill="#fff"/><line x2="19.173" transform="translate(5.959 151.622)" fill="none" stroke="#16478c" stroke-miterlimit="10" stroke-width="0.75"/><path d="M519.6,408.5s-4.551-.106-5.281,4.167" transform="translate(-493.308 -261.046)" fill="none" stroke="#16478c" stroke-miterlimit="10" stroke-width="0.75"/><path d="M579.559,400l.677,10.872h21.257s-.729-3.7-3.96-4.846-8.545-2.657-8.545-2.657L587.53,400Z" transform="translate(-522.288 -257.27)" fill="#fff"/><line x1="19.173" transform="translate(58.729 151.622)" fill="none" stroke="#16478c" stroke-miterlimit="10" stroke-width="0.75"/><path d="M580.088,408.5s4.551-.106,5.281,4.167" transform="translate(-522.523 -261.046)" fill="none" stroke="#16478c" stroke-miterlimit="10" stroke-width="0.75"/><path d="M555.116,151.559v2.828a4.709,4.709,0,0,1-.794,2.617l-.825,1.234-2.6-6.68Z" transform="translate(-509.555 -146.9)" fill="#091c38"/><path d="M550.659,160.615l2.475,9.592h-7.945l.287-7.477Z" transform="translate(-507.019 -150.923)" fill="#f57373"/><path d="M548.538,165.2a3.728,3.728,0,0,0,1.991-3.035l-1.546-.231-3.391,1.384-.139,3.635a2.618,2.618,0,0,0,1.992-.938A2.887,2.887,0,0,1,548.538,165.2Z" transform="translate(-507.137 -151.508)" fill="#e04444"/><g transform="translate(15.524 17.382)"><path d="M557.155,191.62l-5.792-8.737a16.519,16.519,0,0,0-9.419-6.809l-5.728-1.564a1.668,1.668,0,0,0-1.447.28,7.173,7.173,0,0,1-7.943,0,1.669,1.669,0,0,0-1.447-.28l-5.728,1.564a16.519,16.519,0,0,0-9.419,6.809l-5.792,8.737L515.36,196l.545,6.8c-1.433,1.641.417,4.689.417,4.689a3,3,0,0,0,0,3.048h28.955a3,3,0,0,0,0-3.048s1.849-3.048.417-4.689l.544-6.8Z" transform="translate(-504.442 -174.451)" fill="#69746b"/><path d="M579.647,206.66l.391-7.069a1.2,1.2,0,0,1,2.169-.643l3.784,5.169Z" transform="translate(-537.852 -185.115)" fill="#525d54"/><path d="M519.017,206.66l-.391-7.069a1.2,1.2,0,0,0-2.168-.643l-3.784,5.169Z" transform="translate(-508.099 -185.115)" fill="#525d54"/></g><path d="M546.783,177.552c2.842,0,5.282-1.145,6.361-2.785l-.943-.257a1.668,1.668,0,0,0-1.447.28,7.173,7.173,0,0,1-7.943,0,1.669,1.669,0,0,0-1.447-.28l-.942.257C541.5,176.407,543.941,177.552,546.783,177.552Z" transform="translate(-504.902 -157.069)" fill="#525d54"/><line x1="14.641" y2="10.264" transform="translate(33.365 40.75)" fill="none" stroke="#525d54" stroke-miterlimit="10" stroke-width="0.75"/><path d="M561.854,198.031h6.357s.156,6.513-3.178,6.513S561.854,198.031,561.854,198.031Z" transform="translate(-514.422 -167.545)" fill="none" stroke="#525d54" stroke-miterlimit="10" stroke-width="0.75"/><path d="M544.442,239.907l1.128-3.2H512.438l1.127,3.2L500.4,329.47c5.627,1.719,12.5-.7,16.569,0l10.837-75.182H530.2l10.837,75.182c4.064-.7,10.941,1.719,16.568,0Z" transform="translate(-487.123 -184.725)" fill="#0e2d59"/><path d="M501.069,395.363h0L500.4,399.9c5.627,1.719,12.5-.7,16.569,0l.654-4.538C513.121,394.732,506.342,396.853,501.069,395.363Z" transform="translate(-487.123 -255.156)" fill="#16478c"/><path d="M555.335,248.557l-1.271-8.65,1.128-3.2H522.059l1.127,3.2-.2,1.333Z" transform="translate(-496.744 -184.725)" fill="#091c38"/><path d="M588.9,395.363h0l.667,4.538c-5.627,1.719-12.5-.7-16.568,0l-.654-4.538C576.847,394.732,583.626,396.853,588.9,395.363Z" transform="translate(-519.083 -255.156)" fill="#16478c"/><g transform="translate(15.524 55.182)"><line x2="30.877" transform="translate(10.918)" fill="none" stroke="#16478c" stroke-miterlimit="10" stroke-width="0.75"/><line y2="14.38" transform="translate(27.492)" fill="none" stroke="#16478c" stroke-miterlimit="10" stroke-width="0.75"/><path d="M549.715,242.469v7.092a3.471,3.471,0,0,0,2.331,3.279h0" transform="translate(-524.554 -242.469)" fill="none" stroke="#16478c" stroke-miterlimit="10" stroke-width="0.75"/><line x2="12.522" y2="85.362" transform="translate(40.192)" fill="none" stroke="#16478c" stroke-miterlimit="10" stroke-width="0.75"/><line x1="12.522" y2="85.362" fill="none" stroke="#16478c" stroke-miterlimit="10" stroke-width="0.75"/></g><path d="M542.728,150.922v6.136a2.493,2.493,0,0,0,2.58,2.529c2.133-.126,4.258-1.4,4.258-2.92v-3.06a.761.761,0,0,0-.452-.695,2.043,2.043,0,0,1-1.169-1.99Z" transform="translate(-505.926 -146.617)" fill="#f57373"/><path d="M543.884,143.175a4.393,4.393,0,0,0-4.121,3.136,1.3,1.3,0,0,1-1.232.9h-3.093v.627h12.81A4.52,4.52,0,0,0,543.884,143.175Z" transform="translate(-502.688 -143.175)" fill="#091c38"/><path d="M555.715,157.269a1.182,1.182,0,1,1-.547-1.792A1.348,1.348,0,0,1,555.715,157.269Z" transform="translate(-510.691 -148.615)" fill="#f57373"/><path d="M554.4,157.055a.837.837,0,0,1,.99-.614.6.6,0,0,1,.316.287" transform="translate(-511.112 -149.053)" fill="none" stroke="#e04444" stroke-miterlimit="10" stroke-width="0.75"/><path d="M3.23,0h0a3.23,3.23,0,0,1,3.23,3.23V82.368A3.23,3.23,0,0,1,3.23,85.6h0A3.23,3.23,0,0,1,0,82.368V3.23A3.23,3.23,0,0,1,3.23,0Z" transform="translate(80.532 35.548)" fill="none" stroke="#16478c" stroke-miterlimit="10" stroke-width="0.75"/></g><g transform="translate(128.374 124.432)"><g transform="translate(25.947 111.858)"><rect width="37.721" height="32.616" transform="translate(39.363)" fill="#fff"/><path d="M353.282,380.432l-37.721-13.838v-5.719h37.721Z" transform="translate(-276.198 -360.875)" fill="#d9d9d9"/><rect width="116.447" height="1.98" transform="translate(0 30.636)" fill="#fff"/></g><rect width="168.34" height="112.837" transform="translate(0 0)" fill="#fff"/><rect width="33.401" height="5.057" transform="translate(22.114 107.78)" fill="#d9d9d9"/><rect width="161.086" height="104.265" transform="translate(3.627 3.515)" fill="#091c38"/></g><g transform="translate(139.785 96.34)"><path d="M288.279,189.824h-69.7V109.051H272.5l15.778,15.9Z" transform="translate(-218.577 -109.051)" fill="#dbdada"/><line x2="51.893" transform="translate(4.82 6.008)" fill="none" stroke="#fff" stroke-miterlimit="10" stroke-width="0.742"/><path d="M315.608,109.051l15.778,15.9H315.608Z" transform="translate(-261.683 -109.051)" fill="#00223d"/><g transform="translate(8.502 18.987)"><path d="M284.266,184.96H236.182a2.308,2.308,0,0,1-2.307-2.307h0a2.307,2.307,0,0,1,2.307-2.307h48.083a2.307,2.307,0,0,1,2.307,2.307h0A2.308,2.308,0,0,1,284.266,184.96Z" transform="translate(-233.875 -159.71)" fill="none" stroke="#fff" stroke-miterlimit="10" stroke-width="0.742"/><path d="M284.266,157.57H236.182c-1.274,0-2.307-3.213-2.307-7.177h0c0-3.964,1.033-7.178,2.307-7.178h48.083c1.274,0,2.307,3.214,2.307,7.178h0C286.573,154.357,285.54,157.57,284.266,157.57Z" transform="translate(-233.875 -143.215)" fill="#fff"/><path d="M284.266,201.351H236.182a2.308,2.308,0,0,1-2.307-2.307h0a2.308,2.308,0,0,1,2.307-2.307h48.083a2.308,2.308,0,0,1,2.307,2.307h0A2.308,2.308,0,0,1,284.266,201.351Z" transform="translate(-233.875 -166.992)" fill="none" stroke="#fff" stroke-miterlimit="10" stroke-width="0.742"/><path d="M284.266,217.742H236.182a2.308,2.308,0,0,1-2.307-2.307h0a2.308,2.308,0,0,1,2.307-2.307h48.083a2.308,2.308,0,0,1,2.307,2.307h0A2.308,2.308,0,0,1,284.266,217.742Z" transform="translate(-233.875 -174.273)" fill="none" stroke="#fff" stroke-miterlimit="10" stroke-width="0.742"/><path d="M284.266,234.132H236.182a2.308,2.308,0,0,1-2.307-2.307h0a2.308,2.308,0,0,1,2.307-2.307h48.083a2.308,2.308,0,0,1,2.307,2.307h0A2.308,2.308,0,0,1,284.266,234.132Z" transform="translate(-233.875 -181.555)" fill="none" stroke="#fff" stroke-miterlimit="10" stroke-width="0.742"/></g><circle cx="1.042" cy="1.042" r="1.042" transform="translate(6.957 1.892)" fill="none" stroke="#fff" stroke-miterlimit="10" stroke-width="0.742"/><circle cx="1.042" cy="1.042" r="1.042" transform="translate(12.792 1.892)" fill="none" stroke="#fff" stroke-miterlimit="10" stroke-width="0.742"/><circle cx="1.042" cy="1.042" r="1.042" transform="translate(18.627 1.892)" fill="none" stroke="#fff" stroke-miterlimit="10" stroke-width="0.742"/></g><path d="M466.044,166.724a25,25,0,0,0,0-8.024h-7.108a17.949,17.949,0,0,0-2.326-5.6l5.027-5.027a25.169,25.169,0,0,0-5.674-5.674l-5.027,5.026a17.961,17.961,0,0,0-5.6-2.326v-7.108a25.009,25.009,0,0,0-8.025,0V145.1a17.944,17.944,0,0,0-5.6,2.326l-5.027-5.026A25.184,25.184,0,0,0,421,148.07l5.027,5.027a17.948,17.948,0,0,0-2.326,5.6H416.6a25,25,0,0,0,0,8.024H423.7a17.948,17.948,0,0,0,2.326,5.6L421,177.354a25.2,25.2,0,0,0,5.675,5.675L431.7,178a17.951,17.951,0,0,0,5.6,2.326v7.108a25.008,25.008,0,0,0,8.025,0v-7.108a17.949,17.949,0,0,0,5.6-2.326l5.027,5.027a25.183,25.183,0,0,0,5.674-5.675l-5.027-5.027a17.949,17.949,0,0,0,2.326-5.6ZM441.32,173.24a10.528,10.528,0,1,1,10.528-10.528A10.528,10.528,0,0,1,441.32,173.24Z" transform="translate(-166.618 -25.423)" fill="#7d6eb2"/><path d="M390.249,175.21a11.754,11.754,0,0,0,0-3.772h-3.341a8.439,8.439,0,0,0-1.094-2.633l2.363-2.362a11.837,11.837,0,0,0-2.667-2.667l-2.363,2.363a8.424,8.424,0,0,0-2.633-1.093V161.7a11.754,11.754,0,0,0-3.772,0v3.341a8.43,8.43,0,0,0-2.633,1.093l-2.362-2.363a11.827,11.827,0,0,0-2.667,2.667l2.362,2.362a8.439,8.439,0,0,0-1.093,2.633h-3.341a11.754,11.754,0,0,0,0,3.772h3.341a8.439,8.439,0,0,0,1.093,2.633l-2.362,2.362a11.827,11.827,0,0,0,2.667,2.667l2.362-2.363a8.431,8.431,0,0,0,2.633,1.093v3.341a11.755,11.755,0,0,0,3.772,0V181.6a8.425,8.425,0,0,0,2.633-1.093l2.363,2.363a11.837,11.837,0,0,0,2.667-2.667l-2.363-2.362a8.439,8.439,0,0,0,1.094-2.633Zm-11.62,3.062a4.948,4.948,0,1,1,4.948-4.948A4.948,4.948,0,0,1,378.628,178.272Z" transform="translate(-144.665 -36.035)" fill="#8ec8c8"/><g transform="translate(215.601 96.041)"><path d="M459.638,113.779l-.82.421a2.959,2.959,0,0,1-1.351.326H423.849v3.267h33.617a2.967,2.967,0,0,1,1.352.326l.82.421a1.284,1.284,0,0,0,.931.093l6.129-1.724v-1.5l-6.129-1.724A1.281,1.281,0,0,0,459.638,113.779Z" transform="translate(-385.586 -110.79)" fill="#00223d"/><path d="M438.332,115.236H423.849V118.5h5.95a14.6,14.6,0,0,0,5.78-1.193l2.922-1.26A.424.424,0,0,0,438.332,115.236Z" transform="translate(-385.586 -111.5)" fill="#091c38"/><path d="M394.568,109.742l-37.327-1.227a2.171,2.171,0,0,0-2.242,2.17v6.4a2.171,2.171,0,0,0,2.242,2.17l37.327-1.227,1.327.728a1.482,1.482,0,0,0,2.194-1.3v-7.14a1.482,1.482,0,0,0-2.194-1.3Z" transform="translate(-354.999 -108.514)" fill="#69746b"/><path d="M394.111,118.5H360.95a1.61,1.61,0,0,1-1.61-1.61h0a1.61,1.61,0,0,1,1.61-1.61h33.161a1.61,1.61,0,0,1,1.61,1.61h0A1.61,1.61,0,0,1,394.111,118.5Z" transform="translate(-356.927 -111.519)" fill="none" stroke="#fff" stroke-miterlimit="10" stroke-width="0.845"/></g><g transform="translate(139.785 217.762)"><rect width="69.703" height="14.45" fill="#1e61bf"/><line x2="65.023" transform="translate(2.34 4.299)" fill="none" stroke="#091c38" stroke-miterlimit="10" stroke-width="0.742"/><path d="M237.42,330.814a.737.737,0,1,1-.737-.737A.737.737,0,0,1,237.42,330.814Z" transform="translate(-226.293 -328.664)" fill="none" stroke="#091c38" stroke-miterlimit="10" stroke-width="0.742"/><path d="M245.586,330.814a.737.737,0,1,1-.737-.737A.737.737,0,0,1,245.586,330.814Z" transform="translate(-229.921 -328.664)" fill="none" stroke="#091c38" stroke-miterlimit="10" stroke-width="0.742"/><circle cx="0.737" cy="0.737" r="0.737" transform="translate(5.115 1.412)" fill="none" stroke="#091c38" stroke-miterlimit="10" stroke-width="0.742"/></g><g transform="translate(215.601 220.93)"><rect width="69.703" height="11.282" fill="#8ec8c8"/><line x2="65.023" transform="translate(2.34 4.299)" fill="none" stroke="#fff" stroke-miterlimit="10" stroke-width="0.742"/><path d="M365.677,336.514a.737.737,0,1,1-.737-.737A.737.737,0,0,1,365.677,336.514Z" transform="translate(-359.088 -334.365)" fill="none" stroke="#fff" stroke-miterlimit="10" stroke-width="0.742"/><path d="M373.843,336.514a.737.737,0,1,1-.737-.737A.737.737,0,0,1,373.843,336.514Z" transform="translate(-362.716 -334.365)" fill="none" stroke="#fff" stroke-miterlimit="10" stroke-width="0.742"/><path d="M382.008,336.514a.737.737,0,1,1-.737-.737A.737.737,0,0,1,382.008,336.514Z" transform="translate(-366.343 -334.365)" fill="none" stroke="#fff" stroke-miterlimit="10" stroke-width="0.742"/></g><g transform="translate(215.601 139.104)"><rect width="69.703" height="34.827" transform="translate(0 0)" fill="#fff"/><line x2="65.023" transform="translate(2.34 4.299)" fill="none" stroke="#abc7ff" stroke-miterlimit="10" stroke-width="0.742"/><circle cx="0.737" cy="0.737" r="0.737" transform="translate(5.115 1.412)" fill="none" stroke="#abc7ff" stroke-miterlimit="10" stroke-width="0.742"/><circle cx="0.737" cy="0.737" r="0.737" transform="translate(9.653 1.412)" fill="none" stroke="#abc7ff" stroke-miterlimit="10" stroke-width="0.742"/><path d="M382.008,189.278a.737.737,0,1,1-.737-.737A.737.737,0,0,1,382.008,189.278Z" transform="translate(-366.343 -187.129)" fill="none" stroke="#abc7ff" stroke-miterlimit="10" stroke-width="0.742"/><g transform="translate(18.404 3.025)"><circle cx="11.63" cy="11.63" r="11.63" transform="translate(0 16.448) rotate(-45)" fill="#00223d"/><path d="M410.736,221.188v-7.947a.808.808,0,0,1,1.2-.707l7.189,3.974a.808.808,0,0,1,0,1.414l-7.189,3.974A.809.809,0,0,1,410.736,221.188Z" transform="translate(-398.164 -200.766)" fill="#fff"/></g></g><g transform="translate(215.601 177.113)"><rect width="69.703" height="41.083" fill="#3c4973"/><line x2="65.023" transform="translate(2.34 4.299)" fill="none" stroke="#fff" stroke-miterlimit="10" stroke-width="0.742"/><path d="M365.677,257.67a.737.737,0,1,1-.737-.737A.737.737,0,0,1,365.677,257.67Z" transform="translate(-359.088 -255.52)" fill="none" stroke="#fff" stroke-miterlimit="10" stroke-width="0.742"/><path d="M373.843,257.67a.737.737,0,1,1-.737-.737A.737.737,0,0,1,373.843,257.67Z" transform="translate(-362.716 -255.52)" fill="none" stroke="#fff" stroke-miterlimit="10" stroke-width="0.742"/><path d="M382.008,257.67a.737.737,0,1,1-.737-.737A.737.737,0,0,1,382.008,257.67Z" transform="translate(-366.343 -255.52)" fill="none" stroke="#fff" stroke-miterlimit="10" stroke-width="0.742"/><path d="M422.514,272.089H360.928a1.718,1.718,0,0,1-1.718-1.718h0a1.719,1.719,0,0,1,1.718-1.719h61.585a1.719,1.719,0,0,1,1.718,1.719h0A1.718,1.718,0,0,1,422.514,272.089Z" transform="translate(-356.87 -260.727)" fill="none" stroke="#fff" stroke-miterlimit="10" stroke-width="0.742"/><path d="M422.514,284.8H360.928a1.719,1.719,0,0,1-1.718-1.719h0a1.719,1.719,0,0,1,1.718-1.719h61.585a1.719,1.719,0,0,1,1.718,1.719h0A1.719,1.719,0,0,1,422.514,284.8Z" transform="translate(-356.87 -266.373)" fill="none" stroke="#fff" stroke-miterlimit="10" stroke-width="0.742"/><path d="M384.479,310.237H360.928a1.719,1.719,0,0,1-1.718-1.719h0a1.719,1.719,0,0,1,1.718-1.719h23.551a1.719,1.719,0,0,1,1.719,1.719h0A1.719,1.719,0,0,1,384.479,310.237Z" transform="translate(-356.87 -277.673)" fill="url(#a)"/></g><g transform="translate(256.645 202.932)"><path d="M444.035,304.214l-15.184-.005,6.328,13.8,2.722-4.241,12.275,7.878,3.411-5.315-12.275-7.878Z" transform="translate(-428.851 -302.342)" fill="#0e2d59"/><path d="M444.035,300.855l-15.184-.005,6.328,13.8,2.722-4.241,12.275,7.878,3.411-5.315L441.313,305.1Z" transform="translate(-428.851 -300.85)" fill="#fff"/></g><g transform="translate(81.155 122.152)"><g transform="translate(0)"><path d="M191.713,381.917l.907,11.14a4.88,4.88,0,0,0,2.943,4.1c3.291,1.407,8.446,3.885,8.646,5.685H187.865a2.684,2.684,0,0,1-2.623-3.25l.7-3.232-1.928-14.439Z" transform="translate(-144.591 -256.084)" fill="#f57373"/><path d="M125.36,381.917l-3,10.843a3.848,3.848,0,0,0,2.17,4.558c3.293,1.429,8.07,3.789,8.262,5.52H115.766a2.684,2.684,0,0,1-2.45-3.779l1.209-2.7,3.133-14.439Z" transform="translate(-113.08 -256.084)" fill="#f57373"/><path d="M196.5,408.325a4.852,4.852,0,0,1-1.729-1.259l-1.851,1.968-6.043-1.506-.7,3.232a2.684,2.684,0,0,0,2.623,3.25h16.344C204.943,412.211,199.788,409.732,196.5,408.325Z" transform="translate(-145.525 -267.257)" fill="#0e2d59"/><path d="M115.766,413.987H132.8c-.192-1.731-4.97-4.091-8.262-5.52a3.816,3.816,0,0,1-1.7-1.454l-2.9,1.946-5.411-1.453-1.209,2.7A2.684,2.684,0,0,0,115.766,413.987Z" transform="translate(-113.08 -267.233)" fill="#0e2d59"/><path d="M152.512,170.46H169.2l-.43-1.407a6.066,6.066,0,0,0,.86-2.149c.156-1.094-.781-1.915,0-3.517s1.641-4.611-1.836-5.861c-1.6-2.227-6.156-2.829-8.831-.742-1.954,1.524-1.758,4.651-2.5,5.94s-1.289,1.263-2.032,2.918-.124,2.633-.841,3.213A3.09,3.09,0,0,0,152.512,170.46Z" transform="translate(-130.597 -155.497)" fill="#091c38"/><path d="M149.974,184.165l4.662,3.258A22.4,22.4,0,0,1,163.47,200.1l3.068,11.684H155.91l4.331,8.964a1.342,1.342,0,0,1-1.208,1.926H131.266l-9.222-12.3,7.888-13.978a22.4,22.4,0,0,1,9.319-8.94L146.005,184Z" transform="translate(-117.062 -168.161)" fill="#7dc4be"/><path d="M138.637,234.459l8.282-23.915,16.362,13.026,4.331,8.964a1.342,1.342,0,0,1-1.208,1.926Z" transform="translate(-124.433 -179.952)" fill="#4ea59f"/><path d="M128.325,222.691l11.117-2.32,2.3-6.717a19.345,19.345,0,0,0-4.893,3.559,6.524,6.524,0,0,1-3.015,1.793C131.234,219.755,128.658,221.633,128.325,222.691Z" transform="translate(-119.852 -181.333)" fill="#4ea59f"/><path d="M167.161,177.357l1.947-5.484H164.48l-1.657,4.667a5.535,5.535,0,0,1-2.7,3.077l-1.882.961a11.043,11.043,0,0,0,5.821,1.455,11.853,11.853,0,0,0,5.125-1.065l-1.125-.787A2.446,2.446,0,0,1,167.161,177.357Z" transform="translate(-133.144 -162.772)" fill="#f57373"/><path d="M169.629,173.748s-.934,3.1,2.685,4.038l1.257-3.54Z" transform="translate(-138.153 -163.605)" fill="#e04444"/><path d="M119.789,228.028l18.8-4.084a8.747,8.747,0,0,1,5.193.463l1.07.442-.078,4.181-.589,1.538a8.175,8.175,0,0,1-3.955,4.38l-10.686,5.391a10.346,10.346,0,0,1-8.474.38h0a6.492,6.492,0,0,1-3.24-9.259C118.9,229.582,119.789,228.028,119.789,228.028Z" transform="translate(-114.807 -185.816)" fill="#7dc4be"/><line x1="4.21" y2="12.116" transform="translate(19.589 26.923)" fill="none" stroke="#944d1b" stroke-miterlimit="10" stroke-width="0.772"/><path d="M154.933,253.576l8.023,77.859H150.4a25.424,25.424,0,0,0,0-9.371c-.938-5.5-2.813-7.529-2.032-12.687s-3.6-7.711-3.907-12.3.469-5.366-.938-9.9-2.214-8.6-2.214-8.6l-14.2,52.85h-13.13a32.341,32.341,0,0,0,2.97-9.779c.625-5.246.938-9,2.657-12.279s-.781-7.816.781-13.286,3.6-11.411,4.064-15.63,3.761-26.868,3.761-26.868Z" transform="translate(-113.48 -199.069)" fill="#00223d"/><path d="M166.305,306.121c.312,4.585,4.689,7.138,3.907,12.3s1.094,7.19,2.032,12.687a25.424,25.424,0,0,1,0,9.371H184.8l-1.477-14.328-16.158-52.222-4.014,13.7s.808,4.064,2.214,8.6S165.992,301.536,166.305,306.121Z" transform="translate(-135.325 -208.109)" fill="#011526"/><path d="M165.57,255.77l-.226-2.194-26.719.016s-.538,3.7-1.209,8.385Z" transform="translate(-123.891 -199.069)" fill="#011526"/><line x1="13.452" y2="73.776" transform="translate(5.726 54.507)" fill="none" stroke="#091c38" stroke-miterlimit="10" stroke-width="0.742"/><path d="M151.559,253.576s-.642,5.344-6,6.189" transform="translate(-127.509 -199.069)" fill="none" stroke="#091c38" stroke-miterlimit="10" stroke-width="0.742"/><line x2="7.702" y2="73.776" transform="translate(39.42 54.507)" fill="none" stroke="#091c38" stroke-miterlimit="10" stroke-width="0.742"/><g transform="translate(0.501 128.283)"><path d="M179.512,390.409h12.557l-.421-4.084H179.925A20.555,20.555,0,0,1,179.512,390.409Z" transform="translate(-143.093 -386.325)" fill="#fff"/><path d="M128.208,386.325h-12.57a31.53,31.53,0,0,1-1.657,4.084h13.13Z" transform="translate(-113.981 -386.325)" fill="#fff"/></g><line y1="0.369" x2="9.613" transform="translate(26.369 65.449)" fill="none" stroke="#091c38" stroke-miterlimit="10" stroke-width="0.742"/><g transform="translate(32.046 26.06)"><rect width="32.042" height="25.478" transform="translate(0)" fill="#dbdada"/><line x2="28.434" transform="translate(1.804 3.334)" fill="none" stroke="#00223d" stroke-miterlimit="10" stroke-width="0.742"/><g transform="translate(1.804 0.938)"><circle cx="0.729" cy="0.729" r="0.729" fill="none" stroke="#00223d" stroke-miterlimit="10" stroke-width="0.742"/><circle cx="0.729" cy="0.729" r="0.729" transform="translate(3.365)" fill="none" stroke="#00223d" stroke-miterlimit="10" stroke-width="0.742"/><circle cx="0.729" cy="0.729" r="0.729" transform="translate(6.73)" fill="none" stroke="#00223d" stroke-miterlimit="10" stroke-width="0.742"/></g></g><g transform="translate(29.983 36.84)"><path d="M167.089,223.979l1.862-1.553a2.762,2.762,0,0,1,1.769-.641h2.855v3.209l-3.243.417a3.682,3.682,0,0,1-3.3,1.746Z" transform="translate(-167.03 -221.785)" fill="#f57373"/><line x2="2.892" transform="translate(3.654 0.826)" fill="none" stroke="#e04444" stroke-miterlimit="10" stroke-width="0.5"/><line x2="2.892" transform="translate(3.654 1.647)" fill="none" stroke="#e04444" stroke-miterlimit="10" stroke-width="0.5"/><line x2="2.892" transform="translate(3.654 2.402)" fill="none" stroke="#e04444" stroke-miterlimit="10" stroke-width="0.5"/></g><g transform="translate(62.319 36.47)"><path d="M225.214,221.359v3.24a.7.7,0,0,0,.557.686l1.213.256v1.867l1.125-.866a2,2,0,0,0,.778-1.581v-2.493a.775.775,0,0,0-.616-.759l-2.77-.585A.238.238,0,0,0,225.214,221.359Z" transform="translate(-225.214 -221.121)" fill="#f57373"/><line x2="2.97" y2="0.729" transform="translate(0 0.927)" fill="none" stroke="#e04444" stroke-miterlimit="10" stroke-width="0.5"/><line x2="2.97" y2="0.729" transform="translate(0 1.964)" fill="none" stroke="#e04444" stroke-miterlimit="10" stroke-width="0.5"/><line x2="2.97" y2="0.729" transform="translate(0 3)" fill="none" stroke="#e04444" stroke-miterlimit="10" stroke-width="0.5"/></g><path d="M172.276,165.22v-1.9a.606.606,0,0,0-.92-.525,3.794,3.794,0,0,1-1.866.582A1.181,1.181,0,0,0,168.4,164.4a3.661,3.661,0,0,1-.9,2.078,1.358,1.358,0,1,0-.263,2.075,2.7,2.7,0,0,0,2.664,2.29,3.194,3.194,0,0,0,3.194-3.194v-1.612A.821.821,0,0,1,172.276,165.22Z" transform="translate(-136.216 -158.698)" fill="#f57373"/></g></g><g transform="translate(139.785 180.851)"><rect width="69.703" height="33.173" fill="#fff"/><line x2="65.023" transform="translate(2.34 4.299)" fill="none" stroke="#00223d" stroke-miterlimit="10" stroke-width="0.742"/><circle cx="0.737" cy="0.737" r="0.737" transform="translate(5.115 1.412)" fill="none" stroke="#00223d" stroke-miterlimit="10" stroke-width="0.742"/><path d="M237.42,264.4a.737.737,0,1,1-.737-.737A.737.737,0,0,1,237.42,264.4Z" transform="translate(-226.293 -262.247)" fill="none" stroke="#00223d" stroke-miterlimit="10" stroke-width="0.742"/><path d="M245.586,264.4a.737.737,0,1,1-.737-.737A.737.737,0,0,1,245.586,264.4Z" transform="translate(-229.921 -262.247)" fill="none" stroke="#00223d" stroke-miterlimit="10" stroke-width="0.742"/><g transform="translate(36.106 9.292)"><rect width="28.239" height="18.757" transform="translate(0)" fill="#d5f2e8"/><path d="M283.545,277.837l10.808,10.907a4.662,4.662,0,0,0,6.624,0l10.808-10.907Z" transform="translate(-283.545 -277.837)" fill="#8ec8c8"/></g><g transform="translate(2.97 11.545)"><path d="M241.009,284.257H225.1a1.183,1.183,0,0,1-1.183-1.183h0a1.183,1.183,0,0,1,1.183-1.183h15.906a1.183,1.183,0,0,1,1.183,1.183h0A1.183,1.183,0,0,1,241.009,284.257Z" transform="translate(-223.92 -281.891)" fill="none" stroke="#00223d" stroke-miterlimit="10" stroke-width="0.742"/><path d="M249.934,294.949H225.1a1.184,1.184,0,0,1-1.183-1.184h0a1.183,1.183,0,0,1,1.183-1.183h24.831a1.183,1.183,0,0,1,1.183,1.183h0A1.184,1.184,0,0,1,249.934,294.949Z" transform="translate(-223.92 -286.641)" fill="none" stroke="#00223d" stroke-miterlimit="10" stroke-width="0.742"/><path d="M249.934,305.64H225.1a1.183,1.183,0,0,1-1.183-1.183h0a1.183,1.183,0,0,1,1.183-1.183h24.831a1.183,1.183,0,0,1,1.183,1.183h0A1.183,1.183,0,0,1,249.934,305.64Z" transform="translate(-223.92 -291.39)" fill="none" stroke="#00223d" stroke-miterlimit="10" stroke-width="0.742"/></g></g><g transform="translate(204.051 175.415)"><circle cx="5.436" cy="5.436" r="5.436" fill="#e04444"/><g transform="translate(2.378 3.357)"><path d="M340.259,257.5v4.086h-.946v-3.327H338.5V257.5Z" transform="translate(-338.496 -257.434)" fill="#fff"/><path d="M346.88,260.764v.77h-3.088v-.613l1.576-1.488c.362-.345.427-.555.427-.754,0-.321-.222-.507-.654-.507a1,1,0,0,0-.847.408l-.689-.444a1.9,1.9,0,0,1,1.623-.759c.911,0,1.518.467,1.518,1.208a1.631,1.631,0,0,1-.683,1.29l-.94.888Z" transform="translate(-340.766 -257.378)" fill="#fff"/></g></g><g transform="translate(226.729 229.631)"><rect width="48.116" height="32.564" fill="#525d54"/><path d="M419.2,358.113h22.052v-9.222H415.8Z" transform="translate(-393.136 -348.891)" fill="#69746b"/><circle cx="5.442" cy="5.442" r="5.442" transform="translate(18.201 14.953)" fill="none" stroke="#fff" stroke-miterlimit="10" stroke-width="0.755"/><path d="M418.319,381.751h-2.926v-2.926h-1.667v2.926H410.8v1.667h2.926v2.926h1.667v-2.926h2.926Z" transform="translate(-390.916 -362.189)" fill="#fff"/></g></g></svg>