<svg xmlns="http://www.w3.org/2000/svg" width="162.209" height="294.604" viewBox="0 0 162.209 294.604">
  <g id="Grupo_54190" data-name="Grupo 54190" transform="translate(-375.013 -96.379)">
    <g id="Grupo_54165" data-name="Grupo 54165" transform="translate(379.832 198.461)">
      <g id="Grupo_54160" data-name="Grupo 54160" transform="translate(0 81.079)">
        <g id="Grupo_54154" data-name="Grupo 54154" transform="translate(19.261 11.014)">
          <g id="Grupo_54153" data-name="Grupo 54153">
            <path id="Trazado_100954" data-name="Trazado 100954" d="M389.876,220.211l.018,6.657,6.936-3.975-.024-6.66Z" transform="translate(-389.876 -216.233)" fill="#2b2730"/>
          </g>
        </g>
        <g id="Grupo_54159" data-name="Grupo 54159" style="isolation: isolate">
          <g id="Grupo_54155" data-name="Grupo 54155" transform="translate(33.086 3.969)">
            <path id="Trazado_100955" data-name="Trazado 100955" d="M398.41,222.907l.018,1.986,19.249-11.022-.018-1.986Z" transform="translate(-398.41 -211.885)" fill="#2b2730"/>
          </g>
          <g id="Grupo_54156" data-name="Grupo 54156" transform="translate(6.894 14.992)">
            <path id="Trazado_100956" data-name="Trazado 100956" d="M382.243,233.677l.018,1.98,26.191-14.983-.018-1.986Z" transform="translate(-382.243 -218.689)" fill="#2b2730"/>
          </g>
          <g id="Grupo_54157" data-name="Grupo 54157">
            <path id="Trazado_100957" data-name="Trazado 100957" d="M377.988,235.449l6.894,3.966L404.137,228.4l6.936-3.969L430.322,213.4l-6.888-3.969-19.255,11.014-6.931,3.978Z" transform="translate(-377.988 -209.435)" fill="#383340"/>
          </g>
          <g id="Grupo_54158" data-name="Grupo 54158" transform="translate(0 26.014)">
            <path id="Trazado_100958" data-name="Trazado 100958" d="M377.988,225.492l.018,1.986,6.894,3.96-.018-1.98Z" transform="translate(-377.988 -225.492)" fill="#2b2e31"/>
          </g>
        </g>
      </g>
      <g id="Grupo_54164" data-name="Grupo 54164" transform="translate(21.127)">
        <g id="Grupo_54163" data-name="Grupo 54163" style="isolation: isolate">
          <g id="Grupo_54161" data-name="Grupo 54161">
            <path id="Trazado_100959" data-name="Trazado 100959" d="M396.081,159.389l.072,99.827L391.1,256.3l-.072-96.911Z" transform="translate(-391.028 -159.389)" fill="#2b2730"/>
          </g>
          <g id="Grupo_54162" data-name="Grupo 54162" transform="translate(5.052)">
            <path id="Trazado_100960" data-name="Trazado 100960" d="M398.473,159.389l.066,97.355-4.321,2.472-.072-99.827Z" transform="translate(-394.147 -159.389)" fill="#2b2730"/>
          </g>
        </g>
      </g>
    </g>
    <g id="Grupo_54178" data-name="Grupo 54178" transform="translate(472.825 253.313)">
      <g id="Grupo_54173" data-name="Grupo 54173" transform="translate(0 81.079)">
        <g id="Grupo_54167" data-name="Grupo 54167" transform="translate(19.255 11.01)">
          <g id="Grupo_54166" data-name="Grupo 54166">
            <path id="Trazado_100961" data-name="Trazado 100961" d="M447.272,254.067l.024,6.657,6.936-3.975-.024-6.661Z" transform="translate(-447.272 -250.088)" fill="#2b2730"/>
          </g>
        </g>
        <g id="Grupo_54172" data-name="Grupo 54172" style="isolation: isolate">
          <g id="Grupo_54168" data-name="Grupo 54168" transform="translate(33.08 3.966)">
            <path id="Trazado_100962" data-name="Trazado 100962" d="M455.805,256.763l.024,1.986,19.243-11.019-.018-1.989Z" transform="translate(-455.805 -245.74)" fill="#2b2730"/>
          </g>
          <g id="Grupo_54169" data-name="Grupo 54169" transform="translate(6.895 14.989)">
            <path id="Trazado_100963" data-name="Trazado 100963" d="M439.643,267.529l.018,1.986,26.191-14.986-.024-1.986Z" transform="translate(-439.643 -252.544)" fill="#2b2730"/>
          </g>
          <g id="Grupo_54170" data-name="Grupo 54170">
            <path id="Trazado_100964" data-name="Trazado 100964" d="M435.387,269.3l6.895,3.963,19.254-11.019,6.931-3.966,19.249-11.023-6.889-3.966L461.578,254.3l-6.936,3.978Z" transform="translate(-435.387 -243.292)" fill="#383340"/>
          </g>
          <g id="Grupo_54171" data-name="Grupo 54171" transform="translate(0 26.011)">
            <path id="Trazado_100965" data-name="Trazado 100965" d="M435.387,259.347l.018,1.986L442.3,265.3l-.018-1.986Z" transform="translate(-435.387 -259.347)" fill="#2b2e31"/>
          </g>
        </g>
      </g>
      <g id="Grupo_54177" data-name="Grupo 54177" transform="translate(21.127 0)">
        <g id="Grupo_54176" data-name="Grupo 54176" style="isolation: isolate">
          <g id="Grupo_54174" data-name="Grupo 54174">
            <path id="Trazado_100966" data-name="Trazado 100966" d="M453.474,193.246l.078,99.827-5.058-2.916-.066-96.911Z" transform="translate(-448.428 -193.246)" fill="#2b2730"/>
          </g>
          <g id="Grupo_54175" data-name="Grupo 54175" transform="translate(5.046)">
            <path id="Trazado_100967" data-name="Trazado 100967" d="M455.874,193.246l.066,97.352-4.32,2.475-.078-99.827Z" transform="translate(-451.543 -193.246)" fill="#2b2730"/>
          </g>
        </g>
      </g>
    </g>
    <g id="Grupo_54187" data-name="Grupo 54187" transform="translate(375.013 96.379)">
      <g id="Grupo_54179" data-name="Grupo 54179" transform="translate(9.862 11.327)">
        <path id="Trazado_100968" data-name="Trazado 100968" d="M381.1,103.371V205.377l144.66,84.833v-102Z" transform="translate(-381.1 -103.371)" fill="#8ec8c8"/>
      </g>
      <g id="Grupo_54186" data-name="Grupo 54186">
        <g id="Grupo_54185" data-name="Grupo 54185" style="isolation: isolate">
          <g id="Grupo_54180" data-name="Grupo 54180" transform="translate(4.656 8.016)">
            <path id="Trazado_100969" data-name="Trazado 100969" d="M378.181,105.793l7.687-4.466-.3,104.045-7.681,4.462Z" transform="translate(-377.887 -101.327)" fill="#b8bcc6"/>
          </g>
          <g id="Grupo_54181" data-name="Grupo 54181" transform="translate(4.656 112.061)">
            <path id="Trazado_100970" data-name="Trazado 100970" d="M377.887,170.011l7.681-4.462,144.921,83.663-7.687,4.465Z" transform="translate(-377.887 -165.548)" fill="#f2eee5"/>
          </g>
          <g id="Grupo_54182" data-name="Grupo 54182" transform="translate(154.202 89.028)">
            <path id="Trazado_100971" data-name="Trazado 100971" d="M470.513,155.8l7.687-4.469-.325,114.715-7.681,4.462Z" transform="translate(-470.194 -151.332)" fill="#b8bcc6"/>
          </g>
          <g id="Grupo_54183" data-name="Grupo 54183" transform="translate(0.325)">
            <path id="Trazado_100972" data-name="Trazado 100972" d="M375.213,100.848l7.687-4.469,154.2,89.028-7.687,4.469Z" transform="translate(-375.213 -96.379)" fill="#f2eee5"/>
          </g>
          <g id="Grupo_54184" data-name="Grupo 54184" transform="translate(0 4.468)">
            <path id="Trazado_100973" data-name="Trazado 100973" d="M375.337,99.137l154.2,89.029-.319,114.708-154.2-89.024Zm149.246,195.72.293-104.038L379.962,107.15l-.293,104.043,144.914,83.665Z" transform="translate(-375.013 -99.137)" fill="#d4d0c8"/>
          </g>
        </g>
      </g>
    </g>
    <g id="Grupo_54188" data-name="Grupo 54188" transform="translate(421.75 156.94)">
      <path id="Trazado_100974" data-name="Trazado 100974" d="M423.754,147.89v2.271l1.09.629,2.628-6.456-.021.034c-.144.235-.306.5-.653.3a1.872,1.872,0,0,1-.653-1.047c-.125-.347-.228-.64-.412-.745s-.287.068-.41.267c-.142.235-.3.5-.653.3a1.876,1.876,0,0,1-.653-1.05c-.121-.342-.227-.637-.41-.742s-.287.068-.408.267c-.146.237-.306.5-.655.3a1.876,1.876,0,0,1-.651-1.047c-.123-.345-.228-.64-.411-.745s-.287.068-.408.267c-.144.235-.306.5-.653.3a1.678,1.678,0,0,1-.611-.932l2.582,9.324,1.026.591v-2.275c-.408-.277-.715-.608-.715-.8,0-.217.41-.157.915.136s.917.7.917.92C424.537,148.151,424.2,148.118,423.754,147.89Z" transform="translate(-393.97 -129.859)" fill="#fff"/>
      <path id="Trazado_100975" data-name="Trazado 100975" d="M431.263,145.742a14.1,14.1,0,0,0-6.544-10.757l-.023-.015-.024-.013c-3.579-2.066-6.25-.734-6.544,3.2-.144,1.93-.175,4.805,2.691,10.341a10.2,10.2,0,0,1,.818,3.576l1.538.888-2.84-10.257a.089.089,0,0,1,.01-.084c.041-.044.13.031.2.092l.019.018a2.367,2.367,0,0,1,.523.951c.123.342.227.635.41.74s.287-.066.408-.266c.143-.235.3-.5.653-.3a1.871,1.871,0,0,1,.653,1.051c.123.342.228.635.41.74s.287-.066.408-.264c.144-.237.3-.5.655-.3a1.872,1.872,0,0,1,.653,1.053c.123.342.228.635.41.739s.287-.065.408-.262c.144-.238.3-.5.655-.3a1.875,1.875,0,0,1,.655,1.053c.123.343.228.633.41.739s.267-.036.41-.266c.115-.19.28-.4.538-.339a.1.1,0,0,1,.029.008.282.282,0,0,1,.2.141.123.123,0,0,1,.007.1l-.041.086-2.8,6.885,1.541.889c.081-.923.275-2.21.82-2.631C431.438,150.749,431.407,147.838,431.263,145.742Z" transform="translate(-395.045 -133.617)" fill="#fff"/>
      <path id="Trazado_100976" data-name="Trazado 100976" d="M426.9,152.058a1.4,1.4,0,0,0-.219-.7V150.7a.452.452,0,0,0,.219-.441,1.4,1.4,0,0,0-.219-.7v-.648l-6.382-3.686v.585a.427.427,0,0,0-.29.467,1.445,1.445,0,0,0,.29.8v.538a.426.426,0,0,0-.29.465,1.45,1.45,0,0,0,.29.8v.538a.426.426,0,0,0-.29.465,1.454,1.454,0,0,0,.29.8v.392l0,0a1.071,1.071,0,0,0,.271.46l2.177,2.659a2.179,2.179,0,0,0,1.476.852l2.177-.144c.18-.013.266-.068.271-.147l0,0V154.3a.457.457,0,0,0,.219-.442,1.386,1.386,0,0,0-.219-.693V152.5A.456.456,0,0,0,426.9,152.058Z" transform="translate(-393.845 -126.649)" fill="#fff"/>
      <path id="Trazado_100977" data-name="Trazado 100977" d="M422.165,159.082l-1.294.2a13.106,13.106,0,0,1,.514,3.478c0,4.938-3.465,6.939-7.741,4.47a17.113,17.113,0,0,1-7.742-13.41c0-4.936,3.467-6.937,7.742-4.468a15.866,15.866,0,0,1,5.505,5.839l1.324-.207.053-.727a19.972,19.972,0,0,0-6.882-7.26c-5.393-3.114-9.782-.58-9.782,5.648s4.389,13.828,9.782,16.94,9.781.582,9.781-5.646a16.385,16.385,0,0,0-.588-4.181Z" transform="translate(-403.861 -126.376)" fill="#fff"/>
      <path id="Trazado_100978" data-name="Trazado 100978" d="M416.386,156.883a7.719,7.719,0,0,1,.363,2.221c0,2.859-2.007,4.018-4.483,2.589a9.908,9.908,0,0,1-4.484-7.765c0-2.859,2.007-4.018,4.484-2.589a9.262,9.262,0,0,1,3.264,3.53l1.452-.232a12.978,12.978,0,0,0-4.716-5.26c-3.41-1.968-6.184-.368-6.184,3.569a13.684,13.684,0,0,0,6.184,10.709c3.409,1.968,6.182.368,6.182-3.569a10.856,10.856,0,0,0-.611-3.423Z" transform="translate(-402.484 -124.598)" fill="#fff"/>
      <path id="Trazado_100979" data-name="Trazado 100979" d="M412.278,155.724c-.037.739-.58,1.032-1.247.646a2.775,2.775,0,0,1-1.256-2.174c0-.8.562-1.124,1.256-.724a1.93,1.93,0,0,1,.348.269l1.6-.256a5.9,5.9,0,0,0-1.946-1.975c-1.63-.941-2.955-.175-2.955,1.706a6.535,6.535,0,0,0,2.955,5.116c1.628.941,2.953.175,2.953-1.706a4.867,4.867,0,0,0-.149-1.139Z" transform="translate(-401.248 -123.003)" fill="#fff"/>
      <path id="Trazado_100980" data-name="Trazado 100980" d="M419.241,156.1l2.006-.313-1.732-1.688.682-.1c.215-.034.28-.327.143-.658s-.423-.565-.64-.533l-.663.105.193-1.952-2,.314-.141,1.951-.394.063.109-1.108-1.116.175-.081,1.108-5.7.912s-.326.032-.1.609c.209.53.567.5.567.5l5.776-.875.941.951,1.118-.173-.969-.945.322-.049Z" transform="translate(-400.227 -123.096)" fill="#fff"/>
      <path id="Trazado_100981" data-name="Trazado 100981" d="M425.382,173.664l-.417.493-2.035,2.152,7.687,10.364.791-.861.341-3.354.248-.307Z" transform="translate(-392.036 -109.016)" fill="#fff"/>
      <path id="Trazado_100982" data-name="Trazado 100982" d="M421.174,176.293c0,.079-.055.112-.125.073l-.028-.016a.279.279,0,0,1-.126-.217h0c0-.081.057-.113.126-.073l.028.016a.277.277,0,0,1,.125.217Z" transform="translate(-393.298 -107.541)" fill="#fff"/>
      <path id="Trazado_100983" data-name="Trazado 100983" d="M427.164,178.756c-1.562-.063-4.6-1.657-4.6-1.657l-.452.449c1.2,2.95-.586,3.175-.893,3.192s-.666-1.094-.666-1.094-1.3-3.611-1.158-4.541c.151-.992,2.3-2.15,2.3-2.15a53.534,53.534,0,0,1,5.507,1.664Z" transform="translate(-394.236 -109.456)" fill="#fff"/>
      <path id="Trazado_100984" data-name="Trazado 100984" d="M420.332,181.233c-.34.36-1.051.045-1.591-.7h0c-.539-.748-.7-1.649-.363-2.012l1.108-1.179c.339-.363,1.05-.049,1.591.7h0c.539.75.7,1.651.363,2.012Z" transform="translate(-394.969 -106.831)" fill="#fff"/>
      <path id="Trazado_100985" data-name="Trazado 100985" d="M421.591,182.99c-.387.415-1.14.141-1.678-.608h0c-.541-.75-.663-1.693-.275-2.106l1.27-1.354c.389-.413,1.141-.141,1.68.609h0c.539.749.663,1.691.275,2.106Z" transform="translate(-394.218 -105.875)" fill="#fff"/>
      <path id="Trazado_100986" data-name="Trazado 100986" d="M422.815,184.6c-.352.374-1.074.071-1.614-.679h0c-.54-.748-.692-1.661-.342-2.036l1.15-1.223c.352-.374,1.074-.071,1.614.677h0c.539.75.692,1.662.34,2.036Z" transform="translate(-393.437 -104.777)" fill="#fff"/>
      <path id="Trazado_100987" data-name="Trazado 100987" d="M423.858,186.005c-.292.309-.933,0-1.432-.7h0c-.5-.693-.669-1.508-.378-1.819l.953-1.013c.29-.311.932,0,1.432.693h0c.5.7.667,1.508.376,1.818Z" transform="translate(-392.671 -103.625)" fill="#fff"/>
      <path id="Trazado_100988" data-name="Trazado 100988" d="M434.155,187.578l-7.2-9.905-1.189-3.1a.382.382,0,0,0-.138-.162c-.159-.091-3.026-1.717-3.422-1.931l-.567-.7-.2.2.643.8a.277.277,0,0,0,.089.078c.919.494,2.8,1.563,3.214,1.789l1.312,3.143a.45.45,0,0,0,.042.071l7.227,9.941c.578.781.734,1.776.348,2.22a.8.8,0,0,1-1.051.042,2.409,2.409,0,0,1-.7-.651l-.264-.352-2.712-3.731c-.078-.107-.183-.146-.237-.086s-.034.191.044.3l2.7,3.72.389.573c.554.783.69,1.743.3,2.14a.756.756,0,0,1-.966,0,2.329,2.329,0,0,1-.611-.538l-2.788-3.836c-.078-.107-.185-.146-.237-.087s-.034.193.042.3l2.706,3.721a1.382,1.382,0,0,1-.1,1.409.766.766,0,0,1-.958,0,2.266,2.266,0,0,1-.633-.574l0,0-1.818-2.5a.3.3,0,0,1-.081-.016,1.442,1.442,0,0,1-.19.029c-.021,0-.042,0-.063,0,0,0,1.515,1.934,1.93,2.652a1.406,1.406,0,0,1-.115,1.236.722.722,0,0,1-.9,0,2.139,2.139,0,0,1-.664-.635l-1.1-1.664a.4.4,0,0,0-.032-.04c-2.215-2.537-5.392-7.94-7.088-10.936l-.016-.026c-.083-.232-.682-1.964-1.079-3.115a.405.405,0,0,0-.052-.1l-.745-1.053-.2.2.711,1.008c1.068,3.1,1.081,3.124,1.1,3.167l.031.053c1.708,3.015,4.906,8.452,7.167,11.049l1.1,1.648a2.8,2.8,0,0,0,.872.838.941.941,0,0,0,1.173,0,1.332,1.332,0,0,0,.261-1.162,2.45,2.45,0,0,0,.441.329.987.987,0,0,0,1.231,0,1.462,1.462,0,0,0,.264-1.3,2.674,2.674,0,0,0,.45.335.976.976,0,0,0,1.241-.01,1.952,1.952,0,0,0,.024-2.02.8.8,0,0,0,.177.113,1.007,1.007,0,0,0,1.332-.052C435.085,189.828,434.887,188.565,434.155,187.578Z" transform="translate(-395.702 -110.188)" fill="#fff"/>
      <path id="Trazado_100989" data-name="Trazado 100989" d="M420.673,170.543l-4.278,6.151.4.572,5.047-5.056Z" transform="translate(-396.088 -110.951)" fill="#fff"/>
      <path id="Trazado_100990" data-name="Trazado 100990" d="M419.208,168.19l-4.951,7.117,2.714,3.362,4.951-7.117Zm-2.931,8.749c-.206.031-.478-.2-.609-.51s-.068-.591.138-.622.478.2.609.51S416.481,176.906,416.277,176.939Zm.679-1.134c-.206.031-.476-.2-.608-.509s-.068-.591.138-.622.478.2.608.509S417.162,175.774,416.956,175.8Zm.68-1.132c-.206.031-.476-.2-.608-.51s-.068-.59.138-.622.478.2.608.51S417.842,174.64,417.637,174.672Z" transform="translate(-397.415 -112.41)" fill="#fff"/>
      <path id="Trazado_100991" data-name="Trazado 100991" d="M424.768,173.069l-.378.5,7.407,9.5,1.008-1.32Zm6.919,9.026a.807.807,0,0,1-.347-.637c.01-.227.18-.308.379-.183a.8.8,0,0,1,.347.638C432.059,182.138,431.889,182.219,431.688,182.095Z" transform="translate(-391.13 -109.385)" fill="#fff"/>
      <path id="Trazado_100992" data-name="Trazado 100992" d="M425.857,171.245l-1.247,2.589,9.129,9.86,1.247-2.589Zm7.381,10.6a1.486,1.486,0,0,1-.643-1.183c.016-.42.331-.572.7-.339a1.494,1.494,0,0,1,.643,1.184C433.925,181.928,433.61,182.079,433.238,181.845Z" transform="translate(-390.995 -110.516)" fill="#fff"/>
      <path id="Trazado_100993" data-name="Trazado 100993" d="M420.879,167.909a1.345,1.345,0,0,1-.556-.737c-.136-.433,0-.768.308-.748,7.363.473,14.918,1.247,22.453,2.3a1.185,1.185,0,0,1,.784.862c.118.431-.039.745-.353.7-7.514-1.053-15.047-1.826-22.39-2.3A.562.562,0,0,1,420.879,167.909Z" transform="translate(-393.686 -113.506)" fill="#fff"/>
      <path id="Trazado_100994" data-name="Trazado 100994" d="M435.5,173.686l3.806-3.252-5.989-4.54Z" transform="translate(-385.599 -113.834)" fill="#fff"/>
      <path id="Trazado_100995" data-name="Trazado 100995" d="M407.8,145.473l-.011-.007a1.341,1.341,0,0,1-.6-1.06,12.27,12.27,0,0,1,1.868-6.728c1.777-2.615,4.7-3.969,8.447-3.917a13.552,13.552,0,0,1,6.518,1.734,1.343,1.343,0,0,1,.62,1.045c.008.39-.258.559-.593.373a12.5,12.5,0,0,0-6.01-1.581,9.021,9.021,0,0,0-7.924,3.648,11.236,11.236,0,0,0-1.711,6.155C408.4,145.515,408.133,145.664,407.8,145.473Z" transform="translate(-401.794 -133.76)" fill="#fff"/>
      <path id="Trazado_100996" data-name="Trazado 100996" d="M405.726,139.143l3.711,7.677,2.3-5.152Z" transform="translate(-402.705 -130.422)" fill="#fff"/>
      <path id="Trazado_100997" data-name="Trazado 100997" d="M419.781,191.413a1.068,1.068,0,0,1-.143-.1,39.234,39.234,0,0,1-9.037-11.542c-3.3-6.341-4.745-13.5-3.783-18.689.12-.651.321-1.34.9-1.518.267-.083.648.194.854.62s.154.838-.112.92-.363.494-.444.933c-.893,4.815.452,11.465,3.511,17.354a36.517,36.517,0,0,0,8.4,10.719,1.273,1.273,0,0,1,.45,1.106C420.306,191.5,420.057,191.571,419.781,191.413Z" transform="translate(-402.208 -117.77)" fill="#fff"/>
      <path id="Trazado_100998" data-name="Trazado 100998" d="M413.94,182.821l5.587.509-4.83-7.018Z" transform="translate(-397.611 -107.374)" fill="#fff"/>
      <path id="Trazado_100999" data-name="Trazado 100999" d="M418.966,155.794a1.364,1.364,0,0,1-.591-.88c-.078-.423.123-.685.45-.586a155.259,155.259,0,0,1,24.365,9.787,1.324,1.324,0,0,1,.646,1.027c.023.4-.23.588-.565.421a153.831,153.831,0,0,0-24.164-9.706A.675.675,0,0,1,418.966,155.794Z" transform="translate(-394.872 -121.019)" fill="#fff"/>
      <path id="Trazado_101000" data-name="Trazado 101000" d="M433.427,165.545l5.05-.956-5.429-6.249Z" transform="translate(-385.762 -118.519)" fill="#fff"/>
      <path id="Trazado_101001" data-name="Trazado 101001" d="M440.894,161.721a1.1,1.1,0,0,1-.318-.287l-12.831-16.517a1,1,0,0,1-.2-1.082c.175-.228.551-.113.836.253l12.83,16.518a1,1,0,0,1,.2,1.081C441.3,161.836,441.1,161.839,440.894,161.721Z" transform="translate(-389.229 -127.586)" fill="#fff"/>
      <path id="Trazado_101002" data-name="Trazado 101002" d="M434.305,156.652l6.06,3.692-2.884-7.822Z" transform="translate(-384.983 -122.126)" fill="#fff"/>
      <path id="Trazado_101003" data-name="Trazado 101003" d="M474.864,184.851l-1.371-1.288a30.269,30.269,0,0,0-2.676-5.943l.016-6.885a2.377,2.377,0,0,0-.8-1.9c-.272-.211-2.668-1.539-6.077.125a33.831,33.831,0,0,0-6.276-4.739c-6-3.461-11.253-4.531-14.224-1.978a9.116,9.116,0,0,1-1.445-1.6,3.664,3.664,0,0,1-.352-.616,1.344,1.344,0,0,0,1.118.377c.426-.141.369-1.03.113-1.656-.348-.851-1.066-1.256-1.555-1.111a1.023,1.023,0,0,0-.676.836,2.676,2.676,0,0,1-.653-1.725c.01-.17-.191-.3-.248-.193-.332.656.219,1.659.865,2.45a2.867,2.867,0,0,0,.084.546,7.2,7.2,0,0,0,1.884,2.945c.091.1.191.2.3.3-1.275,1.461-2,3.778-2,7.09,0,4.06,1.724,8.745,4.535,13.115l-.654,3.715c-.3.888.755,2.835,2.347,4.347l1.518,1.442a5.123,5.123,0,0,0,2.39,1.521c.287.052,1.5-1.038,2.482-1.97a32.211,32.211,0,0,0,4.173,2.889,23.9,23.9,0,0,0,4.172,1.93,46.044,46.044,0,0,0,2.482,4.834,4.465,4.465,0,0,0,2.39,1.239l1.518.311c1.593.327,2.644-.407,2.348-1.636l-.655-4.47a6.68,6.68,0,0,0,3.563-3.282l1.371.295c.959.206,1.745-.739,1.745-2.1v-3.115A6.464,6.464,0,0,0,474.864,184.851ZM441.573,158.9c.144-.241.51-.439.739.118.376.917-.373.6-.836.272A.772.772,0,0,1,441.573,158.9Zm11.349,5.254a.316.316,0,0,1-.092-.037.722.722,0,0,1-.309-.444c-.052-.227.045-.377.217-.339a23.03,23.03,0,0,1,9.878,5.7.659.659,0,0,1,.217.588c-.05.168-.23.177-.4.019A22.164,22.164,0,0,0,452.922,164.158Zm16.151,18.866a2.392,2.392,0,0,1-1.084-1.876c0-.692.484-.97,1.084-.625a2.4,2.4,0,0,1,1.082,1.876C470.155,183.089,469.669,183.369,469.072,183.024Z" transform="translate(-381.665 -119.644)" fill="#fff"/>
      <path id="Trazado_101004" data-name="Trazado 101004" d="M452.686,154.085c-2.346-1.354-4.248-.256-4.248,2.453a9.388,9.388,0,0,0,4.248,7.357c2.348,1.354,4.248.258,4.248-2.453A9.385,9.385,0,0,0,452.686,154.085Zm0,9.186a8.191,8.191,0,0,1-3.707-6.422c0-2.364,1.659-3.323,3.707-2.14a8.191,8.191,0,0,1,3.708,6.422C456.394,163.495,454.734,164.454,452.686,163.271Z" transform="translate(-376.219 -121.516)" fill="#fff"/>
      <path id="Trazado_101005" data-name="Trazado 101005" d="M452.307,154.739c-1.8-1.04-3.258-.2-3.258,1.881a7.2,7.2,0,0,0,3.258,5.644c1.8,1.04,3.26.2,3.26-1.881A7.2,7.2,0,0,0,452.307,154.739Zm1.4,5.651c0,1.11-.57,1.032-1.132.708v.535l-.539-.311v-.543a5.012,5.012,0,0,1-.99-.771v-.828c.225.151.781.515,1.306.818.24.138.431.183.431-.1v-.188a.583.583,0,0,0-.34-.572l-.439-.253a2.189,2.189,0,0,1-1.089-1.946v-.405c0-.933.5-.946,1.121-.611v-.561l.539.313v.564a6.606,6.606,0,0,1,.982.761v.833c-.342-.23-.949-.611-1.228-.771-.327-.194-.488-.256-.488.1v.16a.649.649,0,0,0,.4.627l.454.262a2.149,2.149,0,0,1,1.013,1.9Z" transform="translate(-375.84 -121.028)" fill="#fff"/>
      <path id="Trazado_101006" data-name="Trazado 101006" d="M480.536,209.5l-46.75-26.156-.08-6.039,46.75,26.156Z" transform="translate(-385.354 -106.76)" fill="#fff"/>
      <path id="Trazado_101007" data-name="Trazado 101007" d="M480.529,215.387l-46.75-26.157-.08-6.039,46.75,26.156Z" transform="translate(-385.359 -103.108)" fill="#fff"/>
    </g>
    <g id="Grupo_54189" data-name="Grupo 54189" transform="translate(390.948 126.744)">
      <path id="Trazado_101008" data-name="Trazado 101008" d="M389.925,196.644l-5.076-2.931V115.122l5.076,2.93Z" transform="translate(-384.849 -115.122)" fill="#fff"/>
      <path id="Trazado_101009" data-name="Trazado 101009" d="M394.537,190.895l-5.076-2.93V131.351l5.076,2.93Z" transform="translate(-381.989 -105.058)" fill="#fff"/>
      <path id="Trazado_101010" data-name="Trazado 101010" d="M399.15,186.929,394.074,184V144.7l5.076,2.93Z" transform="translate(-379.128 -96.779)" fill="#fff"/>
    </g>
    <g id="Character" transform="translate(384.165 202.399)">
      <g id="Character-2" data-name="Character">
        <g id="Grupo_25391" data-name="Grupo 25391" transform="translate(3.855 72.541)">
          <g id="Grupo_25385" data-name="Grupo 25385" transform="translate(1.638 82.352)">
            <path id="Trazado_65749" data-name="Trazado 65749" d="M418.482,352.663c-.465.189-.564,1.084-.594,2.86-.024,1.345-.259,3.7,1.325,4.129s3.883.141,4.863-1.147c1.223-1.609,2.042-3.019,3.794-4.987,1.521-1.708,3.171-3.306,3.747-5.666.521-2.133.027-3.041-1.433-3.625-2.008-.8-5.069,2.037-6.618,2.508C422.232,347.139,418.946,352.475,418.482,352.663Z" transform="translate(-417.862 -344.084)" fill="#f5ca56"/>
          </g>
          <g id="Grupo_25386" data-name="Grupo 25386" transform="translate(2.22 88.362)">
            <path id="Trazado_65750" data-name="Trazado 65750" d="M427.047,352.559l.049,2.18a5.336,5.336,0,0,0,5.511.025c.091-.213.5-3.13.5-3.13Z" transform="translate(-427.047 -351.633)" fill="#12263f"/>
          </g>
          <g id="Grupo_25387" data-name="Grupo 25387" transform="translate(18.971 103.079)">
            <path id="Trazado_65751" data-name="Trazado 65751" d="M382.562,370.134a36.763,36.763,0,0,0-.882,3.574c-.238,1.323-.572,3.535-.088,4.515s2.3,1.579,5.088,1.5c1.806-.054,4.651,1.11,6.6,2.142,2.017,1.066,6.169,1.415,8.27,1.121,2.476-.347,5.015-1.845,5.394-2.882s-.179-2.093-6.085-4.454c-.054-.022-8.193-2.467-11.094-5.527Z" transform="translate(-381.344 -370.119)" fill="#f5ca56"/>
          </g>
          <g id="Grupo_25388" data-name="Grupo 25388" transform="translate(20.136 100.723)">
            <path id="Trazado_65752" data-name="Trazado 65752" d="M403.032,367.174s.044,1.618.057,2.542,1.136,2.277,3.959,2.113c1.983-.116,3.356-.681,3.241-2.313l-.053-2.356Z" transform="translate(-403.032 -367.16)" fill="#12263f"/>
          </g>
          <g id="Grupo_25389" data-name="Grupo 25389" transform="translate(0)">
            <path id="Trazado_65753" data-name="Trazado 65753" d="M395.521,301.037a59.2,59.2,0,0,1,2.317-11.409s-1-9.775-1.581-19.052c-.629-10.02-1.212-15.179.758-29.65,0,0,30.721-2.759,31.559,8.821s-.352,41.134-.619,46.235-1.047,9.626-1.913,17.9c-.855,8.17-3.333,27.476-3.333,27.476a7.644,7.644,0,0,1-7.2.014s-2.8-23.13-2.692-29.012a50.234,50.234,0,0,1,1.939-12.877s-.829-9.545-1.558-17.848-1.393-12.284-1.6-15.9l-.7-.33s-.387,14.361-.655,19.463-.968,10-2.228,19.5c-1.093,8.236-4.509,25.685-4.509,25.685-3.652,2.082-5.909-.129-5.909-.129S394.683,308.18,395.521,301.037Z" transform="translate(-395.369 -240.638)" fill="#12263f"/>
          </g>
          <g id="Grupo_25390" data-name="Grupo 25390" transform="translate(4.279 18.01)">
            <path id="Trazado_65754" data-name="Trazado 65754" d="M429.014,270.353s-7.937-3.692-11.945-7.092c0,0,3.764,5.058,8.6,7.229,0,0,2.1,17.782,2.088,17.429l.588-17.577Z" transform="translate(-417.069 -263.261)" fill="#12263f"/>
          </g>
        </g>
        <g id="Grupo_25405" data-name="Grupo 25405">
          <path id="Trazado_65755" data-name="Trazado 65755" d="M421.371,188.565l-1.2,10.607-10.017-.505,1.113-12.379Z" transform="translate(-396.054 -157.014)" fill="#ffa8a7"/>
          <g id="Grupo_25396" data-name="Grupo 25396" transform="translate(0 23.675)">
            <path id="Trazado_65756" data-name="Trazado 65756" d="M438.223,194.242c-3.729-.172-5.623.388-7.3,3.6s-2.331,12.828-2.914,17.784-.728,8.452,1.311,8.962,9.98.728,9.98.728Z" transform="translate(-427.632 -182.305)" fill="#d0a941"/>
            <path id="Trazado_65757" data-name="Trazado 65757" d="M395.71,199.728c.541-2.969,4.444-6.088,8.1-5.494q1.273.207,2.48.42c.439,1.784,5.329,2.9,10,1.8,1.408.369,6.044,1.237,7.216,1.626,3.358,1.115,4.744,4.419,5.266,15.369,0,0-.269,24.8-.138,29.735a40.393,40.393,0,0,1-21.823,2.649c-10.059-1.961-11.359-6.086-11.359-6.086l1.5-11.344S394.488,206.443,395.71,199.728Z" transform="translate(-391.413 -182.294)" fill="#f5ca56"/>
            <path id="Trazado_65758" data-name="Trazado 65758" d="M419.043,193.09l-.075.667a14.867,14.867,0,0,1-6.151,0c-3.254-.724-3.912-1.643-3.912-1.643l.068-.757s-.81-.3-1.236.947a13.551,13.551,0,0,0-.471,1.521s-.375,2.279,3.451,3.44a11.826,11.826,0,0,0,9.528-1.041l1.5.316s-1.3-2.991-1.69-3.6a1,1,0,0,0-.938-.52Z" transform="translate(-394.116 -181.716)" fill="#d0a941"/>
            <g id="Grupo_25393" data-name="Grupo 25393" transform="translate(46.021)">
              <path id="Trazado_65759" data-name="Trazado 65759" d="M355.834,179.255,375.7,189.62l-9.87,26.986L347.29,206.223Z" transform="translate(-347.29 -179.255)" fill="#12263f"/>
              <path id="Trazado_65760" data-name="Trazado 65760" d="M357.786,182.574l16.663,8.7-8.735,23.2-15.551-8.712Z" transform="translate(-348.331 -179.932)" fill="#f5f5f5"/>
              <path id="Trazado_65761" data-name="Trazado 65761" d="M355.592,185.45l.322-.826c.178-.456,1.565-.184,3.1.607l2.934,1.515c1.533.791,2.631,1.8,2.453,2.258l-.323.826Z" transform="translate(-342.621 -180.305)" opacity="0.15"/>
              <g id="Grupo_25392" data-name="Grupo 25392" transform="translate(12.777 1.583)">
                <path id="Trazado_65762" data-name="Trazado 65762" d="M353.681,181.5c.11-.285.713-.239,1.348.1l1.149.621s.709-1.783,3.351-.549,2.04,3.3,2.04,3.3l1.22.673c.673.371,1.153.907,1.072,1.2l-.149.525-10.232-5.339S353.57,181.788,353.681,181.5Z" transform="translate(-353.164 -181.244)" fill="#27debf"/>
                <path id="Trazado_65763" data-name="Trazado 65763" d="M356.231,182.973c.952.468,1.326.693,1.052,1.4-.313.8-.6,1.379-.6,1.379l4.526,2.368s.377-1.021.542-1.415.5-.582,1.216-.205l.268-.283-7.139-3.638Z" transform="translate(-354.61 -181.515)" fill="#27debf"/>
                <path id="Trazado_65764" data-name="Trazado 65764" d="M356.231,182.973c.952.468,1.326.693,1.052,1.4-.313.8-.6,1.379-.6,1.379l4.526,2.368s.377-1.021.542-1.415.5-.582,1.216-.205l.268-.283-7.139-3.638Z" transform="translate(-354.61 -181.515)" opacity="0.3"/>
                <path id="Trazado_65765" data-name="Trazado 65765" d="M355.836,185.5l.322-.826c.178-.455,1.565-.184,3.1.607l2.935,1.515c1.533.791,2.631,1.8,2.453,2.258l-.322.826Z" transform="translate(-355.836 -181.899)" fill="#27debf"/>
              </g>
            </g>
            <g id="Grupo_25395" data-name="Grupo 25395" transform="translate(29.497 15.787)">
              <g id="Grupo_25394" data-name="Grupo 25394">
                <path id="Trazado_65766" data-name="Trazado 65766" d="M375.083,199.085c4.586.4,6.539,1.235,9.981,7.442,3.736,6.737,10.918,18.929,11.828,20.469a8.165,8.165,0,0,1,.413,7.366c-1.021,1.837-4.262,2.678-7.936-1.473-4.369-4.935-12.5-16.988-12.5-16.988S369.967,206.792,375.083,199.085Z" transform="translate(-373.196 -199.085)" fill="#ffa8a7"/>
              </g>
            </g>
            <path id="Trazado_65767" data-name="Trazado 65767" d="M346.716,236.388c3.515-.427,11.724-11.565,14.059-15.2a25.953,25.953,0,0,1,7.112-7.5c3.721-2.749,3.18-6.972,1.556-10.843-.563-1.341-2.469-.468-2.469-.468l-.672,1.837-1.163,3.18c-.788.732-1.237.97-1.29.752-.1-.411.579-2.122.563-3.9-.02-2.145-1.522-.736-1.97.017a26.568,26.568,0,0,0-1.586,3.543c-.749,1.92-.439,3.864-1.352,5.172s-13.161,13.044-13.161,13.044Z" transform="translate(-295.508 -183.911)" fill="#ffa8a7"/>
            <path id="Trazado_65768" data-name="Trazado 65768" d="M364.678,198.783c2.778-.069,6.117.374,8.7,3.734s12.935,21.628,12.935,21.628l5.808-5.206a10.123,10.123,0,0,1,4.466,6.312,62.972,62.972,0,0,1-5.259,7.138c-2.454,2.694-5.194,4.562-7.438,3.734s-4.537-2.606-9.372-9.336-10.109-14.673-10.109-14.673S361.082,204.356,364.678,198.783Z" transform="translate(-334.303 -183.236)" fill="#d0a941"/>
          </g>
          <g id="Grupo_25397" data-name="Grupo 25397" transform="translate(32.109 18.566)">
            <path id="Trazado_65769" data-name="Trazado 65769" d="M398.481,172.837s2.5,3.794,2.216,4.168-2.126.708-2.126.708Z" transform="translate(-398.481 -172.837)" fill="#f28f8f"/>
          </g>
          <g id="Grupo_25398" data-name="Grupo 25398" transform="translate(28.002 15.044)">
            <path id="Trazado_65770" data-name="Trazado 65770" d="M402,174.373a2.98,2.98,0,1,0-2.98-2.98A2.983,2.983,0,0,0,402,174.373Zm0-5.3a2.317,2.317,0,1,1-2.317,2.317A2.32,2.32,0,0,1,402,169.075Z" transform="translate(-399.02 -168.413)" fill="#263238"/>
          </g>
          <g id="Grupo_25399" data-name="Grupo 25399" transform="translate(10.099 7.572)">
            <path id="Trazado_65771" data-name="Trazado 65771" d="M416.637,159.523c5.061,1.068,6.522,3.292,7,11.332.5,8.4-.36,11.041-1.463,12.172-.745.763-4.885.9-6.974.326-2.613-.72-8.521-2.814-11.288-7.04-3.254-4.972-4.109-11.709-.625-14.473C408.19,157.949,414.578,159.088,416.637,159.523Z" transform="translate(-401.042 -159.027)" fill="#ffa8a7"/>
          </g>
          <path id="Trazado_65772" data-name="Trazado 65772" d="M403.427,189.484l.235-1.548a10.015,10.015,0,0,0,5.189,1.176A12.544,12.544,0,0,1,403.427,189.484Z" transform="translate(-378.344 -157.35)" fill="#f28f8f"/>
          <path id="Trazado_65773" data-name="Trazado 65773" d="M408.368,171.374l-9,1.164.363.632,8.636-1.121Z" transform="translate(-374.648 -153.973)" fill="#263238"/>
          <g id="Grupo_25404" data-name="Grupo 25404" transform="translate(5.532)">
            <g id="Grupo_25401" data-name="Grupo 25401">
              <g id="Grupo_25400" data-name="Grupo 25400">
                <path id="Trazado_65774" data-name="Trazado 65774" d="M425.629,160.828a2.822,2.822,0,0,1-1.142-.069,1.8,1.8,0,0,1-.617,2.11,2.547,2.547,0,0,1-2.27.3,2.192,2.192,0,0,1,.248,1.564,2.537,2.537,0,0,1-2.621,1.892c-.053,1.176-.068,2.326-1.324,2.862,0,0-.8-3.1-3.417-2.715-2.634.393-2.99,3.75-1.33,5.791s3.188,1.268,3.207,1.258c-.153.077-.205,1.067-.259,1.255a9.09,9.09,0,0,1-.673,1.7,8.11,8.11,0,0,1-2.368,2.777,5.832,5.832,0,0,1-4.749,1.321,5.112,5.112,0,0,1-3.46-2.784,2.983,2.983,0,0,0-.564-1.005,3.3,3.3,0,0,0-1.29-.559,3.79,3.79,0,0,1-2.142-5.347,3.473,3.473,0,0,1-1.33-6.067,4.168,4.168,0,0,1-1.792-4.522,4.235,4.235,0,0,1,2.992-2.868c1.022-.3.629-.456.945-1.457a3.668,3.668,0,0,1,4.661-2.405,3.536,3.536,0,0,1,2.527-2.719,3.5,3.5,0,0,1,1.787-.069c.42.109,1.283.5,1.441.9.532-.523.7-1.214,1.356-1.691a3.837,3.837,0,0,1,5.65,1.208A4.713,4.713,0,0,1,422.629,150a3.864,3.864,0,0,1,3.222,1.968,3.282,3.282,0,0,1-.434,3.68,3.765,3.765,0,0,1,1.954,1.692,2.37,2.37,0,0,1-.276,2.641,2.047,2.047,0,0,1-.988.736A3,3,0,0,1,425.629,160.828Z" transform="translate(-397.604 -149.516)" fill="#00223d"/>
              </g>
            </g>
            <g id="Grupo_25403" data-name="Grupo 25403" transform="translate(20.26 18.228)">
              <g id="Grupo_25402" data-name="Grupo 25402">
                <path id="Trazado_65775" data-name="Trazado 65775" d="M407.72,175.928l-.093-3.515a1.758,1.758,0,0,1,.093,3.515Z" transform="translate(-407.627 -172.412)" fill="#263238"/>
              </g>
            </g>
          </g>
        </g>
      </g>
    </g>
  </g>
</svg>
