<svg xmlns="http://www.w3.org/2000/svg" width="280.724" height="226.79" viewBox="0 0 280.724 226.79"><g transform="translate(-1328.082 -309.288)"><g transform="translate(1328.082 309.288)"><path d="M2118.823,429.108c4.985,0,9.289,3.391,11.308,8.3a14.615,14.615,0,0,1,18.227,14.151v.04c8.279.6,14.822,7.963,14.822,16.961a17.79,17.79,0,0,1-2.35,8.895,14.6,14.6,0,0,1,3.041,23.055c2.741,3.788,4.4,9.384,4.451,15.678l25.673,19.144-28.581-4.436c-2.143,4.909-5.287,8.63-8.825,10.377.035.461.054.926.054,1.4,0,9.24-6.9,16.759-15.494,17-2.344,7.627-9.061,13.135-16.984,13.135-9.871,0-17.873-8.551-17.873-19.1V443.712C2106.291,435.647,2111.9,429.108,2118.823,429.108Z" transform="translate(-1961.44 -406.806)" fill="#7d6eb2"/><g transform="translate(0 55.88)"><path d="M1414.226,637.368l.518-.518L1387.4,609.5h-59.315v.733h59.011Z" transform="translate(-1328.082 -609.503)" fill="#f5ca56"/></g><g transform="translate(74.776 30.288)"><path d="M1766.93,487.456l.518-.518-14.929-14.929h-22.705v.733h22.4Z" transform="translate(-1729.813 -472.01)" fill="#f5ca56"/></g><g transform="translate(39.171 111.972)"><path d="M1582.7,922.672l.518-.519-11.3-11.3h-33.391v.733h33.088Z" transform="translate(-1538.526 -910.855)" fill="#f5ca56"/></g><g transform="translate(27.644 136.483)"><path d="M1476.6,1064.841h44.657l21.783-21.784-.518-.517-21.569,21.568H1476.6Z" transform="translate(-1476.601 -1042.54)" fill="#f5ca56"/></g><path d="M1613.331,657.369h1.349l-1.349-2.8h-1.35Z" transform="translate(-1559.137 -590.301)" fill="#f5ca56"/><path d="M1574.027,656.653h6.992l-1-2.083h-6.991Z" transform="translate(-1527.431 -590.301)" fill="#f5ca56"/><path d="M1996.21,1264.236h.821l-2.5-5.062h-.821Z" transform="translate(-1869.811 -1082.368)" fill="#00223d"/><rect width="28.66" height="0.6" transform="translate(53.034 67.774) rotate(180)" fill="#f5ca56"/><rect width="39.735" height="0.629" transform="translate(152.805 182.033) rotate(180)" fill="#00223d"/><rect width="21.226" height="3.644" transform="translate(152.805 187.09) rotate(180)" fill="#00223d"/><g transform="translate(104.731 2.743)"><path d="M2230.33,324.026v.471l1.2,0,0,1.2H2232l0-1.672Zm.025,14.786v.471l1.671,0,0-1.672h-.472l0,1.2Z" transform="translate(-2167.122 -324.023)" fill="#12263f"/><path d="M1890.746,324.148l0,1.673h.47v-1.2l1.2,0v-.471Zm.023,13.585,0,1.673,1.673,0v-.471l-1.2,0,0-1.2Z" transform="translate(-1890.746 -324.122)" fill="#12263f"/></g><rect width="15.015" height="1.052" transform="translate(234.48 44.204) rotate(180)" fill="#00223d"/><rect width="15.015" height="4.425" transform="translate(234.48 49.56) rotate(180)" fill="#00223d"/><rect width="8.858" height="0.661" transform="translate(221.27 51.709) rotate(180)" fill="#00223d"/><rect width="8.858" height="1.791" transform="translate(221.27 53.789) rotate(180)" fill="#00223d"/><rect width="0.661" height="12.398" transform="translate(219.796 49.56) rotate(180)" fill="#00223d"/><rect width="11.06" height="2.003" transform="translate(127.22 176.806) rotate(180)" fill="#00223d"/><rect width="11.06" height="0.376" transform="translate(127.22 174.244) rotate(180)" fill="#00223d"/><rect width="19.34" height="2.418" transform="translate(242.224 93.25) rotate(180)" fill="#00223d"/><rect width="1.593" height="2.418" transform="translate(221.015 93.25) rotate(180)" fill="#00223d"/><path d="M1752.57,500.511a14.606,14.606,0,0,1,3.04-23.055,17.792,17.792,0,0,1-2.349-8.895c0-9,6.542-16.363,14.822-16.961,0-.014,0-.027,0-.04a14.615,14.615,0,0,1,18.227-14.151c2.019-4.91,6.324-8.3,11.308-8.3,6.922,0,12.534,6.539,12.534,14.6V553.7c0,10.547-8,19.1-17.874,19.1-7.922,0-14.64-5.508-16.983-13.136-8.594-.236-15.494-7.755-15.494-16.995q0-.707.053-1.4c-5.76-2.844-10.478-10.914-11.526-20.827C1747.484,512.454,1749.225,505.135,1752.57,500.511Z" transform="translate(-1669.935 -406.806)" fill="#f5ca56"/><g transform="translate(105.853 126.779)"><path d="M1896.922,1013.069l.863-.169-.431.085.431-.084c-.008-.042-.779-4.194,1.7-7.206,1.762-2.137,4.727-3.22,8.815-3.22,4.215,0,7.237-1.169,8.982-3.478,2.673-3.536,1.34-8.388,1.282-8.593l-.845.24c.013.046,1.269,4.645-1.141,7.827-1.571,2.073-4.356,3.124-8.278,3.124-4.368,0-7.563,1.193-9.5,3.547A10.344,10.344,0,0,0,1896.922,1013.069Z" transform="translate(-1896.777 -990.404)" fill="#fff"/></g><g transform="translate(88.884 101.079)"><path d="M1834.1,884.549c.014-.279.3-6.861-4.089-11.486-2.719-2.863-6.621-4.315-11.6-4.315-4.387,0-7.615-1.284-9.595-3.816-3.694-4.724-1.866-12.311-1.847-12.387l-.853-.213c-.082.327-1.952,8.073,2,13.137,2.154,2.758,5.616,4.157,10.29,4.157,4.724,0,8.409,1.357,10.955,4.035,4.132,4.346,3.857,10.777,3.854,10.841Z" transform="translate(-1805.611 -852.333)" fill="#fff"/></g><g transform="translate(93.708 75.48)"><path d="M1838.1,747.939a15.8,15.8,0,0,0,9.589-2.771c3.228-2.449,4.863-6.449,4.863-11.888,0-5.7,1.63-10.127,4.846-13.153,5.136-4.832,12.634-4.435,12.709-4.43l.053-.878c-.322-.019-7.955-.423-13.365,4.667-3.4,3.2-5.123,7.839-5.123,13.793,0,5.15-1.519,8.914-4.515,11.188-5.8,4.4-15.3,1.821-15.392,1.794l-.236.847A26.7,26.7,0,0,0,1838.1,747.939Z" transform="translate(-1831.526 -714.805)" fill="#fff"/></g><g transform="translate(97.437 49.192)"><path d="M1876.73,598.784l.875-.095a18.383,18.383,0,0,0-2.072-6.265,11.539,11.539,0,0,0-10.563-6.325c-11.039,0-12.527-6.332-12.527-12.527h-.879c0,4.227.794,7.2,2.5,9.351,2.16,2.729,5.728,4.056,10.907,4.056a10.571,10.571,0,0,1,9.78,5.848A17.787,17.787,0,0,1,1876.73,598.784Z" transform="translate(-1851.563 -573.573)" fill="#fff"/></g><g transform="translate(89.27 70.404)"><path d="M1822.4,706.017c-2.078-1.745-3.131-4.479-3.131-8.127,0-3.192-.94-5.622-2.793-7.225-3.338-2.888-8.6-2.167-8.666-2.156l-.128-.87c.232-.034,5.712-.8,9.364,2.358,2.058,1.778,3.1,4.433,3.1,7.894,0,3.373.947,5.88,2.813,7.45,3.014,2.536,7.481,1.8,7.526,1.788l.152.866a11.025,11.025,0,0,1-1.763.128A10.093,10.093,0,0,1,1822.4,706.017Zm-14.655-17.944.064.435h0Z" transform="translate(-1807.684 -687.533)" fill="#fff"/></g><g transform="translate(116.506 32.848)"><path d="M1954.547,514.042c.9,0,6.788-.137,10.353-3.638a9.093,9.093,0,0,0,2.66-6.76c0-5.318-3.305-7.3-6.5-9.209-3.174-1.9-6.172-3.694-6.172-8.673h-.88c0,5.478,3.355,7.486,6.6,9.427,3.123,1.869,6.073,3.635,6.073,8.455a8.246,8.246,0,0,1-2.4,6.132c-3.525,3.461-9.766,3.388-9.828,3.386l-.017.879Z" transform="translate(-1954.008 -485.763)" fill="#fff"/></g><g transform="translate(116.506 95.67)"><path d="M1971.942,842.856h.88c0-3.391-.94-11.276-9.647-11.276a7.432,7.432,0,0,1-7.083-4.1,11.306,11.306,0,0,1-1.2-4.2l-.878.04a11.976,11.976,0,0,0,1.289,4.546,8.333,8.333,0,0,0,7.875,4.6C1970.8,832.459,1971.942,838.973,1971.942,842.856Z" transform="translate(-1954.011 -823.276)" fill="#fff"/></g><g transform="translate(157.041 126.779)"><path d="M2193.811,1013.069c.036-.185.863-4.589-1.882-7.927-1.936-2.353-5.132-3.547-9.5-3.547-3.922,0-6.708-1.051-8.277-3.124-2.41-3.182-1.155-7.782-1.141-7.828l-.846-.239c-.058.2-1.391,5.057,1.282,8.593,1.745,2.309,4.767,3.478,8.982,3.478,4.092,0,7.06,1.086,8.82,3.226,2.485,3.021,1.707,7.158,1.7,7.2Z" transform="translate(-2171.781 -990.404)" fill="#fff"/></g><g transform="translate(167.681 101.079)"><path d="M2228.954,884.549l.877-.045c0-.064-.278-6.5,3.854-10.841,2.545-2.677,6.231-4.035,10.955-4.035,4.673,0,8.135-1.4,10.289-4.157,3.957-5.065,2.086-12.811,2-13.137l-.854.213c.019.076,1.848,7.663-1.845,12.387-1.98,2.532-5.209,3.816-9.595,3.816-4.978,0-8.88,1.452-11.6,4.315C2228.651,877.688,2228.939,884.27,2228.954,884.549Z" transform="translate(-2228.945 -852.333)" fill="#fff"/></g><g transform="translate(152.728 75.48)"><path d="M2180.672,747.939a26.7,26.7,0,0,0,6.571-.829l-.237-.847c-.1.026-9.6,2.6-15.394-1.8-2.995-2.274-4.513-6.038-4.513-11.186,0-5.954-1.724-10.595-5.123-13.793-5.409-5.09-13.043-4.687-13.365-4.667l.053.878c.075,0,7.587-.395,12.715,4.436,3.212,3.025,4.841,7.448,4.841,13.147,0,5.44,1.636,9.44,4.862,11.888A15.8,15.8,0,0,0,2180.672,747.939Z" transform="translate(-2148.611 -714.805)" fill="#fff"/></g><g transform="translate(161.59 49.192)"><path d="M2197.094,598.784a17.819,17.819,0,0,1,1.98-5.957,10.571,10.571,0,0,1,9.781-5.848c5.179,0,8.747-1.327,10.907-4.056,1.7-2.153,2.5-5.124,2.5-9.351h-.879c0,6.195-1.489,12.527-12.527,12.527a11.539,11.539,0,0,0-10.562,6.325,18.333,18.333,0,0,0-2.072,6.265Z" transform="translate(-2196.22 -573.573)" fill="#fff"/></g><g transform="translate(172.841 70.404)"><path d="M2258.43,708.121a10.093,10.093,0,0,0,6.474-2.1c2.078-1.745,3.131-4.479,3.131-8.127,0-3.193.941-5.626,2.8-7.229,3.352-2.894,8.61-2.161,8.663-2.153l.128-.87c-.233-.034-5.712-.8-9.364,2.358-2.058,1.778-3.1,4.434-3.1,7.894,0,3.376-.948,5.884-2.818,7.454-3.022,2.537-7.477,1.791-7.521,1.783l-.152.866A11.071,11.071,0,0,0,2258.43,708.121Z" transform="translate(-2256.666 -687.532)" fill="#fff"/></g><g transform="translate(155.009 32.848)"><path d="M2173.879,514.042h.107l-.016-.879c-.062,0-6.314.069-9.832-3.389a8.25,8.25,0,0,1-2.394-6.129c0-4.82,2.95-6.585,6.073-8.455,3.244-1.941,6.6-3.949,6.6-9.427h-.879c0,4.979-3,6.773-6.173,8.673-3.2,1.913-6.5,3.89-6.5,9.209a9.1,9.1,0,0,0,2.66,6.76C2167.091,513.906,2172.981,514.042,2173.879,514.042Z" transform="translate(-2160.865 -485.763)" fill="#fff"/></g><g transform="translate(149.751 95.67)"><path d="M2132.616,842.856h.879c0-3.883,1.139-10.4,8.768-10.4a8.336,8.336,0,0,0,7.875-4.6,12,12,0,0,0,1.288-4.546l-.878-.04h0a11.314,11.314,0,0,1-1.2,4.2,7.43,7.43,0,0,1-7.082,4.1C2133.556,831.58,2132.616,839.466,2132.616,842.856Z" transform="translate(-2132.616 -823.276)" fill="#fff"/></g><g transform="translate(179.755 124.817)"><path d="M2452.242,1216.654a16.7,16.7,0,0,1-1.914.28c-.619.02-3.483-1.279-4.4-1.155a66.782,66.782,0,0,0-7.164,2.848c-.271.184.127.593.127.593l13.72.163Z" transform="translate(-2411.708 -1171.861)" fill="#dba585"/><rect width="22.822" height="2.09" transform="translate(45.157 49.503) rotate(-179.566)" fill="#12263f"/><rect width="22.821" height="2.091" transform="matrix(-0.292, -0.956, 0.956, -0.292, 22.328, 49.33)" fill="#12263f"/><g transform="translate(64.009 89.39)"><path d="M2637.7,1462.284l.881,1.9s3.707-1.382,3.725-1.428-1.021-2.645-1.021-2.645Z" transform="translate(-2637.703 -1460.115)" fill="#525368"/></g><g transform="translate(31.233 91.518)"><path d="M2462.641,1471.547l-1.026,3s4.068.9,4.659.849c.052,0,.769-3.395.769-3.395Z" transform="translate(-2461.615 -1471.547)" fill="#6a6b87"/></g><path d="M2422.71,1480.344s-2.843-.772-2.928-.9a2.937,2.937,0,0,0-1.665-.737c-.538.09-.586.732-1.123.864s-4.692,1.46-5.268,1.8-3.324-.661-3.853.052-1.043,2.583,3.275,3.23,8.942,2.574,9.976,2.312S2422.867,1481.495,2422.71,1480.344Z" transform="translate(-2386.362 -1385.853)" fill="#f5ca56"/><path d="M2613.844,1471.6s-2.635,1.125-2.774,1.082a2.858,2.858,0,0,0-1.715.441c-.355.393-.005.913-.336,1.336s-2.209,2.911-2.759,3.484c-.45.469-2.916.908-3.707,1.735-.6.622.1,3.114,4.3,1.923,4.085-1.159,9.144-3.168,9.774-3.992S2614.658,1472.379,2613.844,1471.6Z" transform="translate(-2544.937 -1380.069)" fill="#f5ca56"/><g transform="translate(43.691 48.045)"><path d="M2551.057,1244.109s-11.59,5.154-14.045,6.916-7.833,5.007-8.012,5.8-1.243.021.664,3.987,10.922,13.516,11.768,14.554c.881,1.083,7.135,7.567,7.135,7.567l4.7-3.543s-9.044-13.3-10.354-15.254-1.9-2.245-1.124-3.108,3.866-.85,19.783-7.444c1.591-.659,6.028-2.185,6.614-4.32,1.057-3.86.15-8.75-4.128-10.9S2551.057,1244.109,2551.057,1244.109Z" transform="translate(-2528.542 -1237.991)" fill="#6756a0"/></g><g transform="translate(60.641 15.299)"><path d="M2619.662,1063.62a1.684,1.684,0,0,1,.328.557,13.4,13.4,0,0,1,.513,1.523c.526,1.838,1,4.2,1,4.2s6.633-5.526,5.7-5.874-1.632-1.962-1.632-1.962S2618.963,1063,2619.662,1063.62Z" transform="translate(-2619.61 -1062.061)" fill="#dba585"/></g><g transform="translate(61.107 35.948)"><path d="M2622.112,1173s5.383,10.294,5.616,14.152,11.238-1.215,11.238-1.215Z" transform="translate(-2622.112 -1172.999)" fill="#e7dac4"/></g><g transform="translate(66.387 49.103)"><path d="M2650.792,1244.422l-.124.959-.192,1.266h0c.165-.01,10.746-.676,11.513-.48s-1.457-2.5-1.457-2.5Z" transform="translate(-2650.476 -1243.671)" fill="#363957"/></g><g transform="translate(31.233 51.506)"><path d="M2496.768,1257.157s-11.973,2.818-14.933,3.764a86.092,86.092,0,0,0-9.423,3.392c-.727.416-1.837,1.036-3.168,5.363-1.507,4.9-4.948,18.7-5.729,20.847-.49,1.349-1.9,6.658-1.9,6.658l6.118,1.061s7.286-14.67,7.878-18.579c.994-6.582,3.546-6.618,4.577-7.217s5.994.526,23.653-.883c1.765-.141,6.59-.228,7.838-2.132,2.257-3.441,4.534-7.349,1.03-10.808S2496.768,1257.157,2496.768,1257.157Z" transform="translate(-2461.615 -1256.584)" fill="#7d6eb2"/></g><g transform="translate(54.975 2.052)"><path d="M2592.547,991.84s-2.072,3.579-1.6,4.553-2.164,3.334-1.732,3.833,1.325,1.105,1.31,1.251.767,4.81,1.783,4.914,7.969-.256,8.546-2.431,2.272-6.937,2.671-7.822S2599.917,988.423,2592.547,991.84Z" transform="translate(-2589.167 -990.89)" fill="#dba585"/></g><g transform="translate(57.697)"><path d="M2613.02,982.178a7.732,7.732,0,0,1,1.42,1.35c.456.214,3.145,1.549,2.585,2.993-.751,1.942-3.791,7.145-4.047,7.688-.035.073-.035-.064-.009-.356-.187-1.836-2.448-3.9-2.448-3.9l-1.207-.545a3.537,3.537,0,0,0,.381-2.264c-1.366-1.463-5.9-3.04-5.9-3.04C2604.438,977.635,2609.978,979.922,2613.02,982.178Z" transform="translate(-2603.791 -979.868)" fill="#00223d"/></g><g transform="translate(63.757 8.296)"><path d="M2637.463,1024.706a1.074,1.074,0,0,1,1.767,1.035c-.247,1.444-2.324,2.6-2.776,1.959S2637.121,1025.228,2637.463,1024.706Z" transform="translate(-2636.347 -1024.436)" fill="#dba585"/></g><path d="M2623.366,1072.606s8.4,4.9,10.3,13.444,5.324,23.561,5.385,25.339c0,0-11.369-5.472-17.528-3.967,0,0-3.877-13.93-5.917-17.221s.992-11.025.992-11.025S2619.494,1074.536,2623.366,1072.606Z" transform="translate(-2555.134 -1055.344)" fill="#f5ca56"/><path d="M2627.536,1089.4l-6.77,19.854a1.81,1.81,0,0,0-.093.467l-1.623,26.107-28.307.631-8.248,30.025a3.155,3.155,0,0,0,.456,2.657,2.3,2.3,0,0,0,1.59,1.046c1.795.22,38.135,0,38.135,0v-1.5a1.369,1.369,0,0,0-1.384-1.355H2587.32a1.838,1.838,0,0,1-1.443-.678,1.2,1.2,0,0,1-.289-.929c.15-.957,7.4-25.42,7.4-25.42l27.371-.485a2.333,2.333,0,0,0,2.31-2.211l1.189-28.09a2.215,2.215,0,0,1,.087-.527l5.533-18.981s.579-1.324-.486-1.452A1.183,1.183,0,0,0,2627.536,1089.4Z" transform="translate(-2528.668 -1068.315)" fill="#727997"/><path d="M2626.5,1337.377s-.021-2.167,2.95-2.319c3.411-.174,25.6-.328,25.6-.328l-.148,2.306Z" transform="translate(-2564.573 -1268.679)" fill="#b0c0d2"/><path d="M2342.033,1246.545v1.011h-48.219v-1.011a1.582,1.582,0,0,1,1.416-1.707h45.388A1.583,1.583,0,0,1,2342.033,1246.545Z" transform="translate(-2293.814 -1195.518)" fill="#727997"/><path d="M0,0H12.241a2.331,2.331,0,0,1,2.331,2.331v0a0,0,0,0,1,0,0H0a0,0,0,0,1,0,0V0A0,0,0,0,1,0,0Z" transform="translate(2.732 99.033)" fill="#727997"/><rect width="1.926" height="49.326" transform="translate(3.658 52.039)" fill="#727997"/><rect width="1.926" height="49.326" transform="translate(7.527 52.039)" fill="#727997"/><path d="M2621.648,1070.4a13.523,13.523,0,0,1,.513,1.523,15.889,15.889,0,0,0,2.945-2.215A27.713,27.713,0,0,1,2621.648,1070.4Z" transform="translate(-2560.627 -1052.99)" fill="#997761"/><path d="M2321.574,1247.557h-27.76v-1.011a1.6,1.6,0,0,1,1.457-1.707h21.956Z" transform="translate(-2293.814 -1195.518)" fill="#727997"/><g transform="translate(38.408 21.106)"><path d="M2526.3,1096.034s-2,2.835-3.237,4.982c-1.4,2.434-2.78,4.837-3.084,5.377-.619,1.1-2.82,1.687-3.794,2.1-.9.385-15.817,8.371-16.007,8.354a24.125,24.125,0,0,0,1.607,2.976s20.72-5.942,21.651-6.792a71.568,71.568,0,0,0,4.826-6.321c1.078-1.52,2.73-4.014,3.606-5.088.98-1.2,3.035-5.312.422-7.362C2528.95,1091.644,2527.1,1094.831,2526.3,1096.034Z" transform="translate(-2500.163 -1093.258)" fill="#f5ca56"/></g><path d="M2637.7,1137.443s-2.4,6.5-3.838,8.715a42.348,42.348,0,0,1-3.032,4.058l-.767-2.243S2636.27,1139.443,2637.7,1137.443Z" transform="translate(-2567.479 -1108.113)" fill="#c29c52"/></g><g transform="translate(5.293 12.582)"><g transform="translate(19.887 24.112)"><rect width="5.21" height="15.823" fill="#12263f"/></g><rect width="44.984" height="31.734" rx="2" fill="#12263f"/><g transform="translate(1.762 1.811)"><rect width="41.461" height="24.951" fill="#fff"/></g><g transform="translate(21.041 27.586)"><path d="M1472.466,526.539a1.451,1.451,0,1,1-1.451-1.451A1.451,1.451,0,0,1,1472.466,526.539Z" transform="translate(-1469.564 -525.088)" fill="#747474"/></g><rect width="23.437" height="1.194" transform="translate(34.211 40.532) rotate(180)" fill="#12263f"/><rect width="13.325" height="15.405" transform="translate(41.023 24.788) rotate(180)" fill="#f6f6f6"/><rect width="13.73" height="1.92" transform="translate(25.637 11.303) rotate(180)" fill="#f6f6f6"/><rect width="13.73" height="1.92" transform="translate(25.637 15.246) rotate(180)" fill="#f6f6f6"/><rect width="13.73" height="7.921" transform="translate(25.637 24.788) rotate(180)" fill="#f6f6f6"/><rect width="5.825" height="15.843" transform="translate(9.968 24.788) rotate(180)" fill="#f6f6f6"/><rect width="36.88" height="3.956" transform="translate(41.158 7.688) rotate(180)" fill="#f6f6f6"/></g><g transform="translate(42.806 77.107)"><rect width="22.839" height="32.287" rx="2" transform="translate(22.839 32.287) rotate(180)" fill="#12263f"/><rect width="20.315" height="26.498" transform="translate(21.577 27.99) rotate(180)" fill="#fff"/><path d="M1614.439,885.2a.965.965,0,1,0,.965-.965A.965.965,0,0,0,1614.439,885.2Z" transform="translate(-1603.944 -854.322)" fill="#f6f6f6"/><rect width="17.681" height="3.527" transform="translate(20.308 6.925) rotate(180)" fill="#f6f6f6"/><rect width="7.278" height="17.29" transform="translate(20.308 25.583) rotate(180)" fill="#f6f6f6"/><rect width="9.051" height="2.003" transform="translate(11.679 10.296) rotate(180)" fill="#f6f6f6"/><rect width="9.051" height="2.003" transform="translate(11.679 13.757) rotate(180)" fill="#f6f6f6"/><rect width="9.051" height="2.003" transform="translate(11.679 17.218) rotate(180)" fill="#f6f6f6"/><rect width="9.051" height="6.906" transform="translate(11.679 25.583) rotate(180)" fill="#f6f6f6"/></g><g transform="translate(30.071 129.412)"><rect width="35.603" height="24.175" rx="2" transform="translate(37.32 24.175) rotate(180)" fill="#12263f"/><rect width="33.617" height="21.602" transform="translate(36.327 22.888) rotate(180)" fill="#fff"/><path d="M1.776,0H37.261a1.776,1.776,0,0,1,1.776,1.776v0a0,0,0,0,1,0,0H0a0,0,0,0,1,0,0v0A1.776,1.776,0,0,1,1.776,0Z" transform="translate(39.037 25.951) rotate(180)" fill="#12263f"/><rect width="5.557" height="0.384" transform="translate(22.297 25.255) rotate(180)" fill="#f6f6f6"/><rect width="30.77" height="3.003" transform="translate(34.886 5.86) rotate(180)" fill="#f6f6f6"/><rect width="10.55" height="13.762" transform="translate(34.886 21.318) rotate(180)" fill="#f6f6f6"/><rect width="10.55" height="13.762" transform="translate(22.985 21.318) rotate(180)" fill="#f6f6f6"/><rect width="6.434" height="1.966" transform="translate(10.55 9.523) rotate(180)" fill="#f6f6f6"/><rect width="6.434" height="1.966" transform="translate(10.55 12.563) rotate(180)" fill="#f6f6f6"/><rect width="6.434" height="7.682" transform="translate(10.55 21.318) rotate(180)" fill="#f6f6f6"/></g><path d="M2152.527,376.444h5.24l-1.6-3.326h-5.24Z" transform="translate(-1997.765 -361.237)" fill="#00223d"/><path d="M2139.354,376.444h1.248l-1.6-3.326h-1.249Z" transform="translate(-1987.044 -361.237)" fill="#00223d"/><path d="M2046.03,362.435h21.217l-.7-1.663h-21.217Z" transform="translate(-1911.823 -351.189)" fill="#00223d"/><g transform="translate(77.045)"><path d="M1743.706,336.178l11.248.047a1.706,1.706,0,0,0,1.714-1.7l.1-23.477a1.707,1.707,0,0,0-1.7-1.714l-11.249-.047a1.707,1.707,0,0,0-1.714,1.7l-.1,23.477A1.706,1.706,0,0,0,1743.706,336.178Z" transform="translate(-1742.006 -309.288)" fill="#12263f"/><path d="M1750.378,340.774l8.979.038a1.6,1.6,0,0,0,1.6-1.588l.075-17.747a1.594,1.594,0,0,0-1.588-1.6l-8.979-.038a1.6,1.6,0,0,0-1.6,1.588l-.075,17.747A1.6,1.6,0,0,0,1750.378,340.774Z" transform="translate(-1747.527 -317.873)" fill="#fff"/><path d="M1772.59,314.084l3.1.013a.229.229,0,0,1,.229.231h0a.231.231,0,0,1-.231.229l-3.105-.013a.23.23,0,0,1-.229-.231h0A.23.23,0,0,1,1772.59,314.084Z" transform="translate(-1766.709 -313.191)" fill="#f6f6f6"/><path d="M1776.061,437.891a.994.994,0,1,0,1-.99A1,1,0,0,0,1776.061,437.891Z" transform="translate(-1769.722 -413.148)" fill="#f6f6f6"/><rect width="9.329" height="3.761" transform="translate(12.091 7.043) rotate(180)" fill="#f6f6f6"/><rect width="9.329" height="1.563" transform="translate(12.091 9.583) rotate(180)" fill="#f6f6f6"/><rect width="9.329" height="1.563" transform="translate(12.091 12.122) rotate(180)" fill="#f6f6f6"/><rect width="9.329" height="8.352" transform="translate(12.091 21.451) rotate(180)" fill="#f6f6f6"/></g></g></g></svg>