<svg xmlns="http://www.w3.org/2000/svg" xmlns:xlink="http://www.w3.org/1999/xlink" width="308.125" height="201.209" viewBox="0 0 308.125 201.209"><defs><linearGradient id="a" x1="0.5" x2="0.5" y2="1" gradientUnits="objectBoundingBox"><stop offset="0" stop-color="#fff"/><stop offset="1" stop-color="#f1f7fa"/></linearGradient><linearGradient id="b" x1="0.5" x2="0.5" y2="1" gradientUnits="objectBoundingBox"><stop offset="0" stop-color="#fff"/><stop offset="1" stop-color="#d3d3d3"/></linearGradient></defs><g transform="translate(-35.849 -90.246)"><g transform="translate(35.849 101.068)"><path d="M260.744,140.806c-20.172-6.416-43.977-9.472-65.106-10.513a192.414,192.414,0,0,0-109.9,28.345C68.23,169.47,52.118,183.633,42.966,202.074,20,248.35,56.1,290.762,101.384,299.775c22.837,4.545,46.393,2.65,69.631,1.178,30.2-1.913,60.516-3.079,90.7-1.017,11.514.786,23.223,2.029,34.488-.479,26.379-5.873,44.854-32.271,47.41-59.173a83.952,83.952,0,0,0-20.188-62.474A96.672,96.672,0,0,0,301.1,159.334,183.562,183.562,0,0,0,260.744,140.806Z" transform="translate(-35.849 -112.242)" fill="url(#a)"/><g transform="translate(189.258 51.012)"><g transform="translate(64.589)"><path d="M394.73,191.93l-5.493,3.737,8.544,2.265v7.222l4.17-5.086,9.46,2.405,9.358-20.714Z" transform="translate(-388.853 -177.757)" fill="#a7a9ac" style="mix-blend-mode:multiply;isolation:isolate"/><path d="M399.832,201.091V207.9l5.841-6.182Z" transform="translate(-391.826 -183.182)" fill="#fff"/><path d="M401.868,194.73l23-18.533L413.907,197.82Z" transform="translate(-392.397 -176.197)" fill="#fff"/><path d="M421.176,176.2l-32.472,14.5,9.471,4.035Z" transform="translate(-388.703 -176.197)" fill="#fff"/><path d="M401.3,194.73l-1.465-.624L424.3,176.2Z" transform="translate(-391.826 -176.197)" fill="#19365a"/></g><path d="M370,214.485c-6.878,6.142-16.5,8.444-25.72,8.295a28.693,28.693,0,0,1-11.747-2.281,11.321,11.321,0,0,1-4.807-3.872,6.3,6.3,0,0,1-.655-5.953,4.417,4.417,0,0,1,5.157-2.445c2.118.724,3.149,3.328,2.7,5.521a9.734,9.734,0,0,1-3.795,5.373,25.84,25.84,0,0,1-15.738,5.129,48.453,48.453,0,0,1-16.474-3.139" transform="translate(-298.923 -185.132)" fill="none" stroke="#00223d" stroke-linecap="round" stroke-linejoin="round" stroke-width="0.85" stroke-dasharray="2.835"/></g><path d="M160.986,199.09a6.276,6.276,0,0,0,2.332-.36,4.27,4.27,0,0,0,1.414-1.055,6.663,6.663,0,1,0-11.455-5.666,3.183,3.183,0,0,0-5.967-.64c-.859-3.266-2.324-6.514-4.935-8.656s-6.561-2.9-9.419-1.1c-3.623,2.281-4.1,7.323-3.817,11.595-.187-2.828-5.8.232-6.351,1.623-2.3-1.688-6.667.124-4.575,2.929,1.761,2.361,7.839,1.91,10.326,1.9C139.355,199.628,150.175,199.372,160.986,199.09Z" transform="translate(-58.805 -126.423)" fill="#fff"/><path d="M364.3,123.772a6.271,6.271,0,0,0,2.332-.36,4.273,4.273,0,0,0,1.415-1.055,6.663,6.663,0,1,0-11.455-5.666,3.184,3.184,0,0,0-5.968-.64c-.858-3.266-2.324-6.514-4.934-8.656s-6.562-2.9-9.42-1.1c-3.623,2.281-4.1,7.323-3.817,11.595-.186-2.828-5.8.232-6.351,1.623-2.3-1.688-6.666.124-4.574,2.929,1.761,2.361,7.839,1.91,10.326,1.9C342.67,124.31,353.49,124.054,364.3,123.772Z" transform="translate(-115.853 -105.289)" fill="#eff4ef"/></g><g transform="translate(56.581 190.917)"><g transform="translate(136.921 35.894)"><path d="M8.061,0h6.809a8.061,8.061,0,0,1,8.061,8.061V33.534a0,0,0,0,1,0,0H0a0,0,0,0,1,0,0V8.061A8.061,8.061,0,0,1,8.061,0Z" transform="translate(25.345 26.629) rotate(6.242)" fill="#00223d"/><path d="M274.2,308.76a13.282,13.282,0,0,1-5.78-3.541c-3.793-3.852-5.568-9.724-5.275-17.453,0-.009,0-.017,0-.024a54.434,54.434,0,0,0-8.076-.288c-.491,12.908,4.043,20.144,8,23.941a20.68,20.68,0,0,0,9.461,5.349,4.154,4.154,0,0,0,.82.083,4.076,4.076,0,0,0,.854-8.066Z" transform="translate(-255.003 -282.134)" fill="#a05e47"/><path d="M274.781,322.979a4.231,4.231,0,0,0,4.988-3.281,4.188,4.188,0,0,0-3.261-4.959,13.713,13.713,0,0,1-5.965-3.655,16.107,16.107,0,0,1-1.816-2.22l-6.049,5.985a23.754,23.754,0,0,0,2.338,2.609A21.352,21.352,0,0,0,274.781,322.979Z" transform="translate(-257.147 -288.152)" fill="#e6ba42"/><path d="M262.918,281.355a1.972,1.972,0,0,0-.332-.973.72.72,0,0,0-.921-.216c-.438.3-.2,1.007-.424,1.492a1.189,1.189,0,0,1-.975.6,8.43,8.43,0,0,1-1.2-.038,4.119,4.119,0,0,0-4.048,3.363,1.42,1.42,0,0,0,.155,1.044,1.727,1.727,0,0,0,1.217.533,16.182,16.182,0,0,0,3.657.256c1.1-.089,2.919-.395,3.1-1.669A16.5,16.5,0,0,0,262.918,281.355Z" transform="translate(-254.991 -280.074)" fill="#a05e47"/><path d="M257.461,287.4a1.287,1.287,0,0,1-.146-.195.141.141,0,0,1,.046-.194.139.139,0,0,1,.194.046.558.558,0,0,0,.427.316c.311.017.655-.332.761-.468a.141.141,0,0,1,.206-.018.739.739,0,0,0,.634.262c.274-.067.41-.424.412-.427a.141.141,0,0,1,.119-.091.143.143,0,0,1,.135.067.639.639,0,0,0,.395.344.362.362,0,0,0,.272-.063c1.152-.827-.252-3.519-.266-3.545a.141.141,0,1,1,.25-.132c.063.12,1.532,2.937.186,3.9a.651.651,0,0,1-.487.117.769.769,0,0,1-.452-.281.858.858,0,0,1-.494.384.909.909,0,0,1-.781-.233,1.294,1.294,0,0,1-.9.466A.728.728,0,0,1,257.461,287.4Z" transform="translate(-255.637 -280.958)" fill="#632a1a"/><path d="M260.748,286.835a.142.142,0,0,1-.035-.073,19.829,19.829,0,0,0-.816-3.444.141.141,0,1,1,.25-.13,19.409,19.409,0,0,1,.845,3.529.142.142,0,0,1-.244.118Z" transform="translate(-256.363 -280.926)" fill="#632a1a"/><path d="M258.959,287.18a.136.136,0,0,1-.035-.07,19.315,19.315,0,0,0-.867-3.344.141.141,0,1,1,.246-.139,18.816,18.816,0,0,1,.9,3.433.141.141,0,0,1-.242.12Z" transform="translate(-255.846 -281.051)" fill="#632a1a"/><path d="M262.968,286.295a.14.14,0,0,1-.032-.134.692.692,0,0,1,.383-.44,6.224,6.224,0,0,1-.382-1.105,2.281,2.281,0,0,1,.04-1.233.863.863,0,0,1,.283-.43.768.768,0,0,1,.77-.05,1.589,1.589,0,0,1,.545.465,4.322,4.322,0,0,1,.854,1.692.141.141,0,1,1-.275.066,4.029,4.029,0,0,0-.8-1.58,1.3,1.3,0,0,0-.444-.387.482.482,0,0,0-.482.019.6.6,0,0,0-.186.3,2.01,2.01,0,0,0-.031,1.083,6.094,6.094,0,0,0,.378,1.08.229.229,0,0,1-.141.336.409.409,0,0,0-.242.264.142.142,0,0,1-.174.1A.147.147,0,0,1,262.968,286.295Z" transform="translate(-257.202 -280.846)" fill="#632a1a"/><path d="M272.218,321.738l1.97,25.489a25.224,25.224,0,0,0,13.88,2.19c8.124-.945,9.9-4.535,9.9-4.535s-1.4-25.01-1.639-25.258-1.2-8.465-12.952-6.787S272.218,321.738,272.218,321.738Z" transform="translate(-259.823 -289.204)" fill="#f5ca56"/><path d="M295.808,326.687s6.519,10.995,2.326,23.2c0,0,6.707-9.66,6.458-12.844S295.808,326.687,295.808,326.687Z" transform="translate(-266.444 -293.153)" fill="#e6ba42"/><path d="M310.144,332.091l-9.593-15.227a4.078,4.078,0,0,0-6.9,4.347l8.415,13.358-5.912,12.86a10.169,10.169,0,0,0,7.412,3.407l6.834-14.868A4.078,4.078,0,0,0,310.144,332.091Z" transform="translate(-265.662 -289.862)" fill="#a05e47"/><g transform="translate(19.971 19.144)"><path d="M291.664,306.684l-2.546,6.6-4.108,1.6-2.259-2.939,1.531-3.968Z" transform="translate(-282.752 -306.684)" fill="#a05e47"/></g><path d="M289.619,310.757l-5.83-.282-.815,2.112C286.007,313.315,289.619,310.757,289.619,310.757Z" transform="translate(-262.843 -288.604)" fill="#774031"/><rect width="12.005" height="17.165" rx="6.002" transform="translate(21.542 4.823) rotate(21.098)" fill="#a05e47"/><path d="M291.425,289.984l-2.726-1.052a4.56,4.56,0,0,0-5.451,1.776,4.2,4.2,0,0,0,1.594,1.535,6.953,6.953,0,0,0,4.112.535,4.456,4.456,0,0,1,1.629-.037,1.254,1.254,0,0,1,1.018,1.125,1.445,1.445,0,0,1-.735,1.079,2.839,2.839,0,0,0-.67.506,1.919,1.919,0,0,0-.328,1.014,4.383,4.383,0,0,0,1.735,4.778c.086.07.174.14.264.207l2.159-5.595A4.555,4.555,0,0,0,291.425,289.984Z" transform="translate(-262.92 -282.475)" fill="#171e26" opacity="0.3"/><path d="M296.973,305.825a1.471,1.471,0,1,1-.843-1.9A1.471,1.471,0,0,1,296.973,305.825Z" transform="translate(-265.972 -286.738)" fill="#a05e47"/><path d="M300.551,316.864a4.078,4.078,0,0,0-6.9,4.347l4.322,6.862a33.279,33.279,0,0,0,7.26-3.78Z" transform="translate(-265.662 -289.862)" fill="#e6ba42"/><path d="M303.793,364.7a3.077,3.077,0,0,1-.853,1.2,1.074,1.074,0,0,1-1.365-.009c-.178-.187-.275-.469-.514-.565-.3-.12-.612.128-.924.218a1.245,1.245,0,0,1-1.4-.82.992.992,0,0,0-.28-.509c-.36-.247-.909.225-1.265-.029-.273-.194-.2-.666-.463-.868-.145-.109-.345-.1-.512-.173a.774.774,0,0,1-.4-.757,2.276,2.276,0,0,1,.283-.861l.627-1.292a2.227,2.227,0,0,1,.46-.7,2.146,2.146,0,0,1,1.737-.307,9.673,9.673,0,0,1,3.341.944,4.826,4.826,0,0,1,2.077,1.991C304.725,362.949,304.147,363.97,303.793,364.7Z" transform="translate(-266.444 -302.27)" fill="#a05e47"/></g><g transform="translate(6.634 41.805)"><path d="M8.061,0h6.81a8.061,8.061,0,0,1,8.061,8.061V33.534a0,0,0,0,1,0,0H0a0,0,0,0,1,0,0V8.061A8.061,8.061,0,0,1,8.061,0Z" transform="translate(0 22.984)" fill="#00223d"/><g transform="translate(4.023)"><g transform="translate(16.813 22.547)"><path d="M105.155,320.041a4.081,4.081,0,0,1,5.451,1.9l6.341,13.111,14.893-5.54c.782,5.016,2.867,7.273,2.867,7.273l-18.337,7.233a4.083,4.083,0,0,1-5.138-2.034l-7.975-16.49A4.081,4.081,0,0,1,105.155,320.041Z" transform="translate(-102.849 -319.633)" fill="#a05e47"/><path d="M114.356,347.715a4.072,4.072,0,0,0,2.842-.031l6.792-2.679a23.414,23.414,0,0,1-5.557-6.531l-.658.245-2.455-5.075c-2.406-.833-6.692-.954-9.517-.932l6.257,12.939A4.074,4.074,0,0,0,114.356,347.715Z" transform="translate(-103.678 -323.302)" fill="#7f4637"/><path d="M107.285,331.364l3.645,4.7,6.05-3.406L111.8,321.943a4.074,4.074,0,0,0-4.517-2.2l-.189.1Z" transform="translate(-104.039 -319.637)" fill="#b54273"/><path d="M147.073,331.173a1.906,1.906,0,0,1,.989-.07.7.7,0,0,1,.536.737c-.105.5-.819.558-1.167.935a1.144,1.144,0,0,0-.17,1.091,8.043,8.043,0,0,0,.481,1.048,3.97,3.97,0,0,1-1.473,4.854,1.371,1.371,0,0,1-.986.253,1.664,1.664,0,0,1-.929-.882,15.614,15.614,0,0,1-1.595-3.152c-.332-1.011-.741-2.741.324-3.375A15.928,15.928,0,0,1,147.073,331.173Z" transform="translate(-113.946 -322.84)" fill="#a05e47"/><path d="M145.377,339.39a1.271,1.271,0,0,0,.228.057.136.136,0,0,0,.155-.114.134.134,0,0,0-.114-.155.539.539,0,0,1-.441-.26,1.114,1.114,0,0,1,.132-.851.136.136,0,0,0-.061-.19c-.283-.132-.441-.289-.469-.465a.713.713,0,0,1,.225-.526.136.136,0,0,0-.073-.234.616.616,0,0,1-.453-.222.357.357,0,0,1-.046-.265c.3-1.332,3.22-1.092,3.25-1.089a.136.136,0,1,0,.024-.271c-.129-.012-3.182-.262-3.537,1.294a.632.632,0,0,0,.078.476.745.745,0,0,0,.419.3.827.827,0,0,0-.157.583.877.877,0,0,0,.5.607,1.251,1.251,0,0,0-.077.976A.7.7,0,0,0,145.377,339.39Z" transform="translate(-114.446 -323.884)" fill="#7f4637"/><path d="M145.137,337.42a.132.132,0,0,0,.078,0,19.114,19.114,0,0,1,3.364-.563.136.136,0,0,0,.023-.271,18.757,18.757,0,0,0-3.452.57.135.135,0,0,0-.1.164A.133.133,0,0,0,145.137,337.42Z" transform="translate(-114.689 -324.39)" fill="#7f4637"/><path d="M145.525,339.137a.135.135,0,0,0,.076.005,18.589,18.589,0,0,1,3.295-.481.136.136,0,0,0,.032-.271,18.163,18.163,0,0,0-3.386.486.135.135,0,0,0-.1.162A.134.134,0,0,0,145.525,339.137Z" transform="translate(-114.798 -324.893)" fill="#7f4637"/><path d="M146.091,340.948a.137.137,0,0,0,.1,0,8.122,8.122,0,0,1,2.648-.516.137.137,0,0,0,.14-.133.139.139,0,0,0-.133-.14,8.3,8.3,0,0,0-2.755.535.137.137,0,0,0-.077.177A.135.135,0,0,0,146.091,340.948Z" transform="translate(-114.957 -325.392)" fill="#7f4637"/><path d="M144.789,334.87a.136.136,0,0,0,.13-.022.667.667,0,0,0,.247-.505,5.955,5.955,0,0,0,1.124-.074,2.205,2.205,0,0,0,1.081-.5.828.828,0,0,0,.276-.412.738.738,0,0,0-.244-.7,1.529,1.529,0,0,0-.617-.31,4.17,4.17,0,0,0-1.823-.126.136.136,0,0,0,.044.269,3.886,3.886,0,0,1,1.7.118,1.27,1.27,0,0,1,.51.25.467.467,0,0,1,.164.435.577.577,0,0,1-.194.276,1.934,1.934,0,0,1-.95.432,5.755,5.755,0,0,1-1.1.068.22.22,0,0,0-.245.251.4.4,0,0,1-.145.314.136.136,0,0,0-.022.191A.144.144,0,0,0,144.789,334.87Z" transform="translate(-114.591 -323.152)" fill="#7f4637"/></g><path d="M105.48,324.905l-1.989,25.733a25.468,25.468,0,0,1-14.013,2.211c-8.2-.954-10-4.578-10-4.578s1.417-25.25,1.656-25.5,1.209-8.547,13.076-6.852S105.48,324.905,105.48,324.905Z" transform="translate(-79.479 -295.979)" fill="#c1507f"/><g transform="translate(11.99 12.57)"><path d="M96.145,305.763v7.14l4.272,3.427,2.213-2.378v-4.294Z" transform="translate(-96.145 -305.763)" fill="#a05e47"/></g><path d="M97.384,310.969l5.593,1.853v2.286C99.857,314.691,97.384,310.969,97.384,310.969Z" transform="translate(-84.503 -294.654)" fill="#7f4637"/><rect width="12.12" height="17.329" rx="6.06" transform="translate(24.11 19.223) rotate(180)" fill="#a05e47"/><path d="M95.579,299.812c.2.483.843.871,1.224.514a.993.993,0,0,0,.242-.507,7.779,7.779,0,0,0,.128-3.1c-.2-1.208-.648-2.558.042-3.568a1.9,1.9,0,0,1,2.124-.7c.394.137.733.4,1.129.53a5.767,5.767,0,0,0,2.456-.191c1.514-.2,3.163.386,4.522-.309a2.69,2.69,0,0,0,1.417-2,1.226,1.226,0,0,0-1.158-1.488c-1.054-.194-2.16.309-3.2.043-.647-.165-1.2-.617-1.864-.721-.922-.145-1.791.411-2.7.622-.927.214-1.906.065-2.835.269a5.208,5.208,0,0,0-3.627,4.291,15.306,15.306,0,0,0,.467,5.9q.222,1.045.444,2.09a2.276,2.276,0,0,0,.788,1.54.438.438,0,0,0,.269.083c.26-.026.331-.368.327-.629a18.569,18.569,0,0,0-.509-3.8C95.423,299.039,95.429,299.443,95.579,299.812Z" transform="translate(-83.37 -288.291)" fill="#171c27"/><path d="M94.181,304.243a1.486,1.486,0,1,0,1.486-1.486A1.486,1.486,0,0,0,94.181,304.243Z" transform="translate(-83.604 -292.35)" fill="#a05e47"/><g transform="translate(2.688 21.279)"><path d="M119.611,350.621a.322.322,0,0,1,.295-.041.349.349,0,0,1,.124.2,1.491,1.491,0,0,0,1.183,1,1,1,0,0,0,1.094-.943,1.66,1.66,0,0,0-.523-.955,2.95,2.95,0,0,0,1.768,1.2.411.411,0,0,0,.253-.038.42.42,0,0,0,.158-.241,1.689,1.689,0,0,0-.157-1.378,2.2,2.2,0,0,0,.666.5.746.746,0,0,0,.787-.1c.322-.309.162-.843-.02-1.251q-.295-.663-.59-1.325a6.791,6.791,0,0,0-.794-1.451,5.259,5.259,0,0,0-2.273-1.531,11.486,11.486,0,0,0-5.741-.688.772.772,0,0,0-.755.788,12.757,12.757,0,0,0,.086,6.337c.23.825.53,1.058,1.417.976A8.76,8.76,0,0,0,119.611,350.621Z" transform="translate(-92.057 -325.053)" fill="#a05e47"/><g transform="translate(0.164 0.288)"><path d="M87.154,318.287a4.081,4.081,0,0,1,4.435,3.693l1.324,14.5,15.889-.115a48.991,48.991,0,0,0-1.088,8.245l-18.5.06a4.083,4.083,0,0,1-4.093-3.711L83.46,322.722A4.08,4.08,0,0,1,87.154,318.287Z" transform="translate(-83.443 -318.27)" fill="#a05e47"/></g><path d="M123.642,351.343a19.719,19.719,0,0,0-1.46-2.645,1.662,1.662,0,0,0-1.383-.629" transform="translate(-93.761 -326.342)" fill="none" stroke="#7f4637" stroke-linecap="round" stroke-linejoin="round" stroke-width="0.567"/><path d="M126.208,350.164l-1.274-2.81a2.6,2.6,0,0,0-1.642-1.232" transform="translate(-94.46 -325.797)" fill="none" stroke="#7f4637" stroke-linecap="round" stroke-linejoin="round" stroke-width="0.567"/><path d="M91.652,321.713a4.227,4.227,0,1,0-8.419.768l1.1,12.074,8.391-1.075Z" transform="translate(-83.215 -317.869)" fill="#b54273"/><path d="M83.443,325.733,84.4,336.2s6.422-.82,8.391-1.075l-1.038-11.381" transform="translate(-83.279 -319.519)" fill="none" stroke="#a22f5f" stroke-linecap="round" stroke-linejoin="round" stroke-width="0.283"/></g><path d="M93.826,316.142l2.877,5.7,3.083-2.349,2.965,2.126a13.365,13.365,0,0,0,1.057-3.652" transform="translate(-83.505 -296.106)" fill="none" stroke="#a22f5f" stroke-linecap="round" stroke-linejoin="round" stroke-width="0.283"/><path d="M101.445,321.25l-.173,9.243h2.012" transform="translate(-85.594 -297.539)" fill="none" stroke="#a22f5f" stroke-linecap="round" stroke-linejoin="round" stroke-width="0.283"/></g></g><g transform="translate(73.366 42.722)"><path d="M8.061,0H14.87a8.061,8.061,0,0,1,8.061,8.061V33.534a0,0,0,0,1,0,0H0a0,0,0,0,1,0,0V8.061A8.061,8.061,0,0,1,8.061,0Z" transform="translate(0 23.359) rotate(-7.91)" fill="#00223d"/><g transform="translate(9.74)"><path d="M197.253,290.754a9.341,9.341,0,0,0-3.332-.688,10.326,10.326,0,0,0-3.317.174,5.748,5.748,0,0,0-3.327,3.2,13.219,13.219,0,0,0-.935,3.234c-.188,1.052-.431,2.077-.56,3.142-.278,2.295-.3,4.615-.67,6.9-.681,4.19-2.508,8.094-3.742,12.156s-1.843,8.581-.118,12.46a2.053,2.053,0,0,0,.609.873,2.2,2.2,0,0,0,.927.318,34.2,34.2,0,0,0,6.148.52,5.6,5.6,0,0,0,2.188-.33,4.434,4.434,0,0,0,1.54-1.2c1.641-1.867,2.322-4.366,2.954-6.77l1.817-6.914c1.691-6.433,3.391-12.935,3.581-19.584.065-2.266-.158-4.793-1.825-6.329A6.407,6.407,0,0,0,197.253,290.754Z" transform="translate(-180.186 -289.693)" fill="#00223d"/><g transform="translate(13.161 19.418)"><path d="M226.853,328.706c-16.707,2.419-21.684-9.461-21.9-10.008a3.348,3.348,0,0,0-6.251,2.4,23.028,23.028,0,0,0,6.26,8.462c3.975,3.45,10.975,7.216,21.925,5.895.3-.037.612-.078.923-.122A18.609,18.609,0,0,0,226.853,328.706Z" transform="translate(-198.48 -316.558)" fill="#dba38d"/><path d="M240.521,331.221a2.385,2.385,0,0,1,1.363-.234c.456.105.847.613.651,1.038-.167.363-.7.612-.575.991a.64.64,0,0,0,.237.283c1.229.955,2.873,1.14,4.307,1.746a2.3,2.3,0,0,1,1.477,1.394,1.724,1.724,0,0,1-.434,1.484,3.884,3.884,0,0,1-1.312.906,11,11,0,0,1-8.29.419,2.156,2.156,0,0,1-.826-.455,2.394,2.394,0,0,1-.463-.8,7.528,7.528,0,0,1-.564-1.744,4.249,4.249,0,0,1,1.152-3.436C238.216,331.752,239.269,331.7,240.521,331.221Z" transform="translate(-209.022 -320.598)" fill="#dba38d"/><path d="M208.166,323.385a15.872,15.872,0,0,1-3.215-4.687,3.348,3.348,0,0,0-6.251,2.4,22.287,22.287,0,0,0,4.637,6.917A23.5,23.5,0,0,0,208.166,323.385Z" transform="translate(-198.48 -316.558)" fill="#63529d"/><path d="M203.393,328.919a.111.111,0,0,1-.094-.033,22.462,22.462,0,0,1-4.661-6.955.112.112,0,0,1,.065-.144.11.11,0,0,1,.144.065,22.186,22.186,0,0,0,4.547,6.81,23.63,23.63,0,0,0,4.668-4.478,15.964,15.964,0,0,1-3.172-4.655.112.112,0,0,1,.208-.082,15.75,15.75,0,0,0,3.191,4.651.11.11,0,0,1,.009.144,23.753,23.753,0,0,1-4.852,4.657A.1.1,0,0,1,203.393,328.919Z" transform="translate(-198.522 -317.349)" fill="#63529d"/></g><path d="M201.409,322.2a39.175,39.175,0,0,1,.105,6.828c-.119,5.032.045,10.182,1.712,14.957.565,1.618,1.088,3.066-.188,4.486-2.539,2.822-8.539,3.475-12.031,3.578-2.229.066-9.665-.062-10.614-3.179-.308-1.011.814-3.3,1.007-4.386a43.738,43.738,0,0,0,.186-7.364,40.891,40.891,0,0,0-.774-9.437,12.361,12.361,0,0,1,.652-8.295,7.1,7.1,0,0,1,2.914-3.422,12.861,12.861,0,0,1,5.957-1.264c2.343-.009,5.422.114,7.53,1.244,1.987,1.065,3.072,3.694,3.463,5.781Q201.372,321.963,201.409,322.2Z" transform="translate(-180.229 -296.619)" fill="#7d6eb2"/><g transform="translate(5.941)"><g transform="translate(0 0.595)"><path d="M197.061,309.674l.121,4.306s.029,2.068-3.15,2.043a3.213,3.213,0,0,1-3.383-2.911l-.2-7.16Z" transform="translate(-189.006 -294.759)" fill="#eeb399"/><path d="M191.83,310.936l5.662,1.7.064,2.292C194.415,314.6,191.83,310.936,191.83,310.936Z" transform="translate(-189.394 -296.157)" fill="#c18b76"/><rect width="12.159" height="17.385" rx="6.08" transform="translate(13.779 17.378) rotate(178.388)" fill="#eeb399"/><path d="M188.445,304.263a1.49,1.49,0,1,0,1.447-1.532A1.49,1.49,0,0,0,188.445,304.263Z" transform="translate(-188.444 -293.855)" fill="#eeb399"/></g><path d="M202.5,292.568s-5.131,6.961-12.819,6.485c0,0-1.7-9.188,5.779-9.461A8.673,8.673,0,0,1,202.5,292.568Z" transform="translate(-188.745 -289.566)" fill="#00223d"/></g><g transform="translate(1.749 19.629)"><path d="M204.959,338.892c-16.126-4.99-15.521-17.856-15.481-18.444a3.349,3.349,0,0,0-6.678-.514,23.032,23.032,0,0,0,2.02,10.33c2.109,4.822,6.812,11.229,17.268,14.739q.436.147.886.286A18.613,18.613,0,0,0,204.959,338.892Z" transform="translate(-182.659 -316.852)" fill="#eeb399"/><path d="M190.369,326.061a15.85,15.85,0,0,1-.891-5.613,3.349,3.349,0,0,0-6.678-.514,22.3,22.3,0,0,0,1.218,8.239A23.516,23.516,0,0,0,190.369,326.061Z" transform="translate(-182.66 -316.852)" fill="#63529d"/><path d="M183.939,329.436a.114.114,0,0,1-.071-.071,22.443,22.443,0,0,1-1.222-8.283.112.112,0,1,1,.222.018,22.171,22.171,0,0,0,1.182,8.1,23.6,23.6,0,0,0,6.138-2.039,15.967,15.967,0,0,1-.865-5.565.113.113,0,0,1,.119-.1.112.112,0,0,1,.1.119,15.773,15.773,0,0,0,.884,5.57.11.11,0,0,1-.054.135,23.768,23.768,0,0,1-6.382,2.122A.112.112,0,0,1,183.939,329.436Z" transform="translate(-182.616 -318.01)" fill="#4c3791"/><path d="M215.813,347.444a2.391,2.391,0,0,1,1.331.374.828.828,0,0,1,.143,1.217c-.307.255-.894.252-.945.648a.631.631,0,0,0,.092.358c.7,1.391,2.106,2.263,3.14,3.427a2.3,2.3,0,0,1,.736,1.894,1.725,1.725,0,0,1-1.03,1.154,3.9,3.9,0,0,1-1.573.255,11,11,0,0,1-7.667-3.181,2.153,2.153,0,0,1-.551-.765,2.385,2.385,0,0,1-.076-.918,7.561,7.561,0,0,1,.24-1.818,4.247,4.247,0,0,1,2.516-2.608C213.5,346.934,214.475,347.34,215.813,347.444Z" transform="translate(-190.132 -325.368)" fill="#eeb399"/></g></g></g><g transform="translate(0 42.529)"><path d="M8.061,0H14.87a8.061,8.061,0,0,1,8.061,8.061V33.534a0,0,0,0,1,0,0H0a0,0,0,0,1,0,0V8.061A8.061,8.061,0,0,1,8.061,0Z" transform="translate(238.012 21.14)" fill="#19365a"/><path d="M378.779,320.566a4.043,4.043,0,0,0-5.717-.056l-10.3,10.1-12.131-9.98c-2.409,4.415-5.07,5.829-5.07,5.829l14.737,12.7a4.042,4.042,0,0,0,5.47-.176l12.954-12.7A4.042,4.042,0,0,0,378.779,320.566Z" transform="translate(-143.483 -297.731)" fill="#eeb399"/><path d="M385.708,320.566a4.043,4.043,0,0,0-5.717-.056l-9.735,9.547c.768,1.936,2.277,5.165,4.392,7.018l11-10.792A4.042,4.042,0,0,0,385.708,320.566Z" transform="translate(-150.412 -297.731)" fill="#79bcbc"/><path d="M346.8,316.994a1.88,1.88,0,0,0-.9-.4.687.687,0,0,0-.747.508c-.07.5.577.794.775,1.263a1.136,1.136,0,0,1-.206,1.074,8.141,8.141,0,0,1-.8.816,3.931,3.931,0,0,0-.252,5.017,1.353,1.353,0,0,0,.834.566,1.647,1.647,0,0,0,1.161-.512,15.485,15.485,0,0,0,2.542-2.4c.647-.832,1.608-2.308.827-3.255A15.807,15.807,0,0,0,346.8,316.994Z" transform="translate(-143.013 -296.958)" fill="#eeb399"/><path d="M347.291,325.307a1.207,1.207,0,0,1-.231-.024.134.134,0,0,1-.107-.158.133.133,0,0,1,.158-.106.532.532,0,0,0,.5-.1,1.106,1.106,0,0,0,.163-.837.132.132,0,0,1,.026-.1.136.136,0,0,1,.094-.052.543.543,0,0,0,.559-.842.135.135,0,0,1,.146-.193.613.613,0,0,0,.5-.056.35.35,0,0,0,.132-.232c.163-1.344-2.637-2.1-2.665-2.1a.135.135,0,1,1,.068-.26c.125.032,3.055.821,2.864,2.39a.623.623,0,0,1-.232.417.733.733,0,0,1-.49.136.824.824,0,0,1-.049.6.87.87,0,0,1-.669.4,1.239,1.239,0,0,1-.255.935A.7.7,0,0,1,347.291,325.307Z" transform="translate(-143.735 -297.98)" fill="#b57359"/><path d="M348.175,323.546a.135.135,0,0,1-.074-.022,18.924,18.924,0,0,0-2.948-1.651.134.134,0,1,1,.07-.26,18.531,18.531,0,0,1,3.027,1.686.135.135,0,0,1-.075.247Z" transform="translate(-143.34 -298.364)" fill="#b57359"/><path d="M347.263,325.026a.132.132,0,0,1-.072-.021,18.447,18.447,0,0,0-2.911-1.551.135.135,0,0,1,.061-.263,17.964,17.964,0,0,1,2.993,1.586.134.134,0,0,1-.072.248Z" transform="translate(-143.094 -298.807)" fill="#b57359"/><path d="M346.363,326.606a.133.133,0,0,1-.089-.033,8.056,8.056,0,0,0-2.3-1.368.135.135,0,0,1-.086-.171.138.138,0,0,1,.17-.086,8.207,8.207,0,0,1,2.388,1.421.135.135,0,0,1-.089.237Z" transform="translate(-143.013 -299.299)" fill="#b57359"/><path d="M349.485,321.537a.134.134,0,0,1-.114-.063.661.661,0,0,1-.061-.554,5.906,5.906,0,0,1-1.024-.445,2.173,2.173,0,0,1-.842-.824.82.82,0,0,1-.119-.476.733.733,0,0,1,.463-.573,1.527,1.527,0,0,1,.679-.083,4.123,4.123,0,0,1,1.741.493.133.133,0,0,1,.052.183.135.135,0,0,1-.183.053,3.841,3.841,0,0,0-1.626-.459,1.241,1.241,0,0,0-.559.062.459.459,0,0,0-.3.35.564.564,0,0,0,.088.322,1.919,1.919,0,0,0,.741.722,5.76,5.76,0,0,0,1,.432.217.217,0,0,1,.144.316.392.392,0,0,0,.03.342.135.135,0,0,1-.044.186A.141.141,0,0,1,349.485,321.537Z" transform="translate(-143.977 -297.495)" fill="#b57359"/><path d="M379.45,325.32l1.97,25.489A25.224,25.224,0,0,0,395.3,353c8.124-.945,9.9-4.534,9.9-4.534s-1.4-25.01-1.64-25.258-1.2-8.466-12.952-6.788S379.45,325.32,379.45,325.32Z" transform="translate(-152.99 -296.844)" fill="#8ec8c8"/><rect width="266.661" height="6.32" transform="translate(0 51.19)" fill="#00223d"/><g transform="translate(22.719 32.112)"><rect width="35.91" height="1.749" rx="0.5" transform="translate(35.91 20.332) rotate(180)" fill="url(#b)"/><path d="M121.9,354.24h29.3a2.648,2.648,0,0,0,2.513-2.169l2.529-15.967a1.81,1.81,0,0,0-1.826-2.17h-29.3a2.649,2.649,0,0,0-2.514,2.17l-2.529,15.967A1.81,1.81,0,0,0,121.9,354.24Z" transform="translate(-102.924 -333.935)" fill="url(#b)"/><circle cx="2.7" cy="2.7" r="2.7" transform="translate(33.171 7.41)" fill="#7d6eb2"/></g><path d="M404.289,331.276s1.8,21.523-3.476,21.946-14.169,0-14.169,0,10.736-2.055,11.913-8.029S404.289,331.276,404.289,331.276Z" transform="translate(-155.01 -301.077)" fill="#6eb2b2"/><path d="M393,322.625c4.1-.577,4.684-4.263,4.68-6.334a18.749,18.749,0,0,0-4.765.129,21.022,21.022,0,0,0-5.249,1.386C387.8,319.55,388.58,323.247,393,322.625Z" transform="translate(-155.299 -296.845)" fill="#eeb399"/><g transform="translate(233.914 12.418)"><path d="M396.238,306.559v7.072l-3.259,2.967-3.165-1.929v-4.253Z" transform="translate(-389.814 -306.559)" fill="#eeb399"/></g><path d="M395.355,311.516l-5.541,1.836v2.264C392.906,315.2,395.355,311.516,395.355,311.516Z" transform="translate(-155.9 -295.532)" fill="#cc957f"/><rect width="12.005" height="17.165" rx="6.003" transform="translate(228.333 1.7)" fill="#eeb399"/><path d="M380.8,292.763a1.252,1.252,0,0,0-.359,1.272,1.175,1.175,0,0,0,.51.5,2.75,2.75,0,0,0,2.451.129.718.718,0,0,0-.009.922,1.36,1.36,0,0,0,.876.451,3.5,3.5,0,0,0,2.858-1.067,1.3,1.3,0,0,0,1.213,1.308c.6.019,1.173-.385,1.758-.259.171.288-.1.76.175.952a.48.48,0,0,0,.232.068c.554.053,1.215-.046,1.573.38s.16,1.025.017,1.542a1.82,1.82,0,0,0,.056,1.428c.258.417.965.55,1.222.132.072-.119.1-.261.176-.377s.242-.2.354-.115a.32.32,0,0,1,.092.281,6.043,6.043,0,0,1-.624,1.737c-.215.581-.191,1.367.352,1.663a1.523,1.523,0,0,0,.533.143,2.3,2.3,0,0,0,1.682-.255,2.542,2.542,0,0,0,.765-1.445,1.556,1.556,0,0,0,.083-.639.537.537,0,0,0-.391-.466c-.255-.714.518-1.6.06-2.2a2.384,2.384,0,0,0-.374-.331,2.057,2.057,0,0,1-.622-1.285,9.385,9.385,0,0,1-.02-1.458,11.779,11.779,0,0,0-.288-2.813,2.782,2.782,0,0,0-.43-1.078,1.12,1.12,0,0,0-1-.483,2.883,2.883,0,0,0-1.154-1.783,1.744,1.744,0,0,0-2.029.056.911.911,0,0,1-.4.267.7.7,0,0,1-.373-.076,4.357,4.357,0,0,0-3.488-.3,1.64,1.64,0,0,1-.5.2,1.471,1.471,0,0,1-.54-.086,1.489,1.489,0,0,0-1.263.139c-.392.294-.221.616-.253,1-.037.441-.281.414-.7.571A5.388,5.388,0,0,0,380.8,292.763Z" transform="translate(-153.252 -289.298)" fill="#171e26"/><path d="M400.311,304.853a1.471,1.471,0,1,1-1.471-1.471A1.471,1.471,0,0,1,400.311,304.853Z" transform="translate(-158.02 -293.25)" fill="#eeb399"/><g transform="translate(219.51 21.354)"><g transform="translate(0 0.211)"><path d="M397.49,319.289a4.087,4.087,0,0,0-4.422,3.7l-1.545,17.51L375.1,341.559a23.964,23.964,0,0,0,.522,8.14l19.916-1.28a4.078,4.078,0,0,0,3.8-3.712l1.853-21A4.079,4.079,0,0,0,397.49,319.289Z" transform="translate(-371.244 -319.273)" fill="#eeb399"/><path d="M372,358.383a3.077,3.077,0,0,1-1.42-.4,1.072,1.072,0,0,1-.451-1.288c.116-.23.349-.417.358-.674.012-.325-.327-.534-.516-.8a1.246,1.246,0,0,1,.3-1.6c.15-.128.335-.244.386-.435.112-.422-.518-.781-.4-1.2.092-.322.563-.409.663-.727a2.316,2.316,0,0,0-.009-.541.773.773,0,0,1,.578-.634,2.269,2.269,0,0,1,.906-.024l1.427.155a2.23,2.23,0,0,1,.818.2,2.148,2.148,0,0,1,.874,1.532,9.673,9.673,0,0,1,.235,3.464,4.824,4.824,0,0,1-1.176,2.626C373.961,358.672,372.8,358.471,372,358.383Z" transform="translate(-369.792 -327.903)" fill="#eeb399"/></g><path d="M404.038,319a4.17,4.17,0,0,0-4.513,3.782l-1.3,14.7a26.059,26.059,0,0,0,8.164,2.221l1.429-16.187A4.163,4.163,0,0,0,404.038,319Z" transform="translate(-377.771 -318.98)" fill="#79bcbc"/><path d="M399.422,325.882l-1.195,13.529s5,2.147,8.164,2.221l1.347-13.929" transform="translate(-377.771 -320.917)" fill="none" stroke="#62a8a8" stroke-linecap="round" stroke-linejoin="round" stroke-width="0.283"/></g><g transform="translate(184.662 32.112)"><rect width="35.91" height="1.749" rx="0.5" transform="translate(17.439 18.583)" fill="url(#b)"/><path d="M355.726,354.24h-29.3a2.647,2.647,0,0,1-2.513-2.169L321.38,336.1a1.811,1.811,0,0,1,1.827-2.17h29.3a2.649,2.649,0,0,1,2.514,2.17l2.529,15.967A1.81,1.81,0,0,1,355.726,354.24Z" transform="translate(-321.353 -333.935)" fill="url(#b)"/><g transform="translate(15.375 6.585)"><path d="M343.213,347.625a6.246,6.246,0,0,0-.422.8.768.768,0,0,0,.447,1.094,1.911,1.911,0,0,0,2.029-.547,3.058,3.058,0,0,0,.727-2.058,1.869,1.869,0,0,0-.642-1.594,1.4,1.4,0,0,0-.511-.209,1.187,1.187,0,0,0-.856.11c-.366.223-.393.641-.43,1.023A3.536,3.536,0,0,1,343.213,347.625Z" transform="translate(-342.724 -343.647)" fill="#7d6eb2"/><path d="M345.132,343.882a1.056,1.056,0,0,1,.025-.455.483.483,0,0,1,.306-.319.6.6,0,0,1,.16-.019.485.485,0,0,1,.342.1.355.355,0,0,1,.1.273.683.683,0,0,1-.088.283.993.993,0,0,1-.479.458C345.2,344.321,345.165,344.151,345.132,343.882Z" transform="translate(-343.396 -343.088)" fill="#7d6eb2"/></g></g></g><g transform="translate(10.264)"><path d="M110.182,245.805a15.624,15.624,0,1,0-16.441,15.6l2.269,5.567,2.7-6.107A15.628,15.628,0,0,0,110.182,245.805Z" transform="translate(-78.934 -230.181)" fill="#fff" stroke="#00223d" stroke-linecap="round" stroke-linejoin="round" stroke-width="1"/><path d="M103.28,245.567V241.89H99.6a2.763,2.763,0,0,0-5.527,0H90.4v12.881h3.678a2.763,2.763,0,0,1,5.527,0h3.678v-3.677a2.764,2.764,0,0,0,0-5.527Z" transform="translate(-82.151 -232.691)" fill="#abe0e3"/></g><g transform="translate(236.585 2.337)"><path d="M423.329,255.633a15.624,15.624,0,1,0-21.481,7.235l-.284,6,5.018-4.4A15.627,15.627,0,0,0,423.329,255.633Z" transform="translate(-393.527 -233.43)" fill="#fff" stroke="#00223d" stroke-linecap="round" stroke-linejoin="round" stroke-width="1"/><path d="M418.308,249.774a2.752,2.752,0,0,0-.679.094V246.1h-3.677a2.764,2.764,0,0,1-5.527,0h-3.677v3.677a2.764,2.764,0,0,0,0,5.527v3.677H408.5a2.764,2.764,0,0,1,5.527,0h3.6v-3.771a2.76,2.76,0,1,0,.679-5.433Z" transform="translate(-395.9 -236.984)" fill="#abe0e3"/></g><g transform="translate(69.304 3.437)"><path d="M162.456,257.162a15.624,15.624,0,1,1,21.481,7.235l.284,6L179.2,266A15.628,15.628,0,0,1,162.456,257.162Z" transform="translate(-161.001 -234.959)" fill="#fff" stroke="#00223d" stroke-linecap="round" stroke-linejoin="round" stroke-width="1"/><path d="M183.1,247.5a2.764,2.764,0,0,0-5.527,0H173.9v12.882h3.677a2.764,2.764,0,1,1,5.527,0h3.677V247.5Z" transform="translate(-164.62 -237.703)" fill="#abe0e3"/></g><g transform="translate(175.429 6.457)"><path d="M334.218,266.723a15.624,15.624,0,1,0-22.528-2.506l-2.791,5.324,6.408-1.876A15.627,15.627,0,0,0,334.218,266.723Z" transform="translate(-308.518 -239.156)" fill="#fff" stroke="#00223d" stroke-linecap="round" stroke-linejoin="round" stroke-width="1"/><path d="M333.859,255.16v-3.677h-3.678a2.764,2.764,0,1,0-5.527,0h-3.677v3.677a2.764,2.764,0,1,1,0,5.527v3.677h3.677a2.764,2.764,0,1,1,5.527,0h3.678v-3.677a2.764,2.764,0,0,0,0-5.527Z" transform="translate(-312.014 -241.84)" fill="#abe0e3"/></g></g><g transform="translate(145.262 90.246)"><g transform="translate(0.554)"><path d="M230.72,265.86s-.164,6.347,13.87,6.347,13.38-6.347,13.38-6.347Z" transform="translate(-200.494 -139.522)" fill="#f5ca56"/><rect width="35.09" height="18.292" rx="4.709" transform="translate(26.492 109.82)" fill="#00223d"/><path d="M276.8,132.426c-.973-13.724-9.447-40.495-42.424-42.1v-.078q-.8,0-1.579.02-.781-.019-1.579-.02v.078c-32.978,1.607-41.452,28.378-42.424,42.1-1,14.153,6.352,25.185,12.481,36.218s8.358,25.8,9.306,31.147a5.836,5.836,0,0,0,5.795,5.182h32.844a5.837,5.837,0,0,0,5.795-5.182c.948-5.349,3.176-20.115,9.306-31.147S277.808,146.579,276.8,132.426Z" transform="translate(-188.706 -90.246)" fill="#f5ca56"/><path d="M234.155,230.4a116.007,116.007,0,0,0,5.511-36.7c-.059-4.9-.455-9.912-2.406-14.411-.352-.811-.96-1.728-1.841-1.658-.778.062-1.258.872-1.509,1.611A9.7,9.7,0,0,0,242.042,192a5.021,5.021,0,0,0,2.279-.2,5.712,5.712,0,0,0,2.968-3.571,17.355,17.355,0,0,0,.63-10.256c-.207-.841-.718-1.842-1.582-1.781-.609.044-1.029.62-1.3,1.165-1.476,2.927-1.306,6.452-.356,9.589a8.67,8.67,0,0,0,2.025,3.755c2.506,2.464,6.97,1.828,9.508-.6s3.484-6.1,3.725-9.6c.117-1.684-.319-3.893-1.991-4.125-1.723-.239-2.717,1.868-3.1,3.563a128.805,128.805,0,0,0-2.188,44.955c.361,2.821.868,5.755,2.57,8.032" transform="translate(-201.248 -114.363)" fill="none" stroke="#00223d" stroke-miterlimit="10" stroke-width="1"/><path d="M205.056,110.131a14.892,14.892,0,0,0-3.033,4.8,5.741,5.741,0,0,0,.747,5.422c1.729,2.059,5.044,2.026,7.408.744s4.048-3.493,5.827-5.508c2.8-3.174,6.122-6.07,10.149-7.372,1.527-.494,3.13-.75,4.624-1.34a6.016,6.016,0,0,0,3.527-3.083,5.024,5.024,0,0,0-1.927-5.691c-4.228-3.055-9.716-.158-13.859,1.6A36.17,36.17,0,0,0,205.056,110.131Z" transform="translate(-192.345 -92.076)" fill="#f7db96"/></g><path d="M200.817,148.16v-3.677H197.14a2.764,2.764,0,1,0-5.527,0h-3.677v12.881h3.677a2.764,2.764,0,1,1,5.527,0h3.677v-3.677a2.764,2.764,0,1,0,0-5.527Z" transform="translate(-187.936 -104.689)" fill="#00223d"/><path d="M302.667,142.7a2.742,2.742,0,0,0-.679.094V139.02H298.31a2.764,2.764,0,0,1-5.527,0h-3.677V142.7a2.764,2.764,0,0,0,0,5.527V151.9h3.752a2.764,2.764,0,0,1,5.527,0h3.6V148.13a2.759,2.759,0,1,0,.679-5.433Z" transform="translate(-215.548 -103.932)" fill="#00223d"/><path d="M220.274,210.273a2.764,2.764,0,1,0-5.527,0H211.07v12.881h3.677a2.764,2.764,0,1,1,5.527,0h3.677V210.273Z" transform="translate(-194.427 -123.149)" fill="#00223d"/><path d="M281.9,206.47v-3.677h-3.677a2.764,2.764,0,1,0-5.527,0h-3.677v3.677a2.764,2.764,0,1,1,0,5.527v3.677h3.677a2.764,2.764,0,1,1,5.527,0H281.9V212a2.764,2.764,0,1,0,0-5.527Z" transform="translate(-210.687 -121.05)" fill="#00223d"/></g></g></svg>