<svg xmlns="http://www.w3.org/2000/svg" xmlns:xlink="http://www.w3.org/1999/xlink" width="122.485" height="122.486" viewBox="0 0 122.485 122.486"><defs><radialGradient id="a" cx="0.076" cy="0.019" r="1.465" gradientTransform="translate(0.001)" gradientUnits="objectBoundingBox"><stop offset="0" stop-color="#f6f6f7"/><stop offset="0.477" stop-color="#f9f9fa"/><stop offset="0.715" stop-color="#fff"/></radialGradient></defs><g transform="translate(-168 -5598)"><g transform="translate(168 5598)"><g transform="translate(0 0)"><path d="M317.108,2206.962a61.243,61.243,0,1,1-61.242-61.241A61.242,61.242,0,0,1,317.108,2206.962Z" transform="translate(-194.623 -2145.721)" fill="#fff"/><path d="M316.4,2206.189a61.241,61.241,0,1,0-61.242,61.244A61,61,0,0,0,316.4,2206.189Z" transform="translate(-193.912 -2144.948)" fill="url(#a)"/><path d="M295.588,2199.9a46.746,46.746,0,1,0-46.746,46.746A46.572,46.572,0,0,0,295.588,2199.9Z" transform="translate(-187.413 -2138.455)" fill="none" stroke="#26aab7" stroke-miterlimit="10" stroke-width="4"/><g transform="translate(10.85 34.383)"><path d="M305.988,2164.488a61.25,61.25,0,0,1-105.443,60.989,61.055,61.055,0,0,0,105.443-60.989Z" transform="translate(-200.545 -2164.488)" fill="#eceef0"/></g></g></g><g transform="translate(2999.685 3877.748)"><path d="M-2567.866,1752.243a1.292,1.292,0,0,1,.572,1.27c-.027.607,0,1.216-.01,1.823s-.367,1.008-.865,1-.833-.394-.843-1.016.022-1.255-.01-1.88a1.207,1.207,0,0,1,.584-1.2Z" transform="translate(-201.216)" fill="#00223d"/><path d="M-2708.842,1854.264c0,.994.006,1.886,0,2.778a1.9,1.9,0,0,1-2.11,2.121q-3.628.007-7.255,0a1.9,1.9,0,0,1-2.105-2.124c-.006-.893,0-1.786,0-2.771-.429,0-.821.009-1.212,0a1.925,1.925,0,0,1-2.018-1.839,16.687,16.687,0,0,1,.01-2.165,1.915,1.915,0,0,1,.986-1.576.757.757,0,0,0,.278-.538c.032-.76-.011-1.524.027-2.284a.658.658,0,0,0-.468-.723,18.814,18.814,0,0,1-6.871-5.358,19.139,19.139,0,0,1-4.333-11.314,19.062,19.062,0,0,1,4.305-13.317,18.9,18.9,0,0,1,12.509-7.058,18.68,18.68,0,0,1,8.665.839,1.208,1.208,0,0,0,1.12-.028,1.3,1.3,0,0,1,1.574.293,10.416,10.416,0,0,1,.807.809.56.56,0,0,0,.733.192.564.564,0,0,0,.38-.658c-.017-.38-.021-.762,0-1.142a1.452,1.452,0,0,1,1.5-1.467q1.485-.022,2.97,0a1.419,1.419,0,0,1,1.481,1.47,12.039,12.039,0,0,0,.023,1.254.742.742,0,0,0,.39.5.762.762,0,0,0,.627-.092,9.935,9.935,0,0,0,.818-.794,1.456,1.456,0,0,1,2.223.008q1.044,1.015,2.049,2.071a1.439,1.439,0,0,1-.01,2.095c-.246.265-.5.529-.766.768a.59.59,0,0,0-.2.779c.153.368.381.41.708.394.361-.018.724-.016,1.085,0a1.423,1.423,0,0,1,1.449,1.392c.035,1.065.036,2.133,0,3.2a1.422,1.422,0,0,1-1.462,1.377c-.362.01-.725.021-1.085,0a.6.6,0,0,0-.7.406c-.16.368-.02.555.22.776.28.258.547.531.8.814a1.412,1.412,0,0,1,.029,1.965c-.713.766-1.441,1.524-2.223,2.218a5.572,5.572,0,0,1-1.312.625c-.038.449-.077,1.05-.142,1.649-.073.673-.425,1-.968.94-.523-.06-.769-.48-.721-1.158.06-.835.1-1.672.129-2.508a4.154,4.154,0,0,0-.062-.6c-.834.089-.89.149-.893.882,0,.381.01.763-.018,1.142a1.37,1.37,0,0,1-1.288,1.3q-1.655.046-3.313,0a1.421,1.421,0,0,1-1.333-1.391,11.907,11.907,0,0,1,0-1.2c.01-.3-.023-.525-.375-.662a.567.567,0,0,0-.735.181,9.225,9.225,0,0,1-.849.846,1.369,1.369,0,0,1-1.961,0c-.795-.738-1.556-1.514-2.294-2.31a1.389,1.389,0,0,1,0-1.835,4.336,4.336,0,0,1,.716-.735c.525-.392.547-.811.121-1.338-.485,0-1.017.012-1.549,0a1.424,1.424,0,0,1-1.442-1.452c-.017-1.028-.021-2.057,0-3.085a1.421,1.421,0,0,1,1.409-1.427c.4-.017.8-.016,1.2,0,.292.012.492-.035.609-.359.108-.3.153-.52-.126-.751a8.841,8.841,0,0,1-.768-.766,1.469,1.469,0,0,1,.007-2.223,7.721,7.721,0,0,1,.8-.627l-.108-.285c-1.3-.229-2.6-.563-3.912-.667a17.062,17.062,0,0,0-12.278,3.652,16.924,16.924,0,0,0-6.689,11.727c-.846,7.559,2.026,13.442,8.384,17.606a18.032,18.032,0,0,0,2.386,1.213,1.124,1.124,0,0,1,.746,1.15c-.018,1.1-.006,2.2-.006,3.334h1.13v-6.03c-1.368-.345-1.606-.65-1.606-2.049,0-.571-.014-1.143.01-1.714a1.39,1.39,0,0,1,1.388-1.379c.723-.022,1.448-.02,2.171,0a1.425,1.425,0,0,1,1.452,1.39c.038.76.04,1.524,0,2.284-.038.8-.478,1.179-1.636,1.48v6.009h2.573v-.581c0-2.133,0-4.265,0-6.4,0-.666.342-1.036.89-1.009.527.026.819.4.82,1.095q.009,3.142.005,6.284v.609h1.755v-3.662c0-.857.028-1.715-.016-2.57a1.427,1.427,0,0,0-.34-.859c-1.992-2.047-4.01-4.068-6.022-6.1a2.155,2.155,0,0,0-.212-.169c-1.135.651-1.558.593-2.465-.325-.388-.393-.784-.779-1.16-1.183a1.429,1.429,0,0,1-.009-2.051c.468-.5.952-.987,1.448-1.46a1.44,1.44,0,0,1,2.216,0c.348.325.674.673,1.01,1.01,1.061,1.062,1.1,1.562.128,2.847.329.286.692.567,1.013.888,1.751,1.75,3.485,3.516,5.24,5.262a2.83,2.83,0,0,1,.888,2.142c-.02,1.866-.006,3.732-.006,5.6v.638h1.212v-9.524c-.087-.015-.173-.035-.26-.045a1.448,1.448,0,0,1-1.392-1.457c-.032-.7-.034-1.41-.009-2.113a1.45,1.45,0,0,1,1.514-1.514c.666-.023,1.333-.018,2,0a1.438,1.438,0,0,1,1.518,1.5c.023.59.01,1.181.007,1.771,0,1.184-.406,1.659-1.628,1.859v4.665c.993-.624,1.9-1.124,2.731-1.729a17.4,17.4,0,0,0,5.359-6.354c.42-.837.844-1.076,1.377-.813s.575.749.149,1.584a19.116,19.116,0,0,1-9.1,8.873.76.76,0,0,0-.527.864,11.608,11.608,0,0,1,.007,1.37,1.7,1.7,0,0,0,.667,1.69c1.021.757,1,3.781.051,4.64a3.039,3.039,0,0,1-1.316.575A6.235,6.235,0,0,1-2708.842,1854.264Zm.307-29.957,1.792,1.8c.8-.718,1.407-1.749,2.828-1.314,1.7.521,2,1.722,1.779,3.259h2.57c-.08-1.321-.072-2.487,1.452-3.128,1.563-.658,2.328.314,3.135,1.151l1.849-1.768c-.942-.858-1.829-1.661-1.2-3.206s1.856-1.5,3.12-1.462v-2.559c-1.313.091-2.479.065-3.117-1.445-.66-1.56.3-2.36,1.147-3.178l-1.8-1.809c-.832.914-1.627,1.807-3.178,1.145-1.521-.649-1.461-1.85-1.424-3.1h-2.564c.17,1.44.017,2.612-1.6,3.188-1.486.53-2.172-.445-2.936-1.2l-1.835,1.764c.946.85,1.782,1.681,1.156,3.212s-1.837,1.474-3.087,1.436v2.562c1.368-.114,2.534-.027,3.133,1.528C-2706.734,1822.69-2707.632,1823.459-2708.535,1824.307Zm-6.039,28.249v0c2.225,0,4.449-.007,6.674.007.435,0,.636-.139.612-.59a8.883,8.883,0,0,1,0-1.14c.038-.512-.148-.709-.683-.7-1.749.026-3.5.01-5.248.01-2.662,0-5.325.01-7.987-.009-.5,0-.7.161-.669.656a8.1,8.1,0,0,1,0,1.083c-.036.506.139.705.68.7C-2718.986,1852.54-2716.78,1852.556-2714.574,1852.556Zm3.965,4.116h-7.955c-.068.777-.068.779.635.779,2.241,0,4.483-.022,6.724.011C-2710.606,1857.47-2710.458,1857.261-2710.609,1856.671Zm.024-2.36h-8.017l.043.565h7.973Zm-8.7-20.743,1.159-1.116-1.133-1.089-1.073,1.136Zm10.72,3.506h1.537v-1.567h-1.537Zm-9.169,3.464v-1.575h-1.533v1.575Z" transform="translate(-55.178 -48.419)" fill="#00223d"/><path d="M-2581.963,1958.974c-1.491-.418-1.675-.669-1.675-2.227,0-.475-.015-.951.006-1.426a1.472,1.472,0,0,1,1.563-1.523q.969-.012,1.939,0a1.441,1.441,0,0,1,1.531,1.483c.024.55.01,1.1.01,1.653,0,1.341-.284,1.7-1.655,2.024v1.1q0,1.882,0,3.764c0,.813-.3,1.218-.875,1.21-.561-.008-.836-.393-.838-1.18q0-2.167,0-4.334C-2581.964,1959.331-2581.963,1959.145-2581.963,1958.974Zm1.608-1.824v-1.608h-1.522v1.608Z" transform="translate(-188.27 -178.476)" fill="#00223d"/><path d="M-2649.845,1936.9c.342,0,.684-.009,1.026,0a1.436,1.436,0,0,1,1.487,1.415,22.447,22.447,0,0,1-.008,2.279,1.39,1.39,0,0,1-1.387,1.385,20.619,20.619,0,0,1-2.221.006,1.414,1.414,0,0,1-1.4-1.438c-.033-.7-.029-1.406-.007-2.108a1.469,1.469,0,0,1,1.6-1.539C-2650.453,1936.892-2650.149,1936.9-2649.845,1936.9Zm.771,1.739h-1.531v1.608h1.531Z" transform="translate(-127.409 -163.51)" fill="#00223d"/><path d="M-2615.576,1884.631c-.361,0-.722.012-1.083,0a1.4,1.4,0,0,1-1.4-1.37q-.039-1.167,0-2.336a1.367,1.367,0,0,1,1.347-1.35c.758-.033,1.52-.033,2.279,0a1.408,1.408,0,0,1,1.383,1.392c.035.758.037,1.521,0,2.279a1.439,1.439,0,0,1-1.506,1.391c-.342.006-.684,0-1.026,0Zm.791-1.736v-1.578h-1.531v1.578Z" transform="translate(-157.781 -112.73)" fill="#00223d"/><path d="M-2778.9,1893.7a4.7,4.7,0,0,1,.487.128c.733.308,1.473.6,2.192.942a.8.8,0,0,1,.463,1.083.826.826,0,0,1-1.128.473c-.741-.288-1.468-.615-2.187-.954a.737.737,0,0,1-.45-.982A2.727,2.727,0,0,1-2778.9,1893.7Z" transform="translate(-14.758 -125.265)" fill="#00223d"/><path d="M-2795.209,1959.232c.73.092,1.5.171,2.271.291a.834.834,0,0,1,.75.913.875.875,0,0,1-.967.767c-.773-.072-1.546-.166-2.312-.287a.846.846,0,0,1-.777-.946A.912.912,0,0,1-2795.209,1959.232Z" transform="translate(0 -183.291)" fill="#00223d"/><path d="M-2694.248,1791.632a2.475,2.475,0,0,1,.6.476c.429.576.812,1.188,1.191,1.8a.871.871,0,0,1-.178,1.26.855.855,0,0,1-1.229-.306c-.434-.62-.855-1.252-1.24-1.9C-2695.466,1792.339-2695.1,1791.653-2694.248,1791.632Z" transform="translate(-89.448 -34.88)" fill="#00223d"/><path d="M-2790.469,2022.639c.57.016.907.222.99.706a.767.767,0,0,1-.6.955c-.829.189-1.67.343-2.514.45a.756.756,0,0,1-.862-.662.763.763,0,0,1,.577-.969C-2792.056,2022.917-2791.213,2022.784-2790.469,2022.639Z" transform="translate(-2.455 -239.44)" fill="#00223d"/><path d="M-2633.842,1762.65c.136.141.479.352.6.652a18.089,18.089,0,0,1,.667,2.172.849.849,0,0,1-.574,1.128.862.862,0,0,1-1.068-.687c-.222-.685-.436-1.373-.62-2.069C-2635.01,1763.193-2634.657,1762.675-2633.842,1762.65Z" transform="translate(-142.898 -9.216)" fill="#00223d"/><path d="M-2741.636,1839.4c.013.746-.7,1.21-1.232.83a20.7,20.7,0,0,1-2.054-1.718.683.683,0,0,1-.014-1.027c.228-.2.76-.385.937-.262a26.349,26.349,0,0,1,2.234,1.845C-2741.667,1839.154-2741.657,1839.341-2741.636,1839.4Z" transform="translate(-45.243 -75.216)" fill="#00223d"/><path d="M-2768.183,2079.036a3.758,3.758,0,0,1,.756.734.683.683,0,0,1-.28.944c-.775.434-1.569.84-2.377,1.207a.664.664,0,0,1-.92-.335c-.109-.276-.135-.822.018-.924C-2770.115,2080.082-2769.179,2079.6-2768.183,2079.036Z" transform="translate(-22.28 -289.38)" fill="#00223d"/><path d="M-2730.285,2129.642c.2.154.514.289.616.521a.945.945,0,0,1-.042.833,22.176,22.176,0,0,1-1.959,1.89.728.728,0,0,1-1.068-.143.73.73,0,0,1-.05-1.036c.609-.647,1.27-1.245,1.926-1.846A2.005,2.005,0,0,1-2730.285,2129.642Z" transform="translate(-56.029 -334.193)" fill="#00223d"/><path d="M-2496.32,1861.006a5.926,5.926,0,0,1,7.67-5.7.87.87,0,0,1,.71,1.107.868.868,0,0,1-1.2.537,4.194,4.194,0,0,0-3.409.4,4.269,4.269,0,0,0-1.7,5.326,4.17,4.17,0,0,0,5.22,2.3,4.245,4.245,0,0,0,2.718-4.831c-.036-.167-.085-.332-.115-.5a.853.853,0,0,1,.615-1.062.846.846,0,0,1,1.043.651,5.921,5.921,0,0,1-.117,3.864,5.923,5.923,0,0,1-7.519,3.489A6,6,0,0,1-2496.32,1861.006Z" transform="translate(-265.596 -91.03)" fill="#00223d"/><path d="M-2467.954,1886.723a3.011,3.011,0,0,1-3.009-3.012,3.017,3.017,0,0,1,2.987-2.979,2.99,2.99,0,0,1,3,3.014A2.983,2.983,0,0,1-2467.954,1886.723Zm1.248-3.016a1.258,1.258,0,0,0-1.28-1.253,1.3,1.3,0,0,0-1.251,1.3,1.291,1.291,0,0,0,1.294,1.252A1.257,1.257,0,0,0-2466.706,1883.707Z" transform="translate(-288.051 -113.779)" fill="#00223d"/></g></g></svg>