<svg id="Grupo_26772" data-name="Grupo 26772" xmlns="http://www.w3.org/2000/svg" xmlns:xlink="http://www.w3.org/1999/xlink" width="107.108" height="107.105" viewBox="0 0 107.108 107.105">
  <defs>
    <linearGradient id="linear-gradient" x1="0.5" x2="0.5" y2="1" gradientUnits="objectBoundingBox">
      <stop offset="0" stop-color="#fff"/>
      <stop offset="1" stop-color="#d2e6ee"/>
    </linearGradient>
  </defs>
  <g id="Grupo_26713" data-name="Grupo 26713" transform="translate(84.434 10.311)">
    <path id="Trazado_67555" data-name="Trazado 67555" d="M2033.7,4790.266a.52.52,0,0,1-.37-.886,52.573,52.573,0,0,0,3.958-4.481.52.52,0,1,1,.817.644,53.592,53.592,0,0,1-4.036,4.569A.519.519,0,0,1,2033.7,4790.266Zm7.468-9.5a.519.519,0,0,1-.443-.792,52.481,52.481,0,0,0,2.85-5.289.52.52,0,1,1,.943.439,53.627,53.627,0,0,1-2.906,5.395A.52.52,0,0,1,2041.167,4780.765Zm5.125-10.978a.52.52,0,0,1-.494-.684,52.659,52.659,0,0,0,1.572-5.8.52.52,0,1,1,1.018.214,53.721,53.721,0,0,1-1.6,5.914A.521.521,0,0,1,2046.292,4769.787Zm2.5-11.856-.05,0a.52.52,0,0,1-.469-.566c.154-1.642.232-3.305.232-4.943q0-.532-.011-1.062a.519.519,0,0,1,.51-.53.507.507,0,0,1,.53.509q.011.541.011,1.083c0,1.671-.08,3.367-.237,5.04A.52.52,0,0,1,2048.789,4757.93Zm-.25-12.113a.52.52,0,0,1-.515-.45,52.157,52.157,0,0,0-1.153-5.895.52.52,0,1,1,1.007-.258,53.156,53.156,0,0,1,1.176,6.013.52.52,0,0,1-.445.585A.441.441,0,0,1,2048.54,4745.817Zm-3.007-11.734a.519.519,0,0,1-.485-.334,52.843,52.843,0,0,0-2.467-5.478.52.52,0,1,1,.922-.48,53.778,53.778,0,0,1,2.516,5.586.521.521,0,0,1-.486.706Zm-5.6-10.745a.519.519,0,0,1-.431-.229,53.247,53.247,0,0,0-3.641-4.78.52.52,0,1,1,.79-.676,54.209,54.209,0,0,1,3.712,4.874.52.52,0,0,1-.43.812Zm-7.877-9.207a.515.515,0,0,1-.354-.14,53.048,53.048,0,0,0-4.624-3.836.52.52,0,1,1,.617-.837,53.964,53.964,0,0,1,4.715,3.912.52.52,0,0,1-.354.9Z" transform="translate(-2026.869 -4709.218)" fill="#00223d"/>
  </g>
  <g id="Grupo_26714" data-name="Grupo 26714" transform="translate(0 0)">
    <path id="Trazado_67556" data-name="Trazado 67556" d="M1937.6,4798.875h-.088a.52.52,0,1,1,0-1.04h.088a52.527,52.527,0,0,0,5.912-.334.52.52,0,0,1,.117,1.034A53.688,53.688,0,0,1,1937.6,4798.875Zm-6.147-.354a.5.5,0,0,1-.06,0,54.271,54.271,0,0,1-6.038-1.043.52.52,0,1,1,.235-1.013,53.5,53.5,0,0,0,5.922,1.023.52.52,0,0,1-.058,1.037Zm18.1-1.013a.52.52,0,0,1-.117-1.026,52.657,52.657,0,0,0,5.764-1.692.52.52,0,1,1,.35.979,53.421,53.421,0,0,1-5.88,1.726A.5.5,0,0,1,1949.553,4797.508Zm-29.9-1.726a.519.519,0,0,1-.174-.03,53.414,53.414,0,0,1-5.644-2.387.52.52,0,1,1,.46-.933,52.354,52.354,0,0,0,5.533,2.34.52.52,0,0,1-.175,1.01Zm-10.865-5.357a.516.516,0,0,1-.282-.083,53.151,53.151,0,0,1-4.943-3.618.52.52,0,1,1,.661-.8,52.357,52.357,0,0,0,4.847,3.547.52.52,0,0,1-.282.957Zm-9.347-7.7a.516.516,0,0,1-.374-.159c-1.067-1.106-2.1-2.275-3.076-3.474q-.471-.579-.923-1.169a.52.52,0,1,1,.824-.633q.444.579.906,1.146c.956,1.176,1.971,2.323,3.017,3.408a.52.52,0,0,1-.375.88Zm-7.381-9.611a.521.521,0,0,1-.446-.252,53.56,53.56,0,0,1-2.855-5.421.52.52,0,1,1,.946-.431,52.614,52.614,0,0,0,2.8,5.316.52.52,0,0,1-.445.788Zm-5.018-11.028a.521.521,0,0,1-.5-.361,53.23,53.23,0,0,1-1.536-5.932.52.52,0,0,1,1.02-.2,52.074,52.074,0,0,0,1.506,5.815.52.52,0,0,1-.495.679Zm-2.354-11.883a.52.52,0,0,1-.518-.479c-.115-1.424-.173-2.87-.172-4.3,0-.6.011-1.219.031-1.826a.52.52,0,1,1,1.039.035c-.02.6-.03,1.2-.03,1.791,0,1.4.057,2.82.169,4.216a.52.52,0,0,1-.477.56Zm.406-12.11a.513.513,0,0,1-.076-.006.519.519,0,0,1-.438-.59,53.718,53.718,0,0,1,1.238-6,.52.52,0,1,1,1,.268,52.779,52.779,0,0,0-1.214,5.885A.52.52,0,0,1,1885.092,4738.09Zm3.121-11.708a.513.513,0,0,1-.19-.037.519.519,0,0,1-.293-.674,53.645,53.645,0,0,1,2.569-5.563.52.52,0,1,1,.918.49,52.675,52.675,0,0,0-2.519,5.454A.52.52,0,0,1,1888.213,4726.382Zm5.7-10.689a.519.519,0,0,1-.427-.815,53.73,53.73,0,0,1,3.767-4.831.52.52,0,0,1,.782.686,52.593,52.593,0,0,0-3.695,4.737A.518.518,0,0,1,1893.917,4715.693Zm7.985-9.11a.519.519,0,0,1-.349-.9l.244-.22a54.061,54.061,0,0,1,4.519-3.634.52.52,0,0,1,.608.844,52.971,52.971,0,0,0-4.432,3.563l-.24.216A.516.516,0,0,1,1901.9,4706.583Zm9.84-7.072a.52.52,0,0,1-.253-.975,53.828,53.828,0,0,1,5.513-2.675.52.52,0,0,1,.4.96,52.8,52.8,0,0,0-5.406,2.623A.515.515,0,0,1,1911.741,4699.512Zm11.185-4.655a.52.52,0,0,1-.143-1.02,53.573,53.573,0,0,1,5.976-1.349.52.52,0,0,1,.17,1.026,52.516,52.516,0,0,0-5.859,1.322A.5.5,0,0,1,1922.926,4694.857Zm18.019-1.937h-.034a53.206,53.206,0,0,0-6.008-.046.51.51,0,0,1-.545-.494.519.519,0,0,1,.494-.544,53.924,53.924,0,0,1,6.127.046.52.52,0,0,1-.033,1.039Z" transform="translate(-1883.996 -4691.77)" fill="#00223d"/>
  </g>
  <circle id="Elipse_2836" data-name="Elipse 2836" cx="38.98" cy="38.98" r="38.98" transform="translate(14.576 14.573)" fill="url(#linear-gradient)"/>
  <g id="Grupo_26715" data-name="Grupo 26715" transform="translate(62.752 23.867)">
    <path id="Trazado_67557" data-name="Trazado 67557" d="M1991.06,4738.908v9.287a5.768,5.768,0,0,0,5.768,5.768h16.864c.166,0,.328-.011.49-.025l5.552,6.692-.277-12.378c0-.02,0-.038,0-.057V4738.8a5.768,5.768,0,0,0-5.768-5.768h-8.58Z" transform="translate(-1990.54 -4732.516)" fill="#26aab7"/>
    <path id="Trazado_67558" data-name="Trazado 67558" d="M2019.374,4760.79a.521.521,0,0,1-.4-.187l-5.381-6.487c-.086,0-.173.008-.26.008h-16.864a6.3,6.3,0,0,1-6.288-6.288v-9.287a.52.52,0,0,1,1.04,0v9.287a5.254,5.254,0,0,0,5.248,5.248h16.864c.151,0,.3-.011.446-.023a.521.521,0,0,1,.444.186l4.6,5.544-.243-10.887c0-.015,0-.057,0-.073v-9.385a5.253,5.253,0,0,0-5.248-5.248h-8.58a.52.52,0,0,1,0-1.041h8.58a6.3,6.3,0,0,1,6.288,6.288v9.391c0,.012,0,.054,0,.065l.277,12.358a.519.519,0,0,1-.338.5A.506.506,0,0,1,2019.374,4760.79Z" transform="translate(-1990.18 -4732.156)" fill="#00223d"/>
  </g>
  <g id="Grupo_26717" data-name="Grupo 26717" transform="translate(65.634 29.186)">
    <g id="Grupo_26716" data-name="Grupo 26716">
      <path id="Trazado_67559" data-name="Trazado 67559" d="M2003.759,4742.035l3.979,10.24a1.049,1.049,0,0,1-.6,1.357,1.034,1.034,0,0,1-.38.072,1.05,1.05,0,0,1-.978-.67l-1.573-4.048h-4.672l-1.576,4.049a1.049,1.049,0,0,1-1.955-.762l3.774-9.7Zm-3.4,4.854h3.04l-1.518-3.908Z" transform="translate(-1995.416 -4741.515)" fill="#fff"/>
      <path id="Trazado_67560" data-name="Trazado 67560" d="M2006.4,4753.865a1.559,1.559,0,0,1-1.463-1l-1.444-3.716h-3.96l-1.447,3.717a1.569,1.569,0,1,1-2.924-1.138l3.774-9.7a.52.52,0,0,1,.969.377l-3.774,9.7a.529.529,0,0,0,.986.384l1.576-4.049a.519.519,0,0,1,.484-.331h4.672a.52.52,0,0,1,.485.332l1.573,4.048a.529.529,0,0,0,.986-.383l-3.979-10.241a.52.52,0,1,1,.969-.376l3.979,10.24a1.569,1.569,0,0,1-1.462,2.138Zm-3.366-6.815h-3.04a.52.52,0,0,1-.484-.709l1.521-3.909a.52.52,0,0,1,.969,0l1.518,3.908a.52.52,0,0,1-.485.709Zm-2.279-1.04h1.519l-.759-1.954Z" transform="translate(-1995.056 -4741.155)" fill="#00223d"/>
    </g>
  </g>
  <g id="Grupo_26721" data-name="Grupo 26721" transform="translate(79.223 38.873)">
    <g id="Grupo_26718" data-name="Grupo 26718">
      <circle id="Elipse_2837" data-name="Elipse 2837" cx="1.049" cy="1.049" r="1.049" transform="translate(0.52 0.52)" fill="#fff"/>
      <path id="Trazado_67561" data-name="Trazado 67561" d="M2019.62,4760.686a1.569,1.569,0,1,1,1.569-1.569A1.571,1.571,0,0,1,2019.62,4760.686Zm0-2.1a.529.529,0,1,0,.529.529A.53.53,0,0,0,2019.62,4758.588Z" transform="translate(-2018.051 -4757.548)" fill="#00223d"/>
    </g>
    <g id="Grupo_26719" data-name="Grupo 26719" transform="translate(3.497)">
      <circle id="Elipse_2838" data-name="Elipse 2838" cx="1.049" cy="1.049" r="1.049" transform="matrix(0.23, -0.973, 0.973, 0.23, 0.307, 2.349)" fill="#fff"/>
      <path id="Trazado_67562" data-name="Trazado 67562" d="M2025.537,4760.686a1.569,1.569,0,1,1,1.568-1.569A1.571,1.571,0,0,1,2025.537,4760.686Zm0-2.1a.529.529,0,1,0,.529.529A.529.529,0,0,0,2025.537,4758.588Z" transform="translate(-2023.968 -4757.548)" fill="#00223d"/>
    </g>
    <g id="Grupo_26720" data-name="Grupo 26720" transform="translate(6.993)">
      <circle id="Elipse_2839" data-name="Elipse 2839" cx="1.049" cy="1.049" r="1.049" transform="matrix(0.23, -0.973, 0.973, 0.23, 0.307, 2.349)" fill="#fff"/>
      <path id="Trazado_67563" data-name="Trazado 67563" d="M2031.453,4760.686a1.569,1.569,0,1,1,1.569-1.569A1.571,1.571,0,0,1,2031.453,4760.686Zm0-2.1a.529.529,0,1,0,.53.529A.53.53,0,0,0,2031.453,4758.588Z" transform="translate(-2029.884 -4757.548)" fill="#00223d"/>
    </g>
  </g>
  <g id="Grupo_26722" data-name="Grupo 26722" transform="translate(48.324 8.803)">
    <path id="Trazado_67564" data-name="Trazado 67564" d="M1966.646,4735.344l.072-12.584c0-.02,0-.037,0-.057v-9.391a5.767,5.767,0,0,1,5.767-5.768h16.865a5.768,5.768,0,0,1,5.768,5.768v9.391a5.768,5.768,0,0,1-5.768,5.768h-16.865c-.165,0-.327-.011-.489-.024Z" transform="translate(-1966.126 -4707.025)" fill="#f5ca56"/>
    <path id="Trazado_67565" data-name="Trazado 67565" d="M1966.286,4735.5a.52.52,0,0,1-.52-.522l.071-12.584a.407.407,0,0,1,0-.054v-9.391a6.3,6.3,0,0,1,6.287-6.288h16.865a6.294,6.294,0,0,1,6.287,6.288v9.391a6.294,6.294,0,0,1-6.287,6.287h-16.865c-.083,0-.166,0-.248-.006l-5.176,6.678A.519.519,0,0,1,1966.286,4735.5Zm5.836-27.8a5.253,5.253,0,0,0-5.247,5.248l0,9.438-.062,11.063,4.407-5.685a.517.517,0,0,1,.454-.2c.148.013.3.023.446.023h16.865a5.255,5.255,0,0,0,5.248-5.248v-9.391a5.254,5.254,0,0,0-5.248-5.248Z" transform="translate(-1965.766 -4706.665)" fill="#00223d"/>
  </g>
  <g id="Grupo_26727" data-name="Grupo 26727" transform="translate(50.837 10.37)">
    <g id="Grupo_26724" data-name="Grupo 26724">
      <g id="Grupo_26723" data-name="Grupo 26723">
        <path id="Trazado_67566" data-name="Trazado 67566" d="M1978.26,4725.142a5.124,5.124,0,0,1-7.362-4.611v-5.208a5.126,5.126,0,0,1,10.251,0v5.208a5.1,5.1,0,0,1-1.249,3.35l.027.024,1.117,1.116a1.049,1.049,0,0,1-1.483,1.484l-1.327-1.328Z" transform="translate(-1970.378 -4709.677)" fill="#fff"/>
        <path id="Trazado_67567" data-name="Trazado 67567" d="M1979.943,4726.972a1.561,1.561,0,0,1-1.109-.459l-1.092-1.092a5.594,5.594,0,0,1-2.078.4,5.652,5.652,0,0,1-5.646-5.646v-5.208a5.646,5.646,0,1,1,11.291,0v5.208a5.638,5.638,0,0,1-1.073,3.308l.816.815a1.569,1.569,0,0,1-1.109,2.678Zm-1.557-2.378,1.183,1.183a.542.542,0,0,0,.748,0,.529.529,0,0,0,0-.748l-1.119-1.118a.52.52,0,0,1-.051-.731,4.6,4.6,0,0,0,1.122-3.009v-5.208a4.605,4.605,0,0,0-9.211,0v5.208a4.611,4.611,0,0,0,4.605,4.605,4.54,4.54,0,0,0,2.009-.462.521.521,0,0,1,.632.142A.5.5,0,0,1,1978.385,4724.594Z" transform="translate(-1970.018 -4709.317)" fill="#00223d"/>
      </g>
    </g>
    <g id="Grupo_26726" data-name="Grupo 26726" transform="translate(2.099 2.098)">
      <g id="Grupo_26725" data-name="Grupo 26725">
        <path id="Trazado_67568" data-name="Trazado 67568" d="M1977.476,4713.747a3.031,3.031,0,0,0-3.028,3.027v5.208a3.028,3.028,0,1,0,6.055,0v-5.208A3.031,3.031,0,0,0,1977.476,4713.747Z" transform="translate(-1973.928 -4713.227)" fill="#ffce3b"/>
        <path id="Trazado_67569" data-name="Trazado 67569" d="M1977.116,4725.171a3.551,3.551,0,0,1-3.547-3.548v-5.208a3.547,3.547,0,1,1,7.095,0v5.208A3.552,3.552,0,0,1,1977.116,4725.171Zm0-11.264a2.51,2.51,0,0,0-2.508,2.508v5.208a2.508,2.508,0,0,0,5.015,0v-5.208A2.51,2.51,0,0,0,1977.116,4713.907Z" transform="translate(-1973.569 -4712.867)" fill="#00223d"/>
      </g>
    </g>
  </g>
  <g id="Grupo_26731" data-name="Grupo 26731" transform="translate(63.139 25.237)">
    <g id="Grupo_26728" data-name="Grupo 26728">
      <circle id="Elipse_2840" data-name="Elipse 2840" cx="1.049" cy="1.049" r="1.049" transform="translate(0.52 0.52)" fill="#fff"/>
      <path id="Trazado_67570" data-name="Trazado 67570" d="M1992.4,4737.611a1.569,1.569,0,1,1,1.569-1.569A1.571,1.571,0,0,1,1992.4,4737.611Zm0-2.1a.529.529,0,1,0,.529.529A.53.53,0,0,0,1992.4,4735.513Z" transform="translate(-1990.835 -4734.473)" fill="#00223d"/>
    </g>
    <g id="Grupo_26729" data-name="Grupo 26729" transform="translate(3.496)">
      <circle id="Elipse_2841" data-name="Elipse 2841" cx="1.049" cy="1.049" r="1.049" transform="translate(0.52 0.52)" fill="#fff"/>
      <path id="Trazado_67571" data-name="Trazado 67571" d="M1998.32,4737.611a1.569,1.569,0,1,1,1.569-1.569A1.571,1.571,0,0,1,1998.32,4737.611Zm0-2.1a.529.529,0,1,0,.529.529A.529.529,0,0,0,1998.32,4735.513Z" transform="translate(-1996.751 -4734.473)" fill="#00223d"/>
    </g>
    <g id="Grupo_26730" data-name="Grupo 26730" transform="translate(6.993)">
      <circle id="Elipse_2842" data-name="Elipse 2842" cx="1.049" cy="1.049" r="1.049" transform="translate(0.52 0.52)" fill="#fff"/>
      <path id="Trazado_67572" data-name="Trazado 67572" d="M2004.237,4737.611a1.569,1.569,0,1,1,1.569-1.569A1.571,1.571,0,0,1,2004.237,4737.611Zm0-2.1a.529.529,0,1,0,.529.529A.529.529,0,0,0,2004.237,4735.513Z" transform="translate(-2002.668 -4734.473)" fill="#00223d"/>
    </g>
  </g>
  <g id="Grupo_26751" data-name="Grupo 26751" transform="translate(42.064 52.253)">
    <g id="Grupo_26732" data-name="Grupo 26732" transform="translate(10.839 10.84)">
      <path id="Trazado_67573" data-name="Trazado 67573" d="M1991.572,4820.39h-13.68l-3.5-3.5v-13.724l3.8-3.759h13.68l3.5,3.8v13.637Z" transform="translate(-1973.875 -4798.89)" fill="#26aab7"/>
      <path id="Trazado_67574" data-name="Trazado 67574" d="M1991.212,4820.55h-13.68a.522.522,0,0,1-.368-.152l-3.5-3.5a.52.52,0,0,1-.152-.368v-13.724a.517.517,0,0,1,.155-.369l3.8-3.759a.523.523,0,0,1,.365-.15h13.681a.52.52,0,0,1,.383.168l3.5,3.8a.522.522,0,0,1,.137.352v13.637a.518.518,0,0,1-.165.38l-3.8,3.541A.522.522,0,0,1,1991.212,4820.55Zm-13.465-1.041h13.26l3.487-3.247v-13.208l-3.2-3.485h-13.239l-3.5,3.456v13.291Z" transform="translate(-1973.515 -4798.53)" fill="#00223d"/>
    </g>
    <g id="Grupo_26736" data-name="Grupo 26736" transform="translate(16.784 13.637)">
      <g id="Grupo_26734" data-name="Grupo 26734">
        <g id="Grupo_26733" data-name="Grupo 26733">
          <path id="Trazado_67575" data-name="Trazado 67575" d="M1989,4816.381a1.049,1.049,0,0,1-1.049-1.049c0-2.669.733-3.393,1.94-4.268a8.456,8.456,0,0,0,1-.81,2.183,2.183,0,0,0,.561-1.566,2.448,2.448,0,1,0-4.9,0,1.049,1.049,0,1,1-2.1,0,4.546,4.546,0,0,1,9.091,0,4.215,4.215,0,0,1-1.2,3.068,10.156,10.156,0,0,1-1.229,1.006c-.8.582-1.073.778-1.073,2.57A1.049,1.049,0,0,1,1989,4816.381Z" transform="translate(-1983.934 -4803.624)" fill="#fff"/>
          <path id="Trazado_67576" data-name="Trazado 67576" d="M1988.639,4816.542a1.571,1.571,0,0,1-1.569-1.568c0-2.91.853-3.746,2.155-4.689a7.824,7.824,0,0,0,.938-.763,1.69,1.69,0,0,0,.4-1.192,1.927,1.927,0,1,0-3.855,0,1.569,1.569,0,1,1-3.138,0,5.066,5.066,0,0,1,10.131,0,4.732,4.732,0,0,1-1.352,3.44,10.866,10.866,0,0,1-1.287,1.055c-.727.527-.858.622-.858,2.148A1.57,1.57,0,0,1,1988.639,4816.542Zm0-11.179a2.97,2.97,0,0,1,2.968,2.967,2.7,2.7,0,0,1-.718,1.938,8.808,8.808,0,0,1-1.048.856c-1.107.8-1.73,1.374-1.73,3.85a.529.529,0,0,0,1.058,0c0-1.9.314-2.286,1.288-2.991a9.766,9.766,0,0,0,1.171-.958,3.7,3.7,0,0,0,1.038-2.7,4.026,4.026,0,0,0-8.051,0,.529.529,0,1,0,1.058,0A2.97,2.97,0,0,1,1988.639,4805.362Z" transform="translate(-1983.574 -4803.264)" fill="#00223d"/>
        </g>
      </g>
      <g id="Grupo_26735" data-name="Grupo 26735" transform="translate(3.496 13.986)">
        <circle id="Elipse_2843" data-name="Elipse 2843" cx="1.049" cy="1.049" r="1.049" transform="matrix(0.23, -0.973, 0.973, 0.23, 0.307, 2.349)" fill="#fff"/>
        <path id="Trazado_67577" data-name="Trazado 67577" d="M1991.059,4830.068a1.569,1.569,0,1,1,1.569-1.569A1.571,1.571,0,0,1,1991.059,4830.068Zm0-2.1a.529.529,0,1,0,.529.529A.529.529,0,0,0,1991.059,4827.97Z" transform="translate(-1989.49 -4826.93)" fill="#00223d"/>
      </g>
    </g>
    <g id="Grupo_26738" data-name="Grupo 26738">
      <g id="Grupo_26737" data-name="Grupo 26737">
        <path id="Trazado_67578" data-name="Trazado 67578" d="M1967.551,4795.4h-8.658a2.84,2.84,0,0,1-2.839-2.84v-8.657a2.839,2.839,0,0,1,2.839-2.839h8.658a2.839,2.839,0,0,1,2.839,2.839l-.044,14.294Z" transform="translate(-1955.534 -4780.548)" fill="#fff"/>
        <path id="Trazado_67579" data-name="Trazado 67579" d="M1969.986,4798.361a.519.519,0,0,1-.368-.152l-2.643-2.645h-8.442a3.363,3.363,0,0,1-3.359-3.359v-8.657a3.363,3.363,0,0,1,3.359-3.36h8.658a3.363,3.363,0,0,1,3.359,3.36l-.044,14.3a.52.52,0,0,1-.52.518Zm-11.453-17.133a2.321,2.321,0,0,0-2.319,2.319v8.657a2.322,2.322,0,0,0,2.319,2.319h8.658a.52.52,0,0,1,.368.152l1.911,1.912.04-13.043a2.321,2.321,0,0,0-2.319-2.317Z" transform="translate(-1955.174 -4780.188)" fill="#00223d"/>
      </g>
    </g>
    <g id="Grupo_26740" data-name="Grupo 26740" transform="translate(28.322)">
      <g id="Grupo_26739" data-name="Grupo 26739">
        <path id="Trazado_67580" data-name="Trazado 67580" d="M2006.818,4795.4h8.657a2.84,2.84,0,0,0,2.84-2.84v-8.657a2.839,2.839,0,0,0-2.84-2.839h-8.657a2.839,2.839,0,0,0-2.839,2.839l.044,14.294Z" transform="translate(-2003.459 -4780.548)" fill="#fff"/>
        <path id="Trazado_67581" data-name="Trazado 67581" d="M2003.663,4798.361a.52.52,0,0,1-.52-.518l-.044-14.294a3.363,3.363,0,0,1,3.359-3.361h8.657a3.363,3.363,0,0,1,3.36,3.36v8.657a3.363,3.363,0,0,1-3.36,3.359h-8.441l-2.643,2.645A.519.519,0,0,1,2003.663,4798.361Zm2.8-17.133a2.321,2.321,0,0,0-2.319,2.319l.04,13.041,1.912-1.912a.518.518,0,0,1,.367-.152h8.657a2.323,2.323,0,0,0,2.32-2.319v-8.657a2.322,2.322,0,0,0-2.32-2.319Z" transform="translate(-2003.099 -4780.188)" fill="#00223d"/>
      </g>
    </g>
    <g id="Grupo_26742" data-name="Grupo 26742" transform="translate(0 25.526)">
      <g id="Grupo_26741" data-name="Grupo 26741">
        <path id="Trazado_67582" data-name="Trazado 67582" d="M1967.551,4827.057h-8.658a2.839,2.839,0,0,0-2.839,2.839v8.657a2.84,2.84,0,0,0,2.839,2.84h8.658a2.84,2.84,0,0,0,2.839-2.84l-.044-14.294Z" transform="translate(-1955.534 -4823.74)" fill="#f5ca56"/>
        <path id="Trazado_67583" data-name="Trazado 67583" d="M1967.191,4841.553h-8.658a3.363,3.363,0,0,1-3.359-3.359v-8.657a3.363,3.363,0,0,1,3.359-3.36h8.442l2.643-2.645a.52.52,0,0,1,.888.366l.044,14.294A3.363,3.363,0,0,1,1967.191,4841.553Zm-8.658-14.336a2.321,2.321,0,0,0-2.319,2.32v8.657a2.322,2.322,0,0,0,2.319,2.32h8.658a2.322,2.322,0,0,0,2.319-2.32l-.04-13.042-1.911,1.913a.522.522,0,0,1-.368.152Z" transform="translate(-1955.174 -4823.38)" fill="#00223d"/>
      </g>
    </g>
    <g id="Grupo_26744" data-name="Grupo 26744" transform="translate(28.322 25.526)">
      <g id="Grupo_26743" data-name="Grupo 26743">
        <path id="Trazado_67584" data-name="Trazado 67584" d="M2006.818,4827.057h8.657a2.839,2.839,0,0,1,2.84,2.839v8.657a2.84,2.84,0,0,1-2.84,2.84h-8.657a2.839,2.839,0,0,1-2.839-2.84l.044-14.294Z" transform="translate(-2003.459 -4823.74)" fill="#fff"/>
        <path id="Trazado_67585" data-name="Trazado 67585" d="M2015.115,4841.553h-8.657a3.363,3.363,0,0,1-3.359-3.359l.044-14.3a.52.52,0,0,1,.888-.366l2.643,2.645h8.441a3.363,3.363,0,0,1,3.36,3.36v8.657A3.363,3.363,0,0,1,2015.115,4841.553Zm-10.937-16.4-.04,13.043a2.321,2.321,0,0,0,2.319,2.318h8.657a2.322,2.322,0,0,0,2.32-2.32v-8.657a2.322,2.322,0,0,0-2.32-2.32h-8.657a.52.52,0,0,1-.367-.152Z" transform="translate(-2003.099 -4823.38)" fill="#00223d"/>
      </g>
    </g>
    <g id="Grupo_26745" data-name="Grupo 26745" transform="translate(4.196 4.197)">
      <path id="Trazado_67586" data-name="Trazado 67586" d="M1964.892,4793.923h-.027a.522.522,0,0,1-.419-.252l-2.1-3.5a.52.52,0,1,1,.892-.534l1.7,2.833,3.731-4.976a.52.52,0,1,1,.832.623l-4.2,5.6A.52.52,0,0,1,1964.892,4793.923Z" transform="translate(-1962.274 -4787.289)" fill="#00223d"/>
    </g>
    <g id="Grupo_26746" data-name="Grupo 26746" transform="translate(32.868 4.197)">
      <path id="Trazado_67587" data-name="Trazado 67587" d="M2013.408,4793.923h-.027a.52.52,0,0,1-.419-.252l-2.1-3.5a.52.52,0,1,1,.892-.534l1.7,2.833,3.732-4.976a.52.52,0,1,1,.832.623l-4.2,5.6A.52.52,0,0,1,2013.408,4793.923Z" transform="translate(-2010.79 -4787.289)" fill="#00223d"/>
    </g>
    <g id="Grupo_26747" data-name="Grupo 26747" transform="translate(32.868 32.169)">
      <path id="Trazado_67588" data-name="Trazado 67588" d="M2013.408,4841.256h-.027a.519.519,0,0,1-.419-.252l-2.1-3.5a.52.52,0,1,1,.892-.535l1.7,2.833,3.732-4.976a.52.52,0,0,1,.832.624l-4.2,5.595A.522.522,0,0,1,2013.408,4841.256Z" transform="translate(-2010.79 -4834.622)" fill="#00223d"/>
    </g>
    <g id="Grupo_26750" data-name="Grupo 26750" transform="translate(4.283 32.956)">
      <g id="Grupo_26748" data-name="Grupo 26748">
        <path id="Trazado_67589" data-name="Trazado 67589" d="M1968.187,4842.238a.518.518,0,0,1-.368-.152l-5.245-5.245a.52.52,0,0,1,.735-.735l5.245,5.245a.52.52,0,0,1-.367.887Z" transform="translate(-1962.422 -4835.953)" fill="#00223d"/>
      </g>
      <g id="Grupo_26749" data-name="Grupo 26749">
        <path id="Trazado_67590" data-name="Trazado 67590" d="M1962.942,4842.238a.52.52,0,0,1-.368-.887l5.245-5.245a.52.52,0,1,1,.735.735l-5.245,5.245A.518.518,0,0,1,1962.942,4842.238Z" transform="translate(-1962.422 -4835.953)" fill="#00223d"/>
      </g>
    </g>
  </g>
  <g id="Grupo_26754" data-name="Grupo 26754" transform="translate(12.689 33.146)">
    <g id="Grupo_26752" data-name="Grupo 26752">
      <rect id="Rect치ngulo_25698" data-name="Rect치ngulo 25698" width="21.446" height="35.245" rx="1.756" transform="translate(0.52 0.52)" fill="#26aab7"/>
      <path id="Trazado_67591" data-name="Trazado 67591" d="M1926.4,4784.141h-19.371a1.559,1.559,0,0,1-1.557-1.557v-33.169a1.56,1.56,0,0,1,1.557-1.558H1926.4a1.56,1.56,0,0,1,1.557,1.558v33.169A1.559,1.559,0,0,1,1926.4,4784.141Zm-19.371-35.244a.517.517,0,0,0-.517.518v33.169a.518.518,0,0,0,.517.518H1926.4a.518.518,0,0,0,.518-.518v-33.169a.518.518,0,0,0-.518-.518Z" transform="translate(-1905.468 -4747.856)" fill="#00223d"/>
    </g>
    <g id="Grupo_26753" data-name="Grupo 26753" transform="translate(0 2.185)">
      <rect id="Rect치ngulo_25699" data-name="Rect치ngulo 25699" width="21.446" height="29.553" transform="translate(0.52 0.52)" fill="#fff"/>
      <path id="Trazado_67592" data-name="Trazado 67592" d="M1927.434,4782.146h-21.446a.52.52,0,0,1-.52-.52v-29.553a.52.52,0,0,1,.52-.52h21.446a.52.52,0,0,1,.52.52v29.553A.52.52,0,0,1,1927.434,4782.146Zm-20.926-1.04h20.406v-28.513h-20.406Z" transform="translate(-1905.468 -4751.553)" fill="#00223d"/>
    </g>
  </g>
  <g id="Grupo_26763" data-name="Grupo 26763" transform="translate(22.604 27.761)">
    <g id="Grupo_26757" data-name="Grupo 26757">
      <g id="Grupo_26756" data-name="Grupo 26756">
        <g id="Grupo_26755" data-name="Grupo 26755">
          <path id="Trazado_67593" data-name="Trazado 67593" d="M1941.339,4740.759a1.059,1.059,0,0,0-.965-1.134c-1.949,0-6.323,0-8.142,0-1.743,0-6.175,0-8.141,0a1.06,1.06,0,0,0-.966,1.134v13.263a1.059,1.059,0,0,0,.968,1.134l4.556-.011c.212.011.277.37.143.562a11.99,11.99,0,0,1-1.912,2.238,10.066,10.066,0,0,0,5.677-2.41,1.165,1.165,0,0,1,.8-.421l7.014.017a1.059,1.059,0,0,0,.968-1.134Z" transform="translate(-1922.605 -4739.104)" fill="#f5ca56"/>
          <path id="Trazado_67594" data-name="Trazado 67594" d="M1926.521,4758.1a.52.52,0,0,1-.33-.921,11.256,11.256,0,0,0,1.634-1.878l-4.09.011a1.4,1.4,0,0,1-1-.421,1.745,1.745,0,0,1-.494-1.233V4740.4a1.579,1.579,0,0,1,1.486-1.654c1.967,0,6.4,0,8.142,0,1.819,0,6.193,0,8.142,0a1.424,1.424,0,0,1,1.078.515,1.752,1.752,0,0,1,.407,1.139v13.238a1.743,1.743,0,0,1-.493,1.232,1.4,1.4,0,0,1-.993.421l-7.017-.017c-.122,0-.185.047-.4.238l-.056.05a10.513,10.513,0,0,1-6,2.542Zm1.768-3.84a.732.732,0,0,1,.641.421.977.977,0,0,1-.07.959c-.321.46-.62.845-.883,1.162a9.358,9.358,0,0,0,3.876-2.019l.051-.046a1.562,1.562,0,0,1,1.085-.507l7.025.018a.37.37,0,0,0,.259-.118.7.7,0,0,0,.188-.5V4740.4a.726.726,0,0,0-.158-.464.391.391,0,0,0-.287-.149c-1.95,0-6.324,0-8.142,0-1.744,0-6.175,0-8.141,0-.242,0-.446.281-.446.614v13.263a.7.7,0,0,0,.189.5.369.369,0,0,0,.258.118Z" transform="translate(-1922.245 -4738.745)" fill="#00223d"/>
        </g>
      </g>
    </g>
    <g id="Grupo_26762" data-name="Grupo 26762" transform="translate(3.991 3.953)">
      <g id="Grupo_26758" data-name="Grupo 26758">
        <path id="Trazado_67595" data-name="Trazado 67595" d="M1940.188,4746.474h-10.67a.52.52,0,0,1,0-1.04h10.67a.52.52,0,0,1,0,1.04Z" transform="translate(-1928.998 -4745.434)" fill="#00223d"/>
      </g>
      <g id="Grupo_26759" data-name="Grupo 26759" transform="translate(0 2.686)">
        <path id="Trazado_67596" data-name="Trazado 67596" d="M1940.188,4751.019h-10.67a.52.52,0,0,1,0-1.04h10.67a.52.52,0,1,1,0,1.04Z" transform="translate(-1928.998 -4749.979)" fill="#00223d"/>
      </g>
      <g id="Grupo_26760" data-name="Grupo 26760" transform="translate(0 5.372)">
        <path id="Trazado_67597" data-name="Trazado 67597" d="M1940.188,4755.563h-10.67a.52.52,0,0,1,0-1.04h10.67a.52.52,0,1,1,0,1.04Z" transform="translate(-1928.998 -4754.524)" fill="#00223d"/>
      </g>
      <g id="Grupo_26761" data-name="Grupo 26761" transform="translate(0 8.058)">
        <path id="Trazado_67598" data-name="Trazado 67598" d="M1940.188,4760.108h-10.67a.52.52,0,0,1,0-1.04h10.67a.52.52,0,1,1,0,1.04Z" transform="translate(-1928.998 -4759.069)" fill="#00223d"/>
      </g>
    </g>
  </g>
  <g id="Grupo_26771" data-name="Grupo 26771" transform="translate(10.122 46.69)">
    <g id="Grupo_26766" data-name="Grupo 26766">
      <g id="Grupo_26765" data-name="Grupo 26765">
        <g id="Grupo_26764" data-name="Grupo 26764">
          <path id="Trazado_67599" data-name="Trazado 67599" d="M1902,4772.5a.788.788,0,0,1,.719-.844h6.065c1.3,0,4.6,0,6.064,0a.79.79,0,0,1,.719.845v9.88a.789.789,0,0,1-.721.844l-3.395-.009c-.157.009-.206.276-.106.419a8.964,8.964,0,0,0,1.424,1.667,7.5,7.5,0,0,1-4.229-1.8.865.865,0,0,0-.6-.313l-5.225.013a.789.789,0,0,1-.721-.845Z" transform="translate(-1901.484 -4771.135)" fill="#f5ca56"/>
          <path id="Trazado_67600" data-name="Trazado 67600" d="M1912.414,4785.461h-.023a7.98,7.98,0,0,1-4.552-1.927l-.042-.038c-.151-.136-.169-.142-.216-.143l-5.213.012a1.176,1.176,0,0,1-.836-.353,1.433,1.433,0,0,1-.406-1.012v-9.86a1.438,1.438,0,0,1,.334-.934,1.193,1.193,0,0,1,.9-.43h6.065c1.3,0,4.6,0,6.065,0a1.308,1.308,0,0,1,1.239,1.364v9.88a1.434,1.434,0,0,1-.406,1.012,1.181,1.181,0,0,1-.833.352l-2.784-.007a7.7,7.7,0,0,0,1.038,1.164.52.52,0,0,1-.331.921Zm-4.825-3.149a1.3,1.3,0,0,1,.905.412l.038.034a6.688,6.688,0,0,0,2.437,1.364c-.128-.165-.264-.348-.4-.549a.861.861,0,0,1-.064-.848.669.669,0,0,1,.567-.388l3.424.008a.147.147,0,0,0,.1-.049.4.4,0,0,0,.1-.275v-9.88c0-.183-.107-.324-.2-.324h-12.129a.162.162,0,0,0-.113.064.405.405,0,0,0-.086.26V4782a.4.4,0,0,0,.1.276.146.146,0,0,0,.1.049Z" transform="translate(-1901.124 -4770.775)" fill="#00223d"/>
        </g>
      </g>
    </g>
    <g id="Grupo_26770" data-name="Grupo 26770" transform="translate(2.648 2.944)">
      <g id="Grupo_26767" data-name="Grupo 26767">
        <path id="Trazado_67601" data-name="Trazado 67601" d="M1914.072,4776.8h-7.948a.52.52,0,1,1,0-1.04h7.948a.52.52,0,1,1,0,1.04Z" transform="translate(-1905.604 -4775.758)" fill="#00223d"/>
      </g>
      <g id="Grupo_26768" data-name="Grupo 26768" transform="translate(0 2.825)">
        <path id="Trazado_67602" data-name="Trazado 67602" d="M1914.072,4781.578h-7.948a.52.52,0,0,1,0-1.04h7.948a.52.52,0,0,1,0,1.04Z" transform="translate(-1905.604 -4780.538)" fill="#00223d"/>
      </g>
      <g id="Grupo_26769" data-name="Grupo 26769" transform="translate(0 6.003)">
        <path id="Trazado_67603" data-name="Trazado 67603" d="M1914.072,4786.954h-7.948a.52.52,0,1,1,0-1.039h7.948a.52.52,0,1,1,0,1.039Z" transform="translate(-1905.604 -4785.915)" fill="#00223d"/>
      </g>
    </g>
  </g>
</svg>
