<?xml version="1.0" encoding="utf-8"?>
<!-- Generator: Adobe Illustrator 25.2.3, SVG Export Plug-In . SVG Version: 6.00 Build 0)  -->
<svg version="1.1" id="Capa_1" xmlns="http://www.w3.org/2000/svg" xmlns:xlink="http://www.w3.org/1999/xlink" x="0px" y="0px"
	 viewBox="0 0 90 90" style="enable-background:new 0 0 90 90;" xml:space="preserve">
<style type="text/css">
	.st0{fill:#FFE9D4;}
	.st1{fill-rule:evenodd;clip-rule:evenodd;fill:#00223D;}
	.st2{fill-rule:evenodd;clip-rule:evenodd;fill:#012B4D;}
	.st3{fill-rule:evenodd;clip-rule:evenodd;fill:#FFE9D4;}
	.st4{fill-rule:evenodd;clip-rule:evenodd;fill:#CD4022;}
</style>
<g transform="translate(317.952 -341.869)">
	<circle class="st0" cx="-273" cy="386.9" r="45"/>
	<path class="st1" d="M-272.9,430.6c24.1,0,43.7-19.6,43.7-43.7c0-24.1-19.6-43.7-43.7-43.7c-24.1,0-43.7,19.6-43.7,43.7
		C-316.6,411-297.1,430.5-272.9,430.6z"/>
	<path class="st2" d="M-316.7,387l16.8-19l44.3,12l15,14.1l-32.4,36.4C-297.1,430.5-316.6,411.1-316.7,387z"/>
	<path class="st1" d="M-272.9,406.9c16.6,0,30.2-11.1,30.2-24.6s-13.6-24.6-30.2-24.6c-16.6,0-30.2,11.1-30.2,24.6
		C-303.2,395.9-289.6,406.9-272.9,406.9z"/>
	<path class="st3" d="M-272.9,411.7c15.7,0,28.5-11.2,28.5-24.9s-12.8-24.9-28.5-24.9c-15.7,0-28.5,11.2-28.5,24.9
		S-288.6,411.7-272.9,411.7z"/>
	<ellipse class="st0" cx="-245" cy="390" rx="5.1" ry="5.9"/>
	<path class="st3" d="M-300.9,395.9c2.8,0,5.1-2.6,5.1-5.9c0-3.2-2.3-5.9-5.1-5.9s-5.1,2.6-5.1,5.9
		C-306,393.2-303.7,395.9-300.9,395.9z"/>
	<path class="st1" d="M-272.8,403.3c4.5,0.6,9.5-0.9,14.7-5.9c1.5-1.4,0.1-1.7-1.2-0.8c-5.1,3.7-8.7,6-13.4,5.6
		C-274.3,402.1-275,402.3-272.8,403.3z"/>
	<path class="st1" d="M-292.9,383.4c25.6-0.9,33.5-12.3,36.6-19.6c1-2.5-5.7-2-7.5,0.4C-268.4,370.9-279,379-292.9,383.4z"/>
	<path class="st1" d="M-305,374.1c24.5,7.5,43.2-6.8,48.4-12.7C-266.3,355.2-288.3,345.3-305,374.1z"/>
	<path class="st1" d="M-268.8,394.1c-2,2.3-5.4,2.5-7.7,0.5c-0.2-0.2-0.4-0.3-0.5-0.5c-0.5-0.7-0.2-0.7,0.1-0.5
		c1.6,0.8,6.3,0.8,7.9,0C-268.6,393.3-268.3,393.4-268.8,394.1z"/>
	<path class="st1" d="M-299.3,377.2c-1.1,7-2.2,11.6,0,19.1C-297.1,403.8-309.5,382.6-299.3,377.2z"/>
	<path class="st1" d="M-246.6,377.2c1.1,7,2.2,11.6,0,19.1C-248.8,403.8-236.4,382.6-246.6,377.2z"/>
	<path class="st1" d="M-241.1,376.2c-15.6-0.5-24.1-8.5-27.1-15.7c-1-2.5,7-0.4,9.3,1.5C-251.9,368.4-252.1,371.5-241.1,376.2z"/>
	<path class="st4" d="M-259,396.6c0.3,0,0.6,0,0.9,0c7.3-0.6,9-3.6,9.7-7.4c0.8-4.2,0.8-5.7,1.9-6.1c0.9-0.3,1-1.2,1-2.3
		c-0.1-1.1-0.1-1.2-1.5-1.7c-4-0.6-8-0.8-12-0.6v1.1c3.7-0.2,7.2,0.2,8.2,0.9c2.4,1.4,1.9,8.2,0.1,11.5c-1.3,2.4-5,3.5-8.3,3.6
		L-259,396.6z M-273,380.6c-1.6,0-8.3-1.7-13-2.1c-0.3,0-0.6,0-0.9-0.1v1.1c3.8,0.2,7.7,1,9.1,2.9c2.3,3.1-1.4,10.6-5,12.3
		c-1.3,0.6-2.7,0.8-4.2,0.8v1.1c4,0.3,7.7-2,9.4-5.6c1.4-2.6,1-6.3,4.6-6.3s3.3,3.6,4.6,6.2c1.6,3.7,5.3,5.9,9.3,5.7v-1.1
		c-1.4,0-2.9-0.2-4.2-0.8c-3.5-1.7-7.3-9.2-5-12.3c1.4-1.9,5.3-2.7,9.1-2.9v-1.1c-0.3,0-0.6,0-0.9,0.1
		C-264.1,378.8-269.2,380.5-273,380.6L-273,380.6z M-286.9,378.4c-4-0.2-8,0-12,0.6c-1.4,0.5-1.5,0.6-1.5,1.7c-0.1,1.1,0.1,2,1,2.3
		c1.2,0.4,1.2,1.9,1.9,6.1c0.7,3.8,2.4,6.9,9.7,7.4c0.3,0,0.6,0,0.9,0v-1.1c-3.3,0-7-1.2-8.3-3.6c-1.9-3.4-2.3-10.1,0.1-11.5
		c1-0.6,4.6-1,8.2-0.9L-286.9,378.4z"/>
	<path class="st1" d="M-267.3,378.2c2.7-3.8,6.1-4.6,9.9-2c1,0.7,0.5,0.8-0.1,0.7c-3-2.1-7.2-1.4-9.3,1.7c0,0.1-0.1,0.1-0.1,0.2
		C-267.2,379.2-267.9,379.1-267.3,378.2z"/>
	<path class="st1" d="M-279.8,378.2c-2.7-3.8-6.1-4.6-9.9-2c-1,0.7-0.5,0.8,0.1,0.7c3-2.1,7.2-1.4,9.3,1.7c0,0.1,0.1,0.1,0.1,0.2
		C-279.9,379.2-279.2,379.1-279.8,378.2z"/>
	<path class="st1" d="M-254.9,386.9c-2,2.3-5.4,2.5-7.7,0.5c-0.2-0.2-0.4-0.3-0.5-0.5c-0.5-0.7-0.2-0.7,0.2-0.5
		c1.6,0.8,6.3,0.8,7.9,0C-254.7,386.2-254.4,386.2-254.9,386.9z"/>
	<path class="st1" d="M-282.7,386.9c-2,2.3-5.4,2.5-7.7,0.5c-0.2-0.2-0.4-0.3-0.5-0.5c-0.5-0.7-0.2-0.7,0.2-0.5
		c1.6,0.8,6.3,0.8,7.9,0C-282.5,386.2-282.2,386.2-282.7,386.9z"/>
</g>
</svg>
