<svg xmlns="http://www.w3.org/2000/svg" width="174.656" height="351.062" viewBox="0 0 174.656 351.062"><g transform="translate(-926.307 -451.532)"><g transform="translate(926.307 497.388)"><path d="M727.056,1473.615h33.96a7.611,7.611,0,0,1,7.611,7.611v15.831a7.611,7.611,0,0,1-7.611,7.611h-.252l2.726,9.131a.433.433,0,0,1-.677.468l-12.583-9.6H727.056a7.611,7.611,0,0,1-7.611-7.611v-15.831A7.611,7.611,0,0,1,727.056,1473.615Z" transform="translate(-719.445 -1473.615)" fill="#dee7f3"/><path d="M792.021,1521.37h-32.6a3.767,3.767,0,0,1-3.767-3.768h0a3.767,3.767,0,0,1,3.767-3.767h32.6a3.767,3.767,0,0,1,3.767,3.767h0A3.767,3.767,0,0,1,792.021,1521.37Z" transform="translate(-750.465 -1508.076)" fill="#00223d" opacity="0.25"/><path d="M792.021,1601.729h-32.6a3.768,3.768,0,0,1-3.767-3.767h0a3.767,3.767,0,0,1,3.767-3.768h32.6a3.767,3.767,0,0,1,3.767,3.768h0A3.767,3.767,0,0,1,792.021,1601.729Z" transform="translate(-750.465 -1576.93)" fill="#00223d" opacity="0.25"/></g><g transform="translate(1040.74 488.53)"><path d="M761.015,1473.615H727.056a7.611,7.611,0,0,0-7.611,7.611v15.831a7.611,7.611,0,0,0,7.611,7.611h.252l-2.726,9.131a.433.433,0,0,0,.677.468l12.583-9.6h23.173a7.611,7.611,0,0,0,7.611-7.611v-15.831A7.611,7.611,0,0,0,761.015,1473.615Z" transform="translate(-719.445 -1473.615)" fill="#dee7f3"/><path d="M759.416,1521.37h32.6a3.767,3.767,0,0,0,3.767-3.768h0a3.767,3.767,0,0,0-3.767-3.767h-32.6a3.767,3.767,0,0,0-3.767,3.767h0A3.767,3.767,0,0,0,759.416,1521.37Z" transform="translate(-751.789 -1508.076)" fill="#00223d" opacity="0.25"/><path d="M759.416,1601.729h32.6a3.768,3.768,0,0,0,3.767-3.767h0a3.767,3.767,0,0,0-3.767-3.768h-32.6a3.767,3.767,0,0,0-3.767,3.768h0A3.767,3.767,0,0,0,759.416,1601.729Z" transform="translate(-751.789 -1576.93)" fill="#00223d" opacity="0.25"/></g><g transform="translate(957.773 464.98)"><g transform="translate(23.31)"><path d="M1205.912,1625.025h.01l8.574.032,1.941,20.253-10.009,5.284-10.674-5.225,1.725-20.312Z" transform="translate(-1174.072 -1577.928)" fill="#e49963"/><g transform="translate(0)"><path d="M1148,1525.329c5.278,13.188,17.953,20.518,28.31,16.373s14.476-18.2,9.2-31.382-17.952-20.519-28.31-16.373S1142.727,1512.142,1148,1525.329Z" transform="translate(-1139.721 -1487.171)" fill="#e49963"/><path d="M1257.49,1555.806a1.94,1.94,0,1,0,.484-2.7A1.939,1.939,0,0,0,1257.49,1555.806Z" transform="translate(-1216.204 -1528.329)"/><path d="M1211.1,1574.164a2.1,2.1,0,1,0,.525-2.923A2.1,2.1,0,0,0,1211.1,1574.164Z" transform="translate(-1184.345 -1540.757)"/><path d="M1248.857,1572.347c2.624,2.068,5.9,4.563,5.9,4.563a5.092,5.092,0,0,1-3.662,4.533c1.338-1.213,2.511-2.826,1.119-4.69S1248.857,1572.347,1248.857,1572.347Z" transform="translate(-1210.517 -1541.774)" fill="#d68d5d"/><g transform="translate(21.962 26.828)"><path d="M1197.614,1565.726a.97.97,0,0,1-.942-1.193c.339-1.419,1.759-4.109,4.712-4.123a.968.968,0,1,1,.01,1.936c-2.186.01-2.832,2.61-2.838,2.636A.968.968,0,0,1,1197.614,1565.726Z" transform="translate(-1196.645 -1560.41)" fill="#201d40"/></g><g transform="translate(38.448 20.327)"><path d="M1250.009,1542.729a.807.807,0,0,1-.695-1.215,3.976,3.976,0,0,1,2.486-1.777,4.134,4.134,0,0,1,3.362,1.065.807.807,0,0,1-1.008,1.261,2.621,2.621,0,0,0-2.061-.739,2.331,2.331,0,0,0-1.387,1.005A.807.807,0,0,1,1250.009,1542.729Z" transform="translate(-1249.203 -1539.683)" fill="#201d40"/></g><path d="M1127.7,1503.189c-4.464-12.708,6.41-20.014,6.41-20.014s-2.917-.261-3.266-4.358a10.776,10.776,0,0,0,6.782-.146c14.493-5.247,24.472-5.177,24.472,1.025,0,2.207,9.571.695,8.769,15.542.056-1.048-3.364-7.152-6.6-7.761s-.314,3.711-7.068,4.638c-6.816.936-11.826-.719-15.99,3.123-3.257,3.352-4.064,20.41-3.569,21.436C1136.514,1514.32,1129.666,1508.773,1127.7,1503.189Z" transform="translate(-1126.629 -1474.88)" fill="#00223d"/><path d="M1198.507,1572.347s.617,7.738-.5,10.131c-1.162-3.1-3.655.185-6,.5-5.658.748-15.866-1.138-16.878,7.349-6.915,2.189-13.393-12.614-13.393-12.614-.4,16.536,11.7,25.927,29.118,23.175C1202.332,1599.072,1203.4,1583.1,1198.507,1572.347Z" transform="translate(-1150.721 -1541.774)" fill="#00223d"/><g transform="translate(32.025 41.847)"><path d="M1232.559,1612.871a14.685,14.685,0,0,1-3.493-1.37.646.646,0,0,1,.609-1.139c2.678,1.432,5.08,1.84,7.137,1.212a6.734,6.734,0,0,0,3.716-2.94.646.646,0,0,1,1.144.6,7.937,7.937,0,0,1-4.459,3.569A8.723,8.723,0,0,1,1232.559,1612.871Z" transform="translate(-1228.725 -1608.291)" fill="#d68d5d"/></g><g transform="translate(2.628 35.125)"><path d="M1143.237,1587.778c2.912,1.635,4.188,4.893,2.85,7.277s-4.785,2.989-7.7,1.353-4.188-4.894-2.849-7.277S1140.325,1586.141,1143.237,1587.778Z" transform="translate(-1135.008 -1586.858)" fill="#e49963"/><g transform="translate(3.247 2.696)"><path d="M1149.9,1600.815a.741.741,0,0,0,.223-.252,3.3,3.3,0,0,0-.351-4.04,3.52,3.52,0,0,0-4.01-.735.73.73,0,0,0,.66,1.3,2.084,2.084,0,0,1,2.3.45,1.871,1.871,0,0,1,.112,2.328.73.73,0,0,0,1.063.945Z" transform="translate(-1145.361 -1595.453)" fill="#d68d5d"/></g></g></g></g><path d="M1240.576,2475.233c1.825-4.955,5.725-5.507,5.725-5.507,7.582,10.461,26.2,4.042,25.584,18.191-28.314-.184-40.081,0-40.081,0a103.753,103.753,0,0,1,1.25-13.983l1.475.271Z" transform="translate(-1175.505 -2157.671)" fill="#36c"/><path d="M1105.522,2476.107c1.825-4.956,5.725-5.506,5.725-5.506,7.582,10.46,26.2,4.041,25.584,18.189-28.314-.181-40.081,0-40.081,0a103.8,103.8,0,0,1,1.25-13.981l1.476.271Z" transform="translate(-1082.813 -2158.271)" fill="#36c"/><path d="M1239.881,1960.59s4.6,67.045,2.729,81.951-8.481,34.016-7.731,83.32c-9.229,2.31-22.6,0-22.6,0s-1.982-55.749,7.775-80.65c-3.968-24.187-16.7-79.585-16.7-79.585Z" transform="translate(-1155.977 -1808.237)" fill="#213755"/><path d="M1146.444,1966.432s-9.282,75.271-13.826,89.547-13.405,26.349-21.632,74.919c-9.485.475-18.318,0-18.318,0s1.28-61.608,16.053-75.619c.5-24.527-2.389-88.363-2.389-88.363Z" transform="translate(-1080.012 -1812.245)" fill="#344966"/><g transform="translate(21.515 65.026)"><path d="M1123.033,1685.918s16.122-5.645,21.5-3.056c16.7,8.043,20.536,0,20.536,0,5.338.46,21.451,3.056,21.451,3.056,0,17.995,1.2,36.052.875,49.67-.231,11.859,2.03,44.131,2.03,44.131s-17.774,4.66-34.589,4.781c-16.815-.109-33.928-4.592-33.928-4.592s.9-32.686,1.645-44.835C1122.307,1721.455,1123.033,1703.865,1123.033,1685.918Z" transform="translate(-1120.905 -1682.182)" fill="#8ec8c8"/></g><g transform="translate(82.548 68.759)"><path d="M1348.72,1720.834c-6.655-15.877-26.4-25.975-28.658-26.745l-4.58,20.383a119.283,119.283,0,0,1,16.372,11.679c-1.168,5.674-.972,11.241-4.258,18.419,0,0,2.854-3.937,6.374-1.607,3.422,2.264,9.715-2.358,9.715-2.358S1353.8,1732.962,1348.72,1720.834Z" transform="translate(-1315.482 -1694.089)" fill="#26aab7"/></g><g transform="translate(0 68.759)"><g transform="translate(65.909 6.15)"><path d="M1312.335,1774.415a1.826,1.826,0,0,0,.346.07h.378a1.8,1.8,0,0,0,1.531-1.256l17.74-57.195a1.828,1.828,0,0,0,.071-.346,1.865,1.865,0,0,0,0-.226c0-.045,0-.09,0-.136s-.017-.078-.023-.117a1.8,1.8,0,0,0-1.234-1.429,1.831,1.831,0,0,0-.338-.072,1.889,1.889,0,0,0-.384,0h-44.659l-17.9,60.777h44.5Z" transform="translate(-1266.167 -1713.698)" fill="#7d6eb2"/><path d="M1282.446,1713.779a1.8,1.8,0,0,0-2.256,1.187l-17.628,57.052-.04.134a1.8,1.8,0,0,0,1.179,2.248l0,0a1.8,1.8,0,0,0,2.255-1.186l17.674-57.183A1.8,1.8,0,0,0,1282.446,1713.779Z" transform="translate(-1262.441 -1713.697)" fill="#00223d"/></g><path d="M1431.828,1803.63a1.858,1.858,0,0,1,.534-.233c-.019-.028-.039-.054-.059-.083-1.11-1.676-1.036-3.68.166-4.476a1.941,1.941,0,0,1,.642-.269,2.691,2.691,0,0,1,.827-2.994,2.018,2.018,0,0,1,1.152-.322,2.69,2.69,0,0,1,.881-3.136,3.155,3.155,0,0,1,3.434,5.18,2.25,2.25,0,0,1-1,.359c.8,1.56.639,3.267-.448,3.987a1.923,1.923,0,0,1-.641.269,2.69,2.69,0,0,1-.826,2.994,1.984,1.984,0,0,1-1.064.322,2.3,2.3,0,0,1-.7,2.776,2.664,2.664,0,0,1-2.9-4.375Z" transform="translate(-1312.174 -1761.112)" fill="#e49963"/><path d="M1258.746,1800.015l4.071-2.359a7.692,7.692,0,0,1,7.664-5.913c-.749,2.423-1.828,5.913-1.828,5.913s3.218,2.5,10.849-1.777c7.461-1.677,4.274,3.762,6.747,4.153,3.648.577-2.66,7.747-10.109,8.842-9.639,1.421-10.782-.552-10.782-.552l-5.454,1.906Z" transform="translate(-1193.995 -1761.112)" fill="#e49963"/><path d="M1079.4,1739.161c13.607-.95,36.818-7.672,36.818-7.672,3.716,5.7,2.687,13.265,2.687,13.265-21.13,18.526-52.932,24.515-62.69,20.056-8.908-4.07-2.62-58.3,19.747-70.721h0C1083.629,1707.064,1079.4,1739.161,1079.4,1739.161Z" transform="translate(-1052.319 -1694.089)" fill="#26aab7"/></g></g><g transform="translate(942.187 756.029)"><g transform="translate(10.189 33.331)"><path d="M1436.958,2093.665v6.627h1.8a1.587,1.587,0,0,1,1.587,1.588v.263a1.586,1.586,0,0,1-1.587,1.587h-76.9a1.846,1.846,0,0,1-1.846-1.846v-9.544a1.844,1.844,0,0,1,1.846-1.845h76.9a1.587,1.587,0,0,1,1.587,1.584h0a1.587,1.587,0,0,1-1.587,1.586Z" transform="translate(-1360.021 -2090.494)" fill="#7d6eb2"/><path d="M1.207,0H68.6a0,0,0,0,1,0,0V6.626a0,0,0,0,1,0,0H1.207A1.207,1.207,0,0,1,0,5.419V1.207A1.207,1.207,0,0,1,1.207,0Z" transform="translate(8.563 3.171)" fill="#fff"/></g><g transform="translate(0 18.685)"><path d="M1342.73,2064.278v7.333h-1.805a1.677,1.677,0,0,0-1.585,1.754v.3a1.675,1.675,0,0,0,1.585,1.753h76.9a1.953,1.953,0,0,0,1.846-2.041v-10.561a1.952,1.952,0,0,0-1.846-2.042h-76.9a1.676,1.676,0,0,0-1.585,1.753h0a1.676,1.676,0,0,0,1.585,1.754Z" transform="translate(-1339.34 -2060.77)" fill="#167377"/><path d="M1.336,0H68.6a0,0,0,0,1,0,0V7.332a0,0,0,0,1,0,0H1.336A1.336,1.336,0,0,1,0,6V1.336A1.336,1.336,0,0,1,1.336,0Z" transform="translate(71.764 10.84) rotate(180)" fill="#fff"/></g><path d="M2.166,0h71.4A2.167,2.167,0,0,1,75.73,2.167V9.723a2.167,2.167,0,0,1-2.167,2.167H2.167A2.167,2.167,0,0,1,0,9.724V2.166A2.166,2.166,0,0,1,2.166,0Z" transform="translate(6.267 0)" fill="#5b7393"/><rect width="75.73" height="6.795" rx="1.238" transform="translate(11.216 11.89)" fill="#7d6eb2"/></g><g transform="translate(935.482 588.084)"><path d="M2513.176,1127.775h-44.365c-2.1,0-3.8,2.045-3.8,4.568v33.019c0,2.523,1.7,4.568,3.8,4.568h44.365c2.1,0,3.8-2.045,3.8-4.568v-33.019C2516.975,1129.82,2515.274,1127.775,2513.176,1127.775Z" transform="translate(-2465.011 -1127.775)" fill="#d7e9f9"/><path d="M2516.97,1132.346v1.81h-51.964v-1.81c0-2.523,1.7-4.568,3.8-4.568h44.365C2515.269,1127.778,2516.97,1129.823,2516.97,1132.346Z" transform="translate(-2465.006 -1127.778)" fill="#7d6eb2"/><g transform="translate(7.858 14.17)"><rect width="6.387" height="12.442" rx="2" transform="translate(0 9.435)" fill="#167377"/><rect width="6.387" height="15.49" rx="2" transform="translate(9.954 6.387)" fill="#167377"/><rect width="6.387" height="18.559" rx="2" transform="translate(19.908 3.318)" fill="#7d6eb2"/><rect width="6.387" height="21.877" rx="2" transform="translate(29.861)" fill="#7d6eb2"/></g><circle cx="1.243" cy="1.243" r="1.243" transform="translate(2.555 2.226)" fill="#d8e5ed"/><circle cx="1.243" cy="1.243" r="1.243" transform="translate(5.94 2.226)" fill="#d8e5ed"/><circle cx="1.243" cy="1.243" r="1.243" transform="translate(9.326 2.226)" fill="#d8e5ed"/></g><g transform="translate(1055.944 608.461)"><g transform="translate(2.555 2.564)"><path d="M1373.626,209.587a19.629,19.629,0,0,1-25.638,29.6l-6.954,3,2.995-6.954a19.629,19.629,0,0,1,29.6-25.637Z" transform="translate(-1339.791 -203.519)" fill="#fdfdfd" fill-rule="evenodd"/><path d="M1357.078,240.826a19.933,19.933,0,0,1-11.805-3.862l-6.78,2.92a.328.328,0,0,1-.432-.432l2.92-6.78a19.959,19.959,0,1,1,17.437,8.108C1357.971,240.811,1357.524,240.826,1357.078,240.826Zm-11.761-4.567a.328.328,0,0,1,.2.066,19.3,19.3,0,1,0-2.085-29.1,19.38,19.38,0,0,0-1.808,25.208.329.329,0,0,1,.039.327l-2.669,6.2,6.2-2.669A.325.325,0,0,1,1345.317,236.259Z" transform="translate(-1337.12 -200.923)" fill="#00223d"/></g><circle cx="16.683" cy="16.683" r="16.683" transform="translate(5.827 5.829)" fill="#00223d"/><path d="M1336.285,222.521a22.434,22.434,0,0,1-12.223-3.61.329.329,0,0,1,.358-.551,21.862,21.862,0,0,0,23.706.025.328.328,0,0,1,.356.552A22.506,22.506,0,0,1,1336.285,222.521Zm16-6.813a.328.328,0,0,1-.237-.556,21.8,21.8,0,0,0,2.746-26.783.328.328,0,1,1,.556-.35,22.618,22.618,0,0,1,3.347,14.167,22.266,22.266,0,0,1-6.175,13.421A.327.327,0,0,1,1352.288,215.708Zm-34.619-3.317a.329.329,0,0,1-.276-.15,22.533,22.533,0,0,1-3.487-14.567.328.328,0,0,1,.653.068,21.871,21.871,0,0,0,3.385,14.141.329.329,0,0,1-.275.507Zm-2.289-19.444a.329.329,0,0,1-.31-.438,22.513,22.513,0,0,1,27.545-14.108.328.328,0,0,1-.184.63,21.858,21.858,0,0,0-26.741,13.7A.328.328,0,0,1,1315.38,192.947Zm36.482-8.41a.328.328,0,0,1-.231-.095,21.886,21.886,0,0,0-4.547-3.44.329.329,0,0,1,.325-.571,22.542,22.542,0,0,1,4.683,3.544.328.328,0,0,1-.23.562Z" transform="translate(-1313.784 -177.498)" fill="#00223d"/></g><g transform="translate(1035.339 451.532)"><g transform="translate(0 0)"><path d="M2503.506,336.379h15.96a2,2,0,0,0,1.995-1.995V319.422h-7.98l-1.994,1.995h-7.98a2,2,0,0,0-2,1.995v10.973A2,2,0,0,0,2503.506,336.379Z" transform="translate(-2501.183 -319.094)" fill="#eff4ef" fill-rule="evenodd"/><path d="M2516.794,334.036h-15.96a2.326,2.326,0,0,1-2.323-2.323V320.74a2.326,2.326,0,0,1,2.323-2.323h7.844l1.9-1.9a.329.329,0,0,1,.232-.1h7.98a.328.328,0,0,1,.328.328v14.962A2.326,2.326,0,0,1,2516.794,334.036Zm-15.96-14.962a1.669,1.669,0,0,0-1.667,1.666v10.973a1.669,1.669,0,0,0,1.667,1.666h15.96a1.668,1.668,0,0,0,1.666-1.666V317.079h-7.515l-1.9,1.9a.328.328,0,0,1-.231.1Z" transform="translate(-2498.511 -316.422)" fill="#00223d"/></g><path d="M2540.271,371.75h-4.988a.328.328,0,0,1,0-.657h4.988a.328.328,0,0,1,0,.657Z" transform="translate(-2530.966 -365.108)" fill="#00223d"/><path d="M2537.279,408.2h-1.995a.328.328,0,0,1,0-.657h1.995a.328.328,0,1,1,0,.657Z" transform="translate(-2530.966 -397.564)" fill="#00223d"/></g><path d="M1430,282.747a10.981,10.981,0,1,0,10.346,7.277l-1.656,1.656a8.934,8.934,0,1,1-2.971-4.8l1.462-1.462a10.947,10.947,0,0,0-7.181-2.671Zm-5.78,9.9a1.374,1.374,0,1,1,1.943-1.943l3.837,3.837,8.645-8.645a1.374,1.374,0,0,1,1.943,1.942l-9.616,9.616a1.373,1.373,0,0,1-1.942,0Z" transform="translate(-351.548 337.237)" fill="#fff" fill-rule="evenodd"/></g></svg>