<svg xmlns="http://www.w3.org/2000/svg" xmlns:xlink="http://www.w3.org/1999/xlink" width="198.816" height="182.421" viewBox="0 0 198.816 182.421"><defs><clipPath id="a"><path d="M463.718,180.063l-11.65.041a3.423,3.423,0,0,1-.429,4.137,2.664,2.664,0,0,1-2.793.645c-1.177-.584-1.767-2.681-.65-4.768-.2-.007-.5-.016-.854-.026a27.437,27.437,0,0,0-4.437.044,4.8,4.8,0,0,0-2.82,1.18,3.993,3.993,0,0,0-.985,1.64,4.056,4.056,0,0,0-.176,1.189c-.006,1.135.044,12.482.045,12.765a2.838,2.838,0,0,0-2.784.975,2.653,2.653,0,0,0,2.8,4.262s.085,24.306.088,24.916l24.642-.087Z" transform="translate(-435.557 -180.037)" fill="none"/></clipPath><clipPath id="b"><path d="M424.521,154.141l6.942.461a2.926,2.926,0,0,0,1.047,3.257,2.67,2.67,0,0,0,2.766.19,2.766,2.766,0,0,0,1.258-3.11l4.241.282a17.731,17.731,0,0,0,.722-4.144,20.089,20.089,0,1,0-32.788,14.193l-.541,8.155-.609,9.172a7.884,7.884,0,0,0,.054,1.584,7.787,7.787,0,0,0,.429,1.685,7.875,7.875,0,0,0,5.854,4.973,5.83,5.83,0,0,0,3.97,2.757c.3-5.427.912-16.9.918-17.2a2.381,2.381,0,0,1-2.579-.86,2.351,2.351,0,0,1,.356-3.086,2.4,2.4,0,0,1,2.672-.294c.019-.34.688-9.848,1-14.262C421.83,155.124,423.357,154.064,424.521,154.141Z" transform="translate(-401.364 -129.655)" fill="none"/></clipPath><clipPath id="c"><path d="M322.036,198.73c.434.55,2.147,1.51,2.583,2.648s-1.03,1.437-1.03,1.437c.216,1.8.445,3.963-.676,5.518-.828,1.149-2.394,2.13-3.741,1.225.362,1.169.8,2.414,1.33,3.714a45.808,45.808,0,0,0,2.294,4.805,19.7,19.7,0,0,1-2.185.393,19.934,19.934,0,0,1-5.4-.082c-2.624-1.555-3.2-2.875-3.227-3.809-.041-1.551,1.442-2.232,1.859-4.116.432-1.958-.586-3.852-1.517-5.149a1.609,1.609,0,0,1-1.649.016c-.641-.5-1.268-1.661-.675-2.362a1.7,1.7,0,0,1,2.009-.475,5.548,5.548,0,0,0,1.2-4.87c1.863-.377,6.7-2.635,7.554-4.665C320.845,193.28,321.6,198.18,322.036,198.73Z" transform="translate(-309.766 -192.958)" fill="#d08b73"/></clipPath><clipPath id="d"><path d="M317.854,228.084a22.769,22.769,0,0,1,7.636,9.55q.044-5.663.087-11.327l-2.833-4.117,1.37-4.611,4.3.691,2.184,3.689-1.008,4.537c.266,2.62.626,6.307,1.015,10.78.337,3.871.626,7.629-1.144,8.8a5.246,5.246,0,0,1-2.34.771,5.359,5.359,0,0,1-1.908-.315c-1.608-.59-6.885-5.4-13.487-12.475Z" transform="translate(-311.73 -217.579)" fill="#d08b73"/></clipPath><clipPath id="e"><path d="M498.2,293.512s.017,20,.735,23.561,10.1,21.605,10.1,21.605l1.828,2.644,4.527-2.644a86.1,86.1,0,0,0-2.868-12.564c-1.85-5.54-4.694-7.942-4.23-10.093a72.29,72.29,0,0,0,.743-16.352c-.593-5.55-2.007-11.981-2.007-11.981l-9.535.181Z" transform="translate(-497.492 -287.689)" fill="#12263f"/></clipPath><clipPath id="f"><path d="M506.283,217.578c-.2.527-.479,1.342-.6,1.54a23.463,23.463,0,0,0-2.127,1.78c-.28.476.833.836.833.836-.03-.013-.679,2.324-.7,2.556a3.209,3.209,0,0,0,1.549,2.681,3.3,3.3,0,0,0,3.348,0c-.26.95-.536,1.9-.81,2.842l4.686,1.7a22,22,0,0,1,.692-4.508c.479-1.117,1.547-4.029,1.547-4.029a1.211,1.211,0,0,0,.964-.307c.507-.411.766-1.738-.057-2.054a1.13,1.13,0,0,0-1.508.566c-.61-.081-1.126-1.536-1.321-2-.611-1.449-.244-2.859.054-4.327-.032.158-.931.467-1.079.587a3.8,3.8,0,0,0-.992,1.8,9.645,9.645,0,0,0-.246,1.007c-.14.72.039,1.114-.848.845A17.941,17.941,0,0,1,506.283,217.578Z" transform="translate(-503.514 -214.86)" fill="#d08b73"/></clipPath></defs><g transform="translate(-84.874)"><g transform="translate(0)"><g transform="translate(118.788)"><rect width="142.929" height="102.806" rx="3" fill="#12263f"/><rect width="136.384" height="98.295" rx="3" transform="translate(3.273 2.256)" fill="#fefefe"/><g transform="translate(70.121 41.67)"><g clip-path="url(#a)"><g transform="translate(-24.396 -32.482)"><path d="M439.13,243.029h-1.125a5.271,5.271,0,0,1-5.292-5.252v-.608h11.692v.543A5.3,5.3,0,0,1,439.13,243.029Z" transform="translate(-410.014 -170.586)" fill="#12263f"/><circle cx="20.089" cy="20.089" r="20.089" transform="translate(0 28.41) rotate(-45)" fill="#dbdada"/><path d="M446.255,208.963H422.88V186.29h23.3Z" transform="translate(-406.05 -150.076)" fill="#dbdada"/><g transform="translate(23.379 26.435)"><path d="M434.681,197.75h-.66V173.243h.574Z" transform="translate(-433.92 -171.252)" fill="#282e5b"/><path d="M450.385,197.417h-.66V172.5h.572Z" transform="translate(-440.251 -170.952)" fill="#282e5b"/><path d="M437.195,172.99h-.021c-.468-.013-.671-.509-.868-.988-.184-.447-.392-.954-.749-1.036a.911.911,0,0,0-.785.3,1.075,1.075,0,0,0-.249.864l-.651.107a1.733,1.733,0,0,1,.421-1.427,1.562,1.562,0,0,1,1.411-.485c.691.158.98.863,1.213,1.429a2.011,2.011,0,0,0,.3.584,3.7,3.7,0,0,0,.439-.8c.281-.6.572-1.229,1.123-1.231h0c.527,0,.8.569,1.059,1.12.112.237.321.677.439.718a2.8,2.8,0,0,0,.337-.669c.258-.615.579-1.381,1.314-1.538a1.739,1.739,0,0,1,1.742.823,1.785,1.785,0,0,1,.227,1.151l-.654-.087a1.13,1.13,0,0,0-.137-.721,1.1,1.1,0,0,0-1.04-.521c-.4.085-.634.649-.842,1.148-.23.548-.447,1.065-.945,1.073h-.008c-.51,0-.773-.556-1.029-1.095-.11-.232-.338-.713-.462-.743-.129,0-.416.618-.524.85C437.988,172.391,437.71,172.989,437.195,172.99Z" transform="translate(-433.852 -169.907)" fill="#282e5b"/></g><g transform="translate(16.808 52.917)"><path d="M446.26,227.583l-23.376-3.35v1.634l23.183,3.321A7.893,7.893,0,0,0,446.26,227.583Z" transform="translate(-422.86 -218.288)" fill="#bec6c4"/><path d="M446.253,222.209l-23.388-3.351v1.634l23.388,3.351Z" transform="translate(-422.853 -216.121)" fill="#bec6c4"/><path d="M446.22,214.273H422.845v1.163l23.376,3.351Z" transform="translate(-422.845 -214.273)" fill="#bec6c4"/><path d="M445.569,232.855,422.9,229.607v.081a7.954,7.954,0,0,0,.164,1.576l21.611,3.1A7.871,7.871,0,0,0,445.569,232.855Z" transform="translate(-422.866 -220.455)" fill="#bec6c4"/><path d="M424.088,235.15a7.855,7.855,0,0,0,7.189,4.6h7.607a7.873,7.873,0,0,0,4.939-1.776Z" transform="translate(-423.346 -222.689)" fill="#bec6c4"/><path d="M446.22,219.572l-23.376-3.351.012,1.574,23.388,3.351Z" transform="translate(-422.845 -215.058)" fill="#eeeff0"/><path d="M446.253,226.351v-1.4L422.865,221.6l.011,1.574,23.376,3.35C446.254,226.463,446.253,226.408,446.253,226.351Z" transform="translate(-422.853 -217.225)" fill="#eeeff0"/><path d="M446.067,230.292l-23.183-3.321.008,1.573,22.671,3.248A7.846,7.846,0,0,0,446.067,230.292Z" transform="translate(-422.86 -219.392)" fill="#eeeff0"/><path d="M444.784,235.48l-21.611-3.1a7.8,7.8,0,0,0,.546,1.652l19.735,2.827A7.924,7.924,0,0,0,444.784,235.48Z" transform="translate(-422.977 -221.574)" fill="#eeeff0"/></g></g></g></g><g transform="translate(49.711 11.598)"><g clip-path="url(#b)"><g transform="translate(0 0.001)"><path d="M423.356,232.294a8.013,8.013,0,0,1-1-.134,5.842,5.842,0,0,0,9.607.633,7.983,7.983,0,0,1-1.022.005Z" transform="translate(-409.828 -170.977)" fill="#12263f"/><path d="M441.5,151.076a20.089,20.089,0,1,0-32.788,14.193l-.541,8.155,6.656.442,1.6-24.154a1.712,1.712,0,0,1,.522-1.358,1.56,1.56,0,0,1,1.441-.385c.678.2.918.929,1.11,1.51a2.006,2.006,0,0,0,.26.6,3.739,3.739,0,0,0,.493-.769c.322-.583.657-1.187,1.206-1.15h0c.526.036.756.623.979,1.191.095.244.273.7.387.747a2.812,2.812,0,0,0,.383-.644c.3-.6.674-1.337,1.418-1.443a1.74,1.74,0,0,1,1.68.942,1.76,1.76,0,0,1,.153,1.122l-1.624,24.451,6.657.442.541-8.155A20.059,20.059,0,0,0,441.5,151.076Z" transform="translate(-401.364 -129.656)" fill="#dbdada"/><path d="M435.361,162.43a1.01,1.01,0,0,0-.106-.389,1.1,1.1,0,0,0-1-.591c-.4.057-.677.6-.92,1.086-.268.531-.519,1.031-1.018,1h-.007c-.509-.034-.733-.608-.95-1.163-.093-.239-.288-.736-.409-.774-.128-.008-.458.587-.582.811-.307.558-.626,1.135-1.141,1.1l-.02,0c-.467-.038-.635-.555-.8-1.046-.152-.459-.324-.979-.674-1.086a.913.913,0,0,0-.8.241.988.988,0,0,0-.3.615h.012l-1.623,24.453,8.694.577Z" transform="translate(-410.899 -142.436)" fill="#dbdada"/><path d="M426.2,161.79h-.012a.988.988,0,0,1,.3-.615.913.913,0,0,1,.8-.241c.35.106.523.627.674,1.086.162.491.331,1.008.8,1.046l.02,0c.514.034.833-.543,1.141-1.1.124-.224.454-.819.582-.811.122.038.316.535.409.774.217.555.442,1.129.95,1.163h.007c.5.027.751-.474,1.018-1,.243-.482.518-1.029.92-1.086a1.1,1.1,0,0,1,1,.592,1.011,1.011,0,0,1,.106.389l-1.649,24.837.659.044,1.623-24.451a1.76,1.76,0,0,0-.153-1.122,1.74,1.74,0,0,0-1.68-.942c-.744.106-1.117.847-1.418,1.443a2.8,2.8,0,0,1-.383.644c-.115-.05-.292-.5-.387-.747-.223-.568-.452-1.156-.979-1.191h0c-.549-.036-.883.567-1.206,1.15a3.741,3.741,0,0,1-.493.769,2,2,0,0,1-.26-.6c-.192-.581-.432-1.305-1.11-1.51a1.56,1.56,0,0,0-1.442.385,1.712,1.712,0,0,0-.522,1.358l-1.6,24.154.658.044Z" transform="translate(-410.455 -141.989)" fill="#12263f"/><path d="M412.035,212.854l-.109,1.631,22.892,4.93a7.888,7.888,0,0,0,.3-1.588Z" transform="translate(-405.622 -163.195)" fill="#bec6c4"/><path d="M412.391,207.491l-.108,1.631,23.1,4.974.108-1.631Z" transform="translate(-405.765 -161.033)" fill="#bec6c4"/><path d="M428.722,204.048l-16.009-1.063-.074,1.119,23.1,4.974.3-4.545Z" transform="translate(-405.909 -159.216)" fill="#bec6c4"/><path d="M411.731,218.3a7.881,7.881,0,0,0,.054,1.583l21.342,4.6a7.9,7.9,0,0,0,1-1.439l-22.389-4.822Z" transform="translate(-405.536 -165.357)" fill="#bec6c4"/><path d="M412.552,223.828a7.875,7.875,0,0,0,5.854,4.973,8,8,0,0,0,1,.134l7.59.5a7.994,7.994,0,0,0,1.022-.005,7.86,7.86,0,0,0,4.028-1.409Z" transform="translate(-405.874 -167.618)" fill="#bec6c4"/><path d="M412.568,204.86l-.1,1.57,23.1,4.974.1-1.57Z" transform="translate(-405.839 -159.972)" fill="#eeeff0"/><path d="M412.212,210.223l-.1,1.57,23.089,4.972c0-.056.016-.111.02-.168l.093-1.4Z" transform="translate(-405.695 -162.134)" fill="#eeeff0"/><path d="M411.752,217.156l22.389,4.822a7.81,7.81,0,0,0,.607-1.462l-22.892-4.93Z" transform="translate(-405.552 -164.296)" fill="#eeeff0"/><path d="M412.262,222.69l19.49,4.2a7.912,7.912,0,0,0,1.423-1.286l-21.342-4.6A7.783,7.783,0,0,0,412.262,222.69Z" transform="translate(-405.584 -166.48)" fill="#eeeff0"/></g></g></g><path d="M491.2,142.877a14.839,14.839,0,1,1,0,29.677" transform="translate(-387.868 -123.387)" fill="none" stroke="#12263f" stroke-linecap="round" stroke-linejoin="round" stroke-width="1.772"/><g transform="translate(13.269 15.569)"><line x2="27.013" fill="none" stroke="#baccc6" stroke-linecap="round" stroke-linejoin="round" stroke-width="1"/><line x2="27.013" transform="translate(0 3.921)" fill="none" stroke="#baccc6" stroke-linecap="round" stroke-linejoin="round" stroke-width="1"/><line x2="27.013" transform="translate(0 7.842)" fill="none" stroke="#baccc6" stroke-linecap="round" stroke-linejoin="round" stroke-width="1"/><line x2="27.013" transform="translate(0 11.764)" fill="none" stroke="#baccc6" stroke-linecap="round" stroke-linejoin="round" stroke-width="1"/><line x2="10.476" transform="translate(0 15.685)" fill="none" stroke="#baccc6" stroke-linecap="round" stroke-linejoin="round" stroke-width="1"/></g><g transform="translate(38.342 68.615)"><path d="M388.02,234.3h3.608a4.929,4.929,0,0,0,.116-1.056V225.18h-9.429v13H386.8a4.936,4.936,0,0,0,1.218-.158Z" transform="translate(-382.315 -225.18)" fill="#ea3065"/><path d="M391.873,244.184a4.943,4.943,0,0,0,3.608-3.728h-3.608Z" transform="translate(-386.168 -231.338)" fill="#d62558"/></g><g transform="translate(42.941 52.424)"><path d="M395.724,207.171h3.609a4.969,4.969,0,0,0,.116-1.057v-8.061H390.02v13h4.486a4.935,4.935,0,0,0,1.218-.157Z" transform="translate(-390.02 -198.053)" fill="#5b7393"/><path d="M399.577,217.057a4.945,4.945,0,0,0,3.609-3.728h-3.609Z" transform="translate(-393.873 -204.211)" fill="#435f84"/></g><g transform="translate(48.96 77.733)"><path d="M406.95,251.4h4.33a5.965,5.965,0,0,0,.139-1.268v-9.674H400.1v15.605h5.384a5.9,5.9,0,0,0,1.462-.189Z" transform="translate(-400.104 -240.456)" fill="#36c"/><path d="M411.574,263.263a5.932,5.932,0,0,0,4.33-4.474h-4.33Z" transform="translate(-404.728 -247.846)" fill="#3059aa"/></g></g><g transform="translate(30.313 41.958)"><g transform="translate(79.51)"><g transform="translate(9.041 62.378)"><path d="M326.712,385.957l6.462-.872a12.933,12.933,0,0,0,1.6,5.538c3.283,5.729,10.454,6.572,10.221,7.927-.091.531-1.046,1.18-4.417.814-1.093-.119-4.374-.393-5.328-1.606a3.369,3.369,0,0,0-2.872-.929l.169,2.333-5.123-.367C327.32,397.29,326.822,388.677,326.712,385.957Z" transform="translate(-321.635 -325.362)" fill="#12263f"/><path d="M332.066,287.57c.79,14.866.158,24.31-.639,30.339a133.582,133.582,0,0,0-1.248,21.8c.031,1.261.375,5.727.408,6.424-2.253.154-6.516.945-8.768,1.1-2.038-6.527-.929-15.973-1.086-19.774-.147-3.56.163-4.127.009-11.227-.148-6.821-.222-10.232-.856-12.413a28.578,28.578,0,0,1-1.661-7.9,18.525,18.525,0,0,1,.217-4,15.77,15.77,0,0,1,3.1-6.886c1.179.148,2.422.349,3.717.615A48.527,48.527,0,0,1,332.066,287.57Z" transform="translate(-318.206 -285.026)" fill="#69746b"/></g><g transform="translate(3.049 61.614)"><path d="M317.062,385.957l6.462-.872a12.923,12.923,0,0,0,1.6,5.538c3.283,5.729,10.454,6.572,10.221,7.927-.091.531-1.046,1.18-4.416.814-1.094-.119-4.374-.393-5.329-1.606a3.367,3.367,0,0,0-2.871-.929l.169,2.333-5.123-.367C317.67,397.29,317.172,388.677,317.062,385.957Z" transform="translate(-311.753 -324.597)" fill="#12263f"/><path d="M323,287.054c.79,14.866.157,24.31-.639,30.339a133.514,133.514,0,0,0-1.248,21.8c.031,1.261.375,5.727.408,6.424-2.252.154-6.515.945-8.768,1.1-2.039-6.527-.929-15.973-1.086-19.774-.147-3.56.162-4.127.009-11.227-.128-5.894-.157-8.842-.857-12.413-.816-4.166-1.533-4.2-2.188-8.07a33.949,33.949,0,0,1-.3-9.021q.246-1.225.494-2.449l2.953-.016a41.77,41.77,0,0,0,4.418,1.38A48.546,48.546,0,0,1,323,287.054Z" transform="translate(-308.167 -283.745)" fill="#69746b"/></g><path d="M305.4,189.769s-1.026-1.722-.754-2.673a4.965,4.965,0,0,1,3.683-2.847c1.966-.353,6.338.664,7.213-.808s.532-2.669-.122-2.356c.177-.889,2.79-.918,3.639,1.265a7.416,7.416,0,0,1-.43,6.585c-1.147,2.128-5.656,3.46-7.5,3.856-.015.517-.383,5.422-.383,5.422l.152,5.36a2.593,2.593,0,0,1-2.443,1.943c-2.089.164-5.1-6.78-5.365-11.267S304.278,189.688,305.4,189.769Z" transform="translate(-303.058 -180.519)" fill="#12263f"/><g transform="translate(4.004 7.425)"><path d="M322.036,198.73c.434.55,2.147,1.51,2.583,2.648s-1.03,1.437-1.03,1.437c.216,1.8.445,3.963-.676,5.518-.828,1.149-2.394,2.13-3.741,1.225.362,1.169.8,2.414,1.33,3.714a45.808,45.808,0,0,0,2.294,4.805,19.7,19.7,0,0,1-2.185.393,19.934,19.934,0,0,1-5.4-.082c-2.624-1.555-3.2-2.875-3.227-3.809-.041-1.551,1.442-2.232,1.859-4.116.432-1.958-.586-3.852-1.517-5.149a1.609,1.609,0,0,1-1.649.016c-.641-.5-1.268-1.661-.675-2.362a1.7,1.7,0,0,1,2.009-.475,5.548,5.548,0,0,0,1.2-4.87c1.863-.377,6.7-2.635,7.554-4.665C320.845,193.28,321.6,198.18,322.036,198.73Z" transform="translate(-309.766 -192.958)" fill="#d08b73"/><g clip-path="url(#c)"><g transform="translate(3.959 12.021)" opacity="0.5" style="mix-blend-mode:multiply;isolation:isolate"><path d="M316.409,213.1a2.818,2.818,0,0,0,.572,1.28,10.924,10.924,0,0,0,2.261,2.51,8.966,8.966,0,0,0,2.952,1.661,2.481,2.481,0,0,0,1.4.164,9.925,9.925,0,0,0-1.276-.5,11.647,11.647,0,0,1-2.756-1.714,15.577,15.577,0,0,1-2.29-2.329C316.747,213.517,316.478,213.065,316.409,213.1Z" transform="translate(-316.398 -213.097)" fill="#bc6c56"/></g></g></g><path d="M312.522,211.182c-.012-.07-.141-.1-.3-.17a1.633,1.633,0,0,1-.263-.134c-.105-.069-.139-.109-.139-.147a2.014,2.014,0,0,1,0-.319.173.173,0,0,1,.085-.143c.13-.091.272-.15.262-.222s-.124-.143-.383-.11a.529.529,0,0,0-.4.338.962.962,0,0,0-.053.267,1.078,1.078,0,0,0,.006.281.566.566,0,0,0,.187.328.831.831,0,0,0,.242.142,1,1,0,0,0,.417.07C312.414,211.346,312.536,211.246,312.522,211.182Z" transform="translate(-306.386 -192.375)" fill="#bc6c56"/><path d="M312.205,220.258a47.119,47.119,0,0,0-3.394,7.215c-2.609,7.038-2.9,13.026-3.227,21.171-.131,3.239-.2,7.651.058,12.917a8.681,8.681,0,0,0,2.021.606l3.156.772a10.3,10.3,0,0,1,2.152.526l2.278.557a15.565,15.565,0,0,0,4.015.368,26.618,26.618,0,0,0,8.814-1.6c-.281,0-.55-7.708-.559-8.31-.014-.966,0-1.26-.018-2.068a57.208,57.208,0,0,0-1-9.2c-.979-5.4-1.468-8.1-2.968-11.224a27.755,27.755,0,0,0-4.137-6.252,5.129,5.129,0,0,1-3.2.193C314.018,225.3,312.409,223.045,312.205,220.258Z" transform="translate(-304.03 -196.538)" fill="#12263f"/><path d="M332.935,267.371v3.376l-8.453-4.462-2.121,1.056h-3.439v-3.66l2.931,1.752,2.342-1.006Z" transform="translate(-309.454 -214.044)" fill="#344966"/><path d="M322.334,247.086l-3.411,2.558.639,2.878h3.3l1.279-1.492,8.208,3.2a3.287,3.287,0,0,0,3.5-.852c1-1.315.418-3.569-.408-5.01-2.24-3.907-1.325-11.454-5.33-19.507-.64,1.279-.82,2.7-1.459,3.979,1.741,4.37-.815,10.731.926,15.1Z" transform="translate(-309.454 -200.005)" fill="#d08b73"/><path d="M334.146,262.2a4.411,4.411,0,0,1-2.65.742,5.337,5.337,0,0,1-1.986-.313,3.594,3.594,0,0,1-1.462-1.174c-.407-.473-.883-.91-1.312-1.37l-1.763-1.909c-.5.491-1.109.869-1.618,1.358.268-.257,2.627,1.714,2.9,1.914l1.975,1.459a4.187,4.187,0,0,0,1.738,1.02,6.1,6.1,0,0,0,4.108-.483,3.989,3.989,0,0,0,1.255-2.239,6.629,6.629,0,0,0,.186-2.925,8.559,8.559,0,0,1-.206,2.021,3.509,3.509,0,0,1-.984,1.749C334.267,262.1,334.208,262.153,334.146,262.2Z" transform="translate(-311.24 -211.824)" fill="#bc6c56"/><path d="M317.759,252.036s-5.081-2.788-6.589-4.6-1.993-7.191-1.522-7.827,8.74,7.434,8.74,7.434l2,3.067Z" transform="translate(-305.645 -204.326)" fill="#344966"/><path d="M325.565,236.473a42.783,42.783,0,0,1,4.187,3.683,4.088,4.088,0,0,1,.834,2.537c.055.972.137,1.933.217,2.9l-5.9-7.513Z" transform="translate(-311.864 -203.075)" fill="#344966"/><g transform="translate(5.176 22.12)"><path d="M317.854,228.084a22.769,22.769,0,0,1,7.636,9.55q.044-5.663.087-11.327l-2.833-4.117,1.37-4.611,4.3.691,2.184,3.689-1.008,4.537c.266,2.62.626,6.307,1.015,10.78.337,3.871.626,7.629-1.144,8.8a5.246,5.246,0,0,1-2.34.771,5.359,5.359,0,0,1-1.908-.315c-1.608-.59-6.885-5.4-13.487-12.475Z" transform="translate(-311.73 -217.579)" fill="#d08b73"/><g clip-path="url(#d)"><path d="M329.35,246.208l-6.277,6.332.932.944,5.771-5.838Z" transform="translate(-316.303 -229.12)" fill="#bc6c56"/></g></g><path d="M317.577,247.618l6.577-6.857c-1.495-3.435-10.51-14.691-14.029-6.9C306.712,241.424,316.013,246.481,317.577,247.618Z" transform="translate(-305.606 -200.938)" fill="#12263f"/></g><g transform="translate(161.903 16.94)"><path d="M481.491,287.922s-5.578,25.438-6.49,29.22-4.838,23.773-4.838,23.773l5.424,1.792s4.764-10.217,5.281-12.69-.269-8.03,1.078-10.274,7.26-14.72,7.26-14.72l-.4-17.333Z" transform="translate(-452.815 -240.661)" fill="#b0c0d2"/><g transform="translate(33.66 47.028)"><path d="M498.2,293.512s.017,20,.735,23.561,10.1,21.605,10.1,21.605l1.828,2.644,4.527-2.644a86.1,86.1,0,0,0-2.868-12.564c-1.85-5.54-4.694-7.942-4.23-10.093a72.29,72.29,0,0,0,.743-16.352c-.593-5.55-2.007-11.981-2.007-11.981l-9.535.181Z" transform="translate(-497.492 -287.689)" fill="#b0c0d2"/><g clip-path="url(#e)"><path d="M519.7,338.552s-2.2-8.316-2.981-10.042-4.708-8.473-4.708-9.886,1.255-7.532,1.255-10.669-2.871-13.968-2.871-13.968" transform="translate(-502.694 -290.228)" fill="none" stroke="#12263f" stroke-miterlimit="10" stroke-width="0.516"/><g transform="translate(4.28 3.978)"><path d="M504.759,294.354a1.146,1.146,0,0,0-.068.395,3.362,3.362,0,0,0,.036,1.095c.086.444.134.987.285,1.585a6.893,6.893,0,0,0,.744,1.849,5.1,5.1,0,0,0,2.759,2.269,4.5,4.5,0,0,0,1.072.226.993.993,0,0,0,.4-.01,13.551,13.551,0,0,1-1.409-.392,5.222,5.222,0,0,1-2.6-2.228,7.212,7.212,0,0,1-.735-1.776c-.159-.57-.227-1.113-.338-1.56a4.02,4.02,0,0,1-.116-1.054A1.211,1.211,0,0,0,504.759,294.354Z" transform="translate(-504.663 -294.354)" fill="#12263f"/></g><g transform="translate(-1.888 3.643)"><path d="M494.332,293.82c-.013-.007.011.2.288.336a2.681,2.681,0,0,0,1.191.127c1-.014,2.378-.052,3.9-.11s2.9-.125,3.9-.187a9.736,9.736,0,0,0,1.609-.155,9.855,9.855,0,0,0-1.62-.032c-1,.014-2.376.051-3.9.11s-2.9.125-3.895.187a2.985,2.985,0,0,1-1.148-.035C494.409,293.971,494.354,293.8,494.332,293.82Z" transform="translate(-494.329 -293.792)" fill="#12263f"/></g><g transform="translate(-3.274 1.913)"><path d="M492.007,291.355a13.158,13.158,0,0,0,1.829-.011l4.409-.14,4.409-.114a13.19,13.19,0,0,0,1.827-.1,1.8,1.8,0,0,0-.49-.052c-.316-.017-.773-.031-1.338-.039-1.13-.018-2.692-.013-4.416.037s-3.284.134-4.41.218c-.563.042-1.019.082-1.333.117A1.761,1.761,0,0,0,492.007,291.355Z" transform="translate(-492.007 -290.893)" fill="#12263f"/></g><g transform="translate(5.711 1.8)"><path d="M507.149,290.7a4.545,4.545,0,0,0,.107,2.178,2.321,2.321,0,0,0,.079-1.1C507.3,291.181,507.222,290.7,507.149,290.7Z" transform="translate(-507.06 -290.705)" fill="#12263f"/></g><g transform="translate(2.575 1.273)"><path d="M501.886,289.821a7.619,7.619,0,0,0,.143,2.823,7.609,7.609,0,0,0-.143-2.823Z" transform="translate(-501.807 -289.821)" fill="#12263f"/></g></g></g><path d="M518.649,363.655l-8.753,5s3.43,9.139,3.371,12.143c-.094,4.715-8.352,4.807-7.646,8.75.1.58,3.739.072,6.471.314s4.814-.938,5.062-2.55,2.416-2.471,2.416-2.471l.761,3.06,2.806-1.455Z" transform="translate(-467.091 -271.284)" fill="#344966"/><path d="M466.6,371.547l-9.9-3.349s-1.521,12.136-3.869,14.01c-5.1,4.069-12.4,4.932-11.689,7.835.139.572,1.311,1.323,5.3,1.138,1.292-.06,5.175-.153,6.239-1.388s3.359-.817,3.359-.817l-.066,2.479,6.067-.079C461.859,386.029,464.307,379.079,466.6,371.547Z" transform="translate(-441.098 -273.116)" fill="#344966"/><g transform="translate(37.255 0.498)"><path d="M511.516,217.735c-.966-.447-4.232-1.422-4.42-2.537a1.736,1.736,0,0,1,.129-.855c1.981-5.556,9.874-5.54,14.076-2.839a5.3,5.3,0,0,0,4.124.962c1.591-.274,3.094-.966,4.7-1.155a8.706,8.706,0,0,1,8.669,5.4c1.638,4.253-1.41,7.662-1.751,11.8a8.156,8.156,0,0,0,.4,3.865c.361.836.572,1.042-.5,1.286a7.071,7.071,0,0,1-2.2.029,7.312,7.312,0,0,1-3.278-.887c-1.8-1.141-1.729-3-1.995-4.853-.372-2.6-.643-5.209-1.021-7.807-.191-1.308-1.471-4.773-2.958-4.954-1.749-.177-1.584.27-1.584.27.414,1.105.076,3.414-.154,4.538a9.956,9.956,0,0,1-8.558,7.936c-1.617.185-3.527-.947-5.062-1.491l2.277-5.926Z" transform="translate(-504.953 -209.734)" fill="#12263f"/><g transform="translate(0 3.059)"><path d="M506.283,217.578c-.2.527-.479,1.342-.6,1.54a23.463,23.463,0,0,0-2.127,1.78c-.28.476.833.836.833.836-.03-.013-.679,2.324-.7,2.556a3.209,3.209,0,0,0,1.549,2.681,3.3,3.3,0,0,0,3.348,0c-.26.95-.536,1.9-.81,2.842l4.686,1.7a22,22,0,0,1,.692-4.508c.479-1.117,1.547-4.029,1.547-4.029a1.211,1.211,0,0,0,.964-.307c.507-.411.766-1.738-.057-2.054a1.13,1.13,0,0,0-1.508.566c-.61-.081-1.126-1.536-1.321-2-.611-1.449-.244-2.859.054-4.327-.032.158-.931.467-1.079.587a3.8,3.8,0,0,0-.992,1.8,9.645,9.645,0,0,0-.246,1.007c-.14.72.039,1.114-.848.845A17.941,17.941,0,0,1,506.283,217.578Z" transform="translate(-503.514 -214.86)" fill="#d08b73"/><g clip-path="url(#f)"><path d="M514.922,231.333a119.6,119.6,0,0,1-5.394,3.281,9.7,9.7,0,0,0,5.394-3.281Z" transform="translate(-505.938 -221.497)" fill="#bc6c56"/><path d="M522.283,226.265c-.043,0-.025.193.211.274a.491.491,0,0,0,.409-.051.728.728,0,0,0,.254-.884.352.352,0,0,0-.207-.176.368.368,0,0,0-.209.005c-.194.087-.281.171-.26.206s.143.036.295.016c.087.007.1.021.117.075a.512.512,0,0,1-.012.276.368.368,0,0,1-.343.312C522.4,226.323,522.324,226.246,522.283,226.265Z" transform="translate(-511.073 -219.115)" fill="#bc6c56"/><path d="M515.806,212.947a4.73,4.73,0,0,0-1.433.92,4.85,4.85,0,0,0-.627.6c-.106.118-.219.237-.328.368a3.45,3.45,0,0,0-.263.455c-.157.321-.284.658-.418,1.016q-.1.268-.2.543a3.489,3.489,0,0,0-.136.6c-.06.392-.161.738-.451.84a1.344,1.344,0,0,1-.941-.11,5.7,5.7,0,0,1-1.545-.9,3.1,3.1,0,0,0-1.091-.631c-.3-.075-.47-.017-.466,0s.167.017.429.121a3.559,3.559,0,0,1,.986.688,5.449,5.449,0,0,0,1.579,1,1.6,1.6,0,0,0,1.162.128.889.889,0,0,0,.489-.468,2.439,2.439,0,0,0,.164-.609,3.232,3.232,0,0,1,.125-.554l.195-.533c.126-.349.25-.692.389-1a3.258,3.258,0,0,1,.231-.424l.295-.352a5.086,5.086,0,0,1,.576-.608C515.283,213.335,515.834,212.99,515.806,212.947Z" transform="translate(-505.283 -214.088)" fill="#bc6c56"/></g></g><g transform="translate(31.027 4.471)"><path d="M561.88,235.688a5.054,5.054,0,0,0-.744-.4,5.811,5.811,0,0,1-1.7-1.447,6.426,6.426,0,0,1-1.324-3,9.34,9.34,0,0,1,.266-4.04c.2-.7.454-1.39.606-2.1a6.812,6.812,0,0,0,.107-2.093,7.275,7.275,0,0,0-1.189-3.293,6.53,6.53,0,0,0-1.637-1.689,1.974,1.974,0,0,0-.76-.4,10.73,10.73,0,0,1,2.075,2.295,7.274,7.274,0,0,1,1.015,3.134,6.57,6.57,0,0,1-.128,1.934c-.148.661-.4,1.338-.609,2.071a9.423,9.423,0,0,0-.235,4.274,6.53,6.53,0,0,0,1.523,3.154,5.283,5.283,0,0,0,1.9,1.39A1.8,1.8,0,0,0,561.88,235.688Z" transform="translate(-555.497 -217.225)" fill="#282e5b"/></g><g transform="translate(7.359 11.383)"><path d="M515.844,232.923c.011.05.36.034.887-.158a5.044,5.044,0,0,0,2.947-3.065c.171-.534.173-.884.123-.894a7.315,7.315,0,0,1-3.957,4.117Z" transform="translate(-515.844 -228.806)" fill="#282e5b"/></g></g><g transform="translate(11.11)"><path d="M533.29,290.708s-5.079,14.228-4.846,17.136,3.1,4.613,3.218,5.427c.075.526-.882,1.107-1.338.944a1.245,1.245,0,0,1-.433-.319c-.631-.625-1.235-1.313-1.909-1.89-.4-.34-.563-.37-.521.152.025.295.19,1.961-.064,2.14-.194.135-.628.484-.663-.039s-.5-5.137-.384-6.3a31.063,31.063,0,0,0,0-3.4c-.015-1.506.033-3,.165-4.506a53.643,53.643,0,0,1,.82-5.745c.345-1.741.62-3.686,1.678-5.162C530.809,286.637,533.29,290.708,533.29,290.708Z" transform="translate(-486.567 -240.918)" fill="#d08b73"/><path d="M518.1,251a68.856,68.856,0,0,1,.491,10.19c-.047,1.813-.164,3.537-.329,5.161a12.251,12.251,0,0,1,3.686,1.5c1.8,1.114,2.377,2.158,4.222,2.99a9.009,9.009,0,0,0,2.865.747,49.884,49.884,0,0,0-2.274-17.07c-1.854-5.771-3.945-8.361-5.074-9.6a21.238,21.238,0,0,0-5-4.022q-.076.094-.145.192C514.674,243.728,516.581,248.2,518.1,251Z" transform="translate(-482.307 -221.799)" fill="#344966"/><path d="M467.769,226.6s-4.277-5.522-4.509-6.918a18.264,18.264,0,0,1-.272-3.3c.039-.407.513-1.589.645-2.442a3.79,3.79,0,0,0-.654-2.113c-.087-.136.068-2.6-.223-2.83s-.872-.31-.737,2.772c-1.531-.271-2.287-.135-2.307.969a17.63,17.63,0,0,0,1.047,3.935,20.734,20.734,0,0,0,.446,3.14c.329,1.28,1.693,8.294,4.888,11.038C468.474,230.186,467.769,226.6,467.769,226.6Z" transform="translate(-459.712 -208.899)" fill="#d08b73"/><path d="M494.554,238.214a14.868,14.868,0,0,0-1.671-.338,25.818,25.818,0,0,0-5.532-.091c-1.546.11-2.959.02-4.5-.016-1.967-.046-3.935-.1-5.9-.211a17.58,17.58,0,0,1-3.481-.356c-2.6-.687-3-1.468-4.11-1.241-1.481.3-1.911,2.1-3.507,4.945a32.947,32.947,0,0,1-3.946,5.572,74.632,74.632,0,0,0,12.116,1.739,18.251,18.251,0,0,0,6.024-.159h0s.294.814.6,1.939a26.2,26.2,0,0,1,.656,3.8c.184,2.137-.67,7.609-3.766,14.132a13.543,13.543,0,0,1,3.855-.577c3-.007,4.4.96,7.762,1.206a20.067,20.067,0,0,0,4.313-.157c.058-.9.633-1.52.589-2.334-.046-.865-.32-1.852.122-2.608.178-.3-.3-1.241-.029-2.007a33.567,33.567,0,0,1,3.748-7.035,23.378,23.378,0,0,0,2.756-5.081c.984-2.408,1.226-5.1-.294-7.351A9.891,9.891,0,0,0,494.554,238.214Z" transform="translate(-460.596 -219.793)" fill="#344966"/></g><path d="M492.3,255.184a23.448,23.448,0,0,0,4.49-1.587c-3.088,3.245-2.952,7.219-3.3,9.455C492.912,256.472,492.3,255.184,492.3,255.184Z" transform="translate(-461.737 -226.918)" fill="#213755"/></g></g><path d="M87.4,1.445,281.16,0" transform="translate(0 178.445)" fill="none" stroke="#00223d" stroke-linecap="round" stroke-width="5.023"/></g></g></svg>