<svg xmlns="http://www.w3.org/2000/svg" width="389.526" height="249.213" viewBox="0 0 389.526 249.213">
  <g id="Grupo_28528" data-name="Grupo 28528" transform="translate(-1149.071 -899.414)">
    <path id="Trazado_39190" data-name="Trazado 39190" d="M1712.812,1195.208c-5.283-10.568-14.575-26.237-14.575-26.237s-1.369-2.465-6.134-3.477c0,0-8.5-35.869-12.572-47.657-1.551-4.491-2.863-10.151-3.725-13.5-.493-1.919-1.348-4.946-2.366-8.455.75.093,1.442.153,2.052.169a2.712,2.712,0,0,0,1.912-1.036,4.066,4.066,0,0,0,1.3-3.59,2.706,2.706,0,0,0-.809-2.023,46.094,46.094,0,0,0-7.687-4.468c-2.625-8.785-5.11-16.911-5.11-16.911s-1.4-6.984-9.777-6.984a10.059,10.059,0,0,1-6.383-2.527l-13.5-9.079s-5.353-4.19-9.544,2.794c-1.543,2.573-7.781,9.762-9.687,11.938a32.141,32.141,0,0,0-5.683-.869c-.206.1-.416.193-.625.3a13.081,13.081,0,0,0-2.009-.132c-1.355.024-1.989.067-2.364.4-.738-.21-1.4-.124-1.523.224s.328.838,1.034,1.148c.073.5.524.938,1.553,1.824a13.225,13.225,0,0,0,1.628,1.183c.093.215.192.423.289.629a41.4,41.4,0,0,0,7.057,4.022c.167,1.51.361,3.4.52,5.325l-3.926,3.8s-2.321,2.785.233,4.888a8.033,8.033,0,0,0,4.406,1.886,8.259,8.259,0,0,0,1.065,3c.042.066.1.153.177.255.02.027.045.06.065.088.062.083.128.173.2.275l.1.124c.081.107.167.218.263.341l.109.14.341.432.1.128q.221.278.468.588l.029.036c.7.874,1.549,1.919,2.486,3.064l-.035.115s1.495,1.8,3.753,4.5h0c2.048,2.448,4.726,5.639,7.492,8.9.541.647.862,1.03.862,1.03l0-.008c.017.018.033.038.049.057l.219.257q.23.272.461.543l.268.315.4.472c.127.15.254.3.38.446.106.124.211.248.316.37l.692.808c5.586,6.518,11.174,8.38,14.432,10.941s6.286,9.776,6.984,16.994c.331,3.419.975,18.542,1.562,33.513a38.429,38.429,0,0,0-4.417,4.578,209.979,209.979,0,0,0-3.668,29.048,64.166,64.166,0,0,1,4.483-4.732l-.839,21.4h55.764l-8.716-34.767C1705.993,1192.855,1709.28,1193.99,1712.812,1195.208Z" transform="translate(-208.708 -78.505)" opacity="0.3" style="mix-blend-mode: multiply;isolation: isolate"/>
    <path id="Trazado_39191" data-name="Trazado 39191" d="M1666.4,1314.4c-.377,8.3,13.387,1.131,31.3-3.583s34.881-6.788,31.675-11.878c-5.993-9.52-23-12.445-38.652-5.846S1669.37,1304.636,1666.4,1314.4Z" transform="translate(-235.817 -183.337)" fill="#dbdbdb"/>
    <g id="Grupo_16481" data-name="Grupo 16481" transform="translate(1284.622 913.531)">
      <g id="Grupo_16479" data-name="Grupo 16479" transform="translate(2.257 0)" opacity="0.3">
        <path id="Trazado_39192" data-name="Trazado 39192" d="M1537.695,935.778l-132.778,23.659,33.517,198.45,135.689-21.458-18.309-96.62-2.541-14.771L1538.9,938.186Z" transform="translate(-1404.916 -935.778)" fill="#231f20"/>
      </g>
      <g id="Grupo_16480" data-name="Grupo 16480" transform="translate(0 0)">
        <path id="Trazado_39193" data-name="Trazado 39193" d="M1535.962,935.778l-135.036,22.217,33.517,198.408,135.689-21.454Z" transform="translate(-1400.926 -935.778)" fill="#dae0e5"/>
      </g>
    </g>
    <g id="Grupo_16484" data-name="Grupo 16484" transform="translate(1274.963 905.57)">
      <g id="Grupo_16482" data-name="Grupo 16482" transform="translate(2.257 0)" opacity="0.3">
        <path id="Trazado_39194" data-name="Trazado 39194" d="M1519.75,921.7l-132.778,23.659,33.516,198.45,135.689-21.458-17.456-92.488-3.058-20.507-13.8-83.723Z" transform="translate(-1386.971 -921.704)" fill="#231f20"/>
      </g>
      <g id="Grupo_16483" data-name="Grupo 16483" transform="translate(0 0)">
        <path id="Trazado_39195" data-name="Trazado 39195" d="M1518.016,921.7l-135.035,22.217,33.516,198.408,135.69-21.454Z" transform="translate(-1382.981 -921.704)" fill="#f4f4f2"/>
      </g>
    </g>
    <g id="Grupo_16489" data-name="Grupo 16489" transform="translate(1259.333 919.184)">
      <g id="Grupo_16486" data-name="Grupo 16486" transform="translate(2.175 2.358)" opacity="0.3">
        <g id="Grupo_16485" data-name="Grupo 16485">
          <path id="Trazado_39196" data-name="Trazado 39196" d="M1469.051,949.942,1358.293,972l39.742,186.063,140.163-27.911-18.569-81.488-7.042-32.382-8.121-43.705Z" transform="translate(-1358.293 -949.942)" fill="#231f20"/>
        </g>
      </g>
      <g id="Grupo_16488" data-name="Grupo 16488" transform="translate(0 0)">
        <g id="Grupo_16487" data-name="Grupo 16487">
          <path id="Trazado_39197" data-name="Trazado 39197" d="M1465.207,945.773l-110.759,22.056,39.743,186.062,140.163-27.911-33.68-157.669Z" transform="translate(-1354.448 -945.773)" fill="#fff"/>
          <path id="Trazado_39198" data-name="Trazado 39198" d="M1550.26,945.773l9.027,31.756,26.44-8.413Z" transform="translate(-1439.501 -945.773)" opacity="0.19"/>
          <path id="Trazado_39199" data-name="Trazado 39199" d="M1550.362,945.864l-.036.006,6.05,29.343,29.38-6.057Z" transform="translate(-1439.53 -945.813)" fill="#dae0e5"/>
        </g>
      </g>
    </g>
    <path id="Trazado_39200" data-name="Trazado 39200" d="M1383.232,1202.237a1.59,1.59,0,0,0-.7-.165c1.97-1.115,3.461-2.72,2.772-4.714-1.687-4.893-6.5-3.974-8.182-3.456-1.769.545,2.922-1.863-1.815-4.825-1.755-1.1-13,.936-13,.936l-3.517,1.082s5.8-3.1,1.154-6.228c-2.562-1.728-16.4,2.8-24.812,5.873-5.96,2.177-12.011,6.058-15.993,7.747-5.287,2.244-9.727,6.061-20.615,17.741-7.55,8.1-10.976,6.682-16.827,10.887-2.256,1.622-12.97,7.553-25.825,14.516-4.878-2.078-7.54-.654-7.54-.654s-19.865,5.616-33.464,10.468c-3.008.786-2.839,3.18-.66,6.93l-52.138,27.646h98.292l1.148.315.358-.315h8.414c3.881-5.256,6.07-8.683,6.07-8.683a25.185,25.185,0,0,0,.04-3.571c9.245-7.536,17.159-13.381,23.587-16.308,12.175-5.543,24.783-1.989,32.315-3.86,5.031-1.25,21.7-7.017,23.628-7.915,5.338-2.486,14.486-8,14.486-8s3.537-1.227,2.513-3.156c-2.875-5.417-7.162-3.783-14.136-2.039-6.819,1.7-12.717,2.782-15.836,1.595,8.572-3.594,15.461-10.722,19.6-13.065,8.275-4.687,20.176-8.547,22.315-11.091C1387.983,1206.217,1385.233,1203.394,1383.232,1202.237Z" transform="translate(-5.647 -137.709)" opacity="0.3" style="mix-blend-mode: multiply;isolation: isolate"/>
    <g id="Grupo_16495" data-name="Grupo 16495" transform="translate(1380.932 963.457)">
      <path id="Trazado_39208" data-name="Trazado 39208" d="M1634.254,1070.617l-18.066-11.563-23.367,22.645s-2.4,2.882.241,5.059a7.984,7.984,0,0,0,8.191,1.445l2.168,2.168s-1.927,3.131,4.576,5.3,32.762-10.359,32.762-10.359Z" transform="translate(-1584.359 -1046.684)" fill="#e5b080"/>
      <path id="Trazado_39209" data-name="Trazado 39209" d="M1613.975,1095.12a102.935,102.935,0,0,1,6.745-8.19c1.2-1.447,2.168-1.687,4.818-1.687a68.427,68.427,0,0,1,7.468.723l-2.891-1.927a45.775,45.775,0,0,0-6.987-.722c-3.131.241-4.818,1.927-8.672,6.263-2.173,2.446-6.8,8.252-8.873,9.6a6.754,6.754,0,0,0,1.646-.45l1.208,1.208C1610.51,1098.523,1612.952,1096.655,1613.975,1095.12Z" transform="translate(-1590.337 -1057.215)" fill="#ce9772"/>
      <path id="Trazado_39210" data-name="Trazado 39210" d="M1626.429,1102.9a102.968,102.968,0,0,1,7.852-7.136c1.4-1.258,2.389-1.358,5.011-.976a68.569,68.569,0,0,1,7.287,1.789l-2.585-2.323a45.768,45.768,0,0,0-6.807-1.72c-3.135-.21-5.045,1.215-9.484,4.952-2.5,2.108-7.918,7.188-10.16,8.229a6.814,6.814,0,0,0,1.694-.208l1.021,1.368C1622.513,1105.767,1625.2,1104.269,1626.429,1102.9Z" transform="translate(-1595.531 -1061.217)" fill="#ce9772" opacity="0.77"/>
      <path id="Trazado_39211" data-name="Trazado 39211" d="M1686.05,1203.968,1671.6,1125.2a107.382,107.382,0,0,0-3.373-17.1c-1.425-4.706-2.962-10.5-3.854-13.972-2.168-8.432-11.082-37.58-11.082-37.58s-1.445-7.227-10.117-7.227a58.471,58.471,0,0,1-10.118-1.445l-13.971-9.395s-5.541-4.336-9.877,2.891c-1.891,3.153-10.6,13.008-10.6,13.008s-3.854,4.818-.241,6.263,8.672,0,10.6-1.927,6.746-6.022,6.746-6.022a98.4,98.4,0,0,1,7.708,9.636c2.409,3.372,4.1,11.321-.482,16.621-1.761,2.039-6.745,1.687-9.4-.722-4.181-3.8-8.19,9.876-8.19,9.876s8.211,9.9,15.417,18.308c5.781,6.745,11.563,8.672,14.936,11.322s6.5,10.118,7.227,17.586,2.891,68.895,2.891,68.895Z" transform="translate(-1586.529 -1037.184)" fill="#ffd2a2"/>
      <path id="Trazado_39212" data-name="Trazado 39212" d="M1622.714,1059.839s-3.023-3.664-3.493-5.661a10.064,10.064,0,0,1-.12-3.854s-1.251.6-1.326,2.891a8.083,8.083,0,0,0,.362,3.251c.652,1.891-6.877,5.114-6.264,5.42C1612.838,1062.368,1622.714,1059.839,1622.714,1059.839Z" transform="translate(-1593.053 -1042.892)" fill="#e5b080" opacity="0.69"/>
      <g id="Grupo_16493" data-name="Grupo 16493" transform="translate(0 15.635)">
        <path id="Trazado_39213" data-name="Trazado 39213" d="M1651.849,1108.407c-.771-.278-2.193-.411-1.478-1.187s1.59-1.385,3.8-.86,1.8,1.033,1.709,1.6.019.551,3.634,1.694,18.932,5.146,20.959,5.6c2.114.479,1.762.194,2.447-3.4-.491,2.149-.09,4.969-4.281,4.215S1654.685,1109.6,1651.849,1108.407Z" transform="translate(-1609.706 -1082.782)" fill="#94999a"/>
        <path id="Trazado_39214" data-name="Trazado 39214" d="M1701.147,1121.8c3.256.734,4.2-.641,5.175-2.657.319-.66-.945-1.569-1.306-.226C1704.078,1122.412,1701.147,1121.8,1701.147,1121.8Z" transform="translate(-1631.846 -1088.019)" fill="#c1c4c5"/>
        <path id="Trazado_39215" data-name="Trazado 39215" d="M1682.024,1113.516c-.238,1.776.225,3.659-2.859,2.87-3.608-.924-15.6-4-23.307-6.386-2.2-.683.981-.716-2.138-1.8s-5.611,0,.12,1.993,16.654,4.9,25.266,7.065c4.389,1.1,3.906-2.87,3.908-4.7C1683.017,1110.641,1682.024,1113.516,1682.024,1113.516Z" transform="translate(-1609.805 -1083.48)" fill="#adb1b3"/>
        <path id="Trazado_39216" data-name="Trazado 39216" d="M1579.941,1067.285c-.855-.31-1.435-.883-1.291-1.281s.956-.468,1.812-.158Z" transform="translate(-1578.628 -1065.186)" fill="#636363"/>
        <path id="Trazado_39217" data-name="Trazado 39217" d="M1586.263,1071.387a18.687,18.687,0,0,1-4.114-2.534c-1.533-1.321-1.847-1.681-1.5-2.646s.821-1.041,2.844-1.076a18.688,18.688,0,0,1,4.784.682Z" transform="translate(-1579.451 -1064.958)" fill="#f6c343"/>
        <path id="Trazado_39218" data-name="Trazado 39218" d="M1621.012,1079.845a24.8,24.8,0,0,1,2.255-5.059c-6.788-2.455-27.494-9.777-34.776-9.959a3.8,3.8,0,0,0-2.086,5.77c5.715,4.516,26.316,12.127,33.1,14.581a24.847,24.847,0,0,1,1.5-5.332Z" transform="translate(-1581.722 -1064.826)" fill="#d3d3d3"/>
        <path id="Trazado_39219" data-name="Trazado 39219" d="M1642.332,1085.509c.887-2.451,2.745-6.013,5.257-5.105,8.1,2.926,31.509,11.585,38.326,16.97,1.243,1.241.862,2.883.391,4.032-.373,1.184-1.13,2.69-2.879,2.849-8.686-.218-32.224-8.533-40.318-11.458-2.513-.909-1.664-4.835-.777-7.288Z" transform="translate(-1605.913 -1071.53)" fill="#00223d"/>
        <path id="Trazado_39220" data-name="Trazado 39220" d="M1717.79,1117.678c-.518-.187-.588-1.309-.156-2.507s1.2-2.014,1.721-1.827.589,1.31.156,2.506S1718.308,1117.866,1717.79,1117.678Z" transform="translate(-1638.884 -1085.889)" fill="#f6c343"/>
      </g>
      <path id="Trazado_39221" data-name="Trazado 39221" d="M1618.878,1117.518s-15.691-18.727-16.983-20.717c-1.566-2.409-1.429-6.711-1.566-9.877-.24-5.54-1.2-13.008-1.2-13.008a4.218,4.218,0,0,1,4.1-3.372,7.112,7.112,0,0,1,6.263,3.372c2.409,4.1,2.526,10.741,4.177,13.571,3.373,5.781,15.257,11.883,15.257,11.883Z" transform="translate(-1587.531 -1051.669)" fill="#ffd2a2"/>
      <path id="Trazado_39222" data-name="Trazado 39222" d="M1600.627,1078.434a28.642,28.642,0,0,1-.241-3.974c.136-1.3,3.011-3.133,5.781-1.446,1.186.721,2.835,4.633,1.807,4.938a53.672,53.672,0,0,0-5.66,1.689C1601.435,1080.018,1600.712,1079.427,1600.627,1078.434Z" transform="translate(-1588.069 -1052.453)" fill="#ffead9"/>
      <path id="Trazado_39223" data-name="Trazado 39223" d="M1657.038,1174.132c-1.2-10.84-4.336-14.453-8.19-18.067s-7.949-4.818-13.249-7.467c-4.272-2.138-12.954-9.7-16.835-13.169,3.052,3.65,7.455,8.889,11.536,13.651,5.781,6.745,11.563,8.671,14.935,11.322s6.5,10.118,7.227,17.586,2.891,68.9,2.891,68.9l9.838-.06C1663.475,1231.552,1658.05,1183.233,1657.038,1174.132Z" transform="translate(-1596.062 -1079.858)" fill="#e5b080" opacity="0.54"/>
      <path id="Trazado_39224" data-name="Trazado 39224" d="M1673.07,1319.259l1.721-43.91s8.446-10.925,25.605-13.8c13.594-2.275,16.793,3.511,16.793,3.511l13.587,54.2Z" transform="translate(-1619.65 -1134.409)" fill="#7d6eb2"/>
      <path id="Trazado_39225" data-name="Trazado 39225" d="M1691.2,1266.419c-10.98,4.267-16.407,11.276-16.407,11.276l-1.721,43.91h24.6C1695.507,1304.55,1692.213,1283.033,1691.2,1266.419Z" transform="translate(-1619.65 -1136.755)" fill="#ededed" opacity="0.25"/>
      <path id="Trazado_39226" data-name="Trazado 39226" d="M1604.345,1088.324c.494-.442-.745-4.277-1.123-5.941-.8-3.534-2.089-6.586-1.125-10.279.207-.791.724-1.146.856-1.495a4.207,4.207,0,0,0-3.827,3.34s.964,7.469,1.2,13.009c.137,3.165,0,7.468,1.566,9.877.371.57,1.927,2.52,3.957,5.006C1603.719,1098.286,1599.849,1092.339,1604.345,1088.324Z" transform="translate(-1587.531 -1051.703)" fill="#e5b080" opacity="0.54"/>
      <path id="Trazado_39227" data-name="Trazado 39227" d="M1674.066,1304.881a34.4,34.4,0,0,1,24.325-17.2c10.758-1.966,19.77-.749,25.719,3.254l-6.487-25.879s-3.2-5.786-16.793-3.511c-17.16,2.876-25.606,13.8-25.606,13.8Z" transform="translate(-1620.083 -1134.409)" fill="#ccc"/>
      <path id="Trazado_39228" data-name="Trazado 39228" d="M1670.2,1267.612s10.143-13.187,27.3-16.063c13.594-2.275,16.793,3.511,16.793,3.511s9.616,16.214,15.083,27.151c-10.936-3.771-19.608-6.788-34.315-2.263s-21.494,9.427-28.659,17.724A217.436,217.436,0,0,1,1670.2,1267.612Z" transform="translate(-1616.754 -1130.065)" fill="#fff"/>
      <g id="Grupo_16494" data-name="Grupo 16494" transform="translate(53.83 147.273)">
        <path id="Trazado_39229" data-name="Trazado 39229" d="M1679.789,1303.4c-.491,1.85-1.807,3.105-2.939,2.805s-1.652-2.044-1.161-3.894,1.807-3.1,2.94-2.8S1680.28,1301.555,1679.789,1303.4Z" transform="translate(-1674.537 -1298.383)" fill="#ccc"/>
        <path id="Trazado_39230" data-name="Trazado 39230" d="M1677.662,1297.913c1.133.3,1.653,2.043,1.161,3.893s-1.806,3.1-2.939,2.8l-.742-.318c-1.133-.3-1.652-2.044-1.162-3.893s1.807-3.1,2.94-2.8Z" transform="translate(-1673.795 -1297.55)" fill="#ddd"/>
        <path id="Trazado_39231" data-name="Trazado 39231" d="M1678.081,1301.488c-.492,1.849-1.807,3.105-2.939,2.8s-1.652-2.044-1.162-3.893,1.807-3.1,2.94-2.8S1678.572,1299.638,1678.081,1301.488Z" transform="translate(-1673.795 -1297.55)" fill="#f4f4f4"/>
        <path id="Trazado_39232" data-name="Trazado 39232" d="M1677.213,1300.937c-.062.346.052.656.253.693s.416-.215.478-.562-.052-.655-.252-.692S1677.275,1300.592,1677.213,1300.937Z" transform="translate(-1675.272 -1298.776)" fill="#ddd"/>
        <path id="Trazado_39233" data-name="Trazado 39233" d="M1676.463,1304.624c-.062.346.052.656.253.692s.415-.215.478-.561-.051-.656-.253-.692S1676.525,1304.279,1676.463,1304.624Z" transform="translate(-1674.947 -1300.378)" fill="#ddd"/>
      </g>
    </g>
    <g id="Grupo_16513" data-name="Grupo 16513" transform="translate(1467.87 976.004)">
      <g id="Grupo_16504" data-name="Grupo 16504" transform="translate(0 6.086)">
        <g id="Grupo_16501" data-name="Grupo 16501" transform="translate(0 0.976)">
          <g id="Grupo_16500" data-name="Grupo 16500" transform="translate(0 0)" opacity="0.3">
            <rect id="Rectángulo_4117" data-name="Rectángulo 4117" width="46.051" height="50.131" transform="translate(0 45.119) rotate(-78.456)"/>
          </g>
          <path id="Trazado_39246" data-name="Trazado 39246" d="M1780.744,1099.938l-29.011-5.75.409-2,29.01,5.749Z" transform="translate(-1740.756 -1076.547)"/>
          <path id="Trazado_39247" data-name="Trazado 39247" d="M1756.138,1128.439l-10.628-2.075.407-2,10.629,2.075Z" transform="translate(-1738.053 -1090.523)"/>
          <rect id="Rectángulo_4118" data-name="Rectángulo 4118" width="2.041" height="39.202" transform="translate(10.293 21.697) rotate(-78.455)"/>
          <path id="Trazado_39248" data-name="Trazado 39248" d="M1787.412,1116.625l-38.436-7.693.411-2,38.435,7.695Z" transform="translate(-1739.558 -1082.951)"/>
        </g>
        <g id="Grupo_16503" data-name="Grupo 16503" transform="translate(0.027 0)">
          <g id="Grupo_16502" data-name="Grupo 16502" transform="translate(0)">
            <rect id="Rectángulo_4119" data-name="Rectángulo 4119" width="46.051" height="50.131" transform="translate(0 45.12) rotate(-78.456)" fill="#26aab7"/>
          </g>
          <path id="Trazado_39249" data-name="Trazado 39249" d="M1780.792,1098.212l-29.012-5.75.409-2,29.01,5.749Z" transform="translate(-1740.803 -1074.821)" fill="#7098ba"/>
          <path id="Trazado_39250" data-name="Trazado 39250" d="M1756.185,1126.714l-10.628-2.076.407-2,10.629,2.075Z" transform="translate(-1738.1 -1088.797)" fill="#7098ba"/>
          <rect id="Rectángulo_4120" data-name="Rectángulo 4120" width="2.041" height="39.202" transform="translate(10.293 21.697) rotate(-78.455)" fill="#7098ba"/>
          <path id="Trazado_39251" data-name="Trazado 39251" d="M1787.459,1114.9l-38.436-7.693.41-2,38.435,7.694Z" transform="translate(-1739.606 -1081.225)" fill="#7098ba"/>
        </g>
      </g>
      <g id="Grupo_16509" data-name="Grupo 16509" transform="translate(3.907 0)">
        <g id="Grupo_16506" data-name="Grupo 16506" transform="translate(0 0.976)">
          <g id="Grupo_16505" data-name="Grupo 16505" transform="translate(0 0)" opacity="0.3">
            <rect id="Rectángulo_4121" data-name="Rectángulo 4121" width="46.051" height="50.131" transform="translate(0 43.383) rotate(-70.4)"/>
          </g>
          <path id="Trazado_39252" data-name="Trazado 39252" d="M1788.444,1091.689l-23.189-8.075.685-1.922,23.188,8.073Z" transform="translate(-1750.536 -1065.901)"/>
          <path id="Trazado_39253" data-name="Trazado 39253" d="M1764.817,1118.145l-10.233-3.544.684-1.923,10.233,3.545Z" transform="translate(-1745.901 -1079.36)"/>
          <rect id="Rectángulo_4122" data-name="Rectángulo 4122" width="2.041" height="39.201" transform="translate(13.474 21.634) rotate(-70.401)"/>
          <path id="Trazado_39254" data-name="Trazado 39254" d="M1797.439,1110.832l-36.979-13,.686-1.922,36.978,13Z" transform="translate(-1748.453 -1072.075)"/>
        </g>
        <g id="Grupo_16508" data-name="Grupo 16508" transform="translate(0.027)">
          <g id="Grupo_16507" data-name="Grupo 16507" transform="translate(0)">
            <rect id="Rectángulo_4123" data-name="Rectángulo 4123" width="46.051" height="50.131" transform="matrix(0.335, -0.942, 0.942, 0.335, 0, 43.383)" fill="#f2f4f4"/>
          </g>
          <path id="Trazado_39255" data-name="Trazado 39255" d="M1788.491,1089.964l-23.188-8.075.685-1.922,23.188,8.073Z" transform="translate(-1750.584 -1064.176)" fill="#00223d"/>
          <path id="Trazado_39256" data-name="Trazado 39256" d="M1764.864,1116.418l-10.233-3.544.685-1.923,10.233,3.544Z" transform="translate(-1745.948 -1077.635)" fill="#00223d"/>
          <rect id="Rectángulo_4124" data-name="Rectángulo 4124" width="2.04" height="39.201" transform="matrix(0.335, -0.942, 0.942, 0.335, 13.474, 21.634)" fill="#00223d"/>
          <path id="Trazado_39257" data-name="Trazado 39257" d="M1797.486,1109.106l-36.979-13,.686-1.922,36.978,13Z" transform="translate(-1748.501 -1070.35)" fill="#00223d"/>
        </g>
      </g>
      <g id="Grupo_16512" data-name="Grupo 16512" transform="translate(47.555 4.827)">
        <g id="Grupo_16510" data-name="Grupo 16510" transform="translate(0.475 0.502)">
          <path id="Trazado_39258" data-name="Trazado 39258" d="M1824.315,1063.494l-1.287,4.9,1.025.365,1.313-4.989a1.632,1.632,0,0,1,1.99-1.161l.874.23a1.633,1.633,0,0,1,1.16,1.989l-4.633,17.594a2.719,2.719,0,0,1-3.317,1.935l-1.094-.288a2.718,2.718,0,0,1-1.932-3.317l3.8-14.443a.542.542,0,1,0-1.049-.276l-3.8,14.442a3.8,3.8,0,0,0,2.705,4.643l1.094.289a3.807,3.807,0,0,0,4.643-2.707l4.633-17.593a2.719,2.719,0,0,0-1.934-3.317l-.874-.23A2.719,2.719,0,0,0,1824.315,1063.494Z" transform="translate(-1817.239 -1061.471)" opacity="0.3"/>
          <path id="Trazado_39259" data-name="Trazado 39259" d="M1833.517,1071.065a.544.544,0,0,0-.664.386l-.546,2.063,1.027.366.569-2.153A.544.544,0,0,0,1833.517,1071.065Z" transform="translate(-1823.784 -1065.631)" opacity="0.3"/>
        </g>
        <g id="Grupo_16511" data-name="Grupo 16511">
          <path id="Trazado_39260" data-name="Trazado 39260" d="M1823.476,1062.607l-1.37,5.2,1.025.365,1.395-5.293a1.633,1.633,0,0,1,1.99-1.16l.874.231a1.631,1.631,0,0,1,1.16,1.988l-4.634,17.593a2.717,2.717,0,0,1-3.315,1.935l-1.094-.289a2.717,2.717,0,0,1-1.933-3.316l3.8-14.443a.543.543,0,1,0-1.049-.276l-3.8,14.443a3.8,3.8,0,0,0,2.7,4.642l1.094.289a3.805,3.805,0,0,0,4.642-2.707l4.633-17.592a2.719,2.719,0,0,0-1.934-3.317l-.874-.23A2.717,2.717,0,0,0,1823.476,1062.607Z" transform="translate(-1816.4 -1060.584)" fill="#b54273"/>
          <path id="Trazado_39261" data-name="Trazado 39261" d="M1832.616,1070.179a.544.544,0,0,0-.664.386l-.627,2.38,1.028.366.65-2.469A.542.542,0,0,0,1832.616,1070.179Z" transform="translate(-1822.882 -1064.744)" fill="#cd4022"/>
        </g>
      </g>
    </g>
    <g id="Grupo_16517" data-name="Grupo 16517" transform="translate(1149.071 1043.88)">
      <path id="Trazado_39262" data-name="Trazado 39262" d="M1386.072,1216.624c8.412-4.764,20.509-8.688,22.682-11.274,3.171-3.773.375-6.643-1.659-7.819a1.615,1.615,0,0,0-.716-.168c2-1.134,3.518-2.765,2.818-4.791-1.716-4.974-6.612-4.04-8.317-3.513-1.8.554,2.97-1.894-1.845-4.9-1.784-1.116-13.209.951-13.209.951l-3.575,1.1s5.89-3.15,1.173-6.331c-2.6-1.756-16.669,2.844-25.222,5.968-6.058,2.213-12.208,6.158-16.255,7.876-5.375,2.281-11.613,7.311-22.68,19.183-7.674,8.234-11.156,6.792-17.1,11.067-6.438,4.628-80.58,43.754-80.58,43.754l60.061,16.441s30.178-26.592,42.552-32.226,26.341-1.447,34-3.349c5.114-1.271,19.182-5.982,21.142-6.895,5.427-2.527,14.725-8.13,14.725-8.13s3.6-1.247,2.554-3.208c-2.923-5.507-7.28-3.845-14.369-2.072-6.931,1.732-12.927,2.828-16.1,1.621C1374.865,1226.252,1381.866,1219.006,1386.072,1216.624Z" transform="translate(-1180.568 -1179.418)" fill="#ffd2a2"/>
      <path id="Trazado_39263" data-name="Trazado 39263" d="M1453.874,1207.028s3.1-2.374,5.506-.1c.094.092.542.6.626.694,4.427-2.264,17.4-8.128,22.686-10.2a65.936,65.936,0,0,1,11.509-3.744c4.861-1.107,5.835-.7,7.063-2.045.754-.83.226-1.886-.278-2.532,2.221,1.946.73,3.551.278,4.192-.806.136-1.877.434-4.121,1.033a90.678,90.678,0,0,0-15.677,5.706c-4.528,2.356-14.514,6.046-17.115,7.494a34.953,34.953,0,0,0-4.559,2.8S1457.467,1206.465,1453.874,1207.028Z" transform="translate(-1281.466 -1183.597)" fill="#d8a679" opacity="0.69"/>
      <path id="Trazado_39264" data-name="Trazado 39264" d="M1470.764,1220.384a4.961,4.961,0,0,1,3.764.834c.833-.251,6.371-1.652,7.2-2,2.972-1.267,10.569-5.7,15.851-7.768a65.974,65.974,0,0,1,11.509-3.745c4.861-1.107,5.7-1.743,6.912-2.724a3.092,3.092,0,0,0,1.437-2.358c.752,2.962-2.116,4.433-2.818,4.792-.806.136-1.665.69-3.908,1.29a77.05,77.05,0,0,0-14.356,5.356c-4.528,2.356-9.88,4.951-12.479,6.4-3.28,1.826-8.509,3.4-9.194,3.9C1474.675,1224.353,1472.625,1220.736,1470.764,1220.384Z" transform="translate(-1288.802 -1189.466)" fill="#d8a679" opacity="0.69"/>
      <path id="Trazado_39265" data-name="Trazado 39265" d="M1464.172,1189.549c6.309-2.832,14.935-4.528,16.52-5.734a2.15,2.15,0,0,0-.066-3.339c4.263,3.121-1.41,6.16-1.41,6.16-3.616,1.3-12.017,3.746-16.04,5.488s-6.369,3.144-8.057,3.976-7.384,3.816-7.384,3.816a3.594,3.594,0,0,0-2.917-1.65C1447.307,1196.68,1457.861,1192.382,1464.172,1189.549Z" transform="translate(-1277.532 -1179.848)" fill="#d8a679" opacity="0.69"/>
      <path id="Trazado_39266" data-name="Trazado 39266" d="M1516.529,1270.767c1.747-2.989,5.2-4.069,7.06-2.2,1.321,1.328-.437,2.364-2.15,3.147-2.3,1.05-3.552,1.594-4.517,2.055C1515.482,1274.462,1514.782,1273.757,1516.529,1270.767Z" transform="translate(-1308.232 -1217.71)" fill="#ffead9" opacity="0.87"/>
      <path id="Trazado_39267" data-name="Trazado 39267" d="M1538.356,1196.768s-2.523.541-1.627,2.151c.7,1.259,1.469,3.3,2.134,3.841s1.489.434,3.168-.087,3.395-1.515,2.382-4.059C1543.766,1196.99,1542.771,1195.372,1538.356,1196.768Z" transform="translate(-1317.371 -1186.694)" fill="#ffead9"/>
      <path id="Trazado_39268" data-name="Trazado 39268" d="M1540.165,1212.545s-2.375.974-1.3,2.377c.844,1.1,1.6,2.506,2.315,2.916s1.413.421,2.976-.384,3.076-2.807,2.121-4.192S1544.264,1210.409,1540.165,1212.545Z" transform="translate(-1318.261 -1193.309)" fill="#ffead9"/>
      <path id="Trazado_39269" data-name="Trazado 39269" d="M1525.822,1187.17s-2.2.134-1.686,1.368a7.331,7.331,0,0,0,1.344,2.377,2.674,2.674,0,0,0,2.555.836c2.513-.367,3.142-1.855,2.725-3.06S1529.975,1186.6,1525.822,1187.17Z" transform="translate(-1311.951 -1182.678)" fill="#ffead9"/>
      <path id="Trazado_39270" data-name="Trazado 39270" d="M1499.186,1179.709s-1.984.229-1.436,1.447a7.847,7.847,0,0,0,1.482,2.416c.482.391,1.38.461,2.756-.206,1.343-.649,2.163-1.25,1.635-2.412C1503.254,1180.141,1501.8,1178.7,1499.186,1179.709Z" transform="translate(-1300.482 -1179.365)" fill="#ffead9"/>
      <path id="Trazado_39271" data-name="Trazado 39271" d="M1427.588,1267.222c-1.593.727-5.84,1.838-9.075,3.181a100.169,100.169,0,0,1-22.939,7.632c-8.22,1.58-27.165-4.528-39.577,3.09s-59.033,36-59.033,36l17.423,3.4s30.781-26.794,42.552-32.226,26.341-1.447,34-3.35c5.113-1.271,16.1-4.52,21.142-6.895,5.163-2.434,14.725-8.13,14.725-8.13,2.431-1.315,3.01-1.954,2.555-3.208-.364-1-2.349-3.234-4.112-3.521C1426.888,1263.678,1429.292,1266.444,1427.588,1267.222Z" transform="translate(-1213.31 -1215.777)" fill="#d8a679" opacity="0.47"/>
      <path id="Trazado_39272" data-name="Trazado 39272" d="M1475.081,1243.76c7.3-3.087,15.715-10.9,19.921-13.281,8.412-4.764,20.509-8.688,22.682-11.274,3.171-3.773.374-6.642-1.659-7.819,2.325,2.606,2.828,4.316.313,6.429s-16.607,6.728-22.141,10.25-17.908,10.867-21.833,14.588A8.1,8.1,0,0,0,1475.081,1243.76Z" transform="translate(-1289.497 -1193.274)" fill="#d8a679" opacity="0.69"/>
      <g id="Grupo_16516" data-name="Grupo 16516" transform="translate(0 58.155)">
        <path id="Trazado_39273" data-name="Trazado 39273" d="M1263.1,1336.31h22.916c-1.248-4.455-3.666-9.571-7.355-16-9.193-16.027-23.314-22.588-36.489-19.144-7.045,1.841,3.035,12.351,15.833,28.436C1259.811,1331.875,1261.505,1334.131,1263.1,1336.31Z" transform="translate(-1188.502 -1290.038)" fill="#dbdbdb"/>
        <g id="Grupo_16515" data-name="Grupo 16515">
          <path id="Trazado_39274" data-name="Trazado 39274" d="M1255.637,1331.162l5.308-7.3s.938-14.507-12.635-28.612c-10.756-11.172-21.559-5.283-21.559-5.283l-77.68,41.189Z" transform="translate(-1149.071 -1284.89)" fill="#7d6eb2"/>
          <path id="Trazado_39275" data-name="Trazado 39275" d="M1310.469,1315.253c6.74,10.956,6.145,20.269,6.145,20.269l-5.308,7.3h-34.072C1292.9,1330.738,1296.219,1327.768,1310.469,1315.253Z" transform="translate(-1204.74 -1296.544)" fill="#ededed" opacity="0.25"/>
          <path id="Trazado_39276" data-name="Trazado 39276" d="M1271.207,1317.722a35.773,35.773,0,0,1,8.105,13.44h16.429l6.786-7.3s.938-14.507-12.635-28.612c-10.756-11.172-21.559-5.283-21.559-5.283L1244.8,1302.6C1253.513,1303.51,1262.827,1308.75,1271.207,1317.722Z" transform="translate(-1190.653 -1284.89)" fill="#ccc"/>
          <path id="Trazado_39277" data-name="Trazado 39277" d="M1273.556,1312.311a72.529,72.529,0,0,1,9.316,16.139h17.4c3.945-5.343,6.17-8.826,6.17-8.826a39.015,39.015,0,0,0-12.392-30.449c-10.253-9.645-16.09-6.511-16.09-6.511s-20.192,5.709-34.014,10.64C1257.09,1297.837,1263.573,1298.583,1273.556,1312.311Z" transform="translate(-1190.283 -1282.178)" fill="#fff"/>
          <g id="Grupo_16514" data-name="Grupo 16514" transform="translate(97.72 38.215)">
            <path id="Trazado_39278" data-name="Trazado 39278" d="M1322.483,1352.985c-1.028,1.809-.816,3.714.473,4.255s3.166-.488,4.193-2.3.816-3.713-.473-4.254S1323.51,1351.176,1322.483,1352.985Z" transform="translate(-1321.832 -1350.089)" fill="#ccc"/>
            <path id="Trazado_39279" data-name="Trazado 39279" d="M1328.128,1349.883c-1.29-.54-3.167.488-4.194,2.3s-.816,3.714.473,4.255l.941.258c1.289.541,3.167-.487,4.194-2.3s.816-3.713-.473-4.254Z" transform="translate(-1322.462 -1349.739)" fill="#ddd"/>
            <path id="Trazado_39280" data-name="Trazado 39280" d="M1325.6,1352.637c-1.027,1.809-.815,3.714.472,4.254s3.167-.487,4.194-2.3.816-3.713-.473-4.253S1326.627,1350.827,1325.6,1352.637Z" transform="translate(-1323.185 -1349.937)" fill="#f4f4f4"/>
            <path id="Trazado_39281" data-name="Trazado 39281" d="M1331.724,1354.247c-.22.316-.574.485-.789.375s-.213-.456.007-.774.572-.486.788-.376S1331.943,1353.928,1331.724,1354.247Z" transform="translate(-1325.716 -1351.345)" fill="#ddd"/>
            <path id="Trazado_39282" data-name="Trazado 39282" d="M1329.462,1357.7c-.219.317-.572.486-.788.376s-.212-.457.007-.774.573-.487.789-.377S1329.682,1357.378,1329.462,1357.7Z" transform="translate(-1324.734 -1352.844)" fill="#ddd"/>
          </g>
        </g>
      </g>
    </g>
    <g id="Grupo_16522" data-name="Grupo 16522" transform="translate(1446.715 899.413)">
      <g id="Grupo_16519" data-name="Grupo 16519" transform="translate(4.198 6.925)" opacity="0.3">
        <path id="Trazado_39283" data-name="Trazado 39283" d="M1702.891,955.211a.964.964,0,0,1,.11-1.78l16.808-7.037a14.741,14.741,0,0,1,11.233.7l54.608,21.028a.476.476,0,0,1,.214.629l-2.743,5.6a.462.462,0,0,1-.625.214l-54.5-23.827a7.351,7.351,0,0,0-5.615-.351l-13.479,5.9a5.707,5.707,0,0,1-4.324-.26Z" transform="translate(-1702.349 -932.853)"/>
        <path id="Trazado_39284" data-name="Trazado 39284" d="M1779.959,981.526a.964.964,0,0,0,1.339-1.178l-4.752-17.594a14.733,14.733,0,0,0-7.444-8.438L1719,924.082a.475.475,0,0,0-.628.216l-2.74,5.6a.464.464,0,0,0,.214.625l52.248,28.435a7.341,7.341,0,0,1,3.72,4.22l3.611,14.261a5.711,5.711,0,0,0,2.858,3.257Z" transform="translate(-1708.097 -923.485)"/>
        <g id="Grupo_16518" data-name="Grupo 16518" transform="translate(3.869)">
          <path id="Trazado_39285" data-name="Trazado 39285" d="M1740.89,956.871c-8.927,9.562-26.993-1.263-29.4-8.167-1.947-5.584.617-10.768,4.041-15.32s11.59-.8,16.005,1.483a52.556,52.556,0,0,1,12.762,9.393C1747.228,947.393,1746.25,951.131,1740.89,956.871Z" transform="translate(-1709.895 -926.613)" opacity="0.45"/>
          <path id="Trazado_39286" data-name="Trazado 39286" d="M1809.757,997.218c-6.929,2.332-26.562-5.3-24.484-18.214,1.248-7.752,3.6-10.818,7.872-10.424a52.525,52.525,0,0,1,15.246,4.319c4.515,2.085,12.484,6.238,10.989,11.732S1815.361,995.331,1809.757,997.218Z" transform="translate(-1742.17 -942.819)" opacity="0.45"/>
          <path id="Trazado_39287" data-name="Trazado 39287" d="M1792.733,962.027a122.471,122.471,0,0,0-17.4-10.749c-8.558-4.19-15.944-4.371-22.849-7.75s-11.577-9.1-20.134-13.294a122.77,122.77,0,0,0-19.163-7.151c-1.213-.352-3.62,4.195-2.789,5.2,1.3,1.578,1.086,2.7-.04,6.732-1.2,4.3-4.206,12.529,8.88,19.538s18.665,2.627,21.786-.547c3.143-3.194,5.094-7.573,9.081-5.62s1.726,6.178,1.13,10.618c-.592,4.411-.63,11.506,12.931,17.543s18.219-1.388,20.877-4.969c2.5-3.367,3.25-4.219,5.291-4.161C1791.641,967.459,1793.756,962.768,1792.733,962.027Zm-53.1-9.119c-8.555,9.163-25.867-1.213-28.175-7.826-1.866-5.352.592-10.32,3.872-14.681s11.107-.77,15.339,1.421a50.42,50.42,0,0,1,12.229,9C1745.706,943.825,1744.768,947.406,1739.632,952.908Zm36.785,23.976c-6.638,2.234-25.453-5.077-23.462-17.454,1.194-7.43,3.448-10.368,7.542-9.99a50.381,50.381,0,0,1,14.61,4.138c4.326,2,11.963,5.978,10.53,11.243S1781.79,975.075,1776.418,976.884Z" transform="translate(-1709.188 -923.063)"/>
        </g>
      </g>
      <g id="Grupo_16521" data-name="Grupo 16521" transform="translate(0)">
        <path id="Trazado_39288" data-name="Trazado 39288" d="M1695.469,949.352a.964.964,0,0,1,.11-1.779l16.808-7.037a14.746,14.746,0,0,1,11.233.7l54.608,21.028a.475.475,0,0,1,.215.629l-2.743,5.6a.466.466,0,0,1-.625.215l-54.5-23.829a7.346,7.346,0,0,0-5.614-.349l-13.48,5.9a5.7,5.7,0,0,1-4.324-.261Z" transform="translate(-1694.926 -923.384)" fill="#11151c"/>
        <path id="Trazado_39289" data-name="Trazado 39289" d="M1772.7,974.391a.964.964,0,0,0,1.339-1.178l-4.751-17.592a14.735,14.735,0,0,0-7.444-8.441l-50.1-30.234a.475.475,0,0,0-.628.217l-2.74,5.6a.464.464,0,0,0,.214.625l52.249,28.435a7.345,7.345,0,0,1,3.719,4.219l3.611,14.263a5.7,5.7,0,0,0,2.858,3.255Z" transform="translate(-1700.745 -913.46)" fill="#1b202a"/>
        <g id="Grupo_16520" data-name="Grupo 16520" transform="translate(4.329)">
          <path id="Trazado_39290" data-name="Trazado 39290" d="M1734.281,944.628c-8.928,9.562-26.994-1.264-29.4-8.167-1.947-5.584.618-10.769,4.041-15.321s11.591-.8,16.006,1.484a52.6,52.6,0,0,1,12.762,9.393C1740.619,935.15,1739.64,938.888,1734.281,944.628Z" transform="translate(-1703.286 -914.37)" fill="#b2cbcc" opacity="0.25"/>
          <path id="Trazado_39291" data-name="Trazado 39291" d="M1803.147,984.975c-6.929,2.334-26.562-5.3-24.485-18.213,1.248-7.753,3.6-10.818,7.873-10.425a52.574,52.574,0,0,1,15.246,4.319c4.515,2.084,12.483,6.237,10.989,11.733S1808.751,983.088,1803.147,984.975Z" transform="translate(-1735.56 -930.576)" fill="#b2cbcc" opacity="0.25"/>
          <path id="Trazado_39292" data-name="Trazado 39292" d="M1786.123,949.784a122.389,122.389,0,0,0-17.4-10.75c-8.559-4.19-15.944-4.37-22.849-7.749s-11.578-9.1-20.135-13.294a122.668,122.668,0,0,0-19.163-7.152c-1.213-.352-3.62,4.195-2.788,5.205,1.3,1.577,1.086,2.695-.041,6.732-1.2,4.295-4.206,12.528,8.88,19.536s18.666,2.629,21.786-.544c3.143-3.2,5.093-7.573,9.082-5.622s1.725,6.179,1.128,10.619c-.591,4.411-.63,11.507,12.932,17.544s18.22-1.389,20.878-4.97c2.5-3.365,3.249-4.219,5.291-4.16C1785.032,955.216,1787.147,950.526,1786.123,949.784Zm-53.1-9.12c-8.555,9.165-25.868-1.21-28.176-7.823-1.866-5.354.593-10.321,3.872-14.683s11.107-.771,15.339,1.421a50.378,50.378,0,0,1,12.229,9C1739.1,931.583,1738.159,935.165,1733.023,940.664Zm36.784,23.978c-6.638,2.235-25.452-5.078-23.461-17.454,1.2-7.431,3.448-10.368,7.543-9.991a50.377,50.377,0,0,1,14.611,4.138c4.325,2,11.962,5.978,10.529,11.244S1775.181,962.833,1769.808,964.642Z" transform="translate(-1702.579 -910.82)" fill="#402f24"/>
        </g>
      </g>
    </g>
  </g>
</svg>
