<svg xmlns="http://www.w3.org/2000/svg" width="88.509" height="88.51" viewBox="0 0 88.509 88.51"><g transform="translate(313.858 -496.658)"><path d="M-269.6,585.168a44.339,44.339,0,0,0,44.255-44.254A44.341,44.341,0,0,0-269.6,496.658a44.341,44.341,0,0,0-44.254,44.256A44.339,44.339,0,0,0-269.6,585.168Z" fill="#ffe9d4" fill-rule="evenodd"/><path d="M-269.6,583.914a43.083,43.083,0,0,0,43-43,43.084,43.084,0,0,0-43-43,43.085,43.085,0,0,0-43,43A43.084,43.084,0,0,0-269.6,583.914Z" fill="#00223d" fill-rule="evenodd"/><path d="M-312.6,541.066l16.475-18.658,43.564,11.84,14.72,13.848-31.877,35.818A43,43,0,0,1-312.6,541.066Z" fill="#012b4d" fill-rule="evenodd"/><path d="M-269.6,560.637c16.376,0,29.732-10.889,29.732-24.237s-13.356-24.236-29.732-24.236-29.73,10.887-29.73,24.236S-285.979,560.637-269.6,560.637Z" fill="#00223d" fill-rule="evenodd"/><path d="M-269.6,565.381c15.426,0,28.008-10.99,28.008-24.467s-12.582-24.469-28.008-24.469-28.006,10.992-28.006,24.469S-285.029,565.381-269.6,565.381Z" fill="#ffe9d4" fill-rule="evenodd"/><path d="M-242.108,549.766c2.77,0,5.03-2.6,5.03-5.786s-2.26-5.783-5.03-5.783-5.031,2.6-5.031,5.783S-244.879,549.766-242.108,549.766Z" fill="#ffe9d4" fill-rule="evenodd"/><path d="M-297.1,549.766c2.771,0,5.031-2.6,5.031-5.786s-2.26-5.783-5.031-5.783-5.03,2.6-5.03,5.783S-299.868,549.766-297.1,549.766Z" fill="#ffe9d4" fill-rule="evenodd"/><path d="M-269.98,556.365c4.791.768,10.092.551,14.907-5.111,1.319-1.553.1-1.66-1.181-.74-5.022,3.605-9.079,5.168-13.713,4.818C-271.459,555.219-272.132,555.385-269.98,556.365Z" fill="#00223d" fill-rule="evenodd"/><path d="M-289.206,537.514c25.22-.932,32.991-12.067,35.949-19.229,1.017-2.463-5.648-1.984-7.336.418C-265.163,525.209-275.568,533.137-289.206,537.514Z" fill="#00223d" fill-rule="evenodd"/><path d="M-299.933,525.461c24.14,7.359,41.309-3.715,46.42-9.541C-263.052,509.781-283.5,497.1-299.933,525.461Z" fill="#00223d" fill-rule="evenodd"/><path d="M-265.558,547.992a5.357,5.357,0,0,1-8.089,0c-.51-.678-.221-.7.147-.523,1.559.752,6.209.822,7.8,0C-265.341,547.281-265.048,547.314-265.558,547.992Z" fill="#00223d" fill-rule="evenodd"/><path d="M-295.5,531.4c-1.057,6.873-2.114,11.368,0,18.77S-305.544,536.685-295.5,531.4Z" fill="#00223d" fill-rule="evenodd"/><path d="M-243.708,531.4c1.058,6.873,2.115,11.368,0,18.77S-233.662,536.685-243.708,531.4Z" fill="#00223d" fill-rule="evenodd"/><path d="M-238.256,530.469c-15.312-.493-23.745-8.323-26.7-15.487-1.017-2.463,6.9-.431,9.1,1.52C-248.849,522.736-249.053,525.775-238.256,530.469Z" fill="#00223d" fill-rule="evenodd"/><path d="M-255.874,550.467q.445-.006.916-.041c7.168-.541,8.833-3.526,9.518-7.3.751-4.141.76-5.584,1.9-5.963.838-.279,1.015-1.207.951-2.285s-.1-1.2-1.522-1.651a56.33,56.33,0,0,0-11.766-.632v1.117c3.591-.166,7.06.244,8.086.849,2.352,1.389,1.9,8.057.063,11.358-1.29,2.322-4.9,3.484-8.149,3.494Zm-13.78-15.713c-1.586.035-8.127-1.713-12.754-2.094-.3-.025-.609-.045-.924-.062v1.117c3.732.174,7.6.969,8.982,2.816,2.285,3.045-1.395,10.469-4.885,12.119a9.788,9.788,0,0,1-4.1.766v1.051a9.459,9.459,0,0,0,9.236-5.5c1.358-2.6.941-6.188,4.492-6.188s3.2,3.524,4.557,6.125a9.387,9.387,0,0,0,9.173,5.561v-1.051a9.785,9.785,0,0,1-4.1-.766c-3.489-1.65-7.17-9.074-4.885-12.119,1.385-1.847,5.25-2.642,8.982-2.816V532.6c-.316.017-.625.037-.924.062C-260.939,533-265.924,534.672-269.654,534.754Zm-13.678-2.156a56.33,56.33,0,0,0-11.766.632c-1.419.455-1.46.573-1.522,1.651s.113,2.006.951,2.285c1.143.379,1.152,1.822,1.9,5.963.685,3.771,2.35,6.756,9.518,7.3q.471.034.916.041v-1.051c-3.248-.01-6.858-1.172-8.149-3.494-1.834-3.3-2.29-9.969.063-11.358,1.025-.605,4.495-1.015,8.086-.849Z" fill="#cd4022" fill-rule="evenodd"/><path d="M-265.853,536.133c.914-4.541,3.608-6.606,8.092-5.776,1.13.211.79.463.172.631a6.557,6.557,0,0,0-7.7,5.481C-265.389,537.1-266.079,537.262-265.853,536.133Z" fill="#00223d" fill-rule="evenodd"/><path d="M-275.491,534.361c-1.346-4.431-4.227-6.228-8.611-4.968-1.1.318-.741.537-.11.644a6.557,6.557,0,0,1,8.194,4.713C-275.859,535.371-275.157,535.463-275.491,534.361Z" fill="#00223d" fill-rule="evenodd"/><path d="M-255.4,543.324a3.165,3.165,0,0,0,2.871-3.383,3.164,3.164,0,0,0-2.871-3.382,3.164,3.164,0,0,0-2.872,3.382A3.165,3.165,0,0,0-255.4,543.324Z" fill="#00223d" fill-rule="evenodd"/><path d="M-282.587,543.324a3.165,3.165,0,0,0,2.873-3.383,3.165,3.165,0,0,0-2.873-3.382,3.164,3.164,0,0,0-2.871,3.382A3.165,3.165,0,0,0-282.587,543.324Z" fill="#00223d" fill-rule="evenodd"/></g></svg>