<svg xmlns="http://www.w3.org/2000/svg" width="206.76" height="300.23" viewBox="0 0 206.76 300.23"><g transform="translate(-305.192 -155.841)"><path d="M411.3,203.284s-9.652,9.7-14.67,12.045-14.72,10.369-14.72,10.369l3.346,13.716s15.722-7.025,21.075-7.025,10.7-4.015,10.7-4.015S415.932,202.949,411.3,203.284Z" transform="translate(24.428 15.106)" fill="#00b94e"/><g transform="translate(424.314 155.841)"><path d="M435.574,157.665s4.828-2.556,11.644-.283,9.088,7.1,9.373,12.78a21.964,21.964,0,0,0,3.692,11.929c1.988,3.123,2.272,5.4,2.272,15.052s-5.112,12.781-4.543,15.9,11.076,7.1,12.781,15.053-4.545,10.224-5.4,14.769,1.988,7.953.567,13.064-6.248,11.644-16.756,12.213-20.165-17.892-28.117-26.982-14.2-18.176-13.066-26.7,7.384-9.088,7.384-15.336-6.531-11.077-3.976-17.894,4.829-6.248,6.249-13.064S424.781,157.948,435.574,157.665Z" transform="translate(-391.612 -155.651)" fill="#00223d"/><path d="M403.219,255.393s-8.872,56.495-7.539,73.827,20.54,78.232,20.54,78.232S403.533,415,403.231,418.023c-.518,5.18,19.957-4.239,20.623-8.239s-8.019-60.227-6.124-76.334c.6-5.135,2.959-17.385,3.624-22.051s5.167-24.934,5.167-24.934,10.467,44.964,14.467,53.63,16.291,31.244,28.09,51.651a101.878,101.878,0,0,1,6.761,14.95s-.755,18.637,2.009,19.754c4.647,1.879,5.333-17.331,5.333-19.331s-4.6-12.1-9.27-34.1-12.322-32.537-12.989-39.871-1.61-62.24-5.674-74.46S407.915,244.988,403.219,255.393Z" transform="translate(-395.544 -126.348)" fill="#00223d"/><path d="M422,371.384c0-.017.005-.042.007-.062a16.576,16.576,0,0,1-7.64-2.27s-12.687,7.551-12.989,10.571C400.858,384.8,421.333,375.384,422,371.384Z" transform="translate(-393.689 -87.949)" fill="#26aab7"/><path d="M456.469,368.478s-.755,18.637,2.009,19.754c4.647,1.879,5.333-17.331,5.333-19.331C458.229,372.324,456.469,368.478,456.469,368.478Z" transform="translate(-376.173 -88.132)" fill="#26aab7"/><path d="M453.245,274.2c-2.595-14.126-4.324-16.432-4.324-18.161s5.478-27.388,5.478-27.388,12.052-3.715,5.477-21.045c-1.829-4.822-18.45-9.514-23.063-10.379s-16.144.576-16.144.576-13.837,5.189-15.567,7.5,0,10.955,0,14.7.576,3.748,0,5.189-3.46,4.036-3.172,9.8,3.46,11.244,3.748,14.992c.215,2.8-1.984,10.754-4.313,21.811,4.2,2.58,11.487,5.663,22.763,6.153a115.139,115.139,0,0,0,29.266-2.86C453.345,274.79,453.3,274.486,453.245,274.2Z" transform="translate(-393.69 -142.751)" fill="#26aab7"/><path d="M421.969,185.15s.865,2.595-2.018,10.379-2.306,21.333,1.154,20.18,10.09-14.126,10.955-19.891,1.73-12.973,1.73-12.973Z" transform="translate(-388.359 -147.243)" fill="#f2957e"/><path d="M447.381,181.534s-.414.732-1.685-9.865c-1.431-11.923-9.324-11.443-19.029-11.928-5.68-.285-5.884,4.807-7.385,10.508s-2.84,12.213-2.84,12.213-1.988,3.692-1.988,6.531,1.941,10.525,3.976,13.917c.852,1.42,2.272,2.556,5.68,2.556,11.644-1.988,18.47-13.432,18.47-13.432s3.3,2.7,6.6-2.1S452.481,180.034,447.381,181.534Z" transform="translate(-389.522 -154.603)" fill="#f6ba99"/><line x2="1.432" y2="0.716" transform="translate(32.527 40.281)" fill="none" stroke="#333" stroke-linecap="round" stroke-miterlimit="10" stroke-width="0.5"/><path d="M427.254,167.8s-4.26-2.555-6.531.285-1.988,8.236-2.84,9.94-3.408,5.4-3.408,5.4,1.7-5.68.284-10.224-2.556-11.644,1.988-15.336,14.769-1.7,18.177,1.136S427.254,167.8,427.254,167.8Z" transform="translate(-389.824 -155.841)" fill="#00223d"/><path d="M423.933,167.365s4.261-.283,6.248,5.965,4.829,15.052,9.089,18.177,4.543,3.976,2.556,9.088-3.976,7.1-2.841,11.077,10.509,5.112,10.509,5.112-3.976-5.4-2.273-9.088,7.385-11.077,5.965-17.325-7.385-7.385-6.816-11.644,4.828-10.508,1.988-15.621-9.373-3.692-12.5-5.112S425.353,155.721,423.933,167.365Z" transform="translate(-386.503 -155.411)" fill="#00223d"/><path d="M423.956,165.868s-.852,7.1,2.556,11.077a8.319,8.319,0,0,0,7.953,2.84s-7.1-1.7-6.816-8.521-2.273-9.371-2.273-9.371Z" transform="translate(-386.526 -153.914)" fill="#00223d"/><path d="M425.659,165.31s-1.7-.852-3.693,2.272-2.272,5.681-3.692,7.385-5.113,1.988-5.113,1.988,3.408-1.136,4.261-6.248,3.408-7.953,6.816-7.953" transform="translate(-389.933 -153.64)" fill="#00223d"/><path d="M414.681,162.97s2.556,5.68.283,8.236a8.285,8.285,0,0,1-5.68,2.556,7.887,7.887,0,0,0,5.112,3.123c3.125.285,6.533-6.816,6.533-6.816" transform="translate(-391.168 -153.571)" fill="#00223d"/><path d="M423.2,179.349s0,2.814-1.97,3.1.844,2.533.844,2.533" transform="translate(-387.587 -148.356)" fill="none" stroke="#333" stroke-miterlimit="10" stroke-width="0.5"/><g transform="translate(30.129 23.379)"><path d="M428.653,181.136c-.261,1.241-.842,2.167-1.3,2.071s-.616-1.179-.355-2.418.842-2.168,1.3-2.071S428.913,179.9,428.653,181.136Z" transform="translate(-415.697 -171.938)" fill="#333"/><path d="M420.961,178.756c-.26,1.239-.843,2.166-1.3,2.07s-.616-1.179-.355-2.418.842-2.168,1.3-2.071S421.222,177.517,420.961,178.756Z" transform="translate(-418.146 -172.696)" fill="#333"/><path d="M418.4,174.682s2.53-2.68,4.615.3" transform="translate(-418.396 -173.574)" fill="none" stroke="#333" stroke-linecap="round" stroke-miterlimit="10" stroke-width="0.75"/><path d="M426.865,176.419a2.616,2.616,0,0,1,3.871,1.637" transform="translate(-415.699 -172.78)" fill="none" stroke="#333" stroke-linecap="round" stroke-miterlimit="10" stroke-width="0.75"/></g></g><path d="M372.637,194.218s-2.875,21.406-1.6,32.588,8.946,15.336,12.78,12.46,3.515-18.211,1.6-27.8S381.9,195.176,380.3,192.3,373.916,187.828,372.637,194.218Z" transform="translate(20.864 10.808)" fill="#f6ba99"/><path d="M356.12,191.76s7.744,4.141,12.218,4.781,13.738-2.556,13.738-2.556a16.51,16.51,0,0,0-7.987-2.555c-4.153,0-13.738-1.917-15.655-1.917S356.12,191.76,356.12,191.76Z" transform="translate(16.217 10.722)" fill="#f6ba99"/><g transform="translate(305.192 157.403)"><path d="M349.549,301.118v-8.26c0-42.525,53.846-44.361,53.846-74.647,0-13.155-10.71-21.721-26.615-21.721-17.44,0-28.453,9.483-28.453,22.945V222.8c0,3.366-1.837,4.9-5.2,4.9l-32.735-1.225c-3.059,0-5.2-1.529-5.2-3.671v-3.365c0-37.018,29.367-62.409,72.5-62.409,42.22,0,69.448,23.862,69.448,59.655,0,50.786-54.761,51.09-54.761,78.93v5.507c0,3.365-1.838,5.2-5.2,5.2H354.75C351.386,306.318,349.549,304.483,349.549,301.118ZM346.8,350.372c0-13.46,11.932-24.475,26.309-24.475,13.768,0,26.006,11.016,26.006,24.475s-12.238,24.475-26.309,24.475C358.422,374.848,346.8,363.835,346.8,350.372Z" transform="translate(-305.192 -157.026)" fill="#7d6eb2"/></g><g transform="translate(305.192 161.424)"><path d="M349.549,304.168v-8.26c0-42.526,53.846-44.361,53.846-74.647,0-13.157-10.71-21.721-26.615-21.721-17.44,0-28.453,9.483-28.453,22.945v3.365c0,3.366-1.837,4.9-5.2,4.9l-32.735-1.225c-3.059,0-5.2-1.529-5.2-3.671v-3.365c0-37.018,29.367-62.409,72.5-62.409,42.22,0,69.448,23.862,69.448,59.655,0,50.786-54.761,51.09-54.761,78.93v5.507c0,3.365-1.838,5.2-5.2,5.2H354.75C351.386,309.367,349.549,307.533,349.549,304.168ZM346.8,353.422c0-13.46,11.932-24.475,26.309-24.475,13.768,0,26.006,11.015,26.006,24.475S386.874,377.9,372.8,377.9C358.422,377.9,346.8,366.883,346.8,353.422Z" transform="translate(-305.192 -160.076)" fill="#7d6eb2"/></g><g transform="translate(367.543 220.213)"><path d="M475.909,208.3s-2.485-5.682-9.942-2.841-17.045,22.727-26.278,26.632-30.539,13.494-36.221,17.4-31.248,12.073-31.248,12.073l-6.392-2.485s-5.648-2.019-5.862-.844c-.218,1.2,2.032,2.864,4.481,3.841-1.9.206-2.061.254-3.958.459-1.779.192-3.576.111-5.354.349a4.024,4.024,0,0,0-2.223.639c-.63.635-.629,1.755.438,1.755,1.775,0,6.829.533,6.829.533l-6.587,1.333a1.437,1.437,0,0,0,.684,2.775s13.692-3.147,2.7.695c-1.446.5-2.641.867-2.24,2.347.61,2.258,7.671-.991,9.182-1.387-1.15.516-2.28,1.069-3.4,1.647-.521.27-2.028.763-2.232,1.34-.335.947,1.111,1.756,1.908,1.527a10.6,10.6,0,0,0,1.7-.881q2.656-1.373,5.311-2.744l9.758-5.042c8.965-2.156,31.861-7.565,40.349-8.7,10.653-1.421,26.987-7.813,32.669-10.3s19.886-17.755,24.5-25.212A17.244,17.244,0,0,0,475.909,208.3Z" transform="translate(-352.484 -204.666)" fill="#f6ba99"/><path d="M460.7,223.216a17.244,17.244,0,0,0,1.42-14.914s-2.485-5.682-9.942-2.841-17.045,22.727-26.278,26.632c-7.1,3-21.314,9.36-30.1,13.915l4.274,13.269c1.3-.229,2.481-.421,3.452-.55,10.653-1.421,26.987-7.813,32.669-10.3S456.08,230.673,460.7,223.216Z" transform="translate(-338.691 -204.666)" fill="#2395a0"/></g><path d="M358.4,187.356s-3.817,4.775-2.181,5.253,3.543-4.058,3.816-5.014S359.49,186.64,358.4,187.356Z" transform="translate(16.119 9.873)" fill="#f6ba99"/><path d="M360.789,186.526s-4.473,6.39-2.556,7.03,4.153-5.432,4.473-6.709S362.066,185.567,360.789,186.526Z" transform="translate(16.738 9.553)" fill="#f6ba99"/><path d="M362.726,186.769s-4.472,6.389-2.555,7.029,4.153-5.432,4.472-6.709S364.005,185.811,362.726,186.769Z" transform="translate(17.355 9.631)" fill="#f6ba99"/><path d="M364.666,187.738s-4.473,6.39-2.556,7.029,4.154-5.431,4.473-6.709S365.943,186.78,364.666,187.738Z" transform="translate(17.972 9.939)" fill="#f6ba99"/></g></svg>