<svg id="Grupo_26656" data-name="Grupo 26656" xmlns="http://www.w3.org/2000/svg" xmlns:xlink="http://www.w3.org/1999/xlink" width="109.549" height="109.549" viewBox="0 0 109.549 109.549">
  <defs>
    <linearGradient id="linear-gradient" x1="0.5" x2="0.5" y2="1" gradientUnits="objectBoundingBox">
      <stop offset="0" stop-color="#fff"/>
      <stop offset="1" stop-color="#d2e6ee"/>
    </linearGradient>
  </defs>
  <g id="Grupo_26585" data-name="Grupo 26585" transform="translate(99.738 29.778)">
    <path id="Trazado_67426" data-name="Trazado 67426" d="M1525.17,4794.307a.52.52,0,0,1-.451-.778,51.99,51.99,0,0,0,2.593-5.183.52.52,0,0,1,.954.413,53.167,53.167,0,0,1-2.645,5.287A.521.521,0,0,1,1525.17,4794.307Zm4.636-10.729a.522.522,0,0,1-.5-.672,52.1,52.1,0,0,0,1.376-5.629.52.52,0,1,1,1.022.19,53.275,53.275,0,0,1-1.4,5.743A.52.52,0,0,1,1529.806,4783.578Zm2.141-11.492h-.038a.519.519,0,0,1-.48-.557c.094-1.285.142-2.587.142-3.87,0-.644-.012-1.292-.036-1.926a.52.52,0,0,1,.5-.539.528.528,0,0,1,.539.5c.024.647.036,1.308.036,1.964,0,1.308-.048,2.636-.145,3.946A.52.52,0,0,1,1531.947,4772.085Zm-.436-11.68a.52.52,0,0,1-.514-.443,51.32,51.32,0,0,0-1.182-5.672.52.52,0,0,1,1-.269,52.454,52.454,0,0,1,1.206,5.787.52.52,0,0,1-.437.592A.6.6,0,0,1,1531.511,4760.406Zm-3.027-11.288a.52.52,0,0,1-.484-.33,51.613,51.613,0,0,0-2.425-5.263.52.52,0,0,1,.919-.487,52.678,52.678,0,0,1,2.474,5.369.52.52,0,0,1-.294.674A.51.51,0,0,1,1528.484,4749.118Z" transform="translate(-1524.651 -4742.761)" fill="#00223d"/>
  </g>
  <g id="Grupo_26586" data-name="Grupo 26586" transform="translate(1.851 2.249)">
    <path id="Trazado_67427" data-name="Trazado 67427" d="M1411.628,4801.475c-1.894,0-3.789-.091-5.635-.271a.52.52,0,1,1,.1-1.035c1.812.176,3.674.266,5.534.266h.261a.51.51,0,0,1,.523.517.519.519,0,0,1-.516.523Zm6.109-.321a.52.52,0,0,1-.054-1.037,47.441,47.441,0,0,0,5.711-.95.52.52,0,0,1,.237,1.013,48.468,48.468,0,0,1-5.838.972Zm-17.479-.836a.525.525,0,0,1-.11-.012,49.762,49.762,0,0,1-5.7-1.579.52.52,0,1,1,.336-.984,48.682,48.682,0,0,0,5.58,1.545.52.52,0,0,1-.108,1.029Zm28.825-1.914a.52.52,0,0,1-.191-1,30.465,30.465,0,0,0,5.021-2.4.52.52,0,0,1,.577.865,30.59,30.59,0,0,1-5.215,2.5A.518.518,0,0,1,1429.084,4798.4Zm-39.881-1.868a.52.52,0,0,1-.225-.051,51.338,51.338,0,0,1-5.172-2.868.52.52,0,0,1,.556-.879,49.913,49.913,0,0,0,5.066,2.809.52.52,0,0,1-.226.989Zm-9.88-6.243a.512.512,0,0,1-.326-.115,53.622,53.622,0,0,1-4.395-3.953.52.52,0,1,1,.736-.733,53.028,53.028,0,0,0,4.31,3.877.52.52,0,0,1-.326.925Zm-8.255-8.279a.519.519,0,0,1-.406-.194,53.9,53.9,0,0,1-3.441-4.8.52.52,0,1,1,.877-.558,53.107,53.107,0,0,0,3.375,4.711.52.52,0,0,1-.405.846Zm-6.268-9.863a.521.521,0,0,1-.468-.292,52.674,52.674,0,0,1-2.292-5.449.52.52,0,0,1,.98-.348,51.735,51.735,0,0,0,2.246,5.34.521.521,0,0,1-.467.749Zm-3.916-11.012a.52.52,0,0,1-.506-.4,52.583,52.583,0,0,1-1.012-5.825.52.52,0,0,1,1.033-.12,51.685,51.685,0,0,0,.992,5.709.52.52,0,0,1-.389.624A.492.492,0,0,1,1360.884,4761.139Zm-1.35-11.61a.52.52,0,0,1-.52-.518v-.208a53.988,53.988,0,0,1,.287-5.547l.015-.146a.52.52,0,1,1,1.034.107l-.015.15a52.923,52.923,0,0,0-.281,5.436v.2a.52.52,0,0,1-.517.522Zm1.241-11.623a.532.532,0,0,1-.113-.013.52.52,0,0,1-.4-.62,53.034,53.034,0,0,1,1.593-5.69.52.52,0,1,1,.984.335,52.12,52.12,0,0,0-1.562,5.58A.52.52,0,0,1,1360.775,4737.905Zm3.773-11.061a.519.519,0,0,1-.47-.741,52.992,52.992,0,0,1,2.819-5.2.52.52,0,0,1,.885.547,51.839,51.839,0,0,0-2.764,5.093A.519.519,0,0,1,1364.549,4726.845Zm6.142-9.944a.514.514,0,0,1-.321-.111.52.52,0,0,1-.088-.73,53.255,53.255,0,0,1,3.9-4.44.52.52,0,1,1,.741.729,52.251,52.251,0,0,0-3.827,4.353A.518.518,0,0,1,1370.69,4716.9Zm8.2-8.336a.52.52,0,0,1-.329-.923,53.323,53.323,0,0,1,4.786-3.469.52.52,0,0,1,.563.875,52.185,52.185,0,0,0-4.693,3.4A.513.513,0,0,1,1378.887,4708.564Zm9.831-6.321a.52.52,0,0,1-.231-.986,52.876,52.876,0,0,1,5.436-2.322.52.52,0,1,1,.354.978,51.972,51.972,0,0,0-5.328,2.276A.513.513,0,0,1,1388.718,4702.243Zm10.988-3.982a.52.52,0,0,1-.121-1.026,52.615,52.615,0,0,1,5.817-1.053.52.52,0,0,1,.128,1.031,51.955,51.955,0,0,0-5.7,1.033A.521.521,0,0,1,1399.706,4698.261Z" transform="translate(-1359.014 -4696.178)" fill="#00223d"/>
  </g>
  <circle id="Elipse_2823" data-name="Elipse 2823" cx="38.731" cy="38.731" r="38.731" transform="translate(0 54.774) rotate(-45)" fill="url(#linear-gradient)"/>
  <g id="Grupo_26588" data-name="Grupo 26588" transform="translate(65.188 23.852)">
    <g id="Grupo_26587" data-name="Grupo 26587">
      <path id="Trazado_67428" data-name="Trazado 67428" d="M1470.7,4733.612h21.553a3.629,3.629,0,0,1,3.629,3.63v10.827a3.629,3.629,0,0,1-3.629,3.629h-.071v3.913l-6-3.913H1470.7a3.63,3.63,0,0,1-3.63-3.629v-10.827A3.63,3.63,0,0,1,1470.7,4733.612Z" transform="translate(-1466.548 -4733.092)" fill="#fff"/>
      <path id="Trazado_67429" data-name="Trazado 67429" d="M1491.82,4755.771a.524.524,0,0,1-.284-.084l-5.874-3.828h-15.325a4.154,4.154,0,0,1-4.15-4.149v-10.827a4.154,4.154,0,0,1,4.15-4.149h21.553a4.154,4.154,0,0,1,4.15,4.149v10.827a4.155,4.155,0,0,1-3.7,4.125v3.417a.52.52,0,0,1-.519.52Zm-21.483-22a3.114,3.114,0,0,0-3.11,3.109v10.827a3.113,3.113,0,0,0,3.11,3.109h15.479a.522.522,0,0,1,.284.084l5.2,3.389v-2.953a.52.52,0,0,1,.52-.52h.07a3.113,3.113,0,0,0,3.11-3.109v-10.827a3.113,3.113,0,0,0-3.11-3.109Z" transform="translate(-1466.188 -4732.733)" fill="#00223d"/>
    </g>
  </g>
  <g id="Grupo_26590" data-name="Grupo 26590" transform="translate(48.572 4.114)">
    <g id="Grupo_26589" data-name="Grupo 26589">
      <path id="Trazado_67430" data-name="Trazado 67430" d="M1463.638,4700.213h-21.13a3.558,3.558,0,0,0-3.557,3.558v10.613a3.557,3.557,0,0,0,3.557,3.558h.07v3.836l5.885-3.836h15.174a3.558,3.558,0,0,0,3.558-3.558v-10.613A3.558,3.558,0,0,0,1463.638,4700.213Z" transform="translate(-1438.431 -4699.693)" fill="#fff"/>
      <path id="Trazado_67431" data-name="Trazado 67431" d="M1442.219,4721.938a.522.522,0,0,1-.52-.521v-3.34a4.084,4.084,0,0,1-3.627-4.054v-10.613a4.083,4.083,0,0,1,4.078-4.078h21.13a4.083,4.083,0,0,1,4.078,4.078v10.613a4.083,4.083,0,0,1-4.078,4.079h-15.02l-5.755,3.75A.516.516,0,0,1,1442.219,4721.938Zm-.07-21.565a3.041,3.041,0,0,0-3.038,3.038v10.613a3.041,3.041,0,0,0,3.038,3.038h.07a.521.521,0,0,1,.52.521v2.875l5.081-3.311a.519.519,0,0,1,.284-.085h15.175a3.041,3.041,0,0,0,3.038-3.038v-10.613a3.041,3.041,0,0,0-3.038-3.038Z" transform="translate(-1438.071 -4699.333)" fill="#00223d"/>
    </g>
  </g>
  <g id="Grupo_26595" data-name="Grupo 26595" transform="translate(64.392 9.291)">
    <g id="Grupo_26591" data-name="Grupo 26591">
      <path id="Trazado_67432" data-name="Trazado 67432" d="M1465.721,4708.973h0Z" transform="translate(-1465.201 -4708.453)" fill="#fff"/>
      <path id="Trazado_67433" data-name="Trazado 67433" d="M1475.74,4709.133h-10.379a.52.52,0,1,1,0-1.04h10.379a.52.52,0,1,1,0,1.04Z" transform="translate(-1464.841 -4708.093)" fill="#00223d"/>
    </g>
    <g id="Grupo_26592" data-name="Grupo 26592" transform="translate(0 4.994)">
      <path id="Trazado_67434" data-name="Trazado 67434" d="M1465.721,4717.424h0Z" transform="translate(-1465.201 -4716.904)" fill="#fff"/>
      <path id="Trazado_67435" data-name="Trazado 67435" d="M1475.74,4717.584h-10.379a.52.52,0,1,1,0-1.04h10.379a.52.52,0,0,1,0,1.04Z" transform="translate(-1464.841 -4716.544)" fill="#00223d"/>
    </g>
    <g id="Grupo_26593" data-name="Grupo 26593" transform="translate(0 2.498)">
      <path id="Trazado_67436" data-name="Trazado 67436" d="M1465.721,4713.2h0Z" transform="translate(-1465.201 -4712.679)" fill="#fff"/>
      <path id="Trazado_67437" data-name="Trazado 67437" d="M1475.74,4713.358h-10.379a.52.52,0,1,1,0-1.04h10.379a.52.52,0,1,1,0,1.04Z" transform="translate(-1464.841 -4712.319)" fill="#00223d"/>
    </g>
    <g id="Grupo_26594" data-name="Grupo 26594" transform="translate(0 7.492)">
      <path id="Trazado_67438" data-name="Trazado 67438" d="M1465.721,4721.65h0Z" transform="translate(-1465.201 -4721.13)" fill="#fff"/>
      <path id="Trazado_67439" data-name="Trazado 67439" d="M1470.861,4721.81h-5.5a.52.52,0,1,1,0-1.04h5.5a.52.52,0,1,1,0,1.04Z" transform="translate(-1464.841 -4720.77)" fill="#00223d"/>
    </g>
  </g>
  <g id="Grupo_26598" data-name="Grupo 26598" transform="translate(49.653 6.092)">
    <g id="Grupo_26596" data-name="Grupo 26596">
      <circle id="Elipse_2824" data-name="Elipse 2824" cx="6.089" cy="6.089" r="6.089" transform="translate(0 11.852) rotate(-76.717)" fill="#f5ca56"/>
      <path id="Trazado_67440" data-name="Trazado 67440" d="M1447.721,4717.109a6.609,6.609,0,1,1,6.609-6.609A6.616,6.616,0,0,1,1447.721,4717.109Zm0-12.178a5.569,5.569,0,1,0,5.569,5.569A5.575,5.575,0,0,0,1447.721,4704.931Z" transform="translate(-1440.396 -4703.175)" fill="#00223d"/>
    </g>
    <g id="Grupo_26597" data-name="Grupo 26597" transform="translate(2.296 2.71)">
      <path id="Trazado_67441" data-name="Trazado 67441" d="M1453.652,4716.357l-.046-.009a1.172,1.172,0,0,0-.713-.527c-.6-.153-1.565-.27-2.1-.426a.671.671,0,0,1-.485-.645v-.511a.225.225,0,0,1,.086-.174,2.6,2.6,0,0,0,.726-1.072,1.3,1.3,0,0,0,.073-.265.3.3,0,0,0,.3-.241,9.56,9.56,0,0,0,.2-1.106c0-.328-.119-.4-.263-.32a1.968,1.968,0,0,0,.073-.5,2.3,2.3,0,0,0-2.429-2.414,2.332,2.332,0,0,0-2.429,2.414,1.814,1.814,0,0,0,.073.5c-.144-.084-.263-.007-.263.32a9.549,9.549,0,0,0,.2,1.106.3.3,0,0,0,.3.241c0,.034.011.066.017.1a2.175,2.175,0,0,0,.7,1.238.227.227,0,0,1,.09.177v.508a.668.668,0,0,1-.481.644c-.54.156-1.366.318-1.97.472a1.172,1.172,0,0,0-.65.434v.022a6.068,6.068,0,0,0,8.986.036Z" transform="translate(-1444.146 -4707.625)" fill="#fff"/>
      <path id="Trazado_67442" data-name="Trazado 67442" d="M1448.814,4718.489a6.622,6.622,0,0,1-4.895-2.178.52.52,0,0,1-.133-.382.6.6,0,0,1,.1-.3,1.7,1.7,0,0,1,.939-.627c.255-.065.55-.131.846-.2.4-.089.808-.183,1.109-.269a.148.148,0,0,0,.1-.144v-.371a2.689,2.689,0,0,1-.735-1.259.777.777,0,0,1-.367-.553,6.26,6.26,0,0,0-.132-.646,1.944,1.944,0,0,1-.078-.541.965.965,0,0,1,.2-.648c0-.054-.006-.111-.007-.171a2.857,2.857,0,0,1,.814-2.084,3.126,3.126,0,0,1,4.3.014,2.807,2.807,0,0,1,.779,2.078c0,.055,0,.108-.008.162a.964.964,0,0,1,.2.65,1.926,1.926,0,0,1-.077.541,6.193,6.193,0,0,0-.132.646.78.78,0,0,1-.387.565l-.015.042a3.215,3.215,0,0,1-.779,1.2v.375a.152.152,0,0,0,.108.145c.261.075.662.146,1.05.215.363.064.74.13,1.04.207a1.68,1.68,0,0,1,.929.613.521.521,0,0,1,.084.779A6.623,6.623,0,0,1,1448.814,4718.489Zm-3.726-2.479a5.542,5.542,0,0,0,7.448,0,.664.664,0,0,0-.131-.049c-.263-.067-.62-.13-.965-.19-.414-.073-.843-.148-1.156-.239a1.2,1.2,0,0,1-.861-1.145v-.512a.747.747,0,0,1,.276-.576,2.094,2.094,0,0,0,.569-.853.838.838,0,0,0,.047-.158.52.52,0,0,1,.33-.41c.05-.282.094-.456.124-.576.018-.071.03-.117.037-.158a.5.5,0,0,1-.052-.036.52.52,0,0,1-.182-.555,1.419,1.419,0,0,0,.053-.37,1.787,1.787,0,0,0-.483-1.328,2.088,2.088,0,0,0-2.824-.008,1.839,1.839,0,0,0-.512,1.344,1.292,1.292,0,0,0,.053.362.52.52,0,0,1-.182.555.4.4,0,0,1-.052.036c.007.042.018.087.037.158.031.121.074.294.124.576a.519.519,0,0,1,.331.414c0,.024.007.048.012.072a1.651,1.651,0,0,0,.515.932.749.749,0,0,1,.284.583v.509a1.194,1.194,0,0,1-.856,1.144c-.33.095-.756.19-1.168.284C1445.618,4715.884,1445.334,4715.947,1445.088,4716.01Z" transform="translate(-1443.785 -4707.266)" fill="#00223d"/>
    </g>
  </g>
  <g id="Grupo_26603" data-name="Grupo 26603" transform="translate(67.518 29.708)">
    <g id="Grupo_26599" data-name="Grupo 26599">
      <path id="Trazado_67443" data-name="Trazado 67443" d="M1481.389,4743.521h0Z" transform="translate(-1470.49 -4743.001)" fill="#fff"/>
      <path id="Trazado_67444" data-name="Trazado 67444" d="M1481.029,4743.681H1470.65a.52.52,0,1,1,0-1.04h10.379a.52.52,0,0,1,0,1.04Z" transform="translate(-1470.13 -4742.641)" fill="#00223d"/>
    </g>
    <g id="Grupo_26600" data-name="Grupo 26600" transform="translate(0 4.995)">
      <path id="Trazado_67445" data-name="Trazado 67445" d="M1481.389,4751.972h0Z" transform="translate(-1470.49 -4751.453)" fill="#fff"/>
      <path id="Trazado_67446" data-name="Trazado 67446" d="M1481.029,4752.133H1470.65a.52.52,0,1,1,0-1.04h10.379a.52.52,0,1,1,0,1.04Z" transform="translate(-1470.13 -4751.093)" fill="#00223d"/>
    </g>
    <g id="Grupo_26601" data-name="Grupo 26601" transform="translate(0 2.498)">
      <path id="Trazado_67447" data-name="Trazado 67447" d="M1481.389,4747.747h0Z" transform="translate(-1470.49 -4747.227)" fill="#fff"/>
      <path id="Trazado_67448" data-name="Trazado 67448" d="M1481.029,4747.907H1470.65a.52.52,0,1,1,0-1.04h10.379a.52.52,0,0,1,0,1.04Z" transform="translate(-1470.13 -4746.867)" fill="#00223d"/>
    </g>
    <g id="Grupo_26602" data-name="Grupo 26602" transform="translate(4.879 7.492)">
      <path id="Trazado_67449" data-name="Trazado 67449" d="M1484.766,4756.2h0Z" transform="translate(-1478.746 -4755.678)" fill="#fff"/>
      <path id="Trazado_67450" data-name="Trazado 67450" d="M1484.406,4756.358h-5.5a.52.52,0,1,1,0-1.04h5.5a.52.52,0,1,1,0,1.04Z" transform="translate(-1478.386 -4755.318)" fill="#00223d"/>
    </g>
  </g>
  <g id="Grupo_26606" data-name="Grupo 26606" transform="translate(78.845 25.904)">
    <g id="Grupo_26604" data-name="Grupo 26604">
      <circle id="Elipse_2825" data-name="Elipse 2825" cx="6.089" cy="6.089" r="6.089" transform="translate(0 11.852) rotate(-76.717)" fill="#f5ca56"/>
      <path id="Trazado_67451" data-name="Trazado 67451" d="M1497.118,4750.634a6.609,6.609,0,1,1,6.608-6.609A6.617,6.617,0,0,1,1497.118,4750.634Zm0-12.179a5.569,5.569,0,1,0,5.569,5.57A5.576,5.576,0,0,0,1497.118,4738.455Z" transform="translate(-1489.793 -4736.7)" fill="#00223d"/>
    </g>
    <g id="Grupo_26605" data-name="Grupo 26605" transform="translate(2.296 2.71)">
      <path id="Trazado_67452" data-name="Trazado 67452" d="M1503,4749.874a1.165,1.165,0,0,0-.713-.528c-.6-.153-1.565-.27-2.105-.425a.672.672,0,0,1-.485-.645v-.512a.226.226,0,0,1,.086-.173,2.6,2.6,0,0,0,.726-1.073,1.329,1.329,0,0,0,.074-.264.3.3,0,0,0,.3-.242,9.6,9.6,0,0,0,.2-1.105c0-.328-.119-.405-.263-.321a2,2,0,0,0,.073-.5,2.3,2.3,0,0,0-2.429-2.413,2.332,2.332,0,0,0-2.43,2.413,1.836,1.836,0,0,0,.073.5c-.144-.084-.263-.006-.263.321a9.547,9.547,0,0,0,.2,1.105.3.3,0,0,0,.3.242c0,.033.011.066.017.1a2.167,2.167,0,0,0,.7,1.238.228.228,0,0,1,.09.178v.508a.668.668,0,0,1-.48.644c-.54.156-1.367.318-1.97.471a1.169,1.169,0,0,0-.65.435l0,.021a6.068,6.068,0,0,0,8.953.072Z" transform="translate(-1493.542 -4741.15)" fill="#fff"/>
      <path id="Trazado_67453" data-name="Trazado 67453" d="M1498.212,4752.014a6.619,6.619,0,0,1-4.9-2.179.52.52,0,0,1-.132-.4.6.6,0,0,1,.1-.282,1.7,1.7,0,0,1,.939-.627c.255-.065.55-.131.846-.2.4-.089.808-.182,1.108-.268a.15.15,0,0,0,.1-.144v-.371a2.683,2.683,0,0,1-.734-1.258.779.779,0,0,1-.368-.553,6.337,6.337,0,0,0-.132-.646,1.94,1.94,0,0,1-.077-.541.962.962,0,0,1,.2-.648c0-.054-.007-.11-.008-.171a2.9,2.9,0,0,1,.814-2.084,3.126,3.126,0,0,1,4.3.014,2.809,2.809,0,0,1,.78,2.079c0,.054,0,.108-.008.161a.963.963,0,0,1,.2.65,1.939,1.939,0,0,1-.078.541,6.337,6.337,0,0,0-.132.646.781.781,0,0,1-.388.564l-.015.043a3.209,3.209,0,0,1-.78,1.2v.375a.151.151,0,0,0,.109.145c.261.076.661.146,1.048.215.364.064.74.13,1.041.207a1.682,1.682,0,0,1,1.03.762.524.524,0,0,1,.056.128l.012.045a.52.52,0,0,1-.121.5A6.54,6.54,0,0,1,1498.212,4752.014Zm-3.727-2.479a5.57,5.57,0,0,0,3.727,1.439,5.5,5.5,0,0,0,3.722-1.434.648.648,0,0,0-.133-.049c-.263-.067-.62-.13-.965-.19-.433-.077-.842-.149-1.155-.239a1.2,1.2,0,0,1-.861-1.145v-.511a.747.747,0,0,1,.276-.577,2.09,2.09,0,0,0,.57-.853.818.818,0,0,0,.046-.156.519.519,0,0,1,.331-.412c.05-.282.094-.456.124-.577.018-.071.03-.117.037-.158l-.053-.036a.52.52,0,0,1-.182-.555,1.441,1.441,0,0,0,.053-.37,1.79,1.79,0,0,0-.483-1.329,2.089,2.089,0,0,0-2.823-.008,1.84,1.84,0,0,0-.512,1.345,1.321,1.321,0,0,0,.053.364.519.519,0,0,1-.183.553.372.372,0,0,1-.051.035c.007.042.018.088.036.159.031.121.075.293.124.576a.52.52,0,0,1,.331.414c0,.024.008.048.012.072a1.653,1.653,0,0,0,.515.932.747.747,0,0,1,.284.583v.508a1.194,1.194,0,0,1-.856,1.143c-.33.1-.756.191-1.167.284C1495.015,4749.408,1494.731,4749.472,1494.485,4749.534Z" transform="translate(-1493.182 -4740.79)" fill="#00223d"/>
    </g>
  </g>
  <g id="Grupo_26607" data-name="Grupo 26607" transform="translate(14.536 37.076)">
    <path id="Trazado_67454" data-name="Trazado 67454" d="M1422.867,4755.99v31.7a.345.345,0,0,1-.344.345H1381.7a.345.345,0,0,1-.345-.345v-31.7Z" transform="translate(-1380.838 -4755.47)" fill="#fff"/>
    <path id="Trazado_67455" data-name="Trazado 67455" d="M1422.163,4788.192h-40.82a.865.865,0,0,1-.865-.865v-31.7a.52.52,0,0,1,1.04,0v31.522h40.47V4755.63a.52.52,0,1,1,1.04,0v31.7A.865.865,0,0,1,1422.163,4788.192Z" transform="translate(-1380.478 -4755.11)" fill="#00223d"/>
  </g>
  <circle id="Elipse_2826" data-name="Elipse 2826" cx="8.524" cy="8.524" r="8.524" transform="translate(18.944 57.799) rotate(-76.717)" fill="#f5ca56"/>
  <circle id="Elipse_2827" data-name="Elipse 2827" cx="5.218" cy="5.218" r="5.218" transform="translate(23.98 46.243)" fill="#fff"/>
  <circle id="Elipse_2828" data-name="Elipse 2828" cx="2.172" cy="2.172" r="2.172" transform="matrix(0.23, -0.973, 0.973, 0.23, 26.585, 53.077)" fill="#ffce3b"/>
  <g id="Grupo_26620" data-name="Grupo 26620" transform="translate(20.214 39.069)">
    <g id="Grupo_26608" data-name="Grupo 26608" transform="translate(1.62 8.231)">
      <path id="Trazado_67456" data-name="Trazado 67456" d="M1393.348,4793.33a.52.52,0,0,1-.368-.888l9.989-10a1.037,1.037,0,0,1,1.432,0l3.286,3.376a1.224,1.224,0,0,0,1.726-.005l13.26-13.255a.52.52,0,0,1,.735.736l-13.26,13.255a2.267,2.267,0,0,1-3.2,0l-3.262-3.352-9.97,9.976A.516.516,0,0,1,1393.348,4793.33Z" transform="translate(-1392.828 -4772.41)" fill="#00223d"/>
    </g>
    <g id="Grupo_26609" data-name="Grupo 26609" transform="translate(15.693 7.498)">
      <path id="Trazado_67457" data-name="Trazado 67457" d="M1417.16,4780.99a.526.526,0,0,1-.271-.076.521.521,0,0,1-.173-.715,7.952,7.952,0,0,0,.018-8.241.52.52,0,0,1,.889-.539,8.993,8.993,0,0,1-.02,9.321A.52.52,0,0,1,1417.16,4780.99Z" transform="translate(-1416.641 -4771.169)" fill="#00223d"/>
    </g>
    <g id="Grupo_26610" data-name="Grupo 26610" transform="translate(0 3.408)">
      <path id="Trazado_67458" data-name="Trazado 67458" d="M1396.045,4781.662a.52.52,0,0,1-.186-.035,8.986,8.986,0,1,1,7.633-16.216.52.52,0,0,1-.513.905,7.946,7.946,0,1,0-6.748,14.34.52.52,0,0,1-.186,1.006Z" transform="translate(-1390.086 -4764.249)" fill="#00223d"/>
    </g>
    <g id="Grupo_26611" data-name="Grupo 26611" transform="translate(12.954 9.972)">
      <path id="Trazado_67459" data-name="Trazado 67459" d="M1412.526,4780.8a.52.52,0,0,1-.454-.773,4.633,4.633,0,0,0,.259-3.959.52.52,0,0,1,.966-.385,5.67,5.67,0,0,1-.317,4.852A.519.519,0,0,1,1412.526,4780.8Z" transform="translate(-1412.006 -4775.356)" fill="#00223d"/>
    </g>
    <g id="Grupo_26612" data-name="Grupo 26612" transform="translate(3.324 6.732)">
      <path id="Trazado_67460" data-name="Trazado 67460" d="M1401.127,4781.189h-.025a5.661,5.661,0,1,1,2.534-10.843.52.52,0,0,1-.417.953,4.621,4.621,0,1,0-2.068,8.851.52.52,0,0,1-.024,1.04Z" transform="translate(-1395.711 -4769.874)" fill="#00223d"/>
    </g>
    <g id="Grupo_26613" data-name="Grupo 26613" transform="translate(6.247 9.654)">
      <path id="Trazado_67461" data-name="Trazado 67461" d="M1403.394,4780.294a2.738,2.738,0,0,1,0-5.477.52.52,0,0,1,0,1.041,1.7,1.7,0,1,0,1.7,1.7.52.52,0,1,1,1.04,0A2.741,2.741,0,0,1,1403.394,4780.294Z" transform="translate(-1400.656 -4774.818)" fill="#00223d"/>
    </g>
    <g id="Grupo_26614" data-name="Grupo 26614" transform="translate(8.465 2.012)">
      <path id="Trazado_67462" data-name="Trazado 67462" d="M1404.929,4772.787a.519.519,0,0,1-.367-.888l9.889-9.86a.52.52,0,1,1,.735.736l-9.889,9.86A.52.52,0,0,1,1404.929,4772.787Z" transform="translate(-1404.409 -4761.887)" fill="#00223d"/>
    </g>
    <g id="Grupo_26615" data-name="Grupo 26615" transform="translate(18.354)">
      <path id="Trazado_67463" data-name="Trazado 67463" d="M1421.663,4761.534a.52.52,0,0,1-.52-.52V4759a.52.52,0,0,1,1.04,0v2.012A.52.52,0,0,1,1421.663,4761.534Z" transform="translate(-1421.143 -4758.482)" fill="#00223d"/>
    </g>
    <g id="Grupo_26616" data-name="Grupo 26616" transform="translate(16.266 1.934)">
      <path id="Trazado_67464" data-name="Trazado 67464" d="M1418.13,4764.961a.521.521,0,0,1-.52-.521v-2.167a.52.52,0,0,1,1.04,0v2.167A.521.521,0,0,1,1418.13,4764.961Z" transform="translate(-1417.61 -4761.754)" fill="#00223d"/>
    </g>
    <g id="Grupo_26617" data-name="Grupo 26617" transform="translate(18.354 2.012)">
      <path id="Trazado_67465" data-name="Trazado 67465" d="M1423.615,4762.927h-1.952a.52.52,0,1,1,0-1.04h1.952a.52.52,0,1,1,0,1.04Z" transform="translate(-1421.143 -4761.887)" fill="#00223d"/>
    </g>
    <g id="Grupo_26618" data-name="Grupo 26618" transform="translate(16.266 4.101)">
      <path id="Trazado_67466" data-name="Trazado 67466" d="M1420.236,4766.46h-2.106a.52.52,0,1,1,0-1.04h2.106a.52.52,0,1,1,0,1.04Z" transform="translate(-1417.61 -4765.421)" fill="#00223d"/>
    </g>
    <g id="Grupo_26619" data-name="Grupo 26619" transform="translate(27.465 7.761)">
      <path id="Trazado_67467" data-name="Trazado 67467" d="M1440.685,4776.594a.526.526,0,0,1-.091-.008.52.52,0,0,1-.422-.6l.566-3.208-3.567.628a.52.52,0,1,1-.18-1.023l4.3-.758a.521.521,0,0,1,.6.6l-.694,3.939A.521.521,0,0,1,1440.685,4776.594Z" transform="translate(-1436.561 -4771.614)" fill="#00223d"/>
    </g>
  </g>
  <g id="Grupo_26621" data-name="Grupo 26621" transform="translate(13.08 34.164)">
    <rect id="Rectángulo_25695" data-name="Rectángulo 25695" width="44.423" height="2.913" rx="0.765" transform="translate(0.52 0.52)" fill="#1363b2"/>
    <path id="Trazado_67468" data-name="Trazado 67468" d="M1422.5,4754.134h-43.519a.973.973,0,0,1-.972-.972v-2.009a.973.973,0,0,1,.972-.972H1422.5a.973.973,0,0,1,.972.972v2.009A.973.973,0,0,1,1422.5,4754.134Zm-43.451-1.04h43.383v-1.873h-43.383Z" transform="translate(-1378.014 -4750.181)" fill="#00223d"/>
  </g>
  <g id="Grupo_26622" data-name="Grupo 26622" transform="translate(28.296 69.127)">
    <path id="Trazado_67469" data-name="Trazado 67469" d="M1404.281,4817.533a.519.519,0,0,1-.375-.88l6.879-7.151a.52.52,0,0,1,.75.722l-6.88,7.15A.519.519,0,0,1,1404.281,4817.533Z" transform="translate(-1403.761 -4809.343)" fill="#00223d"/>
  </g>
  <g id="Grupo_26623" data-name="Grupo 26623" transform="translate(35.214 69.126)">
    <path id="Trazado_67470" data-name="Trazado 67470" d="M1422.868,4817.533a.519.519,0,0,1-.375-.159l-6.88-7.151a.52.52,0,0,1,.75-.721l6.88,7.151a.52.52,0,0,1-.375.88Z" transform="translate(-1415.468 -4809.342)" fill="#00223d"/>
  </g>
  <g id="Grupo_26626" data-name="Grupo 26626" transform="translate(49.167 57.32)">
    <g id="Grupo_26624" data-name="Grupo 26624">
      <path id="Trazado_67471" data-name="Trazado 67471" d="M1442.138,4792.945a.518.518,0,0,1-.367-.152l-2.541-2.541a.52.52,0,0,1,.736-.735l2.541,2.541a.52.52,0,0,1-.368.888Z" transform="translate(-1439.078 -4789.364)" fill="#00223d"/>
    </g>
    <g id="Grupo_26625" data-name="Grupo 26625">
      <path id="Trazado_67472" data-name="Trazado 67472" d="M1439.6,4792.945a.52.52,0,0,1-.368-.888l2.541-2.541a.52.52,0,1,1,.736.735l-2.541,2.541A.519.519,0,0,1,1439.6,4792.945Z" transform="translate(-1439.078 -4789.364)" fill="#00223d"/>
    </g>
  </g>
  <g id="Grupo_26627" data-name="Grupo 26627" transform="translate(43.042 61.577)">
    <circle id="Elipse_2829" data-name="Elipse 2829" cx="2.626" cy="2.626" r="2.626" transform="translate(0.52 0.52)" fill="#ffce3b"/>
    <path id="Trazado_67473" data-name="Trazado 67473" d="M1431.86,4802.86a3.146,3.146,0,1,1,3.146-3.146A3.149,3.149,0,0,1,1431.86,4802.86Zm0-5.252a2.106,2.106,0,1,0,2.106,2.106A2.108,2.108,0,0,0,1431.86,4797.608Z" transform="translate(-1428.714 -4796.568)" fill="#00223d"/>
  </g>
  <g id="Grupo_26655" data-name="Grupo 26655" transform="translate(60.776 51.507)">
    <g id="Grupo_26652" data-name="Grupo 26652">
      <g id="Grupo_26651" data-name="Grupo 26651">
        <g id="Grupo_26650" data-name="Grupo 26650">
          <g id="Grupo_26633" data-name="Grupo 26633" transform="translate(6.61 22.952)">
            <g id="Grupo_26628" data-name="Grupo 26628">
              <path id="Trazado_67474" data-name="Trazado 67474" d="M1481.292,4831.77c-.137-2.113-.419-4.159-1.288-5.4a3.866,3.866,0,0,0-2.427-1.809,2.949,2.949,0,0,0,1.211-2.4,2.824,2.824,0,1,0-5.646,0,2.949,2.949,0,0,0,1.225,2.408,4,4,0,0,0-2.207,1.676c-.92,1.246-1.225,3.338-1.371,5.509a1.868,1.868,0,0,0,1.861,2h6.78A1.867,1.867,0,0,0,1481.292,4831.77Z" transform="translate(-1470.266 -4818.726)" fill="#fff"/>
              <path id="Trazado_67475" data-name="Trazado 67475" d="M1479.071,4833.919h-6.781a2.389,2.389,0,0,1-2.379-2.552c.139-2.063.424-4.364,1.471-5.784a5.71,5.71,0,0,1,1.665-1.56,3.506,3.506,0,0,1-.785-2.215,3.344,3.344,0,1,1,6.686,0,3.506,3.506,0,0,1-.742,2.159,5.6,5.6,0,0,1,1.862,1.747c.985,1.4,1.252,3.648,1.382,5.662a2.386,2.386,0,0,1-2.38,2.544Zm-3.466-14.513a2.356,2.356,0,0,0-2.3,2.4,2.435,2.435,0,0,0,1.006,1.984.52.52,0,0,1-.216.936,3.437,3.437,0,0,0-1.874,1.472c-.894,1.212-1.149,3.435-1.271,5.236a1.348,1.348,0,0,0,1.342,1.442h6.781a1.349,1.349,0,0,0,1.342-1.436c-.114-1.761-.354-3.935-1.2-5.131a3.341,3.341,0,0,0-2.043-1.589.52.52,0,0,1-.262-.939,2.437,2.437,0,0,0,1-1.976A2.357,2.357,0,0,0,1475.605,4819.406Z" transform="translate(-1469.906 -4818.366)" fill="#325a6a"/>
            </g>
            <g id="Grupo_26632" data-name="Grupo 26632" transform="translate(0)">
              <g id="Grupo_26631" data-name="Grupo 26631">
                <g id="Grupo_26629" data-name="Grupo 26629" transform="translate(0 5.317)">
                  <path id="Trazado_67476" data-name="Trazado 67476" d="M1477.583,4828.244a3.874,3.874,0,0,1,2.421,1.81c.869,1.237,1.151,3.283,1.288,5.4a1.867,1.867,0,0,1-1.862,1.99h-6.78a1.868,1.868,0,0,1-1.861-2c.146-2.171.451-4.263,1.371-5.509a4.053,4.053,0,0,1,2.175-1.673Z" transform="translate(-1470.266 -4827.724)" fill="#fff"/>
                  <path id="Trazado_67477" data-name="Trazado 67477" d="M1479.072,4837.6h-6.781a2.387,2.387,0,0,1-2.379-2.552c.139-2.063.422-4.363,1.471-5.784a4.6,4.6,0,0,1,2.5-1.875.52.52,0,0,1,.19,1.022,3.49,3.49,0,0,0-1.852,1.47c-.895,1.212-1.149,3.436-1.271,5.236a1.347,1.347,0,0,0,1.342,1.442h6.781a1.348,1.348,0,0,0,1.342-1.436c-.114-1.761-.353-3.935-1.2-5.131a3.356,3.356,0,0,0-2.039-1.592.52.52,0,1,1,.087-1.036,4.4,4.4,0,0,1,2.8,2.029c.985,1.4,1.252,3.648,1.382,5.661a2.386,2.386,0,0,1-2.38,2.544Z" transform="translate(-1469.907 -4827.364)" fill="#325a6a"/>
                </g>
                <g id="Grupo_26630" data-name="Grupo 26630" transform="translate(2.356)">
                  <ellipse id="Elipse_2830" data-name="Elipse 2830" cx="2.823" cy="2.922" rx="2.823" ry="2.922" transform="translate(0.52 0.52)" fill="#fff"/>
                  <path id="Trazado_67478" data-name="Trazado 67478" d="M1477.237,4825.251a3.444,3.444,0,1,1,3.343-3.442A3.4,3.4,0,0,1,1477.237,4825.251Zm0-5.845a2.4,2.4,0,1,0,2.3,2.4A2.356,2.356,0,0,0,1477.237,4819.406Z" transform="translate(-1473.894 -4818.366)" fill="#00223d"/>
                </g>
              </g>
            </g>
          </g>
          <g id="Grupo_26639" data-name="Grupo 26639" transform="translate(17.78 22.952)">
            <g id="Grupo_26634" data-name="Grupo 26634">
              <path id="Trazado_67479" data-name="Trazado 67479" d="M1500.194,4831.77c-.137-2.113-.419-4.159-1.288-5.4a3.865,3.865,0,0,0-2.427-1.809,2.949,2.949,0,0,0,1.211-2.4,2.824,2.824,0,1,0-5.646,0,2.949,2.949,0,0,0,1.225,2.408,4,4,0,0,0-2.207,1.676c-.92,1.246-1.224,3.338-1.371,5.509a1.868,1.868,0,0,0,1.861,2h6.78A1.867,1.867,0,0,0,1500.194,4831.77Z" transform="translate(-1489.168 -4818.726)" fill="#fff"/>
              <path id="Trazado_67480" data-name="Trazado 67480" d="M1497.973,4833.919h-6.78a2.389,2.389,0,0,1-2.379-2.552c.139-2.063.424-4.364,1.471-5.784a5.713,5.713,0,0,1,1.665-1.56,3.506,3.506,0,0,1-.785-2.215,3.344,3.344,0,1,1,6.686,0,3.505,3.505,0,0,1-.742,2.159,5.6,5.6,0,0,1,1.862,1.747c.985,1.4,1.252,3.648,1.382,5.662a2.387,2.387,0,0,1-2.38,2.544Zm-3.465-14.513a2.356,2.356,0,0,0-2.3,2.4,2.435,2.435,0,0,0,1.006,1.984.52.52,0,0,1-.216.936,3.436,3.436,0,0,0-1.874,1.472c-.894,1.212-1.149,3.435-1.271,5.236a1.348,1.348,0,0,0,1.342,1.442h6.78a1.349,1.349,0,0,0,1.343-1.436c-.114-1.761-.354-3.935-1.195-5.131a3.341,3.341,0,0,0-2.043-1.589.52.52,0,0,1-.262-.939,2.437,2.437,0,0,0,1-1.976A2.357,2.357,0,0,0,1494.507,4819.406Z" transform="translate(-1488.808 -4818.366)" fill="#325a6a"/>
            </g>
            <g id="Grupo_26638" data-name="Grupo 26638">
              <g id="Grupo_26637" data-name="Grupo 26637">
                <g id="Grupo_26635" data-name="Grupo 26635" transform="translate(0 5.317)">
                  <path id="Trazado_67481" data-name="Trazado 67481" d="M1496.485,4828.244a3.874,3.874,0,0,1,2.421,1.81c.869,1.237,1.151,3.283,1.288,5.4a1.867,1.867,0,0,1-1.862,1.99h-6.78a1.868,1.868,0,0,1-1.861-2c.147-2.171.451-4.263,1.371-5.509a4.054,4.054,0,0,1,2.175-1.673Z" transform="translate(-1489.168 -4827.724)" fill="#fff"/>
                  <path id="Trazado_67482" data-name="Trazado 67482" d="M1497.973,4837.6h-6.78a2.388,2.388,0,0,1-2.379-2.552c.139-2.063.424-4.364,1.471-5.784a4.6,4.6,0,0,1,2.5-1.875.52.52,0,0,1,.19,1.022,3.484,3.484,0,0,0-1.852,1.47c-.894,1.212-1.149,3.435-1.271,5.236a1.348,1.348,0,0,0,1.342,1.442h6.78a1.348,1.348,0,0,0,1.343-1.436c-.114-1.761-.354-3.935-1.195-5.131a3.357,3.357,0,0,0-2.039-1.592.52.52,0,1,1,.087-1.036,4.4,4.4,0,0,1,2.8,2.029c.985,1.4,1.252,3.648,1.382,5.661a2.387,2.387,0,0,1-2.38,2.544Z" transform="translate(-1488.808 -4827.364)" fill="#00223d"/>
                </g>
                <g id="Grupo_26636" data-name="Grupo 26636" transform="translate(2.357)">
                  <ellipse id="Elipse_2831" data-name="Elipse 2831" cx="2.823" cy="2.922" rx="2.823" ry="2.922" transform="translate(0.52 0.52)" fill="#fff"/>
                  <path id="Trazado_67483" data-name="Trazado 67483" d="M1496.139,4825.251a3.444,3.444,0,1,1,3.343-3.442A3.4,3.4,0,0,1,1496.139,4825.251Zm0-5.845a2.4,2.4,0,1,0,2.3,2.4A2.356,2.356,0,0,0,1496.139,4819.406Z" transform="translate(-1492.796 -4818.366)" fill="#00223d"/>
                </g>
              </g>
            </g>
          </g>
          <g id="Grupo_26642" data-name="Grupo 26642" transform="translate(0 25.751)">
            <g id="Grupo_26640" data-name="Grupo 26640" transform="translate(0 6.493)">
              <path id="Trazado_67484" data-name="Trazado 67484" d="M1461.884,4846.238a2.286,2.286,0,0,1-2.278-2.444c.18-2.657.552-5.217,1.678-6.743.72-.976,1.853-2.085,3.029-2.082q1.448,0,3.444.007c1.232,0,2.393,1.183,3.124,2.223,1.064,1.514,1.409,4.018,1.577,6.6a2.285,2.285,0,0,1-2.278,2.436Z" transform="translate(-1459.081 -4834.449)" fill="#f5ca56"/>
              <path id="Trazado_67485" data-name="Trazado 67485" d="M1469.821,4846.4h-8.3a2.774,2.774,0,0,1-2.045-.888,2.822,2.822,0,0,1-.751-2.111c.17-2.508.514-5.3,1.779-7.017.632-.856,1.92-2.293,3.443-2.293l.7,0q1.211,0,2.746.006c1.6,0,2.908,1.532,3.549,2.443,1.19,1.692,1.512,4.421,1.671,6.87a2.818,2.818,0,0,1-.753,2.1A2.777,2.777,0,0,1,1469.821,4846.4Zm-8.3-1.04h8.3a1.764,1.764,0,0,0,1.759-1.882c-.141-2.169-.436-4.85-1.483-6.339-.881-1.252-1.889-2-2.7-2q-1.534,0-2.747-.006l-.7,0a3.888,3.888,0,0,0-2.61,1.871c-1.113,1.507-1.428,4.249-1.578,6.469a1.768,1.768,0,0,0,1.759,1.89Z" transform="translate(-1458.721 -4834.089)" fill="#00223d"/>
            </g>
            <g id="Grupo_26641" data-name="Grupo 26641" transform="translate(2.885)">
              <ellipse id="Elipse_2832" data-name="Elipse 2832" cx="3.454" cy="3.576" rx="3.454" ry="3.576" transform="translate(0.52 0.52)" fill="#fff"/>
              <path id="Trazado_67486" data-name="Trazado 67486" d="M1467.577,4831.295a4.1,4.1,0,1,1,3.974-4.1A4.041,4.041,0,0,1,1467.577,4831.295Zm0-7.153a3.059,3.059,0,1,0,2.934,3.057A3,3,0,0,0,1467.577,4824.142Z" transform="translate(-1463.603 -4823.102)" fill="#00223d"/>
            </g>
          </g>
          <g id="Grupo_26645" data-name="Grupo 26645" transform="translate(22.058 25.751)">
            <g id="Grupo_26643" data-name="Grupo 26643" transform="translate(0 6.493)">
              <path id="Trazado_67487" data-name="Trazado 67487" d="M1499.206,4846.238a2.285,2.285,0,0,1-2.277-2.444c.18-2.657.552-5.217,1.678-6.743.72-.976,1.853-2.085,3.029-2.082q1.448,0,3.444.007c1.232,0,2.393,1.183,3.125,2.223,1.064,1.514,1.409,4.018,1.577,6.6a2.285,2.285,0,0,1-2.278,2.436Z" transform="translate(-1496.405 -4834.449)" fill="#f5ca56"/>
              <path id="Trazado_67488" data-name="Trazado 67488" d="M1507.145,4846.4h-8.3a2.771,2.771,0,0,1-2.045-.888,2.823,2.823,0,0,1-.751-2.111c.169-2.508.512-5.3,1.778-7.017.633-.857,1.915-2.308,3.449-2.293l.7,0q1.21,0,2.744.006c1.6,0,2.908,1.532,3.549,2.443,1.19,1.692,1.512,4.421,1.671,6.87a2.824,2.824,0,0,1-.753,2.1A2.776,2.776,0,0,1,1507.145,4846.4Zm-8.3-1.04h8.3a1.765,1.765,0,0,0,1.759-1.882c-.141-2.169-.436-4.85-1.483-6.339-.881-1.252-1.89-2-2.7-2q-1.533,0-2.746-.006l-.7,0a3.889,3.889,0,0,0-2.61,1.871c-1.113,1.507-1.428,4.25-1.578,6.469a1.767,1.767,0,0,0,1.758,1.89Z" transform="translate(-1496.045 -4834.089)" fill="#00223d"/>
            </g>
            <g id="Grupo_26644" data-name="Grupo 26644" transform="translate(2.884)">
              <ellipse id="Elipse_2833" data-name="Elipse 2833" cx="3.454" cy="3.576" rx="3.454" ry="3.576" transform="translate(0.52 0.52)" fill="#fff"/>
              <path id="Trazado_67489" data-name="Trazado 67489" d="M1504.9,4831.295a4.1,4.1,0,1,1,3.974-4.1A4.041,4.041,0,0,1,1504.9,4831.295Zm0-7.153a3.059,3.059,0,1,0,2.935,3.057A3,3,0,0,0,1504.9,4824.142Z" transform="translate(-1500.926 -4823.102)" fill="#00223d"/>
            </g>
          </g>
          <g id="Grupo_26648" data-name="Grupo 26648" transform="translate(10.721 27.842)">
            <g id="Grupo_26646" data-name="Grupo 26646" transform="translate(0 6.673)">
              <path id="Trazado_67490" data-name="Trazado 67490" d="M1480.087,4850.389a2.349,2.349,0,0,1-2.34-2.511c.184-2.73.567-5.362,1.725-6.93.74-1,1.9-2.142,3.113-2.139q1.488,0,3.539.008c1.266,0,2.46,1.215,3.211,2.283,1.094,1.556,1.448,4.129,1.621,6.786a2.348,2.348,0,0,1-2.341,2.5Z" transform="translate(-1477.222 -4838.29)" fill="#26aab7"/>
              <path id="Trazado_67491" data-name="Trazado 67491" d="M1488.256,4850.55h-8.528a2.834,2.834,0,0,1-2.091-.908,2.885,2.885,0,0,1-.768-2.159c.173-2.575.526-5.444,1.825-7.2.648-.878,1.968-2.35,3.527-2.35h.557l2.987.006c1.632,0,2.979,1.57,3.636,2.5,1.22,1.734,1.551,4.537,1.714,7.051a2.884,2.884,0,0,1-.771,2.151A2.835,2.835,0,0,1,1488.256,4850.55Zm-6.034-11.581a4.01,4.01,0,0,0-2.691,1.928c-1.146,1.553-1.47,4.372-1.623,6.655a1.829,1.829,0,0,0,1.821,1.957h8.527a1.829,1.829,0,0,0,1.823-1.949c-.145-2.231-.45-4.988-1.527-6.521-.908-1.291-1.949-2.062-2.786-2.062l-2.989-.006h-.553Z" transform="translate(-1476.863 -4837.93)" fill="#00223d"/>
            </g>
            <g id="Grupo_26647" data-name="Grupo 26647" transform="translate(2.964)">
              <ellipse id="Elipse_2834" data-name="Elipse 2834" cx="3.55" cy="3.675" rx="3.55" ry="3.675" transform="translate(0.52 0.52)" fill="#fff"/>
              <path id="Trazado_67492" data-name="Trazado 67492" d="M1485.949,4835.029a4.2,4.2,0,1,1,4.069-4.2A4.138,4.138,0,0,1,1485.949,4835.029Zm0-7.351a3.158,3.158,0,1,0,3.03,3.155A3.1,3.1,0,0,0,1485.949,4827.679Z" transform="translate(-1481.879 -4826.639)" fill="#00223d"/>
            </g>
          </g>
          <g id="Grupo_26649" data-name="Grupo 26649" transform="translate(2.043)">
            <path id="Trazado_67493" data-name="Trazado 67493" d="M1489.112,4780.408H1467.16a4.1,4.1,0,0,0-4.1,4.1v11.862a4.1,4.1,0,0,0,4.1,4.1h6.277a5.327,5.327,0,0,1,3.709,1.5l.99.96.99-.96a5.326,5.326,0,0,1,3.709-1.5h6.277a4.1,4.1,0,0,0,4.1-4.1v-11.862A4.1,4.1,0,0,0,1489.112,4780.408Z" transform="translate(-1462.539 -4779.888)" fill="#fff"/>
            <path id="Trazado_67494" data-name="Trazado 67494" d="M1477.776,4803.1a.52.52,0,0,1-.362-.147l-.99-.961a4.785,4.785,0,0,0-3.347-1.356H1466.8a4.626,4.626,0,0,1-4.621-4.621v-11.862a4.627,4.627,0,0,1,4.621-4.621h21.952a4.627,4.627,0,0,1,4.621,4.621v11.862a4.626,4.626,0,0,1-4.621,4.621h-6.277a4.785,4.785,0,0,0-3.347,1.356l-.99.961A.519.519,0,0,1,1477.776,4803.1Zm-10.976-22.529a3.586,3.586,0,0,0-3.581,3.582v11.862a3.585,3.585,0,0,0,3.581,3.581h6.277a5.819,5.819,0,0,1,4.071,1.65l.629.61.628-.61a5.818,5.818,0,0,1,4.071-1.65h6.277a3.585,3.585,0,0,0,3.581-3.581v-11.862a3.586,3.586,0,0,0-3.581-3.582Z" transform="translate(-1462.179 -4779.528)" fill="#00223d"/>
          </g>
        </g>
      </g>
    </g>
    <g id="Grupo_26653" data-name="Grupo 26653" transform="translate(11.451 7.633)">
      <path id="Trazado_67495" data-name="Trazado 67495" d="M1478.977,4798.447c0,1.543,2.559,2.794,5.716,2.794s5.717-1.251,5.717-2.794v-5.123h-11.432Z" transform="translate(-1478.457 -4792.804)" fill="#26aab7"/>
      <path id="Trazado_67496" data-name="Trazado 67496" d="M1484.333,4801.4c-3.5,0-6.236-1.455-6.236-3.313v-5.123a.52.52,0,0,1,.52-.52h11.432a.52.52,0,0,1,.52.52v5.123C1490.57,4799.945,1487.83,4801.4,1484.333,4801.4Zm-5.2-7.916v4.6c0,1.076,2.134,2.273,5.2,2.273s5.2-1.2,5.2-2.273v-4.6Z" transform="translate(-1478.097 -4792.444)" fill="#00223d"/>
    </g>
    <g id="Grupo_26654" data-name="Grupo 26654" transform="translate(7.535 3.715)">
      <path id="Trazado_67497" data-name="Trazado 67497" d="M1481.977,4794.486l9.656-3.859-9.626-3.933-9.656,3.86Z" transform="translate(-1471.831 -4786.174)" fill="#26aab7"/>
      <path id="Trazado_67498" data-name="Trazado 67498" d="M1481.617,4794.646a.52.52,0,0,1-.2-.039l-9.626-3.933a.52.52,0,0,1,0-.964l9.656-3.859a.521.521,0,0,1,.39,0l9.626,3.934a.52.52,0,0,1,0,.964l-9.657,3.859A.515.515,0,0,1,1481.617,4794.646Zm-8.238-4.448,8.24,3.368,8.266-3.3-8.24-3.367Z" transform="translate(-1471.471 -4785.813)" fill="#00223d"/>
    </g>
  </g>
</svg>
