<svg xmlns="http://www.w3.org/2000/svg" xmlns:xlink="http://www.w3.org/1999/xlink" width="199.653" height="172.71" viewBox="0 0 199.653 172.71"><defs><linearGradient id="a" x1="0.5" x2="0.5" y2="1" gradientUnits="objectBoundingBox"><stop offset="0" stop-color="#fff"/><stop offset="1" stop-color="#d3d3d3"/></linearGradient><linearGradient id="e" x1="0.5" x2="0.5" y2="1" gradientUnits="objectBoundingBox"><stop offset="0" stop-color="#fff"/><stop offset="1" stop-color="#f1f7fa"/></linearGradient></defs><g transform="translate(-475.526 -769)"><g transform="translate(605.573 794.365)"><path d="M696.312,1337.4c0,2.393-3.132,4.333-7,4.333s-7-1.94-7-4.333,3.132-4.333,7-4.333S696.312,1335.007,696.312,1337.4Z" transform="translate(-657.771 -1245.331)" fill="#344966"/><path d="M591.436,895.5a31.545,31.545,0,0,0-20.661,55.382c.023.025,4.928,5.326,5.737,10.877l.147,3.4a4.768,4.768,0,0,0,1.235,3c.066.073.135.143.206.212h26.673c.071-.068.14-.139.206-.212a4.769,4.769,0,0,0,1.235-3l.147-3.4c.809-5.551,5.713-10.852,5.737-10.877A31.545,31.545,0,0,0,591.436,895.5Z" transform="translate(-559.891 -895.504)" fill="url(#a)"/><path d="M0,0H26.807a0,0,0,0,1,0,0V.744A18.939,18.939,0,0,1,7.868,19.684h0A7.868,7.868,0,0,1,0,11.816V0A0,0,0,0,1,0,0Z" transform="translate(18.141 72.87)" fill="url(#a)"/><g transform="translate(17.941 13.32)"><path d="M666.476,995.457l-6.268-27.339-5.5,15.9-1.613-.558,7.448-21.529,6.4,27.9,6.551-15.99,6.067,10.243-1.469.87-4.319-7.292Z" transform="translate(-653.094 -961.933)" fill="#f5ca56"/></g><g transform="translate(17.298 31.775)"><path d="M757.394,1099.179l-.15.016a1.442,1.442,0,0,1-1.583-1.286l-4.383-42.329a1.442,1.442,0,0,1,1.286-1.583l.151-.016a1.442,1.442,0,0,1,1.582,1.286l4.384,42.329A1.442,1.442,0,0,1,757.394,1099.179Z" transform="translate(-751.27 -1053.973)" fill="#f5ca56"/><path d="M647.475,1099.216h0a1.517,1.517,0,0,0,1.666-1.353l4.368-42.179a1.518,1.518,0,0,0-1.353-1.666h0a1.518,1.518,0,0,0-1.666,1.353l-4.368,42.179A1.517,1.517,0,0,0,647.475,1099.216Z" transform="translate(-625.015 -1054.003)" fill="#f5ca56"/></g><path d="M672.247,1261.893H646.13a1.484,1.484,0,0,1-1.484-1.484h0a1.484,1.484,0,0,1,1.484-1.484h26.116a1.484,1.484,0,0,1,1.484,1.484h0A1.484,1.484,0,0,1,672.247,1261.893Z" transform="translate(-627.635 -1186.056)" fill="#344966"/><path d="M672.247,1291.564H646.13a1.484,1.484,0,0,1-1.484-1.484h0a1.484,1.484,0,0,1,1.484-1.484h26.116a1.484,1.484,0,0,1,1.484,1.484h0A1.484,1.484,0,0,1,672.247,1291.564Z" transform="translate(-627.635 -1209.778)" fill="#344966"/><path d="M672.247,1324.768H646.13a1.484,1.484,0,0,1-1.484-1.484h0a1.484,1.484,0,0,1,1.484-1.484h26.116a1.484,1.484,0,0,1,1.484,1.484h0A1.484,1.484,0,0,1,672.247,1324.768Z" transform="translate(-627.635 -1236.323)" fill="#344966"/></g><g transform="translate(475.526 823.384)"><path d="M1284.924,1144.684a20.2,20.2,0,1,1,4.324-28.244A20.227,20.227,0,0,1,1284.924,1144.684Zm-2.415-4.406h0a15.238,15.238,0,0,0,2.333-21.422h0a15.238,15.238,0,0,0-21.423-2.333h0a15.237,15.237,0,0,0-2.333,21.423h0A15.237,15.237,0,0,0,1282.509,1140.278Z" transform="translate(-1238.953 -1094.573)" fill="url(#a)"/><path d="M1234.5,1103.324c-.483.093-.8-.248-1.6-1.087-1.433-1.5-2.865-3-4.349-4.45a1.34,1.34,0,0,0-1.106-.238c-1.953.554-3.873,1.226-5.832,1.76-.607.165-.892.346-1.008,1-.465,2.609-1,5.2-1.508,7.776-2.387.374-8.326-.2-10.251-1.018.035-2.524.031-5.1.128-7.68a1.276,1.276,0,0,0-.938-1.471,53.183,53.183,0,0,1-5.188-2.772,1.463,1.463,0,0,0-1.887-.059c-1.886,1.335-3.853,2.556-5.762,3.86-.513.351-.908.386-1.305-.1q-2.8-3.43-5.6-6.862c-.459-.562.029-.875.343-1.189,1.587-1.587,3.165-3.184,4.8-4.717a1.451,1.451,0,0,0,.407-1.85c-.782-2.122-1.426-4.294-2.179-6.612l-8.3-1.664a30.273,30.273,0,0,1,1.118-10.183l8.3.081c1.337-2.346,2.527-4.547,3.841-6.671a1.141,1.141,0,0,0-.027-1.5c-1.288-1.879-2.517-3.8-3.792-5.686-.276-.408-.426-.729-.03-1.155a28.922,28.922,0,0,1,6.716-5.588.91.91,0,0,1,1.307.207c1.644,1.674,3.319,3.316,4.956,5a1.057,1.057,0,0,0,1.3.331c2.125-.682,4.283-1.272,6.451-1.807a.9.9,0,0,0,.783-.851c.521-2.6,1.061-5.194,1.608-7.857a32.48,32.48,0,0,1,10.081,1c-.029,2.938-.058,5.855-.084,8.648l7.467,4.019c1.7-1.116,3.638-2.416,5.6-3.684,1.613-1.04,1.282-1.2,2.729.259a3.173,3.173,0,0,0,.492.341l3.323,4.136a6.317,6.317,0,0,0,.58,1.042,1.3,1.3,0,0,1-.168,2.12c-1.7,1.558-3.311,3.224-4.917,4.884a1.227,1.227,0,0,0-.249.995c.511,1.931,1.191,3.823,1.6,5.774a1.5,1.5,0,0,0,1.465,1.388c2.47.449,4.922,1,7.629,1.56-.339,3.415-.669,6.745-1,10.114-.642.006-1.012.015-1.381.012-2.277-.022-4.812.246-7.088.183a1.144,1.144,0,0,0-1.2.786c-1.012,1.913-1.891,3.49-2.917,5.4a1.355,1.355,0,0,0,.052,1.145c.987,1.586,2.062,3.117,3.08,4.684.825,1.268,1.126,1.741.853,2.359Zm-4.8-12.412a20.92,20.92,0,1,0-15.549,3.818A20.784,20.784,0,0,0,1229.695,1090.913Z" transform="translate(-1183.3 -1040.225)" fill="url(#a)"/></g><path d="M1320.411,1425.722l-2.086,3.765c-.188.124-.383.034-.867-.182-.865-.387-1.732-.774-2.61-1.131a.61.61,0,0,0-.509.091c-.731.572-1.428,1.189-2.164,1.753a.5.5,0,0,0-.254.6c.254,1.185.476,2.376.707,3.552a13.255,13.255,0,0,1-4.514,1.343c-.422-1.074-.87-2.165-1.274-3.272a.584.584,0,0,0-.651-.46,24.329,24.329,0,0,1-2.675-.275c-.359-.053-.59-.043-.809.3-.567.892-1.188,1.748-1.771,2.63-.156.237-.318.321-.57.183q-1.779-.967-3.556-1.935c-.292-.158-.139-.376-.061-.563.4-.946.789-1.895,1.217-2.827a.663.663,0,0,0-.147-.854c-.7-.763-1.347-1.57-2.066-2.421l-3.8.732a13.839,13.839,0,0,1-1.288-4.5l3.526-1.4c.16-1.224.283-2.362.471-3.488a.522.522,0,0,0-.271-.631c-.87-.572-1.723-1.172-2.589-1.75-.187-.125-.307-.235-.213-.484a13.229,13.229,0,0,1,1.876-3.527.416.416,0,0,1,.589-.138c.985.424,1.979.829,2.962,1.257a.482.482,0,0,0,.606-.084c.782-.656,1.592-1.279,2.417-1.88a.411.411,0,0,0,.184-.5c-.229-1.19-.45-2.382-.678-3.6a14.823,14.823,0,0,1,4.439-1.32l1.46,3.674,3.855.409c.524-.766,1.122-1.652,1.734-2.528.5-.719.335-.728,1.2-.362a1.455,1.455,0,0,0,.267.059l2.122,1.175a2.964,2.964,0,0,0,.426.341.6.6,0,0,1,.3.926c-.451.954-.843,1.937-1.236,2.918a.559.559,0,0,0,.067.464c.55.729,1.165,1.412,1.675,2.167a.686.686,0,0,0,.86.334c1.123-.237,2.256-.429,3.5-.659.447,1.5.884,2.97,1.325,4.453-.271.114-.425.182-.582.244-.968.384-1.932.778-2.906,1.145-.277.1-.344.253-.372.54-.1.985-.258,1.963-.362,2.947a.62.62,0,0,0,.22.476c.692.5,1.411.962,2.114,1.449C1320.21,1425.266,1320.419,1425.414,1320.411,1425.722Zm-8.328-2.275a6.966,6.966,0,0,0-2.719-9.469h0a6.966,6.966,0,0,0-9.469,2.719h0a6.966,6.966,0,0,0,2.719,9.469h0a6.966,6.966,0,0,0,9.469-2.719Z" transform="translate(-799.395 -508.236)" fill="#fcfcfc"/><rect width="123.23" height="78.973" rx="1" transform="translate(511.146 859.19)" fill="url(#e)"/><rect width="117.18" height="65.285" transform="translate(514.171 863.652)" fill="url(#a)"/><path d="M696.917,1589.808H828.044a2.293,2.293,0,0,0,2.293-2.293v-3.439H691.185A5.732,5.732,0,0,0,696.917,1589.808Z" transform="translate(-187.999 -651.644)" fill="url(#e)"/><path d="M691.424,1585.668a5.452,5.452,0,0,1-.239-1.593H830.336a5.44,5.44,0,0,1-.239,1.593Z" transform="translate(-187.999 -651.644)" fill="#00223d" opacity="0.6"/><path d="M1136.041,1306.34h-16.206l-32.535-59.127v-6.158h12.817Z" transform="translate(-573.129 -377.403)" fill="#fff" opacity="0.5" style="mix-blend-mode:soft-light;isolation:isolate"/><path d="M884.246,1306.34h-22.1l-35.923-65.286h22.1Z" transform="translate(-268.986 -377.403)" fill="#fff" opacity="0.5" style="mix-blend-mode:soft-light;isolation:isolate"/><path d="M745.974,1241.055h10.171L790,1302.591v3.75H781.9Z" transform="translate(-158.653 -377.403)" fill="#fff" opacity="0.5" style="mix-blend-mode:soft-light;isolation:isolate"/><path d="M1441.7,1356l-.969,2.223c-.1.079-.213.04-.5-.056-.506-.171-1.013-.342-1.525-.495a.344.344,0,0,0-.28.078c-.379.36-.737.743-1.12,1.1a.283.283,0,0,0-.111.348c.206.651.394,1.308.586,1.955a7.487,7.487,0,0,1-2.46.994c-.294-.58-.6-1.168-.89-1.767a.329.329,0,0,0-.39-.224,13.67,13.67,0,0,1-1.515-.012c-.2-.011-.333.007-.438.212-.27.53-.573,1.044-.853,1.569-.075.141-.161.2-.31.133l-2.1-.9c-.172-.074-.1-.2-.064-.312.172-.552.341-1.105.531-1.651a.374.374,0,0,0-.128-.471c-.432-.39-.839-.809-1.288-1.248l-2.093.613a7.806,7.806,0,0,1-.963-2.456l1.9-.974c.024-.7.033-1.34.078-1.981a.3.3,0,0,0-.186-.34c-.518-.274-1.028-.565-1.545-.843-.112-.06-.184-.115-.145-.26a7.462,7.462,0,0,1,.864-2.078.235.235,0,0,1,.323-.109c.575.185,1.154.359,1.728.547a.272.272,0,0,0,.336-.08c.4-.41.825-.8,1.256-1.183a.232.232,0,0,0,.077-.288c-.192-.655-.379-1.312-.573-1.985a8.363,8.363,0,0,1,2.42-.977l1.015,1.983,2.184.024c.253-.458.541-.986.837-1.51.244-.43.149-.427.653-.267a.845.845,0,0,0,.153.019l1.252.546a1.61,1.61,0,0,0,.257.168c.242.1.312.235.215.5-.2.559-.37,1.131-.537,1.7a.315.315,0,0,0,.062.257c.348.38.729.73,1.056,1.126a.386.386,0,0,0,.5.141c.617-.193,1.242-.361,1.927-.556l.981,2.427c-.146.078-.229.125-.314.168-.522.267-1.042.539-1.569.8a.3.3,0,0,0-.18.324c0,.557-.04,1.114-.046,1.672a.347.347,0,0,0,.148.255c.415.244.843.465,1.263.7C1441.564,1355.757,1441.689,1355.828,1441.7,1356Zm-4.792-.832a3.925,3.925,0,0,0-2.03-5.166h0a3.925,3.925,0,0,0-5.167,2.03h0a3.925,3.925,0,0,0,2.03,5.166h0a3.925,3.925,0,0,0,5.166-2.03Z" transform="translate(-946.687 -460.576)" fill="#fec55e"/><path d="M959.854,1124.885s2.517,71.771,12.193,87H955.462v-88.974Z" transform="translate(-382.7 -282.951)" fill="#00223d"/><path d="M758.435,1466.055a12.98,12.98,0,0,1,5.482,1.2v18.969H749.655a11.461,11.461,0,0,1-3.681-8.372C745.974,1471.337,751.553,1466.055,758.435,1466.055Z" transform="translate(-132.566 -557.288)" fill="#00223d"/><path d="M810.389,1487.658c6.024,0,10.907,4.624,10.907,10.327a9.884,9.884,0,0,1-1.682,5.512h-18.45a9.882,9.882,0,0,1-1.682-5.512C799.482,1492.281,804.365,1487.658,810.389,1487.658Z" transform="translate(-200.674 -574.559)" fill="#00223d"/><path d="M878.58,1426.878c9.193,0,16.645,7.056,16.645,15.76a15.432,15.432,0,0,1-6.194,12.266h-20.9a15.432,15.432,0,0,1-6.194-12.266C861.935,1433.934,869.387,1426.878,878.58,1426.878Z" transform="translate(-287.125 -525.966)" fill="#00223d"/><path d="M1050.595,1124.885s-2.74,71.771-12.417,87h16.809v-88.974Z" transform="translate(-482.225 -282.951)" fill="#00223d"/><path d="M1246.375,1466.055a12.984,12.984,0,0,0-5.483,1.2v18.969h14.263a11.46,11.46,0,0,0,3.681-8.372C1258.836,1471.337,1253.257,1466.055,1246.375,1466.055Z" transform="translate(-726.72 -557.288)" fill="#00223d"/><path d="M1178.985,1487.658c-6.024,0-10.907,4.624-10.907,10.327a9.884,9.884,0,0,0,1.682,5.512h18.45a9.882,9.882,0,0,0,1.682-5.512C1189.893,1492.281,1185.009,1487.658,1178.985,1487.658Z" transform="translate(-643.178 -574.559)" fill="#00223d"/><path d="M1065.039,1426.878c-9.193,0-16.645,7.056-16.645,15.76a15.432,15.432,0,0,0,6.194,12.266h20.9a15.432,15.432,0,0,0,6.194-12.266C1081.684,1433.934,1074.232,1426.878,1065.039,1426.878Z" transform="translate(-510.971 -525.966)" fill="#00223d"/><g transform="translate(546.266 769)"><path d="M986.988,1154.836l8.1-3.307,8.1,3.307s9.878,13.142-8.1,30.325C977.11,1167.978,986.988,1154.836,986.988,1154.836Z" transform="translate(-968.592 -1074.828)" fill="#f4b34a"/><path d="M1003.726,1166.624l5.451-2.225,5.451,2.225s6.648,8.845-5.451,20.409C997.078,1175.47,1003.726,1166.624,1003.726,1166.624Z" transform="translate(-982.682 -1085.117)" fill="#fec55e"/><path d="M1023.422,1153.242l2.334-1.713,2.335,1.713s2.847,6.807-2.335,15.707C1020.575,1160.049,1023.422,1153.242,1023.422,1153.242Z" transform="translate(-999.262 -1074.828)" fill="#00223d"/><path d="M1107.552,1068.672s-10.705-1.514-14.719,10.13h0a23.17,23.17,0,0,1,.063-11.986,45.82,45.82,0,0,1,8.31-16.752C1109.559,1039.906,1107.552,1068.672,1107.552,1068.672Z" transform="translate(-1092.076 -991.971)" fill="url(#a)"/><path d="M906.251,1068.672s10.705-1.514,14.719,10.13h0a23.167,23.167,0,0,0-.063-11.986,45.828,45.828,0,0,0-8.31-16.752C904.243,1039.906,906.251,1068.672,906.251,1068.672Z" transform="translate(-868.737 -991.971)" fill="url(#a)"/><path d="M951.643,814.473c.865-24.82,10.384-36.506,17.3-45.473,6.919,8.967,16.425,20.653,17.29,45.473s-6.724,36.669-6.724,36.669H958.367S950.778,839.293,951.643,814.473Z" transform="translate(-942.444 -769)" fill="#7d6eb2"/><path d="M1024.537,1087.462v-28.738S1030.691,1075.57,1024.537,1087.462Z" transform="translate(-998.042 -1000.631)" fill="#8ec8c8"/><path d="M1038.455,814.722c.863-24.763,10.34-36.452,17.255-45.411v82.08H1045.18S1037.591,839.542,1038.455,814.722Z" transform="translate(-1029.257 -769.249)" fill="#584795"/><path d="M967.472,794.626c3.562-12.055,9.525-19.48,14.267-25.626,4.7,6.1,10.6,13.453,14.171,25.337A42.23,42.23,0,0,1,967.472,794.626Z" transform="translate(-955.238 -769)" fill="#8ec8c8"/><path d="M1052.606,769.311v27.877a43.52,43.52,0,0,1-14.219-2.313C1041.936,782.86,1047.872,775.445,1052.606,769.311Z" transform="translate(-1026.153 -769.249)" fill="#26aab7"/><path d="M1040.913,1058.723v28.738C1034.759,1075.569,1040.913,1058.723,1040.913,1058.723Z" transform="translate(-1014.418 -1000.63)" fill="#26aab7"/><path d="M995.643,953.536a10,10,0,0,0,3.965.813,9.87,9.87,0,1,0-3.965-.813Z" transform="translate(-973.303 -901.562)" fill="url(#a)"/><path d="M996.686,950.811a8.362,8.362,0,1,0,8.361-8.242A8.3,8.3,0,0,0,996.686,950.811Z" transform="translate(-978.594 -907.766)" fill="#584795"/></g><path d="M807.151,1498.169H745.974a12.278,12.278,0,0,1,9.607-4.619c.086,0,.171,0,.257,0,0-.085,0-.171,0-.257a12.3,12.3,0,0,1,23.806-4.369,10.949,10.949,0,0,1,13.848,1.739,8.158,8.158,0,0,1,13.662-1.609Z" transform="translate(-175.8 -569.231)" fill="#fcfcfc" opacity="0.6"/><path d="M1072.768,1491.568v-10.289a8.155,8.155,0,0,1,12.57,2.991,10.951,10.951,0,0,1,14.671-3.266,10.913,10.913,0,0,1,21.24,5.017,3.871,3.871,0,0,1,2.76,5.547Z" transform="translate(-558.596 -562.63)" fill="#fcfcfc" opacity="0.6"/><g transform="translate(604.456 831.314)"><path d="M810.242,1126.226c.142.006.532.137,1.1,1.212a40.407,40.407,0,0,1,1.79,5.526l-3.173,1.182-.407-.866-.671-6.672S810.2,1126.224,810.242,1126.226Z" transform="translate(-798.852 -1116.912)" fill="#26aab7"/><path d="M827.925,1123.241a19.38,19.38,0,0,1,4.194.6s.765,6.578-.689,11.578c-.326,1.119.269,4.638.269,4.638l-9.4-.124s1.114-8.509.694-9.883a38.319,38.319,0,0,1-.43-6.164l2.112-.364A21.267,21.267,0,0,1,827.925,1123.241Z" transform="translate(-820.728 -1114.525)" fill="#8ec8c8"/><path d="M848.59,1268a12.66,12.66,0,0,0,.59,3.065c.382.665-.02,1.795-.04,1.95s-.805.376-2.053.244-1.228-.421-1.127-.886.765-1.064.805-1.507a11.592,11.592,0,0,0-.383-2.038Z" transform="translate(-842.489 -1230.257)" fill="#ffc3b5"/><path d="M797.326,1196.633s6.49-.36,7.939.517-1.03,5.185-1.03,5.185-4.515-.208-13.36.3c-2.095.121-2.275-5.461-1.884-5.923S797.326,1196.633,797.326,1196.633Z" transform="translate(-787.416 -1173.084)" fill="#03192b"/><path d="M846.334,1286.239c-1.285-.137-1.126-.768-1.023-1.247a4.245,4.245,0,0,1,.653-.989,2.144,2.144,0,0,0,.86.418,3.212,3.212,0,0,0,1.88-.38,6.226,6.226,0,0,1,.172,1.658A3.738,3.738,0,0,1,846.334,1286.239Z" transform="translate(-841.891 -1243.053)" fill="#293241"/><path d="M851.638,1201.532c.259,1.962,1.543,11.729,1.543,11.729l-2.979.37s-3.663-12.749-3.475-14.7,1.559-2.114,1.559-2.114S850.951,1196.339,851.638,1201.532Z" transform="translate(-846.486 -1173.341)" fill="#00223d"/><path d="M818.471,1130.055c.879-.33,1.309,7.59,1.428,10.851a38.379,38.379,0,0,0,4.945-.05c.318-.024,1.051-.292,1.366-.333a3.168,3.168,0,0,1,.777-.037,14.642,14.642,0,0,1,1.82.819c.172.181.637.635.559.833s-.9-.549-.9-.549l-.4-.223c.5.485,1.444,1.124,1.308,1.357s-.988-.421-1.6-.864c.522.472,1.171,1.316,1.022,1.448-.134.118-.872-.859-1.662-1.141-.292-.1-.584.185-.814.22a1.658,1.658,0,0,1-.6.033l-.854-.242c-.291.026-.3.2-.592.261-.341.073-.9.149-1.335.255a23.076,23.076,0,0,1-4.1.9C816.528,1143.585,816.393,1130.834,818.471,1130.055Z" transform="translate(-816.739 -1119.966)" fill="#ffc3b5"/><path d="M862.073,1134.539c-.165-3.339-.141-7.454,1.731-8.156.738-.277,2.041,1.389,1.806,8.224A14.046,14.046,0,0,1,862.073,1134.539Z" transform="translate(-862.009 -1117.015)" fill="#26aab7"/><path d="M796,1279.305a1.623,1.623,0,0,0-.091,1.4c.338.637,2.114,1.574,2.3,1.919a.837.837,0,0,1,.113.59l-5.274-1.293.4-1.589.493-1.1Z" transform="translate(-780.878 -1239.237)" fill="#ffc3b5"/><path d="M792.124,1285.423s-1.482.257-2.07-.212-.549-.555-.765-.474c-.139.052-.352.685-.485,1.131a.433.433,0,0,0,.312.545l5.491,1.357c.417.08.694-.181.413-.515a4.953,4.953,0,0,0-.567-.527A19.069,19.069,0,0,0,792.124,1285.423Z" transform="translate(-776.821 -1243.618)" fill="#293241"/><path d="M785.46,1198.7a2.249,2.249,0,0,1,3.052-1.341c1.6.661,2.031,2.283,1.526,3.945s-3.831,11.43-3.947,12.773l-2.655.018s.482-7.735.6-9.6A18.109,18.109,0,0,1,785.46,1198.7Z" transform="translate(-770.854 -1173.616)" fill="#00223d"/><path d="M800.164,1160.022h-8.876a.578.578,0,0,0-.536.36l-2.733,6.688h-4.893a.248.248,0,0,0-.248.248h0a.248.248,0,0,0,.248.249h13.927a.973.973,0,0,0,.887-.576l2.752-6.151A.581.581,0,0,0,800.164,1160.022Z" transform="translate(-781.248 -1143.932)" fill="#fec55e"/><path d="M810.5,1176.864a.489.489,0,1,1-.366-.639A.522.522,0,0,1,810.5,1176.864Z" transform="translate(-796.365 -1156.879)" fill="#fff"/><g transform="translate(4.365)"><path d="M831.553,1080.456a6.8,6.8,0,0,1-.785-.314,3.947,3.947,0,0,0-.9-.338,2.16,2.16,0,0,0-1.816.485c-.585.635-1.626.115-1.416,3.441.237,3.765,2.331,3.352,2.381,3.288s1.867-2.409,1.867-2.409.635,1.39.635,1.338S834.767,1081.538,831.553,1080.456Z" transform="translate(-826.613 -1079.776)"/><path d="M842.126,1108.833l.181,1.346s.4,1.938-.116,2.312-2.215-2.368-2.215-2.368l.179-3.409Z" transform="translate(-838.774 -1101.313)" fill="#ffc3b5"/><path d="M840.86,1107.819a3.86,3.86,0,0,0,2.182,2.155l-.153-1.141-1.971-2.119Z" transform="translate(-839.538 -1101.313)" fill="#fc8899"/><path d="M834.127,1088.121a1.794,1.794,0,0,1,2.066,1.814,13.66,13.66,0,0,1-.151,1.726c-.24,1.553-1.3,2.921-2,2.8a3.367,3.367,0,0,1-2.153-3.672A2.971,2.971,0,0,1,834.127,1088.121Z" transform="translate(-830.882 -1086.429)" fill="#ffc3b5"/><path d="M851.859,1099.985a.522.522,0,1,1-.4-.706A.578.578,0,0,1,851.859,1099.985Z" transform="translate(-850.367 -1095.363)" fill="#ffc3b5"/><path d="M830.967,1088.29s.847.211,1.161-.334a2.558,2.558,0,0,1,2.868-1.233c1.429.487-1.258-1.186-1.372-1.186l-1.486-.009s-1.057.87-1.1.965-.343,1.138-.343,1.138Z" transform="translate(-829.872 -1084.375)"/></g><path d="M837.466,1110.641l1.541.294a.686.686,0,0,1-.829.471C837.348,1111.272,837.466,1110.641,837.466,1110.641Z" transform="translate(-830.456 -1104.452)" fill="#fff"/></g><g transform="translate(626.245 932.336)"><path d="M591.706,1592.063v5.6c0,.9-10.091,1.638-22.539,1.638s-22.539-.733-22.539-1.638v-5.6Z" transform="translate(-546.629 -1590.366)" fill="#f4b34a"/><g transform="translate(0 1.697)"><path d="M546.629,1599.232v-7.17H562.94v5.6C562.94,1598.406,556.048,1599.036,546.629,1599.232Z" transform="translate(-517.863 -1592.063)" fill="#fec55e"/><path d="M645.212,1599.247c-1.751.031-3.583.049-5.469.049-2.81,0-5.5-.037-7.981-.106v-7.127h13.45Z" transform="translate(-617.205 -1592.063)" fill="#fec55e"/><path d="M717,1599.164c-8.03-.25-13.654-.831-13.654-1.506v-5.6H717Z" transform="translate(-703.344 -1592.063)" fill="#eab054"/></g><path d="M546.629,1585.236c0,.9,10.091,1.638,22.539,1.638s22.539-.733,22.539-1.638-10.091-1.638-22.539-1.638S546.629,1584.331,546.629,1585.236Z" transform="translate(-546.629 -1583.598)" fill="#f4b34a"/><path d="M566.471,1587.238c0,.628,8.31,1.136,18.56,1.136s18.56-.508,18.56-1.136-8.31-1.135-18.56-1.135S566.471,1586.611,566.471,1587.238Z" transform="translate(-562.492 -1585.601)" fill="#f7cc7f"/></g><g transform="translate(630.101 926.415)"><path d="M572.475,1562.534v5.595c0,.9-10.091,1.638-22.539,1.638s-22.538-.733-22.538-1.638v-5.595Z" transform="translate(-527.398 -1560.837)" fill="#f4b34a"/><g transform="translate(0 1.697)"><path d="M527.4,1569.7v-7.17h16.311v5.595C543.709,1568.876,536.817,1569.507,527.4,1569.7Z" transform="translate(-498.632 -1562.534)" fill="#fec55e"/><path d="M625.98,1569.719c-1.751.032-3.582.048-5.469.048-2.81,0-5.5-.037-7.981-.105v-7.127h13.45Z" transform="translate(-597.973 -1562.534)" fill="#fec55e"/><path d="M697.766,1569.635c-8.03-.25-13.654-.83-13.654-1.506v-5.595h13.654Z" transform="translate(-684.112 -1562.534)" fill="#eab054"/></g><ellipse cx="22.539" cy="1.638" rx="22.539" ry="1.638" transform="translate(0 0)" fill="#f4b34a"/><ellipse cx="18.56" cy="1.136" rx="18.56" ry="1.136" transform="translate(3.979 0.502)" fill="#f7cc7f"/></g><g transform="translate(627.532 920.337)"><path d="M585.288,1532.221v5.595c0,.9-10.091,1.638-22.538,1.638s-22.539-.733-22.539-1.638v-5.595Z" transform="translate(-540.211 -1530.524)" fill="#f4b34a"/><g transform="translate(0 1.697)"><path d="M540.211,1539.39v-7.17h16.311v5.595C556.522,1538.563,549.63,1539.194,540.211,1539.39Z" transform="translate(-511.444 -1532.221)" fill="#fec55e"/><path d="M638.794,1539.405c-1.751.032-3.583.048-5.469.048-2.81,0-5.5-.037-7.981-.105v-7.127h13.45Z" transform="translate(-610.787 -1532.221)" fill="#fec55e"/><path d="M710.58,1539.322c-8.03-.251-13.654-.831-13.654-1.506v-5.595H710.58Z" transform="translate(-696.926 -1532.221)" fill="#fec55e"/></g><ellipse cx="22.539" cy="1.638" rx="22.539" ry="1.638" transform="translate(0 0)" fill="#f4b34a"/><ellipse cx="18.56" cy="1.136" rx="18.56" ry="1.136" transform="translate(3.979 0.502)" fill="#f7cc7f"/></g><g transform="translate(630.101 914.342)"><path d="M572.475,1502.322v5.6c0,.9-10.091,1.638-22.539,1.638s-22.538-.733-22.538-1.638v-5.6Z" transform="translate(-527.398 -1500.625)" fill="#f4b34a"/><g transform="translate(0 1.697)"><path d="M527.4,1509.491v-7.17h16.311v5.6C543.709,1508.665,536.817,1509.3,527.4,1509.491Z" transform="translate(-498.632 -1502.322)" fill="#fec55e"/><path d="M625.98,1509.506c-1.751.031-3.582.049-5.469.049-2.81,0-5.5-.038-7.981-.106v-7.127h13.45Z" transform="translate(-597.973 -1502.322)" fill="#fec55e"/><path d="M697.766,1509.423c-8.03-.251-13.654-.831-13.654-1.506v-5.6h13.654Z" transform="translate(-684.112 -1502.322)" fill="#fec55e"/></g><path d="M527.4,1495.5c0,.9,10.091,1.638,22.538,1.638s22.539-.733,22.539-1.638-10.091-1.638-22.539-1.638S527.4,1494.592,527.4,1495.5Z" transform="translate(-527.398 -1493.858)" fill="#f4b34a"/><path d="M547.24,1497.5c0,.628,8.31,1.136,18.56,1.136s18.56-.508,18.56-1.136-8.31-1.135-18.56-1.135S547.24,1496.871,547.24,1497.5Z" transform="translate(-543.262 -1495.861)" fill="#f7cc7f"/></g><g transform="translate(600.763 926.64)"><rect width="39.484" height="14.371" transform="translate(0)" fill="#fcfcfc"/><g transform="translate(0)"><rect width="39.484" height="1.849" transform="translate(0 2.094)" fill="#eff4ef"/><rect width="39.484" height="1.849" transform="translate(0 5.705)" fill="#eff4ef"/><rect width="39.484" height="1.849" transform="translate(0 9.317)" fill="#eff4ef"/><rect width="39.484" height="1.849" transform="translate(0 12.522)" fill="#eff4ef"/><rect width="8.212" height="14.371" transform="translate(14.698)" fill="#f5ca56"/></g><rect width="5.963" height="14.371" transform="translate(39.005)" fill="#26aab7"/></g><g transform="translate(627.754 888.114)"><path d="M597.678,1366.416a5.126,5.126,0,0,1,2.353-3.08,2.962,2.962,0,0,1,3.143.4c2.7,2.028.347,4.263,3.417,8.109.954,1.2,2.109,2.16,2.68,3.561.8,1.96-.153,2.9-1.68,3.84-7.308,4.492-11.139-4.731-11-6.841A33.967,33.967,0,0,1,597.678,1366.416Z" transform="translate(-576.009 -1363.053)"/><path d="M655.742,1436.552c.308-.049,1.057-.585,1.321-.634.2-.038.647-.1.836-.132.231-.863,1.4-5.569,1.536-6.948.142-1.494,1.2-7.958,1.2-7.958l2.736.5s-1.136,4.973-1.45,7.384c-.27,2.071-2.542,6.728-2.831,7.219,0,.012,0,.023,0,.036-.044.731-.4.487-.4.487l-.572.146s-2.025.2-2.157.244S655.434,1436.6,655.742,1436.552Z" transform="translate(-641.657 -1409.285)" fill="#ffc3b5"/><path d="M650.55,1402.034c-1.934.656-3.034,5.914-3.034,5.914s3.034.847,3.812.4c0,0,.883-3.912,1.2-3.775Z" transform="translate(-629.187 -1394.218)" fill="#8ec8c8"/><path d="M737.18,1544.352a20.708,20.708,0,0,0-.927,3.246c-.013.087.11.512.1.6a5.485,5.485,0,0,1-4.359,2.079,24.7,24.7,0,0,0,1.894-1.649,28.709,28.709,0,0,0,.756-4.267C735.553,1544.784,736.171,1544.45,737.18,1544.352Z" transform="translate(-730.779 -1508)" fill="#ffc3b5"/><path d="M654.842,1457.265l2.614,7.362s-4.2.791-5.771,1.079-10.344.672-10.567.827c-.165.116-1.978,5.978-2.787,9.211a7.6,7.6,0,0,1-3.327-.329c.452-4.625,2.084-11.952,2.607-12.75C638.462,1461.364,654.842,1457.265,654.842,1457.265Z" transform="translate(-631.607 -1438.374)" fill="#d1d1d1"/><path d="M702.952,1560.446a20.662,20.662,0,0,0-.3,3.362c0,.089.2.482.21.574a5.485,5.485,0,0,1-3.892,2.858,24.45,24.45,0,0,0,1.551-1.974,28.6,28.6,0,0,0-.057-4.333C701.435,1561.176,701.979,1560.732,702.952,1560.446Z" transform="translate(-689.929 -1520.866)" fill="#ffc3b5"/><path d="M640.679,1459.17l1.014,1.732a4.962,4.962,0,0,1-2.488,7.133l-.045.017c-1.489.577-10.036,2.6-10.225,2.792-.14.145-.822,6.243-1.012,9.569a7.6,7.6,0,0,1-3.33.3c-.423-4.628-.192-12.131.171-13.013C625.358,1466.266,640.679,1459.17,640.679,1459.17Z" transform="translate(-614.393 -1439.897)" fill="#fcfcfc"/><path d="M698.456,1577.349c.227-.251,1.063,1.132,1.272,1.427a.662.662,0,0,1,.14.634,30.77,30.77,0,0,1-5.554,2.913.539.539,0,0,1-.322-.086c-.42-.372,1.513-3.116,2.381-3.477A4.164,4.164,0,0,0,698.456,1577.349Z" transform="translate(-685.866 -1534.356)" fill="#8ec8c8"/><path d="M737.3,1560.714c.271-.2.832,1.311.982,1.64a.66.66,0,0,1,.019.649,30.715,30.715,0,0,1-6,1.821.54.54,0,0,1-.3-.145c-.343-.444,2.07-2.777,2.99-2.969A4.161,4.161,0,0,0,737.3,1560.714Z" transform="translate(-731.969 -1521.066)" fill="#8ec8c8"/><path d="M627.6,1401.515h0a.723.723,0,0,1-.2-.04,3.369,3.369,0,0,0-1.756.1c-.743.313-1.9,3.243-1.826,6.251.027.459.055.871.079,1.158.188,2.272.839,6.534.874,6.557.887.571,6.236-1.642,6.6-2.128s.584-6.39.763-6.685l.351-5.135A40.354,40.354,0,0,0,627.6,1401.515Z" transform="translate(-604.399 -1393.714)" fill="#8ec8c8"/><path d="M640.176,1388.822a13.679,13.679,0,0,0-.276,2.484c.069.7-.263,2.967-1.75,2.975s-.282-2.879-.142-3.568a26.343,26.343,0,0,0,.173-2.82Z" transform="translate(-614.811 -1382.912)" fill="#ffc3b5"/><path d="M637.415,1388.962c.023-.583.031-1.07.031-1.07l1.995.929s-.07.365-.141.828A1.741,1.741,0,0,1,637.415,1388.962Z" transform="translate(-614.075 -1382.912)" fill="#fc8899"/><path d="M631.617,1367.068a2.47,2.47,0,0,1,1.05,1.35c.281.924-.039,3.309-2.024,3.885s-2.845-1.313-2.436-2.789S629.5,1366.168,631.617,1367.068Z" transform="translate(-605.523 -1366.075)" fill="#ffc3b5"/><path d="M647.835,1374.319c.039.4.258.7.489.677s.387-.363.348-.76-.258-.7-.489-.677S647.8,1373.922,647.835,1374.319Z" transform="translate(-625.401 -1371.452)" fill="#ffc3b5"/><path d="M624.474,1367.406s.36,2.66,1.22,3.14.5,1.66.5,1.66.78-2.74.1-3.62A3.785,3.785,0,0,0,624.474,1367.406Z" transform="translate(-598.613 -1366.533)"/><path d="M626.469,1383.36c-.233.346-.232.755,0,.913s.613,0,.846-.342.232-.756,0-.913S626.7,1383.014,626.469,1383.36Z" transform="translate(-599.897 -1378.965)" fill="#ffc3b5"/><path d="M638.855,1385.71l1.4.352a.636.636,0,0,1-.788.4C638.71,1386.29,638.855,1385.71,638.855,1385.71Z" transform="translate(-615.176 -1381.167)" fill="#fff"/><path d="M590.132,1435.229c-.025-.064-.081-.065-.138-.067a14.031,14.031,0,0,1-1.656-.124,1.174,1.174,0,0,1-.266-.068.693.693,0,0,0-.458-.017.919.919,0,0,1-.255.027c-.278,0-1.073-.271-1.48-.343a.238.238,0,0,1-.19-.179c-.4-1.587-1.263-5.149-1.374-6.32-.143-1.5-1.177-8.25-1.177-8.25l-2.767.772s1.139,4.985,1.454,7.4c.243,1.866,2.108,5.827,2.693,6.966a1.167,1.167,0,0,0,1.075.889.346.346,0,0,1,.219.118,1.534,1.534,0,0,0,.349.3.819.819,0,0,1,.238.237c.118.172.223.351.327.531.069.119.141.157.243.129a.217.217,0,0,0,.16-.245,1.1,1.1,0,0,0-.165-.545.3.3,0,0,1,.022-.4,1.252,1.252,0,0,1,.208-.231.357.357,0,0,1,.283-.1,4.614,4.614,0,0,0,.6.112l.167.034.092.02c.014,0,.308.036.409.036.081,0,.212.006.324.011a1.772,1.772,0,0,0,.322-.048.394.394,0,0,0,.258-.1c.03-.027.059-.057.044-.1a.1.1,0,0,0-.089-.068,3.861,3.861,0,0,1-.407-.068c.1,0,.422-.007.524-.01a.48.48,0,0,0,.351-.155C590.114,1435.333,590.157,1435.293,590.132,1435.229Z" transform="translate(-553.336 -1408.493)" fill="#ffc3b5"/><path d="M613.736,1402.261c1.366-.248,2.492,5.863,2.492,5.863s-3.035.847-3.812.4c0,0-.883-3.912-1.2-3.775Z" transform="translate(-585.611 -1394.394)" fill="#8ec8c8"/></g><g transform="translate(512.617 789.484)"><g transform="translate(0 0)"><path d="M1308.919,1190.654s-.612.6-.626.818a9.987,9.987,0,0,0,.2,2.794c.25.219,1.089.607.748.623-.244.011-1.593.061-2.5.011-.265-.015-.555-2.053-.66-2.365-.152-.453-.523-1.474-.385-1.79a2.648,2.648,0,0,1,.847-.766,4.179,4.179,0,0,0,.938-1Z" transform="translate(-1302.805 -1125.251)" fill="#f48c7f"/><path d="M1264.878,1204.16s-.548,1.552-.549,1.556c-.041.246-.2.853-.2,1.076,0,.84,3.776-.713,2.93-1.085a.9.9,0,0,1-.342-.588,1.972,1.972,0,0,1,.318-.993Z" transform="translate(-1252.343 -1137.363)" fill="#f7a491"/><g transform="translate(4.022 37.903)"><path d="M1247.266,1060.193s.275,2.782.275,2.823c0,4.5.89,13.289.72,14.135-.413,2.063-4.854,12.589-4.854,12.589l-2.4-.287,3.128-12.6-1.152-5.073-1.628-10.027Z" transform="translate(-1232.83 -1060.193)" fill="#0f8a96"/><path d="M1255.919,1064.236l-.455,2.637-1.232,10.85-4.693,10.6s.66,1.543,1.634,1.76l7.469-10.888,4.64-13.932-.163-3.1Z" transform="translate(-1249.539 -1061.776)" fill="#26aab7"/></g><path d="M1305.784,1193.9s1.41,3.983,1.963,4.175c.147.051.85.18.983.493a.96.96,0,0,1,.018.325h-2.94s-.389-1.672-.536-2.443a11.511,11.511,0,0,1-.692-2.055C1304.665,1194.224,1305.784,1193.9,1305.784,1193.9Z" transform="translate(-1302.024 -1129.188)"/><path d="M1249.538,1213.341l.433-1.37a3.741,3.741,0,0,0,1.362.321,13.679,13.679,0,0,0,1.341-.321c1.812.6,3.3.889,3.027,1.37h-6.161Z" transform="translate(-1237.967 -1143.634)"/><path d="M1141.973,892.2s3.19,2.065,11.052,1.784c0,0-8.427,3.182-11.721,3.675l-1.356-5.356Z" transform="translate(-1113.286 -887.977)" fill="#b54273"/><path d="M1190.447,900.143a8.122,8.122,0,0,1-2.173,2.762l-.707-2.791.046-1.35Z" transform="translate(-1160.257 -893.229)" fill="#e36099"/><path d="M1187.567,875.732s9.212-.623,10.645-.1l1.48,5.848a29.059,29.059,0,0,0-10.351,1.253Z" transform="translate(-1169.502 -874.569)" fill="#c1507f"/><path d="M1210.322,1001.043l1.259.966c.243-.187.773-.974,1.117-1.22l-1.151-1.255h0a.333.333,0,0,1-.134-.3.994.994,0,0,1,.032-.193c.036-.1.068-.218.1-.317s-.2-.3-.326-.334-.166.443-.22.585a15.524,15.524,0,0,0-.4,1.8Z" transform="translate(-1187.07 -972.878)" fill="#fc8899"/><path d="M1228.687,1011.923c-.354-.377-.853-.589-1.223-.98l-5.587,3.847s-4.319-5.108-6.665-3.3a38.954,38.954,0,0,0,2.9,4.174c1.434,1.776,3.625,2.624,4.052,2.427C1222.647,1017.872,1228.562,1012.076,1228.687,1011.923Z" transform="translate(-1204.04 -982.915)" fill="#d1d1d1"/><path d="M1323.817,938.5c.185.492.5,1.267.5,1.267.009.222.055,1.147.113,2.281l1.572-.861a17.952,17.952,0,0,1-.181-1.95c.051-.1.17,0,.588-.783a1.428,1.428,0,0,0,.1-.6s-.026-.464-.134-.494a.217.217,0,0,0-.247.137c-.028.084,0,.268-.023.352a.578.578,0,0,1-.356.216,6.187,6.187,0,0,1-.152-1.362s.01-.391.023-.521c.011-.11.071-.436.071-.436s.059-.47-.087-.488c-.086-.01-.254.386-.352.8a7.864,7.864,0,0,1-.186.9c-.107,0-.141-.752-.141-.752a2.4,2.4,0,0,0,.042-.513c.075-.209.1-.582-.081-.591a3.033,3.033,0,0,0-.207.49s-.051.338-.086.5a8.982,8.982,0,0,0-.049.9c-.022.161-.066.1-.082.11a3.938,3.938,0,0,1-.026-.51,3.01,3.01,0,0,1-.022-.495,3.59,3.59,0,0,0,.008-.526c-.018-.388-.255-.319-.3.042-.016.138-.031.288-.047.44-.06.592.01,1.147-.051,1.159a4.219,4.219,0,0,1-.149-1s-.192-.545-.252-.01a4.564,4.564,0,0,0,.009,1.131A4.4,4.4,0,0,0,1323.817,938.5Z" transform="translate(-1323.604 -922.279)" fill="#ffc3b5"/><path d="M1273.309,974.5a.911.911,0,0,0-1.494.375.677.677,0,0,0-.859.336s-.975-.169-1.034,1.266c0,0-.5-.033-.49.551a1.435,1.435,0,0,0,.345.932.7.7,0,0,0-.06.751.66.66,0,0,0,.541.461s.192.746.549.935a1.079,1.079,0,0,0,.791.025.511.511,0,0,0,.548.314c.38-.083.811-.506,1.26-.393a4.625,4.625,0,0,0,1.543-.2,1.569,1.569,0,0,0,.655-1.943.943.943,0,0,0-.076-1.317,1.641,1.641,0,0,0-.625-1.723A2.185,2.185,0,0,0,1273.309,974.5Z" transform="translate(-1262.069 -953.571)"/><path d="M1248.774,1011.8l-1.929-.993s-1.714.25-1.927.276-.613,8.011-.647,11,.331,3.476.331,3.476a19,19,0,0,0,4.783-.139,15.528,15.528,0,0,0,4.286-1.852s-2.472-5.441-3.041-7.164S1248.774,1011.8,1248.774,1011.8Z" transform="translate(-1234.85 -982.807)" fill="#fcfcfc"/><path d="M1282.455,969.249l-6.337-5.065s-1.443-5.34-1.524-5.538-1.493-.133-2.064-.12a38.408,38.408,0,0,0,1.183,6.718c.458,1.111,5.356,5.834,5.356,5.834a17.545,17.545,0,0,1,1.176,4.849c.113,3.494-.136,8.349.03,8.481.987.466,4.513.1,4.692-.283C1286.946,979.866,1282.455,969.249,1282.455,969.249Z" transform="translate(-1272.311 -940.992)" fill="#d1d1d1"/><path d="M1278.161,999.344l.289,1.11s.537,1.586.137,1.952-2.106-1.761-2.106-1.761l-.2-2.88Z" transform="translate(-1266.335 -972.381)" fill="#ffc3b5"/><path d="M1277.994,998.7a3.267,3.267,0,0,0,2.056,1.586l-.244-.942-1.875-1.578Z" transform="translate(-1267.979 -972.381)" fill="#fc8899"/><path d="M1274.224,981.562a1.52,1.52,0,0,1,2.121.963,11.484,11.484,0,0,1,.3,1.434c.184,1.316-.344,2.682-.942,2.754a2.846,2.846,0,0,1-2.644-2.446A2.514,2.514,0,0,1,1274.224,981.562Z" transform="translate(-1263.623 -959.305)" fill="#ffc3b5"/><path d="M1289.641,994.228a.443.443,0,1,1-.494-.474A.49.49,0,0,1,1289.641,994.228Z" transform="translate(-1279.75 -969.17)" fill="#ffc3b5"/><path d="M1270.613,976.193c.678.415.985,1.134.685,1.6a1.309,1.309,0,0,1-1.769.1c-.678-.415-.985-1.134-.686-1.6A1.309,1.309,0,0,1,1270.613,976.193Z" transform="translate(-1257.497 -954.906)"/><path d="M1281.683,979.021c.026.213-.21.417-.528.455s-.6-.1-.621-.316.21-.417.527-.455S1281.657,978.808,1281.683,979.021Z" transform="translate(-1270.135 -957.136)"/><path d="M1272,985.693a.494.494,0,1,1-.55-.437A.5.5,0,0,1,1272,985.693Z" transform="translate(-1258.541 -962.376)"/><path d="M1242.781,1013.28s2.679,6.331,3.631,8.563c.1.242.621,1.819.64,1.977.043.349-1.425.977-1.609.973-.164,0-2.321-6.69-3.574-9.938a9.652,9.652,0,0,0-1.837-2.99l-.609-.5-.059-.188S1242.085,1011.416,1242.781,1013.28Z" transform="translate(-1227.25 -983.1)" fill="#d1d1d1"/><rect width="0.495" height="44.48" transform="translate(17.544 0.122) rotate(-14.213)"/><g transform="translate(24.188 25.989)"><path d="M1210.734,1002.136a1.492,1.492,0,0,0-.088-.291.823.823,0,0,0-.167-.266.508.508,0,0,1-.084-.176.313.313,0,0,0-.037-.07v0a.713.713,0,0,0-.165-.159.752.752,0,0,1-.178-.193.535.535,0,0,0-.2-.176c-.079-.039-.141-.04-.169.009-.132.226-.79.948-.523,1.3a8.376,8.376,0,0,1,.575.734c.082.19.372.177.545.11A.66.66,0,0,0,1210.734,1002.136Z" transform="translate(-1209.059 -1000.777)" fill="#ffc3b5"/></g></g><path d="M1277.039,999.9l-1.28.14a.569.569,0,0,0,.65.445C1277.1,1000.425,1277.039,999.9,1277.039,999.9Z" transform="translate(-1264.534 -974.082)" fill="#fff"/></g><g transform="translate(544.445 882.784)"><path d="M948.053,1340.371a6.086,6.086,0,0,0,.758-.125,3.577,3.577,0,0,1,.86-.124,1.961,1.961,0,0,1,1.516.786c.395.678,1.419.421.581,3.331-.949,3.293-2.725,2.516-2.758,2.45s-1.184-2.5-1.184-2.5-.836,1.108-.826,1.063S944.991,1340.7,948.053,1340.371Z" transform="translate(-905.362 -1339.389)"/><path d="M975.345,1375.4c.012-.217,1,.01,1.125-.161s-1.078-.687-1.052-.873c.048-.343,1.356.483,1.388.326s-1.274-1.074-1.016-1.259,1.255,1.093,1.365.941-1.034-1.1-.858-1.466c.094-.192,1.748,1.876,2.041,1.871s.161-1.148.416-1.2-.014,2.206.095,2.33a33.25,33.25,0,0,0,3.243,3.657c.267-.294,1.92-1.751,2.165-2.032.408.649,1.041,1.015,1.483,1.636a19.911,19.911,0,0,1-3.819,2.97c-1.087.036-3.419-4.366-3.92-5.161s-.973-.8-1.386-1.156S975.333,1375.62,975.345,1375.4Z" transform="translate(-944.822 -1365.594)" fill="#edaea2"/><path d="M960.549,1387.827s3.67-2.824,4.359-4.1-.939-2.174-2.218-2.188-3.988,3.794-3.988,3.794Z" transform="translate(-920.82 -1372.506)" fill="#c1507f"/><path d="M985.287,1609.707s.109,1.971.11,1.975c.04.25.2.868.2,1.1,0,.854-3.732-.725-2.9-1.1.076-.034.472-.293.5-.584.039-.448.136-1.355.136-1.355Z" transform="translate(-946.131 -1554.92)" fill="#ffc3b5"/><path d="M985.118,1619.334a13.264,13.264,0,0,0,1.325.327c.449.065,1.041-.485,1.358-.336.349.163.314,1.775.314,1.775s-4.678.281-6-.153C981.592,1620.774,983.326,1619.943,985.118,1619.334Z" transform="translate(-948.539 -1562.589)" fill="#fcfcfc"/><path d="M944.275,1610.649s.109,1.971.11,1.975c.04.25.2.868.2,1.1,0,.855-3.733-.725-2.9-1.1.076-.034.59-.487.615-.778.038-.448.018-1.161.018-1.161Z" transform="translate(-896.896 -1555.673)" fill="#ffc3b5"/><path d="M943.99,1620.277a13.275,13.275,0,0,0,1.325.327c.449.065,1.041-.485,1.358-.336.349.164.364,1.636.364,1.636s-5,.369-6.177.023C940.332,1621.77,942.2,1620.886,943.99,1620.277Z" transform="translate(-899.188 -1563.343)" fill="#fcfcfc"/><path d="M953.222,1468.77l-1.578.693-3.319,16.147.135,12.1,2.661.063s1.238-10.589,1.238-11.409,5.733-14.36,5.733-14.36Z" transform="translate(-911.758 -1442.243)" fill="#03192b"/><path d="M936.756,1468.261s1.163,12.44,1.163,14.537.943,13.834.943,13.834l2.667-.016s.193-3.577.478-8.841c.045-.824-.057-2.487,0-3.341.415-6.137.89-16.472.659-16.715C940.919,1465.879,936.756,1468.261,936.756,1468.261Z" transform="translate(-894.073 -1440.845)" fill="#00223d"/><path d="M942.1,1380.047a11.065,11.065,0,0,1,2.6.541c.579.36.88,1.861.88,1.861s-.33,7.8-.178,9.628c.118,1.412.178,7.185.178,7.185s-6.766,1.021-9.432.207c0,0,.46-4.191.367-5.273s.036-11.006.2-11.713a2.6,2.6,0,0,1,1.638-2.176A14.869,14.869,0,0,1,942.1,1380.047Z" transform="translate(-896.811 -1371.295)" fill="#fcfcfc"/><path d="M955.246,1369.311l.678,2.573s-1.236,1.548-2.249,1.364c-.85-.155-.729-1.247-.729-1.247a6.67,6.67,0,0,0,.126-2.245C952.873,1369.028,955.246,1369.311,955.246,1369.311Z" transform="translate(-910.517 -1362.682)" fill="#ffc3b5"/><path d="M956.053,1369.756c-.2-.728,2.174-.445,2.174-.445l.056.213a1.2,1.2,0,0,1-.222.386,3.3,3.3,0,0,1-1.97.98A3.553,3.553,0,0,0,956.053,1369.756Z" transform="translate(-913.497 -1362.682)" fill="#fc8899"/><path d="M1161.181,1598.586s-.683.666-.7.91-.061,2.864.218,3.108,1.1.418.834.693a8.164,8.164,0,0,1-2.743.107c-.3-.016-.667-2.378-.784-2.725-.171-.5-.585-1.64-.429-1.991a2.956,2.956,0,0,1,.944-.852,4.638,4.638,0,0,0,1.047-1.115Z" transform="translate(-1157.204 -1544.539)" fill="#ffc3b5"/><path d="M1112.326,1613.607s-.611,1.726-.612,1.73c-.045.273-.224.949-.224,1.2,0,.934,4.211-.792,3.267-1.206a.994.994,0,0,1-.382-.654,2.189,2.189,0,0,1,.355-1.1Z" transform="translate(-1101.278 -1558.008)" fill="#ffc3b5"/><path d="M1092.681,1453.5s.307,3.094.307,3.14c0,5,.992,14.779.8,15.721-.46,2.294-5.414,14-5.414,14l-2.677-.32,3.489-14.016-1.284-5.642-1.816-11.151Z" transform="translate(-1075.028 -1430.031)" fill="#03192b"/><path d="M1102.333,1457.993l-.508,2.932-1.374,12.067-5.234,11.794s.736,1.716,1.822,1.957l8.33-12.109,5.175-15.494-.181-3.442Z" transform="translate(-1093.665 -1431.792)" fill="#00223d"/><path d="M1157.528,1602.2s1.573,4.43,2.189,4.643c.163.057.948.2,1.1.548a1.5,1.5,0,0,1,0,.454h-3.279s-.415-1.952-.579-2.809a12.711,12.711,0,0,1-.771-2.286C1156.28,1602.557,1157.528,1602.2,1157.528,1602.2Z" transform="translate(-1156.176 -1548.916)"/><path d="M1095.218,1623.817l.482-1.523a4.185,4.185,0,0,0,1.519.357,15.242,15.242,0,0,0,1.5-.357c2.021.665,3.676.988,3.375,1.523h-6.871Z" transform="translate(-1085.245 -1564.983)"/><path d="M1018.521,1412.806l-.276.167a2.115,2.115,0,0,1-.337.24c-.069.016-1.957-.026-1.957-.026s-.006.628.006.628.993.8.993.8l.209.1,1.286-.384,1.174-.147s.833-.1.833-.117a5.475,5.475,0,0,0-.057-.711c-.033-.032-.5-.516-.5-.516s-.361-.081-.373-.081-.362-.069-.374-.073-.56.081-.56.081Z" transform="translate(-987.677 -1397.4)" fill="#edaea2"/><path d="M1015.282,1414.05a3.172,3.172,0,0,0-.585.13c-.2.081-1.812,1.3-1.812,1.3s-.216.118-.329.024a.26.26,0,0,1-.106-.2s-.191.106-.321.033a.218.218,0,0,1-.109-.256.367.367,0,0,1-.3-.041c-.109-.093-.053-.333-.053-.333s-.345.211-.479.069-.077-.292.057-.406.93-.642,1.024-.7.358-.341.439-.378.28-.146.28-.146.333.036.354.049.114.244.28.3a.426.426,0,0,0,.37-.049.319.319,0,0,0,0-.126,2.866,2.866,0,0,1-.159-.37c-.028-.142-.065-.183-.118-.215s-.341-.117-.484-.175a2.391,2.391,0,0,0-.739.11l-.285.122s.053-.21.232-.243.4-.082.528-.094.419.077.553.085a2.167,2.167,0,0,1,.536.086,6.379,6.379,0,0,0,1.117-.008S1015.575,1413.684,1015.282,1414.05Z" transform="translate(-981.647 -1397.217)" fill="#ffc3b5"/><path d="M945.822,1399.928c.383-.008,4.8-.046,6.464-.06a1.832,1.832,0,0,0,1.117-.392l3.694-2.906,2.242,2.351-4.512,3.118a7.434,7.434,0,0,1-2.4.375c-1.744-.176-6.178-1.064-6.622-1Z" transform="translate(-912.498 -1384.519)" fill="#ffc3b5"/><path d="M1042.986,1401.83c-.383-.008-5.039-.076-6.7-.09a1.831,1.831,0,0,1-1.116-.392l-3.694-2.907-1.617,1.864,4.585,3.312a1.544,1.544,0,0,0,1.06.285c1.744-.176,6.521-.643,6.965-.583Z" transform="translate(-1013 -1386.016)" fill="#edaea2"/><path d="M936.026,1386.443s3.092-3.253,4.21-4.073a1.606,1.606,0,0,1,2.608,1.291c.1,2.068-4,5.769-4,5.769Z" transform="translate(-894.048 -1372.885)" fill="#c1507f"/><path d="M1085.52,1386.446s-3.092-3.252-4.211-4.073-3.368-.123-3.19,1.287c.182,1.438,5.233,5.079,5.233,5.079Z" transform="translate(-1065.21 -1372.888)" fill="#167377"/><path d="M1097.481,1384.207c.072.5,1.4,14.04,1.4,14.04-6.27,3.028-9.729.539-9.729.539s.205-9.509-.041-10.8c-.163-.856-.011-6.628.544-6.787a10.132,10.132,0,0,1,2.064-.433,23.179,23.179,0,0,1,4.238.053A6.727,6.727,0,0,1,1097.481,1384.207Z" transform="translate(-1080.76 -1371.826)" fill="#167377"/><path d="M1107.5,1366.483l-.462,2.82s1.689,3.589,2.7,3.286c.846-.253.325-3.336.325-3.336a8.118,8.118,0,0,1-.323-2.483C1109.88,1365.942,1107.5,1366.483,1107.5,1366.483Z" transform="translate(-1095.714 -1360.326)" fill="#ffc3b5"/><path d="M1111.424,1366.77c.138-.828-2.239-.287-2.239-.287l-.039.243a1.337,1.337,0,0,0,.258.407,3.192,3.192,0,0,0,2.079.9A4.315,4.315,0,0,1,1111.424,1366.77Z" transform="translate(-1097.397 -1360.326)" fill="#fc8899"/><path d="M1102.492,1342.889c-.067-.023-.538,3.332.356,4.255s2.638,1.225,3.263.5c.691-.8.656-4.41-.734-5.36S1102.492,1342.889,1102.492,1342.889Z" transform="translate(-1091.094 -1340.872)" fill="#ffc3b5"/><path d="M1107.943,1337.2a2.52,2.52,0,0,0-1.837,1.4,2.651,2.651,0,0,0,.76,3.547,2.071,2.071,0,0,1,.963,1.56l.159-.427a2.34,2.34,0,0,0,.123-1.023,1.939,1.939,0,0,0-.159-.615c-.236-.486.506-.808.715-1.213.16-.311.168-1.023.421-1.537l.3-.393a1.972,1.972,0,0,1,1.377-.373C1111.447,1338.271,1110.611,1335.085,1107.943,1337.2Z" transform="translate(-1096.217 -1336.471)"/><path d="M1118.425,1356.249c.007.409-.187.744-.434.749s-.452-.324-.459-.734.187-.745.433-.748S1118.418,1355.839,1118.425,1356.249Z" transform="translate(-1106.019 -1351.696)" fill="#ffc3b5"/><path d="M1105.892,1363.024l-1.478.15a.649.649,0,0,0,.743.511C1105.952,1363.627,1105.892,1363.024,1105.892,1363.024Z" transform="translate(-1090.857 -1357.7)" fill="#fff"/><path d="M1135.244,1412.086a.411.411,0,0,1,0-.092c.1-.991.921-9.314,1.059-9.668.125-.32,3.816-5.6,3.816-5.6l1.814,2.471-3.549,4.735c-.08.3-1.36,5.919-1.36,5.919s-.263,1.024-.38,1.638c.054.147.106.287.153.4a3.665,3.665,0,0,0,.382.615,4.211,4.211,0,0,1,.453.8c.037.145.105.445.144.626s.091.393.1.491a.943.943,0,0,0,.115.264.158.158,0,0,1-.187.228c-.129-.043-.229-.21-.292-.314-.174-.293-.268-.829-.311-.8s-.2.938-.221,1.041a11.2,11.2,0,0,1-.311,1.352c-.1.193-.24.161-.277.04-.031-.1.115-1.582.115-1.582s.018-.189-.064-.13-.217,1.4-.275,1.6-.188.3-.3.142a5.946,5.946,0,0,1,.1-1.615s.026-.179-.05-.162-.172,1.16-.232,1.259a.15.15,0,0,1-.281-.031,7.048,7.048,0,0,1,.134-1.462s-.01-.1-.058-.067-.2,1-.3,1.092a.1.1,0,0,1-.151,0c-.181-.123.1-1.045.094-1.5a11.334,11.334,0,0,0,.146-1.518C1135.263,1412.223,1135.251,1412.139,1135.244,1412.086Z" transform="translate(-1133.021 -1384.646)" fill="#ffc3b5"/><path d="M1126.935,1389.221l3.153,2.116a34.2,34.2,0,0,1,2.731-3.585c1.195-1.179-.435-4.792-1.205-4.587C1129.891,1383.622,1126.935,1389.221,1126.935,1389.221Z" transform="translate(-1122.722 -1373.795)" fill="#167377"/><path d="M955.029,1347.051a1.63,1.63,0,0,0-2.189,1.2,12.406,12.406,0,0,0-.2,1.561c-.092,1.424.58,2.846,1.225,2.875a3.059,3.059,0,0,0,2.63-2.835A2.7,2.7,0,0,0,955.029,1347.051Z" transform="translate(-911.031 -1344.839)" fill="#ffc3b5"/><path d="M950.456,1359.992a.474.474,0,1,0,.491-.548A.525.525,0,0,0,950.456,1359.992Z" transform="translate(-905.479 -1354.837)" fill="#ffc3b5"/><path d="M954.464,1347.628s-.793.02-.964-.524a2.324,2.324,0,0,0-2.3-1.656c-1.363.152,1.348-.8,1.449-.782l1.32.283s.767.979.783,1.071.081,1.077.081,1.077Z" transform="translate(-908.996 -1343.022)"/><path d="M963.149,1367.821l-1.425-.041a.623.623,0,0,0,.643.58C963.13,1368.4,963.149,1367.821,963.149,1367.821Z" transform="translate(-919.503 -1361.502)" fill="#fff"/></g></g></svg>