<svg xmlns="http://www.w3.org/2000/svg" xmlns:xlink="http://www.w3.org/1999/xlink" width="295.428" height="205.453" viewBox="0 0 295.428 205.453"><defs><linearGradient id="a" x1="0.5" x2="0.5" y2="1" gradientUnits="objectBoundingBox"><stop offset="0" stop-color="#fff"/><stop offset="1" stop-color="#d2e6ee"/></linearGradient><linearGradient id="e" y1="0.5" x2="1" y2="0.5" gradientUnits="objectBoundingBox"><stop offset="0" stop-color="#ff928e"/><stop offset="1" stop-color="#feb3b1"/></linearGradient><linearGradient id="h" x1="294.087" y1="1.605" x2="296.088" y2="4.278" xlink:href="#e"/><linearGradient id="i" x1="0.439" y1="-3.503" x2="0.505" y2="0.689" xlink:href="#e"/><linearGradient id="j" x1="0.511" y1="0.146" x2="0.456" y2="1.705" xlink:href="#e"/><linearGradient id="k" x1="-47.545" y1="17.427" x2="-48.867" y2="15.942" xlink:href="#e"/><linearGradient id="l" x1="-155.484" y1="82.575" x2="-159.791" y2="75.375" xlink:href="#e"/><linearGradient id="m" x1="0.5" x2="0.5" y2="1" gradientUnits="objectBoundingBox"><stop offset="0" stop-color="#fff"/><stop offset="1" stop-color="#d3d3d3"/></linearGradient><linearGradient id="y" x1="1.66" y1="1.186" x2="0.085" y2="0.256" xlink:href="#e"/><linearGradient id="z" x1="0.892" y1="0.928" x2="-0.916" y2="-1.638" xlink:href="#e"/><linearGradient id="aa" y1="0.5" x2="1" y2="0.5" gradientUnits="objectBoundingBox"><stop offset="0" stop-color="#dae3fe"/><stop offset="1" stop-color="#e9effd"/></linearGradient><linearGradient id="ab" x1="0" y1="0.5" x2="1" y2="0.5" xlink:href="#aa"/><linearGradient id="an" x1="0" y1="0.5" x2="1" y2="0.5" xlink:href="#aa"/><linearGradient id="ao" x1="0" y1="0.5" x2="1" y2="0.5" xlink:href="#aa"/><linearGradient id="as" x1="0" y1="0.5" x2="1" y2="0.5" xlink:href="#aa"/><linearGradient id="aw" x1="0" y1="0.5" x2="1" y2="0.5" xlink:href="#aa"/><linearGradient id="dv" x1="0" y1="0.5" x2="1" y2="0.5" xlink:href="#aa"/></defs><g transform="translate(-323.582 -253.746)"><g transform="translate(323.582 278.142)"><path d="M323.582,420.752V556.673c0,11.181,8.59,20.325,19.365,20.613,47.859,1.28,215.245,4.384,260.8,3.688a14.9,14.9,0,0,0,14.4-14.74c.879-31.576,2.305-107.507-2.975-142.758a15.254,15.254,0,0,0-14.391-13.215c-40.1-1.331-217.54-5.556-263.077-4.5A14.74,14.74,0,0,0,323.582,420.752Z" transform="translate(-323.582 -405.597)" fill="#00223d"/><path d="M374.757,447.679V576.813A11.745,11.745,0,0,0,386.1,588.758l254.047,3.256a11.414,11.414,0,0,0,11.376-11.582l.425-127.98a8.365,8.365,0,0,0-8-8.532l-260.1-5.451A9.042,9.042,0,0,0,374.757,447.679Z" transform="translate(-366.535 -433.185)" fill="#f1f1f1"/><path d="M651.837,1397.857h-.006l-278.68-4.925a.307.307,0,0,1-.3-.312.314.314,0,0,1,.312-.3l278.68,4.926a.306.306,0,0,1-.005.612Z" transform="translate(-364.935 -1233.795)" fill="#fff" opacity="0.65"/></g><g transform="translate(340.407 296.185)"><path d="M508.38,930.719H434.9a4.011,4.011,0,0,1-4.012-4.011v-7.29a2.956,2.956,0,0,1,2.956-2.956h75.592a2.956,2.956,0,0,1,2.956,2.956v7.29A4.012,4.012,0,0,1,508.38,930.719Z" transform="translate(-430.473 -852.43)" fill="#707070" opacity="0.37"/><path d="M508.38,1092.017H434.9a4.012,4.012,0,0,1-4.012-4.011v-39.669a2.956,2.956,0,0,1,2.956-2.956h75.592a2.956,2.956,0,0,1,2.956,2.956v39.669A4.012,4.012,0,0,1,508.38,1092.017Z" transform="translate(-430.473 -960.638)" fill="#707070" opacity="0.37"/><path d="M1071.127,930.719H997.646a4.011,4.011,0,0,1-4.011-4.011v-7.29a2.956,2.956,0,0,1,2.956-2.956h75.592a2.956,2.956,0,0,1,2.956,2.956v7.29A4.011,4.011,0,0,1,1071.127,930.719Z" transform="translate(-902.811 -852.43)" fill="#707070" opacity="0.37"/><path d="M1071.127,1092.017H997.646a4.011,4.011,0,0,1-4.011-4.011v-39.669a2.956,2.956,0,0,1,2.956-2.956h75.592a2.956,2.956,0,0,1,2.956,2.956v39.669A4.011,4.011,0,0,1,1071.127,1092.017Z" transform="translate(-902.811 -960.638)" fill="#707070" opacity="0.37"/><path d="M1633.874,930.719h-73.481a4.011,4.011,0,0,1-4.011-4.011v-7.29a2.956,2.956,0,0,1,2.956-2.956h75.592a2.956,2.956,0,0,1,2.956,2.956v7.29A4.012,4.012,0,0,1,1633.874,930.719Z" transform="translate(-1375.149 -852.43)" fill="#707070" opacity="0.37"/><path d="M1633.874,1092.017h-73.481a4.011,4.011,0,0,1-4.011-4.011v-39.669a2.956,2.956,0,0,1,2.956-2.956h75.592a2.956,2.956,0,0,1,2.956,2.956v39.669A4.012,4.012,0,0,1,1633.874,1092.017Z" transform="translate(-1375.149 -960.638)" fill="#707070" opacity="0.37"/><g transform="translate(0)"><path d="M428.817,527.355c-.211,9.064-1.939,38.1,2.475,44.307,6.247,8.792,58.767,4.627,71.608,1.157s6.594-36.093,5.206-45.464-27.345-9.717-46.469-9.37S429,519.373,428.817,527.355Z" transform="translate(-428.308 -517.903)" fill="#7dc4be"/><path d="M902.549,606.929a.538.538,0,0,1-.534-.478c-.442-3.918-1.009-7.512-1.423-10.135l-.168-1.07a.538.538,0,0,1,1.064-.166l.168,1.068c.415,2.634.984,6.24,1.43,10.182a.539.539,0,0,1-.475.6A.528.528,0,0,1,902.549,606.929Z" transform="translate(-824.569 -582.299)" fill="#fff"/><path d="M811.545,733.547a.539.539,0,0,1-.071-1.072,80.25,80.25,0,0,0,9.391-1.692c5.078-1.372,7.333-8.459,6.7-21.062a.538.538,0,0,1,.511-.565.55.55,0,0,1,.565.511c.66,13.178-1.863,20.632-7.5,22.155a81.219,81.219,0,0,1-9.528,1.719A.556.556,0,0,1,811.545,733.547Z" transform="translate(-749.524 -678.43)" fill="#fff"/><path d="M449.968,729.672a.539.539,0,0,1-.536-.49c-.241-2.662-.384-5.882-.424-9.571a.539.539,0,0,1,1.077-.012c.04,3.661.182,6.852.42,9.486a.539.539,0,0,1-.488.585Z" transform="translate(-445.682 -686.748)" opacity="0.56" fill="url(#a)"/><path d="M450.517,554.051H450.5a.539.539,0,0,1-.522-.554c.052-1.749.11-3.381.161-4.834.057-1.628.107-3.03.132-4.115.15-6.452,8.767-8.171,21.657-8.767a.539.539,0,1,1,.05,1.076c-14.541.672-20.518,2.908-20.63,7.716-.025,1.089-.075,2.494-.132,4.128-.051,1.451-.108,3.081-.161,4.828A.538.538,0,0,1,450.517,554.051Z" transform="translate(-446.497 -532.909)" fill="#fff"/><path d="M598.985,621.887a1.151,1.151,0,0,1-.979-1.754l20.054-32.547a1.151,1.151,0,1,1,1.959,1.207L599.966,621.34A1.15,1.15,0,0,1,598.985,621.887Z" transform="translate(-570.599 -575.931)" fill="#fff"/><path d="M536.2,645.5a1.147,1.147,0,0,1-.854-.379l-7.822-8.646a5.26,5.26,0,0,1-1.3-3.88,5.112,5.112,0,0,1,1.751-3.568l8.242-6.928a1.151,1.151,0,1,1,1.481,1.762l-8.242,6.928a2.8,2.8,0,0,0-.936,1.963,2.95,2.95,0,0,0,.708,2.18l7.822,8.646a1.151,1.151,0,0,1-.853,1.923Z" transform="translate(-510.484 -605.132)" fill="#fff"/><path d="M743.63,645.5a1.151,1.151,0,0,1-.853-1.923l7.822-8.646a2.951,2.951,0,0,0,.708-2.18,2.8,2.8,0,0,0-.936-1.963l-8.242-6.928a1.151,1.151,0,1,1,1.481-1.762l8.242,6.928a5.111,5.111,0,0,1,1.751,3.568,5.261,5.261,0,0,1-1.3,3.88l-7.822,8.646A1.147,1.147,0,0,1,743.63,645.5Z" transform="translate(-691.367 -605.132)" fill="#fff"/></g><g transform="translate(90.95 0.329)"><path d="M994.929,529.4c-.211,9.064-1.939,38.1,2.475,44.307,6.247,8.792,58.767,4.627,71.608,1.157s6.594-36.093,5.206-45.464-27.345-9.717-46.469-9.37S995.115,521.42,994.929,529.4Z" transform="translate(-994.42 -519.949)" fill="#00223d"/><path d="M1468.663,606.929a.539.539,0,0,1-.535-.478c-.442-3.918-1.009-7.512-1.423-10.135l-.168-1.07a.538.538,0,0,1,1.064-.166l.168,1.068c.415,2.634.984,6.24,1.429,10.182a.538.538,0,0,1-.475.6A.53.53,0,0,1,1468.663,606.929Z" transform="translate(-1390.682 -582.628)" fill="#fff"/><path d="M1377.657,733.547a.539.539,0,0,1-.071-1.072,80.241,80.241,0,0,0,9.391-1.692c5.078-1.372,7.333-8.459,6.7-21.062a.538.538,0,0,1,.511-.565.55.55,0,0,1,.565.511c.659,13.178-1.863,20.632-7.5,22.155a81.22,81.22,0,0,1-9.528,1.719A.551.551,0,0,1,1377.657,733.547Z" transform="translate(-1315.636 -678.759)" fill="#fff"/><path d="M1016.08,729.672a.539.539,0,0,1-.536-.49c-.241-2.662-.384-5.882-.424-9.571a.539.539,0,0,1,1.077-.012c.04,3.661.181,6.852.42,9.486a.539.539,0,0,1-.488.585Z" transform="translate(-1011.794 -687.077)" fill="#fff"/><path d="M1016.63,554.051h-.016a.539.539,0,0,1-.522-.554c.052-1.749.11-3.381.161-4.834.057-1.628.107-3.03.132-4.115.15-6.452,8.766-8.171,21.657-8.767a.539.539,0,1,1,.05,1.076c-14.541.672-20.518,2.908-20.63,7.716-.025,1.089-.075,2.494-.132,4.128-.051,1.451-.108,3.081-.161,4.828A.538.538,0,0,1,1016.63,554.051Z" transform="translate(-1012.609 -533.237)" fill="#fff"/><g transform="translate(20.285 6.614)"><path d="M1252.8,582.655a1.15,1.15,0,0,1-1.132-1.355l3.473-19.233a1.151,1.151,0,0,1,1.345-.926,20.927,20.927,0,0,1,16.8,17.385,1.151,1.151,0,0,1-.973,1.312l-19.352,2.8A1.138,1.138,0,0,1,1252.8,582.655Zm4.392-19-2.976,16.484,16.587-2.4A18.63,18.63,0,0,0,1257.189,563.652Z" transform="translate(-1230.605 -561.121)" fill="#fff"/><path d="M1137.776,649.539a17.1,17.1,0,1,1,3.176-33.892,1.15,1.15,0,0,1,.919,1.335l-2.515,13.929,14.016-2.031a1.153,1.153,0,0,1,1.3.965,17.11,17.11,0,0,1-16.9,19.694Zm0-31.89a14.794,14.794,0,1,0,14.794,14.794c0-.372-.014-.745-.042-1.116l-14.423,2.09a1.151,1.151,0,0,1-1.3-1.343l2.588-14.335A14.691,14.691,0,0,0,1137.776,617.65Z" transform="translate(-1120.68 -606.636)" fill="#fff"/></g></g><g transform="translate(181.9 0.329)"><path d="M1561.042,529.4c-.211,9.064-1.939,38.1,2.475,44.307,6.247,8.792,58.767,4.627,71.608,1.157s6.594-36.093,5.206-45.464-27.345-9.717-46.469-9.37S1561.228,521.42,1561.042,529.4Z" transform="translate(-1560.533 -519.949)" fill="#5b7393"/><path d="M2034.774,606.929a.539.539,0,0,1-.534-.478c-.442-3.918-1.009-7.512-1.423-10.135l-.168-1.07a.539.539,0,0,1,1.064-.166l.168,1.068c.416,2.634.985,6.24,1.43,10.182a.539.539,0,0,1-.475.6A.532.532,0,0,1,2034.774,606.929Z" transform="translate(-1956.794 -582.628)" fill="#fff"/><path d="M1943.77,733.547a.539.539,0,0,1-.071-1.072,80.23,80.23,0,0,0,9.39-1.692c5.078-1.372,7.333-8.459,6.7-21.062a.538.538,0,0,1,.511-.565.55.55,0,0,1,.565.511c.66,13.178-1.863,20.632-7.5,22.155a81.224,81.224,0,0,1-9.528,1.719A.559.559,0,0,1,1943.77,733.547Z" transform="translate(-1881.749 -678.759)" fill="#fff"/><path d="M1582.194,729.672a.538.538,0,0,1-.536-.49c-.241-2.662-.384-5.882-.425-9.571a.539.539,0,0,1,1.077-.012c.04,3.661.181,6.852.42,9.486a.539.539,0,0,1-.488.585Z" transform="translate(-1577.907 -687.077)" fill="#fff"/><path d="M1582.742,554.051h-.016a.539.539,0,0,1-.522-.554c.052-1.749.11-3.381.161-4.834.057-1.628.106-3.03.132-4.115.15-6.452,8.766-8.171,21.657-8.767a.539.539,0,1,1,.05,1.076c-14.541.672-20.518,2.908-20.63,7.716-.025,1.089-.075,2.494-.133,4.128-.051,1.451-.108,3.081-.161,4.828A.538.538,0,0,1,1582.742,554.051Z" transform="translate(-1578.722 -533.237)" fill="#fff"/><path d="M1753.927,636.648a1.385,1.385,0,0,1-1.384-1.348l-.632-23.619a2.231,2.231,0,0,1,3.174-2.08l23.331,10.913a2.23,2.23,0,0,1,.1,3.988l-20.595,10.979a1.385,1.385,0,1,1-1.3-2.444l19.642-10.472L1754.7,612.48l.609,22.745a1.385,1.385,0,0,1-1.347,1.422Z" transform="translate(-1721.164 -595.02)" fill="#fff"/></g><g transform="translate(24.205 47.081)"><g transform="translate(0 17.084)"><path d="M602.683,922.2l-4.066-3.966a3.312,3.312,0,0,0-2.313-.941h-8.821a3.312,3.312,0,0,0-2.284.914l-4.161,3.963a3.312,3.312,0,0,0-1.027,2.311l-1.038,39.174a3.312,3.312,0,0,0,3.311,3.4h19.9a3.313,3.313,0,0,0,3.309-3.466l-1.816-39.17A3.313,3.313,0,0,0,602.683,922.2Zm-10.722,2.042a2.475,2.475,0,1,1,2.02-2.02A2.477,2.477,0,0,1,591.961,924.244Z" transform="translate(-578.973 -917.294)" fill="url(#a)"/></g><path d="M608.416,994.744,623.1,992.25a.957.957,0,0,1,1.117.943v.831a.957.957,0,0,1-.849.951l-14.686,1.663a.957.957,0,0,1-1.064-.951h0A.956.956,0,0,1,608.416,994.744Z" transform="translate(-603.017 -963.112)" fill="#00223d"/><path d="M608.416,1022.036l14.686-2.494a.957.957,0,0,1,1.117.943v.831a.957.957,0,0,1-.849.951l-14.686,1.662a.957.957,0,0,1-1.064-.951h0A.957.957,0,0,1,608.416,1022.036Z" transform="translate(-603.017 -986.02)" fill="#00223d"/><g transform="translate(3.221 43.581)"><circle cx="8.143" cy="8.143" r="8.143" transform="translate(0 15.851) rotate(-76.717)" fill="#00223d"/><circle cx="7.872" cy="7.872" r="7.872" transform="translate(1.021 2.945) rotate(-7.018)" fill="#f6c343"/><path d="M617.992,1100.671a.307.307,0,0,1-.273-.445,7.542,7.542,0,0,1,6.765-4.165,7.637,7.637,0,0,1,1.366.123.306.306,0,0,1-.11.6,7.007,7.007,0,0,0-1.256-.113,6.932,6.932,0,0,0-6.218,3.828A.306.306,0,0,1,617.992,1100.671Z" transform="translate(-614.687 -1093.838)" fill="#fff" opacity="0.61"/><circle cx="6.663" cy="6.663" r="6.663" transform="translate(0.545 9.968) rotate(-45)" fill="#fff" opacity="0.61"/><g transform="translate(7.033 5.252)"><path d="M645.079,1124.585v-.725a5.916,5.916,0,0,1-2.034-.441.42.42,0,0,1-.232-.5l.184-.675a.423.423,0,0,1,.574-.277,4.906,4.906,0,0,0,1.878.4c.728,0,1.271-.247,1.271-.753,0-.456-.419-.728-1.431-1-1.443-.395-2.48-1.024-2.48-2.295,0-1.147.839-2.023,2.295-2.258v-.725a.422.422,0,0,1,.422-.422h.426a.422.422,0,0,1,.422.422v.651a5.4,5.4,0,0,1,1.612.29.421.421,0,0,1,.263.508l-.169.624a.421.421,0,0,1-.556.284,4.4,4.4,0,0,0-1.581-.287c-.864,0-1.11.358-1.11.678,0,.395.518.666,1.641,1.012,1.6.481,2.27,1.147,2.27,2.344a2.472,2.472,0,0,1-2.393,2.332v.811a.422.422,0,0,1-.422.422H645.5A.422.422,0,0,1,645.079,1124.585Z" transform="translate(-642.799 -1114.916)" fill="#f6c343"/></g></g><path d="M627.61,834.135a.627.627,0,0,1-.579-.387c-1.074-2.6.154-5.408,1.374-7.3.372-.578.776-1.145,1.167-1.693a15.572,15.572,0,0,0,2.419-4.249,7.616,7.616,0,0,0-1.458-7.1,4.847,4.847,0,0,0-5.108-.763c-1.63.859-3.946,3.875-1.134,14.418a.627.627,0,0,1-1.211.323c-2.883-10.812-.634-14.586,1.761-15.849a6,6,0,0,1,6.643,1.055,8.9,8.9,0,0,1,1.7,8.289,16.742,16.742,0,0,1-2.595,4.6c-.382.536-.778,1.09-1.133,1.643-.866,1.347-2.183,3.937-1.27,6.149a.627.627,0,0,1-.579.866Z" transform="translate(-614.854 -810.956)" fill="#00223d"/></g><g transform="translate(117.562 47.081)"><g transform="translate(0 17.084)"><path d="M1183.773,922.2l-4.066-3.966a3.312,3.312,0,0,0-2.313-.941h-8.821a3.311,3.311,0,0,0-2.284.914l-4.161,3.963a3.313,3.313,0,0,0-1.027,2.311l-1.038,39.174a3.313,3.313,0,0,0,3.311,3.4h19.9a3.313,3.313,0,0,0,3.309-3.466l-1.816-39.17A3.313,3.313,0,0,0,1183.773,922.2Zm-10.722,2.042a2.475,2.475,0,1,1,2.02-2.02A2.477,2.477,0,0,1,1173.051,924.244Z" transform="translate(-1160.062 -917.294)" fill="url(#a)"/></g><path d="M1189.507,994.744l14.686-2.494a.957.957,0,0,1,1.117.943v.831a.957.957,0,0,1-.849.951l-14.686,1.663a.957.957,0,0,1-1.064-.951h0A.956.956,0,0,1,1189.507,994.744Z" transform="translate(-1184.108 -963.112)" fill="#00223d"/><path d="M1189.507,1022.036l14.686-2.494a.957.957,0,0,1,1.117.943v.831a.957.957,0,0,1-.849.951l-14.686,1.662a.957.957,0,0,1-1.064-.951h0A.957.957,0,0,1,1189.507,1022.036Z" transform="translate(-1184.108 -986.02)" fill="#00223d"/><g transform="translate(2.378 42.738)"><circle cx="8.143" cy="8.143" r="8.143" transform="translate(0 15.047) rotate(-67.5)" fill="#00223d"/><circle cx="7.872" cy="7.872" r="7.872" transform="matrix(0.973, -0.23, 0.23, 0.973, 1.169, 4.786)" fill="#f6c343"/><path d="M1199.082,1100.671a.307.307,0,0,1-.273-.445,7.541,7.541,0,0,1,6.765-4.165,7.635,7.635,0,0,1,1.366.123.306.306,0,0,1-.11.6,7.008,7.008,0,0,0-1.256-.113,6.932,6.932,0,0,0-6.218,3.828A.306.306,0,0,1,1199.082,1100.671Z" transform="translate(-1194.934 -1092.995)" fill="#fff" opacity="0.61"/><circle cx="6.663" cy="6.663" r="6.663" transform="translate(2.105 7.205) rotate(-22.5)" fill="#fff" opacity="0.61"/><g transform="translate(7.876 6.095)"><path d="M1226.17,1124.585v-.725a5.915,5.915,0,0,1-2.034-.441.42.42,0,0,1-.232-.5l.184-.675a.423.423,0,0,1,.574-.277,4.907,4.907,0,0,0,1.878.4c.728,0,1.271-.247,1.271-.753,0-.456-.419-.728-1.431-1-1.443-.395-2.48-1.024-2.48-2.295,0-1.147.839-2.023,2.295-2.258v-.725a.422.422,0,0,1,.422-.422h.426a.422.422,0,0,1,.422.422v.651a5.4,5.4,0,0,1,1.612.29.42.42,0,0,1,.263.508l-.169.624a.421.421,0,0,1-.556.284,4.4,4.4,0,0,0-1.581-.287c-.864,0-1.11.358-1.11.678,0,.395.518.666,1.641,1.012,1.6.481,2.27,1.147,2.27,2.344a2.472,2.472,0,0,1-2.393,2.332v.811a.422.422,0,0,1-.422.422h-.426A.422.422,0,0,1,1226.17,1124.585Z" transform="translate(-1223.889 -1114.916)" fill="#f6c343"/></g></g><path d="M1208.7,834.135a.627.627,0,0,1-.579-.387c-1.074-2.6.154-5.408,1.374-7.3.372-.578.776-1.145,1.167-1.693a15.567,15.567,0,0,0,2.419-4.249,7.616,7.616,0,0,0-1.458-7.1,4.847,4.847,0,0,0-5.108-.763c-1.63.859-3.946,3.875-1.135,14.418a.626.626,0,1,1-1.21.323c-2.883-10.812-.634-14.586,1.761-15.849a6,6,0,0,1,6.643,1.055,8.9,8.9,0,0,1,1.7,8.289,16.74,16.74,0,0,1-2.595,4.6c-.382.536-.778,1.09-1.133,1.643-.866,1.347-2.183,3.937-1.269,6.149a.627.627,0,0,1-.579.866Z" transform="translate(-1195.945 -810.956)" fill="#00223d"/></g><g transform="translate(210.918 47.081)"><g transform="translate(0 17.084)"><path d="M1764.864,922.2l-4.066-3.966a3.312,3.312,0,0,0-2.313-.941h-8.821a3.313,3.313,0,0,0-2.285.914l-4.161,3.963a3.311,3.311,0,0,0-1.027,2.311l-1.038,39.174a3.312,3.312,0,0,0,3.311,3.4h19.9a3.313,3.313,0,0,0,3.309-3.466l-1.816-39.17A3.313,3.313,0,0,0,1764.864,922.2Zm-10.722,2.042a2.475,2.475,0,1,1,2.02-2.02A2.477,2.477,0,0,1,1754.142,924.244Z" transform="translate(-1741.153 -917.294)" fill="url(#a)"/></g><path d="M1770.6,994.744l14.686-2.494a.957.957,0,0,1,1.117.943v.831a.957.957,0,0,1-.849.951l-14.686,1.663a.957.957,0,0,1-1.064-.951h0A.957.957,0,0,1,1770.6,994.744Z" transform="translate(-1765.198 -963.112)" fill="#00223d"/><path d="M1770.6,1022.036l14.686-2.494a.957.957,0,0,1,1.117.943v.831a.957.957,0,0,1-.849.951l-14.686,1.662a.957.957,0,0,1-1.064-.951h0A.957.957,0,0,1,1770.6,1022.036Z" transform="translate(-1765.198 -986.02)" fill="#00223d"/><g transform="translate(3.831 44.192)"><circle cx="8.143" cy="8.143" r="8.143" transform="matrix(0.138, -0.99, 0.99, 0.138, 0, 16.131)" fill="#00223d"/><circle cx="7.872" cy="7.872" r="7.872" transform="translate(0.431 2.308) rotate(-6.845)" fill="#f6c343"/><path d="M1780.173,1100.671a.307.307,0,0,1-.273-.445,7.541,7.541,0,0,1,6.765-4.165,7.63,7.63,0,0,1,1.366.123.306.306,0,1,1-.11.6,7,7,0,0,0-1.256-.113,6.931,6.931,0,0,0-6.218,3.828A.306.306,0,0,1,1780.173,1100.671Z" transform="translate(-1777.479 -1094.448)" fill="#fff" opacity="0.61"/><circle cx="6.663" cy="6.663" r="6.663" transform="translate(1.573 4.047) rotate(-10.699)" fill="#fff" opacity="0.61"/><g transform="translate(6.423 4.642)"><path d="M1807.26,1124.585v-.725a5.916,5.916,0,0,1-2.034-.441.42.42,0,0,1-.232-.5l.184-.675a.423.423,0,0,1,.574-.277,4.907,4.907,0,0,0,1.878.4c.728,0,1.271-.247,1.271-.753,0-.456-.419-.728-1.431-1-1.443-.395-2.479-1.024-2.479-2.295,0-1.147.839-2.023,2.294-2.258v-.725a.422.422,0,0,1,.422-.422h.426a.422.422,0,0,1,.423.422v.651a5.4,5.4,0,0,1,1.612.29.421.421,0,0,1,.263.508l-.169.624a.421.421,0,0,1-.556.284,4.405,4.405,0,0,0-1.581-.287c-.864,0-1.11.358-1.11.678,0,.395.518.666,1.641,1.012,1.6.481,2.27,1.147,2.27,2.344a2.472,2.472,0,0,1-2.393,2.332v.811a.422.422,0,0,1-.422.422h-.426A.422.422,0,0,1,1807.26,1124.585Z" transform="translate(-1804.979 -1114.916)" fill="#f6c343"/></g></g><path d="M1789.792,834.135a.627.627,0,0,1-.579-.387c-1.074-2.6.154-5.408,1.374-7.3.372-.578.776-1.145,1.167-1.693a15.574,15.574,0,0,0,2.419-4.249,7.617,7.617,0,0,0-1.458-7.1,4.848,4.848,0,0,0-5.108-.763c-1.63.859-3.946,3.875-1.135,14.418a.626.626,0,0,1-1.211.323c-2.883-10.812-.634-14.586,1.761-15.849a6,6,0,0,1,6.643,1.055,8.894,8.894,0,0,1,1.7,8.289,16.736,16.736,0,0,1-2.594,4.6c-.382.536-.778,1.09-1.133,1.643-.866,1.347-2.183,3.937-1.27,6.149a.627.627,0,0,1-.579.866Z" transform="translate(-1777.036 -810.956)" fill="#00223d"/></g></g><g transform="translate(398.374 342.889)"><path d="M944.934,1485.612s-.4,2.269-.6,4.516a1.548,1.548,0,0,0,1.481,1.677c2.992.125,9.391.367,11.687.265a.5.5,0,0,0,.443-.69h0a1.129,1.129,0,0,0-.577-.608l-10.571-4.858Z" transform="translate(-919.395 -1376.847)" fill="#00223d"/><path d="M946.042,1475.122l.322,2.714s1.852.862,3.116-.108l-.767-3.025Z" transform="translate(-920.831 -1367.69)" fill="url(#e)"/><path d="M903.69,1159.646c-.139.709-.747,35.375,2.959,50.91a.527.527,0,0,1-.309.613,9.184,9.184,0,0,1-3.018.613.908.908,0,0,1-.9-.652c-1.059-3.6-6.135-21.663-6.8-38.915-.74-19.277,0-.656,0-.656l.434-11.916Z" transform="translate(-878.237 -1103.248)" fill="#5b7393"/><path d="M865.738,1492.981a16.325,16.325,0,0,0-1.256,4.19.944.944,0,0,0,.831,1.131c.988.1,2.508.222,3.727.214a.942.942,0,0,0,.932-1.05,7.943,7.943,0,0,0-1.854-4.355Z" transform="translate(-852.358 -1383.032)" fill="#00223d"/><path d="M868.912,1470.415l.753,4.105a2.654,2.654,0,0,0,2.216.152l-.359-4.417Z" transform="translate(-856.093 -1363.958)" fill="url(#e)"/><path d="M850.162,1156.251c-3.031,18.29.657,45.206,1.9,50.474a.821.821,0,0,0,.663.624,5.513,5.513,0,0,0,2.37-.095.753.753,0,0,0,.541-.693c.167-4.259-.133-30.405,2.69-40.738a2.348,2.348,0,0,1,.905-1.295l5.481-3.9.42-6.3Z" transform="translate(-839.376 -1098.79)" fill="#5b7393"/><g transform="translate(9.654 8.739)"><path d="M869.656,942.8a85.386,85.386,0,0,0-19.1,2.385c-2.707,15.8-.473,34.017-.473,34.017,7.031,1.844,14.963-1.127,14.963-1.127,1.169-6.6,6.621-25.185,6.621-25.185a29.919,29.919,0,0,0,11.1-3.524,19.473,19.473,0,0,1-3.849-8.051A30.472,30.472,0,0,1,869.656,942.8Z" transform="translate(-849.213 -928.736)" fill="#00223d"/><path d="M1051.675,863.693a1.738,1.738,0,0,0-2.021-.568c-1.337,5.646-8.344,10.224-15.544,12.461a19.475,19.475,0,0,0,3.849,8.051C1049.906,876.919,1051.675,863.693,1051.675,863.693Z" transform="translate(-1004.404 -863.005)" fill="url(#e)"/></g><g transform="translate(54.904)"><path d="M1132.668,818.312c.094.3-.988.749-1.624-.465-.022-.582-.376-3.074-.028-3.548a46.448,46.448,0,0,1,5.441-5.688.854.854,0,0,1,.107,1.187l-1.741,1.814a8.439,8.439,0,0,1,1.017,2.01,2.44,2.44,0,0,1-.243,1.8c-.306.551-.723,1.266-1.117,1.827A2.409,2.409,0,0,1,1132.668,818.312Z" transform="translate(-1130.864 -808.611)" fill="url(#h)"/><path d="M1139.87,834.614l-1.587,1.345-.5,1.339,1.415,1.569a18.256,18.256,0,0,1,.829-3.233C1140.383,835.06,1140.2,834.782,1139.87,834.614Z" transform="translate(-1136.673 -830.437)" fill="url(#i)"/></g><path d="M809.425,974.2l-3.484-8.794s-8.484,5.764-9.878,13.072a19.3,19.3,0,0,1,7.145,2C804.5,977.578,809.425,974.2,809.425,974.2Z" transform="translate(-794.948 -940.212)" fill="#00223d"/><path d="M904.011,904.663l-2.89,8.357a.3.3,0,0,0,.137.363,6.793,6.793,0,0,0,7.046-.474,1.417,1.417,0,0,0,.653-1.013l.936-7.233Z" transform="translate(-883.113 -889.232)" fill="url(#j)"/><g transform="translate(15.413 3.349)"><path d="M919.637,856.492s3.173,5.973,2.766,8.386-4.34,2.24-7.774.28l-2.4-6.45Z" transform="translate(-907.865 -852.149)" fill="url(#k)"/><path d="M891.975,839.3a.246.246,0,0,0,.107-.36,6.426,6.426,0,0,1-.883-1.875s-.57-.365,1.452-.849,5.038-1.235,5.672-2.957c.618-1.678-1.006-5.9-3.6-2.536a.246.246,0,0,1-.39,0,2.538,2.538,0,0,0-3.092-1,2.328,2.328,0,0,0-1.594,2.25.245.245,0,0,1-.29.251,2.839,2.839,0,0,0-3.315,1.546c-.677,1.487-.237,2.329.164,2.741a.245.245,0,0,1-.105.408,1.477,1.477,0,0,0-1.042,1.686c.086,1.561,1.832,1.424,2.329,1.353a.247.247,0,0,1,.219.077c.426.472,2.346,2.474,4.424,2.715a.248.248,0,0,0,.261-.328l-.9-2.614a.247.247,0,0,1,.134-.307Z" transform="translate(-885.058 -829.457)" fill="#00223d"/><path d="M917.65,889.018s-2.259-1.55-2.425-.245,2.035,1.891,3.124,1.4Z" transform="translate(-910.371 -878.805)" fill="url(#l)"/></g><g transform="translate(11.16 53.794)"><path d="M1015.82,1230.64a.633.633,0,0,1-.621-.517l-4.119-22.1a.633.633,0,1,1,1.244-.232l4.119,22.1a.633.633,0,0,1-.506.738A.625.625,0,0,1,1015.82,1230.64Z" transform="translate(-986.571 -1197.018)" fill="url(#m)"/><path d="M1001.119,1228.086H967.267a1.265,1.265,0,1,1,0-2.531h33.02l8.554-19.773H959.99a1.266,1.266,0,0,1,0-2.531h50.778a1.265,1.265,0,0,1,1.161,1.768l-9.649,22.3A1.265,1.265,0,0,1,1001.119,1228.086Z" transform="translate(-942.636 -1193.643)" fill="url(#m)"/><path d="M914.82,1200.028H888.145a1.317,1.317,0,0,1-1.262-.941l-15.886-53H859.9a1.317,1.317,0,1,1,0-2.635h12.078a1.317,1.317,0,0,1,1.262.941l15.886,53H914.82a1.317,1.317,0,1,1,0,2.634Z" transform="translate(-858.583 -1143.45)" fill="url(#m)"/><g transform="translate(25.655 54.592)"><circle cx="3.293" cy="3.293" r="3.293" transform="translate(0 6.41) rotate(-76.718)" fill="#00223d"/><circle cx="2.378" cy="2.378" r="2.378" transform="translate(1.492 1.583)" fill="url(#m)"/></g><g transform="translate(50.757 54.776)"><circle cx="3.293" cy="3.293" r="3.293" transform="translate(0 6.501) rotate(-80.783)" fill="#00223d"/><circle cx="2.378" cy="2.378" r="2.378" transform="translate(1.308 1.4)" fill="url(#m)"/></g><path d="M1070.072,1232.323a.633.633,0,0,1-.632-.62l-.438-21.9a.633.633,0,0,1,.62-.645.624.624,0,0,1,.645.62l.438,21.9a.633.633,0,0,1-.62.645Z" transform="translate(-1035.196 -1198.601)" fill="url(#m)"/><path d="M1112.384,1232.216a.633.633,0,0,1-.633-.633v-21.8a.633.633,0,0,1,1.266,0v21.8A.633.633,0,0,1,1112.384,1232.216Z" transform="translate(-1071.078 -1198.594)" fill="url(#m)"/><path d="M1159.286,1232.124h0a.633.633,0,0,1-.629-.637l.15-21.7a.633.633,0,0,1,.632-.628h0a.633.633,0,0,1,.628.637l-.15,21.7A.633.633,0,0,1,1159.286,1232.124Z" transform="translate(-1110.444 -1198.603)" fill="url(#m)"/><path d="M1189.757,1233.591a.643.643,0,0,1-.121-.012.633.633,0,0,1-.5-.742l4.113-21.2a.633.633,0,1,1,1.242.241l-4.113,21.2A.633.633,0,0,1,1189.757,1233.591Z" transform="translate(-1136.02 -1200.255)" fill="url(#m)"/><path d="M1020.9,1242.307H974.183a.633.633,0,0,1,0-1.265H1020.9a.633.633,0,1,1,0,1.265Z" transform="translate(-955.08 -1225.363)" fill="url(#m)"/><path d="M1029.108,1282.329H987.314a.633.633,0,1,1,0-1.265h41.794a.633.633,0,1,1,0,1.265Z" transform="translate(-966.101 -1258.955)" fill="url(#m)"/><path d="M1034.693,1319.225H997.32a.633.633,0,1,1,0-1.265h37.374a.633.633,0,1,1,0,1.265Z" transform="translate(-974.5 -1289.924)" fill="url(#m)"/></g><path d="M790.294,1045.016s-5.8,13.207,8.375,15.14l1.933-1.611s-7.087-3.866-3.221-11.6C797.38,1046.948,793.193,1043.405,790.294,1045.016Z" transform="translate(-789.119 -1006.683)" fill="url(#y)"/><path d="M850.491,1131.42h5.154s3.221,4.188,2.9,5.154-3.506.2-3.506.2L853.39,1134s-4.832.322-4.832-.966S850.491,1131.42,850.491,1131.42Z" transform="translate(-839.009 -1079.558)" fill="url(#z)"/></g><g transform="translate(492.996 403.075)"><path d="M1479.141,1201.181a.948.948,0,0,1-.947-.919c-.019-.6-.344-14.751,9.42-16.262a6.694,6.694,0,0,1,5.5,1.467c4.82,3.972,5.273,14.292,5.29,14.729a.948.948,0,0,1-1.895.074c0-.1-.437-9.911-4.6-13.341a4.81,4.81,0,0,0-4-1.055c-8.125,1.258-7.818,14.2-7.814,14.329a.948.948,0,0,1-.918.977Z" transform="translate(-1462.106 -1183.798)" fill="#00223d"/><path d="M1378.111,1303.09l6.939-39.583,26.067-.431,8.4,42.628h-39.15A2.282,2.282,0,0,1,1378.111,1303.09Z" transform="translate(-1378.086 -1250.249)" fill="#5b7393"/><path d="M1588.743,1263.507l-5.062-.431,8.4,42.628h5.026a1.607,1.607,0,0,0,1.573-1.934Z" transform="translate(-1550.651 -1250.249)" fill="#344a67"/><path d="M1444.277,1200.511a.948.948,0,0,1-.947-.919c-.019-.6-.344-14.751,9.42-16.262a6.693,6.693,0,0,1,5.5,1.467c4.82,3.972,5.273,14.292,5.29,14.729a.948.948,0,0,1-1.895.073c0-.1-.437-9.911-4.6-13.341a4.81,4.81,0,0,0-4-1.055c-8.125,1.257-7.818,14.2-7.814,14.329a.948.948,0,0,1-.918.977Z" transform="translate(-1432.844 -1183.234)" fill="#00223d"/></g><g transform="translate(526.582 420.164)"><path d="M1676.651,1304.3a.411.411,0,0,1-.411-.4,23.194,23.194,0,0,1,.807-6.282c1.2-4.294,3.622-6.84,6.991-7.361a5.394,5.394,0,0,1,4.43,1.18c4.027,3.319,4.411,12.064,4.425,12.435a.411.411,0,1,1-.821.032c0-.087-.384-8.749-4.127-11.833a4.6,4.6,0,0,0-3.781-1c-7.378,1.142-7.106,12.689-7.1,12.805a.411.411,0,0,1-.4.423Z" transform="translate(-1661.923 -1290.091)" fill="#00223d"/><path d="M1587.163,1381.389l6-24.933,22.537-.372,7.264,27.566h-33.848A1.973,1.973,0,0,1,1587.163,1381.389Z" transform="translate(-1587.141 -1345.404)" fill="#7dc4be"/><path d="M1769.272,1356.456l-4.377-.372,7.264,27.566h4.345a1.389,1.389,0,0,0,1.36-1.672Z" transform="translate(-1736.338 -1345.404)" fill="#3c918a"/><path d="M1646.508,1303.723a.412.412,0,0,1-.411-.4,23.232,23.232,0,0,1,.807-6.282c1.2-4.294,3.622-6.84,6.992-7.361a5.393,5.393,0,0,1,4.43,1.18c4.027,3.319,4.411,12.064,4.425,12.435a.411.411,0,1,1-.821.032c0-.087-.384-8.749-4.127-11.833a4.6,4.6,0,0,0-3.781-1c-7.378,1.142-7.106,12.688-7.1,12.8a.411.411,0,0,1-.4.424Z" transform="translate(-1636.622 -1289.605)" fill="#00223d"/></g><g transform="translate(463.514 253.746)"><path d="M1372.293,1292.872l-.91-.163a.157.157,0,1,1,.055-.309h.006l.9.169h.005a.153.153,0,0,1-.055.3Z" transform="translate(-1342.87 -1125.531)" fill="url(#aa)"/><path d="M1353.71,1288.218l-.888-.255a.17.17,0,0,1,.094-.328h.006l.876.26h.005a.166.166,0,0,1-.093.319Z" transform="translate(-1327.295 -1121.528)" fill="url(#ab)"/><path d="M1335.682,1281.724l-.858-.342a.184.184,0,0,1,.136-.341h0l.005,0,.845.345,0,0a.18.18,0,0,1-.135.333Z" transform="translate(-1312.195 -1115.987)" fill="url(#ab)"/><path d="M1318.362,1273.518l-.822-.422a.2.2,0,0,1,.18-.351h0l.005,0,.808.424,0,0a.193.193,0,0,1-.178.342Z" transform="translate(-1297.696 -1109.017)" fill="url(#ab)"/><path d="M1301.872,1263.745l-.78-.5a.21.21,0,0,1,.226-.355h0l0,0,.766.5,0,0a.206.206,0,0,1-.222.347Z" transform="translate(-1283.898 -1100.74)" fill="url(#ab)"/><path d="M1286.309,1252.547l-.734-.562a.224.224,0,1,1,.272-.355h0l0,0,.72.562,0,0a.22.22,0,0,1-.269.347Z" transform="translate(-1270.883 -1091.274)" fill="url(#ab)"/><path d="M1271.753,1240.065l-.684-.622a.237.237,0,1,1,.319-.35h0l0,0,.67.62,0,0a.233.233,0,0,1-.315.343Z" transform="translate(-1258.715 -1080.738)" fill="url(#ab)"/><path d="M1258.269,1226.431l-.631-.676a.25.25,0,1,1,.365-.341v0l0,0,.617.673,0,0a.246.246,0,0,1-.361.334Z" transform="translate(-1247.45 -1069.241)" fill="url(#ab)"/><path d="M1245.917,1211.763l-.575-.724a.263.263,0,1,1,.412-.328v0l0,0,.561.719,0,0a.259.259,0,0,1-.407.321Z" transform="translate(-1237.138 -1056.885)" fill="url(#ab)"/><path d="M1234.747,1196.163l-.518-.768a.277.277,0,0,1,.459-.309v0l0,.005.5.762,0,.005a.273.273,0,0,1-.453.3Z" transform="translate(-1227.82 -1043.75)" fill="url(#ab)"/><path d="M1224.83,1179.748l-.456-.806a.29.29,0,0,1,.5-.286v0l0,.006.442.8,0,.006a.286.286,0,0,1-.5.279Z" transform="translate(-1219.556 -1029.94)" fill="url(#ab)"/><path d="M1216.226,1162.611l-.391-.839a.3.3,0,1,1,.55-.256v0l0,.006.378.83,0,.006a.3.3,0,0,1-.544.25Z" transform="translate(-1212.396 -1015.529)" fill="url(#ab)"/><path d="M1209.012,1144.854l-.322-.87a.315.315,0,1,1,.59-.218h0l0,.007.312.858,0,.007a.312.312,0,0,1-.586.215Z" transform="translate(-1206.407 -1000.605)" fill="url(#ab)"/><path d="M1203.284,1126.587l-.249-.893a.322.322,0,0,1,.621-.173h0l0,.008.24.879,0,.008a.32.32,0,0,1-.616.17Z" transform="translate(-1201.667 -985.266)" fill="url(#an)"/><path d="M1199.061,1107.935l-.177-.909a.33.33,0,1,1,.647-.126v.009l.17.9v.007a.327.327,0,0,1-.643.124Z" transform="translate(-1198.187 -969.61)" fill="url(#ao)"/><path d="M1196.243,1089.016l-.11-.919a.337.337,0,1,1,.67-.08v.009l.1.906v.007a.335.335,0,0,1-.665.078Z" transform="translate(-1195.881 -953.735)" fill="url(#ab)"/><path d="M1194.8,1069.946l-.044-.925a.344.344,0,1,1,.688-.033h0V1069l.039.911v.007a.342.342,0,0,1-.684.031Z" transform="translate(-1194.724 -937.739)" fill="url(#ab)"/><path d="M1194.578,1050.826l.02-.926a.352.352,0,1,1,.7.015h0v.007l-.024.911v.007a.35.35,0,0,1-.7-.016Z" transform="translate(-1194.578 -921.703)" fill="url(#ao)"/><path d="M1195.424,1031.742l.081-.922a.359.359,0,1,1,.716.063h0v.007l-.084.908v.007a.357.357,0,0,1-.712-.064Z" transform="translate(-1195.287 -905.702)" fill="url(#as)"/><path d="M1197.511,1012.777l.139-.915a.367.367,0,0,1,.726.11v.008l-.141.9v.007a.365.365,0,0,1-.721-.111Z" transform="translate(-1197.036 -889.803)" fill="url(#ab)"/><path d="M1200.784,994l.195-.9a.374.374,0,1,1,.732.158v.008l-.2.891v.007a.372.372,0,0,1-.727-.159Z" transform="translate(-1199.78 -874.063)" fill="url(#ab)"/><path d="M1205.188,975.47l.248-.892a.382.382,0,1,1,.736.2v0l0,.006-.249.878,0,.006a.38.38,0,0,1-.731-.205Z" transform="translate(-1203.472 -858.536)" fill="url(#ab)"/><path d="M1210.67,957.248l.3-.876a.389.389,0,1,1,.737.251v0l0,.006-.3.862,0,.006a.387.387,0,0,1-.732-.252Z" transform="translate(-1208.067 -843.269)" fill="url(#aw)"/><path d="M1217.185,939.369l.348-.859a.4.4,0,0,1,.736.3v0l0,.006-.347.845,0,.006a.395.395,0,0,1-.731-.3Z" transform="translate(-1213.528 -828.29)" fill="url(#ab)"/><path d="M1224.683,921.9l.394-.837a.4.4,0,0,1,.732.344v0l0,.006-.392.824,0,.006a.4.4,0,0,1-.727-.344Z" transform="translate(-1219.814 -813.662)" fill="url(#ab)"/><path d="M1233.125,904.888l.438-.815a.412.412,0,1,1,.725.39v0l0,.006-.436.8,0,.006a.409.409,0,0,1-.72-.39Z" transform="translate(-1226.891 -799.411)" fill="url(#ab)"/><path d="M1242.477,888.361l.482-.791a.419.419,0,0,1,.716.436v0l0,.006-.479.777,0,.006a.417.417,0,0,1-.711-.436Z" transform="translate(-1234.729 -785.572)" fill="url(#ab)"/><path d="M1252.725,872.4l.524-.762a.423.423,0,1,1,.7.48h0l0,.005-.518.751,0,.005a.423.423,0,0,1-.7-.48Z" transform="translate(-1243.321 -772.212)" fill="url(#ab)"/><path d="M1263.811,857l.561-.735a.426.426,0,1,1,.677.517h0l0,0-.555.725,0,0a.425.425,0,0,1-.676-.516Z" transform="translate(-1252.615 -759.325)" fill="url(#ab)"/><path d="M1275.633,842.161l.595-.708a.428.428,0,0,1,.656.551h0l0,0-.589.7,0,0a.428.428,0,0,1-.654-.551Z" transform="translate(-1262.526 -746.906)" fill="url(#ab)"/><path d="M1288.137,827.892l.626-.68a.431.431,0,1,1,.634.584h0l0,0-.62.671,0,0a.43.43,0,0,1-.632-.583Z" transform="translate(-1273.01 -734.963)" fill="url(#ab)"/><path d="M1301.269,814.194l.655-.652a.433.433,0,1,1,.612.614h0l0,0-.648.643,0,0a.433.433,0,0,1-.61-.613Z" transform="translate(-1284.021 -723.501)" fill="url(#ab)"/><path d="M1314.978,801.068l.681-.625a.436.436,0,1,1,.589.642h0l0,0-.674.616,0,0a.435.435,0,0,1-.587-.642Z" transform="translate(-1295.516 -712.517)" fill="url(#ab)"/><path d="M1329.213,788.508l.7-.6a.438.438,0,0,1,.567.669h0l0,0-.7.589,0,0a.437.437,0,0,1-.565-.668Z" transform="translate(-1307.453 -702.006)" fill="url(#ab)"/><path d="M1343.925,776.5l.726-.57a.441.441,0,0,1,.544.693h0l0,0-.72.563,0,0a.44.44,0,0,1-.543-.693Z" transform="translate(-1319.79 -691.962)" fill="url(#ab)"/><path d="M1359.072,765.049l.746-.544a.443.443,0,1,1,.522.716h0l0,0-.739.537,0,0a.442.442,0,0,1-.521-.715Z" transform="translate(-1332.492 -682.376)" fill="url(#ab)"/><path d="M1374.606,754.124l.764-.519a.446.446,0,1,1,.5.737h0l0,0-.757.512,0,0a.445.445,0,0,1-.5-.737Z" transform="translate(-1345.519 -673.235)" fill="url(#ab)"/><path d="M1390.509,743.707l.781-.494a.448.448,0,1,1,.48.757h0l0,0-.774.488,0,0a.447.447,0,0,1-.478-.756Z" transform="translate(-1358.857 -664.518)" fill="url(#ab)"/><path d="M1406.733,733.794l.8-.47a.451.451,0,1,1,.459.776h0l0,0-.789.465,0,0a.45.45,0,0,1-.458-.775Z" transform="translate(-1372.463 -656.224)" fill="url(#ab)"/><path d="M1423.25,724.368l.808-.447a.453.453,0,0,1,.438.793h0l0,0-.8.442,0,0a.452.452,0,0,1-.437-.792Z" transform="translate(-1386.316 -648.336)" fill="url(#ab)"/><path d="M1440.032,715.413l.82-.424a.455.455,0,1,1,.419.809h0l0,0-.814.42,0,0a.455.455,0,0,1-.417-.808Z" transform="translate(-1400.391 -640.844)" fill="url(#ab)"/><path d="M1457.047,706.914l.829-.4a.458.458,0,0,1,.4.824h0l-.824.4h0a.457.457,0,0,1-.4-.823Z" transform="translate(-1414.663 -633.732)" fill="url(#ab)"/><path d="M1474.266,698.832l.838-.383a.46.46,0,1,1,.383.838h0l-.833.379h0a.46.46,0,0,1-.381-.837Z" transform="translate(-1429.106 -626.97)" fill="url(#ab)"/><path d="M1491.662,691.14l.845-.364a.463.463,0,0,1,.366.85h0l-.84.36h0a.462.462,0,0,1-.365-.849Z" transform="translate(-1443.698 -620.532)" fill="url(#ab)"/><path d="M1509.214,683.8l.853-.348a.466.466,0,0,1,.352.862h0l-.849.344h0a.465.465,0,0,1-.35-.861Z" transform="translate(-1458.422 -614.392)" fill="url(#ab)"/><path d="M1526.913,676.8l.858-.332a.468.468,0,1,1,.338.873h0l-.854.329h0a.467.467,0,0,1-.337-.872Z" transform="translate(-1473.27 -608.531)" fill="url(#ab)"/><path d="M1544.723,670.1l.863-.318a.47.47,0,1,1,.325.883h0l-.859.315h0a.47.47,0,0,1-.324-.882Z" transform="translate(-1488.212 -602.922)" fill="url(#ab)"/><path d="M1562.64,663.688l.868-.3a.47.47,0,1,1,.311.888h0l-.864.3h0a.471.471,0,0,1-.313-.889Z" transform="translate(-1503.243 -597.55)" fill="url(#ab)"/><path d="M1580.66,657.527l.872-.293a.468.468,0,0,1,.3.888h0l-.869.293h0a.469.469,0,0,1-.3-.889Z" transform="translate(-1518.365 -592.39)" fill="url(#ab)"/><path d="M1598.76,651.571l.875-.284a.466.466,0,1,1,.287.887l-.872.284a.467.467,0,1,1-.292-.887Z" transform="translate(-1533.555 -587.4)" fill="url(#ab)"/><path d="M1616.926,645.789l.878-.276a.464.464,0,1,1,.278.886l-.875.276a.465.465,0,0,1-.282-.886Z" transform="translate(-1548.8 -582.555)" fill="url(#ab)"/><path d="M1635.143,640.151l.88-.27a.462.462,0,0,1,.27.884l-.877.27a.463.463,0,1,1-.274-.884Z" transform="translate(-1564.089 -577.829)" fill="url(#ab)"/><path d="M1653.4,634.624l.881-.265a.46.46,0,0,1,.265.881l-.879.266a.46.46,0,1,1-.267-.881Z" transform="translate(-1579.411 -573.195)" fill="url(#ab)"/><path d="M1671.68,629.178l.881-.261a.458.458,0,1,1,.261.878l-.88.263a.458.458,0,1,1-.262-.878Z" transform="translate(-1594.755 -568.627)" fill="url(#ab)"/><path d="M1689.973,623.78l.881-.26a.456.456,0,0,1,.258.874l-.881.261a.456.456,0,1,1-.26-.875Z" transform="translate(-1610.109 -564.098)" fill="url(#ab)"/><path d="M1708.271,618.4l.882-.26a.454.454,0,0,1,.257.87l-.882.261a.454.454,0,0,1-.258-.871Z" transform="translate(-1625.469 -559.578)" fill="url(#ab)"/><path d="M1726.565,612.992l.882-.261a.451.451,0,1,1,.257.865l-.882.263a.452.452,0,1,1-.258-.866Z" transform="translate(-1640.825 -555.041)" fill="url(#ab)"/><path d="M1744.847,607.535l.881-.264a.449.449,0,1,1,.26.86l-.881.266a.45.45,0,0,1-.26-.861Z" transform="translate(-1656.173 -550.458)" fill="url(#ab)"/><path d="M1763.107,601.993l.879-.269a.447.447,0,1,1,.263.855l-.88.271a.448.448,0,1,1-.264-.856Z" transform="translate(-1671.502 -545.802)" fill="url(#ab)"/><path d="M1781.334,596.335l.877-.275a.445.445,0,1,1,.268.849l-.879.277a.446.446,0,0,1-.268-.85Z" transform="translate(-1686.805 -541.047)" fill="url(#ab)"/><path d="M1799.516,590.528l.874-.283a.443.443,0,1,1,.275.842l-.876.285a.443.443,0,0,1-.275-.843Z" transform="translate(-1702.069 -536.166)" fill="url(#ab)"/><path d="M1817.64,584.541l.87-.292h0a.441.441,0,0,1,.281.835l-.873.294a.441.441,0,1,1-.282-.836Z" transform="translate(-1717.286 -531.132)" fill="url(#ab)"/><path d="M1835.692,578.342l.866-.3h0a.439.439,0,0,1,.29.828l-.869.305a.439.439,0,1,1-.291-.829h0Z" transform="translate(-1732.444 -525.918)" fill="url(#ab)"/><path d="M1853.665,571.9l.861-.315h0a.436.436,0,0,1,.3.82l-.865.318a.437.437,0,1,1-.3-.82h0Z" transform="translate(-1747.536 -520.496)" fill="url(#ab)"/><path d="M1871.535,565.179l.855-.329h0a.434.434,0,0,1,.312.811l-.859.331a.435.435,0,1,1-.313-.812h0Z" transform="translate(-1762.541 -514.844)" fill="url(#ab)"/><path d="M1889.283,558.157l.849-.344h0a.432.432,0,0,1,.325.8l-.853.347a.433.433,0,0,1-.326-.8h0Z" transform="translate(-1777.445 -508.935)" fill="url(#ab)"/><path d="M1906.9,550.8l.842-.361h0a.43.43,0,0,1,.339.791l-.846.364a.431.431,0,0,1-.34-.792h0Z" transform="translate(-1792.235 -502.744)" fill="url(#ab)"/><path d="M1924.355,543.079l.834-.378h0a.428.428,0,0,1,.354.779l-.839.382a.429.429,0,0,1-.355-.78h0Z" transform="translate(-1806.898 -496.245)" fill="url(#ab)"/><path d="M1941.644,534.954l.823-.4,0,0a.426.426,0,0,1,.372.766l-.83.4a.426.426,0,1,1-.373-.767h0Z" transform="translate(-1821.417 -489.404)" fill="url(#ab)"/><path d="M1958.678,526.264l.806-.43,0,0a.424.424,0,0,1,.4.748l-.815.436a.424.424,0,0,1-.4-.749h0Z" transform="translate(-1835.727 -482.077)" fill="url(#ab)"/><path d="M1975.343,516.851l.784-.466.006,0a.421.421,0,0,1,.431.724l-.794.474a.422.422,0,1,1-.433-.725h0Z" transform="translate(-1849.729 -474.137)" fill="url(#ab)"/><path d="M1991.537,506.6l.756-.509.006,0a.415.415,0,0,1,.465.687l-.767.52a.417.417,0,1,1-.468-.689h0Z" transform="translate(-1863.34 -465.488)" fill="url(#ab)"/><path d="M2007.09,495.346l.718-.559.007-.006a.408.408,0,0,1,.5.643l-.73.573a.41.41,0,1,1-.506-.645h0Z" transform="translate(-1876.415 -455.986)" fill="url(#ab)"/><path d="M2021.785,482.946l.668-.615.008-.007a.4.4,0,0,1,.546.59l-.681.633a.4.4,0,1,1-.55-.592h0Z" transform="translate(-1888.773 -445.512)" fill="url(#ab)"/><path d="M2035.348,469.269l.6-.678.009-.01a.4.4,0,0,1,.591.525l-.617.7a.4.4,0,1,1-.6-.526h0Z" transform="translate(-1900.181 -433.956)" fill="url(#ab)"/><path d="M2047.442,454.251l.519-.74.009-.012a.389.389,0,0,1,.637.446l-.533.766a.391.391,0,0,1-.642-.447h0Z" transform="translate(-1910.357 -421.269)" fill="url(#an)"/><path d="M2057.663,437.91l.418-.8.008-.014a.383.383,0,0,1,.679.353l-.429.83a.384.384,0,1,1-.683-.353h0Z" transform="translate(-1918.959 -407.466)" fill="url(#ab)"/><path d="M2065.64,420.434c.105-.282.206-.566.3-.851v0a.376.376,0,0,1,.715.235q-.145.446-.308.885a.378.378,0,1,1-.71-.261h0Z" transform="translate(-1925.677 -392.721)" fill="url(#an)"/><path d="M2070.951,402l.163-.886,0-.017a.37.37,0,0,1,.728.132l-.165.921a.372.372,0,0,1-.731-.131v0Z" transform="translate(-1930.148 -377.165)" fill="url(#ao)"/><path d="M2073.382,383.124l.027-.9v-.016a.363.363,0,0,1,.726.021l-.025.935a.365.365,0,0,1-.73-.019v-.018Z" transform="translate(-1932.195 -361.272)" fill="url(#ab)"/><path d="M2072.453,364.181l-.1-.9,0-.015a.357.357,0,0,1,.709-.082l.11.929a.359.359,0,0,1-.713.084h0Z" transform="translate(-1931.327 -345.338)" fill="url(#ab)"/><path d="M2068.7,345.6l-.228-.875,0-.014a.35.35,0,0,1,.678-.178l.239.9a.353.353,0,0,1-.682.18h0Z" transform="translate(-1928.063 -329.727)" fill="url(#ao)"/><path d="M2062.365,327.727l-.349-.835-.006-.014a.344.344,0,0,1,.634-.267l.364.861a.346.346,0,1,1-.637.27h0Z" transform="translate(-1922.628 -314.728)" fill="url(#ab)"/><path d="M2053.526,310.955l-.467-.774-.007-.013a.337.337,0,0,1,.577-.35l.485.8a.34.34,0,0,1-.58.353h0Z" transform="translate(-1915.091 -300.674)" fill="url(#ab)"/><path d="M2042.283,295.712l-.578-.693-.01-.012a.331.331,0,0,1,.508-.425l.6.714a.333.333,0,0,1-.51.429h0Z" transform="translate(-1905.535 -287.922)" fill="url(#ab)"/><path d="M2028.8,282.466c-.225-.2-.451-.4-.683-.591a.325.325,0,0,1,.412-.5c.242.2.477.4.71.61a.327.327,0,0,1-.433.489h0Z" transform="translate(-1894.104 -276.872)" fill="url(#ab)"/><path d="M2013.263,271.56l-.77-.472-.013-.008a.318.318,0,0,1,.332-.543l.8.484a.32.32,0,0,1-.333.548h0Z" transform="translate(-1880.95 -267.8)" fill="url(#ab)"/><path d="M1996.237,263.275l-.835-.348-.013-.005a.312.312,0,0,1,.238-.576l.863.355a.314.314,0,1,1-.239.581h0Z" transform="translate(-1866.573 -260.944)" fill="url(#ab)"/><path d="M1978.162,257.66l-.878-.223-.013,0a.3.3,0,0,1,.146-.583l.905.222a.3.3,0,0,1-.145.59h0Z" transform="translate(-1851.336 -256.345)" fill="url(#ab)"/><path d="M1959.457,254.735l-.9-.094h-.012a.289.289,0,0,1,.058-.575l.927.09a.292.292,0,1,1-.056.582h-.015Z" transform="translate(-1835.589 -254.013)" fill="url(#ab)"/><path d="M1940.507,254.308l-.907.038h-.012a.277.277,0,0,1-.025-.554l.931-.045a.281.281,0,1,1,.027.561h-.015Z" transform="translate(-1819.654 -253.746)" fill="url(#ab)"/><path d="M1921.727,256.2l-.89.172-.012,0a.266.266,0,0,1-.1-.522l.912-.184a.27.27,0,0,1,.106.528h0Z" transform="translate(-1803.883 -255.351)" fill="url(#ab)"/><path d="M1903.578,260.929l-.851.309-.011,0a.255.255,0,0,1-.176-.478l.871-.324a.258.258,0,0,1,.18.484h0Z" transform="translate(-1788.662 -259.351)" fill="url(#ab)"/><path d="M1886.577,268.549c-.265.146-.53.291-.79.447a.243.243,0,0,1-.252-.416c.265-.162.537-.314.808-.466a.247.247,0,0,1,.241.43h0Z" transform="translate(-1774.43 -265.78)" fill="url(#ab)"/><path d="M1871.16,279l-.7.573-.009.007a.232.232,0,0,1-.294-.358l.716-.593a.235.235,0,1,1,.3.362h0Z" transform="translate(-1761.548 -274.583)" fill="url(#ab)"/><path d="M1857.775,291.927l-.6.679-.007.008a.22.22,0,0,1-.331-.292l.612-.7a.224.224,0,1,1,.337.295h0Z" transform="translate(-1750.392 -285.474)" fill="url(#ab)"/><path d="M1846.607,306.9l-.495.765-.005.008a.209.209,0,0,1-.352-.226l.5-.784a.212.212,0,1,1,.358.228h0Z" transform="translate(-1741.112 -298.076)" fill="url(#ao)"/><path d="M1837.854,323.473l-.377.829,0,.008a.2.2,0,0,1-.36-.162l.377-.848a.2.2,0,0,1,.367.164h0Z" transform="translate(-1733.872 -312.025)" fill="url(#an)"/><path d="M1831.684,341.254l-.25.875,0,.008a.186.186,0,0,1-.358-.1l.248-.894a.19.19,0,0,1,.365.1h0Z" transform="translate(-1728.811 -326.985)" fill="url(#ab)"/><path d="M1828.29,359.876l-.113.9v.008a.175.175,0,0,1-.347-.042l.108-.921a.178.178,0,1,1,.354.041h0Z" transform="translate(-1726.092 -342.65)" fill="url(#dv)"/><path d="M1827.671,378.912l.034.91v.008a.163.163,0,0,1-.326.013l-.042-.926a.167.167,0,0,1,.333-.015h0Z" transform="translate(-1725.68 -358.661)" fill="url(#aw)"/><path d="M1829.63,397.9l.113.56v.005a.153.153,0,0,1-.3.062l-.12-.57a.155.155,0,1,1,.3-.064h0Z" transform="translate(-1727.345 -374.633)" fill="url(#ao)"/></g></g></svg>