<?xml version="1.0" encoding="utf-8"?>
<!-- Generator: Adobe Illustrator 25.2.3, SVG Export Plug-In . SVG Version: 6.00 Build 0)  -->
<svg version="1.1" id="Capa_1" xmlns="http://www.w3.org/2000/svg" xmlns:xlink="http://www.w3.org/1999/xlink" x="0px" y="0px"
	 viewBox="0 0 410 235" style="enable-background:new 0 0 410 235;" xml:space="preserve">
<style type="text/css">
	.st0{fill:#F5CA56;}
	.st1{enable-background:new    ;}
	.st2{fill:#00223D;}
</style>
<g transform="translate(-350 -834)">
	<rect x="350" y="834" class="st0" width="37" height="211"/>
	<g class="st1">
		<path class="st2" d="M370.5,851.3c0-0.6-0.2-1-0.6-1.3s-1.1-0.6-2.1-0.9s-1.8-0.7-2.4-1c-1.6-0.9-2.4-2-2.4-3.5
			c0-0.8,0.2-1.5,0.6-2.1s1.1-1.1,1.9-1.4s1.7-0.5,2.7-0.5c1,0,1.9,0.2,2.7,0.6s1.4,0.9,1.9,1.6s0.7,1.4,0.7,2.3h-2.9
			c0-0.7-0.2-1.2-0.6-1.5s-1-0.5-1.7-0.5c-0.7,0-1.3,0.2-1.7,0.5s-0.6,0.7-0.6,1.2c0,0.5,0.2,0.8,0.7,1.2s1.2,0.6,2.1,0.9
			c1.7,0.5,2.9,1.1,3.6,1.9s1.1,1.7,1.1,2.8c0,1.2-0.5,2.2-1.4,2.9s-2.2,1-3.8,1c-1.1,0-2.1-0.2-3-0.6s-1.6-0.9-2.1-1.6
			s-0.7-1.5-0.7-2.4h2.9c0,1.6,0.9,2.4,2.8,2.4c0.7,0,1.2-0.1,1.6-0.4S370.5,851.8,370.5,851.3z"/>
	</g>
	<g class="st1">
		<path class="st2" d="M373.9,880.3c-0.1,1.5-0.7,2.7-1.7,3.6s-2.4,1.3-4,1.3c-1.8,0-3.3-0.6-4.3-1.8s-1.6-2.9-1.6-5.1v-0.9
			c0-1.4,0.2-2.6,0.7-3.6s1.2-1.8,2.1-2.4s1.9-0.8,3.1-0.8c1.6,0,3,0.4,4,1.3s1.6,2.1,1.7,3.7H371c-0.1-0.9-0.3-1.6-0.8-2
			s-1.1-0.6-2-0.6c-1,0-1.7,0.3-2.2,1s-0.7,1.8-0.7,3.3v1.1c0,1.5,0.2,2.7,0.7,3.4s1.2,1.1,2.2,1.1c0.9,0,1.6-0.2,2-0.6
			s0.7-1.1,0.8-1.9H373.9z"/>
	</g>
	<g class="st1">
		<path class="st2" d="M370.6,912.1h-5.1l-1,2.9h-3.1l5.3-14.2h2.7l5.3,14.2h-3.1L370.6,912.1z M366.2,909.7h3.6l-1.8-5.3
			L366.2,909.7z"/>
	</g>
	<g class="st1">
		<path class="st2" d="M364.3,930.8l3.7,10.3l3.6-10.3h3.8V945h-2.9v-3.9l0.3-6.7L369,945h-2l-3.8-10.6l0.3,6.7v3.9h-2.9v-14.2
			H364.3z"/>
	</g>
	<g class="st1">
		<path class="st2" d="M365.7,970v5h-2.9v-14.2h5.5c1.1,0,2,0.2,2.8,0.6s1.4,0.9,1.9,1.7s0.7,1.5,0.7,2.5c0,1.4-0.5,2.5-1.4,3.3
			s-2.3,1.2-4,1.2H365.7z M365.7,967.6h2.6c0.8,0,1.4-0.2,1.8-0.5s0.6-0.9,0.6-1.6c0-0.7-0.2-1.3-0.6-1.7s-1-0.7-1.7-0.7h-2.7V967.6
			z"/>
	</g>
	<g class="st1">
		<path class="st2" d="M372.2,998.8h-5.6v3.8h6.6v2.4h-9.5v-14.2h9.5v2.4h-6.6v3.4h5.6V998.8z"/>
	</g>
	<g class="st1">
		<path class="st2" d="M368.2,1029.8h-2.3v5.2h-2.9v-14.2h5.3c1.7,0,3,0.4,3.9,1.1s1.4,1.8,1.4,3.2c0,1-0.2,1.8-0.6,2.4
			s-1.1,1.2-1.9,1.5l3.1,5.8v0.1h-3.1L368.2,1029.8z M365.8,1027.4h2.4c0.7,0,1.3-0.2,1.7-0.6s0.6-0.9,0.6-1.5
			c0-0.7-0.2-1.2-0.6-1.6s-1-0.6-1.8-0.6h-2.4V1027.4z"/>
	</g>
	<g class="st1">
		<path class="st2" d="M399.7,848.4c0,0.7-0.1,1.2-0.2,1.7s-0.4,0.8-0.7,1.2s-0.8,0.9-1.4,1.5s-0.9,1.3-1,1.9l0,0.4
			c0,0.7,0.2,1.3,0.6,1.6s0.9,0.6,1.6,0.6c0.7,0,1.2-0.2,1.6-0.6s0.6-0.8,0.6-1.4h1.8c0,1-0.4,1.9-1.1,2.6s-1.7,1-2.9,1
			c-1.3,0-2.3-0.3-3-1s-1-1.6-1-2.7c0-1.1,0.5-2.3,1.6-3.4l1.1-1.1c0.4-0.5,0.6-1.2,0.6-2.2H399.7z M399.8,845.3
			c0,0.3-0.1,0.5-0.3,0.7c-0.2,0.2-0.4,0.3-0.8,0.3s-0.6-0.1-0.8-0.3c-0.2-0.2-0.3-0.5-0.3-0.7c0-0.3,0.1-0.5,0.3-0.7
			s0.4-0.3,0.8-0.3s0.6,0.1,0.8,0.3S399.8,845,399.8,845.3z"/>
		<path class="st2" d="M409.3,848.7c-1.6-0.5-2.8-1-3.5-1.7s-1.1-1.5-1.1-2.5c0-1.1,0.4-2,1.3-2.8s2.1-1.1,3.5-1.1
			c1,0,1.8,0.2,2.6,0.6s1.4,0.9,1.8,1.6s0.6,1.4,0.6,2.2h-1.9c0-0.9-0.3-1.5-0.8-2s-1.3-0.7-2.3-0.7c-0.9,0-1.6,0.2-2.2,0.6
			c-0.5,0.4-0.8,1-0.8,1.7c0,0.6,0.2,1.1,0.7,1.5s1.3,0.8,2.5,1.1s2.1,0.7,2.8,1.1s1.2,0.9,1.5,1.4s0.5,1.2,0.5,1.9
			c0,1.2-0.4,2.1-1.3,2.8s-2.1,1-3.6,1c-1,0-1.9-0.2-2.7-0.6s-1.5-0.9-2-1.5s-0.7-1.4-0.7-2.2h1.9c0,0.9,0.3,1.5,1,2
			s1.5,0.7,2.5,0.7c1,0,1.7-0.2,2.3-0.6s0.8-1,0.8-1.7s-0.2-1.2-0.7-1.6S410.6,849,409.3,848.7z"/>
		<path class="st2" d="M423.2,854c-0.7,0.8-1.7,1.2-3.1,1.2c-1.1,0-2-0.3-2.6-1s-0.9-1.6-0.9-2.9v-6.9h1.8v6.8c0,1.6,0.7,2.4,2,2.4
			c1.4,0,2.3-0.5,2.8-1.5v-7.7h1.8V855h-1.7L423.2,854z"/>
		<path class="st2" d="M433.9,852.2c0-0.5-0.2-0.9-0.6-1.1s-1-0.5-1.9-0.7s-1.6-0.4-2.2-0.7s-0.9-0.6-1.2-1s-0.4-0.8-0.4-1.3
			c0-0.9,0.4-1.6,1.1-2.2s1.7-0.9,2.8-0.9c1.2,0,2.2,0.3,2.9,0.9s1.1,1.4,1.1,2.4h-1.8c0-0.5-0.2-0.9-0.6-1.3s-0.9-0.5-1.6-0.5
			c-0.7,0-1.2,0.1-1.5,0.4s-0.6,0.7-0.6,1.1c0,0.4,0.2,0.8,0.5,1s1,0.4,1.9,0.6s1.6,0.4,2.2,0.7s1,0.6,1.2,1s0.4,0.9,0.4,1.4
			c0,0.9-0.4,1.7-1.1,2.3s-1.7,0.9-2.9,0.9c-0.8,0-1.6-0.1-2.2-0.4s-1.2-0.7-1.5-1.3s-0.6-1.1-0.6-1.7h1.8c0,0.6,0.3,1.1,0.7,1.4
			s1,0.5,1.8,0.5c0.7,0,1.2-0.1,1.6-0.4S433.9,852.7,433.9,852.2z"/>
		<path class="st2" d="M440.5,841.9v2.6h2v1.4h-2v6.6c0,0.4,0.1,0.7,0.3,1s0.5,0.3,0.9,0.3c0.2,0,0.5,0,0.9-0.1v1.5
			c-0.5,0.1-0.9,0.2-1.4,0.2c-0.8,0-1.4-0.2-1.8-0.7s-0.6-1.2-0.6-2.1v-6.6h-1.9v-1.4h1.9v-2.6H440.5z"/>
		<path class="st2" d="M444.6,841.6c0-0.3,0.1-0.5,0.3-0.7s0.4-0.3,0.8-0.3s0.6,0.1,0.8,0.3s0.3,0.4,0.3,0.7s-0.1,0.5-0.3,0.7
			s-0.4,0.3-0.8,0.3s-0.6-0.1-0.8-0.3S444.6,841.9,444.6,841.6z M446.5,855h-1.8v-10.6h1.8V855z"/>
		<path class="st2" d="M451.9,841.9v2.6h2v1.4h-2v6.6c0,0.4,0.1,0.7,0.3,1s0.5,0.3,0.9,0.3c0.2,0,0.5,0,0.9-0.1v1.5
			c-0.5,0.1-0.9,0.2-1.4,0.2c-0.8,0-1.4-0.2-1.8-0.7s-0.6-1.2-0.6-2.1v-6.6h-1.9v-1.4h1.9v-2.6H451.9z"/>
		<path class="st2" d="M462.5,854c-0.7,0.8-1.7,1.2-3.1,1.2c-1.1,0-2-0.3-2.6-1s-0.9-1.6-0.9-2.9v-6.9h1.8v6.8c0,1.6,0.7,2.4,2,2.4
			c1.4,0,2.3-0.5,2.8-1.5v-7.7h1.8V855h-1.7L462.5,854z"/>
		<path class="st2" d="M467,841.6c0-0.3,0.1-0.5,0.3-0.7s0.4-0.3,0.8-0.3s0.6,0.1,0.8,0.3s0.3,0.4,0.3,0.7s-0.1,0.5-0.3,0.7
			s-0.4,0.3-0.8,0.3s-0.6-0.1-0.8-0.3S467,841.9,467,841.6z M468.9,855h-1.8v-10.6h1.8V855z"/>
		<path class="st2" d="M476.9,846.1c-0.3,0-0.6-0.1-0.9-0.1c-1.2,0-2,0.5-2.4,1.5v7.5h-1.8v-10.6h1.8l0,1.2c0.6-0.9,1.4-1.4,2.5-1.4
			c0.4,0,0.6,0,0.8,0.1V846.1z"/>
		<path class="st2" d="M480.7,851c0-0.8,0.1-1.4,0.3-1.8c0.2-0.4,0.5-0.9,1-1.5l1.3-1.3c0.5-0.6,0.8-1.3,0.8-2
			c0-0.7-0.2-1.2-0.5-1.6s-0.9-0.6-1.6-0.6c-0.7,0-1.2,0.2-1.6,0.5s-0.6,0.8-0.6,1.4H478c0-1.1,0.4-1.9,1.1-2.6s1.7-1,2.9-1
			c1.2,0,2.2,0.3,2.9,1c0.7,0.7,1,1.6,1,2.7c0,1.1-0.5,2.3-1.6,3.4l-1.1,1.1c-0.5,0.5-0.7,1.3-0.7,2.3H480.7z M480.6,854.1
			c0-0.3,0.1-0.5,0.3-0.7s0.4-0.3,0.8-0.3s0.6,0.1,0.8,0.3s0.3,0.4,0.3,0.7s-0.1,0.5-0.3,0.7c-0.2,0.2-0.4,0.3-0.8,0.3
			s-0.6-0.1-0.8-0.3C480.7,854.6,480.6,854.4,480.6,854.1z"/>
	</g>
	<g class="st1">
		<path class="st2" d="M399.7,878.4c0,0.7-0.1,1.2-0.2,1.7s-0.4,0.8-0.7,1.2s-0.8,0.9-1.4,1.5s-0.9,1.3-1,1.9l0,0.4
			c0,0.7,0.2,1.3,0.6,1.6s0.9,0.6,1.6,0.6c0.7,0,1.2-0.2,1.6-0.6s0.6-0.8,0.6-1.4h1.8c0,1-0.4,1.9-1.1,2.6s-1.7,1-2.9,1
			c-1.3,0-2.3-0.3-3-1s-1-1.6-1-2.7c0-1.1,0.5-2.3,1.6-3.4l1.1-1.1c0.4-0.5,0.6-1.2,0.6-2.2H399.7z M399.8,875.3
			c0,0.3-0.1,0.5-0.3,0.7c-0.2,0.2-0.4,0.3-0.8,0.3s-0.6-0.1-0.8-0.3c-0.2-0.2-0.3-0.5-0.3-0.7c0-0.3,0.1-0.5,0.3-0.7
			s0.4-0.3,0.8-0.3s0.6,0.1,0.8,0.3S399.8,875,399.8,875.3z"/>
		<path class="st2" d="M415.6,880.5c-0.2,1.5-0.7,2.7-1.7,3.5s-2.2,1.2-3.7,1.2c-1.7,0-3-0.6-4-1.8s-1.5-2.8-1.5-4.8v-1.4
			c0-1.3,0.2-2.5,0.7-3.5s1.1-1.8,2-2.3s1.9-0.8,3-0.8c1.5,0,2.7,0.4,3.6,1.3s1.4,2,1.6,3.5h-1.9c-0.2-1.1-0.5-2-1.1-2.5
			c-0.5-0.5-1.3-0.8-2.3-0.8c-1.2,0-2.1,0.4-2.8,1.3c-0.7,0.9-1,2.1-1,3.8v1.4c0,1.5,0.3,2.8,1,3.7s1.5,1.4,2.7,1.4
			c1,0,1.8-0.2,2.4-0.7s0.9-1.3,1.1-2.5H415.6z"/>
		<path class="st2" d="M417.4,879.6c0-1,0.2-2,0.6-2.8s1-1.5,1.7-1.9s1.6-0.7,2.5-0.7c1.4,0,2.6,0.5,3.5,1.5s1.3,2.3,1.3,4v0.1
			c0,1-0.2,2-0.6,2.8s-1,1.5-1.7,1.9s-1.6,0.7-2.5,0.7c-1.4,0-2.6-0.5-3.5-1.5s-1.3-2.3-1.3-4V879.6z M419.2,879.8
			c0,1.2,0.3,2.1,0.8,2.8s1.3,1.1,2.2,1.1c0.9,0,1.6-0.4,2.2-1.1s0.8-1.7,0.8-3c0-1.2-0.3-2.1-0.8-2.8s-1.3-1.1-2.2-1.1
			c-0.9,0-1.6,0.4-2.2,1.1S419.2,878.5,419.2,879.8z"/>
		<path class="st2" d="M431,874.4l0,1.2c0.8-0.9,1.8-1.4,3.1-1.4c1.5,0,2.5,0.6,3,1.7c0.4-0.5,0.8-0.9,1.4-1.2s1.2-0.5,2-0.5
			c2.3,0,3.5,1.2,3.5,3.7v7.1h-1.8v-7c0-0.8-0.2-1.3-0.5-1.7s-0.9-0.6-1.7-0.6c-0.7,0-1.2,0.2-1.7,0.6s-0.7,0.9-0.8,1.6v7h-1.8v-6.9
			c0-1.5-0.8-2.3-2.3-2.3c-1.2,0-2,0.5-2.4,1.5v7.7h-1.8v-10.6H431z"/>
		<path class="st2" d="M455.7,879.8c0,1.6-0.4,2.9-1.1,3.9s-1.7,1.5-3,1.5c-1.3,0-2.4-0.5-3.1-1.4l-0.1,1.2h-1.7v-15h1.8v5.6
			c0.7-0.9,1.7-1.4,3-1.4s2.3,0.5,3,1.5s1.1,2.3,1.1,4V879.8z M453.9,879.6c0-1.2-0.2-2.2-0.7-2.9s-1.2-1-2.1-1
			c-1.2,0-2,0.6-2.6,1.7v4.6c0.6,1.1,1.4,1.7,2.6,1.7c0.9,0,1.5-0.3,2-1S453.9,881,453.9,879.6z"/>
		<path class="st2" d="M458,871.6c0-0.3,0.1-0.5,0.3-0.7s0.4-0.3,0.8-0.3s0.6,0.1,0.8,0.3s0.3,0.4,0.3,0.7s-0.1,0.5-0.3,0.7
			s-0.4,0.3-0.8,0.3s-0.6-0.1-0.8-0.3S458,871.9,458,871.6z M460,885h-1.8v-10.6h1.8V885z"/>
		<path class="st2" d="M464.6,874.4l0.1,1.3c0.8-1,1.9-1.5,3.2-1.5c2.2,0,3.4,1.3,3.4,3.8v7h-1.8v-7c0-0.8-0.2-1.3-0.5-1.7
			s-0.9-0.5-1.6-0.5c-0.6,0-1.1,0.2-1.5,0.5s-0.8,0.7-1,1.2v7.5h-1.8v-10.6H464.6z"/>
		<path class="st2" d="M480.4,885c-0.1-0.2-0.2-0.6-0.3-1.1c-0.8,0.9-1.8,1.3-3,1.3c-1,0-1.9-0.3-2.6-0.9s-1-1.3-1-2.2
			c0-1.1,0.4-2,1.3-2.6s2-0.9,3.5-0.9h1.8v-0.8c0-0.6-0.2-1.1-0.6-1.5s-0.9-0.6-1.7-0.6c-0.6,0-1.2,0.2-1.6,0.5s-0.7,0.7-0.7,1.2
			h-1.8c0-0.5,0.2-1,0.6-1.5s0.9-0.9,1.5-1.2s1.3-0.4,2.1-0.4c1.2,0,2.2,0.3,2.9,0.9s1,1.4,1.1,2.5v4.9c0,1,0.1,1.7,0.4,2.3v0.2
			H480.4z M477.4,883.6c0.6,0,1.1-0.1,1.6-0.4s0.9-0.7,1.1-1.1v-2.2h-1.4c-2.2,0-3.3,0.6-3.3,1.9c0,0.6,0.2,1,0.6,1.3
			S476.8,883.6,477.4,883.6z"/>
		<path class="st2" d="M489.9,876.1c-0.3,0-0.6-0.1-0.9-0.1c-1.2,0-2,0.5-2.4,1.5v7.5h-1.8v-10.6h1.8l0,1.2c0.6-0.9,1.4-1.4,2.5-1.4
			c0.4,0,0.6,0,0.8,0.1V876.1z"/>
		<path class="st2" d="M493.7,881c0-0.8,0.1-1.4,0.3-1.8c0.2-0.4,0.5-0.9,1-1.5l1.3-1.3c0.5-0.6,0.8-1.3,0.8-2
			c0-0.7-0.2-1.2-0.5-1.6s-0.9-0.6-1.6-0.6c-0.7,0-1.2,0.2-1.6,0.5s-0.6,0.8-0.6,1.4h-1.8c0-1.1,0.4-1.9,1.1-2.6s1.7-1,2.9-1
			c1.2,0,2.2,0.3,2.9,1c0.7,0.7,1,1.6,1,2.7c0,1.1-0.5,2.3-1.6,3.4l-1.1,1.1c-0.5,0.5-0.7,1.3-0.7,2.3H493.7z M493.6,884.1
			c0-0.3,0.1-0.5,0.3-0.7s0.4-0.3,0.8-0.3s0.6,0.1,0.8,0.3s0.3,0.4,0.3,0.7s-0.1,0.5-0.3,0.7c-0.2,0.2-0.4,0.3-0.8,0.3
			s-0.6-0.1-0.8-0.3C493.7,884.6,493.6,884.4,493.6,884.1z"/>
	</g>
	<g class="st1">
		<path class="st2" d="M399.7,908.4c0,0.7-0.1,1.2-0.2,1.7s-0.4,0.8-0.7,1.2s-0.8,0.9-1.4,1.5s-0.9,1.3-1,1.9l0,0.4
			c0,0.7,0.2,1.3,0.6,1.6s0.9,0.6,1.6,0.6c0.7,0,1.2-0.2,1.6-0.6s0.6-0.8,0.6-1.4h1.8c0,1-0.4,1.9-1.1,2.6s-1.7,1-2.9,1
			c-1.3,0-2.3-0.3-3-1s-1-1.6-1-2.7c0-1.1,0.5-2.3,1.6-3.4l1.1-1.1c0.4-0.5,0.6-1.2,0.6-2.2H399.7z M399.8,905.3
			c0,0.3-0.1,0.5-0.3,0.7c-0.2,0.2-0.4,0.3-0.8,0.3s-0.6-0.1-0.8-0.3c-0.2-0.2-0.3-0.5-0.3-0.7c0-0.3,0.1-0.5,0.3-0.7
			s0.4-0.3,0.8-0.3s0.6,0.1,0.8,0.3S399.8,905,399.8,905.3z"/>
		<path class="st2" d="M413,911.3h-6l-1.3,3.7h-1.9l5.4-14.2h1.6l5.4,14.2h-1.9L413,911.3z M407.6,909.7h4.8l-2.4-6.7L407.6,909.7z"
			/>
		<path class="st2" d="M417.4,909.6c0-1.6,0.4-2.9,1.2-3.9s1.8-1.5,3-1.5c1.2,0,2.2,0.4,2.9,1.3V900h1.8v15h-1.7l-0.1-1.1
			c-0.7,0.9-1.7,1.3-3,1.3c-1.2,0-2.2-0.5-3-1.5s-1.2-2.3-1.2-3.9V909.6z M419.2,909.8c0,1.2,0.2,2.1,0.7,2.8s1.2,1,2.1,1
			c1.1,0,2-0.5,2.5-1.5v-4.9c-0.5-1-1.4-1.5-2.5-1.5c-0.9,0-1.6,0.3-2.1,1S419.2,908.5,419.2,909.8z"/>
		<path class="st2" d="M435.7,915c-0.1-0.2-0.2-0.6-0.3-1.1c-0.8,0.9-1.8,1.3-3,1.3c-1,0-1.9-0.3-2.6-0.9s-1-1.3-1-2.2
			c0-1.1,0.4-2,1.3-2.6s2-0.9,3.5-0.9h1.8v-0.8c0-0.6-0.2-1.1-0.6-1.5s-0.9-0.6-1.7-0.6c-0.6,0-1.2,0.2-1.6,0.5s-0.7,0.7-0.7,1.2
			h-1.8c0-0.5,0.2-1,0.6-1.5s0.9-0.9,1.5-1.2s1.3-0.4,2.1-0.4c1.2,0,2.2,0.3,2.9,0.9s1,1.4,1.1,2.5v4.9c0,1,0.1,1.7,0.4,2.3v0.2
			H435.7z M432.7,913.6c0.6,0,1.1-0.1,1.6-0.4s0.9-0.7,1.1-1.1v-2.2H434c-2.2,0-3.3,0.6-3.3,1.9c0,0.6,0.2,1,0.6,1.3
			S432.1,913.6,432.7,913.6z"/>
		<path class="st2" d="M449,909.8c0,1.6-0.4,2.9-1.1,3.9s-1.7,1.5-3,1.5c-1.3,0-2.3-0.4-3-1.2v5.1H440v-14.6h1.7l0.1,1.2
			c0.7-0.9,1.8-1.4,3.1-1.4c1.3,0,2.3,0.5,3,1.4s1.1,2.3,1.1,4V909.8z M447.2,909.6c0-1.2-0.3-2.1-0.8-2.8s-1.2-1-2.1-1
			c-1.1,0-1.9,0.5-2.5,1.5v5c0.5,1,1.4,1.4,2.5,1.4c0.9,0,1.6-0.3,2.1-1S447.2,911,447.2,909.6z"/>
		<path class="st2" d="M453.7,901.9v2.6h2v1.4h-2v6.6c0,0.4,0.1,0.7,0.3,1s0.5,0.3,0.9,0.3c0.2,0,0.5,0,0.9-0.1v1.5
			c-0.5,0.1-0.9,0.2-1.4,0.2c-0.8,0-1.4-0.2-1.8-0.7s-0.6-1.2-0.6-2.1v-6.6H450v-1.4h1.9v-2.6H453.7z"/>
		<path class="st2" d="M464.3,915c-0.1-0.2-0.2-0.6-0.3-1.1c-0.8,0.9-1.8,1.3-3,1.3c-1,0-1.9-0.3-2.6-0.9s-1-1.3-1-2.2
			c0-1.1,0.4-2,1.3-2.6s2-0.9,3.5-0.9h1.8v-0.8c0-0.6-0.2-1.1-0.6-1.5s-0.9-0.6-1.7-0.6c-0.6,0-1.2,0.2-1.6,0.5s-0.7,0.7-0.7,1.2
			h-1.8c0-0.5,0.2-1,0.6-1.5s0.9-0.9,1.5-1.2s1.3-0.4,2.1-0.4c1.2,0,2.2,0.3,2.9,0.9s1,1.4,1.1,2.5v4.9c0,1,0.1,1.7,0.4,2.3v0.2
			H464.3z M461.3,913.6c0.6,0,1.1-0.1,1.6-0.4s0.9-0.7,1.1-1.1v-2.2h-1.4c-2.2,0-3.3,0.6-3.3,1.9c0,0.6,0.2,1,0.6,1.3
			S460.7,913.6,461.3,913.6z"/>
		<path class="st2" d="M473.8,906.1c-0.3,0-0.6-0.1-0.9-0.1c-1.2,0-2,0.5-2.4,1.5v7.5h-1.8v-10.6h1.8l0,1.2c0.6-0.9,1.4-1.4,2.5-1.4
			c0.4,0,0.6,0,0.8,0.1V906.1z"/>
		<path class="st2" d="M477.6,911c0-0.8,0.1-1.4,0.3-1.8c0.2-0.4,0.5-0.9,1-1.5l1.3-1.3c0.5-0.6,0.8-1.3,0.8-2
			c0-0.7-0.2-1.2-0.5-1.6s-0.9-0.6-1.6-0.6c-0.7,0-1.2,0.2-1.6,0.5s-0.6,0.8-0.6,1.4h-1.8c0-1.1,0.4-1.9,1.1-2.6s1.7-1,2.9-1
			c1.2,0,2.2,0.3,2.9,1c0.7,0.7,1,1.6,1,2.7c0,1.1-0.5,2.3-1.6,3.4l-1.1,1.1c-0.5,0.5-0.7,1.3-0.7,2.3H477.6z M477.5,914.1
			c0-0.3,0.1-0.5,0.3-0.7s0.4-0.3,0.8-0.3s0.6,0.1,0.8,0.3s0.3,0.4,0.3,0.7s-0.1,0.5-0.3,0.7c-0.2,0.2-0.4,0.3-0.8,0.3
			s-0.6-0.1-0.8-0.3C477.6,914.6,477.5,914.4,477.5,914.1z"/>
	</g>
	<g class="st1">
		<path class="st2" d="M399.7,938.4c0,0.7-0.1,1.2-0.2,1.7s-0.4,0.8-0.7,1.2s-0.8,0.9-1.4,1.5s-0.9,1.3-1,1.9l0,0.4
			c0,0.7,0.2,1.3,0.6,1.6s0.9,0.6,1.6,0.6c0.7,0,1.2-0.2,1.6-0.6s0.6-0.8,0.6-1.4h1.8c0,1-0.4,1.9-1.1,2.6s-1.7,1-2.9,1
			c-1.3,0-2.3-0.3-3-1s-1-1.6-1-2.7c0-1.1,0.5-2.3,1.6-3.4l1.1-1.1c0.4-0.5,0.6-1.2,0.6-2.2H399.7z M399.8,935.3
			c0,0.3-0.1,0.5-0.3,0.7c-0.2,0.2-0.4,0.3-0.8,0.3s-0.6-0.1-0.8-0.3c-0.2-0.2-0.3-0.5-0.3-0.7c0-0.3,0.1-0.5,0.3-0.7
			s0.4-0.3,0.8-0.3s0.6,0.1,0.8,0.3S399.8,935,399.8,935.3z"/>
		<path class="st2" d="M407.5,930.8l4.6,11.6l4.6-11.6h2.4V945h-1.9v-5.5l0.2-6l-4.7,11.5h-1.4l-4.7-11.5l0.2,5.9v5.5h-1.9v-14.2
			H407.5z"/>
		<path class="st2" d="M421.8,939.6c0-1,0.2-2,0.6-2.8s1-1.5,1.7-1.9s1.6-0.7,2.5-0.7c1.4,0,2.6,0.5,3.5,1.5s1.3,2.3,1.3,4v0.1
			c0,1-0.2,2-0.6,2.8s-1,1.5-1.7,1.9s-1.6,0.7-2.5,0.7c-1.4,0-2.6-0.5-3.5-1.5s-1.3-2.3-1.3-4V939.6z M423.6,939.8
			c0,1.2,0.3,2.1,0.8,2.8s1.3,1.1,2.2,1.1c0.9,0,1.6-0.4,2.2-1.1s0.8-1.7,0.8-3c0-1.2-0.3-2.1-0.8-2.8s-1.3-1.1-2.2-1.1
			c-0.9,0-1.6,0.4-2.2,1.1S423.6,938.5,423.6,939.8z"/>
		<path class="st2" d="M433.3,939.6c0-1.6,0.4-2.9,1.2-3.9s1.8-1.5,3-1.5c1.2,0,2.2,0.4,2.9,1.3V930h1.8v15h-1.7l-0.1-1.1
			c-0.7,0.9-1.7,1.3-3,1.3c-1.2,0-2.2-0.5-3-1.5s-1.2-2.3-1.2-3.9V939.6z M435.1,939.8c0,1.2,0.2,2.1,0.7,2.8s1.2,1,2.1,1
			c1.1,0,2-0.5,2.5-1.5v-4.9c-0.5-1-1.4-1.5-2.5-1.5c-0.9,0-1.6,0.3-2.1,1S435.1,938.5,435.1,939.8z"/>
		<path class="st2" d="M445,931.6c0-0.3,0.1-0.5,0.3-0.7s0.4-0.3,0.8-0.3s0.6,0.1,0.8,0.3s0.3,0.4,0.3,0.7s-0.1,0.5-0.3,0.7
			s-0.4,0.3-0.8,0.3s-0.6-0.1-0.8-0.3S445,931.9,445,931.6z M446.9,945h-1.8v-10.6h1.8V945z"/>
		<path class="st2" d="M450.7,945v-9.2H449v-1.4h1.7v-1.1c0-1.1,0.3-2,0.9-2.6s1.5-0.9,2.6-0.9c0.4,0,0.8,0.1,1.2,0.2l-0.1,1.5
			c-0.3-0.1-0.6-0.1-1-0.1c-0.6,0-1,0.2-1.4,0.5s-0.5,0.8-0.5,1.5v1.1h2.3v1.4h-2.3v9.2H450.7z"/>
		<path class="st2" d="M456.8,931.6c0-0.3,0.1-0.5,0.3-0.7s0.4-0.3,0.8-0.3s0.6,0.1,0.8,0.3s0.3,0.4,0.3,0.7s-0.1,0.5-0.3,0.7
			s-0.4,0.3-0.8,0.3s-0.6-0.1-0.8-0.3S456.8,931.9,456.8,931.6z M458.7,945h-1.8v-10.6h1.8V945z"/>
		<path class="st2" d="M465.9,943.7c0.6,0,1.2-0.2,1.7-0.6s0.7-0.9,0.8-1.5h1.7c0,0.6-0.2,1.2-0.6,1.7s-0.9,1-1.5,1.3
			s-1.3,0.5-2,0.5c-1.4,0-2.6-0.5-3.4-1.4s-1.3-2.3-1.3-3.9v-0.3c0-1,0.2-1.9,0.6-2.7s0.9-1.4,1.6-1.9s1.5-0.7,2.5-0.7
			c1.2,0,2.2,0.4,3,1.1s1.2,1.6,1.3,2.8h-1.7c-0.1-0.7-0.3-1.2-0.8-1.7s-1-0.7-1.7-0.7c-0.9,0-1.6,0.3-2.1,1s-0.8,1.6-0.8,2.9v0.3
			c0,1.2,0.3,2.2,0.8,2.8S464.9,943.7,465.9,943.7z"/>
		<path class="st2" d="M478.6,945c-0.1-0.2-0.2-0.6-0.3-1.1c-0.8,0.9-1.8,1.3-3,1.3c-1,0-1.9-0.3-2.6-0.9s-1-1.3-1-2.2
			c0-1.1,0.4-2,1.3-2.6s2-0.9,3.5-0.9h1.8v-0.8c0-0.6-0.2-1.1-0.6-1.5s-0.9-0.6-1.7-0.6c-0.6,0-1.2,0.2-1.6,0.5s-0.7,0.7-0.7,1.2
			H472c0-0.5,0.2-1,0.6-1.5s0.9-0.9,1.5-1.2s1.3-0.4,2.1-0.4c1.2,0,2.2,0.3,2.9,0.9s1,1.4,1.1,2.5v4.9c0,1,0.1,1.7,0.4,2.3v0.2
			H478.6z M475.6,943.6c0.6,0,1.1-0.1,1.6-0.4s0.9-0.7,1.1-1.1v-2.2h-1.4c-2.2,0-3.3,0.6-3.3,1.9c0,0.6,0.2,1,0.6,1.3
			S475,943.6,475.6,943.6z"/>
		<path class="st2" d="M488.1,936.1c-0.3,0-0.6-0.1-0.9-0.1c-1.2,0-2,0.5-2.4,1.5v7.5H483v-10.6h1.8l0,1.2c0.6-0.9,1.4-1.4,2.5-1.4
			c0.4,0,0.6,0,0.8,0.1V936.1z"/>
		<path class="st2" d="M491.9,941c0-0.8,0.1-1.4,0.3-1.8c0.2-0.4,0.5-0.9,1-1.5l1.3-1.3c0.5-0.6,0.8-1.3,0.8-2
			c0-0.7-0.2-1.2-0.5-1.6s-0.9-0.6-1.6-0.6c-0.7,0-1.2,0.2-1.6,0.5s-0.6,0.8-0.6,1.4h-1.8c0-1.1,0.4-1.9,1.1-2.6s1.7-1,2.9-1
			c1.2,0,2.2,0.3,2.9,1c0.7,0.7,1,1.6,1,2.7c0,1.1-0.5,2.3-1.6,3.4l-1.1,1.1c-0.5,0.5-0.7,1.3-0.7,2.3H491.9z M491.8,944.1
			c0-0.3,0.1-0.5,0.3-0.7s0.4-0.3,0.8-0.3s0.6,0.1,0.8,0.3s0.3,0.4,0.3,0.7s-0.1,0.5-0.3,0.7c-0.2,0.2-0.4,0.3-0.8,0.3
			s-0.6-0.1-0.8-0.3C491.9,944.6,491.8,944.4,491.8,944.1z"/>
	</g>
	<g class="st1">
		<path class="st2" d="M399.7,968.4c0,0.7-0.1,1.2-0.2,1.7s-0.4,0.8-0.7,1.2s-0.8,0.9-1.4,1.5s-0.9,1.3-1,1.9l0,0.4
			c0,0.7,0.2,1.3,0.6,1.6s0.9,0.6,1.6,0.6c0.7,0,1.2-0.2,1.6-0.6s0.6-0.8,0.6-1.4h1.8c0,1-0.4,1.9-1.1,2.6s-1.7,1-2.9,1
			c-1.3,0-2.3-0.3-3-1s-1-1.6-1-2.7c0-1.1,0.5-2.3,1.6-3.4l1.1-1.1c0.4-0.5,0.6-1.2,0.6-2.2H399.7z M399.8,965.3
			c0,0.3-0.1,0.5-0.3,0.7c-0.2,0.2-0.4,0.3-0.8,0.3s-0.6-0.1-0.8-0.3c-0.2-0.2-0.3-0.5-0.3-0.7c0-0.3,0.1-0.5,0.3-0.7
			s0.4-0.3,0.8-0.3s0.6,0.1,0.8,0.3S399.8,965,399.8,965.3z"/>
		<path class="st2" d="M415.1,960.8v9.7c0,1.3-0.4,2.4-1.3,3.3s-2,1.3-3.4,1.4l-0.5,0c-1.6,0-2.8-0.4-3.7-1.3s-1.4-2-1.4-3.5v-9.7
			h1.9v9.6c0,1,0.3,1.8,0.8,2.4s1.4,0.9,2.4,0.9c1.1,0,1.9-0.3,2.4-0.8s0.8-1.4,0.8-2.4v-9.6H415.1z"/>
		<path class="st2" d="M420.2,961.9v2.6h2v1.4h-2v6.6c0,0.4,0.1,0.7,0.3,1s0.5,0.3,0.9,0.3c0.2,0,0.5,0,0.9-0.1v1.5
			c-0.5,0.1-0.9,0.2-1.4,0.2c-0.8,0-1.4-0.2-1.8-0.7s-0.6-1.2-0.6-2.1v-6.6h-1.9v-1.4h1.9v-2.6H420.2z"/>
		<path class="st2" d="M424.3,961.6c0-0.3,0.1-0.5,0.3-0.7s0.4-0.3,0.8-0.3s0.6,0.1,0.8,0.3s0.3,0.4,0.3,0.7s-0.1,0.5-0.3,0.7
			s-0.4,0.3-0.8,0.3s-0.6-0.1-0.8-0.3S424.3,961.9,424.3,961.6z M426.3,975h-1.8v-10.6h1.8V975z"/>
		<path class="st2" d="M431.1,975h-1.8v-15h1.8V975z"/>
		<path class="st2" d="M434,961.6c0-0.3,0.1-0.5,0.3-0.7s0.4-0.3,0.8-0.3s0.6,0.1,0.8,0.3s0.3,0.4,0.3,0.7s-0.1,0.5-0.3,0.7
			s-0.4,0.3-0.8,0.3s-0.6-0.1-0.8-0.3S434,961.9,434,961.6z M436,975h-1.8v-10.6h1.8V975z"/>
		<path class="st2" d="M440.6,973.5h6.2v1.5h-8.4v-1.3l5.8-7.7h-5.7v-1.5h8v1.3L440.6,973.5z"/>
		<path class="st2" d="M455.3,975c-0.1-0.2-0.2-0.6-0.3-1.1c-0.8,0.9-1.8,1.3-3,1.3c-1,0-1.9-0.3-2.6-0.9s-1-1.3-1-2.2
			c0-1.1,0.4-2,1.3-2.6s2-0.9,3.5-0.9h1.8v-0.8c0-0.6-0.2-1.1-0.6-1.5s-0.9-0.6-1.7-0.6c-0.6,0-1.2,0.2-1.6,0.5s-0.7,0.7-0.7,1.2
			h-1.8c0-0.5,0.2-1,0.6-1.5s0.9-0.9,1.5-1.2s1.3-0.4,2.1-0.4c1.2,0,2.2,0.3,2.9,0.9s1,1.4,1.1,2.5v4.9c0,1,0.1,1.7,0.4,2.3v0.2
			H455.3z M452.3,973.6c0.6,0,1.1-0.1,1.6-0.4s0.9-0.7,1.1-1.1v-2.2h-1.4c-2.2,0-3.3,0.6-3.3,1.9c0,0.6,0.2,1,0.6,1.3
			S451.7,973.6,452.3,973.6z"/>
		<path class="st2" d="M464.8,966.1c-0.3,0-0.6-0.1-0.9-0.1c-1.2,0-2,0.5-2.4,1.5v7.5h-1.8v-10.6h1.8l0,1.2c0.6-0.9,1.4-1.4,2.5-1.4
			c0.4,0,0.6,0,0.8,0.1V966.1z"/>
		<path class="st2" d="M468.4,975h-1.8v-15h1.8V975z"/>
		<path class="st2" d="M470.8,969.6c0-1,0.2-2,0.6-2.8s1-1.5,1.7-1.9s1.6-0.7,2.5-0.7c1.4,0,2.6,0.5,3.5,1.5s1.3,2.3,1.3,4v0.1
			c0,1-0.2,2-0.6,2.8s-1,1.5-1.7,1.9s-1.6,0.7-2.5,0.7c-1.4,0-2.6-0.5-3.5-1.5s-1.3-2.3-1.3-4V969.6z M472.6,969.8
			c0,1.2,0.3,2.1,0.8,2.8s1.3,1.1,2.2,1.1c0.9,0,1.6-0.4,2.2-1.1s0.8-1.7,0.8-3c0-1.2-0.3-2.1-0.8-2.8s-1.3-1.1-2.2-1.1
			c-0.9,0-1.6,0.4-2.2,1.1S472.6,968.5,472.6,969.8z"/>
		<path class="st2" d="M496.6,969.8c0,1.6-0.4,2.9-1.1,3.9s-1.7,1.5-3,1.5c-1.3,0-2.3-0.4-3-1.2v5.1h-1.8v-14.6h1.7l0.1,1.2
			c0.7-0.9,1.8-1.4,3.1-1.4c1.3,0,2.3,0.5,3,1.4s1.1,2.3,1.1,4V969.8z M494.8,969.6c0-1.2-0.3-2.1-0.8-2.8s-1.2-1-2.1-1
			c-1.1,0-1.9,0.5-2.5,1.5v5c0.5,1,1.4,1.4,2.5,1.4c0.9,0,1.6-0.3,2.1-1S494.8,971,494.8,969.6z"/>
		<path class="st2" d="M505.4,975c-0.1-0.2-0.2-0.6-0.3-1.1c-0.8,0.9-1.8,1.3-3,1.3c-1,0-1.9-0.3-2.6-0.9s-1-1.3-1-2.2
			c0-1.1,0.4-2,1.3-2.6s2-0.9,3.5-0.9h1.8v-0.8c0-0.6-0.2-1.1-0.6-1.5s-0.9-0.6-1.7-0.6c-0.6,0-1.2,0.2-1.6,0.5s-0.7,0.7-0.7,1.2
			h-1.8c0-0.5,0.2-1,0.6-1.5s0.9-0.9,1.5-1.2s1.3-0.4,2.1-0.4c1.2,0,2.2,0.3,2.9,0.9s1,1.4,1.1,2.5v4.9c0,1,0.1,1.7,0.4,2.3v0.2
			H505.4z M502.4,973.6c0.6,0,1.1-0.1,1.6-0.4s0.9-0.7,1.1-1.1v-2.2h-1.4c-2.2,0-3.3,0.6-3.3,1.9c0,0.6,0.2,1,0.6,1.3
			S501.8,973.6,502.4,973.6z"/>
		<path class="st2" d="M514.9,966.1c-0.3,0-0.6-0.1-0.9-0.1c-1.2,0-2,0.5-2.4,1.5v7.5h-1.8v-10.6h1.8l0,1.2c0.6-0.9,1.4-1.4,2.5-1.4
			c0.4,0,0.6,0,0.8,0.1V966.1z"/>
		<path class="st2" d="M522.7,975c-0.1-0.2-0.2-0.6-0.3-1.1c-0.8,0.9-1.8,1.3-3,1.3c-1,0-1.9-0.3-2.6-0.9s-1-1.3-1-2.2
			c0-1.1,0.4-2,1.3-2.6s2-0.9,3.5-0.9h1.8v-0.8c0-0.6-0.2-1.1-0.6-1.5s-0.9-0.6-1.7-0.6c-0.6,0-1.2,0.2-1.6,0.5s-0.7,0.7-0.7,1.2
			h-1.8c0-0.5,0.2-1,0.6-1.5s0.9-0.9,1.5-1.2s1.3-0.4,2.1-0.4c1.2,0,2.2,0.3,2.9,0.9s1,1.4,1.1,2.5v4.9c0,1,0.1,1.7,0.4,2.3v0.2
			H522.7z M519.7,973.6c0.6,0,1.1-0.1,1.6-0.4s0.9-0.7,1.1-1.1v-2.2H521c-2.2,0-3.3,0.6-3.3,1.9c0,0.6,0.2,1,0.6,1.3
			S519.1,973.6,519.7,973.6z"/>
		<path class="st2" d="M531.5,969.6c0-1,0.2-2,0.6-2.8s1-1.5,1.7-1.9s1.6-0.7,2.5-0.7c1.4,0,2.6,0.5,3.5,1.5s1.3,2.3,1.3,4v0.1
			c0,1-0.2,2-0.6,2.8s-1,1.5-1.7,1.9s-1.6,0.7-2.5,0.7c-1.4,0-2.6-0.5-3.5-1.5s-1.3-2.3-1.3-4V969.6z M533.3,969.8
			c0,1.2,0.3,2.1,0.8,2.8s1.3,1.1,2.2,1.1c0.9,0,1.6-0.4,2.2-1.1s0.8-1.7,0.8-3c0-1.2-0.3-2.1-0.8-2.8s-1.3-1.1-2.2-1.1
			c-0.9,0-1.6,0.4-2.2,1.1S533.3,968.5,533.3,969.8z"/>
		<path class="st2" d="M545.8,961.9v2.6h2v1.4h-2v6.6c0,0.4,0.1,0.7,0.3,1s0.5,0.3,0.9,0.3c0.2,0,0.5,0,0.9-0.1v1.5
			c-0.5,0.1-0.9,0.2-1.4,0.2c-0.8,0-1.4-0.2-1.8-0.7s-0.6-1.2-0.6-2.1v-6.6h-1.9v-1.4h1.9v-2.6H545.8z"/>
		<path class="st2" d="M555,966.1c-0.3,0-0.6-0.1-0.9-0.1c-1.2,0-2,0.5-2.4,1.5v7.5h-1.8v-10.6h1.8l0,1.2c0.6-0.9,1.4-1.4,2.5-1.4
			c0.4,0,0.6,0,0.8,0.1V966.1z"/>
		<path class="st2" d="M556,969.6c0-1,0.2-2,0.6-2.8s1-1.5,1.7-1.9s1.6-0.7,2.5-0.7c1.4,0,2.6,0.5,3.5,1.5s1.3,2.3,1.3,4v0.1
			c0,1-0.2,2-0.6,2.8s-1,1.5-1.7,1.9s-1.6,0.7-2.5,0.7c-1.4,0-2.6-0.5-3.5-1.5s-1.3-2.3-1.3-4V969.6z M557.8,969.8
			c0,1.2,0.3,2.1,0.8,2.8s1.3,1.1,2.2,1.1c0.9,0,1.6-0.4,2.2-1.1s0.8-1.7,0.8-3c0-1.2-0.3-2.1-0.8-2.8s-1.3-1.1-2.2-1.1
			c-0.9,0-1.6,0.4-2.2,1.1S557.8,968.5,557.8,969.8z"/>
		<path class="st2" d="M574,972.2c0-0.5-0.2-0.9-0.6-1.1s-1-0.5-1.9-0.7s-1.6-0.4-2.2-0.7s-0.9-0.6-1.2-1s-0.4-0.8-0.4-1.3
			c0-0.9,0.4-1.6,1.1-2.2s1.7-0.9,2.8-0.9c1.2,0,2.2,0.3,2.9,0.9s1.1,1.4,1.1,2.4h-1.8c0-0.5-0.2-0.9-0.6-1.3s-0.9-0.5-1.6-0.5
			c-0.7,0-1.2,0.1-1.5,0.4s-0.6,0.7-0.6,1.1c0,0.4,0.2,0.8,0.5,1s1,0.4,1.9,0.6s1.6,0.4,2.2,0.7s1,0.6,1.2,1s0.4,0.9,0.4,1.4
			c0,0.9-0.4,1.7-1.1,2.3s-1.7,0.9-2.9,0.9c-0.8,0-1.6-0.1-2.2-0.4s-1.2-0.7-1.5-1.3s-0.6-1.1-0.6-1.7h1.8c0,0.6,0.3,1.1,0.7,1.4
			s1,0.5,1.8,0.5c0.7,0,1.2-0.1,1.6-0.4S574,972.7,574,972.2z"/>
		<path class="st2" d="M589.7,974c-0.7,0.8-1.7,1.2-3.1,1.2c-1.1,0-2-0.3-2.6-1s-0.9-1.6-0.9-2.9v-6.9h1.8v6.8c0,1.6,0.7,2.4,2,2.4
			c1.4,0,2.3-0.5,2.8-1.5v-7.7h1.8V975h-1.7L589.7,974z"/>
		<path class="st2" d="M600.3,972.2c0-0.5-0.2-0.9-0.6-1.1s-1-0.5-1.9-0.7s-1.6-0.4-2.2-0.7s-0.9-0.6-1.2-1s-0.4-0.8-0.4-1.3
			c0-0.9,0.4-1.6,1.1-2.2s1.7-0.9,2.8-0.9c1.2,0,2.2,0.3,2.9,0.9s1.1,1.4,1.1,2.4h-1.8c0-0.5-0.2-0.9-0.6-1.3s-0.9-0.5-1.6-0.5
			c-0.7,0-1.2,0.1-1.5,0.4s-0.6,0.7-0.6,1.1c0,0.4,0.2,0.8,0.5,1s1,0.4,1.9,0.6s1.6,0.4,2.2,0.7s1,0.6,1.2,1s0.4,0.9,0.4,1.4
			c0,0.9-0.4,1.7-1.1,2.3s-1.7,0.9-2.9,0.9c-0.8,0-1.6-0.1-2.2-0.4s-1.2-0.7-1.5-1.3s-0.6-1.1-0.6-1.7h1.8c0,0.6,0.3,1.1,0.7,1.4
			s1,0.5,1.8,0.5c0.7,0,1.2-0.1,1.6-0.4S600.3,972.7,600.3,972.2z"/>
		<path class="st2" d="M604,969.6c0-1,0.2-2,0.6-2.8s1-1.5,1.7-1.9s1.6-0.7,2.5-0.7c1.4,0,2.6,0.5,3.5,1.5s1.3,2.3,1.3,4v0.1
			c0,1-0.2,2-0.6,2.8s-1,1.5-1.7,1.9s-1.6,0.7-2.5,0.7c-1.4,0-2.6-0.5-3.5-1.5s-1.3-2.3-1.3-4V969.6z M605.8,969.8
			c0,1.2,0.3,2.1,0.8,2.8s1.3,1.1,2.2,1.1c0.9,0,1.6-0.4,2.2-1.1s0.8-1.7,0.8-3c0-1.2-0.3-2.1-0.8-2.8s-1.3-1.1-2.2-1.1
			c-0.9,0-1.6,0.4-2.2,1.1S605.8,968.5,605.8,969.8z"/>
		<path class="st2" d="M622,972.2c0-0.5-0.2-0.9-0.6-1.1s-1-0.5-1.9-0.7s-1.6-0.4-2.2-0.7s-0.9-0.6-1.2-1s-0.4-0.8-0.4-1.3
			c0-0.9,0.4-1.6,1.1-2.2s1.7-0.9,2.8-0.9c1.2,0,2.2,0.3,2.9,0.9s1.1,1.4,1.1,2.4h-1.8c0-0.5-0.2-0.9-0.6-1.3s-0.9-0.5-1.6-0.5
			c-0.7,0-1.2,0.1-1.5,0.4s-0.6,0.7-0.6,1.1c0,0.4,0.2,0.8,0.5,1s1,0.4,1.9,0.6s1.6,0.4,2.2,0.7s1,0.6,1.2,1s0.4,0.9,0.4,1.4
			c0,0.9-0.4,1.7-1.1,2.3s-1.7,0.9-2.9,0.9c-0.8,0-1.6-0.1-2.2-0.4s-1.2-0.7-1.5-1.3s-0.6-1.1-0.6-1.7h1.8c0,0.6,0.3,1.1,0.7,1.4
			s1,0.5,1.8,0.5c0.7,0,1.2-0.1,1.6-0.4S622,972.7,622,972.2z"/>
		<path class="st2" d="M628.3,971c0-0.8,0.1-1.4,0.3-1.8c0.2-0.4,0.5-0.9,1-1.5l1.3-1.3c0.5-0.6,0.8-1.3,0.8-2
			c0-0.7-0.2-1.2-0.5-1.6s-0.9-0.6-1.6-0.6c-0.7,0-1.2,0.2-1.6,0.5s-0.6,0.8-0.6,1.4h-1.8c0-1.1,0.4-1.9,1.1-2.6s1.7-1,2.9-1
			c1.2,0,2.2,0.3,2.9,1c0.7,0.7,1,1.6,1,2.7c0,1.1-0.5,2.3-1.6,3.4l-1.1,1.1c-0.5,0.5-0.7,1.3-0.7,2.3H628.3z M628.2,974.1
			c0-0.3,0.1-0.5,0.3-0.7s0.4-0.3,0.8-0.3s0.6,0.1,0.8,0.3s0.3,0.4,0.3,0.7s-0.1,0.5-0.3,0.7c-0.2,0.2-0.4,0.3-0.8,0.3
			s-0.6-0.1-0.8-0.3C628.3,974.6,628.2,974.4,628.2,974.1z"/>
	</g>
	<g class="st1">
		<path class="st2" d="M399.7,998.4c0,0.7-0.1,1.2-0.2,1.7s-0.4,0.8-0.7,1.2s-0.8,0.9-1.4,1.5s-0.9,1.3-1,1.9l0,0.4
			c0,0.7,0.2,1.3,0.6,1.6s0.9,0.6,1.6,0.6c0.7,0,1.2-0.2,1.6-0.6s0.6-0.8,0.6-1.4h1.8c0,1-0.4,1.9-1.1,2.6s-1.7,1-2.9,1
			c-1.3,0-2.3-0.3-3-1s-1-1.6-1-2.7c0-1.1,0.5-2.3,1.6-3.4l1.1-1.1c0.4-0.5,0.6-1.2,0.6-2.2H399.7z M399.8,995.3
			c0,0.3-0.1,0.5-0.3,0.7c-0.2,0.2-0.4,0.3-0.8,0.3s-0.6-0.1-0.8-0.3c-0.2-0.2-0.3-0.5-0.3-0.7c0-0.3,0.1-0.5,0.3-0.7
			s0.4-0.3,0.8-0.3s0.6,0.1,0.8,0.3S399.8,995,399.8,995.3z"/>
		<path class="st2" d="M413.2,998.4H407v5h7.2v1.5h-9v-14.2h8.9v1.5H407v4.6h6.2V998.4z"/>
		<path class="st2" d="M418.2,1005h-1.8v-15h1.8V1005z"/>
		<path class="st2" d="M421.1,991.6c0-0.3,0.1-0.5,0.3-0.7s0.4-0.3,0.8-0.3s0.6,0.1,0.8,0.3s0.3,0.4,0.3,0.7s-0.1,0.5-0.3,0.7
			s-0.4,0.3-0.8,0.3s-0.6-0.1-0.8-0.3S421.1,991.9,421.1,991.6z M423,1005h-1.8v-10.6h1.8V1005z"/>
		<path class="st2" d="M427.6,994.4l0,1.2c0.8-0.9,1.8-1.4,3.1-1.4c1.5,0,2.5,0.6,3,1.7c0.4-0.5,0.8-0.9,1.4-1.2s1.2-0.5,2-0.5
			c2.3,0,3.5,1.2,3.5,3.7v7.1h-1.8v-7c0-0.8-0.2-1.3-0.5-1.7s-0.9-0.6-1.7-0.6c-0.7,0-1.2,0.2-1.7,0.6s-0.7,0.9-0.8,1.6v7h-1.8v-6.9
			c0-1.5-0.8-2.3-2.3-2.3c-1.2,0-2,0.5-2.4,1.5v7.7h-1.8v-10.6H427.6z"/>
		<path class="st2" d="M443.4,991.6c0-0.3,0.1-0.5,0.3-0.7s0.4-0.3,0.8-0.3s0.6,0.1,0.8,0.3s0.3,0.4,0.3,0.7s-0.1,0.5-0.3,0.7
			s-0.4,0.3-0.8,0.3s-0.6-0.1-0.8-0.3S443.4,991.9,443.4,991.6z M445.4,1005h-1.8v-10.6h1.8V1005z"/>
		<path class="st2" d="M450,994.4l0.1,1.3c0.8-1,1.9-1.5,3.2-1.5c2.2,0,3.4,1.3,3.4,3.8v7h-1.8v-7c0-0.8-0.2-1.3-0.5-1.7
			s-0.9-0.5-1.6-0.5c-0.6,0-1.1,0.2-1.5,0.5s-0.8,0.7-1,1.2v7.5h-1.8v-10.6H450z"/>
		<path class="st2" d="M465.8,1005c-0.1-0.2-0.2-0.6-0.3-1.1c-0.8,0.9-1.8,1.3-3,1.3c-1,0-1.9-0.3-2.6-0.9s-1-1.3-1-2.2
			c0-1.1,0.4-2,1.3-2.6s2-0.9,3.5-0.9h1.8v-0.8c0-0.6-0.2-1.1-0.6-1.5s-0.9-0.6-1.7-0.6c-0.6,0-1.2,0.2-1.6,0.5s-0.7,0.7-0.7,1.2
			h-1.8c0-0.5,0.2-1,0.6-1.5s0.9-0.9,1.5-1.2s1.3-0.4,2.1-0.4c1.2,0,2.2,0.3,2.9,0.9s1,1.4,1.1,2.5v4.9c0,1,0.1,1.7,0.4,2.3v0.2
			H465.8z M462.8,1003.6c0.6,0,1.1-0.1,1.6-0.4s0.9-0.7,1.1-1.1v-2.2h-1.4c-2.2,0-3.3,0.6-3.3,1.9c0,0.6,0.2,1,0.6,1.3
			S462.3,1003.6,462.8,1003.6z"/>
		<path class="st2" d="M475.3,996.1c-0.3,0-0.6-0.1-0.9-0.1c-1.2,0-2,0.5-2.4,1.5v7.5h-1.8v-10.6h1.8l0,1.2c0.6-0.9,1.4-1.4,2.5-1.4
			c0.4,0,0.6,0,0.8,0.1V996.1z"/>
		<path class="st2" d="M481.4,999.6c0-1,0.2-2,0.6-2.8s1-1.5,1.7-1.9s1.6-0.7,2.5-0.7c1.4,0,2.6,0.5,3.5,1.5s1.3,2.3,1.3,4v0.1
			c0,1-0.2,2-0.6,2.8s-1,1.5-1.7,1.9s-1.6,0.7-2.5,0.7c-1.4,0-2.6-0.5-3.5-1.5s-1.3-2.3-1.3-4V999.6z M483.3,999.8
			c0,1.2,0.3,2.1,0.8,2.8s1.3,1.1,2.2,1.1c0.9,0,1.6-0.4,2.2-1.1s0.8-1.7,0.8-3c0-1.2-0.3-2.1-0.8-2.8s-1.3-1.1-2.2-1.1
			c-0.9,0-1.6,0.4-2.2,1.1S483.3,998.5,483.3,999.8z"/>
		<path class="st2" d="M503.4,996.1c-0.3,0-0.6-0.1-0.9-0.1c-1.2,0-2,0.5-2.4,1.5v7.5h-1.8v-10.6h1.8l0,1.2c0.6-0.9,1.4-1.4,2.5-1.4
			c0.4,0,0.6,0,0.8,0.1V996.1z"/>
		<path class="st2" d="M509.4,1005.2c-1.4,0-2.6-0.5-3.5-1.4s-1.3-2.2-1.3-3.8v-0.3c0-1,0.2-2,0.6-2.8s1-1.5,1.7-1.9
			s1.5-0.7,2.3-0.7c1.4,0,2.4,0.5,3.2,1.4s1.1,2.2,1.1,3.9v0.8h-7.2c0,1,0.3,1.9,0.9,2.5s1.3,1,2.2,1c0.6,0,1.2-0.1,1.6-0.4
			s0.8-0.6,1.2-1l1.1,0.9C512.5,1004.5,511.2,1005.2,509.4,1005.2z M509.2,995.7c-0.7,0-1.3,0.3-1.8,0.8s-0.8,1.3-0.9,2.2h5.3v-0.1
			c-0.1-0.9-0.3-1.6-0.7-2.1S510,995.7,509.2,995.7z"/>
		<path class="st2" d="M515.2,999.6c0-1.6,0.4-2.9,1.2-3.9s1.8-1.5,3-1.5c1.2,0,2.2,0.4,2.9,1.3V990h1.8v15h-1.7l-0.1-1.1
			c-0.7,0.9-1.7,1.3-3,1.3c-1.2,0-2.2-0.5-3-1.5s-1.2-2.3-1.2-3.9V999.6z M517,999.8c0,1.2,0.2,2.1,0.7,2.8s1.2,1,2.1,1
			c1.1,0,2-0.5,2.5-1.5v-4.9c-0.5-1-1.4-1.5-2.5-1.5c-0.9,0-1.6,0.3-2.1,1S517,998.5,517,999.8z"/>
		<path class="st2" d="M533.4,1004c-0.7,0.8-1.7,1.2-3.1,1.2c-1.1,0-2-0.3-2.6-1s-0.9-1.6-0.9-2.9v-6.9h1.8v6.8c0,1.6,0.7,2.4,2,2.4
			c1.4,0,2.3-0.5,2.8-1.5v-7.7h1.8v10.6h-1.7L533.4,1004z"/>
		<path class="st2" d="M542.2,1003.7c0.6,0,1.2-0.2,1.7-0.6s0.7-0.9,0.8-1.5h1.7c0,0.6-0.2,1.2-0.6,1.7s-0.9,1-1.5,1.3
			s-1.3,0.5-2,0.5c-1.4,0-2.6-0.5-3.4-1.4s-1.3-2.3-1.3-3.9v-0.3c0-1,0.2-1.9,0.6-2.7s0.9-1.4,1.6-1.9s1.5-0.7,2.5-0.7
			c1.2,0,2.2,0.4,3,1.1s1.2,1.6,1.3,2.8h-1.7c-0.1-0.7-0.3-1.2-0.8-1.7s-1-0.7-1.7-0.7c-0.9,0-1.6,0.3-2.1,1s-0.8,1.6-0.8,2.9v0.3
			c0,1.2,0.3,2.2,0.8,2.8S541.3,1003.7,542.2,1003.7z"/>
		<path class="st2" d="M548.4,991.6c0-0.3,0.1-0.5,0.3-0.7s0.4-0.3,0.8-0.3s0.6,0.1,0.8,0.3s0.3,0.4,0.3,0.7s-0.1,0.5-0.3,0.7
			s-0.4,0.3-0.8,0.3s-0.6-0.1-0.8-0.3S548.4,991.9,548.4,991.6z M550.4,1005h-1.8v-10.6h1.8V1005z"/>
		<path class="st2" d="M558.4,996.1c-0.3,0-0.6-0.1-0.9-0.1c-1.2,0-2,0.5-2.4,1.5v7.5h-1.8v-10.6h1.8l0,1.2c0.6-0.9,1.4-1.4,2.5-1.4
			c0.4,0,0.6,0,0.8,0.1V996.1z"/>
		<path class="st2" d="M571.5,1005c-0.1-0.2-0.2-0.6-0.3-1.1c-0.8,0.9-1.8,1.3-3,1.3c-1,0-1.9-0.3-2.6-0.9s-1-1.3-1-2.2
			c0-1.1,0.4-2,1.3-2.6s2-0.9,3.5-0.9h1.8v-0.8c0-0.6-0.2-1.1-0.6-1.5s-0.9-0.6-1.7-0.6c-0.6,0-1.2,0.2-1.6,0.5s-0.7,0.7-0.7,1.2
			h-1.8c0-0.5,0.2-1,0.6-1.5s0.9-0.9,1.5-1.2s1.3-0.4,2.1-0.4c1.2,0,2.2,0.3,2.9,0.9s1,1.4,1.1,2.5v4.9c0,1,0.1,1.7,0.4,2.3v0.2
			H571.5z M568.5,1003.6c0.6,0,1.1-0.1,1.6-0.4s0.9-0.7,1.1-1.1v-2.2h-1.4c-2.2,0-3.3,0.6-3.3,1.9c0,0.6,0.2,1,0.6,1.3
			S567.9,1003.6,568.5,1003.6z"/>
		<path class="st2" d="M577.8,1005H576v-15h1.8V1005z"/>
		<path class="st2" d="M587.4,994.4l0,1.2c0.8-0.9,1.8-1.4,3.1-1.4c1.5,0,2.5,0.6,3,1.7c0.4-0.5,0.8-0.9,1.4-1.2s1.2-0.5,2-0.5
			c2.3,0,3.5,1.2,3.5,3.7v7.1h-1.8v-7c0-0.8-0.2-1.3-0.5-1.7s-0.9-0.6-1.7-0.6c-0.7,0-1.2,0.2-1.7,0.6s-0.7,0.9-0.8,1.6v7h-1.8v-6.9
			c0-1.5-0.8-2.3-2.3-2.3c-1.2,0-2,0.5-2.4,1.5v7.7h-1.8v-10.6H587.4z"/>
		<path class="st2" d="M605.2,990h2.2l-2.6,2.9l-1.5,0L605.2,990z M605.2,1005h-1.8v-10.6h1.8V1005z"/>
		<path class="st2" d="M609.8,994.4l0.1,1.3c0.8-1,1.9-1.5,3.2-1.5c2.2,0,3.4,1.3,3.4,3.8v7h-1.8v-7c0-0.8-0.2-1.3-0.5-1.7
			s-0.9-0.5-1.6-0.5c-0.6,0-1.1,0.2-1.5,0.5s-0.8,0.7-1,1.2v7.5h-1.8v-10.6H609.8z"/>
		<path class="st2" d="M619.2,991.6c0-0.3,0.1-0.5,0.3-0.7s0.4-0.3,0.8-0.3s0.6,0.1,0.8,0.3s0.3,0.4,0.3,0.7s-0.1,0.5-0.3,0.7
			s-0.4,0.3-0.8,0.3s-0.6-0.1-0.8-0.3S619.2,991.9,619.2,991.6z M621.1,1005h-1.8v-10.6h1.8V1005z"/>
		<path class="st2" d="M625.7,994.4l0,1.2c0.8-0.9,1.8-1.4,3.1-1.4c1.5,0,2.5,0.6,3,1.7c0.4-0.5,0.8-0.9,1.4-1.2s1.2-0.5,2-0.5
			c2.3,0,3.5,1.2,3.5,3.7v7.1H637v-7c0-0.8-0.2-1.3-0.5-1.7s-0.9-0.6-1.7-0.6c-0.7,0-1.2,0.2-1.7,0.6s-0.7,0.9-0.8,1.6v7h-1.8v-6.9
			c0-1.5-0.8-2.3-2.3-2.3c-1.2,0-2,0.5-2.4,1.5v7.7H624v-10.6H625.7z"/>
		<path class="st2" d="M641.1,999.6c0-1,0.2-2,0.6-2.8s1-1.5,1.7-1.9s1.6-0.7,2.5-0.7c1.4,0,2.6,0.5,3.5,1.5s1.3,2.3,1.3,4v0.1
			c0,1-0.2,2-0.6,2.8s-1,1.5-1.7,1.9s-1.6,0.7-2.5,0.7c-1.4,0-2.6-0.5-3.5-1.5s-1.3-2.3-1.3-4V999.6z M642.9,999.8
			c0,1.2,0.3,2.1,0.8,2.8s1.3,1.1,2.2,1.1c0.9,0,1.6-0.4,2.2-1.1s0.8-1.7,0.8-3c0-1.2-0.3-2.1-0.8-2.8s-1.3-1.1-2.2-1.1
			c-0.9,0-1.6,0.4-2.2,1.1S642.9,998.5,642.9,999.8z"/>
		<path class="st2" d="M655.1,1001c0-0.8,0.1-1.4,0.3-1.8c0.2-0.4,0.5-0.9,1-1.5l1.3-1.3c0.5-0.6,0.8-1.3,0.8-2
			c0-0.7-0.2-1.2-0.5-1.6s-0.9-0.6-1.6-0.6c-0.7,0-1.2,0.2-1.6,0.5s-0.6,0.8-0.6,1.4h-1.8c0-1.1,0.4-1.9,1.1-2.6s1.7-1,2.9-1
			c1.2,0,2.2,0.3,2.9,1c0.7,0.7,1,1.6,1,2.7c0,1.1-0.5,2.3-1.6,3.4l-1.1,1.1c-0.5,0.5-0.7,1.3-0.7,2.3H655.1z M655,1004.1
			c0-0.3,0.1-0.5,0.3-0.7s0.4-0.3,0.8-0.3s0.6,0.1,0.8,0.3s0.3,0.4,0.3,0.7s-0.1,0.5-0.3,0.7c-0.2,0.2-0.4,0.3-0.8,0.3
			s-0.6-0.1-0.8-0.3C655.1,1004.6,655,1004.4,655,1004.1z"/>
	</g>
	<g class="st1">
		<path class="st2" d="M399.7,1028.4c0,0.7-0.1,1.2-0.2,1.7s-0.4,0.8-0.7,1.2s-0.8,0.9-1.4,1.5s-0.9,1.3-1,1.9l0,0.4
			c0,0.7,0.2,1.3,0.6,1.6s0.9,0.6,1.6,0.6c0.7,0,1.2-0.2,1.6-0.6s0.6-0.8,0.6-1.4h1.8c0,1-0.4,1.9-1.1,2.6s-1.7,1-2.9,1
			c-1.3,0-2.3-0.3-3-1s-1-1.6-1-2.7c0-1.1,0.5-2.3,1.6-3.4l1.1-1.1c0.4-0.5,0.6-1.2,0.6-2.2H399.7z M399.8,1025.3
			c0,0.3-0.1,0.5-0.3,0.7c-0.2,0.2-0.4,0.3-0.8,0.3s-0.6-0.1-0.8-0.3c-0.2-0.2-0.3-0.5-0.3-0.7c0-0.3,0.1-0.5,0.3-0.7
			s0.4-0.3,0.8-0.3s0.6,0.1,0.8,0.3S399.8,1025,399.8,1025.3z"/>
		<path class="st2" d="M410.3,1029.2H407v5.8h-1.9v-14.2h4.7c1.6,0,2.8,0.4,3.7,1.1s1.3,1.8,1.3,3.2c0,0.9-0.2,1.7-0.7,2.3
			s-1.1,1.1-2,1.5l3.3,6v0.1h-2L410.3,1029.2z M407,1027.7h2.9c0.9,0,1.7-0.2,2.2-0.7s0.8-1.1,0.8-1.9c0-0.9-0.3-1.6-0.8-2
			s-1.3-0.7-2.3-0.7H407V1027.7z"/>
		<path class="st2" d="M421.5,1035.2c-1.4,0-2.6-0.5-3.5-1.4s-1.3-2.2-1.3-3.8v-0.3c0-1,0.2-2,0.6-2.8s1-1.5,1.7-1.9
			s1.5-0.7,2.3-0.7c1.4,0,2.4,0.5,3.2,1.4s1.1,2.2,1.1,3.9v0.8h-7.2c0,1,0.3,1.9,0.9,2.5s1.3,1,2.2,1c0.6,0,1.2-0.1,1.6-0.4
			s0.8-0.6,1.2-1l1.1,0.9C424.6,1034.5,423.3,1035.2,421.5,1035.2z M421.3,1025.7c-0.7,0-1.3,0.3-1.8,0.8s-0.8,1.3-0.9,2.2h5.3v-0.1
			c-0.1-0.9-0.3-1.6-0.7-2.1S422.1,1025.7,421.3,1025.7z"/>
		<path class="st2" d="M427.3,1029.6c0-1,0.2-2,0.6-2.8s1-1.5,1.7-1.9s1.6-0.7,2.5-0.7c1.4,0,2.6,0.5,3.5,1.5s1.3,2.3,1.3,4v0.1
			c0,1-0.2,2-0.6,2.8s-1,1.5-1.7,1.9s-1.6,0.7-2.5,0.7c-1.4,0-2.6-0.5-3.5-1.5s-1.3-2.3-1.3-4V1029.6z M429.1,1029.8
			c0,1.2,0.3,2.1,0.8,2.8s1.3,1.1,2.2,1.1c0.9,0,1.6-0.4,2.2-1.1s0.8-1.7,0.8-3c0-1.2-0.3-2.1-0.8-2.8s-1.3-1.1-2.2-1.1
			c-0.9,0-1.6,0.4-2.2,1.1S429.1,1028.5,429.1,1029.8z"/>
		<path class="st2" d="M444.3,1026.1c-0.3,0-0.6-0.1-0.9-0.1c-1.2,0-2,0.5-2.4,1.5v7.5h-1.8v-10.6h1.8l0,1.2
			c0.6-0.9,1.4-1.4,2.5-1.4c0.4,0,0.6,0,0.8,0.1V1026.1z"/>
		<path class="st2" d="M445.5,1029.6c0-1.6,0.4-2.9,1.2-3.9s1.8-1.5,3-1.5c1.2,0,2.2,0.4,2.9,1.3v-5.5h1.8v15h-1.7l-0.1-1.1
			c-0.7,0.9-1.7,1.3-3,1.3c-1.2,0-2.2-0.5-3-1.5s-1.2-2.3-1.2-3.9V1029.6z M447.3,1029.8c0,1.2,0.2,2.1,0.7,2.8s1.2,1,2.1,1
			c1.1,0,2-0.5,2.5-1.5v-4.9c-0.5-1-1.4-1.5-2.5-1.5c-0.9,0-1.6,0.3-2.1,1S447.3,1028.5,447.3,1029.8z"/>
		<path class="st2" d="M461.6,1035.2c-1.4,0-2.6-0.5-3.5-1.4s-1.3-2.2-1.3-3.8v-0.3c0-1,0.2-2,0.6-2.8s1-1.5,1.7-1.9
			s1.5-0.7,2.3-0.7c1.4,0,2.4,0.5,3.2,1.4s1.1,2.2,1.1,3.9v0.8h-7.2c0,1,0.3,1.9,0.9,2.5s1.3,1,2.2,1c0.6,0,1.2-0.1,1.6-0.4
			s0.8-0.6,1.2-1l1.1,0.9C464.7,1034.5,463.3,1035.2,461.6,1035.2z M461.4,1025.7c-0.7,0-1.3,0.3-1.8,0.8s-0.8,1.3-0.9,2.2h5.3v-0.1
			c-0.1-0.9-0.3-1.6-0.7-2.1S462.1,1025.7,461.4,1025.7z"/>
		<path class="st2" d="M469.5,1024.4l0.1,1.3c0.8-1,1.9-1.5,3.2-1.5c2.2,0,3.4,1.3,3.4,3.8v7h-1.8v-7c0-0.8-0.2-1.3-0.5-1.7
			s-0.9-0.5-1.6-0.5c-0.6,0-1.1,0.2-1.5,0.5s-0.8,0.7-1,1.2v7.5h-1.8v-10.6H469.5z"/>
		<path class="st2" d="M485.3,1035c-0.1-0.2-0.2-0.6-0.3-1.1c-0.8,0.9-1.8,1.3-3,1.3c-1,0-1.9-0.3-2.6-0.9s-1-1.3-1-2.2
			c0-1.1,0.4-2,1.3-2.6s2-0.9,3.5-0.9h1.8v-0.8c0-0.6-0.2-1.1-0.6-1.5s-0.9-0.6-1.7-0.6c-0.6,0-1.2,0.2-1.6,0.5s-0.7,0.7-0.7,1.2
			h-1.8c0-0.5,0.2-1,0.6-1.5s0.9-0.9,1.5-1.2s1.3-0.4,2.1-0.4c1.2,0,2.2,0.3,2.9,0.9s1,1.4,1.1,2.5v4.9c0,1,0.1,1.7,0.4,2.3v0.2
			H485.3z M482.3,1033.6c0.6,0,1.1-0.1,1.6-0.4s0.9-0.7,1.1-1.1v-2.2h-1.4c-2.2,0-3.3,0.6-3.3,1.9c0,0.6,0.2,1,0.6,1.3
			S481.8,1033.6,482.3,1033.6z"/>
		<path class="st2" d="M494.8,1026.1c-0.3,0-0.6-0.1-0.9-0.1c-1.2,0-2,0.5-2.4,1.5v7.5h-1.8v-10.6h1.8l0,1.2
			c0.6-0.9,1.4-1.4,2.5-1.4c0.4,0,0.6,0,0.8,0.1V1026.1z"/>
		<path class="st2" d="M498.6,1031c0-0.8,0.1-1.4,0.3-1.8c0.2-0.4,0.5-0.9,1-1.5l1.3-1.3c0.5-0.6,0.8-1.3,0.8-2
			c0-0.7-0.2-1.2-0.5-1.6s-0.9-0.6-1.6-0.6c-0.7,0-1.2,0.2-1.6,0.5s-0.6,0.8-0.6,1.4h-1.8c0-1.1,0.4-1.9,1.1-2.6s1.7-1,2.9-1
			c1.2,0,2.2,0.3,2.9,1c0.7,0.7,1,1.6,1,2.7c0,1.1-0.5,2.3-1.6,3.4l-1.1,1.1c-0.5,0.5-0.7,1.3-0.7,2.3H498.6z M498.5,1034.1
			c0-0.3,0.1-0.5,0.3-0.7s0.4-0.3,0.8-0.3s0.6,0.1,0.8,0.3s0.3,0.4,0.3,0.7s-0.1,0.5-0.3,0.7c-0.2,0.2-0.4,0.3-0.8,0.3
			s-0.6-0.1-0.8-0.3C498.6,1034.6,498.5,1034.4,498.5,1034.1z"/>
		<path class="st2" d="M519.1,1027.1H511v-1.6h8.1V1027.1z M519.1,1031.1H511v-1.6h8.1V1031.1z"/>
		<path class="st2" d="M531.2,1028.4c0,0.7-0.1,1.2-0.2,1.7s-0.4,0.8-0.7,1.2s-0.8,0.9-1.4,1.5s-0.9,1.3-1,1.9l0,0.4
			c0,0.7,0.2,1.3,0.6,1.6s0.9,0.6,1.6,0.6c0.7,0,1.2-0.2,1.6-0.6s0.6-0.8,0.6-1.4h1.8c0,1-0.4,1.9-1.1,2.6s-1.7,1-2.9,1
			c-1.3,0-2.3-0.3-3-1s-1-1.6-1-2.7c0-1.1,0.5-2.3,1.6-3.4l1.1-1.1c0.4-0.5,0.6-1.2,0.6-2.2H531.2z M531.2,1025.3
			c0,0.3-0.1,0.5-0.3,0.7c-0.2,0.2-0.4,0.3-0.8,0.3s-0.6-0.1-0.8-0.3c-0.2-0.2-0.3-0.5-0.3-0.7c0-0.3,0.1-0.5,0.3-0.7
			s0.4-0.3,0.8-0.3s0.6,0.1,0.8,0.3S531.2,1025,531.2,1025.3z"/>
		<path class="st2" d="M538.6,1035h-1.9v-14.2h1.9V1035z"/>
		<path class="st2" d="M543.4,1024.4l0.1,1.3c0.8-1,1.9-1.5,3.2-1.5c2.2,0,3.4,1.3,3.4,3.8v7h-1.8v-7c0-0.8-0.2-1.3-0.5-1.7
			s-0.9-0.5-1.6-0.5c-0.6,0-1.1,0.2-1.5,0.5s-0.8,0.7-1,1.2v7.5h-1.8v-10.6H543.4z"/>
		<path class="st2" d="M556.2,1032.5l2.6-8.1h1.8l-3.8,10.6h-1.4l-3.8-10.6h1.8L556.2,1032.5z"/>
		<path class="st2" d="M566.8,1035.2c-1.4,0-2.6-0.5-3.5-1.4s-1.3-2.2-1.3-3.8v-0.3c0-1,0.2-2,0.6-2.8s1-1.5,1.7-1.9
			s1.5-0.7,2.3-0.7c1.4,0,2.4,0.5,3.2,1.4s1.1,2.2,1.1,3.9v0.8h-7.2c0,1,0.3,1.9,0.9,2.5s1.3,1,2.2,1c0.6,0,1.2-0.1,1.6-0.4
			s0.8-0.6,1.2-1l1.1,0.9C569.9,1034.5,568.6,1035.2,566.8,1035.2z M566.6,1025.7c-0.7,0-1.3,0.3-1.8,0.8s-0.8,1.3-0.9,2.2h5.3v-0.1
			c-0.1-0.9-0.3-1.6-0.7-2.1S567.3,1025.7,566.6,1025.7z"/>
		<path class="st2" d="M578.1,1026.1c-0.3,0-0.6-0.1-0.9-0.1c-1.2,0-2,0.5-2.4,1.5v7.5H573v-10.6h1.8l0,1.2c0.6-0.9,1.4-1.4,2.5-1.4
			c0.4,0,0.6,0,0.8,0.1V1026.1z"/>
		<path class="st2" d="M582.7,1021.9v2.6h2v1.4h-2v6.6c0,0.4,0.1,0.7,0.3,1s0.5,0.3,0.9,0.3c0.2,0,0.5,0,0.9-0.1v1.5
			c-0.5,0.1-0.9,0.2-1.4,0.2c-0.8,0-1.4-0.2-1.8-0.7s-0.6-1.2-0.6-2.1v-6.6H579v-1.4h1.9v-2.6H582.7z"/>
		<path class="st2" d="M586.8,1021.6c0-0.3,0.1-0.5,0.3-0.7s0.4-0.3,0.8-0.3s0.6,0.1,0.8,0.3s0.3,0.4,0.3,0.7s-0.1,0.5-0.3,0.7
			s-0.4,0.3-0.8,0.3s-0.6-0.1-0.8-0.3S586.8,1021.9,586.8,1021.6z M588.8,1035H587v-10.6h1.8V1035z"/>
		<path class="st2" d="M596.8,1026.1c-0.3,0-0.6-0.1-0.9-0.1c-1.2,0-2,0.5-2.4,1.5v7.5h-1.8v-10.6h1.8l0,1.2
			c0.6-0.9,1.4-1.4,2.5-1.4c0.4,0,0.6,0,0.8,0.1V1026.1z"/>
		<path class="st2" d="M600.5,1031c0-0.8,0.1-1.4,0.3-1.8c0.2-0.4,0.5-0.9,1-1.5l1.3-1.3c0.5-0.6,0.8-1.3,0.8-2
			c0-0.7-0.2-1.2-0.5-1.6s-0.9-0.6-1.6-0.6c-0.7,0-1.2,0.2-1.6,0.5s-0.6,0.8-0.6,1.4h-1.8c0-1.1,0.4-1.9,1.1-2.6s1.7-1,2.9-1
			c1.2,0,2.2,0.3,2.9,1c0.7,0.7,1,1.6,1,2.7c0,1.1-0.5,2.3-1.6,3.4l-1.1,1.1c-0.5,0.5-0.7,1.3-0.7,2.3H600.5z M600.5,1034.1
			c0-0.3,0.1-0.5,0.3-0.7s0.4-0.3,0.8-0.3s0.6,0.1,0.8,0.3s0.3,0.4,0.3,0.7s-0.1,0.5-0.3,0.7c-0.2,0.2-0.4,0.3-0.8,0.3
			s-0.6-0.1-0.8-0.3C600.6,1034.6,600.5,1034.4,600.5,1034.1z"/>
	</g>
</g>
</svg>
