<svg id="Grupo_14347" data-name="Grupo 14347" xmlns="http://www.w3.org/2000/svg" width="177.325" height="331.563" viewBox="0 0 177.325 331.563">
  <path id="Trazado_23931" data-name="Trazado 23931" d="M601.209,663.344H529a6.282,6.282,0,0,1,0-12.564h72.206a6.282,6.282,0,0,1,0,12.564Z" transform="translate(-440.179 -331.78)" fill="#2c224f" opacity="0.32"/>
  <path id="Trazado_23932" data-name="Trazado 23932" d="M647.074,289.161a112.27,112.27,0,0,0-3.338-16.376c-4.554-15.886-11.563-25.9-15.807-29.248-4.4-3.479-26.023-11.723-13.679,2.4a12.108,12.108,0,0,1-.449,2.918c-2.576,9.175.59,18,4.379,26.43,1.845,4.106,3.836,8.119,5.387,12.031,1.053,2.655,2,5.4,2.843,8.208a93.818,93.818,0,0,1,2.46,10.078c4.065,18.649,2.712,38.5-3.257,57.226-1.821,5.711,8.473,9.272,10.575,3.7C647.989,335.245,649.689,309.207,647.074,289.161Z" transform="translate(-470.812 -187.696)" fill="#383872"/>
  <path id="Trazado_23933" data-name="Trazado 23933" d="M539.582,647.59,560,640.917c1.006-.329,2.23.051,2.43.756l3.2,11.208c.186.652-.607,1.253-1.657,1.253H542.1C536.354,654.133,534.477,649.258,539.582,647.59Z" transform="translate(-445.026 -328.296)" fill="#622668"/>
  <path id="Trazado_23934" data-name="Trazado 23934" d="M555.286,420.9a522.73,522.73,0,0,0-2.944,71.766c.469,18.445,1.887,36.506,4.442,51.739.474,2.826.982,5.565,1.536,8.179,4.887,23.07-14.308,20.667-16.2,10.529q-1.419-7.62-2.7-15.295c-3.135-18.672-5.691-37.394-7.687-55.153-3.091-27.507-4.6-58.085-5.17-77.169Z" transform="translate(-441.523 -249.66)" fill="#32b1dc"/>
  <path id="Trazado_23935" data-name="Trazado 23935" d="M595.649,647.59l20.423-6.674c1.006-.329,2.229.051,2.43.756l3.2,11.208c.186.652-.608,1.253-1.657,1.253H598.169C592.421,654.133,590.544,649.258,595.649,647.59Z" transform="translate(-464.595 -328.296)" fill="#622668"/>
  <path id="Trazado_23936" data-name="Trazado 23936" d="M611.218,423.8a522.624,522.624,0,0,0-2.944,71.766c.469,18.445,1.887,36.506,4.442,51.739.474,2.826.982,5.565,1.536,8.179,4.888,23.07-14.308,20.667-16.2,10.529q-1.419-7.62-2.7-15.295c-3.135-18.672-5.691-37.394-7.687-55.153-3.09-27.507-4.854-52.682-5.421-71.766Z" transform="translate(-460.957 -252.557)" fill="#32b1dc"/>
  <g id="Grupo_14301" data-name="Grupo 14301" transform="translate(78.321 45.292)">
    <g id="Grupo_14300" data-name="Grupo 14300">
      <path id="Trazado_23937" data-name="Trazado 23937" d="M530.73,236.652a71.913,71.913,0,0,0-9.484,4.606,32.03,32.03,0,0,0-2.792,2.077c-5.861,4.535,2.029,40.447-.414,104.953-.25,6.6,5.3,12.237,12.432,12.423.091,0,.178,0,.258,0,.142,0,.272,0,.376,0l5,.115.595-126.384C534.7,235.108,532.675,235.857,530.73,236.652Z" transform="translate(-516.236 -231.759)" fill="#383872"/>
      <path id="Trazado_23938" data-name="Trazado 23938" d="M582.733,231.918c-10.735-1.956-21.923-1.9-27.386-.991a55.711,55.711,0,0,0-7.993,2.079L546.76,359.39c12.676.292,22.44.514,33.506.767Z" transform="translate(-526.89 -230.318)" fill="#fff"/>
      <path id="Trazado_23939" data-name="Trazado 23939" d="M617.811,238.486a41.825,41.825,0,0,0-8.166-3.515,71.258,71.258,0,0,0-8.946-2.194l-2.467,128.24,8.073.186,10.347.238q.923-3.107,1.831-6.218a43.2,43.2,0,0,0,1.624-10.964c.384-14.035,2.544-28.042,5.258-42.031,1.753-9.037,4.654-42.238,5.268-51.1C630.632,251.127,629.518,245.272,617.811,238.486Z" transform="translate(-544.855 -231.176)" fill="#383872"/>
    </g>
  </g>
  <g id="Grupo_14302" data-name="Grupo 14302" transform="translate(152.711 172.398)">
    <path id="Trazado_23940" data-name="Trazado 23940" d="M642.818,435.293c-.389,5.066-3.45,8.935-6.837,8.642s-5.817-4.638-5.427-9.7,3.451-8.935,6.837-8.642S643.208,430.227,642.818,435.293Z" transform="translate(-630.513 -425.574)" fill="#ffa58c"/>
  </g>
  <path id="Trazado_23941" data-name="Trazado 23941" d="M571.808,230.079a8.01,8.01,0,0,1,1.216.152c2.935.6,7.719,3.263,5.939,6.328a83.619,83.619,0,0,1-4.941,7.787,2.76,2.76,0,0,1-4.429,0,83.659,83.659,0,0,1-4.942-7.787c-1.779-3.065,3-5.731,5.94-6.328A8.011,8.011,0,0,1,571.808,230.079Z" transform="translate(-454.679 -184.943)" fill="#ffa58c"/>
  <g id="Grupo_14305" data-name="Grupo 14305" transform="translate(106.413 56.621)">
    <g id="Grupo_14303" data-name="Grupo 14303" transform="translate(0 2.991)">
      <path id="Trazado_23942" data-name="Trazado 23942" d="M570.3,318.317a2.583,2.583,0,0,1-3.651-1.184,101.384,101.384,0,0,1-5.507-14.177,45.463,45.463,0,0,1-1.716-9.281,18.339,18.339,0,0,1,.363-5.121,15.961,15.961,0,0,1,1.979-4.744c1.71-2.794,3.768-4.905,5.363-7.178a20.724,20.724,0,0,0,3.352-7.53c1.28-5.5.01-11.458-2.27-16.785a36.02,36.02,0,0,1,3.494,8.075,23.92,23.92,0,0,1,.842,9.027,23.549,23.549,0,0,1-2.768,8.9c-1.487,2.729-3.27,5.108-4.345,7.508a11.063,11.063,0,0,0-.809,7.177,39.72,39.72,0,0,0,2.437,7.727,93.866,93.866,0,0,0,6.654,12.4,2.748,2.748,0,0,1-.98,3.8Z" transform="translate(-559.391 -252.316)" fill="#fc425d"/>
    </g>
    <g id="Grupo_14304" data-name="Grupo 14304" transform="translate(7.651)">
      <path id="Trazado_23943" data-name="Trazado 23943" d="M575.437,247.934l-2.653-.21c-1.3-.1-2.131,2.125-1.316,3.531l1.176,2.025a1.174,1.174,0,0,0,2.065.163l1.477-1.816C577.211,250.367,576.738,248.037,575.437,247.934Z" transform="translate(-571.144 -247.721)" fill="#fc425d"/>
    </g>
  </g>
  <path id="Trazado_23944" data-name="Trazado 23944" d="M491.249,252.164c-2.056,4.992-3.75,9.906-6,16.059-.531,1.45-1.091,2.969-1.694,4.574-1.256-1.6-2.536-3.184-3.826-4.751-4.573-5.555-9.2-10.955-12.821-16.483a31.2,31.2,0,0,0-4.244-5.233c.009-.1.012-.2.019-.307l-10.721,2a21.7,21.7,0,0,0,1.256,4.7c1.517,4.047,5.585,14.487,10.514,24.853,4.83,10.157,10.489,20.242,15.392,24.172a5.2,5.2,0,0,0,5.5.575,23.612,23.612,0,0,0,12.012-12.79c2.079-4.115,3.377-9.019,4.864-13,.293-.785.577-1.575.865-2.362,2.064-5.646,4.027-11.341,6.316-16.9C513.122,246.487,495.651,241.475,491.249,252.164Z" transform="translate(-415.482 -190.508)" fill="#383872"/>
  <g id="Grupo_14314" data-name="Grupo 14314" transform="translate(104.71 0)">
    <path id="Trazado_23945" data-name="Trazado 23945" d="M557.971,166.435l-.626,6.2c-.932,9.237,3.844,17.348,10.615,18.026s13.073-6.324,14.006-15.56l.626-6.2c0-.046,0-.091.008-.138-6.658-5.04-14.856-7.017-23.268-8.021A22,22,0,0,0,557.971,166.435Z" transform="translate(-556.933 -160.742)" fill="#383872"/>
    <g id="Grupo_14307" data-name="Grupo 14307" transform="translate(18.603 19.522)">
      <g id="Grupo_14306" data-name="Grupo 14306">
        <path id="Trazado_23946" data-name="Trazado 23946" d="M588.177,190.731c1.553-.019,2.8,1.584,2.8,3.58s-1.272,3.628-2.825,3.646-2.8-1.585-2.8-3.58S586.625,190.749,588.177,190.731Z" transform="translate(-585.352 -190.731)" fill="#ffa58c"/>
      </g>
    </g>
    <g id="Grupo_14309" data-name="Grupo 14309" transform="translate(0 18.174)">
      <g id="Grupo_14308" data-name="Grupo 14308">
        <path id="Trazado_23947" data-name="Trazado 23947" d="M559.6,188.66c1.553-.018,2.8,1.585,2.8,3.58s-1.272,3.628-2.825,3.646-2.8-1.585-2.8-3.58S558.048,188.678,559.6,188.66Z" transform="translate(-556.775 -188.66)" fill="#ffa58c"/>
      </g>
    </g>
    <g id="Grupo_14311" data-name="Grupo 14311" transform="translate(3.166 7.355)">
      <g id="Grupo_14310" data-name="Grupo 14310">
        <path id="Trazado_23948" data-name="Trazado 23948" d="M565.217,172.041a13.275,13.275,0,0,0-3.541,9.2l-.036,9.436c-.025,6.447,4.058,11.673,9.073,11.615s9.139-5.381,9.164-11.827l.035-9.125Z" transform="translate(-561.639 -172.041)" fill="#ffa58c"/>
      </g>
    </g>
    <g id="Grupo_14313" data-name="Grupo 14313" transform="translate(5.778 24.158)">
      <g id="Grupo_14312" data-name="Grupo 14312">
        <path id="Trazado_23949" data-name="Trazado 23949" d="M576.287,224.039l-8.517.094a2.093,2.093,0,0,1-2.12-2.1l.1-21.935a2.174,2.174,0,0,1,2.138-2.149l8.516-.1a2.094,2.094,0,0,1,2.12,2.1l-.1,21.934A2.175,2.175,0,0,1,576.287,224.039Z" transform="translate(-565.651 -197.853)" fill="#ffa58c"/>
      </g>
    </g>
  </g>
  <g id="Grupo_14345" data-name="Grupo 14345" transform="translate(3.768 41.76)">
    <path id="Trazado_23950" data-name="Trazado 23950" d="M455.364,230.132h-51.3a2.529,2.529,0,0,0-2.354,2.674V317.2a2.268,2.268,0,0,0,2.354,2.17h51.3a2.268,2.268,0,0,0,2.354-2.17V232.806A2.529,2.529,0,0,0,455.364,230.132Z" transform="translate(-401.71 -226.721)" fill="#5e5e92"/>
    <path id="Trazado_23951" data-name="Trazado 23951" d="M454.328,233.413H408.465a2.271,2.271,0,0,0-2.1,2.407v76a2.033,2.033,0,0,0,2.1,1.954h45.863a2.033,2.033,0,0,0,2.1-1.954v-76A2.271,2.271,0,0,0,454.328,233.413Z" transform="translate(-403.333 -227.866)" fill="#fff"/>
    <rect id="Rectángulo_3844" data-name="Rectángulo 3844" width="6.701" height="15.466" rx="3.35" transform="translate(36.721 0) rotate(90)" fill="#383872"/>
    <g id="Grupo_14320" data-name="Grupo 14320" transform="translate(24.002 19.081)">
      <g id="Grupo_14315" data-name="Grupo 14315">
        <path id="Trazado_23952" data-name="Trazado 23952" d="M453.635,255.812H439.522a.814.814,0,1,1,0-1.608h14.114a.814.814,0,1,1,0,1.608Z" transform="translate(-438.581 -254.204)" fill="#5e5e92"/>
      </g>
      <g id="Grupo_14316" data-name="Grupo 14316" transform="translate(18.101)">
        <path id="Trazado_23953" data-name="Trazado 23953" d="M471.985,255.812h-4.658a.814.814,0,1,1,0-1.608h4.658a.814.814,0,1,1,0,1.608Z" transform="translate(-466.387 -254.204)" fill="#5e5e92"/>
      </g>
      <g id="Grupo_14317" data-name="Grupo 14317" transform="translate(8.644 2.934)">
        <path id="Trazado_23954" data-name="Trazado 23954" d="M452.8,260.319h14.114a.814.814,0,1,0,0-1.608H452.8a.814.814,0,1,0,0,1.608Z" transform="translate(-451.86 -258.711)" fill="#5e5e92"/>
      </g>
      <g id="Grupo_14318" data-name="Grupo 14318" transform="translate(0 5.915)">
        <path id="Trazado_23955" data-name="Trazado 23955" d="M439.522,264.9h14.114a.814.814,0,1,0,0-1.608H439.522a.814.814,0,1,0,0,1.608Z" transform="translate(-438.581 -263.291)" fill="#5e5e92"/>
      </g>
      <g id="Grupo_14319" data-name="Grupo 14319" transform="translate(0 2.934)">
        <path id="Trazado_23956" data-name="Trazado 23956" d="M439.522,260.319h4.658a.814.814,0,1,0,0-1.608h-4.658a.814.814,0,1,0,0,1.608Z" transform="translate(-438.581 -258.711)" fill="#5e5e92"/>
      </g>
    </g>
    <g id="Grupo_14323" data-name="Grupo 14323" transform="translate(6.689 15.6)">
      <g id="Grupo_14321" data-name="Grupo 14321">
        <path id="Trazado_23957" data-name="Trazado 23957" d="M422.38,262.239h-7.358a3.041,3.041,0,0,1-3.037-3.038V251.9a3.041,3.041,0,0,1,3.037-3.038h7.358a3.041,3.041,0,0,1,3.038,3.038V259.2A3.041,3.041,0,0,1,422.38,262.239Zm-7.358-12.731a2.389,2.389,0,0,0-2.386,2.387V259.2a2.389,2.389,0,0,0,2.386,2.387h7.358a2.389,2.389,0,0,0,2.387-2.387V251.9a2.389,2.389,0,0,0-2.387-2.387Z" transform="translate(-411.985 -248.857)" fill="#5e5e92"/>
      </g>
      <g id="Grupo_14322" data-name="Grupo 14322" transform="translate(2.118 1.609)">
        <path id="Trazado_23958" data-name="Trazado 23958" d="M419.133,262.337l-3.669-5.374a1.3,1.3,0,1,1,2.151-1.468l1.454,2.13,3.668-5.7a1.3,1.3,0,0,1,2.189,1.409Z" transform="translate(-415.238 -251.329)" fill="#fc425d"/>
      </g>
    </g>
    <g id="Grupo_14326" data-name="Grupo 14326" transform="translate(6.672 33.132)">
      <g id="Grupo_14324" data-name="Grupo 14324">
        <path id="Trazado_23959" data-name="Trazado 23959" d="M422.354,289.171H415a3.041,3.041,0,0,1-3.037-3.038v-7.306A3.041,3.041,0,0,1,415,275.789h7.359a3.041,3.041,0,0,1,3.037,3.038v7.306A3.042,3.042,0,0,1,422.354,289.171ZM415,276.44a2.39,2.39,0,0,0-2.386,2.387v7.306A2.39,2.39,0,0,0,415,288.52h7.358a2.39,2.39,0,0,0,2.387-2.387v-7.306a2.39,2.39,0,0,0-2.386-2.387Z" transform="translate(-411.959 -275.789)" fill="#5e5e92"/>
      </g>
      <g id="Grupo_14325" data-name="Grupo 14325" transform="translate(2.118 1.609)">
        <path id="Trazado_23960" data-name="Trazado 23960" d="M419.107,289.268l-3.669-5.374a1.3,1.3,0,1,1,2.151-1.468l1.454,2.13,3.668-5.7a1.3,1.3,0,0,1,2.189,1.409Z" transform="translate(-415.212 -278.261)" fill="#fc425d"/>
      </g>
    </g>
    <g id="Grupo_14329" data-name="Grupo 14329" transform="translate(6.84 49.884)">
      <g id="Grupo_14327" data-name="Grupo 14327">
        <path id="Trazado_23961" data-name="Trazado 23961" d="M422.613,314.9h-7.358a3.041,3.041,0,0,1-3.038-3.037v-7.306a3.041,3.041,0,0,1,3.038-3.037h7.358a3.041,3.041,0,0,1,3.038,3.037v7.306A3.041,3.041,0,0,1,422.613,314.9Zm-7.358-12.73a2.39,2.39,0,0,0-2.387,2.386v7.306a2.39,2.39,0,0,0,2.387,2.386h7.358A2.39,2.39,0,0,0,425,311.866v-7.306a2.39,2.39,0,0,0-2.387-2.386Z" transform="translate(-412.217 -301.522)" fill="#5e5e92"/>
      </g>
      <g id="Grupo_14328" data-name="Grupo 14328" transform="translate(2.118 1.609)">
        <path id="Trazado_23962" data-name="Trazado 23962" d="M419.365,315l-3.668-5.375a1.3,1.3,0,0,1,2.151-1.468l1.454,2.131,3.668-5.7a1.3,1.3,0,0,1,2.19,1.409Z" transform="translate(-415.471 -303.994)" fill="#fc425d"/>
      </g>
    </g>
    <g id="Grupo_14332" data-name="Grupo 14332" transform="translate(7.008 67.221)">
      <g id="Grupo_14330" data-name="Grupo 14330">
        <path id="Trazado_23963" data-name="Trazado 23963" d="M422.872,341.537h-7.359a3.041,3.041,0,0,1-3.037-3.038v-7.306a3.041,3.041,0,0,1,3.037-3.037h7.359a3.041,3.041,0,0,1,3.037,3.037V338.5A3.041,3.041,0,0,1,422.872,341.537Zm-7.359-12.731a2.389,2.389,0,0,0-2.386,2.386V338.5a2.389,2.389,0,0,0,2.386,2.387h7.359a2.39,2.39,0,0,0,2.386-2.387v-7.306a2.39,2.39,0,0,0-2.386-2.386Z" transform="translate(-412.476 -328.155)" fill="#5e5e92"/>
      </g>
      <g id="Grupo_14331" data-name="Grupo 14331" transform="translate(2.443 1.935)">
        <path id="Trazado_23964" data-name="Trazado 23964" d="M419.79,341.221l-3.391-4.969a.977.977,0,0,1,1.614-1.1l1.73,2.536,3.932-6.111a.977.977,0,0,1,1.643,1.057Z" transform="translate(-416.229 -331.128)" fill="#fc425d"/>
      </g>
    </g>
    <g id="Grupo_14335" data-name="Grupo 14335" transform="translate(23.833 38.764)">
      <g id="Grupo_14333" data-name="Grupo 14333">
        <path id="Trazado_23965" data-name="Trazado 23965" d="M453.376,286.048H439.263a.814.814,0,1,1,0-1.608h14.113a.814.814,0,1,1,0,1.608Z" transform="translate(-438.322 -284.44)" fill="#5e5e92"/>
      </g>
      <g id="Grupo_14334" data-name="Grupo 14334" transform="translate(18.101)">
        <path id="Trazado_23966" data-name="Trazado 23966" d="M471.726,286.048h-4.657a.814.814,0,1,1,0-1.608h4.657a.814.814,0,1,1,0,1.608Z" transform="translate(-466.128 -284.44)" fill="#5e5e92"/>
      </g>
    </g>
    <g id="Grupo_14340" data-name="Grupo 14340" transform="translate(23.665 54.091)">
      <g id="Grupo_14336" data-name="Grupo 14336">
        <path id="Trazado_23967" data-name="Trazado 23967" d="M453.118,309.593H439a.814.814,0,1,1,0-1.608h14.114a.814.814,0,1,1,0,1.608Z" transform="translate(-438.064 -307.985)" fill="#5e5e92"/>
      </g>
      <g id="Grupo_14337" data-name="Grupo 14337" transform="translate(18.101)">
        <path id="Trazado_23968" data-name="Trazado 23968" d="M471.468,309.593h-4.658a.814.814,0,1,1,0-1.608h4.658a.814.814,0,1,1,0,1.608Z" transform="translate(-465.87 -307.985)" fill="#5e5e92"/>
      </g>
      <g id="Grupo_14338" data-name="Grupo 14338" transform="translate(8.645 2.935)">
        <path id="Trazado_23969" data-name="Trazado 23969" d="M452.285,314.1H466.4a.814.814,0,1,0,0-1.607H452.285a.814.814,0,1,0,0,1.607Z" transform="translate(-451.344 -312.493)" fill="#5e5e92"/>
      </g>
      <g id="Grupo_14339" data-name="Grupo 14339" transform="translate(0 2.935)">
        <path id="Trazado_23970" data-name="Trazado 23970" d="M439,314.1h4.658a.814.814,0,1,0,0-1.607H439a.814.814,0,1,0,0,1.607Z" transform="translate(-438.064 -312.493)" fill="#5e5e92"/>
      </g>
    </g>
    <g id="Grupo_14344" data-name="Grupo 14344" transform="translate(24.002 72.185)">
      <g id="Grupo_14341" data-name="Grupo 14341" transform="translate(8.644)">
        <path id="Trazado_23971" data-name="Trazado 23971" d="M452.8,337.388h14.114a.814.814,0,1,0,0-1.607H452.8a.814.814,0,1,0,0,1.607Z" transform="translate(-451.86 -335.781)" fill="#5e5e92"/>
      </g>
      <g id="Grupo_14342" data-name="Grupo 14342" transform="translate(0 2.981)">
        <path id="Trazado_23972" data-name="Trazado 23972" d="M439.522,341.969h14.114a.814.814,0,1,0,0-1.608H439.522a.814.814,0,1,0,0,1.608Z" transform="translate(-438.581 -340.361)" fill="#5e5e92"/>
      </g>
      <g id="Grupo_14343" data-name="Grupo 14343">
        <path id="Trazado_23973" data-name="Trazado 23973" d="M439.522,337.388h4.658a.814.814,0,1,0,0-1.607h-4.658a.814.814,0,1,0,0,1.607Z" transform="translate(-438.581 -335.781)" fill="#5e5e92"/>
      </g>
    </g>
  </g>
  <g id="Grupo_14346" data-name="Grupo 14346" transform="translate(0 49.539)">
    <path id="Trazado_23974" data-name="Trazado 23974" d="M408.2,242.768c-.218,2.973-3.141,5.151-6.529,4.865s-5.956-2.927-5.738-5.9,3.141-5.152,6.528-4.865S408.42,239.795,408.2,242.768Z" transform="translate(-395.922 -236.842)" fill="#ffa58c"/>
  </g>
</svg>
