<svg xmlns="http://www.w3.org/2000/svg" xmlns:xlink="http://www.w3.org/1999/xlink" width="844" height="577" viewBox="0 0 844 577">
  <defs>
    <filter id="Rectángulo_389" x="0" y="0" width="844" height="577" filterUnits="userSpaceOnUse">
      <feOffset dy="3" input="SourceAlpha"/>
      <feGaussianBlur stdDeviation="3" result="blur"/>
      <feFlood flood-opacity="0.161"/>
      <feComposite operator="in" in2="blur"/>
      <feComposite in="SourceGraphic"/>
    </filter>
  </defs>
  <g id="Grupo_978" data-name="Grupo 978" transform="translate(9 6)">
    <g transform="matrix(1, 0, 0, 1, -9, -6)" filter="url(#Rectángulo_389)">
      <rect id="Rectángulo_389-2" data-name="Rectángulo 389" width="826" height="559" transform="translate(9 6)" fill="#cbd9e4"/>
    </g>
    <rect id="Rectángulo_565" data-name="Rectángulo 565" width="826" height="74" transform="translate(0 485)" fill="#fff"/>
    <text id="INTRODUCCIÓN" transform="translate(27 506)" fill="#00223d" font-size="18" font-family="Montserrat-SemiBold, Montserrat" font-weight="600"><tspan x="0" y="17">INTRODUCCIÓN</tspan></text>
    <rect id="Rectángulo_390" data-name="Rectángulo 390" width="826" height="6" transform="translate(0 477)" fill="#00acc1"/>
    <g id="Grupo_977" data-name="Grupo 977" transform="translate(323.537 181.377)">
      <ellipse id="Elipse_497" data-name="Elipse 497" cx="70" cy="70.5" rx="70" ry="70.5" transform="translate(0.463 -0.377)" fill="#2b4e6a" opacity="0.38"/>
      <path id="Trazado_1178" data-name="Trazado 1178" d="M44.69,0A44.69,44.69,0,1,1,0,44.69,44.69,44.69,0,0,1,44.69,0Z" transform="translate(25.607 26.382)" fill="#002b45"/>
      <path id="Polígono_2" data-name="Polígono 2" d="M21.208,0,42.415,36.356H0Z" transform="translate(93.523 47.845) rotate(90)" fill="#fff"/>
    </g>
  </g>
</svg>
