<svg xmlns="http://www.w3.org/2000/svg" width="140.92" height="140.96" viewBox="0 0 140.92 140.96">
  <g id="Grupo_14490" data-name="Grupo 14490" transform="translate(-0.073 0)">
    <g id="Grupo_14488" data-name="Grupo 14488" transform="translate(2.141 1.858)">
      <path id="Trazado_24362" data-name="Trazado 24362" d="M151.441,302.084l10.255-2.338a8.221,8.221,0,0,0,6.39-8.18l-.2-9.958-16.4,3.738Z" transform="translate(-111.835 -205.935)" fill="#7dffc6"/>
      <path id="Trazado_24363" data-name="Trazado 24363" d="M115.027,336.919c-7.592-18.944-10.089-39.935-5.085-58.092l15.576,4.3.011-.04a47.389,47.389,0,0,0-.761,15.592,44.781,44.781,0,0,0,9.583,23.493,7.78,7.78,0,0,1-1.214,10.883l-7.975,6.469a6.5,6.5,0,0,1-10.135-2.6Z" transform="translate(-79.876 -203.92)" fill="#ff70ea"/>
      <path id="Trazado_24364" data-name="Trazado 24364" d="M139.322,322.166a44.779,44.779,0,0,1-9.583-23.493,47.39,47.39,0,0,1,.761-15.592l-.011.04-15.576-4.3c-.259.941-.494,1.89-.713,2.845l5.258,1.45.011-.04a47.394,47.394,0,0,0-.76,15.592,44.779,44.779,0,0,0,9.583,23.493,7.78,7.78,0,0,1-1.214,10.882L120.7,338.22a6.518,6.518,0,0,0,9.431,1.3l7.975-6.469a7.779,7.779,0,0,0,1.214-10.882Z" transform="translate(-84.848 -203.919)" fill="#ff54e6"/>
      <g id="Grupo_14487" data-name="Grupo 14487">
        <g id="Grupo_14486" data-name="Grupo 14486">
          <g id="Grupo_14485" data-name="Grupo 14485">
            <path id="Trazado_24365" data-name="Trazado 24365" d="M277.543,118.353c-7.048-13.362-24.9-13.7-24.9-13.7L240.761,52.506s15.355-6.866,16.5-23.141Z" transform="translate(-176.564 -23.138)" fill="#7dffc6"/>
            <path id="Trazado_24366" data-name="Trazado 24366" d="M105.534,165.561l-58.24-1.987a7.373,7.373,0,0,1-6.61-5.713l-2.74-12.02a7.372,7.372,0,0,1,3.481-8.013l52.223-24.41Z" transform="translate(-29.451 -84.049)" fill="#ffe966"/>
            <path id="Trazado_24367" data-name="Trazado 24367" d="M215.29,165.182l11.117.379-11.886-52.143-9.969,4.66Z" transform="translate(-150.325 -84.05)" fill="#fade3d"/>
            <path id="Trazado_24368" data-name="Trazado 24368" d="M18.853,242.948l-5.47,1.172a3.839,3.839,0,0,1-4.6-2.889l-1.106-4.852a3.838,3.838,0,0,1,2.89-4.6l5.47-1.172Z" transform="translate(-7.584 -168.978)" fill="#7dffc6"/>
            <path id="Trazado_24369" data-name="Trazado 24369" d="M326.4,105.893h0a4.886,4.886,0,0,1-5.85-3.678l-20.4-89.494a4.886,4.886,0,0,1,3.678-5.85h0a4.886,4.886,0,0,1,5.85,3.678l20.4,89.494A4.886,4.886,0,0,1,326.4,105.893Z" transform="translate(-219.512 -6.747)" fill="#ff70ea"/>
          </g>
        </g>
      </g>
    </g>
    <g id="Grupo_14489" data-name="Grupo 14489" transform="translate(0.073 0)">
      <path id="Trazado_24370" data-name="Trazado 24370" d="M102.36,40.461a2.068,2.068,0,0,0-4.033.919l12.362,54.233c.8,3.51-4.683,4.819-5.5,1.252L84.849,7.616C84.027,4,89.442,2.4,90.289,6.119l5.592,24.533a2.068,2.068,0,0,0,4.033-.919L94.322,5.2c-1.963-8.614-15.5-5.773-13.575,3.027-1.2,14.6-15.117,21.049-15.258,21.113l-.014.007-.014.006L13.239,53.762q-.084.039-.164.086a9.392,9.392,0,0,0-4.7,8l-3.71.8A5.914,5.914,0,0,0,.221,69.717L1.328,74.57a5.958,5.958,0,0,0,7.046,4.452l3.728-.8a9.389,9.389,0,0,0,7.721,5.22l.091.005,8.665.3c-.261,1.6-.479,3.232-.641,4.874a92.569,92.569,0,0,0,1.354,26.333,2.069,2.069,0,0,0,4.064-.772,88.439,88.439,0,0,1-1.3-25.155c.171-1.735.4-3.456.69-5.138l12.352.422a51.6,51.6,0,0,0,.618,17.23,47.088,47.088,0,0,0,8.874,19.334c2.632,3.388,1.624,6.8-1.466,9.3-2.443,1.982-4.722,4.19-7.349,5.935a4.5,4.5,0,0,1-4.967-.033c-2.8-1.9-3.57-7.174-4.509-10.181-.771-2.471-4.755-1.35-3.949,1.233,1.285,4.116,2.3,9.771,6.135,12.37a8.718,8.718,0,0,0,9.578.056c2.74-1.82,5.12-4.1,7.667-6.169,4.862-3.944,6.122-9.91,2.127-15.052a42.938,42.938,0,0,1-8.088-17.628q-.236-1.151-.415-2.312l3.112-.709a10.33,10.33,0,0,0,8-10.238l-.052-2.617,17.745.605h.031c.165,0,16.5.455,22.984,12.379,2.023,8.7,15.548,5.625,13.554-3.121ZM7.48,74.983A1.8,1.8,0,0,1,5.36,73.65L4.254,68.8A1.767,1.767,0,0,1,5.56,66.684l3.474-.744,1.893,8.3ZM56.324,87.53a6.177,6.177,0,0,1-4.781,6.123l-2.651.6a46.182,46.182,0,0,1,.364-9.807l7.012.24ZM20.1,79.316A5.279,5.279,0,0,1,15.39,75.21L12.649,63.186a5.28,5.28,0,0,1,2.432-5.718l49.81-23.282L75.61,81.211ZM79.9,81.4,68.711,32.331c3.174-1.767,10.415-6.567,14.067-15.189L99.135,88.9C92.311,83.117,83.509,81.733,79.9,81.4Z" transform="translate(-0.073 0)"/>
      <path id="Trazado_24371" data-name="Trazado 24371" d="M409.086,147.371a2.07,2.07,0,0,0-.094,2l1.676,3.4-9.866.069c-2.671.019-2.628,4.137.029,4.137L414,156.883a2.087,2.087,0,0,0,1.84-2.983l-1.678-3.4,10.467-.085c2.671-.022,2.623-4.137-.034-4.137l-13.763.113a2.068,2.068,0,0,0-1.744.983Z" transform="translate(-289.039 -106.004)"/>
      <path id="Trazado_24372" data-name="Trazado 24372" d="M387.3,71.671a2.053,2.053,0,0,0,.932-.224L399.977,65.5a2.087,2.087,0,0,0,.319-3.491l-3.017-2.3,9.333-4.74c2.308-1.172.54-4.914-1.873-3.688l-12.272,6.232A2.087,2.087,0,0,0,392.15,61l3.014,2.3-8.8,4.457A2.09,2.09,0,0,0,387.3,71.671Z" transform="translate(-279.23 -36.988)"/>
      <path id="Trazado_24373" data-name="Trazado 24373" d="M437.063,231.825,426.6,231.6l1.723-3.379a2.086,2.086,0,0,0-1.8-3.008l-13.164-.269c-2.658-.049-2.754,4.081-.085,4.136l9.864.2-1.721,3.375a2.087,2.087,0,0,0,1.8,3.008l13.76.3c2.657.07,2.758-4.078.089-4.135Z" transform="translate(-298.097 -163.014)"/>
    </g>
  </g>
</svg>
