<svg xmlns="http://www.w3.org/2000/svg" xmlns:xlink="http://www.w3.org/1999/xlink" width="835.198" height="891" viewBox="0 0 835.198 891">
  <defs>
    <radialGradient id="radial-gradient" cx="0.5" cy="0.5" r="0.5" gradientUnits="objectBoundingBox">
      <stop offset="0" stop-color="#db9c94" stop-opacity="0.6"/>
      <stop offset="1" stop-color="#ecc19c"/>
    </radialGradient>
  </defs>
  <g id="Grupo_16269" data-name="Grupo 16269" transform="translate(-234.802 -1471)">
    <text id="_1._Comunicacional:_es_directo_sencillo_y_plano_implica_poco_despliegue_creativo_y_es_muy_apto_para_comunicar_ofertas_de_un_solo_día_o_dar_información_fugaz_de_alguna_eventualidad_del_producto_o_servicio._Este_tono_de_comunicación_es_poco_persuasivo._2._" data-name="1.	Comunicacional: es directo, sencillo y plano; implica poco despliegue creativo y es muy apto para comunicar ofertas de un solo día o dar información fugaz de alguna eventualidad del producto o servicio. Este tono de comunicación es poco persuasivo.

2.	" transform="translate(330 1471)" fill="#00223d" font-size="20" font-family="OpenSans-Bold, Open Sans" font-weight="700"><tspan x="0" y="21">1.	Comunicacional:</tspan><tspan y="21" xml:space="preserve" font-family="OpenSans, Open Sans" font-weight="400"> es directo, sencillo y plano; implica poco despliegue </tspan><tspan x="0" y="48" font-family="OpenSans, Open Sans" font-weight="400">creativo y es muy apto para comunicar ofertas de un solo día o dar </tspan><tspan x="0" y="75" font-family="OpenSans, Open Sans" font-weight="400">información fugaz de alguna eventualidad del producto o servicio. Este tono de </tspan><tspan x="0" y="102" font-family="OpenSans, Open Sans" font-weight="400">comunicación es poco persuasivo.</tspan><tspan font-family="OpenSans, Open Sans" font-weight="400"><tspan x="0" y="129"></tspan></tspan><tspan x="0" y="156">2.	Racional:</tspan><tspan y="156" xml:space="preserve" font-family="OpenSans, Open Sans" font-weight="400"> si bien un bajo porcentaje de las compras que se realizan, se </tspan><tspan x="0" y="183" font-family="OpenSans, Open Sans" font-weight="400">hacen de forma racional, este es un tono muy persuasivo, pero sobre todo </tspan><tspan x="0" y="210" font-family="OpenSans, Open Sans" font-weight="400">disuasivo. Es muy eficaz en comunicación institucional y para campañas de </tspan><tspan x="0" y="237" font-family="OpenSans, Open Sans" font-weight="400">bien público en las que hay que convencer al público objetivo que realice una </tspan><tspan x="0" y="264" font-family="OpenSans, Open Sans" font-weight="400">acción específica para evitar ciertas consecuencias; por ejemplo, las campañas </tspan><tspan x="0" y="291" font-family="OpenSans, Open Sans" font-weight="400">que promueven el apoyo a fundaciones o las que invitan a moderar el </tspan><tspan x="0" y="318" font-family="OpenSans, Open Sans" font-weight="400">consumo de alcohol. Este tono genera algo grado de recordación.</tspan><tspan font-family="OpenSans, Open Sans" font-weight="400"><tspan x="0" y="345"></tspan></tspan><tspan x="0" y="372">3.	Emotivo: </tspan><tspan y="372" font-family="OpenSans, Open Sans" font-weight="400">es tal vez el más eficaz debido al comportamiento en el </tspan><tspan x="0" y="399" font-family="OpenSans, Open Sans" font-weight="400">consumo de la mayoría de las personas; un alto porcentaje de las compras se </tspan><tspan x="0" y="426" font-family="OpenSans, Open Sans" font-weight="400">realizan motivadas por las emociones, es por eso por lo que muchos anuncios </tspan><tspan x="0" y="453" font-family="OpenSans, Open Sans" font-weight="400">y campañas son realizadas con este tono de comunicación. Tiene el objetivo de </tspan><tspan x="0" y="480" font-family="OpenSans, Open Sans" font-weight="400">hacer brotar sentimientos como la ternura, llanto, compasión, ira y </tspan><tspan x="0" y="507" font-family="OpenSans, Open Sans" font-weight="400">sobrecogimiento. Es muy persuasivo y recordativo. </tspan><tspan font-family="OpenSans, Open Sans" font-weight="400"><tspan x="0" y="534"></tspan></tspan><tspan x="0" y="561">4.	Humorístico:</tspan><tspan y="561" xml:space="preserve" font-family="OpenSans, Open Sans" font-weight="400"> es un tono muy utilizado, altamente efectivo y </tspan><tspan x="0" y="588" font-family="OpenSans, Open Sans" font-weight="400">recordativo; sin embargo, no es apto para todas las marcas. Es muy eficiente </tspan><tspan x="0" y="615" font-family="OpenSans, Open Sans" font-weight="400">en publicidad de productos para niños y jóvenes y para productos de consumo </tspan><tspan x="0" y="642" font-family="OpenSans, Open Sans" font-weight="400">masivo. Sin embargo y debido a las tendencias del mercado, se han lanzado </tspan><tspan x="0" y="669" font-family="OpenSans, Open Sans" font-weight="400">campañas muy exitosas de productos financieros, seguros y </tspan><tspan x="0" y="696" font-family="OpenSans, Open Sans" font-weight="400">telecomunicaciones con tono humorístico.</tspan><tspan font-family="OpenSans, Open Sans" font-weight="400"><tspan x="0" y="723"></tspan></tspan><tspan x="0" y="750">5.	Aspiracional:</tspan><tspan y="750" xml:space="preserve" font-family="OpenSans, Open Sans" font-weight="400"> es un tono muy eficaz para productos financieros, </tspan><tspan x="0" y="777" font-family="OpenSans, Open Sans" font-weight="400">agencias de viajes y educación, tiene un alto nivel de persuasión, aunque es </tspan><tspan x="0" y="804" font-family="OpenSans, Open Sans" font-weight="400">poco recordativo, es efectivo en el momento en que el mercado objetivo es </tspan><tspan x="0" y="831" font-family="OpenSans, Open Sans" font-weight="400">expuesto al mensaje, de ahí su nivel de uso en campañas en medios digitales </tspan><tspan x="0" y="858" font-family="OpenSans, Open Sans" font-weight="400">como la web y las redes sociales. Tiene un enfoque más alto en el mercado de </tspan><tspan x="0" y="885" font-family="OpenSans, Open Sans" font-weight="400">adultos jóvenes.</tspan></text>
    <g id="Grupo_16109" data-name="Grupo 16109" transform="translate(67.637 1554.521)">
      <path id="Trazado_26533" data-name="Trazado 26533" d="M225.4,180.36a69.327,69.327,0,0,1-.8-13.588H204.774a69.358,69.358,0,0,1-.8,13.588c-1.151,6.177-8.029,6.177-8.029,6.177L214.69,191.5l18.743-4.967S226.554,186.537,225.4,180.36Z" transform="translate(-6.711 -24.785)" fill="#ecc19c"/>
      <g id="Grupo_16090" data-name="Grupo 16090" transform="translate(198.013 140.859)">
        <path id="Trazado_26534" data-name="Trazado 26534" d="M227.915,179.113a9.391,9.391,0,0,1-8.654,1.353c-7.465-2.2-10.7-5.659-11.868-7.239.244-4.483.245-7.927.245-7.927l19.834.231A69.174,69.174,0,0,0,227.915,179.113Z" transform="translate(-207.393 -165.301)" fill="#cca88d"/>
      </g>
      <g id="Grupo_16091" data-name="Grupo 16091" transform="translate(174.184 106.739)">
        <path id="Trazado_26535" data-name="Trazado 26535" d="M183.69,123.956s-4.533-6.093-6.429-1.333-.677,11.445,1.393,14.6,6.215,8.2,7.527,8.3,2.381-.485,3.7-1.694Z" transform="translate(-176.318 -120.805)" fill="#ecc19c"/>
        <path id="Trazado_26536" data-name="Trazado 26536" d="M185.652,128.551s-3.042-4.088-4.314-.894a12.211,12.211,0,0,0,.935,9.8c1.389,2.119,4.17,5.5,5.05,5.568a3.251,3.251,0,0,0,2.484-1.136Z" transform="translate(-177.341 -122.118)" fill="#db9c94" opacity="0.6"/>
      </g>
      <g id="Grupo_16092" data-name="Grupo 16092" transform="translate(229.824 107.58)">
        <path id="Trazado_26537" data-name="Trazado 26537" d="M254.523,124.9s4.185-5.821,5.981-1.24a17.874,17.874,0,0,1-1.209,14.009c-1.909,3.019-5.739,7.835-6.96,7.92s-2.221-.479-3.458-1.649Z" transform="translate(-248.877 -121.902)" fill="#ecc19c"/>
        <path id="Trazado_26538" data-name="Trazado 26538" d="M253.975,129.3s2.808-3.905,4.013-.832a11.993,11.993,0,0,1-.811,9.4c-1.281,2.025-3.851,5.257-4.671,5.313a3.031,3.031,0,0,1-2.32-1.106Z" transform="translate(-249.182 -123.158)" fill="#db9c94" opacity="0.6"/>
      </g>
      <path id="Trazado_26539" data-name="Trazado 26539" d="M210.525,67.257c.153,0,.3.006.455.007s.3-.007.456-.007c16.109,0,31.258,13.215,31.258,31.058s-15.149,33.557-31.258,33.557c-.152,0-.3-.006-.456-.009s-.3.009-.455.009c-16.109,0-31.257-15.715-31.257-33.557S194.416,67.257,210.525,67.257Z" transform="translate(-2.822 -1.58)" fill="#333"/>
      <path id="Trazado_26540" data-name="Trazado 26540" d="M213.244,156.912c-8.578,0-18.681-7.3-23.381-14.126-1.42-2.063-1.921-12.639-1.921-19.894,0-10.43-.166-24.349,3-30.158,4.2-7.723,16.09-6.257,22.306-6.257h.117c6.217,0,18.1-1.466,22.306,6.257,3.162,5.809,3,19.729,3,30.158,0,7.255-.5,17.831-1.92,19.894-4.7,6.828-14.8,14.126-23.382,14.126Z" transform="translate(-4.844 -6.036)" fill="#ecc19c"/>
      <path id="Trazado_26541" data-name="Trazado 26541" d="M220.837,138.152s.169.407.439.919l.439.85.216.453a4,4,0,0,1,.176.45,2.706,2.706,0,0,1,.12.423,2.5,2.5,0,0,1,.029.386,1.187,1.187,0,0,1-.064.367,1.111,1.111,0,0,1-.141.36c-.069.105-.11.234-.182.324s-.131.177-.183.249c-.1.149-.162.248-.162.248a2.352,2.352,0,0,0,.291-.039,3.154,3.154,0,0,0,.337-.08,1.754,1.754,0,0,0,.41-.211,1.681,1.681,0,0,0,.227-.155c.069-.069.135-.147.206-.228a1.679,1.679,0,0,0,.331-.6,1.17,1.17,0,0,0,.074-.36,1.576,1.576,0,0,0,.019-.373,2.608,2.608,0,0,0-.144-.709,3.013,3.013,0,0,0-.29-.616,4.012,4.012,0,0,0-.372-.509,3.9,3.9,0,0,0-.817-.706A3.025,3.025,0,0,0,220.837,138.152Z" transform="translate(-12.515 -18.111)" fill="#db9c94" opacity="0.6"/>
      <g id="Grupo_16094" data-name="Grupo 16094" transform="translate(184.364 101.306)">
        <path id="Trazado_26542" data-name="Trazado 26542" d="M204.61,118.341a2.378,2.378,0,0,0,2.2-.571,1.941,1.941,0,0,0-.192-2.181c-1.505-1.841-7.714-2.51-12.251-1.147-2.058.617-4.764,3.093-4.769,3.1a4.882,4.882,0,0,1,.476-.127l.566-.122q.566-.121,1.134-.233c.756-.148,1.516-.278,2.281-.37a15.445,15.445,0,0,1,2.854-.109C199.547,116.75,202.052,117.744,204.61,118.341Z" transform="translate(-189.594 -113.72)"/>
        <g id="Grupo_16093" data-name="Grupo 16093" transform="translate(10.466 8.153)">
          <path id="Trazado_26543" data-name="Trazado 26543" d="M205.957,132.081c-1.4.062-2.614-1.617-2.708-3.751s.965-3.914,2.366-3.976,2.614,1.617,2.709,3.751S207.358,132.019,205.957,132.081Z" transform="translate(-203.242 -124.353)"/>
        </g>
      </g>
      <g id="Grupo_16096" data-name="Grupo 16096" transform="translate(214.944 101.306)">
        <path id="Trazado_26544" data-name="Trazado 26544" d="M231.922,118.341a2.378,2.378,0,0,1-2.2-.571,1.941,1.941,0,0,1,.192-2.181c1.505-1.841,7.714-2.51,12.251-1.147,2.058.617,4.764,3.093,4.769,3.1a4.826,4.826,0,0,0-.477-.127l-.565-.122q-.566-.121-1.134-.233c-.756-.148-1.516-.278-2.281-.37a15.445,15.445,0,0,0-2.854-.109C236.986,116.75,234.481,117.744,231.922,118.341Z" transform="translate(-229.472 -113.72)"/>
        <g id="Grupo_16095" data-name="Grupo 16095" transform="translate(1.913 8.153)">
          <path id="Trazado_26545" data-name="Trazado 26545" d="M234.34,132.081c1.4.062,2.615-1.617,2.709-3.751s-.965-3.914-2.366-3.976-2.615,1.617-2.709,3.751S232.939,132.019,234.34,132.081Z" transform="translate(-231.967 -124.353)"/>
        </g>
      </g>
      <g id="Grupo_16097" data-name="Grupo 16097" transform="translate(196.472 132.13)">
        <path id="Trazado_26546" data-name="Trazado 26546" d="M216.169,160.814s.463-.007,1.082.018c.311.01.665.021,1.034.041s.757.033,1.14.034.767.01,1.128,0c.182,0,.357-.009.527-.02s.335-.005.485-.021.3-.015.426-.023.241-.022.337-.029c.193-.01.314-.008.314-.008a2.889,2.889,0,0,1-.208.233,2.752,2.752,0,0,1-.643.51,2.585,2.585,0,0,1-.488.255,3.255,3.255,0,0,1-.58.2,4.621,4.621,0,0,1-1.32.158,4.884,4.884,0,0,1-2.355-.641A3.064,3.064,0,0,1,216.169,160.814Z" transform="translate(-207.899 -155.523)" fill="#db9c94"/>
        <path id="Trazado_26547" data-name="Trazado 26547" d="M227.287,154.458a2.873,2.873,0,0,1-.571.119,5.113,5.113,0,0,1-.6.039c-.814.012-1.651-.015-2.49-.018s-1.688.012-2.55.079c-.43.038-.869.084-1.314.166-.228.052-.447.085-.686.163a4.166,4.166,0,0,0-.731.275l-.08.047c.012-.01-.028.011-.047.019s-.049.026-.075.039c-.051.026-.1.052-.154.083-.1.054-.2.118-.3.185a2.613,2.613,0,0,1-.371.21,1.376,1.376,0,0,1-.265.094,1.545,1.545,0,0,1-.156.036,1.594,1.594,0,0,1-.156-.036,1.368,1.368,0,0,1-.265-.094,2.625,2.625,0,0,1-.372-.21c-.1-.067-.2-.13-.3-.185-.05-.031-.1-.057-.154-.083-.026-.013-.049-.029-.075-.039s-.059-.029-.047-.019l-.08-.047a4.211,4.211,0,0,0-.731-.275c-.24-.077-.459-.11-.687-.163-.446-.081-.883-.127-1.314-.166-.863-.067-1.709-.084-2.55-.079s-1.676.031-2.49.018a5.136,5.136,0,0,1-.6-.039,2.873,2.873,0,0,1-.571-.119,4.315,4.315,0,0,1-1.11-.54,3.546,3.546,0,0,0,.934.9,3.036,3.036,0,0,0,.605.316,5.821,5.821,0,0,0,.627.213,23.951,23.951,0,0,0,2.51.509l2.453.381c.4.063.791.146,1.166.229.178.051.373.089.529.151a3.81,3.81,0,0,1,.429.17l.12.075a1.264,1.264,0,0,0,.169.081,1.7,1.7,0,0,0,.353.114,1.824,1.824,0,0,0,.763.011,7.636,7.636,0,0,1,1.695,0,1.828,1.828,0,0,0,.764-.011,1.725,1.725,0,0,0,.353-.114,1.255,1.255,0,0,0,.169-.081l.121-.075a3.736,3.736,0,0,1,.428-.17c.156-.062.352-.1.529-.151.376-.084.765-.166,1.166-.229l2.453-.381a23.951,23.951,0,0,0,2.51-.509,5.894,5.894,0,0,0,.628-.213,3.051,3.051,0,0,0,.6-.316,3.538,3.538,0,0,0,.935-.9A4.331,4.331,0,0,1,227.287,154.458Z" transform="translate(-205.384 -153.918)" fill="#db9c94"/>
      </g>
      <path id="Trazado_26548" data-name="Trazado 26548" d="M227.073,83.4s-34.6,20.25-59.908,11.5c0,0,8.631-8.125,12.837-15.213,4.55-7.668,21.832-28.965,48.125-14.011l-.575-5.091s5.464,3.6,6.268,12.269c0,0,6.493.032,7.982,3.962l-4.218-1.087A22.557,22.557,0,0,1,241.8,87.137c.778,13.222-4.061,21.135-4.061,21.135a24.8,24.8,0,0,1-4.462-11.087C231.866,85.412,229.438,85.522,227.073,83.4Z" transform="translate(0 0)" fill="#333"/>
      <g id="Grupo_16099" data-name="Grupo 16099" transform="translate(170.515 76.881)">
        <g id="Grupo_16098" data-name="Grupo 16098">
          <path id="Trazado_26549" data-name="Trazado 26549" d="M229.338,81.868s-.64.758-1.886,1.963c-.624.6-1.386,1.328-2.305,2.108S223.192,87.607,222,88.5a71.159,71.159,0,0,1-8.48,5.615c-.807.469-1.643.917-2.5,1.354-.847.455-1.729.869-2.616,1.291s-1.8.817-2.711,1.2c-.927.362-1.846.755-2.788,1.093s-1.883.676-2.839.965c-.946.314-1.9.584-2.859.83-.949.271-1.906.482-2.853.682-.941.221-1.889.37-2.816.525a50.155,50.155,0,0,1-5.391.573c-.859.064-1.7.057-2.51.061s-1.591-.026-2.341-.074a39.453,39.453,0,0,1-4.065-.4c-1.2-.191-2.235-.419-3.08-.6-1.683-.451-2.62-.748-2.62-.748s1-.016,2.705.025l3.072-.075c1.182-.087,2.505-.139,3.941-.3.718-.063,1.463-.142,2.231-.27s1.563-.19,2.372-.356c1.623-.265,3.32-.61,5.062-1.018s3.528-.887,5.326-1.437l1.353-.413,1.35-.452c.908-.283,1.8-.626,2.7-.949,1.8-.646,3.574-1.37,5.316-2.1,1.732-.751,3.439-1.5,5.066-2.28s3.2-1.551,4.678-2.307,2.876-1.487,4.152-2.19c2.556-1.4,4.671-2.621,6.152-3.49Z" transform="translate(-171.534 -81.868)" fill="#1a1a1a"/>
        </g>
      </g>
      <g id="Grupo_16101" data-name="Grupo 16101" transform="translate(168.745 72.794)">
        <g id="Grupo_16100" data-name="Grupo 16100" transform="translate(0 0)">
          <path id="Trazado_26550" data-name="Trazado 26550" d="M228.8,76.539s-.789.646-2.227,1.691-3.514,2.5-6.086,4.122c-1.284.813-2.679,1.689-4.182,2.567s-3.1,1.792-4.77,2.69-3.415,1.809-5.208,2.688-3.636,1.731-5.488,2.564c-1.867.8-3.74,1.6-5.616,2.3s-3.736,1.374-5.564,1.946c-.914.286-1.811.572-2.707.805-.887.25-1.762.482-2.623.676a49.5,49.5,0,0,1-4.889.927,31.506,31.506,0,0,1-4.205.36,14.52,14.52,0,0,1-1.763-.018,13.106,13.106,0,0,1-1.491-.125c-.449-.06-.846-.116-1.189-.172l-.861-.225-.7-.195.732-.014.865-.008c.341-.04.731-.077,1.163-.116a12.436,12.436,0,0,0,1.426-.2c.515-.09,1.071-.166,1.661-.315.59-.133,1.215-.257,1.868-.455s1.343-.335,2.053-.568c.712-.217,1.452-.432,2.208-.706.759-.258,1.547-.506,2.347-.81.8-.286,1.628-.577,2.463-.906s1.7-.64,2.56-.992c1.736-.678,3.514-1.429,5.326-2.181,1.806-.768,3.641-1.553,5.467-2.36,7.316-3.213,14.592-6.591,20.135-9,2.758-1.232,5.083-2.221,6.717-2.909S228.8,76.539,228.8,76.539Z" transform="translate(-169.226 -76.539)" fill="#1a1a1a"/>
        </g>
      </g>
      <g id="Grupo_16103" data-name="Grupo 16103" transform="translate(181.45 63.397)">
        <g id="Grupo_16102" data-name="Grupo 16102">
          <path id="Trazado_26551" data-name="Trazado 26551" d="M231.065,70.483l-2.106-.493-2.4-.509c-.924-.192-1.975-.367-3.1-.58-1.139-.182-2.368-.372-3.667-.528-1.3-.172-2.665-.294-4.073-.4-1.41-.081-2.863-.148-4.331-.122a42.739,42.739,0,0,0-4.422.261c-.732.093-1.47.156-2.189.3l-1.082.186-1.062.238a35.572,35.572,0,0,0-4.072,1.2c-.649.235-1.261.525-1.888.76l-1.764.847-1.629.908c-.533.291-1.006.636-1.488.935s-.907.635-1.327.942-.837.582-1.192.884c-.694.617-1.37,1.106-1.865,1.571-.992.929-1.6,1.451-1.6,1.451s.35-.7,1.045-1.917c.351-.6.85-1.287,1.423-2.083.288-.4.643-.778.995-1.2a13.312,13.312,0,0,1,1.194-1.267c.445-.413.884-.88,1.392-1.3s1.048-.841,1.612-1.264c.584-.391,1.191-.79,1.82-1.185.649-.357,1.315-.725,2.009-1.064a27.279,27.279,0,0,1,4.464-1.651l1.179-.315c.4-.09.8-.163,1.2-.239.8-.172,1.617-.261,2.43-.37.814-.091,1.631-.126,2.443-.176.811-.008,1.622-.038,2.42.008l1.192.051,1.175.109c.779.061,1.54.18,2.288.292a40.013,40.013,0,0,1,4.244.921c1.332.349,2.557.79,3.679,1.2a36.714,36.714,0,0,1,5.221,2.432A19.624,19.624,0,0,1,231.065,70.483Z" transform="translate(-185.794 -64.284)" fill="#1a1a1a"/>
        </g>
      </g>
      <g id="Grupo_16105" data-name="Grupo 16105" transform="translate(170.515 70.513)">
        <g id="Grupo_16104" data-name="Grupo 16104">
          <path id="Trazado_26552" data-name="Trazado 26552" d="M224.7,73.8l-.66.13c-.429.072-1.053.229-1.846.386-.791.183-1.748.4-2.838.665s-2.31.59-3.637.949c-.665.168-1.351.369-2.057.6l-2.19.648-2.291.751-1.184.379-1.192.432-2.444.866-2.47.975c-1.674.62-3.323,1.376-4.985,2.1-.415.182-.839.345-1.248.538l-1.218.6-2.432,1.163c-1.606.781-3.129,1.659-4.652,2.429-.772.369-1.468.836-2.185,1.238l-2.087,1.207c-1.386.745-2.606,1.59-3.78,2.31l-1.677,1.05a16.95,16.95,0,0,0-1.506.966c-.915.647-1.741,1.186-2.417,1.636-1.357.9-2.168,1.384-2.168,1.384s.592-.719,1.689-1.933c.551-.6,1.215-1.348,2.01-2.171a37.961,37.961,0,0,1,2.807-2.613,41.807,41.807,0,0,1,3.5-2.911l2.006-1.473c.688-.5,1.383-1.024,2.143-1.475l2.291-1.41c.781-.466,1.551-.98,2.388-1.382l2.494-1.282,1.262-.635c.424-.2.861-.383,1.293-.574,1.74-.732,3.462-1.507,5.234-2.076.876-.307,1.744-.616,2.612-.887l2.593-.726,1.267-.345,1.26-.276,2.436-.513c1.6-.252,3.1-.515,4.514-.633.7-.067,1.371-.149,2.011-.2l1.824-.079c1.14-.063,2.144-.018,2.961-.006A23.862,23.862,0,0,1,224.7,73.8Z" transform="translate(-171.534 -73.564)" fill="#1a1a1a"/>
        </g>
      </g>
      <g id="Grupo_16108" data-name="Grupo 16108" transform="translate(181.979 104.844)">
        <g id="Grupo_16107" data-name="Grupo 16107">
          <g id="Grupo_16106" data-name="Grupo 16106">
            <path id="Trazado_26553" data-name="Trazado 26553" d="M239.134,120.141s-2.748-.559-4.279-.874-3.131-.63-4.523-.77a21.176,21.176,0,0,0-4.7,0c-1.67.207-3.619.386-5.394.746s-3.341.741-3.967.88a24.8,24.8,0,0,1-3.309.245v0l-.078,0c-.074,0-.141,0-.2-.005v.007a24.66,24.66,0,0,1-3.308-.252c-.626-.14-2.192-.524-3.966-.887s-3.722-.547-5.392-.758a21.216,21.216,0,0,0-4.7,0c-1.392.138-2.992.449-4.524.761s-4.28.866-4.28.866a23.014,23.014,0,0,0,0,2.47,2.031,2.031,0,0,0,.225.853,12.784,12.784,0,0,0,1.216,1.411c.365.366.383.661.608,1.427s.693,2.505,1.057,3.515a17.276,17.276,0,0,0,1.649,3.933,6.474,6.474,0,0,0,2.972,2.16,13.5,13.5,0,0,0,4.07.909,18.144,18.144,0,0,0,3.392-.118,7.889,7.889,0,0,0,2.557-.676,9.279,9.279,0,0,0,2.646-1.859,17.2,17.2,0,0,0,2.474-3.442,14.654,14.654,0,0,0,1.251-3.287,5.231,5.231,0,0,1,.982-2.226c.143-.178.715-.188,1.064-.176V125l.118-.008c.1.005.157.011.157.011v-.018c.348-.011.922,0,1.064.179a5.235,5.235,0,0,1,.978,2.228,14.611,14.611,0,0,0,1.244,3.29,17.216,17.216,0,0,0,2.467,3.447,9.282,9.282,0,0,0,2.642,1.864,7.9,7.9,0,0,0,2.557.681,18.118,18.118,0,0,0,3.392.125,13.5,13.5,0,0,0,4.072-.9,6.473,6.473,0,0,0,2.977-2.154,17.29,17.29,0,0,0,1.657-3.93c.367-1.009.837-2.748,1.064-3.514s.245-1.061.61-1.426a12.769,12.769,0,0,0,1.219-1.408,2.027,2.027,0,0,0,.227-.852A22.944,22.944,0,0,0,239.134,120.141Zm-29.792,5.55a11.856,11.856,0,0,1-1.07,3.2,10.307,10.307,0,0,1-4.139,5.121,10.767,10.767,0,0,1-6.484,1.123,7.163,7.163,0,0,1-5.445-3.21,14.073,14.073,0,0,1-1.623-7.593c.071-2.381,1.791-3.471,3.981-3.872a32.421,32.421,0,0,1,5.417-.525,16.436,16.436,0,0,1,6.24.939,6,6,0,0,1,2.6,1.838A3.589,3.589,0,0,1,209.342,125.691Zm25.717-.623c-.127,3.3-.777,7.5-4.01,9.21a8.949,8.949,0,0,1-3.268.913,9.992,9.992,0,0,1-7.314-1.863A12.777,12.777,0,0,1,216.3,125.7c-.457-4.148,3.814-5.412,7.194-5.669a26.837,26.837,0,0,1,8.1.515c1.941.472,3.514,1.626,3.484,3.789C235.074,124.567,235.068,124.814,235.059,125.067Z" transform="translate(-186.483 -118.334)"/>
          </g>
        </g>
      </g>
    </g>
    <g id="Grupo_16126" data-name="Grupo 16126" transform="translate(203.99 1410.521)">
      <path id="Trazado_26554" data-name="Trazado 26554" d="M88.751,180.131a68.186,68.186,0,0,1-.783-13.359H68.47a68.156,68.156,0,0,1-.783,13.359c-1.132,6.072-7.895,6.072-7.895,6.072l18.426,4.883L96.645,186.2S89.882,186.2,88.751,180.131Z" transform="translate(-7.084 -26.161)" fill="#ecc19c"/>
      <g id="Grupo_16110" data-name="Grupo 16110" transform="translate(61.337 139.502)">
        <path id="Trazado_26555" data-name="Trazado 26555" d="M91.414,178.88a9.232,9.232,0,0,1-8.507,1.331c-7.339-2.166-10.517-5.564-11.668-7.117.24-4.407.242-7.793.242-7.793l19.5.227A67.939,67.939,0,0,0,91.414,178.88Z" transform="translate(-71.238 -165.301)" fill="#cca88d"/>
      </g>
      <g id="Grupo_16111" data-name="Grupo 16111" transform="translate(37.91 105.957)">
        <path id="Trazado_26556" data-name="Trazado 26556" d="M47.412,123.9s-4.457-5.99-6.321-1.31-.665,11.252,1.371,14.356,6.109,8.064,7.4,8.158,2.341-.476,3.639-1.665Z" transform="translate(-40.163 -120.805)" fill="#ecc19c"/>
        <path id="Trazado_26557" data-name="Trazado 26557" d="M49.413,128.516s-2.99-4.019-4.241-.879a12,12,0,0,0,.919,9.632c1.366,2.083,4.1,5.411,4.965,5.474a3.2,3.2,0,0,0,2.441-1.117Z" transform="translate(-41.243 -122.191)" fill="#db9c94" opacity="0.6"/>
      </g>
      <g id="Grupo_16112" data-name="Grupo 16112" transform="translate(92.611 106.784)">
        <path id="Trazado_26558" data-name="Trazado 26558" d="M118.274,124.849s4.115-5.723,5.88-1.219a17.572,17.572,0,0,1-1.188,13.773c-1.877,2.968-5.643,7.7-6.844,7.786s-2.183-.471-3.4-1.621Z" transform="translate(-112.722 -121.902)" fill="#ecc19c"/>
        <path id="Trazado_26559" data-name="Trazado 26559" d="M117.756,129.266s2.761-3.839,3.946-.818a11.791,11.791,0,0,1-.8,9.241c-1.259,1.991-3.785,5.168-4.591,5.224a2.98,2.98,0,0,1-2.281-1.087Z" transform="translate(-113.044 -123.228)" fill="#db9c94" opacity="0.6"/>
      </g>
      <path id="Trazado_26560" data-name="Trazado 26560" d="M73.843,67.257c.15,0,.3.006.448.007s.3-.007.448-.007c15.837,0,30.729,12.992,30.729,30.533s-14.892,32.99-30.729,32.99c-.15,0-.3-.006-.448-.009s-.3.009-.448.009c-15.837,0-30.73-15.449-30.73-32.99S58.006,67.257,73.843,67.257Z" transform="translate(-2.979 -1.668)" fill="#333"/>
      <path id="Trazado_26561" data-name="Trazado 26561" d="M76.662,155.721c-8.434,0-18.367-7.175-22.987-13.888-1.4-2.028-1.888-12.425-1.888-19.558,0-10.253-.164-23.938,2.945-29.649,4.132-7.592,15.818-6.151,21.929-6.151h.115c6.112,0,17.8-1.441,21.929,6.151,3.108,5.711,2.945,19.4,2.945,29.649,0,7.132-.492,17.53-1.888,19.558-4.62,6.712-14.553,13.888-22.986,13.888Z" transform="translate(-5.114 -6.371)" fill="#ecc19c"/>
      <path id="Trazado_26562" data-name="Trazado 26562" d="M84.683,138.152s.165.4.432.9l.431.835.213.446a3.938,3.938,0,0,1,.173.443,2.746,2.746,0,0,1,.118.416,2.45,2.45,0,0,1,.028.379,1.188,1.188,0,0,1-.063.361,1.127,1.127,0,0,1-.139.354c-.069.1-.109.23-.179.319s-.129.174-.18.245c-.1.146-.16.243-.16.243a2.332,2.332,0,0,0,.287-.038,3.149,3.149,0,0,0,.332-.078,1.72,1.72,0,0,0,.4-.207,1.657,1.657,0,0,0,.224-.152c.067-.068.133-.145.2-.224a1.65,1.65,0,0,0,.325-.593,1.151,1.151,0,0,0,.073-.354,1.55,1.55,0,0,0,.019-.367,2.564,2.564,0,0,0-.142-.7,3,3,0,0,0-.285-.605,3.944,3.944,0,0,0-.366-.5,3.836,3.836,0,0,0-.8-.694A2.974,2.974,0,0,0,84.683,138.152Z" transform="translate(-13.21 -19.117)" fill="#db9c94" opacity="0.6"/>
      <g id="Grupo_16114" data-name="Grupo 16114" transform="translate(47.919 100.616)">
        <path id="Trazado_26563" data-name="Trazado 26563" d="M68.2,118.263a2.337,2.337,0,0,0,2.158-.561,1.908,1.908,0,0,0-.188-2.144c-1.481-1.81-7.583-2.467-12.044-1.128-2.023.607-4.684,3.04-4.689,3.046.22-.069.343-.1.469-.125l.556-.12c.372-.079.743-.156,1.115-.229.743-.146,1.49-.273,2.243-.364a15.182,15.182,0,0,1,2.806-.107C63.224,116.7,65.687,117.676,68.2,118.263Z" transform="translate(-53.439 -113.72)"/>
        <g id="Grupo_16113" data-name="Grupo 16113" transform="translate(10.29 8.016)">
          <path id="Trazado_26564" data-name="Trazado 26564" d="M69.757,131.951c-1.378.061-2.57-1.59-2.663-3.687s.948-3.848,2.326-3.909,2.57,1.59,2.663,3.688S71.135,131.889,69.757,131.951Z" transform="translate(-67.088 -124.353)"/>
        </g>
      </g>
      <g id="Grupo_16116" data-name="Grupo 16116" transform="translate(77.982 100.616)">
        <path id="Trazado_26565" data-name="Trazado 26565" d="M95.727,118.263a2.337,2.337,0,0,1-2.158-.561,1.907,1.907,0,0,1,.189-2.144c1.48-1.81,7.582-2.467,12.043-1.128,2.023.607,4.684,3.04,4.689,3.046-.22-.069-.343-.1-.469-.125l-.556-.12c-.372-.079-.743-.156-1.115-.229-.743-.146-1.49-.273-2.243-.364a15.182,15.182,0,0,0-2.806-.107C100.705,116.7,98.242,117.676,95.727,118.263Z" transform="translate(-93.318 -113.72)"/>
        <g id="Grupo_16115" data-name="Grupo 16115" transform="translate(1.881 8.016)">
          <path id="Trazado_26566" data-name="Trazado 26566" d="M98.146,131.951c1.378.061,2.57-1.59,2.663-3.687s-.948-3.848-2.326-3.909-2.57,1.59-2.663,3.688S96.768,131.889,98.146,131.951Z" transform="translate(-95.813 -124.353)"/>
        </g>
      </g>
      <g id="Grupo_16117" data-name="Grupo 16117" transform="translate(59.822 130.92)">
        <path id="Trazado_26567" data-name="Trazado 26567" d="M80.015,160.814s.455-.007,1.064.017c.306.01.654.02,1.016.041s.743.032,1.121.033.753.01,1.108,0c.18,0,.352-.009.518-.02s.329-.005.477-.021.292-.014.418-.023.237-.022.332-.029c.19-.01.308-.008.308-.008a2.84,2.84,0,0,1-.2.229,2.7,2.7,0,0,1-.633.5,2.511,2.511,0,0,1-.479.251,3.2,3.2,0,0,1-.571.2,4.548,4.548,0,0,1-1.3.155,4.8,4.8,0,0,1-2.314-.63A3,3,0,0,1,80.015,160.814Z" transform="translate(-71.884 -155.612)" fill="#db9c94"/>
        <path id="Trazado_26568" data-name="Trazado 26568" d="M90.763,154.449a2.825,2.825,0,0,1-.562.117,5.042,5.042,0,0,1-.593.038c-.8.012-1.623-.014-2.448-.018s-1.659.011-2.507.078c-.424.038-.854.083-1.292.163-.225.051-.44.084-.675.16a4.125,4.125,0,0,0-.719.27l-.078.046c.012-.01-.026.011-.046.019s-.047.026-.074.038c-.051.026-.1.051-.152.081-.1.054-.2.116-.3.182a2.578,2.578,0,0,1-.366.207,1.345,1.345,0,0,1-.26.093,1.567,1.567,0,0,1-.153.035,1.519,1.519,0,0,1-.153-.035,1.354,1.354,0,0,1-.261-.093,2.566,2.566,0,0,1-.365-.207c-.1-.066-.2-.128-.3-.182-.049-.03-.1-.056-.152-.081-.026-.013-.048-.029-.074-.038s-.057-.029-.046-.019l-.078-.046a4.1,4.1,0,0,0-.718-.27c-.235-.076-.451-.109-.675-.16-.438-.08-.868-.125-1.292-.163-.848-.066-1.68-.082-2.507-.078s-1.647.03-2.447.018a5.032,5.032,0,0,1-.593-.038,2.825,2.825,0,0,1-.562-.117,4.258,4.258,0,0,1-1.092-.531,3.489,3.489,0,0,0,.919.886,3,3,0,0,0,.594.311,5.8,5.8,0,0,0,.617.21,23.542,23.542,0,0,0,2.467.5l2.412.375c.394.062.777.143,1.147.225.174.05.366.087.52.149a3.67,3.67,0,0,1,.421.167l.119.074a1.242,1.242,0,0,0,.167.079,1.665,1.665,0,0,0,.347.112,1.793,1.793,0,0,0,.75.011,7.507,7.507,0,0,1,1.666,0,1.793,1.793,0,0,0,.75-.011,1.665,1.665,0,0,0,.347-.112,1.242,1.242,0,0,0,.167-.079l.118-.074a3.743,3.743,0,0,1,.421-.167c.153-.061.345-.1.52-.149.369-.082.752-.164,1.147-.225l2.412-.375a23.542,23.542,0,0,0,2.467-.5,5.724,5.724,0,0,0,.617-.21,2.984,2.984,0,0,0,.595-.311,3.474,3.474,0,0,0,.918-.886A4.242,4.242,0,0,1,90.763,154.449Z" transform="translate(-69.229 -153.918)" fill="#db9c94"/>
      </g>
      <path id="Trazado_26569" data-name="Trazado 26569" d="M89.906,83.012S55.888,102.92,31.01,94.32c0,0,8.486-7.987,12.621-14.956C48.1,71.825,65.095,50.888,90.943,65.589l-.565-5s5.371,3.538,6.162,12.062c0,0,6.385.032,7.848,3.9l-4.146-1.068a22.176,22.176,0,0,1,4.146,11.214c.764,13-3.993,20.778-3.993,20.778a24.375,24.375,0,0,1-4.387-10.9C94.618,84.99,92.232,85.1,89.906,83.012Z" transform="translate(0 0)" fill="#333"/>
      <g id="Grupo_16119" data-name="Grupo 16119" transform="translate(34.304 76.604)">
        <g id="Grupo_16118" data-name="Grupo 16118" transform="translate(0 0)">
          <path id="Trazado_26570" data-name="Trazado 26570" d="M92.207,81.868s-.629.746-1.853,1.93c-.614.589-1.362,1.306-2.266,2.072S86.165,87.51,85,88.385a69.882,69.882,0,0,1-8.336,5.521c-.793.461-1.616.9-2.458,1.331-.832.448-1.7.854-2.571,1.27s-1.766.8-2.666,1.184c-.912.356-1.815.743-2.741,1.074s-1.852.665-2.791.949c-.931.309-1.872.574-2.812.816-.932.267-1.873.474-2.8.67-.926.217-1.857.364-2.768.516a49.323,49.323,0,0,1-5.3.563c-.844.063-1.671.056-2.467.06s-1.565-.026-2.3-.072a38.809,38.809,0,0,1-4-.4c-1.18-.188-2.2-.412-3.028-.59-1.655-.443-2.575-.736-2.575-.736s.982-.016,2.659.025l3.02-.074c1.162-.086,2.464-.136,3.875-.295.706-.062,1.439-.139,2.194-.265s1.536-.187,2.331-.35c1.6-.261,3.264-.6,4.977-1s3.468-.872,5.235-1.413L61,96.767l1.328-.444c.893-.278,1.771-.616,2.656-.933,1.77-.636,3.514-1.347,5.227-2.065,1.7-.739,3.381-1.471,4.981-2.241s3.144-1.525,4.6-2.268,2.828-1.462,4.082-2.153c2.512-1.377,4.592-2.577,6.048-3.431Z" transform="translate(-35.38 -81.868)" fill="#1a1a1a"/>
        </g>
      </g>
      <g id="Grupo_16121" data-name="Grupo 16121" transform="translate(32.564 72.586)">
        <g id="Grupo_16120" data-name="Grupo 16120" transform="translate(0)">
          <path id="Trazado_26571" data-name="Trazado 26571" d="M91.639,76.539s-.776.636-2.188,1.662-3.456,2.46-5.983,4.053c-1.263.8-2.634,1.661-4.112,2.523s-3.044,1.762-4.691,2.645-3.357,1.778-5.12,2.642-3.575,1.7-5.4,2.521c-1.836.789-3.677,1.57-5.521,2.265s-3.673,1.351-5.471,1.913c-.9.281-1.78.562-2.66.792-.873.246-1.732.473-2.579.665a48.692,48.692,0,0,1-4.806.911,30.984,30.984,0,0,1-4.134.354,14.286,14.286,0,0,1-1.734-.017,12.917,12.917,0,0,1-1.466-.123c-.441-.059-.832-.114-1.169-.169l-.847-.221-.692-.191.72-.014.85-.008c.336-.039.719-.076,1.144-.114a12.214,12.214,0,0,0,1.4-.2c.507-.089,1.053-.164,1.634-.31.58-.13,1.194-.253,1.836-.447s1.321-.329,2.018-.559c.7-.213,1.427-.424,2.171-.694.747-.253,1.521-.5,2.308-.8.789-.281,1.6-.567,2.422-.891s1.666-.629,2.516-.975c1.706-.666,3.455-1.4,5.236-2.144,1.775-.755,3.579-1.527,5.375-2.32,7.192-3.159,14.345-6.48,19.794-8.852,2.711-1.211,5-2.183,6.6-2.859S91.639,76.539,91.639,76.539Z" transform="translate(-33.072 -76.539)" fill="#1a1a1a"/>
        </g>
      </g>
      <g id="Grupo_16123" data-name="Grupo 16123" transform="translate(45.054 63.348)">
        <g id="Grupo_16122" data-name="Grupo 16122">
          <path id="Trazado_26572" data-name="Trazado 26572" d="M94.145,70.378l-2.07-.485-2.363-.5c-.909-.188-1.941-.36-3.052-.57-1.119-.179-2.328-.366-3.605-.519-1.275-.169-2.62-.289-4.005-.391-1.386-.079-2.814-.146-4.258-.12a42,42,0,0,0-4.346.256c-.72.091-1.445.154-2.152.3l-1.064.182-1.045.234a35.016,35.016,0,0,0-4,1.178c-.637.231-1.24.516-1.855.747l-1.735.832-1.6.893c-.524.286-.989.625-1.463.919s-.893.624-1.306.926-.823.572-1.172.869c-.683.607-1.348,1.087-1.834,1.545-.974.914-1.578,1.426-1.578,1.426s.345-.691,1.028-1.885c.345-.593.836-1.265,1.4-2.048.282-.391.632-.764.977-1.184a13.187,13.187,0,0,1,1.174-1.245c.437-.406.87-.865,1.369-1.278s1.03-.827,1.585-1.242c.574-.384,1.171-.776,1.79-1.165.638-.351,1.293-.713,1.975-1.046a26.836,26.836,0,0,1,4.388-1.623l1.16-.31c.391-.088.786-.16,1.181-.235.789-.169,1.589-.256,2.389-.363.8-.09,1.6-.124,2.4-.173.8-.008,1.6-.037,2.379.008l1.173.05,1.154.107c.767.06,1.515.177,2.25.287a39.352,39.352,0,0,1,4.173.905c1.309.343,2.514.776,3.616,1.181a36.052,36.052,0,0,1,5.132,2.391A19.164,19.164,0,0,1,94.145,70.378Z" transform="translate(-49.639 -64.284)" fill="#1a1a1a"/>
        </g>
      </g>
      <g id="Grupo_16125" data-name="Grupo 16125" transform="translate(34.304 70.344)">
        <g id="Grupo_16124" data-name="Grupo 16124" transform="translate(0 0)">
          <path id="Trazado_26573" data-name="Trazado 26573" d="M87.644,73.793l-.65.127c-.421.071-1.035.225-1.815.379-.777.18-1.718.389-2.789.654s-2.272.58-3.576.933c-.654.165-1.328.363-2.022.585l-2.153.637-2.252.738-1.164.372-1.172.425-2.4.851-2.427.958c-1.646.609-3.267,1.353-4.9,2.062-.408.179-.824.339-1.227.528l-1.2.587L55.5,84.773c-1.578.768-3.076,1.631-4.573,2.388-.759.363-1.444.822-2.148,1.218l-2.051,1.187c-1.363.733-2.562,1.564-3.717,2.271l-1.649,1.032a16.643,16.643,0,0,0-1.48.95c-.9.636-1.711,1.165-2.376,1.608-1.334.883-2.131,1.361-2.131,1.361s.581-.707,1.661-1.9c.541-.594,1.195-1.325,1.976-2.134a37.167,37.167,0,0,1,2.76-2.568,40.86,40.86,0,0,1,3.438-2.862l1.972-1.448c.676-.491,1.36-1.006,2.106-1.45l2.253-1.386c.767-.458,1.524-.963,2.347-1.358l2.452-1.26,1.24-.624c.418-.2.847-.377,1.272-.564,1.71-.72,3.4-1.481,5.144-2.041.862-.3,1.715-.605,2.568-.872l2.549-.714,1.245-.339,1.239-.271,2.394-.5c1.575-.248,3.052-.507,4.437-.622.691-.066,1.349-.146,1.978-.192l1.793-.078c1.121-.062,2.107-.017,2.911-.006A23.457,23.457,0,0,1,87.644,73.793Z" transform="translate(-35.38 -73.564)" fill="#1a1a1a"/>
        </g>
      </g>
    </g>
    <g id="Grupo_16144" data-name="Grupo 16144" transform="translate(-341.768 1599.498)">
      <path id="Trazado_26574" data-name="Trazado 26574" d="M635.264,347.5a69.96,69.96,0,0,1-.8-13.707H614.454a69.934,69.934,0,0,1-.8,13.707c-1.161,6.23-8.1,6.23-8.1,6.23l18.907,5.011,18.906-5.011S636.425,353.733,635.264,347.5Z" transform="translate(-6.518 -24.072)" fill="#ecc19c"/>
      <g id="Grupo_16127" data-name="Grupo 16127" transform="translate(607.886 308.586)">
        <path id="Trazado_26575" data-name="Trazado 26575" d="M637.7,346.257a9.471,9.471,0,0,1-8.729,1.366c-7.53-2.222-10.792-5.709-11.973-7.3.247-4.522.248-8,.248-8l20.007.233A69.7,69.7,0,0,0,637.7,346.257Z" transform="translate(-616.996 -332.325)" fill="#cca88d"/>
      </g>
      <g id="Grupo_16128" data-name="Grupo 16128" transform="translate(583.848 274.167)">
        <path id="Trazado_26576" data-name="Trazado 26576" d="M593.359,291.007s-4.573-6.146-6.486-1.344-.682,11.545,1.406,14.73,6.269,8.274,7.592,8.37,2.4-.488,3.734-1.708Z" transform="translate(-585.921 -287.829)" fill="#ecc19c"/>
        <path id="Trazado_26577" data-name="Trazado 26577" d="M595.3,295.594s-3.068-4.124-4.351-.9a12.312,12.312,0,0,0,.943,9.883c1.4,2.137,4.206,5.551,5.094,5.616a3.276,3.276,0,0,0,2.5-1.146Z" transform="translate(-586.915 -289.105)" fill="#db9c94" opacity="0.6"/>
      </g>
      <g id="Grupo_16129" data-name="Grupo 16129" transform="translate(639.975 275.015)">
        <path id="Trazado_26578" data-name="Trazado 26578" d="M664.176,291.949s4.222-5.872,6.034-1.25a18.031,18.031,0,0,1-1.219,14.132c-1.926,3.045-5.79,7.9-7.022,7.988s-2.24-.483-3.489-1.662Z" transform="translate(-658.48 -288.925)" fill="#ecc19c"/>
        <path id="Trazado_26579" data-name="Trazado 26579" d="M663.611,296.342s2.833-3.94,4.049-.839a12.1,12.1,0,0,1-.818,9.482c-1.292,2.043-3.884,5.3-4.711,5.36a3.059,3.059,0,0,1-2.341-1.116Z" transform="translate(-658.777 -290.145)" fill="#db9c94" opacity="0.6"/>
      </g>
      <path id="Trazado_26580" data-name="Trazado 26580" d="M620.4,234.28c.154,0,.306.006.46.008s.305-.008.459-.008c16.251,0,31.531,13.331,31.531,31.33s-15.28,33.85-31.531,33.85c-.153,0-.306-.005-.459-.009s-.306.009-.46.009c-16.25,0-31.531-15.851-31.531-33.85S604.152,234.28,620.4,234.28Z" transform="translate(-2.741 -1.535)" fill="#333"/>
      <path id="Trazado_26581" data-name="Trazado 26581" d="M623.069,324.552c-8.654,0-18.845-7.362-23.586-14.249-1.432-2.081-1.937-12.75-1.937-20.068,0-10.521-.168-24.562,3.022-30.422,4.24-7.79,16.23-6.311,22.5-6.311h.118c6.271,0,18.261-1.479,22.5,6.311,3.189,5.86,3.021,19.9,3.021,30.422,0,7.318-.5,17.987-1.937,20.068-4.741,6.887-14.932,14.249-23.586,14.249Z" transform="translate(-4.705 -5.863)" fill="#ecc19c"/>
      <path id="Trazado_26582" data-name="Trazado 26582" d="M637.2,250.623s-34.906,20.427-60.432,11.6c0,0,8.707-8.2,12.95-15.346,4.591-7.735,22.024-29.219,48.546-14.135l-.58-5.135s5.511,3.629,6.323,12.376c0,0,6.551.033,8.052,4l-4.254-1.1a22.754,22.754,0,0,1,4.254,11.506c.784,13.336-4.1,21.32-4.1,21.32a25.01,25.01,0,0,1-4.5-11.184C642.035,252.653,639.586,252.765,637.2,250.623Z" transform="translate(0 0)" fill="#333"/>
      <g id="Grupo_16131" data-name="Grupo 16131" transform="translate(580.148 244.048)">
        <g id="Grupo_16130" data-name="Grupo 16130" transform="translate(0)">
          <path id="Trazado_26583" data-name="Trazado 26583" d="M639.447,248.892s-.646.765-1.9,1.98c-.63.6-1.4,1.34-2.325,2.126s-1.973,1.682-3.173,2.58a71.615,71.615,0,0,1-8.553,5.664c-.814.473-1.658.925-2.522,1.366-.854.46-1.744.876-2.638,1.3s-1.812.825-2.735,1.216c-.936.364-1.862.762-2.813,1.1s-1.9.682-2.864.973c-.955.318-1.921.589-2.885.837-.956.275-1.922.487-2.878.688-.95.223-1.905.374-2.84.53a50.819,50.819,0,0,1-5.439.578c-.866.065-1.714.057-2.531.061s-1.606-.026-2.362-.074a39.8,39.8,0,0,1-4.1-.406c-1.211-.192-2.254-.422-3.107-.606-1.7-.454-2.642-.754-2.642-.754s1.008-.017,2.728.026l3.1-.076c1.193-.088,2.527-.141,3.976-.3.725-.064,1.477-.143,2.251-.272s1.576-.192,2.392-.359c1.637-.268,3.349-.615,5.107-1.027s3.558-.9,5.371-1.45l1.365-.416,1.363-.456c.916-.286,1.817-.632,2.725-.958,1.815-.653,3.605-1.382,5.363-2.119,1.747-.758,3.469-1.51,5.111-2.3s3.226-1.565,4.719-2.328,2.9-1.5,4.189-2.208c2.577-1.412,4.712-2.644,6.206-3.52Z" transform="translate(-581.138 -248.892)" fill="#1a1a1a"/>
        </g>
      </g>
      <g id="Grupo_16133" data-name="Grupo 16133" transform="translate(578.363 239.926)">
        <g id="Grupo_16132" data-name="Grupo 16132">
          <path id="Trazado_26584" data-name="Trazado 26584" d="M638.924,243.563s-.8.652-2.246,1.706-3.546,2.524-6.139,4.158c-1.3.819-2.7,1.7-4.219,2.589s-3.123,1.808-4.813,2.714-3.445,1.825-5.253,2.711-3.668,1.746-5.537,2.587c-1.884.81-3.773,1.611-5.665,2.324s-3.769,1.385-5.614,1.963c-.921.289-1.826.576-2.73.811-.9.253-1.778.486-2.646.683a49.7,49.7,0,0,1-4.932.934,31.648,31.648,0,0,1-4.241.364,14.664,14.664,0,0,1-1.779-.017,13.061,13.061,0,0,1-1.5-.127c-.453-.06-.853-.116-1.2-.173l-.869-.226-.71-.2.739-.014.872-.008c.345-.04.738-.078,1.174-.117a12.545,12.545,0,0,0,1.438-.207c.521-.091,1.081-.168,1.675-.318.6-.134,1.226-.259,1.884-.458s1.355-.338,2.071-.573c.718-.22,1.464-.436,2.228-.712.767-.26,1.562-.511,2.368-.818.81-.288,1.643-.581,2.485-.914s1.71-.645,2.582-1c1.75-.685,3.545-1.441,5.372-2.2s3.672-1.566,5.514-2.379c7.38-3.242,14.72-6.648,20.311-9.083,2.782-1.243,5.127-2.241,6.775-2.934S638.924,243.563,638.924,243.563Z" transform="translate(-578.83 -243.563)" fill="#1a1a1a"/>
        </g>
      </g>
      <g id="Grupo_16135" data-name="Grupo 16135" transform="translate(591.178 230.446)">
        <g id="Grupo_16134" data-name="Grupo 16134" transform="translate(0)">
          <path id="Trazado_26585" data-name="Trazado 26585" d="M641.065,237.561l-2.125-.5-2.425-.514c-.933-.194-1.992-.37-3.132-.586-1.149-.183-2.389-.374-3.7-.532-1.308-.174-2.689-.3-4.11-.4-1.422-.081-2.888-.149-4.369-.123a43.315,43.315,0,0,0-4.459.263c-.739.094-1.483.159-2.208.306l-1.091.187-1.072.24a35.936,35.936,0,0,0-4.107,1.21c-.654.237-1.272.528-1.9.767l-1.78.854-1.644.916c-.537.293-1.014.641-1.5.943s-.916.64-1.34.949-.845.588-1.2.893c-.7.622-1.383,1.115-1.882,1.585-1,.938-1.619,1.464-1.619,1.464s.354-.709,1.055-1.934c.354-.61.858-1.3,1.436-2.1.289-.4.648-.784,1-1.215a13.446,13.446,0,0,1,1.2-1.278c.449-.416.893-.887,1.4-1.311s1.057-.849,1.626-1.276c.589-.394,1.2-.8,1.836-1.194.654-.36,1.327-.732,2.027-1.074a27.606,27.606,0,0,1,4.5-1.666l1.19-.318c.4-.09.806-.163,1.211-.241.81-.173,1.631-.262,2.452-.372.821-.092,1.645-.127,2.464-.179.818-.008,1.637-.038,2.441.009l1.2.051,1.184.109c.787.062,1.554.183,2.308.295a40.568,40.568,0,0,1,4.281.93c1.344.352,2.58.8,3.711,1.211a36.992,36.992,0,0,1,5.266,2.454A19.755,19.755,0,0,1,641.065,237.561Z" transform="translate(-595.397 -231.307)" fill="#1a1a1a"/>
        </g>
      </g>
      <g id="Grupo_16137" data-name="Grupo 16137" transform="translate(580.148 237.624)">
        <g id="Grupo_16136" data-name="Grupo 16136" transform="translate(0)">
          <path id="Trazado_26586" data-name="Trazado 26586" d="M634.765,240.823l-.667.13c-.432.073-1.062.232-1.862.389-.8.185-1.763.4-2.862.671s-2.331.6-3.669.958c-.671.169-1.363.371-2.075.6l-2.209.654-2.311.757-1.194.381-1.2.436-2.465.874-2.491.982c-1.689.626-3.352,1.389-5.029,2.116-.418.183-.845.348-1.259.542l-1.229.6-2.453,1.173c-1.619.788-3.156,1.674-4.692,2.45-.779.372-1.481.843-2.2,1.248l-2.106,1.218c-1.4.752-2.628,1.6-3.813,2.33l-1.692,1.059a17.075,17.075,0,0,0-1.518.975c-.924.653-1.756,1.2-2.439,1.65-1.368.9-2.186,1.4-2.186,1.4s.6-.726,1.7-1.95c.555-.61,1.226-1.36,2.027-2.19a37.972,37.972,0,0,1,2.832-2.635,42.062,42.062,0,0,1,3.528-2.937l2.024-1.485c.694-.5,1.4-1.033,2.16-1.487l2.312-1.423c.787-.47,1.563-.988,2.408-1.394l2.516-1.293,1.272-.64c.428-.207.869-.387,1.3-.579,1.754-.739,3.492-1.521,5.279-2.094.884-.31,1.76-.621,2.635-.895l2.615-.733,1.278-.348,1.271-.278,2.457-.518c1.616-.254,3.132-.521,4.553-.639.708-.068,1.384-.149,2.03-.2l1.839-.08c1.15-.064,2.162-.018,2.987-.006A24.07,24.07,0,0,1,634.765,240.823Z" transform="translate(-581.138 -240.588)" fill="#1a1a1a"/>
        </g>
      </g>
      <path id="Trazado_26587" data-name="Trazado 26587" d="M630.635,307.036s.17.411.443.927l.443.857.218.457a3.979,3.979,0,0,1,.177.454,2.725,2.725,0,0,1,.121.427,2.421,2.421,0,0,1,.029.389,1.175,1.175,0,0,1-.064.371,1.137,1.137,0,0,1-.142.363c-.07.106-.111.236-.183.327s-.132.178-.185.251c-.1.15-.164.25-.164.25a2.39,2.39,0,0,0,.295-.039,3.232,3.232,0,0,0,.34-.08,1.78,1.78,0,0,0,.412-.213,1.655,1.655,0,0,0,.23-.156c.07-.07.136-.149.208-.231a1.689,1.689,0,0,0,.333-.607,1.182,1.182,0,0,0,.075-.363,1.6,1.6,0,0,0,.019-.377,2.63,2.63,0,0,0-.145-.714,3.043,3.043,0,0,0-.292-.621,4.052,4.052,0,0,0-.375-.514,3.937,3.937,0,0,0-.825-.712A3.03,3.03,0,0,0,630.635,307.036Z" transform="translate(-12.199 -18.012)" fill="#db9c94" opacity="0.6"/>
      <g id="Grupo_16138" data-name="Grupo 16138" transform="translate(604.529 298.559)">
        <path id="Trazado_26588" data-name="Trazado 26588" d="M633.277,335.613s-.5-.008-1.165.019c-.335.012-.716.022-1.113.045s-.815.036-1.228.036-.825.01-1.214,0c-.2,0-.385-.01-.567-.021s-.361-.006-.523-.023-.32-.016-.459-.025-.259-.024-.362-.031c-.209-.012-.338-.008-.338-.008a3.314,3.314,0,0,0,.224.251,2.988,2.988,0,0,0,.693.548,2.73,2.73,0,0,0,.525.275,3.478,3.478,0,0,0,.625.217,4.948,4.948,0,0,0,1.421.169,5.253,5.253,0,0,0,2.536-.689A3.3,3.3,0,0,0,633.277,335.613Z" transform="translate(-615.749 -323.04)" fill="#db9c94"/>
        <path id="Trazado_26589" data-name="Trazado 26589" d="M640.373,319.363s-15.358,4.445-27.716,0C612.657,319.363,625.429,341.169,640.373,319.363Z" transform="translate(-612.657 -319.363)" fill="#fff"/>
      </g>
      <g id="Grupo_16140" data-name="Grupo 16140" transform="translate(593.729 267.44)">
        <path id="Trazado_26590" data-name="Trazado 26590" d="M613.63,283.038a2.4,2.4,0,0,0,2.027-1.064,1.958,1.958,0,0,0-.689-2.1c-1.9-1.463-8.153-.7-12.3,1.682-1.88,1.079-3.971,4.131-3.974,4.138.2-.12.319-.177.439-.234l.528-.249q.528-.249,1.06-.49c.709-.319,1.426-.62,2.156-.886a15.588,15.588,0,0,1,2.778-.762C608.291,282.636,610.979,283.038,613.63,283.038Z" transform="translate(-598.695 -279.132)"/>
        <g id="Grupo_16139" data-name="Grupo 16139" transform="translate(11.097 10.91)">
          <path id="Trazado_26591" data-name="Trazado 26591" d="M618.011,298.618a5.662,5.662,0,0,0,.155-1.6c-.1-2.152-1.319-3.846-2.733-3.783s-2.482,1.858-2.387,4.01a5.694,5.694,0,0,0,.234,1.369,5.681,5.681,0,0,1,2.326-.709A6.25,6.25,0,0,1,618.011,298.618Z" transform="translate(-613.04 -293.237)"/>
        </g>
      </g>
      <g id="Grupo_16142" data-name="Grupo 16142" transform="translate(626.153 267.46)">
        <path id="Trazado_26592" data-name="Trazado 26592" d="M642.749,283.065A2.4,2.4,0,0,1,640.723,282a1.958,1.958,0,0,1,.689-2.1c1.9-1.463,8.152-.7,12.3,1.682,1.88,1.079,3.971,4.131,3.974,4.138a4.862,4.862,0,0,0-.439-.234l-.528-.249q-.528-.249-1.06-.49c-.709-.319-1.426-.62-2.157-.886a15.574,15.574,0,0,0-2.779-.762C648.088,282.663,645.4,283.065,642.749,283.065Z" transform="translate(-640.612 -279.159)"/>
        <g id="Grupo_16141" data-name="Grupo 16141" transform="translate(0.844 10.91)">
          <path id="Trazado_26593" data-name="Trazado 26593" d="M641.865,298.645a5.61,5.61,0,0,1-.155-1.6c.1-2.152,1.318-3.846,2.732-3.783s2.483,1.858,2.387,4.01a5.689,5.689,0,0,1-.234,1.369,5.676,5.676,0,0,0-2.326-.709A6.249,6.249,0,0,0,641.865,298.645Z" transform="translate(-641.703 -293.264)"/>
        </g>
      </g>
      <g id="Grupo_16143" data-name="Grupo 16143" transform="translate(593.793 289.37)">
        <circle id="Elipse_1077" data-name="Elipse 1077" cx="5.666" cy="5.666" r="5.666" transform="translate(0 0)" fill="url(#radial-gradient)"/>
        <circle id="Elipse_1078" data-name="Elipse 1078" cx="5.666" cy="5.666" r="5.666" transform="translate(37.855 0)" fill="url(#radial-gradient)"/>
      </g>
    </g>
    <g id="Grupo_16162" data-name="Grupo 16162" transform="translate(-476.783 1954.521)">
      <path id="Trazado_26594" data-name="Trazado 26594" d="M769.39,180.069a67.876,67.876,0,0,1-.78-13.3H749.2a67.873,67.873,0,0,1-.78,13.3c-1.126,6.045-7.858,6.045-7.858,6.045l18.342,4.86,18.342-4.86S770.517,186.114,769.39,180.069Z" transform="translate(-7.183 -26.529)" fill="#ecc19c"/>
      <g id="Grupo_16145" data-name="Grupo 16145" transform="translate(741.971 139.14)">
        <path id="Trazado_26595" data-name="Trazado 26595" d="M772.094,178.818a9.19,9.19,0,0,1-8.469,1.324c-7.305-2.156-10.469-5.538-11.614-7.084.239-4.387.24-7.757.24-7.757l19.41.226A67.7,67.7,0,0,0,772.094,178.818Z" transform="translate(-752.011 -165.301)" fill="#cca88d"/>
      </g>
      <g id="Grupo_16146" data-name="Grupo 16146" transform="translate(718.651 105.749)">
        <path id="Trazado_26596" data-name="Trazado 26596" d="M728.15,123.889s-4.437-5.963-6.292-1.3-.662,11.2,1.364,14.29S729.3,144.9,730.589,145s2.33-.474,3.621-1.658Z" transform="translate(-720.935 -120.805)" fill="#ecc19c"/>
        <path id="Trazado_26597" data-name="Trazado 26597" d="M730.163,128.506s-2.976-4-4.221-.875a11.95,11.95,0,0,0,.915,9.588c1.36,2.073,4.081,5.386,4.942,5.449a3.183,3.183,0,0,0,2.431-1.112Z" transform="translate(-722.03 -122.211)" fill="#db9c94" opacity="0.6"/>
      </g>
      <g id="Grupo_16147" data-name="Grupo 16147" transform="translate(773.101 106.572)">
        <path id="Trazado_26598" data-name="Trazado 26598" d="M799.02,124.835s4.1-5.7,5.853-1.213a17.492,17.492,0,0,1-1.183,13.709c-1.869,2.954-5.616,7.668-6.812,7.75s-2.174-.469-3.384-1.613Z" transform="translate(-793.495 -121.902)" fill="#ecc19c"/>
        <path id="Trazado_26599" data-name="Trazado 26599" d="M798.512,129.257s2.748-3.822,3.927-.814a11.741,11.741,0,0,1-.793,9.2c-1.254,1.982-3.769,5.144-4.571,5.2a2.966,2.966,0,0,1-2.271-1.082Z" transform="translate(-793.822 -123.246)" fill="#db9c94" opacity="0.6"/>
      </g>
      <path id="Trazado_26600" data-name="Trazado 26600" d="M754.474,67.257c.149,0,.3.006.446.007s.3-.007.446-.007c15.765,0,30.589,12.932,30.589,30.394s-14.825,32.839-30.589,32.839c-.149,0-.3-.006-.446-.009s-.3.009-.446.009c-15.765,0-30.589-15.378-30.589-32.839S738.71,67.257,754.474,67.257Z" transform="translate(-3.02 -1.692)" fill="#333"/>
      <path id="Trazado_26601" data-name="Trazado 26601" d="M757.32,155.4c-8.395,0-18.283-7.143-22.881-13.824-1.39-2.019-1.88-12.368-1.88-19.468,0-10.206-.163-23.828,2.932-29.513,4.114-7.557,15.745-6.123,21.829-6.123h.115c6.084,0,17.715-1.435,21.829,6.123,3.095,5.685,2.932,19.307,2.932,29.513,0,7.1-.49,17.45-1.88,19.468-4.6,6.682-14.486,13.824-22.881,13.824Z" transform="translate(-5.185 -6.461)" fill="#ecc19c"/>
      <path id="Trazado_26602" data-name="Trazado 26602" d="M770.41,82.908s-33.863,19.817-58.627,11.256c0,0,8.446-7.951,12.562-14.888,4.454-7.5,21.366-28.345,47.1-13.712l-.563-4.982s5.347,3.522,6.134,12.007c0,0,6.355.032,7.811,3.877L780.7,75.4a22.074,22.074,0,0,1,4.127,11.163c.761,12.939-3.974,20.683-3.974,20.683a24.263,24.263,0,0,1-4.367-10.85C775.1,84.878,772.724,84.986,770.41,82.908Z" transform="translate(0 0)" fill="#333"/>
      <g id="Grupo_16149" data-name="Grupo 16149" transform="translate(715.062 76.53)">
        <g id="Grupo_16148" data-name="Grupo 16148" transform="translate(0 0)">
          <path id="Trazado_26603" data-name="Trazado 26603" d="M772.719,81.868s-.627.742-1.845,1.921c-.612.586-1.356,1.3-2.256,2.063s-1.914,1.632-3.078,2.5a69.632,69.632,0,0,1-8.3,5.5c-.789.459-1.608.9-2.446,1.325-.828.446-1.691.85-2.559,1.264s-1.758.8-2.654,1.179c-.908.354-1.806.739-2.729,1.069s-1.843.662-2.778.945c-.926.308-1.863.571-2.8.812-.928.266-1.865.472-2.792.667-.922.216-1.848.362-2.756.513a49.1,49.1,0,0,1-5.276.561c-.84.063-1.663.056-2.455.059s-1.558-.026-2.291-.072a38.647,38.647,0,0,1-3.979-.393c-1.174-.187-2.186-.41-3.014-.588-1.646-.441-2.563-.732-2.563-.732s.978-.016,2.647.025l3.005-.074c1.157-.086,2.452-.136,3.858-.293.7-.062,1.432-.139,2.183-.264s1.529-.186,2.321-.348c1.587-.26,3.249-.6,4.953-1s3.452-.868,5.211-1.406l1.324-.4,1.322-.442c.889-.277,1.764-.613,2.644-.929,1.762-.633,3.5-1.341,5.2-2.055,1.7-.735,3.366-1.464,4.958-2.231s3.129-1.518,4.578-2.257,2.815-1.455,4.064-2.143c2.5-1.37,4.571-2.565,6.021-3.415Z" transform="translate(-716.152 -81.868)" fill="#1a1a1a"/>
        </g>
      </g>
      <g id="Grupo_16151" data-name="Grupo 16151" transform="translate(713.33 72.531)">
        <g id="Grupo_16150" data-name="Grupo 16150" transform="translate(0 0)">
          <path id="Trazado_26604" data-name="Trazado 26604" d="M772.143,76.539s-.771.633-2.178,1.655-3.439,2.449-5.955,4.034c-1.257.8-2.622,1.653-4.093,2.512s-3.03,1.754-4.668,2.632-3.342,1.77-5.1,2.63-3.558,1.694-5.372,2.509c-1.827.786-3.659,1.562-5.5,2.255s-3.656,1.345-5.446,1.9c-.894.28-1.772.56-2.648.788-.869.245-1.724.471-2.566.662a48.479,48.479,0,0,1-4.785.907,30.83,30.83,0,0,1-4.115.353A14.208,14.208,0,0,1,718,99.364a12.826,12.826,0,0,1-1.459-.122c-.439-.059-.828-.113-1.163-.168l-.843-.22-.69-.191.717-.014.846-.008c.335-.039.716-.076,1.139-.113a12.159,12.159,0,0,0,1.4-.2c.505-.089,1.048-.163,1.626-.308.577-.13,1.189-.251,1.827-.445s1.315-.328,2.01-.556c.7-.212,1.42-.422,2.161-.691.743-.252,1.514-.5,2.3-.792.786-.28,1.594-.564,2.411-.887s1.658-.627,2.5-.97c1.7-.663,3.439-1.4,5.212-2.134,1.767-.752,3.562-1.52,5.351-2.309,7.159-3.144,14.28-6.45,19.7-8.811,2.7-1.205,4.974-2.173,6.573-2.846S772.143,76.539,772.143,76.539Z" transform="translate(-713.844 -76.539)" fill="#1a1a1a"/>
        </g>
      </g>
      <g id="Grupo_16153" data-name="Grupo 16153" transform="translate(725.763 63.334)">
        <g id="Grupo_16152" data-name="Grupo 16152">
          <path id="Trazado_26605" data-name="Trazado 26605" d="M774.715,70.35l-2.061-.483-2.353-.5c-.9-.188-1.932-.359-3.038-.567-1.114-.178-2.317-.364-3.589-.517s-2.608-.287-3.986-.389c-1.381-.079-2.8-.145-4.239-.119a41.811,41.811,0,0,0-4.326.255c-.717.091-1.439.153-2.142.3l-1.059.182-1.039.233a34.771,34.771,0,0,0-3.985,1.173c-.635.23-1.234.513-1.847.744l-1.727.828-1.594.888c-.522.284-.985.622-1.456.915s-.889.621-1.3.922-.82.57-1.167.865c-.68.6-1.342,1.082-1.826,1.538-.97.91-1.57,1.42-1.57,1.42s.342-.688,1.023-1.876c.344-.591.832-1.259,1.393-2.039.281-.389.629-.761.973-1.179a13.117,13.117,0,0,1,1.168-1.24c.435-.4.866-.861,1.363-1.272s1.025-.823,1.577-1.237c.572-.383,1.165-.773,1.781-1.159.635-.349,1.287-.71,1.966-1.042a26.713,26.713,0,0,1,4.368-1.616l1.155-.308c.389-.088.782-.159,1.176-.234.785-.168,1.583-.255,2.378-.362.8-.089,1.6-.123,2.391-.173.793-.008,1.587-.037,2.368.008l1.167.05,1.15.107c.762.059,1.507.176,2.238.286a39.129,39.129,0,0,1,4.154.9c1.3.341,2.5.773,3.6,1.175a35.885,35.885,0,0,1,5.109,2.38A19.169,19.169,0,0,1,774.715,70.35Z" transform="translate(-730.412 -64.284)" fill="#1a1a1a"/>
        </g>
      </g>
      <g id="Grupo_16155" data-name="Grupo 16155" transform="translate(715.062 70.299)">
        <g id="Grupo_16154" data-name="Grupo 16154">
          <path id="Trazado_26606" data-name="Trazado 26606" d="M768.176,73.792l-.646.127c-.419.071-1.03.224-1.807.377-.774.179-1.71.387-2.776.651s-2.261.578-3.559.929c-.651.164-1.322.361-2.013.582l-2.143.634-2.242.735-1.159.371-1.167.423-2.391.847-2.417.954c-1.639.606-3.252,1.347-4.879,2.052-.406.178-.82.338-1.221.526l-1.192.584-2.379,1.138c-1.571.765-3.062,1.624-4.553,2.377-.756.361-1.436.818-2.138,1.212l-2.042,1.181c-1.357.729-2.55,1.556-3.7,2.26l-1.641,1.027a16.588,16.588,0,0,0-1.474.946c-.9.633-1.7,1.16-2.365,1.6-1.328.879-2.121,1.354-2.121,1.354s.579-.7,1.653-1.892c.539-.591,1.189-1.319,1.967-2.124a36.976,36.976,0,0,1,2.747-2.557,40.758,40.758,0,0,1,3.423-2.849l1.963-1.442c.673-.489,1.354-1,2.1-1.443l2.243-1.38c.764-.456,1.517-.959,2.336-1.352l2.441-1.255,1.234-.621c.416-.2.844-.375,1.266-.561,1.7-.717,3.388-1.475,5.121-2.031.858-.3,1.707-.6,2.557-.868l2.537-.711,1.24-.338,1.233-.27,2.384-.5c1.567-.247,3.038-.5,4.417-.619.687-.066,1.342-.146,1.968-.191l1.785-.077c1.116-.062,2.1-.017,2.9-.006A23.349,23.349,0,0,1,768.176,73.792Z" transform="translate(-716.152 -73.564)" fill="#1a1a1a"/>
        </g>
      </g>
      <path id="Trazado_26607" data-name="Trazado 26607" d="M765.565,138.164s.164.4.429.9l.43.831.212.444a3.845,3.845,0,0,1,.172.44,2.675,2.675,0,0,1,.117.414,2.441,2.441,0,0,1,.029.377,1.161,1.161,0,0,1-.063.359,1.087,1.087,0,0,1-.138.352c-.068.1-.108.229-.177.318s-.129.173-.18.244c-.1.145-.158.242-.158.242a2.5,2.5,0,0,0,.285-.038c.091-.019.2-.04.33-.078a1.754,1.754,0,0,0,.4-.207,1.639,1.639,0,0,0,.222-.151c.068-.068.132-.144.2-.224a1.643,1.643,0,0,0,.323-.59,1.14,1.14,0,0,0,.073-.352,1.539,1.539,0,0,0,.019-.365,2.547,2.547,0,0,0-.141-.693,2.958,2.958,0,0,0-.284-.6,3.92,3.92,0,0,0-.364-.5,3.8,3.8,0,0,0-.8-.691A2.932,2.932,0,0,0,765.565,138.164Z" transform="translate(-13.423 -19.389)" fill="#db9c94" opacity="0.6"/>
      <g id="Grupo_16157" data-name="Grupo 16157" transform="translate(728.066 95.839)">
        <path id="Trazado_26608" data-name="Trazado 26608" d="M747.974,111.391a2.33,2.33,0,0,0,1.968-1.03,1.9,1.9,0,0,0-.666-2.037c-1.842-1.422-7.908-.687-11.932,1.615-1.826,1.045-3.858,4-3.862,4.008.2-.116.31-.171.426-.227l.513-.241q.512-.241,1.029-.473c.688-.308,1.384-.6,2.093-.858a15.21,15.21,0,0,1,2.7-.735C742.8,110.993,745.4,111.388,747.974,111.391Z" transform="translate(-733.482 -107.599)"/>
        <g id="Grupo_16156" data-name="Grupo 16156" transform="translate(10.876 12.585)">
          <path id="Trazado_26609" data-name="Trazado 26609" d="M752.943,128.039a5.236,5.236,0,0,1-.138,1.495c-.351-1.607-1.356-2.763-2.512-2.713-1.03.038-1.859,1.03-2.185,2.4a5.992,5.992,0,0,1-.126-.967c-.1-2.085.942-3.818,2.311-3.881S752.855,125.954,752.943,128.039Z" transform="translate(-747.975 -124.37)"/>
        </g>
      </g>
      <g id="Grupo_16159" data-name="Grupo 16159" transform="translate(759.751 95.837)">
        <path id="Trazado_26610" data-name="Trazado 26610" d="M777.781,111.389a2.329,2.329,0,0,1-1.968-1.03,1.9,1.9,0,0,1,.666-2.037c1.842-1.422,7.909-.687,11.932,1.615,1.826,1.045,3.858,4,3.862,4.008-.2-.116-.31-.171-.426-.227l-.513-.241q-.512-.241-1.03-.474c-.688-.308-1.384-.6-2.092-.857a15.146,15.146,0,0,0-2.7-.735C782.959,110.991,780.352,111.385,777.781,111.389Z" transform="translate(-775.705 -107.597)"/>
        <g id="Grupo_16158" data-name="Grupo 16158" transform="translate(0.718 12.585)">
          <path id="Trazado_26611" data-name="Trazado 26611" d="M776.668,128.037a5.24,5.24,0,0,0,.138,1.495c.351-1.607,1.356-2.763,2.512-2.713,1.03.038,1.859,1.03,2.185,2.4a5.992,5.992,0,0,0,.126-.967c.1-2.085-.943-3.818-2.311-3.881S776.756,125.952,776.668,128.037Z" transform="translate(-776.661 -124.368)"/>
        </g>
      </g>
      <path id="Trazado_26612" data-name="Trazado 26612" d="M761.522,169.845s.453-.007,1.059.017c.3.01.651.02,1.012.041s.74.032,1.116.032.75.011,1.1,0c.179,0,.35-.009.516-.019s.328-.005.475-.022.29-.014.416-.022.236-.022.329-.029c.19-.01.308-.008.308-.008a2.989,2.989,0,0,1-.2.228,2.682,2.682,0,0,1-.63.5,2.5,2.5,0,0,1-.477.25,3.128,3.128,0,0,1-.569.2,4.466,4.466,0,0,1-1.292.155,4.78,4.78,0,0,1-2.3-.627A2.988,2.988,0,0,1,761.522,169.845Z" transform="translate(-12.414 -27.292)" fill="#db9c94"/>
      <g id="Grupo_16161" data-name="Grupo 16161" transform="translate(740.347 126.655)">
        <path id="Trazado_26613" data-name="Trazado 26613" d="M772.926,148.736c-1.026-.5-6.367,1.748-11.561,1.758-4.972.011-9.806-2.233-10.788-1.758-3.02,1.463,3.819,14.861,11.473,14.411C769.7,163.6,775.946,150.2,772.926,148.736Z" transform="translate(-749.847 -148.665)" fill="#7a2742"/>
        <g id="Grupo_16160" data-name="Grupo 16160" transform="translate(1.345 0)">
          <path id="Trazado_26614" data-name="Trazado 26614" d="M772.035,148.775a4.832,4.832,0,0,1-.608,2.7c-.844,1.164-3.02,4.116-11.918,3.483-7.119-.506-7.861-4.647-7.87-6.292,1.645.1,5.9,1.83,10.257,1.822C765.843,150.478,769.875,149.179,772.035,148.775Z" transform="translate(-751.639 -148.665)" fill="#fff"/>
        </g>
      </g>
    </g>
    <g id="Grupo_16180" data-name="Grupo 16180" transform="translate(-582.117 1976.498)">
      <path id="Trazado_26615" data-name="Trazado 26615" d="M875.129,347.28a68.823,68.823,0,0,1-.791-13.484h-19.68a68.826,68.826,0,0,1-.791,13.484c-1.141,6.129-7.968,6.129-7.968,6.129l18.6,4.929,18.6-4.929S876.27,353.408,875.129,347.28Z" transform="translate(-6.881 -25.411)" fill="#ecc19c"/>
      <g id="Grupo_16163" data-name="Grupo 16163" transform="translate(847.728 307.265)">
        <path id="Trazado_26616" data-name="Trazado 26616" d="M877.709,346.03a9.315,9.315,0,0,1-8.586,1.344c-7.408-2.186-10.616-5.616-11.778-7.183.242-4.448.243-7.867.243-7.867l19.682.23A68.631,68.631,0,0,0,877.709,346.03Z" transform="translate(-857.345 -332.324)" fill="#cca88d"/>
      </g>
      <g id="Grupo_16164" data-name="Grupo 16164" transform="translate(824.082 273.407)">
        <path id="Trazado_26617" data-name="Trazado 26617" d="M833.586,290.956s-4.5-6.046-6.38-1.322-.672,11.357,1.383,14.49,6.167,8.139,7.469,8.234,2.363-.48,3.673-1.68Z" transform="translate(-826.27 -287.829)" fill="#ecc19c"/>
        <path id="Trazado_26618" data-name="Trazado 26618" d="M835.566,295.559s-3.019-4.057-4.281-.887a12.115,12.115,0,0,0,.928,9.722c1.378,2.1,4.138,5.46,5.012,5.524a3.225,3.225,0,0,0,2.464-1.127Z" transform="translate(-827.319 -289.176)" fill="#db9c94" opacity="0.6"/>
      </g>
      <g id="Grupo_16165" data-name="Grupo 16165" transform="translate(879.294 274.241)">
        <path id="Trazado_26619" data-name="Trazado 26619" d="M904.432,291.9s4.154-5.777,5.936-1.23a17.741,17.741,0,0,1-1.2,13.9c-1.894,3-5.695,7.775-6.907,7.858s-2.2-.476-3.432-1.636Z" transform="translate(-898.829 -288.925)" fill="#ecc19c"/>
        <path id="Trazado_26620" data-name="Trazado 26620" d="M903.9,296.309s2.786-3.876,3.983-.826a11.9,11.9,0,0,1-.805,9.327c-1.271,2.01-3.821,5.217-4.634,5.273a3.008,3.008,0,0,1-2.3-1.1Z" transform="translate(-899.142 -290.213)" fill="#db9c94" opacity="0.6"/>
      </g>
      <path id="Trazado_26621" data-name="Trazado 26621" d="M860.238,234.28c.151,0,.3.006.451.008s.3-.008.452-.008c15.986,0,31.018,13.114,31.018,30.82s-15.032,33.3-31.018,33.3c-.151,0-.3-.005-.452-.009s-.3.009-.451.009c-15.986,0-31.018-15.593-31.018-33.3S844.252,234.28,860.238,234.28Z" transform="translate(-2.893 -1.62)" fill="#333"/>
      <path id="Trazado_26622" data-name="Trazado 26622" d="M863,323.394c-8.513,0-18.538-7.242-23.2-14.017-1.408-2.047-1.905-12.543-1.905-19.741,0-10.35-.165-24.162,2.972-29.927,4.171-7.663,15.966-6.208,22.135-6.208h.116c6.17,0,17.964-1.455,22.135,6.208,3.138,5.765,2.973,19.577,2.973,29.927,0,7.2-.5,17.694-1.905,19.741-4.664,6.775-14.69,14.017-23.2,14.017Z" transform="translate(-4.967 -6.189)" fill="#ecc19c"/>
      <path id="Trazado_26623" data-name="Trazado 26623" d="M870.79,305.176s.167.4.436.912l.435.843.215.45a3.957,3.957,0,0,1,.174.446,2.708,2.708,0,0,1,.119.421,2.386,2.386,0,0,1,.029.383,1.2,1.2,0,0,1-.063.364,1.121,1.121,0,0,1-.141.357c-.068.1-.11.232-.18.322s-.131.175-.183.247c-.1.147-.161.246-.161.246a2.328,2.328,0,0,0,.289-.039,3.084,3.084,0,0,0,.335-.079,1.785,1.785,0,0,0,.406-.209,1.673,1.673,0,0,0,.226-.154c.068-.068.134-.146.2-.227a1.666,1.666,0,0,0,.328-.6,1.161,1.161,0,0,0,.074-.357,1.491,1.491,0,0,0,.019-.371,2.581,2.581,0,0,0-.142-.7,3.04,3.04,0,0,0-.288-.612,3.957,3.957,0,0,0-.369-.5,3.87,3.87,0,0,0-.811-.7A2.974,2.974,0,0,0,870.79,305.176Z" transform="translate(-12.831 -18.569)" fill="#db9c94" opacity="0.6"/>
      <path id="Trazado_26624" data-name="Trazado 26624" d="M876.565,250.246s-34.337,20.095-59.448,11.414c0,0,8.564-8.063,12.739-15.1,4.515-7.609,21.665-28.743,47.755-13.9l-.571-5.051s5.422,3.57,6.22,12.175c0,0,6.444.032,7.921,3.932L887,242.637a22.384,22.384,0,0,1,4.185,11.319c.772,13.119-4.029,20.973-4.029,20.973a24.609,24.609,0,0,1-4.429-11C881.321,252.244,878.913,252.353,876.565,250.246Z" fill="#333"/>
      <g id="Grupo_16167" data-name="Grupo 16167" transform="translate(820.442 243.778)">
        <g id="Grupo_16166" data-name="Grupo 16166">
          <path id="Trazado_26625" data-name="Trazado 26625" d="M878.846,248.892s-.635.753-1.871,1.948c-.619.594-1.375,1.318-2.287,2.092s-1.941,1.655-3.121,2.538a70.466,70.466,0,0,1-8.414,5.572c-.8.466-1.631.91-2.48,1.344-.84.453-1.716.862-2.595,1.281s-1.782.811-2.691,1.2c-.92.358-1.832.75-2.767,1.084s-1.868.671-2.817.958c-.939.313-1.889.579-2.838.823-.941.27-1.891.479-2.831.676-.934.219-1.873.368-2.794.521a49.976,49.976,0,0,1-5.349.568c-.852.064-1.687.056-2.49.06s-1.58-.026-2.324-.073a39.141,39.141,0,0,1-4.034-.4c-1.191-.189-2.217-.415-3.057-.6-1.67-.447-2.6-.742-2.6-.742s.992-.017,2.685.025l3.048-.075c1.173-.088,2.486-.138,3.911-.3.713-.063,1.453-.141,2.214-.268s1.55-.189,2.353-.353c1.61-.264,3.295-.6,5.023-1.011s3.5-.881,5.285-1.426l1.342-.409,1.341-.448c.9-.282,1.787-.622,2.68-.943,1.787-.641,3.548-1.36,5.276-2.083,1.72-.746,3.414-1.485,5.028-2.262s3.174-1.539,4.642-2.29,2.855-1.475,4.12-2.172c2.536-1.389,4.636-2.6,6.106-3.463Z" transform="translate(-821.486 -248.892)" fill="#1a1a1a"/>
        </g>
      </g>
      <g id="Grupo_16169" data-name="Grupo 16169" transform="translate(818.686 239.723)">
        <g id="Grupo_16168" data-name="Grupo 16168">
          <path id="Trazado_26626" data-name="Trazado 26626" d="M878.295,243.563s-.783.641-2.209,1.678-3.488,2.483-6.04,4.091c-1.274.806-2.658,1.676-4.15,2.547s-3.073,1.778-4.734,2.669-3.389,1.8-5.168,2.667-3.608,1.718-5.447,2.545c-1.853.8-3.711,1.584-5.573,2.287s-3.707,1.363-5.521,1.931c-.907.284-1.8.567-2.685.8-.881.249-1.749.478-2.6.672a49.112,49.112,0,0,1-4.852.919,31.14,31.14,0,0,1-4.173.358,14.415,14.415,0,0,1-1.749-.017,12.837,12.837,0,0,1-1.479-.125c-.445-.059-.839-.114-1.179-.17l-.854-.222-.7-.193.727-.014.858-.008c.339-.04.726-.077,1.155-.115a12.334,12.334,0,0,0,1.415-.2c.511-.089,1.063-.165,1.648-.313.586-.132,1.206-.255,1.854-.45s1.333-.333,2.037-.565c.706-.215,1.44-.428,2.192-.7.754-.256,1.536-.5,2.329-.8.8-.283,1.615-.571,2.445-.9s1.682-.635,2.539-.983c1.723-.673,3.487-1.418,5.285-2.165s3.613-1.54,5.425-2.341c7.259-3.189,14.481-6.54,19.981-8.935,2.736-1.223,5.043-2.2,6.665-2.886S878.295,243.563,878.295,243.563Z" transform="translate(-819.179 -243.563)" fill="#1a1a1a"/>
        </g>
      </g>
      <g id="Grupo_16171" data-name="Grupo 16171" transform="translate(831.292 230.398)">
        <g id="Grupo_16170" data-name="Grupo 16170">
          <path id="Trazado_26627" data-name="Trazado 26627" d="M880.669,237.459l-2.09-.489-2.385-.505c-.918-.191-1.96-.364-3.081-.576-1.131-.18-2.351-.368-3.639-.524-1.287-.171-2.645-.291-4.043-.395-1.4-.08-2.841-.146-4.3-.121a42.643,42.643,0,0,0-4.388.259c-.726.093-1.459.156-2.171.3l-1.074.184-1.054.236a35.3,35.3,0,0,0-4.041,1.19c-.643.233-1.252.52-1.873.754l-1.752.84-1.616.9c-.528.288-1,.631-1.475.928s-.9.63-1.318.934-.831.578-1.182.878c-.689.612-1.361,1.1-1.851,1.559-.983.922-1.593,1.44-1.593,1.44s.347-.7,1.038-1.9c.348-.6.843-1.278,1.412-2.067.285-.4.638-.772.986-1.2a13.308,13.308,0,0,1,1.185-1.256c.441-.409.878-.873,1.382-1.29s1.039-.835,1.6-1.255c.58-.387,1.182-.784,1.806-1.175.644-.355,1.3-.72,1.994-1.056a27.16,27.16,0,0,1,4.429-1.639l1.17-.313c.395-.088.794-.161,1.192-.237.8-.17,1.6-.258,2.411-.366.808-.091,1.619-.125,2.424-.176.805-.008,1.609-.037,2.4.009l1.184.049,1.165.108c.773.061,1.528.18,2.271.29a39.846,39.846,0,0,1,4.211.915c1.322.345,2.538.784,3.651,1.192a36.431,36.431,0,0,1,5.18,2.414A19.472,19.472,0,0,1,880.669,237.459Z" transform="translate(-835.746 -231.307)" fill="#1a1a1a"/>
        </g>
      </g>
      <g id="Grupo_16173" data-name="Grupo 16173" transform="translate(820.442 237.46)">
        <g id="Grupo_16172" data-name="Grupo 16172">
          <path id="Trazado_26628" data-name="Trazado 26628" d="M874.24,240.819l-.656.128c-.425.072-1.045.228-1.832.383-.785.182-1.735.393-2.816.66s-2.293.586-3.608.942c-.66.166-1.341.365-2.041.59l-2.174.643-2.272.745-1.175.375-1.183.429-2.425.86-2.45.966c-1.662.616-3.3,1.367-4.948,2.082-.412.18-.832.342-1.238.533l-1.209.591L841.8,251.9c-1.593.775-3.105,1.646-4.617,2.41-.766.366-1.456.829-2.167,1.228l-2.071,1.2c-1.376.74-2.585,1.578-3.751,2.292l-1.664,1.042a16.791,16.791,0,0,0-1.494.959c-.909.642-1.728,1.176-2.4,1.623-1.346.89-2.151,1.373-2.151,1.373s.587-.714,1.677-1.918c.546-.6,1.206-1.338,1.994-2.154a37.537,37.537,0,0,1,2.786-2.593,41.4,41.4,0,0,1,3.471-2.889l1.99-1.461c.683-.5,1.373-1.016,2.126-1.463l2.274-1.4c.775-.463,1.539-.972,2.37-1.371l2.475-1.272,1.252-.63c.422-.2.854-.38,1.283-.569,1.727-.727,3.436-1.5,5.193-2.06.87-.305,1.73-.611,2.592-.88l2.573-.721,1.256-.342,1.25-.273,2.417-.509c1.589-.25,3.08-.512,4.479-.629.7-.067,1.361-.147,2-.193l1.81-.078c1.131-.063,2.127-.017,2.939-.006A23.669,23.669,0,0,1,874.24,240.819Z" transform="translate(-821.486 -240.588)" fill="#1a1a1a"/>
        </g>
      </g>
      <g id="Grupo_16175" data-name="Grupo 16175" transform="translate(845.876 298.899)">
        <path id="Trazado_26629" data-name="Trazado 26629" d="M872.717,335.012s-.491,0-1.146.029c-.33.014-.7.027-1.094.052s-.8.042-1.208.046-.812.018-1.195.006c-.194,0-.379-.006-.559-.016s-.355,0-.514-.019-.314-.013-.45-.02-.256-.021-.357-.028c-.205-.009-.333-.005-.333-.005a3.123,3.123,0,0,0,.222.246,2.907,2.907,0,0,0,.686.533,2.691,2.691,0,0,0,.518.266,3.452,3.452,0,0,0,.617.208,4.876,4.876,0,0,0,1.4.155,5.177,5.177,0,0,0,2.488-.7A3.23,3.23,0,0,0,872.717,335.012Z" transform="translate(-857.529 -324.601)" fill="#db9c94"/>
        <path id="Trazado_26630" data-name="Trazado 26630" d="M878.979,321.33s-9.159,3.054-24.068.2C854.911,321.532,866.161,340.375,878.979,321.33Z" transform="translate(-854.911 -321.33)" fill="#7a2742"/>
        <g id="Grupo_16174" data-name="Grupo 16174" transform="translate(1.173 0.454)">
          <path id="Trazado_26631" data-name="Trazado 26631" d="M856.452,321.929c2.784,3.1,6.169,4.567,11.833,4.6a12.284,12.284,0,0,0,9.3-4.6A58.793,58.793,0,0,1,856.452,321.929Z" transform="translate(-856.452 -321.927)" fill="#fff"/>
        </g>
      </g>
      <g id="Grupo_16177" data-name="Grupo 16177" transform="translate(833.612 267.419)">
        <path id="Trazado_26632" data-name="Trazado 26632" d="M853.489,283.8a2.362,2.362,0,0,0,2-1.044,1.928,1.928,0,0,0-.675-2.065c-1.868-1.442-8.02-.7-12.1,1.638-1.851,1.059-3.912,4.059-3.916,4.064.2-.117.315-.174.432-.229l.52-.245c.347-.162.694-.323,1.044-.479.7-.313,1.4-.609,2.122-.87a15.351,15.351,0,0,1,2.735-.745C848.238,283.4,850.882,283.8,853.489,283.8Z" transform="translate(-838.794 -279.96)"/>
        <g id="Grupo_16176" data-name="Grupo 16176" transform="translate(10.927 12.922)">
          <path id="Trazado_26633" data-name="Trazado 26633" d="M853.192,298.473a5.352,5.352,0,0,1,.035-1.522c.469,1.6,1.565,2.7,2.731,2.569,1.039-.11,1.808-1.171,2.043-2.579a6.1,6.1,0,0,1,.195.969c.247,2.1-.686,3.928-2.067,4.087S853.426,300.576,853.192,298.473Z" transform="translate(-853.154 -296.941)"/>
        </g>
      </g>
      <g id="Grupo_16179" data-name="Grupo 16179" transform="translate(865.635 267.662)">
        <path id="Trazado_26634" data-name="Trazado 26634" d="M882.982,284.123a2.359,2.359,0,0,1-1.994-1.043,1.927,1.927,0,0,1,.675-2.065c1.868-1.442,8.019-.7,12.1,1.638,1.851,1.058,3.911,4.058,3.916,4.064-.2-.118-.315-.173-.433-.23-.173-.081-.346-.164-.519-.244-.347-.163-.694-.323-1.044-.48-.7-.312-1.4-.609-2.122-.869a15.356,15.356,0,0,0-2.735-.746C888.234,283.721,885.589,284.12,882.982,284.123Z" transform="translate(-880.877 -280.279)"/>
        <g id="Grupo_16178" data-name="Grupo 16178" transform="translate(0.792 12.921)">
          <path id="Trazado_26635" data-name="Trazado 26635" d="M886.961,298.791a5.318,5.318,0,0,0-.036-1.521c-.468,1.6-1.565,2.7-2.73,2.569-1.039-.11-1.809-1.172-2.043-2.58a6.131,6.131,0,0,0-.195.969c-.247,2.1.686,3.929,2.067,4.088S886.727,300.894,886.961,298.791Z" transform="translate(-881.918 -297.259)"/>
        </g>
      </g>
    </g>
  </g>
</svg>
