<svg xmlns="http://www.w3.org/2000/svg" width="927" height="2074.491" viewBox="0 0 927 2074.491">
  <g id="Grupo_16267" data-name="Grupo 16267" transform="translate(-238 -1096)">
    <g id="Grupo_14468" data-name="Grupo 14468" transform="translate(98 817.223)">
      <g id="Grupo_14467" data-name="Grupo 14467" transform="translate(140 595.188)">
        <g id="Grupo_14447" data-name="Grupo 14447" transform="translate(0 450)">
          <path id="Trazado_24134" data-name="Trazado 24134" d="M925.314-6.34c-110.6-80.782-91.051,134.62-149.9,85.022-98.6-83.1-111.038,69.586-216.154,0-90.7-60.046-80.35,150.9-216.894,35.163C270.315,52.775,96.075,279.809,0,138.973v-1841.5H925.314Z" transform="translate(0 1004.481)" fill="#62c1c6"/>
        </g>
        <g id="Grupo_14466" data-name="Grupo 14466" transform="translate(411.14 1324.365)">
          <path id="Trazado_24135" data-name="Trazado 24135" d="M2521.7,1127.638s-64.438-89.773,106.617-173.706C2628.318,953.932,2643.027,1149.629,2521.7,1127.638Z" transform="translate(-2275.844 -753.231)" fill="#62c1c6"/>
          <path id="Trazado_24136" data-name="Trazado 24136" d="M2629.083,952.654l-112.86,161.482C2505.463,1086.8,2495.992,1017.96,2629.083,952.654Z" transform="translate(-2276.413 -752.281)" fill="#b2dac8"/>
          <path id="Trazado_24137" data-name="Trazado 24137" d="M2550.431,1106.877a.233.233,0,0,1-.191-.368l108.094-154.664a.234.234,0,1,1,.383.268l-108.094,154.664A.234.234,0,0,1,2550.431,1106.877Z" transform="translate(-2305.857 -751.605)" fill="#0a3f64"/>
          <path id="Trazado_24138" data-name="Trazado 24138" d="M2751.436,1232.411a.234.234,0,0,1-.052-.461l51.086-11.738a.234.234,0,1,1,.1.456l-51.085,11.738A.225.225,0,0,1,2751.436,1232.411Z" transform="translate(-2455.197 -951.063)" fill="#060633"/>
          <path id="Trazado_24139" data-name="Trazado 24139" d="M2661.351,1247.372h-.026a.235.235,0,0,1-.208-.259l5.556-51.154a.236.236,0,0,1,.258-.206.233.233,0,0,1,.207.257l-5.556,51.154A.232.232,0,0,1,2661.351,1247.372Z" transform="translate(-2388.264 -932.894)" fill="#060633"/>
          <path id="Trazado_24140" data-name="Trazado 24140" d="M1886.41,1151.944s-98.356,50.375-155.923-131.259C1730.487,1020.685,1926.2,1035.236,1886.41,1151.944Z" transform="translate(-1696.837 -802.826)" fill="#62c1c6"/>
          <path id="Trazado_24141" data-name="Trazado 24141" d="M1729.337,1019.741l142.906,135.615C1843.608,1161.932,1774.128,1161.063,1729.337,1019.741Z" transform="translate(-1695.983 -802.125)" fill="#b2dac8"/>
          <path id="Trazado_24142" data-name="Trazado 24142" d="M1865.534,1149.187a.235.235,0,0,1-.162-.064L1728.5,1019.234a.234.234,0,1,1,.323-.34l136.872,129.89a.234.234,0,0,1-.161.4Z" transform="translate(-1695.307 -801.448)" fill="#0a3f64"/>
          <path id="Trazado_24143" data-name="Trazado 24143" d="M1995.058,1132.033a.233.233,0,0,1-.233-.216l-4.012-52.263a.234.234,0,0,1,.216-.251.227.227,0,0,1,.251.216l4.012,52.264a.235.235,0,0,1-.215.25Z" transform="translate(-1890.25 -846.375)" fill="#0a3f64"/>
          <path id="Trazado_24144" data-name="Trazado 24144" d="M1976.891,1353.49a.232.232,0,0,1-.06-.007l-49.759-13.1a.234.234,0,0,1,.119-.452l49.759,13.1a.234.234,0,0,1-.059.46Z" transform="translate(-1842.764 -1040.009)" fill="#0a3f64"/>
          <path id="Trazado_24145" data-name="Trazado 24145" d="M2006.605,1506.659s-29.765,68.282-137.371-1.833C1869.234,1504.827,1977.495,1428.81,2006.605,1506.659Z" transform="translate(-1799.922 -1137.825)" fill="#18898e"/>
          <path id="Trazado_24146" data-name="Trazado 24146" d="M1869.234,1503.907l137.371,1.833S1990.288,1427.327,1869.234,1503.907Z" transform="translate(-1799.922 -1136.905)" fill="#7c9af2"/>
          <path id="Trazado_24147" data-name="Trazado 24147" d="M2049.511,1567.3a.235.235,0,0,1-.106-.025L2021.1,1553a.234.234,0,1,1,.21-.418l28.308,14.269a.234.234,0,0,1-.1.443Z" transform="translate(-1912.656 -1197.99)" fill="#474fea"/>
          <path id="Trazado_24148" data-name="Trazado 24148" d="M2243.575,1541.69a.237.237,0,0,1-.125-.037l-35.378-22.545a.234.234,0,1,1,.251-.395l35.379,22.545a.234.234,0,0,1-.126.431Z" transform="translate(-2051.586 -1172.818)" fill="#474fea"/>
          <path id="Trazado_24149" data-name="Trazado 24149" d="M2059.6,1728.787c0-10.727-93.75-19.422-209.4-19.422s-209.4,8.7-209.4,19.422,93.75,19.421,209.4,19.421S2059.6,1739.513,2059.6,1728.787Z" transform="translate(-1630.209 -1314.493)" fill="#b2dac8"/>
          <g id="Grupo_14449" data-name="Grupo 14449" transform="translate(109.449 78.968)">
            <g id="Grupo_14448" data-name="Grupo 14448">
              <path id="Trazado_24150" data-name="Trazado 24150" d="M2078.245,696.055V679.883c0-32.419,11.44-52.392,34.281-80.507,12.41-15.706,16.21-25.711,16.21-41.921,0-13.341-2.869-17.606-10.005-17.606-9.035,0-10.47,11.906-10.47,33.816h-82.873c.93-49.523,20.942-93.344,100.479-93.344,73.334,0,96.678,38.083,96.678,82.874,0,34.747-11.905,48.087-31.916,74.768-17.606,24.742-21.406,35.251-21.406,49.988v8.1Zm0,111.455V712.731h90.978v94.778Z" transform="translate(-2025.388 -480.32)" fill="#fdd44e"/>
            </g>
          </g>
          <g id="Grupo_14451" data-name="Grupo 14451" transform="translate(368.215 124.503)">
            <g id="Grupo_14450" data-name="Grupo 14450">
              <path id="Trazado_24151" data-name="Trazado 24151" d="M3043.225,702.724v-3.391c0-6.8,2.4-10.988,7.189-16.885,2.6-3.294,3.4-5.393,3.4-8.793,0-2.8-.6-3.693-2.1-3.693-1.9,0-2.2,2.5-2.2,7.092h-17.382c.195-10.386,4.391-19.577,21.075-19.577,15.38,0,20.276,7.987,20.276,17.382,0,7.288-2.5,10.086-6.693,15.681-3.693,5.19-4.49,7.394-4.49,10.484v1.7Zm0,23.376V706.222h19.081V726.1Z" transform="translate(-3032.138 -657.477)" fill="#b2dac8"/>
            </g>
          </g>
          <g id="Grupo_14452" data-name="Grupo 14452" transform="translate(157.154 197.559)">
            <path id="Trazado_24152" data-name="Trazado 24152" d="M2214.957,957.9v-1.213c0-2.434.859-3.933,2.573-6.044a4.446,4.446,0,0,0,1.217-3.147c0-1-.216-1.321-.751-1.321-.679,0-.786.893-.786,2.538h-6.221c.07-3.717,1.572-7.007,7.542-7.007,5.5,0,7.257,2.859,7.257,6.221,0,2.608-.893,3.609-2.4,5.613-1.322,1.857-1.606,2.646-1.606,3.752v.608Zm0,8.367v-7.115h6.829v7.115Z" transform="translate(-2210.989 -941.706)" fill="#fff"/>
          </g>
          <g id="Grupo_14453" data-name="Grupo 14453" transform="translate(166.502 47.748)">
            <path id="Trazado_24153" data-name="Trazado 24153" d="M2251.447,375.544v-1.251c0-2.508.885-4.053,2.652-6.228a4.584,4.584,0,0,0,1.254-3.243c0-1.032-.222-1.362-.775-1.362-.7,0-.81.921-.81,2.616h-6.411c.073-3.831,1.62-7.221,7.773-7.221,5.673,0,7.479,2.946,7.479,6.411,0,2.688-.922,3.72-2.469,5.784-1.362,1.914-1.657,2.727-1.657,3.867v.627Zm0,8.622v-7.332h7.037v7.332Z" transform="translate(-2247.358 -358.855)" fill="#fff"/>
          </g>
          <g id="Grupo_14455" data-name="Grupo 14455" transform="translate(253.596)">
            <g id="Grupo_14454" data-name="Grupo 14454">
              <path id="Trazado_24154" data-name="Trazado 24154" d="M2595.18,209.715v-2.746c0-5.5,1.943-8.895,5.82-13.668,2.107-2.666,2.752-4.365,2.752-7.117,0-2.265-.487-2.989-1.7-2.989-1.534,0-1.778,2.021-1.778,5.741h-14.071c.158-8.408,3.556-15.847,17.059-15.847,12.451,0,16.413,6.465,16.413,14.07,0,5.9-2.021,8.164-5.418,12.693-2.988,4.2-3.634,5.985-3.634,8.487v1.376Zm0,18.922V212.546h15.446v16.091Z" transform="translate(-2586.205 -173.089)" fill="#b2dac8"/>
            </g>
          </g>
          <g id="Grupo_14456" data-name="Grupo 14456" transform="translate(321.111 99.169)">
            <path id="Trazado_24155" data-name="Trazado 24155" d="M2852.673,575.106v-1.214c0-2.433.824-3.932,2.465-6.042a4.561,4.561,0,0,0,1.165-3.148c0-1-.206-1.321-.719-1.321-.649,0-.752.894-.752,2.539h-5.959c.067-3.718,1.506-7.007,7.224-7.007,5.273,0,6.952,2.858,6.952,6.22,0,2.609-.856,3.61-2.294,5.613-1.265,1.857-1.54,2.646-1.54,3.752v.608Zm0,8.366v-7.115h6.542v7.115Z" transform="translate(-2848.874 -558.912)" fill="#fff"/>
          </g>
          <g id="Grupo_14457" data-name="Grupo 14457" transform="translate(391.295 227.622)">
            <path id="Trazado_24156" data-name="Trazado 24156" d="M3125.73,1074.863v-1.214c0-2.434.822-3.932,2.465-6.043a4.557,4.557,0,0,0,1.165-3.147c0-1-.205-1.321-.719-1.321-.65,0-.754.894-.754,2.539h-5.958c.067-3.717,1.506-7.007,7.226-7.007,5.271,0,6.95,2.859,6.95,6.22,0,2.608-.856,3.61-2.3,5.613-1.265,1.857-1.538,2.646-1.538,3.753v.607Zm0,8.366v-7.114h6.542v7.114Z" transform="translate(-3121.929 -1058.67)" fill="#fff"/>
          </g>
          <g id="Grupo_14459" data-name="Grupo 14459" transform="translate(55.663 119.476)">
            <g id="Grupo_14458" data-name="Grupo 14458">
              <path id="Trazado_24157" data-name="Trazado 24157" d="M1825.064,674.383v-2.733c0-5.479,1.933-8.855,5.794-13.607,2.1-2.655,2.74-4.346,2.74-7.085,0-2.255-.485-2.976-1.691-2.976-1.528,0-1.77,2.012-1.77,5.716H1816.13c.157-8.37,3.539-15.777,16.982-15.777,12.395,0,16.341,6.437,16.341,14.007,0,5.873-2.012,8.128-5.394,12.637-2.976,4.182-3.619,5.958-3.619,8.449v1.37Zm0,18.838V677.2h15.376v16.019Z" transform="translate(-1816.13 -637.92)" fill="#b2dac8"/>
            </g>
          </g>
          <path id="Trazado_24158" data-name="Trazado 24158" d="M2830.841,1385.274a48.268,48.268,0,0,1,2.822,5.85c.5,1.69,2.246,2.952,1.421,3.557s-3-2-3-2-.652,3.526-.688,4.641-.6,3.09-1.422,3.128-.273-5.3-.273-5.3-.9,4.451-1.647,4.647-.433-5.636-.433-5.636-.729,4.794-1.114,5.12-.818-.153-.972-1.913a16.877,16.877,0,0,1,.143-3.6,37.867,37.867,0,0,1-1,3.7c-.23.369-.817.706-.77-1.925s1.078-8.3,2.744-10.93Z" transform="translate(-2509.215 -1073.211)" fill="#fb9391"/>
          <path id="Trazado_24159" data-name="Trazado 24159" d="M2888.615,1686.126s.139,9.624.064,9.762.7,1.342.7,1.342l3.034.544,2.771-1.274s-.243-8.947.046-10.358S2888.615,1686.126,2888.615,1686.126Z" transform="translate(-2557.289 -1296.77)" fill="#fb9391"/>
          <path id="Trazado_24160" data-name="Trazado 24160" d="M2862.743,1725.947a7.892,7.892,0,0,1-6.49-.8s-11.649,4.367-11.294,7.686c0,0-.5.989,4.552.776s12.892-.438,13.1-.555S2863.812,1733.469,2862.743,1725.947Z" transform="translate(-2524.845 -1326.217)" fill="#0a3f64"/>
          <path id="Trazado_24161" data-name="Trazado 24161" d="M3027.1,1686.126s.137,9.624.063,9.762.7,1.342.7,1.342l3.035.544,2.771-1.274s-.244-8.947.046-10.358S3027.1,1686.126,3027.1,1686.126Z" transform="translate(-2660.176 -1296.77)" fill="#fb9391"/>
          <path id="Trazado_24162" data-name="Trazado 24162" d="M3001.218,1725.947a7.892,7.892,0,0,1-6.49-.8s-11.649,4.367-11.294,7.686c0,0-.5.989,4.552.776s12.892-.438,13.1-.555S3002.287,1733.469,3001.218,1725.947Z" transform="translate(-2627.727 -1326.217)" fill="#0a3f64"/>
          <path id="Trazado_24163" data-name="Trazado 24163" d="M2908,1301.459l2.6,100.683-7.877-.29-18.207-74.811-9.509,75.881-8.259-.78-5.949-101.016,12.656-9.678Z" transform="translate(-2536.628 -1003.994)" fill="#4fb2b2"/>
          <path id="Trazado_24164" data-name="Trazado 24164" d="M2911.032,1037.576s-.738-1.37-1.463-.906c-1.846,1.184-.279,3.066.836,3.554Z" transform="translate(-2572.225 -814.631)" fill="#ea6868"/>
          <path id="Trazado_24165" data-name="Trazado 24165" d="M2915.006,992.8l.01,0c.008-.136.015-.273.027-.409a10.582,10.582,0,1,1,19.771,6.129c-1.2,2.376-2.252,4.406-3.322,6.076a15.124,15.124,0,0,0-2.3,9.312l.2,2.573c-6.789,2.856-9.45-.619-9.45-.619l.3-4.661a1.175,1.175,0,0,0-1-1.234l-.011,0C2911.255,1008.719,2914.677,996.422,2915.006,992.8Z" transform="translate(-2576.148 -774.661)" fill="#fb9391"/>
          <path id="Trazado_24166" data-name="Trazado 24166" d="M2986.991,1022.2l-3.509,6.869-1.881-.558-.312-9.3Z" transform="translate(-2626.143 -801.728)" fill="#0a3f64"/>
          <path id="Trazado_24167" data-name="Trazado 24167" d="M2979.673,1051.927a1.575,1.575,0,0,1,.888-.668,2.651,2.651,0,0,1,2.869.532c1.177,1.413-1.74,4.606-4.159,2.667C2979.271,1054.457,2978.6,1053.654,2979.673,1051.927Z" transform="translate(-2624.491 -825.4)" fill="#fb9391"/>
          <path id="Trazado_24168" data-name="Trazado 24168" d="M2918.547,1004.119s-1.611.926-2.566,7.288c0,0,.135-7.176,1-7.889S2918.547,1004.119,2918.547,1004.119Z" transform="translate(-2577.622 -789.914)" fill="#0a3f64"/>
          <path id="Trazado_24169" data-name="Trazado 24169" d="M2933.795,1109H2923.25l-4.087,17.676v33.909s9.68,4.688,22.426-1.443l-3.716-39.681Z" transform="translate(-2579.986 -868.441)" fill="#d5ede9"/>
          <path id="Trazado_24170" data-name="Trazado 24170" d="M2976.088,1109s15.912,6.733,19.039,11.062,12.5,23.087,8.177,61.324h-8.569l-.21-3.967-15.872,1.563Z" transform="translate(-2622.28 -868.441)" fill="#18898e"/>
          <path id="Trazado_24171" data-name="Trazado 24171" d="M2853.158,1109s-15.91,6.733-19.037,11.062-12.506,23.087-8.177,61.324h8.968l-.19-3.967,15.872,1.563Z" transform="translate(-2509.894 -868.441)" fill="#18898e"/>
          <path id="Trazado_24172" data-name="Trazado 24172" d="M3028.673,1244.917a.233.233,0,0,1-.232-.218c-.02-.315-2.046-31.557-6.317-45.08a.234.234,0,0,1,.446-.141c4.288,13.58,6.317,44.877,6.337,45.193a.234.234,0,0,1-.219.247Z" transform="translate(-2656.475 -935.542)" fill="#0a3f64"/>
          <path id="Trazado_24173" data-name="Trazado 24173" d="M2862.709,1244.535h-.009a.235.235,0,0,1-.226-.243c.057-1.5,1.424-36.765,4.27-44.824a.234.234,0,0,1,.441.157c-2.823,7.992-4.229,44.319-4.243,44.684A.235.235,0,0,1,2862.709,1244.535Z" transform="translate(-2537.868 -935.541)" fill="#0a3f64"/>
          <path id="Trazado_24174" data-name="Trazado 24174" d="M2938.585,1112.025l-1.854,3.156,3.862,44.643-5.959,9.62-4.423-9.861,4.286-44.671-1.353-3.157,3.636-1.352Z" transform="translate(-2588.194 -869.483)" fill="#0a3f64"/>
          <path id="Trazado_24175" data-name="Trazado 24175" d="M2945.607,1103.55l-.789-1.734-4.959,1.734-4.1-1.885-.695,1.885.874,3.245,3.743-2.43,3.653,2.656Z" transform="translate(-2591.798 -862.991)" fill="#b2dac8"/>
          <path id="Trazado_24176" data-name="Trazado 24176" d="M3061.462,1433.178h-2.724v-4.89h-9.363v4.89h-2.724v-5.171a2.344,2.344,0,0,1,2.225-2.443h10.36a2.345,2.345,0,0,1,2.226,2.443Z" transform="translate(-2674.705 -1103.637)" fill="#0a3f64"/>
          <path id="Rectángulo_3891" data-name="Rectángulo 3891" d="M5.821,0h28.7a5.816,5.816,0,0,1,5.816,5.816V20.691a5.823,5.823,0,0,1-5.823,5.823H5.823A5.823,5.823,0,0,1,0,20.691V5.821A5.821,5.821,0,0,1,5.821,0Z" transform="translate(359.906 328.319)" fill="#f7a705"/>
          <path id="Trazado_24177" data-name="Trazado 24177" d="M3020.765,1485.535a.215.215,0,0,1-.067-.01l-21.213-6.7a.227.227,0,1,1,.137-.433l21.139,6.674,18.8-6.725a.227.227,0,1,1,.153.427l-18.875,6.751A.209.209,0,0,1,3020.765,1485.535Z" transform="translate(-2639.545 -1142.842)" fill="#0a3f64"/>
          <rect id="Rectángulo_3892" data-name="Rectángulo 3892" width="2.415" height="4.373" transform="translate(380.052 340.167)" fill="#fff"/>
          <path id="Trazado_24178" data-name="Trazado 24178" d="M3047.192,1390.625s-2,5.449-2.335,7.181-1.94,3.161-1.06,3.681,2.786-2.288,2.786-2.288a8.773,8.773,0,0,1,.58,2.1c.147,1.106.686,2.12,1.5,2.076s.534-1.956.534-1.956.477,2.054,1.391,1.776c.737-.226.581-2.969.581-2.969a17.218,17.218,0,0,0,.664,2.193c.289.532,1.289.709,1.266-1.057s-.036-1.717-.036-1.717a13.509,13.509,0,0,0,.834,2.074c.266.343,1.287.44,1.024-1.031-.46-2.591-1.825-7.611-3.742-10.059Z" transform="translate(-2672.392 -1077.68)" fill="#fb9391"/>
          <path id="Trazado_24179" data-name="Trazado 24179" d="M2932.14,978.758c-.3-.31-.861-.559-1.116-.209a.756.756,0,0,0-.092.5,4.663,4.663,0,0,0,.356,1.473c-1.777-2.084-4.743-2.73-7.481-2.69s-5.459.639-8.195.5c-1.085-.053-2.385-.13-3.023.749a1.864,1.864,0,0,0,.1,2.124,3.279,3.279,0,0,0,1.9,1.155,1.477,1.477,0,0,0-1.855,2.095,2.972,2.972,0,0,0,2.477,1.069,83.8,83.8,0,0,0,8.943.253l-1.3,1.049a1.121,1.121,0,0,0-.372.423.838.838,0,0,0,.129.743,2.21,2.21,0,0,0,1.742.888,8.915,8.915,0,0,0,2.009-.218,15.965,15.965,0,0,1,2.95-.2,1.478,1.478,0,0,1,.6.1,1.889,1.889,0,0,1,.59.566,8.538,8.538,0,0,0,4.285,2.277c.488.149,1.134.243,1.405-.188a1.119,1.119,0,0,0,.126-.572,13.222,13.222,0,0,0-1.647-6.816.743.743,0,0,0,1.348.043c.417-.786-.572-1.436-1.127-1.758-.508-.3-.992-.358-1.37-.853C2932.934,980.495,2932.873,979.509,2932.14,978.758Z" transform="translate(-2574.89 -770.989)" fill="#0a3f64"/>
          <path id="Trazado_24180" data-name="Trazado 24180" d="M2982.295,1111.842l-3.125,12.878,3.125,1.305-4.6,26.7-1.6-43.726Z" transform="translate(-2622.28 -868.441)" fill="#62c1c6"/>
          <path id="Trazado_24181" data-name="Trazado 24181" d="M2910.923,1111.842l3.124,12.878-3.124,1.305,4.6,26.7,1.6-43.726Z" transform="translate(-2573.863 -868.441)" fill="#62c1c6"/>
          <g id="Grupo_14461" data-name="Grupo 14461" transform="translate(390.061 295.882)">
            <g id="Grupo_14460" data-name="Grupo 14460">
              <path id="Trazado_24182" data-name="Trazado 24182" d="M3206.248,1466.766a.378.378,0,0,1-.406-.422c6.589-54.126,14.395-92.882,21.978-109.132.169-.361.29-.621.332-.75a.378.378,0,1,1,.72.232c-.056.173-.173.423-.366.838-7.551,16.177-15.333,54.854-21.913,108.9A.377.377,0,0,1,3206.248,1466.766Z" transform="translate(-3183.038 -1347.985)" fill="#0a3f64"/>
              <path id="Trazado_24183" data-name="Trazado 24183" d="M3295.758,1329.606c-.914,1.834-6.412,5.861-6.936,5.6s-.622-7.075.292-8.91a3.711,3.711,0,0,1,6.644,3.31Z" transform="translate(-3244.398 -1324.24)" fill="#0a3f64"/>
              <path id="Trazado_24184" data-name="Trazado 24184" d="M3254.3,1366.1c.936,1.876.839,8.847.3,9.115s-6.163-3.85-7.1-5.727a3.8,3.8,0,1,1,6.794-3.388Z" transform="translate(-3213.695 -1353.776)" fill="#0a3f64"/>
              <path id="Trazado_24185" data-name="Trazado 24185" d="M3285.047,1391.665c-2.038.491-8.81-1.174-8.949-1.756s5.137-5.137,7.177-5.626a3.8,3.8,0,1,1,1.772,7.382Z" transform="translate(-3235.236 -1368.771)" fill="#0a3f64"/>
              <path id="Trazado_24186" data-name="Trazado 24186" d="M3195.332,1508.251c1.9,2.963,3,14.613,2.156,15.156s-10.981-5.308-12.882-8.271a6.373,6.373,0,1,1,10.726-6.885Z" transform="translate(-3166.512 -1458.777)" fill="#0a3f64"/>
              <path id="Trazado_24187" data-name="Trazado 24187" d="M3252.368,1543.121c-3.314,1.185-14.913-.367-15.252-1.312s7.646-9.5,10.959-10.688a6.373,6.373,0,1,1,4.293,12Z" transform="translate(-3206.267 -1477.668)" fill="#0a3f64"/>
              <path id="Trazado_24188" data-name="Trazado 24188" d="M3164.453,1566.351c3.067,3.023,7.52,16.634,6.656,17.509s-14.537-3.379-17.6-6.4a7.8,7.8,0,1,1,10.948-11.106Z" transform="translate(-3142.428 -1502.453)" fill="#0a3f64"/>
              <path id="Trazado_24189" data-name="Trazado 24189" d="M3244.262,1608.616c-4.183,1.026-18.108-2.323-18.4-3.516s10.5-10.605,14.686-11.631a7.8,7.8,0,0,1,3.715,15.147Z" transform="translate(-3197.909 -1524.1)" fill="#0a3f64"/>
              <path id="Trazado_24190" data-name="Trazado 24190" d="M3154.01,1635.377c3.067,3.024,7.519,16.636,6.656,17.512s-14.537-3.38-17.6-6.4a7.8,7.8,0,1,1,10.948-11.109Z" transform="translate(-3134.669 -1553.737)" fill="#0a3f64"/>
              <path id="Trazado_24191" data-name="Trazado 24191" d="M3233.82,1677.642c-4.181,1.026-18.107-2.323-18.4-3.517s10.5-10.6,14.685-11.631a7.8,7.8,0,1,1,3.713,15.148Z" transform="translate(-3190.153 -1575.384)" fill="#0a3f64"/>
              <path id="Trazado_24192" data-name="Trazado 24192" d="M3127.875,1730.436c3.989,1.628,13.29,12.517,12.825,13.656s-14.728,2.412-18.717.786a7.8,7.8,0,0,1,5.892-14.441Z" transform="translate(-3117.129 -1625.6)" fill="#0a3f64"/>
              <path id="Trazado_24193" data-name="Trazado 24193" d="M3224.881,1746.369c-4.022,1.541-18.256-.041-18.7-1.189s9.094-11.835,13.115-13.375a7.8,7.8,0,0,1,5.58,14.564Z" transform="translate(-3183.284 -1626.662)" fill="#0a3f64"/>
              <path id="Trazado_24194" data-name="Trazado 24194" d="M3239.893,1410.969c.951,1.906.853,8.99.308,9.261s-6.261-3.91-7.212-5.817a3.858,3.858,0,1,1,6.9-3.444Z" transform="translate(-3202.907 -1387.09)" fill="#0a3f64"/>
              <path id="Trazado_24195" data-name="Trazado 24195" d="M3270.162,1437.628c-2.07.5-8.949-1.192-9.092-1.784s5.221-5.219,7.292-5.716a3.857,3.857,0,1,1,1.8,7.5Z" transform="translate(-3224.07 -1402.831)" fill="#0a3f64"/>
              <path id="Trazado_24196" data-name="Trazado 24196" d="M3214.056,1452.055c1.569,2.589,2.255,12.63,1.517,13.078s-9.322-4.809-10.89-7.4a5.48,5.48,0,1,1,9.373-5.681Z" transform="translate(-3181.589 -1417.241)" fill="#0a3f64"/>
              <path id="Trazado_24197" data-name="Trazado 24197" d="M3261.689,1487.929c-2.944.707-12.717-1.694-12.919-2.536s7.418-7.415,10.36-8.122a5.48,5.48,0,0,1,2.559,10.658Z" transform="translate(-3214.931 -1437.824)" fill="#0a3f64"/>
            </g>
          </g>
          <g id="Grupo_14463" data-name="Grupo 14463" transform="translate(17.668 295.882)">
            <g id="Grupo_14462" data-name="Grupo 14462">
              <path id="Trazado_24198" data-name="Trazado 24198" d="M1717.684,1466.766a.378.378,0,0,0,.405-.422c-6.589-54.126-14.394-92.882-21.978-109.132-.168-.361-.29-.621-.331-.75a.378.378,0,1,0-.719.232,9.128,9.128,0,0,0,.365.838c7.551,16.177,15.333,54.854,21.912,108.9A.379.379,0,0,0,1717.684,1466.766Z" transform="translate(-1688.171 -1347.985)" fill="#18898e"/>
              <path id="Trazado_24199" data-name="Trazado 24199" d="M1672.482,1329.606c.914,1.834,6.412,5.861,6.936,5.6s.621-7.075-.293-8.91a3.711,3.711,0,0,0-6.643,3.31Z" transform="translate(-1671.119 -1324.24)" fill="#18898e"/>
              <path id="Trazado_24200" data-name="Trazado 24200" d="M1713.422,1366.1c-.936,1.876-.839,8.847-.3,9.115s6.163-3.85,7.1-5.727a3.8,3.8,0,1,0-6.794-3.388Z" transform="translate(-1701.302 -1353.776)" fill="#18898e"/>
              <path id="Trazado_24201" data-name="Trazado 24201" d="M1671.221,1391.665c2.038.491,8.81-1.174,8.949-1.756s-5.138-5.137-7.177-5.626a3.8,3.8,0,1,0-1.772,7.382Z" transform="translate(-1668.309 -1368.771)" fill="#18898e"/>
              <path id="Trazado_24202" data-name="Trazado 24202" d="M1754.236,1508.251c-1.9,2.963-3,14.613-2.156,15.156s10.98-5.308,12.882-8.271a6.373,6.373,0,1,0-10.725-6.885Z" transform="translate(-1730.334 -1458.777)" fill="#18898e"/>
              <path id="Trazado_24203" data-name="Trazado 24203" d="M1681.851,1543.121c3.314,1.185,14.914-.367,15.252-1.312s-7.645-9.5-10.959-10.688a6.373,6.373,0,1,0-4.293,12Z" transform="translate(-1675.229 -1477.668)" fill="#18898e"/>
              <path id="Trazado_24204" data-name="Trazado 24204" d="M1768.184,1566.351c-3.067,3.023-7.52,16.634-6.657,17.509s14.537-3.379,17.605-6.4a7.8,7.8,0,1,0-10.948-11.106Z" transform="translate(-1737.486 -1502.453)" fill="#18898e"/>
              <path id="Trazado_24205" data-name="Trazado 24205" d="M1675.916,1608.616c4.183,1.026,18.107-2.323,18.4-3.516s-10.5-10.605-14.685-11.631a7.8,7.8,0,1,0-3.715,15.147Z" transform="translate(-1669.546 -1524.1)" fill="#18898e"/>
              <path id="Trazado_24206" data-name="Trazado 24206" d="M1778.626,1635.377c-3.068,3.024-7.519,16.636-6.657,17.512s14.538-3.38,17.6-6.4a7.8,7.8,0,1,0-10.948-11.109Z" transform="translate(-1745.245 -1553.737)" fill="#18898e"/>
              <path id="Trazado_24207" data-name="Trazado 24207" d="M1686.358,1677.642c4.183,1.026,18.108-2.323,18.4-3.517s-10.5-10.6-14.685-11.631a7.8,7.8,0,0,0-3.715,15.148Z" transform="translate(-1677.304 -1575.384)" fill="#18898e"/>
              <path id="Trazado_24208" data-name="Trazado 24208" d="M1794.5,1730.436c-3.987,1.628-13.288,12.517-12.824,13.656s14.729,2.412,18.717.786a7.8,7.8,0,0,0-5.893-14.441Z" transform="translate(-1752.525 -1625.6)" fill="#18898e"/>
              <path id="Trazado_24209" data-name="Trazado 24209" d="M1697.11,1746.369c4.022,1.541,18.256-.041,18.7-1.189s-9.1-11.835-13.116-13.375a7.8,7.8,0,0,0-5.58,14.564Z" transform="translate(-1685.985 -1626.662)" fill="#18898e"/>
              <path id="Trazado_24210" data-name="Trazado 24210" d="M1727.458,1410.969c-.951,1.906-.853,8.99-.309,9.261s6.261-3.91,7.213-5.817a3.858,3.858,0,0,0-6.9-3.444Z" transform="translate(-1711.722 -1387.09)" fill="#18898e"/>
              <path id="Trazado_24211" data-name="Trazado 24211" d="M1685.553,1437.628c2.072.5,8.951-1.192,9.093-1.784s-5.221-5.219-7.292-5.716a3.857,3.857,0,1,0-1.8,7.5Z" transform="translate(-1678.923 -1402.831)" fill="#18898e"/>
              <path id="Trazado_24212" data-name="Trazado 24212" d="M1741.868,1452.055c-1.569,2.589-2.256,12.63-1.517,13.078s9.321-4.809,10.89-7.4a5.48,5.48,0,0,0-9.373-5.681Z" transform="translate(-1721.613 -1417.241)" fill="#18898e"/>
              <path id="Trazado_24213" data-name="Trazado 24213" d="M1679.371,1487.929c2.943.707,12.716-1.694,12.918-2.536s-7.417-7.415-10.359-8.122a5.48,5.48,0,0,0-2.558,10.658Z" transform="translate(-1673.406 -1437.824)" fill="#18898e"/>
            </g>
          </g>
          <g id="Grupo_14465" data-name="Grupo 14465" transform="translate(0 348.597)">
            <g id="Grupo_14464" data-name="Grupo 14464">
              <path id="Trazado_24214" data-name="Trazado 24214" d="M1627.317,1609.426a.188.188,0,0,0,.043,0,.212.212,0,0,0,.185-.236c-3.7-30.417-8.089-52.2-12.351-61.328-.095-.2-.163-.349-.186-.422a.213.213,0,0,0-.4.13c.031.1.1.238.206.472,4.243,9.092,8.617,30.826,12.314,61.2A.21.21,0,0,0,1627.317,1609.426Z" transform="translate(-1610.732 -1542.676)" fill="#0a3f64"/>
              <path id="Trazado_24215" data-name="Trazado 24215" d="M1601.916,1532.348c.514,1.03,3.6,3.294,3.9,3.147s.349-3.977-.164-5.007a2.085,2.085,0,1,0-3.733,1.86Z" transform="translate(-1601.15 -1529.332)" fill="#0a3f64"/>
              <path id="Trazado_24216" data-name="Trazado 24216" d="M1624.923,1552.854c-.526,1.055-.471,4.972-.171,5.122s3.464-2.163,3.99-3.217a2.134,2.134,0,1,0-3.818-1.9Z" transform="translate(-1618.112 -1545.93)" fill="#0a3f64"/>
              <path id="Trazado_24217" data-name="Trazado 24217" d="M1601.206,1567.222c1.146.274,4.951-.661,5.029-.987s-2.887-2.886-4.033-3.162a2.134,2.134,0,0,0-1,4.149Z" transform="translate(-1599.571 -1554.357)" fill="#0a3f64"/>
              <path id="Trazado_24218" data-name="Trazado 24218" d="M1647.859,1632.74c-1.069,1.665-1.687,8.212-1.212,8.518s6.171-2.984,7.239-4.648a3.581,3.581,0,0,0-6.027-3.87Z" transform="translate(-1634.426 -1604.938)" fill="#0a3f64"/>
              <path id="Trazado_24219" data-name="Trazado 24219" d="M1607.18,1652.338c1.862.666,8.381-.207,8.571-.738s-4.3-5.339-6.158-6.005a3.581,3.581,0,1,0-2.412,6.743Z" transform="translate(-1603.459 -1615.555)" fill="#0a3f64"/>
              <path id="Trazado_24220" data-name="Trazado 24220" d="M1655.7,1665.391c-1.724,1.7-4.226,9.348-3.741,9.84s8.17-1.9,9.893-3.6a4.382,4.382,0,1,0-6.152-6.242Z" transform="translate(-1638.446 -1629.482)" fill="#0a3f64"/>
              <path id="Trazado_24221" data-name="Trazado 24221" d="M1603.846,1689.143c2.35.576,10.175-1.306,10.34-1.976s-5.9-5.96-8.252-6.537a4.382,4.382,0,0,0-2.087,8.513Z" transform="translate(-1600.266 -1641.647)" fill="#0a3f64"/>
              <path id="Trazado_24222" data-name="Trazado 24222" d="M1661.566,1704.182c-1.724,1.7-4.226,9.348-3.741,9.84s8.17-1.9,9.893-3.6a4.382,4.382,0,0,0-6.152-6.242Z" transform="translate(-1642.806 -1658.303)" fill="#0a3f64"/>
              <path id="Trazado_24223" data-name="Trazado 24223" d="M1609.714,1727.934c2.351.575,10.176-1.306,10.341-1.976s-5.9-5.96-8.253-6.536a4.383,4.383,0,1,0-2.088,8.513Z" transform="translate(-1604.626 -1670.468)" fill="#0a3f64"/>
              <path id="Trazado_24224" data-name="Trazado 24224" d="M1670.487,1757.6c-2.241.915-7.468,7.035-7.207,7.675s8.277,1.356,10.518.442a4.383,4.383,0,0,0-3.311-8.116Z" transform="translate(-1646.898 -1698.686)" fill="#0a3f64"/>
              <path id="Trazado_24225" data-name="Trazado 24225" d="M1615.757,1766.555c2.26.865,10.259-.023,10.506-.668s-5.111-6.651-7.371-7.517a4.382,4.382,0,1,0-3.135,8.185Z" transform="translate(-1609.505 -1699.284)" fill="#0a3f64"/>
              <path id="Trazado_24226" data-name="Trazado 24226" d="M1632.812,1578.073c-.535,1.072-.479,5.052-.174,5.2s3.519-2.2,4.054-3.268a2.168,2.168,0,1,0-3.879-1.935Z" transform="translate(-1623.968 -1564.652)" fill="#0a3f64"/>
              <path id="Trazado_24227" data-name="Trazado 24227" d="M1609.261,1593.052c1.164.28,5.03-.669,5.11-1s-2.934-2.934-4.1-3.213a2.167,2.167,0,1,0-1.012,4.214Z" transform="translate(-1605.535 -1573.498)" fill="#0a3f64"/>
              <path id="Trazado_24228" data-name="Trazado 24228" d="M1640.908,1601.162c-.881,1.454-1.267,7.1-.852,7.349s5.238-2.7,6.12-4.156a3.08,3.08,0,0,0-5.268-3.194Z" transform="translate(-1629.526 -1581.598)" fill="#0a3f64"/>
              <path id="Trazado_24229" data-name="Trazado 24229" d="M1605.787,1621.322c1.654.4,7.146-.953,7.259-1.424s-4.168-4.168-5.822-4.565a3.08,3.08,0,0,0-1.437,5.989Z" transform="translate(-1602.435 -1593.164)" fill="#0a3f64"/>
            </g>
          </g>
          <path id="Trazado_24230" data-name="Trazado 24230" d="M2567.457,1433.692a45.022,45.022,0,0,1,.9,5.995c-.016,1.646,1.19,3.251.29,3.563s-2.125-2.607-2.125-2.607-1.553,2.965-1.892,3.949-1.392,2.59-2.13,2.4,1.217-4.8,1.217-4.8-2.03,3.722-2.75,3.691,1.166-5.147,1.166-5.147-1.969,4.076-2.4,4.261-.687-.364-.341-1.975a15.723,15.723,0,0,1,1.119-3.17,35.478,35.478,0,0,1-1.907,3.024c-.307.265-.924.4-.156-1.93s3.248-7.109,5.457-8.992Z" transform="translate(-2311.713 -1108.38)" fill="#fb9391"/>
          <path id="Trazado_24231" data-name="Trazado 24231" d="M2633.348,1127.695c-.369,2.534,2.3,5.166,1.049,7.4-.277.5-.724.888-.965,1.4a2.628,2.628,0,0,0,1.208,3.2,5.02,5.02,0,0,0,3.646.344c1.219-.275,2.375-.789,3.585-1.1,2.714-.705,5.573-.383,8.377-.443,2.844-.061,5.739-.513,8.5.171,3.185.788,5.8,2.984,8.614,4.666a28.985,28.985,0,0,0,9.324,3.563,10.564,10.564,0,0,0,5.18-.022,7.125,7.125,0,0,0,4.507-8.126,8.473,8.473,0,0,0-3.01-4.8c-1.333-1.083-3.168-1.688-4.041-3.264-1.222-2.205.24-4.927.044-7.442a7.2,7.2,0,0,0-3.321-5.212c-1.627-1.059-3.795-1.547-4.846-3.326-1.141-1.934-.257-4.179-.164-6.244a10.158,10.158,0,0,0-3.538-7.818,13.181,13.181,0,0,0-2.175-1.569c-5.192-3.005-12.665-2.865-15.721,3.138-.936,1.839-1.272,4.019-2.637,5.567-1.485,1.681-4,2.39-5.014,4.391-1.269,2.516.51,5.767-.709,8.307-.8,1.661-2.624,2.506-4.259,3.352S2633.613,1125.872,2633.348,1127.695Zm36.339-10.831c.973.571,1.738,1.562,2.791,2.155a7.516,7.516,0,0,1,3.546,3.3,5.352,5.352,0,0,1,.124,3.35,15.935,15.935,0,0,1-1.295,3.148,4.6,4.6,0,0,0-.491-3.015c-.874-1.591-2.6-2.522-3.69-3.973C2669.789,1120.652,2668.911,1118.265,2669.687,1116.864Z" transform="translate(-2367.557 -859.633)" fill="#0a3f64"/>
          <path id="Trazado_24232" data-name="Trazado 24232" d="M2641.625,1747.267s1.845,14.475.551,16.268c-.74,1.024-17.7,5.353-18.511,3.116s11.856-7.253,12.227-11.64a27.306,27.306,0,0,0-.684-8.327Z" transform="translate(-2360.412 -1342.22)" fill="#fb9391"/>
          <path id="Trazado_24233" data-name="Trazado 24233" d="M2642.615,1789.946c-8.179,5.739-11.335,4.632-12.513,3.338-3.358,2.286-6.84,4.3-6.4,5.508.813,2.237,17.772-2.091,18.512-3.116C2642.686,1795.021,2642.738,1792.667,2642.615,1789.946Z" transform="translate(-2360.438 -1374.362)" fill="#0a3f64"/>
          <path id="Trazado_24234" data-name="Trazado 24234" d="M2739.006,1747.267s1.846,14.475.552,16.268c-.739,1.024-17.7,5.353-18.511,3.116s11.856-7.253,12.226-11.64a27.329,27.329,0,0,0-.683-8.327Z" transform="translate(-2432.764 -1342.22)" fill="#fb9391"/>
          <path id="Trazado_24235" data-name="Trazado 24235" d="M2739.995,1789.946c-8.179,5.739-11.335,4.632-12.511,3.338-3.359,2.286-6.84,4.3-6.4,5.508.812,2.237,17.773-2.091,18.511-3.116C2740.065,1795.021,2740.118,1792.667,2739.995,1789.946Z" transform="translate(-2432.79 -1374.362)" fill="#0a3f64"/>
          <path id="Trazado_24236" data-name="Trazado 24236" d="M2689.671,1145.695s-.608-1.221-1.254-.835c-1.65.984-.214,2.738.748,3.2Z" transform="translate(-2407.99 -895.027)" fill="#ea6868"/>
          <path id="Trazado_24237" data-name="Trazado 24237" d="M2705.153,1099.164a9.261,9.261,0,0,1,6.178,13.879,39.962,39.962,0,0,1-4.566,7.21,9.211,9.211,0,0,0-2.4,6.307l.044,2.357c-5.678,2.01-7.688-.952-7.688-.952l.663-5.348h0c-5.7-1.406-3.607-11.985-3.216-15.141l.008,0c.011-.12.02-.239.034-.358A9.264,9.264,0,0,1,2705.153,1099.164Z" transform="translate(-2412.302 -861.009)" fill="#fb9391"/>
          <path id="Trazado_24238" data-name="Trazado 24238" d="M2704.391,1107.224a39.538,39.538,0,0,1,2.622,4.081,10.018,10.018,0,0,1,1.779,4.755,11.966,11.966,0,0,0,3.811-4.114,8.687,8.687,0,0,0,1.152-2.347,9.666,9.666,0,0,0,.029-3.694,10.1,10.1,0,0,0-1.312-4.566,7.686,7.686,0,0,0-2.354-2.1,13.02,13.02,0,0,0-7.009-2.093,9.385,9.385,0,0,0-6.659,2.786c-2.182,2.318-2.807,5.655-3.337,8.794a9.374,9.374,0,0,1,2.455-3.209,7.928,7.928,0,0,1,2.082-1.618,39.248,39.248,0,0,0,4.1-1.652C2702.095,1104.267,2703.159,1105.617,2704.391,1107.224Z" transform="translate(-2412.039 -859.634)" fill="#0a3f64"/>
          <path id="Trazado_24239" data-name="Trazado 24239" d="M2749.131,1160.315a1.372,1.372,0,0,1,.8-.56,2.321,2.321,0,0,1,2.5.547c.989,1.269-1.654,3.98-3.714,2.214C2748.708,1162.516,2748.146,1161.8,2749.131,1160.315Z" transform="translate(-2453.225 -906.051)" fill="#fb9391"/>
          <path id="Trazado_24240" data-name="Trazado 24240" d="M2618.006,1204.816s.708-3.6-1.688-3.625a7.607,7.607,0,0,1-7.355-.219s-1.746-.029-1.576,3.057c0,0-9.765,2.975-13.02,5.388s-6.454,19.081-11.841,29.07-9.024,18.126-7.115,22.659l4.7,1.714s4.551-1.027,10.162-12.588,5.388-10.929,5.388-10.929-.758,7.112,1.6,10.816l26.432.674s3.368-1.685,5.472-14.227c0,0,6.129-2.748,5.037-15.509C2633.256,1210.109,2625.99,1207.172,2618.006,1204.816Z" transform="translate(-2324.205 -936.774)" fill="#fff"/>
          <path id="Trazado_24241" data-name="Trazado 24241" d="M2623.275,1264.833l16.557-2.9a.405.405,0,0,1,.47.33l4.063,23.162a.405.405,0,0,1-.329.47l-16.557,2.9a.406.406,0,0,1-.47-.329l-4.063-23.164A.407.407,0,0,1,2623.275,1264.833Z" transform="translate(-2359.901 -982.058)" fill="#0a3f64"/>
          <rect id="Rectángulo_3893" data-name="Rectángulo 3893" width="7.128" height="1.515" transform="matrix(-0.985, 0.173, -0.173, -0.985, 275.284, 281.398)" fill="#b2dac8"/>
          <path id="Trazado_24242" data-name="Trazado 24242" d="M2651.34,1261.275a1.179,1.179,0,1,1,1.364.957A1.177,1.177,0,0,1,2651.34,1261.275Z" transform="translate(-2380.988 -980.55)" fill="#b2dac8"/>
          <path id="Trazado_24243" data-name="Trazado 24243" d="M2644.054,1392.34s-5.192,3.929-6.09,23.458,5.936,72.641,5.936,72.641l11.307.532s-1.754-71.154.042-71.377,13.918,70.935,13.918,70.935l10.326-.674s.733-70.624-9.007-94.842Z" transform="translate(-2371.003 -1078.954)" fill="#0a3f64"/>
          <path id="Trazado_24244" data-name="Trazado 24244" d="M2634.035,1288.671a45.017,45.017,0,0,0-4.267-4.306c-1.329-.97-1.9-2.9-2.686-2.36s.823,3.261.823,3.261-3.307-.525-4.3-.841-2.907-.429-3.2.277,4.581,1.891,4.581,1.891-2.892-.5-3.02.383c-.1.714,3.243,1.756,3.243,1.756a24.15,24.15,0,0,0-2.734-.468c-.565.031-1.113.807.389,1.49a12.319,12.319,0,0,0,2.083.811,12.718,12.718,0,0,0-2.083-.123c-.395.089-.883.912.463,1.276,2.372.642,7.153,1.487,9.982.839Z" transform="translate(-2358.013 -996.91)" fill="#fb9391"/>
          <path id="Trazado_24245" data-name="Trazado 24245" d="M2695.829,1289.977s-15.5,10.795-31.2-3.977l1.4-5.029s19.952,2.356,23.487-8.165Z" transform="translate(-2390.875 -990.143)" fill="#fff"/>
          <path id="Trazado_24246" data-name="Trazado 24246" d="M2713.994,1343.028a27.177,27.177,0,0,1-8.34-1.361.117.117,0,1,1,.071-.223c12.491,4.017,20.372-2.2,20.45-2.261a.117.117,0,1,1,.147.182A20.939,20.939,0,0,1,2713.994,1343.028Z" transform="translate(-2421.295 -1039.44)" fill="#0a3f64"/>
          <path id="Trazado_24247" data-name="Trazado 24247" d="M2698.725,1280.9c-.472,0-.752-.015-.77-.016a.118.118,0,0,1-.111-.124.12.12,0,0,1,.124-.109c.139.011,13.66.7,15.634-8.213a.119.119,0,0,1,.14-.09.117.117,0,0,1,.089.139C2712.091,1280.34,2701.666,1280.9,2698.725,1280.9Z" transform="translate(-2415.552 -989.804)" fill="#0a3f64"/>
          <path id="Trazado_24248" data-name="Trazado 24248" d="M1910.957,1416.865a44.966,44.966,0,0,1,2.237,5.635c.356,1.606,1.895,2.9,1.087,3.405s-2.659-2.059-2.659-2.059-.842,3.24-.95,4.275-.771,2.837-1.534,2.817.1-4.955.1-4.955-1.135,4.084-1.844,4.217-.027-5.277-.027-5.277-1,4.416-1.379,4.693-.751-.2-.777-1.847a15.7,15.7,0,0,1,.372-3.34,35.5,35.5,0,0,1-1.174,3.377c-.24.326-.808.6-.589-1.845s1.557-7.659,3.284-9.993Z" transform="translate(-1825.583 -1096.509)" fill="#ffa681"/>
          <path id="Trazado_24249" data-name="Trazado 24249" d="M1999.507,1023.435a45.079,45.079,0,0,1-5.055,3.347c-1.5.679-2.447,2.45-3.11,1.764s1.47-3.026,1.47-3.026-3.344-.158-4.379-.05-2.934-.171-3.072-.922,4.87-.92,4.87-.92-4.23-.272-4.505-.938,5.158-1.111,5.158-1.111-4.526-.069-4.876-.385.039-.776,1.648-1.14a15.706,15.706,0,0,1,3.345-.322,35.61,35.61,0,0,1-3.547-.455c-.369-.168-.755-.668,1.684-.955s7.816-.049,10.454,1.16Z" transform="translate(-1886.198 -800.988)" fill="#fb9391"/>
          <path id="Trazado_24250" data-name="Trazado 24250" d="M2002.074,1729.738s-.324,9.6-.406,9.732.636,1.371.636,1.371l3,.688,2.823-1.136s.187-8.929.544-10.321S2002.074,1729.738,2002.074,1729.738Z" transform="translate(-1898.311 -1329.343)" fill="#fff"/>
          <path id="Trazado_24251" data-name="Trazado 24251" d="M1974.57,1769.092a7.877,7.877,0,0,1-6.429-1.111s-11.82,3.792-11.626,7.118c0,0-.542.962,4.5.991s12.87.183,13.085.077S1975.273,1776.641,1974.57,1769.092Z" transform="translate(-1864.756 -1358.043)" fill="#0a3f64"/>
          <path id="Trazado_24252" data-name="Trazado 24252" d="M2145.119,1729.738s.325,9.6.407,9.732-.636,1.371-.636,1.371l-3,.688-2.823-1.136s-.187-8.929-.544-10.321S2145.119,1729.738,2145.119,1729.738Z" transform="translate(-1999.987 -1329.343)" fill="#fff"/>
          <path id="Trazado_24253" data-name="Trazado 24253" d="M2139.946,1769.092a7.876,7.876,0,0,0,6.428-1.111s11.821,3.792,11.626,7.118c0,0,.542.962-4.5.991s-12.87.183-13.085.077S2139.242,1776.641,2139.946,1769.092Z" transform="translate(-2000.864 -1358.043)" fill="#0a3f64"/>
          <path id="Trazado_24254" data-name="Trazado 24254" d="M2005.847,1118.979l-12.065,7.044-1.656,8.265,9.344,45.778,20.371-3.114-7.829-46.452Z" transform="translate(-1891.227 -875.855)" fill="#fff"/>
          <path id="Trazado_24255" data-name="Trazado 24255" d="M2025.116,1328.969s6.686,22.435,9.328,105.94l-11.811,2.531s-13.832-73.432-14.842-74.347-8.418,74.347-8.418,74.347h-12.8l-.673-101.862Z" transform="translate(-1886.603 -1031.871)" fill="#f7a705"/>
          <path id="Trazado_24256" data-name="Trazado 24256" d="M2038.377,1042.581s13.3,40.717,14.984,71.528l15.152-1.131s-8.082-33.945-8.082-40.9,4.271-42.107,4.271-50.021-28.793-5.581-28.793-5.581l.953,6.574s14.657,2.339,14.657,2.974C2051.519,1030.487,2046.552,1037.809,2038.377,1042.581Z" transform="translate(-1923.756 -799.458)" fill="#0a3f64"/>
          <path id="Trazado_24257" data-name="Trazado 24257" d="M1929.921,1146.384s8.979,38.516,9.427,45.41,2.638,20.848,2.638,20.848l-15.882.918-1.571-27.205s-4.938,10.368-6.06,14.831-3.143,16.807-3.143,16.807h-8.979s-1.347-27.611,3.367-41.977S1916.172,1154.5,1929.921,1146.384Z" transform="translate(-1827.366 -896.216)" fill="#0a3f64"/>
          <path id="Trazado_24258" data-name="Trazado 24258" d="M2034.984,1060.95s.278-1.406,1.041-1.194c1.946.541,1.077,2.622.229,3.353Z" transform="translate(-1923.069 -831.838)" fill="#ea6868"/>
          <path id="Trazado_24259" data-name="Trazado 24259" d="M1975.118,1029.61l-.008.005c-.043-.118-.087-.235-.135-.353a9.743,9.743,0,1,0-15.733,10.754c1.7,1.765,3.176,3.266,4.57,4.445a13.918,13.918,0,0,1,4.547,7.572l.524,2.317c6.749.672,8.148-3.108,8.148-3.108l-1.532-4.018a1.082,1.082,0,0,1,.542-1.356l.009,0C1982.733,1042.6,1976.388,1032.7,1975.118,1029.61Z" transform="translate(-1864.55 -804.709)" fill="#fb9391"/>
          <path id="Trazado_24260" data-name="Trazado 24260" d="M1957.348,1067.282l4.84,4.979,1.5-1-2.248-8.268Z" transform="translate(-1865.388 -834.259)" fill="#0a3f64"/>
          <path id="Trazado_24261" data-name="Trazado 24261" d="M1972.809,1093a1.443,1.443,0,0,0-.963-.347,2.44,2.44,0,0,0-2.38,1.246c-.652,1.562,2.78,3.581,4.382,1.219C1973.848,1095.115,1974.218,1094.228,1972.809,1093Z" transform="translate(-1874.33 -856.294)" fill="#fb9391"/>
          <path id="Trazado_24262" data-name="Trazado 24262" d="M1946.64,1028.4a4.373,4.373,0,0,1-1.127-1.739,15.765,15.765,0,0,1-1.028-8.293,4.38,4.38,0,0,1,1.023-2.511.607.607,0,0,1,.333-.2c.321-.04.506.348.589.66q.289,1.092.577,2.184a25.87,25.87,0,0,1,2.6-4.366,8.672,8.672,0,0,1,4.024-2.995,1.346,1.346,0,0,1,1.351.116c.458.453.152,1.223-.175,1.778,3.274-.857,6.773-1.709,9.982-.634.444.149.95.436.951.9,0,.439-.457.735-.883.84a3.586,3.586,0,0,0-1.255.363,12.408,12.408,0,0,0,1.675.455,1.473,1.473,0,0,1,1.137,1.171c.042.875-1.038,1.3-1.9,1.464l-7.216,1.382c.343.493.959.7,1.43,1.078s.767,1.151.311,1.541a1.308,1.308,0,0,1-.719.232l-5.39.619a2.034,2.034,0,0,1,.973,2.049,3.279,3.279,0,0,1-1.027,1.7C1951.653,1027.417,1948.309,1029.8,1946.64,1028.4Z" transform="translate(-1855.707 -795.644)" fill="#0a3f64"/>
          <path id="Trazado_24263" data-name="Trazado 24263" d="M2018.512,1033.815s1.668.378,4.234,5.717c0,0-2.065-6.277-3.019-6.671S2018.512,1033.815,2018.512,1033.815Z" transform="translate(-1910.831 -811.819)" fill="#0a3f64"/>
          <path id="Trazado_24264" data-name="Trazado 24264" d="M2022.7,1140.93v3.339l-1.74.813-2.525-1.683,1.571-2.468Z" transform="translate(-1910.773 -892.164)" fill="#fdd44e"/>
          <path id="Trazado_24265" data-name="Trazado 24265" d="M2001.544,1127.636l.489-2.4,5.369,1.2,2.275-4.687,1.051.523.6,4.8-3.62-.085-1.824,2.89Z" transform="translate(-1898.224 -877.914)" fill="#fff"/>
          <path id="Trazado_24266" data-name="Trazado 24266" d="M2029.677,1153.919l13.076,38.987-3.143,10.6-8.194-7.857-3.591-41.472Z" transform="translate(-1917.75 -901.815)" fill="#fdd44e"/>
        </g>
      </g>
    </g>
    <rect id="Rectángulo_3896" data-name="Rectángulo 3896" width="380" height="317" transform="translate(310 1723)" fill="#cbfcff"/>
    <rect id="Rectángulo_3898" data-name="Rectángulo 3898" width="380" height="317" transform="translate(310 2059)" fill="#cbfcff"/>
    <rect id="Rectángulo_3901" data-name="Rectángulo 3901" width="380" height="317" transform="translate(310 2395)" fill="#cbfcff"/>
    <rect id="Rectángulo_3897" data-name="Rectángulo 3897" width="380" height="317" transform="translate(710 1723)" fill="#cbfcff"/>
    <rect id="Rectángulo_3899" data-name="Rectángulo 3899" width="380" height="317" transform="translate(710 2059)" fill="#cbfcff"/>
    <rect id="Rectángulo_3902" data-name="Rectángulo 3902" width="380" height="317" transform="translate(710 2395)" fill="#cbfcff"/>
    <text id="Sustituir._Sustituir_cosas_lugares_procedimientos_gente_ideas_:_Qué_pasaría_si_se_saliera_los_martes_Y_si_las_fiestas_son_en_el_campo_en_vez_de_en_la_ciudad_Qué_podemos_cambiar_de_la_noche_del_sábado_Y_si_cambiamos_el_alcohol_por_regalos_Y" data-name="Sustituir. (Sustituir cosas, lugares, procedimientos, gente, ideas…):

¿Qué pasaría si se saliera los martes?
¿Y si las fiestas son en el campo en vez de en la ciudad? 
¿Qué podemos cambiar de la noche del sábado?
¿Y si cambiamos el alcohol por regalos?
¿Y" transform="translate(330 1764)" fill="#00223d" font-size="20" font-family="OpenSans-Bold, Open Sans" letter-spacing="-0.008em" font-weight="700"><tspan x="0" y="21">Sustituir. (Sustituir cosas, lugares, </tspan><tspan x="0" y="48">procedimientos, gente, ideas…):</tspan><tspan font-family="OpenSans, Open Sans" font-weight="400"><tspan x="0" y="75"></tspan></tspan><tspan font-size="16" font-family="OpenSans, Open Sans" font-weight="400"><tspan x="0" y="98">¿Qué pasaría si se saliera los martes?</tspan><tspan x="0" y="120">¿Y si las fiestas son en el campo en vez de en </tspan><tspan x="0" y="142">la ciudad? </tspan><tspan x="0" y="164">¿Qué podemos cambiar de la noche del </tspan><tspan x="0" y="186">sábado?</tspan><tspan x="0" y="208">¿Y si cambiamos el alcohol por regalos?</tspan><tspan x="0" y="230">¿Y si cambiamos la noche por el día?</tspan></tspan></text>
    <text id="Adaptar._Adaptar_ideas_de_otros_contextos_tiempos_escuelas_personas_:_Qué_se_ha_hecho_en_otros_sitios_Cómo_se_divierte_la_gente_en_Laponia_Y_en_Mongolia_Cómo_se_divertía_la_gente_hace_50_años_en_España_Cómo_nos_gustaría_divertirnos_en_el_f" data-name="Adaptar. (Adaptar ideas de otros contextos, tiempos, escuelas, personas…):

¿Qué se ha hecho en otros sitios?
¿Cómo se divierte la gente en Laponia?
¿Y en Mongolia? 
¿Cómo se divertía la gente hace 50 años en España? 
¿Cómo nos gustaría divertirnos en el f" transform="translate(330 2087)" fill="#00223d" font-size="20" font-family="OpenSans-Bold, Open Sans" letter-spacing="-0.008em" font-weight="700"><tspan x="0" y="21">Adaptar. (Adaptar ideas de otros </tspan><tspan x="0" y="48">contextos, tiempos, escuelas, </tspan><tspan x="0" y="75">personas…):</tspan><tspan font-family="OpenSans, Open Sans" font-weight="400"><tspan x="0" y="102"></tspan></tspan><tspan font-size="16" font-family="OpenSans, Open Sans" font-weight="400"><tspan x="0" y="125">¿Qué se ha hecho en otros sitios?</tspan><tspan x="0" y="147">¿Cómo se divierte la gente en Laponia?</tspan><tspan x="0" y="169">¿Y en Mongolia? </tspan><tspan x="0" y="191">¿Cómo se divertía la gente hace 50 años en </tspan><tspan x="0" y="213">España? </tspan><tspan x="0" y="235">¿Cómo nos gustaría divertirnos en el futuro: </tspan><tspan x="0" y="257">dentro de 100 años?</tspan></tspan></text>
    <text id="Utilizarlo_para_otros_usos._Extraer_las_posibilidades_ocultas_de_las_cosas_:_Qué_hay_en_los_parques_durante_la_noche_de_los_sábados_Quién_está_en_las_bibliotecas_la_noche_de_los_sábados_Qué_hay_en_los_colegios_la_noche_de_los_sábados_Y_en_los_mus" data-name="Utilizarlo para otros usos. (Extraer las posibilidades ocultas de las cosas):

¿Qué hay en los parques durante la noche de los sábados?
¿Quién está en las bibliotecas la noche de los sábados?
¿Qué hay en los colegios la noche de los sábados? 
¿Y en los mus" transform="translate(330 2423)" fill="#00223d" font-size="20" font-family="OpenSans-Bold, Open Sans" letter-spacing="-0.044em" font-weight="700"><tspan x="0" y="21">Utilizarlo para otros usos. (Extraer </tspan><tspan x="0" y="48">las posibilidades ocultas de las </tspan><tspan x="0" y="75">cosas):</tspan><tspan font-family="OpenSans, Open Sans" font-weight="400" letter-spacing="-0.008em"><tspan x="0" y="102"></tspan></tspan><tspan font-size="16" font-family="OpenSans, Open Sans" font-weight="400" letter-spacing="-0.008em"><tspan x="0" y="125">¿Qué hay en los parques durante la noche de </tspan><tspan x="0" y="147">los sábados?</tspan><tspan x="0" y="169">¿Quién está en las bibliotecas la noche de los </tspan><tspan x="0" y="191">sábados?</tspan><tspan x="0" y="213">¿Qué hay en los colegios la noche de los </tspan><tspan x="0" y="235">sábados? </tspan></tspan></text>
    <text id="Combinar._Combinar_temas_conceptos_ideas_emociones_:_Y_si_el_sábado_noche_se_hicieran_competiciones_deportivas_Y_si_el_sábado_por_la_noche_el_cine_fuera_gratis_Cómo_combinar_la_diversión_con_el_silencio_Cómo_divertirnos_más_días_aunque_trabaj" data-name="Combinar. (Combinar temas, conceptos, ideas, emociones…):

¿Y si el sábado noche se hicieran competiciones deportivas? ¿Y si el sábado por la noche el cine fuera gratis?
¿Cómo combinar la diversión con el silencio?
¿Cómo divertirnos más días, aunque trabaj" transform="translate(730 1764)" fill="#00223d" font-size="20" font-family="OpenSans-Bold, Open Sans" letter-spacing="-0.008em" font-weight="700"><tspan x="0" y="21">Combinar. (Combinar temas, </tspan><tspan x="0" y="48">conceptos, ideas, emociones…):</tspan><tspan x="0" y="75"></tspan><tspan font-size="16" font-family="OpenSans, Open Sans" font-weight="400" letter-spacing="-0.019em"><tspan x="0" y="98">¿Y si el sábado noche se hicieran </tspan><tspan x="0" y="120">competiciones deportivas? ¿Y si el sábado por </tspan><tspan x="0" y="142">la noche el cine fuera gratis?</tspan><tspan x="0" y="164">¿Cómo combinar la diversión con el silencio?</tspan><tspan x="0" y="186">¿Cómo divertirnos más días, aunque </tspan><tspan x="0" y="208">trabajemos? </tspan></tspan></text>
    <text id="Modificar._Añadir_algo_a_una_idea_o_un_producto_transformarlo_:_Cómo_salir_y_no_beber_alcohol_Cómo_hacer_una_fiesta_sin_ruido_Cómo_divertirnos_sin_dinero_Cómo_conocer_gente_interesante_sin_tener_que_beber_" data-name="Modificar. (Añadir algo a una idea o un producto, transformarlo): 

¿Cómo salir y no beber alcohol?
¿Cómo hacer una fiesta sin ruido?
¿Cómo divertirnos sin dinero?
¿Cómo conocer gente interesante sin tener que beber?" transform="translate(730 2087)" fill="#00223d" font-size="20" font-family="OpenSans-Bold, Open Sans" letter-spacing="-0.008em" font-weight="700"><tspan x="0" y="21">Modificar. (Añadir algo a una idea </tspan><tspan x="0" y="48">o un producto, transformarlo): </tspan><tspan x="0" y="75"></tspan><tspan font-size="16" font-family="OpenSans, Open Sans" font-weight="400"><tspan x="0" y="98">¿Cómo salir y no beber alcohol?</tspan><tspan x="0" y="120">¿Cómo hacer una fiesta sin ruido?</tspan><tspan x="0" y="142">¿Cómo divertirnos sin dinero?</tspan><tspan x="0" y="164">¿Cómo conocer gente interesante sin tener </tspan><tspan x="0" y="186">que beber?</tspan></tspan></text>
    <text id="Eliminar._Sustraer_conceptos_partes_elementos_del_problema_." data-name="Eliminar. (Sustraer conceptos, partes, elementos del problema)." transform="translate(730 2527)" fill="#00223d" font-size="20" font-family="OpenSans-Bold, Open Sans" font-weight="700" letter-spacing="-0.008em"><tspan x="0" y="21">Eliminar. (Sustraer conceptos, </tspan><tspan x="0" y="48">partes, elementos del problema).</tspan></text>
    <text id="Puede_utilizarse_junto_a_otras_técnicas_en_el_proceso_divergente_de_la_generación_de_ideas." data-name="Puede utilizarse junto a otras técnicas en el proceso divergente de la generación de ideas." transform="translate(241 1096)" fill="#00223d" font-size="20" font-family="OpenSans, Open Sans" letter-spacing="-0.008em"><tspan x="0" y="21">Puede utilizarse junto a otras técnicas en el proceso divergente de la generación de ideas.</tspan></text>
    <text id="Para_el_desarrollo_de_esta_técnica_se_deben_seguir_lo_siguientes_pasos:" data-name="Para el desarrollo de esta técnica se deben
seguir lo siguientes pasos:" transform="translate(330 1208)" fill="#fff" font-size="30" font-family="OpenSans-Bold, Open Sans" font-weight="700" letter-spacing="-0.008em"><tspan x="56.327" y="32">Para el desarrollo de esta técnica se deben</tspan><tspan x="178.003" y="73">seguir lo siguientes pasos:</tspan></text>
    <line id="Línea_186" data-name="Línea 186" x1="838" transform="translate(281.5 1655.5)" fill="none" stroke="#000" stroke-miterlimit="10" stroke-width="2" stroke-dasharray="6"/>
    <text id="El_problema_ha_sido_ya_reformulado_ver_mapas_mentales_arte_de_preguntar_y_es_el_momento_de_generar_ideas_para_su_solución._El_problema_planteado_es:_Alternativas_lúdicas_a_los_sábados_por_la_noche." data-name="El problema ha sido ya reformulado (ver mapas mentales, arte de preguntar) y es el momento de generar ideas para su solución.

El problema planteado es: 

Alternativas lúdicas a los sábados por la noche." transform="translate(330 1418)" fill="#00223d" font-size="20" font-family="OpenSans, Open Sans" letter-spacing="-0.008em"><tspan x="8.414" y="21">El problema ha sido ya reformulado (ver mapas mentales, arte de preguntar) y </tspan><tspan x="141.748" y="48">es el momento de generar ideas para su solución.</tspan><tspan x="370" y="75"></tspan><tspan x="247.869" y="102">El problema planteado es: </tspan><tspan x="370" y="129"></tspan><tspan font-family="OpenSans-Bold, Open Sans" font-weight="700"><tspan x="138.462" y="156">Alternativas lúdicas a los sábados por la noche.</tspan></tspan></text>
    <line id="Línea_460" data-name="Línea 460" x1="838" transform="translate(281.5 1366.5)" fill="none" stroke="#000" stroke-miterlimit="10" stroke-width="2" stroke-dasharray="6"/>
    <rect id="Rectángulo_3894" data-name="Rectángulo 3894" width="476" height="50" transform="translate(462 1341)" fill="#cbfcff"/>
    <rect id="Rectángulo_3895" data-name="Rectángulo 3895" width="476" height="50" transform="translate(462 1633)" fill="#cbfcff"/>
    <text id="Planteamiento_de_las_preguntas_SCAMPER." data-name="Planteamiento de las preguntas SCAMPER." transform="translate(425 1642)" fill="#00223d" font-size="20" font-family="OpenSans-Bold, Open Sans" font-weight="700" letter-spacing="-0.008em"><tspan x="66.771" y="21">Planteamiento de las preguntas SCAMPER.</tspan></text>
    <text id="Establecimiento_del_problema._" data-name="Establecimiento del problema. " transform="translate(425 1350)" fill="#00223d" font-size="20" font-family="OpenSans-Bold, Open Sans" font-weight="700" letter-spacing="-0.008em"><tspan x="122.862" y="21">Establecimiento del problema. </tspan></text>
  </g>
</svg>
