<svg id="Grupo_16232" data-name="Grupo 16232" xmlns="http://www.w3.org/2000/svg" width="44.106" height="200.64" viewBox="0 0 44.106 200.64">
  <path id="Trazado_26803" data-name="Trazado 26803" d="M73.1,89.523s3.781,12.326,5.112,20.529c.632,3.888-3.2,6.417-7.529.324s-3.25-19.262-3.25-19.262" transform="translate(-36.656 -47.225)" fill="#ffe1bd"/>
  <path id="Trazado_26804" data-name="Trazado 26804" d="M66.5,45.187s.577,13.187-1.979,20.928c-3.311,10.029-.389,10.508-3.5,11.093S52.75,65.333,52.75,65.333l3.017-8.268" transform="translate(-33.448 -37.456)" fill="#2c1e56"/>
  <g id="Grupo_16234" data-name="Grupo 16234" transform="translate(5.721 123.867)">
    <g id="Grupo_16232-2" data-name="Grupo 16232" transform="translate(16.751 1.132)">
      <path id="Trazado_26805" data-name="Trazado 26805" d="M70.824,201.34v14.18l-3.652,41.526s-.539,4.622.808,6.955l-8.548-1.773s1.481-7.868,1.391-10.829-1.988-17.563-2.257-23.5a64.809,64.809,0,0,1,1.323-13.49s-2.961-10.659-3.073-18.818" transform="translate(-56.815 -195.597)" fill="#ffe1bd"/>
      <path id="Trazado_26806" data-name="Trazado 26806" d="M69.1,277.139A8.664,8.664,0,0,0,70.6,281.4a9.676,9.676,0,0,0,3.321,2.333l1.032,1.84s-.718,1.122-1.167.987-4.8-2.378-4.98-2.557-2.513-2.036-2.513-2.036l-.225-2.181Z" transform="translate(-58.854 -213.564)" fill="#ffe1bd"/>
      <path id="Trazado_26807" data-name="Trazado 26807" d="M60.786,274.086s-2.178,3.906-1.864,7.563c.186,2.162,1.838,3.8,1.962,6.88H61.95s.214-1.443.3-2.539c.337-4.106,1.481-3,1.481-3a47.988,47.988,0,0,0,3.534,3.792,11.2,11.2,0,0,0,6.237,1.745c2.422,0,4.581-.849,5.026-1.341.588-.652.684-1.9-1.2-2.075s-4.992-2.054-4.992-2.054.583.825-.269,1.22-7.43-3.085-8.642-6.181S61.883,274.413,60.786,274.086Z" transform="translate(-57.272 -212.891)" fill="#4c4051"/>
    </g>
    <g id="Grupo_16233" data-name="Grupo 16233">
      <path id="Trazado_26808" data-name="Trazado 26808" d="M48.639,280.941c-.625-3-1.74-4.488-2.171-6.226-.552-2.228-2.036-2.238-2.036-2.238l.259.649-5.271,1.1s-1.41,7.537,0,10.5a7.588,7.588,0,0,0,1.424,2.077,4.7,4.7,0,0,0,3.36,1.371h1.311a2.739,2.739,0,0,0,2.431-1.412A8.461,8.461,0,0,0,48.639,280.941Z" transform="translate(-36.093 -211.405)" fill="#4c4051"/>
      <path id="Trazado_26809" data-name="Trazado 26809" d="M49.731,199.016s-2.856,10.518-2.909,14.7.577,8.331.345,13.055-3.74,17.907-2.791,25.038,1.3,6.193,1.851,8.988c.531,2.7.614,4.28-.623,5.15a6.075,6.075,0,0,1-6.209-.272c-1.751-1.424-.564-9.248-.517-11.958s-3.676-22.508-3.544-31.092,1.156-10.5,1.942-16.061a68.1,68.1,0,0,0,.257-12.417" transform="translate(-35.331 -194.145)" fill="#ffe1bd"/>
    </g>
  </g>
  <g id="Grupo_16235" data-name="Grupo 16235" transform="translate(0 0)">
    <path id="Trazado_26810" data-name="Trazado 26810" d="M34.1,163.405c.779,2.538,1.318,10.4,1.654,14.9.508,6.785-.32,5.586-.009,12.989,0,0,19.938,2.888,30.84-.787,0,0,1.933-.6.879-31.7-.122-3.618-1.476-14.017-2.691-17.687,0,0-18.935-2.952-27.087-.7h-.014c-.284.084-.568.17-.823.269C36.85,140.692,30.512,151.879,34.1,163.405Z" transform="translate(-29.096 -58.254)" fill="#594a5f"/>
    <path id="Trazado_26811" data-name="Trazado 26811" d="M73.772,88.679c-.109.078-.234.156-.366.241a21.236,21.236,0,0,1-3.028,1.519c-.195.086-.39.164-.6.249-4.228,1.666-5.4-5.092-5.4-5.092l1-11.049s1.939.67,4.687,5.2A41.822,41.822,0,0,1,73.772,88.679Z" transform="translate(-36.009 -43.925)" fill="#62c1c5"/>
    <path id="Trazado_26812" data-name="Trazado 26812" d="M74.528,90.609a20.767,20.767,0,0,1-3.029,1.52l-2.033-9.91s1.391,3.572,2.15,4.955C72.442,88.68,73.643,89.471,74.528,90.609Z" transform="translate(-37.131 -45.616)" fill="#54afac"/>
    <path id="Trazado_26813" data-name="Trazado 26813" d="M64.568,98.572c-3.213,5.552-.3,20.121.738,27.853a.557.557,0,0,1-.451.627c-5.387,1.027-15.842,2.37-22.9.837-.776-.172-1.444-.334-2.015-.5a10.526,10.526,0,0,1-2.444-.956.56.56,0,0,1-.25-.595c.072-.35.143-.722.215-1.112.905-4.948,1.6-13.119-1.391-25.161-1.983-8.052-3.019-17.366.108-22.336a.011.011,0,0,0,.011-.011,7.785,7.785,0,0,1,1.1-1.337c3.342-3.331,9.165-3.775,17.637-3.385A8.005,8.005,0,0,1,59.1,74.21c2.4,2.015,2.179,9.326,5.125,13.476C65.433,89.39,68.212,92.288,64.568,98.572Z" transform="translate(-29.358 -43.449)" fill="#62c1c5"/>
    <path id="Trazado_26814" data-name="Trazado 26814" d="M39.935,128.33c-1.488-.431-3.116-.766-3.3-1.531a8.9,8.9,0,0,1,.787-3.342c.906-4.948,1.628-10.909-1.358-22.951-1.983-8.052-3.019-17.367.108-22.336a.011.011,0,0,0,.011-.011,3.333,3.333,0,0,1,2.738-1.509,8.655,8.655,0,0,1,1.725.14c-.431,1.315-1.067,4.873-1.067,4.873l4.107.927s1.024,1.456-1.466,10.177c0,.011-.011.021-.011.032a19.24,19.24,0,0,0-1.584,5.692,96.159,96.159,0,0,0,.334,10.737S40.667,123.178,39.935,128.33Z" transform="translate(-29.358 -44.389)" fill="#54afac"/>
    <path id="Trazado_26815" data-name="Trazado 26815" d="M47.632,60s.484.288,1.308.68c-.013.419-.04.824-.04,1.2-.091,2.407-.091,3.963-.091,3.963a5.585,5.585,0,0,0,6.828,2.538,2.182,2.182,0,0,0,.432-.249,2.023,2.023,0,0,0,.811-1.949,15.724,15.724,0,0,1-.143-3.361c1.237.289,2.454.545,3.338-.009.8-.5,1.29-1.743,1.844-2.725,3.14-5.562,2.719-17.28,2.719-17.28s-10.386-4.7-13.76-.445S47.632,60,47.632,60Z" transform="translate(-32.32 -36.444)" fill="#ffe1bd"/>
    <path id="Trazado_26816" data-name="Trazado 26816" d="M49.142,70.576a5.585,5.585,0,0,0,6.828,2.538l.053-.039c-3.767.968-3.584-3.676-2.983-4.552s3.2-1.166,3.2-1.166a9.312,9.312,0,0,1-6.911-5.322C49.235,64.441,49.142,70.576,49.142,70.576Z" transform="translate(-32.653 -41.168)" fill="#fcd4a9"/>
    <path id="Trazado_26817" data-name="Trazado 26817" d="M40.249,90.825l-5.295,14.334c-1.643,1.783-3.675,2.881-5.543,1.97a3.051,3.051,0,0,1-1.417-2.9,5.579,5.579,0,0,1,.062-.865c.592-3.13,1.417-6.766,2.141-9.8.156-.67.312-1.308.451-1.9.507-2.071.9-3.643,1.06-4.243a2.655,2.655,0,0,0,.062-.265Z" transform="translate(-27.993 -46.702)" fill="#ffe1bd"/>
    <path id="Trazado_26818" data-name="Trazado 26818" d="M34.907,95.877l-2.274,4.641s-1.8.927-1.1-.623a11.477,11.477,0,0,0,.662-4.049,7.347,7.347,0,0,1-1.378-1.02c.156-.67.312-1.308.451-1.9.623-.015,2.243-.038,2.243,0S34.907,95.877,34.907,95.877Z" transform="translate(-28.616 -47.971)" fill="#fcd4a9"/>
    <path id="Trazado_26819" data-name="Trazado 26819" d="M37.354,75.711c-5.233,2.48-6.329,8.439-7.227,14.451L39.2,93.787s7.687-11.7,2.924-16.127C40.218,75.888,39.333,74.773,37.354,75.711Z" transform="translate(-28.463 -44.107)" fill="#62c1c5"/>
    <path id="Trazado_26820" data-name="Trazado 26820" d="M62.271,40.991a4.907,4.907,0,0,1,0,4.542c-1.3,2.206-5.709-.065-9.733,0s-5.828,2.206-6.423,6.489,2.1,11.146,2.075,14.514c-.034,5.094-3.222,10.628-8.823,9.208-12.622-3.2-.9-19.245-.471-26.253s3.1-11.16,8.257-13.5C51.9,33.846,60.065,36.774,62.271,40.991Z" transform="translate(-29.214 -35.272)" fill="#2c1e56"/>
  </g>
  <path id="Trazado_26821" data-name="Trazado 26821" d="M51.462,63.655,46.656,65.3a.725.725,0,0,1-.921-.45l-4.2-12.192a.724.724,0,0,1,.451-.92l4.806-1.647a.724.724,0,0,1,.92.451l4.206,12.192A.726.726,0,0,1,51.462,63.655Z" transform="translate(-30.967 -38.528)" fill="#97deef"/>
  <path id="Trazado_26822" data-name="Trazado 26822" d="M34.177,105.4c1.841-.253,5.094-5.194,6.412-10.326,2.557-9.948,4.022-17.241,4.618-20.425,0-.018,0-.018.017-.019.207-1.159.31-1.766.31-1.766S41.978,71.678,42,72.134a2.361,2.361,0,0,1-.257,1.253c-1.881,3.475-7.355,13.687-10.1,21.307a.966.966,0,0,1-1.2.6c-2.016,1.116-2.016,7.062-2.016,7.062l.34.689A5.176,5.176,0,0,0,34.177,105.4Z" transform="translate(-28.088 -43.371)" fill="#ffe1bd"/>
  <path id="Trazado_26823" data-name="Trazado 26823" d="M45.269,68.669a6.181,6.181,0,0,0-.681-3.613,13.911,13.911,0,0,1-1.314-4.234s.122-4.088.414-4.428.552.389.6.973.126,2.9.223,3.528a8.58,8.58,0,0,0,.511,1.593s-.219-3.237-.219-4.179.037-2.038.292-2c.45.062.706,1.134.73,2.4a28.981,28.981,0,0,0,.633,3.966,31.454,31.454,0,0,1-.027-3.2,12.623,12.623,0,0,1,.343-2.591c.195-.219.708.157.708.911s.167,3.2.253,3.93a2.674,2.674,0,0,0,.521,1.257s-.107-1.091-.1-2.218c.013-1.2.151-2.452.365-2.452.746,0,.585,3.473.779,4.054.876,2.627-.532,7.2-.532,7.2a23.379,23.379,0,0,1-2.389,2.078c-.292.065-1.816.248-1.816.248Z" transform="translate(-31.36 -39.906)" fill="#ffe1bd"/>
  <path id="Trazado_26824" data-name="Trazado 26824" d="M70.272,118.763s-4.561-.251-9.913-.949c-6.229-.812-13.6-2.059-17.17-1.546l-.815-3.059s20.039-2.459,26.372-2.135C73.6,111.322,70.272,118.763,70.272,118.763Z" transform="translate(-31.162 -51.967)" fill="#ffe1bd"/>
  <path id="Trazado_26825" data-name="Trazado 26825" d="M46.352,116.523a21.456,21.456,0,0,0-4.754,1.35c-.654.253-1.651.164-2.064.408a12.338,12.338,0,0,1-2.046,1.119c-.183.056-.511.009-.437-.258a.772.772,0,0,1,.163-.254s-.745.263-.8-.218a4.318,4.318,0,0,1,.336-.56s-.181.137-.3-.01c-.052-.065-.014-.336-.014-.336a6.57,6.57,0,0,1,.745-1.825A12.579,12.579,0,0,1,39,113.825a2.985,2.985,0,0,1,2.656-.833,14.15,14.15,0,0,0,3.7.139C46.363,113.05,46.352,116.523,46.352,116.523Z" transform="translate(-29.848 -52.385)" fill="#ffe1bd"/>
</svg>
