<svg xmlns="http://www.w3.org/2000/svg" width="912.001" height="546.014" viewBox="0 0 912.001 546.014">
  <g id="Grupo_14210" data-name="Grupo 14210" transform="translate(-338 -2876.248)">
    <rect id="Rectángulo_3083" data-name="Rectángulo 3083" width="84.007" height="66.568" transform="translate(338 2876.248)" fill="#0d468f"/>
    <rect id="Rectángulo_3085" data-name="Rectángulo 3085" width="272" height="66.568" transform="translate(426 2876.248)" fill="#0d468f"/>
    <rect id="Rectángulo_3817" data-name="Rectángulo 3817" width="272" height="66.568" transform="translate(702 2876.248)" fill="#0d468f"/>
    <rect id="Rectángulo_3818" data-name="Rectángulo 3818" width="272" height="66.568" transform="translate(978 2876.248)" fill="#0d468f"/>
    <text id="No." transform="translate(380 2915.638)" fill="#fff" font-size="25" font-family="SegoeUI, Segoe UI" letter-spacing="-0.025em"><tspan x="-18.76" y="0">No.</tspan></text>
    <text id="Técnica" transform="translate(562 2915.638)" fill="#fff" font-size="25" font-family="SegoeUI, Segoe UI" letter-spacing="-0.025em"><tspan x="-37.999" y="0">Técnica</tspan></text>
    <text id="Medio" transform="translate(838 2915.638)" fill="#fff" font-size="25" font-family="SegoeUI, Segoe UI" letter-spacing="-0.025em"><tspan x="-34.224" y="0">Medio</tspan></text>
    <text id="Mensaje" transform="translate(1114 2915.638)" fill="#fff" font-size="25" font-family="SegoeUI, Segoe UI" letter-spacing="-0.025em"><tspan x="-44.188" y="0">Mensaje</tspan></text>
    <path id="Trazado_18379" data-name="Trazado 18379" d="M3210.514,972.719v91.789h272V972.719Z" transform="translate(-2784.85 1973.281)" fill="#d5f4fc"/>
    <path id="Trazado_23609" data-name="Trazado 23609" d="M3210.514,972.719v91.789h272V972.719Z" transform="translate(-2508.514 1973.281)" fill="#d5f4fc"/>
    <path id="Trazado_23614" data-name="Trazado 23614" d="M3210.514,972.719v91.789h272V972.719Z" transform="translate(-2232.514 1973.281)" fill="#d5f4fc"/>
    <path id="Trazado_23605" data-name="Trazado 23605" d="M3210.514,972.719v91.789h272V972.719Z" transform="translate(-2784.85 2165.755)" fill="#d5f4fc"/>
    <path id="Trazado_23611" data-name="Trazado 23611" d="M3210.514,972.719v91.789h272V972.719Z" transform="translate(-2508.514 2165.281)" fill="#d5f4fc"/>
    <path id="Trazado_23616" data-name="Trazado 23616" d="M3210.514,972.719v91.789h272V972.719Z" transform="translate(-2232.85 2165.755)" fill="#d5f4fc"/>
    <path id="Trazado_23602" data-name="Trazado 23602" d="M3210.514,972.719v91.789h272V972.719Z" transform="translate(-2784.85 2069.281)" fill="#d5f4fc"/>
    <path id="Trazado_23610" data-name="Trazado 23610" d="M3210.514,972.719v91.789h272V972.719Z" transform="translate(-2508.514 2069.281)" fill="#d5f4fc"/>
    <path id="Trazado_23615" data-name="Trazado 23615" d="M3210.514,972.719v91.789h272V972.719Z" transform="translate(-2232.85 2069.281)" fill="#d5f4fc"/>
    <path id="Trazado_23604" data-name="Trazado 23604" d="M3210.514,972.719v91.789h272V972.719Z" transform="translate(-2784.85 2261.281)" fill="#d5f4fc"/>
    <path id="Trazado_23612" data-name="Trazado 23612" d="M3210.514,972.719v91.789h272V972.719Z" transform="translate(-2508.514 2261.281)" fill="#d5f4fc"/>
    <path id="Trazado_23617" data-name="Trazado 23617" d="M3210.514,972.719v91.789h272V972.719Z" transform="translate(-2232.85 2261.281)" fill="#d5f4fc"/>
    <path id="Trazado_23608" data-name="Trazado 23608" d="M3210.514,972.719v91.789h272V972.719Z" transform="translate(-2784.514 2357.281)" fill="#d5f4fc"/>
    <path id="Trazado_23613" data-name="Trazado 23613" d="M3210.514,972.719v91.789h272V972.719Z" transform="translate(-2508.514 2357.281)" fill="#d5f4fc"/>
    <path id="Trazado_23618" data-name="Trazado 23618" d="M3210.514,972.719v91.789h272V972.719Z" transform="translate(-2232.85 2357.281)" fill="#d5f4fc"/>
    <path id="Trazado_23600" data-name="Trazado 23600" d="M3125.444,972.719v91.789h84.006V972.719Z" transform="translate(-2787.445 1973.281)" fill="#d5f4fc"/>
    <path id="Trazado_23606" data-name="Trazado 23606" d="M3125.444,972.719v91.789h84.006V972.719Z" transform="translate(-2787.445 2165.755)" fill="#d5f4fc"/>
    <path id="Trazado_23601" data-name="Trazado 23601" d="M3125.444,972.719v91.789h84.006V972.719Z" transform="translate(-2787.445 2069.755)" fill="#d5f4fc"/>
    <path id="Trazado_23603" data-name="Trazado 23603" d="M3125.444,972.719v91.789h84.006V972.719Z" transform="translate(-2787.445 2261.755)" fill="#d5f4fc"/>
    <path id="Trazado_23607" data-name="Trazado 23607" d="M3125.444,972.719v91.789h84.006V972.719Z" transform="translate(-2787.445 2357.755)" fill="#d5f4fc"/>
    <text id="Eventos" transform="translate(511 3002)" font-size="26" font-family="OpenSans-Bold, Open Sans" font-weight="700"><tspan x="0" y="0">Eventos</tspan></text>
    <text id="TV" transform="translate(822 3002)" font-size="26" font-family="OpenSans-Bold, Open Sans" font-weight="700"><tspan x="0" y="0">TV</tspan></text>
    <text id="Salud" transform="translate(1114 3002)" font-size="26" font-family="OpenSans-Bold, Open Sans" font-weight="700"><tspan x="-35.75" y="0">Salud</tspan></text>
    <text id="Publicidad" transform="translate(494 3098)" font-size="26" font-family="OpenSans-Bold, Open Sans" font-weight="700"><tspan x="0" y="0">Publicidad</tspan></text>
    <text id="Redes" transform="translate(799 3098)" font-size="26" font-family="OpenSans-Bold, Open Sans" font-weight="700"><tspan x="0" y="0">Redes</tspan></text>
    <text id="Delicioso" transform="translate(1114 3098)" font-size="26" font-family="OpenSans-Bold, Open Sans" font-weight="700"><tspan x="-58.449" y="0">Delicioso</tspan></text>
    <text id="Promoción_de_ventas" data-name="Promoción de
ventas" transform="translate(562 3181)" font-size="26" font-family="OpenSans-Bold, Open Sans" font-weight="700"><tspan x="-89.458" y="0">Promoción de</tspan><tspan x="-43.577" y="26">ventas</tspan></text>
    <text id="Punto_de_venta" data-name="Punto de venta" transform="translate(739 3194)" font-size="26" font-family="OpenSans-Bold, Open Sans" font-weight="700"><tspan x="0" y="0">Punto de venta</tspan></text>
    <text id="Qué_tus_hijos_no_lo_sepan" data-name="Qué tus hijos
no lo sepan" transform="translate(1114 3181)" font-size="26" font-family="OpenSans-Bold, Open Sans" font-weight="700"><tspan x="-84.963" y="0">Qué tus hijos</tspan><tspan x="-74.128" y="26">no lo sepan</tspan></text>
    <text id="Juego" transform="translate(527 3290)" font-size="26" font-family="OpenSans-Bold, Open Sans" font-weight="700"><tspan x="0" y="0">Juego</tspan></text>
    <text id="Sitios_frecuentes" data-name="Sitios frecuentes" transform="translate(730 3290)" font-size="26" font-family="OpenSans-Bold, Open Sans" font-weight="700"><tspan x="0" y="0">Sitios frecuentes</tspan></text>
    <text id="Divertido" transform="translate(1115 3290)" font-size="26" font-family="OpenSans-Bold, Open Sans" font-weight="700"><tspan x="-60.455" y="0">Divertido</tspan></text>
    <text id="Publirreportaje" transform="translate(462 3386)" font-size="26" font-family="OpenSans-Bold, Open Sans" font-weight="700"><tspan x="0" y="0">Publirreportaje</tspan></text>
    <text id="Prensa_-_revista" data-name="Prensa - revista" transform="translate(738 3386)" font-size="26" font-family="OpenSans-Bold, Open Sans" font-weight="700"><tspan x="0" y="0">Prensa - revista</tspan></text>
    <text id="Más_fuerte" data-name="Más fuerte" transform="translate(1114 3386)" font-size="26" font-family="OpenSans-Bold, Open Sans" font-weight="700"><tspan x="-70.434" y="0">Más fuerte</tspan></text>
    <text id="_1" data-name="1" transform="translate(373 3002)" font-size="26" font-family="OpenSans-Bold, Open Sans" font-weight="700"><tspan x="0" y="0">1</tspan></text>
    <text id="_2" data-name="2" transform="translate(373 3098)" font-size="26" font-family="OpenSans-Bold, Open Sans" font-weight="700"><tspan x="0" y="0">2</tspan></text>
    <text id="_3" data-name="3" transform="translate(373 3194)" font-size="26" font-family="OpenSans-Bold, Open Sans" font-weight="700"><tspan x="0" y="0">3</tspan></text>
    <text id="_4" data-name="4" transform="translate(373 3290)" font-size="26" font-family="OpenSans-Bold, Open Sans" font-weight="700"><tspan x="0" y="0">4</tspan></text>
    <text id="_5" data-name="5" transform="translate(373 3386)" font-size="26" font-family="OpenSans-Bold, Open Sans" font-weight="700"><tspan x="0" y="0">5</tspan></text>
  </g>
</svg>
