<svg id="Grupo_16233" data-name="Grupo 16233" xmlns="http://www.w3.org/2000/svg" width="103.074" height="112.808" viewBox="0 0 103.074 112.808">
  <path id="Trazado_26826" data-name="Trazado 26826" d="M326,43.744l.605-.067s.978.782,2.518,1.947a3.5,3.5,0,0,1,.791,5.108c-.644.888.17-1.132.105-1.718s-1.532-3.1-2.924-2.942c0,0,.571,5.133.669,6.013a2.1,2.1,0,0,1-2.069,2.086,1.811,1.811,0,0,1-2.111-2.289c.2-1.1,2.338-1.67,3.26-.734Z" transform="translate(-298.557 -35.782)" fill="#bdecf4" fill-rule="evenodd"/>
  <path id="Trazado_26827" data-name="Trazado 26827" d="M407.244,53.467l.548.347s.294,1.3.8,3.3a3.729,3.729,0,0,1-2.741,4.778c-1.127.31.9-.829,1.231-1.361s.786-3.6-.476-4.394l-3.445,5.449a2.242,2.242,0,0,1-3.11.359,1.93,1.93,0,0,1-.234-3.31c.9-.781,3.058.166,3.2,1.559Z" transform="translate(-315.182 -37.939)" fill="#bdecf4" fill-rule="evenodd"/>
  <path id="Trazado_26828" data-name="Trazado 26828" d="M414.044,74.918l-7.029,7.724c.147-1.97-2.617-3.821-4.057-2.96a2.725,2.725,0,0,0-.5,4.657c1.557,1.422,3.513,1.256,4.411.274l4.742-5.186,3.349,5.357L411,89.141c.148-1.97-2.618-3.822-4.06-2.96a2.725,2.725,0,0,0-.5,4.657c1.555,1.422,3.513,1.256,4.411.274l7.932-8.672Zm-1.186,3.146.675-.738,3.346,5.351-.674.74Z" transform="translate(-315.707 -42.665)" fill="#bdecf4" fill-rule="evenodd"/>
  <g id="Grupo_16244" data-name="Grupo 16244" transform="translate(0 0)">
    <path id="Trazado_26829" data-name="Trazado 26829" d="M352.235,47.86c-2.085,3.6-.284,8.525-2.389,12.116-.842,1.437-2.27,2.567-2.674,4.182a3.648,3.648,0,0,0,5.246,4.109,4.481,4.481,0,0,1,.81-.4c1.041-.3,1.982.619,2.877,1.231a4.39,4.39,0,0,0,3.788.67,5.62,5.62,0,0,0,3.155-3.787c1.5-4.52.436-9.468-.955-14.025-.7-2.277-1.721-4.8-3.954-5.629" transform="translate(-303.743 -36.365)" fill="#232a54"/>
    <path id="Trazado_26830" data-name="Trazado 26830" d="M318.971,94.972h19.685a1.269,1.269,0,0,0,1.223-1.609l-7.143-25.672a1.27,1.27,0,0,0-1.223-.929H311.829a1.269,1.269,0,0,0-1.223,1.61l7.143,25.671A1.269,1.269,0,0,0,318.971,94.972Z" transform="translate(-295.698 -40.868)" fill="#97deef"/>
    <g id="Grupo_16237" data-name="Grupo 16237" transform="translate(16.308 38.89)">
      <path id="Trazado_26831" data-name="Trazado 26831" d="M328.8,112.527c1.746-.621,9.62-17.059,12.25-22.022a7.512,7.512,0,0,1,4.368-3.888c3.178,1.716,3.547,5.706,2.6,9.1-3.971,14.214-16.11,25.7-17.893,25.7A8.351,8.351,0,0,0,328.8,112.527Z" transform="translate(-316.025 -84.134)" fill="#f4d0ab"/>
      <path id="Trazado_26832" data-name="Trazado 26832" d="M312.423,87.788a17.866,17.866,0,0,0,1.336,5.451c.016.008.016.024.024.033.025.066.041.1.041.1a9.257,9.257,0,0,1,.627,1.6c2.688,8.922,4.667,19.8,5.871,22.114,0,0,2.144,8.386,9.145,1.64.189-1.764-11.452-26.469-11.492-26.659,1.945-4.032-.489-7-2.707-8.384a1.4,1.4,0,0,0-1.443-.09A5.414,5.414,0,0,0,312.423,87.788Z" transform="translate(-312.415 -83.432)" fill="#f4d0ab"/>
    </g>
    <path id="Trazado_26833" data-name="Trazado 26833" d="M352.174,77.331a10.421,10.421,0,0,0-6.908,5.358,21.826,21.826,0,0,0-.941,2.159c-1.232,3.134-2.928,5.971-4.16,9.106a18.457,18.457,0,0,0,5.441,2.623,11.593,11.593,0,0,0,5.064.68,2.582,2.582,0,0,0,.853-.188,2.818,2.818,0,0,0,.886-.762q.791-.908,1.54-1.851a5.1,5.1,0,0,0,1.034-1.77,5.378,5.378,0,0,0-.243-2.758" transform="translate(-302.222 -43.197)" fill="#62c1c5"/>
    <path id="Trazado_26834" data-name="Trazado 26834" d="M350.046,88.206a1.062,1.062,0,0,1,.4-.338.718.718,0,0,1,.832.37,1.9,1.9,0,0,1,.172.966,13.17,13.17,0,0,1-.59,3.752l.394,6.612-.009.013a11.6,11.6,0,0,1-4.736-.691c-.714-.266-1.487-.54-2.263-.855C345.035,94.309,347.575,91.154,350.046,88.206Z" transform="translate(-303.119 -45.511)" fill="#4ea8a5"/>
    <path id="Trazado_26835" data-name="Trazado 26835" d="M363.913,68.571s.09,4.138-.547,4.409a16.15,16.15,0,0,1-2.675.827l-.042,8.567,11.421-1.722,7.857-4.373s-8.165-2.707-8.237-3.521.448-5.4.448-5.4" transform="translate(-306.735 -41.001)" fill="#ffd1ab"/>
    <path id="Trazado_26836" data-name="Trazado 26836" d="M358.949,149.754s-39.682-10.513-50.814-4.123-6.39,14.573,2.989,17.728c8.781,2.953,29.251,2.969,29.251,2.969Z" transform="translate(-293.74 -57.792)" fill="#4c4051"/>
    <path id="Trazado_26837" data-name="Trazado 26837" d="M333.031,156.289s-7.627-6.24-15.667-6.594a29.155,29.155,0,0,1,17.778,5.316C344.163,161.194,333.031,156.289,333.031,156.289Z" transform="translate(-297.198 -59.133)" fill="#382e3d"/>
    <path id="Trazado_26838" data-name="Trazado 26838" d="M381.278,130.58a7.856,7.856,0,0,1-1.739.9c-7.368,2.908-26.056,2.043-29.1-.608-.865-.187,1.645-14.5,1.52-16.833-.25-4.491-.967-11.235-1.255-11.687-2.308-2.549-3.922-4.4-3.984-7.422-.086-3.688,3.493-7.594,3.9-8.717,1.622-4.5.756-7.524,1.762-8.966,3.579-1.06,4.093-1.38,5.247-1.7-.047,2.051-.359,6.518,3.173,7.976,6.479-.889,8.966-8.257,8.966-8.257s4.241,1.489,7.118,2.355a28.671,28.671,0,0,1,3.438,2.355c.522.359.164,4.764-.335,10.907C378.955,103.417,377.31,123.181,381.278,130.58Z" transform="translate(-303.664 -42.743)" fill="#62c1c5"/>
    <path id="Trazado_26839" data-name="Trazado 26839" d="M389.781,134.927a7.855,7.855,0,0,1-1.739.9l-1.372-2.487s-1.216-9.644-1.357-17.051a127.332,127.332,0,0,1,1.068-16.279L388.229,95l.257.234C387.457,107.764,385.812,127.528,389.781,134.927Z" transform="translate(-312.167 -47.091)" fill="#4ea8a5"/>
    <path id="Trazado_26840" data-name="Trazado 26840" d="M354.191,46.8s-.654,8,.711,12.2c1.011,3.107,5.162,6.006,8.632,5.967,9.555,0,11.268-12.978,11.219-13.606s-14.092-6.076-14.092-6.076Z" transform="translate(-305.277 -36.135)" fill="#ffd1ab"/>
    <path id="Trazado_26841" data-name="Trazado 26841" d="M352.95,148.461" transform="translate(-305.038 -58.87)" fill="#f2f2f2"/>
    <path id="Trazado_26842" data-name="Trazado 26842" d="M378.78,67.961c.213-.114.422-.236.624-.357a5.26,5.26,0,0,0,2.561-2.585c.664-1.793.982-4.544.053-6.283-.628-1.177-1.811-1.948-2.621-3.008a9.275,9.275,0,0,1-1.545-5.224,34.445,34.445,0,0,0-.372-5.512c-.662-3.084-1.54-6.019-3.915-8.006-3.806-3.181-11.435-5.066-15.583-1.518-.755.645-.9,1.162-1.922,1.261a7.513,7.513,0,0,0-3.481,1.017c-1.361.787-3.012,1.9-2.821,3.683a6.392,6.392,0,0,0,2.6,3.777,3.156,3.156,0,0,0,1.467.329c1.617.031,2.959-1.021,4.546-.851a3.018,3.018,0,0,1,1.991,1.1c.572.706.5,1.691,1.162,2.351,1.071,1.059,2.731.97,4,1.658a1.329,1.329,0,0,1,.547.451,1.426,1.426,0,0,1,.139.68q.037,1,.074,2.005c.629-.278.695-1.173,1.214-1.625a1.443,1.443,0,0,1,1.82.118,3.049,3.049,0,0,1,.877,1.743,5.019,5.019,0,0,1-.354,2.4c-.415,1.362-1.582,2.588-2.525,1.688-.684,1.006.063,2.685.088,3.823.02.9,0,2.69-.84,3.283-.775.544-2,.131-2.051,1.535a2.7,2.7,0,0,0,2.519,2.447,9.436,9.436,0,0,0,3.77-.658,5.914,5.914,0,0,1,3.781-.185,11.451,11.451,0,0,0,2.122.955A3.317,3.317,0,0,0,378.78,67.961Z" transform="translate(-304.332 -33.551)" fill="#232a54"/>
    <g id="Grupo_16238" data-name="Grupo 16238" transform="translate(36.731 45.01)">
      <path id="Trazado_26843" data-name="Trazado 26843" d="M360.816,117.721c1.746-.621,9.62-17.06,12.251-22.023a7.51,7.51,0,0,1,4.368-3.887c3.178,1.716,3.547,5.706,2.6,9.1-3.972,14.214-16.111,25.7-17.893,25.7A8.35,8.35,0,0,0,360.816,117.721Z" transform="translate(-343.503 -91.398)" fill="#ffd1ab"/>
      <path id="Trazado_26844" data-name="Trazado 26844" d="M340.316,100.02c0,.008.012.014.021.021a6.593,6.593,0,0,1,2.009,2.492c4.379,8.225,8.444,18.505,10.077,20.542,0,0,3.74,7.805,9.289-.177-.159-1.767-15.815-22.931-15.893-23.108,1.121-4.334-2.43-7.562-4.876-8.487C339.851,90.89,336.661,96.4,340.316,100.02Z" transform="translate(-338.61 -91.281)" fill="#ffd1ab"/>
    </g>
    <path id="Trazado_26845" data-name="Trazado 26845" d="M331.559,94.972H342.2a1.269,1.269,0,0,0,1.223-1.609l-7.143-25.672a1.27,1.27,0,0,0-1.223-.929H324.416a1.269,1.269,0,0,0-1.223,1.61l7.143,25.671A1.269,1.269,0,0,0,331.559,94.972Z" transform="translate(-298.472 -40.868)" fill="#97deef"/>
    <g id="Grupo_16240" data-name="Grupo 16240" transform="translate(61.83 35.388)">
      <g id="Grupo_16239" data-name="Grupo 16239">
        <path id="Trazado_26846" data-name="Trazado 26846" d="M383.469,78.94s4.522,1.946,3.769,9.058c-.229,2.16-5.644,14.34-5.644,14.34a5.645,5.645,0,0,1-4.852.6,11.7,11.7,0,0,1-5.213-3.517s1.206-5.545,1.519-8.436c.2-1.8-2.246-.406-2.246-.406l2.013-9.7Z" transform="translate(-370.802 -78.94)" fill="#62c1c5"/>
      </g>
    </g>
    <path id="Trazado_26847" data-name="Trazado 26847" d="M319.3,165.65s.041.009.115.016h45.257a22.492,22.492,0,0,0,5.624-.658c10.009-2.584,10.136-10.2,10.136-10.589V154.4c-.611-11.47-14.241-16.038-14.241-16.038Z" transform="translate(-297.624 -56.646)" fill="#594a5f"/>
    <path id="Trazado_26848" data-name="Trazado 26848" d="M370.632,148.461s3.947,7.606-6.771,12.821-33.395,6.608-33.395,6.608H319.443Z" transform="translate(-297.656 -58.87)" fill="#4c4051"/>
    <g id="Grupo_16242" data-name="Grupo 16242" transform="translate(0 80.936)">
      <g id="Grupo_16241" data-name="Grupo 16241" transform="translate(0 21.476)">
        <path id="Trazado_26849" data-name="Trazado 26849" d="M309.565,167.025a4.826,4.826,0,0,0-3.623-.948c-1.587.119-5.965,1.591-8.107,1.774s-4.292-.058-5.5,1.523c-2.281,2.977.469,6.118,4.018,6.18,1.93.034,2.376-1.126,5.436-1.135,2.965-.009,7.443-1.459,8.561-3.692" transform="translate(-291.498 -165.159)" fill="#4c4051"/>
        <path id="Trazado_26850" data-name="Trazado 26850" d="M316.593,164.9a22.836,22.836,0,0,1-3.854,1.162c-1.56.245-5.121.214-6.608,1.377-1.612,1.259-.673,4.13.489,4.711,1.877.939,3.243.214,6.363-1.132a20.261,20.261,0,0,1,6.944-1.346" transform="translate(-294.533 -164.905)" fill="#ffd1ab"/>
        <path id="Trazado_26851" data-name="Trazado 26851" d="M304.71,168.668s1.122-.784,1.591-.111a10.517,10.517,0,0,1,.837,4.17c-.285.877-2.06.755-2.06.755l-1.815-3.692Z" transform="translate(-294.09 -165.65)" fill="#4c4051"/>
      </g>
      <path id="Trazado_26852" data-name="Trazado 26852" d="M317,165.443c-1.281,0-2.645-6.428-2.147-7.33,0,0,9.57-2.868,12.5-4.057,8.664-3.519,18.122-10.25,26.49-14.4,4.086-2.033,9.455-3.9,13.332-.085,3.18,3.125,3.265,8.636,1.2,11.945s-5.663,4.924-9.173,6.254C359.2,157.765,333.723,165.424,317,165.443Z" transform="translate(-296.621 -137.36)" fill="#594a5f"/>
    </g>
    <path id="Trazado_26853" data-name="Trazado 26853" d="M312.92,83.658l.939-3.37s1.138-4.082,1.882-3.947c.44.08.441.469.277,1.417,0,0-.183,1.094-.353,1.96.548-1.024,1.793-3.208,2.334-3,.416.162.344.545,0,1.443,0,0-.284.757-.574,1.488.61-1.049,1.432-2.283,1.845-2.121s.343.545,0,1.443c0,0-.825,2.2-1.1,2.714a4.115,4.115,0,0,0-.2,1.191,12.151,12.151,0,0,1,1.01-2.05c.331-.412.838-.481.941,0S319.065,83.2,319,83.92s-.256,4.481-.256,4.481l-.951-3.459-1.15-1.557c-.013.51-.013.893-.013.893l-.971-1.315c.1.591.188,1.059.188,1.059Z" transform="translate(-296.218 -42.978)" fill="#f4d0ab"/>
    <rect id="Rectángulo_4099" data-name="Rectángulo 4099" width="11.935" height="1.962" transform="translate(63.932 24.84) rotate(-84.862)" fill="#97deef"/>
    <g id="Grupo_16243" data-name="Grupo 16243" transform="translate(50.609 0.962)">
      <path id="Trazado_26854" data-name="Trazado 26854" d="M377.124,56.474c-.3,3.282-2.376,5.778-4.648,5.574s-3.874-3.031-3.579-6.314,2.376-5.778,4.648-5.574S377.419,53.192,377.124,56.474Z" transform="translate(-359.154 -38.169)" fill="#97deef"/>
      <path id="Trazado_26855" data-name="Trazado 26855" d="M379.63,56.7c-.3,3.283-2.376,5.778-4.648,5.574s-3.874-3.031-3.579-6.313,2.376-5.778,4.648-5.574S379.925,53.417,379.63,56.7Z" transform="translate(-359.706 -38.219)" fill="#6ecad3"/>
      <path id="Trazado_26856" data-name="Trazado 26856" d="M356.41,37.148s12.134-2.231,12.134,11.218l2.7-1.6s.2-11.931-10.442-11.931C360.8,34.832,359.09,34.247,356.41,37.148Z" transform="translate(-356.41 -34.784)" fill="#97deef"/>
    </g>
  </g>
</svg>
