<svg xmlns="http://www.w3.org/2000/svg" width="930" height="2155" viewBox="0 0 930 2155">
  <g id="Grupo_16272" data-name="Grupo 16272" transform="translate(-210 -1475)">
    <g id="Grupo_14193" data-name="Grupo 14193" transform="translate(-25 -12)">
      <rect id="Rectángulo_3807" data-name="Rectángulo 3807" width="930" height="2155" transform="translate(235 1487)" fill="#eec92e"/>
      <rect id="Rectángulo_3810" data-name="Rectángulo 3810" width="740" height="840" transform="translate(330 2688)" fill="#fddf60"/>
      <text id="Calentamiento:_ejercitación_del_grupo_para_un_mejor_funcionamiento_colectivo._Ejemplo:_decir_objetos_que_valgan_menos_de_1.000_nombrar_todas_las_cosas_blandas_que_se_nos_ocurran_etc._Generación_de_ideas:_se_establece_un_número_de_ideas_al_que_queremo" data-name="Calentamiento:

ejercitación del grupo para un mejor funcionamiento colectivo. Ejemplo: decir objetos que valgan menos de $1.000, nombrar todas las cosas blandas que se nos ocurran, etc.

Generación de ideas:

se establece un número de ideas al que queremo" transform="translate(330 2132)" fill="#00223d" font-size="20" font-family="OpenSans-Bold, Open Sans" font-weight="700"><tspan x="0" y="21">Calentamiento:</tspan><tspan x="0" y="48"></tspan><tspan font-family="OpenSans, Open Sans" font-weight="400"><tspan x="0" y="75">ejercitación del grupo para un mejor funcionamiento colectivo. Ejemplo: decir </tspan><tspan x="0" y="102">objetos que valgan menos de $1.000, nombrar todas las cosas blandas que se </tspan><tspan x="0" y="129">nos ocurran, etc.</tspan><tspan x="0" y="156"></tspan></tspan><tspan x="0" y="183">Generación de ideas:</tspan><tspan x="0" y="210"></tspan><tspan font-family="OpenSans, Open Sans" font-weight="400"><tspan x="0" y="237">se establece un número de ideas al que queremos llegar. Se marca el tiempo </tspan><tspan x="0" y="264">durante el que vamos a trabajar. Y las cuatro reglas fundamentales que se </tspan><tspan x="0" y="291">mencionan a continuación:</tspan></tspan></text>
      <text id="Los_participantes_dicen_todo_aquello_que_se_les_ocurra_de_acuerdo_con_el_problema_planteado_y_guardando_las_reglas_anteriores." data-name="Los participantes dicen todo aquello que se les ocurra, de acuerdo con el problema planteado y guardando las reglas anteriores." transform="translate(330 2591)" fill="#00223d" font-size="20" font-family="OpenSans, Open Sans"><tspan x="0" y="21">Los participantes dicen todo aquello que se les ocurra, de acuerdo con el </tspan><tspan x="0" y="48">problema planteado y guardando las reglas anteriores.</tspan></text>
      <text id="Ejemplo:_Qué_podemos_hacer_para_mejorar_los_problemas_del_tráfico_urbano_Respuestas:_quemar_los_coches_vivir_en_el_campo_restringir_los_días_de_circulación_aumentar_muchísimo_el_precio_de_los_coches_aumentar_muchísimo_el_precio_de_la_gasolina_ir_en" data-name="Ejemplo: ¿Qué podemos hacer para mejorar los problemas del tráfico urbano?

Respuestas: quemar los coches, vivir en el campo, restringir los días de circulación, aumentar muchísimo el precio de los coches, aumentar muchísimo el precio de la gasolina, ir en" transform="translate(378 2728)" fill="#00223d" font-size="20" font-family="OpenSans-Bold, Open Sans" font-weight="700"><tspan x="0" y="21">Ejemplo:</tspan><tspan y="21" xml:space="preserve" font-family="OpenSans, Open Sans" font-weight="400"> ¿Qué podemos hacer para mejorar los problemas del </tspan><tspan x="0" y="48" font-family="OpenSans, Open Sans" font-weight="400">tráfico urbano?</tspan><tspan font-family="OpenSans, Open Sans" font-weight="400"><tspan x="0" y="75"></tspan></tspan><tspan x="0" y="102">Respuestas:</tspan><tspan y="102" xml:space="preserve" font-family="OpenSans, Open Sans" font-weight="400"> quemar los coches, vivir en el campo, restringir los días </tspan><tspan x="0" y="129" font-family="OpenSans, Open Sans" font-weight="400">de circulación, aumentar muchísimo el precio de los coches, </tspan><tspan x="0" y="156" font-family="OpenSans, Open Sans" font-weight="400">aumentar muchísimo el precio de la gasolina, ir en bici, ir a pie, no </tspan><tspan x="0" y="183" font-family="OpenSans, Open Sans" font-weight="400">salir de casa, vivir todos en la misma casa, trabajar y vivir en el </tspan><tspan x="0" y="210" font-family="OpenSans, Open Sans" font-weight="400">mismo edificio, penalizar el uso del coche, pinchar todas las ruedas, </tspan><tspan x="0" y="237" font-family="OpenSans, Open Sans" font-weight="400">etc.Trabajo con las ideas: las ideas existentes pueden mejorarse </tspan><tspan x="0" y="264" font-family="OpenSans, Open Sans" font-weight="400">mediante la aplicación de una lista de control; también se pueden </tspan><tspan x="0" y="291" font-family="OpenSans, Open Sans" font-weight="400">agregar otras ideas. Osborn, recomienda el empleo de preguntas </tspan><tspan x="0" y="318" font-family="OpenSans, Open Sans" font-weight="400">como las que siguen: </tspan><tspan font-family="OpenSans, Open Sans" font-weight="400"><tspan x="0" y="345"></tspan></tspan><tspan x="0" y="372">Idea:</tspan><tspan y="372" xml:space="preserve" font-family="OpenSans, Open Sans" font-weight="400"> no salir de casa. </tspan><tspan font-family="OpenSans, Open Sans" font-weight="400"><tspan x="0" y="399"></tspan></tspan><tspan font-family="SegoeUIEmoji, Segoe UI Emoji" font-weight="400"><tspan x="0" y="427">✔</tspan><tspan y="427" xml:space="preserve" font-family="OpenSans, Open Sans">	Aplicar de otro modo: ¿Cómo vivir sin salir de casa?</tspan><tspan x="0" y="455">✔</tspan><tspan y="455" xml:space="preserve" font-family="OpenSans, Open Sans">	Modificar: ¿Cómo salir de casa sin usar el coche?</tspan><tspan x="0" y="483">✔</tspan><tspan y="483" xml:space="preserve" font-family="OpenSans, Open Sans">	Ampliar: ¿Cómo estar siempre fuera de casa sin coche?</tspan><tspan x="0" y="511">✔</tspan><tspan y="511" xml:space="preserve" font-family="OpenSans, Open Sans">	Reducir: ¿Cómo salir en coche solo una vez por semana?</tspan><tspan x="0" y="539">✔</tspan><tspan y="539" xml:space="preserve" font-family="OpenSans, Open Sans">	Sustituir: ¿Cómo saber que los demás no sacan el coche? </tspan><tspan x="0" y="567">✔</tspan><tspan y="567" xml:space="preserve" font-family="OpenSans, Open Sans">	Reorganizar: ¿Cómo trabajar y vivir sin coche? </tspan><tspan x="0" y="595">✔</tspan><tspan y="595" xml:space="preserve" font-family="OpenSans, Open Sans">	Invertir: ¿Cómo vivir siempre en un coche? </tspan><tspan x="0" y="623">✔</tspan><tspan y="623" xml:space="preserve" font-family="OpenSans, Open Sans">	Combinar: ¿Cómo varios desconocidos usan el coche?</tspan></tspan><tspan font-family="OpenSans, Open Sans" font-weight="400"><tspan x="0" y="650"></tspan></tspan><tspan x="0" y="677">Evaluación:</tspan><tspan y="677" xml:space="preserve" font-family="OpenSans, Open Sans" font-weight="400"> tras la generación de ideas, el grupo establece los </tspan><tspan x="0" y="704" font-family="OpenSans, Open Sans" font-weight="400">criterios con los cuales las va a evaluar. Ejemplos: rentabilidad de la </tspan><tspan x="0" y="731" font-family="OpenSans, Open Sans" font-weight="400">idea, grado de factibilidad, grado de extensión de la idea, etc.</tspan></text>
      <text id="_1._Toda_crítica_está_prohibida._2._Toda_idea_es_bienvenida._3._Tantas_ideas_como_sea_posible._4._El_desarrollo_y_asociación_de_las_ideas_es_importante." data-name="1.	Toda crítica está prohibida.
2.	Toda idea es bienvenida.
3.	Tantas ideas como sea posible.
4.	El desarrollo y asociación de las ideas es importante." transform="translate(425 2456)" fill="#00223d" font-size="20" font-family="OpenSans-Bold, Open Sans" font-weight="700"><tspan x="0" y="21">1.	Toda crítica está prohibida.</tspan><tspan x="0" y="48">2.	Toda idea es bienvenida.</tspan><tspan x="0" y="75">3.	Tantas ideas como sea posible.</tspan><tspan x="0" y="102">4.	El desarrollo y asociación de las ideas es </tspan></text>
      <text id="Esta_técnica_fue_desarrollada_por_Alex_Osborn_especialista_en_creatividad_y_publicidad_en_los_años_30_y_publicada_en_1963_en_el_libro_Applied_Imagination_._Es_la_técnica_más_conocida_y_utilizada_además_es_la_base_sobre_la_que_se_realizan_otras_técnica" data-name="Esta técnica fue desarrollada por Alex Osborn (especialista en creatividad y publicidad) en los años 30 y publicada en 1963 en el libro “Applied Imagination”. Es la técnica más conocida y utilizada, además, es la base sobre la que se realizan otras técnica" transform="translate(710 1533)" fill="#00223d" font-size="20" font-family="OpenSans, Open Sans"><tspan x="0" y="21">Esta técnica fue desarrollada por Alex </tspan><tspan x="0" y="48">Osborn (especialista en creatividad y </tspan><tspan x="0" y="75">publicidad) en los años 30 y publicada </tspan><tspan x="0" y="102">en 1963 en el libro “Applied </tspan><tspan x="0" y="129">Imagination”. Es la técnica más </tspan><tspan x="0" y="156">conocida y utilizada, además, es la </tspan><tspan x="0" y="183">base sobre la que se realizan otras </tspan><tspan x="0" y="210">técnicas. La lluvia de ideas se hace en </tspan><tspan x="0" y="237">grupos de trabajo.</tspan></text>
      <text id="sala_sillas_para_el_grupo_pizarra_grande_o_cuaderno_de_notas_para_apuntar_las_ideas_grabadora_opcional_reloj." data-name="sala, sillas para el grupo, pizarra grande o cuaderno de notas para apuntar las ideas, grabadora (opcional), reloj." transform="translate(425 1918)" fill="#00223d" font-size="20" font-family="OpenSans, Open Sans" letter-spacing="-0.02em"><tspan x="0" y="21">sala, sillas para el grupo, </tspan><tspan x="0" y="48">pizarra grande o cuaderno </tspan><tspan x="0" y="75">de notas para apuntar las </tspan><tspan x="0" y="102">ideas, grabadora (opcional), </tspan></text>
      <text id="facilitador_o_coordinador_dinamiza_el_proceso_secretario_apunta_las_ideas_miembros_del_grupo._" data-name="facilitador o coordinador (dinamiza el proceso), secretario (apunta las ideas), miembros del grupo. " transform="translate(805 1918)" fill="#00223d" font-size="20" font-family="OpenSans, Open Sans"><tspan x="0" y="21">facilitador o coordinador </tspan><tspan x="0" y="48">(dinamiza el proceso), </tspan><tspan x="0" y="75">secretario (apunta las </tspan><tspan x="0" y="102">ideas), miembros del grupo. </tspan></text>
      <path id="Trazado_23511" data-name="Trazado 23511" d="M138.527,15.023c.018-6.07-3.046-10.793-8.407-12.96a1.767,1.767,0,0,0-1.592.059,2.3,2.3,0,0,0-.986,1.864c-.187,1.2-.576,3.7-4.407,7.046a10.047,10.047,0,0,0-2.935,11.3,2.7,2.7,0,0,0-.915,1.33l-.91,2.98a2.709,2.709,0,0,0,1.226,3.135l-5.6,18.3h-5.612l1.428-32.793,1.726.076a1.283,1.283,0,0,1,1.224,1.337l-.775,17.853a1.455,1.455,0,0,0,1.39,1.516h.064a1.455,1.455,0,0,0,1.452-1.392l.775-17.853a4.2,4.2,0,0,0-4-4.369l-1.727-.076.022-.508a3.125,3.125,0,0,0-.83-2.277,3.184,3.184,0,0,0-.723-.586l.134-3.155A5.612,5.612,0,0,0,103.193.006h0a5.606,5.606,0,0,0-5.837,5.355l-.138,3.157a3.176,3.176,0,0,0-1.8,2.694c0,.006,0,.012,0,.019l-.136,3.148-1.436-.258A3.664,3.664,0,0,0,89.6,17.076l-3.189,17.77L83.632,8.785A2.5,2.5,0,0,0,80.891,6.57L67.23,8.026a2.494,2.494,0,0,0-2.216,2.741l3.975,37.31H68.37a2.565,2.565,0,0,0-2.562,2.562v2.8a5.379,5.379,0,0,0,4.586,5.313l3.376,36.6a3.416,3.416,0,0,0,3.325,3.192h46.253a3.406,3.406,0,0,0,3.325-3.2l3.376-36.6a5.378,5.378,0,0,0,4.586-5.314v-2.8a2.565,2.565,0,0,0-2.562-2.562h-6.807L129.9,32.931c.06,0,.121.007.182.007a2.724,2.724,0,0,0,2.592-1.919l.911-2.978a2.682,2.682,0,0,0,0-1.588c2.929-2.178,4.926-6.641,4.941-11.428ZM100.259,5.488a2.686,2.686,0,0,1,4.671-1.7,2.663,2.663,0,0,1,.705,1.934l-.118,2.783-5.38-.234ZM98.322,11.36a.26.26,0,0,1,.251-.243l8.235.359a.262.262,0,0,1,.181.085.239.239,0,0,1,.065.177L106.128,33l-6.283-.274,2.4-13.381A3.666,3.666,0,0,0,99.286,15.1l-1.117-.2ZM106,35.9l-.53,12.172H97.091l2.236-12.462ZM92.462,17.589a.759.759,0,0,1,.87-.6l5.442.977a.757.757,0,0,1,.607.869l-.872,4.858-6.92-1.242Zm-1.386,7.722L98,26.553l-.817,4.555-6.92-1.242Zm-1.331,7.418,6.92,1.242L94.135,48.077H87.82l-.309-2.9ZM68.775,18.608l2.592-.277a1.455,1.455,0,1,0-.309-2.893l-2.592.277-.516-4.841L80.783,9.507l4.111,38.57H71.915l-.388-3.646,2.6-.277a1.455,1.455,0,0,0-.308-2.893l-2.6.277-.609-5.715,2.591-.277a1.455,1.455,0,0,0-.309-2.893L70.3,32.93l-.609-5.715,2.592-.277a1.455,1.455,0,1,0-.309-2.893l-2.591.277Zm54.573,77.033H77.095c-.275,0-.407-.335-.429-.556l-.6-6.485H96.792a1.455,1.455,0,1,0,0-2.909H75.8L74.427,70.813h9.981v6.018a2.843,2.843,0,0,0,2.84,2.84h25.945a2.846,2.846,0,0,0,2.846-2.84V70.813h9.976l-1.372,14.878H103.531a1.455,1.455,0,1,0,0,2.909h20.844l-.6,6.487c-.024.268-.182.553-.428.553ZM113.131,76.763H87.318V68.893h25.813v7.869Zm18.6-25.777v2.456a2.462,2.462,0,0,1-2.458,2.462H103.111a1.455,1.455,0,1,0,0,2.909h24.012l-.838,9.091h-10.4a2.848,2.848,0,0,0-2.69-1.92H87.249a2.843,2.843,0,0,0-2.685,1.92H74.159l-.838-9.091H96.449a1.455,1.455,0,1,0,0-2.909H71.18a2.465,2.465,0,0,1-2.463-2.462V50.986h63.009Zm-9.5-2.909h-5.186L122.36,30.7l4.742,1.451Zm7.731-18.1-.608-.186h0l-3.686-1.128-4.446-1.36.793-2.6,8.742,2.676ZM131.26,24.5l-8.016-2.454a7.1,7.1,0,0,1,1.8-8.818c3.827-3.347,4.844-6.2,5.206-7.886,4.832,2.63,5.371,7.564,5.364,9.677-.013,4.133-1.895,8.161-4.358,9.481Z" transform="translate(265 1897.999)"/>
      <g id="Grupo_14189" data-name="Grupo 14189" transform="translate(694 1894)">
        <ellipse id="Elipse_911" data-name="Elipse 911" cx="1.5" cy="1" rx="1.5" ry="1" transform="translate(48 34)"/>
        <rect id="Rectángulo_3801" data-name="Rectángulo 3801" width="4" height="2" transform="translate(47 30)"/>
        <ellipse id="Elipse_912" data-name="Elipse 912" cx="1.5" cy="1" rx="1.5" ry="1" transform="translate(56 34)"/>
        <rect id="Rectángulo_3802" data-name="Rectángulo 3802" width="4" height="2" transform="translate(56 30)"/>
        <path id="Trazado_23512" data-name="Trazado 23512" d="M240,157h1.25a3.754,3.754,0,0,0,3.75-3.75V152h-2.5v1.25a1.251,1.251,0,0,1-1.25,1.25H240Z" transform="translate(-189 -114.75)"/>
        <circle id="Elipse_913" data-name="Elipse 913" cx="1" cy="1" r="1" transform="translate(29 59)"/>
        <rect id="Rectángulo_3803" data-name="Rectángulo 3803" width="4" height="2" transform="translate(27 55)"/>
        <ellipse id="Elipse_914" data-name="Elipse 914" cx="1.5" cy="1" rx="1.5" ry="1" transform="translate(36 59)"/>
        <rect id="Rectángulo_3804" data-name="Rectángulo 3804" width="3" height="2" transform="translate(36 55)"/>
        <path id="Trazado_23513" data-name="Trazado 23513" d="M114.5,313.25a1.251,1.251,0,0,1-1.25,1.25H112V317h1.25a3.754,3.754,0,0,0,3.75-3.75V312h-2.5Z" transform="translate(-81 -249.75)"/>
        <path id="Trazado_23514" data-name="Trazado 23514" d="M88,73.125l-5.942-4.457A9.939,9.939,0,0,0,83.5,63.5V51h0a10,10,0,0,0-18.558-5.168l-2.884-2.163A9.939,9.939,0,0,0,63.5,38.5V24.75A8.76,8.76,0,0,0,54.75,16h-2.5a5,5,0,0,0-4.329,2.5H47.25a3.754,3.754,0,0,0-3.75,3.75V38.5a9.939,9.939,0,0,0,1.442,5.168l-1.924,1.443A5.006,5.006,0,0,0,38.5,42.25H32.25a3.741,3.741,0,0,0-2.792,1.25H27.25a3.754,3.754,0,0,0-3.75,3.75V63.5a9.939,9.939,0,0,0,1.442,5.168L19,73.125a7.536,7.536,0,0,0-3,6V89.75A1.25,1.25,0,0,0,17.25,91h72.5A1.25,1.25,0,0,0,91,89.75V79.125A7.536,7.536,0,0,0,88,73.125Zm-17-29.2a7.5,7.5,0,0,1,9.9,5.822H74.75A3.754,3.754,0,0,1,71,46Zm-.391,6.749A6.224,6.224,0,0,0,74.75,52.25H81V63.5a7.5,7.5,0,0,1-15,0V54.624A6.274,6.274,0,0,0,70.609,50.678ZM72.131,78.5h2.738l1,10H71.131ZM74.969,76H72.025l-.541-2.7a10.043,10.043,0,0,0,4.009,0ZM68.5,45.414V48.5A3.757,3.757,0,0,1,66,52.036V51A7.483,7.483,0,0,1,68.5,45.414ZM33.5,71A7.509,7.509,0,0,1,26,63.5V52.128a6.444,6.444,0,0,0,3.8-2.316A6.242,6.242,0,0,0,34.75,52.25H41V63.5A7.509,7.509,0,0,1,33.5,71Zm-1.369,7.5h2.737l1,10H31.131ZM34.969,76H32.025l-.541-2.7a10.043,10.043,0,0,0,4.009,0ZM48.733,47.289l.992,4.961-.487,2.432L45.2,46.6l1.3-.973a10.056,10.056,0,0,0,2.237,1.66ZM54.969,51H52.025l-.541-2.7a10.044,10.044,0,0,0,4.009,0Zm-2.944,2.5h2.95l.965,4.825L53.5,63.2l-2.44-4.88Zm5.736,1.182-.487-2.436.958-4.939A10.054,10.054,0,0,0,60.5,45.628l1.3.973ZM49.75,21a2.5,2.5,0,0,1,2.5-2.5h2.5a6.262,6.262,0,0,1,5.959,4.365,4.272,4.272,0,0,0-5.227.635l-.759.758a1.667,1.667,0,0,1-1.186.492h-.031a1.764,1.764,0,0,1-1.256-.518l-.733-.732a4.242,4.242,0,0,0-1.767-1.065ZM48.5,24.75a1.755,1.755,0,0,1,1.25.518l.732.732a4.246,4.246,0,0,0,3.024,1.25h.031a4.151,4.151,0,0,0,2.954-1.224l.758-.759a1.767,1.767,0,0,1,2.5,0h0L61,26.518V38.5a7.5,7.5,0,0,1-15,0V26.518l1.25-1.25A1.756,1.756,0,0,1,48.5,24.75ZM46,22.25A1.251,1.251,0,0,1,47.25,21v1.435a4.214,4.214,0,0,0-1.25.623ZM32.25,44.75H38.5a2.5,2.5,0,0,1,2.5,2.5v2.5H34.75A3.754,3.754,0,0,1,31,46,1.251,1.251,0,0,1,32.25,44.75ZM26,47.25A1.251,1.251,0,0,1,27.25,46H28.5v1.047a3.947,3.947,0,0,1-2.5,2.5ZM18.5,79.125a5.024,5.024,0,0,1,2-4l6-4.5a10.056,10.056,0,0,0,2.237,1.66l1,5.023L28.619,88.5H18.5Zm30,9.375H38.381l-.375-3.75H46v-2.5H37.756l-.494-4.942.97-5A10.054,10.054,0,0,0,40.5,70.628l6,4.5a5.024,5.024,0,0,1,2,4ZM56,79.125V88.5H51V79.125a7.536,7.536,0,0,0-3-6l-5.942-4.457A9.939,9.939,0,0,0,43.5,63.5V48.8l8.882,17.764a1.25,1.25,0,0,0,2.236,0l9.217-18.433.073.055A9.96,9.96,0,0,0,63.5,51V63.5a9.939,9.939,0,0,0,1.442,5.168L59,73.125A7.536,7.536,0,0,0,56,79.125Zm2.5,0a5.024,5.024,0,0,1,2-4l6-4.5a10.056,10.056,0,0,0,2.237,1.66l1,5.023L68.619,88.5H58.5Zm30,9.375H78.381l-.5-5H86V81H77.631l-.369-3.692.97-5A10.054,10.054,0,0,0,80.5,70.628l6,4.5a5.024,5.024,0,0,1,2,4Z"/>
        <ellipse id="Elipse_915" data-name="Elipse 915" cx="1.5" cy="1" rx="1.5" ry="1" transform="translate(68 59)"/>
        <rect id="Rectángulo_3805" data-name="Rectángulo 3805" width="3" height="2" transform="translate(68 55)"/>
        <ellipse id="Elipse_916" data-name="Elipse 916" cx="1.5" cy="1" rx="1.5" ry="1" transform="translate(76 59)"/>
        <rect id="Rectángulo_3806" data-name="Rectángulo 3806" width="4" height="2" transform="translate(76 55)"/>
        <path id="Trazado_23515" data-name="Trazado 23515" d="M368,317h1.25a3.754,3.754,0,0,0,3.75-3.75V312h-2.5v1.25a1.251,1.251,0,0,1-1.25,1.25H368Z" transform="translate(-297 -249.75)"/>
      </g>
      <rect id="Rectángulo_3808" data-name="Rectángulo 3808" width="360" height="45" transform="translate(330 1836)" fill="#002b45"/>
      <rect id="Rectángulo_3809" data-name="Rectángulo 3809" width="360" height="45" transform="translate(710 1836)" fill="#002b45"/>
      <text id="Materiales_necesarios:" data-name="Materiales necesarios:" transform="translate(358 1867)" fill="#fff" font-size="24" font-family="Montserrat-Bold, Montserrat" font-weight="700" letter-spacing="-0.004em"><tspan x="0" y="0">Materiales necesarios:</tspan></text>
      <text id="Participantes:_" data-name="Participantes: " transform="translate(738 1867)" fill="#fff" font-size="24" font-family="Montserrat-Bold, Montserrat" font-weight="700" letter-spacing="-0.004em"><tspan x="0" y="0">Participantes: </tspan></text>
      <g id="Grupo_14192" data-name="Grupo 14192" transform="translate(280.997 1501)">
        <g id="Grupo_14191" data-name="Grupo 14191" transform="translate(48.003)">
          <g id="Grupo_14190" data-name="Grupo 14190">
            <path id="Trazado_23516" data-name="Trazado 23516" d="M237.175,31.033a5.172,5.172,0,0,0,5.172-5.172V5.172a5.172,5.172,0,1,0-10.344,0V25.861A5.172,5.172,0,0,0,237.175,31.033Z" transform="translate(-113.044)" fill="#fddf60"/>
            <path id="Trazado_23517" data-name="Trazado 23517" d="M140.686,32.4,151.03,50.308a5.172,5.172,0,0,0,8.992-5.113l-.034-.059L149.644,27.224a5.172,5.172,0,1,0-8.992,5.113Z" transform="translate(-80.514 -8.699)" fill="#fddf60"/>
            <path id="Trazado_23518" data-name="Trazado 23518" d="M75.169,101.607l.059.034,17.911,10.344a5.172,5.172,0,1,0,5.231-8.924l-.059-.034L80.4,92.683a5.172,5.172,0,0,0-5.231,8.924Z" transform="translate(-56.702 -32.511)" fill="#fddf60"/>
            <path id="Trazado_23519" data-name="Trazado 23519" d="M79.036,189.172A5.172,5.172,0,0,0,73.864,184H53.175a5.172,5.172,0,1,0,0,10.344H73.864A5.172,5.172,0,0,0,79.036,189.172Z" transform="translate(-48.003 -65.041)" fill="#fddf60"/>
            <path id="Trazado_23520" data-name="Trazado 23520" d="M93.2,260.648l-.06.035L75.228,271.027a5.172,5.172,0,1,0,5.111,8.993l.06-.035,17.911-10.344a5.172,5.172,0,1,0-5.111-8.993Z" transform="translate(-56.702 -91.896)" fill="#fddf60"/>
            <path id="Trazado_23521" data-name="Trazado 23521" d="M389.355,271.062l-.06-.035-17.911-10.344a5.172,5.172,0,0,0-5.233,8.923l.06.035,17.911,10.344a5.172,5.172,0,1,0,5.233-8.923Z" transform="translate(-159.56 -91.896)" fill="#fddf60"/>
            <path id="Trazado_23522" data-name="Trazado 23522" d="M409.864,184H389.175a5.172,5.172,0,1,0,0,10.344h20.688a5.172,5.172,0,1,0,0-10.344Z" transform="translate(-166.774 -65.041)" fill="#fddf60"/>
            <path id="Trazado_23523" data-name="Trazado 23523" d="M368.822,112.679a5.173,5.173,0,0,0,2.586-.693l17.911-10.344a5.172,5.172,0,1,0-5.113-8.992l-.059.034-17.911,10.344a5.172,5.172,0,0,0,2.587,9.651Z" transform="translate(-159.579 -32.511)" fill="#fddf60"/>
            <path id="Trazado_23524" data-name="Trazado 23524" d="M310.581,52.2l.006,0a5.172,5.172,0,0,0,7.064-1.9h0L328,32.4a5.172,5.172,0,0,0-8.923-5.233l-.035.06L308.694,45.135A5.174,5.174,0,0,0,310.581,52.2Z" transform="translate(-139.908 -8.698)" fill="#fddf60"/>
            <path id="Trazado_23525" data-name="Trazado 23525" d="M224.9,263.442a5.172,5.172,0,0,0,5.172-5.172V201.377h10.344a20.688,20.688,0,1,0-20.688-20.688v10.344H209.38V180.688a20.688,20.688,0,1,0-20.688,20.688h10.344V258.27a5.172,5.172,0,0,0,10.344,0V201.377h10.344V258.27A5.172,5.172,0,0,0,224.9,263.442Zm5.172-82.754a10.344,10.344,0,1,1,10.344,10.344H230.068Zm-31.033,10.344H188.691a10.344,10.344,0,1,1,10.344-10.344Z" transform="translate(-90.421 -56.558)" fill="#fddf60"/>
            <path id="Trazado_23526" data-name="Trazado 23526" d="M198.8,64.1a82.754,82.754,0,0,0-56.474,146.624,15.414,15.414,0,0,1,5.907,11.829V234.68a15.516,15.516,0,0,0,10.344,14.565v6.124a15.418,15.418,0,0,0,4.034,10.344,15.279,15.279,0,0,0,0,20.688,15.449,15.449,0,0,0,11.482,25.861,5.043,5.043,0,0,0,4.251-7.95,5.482,5.482,0,0,0-.579-.895,5.344,5.344,0,0,0-1.438-.941c-.15-.078-.3-.14-.455-.2a5.486,5.486,0,0,0-1.629-.326c-.052,0-.1-.031-.15-.031a5.172,5.172,0,1,1,0-10.344h20.688a5.172,5.172,0,0,0,0-10.344H174.094a5.172,5.172,0,1,1,0-10.344h20.688a5.172,5.172,0,0,0,0-10.344H174.094a5.172,5.172,0,0,1-5.172-5.172V250.2h25.861a5.172,5.172,0,1,0,0-10.344H163.75a5.172,5.172,0,0,1-5.172-5.172V222.552a25.711,25.711,0,0,0-9.7-19.835A72.41,72.41,0,0,1,198.31,74.448a73.242,73.242,0,0,1,68.882,71.866,71.985,71.985,0,0,1-26.869,56.7,25.639,25.639,0,0,0-9.336,20.135V234.68a5.172,5.172,0,0,1-5.172,5.172H210.3a5.172,5.172,0,1,0,0,10.344h10.344v5.172a5.172,5.172,0,0,1-5.172,5.172H210.3a5.172,5.172,0,0,0,0,10.344h5.172a5.172,5.172,0,0,1,0,10.344H210.3a5.172,5.172,0,0,0,0,10.344h5.172a5.172,5.172,0,0,1,0,10.344H189.611a5.172,5.172,0,0,0,0,10.344h19.8a15.516,15.516,0,0,1-26.228,5.136,5.173,5.173,0,0,0-7.727,6.879A25.8,25.8,0,0,0,220.2,311.445a15.366,15.366,0,0,0,6.75-25.043,15.279,15.279,0,0,0,0-20.688,15.418,15.418,0,0,0,4.034-10.344v-6.124a15.516,15.516,0,0,0,10.344-14.565V223.152a15.548,15.548,0,0,1,5.488-12.087,82.263,82.263,0,0,0,30.717-64.827A83.716,83.716,0,0,0,198.8,64.1Z" transform="translate(-70.652 -22.624)" fill="#fddf60"/>
          </g>
        </g>
      </g>
      <text id="Lluvia_de_ideas_o_Brainstorming" data-name="Lluvia de
ideas o
Brainstorming" transform="translate(329 1624)" fill="#00223d" font-size="48" font-family="Montserrat-Bold, Montserrat" font-weight="700" letter-spacing="-0.004em"><tspan x="0" y="0">Lluvia de</tspan><tspan x="0" y="48">ideas o</tspan><tspan x="0" y="96">Brainstorming</tspan></text>
      <g id="Rectángulo_3811" data-name="Rectángulo 3811" transform="translate(284 2086)" fill="none" stroke="#002b45" stroke-width="3">
        <rect width="833" height="1491" stroke="none"/>
        <rect x="1.5" y="1.5" width="830" height="1488" fill="none"/>
      </g>
      <rect id="Rectángulo_3812" data-name="Rectángulo 3812" width="371" height="52" transform="translate(515 2065)" fill="#eec92e"/>
      <text id="Etapas_del_proceso:" data-name="Etapas del proceso:" transform="translate(539 2097)" fill="#00223d" font-size="32" font-family="Montserrat-Bold, Montserrat" font-weight="700" letter-spacing="-0.004em"><tspan x="0" y="0">Etapas del proceso:</tspan></text>
    </g>
  </g>
</svg>
