<svg id="Grupo_14497" data-name="Grupo 14497" xmlns="http://www.w3.org/2000/svg" width="140.92" height="140.92" viewBox="0 0 140.92 140.92">
  <path id="Trazado_24381" data-name="Trazado 24381" d="M69.065,17.395A9.4,9.4,0,0,0,59.671,8H17.395A9.4,9.4,0,0,0,8,17.395V38.533H69.065ZM26.789,29.138,38.533,17.395Zm16.441,0L54.973,17.395Z" transform="translate(-5.651 -5.651)" fill="#4bdddd"/>
  <path id="Trazado_24382" data-name="Trazado 24382" d="M17.395,123.743H59.671a9.4,9.4,0,0,0,9.395-9.395V112H8v2.349A9.4,9.4,0,0,0,17.395,123.743Z" transform="translate(-5.651 -79.119)" fill="#406af2"/>
  <path id="Trazado_24383" data-name="Trazado 24383" d="M80,163.743H98.789L94.092,152H84.7Z" transform="translate(-56.513 -107.375)" fill="#385ed6"/>
  <path id="Trazado_24384" data-name="Trazado 24384" d="M360,72.881h32.881V40H360Zm25.835-25.835v0Zm0,9.395v0Z" transform="translate(-254.31 -28.257)" fill="#4bdddd"/>
  <g id="Grupo_14494" data-name="Grupo 14494" transform="translate(105.69 2.349)">
    <path id="Trazado_24385" data-name="Trazado 24385" d="M360,156.7a4.7,4.7,0,0,0,4.7,4.7h23.487a4.7,4.7,0,0,0,4.7-4.7V152H360Z" transform="translate(-360 -109.724)" fill="#406af2"/>
    <path id="Trazado_24386" data-name="Trazado 24386" d="M388.184,8H364.7a4.7,4.7,0,0,0-4.7,4.7v4.7h32.881V12.7A4.7,4.7,0,0,0,388.184,8Z" transform="translate(-360 -8)" fill="#406af2"/>
  </g>
  <path id="Trazado_24387" data-name="Trazado 24387" d="M12.7,370.276H64.368a4.7,4.7,0,0,0,4.7-4.7V332.7a4.7,4.7,0,0,0-4.7-4.7H12.7A4.7,4.7,0,0,0,8,332.7v32.881A4.7,4.7,0,0,0,12.7,370.276Zm49.322-32.881h0Zm0,14.092h0Zm0,9.395h0ZM17.395,337.395H47.927v23.487H17.395Z" transform="translate(-5.651 -231.705)" fill="#ffc931"/>
  <rect id="Rectángulo_3919" data-name="Rectángulo 3919" width="30" height="23" transform="translate(12 106)" fill="#4bdddd"/>
  <g id="Grupo_14495" data-name="Grupo 14495" transform="translate(21.138 86.901)">
    <path id="Trazado_24388" data-name="Trazado 24388" d="M86.092,303.046a7.046,7.046,0,0,0-14.092,0v2.349H86.092Z" transform="translate(-72 -296)" fill="#b139d8"/>
    <path id="Trazado_24389" data-name="Trazado 24389" d="M320.368,344H268.7a4.7,4.7,0,0,0-4.7,4.7v28.184a4.7,4.7,0,0,0,4.7,4.7h51.671a4.7,4.7,0,0,0,4.7-4.7V348.7A4.7,4.7,0,0,0,320.368,344Zm-49.322,28.184h0Zm0-9.395h0Zm0-9.395h0Zm9.395,18.789h0Zm0-9.395h0Zm0-9.395h0Zm9.395,18.789h0Zm0-9.395h0Zm0-9.395h0Zm11.743,9.395h0Zm0-9.395h0Z" transform="translate(-207.632 -329.908)" fill="#b139d8"/>
  </g>
  <circle id="Elipse_993" data-name="Elipse 993" cx="5" cy="5" r="5" transform="translate(129 75)" fill="#ffc931"/>
  <g id="Grupo_14496" data-name="Grupo 14496">
    <path id="Trazado_24390" data-name="Trazado 24390" d="M11.743,46.973H24.715L21.9,54.019H16.441v4.7H49.322v-4.7H43.866l-2.818-7.046H54.019A11.757,11.757,0,0,0,65.763,35.23V11.743A11.757,11.757,0,0,0,54.019,0H11.743A11.757,11.757,0,0,0,0,11.743V35.23A11.757,11.757,0,0,0,11.743,46.973Zm27.064,7.046H26.956l2.818-7.046h6.215ZM54.019,42.276H11.743A7.055,7.055,0,0,1,4.7,35.23H61.065A7.055,7.055,0,0,1,54.019,42.276ZM11.743,4.7H54.019a7.055,7.055,0,0,1,7.046,7.046V30.533H4.7V11.743A7.055,7.055,0,0,1,11.743,4.7Z" fill="#2a0e54"/>
    <path id="Trazado_24391" data-name="Trazado 24391" d="M382.533,0H359.046A7.055,7.055,0,0,0,352,7.046V49.322a7.055,7.055,0,0,0,7.046,7.046h23.487a7.055,7.055,0,0,0,7.046-7.046V7.046A7.055,7.055,0,0,0,382.533,0ZM359.046,4.7h23.487a2.353,2.353,0,0,1,2.349,2.349V9.395H356.7V7.046A2.353,2.353,0,0,1,359.046,4.7Zm25.835,9.395V42.276H356.7V14.092Zm-2.349,37.579H359.046a2.353,2.353,0,0,1-2.349-2.349V46.973h28.184v2.349A2.353,2.353,0,0,1,382.533,51.671Z" transform="translate(-248.659)" fill="#2a0e54"/>
    <path id="Trazado_24392" data-name="Trazado 24392" d="M7.046,295.162H58.717a7.055,7.055,0,0,0,7.046-7.046V255.234a7.055,7.055,0,0,0-7.046-7.046H37.579a9.365,9.365,0,0,0-4.913-8.206l18.317-18.317-3.321-3.321L28.184,237.821l-7.734-7.734-3.321,3.321,6.574,6.574a9.365,9.365,0,0,0-4.913,8.206H7.046A7.055,7.055,0,0,0,0,255.234v32.881A7.055,7.055,0,0,0,7.046,295.162Zm21.138-51.671a4.7,4.7,0,0,1,4.7,4.7H23.487A4.7,4.7,0,0,1,28.184,243.491ZM4.7,255.234a2.353,2.353,0,0,1,2.349-2.349H58.717a2.353,2.353,0,0,1,2.349,2.349v32.881a2.353,2.353,0,0,1-2.349,2.349H7.046A2.353,2.353,0,0,1,4.7,288.116Z" transform="translate(0 -154.242)" fill="#2a0e54"/>
    <path id="Trazado_24393" data-name="Trazado 24393" d="M34.349,380.184H64.881a2.35,2.35,0,0,0,2.349-2.349V354.349A2.35,2.35,0,0,0,64.881,352H34.349A2.35,2.35,0,0,0,32,354.349v23.487A2.35,2.35,0,0,0,34.349,380.184ZM36.7,356.7H62.533v18.789H36.7Z" transform="translate(-22.605 -248.659)" fill="#2a0e54"/>
    <rect id="Rectángulo_3920" data-name="Rectángulo 3920" width="4" height="5" transform="translate(52 103)" fill="#2a0e54"/>
    <rect id="Rectángulo_3921" data-name="Rectángulo 3921" width="7" height="5" transform="translate(49 117)" fill="#2a0e54"/>
    <rect id="Rectángulo_3922" data-name="Rectángulo 3922" width="7" height="5" transform="translate(49 127)" fill="#2a0e54"/>
    <rect id="Rectángulo_3923" data-name="Rectángulo 3923" width="17" height="5" transform="translate(115 108)" fill="#2a0e54"/>
    <rect id="Rectángulo_3924" data-name="Rectángulo 3924" width="17" height="5" transform="translate(115 117)" fill="#2a0e54"/>
    <rect id="Rectángulo_3925" data-name="Rectángulo 3925" width="4" height="5" transform="translate(85 108)" fill="#2a0e54"/>
    <rect id="Rectángulo_3926" data-name="Rectángulo 3926" width="5" height="5" transform="translate(94 108)" fill="#2a0e54"/>
    <rect id="Rectángulo_3927" data-name="Rectángulo 3927" width="5" height="5" transform="translate(103 108)" fill="#2a0e54"/>
    <rect id="Rectángulo_3928" data-name="Rectángulo 3928" width="4" height="5" transform="translate(85 117)" fill="#2a0e54"/>
    <rect id="Rectángulo_3929" data-name="Rectángulo 3929" width="5" height="5" transform="translate(94 117)" fill="#2a0e54"/>
    <rect id="Rectángulo_3930" data-name="Rectángulo 3930" width="5" height="5" transform="translate(103 117)" fill="#2a0e54"/>
    <rect id="Rectángulo_3931" data-name="Rectángulo 3931" width="4" height="5" transform="translate(85 127)" fill="#2a0e54"/>
    <rect id="Rectángulo_3932" data-name="Rectángulo 3932" width="5" height="5" transform="translate(94 127)" fill="#2a0e54"/>
    <rect id="Rectángulo_3933" data-name="Rectángulo 3933" width="5" height="5" transform="translate(103 127)" fill="#2a0e54"/>
    <path id="Trazado_24394" data-name="Trazado 24394" d="M314.717,262.092a7.046,7.046,0,1,0-7.046-7.046,6.7,6.7,0,0,0,.078.756l-42.83,18.033h-1.872A7.055,7.055,0,0,0,256,280.881v28.184a7.055,7.055,0,0,0,7.046,7.046h51.671a7.055,7.055,0,0,0,7.046-7.046V280.881a7.055,7.055,0,0,0-7.046-7.046H277.028l32.74-13.784A7.02,7.02,0,0,0,314.717,262.092Zm2.349,18.789v28.184a2.353,2.353,0,0,1-2.349,2.349H263.046a2.353,2.353,0,0,1-2.349-2.349V280.881a2.353,2.353,0,0,1,2.349-2.349h51.671A2.353,2.353,0,0,1,317.065,280.881ZM314.717,252.7a2.349,2.349,0,1,1-2.349,2.349A2.353,2.353,0,0,1,314.717,252.7Z" transform="translate(-180.843 -175.191)" fill="#2a0e54"/>
    <path id="Trazado_24395" data-name="Trazado 24395" d="M255.081,228.827a16.429,16.429,0,0,0-23.249,0l3.321,3.321a11.734,11.734,0,0,1,16.607,0Z" transform="translate(-163.77 -158.243)" fill="#2a0e54"/>
    <path id="Trazado_24396" data-name="Trazado 24396" d="M245.744,199.611a25.861,25.861,0,0,0-36.536,0l3.321,3.321a21.165,21.165,0,0,1,29.894,0Z" transform="translate(-147.788 -135.671)" fill="#2a0e54"/>
    <path id="Trazado_24397" data-name="Trazado 24397" d="M254.464,258.089l3.321,3.321a2.353,2.353,0,0,1,3.323,0l3.321-3.321A7.054,7.054,0,0,0,254.464,258.089Z" transform="translate(-179.758 -180.863)" fill="#2a0e54"/>
    <rect id="Rectángulo_3934" data-name="Rectángulo 3934" width="16.605" height="4.697" transform="translate(19.475 21.825) rotate(-45)" fill="#2a0e54"/>
    <rect id="Rectángulo_3935" data-name="Rectángulo 3935" width="16.605" height="4.697" transform="translate(35.918 21.826) rotate(-45)" fill="#2a0e54"/>
    <rect id="Rectángulo_3936" data-name="Rectángulo 3936" width="5" height="10" transform="translate(129 28)" fill="#2a0e54"/>
    <rect id="Rectángulo_3937" data-name="Rectángulo 3937" width="5" height="4" transform="translate(129 19)" fill="#2a0e54"/>
  </g>
</svg>
