<svg xmlns="http://www.w3.org/2000/svg" width="972.252" height="969.485" viewBox="0 0 972.252 969.485">
  <g id="Grupo_16266" data-name="Grupo 16266" transform="translate(-214 -1081)">
    <g id="Grupo_14444" data-name="Grupo 14444" transform="translate(361.711 1247.589)">
      <g id="Background_Complete" data-name="Background Complete" transform="translate(84.119 112.445)">
        <g id="Grupo_14355" data-name="Grupo 14355">
          <g id="Grupo_14349" data-name="Grupo 14349" transform="translate(378.353 116.015)">
            <path id="Trazado_23990" data-name="Trazado 23990" d="M388.445,346.478a1.007,1.007,0,0,1-.338-.724c-.235-5.108-3.307-55.22-34-89.55-25.964-29.044.667-8.319,12.222,1.022a1.069,1.069,0,0,0,1.595-1.372c-8.144-13.772-28.583-50.17-21.5-57.254,6.7-6.7,20.534,26.546,26.71,42.667a1.069,1.069,0,0,0,2.063-.492c-1.78-17.066-4.372-52.757,5.242-51.5,9.521,1.243,6.861,48.4,4.981,71.473a1.069,1.069,0,0,0,2.09.4c4.295-14.2,12.47-35.183,22.067-29.625,14.2,8.23-20.907,37.125-18.713,68.488C393.019,330.739,393.588,350.908,388.445,346.478Z" transform="translate(-343.11 -177.669)" fill="#f5f5f5"/>
            <g id="Grupo_14348" data-name="Grupo 14348" transform="translate(60.559)">
              <path id="Trazado_23991" data-name="Trazado 23991" d="M389.294,354.472c.106-.013.242-.471.187-.821-6.7-42.468,38.272-73.347,69.856-88.633,7.025-3.4,14.324-6.921,20.325-12.137-11.709.779-23.393,5.685-34.61,9.445-1.478.5-2.256-1.038-.982-1.923,14.324-9.951,54.218-46.548,42.726-57.2-5.2-4.816-33.833,33.377-40.576,40.226-1.086,1.1-2.829.121-2.063-1.16,8.891-14.879,11.826-61.807,2.829-61.235-3.82.242-5.261,22.234-7.262,31.175-3.751,16.756-10.783,32.5-18.133,47.907-.648,1.36-2.912,1.129-2.574-.23,2.555-10.258,3.5-40.346-9.119-38.176-9.156,1.574-7.689,19.284-7.776,28.779-.154,16.849-1.561,34.117-8.812,49.127C388.371,309.84,382.215,355.319,389.294,354.472Z" transform="translate(-386.09 -181.027)" fill="#f5f5f5"/>
            </g>
            <path id="Trazado_23992" data-name="Trazado 23992" d="M385.914,338.1a.673.673,0,0,0,.227-.486c.159-3.428,2.221-37.067,22.822-60.112,17.428-19.5-.448-5.584-8.2.686a.718.718,0,0,1-1.071-.922c5.467-9.245,19.187-33.677,14.431-38.433-4.5-4.5-13.784,17.82-17.93,28.641a.718.718,0,0,1-1.385-.331c1.195-11.455,2.935-35.413-3.518-34.57-6.391.833-4.6,32.486-3.344,47.976a.717.717,0,0,1-1.4.266c-2.883-9.532-8.371-23.618-14.813-19.885-9.535,5.523,14.035,24.92,12.561,45.972C382.845,327.539,382.462,341.077,385.914,338.1Z" transform="translate(-332.337 -159.951)" fill="#e6e6e6"/>
            <path id="Trazado_23993" data-name="Trazado 23993" d="M415.474,406.221c10.609-39.554,17.6-95.261,17.6-108.982H353.943c0,13.721,6.986,69.428,17.6,108.982a16.638,16.638,0,0,0,16.084,12.306H399.39A16.64,16.64,0,0,0,415.474,406.221Z" transform="translate(-338.679 -133.494)" fill="#e6e6e6"/>
            <path id="Trazado_23994" data-name="Trazado 23994" d="M430.543,319.611c.589-4.81,1.068-9.2,1.434-13.045H354.543c.368,3.848.847,8.234,1.436,13.045Z" transform="translate(-338.434 -129.679)" fill="#f5f5f5"/>
          </g>
          <g id="Grupo_14350" data-name="Grupo 14350" transform="translate(6.837 129.845)">
            <rect id="Rectángulo_3846" data-name="Rectángulo 3846" width="67.286" height="67.286" fill="#f5f5f5"/>
            <rect id="Rectángulo_3847" data-name="Rectángulo 3847" width="54.298" height="54.298" rx="4.604" transform="translate(6.494 6.494)" fill="#ebebeb"/>
            <path id="Trazado_23995" data-name="Trazado 23995" d="M95.367,195.452a4.1,4.1,0,0,0,4,3.244h14.416a4.1,4.1,0,0,0,4-3.244Z" transform="translate(-72.927 -188.957)" fill="#e0e0e0"/>
            <rect id="Rectángulo_3848" data-name="Rectángulo 3848" width="67.286" height="67.286" transform="translate(0 67.286)" fill="#f0f0f0"/>
            <rect id="Rectángulo_3849" data-name="Rectángulo 3849" width="54.298" height="54.298" rx="4.604" transform="translate(6.494 73.781)" fill="#fafafa"/>
            <path id="Trazado_23996" data-name="Trazado 23996" d="M95.367,243.206a4.1,4.1,0,0,0,4,3.244h14.416a4.1,4.1,0,0,0,4-3.244Z" transform="translate(-72.927 -169.425)" fill="#e0e0e0"/>
            <rect id="Rectángulo_3850" data-name="Rectángulo 3850" width="67.286" height="67.286" transform="translate(0 134.573)" fill="#f5f5f5"/>
            <rect id="Rectángulo_3851" data-name="Rectángulo 3851" width="54.298" height="54.298" rx="4.604" transform="translate(6.494 141.067)" fill="#ebebeb"/>
            <path id="Trazado_23997" data-name="Trazado 23997" d="M95.367,290.96a4.1,4.1,0,0,0,4,3.244h14.416a4.1,4.1,0,0,0,4-3.244Z" transform="translate(-72.927 -149.892)" fill="#e0e0e0"/>
            <rect id="Rectángulo_3852" data-name="Rectángulo 3852" width="67.286" height="67.286" transform="translate(0 201.859)" fill="#f0f0f0"/>
            <rect id="Rectángulo_3853" data-name="Rectángulo 3853" width="54.298" height="54.298" rx="4.604" transform="translate(6.494 208.354)" fill="#fafafa"/>
            <path id="Trazado_23998" data-name="Trazado 23998" d="M95.367,338.714a4.1,4.1,0,0,0,4,3.244h14.416a4.1,4.1,0,0,0,4-3.244Z" transform="translate(-72.927 -130.36)" fill="#e0e0e0"/>
            <rect id="Rectángulo_3854" data-name="Rectángulo 3854" width="8.243" height="269.146" transform="translate(67.286)" fill="#e6e6e6"/>
          </g>
          <g id="Grupo_14354" data-name="Grupo 14354">
            <g id="Grupo_14351" data-name="Grupo 14351" transform="translate(0 8.925)">
              <rect id="Rectángulo_3855" data-name="Rectángulo 3855" width="52.946" height="52.946" fill="#f0f0f0"/>
              <rect id="Rectángulo_3856" data-name="Rectángulo 3856" width="2.504" height="52.946" transform="translate(55.449 52.946) rotate(180)" fill="#e6e6e6"/>
              <rect id="Rectángulo_3857" data-name="Rectángulo 3857" width="43.363" height="43.363" transform="translate(4.792 4.792)" fill="#e6e6e6"/>
              <rect id="Rectángulo_3858" data-name="Rectángulo 3858" width="34.837" height="34.837" transform="translate(9.055 9.055)" fill="#fafafa"/>
            </g>
            <g id="Grupo_14352" data-name="Grupo 14352" transform="translate(64.893 41.317)">
              <rect id="Rectángulo_3859" data-name="Rectángulo 3859" width="33.821" height="56.109" fill="#f0f0f0"/>
              <rect id="Rectángulo_3860" data-name="Rectángulo 3860" width="1.599" height="56.109" transform="translate(35.42 56.109) rotate(180)" fill="#e6e6e6"/>
              <rect id="Rectángulo_3861" data-name="Rectángulo 3861" width="27.699" height="45.953" transform="translate(3.061 5.078)" fill="#fafafa"/>
              <rect id="Rectángulo_3862" data-name="Rectángulo 3862" width="22.253" height="36.918" transform="translate(5.784 9.595)" fill="#f5f5f5"/>
            </g>
            <g id="Grupo_14353" data-name="Grupo 14353" transform="translate(67.566)">
              <ellipse id="Elipse_925" data-name="Elipse 925" cx="23.746" cy="15.791" rx="23.746" ry="15.791" transform="translate(1.62)" fill="#e0e0e0"/>
              <ellipse id="Elipse_926" data-name="Elipse 926" cx="23.746" cy="15.791" rx="23.746" ry="15.791" fill="#ebebeb"/>
              <ellipse id="Elipse_927" data-name="Elipse 927" cx="18.563" cy="12.344" rx="18.563" ry="12.344" transform="translate(5.183 3.447)" fill="#fafafa"/>
            </g>
          </g>
        </g>
      </g>
      <g id="Shadow" transform="translate(51.289 538.501)">
        <ellipse id="_Path_" data-name="&lt;Path&gt;" cx="273.194" cy="15.955" rx="273.194" ry="15.955" fill="#f5f5f5"/>
      </g>
      <g id="Mind_map" data-name="Mind map" transform="translate(193.568 65.063)">
        <g id="Grupo_14393" data-name="Grupo 14393" transform="translate(0 0)">
          <g id="Grupo_14356" data-name="Grupo 14356" transform="translate(34.869 55.73)">
            <path id="Trazado_23999" data-name="Trazado 23999" d="M177.526,106.589l102.5,59.179a1.057,1.057,0,0,0,1.067-1.825l-102.5-59.179a1.057,1.057,0,0,0-1.067,1.825Z" transform="translate(-177.013 -104.615)" fill="#263238"/>
          </g>
          <g id="Grupo_14357" data-name="Grupo 14357" transform="translate(199.412 48.541)">
            <path id="Trazado_24000" data-name="Trazado 24000" d="M361.275,100.026q-29.418,50.953-58.838,101.909l-8.5,14.719a1.057,1.057,0,0,0,1.825,1.067q29.418-50.955,58.838-101.909l8.5-14.719a1.057,1.057,0,0,0-1.825-1.067Z" transform="translate(-293.791 -99.513)" fill="#263238"/>
          </g>
          <g id="Grupo_14358" data-name="Grupo 14358" transform="translate(199.412 48.541)">
            <path id="Trazado_24001" data-name="Trazado 24001" d="M293.941,101.093q12.161,21.066,24.325,42.133a1.057,1.057,0,0,0,1.825-1.067q-12.163-21.066-24.325-42.133a1.057,1.057,0,0,0-1.825,1.067Z" transform="translate(-293.791 -99.513)" fill="#263238"/>
          </g>
          <g id="Grupo_14359" data-name="Grupo 14359" transform="translate(86.109 116.859)">
            <path id="Trazado_24002" data-name="Trazado 24002" d="M213.378,149.019V290.374a1.057,1.057,0,0,0,2.114,0V149.019a1.057,1.057,0,0,0-2.114,0Z" transform="translate(-213.378 -147.999)" fill="#263238"/>
          </g>
          <g id="Grupo_14360" data-name="Grupo 14360" transform="translate(86.109 26.181)">
            <path id="Trazado_24003" data-name="Trazado 24003" d="M213.378,84.664v59.857a1.057,1.057,0,0,0,2.114,0V84.664a1.057,1.057,0,0,0-2.114,0Z" transform="translate(-213.378 -83.644)" fill="#263238"/>
          </g>
          <g id="Grupo_14361" data-name="Grupo 14361" transform="translate(30.668 162.126)">
            <path id="Trazado_24004" data-name="Trazado 24004" d="M174.544,182.1l42.66,24.63a1.057,1.057,0,0,0,1.067-1.825l-42.66-24.631a1.058,1.058,0,0,0-1.067,1.826Z" transform="translate(-174.031 -180.125)" fill="#263238"/>
          </g>
          <g id="Grupo_14362" data-name="Grupo 14362" transform="translate(30.668 201.526)">
            <path id="Trazado_24005" data-name="Trazado 24005" d="M175.61,234.693l42.66-24.63a1.058,1.058,0,0,0-1.067-1.826l-42.66,24.631a1.057,1.057,0,0,0,1.067,1.825Z" transform="translate(-174.031 -208.088)" fill="#263238"/>
          </g>
          <g id="Grupo_14363" data-name="Grupo 14363" transform="translate(109.746 194.458)">
            <path id="Trazado_24006" data-name="Trazado 24006" d="M231.174,205.186H373.093a1.057,1.057,0,0,0,0-2.114H231.174a1.057,1.057,0,0,0,0,2.114Z" transform="translate(-230.154 -203.072)" fill="#263238"/>
          </g>
          <g id="Grupo_14364" data-name="Grupo 14364" transform="translate(282.077 213.882)">
            <path id="Trazado_24007" data-name="Trazado 24007" d="M352.459,217.879v37.054a1.057,1.057,0,0,0,2.114,0V217.879a1.057,1.057,0,0,0-2.114,0Z" transform="translate(-352.459 -216.857)" fill="#263238"/>
          </g>
          <g id="Grupo_14365" data-name="Grupo 14365" transform="translate(304.235 194.458)">
            <path id="Trazado_24008" data-name="Trazado 24008" d="M369.205,205.186H396.76a1.057,1.057,0,0,0,0-2.114H369.205a1.057,1.057,0,0,0,0,2.114Z" transform="translate(-368.184 -203.072)" fill="#263238"/>
          </g>
          <g id="Grupo_14366" data-name="Grupo 14366" transform="translate(290.71 126.492)">
            <path id="Trazado_24009" data-name="Trazado 24009" d="M389.344,155.348l-30.608,53.014a1.058,1.058,0,0,0,1.826,1.067q15.3-26.508,30.607-53.015a1.057,1.057,0,0,0-1.825-1.067Z" transform="translate(-358.586 -154.835)" fill="#263238"/>
          </g>
          <g id="Grupo_14367" data-name="Grupo 14367" transform="translate(109.717 188.031)">
            <path id="Trazado_24010" data-name="Trazado 24010" d="M238.358,211.674l-6.427-6.427v1.494l6.427-6.425a1.058,1.058,0,0,0-1.495-1.495l-6.427,6.427a1.071,1.071,0,0,0,0,1.494l6.427,6.428a1.058,1.058,0,0,0,1.495-1.495Z" transform="translate(-230.133 -198.51)" fill="#263238"/>
          </g>
          <g id="Grupo_14368" data-name="Grupo 14368" transform="translate(245.2 188.031)">
            <path id="Trazado_24011" data-name="Trazado 24011" d="M326.6,200.316l6.427,6.425v-1.494q-3.215,3.213-6.427,6.427a1.057,1.057,0,0,0,1.494,1.495l6.427-6.428a1.071,1.071,0,0,0,0-1.494l-6.427-6.427a1.057,1.057,0,0,0-1.494,1.495Z" transform="translate(-326.287 -198.51)" fill="#263238"/>
          </g>
          <g id="Grupo_14369" data-name="Grupo 14369" transform="translate(210.693 130.508)">
            <path id="Trazado_24012" data-name="Trazado 24012" d="M303.107,162.112l8.778-2.353-1.3-.738q1.175,4.39,2.352,8.78a1.057,1.057,0,0,0,2.037-.562q-1.175-4.39-2.352-8.778a1.071,1.071,0,0,0-1.3-.738l-8.78,2.352a1.058,1.058,0,0,0,.562,2.039Z" transform="translate(-301.797 -157.686)" fill="#263238"/>
          </g>
          <g id="Grupo_14373" data-name="Grupo 14373" transform="translate(135.269 147.688)">
            <g id="Grupo_14370" data-name="Grupo 14370" transform="translate(0.625 0.625)">
              <circle id="Elipse_928" data-name="Elipse 928" cx="47.202" cy="47.202" r="47.202" fill="#407bff"/>
              <circle id="Elipse_929" data-name="Elipse 929" cx="47.202" cy="47.202" r="47.202" fill="#fff" opacity="0.7"/>
            </g>
            <g id="Grupo_14371" data-name="Grupo 14371" transform="translate(0 0)">
              <circle id="Elipse_930" data-name="Elipse 930" cx="39.757" cy="39.757" r="39.757" transform="translate(0 77.386) rotate(-76.717)" fill="#407bff"/>
              <circle id="Elipse_931" data-name="Elipse 931" cx="39.757" cy="39.757" r="39.757" transform="translate(0 77.386) rotate(-76.717)" fill="#fff" opacity="0.8"/>
            </g>
            <g id="Grupo_14372" data-name="Grupo 14372" transform="translate(17.902 17.902)">
              <circle id="Elipse_932" data-name="Elipse 932" cx="29.925" cy="29.925" r="29.925" fill="#fff" opacity="0.9"/>
            </g>
          </g>
          <g id="Grupo_14374" data-name="Grupo 14374" transform="translate(166.655 16.677)">
            <circle id="Elipse_933" data-name="Elipse 933" cx="25.884" cy="25.884" r="25.884" transform="translate(0 47.827) rotate(-67.5)" fill="#407bff"/>
            <circle id="Elipse_934" data-name="Elipse 934" cx="25.884" cy="25.884" r="25.884" transform="translate(0 47.827) rotate(-67.5)" fill="#fff" opacity="0.7"/>
          </g>
          <g id="Grupo_14375" data-name="Grupo 14375" transform="translate(201.057 75.596)">
            <circle id="Elipse_935" data-name="Elipse 935" cx="26.854" cy="26.854" r="26.854" transform="matrix(0.973, -0.23, 0.23, 0.973, 0, 12.339)" fill="#407bff"/>
            <circle id="Elipse_936" data-name="Elipse 936" cx="26.854" cy="26.854" r="26.854" transform="matrix(0.973, -0.23, 0.23, 0.973, 0, 12.339)" fill="#fff" opacity="0.7"/>
          </g>
          <g id="Grupo_14376" data-name="Grupo 14376" transform="translate(63.564 171.914)">
            <circle id="Elipse_937" data-name="Elipse 937" cx="23.601" cy="23.601" r="23.601" fill="#407bff"/>
            <circle id="Elipse_938" data-name="Elipse 938" cx="23.601" cy="23.601" r="23.601" fill="#fff" opacity="0.7"/>
          </g>
          <g id="Grupo_14377" data-name="Grupo 14377" transform="translate(56.344 56.236)">
            <circle id="Elipse_939" data-name="Elipse 939" cx="30.822" cy="30.822" r="30.822" fill="#407bff"/>
            <circle id="Elipse_940" data-name="Elipse 940" cx="30.822" cy="30.822" r="30.822" fill="#fff" opacity="0.7"/>
          </g>
          <g id="Grupo_14378" data-name="Grupo 14378" transform="translate(261.011 239.89)">
            <circle id="Elipse_941" data-name="Elipse 941" cx="22.122" cy="22.122" r="22.122" fill="#407bff"/>
            <circle id="Elipse_942" data-name="Elipse 942" cx="22.122" cy="22.122" r="22.122" fill="#fff" opacity="0.7"/>
          </g>
          <g id="Grupo_14379" data-name="Grupo 14379" transform="translate(325.883 176.127)">
            <circle id="Elipse_943" data-name="Elipse 943" cx="19.388" cy="19.388" r="19.388" fill="#407bff"/>
            <circle id="Elipse_944" data-name="Elipse 944" cx="19.388" cy="19.388" r="19.388" fill="#fff" opacity="0.7"/>
          </g>
          <g id="Grupo_14380" data-name="Grupo 14380" transform="translate(285.732 91.743)">
            <circle id="Elipse_945" data-name="Elipse 945" cx="29.755" cy="29.755" r="29.755" transform="translate(0 13.673) rotate(-13.283)" fill="#407bff"/>
            <circle id="Elipse_946" data-name="Elipse 946" cx="29.755" cy="29.755" r="29.755" transform="translate(0 13.673) rotate(-13.283)" fill="#fff" opacity="0.7"/>
          </g>
          <g id="Grupo_14381" data-name="Grupo 14381" transform="translate(59.964)">
            <circle id="Elipse_947" data-name="Elipse 947" cx="19.235" cy="19.235" r="19.235" transform="translate(0 27.202) rotate(-45)" fill="#407bff"/>
            <circle id="Elipse_948" data-name="Elipse 948" cx="19.235" cy="19.235" r="19.235" transform="translate(0 27.202) rotate(-45)" fill="#fff" opacity="0.7"/>
          </g>
          <g id="Grupo_14382" data-name="Grupo 14382" transform="translate(63.564 235.594)">
            <circle id="Elipse_949" data-name="Elipse 949" cx="23.601" cy="23.601" r="23.601" fill="#407bff"/>
            <circle id="Elipse_950" data-name="Elipse 950" cx="23.601" cy="23.601" r="23.601" fill="#fff" opacity="0.7"/>
          </g>
          <g id="Grupo_14383" data-name="Grupo 14383" transform="translate(7.084 202.588)">
            <circle id="Elipse_951" data-name="Elipse 951" cx="24.63" cy="24.63" r="24.63" fill="#407bff"/>
            <circle id="Elipse_952" data-name="Elipse 952" cx="24.63" cy="24.63" r="24.63" fill="#fff" opacity="0.7"/>
          </g>
          <g id="Grupo_14384" data-name="Grupo 14384" transform="translate(0 131.474)">
            <circle id="Elipse_953" data-name="Elipse 953" cx="27.643" cy="27.643" r="27.643" transform="translate(0 8.856) rotate(-9.217)" fill="#407bff"/>
            <circle id="Elipse_954" data-name="Elipse 954" cx="27.643" cy="27.643" r="27.643" transform="translate(0 8.856) rotate(-9.217)" fill="#fff" opacity="0.7"/>
          </g>
          <g id="Grupo_14385" data-name="Grupo 14385" transform="translate(13.887 34.763)">
            <circle id="Elipse_955" data-name="Elipse 955" cx="19.2" cy="19.2" r="19.2" transform="translate(0 6.151) rotate(-9.217)" fill="#407bff"/>
            <circle id="Elipse_956" data-name="Elipse 956" cx="19.2" cy="19.2" r="19.2" transform="translate(0 6.151) rotate(-9.217)" fill="#fff" opacity="0.7"/>
          </g>
          <g id="Grupo_14386" data-name="Grupo 14386" transform="translate(116.388 93.942)">
            <circle id="Elipse_957" data-name="Elipse 957" cx="19.2" cy="19.2" r="19.2" transform="translate(0 6.151) rotate(-9.217)" fill="#407bff"/>
            <circle id="Elipse_958" data-name="Elipse 958" cx="19.2" cy="19.2" r="19.2" transform="translate(0 6.151) rotate(-9.217)" fill="#fff" opacity="0.7"/>
          </g>
          <g id="Grupo_14387" data-name="Grupo 14387" transform="translate(240.142 21.92)">
            <circle id="Elipse_959" data-name="Elipse 959" cx="27.667" cy="27.667" r="27.667" fill="#407bff"/>
            <circle id="Elipse_960" data-name="Elipse 960" cx="27.667" cy="27.667" r="27.667" fill="#fff" opacity="0.7"/>
          </g>
          <g id="Grupo_14388" data-name="Grupo 14388" transform="translate(252.685 165.067)">
            <circle id="Elipse_961" data-name="Elipse 961" cx="30.449" cy="30.449" r="30.449" fill="#407bff"/>
            <circle id="Elipse_962" data-name="Elipse 962" cx="30.449" cy="30.449" r="30.449" fill="#fff" opacity="0.7"/>
          </g>
          <circle id="Elipse_963" data-name="Elipse 963" cx="26.814" cy="26.814" r="26.814" transform="translate(60.351 60.243)" fill="#407bff"/>
          <circle id="Elipse_964" data-name="Elipse 964" cx="21.33" cy="21.33" r="21.33" transform="translate(10.384 141.858)" fill="#407bff"/>
          <circle id="Elipse_965" data-name="Elipse 965" cx="20.292" cy="20.292" r="20.292" transform="translate(5.201 216.236) rotate(-22.5)" fill="#407bff"/>
          <circle id="Elipse_966" data-name="Elipse 966" cx="17.693" cy="17.693" r="17.693" transform="translate(62.143 195.507) rotate(-45)" fill="#407bff"/>
          <circle id="Elipse_967" data-name="Elipse 967" cx="18.912" cy="18.912" r="18.912" transform="translate(60.421 259.234) rotate(-45)" fill="#407bff"/>
          <circle id="Elipse_968" data-name="Elipse 968" cx="12.046" cy="12.046" r="12.046" transform="translate(22.095 66.752) rotate(-80.783)" fill="#407bff"/>
          <circle id="Elipse_969" data-name="Elipse 969" cx="16.196" cy="16.196" r="16.196" transform="matrix(0.23, -0.973, 0.973, 0.23, 67.682, 39.243)" fill="#407bff"/>
          <circle id="Elipse_970" data-name="Elipse 970" cx="13.541" cy="13.541" r="13.541" transform="translate(124.875 102.429)" fill="#407bff"/>
          <circle id="Elipse_971" data-name="Elipse 971" cx="20.158" cy="20.158" r="20.158" transform="translate(180.316 30.339)" fill="#407bff"/>
          <circle id="Elipse_972" data-name="Elipse 972" cx="24.134" cy="24.134" r="24.134" transform="translate(243.675 25.453)" fill="#407bff"/>
          <circle id="Elipse_973" data-name="Elipse 973" cx="23.601" cy="23.601" r="23.601" transform="translate(259.532 171.914)" fill="#407bff"/>
          <circle id="Elipse_974" data-name="Elipse 974" cx="21.611" cy="21.611" r="21.611" transform="translate(211.752 86.291)" fill="#407bff"/>
          <circle id="Elipse_975" data-name="Elipse 975" cx="25.853" cy="25.853" r="25.853" transform="translate(284.966 127.538) rotate(-45)" fill="#407bff"/>
          <circle id="Elipse_976" data-name="Elipse 976" cx="14.031" cy="14.031" r="14.031" transform="translate(269.103 247.982)" fill="#407bff"/>
          <circle id="Elipse_977" data-name="Elipse 977" cx="26.814" cy="26.814" r="26.814" transform="translate(60.351 60.243)" fill="#fff" opacity="0.5"/>
          <circle id="Elipse_978" data-name="Elipse 978" cx="21.33" cy="21.33" r="21.33" transform="translate(10.384 141.858)" fill="#fff" opacity="0.4"/>
          <circle id="Elipse_979" data-name="Elipse 979" cx="20.292" cy="20.292" r="20.292" transform="translate(5.201 216.236) rotate(-22.5)" fill="#fff" opacity="0.9"/>
          <circle id="Elipse_980" data-name="Elipse 980" cx="18.912" cy="18.912" r="18.912" transform="translate(60.421 259.234) rotate(-45)" fill="#fff" opacity="0.4"/>
          <circle id="Elipse_981" data-name="Elipse 981" cx="16.196" cy="16.196" r="16.196" transform="matrix(0.23, -0.973, 0.973, 0.23, 67.682, 39.243)" fill="#fff" opacity="0.2"/>
          <circle id="Elipse_982" data-name="Elipse 982" cx="13.541" cy="13.541" r="13.541" transform="translate(124.875 102.429)" fill="#fff" opacity="0.2"/>
          <circle id="Elipse_983" data-name="Elipse 983" cx="20.158" cy="20.158" r="20.158" transform="translate(180.316 30.339)" fill="#fff" opacity="0.9"/>
          <circle id="Elipse_984" data-name="Elipse 984" cx="24.134" cy="24.134" r="24.134" transform="translate(243.675 25.453)" fill="#fff" opacity="0.2"/>
          <circle id="Elipse_985" data-name="Elipse 985" cx="23.601" cy="23.601" r="23.601" transform="translate(259.532 171.914)" fill="#fff" opacity="0.4"/>
          <circle id="Elipse_986" data-name="Elipse 986" cx="25.853" cy="25.853" r="25.853" transform="translate(284.966 127.538) rotate(-45)" fill="#fff" opacity="0.2"/>
          <circle id="Elipse_987" data-name="Elipse 987" cx="14.031" cy="14.031" r="14.031" transform="translate(269.103 247.982)" fill="#fff" opacity="0.2"/>
          <circle id="Elipse_988" data-name="Elipse 988" cx="13.905" cy="13.905" r="13.905" transform="translate(331.366 181.611)" fill="#407bff" opacity="0.8"/>
          <path id="Trazado_24013" data-name="Trazado 24013" d="M218.813,114.851l3.418,3.384,4.652-1.222,1.268,4.639,4.639,1.268-1.222,4.652,3.384,3.417-3.384,3.418,1.222,4.652-4.639,1.268-1.268,4.639-4.652-1.222-3.418,3.384-3.417-3.384-4.652,1.222-1.268-4.639-4.64-1.268,1.222-4.652-3.384-3.418,3.384-3.417-1.222-4.652,4.64-1.268,1.268-4.639,4.652,1.222Z" transform="translate(-131.647 -44.698)" fill="#407bff"/>
          <path id="Trazado_24014" data-name="Trazado 24014" d="M216.887,197.395l3.4,4.408,5.243,1.87-3.142,4.595-.158,5.564-5.341-1.569-5.341,1.569-.158-5.564-3.142-4.595,5.243-1.87Z" transform="translate(-129.369 -10.936)" fill="#fff"/>
          <path id="Trazado_24015" data-name="Trazado 24015" d="M179.305,101.369l2.1,2.724,3.24,1.156-1.942,2.84-.1,3.439-3.3-.97-3.3.97-.1-3.439-1.942-2.84,3.24-1.156Z" transform="translate(-143.39 -50.212)" fill="#fff"/>
          <path id="Trazado_24016" data-name="Trazado 24016" d="M316.583,133.235l6.849,8.987L307.6,140.084Z" transform="translate(-88.732 -37.179)" fill="#fff"/>
          <rect id="Rectángulo_3863" data-name="Rectángulo 3863" width="10.451" height="10.451" transform="translate(225.234 110.901) rotate(7.69)" fill="#fff"/>
          <path id="Trazado_24017" data-name="Trazado 24017" d="M333.283,143.4a5.4,5.4,0,1,1-4.631-6.077A5.4,5.4,0,0,1,333.283,143.4Z" transform="translate(-82.625 -35.528)" fill="#fff"/>
          <g id="Grupo_14389" data-name="Grupo 14389" transform="translate(248.47 30.834)">
            <path id="Trazado_24018" data-name="Trazado 24018" d="M338.04,99.539l7.116,5.284-12.4,1.831Z" transform="translate(-326.91 -81.794)" fill="#fff"/>
            <rect id="Rectángulo_3864" data-name="Rectángulo 3864" width="8.198" height="8.198" transform="matrix(0.989, -0.146, 0.146, 0.989, 12.385, 29.502)" fill="#fff"/>
            <rect id="Rectángulo_3865" data-name="Rectángulo 3865" width="5.978" height="5.978" transform="translate(0 12.46) rotate(-8.401)" fill="#fff"/>
            <rect id="Rectángulo_3866" data-name="Rectángulo 3866" width="5.978" height="5.978" transform="translate(31.991 12.861) rotate(-8.402)" fill="#fff"/>
            <path id="Trazado_24019" data-name="Trazado 24019" d="M352.976,103.389a4.238,4.238,0,1,1-4.812-3.573A4.24,4.24,0,0,1,352.976,103.389Z" transform="translate(-322.089 -81.7)" fill="#fff"/>
            <path id="Trazado_24020" data-name="Trazado 24020" d="M351.866,92.23l-5.284,7.116-1.831-12.4Z" transform="translate(-322.004 -86.946)" fill="#fff"/>
            <rect id="Rectángulo_3867" data-name="Rectángulo 3867" width="8.198" height="8.198" transform="matrix(0.146, 0.989, -0.989, 0.146, 17.621, 2.586)" fill="#fff"/>
          </g>
          <path id="Trazado_24021" data-name="Trazado 24021" d="M352.5,199.2l2.882,6.82,7.377.633-5.6,4.848,1.677,7.211-6.34-3.823-6.34,3.823,1.677-7.211-5.6-4.848,7.377-.633Z" transform="translate(-74.561 -10.197)" fill="#407bff"/>
          <path id="Trazado_24022" data-name="Trazado 24022" d="M360.133,191.386l1.817,4.3,4.65.4-3.527,3.057,1.057,4.546-4-2.41-4,2.41,1.057-4.546-3.528-3.057,4.65-.4Z" transform="translate(-69.888 -13.393)" fill="#407bff"/>
          <path id="Trazado_24023" data-name="Trazado 24023" d="M362.333,205.968l1.145,2.711,2.932.252-2.224,1.927.667,2.866-2.52-1.52-2.52,1.52.667-2.866-2.224-1.927,2.932-.252Z" transform="translate(-68.011 -7.429)" fill="#407bff"/>
          <g id="Grupo_14390" data-name="Grupo 14390" transform="translate(307.286 125.881)">
            <path id="Trazado_24024" data-name="Trazado 24024" d="M376.578,157.516a3.114,3.114,0,1,1-3.114-3.114A3.114,3.114,0,0,1,376.578,157.516Z" transform="translate(-370.35 -154.402)" fill="#fff"/>
            <path id="Trazado_24025" data-name="Trazado 24025" d="M383.524,157.516a3.114,3.114,0,1,1-3.114-3.114A3.113,3.113,0,0,1,383.524,157.516Z" transform="translate(-367.509 -154.402)" fill="#fff"/>
            <path id="Trazado_24026" data-name="Trazado 24026" d="M390.471,157.516a3.114,3.114,0,1,1-3.114-3.114A3.114,3.114,0,0,1,390.471,157.516Z" transform="translate(-364.667 -154.402)" fill="#fff"/>
          </g>
          <g id="Grupo_14391" data-name="Grupo 14391" transform="translate(18.812 224.192)">
            <path id="Trazado_24027" data-name="Trazado 24027" d="M171.845,227.288a3.114,3.114,0,1,1-3.114-3.114A3.114,3.114,0,0,1,171.845,227.288Z" transform="translate(-165.617 -224.174)" fill="#407bff"/>
            <circle id="Elipse_989" data-name="Elipse 989" cx="3.114" cy="3.114" r="3.114" transform="translate(9.788 0.001)" fill="#407bff"/>
            <path id="Trazado_24028" data-name="Trazado 24028" d="M185.738,227.288a3.114,3.114,0,1,1-3.114-3.114A3.114,3.114,0,0,1,185.738,227.288Z" transform="translate(-159.934 -224.174)" fill="#407bff"/>
          </g>
          <g id="Grupo_14392" data-name="Grupo 14392" transform="translate(186.51 47.382)">
            <circle id="Elipse_990" data-name="Elipse 990" cx="3.114" cy="3.114" r="3.114" transform="translate(0 0.001)" fill="#407bff"/>
            <circle id="Elipse_991" data-name="Elipse 991" cx="3.114" cy="3.114" r="3.114" transform="translate(9.788 0.001)" fill="#407bff"/>
            <path id="Trazado_24029" data-name="Trazado 24029" d="M304.755,101.8a3.114,3.114,0,1,1-3.114-3.114A3.114,3.114,0,0,1,304.755,101.8Z" transform="translate(-278.951 -98.69)" fill="#407bff"/>
          </g>
          <rect id="Rectángulo_3868" data-name="Rectángulo 3868" width="10.008" height="10.008" transform="matrix(0.91, 0.416, -0.416, 0.91, 342.629, 188.667)" fill="#fff"/>
          <rect id="Rectángulo_3869" data-name="Rectángulo 3869" width="10.008" height="10.008" transform="translate(141.357 109.533) rotate(69.551)" fill="#fff"/>
          <path id="Trazado_24030" data-name="Trazado 24030" d="M348.209,254.247l10.075-7.986,2.567,12.6Z" transform="translate(-72.12 9.052)" fill="#fff"/>
          <path id="Trazado_24031" data-name="Trazado 24031" d="M207.049,245.763l7.667-6.077,1.953,9.586Z" transform="translate(-129.858 6.362)" fill="#fff"/>
          <path id="Trazado_24032" data-name="Trazado 24032" d="M218.09,251.561l1.124-9.718,8.159,5.4Z" transform="translate(-125.342 7.244)" fill="#fff"/>
          <path id="Trazado_24033" data-name="Trazado 24033" d="M214.8,260.471l1.124-9.718,8.159,5.4Z" transform="translate(-126.689 10.889)" fill="#fff"/>
          <path id="Trazado_24034" data-name="Trazado 24034" d="M205.482,254.76l8.046-5.565,1.325,9.693Z" transform="translate(-130.499 10.252)" fill="#fff"/>
          <path id="Trazado_24035" data-name="Trazado 24035" d="M208.892,87.16l10.075-7.986,2.567,12.6Z" transform="translate(-129.104 -59.291)" fill="#fff"/>
          <path id="Trazado_24036" data-name="Trazado 24036" d="M176.624,184.148c-.533-.549-6.28-6.476-6.813-7.027a3.114,3.114,0,1,0-4.471,4.336l6.813,7.027a3.114,3.114,0,1,0,4.471-4.336Z" transform="translate(-147.277 -19.615)" fill="#407bff"/>
          <path id="Trazado_24037" data-name="Trazado 24037" d="M182.943,173.152l-7.879.292a2.508,2.508,0,1,0,.186,5.013l7.879-.292a2.508,2.508,0,1,0-.186-5.013Z" transform="translate(-143.929 -20.852)" fill="#407bff"/>
          <path id="Trazado_24038" data-name="Trazado 24038" d="M182.91,186.569c-.207-.451-2.436-5.323-2.643-5.774a2.02,2.02,0,1,0-3.675,1.681c.218.479,2.424,5.3,2.643,5.776a2.021,2.021,0,0,0,3.675-1.682Z" transform="translate(-142.391 -18.208)" fill="#407bff"/>
        </g>
      </g>
      <g id="Character" transform="translate(292.503 237.294)">
        <g id="Grupo_14411" data-name="Grupo 14411">
          <path id="Trazado_24039" data-name="Trazado 24039" d="M284,236.835s-5.381,9.719-15.1,5.206-2.355-17.651-2.821-23.566c-.464-5.877-11.237-20.343,6.119-22.774,0,0,14-15.4,32.975-4.512,13.431,7.7,11.11,15.543,14.753,20.766,1.939,2.781,12.922,7.187,10.315,16.464-1.272,4.526-3.72,6.164-13.961,6.505C308.2,235.2,301.871,248.375,284,236.835Z" transform="translate(-206.174 -187.297)" fill="#263238"/>
          <g id="Grupo_14397" data-name="Grupo 14397" transform="translate(0 157.036)">
            <g id="Grupo_14394" data-name="Grupo 14394" transform="translate(10.214)">
              <path id="Trazado_24040" data-name="Trazado 24040" d="M308.717,299.364s-72.067-5.306-77.323,15.212,3.5,83.579,4.754,105.1h16.517s7.075-62.718,4.662-86.035c0,0,97.289,21.724,96.735-26.57Z" transform="translate(-229.73 -298.747)" fill="#407bff"/>
              <path id="Trazado_24041" data-name="Trazado 24041" d="M308.717,299.364s-72.067-5.306-77.323,15.212,3.5,83.579,4.754,105.1h16.517s7.075-62.718,4.662-86.035c0,0,97.289,21.724,96.735-26.57Z" transform="translate(-229.73 -298.747)" fill="#fff" opacity="0.3"/>
            </g>
            <g id="Grupo_14396" data-name="Grupo 14396" transform="translate(0 116.72)">
              <path id="Trazado_24042" data-name="Trazado 24042" d="M246.355,383.337l-.271,18.635-9.782-.905-.661-16.909Z" transform="translate(-217.098 -380.868)" fill="#ffb573"/>
              <g id="Grupo_14395" data-name="Grupo 14395" transform="translate(0 14.992)">
                <path id="Trazado_24043" data-name="Trazado 24043" d="M233.018,396.862c-1.394-.21-2.8-.682-3.169-1.351a1.012,1.012,0,0,1,.194-1.153,1.4,1.4,0,0,1,.93-.5c1.952-.232,5.528,2.591,5.685,2.715a.269.269,0,0,1,.086.3.283.283,0,0,1-.247.185A19.978,19.978,0,0,1,233.018,396.862Zm-1.456-2.452a1.767,1.767,0,0,0-.517-.01.743.743,0,0,0-.578.293c-.247.3-.2.471-.14.572.41.809,3.237,1.253,5.363,1.308A12.433,12.433,0,0,0,231.563,394.41Z" transform="translate(-219.508 -391.561)" fill="#407bff"/>
                <path id="Trazado_24044" data-name="Trazado 24044" d="M235.472,397.713a.151.151,0,0,1-.11-.027c-1.251-.8-3.582-3.634-3.152-4.86.073-.3.358-.636,1.1-.6a1.994,1.994,0,0,1,1.41.676c1.251,1.389,1.1,4.46,1.089,4.6a.264.264,0,0,1-.155.221A.25.25,0,0,1,235.472,397.713Zm-2.06-4.956-.149-.037c-.485-.031-.545.158-.575.223-.183.75,1.3,2.918,2.564,3.95a6.314,6.314,0,0,0-.972-3.662,1.409,1.409,0,0,0-.868-.473Z" transform="translate(-218.523 -392.225)" fill="#407bff"/>
                <path id="Trazado_24045" data-name="Trazado 24045" d="M240.852,395.156,253.1,397a1,1,0,0,1,.847.914l.714,10.294a1.659,1.659,0,0,1-1.526,1.78,1.741,1.741,0,0,1-.352-.011c-4.4-.741-8.289-1.572-13.786-2.393-6.486-.974-4.957.049-12.6-.989-4.6-.63-4.658-5.978-2.672-5.943,9.084.22,10.414-2.332,14.333-5A3.989,3.989,0,0,1,240.852,395.156Z" transform="translate(-222.481 -391.056)" fill="#263238"/>
                <path id="Trazado_24046" data-name="Trazado 24046" d="M240.852,395.156,253.1,397a1,1,0,0,1,.847.914l.714,10.294a1.659,1.659,0,0,1-1.526,1.78,1.741,1.741,0,0,1-.352-.011c-4.4-.741-8.289-1.572-13.786-2.393-6.486-.974-4.957.049-12.6-.989-4.6-.63-4.658-5.978-2.672-5.943,9.084.22,10.414-2.332,14.333-5A3.989,3.989,0,0,1,240.852,395.156Z" transform="translate(-222.481 -391.056)" opacity="0.1"/>
              </g>
              <path id="Trazado_24047" data-name="Trazado 24047" d="M246.273,385.423l-.1,6.982-10.214-.007-.219-5.615Z" transform="translate(-217.059 -380.015)" opacity="0.2"/>
              <path id="Trazado_24048" data-name="Trazado 24048" d="M255.755,381.585l-.581,8.116-22.011.989-1.561-8.337Z" transform="translate(-218.75 -381.585)" fill="#407bff"/>
            </g>
          </g>
          <g id="Grupo_14398" data-name="Grupo 14398" transform="translate(15.793 64.836)">
            <path id="Trazado_24049" data-name="Trazado 24049" d="M286.946,252.465s-7.734,31.4-9.157,37.207c0,0-6.374,0-23.1,8.192,0,0-11.434-4.95-16.555-1.536a10,10,0,0,0-4.4,6.226,1.922,1.922,0,0,0,1.894,2.319h18.548c5.973,0,7.433-1.012,9.905-1.378,7.364-1.089,23.132,1.378,27.763-10.752,3.246-8.5,12.587-31.4,9.094-46.592l-9.628,2.219Z" transform="translate(-233.69 -228.061)" fill="#ffb573"/>
            <path id="Trazado_24050" data-name="Trazado 24050" d="M283.229,233.312s-10.647,1.854-14.024,30.614c0,0-3.275,1.1-1.7,5.585,0,0,12.085.342,19.833,7.564,0,0,4.586-3.456,2.3-6.081C289.639,270.994,293.964,240.339,283.229,233.312Z" transform="translate(-220.032 -233.312)" fill="#407bff"/>
          </g>
          <path id="Trazado_24051" data-name="Trazado 24051" d="M295.327,214.458s2.557,17.872,14.792,17.127c0,0-5.461,25.88-19.343,24.514s-10.671-17.025-10.671-17.025,6.358.08,5.2-5.959a77.035,77.035,0,0,0-3.1-8.646Z" transform="translate(-199.043 -176.188)" fill="#ffb573"/>
          <g id="Grupo_14399" data-name="Grupo 14399" transform="translate(84.282 148.323)">
            <path id="Trazado_24052" data-name="Trazado 24052" d="M282.3,294.517s1.41,17.083,7.395,22.588c0,0,53.084,4.23,54.076-9.508.5-6.866-6.824-15.033-6.824-15.033Z" transform="translate(-282.297 -292.564)" fill="#407bff"/>
            <path id="Trazado_24053" data-name="Trazado 24053" d="M282.3,294.517s1.41,17.083,7.395,22.588c0,0,53.084,4.23,54.076-9.508.5-6.866-6.824-15.033-6.824-15.033Z" transform="translate(-282.297 -292.564)" fill="#fff" opacity="0.2"/>
          </g>
          <path id="Trazado_24054" data-name="Trazado 24054" d="M337.646,242.574c-3.2-12.225-12.626-16.817-26.973-16.122-.4,7.123-4.361,20.217-15.922,20.958-9.9.634-7.692-10.506-6.462-15.981C276.773,236.547,273.93,242.8,273.93,242.8c-3.4,19.578-1.753,33.2.9,40.8,1.677,4.808,5.681,14.186,7.227,19.037a114.563,114.563,0,0,1,4.651,20.491l56.368-1.339C341.708,305.861,341.515,257.364,337.646,242.574Z" transform="translate(-202.222 -171.31)" fill="#263238"/>
          <g id="Grupo_14401" data-name="Grupo 14401" transform="translate(85.222 114.887)">
            <path id="Trazado_24055" data-name="Trazado 24055" d="M290.14,280.753c-2.8,6.982-6.231,13.694-7.014,13.38s1.379-7.535,4.18-14.517,5.182-11.079,5.964-10.765S292.941,273.771,290.14,280.753Z" transform="translate(-282.964 -268.834)" fill="#407bff"/>
            <g id="Grupo_14400" data-name="Grupo 14400" transform="translate(5.377 7.21)">
              <path id="Trazado_24056" data-name="Trazado 24056" d="M286.78,275.028l2.777,1.115c.139-.373.275-.74.406-1.1l-2.715-1.089C287.093,274.3,286.936,274.661,286.78,275.028Z" transform="translate(-286.78 -273.951)" fill="#407bff"/>
              <path id="Trazado_24057" data-name="Trazado 24057" d="M286.78,275.028l2.777,1.115c.139-.373.275-.74.406-1.1l-2.715-1.089C287.093,274.3,286.936,274.661,286.78,275.028Z" transform="translate(-286.78 -273.951)" fill="#fff" opacity="0.7"/>
            </g>
          </g>
          <g id="Grupo_14405" data-name="Grupo 14405" transform="translate(3.296 157.653)">
            <g id="Grupo_14402" data-name="Grupo 14402" transform="translate(22.595)">
              <path id="Trazado_24058" data-name="Trazado 24058" d="M359.842,299.384s-60.43-2.628-85.955,11.259-22.146,27.026-24.022,53.3-9.009,71.693-9.009,71.693l15.766,3s21.395-51.047,26.65-94.589C283.272,344.049,374.482,358.313,359.842,299.384Z" transform="translate(-240.856 -299.185)" fill="#407bff"/>
              <path id="Trazado_24059" data-name="Trazado 24059" d="M359.842,299.384s-60.43-2.628-85.955,11.259-22.146,27.026-24.022,53.3-9.009,71.693-9.009,71.693l15.766,3s21.395-51.047,26.65-94.589C283.272,344.049,374.482,358.313,359.842,299.384Z" transform="translate(-240.856 -299.185)" fill="#fff" opacity="0.5"/>
            </g>
            <g id="Grupo_14404" data-name="Grupo 14404" transform="translate(0 130.437)">
              <path id="Trazado_24060" data-name="Trazado 24060" d="M254.569,397.479l-6.325,17.531-8.954-4.042,4.882-16.2Z" transform="translate(-218.902 -390.528)" fill="#ffb573"/>
              <g id="Grupo_14403" data-name="Grupo 14403" transform="translate(0 13.954)">
                <path id="Trazado_24061" data-name="Trazado 24061" d="M236.192,406.038c-1.25-.652-2.424-1.556-2.557-2.309a1.015,1.015,0,0,1,.559-1.027,1.411,1.411,0,0,1,1.041-.165c1.921.414,4.382,4.25,4.491,4.419a.269.269,0,0,1-.014.309.282.282,0,0,1-.294.094A19.87,19.87,0,0,1,236.192,406.038Zm-.578-2.791a1.769,1.769,0,0,0-.486-.179.743.743,0,0,0-.641.089c-.333.2-.345.38-.32.5.125.9,2.653,2.239,4.646,2.983A12.437,12.437,0,0,0,235.615,403.247Z" transform="translate(-221.218 -401.318)" fill="#407bff"/>
                <path id="Trazado_24062" data-name="Trazado 24062" d="M238.219,407.679a.166.166,0,0,1-.1-.061c-.923-1.161-2.2-4.6-1.4-5.622.166-.261.544-.485,1.234-.208a2,2,0,0,1,1.115,1.1c.73,1.722-.417,4.574-.469,4.708a.268.268,0,0,1-.22.159A.25.25,0,0,1,238.219,407.679Zm-.334-5.356-.13-.083c-.448-.187-.566-.03-.616.021-.417.651.276,3.183,1.138,4.571a6.32,6.32,0,0,0,.273-3.78,1.4,1.4,0,0,0-.666-.728Z" transform="translate(-220.054 -401.661)" fill="#407bff"/>
                <path id="Trazado_24063" data-name="Trazado 24063" d="M244.782,405.483l10.976,5.731a1,1,0,0,1,.5,1.141l-2.677,9.965a1.656,1.656,0,0,1-2.022,1.185,1.623,1.623,0,0,1-.328-.124c-3.921-2.135-7.326-4.188-12.256-6.752-5.815-3.034-4.7-1.568-11.588-5.039-4.147-2.1-2.456-7.169-.59-6.489,8.518,3.166,10.606,1.186,15.182-.065A3.99,3.99,0,0,1,244.782,405.483Z" transform="translate(-224.82 -400.315)" fill="#263238"/>
              </g>
              <path id="Trazado_24064" data-name="Trazado 24064" d="M252.917,399.276l-2.37,6.568-9.655-3.333,1.621-5.381Z" transform="translate(-218.247 -389.56)" opacity="0.2"/>
              <path id="Trazado_24065" data-name="Trazado 24065" d="M262.965,398.9l-3.193,7.485-21.133-6.234,1.24-8.391Z" transform="translate(-219.168 -391.758)" fill="#407bff"/>
            </g>
          </g>
          <path id="Trazado_24066" data-name="Trazado 24066" d="M282.316,225.916a45.5,45.5,0,0,1,1.953,5.8,7.933,7.933,0,0,1,.123.983c9.442-3.572,10.259-14.814,10.259-14.814Z" transform="translate(-198.007 -174.787)" opacity="0.2"/>
          <path id="Trazado_24067" data-name="Trazado 24067" d="M301.72,206.6c1.981,12.33,3.084,17.561-1.656,25.086-7.137,11.464-22.715,11.2-28.334-.289-5.018-10.348-7.526-28.772,3.362-36.285A17.033,17.033,0,0,1,301.72,206.6Z" transform="translate(-204.09 -185.364)" fill="#ffb573"/>
          <g id="Grupo_14408" data-name="Grupo 14408" transform="translate(63.442 24.3)">
            <path id="Trazado_24068" data-name="Trazado 24068" d="M271.282,210.019,268.911,210S270.519,211.406,271.282,210.019Z" transform="translate(-266.932 -202.31)" fill="#263238"/>
            <g id="Grupo_14407" data-name="Grupo 14407">
              <path id="Trazado_24069" data-name="Trazado 24069" d="M279.483,209.3c.248.916-.025,1.8-.613,1.97s-1.3-.444-1.563-1.351.027-1.8.614-1.968S279.19,208.444,279.483,209.3Z" transform="translate(-263.537 -203.161)" fill="#263238"/>
              <g id="Grupo_14406" data-name="Grupo 14406">
                <path id="Trazado_24070" data-name="Trazado 24070" d="M272.161,211.376c.256.931-.027,1.8-.614,1.97s-1.3-.442-1.561-1.351.027-1.8.621-1.953S271.9,210.468,272.161,211.376Z" transform="translate(-266.532 -202.304)" fill="#263238"/>
                <path id="Trazado_24071" data-name="Trazado 24071" d="M274.565,211.519a25.534,25.534,0,0,1-1.625,6.762,4.168,4.168,0,0,0,3.439-.314Z" transform="translate(-265.284 -201.689)" fill="#ed893e"/>
                <path id="Trazado_24072" data-name="Trazado 24072" d="M279.173,219.95a8.092,8.092,0,0,1-1.317.479.273.273,0,0,1-.347-.176l0-.008a.292.292,0,0,1,.209-.342,7.546,7.546,0,0,0,5.1-4.5.279.279,0,1,1,.533.166A7.759,7.759,0,0,1,279.173,219.95Z" transform="translate(-263.419 -200.18)" fill="#263238"/>
                <path id="Trazado_24073" data-name="Trazado 24073" d="M281.508,205.383a.552.552,0,0,1-.6.283,6.582,6.582,0,0,0-4.957,1.808.566.566,0,0,1-.8-.006.548.548,0,0,1,.007-.776l.014-.014a7.58,7.58,0,0,1,5.96-2.1.547.547,0,0,1,.43.645h0A.324.324,0,0,1,281.508,205.383Z" transform="translate(-264.442 -204.543)" fill="#263238"/>
                <path id="Trazado_24074" data-name="Trazado 24074" d="M268.092,208.229a.583.583,0,0,1-.5-.269.566.566,0,0,1,.179-.772,5.473,5.473,0,0,1,5.122-.528.533.533,0,0,1,.283.7l-.018.039a.548.548,0,0,1-.729.268l-.008,0h0a4.456,4.456,0,0,0-4.006.473A.549.549,0,0,1,268.092,208.229Z" transform="translate(-267.506 -203.843)" fill="#263238"/>
                <path id="Trazado_24075" data-name="Trazado 24075" d="M278.632,207.988l-2.371-.014S277.838,209.317,278.632,207.988Z" transform="translate(-263.925 -203.139)" fill="#263238"/>
              </g>
            </g>
          </g>
          <path id="Trazado_24076" data-name="Trazado 24076" d="M273.156,195.445s-5.784-9.5-10.623-1.448A9.571,9.571,0,0,1,273.156,195.445Z" transform="translate(-206.099 -185.882)" fill="#263238"/>
          <path id="Trazado_24077" data-name="Trazado 24077" d="M273.53,203.006s-7.449,4.75-5.96,13.632c0,0-8.608-20.253,5.96-19.757,0,0,12.829-11.258,23.259-3.469s9.188,22.01,9.188,22.01l-5.628,1.526s-6.622-6.483-5.3-13.28C295.052,203.668,271.71,212.277,273.53,203.006Z" transform="translate(-205.071 -185.919)" fill="#263238"/>
          <path id="Trazado_24078" data-name="Trazado 24078" d="M298.121,210.18a9.115,9.115,0,0,1-3.651,5.945c-2.6,1.87-5.016-.2-5.18-3.222-.163-2.722.978-6.975,4.026-7.638a4.1,4.1,0,0,1,4.8,4.916Z" transform="translate(-195.161 -179.981)" fill="#ffb573"/>
          <path id="Trazado_24079" data-name="Trazado 24079" d="M301.5,211.086s-3.153-18.953-23.27-15.2c0,0-10.359,1.387-10.556,13.889,0,0-3.938-12.133,8.742-16.743C288.556,188.616,302.377,195.867,301.5,211.086Z" transform="translate(-204.233 -185.475)" fill="#407bff"/>
          <g id="Grupo_14409" data-name="Grupo 14409" transform="translate(18.949 136.058)">
            <path id="Trazado_24080" data-name="Trazado 24080" d="M235.929,285.329a68,68,0,0,0,18.82,2.438H298.86c9.7,0,14.116-2.438,14.116-2.438s-37.935,2.648-41.463-1.47A138.292,138.292,0,0,1,235.929,285.329Z" transform="translate(-235.929 -283.859)" fill="#263238"/>
            <path id="Trazado_24081" data-name="Trazado 24081" d="M235.929,285.329a68,68,0,0,0,18.82,2.438H298.86c9.7,0,14.116-2.438,14.116-2.438s-37.935,2.648-41.463-1.47A138.292,138.292,0,0,1,235.929,285.329Z" transform="translate(-235.929 -283.859)" fill="#fff" opacity="0.9"/>
          </g>
          <g id="Grupo_14410" data-name="Grupo 14410" transform="translate(85.539 55.396)">
            <path id="Trazado_24082" data-name="Trazado 24082" d="M321.455,252.465s8.65,20.48,7.227,26.284c0,0-7.738,10.923-24.463,19.115,0,0-11.436-4.95-16.556-1.536a9.993,9.993,0,0,0-4.437,6.41,1.78,1.78,0,0,0,1.746,2.136h18.734a32.768,32.768,0,0,0,9.907-1.378s24.534-10.065,27.763-21.675c1.754-6.308,1.925-19.115-5.926-35.669l-9.626,2.219Z" transform="translate(-283.189 -218.621)" fill="#ffb573"/>
            <path id="Trazado_24083" data-name="Trazado 24083" d="M311.835,226.729c-3.57-.362-9.649-.623-8.767,11.367a79.9,79.9,0,0,0,5.607,22.881s-1.067,5.405,2.873,5.4A79.571,79.571,0,0,1,332.184,253.6s1.441-4.224-2.116-4.588C330.068,249.014,324.552,228.017,311.835,226.729Z" transform="translate(-275.094 -226.612)" fill="#407bff"/>
          </g>
        </g>
      </g>
      <g id="Chair" transform="translate(360.865 432.741)">
        <g id="Grupo_14417" data-name="Grupo 14417" transform="translate(0)">
          <g id="Grupo_14412" data-name="Grupo 14412" transform="translate(35.222 15.751)">
            <path id="Trazado_24084" data-name="Trazado 24084" d="M296,337.187l.91,115.827h5.151l.91-115.827Z" transform="translate(-295.996 -337.187)" fill="#407bff"/>
            <path id="Trazado_24085" data-name="Trazado 24085" d="M296,337.187l.91,115.827h5.151l.91-115.827Z" transform="translate(-295.996 -337.187)" fill="#fff" opacity="0.2"/>
          </g>
          <g id="Grupo_14413" data-name="Grupo 14413" transform="translate(62.694 6.61)">
            <path id="Trazado_24086" data-name="Trazado 24086" d="M315.493,330.7l6.138,124.968h5.15L322.606,330.7Z" transform="translate(-315.493 -330.699)" fill="#407bff"/>
            <path id="Trazado_24087" data-name="Trazado 24087" d="M315.493,330.7l6.138,124.968h5.15L322.606,330.7Z" transform="translate(-315.493 -330.699)" fill="#fff" opacity="0.2"/>
          </g>
          <g id="Grupo_14414" data-name="Grupo 14414" transform="translate(3.649 15.751)">
            <path id="Trazado_24088" data-name="Trazado 24088" d="M277.458,337.187l-3.87,115.827h5.15l5.689-115.827Z" transform="translate(-273.588 -337.187)" fill="#407bff"/>
            <path id="Trazado_24089" data-name="Trazado 24089" d="M277.458,337.187l-3.87,115.827h5.15l5.689-115.827Z" transform="translate(-273.588 -337.187)" fill="#fff" opacity="0.2"/>
          </g>
          <path id="Rectángulo_3870" data-name="Rectángulo 3870" d="M6.377,0h64.66a6.377,6.377,0,0,1,6.377,6.377V21.742A3.257,3.257,0,0,1,74.157,25H3.257A3.257,3.257,0,0,1,0,21.742V6.377A6.377,6.377,0,0,1,6.377,0Z" fill="#407bff"/>
          <g id="Grupo_14415" data-name="Grupo 14415" transform="translate(6.4 84.011)">
            <path id="Rectángulo_3871" data-name="Rectángulo 3871" d="M1.42,0H29.15a1.636,1.636,0,0,1,1.636,1.636V4.018A1.636,1.636,0,0,1,29.15,5.654H1.42A1.42,1.42,0,0,1,0,4.234V1.42A1.42,1.42,0,0,1,1.42,0Z" fill="#407bff"/>
            <path id="Rectángulo_3872" data-name="Rectángulo 3872" d="M1.42,0H29.15a1.636,1.636,0,0,1,1.636,1.636V4.018A1.636,1.636,0,0,1,29.15,5.654H1.42A1.42,1.42,0,0,1,0,4.234V1.42A1.42,1.42,0,0,1,1.42,0Z" fill="#fff" opacity="0.4"/>
          </g>
          <g id="Grupo_14416" data-name="Grupo 14416" transform="translate(40.107 84.011)">
            <path id="Rectángulo_3873" data-name="Rectángulo 3873" d="M1.42,0H29.15a1.636,1.636,0,0,1,1.636,1.636V4.018A1.636,1.636,0,0,1,29.15,5.654H1.42A1.42,1.42,0,0,1,0,4.234V1.42A1.42,1.42,0,0,1,1.42,0Z" fill="#407bff"/>
            <path id="Rectángulo_3874" data-name="Rectángulo 3874" d="M1.42,0H29.15a1.636,1.636,0,0,1,1.636,1.636V4.018A1.636,1.636,0,0,1,29.15,5.654H1.42A1.42,1.42,0,0,1,0,4.234V1.42A1.42,1.42,0,0,1,1.42,0Z" fill="#fff" opacity="0.4"/>
          </g>
        </g>
      </g>
      <g id="Desk" transform="translate(164.268 341.99)">
        <g id="Grupo_14443" data-name="Grupo 14443">
          <g id="Grupo_14423" data-name="Grupo 14423" transform="translate(17.951 15.683)">
            <g id="Grupo_14419" data-name="Grupo 14419" transform="translate(45.356 0.047)">
              <g id="Grupo_14418" data-name="Grupo 14418">
                <path id="Trazado_24090" data-name="Trazado 24090" d="M193.008,290.134V275.615a1.391,1.391,0,0,0,0-2.78c-5.533,0-11.069-.038-16.607-.07v20.149h16.607A1.391,1.391,0,0,0,193.008,290.134Z" transform="translate(-176.401 -272.765)" fill="#407bff"/>
                <path id="Trazado_24091" data-name="Trazado 24091" d="M193.008,290.134V275.615a1.391,1.391,0,0,0,0-2.78c-5.533,0-11.069-.038-16.607-.07v20.149h16.607A1.391,1.391,0,0,0,193.008,290.134Z" transform="translate(-176.401 -272.765)" fill="#fff" opacity="0.3"/>
              </g>
              <rect id="Rectángulo_3875" data-name="Rectángulo 3875" width="12.9" height="14.498" transform="translate(3.707 2.85)" fill="#407bff"/>
              <rect id="Rectángulo_3876" data-name="Rectángulo 3876" width="12.9" height="14.498" transform="translate(3.707 2.85)" fill="#fff" opacity="0.8"/>
            </g>
            <path id="Trazado_24092" data-name="Trazado 24092" d="M195.551,291.1H150.828c-3.074,0-5.566-3.872-5.566-8.649s2.491-8.65,5.566-8.65h44.724Z" transform="translate(-143.782 -272.294)" fill="#fff"/>
            <g id="Grupo_14422" data-name="Grupo 14422">
              <g id="Grupo_14420" data-name="Grupo 14420">
                <path id="Trazado_24093" data-name="Trazado 24093" d="M195.981,272.849c-14.643,0-29.309-.265-43.947,0-10.028.18-10.568,19.4-.731,20.079,6.856.469,13.91,0,20.779,0h23.9a1.391,1.391,0,0,0,0-2.78H154.347c-3.211,0-5.509-.037-6.751-3.826-1.074-3.279-.735-9.969,3.661-10.693a9.8,9.8,0,0,1,1.508,0h43.216a1.391,1.391,0,0,0,0-2.78Z" transform="translate(-144.211 -272.732)" fill="#407bff"/>
              </g>
              <g id="Grupo_14421" data-name="Grupo 14421" opacity="0.3">
                <path id="Trazado_24094" data-name="Trazado 24094" d="M195.981,272.849c-14.643,0-29.309-.265-43.947,0-10.028.18-10.568,19.4-.731,20.079,6.856.469,13.91,0,20.779,0h23.9a1.391,1.391,0,0,0,0-2.78H154.347c-3.211,0-5.509-.037-6.751-3.826-1.074-3.279-.735-9.969,3.661-10.693a9.8,9.8,0,0,1,1.508,0h43.216a1.391,1.391,0,0,0,0-2.78Z" transform="translate(-144.211 -272.732)"/>
              </g>
            </g>
          </g>
          <g id="Grupo_14429" data-name="Grupo 14429" transform="translate(17.951 15.683)">
            <g id="Grupo_14425" data-name="Grupo 14425" transform="translate(45.356 0.047)">
              <g id="Grupo_14424" data-name="Grupo 14424">
                <path id="Trazado_24095" data-name="Trazado 24095" d="M193.008,290.134V275.615a1.391,1.391,0,0,0,0-2.78c-5.533,0-11.069-.038-16.607-.07v20.149h16.607A1.391,1.391,0,0,0,193.008,290.134Z" transform="translate(-176.401 -272.765)" fill="#407bff"/>
                <path id="Trazado_24096" data-name="Trazado 24096" d="M193.008,290.134V275.615a1.391,1.391,0,0,0,0-2.78c-5.533,0-11.069-.038-16.607-.07v20.149h16.607A1.391,1.391,0,0,0,193.008,290.134Z" transform="translate(-176.401 -272.765)" fill="#fff" opacity="0.3"/>
              </g>
              <rect id="Rectángulo_3877" data-name="Rectángulo 3877" width="12.9" height="14.498" transform="translate(3.707 2.85)" fill="#407bff"/>
              <rect id="Rectángulo_3878" data-name="Rectángulo 3878" width="12.9" height="14.498" transform="translate(3.707 2.85)" fill="#fff" opacity="0.8"/>
            </g>
            <path id="Trazado_24097" data-name="Trazado 24097" d="M195.551,291.1H150.828c-3.074,0-5.566-3.872-5.566-8.649s2.491-8.65,5.566-8.65h44.724Z" transform="translate(-143.782 -272.294)" fill="#407bff"/>
            <path id="Trazado_24098" data-name="Trazado 24098" d="M195.551,291.1H150.828c-3.074,0-5.566-3.872-5.566-8.649s2.491-8.65,5.566-8.65h44.724Z" transform="translate(-143.782 -272.294)" fill="#fff" opacity="0.9"/>
            <g id="Grupo_14428" data-name="Grupo 14428">
              <g id="Grupo_14426" data-name="Grupo 14426">
                <path id="Trazado_24099" data-name="Trazado 24099" d="M195.981,272.849c-14.643,0-29.309-.265-43.947,0-10.028.18-10.568,19.4-.731,20.079,6.856.469,13.91,0,20.779,0h23.9a1.391,1.391,0,0,0,0-2.78H154.347c-3.211,0-5.509-.037-6.751-3.826-1.074-3.279-.735-9.969,3.661-10.693a9.8,9.8,0,0,1,1.508,0h43.216a1.391,1.391,0,0,0,0-2.78Z" transform="translate(-144.211 -272.732)" fill="#407bff"/>
              </g>
              <g id="Grupo_14427" data-name="Grupo 14427" opacity="0.3">
                <path id="Trazado_24100" data-name="Trazado 24100" d="M195.981,272.849c-14.643,0-29.309-.265-43.947,0-10.028.18-10.568,19.4-.731,20.079,6.856.469,13.91,0,20.779,0h23.9a1.391,1.391,0,0,0,0-2.78H154.347c-3.211,0-5.509-.037-6.751-3.826-1.074-3.279-.735-9.969,3.661-10.693a9.8,9.8,0,0,1,1.508,0h43.216a1.391,1.391,0,0,0,0-2.78Z" transform="translate(-144.211 -272.732)"/>
              </g>
            </g>
          </g>
          <g id="Grupo_14434" data-name="Grupo 14434" transform="translate(30.748)">
            <g id="Grupo_14431" data-name="Grupo 14431" transform="translate(0 0.038)">
              <g id="Grupo_14430" data-name="Grupo 14430">
                <path id="Trazado_24101" data-name="Trazado 24101" d="M154.365,275.486V263.9a1.11,1.11,0,0,1,0-2.218c4.414,0,8.832-.03,13.249-.056V277.7H154.365A1.11,1.11,0,0,1,154.365,275.486Z" transform="translate(-153.294 -261.628)" fill="#407bff"/>
                <path id="Trazado_24102" data-name="Trazado 24102" d="M154.365,275.486V263.9a1.11,1.11,0,0,1,0-2.218c4.414,0,8.832-.03,13.249-.056V277.7H154.365A1.11,1.11,0,0,1,154.365,275.486Z" transform="translate(-153.294 -261.628)" fill="#fff" opacity="0.3"/>
              </g>
              <rect id="Rectángulo_3879" data-name="Rectángulo 3879" width="10.293" height="11.567" transform="translate(1.071 2.274)" fill="#407bff"/>
              <rect id="Rectángulo_3880" data-name="Rectángulo 3880" width="10.293" height="11.567" transform="translate(1.071 2.274)" fill="#fff" opacity="0.8"/>
            </g>
            <path id="Trazado_24103" data-name="Trazado 24103" d="M159.826,276.256h35.682c2.453,0,4.441-3.09,4.441-6.9s-1.988-6.9-4.441-6.9H159.826Z" transform="translate(-150.622 -261.252)" fill="#407bff"/>
            <path id="Trazado_24104" data-name="Trazado 24104" d="M159.826,276.256h35.682c2.453,0,4.441-3.09,4.441-6.9s-1.988-6.9-4.441-6.9H159.826Z" transform="translate(-150.622 -261.252)" fill="#fff" opacity="0.9"/>
            <g id="Grupo_14433" data-name="Grupo 14433" transform="translate(8.133)">
              <g id="Grupo_14432" data-name="Grupo 14432">
                <path id="Trazado_24105" data-name="Trazado 24105" d="M160.137,261.7c11.682,0,23.383-.211,35.064,0,8,.144,8.43,15.481.583,16.019-5.471.376-11.1,0-16.58,0H160.137a1.11,1.11,0,0,1,0-2.218h33.216c2.563,0,4.4-.028,5.387-3.052.857-2.615.586-7.954-2.921-8.532a7.776,7.776,0,0,0-1.2,0h-34.48a1.11,1.11,0,0,1,0-2.218Z" transform="translate(-159.066 -261.601)" fill="#407bff"/>
              </g>
            </g>
          </g>
          <g id="Grupo_14435" data-name="Grupo 14435" transform="translate(212.443 35.5)">
            <path id="Rectángulo_3881" data-name="Rectángulo 3881" d="M0,0H120.988a0,0,0,0,1,0,0V9.018a7.073,7.073,0,0,1-7.073,7.073H0a0,0,0,0,1,0,0V0A0,0,0,0,1,0,0Z" fill="#407bff"/>
            <path id="Rectángulo_3882" data-name="Rectángulo 3882" d="M0,0H120.988a0,0,0,0,1,0,0V9.018a7.073,7.073,0,0,1-7.073,7.073H0a0,0,0,0,1,0,0V0A0,0,0,0,1,0,0Z" fill="#fff" opacity="0.5"/>
          </g>
          <g id="Grupo_14436" data-name="Grupo 14436" transform="translate(104.659 51.591)">
            <path id="Trazado_24106" data-name="Trazado 24106" d="M212.383,468.954H207.09l-1.341-170.738h7.975Z" transform="translate(-205.749 -298.216)" fill="#407bff"/>
            <path id="Trazado_24107" data-name="Trazado 24107" d="M212.383,468.954H207.09l-1.341-170.738h7.975Z" transform="translate(-205.749 -298.216)" fill="#fff" opacity="0.7"/>
          </g>
          <g id="Grupo_14437" data-name="Grupo 14437" transform="translate(314.021 51.591)">
            <path id="Trazado_24108" data-name="Trazado 24108" d="M360.969,468.954h-5.293l-1.341-170.738h7.975Z" transform="translate(-354.335 -298.216)" fill="#407bff"/>
            <path id="Trazado_24109" data-name="Trazado 24109" d="M360.969,468.954h-5.293l-1.341-170.738h7.975Z" transform="translate(-354.335 -298.216)" fill="#fff" opacity="0.7"/>
          </g>
          <g id="Grupo_14438" data-name="Grupo 14438" transform="translate(13.964 199.087)">
            <path id="Rectángulo_3883" data-name="Rectángulo 3883" d="M0,0H93.016a1.667,1.667,0,0,1,1.667,1.667V4.143A1.667,1.667,0,0,1,93.016,5.81H0a0,0,0,0,1,0,0V0A0,0,0,0,1,0,0Z" fill="#407bff"/>
            <path id="Rectángulo_3884" data-name="Rectángulo 3884" d="M0,0H93.016a1.667,1.667,0,0,1,1.667,1.667V4.143A1.667,1.667,0,0,1,93.016,5.81H0a0,0,0,0,1,0,0V0A0,0,0,0,1,0,0Z" fill="#fff" opacity="0.4"/>
          </g>
          <g id="Grupo_14439" data-name="Grupo 14439" transform="translate(60.842 199.959)">
            <path id="Rectángulo_3885" data-name="Rectángulo 3885" d="M1.357,0H163.922a0,0,0,0,1,0,0V4.067a0,0,0,0,1,0,0H1.357A1.357,1.357,0,0,1,0,2.71V1.357A1.357,1.357,0,0,1,1.357,0Z" fill="#407bff"/>
            <path id="Rectángulo_3886" data-name="Rectángulo 3886" d="M1.357,0H163.922a0,0,0,0,1,0,0V4.067a0,0,0,0,1,0,0H1.357A1.357,1.357,0,0,1,0,2.71V1.357A1.357,1.357,0,0,1,1.357,0Z" fill="#fff" opacity="0.1"/>
          </g>
          <g id="Grupo_14440" data-name="Grupo 14440" transform="translate(223.325 199.087)">
            <path id="Rectángulo_3887" data-name="Rectángulo 3887" d="M0,0H93.047a1.636,1.636,0,0,1,1.636,1.636V4.175A1.636,1.636,0,0,1,93.047,5.81H0a0,0,0,0,1,0,0V0A0,0,0,0,1,0,0Z" fill="#407bff"/>
            <path id="Rectángulo_3888" data-name="Rectángulo 3888" d="M0,0H93.047a1.636,1.636,0,0,1,1.636,1.636V4.175A1.636,1.636,0,0,1,93.047,5.81H0a0,0,0,0,1,0,0V0A0,0,0,0,1,0,0Z" fill="#fff" opacity="0.4"/>
          </g>
          <path id="Rectángulo_3889" data-name="Rectángulo 3889" d="M0,0H225.267a0,0,0,0,1,0,0V16.09a0,0,0,0,1,0,0H7.053A7.053,7.053,0,0,1,0,9.038V0A0,0,0,0,1,0,0Z" transform="translate(0 35.5)" fill="#407bff"/>
          <g id="Grupo_14441" data-name="Grupo 14441" transform="translate(9.976 51.591)">
            <path id="Trazado_24110" data-name="Trazado 24110" d="M145.185,468.954h-5.293l-1.341-170.738h7.975Z" transform="translate(-138.552 -298.216)" fill="#407bff"/>
            <path id="Trazado_24111" data-name="Trazado 24111" d="M145.185,468.954h-5.293l-1.341-170.738h7.975Z" transform="translate(-138.552 -298.216)" fill="#fff" opacity="0.7"/>
          </g>
          <g id="Grupo_14442" data-name="Grupo 14442" transform="translate(219.338 51.591)">
            <path id="Trazado_24112" data-name="Trazado 24112" d="M293.772,468.954h-5.293l-1.341-170.738h7.974Z" transform="translate(-287.138 -298.216)" fill="#407bff"/>
            <path id="Trazado_24113" data-name="Trazado 24113" d="M293.772,468.954h-5.293l-1.341-170.738h7.974Z" transform="translate(-287.138 -298.216)" fill="#fff" opacity="0.7"/>
          </g>
        </g>
      </g>
    </g>
    <g id="Grupo_14445" data-name="Grupo 14445" transform="translate(1408.609 1366.135)">
      <path id="Trazado_24129" data-name="Trazado 24129" d="M-550.929,500.28A338.522,338.522,0,0,1-693,538.5l-15.486-27.453L-723.97,538.5A338.525,338.525,0,0,1-866.038,500.28l-86.181,118.61a483.63,483.63,0,0,0,243.74,65.46,483.616,483.616,0,0,0,243.731-65.46Z" fill="#407bff"/>
      <path id="Trazado_24130" data-name="Trazado 24130" d="M-946.948,441.5a338.556,338.556,0,0,1-80.251-123.3l21.323-23.212-30.894-6.245a338.541,338.541,0,0,1-7.551-146.926L-1183.757,96.5a483.624,483.624,0,0,0,13.063,252.038A483.623,483.623,0,0,0-1033.122,560.11Z" fill="#407bff"/>
      <path id="Trazado_24131" data-name="Trazado 24131" d="M-1013.414,46.69A338.532,338.532,0,0,1-920.942-67.736l28.665,13.108-3.608-31.312a338.548,338.548,0,0,1,137.4-52.582l.007-146.613a483.631,483.631,0,0,0-235.668,90.3A483.616,483.616,0,0,0-1152.852,1.386Z" fill="#407bff"/>
      <path id="Trazado_24132" data-name="Trazado 24132" d="M-658.466-138.519a338.538,338.538,0,0,1,137.4,52.589l-3.609,31.313,28.665-13.106A338.519,338.519,0,0,1-403.544,46.708l139.44-45.3a483.616,483.616,0,0,0-158.7-196.231,483.611,483.611,0,0,0-235.655-90.312Z" fill="#407bff"/>
      <path id="Trazado_24133" data-name="Trazado 24133" d="M-372.648,141.8a338.537,338.537,0,0,1-7.545,146.927l-30.9,6.246,21.324,23.211a338.531,338.531,0,0,1-80.247,123.307L-383.833,560.1A483.63,483.63,0,0,0-246.265,348.513a483.618,483.618,0,0,0,13.052-252.03Z" fill="#407bff"/>
      <text id="Los_principales_temas_relacionados_con_el_problema_irradian_de_la_imagen_central_de_forma_ramificada." data-name="Los principales temas relacionados con el problema irradian de la imagen central de forma ramificada." transform="translate(-832.491 575.925)" font-size="16" font-family="SegoeUI, Segoe UI"><tspan x="1.781" y="17">Los principales temas relacionados </tspan><tspan x="18.344" y="36.2">con el problema irradian de la </tspan><tspan x="37.379" y="55.4">imagen central de forma </tspan></text>
      <text id="Las_ramificaciones_forman_una_estructura_nodal." data-name="Las ramificaciones forman una estructura nodal." transform="translate(-554.922 -224.401) rotate(36)" font-size="16" font-family="SegoeUI, Segoe UI"><tspan x="17.304" y="17">Las ramificaciones forman una </tspan><tspan x="64.765" y="36.2">estructura nodal.</tspan></text>
      <text id="Se_toma_una_hoja_de_papel_grande_o_pequeña_según_sea_un_mapa_grupal_o_individual." data-name="Se toma una hoja de papel,
grande o pequeña, según sea
un mapa grupal o individual." transform="translate(-961.583 -150.02) rotate(-36)" font-size="16" font-family="SegoeUI, Segoe UI"><tspan x="-96.324" y="0">Se toma una hoja de papel,</tspan><tspan x="-104.07" y="19.2">grande o pequeña, según sea</tspan><tspan x="-100.836" y="38.4">un mapa grupal o individual.</tspan></text>
      <text id="El_problema_o_asunto_más_importante_se_escribe_con_una_palabra_o_se_dibuja_en_el_centro_de_la_hoja." data-name="El problema o asunto más 
importante se escribe con 
una palabra o se dibuja en el 
centro de la hoja." transform="translate(-1077.511 315.764) rotate(72)" font-size="16" font-family="SegoeUI, Segoe UI"><tspan x="-93.859" y="0">El problema o asunto más </tspan><tspan x="-93.336" y="19.2">importante se escribe con </tspan><tspan x="-103.785" y="38.4">una palabra o se dibuja en el </tspan><tspan x="-61.02" y="57.6">centro de la hoja.</tspan></text>
      <text id="De_esos_temas_parten_imágenes_o_palabras_claves_que_trazamos_sobre_líneas_abiertas_sin_pensar_de_forma_automática_pero_clara." data-name="De esos temas parten imágenes o palabras claves que trazamos sobre líneas abiertas, sin pensar, de forma automática pero clara." transform="translate(-392.083 424.993) rotate(-72)" font-size="16" font-family="SegoeUI, Segoe UI"><tspan x="4.785" y="17">De esos temas parten imágenes o </tspan><tspan x="20.945" y="36.2">palabras claves que trazamos </tspan><tspan x="10.601" y="55.4">sobre líneas abiertas, sin pensar, </tspan><tspan x="11.398" y="74.6">de forma automática pero clara.</tspan></text>
      <text id="_1" data-name="1" transform="translate(-1045.337 -55.861) rotate(-36)" font-size="33.718" font-family="MyriadPro-Bold, Myriad Pro" font-weight="700"><tspan x="-9.357" y="0">1</tspan></text>
      <text id="_5" data-name="5" transform="translate(-570.452 -202.154) rotate(36)" font-size="33.718" font-family="MyriadPro-Bold, Myriad Pro" font-weight="700"><tspan x="-9.357" y="0">5</tspan></text>
      <text id="_2" data-name="2" transform="translate(-1135.166 209.54) rotate(72)" font-size="33.718" font-family="MyriadPro-Bold, Myriad Pro" font-weight="700"><tspan x="-9.357" y="0">2</tspan></text>
      <text id="_3" data-name="3" transform="translate(-851.851 614.843)" font-size="33.718" font-family="MyriadPro-Bold, Myriad Pro" font-weight="700"><tspan x="-9.357" y="0">3</tspan></text>
      <text id="_4" data-name="4" transform="translate(-361.708 456.944) rotate(-72)" font-size="33.718" font-family="MyriadPro-Bold, Myriad Pro" font-weight="700"><tspan x="-9.357" y="0">4</tspan></text>
    </g>
  </g>
</svg>
