<svg xmlns="http://www.w3.org/2000/svg" xmlns:xlink="http://www.w3.org/1999/xlink" width="740" height="438.587" viewBox="0 0 740 438.587">
  <defs>
    <clipPath id="clip-path">
      <path id="Trazado_26183" data-name="Trazado 26183" d="M495.157,180.093l-24.656.086c1.714,3.119,1.248,6.722-.908,8.756-1.5,1.411-4.046,2.292-5.912,1.364-2.491-1.237-3.74-5.673-1.376-10.091-.43-.014-1.054-.034-1.806-.054-5.119-.139-7.713-.2-9.39.093-2.078.366-4.228.744-5.969,2.5a8.452,8.452,0,0,0-2.084,3.47,8.58,8.58,0,0,0-.371,2.516c-.013,2.4.094,26.417.1,27.017a6.008,6.008,0,0,0-5.893,2.064,5.614,5.614,0,0,0,5.932,9.02s.181,51.442.186,52.733c17.442-.062,34.709-.124,52.152-.184Z" transform="translate(-435.557 -180.037)" fill="none"/>
    </clipPath>
    <clipPath id="clip-path-2">
      <path id="Trazado_26197" data-name="Trazado 26197" d="M450.374,181.477l14.693.975a6.193,6.193,0,0,0,2.216,6.892,5.651,5.651,0,0,0,5.854.4,5.853,5.853,0,0,0,2.663-6.583l8.977.6a37.529,37.529,0,0,0,1.527-8.771,42.517,42.517,0,1,0-69.394,30.039l-1.146,17.26L414.475,241.7a16.688,16.688,0,0,0,.114,3.351,16.468,16.468,0,0,0,.908,3.566,16.666,16.666,0,0,0,12.39,10.525,12.339,12.339,0,0,0,8.4,5.835c.634-11.487,1.93-35.757,1.943-36.405a5.039,5.039,0,0,1-5.457-1.819,4.976,4.976,0,0,1,.753-6.531,5.071,5.071,0,0,1,5.656-.623c.04-.72,1.455-20.842,2.121-30.184C444.678,183.558,447.91,181.314,450.374,181.477Z" transform="translate(-401.364 -129.655)" fill="none"/>
    </clipPath>
    <clipPath id="clip-path-3">
      <rect id="Rectángulo_4014" data-name="Rectángulo 4014" width="210.676" height="113.127" rx="9.159" fill="#fff"/>
    </clipPath>
    <clipPath id="clip-path-4">
      <path id="Trazado_26215" data-name="Trazado 26215" d="M335.735,205.175c.918,1.165,4.544,3.2,5.467,5.6s-2.179,3.041-2.179,3.041c.457,3.81.941,8.387-1.431,11.679-1.753,2.432-5.067,4.509-7.917,2.592.767,2.475,1.693,5.109,2.814,7.86a96.972,96.972,0,0,0,4.855,10.17,41.706,41.706,0,0,1-4.623.832,42.188,42.188,0,0,1-11.426-.174c-5.555-3.291-6.779-6.084-6.83-8.061-.086-3.282,3.052-4.723,3.934-8.711.915-4.143-1.241-8.152-3.211-10.9-.217.1-2.086,1.124-3.489.033-1.357-1.054-2.683-3.514-1.429-5a3.586,3.586,0,0,1,4.252-1.006c1.217-1.94,3.871-5.052,2.533-10.307,3.943-.8,14.177-5.577,15.986-9.872C333.213,193.64,334.816,204.009,335.735,205.175Z" transform="translate(-309.766 -192.958)" fill="#d08b73"/>
    </clipPath>
    <clipPath id="clip-path-5">
      <path id="Trazado_26225" data-name="Trazado 26225" d="M324.69,239.812a48.186,48.186,0,0,1,16.161,20.212q.093-11.985.184-23.973l-6-8.713,2.9-9.76,9.109,1.463q2.312,3.9,4.622,7.808-1.067,4.8-2.132,9.6c.562,5.544,1.324,13.349,2.148,22.815.714,8.192,1.325,16.146-2.42,18.623a11.1,11.1,0,0,1-4.953,1.631,11.341,11.341,0,0,1-4.037-.667c-3.4-1.249-14.572-11.43-28.544-26.4Q318.21,246.132,324.69,239.812Z" transform="translate(-311.73 -217.579)" fill="#d08b73"/>
    </clipPath>
    <clipPath id="clip-path-6">
      <path id="Trazado_26234" data-name="Trazado 26234" d="M212.736,245.513l-8.6,15.875,14.15,11.522a17.826,17.826,0,0,1-.935-8.519,18.424,18.424,0,0,1,5.97-11.022Z" transform="translate(-204.136 -245.513)" fill="#d08b73"/>
    </clipPath>
    <clipPath id="clip-path-7">
      <path id="Trazado_26238" data-name="Trazado 26238" d="M222.7,268.557c-1.219-1.8-2.542-3.657-3.978-5.542-2.461-3.231-4.93-6.133-7.326-8.724-10.355.428-15.612,4.073-18.291,6.68-5.648,5.5-7.084,13.283-6.643,44.716.164,11.737.405,21.466.6,28.3,1.078,1.108,9.159,9.135,21.5,8.114a27.606,27.606,0,0,0,18.908-10.221c-.356-8.975-.807-16.254-1.15-21.209-.769-11.112-1.054-17.472-1.853-25.967C223.84,277.933,223.181,272.357,222.7,268.557Z" transform="translate(-186.392 -254.291)" fill="#ee5f43"/>
    </clipPath>
    <clipPath id="clip-path-8">
      <path id="Trazado_26257" data-name="Trazado 26257" d="M498.994,300.013s.037,42.325,1.555,49.865,21.37,45.726,21.37,45.726l3.869,5.6,9.582-5.6s-2.156-14.867-6.071-26.591-9.935-16.808-8.953-21.36,2.827-22.86,1.573-34.608-4.247-25.356-4.247-25.356l-20.18.383Z" transform="translate(-497.492 -287.689)" fill="#346ec1"/>
    </clipPath>
    <clipPath id="clip-path-9">
      <path id="Trazado_26265" data-name="Trazado 26265" d="M509.373,220.612c-.419,1.115-1.014,2.841-1.261,3.259s-3.91,2.759-4.5,3.767,1.762,1.77,1.762,1.77c-.064-.028-1.438,4.918-1.474,5.41-.159,2.2,1.481,4.581,3.278,5.673a6.977,6.977,0,0,0,7.085,0c-.551,2.011-1.134,4.012-1.713,6.016l9.918,3.6s.45-7.176,1.464-9.541,3.274-8.527,3.274-8.527a2.562,2.562,0,0,0,2.04-.649c1.074-.869,1.622-3.677-.12-4.347a2.392,2.392,0,0,0-3.192,1.2c-1.291-.172-2.384-3.252-2.8-4.228-1.292-3.066-.515-6.051.115-9.157-.068.335-1.969.988-2.284,1.243a8.031,8.031,0,0,0-2.1,3.809,20.405,20.405,0,0,0-.52,2.131c-.3,1.523.083,2.358-1.794,1.789A37.969,37.969,0,0,1,509.373,220.612Z" transform="translate(-503.514 -214.86)" fill="#d08b73"/>
    </clipPath>
  </defs>
  <g id="Grupo_16262" data-name="Grupo 16262" transform="translate(-330 -895)">
    <g id="Grupo_15981" data-name="Grupo 15981" transform="translate(249.406 829.766)">
      <g id="BACKGROUND" transform="translate(80.594 65.235)">
        <g id="Grupo_15917" data-name="Grupo 15917" transform="translate(0)" opacity="0.2">
          <path id="Trazado_26108" data-name="Trazado 26108" d="M664.167,497.457c25.7-16.93,58.905-44.859,62.758-83.206,3.44-34.23-19.5-46.986-30.015-88.225-20.06-78.671,42.667-113.644,23.648-168.264C699.848,98.287,598.212,61.467,521.37,77.723c-69.827,14.772-75.579,64.149-130.973,60.029-55.891-4.157-84.91-57.018-143.694-45.257a100.963,100.963,0,0,0-32.657,13.046c-35.333,21.844-55.918,64.986-56.825,103.941-1.441,62.011,47.732,81.238,34.9,125.64-8.579,29.68-33.221,30.324-43.668,61.486-11.556,34.468,5.765,71.939,24.134,100.079Z" transform="translate(-63.713 -62.961)" fill="#91f2e2"/>
          <circle id="Elipse_1058" data-name="Elipse 1058" cx="19.535" cy="19.535" r="19.535" transform="translate(644.848 243.677) rotate(-72.134)" fill="#91f2e2"/>
          <circle id="Elipse_1059" data-name="Elipse 1059" cx="19.535" cy="19.535" r="19.535" transform="translate(689.933 147.737) rotate(-13.194)" fill="#91f2e2"/>
          <circle id="Elipse_1060" data-name="Elipse 1060" cx="7.447" cy="7.447" r="7.447" transform="translate(650.308 184.561)" fill="#91f2e2"/>
          <circle id="Elipse_1061" data-name="Elipse 1061" cx="17.33" cy="17.33" r="17.33" transform="translate(307.022 21.686)" fill="#91f2e2"/>
          <circle id="Elipse_1062" data-name="Elipse 1062" cx="10.91" cy="10.91" r="10.91" transform="matrix(0.722, -0.692, 0.692, 0.722, 254.87, 21.36)" fill="#91f2e2"/>
          <circle id="Elipse_1063" data-name="Elipse 1063" cx="10.91" cy="10.91" r="10.91" transform="translate(382.312)" fill="#91f2e2"/>
          <circle id="Elipse_1064" data-name="Elipse 1064" cx="33.7" cy="33.7" r="33.7" transform="translate(0 237.774) rotate(-9.217)" fill="#91f2e2"/>
          <circle id="Elipse_1065" data-name="Elipse 1065" cx="33.7" cy="33.7" r="33.7" transform="translate(16.013 47.679)" fill="#91f2e2"/>
          <circle id="Elipse_1066" data-name="Elipse 1066" cx="9.619" cy="9.619" r="9.619" transform="translate(77.608 197.078)" fill="#91f2e2"/>
          <g id="Grupo_15916" data-name="Grupo 15916" transform="translate(246.201 7.939)">
            <g id="Grupo_15912" data-name="Grupo 15912" transform="translate(199.924 209.234)">
              <path id="Trazado_26109" data-name="Trazado 26109" d="M436.911,237.151a34.053,34.053,0,0,1,8.844,3.6,61.9,61.9,0,0,1,7.492,4.966,144.653,144.653,0,0,1,13.377,12.049l1.551,1.518,1.755,1.779c1.2,1.208,2.355,2.491,3.531,3.791,2.31,2.631,4.6,5.416,6.761,8.4A117.155,117.155,0,0,1,491.9,293.091,138.607,138.607,0,0,1,499.2,312.61c1.733,6.254,3.691,12.722,4.891,18.662a66.189,66.189,0,0,1,1.2,8.336,54.707,54.707,0,0,1-.008,6.672c-.048.941-.043,1.863-.114,2.616a3.011,3.011,0,0,1-.58,1.683,1.635,1.635,0,0,1-1.061.551,3.747,3.747,0,0,1-.527.028h-.021l-.158.009a8.976,8.976,0,0,0-2.154.517l-.347.109a.374.374,0,0,1-.12.019.7.7,0,0,1-.265-.021,1.812,1.812,0,0,1-.706-.423,5.691,5.691,0,0,1-.477-.479l-.527-.629c-.337-.409-.677-.85-1-1.3-.656-.894-1.282-1.846-1.873-2.726-.6-.912-1.127-1.6-1.771-2.549-1.294-1.913-2.7-3.986-4.179-6.18-1.525-2.288-3.19-4.81-4.914-7.559-.864-1.382-1.741-2.815-2.621-4.314-.863-1.46-1.805-3.182-2.557-4.514-3.137-5.668-6.369-11.386-9.388-16.715-3.478-6.1-6.792-11.9-10.029-17.4-1.625-2.741-3.2-5.431-4.792-8.022l-4.827-7.867c-3.148-5.327-5.584-10.162-8.125-14.477-1.266-2.155-2.548-4.164-3.9-6.043a24.62,24.62,0,0,0-4.483-4.905Z" transform="translate(-433.752 -237.151)" fill="#14b6a1"/>
              <path id="Trazado_26110" data-name="Trazado 26110" d="M435.371,240.8a29.4,29.4,0,0,1,7.18,4.865,66.725,66.725,0,0,1,5.628,5.618c3.469,3.877,6.511,7.913,9.58,11.834l4.669,5.9q2.312,3.015,4.5,6.1,4.356,6.189,8.149,12.691a216.1,216.1,0,0,1,13.2,26.838c3.7,9.335,8.257,18.455,10.975,27.525" transform="translate(-433.326 -236.191)" fill="none" stroke="#148b7a" stroke-linecap="round" stroke-linejoin="round" stroke-width="1.126"/>
              <path id="Trazado_26111" data-name="Trazado 26111" d="M478.973,301.933c-1.028,2.667-2.016,5.364-3.005,8.043" transform="translate(-422.639 -220.097)" fill="none" stroke="#148b7a" stroke-linecap="round" stroke-linejoin="round" stroke-width="1.126"/>
              <path id="Trazado_26112" data-name="Trazado 26112" d="M476.2,296.759c3,.422,5.993.91,9.01,1.438" transform="translate(-422.578 -221.459)" fill="none" stroke="#148b7a" stroke-linecap="round" stroke-linejoin="round" stroke-width="1.126"/>
              <path id="Trazado_26113" data-name="Trazado 26113" d="M471.919,285.74c-1.386,2.4-2.782,4.738-4.238,7.07" transform="translate(-424.82 -224.36)" fill="none" stroke="#148b7a" stroke-linecap="round" stroke-linejoin="round" stroke-width="1.126"/>
              <path id="Trazado_26114" data-name="Trazado 26114" d="M466.8,278.009q5.181.79,10.407,1.887" transform="translate(-425.052 -226.395)" fill="none" stroke="#148b7a" stroke-linecap="round" stroke-linejoin="round" stroke-width="1.126"/>
              <path id="Trazado_26115" data-name="Trazado 26115" d="M462.274,269.66c-1.12,3.425-2.3,6.768-3.6,10.079" transform="translate(-427.191 -228.593)" fill="none" stroke="#148b7a" stroke-linecap="round" stroke-linejoin="round" stroke-width="1.126"/>
              <path id="Trazado_26116" data-name="Trazado 26116" d="M451.863,256.882c2.614.286,5.221.565,7.776.731" transform="translate(-428.984 -231.957)" fill="none" stroke="#148b7a" stroke-linecap="round" stroke-linejoin="round" stroke-width="1.126"/>
            </g>
            <g id="Grupo_15913" data-name="Grupo 15913" transform="translate(0 118.658)">
              <path id="Trazado_26117" data-name="Trazado 26117" d="M391.648,170.964a11.612,11.612,0,0,0-3.6,3.238,10.659,10.659,0,0,0-1.713,3.812l-.059.075c-4.05,10.405-6.03,19.626-5.82,25.175.3,9.92,4.262,17.684-1.03,26.6-.782,1.326-3.956,6.584-8.4,6.967-2.331.221-3.682-.987-10.437-5.567-8.164-5.579-10.062-6.513-11.746-5.819-2.057.843-2.748,3.71-3.221,5.8-1.15,4.994,1.067,6.873-.234,11.708-.351,1.4-1.051,4.049-2.97,4.711-1.982.681-3.38-1.4-4.848-.889-2.769.994.465,9.388-2.237,16.464-1.42,3.978-5.08,8.036-8.7,7.461-2.313-.4-3.9-2.722-5.4-4.982-4.689-7.016-2.943-12.675-6.815-14.724-.28-.147-2.115-1.074-3.593-.332-2.539,1.271-.946,5.772-3.641,11.4-.716,1.5-2.372,4.982-4.682,5.044-2.437.058-3.123-3.825-5.774-3.989-2.288-.144-3.025,2.673-6.992,5.618-.822.635-7.046,5.15-10.779,3.169-2.576-1.364-3.84-5.645-3.374-9.182.6-4.539,4.112-7.576,8.291-11.046s8.978-7.3,12.233-13.238c1.048-1.9,1.923-3.974,1.436-6.08-.826-3.605-4.984-3.8-6.408-6.646-1-2.026-.656-5.134.8-8.2a18.489,18.489,0,0,1,2.818-4.3,13.841,13.841,0,0,1,3.883-3.154c3.758-2.011,6.984-1.069,10.783-.048s8.173,2.15,14.15.834c1.163-.27,7.794-1.756,8.133-4.625.327-2.7-5.2-3.622-7.825-8.877-2.044-4.1-1.991-10.246.817-13.608,2.044-2.492,5.3-2.948,21.468-1.952,16.039.8,18.255,1.355,22.927-.253a25.3,25.3,0,0,0,11.492-8.681l-.513.627a23.654,23.654,0,0,1,8.445-8.018c-.143,1.285.836,1.956,1.664,2.713A3.386,3.386,0,0,1,391.648,170.964Z" transform="translate(-275.49 -165.45)" fill="#13a995"/>
              <path id="Trazado_26118" data-name="Trazado 26118" d="M386.285,168.068a15.865,15.865,0,0,0-2.039,1.315,17.62,17.62,0,0,0-4.339,4.755l.341-.417c-2.593,3.383-6.434,8.156-11.149,13.3-4.69,5.138-10.356,10.609-16.043,15.791-5.7,5.167-11.42,10.05-16.245,14.062s-8.763,7.155-11.1,8.673c-2.869,1.878-7.125,4.725-11.786,8.125-4.665,3.384-9.709,7.428-14.232,11.348-4.541,3.91-8.63,7.641-11.618,10.337l-4.862,4.387" transform="translate(-273.457 -164.761)" fill="none" stroke="#148b7a" stroke-linecap="round" stroke-linejoin="round" stroke-width="1.556"/>
              <path id="Trazado_26119" data-name="Trazado 26119" d="M322.216,214.515c-8.394-1.822-16.919-3.425-25.724-4.538" transform="translate(-269.961 -153.728)" fill="#f29c1f" stroke="#148b7a" stroke-linecap="round" stroke-linejoin="round" stroke-width="1.556"/>
              <path id="Trazado_26120" data-name="Trazado 26120" d="M313.567,215.753a241.511,241.511,0,0,0,3.753,28.266" transform="translate(-265.466 -152.208)" fill="#f29c1f" stroke="#148b7a" stroke-linecap="round" stroke-linejoin="round" stroke-width="1.556"/>
              <path id="Trazado_26121" data-name="Trazado 26121" d="M350.905,190.156c-9.286-1.105-18.378-2.63-27.522-4.189" transform="translate(-262.882 -160.049)" fill="#f29c1f" stroke="#148b7a" stroke-linecap="round" stroke-linejoin="round" stroke-width="1.556"/>
              <path id="Trazado_26122" data-name="Trazado 26122" d="M342.771,191.6c2.6,8.732,4.956,17.573,7.233,26.449" transform="translate(-257.778 -158.566)" fill="#f29c1f" stroke="#148b7a" stroke-linecap="round" stroke-linejoin="round" stroke-width="1.556"/>
              <path id="Trazado_26123" data-name="Trazado 26123" d="M322.858,208.99c1.008,5.939,2.053,11.856,3.212,17.723" transform="translate(-263.02 -153.988)" fill="#f29c1f" stroke="#148b7a" stroke-linecap="round" stroke-linejoin="round" stroke-width="1.556"/>
            </g>
            <g id="Grupo_15914" data-name="Grupo 15914" transform="translate(304.162 93.569)">
              <path id="Trazado_26124" data-name="Trazado 26124" d="M516.268,214.888a2.526,2.526,0,0,1,.639-1.414,9.631,9.631,0,0,1,1-1.07c.7-.658,1.434-1.254,2.175-1.838l4.41-3.346c1.421-1.081,2.774-2.145,4.016-3.2a17.354,17.354,0,0,0,1.689-1.553,12.243,12.243,0,0,0,1.211-1.536l.4-.6.481-.628q.47-.631.888-1.247c.558-.815,1.052-1.627,1.483-2.4a21.94,21.94,0,0,0,1.861-4.276c1.276-4.25,1.526-8.358,2.239-12.14s1.865-7.247,5.1-10.333a17.859,17.859,0,0,1,3.345-2.566,7.915,7.915,0,0,1,5.514-1.261c2.025.435,2.914,1.862,7.717,7.717,5.835,7.1,7.328,8.394,8.989,8.19,2.051-.254,3.364-2.672,4.316-4.436,2.278-4.224.755-6.464,3.2-10.51.706-1.171,2.045-3.4,4.032-3.512,2.045-.115,2.743,2.12,4.251,2.035,1.457-.081,2.016-2.228,2.878-5.064a35.4,35.4,0,0,1,1.671-4.6,18.124,18.124,0,0,1,1.3-2.371,17.669,17.669,0,0,1,1.979-2.385c3.542-3.56,9.189-6.162,12.253-4.382,1.973,1.143,2.4,3.756,2.807,6.268,1.266,7.789-2.557,12.212.181,15.309a4.2,4.2,0,0,0,3.079,1.525c2.7-.2,3.075-4.693,7.633-8.5,1.211-1.006,3.958-3.33,5.913-2.481,2.079.9,1.2,4.457,3.383,5.62,1.882.992,3.578-1.093,7.967-2.164.942-.208,7.683-1.961,10.4.865,1.885,1.974,1.67,6.176-.092,9.2-2.252,3.878-6.693,5.368-11.674,6.767s-10.558,2.741-15.3,6.556c-1.515,1.217-2.9,2.66-3.122,4.627-.37,3.353,2.94,5.052,3.272,7.985.245,2.077-.848,4.535-2.563,6.561a13.012,13.012,0,0,1-3.01,2.628,11.789,11.789,0,0,1-4.03,1.494c-7.321,1.179-10.259-6.943-21.614-7.606-1.1-.062-7.427-.369-8.46,2.154-.976,2.366,3.787,4.544,4.843,9.94.82,4.2-.779,9.764-4.339,12.193-1.3.886-2.744,1.277-5.747.838-.75-.11-1.6-.273-2.564-.493-.939-.243-1.966-.562-3.168-.927-2.386-.742-5.374-1.718-9.166-2.985-7.538-2.508-11.825-4.169-14.771-5.232a23.684,23.684,0,0,0-7.107-1.684c-.4-.03-.808-.051-1.244-.066l-.678-.013-.822.04c-.644.037-1.324.048-2.034.059l-2,.044a24.76,24.76,0,0,0-4.02.469,20.481,20.481,0,0,0-4.313,1.358,11.763,11.763,0,0,0-1.976,1.117,5.863,5.863,0,0,0-1.748,1.752,4.338,4.338,0,0,0-1.5-2.3A4.61,4.61,0,0,1,516.268,214.888Z" transform="translate(-516.268 -145.59)" fill="#13a995"/>
              <path id="Trazado_26125" data-name="Trazado 26125" d="M518.09,211.258a7.1,7.1,0,0,1,.925-.635,21.072,21.072,0,0,1,2.822-1.381c1.3-.538,2.969-1.143,4.928-1.774l3.149-.976c1.066-.344,2.442-.667,3.743-1.187,9.6-3.781,20.95-9.44,31.212-14.294,10.217-4.932,19.205-9.027,23.279-10.259l12.77-3.969c5.107-1.659,10.716-3.509,16.019-5.146l13.821-4.362,5.877-1.947" transform="translate(-515.788 -140.394)" fill="none" stroke="#148b7a" stroke-linecap="round" stroke-linejoin="round" stroke-width="1.454"/>
              <path id="Trazado_26126" data-name="Trazado 26126" d="M573.549,177.538q10.645,5.723,21.518,11.349" transform="translate(-501.189 -137.18)" fill="#f29c1f" stroke="#148b7a" stroke-linecap="round" stroke-linejoin="round" stroke-width="1.454"/>
              <path id="Trazado_26127" data-name="Trazado 26127" d="M577.077,181.966l2.692-13.154c.455-2.2.829-4.341,1.335-6.589l1.507-6.7" transform="translate(-500.26 -142.975)" fill="#f29c1f" stroke="#148b7a" stroke-linecap="round" stroke-linejoin="round" stroke-width="1.454"/>
              <path id="Trazado_26128" data-name="Trazado 26128" d="M541.73,192.024l11.933,5.638c3.977,1.868,7.846,3.795,11.878,5.566" transform="translate(-509.565 -133.366)" fill="#f29c1f" stroke="#148b7a" stroke-linecap="round" stroke-linejoin="round" stroke-width="1.454"/>
              <path id="Trazado_26129" data-name="Trazado 26129" d="M544.578,196.007c.261-8.516.409-17.011.729-25.554" transform="translate(-508.816 -139.045)" fill="#f29c1f" stroke="#148b7a" stroke-linecap="round" stroke-linejoin="round" stroke-width="1.454"/>
              <line id="Línea_461" data-name="Línea 461" y1="16.766" x2="1.611" transform="translate(64.071 26.871)" fill="#f29c1f" stroke="#148b7a" stroke-linecap="round" stroke-linejoin="round" stroke-width="1.454"/>
            </g>
            <g id="Grupo_15915" data-name="Grupo 15915" transform="translate(187.27)">
              <path id="Trazado_26130" data-name="Trazado 26130" d="M423.735,185.086a78.032,78.032,0,0,1,7.115-19.316q1.239-2.412,2.614-4.807c.442-.776.945-1.626,1.463-2.461l1.559-2.456c2.1-3.22,4.265-6.237,6.256-9.083l3.119-4.462q1.662-2.323,3.373-4.713c2.322-3.195,4.8-6.494,7.478-9.856s5.57-6.79,8.711-10.216,6.593-6.859,10.222-10.121A178.661,178.661,0,0,1,495.8,92.1a215.922,215.922,0,0,1,20.629-12.142c3.26-1.664,6.194-3.1,9.186-4.362a78.821,78.821,0,0,1,7.725-2.583,52.282,52.282,0,0,1,5.69-1.366c1.534-.229,2.691-.181,3.329.465.627.618.712,1.838.22,3.482a22.072,22.072,0,0,1-2.994,5.749c-1.415,2.091-3.223,4.291-4.771,6.353-.644.92-1.712,2.256-2.76,3.53s-2.168,2.6-3.336,3.955c-4.663,5.394-10.119,11.223-15.659,17.048l-16.282,17.114c-11.669,12.309-22.833,24.717-34.638,34.753-2.937,2.473-5.724,4.6-8.31,6.635-2.545,1.985-5.068,4.1-7.4,6.1A98.8,98.8,0,0,0,434.2,188.946Z" transform="translate(-423.735 -71.519)" fill="#14b6a1"/>
              <path id="Trazado_26131" data-name="Trazado 26131" d="M428.185,184.573a84.856,84.856,0,0,1,10.356-16.527q1.461-1.872,2.964-3.684c1.016-1.229,2.058-2.425,3.1-3.591,2.093-2.334,4.213-4.565,6.275-6.8,8.182-8.969,16.032-18.532,24.383-27.529a275.554,275.554,0,0,1,26.72-25.11c4.683-3.91,9.457-7.712,14.273-11.477l7.254-5.625,3.643-2.806c1.2-.927,2.289-1.7,3.54-2.574" transform="translate(-422.564 -69.589)" fill="none" stroke="#148b7a" stroke-linecap="round" stroke-linejoin="round" stroke-width="1.379"/>
              <path id="Trazado_26132" data-name="Trazado 26132" d="M489.329,94.4c3.469.284,6.916.6,10.364.946" transform="translate(-406.468 -65.496)" fill="none" stroke="#148b7a" stroke-linecap="round" stroke-linejoin="round" stroke-width="1.379"/>
              <path id="Trazado_26133" data-name="Trazado 26133" d="M484.4,101.094c-.591-3.666-1.121-7.348-1.617-11.052" transform="translate(-408.19 -66.643)" fill="none" stroke="#148b7a" stroke-linecap="round" stroke-linejoin="round" stroke-width="1.379"/>
              <path id="Trazado_26134" data-name="Trazado 26134" d="M473,108.8q4.94,1.145,9.8,2.441" transform="translate(-410.766 -61.706)" fill="none" stroke="#148b7a" stroke-linecap="round" stroke-linejoin="round" stroke-width="1.379"/>
              <path id="Trazado_26135" data-name="Trazado 26135" d="M465.769,119.207c-.605-4.236-1.134-8.522-1.51-12.865" transform="translate(-413.067 -62.352)" fill="none" stroke="#148b7a" stroke-linecap="round" stroke-linejoin="round" stroke-width="1.379"/>
              <path id="Trazado_26136" data-name="Trazado 26136" d="M457.4,125.533c4.387.269,8.772.561,13.129.912" transform="translate(-414.872 -57.3)" fill="none" stroke="#148b7a" stroke-linecap="round" stroke-linejoin="round" stroke-width="1.379"/>
              <path id="Trazado_26137" data-name="Trazado 26137" d="M444.626,142.1c-.152-3.235-.382-6.377-.681-9.527" transform="translate(-418.415 -55.448)" fill="none" stroke="#148b7a" stroke-linecap="round" stroke-linejoin="round" stroke-width="1.379"/>
            </g>
          </g>
        </g>
        <circle id="Elipse_1067" data-name="Elipse 1067" cx="10.173" cy="10.173" r="10.173" transform="translate(49.713 322.32)" fill="#14b6a1" opacity="0.2"/>
      </g>
      <g id="OBJECTS" transform="translate(84.409 122.067)">
        <g id="Grupo_15980" data-name="Grupo 15980">
          <g id="Grupo_15918" data-name="Grupo 15918" transform="translate(575.789 205.063)">
            <path id="Trazado_26138" data-name="Trazado 26138" d="M539.43,445.357a18,18,0,0,1,.327-4.1l.217-1.036.27-1.06.211-.83.157-.67c.5-1.985,1.07-3.926,1.657-5.8q1.669-5.11,3.488-10.671c2.4-7.185,5.1-14.928,8.188-23.143s6.561-16.9,10.537-25.975q2.983-6.8,6.352-13.889,1.688-3.538,3.488-7.139c1.208-2.409,2.51-4.966,3.839-7.432,4.486-8.355,9.745-16.987,15.063-25.235s10.688-16.158,15.546-23.129q.957-1.366,1.883-2.693.961-1.332,1.915-2.547c1.273-1.618,2.525-3.1,3.733-4.466,2.418-2.731,4.649-5.052,6.613-7.022,3.941-3.89,6.862-6.527,8.925-5.874,1,.321,1.762,1.493,2.19,3.392a25,25,0,0,1,.23,7.554,86.268,86.268,0,0,1-1.676,9.956q-.546,2.507-1.142,5.249c-.181.865-.366,1.733-.519,2.574l-.124.637-.178.792q-.186.8-.374,1.614a246.267,246.267,0,0,1-8.505,27.688c-3.454,9.454-7.318,18.81-11.038,27.333l-1.6,3.634q-.839,1.863-1.669,3.706-1.688,3.687-3.437,7.249c-2.327,4.747-4.74,9.324-7.2,13.725a269.179,269.179,0,0,1-15.285,24.237,247.4,247.4,0,0,1-15.566,19.785c-2.538,2.945-5.115,5.657-7.448,8.159-1.172,1.266-2.3,2.509-3.364,3.763-.542.653-1.059,1.22-1.5,1.88a6.041,6.041,0,0,0-.944,2.067Z" transform="translate(-539.416 -272.553)" fill="#14b6a1"/>
            <path id="Trazado_26139" data-name="Trazado 26139" d="M544.866,442.519a13.817,13.817,0,0,1,1.05-3.521c.246-.571.456-1,.657-1.414l.659-1.343c.891-1.77,1.822-3.461,2.754-5.093l5.467-9.5q5.374-9.5,10.492-19.18c6.839-12.9,13.384-25.991,19.777-39.173,3.2-6.592,6.32-13.221,9.589-19.762l9.879-19.626c3.3-6.552,6.571-13.139,9.718-19.825l2.338-5.031,2.261-4.986c1.468-3.139,3.146-6.3,4.841-9.6" transform="translate(-537.981 -269.418)" fill="none" stroke="#148b7a" stroke-linecap="round" stroke-linejoin="round" stroke-width="1.646"/>
            <path id="Trazado_26140" data-name="Trazado 26140" d="M594.523,312.791c3.922-1.41,7.845-2.844,11.767-4.329" transform="translate(-524.909 -263.101)" fill="none" stroke="#148b7a" stroke-linecap="round" stroke-linejoin="round" stroke-width="1.646"/>
            <line id="Línea_462" data-name="Línea 462" x1="7.003" y1="11.307" transform="translate(57.935 47.685)" fill="none" stroke="#148b7a" stroke-linecap="round" stroke-linejoin="round" stroke-width="1.646"/>
            <line id="Línea_463" data-name="Línea 463" y1="1.378" x2="12.015" transform="translate(54.83 77.813)" fill="none" stroke="#148b7a" stroke-linecap="round" stroke-linejoin="round" stroke-width="1.646"/>
            <line id="Línea_464" data-name="Línea 464" x1="6.556" y1="13.831" transform="translate(41.187 80.045)" fill="none" stroke="#148b7a" stroke-linecap="round" stroke-linejoin="round" stroke-width="1.646"/>
            <line id="Línea_465" data-name="Línea 465" y1="3.081" x2="15.456" transform="translate(39.717 107.109)" fill="none" stroke="#148b7a" stroke-linecap="round" stroke-linejoin="round" stroke-width="1.646"/>
            <line id="Línea_466" data-name="Línea 466" x1="3.595" y1="10.914" transform="translate(22.63 125.401)" fill="none" stroke="#148b7a" stroke-linecap="round" stroke-linejoin="round" stroke-width="1.646"/>
          </g>
          <g id="Grupo_15919" data-name="Grupo 15919" transform="translate(587.754 279.943)">
            <path id="Trazado_26141" data-name="Trazado 26141" d="M549.1,428.273a6.941,6.941,0,0,1,0-3.441,11.614,11.614,0,0,1,1.241-2.914c1.024-1.776,2.075-3.482,3.164-5.177,2.166-3.372,4.468-6.487,6.526-9.362q1.542-2.158,2.88-4.136a35.935,35.935,0,0,0,2.164-3.724,29.887,29.887,0,0,0,2.53-6.4c2.7-10.717.555-20.333,7.716-28.087,1.075-1.165,5.23-5.782,9.892-4.98,2.441.421,3.626,2.124,9.991,8.888,7.727,8.21,9.721,9.632,11.69,9.234,2.48-.5,3.681-3.523,4.732-5.845,2.462-5.438.349-8.03,2.922-13.267.74-1.508,2.122-4.375,4.444-4.7,2.405-.339,3.493,2.312,5.259,2.055,1.68-.243,2.029-2.912,2.5-6.411s1.119-7.785,3-11.381c2.023-3.874,6.924-7.9,10.806-6.513,2.51.9,3.893,3.8,5.2,6.628,4.059,8.764,1.06,14.852,5.061,17.88.288.219,2.19,1.609,4,1.051,3.094-.956,2.13-6.352,6.07-12.193,1.05-1.555,3.435-5.169,6.019-4.841,2.745.35,2.945,4.846,5.911,5.461,2.559.532,3.814-2.539,8.678-5.3,1.027-.581,8.555-4.922,12.625-2.328,2.821,1.8,3.839,6.834,2.812,10.9-1.316,5.206-5.9,8.358-11.3,11.738s-11.585,6.943-16.411,13.1c-1.544,1.969-2.93,4.159-2.778,6.64.259,4.233,4.956,5.22,6.013,8.714a7.871,7.871,0,0,1-.115,4.3,16.385,16.385,0,0,1-2.561,4.967,20.08,20.08,0,0,1-9.536,7.32c-4.786,1.529-8.235-.22-12.293-2.2s-8.728-4.217-15.645-4.05a30.491,30.491,0,0,0-5.115.552c-2.14.445-4.385,1.347-4.911,2.959-.987,3.022,5.2,5.1,7.063,11.589,1.453,5.059-.126,12.121-4.512,15.5-1.6,1.228-3.422,1.865-7.278,1.593s-9.742-1.434-19.243-4.069c-9.41-2.609-14.564-4.448-18.174-5.553a26.969,26.969,0,0,0-8.582-1.515,21.052,21.052,0,0,0-9.074,1.671,16.822,16.822,0,0,0-4.888,3.258c-.315.3-.951.9-1.339,1.309-.211.222-.341.387-.513.594s-.347.441-.512.677a5.251,5.251,0,0,0-1.017,3.585,5.474,5.474,0,0,0-2.576-1.928A5.241,5.241,0,0,1,549.1,428.273Z" transform="translate(-548.887 -331.83)" fill="#ee5e43"/>
            <path id="Trazado_26142" data-name="Trazado 26142" d="M551.335,424.925a4.646,4.646,0,0,1,.254-.747,7.2,7.2,0,0,1,1.194-1.852c.316-.368.662-.736,1.06-1.121.456-.442.96-.91,1.5-1.415a42.99,42.99,0,0,1,3.562-3,76.315,76.315,0,0,1,10.731-6.47c4.363-2.257,9.056-4.747,13.859-7.285,9.61-5.078,19.551-10.551,27.88-15.307s15.192-8.547,18.839-10.028,9.046-3.767,15.031-6.619a202.323,202.323,0,0,0,18.313-10.112c5.864-3.61,11.182-7.145,15.022-9.772s6.243-4.3,6.243-4.3" transform="translate(-548.242 -327.864)" fill="none" stroke="#c4422b" stroke-linecap="round" stroke-linejoin="round" stroke-width="1.784"/>
            <path id="Trazado_26143" data-name="Trazado 26143" d="M613.773,371.284a256.127,256.127,0,0,0,28.179,10.53" transform="translate(-531.805 -321.443)" fill="#f29c1f" stroke="#c4422b" stroke-linecap="round" stroke-linejoin="round" stroke-width="1.784"/>
            <path id="Trazado_26144" data-name="Trazado 26144" d="M617.949,376.306c1.215-11.008,1.977-21.974,1.377-32.469" transform="translate(-530.706 -328.669)" fill="#f29c1f" stroke="#c4422b" stroke-linecap="round" stroke-linejoin="round" stroke-width="1.784"/>
            <path id="Trazado_26145" data-name="Trazado 26145" d="M576.035,391.74c9.924,4.2,20,8.22,30.356,11.953" transform="translate(-541.74 -316.059)" fill="#f29c1f" stroke="#c4422b" stroke-linecap="round" stroke-linejoin="round" stroke-width="1.784"/>
            <path id="Trazado_26146" data-name="Trazado 26146" d="M579.667,396.435c-.188-10.452-.531-20.874-1.083-31.239" transform="translate(-541.069 -323.046)" fill="none" stroke="#c4422b" stroke-linecap="round" stroke-linejoin="round" stroke-width="1.784"/>
            <path id="Trazado_26147" data-name="Trazado 26147" d="M606.037,379.483c.082-6.9.2-13.819.2-20.691" transform="translate(-533.842 -324.732)" fill="#f29c1f" stroke="#c4422b" stroke-linecap="round" stroke-linejoin="round" stroke-width="1.784"/>
          </g>
          <g id="Grupo_15920" data-name="Grupo 15920" transform="translate(518.935 317.895)">
            <path id="Trazado_26148" data-name="Trazado 26148" d="M545.557,413.869a54.518,54.518,0,0,1-51.148-29.124,108.161,108.161,0,0,0,10.525,6.526c9.519,5.172,14.772,6.166,22.074,9.716A75.533,75.533,0,0,1,545.557,413.869Z" transform="translate(-494.409 -355.852)" fill="#12a189"/>
            <path id="Trazado_26149" data-name="Trazado 26149" d="M542.633,417.2A66.5,66.5,0,0,1,517.7,400.536a43.8,43.8,0,0,1-8.785-12.91,41.931,41.931,0,0,1-3.394-16.974,73.511,73.511,0,0,0,11.09,15.616c5.2,5.592,8.379,7.246,13.26,12.3A69.889,69.889,0,0,1,542.633,417.2Z" transform="translate(-491.485 -359.562)" fill="#12a189"/>
            <path id="Trazado_26150" data-name="Trazado 26150" d="M539.17,418.648a54.507,54.507,0,0,1-18.907-55.738,203.961,203.961,0,0,1,18.907,55.738Z" transform="translate(-488.022 -361.6)" fill="#12a189"/>
            <path id="Trazado_26151" data-name="Trazado 26151" d="M537.15,420.462c-8.339-13.438-8.8-22.834-7.582-29.015.75-3.8,2.454-7.99,2.454-14.863a43.777,43.777,0,0,0-2.6-14.711,31.669,31.669,0,0,1,9.631,12.816c1.383,3.509,2.274,7.826.925,23.369C539.485,403.693,538.653,411.357,537.15,420.462Z" transform="translate(-485.286 -361.873)" fill="#12a189"/>
            <path id="Trazado_26152" data-name="Trazado 26152" d="M535.539,419.195a93.1,93.1,0,0,1,3.217-29.816c2.286-8.142,4.624-11.848,6.53-14.287a34.526,34.526,0,0,1,13.124-10.13,57.858,57.858,0,0,0-7.24,13.186c-3.324,8.556-2.808,13.422-5.033,21.106A57.208,57.208,0,0,1,535.539,419.195Z" transform="translate(-483.613 -361.06)" fill="#12a189"/>
            <path id="Trazado_26153" data-name="Trazado 26153" d="M534.608,416.727a54.513,54.513,0,0,1,40.64-42.575,203.878,203.878,0,0,1-40.64,42.575Z" transform="translate(-483.827 -358.641)" fill="#12a189"/>
            <path id="Trazado_26154" data-name="Trazado 26154" d="M533.14,412.937a58.168,58.168,0,0,1,55.817-23.792c-17.1,5.456-26.777,11.41-32.618,16.2-2.687,2.206-9.7,8.383-18.969,8.14A20.708,20.708,0,0,1,533.14,412.937Z" transform="translate(-484.213 -354.853)" fill="#12a189"/>
          </g>
          <g id="Grupo_15921" data-name="Grupo 15921" transform="translate(0 249.154)">
            <path id="Trazado_26155" data-name="Trazado 26155" d="M164.626,426.056a75.266,75.266,0,0,1-23.745-2.285,71.152,71.152,0,0,1-9.871-3.339c-7.27-3.092-23.906-11.105-23.178-18.742.695-7.281,16.938-10.139,19.011-10.407a54.913,54.913,0,0,1-23.311-5.949,77.647,77.647,0,0,1-11.5-7.025,30.017,30.017,0,0,1-6.046-5.886,13.173,13.173,0,0,1-1.8-3.3,9.676,9.676,0,0,1-.567-3.548c.144-6.555,8.912-11.244,20.164-11.938a65.563,65.563,0,0,1-4.775-6.088,70.537,70.537,0,0,1-4.91-8.307c-.385-.764-1.235-2.476-2.225-4.593-1-2.132-2.093-4.651-3.2-7.28-2.255-5.336-4.84-11.82-2.073-15.873,1.69-2.475,4.747-3.526,7.836-3.9a29.162,29.162,0,0,1,8,.347,25.03,25.03,0,0,1,7.629,2.721,33.806,33.806,0,0,1,6.042,4.236,43.664,43.664,0,0,1,6.71,7.5c3.989,5.453,4.7,7.116,5.614,10.222,1.371-6.881,4.06-11.819,7.175-14.894a12.086,12.086,0,0,1,9.865-3.812,7.608,7.608,0,0,1,2.849,1.006,11.4,11.4,0,0,1,2.6,2.274,31.708,31.708,0,0,1,4.429,6.952,73.447,73.447,0,0,1,4.38,11.708,50.036,50.036,0,0,1-.656,29.608c2.2-4.035,9.67-17.7,16.543-15.556,3.973,1.237,6.678,7.476,8.308,14.718a97.455,97.455,0,0,1,2.127,20.668,70.461,70.461,0,0,1-1.911,15.52,63.418,63.418,0,0,1-7.1,17.871,52.6,52.6,0,0,1-4.479,6.391A71.256,71.256,0,0,1,164.626,426.056Z" transform="translate(-83.614 -307.456)" fill="#ee5f43"/>
            <path id="Trazado_26156" data-name="Trazado 26156" d="M175.749,434.2s-1-1.8-2.654-4.97c-.827-1.585-1.822-3.512-3.008-5.686s-2.631-4.575-4.2-7.227c-6.278-10.6-15.2-24.5-24.94-38.235s-20.1-27.4-28.345-38.144c-4.128-5.384-7.587-10.121-10.365-13.627s-4.824-5.819-5.578-6.774" transform="translate(-80.181 -304.275)" fill="none" stroke="#c4422b" stroke-linecap="round" stroke-linejoin="round" stroke-width="2.019"/>
            <path id="Trazado_26157" data-name="Trazado 26157" d="M122.677,361.842c2.854-13.3,5.441-26.748,7.931-40.214" transform="translate(-73.331 -303.726)" fill="none" stroke="#c4422b" stroke-linecap="round" stroke-linejoin="round" stroke-width="2.019"/>
            <path id="Trazado_26158" data-name="Trazado 26158" d="M133.437,357.8c-13.287-1.219-26.514-2.12-39.727-2.9" transform="translate(-80.956 -294.967)" fill="none" stroke="#c4422b" stroke-linecap="round" stroke-linejoin="round" stroke-width="2.019"/>
            <path id="Trazado_26159" data-name="Trazado 26159" d="M145.862,394.157c3.686-12.293,6.882-24.938,9.772-37.694" transform="translate(-67.227 -294.556)" fill="none" stroke="#c4422b" stroke-linecap="round" stroke-linejoin="round" stroke-width="2.019"/>
            <path id="Trazado_26160" data-name="Trazado 26160" d="M156.163,390.757c-14.016-2.41-27.881-4.074-41.722-5.342" transform="translate(-75.499 -286.934)" fill="none" stroke="#c4422b" stroke-linecap="round" stroke-linejoin="round" stroke-width="2.019"/>
          </g>
          <g id="Grupo_15922" data-name="Grupo 15922" transform="translate(50.789 223.685)">
            <path id="Trazado_26161" data-name="Trazado 26161" d="M171.341,443.454a11.676,11.676,0,0,0-2.131-3.283,37.793,37.793,0,0,1-2.844-4.253c-.848-1.452-1.6-2.969-2.419-4.274a68.717,68.717,0,0,0-4.972-7.175,38.776,38.776,0,0,0-9.4-8.891c-4.308-2.624-8.695-4.118-12.6-6.059-3.911-1.976-7.309-4.21-9.745-8.913-.721-1.372-3.589-6.976-1.469-11.232,1.105-2.207,2.909-2.78,10.724-6.233,9.486-4.155,11.377-5.287,11.728-7.2.429-2.345-1.67-4.66-3.2-6.384-3.648-4.138-6.568-3.321-9.92-7.755-.971-1.283-2.8-3.78-2.137-6.1.691-2.381,3.288-2.159,3.814-3.891.5-1.669-1.5-3.265-4.074-5.608s-5.711-5.437-7.437-9.822c-2.01-5.146-2.148-11.827,1.024-14.061,2.045-1.463,4.91-.769,7.668-.095,8.553,2.073,11.36,7.9,15.753,6.517.318-.1,2.356-.777,2.94-2.441.994-2.832-3.426-5.206-5.368-11.412a19.721,19.721,0,0,1-.851-3.508,4.336,4.336,0,0,1,.806-3.567c.911-1.107,2.188-.867,3.5-.661s2.671.39,3.746-.572c1.866-1.6.541-4.572,2-9.613a25.816,25.816,0,0,1,1.926-4.812c1.132-2.1,2.7-4.2,4.831-4.733a6.378,6.378,0,0,1,4.805,1.081,11.951,11.951,0,0,1,3.987,4.318c2.419,4.492,1.237,9.217.417,13.68-.109.6-.191,1.059-.283,1.742q-.119,1.126-.243,2.278c-.155,1.532-.284,3.094-.337,4.678a32.564,32.564,0,0,0,.977,9.748c.574,2.117,1.425,4.213,3.336,5.338,3.255,1.92,6.486-.747,9.631.251,2.23.7,4.25,2.985,5.533,5.717a13.077,13.077,0,0,1,1.114,8.62c-.936,3.548-3.785,5.249-7.073,7.424s-7.011,4.82-9.493,10.386c-.493,1.056-3.12,7.393-.8,9.292,2.16,1.75,6.149-2.36,12.236-1.665,4.736.534,10.045,3.747,11.412,7.884.5,1.516.428,3.028-1.03,5.885s-4.289,7.051-9.218,14.188c-9.8,14.518-11.815,15.991-13.349,21.124a29.362,29.362,0,0,0-1.217,8.3c-.006.844.02,1.726.085,2.648.061.884.183,1.991.293,2.715a12.644,12.644,0,0,0,1.875,4.991q.316.451.658.934c.287.489.587,1.036.85,1.584-1.261-.088-2.094.721-3,1.48A4.48,4.48,0,0,1,171.341,443.454Z" transform="translate(-123.819 -287.295)" fill="#13a995"/>
            <path id="Trazado_26162" data-name="Trazado 26162" d="M166.59,437.555l-.206-.472c-.116-.238-.292-.6-.531-1.089a22.654,22.654,0,0,1-1.713-5.057c-.517-2.61-1.146-5.787-1.852-9.345-1.415-7.252-3.1-16.074-4.728-24.958-1.671-8.862-3.125-17.838-4.011-25.432a111.8,111.8,0,0,1-1.05-17.035c.222-3.571.567-8.887,1.118-14.828s1.286-12.529,1.935-18.706c.306-3.1.6-6.086.873-8.825.226-2.732.432-5.215.606-7.312.181-1.93.431-3.528.611-4.642l.3-1.745" transform="translate(-116.284 -284.448)" fill="none" stroke="#148b7a" stroke-linecap="round" stroke-linejoin="round" stroke-width="1.624"/>
            <path id="Trazado_26163" data-name="Trazado 26163" d="M152.488,345.971c6.75-5.914,13.652-11.427,20.672-16.729" transform="translate(-116.272 -276.252)" fill="#f29c1f" stroke="#148b7a" stroke-linecap="round" stroke-linejoin="round" stroke-width="1.624"/>
            <path id="Trazado_26164" data-name="Trazado 26164" d="M157.931,342.058c-8.413-5.515-16.672-11.583-24.838-17.637" transform="translate(-121.378 -277.521)" fill="#f29c1f" stroke="#148b7a" stroke-linecap="round" stroke-linejoin="round" stroke-width="1.624"/>
            <path id="Trazado_26165" data-name="Trazado 26165" d="M157.418,385.685c6.353-7.545,12.639-14.916,19.133-22.03" transform="translate(-114.974 -267.193)" fill="#f29c1f" stroke="#148b7a" stroke-linecap="round" stroke-linejoin="round" stroke-width="1.624"/>
            <path id="Trazado_26166" data-name="Trazado 26166" d="M162.478,379.386c-9.111-2.662-18.243-5.412-27.343-8.33" transform="translate(-120.84 -265.245)" fill="#f29c1f" stroke="#148b7a" stroke-linecap="round" stroke-linejoin="round" stroke-width="1.624"/>
            <path id="Trazado_26167" data-name="Trazado 26167" d="M156.3,352.077q-8.561-3.947-17.044-8.255" transform="translate(-119.755 -272.414)" fill="#f29c1f" stroke="#148b7a" stroke-linecap="round" stroke-linejoin="round" stroke-width="1.624"/>
          </g>
          <path id="Trazado_26168" data-name="Trazado 26168" d="M172.514,436.055c.035-1.616.739-29.37,5.922-40.426a16.9,16.9,0,0,1,4.641-6.461c3.449-2.816,5.659-1.921,10.419-4.616,3.962-2.243,8.483-6.291,7.686-8.34-.519-1.335-3.324-1.887-5.515-1.368-3.938.934-4.093,4.894-8.417,6.149-1.887.548-4.535.572-5.29-.691s.643-3.349,1.12-4.064c1.961-2.938,4.635-4.18,9.65-6.353,7.027-3.043,9.414-3.914,12.836-6.24,5.05-3.435,5.086-5.095,5.032-5.669-.186-1.943-2.582-3.823-4.712-3.735-1.289.053-1.867.8-6.2,5.116a41.492,41.492,0,0,1-5.572,4.863c-2.6,1.848-3.91,2.247-4.865,1.8a2.4,2.4,0,0,1-1.241-1.547c-.865-3.559,8.2-8.974,11.233-10.784,3.248-1.94,5.437-2.852,8.833-5.659,4.13-3.415,4.324-4.9,4.126-5.744a3.711,3.711,0,0,0-3-2.377c-.886-.148-2.346-.062-6.2,3.215a47.134,47.134,0,0,0-5.138,5.128c-3.7,4.272-4.677,6.437-6.454,6.312a2.8,2.8,0,0,1-2.305-1.559c-1.65-4.233,12.381-15.371,19.8-20.573,3.082-2.161,6.386-4.255,6.2-6.941a5.245,5.245,0,0,0-4.661-4.339c-2.849-.173-4.932,2.884-6.34,4.952-2.055,3.015-1.412,4.01-3.872,8.2-2.66,4.533-4.45,5.135-5.229,5.311-1.06.24-3.01.315-3.816-.771-.38-.514-.926-1.853,3.012-8.84,3.5-6.211,5.149-7.314,5.188-10.333.035-2.774-1.3-6.035-3.13-6.3-1.723-.254-3.588,2.2-4.434,3.969-1.363,2.856-.267,4.332-1.364,10.078-.609,3.186-1.209,4.114-2,4.361-1.208.379-2.609-.93-2.975-1.272-3.825-3.575-.947-8.485-4.253-14.8-.779-1.489-2.408-4.6-5.771-5.648-2.779-.865-6.781-.333-8.721,2.475-1.952,2.823-.921,6.648.485,8.862,2.154,3.392,4.831,2.432,10.706,6.664,2.3,1.661,7.351,5.3,6.717,8.921a3.376,3.376,0,0,1-1.572,2.456c-2.424,1.05-5.042-3.883-11.637-6.436-1.724-.667-6.232-2.411-8.02-.51-1.34,1.426-.887,4.617.685,6.445,1.059,1.232,2.164,1.31,7.241,2.576,6.192,1.542,7.437,2.145,8.562,3.141,1.625,1.434,3.365,4,2.586,5.537-.721,1.42-3.326,1.4-5.589,1.364-6.248-.111-7.885-2.509-13.195-2.307-1.649.063-5.586.212-6.594,2.5a4.377,4.377,0,0,0,1.148,4.506c2.084,2.074,5.846,1.382,9.215.762,3.1-.571,3.312-1.16,6.52-1.592,3.14-.423,5.336-.687,6.786.712,1.187,1.143,1.832,3.356.987,4.644-.817,1.243-2.6.979-9.807.864-1.457-.023-3.762.008-8.372.069-6.28.085-7.8.231-8.636,1.417a3.828,3.828,0,0,0,.382,4.594c.43.4,1.181.791,4.684.387,3.274-.378,3.641-.84,6.18-1.163a15.152,15.152,0,0,1,7.4.611c1.224.452,2.617.968,2.871,2.062.311,1.331-1.2,2.94-2.59,3.742-2.221,1.277-3.879.349-10.311-.4-6.68-.772-8.335-.32-9.479.586-.164.131-2.127,1.729-1.852,3.651.25,1.75,2.2,2.7,3.116,3.147,3.286,1.6,6.926.816,8.171.522,2.438-.576,3.379-1.489,5.576-1.213a5.554,5.554,0,0,1,3.236,1.333c1.249,1.211,1.609,3.215,1.138,6.482-.773,5.359-2.975,8.527-4.461,11.648-1.638,3.447-2.078,7.49-2.959,15.575a109.043,109.043,0,0,0-.222,21.124Z" transform="translate(-65.554 -57.72)" fill="#f9ae26"/>
          <g id="Grupo_15935" data-name="Grupo 15935" transform="translate(296.186)">
            <rect id="Rectángulo_4007" data-name="Rectángulo 4007" width="302.496" height="217.58" rx="13.667" fill="#bec6c4"/>
            <rect id="Rectángulo_4008" data-name="Rectángulo 4008" width="288.644" height="208.032" rx="13.667" transform="translate(6.926 4.774)" fill="#fefefe"/>
            <g id="Grupo_15927" data-name="Grupo 15927" transform="translate(148.405 88.191)">
              <g id="Grupo_15926" data-name="Grupo 15926" clip-path="url(#clip-path)">
                <g id="Grupo_15925" data-name="Grupo 15925" transform="translate(-51.633 -68.745)">
                  <path id="Trazado_26169" data-name="Trazado 26169" d="M446.294,249.57h-2.38a11.156,11.156,0,0,1-11.2-11.115v-1.286h24.746v1.15A11.208,11.208,0,0,1,446.294,249.57Z" transform="translate(-384.673 -96.252)" fill="#282e5b"/>
                  <circle id="Elipse_1068" data-name="Elipse 1068" cx="42.516" cy="42.516" r="42.516" transform="translate(0 60.127) rotate(-45)" fill="#fabb49"/>
                  <path id="Trazado_26170" data-name="Trazado 26170" d="M472.352,234.274H422.88V186.29h49.3Z" transform="translate(-387.262 -109.646)" fill="#fabb49"/>
                  <g id="Grupo_15923" data-name="Grupo 15923" transform="translate(49.479 55.948)">
                    <path id="Trazado_26171" data-name="Trazado 26171" d="M435.418,225.109h-1.4V173.243h1.215Z" transform="translate(-433.808 -169.029)" fill="#282e5b"/>
                    <path id="Trazado_26172" data-name="Trazado 26172" d="M451.123,225.235h-1.4V172.5h1.212Z" transform="translate(-429.674 -169.224)" fill="#282e5b"/>
                    <path id="Trazado_26173" data-name="Trazado 26173" d="M440.926,176.433h-.044c-.99-.028-1.421-1.076-1.837-2.091-.389-.946-.829-2.02-1.584-2.192a1.929,1.929,0,0,0-1.662.625,2.275,2.275,0,0,0-.527,1.829l-1.378.227a3.667,3.667,0,0,1,.892-3.019,3.3,3.3,0,0,1,2.986-1.026c1.463.333,2.074,1.825,2.567,3.024a4.253,4.253,0,0,0,.638,1.237,7.833,7.833,0,0,0,.928-1.7c.594-1.278,1.21-2.6,2.376-2.606h0c1.115,0,1.688,1.205,2.241,2.371.237.5.68,1.434.928,1.52a5.914,5.914,0,0,0,.714-1.416c.546-1.3,1.225-2.922,2.78-3.254a3.681,3.681,0,0,1,3.686,1.741,3.779,3.779,0,0,1,.48,2.436l-1.385-.183a2.391,2.391,0,0,0-.289-1.526,2.327,2.327,0,0,0-2.2-1.1c-.84.181-1.342,1.374-1.782,2.429-.486,1.16-.945,2.255-2,2.271h-.016c-1.079,0-1.637-1.176-2.178-2.317-.232-.49-.716-1.51-.978-1.573-.273,0-.88,1.307-1.109,1.8C442.6,175.165,442.016,176.429,440.926,176.433Z" transform="translate(-433.852 -169.907)" fill="#282e5b"/>
                  </g>
                  <g id="Grupo_15924" data-name="Grupo 15924" transform="translate(35.573 111.994)">
                    <path id="Trazado_26174" data-name="Trazado 26174" d="M472.358,231.322l-49.474-7.089v3.459l49.066,7.029A16.723,16.723,0,0,0,472.358,231.322Z" transform="translate(-422.834 -211.651)" fill="#bec6c4"/>
                    <path id="Trazado_26175" data-name="Trazado 26175" d="M472.363,225.95l-49.5-7.092v3.459l49.5,7.092Z" transform="translate(-422.839 -213.066)" fill="#bec6c4"/>
                    <path id="Trazado_26176" data-name="Trazado 26176" d="M472.317,214.273H422.844v2.461l49.472,7.092Z" transform="translate(-422.844 -214.273)" fill="#bec6c4"/>
                    <path id="Trazado_26177" data-name="Trazado 26177" d="M470.88,236.482,422.9,229.607v.172a16.841,16.841,0,0,0,.347,3.335l45.738,6.554A16.669,16.669,0,0,0,470.88,236.482Z" transform="translate(-422.83 -210.237)" fill="#bec6c4"/>
                    <path id="Trazado_26178" data-name="Trazado 26178" d="M424.088,235.15a16.625,16.625,0,0,0,15.216,9.742h16.1a16.663,16.663,0,0,0,10.453-3.758Z" transform="translate(-422.517 -208.777)" fill="#bec6c4"/>
                    <path id="Trazado_26179" data-name="Trazado 26179" d="M472.317,223.313l-49.472-7.092.026,3.331,49.5,7.092Z" transform="translate(-422.844 -213.76)" fill="#eeeff0"/>
                    <path id="Trazado_26180" data-name="Trazado 26180" d="M472.363,231.659v-2.971l-49.5-7.092.024,3.331,49.474,7.089C472.365,231.9,472.364,231.78,472.363,231.659Z" transform="translate(-422.839 -212.345)" fill="#eeeff0"/>
                    <path id="Trazado_26181" data-name="Trazado 26181" d="M471.95,234l-49.066-7.029.018,3.33,47.982,6.875A16.606,16.606,0,0,0,471.95,234Z" transform="translate(-422.834 -210.931)" fill="#eeeff0"/>
                    <path id="Trazado_26182" data-name="Trazado 26182" d="M468.911,238.937l-45.738-6.554a16.516,16.516,0,0,0,1.156,3.5l41.768,5.984A16.772,16.772,0,0,0,468.911,238.937Z" transform="translate(-422.758 -209.506)" fill="#eeeff0"/>
                  </g>
                </g>
              </g>
            </g>
            <g id="Grupo_15930" data-name="Grupo 15930" transform="translate(105.21 24.547)">
              <g id="Grupo_15929" data-name="Grupo 15929" clip-path="url(#clip-path-2)">
                <g id="Grupo_15928" data-name="Grupo 15928" transform="translate(0 0.001)">
                  <path id="Trazado_26184" data-name="Trazado 26184" d="M424.467,232.444a16.95,16.95,0,0,1-2.107-.284,12.365,12.365,0,0,0,20.333,1.339,16.9,16.9,0,0,1-2.163.011Z" transform="translate(-395.837 -102.672)" fill="#282e5b"/>
                  <path id="Trazado_26185" data-name="Trazado 26185" d="M486.3,174.99a42.516,42.516,0,1,0-69.394,30.039l-1.146,17.26,14.088.935,3.393-51.12a3.624,3.624,0,0,1,1.1-2.874,3.3,3.3,0,0,1,3.051-.815c1.435.433,1.943,1.966,2.35,3.2a4.235,4.235,0,0,0,.551,1.278,7.912,7.912,0,0,0,1.043-1.628c.682-1.234,1.39-2.511,2.552-2.434h0c1.114.076,1.6,1.319,2.072,2.521.2.517.577,1.477.82,1.582a5.946,5.946,0,0,0,.811-1.363c.635-1.261,1.426-2.83,3-3.053a3.682,3.682,0,0,1,3.555,1.993,3.725,3.725,0,0,1,.323,2.375l-3.436,51.749,14.088.935,1.146-17.26A42.452,42.452,0,0,0,486.3,174.99Z" transform="translate(-401.364 -129.656)" fill="#fabb49"/>
                  <path id="Trazado_26186" data-name="Trazado 26186" d="M446.909,163.627a2.139,2.139,0,0,0-.224-.824,2.33,2.33,0,0,0-2.118-1.252c-.851.121-1.434,1.278-1.948,2.3-.566,1.123-1.1,2.183-2.155,2.126h-.015c-1.076-.072-1.551-1.287-2.011-2.462-.2-.507-.609-1.558-.867-1.638-.272-.016-.969,1.243-1.232,1.717-.651,1.181-1.325,2.4-2.414,2.329l-.043,0c-.988-.081-1.344-1.174-1.688-2.213-.321-.971-.686-2.073-1.427-2.3a1.933,1.933,0,0,0-1.7.509,2.091,2.091,0,0,0-.637,1.3h.025l-3.436,51.753,18.4,1.222Z" transform="translate(-395.137 -121.31)" fill="#fabb49"/>
                  <path id="Trazado_26187" data-name="Trazado 26187" d="M428.744,163.509h-.025a2.091,2.091,0,0,1,.637-1.3,1.933,1.933,0,0,1,1.7-.509c.742.225,1.107,1.326,1.427,2.3.344,1.04.7,2.132,1.688,2.213l.043,0c1.089.072,1.764-1.148,2.414-2.329.263-.474.96-1.733,1.232-1.717.258.081.67,1.132.867,1.638.46,1.175.935,2.39,2.011,2.462h.015c1.056.057,1.589-1,2.155-2.126.514-1.021,1.1-2.178,1.948-2.3a2.33,2.33,0,0,1,2.118,1.252,2.138,2.138,0,0,1,.224.824l-3.49,52.565,1.395.093,3.436-51.749a3.725,3.725,0,0,0-.323-2.375,3.682,3.682,0,0,0-3.555-1.993c-1.574.224-2.365,1.793-3,3.053a5.943,5.943,0,0,1-.811,1.363c-.243-.1-.619-1.065-.82-1.582-.471-1.2-.958-2.446-2.072-2.521h0c-1.162-.077-1.87,1.2-2.552,2.434a7.916,7.916,0,0,1-1.043,1.628,4.232,4.232,0,0,1-.551-1.278c-.407-1.23-.915-2.763-2.35-3.2a3.3,3.3,0,0,0-3.051.815,3.624,3.624,0,0,0-1.1,2.874l-3.393,51.12,1.393.092Z" transform="translate(-395.428 -121.602)" fill="#282e5b"/>
                  <path id="Trazado_26188" data-name="Trazado 26188" d="M412.156,212.854l-.23,3.451,48.449,10.433a16.693,16.693,0,0,0,.646-3.362Z" transform="translate(-398.584 -107.754)" fill="#bec6c4"/>
                  <path id="Trazado_26189" data-name="Trazado 26189" d="M412.512,207.491l-.229,3.451,48.883,10.528.229-3.451Z" transform="translate(-398.49 -109.166)" fill="#bec6c4"/>
                  <path id="Trazado_26190" data-name="Trazado 26190" d="M446.678,205.234,412.8,202.985l-.157,2.368,48.883,10.527.638-9.619Z" transform="translate(-398.396 -110.352)" fill="#bec6c4"/>
                  <path id="Trazado_26191" data-name="Trazado 26191" d="M411.751,218.388a16.688,16.688,0,0,0,.114,3.351l45.169,9.727a16.724,16.724,0,0,0,2.113-3.044l-47.384-10.2Z" transform="translate(-398.639 -106.342)" fill="#bec6c4"/>
                  <path id="Trazado_26192" data-name="Trazado 26192" d="M412.552,223.828a16.666,16.666,0,0,0,12.39,10.525,16.939,16.939,0,0,0,2.107.284l16.063,1.066a16.909,16.909,0,0,0,2.163-.011,16.635,16.635,0,0,0,8.526-2.981Z" transform="translate(-398.419 -104.865)" fill="#bec6c4"/>
                  <path id="Trazado_26193" data-name="Trazado 26193" d="M412.685,204.86l-.221,3.324,48.883,10.527.221-3.323Z" transform="translate(-398.442 -109.859)" fill="#eeeff0"/>
                  <path id="Trazado_26194" data-name="Trazado 26194" d="M412.328,210.223l-.22,3.324,48.865,10.523c.01-.119.033-.235.042-.355l.2-2.965Z" transform="translate(-398.536 -108.447)" fill="#eeeff0"/>
                  <path id="Trazado_26195" data-name="Trazado 26195" d="M411.752,218.91l47.384,10.2a16.519,16.519,0,0,0,1.285-3.095l-48.449-10.433Z" transform="translate(-398.629 -107.035)" fill="#eeeff0"/>
                  <path id="Trazado_26196" data-name="Trazado 26196" d="M412.741,224.571l41.249,8.883A16.747,16.747,0,0,0,457,230.732l-45.169-9.727A16.468,16.468,0,0,0,412.741,224.571Z" transform="translate(-398.608 -105.609)" fill="#eeeff0"/>
                </g>
              </g>
            </g>
            <path id="Trazado_26198" data-name="Trazado 26198" d="M491.2,142.877a31.4,31.4,0,1,1,0,62.81" transform="translate(-272.504 -101.628)" fill="none" stroke="#282e5b" stroke-linecap="round" stroke-linejoin="round" stroke-width="1.772"/>
            <g id="Grupo_15931" data-name="Grupo 15931" transform="translate(28.083 32.95)">
              <line id="Línea_467" data-name="Línea 467" x2="57.171" fill="none" stroke="#baccc6" stroke-linecap="round" stroke-linejoin="round" stroke-width="2.359"/>
              <line id="Línea_468" data-name="Línea 468" x2="57.171" transform="translate(0 8.299)" fill="none" stroke="#baccc6" stroke-linecap="round" stroke-linejoin="round" stroke-width="2.359"/>
              <line id="Línea_469" data-name="Línea 469" x2="57.171" transform="translate(0 16.598)" fill="none" stroke="#baccc6" stroke-linecap="round" stroke-linejoin="round" stroke-width="2.359"/>
              <line id="Línea_470" data-name="Línea 470" x2="57.171" transform="translate(0 24.897)" fill="none" stroke="#baccc6" stroke-linecap="round" stroke-linejoin="round" stroke-width="2.359"/>
              <line id="Línea_471" data-name="Línea 471" x2="22.172" transform="translate(0 33.196)" fill="none" stroke="#baccc6" stroke-linecap="round" stroke-linejoin="round" stroke-width="2.359"/>
            </g>
            <g id="Grupo_15932" data-name="Grupo 15932" transform="translate(81.147 145.218)">
              <path id="Trazado_26199" data-name="Trazado 26199" d="M394.389,244.477h7.636a10.435,10.435,0,0,0,.246-2.236V225.18H382.315V252.7h9.5a10.451,10.451,0,0,0,2.578-.334Z" transform="translate(-382.315 -225.18)" fill="#ee5e43"/>
              <path id="Trazado_26200" data-name="Trazado 26200" d="M391.873,248.346a10.462,10.462,0,0,0,7.636-7.89h-7.636Z" transform="translate(-379.799 -221.159)" fill="#c4422b"/>
            </g>
            <g id="Grupo_15933" data-name="Grupo 15933" transform="translate(90.88 110.95)">
              <path id="Trazado_26201" data-name="Trazado 26201" d="M402.093,217.35h7.638a10.518,10.518,0,0,0,.245-2.237v-17.06H390.02v27.52h9.495a10.451,10.451,0,0,0,2.578-.332Z" transform="translate(-390.02 -198.053)" fill="#38aae3"/>
              <path id="Trazado_26202" data-name="Trazado 26202" d="M399.577,221.219a10.465,10.465,0,0,0,7.638-7.89h-7.638Z" transform="translate(-387.504 -194.032)" fill="#0254a9"/>
            </g>
            <g id="Grupo_15934" data-name="Grupo 15934" transform="translate(103.619 164.516)">
              <path id="Trazado_26203" data-name="Trazado 26203" d="M414.593,263.615h9.165a12.612,12.612,0,0,0,.294-2.684V240.456H400.1v33.028h11.4a12.493,12.493,0,0,0,3.094-.4Z" transform="translate(-400.104 -240.456)" fill="#fabb49"/>
              <path id="Trazado_26204" data-name="Trazado 26204" d="M411.574,268.257a12.556,12.556,0,0,0,9.165-9.468h-9.165Z" transform="translate(-397.085 -235.63)" fill="#d38309"/>
            </g>
          </g>
          <g id="Grupo_15940" data-name="Grupo 15940" transform="translate(49.111 1.553)">
            <g id="Grupo_15938" data-name="Grupo 15938">
              <rect id="Rectángulo_4009" data-name="Rectángulo 4009" width="217.604" height="134.064" rx="5.558" fill="#0254a9"/>
              <g id="Grupo_15937" data-name="Grupo 15937" transform="translate(3.464 5.469)">
                <rect id="Rectángulo_4010" data-name="Rectángulo 4010" width="210.676" height="113.127" rx="9.159" fill="#fff"/>
                <g id="Grupo_15936" data-name="Grupo 15936" clip-path="url(#clip-path-3)">
                  <rect id="Rectángulo_4011" data-name="Rectángulo 4011" width="59.868" height="20.5" rx="3.458" transform="translate(21.977 96)" fill="#ee5e43"/>
                  <rect id="Rectángulo_4012" data-name="Rectángulo 4012" width="95.823" height="20.5" rx="3.381" transform="translate(92.876 96)" fill="#fb9730"/>
                  <rect id="Rectángulo_4013" data-name="Rectángulo 4013" width="247.051" height="9.116" transform="translate(-18.188 -3.099)" fill="#38aae3"/>
                </g>
              </g>
              <path id="Trazado_26205" data-name="Trazado 26205" d="M213.2,114.191c0-.755-1.7-1.367-3.788-1.367s-3.79.611-3.79,1.367,1.7,1.367,3.79,1.367S213.2,114.946,213.2,114.191Z" transform="translate(-100.607 -111.091)" fill="#282e5b"/>
              <path id="Trazado_26206" data-name="Trazado 26206" d="M212.029,114.118c0-.562-1.263-1.018-2.821-1.018s-2.821.456-2.821,1.018,1.262,1.018,2.821,1.018S212.029,114.68,212.029,114.118Z" transform="translate(-100.405 -111.019)" fill="#565699"/>
              <path id="Trazado_26207" data-name="Trazado 26207" d="M141.207,227.52V118.9c0-4.112,9.234-7.443,20.625-7.443H143.116c-11.391,0-20.625,3.331-20.625,7.443V227.52c0,4.111,9.234,7.443,20.625,7.443h18.716C150.442,234.963,141.207,231.631,141.207,227.52Z" transform="translate(-122.491 -111.452)" fill="#034c8a" opacity="0.1"/>
            </g>
            <g id="Grupo_15939" data-name="Grupo 15939" transform="translate(25.441 18.529)">
              <rect id="Rectángulo_4015" data-name="Rectángulo 4015" width="166.722" height="37.078" rx="4.006" fill="#a5def6"/>
              <rect id="Rectángulo_4016" data-name="Rectángulo 4016" width="60.121" height="35.159" rx="2.838" transform="translate(0 40.57)" fill="#14b6a1"/>
              <rect id="Rectángulo_4017" data-name="Rectángulo 4017" width="44.122" height="12.215" rx="1.813" transform="translate(6.399 44.139)" fill="#fabb49"/>
              <line id="Línea_472" data-name="Línea 472" x2="40.417" transform="translate(9.094 59.594)" fill="none" stroke="#fefefe" stroke-linecap="round" stroke-linejoin="round" stroke-width="1.096"/>
              <line id="Línea_473" data-name="Línea 473" x2="40.417" transform="translate(68.962 40.57)" fill="none" stroke="#f9ae26" stroke-linecap="round" stroke-linejoin="round" stroke-width="1.096"/>
              <line id="Línea_474" data-name="Línea 474" x2="40.417" transform="translate(126.304 57.769)" fill="none" stroke="#baccc6" stroke-linecap="round" stroke-linejoin="round" stroke-width="1.096"/>
              <line id="Línea_475" data-name="Línea 475" x2="40.417" transform="translate(126.304 60.779)" fill="none" stroke="#baccc6" stroke-linecap="round" stroke-linejoin="round" stroke-width="1.096"/>
              <line id="Línea_476" data-name="Línea 476" x2="40.417" transform="translate(126.304 63.788)" fill="none" stroke="#baccc6" stroke-linecap="round" stroke-linejoin="round" stroke-width="1.096"/>
              <line id="Línea_477" data-name="Línea 477" x2="40.417" transform="translate(126.304 66.798)" fill="none" stroke="#baccc6" stroke-linecap="round" stroke-linejoin="round" stroke-width="1.096"/>
              <line id="Línea_478" data-name="Línea 478" x2="40.417" transform="translate(126.304 69.807)" fill="none" stroke="#baccc6" stroke-linecap="round" stroke-linejoin="round" stroke-width="1.096"/>
              <line id="Línea_479" data-name="Línea 479" x2="97.76" transform="translate(68.962 44.062)" fill="none" stroke="#baccc6" stroke-linecap="round" stroke-linejoin="round" stroke-width="1.096"/>
              <line id="Línea_480" data-name="Línea 480" x2="97.76" transform="translate(68.962 47.553)" fill="none" stroke="#baccc6" stroke-linecap="round" stroke-linejoin="round" stroke-width="1.096"/>
              <line id="Línea_481" data-name="Línea 481" x2="97.76" transform="translate(68.962 51.045)" fill="none" stroke="#baccc6" stroke-linecap="round" stroke-linejoin="round" stroke-width="1.096"/>
              <line id="Línea_482" data-name="Línea 482" x2="97.76" transform="translate(68.962 54.537)" fill="none" stroke="#baccc6" stroke-linecap="round" stroke-linejoin="round" stroke-width="1.096"/>
              <line id="Línea_483" data-name="Línea 483" x2="97.76" transform="translate(68.962 72.817)" fill="none" stroke="#baccc6" stroke-linecap="round" stroke-linejoin="round" stroke-width="1.096"/>
              <line id="Línea_484" data-name="Línea 484" x2="97.76" transform="translate(68.962 75.729)" fill="none" stroke="#baccc6" stroke-linecap="round" stroke-linejoin="round" stroke-width="1.096"/>
              <line id="Línea_485" data-name="Línea 485" x2="63.742" transform="translate(68.962 78.641)" fill="none" stroke="#baccc6" stroke-linecap="round" stroke-linejoin="round" stroke-width="1.096"/>
              <line id="Línea_486" data-name="Línea 486" x2="37.133" transform="translate(68.962 59.138)" fill="none" stroke="#ee5f43" stroke-linecap="round" stroke-linejoin="round" stroke-width="2.095"/>
              <line id="Línea_487" data-name="Línea 487" x2="37.133" transform="translate(68.962 63.372)" fill="none" stroke="#ee5f43" stroke-linecap="round" stroke-linejoin="round" stroke-width="2.095"/>
              <line id="Línea_488" data-name="Línea 488" x2="26.524" transform="translate(68.962 67.605)" fill="none" stroke="#ee5f43" stroke-linecap="round" stroke-linejoin="round" stroke-width="2.095"/>
              <line id="Línea_489" data-name="Línea 489" x2="40.417" transform="translate(9.094 62.834)" fill="none" stroke="#fefefe" stroke-linecap="round" stroke-linejoin="round" stroke-width="1.096"/>
              <line id="Línea_490" data-name="Línea 490" x2="40.417" transform="translate(9.094 66.074)" fill="none" stroke="#fefefe" stroke-linecap="round" stroke-linejoin="round" stroke-width="1.096"/>
              <line id="Línea_491" data-name="Línea 491" x2="24.924" transform="translate(9.094 69.315)" fill="none" stroke="#fefefe" stroke-linecap="round" stroke-linejoin="round" stroke-width="1.096"/>
            </g>
          </g>
          <g id="Grupo_15977" data-name="Grupo 15977" transform="translate(108.937 88.8)">
            <g id="Grupo_15949" data-name="Grupo 15949" transform="translate(168.275)">
              <g id="Grupo_15941" data-name="Grupo 15941" transform="translate(19.135 132.018)">
                <path id="Trazado_26208" data-name="Trazado 26208" d="M326.712,386.929l13.676-1.844a27.372,27.372,0,0,0,3.393,11.72c6.948,12.126,22.125,13.908,21.632,16.777-.193,1.123-2.213,2.5-9.348,1.722-2.314-.251-9.257-.831-11.277-3.4s-6.077-1.967-6.077-1.967l.358,4.938-10.842-.776C328,410.916,326.944,392.686,326.712,386.929Z" transform="translate(-315.966 -258.686)" fill="#034c8a"/>
                <path id="Trazado_26209" data-name="Trazado 26209" d="M347.54,290.411c1.671,31.462.333,51.449-1.353,64.21a282.727,282.727,0,0,0-2.64,46.131c.066,2.669.795,12.12.864,13.6-4.768.326-13.79,2-18.557,2.327-4.314-13.815-1.967-33.806-2.3-41.85-.311-7.535.345-8.735.019-23.76-.313-14.436-.47-21.655-1.811-26.27-1.214-4.174-3.192-9.084-3.514-16.724a39.213,39.213,0,0,1,.46-8.47,33.375,33.375,0,0,1,6.57-14.574c2.5.313,5.125.738,7.867,1.3A102.687,102.687,0,0,1,347.54,290.411Z" transform="translate(-318.206 -285.026)" fill="#12a189"/>
              </g>
              <g id="Grupo_15942" data-name="Grupo 15942" transform="translate(6.454 130.4)">
                <path id="Trazado_26210" data-name="Trazado 26210" d="M317.062,386.929l13.676-1.844a27.35,27.35,0,0,0,3.392,11.72c6.949,12.126,22.126,13.908,21.632,16.777-.193,1.123-2.213,2.5-9.347,1.722-2.314-.251-9.257-.831-11.278-3.4s-6.076-1.967-6.076-1.967l.357,4.938-10.842-.776C318.349,410.916,317.294,392.686,317.062,386.929Z" transform="translate(-305.826 -257.068)" fill="#0254a9"/>
                <path id="Trazado_26211" data-name="Trazado 26211" d="M339.566,290.748c1.671,31.462.332,51.449-1.353,64.21a282.571,282.571,0,0,0-2.64,46.131c.066,2.669.793,12.12.863,13.6-4.766.326-13.788,2-18.556,2.327-4.315-13.815-1.967-33.806-2.3-41.85-.311-7.535.344-8.735.019-23.76-.27-12.475-.332-18.714-1.813-26.27-1.727-8.816-3.244-8.891-4.631-17.079a71.85,71.85,0,0,1-.629-19.091q.521-2.592,1.045-5.183l6.249-.033a88.394,88.394,0,0,0,9.351,2.921A102.731,102.731,0,0,1,339.566,290.748Z" transform="translate(-308.167 -283.745)" fill="#14b6a1"/>
              </g>
              <g id="Grupo_15946" data-name="Grupo 15946">
                <path id="Trazado_26212" data-name="Trazado 26212" d="M308.016,200.1s-2.172-3.644-1.6-5.657,3.632-5.277,7.794-6.024,13.414,1.4,15.265-1.709,1.127-5.649-.259-4.986c.375-1.882,5.9-1.943,7.7,2.678a15.7,15.7,0,0,1-.91,13.936c-2.428,4.5-11.971,7.322-15.876,8.161-.033,1.1-.811,11.475-.811,11.475l.322,11.344a5.489,5.489,0,0,1-5.17,4.113c-4.42.347-10.8-14.349-11.354-23.846S305.64,199.925,308.016,200.1Z" transform="translate(-303.058 -180.519)" fill="#282e5b"/>
                <g id="Grupo_15945" data-name="Grupo 15945" transform="translate(8.473 15.714)">
                  <path id="Trazado_26213" data-name="Trazado 26213" d="M335.735,205.175c.918,1.165,4.544,3.2,5.467,5.6s-2.179,3.041-2.179,3.041c.457,3.81.941,8.387-1.431,11.679-1.753,2.432-5.067,4.509-7.917,2.592.767,2.475,1.693,5.109,2.814,7.86a96.972,96.972,0,0,0,4.855,10.17,41.706,41.706,0,0,1-4.623.832,42.188,42.188,0,0,1-11.426-.174c-5.555-3.291-6.779-6.084-6.83-8.061-.086-3.282,3.052-4.723,3.934-8.711.915-4.143-1.241-8.152-3.211-10.9-.217.1-2.086,1.124-3.489.033-1.357-1.054-2.683-3.514-1.429-5a3.586,3.586,0,0,1,4.252-1.006c1.217-1.94,3.871-5.052,2.533-10.307,3.943-.8,14.177-5.577,15.986-9.872C333.213,193.64,334.816,204.009,335.735,205.175Z" transform="translate(-309.766 -192.958)" fill="#d08b73"/>
                  <g id="Grupo_15944" data-name="Grupo 15944" clip-path="url(#clip-path-4)">
                    <g id="Grupo_15943" data-name="Grupo 15943" transform="translate(8.378 25.441)" opacity="0.5" style="mix-blend-mode: multiply;isolation: isolate">
                      <path id="Trazado_26214" data-name="Trazado 26214" d="M316.421,213.1c-.117.052.224,1.153,1.211,2.708a23.12,23.12,0,0,0,4.785,5.313,18.977,18.977,0,0,0,6.248,3.514c1.78.546,2.953.466,2.956.347.019-.171-1.08-.358-2.7-1.051a24.65,24.65,0,0,1-5.834-3.628,32.969,32.969,0,0,1-4.846-4.929C317.136,213.986,316.567,213.03,316.421,213.1Z" transform="translate(-316.398 -213.097)" fill="#bc6c56"/>
                    </g>
                  </g>
                </g>
                <path id="Trazado_26216" data-name="Trazado 26216" d="M313.872,212.581c-.027-.148-.3-.217-.643-.36a3.463,3.463,0,0,1-.556-.284c-.222-.145-.293-.23-.293-.311a4.238,4.238,0,0,1-.01-.676.366.366,0,0,1,.181-.3c.274-.192.576-.318.555-.47-.016-.13-.263-.3-.811-.234a1.12,1.12,0,0,0-.855.715,2.036,2.036,0,0,0-.112.566,2.281,2.281,0,0,0,.013.594,1.2,1.2,0,0,0,.4.694,1.759,1.759,0,0,0,.512.3,2.125,2.125,0,0,0,.883.149C313.642,212.928,313.9,212.716,313.872,212.581Z" transform="translate(-300.885 -172.777)" fill="#bc6c56"/>
              </g>
              <path id="Trazado_26217" data-name="Trazado 26217" d="M319.726,220.258a99.711,99.711,0,0,0-7.183,15.269c-5.522,14.9-6.133,27.569-6.829,44.806-.277,6.854-.421,16.192.123,27.338.018.361,3.862,1.18,4.277,1.282q3.341.815,6.68,1.633c1.415,0,3.173.776,4.554,1.114l4.821,1.179a32.936,32.936,0,0,0,8.5.778,56.334,56.334,0,0,0,18.654-3.4c-.594,0-1.163-16.314-1.182-17.588-.03-2.045,0-2.667-.038-4.376a121.11,121.11,0,0,0-2.122-19.465c-2.072-11.432-3.106-17.149-6.282-23.755a58.748,58.748,0,0,0-8.756-13.233,10.856,10.856,0,0,1-6.78.408C323.563,230.93,320.158,226.156,319.726,220.258Z" transform="translate(-302.424 -170.058)" fill="#f9ae26"/>
              <path id="Trazado_26218" data-name="Trazado 26218" d="M348.579,271.489v7.145l-17.889-9.443-4.49,2.236h-7.278v-7.745l6.2,3.708,4.957-2.129Z" transform="translate(-298.882 -158.626)" fill="#d38309"/>
              <path id="Trazado_26219" data-name="Trazado 26219" d="M326.141,267.435l-7.218,5.414,1.353,6.091h6.993l2.707-3.158q8.686,3.384,17.371,6.767c2.23.541,5.5.692,7.406-1.8,2.121-2.783.886-7.553-.864-10.6-4.741-8.269-2.8-24.242-11.279-41.284-1.354,2.707-1.736,5.715-3.089,8.422,3.685,9.249-1.724,22.711,1.961,31.96Z" transform="translate(-298.882 -167.794)" fill="#d08b73"/>
              <path id="Trazado_26220" data-name="Trazado 26220" d="M346.193,266.693a9.333,9.333,0,0,1-5.608,1.57,11.293,11.293,0,0,1-4.2-.662,7.606,7.606,0,0,1-3.095-2.485c-.862-1-1.87-1.926-2.777-2.9-.226-.244-3.732-4.041-3.732-4.041-1.066,1.038-2.347,1.839-3.425,2.874.568-.544,5.56,3.627,6.134,4.051l4.18,3.089c1.176.869,2.22,1.929,3.679,2.159,3,.472,5.962.528,8.695-1.023,1.426-.808,2.223-3.254,2.657-4.738a14.032,14.032,0,0,0,.394-6.19,18.117,18.117,0,0,1-.436,4.277,7.426,7.426,0,0,1-2.083,3.7C346.451,266.488,346.325,266.593,346.193,266.693Z" transform="translate(-297.716 -160.076)" fill="#bc6c56"/>
              <path id="Trazado_26221" data-name="Trazado 26221" d="M327.007,265.946s-10.754-5.9-13.945-9.731-4.218-15.22-3.22-16.565,18.5,15.732,18.5,15.732l4.229,6.491Z" transform="translate(-301.369 -164.973)" fill="#d38309"/>
              <path id="Trazado_26222" data-name="Trazado 26222" d="M326.306,236.473c2.9,2.585,6.33,4.848,8.86,7.8a8.651,8.651,0,0,1,1.765,5.37c.116,2.058.291,4.09.459,6.146l-12.487-15.9Z" transform="translate(-297.308 -165.789)" fill="#d38309"/>
              <g id="Grupo_15948" data-name="Grupo 15948" transform="translate(10.954 46.816)">
                <path id="Trazado_26223" data-name="Trazado 26223" d="M324.69,239.812a48.186,48.186,0,0,1,16.161,20.212q.093-11.985.184-23.973l-6-8.713,2.9-9.76,9.109,1.463q2.312,3.9,4.622,7.808-1.067,4.8-2.132,9.6c.562,5.544,1.324,13.349,2.148,22.815.714,8.192,1.325,16.146-2.42,18.623a11.1,11.1,0,0,1-4.953,1.631,11.341,11.341,0,0,1-4.037-.667c-3.4-1.249-14.572-11.43-28.544-26.4Q318.21,246.132,324.69,239.812Z" transform="translate(-311.73 -217.579)" fill="#d08b73"/>
                <g id="Grupo_15947" data-name="Grupo 15947" clip-path="url(#clip-path-5)">
                  <path id="Trazado_26224" data-name="Trazado 26224" d="M336.357,246.208l-13.284,13.4,1.973,2,12.213-12.355Z" transform="translate(-308.744 -210.042)" fill="#bc6c56"/>
                </g>
              </g>
              <path id="Trazado_26226" data-name="Trazado 26226" d="M326.73,265.98l13.92-14.512c-3.163-7.27-22.243-31.092-29.691-14.6C303.735,252.871,323.422,263.573,326.73,265.98Z" transform="translate(-301.395 -167.185)" fill="#f9ae26"/>
            </g>
            <g id="Grupo_15960" data-name="Grupo 15960" transform="translate(20.897 51.82)">
              <path id="Trazado_26227" data-name="Trazado 26227" d="M292.6,306.239c-.345-.165-.71-.3-1.061-.45a25.045,25.045,0,0,0-3.705-1.5c-1.478-.373-2.9-.873-4.362-1.27.638-.126,1.3-.2,1.926-.359.547-.134,1.09-.379,1.638-.549a3.977,3.977,0,0,0,1.488-.734,1.472,1.472,0,0,0,.549-1.445,13.028,13.028,0,0,0-2.554.762c-.9.277-6.429,1.895-8.292,2.41q-4.766,1.317-9.344,2.436l-.987.1-.26-.72L253.053,305l-19.877-3.106a131.915,131.915,0,0,0-9.6-26.792c-6.916-14.191-10.931-15.794-13.344-16.149a11.435,11.435,0,0,0-10.749,4.812c-3.615,5.658.465,13.8,6.573,25.6,7.525,14.541,11.288,21.812,17.62,25.331,11.976,6.655,26.686,3.023,35.891.75a74.652,74.652,0,0,0,10.619-3.485l-.224-.62,4.761-.139a22.591,22.591,0,0,1,3.523,2.117c1.289.947,2.965,2.4,2.965,2.4a2.379,2.379,0,0,0,2.02.135c.229-.1.772-.389.843-.663.077-.294-.178-.576-.433-.849a13.159,13.159,0,0,0-1.914-1.674,11.989,11.989,0,0,1-1.78-1.587,6.593,6.593,0,0,1,3.047-.12,8.164,8.164,0,0,1,2.543,1.06c.829.491,1.474,1.263,2.338,1.737a4.382,4.382,0,0,0,1.9.568,2.056,2.056,0,0,0,1.631-.752,29.981,29.981,0,0,0-5.815-3.883c-.9-.457-1.767-.844-2.6-1.171-.307-.345-.333-.5-.291-.57.217-.364,2.384.505,2.5.552.34.138.723.326,1.491.7,1.06.52,2.081,1.074,3.118,1.635a2.229,2.229,0,0,0,2.921-.447c-.131.095-1.627-1.043-1.791-1.152a24.347,24.347,0,0,0-3-1.664,31.1,31.1,0,0,0-3.907-1.54c-.121-.222-.148-.389-.082-.5q.305-.517,3.274.536a14.739,14.739,0,0,0,3.463,1.083,3.162,3.162,0,0,0,2.045-.376C293.1,306.5,292.985,306.422,292.6,306.239Z" transform="translate(-183.304 -211.718)" fill="#c4422b"/>
              <path id="Trazado_26228" data-name="Trazado 26228" d="M248.651,425.313c1.507-.541,3.56-1.3,3.3-3.4s-5.375-4.581-7.048-5.98c-.128-5.283-.648-10.283-3.709-14.741-.01-.014-.138.067-.14,0-.027-.667-.34-.681-.2-1.575s1.8-2.66,2.538-3.4a28.077,28.077,0,0,1,2.917.21c12.472-14.41,22.573-29.459,22.831-49.051A10.068,10.068,0,0,0,268.1,341.8c-1.972-3.547-6.133-6.262-9.43-8.8a90.373,90.373,0,0,0-13.462-8.534c-.515-.268-1.189-.577-1.607-.8a52.023,52.023,0,0,0-8.882-3.59c-4.151-1.276-5.767-2.433-10.578-3.437s-21.9-3.38-24.862-3.322-1.2,7.19-1.333,7.659c-1.282,4.453-.006,7.241.455,11.168.037.312-.076.333.088.814.034.1-.2-.57.326.207,2.237,3.277,1.556,5.647,6.158,8.831,7.026,4.858,19.623,2.046,29.159,3.43,3.848.558,10.258,3.624,13.878,5.936-1.406,7.247-3.377,9.056-6.633,17.208-1.69,4.234-11.424,21.888-12.427,25.8s2.718-.863,2.635,1.275c-.624,1.4-1.5,3.412-2.357,4.98a29.514,29.514,0,0,0-7.465,9.565c1.239.584,3.941,1.839,4.837,2.27s.1.1.6.347c.08.039.005-.063.027-.053.547.25,1.025.518,1.568.779.227-1.038,1.378-.7,2-.374a13.72,13.72,0,0,1,5.081,4.418c1.242,1.866,1.112,4.18,2.737,5.65a9.859,9.859,0,0,0,5.365,2.587A9.6,9.6,0,0,0,248.651,425.313Z" transform="translate(-183.497 -197.383)" fill="#282e5b"/>
              <g id="Grupo_15950" data-name="Grupo 15950" transform="translate(1.211 119.84)">
                <path id="Trazado_26229" data-name="Trazado 26229" d="M188.023,335.942s20.943,8.241,32.791,9.819,19.837-1.48,22.1-.908,8.989,18.792,16.22,25.928,27.753,22.5,30.074,24.676,5.9,11.254,5.9,11.254l5.076-1.8-1.05-2.592s17.375-7.718,19.055-10.242,3.436-11.461.854-14.386-4.66,7.582-7.8,8.854-14.512.759-17.817-.312-33.626-50.7-37.661-53.269-30.7-11.91-36.86-11.81-29.8-3.517-29.8-3.517Z" transform="translate(-187.174 -316.084)" fill="#034c8a"/>
                <path id="Trazado_26230" data-name="Trazado 26230" d="M225.636,348.434c7.144-.02,13.076.341,17.221.683,3.066,5.836,6.065,12.257,9.928,17.574,2.007,2.761,28.768,27.928,29.365,27.164l9.94-12.73c-11.182-15.682-22.2-31.5-33.707-46.933A19.189,19.189,0,0,0,254.56,330c-2.787-2.04-8.065-2.217-11.492-3.087-4.4-1.117-8.811-2.189-13.222-3.257-5.844-1.414-11.964-2.444-17.677-4.343-2.917-.969-23.793-2.9-23.939-2.908.464.043-.494,7.691-.568,8.263-.779,6.053.062,9.156.824,11.621a21.5,21.5,0,0,0,6.024,9.383C200.647,350.832,207.936,348.486,225.636,348.434Z" transform="translate(-187.351 -316.407)" fill="#0254a9"/>
                <path id="Trazado_26231" data-name="Trazado 26231" d="M268.122,383.3c2.033-1.376,6.157-8.921,6.157-8.921l16.2-2.156s4.2-8.93,5.893-8.377c2.086.681,2.534,1.64,2.962,3.728a17.02,17.02,0,0,1,.221,5.369,17.206,17.206,0,0,1-2.94,7.838c-1.65,2.361-4.519,2.727-6.925,4.132-2.633,1.537-5.266,3.133-7.953,4.617-.792.437-1.876,1.3-.951,2.211l-6.8,3.729Z" transform="translate(-166.088 -303.926)" fill="#ee5f43"/>
              </g>
              <g id="Grupo_15953" data-name="Grupo 15953" transform="translate(22.415 30.283)">
                <path id="Trazado_26232" data-name="Trazado 26232" d="M212.736,245.513l-8.6,15.875,14.15,11.522a17.826,17.826,0,0,1-.935-8.519,18.424,18.424,0,0,1,5.97-11.022Z" transform="translate(-204.136 -245.513)" fill="#d08b73"/>
                <g id="Grupo_15952" data-name="Grupo 15952" clip-path="url(#clip-path-6)">
                  <g id="Grupo_15951" data-name="Grupo 15951" transform="translate(11.634 2.577)" opacity="0.5" style="mix-blend-mode: multiply;isolation: isolate">
                    <path id="Trazado_26233" data-name="Trazado 26233" d="M213.7,247.564c-.754.2-.38,3.858,1.721,7.768a17.2,17.2,0,0,0,3.392,4.572c1.211,1.073,2.355,1.166,2.491.8.163-.373-.364-.985-.927-2.1s-1.455-2.842-2.422-4.63C216.017,250.375,214.478,247.341,213.7,247.564Z" transform="translate(-213.345 -247.553)" fill="#ee5f43"/>
                  </g>
                </g>
              </g>
              <g id="Grupo_15955" data-name="Grupo 15955" transform="translate(0 41.372)">
                <path id="Trazado_26235" data-name="Trazado 26235" d="M222.7,268.557c-1.219-1.8-2.542-3.657-3.978-5.542-2.461-3.231-4.93-6.133-7.326-8.724-10.355.428-15.612,4.073-18.291,6.68-5.648,5.5-7.084,13.283-6.643,44.716.164,11.737.405,21.466.6,28.3,1.078,1.108,9.159,9.135,21.5,8.114a27.606,27.606,0,0,0,18.908-10.221c-.356-8.975-.807-16.254-1.15-21.209-.769-11.112-1.054-17.472-1.853-25.967C223.84,277.933,223.181,272.357,222.7,268.557Z" transform="translate(-186.392 -254.291)" fill="#ee5f43"/>
                <g id="Grupo_15954" data-name="Grupo 15954" clip-path="url(#clip-path-7)">
                  <path id="Trazado_26236" data-name="Trazado 26236" d="M192.477,265.344a24.965,24.965,0,0,0-.262,2.62c.019,2.4-.048,4.792-.011,7.185.058,3.922,1.141,7.635,2.054,11.417a36.913,36.913,0,0,0,3.892,9.617,85.783,85.783,0,0,0,4.9,7.787,47.538,47.538,0,0,0,4.515,5.47,32.676,32.676,0,0,0,9.416,6.507c3.868,1.818,8.327,2.1,12.528,2.494,1.8.17,3.637-.2,5.389.307" transform="translate(-184.865 -251.381)" fill="none" stroke="#c4422b" stroke-miterlimit="10" stroke-width="1.464"/>
                  <path id="Trazado_26237" data-name="Trazado 26237" d="M199.751,261.6c1.019,1.417,3.12,2.471,4.455,3.6a15.981,15.981,0,0,1,2.938,3.447A99.183,99.183,0,0,1,220.536,297.1c.341,1.182.659,2.377,1.012,3.55a23.129,23.129,0,0,0,.816,3.263,1.845,1.845,0,0,1,.32,1.258" transform="translate(-182.876 -252.366)" fill="none" stroke="#c4422b" stroke-miterlimit="10" stroke-width="1.772"/>
                </g>
              </g>
              <g id="Grupo_15958" data-name="Grupo 15958" transform="translate(26.848)">
                <g id="Grupo_15956" data-name="Grupo 15956">
                  <path id="Trazado_26239" data-name="Trazado 26239" d="M213.885,255.069c-.738.159-2.111-2.2-2.6-2.688-1.678-1.667-3.193-2.653-3.557-5.232-.294-2.092.288-4.078.485-6.125a41.18,41.18,0,0,1,1.045-6.544c1.22-4.66,3.761-8.812,8.075-11.171,7.549-4.131,24.07-.877,23.277,8.236-.394,4.545-.475,8.937-2.759,13.755,0,0-10.846,8.489-13.716,8.334S213.913,255.064,213.885,255.069Z" transform="translate(-207.645 -221.541)" fill="#034c8a"/>
                  <path id="Trazado_26240" data-name="Trazado 26240" d="M238.2,232.515a77.215,77.215,0,0,1-1.827,13.215,4.89,4.89,0,0,0-.28,3.535c.486,1.041,2.059,4.2,1.909,4.939s-2.139,1.379-2.784.9-2.31-1.621-2.31-1.621-4.213,8.26-5.469,9.711-4.521,1.227-5.973-.029-7.687-6.8-8.666-11.417-.456-6.876-.456-6.876-2.688-4.318-.671-6.757,4.167-1.948,5.331-1.377,2.185,2.911,2.185,2.911,6.021-4.515,6.41-6.733-.141-2.048-.141-2.048,3.686,2.573,6.371,2.453A57.831,57.831,0,0,0,238.2,232.515Z" transform="translate(-206.784 -219.087)" fill="#d08b73"/>
                </g>
                <g id="Grupo_15957" data-name="Grupo 15957" transform="translate(5.837 19.516)" opacity="0.5" style="mix-blend-mode: multiply;isolation: isolate">
                  <path id="Trazado_26241" data-name="Trazado 26241" d="M213.632,240.775c.054-.143-.436-.32-.533-.757a2.034,2.034,0,0,1,2.842-1.928c.513.346,1.032.539,1.078.383.029-.131-.158-.389-.649-.947a2.421,2.421,0,0,0-2.975-.059,2.373,2.373,0,0,0-.94,2.847,1.133,1.133,0,0,0,.825.558C213.5,240.88,213.618,240.842,213.632,240.775Z" transform="translate(-212.266 -236.99)" fill="#ee5f43"/>
                </g>
              </g>
              <g id="Grupo_15959" data-name="Grupo 15959" transform="translate(4.363 48.602)">
                <path id="Trazado_26242" data-name="Trazado 26242" d="M242.076,304.119l10.664-.312a22.5,22.5,0,0,1,3.522,2.117c1.29.947,2.966,2.4,2.966,2.4a2.372,2.372,0,0,0,2.019.135c.229-.1.773-.389.844-.663.077-.294-.178-.576-.435-.849a13.177,13.177,0,0,0-1.913-1.674,11.99,11.99,0,0,1-1.78-1.587,6.592,6.592,0,0,1,3.047-.12,8.163,8.163,0,0,1,2.543,1.06c.829.491,1.473,1.263,2.338,1.738a4.38,4.38,0,0,0,1.9.567,2.056,2.056,0,0,0,1.631-.752,30.024,30.024,0,0,0-5.815-3.883c-.9-.457-1.767-.844-2.6-1.171-.307-.345-.333-.5-.291-.57.217-.364,2.384.505,2.5.552.34.138.723.326,1.491.7,1.059.521,2.081,1.074,3.118,1.635a2.229,2.229,0,0,0,2.921-.447c-.131.095-1.627-1.043-1.791-1.152a24.348,24.348,0,0,0-3-1.664,31.3,31.3,0,0,0-3.907-1.54c-.121-.222-.148-.389-.082-.5q.305-.517,3.274.536a14.742,14.742,0,0,0,3.463,1.083,3.163,3.163,0,0,0,2.045-.376c.368-.278.25-.36-.131-.543-.345-.166-.711-.3-1.061-.448a25.041,25.041,0,0,0-3.705-1.5c-1.478-.373-2.9-.873-4.362-1.27.638-.126,1.3-.2,1.926-.359.547-.134,1.09-.379,1.638-.55a3.959,3.959,0,0,0,1.488-.734,1.472,1.472,0,0,0,.549-1.445,13.029,13.029,0,0,0-2.554.762c-.9.277-6.429,1.895-8.292,2.41q-4.766,1.319-9.344,2.436l-5,.509Z" transform="translate(-176.141 -251.453)" fill="#d08b73"/>
                <path id="Trazado_26243" data-name="Trazado 26243" d="M191.205,264.927c-3.615,5.658.465,13.8,6.573,25.6,7.525,14.541,11.287,21.813,17.619,25.331,11.977,6.655,26.687,3.023,35.893.75a74.536,74.536,0,0,0,10.619-3.485l-2.543-7.041-14.588.078L224.9,303.058a131.9,131.9,0,0,0-9.6-26.793c-6.916-14.191-10.931-15.794-13.344-16.151A11.441,11.441,0,0,0,191.205,264.927Z" transform="translate(-189.846 -260.014)" fill="#ee5f43"/>
              </g>
            </g>
            <g id="Grupo_15961" data-name="Grupo 15961" transform="translate(0 109.517)">
              <rect id="Rectángulo_4018" data-name="Rectángulo 4018" width="57.491" height="10.981" rx="2.085" transform="translate(19.018 94.041)" fill="#346ec1"/>
              <path id="Trazado_26244" data-name="Trazado 26244" d="M174.051,326.469c0-9.344.239-18.568-.117-27.87a100.283,100.283,0,0,1,.71-18.46c.4-2.686,2.193-14.949,7.519-12.638,1.028.446,1.488,1.9,1.662,2.587l-.709,56.38c0,2.451-1.641,4.439-3.665,4.439h-1.736C175.69,330.908,174.051,328.92,174.051,326.469Z" transform="translate(-168.807 -267.214)" fill="#346ec1"/>
              <path id="Trazado_26245" data-name="Trazado 26245" d="M173.812,289.081v58.995a17.918,17.918,0,0,0,17.918,17.918h44.138" transform="translate(-168.807 -261.457)" fill="none" stroke="#034c8a" stroke-linecap="round" stroke-linejoin="round" stroke-width="1.5"/>
              <rect id="Rectángulo_4019" data-name="Rectángulo 4019" width="4.472" height="64.072" transform="translate(41.911 105.021)" fill="#034c8a" stroke="#034c8a" stroke-linecap="round" stroke-linejoin="round" stroke-width="1"/>
              <rect id="Rectángulo_4020" data-name="Rectángulo 4020" width="11.626" height="21.911" transform="translate(38.334 134.299)" fill="#034c8a" stroke="#034c8a" stroke-linecap="round" stroke-linejoin="round" stroke-width="1"/>
              <path id="Trazado_26246" data-name="Trazado 26246" d="M252.1,405.906a70.6,70.6,0,0,0-78.283,0v-3.631a72.86,72.86,0,0,1,78.283,0Z" transform="translate(-168.807 -234.662)" fill="#034c8a" stroke="#034c8a" stroke-linecap="round" stroke-linejoin="round" stroke-width="1"/>
              <path id="Trazado_26247" data-name="Trazado 26247" d="M179.861,403.815a5.006,5.006,0,1,0-5.006,5.006A5.006,5.006,0,0,0,179.861,403.815Z" transform="translate(-169.85 -232.572)" fill="#034c8a" stroke="#034c8a" stroke-linecap="round" stroke-linejoin="round" stroke-width="1"/>
              <circle id="Elipse_1069" data-name="Elipse 1069" cx="5.006" cy="5.006" r="5.006" transform="translate(78.283 166.238)" fill="#034c8a" stroke="#034c8a" stroke-linecap="round" stroke-linejoin="round" stroke-width="1"/>
              <circle id="Elipse_1070" data-name="Elipse 1070" cx="4.727" cy="4.727" r="4.727" transform="translate(39.42 166.516)" fill="#034c8a" stroke="#034c8a" stroke-linecap="round" stroke-linejoin="round" stroke-width="1"/>
            </g>
            <g id="Grupo_15962" data-name="Grupo 15962" transform="translate(96.823 160.353)">
              <line id="Línea_492" data-name="Línea 492" y1="118.845" x2="82.305" transform="translate(28.235 6.568)" fill="none" stroke="#034c8a" stroke-linecap="round" stroke-linejoin="round" stroke-width="2.916"/>
              <line id="Línea_493" data-name="Línea 493" x2="79.763" y2="118.845" transform="translate(29.506 6.568)" fill="none" stroke="#034c8a" stroke-linecap="round" stroke-linejoin="round" stroke-width="2.916"/>
              <rect id="Rectángulo_4021" data-name="Rectángulo 4021" width="138.774" height="13.136" rx="2.838" transform="translate(0.001)" fill="#346ec1"/>
              <path id="Trazado_26248" data-name="Trazado 26248" d="M379.229,316.408H252.538a6.032,6.032,0,0,1-5.936-5,6.089,6.089,0,0,0-.106,1.046v1.052a6.042,6.042,0,0,0,6.042,6.042H379.229a6.042,6.042,0,0,0,6.042-6.042v-1.052a5.964,5.964,0,0,0-.106-1.046A6.031,6.031,0,0,1,379.229,316.408Z" transform="translate(-246.496 -306.415)" fill="#0254a9"/>
            </g>
            <rect id="Rectángulo_4022" data-name="Rectángulo 4022" width="6.516" height="60.973" rx="1.306" transform="translate(158.57 72.91) rotate(8.154)" fill="#034c8a"/>
            <rect id="Rectángulo_4023" data-name="Rectángulo 4023" width="3.901" height="53.322" rx="0.916" transform="matrix(0.966, -0.259, 0.259, 0.966, 157.034, 107.097)" fill="#034c8a"/>
            <rect id="Rectángulo_4024" data-name="Rectángulo 4024" width="21.176" height="6.287" rx="1.476" transform="translate(160.09 153.787)" fill="#034c8a"/>
            <rect id="Rectángulo_4025" data-name="Rectángulo 4025" width="35.339" height="3.144" rx="0.738" transform="translate(106.545 156.931)" fill="#034c8a"/>
            <g id="Grupo_15976" data-name="Grupo 15976" transform="translate(342.653 35.852)">
              <path id="Trazado_26249" data-name="Trazado 26249" d="M494.137,288.182S482.331,342.02,480.4,350.024s-10.239,50.313-10.239,50.313l11.479,3.792s10.083-21.624,11.177-26.858-.57-16.994,2.28-21.744,15.366-31.153,15.366-31.153l-.845-36.685Z" transform="translate(-433.447 -188.158)" fill="#0254a9"/>
              <g id="Grupo_15969" data-name="Grupo 15969" transform="translate(71.239 99.531)">
                <path id="Trazado_26250" data-name="Trazado 26250" d="M498.994,300.013s.037,42.325,1.555,49.865,21.37,45.726,21.37,45.726l3.869,5.6,9.582-5.6s-2.156-14.867-6.071-26.591-9.935-16.808-8.953-21.36,2.827-22.86,1.573-34.608-4.247-25.356-4.247-25.356l-20.18.383Z" transform="translate(-497.492 -287.689)" fill="#346ec1"/>
                <g id="Grupo_15968" data-name="Grupo 15968" clip-path="url(#clip-path-8)">
                  <path id="Trazado_26251" data-name="Trazado 26251" d="M530.088,388.3s-4.649-17.6-6.309-21.253-9.963-17.933-9.963-20.922,2.657-15.94,2.657-22.581-6.076-29.562-6.076-29.562" transform="translate(-494.095 -286.031)" fill="none" stroke="#0254a9" stroke-miterlimit="10" stroke-width="0.516"/>
                  <g id="Grupo_15963" data-name="Grupo 15963" transform="translate(9.058 8.42)">
                    <path id="Trazado_26252" data-name="Trazado 26252" d="M504.867,294.354a2.423,2.423,0,0,0-.144.835,7.116,7.116,0,0,0,.077,2.317c.182.94.283,2.089.6,3.355a14.59,14.59,0,0,0,1.574,3.914,10.789,10.789,0,0,0,5.84,4.8,9.512,9.512,0,0,0,2.269.479,2.1,2.1,0,0,0,.849-.021,28.722,28.722,0,0,1-2.981-.829,11.051,11.051,0,0,1-5.5-4.716,15.258,15.258,0,0,1-1.555-3.759c-.337-1.206-.481-2.355-.716-3.3a8.511,8.511,0,0,1-.246-2.231A2.564,2.564,0,0,0,504.867,294.354Z" transform="translate(-504.663 -294.354)" fill="#0254a9"/>
                  </g>
                  <g id="Grupo_15964" data-name="Grupo 15964" transform="translate(-3.995 7.71)">
                    <path id="Trazado_26253" data-name="Trazado 26253" d="M494.335,293.85c-.028-.014.023.418.61.711a5.674,5.674,0,0,0,2.521.269c2.112-.03,5.033-.11,8.257-.232s6.141-.265,8.25-.4a20.636,20.636,0,0,0,3.406-.328,20.834,20.834,0,0,0-3.428-.067c-2.112.029-5.029.109-8.248.232s-6.133.264-8.243.4a6.316,6.316,0,0,1-2.429-.073C494.5,294.171,494.381,293.818,494.335,293.85Z" transform="translate(-494.329 -293.792)" fill="#0254a9"/>
                  </g>
                  <g id="Grupo_15965" data-name="Grupo 15965" transform="translate(-6.929 4.048)">
                    <path id="Trazado_26254" data-name="Trazado 26254" d="M492.007,291.871a27.835,27.835,0,0,0,3.872-.023l9.33-.3,9.332-.241a27.9,27.9,0,0,0,3.867-.2A3.808,3.808,0,0,0,517.37,291c-.668-.035-1.636-.064-2.832-.083-2.391-.038-5.7-.027-9.345.078s-6.949.284-9.334.461c-1.193.088-2.156.173-2.822.248A3.729,3.729,0,0,0,492.007,291.871Z" transform="translate(-492.007 -290.893)" fill="#0254a9"/>
                  </g>
                  <g id="Grupo_15966" data-name="Grupo 15966" transform="translate(12.086 3.81)">
                    <path id="Trazado_26255" data-name="Trazado 26255" d="M507.248,290.705a9.622,9.622,0,0,0,.227,4.61,4.914,4.914,0,0,0,.167-2.319C507.578,291.712,507.4,290.686,507.248,290.705Z" transform="translate(-507.06 -290.705)" fill="#0254a9"/>
                  </g>
                  <g id="Grupo_15967" data-name="Grupo 15967" transform="translate(5.451 2.693)">
                    <path id="Trazado_26256" data-name="Trazado 26256" d="M501.974,289.821a16.114,16.114,0,0,0,.3,5.975,16.11,16.11,0,0,0-.3-5.975Z" transform="translate(-501.807 -289.821)" fill="#0254a9"/>
                  </g>
                </g>
              </g>
              <path id="Trazado_26258" data-name="Trazado 26258" d="M533.242,363.655l-18.526,10.576s7.26,19.343,7.133,25.7c-.2,9.978-17.677,10.174-16.182,18.518.22,1.227,7.913.152,13.695.664s10.188-1.985,10.714-5.4,5.114-5.23,5.114-5.23l1.611,6.475,5.938-3.078Z" transform="translate(-424.124 -168.161)" fill="#282e5b"/>
              <path id="Trazado_26259" data-name="Trazado 26259" d="M495.074,375.286,474.127,368.2s-3.219,25.686-8.188,29.651C455.147,406.46,439.7,408.287,441.2,414.43c.294,1.21,2.774,2.8,11.209,2.408,2.735-.128,10.952-.323,13.2-2.938s7.108-1.728,7.108-1.728l-.14,5.247,12.841-.167C485.037,405.936,490.218,391.226,495.074,375.286Z" transform="translate(-441.098 -166.965)" fill="#282e5b"/>
              <g id="Grupo_15974" data-name="Grupo 15974" transform="translate(78.847 1.055)">
                <path id="Trazado_26260" data-name="Trazado 26260" d="M516.467,226.668c-2.045-.946-8.958-3.009-9.354-5.37a3.674,3.674,0,0,1,.273-1.81c4.193-11.76,20.9-11.724,29.791-6.009,2.826,1.815,5.275,2.631,8.728,2.035,3.367-.58,6.549-2.044,9.94-2.444,7.615-.9,15.629,4.378,18.347,11.437,3.468,9-2.984,16.216-3.705,24.979-.222,2.7-.248,5.652.845,8.181.764,1.77,1.21,2.206-1.052,2.722a14.966,14.966,0,0,1-4.659.062,15.473,15.473,0,0,1-6.938-1.877c-3.815-2.415-3.658-6.344-4.222-10.271-.787-5.5-1.361-11.024-2.161-16.522-.4-2.768-3.113-10.1-6.259-10.485-3.7-.375-3.353.571-3.353.571.875,2.34.16,7.225-.326,9.6a21.071,21.071,0,0,1-18.111,16.795c-3.422.392-7.465-2-10.714-3.156l4.818-12.542Z" transform="translate(-502.575 -209.734)" fill="#282e5b"/>
                <g id="Grupo_15971" data-name="Grupo 15971" transform="translate(0 6.475)">
                  <path id="Trazado_26261" data-name="Trazado 26261" d="M509.373,220.612c-.419,1.115-1.014,2.841-1.261,3.259s-3.91,2.759-4.5,3.767,1.762,1.77,1.762,1.77c-.064-.028-1.438,4.918-1.474,5.41-.159,2.2,1.481,4.581,3.278,5.673a6.977,6.977,0,0,0,7.085,0c-.551,2.011-1.134,4.012-1.713,6.016l9.918,3.6s.45-7.176,1.464-9.541,3.274-8.527,3.274-8.527a2.562,2.562,0,0,0,2.04-.649c1.074-.869,1.622-3.677-.12-4.347a2.392,2.392,0,0,0-3.192,1.2c-1.291-.172-2.384-3.252-2.8-4.228-1.292-3.066-.515-6.051.115-9.157-.068.335-1.969.988-2.284,1.243a8.031,8.031,0,0,0-2.1,3.809,20.405,20.405,0,0,0-.52,2.131c-.3,1.523.083,2.358-1.794,1.789A37.969,37.969,0,0,1,509.373,220.612Z" transform="translate(-503.514 -214.86)" fill="#d08b73"/>
                  <g id="Grupo_15970" data-name="Grupo 15970" clip-path="url(#clip-path-9)">
                    <path id="Trazado_26262" data-name="Trazado 26262" d="M520.946,231.343c-.2-.221-2.531,1.656-5.662,3.547-3.12,1.91-5.858,3.116-5.754,3.4.081.255,3.065-.546,6.288-2.518C519.051,233.814,521.135,231.533,520.946,231.343Z" transform="translate(-501.932 -210.526)" fill="#bc6c56"/>
                    <path id="Trazado_26263" data-name="Trazado 26263" d="M522.3,227.214c-.09.008-.053.408.446.58a1.039,1.039,0,0,0,.865-.109,1.542,1.542,0,0,0,.537-1.871.745.745,0,0,0-.438-.373.779.779,0,0,0-.442.011c-.41.184-.595.361-.551.437s.3.076.624.034c.183.014.2.046.246.158a1.08,1.08,0,0,1-.025.584.778.778,0,0,1-.726.659C522.549,227.338,522.39,227.175,522.3,227.214Z" transform="translate(-498.578 -212.082)" fill="#bc6c56"/>
                    <path id="Trazado_26264" data-name="Trazado 26264" d="M524.63,212.95A10.008,10.008,0,0,0,521.6,214.9a10.261,10.261,0,0,0-1.328,1.278c-.224.25-.464.5-.694.778a7.277,7.277,0,0,0-.557.964c-.332.68-.6,1.393-.884,2.15q-.212.567-.431,1.148a7.345,7.345,0,0,0-.288,1.262c-.126.829-.341,1.561-.955,1.777a2.844,2.844,0,0,1-1.992-.234,12.06,12.06,0,0,1-3.269-1.906,6.557,6.557,0,0,0-2.309-1.335c-.634-.158-.994-.037-.987-.006,0,.061.352.037.907.256a7.534,7.534,0,0,1,2.087,1.455,11.519,11.519,0,0,0,3.341,2.115,3.386,3.386,0,0,0,2.459.272,1.88,1.88,0,0,0,1.035-.99,5.157,5.157,0,0,0,.347-1.289,6.837,6.837,0,0,1,.264-1.172q.208-.572.412-1.128c.267-.738.528-1.465.824-2.108a6.939,6.939,0,0,1,.489-.9l.624-.744a10.783,10.783,0,0,1,1.219-1.286C523.522,213.77,524.689,213.041,524.63,212.95Z" transform="translate(-502.359 -215.364)" fill="#bc6c56"/>
                  </g>
                </g>
                <g id="Grupo_15972" data-name="Grupo 15972" transform="translate(65.667 9.462)">
                  <path id="Trazado_26266" data-name="Trazado 26266" d="M569.006,256.3a10.716,10.716,0,0,0-1.575-.843,12.3,12.3,0,0,1-3.607-3.063,13.6,13.6,0,0,1-2.8-6.343,19.77,19.77,0,0,1,.562-8.55c.413-1.483.96-2.942,1.282-4.449a14.416,14.416,0,0,0,.227-4.429,15.4,15.4,0,0,0-2.516-6.969,13.823,13.823,0,0,0-3.464-3.574,4.179,4.179,0,0,0-1.609-.85c-.148.183,2.255,1.4,4.392,4.857a15.4,15.4,0,0,1,2.149,6.632,13.906,13.906,0,0,1-.272,4.093c-.313,1.4-.855,2.831-1.29,4.383a19.944,19.944,0,0,0-.5,9.045,13.823,13.823,0,0,0,3.223,6.675,11.179,11.179,0,0,0,4.03,2.942A3.8,3.8,0,0,0,569.006,256.3Z" transform="translate(-555.497 -217.225)" fill="#282e5b"/>
                </g>
                <g id="Grupo_15973" data-name="Grupo 15973" transform="translate(15.575 24.092)">
                  <path id="Trazado_26267" data-name="Trazado 26267" d="M515.845,237.52c.023.1.763.072,1.878-.335a10.676,10.676,0,0,0,6.237-6.487c.361-1.131.366-1.871.26-1.891-.259-.075-.9,2.76-3.3,5.207C518.568,236.511,515.76,237.265,515.845,237.52Z" transform="translate(-515.844 -228.806)" fill="#282e5b"/>
                </g>
              </g>
              <g id="Grupo_15975" data-name="Grupo 15975" transform="translate(23.513)">
                <path id="Trazado_26268" data-name="Trazado 26268" d="M541.059,293.365S530.31,323.478,530.8,329.632s6.564,9.764,6.81,11.487c.159,1.113-1.866,2.342-2.831,2a2.633,2.633,0,0,1-.917-.675c-1.335-1.323-2.614-2.779-4.04-4-.839-.72-1.191-.783-1.1.322.052.624.4,4.151-.136,4.53-.411.287-1.329,1.025-1.4-.082s-1.059-10.873-.812-13.334a65.823,65.823,0,0,0,0-7.2c-.033-3.187.07-6.354.349-9.538a113.6,113.6,0,0,1,1.734-12.159c.73-3.684,1.313-7.8,3.551-10.926C535.808,284.749,541.059,293.365,541.059,293.365Z" transform="translate(-442.174 -187.99)" fill="#d08b73"/>
                <path id="Trazado_26269" data-name="Trazado 26269" d="M520.7,262.281a145.721,145.721,0,0,1,1.038,21.566c-.1,3.838-.347,7.485-.7,10.922a25.929,25.929,0,0,1,7.8,3.173c3.811,2.358,5.03,4.568,8.935,6.328a19.065,19.065,0,0,0,6.062,1.58,105.573,105.573,0,0,0-4.813-36.128c-3.925-12.214-8.349-17.7-10.739-20.312A44.95,44.95,0,0,0,517.7,240.9q-.161.2-.307.407C513.457,246.888,517.493,256.355,520.7,262.281Z" transform="translate(-444.956 -200.476)" fill="#12a189"/>
                <path id="Trazado_26270" data-name="Trazado 26270" d="M476.763,246.357s-9.051-11.688-9.543-14.641a38.659,38.659,0,0,1-.575-6.974c.082-.862,1.086-3.364,1.364-5.169s-1.2-4.185-1.384-4.472.144-5.5-.473-5.99-1.846-.657-1.559,5.867c-3.24-.574-4.841-.287-4.882,2.051s2.216,8.329,2.216,8.329a43.877,43.877,0,0,0,.944,6.646c.7,2.708,3.584,17.554,10.346,23.361C478.257,253.951,476.763,246.357,476.763,246.357Z" transform="translate(-459.712 -208.899)" fill="#d08b73"/>
                <path id="Trazado_26271" data-name="Trazado 26271" d="M531,240.773a31.469,31.469,0,0,0-3.536-.716,54.641,54.641,0,0,0-11.709-.192c-3.272.234-6.263.042-9.529-.033-4.164-.1-8.329-.215-12.486-.446a37.206,37.206,0,0,1-7.367-.753c-5.493-1.454-6.35-3.106-8.7-2.626-3.135.642-4.044,4.437-7.422,10.465a69.726,69.726,0,0,1-8.351,11.792c7.053,1.837,15.741,2.86,25.643,3.681,6.292.522,10.437.374,12.749-.337h0s.623,1.723,1.266,4.1a55.45,55.45,0,0,1,1.388,8.041c.389,4.522-1.417,16.1-7.97,29.909a28.669,28.669,0,0,1,8.158-1.222c6.34-.014,9.318,2.031,16.427,2.553a42.468,42.468,0,0,0,9.128-.332c.123-1.9,1.339-3.217,1.247-4.939-.1-1.83-.677-3.92.258-5.52.376-.644-.639-2.626-.062-4.247a71.064,71.064,0,0,1,7.932-14.889,49.475,49.475,0,0,0,5.834-10.753c2.082-5.1,2.595-10.8-.622-15.558C540.455,244.573,535.836,242.051,531,240.773Z" transform="translate(-459.134 -201.786)" fill="#14b6a1"/>
              </g>
              <path id="Trazado_26272" data-name="Trazado 26272" d="M492.3,256.955a49.616,49.616,0,0,0,9.5-3.358c-6.535,6.867-6.247,15.279-6.995,20.011C493.6,259.681,492.3,256.955,492.3,256.955Z" transform="translate(-427.62 -197.133)" fill="#12a189"/>
            </g>
          </g>
          <g id="Grupo_15978" data-name="Grupo 15978" transform="translate(578.512 284.899)">
            <path id="Trazado_26273" data-name="Trazado 26273" d="M556.817,420.132a53.617,53.617,0,0,0,16.893-1.626,50.57,50.57,0,0,0,7.022-2.376c5.173-2.2,17.008-7.9,16.49-13.334-.494-5.181-12.05-7.213-13.526-7.4a39.055,39.055,0,0,0,16.585-4.232,55.364,55.364,0,0,0,8.181-5,21.341,21.341,0,0,0,4.3-4.189,9.372,9.372,0,0,0,1.282-2.345,6.872,6.872,0,0,0,.4-2.525c-.1-4.664-6.341-8-14.345-8.493a46.568,46.568,0,0,0,3.4-4.33A50.391,50.391,0,0,0,607,358.37c.273-.543.878-1.761,1.583-3.268s1.488-3.308,2.278-5.179c1.6-3.8,3.444-8.409,1.475-11.292-1.2-1.761-3.377-2.508-5.575-2.774a20.774,20.774,0,0,0-5.693.248,17.8,17.8,0,0,0-5.427,1.935,24.032,24.032,0,0,0-4.3,3.014,30.964,30.964,0,0,0-4.774,5.333c-2.84,3.879-3.344,5.062-3.994,7.271-.975-4.894-2.889-8.407-5.1-10.595a8.594,8.594,0,0,0-7.019-2.712,5.4,5.4,0,0,0-2.027.715,8.107,8.107,0,0,0-1.852,1.618,22.56,22.56,0,0,0-3.151,4.944,52.241,52.241,0,0,0-3.116,8.331,35.594,35.594,0,0,0,.466,21.063c-1.568-2.87-6.88-12.591-11.77-11.067-2.826.88-4.75,5.319-5.911,10.472a69.386,69.386,0,0,0-1.513,14.7,50.152,50.152,0,0,0,1.359,11.042,45.105,45.105,0,0,0,5.05,12.713,37.3,37.3,0,0,0,3.187,4.548A50.888,50.888,0,0,0,556.817,420.132Z" transform="translate(-541.57 -335.753)" fill="#f29c1f"/>
            <path id="Trazado_26274" data-name="Trazado 26274" d="M545.442,425.925s.711-1.277,1.889-3.535c.589-1.129,1.3-2.5,2.139-4.046s1.872-3.255,2.99-5.141c4.467-7.539,10.816-17.432,17.745-27.2s14.3-19.491,20.165-27.137c2.937-3.83,5.4-7.2,7.375-9.694s3.432-4.14,3.968-4.819" transform="translate(-540.551 -333.49)" fill="none" stroke="#805333" stroke-linecap="round" stroke-linejoin="round" stroke-width="1.669"/>
            <path id="Trazado_26275" data-name="Trazado 26275" d="M572.649,374.446c-2.029-9.46-3.869-19.03-5.642-28.611" transform="translate(-534.874 -333.099)" fill="none" stroke="#805333" stroke-linecap="round" stroke-linejoin="round" stroke-width="1.669"/>
            <path id="Trazado_26276" data-name="Trazado 26276" d="M569.709,371.575c9.453-.869,18.863-1.51,28.263-2.067" transform="translate(-534.163 -326.867)" fill="none" stroke="#805333" stroke-linecap="round" stroke-linejoin="round" stroke-width="1.669"/>
            <path id="Trazado_26277" data-name="Trazado 26277" d="M556.428,397.436c-2.624-8.745-4.9-17.742-6.953-26.817" transform="translate(-539.49 -326.575)" fill="none" stroke="#805333" stroke-linecap="round" stroke-linejoin="round" stroke-width="1.669"/>
            <path id="Trazado_26278" data-name="Trazado 26278" d="M553.835,395.018c9.972-1.715,19.837-2.9,29.684-3.8" transform="translate(-538.342 -321.152)" fill="none" stroke="#805333" stroke-linecap="round" stroke-linejoin="round" stroke-width="1.669"/>
          </g>
          <g id="Grupo_15979" data-name="Grupo 15979" transform="translate(578.66 276.18)">
            <path id="Trazado_26279" data-name="Trazado 26279" d="M541.688,428.365a37.334,37.334,0,0,1,7.736-9.588q1.717-1.584,3.508-3.233,1.474-1.44,3-2.937c4.544-4.372,9.375-8.791,13.719-13.323,4.5-4.649,9.387-10.187,15.346-16.224,5.959-5.976,12.365-11.816,19.443-17.627,23.743-19.472,58.51-41.034,63.131-35.78,4.616,5.275-20.951,36.34-43.369,57.974-6.414,6.2-12.906,11.911-19.061,16.977a162.267,162.267,0,0,1-19.436,14.315,120.832,120.832,0,0,1-19.115,9.074c-6.248,2.645-11.557,3.185-15.8,6.434Z" transform="translate(-541.688 -328.85)" fill="#14b6a1"/>
            <path id="Trazado_26280" data-name="Trazado 26280" d="M545.743,428.97a30.735,30.735,0,0,1,8.292-6.771l3.843-2.28.883-.544.949-.611,1.892-1.217c5.028-3.245,9.982-6.491,14.612-10.079,4.648-3.6,9.079-7.612,13.5-11.679,4.408-4.092,8.879-8.145,13.356-12.156,17.909-16.08,36.082-31.811,54.292-47.54" transform="translate(-540.621 -326.944)" fill="none" stroke="#148b7a" stroke-linecap="round" stroke-linejoin="round" stroke-width="1.352"/>
            <line id="Línea_494" data-name="Línea 494" x2="10.236" y2="0.498" transform="translate(92.793 29.897)" fill="none" stroke="#148b7a" stroke-linecap="round" stroke-linejoin="round" stroke-width="1.352"/>
            <line id="Línea_495" data-name="Línea 495" x1="1.823" y1="10.776" transform="translate(84.543 24.731)" fill="none" stroke="#148b7a" stroke-linecap="round" stroke-linejoin="round" stroke-width="1.352"/>
            <line id="Línea_496" data-name="Línea 496" x2="9.578" y2="2.672" transform="translate(72.44 47.771)" fill="none" stroke="#148b7a" stroke-linecap="round" stroke-linejoin="round" stroke-width="1.352"/>
            <line id="Línea_497" data-name="Línea 497" x1="0.604" y1="12.585" transform="translate(61.843 44.102)" fill="none" stroke="#148b7a" stroke-linecap="round" stroke-linejoin="round" stroke-width="1.352"/>
            <path id="Trazado_26281" data-name="Trazado 26281" d="M582.358,381.68c4.257.717,8.475,1.486,12.7,2.276" transform="translate(-530.982 -314.943)" fill="none" stroke="#148b7a" stroke-linecap="round" stroke-linejoin="round" stroke-width="1.352"/>
            <path id="Trazado_26282" data-name="Trazado 26282" d="M567.987,395.928c.375-3.09.6-6.147.74-9.2" transform="translate(-534.765 -313.613)" fill="none" stroke="#148b7a" stroke-linecap="round" stroke-linejoin="round" stroke-width="1.352"/>
          </g>
          <line id="Línea_498" data-name="Línea 498" x2="595.051" transform="translate(44.782 377.664)" fill="none" stroke="#363a69" stroke-linecap="round" stroke-linejoin="round" stroke-width="5.023"/>
        </g>
      </g>
    </g>
  </g>
</svg>
