<svg xmlns="http://www.w3.org/2000/svg" width="163.386" height="237.566" viewBox="0 0 163.386 237.566">
  <g id="Grupo_14211" data-name="Grupo 14211" transform="translate(-140.684 -128.648)">
    <path id="Trazado_23619" data-name="Trazado 23619" d="M201.6,172.241s-7.877,3.141-12.2,3.141-22.771-4.613-23.636-4.613-25.077,16.856-25.077,16.856l21.329-9.6-17.581,12.84,21.042-10.049-14.7,11.86,20.366-8.936L160,195.767s11.387-.036,17.294-1.362c9.513-2.137,22.626-13.529,22.626-13.529Z" transform="translate(0 73.119)"/>
    <path id="Trazado_23620" data-name="Trazado 23620" d="M173.316,145.048s2.454-6.741.514-8.2c-.919-.689-4.517.947-5.094,2.386s-.036,5-.036,5Z" transform="translate(48.231 13.958)" fill="#dc8746"/>
    <path id="Trazado_23621" data-name="Trazado 23621" d="M181.476,152.681c2.815-.4,4.235,6.375,4.536,10.035s.238,9.384,1.1,10.744c4.222,6.659,7.65,14.55,7.994,16.251l-4.55,2.938-11.015-17.171S178.215,153.143,181.476,152.681Z" transform="translate(66.993 41.69)" fill="#781500"/>
    <path id="Trazado_23622" data-name="Trazado 23622" d="M200.255,183.986s6.183,10.812,9.614,14.328S216.6,206.505,219,209.08c2.416,2.594-.315,7.3-1.051,13.318-.807,6.626-1.094,13.286-1.978,13.953-1.688,1.28-10.974,7.959-12.134,9.392s-2.435-11.677,1.2-12.41c3.819-.769,4.695-1.521,4.695-1.521s1.19-18.013.8-19.039-9.064-4.364-14.965-6.81-11.726-13.529-11.726-13.529Z" transform="translate(74.933 96.063)"/>
    <path id="Trazado_23623" data-name="Trazado 23623" d="M182.9,160l-.714-.482c.175-.263,4.451-6.427,15.026-6.427,10.531,0,50.426-4.139,58.9-7.3,1.045-.391,1.51-1.026,1.376-1.882-.635-4.139-14.279-12.5-44.275-14.03-33.709-1.721-56.874,3-57.411,6.87-.148,1.075,2.1,2.246,6.005,3.133a155.014,155.014,0,0,0,40.823,4.159c5.113-3.045,15.909-9.026,22.32-9.357,5.436-.285,8.7,1.984,9.149,4.358.3,1.557-.689,2.914-2.566,3.538a46.93,46.93,0,0,1-13.324,2.049c-3.352.027-6.492.093-9.521.159-1.981.044-3.9.085-5.8.115-1.6.947-2.583,1.579-2.624,1.6l-.465-.728c.107-.068.591-.378,1.368-.854a153.769,153.769,0,0,1-39.553-4.2c-4.654-1.059-6.9-2.435-6.67-4.1.687-4.966,25.77-9.277,58.311-7.617,29.436,1.5,44.306,9.7,45.088,14.76a2.554,2.554,0,0,1-1.932,2.826c-8.539,3.187-48.631,7.36-59.2,7.36C187.117,153.956,182.939,159.937,182.9,160Zm42.932-24.476c-.271,0-.55.008-.834.022-5.65.29-15.157,5.319-20.588,8.462,1.4-.025,2.813-.055,4.26-.085,3.031-.066,6.178-.134,9.532-.164a45.921,45.921,0,0,0,13.061-2c1.456-.487,2.2-1.442,1.986-2.561C232.9,137.354,230.2,135.521,225.83,135.521Z" transform="translate(24.729 0)"/>
    <path id="Trazado_23624" data-name="Trazado 23624" d="M279.5,218.412c-1.923.293-8.219-2.8-8.435-4.966s-3.354-8.117-5.185-10.383c-1.737-2.153-6.052-3.458-6.7-2.161s-2.378,7.349-2.378,7.349,2.741,18.454,1.729,22.268c-3.067,11.535-19.674,12.323-21.187,11.89s-23.994,4.755-27.887,3.89-18.87-.662-26.155-12.323c-4.326-6.916-17.294,19.89-17.51,22.268s-1.7,4.4-2.78,7.212,1.729,27.02,2.378,28.32-1.513,4.186-1.729,6.347-.681,10.733-1.33,12.246-9.045-5.19-9.045-6.922,3.458-5.4,3.026-6.268,1.081-3.026.432-7.351-4.356-24.29-4.788-26.883,9.294-25.726,8.213-28.536-3.674-30.265,4.971-38.694,16.216-11.89,22.916-12.106,34.588,5.187,38.7,1.081,28.752-24.213,35.452-24,11.458,1.729,12.755,4.323,3.674,9.081,4.539,11.242.865,9.513,1.3,14.484.717,10.2,2.232,12.58S286.633,217.331,279.5,218.412Z" transform="translate(19.541 55.624)"/>
    <path id="Trazado_23625" data-name="Trazado 23625" d="M168.536,142.067s1.352-1.937,2.211-2.23-.807-.963-.539-1.721,2.388-.306,2.651.709-.5,4.252-.5,4.252Z" transform="translate(48.349 15.782)" fill="#dc8746"/>
    <path id="Trazado_23626" data-name="Trazado 23626" d="M173.618,136.92a18.027,18.027,0,0,1-1.343,2.6c-.539.654-2.328,1.844-3.2,1.108-.347-.293-1.1-.741.09-2.517C169.979,136.893,173.618,136.92,173.618,136.92Z" transform="translate(48.32 14.36)" fill="#dc8746"/>
    <path id="Trazado_23627" data-name="Trazado 23627" d="M179.146,185s2.394,18.892,3.475,20.314,21.778,14.656,22.941,15.521c2.145,1.6,4.191,4.84,5.289,6.99s3.1,15.942,3.748,18.024,2.585,3.724,2.211,4.958a14.5,14.5,0,0,0,.274,6.046c.506,2.107.512,5.962,2.107,7.589s8.2,2.175,9.981,2.309-2.514-10.052-3.324-11.373-2.235-5.718-1.625-7.286-2.509-5.992-3.234-9.376-1.371-11.589-2.361-14.079c-.714-1.8-.539-5.8-9.228-15.57s-14.35-14.651-14.005-16.905,1.217-9.127,1.217-9.127Z" transform="translate(66.767 94.414)"/>
    <path id="Trazado_23628" data-name="Trazado 23628" d="M171.838,187.585S170.4,198.9,167.37,201.924s-5.62,3.89-4.971,6.052,9.078,15.565,10.807,21.835,2.813,9.51,1.083,10.159-3.461,5.406-2.813,7.568,4.758,7.351,6.919,7.568,2.161-7.352,2.81-8,0-9.081,1.081-10.594S182.549,229,177,217.85c-4.085-8.216,16.957-22.629,16.957-22.629Z" transform="translate(37.521 102.311)"/>
    <path id="Trazado_23629" data-name="Trazado 23629" d="M185.708,169.121s-9.485-10.208-10.063-12.79,2.6-16.115,1.518-16.558-5.4-.443-5.4-.443-5.956,18.246-5.3,19.433c.9,1.625,11.215,19.13,12.933,19.994S185.106,171.75,185.708,169.121Z" transform="translate(44.662 18.542)" fill="#c40000"/>
    <path id="Trazado_23630" data-name="Trazado 23630" d="M183.559,152.638l-.62,6.007-8.148-1.341,1.765-10.278Z" transform="translate(59.207 31.903)" fill="#924d14"/>
    <path id="Trazado_23631" data-name="Trazado 23631" d="M175.049,151.193c-.057,4.049,5.639,8.963,7.814,8.968,2.421.008,3.787-3.688,4.12-8.139.3-4.038-2.728-7.373-6.216-7.423S175.107,147.144,175.049,151.193Z" transform="translate(59.655 27.69)" fill="#dc8746"/>
    <path id="Trazado_23632" data-name="Trazado 23632" d="M178.057,147.559s8.878-2.542,9.855-2.413,1.447,4.17-1.269,5.688S178.057,147.559,178.057,147.559Z" transform="translate(64.877 28.632)" fill="#cea66d"/>
    <path id="Trazado_23633" data-name="Trazado 23633" d="M189.183,152.07s-1.289-9.045-2.741-9.119-10.115.2-10.47,1.209-1.907,7.179-1.907,7.179.1.657,7.444,1.04C188.318,152.732,189.183,152.07,189.183,152.07Z" transform="translate(57.945 24.81)" fill="#e5b577"/>
    <path id="Trazado_23634" data-name="Trazado 23634" d="M184.577,147.948s-5.5-.843-5.885,1.04.7,2.8.375,2.862-1.379-3.015-1.792-2.728.821,4.386.821,4.386-2.55-1.349-3-2.64-1.275-4.284-.17-4.7S184.577,147.948,184.577,147.948Z" transform="translate(58.488 30.316)" fill="#5c3800"/>
    <path id="Trazado_23635" data-name="Trazado 23635" d="M186.2,147.162l-.219-1.4-10.2.936,5.718,1.048A25.021,25.021,0,0,0,186.2,147.162Z" transform="translate(60.927 29.718)" fill="#5c3800"/>
    <path id="Trazado_23636" data-name="Trazado 23636" d="M174.18,146.176a8.562,8.562,0,0,1,3.546-.982c1.666.036,5.806,2.126,5.806,2.126Z" transform="translate(58.146 28.721)" fill="#cea66d"/>
    <path id="Trazado_23637" data-name="Trazado 23637" d="M195.716,150.565s-10.6-5.532-14.164-5.122-9.565.624-9.767,3.056,8.487.465,12.848.684S195.716,150.565,195.716,150.565Z" transform="translate(53.983 29.119)" fill="#e5b577"/>
    <path id="Trazado_23638" data-name="Trazado 23638" d="M182.277,151.909c-.875.044-8.84-3.814-9.693-1.122a149.361,149.361,0,0,0-.107,15.042,99.182,99.182,0,0,1-.23,12.911,45.191,45.191,0,0,1-2.041,10.459,53.828,53.828,0,0,0,10.079,2.525c6.087.815,12.522.454,12.61-.285.1-.859,5.223-19.335,5.792-21.734s1.157-10.394-.681-12.057a41.4,41.4,0,0,0-5.792-3.863Z" transform="translate(51.248 36.774)" fill="#c40000"/>
    <path id="Trazado_23639" data-name="Trazado 23639" d="M214.235,168.34s-10.454,21.414-10.5,24.01-42.421.648-42.853-1.729,11.313-19.307,15.926-19.816S214.235,168.34,214.235,168.34Z" transform="translate(35.041 68.903)" fill="#c40000"/>
    <path id="Trazado_23640" data-name="Trazado 23640" d="M177.315,173.715c-3.677-.752-12.323.761-10.81,4.867s7.3,8.268,12.722,7.92,14.085-12.243,17.11-14.621,4.238-2.424,6.227-1.754,3.929,4.747,3.929,4.747l2.454-1.964a14.917,14.917,0,0,0-.936-4.812c-1-2.205-2.271-4.648-6.315-3.937-2.3.408-11.628,9.442-14.224,9.554S177.315,173.715,177.315,173.715Z" transform="translate(44.519 61.43)" fill="#781500"/>
    <path id="Trazado_23641" data-name="Trazado 23641" d="M171.907,179s2.213,7.888-1.286,9.833-8.257,5.529-6.312,7.844,9.729,1.237,9.945,5.343-5.078,15.565-1.674,18.374,9.745-2.378,10.826-4.755,2.955-15.132,6.2-16.645,6.919-3.242,8.216-5.622,7.33-12.993,8.574-14.987c1.321-2.118,6.845-7.113,6.845-7.113s-2.232-8.164-7.25-5.893c-2.454,1.111-17.466,16.539-20.924,16.539S171.907,179,171.907,179Z" transform="translate(40.228 63.069)" fill="#5c3800"/>
    <path id="Trazado_23642" data-name="Trazado 23642" d="M176.824,164.588c-.75-.219-1.176-.367-1.176-.367a30.832,30.832,0,0,0-3.953,11.226c-.49,4-.219,16.793-.782,18.593-3.486,11.1-4.118,14.5-3.748,21.874.246,4.9.52,7.882.52,7.882l6.273.241s5.146-20.9,6.971-26.465,7.343-24.878,7.343-24.878l3.8-2.922,5.918-4.577a42.853,42.853,0,0,1-7.819,1.1,42.138,42.138,0,0,1-13.346-1.707Z" transform="translate(45.806 61.753)" fill="#003672"/>
    <path id="Trazado_23643" data-name="Trazado 23643" d="M174.419,197.719l4.687-18.156s-4.191,4.643-4.974,4.807-4.585-5.576-5.267-5.434c-1.825.378-1.882,8.873-1.795,10.747s.512,7.559.3,8.011a3.59,3.59,0,0,0-.462,1.937c.107.744.35,1.666.35,1.666l6.547.517Z" transform="translate(45.487 87.293)" fill="#cea66d"/>
    <path id="Trazado_23644" data-name="Trazado 23644" d="M170.01,199.409l2.886-6.068,4.183.577-.665,6.287a1.269,1.269,0,0,1-1.373,1.13l-4.137-.364A1.1,1.1,0,0,1,170.01,199.409Zm-1,3.68,7.04.358a1.9,1.9,0,0,0,1.986-1.732l2.52-21.882-1.992-.446L167.406,200.34A1.9,1.9,0,0,0,169.006,203.089Z" transform="translate(46.032 88.081)" fill="#5c3800"/>
    <path id="Trazado_23645" data-name="Trazado 23645" d="M177.171,189.179c-.041.673-.126,1.187-.851,1.409s-7.48-.851-7.48-.851-.741-.342-.643-.9a5.777,5.777,0,0,1,1.863-2.613C171.871,185.16,177.362,186.071,177.171,189.179Z" transform="translate(47.744 99.209)" fill="#e5b577"/>
    <path id="Trazado_23646" data-name="Trazado 23646" d="M185.824,152.184a5.345,5.345,0,0,1-1.964,1.092c-1.535.6-5.86-3.614-5.86-3.614a2.037,2.037,0,0,0-2.213.435c-.635.766.12,1.611-.6,1.7s-2.347.23-1.8,1.669,8.766,10.78,9.3,10.845c.865.1,5.072-8.271,5.258-9.693.142-1.083-1.74-.315-1.2-.933S186.9,151.732,185.824,152.184Z" transform="translate(56.574 36.207)" fill="#003672"/>
    <path id="Trazado_23647" data-name="Trazado 23647" d="M195.677,184.012s2.747-3.264,3.718-3.743,9.953-2.528,9.953-2.528l-.87-1.732s-8.867,2.164-9.838,2.6-3.855,3.6-3.855,3.6Z" transform="translate(93.915 82.216)" fill="#5c3800"/>
    <path id="Trazado_23648" data-name="Trazado 23648" d="M191.861,161.592s-2.6,15.737-.5,23.953a46.679,46.679,0,0,0,5.551,13.343l-1.27.873s-5.507-9.037-6.555-14.361c-1.874-9.513.832-22.714.832-22.714Z" transform="translate(82.886 57.189)" fill="#5c3800"/>
    <path id="Trazado_23649" data-name="Trazado 23649" d="M208.281,192.8a130.673,130.673,0,0,1-10.09-11.838c-3.745-5.256-8.96-12.621-8.96-12.621v3.9a87.708,87.708,0,0,0,7.663,10.377c3.893,4.323,10.665,10.96,10.665,10.96Z" transform="translate(84.274 68.903)" fill="#5c3800"/>
    <path id="Trazado_23650" data-name="Trazado 23650" d="M198.3,170.789s-4.881-5.762-5.685-8.123-2.424-4.955-3.289-4.522-1.9,9.795.3,13.488S198.3,170.789,198.3,170.789Z" transform="translate(82.686 51.119)"/>
    <path id="Trazado_23651" data-name="Trazado 23651" d="M193.6,169.417s5.994-4.594,7.278-6.73,3.423-4.328,4.175-3.724-.224,9.975-3.152,13.121S193.6,169.417,193.6,169.417Z" transform="translate(91.851 52.448)"/>
    <path id="Trazado_23652" data-name="Trazado 23652" d="M221.294,194.077s-21.009-3.223-35.277-15.042c-3.226-2.673-2.553-11.756-2.553-11.756l-2.454,1.964s-.12,5.568,2.454,9.2c7.037,9.915,38.806,17.814,38.806,17.814Z" transform="translate(70.002 67.061)" fill="#5c3800"/>
    <path id="Trazado_23653" data-name="Trazado 23653" d="M172.706,136.843h0a.758.758,0,0,1-.758-.758v-1.3a.756.756,0,0,1,.758-.755h0a.753.753,0,0,1,.755.755v1.3A.755.755,0,0,1,172.706,136.843Z" transform="translate(54.272 9.349)"/>
  </g>
</svg>
