<svg id="Grupo_14493" data-name="Grupo 14493" xmlns="http://www.w3.org/2000/svg" width="140.92" height="140.92" viewBox="0 0 140.92 140.92">
  <g id="Grupo_14491" data-name="Grupo 14491" transform="translate(18.183 2.273)">
    <rect id="Rectángulo_3903" data-name="Rectángulo 3903" width="28" height="19" transform="translate(92.816 -0.353)" fill="#ececec"/>
    <circle id="Elipse_992" data-name="Elipse 992" cx="52.5" cy="52.5" r="52.5" transform="translate(-0.184 15.647)" fill="#ececec"/>
  </g>
  <path id="Trazado_24374" data-name="Trazado 24374" d="M248,300.277A52.275,52.275,0,0,0,300.277,248H248Z" transform="translate(-177.54 -177.54)" fill="#fcd770"/>
  <path id="Trazado_24375" data-name="Trazado 24375" d="M248,64v52.277h52.277A52.275,52.275,0,0,0,248,64Z" transform="translate(-177.54 -45.817)" fill="#fea82f"/>
  <g id="Grupo_14492" data-name="Grupo 14492" transform="translate(2.273 38.639)">
    <rect id="Rectángulo_3904" data-name="Rectángulo 3904" width="23" height="28" transform="translate(-0.273 72.281)" fill="#ececec"/>
    <rect id="Rectángulo_3905" data-name="Rectángulo 3905" width="23" height="28" transform="translate(113.727 72.281)" fill="#ececec"/>
    <path id="Trazado_24376" data-name="Trazado 24376" d="M341.548,158.729h0a63.568,63.568,0,0,0-23.6-4.546h-3.671A2.274,2.274,0,0,1,312,151.91v-9.092a2.274,2.274,0,0,1,2.273-2.273h3.671a63.568,63.568,0,0,0,23.6-4.546h0Z" transform="translate(-225.63 -136)" fill="#ececec"/>
  </g>
  <rect id="Rectángulo_3906" data-name="Rectángulo 3906" width="9" height="32" transform="translate(5 17.92)" fill="#ffeaa7"/>
  <rect id="Rectángulo_3907" data-name="Rectángulo 3907" width="9" height="25" transform="translate(14 24.92)" fill="#fcd770"/>
  <rect id="Rectángulo_3908" data-name="Rectángulo 3908" width="9" height="16" transform="translate(23 33.92)" fill="#ffc729"/>
  <rect id="Rectángulo_3909" data-name="Rectángulo 3909" width="9" height="9" transform="translate(32 40.92)" fill="#fea82f"/>
  <path id="Trazado_24377" data-name="Trazado 24377" d="M109.1,0V9.092H90.916V19.933a54.353,54.353,0,0,0-59.1,12.037v-.15H22.729V22.729H13.637V15.91H0V52.277H19.031a54.494,54.494,0,0,0,21.881,64v6.46H27.275V109.1H0V140.92H27.275V127.283H45.458v-8.364a54.356,54.356,0,0,0,50,0v8.364h18.183V140.92H140.92V109.1H113.645v13.637H100.008v-6.46a54.456,54.456,0,0,0,20.456-67.585V35.282l-3.118,1.246c-1.089.436-2.189.827-3.293,1.2A54.667,54.667,0,0,0,95.462,22V13.637H109.1v9.092H140.92V0ZM22.729,136.374H4.546V113.645H22.729Zm95.462-22.729h18.183v22.729H118.191Zm-86.37-70.46h4.546v4.546H31.821Zm-4.546-6.819V47.731H22.729V36.366ZM9.092,47.731H4.546V20.456H9.092Zm4.546-20.456h4.546V47.731H13.637Zm27.275,77.279v6.214a49.8,49.8,0,0,1-16.99-58.491h16.99V38.639H31.925A49.721,49.721,0,0,1,68.187,20.52V120.4a49.63,49.63,0,0,1-22.729-6.669v-9.183Zm59.1,6.214v-6.214H95.462v9.183A49.63,49.63,0,0,1,72.733,120.4V72.733h47.674A49.979,49.979,0,0,1,100.008,110.768ZM94.587,54.55H90.916V45.458h3.671c.293,0,.582-.032.875-.036v9.164C95.169,54.581,94.88,54.55,94.587,54.55Zm5.421-9.314a65.419,65.419,0,0,0,15.91-3.328V58.1a65.313,65.313,0,0,0-15.91-3.328Zm9.373-6.139a61.055,61.055,0,0,1-14.794,1.816H90.916a4.55,4.55,0,0,0-4.546,4.546V54.55A4.55,4.55,0,0,0,90.916,59.1h3.671a61,61,0,0,1,22.761,4.384l2.764,1.1q.211,1.79.3,3.6H72.733V20.524a49.9,49.9,0,0,1,18.183,4.328v6.969h4.546V27.2A50.171,50.171,0,0,1,109.381,39.1Zm26.993-20.913H113.645V4.546h22.729Z"/>
  <path id="Trazado_24378" data-name="Trazado 24378" d="M36.546,7.682A45.819,45.819,0,0,0,68.366,20.456V15.91A41.307,41.307,0,0,1,39.844,4.546h3.521V0H32V11.365h4.546Z" transform="translate(-22.908)"/>
  <rect id="Rectángulo_3910" data-name="Rectángulo 3910" width="9" height="5" transform="translate(9 117.92)"/>
  <rect id="Rectángulo_3911" data-name="Rectángulo 3911" width="9" height="5" transform="translate(9 126.92)"/>
  <rect id="Rectángulo_3912" data-name="Rectángulo 3912" width="9" height="5" transform="translate(123 117.92)"/>
  <rect id="Rectángulo_3913" data-name="Rectángulo 3913" width="9" height="5" transform="translate(123 126.92)"/>
  <rect id="Rectángulo_3914" data-name="Rectángulo 3914" width="20" height="4" transform="translate(41 63.92)"/>
  <rect id="Rectángulo_3915" data-name="Rectángulo 3915" width="20" height="4" transform="translate(41 72.92)"/>
  <rect id="Rectángulo_3916" data-name="Rectángulo 3916" width="20" height="4" transform="translate(41 81.92)"/>
  <path id="Trazado_24379" data-name="Trazado 24379" d="M446.526,166.228a9.092,9.092,0,0,0,0-12.86l-3.214,3.216a4.546,4.546,0,0,1,0,6.428Z" transform="translate(-317.361 -109.794)"/>
  <path id="Trazado_24380" data-name="Trazado 24380" d="M469.158,156.46a18.185,18.185,0,0,0,0-25.716l-3.214,3.214a13.641,13.641,0,0,1,0,19.288Z" transform="translate(-333.563 -93.598)"/>
  <rect id="Rectángulo_3917" data-name="Rectángulo 3917" width="5" height="5" transform="translate(118 8.92)"/>
  <rect id="Rectángulo_3918" data-name="Rectángulo 3918" width="5" height="5" transform="translate(127 8.92)"/>
</svg>
