<svg id="Grupo_14117" data-name="Grupo 14117" xmlns="http://www.w3.org/2000/svg" xmlns:xlink="http://www.w3.org/1999/xlink" width="174.968" height="136.318" viewBox="0 0 174.968 136.318">
  <defs>
    <linearGradient id="linear-gradient" x1="1.008" y1="0.276" x2="0.516" y2="0.64" gradientUnits="objectBoundingBox">
      <stop offset="0" stop-color="#4654a3"/>
      <stop offset="0.35" stop-color="#384692"/>
      <stop offset="1" stop-color="#18256b"/>
    </linearGradient>
    <linearGradient id="linear-gradient-2" x1="1.694" y1="-0.507" x2="0.741" y2="-0.507" gradientUnits="objectBoundingBox">
      <stop offset="0" stop-color="#4654a3"/>
      <stop offset="0.52" stop-color="#3a4892"/>
      <stop offset="1" stop-color="#2d3a80"/>
    </linearGradient>
    <linearGradient id="linear-gradient-3" x1="1" y1="0.5" x2="0" y2="0.5" gradientUnits="objectBoundingBox">
      <stop offset="0" stop-color="#f9df18"/>
      <stop offset="1" stop-color="#4dc106"/>
    </linearGradient>
    <linearGradient id="linear-gradient-4" x1="0.24" y1="0.883" x2="0.661" y2="0.131" xlink:href="#linear-gradient-3"/>
  </defs>
  <path id="Trazado_23291" data-name="Trazado 23291" d="M1168.693,334.264a132.75,132.75,0,0,1,8.448-16.5,11.478,11.478,0,0,1,2.747-3.417,8.787,8.787,0,0,1,5.222-1.481,16.135,16.135,0,0,1,6.261,1.213c.5.208,1.06.518,1.156,1.055a1.154,1.154,0,0,1-.56,1.108,2.979,2.979,0,0,1-1.247.382,28.617,28.617,0,0,0-3.972.56,4.393,4.393,0,0,0-3.023,2.419,11.681,11.681,0,0,1,3.548-.454,1.613,1.613,0,0,1,.721.119.608.608,0,0,1,.366.585c-.037.276-.307.45-.551.583a32.118,32.118,0,0,1-6.611,2.694,10.778,10.778,0,0,0-2.067,4.539c-.405,1.569-.624,3.182-1.053,4.744a9.425,9.425,0,0,1-2.241,4.25,4.853,4.853,0,0,1-4.421,1.446C1169.841,337.73,1168.057,335.754,1168.693,334.264Z" transform="translate(-1137.664 -276.942)" fill="#ffb77d"/>
  <path id="Trazado_23292" data-name="Trazado 23292" d="M1182.4,334.264c.988-2.315,2.059-4.594,3.178-6.85a9.362,9.362,0,0,0,3.757,1.477,13.77,13.77,0,0,0,3.2.1c-.24,1.145-.441,2.3-.751,3.429a9.425,9.425,0,0,1-2.241,4.25,4.853,4.853,0,0,1-4.421,1.446C1183.552,337.73,1181.768,335.754,1182.4,334.264Z" transform="translate(-1151.375 -276.942)" fill="#f0974f"/>
  <g id="Grupo_14110" data-name="Grupo 14110" transform="translate(55.408 61.702)">
    <path id="Trazado_23293" data-name="Trazado 23293" d="M1084.521,396.828l4.643,9.39-8.132.052-3.423-7.413Z" transform="translate(-998.745 -338.643)" fill="#ffb77d"/>
    <path id="Trazado_23294" data-name="Trazado 23294" d="M1079.864,361.858a161.938,161.938,0,0,1,37.936-20.575c5.115-1.943,10.766-3.635,15.971-1.948,5.285,1.713,8.888,6.51,11.912,11.17a179.573,179.573,0,0,1,22.346,49.628c-2.831,1.2-6.661,2.423-9.734,2.312-9.167-14.921-16.426-24.14-22.963-37.438-16.242.772-32.707.952-48.949,1.725-1.826.086-3.76.149-5.359-.736S1078.388,362.936,1079.864,361.858Z" transform="translate(-1079.153 -338.644)" fill="url(#linear-gradient)"/>
    <g id="Grupo_14109" data-name="Grupo 14109" transform="translate(79.491 65.77)">
      <path id="Trazado_23295" data-name="Trazado 23295" d="M1083,406.434c1.695.453,3.491.966,4.661,2.274a2.892,2.892,0,0,1,.681,3.037,2.794,2.794,0,0,1-2.016,1.416,8.821,8.821,0,0,1-2.545.008,86.126,86.126,0,0,0-11.528-.245,12.236,12.236,0,0,1-3.814-.2,3.785,3.785,0,0,1-2.742-2.434,5.527,5.527,0,0,1,.18-2.706,2.782,2.782,0,0,1,3.139-2.829l3.69-.175a12.008,12.008,0,0,1,3.066-.082C1078.194,405.055,1080.593,405.791,1083,406.434Z" transform="translate(-1065.587 -404.413)" fill="#0d0b30"/>
      <g id="Grupo_14108" data-name="Grupo 14108" transform="translate(0.036 2.178)">
        <path id="Trazado_23296" data-name="Trazado 23296" d="M1065.594,409.826a113.624,113.624,0,0,0,22.908,1.022,2.118,2.118,0,0,1-.191.9,2.794,2.794,0,0,1-2.016,1.416,8.857,8.857,0,0,1-2.545.008,86.129,86.129,0,0,0-11.528-.245,12.234,12.234,0,0,1-3.814-.2,3.785,3.785,0,0,1-2.742-2.434A2.946,2.946,0,0,1,1065.594,409.826Z" transform="translate(-1065.594 -406.591)" fill="#d4e4eb"/>
        <path id="Trazado_23297" data-name="Trazado 23297" d="M1066.955,406.591a8.227,8.227,0,0,1,4.083,2.117,2.923,2.923,0,0,1,.709,2.96l-5.861.389a5.672,5.672,0,0,1,.272-4.272A5.523,5.523,0,0,1,1066.955,406.591Z" transform="translate(-1049.002 -406.591)" fill="#d4e4eb"/>
      </g>
    </g>
  </g>
  <path id="Trazado_23298" data-name="Trazado 23298" d="M1063.286,377.952l-8.44-3.611.081,6.931,9.207,3.4Z" transform="translate(-895.544 -276.942)" fill="#ffb77d"/>
  <path id="Trazado_23299" data-name="Trazado 23299" d="M1136.451,357.021c6.223.585,35.013,7.861,57.99,18.086a7.467,7.467,0,0,1-3.187,7.738c-23.75-7.887-41.665-5.066-54.313-12.238-29.581,5.481-35.611,19.5-66.485,17.156a13.542,13.542,0,0,1-6.569-2.8,9.006,9.006,0,0,1-3.872-5.814,9.2,9.2,0,0,1,1.727-6.367,24.259,24.259,0,0,1,4.71-4.807,41.476,41.476,0,0,1,9.974-6.587C1080.1,359.811,1132.688,356.667,1136.451,357.021Z" transform="translate(-1031.058 -276.942)" fill="url(#linear-gradient-2)"/>
  <path id="Trazado_23300" data-name="Trazado 23300" d="M1165.324,372.779a24.259,24.259,0,0,1,4.71-4.807,41.463,41.463,0,0,1,9.975-6.587c1.063-.455,6.224-1.042,13.109-1.638,1.959,3.187,1.493,8.784,1.024,11.708a26.484,26.484,0,0,1-4.154,10.351c-3.59,5.426-12.42,6.225-15.95,5.957a13.542,13.542,0,0,1-6.569-2.8,9.006,9.006,0,0,1-3.872-5.814A9.2,9.2,0,0,1,1165.324,372.779Z" transform="translate(-1134.641 -276.942)" fill="#232563" opacity="0.54"/>
  <path id="Trazado_23301" data-name="Trazado 23301" d="M1211.949,294.145c-.023,6.512-5.29,14.566-7.791,20.579a16.712,16.712,0,0,0,13.106.043c.489-2.26.083-10.495,1.246-12.493-2.188-2.459,2.853-4.122.666-6.581C1217.613,293.935,1213.512,295.9,1211.949,294.145Z" transform="translate(-1200.46 -276.942)" fill="#ffb77d"/>
  <path id="Trazado_23302" data-name="Trazado 23302" d="M1216.4,355.857c2.646,1.044,6.858,2.205,7.038,5.044.15,2.363-12.788,34.456-32.64,20.243-26.164-18.733-27.556-47.519-23.647-65.059.406-1.819,3.121-3.281,4.127-3.325,17.88-.779,21.631,15.116,23.123,19.3C1200.954,350.444,1204.564,351.19,1216.4,355.857Z" transform="translate(-1165.515 -276.942)" fill="url(#linear-gradient-3)"/>
  <path id="Trazado_23303" data-name="Trazado 23303" d="M1211.054,338.829c2.526,5.88,4.807,9.134,7.693,11.4-7.263.006-14.55-1.223-20.929-4.61a29.909,29.909,0,0,1-8.044-6.227c-1.961-2.148-9.549-11.956-2.794-12.478,2.908-.225,5.668,2.417,7.905,3.947a58.177,58.177,0,0,0,9.054,5.437C1206.239,337.317,1208.664,338.031,1211.054,338.829Z" transform="translate(-1179.545 -276.942)" fill="#5f9e09" opacity="0.51"/>
  <path id="Trazado_23304" data-name="Trazado 23304" d="M1131.233,331.464a1.228,1.228,0,0,1,.318-1.628c3.079-2.273,13.262-9.848,18.11-14.145a1.767,1.767,0,0,0,.509-1.858l-6.211-21.476a1.777,1.777,0,0,1,3.362-1.147c2.239,6.149,6.222,13.846,7.763,25.293.071.525-10.67,7.985-22.11,15.358A1.252,1.252,0,0,1,1131.233,331.464Z" transform="translate(-1062.702 -276.942)" fill="#0d0b30"/>
  <g id="Grupo_14112" data-name="Grupo 14112" transform="translate(165.959 86.093)">
    <path id="Trazado_23305" data-name="Trazado 23305" d="M1049.732,368.979c.29-1.731.63-3.567,1.821-4.856a2.893,2.893,0,0,1,2.959-.967,2.8,2.8,0,0,1,1.6,1.872,8.839,8.839,0,0,1,.25,2.533,86.076,86.076,0,0,0,.852,11.5,12.2,12.2,0,0,1,.166,3.816,3.783,3.783,0,0,1-2.162,2.96,5.529,5.529,0,0,1-2.711.079,2.781,2.781,0,0,1-3.114-2.856l-.526-3.657a11.978,11.978,0,0,1-.373-3.044C1048.816,373.891,1049.321,371.433,1049.732,368.979Z" transform="translate(-1048.469 -363.035)" fill="#0d0b30"/>
    <g id="Grupo_14111" data-name="Grupo 14111" transform="translate(1.365 0.006)">
      <path id="Trazado_23306" data-name="Trazado 23306" d="M1049.63,385.952a113.665,113.665,0,0,0-1.161-22.9,2.115,2.115,0,0,1,.911.105,2.8,2.8,0,0,1,1.6,1.872,8.839,8.839,0,0,1,.25,2.533,86.076,86.076,0,0,0,.852,11.5,12.2,12.2,0,0,1,.166,3.816,3.783,3.783,0,0,1-2.162,2.96A2.807,2.807,0,0,1,1049.63,385.952Z" transform="translate(-1044.702 -363.041)" fill="#d4e4eb"/>
      <path id="Trazado_23307" data-name="Trazado 23307" d="M1050.569,368.388a8.219,8.219,0,0,1,1.719-4.265,2.921,2.921,0,0,1,2.879-.987l.945,5.8a5.672,5.672,0,0,1-4.279.136A5.593,5.593,0,0,1,1050.569,368.388Z" transform="translate(-1050.569 -363.041)" fill="#d4e4eb"/>
    </g>
  </g>
  <g id="Grupo_14113" data-name="Grupo 14113" transform="translate(3.142 35.411)">
    <path id="Trazado_23308" data-name="Trazado 23308" d="M1163.958,318.093c2.691,1.886,4.666,4.6,6.784,7.107s11.251,10.07,13.994,8.553c13.985-7.728,20.591-7.557,27.708-13.625,1.666,1.341,2.947,1.954,3.7,4.292-5.781,4.839-26.864,21.938-34.286,20.61-5.753-1.029-16.631-7.955-21.042-11.79a20.316,20.316,0,0,1-4.355-4.957,9.85,9.85,0,0,1-1.4-6.347,6.556,6.556,0,0,1,3.771-5.094C1160.878,316.006,1162.15,316.825,1163.958,318.093Z" transform="translate(-1150.824 -312.353)" fill="#ffb77d"/>
    <path id="Trazado_23309" data-name="Trazado 23309" d="M1212.81,343.732c-6.3-.906-14.742-6.526-18.185-9.958a16.684,16.684,0,0,1-5.181-11.677,6.887,6.887,0,0,1,1.023-4c1.241-1.8,3.8-2.843,6.413-2.934a15.79,15.79,0,0,1,7.549,1.836c4.859,2.466,12.667,10.32,15.866,14.178A16.838,16.838,0,0,1,1212.81,343.732Z" transform="translate(-1189.444 -312.353)" fill="url(#linear-gradient-4)"/>
    <path id="Trazado_23310" data-name="Trazado 23310" d="M1148.99,314.035a11.056,11.056,0,0,1,4.393-1.482,10.874,10.874,0,0,1,5.767.4,1.876,1.876,0,0,1,1.217,1.109,1.428,1.428,0,0,1-.406,1.287,3.937,3.937,0,0,1-1.169.772c-1.211.6-3.215,1.847-4.481,2.316-.207,5.831-3.951,6.632-5.074,6.9a3.63,3.63,0,0,1-3.435-1.2C1144.952,323.188,1146.8,315.461,1148.99,314.035Z" transform="translate(-1085.696 -312.353)" fill="#ffb77d"/>
  </g>
  <path id="Trazado_23311" data-name="Trazado 23311" d="M1209,309.926a3.7,3.7,0,0,1-1.915-1.733,7.949,7.949,0,0,1-1.045-4.73,2.168,2.168,0,0,1,.281-.991.908.908,0,0,1,.875-.443c.83.15,1.579,1.732,2.115,2.733C1209.127,306.273,1209.057,308.162,1209,309.926Z" transform="translate(-1191.879 -276.942)" fill="#f0974f"/>
  <path id="Trazado_23312" data-name="Trazado 23312" d="M1211.946,293.71a39.21,39.21,0,0,1-2.206,9.039,8.446,8.446,0,0,1-2.22,3.876,5.592,5.592,0,0,1-5.322.753,11.353,11.353,0,0,1-4.524-3.232,19.006,19.006,0,0,1-4.751-8.739,13.464,13.464,0,0,1,1.433-9.722,10.46,10.46,0,0,1,8.208-5.108,9.383,9.383,0,0,1,7.961,4.1C1212.206,287.08,1212.214,290.919,1211.946,293.71Z" transform="translate(-1181.23 -276.942)" fill="#ffb77d"/>
  <path id="Trazado_23313" data-name="Trazado 23313" d="M1214.96,288.405c-2.58,1.13-4.8,3.66-14.09-.716-.184,2.41.594,11.293-10.01,11.935a43.336,43.336,0,0,1-2.109-10.773,9.942,9.942,0,0,1,1.792-5.831c1.264-1.636,2.833-2.8,4.835-2.289a6.274,6.274,0,0,1,8.515-2.564c1.09.6,1.934,1.557,3.022,2.171C1207.9,280.9,1215.979,287.959,1214.96,288.405Z" transform="translate(-1180.36 -276.942)" fill="#0d0b30"/>
  <path id="Trazado_23314" data-name="Trazado 23314" d="M1201.743,277.067a5.626,5.626,0,0,1,4.129,5.027,7.367,7.367,0,0,1-2.8,6.09,10.8,10.8,0,0,1-6.468,2.241,20.588,20.588,0,0,1-6.843-1.117c-2.278-.719-4.643-1.784-5.851-3.845a5.676,5.676,0,0,1-.27-5.134c.559-1.228,1.8-2.729,3.272-2.757,1.342-.026,2.677.868,3.972,1.148a9.63,9.63,0,0,0,5.237-.7C1197.916,277.4,1199.818,276.638,1201.743,277.067Z" transform="translate(-1165.608 -276.942)" fill="#0d0b30"/>
  <path id="Trazado_23315" data-name="Trazado 23315" d="M1202.619,294.145a2.706,2.706,0,1,0,2.687-3.021A2.868,2.868,0,0,0,1202.619,294.145Z" transform="translate(-1187.177 -276.942)" fill="#ffb77d"/>
  <g id="Grupo_14114" data-name="Grupo 14114" transform="translate(19.223 14.07)">
    <path id="Trazado_23316" data-name="Trazado 23316" d="M1204.1,295.3l.111-.223-8.1-4.066-.111.223Z" transform="translate(-1195.998 -291.012)" fill="#0d0b30"/>
  </g>
  <path id="Trazado_23317" data-name="Trazado 23317" d="M1192.26,295.719c-.47,2.088.141,4,1.364,4.279s2.6-1.194,3.067-3.282-.141-4-1.365-4.279S1192.73,293.631,1192.26,295.719Z" transform="translate(-1165.514 -276.942)" fill="#fff"/>
</svg>
