<svg xmlns="http://www.w3.org/2000/svg" width="38.683" height="134.115" viewBox="0 0 38.683 134.115">
  <g id="Grupo_16235" data-name="Grupo 16235" transform="translate(0 0)">
    <path id="Trazado_26810" data-name="Trazado 26810" d="M34.1,163.405c.779,2.538,1.318,10.4,1.654,14.9.508,6.785-.32,5.586-.009,12.989,0,0,19.938,2.888,30.84-.787,0,0,1.933-.6.879-31.7-.122-3.618-1.476-14.017-2.691-17.687,0,0-18.935-2.952-27.087-.7h-.014c-.284.084-.568.17-.823.269C36.85,140.692,30.512,151.879,34.1,163.405Z" transform="translate(-29.096 -58.254)" fill="#594a5f"/>
    <path id="Trazado_26811" data-name="Trazado 26811" d="M73.772,88.679c-.109.078-.234.156-.366.241a21.236,21.236,0,0,1-3.028,1.519c-.195.086-.39.164-.6.249-4.228,1.666-5.4-5.092-5.4-5.092l1-11.049s1.939.67,4.687,5.2A41.822,41.822,0,0,1,73.772,88.679Z" transform="translate(-36.009 -43.925)" fill="#62c1c5"/>
    <path id="Trazado_26812" data-name="Trazado 26812" d="M74.528,90.609a20.767,20.767,0,0,1-3.029,1.52l-2.033-9.91s1.391,3.572,2.15,4.955C72.442,88.68,73.643,89.471,74.528,90.609Z" transform="translate(-37.131 -45.616)" fill="#54afac"/>
    <path id="Trazado_26813" data-name="Trazado 26813" d="M64.568,98.572c-3.213,5.552-.3,20.121.738,27.853a.557.557,0,0,1-.451.627c-5.387,1.027-15.842,2.37-22.9.837-.776-.172-1.444-.334-2.015-.5a10.526,10.526,0,0,1-2.444-.956.56.56,0,0,1-.25-.595c.072-.35.143-.722.215-1.112.905-4.948,1.6-13.119-1.391-25.161-1.983-8.052-3.019-17.366.108-22.336a.011.011,0,0,0,.011-.011,7.785,7.785,0,0,1,1.1-1.337c3.342-3.331,9.165-3.775,17.637-3.385A8.005,8.005,0,0,1,59.1,74.21c2.4,2.015,2.179,9.326,5.125,13.476C65.433,89.39,68.212,92.288,64.568,98.572Z" transform="translate(-29.358 -43.449)" fill="#62c1c5"/>
    <path id="Trazado_26814" data-name="Trazado 26814" d="M39.935,128.33c-1.488-.431-3.116-.766-3.3-1.531a8.9,8.9,0,0,1,.787-3.342c.906-4.948,1.628-10.909-1.358-22.951-1.983-8.052-3.019-17.367.108-22.336a.011.011,0,0,0,.011-.011,3.333,3.333,0,0,1,2.738-1.509,8.655,8.655,0,0,1,1.725.14c-.431,1.315-1.067,4.873-1.067,4.873l4.107.927s1.024,1.456-1.466,10.177c0,.011-.011.021-.011.032a19.24,19.24,0,0,0-1.584,5.692,96.159,96.159,0,0,0,.334,10.737S40.667,123.178,39.935,128.33Z" transform="translate(-29.358 -44.389)" fill="#54afac"/>
    <path id="Trazado_26815" data-name="Trazado 26815" d="M47.632,60s.484.288,1.308.68c-.013.419-.04.824-.04,1.2-.091,2.407-.091,3.963-.091,3.963a5.585,5.585,0,0,0,6.828,2.538,2.182,2.182,0,0,0,.432-.249,2.023,2.023,0,0,0,.811-1.949,15.724,15.724,0,0,1-.143-3.361c1.237.289,2.454.545,3.338-.009.8-.5,1.29-1.743,1.844-2.725,3.14-5.562,2.719-17.28,2.719-17.28s-10.386-4.7-13.76-.445S47.632,60,47.632,60Z" transform="translate(-32.32 -36.444)" fill="#ffe1bd"/>
    <path id="Trazado_26816" data-name="Trazado 26816" d="M49.142,70.576a5.585,5.585,0,0,0,6.828,2.538l.053-.039c-3.767.968-3.584-3.676-2.983-4.552s3.2-1.166,3.2-1.166a9.312,9.312,0,0,1-6.911-5.322C49.235,64.441,49.142,70.576,49.142,70.576Z" transform="translate(-32.653 -41.168)" fill="#fcd4a9"/>
    <path id="Trazado_26817" data-name="Trazado 26817" d="M40.249,90.825l-5.295,14.334c-1.643,1.783-3.675,2.881-5.543,1.97a3.051,3.051,0,0,1-1.417-2.9,5.579,5.579,0,0,1,.062-.865c.592-3.13,1.417-6.766,2.141-9.8.156-.67.312-1.308.451-1.9.507-2.071.9-3.643,1.06-4.243a2.655,2.655,0,0,0,.062-.265Z" transform="translate(-27.993 -46.702)" fill="#ffe1bd"/>
    <path id="Trazado_26818" data-name="Trazado 26818" d="M34.907,95.877l-2.274,4.641s-1.8.927-1.1-.623a11.477,11.477,0,0,0,.662-4.049,7.347,7.347,0,0,1-1.378-1.02c.156-.67.312-1.308.451-1.9.623-.015,2.243-.038,2.243,0S34.907,95.877,34.907,95.877Z" transform="translate(-28.616 -47.971)" fill="#fcd4a9"/>
    <path id="Trazado_26819" data-name="Trazado 26819" d="M37.354,75.711c-5.233,2.48-6.329,8.439-7.227,14.451L39.2,93.787s7.687-11.7,2.924-16.127C40.218,75.888,39.333,74.773,37.354,75.711Z" transform="translate(-28.463 -44.107)" fill="#62c1c5"/>
    <path id="Trazado_26820" data-name="Trazado 26820" d="M62.271,40.991a4.907,4.907,0,0,1,0,4.542c-1.3,2.206-5.709-.065-9.733,0s-5.828,2.206-6.423,6.489,2.1,11.146,2.075,14.514c-.034,5.094-3.222,10.628-8.823,9.208-12.622-3.2-.9-19.245-.471-26.253s3.1-11.16,8.257-13.5C51.9,33.846,60.065,36.774,62.271,40.991Z" transform="translate(-29.214 -35.272)" fill="#2c1e56"/>
  </g>
</svg>
