<svg xmlns="http://www.w3.org/2000/svg" xmlns:xlink="http://www.w3.org/1999/xlink" width="245.21" height="197.719" viewBox="0 0 245.21 197.719">
  <defs>
    <linearGradient id="linear-gradient" y1="0.5" x2="1" y2="0.5" gradientUnits="objectBoundingBox">
      <stop offset="0" stop-color="#0872ba"/>
      <stop offset="0.53" stop-color="#7155b7"/>
      <stop offset="1" stop-color="#da37b4"/>
    </linearGradient>
  </defs>
  <path id="Trazado_23654" data-name="Trazado 23654" d="M609.61,277.19a20.445,20.445,0,0,1-11.345-3.2,21.849,21.849,0,0,1-4.936-4.149l-.1-.108c-6.55-6.953-13.407-7.486-22.18-7.486s-15.632.534-22.179,7.486c-4.464,4.742-9.513,7.453-16.384,7.453a21.726,21.726,0,1,1,0-43.453c6.871,0,11.92,2.708,16.384,7.45,6.547,6.954,13.405,7.486,22.179,7.486s15.63-.532,22.18-7.486c.34-.363.683-.712,1.034-1.051l.021-.023q.51-.522,1.049-1.036c6.956-6.548,7.49-13.4,7.49-22.177s-.534-15.63-7.49-22.179c-4.737-4.464-7.45-9.511-7.45-16.384a21.728,21.728,0,0,1,43.456,0c0,6.873-2.712,11.92-7.453,16.384-6.954,6.548-7.486,13.405-7.486,22.179s.532,15.629,7.486,22.177l.1.1a21.691,21.691,0,0,1,4.152,4.939,20.435,20.435,0,0,1,3.195,11.347A21.727,21.727,0,0,1,609.61,277.19M455.325,156.613a20.441,20.441,0,0,1,11.354,3.2,21.823,21.823,0,0,1,4.928,4.144l.1.108c6.545,6.953,13.4,7.486,22.177,7.486s15.63-.534,22.179-7.486c4.464-4.741,9.511-7.45,16.383-7.45a21.726,21.726,0,1,1,0,43.451c-6.872,0-11.919-2.711-16.383-7.45-6.548-6.956-13.407-7.488-22.179-7.488s-15.632.532-22.177,7.488c-.341.36-.689.709-1.036,1.049l-.023.025c-.34.346-.691.693-1.052,1.034-6.956,6.548-7.486,13.405-7.486,22.179s.53,15.629,7.486,22.177c4.741,4.464,7.45,9.513,7.45,16.386a21.726,21.726,0,1,1-43.451,0c0-6.873,2.709-11.922,7.45-16.386,6.954-6.548,7.486-13.4,7.486-22.177s-.532-15.63-7.486-22.179l-.106-.1a21.748,21.748,0,0,1-4.148-4.94,20.408,20.408,0,0,1-3.2-11.344A21.725,21.725,0,0,1,455.325,156.613Zm16.837,137.413c0-6.873,2.709-11.92,7.451-16.384,6.953-6.547,7.485-13.4,7.485-22.177s-.532-15.63-7.485-22.179c-4.742-4.464-7.451-9.513-7.451-16.384a21.727,21.727,0,0,1,43.453,0c0,6.872-2.713,11.92-7.45,16.384-6.954,6.548-7.488,13.4-7.488,22.179s.534,15.63,7.488,22.177c4.737,4.464,7.45,9.511,7.45,16.384a21.727,21.727,0,0,1-43.453,0ZM654.5,216.9a14.2,14.2,0,1,0-14.2,14.2A14.2,14.2,0,0,0,654.5,216.9Zm-216.812,0a14.2,14.2,0,1,0-14.2,14.2A14.2,14.2,0,0,0,437.693,216.9Zm133.322-87.279a10.137,10.137,0,1,1-10.139,10.136A10.138,10.138,0,0,1,571.014,129.622Zm38.6,38.578a10.137,10.137,0,1,1-10.136,10.137A10.139,10.139,0,0,1,609.61,168.2Zm-77.161,0a10.137,10.137,0,1,1-10.136,10.137A10.137,10.137,0,0,1,532.449,168.2Zm-77.125,0a10.137,10.137,0,1,1-10.136,10.137A10.138,10.138,0,0,1,455.325,168.2Zm0,77.126a10.137,10.137,0,1,1-10.136,10.137A10.138,10.138,0,0,1,455.325,245.326Zm77.125,0a10.137,10.137,0,1,1-10.136,10.137A10.137,10.137,0,0,1,532.449,245.326Zm77.161,0a10.137,10.137,0,1,1-10.136,10.137A10.139,10.139,0,0,1,609.61,245.326Zm-38.6-38.563A10.137,10.137,0,1,1,560.875,216.9,10.138,10.138,0,0,1,571.014,206.763Zm-77.126,0A10.137,10.137,0,1,1,483.75,216.9,10.136,10.136,0,0,1,493.888,206.763Zm0,77.126a10.136,10.136,0,1,1-10.137,10.136A10.135,10.135,0,0,1,493.888,283.89ZM430.364,216.9a6.87,6.87,0,1,0-6.872,6.868A6.872,6.872,0,0,0,430.364,216.9Zm216.811,0a6.87,6.87,0,1,0-6.87,6.868A6.87,6.87,0,0,0,647.174,216.9ZM493.888,129.622a10.137,10.137,0,1,1-10.137,10.136A10.135,10.135,0,0,1,493.888,129.622Zm98.74,12.343v.015l0,.023a20.024,20.024,0,0,1-2.953,8.885,21.807,21.807,0,0,1-4.26,5.14l-.138.129c-6.954,6.55-7.49,13.405-7.49,22.18s.535,15.632,7.486,22.179c4.744,4.462,7.453,9.511,7.453,16.384a21.727,21.727,0,0,1-43.455,0c0-6.873,2.711-11.922,7.452-16.384,6.954-6.547,7.486-13.407,7.486-22.179s-.532-15.63-7.486-22.18q-.805-.756-1.531-1.539c-.189-.191-.376-.384-.565-.582-6.545-6.956-13.4-7.486-22.177-7.486s-15.63.53-22.179,7.486c-4.464,4.739-9.513,7.45-16.383,7.45a21.726,21.726,0,0,1,0-43.453c6.87,0,11.919,2.711,16.383,7.45,6.548,6.956,13.4,7.486,22.179,7.486s15.632-.53,22.177-7.486l.094-.1a21.844,21.844,0,0,1,4.691-3.993,20.417,20.417,0,0,1,11.6-3.36,21.725,21.725,0,0,1,21.725,21.725A22.04,22.04,0,0,1,592.628,141.965Z" transform="translate(-409.295 -118.033)" fill-rule="evenodd" fill="url(#linear-gradient)"/>
</svg>
