<svg xmlns="http://www.w3.org/2000/svg" xmlns:xlink="http://www.w3.org/1999/xlink" width="223.479" height="219.48" viewBox="0 0 223.479 219.48"><defs><linearGradient id="a" x1="0.5" x2="0.5" y2="1" gradientUnits="objectBoundingBox"><stop offset="0" stop-color="#fff"/><stop offset="1" stop-color="#d2e6ee"/></linearGradient><linearGradient id="b" x1="0.167" y1="-0.077" x2="0.833" y2="1.077" gradientUnits="objectBoundingBox"><stop offset="0" stop-color="#b1b2f3"/><stop offset="1" stop-color="#9d9ef0"/></linearGradient><linearGradient id="e" x1="0.314" y1="-0.604" x2="0.686" y2="1.604" xlink:href="#b"/></defs><g transform="translate(0 0)"><g transform="translate(107.102 7.917)"><path d="M543.705,126.019Z" transform="translate(-522.866 -120.287)" fill="#cbd9e4"/><path d="M532.045,125.745l-1.292.252a9.8,9.8,0,0,0-1.047-2.876l1.15-.637a11.1,11.1,0,0,0-3.494-3.824l-.736,1.088a9.8,9.8,0,0,0-2.772-1.3l.364-1.259-.058-.017a11.076,11.076,0,0,0-5.119-.223l.249,1.292a9.82,9.82,0,0,0-2.879,1.039l-.633-1.152a11.108,11.108,0,0,0-3.833,3.485l1.086.738a9.812,9.812,0,0,0-1.305,2.769l-1.259-.367-.025.087a11.078,11.078,0,0,0-.229,5.089l1.292-.245a9.814,9.814,0,0,0,1.032,2.882l-1.153.63h0a11.116,11.116,0,0,0,3.473,3.843l.741-1.083a9.807,9.807,0,0,0,2.766,1.311l-.37,1.259h0l.116.034a11.086,11.086,0,0,0,5.178.212l-.256-1.291a9.818,9.818,0,0,0,2.873-1.055l.64,1.149a11.109,11.109,0,0,0,3.814-3.5l-1.091-.734a9.817,9.817,0,0,0,1.293-2.775l1.259.36.008-.029a11.058,11.058,0,0,0,.217-5.149Zm-10.906,8.739a6.624,6.624,0,1,1,6.36-4.815A6.6,6.6,0,0,1,521.138,134.484Z" transform="translate(-510.018 -116.752)" fill="#cbd9e4"/></g><g transform="translate(24.208 42.936)"><path d="M606.428,419.661a38.719,38.719,0,1,0-68.042,0Z" transform="translate(-436.151 -245.478)" fill="#fff"/><ellipse cx="51.556" cy="51.556" rx="51.556" ry="51.556" transform="translate(0 32.921)" fill="#fff"/><ellipse cx="38.719" cy="38.719" rx="38.719" ry="38.719" transform="translate(23.707)" fill="#fff"/><ellipse cx="38.719" cy="38.719" rx="38.719" ry="38.719" transform="translate(64.645 76.927) rotate(-79.905)" fill="#fff"/><ellipse cx="30.41" cy="30.41" rx="30.41" ry="30.41" transform="translate(93.887 68.57)" fill="#fff"/><path d="M399.831,369.316a38.718,38.718,0,0,0,11.048,42.965h84.831a38.713,38.713,0,0,0-42.79-64.251,38.731,38.731,0,0,0-45.777,9.176,7.075,7.075,0,1,0-7.312,12.111Z" transform="translate(-383.75 -238.098)" fill="#fff"/></g><g transform="translate(65.442 34.038)"><path d="M8.851,0H87.028a8.85,8.85,0,0,1,8.85,8.85V173.143a8.851,8.851,0,0,1-8.851,8.851H8.85A8.85,8.85,0,0,1,0,173.144V8.851A8.851,8.851,0,0,1,8.851,0Z" transform="translate(0.618 0.618)" fill="#00223d"/><path d="M533.693,160.215a4.856,4.856,0,0,1,4.856,4.856V336.116a4.856,4.856,0,0,1-4.856,4.856H448.765a4.856,4.856,0,0,1-4.856-4.856V165.071a4.856,4.856,0,0,1,4.856-4.856h84.928m0-1.237H448.765a6.1,6.1,0,0,0-6.093,6.093V336.116a6.1,6.1,0,0,0,6.093,6.093h84.928a6.1,6.1,0,0,0,6.093-6.093V165.071a6.1,6.1,0,0,0-6.093-6.093Z" transform="translate(-442.672 -158.978)" fill="#b4b7c6"/><g transform="translate(1.237 10.563)"><path d="M539.313,181.664V332.547a5.611,5.611,0,0,1-5.611,5.612H450.283a5.611,5.611,0,0,1-5.611-5.612V181.664a5.611,5.611,0,0,1,5.611-5.611H533.7A5.611,5.611,0,0,1,539.313,181.664Z" transform="translate(-444.672 -176.053)" fill="url(#a)"/></g><g transform="translate(41.689 4.955)"><path d="M522.718,169.154h-11.57a1.083,1.083,0,0,1-1.083-1.083h0a1.083,1.083,0,0,1,1.083-1.083h11.57a1.083,1.083,0,0,1,1.083,1.083h0A1.083,1.083,0,0,1,522.718,169.154Z" transform="translate(-510.065 -166.988)" fill="#161c59"/></g><g transform="translate(37.222 4.955)"><path d="M505.009,168.071a1.083,1.083,0,1,1-1.083-1.083A1.083,1.083,0,0,1,505.009,168.071Z" transform="translate(-502.843 -166.988)" fill="#161c59"/></g></g><path d="M2.949,0H72.764a2.949,2.949,0,0,1,2.949,2.949V5.955A2.948,2.948,0,0,1,72.764,8.9H2.948A2.948,2.948,0,0,1,0,5.955V2.949A2.949,2.949,0,0,1,2.949,0Z" transform="translate(76.143 106.132)" fill="#e6e7e8" style="mix-blend-mode:multiply;isolation:isolate"/><rect width="22.307" height="10.51" rx="2.106" transform="translate(75.755 53.026)" fill="#e6e7e8" style="mix-blend-mode:multiply;isolation:isolate"/><rect width="22.307" height="10.51" rx="2.106" transform="translate(102.846 53.026)" fill="#e6e7e8" style="mix-blend-mode:multiply;isolation:isolate"/><rect width="22.307" height="10.51" rx="2.106" transform="translate(129.937 53.026)" fill="#e6e7e8" style="mix-blend-mode:multiply;isolation:isolate"/><rect width="33.362" height="33.362" rx="2.455" transform="translate(78.929 141.79)" stroke="#707070" stroke-miterlimit="10" stroke-width="8" opacity="0.4" fill="url(#b)" style="mix-blend-mode:multiply;isolation:isolate"/><rect width="33.362" height="33.362" rx="2.455" transform="translate(122.212 141.79)" stroke="#707070" stroke-miterlimit="10" stroke-width="8" opacity="0.4" fill="url(#b)" style="mix-blend-mode:multiply;isolation:isolate"/><rect width="33.362" height="33.362" rx="2.455" transform="translate(165.495 141.79)" stroke="#707070" stroke-miterlimit="10" stroke-width="8" opacity="0.4" fill="url(#b)" style="mix-blend-mode:multiply;isolation:isolate"/><rect width="33.362" height="33.362" rx="2.455" transform="translate(76.548 139.409)" fill="#fff"/><rect width="33.362" height="33.362" rx="2.455" transform="translate(119.831 139.409)" fill="#fff"/><rect width="33.362" height="16.031" rx="1.702" transform="translate(119.831 179.243)" fill="#e6e7e8" style="mix-blend-mode:multiply;isolation:isolate"/><rect width="33.362" height="16.031" rx="1.702" transform="translate(76.211 179.243)" fill="#e6e7e8" style="mix-blend-mode:multiply;isolation:isolate"/><rect width="33.362" height="33.362" rx="2.455" transform="translate(163.114 139.409)" fill="#fff"/><g transform="translate(75.755 66.333)"><rect width="22.307" height="2.485" rx="1.242" fill="#707070"/><rect width="22.307" height="2.485" rx="1.242" transform="translate(27.091)" fill="#707070"/><rect width="22.307" height="2.485" rx="1.242" transform="translate(54.182)" fill="#707070"/></g><g transform="translate(75.755 71.588)" style="mix-blend-mode:multiply;isolation:isolate"><rect width="22.307" height="2.485" rx="1.242" fill="#e6e7e8"/><rect width="22.307" height="2.485" rx="1.242" transform="translate(27.091)" fill="#e6e7e8"/><rect width="22.307" height="2.485" rx="1.242" transform="translate(54.182)" fill="#e6e7e8"/></g><g transform="translate(184.053 144.072)"><path d="M668.983,408.485c-1.673-.14-1.792-9.5-1.534-13.477s1.2-7.057,3.246-6.886,2.461,3.369,2.051,7.331S670.656,408.626,668.983,408.485Z" transform="translate(-646.974 -356.405)" fill="#ffc8af"/><path d="M677.419,436.2c-1.381.557-6.453-11.563-7.56-14.3s-2.064-5.72-.516-6.344,2.928,2.182,4.035,4.923S678.8,435.646,677.419,436.2Z" transform="translate(-647.428 -366.838)" fill="#ffc8af"/><path d="M681.356,442.795c-.9.622-2.777,1.023-2.947.707s.121-1.205.38-1.846l0-.006c.078-.19.151-.358.207-.483.067-.157.111-.249.111-.249s-3-11.847-2.443-12c.6-.163,4.614,11.594,4.614,11.594s.02.074.053.179l.046.152.306,1.02C681.725,441.99,682.02,442.347,681.356,442.795Z" transform="translate(-650.504 -371.968)" fill="#ffc8af"/><path d="M682.44,450.149c-.9.622-2.777,1.023-2.947.707s.121-1.205.38-1.846l0-.006c.078-.19.151-.358.207-.483.057.118.144.294.21.449.118.271.273.274.825-.089a10.731,10.731,0,0,1,1.345-.682s.358.75.455,1.008C682.966,449.329,683.1,449.7,682.44,450.149Z" transform="translate(-651.588 -379.322)" fill="#262b7f"/><g transform="translate(21.454 12.18)"><path d="M678.8,370.866c-1.117.465-4.416-5.773-5.62-8.524s-1.66-5.134-.3-5.7,2.731,1.437,3.833,4.23S679.92,370.4,678.8,370.866Z" transform="translate(-670.223 -356.544)" fill="#ffc8af"/><g transform="translate(0 12.399)"><path d="M672.655,390.029c-.975-.447,2.045-7.745,2.974-9.771s2.057-4.1,3.151-3.6.263,2.708-.666,4.734S673.63,390.476,672.655,390.029Z" transform="translate(-670.38 -376.587)" fill="#ffc8af"/><path d="M672.174,395.2c1.188.441.172,2.448-.2,3.12a2.981,2.981,0,0,1-2.724,1.407c-.428-.228,1.128-2.6,1.075-2.739s-.763,1.217-1.143.961.564-1.86,1.18-2.351A1.618,1.618,0,0,1,672.174,395.2Z" transform="translate(-669.096 -383.637)" fill="#ffc8af"/></g></g><path d="M666.591,442.255c.1.4.306.852.086,1.25a1.1,1.1,0,0,1-.781.461,8.869,8.869,0,0,1-1.3.186,4.763,4.763,0,0,1-.53.043c-.147,0-.292-.027-.438-.036-.287-.017-.575-.006-.862-.03-.028,0-.221,0-.248-.034s.024-.091.047-.112c.124-.108.286-.157.414-.26.143-.116.274-.246.419-.359a4,4,0,0,1,.938-.568c.065-.027-1.919-12.459-1.327-12.588C663.545,430.09,666.59,442.25,666.591,442.255Z" transform="translate(-645.129 -372.459)" fill="#ffc8af"/><path d="M656.567,409.513c-1.641-.358-.536-9.656.238-13.563s2.115-6.839,4.118-6.4,2,3.661,1.076,7.536S658.207,409.87,656.567,409.513Z" transform="translate(-642.539 -356.935)" fill="#ffc8af"/><path d="M663.3,437.409c-1.42.445-5.745-11.979-6.629-14.8s-1.6-5.866-.008-6.365,2.744,2.409,3.629,5.23S664.719,436.964,663.3,437.409Z" transform="translate(-642.539 -367.112)" fill="#ffc8af"/><path d="M666.305,450.657v1.4a.255.255,0,0,1-.254.255l-4.5,0a.407.407,0,0,1-.246-.734,17.026,17.026,0,0,1,2.477-1.347c.184.162.461.663.784.723A9.035,9.035,0,0,0,666.305,450.657Z" transform="translate(-644.608 -380.095)" fill="#262b7f"/><path d="M638.033,365.189c.7-.8,6.777,4.142,8.439,5.6s3.308,3.118,2.521,4.014-2.647-.519-4.309-1.976S637.332,365.989,638.033,365.189Z" transform="translate(-635.772 -347.628)" fill="#ffc8af"/><path d="M669.44,379.053l-10.415-.433-.457-17.817.719-4.475,4.81-1.769,3.1.591a3.634,3.634,0,0,1,2.951,3.7l-1.129,12.61Z" transform="translate(-643.627 -343.607)" fill="#ffc8af"/><path d="M667.106,351.011v3.58a5.316,5.316,0,0,1-2.527.452c-.954,0-1.168-.452-1.168-.452v-1.324Z" transform="translate(-645.474 -342.254)" fill="#ffc8af"/><path d="M665.519,343.442c-.008.13-.012.251-.021.368,0,.042,0,.084,0,.13.088,2.126-1.276,4.4-3.33,4.711,0,0-.017,0-.046.009s-.041,0-.071,0c-.439.054-2.029.184-2.611-.456a5.411,5.411,0,0,1-1.288-3.076,12.054,12.054,0,0,1,.172-1.547c0-.3-.16-1.227-.163-1.63a3.564,3.564,0,0,1,3.53-3.779C665.1,338.175,665.616,341.158,665.519,343.442Z" transform="translate(-643.47 -337.358)" fill="#ffc8af"/><path d="M663.414,356.6" transform="translate(-645.475 -344.386)" fill="#6ebaad"/><path d="M658.223,356.43c-.724.671-1.287,1.846-1.423,4.249a8.866,8.866,0,0,0,.365,4.762c1.588,3.96.615,8.873.615,8.873l10.79.4s.228-7.235.6-9.542c1.113-6.964-.009-9.2-1.948-9.749C664.311,354.605,658.947,355.759,658.223,356.43Z" transform="translate(-642.887 -343.828)" fill="#ffe3a1"/><path d="M654.58,372.06c-1.162-.3-.046-7.207.644-10.1s1.753-5.055,3.171-4.69,1.3,2.769.507,5.639S655.741,372.359,654.58,372.06Z" transform="translate(-641.913 -344.624)" fill="#ffc8af"/><path d="M634.517,361.311c.279-.311,1.8,1.18,2.285,1.565.074.058.126.093.144.09s.018-.028.006-.067c-.079-.238-.677-1.073-.387-1.336.32-.289,1.514.844,1.918,1.569.023.04.053.083.07.121a1.606,1.606,0,0,1-.043,1.838c-.7,1.04-2.4-.41-2.959-.925a3.931,3.931,0,0,1-.994-1.665A1.5,1.5,0,0,1,634.517,361.311Z" transform="translate(-634.414 -346.166)" fill="#ffc8af"/><path d="M657.12,340.276a3.211,3.211,0,0,0,.066.343c.234.95.978,1.5.9,2.54a4.334,4.334,0,0,0,.585,2.685c1.147,1.944-.438,1.512-.119,4.5.156,1.465,1.548,2.069,4.295,2.029s5.771-.08,5.692-2.149a3.8,3.8,0,0,0-.757-2.056,2.752,2.752,0,0,1-.692-2.454,5.713,5.713,0,0,0,.315-1.235c.063-1.039-.682-1.374-1.261-2.048-.621-.724-.257-1.947-.465-2.818-.677-2.834-3.614-3.167-6-2.4C658.222,337.681,656.9,338.6,657.12,340.276Z" transform="translate(-643.065 -336.854)" fill="#00223d"/><path d="M672.619,382.215c-.09,2.264,1.618,5.233,1.882,7.488.53,4.518-2.6,12.981-2.6,13.527s2.925,7.887,4.059,12.363c0,0-.637.915-3.7,1.472,0,0-4.7-10.225-5.134-12.533s.1-21.9.1-21.9Z" transform="translate(-646.826 -354.155)" fill="#00223d"/><path d="M663.042,382.816h-5.909a110.762,110.762,0,0,0-2.235,12.6c-.875,7.241-.6,9.39-.437,10.544s4.151,12.055,4.151,12.055a6.959,6.959,0,0,0,4.116-.955,78.863,78.863,0,0,0-2.5-9.071,28.517,28.517,0,0,1-1.28-3.5s3.322-7.082,4.151-12.135A29.893,29.893,0,0,0,663.042,382.816Z" transform="translate(-641.995 -354.384)" fill="#00223d"/></g><rect width="107.978" height="31.559" rx="1.881" transform="translate(35.941 81.092)" stroke="#707070" stroke-miterlimit="10" stroke-width="8" opacity="0.3" fill="url(#e)" style="mix-blend-mode:multiply;isolation:isolate"/><g transform="translate(30.924 77.124)"><g transform="translate(0 97.062)"><path d="M400.829,385.535v8.425h-2.977v6.663h2.977v.026h-6.05v6.663h6.05v.026h-8.478V414h8.478v.026H389.278v6.663h11.551v.026H386.871v6.663h34.753V385.535Z" transform="translate(-386.871 -385.535)" fill="#00223d"/></g><path d="M421.7,385.535v8.425h-2.976v6.663H421.7v.026h-6.05v6.663h6.05v.026h-8.478V414H421.7v.026H410.15v6.663H421.7v.026H407.742v6.663h21.842V385.535Z" transform="translate(-394.831 -288.473)" fill="#8998a5"/><g transform="translate(5.811)"><path d="M427.283,337.863c1.768-.148,1.894-10.043,1.622-14.243s-1.272-7.458-3.431-7.277-2.6,3.56-2.168,7.747S425.515,338.012,427.283,337.863Z" transform="translate(-406.521 -262.081)" fill="#ffc8af"/><path d="M416.015,367.155c1.459.589,6.819-12.22,7.989-15.116s2.181-6.044.546-6.7-3.094,2.307-4.264,5.2S414.557,366.566,416.015,367.155Z" transform="translate(-403.689 -273.105)" fill="#ffc8af"/><path d="M414.44,374.121c.956.658,2.935,1.082,3.115.747s-.128-1.273-.4-1.95l0-.006c-.082-.2-.16-.379-.219-.51-.07-.166-.117-.263-.117-.263s3.168-12.52,2.582-12.679c-.636-.172-4.876,12.253-4.876,12.253s-.021.078-.056.189l-.049.16-.322,1.078C414.051,373.271,413.739,373.649,414.44,374.121Z" transform="translate(-403.024 -278.527)" fill="#ffc8af"/><path d="M414.378,381.893c.956.658,2.935,1.082,3.115.747s-.128-1.273-.4-1.95l0-.006c-.082-.2-.16-.379-.219-.51-.06.126-.152.311-.223.475-.124.286-.288.29-.872-.094a11.287,11.287,0,0,0-1.422-.72s-.377.792-.481,1.065C413.822,381.027,413.677,381.42,414.378,381.893Z" transform="translate(-402.962 -286.299)" fill="#00223d"/><path d="M425.995,327.628s.073,9.04-.331,10.932-8.279,19.988-8.279,19.988a11.193,11.193,0,0,1-3.015-.857s2.943-10.343,4.163-14.043,2.312-5.424,2.228-6.769-1.43-12.572-1.43-12.572l6.669-.281Z" transform="translate(-403.17 -265.013)" fill="#00223d"/><g transform="translate(16.712 19.685)"><g transform="translate(12.645)"><path d="M456.119,265.039c-.7-.891-7.449,4.022-9.3,5.478s-3.7,3.13-2.912,4.129,2.847-.4,4.7-1.858S456.82,265.93,456.119,265.039Z" transform="translate(-443.722 -262.159)" fill="#ffc8af"/><path d="M460.762,264.621c.748,1.111,2.557-.431,3.155-.979a3.152,3.152,0,0,0,.77-3.147c-.341-.383-2.394,1.805-2.547,1.784s1.062-1.086.7-1.412-1.771,1.04-2.123,1.8A1.71,1.71,0,0,0,460.762,264.621Z" transform="translate(-450.096 -260.45)" fill="#ffc8af"/></g><g transform="translate(0 10.617)"><path d="M439.363,278.068c-.377-1.221-7.675.311-10.724,1.191s-5.294,2.119-4.834,3.61,3.013,1.25,6.028.259S439.739,279.29,439.363,278.068Z" transform="translate(-423.457 -277.614)" fill="#ffc8af"/><path d="M423.566,283.5c-.734-1.326-.05-2.763,2-3.57A59.812,59.812,0,0,1,432.828,278c.054.116.1.231.148.343,1.211,2.832.666,3.73.666,3.73-3.5,1.407-7.606,2.518-8.983,2.049A4.011,4.011,0,0,1,423.566,283.5Z" transform="translate(-423.28 -277.762)" fill="#ffe3a1"/></g></g><rect width="107.978" height="31.559" rx="1.47" fill="#00223d"/><g transform="translate(4.89 4.597)"><rect width="22.365" height="22.365" rx="0.634" fill="#eef0f2"/><path d="M425.292,249.882l-10.317-5.956a.393.393,0,0,0-.589.34v11.913a.393.393,0,0,0,.589.34l10.317-5.957A.393.393,0,0,0,425.292,249.882Z" transform="translate(-408.066 -239.039)" fill="#f6c343"/></g><g transform="translate(34.4 5.873)"><rect width="62.911" height="2.804" rx="1.402" fill="#eef0f2"/><rect width="62.911" height="2.804" rx="1.402" transform="translate(0 8.504)" fill="#eef0f2"/><rect width="48.708" height="2.804" rx="1.402" transform="translate(0 17.008)" fill="#eef0f2"/></g><path d="M430.624,373.551c-.086.343-.389,1.056-.111,1.37.173.194.588.207.821.217a2.584,2.584,0,0,0,.868-.074c.371-.105.589-.187.686-.578.22-.89.309-1.812.439-2.721.2-1.371.39-2.743.573-4.117.186-1.394.364-2.789.5-4.189.051-.521.1-1.045.119-1.568a2.956,2.956,0,0,0-.025-.923c-.014-.046-.023-.139-.082-.152C433.842,360.7,430.625,373.546,430.624,373.551Z" transform="translate(-409.283 -279.046)" fill="#ffc8af"/><path d="M439.534,338.949c1.733-.379.566-10.2-.252-14.333s-2.236-7.228-4.351-6.766-2.113,3.869-1.138,7.964S437.8,339.327,439.534,338.949Z" transform="translate(-410.337 -262.641)" fill="#ffc8af"/><path d="M431.747,368.43c1.5.471,6.071-12.659,7.006-15.64s1.691-6.2.009-6.727-2.9,2.546-3.835,5.527S430.245,367.959,431.747,368.43Z" transform="translate(-409.664 -273.396)" fill="#ffc8af"/><path d="M430.245,382.432v1.477a.269.269,0,0,0,.27.269l4.752,0a.431.431,0,0,0,.26-.776,18.045,18.045,0,0,0-2.618-1.422c-.194.171-.487.7-.828.765A9.533,9.533,0,0,1,430.245,382.432Z" transform="translate(-409.225 -287.115)" fill="#00223d"/><path d="M422.866,306.759h11.708l.482-18.829-.872-5.312-5.673-1.743-3.274.625a3.841,3.841,0,0,0-3.119,3.908l1.193,13.326Z" transform="translate(-406.124 -248.555)" fill="#ffc8af"/><path d="M430.47,276.8v3.783a5.62,5.62,0,0,0,2.67.478c1.009,0,1.235-.478,1.235-.478v-1.4Z" transform="translate(-409.31 -247.003)" fill="#ffc8af"/><path d="M429.751,268.805c.009.137.013.265.022.389,0,.045,0,.088,0,.137-.093,2.246,1.349,4.651,3.519,4.978,0,0,.018,0,.049.009s.044,0,.075,0c.465.057,2.145.194,2.759-.482a5.719,5.719,0,0,0,1.362-3.251,12.771,12.771,0,0,0-.181-1.635c0-.314.168-1.3.171-1.723a3.766,3.766,0,0,0-3.731-3.993C430.2,263.239,429.649,266.391,429.751,268.805Z" transform="translate(-409.032 -241.829)" fill="#ffc8af"/><path d="M436.781,283.034" transform="translate(-411.717 -249.379)" fill="#6ebaad"/><g transform="translate(37.844 30.138)"><path d="M469.823,281.053c-.686-.89-7.426,3.915-9.275,5.341s-3.7,3.067-2.927,4.065,2.827-.371,4.677-1.8S470.509,281.943,469.823,281.053Z" transform="translate(-457.441 -278.719)" fill="#ffc8af"/><g transform="translate(10.086)"><path d="M475.965,278.775a.41.41,0,0,1-.158.085c-.02,0-.017-.032,0-.071.1-.246.786-1.086.5-1.383-.317-.326-1.653.79-2.128,1.526-.027.041-.061.085-.082.123a1.7,1.7,0,0,0-.077,1.941c.673,1.144,2.557-.272,3.182-.779a3.358,3.358,0,0,0,1.075-1.494C477.513,278.775,476.826,278.731,475.965,278.775Z" transform="translate(-473.746 -277.348)" fill="#ffc8af"/></g></g><path d="M438.03,325.925c1.711,5,2.005,12.023,1.816,15.114S433.5,360.21,433.5,360.21a4.62,4.62,0,0,1-3.09-.7s4.513-18.975,4.261-20.489-3.653-13.756-3.653-13.756Z" transform="translate(-409.289 -265.486)" fill="#00223d"/><path d="M431.03,281.63a11.936,11.936,0,0,1,3.1,1.049,13.707,13.707,0,0,1,1.1,4.573c.041.71.037,2.747.012,5.3-.07,6.564-.285,16.582-.285,16.582H421.57s.984-14.7.594-17.141c-1.175-7.359.009-9.727,2.06-10.3C427.3,280.833,429.028,281.464,431.03,281.63Z" transform="translate(-405.916 -248.699)" fill="#ffe3a1"/><path d="M436.312,268.221s-.042,1.472-.252,1.577-.253-.4-.294-.789c-.047-.439-.084-1.188-.757-1.1s-.454,1.572-.307,2.076-.755,2.528-1.338,2.591-2.917.252-3.232-.231a9.921,9.921,0,0,1-1.093-4.12c-.063-1.829-.421-4.331,1.282-4.877,0,0,.249-1.316,2.714-1s2.624.643,3.614.664a3.461,3.461,0,0,0,1.166-.252s.454,2.1-.891,2.476c0,0,.314,1.413-.169,1.645S436.338,267.733,436.312,268.221Z" transform="translate(-408.736 -241.469)" fill="#00223d"/><g transform="translate(25.026 33.649)"><path d="M451.33,291.474c.572-1.131-5.693-5.06-8.475-6.53s-5.238-2.131-5.935-.75,1.292,2.966,4.125,4.333S450.759,292.6,451.33,291.474Z" transform="translate(-436.742 -283.181)" fill="#ffc8af"/><path d="M437.355,283.346c-1.178.955-.672,2.68,1.138,3.929a59.832,59.832,0,0,0,6.645,3.516c.078-.1.152-.2.221-.3,1.819-2.486,1.49-3.483,1.49-3.483C443.756,284.846,438.929,282.071,437.355,283.346Z" transform="translate(-436.72 -283.024)" fill="#ffe3a1"/></g><path d="M467.395,288.01c-.294-.329-1.9,1.246-2.414,1.654.872-.137,1.683-.272,2.372-.4C467.531,288.7,467.559,288.193,467.395,288.01Z" transform="translate(-422.473 -251.26)" fill="#ffc8af"/></g></g><path d="M366.478,219.051a14.8,14.8,0,1,0-8.01,13.149c2.416.784,6.872,2.211,6.872,2.211L363.465,228A14.733,14.733,0,0,0,366.478,219.051Z" transform="translate(-336.881 -142.207)" fill="#cbd9e4"/><g transform="translate(33.521 42.627)"><path d="M399.379,172.954a4.846,4.846,0,1,0,3.8,3.8A4.849,4.849,0,0,0,399.379,172.954Zm1.725,9.594a5.508,5.508,0,0,1-5.366,0,7.353,7.353,0,0,0-4.669,6.848v.16a11.293,11.293,0,0,0,14.709,0v-.16A7.358,7.358,0,0,0,401.1,182.548Z" transform="translate(-391.069 -172.862)" fill="#cbd9e4"/></g><g transform="translate(130.209 151.954)"><path d="M547.372,356.2v-1.278l3.549-1.659V354.3l-2.772,1.269,2.772,1.269v1.028Z" transform="translate(-547.372 -350.996)" fill="#00223d"/><path d="M557.317,349.6h1.192l-3.325,8.272H554Z" transform="translate(-549.9 -349.596)" fill="#00223d"/><path d="M562.012,357.861v-1.028l2.763-1.269-2.763-1.269v-1.028l3.55,1.659V356.2Z" transform="translate(-552.956 -350.996)" fill="#00223d"/></g><path d="M2.949,0H72.764a2.949,2.949,0,0,1,2.949,2.949V5.955A2.949,2.949,0,0,1,72.764,8.9H2.948A2.948,2.948,0,0,1,0,5.955V2.949A2.949,2.949,0,0,1,2.949,0Z" transform="translate(76.143 119.338)" fill="#707070"/><path d="M488.077,354.321a3.5,3.5,0,0,0-.437-1.5l.433-.241a4,4,0,0,0-.837-1.044l-.33.372a3.493,3.493,0,0,0-1.365-.751l.135-.475-.006,0a4,4,0,0,0-1.091-.152c-.078,0-.156,0-.234.007l.03.5a3.5,3.5,0,0,0-1.5.436l-.241-.434a4.015,4.015,0,0,0-1.045.836l.371.331a3.492,3.492,0,0,0-.751,1.364l-.476-.136,0,.01a4,4,0,0,0-.152,1.09c0,.077,0,.154.007.231l.5-.028a3.494,3.494,0,0,0,.436,1.5l-.434.241a4.012,4.012,0,0,0,.836,1.045l.331-.371a3.482,3.482,0,0,0,1.363.752l-.136.476.012,0a4.007,4.007,0,0,0,1.091.152c.08,0,.161,0,.241-.007l-.03-.5a3.5,3.5,0,0,0,1.495-.439l.242.433a3.991,3.991,0,0,0,1.043-.838l-.371-.33a3.483,3.483,0,0,0,.749-1.365l.476.135v0a4.006,4.006,0,0,0,.152-1.09q0-.12-.007-.238Zm-4.364,3.278h0l.025-.087Zm2.906-2.492a2.114,2.114,0,1,1,.081-.578A2.119,2.119,0,0,1,486.619,355.107Z" transform="translate(-391.689 -197.999)" fill="#00223d"/><path d="M626.507,354.146v-2.006h-1.113v2.006h-2.006v1.113h2.006v2.006h1.113v-2.006h2.005v-1.113Z" transform="translate(-446.156 -198.613)" fill="#00223d"/><g transform="translate(136.757 8.093)"><g transform="translate(0)"><rect width="78.435" height="49.832" rx="2.658" fill="url(#a)"/><g transform="translate(7.081 5.756)"><rect width="13.191" height="0.799" rx="0.399" transform="translate(39.79)" fill="#00223d"/><rect width="37.693" height="0.799" rx="0.399" fill="#00223d"/><rect width="13.145" height="0.799" rx="0.399" transform="translate(51.128 4.169)" fill="#00223d"/><rect width="11.602" height="0.799" rx="0.399" transform="translate(0 4.169)" fill="#00223d"/><rect width="35.441" height="0.799" rx="0.399" transform="translate(13.799 4.169)" fill="#00223d"/><rect width="22.296" height="0.799" rx="0.399" transform="translate(37.257 8.338)" fill="#00223d"/><rect width="35.042" height="0.799" rx="0.399" transform="translate(0 8.338)" fill="#00223d"/><rect width="16.625" height="0.799" rx="0.399" transform="translate(0 12.507)" fill="#00223d"/><rect width="45.66" height="0.799" rx="0.399" transform="translate(18.613 12.507)" fill="#00223d"/><rect width="54.251" height="0.799" rx="0.399" transform="translate(0 16.676)" fill="#00223d"/><rect width="9.332" height="0.799" rx="0.399" transform="translate(0 20.845)" fill="#00223d"/><rect width="35.659" height="0.799" rx="0.399" transform="translate(11.802 20.845)" fill="#00223d"/><rect width="10.749" height="0.799" rx="0.399" transform="translate(50.075 20.845)" fill="#00223d"/><rect width="36.748" height="0.799" rx="0.399" transform="translate(0 25.014)" fill="#00223d"/><rect width="25.092" height="0.799" rx="0.399" transform="translate(39.181 25.014)" fill="#00223d"/><rect width="5.901" height="0.799" rx="0.399" transform="translate(55.704 29.183)" fill="#00223d"/><rect width="15.823" height="0.799" rx="0.399" transform="translate(0 29.183)" fill="#00223d"/><rect width="35.16" height="0.799" rx="0.399" transform="translate(18.111 29.183)" fill="#00223d"/><rect width="29.05" height="0.799" rx="0.399" transform="translate(35.223 33.352)" fill="#00223d"/><rect width="33.045" height="0.799" rx="0.399" transform="translate(0 33.352)" fill="#00223d"/><rect width="38.782" height="0.799" rx="0.399" transform="translate(7.081 37.521)" fill="#00223d"/><rect width="4.539" height="0.799" rx="0.399" transform="translate(0 37.521)" fill="#00223d"/></g></g></g><rect width="218.958" height="3.448" rx="1.724" transform="translate(4.521 216.032)" fill="#b3b5c4"/><rect width="82.7" height="17.715" rx="3.608" transform="translate(14.949 12.112)" fill="#7d6eb2"/><g transform="translate(35.015 16.733)"><rect width="55.627" height="1.199" rx="0.6" fill="#e6eef3"/><rect width="55.627" height="1.199" rx="0.6" transform="translate(0 3.637)" fill="#e6eef3"/><rect width="43.068" height="1.199" rx="0.6" transform="translate(0 7.273)" fill="#e6eef3"/></g><circle cx="6.376" cy="6.376" r="6.376" transform="translate(15.86 20.969) rotate(-45)" fill="#e6eef3"/><g transform="translate(21.95 17.106)"><path d="M375.671,131.643a1.928,1.928,0,1,0,1.511,1.511A1.929,1.929,0,0,0,375.671,131.643Zm.687,3.817a2.194,2.194,0,0,1-2.135,0,2.925,2.925,0,0,0-1.858,2.724v.064a4.492,4.492,0,0,0,5.853,0v-.064A2.927,2.927,0,0,0,376.357,135.461Z" transform="translate(-372.365 -131.607)" fill="#7d6eb2"/></g><g transform="translate(1.166 125.476)"><rect width="41.703" height="26.006" rx="2.294" fill="#cbd9e4"/><g transform="translate(3.623 5.638)"><rect width="2.527" height="14.731" fill="#f6c343"/><rect width="2.527" height="14.731" transform="translate(5.413)" fill="#f6c343"/><rect width="2.527" height="14.731" transform="translate(10.826)" fill="#f6c343"/><rect width="2.527" height="14.731" transform="translate(16.24)" fill="#f6c343"/><rect width="2.527" height="14.731" transform="translate(21.653)" fill="#f6c343"/><rect width="2.527" height="3.679" fill="#f1f1f1"/><rect width="2.527" height="8.585" transform="translate(5.413)" fill="#f1f1f1"/><rect width="2.527" height="6.264" transform="translate(10.826)" fill="#f1f1f1"/><rect width="2.527" height="10.627" transform="translate(16.24)" fill="#f1f1f1"/><rect width="2.527" height="12.528" transform="translate(21.653)" fill="#f1f1f1"/></g><g transform="translate(30.528 5.638)" style="mix-blend-mode:multiply;isolation:isolate"><rect width="7.659" height="1.229" fill="#dce8ef"/><rect width="7.659" height="1.229" transform="translate(0 2.7)" fill="#dce8ef"/><rect width="7.659" height="1.229" transform="translate(0 5.401)" fill="#dce8ef"/><rect width="7.659" height="1.229" transform="translate(0 8.101)" fill="#dce8ef"/><rect width="7.659" height="1.229" transform="translate(0 10.802)" fill="#dce8ef"/><rect width="7.659" height="1.229" transform="translate(0 13.502)" fill="#dce8ef"/></g></g><g transform="translate(167.606 64.998)"><rect width="41.703" height="26.006" rx="2.294" transform="translate(0)" fill="url(#a)"/><g transform="translate(4.719 2.474)" style="mix-blend-mode:multiply;isolation:isolate"><line y2="21.058" transform="translate(32.264)" fill="none" stroke="#dce8ef" stroke-miterlimit="10" stroke-width="0.5"/><line y2="21.058" transform="translate(26.887)" fill="none" stroke="#dce8ef" stroke-miterlimit="10" stroke-width="0.5"/><line y2="21.058" transform="translate(21.51)" fill="none" stroke="#dce8ef" stroke-miterlimit="10" stroke-width="0.5"/><line y2="21.058" transform="translate(16.132)" fill="none" stroke="#dce8ef" stroke-miterlimit="10" stroke-width="0.5"/><line y2="21.058" transform="translate(10.755)" fill="none" stroke="#dce8ef" stroke-miterlimit="10" stroke-width="0.5"/><line y2="21.058" fill="none" stroke="#dce8ef" stroke-miterlimit="10" stroke-width="0.5"/><line y2="21.058" transform="translate(5.377)" fill="none" stroke="#dce8ef" stroke-miterlimit="10" stroke-width="0.5"/></g><g transform="translate(3.648 2.811)"><path d="M615.456,230.7l5.377-5.208,5.377-1.351,5.377-5.323,5.377,2.143,5.377-2.715,5.378-2.946" transform="translate(-614.384 -214.231)" fill="none" stroke="#f6c343" stroke-linecap="round" stroke-miterlimit="10" stroke-width="1"/><rect width="2.143" height="2.143" transform="translate(0 15.4)" fill="#002b45"/><rect width="2.143" height="2.143" transform="translate(5.377 10.192)" fill="#00223d"/><rect width="2.143" height="2.143" transform="translate(10.755 8.841)" fill="#00223d"/><rect width="2.143" height="2.143" transform="translate(16.132 3.517)" fill="#00223d"/><rect width="2.143" height="2.143" transform="translate(21.51 5.661)" fill="#00223d"/><rect width="2.143" height="2.143" transform="translate(26.887 2.946)" fill="#00223d"/><rect width="2.143" height="2.143" transform="translate(32.264)" fill="#00223d"/></g></g><path d="M365.171,223.487h.23a.63.63,0,0,0,0-1.259h-.229l.95-1.825h-2.448a8.5,8.5,0,1,0,0,4.91h2.448Zm-9.635,6.611a7.241,7.241,0,1,1,6.812-9.7h-.033l-.95,1.825h-.27a5.6,5.6,0,1,0,0,1.259h.268l.951,1.826h.032A7.253,7.253,0,0,1,355.535,230.1Zm2.164-7.87a2.255,2.255,0,1,0,0,1.259h2.127a4.337,4.337,0,1,1,0-1.259Z" transform="translate(-340.754 -146.062)" fill="#12263f"/><path d="M636.634,300.757h5.891v-2.2h-5.891Zm7.742-8.359c.044-.524.071-1.053.071-1.588a18.8,18.8,0,0,0-4.1-11.74.989.989,0,0,0-1.544,0,18.8,18.8,0,0,0-4.094,11.74c0,.535.027,1.064.071,1.588-2.936,1.977-4.873,6.871-2.725,10.648a.393.393,0,0,0,.727-.094c.33-1.422,1.221-4.038,3.384-5.053h6.819c2.163,1.014,3.054,3.631,3.384,5.053a.393.393,0,0,0,.727.094C649.248,299.269,647.312,294.376,644.376,292.4Zm-4.8-4.771a1.736,1.736,0,1,1,1.736-1.736A1.735,1.735,0,0,1,639.58,287.627Z" transform="translate(-449.114 -170.602)" fill="#12263f"/><g transform="translate(16.823 34.699)"><path d="M365.378,162.649a1.3,1.3,0,1,0-.92-.381,1.312,1.312,0,0,0,.92.381" transform="translate(-364.077 -160.047)" fill="#cbd9e4"/><path d="M389.037,162.649h.006a1.3,1.3,0,1,0,0-2.6h-.006a1.3,1.3,0,0,0,0,2.6Zm-9.046,0H380a1.3,1.3,0,1,0,0-2.6h-.006a1.3,1.3,0,1,0,0,2.6Z" transform="translate(-369.65 -160.047)" fill="#cbd9e4"/><path d="M409.249,162.649a1.3,1.3,0,1,0-.92-.381,1.31,1.31,0,0,0,.92.381" transform="translate(-380.81 -160.047)" fill="#cbd9e4"/></g><g transform="translate(175.706 0)"><path d="M622.222,106.554a1.3,1.3,0,1,0-.92-.381,1.308,1.308,0,0,0,.92.381" transform="translate(-620.921 -103.953)" fill="#cbd9e4"/><path d="M645.882,106.554h.007a1.3,1.3,0,1,0,0-2.6h-.007a1.3,1.3,0,1,0,0,2.6Zm-9.046,0h.007a1.3,1.3,0,1,0,0-2.6h-.007a1.3,1.3,0,0,0,0,2.6Z" transform="translate(-626.495 -103.953)" fill="#cbd9e4"/><path d="M666.094,106.554a1.3,1.3,0,1,0-.92-.381,1.31,1.31,0,0,0,.92.381" transform="translate(-637.654 -103.953)" fill="#cbd9e4"/></g><g transform="translate(17.461 196.205)"><path d="M370.835,426.857h-5.727V421.13h5.727Zm-4.751-.975h3.776v-3.776h-3.776Z" transform="translate(-365.108 -421.13)" fill="#dfe1f7"/></g><g transform="translate(207.286 119.377)"><path d="M677.7,302.66h-5.727v-5.727H677.7Zm-4.751-.976h3.775v-3.775h-3.775Z" transform="translate(-671.971 -296.933)" fill="#cbd9e4"/></g><g transform="translate(207.286 128.805)"><path d="M677.7,317.9h-5.727v-5.727H677.7Zm-4.751-.976h3.775V313.15h-3.775Z" transform="translate(-671.971 -312.174)" fill="#cbd9e4"/></g><path d="M381.97,372.954v-3.411h-1.893v3.411h-3.411v1.893h3.411v3.411h1.893v-3.411h3.411v-1.893Z" transform="translate(-352.055 -205.25)" fill="#002b45"/><path d="M638.374,434.387a1.121,1.121,0,1,0,.792.328A1.129,1.129,0,0,0,638.374,434.387Zm5.783,0h-.006a1.121,1.121,0,0,0,0,2.242h.006a1.121,1.121,0,0,0,0-2.242Zm-5.783-5.726a1.122,1.122,0,1,0,.792.328A1.131,1.131,0,0,0,638.374,428.661Zm5.778,2.242h.006a1.121,1.121,0,0,0,0-2.242h-.006a1.121,1.121,0,0,0,0,2.242Z" transform="translate(-451.444 -227.798)" fill="#f9fbfc"/><path d="M349.189,290.77a1.3,1.3,0,1,0,.92.381A1.312,1.312,0,0,0,349.189,290.77Zm6.711,0h-.006a1.3,1.3,0,0,0,0,2.6h.006a1.3,1.3,0,0,0,0-2.6Zm-6.711-6.644a1.3,1.3,0,1,0,.92.38A1.311,1.311,0,0,0,349.189,284.126Zm6.7,2.6h.006a1.3,1.3,0,1,0,0-2.6h-.006a1.3,1.3,0,1,0,0,2.6Z" transform="translate(-341.079 -172.672)" fill="#cbd9e4"/><path d="M656.685,264.407H651.31v.868h5.375Zm-3.488,5.421.614.614,3.8-3.8-.614-.614Zm7.713-5.421v.868h5.375v-.868Zm-7.713-4.553,3.8,3.8.614-.614-3.8-3.8Zm11.2,0-.614-.614-3.8,3.8.614.614Zm-4.414,6.787,3.8,3.8.614-.614-3.8-3.8Zm-1.62-3.913h.868v-5.374h-.868Zm0,9.6h.868v-5.374h-.868Z" transform="translate(-456.805 -162.461)" fill="#cbd9e4"/><path d="M372.256,179.931H353.145a2.881,2.881,0,0,0-2.881,2.881V193.5" transform="translate(-341.985 -132.931)" fill="none" stroke="#cbd9e4" stroke-miterlimit="10" stroke-width="2"/><path d="M660,290.711h15.375a2.044,2.044,0,0,1,2.044,2.043v26.989a2.044,2.044,0,0,1-2.044,2.043H669.65" transform="translate(-460.119 -175.183)" fill="none" stroke="#cbd9e4" stroke-miterlimit="10" stroke-width="2"/><path d="M362.559,367.8h-10.72a2.766,2.766,0,0,1-2.766-2.766V353.538" transform="translate(-341.531 -199.146)" fill="none" stroke="#cbd9e4" stroke-miterlimit="10" stroke-width="2"/><path d="M413.173,114.225v-5.471a2.7,2.7,0,0,1,2.7-2.7H534.989" transform="translate(-365.979 -104.755)" fill="none" stroke="#cbd9e4" stroke-miterlimit="10" stroke-width="2"/><line y2="26.26" transform="translate(28.968 175.672)" fill="none" stroke="#dfe1f7" stroke-miterlimit="10" stroke-width="2"/></g></svg>