<svg xmlns="http://www.w3.org/2000/svg" width="253.962" height="201.198" viewBox="0 0 253.962 201.198">
  <g id="Grupo_50655" data-name="Grupo 50655" transform="translate(-43.84 -130.108)">
    <g id="Grupo_50615" data-name="Grupo 50615" transform="translate(63.194 130.108)">
      <g id="Grupo_50614" data-name="Grupo 50614" transform="translate(0 0)">
        <g id="Grupo_50608" data-name="Grupo 50608" transform="translate(41.658)">
          <rect id="Rectángulo_29154" data-name="Rectángulo 29154" width="151.772" height="199.009" rx="8" fill="#12263f"/>
          <rect id="Rectángulo_29155" data-name="Rectángulo 29155" width="131.215" height="160.519" transform="translate(10.278 18.807)" fill="#fffdfa"/>
          <path id="Trazado_100895" data-name="Trazado 100895" d="M254.082,143.167a2.7,2.7,0,1,1-2.7-2.7A2.7,2.7,0,0,1,254.082,143.167Z" transform="translate(-175.494 -133.018)" fill="#fff"/>
          <circle id="Elipse_4052" data-name="Elipse 4052" cx="5.079" cy="5.079" r="5.079" transform="translate(70.807 184.272)" fill="#fff"/>
          <rect id="Rectángulo_29156" data-name="Rectángulo 29156" width="131.215" height="9.802" transform="translate(10.278 18.807)" fill="#7d6eb2"/>
          <g id="Grupo_50607" data-name="Grupo 50607" transform="translate(24.316 40.74)">
            <rect id="Rectángulo_29157" data-name="Rectángulo 29157" width="42.475" height="45.768" fill="#e3e3e3"/>
            <line id="Línea_1560" data-name="Línea 1560" x2="101.359" transform="translate(0 57.504)" fill="none" stroke="#e3e3e3" stroke-miterlimit="10" stroke-width="3.151"/>
            <line id="Línea_1561" data-name="Línea 1561" x2="47.827" transform="translate(53.533 44.548)" fill="none" stroke="#e3e3e3" stroke-miterlimit="10" stroke-width="3.151"/>
            <line id="Línea_1562" data-name="Línea 1562" x2="47.827" transform="translate(53.533 33.655)" fill="none" stroke="#e3e3e3" stroke-miterlimit="10" stroke-width="3.151"/>
            <line id="Línea_1563" data-name="Línea 1563" x2="47.827" transform="translate(53.533 22.762)" fill="none" stroke="#e3e3e3" stroke-miterlimit="10" stroke-width="3.151"/>
            <line id="Línea_1564" data-name="Línea 1564" x2="47.827" transform="translate(53.533 11.869)" fill="none" stroke="#e3e3e3" stroke-miterlimit="10" stroke-width="3.151"/>
            <line id="Línea_1565" data-name="Línea 1565" x2="47.827" transform="translate(53.533 0.976)" fill="none" stroke="#e3e3e3" stroke-miterlimit="10" stroke-width="3.151"/>
            <line id="Línea_1566" data-name="Línea 1566" x2="101.359" transform="translate(0 68.714)" fill="none" stroke="#e3e3e3" stroke-miterlimit="10" stroke-width="3.151"/>
            <line id="Línea_1567" data-name="Línea 1567" x2="101.359" transform="translate(0 79.923)" fill="none" stroke="#e3e3e3" stroke-miterlimit="10" stroke-width="3.151"/>
            <line id="Línea_1568" data-name="Línea 1568" x2="101.359" transform="translate(0 91.133)" fill="none" stroke="#e3e3e3" stroke-miterlimit="10" stroke-width="3.151"/>
            <line id="Línea_1569" data-name="Línea 1569" x2="101.359" transform="translate(0 102.343)" fill="none" stroke="#e3e3e3" stroke-miterlimit="10" stroke-width="3.151"/>
            <line id="Línea_1570" data-name="Línea 1570" x2="101.359" transform="translate(0 113.553)" fill="none" stroke="#e3e3e3" stroke-miterlimit="10" stroke-width="3.151"/>
          </g>
        </g>
        <g id="Grupo_50613" data-name="Grupo 50613" transform="translate(0 141.696)">
          <g id="Grupo_50610" data-name="Grupo 50610" transform="translate(0 28.194)">
            <path id="Rectángulo_29158" data-name="Rectángulo 29158" d="M12.644,0H39.16a0,0,0,0,1,0,0V29.119a0,0,0,0,1,0,0H12.644A12.644,12.644,0,0,1,0,16.475V12.644A12.644,12.644,0,0,1,12.644,0Z" fill="#7d6eb2"/>
            <rect id="Rectángulo_29159" data-name="Rectángulo 29159" width="131.958" height="4.945" transform="translate(16.397)" fill="#7d6eb2"/>
            <rect id="Rectángulo_29160" data-name="Rectángulo 29160" width="131.958" height="4.945" transform="translate(16.397 24.175)" fill="#7d6eb2"/>
            <path id="Rectángulo_29161" data-name="Rectángulo 29161" d="M8.284,0H122.439a0,0,0,0,1,0,0V19.23a0,0,0,0,1,0,0H8.284A8.284,8.284,0,0,1,0,10.946V8.284A8.284,8.284,0,0,1,8.284,0Z" transform="translate(23.79 4.945)" fill="#fffdfa"/>
            <g id="Grupo_50609" data-name="Grupo 50609" transform="translate(23.974 9.437)">
              <line id="Línea_1571" data-name="Línea 1571" x2="122.254" fill="none" stroke="#e8e8e8" stroke-miterlimit="10" stroke-width="0.969"/>
              <line id="Línea_1572" data-name="Línea 1572" x2="122.254" transform="translate(0 4.945)" fill="none" stroke="#e8e8e8" stroke-miterlimit="10" stroke-width="0.969"/>
              <line id="Línea_1573" data-name="Línea 1573" x2="122.254" transform="translate(0 9.89)" fill="none" stroke="#e8e8e8" stroke-miterlimit="10" stroke-width="0.969"/>
            </g>
          </g>
          <g id="Grupo_50612" data-name="Grupo 50612" transform="translate(17.642 0)">
            <path id="Rectángulo_29162" data-name="Rectángulo 29162" d="M12.242,0H37.916a0,0,0,0,1,0,0V28.194a0,0,0,0,1,0,0H12.242A12.242,12.242,0,0,1,0,15.951V12.242A12.242,12.242,0,0,1,12.242,0Z" transform="translate(117.92 28.194) rotate(180)" fill="#26aab7"/>
            <rect id="Rectángulo_29163" data-name="Rectángulo 29163" width="102.044" height="4.788" transform="translate(102.044 4.788) rotate(180)" fill="#26aab7"/>
            <rect id="Rectángulo_29164" data-name="Rectángulo 29164" width="102.044" height="4.788" transform="translate(102.044 28.194) rotate(180)" fill="#26aab7"/>
            <path id="Rectángulo_29165" data-name="Rectángulo 29165" d="M8.02,0H92.827a0,0,0,0,1,0,0V18.619a0,0,0,0,1,0,0H8.02A8.02,8.02,0,0,1,0,10.6V8.02A8.02,8.02,0,0,1,8.02,0Z" transform="translate(94.886 23.406) rotate(180)" fill="#fffdfa"/>
            <g id="Grupo_50611" data-name="Grupo 50611" transform="translate(1.855 9.152)">
              <line id="Línea_1574" data-name="Línea 1574" x2="93.003" fill="none" stroke="#e8e8e8" stroke-miterlimit="10" stroke-width="0.969"/>
              <line id="Línea_1575" data-name="Línea 1575" x2="93.003" transform="translate(0 4.945)" fill="none" stroke="#e8e8e8" stroke-miterlimit="10" stroke-width="0.969"/>
              <line id="Línea_1576" data-name="Línea 1576" x2="93.003" transform="translate(0 9.89)" fill="none" stroke="#e8e8e8" stroke-miterlimit="10" stroke-width="0.969"/>
            </g>
          </g>
        </g>
      </g>
    </g>
    <g id="Grupo_50626" data-name="Grupo 50626" transform="translate(248.421 196.066)">
      <g id="Grupo_50616" data-name="Grupo 50616" transform="translate(21.645 22.651)">
        <path id="Trazado_100896" data-name="Trazado 100896" d="M376.669,253.341s3.447.5,5.47,7.981,3.213,20.089,11.208,26.629l-4.966,6.879-11.711-13.777Z" transform="translate(-376.669 -253.341)" fill="#fffdfa"/>
        <path id="Trazado_100897" data-name="Trazado 100897" d="M397.153,302.957s7.665,3.42,3.447,9.872l-7.644-6.948Z" transform="translate(-381.245 -267.282)" fill="#e1b89b"/>
      </g>
      <path id="Trazado_100898" data-name="Trazado 100898" d="M362.59,244.108c1.244,3.58-1.232,7.692-5.529,9.186s-8.79-.2-10.034-3.779,1.232-7.693,5.53-9.186S361.347,240.528,362.59,244.108Z" transform="translate(-346.605 -226.882)" fill="#5b7393"/>
      <g id="Grupo_50620" data-name="Grupo 50620" transform="translate(7.087 51.125)">
        <path id="Trazado_100899" data-name="Trazado 100899" d="M399.658,315.78,380.872,296l-1.033-3.055-6.654,1.109-4.577,14.609,18.49,12.755-18.49,15.538s2.318,12.449,2.83,12.277c.406-.135,19.653-15.44,27.832-21.913a7.561,7.561,0,0,0,2.76-7.207h0A7.566,7.566,0,0,0,399.658,315.78Z" transform="translate(-359.847 -292.942)" fill="#00223d"/>
        <g id="Grupo_50619" data-name="Grupo 50619" transform="translate(0 0.779)">
          <g id="Grupo_50617" data-name="Grupo 50617" transform="translate(2.091 63.579)">
            <path id="Trazado_100900" data-name="Trazado 100900" d="M367.671,383l.3,10.377h-6.318l-.429-10.933Z" transform="translate(-359.864 -382.449)" fill="#e1b89b"/>
            <path id="Trazado_100901" data-name="Trazado 100901" d="M361.114,396.1l6.3-.633,8.94,4.057A3.341,3.341,0,0,1,378,401.149l.332,1.726-17.808.069a1.189,1.189,0,0,1-1.135-1.558Z" transform="translate(-359.331 -386.107)" fill="#fffdfa"/>
          </g>
          <g id="Grupo_50618" data-name="Grupo 50618">
            <path id="Trazado_100902" data-name="Trazado 100902" d="M357.581,296.3s-2.276,9.925-.448,25.464l.252,40.451,10.722-.7,3.716-67.493Z" transform="translate(-356.423 -294.026)" fill="#00223d"/>
            <line id="Línea_1577" data-name="Línea 1577" x1="0.842" y2="15.457" transform="translate(12.407 39.46)" fill="none" stroke="#00223d" stroke-miterlimit="10" stroke-width="0.388"/>
            <path id="Trazado_100903" data-name="Trazado 100903" d="M376.4,316.45l.193-4.895,3.236-4.642" transform="translate(-362.036 -297.647)" fill="none" stroke="#00223d" stroke-miterlimit="10" stroke-width="0.388"/>
          </g>
        </g>
      </g>
      <g id="Grupo_50624" data-name="Grupo 50624" transform="translate(0 21.838)">
        <g id="Grupo_50621" data-name="Grupo 50621" transform="translate(8.245)">
          <path id="Trazado_100904" data-name="Trazado 100904" d="M363.014,252.268l5.634-.057a5.027,5.027,0,0,1,5.03,4.308c1.173,8.14,3.191,24.978,3.191,24.978l-18.834,3.055V257.3A5.031,5.031,0,0,1,363.014,252.268Z" transform="translate(-358.034 -252.211)" fill="#fffdfa"/>
          <line id="Línea_1578" data-name="Línea 1578" x1="2.385" y1="16.714" transform="translate(16.45 12.573)" fill="none" stroke="#00223d" stroke-miterlimit="10" stroke-width="0.388"/>
        </g>
        <g id="Grupo_50623" data-name="Grupo 50623" transform="translate(0 0.048)">
          <circle id="Elipse_4053" data-name="Elipse 4053" cx="4.639" cy="4.639" r="4.639" transform="translate(0 44.807)" fill="#e1b89b"/>
          <g id="Grupo_50622" data-name="Grupo 50622" transform="translate(1.562)">
            <path id="Trazado_100905" data-name="Trazado 100905" d="M360.4,252.286s-8.457-.509-10.174,5.928-1.478,39.928-1.478,39.928l5.9.525,3.087-38.2Z" transform="translate(-348.739 -252.277)" fill="#fffdfa"/>
            <line id="Línea_1579" data-name="Línea 1579" y1="18.206" x2="1.471" transform="translate(7.063 13.938)" fill="none" stroke="#00223d" stroke-miterlimit="10" stroke-width="0.388"/>
          </g>
        </g>
      </g>
      <g id="Grupo_50625" data-name="Grupo 50625" transform="translate(5.333 0)">
        <path id="Trazado_100906" data-name="Trazado 100906" d="M367.418,253.562h0a3.047,3.047,0,0,1-3.047-3.047v-5.692h6.094v5.692A3.047,3.047,0,0,1,367.418,253.562Z" transform="translate(-356.902 -228.297)" fill="#e1b89b"/>
        <path id="Trazado_100907" data-name="Trazado 100907" d="M370.466,249.193l-6.095-4.37h6.095Z" transform="translate(-356.902 -228.297)" fill="#3f1311"/>
        <circle id="Elipse_4054" data-name="Elipse 4054" cx="7.738" cy="7.738" r="7.738" transform="translate(0 10.943) rotate(-45)" fill="#e1b89b"/>
        <path id="Trazado_100908" data-name="Trazado 100908" d="M378.231,236.755l1.743,2.3a.368.368,0,0,1-.257.589l-1.875.18Z" transform="translate(-360.686 -226.03)" fill="#e1b89b"/>
        <path id="Trazado_100909" data-name="Trazado 100909" d="M359.758,235.23s9.475,1.182,10.456-7.183c0,0-1.373-3.152-6.927-1.87s-5.25,8.524-5.25,8.524Z" transform="translate(-355.121 -222.972)" fill="#5b7393"/>
        <path id="Trazado_100910" data-name="Trazado 100910" d="M371.79,228.148s1.635.182,3.308,2.429c0,0-1.477-6.148-9.758-4.4l1.765,2.981Z" transform="translate(-357.174 -222.97)" fill="#5b7393"/>
        <path id="Trazado_100911" data-name="Trazado 100911" d="M361.14,237.948a2.406,2.406,0,1,1-2.406-2.406A2.406,2.406,0,0,1,361.14,237.948Z" transform="translate(-354.642 -225.689)" fill="#e1b89b"/>
      </g>
    </g>
    <g id="Grupo_50638" data-name="Grupo 50638" transform="translate(43.84 231.088)">
      <g id="Grupo_50627" data-name="Grupo 50627" transform="translate(46.204 0)">
        <path id="Trazado_100912" data-name="Trazado 100912" d="M143.934,301.278h0a3.046,3.046,0,0,0,2.376-3.593l-1.136-5.575-5.969,1.217,1.137,5.575A3.046,3.046,0,0,0,143.934,301.278Z" transform="translate(-129.926 -276.606)" fill="#e1b89b"/>
        <path id="Trazado_100913" data-name="Trazado 100913" d="M140.077,297.607l5.1-5.5-5.969,1.217Z" transform="translate(-129.926 -276.606)" fill="#3f1311"/>
        <circle id="Elipse_4055" data-name="Elipse 4055" cx="7.735" cy="7.735" r="7.735" transform="translate(0 12.855) rotate(-56.199)" fill="#e1b89b"/>
        <path id="Trazado_100914" data-name="Trazado 100914" d="M131.669,287.007l-1.248,2.6a.368.368,0,0,0,.37.525l1.872-.2Z" transform="translate(-127.448 -275.172)" fill="#e1b89b"/>
        <path id="Trazado_100915" data-name="Trazado 100915" d="M139.467,274.156a10.424,10.424,0,0,0-2.142.139c-6.356.92-6.537,6.121-6.537,6.121a6.262,6.262,0,0,1,2.344-2.837c9.124-1.515,9.811,5.117,9.776,5.111l3.4-1.233S148.539,274.515,139.467,274.156Z" transform="translate(-127.561 -271.559)" fill="#5b7393"/>
        <path id="Trazado_100916" data-name="Trazado 100916" d="M147.625,284.9a2.4,2.4,0,1,0,1.876-2.837A2.4,2.4,0,0,0,147.625,284.9Z" transform="translate(-132.278 -273.769)" fill="#e1b89b"/>
        <path id="Trazado_100917" data-name="Trazado 100917" d="M139.725,278.636c-.175-.111-1.153-.9-3,.194s-8.326,4.414-9.058.127,4.636-6.916,8.185-4.408,5.42,2.708,5.42,2.708Z" transform="translate(-126.665 -271.397)" fill="#5b7393"/>
      </g>
      <g id="Grupo_50632" data-name="Grupo 50632" transform="translate(0 50.869)">
        <g id="Grupo_50629" data-name="Grupo 50629" transform="translate(22.521 5.296)">
          <g id="Grupo_50628" data-name="Grupo 50628" transform="translate(0.882 20.358)">
            <path id="Trazado_100918" data-name="Trazado 100918" d="M103.117,379.4l2.753,10,6.037-1.854-2.8-10.573Z" transform="translate(-96.986 -376.973)" fill="#e1b89b"/>
            <path id="Trazado_100919" data-name="Trazado 100919" d="M109.247,390.427l-6.21,1.245-7.351,6.5a3.345,3.345,0,0,0-1.1,2.033l.189,1.746,17.037-5.158a1.189,1.189,0,0,0,.628-1.823Z" transform="translate(-94.59 -380.753)" fill="#5b7393"/>
          </g>
          <path id="Trazado_100920" data-name="Trazado 100920" d="M104.3,348.66l6.613,26.089-11.787,3-5.767-26.6Z" transform="translate(-93.363 -348.66)" fill="#12263f"/>
        </g>
        <g id="Grupo_50631" data-name="Grupo 50631">
          <g id="Grupo_50630" data-name="Grupo 50630" transform="translate(0 31.874)">
            <path id="Trazado_100921" data-name="Trazado 100921" d="M81.762,385.623l-2.991,9.936,6.1,1.642,3.256-10.441Z" transform="translate(-66.742 -385.623)" fill="#e1b89b"/>
            <path id="Trazado_100922" data-name="Trazado 100922" d="M80.423,399.592,74.5,397.343l-9.683,1.592a3.343,3.343,0,0,0-2.008,1.139l-.769,1.579,17.17,4.7a1.189,1.189,0,0,0,1.5-1.209Z" transform="translate(-62.042 -388.916)" fill="#5b7393"/>
          </g>
          <path id="Trazado_100923" data-name="Trazado 100923" d="M116.543,342.618l-24.255-.564a8.9,8.9,0,0,0-6.56,6.5l-7.778,28.22,10.534,3.482,8.46-24.615,25.615,4.267a12.379,12.379,0,0,0,6.518-.574,9.544,9.544,0,0,0,5.326-4.784,12.3,12.3,0,0,0-2.388-13.252Z" transform="translate(-66.512 -341.294)" fill="#12263f"/>
        </g>
      </g>
      <g id="Grupo_50637" data-name="Grupo 50637" transform="translate(11.114 20.711)">
        <g id="Grupo_50633" data-name="Grupo 50633" transform="translate(7.441 4.114)">
          <path id="Trazado_100924" data-name="Trazado 100924" d="M96.967,317.6a4.637,4.637,0,1,1-3.282-5.678A4.638,4.638,0,0,1,96.967,317.6Z" transform="translate(-87.849 -306.951)" fill="#e1b89b"/>
          <path id="Trazado_100925" data-name="Trazado 100925" d="M116.809,318.1l9.175-12.3s2.818-1.957,8.149.572-6.222,13.778-6.222,13.778l-8.855,8.152a4.649,4.649,0,0,1-4.687.865c-4.911-1.741-15.456-7.246-17.849-9.447l3.3-6.348Z" transform="translate(-90.285 -305.073)" fill="#5b7393"/>
        </g>
        <g id="Grupo_50634" data-name="Grupo 50634" transform="translate(0 4.372)">
          <path id="Trazado_100926" data-name="Trazado 100926" d="M86.368,305.856l1.419,8.163L77.5,310.753Z" transform="translate(-77.499 -305.551)" fill="#fafafc"/>
          <path id="Trazado_100927" data-name="Trazado 100927" d="M90.828,309.374l-11.437.8,6.977-4.437-1-.306L77.5,310.237l3.123,18.453,13.471.131Z" transform="translate(-77.499 -305.431)" fill="#167377"/>
        </g>
        <g id="Grupo_50636" data-name="Grupo 50636" transform="translate(9.866)">
          <path id="Trazado_100928" data-name="Trazado 100928" d="M131.624,330.833l4.223-26.646c.109-1.107,1.224-2.5,3.513-3.279l5.018-1.557c1.67,0,3.167,1.864,3.615,3.473,1.182,4.255,3.065,14.446,2.632,30.809Z" transform="translate(-102.573 -299.351)" fill="#5b7393"/>
          <g id="Grupo_50635" data-name="Grupo 50635" transform="translate(0 2.637)">
            <path id="Trazado_100929" data-name="Trazado 100929" d="M100.5,326.646a4.637,4.637,0,1,1-4.638-4.638A4.638,4.638,0,0,1,100.5,326.646Z" transform="translate(-91.221 -308.354)" fill="#e1b89b"/>
            <path id="Trazado_100930" data-name="Trazado 100930" d="M119.162,320.524l8.492-16.019s1.11-2.268,6.913-1.2-2.45,14.918-2.45,14.918l-6.448,10.164a4.648,4.648,0,0,1-4.3,2.046c-5.194-.412-16.8-3.006-19.685-4.514l1.548-6.985Z" transform="translate(-94.16 -303.018)" fill="#5b7393"/>
            <path id="Trazado_100931" data-name="Trazado 100931" d="M132.007,335.412a3.434,3.434,0,0,0,2.184-1.744c1.013-1.6,7.184-11.843,7.184-11.843" transform="translate(-102.681 -308.302)" fill="none" stroke="#00223d" stroke-miterlimit="10" stroke-width="0.388"/>
          </g>
        </g>
      </g>
    </g>
    <g id="Grupo_50654" data-name="Grupo 50654" transform="translate(151.223 208.236)">
      <g id="Grupo_50643" data-name="Grupo 50643" transform="translate(3.572 50.114)">
        <g id="Grupo_50640" data-name="Grupo 50640" transform="translate(5.229 10.201)">
          <g id="Grupo_50639" data-name="Grupo 50639" transform="translate(0 27.163)">
            <path id="Trazado_100932" data-name="Trazado 100932" d="M238.5,363.586l-3.995,9.582-5.757-2.6,4.11-10.14Z" transform="translate(-225.066 -360.426)" fill="#e1b89b"/>
            <path id="Trazado_100933" data-name="Trazado 100933" d="M227.685,373.334l6.006,2.019,6.476,7.378a3.343,3.343,0,0,1,.83,2.155l-.408,1.709-16.257-7.269a1.189,1.189,0,0,1-.393-1.888Z" transform="translate(-223.627 -364.053)" fill="#393e39"/>
          </g>
          <path id="Trazado_100934" data-name="Trazado 100934" d="M246.515,340.934,239.064,359.8l-10.834-4.978,10.561-32.175,8.269,3.26Z" transform="translate(-224.921 -322.649)" fill="#dee7f3"/>
        </g>
        <g id="Grupo_50642" data-name="Grupo 50642">
          <g id="Grupo_50641" data-name="Grupo 50641" transform="translate(31.764 44.114)">
            <path id="Trazado_100935" data-name="Trazado 100935" d="M266.994,369.814l1.524,10.269-6.274.743L260.53,370.02Z" transform="translate(-260.53 -369.814)" fill="#e1b89b"/>
            <path id="Trazado_100936" data-name="Trazado 100936" d="M262.309,383.3l6.187-1.37,9.355,2.977a3.341,3.341,0,0,1,1.823,1.418l.533,1.674-17.676,2.165a1.19,1.19,0,0,1-1.311-1.414Z" transform="translate(-260.717 -373.218)" fill="#393e39"/>
          </g>
          <path id="Trazado_100937" data-name="Trazado 100937" d="M216.411,308.462s-.854,10.164,4.09,12.465c4.6,2.14,21.1,2.733,21.1,2.733L246.29,358.2l11.313-1.856-3.051-40.1a3.379,3.379,0,0,0-2.873-2.762Z" transform="translate(-216.355 -308.462)" fill="#dee7f3"/>
        </g>
      </g>
      <g id="Grupo_50651" data-name="Grupo 50651" transform="translate(0 19.948)">
        <g id="Grupo_50649" data-name="Grupo 50649">
          <g id="Grupo_50645" data-name="Grupo 50645" transform="translate(3.629)">
            <g id="Grupo_50644" data-name="Grupo 50644" transform="translate(12.602 2.283)">
              <path id="Trazado_100938" data-name="Trazado 100938" d="M260.568,299.53l1.388-6.248-16.406-1.71-4.134-18.336c-.344-1.666-2.976-3.734-4.794-3.418l.524-.136c-1.818.316-3.487,2.252-3.142,3.919l3.331,21.935a3.2,3.2,0,0,0,2.5,2.412Z" transform="translate(-233.96 -269.683)" fill="#393e39"/>
            </g>
            <path id="Trazado_100939" data-name="Trazado 100939" d="M236.624,273.569A6.772,6.772,0,0,0,232.972,268a10.8,10.8,0,0,0-5.077-1.477c-3.274.235-7.232.354-10.234,1.386l-1.228,28.769,21.235.5Z" transform="translate(-216.433 -266.508)" fill="#393e39"/>
          </g>
          <g id="Grupo_50648" data-name="Grupo 50648" transform="translate(0 0.541)">
            <g id="Grupo_50646" data-name="Grupo 50646" transform="translate(19.273 26.516)">
              <path id="Trazado_100940" data-name="Trazado 100940" d="M245.681,308.155c-.163,2.376,1.424,2.842,3.8,3.006s4.641-.04,4.8-2.415a4.312,4.312,0,0,0-8.6-.59Z" transform="translate(-240.292 -304.139)" fill="#e1b89b"/>
              <path id="Trazado_100941" data-name="Trazado 100941" d="M240.4,310.974l4.971.342a2.374,2.374,0,0,0,2.523-2.2h0a2.374,2.374,0,0,0-2.2-2.524l-4.971-.341a2.374,2.374,0,0,0-2.524,2.2h0A2.374,2.374,0,0,0,240.4,310.974Z" transform="translate(-238.191 -304.731)" fill="#e1b89b"/>
            </g>
            <g id="Grupo_50647" data-name="Grupo 50647">
              <path id="Trazado_100942" data-name="Trazado 100942" d="M220.124,267.261s-8.439.3-8.684,7.574a186.655,186.655,0,0,0,.647,20.226,4.479,4.479,0,0,0,2.89,3.706c5.29,1.976,21.3,1.821,21.3,1.821l.737-6.9-15.9-3.33Z" transform="translate(-211.386 -267.261)" fill="#393e39"/>
              <path id="Trazado_100943" data-name="Trazado 100943" d="M239.794,297.618l-14.967-3.134-.213-12.521" transform="translate(-215.103 -271.392)" fill="none" stroke="#00223d" stroke-miterlimit="10" stroke-width="0.388"/>
            </g>
          </g>
        </g>
        <g id="Grupo_50650" data-name="Grupo 50650" transform="translate(14.824 14.374)">
          <path id="Trazado_100944" data-name="Trazado 100944" d="M278.284,287.429l-20.42-.928a1.424,1.424,0,0,0-1.443,1.063l-4.664,17.864a1.425,1.425,0,0,0,1.314,1.783l20.759.944a1.424,1.424,0,0,0,1.449-1.088l4.325-17.879A1.425,1.425,0,0,0,278.284,287.429Z" transform="translate(-237.54 -286.499)" fill="#14191e"/>
          <path id="Trazado_100945" data-name="Trazado 100945" d="M279.919,287.5l-20.42-.929a1.424,1.424,0,0,0-1.442,1.063L253.393,305.5a1.424,1.424,0,0,0,1.313,1.782l20.759.944a1.424,1.424,0,0,0,1.449-1.088l4.325-17.879A1.424,1.424,0,0,0,279.919,287.5Z" transform="translate(-238 -286.52)" fill="#252d37"/>
          <path id="Trazado_100946" data-name="Trazado 100946" d="M246.762,312.859l-13.953-.635a.771.771,0,0,0-.805.735h0a.771.771,0,0,0,.735.805l14.788.726Z" transform="translate(-232.003 -293.727)" fill="#14191e"/>
          <path id="Trazado_100947" data-name="Trazado 100947" d="M272.087,300.1a2.227,2.227,0,1,0,2.326-2.124A2.228,2.228,0,0,0,272.087,300.1Z" transform="translate(-243.265 -289.724)" fill="#fff"/>
        </g>
      </g>
      <g id="Grupo_50653" data-name="Grupo 50653" transform="translate(6.357 0)">
        <g id="Grupo_50652" data-name="Grupo 50652" transform="translate(0)">
          <path id="Trazado_100948" data-name="Trazado 100948" d="M230.158,268.074h0a3.047,3.047,0,0,1-2.583-3.45l.811-5.634,6.033.869-.811,5.634A3.047,3.047,0,0,1,230.158,268.074Z" transform="translate(-222.284 -244.448)" fill="#e1b89b"/>
          <path id="Trazado_100949" data-name="Trazado 100949" d="M234.143,264.055l-5.6-5.183,6.155.77Z" transform="translate(-222.564 -244.414)" fill="#3f1311"/>
          <path id="Trazado_100950" data-name="Trazado 100950" d="M239.238,250.071a7.738,7.738,0,1,1-6.557-8.761A7.739,7.739,0,0,1,239.238,250.071Z" transform="translate(-221.243 -239.458)" fill="#e1b89b"/>
          <path id="Trazado_100951" data-name="Trazado 100951" d="M243.412,253l1.4,2.522a.367.367,0,0,1-.339.546l-1.882-.088Z" transform="translate(-226.511 -242.765)" fill="#e1b89b"/>
          <path id="Trazado_100952" data-name="Trazado 100952" d="M229.84,238.814a10.429,10.429,0,0,1,2.147.014c6.4.549,5.787,5.2,5.787,5.2-.912-1.681-1.022-.462-1.585-.754-9.238-4.506-9.5,5.683-9.466,5.674l-3.558-.33S220.8,239.7,229.84,238.814Z" transform="translate(-220.975 -238.765)" fill="#12263f"/>
          <circle id="Elipse_4056" data-name="Elipse 4056" cx="2.406" cy="2.406" r="2.406" transform="translate(0 9.349) rotate(-36.739)" fill="#e1b89b"/>
        </g>
        <path id="Trazado_100953" data-name="Trazado 100953" d="M231.841,242.739s1.527-1.378,3.569.447,5.057,2.441,5.448,1.129-1.675-4.18-4.014-4.733-4.777,1.359-4.777,1.359Z" transform="translate(-223.491 -238.966)" fill="#12263f"/>
      </g>
    </g>
  </g>
</svg>
