<svg xmlns="http://www.w3.org/2000/svg" xmlns:xlink="http://www.w3.org/1999/xlink" width="387.976" height="422.212" viewBox="0 0 387.976 422.212">
  <defs>
    <linearGradient id="linear-gradient" x1="0.5" x2="0.5" y2="1" gradientUnits="objectBoundingBox">
      <stop offset="0" stop-color="#fff"/>
      <stop offset="1" stop-color="#d2e6ee"/>
    </linearGradient>
  </defs>
  <g id="Grupo_46257" data-name="Grupo 46257" transform="translate(-1334.221 -2187.273)">
    <g id="Grupo_12238" data-name="Grupo 12238" transform="translate(1336.905 2194.528)">
      <g id="Grupo_12237" data-name="Grupo 12237" transform="translate(0 39.245)">
        <g id="Grupo_12236" data-name="Grupo 12236" transform="translate(0 227.936)">
          <g id="Grupo_12235" data-name="Grupo 12235">
            <g id="Grupo_12226" data-name="Grupo 12226" transform="translate(0 2.249)">
              <path id="Trazado_16083" data-name="Trazado 16083" d="M1310.1,2384.981l-62.6-12.079c-5.458-1.052-9.541-11.624-9.541-19.78v-8c0-8.156,4.083-18.726,9.541-19.779l62.6-12.08c6.556-1.265,12.369,6.3,12.369,16.1v39.526C1322.466,2378.681,1316.654,2386.248,1310.1,2384.981Z" transform="translate(-1221.608 -2312.226)" fill="#f6fafc"/>
              <path id="Trazado_16084" data-name="Trazado 16084" d="M1242.828,2329.59c-10.451,0-18.924,8.19-18.924,18.3s8.472,18.3,18.924,18.3" transform="translate(-1223.905 -2309.534)" stroke="#00223d" stroke-miterlimit="10" stroke-width="5.369" fill="url(#linear-gradient)"/>
              <path id="Trazado_16085" data-name="Trazado 16085" d="M1269.9,2367.47s-14.775,15.4-2.778,31.352a2.009,2.009,0,0,1-1.6,3.2H1250.15a3.5,3.5,0,0,1-3.475-3.517v-34.851" transform="translate(-1220.183 -2303.966)" stroke="#00223d" stroke-miterlimit="10" stroke-width="5.158" fill="url(#linear-gradient)"/>
              <path id="Trazado_16086" data-name="Trazado 16086" d="M1305.652,2379.8l-59.288-8.415c-5.17-.734-9.037-8.1-9.037-13.781v-5.577c0-5.683,3.867-13.046,9.037-13.78l59.288-8.416c6.209-.882,11.715,4.388,11.715,11.215v27.537C1317.367,2375.406,1311.861,2380.676,1305.652,2379.8Z" transform="translate(-1221.711 -2309.511)" fill="#aee6e6"/>
              <path id="Trazado_16087" data-name="Trazado 16087" d="M1310.1,2384.981l-62.6-12.079c-5.458-1.052-9.541-11.624-9.541-19.78v-8c0-8.156,4.083-18.726,9.541-19.779l62.6-12.08c6.556-1.265,12.369,6.3,12.369,16.1v39.526C1322.466,2378.681,1316.654,2386.248,1310.1,2384.981Z" transform="translate(-1221.608 -2312.226)" fill="none" stroke="#00223d" stroke-miterlimit="10" stroke-width="5.732"/>
              <line id="Línea_140" data-name="Línea 140" y2="70.355" transform="translate(88.43)" fill="#eec251" stroke="#00223d" stroke-miterlimit="10" stroke-width="4.585"/>
            </g>
            <g id="Grupo_12234" data-name="Grupo 12234" transform="translate(113.445)">
              <g id="Grupo_12233" data-name="Grupo 12233">
                <g id="Grupo_12228" data-name="Grupo 12228" transform="translate(23.729)">
                  <g id="Grupo_12227" data-name="Grupo 12227">
                    <path id="Trazado_16088" data-name="Trazado 16088" d="M1347.746,2394.013l-5.939-6.019a51.357,51.357,0,0,0,.2-71.56l5.944-6.016A59.935,59.935,0,0,1,1347.746,2394.013Z" transform="translate(-1341.807 -2310.419)" fill="#00223d"/>
                  </g>
                </g>
                <g id="Grupo_12230" data-name="Grupo 12230" transform="translate(11.867 12.01)">
                  <g id="Grupo_12229" data-name="Grupo 12229">
                    <path id="Trazado_16089" data-name="Trazado 16089" d="M1337.553,2380.317l-5.941-6.013a34.231,34.231,0,0,0,.2-47.549l5.941-6.013A42.8,42.8,0,0,1,1337.553,2380.317Z" transform="translate(-1331.612 -2320.742)" fill="#00223d"/>
                  </g>
                </g>
                <g id="Grupo_12232" data-name="Grupo 12232" transform="translate(0 24.02)">
                  <g id="Grupo_12231" data-name="Grupo 12231">
                    <path id="Trazado_16090" data-name="Trazado 16090" d="M1327.357,2366.623l-5.945-6.014a17.134,17.134,0,0,0,.2-23.531l5.941-6.014A25.71,25.71,0,0,1,1327.357,2366.623Z" transform="translate(-1321.412 -2331.064)" fill="#00223d"/>
                  </g>
                </g>
              </g>
            </g>
          </g>
        </g>
        <path id="Trazado_16091" data-name="Trazado 16091" d="M1541.413,2267.552l21.391-3.14-15.877-10.652,9.565-12.256-16.785,1.434.985-14.722-14.909,13.72-6.919-11.592-4.373,16.063" transform="translate(-1303.098 -2228.216)" fill="#f5ca56" stroke="#00223d" stroke-miterlimit="10" stroke-width="4.423"/>
      </g>
      <path id="Trazado_16092" data-name="Trazado 16092" d="M1400,2282.467h-58.228c-1.08,0-2.046-1-2.428-2.5l-3.466-13.7c-.846-3.341-4.026-3.33-4.86.018l-6.878,27.582c-.869,3.487-4.222,3.309-4.921-.262l-6.6-33.685c-.682-3.482-3.921-3.769-4.876-.433l-6.242,21.808c-.407,1.424-1.347,2.348-2.386,2.348h-39.1" transform="translate(-1240.921 -2257.139)" fill="none" stroke="#00223d" stroke-linecap="round" stroke-miterlimit="10" stroke-width="5.124"/>
      <path id="Trazado_16093" data-name="Trazado 16093" d="M1248.512,2285.271h0a4.923,4.923,0,0,1-4.909-4.909h0a4.924,4.924,0,0,1,4.909-4.908h0a4.923,4.923,0,0,1,4.909,4.908h0A4.922,4.922,0,0,1,1248.512,2285.271Z" transform="translate(-1243.603 -2254.145)" fill="#00223d"/>
    </g>
    <g id="Grupo_12246" data-name="Grupo 12246" transform="translate(1394.092 2235.863)">
      <g id="Grupo_12242" data-name="Grupo 12242" transform="translate(0 0)">
        <path id="Trazado_16094" data-name="Trazado 16094" d="M1468.327,2445.556H1514c10.941,0,10.938-8.551,10.5-19.484-.589-14.894,3.473-35.347.122-48.322-4.974-19.265,27.028-17.76,29.162-55.671h0v.484c-.014-47.018-33.824-74.4-74.245-74.4s-73.206,29.228-73.206,65.285c0,10.076.534,17.182,5.105,25.7l10.635,1.077s-4.778,21.57,7.07,30.279,5.924,28.177,15.619,30.74,20.459-12.809,20.459-12.809S1469.341,2432.7,1468.327,2445.556Z" transform="translate(-1377.962 -2227.046)" fill="#ccdcea"/>
        <g id="Grupo_12239" data-name="Grupo 12239">
          <path id="Trazado_16095" data-name="Trazado 16095" d="M1400.957,2332.381c-5.053-9.586-5.643-17.581-5.643-28.917,0-40.567,36.229-73.451,80.921-73.451s88.275,32,88.275,84.924c-.184,19.759-3.82,38.93-20.792,56.093v73.657" transform="translate(-1379.765 -2230.013)" fill="none" stroke="#00223d" stroke-linecap="round" stroke-miterlimit="10" stroke-width="5.124"/>
          <path id="Trazado_16096" data-name="Trazado 16096" d="M1406.35,2394.087c.585,1.766,36.222,8.7,55.773-9.388" transform="translate(-1377.961 -2204.728)" fill="none" stroke="#00223d" stroke-linecap="round" stroke-miterlimit="10" stroke-width="5.124"/>
          <path id="Trazado_16097" data-name="Trazado 16097" d="M1404.6,2319.719s-7.7,12.294-20.842,31.054c-6.57,9.38,6.271,11.141,13.736,11.432,5.971.587,2.091,2.639,0,5.277s5.643,6.743,5.643,6.743l.328,3.517s-1.791,3.81,2.987,5.276,3.936,14.194,3.882,21.691" transform="translate(-1381.949 -2215.349)" fill="none" stroke="#00223d" stroke-linecap="round" stroke-miterlimit="10" stroke-width="5.124"/>
          <path id="Trazado_16098" data-name="Trazado 16098" d="M1407.289,2366.567" transform="translate(-1377.808 -2207.693)" fill="none" stroke="#414651" stroke-miterlimit="10" stroke-width="5.124"/>
          <path id="Trazado_16099" data-name="Trazado 16099" d="M1422.262,2285.441" transform="translate(-1375.36 -2220.953)" fill="none" stroke="#414651" stroke-miterlimit="10" stroke-width="5.124"/>
          <path id="Trazado_16100" data-name="Trazado 16100" d="M1527.5,2306.352" transform="translate(-1358.158 -2217.535)" fill="none" stroke="#414651" stroke-miterlimit="10" stroke-width="5.124"/>
          <path id="Trazado_16101" data-name="Trazado 16101" d="M1399.86,2366.4" transform="translate(-1379.022 -2207.72)" fill="none" stroke="#414651" stroke-miterlimit="10" stroke-width="5.124"/>
        </g>
        <path id="Trazado_16102" data-name="Trazado 16102" d="M1414.277,2367.427s-10.632-1.749-13.975,0" transform="translate(-1378.95 -2207.678)" fill="none" stroke="#00223d" stroke-linecap="round" stroke-miterlimit="10" stroke-width="2.678"/>
        <path id="Trazado_16103" data-name="Trazado 16103" d="M1431.658,2352.834" transform="translate(-1373.825 -2209.937)" fill="none" stroke="#414651" stroke-miterlimit="10" stroke-width="3.125"/>
        <g id="Grupo_12241" data-name="Grupo 12241" transform="translate(34.057 13.197)">
          <path id="Trazado_16104" data-name="Trazado 16104" d="M1502.891,2328.347c-7.549,0-13.754-2.341-16.869-6.55a20.224,20.224,0,0,0-5.6-5.076,49.951,49.951,0,0,1-18.6,3.52c-21.929,0-39.769-13.657-39.769-30.444l.008-.4c-.187-7.1,3.937-14.88,11.322-21.363,14.024-12.312,36.607-17.754,60.405-14.564h0c18.354,2.462,31.282,9.239,38.426,20.143,10.207,15.579,4.761,33.683,4.525,34.446-4.314,12.285-17.81,18.363-28.064,19.856A40.065,40.065,0,0,1,1502.891,2328.347Z" transform="translate(-1409.452 -2239.522)" fill="#91b8c5"/>
          <g id="Grupo_12240" data-name="Grupo 12240">
            <path id="Trazado_16105" data-name="Trazado 16105" d="M1511.619,2288.9" transform="translate(-1394.812 -2233.585)" fill="#fff"/>
            <path id="Trazado_16106" data-name="Trazado 16106" d="M1491.685,2272.83" transform="translate(-1398.07 -2236.212)" fill="#fff"/>
            <path id="Trazado_16107" data-name="Trazado 16107" d="M1497.761,2323.39c-8.08,0-14.724-2.534-18.058-7.091a21.709,21.709,0,0,0-6-5.495,52.959,52.959,0,0,1-19.911,3.811c-23.475,0-42.573-14.786-42.573-32.96l.008-.432c-.2-7.683,4.214-16.11,12.12-23.13,15.014-13.33,39.189-19.221,64.665-15.767h0c19.649,2.665,33.488,10,41.137,21.807,10.926,16.867,5.1,36.467,4.842,37.293-4.618,13.3-19.066,19.881-30.043,21.5A42.606,42.606,0,0,1,1497.761,2323.39Zm-23.8-17.314.93.508a25.752,25.752,0,0,1,8.257,7.2c3.187,4.355,11.095,6.288,20.171,4.95,9.79-1.442,22.63-7.18,26.6-18.611.031-.109,5.473-18.543-4.4-33.737-6.946-10.695-19.762-17.377-38.09-19.864-24.243-3.286-47.134,2.216-61.223,14.725-6.984,6.2-10.884,13.457-10.7,19.907v.042l-.007.46c0,15.838,17.177,28.724,38.29,28.724a48.328,48.328,0,0,0,19.2-3.878Z" transform="translate(-1411.222 -2241.356)" fill="#00223d"/>
            <path id="Trazado_16108" data-name="Trazado 16108" d="M1469.532,2302.451a1.433,1.433,0,0,1-1.439-1.425c0-12.575-14.023-22.8-31.259-22.8a1.424,1.424,0,1,1,0-2.848c18.824,0,34.138,11.508,34.138,25.653A1.433,1.433,0,0,1,1469.532,2302.451Z" transform="translate(-1407.271 -2235.796)" fill="#00223d"/>
            <path id="Trazado_16109" data-name="Trazado 16109" d="M1444.791,2269.174c-6.091-2.046-13.111-.717-17.038,4.757-3.445,4.8-.874,10.093,4.3,12.142,2.29.908,4.641,1.279,6.786,2.584a24.432,24.432,0,0,0,3.573,2.294c3.286,1.295,6.4.485,9.488,2.638.875.609,3.659,1.917,4.188,2.844,1.345,2.357-2.06,2.85-3.854,3.191-4,.762-6.933-1.521-10.775-1.671-1.184-.047-1.182,1.776,0,1.822,3.194.124,5.781,2.235,9.049,1.963,2.086-.173,5.077-.543,6.836-1.766,4.412-3.069-1.87-6.057-4.078-7.641a12.084,12.084,0,0,0-6.035-2.537,13.118,13.118,0,0,1-6.548-2.077,18.123,18.123,0,0,0-3.951-2.118c-2.612-.955-5.6-1.235-7.45-3.56-1.993-2.5-1.408-5.609.666-7.9,3.779-4.175,9.237-4.927,14.354-3.208,1.124.378,1.607-1.381.489-1.757Z" transform="translate(-1408.776 -2236.958)" fill="#00223d"/>
            <path id="Trazado_16110" data-name="Trazado 16110" d="M1414.326,2266.114a6.7,6.7,0,0,0,4.905,7.091c3.859,1.081,7.162-1.287,9.927-3.677.895-.772-.413-2.057-1.3-1.288-1.98,1.711-4.246,3.586-7.042,3.379a4.917,4.917,0,0,1-4.646-5.506c.154-1.158-1.69-1.148-1.842,0Z" transform="translate(-1410.723 -2237.45)" fill="#00223d"/>
            <path id="Trazado_16111" data-name="Trazado 16111" d="M1444.789,2279.379c4.595.045,8-4.994,7.611-9.266a4.92,4.92,0,0,0-2.911-4.271c-2.481-1.1-5.8-.161-7.683-2.423-.755-.905-2.053.39-1.3,1.288,2.131,2.554,5.173,1.582,7.941,2.681,5.035,2,.651,10.213-3.655,10.17a.911.911,0,0,0,0,1.822Z" transform="translate(-1406.473 -2237.8)" fill="#00223d"/>
            <path id="Trazado_16112" data-name="Trazado 16112" d="M1437.856,2269.562c-3.667-1.455-4.138-9.023-.735-10.959,2.649-1.51,5.73-.33,8.224-2.478.9-.771-.411-2.055-1.3-1.288-2.014,1.733-4.925.941-7.261,1.924a6.037,6.037,0,0,0-3.489,4.537c-.768,3.664.256,8.5,4.073,10.02,1.1.436,1.578-1.325.49-1.757Z" transform="translate(-1407.653 -2239.191)" fill="#00223d"/>
            <path id="Trazado_16113" data-name="Trazado 16113" d="M1454.27,2294.982c1.74-.148,5.338-.663,5.439,1.858.046,1.169,1.888,1.175,1.842,0-.155-3.868-4.3-3.933-7.281-3.68-1.173.1-1.184,1.922,0,1.822Z" transform="translate(-1404.33 -2232.902)" fill="#00223d"/>
            <path id="Trazado_16114" data-name="Trazado 16114" d="M1508.16,2279.833c-3.619,3.04-9.708,2.888-14.109,1.968-4.123-.861-7.865-3.106-12.22-2.626-4.094.452-11.532,5.5-4.966,8.621,3.075,1.46,6.995,1.558,10.313,1.548,1.95-.007,10.138-.884,9.846,2.9-.2,2.613-4.856,3.156-6.743,3.394-5.564.7-10.912-.308-16.22-1.95-3.973-1.229-7.618-2.947-11.675-1.25-1.088.456-.15,2.025.93,1.574,3.449-1.442,7.029.438,10.257,1.433a54.254,54.254,0,0,0,8.036,1.926,30.164,30.164,0,0,0,11.68-.394c4.634-1.182,8.684-7.026,2.161-8.877-4.826-1.37-9.991-.115-14.9-1.136a8.491,8.491,0,0,1-2.827-.82c-2.281-1.469-.034-3.7,1.638-4.535,2.856-1.431,6.567-.458,9.4.449,6.453,2.066,14.953,3.894,20.7-.933.9-.76-.4-2.043-1.3-1.288Z" transform="translate(-1402.938 -2235.185)" fill="#00223d"/>
            <path id="Trazado_16115" data-name="Trazado 16115" d="M1458.983,2244.87c7.814,6.45-5.454,10.919-2.641,17.434.675,1.563,2.931,2.05,1.828,4.241-.6,1.188-1.829,1.49-2.305,2.914-1.056,3.159.564,5.39,3.3,6.854,1.044.558,1.974-1.015.93-1.573-2.1-1.12-3.24-4.183-1.578-6.121.549-.641,1.312-.914,1.76-1.673a3.082,3.082,0,0,0,.516-1.635c-.008-1.4-.857-1.711-1.582-2.656-1.7-2.219-.936-3.432.419-5.589,2.962-4.711,5.9-9.153.65-13.485-.9-.747-2.213.535-1.3,1.288Z" transform="translate(-1403.978 -2241.029)" fill="#00223d"/>
            <path id="Trazado_16116" data-name="Trazado 16116" d="M1451.1,2270.25c1.821-2.045,2.074-5.036,2.79-7.565.638-2.25,1.849-4.318.759-6.584-1.222-2.538-4.377-4.571-6.947-5.437a8.823,8.823,0,0,0-3.876-.442c-1.255.135-5.018,1.939-5.264-.281-.127-1.154-1.971-1.166-1.842,0,.564,5.1,5.788,1.718,8.991,2.158a10.862,10.862,0,0,1,6.249,3.476c1.409,1.629,1.41,2.582.824,4.552-.782,2.626-1.154,6.778-2.985,8.836-.781.878.516,2.17,1.3,1.288Z" transform="translate(-1407.055 -2240.095)" fill="#00223d"/>
            <path id="Trazado_16117" data-name="Trazado 16117" d="M1472.952,2305.921c4.1-4.519,8.891-4.463,14.547-3.468,3.431.6,7.121,1.656,10.484.262,3.334-1.383,5.771-3.2,9.44-3.865,2.709-.49,4.854-1.286,6-3.917.465-1.064-1.121-1.994-1.589-.919-1.564,3.579-5.982,2.826-9.1,4.058a40.549,40.549,0,0,0-4.286,2.343c-2.749,1.483-5.181,1.2-8.168.7-7.069-1.18-13.35-2.3-18.634,3.52-.79.87.508,2.162,1.3,1.288Z" transform="translate(-1401.385 -2232.827)" fill="#00223d"/>
            <path id="Trazado_16118" data-name="Trazado 16118" d="M1516.585,2296.4c.446-3.741.046-7.231-3.725-9.026-4.45-2.119-7.966,2.32-12.211.944-1.13-.365-1.614,1.394-.49,1.757,3.057.99,5.091-.585,7.962-1.341a5.584,5.584,0,0,1,6.139,2.083c1.021,1.627.7,3.791.484,5.583-.138,1.161,1.7,1.152,1.841,0Z" transform="translate(-1396.789 -2233.929)" fill="#00223d"/>
            <path id="Trazado_16119" data-name="Trazado 16119" d="M1511.407,2281.627c-1.526-.04-2.289-.422-2.041-1.984.182-1.139.662-2.221.945-3.336.506-1.989.363-3.992-1.93-4.62a.912.912,0,0,0-.49,1.756c2.052.563-.175,4.729-.364,6.111-.36,2.641,1.366,3.829,3.88,3.894a.911.911,0,0,0,0-1.821Z" transform="translate(-1395.527 -2236.405)" fill="#00223d"/>
            <path id="Trazado_16120" data-name="Trazado 16120" d="M1497.42,2281.832c9.247.314,16.2-11.126,9.247-18.265-3.2-3.285-8.083-4.733-12.582-4.89-4.26-.146-9.06.981-12.435-2.36-3.294-3.261-2.51-7.881,1.25-10.342.984-.645.063-2.223-.93-1.573-7.015,4.592-4.495,14.051,3.427,15.88,6.038,1.394,12.1-.752,17.749,2.809,8.2,5.176,3.745,17.24-5.726,16.919-1.186-.041-1.183,1.781,0,1.822Z" transform="translate(-1400.329 -2240.883)" fill="#00223d"/>
          </g>
          <path id="Trazado_16121" data-name="Trazado 16121" d="M1500.464,2268.435c-.013-.274-.032-.549-.063-.828a11.981,11.981,0,0,0-11.106-10.728,11.693,11.693,0,0,0-10.691,5.848,11.694,11.694,0,0,0-10.755-5.844,11.982,11.982,0,0,0-11.065,10.941,12.5,12.5,0,0,0,.394,4.471,5.394,5.394,0,0,0,1.292,2.292l20.014,20.961,19.41-20.366A9.245,9.245,0,0,0,1500.464,2268.435Z" transform="translate(-1403.783 -2238.822)" fill="#f6fafc"/>
          <path id="Trazado_16122" data-name="Trazado 16122" d="M1503.37,2270.966q-.018-.4-.059-.806c-.592-5.7-5.061-10.178-10.412-10.463-4.246-.225-8.821,4.053-10.844,7.64-2.034-3.6-4.99-7.887-9.261-7.637-5.405.318-9.87,4.9-10.372,10.67a12.658,12.658,0,0,0,.369,4.362,5.3,5.3,0,0,0,1.212,2.234l18.763,20.442,18.2-19.86A9.228,9.228,0,0,0,1503.37,2270.966Z" transform="translate(-1402.861 -2238.36)" fill="#ada4ce"/>
          <path id="Trazado_16123" data-name="Trazado 16123" d="M1501.525,2268.428q-.018-.45-.065-.905c-.662-6.394-5.661-11.422-11.644-11.741a12.155,12.155,0,0,0-11.21,6.4,12.149,12.149,0,0,0-11.276-6.4c-6.044.356-11.038,5.5-11.6,11.973a14.29,14.29,0,0,0,.413,4.894,5.983,5.983,0,0,0,1.355,2.507l20.984,22.938,20.35-22.286A10.371,10.371,0,0,0,1501.525,2268.428Z" transform="translate(-1403.956 -2239)" fill="none" stroke="#00223d" stroke-miterlimit="10" stroke-width="4.229"/>
        </g>
      </g>
      <path id="Trazado_16124" data-name="Trazado 16124" d="M1401.57,2323.147l11.989-3.709a1.656,1.656,0,0,0,1.122-1.2l2.907-12.208,3.71,11.989a1.657,1.657,0,0,0,1.2,1.122l12.208,2.908-11.988,3.71a1.657,1.657,0,0,0-1.123,1.2l-2.907,12.208-3.709-11.989a1.658,1.658,0,0,0-1.2-1.122Z" transform="translate(-1378.743 -2217.587)" fill="#f6c343" stroke="#00223d" stroke-miterlimit="10" stroke-width="2.279"/>
      <path id="Trazado_16125" data-name="Trazado 16125" d="M1494.291,2319.6v14.52c0,3.621-3.427,6.556-7.655,6.556h-26.244c-4.227,0-7.655,2.936-7.655,6.557v.937c0,3.622,3.427,6.557,7.655,6.557h50.849c4.227,0,7.654,2.935,7.654,6.557h0c0,3.621-3.427,6.558-7.654,6.558h-40.46c-4.227,0-7.654,2.935-7.654,6.556v.469c0,3.621,3.428,6.557,7.654,6.557H1500.3V2403.8" transform="translate(-1370.379 -2215.369)" fill="none" stroke="#00223d" stroke-miterlimit="10" stroke-width="3.29"/>
      <path id="Trazado_16126" data-name="Trazado 16126" d="M1475.764,2325.692h28.7l-14.352-23.457Z" transform="translate(-1366.615 -2218.208)" fill="#00223d"/>
      <line id="Línea_141" data-name="Línea 141" y2="28.807" transform="translate(66.607 189.329)" fill="none" stroke="#00223d" stroke-linecap="round" stroke-miterlimit="10" stroke-width="4.229"/>
      <g id="Grupo_12243" data-name="Grupo 12243" transform="translate(123.501 279.63)">
        <path id="Trazado_16127" data-name="Trazado 16127" d="M1554.572,2325.4c1.989-11.132,9.765-16.648,17.076-24.251,4.71-4.9,9.852-9.336,12.91-15.4a25.7,25.7,0,0,1,3.682-6.113c2.705-2.924,7.477-3.406,10.375-.589,3.16,3.072,3.069,8.13,1.569,11.992-1.649,4.247-5.846,6.662-7.644,10.848-1.371,3.191-3.438,7.828-.359,9.689,11.264,6.812,18.733-.038,22.873-4.825a51.7,51.7,0,0,1,10.176-9.163,46.8,46.8,0,0,1,6.117-3.466c1.582-.747,5.489-1.446,6.369-2.96,2.358-4.057,3.939-7.347,9.816-6.752,5.713.577,7.648,5.041,10.074,9.444,20.067,36.421-21.653,69.213-55.36,68.539-7.83-.157-15.6-1.768-23.432-1.517s-16.144,2.774-20.807,9.066" transform="translate(-1554.572 -2277.166)" fill="#ccdcea" stroke="#00223d" stroke-miterlimit="10" stroke-width="4.1"/>
        <path id="Trazado_16128" data-name="Trazado 16128" d="M1577.787,2325.562c10.542-4.685,9.322-13.422,8.825-20.65" transform="translate(-1550.777 -2272.631)" fill="none" stroke="#00223d" stroke-linecap="round" stroke-miterlimit="10" stroke-width="4.1"/>
        <path id="Trazado_16129" data-name="Trazado 16129" d="M1657.6,2318.87c1.831-3.182-.564-7.552-4.411-8.633-4.56-1.281-8.307,3.606-9.847,7.038-2.719,6.063-7.084,15.468-15.378,15.042-5.6-.287-11.152-3.769-16.125-6.03-27.743-12.611-37.487,2.343-37.487,2.343" transform="translate(-1551.338 -2271.794)" fill="none" stroke="#00223d" stroke-linecap="round" stroke-miterlimit="10" stroke-width="4.1"/>
        <path id="Trazado_16130" data-name="Trazado 16130" d="M1596.915,2309.238a25.055,25.055,0,0,1,12.493,12.494" transform="translate(-1547.651 -2271.924)" fill="#fff" stroke="#00223d" stroke-linecap="round" stroke-miterlimit="10" stroke-width="4.1"/>
        <path id="Trazado_16131" data-name="Trazado 16131" d="M1609.345,2315.386s15.744-11.493,20.074-26.818" transform="translate(-1545.619 -2275.302)" fill="none" stroke="#00223d" stroke-linecap="round" stroke-miterlimit="10" stroke-width="4.1"/>
        <path id="Trazado_16132" data-name="Trazado 16132" d="M1643.269,2286.084s.39,21.863-24.207,39.433" transform="translate(-1544.031 -2275.709)" fill="none" stroke="#00223d" stroke-linecap="round" stroke-miterlimit="10" stroke-width="4.1"/>
        <path id="Trazado_16133" data-name="Trazado 16133" d="M1646.022,2313.775s8.2-16.4.781-21.474-8.762,6.8-8.762,6.8" transform="translate(-1540.928 -2274.898)" fill="none" stroke="#414651" stroke-linecap="round" stroke-miterlimit="10" stroke-width="4.1"/>
        <path id="Trazado_16134" data-name="Trazado 16134" d="M1646.108,2313.742s8.38-16.674.781-21.474c-7.417-4.684-9.37,8.2-9.37,8.2" transform="translate(-1541.014 -2274.865)" fill="#ccdcea" stroke="#00223d" stroke-linecap="round" stroke-miterlimit="10" stroke-width="4.1"/>
      </g>
      <g id="Grupo_12245" data-name="Grupo 12245" transform="translate(162.74 203.734)">
        <g id="Grupo_12244" data-name="Grupo 12244">
          <path id="Trazado_16135" data-name="Trazado 16135" d="M1619.306,2259.6a14.847,14.847,0,1,0,5.551-20.25A14.848,14.848,0,0,0,1619.306,2259.6Z" transform="translate(-1583.548 -2207.77)" fill="#fff" stroke="#00223d" stroke-miterlimit="10" stroke-width="2.554"/>
          <line id="Línea_142" data-name="Línea 142" x2="10.149" y2="12.926" transform="translate(60.474 55.422)" fill="none" stroke="#00223d" stroke-miterlimit="10" stroke-width="2.211"/>
          <path id="Trazado_16136" data-name="Trazado 16136" d="M1621.438,2257.715a11.74,11.74,0,1,0,4.351-16.078A11.778,11.778,0,0,0,1621.438,2257.715Z" transform="translate(-1583.136 -2207.328)" fill="#ccdcea"/>
          <path id="Trazado_16137" data-name="Trazado 16137" d="M1590.373,2250.857a4.461,4.461,0,1,0,1.667-6.085A4.462,4.462,0,0,0,1590.373,2250.857Z" transform="translate(-1588.055 -2206.661)" fill="#aee6e6"/>
          <path id="Trazado_16138" data-name="Trazado 16138" d="M1648.61,2278.654a5.956,5.956,0,1,0,.674-8.4A5.956,5.956,0,0,0,1648.61,2278.654Z" transform="translate(-1578.672 -2202.632)" fill="#e36099"/>
          <path id="Trazado_16139" data-name="Trazado 16139" d="M1643.053,2220.982a5.934,5.934,0,1,0,2.845-7.9A5.933,5.933,0,0,0,1643.053,2220.982Z" transform="translate(-1579.44 -2211.837)" fill="#e36099"/>
          <path id="Trazado_16140" data-name="Trazado 16140" d="M1644,2220.446a5.97,5.97,0,1,0,2.861-7.944A5.97,5.97,0,0,0,1644,2220.446Z" transform="translate(-1579.287 -2211.933)" fill="none" stroke="#00223d" stroke-miterlimit="10" stroke-width="2.477"/>
          <path id="Trazado_16141" data-name="Trazado 16141" d="M1606,2224.39a5.836,5.836,0,1,0,.888-8.206A5.837,5.837,0,0,0,1606,2224.39Z" transform="translate(-1585.616 -2211.449)" fill="#aee6e6" stroke="#00223d" stroke-miterlimit="10" stroke-width="2.803"/>
          <path id="Trazado_16142" data-name="Trazado 16142" d="M1646.65,2279.613a6.886,6.886,0,1,0,2.467-9.419A6.885,6.885,0,0,0,1646.65,2279.613Z" transform="translate(-1578.914 -2202.563)" fill="none" stroke="#00223d" stroke-miterlimit="10" stroke-width="2.064"/>
          <path id="Trazado_16143" data-name="Trazado 16143" d="M1589.089,2251.073a6.029,6.029,0,1,0,2.255-8.223A6.029,6.029,0,0,0,1589.089,2251.073Z" transform="translate(-1588.298 -2207.009)" fill="none" stroke="#00223d" stroke-miterlimit="10" stroke-width="2.708"/>
          <path id="Trazado_16144" data-name="Trazado 16144" d="M1663.289,2252.716a5.893,5.893,0,1,0,1.785-8.14A5.893,5.893,0,0,0,1663.289,2252.716Z" transform="translate(-1576.192 -2206.749)" fill="#f6c343" stroke="#00223d" stroke-miterlimit="10" stroke-width="2.477"/>
          <path id="Trazado_16145" data-name="Trazado 16145" d="M1624.163,2255.365a8.178,8.178,0,1,0,3.058-11.155A8.178,8.178,0,0,0,1624.163,2255.365Z" transform="translate(-1582.611 -2206.833)" fill="#00223d"/>
          <line id="Línea_143" data-name="Línea 143" x1="22.245" y1="1.882" transform="translate(11.469 42.182)" fill="none" stroke="#00223d" stroke-miterlimit="10" stroke-width="2.211"/>
          <line id="Línea_144" data-name="Línea 144" y1="17.064" x2="12.115" transform="translate(28.349 55.334)" fill="none" stroke="#00223d" stroke-miterlimit="10" stroke-width="2.064"/>
          <line id="Línea_145" data-name="Línea 145" y1="21.099" x2="12.97" transform="translate(54.282 10.31)" fill="none" stroke="#00223d" stroke-miterlimit="10" stroke-width="2.477"/>
          <line id="Línea_146" data-name="Línea 146" x2="22.626" y2="0.314" transform="translate(63.998 42.386)" fill="none" stroke="#00223d" stroke-miterlimit="10" stroke-width="2.233"/>
          <line id="Línea_147" data-name="Línea 147" x1="11.28" y1="16.657" transform="translate(28.642 14.591)" fill="none" stroke="#00223d" stroke-miterlimit="10" stroke-width="2.708"/>
          <path id="Trazado_16146" data-name="Trazado 16146" d="M1605.028,2281.8a6.345,6.345,0,1,0,3.123-8.555A6.442,6.442,0,0,0,1605.028,2281.8Z" transform="translate(-1585.659 -2201.999)" fill="#aee6e6" stroke="#00223d" stroke-miterlimit="10" stroke-width="2.058"/>
        </g>
      </g>
    </g>
    <path id="Trazado_16147" data-name="Trazado 16147" d="M1615.858,2369.582h49.284c1.08,0,2.048-1,2.428-2.5l3.467-13.7c.844-3.342,4.024-3.332,4.859.017l6.878,27.582c.869,3.487,4.222,3.308,4.923-.262l6.6-33.686c.682-3.481,3.922-3.768,4.877-.432l6.241,21.808c.408,1.423,1.347,2.347,2.387,2.347h39.1" transform="translate(-43.801 16.675)" fill="none" stroke="#00223d" stroke-linecap="round" stroke-miterlimit="10" stroke-width="5.124"/>
    <path id="Trazado_16148" data-name="Trazado 16148" d="M1741.375,2372.387h0a4.924,4.924,0,0,0,4.909-4.908h0a4.923,4.923,0,0,0-4.909-4.909h0a4.922,4.922,0,0,0-4.909,4.909h0A4.923,4.923,0,0,0,1741.375,2372.387Z" transform="translate(-24.087 19.669)" fill="#00223d"/>
    <g id="Grupo_12249" data-name="Grupo 12249" transform="translate(1524.439 2188.043)">
      <g id="Grupo_12247" data-name="Grupo 12247" transform="translate(9.209 8.639)">
        <path id="Trazado_16149" data-name="Trazado 16149" d="M1656.005,2407.806c-11.754-.317-11.274-18.114-23.028-18.431s-12.235,17.48-23.99,17.162-11.276-18.114-23.033-18.431-12.237,17.479-23.992,17.162" transform="translate(-1561.961 -2388.102)" fill="none" stroke="#00223d" stroke-linecap="round" stroke-miterlimit="10" stroke-width="2.664"/>
      </g>
      <g id="Grupo_12248" data-name="Grupo 12248" transform="translate(9.841 6.266)">
        <path id="Trazado_16150" data-name="Trazado 16150" d="M1562.5,2386.063c11.754.317,11.274,18.114,23.028,18.431s12.235-17.479,23.99-17.162,11.276,18.113,23.033,18.431,12.237-17.48,23.994-17.163" transform="translate(-1562.504 -2386.063)" fill="none" stroke="#00223d" stroke-linecap="round" stroke-miterlimit="10" stroke-width="2.664"/>
      </g>
      <ellipse id="Elipse_628" data-name="Elipse 628" cx="4.392" cy="3.723" rx="4.392" ry="3.723" transform="matrix(0.243, -0.97, 0.97, 0.243, 101.398, 33.375)" fill="#e36099" stroke="#00223d" stroke-miterlimit="10" stroke-width="1.54"/>
      <path id="Trazado_16151" data-name="Trazado 16151" d="M1564.265,2385.133c-.21,2.405-2.058,4.31-4.127,4.254s-3.578-2.05-3.367-4.455,2.057-4.31,4.127-4.254S1564.474,2382.729,1564.265,2385.133Z" transform="translate(-1553.603 -2380.677)" fill="#e36099" stroke="#00223d" stroke-miterlimit="10" stroke-width="1.54"/>
      <circle id="Elipse_629" data-name="Elipse 629" cx="4.48" cy="4.48" r="4.48" transform="translate(0 22.75)" fill="#e36099" stroke="#00223d" stroke-miterlimit="10" stroke-width="1.736"/>
      <circle id="Elipse_630" data-name="Elipse 630" cx="4.48" cy="4.48" r="4.48" transform="translate(100.821 8.249) rotate(-49.027)" fill="#e36099" stroke="#00223d" stroke-miterlimit="10" stroke-width="1.736"/>
    </g>
    <path id="Trazado_16152" data-name="Trazado 16152" d="M1691.242,2334.661a5.814,5.814,0,0,1-3.819-1.581l-18.757-17.381a3.751,3.751,0,0,1,.413-5.983,5.92,5.92,0,0,1,7.223.317l14.688,13.53,30.521-32.037a5.888,5.888,0,0,1,7.183-.722,3.728,3.728,0,0,1,.871,5.9l-34.3,36.167a5.527,5.527,0,0,1-3.864,1.786Z" transform="translate(-35.381 7.792)" fill="#f5ca56" stroke="#00223d" stroke-miterlimit="10" stroke-width="3.438"/>
  </g>
</svg>
