<svg xmlns="http://www.w3.org/2000/svg" xmlns:xlink="http://www.w3.org/1999/xlink" width="444" height="252.491" viewBox="0 0 444 252.491">
  <defs>
    <clipPath id="clip-path">
      <rect id="Background" width="444" height="251.767" rx="10" transform="translate(0)" fill="#aee6e6"/>
    </clipPath>
    <clipPath id="clip-path-2">
      <path id="Trazado_878422" data-name="Trazado 878422" d="M0,0,29.6.291l.564,103.266-29.6-.291Z" transform="translate(74.867 93.053) rotate(152.705)" fill="none" stroke="#7d6eb2" stroke-width="1"/>
    </clipPath>
  </defs>
  <g id="Grupo_1101512" data-name="Grupo 1101512" transform="translate(-1020 -5555)">
    <rect id="Rectángulo_401035" data-name="Rectángulo 401035" width="443.802" height="252.467" rx="14" transform="translate(1020 5555.024)" fill="#7d6eb2" opacity="0.2"/>
    <g id="Enmascarar_grupo_1098715" data-name="Enmascarar grupo 1098715" transform="translate(1020 5555)" clip-path="url(#clip-path)">
      <g id="Grupo_1100832" data-name="Grupo 1100832" transform="translate(-24.143 -4.185)">
        <g id="Grupo_1100826" data-name="Grupo 1100826" transform="matrix(0.469, -0.883, 0.883, 0.469, 41.72, 246.209)">
          <g id="Enmascarar_grupo_1098714" data-name="Enmascarar grupo 1098714" transform="translate(0 0)" clip-path="url(#clip-path-2)">
            <g id="Grupo_1100825" data-name="Grupo 1100825" transform="translate(-18.51 4.01)">
              <path id="Trazado_878415" data-name="Trazado 878415" d="M25.035.628C40.65,2.969,55.207,26.576,57.548,53.357s-8.42,46.592-24.035,44.251S3.341,71.659,1,44.879,9.42-1.714,25.035.628Z" transform="translate(0.675 17.463) rotate(-16.624)" fill="none" stroke="#7d6eb2" stroke-width="2"/>
              <path id="Trazado_878416" data-name="Trazado 878416" d="M46.112-1.094c21.064-4.92,34.151,4.606,29.231,21.276S49.359,54.355,28.3,59.275-5.855,54.669-.935,38,25.048,3.826,46.112-1.094Z" transform="translate(10.573 90.696) rotate(-85.029)" fill="none" stroke="#7d6eb2" stroke-width="2"/>
              <path id="Trazado_878417" data-name="Trazado 878417" d="M39.841-.967c17.984-4.495,28.92,4.093,24.425,19.18s-22.718,30.963-40.7,35.457S-5.356,49.578-.861,34.49,21.856,3.528,39.841-.967Z" transform="matrix(0.14, -0.99, 0.99, 0.14, 12.236, 83.842)" fill="none" stroke="#7d6eb2" stroke-width="2"/>
              <path id="Trazado_878418" data-name="Trazado 878418" d="M17.053,1.155C28.99,4.518,41.393,20.6,44.756,37.073s-3.587,27.1-15.524,23.739S4.892,41.368,1.529,24.894,5.116-2.208,17.053,1.155Z" transform="translate(19.634 25.169)" fill="none" stroke="#7d6eb2" stroke-width="2"/>
              <path id="Trazado_878419" data-name="Trazado 878419" d="M13.874.73C23.283,3.058,32.8,16.57,35.126,30.91S31.713,54.988,22.3,52.66,3.382,36.82,1.054,22.48,4.466-1.6,13.874.73Z" transform="translate(21.858 31.612) rotate(-6.323)" fill="none" stroke="#7d6eb2" stroke-width="2"/>
              <path id="Trazado_875241" data-name="Trazado 875241" d="M17.641-.408C25.517-2.564,30.154,4.776,28,15.987S17.71,38.034,9.834,40.19-2.679,35-.523,23.794,9.765,1.747,17.641-.408Z" transform="translate(18.609 55.634) rotate(-54.14)" fill="none" stroke="#7d6eb2" stroke-width="2"/>
              <path id="Trazado_878420" data-name="Trazado 878420" d="M14.421-.354c6.333-1.862,9.957,3.188,8.094,11.281S14.01,27.09,7.677,28.952-2.279,25.764-.417,17.671,8.089,1.509,14.421-.354Z" transform="matrix(0.495, -0.869, 0.869, 0.495, 24.884, 58.683)" fill="none" stroke="#7d6eb2" stroke-width="2"/>
              <path id="Trazado_878421" data-name="Trazado 878421" d="M5.905.088c3.532.35,6.68,5.686,7.031,11.917S10.707,23,7.174,22.653.494,16.967.144,10.736,2.373-.262,5.905.088Z" transform="translate(32.638 47.831) rotate(-20.72)" fill="none" stroke="#7d6eb2" stroke-width="2"/>
              <path id="Trazado_875242" data-name="Trazado 875242" d="M1.208,7.049C-.312,4.143-.225,1.123,1.4.3s4.18.871,5.7,3.777,1.432,5.926-.2,6.746S2.727,9.955,1.208,7.049Z" transform="translate(38.622 50.588)" fill="none" stroke="#7d6eb2" stroke-miterlimit="10" stroke-width="2"/>
            </g>
          </g>
        </g>
        <g id="Grupo_1100831" data-name="Grupo 1100831" transform="translate(389.81 13.636)">
          <g id="Grupo_1100827" data-name="Grupo 1100827" transform="translate(0 0)">
            <path id="Trazado_875243" data-name="Trazado 875243" d="M640.186,391.326c4.212,0,4.212,1.4,8.423,1.4s4.212-1.4,8.423-1.4,4.21,1.4,8.421,1.4,4.211-1.4,8.423-1.4,4.212,1.4,8.424,1.4,4.212-1.4,8.423-1.4,4.212,1.4,8.423,1.4,4.212-1.4,8.424-1.4,4.213,1.4,8.425,1.4,4.212-1.4,8.424-1.4,4.212,1.4,8.424,1.4,4.213-1.4,8.425-1.4,4.211,1.4,8.422,1.4,4.212-1.4,8.424-1.4,4.213,1.4,8.427,1.4,4.212-1.4,8.424-1.4,4.215,1.4,8.431,1.4,4.215-1.4,8.43-1.4" transform="translate(-640.186 -391.326)" fill="none" stroke="#26aab7" stroke-miterlimit="10" stroke-width="2"/>
          </g>
          <g id="Grupo_1100828" data-name="Grupo 1100828" transform="translate(0 6.051)">
            <path id="Trazado_875244" data-name="Trazado 875244" d="M640.186,408.556c4.212,0,4.212,1.4,8.423,1.4s4.212-1.4,8.423-1.4,4.21,1.4,8.421,1.4,4.211-1.4,8.423-1.4,4.212,1.4,8.424,1.4,4.212-1.4,8.423-1.4,4.212,1.4,8.423,1.4,4.212-1.4,8.424-1.4,4.213,1.4,8.425,1.4,4.212-1.4,8.424-1.4,4.212,1.4,8.424,1.4,4.213-1.4,8.425-1.4,4.211,1.4,8.422,1.4,4.212-1.4,8.424-1.4,4.213,1.4,8.427,1.4,4.212-1.4,8.424-1.4,4.215,1.4,8.431,1.4,4.215-1.4,8.43-1.4" transform="translate(-640.186 -408.556)" fill="none" stroke="#26aab7" stroke-miterlimit="10" stroke-width="2"/>
          </g>
          <g id="Grupo_1100829" data-name="Grupo 1100829" transform="translate(0 12.103)">
            <path id="Trazado_875245" data-name="Trazado 875245" d="M640.186,425.786c4.212,0,4.212,1.4,8.423,1.4s4.212-1.4,8.423-1.4,4.21,1.4,8.421,1.4,4.211-1.4,8.423-1.4,4.212,1.4,8.424,1.4,4.212-1.4,8.423-1.4,4.212,1.4,8.423,1.4,4.212-1.4,8.424-1.4,4.213,1.4,8.425,1.4,4.212-1.4,8.424-1.4,4.212,1.4,8.424,1.4,4.213-1.4,8.425-1.4,4.211,1.4,8.422,1.4,4.212-1.4,8.424-1.4,4.213,1.4,8.427,1.4,4.212-1.4,8.424-1.4,4.215,1.4,8.431,1.4,4.215-1.4,8.43-1.4" transform="translate(-640.186 -425.786)" fill="none" stroke="#26aab7" stroke-miterlimit="10" stroke-width="2"/>
          </g>
          <g id="Grupo_1100830" data-name="Grupo 1100830" transform="translate(0 18.154)">
            <path id="Trazado_875246" data-name="Trazado 875246" d="M640.186,443.016c4.212,0,4.212,1.4,8.423,1.4s4.212-1.4,8.423-1.4,4.21,1.4,8.421,1.4,4.211-1.4,8.423-1.4,4.212,1.4,8.424,1.4,4.212-1.4,8.423-1.4,4.212,1.4,8.423,1.4,4.212-1.4,8.424-1.4,4.213,1.4,8.425,1.4,4.212-1.4,8.424-1.4,4.212,1.4,8.424,1.4,4.213-1.4,8.425-1.4,4.211,1.4,8.422,1.4,4.212-1.4,8.424-1.4,4.213,1.4,8.427,1.4,4.212-1.4,8.424-1.4,4.215,1.4,8.431,1.4,4.215-1.4,8.43-1.4" transform="translate(-640.186 -443.016)" fill="none" stroke="#26aab7" stroke-miterlimit="10" stroke-width="2"/>
          </g>
        </g>
        <path id="Shape_2" data-name="Shape 2" d="M134.557,0V41.46H0c.909-.249,1.85-.464,2.808-.64,5.017-.925,10.554-1.153,15.4-2.294a29.459,29.459,0,0,0,11.737-5.444c2.992-2.353,5.463-4.816,10.074-6.6,5.067-1.963,11.61-2.923,17.981-3.555a43.515,43.515,0,0,0,16.3-4.519c2.389-1.313,4.234-2.821,6.579-4.151A27.226,27.226,0,0,1,91.9,11.134c3.869-.361,8.319-.415,11.566-1.587a6.026,6.026,0,0,0,3.813-3.364C108.257,4,108.2,1.121,112.855,0Z" transform="translate(134.557 41.46) rotate(180)" fill="#7d6eb2"/>
      </g>
    </g>
  </g>
</svg>
