<svg xmlns="http://www.w3.org/2000/svg" xmlns:xlink="http://www.w3.org/1999/xlink" width="679" height="528" viewBox="0 0 679 528">
  <defs>
    <clipPath id="clip-path">
      <rect id="Rect치ngulo_401905" data-name="Rect치ngulo 401905" width="679" height="528" rx="20" fill="#aee6e6"/>
    </clipPath>
    <clipPath id="clip-path-2">
      <path id="Trazado_878422" data-name="Trazado 878422" d="M.311.145,39.377-.044,39.01,45.847l-39.067.189Z" transform="translate(55.352 39.616) rotate(152.705)" fill="none" stroke="#7d6eb2" stroke-width="1"/>
    </clipPath>
  </defs>
  <g id="Grupo_1101510" data-name="Grupo 1101510" transform="translate(-600 -3764.616)">
    <rect id="Rect치ngulo_33940" data-name="Rect치ngulo 33940" width="679" height="528" rx="20" transform="translate(600 3764.616)" fill="#7d6eb2" opacity="0.1"/>
    <g id="Enmascarar_grupo_1098711" data-name="Enmascarar grupo 1098711" transform="translate(600 3764.616)" clip-path="url(#clip-path)">
      <g id="Grupo_1100806" data-name="Grupo 1100806" transform="translate(-16.693 -6.365)">
        <g id="Grupo_1100800" data-name="Grupo 1100800" transform="matrix(0.469, -0.883, 0.883, 0.469, 18.796, 500.362)">
          <g id="Grupo_1100799" data-name="Grupo 1100799" transform="translate(0 0)" clip-path="url(#clip-path-2)">
            <g id="Grupo_1100798" data-name="Grupo 1100798" transform="translate(-29.349 7.091)">
              <path id="Trazado_878415" data-name="Trazado 878415" d="M38.006-.569C57.692-2.093,72.415,6.735,70.89,19.15s-18.719,23.715-38.4,25.24S-1.923,37.086-.4,24.671,18.32.956,38.006-.569Z" transform="translate(-0.773 19.034) rotate(-16.624)" fill="none" stroke="#7d6eb2" stroke-width="2"/>
              <path id="Trazado_878416" data-name="Trazado 878416" d="M18.953,1.246C31.808,4.45,44.826,19.788,48.03,35.5S43.41,61.363,30.555,58.159,4.681,39.618,1.478,23.9,6.1-1.958,18.953,1.246Z" transform="translate(7.532 52.033) rotate(-85.029)" fill="none" stroke="#7d6eb2" stroke-width="2"/>
              <path id="Trazado_878417" data-name="Trazado 878417" d="M17,1.173C28.574,4.1,40.332,17.388,43.259,30.851S39.174,52.857,27.6,49.93,4.26,33.716,1.333,20.252,5.419-1.754,17,1.173Z" transform="matrix(0.14, -0.99, 0.99, 0.14, 10.839, 48.434)" fill="none" stroke="#7d6eb2" stroke-width="2"/>
              <path id="Trazado_878418" data-name="Trazado 878418" d="M25.547-.692C37.78-2.882,45.921,2.864,43.731,12.143S29.849,30.718,17.616,32.909-2.759,29.352-.569,20.074,13.314,1.5,25.547-.692Z" transform="translate(17.686 13.837)" fill="none" stroke="#7d6eb2" stroke-width="2"/>
              <path id="Trazado_878419" data-name="Trazado 878419" d="M21.541-.509C32.138-2.025,39.5,2.733,37.983,10.119S26.648,24.72,16.052,26.236-1.906,22.994-.39,15.609,10.945,1.007,21.541-.509Z" transform="translate(19.169 19.23) rotate(-6.323)" fill="none" stroke="#7d6eb2" stroke-width="2"/>
              <path id="Trazado_875143" data-name="Trazado 875143" d="M13.017.657c8.312,1.4,16.188,7.52,17.592,13.66s-4.2,9.98-12.508,8.576S1.913,15.373.509,9.233,4.7-.747,13.017.657Z" transform="translate(20.61 35.657) rotate(-54.14)" fill="none" stroke="#7d6eb2" stroke-width="2"/>
              <path id="Trazado_878420" data-name="Trazado 878420" d="M9.2.56c6.034,1.213,11.909,6.159,13.122,11.047s-2.7,7.868-8.73,6.655S1.682,12.1.469,7.215,3.165-.652,9.2.56Z" transform="matrix(0.495, -0.869, 0.869, 0.495, 25.452, 35.194)" fill="none" stroke="#7d6eb2" stroke-width="2"/>
              <path id="Trazado_878421" data-name="Trazado 878421" d="M8.636-.089c4.575-.228,8.1,1.871,7.871,4.689s-4.122,5.287-8.7,5.515S-.289,8.244-.061,5.426,4.061.139,8.636-.089Z" transform="translate(29.803 28.166) rotate(-20.72)" fill="none" stroke="#7d6eb2" stroke-width="2"/>
              <path id="Trazado_875144" data-name="Trazado 875144" d="M.015,4.908c-.658-1.3.537-3.257,2.67-4.371S7.079-.424,7.737.876,7.2,4.133,5.067,5.246.672,6.209.015,4.908Z" transform="translate(35.392 27.054)" fill="none" stroke="#7d6eb2" stroke-miterlimit="10" stroke-width="2"/>
            </g>
          </g>
        </g>
        <g id="Grupo_1100805" data-name="Grupo 1100805" transform="translate(648.875 16.774)">
          <g id="Grupo_1100801" data-name="Grupo 1100801" transform="translate(0 0)">
            <path id="Trazado_875145" data-name="Trazado 875145" d="M640.186,391.326c1.907,0,1.907,1.89,3.813,1.89s1.907-1.89,3.813-1.89,1.906,1.89,3.812,1.89,1.906-1.89,3.813-1.89,1.907,1.89,3.814,1.89,1.907-1.89,3.813-1.89,1.907,1.89,3.813,1.89,1.907-1.89,3.814-1.89,1.907,1.89,3.814,1.89,1.907-1.89,3.814-1.89,1.907,1.89,3.814,1.89,1.907-1.89,3.814-1.89,1.906,1.89,3.813,1.89,1.907-1.89,3.814-1.89,1.908,1.89,3.815,1.89,1.907-1.89,3.814-1.89,1.908,1.89,3.817,1.89,1.908-1.89,3.816-1.89" transform="translate(-640.186 -391.326)" fill="none" stroke="#26aab7" stroke-miterlimit="10" stroke-width="2"/>
          </g>
          <g id="Grupo_1100802" data-name="Grupo 1100802" transform="translate(0 8.14)">
            <path id="Trazado_875146" data-name="Trazado 875146" d="M640.186,408.556c1.907,0,1.907,1.89,3.813,1.89s1.907-1.89,3.813-1.89,1.906,1.89,3.812,1.89,1.906-1.89,3.813-1.89,1.907,1.89,3.814,1.89,1.907-1.89,3.813-1.89,1.907,1.89,3.813,1.89,1.907-1.89,3.814-1.89,1.907,1.89,3.814,1.89,1.907-1.89,3.814-1.89,1.907,1.89,3.814,1.89,1.907-1.89,3.814-1.89,1.906,1.89,3.813,1.89,1.907-1.89,3.814-1.89,1.908,1.89,3.815,1.89,1.907-1.89,3.814-1.89,1.908,1.89,3.817,1.89,1.908-1.89,3.816-1.89" transform="translate(-640.186 -408.556)" fill="none" stroke="#26aab7" stroke-miterlimit="10" stroke-width="2"/>
          </g>
          <g id="Grupo_1100803" data-name="Grupo 1100803" transform="translate(0 16.279)">
            <path id="Trazado_875147" data-name="Trazado 875147" d="M640.186,425.786c1.907,0,1.907,1.89,3.813,1.89s1.907-1.89,3.813-1.89,1.906,1.89,3.812,1.89,1.906-1.89,3.813-1.89,1.907,1.89,3.814,1.89,1.907-1.89,3.813-1.89,1.907,1.89,3.813,1.89,1.907-1.89,3.814-1.89,1.907,1.89,3.814,1.89,1.907-1.89,3.814-1.89,1.907,1.89,3.814,1.89,1.907-1.89,3.814-1.89,1.906,1.89,3.813,1.89,1.907-1.89,3.814-1.89,1.908,1.89,3.815,1.89,1.907-1.89,3.814-1.89,1.908,1.89,3.817,1.89,1.908-1.89,3.816-1.89" transform="translate(-640.186 -425.786)" fill="none" stroke="#26aab7" stroke-miterlimit="10" stroke-width="2"/>
          </g>
          <g id="Grupo_1100804" data-name="Grupo 1100804" transform="translate(0 24.419)">
            <path id="Trazado_875148" data-name="Trazado 875148" d="M640.186,443.016c1.907,0,1.907,1.89,3.813,1.89s1.907-1.89,3.813-1.89,1.906,1.89,3.812,1.89,1.906-1.89,3.813-1.89,1.907,1.89,3.814,1.89,1.907-1.89,3.813-1.89,1.907,1.89,3.813,1.89,1.907-1.89,3.814-1.89,1.907,1.89,3.814,1.89,1.907-1.89,3.814-1.89,1.907,1.89,3.814,1.89,1.907-1.89,3.814-1.89,1.906,1.89,3.813,1.89,1.907-1.89,3.814-1.89,1.908,1.89,3.815,1.89,1.907-1.89,3.814-1.89,1.908,1.89,3.817,1.89,1.908-1.89,3.816-1.89" transform="translate(-640.186 -443.016)" fill="none" stroke="#26aab7" stroke-miterlimit="10" stroke-width="2"/>
          </g>
        </g>
        <path id="Trazado_875149" data-name="Trazado 875149" d="M42.5,124.929c-.329,0-4.439-.44-4.439-.983s.266-.983.6-.983.6.44.6.983S42.824,124.929,42.5,124.929Zm-3.844-4.245c-.329,0-.6-.44-.6-.983s.266-.983.6-.983.6.44.6.983S38.98,120.683,38.651,120.683Zm0-4.245c-.329,0-.6-.44-.6-.983s.266-.983.6-.983.6.44.6.983S38.98,116.438,38.651,116.438Zm0-4.245c-.329,0-.6-.44-.6-.983s.266-.983.6-.983.6.44.6.983S38.98,112.193,38.651,112.193Zm0-4.245c-.329,0-.6-.44-.6-.983s.266-.983.6-.983.6.44.6.983S38.98,107.947,38.651,107.947Zm0-4.245c-.329,0-.6-.44-.6-.983s.266-.983.6-.983.6.44.6.983S38.98,103.7,38.651,103.7Zm0-4.245c-.329,0-.6-.44-.6-.983s.266-.983.6-.983.6.44.6.983S38.98,99.457,38.651,99.457Zm0-4.245c-.329,0-.6-.44-.6-.983s.266-.983.6-.983.6.44.6.983S38.98,95.211,38.651,95.211Zm2.571,42.454c-.329,0-.6-.44-.6-.983s.266-.983.6-.983.6.44.6.983S41.551,137.665,41.222,137.665Zm0-4.245c-.329,0-.6-.44-.6-.983s.266-.983.6-.983.6.44.6.983S41.551,133.419,41.222,133.419Zm0-4.245c-.329,0-.6-.44-.6-.983s.266-.983.6-.983.6.44.6.983S41.551,129.174,41.222,129.174Zm0-4.245c-.329,0-.6-.44-.6-.983s.266-.983.6-.983.6.44.6.983S41.551,124.929,41.222,124.929Zm0-4.245c-.329,0-.6-.44-.6-.983s.266-.983.6-.983.6.44.6.983S41.551,120.683,41.222,120.683Zm0-4.245c-.329,0-.6-.44-.6-.983s.266-.983.6-.983.6.44.6.983S41.551,116.438,41.222,116.438Zm0-4.245c-.329,0-.6-.44-.6-.983s.266-.983.6-.983.6.44.6.983S41.551,112.193,41.222,112.193Zm0-4.245c-.329,0-.6-.44-.6-.983s.266-.983.6-.983.6.44.6.983S41.551,107.947,41.222,107.947Zm0-4.245c-.329,0-.6-.44-.6-.983s.266-.983.6-.983.6.44.6.983S41.551,103.7,41.222,103.7Zm0-4.245c-.329,0-.6-.44-.6-.983s.266-.983.6-.983.6.44.6.983S41.551,99.457,41.222,99.457Zm0-4.245c-.329,0-.6-.44-.6-.983s.266-.983.6-.983.6.44.6.983S41.551,95.211,41.222,95.211Zm0-4.245c-.329,0-.6-.44-.6-.983s.266-.983.6-.983.6.44.6.983S41.551,90.966,41.222,90.966Zm0-4.245c-.329,0-.6-.44-.6-.983s.266-.983.6-.983.6.44.6.983S41.551,86.72,41.222,86.72Zm0-4.245c-.329,0-.6-.44-.6-.983s.266-.983.6-.983.6.44.6.983S41.551,82.475,41.222,82.475Zm2.571,63.681c-.329,0-.6-.44-.6-.983s.266-.983.6-.983.6.44.6.983S44.122,146.156,43.793,146.156Zm0-4.245c-.329,0-.6-.44-.6-.983s.266-.983.6-.983.6.44.6.983S44.122,141.91,43.793,141.91Zm0-4.245c-.329,0-.6-.44-.6-.983s.266-.983.6-.983.6.44.6.983S44.122,137.665,43.793,137.665Zm0-4.245c-.329,0-.6-.44-.6-.983s.266-.983.6-.983.6.44.6.983S44.122,133.419,43.793,133.419Zm0-4.245c-.329,0-.6-.44-.6-.983s.266-.983.6-.983.6.44.6.983S44.122,129.174,43.793,129.174Zm0-4.245c-.329,0-.6-.44-.6-.983s.266-.983.6-.983.6.44.6.983S44.122,124.929,43.793,124.929Zm0-4.245c-.329,0-.6-.44-.6-.983s.266-.983.6-.983.6.44.6.983S44.122,120.683,43.793,120.683Zm0-4.245c-.329,0-.6-.44-.6-.983s.266-.983.6-.983.6.44.6.983S44.122,116.438,43.793,116.438Zm0-4.245c-.329,0-.6-.44-.6-.983s.266-.983.6-.983.6.44.6.983S44.122,112.193,43.793,112.193Zm0-4.245c-.329,0-.6-.44-.6-.983s.266-.983.6-.983.6.44.6.983S44.122,107.947,43.793,107.947Zm0-4.245c-.329,0-.6-.44-.6-.983s.266-.983.6-.983.6.44.6.983S44.122,103.7,43.793,103.7Zm0-4.245c-.329,0-.6-.44-.6-.983s.266-.983.6-.983.6.44.6.983S44.122,99.457,43.793,99.457Zm0-4.245c-.329,0-.6-.44-.6-.983s.266-.983.6-.983.6.44.6.983S44.122,95.211,43.793,95.211Zm0-4.245c-.329,0-.6-.44-.6-.983s.266-.983.6-.983.6.44.6.983S44.122,90.966,43.793,90.966Zm0-4.245c-.329,0-.6-.44-.6-.983s.266-.983.6-.983.6.44.6.983S44.122,86.72,43.793,86.72Zm0-4.245c-.329,0-.6-.44-.6-.983s.266-.983.6-.983.6.44.6.983S44.122,82.475,43.793,82.475Zm0-4.245c-.329,0-.6-.44-.6-.983s.266-.983.6-.983.6.44.6.983S44.122,78.23,43.793,78.23Zm0-4.245c-.329,0-.6-.44-.6-.983s.266-.983.6-.983.6.44.6.983S44.122,73.984,43.793,73.984ZM46.365,150.4c-.329,0-.6-.44-.6-.983s.266-.983.6-.983.6.44.6.983S46.693,150.4,46.365,150.4Zm0-4.245c-.329,0-.6-.44-.6-.983s.266-.983.6-.983.6.44.6.983S46.693,146.156,46.365,146.156Zm0-4.245c-.329,0-.6-.44-.6-.983s.266-.983.6-.983.6.44.6.983S46.693,141.91,46.365,141.91Zm0-4.245c-.329,0-.6-.44-.6-.983s.266-.983.6-.983.6.44.6.983S46.693,137.665,46.365,137.665Zm0-4.245c-.329,0-.6-.44-.6-.983s.266-.983.6-.983.6.44.6.983S46.693,133.419,46.365,133.419Zm0-4.245c-.329,0-.6-.44-.6-.983s.266-.983.6-.983.6.44.6.983S46.693,129.174,46.365,129.174Zm0-4.245c-.329,0-.6-.44-.6-.983s.266-.983.6-.983.6.44.6.983S46.693,124.929,46.365,124.929Zm0-4.245c-.329,0-.6-.44-.6-.983s.266-.983.6-.983.6.44.6.983S46.693,120.683,46.365,120.683Zm0-4.245c-.329,0-.6-.44-.6-.983s.266-.983.6-.983.6.44.6.983S46.693,116.438,46.365,116.438Zm0-4.245c-.329,0-.6-.44-.6-.983s.266-.983.6-.983.6.44.6.983S46.693,112.193,46.365,112.193Zm0-4.245c-.329,0-.6-.44-.6-.983s.266-.983.6-.983.6.44.6.983S46.693,107.947,46.365,107.947Zm0-4.245c-.329,0-.6-.44-.6-.983s.266-.983.6-.983.6.44.6.983S46.693,103.7,46.365,103.7Zm0-4.245c-.329,0-.6-.44-.6-.983s.266-.983.6-.983.6.44.6.983S46.693,99.457,46.365,99.457Zm0-4.245c-.329,0-.6-.44-.6-.983s.266-.983.6-.983.6.44.6.983S46.693,95.211,46.365,95.211Zm0-4.245c-.329,0-.6-.44-.6-.983s.266-.983.6-.983.6.44.6.983S46.693,90.966,46.365,90.966Zm0-4.245c-.329,0-.6-.44-.6-.983s.266-.983.6-.983.6.44.6.983S46.693,86.72,46.365,86.72Zm0-4.245c-.329,0-.6-.44-.6-.983s.266-.983.6-.983.6.44.6.983S46.693,82.475,46.365,82.475Zm0-4.245c-.329,0-.6-.44-.6-.983s.266-.983.6-.983.6.44.6.983S46.693,78.23,46.365,78.23Zm0-4.245c-.329,0-.6-.44-.6-.983s.266-.983.6-.983.6.44.6.983S46.693,73.984,46.365,73.984Zm0-4.245c-.329,0-.6-.44-.6-.983s.266-.983.6-.983.6.44.6.983S46.693,69.739,46.365,69.739Zm2.571,89.153c-.329,0-.6-.44-.6-.983s.266-.983.6-.983.6.44.6.983S49.265,158.892,48.936,158.892Zm0-4.245c-.329,0-.6-.44-.6-.983s.266-.983.6-.983.6.44.6.983S49.265,154.646,48.936,154.646Zm0-4.245c-.329,0-.6-.44-.6-.983s.266-.983.6-.983.6.44.6.983S49.265,150.4,48.936,150.4Zm0-4.245c-.329,0-.6-.44-.6-.983s.266-.983.6-.983.6.44.6.983S49.265,146.156,48.936,146.156Zm0-4.245c-.329,0-.6-.44-.6-.983s.266-.983.6-.983.6.44.6.983S49.265,141.91,48.936,141.91Zm0-4.245c-.329,0-.6-.44-.6-.983s.266-.983.6-.983.6.44.6.983S49.265,137.665,48.936,137.665Zm0-4.245c-.329,0-.6-.44-.6-.983s.266-.983.6-.983.6.44.6.983S49.265,133.419,48.936,133.419Zm0-4.245c-.329,0-.6-.44-.6-.983s.266-.983.6-.983.6.44.6.983S49.265,129.174,48.936,129.174Zm0-4.245c-.329,0-.6-.44-.6-.983s.266-.983.6-.983.6.44.6.983S49.265,124.929,48.936,124.929Zm0-4.245c-.329,0-.6-.44-.6-.983s.266-.983.6-.983.6.44.6.983S49.265,120.683,48.936,120.683Zm0-4.245c-.329,0-.6-.44-.6-.983s.266-.983.6-.983.6.44.6.983S49.265,116.438,48.936,116.438Zm0-4.245c-.329,0-.6-.44-.6-.983s.266-.983.6-.983.6.44.6.983S49.265,112.193,48.936,112.193Zm0-4.245c-.329,0-.6-.44-.6-.983s.266-.983.6-.983.6.44.6.983S49.265,107.947,48.936,107.947Zm0-4.245c-.329,0-.6-.44-.6-.983s.266-.983.6-.983.6.44.6.983S49.265,103.7,48.936,103.7Zm0-4.245c-.329,0-.6-.44-.6-.983s.266-.983.6-.983.6.44.6.983S49.265,99.457,48.936,99.457Zm0-4.245c-.329,0-.6-.44-.6-.983s.266-.983.6-.983.6.44.6.983S49.265,95.211,48.936,95.211Zm0-4.245c-.329,0-.6-.44-.6-.983s.266-.983.6-.983.6.44.6.983S49.265,90.966,48.936,90.966Zm0-4.245c-.329,0-.6-.44-.6-.983s.266-.983.6-.983.6.44.6.983S49.265,86.72,48.936,86.72Zm0-4.245c-.329,0-.6-.44-.6-.983s.266-.983.6-.983.6.44.6.983S49.265,82.475,48.936,82.475Zm0-4.245c-.329,0-.6-.44-.6-.983s.266-.983.6-.983.6.44.6.983S49.265,78.23,48.936,78.23Zm0-4.245c-.329,0-.6-.44-.6-.983s.266-.983.6-.983.6.44.6.983S49.265,73.984,48.936,73.984Zm0-4.245c-.329,0-.6-.44-.6-.983s.266-.983.6-.983.6.44.6.983S49.265,69.739,48.936,69.739Zm0-4.245c-.329,0-.6-.44-.6-.983s.266-.983.6-.983.6.44.6.983S49.265,65.494,48.936,65.494Zm0-4.245c-.329,0-.6-.44-.6-.983s.266-.983.6-.983.6.44.6.983S49.265,61.248,48.936,61.248Zm2.571,101.889c-.329,0-.6-.44-.6-.983s.266-.983.6-.983.6.44.6.983S51.836,163.137,51.507,163.137Zm0-4.245c-.329,0-.6-.44-.6-.983s.266-.983.6-.983.6.44.6.983S51.836,158.892,51.507,158.892Zm0-4.245c-.329,0-.6-.44-.6-.983s.266-.983.6-.983.6.44.6.983S51.836,154.646,51.507,154.646Zm0-4.245c-.329,0-.6-.44-.6-.983s.266-.983.6-.983.6.44.6.983S51.836,150.4,51.507,150.4Zm0-4.245c-.329,0-.6-.44-.6-.983s.266-.983.6-.983.6.44.6.983S51.836,146.156,51.507,146.156Zm0-4.245c-.329,0-.6-.44-.6-.983s.266-.983.6-.983.6.44.6.983S51.836,141.91,51.507,141.91Zm0-4.245c-.329,0-.6-.44-.6-.983s.266-.983.6-.983.6.44.6.983S51.836,137.665,51.507,137.665Zm0-4.245c-.329,0-.6-.44-.6-.983s.266-.983.6-.983.6.44.6.983S51.836,133.419,51.507,133.419Zm0-4.245c-.329,0-.6-.44-.6-.983s.266-.983.6-.983.6.44.6.983S51.836,129.174,51.507,129.174Zm0-4.245c-.329,0-.6-.44-.6-.983s.266-.983.6-.983.6.44.6.983S51.836,124.929,51.507,124.929Zm0-4.245c-.329,0-.6-.44-.6-.983s.266-.983.6-.983.6.44.6.983S51.836,120.683,51.507,120.683Zm0-4.245c-.329,0-.6-.44-.6-.983s.266-.983.6-.983.6.44.6.983S51.836,116.438,51.507,116.438Zm0-4.245c-.329,0-.6-.44-.6-.983s.266-.983.6-.983.6.44.6.983S51.836,112.193,51.507,112.193Zm0-4.245c-.329,0-.6-.44-.6-.983s.266-.983.6-.983.6.44.6.983S51.836,107.947,51.507,107.947Zm0-4.245c-.329,0-.6-.44-.6-.983s.266-.983.6-.983.6.44.6.983S51.836,103.7,51.507,103.7Zm0-4.245c-.329,0-.6-.44-.6-.983s.266-.983.6-.983.6.44.6.983S51.836,99.457,51.507,99.457Zm0-4.245c-.329,0-.6-.44-.6-.983s.266-.983.6-.983.6.44.6.983S51.836,95.211,51.507,95.211Zm0-4.245c-.329,0-.6-.44-.6-.983s.266-.983.6-.983.6.44.6.983S51.836,90.966,51.507,90.966Zm0-4.245c-.329,0-.6-.44-.6-.983s.266-.983.6-.983.6.44.6.983S51.836,86.72,51.507,86.72Zm0-4.245c-.329,0-.6-.44-.6-.983s.266-.983.6-.983.6.44.6.983S51.836,82.475,51.507,82.475Zm0-4.245c-.329,0-.6-.44-.6-.983s.266-.983.6-.983.6.44.6.983S51.836,78.23,51.507,78.23Zm0-4.245c-.329,0-.6-.44-.6-.983s.266-.983.6-.983.6.44.6.983S51.836,73.984,51.507,73.984Zm0-4.245c-.329,0-.6-.44-.6-.983s.266-.983.6-.983.6.44.6.983S51.836,69.739,51.507,69.739Zm0-4.245c-.329,0-.6-.44-.6-.983s.266-.983.6-.983.6.44.6.983S51.836,65.494,51.507,65.494Zm0-4.245c-.329,0-.6-.44-.6-.983s.266-.983.6-.983.6.44.6.983S51.836,61.248,51.507,61.248Zm0-4.245c-.329,0-.6-.44-.6-.983s.266-.983.6-.983.6.44.6.983S51.836,57,51.507,57Zm2.571,106.134c-.329,0-.6-.44-.6-.983s.266-.983.6-.983.6.44.6.983S54.407,163.137,54.078,163.137Zm0-4.245c-.329,0-.6-.44-.6-.983s.266-.983.6-.983.6.44.6.983S54.407,158.892,54.078,158.892Zm0-4.245c-.329,0-.6-.44-.6-.983s.266-.983.6-.983.6.44.6.983S54.407,154.646,54.078,154.646Zm0-4.245c-.329,0-.6-.44-.6-.983s.266-.983.6-.983.6.44.6.983S54.407,150.4,54.078,150.4Zm0-4.245c-.329,0-.6-.44-.6-.983s.266-.983.6-.983.6.44.6.983S54.407,146.156,54.078,146.156Zm0-4.245c-.329,0-.6-.44-.6-.983s.266-.983.6-.983.6.44.6.983S54.407,141.91,54.078,141.91Zm0-4.245c-.329,0-.6-.44-.6-.983s.266-.983.6-.983.6.44.6.983S54.407,137.665,54.078,137.665Zm0-4.245c-.329,0-.6-.44-.6-.983s.266-.983.6-.983.6.44.6.983S54.407,133.419,54.078,133.419Zm0-4.245c-.329,0-.6-.44-.6-.983s.266-.983.6-.983.6.44.6.983S54.407,129.174,54.078,129.174Zm0-4.245c-.329,0-.6-.44-.6-.983s.266-.983.6-.983.6.44.6.983S54.407,124.929,54.078,124.929Zm0-4.245c-.329,0-.6-.44-.6-.983s.266-.983.6-.983.6.44.6.983S54.407,120.683,54.078,120.683Zm0-4.245c-.329,0-.6-.44-.6-.983s.266-.983.6-.983.6.44.6.983S54.407,116.438,54.078,116.438Zm0-4.245c-.329,0-.6-.44-.6-.983s.266-.983.6-.983.6.44.6.983S54.407,112.193,54.078,112.193Zm0-4.245c-.329,0-.6-.44-.6-.983s.266-.983.6-.983.6.44.6.983S54.407,107.947,54.078,107.947Zm0-4.245c-.329,0-.6-.44-.6-.983s.266-.983.6-.983.6.44.6.983S54.407,103.7,54.078,103.7Zm0-4.245c-.329,0-.6-.44-.6-.983s.266-.983.6-.983.6.44.6.983S54.407,99.457,54.078,99.457Zm0-4.245c-.329,0-.6-.44-.6-.983s.266-.983.6-.983.6.44.6.983S54.407,95.211,54.078,95.211Zm0-4.245c-.329,0-.6-.44-.6-.983s.266-.983.6-.983.6.44.6.983S54.407,90.966,54.078,90.966Zm0-4.245c-.329,0-.6-.44-.6-.983s.266-.983.6-.983.6.44.6.983S54.407,86.72,54.078,86.72Zm0-4.245c-.329,0-.6-.44-.6-.983s.266-.983.6-.983.6.44.6.983S54.407,82.475,54.078,82.475Zm0-4.245c-.329,0-.6-.44-.6-.983s.266-.983.6-.983.6.44.6.983S54.407,78.23,54.078,78.23Zm0-4.245c-.329,0-.6-.44-.6-.983s.266-.983.6-.983.6.44.6.983S54.407,73.984,54.078,73.984Zm0-4.245c-.329,0-.6-.44-.6-.983s.266-.983.6-.983.6.44.6.983S54.407,69.739,54.078,69.739Zm0-4.245c-.329,0-.6-.44-.6-.983s.266-.983.6-.983.6.44.6.983S54.407,65.494,54.078,65.494Zm0-4.245c-.329,0-.6-.44-.6-.983s.266-.983.6-.983.6.44.6.983S54.407,61.248,54.078,61.248Zm0-4.245c-.329,0-.6-.44-.6-.983s.266-.983.6-.983.6.44.6.983S54.407,57,54.078,57Zm2.571,110.38c-.329,0-.6-.44-.6-.983s.266-.983.6-.983.6.44.6.983S56.978,167.382,56.649,167.382Zm0-4.245c-.329,0-.6-.44-.6-.983s.266-.983.6-.983.6.44.6.983S56.978,163.137,56.649,163.137Zm0-4.245c-.329,0-.6-.44-.6-.983s.266-.983.6-.983.6.44.6.983S56.978,158.892,56.649,158.892Zm0-4.245c-.329,0-.6-.44-.6-.983s.266-.983.6-.983.6.44.6.983S56.978,154.646,56.649,154.646Zm0-4.245c-.329,0-.6-.44-.6-.983s.266-.983.6-.983.6.44.6.983S56.978,150.4,56.649,150.4Zm0-4.245c-.329,0-.6-.44-.6-.983s.266-.983.6-.983.6.44.6.983S56.978,146.156,56.649,146.156Zm0-4.245c-.329,0-.6-.44-.6-.983s.266-.983.6-.983.6.44.6.983S56.978,141.91,56.649,141.91Zm0-4.245c-.329,0-.6-.44-.6-.983s.266-.983.6-.983.6.44.6.983S56.978,137.665,56.649,137.665Zm0-4.245c-.329,0-.6-.44-.6-.983s.266-.983.6-.983.6.44.6.983S56.978,133.419,56.649,133.419Zm0-4.245c-.329,0-.6-.44-.6-.983s.266-.983.6-.983.6.44.6.983S56.978,129.174,56.649,129.174Zm0-4.245c-.329,0-.6-.44-.6-.983s.266-.983.6-.983.6.44.6.983S56.978,124.929,56.649,124.929Zm0-4.245c-.329,0-.6-.44-.6-.983s.266-.983.6-.983.6.44.6.983S56.978,120.683,56.649,120.683Zm0-4.245c-.329,0-.6-.44-.6-.983s.266-.983.6-.983.6.44.6.983S56.978,116.438,56.649,116.438Zm0-4.245c-.329,0-.6-.44-.6-.983s.266-.983.6-.983.6.44.6.983S56.978,112.193,56.649,112.193Zm0-4.245c-.329,0-.6-.44-.6-.983s.266-.983.6-.983.6.44.6.983S56.978,107.947,56.649,107.947Zm0-4.245c-.329,0-.6-.44-.6-.983s.266-.983.6-.983.6.44.6.983S56.978,103.7,56.649,103.7Zm0-4.245c-.329,0-.6-.44-.6-.983s.266-.983.6-.983.6.44.6.983S56.978,99.457,56.649,99.457Zm0-4.245c-.329,0-.6-.44-.6-.983s.266-.983.6-.983.6.44.6.983S56.978,95.211,56.649,95.211Zm0-4.245c-.329,0-.6-.44-.6-.983s.266-.983.6-.983.6.44.6.983S56.978,90.966,56.649,90.966Zm0-4.245c-.329,0-.6-.44-.6-.983s.266-.983.6-.983.6.44.6.983S56.978,86.72,56.649,86.72Zm0-4.245c-.329,0-.6-.44-.6-.983s.266-.983.6-.983.6.44.6.983S56.978,82.475,56.649,82.475Zm0-4.245c-.329,0-.6-.44-.6-.983s.266-.983.6-.983.6.44.6.983S56.978,78.23,56.649,78.23Zm0-4.245c-.329,0-.6-.44-.6-.983s.266-.983.6-.983.6.44.6.983S56.978,73.984,56.649,73.984Zm0-4.245c-.329,0-.6-.44-.6-.983s.266-.983.6-.983.6.44.6.983S56.978,69.739,56.649,69.739Zm0-4.245c-.329,0-.6-.44-.6-.983s.266-.983.6-.983.6.44.6.983S56.978,65.494,56.649,65.494Zm0-4.245c-.329,0-.6-.44-.6-.983s.266-.983.6-.983.6.44.6.983S56.978,61.248,56.649,61.248Zm0-4.245c-.329,0-.6-.44-.6-.983s.266-.983.6-.983.6.44.6.983S56.978,57,56.649,57Zm0-4.245c-.329,0-.6-.44-.6-.983s.266-.983.6-.983.6.44.6.983S56.978,52.757,56.649,52.757Zm2.571,118.87c-.329,0-.6-.44-.6-.983s.266-.983.6-.983.6.44.6.983S59.549,171.628,59.221,171.628Zm0-4.245c-.329,0-.6-.44-.6-.983s.266-.983.6-.983.6.44.6.983S59.549,167.382,59.221,167.382Zm0-4.245c-.329,0-.6-.44-.6-.983s.266-.983.6-.983.6.44.6.983S59.549,163.137,59.221,163.137Zm0-4.245c-.329,0-.6-.44-.6-.983s.266-.983.6-.983.6.44.6.983S59.549,158.892,59.221,158.892Zm0-4.245c-.329,0-.6-.44-.6-.983s.266-.983.6-.983.6.44.6.983S59.549,154.646,59.221,154.646Zm0-4.245c-.329,0-.6-.44-.6-.983s.266-.983.6-.983.6.44.6.983S59.549,150.4,59.221,150.4Zm0-4.245c-.329,0-.6-.44-.6-.983s.266-.983.6-.983.6.44.6.983S59.549,146.156,59.221,146.156Zm0-4.245c-.329,0-.6-.44-.6-.983s.266-.983.6-.983.6.44.6.983S59.549,141.91,59.221,141.91Zm0-4.245c-.329,0-.6-.44-.6-.983s.266-.983.6-.983.6.44.6.983S59.549,137.665,59.221,137.665Zm0-4.245c-.329,0-.6-.44-.6-.983s.266-.983.6-.983.6.44.6.983S59.549,133.419,59.221,133.419Zm0-4.245c-.329,0-.6-.44-.6-.983s.266-.983.6-.983.6.44.6.983S59.549,129.174,59.221,129.174Zm0-4.245c-.329,0-.6-.44-.6-.983s.266-.983.6-.983.6.44.6.983S59.549,124.929,59.221,124.929Zm0-4.245c-.329,0-.6-.44-.6-.983s.266-.983.6-.983.6.44.6.983S59.549,120.683,59.221,120.683Zm0-4.245c-.329,0-.6-.44-.6-.983s.266-.983.6-.983.6.44.6.983S59.549,116.438,59.221,116.438Zm0-4.245c-.329,0-.6-.44-.6-.983s.266-.983.6-.983.6.44.6.983S59.549,112.193,59.221,112.193Zm0-4.245c-.329,0-.6-.44-.6-.983s.266-.983.6-.983.6.44.6.983S59.549,107.947,59.221,107.947Zm0-4.245c-.329,0-.6-.44-.6-.983s.266-.983.6-.983.6.44.6.983S59.549,103.7,59.221,103.7Zm0-4.245c-.329,0-.6-.44-.6-.983s.266-.983.6-.983.6.44.6.983S59.549,99.457,59.221,99.457Zm0-4.245c-.329,0-.6-.44-.6-.983s.266-.983.6-.983.6.44.6.983S59.549,95.211,59.221,95.211Zm0-4.245c-.329,0-.6-.44-.6-.983s.266-.983.6-.983.6.44.6.983S59.549,90.966,59.221,90.966Zm0-4.245c-.329,0-.6-.44-.6-.983s.266-.983.6-.983.6.44.6.983S59.549,86.72,59.221,86.72Zm0-4.245c-.329,0-.6-.44-.6-.983s.266-.983.6-.983.6.44.6.983S59.549,82.475,59.221,82.475Zm0-4.245c-.329,0-.6-.44-.6-.983s.266-.983.6-.983.6.44.6.983S59.549,78.23,59.221,78.23Zm0-4.245c-.329,0-.6-.44-.6-.983s.266-.983.6-.983.6.44.6.983S59.549,73.984,59.221,73.984Zm0-4.245c-.329,0-.6-.44-.6-.983s.266-.983.6-.983.6.44.6.983S59.549,69.739,59.221,69.739Zm0-4.245c-.329,0-.6-.44-.6-.983s.266-.983.6-.983.6.44.6.983S59.549,65.494,59.221,65.494Zm0-4.245c-.329,0-.6-.44-.6-.983s.266-.983.6-.983.6.44.6.983S59.549,61.248,59.221,61.248Zm0-4.245c-.329,0-.6-.44-.6-.983s.266-.983.6-.983.6.44.6.983S59.549,57,59.221,57Zm0-4.245c-.329,0-.6-.44-.6-.983s.266-.983.6-.983.6.44.6.983S59.549,52.757,59.221,52.757Zm0-4.245c-.329,0-.6-.44-.6-.983s.266-.983.6-.983.6.44.6.983S59.549,48.512,59.221,48.512Zm2.571,123.116c-.329,0-.6-.44-.6-.983s.266-.983.6-.983.6.44.6.983S62.12,171.628,61.792,171.628Zm0-4.245c-.329,0-.6-.44-.6-.983s.266-.983.6-.983.6.44.6.983S62.12,167.382,61.792,167.382Zm0-4.245c-.329,0-.6-.44-.6-.983s.266-.983.6-.983.6.44.6.983S62.12,163.137,61.792,163.137Zm0-4.245c-.329,0-.6-.44-.6-.983s.266-.983.6-.983.6.44.6.983S62.12,158.892,61.792,158.892Zm0-4.245c-.329,0-.6-.44-.6-.983s.266-.983.6-.983.6.44.6.983S62.12,154.646,61.792,154.646Zm0-4.245c-.329,0-.6-.44-.6-.983s.266-.983.6-.983.6.44.6.983S62.12,150.4,61.792,150.4Zm0-4.245c-.329,0-.6-.44-.6-.983s.266-.983.6-.983.6.44.6.983S62.12,146.156,61.792,146.156Zm0-4.245c-.329,0-.6-.44-.6-.983s.266-.983.6-.983.6.44.6.983S62.12,141.91,61.792,141.91Zm0-4.245c-.329,0-.6-.44-.6-.983s.266-.983.6-.983.6.44.6.983S62.12,137.665,61.792,137.665Zm0-4.245c-.329,0-.6-.44-.6-.983s.266-.983.6-.983.6.44.6.983S62.12,133.419,61.792,133.419Zm0-4.245c-.329,0-.6-.44-.6-.983s.266-.983.6-.983.6.44.6.983S62.12,129.174,61.792,129.174Zm0-4.245c-.329,0-.6-.44-.6-.983s.266-.983.6-.983.6.44.6.983S62.12,124.929,61.792,124.929Zm0-4.245c-.329,0-.6-.44-.6-.983s.266-.983.6-.983.6.44.6.983S62.12,120.683,61.792,120.683Zm0-4.245c-.329,0-.6-.44-.6-.983s.266-.983.6-.983.6.44.6.983S62.12,116.438,61.792,116.438Zm0-4.245c-.329,0-.6-.44-.6-.983s.266-.983.6-.983.6.44.6.983S62.12,112.193,61.792,112.193Zm0-4.245c-.329,0-.6-.44-.6-.983s.266-.983.6-.983.6.44.6.983S62.12,107.947,61.792,107.947Zm0-4.245c-.329,0-.6-.44-.6-.983s.266-.983.6-.983.6.44.6.983S62.12,103.7,61.792,103.7Zm0-4.245c-.329,0-.6-.44-.6-.983s.266-.983.6-.983.6.44.6.983S62.12,99.457,61.792,99.457Zm0-4.245c-.329,0-.6-.44-.6-.983s.266-.983.6-.983.6.44.6.983S62.12,95.211,61.792,95.211Zm0-4.245c-.329,0-.6-.44-.6-.983s.266-.983.6-.983.6.44.6.983S62.12,90.966,61.792,90.966Zm0-4.245c-.329,0-.6-.44-.6-.983s.266-.983.6-.983.6.44.6.983S62.12,86.72,61.792,86.72Zm0-4.245c-.329,0-.6-.44-.6-.983s.266-.983.6-.983.6.44.6.983S62.12,82.475,61.792,82.475Zm0-4.245c-.329,0-.6-.44-.6-.983s.266-.983.6-.983.6.44.6.983S62.12,78.23,61.792,78.23Zm0-4.245c-.329,0-.6-.44-.6-.983s.266-.983.6-.983.6.44.6.983S62.12,73.984,61.792,73.984Zm0-4.245c-.329,0-.6-.44-.6-.983s.266-.983.6-.983.6.44.6.983S62.12,69.739,61.792,69.739Zm0-4.245c-.329,0-.6-.44-.6-.983s.266-.983.6-.983.6.44.6.983S62.12,65.494,61.792,65.494Zm0-4.245c-.329,0-.6-.44-.6-.983s.266-.983.6-.983.6.44.6.983S62.12,61.248,61.792,61.248Zm0-4.245c-.329,0-.6-.44-.6-.983s.266-.983.6-.983.6.44.6.983S62.12,57,61.792,57Zm0-4.245c-.329,0-.6-.44-.6-.983s.266-.983.6-.983.6.44.6.983S62.12,52.757,61.792,52.757Zm0-4.245c-.329,0-.6-.44-.6-.983s.266-.983.6-.983.6.44.6.983S62.12,48.512,61.792,48.512Zm2.571,127.361c-.329,0-.6-.44-.6-.983s.266-.983.6-.983.6.44.6.983S64.692,175.873,64.363,175.873Zm0-4.245c-.329,0-.6-.44-.6-.983s.266-.983.6-.983.6.44.6.983S64.692,171.628,64.363,171.628Zm0-4.245c-.329,0-.6-.44-.6-.983s.266-.983.6-.983.6.44.6.983S64.692,167.382,64.363,167.382Zm0-4.245c-.329,0-.6-.44-.6-.983s.266-.983.6-.983.6.44.6.983S64.692,163.137,64.363,163.137Zm0-4.245c-.329,0-.6-.44-.6-.983s.266-.983.6-.983.6.44.6.983S64.692,158.892,64.363,158.892Zm0-4.245c-.329,0-.6-.44-.6-.983s.266-.983.6-.983.6.44.6.983S64.692,154.646,64.363,154.646Zm0-4.245c-.329,0-.6-.44-.6-.983s.266-.983.6-.983.6.44.6.983S64.692,150.4,64.363,150.4Zm0-4.245c-.329,0-.6-.44-.6-.983s.266-.983.6-.983.6.44.6.983S64.692,146.156,64.363,146.156Zm0-4.245c-.329,0-.6-.44-.6-.983s.266-.983.6-.983.6.44.6.983S64.692,141.91,64.363,141.91Zm0-4.245c-.329,0-.6-.44-.6-.983s.266-.983.6-.983.6.44.6.983S64.692,137.665,64.363,137.665Zm0-4.245c-.329,0-.6-.44-.6-.983s.266-.983.6-.983.6.44.6.983S64.692,133.419,64.363,133.419Zm0-4.245c-.329,0-.6-.44-.6-.983s.266-.983.6-.983.6.44.6.983S64.692,129.174,64.363,129.174Zm0-4.245c-.329,0-.6-.44-.6-.983s.266-.983.6-.983.6.44.6.983S64.692,124.929,64.363,124.929Zm0-4.245c-.329,0-.6-.44-.6-.983s.266-.983.6-.983.6.44.6.983S64.692,120.683,64.363,120.683Zm0-4.245c-.329,0-.6-.44-.6-.983s.266-.983.6-.983.6.44.6.983S64.692,116.438,64.363,116.438Zm0-4.245c-.329,0-.6-.44-.6-.983s.266-.983.6-.983.6.44.6.983S64.692,112.193,64.363,112.193Zm0-4.245c-.329,0-.6-.44-.6-.983s.266-.983.6-.983.6.44.6.983S64.692,107.947,64.363,107.947Zm0-4.245c-.329,0-.6-.44-.6-.983s.266-.983.6-.983.6.44.6.983S64.692,103.7,64.363,103.7Zm0-4.245c-.329,0-.6-.44-.6-.983s.266-.983.6-.983.6.44.6.983S64.692,99.457,64.363,99.457Zm0-4.245c-.329,0-.6-.44-.6-.983s.266-.983.6-.983.6.44.6.983S64.692,95.211,64.363,95.211Zm0-4.245c-.329,0-.6-.44-.6-.983s.266-.983.6-.983.6.44.6.983S64.692,90.966,64.363,90.966Zm0-4.245c-.329,0-.6-.44-.6-.983s.266-.983.6-.983.6.44.6.983S64.692,86.72,64.363,86.72Zm0-4.245c-.329,0-.6-.44-.6-.983s.266-.983.6-.983.6.44.6.983S64.692,82.475,64.363,82.475Zm0-4.245c-.329,0-.6-.44-.6-.983s.266-.983.6-.983.6.44.6.983S64.692,78.23,64.363,78.23Zm0-4.245c-.329,0-.6-.44-.6-.983s.266-.983.6-.983.6.44.6.983S64.692,73.984,64.363,73.984Zm0-4.245c-.329,0-.6-.44-.6-.983s.266-.983.6-.983.6.44.6.983S64.692,69.739,64.363,69.739Zm0-4.245c-.329,0-.6-.44-.6-.983s.266-.983.6-.983.6.44.6.983S64.692,65.494,64.363,65.494Zm0-4.245c-.329,0-.6-.44-.6-.983s.266-.983.6-.983.6.44.6.983S64.692,61.248,64.363,61.248Zm0-4.245c-.329,0-.6-.44-.6-.983s.266-.983.6-.983.6.44.6.983S64.692,57,64.363,57Zm0-4.245c-.329,0-.6-.44-.6-.983s.266-.983.6-.983.6.44.6.983S64.692,52.757,64.363,52.757Zm0-4.245c-.329,0-.6-.44-.6-.983s.266-.983.6-.983.6.44.6.983S64.692,48.512,64.363,48.512Zm0-4.245c-.329,0-.6-.44-.6-.983s.266-.983.6-.983.6.44.6.983S64.692,44.267,64.363,44.267Zm2.571,131.607c-.329,0-.6-.44-.6-.983s.266-.983.6-.983.6.44.6.983S67.263,175.873,66.934,175.873Zm0-4.245c-.329,0-.6-.44-.6-.983s.266-.983.6-.983.6.44.6.983S67.263,171.628,66.934,171.628Zm0-4.245c-.329,0-.6-.44-.6-.983s.266-.983.6-.983.6.44.6.983S67.263,167.382,66.934,167.382Zm0-4.245c-.329,0-.6-.44-.6-.983s.266-.983.6-.983.6.44.6.983S67.263,163.137,66.934,163.137Zm0-4.245c-.329,0-.6-.44-.6-.983s.266-.983.6-.983.6.44.6.983S67.263,158.892,66.934,158.892Zm0-4.245c-.329,0-.6-.44-.6-.983s.266-.983.6-.983.6.44.6.983S67.263,154.646,66.934,154.646Zm0-4.245c-.329,0-.6-.44-.6-.983s.266-.983.6-.983.6.44.6.983S67.263,150.4,66.934,150.4Zm0-4.245c-.329,0-.6-.44-.6-.983s.266-.983.6-.983.6.44.6.983S67.263,146.156,66.934,146.156Zm0-4.245c-.329,0-.6-.44-.6-.983s.266-.983.6-.983.6.44.6.983S67.263,141.91,66.934,141.91Zm0-4.245c-.329,0-.6-.44-.6-.983s.266-.983.6-.983.6.44.6.983S67.263,137.665,66.934,137.665Zm0-4.245c-.329,0-.6-.44-.6-.983s.266-.983.6-.983.6.44.6.983S67.263,133.419,66.934,133.419Zm0-4.245c-.329,0-.6-.44-.6-.983s.266-.983.6-.983.6.44.6.983S67.263,129.174,66.934,129.174Zm0-4.245c-.329,0-.6-.44-.6-.983s.266-.983.6-.983.6.44.6.983S67.263,124.929,66.934,124.929Zm0-4.245c-.329,0-.6-.44-.6-.983s.266-.983.6-.983.6.44.6.983S67.263,120.683,66.934,120.683Zm0-4.245c-.329,0-.6-.44-.6-.983s.266-.983.6-.983.6.44.6.983S67.263,116.438,66.934,116.438Zm0-4.245c-.329,0-.6-.44-.6-.983s.266-.983.6-.983.6.44.6.983S67.263,112.193,66.934,112.193Zm0-4.245c-.329,0-.6-.44-.6-.983s.266-.983.6-.983.6.44.6.983S67.263,107.947,66.934,107.947Zm0-4.245c-.329,0-.6-.44-.6-.983s.266-.983.6-.983.6.44.6.983S67.263,103.7,66.934,103.7Zm0-4.245c-.329,0-.6-.44-.6-.983s.266-.983.6-.983.6.44.6.983S67.263,99.457,66.934,99.457Zm0-4.245c-.329,0-.6-.44-.6-.983s.266-.983.6-.983.6.44.6.983S67.263,95.211,66.934,95.211Zm0-4.245c-.329,0-.6-.44-.6-.983s.266-.983.6-.983.6.44.6.983S67.263,90.966,66.934,90.966Zm0-4.245c-.329,0-.6-.44-.6-.983s.266-.983.6-.983.6.44.6.983S67.263,86.72,66.934,86.72Zm0-4.245c-.329,0-.6-.44-.6-.983s.266-.983.6-.983.6.44.6.983S67.263,82.475,66.934,82.475Zm0-4.245c-.329,0-.6-.44-.6-.983s.266-.983.6-.983.6.44.6.983S67.263,78.23,66.934,78.23Zm0-4.245c-.329,0-.6-.44-.6-.983s.266-.983.6-.983.6.44.6.983S67.263,73.984,66.934,73.984Zm0-4.245c-.329,0-.6-.44-.6-.983s.266-.983.6-.983.6.44.6.983S67.263,69.739,66.934,69.739Zm0-4.245c-.329,0-.6-.44-.6-.983s.266-.983.6-.983.6.44.6.983S67.263,65.494,66.934,65.494Zm0-4.245c-.329,0-.6-.44-.6-.983s.266-.983.6-.983.6.44.6.983S67.263,61.248,66.934,61.248Zm0-4.245c-.329,0-.6-.44-.6-.983s.266-.983.6-.983.6.44.6.983S67.263,57,66.934,57Zm0-4.245c-.329,0-.6-.44-.6-.983s.266-.983.6-.983.6.44.6.983S67.263,52.757,66.934,52.757Zm0-4.245c-.329,0-.6-.44-.6-.983s.266-.983.6-.983.6.44.6.983S67.263,48.512,66.934,48.512Zm0-4.245c-.329,0-.6-.44-.6-.983s.266-.983.6-.983.6.44.6.983S67.263,44.267,66.934,44.267Zm2.571,131.607c-.329,0-.6-.44-.6-.983s.266-.983.6-.983.6.44.6.983S69.834,175.873,69.505,175.873Zm0-4.245c-.329,0-.6-.44-.6-.983s.266-.983.6-.983.6.44.6.983S69.834,171.628,69.505,171.628Zm0-4.245c-.329,0-.6-.44-.6-.983s.266-.983.6-.983.6.44.6.983S69.834,167.382,69.505,167.382Zm0-4.245c-.329,0-.6-.44-.6-.983s.266-.983.6-.983.6.44.6.983S69.834,163.137,69.505,163.137Zm0-4.245c-.329,0-.6-.44-.6-.983s.266-.983.6-.983.6.44.6.983S69.834,158.892,69.505,158.892Zm0-4.245c-.329,0-.6-.44-.6-.983s.266-.983.6-.983.6.44.6.983S69.834,154.646,69.505,154.646Zm0-4.245c-.329,0-.6-.44-.6-.983s.266-.983.6-.983.6.44.6.983S69.834,150.4,69.505,150.4Zm0-4.245c-.329,0-.6-.44-.6-.983s.266-.983.6-.983.6.44.6.983S69.834,146.156,69.505,146.156Zm0-4.245c-.329,0-.6-.44-.6-.983s.266-.983.6-.983.6.44.6.983S69.834,141.91,69.505,141.91Zm0-4.245c-.329,0-.6-.44-.6-.983s.266-.983.6-.983.6.44.6.983S69.834,137.665,69.505,137.665Zm0-4.245c-.329,0-.6-.44-.6-.983s.266-.983.6-.983.6.44.6.983S69.834,133.419,69.505,133.419Zm0-4.245c-.329,0-.6-.44-.6-.983s.266-.983.6-.983.6.44.6.983S69.834,129.174,69.505,129.174Zm0-4.245c-.329,0-.6-.44-.6-.983s.266-.983.6-.983.6.44.6.983S69.834,124.929,69.505,124.929Zm0-4.245c-.329,0-.6-.44-.6-.983s.266-.983.6-.983.6.44.6.983S69.834,120.683,69.505,120.683Zm0-4.245c-.329,0-.6-.44-.6-.983s.266-.983.6-.983.6.44.6.983S69.834,116.438,69.505,116.438Zm0-4.245c-.329,0-.6-.44-.6-.983s.266-.983.6-.983.6.44.6.983S69.834,112.193,69.505,112.193Zm0-4.245c-.329,0-.6-.44-.6-.983s.266-.983.6-.983.6.44.6.983S69.834,107.947,69.505,107.947Zm0-4.245c-.329,0-.6-.44-.6-.983s.266-.983.6-.983.6.44.6.983S69.834,103.7,69.505,103.7Zm0-4.245c-.329,0-.6-.44-.6-.983s.266-.983.6-.983.6.44.6.983S69.834,99.457,69.505,99.457Zm0-4.245c-.329,0-.6-.44-.6-.983s.266-.983.6-.983.6.44.6.983S69.834,95.211,69.505,95.211Zm0-4.245c-.329,0-.6-.44-.6-.983s.266-.983.6-.983.6.44.6.983S69.834,90.966,69.505,90.966Zm0-4.245c-.329,0-.6-.44-.6-.983s.266-.983.6-.983.6.44.6.983S69.834,86.72,69.505,86.72Zm0-4.245c-.329,0-.6-.44-.6-.983s.266-.983.6-.983.6.44.6.983S69.834,82.475,69.505,82.475Zm0-4.245c-.329,0-.6-.44-.6-.983s.266-.983.6-.983.6.44.6.983S69.834,78.23,69.505,78.23Zm0-4.245c-.329,0-.6-.44-.6-.983s.266-.983.6-.983.6.44.6.983S69.834,73.984,69.505,73.984Zm0-4.245c-.329,0-.6-.44-.6-.983s.266-.983.6-.983.6.44.6.983S69.834,69.739,69.505,69.739Zm0-4.245c-.329,0-.6-.44-.6-.983s.266-.983.6-.983.6.44.6.983S69.834,65.494,69.505,65.494Zm0-4.245c-.329,0-.6-.44-.6-.983s.266-.983.6-.983.6.44.6.983S69.834,61.248,69.505,61.248Zm0-4.245c-.329,0-.6-.44-.6-.983s.266-.983.6-.983.6.44.6.983S69.834,57,69.505,57Zm0-4.245c-.329,0-.6-.44-.6-.983s.266-.983.6-.983.6.44.6.983S69.834,52.757,69.505,52.757Zm0-4.245c-.329,0-.6-.44-.6-.983s.266-.983.6-.983.6.44.6.983S69.834,48.512,69.505,48.512Zm0-4.245c-.329,0-.6-.44-.6-.983s.266-.983.6-.983.6.44.6.983S69.834,44.267,69.505,44.267Zm2.571,135.852c-.329,0-.6-.44-.6-.983s.266-.983.6-.983.6.44.6.983S72.405,180.119,72.076,180.119Zm0-4.245c-.329,0-.6-.44-.6-.983s.266-.983.6-.983.6.44.6.983S72.405,175.873,72.076,175.873Zm0-4.245c-.329,0-.6-.44-.6-.983s.266-.983.6-.983.6.44.6.983S72.405,171.628,72.076,171.628Zm0-4.245c-.329,0-.6-.44-.6-.983s.266-.983.6-.983.6.44.6.983S72.405,167.382,72.076,167.382Zm0-4.245c-.329,0-.6-.44-.6-.983s.266-.983.6-.983.6.44.6.983S72.405,163.137,72.076,163.137Zm0-4.245c-.329,0-.6-.44-.6-.983s.266-.983.6-.983.6.44.6.983S72.405,158.892,72.076,158.892Zm0-4.245c-.329,0-.6-.44-.6-.983s.266-.983.6-.983.6.44.6.983S72.405,154.646,72.076,154.646Zm0-4.245c-.329,0-.6-.44-.6-.983s.266-.983.6-.983.6.44.6.983S72.405,150.4,72.076,150.4Zm0-4.245c-.329,0-.6-.44-.6-.983s.266-.983.6-.983.6.44.6.983S72.405,146.156,72.076,146.156Zm0-4.245c-.329,0-.6-.44-.6-.983s.266-.983.6-.983.6.44.6.983S72.405,141.91,72.076,141.91Zm0-4.245c-.329,0-.6-.44-.6-.983s.266-.983.6-.983.6.44.6.983S72.405,137.665,72.076,137.665Zm0-4.245c-.329,0-.6-.44-.6-.983s.266-.983.6-.983.6.44.6.983S72.405,133.419,72.076,133.419Zm0-4.245c-.329,0-.6-.44-.6-.983s.266-.983.6-.983.6.44.6.983S72.405,129.174,72.076,129.174Zm0-4.245c-.329,0-.6-.44-.6-.983s.266-.983.6-.983.6.44.6.983S72.405,124.929,72.076,124.929Zm0-4.245c-.329,0-.6-.44-.6-.983s.266-.983.6-.983.6.44.6.983S72.405,120.683,72.076,120.683Zm0-4.245c-.329,0-.6-.44-.6-.983s.266-.983.6-.983.6.44.6.983S72.405,116.438,72.076,116.438Zm0-4.245c-.329,0-.6-.44-.6-.983s.266-.983.6-.983.6.44.6.983S72.405,112.193,72.076,112.193Zm0-4.245c-.329,0-.6-.44-.6-.983s.266-.983.6-.983.6.44.6.983S72.405,107.947,72.076,107.947Zm0-4.245c-.329,0-.6-.44-.6-.983s.266-.983.6-.983.6.44.6.983S72.405,103.7,72.076,103.7Zm0-4.245c-.329,0-.6-.44-.6-.983s.266-.983.6-.983.6.44.6.983S72.405,99.457,72.076,99.457Zm0-4.245c-.329,0-.6-.44-.6-.983s.266-.983.6-.983.6.44.6.983S72.405,95.211,72.076,95.211Zm0-4.245c-.329,0-.6-.44-.6-.983s.266-.983.6-.983.6.44.6.983S72.405,90.966,72.076,90.966Zm0-4.245c-.329,0-.6-.44-.6-.983s.266-.983.6-.983.6.44.6.983S72.405,86.72,72.076,86.72Zm0-4.245c-.329,0-.6-.44-.6-.983s.266-.983.6-.983.6.44.6.983S72.405,82.475,72.076,82.475Zm0-4.245c-.329,0-.6-.44-.6-.983s.266-.983.6-.983.6.44.6.983S72.405,78.23,72.076,78.23Zm0-4.245c-.329,0-.6-.44-.6-.983s.266-.983.6-.983.6.44.6.983S72.405,73.984,72.076,73.984Zm0-4.245c-.329,0-.6-.44-.6-.983s.266-.983.6-.983.6.44.6.983S72.405,69.739,72.076,69.739Zm0-4.245c-.329,0-.6-.44-.6-.983s.266-.983.6-.983.6.44.6.983S72.405,65.494,72.076,65.494Zm0-4.245c-.329,0-.6-.44-.6-.983s.266-.983.6-.983.6.44.6.983S72.405,61.248,72.076,61.248Zm0-4.245c-.329,0-.6-.44-.6-.983s.266-.983.6-.983.6.44.6.983S72.405,57,72.076,57Zm0-4.245c-.329,0-.6-.44-.6-.983s.266-.983.6-.983.6.44.6.983S72.405,52.757,72.076,52.757Zm0-4.245c-.329,0-.6-.44-.6-.983s.266-.983.6-.983.6.44.6.983S72.405,48.512,72.076,48.512Zm0-4.245c-.329,0-.6-.44-.6-.983s.266-.983.6-.983.6.44.6.983S72.405,44.267,72.076,44.267Zm0-4.245c-.329,0-.6-.44-.6-.983s.266-.983.6-.983.6.44.6.983S72.405,40.021,72.076,40.021Zm2.571,140.1c-.329,0-.6-.44-.6-.983s.266-.983.6-.983.6.44.6.983S74.976,180.119,74.648,180.119Zm0-4.245c-.329,0-.6-.44-.6-.983s.266-.983.6-.983.6.44.6.983S74.976,175.873,74.648,175.873Zm0-4.245c-.329,0-.6-.44-.6-.983s.266-.983.6-.983.6.44.6.983S74.976,171.628,74.648,171.628Zm0-4.245c-.329,0-.6-.44-.6-.983s.266-.983.6-.983.6.44.6.983S74.976,167.382,74.648,167.382Zm0-4.245c-.329,0-.6-.44-.6-.983s.266-.983.6-.983.6.44.6.983S74.976,163.137,74.648,163.137Zm0-4.245c-.329,0-.6-.44-.6-.983s.266-.983.6-.983.6.44.6.983S74.976,158.892,74.648,158.892Zm0-4.245c-.329,0-.6-.44-.6-.983s.266-.983.6-.983.6.44.6.983S74.976,154.646,74.648,154.646Zm0-4.245c-.329,0-.6-.44-.6-.983s.266-.983.6-.983.6.44.6.983S74.976,150.4,74.648,150.4Zm0-4.245c-.329,0-.6-.44-.6-.983s.266-.983.6-.983.6.44.6.983S74.976,146.156,74.648,146.156Zm0-4.245c-.329,0-.6-.44-.6-.983s.266-.983.6-.983.6.44.6.983S74.976,141.91,74.648,141.91Zm0-4.245c-.329,0-.6-.44-.6-.983s.266-.983.6-.983.6.44.6.983S74.976,137.665,74.648,137.665Zm0-4.245c-.329,0-.6-.44-.6-.983s.266-.983.6-.983.6.44.6.983S74.976,133.419,74.648,133.419Zm0-4.245c-.329,0-.6-.44-.6-.983s.266-.983.6-.983.6.44.6.983S74.976,129.174,74.648,129.174Zm0-4.245c-.329,0-.6-.44-.6-.983s.266-.983.6-.983.6.44.6.983S74.976,124.929,74.648,124.929Zm0-4.245c-.329,0-.6-.44-.6-.983s.266-.983.6-.983.6.44.6.983S74.976,120.683,74.648,120.683Zm0-4.245c-.329,0-.6-.44-.6-.983s.266-.983.6-.983.6.44.6.983S74.976,116.438,74.648,116.438Zm0-4.245c-.329,0-.6-.44-.6-.983s.266-.983.6-.983.6.44.6.983S74.976,112.193,74.648,112.193Zm0-4.245c-.329,0-.6-.44-.6-.983s.266-.983.6-.983.6.44.6.983S74.976,107.947,74.648,107.947Zm0-4.245c-.329,0-.6-.44-.6-.983s.266-.983.6-.983.6.44.6.983S74.976,103.7,74.648,103.7Zm0-4.245c-.329,0-.6-.44-.6-.983s.266-.983.6-.983.6.44.6.983S74.976,99.457,74.648,99.457Zm0-4.245c-.329,0-.6-.44-.6-.983s.266-.983.6-.983.6.44.6.983S74.976,95.211,74.648,95.211Zm0-4.245c-.329,0-.6-.44-.6-.983s.266-.983.6-.983.6.44.6.983S74.976,90.966,74.648,90.966Zm0-4.245c-.329,0-.6-.44-.6-.983s.266-.983.6-.983.6.44.6.983S74.976,86.72,74.648,86.72Zm0-4.245c-.329,0-.6-.44-.6-.983s.266-.983.6-.983.6.44.6.983S74.976,82.475,74.648,82.475Zm0-4.245c-.329,0-.6-.44-.6-.983s.266-.983.6-.983.6.44.6.983S74.976,78.23,74.648,78.23Zm0-4.245c-.329,0-.6-.44-.6-.983s.266-.983.6-.983.6.44.6.983S74.976,73.984,74.648,73.984Zm0-4.245c-.329,0-.6-.44-.6-.983s.266-.983.6-.983.6.44.6.983S74.976,69.739,74.648,69.739Zm0-4.245c-.329,0-.6-.44-.6-.983s.266-.983.6-.983.6.44.6.983S74.976,65.494,74.648,65.494Zm0-4.245c-.329,0-.6-.44-.6-.983s.266-.983.6-.983.6.44.6.983S74.976,61.248,74.648,61.248Zm0-4.245c-.329,0-.6-.44-.6-.983s.266-.983.6-.983.6.44.6.983S74.976,57,74.648,57Zm0-4.245c-.329,0-.6-.44-.6-.983s.266-.983.6-.983.6.44.6.983S74.976,52.757,74.648,52.757Zm0-4.245c-.329,0-.6-.44-.6-.983s.266-.983.6-.983.6.44.6.983S74.976,48.512,74.648,48.512Zm0-4.245c-.329,0-.6-.44-.6-.983s.266-.983.6-.983.6.44.6.983S74.976,44.267,74.648,44.267Zm0-4.245c-.329,0-.6-.44-.6-.983s.266-.983.6-.983.6.44.6.983S74.976,40.021,74.648,40.021Zm2.571,140.1c-.329,0-.6-.44-.6-.983s.266-.983.6-.983.6.44.6.983S77.547,180.119,77.219,180.119Zm0-4.245c-.329,0-.6-.44-.6-.983s.266-.983.6-.983.6.44.6.983S77.547,175.873,77.219,175.873Zm0-4.245c-.329,0-.6-.44-.6-.983s.266-.983.6-.983.6.44.6.983S77.547,171.628,77.219,171.628Zm0-4.245c-.329,0-.6-.44-.6-.983s.266-.983.6-.983.6.44.6.983S77.547,167.382,77.219,167.382Zm0-4.245c-.329,0-.6-.44-.6-.983s.266-.983.6-.983.6.44.6.983S77.547,163.137,77.219,163.137Zm0-4.245c-.329,0-.6-.44-.6-.983s.266-.983.6-.983.6.44.6.983S77.547,158.892,77.219,158.892Zm0-4.245c-.329,0-.6-.44-.6-.983s.266-.983.6-.983.6.44.6.983S77.547,154.646,77.219,154.646Zm0-4.245c-.329,0-.6-.44-.6-.983s.266-.983.6-.983.6.44.6.983S77.547,150.4,77.219,150.4Zm0-4.245c-.329,0-.6-.44-.6-.983s.266-.983.6-.983.6.44.6.983S77.547,146.156,77.219,146.156Zm0-4.245c-.329,0-.6-.44-.6-.983s.266-.983.6-.983.6.44.6.983S77.547,141.91,77.219,141.91Zm0-4.245c-.329,0-.6-.44-.6-.983s.266-.983.6-.983.6.44.6.983S77.547,137.665,77.219,137.665Zm0-4.245c-.329,0-.6-.44-.6-.983s.266-.983.6-.983.6.44.6.983S77.547,133.419,77.219,133.419Zm0-4.245c-.329,0-.6-.44-.6-.983s.266-.983.6-.983.6.44.6.983S77.547,129.174,77.219,129.174Zm0-4.245c-.329,0-.6-.44-.6-.983s.266-.983.6-.983.6.44.6.983S77.547,124.929,77.219,124.929Zm0-4.245c-.329,0-.6-.44-.6-.983s.266-.983.6-.983.6.44.6.983S77.547,120.683,77.219,120.683Zm0-4.245c-.329,0-.6-.44-.6-.983s.266-.983.6-.983.6.44.6.983S77.547,116.438,77.219,116.438Zm0-4.245c-.329,0-.6-.44-.6-.983s.266-.983.6-.983.6.44.6.983S77.547,112.193,77.219,112.193Zm0-4.245c-.329,0-.6-.44-.6-.983s.266-.983.6-.983.6.44.6.983S77.547,107.947,77.219,107.947Zm0-4.245c-.329,0-.6-.44-.6-.983s.266-.983.6-.983.6.44.6.983S77.547,103.7,77.219,103.7Zm0-4.245c-.329,0-.6-.44-.6-.983s.266-.983.6-.983.6.44.6.983S77.547,99.457,77.219,99.457Zm0-4.245c-.329,0-.6-.44-.6-.983s.266-.983.6-.983.6.44.6.983S77.547,95.211,77.219,95.211Zm0-4.245c-.329,0-.6-.44-.6-.983s.266-.983.6-.983.6.44.6.983S77.547,90.966,77.219,90.966Zm0-4.245c-.329,0-.6-.44-.6-.983s.266-.983.6-.983.6.44.6.983S77.547,86.72,77.219,86.72Zm0-4.245c-.329,0-.6-.44-.6-.983s.266-.983.6-.983.6.44.6.983S77.547,82.475,77.219,82.475Zm0-4.245c-.329,0-.6-.44-.6-.983s.266-.983.6-.983.6.44.6.983S77.547,78.23,77.219,78.23Zm0-4.245c-.329,0-.6-.44-.6-.983s.266-.983.6-.983.6.44.6.983S77.547,73.984,77.219,73.984Zm0-4.245c-.329,0-.6-.44-.6-.983s.266-.983.6-.983.6.44.6.983S77.547,69.739,77.219,69.739Zm0-4.245c-.329,0-.6-.44-.6-.983s.266-.983.6-.983.6.44.6.983S77.547,65.494,77.219,65.494Zm0-4.245c-.329,0-.6-.44-.6-.983s.266-.983.6-.983.6.44.6.983S77.547,61.248,77.219,61.248Zm0-4.245c-.329,0-.6-.44-.6-.983s.266-.983.6-.983.6.44.6.983S77.547,57,77.219,57Zm0-4.245c-.329,0-.6-.44-.6-.983s.266-.983.6-.983.6.44.6.983S77.547,52.757,77.219,52.757Zm0-4.245c-.329,0-.6-.44-.6-.983s.266-.983.6-.983.6.44.6.983S77.547,48.512,77.219,48.512Zm0-4.245c-.329,0-.6-.44-.6-.983s.266-.983.6-.983.6.44.6.983S77.547,44.267,77.219,44.267Zm0-4.245c-.329,0-.6-.44-.6-.983s.266-.983.6-.983.6.44.6.983S77.547,40.021,77.219,40.021Zm2.571,140.1c-.329,0-.6-.44-.6-.983s.266-.983.6-.983.6.44.6.983S80.119,180.119,79.79,180.119Zm0-4.245c-.329,0-.6-.44-.6-.983s.266-.983.6-.983.6.44.6.983S80.119,175.873,79.79,175.873Zm0-4.245c-.329,0-.6-.44-.6-.983s.266-.983.6-.983.6.44.6.983S80.119,171.628,79.79,171.628Zm0-4.245c-.329,0-.6-.44-.6-.983s.266-.983.6-.983.6.44.6.983S80.119,167.382,79.79,167.382Zm0-4.245c-.329,0-.6-.44-.6-.983s.266-.983.6-.983.6.44.6.983S80.119,163.137,79.79,163.137Zm0-4.245c-.329,0-.6-.44-.6-.983s.266-.983.6-.983.6.44.6.983S80.119,158.892,79.79,158.892Zm0-4.245c-.329,0-.6-.44-.6-.983s.266-.983.6-.983.6.44.6.983S80.119,154.646,79.79,154.646Zm0-4.245c-.329,0-.6-.44-.6-.983s.266-.983.6-.983.6.44.6.983S80.119,150.4,79.79,150.4Zm0-4.245c-.329,0-.6-.44-.6-.983s.266-.983.6-.983.6.44.6.983S80.119,146.156,79.79,146.156Zm0-4.245c-.329,0-.6-.44-.6-.983s.266-.983.6-.983.6.44.6.983S80.119,141.91,79.79,141.91Zm0-4.245c-.329,0-.6-.44-.6-.983s.266-.983.6-.983.6.44.6.983S80.119,137.665,79.79,137.665Zm0-4.245c-.329,0-.6-.44-.6-.983s.266-.983.6-.983.6.44.6.983S80.119,133.419,79.79,133.419Zm0-4.245c-.329,0-.6-.44-.6-.983s.266-.983.6-.983.6.44.6.983S80.119,129.174,79.79,129.174Zm0-4.245c-.329,0-.6-.44-.6-.983s.266-.983.6-.983.6.44.6.983S80.119,124.929,79.79,124.929Zm0-4.245c-.329,0-.6-.44-.6-.983s.266-.983.6-.983.6.44.6.983S80.119,120.683,79.79,120.683Zm0-4.245c-.329,0-.6-.44-.6-.983s.266-.983.6-.983.6.44.6.983S80.119,116.438,79.79,116.438Zm0-4.245c-.329,0-.6-.44-.6-.983s.266-.983.6-.983.6.44.6.983S80.119,112.193,79.79,112.193Zm0-4.245c-.329,0-.6-.44-.6-.983s.266-.983.6-.983.6.44.6.983S80.119,107.947,79.79,107.947Zm0-4.245c-.329,0-.6-.44-.6-.983s.266-.983.6-.983.6.44.6.983S80.119,103.7,79.79,103.7Zm0-4.245c-.329,0-.6-.44-.6-.983s.266-.983.6-.983.6.44.6.983S80.119,99.457,79.79,99.457Zm0-4.245c-.329,0-.6-.44-.6-.983s.266-.983.6-.983.6.44.6.983S80.119,95.211,79.79,95.211Zm0-4.245c-.329,0-.6-.44-.6-.983s.266-.983.6-.983.6.44.6.983S80.119,90.966,79.79,90.966Zm0-4.245c-.329,0-.6-.44-.6-.983s.266-.983.6-.983.6.44.6.983S80.119,86.72,79.79,86.72Zm0-4.245c-.329,0-.6-.44-.6-.983s.266-.983.6-.983.6.44.6.983S80.119,82.475,79.79,82.475Zm0-4.245c-.329,0-.6-.44-.6-.983s.266-.983.6-.983.6.44.6.983S80.119,78.23,79.79,78.23Zm0-4.245c-.329,0-.6-.44-.6-.983s.266-.983.6-.983.6.44.6.983S80.119,73.984,79.79,73.984Zm0-4.245c-.329,0-.6-.44-.6-.983s.266-.983.6-.983.6.44.6.983S80.119,69.739,79.79,69.739Zm0-4.245c-.329,0-.6-.44-.6-.983s.266-.983.6-.983.6.44.6.983S80.119,65.494,79.79,65.494Zm0-4.245c-.329,0-.6-.44-.6-.983s.266-.983.6-.983.6.44.6.983S80.119,61.248,79.79,61.248Zm0-4.245c-.329,0-.6-.44-.6-.983s.266-.983.6-.983.6.44.6.983S80.119,57,79.79,57Zm0-4.245c-.329,0-.6-.44-.6-.983s.266-.983.6-.983.6.44.6.983S80.119,52.757,79.79,52.757Zm0-4.245c-.329,0-.6-.44-.6-.983s.266-.983.6-.983.6.44.6.983S80.119,48.512,79.79,48.512Zm0-4.245c-.329,0-.6-.44-.6-.983s.266-.983.6-.983.6.44.6.983S80.119,44.267,79.79,44.267Zm0-4.245c-.329,0-.6-.44-.6-.983s.266-.983.6-.983.6.44.6.983S80.119,40.021,79.79,40.021Zm2.571,140.1c-.329,0-.6-.44-.6-.983s.266-.983.6-.983.6.44.6.983S82.69,180.119,82.361,180.119Zm0-4.245c-.329,0-.6-.44-.6-.983s.266-.983.6-.983.6.44.6.983S82.69,175.873,82.361,175.873Zm0-4.245c-.329,0-.6-.44-.6-.983s.266-.983.6-.983.6.44.6.983S82.69,171.628,82.361,171.628Zm0-4.245c-.329,0-.6-.44-.6-.983s.266-.983.6-.983.6.44.6.983S82.69,167.382,82.361,167.382Zm0-4.245c-.329,0-.6-.44-.6-.983s.266-.983.6-.983.6.44.6.983S82.69,163.137,82.361,163.137Zm0-4.245c-.329,0-.6-.44-.6-.983s.266-.983.6-.983.6.44.6.983S82.69,158.892,82.361,158.892Zm0-4.245c-.329,0-.6-.44-.6-.983s.266-.983.6-.983.6.44.6.983S82.69,154.646,82.361,154.646Zm0-4.245c-.329,0-.6-.44-.6-.983s.266-.983.6-.983.6.44.6.983S82.69,150.4,82.361,150.4Zm0-4.245c-.329,0-.6-.44-.6-.983s.266-.983.6-.983.6.44.6.983S82.69,146.156,82.361,146.156Zm0-4.245c-.329,0-.6-.44-.6-.983s.266-.983.6-.983.6.44.6.983S82.69,141.91,82.361,141.91Zm0-4.245c-.329,0-.6-.44-.6-.983s.266-.983.6-.983.6.44.6.983S82.69,137.665,82.361,137.665Zm0-4.245c-.329,0-.6-.44-.6-.983s.266-.983.6-.983.6.44.6.983S82.69,133.419,82.361,133.419Zm0-4.245c-.329,0-.6-.44-.6-.983s.266-.983.6-.983.6.44.6.983S82.69,129.174,82.361,129.174Zm0-4.245c-.329,0-.6-.44-.6-.983s.266-.983.6-.983.6.44.6.983S82.69,124.929,82.361,124.929Zm0-4.245c-.329,0-.6-.44-.6-.983s.266-.983.6-.983.6.44.6.983S82.69,120.683,82.361,120.683Zm0-4.245c-.329,0-.6-.44-.6-.983s.266-.983.6-.983.6.44.6.983S82.69,116.438,82.361,116.438Zm0-4.245c-.329,0-.6-.44-.6-.983s.266-.983.6-.983.6.44.6.983S82.69,112.193,82.361,112.193Zm0-4.245c-.329,0-.6-.44-.6-.983s.266-.983.6-.983.6.44.6.983S82.69,107.947,82.361,107.947Zm0-4.245c-.329,0-.6-.44-.6-.983s.266-.983.6-.983.6.44.6.983S82.69,103.7,82.361,103.7Zm0-4.245c-.329,0-.6-.44-.6-.983s.266-.983.6-.983.6.44.6.983S82.69,99.457,82.361,99.457Zm0-4.245c-.329,0-.6-.44-.6-.983s.266-.983.6-.983.6.44.6.983S82.69,95.211,82.361,95.211Zm0-4.245c-.329,0-.6-.44-.6-.983s.266-.983.6-.983.6.44.6.983S82.69,90.966,82.361,90.966Zm0-4.245c-.329,0-.6-.44-.6-.983s.266-.983.6-.983.6.44.6.983S82.69,86.72,82.361,86.72Zm0-4.245c-.329,0-.6-.44-.6-.983s.266-.983.6-.983.6.44.6.983S82.69,82.475,82.361,82.475Zm0-4.245c-.329,0-.6-.44-.6-.983s.266-.983.6-.983.6.44.6.983S82.69,78.23,82.361,78.23Zm0-4.245c-.329,0-.6-.44-.6-.983s.266-.983.6-.983.6.44.6.983S82.69,73.984,82.361,73.984Zm0-4.245c-.329,0-.6-.44-.6-.983s.266-.983.6-.983.6.44.6.983S82.69,69.739,82.361,69.739Zm0-4.245c-.329,0-.6-.44-.6-.983s.266-.983.6-.983.6.44.6.983S82.69,65.494,82.361,65.494Zm0-4.245c-.329,0-.6-.44-.6-.983s.266-.983.6-.983.6.44.6.983S82.69,61.248,82.361,61.248Zm0-4.245c-.329,0-.6-.44-.6-.983s.266-.983.6-.983.6.44.6.983S82.69,57,82.361,57Zm0-4.245c-.329,0-.6-.44-.6-.983s.266-.983.6-.983.6.44.6.983S82.69,52.757,82.361,52.757Zm0-4.245c-.329,0-.6-.44-.6-.983s.266-.983.6-.983.6.44.6.983S82.69,48.512,82.361,48.512Zm0-4.245c-.329,0-.6-.44-.6-.983s.266-.983.6-.983.6.44.6.983S82.69,44.267,82.361,44.267Zm0-4.245c-.329,0-.6-.44-.6-.983s.266-.983.6-.983.6.44.6.983S82.69,40.021,82.361,40.021Zm2.571,140.1c-.329,0-.6-.44-.6-.983s.266-.983.6-.983.6.44.6.983S85.261,180.119,84.932,180.119Zm0-4.245c-.329,0-.6-.44-.6-.983s.266-.983.6-.983.6.44.6.983S85.261,175.873,84.932,175.873Zm0-4.245c-.329,0-.6-.44-.6-.983s.266-.983.6-.983.6.44.6.983S85.261,171.628,84.932,171.628Zm0-4.245c-.329,0-.6-.44-.6-.983s.266-.983.6-.983.6.44.6.983S85.261,167.382,84.932,167.382Zm0-4.245c-.329,0-.6-.44-.6-.983s.266-.983.6-.983.6.44.6.983S85.261,163.137,84.932,163.137Zm0-4.245c-.329,0-.6-.44-.6-.983s.266-.983.6-.983.6.44.6.983S85.261,158.892,84.932,158.892Zm0-4.245c-.329,0-.6-.44-.6-.983s.266-.983.6-.983.6.44.6.983S85.261,154.646,84.932,154.646Zm0-4.245c-.329,0-.6-.44-.6-.983s.266-.983.6-.983.6.44.6.983S85.261,150.4,84.932,150.4Zm0-4.245c-.329,0-.6-.44-.6-.983s.266-.983.6-.983.6.44.6.983S85.261,146.156,84.932,146.156Zm0-4.245c-.329,0-.6-.44-.6-.983s.266-.983.6-.983.6.44.6.983S85.261,141.91,84.932,141.91Zm0-4.245c-.329,0-.6-.44-.6-.983s.266-.983.6-.983.6.44.6.983S85.261,137.665,84.932,137.665Zm0-4.245c-.329,0-.6-.44-.6-.983s.266-.983.6-.983.6.44.6.983S85.261,133.419,84.932,133.419Zm0-4.245c-.329,0-.6-.44-.6-.983s.266-.983.6-.983.6.44.6.983S85.261,129.174,84.932,129.174Zm0-4.245c-.329,0-.6-.44-.6-.983s.266-.983.6-.983.6.44.6.983S85.261,124.929,84.932,124.929Zm0-4.245c-.329,0-.6-.44-.6-.983s.266-.983.6-.983.6.44.6.983S85.261,120.683,84.932,120.683Zm0-4.245c-.329,0-.6-.44-.6-.983s.266-.983.6-.983.6.44.6.983S85.261,116.438,84.932,116.438Zm0-4.245c-.329,0-.6-.44-.6-.983s.266-.983.6-.983.6.44.6.983S85.261,112.193,84.932,112.193Zm0-4.245c-.329,0-.6-.44-.6-.983s.266-.983.6-.983.6.44.6.983S85.261,107.947,84.932,107.947Zm0-4.245c-.329,0-.6-.44-.6-.983s.266-.983.6-.983.6.44.6.983S85.261,103.7,84.932,103.7Zm0-4.245c-.329,0-.6-.44-.6-.983s.266-.983.6-.983.6.44.6.983S85.261,99.457,84.932,99.457Zm0-4.245c-.329,0-.6-.44-.6-.983s.266-.983.6-.983.6.44.6.983S85.261,95.211,84.932,95.211Zm0-4.245c-.329,0-.6-.44-.6-.983s.266-.983.6-.983.6.44.6.983S85.261,90.966,84.932,90.966Zm0-4.245c-.329,0-.6-.44-.6-.983s.266-.983.6-.983.6.44.6.983S85.261,86.72,84.932,86.72Zm0-4.245c-.329,0-.6-.44-.6-.983s.266-.983.6-.983.6.44.6.983S85.261,82.475,84.932,82.475Zm0-4.245c-.329,0-.6-.44-.6-.983s.266-.983.6-.983.6.44.6.983S85.261,78.23,84.932,78.23Zm0-4.245c-.329,0-.6-.44-.6-.983s.266-.983.6-.983.6.44.6.983S85.261,73.984,84.932,73.984Zm0-4.245c-.329,0-.6-.44-.6-.983s.266-.983.6-.983.6.44.6.983S85.261,69.739,84.932,69.739Zm0-4.245c-.329,0-.6-.44-.6-.983s.266-.983.6-.983.6.44.6.983S85.261,65.494,84.932,65.494Zm0-4.245c-.329,0-.6-.44-.6-.983s.266-.983.6-.983.6.44.6.983S85.261,61.248,84.932,61.248Zm0-4.245c-.329,0-.6-.44-.6-.983s.266-.983.6-.983.6.44.6.983S85.261,57,84.932,57Zm0-4.245c-.329,0-.6-.44-.6-.983s.266-.983.6-.983.6.44.6.983S85.261,52.757,84.932,52.757Zm0-4.245c-.329,0-.6-.44-.6-.983s.266-.983.6-.983.6.44.6.983S85.261,48.512,84.932,48.512Zm0-4.245c-.329,0-.6-.44-.6-.983s.266-.983.6-.983.6.44.6.983S85.261,44.267,84.932,44.267Zm0-4.245c-.329,0-.6-.44-.6-.983s.266-.983.6-.983.6.44.6.983S85.261,40.021,84.932,40.021Zm2.571,140.1c-.329,0-.6-.44-.6-.983s.266-.983.6-.983.6.44.6.983S87.832,180.119,87.5,180.119Zm0-4.245c-.329,0-.6-.44-.6-.983s.266-.983.6-.983.6.44.6.983S87.832,175.873,87.5,175.873Zm0-4.245c-.329,0-.6-.44-.6-.983s.266-.983.6-.983.6.44.6.983S87.832,171.628,87.5,171.628Zm0-4.245c-.329,0-.6-.44-.6-.983s.266-.983.6-.983.6.44.6.983S87.832,167.382,87.5,167.382Zm0-4.245c-.329,0-.6-.44-.6-.983s.266-.983.6-.983.6.44.6.983S87.832,163.137,87.5,163.137Zm0-4.245c-.329,0-.6-.44-.6-.983s.266-.983.6-.983.6.44.6.983S87.832,158.892,87.5,158.892Zm0-4.245c-.329,0-.6-.44-.6-.983s.266-.983.6-.983.6.44.6.983S87.832,154.646,87.5,154.646Zm0-4.245c-.329,0-.6-.44-.6-.983s.266-.983.6-.983.6.44.6.983S87.832,150.4,87.5,150.4Zm0-4.245c-.329,0-.6-.44-.6-.983s.266-.983.6-.983.6.44.6.983S87.832,146.156,87.5,146.156Zm0-4.245c-.329,0-.6-.44-.6-.983s.266-.983.6-.983.6.44.6.983S87.832,141.91,87.5,141.91Zm0-4.245c-.329,0-.6-.44-.6-.983s.266-.983.6-.983.6.44.6.983S87.832,137.665,87.5,137.665Zm0-4.245c-.329,0-.6-.44-.6-.983s.266-.983.6-.983.6.44.6.983S87.832,133.419,87.5,133.419Zm0-4.245c-.329,0-.6-.44-.6-.983s.266-.983.6-.983.6.44.6.983S87.832,129.174,87.5,129.174Zm0-4.245c-.329,0-.6-.44-.6-.983s.266-.983.6-.983.6.44.6.983S87.832,124.929,87.5,124.929Zm0-4.245c-.329,0-.6-.44-.6-.983s.266-.983.6-.983.6.44.6.983S87.832,120.683,87.5,120.683Zm0-4.245c-.329,0-.6-.44-.6-.983s.266-.983.6-.983.6.44.6.983S87.832,116.438,87.5,116.438Zm0-4.245c-.329,0-.6-.44-.6-.983s.266-.983.6-.983.6.44.6.983S87.832,112.193,87.5,112.193Zm0-4.245c-.329,0-.6-.44-.6-.983s.266-.983.6-.983.6.44.6.983S87.832,107.947,87.5,107.947Zm0-4.245c-.329,0-.6-.44-.6-.983s.266-.983.6-.983.6.44.6.983S87.832,103.7,87.5,103.7Zm0-4.245c-.329,0-.6-.44-.6-.983s.266-.983.6-.983.6.44.6.983S87.832,99.457,87.5,99.457Zm0-4.245c-.329,0-.6-.44-.6-.983s.266-.983.6-.983.6.44.6.983S87.832,95.211,87.5,95.211Zm0-4.245c-.329,0-.6-.44-.6-.983s.266-.983.6-.983.6.44.6.983S87.832,90.966,87.5,90.966Zm0-4.245c-.329,0-.6-.44-.6-.983s.266-.983.6-.983.6.44.6.983S87.832,86.72,87.5,86.72Zm0-4.245c-.329,0-.6-.44-.6-.983s.266-.983.6-.983.6.44.6.983S87.832,82.475,87.5,82.475Zm0-4.245c-.329,0-.6-.44-.6-.983s.266-.983.6-.983.6.44.6.983S87.832,78.23,87.5,78.23Zm0-4.245c-.329,0-.6-.44-.6-.983s.266-.983.6-.983.6.44.6.983S87.832,73.984,87.5,73.984Zm0-4.245c-.329,0-.6-.44-.6-.983s.266-.983.6-.983.6.44.6.983S87.832,69.739,87.5,69.739Zm0-4.245c-.329,0-.6-.44-.6-.983s.266-.983.6-.983.6.44.6.983S87.832,65.494,87.5,65.494Zm0-4.245c-.329,0-.6-.44-.6-.983s.266-.983.6-.983.6.44.6.983S87.832,61.248,87.5,61.248ZM87.5,57c-.329,0-.6-.44-.6-.983s.266-.983.6-.983.6.44.6.983S87.832,57,87.5,57Zm0-4.245c-.329,0-.6-.44-.6-.983s.266-.983.6-.983.6.44.6.983S87.832,52.757,87.5,52.757Zm0-4.245c-.329,0-.6-.44-.6-.983s.266-.983.6-.983.6.44.6.983S87.832,48.512,87.5,48.512Zm0-4.245c-.329,0-.6-.44-.6-.983s.266-.983.6-.983.6.44.6.983S87.832,44.267,87.5,44.267Zm0-4.245c-.329,0-.6-.44-.6-.983s.266-.983.6-.983.6.44.6.983S87.832,40.021,87.5,40.021Zm2.571,140.1c-.329,0-.6-.44-.6-.983s.266-.983.6-.983.6.44.6.983S90.4,180.119,90.075,180.119Zm0-4.245c-.329,0-.6-.44-.6-.983s.266-.983.6-.983.6.44.6.983S90.4,175.873,90.075,175.873Zm0-4.245c-.329,0-.6-.44-.6-.983s.266-.983.6-.983.6.44.6.983S90.4,171.628,90.075,171.628Zm0-4.245c-.329,0-.6-.44-.6-.983s.266-.983.6-.983.6.44.6.983S90.4,167.382,90.075,167.382Zm0-4.245c-.329,0-.6-.44-.6-.983s.266-.983.6-.983.6.44.6.983S90.4,163.137,90.075,163.137Zm0-4.245c-.329,0-.6-.44-.6-.983s.266-.983.6-.983.6.44.6.983S90.4,158.892,90.075,158.892Zm0-4.245c-.329,0-.6-.44-.6-.983s.266-.983.6-.983.6.44.6.983S90.4,154.646,90.075,154.646Zm0-4.245c-.329,0-.6-.44-.6-.983s.266-.983.6-.983.6.44.6.983S90.4,150.4,90.075,150.4Zm0-4.245c-.329,0-.6-.44-.6-.983s.266-.983.6-.983.6.44.6.983S90.4,146.156,90.075,146.156Zm0-4.245c-.329,0-.6-.44-.6-.983s.266-.983.6-.983.6.44.6.983S90.4,141.91,90.075,141.91Zm0-4.245c-.329,0-.6-.44-.6-.983s.266-.983.6-.983.6.44.6.983S90.4,137.665,90.075,137.665Zm0-4.245c-.329,0-.6-.44-.6-.983s.266-.983.6-.983.6.44.6.983S90.4,133.419,90.075,133.419Zm0-4.245c-.329,0-.6-.44-.6-.983s.266-.983.6-.983.6.44.6.983S90.4,129.174,90.075,129.174Zm0-4.245c-.329,0-.6-.44-.6-.983s.266-.983.6-.983.6.44.6.983S90.4,124.929,90.075,124.929Zm0-4.245c-.329,0-.6-.44-.6-.983s.266-.983.6-.983.6.44.6.983S90.4,120.683,90.075,120.683Zm0-4.245c-.329,0-.6-.44-.6-.983s.266-.983.6-.983.6.44.6.983S90.4,116.438,90.075,116.438Zm0-4.245c-.329,0-.6-.44-.6-.983s.266-.983.6-.983.6.44.6.983S90.4,112.193,90.075,112.193Zm0-4.245c-.329,0-.6-.44-.6-.983s.266-.983.6-.983.6.44.6.983S90.4,107.947,90.075,107.947Zm0-4.245c-.329,0-.6-.44-.6-.983s.266-.983.6-.983.6.44.6.983S90.4,103.7,90.075,103.7Zm0-4.245c-.329,0-.6-.44-.6-.983s.266-.983.6-.983.6.44.6.983S90.4,99.457,90.075,99.457Zm0-4.245c-.329,0-.6-.44-.6-.983s.266-.983.6-.983.6.44.6.983S90.4,95.211,90.075,95.211Zm0-4.245c-.329,0-.6-.44-.6-.983s.266-.983.6-.983.6.44.6.983S90.4,90.966,90.075,90.966Zm0-4.245c-.329,0-.6-.44-.6-.983s.266-.983.6-.983.6.44.6.983S90.4,86.72,90.075,86.72Zm0-4.245c-.329,0-.6-.44-.6-.983s.266-.983.6-.983.6.44.6.983S90.4,82.475,90.075,82.475Zm0-4.245c-.329,0-.6-.44-.6-.983s.266-.983.6-.983.6.44.6.983S90.4,78.23,90.075,78.23Zm0-4.245c-.329,0-.6-.44-.6-.983s.266-.983.6-.983.6.44.6.983S90.4,73.984,90.075,73.984Zm0-4.245c-.329,0-.6-.44-.6-.983s.266-.983.6-.983.6.44.6.983S90.4,69.739,90.075,69.739Zm0-4.245c-.329,0-.6-.44-.6-.983s.266-.983.6-.983.6.44.6.983S90.4,65.494,90.075,65.494Zm0-4.245c-.329,0-.6-.44-.6-.983s.266-.983.6-.983.6.44.6.983S90.4,61.248,90.075,61.248Zm0-4.245c-.329,0-.6-.44-.6-.983s.266-.983.6-.983.6.44.6.983S90.4,57,90.075,57Zm0-4.245c-.329,0-.6-.44-.6-.983s.266-.983.6-.983.6.44.6.983S90.4,52.757,90.075,52.757Zm0-4.245c-.329,0-.6-.44-.6-.983s.266-.983.6-.983.6.44.6.983S90.4,48.512,90.075,48.512Zm0-4.245c-.329,0-.6-.44-.6-.983s.266-.983.6-.983.6.44.6.983S90.4,44.267,90.075,44.267Zm0-4.245c-.329,0-.6-.44-.6-.983s.266-.983.6-.983.6.44.6.983S90.4,40.021,90.075,40.021Zm2.571,135.852c-.329,0-.6-.44-.6-.983s.266-.983.6-.983.6.44.6.983S92.974,175.873,92.646,175.873Zm0-4.245c-.329,0-.6-.44-.6-.983s.266-.983.6-.983.6.44.6.983S92.974,171.628,92.646,171.628Zm0-4.245c-.329,0-.6-.44-.6-.983s.266-.983.6-.983.6.44.6.983S92.974,167.382,92.646,167.382Zm0-4.245c-.329,0-.6-.44-.6-.983s.266-.983.6-.983.6.44.6.983S92.974,163.137,92.646,163.137Zm0-4.245c-.329,0-.6-.44-.6-.983s.266-.983.6-.983.6.44.6.983S92.974,158.892,92.646,158.892Zm0-4.245c-.329,0-.6-.44-.6-.983s.266-.983.6-.983.6.44.6.983S92.974,154.646,92.646,154.646Zm0-4.245c-.329,0-.6-.44-.6-.983s.266-.983.6-.983.6.44.6.983S92.974,150.4,92.646,150.4Zm0-4.245c-.329,0-.6-.44-.6-.983s.266-.983.6-.983.6.44.6.983S92.974,146.156,92.646,146.156Zm0-4.245c-.329,0-.6-.44-.6-.983s.266-.983.6-.983.6.44.6.983S92.974,141.91,92.646,141.91Zm0-4.245c-.329,0-.6-.44-.6-.983s.266-.983.6-.983.6.44.6.983S92.974,137.665,92.646,137.665Zm0-4.245c-.329,0-.6-.44-.6-.983s.266-.983.6-.983.6.44.6.983S92.974,133.419,92.646,133.419Zm0-4.245c-.329,0-.6-.44-.6-.983s.266-.983.6-.983.6.44.6.983S92.974,129.174,92.646,129.174Zm0-4.245c-.329,0-.6-.44-.6-.983s.266-.983.6-.983.6.44.6.983S92.974,124.929,92.646,124.929Zm0-4.245c-.329,0-.6-.44-.6-.983s.266-.983.6-.983.6.44.6.983S92.974,120.683,92.646,120.683Zm0-4.245c-.329,0-.6-.44-.6-.983s.266-.983.6-.983.6.44.6.983S92.974,116.438,92.646,116.438Zm0-4.245c-.329,0-.6-.44-.6-.983s.266-.983.6-.983.6.44.6.983S92.974,112.193,92.646,112.193Zm0-4.245c-.329,0-.6-.44-.6-.983s.266-.983.6-.983.6.44.6.983S92.974,107.947,92.646,107.947Zm0-4.245c-.329,0-.6-.44-.6-.983s.266-.983.6-.983.6.44.6.983S92.974,103.7,92.646,103.7Zm0-4.245c-.329,0-.6-.44-.6-.983s.266-.983.6-.983.6.44.6.983S92.974,99.457,92.646,99.457Zm0-4.245c-.329,0-.6-.44-.6-.983s.266-.983.6-.983.6.44.6.983S92.974,95.211,92.646,95.211Zm0-4.245c-.329,0-.6-.44-.6-.983s.266-.983.6-.983.6.44.6.983S92.974,90.966,92.646,90.966Zm0-4.245c-.329,0-.6-.44-.6-.983s.266-.983.6-.983.6.44.6.983S92.974,86.72,92.646,86.72Zm0-4.245c-.329,0-.6-.44-.6-.983s.266-.983.6-.983.6.44.6.983S92.974,82.475,92.646,82.475Zm0-4.245c-.329,0-.6-.44-.6-.983s.266-.983.6-.983.6.44.6.983S92.974,78.23,92.646,78.23Zm0-4.245c-.329,0-.6-.44-.6-.983s.266-.983.6-.983.6.44.6.983S92.974,73.984,92.646,73.984Zm0-4.245c-.329,0-.6-.44-.6-.983s.266-.983.6-.983.6.44.6.983S92.974,69.739,92.646,69.739Zm0-4.245c-.329,0-.6-.44-.6-.983s.266-.983.6-.983.6.44.6.983S92.974,65.494,92.646,65.494Zm0-4.245c-.329,0-.6-.44-.6-.983s.266-.983.6-.983.6.44.6.983S92.974,61.248,92.646,61.248Zm0-4.245c-.329,0-.6-.44-.6-.983s.266-.983.6-.983.6.44.6.983S92.974,57,92.646,57Zm0-4.245c-.329,0-.6-.44-.6-.983s.266-.983.6-.983.6.44.6.983S92.974,52.757,92.646,52.757Zm0-4.245c-.329,0-.6-.44-.6-.983s.266-.983.6-.983.6.44.6.983S92.974,48.512,92.646,48.512Zm0-4.245c-.329,0-.6-.44-.6-.983s.266-.983.6-.983.6.44.6.983S92.974,44.267,92.646,44.267Zm2.571,131.607c-.329,0-.6-.44-.6-.983s.266-.983.6-.983.6.44.6.983S95.546,175.873,95.217,175.873Zm0-4.245c-.329,0-.6-.44-.6-.983s.266-.983.6-.983.6.44.6.983S95.546,171.628,95.217,171.628Zm0-4.245c-.329,0-.6-.44-.6-.983s.266-.983.6-.983.6.44.6.983S95.546,167.382,95.217,167.382Zm0-4.245c-.329,0-.6-.44-.6-.983s.266-.983.6-.983.6.44.6.983S95.546,163.137,95.217,163.137Zm0-4.245c-.329,0-.6-.44-.6-.983s.266-.983.6-.983.6.44.6.983S95.546,158.892,95.217,158.892Zm0-4.245c-.329,0-.6-.44-.6-.983s.266-.983.6-.983.6.44.6.983S95.546,154.646,95.217,154.646Zm0-4.245c-.329,0-.6-.44-.6-.983s.266-.983.6-.983.6.44.6.983S95.546,150.4,95.217,150.4Zm0-4.245c-.329,0-.6-.44-.6-.983s.266-.983.6-.983.6.44.6.983S95.546,146.156,95.217,146.156Zm0-4.245c-.329,0-.6-.44-.6-.983s.266-.983.6-.983.6.44.6.983S95.546,141.91,95.217,141.91Zm0-4.245c-.329,0-.6-.44-.6-.983s.266-.983.6-.983.6.44.6.983S95.546,137.665,95.217,137.665Zm0-4.245c-.329,0-.6-.44-.6-.983s.266-.983.6-.983.6.44.6.983S95.546,133.419,95.217,133.419Zm0-4.245c-.329,0-.6-.44-.6-.983s.266-.983.6-.983.6.44.6.983S95.546,129.174,95.217,129.174Zm0-4.245c-.329,0-.6-.44-.6-.983s.266-.983.6-.983.6.44.6.983S95.546,124.929,95.217,124.929Zm0-4.245c-.329,0-.6-.44-.6-.983s.266-.983.6-.983.6.44.6.983S95.546,120.683,95.217,120.683Zm0-4.245c-.329,0-.6-.44-.6-.983s.266-.983.6-.983.6.44.6.983S95.546,116.438,95.217,116.438Zm0-4.245c-.329,0-.6-.44-.6-.983s.266-.983.6-.983.6.44.6.983S95.546,112.193,95.217,112.193Zm0-4.245c-.329,0-.6-.44-.6-.983s.266-.983.6-.983.6.44.6.983S95.546,107.947,95.217,107.947Zm0-4.245c-.329,0-.6-.44-.6-.983s.266-.983.6-.983.6.44.6.983S95.546,103.7,95.217,103.7Zm0-4.245c-.329,0-.6-.44-.6-.983s.266-.983.6-.983.6.44.6.983S95.546,99.457,95.217,99.457Zm0-4.245c-.329,0-.6-.44-.6-.983s.266-.983.6-.983.6.44.6.983S95.546,95.211,95.217,95.211Zm0-4.245c-.329,0-.6-.44-.6-.983s.266-.983.6-.983.6.44.6.983S95.546,90.966,95.217,90.966Zm0-4.245c-.329,0-.6-.44-.6-.983s.266-.983.6-.983.6.44.6.983S95.546,86.72,95.217,86.72Zm0-4.245c-.329,0-.6-.44-.6-.983s.266-.983.6-.983.6.44.6.983S95.546,82.475,95.217,82.475Zm0-4.245c-.329,0-.6-.44-.6-.983s.266-.983.6-.983.6.44.6.983S95.546,78.23,95.217,78.23Zm0-4.245c-.329,0-.6-.44-.6-.983s.266-.983.6-.983.6.44.6.983S95.546,73.984,95.217,73.984Zm0-4.245c-.329,0-.6-.44-.6-.983s.266-.983.6-.983.6.44.6.983S95.546,69.739,95.217,69.739Zm0-4.245c-.329,0-.6-.44-.6-.983s.266-.983.6-.983.6.44.6.983S95.546,65.494,95.217,65.494Zm0-4.245c-.329,0-.6-.44-.6-.983s.266-.983.6-.983.6.44.6.983S95.546,61.248,95.217,61.248Zm0-4.245c-.329,0-.6-.44-.6-.983s.266-.983.6-.983.6.44.6.983S95.546,57,95.217,57Zm0-4.245c-.329,0-.6-.44-.6-.983s.266-.983.6-.983.6.44.6.983S95.546,52.757,95.217,52.757Zm0-4.245c-.329,0-.6-.44-.6-.983s.266-.983.6-.983.6.44.6.983S95.546,48.512,95.217,48.512Zm0-4.245c-.329,0-.6-.44-.6-.983s.266-.983.6-.983.6.44.6.983S95.546,44.267,95.217,44.267Zm2.571,131.607c-.329,0-.6-.44-.6-.983s.266-.983.6-.983.6.44.6.983S98.117,175.873,97.788,175.873Zm0-4.245c-.329,0-.6-.44-.6-.983s.266-.983.6-.983.6.44.6.983S98.117,171.628,97.788,171.628Zm0-4.245c-.329,0-.6-.44-.6-.983s.266-.983.6-.983.6.44.6.983S98.117,167.382,97.788,167.382Zm0-4.245c-.329,0-.6-.44-.6-.983s.266-.983.6-.983.6.44.6.983S98.117,163.137,97.788,163.137Zm0-4.245c-.329,0-.6-.44-.6-.983s.266-.983.6-.983.6.44.6.983S98.117,158.892,97.788,158.892Zm0-4.245c-.329,0-.6-.44-.6-.983s.266-.983.6-.983.6.44.6.983S98.117,154.646,97.788,154.646Zm0-4.245c-.329,0-.6-.44-.6-.983s.266-.983.6-.983.6.44.6.983S98.117,150.4,97.788,150.4Zm0-4.245c-.329,0-.6-.44-.6-.983s.266-.983.6-.983.6.44.6.983S98.117,146.156,97.788,146.156Zm0-4.245c-.329,0-.6-.44-.6-.983s.266-.983.6-.983.6.44.6.983S98.117,141.91,97.788,141.91Zm0-4.245c-.329,0-.6-.44-.6-.983s.266-.983.6-.983.6.44.6.983S98.117,137.665,97.788,137.665Zm0-4.245c-.329,0-.6-.44-.6-.983s.266-.983.6-.983.6.44.6.983S98.117,133.419,97.788,133.419Zm0-4.245c-.329,0-.6-.44-.6-.983s.266-.983.6-.983.6.44.6.983S98.117,129.174,97.788,129.174Zm0-4.245c-.329,0-.6-.44-.6-.983s.266-.983.6-.983.6.44.6.983S98.117,124.929,97.788,124.929Zm0-4.245c-.329,0-.6-.44-.6-.983s.266-.983.6-.983.6.44.6.983S98.117,120.683,97.788,120.683Zm0-4.245c-.329,0-.6-.44-.6-.983s.266-.983.6-.983.6.44.6.983S98.117,116.438,97.788,116.438Zm0-4.245c-.329,0-.6-.44-.6-.983s.266-.983.6-.983.6.44.6.983S98.117,112.193,97.788,112.193Zm0-4.245c-.329,0-.6-.44-.6-.983s.266-.983.6-.983.6.44.6.983S98.117,107.947,97.788,107.947Zm0-4.245c-.329,0-.6-.44-.6-.983s.266-.983.6-.983.6.44.6.983S98.117,103.7,97.788,103.7Zm0-4.245c-.329,0-.6-.44-.6-.983s.266-.983.6-.983.6.44.6.983S98.117,99.457,97.788,99.457Zm0-4.245c-.329,0-.6-.44-.6-.983s.266-.983.6-.983.6.44.6.983S98.117,95.211,97.788,95.211Zm0-4.245c-.329,0-.6-.44-.6-.983s.266-.983.6-.983.6.44.6.983S98.117,90.966,97.788,90.966Zm0-4.245c-.329,0-.6-.44-.6-.983s.266-.983.6-.983.6.44.6.983S98.117,86.72,97.788,86.72Zm0-4.245c-.329,0-.6-.44-.6-.983s.266-.983.6-.983.6.44.6.983S98.117,82.475,97.788,82.475Zm0-4.245c-.329,0-.6-.44-.6-.983s.266-.983.6-.983.6.44.6.983S98.117,78.23,97.788,78.23Zm0-4.245c-.329,0-.6-.44-.6-.983s.266-.983.6-.983.6.44.6.983S98.117,73.984,97.788,73.984Zm0-4.245c-.329,0-.6-.44-.6-.983s.266-.983.6-.983.6.44.6.983S98.117,69.739,97.788,69.739Zm0-4.245c-.329,0-.6-.44-.6-.983s.266-.983.6-.983.6.44.6.983S98.117,65.494,97.788,65.494Zm0-4.245c-.329,0-.6-.44-.6-.983s.266-.983.6-.983.6.44.6.983S98.117,61.248,97.788,61.248Zm0-4.245c-.329,0-.6-.44-.6-.983s.266-.983.6-.983.6.44.6.983S98.117,57,97.788,57Zm0-4.245c-.329,0-.6-.44-.6-.983s.266-.983.6-.983.6.44.6.983S98.117,52.757,97.788,52.757Zm0-4.245c-.329,0-.6-.44-.6-.983s.266-.983.6-.983.6.44.6.983S98.117,48.512,97.788,48.512Zm0-4.245c-.329,0-.6-.44-.6-.983s.266-.983.6-.983.6.44.6.983S98.117,44.267,97.788,44.267Zm2.571,127.361c-.329,0-.6-.44-.6-.983s.266-.983.6-.983.6.44.6.983S100.688,171.628,100.359,171.628Zm0-4.245c-.329,0-.6-.44-.6-.983s.266-.983.6-.983.6.44.6.983S100.688,167.382,100.359,167.382Zm0-4.245c-.329,0-.6-.44-.6-.983s.266-.983.6-.983.6.44.6.983S100.688,163.137,100.359,163.137Zm0-4.245c-.329,0-.6-.44-.6-.983s.266-.983.6-.983.6.44.6.983S100.688,158.892,100.359,158.892Zm0-4.245c-.329,0-.6-.44-.6-.983s.266-.983.6-.983.6.44.6.983S100.688,154.646,100.359,154.646Zm0-4.245c-.329,0-.6-.44-.6-.983s.266-.983.6-.983.6.44.6.983S100.688,150.4,100.359,150.4Zm0-4.245c-.329,0-.6-.44-.6-.983s.266-.983.6-.983.6.44.6.983S100.688,146.156,100.359,146.156Zm0-4.245c-.329,0-.6-.44-.6-.983s.266-.983.6-.983.6.44.6.983S100.688,141.91,100.359,141.91Zm0-4.245c-.329,0-.6-.44-.6-.983s.266-.983.6-.983.6.44.6.983S100.688,137.665,100.359,137.665Zm0-4.245c-.329,0-.6-.44-.6-.983s.266-.983.6-.983.6.44.6.983S100.688,133.419,100.359,133.419Zm0-4.245c-.329,0-.6-.44-.6-.983s.266-.983.6-.983.6.44.6.983S100.688,129.174,100.359,129.174Zm0-4.245c-.329,0-.6-.44-.6-.983s.266-.983.6-.983.6.44.6.983S100.688,124.929,100.359,124.929Zm0-4.245c-.329,0-.6-.44-.6-.983s.266-.983.6-.983.6.44.6.983S100.688,120.683,100.359,120.683Zm0-4.245c-.329,0-.6-.44-.6-.983s.266-.983.6-.983.6.44.6.983S100.688,116.438,100.359,116.438Zm0-4.245c-.329,0-.6-.44-.6-.983s.266-.983.6-.983.6.44.6.983S100.688,112.193,100.359,112.193Zm0-4.245c-.329,0-.6-.44-.6-.983s.266-.983.6-.983.6.44.6.983S100.688,107.947,100.359,107.947Zm0-4.245c-.329,0-.6-.44-.6-.983s.266-.983.6-.983.6.44.6.983S100.688,103.7,100.359,103.7Zm0-4.245c-.329,0-.6-.44-.6-.983s.266-.983.6-.983.6.44.6.983S100.688,99.457,100.359,99.457Zm0-4.245c-.329,0-.6-.44-.6-.983s.266-.983.6-.983.6.44.6.983S100.688,95.211,100.359,95.211Zm0-4.245c-.329,0-.6-.44-.6-.983s.266-.983.6-.983.6.44.6.983S100.688,90.966,100.359,90.966Zm0-4.245c-.329,0-.6-.44-.6-.983s.266-.983.6-.983.6.44.6.983S100.688,86.72,100.359,86.72Zm0-4.245c-.329,0-.6-.44-.6-.983s.266-.983.6-.983.6.44.6.983S100.688,82.475,100.359,82.475Zm0-4.245c-.329,0-.6-.44-.6-.983s.266-.983.6-.983.6.44.6.983S100.688,78.23,100.359,78.23Zm0-4.245c-.329,0-.6-.44-.6-.983s.266-.983.6-.983.6.44.6.983S100.688,73.984,100.359,73.984Zm0-4.245c-.329,0-.6-.44-.6-.983s.266-.983.6-.983.6.44.6.983S100.688,69.739,100.359,69.739Zm0-4.245c-.329,0-.6-.44-.6-.983s.266-.983.6-.983.6.44.6.983S100.688,65.494,100.359,65.494Zm0-4.245c-.329,0-.6-.44-.6-.983s.266-.983.6-.983.6.44.6.983S100.688,61.248,100.359,61.248Zm0-4.245c-.329,0-.6-.44-.6-.983s.266-.983.6-.983.6.44.6.983S100.688,57,100.359,57Zm0-4.245c-.329,0-.6-.44-.6-.983s.266-.983.6-.983.6.44.6.983S100.688,52.757,100.359,52.757Zm0-4.245c-.329,0-.6-.44-.6-.983s.266-.983.6-.983.6.44.6.983S100.688,48.512,100.359,48.512Zm2.571,123.116c-.329,0-.6-.44-.6-.983s.266-.983.6-.983.6.44.6.983S103.259,171.628,102.93,171.628Zm0-4.245c-.329,0-.6-.44-.6-.983s.266-.983.6-.983.6.44.6.983S103.259,167.382,102.93,167.382Zm0-4.245c-.329,0-.6-.44-.6-.983s.266-.983.6-.983.6.44.6.983S103.259,163.137,102.93,163.137Zm0-4.245c-.329,0-.6-.44-.6-.983s.266-.983.6-.983.6.44.6.983S103.259,158.892,102.93,158.892Zm0-4.245c-.329,0-.6-.44-.6-.983s.266-.983.6-.983.6.44.6.983S103.259,154.646,102.93,154.646Zm0-4.245c-.329,0-.6-.44-.6-.983s.266-.983.6-.983.6.44.6.983S103.259,150.4,102.93,150.4Zm0-4.245c-.329,0-.6-.44-.6-.983s.266-.983.6-.983.6.44.6.983S103.259,146.156,102.93,146.156Zm0-4.245c-.329,0-.6-.44-.6-.983s.266-.983.6-.983.6.44.6.983S103.259,141.91,102.93,141.91Zm0-4.245c-.329,0-.6-.44-.6-.983s.266-.983.6-.983.6.44.6.983S103.259,137.665,102.93,137.665Zm0-4.245c-.329,0-.6-.44-.6-.983s.266-.983.6-.983.6.44.6.983S103.259,133.419,102.93,133.419Zm0-4.245c-.329,0-.6-.44-.6-.983s.266-.983.6-.983.6.44.6.983S103.259,129.174,102.93,129.174Zm0-4.245c-.329,0-.6-.44-.6-.983s.266-.983.6-.983.6.44.6.983S103.259,124.929,102.93,124.929Zm0-4.245c-.329,0-.6-.44-.6-.983s.266-.983.6-.983.6.44.6.983S103.259,120.683,102.93,120.683Zm0-4.245c-.329,0-.6-.44-.6-.983s.266-.983.6-.983.6.44.6.983S103.259,116.438,102.93,116.438Zm0-4.245c-.329,0-.6-.44-.6-.983s.266-.983.6-.983.6.44.6.983S103.259,112.193,102.93,112.193Zm0-4.245c-.329,0-.6-.44-.6-.983s.266-.983.6-.983.6.44.6.983S103.259,107.947,102.93,107.947Zm0-4.245c-.329,0-.6-.44-.6-.983s.266-.983.6-.983.6.44.6.983S103.259,103.7,102.93,103.7Zm0-4.245c-.329,0-.6-.44-.6-.983s.266-.983.6-.983.6.44.6.983S103.259,99.457,102.93,99.457Zm0-4.245c-.329,0-.6-.44-.6-.983s.266-.983.6-.983.6.44.6.983S103.259,95.211,102.93,95.211Zm0-4.245c-.329,0-.6-.44-.6-.983s.266-.983.6-.983.6.44.6.983S103.259,90.966,102.93,90.966Zm0-4.245c-.329,0-.6-.44-.6-.983s.266-.983.6-.983.6.44.6.983S103.259,86.72,102.93,86.72Zm0-4.245c-.329,0-.6-.44-.6-.983s.266-.983.6-.983.6.44.6.983S103.259,82.475,102.93,82.475Zm0-4.245c-.329,0-.6-.44-.6-.983s.266-.983.6-.983.6.44.6.983S103.259,78.23,102.93,78.23Zm0-4.245c-.329,0-.6-.44-.6-.983s.266-.983.6-.983.6.44.6.983S103.259,73.984,102.93,73.984Zm0-4.245c-.329,0-.6-.44-.6-.983s.266-.983.6-.983.6.44.6.983S103.259,69.739,102.93,69.739Zm0-4.245c-.329,0-.6-.44-.6-.983s.266-.983.6-.983.6.44.6.983S103.259,65.494,102.93,65.494Zm0-4.245c-.329,0-.6-.44-.6-.983s.266-.983.6-.983.6.44.6.983S103.259,61.248,102.93,61.248Zm0-4.245c-.329,0-.6-.44-.6-.983s.266-.983.6-.983.6.44.6.983S103.259,57,102.93,57Zm0-4.245c-.329,0-.6-.44-.6-.983s.266-.983.6-.983.6.44.6.983S103.259,52.757,102.93,52.757Zm0-4.245c-.329,0-.6-.44-.6-.983s.266-.983.6-.983.6.44.6.983S103.259,48.512,102.93,48.512Zm2.571,118.87c-.329,0-.6-.44-.6-.983s.266-.983.6-.983.6.44.6.983S105.83,167.382,105.5,167.382Zm0-4.245c-.329,0-.6-.44-.6-.983s.266-.983.6-.983.6.44.6.983S105.83,163.137,105.5,163.137Zm0-4.245c-.329,0-.6-.44-.6-.983s.266-.983.6-.983.6.44.6.983S105.83,158.892,105.5,158.892Zm0-4.245c-.329,0-.6-.44-.6-.983s.266-.983.6-.983.6.44.6.983S105.83,154.646,105.5,154.646Zm0-4.245c-.329,0-.6-.44-.6-.983s.266-.983.6-.983.6.44.6.983S105.83,150.4,105.5,150.4Zm0-4.245c-.329,0-.6-.44-.6-.983s.266-.983.6-.983.6.44.6.983S105.83,146.156,105.5,146.156Zm0-4.245c-.329,0-.6-.44-.6-.983s.266-.983.6-.983.6.44.6.983S105.83,141.91,105.5,141.91Zm0-4.245c-.329,0-.6-.44-.6-.983s.266-.983.6-.983.6.44.6.983S105.83,137.665,105.5,137.665Zm0-4.245c-.329,0-.6-.44-.6-.983s.266-.983.6-.983.6.44.6.983S105.83,133.419,105.5,133.419Zm0-4.245c-.329,0-.6-.44-.6-.983s.266-.983.6-.983.6.44.6.983S105.83,129.174,105.5,129.174Zm0-4.245c-.329,0-.6-.44-.6-.983s.266-.983.6-.983.6.44.6.983S105.83,124.929,105.5,124.929Zm0-4.245c-.329,0-.6-.44-.6-.983s.266-.983.6-.983.6.44.6.983S105.83,120.683,105.5,120.683Zm0-4.245c-.329,0-.6-.44-.6-.983s.266-.983.6-.983.6.44.6.983S105.83,116.438,105.5,116.438Zm0-4.245c-.329,0-.6-.44-.6-.983s.266-.983.6-.983.6.44.6.983S105.83,112.193,105.5,112.193Zm0-4.245c-.329,0-.6-.44-.6-.983s.266-.983.6-.983.6.44.6.983S105.83,107.947,105.5,107.947Zm0-4.245c-.329,0-.6-.44-.6-.983s.266-.983.6-.983.6.44.6.983S105.83,103.7,105.5,103.7Zm0-4.245c-.329,0-.6-.44-.6-.983s.266-.983.6-.983.6.44.6.983S105.83,99.457,105.5,99.457Zm0-4.245c-.329,0-.6-.44-.6-.983s.266-.983.6-.983.6.44.6.983S105.83,95.211,105.5,95.211Zm0-4.245c-.329,0-.6-.44-.6-.983s.266-.983.6-.983.6.44.6.983S105.83,90.966,105.5,90.966Zm0-4.245c-.329,0-.6-.44-.6-.983s.266-.983.6-.983.6.44.6.983S105.83,86.72,105.5,86.72Zm0-4.245c-.329,0-.6-.44-.6-.983s.266-.983.6-.983.6.44.6.983S105.83,82.475,105.5,82.475Zm0-4.245c-.329,0-.6-.44-.6-.983s.266-.983.6-.983.6.44.6.983S105.83,78.23,105.5,78.23Zm0-4.245c-.329,0-.6-.44-.6-.983s.266-.983.6-.983.6.44.6.983S105.83,73.984,105.5,73.984Zm0-4.245c-.329,0-.6-.44-.6-.983s.266-.983.6-.983.6.44.6.983S105.83,69.739,105.5,69.739Zm0-4.245c-.329,0-.6-.44-.6-.983s.266-.983.6-.983.6.44.6.983S105.83,65.494,105.5,65.494Zm0-4.245c-.329,0-.6-.44-.6-.983s.266-.983.6-.983.6.44.6.983S105.83,61.248,105.5,61.248Zm0-4.245c-.329,0-.6-.44-.6-.983s.266-.983.6-.983.6.44.6.983S105.83,57,105.5,57Zm0-4.245c-.329,0-.6-.44-.6-.983s.266-.983.6-.983.6.44.6.983S105.83,52.757,105.5,52.757Zm2.571,110.38c-.329,0-.6-.44-.6-.983s.266-.983.6-.983.6.44.6.983S108.4,163.137,108.073,163.137Zm0-4.245c-.329,0-.6-.44-.6-.983s.266-.983.6-.983.6.44.6.983S108.4,158.892,108.073,158.892Zm0-4.245c-.329,0-.6-.44-.6-.983s.266-.983.6-.983.6.44.6.983S108.4,154.646,108.073,154.646Zm0-4.245c-.329,0-.6-.44-.6-.983s.266-.983.6-.983.6.44.6.983S108.4,150.4,108.073,150.4Zm0-4.245c-.329,0-.6-.44-.6-.983s.266-.983.6-.983.6.44.6.983S108.4,146.156,108.073,146.156Zm0-4.245c-.329,0-.6-.44-.6-.983s.266-.983.6-.983.6.44.6.983S108.4,141.91,108.073,141.91Zm0-4.245c-.329,0-.6-.44-.6-.983s.266-.983.6-.983.6.44.6.983S108.4,137.665,108.073,137.665Zm0-4.245c-.329,0-.6-.44-.6-.983s.266-.983.6-.983.6.44.6.983S108.4,133.419,108.073,133.419Zm0-4.245c-.329,0-.6-.44-.6-.983s.266-.983.6-.983.6.44.6.983S108.4,129.174,108.073,129.174Zm0-4.245c-.329,0-.6-.44-.6-.983s.266-.983.6-.983.6.44.6.983S108.4,124.929,108.073,124.929Zm0-4.245c-.329,0-.6-.44-.6-.983s.266-.983.6-.983.6.44.6.983S108.4,120.683,108.073,120.683Zm0-4.245c-.329,0-.6-.44-.6-.983s.266-.983.6-.983.6.44.6.983S108.4,116.438,108.073,116.438Zm0-4.245c-.329,0-.6-.44-.6-.983s.266-.983.6-.983.6.44.6.983S108.4,112.193,108.073,112.193Zm0-4.245c-.329,0-.6-.44-.6-.983s.266-.983.6-.983.6.44.6.983S108.4,107.947,108.073,107.947Zm0-4.245c-.329,0-.6-.44-.6-.983s.266-.983.6-.983.6.44.6.983S108.4,103.7,108.073,103.7Zm0-4.245c-.329,0-.6-.44-.6-.983s.266-.983.6-.983.6.44.6.983S108.4,99.457,108.073,99.457Zm0-4.245c-.329,0-.6-.44-.6-.983s.266-.983.6-.983.6.44.6.983S108.4,95.211,108.073,95.211Zm0-4.245c-.329,0-.6-.44-.6-.983s.266-.983.6-.983.6.44.6.983S108.4,90.966,108.073,90.966Zm0-4.245c-.329,0-.6-.44-.6-.983s.266-.983.6-.983.6.44.6.983S108.4,86.72,108.073,86.72Zm0-4.245c-.329,0-.6-.44-.6-.983s.266-.983.6-.983.6.44.6.983S108.4,82.475,108.073,82.475Zm0-4.245c-.329,0-.6-.44-.6-.983s.266-.983.6-.983.6.44.6.983S108.4,78.23,108.073,78.23Zm0-4.245c-.329,0-.6-.44-.6-.983s.266-.983.6-.983.6.44.6.983S108.4,73.984,108.073,73.984Zm0-4.245c-.329,0-.6-.44-.6-.983s.266-.983.6-.983.6.44.6.983S108.4,69.739,108.073,69.739Zm0-4.245c-.329,0-.6-.44-.6-.983s.266-.983.6-.983.6.44.6.983S108.4,65.494,108.073,65.494Zm0-4.245c-.329,0-.6-.44-.6-.983s.266-.983.6-.983.6.44.6.983S108.4,61.248,108.073,61.248Zm0-4.245c-.329,0-.6-.44-.6-.983s.266-.983.6-.983.6.44.6.983S108.4,57,108.073,57Zm2.571,106.134c-.329,0-.6-.44-.6-.983s.266-.983.6-.983.6.44.6.983S110.973,163.137,110.644,163.137Zm0-4.245c-.329,0-.6-.44-.6-.983s.266-.983.6-.983.6.44.6.983S110.973,158.892,110.644,158.892Zm0-4.245c-.329,0-.6-.44-.6-.983s.266-.983.6-.983.6.44.6.983S110.973,154.646,110.644,154.646Zm0-4.245c-.329,0-.6-.44-.6-.983s.266-.983.6-.983.6.44.6.983S110.973,150.4,110.644,150.4Zm0-4.245c-.329,0-.6-.44-.6-.983s.266-.983.6-.983.6.44.6.983S110.973,146.156,110.644,146.156Zm0-4.245c-.329,0-.6-.44-.6-.983s.266-.983.6-.983.6.44.6.983S110.973,141.91,110.644,141.91Zm0-4.245c-.329,0-.6-.44-.6-.983s.266-.983.6-.983.6.44.6.983S110.973,137.665,110.644,137.665Zm0-4.245c-.329,0-.6-.44-.6-.983s.266-.983.6-.983.6.44.6.983S110.973,133.419,110.644,133.419Zm0-4.245c-.329,0-.6-.44-.6-.983s.266-.983.6-.983.6.44.6.983S110.973,129.174,110.644,129.174Zm0-4.245c-.329,0-.6-.44-.6-.983s.266-.983.6-.983.6.44.6.983S110.973,124.929,110.644,124.929Zm0-4.245c-.329,0-.6-.44-.6-.983s.266-.983.6-.983.6.44.6.983S110.973,120.683,110.644,120.683Zm0-4.245c-.329,0-.6-.44-.6-.983s.266-.983.6-.983.6.44.6.983S110.973,116.438,110.644,116.438Zm0-4.245c-.329,0-.6-.44-.6-.983s.266-.983.6-.983.6.44.6.983S110.973,112.193,110.644,112.193Zm0-4.245c-.329,0-.6-.44-.6-.983s.266-.983.6-.983.6.44.6.983S110.973,107.947,110.644,107.947Zm0-4.245c-.329,0-.6-.44-.6-.983s.266-.983.6-.983.6.44.6.983S110.973,103.7,110.644,103.7Zm0-4.245c-.329,0-.6-.44-.6-.983s.266-.983.6-.983.6.44.6.983S110.973,99.457,110.644,99.457Zm0-4.245c-.329,0-.6-.44-.6-.983s.266-.983.6-.983.6.44.6.983S110.973,95.211,110.644,95.211Zm0-4.245c-.329,0-.6-.44-.6-.983s.266-.983.6-.983.6.44.6.983S110.973,90.966,110.644,90.966Zm0-4.245c-.329,0-.6-.44-.6-.983s.266-.983.6-.983.6.44.6.983S110.973,86.72,110.644,86.72Zm0-4.245c-.329,0-.6-.44-.6-.983s.266-.983.6-.983.6.44.6.983S110.973,82.475,110.644,82.475Zm0-4.245c-.329,0-.6-.44-.6-.983s.266-.983.6-.983.6.44.6.983S110.973,78.23,110.644,78.23Zm0-4.245c-.329,0-.6-.44-.6-.983s.266-.983.6-.983.6.44.6.983S110.973,73.984,110.644,73.984Zm0-4.245c-.329,0-.6-.44-.6-.983s.266-.983.6-.983.6.44.6.983S110.973,69.739,110.644,69.739Zm0-4.245c-.329,0-.6-.44-.6-.983s.266-.983.6-.983.6.44.6.983S110.973,65.494,110.644,65.494Zm0-4.245c-.329,0-.6-.44-.6-.983s.266-.983.6-.983.6.44.6.983S110.973,61.248,110.644,61.248Zm0-4.245c-.329,0-.6-.44-.6-.983s.266-.983.6-.983.6.44.6.983S110.973,57,110.644,57Zm2.571,101.889c-.329,0-.6-.44-.6-.983s.266-.983.6-.983.6.44.6.983S113.544,158.892,113.215,158.892Zm0-4.245c-.329,0-.6-.44-.6-.983s.266-.983.6-.983.6.44.6.983S113.544,154.646,113.215,154.646Zm0-4.245c-.329,0-.6-.44-.6-.983s.266-.983.6-.983.6.44.6.983S113.544,150.4,113.215,150.4Zm0-4.245c-.329,0-.6-.44-.6-.983s.266-.983.6-.983.6.44.6.983S113.544,146.156,113.215,146.156Zm0-4.245c-.329,0-.6-.44-.6-.983s.266-.983.6-.983.6.44.6.983S113.544,141.91,113.215,141.91Zm0-4.245c-.329,0-.6-.44-.6-.983s.266-.983.6-.983.6.44.6.983S113.544,137.665,113.215,137.665Zm0-4.245c-.329,0-.6-.44-.6-.983s.266-.983.6-.983.6.44.6.983S113.544,133.419,113.215,133.419Zm0-4.245c-.329,0-.6-.44-.6-.983s.266-.983.6-.983.6.44.6.983S113.544,129.174,113.215,129.174Zm0-4.245c-.329,0-.6-.44-.6-.983s.266-.983.6-.983.6.44.6.983S113.544,124.929,113.215,124.929Zm0-4.245c-.329,0-.6-.44-.6-.983s.266-.983.6-.983.6.44.6.983S113.544,120.683,113.215,120.683Zm0-4.245c-.329,0-.6-.44-.6-.983s.266-.983.6-.983.6.44.6.983S113.544,116.438,113.215,116.438Zm0-4.245c-.329,0-.6-.44-.6-.983s.266-.983.6-.983.6.44.6.983S113.544,112.193,113.215,112.193Zm0-4.245c-.329,0-.6-.44-.6-.983s.266-.983.6-.983.6.44.6.983S113.544,107.947,113.215,107.947Zm0-4.245c-.329,0-.6-.44-.6-.983s.266-.983.6-.983.6.44.6.983S113.544,103.7,113.215,103.7Zm0-4.245c-.329,0-.6-.44-.6-.983s.266-.983.6-.983.6.44.6.983S113.544,99.457,113.215,99.457Zm0-4.245c-.329,0-.6-.44-.6-.983s.266-.983.6-.983.6.44.6.983S113.544,95.211,113.215,95.211Zm0-4.245c-.329,0-.6-.44-.6-.983s.266-.983.6-.983.6.44.6.983S113.544,90.966,113.215,90.966Zm0-4.245c-.329,0-.6-.44-.6-.983s.266-.983.6-.983.6.44.6.983S113.544,86.72,113.215,86.72Zm0-4.245c-.329,0-.6-.44-.6-.983s.266-.983.6-.983.6.44.6.983S113.544,82.475,113.215,82.475Zm0-4.245c-.329,0-.6-.44-.6-.983s.266-.983.6-.983.6.44.6.983S113.544,78.23,113.215,78.23Zm0-4.245c-.329,0-.6-.44-.6-.983s.266-.983.6-.983.6.44.6.983S113.544,73.984,113.215,73.984Zm0-4.245c-.329,0-.6-.44-.6-.983s.266-.983.6-.983.6.44.6.983S113.544,69.739,113.215,69.739Zm0-4.245c-.329,0-.6-.44-.6-.983s.266-.983.6-.983.6.44.6.983S113.544,65.494,113.215,65.494Zm0-4.245c-.329,0-.6-.44-.6-.983s.266-.983.6-.983.6.44.6.983S113.544,61.248,113.215,61.248Zm2.571,89.153c-.329,0-.6-.44-.6-.983s.266-.983.6-.983.6.44.6.983S116.115,150.4,115.786,150.4Zm0-4.245c-.329,0-.6-.44-.6-.983s.266-.983.6-.983.6.44.6.983S116.115,146.156,115.786,146.156Zm0-4.245c-.329,0-.6-.44-.6-.983s.266-.983.6-.983.6.44.6.983S116.115,141.91,115.786,141.91Zm0-4.245c-.329,0-.6-.44-.6-.983s.266-.983.6-.983.6.44.6.983S116.115,137.665,115.786,137.665Zm0-4.245c-.329,0-.6-.44-.6-.983s.266-.983.6-.983.6.44.6.983S116.115,133.419,115.786,133.419Zm0-4.245c-.329,0-.6-.44-.6-.983s.266-.983.6-.983.6.44.6.983S116.115,129.174,115.786,129.174Zm0-4.245c-.329,0-.6-.44-.6-.983s.266-.983.6-.983.6.44.6.983S116.115,124.929,115.786,124.929Zm0-4.245c-.329,0-.6-.44-.6-.983s.266-.983.6-.983.6.44.6.983S116.115,120.683,115.786,120.683Zm0-4.245c-.329,0-.6-.44-.6-.983s.266-.983.6-.983.6.44.6.983S116.115,116.438,115.786,116.438Zm0-4.245c-.329,0-.6-.44-.6-.983s.266-.983.6-.983.6.44.6.983S116.115,112.193,115.786,112.193Zm0-4.245c-.329,0-.6-.44-.6-.983s.266-.983.6-.983.6.44.6.983S116.115,107.947,115.786,107.947Zm0-4.245c-.329,0-.6-.44-.6-.983s.266-.983.6-.983.6.44.6.983S116.115,103.7,115.786,103.7Zm0-4.245c-.329,0-.6-.44-.6-.983s.266-.983.6-.983.6.44.6.983S116.115,99.457,115.786,99.457Zm0-4.245c-.329,0-.6-.44-.6-.983s.266-.983.6-.983.6.44.6.983S116.115,95.211,115.786,95.211Zm0-4.245c-.329,0-.6-.44-.6-.983s.266-.983.6-.983.6.44.6.983S116.115,90.966,115.786,90.966Zm0-4.245c-.329,0-.6-.44-.6-.983s.266-.983.6-.983.6.44.6.983S116.115,86.72,115.786,86.72Zm0-4.245c-.329,0-.6-.44-.6-.983s.266-.983.6-.983.6.44.6.983S116.115,82.475,115.786,82.475Zm0-4.245c-.329,0-.6-.44-.6-.983s.266-.983.6-.983.6.44.6.983S116.115,78.23,115.786,78.23Zm0-4.245c-.329,0-.6-.44-.6-.983s.266-.983.6-.983.6.44.6.983S116.115,73.984,115.786,73.984Zm0-4.245c-.329,0-.6-.44-.6-.983s.266-.983.6-.983.6.44.6.983S116.115,69.739,115.786,69.739Zm2.571,76.417c-.329,0-.6-.44-.6-.983s.266-.983.6-.983.6.44.6.983S118.686,146.156,118.358,146.156Zm0-4.245c-.329,0-.6-.44-.6-.983s.266-.983.6-.983.6.44.6.983S118.686,141.91,118.358,141.91Zm0-4.245c-.329,0-.6-.44-.6-.983s.266-.983.6-.983.6.44.6.983S118.686,137.665,118.358,137.665Zm0-4.245c-.329,0-.6-.44-.6-.983s.266-.983.6-.983.6.44.6.983S118.686,133.419,118.358,133.419Zm0-4.245c-.329,0-.6-.44-.6-.983s.266-.983.6-.983.6.44.6.983S118.686,129.174,118.358,129.174Zm0-4.245c-.329,0-.6-.44-.6-.983s.266-.983.6-.983.6.44.6.983S118.686,124.929,118.358,124.929Zm0-4.245c-.329,0-.6-.44-.6-.983s.266-.983.6-.983.6.44.6.983S118.686,120.683,118.358,120.683Zm0-4.245c-.329,0-.6-.44-.6-.983s.266-.983.6-.983.6.44.6.983S118.686,116.438,118.358,116.438Zm0-4.245c-.329,0-.6-.44-.6-.983s.266-.983.6-.983.6.44.6.983S118.686,112.193,118.358,112.193Zm0-4.245c-.329,0-.6-.44-.6-.983s.266-.983.6-.983.6.44.6.983S118.686,107.947,118.358,107.947Zm0-4.245c-.329,0-.6-.44-.6-.983s.266-.983.6-.983.6.44.6.983S118.686,103.7,118.358,103.7Zm0-4.245c-.329,0-.6-.44-.6-.983s.266-.983.6-.983.6.44.6.983S118.686,99.457,118.358,99.457Zm0-4.245c-.329,0-.6-.44-.6-.983s.266-.983.6-.983.6.44.6.983S118.686,95.211,118.358,95.211Zm0-4.245c-.329,0-.6-.44-.6-.983s.266-.983.6-.983.6.44.6.983S118.686,90.966,118.358,90.966Zm0-4.245c-.329,0-.6-.44-.6-.983s.266-.983.6-.983.6.44.6.983S118.686,86.72,118.358,86.72Zm0-4.245c-.329,0-.6-.44-.6-.983s.266-.983.6-.983.6.44.6.983S118.686,82.475,118.358,82.475Zm0-4.245c-.329,0-.6-.44-.6-.983s.266-.983.6-.983.6.44.6.983S118.686,78.23,118.358,78.23Zm0-4.245c-.329,0-.6-.44-.6-.983s.266-.983.6-.983.6.44.6.983S118.686,73.984,118.358,73.984Zm2.571,63.681c-.329,0-.6-.44-.6-.983s.266-.983.6-.983.6.44.6.983S121.257,137.665,120.929,137.665Zm0-4.245c-.329,0-.6-.44-.6-.983s.266-.983.6-.983.6.44.6.983S121.257,133.419,120.929,133.419Zm0-4.245c-.329,0-.6-.44-.6-.983s.266-.983.6-.983.6.44.6.983S121.257,129.174,120.929,129.174Zm0-4.245c-.329,0-.6-.44-.6-.983s.266-.983.6-.983.6.44.6.983S121.257,124.929,120.929,124.929Zm0-4.245c-.329,0-.6-.44-.6-.983s.266-.983.6-.983.6.44.6.983S121.257,120.683,120.929,120.683Zm0-4.245c-.329,0-.6-.44-.6-.983s.266-.983.6-.983.6.44.6.983S121.257,116.438,120.929,116.438Zm0-4.245c-.329,0-.6-.44-.6-.983s.266-.983.6-.983.6.44.6.983S121.257,112.193,120.929,112.193Zm0-4.245c-.329,0-.6-.44-.6-.983s.266-.983.6-.983.6.44.6.983S121.257,107.947,120.929,107.947Zm0-4.245c-.329,0-.6-.44-.6-.983s.266-.983.6-.983.6.44.6.983S121.257,103.7,120.929,103.7Zm0-4.245c-.329,0-.6-.44-.6-.983s.266-.983.6-.983.6.44.6.983S121.257,99.457,120.929,99.457Zm0-4.245c-.329,0-.6-.44-.6-.983s.266-.983.6-.983.6.44.6.983S121.257,95.211,120.929,95.211Zm0-4.245c-.329,0-.6-.44-.6-.983s.266-.983.6-.983.6.44.6.983S121.257,90.966,120.929,90.966Zm0-4.245c-.329,0-.6-.44-.6-.983s.266-.983.6-.983.6.44.6.983S121.257,86.72,120.929,86.72Zm0-4.245c-.329,0-.6-.44-.6-.983s.266-.983.6-.983.6.44.6.983S121.257,82.475,120.929,82.475Zm2.571,42.454c-.329,0-.6-.44-.6-.983s.266-.983.6-.983.6.44.6.983S123.829,124.929,123.5,124.929Zm0-4.245c-.329,0-.6-.44-.6-.983s.266-.983.6-.983.6.44.6.983S123.829,120.683,123.5,120.683Zm0-4.245c-.329,0-.6-.44-.6-.983s.266-.983.6-.983.6.44.6.983S123.829,116.438,123.5,116.438Zm0-4.245c-.329,0-.6-.44-.6-.983s.266-.983.6-.983.6.44.6.983S123.829,112.193,123.5,112.193Zm0-4.245c-.329,0-.6-.44-.6-.983s.266-.983.6-.983.6.44.6.983S123.829,107.947,123.5,107.947Zm0-4.245c-.329,0-.6-.44-.6-.983s.266-.983.6-.983.6.44.6.983S123.829,103.7,123.5,103.7Zm0-4.245c-.329,0-.6-.44-.6-.983s.266-.983.6-.983.6.44.6.983S123.829,99.457,123.5,99.457Zm0-4.245c-.329,0-.6-.44-.6-.983s.266-.983.6-.983.6.44.6.983S123.829,95.211,123.5,95.211Z" transform="translate(599.702 438.992)" fill="#26aab7"/>
        <path id="Shape_2" data-name="Shape 2" d="M94.855,0V86.436H0A13.133,13.133,0,0,1,1.979,85.1c3.537-1.928,7.44-2.4,10.855-4.783,3.605-2.514,6.242-6.624,8.274-11.35,2.109-4.905,3.851-10.041,7.1-13.767,3.572-4.093,8.184-6.094,12.675-7.411s8.516-4.585,11.49-9.42c1.684-2.738,2.985-5.881,4.638-8.654,2.045-3.427,4.6-5.632,7.77-6.505,2.727-.752,5.865-.864,8.153-3.308,1.614-1.724,2.284-4.363,2.688-7.014.691-4.542.653-10.552,3.933-12.89Z" transform="translate(94.855 86.436) rotate(180)" fill="#7d6eb2"/>
      </g>
    </g>
  </g>
</svg>
