<svg xmlns="http://www.w3.org/2000/svg" xmlns:xlink="http://www.w3.org/1999/xlink" width="230" height="191.537" viewBox="0 0 230 191.537">
  <defs>
    <clipPath id="clip-path">
      <rect id="Rectángulo_401915" data-name="Rectángulo 401915" width="203.136" height="191.537" fill="none"/>
    </clipPath>
    <clipPath id="clip-path-3">
      <rect id="Rectángulo_401908" data-name="Rectángulo 401908" width="43.815" height="71.258" transform="translate(95.244 86.63)" fill="none"/>
    </clipPath>
    <clipPath id="clip-path-4">
      <rect id="Rectángulo_401911" data-name="Rectángulo 401911" width="32.998" height="51.348" transform="translate(98.744 67.162)" fill="none"/>
    </clipPath>
  </defs>
  <g id="Grupo_1100858" data-name="Grupo 1100858" transform="translate(-265 -5632)">
    <path id="Rectángulo_401916" data-name="Rectángulo 401916" d="M40,0H190a40,40,0,0,1,40,40V82a0,0,0,0,1,0,0H0a0,0,0,0,1,0,0V40A40,40,0,0,1,40,0Z" transform="translate(265 5722)" fill="#26aab7" opacity="0.74"/>
    <g id="Grupo_1100816" data-name="Grupo 1100816" transform="translate(280 5632)">
      <g id="Grupo_1100815" data-name="Grupo 1100815" clip-path="url(#clip-path)">
        <g id="Grupo_1100814" data-name="Grupo 1100814">
          <g id="Grupo_1100813" data-name="Grupo 1100813" clip-path="url(#clip-path)">
            <path id="Trazado_875151" data-name="Trazado 875151" d="M85.125,170.251A85.125,85.125,0,1,1,170.25,85.126a85.222,85.222,0,0,1-85.125,85.125m0-166.08A80.955,80.955,0,1,0,166.08,85.126,81.046,81.046,0,0,0,85.125,4.171" fill="#7d6eb2"/>
            <path id="Trazado_875152" data-name="Trazado 875152" d="M158.64,85.126A73.515,73.515,0,1,1,85.125,11.611,73.515,73.515,0,0,1,158.64,85.126" fill="#7d6eb2"/>
            <path id="Trazado_875153" data-name="Trazado 875153" d="M102.7,28.577c.295.09.584.191.877.286l-.012,0c-.292-.094-.573-.188-.865-.282" fill="#ffc727"/>
            <path id="Trazado_875154" data-name="Trazado 875154" d="M106.42,29.87c-.935-.367-1.886-.7-2.845-1.007.955.311,1.91.644,2.845,1.007" fill="#ffc727"/>
            <path id="Trazado_875155" data-name="Trazado 875155" d="M97.068,27.138c.386.073.761.156,1.136.24-.271-.063-.542-.125-.813-.178-.1-.02-.219-.041-.323-.062" fill="#ffc727"/>
            <path id="Trazado_875156" data-name="Trazado 875156" d="M93.085,24.021a2.857,2.857,0,0,1,.427.063c-.1-.021-.208-.042-.312-.053Z" fill="#ffc727"/>
            <path id="Trazado_875157" data-name="Trazado 875157" d="M92.689,26.408c-.24-.031-.469-.063-.7-.083.385.052.771.093,1.157.145-.157-.02-.3-.041-.459-.062" fill="#ffc727"/>
            <path id="Trazado_875158" data-name="Trazado 875158" d="M89.03,27.107c.229.01.448.031.678.052a.41.41,0,0,1,.125.011,1.249,1.249,0,0,1,.2.01c-.334-.031-.667-.063-1-.073" fill="#ffc727"/>
            <path id="Trazado_875159" data-name="Trazado 875159" d="M91.98,34.123c.907.115,1.793.261,2.69.427-.9-.177-1.793-.312-2.69-.427" fill="#ffc727"/>
            <path id="Trazado_875160" data-name="Trazado 875160" d="M123.977,92.633l.01.02.063-.406c-.021.125-.042.26-.073.386M68.992,35.145l.01.021q.83-.266,1.658-.5ZM91.98,34.124c.907.114,1.794.26,2.69.427-.9-.177-1.793-.313-2.69-.427M104.8,36.438c.094.042.2.083.292.125v-.01c-.094-.042-.2-.084-.292-.115" fill="#ffc727"/>
            <path id="Trazado_875161" data-name="Trazado 875161" d="M123.977,92.632l.01.021.063-.407c-.021.125-.042.261-.073.386M64.508,131.3l.6-1.4-.031-.011Zm-.74,1.8,1.606.656-1.6-.688ZM91.98,34.123c.907.115,1.793.261,2.69.427-.9-.177-1.793-.312-2.69-.427" fill="#ffc727"/>
            <path id="Trazado_875162" data-name="Trazado 875162" d="M123.977,92.632l.009.021.063-.407c-.021.125-.042.261-.072.386" fill="#ffc727"/>
            <path id="Trazado_875163" data-name="Trazado 875163" d="M79.094,116.987l.646.167.011-.042-.657-.125" fill="#ffc727"/>
            <path id="Trazado_875164" data-name="Trazado 875164" d="M14.319,83.5c-.011.553-.021,1.1-.021,1.627a69.91,69.91,0,0,0,7.11,30.964l.9,1.794.656,1.3.042-.021a70.9,70.9,0,0,0,83.958,33.393L108.64,152l1.605-.531-.01-.042v-.01a70.756,70.756,0,0,0,37.282-32.6l.824-1.532-3.044-1.647-.824,1.532a67.279,67.279,0,0,1-35.333,30.954l-1.814-5.494a62.17,62.17,0,0,0,28.41-22.311,57.666,57.666,0,0,0,3.7-6.016,61.531,61.531,0,0,0,6.944-22.228l5.765.522a66.09,66.09,0,0,1-1.6,8.945l-.428,1.679,3.368.844.417-1.678a68.838,68.838,0,0,0,1.689-9.477h.021l.156-1.731.156-1.72h-.031c.084-1.429.136-2.878.136-4.327A70.869,70.869,0,0,0,45.919,26.116l-1.439.96L46.4,29.964,47.837,29A67.392,67.392,0,0,1,152.553,85.126c0,1.345-.031,2.69-.115,4.014l-5.765-.521c.073-1.168.1-2.325.1-3.493,0-1.731-.083-3.5-.229-5.255l-.146-1.73-3.451.3.146,1.72c.135,1.648.208,3.326.208,4.963a58.129,58.129,0,0,1-6.922,27.534,53.787,53.787,0,0,1-3.483,5.661,58.7,58.7,0,0,1-28.149,21.571l-.177.063-1.616.532.01.031-.031.01.563,1.585,2.377,7.162a67.745,67.745,0,0,1-54.245-5.64l2.982-4.994a61.461,61.461,0,0,0,30.547,8.1h1.731V143.27H85.161a58.019,58.019,0,0,1-30.245-8.476,58.672,58.672,0,0,1-17.421-16.379l4.608-3.253c.563.793,1.136,1.575,1.731,2.336a52.988,52.988,0,0,0,8.5,8.591l1.355,1.084,2.169-2.711L54.5,123.378a48.53,48.53,0,0,1-7.934-8.018q-.844-1.079-1.626-2.189l.031-.021-.959-1.366-.021-.031a47.741,47.741,0,0,1-3.273-5.89,48.612,48.612,0,0,1-4.588-20.737,49.421,49.421,0,0,1,1.543-12.25v-.011a.254.254,0,0,1,.021-.083c.136-.521.281-1.043.427-1.554A49.267,49.267,0,0,1,66.249,39.889l.177-.073,1.429-.563v-.011c1.125-.427,2.283-.813,3.451-1.157.1-.031.2-.062.3-.094a49.314,49.314,0,0,1,13.553-1.9,48.494,48.494,0,0,1,18.558,3.639l1.97.854,1.179.532.01-.021.021.011.511-1.189.271-.615.605-1.345-.021-.01,2.252-5.172A58.053,58.053,0,0,1,128.3,46.144a55.838,55.838,0,0,1,3.659,4.483l-4.5,3.409a52.941,52.941,0,0,0-10.175-10.425l-1.376-1.064-2.117,2.742,1.366,1.053a49.672,49.672,0,0,1,9.54,9.79l-.042.031.99,1.3.052.073a49.154,49.154,0,0,1,8.018,34.384l-5.974-.876c.073-.511.135-1.032.188-1.554.083-.813.135-1.626.177-2.439a1.184,1.184,0,0,1,.01-.188c0-.2.011-.4.011-.594.02-.386.02-.761.02-1.147a43.37,43.37,0,0,0-.99-9.216l-.365-1.689-3.388.729.365,1.7a39.238,39.238,0,0,1,.917,8.476,40.862,40.862,0,0,1-.365,5.411c-.073.553-.167,1.1-.26,1.658l-.011.052-.062.406-.011-.02a38.877,38.877,0,0,1-5,12.969l-5.025-3.388a33.528,33.528,0,0,0,4.681-17.088,33.732,33.732,0,0,0-.793-7.256l-.01-.042-.042-.2L117.491,76l-.125.02a32.656,32.656,0,0,0-3.5-8.132A33.77,33.77,0,0,0,93.6,52.733l-.23-.062-1.595-.48-.031.1a33.939,33.939,0,0,0-11.614-.26l-1.71.25.511,3.43,1.72-.261a30.432,30.432,0,0,1,10.1.188l-1.522,5.192a24.179,24.179,0,0,0-4.066-.344A24.642,24.642,0,0,0,62.1,93.8l.6,1.627,3.253-1.22-.615-1.627a21.055,21.055,0,0,1-1.355-7.454,21.2,21.2,0,0,1,26.054-20.6l1.574.469.01-.031A21.219,21.219,0,0,1,105.21,91.944l-.563,1.648,3.284,1.1.553-1.637a24.811,24.811,0,0,0,.959-12.052l5.3-.97a30.694,30.694,0,0,1,.427,5.088,29.854,29.854,0,0,1-4.754,16.222l-.323.48-.042.052-.146.229a30.012,30.012,0,0,1-18.213,12.3l-.032-.115-1.574.427a29.753,29.753,0,0,1-4.921.407,30.331,30.331,0,0,1-3.774-.24l1.314-5.254a24.1,24.1,0,0,0,2.46.125,24.629,24.629,0,0,0,15.774-5.724l1.335-1.115-2.221-2.649-1.334,1.106a21.187,21.187,0,0,1-13.554,4.91,21.727,21.727,0,0,1-3.409-.271l-1.616-.407-.021.073a20.674,20.674,0,0,1-5.89-2.429l-1.491-.9-1.783,2.96,1.48.9a24.132,24.132,0,0,0,6.85,2.836l-1.314,5.213a29.81,29.81,0,0,1-8.444-3.514,30.23,30.23,0,0,1-7.9-7.016l-.052-.063-.928-1.345-.042.032a29.612,29.612,0,0,1-5.452-17.234,30.124,30.124,0,0,1,17.317-27.2l1.574-.729-1.47-3.139L71,54.787a33.281,33.281,0,0,0-7.8,5.077l-4.066-4.493a39.7,39.7,0,0,1,8.809-5.838,39.542,39.542,0,0,1,50.648,14.5l.918,1.459,2.93-1.845-.918-1.47a43.145,43.145,0,0,0-10.488-11.385l-1.376-1.042-.021.031a42.928,42.928,0,0,0-52.827,3.023l-1.314,1.2-1.251,1.137.052.062A42.518,42.518,0,0,0,42.166,85.126c0,.552.01,1.115.031,1.668.031.574.062,1.147.1,1.71l.073.876c.031.292.063.583.094.865a42.705,42.705,0,0,0,8.466,20.893l.062.083c.334.438.678.876,1.032,1.3a43.092,43.092,0,0,0,15.472,11.8L65.113,129.9l-.6,1.4-.146.365-.584,1.408,1.6.688.146.052q.72.3,1.439.563a52.6,52.6,0,0,0,41.63-2.273,52.92,52.92,0,0,0,19.235-16.4,51.686,51.686,0,0,0,8.726-19.861l.073.01.24-1.658.011-.093.073-.355-.011-.01v-.011a51.071,51.071,0,0,0,.72-8.6A52.153,52.153,0,0,0,129.418,56.9l4.515-3.42a57.918,57.918,0,0,1,6.881,14.742l.5,1.658,3.315-1.012-.5-1.657a61.523,61.523,0,0,0-7.423-15.837l.01-.01-.146-.188A61.79,61.79,0,0,0,111.893,29.6l.021-.042-1.178-.5-.4-.177-1.23-.531-.375-.167v.01c-1.011-.427-2.044-.823-3.076-1.188-.3-.1-.594-.209-.9-.3-.344-.114-.7-.229-1.043-.344-1.6-.5-3.2-.938-4.827-1.3-.334-.083-.678-.156-1.011-.219l-.751-.156c-.813-.167-1.637-.3-2.471-.438-.062-.011-.136-.021-.209-.031-.3-.042-.625-.094-.938-.125a2.857,2.857,0,0,0-.427-.063c-.021,0-.042-.01-.063-.01l-1.032-.126c-.042,0-.073-.01-.115-.01-.093-.011-.2-.021-.291-.031-.074-.011-.157-.011-.23-.021-.177-.021-.354-.042-.532-.052-.156-.011-.3-.032-.458-.042-.959-.083-1.94-.136-2.909-.167-.188-.01-.438-.021-.7-.031-.531-.01-1.063-.021-1.595-.021-.844,0-1.605.021-2.335.052l-1.658.084H81.1v.01a60.915,60.915,0,0,0-17.849,3.889h-.01v-.011l-.855.344-2.366.928.031.073A61.515,61.515,0,0,0,37.818,45.686q-1.361,1.626-2.586,3.336L30.28,46q1.47-2.064,3.118-4.034l1.1-1.324-2.648-2.221-1.116,1.324q-1.8,2.158-3.43,4.431l-.073-.042-.824,1.345-.031.052a70.113,70.113,0,0,0-12.01,36.282v.02l-.146,1.658Zm99.638-6.839-5.328.98A24.407,24.407,0,0,0,92.605,61.647l1.522-5.16a30.224,30.224,0,0,1,16.765,13.2,29.507,29.507,0,0,1,3.065,6.975M51.684,85.126c0,.281,0,.573.021.855l-6.047.511c-.01-.459-.021-.918-.021-1.366a39.087,39.087,0,0,1,11-27.357l4.086,4.514a33.561,33.561,0,0,0-9.039,22.843m6.068,19.2-4.973,3.451a39.146,39.146,0,0,1-6.85-17.828l6.026-.511a32.945,32.945,0,0,0,5.8,14.888m22,12.782-.01.042-.646-.167.656.125m11.02,7.142a40.564,40.564,0,0,1-5.609.4,39.527,39.527,0,0,1-14.742-2.836l-1.553-.667a39.964,39.964,0,0,1-7.611-4.546,38.968,38.968,0,0,1-6.36-6.068l4.994-3.461a33.633,33.633,0,0,0,7.83,6.631A33.215,33.215,0,0,0,78.822,118c.563.1,1.137.209,1.71.292a34.058,34.058,0,0,0,8.643.073Zm.918,3.367c.531-.083,1.063-.177,1.584-.271l.126-.031a42.517,42.517,0,0,0,15.346-6.245l4.1,4.5a49.992,49.992,0,0,1-5.808,3.43,49.213,49.213,0,0,1-38.71,2.179l2.387-5.557a42.975,42.975,0,0,0,14.45,2.481,44.071,44.071,0,0,0,6.527-.49m25.355-19.141a38.858,38.858,0,0,1-7.809,7.986c-.406.323-.813.625-1.23.917l-.052.042-.031.021a38.922,38.922,0,0,1-13.741,6.161L92.6,117.758a33.523,33.523,0,0,0,19.433-12.667ZM133.12,95.343a48.279,48.279,0,0,1-8.112,18.339,49.792,49.792,0,0,1-9.362,9.831l-4.076-4.472a42.533,42.533,0,0,0,8.35-8.633c.157-.2.3-.406.459-.615l.428-.636.3-.448c.261-.386.5-.782.751-1.178a42.462,42.462,0,0,0,5.275-13.074ZM33.273,51.889a60.439,60.439,0,0,0-7.549,16.952l-.041.146c-.146.521-.272,1.053-.4,1.574A59.965,59.965,0,0,0,23.7,80.831l-5.766-.5A66.6,66.6,0,0,1,28.331,48.865ZM91.98,34.123c.9.115,1.793.251,2.69.428-.9-.167-1.783-.313-2.69-.428M64.508,30.766a58.029,58.029,0,0,1,18.381-3.742h.093c.177-.011.355-.011.532-.021.25-.011.511-.021.772-.021.281-.011.573-.011.875-.011.5,0,.991.011,1.491.021.793.021,1.585.052,2.377.115.334.01.667.042,1,.073a2.432,2.432,0,0,1,.282.021,5.847,5.847,0,0,1,.615.062.109.109,0,0,1,.083.011c.167.01.323.021.49.041.063.011.125.011.188.021l.292.032c.177.02.375.041.563.073l.719.093c.094.011.188.032.282.042.2.031.4.052.583.094a5.229,5.229,0,0,1,.584.094c.313.042.615.094.918.156.521.084,1.032.188,1.543.3a.124.124,0,0,1,.062.011c.25.052.49.1.73.167a55.047,55.047,0,0,1,5.651,1.564c.6.2,1.209.417,1.8.635.647.251,1.293.5,1.929.762v.01L105.1,36.553v.01c-.094-.042-.2-.083-.292-.125-.2-.083-.385-.156-.584-.229a51.641,51.641,0,0,0-6.39-2.044c-.407-.094-.824-.2-1.231-.281s-.834-.178-1.251-.261c-1.23-.25-2.481-.448-3.743-.6-.74-.083-1.49-.167-2.252-.219-.375-.031-.761-.062-1.146-.073-.157-.021-.313-.021-.47-.031-.855-.042-1.709-.062-2.575-.062a52.5,52.5,0,0,0-14.5,2.033q-.828.234-1.658.5c-.813.271-1.626.553-2.418.865ZM34.847,70.123l-5.369-1.8a56.991,56.991,0,0,1,6.745-14.628l.063.042.959-1.585.021-.02q1.5-2.175,3.211-4.223A58.185,58.185,0,0,1,61.318,32.1l2.064,5.254A52.71,52.71,0,0,0,34.847,70.123m.74,45.394c-.719-1.147-1.387-2.325-2-3.514l-.041-.073c-.261-.51-.522-1.011-.772-1.522a58.293,58.293,0,0,1-4.191-38.731l5.38,1.8a53.3,53.3,0,0,0-1.293,11.646,52.135,52.135,0,0,0,7.548,27.128ZM26.1,117.623l5.181-2.6c.469.844.959,1.678,1.46,2.492.281.448.563.886.844,1.324l.063.094a62.416,62.416,0,0,0,18.005,17.9l-2.982,4.993A67.389,67.389,0,0,1,26.1,117.623m-8.341-32.5c0-.428.01-.876.021-1.335l5.776.5c-.011.281-.011.552-.011.834a60.833,60.833,0,0,0,6.131,26.836L24.5,114.547a66.636,66.636,0,0,1-6.745-29.421" fill="#ffc727"/>
            <path id="Trazado_875165" data-name="Trazado 875165" d="M51,111.221l.938,1.366.094-.063c-.354-.427-.7-.865-1.032-1.3" fill="#ffc727"/>
            <path id="Trazado_875166" data-name="Trazado 875166" d="M91.688,127.621l.042.156,1.543-.427c-.522.094-1.053.188-1.585.271" fill="#ffc727"/>
            <path id="Trazado_875167" data-name="Trazado 875167" d="M65.52,133.814l1.418.615.021-.052q-.72-.266-1.439-.563" fill="#ffc727"/>
            <path id="Trazado_875168" data-name="Trazado 875168" d="M63.758,133.063l.021.01.584-1.407Z" fill="#ffc727"/>
            <path id="Trazado_875169" data-name="Trazado 875169" d="M124.06,92.194c.094-.553.188-1.105.261-1.658H124.3Z" fill="#ffc727"/>
            <path id="Trazado_875170" data-name="Trazado 875170" d="M108,117.383c.417-.292.824-.594,1.23-.917l-.1-.115Z" fill="#ffc727"/>
            <path id="Trazado_875171" data-name="Trazado 875171" d="M121.109,108.709l.771-1.157-.02-.021c-.251.4-.49.792-.751,1.178" fill="#ffc727"/>
            <path id="Trazado_875172" data-name="Trazado 875172" d="M119.921,110.408l.031.021.428-.636c-.157.208-.3.417-.459.615" fill="#ffc727"/>
            <path id="Trazado_875173" data-name="Trazado 875173" d="M42.375,89.38l.073.865h.021c-.032-.281-.063-.573-.094-.865" fill="#ffc727"/>
            <path id="Trazado_875174" data-name="Trazado 875174" d="M42.156,86.794,42.3,88.5c-.042-.563-.073-1.137-.1-1.71Z" fill="#ffc727"/>
            <path id="Trazado_875175" data-name="Trazado 875175" d="M79.094,116.987l.646.167.011-.042-.657-.125" fill="#ffc727"/>
            <path id="Trazado_875176" data-name="Trazado 875176" d="M79.094,116.987l.646.167.011-.042-.657-.125" fill="#ffc727"/>
            <path id="Trazado_875177" data-name="Trazado 875177" d="M78.823,118l1.679.417.031-.125c-.574-.083-1.147-.188-1.71-.292" fill="#ffc727"/>
            <path id="Trazado_875178" data-name="Trazado 875178" d="M32.772,110.408c.25.511.511,1.011.771,1.522l-.761-1.522Z" fill="#ffc727"/>
            <path id="Trazado_875179" data-name="Trazado 875179" d="M37.673,72.865l.542-1.6-.094-.032c-.146.511-.292,1.032-.427,1.554a.231.231,0,0,0-.021.083" fill="#ffc727"/>
            <path id="Trazado_875180" data-name="Trazado 875180" d="M25.162,70.519l.125.042c.125-.521.25-1.053.4-1.575Z" fill="#ffc727"/>
            <path id="Trazado_875181" data-name="Trazado 875181" d="M32.679,117.56l.907,1.282c-.281-.438-.563-.876-.844-1.324Z" fill="#ffc727"/>
            <path id="Trazado_875182" data-name="Trazado 875182" d="M84.467,140.189a60.227,60.227,0,0,0,15.426-2.06c24.757-6.54,38.325-28.989,40.454-47.079.651-5.529-.189-12.254-.547-15.126-.078-.618-.139-1.107-.139-1.239a21.287,21.287,0,0,1,3.838-1.209c2.948-.785,4.163-1.154,4.294-1.648.757-2.848-6.614-30.959-34.5-44.508a64.272,64.272,0,0,0-71.675,9.62,1.209,1.209,0,0,1-.915.251c-4.25-.307-15.326-13.089-15.437-13.219l-.169-.195-.392.338.169.195c.461.534,11.33,13.075,15.792,13.4a1.715,1.715,0,0,0,1.291-.376,64.579,64.579,0,0,1,98.7,16.295c5.445,9.3,6.967,16.79,6.627,18.069a18.3,18.3,0,0,1-3.927,1.282c-3.322.885-4.222,1.2-4.222,1.708,0,.164.054.593.142,1.3.357,2.854,1.191,9.535.548,15-2.11,17.921-15.55,40.161-40.073,46.639a56.149,56.149,0,0,1-29.408.139c-7.248-1.969-11.926-4.931-12.993-5.814-.585-.483.645-2.3,1.632-3.761,1.049-1.552,1.955-2.891,1.756-3.722a.822.822,0,0,0-.414-.538c-7.953-4.409-14.264-12.394-17.769-22.482A49.156,49.156,0,0,1,41.514,72c6.344-21.316,26.637-34,50.5-31.548,22.412,2.3,34.806,24.461,34.806,26.649-.042.309-1.19,1.086-6.415,3.014-.423.156-.736.271-.913.343a14.865,14.865,0,0,1-.866-1.284c-2.12-3.331-7.751-12.178-18.689-17.229-10.02-4.627-20.185-3.988-23.4-2.617-.523.222-.821.457-.911.719-.215.623.1,2.06.455,3.723.437,2.021,1.035,4.789.3,5.162-.346.176-.742.367-1.178.576-4.419,2.128-13.614,6.555-16.992,18.446-3.636,12.794,4.082,24.178,6.588,25,2.376.792,8.7-6.105,9.415-6.893l.173-.192L74,95.522l-.174.192c-1.873,2.073-7.115,7.322-8.869,6.749-1.891-.622-9.962-11.319-6.253-24.37C62.02,66.426,70.74,62.228,75.425,59.972c.439-.211.838-.4,1.187-.58,1.091-.554.547-3.07-.029-5.733a11.181,11.181,0,0,1-.472-3.445c.023-.064.179-.223.625-.413,3.045-1.3,13.231-1.892,22.983,2.611,10.8,4.987,16.372,13.742,18.47,17.037.867,1.362,1.073,1.683,1.406,1.525.1-.05.495-.194.988-.376,4.986-1.84,6.753-2.755,6.753-3.5,0-2.232-12.56-24.835-35.271-27.163C67.948,37.462,47.435,50.29,41.018,71.851a49.679,49.679,0,0,0,1.058,29.769c3.548,10.209,9.943,18.294,18.008,22.765a.3.3,0,0,1,.161.206c.146.61-.825,2.045-1.681,3.312-1.276,1.886-2.48,3.668-1.534,4.449.123.1,10.429,7.837,27.437,7.837" fill="#fff"/>
            <path id="Trazado_875183" data-name="Trazado 875183" d="M80.339,91.111a10.886,10.886,0,0,1,.757-4.165,6.914,6.914,0,0,1,3.124-3.218q.708-.426,1.75-.97A14.2,14.2,0,0,0,88,81.457a7.466,7.466,0,0,0,1.68-1.775,4.092,4.092,0,0,0,.686-2.342,3.87,3.87,0,0,0-.378-1.751A4,4,0,0,0,89,74.311a4.137,4.137,0,0,0-1.444-.781,5.583,5.583,0,0,0-1.68-.26,4.862,4.862,0,0,0-1.892.355,6.483,6.483,0,0,0-1.538.9,7.454,7.454,0,0,0-1.23,1.23,13.16,13.16,0,0,0-.923,1.3l-4.118-2.84a9.187,9.187,0,0,1,1.633-2.6A9.992,9.992,0,0,1,80.126,69.7a10.813,10.813,0,0,1,2.816-1.183,12.114,12.114,0,0,1,3.123-.4,12.435,12.435,0,0,1,3.549.52,9.008,9.008,0,0,1,3.147,1.657,8.6,8.6,0,0,1,2.272,2.91,9.491,9.491,0,0,1,.875,4.235,9.2,9.2,0,0,1-.354,2.674,7.475,7.475,0,0,1-1.018,2.106,8.875,8.875,0,0,1-1.562,1.7,17.939,17.939,0,0,1-2.035,1.467q-.948.567-1.892,1.088a11.479,11.479,0,0,0-1.729,1.159A5.667,5.667,0,0,0,86.042,89.1a3.839,3.839,0,0,0-.5,2.012Zm.1,4.5h5.252v6.531H80.434Z" fill="#fff"/>
            <path id="Trazado_875184" data-name="Trazado 875184" d="M118.28,55.792c-.885,4.39-1.785,8.8-2.489,13.226-.43,2.706-.676,5.4-.842,8.1a17.9,17.9,0,0,0,2.892,2.967c.035-.689.078-1.373.118-2.044.186-3.241.655-6.41,1.16-9.612.015-.108.167-.065.152.043-.4,3.3-.563,6.67-.686,10-.026.724-.031,1.453-.028,2.177a25.89,25.89,0,0,0,3.238,2.084c.008-.8.033-1.592.054-2.371.046-1.84.129-3.676.267-5.513a97.632,97.632,0,0,1,1.44-10.772c.027-.149.225-.085.206.059-.468,3.7-.807,7.421-1.023,11.144-.1,1.76-.178,3.528-.213,5.292-.015.846,0,1.695,0,2.55A41.345,41.345,0,0,0,129,85.73c6.36,2.007,13.364,1.791,19.91.746a35.91,35.91,0,0,0,15.86-6.5,33.95,33.95,0,0,1-3.229-9.11.077.077,0,0,1,.146-.047q1.086,3.039,2.412,5.956c.417.916.875,1.8,1.333,2.7.07-.056.137-.111.207-.166.455-.362.934-.748,1.409-1.169a54.07,54.07,0,0,1-2.26-5.689,49.342,49.342,0,0,1-2.237-8.379c-.033-.188.205-.269.266-.085.91,2.67,1.749,5.364,2.7,8.02.667,1.87,1.454,3.7,2.171,5.547a7.222,7.222,0,0,0,2.562-5.038,13.638,13.638,0,0,0-1.271-4.819,53.143,53.143,0,0,1-1.668-5.266c-.972-3.682-2.265-31.623-11.813-31.823-.031-.09-13.652-13.556-23.124-7.406-15.031,9.757-20.479,41.616-20.429,45.267a14.284,14.284,0,0,0,2.245,7.555c.152-2.286.467-4.567.821-6.772a138.059,138.059,0,0,1,3.071-13.515.107.107,0,1,1,.206.06" fill="#263238"/>
            <path id="Trazado_875185" data-name="Trazado 875185" d="M126.783,86.172c-21.959,20.593-49.77,64.083-44.766,73,5.575,9.931,37.23-19.371,36.3-20.836-.787-1.246,10.609-27.566,18.891-46.818,8.275-19.233-5-10.438-10.429-5.346" fill="#d3766a"/>
            <path id="Trazado_875186" data-name="Trazado 875186" d="M126.783,86.172c-21.959,20.593-49.77,64.083-44.766,73,5.575,9.931,37.23-19.371,36.3-20.836-.787-1.246,10.609-27.566,18.891-46.818,8.275-19.233-5-10.438-10.429-5.346" fill="#aee6e6"/>
            <g id="Grupo_1100809" data-name="Grupo 1100809" opacity="0.1">
              <g id="Grupo_1100808" data-name="Grupo 1100808">
                <g id="Grupo_1100807" data-name="Grupo 1100807" clip-path="url(#clip-path-3)">
                  <path id="Trazado_875187" data-name="Trazado 875187" d="M95.244,157.888c10.748-6.128,23.672-18.613,23.07-19.55-.774-1.244,10.616-27.567,18.9-46.817.807-1.889,1.411-3.52,1.84-4.891Z"/>
                </g>
              </g>
            </g>
            <path id="Trazado_875188" data-name="Trazado 875188" d="M120.846,132.815,116.7,158.893l75.283.971-5.548-17.983c-5.911-16.572-11.093-45.9-22.208-58.421-8.833-9.946-19.426-9.406-26.292-2.689-1.737,1.7-19.319,26.312-21.666,36.547-1.679,7.32,4.576,15.5,4.576,15.5" fill="#aee6e6"/>
            <path id="Trazado_875189" data-name="Trazado 875189" d="M141.723,129.123a58.3,58.3,0,0,0-10.267.959c-1.691.339-3.362.769-5.036,1.243-.834.236-1.668.439-2.508.637a9.257,9.257,0,0,1-2.652.322c-.079,0-.092.137-.015.147a12.258,12.258,0,0,0,4.936-.093c1.718-.323,3.426-.743,5.142-1.087,3.461-.7,6.921-1.39,10.406-1.785.16-.018.156-.346-.006-.343" fill="#263238"/>
            <path id="Trazado_875190" data-name="Trazado 875190" d="M149.7,133.631a61.61,61.61,0,0,0-8.344-1.363,41.043,41.043,0,0,0-4.225-.133q-1.013.014-2.027.066c-.743.037-1.488.194-2.23.218-.078,0-.094.147-.014.147.7,0,1.4.146,2.1.2s1.4.1,2.1.15c1.4.1,2.8.227,4.208.315,2.812.177,5.608.386,8.409.68.151.017.168-.246.026-.279" fill="#263238"/>
            <path id="Trazado_875191" data-name="Trazado 875191" d="M154.166,79.115c-.085,1.466-5.22,11.775-11.71,12.59-2.114.262-4.059-11.213-4.059-11.213l-.338-.814-4.712-11.4,12.382-11.36,1.809-1.533s1.083,3.205,2.392,7.209c.062.185.123.37.187.569.08.225.158.436.223.649.2.595.408,1.2.6,1.815.147.465.293.916.431,1.409s.286.971.436,1.462a79.507,79.507,0,0,1,2.359,10.619" fill="#d3766a"/>
            <path id="Trazado_875192" data-name="Trazado 875192" d="M149.93,62.592a24.744,24.744,0,0,1-11.871,17.086l-4.712-11.4,12.382-11.36,1.808-1.533s1.084,3.2,2.393,7.208" fill="#263238"/>
            <path id="Trazado_875193" data-name="Trazado 875193" d="M117.763,43.928c-6.217,20.74,5.5,26.806,9.977,28.142,4.061,1.212,18.044,4.825,26.371-15.162s.649-29.434-8.493-32.7-21.638-1.022-27.855,19.719" fill="#d3766a"/>
            <path id="Trazado_875194" data-name="Trazado 875194" d="M122.278,40.632a14.074,14.074,0,0,0,1.5.02,2.419,2.419,0,0,0,1.529-.27.771.771,0,0,0,.206-.918,1.912,1.912,0,0,0-1.74-.849,2.811,2.811,0,0,0-1.936.582.822.822,0,0,0,.446,1.435" fill="#263238"/>
            <path id="Trazado_875195" data-name="Trazado 875195" d="M135.576,47.186a14.138,14.138,0,0,1-1.433-.428,2.413,2.413,0,0,1-1.378-.715.77.77,0,0,1,.078-.937,1.909,1.909,0,0,1,1.913-.29,2.8,2.8,0,0,1,1.674,1.134.822.822,0,0,1-.854,1.236" fill="#263238"/>
            <path id="Trazado_875196" data-name="Trazado 875196" d="M132.223,48.865c.024-.052.094.1.078.154-.4,1.419-.625,3.112.551,3.909.036.026.015.1-.032.078-1.524-.617-1.207-2.861-.6-4.141" fill="#263238"/>
            <path id="Trazado_875197" data-name="Trazado 875197" d="M133.873,47.69c2.344.4,1.372,5.059-.8,4.688-2.138-.364-1.166-5.023.8-4.688" fill="#263238"/>
            <path id="Trazado_875198" data-name="Trazado 875198" d="M134.736,48.127c.352.348.654.9,1.134,1.048.556.174,1.086-.224,1.555-.616.049-.04.08.009.068.07-.172.9-.707,1.74-1.691,1.674-.9-.061-1.361-.982-1.4-1.926-.006-.175.189-.39.331-.25" fill="#263238"/>
            <path id="Trazado_875199" data-name="Trazado 875199" d="M123.879,46.524c0-.057-.127.046-.137.105-.244,1.455-.768,3.08-2.172,3.3-.044.006-.054.08,0,.083,1.641.1,2.315-2.069,2.313-3.486" fill="#263238"/>
            <path id="Trazado_875200" data-name="Trazado 875200" d="M122.89,44.755c-2.289-.643-3.406,3.984-1.285,4.579,2.087.586,3.2-4.04,1.285-4.579" fill="#263238"/>
            <path id="Trazado_875201" data-name="Trazado 875201" d="M121.852,44.827c-.425.157-.894.515-1.337.438-.515-.089-.768-.679-.976-1.237-.021-.058-.067-.028-.083.033-.238.878-.168,1.87.64,2.245.738.342,1.49-.28,1.913-1.11.079-.153.014-.432-.157-.369" fill="#263238"/>
            <path id="Trazado_875202" data-name="Trazado 875202" d="M130.079,59.988c-.392.3-.8.729-1.336.708a3.9,3.9,0,0,1-1.528-.561.052.052,0,0,0-.073.067,1.988,1.988,0,0,0,1.76,1.023,1.571,1.571,0,0,0,1.31-1.153c.033-.082-.076-.128-.133-.084" fill="#263238"/>
            <path id="Trazado_875203" data-name="Trazado 875203" d="M124.964,53.646s-.692,2.112-.878,3.134c-.016.1.223.186.566.269.016.008.024.017.04.009a4.939,4.939,0,0,0,5.047-.96c.089-.087-.022-.216-.127-.169a7.448,7.448,0,0,1-4.666.468c-.021-.3,1.306-3.579,1.146-3.62a9.026,9.026,0,0,0-2.416.1c1.313-4.442,3.328-8.637,4.57-13.08a.142.142,0,0,0-.255-.114c-2.423,4.247-4.047,9.326-5.521,13.878-.19.566,2.054.18,2.494.08" fill="#263238"/>
            <path id="Trazado_875204" data-name="Trazado 875204" d="M124.864,56.694a6.033,6.033,0,0,0,1.969,2.342,2.715,2.715,0,0,0,1.592.449c1.234-.055,1.494-1.12,1.477-2.083a6.457,6.457,0,0,0-.22-1.516,7.826,7.826,0,0,1-4.818.808" fill="#263238"/>
            <path id="Trazado_875205" data-name="Trazado 875205" d="M126.834,59.036a2.712,2.712,0,0,0,1.591.449c1.235-.055,1.494-1.12,1.477-2.083a2.8,2.8,0,0,0-3.068,1.634" fill="#ff9cbd"/>
            <path id="Trazado_875206" data-name="Trazado 875206" d="M151.632,58.458c-2.192-.951-5.774-9.242-2-20.123,0,0-2.71,10.006-2.5,11.695s-1.995-4.658.923-13.476c0,0-6.1,1.723-10.644,1.374s-7.046-1.309-7.232-1.714,6.573-.1,8.9-1.394c0,0-12.817,1.094-18.008-.365-.6-.168,3.289-10.617,12.958-12.866s19.828,5.954,21.981,10.38c0,0,3.7,1.982,5.838,9.307s-7.856,18.206-10.215,17.182" fill="#263238"/>
            <path id="Trazado_875207" data-name="Trazado 875207" d="M148.235,35.348c.131-.224.5-.079.38.169a30.094,30.094,0,0,0-2.642,12.189c0,.061-.105.06-.108,0-.234-4.41.111-8.474,2.37-12.356" fill="#263238"/>
            <path id="Trazado_875208" data-name="Trazado 875208" d="M131.505,37.44c6.12,1.449,11.847,1.441,17.446-1.7.117-.066.243.087.128.174-5.058,3.826-11.854,3.667-17.639,1.752-.125-.041-.065-.254.065-.223" fill="#263238"/>
            <path id="Trazado_875209" data-name="Trazado 875209" d="M149.428,55.912s6.42-5.176,8.9-2.7-3.664,10.892-7.5,11.177a3.661,3.661,0,0,1-4.164-3.256Z" fill="#d3766a"/>
            <path id="Trazado_875210" data-name="Trazado 875210" d="M156.505,55.578a.05.05,0,0,1-.008.1c-2.71.279-4.638,2.157-6.208,4.229a2.021,2.021,0,0,1,3.059.312c.05.063-.039.144-.1.11a2.252,2.252,0,0,0-2.6.065,10.908,10.908,0,0,0-1.7,1.6c-.176.184-.534-.045-.379-.271.011-.016.025-.033.036-.05.835-3.109,4.492-6.739,7.9-6.088" fill="#263238"/>
            <path id="Trazado_875211" data-name="Trazado 875211" d="M82.042,159.2c5.423,6.6,18.807,6.892,52.438,10.8,4.653.541,17.3-31.275,12.363-32.108-6.222-1.048-30.6-3.77-32.4-3.744-15.245.22-36.075,20.579-32.4,25.054" fill="#d3766a"/>
            <path id="Trazado_875212" data-name="Trazado 875212" d="M139.681,136.924s14.2,1.027,21.492,3.875c9.765,3.814,16.626,11.128,19.316,14.366,5.615,6.76,14.518,26.987,9.14,30.568-4.869,3.241-12.925-17.894-12.925-17.894s11.77,20.194,5.19,23.019-14.535-22.242-14.535-22.242,11.627,21.019,4.381,22.859c-5.476,1.39-13.961-20.907-13.961-20.907s9.87,18.136,4.3,19.808c-6.155,1.849-15.278-18.242-15.278-18.242-14.874,1.868-22.72-3.327-27.861-7.687-1.245-1.055,20.741-27.523,20.741-27.523" fill="#d3766a"/>
            <path id="Trazado_875213" data-name="Trazado 875213" d="M173.5,160.568c1.468,2.322,2.971,4.663,4.227,7.107s2.43,4.935,3.454,7.486a47,47,0,0,1,3.039,10.3c-1.554-6.2-5.918-15.022-7.175-17.467s-2.387-4.943-3.64-7.384c-.031-.062.06-.1.1-.045" fill="#263238"/>
            <path id="Trazado_875214" data-name="Trazado 875214" d="M164.59,164.946c1.746,3.046,3.592,6.006,5.205,9.131,1.6,3.108,2.855,6.2,4.241,9.41.107.247-.061.223-.178-.021-1.514-3.153-3.156-5.952-4.707-9.087s-2.98-6.332-4.637-9.4c-.026-.048.049-.082.076-.036" fill="#263238"/>
            <path id="Trazado_875215" data-name="Trazado 875215" d="M156.268,167.329a78.5,78.5,0,0,1,6.891,14.57c.1.249-.119.194-.231-.055-2.2-4.886-3.89-8.735-6.818-14.414-.045-.089.1-.2.158-.1" fill="#263238"/>
            <path id="Trazado_875216" data-name="Trazado 875216" d="M144.267,136.643l-25.785,34.6s-33.864-5.026-36.821-12.527,19.357-25.3,32.731-24.617,29.875,2.544,29.875,2.544" fill="#aee6e6"/>
            <path id="Trazado_875217" data-name="Trazado 875217" d="M100.633,137.6c2.246-1.357,8.585-4.522,14.737-3.482a.054.054,0,0,1-.005.108c-5.084-.129-12.4,2.328-14.684,3.465a.051.051,0,0,1-.048-.091" fill="#263238"/>
            <path id="Trazado_875218" data-name="Trazado 875218" d="M112.427,165.318c3.721-4.358,18.3-22.747,21.177-26.933.2-.291.064-.488-.183-.213-11.465,12.791-17.73,22.532-21.161,26.993-.086.112.072.264.167.153" fill="#263238"/>
            <path id="Trazado_875219" data-name="Trazado 875219" d="M170.912,89.453c13.4,16.606,27.985,41.257,30.613,61.4,1.283,9.838-14.754,20.71-21.294,18.418-15.384-5.39-37.509-19.269-46.7-29.023-3.245-3.444,24.106-32.13,26.825-27.863,2.652,4.161,4.394,6.756,6.814,8.246,1.176.724-5.025-9.414-10.341-27.636-7.261-24.889,9.226-9.555,14.081-3.538" fill="#d3766a"/>
            <path id="Trazado_875220" data-name="Trazado 875220" d="M131.6,71.7s4.074-6.385-.5-8.81-7.57,4.534-7.57,4.534Z" fill="#ff9cbd"/>
            <rect id="Rectángulo_401909" data-name="Rectángulo 401909" width="53.263" height="9.137" transform="translate(98.743 114.234) rotate(-62.097)" fill="#ffc727"/>
            <rect id="Rectángulo_401912" data-name="Rectángulo 401912" width="2.117" height="10.67" transform="matrix(0.468, -0.884, 0.884, 0.468, 122.133, 68.422)" fill="#37474f"/>
            <rect id="Rectángulo_401913" data-name="Rectángulo 401913" width="2.117" height="10.67" transform="matrix(0.468, -0.884, 0.884, 0.468, 121.039, 70.491)" fill="#37474f"/>
            <path id="Trazado_875221" data-name="Trazado 875221" d="M98.741,114.231,98.7,121.65l-.021,2.446,2.029-1.383,6.115-4.2-.2-1.605s-1.393.741-1.42.749l-.2-1.6s-1.393.741-1.42.749l-.179-1.6s-1.411.732-1.438.74l-.179-1.6s-1.411.732-1.438.74l-.179-1.6s-1.411.732-1.438.74" fill="#fff"/>
            <path id="Trazado_875222" data-name="Trazado 875222" d="M98.7,121.65l-.021,2.446,2.029-1.383Z" fill="#37474f"/>
            <path id="Trazado_875223" data-name="Trazado 875223" d="M110.791,81.174c-2.277,4.028,8.13,8.8,8.13,8.8a8.539,8.539,0,0,0-5.3,2.368c-2.414,2.557.537,7.464.537,7.464a10.529,10.529,0,0,0-5.193,3.388c-2.064,2.68.207,8.056.207,8.056a9.236,9.236,0,0,0-2.69,5.855c-.2,5.925,7.707,10.467,12.049,14.246,4.65,4.048,13.257,7.444,16.781,10.369l26.269-27.111s-11.912-22.493-20.759-27.919c-4.909-3.01-26.55-11.67-30.03-5.514" fill="#d3766a"/>
            <path id="Trazado_875224" data-name="Trazado 875224" d="M119.069,89.9c6.135,1.413,11.921,4.292,17.473,7.13a.108.108,0,0,1-.1.192c-5.489-2.888-11.883-4.377-17.475-7.04a.152.152,0,0,1,.1-.282" fill="#263238"/>
            <path id="Trazado_875225" data-name="Trazado 875225" d="M114.531,99.476a16.356,16.356,0,0,1,3.858,1.882q1.977,1.138,3.914,2.343,3.882,2.409,7.639,5.01c.111.077.02.266-.1.191-2.582-1.6-5.187-3.153-7.833-4.639q-1.988-1.116-3.991-2.2a19.6,19.6,0,0,1-3.679-2.218.217.217,0,0,1,.192-.37" fill="#263238"/>
            <path id="Trazado_875226" data-name="Trazado 875226" d="M109.282,111.312a11.422,11.422,0,0,1,3.382,1.879q1.746,1.134,3.5,2.25c2.343,1.486,4.687,2.971,7.081,4.375.12.07.021.261-.1.191-2.44-1.414-4.9-2.794-7.325-4.23q-1.788-1.058-3.564-2.134a10.732,10.732,0,0,1-3.057-2.216.076.076,0,0,1,.079-.115" fill="#263238"/>
            <path id="Trazado_875227" data-name="Trazado 875227" d="M142.578,87.933a17.377,17.377,0,0,0-9.289-4.753c-.15-.032-.141.05,0,.107a40.672,40.672,0,0,1,9.239,4.7.037.037,0,0,0,.047-.057" fill="#263238"/>
            <path id="Trazado_875228" data-name="Trazado 875228" d="M132.7,145.72l28-34.542,5.787,8.168s-7.65-16.151-10.666-26.531-4.1-22.8,11.091-8.464c14.882,14.05,35.809,54.424,36.216,66.123s-13.571,20.393-21.15,19.9S132.7,145.72,132.7,145.72" fill="#aee6e6"/>
            <path id="Trazado_875229" data-name="Trazado 875229" d="M141.294,148.141c3.929-4.666,19.311-24.344,22.347-28.821.21-.31.065-.519-.2-.225-12.111,13.7-18.711,24.112-22.33,28.884-.091.12.079.28.179.162" fill="#263238"/>
            <path id="Trazado_875230" data-name="Trazado 875230" d="M192.532,148.225c-2.03-2.752-4.324-5.352-6.531-7.987s-4.421-5.282-6.736-7.846-4.761-5.053-7.186-7.544c-1.214-1.246-3.578-3.685-4.8-4.925-1.2-1.223-1.287-.9-.116.46,1.125,1.3,3.4,3.8,4.515,5.113,2.205,2.577,4.37,5.182,6.638,7.713s4.61,5.025,6.928,7.528c2.353,2.542,4.62,5.168,7.089,7.618.1.1.285-.01.2-.13" fill="#263238"/>
            <path id="Trazado_875231" data-name="Trazado 875231" d="M162.8,110.013c-1.458-3.078-3.13-6.111-4.348-9.293a.106.106,0,0,0-.2.076c.876,2.092,1.622,4.232,2.426,6.352l-.188-.247c-.6-.787-1.166-1.586-1.731-2.4-.078-.112-.244.01-.171.124.535.832,1.058,1.665,1.562,2.516a11.822,11.822,0,0,0,1.31,1.964c.188.458.368.919.571,1.371a71.957,71.957,0,0,0,4.683,9.009c.112.178.4.018.322-.175-1.291-3.138-2.786-6.235-4.239-9.3" fill="#263238"/>
            <path id="Trazado_875232" data-name="Trazado 875232" d="M160.924,110.977c-.12-.157-.807.743-1.126,1.213-.052.077.036.1.121.023.234-.218.5-.365.722-.6.9,1.388,5.772,7.87,6.1,8.139.145.12.257-.011.175-.193-.331-.738-4.91-7.177-5.988-8.586" fill="#263238"/>
            <path id="Trazado_875233" data-name="Trazado 875233" d="M171.043,166.132c-9.831-5.612-19.813-10.993-29.964-16-2.78-1.371-5.436-2.885-8.177-4.334.259-.22,2.516-3.222,2.583-3.328a.053.053,0,0,0-.083-.067c-.261.273-3.233,3.29-3.425,3.619-.116.2,10.253,5.695,15.175,8.4,4.956,2.725,10.034,5.232,15.1,7.738q4.323,2.136,8.7,4.154a.1.1,0,0,0,.084-.182" fill="#263238"/>
          </g>
        </g>
      </g>
    </g>
  </g>
</svg>
