<svg xmlns="http://www.w3.org/2000/svg" xmlns:xlink="http://www.w3.org/1999/xlink" width="230" height="170.25" viewBox="0 0 230 170.25">
  <defs>
    <clipPath id="clip-path">
      <rect id="Rectángulo_401932" data-name="Rectángulo 401932" width="211.86" height="170.25" fill="none"/>
    </clipPath>
    <clipPath id="clip-path-3">
      <rect id="Rectángulo_401933" data-name="Rectángulo 401933" width="59.318" height="59.311" transform="translate(93.214 109.248)" fill="none"/>
    </clipPath>
  </defs>
  <g id="Grupo_1101512" data-name="Grupo 1101512" transform="translate(-1105 -5520.644)">
    <path id="Rectángulo_401918" data-name="Rectángulo 401918" d="M40,0H190a40,40,0,0,1,40,40V82a0,0,0,0,1,0,0H0a0,0,0,0,1,0,0V40A40,40,0,0,1,40,0Z" transform="translate(1105 5598)" fill="#26aab7" opacity="0.74"/>
    <g id="Grupo_1100869" data-name="Grupo 1100869" transform="translate(1113.82 5520.644)">
      <g id="Grupo_1100870" data-name="Grupo 1100870">
        <g id="Grupo_1100860" data-name="Grupo 1100860">
          <g id="Grupo_1100859" data-name="Grupo 1100859" clip-path="url(#clip-path)">
            <path id="Trazado_875318" data-name="Trazado 875318" d="M171.75,85.125A73.515,73.515,0,1,1,98.235,11.61,73.515,73.515,0,0,1,171.75,85.125" fill="#7d6eb2"/>
            <path id="Trazado_875319" data-name="Trazado 875319" d="M98.235,170.25A85.125,85.125,0,1,1,183.36,85.125,85.222,85.222,0,0,1,98.235,170.25m0-166.08A80.955,80.955,0,1,0,179.19,85.125,81.046,81.046,0,0,0,98.235,4.17" fill="#7d6eb2"/>
          </g>
        </g>
        <g id="Grupo_1100865" data-name="Grupo 1100865">
          <g id="Grupo_1100864" data-name="Grupo 1100864" clip-path="url(#clip-path)">
            <path id="Trazado_875320" data-name="Trazado 875320" d="M129.813,138.9a8.638,8.638,0,0,0,15.318,5.471,4.247,4.247,0,0,1,3.268-1.606,4.148,4.148,0,0,1,4.143,4.142v21.649H174.2a4.13,4.13,0,0,0,4.135-4.135,4.046,4.046,0,0,0-.426-1.812,4.447,4.447,0,0,0-1.172-1.456,8.629,8.629,0,1,1,10.934,0,4.248,4.248,0,0,0-1.606,3.268,4.136,4.136,0,0,0,4.143,4.135H211.86V109.246H190.205a4.136,4.136,0,0,0-4.143,4.135,4.052,4.052,0,0,0,.434,1.812,4.538,4.538,0,0,0,1.172,1.456,8.636,8.636,0,1,1-10.934,0,4.24,4.24,0,0,0,1.6-3.268,4.123,4.123,0,0,0-4.135-4.135H152.542V130.9a4.142,4.142,0,0,1-4.143,4.142,4.061,4.061,0,0,1-1.811-.434,4.518,4.518,0,0,1-1.457-1.172,8.638,8.638,0,0,0-15.318,5.471" fill="#62529b"/>
            <path id="Trazado_875321" data-name="Trazado 875321" d="M182.2,131.971a8.638,8.638,0,0,0,5.471-15.318,4.249,4.249,0,0,1-1.606-3.269,4.148,4.148,0,0,1,4.142-4.142H211.86V87.587a4.13,4.13,0,0,0-4.135-4.135,4.046,4.046,0,0,0-1.812.426,4.45,4.45,0,0,0-1.457,1.172,8.629,8.629,0,1,1,0-10.934,4.251,4.251,0,0,0,3.269,1.605,4.136,4.136,0,0,0,4.135-4.142V49.923H152.548V71.579a4.135,4.135,0,0,0,4.135,4.142,4.052,4.052,0,0,0,1.812-.433,4.538,4.538,0,0,0,1.456-1.172,8.636,8.636,0,1,1,0,10.934,4.242,4.242,0,0,0-3.268-1.6,4.123,4.123,0,0,0-4.135,4.135v21.655H174.2a4.142,4.142,0,0,1,4.142,4.142,4.062,4.062,0,0,1-.434,1.812,4.542,4.542,0,0,1-1.172,1.457,8.638,8.638,0,0,0,5.471,15.318" fill="#ffd947"/>
            <path id="Trazado_875322" data-name="Trazado 875322" d="M115.947,138.9a8.638,8.638,0,0,1-15.321,5.47,4.262,4.262,0,0,0-3.269-1.6,4.153,4.153,0,0,0-4.143,4.142v21.651h59.318V146.908a4.138,4.138,0,0,0-4.13-4.142,4.078,4.078,0,0,0-1.813.436,4.591,4.591,0,0,0-1.456,1.168,8.628,8.628,0,1,1,0-10.94,4.234,4.234,0,0,0,3.269,1.6,4.133,4.133,0,0,0,4.13-4.142V109.247H93.214v21.645a4.14,4.14,0,0,0,4.143,4.142,4.068,4.068,0,0,0,1.812-.43,4.519,4.519,0,0,0,1.457-1.174,8.642,8.642,0,0,1,15.321,5.47" fill="#ffc727"/>
            <path id="Trazado_875323" data-name="Trazado 875323" d="M115.947,138.9a8.638,8.638,0,0,1-15.321,5.47,4.262,4.262,0,0,0-3.269-1.6,4.153,4.153,0,0,0-4.143,4.142v21.651h59.318V146.908a4.138,4.138,0,0,0-4.13-4.142,4.078,4.078,0,0,0-1.813.436,4.591,4.591,0,0,0-1.456,1.168,8.628,8.628,0,1,1,0-10.94,4.234,4.234,0,0,0,3.269,1.6,4.133,4.133,0,0,0,4.13-4.142V109.247H93.214v21.645a4.14,4.14,0,0,0,4.143,4.142,4.068,4.068,0,0,0,1.812-.43,4.519,4.519,0,0,0,1.457-1.174,8.642,8.642,0,0,1,15.321,5.47" fill="#ffc727"/>
            <g id="Grupo_1100863" data-name="Grupo 1100863" opacity="0.6">
              <g id="Grupo_1100862" data-name="Grupo 1100862">
                <g id="Grupo_1100861" data-name="Grupo 1100861" clip-path="url(#clip-path-3)">
                  <path id="Trazado_875324" data-name="Trazado 875324" d="M115.947,138.9a8.638,8.638,0,0,1-15.321,5.47,4.262,4.262,0,0,0-3.269-1.6,4.153,4.153,0,0,0-4.143,4.142v21.651h59.318V146.908a4.138,4.138,0,0,0-4.13-4.142,4.078,4.078,0,0,0-1.813.436,4.591,4.591,0,0,0-1.456,1.168,8.628,8.628,0,1,1,0-10.94,4.234,4.234,0,0,0,3.269,1.6,4.133,4.133,0,0,0,4.13-4.142V109.247H93.214v21.645a4.14,4.14,0,0,0,4.143,4.142,4.068,4.068,0,0,0,1.812-.43,4.519,4.519,0,0,0,1.457-1.174,8.642,8.642,0,0,1,15.321,5.47" fill="#fff"/>
                </g>
              </g>
            </g>
          </g>
        </g>
        <g id="Grupo_1100867" data-name="Grupo 1100867">
          <g id="Grupo_1100866" data-name="Grupo 1100866" clip-path="url(#clip-path)">
            <path id="Trazado_875325" data-name="Trazado 875325" d="M5.339,158.667c12.352,9.435,71.344,13.75,83.182,5.571C83.192,136.653,70.065,77.43,62.988,68.2c-1.944-2.534-8.376-3.244-13.837-2.567a25.238,25.238,0,0,0-4.215.863.7.7,0,0,1-.142.033A10.185,10.185,0,0,0,41.7,68.05c-11.368,9.075-27.66,62.277-36.364,90.617" fill="#aee6e6"/>
            <path id="Trazado_875326" data-name="Trazado 875326" d="M34.659,76.621C22.324,90.565-7.158,143,2.89,152.151c10.119,9.214,64.068-4.981,79.142-12.666,4.484-2.286-13.537-30.141-18.894-30.659-4.459-.431-26.9,10.574-27.6,9.284-.783-1.457,2.534-12.46,7.47-32.348,5.692-22.931-2.906-15.3-8.354-9.141" fill="#dd6a57"/>
            <path id="Trazado_875327" data-name="Trazado 875327" d="M74.522,100.3c10.56-3.581,13.82-2.879,21.127-10.634,4.795-5.089,10.1-4.211,8.149,2.794C100.6,103.917,87.95,111.4,82.817,112.729Z" fill="#dd6a57"/>
            <path id="Trazado_875328" data-name="Trazado 875328" d="M180,95.836a8.638,8.638,0,0,0-15.9-3.45,4.247,4.247,0,0,1-3.034,2.013,4.147,4.147,0,0,1-4.641-3.573l-2.791-21.468-21.475,2.791a4.129,4.129,0,0,0-3.567,4.634,4.046,4.046,0,0,0,.656,1.742,4.46,4.46,0,0,0,1.35,1.293,8.628,8.628,0,1,1-10.843,1.409,4.246,4.246,0,0,0,1.171-3.448,4.135,4.135,0,0,0-4.641-3.566L94.812,77l7.646,58.817,21.475-2.792a4.136,4.136,0,0,0,3.575-4.635,4.064,4.064,0,0,0-.663-1.741,4.558,4.558,0,0,0-1.351-1.293,8.636,8.636,0,1,1,10.843-1.409,4.242,4.242,0,0,0-1.163,3.447,4.123,4.123,0,0,0,4.633,3.567l21.475-2.791-2.791-21.469a4.142,4.142,0,0,1,3.574-4.641,4.07,4.07,0,0,1,1.852.2,4.529,4.529,0,0,1,1.6.975A8.638,8.638,0,0,0,180,95.836" fill="#26aab7"/>
            <path id="Trazado_875329" data-name="Trazado 875329" d="M47.7,116.242s10.9-9.094,21.772-14.024c7.521-3.408,24.709-9,44.879,5.163,4.783,3.359,9.218,11.539-.588,8.89-6.966-1.882-10.815-5.179-15.066-5.536,0,0,4.406,11.074.854,15.735A107.949,107.949,0,0,1,89.4,137.989a22.7,22.7,0,0,1-2.325-1.706s-3.73,4.041-12.054,4.822Z" fill="#dd6a57"/>
            <path id="Trazado_875330" data-name="Trazado 875330" d="M77.171,100.111c4.145,1.247,12.884,4.035,19.24,8.8,7.059,5.3,19.232,17.4,15.269,22.571-2.906,3.791-7.96-.421-7.96-.421s3.977,6.063.6,8.914c-3.075,2.6-6.789-.9-6.789-.9s1.78,4.093-1.664,6.025c-4.142,2.324-7.192-6.635-13.421-7.906-1.4-.285-5.278-37.09-5.278-37.09" fill="#dd6a57"/>
            <path id="Trazado_875331" data-name="Trazado 875331" d="M89.571,115.44c3.705,1.811,11.066,8.083,14.175,15.442.07.166-.018.309-.114.171a86.652,86.652,0,0,0-14.111-15.547c-.037-.031.009-.086.05-.066" fill="#263238"/>
            <path id="Trazado_875332" data-name="Trazado 875332" d="M84.432,122.721c3.036,1.891,10.334,8.695,13.229,16.26.064.169-.034.306-.124.163a92.891,92.891,0,0,0-13.159-16.36c-.035-.033.015-.087.054-.063" fill="#263238"/>
            <path id="Trazado_875333" data-name="Trazado 875333" d="M98.688,110.663c3.733.366,6.364,1.662,9.743,3.164a49.264,49.264,0,0,0,5.1,2.015c1.589.5,3.937,1.276,5.238-.236a2.954,2.954,0,0,0,.1-3.012,14.393,14.393,0,0,0-2.711-3.652c-.042-.04.026-.114.069-.074a20.541,20.541,0,0,1,2.808,3.176,4.791,4.791,0,0,1,.846,2.7c-.148,2.049-2.4,2.744-4.127,2.518a15.676,15.676,0,0,1-3.04-.816c-.951-.328-1.885-.7-2.81-1.1-1.9-.815-3.745-1.738-5.632-2.575a46.748,46.748,0,0,0-5.62-1.979.067.067,0,0,1,.031-.129" fill="#263238"/>
            <path id="Trazado_875334" data-name="Trazado 875334" d="M108.464,121.688a112.313,112.313,0,0,0-9.833-10.927.051.051,0,0,1,.06-.083c3.254,2.086,9.006,8.178,10.462,10.2,1.439,2,3.15,4.585,3.617,7.034.706,3.693-1.611,4.861-2.482,5.214a4.88,4.88,0,0,1-3.242.086,9.825,9.825,0,0,1-3.36-2.134c-.048-.044.006-.125.06-.084,1.557,1.211,3.958,2.241,5.915,1.6a3.421,3.421,0,0,0,2.048-1.669,4.419,4.419,0,0,0,.023-3.087,20.558,20.558,0,0,0-3.268-6.149" fill="#263238"/>
            <path id="Trazado_875335" data-name="Trazado 875335" d="M54.034,110.741,74.8,146.63S7.156,163.744.965,152.055s19-58.766,30.544-72.589C44.891,63.447,46.8,68.722,44.128,82.674c-2.795,14.607-8.377,35.773-8.377,35.773Z" fill="#aee6e6"/>
            <path id="Trazado_875336" data-name="Trazado 875336" d="M16.167,129.476a79.649,79.649,0,0,1,9.486-6.527,77.418,77.418,0,0,1,10.23-4.98c2.005-.826,4.043-1.552,6.08-2.293a.051.051,0,0,1,.033.1,99.493,99.493,0,0,0-10.343,4.9q-5.017,2.68-9.929,5.54c-1.854,1.079-3.656,2.247-5.472,3.388a.077.077,0,0,1-.085-.128" fill="#263238"/>
            <path id="Trazado_875337" data-name="Trazado 875337" d="M53.848,110.64c-.34.1-16.4,6.5-17,6.8.07-.282,3.143-10.269,3.6-11.732.046-.145.085-.292.13-.438.321-.655.647-1.308.943-1.977.38-.856.753-1.716,1.127-2.574.011-.027-.027-.047-.04-.021-.413.839-.827,1.677-1.234,2.519-.189.389-.365.784-.538,1.18.3-1.033.587-2.068.873-3.107.457-1.657.861-3.324,1.259-5,.013-.054-.067-.07-.083-.018-.911,2.913-1.912,5.8-2.831,8.706s-4.462,13.635-4.433,13.625c.035.027,17.918-7.538,18.308-7.713a.133.133,0,0,0-.083-.252" fill="#263238"/>
            <path id="Trazado_875338" data-name="Trazado 875338" d="M58.133,134.237c-2.025-4.034-4.019-8.085-6.194-12.044-1.235-2.25-2.46-4.507-3.717-6.745-.047-.084-.2-.015-.158.075,1.872,4.129,3.76,8.266,5.821,12.309,2.05,4.022,4.067,8.062,6.17,12.059q1.794,3.409,3.789,6.7c.026.043.1.008.083-.04-1.735-4.2-3.755-8.251-5.794-12.313" fill="#263238"/>
            <path id="Trazado_875339" data-name="Trazado 875339" d="M75.7,147.18c-.712-1.108-1.616-2.71-2.373-3.787-.2-.285-.422-.219-.26.081.546,1.009,1.007,2.148,1.548,3.184-.95.216-1.9.411-2.854.637-1.1.261-2.193.527-3.291.784q-3.225.756-6.465,1.445-6.561,1.4-13.178,2.512a259.089,259.089,0,0,1-26.7,3.232c-2.5.159-5.011.27-7.519.3a72.574,72.574,0,0,1-7.412-.157c-.068-.006-.078.108-.01.12a41.144,41.144,0,0,0,6.461.662c2.272.051,4.547.039,6.818-.048,4.523-.173,9.036-.587,13.529-1.122q13.365-1.59,26.568-4.305,3.695-.754,7.371-1.6c1.236-.283,2.474-.567,3.7-.873s4.187-.883,4.066-1.071" fill="#263238"/>
            <path id="Trazado_875340" data-name="Trazado 875340" d="M61.045,82.115C56.23,83.78,47,77.1,43.039,71.327c-.269-.4-.073-4.877-.092-10.331-.025-3.31-.131-6.995-.47-10.35l21.562,2.985a53.8,53.8,0,0,0-.73,13.09,7.557,7.557,0,0,0,.284,1.362c.013.063.039.137.053.225.691,2.573,2.052,12.195-2.6,13.807" fill="#dd6a57"/>
            <path id="Trazado_875341" data-name="Trazado 875341" d="M43.995,50.861c1.06,4.382,5.461,18.721,17.5,17.777a12.1,12.1,0,0,0,2.156-.334c-.021-.088-.042-.154-.052-.219a7.3,7.3,0,0,1-.289-1.369,53.783,53.783,0,0,1,.728-13.086Z" fill="#263238"/>
            <path id="Trazado_875342" data-name="Trazado 875342" d="M37.072,28.251C35.941,36.146,43.3,57.3,49.416,61.327c8.865,5.833,21.694,4.531,26.225-5.74,4.391-9.955-5.688-37.36-12.361-40.843-9.83-5.13-24.538,1.845-26.208,13.507" fill="#dd6a57"/>
            <path id="Trazado_875343" data-name="Trazado 875343" d="M57.838,38.749c-.031-.05-.088.107-.067.164.542,1.409.925,3.114-.2,4.037-.035.028-.006.1.04.075,1.495-.77.964-3.028.226-4.276" fill="#263238"/>
            <path id="Trazado_875344" data-name="Trazado 875344" d="M56.046,37.705c-2.352.625-.93,5.283,1.25,4.7,2.145-.57.722-5.229-1.25-4.7" fill="#263238"/>
            <path id="Trazado_875345" data-name="Trazado 875345" d="M66.181,36.329c-.006-.059.134.034.15.093.395,1.457,1.092,3.059,2.544,3.14.045,0,.063.077.013.084-1.662.263-2.566-1.874-2.707-3.317" fill="#263238"/>
            <path id="Trazado_875346" data-name="Trazado 875346" d="M67.009,34.428c2.267-.885,3.87,3.715,1.77,4.534-2.067.808-3.67-3.792-1.77-4.534" fill="#263238"/>
            <path id="Trazado_875347" data-name="Trazado 875347" d="M53.141,35.262a18.892,18.892,0,0,0,1.794-.885,3.231,3.231,0,0,0,1.657-1.251,1.03,1.03,0,0,0-.313-1.218,2.556,2.556,0,0,0-2.588.045,3.752,3.752,0,0,0-1.952,1.87,1.1,1.1,0,0,0,1.4,1.439" fill="#263238"/>
            <path id="Trazado_875348" data-name="Trazado 875348" d="M68.108,30.375a18.784,18.784,0,0,1-2,.085,3.231,3.231,0,0,1-2.055-.3,1.032,1.032,0,0,1-.31-1.219,2.556,2.556,0,0,1,2.292-1.2,3.753,3.753,0,0,1,2.611.7,1.1,1.1,0,0,1-.54,1.936" fill="#263238"/>
            <path id="Trazado_875349" data-name="Trazado 875349" d="M60.274,52.489a2.3,2.3,0,0,0,1.473.476,3.983,3.983,0,0,0,1.44-.836.053.053,0,0,1,.085.055,2.032,2.032,0,0,1-1.592,1.343,1.608,1.608,0,0,1-1.525-.93c-.047-.077.053-.142.119-.108" fill="#263238"/>
            <path id="Trazado_875350" data-name="Trazado 875350" d="M60.472,47.705a5.134,5.134,0,0,0,3.947,1.186,6.484,6.484,0,0,0,1.793-.459,1.874,1.874,0,0,0,.325-.141c.1-.047.193-.088.3-.146a.375.375,0,0,0,.191-.411l0-.011a.74.74,0,0,0-.059-.144l0-.01-.041-.126c-.309-1.12-.933-2.777-.933-2.777.468.079,2.822.379,2.613-.192-1.755-4.718-3.706-9.966-6.447-14.289a.14.14,0,0,0-.253.118c1.507,4.6,3.812,8.906,5.4,13.5a8.972,8.972,0,0,0-2.534,0c-.144.094,1.262,3.181,1.361,3.695a.194.194,0,0,1,.007.056c-1.794.808-3.374.674-5.569-.026-.132-.049-.217.083-.1.17" fill="#263238"/>
            <path id="Trazado_875351" data-name="Trazado 875351" d="M65.384,48.068A6.1,6.1,0,0,1,63.6,50.59a2.724,2.724,0,0,1-1.563.585c-1.245.05-1.6-1-1.661-1.969a6.527,6.527,0,0,1,.094-1.542,7.884,7.884,0,0,0,4.912.4" fill="#263238"/>
            <path id="Trazado_875352" data-name="Trazado 875352" d="M63.6,50.59a2.746,2.746,0,0,1-1.563.586c-1.244.049-1.6-1-1.661-1.97A2.833,2.833,0,0,1,63.6,50.59" fill="#ff98b9"/>
            <path id="Trazado_875353" data-name="Trazado 875353" d="M41.278,48.222c3.424-.282,4.457-5.881,4.538-8.111S41.948,29.4,42.387,25.937s3.075-6.265,5.91-6.452,7.379,1.954,9.2,1.085.767-5.119,2.081-5.6c2.891-1.068,8.182,4.751,9.872,7.728,0,0-3.515-13.614-18.834-9.549C36.65,16.852,35.74,27.8,36.064,32.3a38.865,38.865,0,0,0,5.214,15.92" fill="#263238"/>
            <path id="Trazado_875354" data-name="Trazado 875354" d="M44.48,45.276s-6.142-6.156-9.018-3.846S38.063,53.265,42.047,54a3.861,3.861,0,0,0,4.736-2.939Z" fill="#dd6a57"/>
            <path id="Trazado_875355" data-name="Trazado 875355" d="M37.1,44.121a.052.052,0,0,0,0,.1c2.808.6,4.616,2.79,6.025,5.14a2.132,2.132,0,0,0-3.242-.021c-.059.06.025.156.1.127a2.376,2.376,0,0,1,2.718.364,11.5,11.5,0,0,1,1.6,1.865c.164.213.566.014.429-.241-.01-.019-.022-.038-.033-.057-.521-3.354-3.941-7.575-7.589-7.28" fill="#263238"/>
            <path id="Trazado_875356" data-name="Trazado 875356" d="M63.588,67.851,58.839,80.5,42.95,65.135l-4.257,5.172S54.484,94.964,54.55,93.83l4.858-10.872,7.606,7.281L65.929,71.5Z" fill="#fff"/>
            <path id="Trazado_875357" data-name="Trazado 875357" d="M67,80.943c-.283-3.089-.482-6.207-.907-9.279-.015-.11-.188-.154-.211-.024-.543,3,.6,14.809.661,17.645l-.033-.031c-.318-.315-7.041-6.4-7.1-6.3-1.07,1.734-4.637,9.652-4.876,10.37-2.5-3.916-12.051-18.144-14.983-21.833a.107.107,0,0,0-.182.112c2.224,4.147,14.874,23.311,15.059,23.252A120.841,120.841,0,0,0,59.5,83.365c1.146,1.333,7.95,8.217,7.961,7.757A97.444,97.444,0,0,0,67,80.943" fill="#263238"/>
          </g>
        </g>
      </g>
    </g>
  </g>
</svg>
