<svg xmlns="http://www.w3.org/2000/svg" xmlns:xlink="http://www.w3.org/1999/xlink" width="78.501" height="67.574" viewBox="0 0 78.501 67.574">
  <defs>
    <clipPath id="clip-path">
      <rect id="Rectángulo_402192" data-name="Rectángulo 402192" width="59" height="59" transform="translate(616 7836)" fill="#fff" stroke="#707070" stroke-width="1"/>
    </clipPath>
    <clipPath id="clip-path-2">
      <path id="path7650" d="M0-59H59V0H0Z"/>
    </clipPath>
  </defs>
  <g id="Grupo_1101333" data-name="Grupo 1101333" transform="translate(-606.499 -7836)">
    <path id="_12068" data-name="12068" d="M72.033,71.913c-8.038-1.11-16.53-.839-23.844,2.675C38.045,79.46,31.382,90.507,31.127,101.757s5.606,22.305,14.66,28.988,21,9.051,32.068,7.045c11.165-2.023,21.645-8.583,27.469-18.322,3.735-6.245,5.48-13.956,3.417-20.934a28.6,28.6,0,0,0-6.787-11.156A50.145,50.145,0,0,0,72.033,71.913Z" transform="translate(575.38 7765.093)" fill="#7d6eb2"/>
    <g id="Enmascarar_grupo_1098764" data-name="Enmascarar grupo 1098764" clip-path="url(#clip-path)">
      <g id="g7644" transform="translate(616 7895)">
        <g id="g7646">
          <g id="g7648" clip-path="url(#clip-path-2)">
            <g id="g7654" transform="translate(54.178 -16.463)">
              <path id="path7656" d="M0,0A5.82,5.82,0,0,1-5.82,5.82,5.82,5.82,0,0,1-11.641,0,5.82,5.82,0,0,1-5.82-5.82,5.82,5.82,0,0,1,0,0" fill="#f1d0a5"/>
            </g>
            <g id="g7658" transform="translate(51.253 -21.511)">
              <path id="path7660" d="M0,0A5.791,5.791,0,0,1,.772,2.895a5.82,5.82,0,0,1-5.82,5.82,5.792,5.792,0,0,1-2.895-.772,5.817,5.817,0,0,0,5.049,2.925,5.82,5.82,0,0,0,5.82-5.82A5.817,5.817,0,0,0,0,0" fill="#f1b986"/>
            </g>
            <g id="g7662" transform="translate(38.58 -5.986)">
              <path id="path7664" d="M0,0V5.122H19.556V0A4.656,4.656,0,0,0,14.9-4.656H4.656A4.656,4.656,0,0,0,0,0" fill="#c8ea73"/>
            </g>
            <g id="g7666" transform="translate(53.48 -10.642)">
              <path id="path7668" d="M0,0H-2.794A4.656,4.656,0,0,1,1.862,4.656V9.778H4.656V4.656A4.656,4.656,0,0,0,0,0" fill="#b7e445"/>
            </g>
            <g id="g7670" transform="translate(16.463 -16.463)">
              <path id="path7672" d="M0,0A5.82,5.82,0,0,1-5.82,5.82,5.82,5.82,0,0,1-11.641,0,5.82,5.82,0,0,1-5.82-5.82,5.82,5.82,0,0,1,0,0" fill="#f1d0a5"/>
            </g>
            <g id="g7674" transform="translate(13.537 -21.511)">
              <path id="path7676" d="M0,0A5.79,5.79,0,0,1,.772,2.895a5.82,5.82,0,0,1-5.82,5.82,5.791,5.791,0,0,1-2.895-.772,5.817,5.817,0,0,0,5.048,2.925,5.82,5.82,0,0,0,5.82-5.82A5.817,5.817,0,0,0,0,0" fill="#f1b986"/>
            </g>
            <g id="g7678" transform="translate(0.864 -5.986)">
              <path id="path7680" d="M0,0V5.122H19.556V0A4.656,4.656,0,0,0,14.9-4.656H4.656A4.656,4.656,0,0,0,0,0" fill="#dd5790"/>
            </g>
            <g id="g7682" transform="translate(15.764 -10.642)">
              <path id="path7684" d="M0,0H-2.794A4.656,4.656,0,0,1,1.863,4.656V9.778H4.656V4.656A4.656,4.656,0,0,0,0,0" fill="#da387d"/>
            </g>
            <g id="g7686" transform="translate(34.738 -26.939)">
              <path id="path7688" d="M0,0H-10.476a1.164,1.164,0,0,1-1.164-1.164v-1.4a1.164,1.164,0,0,1,1.164-1.164H0A1.164,1.164,0,0,1,1.164-2.561v1.4A1.164,1.164,0,0,1,0,0" fill="#4073c8"/>
            </g>
            <g id="g7690" transform="translate(34.738 -30.664)">
              <path id="path7692" d="M0,0H-2.561A1.164,1.164,0,0,1-1.4,1.164v1.4A1.164,1.164,0,0,1-2.561,3.725H0A1.164,1.164,0,0,0,1.164,2.561v-1.4A1.164,1.164,0,0,0,0,0" fill="#30579d"/>
            </g>
            <g id="g7694" transform="translate(24.262 -26.939)">
              <path id="path7696" d="M0,0V3.259A2.328,2.328,0,0,0,2.328,5.587h5.82a2.328,2.328,0,0,0,2.328-2.328V0Z" fill="#9dc6fb"/>
            </g>
            <g id="g7698" transform="translate(32.061 -26.939)">
              <path id="path7700" d="M0,0V3.259A2.328,2.328,0,0,1-2.328,5.587H.349A2.328,2.328,0,0,0,2.677,3.259V0Z" fill="#80b4fb"/>
            </g>
            <g id="g7702" transform="translate(41.914 -45.721)">
              <path id="path7704" d="M0,0A12.414,12.414,0,0,0-12.414-12.414,12.4,12.4,0,0,0-24.829-.056a12.416,12.416,0,0,0,7.309,11.375,1.65,1.65,0,0,1,.967,1.5v2.234h8.276V12.823a1.664,1.664,0,0,1,.985-1.513A12.415,12.415,0,0,0,0,0" fill="#f6e266"/>
            </g>
            <g id="g7706" transform="translate(37.621 -55.111)">
              <path id="path7708" d="M0,0A14.143,14.143,0,0,1,1.231,5.79,14.194,14.194,0,0,1-12.962,19.984a14.346,14.346,0,0,1-1.817-.115,12.4,12.4,0,0,0,1.554.84,1.65,1.65,0,0,1,.967,1.5v2.234h8.276V22.213A1.664,1.664,0,0,1-3,20.7,12.416,12.416,0,0,0,4.294,9.39,12.386,12.386,0,0,0,0,0" fill="#f1d333"/>
            </g>
            <g id="g7710" transform="translate(50.375 -0.864)">
              <path id="path7712" d="M0,0H7.761V-5.122A4.656,4.656,0,0,0,3.1-9.778H-7.139A4.656,4.656,0,0,0-11.8-5.122V0h7.762" fill="none" stroke="#000" stroke-linecap="round" stroke-linejoin="round" stroke-miterlimit="10" stroke-width="1.729"/>
            </g>
            <g id="g7714" transform="translate(53.247 -3.192)">
              <path id="path7716" d="M0,0V2.328" fill="none" stroke="#000" stroke-linecap="round" stroke-linejoin="round" stroke-miterlimit="10" stroke-width="1.729"/>
            </g>
            <g id="g7718" transform="translate(43.469 -3.192)">
              <path id="path7720" d="M0,0V2.328" fill="none" stroke="#000" stroke-linecap="round" stroke-linejoin="round" stroke-miterlimit="10" stroke-width="1.729"/>
            </g>
            <g id="g7722" transform="translate(54.178 -16.463)">
              <path id="path7724" d="M0,0A5.82,5.82,0,0,1-5.82,5.82,5.82,5.82,0,0,1-11.641,0,5.82,5.82,0,0,1-5.82-5.82,5.82,5.82,0,0,1,0,0Z" fill="none" stroke="#000" stroke-linecap="round" stroke-linejoin="round" stroke-miterlimit="10" stroke-width="1.729"/>
            </g>
            <g id="g7726" transform="translate(12.658 -0.864)">
              <path id="path7728" d="M0,0H7.762V-5.122A4.656,4.656,0,0,0,3.106-9.778H-7.138a4.656,4.656,0,0,0-4.657,4.655V0h7.761" fill="none" stroke="#000" stroke-linecap="round" stroke-linejoin="round" stroke-miterlimit="10" stroke-width="1.729"/>
            </g>
            <g id="g7730" transform="translate(15.531 -3.192)">
              <path id="path7732" d="M0,0V2.328" fill="none" stroke="#000" stroke-linecap="round" stroke-linejoin="round" stroke-miterlimit="10" stroke-width="1.729"/>
            </g>
            <g id="g7734" transform="translate(5.753 -3.192)">
              <path id="path7736" d="M0,0V2.328" fill="none" stroke="#000" stroke-linecap="round" stroke-linejoin="round" stroke-miterlimit="10" stroke-width="1.729"/>
            </g>
            <g id="g7738" transform="translate(16.463 -16.463)">
              <path id="path7740" d="M0,0A5.82,5.82,0,0,1-5.82,5.82,5.82,5.82,0,0,1-11.641,0,5.82,5.82,0,0,1-5.82-5.82,5.82,5.82,0,0,1,0,0Z" fill="none" stroke="#000" stroke-linecap="round" stroke-linejoin="round" stroke-miterlimit="10" stroke-width="1.729"/>
            </g>
            <g id="g7742" transform="translate(24.262 -26.939)">
              <path id="path7744" d="M0,0V3.259A2.328,2.328,0,0,0,2.328,5.587h5.82a2.328,2.328,0,0,0,2.328-2.328V0" fill="none" stroke="#000" stroke-linecap="round" stroke-linejoin="round" stroke-miterlimit="10" stroke-width="1.729"/>
            </g>
            <g id="g7746" transform="translate(19.343 -52.87)">
              <path id="path7748" d="M0,0A12.426,12.426,0,0,0,5.052,18.466a1.651,1.651,0,0,1,.967,1.5v2.234" fill="none" stroke="#000" stroke-linecap="round" stroke-linejoin="round" stroke-miterlimit="10" stroke-width="1.729"/>
            </g>
            <g id="g7750" transform="translate(22.164 -55.742)">
              <path id="path7752" d="M0,0A12.417,12.417,0,1,1,12.458,21.331a1.665,1.665,0,0,0-.984,1.513v2.235" fill="none" stroke="#000" stroke-linecap="round" stroke-linejoin="round" stroke-miterlimit="10" stroke-width="1.729"/>
            </g>
            <g id="g7754" transform="translate(34.738 -26.939)">
              <path id="path7756" d="M0,0H-10.476a1.164,1.164,0,0,1-1.164-1.164v-1.4a1.164,1.164,0,0,1,1.164-1.164H0A1.164,1.164,0,0,1,1.164-2.561v1.4A1.164,1.164,0,0,1,0,0Z" fill="none" stroke="#000" stroke-linecap="round" stroke-linejoin="round" stroke-miterlimit="10" stroke-width="1.729"/>
            </g>
            <g id="g7758" transform="translate(29.5 -30.664)">
              <path id="path7760" d="M0,0V-13.969" fill="none" stroke="#000" stroke-linecap="round" stroke-linejoin="round" stroke-miterlimit="10" stroke-width="1.729"/>
            </g>
            <g id="g7762" transform="translate(29.5 -44.516)">
              <path id="path7764" d="M0,0A2.328,2.328,0,0,1,2.328-2.328,2.328,2.328,0,0,1,4.656,0a2.318,2.318,0,0,1-.465,1.4" fill="none" stroke="#000" stroke-linecap="round" stroke-linejoin="round" stroke-miterlimit="10" stroke-width="1.729"/>
            </g>
            <g id="g7766" transform="translate(29.5 -44.516)">
              <path id="path7768" d="M0,0A2.328,2.328,0,0,0-2.328-2.328,2.328,2.328,0,0,0-4.656,0a2.318,2.318,0,0,0,.465,1.4" fill="none" stroke="#000" stroke-linecap="round" stroke-linejoin="round" stroke-miterlimit="10" stroke-width="1.729"/>
            </g>
            <g id="g7770" transform="translate(42.887 -24.262)">
              <path id="path7772" d="M0,0-3.725-3.725" fill="none" stroke="#000" stroke-linecap="round" stroke-linejoin="round" stroke-miterlimit="10" stroke-width="1.729"/>
            </g>
            <g id="g7774" transform="translate(16.113 -24.262)">
              <path id="path7776" d="M0,0,3.725-3.725" fill="none" stroke="#000" stroke-linecap="round" stroke-linejoin="round" stroke-miterlimit="10" stroke-width="1.729"/>
            </g>
          </g>
        </g>
      </g>
    </g>
  </g>
</svg>
