<svg xmlns="http://www.w3.org/2000/svg" xmlns:xlink="http://www.w3.org/1999/xlink" width="78.501" height="70.574" viewBox="0 0 78.501 70.574">
  <defs>
    <clipPath id="clip-path">
      <rect id="Rectángulo_401729" data-name="Rectángulo 401729" width="59" height="59" transform="translate(303 5305)" fill="#fff" stroke="#707070" stroke-width="1"/>
    </clipPath>
  </defs>
  <g id="Grupo_1101511" data-name="Grupo 1101511" transform="translate(-186.499 -7833)">
    <g id="Grupo_1100229" data-name="Grupo 1100229" transform="translate(-105 2528)">
      <path id="_12068" data-name="12068" d="M72.033,71.913c-8.038-1.11-16.53-.839-23.844,2.675C38.045,79.46,31.382,90.507,31.127,101.757s5.606,22.305,14.66,28.988,21,9.051,32.068,7.045c11.165-2.023,21.645-8.583,27.469-18.322,3.735-6.245,5.48-13.956,3.417-20.934a28.6,28.6,0,0,0-6.787-11.156A50.145,50.145,0,0,0,72.033,71.913Z" transform="translate(260.38 5237.093)" fill="#7d6eb2"/>
      <g id="Enmascarar_grupo_1098742" data-name="Enmascarar grupo 1098742" clip-path="url(#clip-path)">
        <g id="objetivo_1_" data-name="objetivo (1)" transform="translate(303 5305)">
          <g id="Grupo_1100270" data-name="Grupo 1100270">
            <path id="Trazado_875030" data-name="Trazado 875030" d="M29.5,4.589A18.043,18.043,0,1,0,47.543,22.632,18.043,18.043,0,0,0,29.5,4.589Zm0,32.361A14.318,14.318,0,1,1,43.818,22.632,14.334,14.334,0,0,1,29.5,36.95Z" fill="#ffd947"/>
          </g>
          <g id="Grupo_1100271" data-name="Grupo 1100271">
            <path id="Trazado_875031" data-name="Trazado 875031" d="M15.182,22.632a14.255,14.255,0,0,1,.778-4.656h-3.9a18.138,18.138,0,0,0,0,9.313h3.9A14.255,14.255,0,0,1,15.182,22.632Z" fill="#e5b80d"/>
          </g>
          <g id="Grupo_1100272" data-name="Grupo 1100272">
            <path id="Trazado_875032" data-name="Trazado 875032" d="M24.844,5.2v3.9a14.323,14.323,0,0,1,9.312,0V5.2a18.137,18.137,0,0,0-9.312,0Z" fill="#e5b80d"/>
          </g>
          <g id="Grupo_1100273" data-name="Grupo 1100273">
            <path id="Trazado_875033" data-name="Trazado 875033" d="M43.818,22.632a14.255,14.255,0,0,1-.778,4.656h3.9a18.138,18.138,0,0,0,0-9.313h-3.9A14.256,14.256,0,0,1,43.818,22.632Z" fill="#e5b80d"/>
          </g>
          <g id="Grupo_1100274" data-name="Grupo 1100274">
            <path id="Trazado_875034" data-name="Trazado 875034" d="M29.5,12.039A10.593,10.593,0,1,0,40.093,22.632,10.6,10.6,0,0,0,29.5,12.039Zm0,17.461a6.868,6.868,0,1,1,6.868-6.868A6.876,6.876,0,0,1,29.5,29.5Z" fill="#ffe07d"/>
          </g>
          <g id="Grupo_1100275" data-name="Grupo 1100275">
            <circle id="Elipse_11617" data-name="Elipse 11617" cx="3.143" cy="3.143" r="3.143" transform="translate(26.357 19.489)" fill="#e278b1"/>
          </g>
          <g id="Grupo_1100276" data-name="Grupo 1100276">
            <path id="Trazado_875035" data-name="Trazado 875035" d="M30.2,12.039H28.8a1.164,1.164,0,0,1-1.164-1.164V2.028A1.164,1.164,0,0,1,28.8.864h1.4a1.164,1.164,0,0,1,1.164,1.164v8.847A1.164,1.164,0,0,1,30.2,12.039Z" fill="#ffd947"/>
          </g>
          <g id="Grupo_1100277" data-name="Grupo 1100277">
            <path id="Trazado_875036" data-name="Trazado 875036" d="M18.907,21.934v1.4a1.164,1.164,0,0,1-1.164,1.164H8.9A1.164,1.164,0,0,1,7.732,23.33v-1.4A1.164,1.164,0,0,1,8.9,20.769h8.847A1.164,1.164,0,0,1,18.907,21.934Z" fill="#ffd947"/>
          </g>
          <g id="Grupo_1100278" data-name="Grupo 1100278">
            <path id="Trazado_875037" data-name="Trazado 875037" d="M40.093,23.33v-1.4a1.164,1.164,0,0,1,1.164-1.164H50.1a1.164,1.164,0,0,1,1.164,1.164v1.4A1.164,1.164,0,0,1,50.1,24.495H41.257A1.164,1.164,0,0,1,40.093,23.33Z" fill="#ffd947"/>
          </g>
          <g id="Grupo_1100284" data-name="Grupo 1100284">
            <g id="Grupo_1100279" data-name="Grupo 1100279">
              <path id="Trazado_875038" data-name="Trazado 875038" d="M47.892,53.712h3.725v4.423H47.892Z" fill="#f1d0a5"/>
            </g>
            <g id="Grupo_1100280" data-name="Grupo 1100280">
              <circle id="Elipse_11618" data-name="Elipse 11618" cx="4.307" cy="4.307" r="4.307" transform="translate(38.696 36.484)" fill="#f1d0a5"/>
            </g>
            <g id="Grupo_1100281" data-name="Grupo 1100281">
              <path id="Trazado_875039" data-name="Trazado 875039" d="M45.01,36.98A4.307,4.307,0,0,1,39.192,42.8,4.307,4.307,0,1,0,45.01,36.98Z" fill="#f1b986"/>
            </g>
            <g id="Grupo_1100282" data-name="Grupo 1100282">
              <path id="Trazado_875040" data-name="Trazado 875040" d="M46.961,45.1H39.045a4.656,4.656,0,0,0-4.656,4.656v3.958h3.725v4.423h9.778V53.712h3.725V49.754A4.656,4.656,0,0,0,46.961,45.1Z" fill="#a2f4c1"/>
            </g>
            <g id="Grupo_1100283" data-name="Grupo 1100283">
              <path id="Trazado_875041" data-name="Trazado 875041" d="M40.675,58.136V47.426a7.181,7.181,0,0,0-.388-2.328H39.045a4.656,4.656,0,0,0-4.656,4.656v3.958h3.725v4.423Z" fill="#78d0b1"/>
            </g>
          </g>
          <g id="Grupo_1100290" data-name="Grupo 1100290">
            <g id="Grupo_1100285" data-name="Grupo 1100285">
              <path id="Trazado_875042" data-name="Trazado 875042" d="M7.383,53.712h3.725v4.423H7.383Z" transform="translate(18.491 111.848) rotate(180)" fill="#f1d0a5"/>
            </g>
            <g id="Grupo_1100286" data-name="Grupo 1100286">
              <circle id="Elipse_11619" data-name="Elipse 11619" cx="4.307" cy="4.307" r="4.307" transform="translate(11.69 36.484)" fill="#f1d0a5"/>
            </g>
            <g id="Grupo_1100287" data-name="Grupo 1100287">
              <path id="Trazado_875043" data-name="Trazado 875043" d="M12.186,42.8A4.307,4.307,0,0,0,18,36.98,4.307,4.307,0,1,1,12.186,42.8Z" fill="#f1b986"/>
            </g>
            <g id="Grupo_1100288" data-name="Grupo 1100288">
              <path id="Trazado_875044" data-name="Trazado 875044" d="M12.039,45.1h7.916a4.656,4.656,0,0,1,4.656,4.656v3.958H20.886v4.423H11.108V53.712H7.383V49.754A4.656,4.656,0,0,1,12.039,45.1Z" fill="#ffe07d"/>
            </g>
            <g id="Grupo_1100289" data-name="Grupo 1100289">
              <path id="Trazado_875045" data-name="Trazado 875045" d="M18.325,58.136V47.426a7.181,7.181,0,0,1,.388-2.328h1.242a4.656,4.656,0,0,1,4.656,4.656v3.958H20.886v4.423Z" fill="#ffd064"/>
            </g>
          </g>
          <g id="Grupo_1100297" data-name="Grupo 1100297">
            <g id="Grupo_1100291" data-name="Grupo 1100291">
              <path id="Trazado_875046" data-name="Trazado 875046" d="M34.389,51.384h3.725v6.751H34.389Z" fill="#f1d0a5"/>
            </g>
            <g id="Grupo_1100292" data-name="Grupo 1100292">
              <path id="Trazado_875047" data-name="Trazado 875047" d="M20.886,51.384h3.725v6.751H20.886Z" transform="translate(45.497 109.52) rotate(180)" fill="#f1d0a5"/>
            </g>
            <g id="Grupo_1100293" data-name="Grupo 1100293">
              <circle id="Elipse_11620" data-name="Elipse 11620" cx="4.307" cy="4.307" r="4.307" transform="translate(25.193 34.156)" fill="#f1d0a5"/>
            </g>
            <g id="Grupo_1100294" data-name="Grupo 1100294">
              <path id="Trazado_875048" data-name="Trazado 875048" d="M31.507,34.652a4.307,4.307,0,0,1-5.817,5.817,4.307,4.307,0,1,0,5.817-5.817Z" fill="#f1b986"/>
            </g>
            <g id="Grupo_1100295" data-name="Grupo 1100295">
              <path id="Trazado_875049" data-name="Trazado 875049" d="M33.458,42.77H25.542a4.656,4.656,0,0,0-4.656,4.656v3.958h3.725v6.751h9.778V51.384h3.725V47.426a4.656,4.656,0,0,0-4.656-4.656Z" fill="#80b4fb"/>
            </g>
            <g id="Grupo_1100296" data-name="Grupo 1100296">
              <path id="Trazado_875050" data-name="Trazado 875050" d="M35,43.033A19.429,19.429,0,0,1,24.611,53.6v4.535h9.778V51.384h3.725V47.426A4.657,4.657,0,0,0,35,43.033Z" fill="#61a2f9"/>
            </g>
          </g>
          <g id="Grupo_1100298" data-name="Grupo 1100298">
            <path id="Trazado_875051" data-name="Trazado 875051" d="M29.5,30.364a7.732,7.732,0,1,0-7.732-7.732A7.741,7.741,0,0,0,29.5,30.364Zm0-13.736a6,6,0,1,1-6,6A6.011,6.011,0,0,1,29.5,16.628Z"/>
            <path id="Trazado_875052" data-name="Trazado 875052" d="M29.5,26.639a4.007,4.007,0,1,0-4.007-4.007A4.012,4.012,0,0,0,29.5,26.639Zm0-6.286a2.279,2.279,0,1,1-2.279,2.279A2.281,2.281,0,0,1,29.5,20.353Z"/>
            <path id="Trazado_875053" data-name="Trazado 875053" d="M52.481,49.755a5.527,5.527,0,0,0-5.521-5.521h-.1a5.167,5.167,0,0,0-3.624-8.608c.119-.126.238-.254.355-.384a18.742,18.742,0,0,0,4.624-9.883H50.1a2.031,2.031,0,0,0,2.028-2.028v-1.4A2.031,2.031,0,0,0,50.1,19.905H48.211A18.915,18.915,0,0,0,32.227,3.922V2.028A2.03,2.03,0,0,0,30.2,0H28.8a2.031,2.031,0,0,0-2.028,2.028V3.922A18.915,18.915,0,0,0,10.789,19.905H8.9a2.031,2.031,0,0,0-2.028,2.028v1.4A2.031,2.031,0,0,0,8.9,25.359h1.892a18.741,18.741,0,0,0,4.624,9.883c.117.13.235.258.355.384a5.167,5.167,0,0,0-3.624,8.608h-.1a5.527,5.527,0,0,0-5.521,5.521v8.381A.864.864,0,0,0,7.383,59h5.875a.864.864,0,1,0,0-1.729H11.972V51.384a.864.864,0,1,0-1.729,0v1.463h-2V49.755a3.8,3.8,0,0,1,3.792-3.792h7.915c.088,0,.175,0,.262.01a5.5,5.5,0,0,0-.2,1.454v9.845H17.291a.864.864,0,1,0,0,1.729H41.356a.864.864,0,1,0,0-1.729H38.978V47.426a5.509,5.509,0,0,0-.2-1.454c.087-.006.174-.01.262-.01H46.96a3.8,3.8,0,0,1,3.792,3.792v3.093h-2V51.384a.864.864,0,0,0-1.729,0v5.887H45.39a.864.864,0,0,0,0,1.729h6.227a.864.864,0,0,0,.864-.864ZM10.243,54.576v2.7h-2v-2.7Zm36.2-13.785a3.447,3.447,0,0,1-3.434,3.443h-.018a3.443,3.443,0,1,1,3.452-3.443ZM34.639,39.029a5.135,5.135,0,0,0-.186-2.047,15.216,15.216,0,0,0,9.98-11.623h2.029A17.124,17.124,0,0,1,34.639,39.029ZM29.5,12.9a9.729,9.729,0,1,1-9.729,9.731v0A9.74,9.74,0,0,1,29.5,12.9Zm2.727-2.028V9.459A13.452,13.452,0,0,1,42.674,19.905H41.257a2.023,2.023,0,0,0-.606.093,11.5,11.5,0,0,0-8.517-8.517A2.018,2.018,0,0,0,32.227,10.875ZM31.833,33.85a11.494,11.494,0,0,0,8.818-8.584,2.021,2.021,0,0,0,.606.093h1.419a13.413,13.413,0,0,1-9,10.061,5.206,5.206,0,0,0-1.845-1.57Zm-4.665,0a5.205,5.205,0,0,0-1.845,1.57,13.413,13.413,0,0,1-9-10.061h1.419a2.02,2.02,0,0,0,.606-.093A11.494,11.494,0,0,0,27.167,33.85Zm-1.11,4.613A3.443,3.443,0,1,1,29.5,41.906,3.447,3.447,0,0,1,26.057,38.463ZM50.4,21.934v1.4a.3.3,0,0,1-.3.3H41.257a.3.3,0,0,1-.3-.3v-1.4a.3.3,0,0,1,.3-.3H50.1a.3.3,0,0,1,.3.3Zm-3.941-2.028H44.436A15.183,15.183,0,0,0,32.227,7.7V5.671A17.232,17.232,0,0,1,46.462,19.905ZM28.8,1.729h1.4a.3.3,0,0,1,.3.3V8.412s0,0,0,.006v2.457a.3.3,0,0,1-.3.3H28.8a.3.3,0,0,1-.3-.3V2.028a.3.3,0,0,1,.3-.3ZM26.773,5.671V7.7a15.136,15.136,0,0,0-6.629,2.983.864.864,0,1,0,1.067,1.36,13.412,13.412,0,0,1,5.562-2.583v1.416a2.021,2.021,0,0,0,.093.606A11.5,11.5,0,0,0,18.349,20a2.021,2.021,0,0,0-.606-.093H16.326a13.447,13.447,0,0,1,2.263-5.135.864.864,0,0,0-1.4-1.013,15.177,15.177,0,0,0-2.623,6.148H12.538A17.232,17.232,0,0,1,26.773,5.671ZM8.6,23.33v-1.4a.3.3,0,0,1,.3-.3h8.847a.3.3,0,0,1,.3.3v1.4a.3.3,0,0,1-.3.3H8.9a.3.3,0,0,1-.3-.3Zm3.94,2.028h2.029a15.215,15.215,0,0,0,9.98,11.623,5.135,5.135,0,0,0-.186,2.047A17.124,17.124,0,0,1,12.537,25.359Zm.017,15.433a3.443,3.443,0,1,1,3.452,3.443h-.018A3.447,3.447,0,0,1,12.554,40.791Zm7.4,3.443h-.1a5.16,5.16,0,0,0,1.162-4.7A18.808,18.808,0,0,0,25,41a5.2,5.2,0,0,0,.65.907h-.1a5.519,5.519,0,0,0-4.567,2.423,5.541,5.541,0,0,0-1.02-.095Zm3.792,13.038h-2V52.248h2Zm1.729-8.215a.864.864,0,0,0-1.729,0V50.52h-2V47.426a3.8,3.8,0,0,1,3.792-3.792h7.916a3.8,3.8,0,0,1,3.792,3.792V50.52h-2V49.056a.864.864,0,0,0-1.729,0v8.215h-8.05V49.056ZM37.25,57.271h-2V52.248h2Zm.775-12.943a5.519,5.519,0,0,0-4.567-2.423h-.1A5.2,5.2,0,0,0,34,41a18.8,18.8,0,0,0,3.982-1.463,5.16,5.16,0,0,0,1.162,4.7h-.1a5.54,5.54,0,0,0-1.02.095ZM48.757,57.271v-2.7h2v2.7Z"/>
          </g>
        </g>
      </g>
    </g>
  </g>
</svg>
