<svg xmlns="http://www.w3.org/2000/svg" width="1030" height="239" viewBox="0 0 1030 239">
  <g id="Grupo_1101510" data-name="Grupo 1101510" transform="translate(-285 -12181)">
    <g id="Trazado_878415" data-name="Trazado 878415" transform="translate(285 12181)" fill="#fff">
      <path d="M 1010 238 L 20 238 C 17.43462562561035 238 14.94649982452393 237.4977569580078 12.60462474822998 236.5072479248047 C 10.34224987030029 235.5503692626953 8.310250282287598 234.1802520751953 6.565000057220459 232.4349975585938 C 4.81974983215332 230.6897430419922 3.449625015258789 228.6577453613281 2.492749929428101 226.3953704833984 C 1.502249956130981 224.0536193847656 1 221.5653686523438 1 219 L 1 20 C 1 17.43462562561035 1.502249956130981 14.94637489318848 2.492749929428101 12.60462474822998 C 3.449625015258789 10.34224987030029 4.81974983215332 8.310250282287598 6.565000057220459 6.565000057220459 C 8.310250282287598 4.81974983215332 10.34224987030029 3.449625015258789 12.60462474822998 2.492749929428101 C 14.94649982452393 1.502249956130981 17.43462562561035 1 20 1 L 1010 1 C 1012.565490722656 1 1015.053649902344 1.502249956130981 1017.395385742188 2.492749929428101 C 1019.657775878906 3.449625015258789 1021.689758300781 4.81974983215332 1023.434997558594 6.565000057220459 C 1025.180297851562 8.310250282287598 1026.550415039062 10.34224987030029 1027.507202148438 12.60462474822998 C 1028.497802734375 14.94637489318848 1029 17.43449974060059 1029 20 L 1029 219 C 1029 221.5655059814453 1028.497802734375 224.0536193847656 1027.507202148438 226.3953704833984 C 1026.550415039062 228.6577453613281 1025.180297851562 230.6897430419922 1023.434997558594 232.4349975585938 C 1021.689758300781 234.1802520751953 1019.657775878906 235.5503692626953 1017.395385742188 236.5072479248047 C 1015.053649902344 237.4977569580078 1012.565490722656 238 1010 238 Z" stroke="none"/>
      <path d="M 20 2 C 15.1920166015625 2 10.671875 3.872268676757812 7.27197265625 7.272003173828125 C 3.872314453125 10.67185974121094 2 15.19200134277344 2 20 L 2 219 C 2 223.8079986572266 3.872314453125 228.3281402587891 7.27197265625 231.7279968261719 C 10.671875 235.1277313232422 15.1920166015625 237 20 237 L 1010 237 C 1014.807983398438 237 1019.328125 235.1277313232422 1022.72802734375 231.7279968261719 C 1026.127685546875 228.3281402587891 1028 223.8079986572266 1028 219 L 1028 20 C 1028 15.19200134277344 1026.127685546875 10.67185974121094 1022.72802734375 7.272003173828125 C 1019.328125 3.872268676757812 1014.807983398438 2 1010 2 L 20 2 M 20 0 L 1010 0 C 1021.045715332031 0 1030 8.954269409179688 1030 20 L 1030 219 C 1030 230.0457305908203 1021.045715332031 239 1010 239 L 20 239 C 8.95428466796875 239 0 230.0457305908203 0 219 L 0 20 C 0 8.954269409179688 8.95428466796875 0 20 0 Z" stroke="none" fill="#7d6eb2"/>
    </g>
    <path id="Trazado_878416" data-name="Trazado 878416" d="M10,0H75A10,10,0,0,1,85,10V75A10,10,0,0,1,75,85H10A10,10,0,0,1,0,75V10A10,10,0,0,1,10,0Z" transform="translate(443 12247)" fill="#ffd947"/>
    <path id="Trazado_878417" data-name="Trazado 878417" d="M10,0H75A10,10,0,0,1,85,10V75A10,10,0,0,1,75,85H10A10,10,0,0,1,0,75V10A10,10,0,0,1,10,0Z" transform="translate(548 12247)" fill="#ffd947"/>
    <path id="Trazado_878418" data-name="Trazado 878418" d="M10,0H75A10,10,0,0,1,85,10V75A10,10,0,0,1,75,85H10A10,10,0,0,1,0,75V10A10,10,0,0,1,10,0Z" transform="translate(653 12247)" fill="#ffd947"/>
    <path id="Trazado_878419" data-name="Trazado 878419" d="M10,0H75A10,10,0,0,1,85,10V75A10,10,0,0,1,75,85H10A10,10,0,0,1,0,75V10A10,10,0,0,1,10,0Z" transform="translate(758 12247)" fill="#ffd947"/>
    <path id="Trazado_878420" data-name="Trazado 878420" d="M10,0H75A10,10,0,0,1,85,10V75A10,10,0,0,1,75,85H10A10,10,0,0,1,0,75V10A10,10,0,0,1,10,0Z" transform="translate(863 12247)" fill="#ffd947"/>
    <path id="Trazado_878421" data-name="Trazado 878421" d="M10,0H75A10,10,0,0,1,85,10V75A10,10,0,0,1,75,85H10A10,10,0,0,1,0,75V10A10,10,0,0,1,10,0Z" transform="translate(968 12247)" fill="#ffd947"/>
    <path id="Trazado_878422" data-name="Trazado 878422" d="M10,0H75A10,10,0,0,1,85,10V75A10,10,0,0,1,75,85H10A10,10,0,0,1,0,75V10A10,10,0,0,1,10,0Z" transform="translate(1073 12247)" fill="#ffd947"/>
    <path id="Trazado_878423" data-name="Trazado 878423" d="M6.445-11.338a4.225,4.225,0,0,0-1.6-3.516,19.845,19.845,0,0,0-5.61-2.607,53.825,53.825,0,0,1-6.562-2.607q-8.291-4.072-8.291-11.191a10.036,10.036,0,0,1,2.065-6.255,13.359,13.359,0,0,1,5.845-4.219,22.745,22.745,0,0,1,8.5-1.509A19.9,19.9,0,0,1,9.038-41.6a13.057,13.057,0,0,1,5.669,4.673A12.2,12.2,0,0,1,16.729-30H6.475a5.157,5.157,0,0,0-1.6-4.043A6.224,6.224,0,0,0,.557-35.479a7.018,7.018,0,0,0-4.351,1.216,3.73,3.73,0,0,0-1.6,3.091A3.755,3.755,0,0,0-3.633-28.2a22.167,22.167,0,0,0,6.182,2.754,37.868,37.868,0,0,1,7.266,3.062Q16.729-18.4,16.729-11.4A10.416,10.416,0,0,1,12.51-2.607Q8.291.586.938.586a22.959,22.959,0,0,1-9.39-1.86,14.157,14.157,0,0,1-6.328-5.1A13.283,13.283,0,0,1-16.9-13.828H-6.592q0,3.428,1.772,5.054T.938-7.148a6.618,6.618,0,0,0,4.028-1.1A3.626,3.626,0,0,0,6.445-11.338Z" transform="translate(486 12311)" fill="#12263f"/>
    <path id="Trazado_878424" data-name="Trazado 878424" d="M18.047-14.443a15.578,15.578,0,0,1-2.4,7.866A14.5,14.5,0,0,1,9.478-1.289,20.99,20.99,0,0,1,.41.586Q-8,.586-12.832-4.893t-4.834-15.469v-2.109a25.82,25.82,0,0,1,2.183-10.972A16.538,16.538,0,0,1-9.2-40.708,17.533,17.533,0,0,1,.293-43.271q7.764,0,12.48,4.087T18.135-27.92H7.881q-.117-3.9-1.963-5.6t-5.625-1.7a6.143,6.143,0,0,0-5.625,2.871q-1.787,2.871-1.875,9.17v3.018q0,6.826,1.714,9.756t5.9,2.93a7.9,7.9,0,0,0,5.42-1.67q1.875-1.67,1.992-5.3Z" transform="translate(591 12311)" fill="#12263f"/>
    <path id="Trazado_878425" data-name="Trazado 878425" d="M7.017-7.969H-7.075L-9.536,0H-20.522L-4.878-42.656H4.79L20.552,0H9.507ZM-4.614-15.908h9.17L-.044-30.7Z" transform="translate(696 12311)" fill="#12263f"/>
    <path id="Trazado_878426" data-name="Trazado 878426" d="M-9.565-42.656-.044-12.979,9.448-42.656H22.983V0H12.671V-9.961l1-20.391L3.354,0h-6.8L-13.784-30.381l1,20.42V0H-23.071V-42.656Z" transform="translate(800 12311)" fill="#12263f"/>
    <path id="Trazado_878427" data-name="Trazado 878427" d="M-6.021-14.473V0H-16.3V-42.656H.718a19.825,19.825,0,0,1,8.657,1.8,13.579,13.579,0,0,1,5.83,5.127,14,14,0,0,1,2.065,7.544A12.343,12.343,0,0,1,12.8-18.208Q8.335-14.473.542-14.473Zm0-7.939H.718a6.355,6.355,0,0,0,4.556-1.494,5.551,5.551,0,0,0,1.567-4.219A6.862,6.862,0,0,0,5.229-32.9,5.706,5.706,0,0,0,.835-34.717H-6.021Z" transform="translate(906 12311)" fill="#12263f"/>
    <path id="Trazado_878428" data-name="Trazado 878428" d="M12.891-18.076H-3.281V-7.91h19.1V0H-13.564V-42.656H15.879v7.939H-3.281v8.994H12.891Z" transform="translate(1011 12311)" fill="#12263f"/>
    <path id="Trazado_878429" data-name="Trazado 878429" d="M-.5-15.059H-6.064V0H-16.348V-42.656H.439q7.588,0,11.865,3.369t4.277,9.521a13.876,13.876,0,0,1-1.8,7.383,12.791,12.791,0,0,1-5.64,4.746l8.906,17.2V0H7.031ZM-6.064-23h6.5a5.847,5.847,0,0,0,4.409-1.538,5.937,5.937,0,0,0,1.479-4.292,6.007,6.007,0,0,0-1.494-4.321A5.792,5.792,0,0,0,.439-34.717h-6.5Z" transform="translate(1116 12311)" fill="#12263f"/>
  </g>
</svg>
