<svg xmlns="http://www.w3.org/2000/svg" xmlns:xlink="http://www.w3.org/1999/xlink" width="96.836" height="97.423" viewBox="0 0 96.836 97.423">
  <defs>
    <clipPath id="clip-path">
      <rect id="Rectángulo_402214" data-name="Rectángulo 402214" width="80" height="80" transform="translate(-2624.529 -177)" fill="#fff" stroke="#707070" stroke-width="1"/>
    </clipPath>
  </defs>
  <g id="Grupo_1101390" data-name="Grupo 1101390" transform="translate(2632.947 183.576)">
    <path id="_12068" data-name="12068" d="M72.033,71.913c-8.038-1.11-16.53-.839-23.844,2.675C38.045,79.46,31.382,90.507,31.127,101.757s5.606,22.305,14.66,28.988,21,9.051,32.068,7.045c11.165-2.023,21.645-8.583,27.469-18.322,3.735-6.245,5.48-13.956,3.417-20.934a28.6,28.6,0,0,0-6.787-11.156A50.145,50.145,0,0,0,72.033,71.913Z" transform="translate(-2654.648 -230.657)" fill="#26aab7"/>
    <g id="Enmascarar_grupo_1098771" data-name="Enmascarar grupo 1098771" clip-path="url(#clip-path)">
      <g id="cabeza_1_" data-name="cabeza (1)" transform="translate(-2620.931 -177)">
        <path id="Trazado_876645" data-name="Trazado 876645" d="M66.109,37.209v2.777A26.166,26.166,0,0,1,61.378,55l-4.571,6.524V79.734H22.256L20.927,73.09H8.967V53.156H2.322l9.3-15.947Zm0,0" fill="#f7bab4"/>
        <path id="Trazado_876646" data-name="Trazado 876646" d="M30.229,5.316a18.6,18.6,0,1,1-18.6,18.6,18.6,18.6,0,0,1,18.6-18.6Zm13.289,18.6A13.289,13.289,0,1,0,30.229,37.209,13.289,13.289,0,0,0,43.518,23.92Zm0,0" fill="#3dcde7"/>
        <path id="Trazado_876647" data-name="Trazado 876647" d="M30.229,15.947a7.973,7.973,0,1,1-7.973,7.973A7.974,7.974,0,0,1,30.229,15.947Zm2.658,7.973a2.658,2.658,0,1,0-2.658,2.658A2.658,2.658,0,0,0,32.887,23.92Zm0,0" fill="#3dcde7"/>
        <path id="Trazado_876648" data-name="Trazado 876648" d="M30.229,10.631A13.289,13.289,0,1,1,16.94,23.92,13.289,13.289,0,0,1,30.229,10.631ZM38.2,23.92a7.973,7.973,0,1,0-7.973,7.973A7.974,7.974,0,0,0,38.2,23.92Zm0,0" fill="#f95925"/>
        <path id="Trazado_876649" data-name="Trazado 876649" d="M32.887,23.92a2.658,2.658,0,1,1-2.658-2.658A2.658,2.658,0,0,1,32.887,23.92Zm0,0" fill="#f95925"/>
        <path id="Trazado_876650" data-name="Trazado 876650" d="M30.229,22.591H12.17l-3.588-3.6L6.694,20.877l1.727,1.714h-2.9l-3.588-3.6L.05,20.877,3.106,23.92.05,26.963,1.937,28.85l3.588-3.6h2.9L6.694,26.963,8.581,28.85l3.588-3.6h18.06Zm0,0" fill="#fce013"/>
        <path id="Trazado_876651" data-name="Trazado 876651" d="M50.163,34.551h7.973V35.88a3.987,3.987,0,1,1-7.973,0Zm0,0" fill="#f95925"/>
        <path id="Trazado_876652" data-name="Trazado 876652" d="M48.834,29.236H59.465v3.987a1.329,1.329,0,0,1-1.329,1.329H50.163a1.329,1.329,0,0,1-1.329-1.329Zm0,0" fill="#606060"/>
        <path id="Trazado_876653" data-name="Trazado 876653" d="M66.109,18.6a11.96,11.96,0,0,1-5.435,10.006,2.665,2.665,0,0,0-.891.957l-.319,1H48.834l-.478-1.249a2.445,2.445,0,0,0-.7-.678A11.959,11.959,0,0,1,42.189,18.6,12.093,12.093,0,0,1,53.777,6.645,11.961,11.961,0,0,1,66.109,18.6Zm0,0" fill="#fce013"/>
        <path id="Trazado_876654" data-name="Trazado 876654" d="M35.545,17.276H38.2v2.658H35.545Zm0,0" fill="#fce013"/>
        <path id="Trazado_876655" data-name="Trazado 876655" d="M70.1,17.276h2.658v2.658H70.1Zm0,0" fill="#f95925"/>
        <path id="Trazado_876656" data-name="Trazado 876656" d="M37.568,26.9l2.312-1.329,1.329,2.312L38.9,29.209Zm0,0" fill="#fce013"/>
        <g id="Grupo_1101389" data-name="Grupo 1101389">
          <path id="Trazado_876657" data-name="Trazado 876657" d="M67.619,9.561l2.312-1.329,1.329,2.313-2.312,1.329Zm0,0" fill="#f95925"/>
          <path id="Trazado_876658" data-name="Trazado 876658" d="M60.969,4.131l1.33-2.3,2.3,1.33-1.33,2.3Zm0,0" fill="#f95925"/>
          <path id="Trazado_876659" data-name="Trazado 876659" d="M52.82,0h2.658V2.658H52.82Zm0,0" fill="#f95925"/>
          <path id="Trazado_876660" data-name="Trazado 876660" d="M43.917,3.219,46.229,1.89,47.558,4.2,45.246,5.532Zm0,0" fill="#f95925"/>
          <path id="Trazado_876661" data-name="Trazado 876661" d="M67.292,27.729l1.33-2.3,2.3,1.33-1.33,2.3Zm0,0" fill="#f95925"/>
        </g>
        <path id="Trazado_876662" data-name="Trazado 876662" d="M37.371,10.455l1.33-2.3L41,9.484l-1.33,2.3Zm0,0" fill="#fce013"/>
        <path id="Trazado_876663" data-name="Trazado 876663" d="M8.967,74.418H19.837L20.927,80l2.658-.532-1.329-6.644a1.329,1.329,0,0,0-1.329-1.063H10.3v-18.6a1.329,1.329,0,0,0-1.329-1.329H4.634l8.133-13.953-2.285-1.329L1.18,52.492a1.328,1.328,0,0,0,1.143,1.993H7.638v18.6a1.329,1.329,0,0,0,1.329,1.329Zm0,0"/>
        <path id="Trazado_876664" data-name="Trazado 876664" d="M64.781,39.986a24.719,24.719,0,0,1-4.492,14.246l-4.571,6.538a1.246,1.246,0,0,0-.239.757V79.734h2.658V61.954l4.332-6.14a27.347,27.347,0,0,0,4.97-15.827V37.209H64.781Zm0,0"/>
        <path id="Trazado_876665" data-name="Trazado 876665" d="M45.5,36.744l-1.98-1.714a17.276,17.276,0,0,1-30.5-9.781h2.658A14.618,14.618,0,0,0,41.352,33.4l-2.02-1.727a11.96,11.96,0,0,1-20.983-6.419h2.658a9.3,9.3,0,0,0,15.4,5.595l-1.768-1.98a6.644,6.644,0,0,1-10.923-3.615h2.764a3.987,3.987,0,1,0,0-2.658H23.718a6.644,6.644,0,0,1,8.731-4.93l.877-2.512a9.089,9.089,0,0,0-3.1-.531,9.3,9.3,0,0,0-9.2,7.973H18.375A11.96,11.96,0,0,1,30.229,11.96a12.383,12.383,0,0,1,3.282.452l.7-2.551a14.618,14.618,0,0,0-18.6,12.731H12.953A17.276,17.276,0,0,1,30.229,6.644a17.03,17.03,0,0,1,4.93.718l.771-2.551a19.933,19.933,0,0,0-25.4,16.146L8.581,18.99,6.694,20.877l1.727,1.714h-2.9l-3.588-3.6L.05,20.877,3.106,23.92.05,26.963,1.937,28.85l3.588-3.6h2.9L6.694,26.963,8.581,28.85l1.954-1.967A19.933,19.933,0,0,0,45.5,36.744ZM31.558,23.92a1.329,1.329,0,0,1-1.329,1.329V22.591A1.329,1.329,0,0,1,31.558,23.92Zm0,0"/>
        <path id="Trazado_876666" data-name="Trazado 876666" d="M53.737,5.316a13.252,13.252,0,0,0-6.8,24.385,1.329,1.329,0,0,1,.572,1.076v2.445a2.658,2.658,0,0,0,1.329,2.286v.372a5.316,5.316,0,1,0,10.631,0v-.372a2.658,2.658,0,0,0,1.329-2.286V30.831a1.329,1.329,0,0,1,.611-1.1A13.289,13.289,0,0,0,53.737,5.316Zm.412,33.222a2.658,2.658,0,0,1-2.658-2.658h5.316A2.658,2.658,0,0,1,54.149,38.538Zm5.794-11.03a3.986,3.986,0,0,0-1.807,3.322v2.392H50.163V30.565h5.316V27.907H48.834a3.2,3.2,0,0,0-.452-.385A10.631,10.631,0,0,1,53.817,7.973h.332a10.631,10.631,0,0,1,5.794,19.535Zm0,0"/>
        <path id="Trazado_876667" data-name="Trazado 876667" d="M35.545,17.276H38.2v2.658H35.545Zm0,0"/>
        <path id="Trazado_876668" data-name="Trazado 876668" d="M70.1,17.276h2.658v2.658H70.1Zm0,0"/>
        <path id="Trazado_876669" data-name="Trazado 876669" d="M37.373,26.76l2.3-1.328L41,27.733l-2.3,1.329Zm0,0"/>
        <path id="Trazado_876670" data-name="Trazado 876670" d="M67.295,9.489l2.3-1.328,1.328,2.3-2.3,1.329Zm0,0"/>
        <path id="Trazado_876671" data-name="Trazado 876671" d="M60.976,4.131,62.3,1.83l2.3,1.33-1.33,2.3Zm0,0"/>
        <path id="Trazado_876672" data-name="Trazado 876672" d="M52.82,0h2.658V2.658H52.82Zm0,0"/>
        <path id="Trazado_876673" data-name="Trazado 876673" d="M43.7,3.153,46,1.824l1.33,2.3-2.3,1.33Zm0,0"/>
        <path id="Trazado_876674" data-name="Trazado 876674" d="M67.3,27.734l1.329-2.3,2.3,1.33-1.33,2.3Zm0,0"/>
        <path id="Trazado_876675" data-name="Trazado 876675" d="M37.374,10.459l1.329-2.3L41,9.485l-1.328,2.3Zm0,0"/>
      </g>
    </g>
    <g id="Grupo_1101368" data-name="Grupo 1101368" transform="translate(-2707.936 74.56) rotate(-90)">
      <path id="Trazado_873104" data-name="Trazado 873104" d="M149.557,395.548a1.582,1.582,0,1,0-.106-2.456A1.573,1.573,0,0,0,149.557,395.548Z" transform="translate(15.93 -245.31)" fill="#fff"/>
      <path id="Trazado_873105" data-name="Trazado 873105" d="M417.219,416a1.582,1.582,0,1,0-.105-2.456A1.573,1.573,0,0,0,417.219,416Z" transform="translate(-225.435 -246.323)" fill="#ffd947"/>
      <path id="Trazado_873106" data-name="Trazado 873106" d="M303.26,44.546a1.582,1.582,0,1,0-.106-2.456A1.573,1.573,0,0,0,303.26,44.546Z" transform="translate(-71.901 35.132)" fill="#7d6eb2"/>
      <path id="Trazado_873109" data-name="Trazado 873109" d="M339.452,404.413a3.448,3.448,0,1,0-1.687-4.918A3.468,3.468,0,0,0,339.452,404.413Z" transform="translate(-86.035 -252.255)" fill="#7d6eb2"/>
      <path id="Trazado_873110" data-name="Trazado 873110" d="M390.262,440.006a3.448,3.448,0,1,0-1.687-4.918A3.468,3.468,0,0,0,390.262,440.006Z" transform="translate(-188.42 -268.41)" fill="#ffd947"/>
      <path id="Trazado_873111" data-name="Trazado 873111" d="M176.115,56.142a3.448,3.448,0,1,0-1.687-4.918A3.468,3.468,0,0,0,176.115,56.142Z" transform="translate(0.87 25.456)" fill="#ffd947"/>
      <path id="Trazado_873113" data-name="Trazado 873113" d="M321.56,66.974a3.448,3.448,0,1,0-1.687-4.918A3.468,3.468,0,0,0,321.56,66.974Z" transform="translate(-97.565 19.105)" fill="#ffd947"/>
      <circle id="Elipse_11485" data-name="Elipse 11485" cx="1.689" cy="1.689" r="1.689" transform="translate(161.463 137.255)" fill="none" stroke="#26aab7" stroke-linecap="round" stroke-linejoin="round" stroke-width="1.5"/>
    </g>
  </g>
</svg>
