<svg xmlns="http://www.w3.org/2000/svg" xmlns:xlink="http://www.w3.org/1999/xlink" width="117.245" height="100.289" viewBox="0 0 117.245 100.289">
  <defs>
    <clipPath id="clip-path">
      <rect id="Rectángulo_402209" data-name="Rectángulo 402209" width="52.159" height="78.553" transform="translate(0 0)" fill="none"/>
    </clipPath>
  </defs>
  <g id="Grupo_1101511" data-name="Grupo 1101511" transform="translate(-731.377 -9926.621)">
    <path id="_12068" data-name="12068" d="M92.226,72.2c-12.006-1.658-24.688-1.252-35.612,3.995-15.15,7.277-25.1,23.776-25.482,40.579s8.372,33.314,21.9,43.3,31.357,13.519,47.9,10.522c16.676-3.022,32.328-12.82,41.027-27.365,5.578-9.327,8.185-20.844,5.1-31.265-1.86-6.29-5.663-11.864-10.137-16.662A74.9,74.9,0,0,0,92.226,72.2Z" transform="translate(700.258 9855.288)" fill="#62529b"/>
    <g id="Grupo_1101338" data-name="Grupo 1101338" transform="matrix(0.985, 0.174, -0.174, 0.985, 771.137, 9931.939)">
      <g id="Grupo_1101336" data-name="Grupo 1101336" transform="translate(0 0.003)" clip-path="url(#clip-path)">
        <path id="Trazado_876554" data-name="Trazado 876554" d="M48.4,209.913H3.763A3.763,3.763,0,0,1,0,206.15V142.127a3.763,3.763,0,0,1,3.763-3.763H48.4a3.763,3.763,0,0,1,3.763,3.763V206.15a3.763,3.763,0,0,1-3.763,3.763" transform="translate(0 -131.36)" fill="#a9bae6"/>
        <rect id="Rectángulo_402193" data-name="Rectángulo 402193" width="42.931" height="62.362" transform="translate(4.714 9.888)" fill="#f6f5f5"/>
        <path id="Trazado_876555" data-name="Trazado 876555" d="M136.04,195.329c.013,24.318.8,53.646-1.933,60.14-12.032,1.172-26.119,1.548-41,1.618l5.656-61.571Z" transform="translate(-88.395 -185.441)" fill="#e4e4e4"/>
        <path id="Trazado_876556" data-name="Trazado 876556" d="M87.614,253.557c-18.753,3-31.287,3.16-41.452,2.4,1.317-14.023,1.845-37.319,2.377-60.577l22.6.05,20.452,1.35c.3,24.14.331,46.438-3.974,56.772" transform="translate(-43.825 -185.494)" fill="#fff"/>
        <rect id="Rectángulo_402194" data-name="Rectángulo 402194" width="3.441" height="22.59" transform="translate(14.498 19.079) rotate(-88.652)" fill="#708cd5"/>
        <rect id="Rectángulo_402195" data-name="Rectángulo 402195" width="1.575" height="20.376" transform="matrix(0.024, -1, 1, 0.024, 21.109, 25.684)" fill="#708cd5"/>
        <rect id="Rectángulo_402196" data-name="Rectángulo 402196" width="1.575" height="13.85" transform="translate(21.028 29.117) rotate(-88.652)" fill="#d3dfff"/>
        <rect id="Rectángulo_402197" data-name="Rectángulo 402197" width="4.824" height="4.824" transform="translate(9.791 28.76) rotate(-88.652)" fill="#fff"/>
        <path id="Trazado_876557" data-name="Trazado 876557" d="M195.458,475.029l-5.126-.121.121-5.126,5.126.121Zm-4.815-.417,4.519.106.106-4.519-4.519-.106Z" transform="translate(-180.697 -446)" fill="#708cd5"/>
        <path id="Trazado_876558" data-name="Trazado 876558" d="M210.991,444.391c.149.57.424,2.958,1.62,2.29a3.64,3.64,0,0,0,.715-.8l1.112-1.263,2.225-2.526c.19-.216-.649-.757-.888-.486l-1.977,2.245-.989,1.123c-.229.26-.758,1.1-1.1,1.172l.554.179c.13.107-.112-.651-.117-.672l-.276-1.056c-.076-.291-.994-.641-.882-.21" transform="translate(-200.301 -419.185)" fill="#ee6f57"/>
        <rect id="Rectángulo_402198" data-name="Rectángulo 402198" width="1.575" height="16.78" transform="translate(20.902 34.451) rotate(-88.652)" fill="#708cd5"/>
        <rect id="Rectángulo_402199" data-name="Rectángulo 402199" width="1.575" height="20.376" transform="matrix(0.024, -1, 1, 0.024, 20.821, 37.884)" fill="#d3dfff"/>
        <rect id="Rectángulo_402200" data-name="Rectángulo 402200" width="4.824" height="4.824" transform="translate(9.584 37.527) rotate(-88.652)" fill="#fff"/>
        <path id="Trazado_876559" data-name="Trazado 876559" d="M191.383,648.22l-5.126-.121.121-5.126,5.126.121Zm-4.815-.417,4.519.106.106-4.519-4.519-.106Z" transform="translate(-176.828 -610.424)" fill="#708cd5"/>
        <path id="Trazado_876560" data-name="Trazado 876560" d="M206.852,620.269c.149.57.424,2.958,1.62,2.29a3.64,3.64,0,0,0,.715-.8L210.3,620.5l2.225-2.526c.19-.216-.649-.757-.888-.486l-1.977,2.245-.989,1.122c-.229.26-.758,1.1-1.1,1.172l.554.179c.13.107-.112-.651-.117-.672l-.276-1.057c-.076-.291-.994-.641-.882-.21" transform="translate(-196.371 -586.159)" fill="#ee6f57"/>
        <rect id="Rectángulo_402201" data-name="Rectángulo 402201" width="1.575" height="20.376" transform="matrix(0.024, -1, 1, 0.024, 20.696, 43.219)" fill="#708cd5"/>
        <rect id="Rectángulo_402202" data-name="Rectángulo 402202" width="1.575" height="9.113" transform="matrix(0.024, -1, 1, 0.024, 20.615, 46.652)" fill="#d3dfff"/>
        <rect id="Rectángulo_402203" data-name="Rectángulo 402203" width="4.824" height="4.824" transform="translate(9.378 46.295) rotate(-88.652)" fill="#fff"/>
        <path id="Trazado_876561" data-name="Trazado 876561" d="M187.307,821.411l-5.126-.121.121-5.126,5.126.121Zm-4.815-.417,4.519.106.106-4.519-4.519-.106Z" transform="translate(-172.958 -774.847)" fill="#708cd5"/>
        <path id="Trazado_876562" data-name="Trazado 876562" d="M204.069,794.691c.149.57.424,2.958,1.62,2.29a3.641,3.641,0,0,0,.715-.8l1.112-1.263,2.225-2.526c.19-.216-.649-.757-.888-.486l-1.977,2.245-.989,1.123c-.229.26-.758,1.1-1.1,1.172l.554.179c.13.107-.112-.651-.117-.672l-.276-1.056c-.076-.291-.994-.641-.882-.21" transform="translate(-193.729 -751.751)" fill="#ee6f57"/>
        <rect id="Rectángulo_402204" data-name="Rectángulo 402204" width="1.575" height="20.376" transform="matrix(0.024, -1, 1, 0.024, 20.49, 51.986)" fill="#708cd5"/>
        <rect id="Rectángulo_402205" data-name="Rectángulo 402205" width="1.575" height="16.097" transform="translate(20.409 55.419) rotate(-88.652)" fill="#d3dfff"/>
        <rect id="Rectángulo_402206" data-name="Rectángulo 402206" width="4.824" height="4.824" transform="translate(9.172 55.062) rotate(-88.652)" fill="#fff"/>
        <path id="Trazado_876563" data-name="Trazado 876563" d="M183.23,994.6l-5.126-.121.121-5.126,5.126.121Zm-4.815-.417,4.519.106.106-4.519-4.519-.106Z" transform="translate(-169.088 -939.27)" fill="#708cd5"/>
        <path id="Trazado_876564" data-name="Trazado 876564" d="M200.019,966.745c.149.57.424,2.958,1.62,2.29a3.641,3.641,0,0,0,.715-.8l1.112-1.263,2.225-2.526c.19-.216-.649-.757-.888-.486l-1.977,2.245-.989,1.123c-.229.26-.758,1.1-1.1,1.172l.554.179c.13.107-.112-.651-.117-.672l-.276-1.057c-.076-.291-.994-.641-.882-.21" transform="translate(-189.884 -915.095)" fill="#ee6f57"/>
        <rect id="Rectángulo_402207" data-name="Rectángulo 402207" width="1.575" height="8.077" transform="matrix(0.024, -1, 1, 0.024, 20.285, 60.688)" fill="#708cd5"/>
        <path id="Trazado_876565" data-name="Trazado 876565" d="M419.509,1236l-20.371-.479-.037,1.575c7.881.185,17.916.554,19.964.24a1.768,1.768,0,0,0,.444-1.335" transform="translate(-378.897 -1172.972)" fill="#d3dfff"/>
        <rect id="Rectángulo_402208" data-name="Rectángulo 402208" width="4.824" height="4.824" transform="translate(9.034 63.765) rotate(-88.652)" fill="#fff"/>
        <path id="Trazado_876566" data-name="Trazado 876566" d="M180.518,1166.515l-5.126-.121.121-5.126,5.126.12Zm-4.815-.417,4.519.106.106-4.519-4.519-.106Z" transform="translate(-166.513 -1102.481)" fill="#708cd5"/>
        <path id="Trazado_876567" data-name="Trazado 876567" d="M196,1137.294c.149.57.424,2.958,1.62,2.29a3.644,3.644,0,0,0,.715-.8l1.112-1.263,2.225-2.526c.19-.216-.649-.757-.888-.486l-1.977,2.245-.989,1.123c-.229.26-.758,1.1-1.1,1.172l.554.179c.13.107-.112-.651-.117-.672l-.276-1.056c-.076-.291-.994-.641-.882-.21" transform="translate(-186.073 -1077.011)" fill="#ee6f57"/>
        <path id="Trazado_876568" data-name="Trazado 876568" d="M343.5,7.441v4.813H324.159V7.441a2.778,2.778,0,0,1,.814-1.966,2.29,2.29,0,0,1,.2-.176,2.76,2.76,0,0,1,1.77-.638,3.275,3.275,0,0,0,1.422-.324,3.412,3.412,0,0,0,.535-.322,3.273,3.273,0,0,0,1.187-1.683A3.286,3.286,0,0,1,333.225,0h1.207a3.286,3.286,0,0,1,3.143,2.329,3.273,3.273,0,0,0,1.187,1.683,3.412,3.412,0,0,0,.535.322,3.275,3.275,0,0,0,1.422.324,2.784,2.784,0,0,1,2.78,2.78" transform="translate(-307.749 -0.003)" fill="#ee6f57"/>
        <path id="Trazado_876569" data-name="Trazado 876569" d="M315.636,195.323V198.9H293.159v-3.578h1.569v2.363h19.338v-2.363Z" transform="translate(-278.319 -185.435)" fill="#e4e4e4"/>
        <path id="Trazado_876570" data-name="Trazado 876570" d="M484.713,26.423A1.717,1.717,0,1,1,483,24.793a1.674,1.674,0,0,1,1.715,1.63" transform="translate(-456.918 -23.538)" fill="#fff"/>
      </g>
    </g>
  </g>
</svg>
