<svg xmlns="http://www.w3.org/2000/svg" xmlns:xlink="http://www.w3.org/1999/xlink" width="78.501" height="73.824" viewBox="0 0 78.501 73.824">
  <defs>
    <clipPath id="clip-path">
      <rect id="Rectángulo_402148" data-name="Rectángulo 402148" width="65" height="65" transform="translate(926 519)" fill="#fff" stroke="#707070" stroke-width="1"/>
    </clipPath>
  </defs>
  <g id="Grupo_1101513" data-name="Grupo 1101513" transform="translate(-918 -457)">
    <path id="_12068" data-name="12068" d="M72.033,71.913c-8.038-1.11-16.53-.839-23.844,2.675C38.045,79.46,31.382,90.507,31.127,101.757s5.606,22.305,14.66,28.988,21,9.051,32.068,7.045c11.165-2.023,21.645-8.583,27.469-18.322,3.735-6.245,5.48-13.956,3.417-20.934a28.6,28.6,0,0,0-6.787-11.156A50.145,50.145,0,0,0,72.033,71.913Z" transform="translate(886.881 392.343)" fill="#26aab7"/>
    <g id="Enmascarar_grupo_1098759" data-name="Enmascarar grupo 1098759" transform="translate(0 -62)" clip-path="url(#clip-path)">
      <g id="buena-idea" transform="translate(926 520.181)">
        <path id="Trazado_876270" data-name="Trazado 876270" d="M38,4.449l4.993,10.117a6.136,6.136,0,0,0,4.619,3.356l11.164,1.622a6.135,6.135,0,0,1,3.4,10.464L54.1,37.882a6.134,6.134,0,0,0-1.764,5.43L54.241,54.43a6.135,6.135,0,0,1-8.9,6.467l-9.986-5.25a6.134,6.134,0,0,0-5.709,0L19.66,60.9a6.135,6.135,0,0,1-8.9-6.467l1.907-11.119a6.134,6.134,0,0,0-1.764-5.43L2.823,30.007a6.134,6.134,0,0,1,3.4-10.464l11.164-1.622a6.136,6.136,0,0,0,4.619-3.356L27,4.449a6.135,6.135,0,0,1,11,0Zm0,0" fill="#cc0b4b"/>
        <path id="Trazado_876271" data-name="Trazado 876271" d="M36.792,10.356l3.9,7.893a4.786,4.786,0,0,0,3.6,2.618L53,22.132A4.786,4.786,0,0,1,55.653,30.3l-6.3,6.143a4.786,4.786,0,0,0-1.377,4.237l1.488,8.675A4.786,4.786,0,0,1,42.518,54.4l-7.791-4.1a4.786,4.786,0,0,0-4.454,0l-7.791,4.1a4.786,4.786,0,0,1-6.944-5.045l1.488-8.675a4.786,4.786,0,0,0-1.377-4.237L9.346,30.3A4.786,4.786,0,0,1,12,22.132l8.71-1.266a4.786,4.786,0,0,0,3.6-2.618l3.9-7.893a4.787,4.787,0,0,1,8.584,0Zm0,0" fill="#ea4455"/>
        <path id="Trazado_876272" data-name="Trazado 876272" d="M29.636,49.208c0,1.53,1.282,2.358,2.864,2.358s2.865-.828,2.865-2.358" fill="#585e68"/>
        <path id="Trazado_876273" data-name="Trazado 876273" d="M39.8,37.28v7.951a3.975,3.975,0,0,1-3.975,3.976H29.251a3.977,3.977,0,0,1-3.976-3.976V37.28Zm0,0" fill="#b8b8b8"/>
        <path id="Trazado_876274" data-name="Trazado 876274" d="M39.8,37.28v7.951a3.975,3.975,0,0,1-3.975,3.976H32.291a3.977,3.977,0,0,1-3.975-3.976V37.28Zm0,0" fill="#ebebeb"/>
        <path id="Trazado_876275" data-name="Trazado 876275" d="M42.189,33.011l-2.465,4.27H25.275l-2.465-4.27a11.156,11.156,0,0,1,1.637-13.372A11.039,11.039,0,0,1,32.5,16.228a11.507,11.507,0,0,1,2.1.191,11.2,11.2,0,0,1,7.59,16.591Zm0,0" fill="#f2a918"/>
        <path id="Trazado_876276" data-name="Trazado 876276" d="M42.189,33.011l-2.465,4.27H29.474l-2.466-4.27a11.154,11.154,0,0,1,1.638-13.372A10.989,10.989,0,0,1,34.6,16.42a11.2,11.2,0,0,1,7.59,16.591Zm0,0" fill="#ffe261"/>
        <path id="Trazado_876277" data-name="Trazado 876277" d="M62.85,30.7a7.1,7.1,0,0,0-3.935-12.111L47.752,16.966a5.167,5.167,0,0,1-3.892-2.828l-1.312-2.659a.965.965,0,1,0-1.731.855l1.312,2.658a7.1,7.1,0,0,0,5.346,3.884L58.638,20.5A5.169,5.169,0,0,1,61.5,29.316L53.424,37.19a7.1,7.1,0,0,0-2.042,6.284l1.907,11.119a5.169,5.169,0,0,1-7.5,5.449L35.8,54.793a7.1,7.1,0,0,0-6.607,0l-9.986,5.25a5.169,5.169,0,0,1-7.5-5.449l1.907-11.119a7.1,7.1,0,0,0-2.042-6.284L3.5,29.316A5.169,5.169,0,0,1,6.362,20.5l11.164-1.622a7.1,7.1,0,0,0,5.346-3.884L27.865,4.876a5.169,5.169,0,0,1,9.271,0L38.777,8.2a.966.966,0,0,0,1.732-.855L38.867,4.021a7.1,7.1,0,0,0-12.734,0L21.141,14.138a5.17,5.17,0,0,1-3.892,2.828L6.084,18.588A7.1,7.1,0,0,0,2.149,30.7l8.078,7.875a5.168,5.168,0,0,1,1.487,4.575L9.807,54.267a7.1,7.1,0,0,0,10.3,7.485l9.985-5.25a5.168,5.168,0,0,1,4.811,0l9.986,5.25a7.1,7.1,0,0,0,10.3-7.485L53.285,43.148a5.168,5.168,0,0,1,1.486-4.575Zm0,0"/>
        <path id="Trazado_876278" data-name="Trazado 876278" d="M24.271,45.232A4.947,4.947,0,0,0,28.8,50.155a3.592,3.592,0,0,0,3.7,2.376,3.593,3.593,0,0,0,3.7-2.376,4.947,4.947,0,0,0,4.534-4.923V37.471l2.3-3.978A12.158,12.158,0,0,0,23.751,18.971a12.2,12.2,0,0,0-3.219,10.651.965.965,0,0,0,1.9-.355,10.264,10.264,0,0,1,2.715-8.96A10.226,10.226,0,0,1,41.353,32.528l-2.186,3.787h-4a5.441,5.441,0,0,1,1.595-3.083,7.68,7.68,0,0,0,2.223-5.7.966.966,0,0,0-1.931,0,5.83,5.83,0,0,1-1.761,4.452,7.241,7.241,0,0,0-2.07,4.335H31.778a7.244,7.244,0,0,0-2.069-4.335,5.83,5.83,0,0,1-1.761-4.452.966.966,0,0,0-1.931,0,7.68,7.68,0,0,0,2.223,5.7,5.443,5.443,0,0,1,1.594,3.083h-4l-1.851-3.206a.965.965,0,1,0-1.672.965l1.961,3.4Zm1.931-3.01H38.8v2.045H26.2Zm12.6-3.976v2.045H26.2V38.246ZM31.041,50.173h2.917a2.7,2.7,0,0,1-2.917,0Zm4.747-1.931H29.212A3.016,3.016,0,0,1,26.36,46.2H38.64a3.015,3.015,0,0,1-2.851,2.045Zm0,0"/>
      </g>
    </g>
  </g>
</svg>
