<svg xmlns="http://www.w3.org/2000/svg" xmlns:xlink="http://www.w3.org/1999/xlink" width="490" height="360.495" viewBox="0 0 490 360.495">
  <defs>
    <clipPath id="clip-path">
      <rect id="Rect치ngulo_401905" data-name="Rect치ngulo 401905" width="490" height="360" rx="20" fill="#aee6e6"/>
    </clipPath>
    <clipPath id="clip-path-2">
      <path id="Trazado_878422" data-name="Trazado 878422" d="M.214.106,26.9-.012l-.23,33.058-26.686.119Z" transform="translate(38.906 29.114) rotate(152.705)" fill="none" stroke="#7d6eb2" stroke-width="1"/>
    </clipPath>
  </defs>
  <g id="Grupo_1101510" data-name="Grupo 1101510" transform="translate(-600 -3843.44)">
    <rect id="Rect치ngulo_33940" data-name="Rect치ngulo 33940" width="488.872" height="360.06" rx="20" transform="translate(600 3843.44)" fill="#7d6eb2" opacity="0.1"/>
    <g id="Enmascarar_grupo_1098711" data-name="Enmascarar grupo 1098711" transform="translate(600 3843.936)" clip-path="url(#clip-path)">
      <g id="Grupo_1100806" data-name="Grupo 1100806" transform="translate(-12.025 -5.038)">
        <g id="Grupo_1100800" data-name="Grupo 1100800" transform="matrix(0.469, -0.883, 0.883, 0.469, 13.488, 341.79)">
          <g id="Grupo_1100799" data-name="Grupo 1100799" transform="translate(0 0)" clip-path="url(#clip-path-2)">
            <g id="Grupo_1100798" data-name="Grupo 1100798" transform="translate(-20.204 4.574)">
              <path id="Trazado_878415" data-name="Trazado 878415" d="M26.03-.11c13.465-.954,23.606,5.5,22.652,14.414S36.04,31.218,22.575,32.172-1.031,26.673-.077,17.759,12.566.844,26.03-.11Z" transform="translate(-0.214 13.592) rotate(-16.624)" fill="none" stroke="#7d6eb2" stroke-width="2"/>
              <path id="Trazado_878416" data-name="Trazado 878416" d="M13.395.518c9.064,2,18.037,12.43,20.042,23.284S29.72,41.83,20.656,39.825,2.618,27.4.613,16.541,4.331-1.487,13.395.518Z" transform="translate(6.089 37.214) rotate(-85.029)" fill="none" stroke="#7d6eb2" stroke-width="2"/>
              <path id="Trazado_878417" data-name="Trazado 878417" d="M11.979.493C20.117,2.325,28.2,11.364,30.032,20.683S26.751,36.072,18.612,34.24,2.391,23.369.559,14.05,3.84-1.339,11.979.493Z" transform="matrix(0.14, -0.99, 0.99, 0.14, 8.318, 34.707)" fill="none" stroke="#7d6eb2" stroke-width="2"/>
              <path id="Trazado_878418" data-name="Trazado 878418" d="M17.682-.059C26.1-1.43,31.822,2.789,30.451,9.363s-9.31,13.014-17.733,14.385S-1.422,20.9-.051,14.326,9.259,1.312,17.682-.059Z" transform="translate(12.46 10.157)" fill="none" stroke="#7d6eb2" stroke-width="2"/>
              <path id="Trazado_878419" data-name="Trazado 878419" d="M14.838-.061c7.273-.949,12.4,2.549,11.451,7.812S18.675,18.05,11.4,19-1,16.449-.048,11.186,7.565.887,14.838-.061Z" transform="translate(13.577 14.035) rotate(-6.323)" fill="none" stroke="#7d6eb2" stroke-width="2"/>
              <path id="Trazado_875143" data-name="Trazado 875143" d="M8.965.263c5.717.879,11.064,5.124,11.943,9.482s-3.044,7.179-8.761,6.3S1.083,10.922.2,6.564,3.248-.615,8.965.263Z" transform="translate(14.867 25.779) rotate(-54.14)" fill="none" stroke="#7d6eb2" stroke-width="2"/>
              <path id="Trazado_878420" data-name="Trazado 878420" d="M6.363.232c4.166.759,8.158,4.17,8.917,7.619s-2,5.629-6.169,4.87S.953,8.551.195,5.1,2.2-.527,6.363.232Z" transform="matrix(0.495, -0.869, 0.869, 0.495, 18.204, 25.522)" fill="none" stroke="#7d6eb2" stroke-width="2"/>
              <path id="Trazado_878421" data-name="Trazado 878421" d="M5.907-.02c3.127-.143,5.546,1.385,5.4,3.412S8.516,7.178,5.389,7.321-.156,5.936-.014,3.909,2.78.123,5.907-.02Z" transform="translate(21.085 20.585) rotate(-20.72)" fill="none" stroke="#7d6eb2" stroke-width="2"/>
              <path id="Trazado_875144" data-name="Trazado 875144" d="M.092,3.5C-.383,2.567.413,1.192,1.87.431s3.023-.617,3.5.319S5.047,3.062,3.59,3.822.567,4.439.092,3.5Z" transform="translate(24.93 19.874)" fill="none" stroke="#7d6eb2" stroke-miterlimit="10" stroke-width="2"/>
            </g>
          </g>
        </g>
        <g id="Grupo_1100805" data-name="Grupo 1100805" transform="translate(467.433 11.458)">
          <g id="Grupo_1100801" data-name="Grupo 1100801" transform="translate(0 0)">
            <path id="Trazado_875145" data-name="Trazado 875145" d="M640.186,391.326c1.373,0,1.373,1.291,2.747,1.291s1.373-1.291,2.747-1.291,1.373,1.291,2.746,1.291,1.373-1.291,2.747-1.291,1.374,1.291,2.747,1.291,1.374-1.291,2.747-1.291,1.374,1.291,2.747,1.291,1.373-1.291,2.747-1.291,1.374,1.291,2.748,1.291,1.374-1.291,2.747-1.291,1.374,1.291,2.747,1.291,1.374-1.291,2.748-1.291,1.373,1.291,2.747,1.291,1.374-1.291,2.747-1.291,1.374,1.291,2.748,1.291,1.374-1.291,2.747-1.291,1.375,1.291,2.75,1.291,1.375-1.291,2.749-1.291" transform="translate(-640.186 -391.326)" fill="none" stroke="#26aab7" stroke-miterlimit="10" stroke-width="2"/>
          </g>
          <g id="Grupo_1100802" data-name="Grupo 1100802" transform="translate(0 5.56)">
            <path id="Trazado_875146" data-name="Trazado 875146" d="M640.186,408.556c1.373,0,1.373,1.291,2.747,1.291s1.373-1.291,2.747-1.291,1.373,1.291,2.746,1.291,1.373-1.291,2.747-1.291,1.374,1.291,2.747,1.291,1.374-1.291,2.747-1.291,1.374,1.291,2.747,1.291,1.373-1.291,2.747-1.291,1.374,1.291,2.748,1.291,1.374-1.291,2.747-1.291,1.374,1.291,2.747,1.291,1.374-1.291,2.748-1.291,1.373,1.291,2.747,1.291,1.374-1.291,2.747-1.291,1.374,1.291,2.748,1.291,1.374-1.291,2.747-1.291,1.375,1.291,2.75,1.291,1.375-1.291,2.749-1.291" transform="translate(-640.186 -408.556)" fill="none" stroke="#26aab7" stroke-miterlimit="10" stroke-width="2"/>
          </g>
          <g id="Grupo_1100803" data-name="Grupo 1100803" transform="translate(0 11.12)">
            <path id="Trazado_875147" data-name="Trazado 875147" d="M640.186,425.786c1.373,0,1.373,1.291,2.747,1.291s1.373-1.291,2.747-1.291,1.373,1.291,2.746,1.291,1.373-1.291,2.747-1.291,1.374,1.291,2.747,1.291,1.374-1.291,2.747-1.291,1.374,1.291,2.747,1.291,1.373-1.291,2.747-1.291,1.374,1.291,2.748,1.291,1.374-1.291,2.747-1.291,1.374,1.291,2.747,1.291,1.374-1.291,2.748-1.291,1.373,1.291,2.747,1.291,1.374-1.291,2.747-1.291,1.374,1.291,2.748,1.291,1.374-1.291,2.747-1.291,1.375,1.291,2.75,1.291,1.375-1.291,2.749-1.291" transform="translate(-640.186 -425.786)" fill="none" stroke="#26aab7" stroke-miterlimit="10" stroke-width="2"/>
          </g>
          <g id="Grupo_1100804" data-name="Grupo 1100804" transform="translate(0 16.68)">
            <path id="Trazado_875148" data-name="Trazado 875148" d="M640.186,443.016c1.373,0,1.373,1.291,2.747,1.291s1.373-1.291,2.747-1.291,1.373,1.291,2.746,1.291,1.373-1.291,2.747-1.291,1.374,1.291,2.747,1.291,1.374-1.291,2.747-1.291,1.374,1.291,2.747,1.291,1.373-1.291,2.747-1.291,1.374,1.291,2.748,1.291,1.374-1.291,2.747-1.291,1.374,1.291,2.747,1.291,1.374-1.291,2.748-1.291,1.373,1.291,2.747,1.291,1.374-1.291,2.747-1.291,1.374,1.291,2.748,1.291,1.374-1.291,2.747-1.291,1.375,1.291,2.75,1.291,1.375-1.291,2.749-1.291" transform="translate(-640.186 -443.016)" fill="none" stroke="#26aab7" stroke-miterlimit="10" stroke-width="2"/>
          </g>
        </g>
        <path id="Trazado_875149" data-name="Trazado 875149" d="M41.254,97.4c-.237,0-3.2-.3-3.2-.671s.192-.671.429-.671.429.3.429.671S41.491,97.4,41.254,97.4Zm-2.769-2.9c-.237,0-.429-.3-.429-.671s.192-.671.429-.671.429.3.429.671S38.721,94.5,38.485,94.5Zm0-2.9c-.237,0-.429-.3-.429-.671s.192-.671.429-.671.429.3.429.671S38.721,91.6,38.485,91.6Zm0-2.9c-.237,0-.429-.3-.429-.671s.192-.671.429-.671.429.3.429.671S38.721,88.7,38.485,88.7Zm0-2.9c-.237,0-.429-.3-.429-.671s.192-.671.429-.671.429.3.429.671S38.721,85.8,38.485,85.8Zm0-2.9c-.237,0-.429-.3-.429-.671s.192-.671.429-.671.429.3.429.671S38.721,82.9,38.485,82.9Zm0-2.9c-.237,0-.429-.3-.429-.671s.192-.671.429-.671.429.3.429.671S38.721,80,38.485,80Zm0-2.9c-.237,0-.429-.3-.429-.671s.192-.671.429-.671.429.3.429.671S38.721,77.1,38.485,77.1Zm1.852,29c-.237,0-.429-.3-.429-.671s.192-.671.429-.671.429.3.429.671S40.574,106.1,40.337,106.1Zm0-2.9c-.237,0-.429-.3-.429-.671s.192-.671.429-.671.429.3.429.671S40.574,103.2,40.337,103.2Zm0-2.9c-.237,0-.429-.3-.429-.671s.192-.671.429-.671.429.3.429.671S40.574,100.3,40.337,100.3Zm0-2.9c-.237,0-.429-.3-.429-.671s.192-.671.429-.671.429.3.429.671S40.574,97.4,40.337,97.4Zm0-2.9c-.237,0-.429-.3-.429-.671s.192-.671.429-.671.429.3.429.671S40.574,94.5,40.337,94.5Zm0-2.9c-.237,0-.429-.3-.429-.671s.192-.671.429-.671.429.3.429.671S40.574,91.6,40.337,91.6Zm0-2.9c-.237,0-.429-.3-.429-.671s.192-.671.429-.671.429.3.429.671S40.574,88.7,40.337,88.7Zm0-2.9c-.237,0-.429-.3-.429-.671s.192-.671.429-.671.429.3.429.671S40.574,85.8,40.337,85.8Zm0-2.9c-.237,0-.429-.3-.429-.671s.192-.671.429-.671.429.3.429.671S40.574,82.9,40.337,82.9Zm0-2.9c-.237,0-.429-.3-.429-.671s.192-.671.429-.671.429.3.429.671S40.574,80,40.337,80Zm0-2.9c-.237,0-.429-.3-.429-.671s.192-.671.429-.671.429.3.429.671S40.574,77.1,40.337,77.1Zm0-2.9c-.237,0-.429-.3-.429-.671s.192-.671.429-.671.429.3.429.671S40.574,74.2,40.337,74.2Zm0-2.9c-.237,0-.429-.3-.429-.671s.192-.671.429-.671.429.3.429.671S40.574,71.3,40.337,71.3Zm0-2.9c-.237,0-.429-.3-.429-.671s.192-.671.429-.671.429.3.429.671S40.574,68.4,40.337,68.4Zm1.852,43.5c-.237,0-.429-.3-.429-.671s.192-.671.429-.671.429.3.429.671S42.426,111.9,42.189,111.9Zm0-2.9c-.237,0-.429-.3-.429-.671s.192-.671.429-.671.429.3.429.671S42.426,109,42.189,109Zm0-2.9c-.237,0-.429-.3-.429-.671s.192-.671.429-.671.429.3.429.671S42.426,106.1,42.189,106.1Zm0-2.9c-.237,0-.429-.3-.429-.671s.192-.671.429-.671.429.3.429.671S42.426,103.2,42.189,103.2Zm0-2.9c-.237,0-.429-.3-.429-.671s.192-.671.429-.671.429.3.429.671S42.426,100.3,42.189,100.3Zm0-2.9c-.237,0-.429-.3-.429-.671s.192-.671.429-.671.429.3.429.671S42.426,97.4,42.189,97.4Zm0-2.9c-.237,0-.429-.3-.429-.671s.192-.671.429-.671.429.3.429.671S42.426,94.5,42.189,94.5Zm0-2.9c-.237,0-.429-.3-.429-.671s.192-.671.429-.671.429.3.429.671S42.426,91.6,42.189,91.6Zm0-2.9c-.237,0-.429-.3-.429-.671s.192-.671.429-.671.429.3.429.671S42.426,88.7,42.189,88.7Zm0-2.9c-.237,0-.429-.3-.429-.671s.192-.671.429-.671.429.3.429.671S42.426,85.8,42.189,85.8Zm0-2.9c-.237,0-.429-.3-.429-.671s.192-.671.429-.671.429.3.429.671S42.426,82.9,42.189,82.9Zm0-2.9c-.237,0-.429-.3-.429-.671s.192-.671.429-.671.429.3.429.671S42.426,80,42.189,80Zm0-2.9c-.237,0-.429-.3-.429-.671s.192-.671.429-.671.429.3.429.671S42.426,77.1,42.189,77.1Zm0-2.9c-.237,0-.429-.3-.429-.671s.192-.671.429-.671.429.3.429.671S42.426,74.2,42.189,74.2Zm0-2.9c-.237,0-.429-.3-.429-.671s.192-.671.429-.671.429.3.429.671S42.426,71.3,42.189,71.3Zm0-2.9c-.237,0-.429-.3-.429-.671s.192-.671.429-.671.429.3.429.671S42.426,68.4,42.189,68.4Zm0-2.9c-.237,0-.429-.3-.429-.671s.192-.671.429-.671.429.3.429.671S42.426,65.5,42.189,65.5Zm0-2.9c-.237,0-.429-.3-.429-.671s.192-.671.429-.671.429.3.429.671S42.426,62.6,42.189,62.6Zm1.852,52.2c-.237,0-.429-.3-.429-.671s.192-.671.429-.671.429.3.429.671S44.278,114.8,44.041,114.8Zm0-2.9c-.237,0-.429-.3-.429-.671s.192-.671.429-.671.429.3.429.671S44.278,111.9,44.041,111.9Zm0-2.9c-.237,0-.429-.3-.429-.671s.192-.671.429-.671.429.3.429.671S44.278,109,44.041,109Zm0-2.9c-.237,0-.429-.3-.429-.671s.192-.671.429-.671.429.3.429.671S44.278,106.1,44.041,106.1Zm0-2.9c-.237,0-.429-.3-.429-.671s.192-.671.429-.671.429.3.429.671S44.278,103.2,44.041,103.2Zm0-2.9c-.237,0-.429-.3-.429-.671s.192-.671.429-.671.429.3.429.671S44.278,100.3,44.041,100.3Zm0-2.9c-.237,0-.429-.3-.429-.671s.192-.671.429-.671.429.3.429.671S44.278,97.4,44.041,97.4Zm0-2.9c-.237,0-.429-.3-.429-.671s.192-.671.429-.671.429.3.429.671S44.278,94.5,44.041,94.5Zm0-2.9c-.237,0-.429-.3-.429-.671s.192-.671.429-.671.429.3.429.671S44.278,91.6,44.041,91.6Zm0-2.9c-.237,0-.429-.3-.429-.671s.192-.671.429-.671.429.3.429.671S44.278,88.7,44.041,88.7Zm0-2.9c-.237,0-.429-.3-.429-.671s.192-.671.429-.671.429.3.429.671S44.278,85.8,44.041,85.8Zm0-2.9c-.237,0-.429-.3-.429-.671s.192-.671.429-.671.429.3.429.671S44.278,82.9,44.041,82.9Zm0-2.9c-.237,0-.429-.3-.429-.671s.192-.671.429-.671.429.3.429.671S44.278,80,44.041,80Zm0-2.9c-.237,0-.429-.3-.429-.671s.192-.671.429-.671.429.3.429.671S44.278,77.1,44.041,77.1Zm0-2.9c-.237,0-.429-.3-.429-.671s.192-.671.429-.671.429.3.429.671S44.278,74.2,44.041,74.2Zm0-2.9c-.237,0-.429-.3-.429-.671s.192-.671.429-.671.429.3.429.671S44.278,71.3,44.041,71.3Zm0-2.9c-.237,0-.429-.3-.429-.671s.192-.671.429-.671.429.3.429.671S44.278,68.4,44.041,68.4Zm0-2.9c-.237,0-.429-.3-.429-.671s.192-.671.429-.671.429.3.429.671S44.278,65.5,44.041,65.5Zm0-2.9c-.237,0-.429-.3-.429-.671s.192-.671.429-.671.429.3.429.671S44.278,62.6,44.041,62.6Zm0-2.9c-.237,0-.429-.3-.429-.671s.192-.671.429-.671.429.3.429.671S44.278,59.7,44.041,59.7Zm1.852,60.9c-.237,0-.429-.3-.429-.671s.192-.671.429-.671.429.3.429.671S46.13,120.6,45.894,120.6Zm0-2.9c-.237,0-.429-.3-.429-.671s.192-.671.429-.671.429.3.429.671S46.13,117.7,45.894,117.7Zm0-2.9c-.237,0-.429-.3-.429-.671s.192-.671.429-.671.429.3.429.671S46.13,114.8,45.894,114.8Zm0-2.9c-.237,0-.429-.3-.429-.671s.192-.671.429-.671.429.3.429.671S46.13,111.9,45.894,111.9Zm0-2.9c-.237,0-.429-.3-.429-.671s.192-.671.429-.671.429.3.429.671S46.13,109,45.894,109Zm0-2.9c-.237,0-.429-.3-.429-.671s.192-.671.429-.671.429.3.429.671S46.13,106.1,45.894,106.1Zm0-2.9c-.237,0-.429-.3-.429-.671s.192-.671.429-.671.429.3.429.671S46.13,103.2,45.894,103.2Zm0-2.9c-.237,0-.429-.3-.429-.671s.192-.671.429-.671.429.3.429.671S46.13,100.3,45.894,100.3Zm0-2.9c-.237,0-.429-.3-.429-.671s.192-.671.429-.671.429.3.429.671S46.13,97.4,45.894,97.4Zm0-2.9c-.237,0-.429-.3-.429-.671s.192-.671.429-.671.429.3.429.671S46.13,94.5,45.894,94.5Zm0-2.9c-.237,0-.429-.3-.429-.671s.192-.671.429-.671.429.3.429.671S46.13,91.6,45.894,91.6Zm0-2.9c-.237,0-.429-.3-.429-.671s.192-.671.429-.671.429.3.429.671S46.13,88.7,45.894,88.7Zm0-2.9c-.237,0-.429-.3-.429-.671s.192-.671.429-.671.429.3.429.671S46.13,85.8,45.894,85.8Zm0-2.9c-.237,0-.429-.3-.429-.671s.192-.671.429-.671.429.3.429.671S46.13,82.9,45.894,82.9Zm0-2.9c-.237,0-.429-.3-.429-.671s.192-.671.429-.671.429.3.429.671S46.13,80,45.894,80Zm0-2.9c-.237,0-.429-.3-.429-.671s.192-.671.429-.671.429.3.429.671S46.13,77.1,45.894,77.1Zm0-2.9c-.237,0-.429-.3-.429-.671s.192-.671.429-.671.429.3.429.671S46.13,74.2,45.894,74.2Zm0-2.9c-.237,0-.429-.3-.429-.671s.192-.671.429-.671.429.3.429.671S46.13,71.3,45.894,71.3Zm0-2.9c-.237,0-.429-.3-.429-.671s.192-.671.429-.671.429.3.429.671S46.13,68.4,45.894,68.4Zm0-2.9c-.237,0-.429-.3-.429-.671s.192-.671.429-.671.429.3.429.671S46.13,65.5,45.894,65.5Zm0-2.9c-.237,0-.429-.3-.429-.671s.192-.671.429-.671.429.3.429.671S46.13,62.6,45.894,62.6Zm0-2.9c-.237,0-.429-.3-.429-.671s.192-.671.429-.671.429.3.429.671S46.13,59.7,45.894,59.7Zm0-2.9c-.237,0-.429-.3-.429-.671s.192-.671.429-.671.429.3.429.671S46.13,56.8,45.894,56.8Zm0-2.9c-.237,0-.429-.3-.429-.671s.192-.671.429-.671.429.3.429.671S46.13,53.9,45.894,53.9Zm1.852,69.6c-.237,0-.429-.3-.429-.671s.192-.671.429-.671.429.3.429.671S47.983,123.5,47.746,123.5Zm0-2.9c-.237,0-.429-.3-.429-.671s.192-.671.429-.671.429.3.429.671S47.983,120.6,47.746,120.6Zm0-2.9c-.237,0-.429-.3-.429-.671s.192-.671.429-.671.429.3.429.671S47.983,117.7,47.746,117.7Zm0-2.9c-.237,0-.429-.3-.429-.671s.192-.671.429-.671.429.3.429.671S47.983,114.8,47.746,114.8Zm0-2.9c-.237,0-.429-.3-.429-.671s.192-.671.429-.671.429.3.429.671S47.983,111.9,47.746,111.9Zm0-2.9c-.237,0-.429-.3-.429-.671s.192-.671.429-.671.429.3.429.671S47.983,109,47.746,109Zm0-2.9c-.237,0-.429-.3-.429-.671s.192-.671.429-.671.429.3.429.671S47.983,106.1,47.746,106.1Zm0-2.9c-.237,0-.429-.3-.429-.671s.192-.671.429-.671.429.3.429.671S47.983,103.2,47.746,103.2Zm0-2.9c-.237,0-.429-.3-.429-.671s.192-.671.429-.671.429.3.429.671S47.983,100.3,47.746,100.3Zm0-2.9c-.237,0-.429-.3-.429-.671s.192-.671.429-.671.429.3.429.671S47.983,97.4,47.746,97.4Zm0-2.9c-.237,0-.429-.3-.429-.671s.192-.671.429-.671.429.3.429.671S47.983,94.5,47.746,94.5Zm0-2.9c-.237,0-.429-.3-.429-.671s.192-.671.429-.671.429.3.429.671S47.983,91.6,47.746,91.6Zm0-2.9c-.237,0-.429-.3-.429-.671s.192-.671.429-.671.429.3.429.671S47.983,88.7,47.746,88.7Zm0-2.9c-.237,0-.429-.3-.429-.671s.192-.671.429-.671.429.3.429.671S47.983,85.8,47.746,85.8Zm0-2.9c-.237,0-.429-.3-.429-.671s.192-.671.429-.671.429.3.429.671S47.983,82.9,47.746,82.9Zm0-2.9c-.237,0-.429-.3-.429-.671s.192-.671.429-.671.429.3.429.671S47.983,80,47.746,80Zm0-2.9c-.237,0-.429-.3-.429-.671s.192-.671.429-.671.429.3.429.671S47.983,77.1,47.746,77.1Zm0-2.9c-.237,0-.429-.3-.429-.671s.192-.671.429-.671.429.3.429.671S47.983,74.2,47.746,74.2Zm0-2.9c-.237,0-.429-.3-.429-.671s.192-.671.429-.671.429.3.429.671S47.983,71.3,47.746,71.3Zm0-2.9c-.237,0-.429-.3-.429-.671s.192-.671.429-.671.429.3.429.671S47.983,68.4,47.746,68.4Zm0-2.9c-.237,0-.429-.3-.429-.671s.192-.671.429-.671.429.3.429.671S47.983,65.5,47.746,65.5Zm0-2.9c-.237,0-.429-.3-.429-.671s.192-.671.429-.671.429.3.429.671S47.983,62.6,47.746,62.6Zm0-2.9c-.237,0-.429-.3-.429-.671s.192-.671.429-.671.429.3.429.671S47.983,59.7,47.746,59.7Zm0-2.9c-.237,0-.429-.3-.429-.671s.192-.671.429-.671.429.3.429.671S47.983,56.8,47.746,56.8Zm0-2.9c-.237,0-.429-.3-.429-.671s.192-.671.429-.671.429.3.429.671S47.983,53.9,47.746,53.9Zm0-2.9c-.237,0-.429-.3-.429-.671s.192-.671.429-.671.429.3.429.671S47.983,51,47.746,51ZM49.6,123.5c-.237,0-.429-.3-.429-.671s.192-.671.429-.671.429.3.429.671S49.835,123.5,49.6,123.5Zm0-2.9c-.237,0-.429-.3-.429-.671s.192-.671.429-.671.429.3.429.671S49.835,120.6,49.6,120.6Zm0-2.9c-.237,0-.429-.3-.429-.671s.192-.671.429-.671.429.3.429.671S49.835,117.7,49.6,117.7Zm0-2.9c-.237,0-.429-.3-.429-.671s.192-.671.429-.671.429.3.429.671S49.835,114.8,49.6,114.8Zm0-2.9c-.237,0-.429-.3-.429-.671s.192-.671.429-.671.429.3.429.671S49.835,111.9,49.6,111.9Zm0-2.9c-.237,0-.429-.3-.429-.671s.192-.671.429-.671.429.3.429.671S49.835,109,49.6,109Zm0-2.9c-.237,0-.429-.3-.429-.671s.192-.671.429-.671.429.3.429.671S49.835,106.1,49.6,106.1Zm0-2.9c-.237,0-.429-.3-.429-.671s.192-.671.429-.671.429.3.429.671S49.835,103.2,49.6,103.2Zm0-2.9c-.237,0-.429-.3-.429-.671s.192-.671.429-.671.429.3.429.671S49.835,100.3,49.6,100.3Zm0-2.9c-.237,0-.429-.3-.429-.671s.192-.671.429-.671.429.3.429.671S49.835,97.4,49.6,97.4Zm0-2.9c-.237,0-.429-.3-.429-.671s.192-.671.429-.671.429.3.429.671S49.835,94.5,49.6,94.5Zm0-2.9c-.237,0-.429-.3-.429-.671s.192-.671.429-.671.429.3.429.671S49.835,91.6,49.6,91.6Zm0-2.9c-.237,0-.429-.3-.429-.671s.192-.671.429-.671.429.3.429.671S49.835,88.7,49.6,88.7Zm0-2.9c-.237,0-.429-.3-.429-.671s.192-.671.429-.671.429.3.429.671S49.835,85.8,49.6,85.8Zm0-2.9c-.237,0-.429-.3-.429-.671s.192-.671.429-.671.429.3.429.671S49.835,82.9,49.6,82.9Zm0-2.9c-.237,0-.429-.3-.429-.671s.192-.671.429-.671.429.3.429.671S49.835,80,49.6,80Zm0-2.9c-.237,0-.429-.3-.429-.671s.192-.671.429-.671.429.3.429.671S49.835,77.1,49.6,77.1Zm0-2.9c-.237,0-.429-.3-.429-.671s.192-.671.429-.671.429.3.429.671S49.835,74.2,49.6,74.2Zm0-2.9c-.237,0-.429-.3-.429-.671s.192-.671.429-.671.429.3.429.671S49.835,71.3,49.6,71.3Zm0-2.9c-.237,0-.429-.3-.429-.671s.192-.671.429-.671.429.3.429.671S49.835,68.4,49.6,68.4Zm0-2.9c-.237,0-.429-.3-.429-.671s.192-.671.429-.671.429.3.429.671S49.835,65.5,49.6,65.5Zm0-2.9c-.237,0-.429-.3-.429-.671s.192-.671.429-.671.429.3.429.671S49.835,62.6,49.6,62.6Zm0-2.9c-.237,0-.429-.3-.429-.671s.192-.671.429-.671.429.3.429.671S49.835,59.7,49.6,59.7Zm0-2.9c-.237,0-.429-.3-.429-.671s.192-.671.429-.671.429.3.429.671S49.835,56.8,49.6,56.8Zm0-2.9c-.237,0-.429-.3-.429-.671s.192-.671.429-.671.429.3.429.671S49.835,53.9,49.6,53.9Zm0-2.9c-.237,0-.429-.3-.429-.671s.192-.671.429-.671.429.3.429.671S49.835,51,49.6,51Zm1.852,75.4c-.237,0-.429-.3-.429-.671s.192-.671.429-.671.429.3.429.671S51.687,126.4,51.45,126.4Zm0-2.9c-.237,0-.429-.3-.429-.671s.192-.671.429-.671.429.3.429.671S51.687,123.5,51.45,123.5Zm0-2.9c-.237,0-.429-.3-.429-.671s.192-.671.429-.671.429.3.429.671S51.687,120.6,51.45,120.6Zm0-2.9c-.237,0-.429-.3-.429-.671s.192-.671.429-.671.429.3.429.671S51.687,117.7,51.45,117.7Zm0-2.9c-.237,0-.429-.3-.429-.671s.192-.671.429-.671.429.3.429.671S51.687,114.8,51.45,114.8Zm0-2.9c-.237,0-.429-.3-.429-.671s.192-.671.429-.671.429.3.429.671S51.687,111.9,51.45,111.9Zm0-2.9c-.237,0-.429-.3-.429-.671s.192-.671.429-.671.429.3.429.671S51.687,109,51.45,109Zm0-2.9c-.237,0-.429-.3-.429-.671s.192-.671.429-.671.429.3.429.671S51.687,106.1,51.45,106.1Zm0-2.9c-.237,0-.429-.3-.429-.671s.192-.671.429-.671.429.3.429.671S51.687,103.2,51.45,103.2Zm0-2.9c-.237,0-.429-.3-.429-.671s.192-.671.429-.671.429.3.429.671S51.687,100.3,51.45,100.3Zm0-2.9c-.237,0-.429-.3-.429-.671s.192-.671.429-.671.429.3.429.671S51.687,97.4,51.45,97.4Zm0-2.9c-.237,0-.429-.3-.429-.671s.192-.671.429-.671.429.3.429.671S51.687,94.5,51.45,94.5Zm0-2.9c-.237,0-.429-.3-.429-.671s.192-.671.429-.671.429.3.429.671S51.687,91.6,51.45,91.6Zm0-2.9c-.237,0-.429-.3-.429-.671s.192-.671.429-.671.429.3.429.671S51.687,88.7,51.45,88.7Zm0-2.9c-.237,0-.429-.3-.429-.671s.192-.671.429-.671.429.3.429.671S51.687,85.8,51.45,85.8Zm0-2.9c-.237,0-.429-.3-.429-.671s.192-.671.429-.671.429.3.429.671S51.687,82.9,51.45,82.9Zm0-2.9c-.237,0-.429-.3-.429-.671s.192-.671.429-.671.429.3.429.671S51.687,80,51.45,80Zm0-2.9c-.237,0-.429-.3-.429-.671s.192-.671.429-.671.429.3.429.671S51.687,77.1,51.45,77.1Zm0-2.9c-.237,0-.429-.3-.429-.671s.192-.671.429-.671.429.3.429.671S51.687,74.2,51.45,74.2Zm0-2.9c-.237,0-.429-.3-.429-.671s.192-.671.429-.671.429.3.429.671S51.687,71.3,51.45,71.3Zm0-2.9c-.237,0-.429-.3-.429-.671s.192-.671.429-.671.429.3.429.671S51.687,68.4,51.45,68.4Zm0-2.9c-.237,0-.429-.3-.429-.671s.192-.671.429-.671.429.3.429.671S51.687,65.5,51.45,65.5Zm0-2.9c-.237,0-.429-.3-.429-.671s.192-.671.429-.671.429.3.429.671S51.687,62.6,51.45,62.6Zm0-2.9c-.237,0-.429-.3-.429-.671s.192-.671.429-.671.429.3.429.671S51.687,59.7,51.45,59.7Zm0-2.9c-.237,0-.429-.3-.429-.671s.192-.671.429-.671.429.3.429.671S51.687,56.8,51.45,56.8Zm0-2.9c-.237,0-.429-.3-.429-.671s.192-.671.429-.671.429.3.429.671S51.687,53.9,51.45,53.9Zm0-2.9c-.237,0-.429-.3-.429-.671s.192-.671.429-.671.429.3.429.671S51.687,51,51.45,51Zm0-2.9c-.237,0-.429-.3-.429-.671s.192-.671.429-.671.429.3.429.671S51.687,48.1,51.45,48.1ZM53.3,129.3c-.237,0-.429-.3-.429-.671s.192-.671.429-.671.429.3.429.671S53.539,129.3,53.3,129.3Zm0-2.9c-.237,0-.429-.3-.429-.671s.192-.671.429-.671.429.3.429.671S53.539,126.4,53.3,126.4Zm0-2.9c-.237,0-.429-.3-.429-.671s.192-.671.429-.671.429.3.429.671S53.539,123.5,53.3,123.5Zm0-2.9c-.237,0-.429-.3-.429-.671s.192-.671.429-.671.429.3.429.671S53.539,120.6,53.3,120.6Zm0-2.9c-.237,0-.429-.3-.429-.671s.192-.671.429-.671.429.3.429.671S53.539,117.7,53.3,117.7Zm0-2.9c-.237,0-.429-.3-.429-.671s.192-.671.429-.671.429.3.429.671S53.539,114.8,53.3,114.8Zm0-2.9c-.237,0-.429-.3-.429-.671s.192-.671.429-.671.429.3.429.671S53.539,111.9,53.3,111.9Zm0-2.9c-.237,0-.429-.3-.429-.671s.192-.671.429-.671.429.3.429.671S53.539,109,53.3,109Zm0-2.9c-.237,0-.429-.3-.429-.671s.192-.671.429-.671.429.3.429.671S53.539,106.1,53.3,106.1Zm0-2.9c-.237,0-.429-.3-.429-.671s.192-.671.429-.671.429.3.429.671S53.539,103.2,53.3,103.2Zm0-2.9c-.237,0-.429-.3-.429-.671s.192-.671.429-.671.429.3.429.671S53.539,100.3,53.3,100.3Zm0-2.9c-.237,0-.429-.3-.429-.671s.192-.671.429-.671.429.3.429.671S53.539,97.4,53.3,97.4Zm0-2.9c-.237,0-.429-.3-.429-.671s.192-.671.429-.671.429.3.429.671S53.539,94.5,53.3,94.5Zm0-2.9c-.237,0-.429-.3-.429-.671s.192-.671.429-.671.429.3.429.671S53.539,91.6,53.3,91.6Zm0-2.9c-.237,0-.429-.3-.429-.671s.192-.671.429-.671.429.3.429.671S53.539,88.7,53.3,88.7Zm0-2.9c-.237,0-.429-.3-.429-.671s.192-.671.429-.671.429.3.429.671S53.539,85.8,53.3,85.8Zm0-2.9c-.237,0-.429-.3-.429-.671s.192-.671.429-.671.429.3.429.671S53.539,82.9,53.3,82.9Zm0-2.9c-.237,0-.429-.3-.429-.671s.192-.671.429-.671.429.3.429.671S53.539,80,53.3,80Zm0-2.9c-.237,0-.429-.3-.429-.671s.192-.671.429-.671.429.3.429.671S53.539,77.1,53.3,77.1Zm0-2.9c-.237,0-.429-.3-.429-.671s.192-.671.429-.671.429.3.429.671S53.539,74.2,53.3,74.2Zm0-2.9c-.237,0-.429-.3-.429-.671s.192-.671.429-.671.429.3.429.671S53.539,71.3,53.3,71.3Zm0-2.9c-.237,0-.429-.3-.429-.671s.192-.671.429-.671.429.3.429.671S53.539,68.4,53.3,68.4Zm0-2.9c-.237,0-.429-.3-.429-.671s.192-.671.429-.671.429.3.429.671S53.539,65.5,53.3,65.5Zm0-2.9c-.237,0-.429-.3-.429-.671s.192-.671.429-.671.429.3.429.671S53.539,62.6,53.3,62.6Zm0-2.9c-.237,0-.429-.3-.429-.671s.192-.671.429-.671.429.3.429.671S53.539,59.7,53.3,59.7Zm0-2.9c-.237,0-.429-.3-.429-.671s.192-.671.429-.671.429.3.429.671S53.539,56.8,53.3,56.8Zm0-2.9c-.237,0-.429-.3-.429-.671s.192-.671.429-.671.429.3.429.671S53.539,53.9,53.3,53.9Zm0-2.9c-.237,0-.429-.3-.429-.671s.192-.671.429-.671.429.3.429.671S53.539,51,53.3,51Zm0-2.9c-.237,0-.429-.3-.429-.671s.192-.671.429-.671.429.3.429.671S53.539,48.1,53.3,48.1Zm0-2.9c-.237,0-.429-.3-.429-.671s.192-.671.429-.671.429.3.429.671S53.539,45.2,53.3,45.2Zm1.852,84.1c-.237,0-.429-.3-.429-.671s.192-.671.429-.671.429.3.429.671S55.391,129.3,55.155,129.3Zm0-2.9c-.237,0-.429-.3-.429-.671s.192-.671.429-.671.429.3.429.671S55.391,126.4,55.155,126.4Zm0-2.9c-.237,0-.429-.3-.429-.671s.192-.671.429-.671.429.3.429.671S55.391,123.5,55.155,123.5Zm0-2.9c-.237,0-.429-.3-.429-.671s.192-.671.429-.671.429.3.429.671S55.391,120.6,55.155,120.6Zm0-2.9c-.237,0-.429-.3-.429-.671s.192-.671.429-.671.429.3.429.671S55.391,117.7,55.155,117.7Zm0-2.9c-.237,0-.429-.3-.429-.671s.192-.671.429-.671.429.3.429.671S55.391,114.8,55.155,114.8Zm0-2.9c-.237,0-.429-.3-.429-.671s.192-.671.429-.671.429.3.429.671S55.391,111.9,55.155,111.9Zm0-2.9c-.237,0-.429-.3-.429-.671s.192-.671.429-.671.429.3.429.671S55.391,109,55.155,109Zm0-2.9c-.237,0-.429-.3-.429-.671s.192-.671.429-.671.429.3.429.671S55.391,106.1,55.155,106.1Zm0-2.9c-.237,0-.429-.3-.429-.671s.192-.671.429-.671.429.3.429.671S55.391,103.2,55.155,103.2Zm0-2.9c-.237,0-.429-.3-.429-.671s.192-.671.429-.671.429.3.429.671S55.391,100.3,55.155,100.3Zm0-2.9c-.237,0-.429-.3-.429-.671s.192-.671.429-.671.429.3.429.671S55.391,97.4,55.155,97.4Zm0-2.9c-.237,0-.429-.3-.429-.671s.192-.671.429-.671.429.3.429.671S55.391,94.5,55.155,94.5Zm0-2.9c-.237,0-.429-.3-.429-.671s.192-.671.429-.671.429.3.429.671S55.391,91.6,55.155,91.6Zm0-2.9c-.237,0-.429-.3-.429-.671s.192-.671.429-.671.429.3.429.671S55.391,88.7,55.155,88.7Zm0-2.9c-.237,0-.429-.3-.429-.671s.192-.671.429-.671.429.3.429.671S55.391,85.8,55.155,85.8Zm0-2.9c-.237,0-.429-.3-.429-.671s.192-.671.429-.671.429.3.429.671S55.391,82.9,55.155,82.9Zm0-2.9c-.237,0-.429-.3-.429-.671s.192-.671.429-.671.429.3.429.671S55.391,80,55.155,80Zm0-2.9c-.237,0-.429-.3-.429-.671s.192-.671.429-.671.429.3.429.671S55.391,77.1,55.155,77.1Zm0-2.9c-.237,0-.429-.3-.429-.671s.192-.671.429-.671.429.3.429.671S55.391,74.2,55.155,74.2Zm0-2.9c-.237,0-.429-.3-.429-.671s.192-.671.429-.671.429.3.429.671S55.391,71.3,55.155,71.3Zm0-2.9c-.237,0-.429-.3-.429-.671s.192-.671.429-.671.429.3.429.671S55.391,68.4,55.155,68.4Zm0-2.9c-.237,0-.429-.3-.429-.671s.192-.671.429-.671.429.3.429.671S55.391,65.5,55.155,65.5Zm0-2.9c-.237,0-.429-.3-.429-.671s.192-.671.429-.671.429.3.429.671S55.391,62.6,55.155,62.6Zm0-2.9c-.237,0-.429-.3-.429-.671s.192-.671.429-.671.429.3.429.671S55.391,59.7,55.155,59.7Zm0-2.9c-.237,0-.429-.3-.429-.671s.192-.671.429-.671.429.3.429.671S55.391,56.8,55.155,56.8Zm0-2.9c-.237,0-.429-.3-.429-.671s.192-.671.429-.671.429.3.429.671S55.391,53.9,55.155,53.9Zm0-2.9c-.237,0-.429-.3-.429-.671s.192-.671.429-.671.429.3.429.671S55.391,51,55.155,51Zm0-2.9c-.237,0-.429-.3-.429-.671s.192-.671.429-.671.429.3.429.671S55.391,48.1,55.155,48.1Zm0-2.9c-.237,0-.429-.3-.429-.671s.192-.671.429-.671.429.3.429.671S55.391,45.2,55.155,45.2Zm1.852,87c-.237,0-.429-.3-.429-.671s.192-.671.429-.671.429.3.429.671S57.244,132.2,57.007,132.2Zm0-2.9c-.237,0-.429-.3-.429-.671s.192-.671.429-.671.429.3.429.671S57.244,129.3,57.007,129.3Zm0-2.9c-.237,0-.429-.3-.429-.671s.192-.671.429-.671.429.3.429.671S57.244,126.4,57.007,126.4Zm0-2.9c-.237,0-.429-.3-.429-.671s.192-.671.429-.671.429.3.429.671S57.244,123.5,57.007,123.5Zm0-2.9c-.237,0-.429-.3-.429-.671s.192-.671.429-.671.429.3.429.671S57.244,120.6,57.007,120.6Zm0-2.9c-.237,0-.429-.3-.429-.671s.192-.671.429-.671.429.3.429.671S57.244,117.7,57.007,117.7Zm0-2.9c-.237,0-.429-.3-.429-.671s.192-.671.429-.671.429.3.429.671S57.244,114.8,57.007,114.8Zm0-2.9c-.237,0-.429-.3-.429-.671s.192-.671.429-.671.429.3.429.671S57.244,111.9,57.007,111.9Zm0-2.9c-.237,0-.429-.3-.429-.671s.192-.671.429-.671.429.3.429.671S57.244,109,57.007,109Zm0-2.9c-.237,0-.429-.3-.429-.671s.192-.671.429-.671.429.3.429.671S57.244,106.1,57.007,106.1Zm0-2.9c-.237,0-.429-.3-.429-.671s.192-.671.429-.671.429.3.429.671S57.244,103.2,57.007,103.2Zm0-2.9c-.237,0-.429-.3-.429-.671s.192-.671.429-.671.429.3.429.671S57.244,100.3,57.007,100.3Zm0-2.9c-.237,0-.429-.3-.429-.671s.192-.671.429-.671.429.3.429.671S57.244,97.4,57.007,97.4Zm0-2.9c-.237,0-.429-.3-.429-.671s.192-.671.429-.671.429.3.429.671S57.244,94.5,57.007,94.5Zm0-2.9c-.237,0-.429-.3-.429-.671s.192-.671.429-.671.429.3.429.671S57.244,91.6,57.007,91.6Zm0-2.9c-.237,0-.429-.3-.429-.671s.192-.671.429-.671.429.3.429.671S57.244,88.7,57.007,88.7Zm0-2.9c-.237,0-.429-.3-.429-.671s.192-.671.429-.671.429.3.429.671S57.244,85.8,57.007,85.8Zm0-2.9c-.237,0-.429-.3-.429-.671s.192-.671.429-.671.429.3.429.671S57.244,82.9,57.007,82.9Zm0-2.9c-.237,0-.429-.3-.429-.671s.192-.671.429-.671.429.3.429.671S57.244,80,57.007,80Zm0-2.9c-.237,0-.429-.3-.429-.671s.192-.671.429-.671.429.3.429.671S57.244,77.1,57.007,77.1Zm0-2.9c-.237,0-.429-.3-.429-.671s.192-.671.429-.671.429.3.429.671S57.244,74.2,57.007,74.2Zm0-2.9c-.237,0-.429-.3-.429-.671s.192-.671.429-.671.429.3.429.671S57.244,71.3,57.007,71.3Zm0-2.9c-.237,0-.429-.3-.429-.671s.192-.671.429-.671.429.3.429.671S57.244,68.4,57.007,68.4Zm0-2.9c-.237,0-.429-.3-.429-.671s.192-.671.429-.671.429.3.429.671S57.244,65.5,57.007,65.5Zm0-2.9c-.237,0-.429-.3-.429-.671s.192-.671.429-.671.429.3.429.671S57.244,62.6,57.007,62.6Zm0-2.9c-.237,0-.429-.3-.429-.671s.192-.671.429-.671.429.3.429.671S57.244,59.7,57.007,59.7Zm0-2.9c-.237,0-.429-.3-.429-.671s.192-.671.429-.671.429.3.429.671S57.244,56.8,57.007,56.8Zm0-2.9c-.237,0-.429-.3-.429-.671s.192-.671.429-.671.429.3.429.671S57.244,53.9,57.007,53.9Zm0-2.9c-.237,0-.429-.3-.429-.671s.192-.671.429-.671.429.3.429.671S57.244,51,57.007,51Zm0-2.9c-.237,0-.429-.3-.429-.671s.192-.671.429-.671.429.3.429.671S57.244,48.1,57.007,48.1Zm0-2.9c-.237,0-.429-.3-.429-.671s.192-.671.429-.671.429.3.429.671S57.244,45.2,57.007,45.2Zm0-2.9c-.237,0-.429-.3-.429-.671s.192-.671.429-.671.429.3.429.671S57.244,42.3,57.007,42.3Zm1.852,89.9c-.237,0-.429-.3-.429-.671s.192-.671.429-.671.429.3.429.671S59.1,132.2,58.859,132.2Zm0-2.9c-.237,0-.429-.3-.429-.671s.192-.671.429-.671.429.3.429.671S59.1,129.3,58.859,129.3Zm0-2.9c-.237,0-.429-.3-.429-.671s.192-.671.429-.671.429.3.429.671S59.1,126.4,58.859,126.4Zm0-2.9c-.237,0-.429-.3-.429-.671s.192-.671.429-.671.429.3.429.671S59.1,123.5,58.859,123.5Zm0-2.9c-.237,0-.429-.3-.429-.671s.192-.671.429-.671.429.3.429.671S59.1,120.6,58.859,120.6Zm0-2.9c-.237,0-.429-.3-.429-.671s.192-.671.429-.671.429.3.429.671S59.1,117.7,58.859,117.7Zm0-2.9c-.237,0-.429-.3-.429-.671s.192-.671.429-.671.429.3.429.671S59.1,114.8,58.859,114.8Zm0-2.9c-.237,0-.429-.3-.429-.671s.192-.671.429-.671.429.3.429.671S59.1,111.9,58.859,111.9Zm0-2.9c-.237,0-.429-.3-.429-.671s.192-.671.429-.671.429.3.429.671S59.1,109,58.859,109Zm0-2.9c-.237,0-.429-.3-.429-.671s.192-.671.429-.671.429.3.429.671S59.1,106.1,58.859,106.1Zm0-2.9c-.237,0-.429-.3-.429-.671s.192-.671.429-.671.429.3.429.671S59.1,103.2,58.859,103.2Zm0-2.9c-.237,0-.429-.3-.429-.671s.192-.671.429-.671.429.3.429.671S59.1,100.3,58.859,100.3Zm0-2.9c-.237,0-.429-.3-.429-.671s.192-.671.429-.671.429.3.429.671S59.1,97.4,58.859,97.4Zm0-2.9c-.237,0-.429-.3-.429-.671s.192-.671.429-.671.429.3.429.671S59.1,94.5,58.859,94.5Zm0-2.9c-.237,0-.429-.3-.429-.671s.192-.671.429-.671.429.3.429.671S59.1,91.6,58.859,91.6Zm0-2.9c-.237,0-.429-.3-.429-.671s.192-.671.429-.671.429.3.429.671S59.1,88.7,58.859,88.7Zm0-2.9c-.237,0-.429-.3-.429-.671s.192-.671.429-.671.429.3.429.671S59.1,85.8,58.859,85.8Zm0-2.9c-.237,0-.429-.3-.429-.671s.192-.671.429-.671.429.3.429.671S59.1,82.9,58.859,82.9Zm0-2.9c-.237,0-.429-.3-.429-.671s.192-.671.429-.671.429.3.429.671S59.1,80,58.859,80Zm0-2.9c-.237,0-.429-.3-.429-.671s.192-.671.429-.671.429.3.429.671S59.1,77.1,58.859,77.1Zm0-2.9c-.237,0-.429-.3-.429-.671s.192-.671.429-.671.429.3.429.671S59.1,74.2,58.859,74.2Zm0-2.9c-.237,0-.429-.3-.429-.671s.192-.671.429-.671.429.3.429.671S59.1,71.3,58.859,71.3Zm0-2.9c-.237,0-.429-.3-.429-.671s.192-.671.429-.671.429.3.429.671S59.1,68.4,58.859,68.4Zm0-2.9c-.237,0-.429-.3-.429-.671s.192-.671.429-.671.429.3.429.671S59.1,65.5,58.859,65.5Zm0-2.9c-.237,0-.429-.3-.429-.671s.192-.671.429-.671.429.3.429.671S59.1,62.6,58.859,62.6Zm0-2.9c-.237,0-.429-.3-.429-.671s.192-.671.429-.671.429.3.429.671S59.1,59.7,58.859,59.7Zm0-2.9c-.237,0-.429-.3-.429-.671s.192-.671.429-.671.429.3.429.671S59.1,56.8,58.859,56.8Zm0-2.9c-.237,0-.429-.3-.429-.671s.192-.671.429-.671.429.3.429.671S59.1,53.9,58.859,53.9Zm0-2.9c-.237,0-.429-.3-.429-.671s.192-.671.429-.671.429.3.429.671S59.1,51,58.859,51Zm0-2.9c-.237,0-.429-.3-.429-.671s.192-.671.429-.671.429.3.429.671S59.1,48.1,58.859,48.1Zm0-2.9c-.237,0-.429-.3-.429-.671s.192-.671.429-.671.429.3.429.671S59.1,45.2,58.859,45.2Zm0-2.9c-.237,0-.429-.3-.429-.671s.192-.671.429-.671.429.3.429.671S59.1,42.3,58.859,42.3Zm1.852,89.9c-.237,0-.429-.3-.429-.671s.192-.671.429-.671.429.3.429.671S60.948,132.2,60.711,132.2Zm0-2.9c-.237,0-.429-.3-.429-.671s.192-.671.429-.671.429.3.429.671S60.948,129.3,60.711,129.3Zm0-2.9c-.237,0-.429-.3-.429-.671s.192-.671.429-.671.429.3.429.671S60.948,126.4,60.711,126.4Zm0-2.9c-.237,0-.429-.3-.429-.671s.192-.671.429-.671.429.3.429.671S60.948,123.5,60.711,123.5Zm0-2.9c-.237,0-.429-.3-.429-.671s.192-.671.429-.671.429.3.429.671S60.948,120.6,60.711,120.6Zm0-2.9c-.237,0-.429-.3-.429-.671s.192-.671.429-.671.429.3.429.671S60.948,117.7,60.711,117.7Zm0-2.9c-.237,0-.429-.3-.429-.671s.192-.671.429-.671.429.3.429.671S60.948,114.8,60.711,114.8Zm0-2.9c-.237,0-.429-.3-.429-.671s.192-.671.429-.671.429.3.429.671S60.948,111.9,60.711,111.9Zm0-2.9c-.237,0-.429-.3-.429-.671s.192-.671.429-.671.429.3.429.671S60.948,109,60.711,109Zm0-2.9c-.237,0-.429-.3-.429-.671s.192-.671.429-.671.429.3.429.671S60.948,106.1,60.711,106.1Zm0-2.9c-.237,0-.429-.3-.429-.671s.192-.671.429-.671.429.3.429.671S60.948,103.2,60.711,103.2Zm0-2.9c-.237,0-.429-.3-.429-.671s.192-.671.429-.671.429.3.429.671S60.948,100.3,60.711,100.3Zm0-2.9c-.237,0-.429-.3-.429-.671s.192-.671.429-.671.429.3.429.671S60.948,97.4,60.711,97.4Zm0-2.9c-.237,0-.429-.3-.429-.671s.192-.671.429-.671.429.3.429.671S60.948,94.5,60.711,94.5Zm0-2.9c-.237,0-.429-.3-.429-.671s.192-.671.429-.671.429.3.429.671S60.948,91.6,60.711,91.6Zm0-2.9c-.237,0-.429-.3-.429-.671s.192-.671.429-.671.429.3.429.671S60.948,88.7,60.711,88.7Zm0-2.9c-.237,0-.429-.3-.429-.671s.192-.671.429-.671.429.3.429.671S60.948,85.8,60.711,85.8Zm0-2.9c-.237,0-.429-.3-.429-.671s.192-.671.429-.671.429.3.429.671S60.948,82.9,60.711,82.9Zm0-2.9c-.237,0-.429-.3-.429-.671s.192-.671.429-.671.429.3.429.671S60.948,80,60.711,80Zm0-2.9c-.237,0-.429-.3-.429-.671s.192-.671.429-.671.429.3.429.671S60.948,77.1,60.711,77.1Zm0-2.9c-.237,0-.429-.3-.429-.671s.192-.671.429-.671.429.3.429.671S60.948,74.2,60.711,74.2Zm0-2.9c-.237,0-.429-.3-.429-.671s.192-.671.429-.671.429.3.429.671S60.948,71.3,60.711,71.3Zm0-2.9c-.237,0-.429-.3-.429-.671s.192-.671.429-.671.429.3.429.671S60.948,68.4,60.711,68.4Zm0-2.9c-.237,0-.429-.3-.429-.671s.192-.671.429-.671.429.3.429.671S60.948,65.5,60.711,65.5Zm0-2.9c-.237,0-.429-.3-.429-.671s.192-.671.429-.671.429.3.429.671S60.948,62.6,60.711,62.6Zm0-2.9c-.237,0-.429-.3-.429-.671s.192-.671.429-.671.429.3.429.671S60.948,59.7,60.711,59.7Zm0-2.9c-.237,0-.429-.3-.429-.671s.192-.671.429-.671.429.3.429.671S60.948,56.8,60.711,56.8Zm0-2.9c-.237,0-.429-.3-.429-.671s.192-.671.429-.671.429.3.429.671S60.948,53.9,60.711,53.9Zm0-2.9c-.237,0-.429-.3-.429-.671s.192-.671.429-.671.429.3.429.671S60.948,51,60.711,51Zm0-2.9c-.237,0-.429-.3-.429-.671s.192-.671.429-.671.429.3.429.671S60.948,48.1,60.711,48.1Zm0-2.9c-.237,0-.429-.3-.429-.671s.192-.671.429-.671.429.3.429.671S60.948,45.2,60.711,45.2Zm0-2.9c-.237,0-.429-.3-.429-.671s.192-.671.429-.671.429.3.429.671S60.948,42.3,60.711,42.3Zm1.852,92.8c-.237,0-.429-.3-.429-.671s.192-.671.429-.671.429.3.429.671S62.8,135.1,62.563,135.1Zm0-2.9c-.237,0-.429-.3-.429-.671s.192-.671.429-.671.429.3.429.671S62.8,132.2,62.563,132.2Zm0-2.9c-.237,0-.429-.3-.429-.671s.192-.671.429-.671.429.3.429.671S62.8,129.3,62.563,129.3Zm0-2.9c-.237,0-.429-.3-.429-.671s.192-.671.429-.671.429.3.429.671S62.8,126.4,62.563,126.4Zm0-2.9c-.237,0-.429-.3-.429-.671s.192-.671.429-.671.429.3.429.671S62.8,123.5,62.563,123.5Zm0-2.9c-.237,0-.429-.3-.429-.671s.192-.671.429-.671.429.3.429.671S62.8,120.6,62.563,120.6Zm0-2.9c-.237,0-.429-.3-.429-.671s.192-.671.429-.671.429.3.429.671S62.8,117.7,62.563,117.7Zm0-2.9c-.237,0-.429-.3-.429-.671s.192-.671.429-.671.429.3.429.671S62.8,114.8,62.563,114.8Zm0-2.9c-.237,0-.429-.3-.429-.671s.192-.671.429-.671.429.3.429.671S62.8,111.9,62.563,111.9Zm0-2.9c-.237,0-.429-.3-.429-.671s.192-.671.429-.671.429.3.429.671S62.8,109,62.563,109Zm0-2.9c-.237,0-.429-.3-.429-.671s.192-.671.429-.671.429.3.429.671S62.8,106.1,62.563,106.1Zm0-2.9c-.237,0-.429-.3-.429-.671s.192-.671.429-.671.429.3.429.671S62.8,103.2,62.563,103.2Zm0-2.9c-.237,0-.429-.3-.429-.671s.192-.671.429-.671.429.3.429.671S62.8,100.3,62.563,100.3Zm0-2.9c-.237,0-.429-.3-.429-.671s.192-.671.429-.671.429.3.429.671S62.8,97.4,62.563,97.4Zm0-2.9c-.237,0-.429-.3-.429-.671s.192-.671.429-.671.429.3.429.671S62.8,94.5,62.563,94.5Zm0-2.9c-.237,0-.429-.3-.429-.671s.192-.671.429-.671.429.3.429.671S62.8,91.6,62.563,91.6Zm0-2.9c-.237,0-.429-.3-.429-.671s.192-.671.429-.671.429.3.429.671S62.8,88.7,62.563,88.7Zm0-2.9c-.237,0-.429-.3-.429-.671s.192-.671.429-.671.429.3.429.671S62.8,85.8,62.563,85.8Zm0-2.9c-.237,0-.429-.3-.429-.671s.192-.671.429-.671.429.3.429.671S62.8,82.9,62.563,82.9Zm0-2.9c-.237,0-.429-.3-.429-.671s.192-.671.429-.671.429.3.429.671S62.8,80,62.563,80Zm0-2.9c-.237,0-.429-.3-.429-.671s.192-.671.429-.671.429.3.429.671S62.8,77.1,62.563,77.1Zm0-2.9c-.237,0-.429-.3-.429-.671s.192-.671.429-.671.429.3.429.671S62.8,74.2,62.563,74.2Zm0-2.9c-.237,0-.429-.3-.429-.671s.192-.671.429-.671.429.3.429.671S62.8,71.3,62.563,71.3Zm0-2.9c-.237,0-.429-.3-.429-.671s.192-.671.429-.671.429.3.429.671S62.8,68.4,62.563,68.4Zm0-2.9c-.237,0-.429-.3-.429-.671s.192-.671.429-.671.429.3.429.671S62.8,65.5,62.563,65.5Zm0-2.9c-.237,0-.429-.3-.429-.671s.192-.671.429-.671.429.3.429.671S62.8,62.6,62.563,62.6Zm0-2.9c-.237,0-.429-.3-.429-.671s.192-.671.429-.671.429.3.429.671S62.8,59.7,62.563,59.7Zm0-2.9c-.237,0-.429-.3-.429-.671s.192-.671.429-.671.429.3.429.671S62.8,56.8,62.563,56.8Zm0-2.9c-.237,0-.429-.3-.429-.671s.192-.671.429-.671.429.3.429.671S62.8,53.9,62.563,53.9Zm0-2.9c-.237,0-.429-.3-.429-.671s.192-.671.429-.671.429.3.429.671S62.8,51,62.563,51Zm0-2.9c-.237,0-.429-.3-.429-.671s.192-.671.429-.671.429.3.429.671S62.8,48.1,62.563,48.1Zm0-2.9c-.237,0-.429-.3-.429-.671s.192-.671.429-.671.429.3.429.671S62.8,45.2,62.563,45.2Zm0-2.9c-.237,0-.429-.3-.429-.671s.192-.671.429-.671.429.3.429.671S62.8,42.3,62.563,42.3Zm0-2.9c-.237,0-.429-.3-.429-.671s.192-.671.429-.671.429.3.429.671S62.8,39.4,62.563,39.4Zm1.852,95.7c-.237,0-.429-.3-.429-.671s.192-.671.429-.671.429.3.429.671S64.652,135.1,64.416,135.1Zm0-2.9c-.237,0-.429-.3-.429-.671s.192-.671.429-.671.429.3.429.671S64.652,132.2,64.416,132.2Zm0-2.9c-.237,0-.429-.3-.429-.671s.192-.671.429-.671.429.3.429.671S64.652,129.3,64.416,129.3Zm0-2.9c-.237,0-.429-.3-.429-.671s.192-.671.429-.671.429.3.429.671S64.652,126.4,64.416,126.4Zm0-2.9c-.237,0-.429-.3-.429-.671s.192-.671.429-.671.429.3.429.671S64.652,123.5,64.416,123.5Zm0-2.9c-.237,0-.429-.3-.429-.671s.192-.671.429-.671.429.3.429.671S64.652,120.6,64.416,120.6Zm0-2.9c-.237,0-.429-.3-.429-.671s.192-.671.429-.671.429.3.429.671S64.652,117.7,64.416,117.7Zm0-2.9c-.237,0-.429-.3-.429-.671s.192-.671.429-.671.429.3.429.671S64.652,114.8,64.416,114.8Zm0-2.9c-.237,0-.429-.3-.429-.671s.192-.671.429-.671.429.3.429.671S64.652,111.9,64.416,111.9Zm0-2.9c-.237,0-.429-.3-.429-.671s.192-.671.429-.671.429.3.429.671S64.652,109,64.416,109Zm0-2.9c-.237,0-.429-.3-.429-.671s.192-.671.429-.671.429.3.429.671S64.652,106.1,64.416,106.1Zm0-2.9c-.237,0-.429-.3-.429-.671s.192-.671.429-.671.429.3.429.671S64.652,103.2,64.416,103.2Zm0-2.9c-.237,0-.429-.3-.429-.671s.192-.671.429-.671.429.3.429.671S64.652,100.3,64.416,100.3Zm0-2.9c-.237,0-.429-.3-.429-.671s.192-.671.429-.671.429.3.429.671S64.652,97.4,64.416,97.4Zm0-2.9c-.237,0-.429-.3-.429-.671s.192-.671.429-.671.429.3.429.671S64.652,94.5,64.416,94.5Zm0-2.9c-.237,0-.429-.3-.429-.671s.192-.671.429-.671.429.3.429.671S64.652,91.6,64.416,91.6Zm0-2.9c-.237,0-.429-.3-.429-.671s.192-.671.429-.671.429.3.429.671S64.652,88.7,64.416,88.7Zm0-2.9c-.237,0-.429-.3-.429-.671s.192-.671.429-.671.429.3.429.671S64.652,85.8,64.416,85.8Zm0-2.9c-.237,0-.429-.3-.429-.671s.192-.671.429-.671.429.3.429.671S64.652,82.9,64.416,82.9Zm0-2.9c-.237,0-.429-.3-.429-.671s.192-.671.429-.671.429.3.429.671S64.652,80,64.416,80Zm0-2.9c-.237,0-.429-.3-.429-.671s.192-.671.429-.671.429.3.429.671S64.652,77.1,64.416,77.1Zm0-2.9c-.237,0-.429-.3-.429-.671s.192-.671.429-.671.429.3.429.671S64.652,74.2,64.416,74.2Zm0-2.9c-.237,0-.429-.3-.429-.671s.192-.671.429-.671.429.3.429.671S64.652,71.3,64.416,71.3Zm0-2.9c-.237,0-.429-.3-.429-.671s.192-.671.429-.671.429.3.429.671S64.652,68.4,64.416,68.4Zm0-2.9c-.237,0-.429-.3-.429-.671s.192-.671.429-.671.429.3.429.671S64.652,65.5,64.416,65.5Zm0-2.9c-.237,0-.429-.3-.429-.671s.192-.671.429-.671.429.3.429.671S64.652,62.6,64.416,62.6Zm0-2.9c-.237,0-.429-.3-.429-.671s.192-.671.429-.671.429.3.429.671S64.652,59.7,64.416,59.7Zm0-2.9c-.237,0-.429-.3-.429-.671s.192-.671.429-.671.429.3.429.671S64.652,56.8,64.416,56.8Zm0-2.9c-.237,0-.429-.3-.429-.671s.192-.671.429-.671.429.3.429.671S64.652,53.9,64.416,53.9Zm0-2.9c-.237,0-.429-.3-.429-.671s.192-.671.429-.671.429.3.429.671S64.652,51,64.416,51Zm0-2.9c-.237,0-.429-.3-.429-.671s.192-.671.429-.671.429.3.429.671S64.652,48.1,64.416,48.1Zm0-2.9c-.237,0-.429-.3-.429-.671s.192-.671.429-.671.429.3.429.671S64.652,45.2,64.416,45.2Zm0-2.9c-.237,0-.429-.3-.429-.671s.192-.671.429-.671.429.3.429.671S64.652,42.3,64.416,42.3Zm0-2.9c-.237,0-.429-.3-.429-.671s.192-.671.429-.671.429.3.429.671S64.652,39.4,64.416,39.4Zm1.852,95.7c-.237,0-.429-.3-.429-.671s.192-.671.429-.671.429.3.429.671S66.5,135.1,66.268,135.1Zm0-2.9c-.237,0-.429-.3-.429-.671s.192-.671.429-.671.429.3.429.671S66.5,132.2,66.268,132.2Zm0-2.9c-.237,0-.429-.3-.429-.671s.192-.671.429-.671.429.3.429.671S66.5,129.3,66.268,129.3Zm0-2.9c-.237,0-.429-.3-.429-.671s.192-.671.429-.671.429.3.429.671S66.5,126.4,66.268,126.4Zm0-2.9c-.237,0-.429-.3-.429-.671s.192-.671.429-.671.429.3.429.671S66.5,123.5,66.268,123.5Zm0-2.9c-.237,0-.429-.3-.429-.671s.192-.671.429-.671.429.3.429.671S66.5,120.6,66.268,120.6Zm0-2.9c-.237,0-.429-.3-.429-.671s.192-.671.429-.671.429.3.429.671S66.5,117.7,66.268,117.7Zm0-2.9c-.237,0-.429-.3-.429-.671s.192-.671.429-.671.429.3.429.671S66.5,114.8,66.268,114.8Zm0-2.9c-.237,0-.429-.3-.429-.671s.192-.671.429-.671.429.3.429.671S66.5,111.9,66.268,111.9Zm0-2.9c-.237,0-.429-.3-.429-.671s.192-.671.429-.671.429.3.429.671S66.5,109,66.268,109Zm0-2.9c-.237,0-.429-.3-.429-.671s.192-.671.429-.671.429.3.429.671S66.5,106.1,66.268,106.1Zm0-2.9c-.237,0-.429-.3-.429-.671s.192-.671.429-.671.429.3.429.671S66.5,103.2,66.268,103.2Zm0-2.9c-.237,0-.429-.3-.429-.671s.192-.671.429-.671.429.3.429.671S66.5,100.3,66.268,100.3Zm0-2.9c-.237,0-.429-.3-.429-.671s.192-.671.429-.671.429.3.429.671S66.5,97.4,66.268,97.4Zm0-2.9c-.237,0-.429-.3-.429-.671s.192-.671.429-.671.429.3.429.671S66.5,94.5,66.268,94.5Zm0-2.9c-.237,0-.429-.3-.429-.671s.192-.671.429-.671.429.3.429.671S66.5,91.6,66.268,91.6Zm0-2.9c-.237,0-.429-.3-.429-.671s.192-.671.429-.671.429.3.429.671S66.5,88.7,66.268,88.7Zm0-2.9c-.237,0-.429-.3-.429-.671s.192-.671.429-.671.429.3.429.671S66.5,85.8,66.268,85.8Zm0-2.9c-.237,0-.429-.3-.429-.671s.192-.671.429-.671.429.3.429.671S66.5,82.9,66.268,82.9Zm0-2.9c-.237,0-.429-.3-.429-.671s.192-.671.429-.671.429.3.429.671S66.5,80,66.268,80Zm0-2.9c-.237,0-.429-.3-.429-.671s.192-.671.429-.671.429.3.429.671S66.5,77.1,66.268,77.1Zm0-2.9c-.237,0-.429-.3-.429-.671s.192-.671.429-.671.429.3.429.671S66.5,74.2,66.268,74.2Zm0-2.9c-.237,0-.429-.3-.429-.671s.192-.671.429-.671.429.3.429.671S66.5,71.3,66.268,71.3Zm0-2.9c-.237,0-.429-.3-.429-.671s.192-.671.429-.671.429.3.429.671S66.5,68.4,66.268,68.4Zm0-2.9c-.237,0-.429-.3-.429-.671s.192-.671.429-.671.429.3.429.671S66.5,65.5,66.268,65.5Zm0-2.9c-.237,0-.429-.3-.429-.671s.192-.671.429-.671.429.3.429.671S66.5,62.6,66.268,62.6Zm0-2.9c-.237,0-.429-.3-.429-.671s.192-.671.429-.671.429.3.429.671S66.5,59.7,66.268,59.7Zm0-2.9c-.237,0-.429-.3-.429-.671s.192-.671.429-.671.429.3.429.671S66.5,56.8,66.268,56.8Zm0-2.9c-.237,0-.429-.3-.429-.671s.192-.671.429-.671.429.3.429.671S66.5,53.9,66.268,53.9Zm0-2.9c-.237,0-.429-.3-.429-.671s.192-.671.429-.671.429.3.429.671S66.5,51,66.268,51Zm0-2.9c-.237,0-.429-.3-.429-.671s.192-.671.429-.671.429.3.429.671S66.5,48.1,66.268,48.1Zm0-2.9c-.237,0-.429-.3-.429-.671s.192-.671.429-.671.429.3.429.671S66.5,45.2,66.268,45.2Zm0-2.9c-.237,0-.429-.3-.429-.671s.192-.671.429-.671.429.3.429.671S66.5,42.3,66.268,42.3Zm0-2.9c-.237,0-.429-.3-.429-.671s.192-.671.429-.671.429.3.429.671S66.5,39.4,66.268,39.4Zm1.852,95.7c-.237,0-.429-.3-.429-.671s.192-.671.429-.671.429.3.429.671S68.357,135.1,68.12,135.1Zm0-2.9c-.237,0-.429-.3-.429-.671s.192-.671.429-.671.429.3.429.671S68.357,132.2,68.12,132.2Zm0-2.9c-.237,0-.429-.3-.429-.671s.192-.671.429-.671.429.3.429.671S68.357,129.3,68.12,129.3Zm0-2.9c-.237,0-.429-.3-.429-.671s.192-.671.429-.671.429.3.429.671S68.357,126.4,68.12,126.4Zm0-2.9c-.237,0-.429-.3-.429-.671s.192-.671.429-.671.429.3.429.671S68.357,123.5,68.12,123.5Zm0-2.9c-.237,0-.429-.3-.429-.671s.192-.671.429-.671.429.3.429.671S68.357,120.6,68.12,120.6Zm0-2.9c-.237,0-.429-.3-.429-.671s.192-.671.429-.671.429.3.429.671S68.357,117.7,68.12,117.7Zm0-2.9c-.237,0-.429-.3-.429-.671s.192-.671.429-.671.429.3.429.671S68.357,114.8,68.12,114.8Zm0-2.9c-.237,0-.429-.3-.429-.671s.192-.671.429-.671.429.3.429.671S68.357,111.9,68.12,111.9Zm0-2.9c-.237,0-.429-.3-.429-.671s.192-.671.429-.671.429.3.429.671S68.357,109,68.12,109Zm0-2.9c-.237,0-.429-.3-.429-.671s.192-.671.429-.671.429.3.429.671S68.357,106.1,68.12,106.1Zm0-2.9c-.237,0-.429-.3-.429-.671s.192-.671.429-.671.429.3.429.671S68.357,103.2,68.12,103.2Zm0-2.9c-.237,0-.429-.3-.429-.671s.192-.671.429-.671.429.3.429.671S68.357,100.3,68.12,100.3Zm0-2.9c-.237,0-.429-.3-.429-.671s.192-.671.429-.671.429.3.429.671S68.357,97.4,68.12,97.4Zm0-2.9c-.237,0-.429-.3-.429-.671s.192-.671.429-.671.429.3.429.671S68.357,94.5,68.12,94.5Zm0-2.9c-.237,0-.429-.3-.429-.671s.192-.671.429-.671.429.3.429.671S68.357,91.6,68.12,91.6Zm0-2.9c-.237,0-.429-.3-.429-.671s.192-.671.429-.671.429.3.429.671S68.357,88.7,68.12,88.7Zm0-2.9c-.237,0-.429-.3-.429-.671s.192-.671.429-.671.429.3.429.671S68.357,85.8,68.12,85.8Zm0-2.9c-.237,0-.429-.3-.429-.671s.192-.671.429-.671.429.3.429.671S68.357,82.9,68.12,82.9Zm0-2.9c-.237,0-.429-.3-.429-.671s.192-.671.429-.671.429.3.429.671S68.357,80,68.12,80Zm0-2.9c-.237,0-.429-.3-.429-.671s.192-.671.429-.671.429.3.429.671S68.357,77.1,68.12,77.1Zm0-2.9c-.237,0-.429-.3-.429-.671s.192-.671.429-.671.429.3.429.671S68.357,74.2,68.12,74.2Zm0-2.9c-.237,0-.429-.3-.429-.671s.192-.671.429-.671.429.3.429.671S68.357,71.3,68.12,71.3Zm0-2.9c-.237,0-.429-.3-.429-.671s.192-.671.429-.671.429.3.429.671S68.357,68.4,68.12,68.4Zm0-2.9c-.237,0-.429-.3-.429-.671s.192-.671.429-.671.429.3.429.671S68.357,65.5,68.12,65.5Zm0-2.9c-.237,0-.429-.3-.429-.671s.192-.671.429-.671.429.3.429.671S68.357,62.6,68.12,62.6Zm0-2.9c-.237,0-.429-.3-.429-.671s.192-.671.429-.671.429.3.429.671S68.357,59.7,68.12,59.7Zm0-2.9c-.237,0-.429-.3-.429-.671s.192-.671.429-.671.429.3.429.671S68.357,56.8,68.12,56.8Zm0-2.9c-.237,0-.429-.3-.429-.671s.192-.671.429-.671.429.3.429.671S68.357,53.9,68.12,53.9Zm0-2.9c-.237,0-.429-.3-.429-.671s.192-.671.429-.671.429.3.429.671S68.357,51,68.12,51Zm0-2.9c-.237,0-.429-.3-.429-.671s.192-.671.429-.671.429.3.429.671S68.357,48.1,68.12,48.1Zm0-2.9c-.237,0-.429-.3-.429-.671s.192-.671.429-.671.429.3.429.671S68.357,45.2,68.12,45.2Zm0-2.9c-.237,0-.429-.3-.429-.671s.192-.671.429-.671.429.3.429.671S68.357,42.3,68.12,42.3Zm0-2.9c-.237,0-.429-.3-.429-.671s.192-.671.429-.671.429.3.429.671S68.357,39.4,68.12,39.4Zm1.852,95.7c-.237,0-.429-.3-.429-.671s.192-.671.429-.671.429.3.429.671S70.209,135.1,69.972,135.1Zm0-2.9c-.237,0-.429-.3-.429-.671s.192-.671.429-.671.429.3.429.671S70.209,132.2,69.972,132.2Zm0-2.9c-.237,0-.429-.3-.429-.671s.192-.671.429-.671.429.3.429.671S70.209,129.3,69.972,129.3Zm0-2.9c-.237,0-.429-.3-.429-.671s.192-.671.429-.671.429.3.429.671S70.209,126.4,69.972,126.4Zm0-2.9c-.237,0-.429-.3-.429-.671s.192-.671.429-.671.429.3.429.671S70.209,123.5,69.972,123.5Zm0-2.9c-.237,0-.429-.3-.429-.671s.192-.671.429-.671.429.3.429.671S70.209,120.6,69.972,120.6Zm0-2.9c-.237,0-.429-.3-.429-.671s.192-.671.429-.671.429.3.429.671S70.209,117.7,69.972,117.7Zm0-2.9c-.237,0-.429-.3-.429-.671s.192-.671.429-.671.429.3.429.671S70.209,114.8,69.972,114.8Zm0-2.9c-.237,0-.429-.3-.429-.671s.192-.671.429-.671.429.3.429.671S70.209,111.9,69.972,111.9Zm0-2.9c-.237,0-.429-.3-.429-.671s.192-.671.429-.671.429.3.429.671S70.209,109,69.972,109Zm0-2.9c-.237,0-.429-.3-.429-.671s.192-.671.429-.671.429.3.429.671S70.209,106.1,69.972,106.1Zm0-2.9c-.237,0-.429-.3-.429-.671s.192-.671.429-.671.429.3.429.671S70.209,103.2,69.972,103.2Zm0-2.9c-.237,0-.429-.3-.429-.671s.192-.671.429-.671.429.3.429.671S70.209,100.3,69.972,100.3Zm0-2.9c-.237,0-.429-.3-.429-.671s.192-.671.429-.671.429.3.429.671S70.209,97.4,69.972,97.4Zm0-2.9c-.237,0-.429-.3-.429-.671s.192-.671.429-.671.429.3.429.671S70.209,94.5,69.972,94.5Zm0-2.9c-.237,0-.429-.3-.429-.671s.192-.671.429-.671.429.3.429.671S70.209,91.6,69.972,91.6Zm0-2.9c-.237,0-.429-.3-.429-.671s.192-.671.429-.671.429.3.429.671S70.209,88.7,69.972,88.7Zm0-2.9c-.237,0-.429-.3-.429-.671s.192-.671.429-.671.429.3.429.671S70.209,85.8,69.972,85.8Zm0-2.9c-.237,0-.429-.3-.429-.671s.192-.671.429-.671.429.3.429.671S70.209,82.9,69.972,82.9Zm0-2.9c-.237,0-.429-.3-.429-.671s.192-.671.429-.671.429.3.429.671S70.209,80,69.972,80Zm0-2.9c-.237,0-.429-.3-.429-.671s.192-.671.429-.671.429.3.429.671S70.209,77.1,69.972,77.1Zm0-2.9c-.237,0-.429-.3-.429-.671s.192-.671.429-.671.429.3.429.671S70.209,74.2,69.972,74.2Zm0-2.9c-.237,0-.429-.3-.429-.671s.192-.671.429-.671.429.3.429.671S70.209,71.3,69.972,71.3Zm0-2.9c-.237,0-.429-.3-.429-.671s.192-.671.429-.671.429.3.429.671S70.209,68.4,69.972,68.4Zm0-2.9c-.237,0-.429-.3-.429-.671s.192-.671.429-.671.429.3.429.671S70.209,65.5,69.972,65.5Zm0-2.9c-.237,0-.429-.3-.429-.671s.192-.671.429-.671.429.3.429.671S70.209,62.6,69.972,62.6Zm0-2.9c-.237,0-.429-.3-.429-.671s.192-.671.429-.671.429.3.429.671S70.209,59.7,69.972,59.7Zm0-2.9c-.237,0-.429-.3-.429-.671s.192-.671.429-.671.429.3.429.671S70.209,56.8,69.972,56.8Zm0-2.9c-.237,0-.429-.3-.429-.671s.192-.671.429-.671.429.3.429.671S70.209,53.9,69.972,53.9Zm0-2.9c-.237,0-.429-.3-.429-.671s.192-.671.429-.671.429.3.429.671S70.209,51,69.972,51Zm0-2.9c-.237,0-.429-.3-.429-.671s.192-.671.429-.671.429.3.429.671S70.209,48.1,69.972,48.1Zm0-2.9c-.237,0-.429-.3-.429-.671s.192-.671.429-.671.429.3.429.671S70.209,45.2,69.972,45.2Zm0-2.9c-.237,0-.429-.3-.429-.671s.192-.671.429-.671.429.3.429.671S70.209,42.3,69.972,42.3Zm0-2.9c-.237,0-.429-.3-.429-.671s.192-.671.429-.671.429.3.429.671S70.209,39.4,69.972,39.4Zm1.852,95.7c-.237,0-.429-.3-.429-.671s.192-.671.429-.671.429.3.429.671S72.061,135.1,71.824,135.1Zm0-2.9c-.237,0-.429-.3-.429-.671s.192-.671.429-.671.429.3.429.671S72.061,132.2,71.824,132.2Zm0-2.9c-.237,0-.429-.3-.429-.671s.192-.671.429-.671.429.3.429.671S72.061,129.3,71.824,129.3Zm0-2.9c-.237,0-.429-.3-.429-.671s.192-.671.429-.671.429.3.429.671S72.061,126.4,71.824,126.4Zm0-2.9c-.237,0-.429-.3-.429-.671s.192-.671.429-.671.429.3.429.671S72.061,123.5,71.824,123.5Zm0-2.9c-.237,0-.429-.3-.429-.671s.192-.671.429-.671.429.3.429.671S72.061,120.6,71.824,120.6Zm0-2.9c-.237,0-.429-.3-.429-.671s.192-.671.429-.671.429.3.429.671S72.061,117.7,71.824,117.7Zm0-2.9c-.237,0-.429-.3-.429-.671s.192-.671.429-.671.429.3.429.671S72.061,114.8,71.824,114.8Zm0-2.9c-.237,0-.429-.3-.429-.671s.192-.671.429-.671.429.3.429.671S72.061,111.9,71.824,111.9Zm0-2.9c-.237,0-.429-.3-.429-.671s.192-.671.429-.671.429.3.429.671S72.061,109,71.824,109Zm0-2.9c-.237,0-.429-.3-.429-.671s.192-.671.429-.671.429.3.429.671S72.061,106.1,71.824,106.1Zm0-2.9c-.237,0-.429-.3-.429-.671s.192-.671.429-.671.429.3.429.671S72.061,103.2,71.824,103.2Zm0-2.9c-.237,0-.429-.3-.429-.671s.192-.671.429-.671.429.3.429.671S72.061,100.3,71.824,100.3Zm0-2.9c-.237,0-.429-.3-.429-.671s.192-.671.429-.671.429.3.429.671S72.061,97.4,71.824,97.4Zm0-2.9c-.237,0-.429-.3-.429-.671s.192-.671.429-.671.429.3.429.671S72.061,94.5,71.824,94.5Zm0-2.9c-.237,0-.429-.3-.429-.671s.192-.671.429-.671.429.3.429.671S72.061,91.6,71.824,91.6Zm0-2.9c-.237,0-.429-.3-.429-.671s.192-.671.429-.671.429.3.429.671S72.061,88.7,71.824,88.7Zm0-2.9c-.237,0-.429-.3-.429-.671s.192-.671.429-.671.429.3.429.671S72.061,85.8,71.824,85.8Zm0-2.9c-.237,0-.429-.3-.429-.671s.192-.671.429-.671.429.3.429.671S72.061,82.9,71.824,82.9Zm0-2.9c-.237,0-.429-.3-.429-.671s.192-.671.429-.671.429.3.429.671S72.061,80,71.824,80Zm0-2.9c-.237,0-.429-.3-.429-.671s.192-.671.429-.671.429.3.429.671S72.061,77.1,71.824,77.1Zm0-2.9c-.237,0-.429-.3-.429-.671s.192-.671.429-.671.429.3.429.671S72.061,74.2,71.824,74.2Zm0-2.9c-.237,0-.429-.3-.429-.671s.192-.671.429-.671.429.3.429.671S72.061,71.3,71.824,71.3Zm0-2.9c-.237,0-.429-.3-.429-.671s.192-.671.429-.671.429.3.429.671S72.061,68.4,71.824,68.4Zm0-2.9c-.237,0-.429-.3-.429-.671s.192-.671.429-.671.429.3.429.671S72.061,65.5,71.824,65.5Zm0-2.9c-.237,0-.429-.3-.429-.671s.192-.671.429-.671.429.3.429.671S72.061,62.6,71.824,62.6Zm0-2.9c-.237,0-.429-.3-.429-.671s.192-.671.429-.671.429.3.429.671S72.061,59.7,71.824,59.7Zm0-2.9c-.237,0-.429-.3-.429-.671s.192-.671.429-.671.429.3.429.671S72.061,56.8,71.824,56.8Zm0-2.9c-.237,0-.429-.3-.429-.671s.192-.671.429-.671.429.3.429.671S72.061,53.9,71.824,53.9Zm0-2.9c-.237,0-.429-.3-.429-.671s.192-.671.429-.671.429.3.429.671S72.061,51,71.824,51Zm0-2.9c-.237,0-.429-.3-.429-.671s.192-.671.429-.671.429.3.429.671S72.061,48.1,71.824,48.1Zm0-2.9c-.237,0-.429-.3-.429-.671s.192-.671.429-.671.429.3.429.671S72.061,45.2,71.824,45.2Zm0-2.9c-.237,0-.429-.3-.429-.671s.192-.671.429-.671.429.3.429.671S72.061,42.3,71.824,42.3Zm0-2.9c-.237,0-.429-.3-.429-.671s.192-.671.429-.671.429.3.429.671S72.061,39.4,71.824,39.4Zm1.852,95.7c-.237,0-.429-.3-.429-.671s.192-.671.429-.671.429.3.429.671S73.913,135.1,73.677,135.1Zm0-2.9c-.237,0-.429-.3-.429-.671s.192-.671.429-.671.429.3.429.671S73.913,132.2,73.677,132.2Zm0-2.9c-.237,0-.429-.3-.429-.671s.192-.671.429-.671.429.3.429.671S73.913,129.3,73.677,129.3Zm0-2.9c-.237,0-.429-.3-.429-.671s.192-.671.429-.671.429.3.429.671S73.913,126.4,73.677,126.4Zm0-2.9c-.237,0-.429-.3-.429-.671s.192-.671.429-.671.429.3.429.671S73.913,123.5,73.677,123.5Zm0-2.9c-.237,0-.429-.3-.429-.671s.192-.671.429-.671.429.3.429.671S73.913,120.6,73.677,120.6Zm0-2.9c-.237,0-.429-.3-.429-.671s.192-.671.429-.671.429.3.429.671S73.913,117.7,73.677,117.7Zm0-2.9c-.237,0-.429-.3-.429-.671s.192-.671.429-.671.429.3.429.671S73.913,114.8,73.677,114.8Zm0-2.9c-.237,0-.429-.3-.429-.671s.192-.671.429-.671.429.3.429.671S73.913,111.9,73.677,111.9Zm0-2.9c-.237,0-.429-.3-.429-.671s.192-.671.429-.671.429.3.429.671S73.913,109,73.677,109Zm0-2.9c-.237,0-.429-.3-.429-.671s.192-.671.429-.671.429.3.429.671S73.913,106.1,73.677,106.1Zm0-2.9c-.237,0-.429-.3-.429-.671s.192-.671.429-.671.429.3.429.671S73.913,103.2,73.677,103.2Zm0-2.9c-.237,0-.429-.3-.429-.671s.192-.671.429-.671.429.3.429.671S73.913,100.3,73.677,100.3Zm0-2.9c-.237,0-.429-.3-.429-.671s.192-.671.429-.671.429.3.429.671S73.913,97.4,73.677,97.4Zm0-2.9c-.237,0-.429-.3-.429-.671s.192-.671.429-.671.429.3.429.671S73.913,94.5,73.677,94.5Zm0-2.9c-.237,0-.429-.3-.429-.671s.192-.671.429-.671.429.3.429.671S73.913,91.6,73.677,91.6Zm0-2.9c-.237,0-.429-.3-.429-.671s.192-.671.429-.671.429.3.429.671S73.913,88.7,73.677,88.7Zm0-2.9c-.237,0-.429-.3-.429-.671s.192-.671.429-.671.429.3.429.671S73.913,85.8,73.677,85.8Zm0-2.9c-.237,0-.429-.3-.429-.671s.192-.671.429-.671.429.3.429.671S73.913,82.9,73.677,82.9Zm0-2.9c-.237,0-.429-.3-.429-.671s.192-.671.429-.671.429.3.429.671S73.913,80,73.677,80Zm0-2.9c-.237,0-.429-.3-.429-.671s.192-.671.429-.671.429.3.429.671S73.913,77.1,73.677,77.1Zm0-2.9c-.237,0-.429-.3-.429-.671s.192-.671.429-.671.429.3.429.671S73.913,74.2,73.677,74.2Zm0-2.9c-.237,0-.429-.3-.429-.671s.192-.671.429-.671.429.3.429.671S73.913,71.3,73.677,71.3Zm0-2.9c-.237,0-.429-.3-.429-.671s.192-.671.429-.671.429.3.429.671S73.913,68.4,73.677,68.4Zm0-2.9c-.237,0-.429-.3-.429-.671s.192-.671.429-.671.429.3.429.671S73.913,65.5,73.677,65.5Zm0-2.9c-.237,0-.429-.3-.429-.671s.192-.671.429-.671.429.3.429.671S73.913,62.6,73.677,62.6Zm0-2.9c-.237,0-.429-.3-.429-.671s.192-.671.429-.671.429.3.429.671S73.913,59.7,73.677,59.7Zm0-2.9c-.237,0-.429-.3-.429-.671s.192-.671.429-.671.429.3.429.671S73.913,56.8,73.677,56.8Zm0-2.9c-.237,0-.429-.3-.429-.671s.192-.671.429-.671.429.3.429.671S73.913,53.9,73.677,53.9Zm0-2.9c-.237,0-.429-.3-.429-.671s.192-.671.429-.671.429.3.429.671S73.913,51,73.677,51Zm0-2.9c-.237,0-.429-.3-.429-.671s.192-.671.429-.671.429.3.429.671S73.913,48.1,73.677,48.1Zm0-2.9c-.237,0-.429-.3-.429-.671s.192-.671.429-.671.429.3.429.671S73.913,45.2,73.677,45.2Zm0-2.9c-.237,0-.429-.3-.429-.671s.192-.671.429-.671.429.3.429.671S73.913,42.3,73.677,42.3Zm0-2.9c-.237,0-.429-.3-.429-.671s.192-.671.429-.671.429.3.429.671S73.913,39.4,73.677,39.4Zm1.852,95.7c-.237,0-.429-.3-.429-.671s.192-.671.429-.671.429.3.429.671S75.766,135.1,75.529,135.1Zm0-2.9c-.237,0-.429-.3-.429-.671s.192-.671.429-.671.429.3.429.671S75.766,132.2,75.529,132.2Zm0-2.9c-.237,0-.429-.3-.429-.671s.192-.671.429-.671.429.3.429.671S75.766,129.3,75.529,129.3Zm0-2.9c-.237,0-.429-.3-.429-.671s.192-.671.429-.671.429.3.429.671S75.766,126.4,75.529,126.4Zm0-2.9c-.237,0-.429-.3-.429-.671s.192-.671.429-.671.429.3.429.671S75.766,123.5,75.529,123.5Zm0-2.9c-.237,0-.429-.3-.429-.671s.192-.671.429-.671.429.3.429.671S75.766,120.6,75.529,120.6Zm0-2.9c-.237,0-.429-.3-.429-.671s.192-.671.429-.671.429.3.429.671S75.766,117.7,75.529,117.7Zm0-2.9c-.237,0-.429-.3-.429-.671s.192-.671.429-.671.429.3.429.671S75.766,114.8,75.529,114.8Zm0-2.9c-.237,0-.429-.3-.429-.671s.192-.671.429-.671.429.3.429.671S75.766,111.9,75.529,111.9Zm0-2.9c-.237,0-.429-.3-.429-.671s.192-.671.429-.671.429.3.429.671S75.766,109,75.529,109Zm0-2.9c-.237,0-.429-.3-.429-.671s.192-.671.429-.671.429.3.429.671S75.766,106.1,75.529,106.1Zm0-2.9c-.237,0-.429-.3-.429-.671s.192-.671.429-.671.429.3.429.671S75.766,103.2,75.529,103.2Zm0-2.9c-.237,0-.429-.3-.429-.671s.192-.671.429-.671.429.3.429.671S75.766,100.3,75.529,100.3Zm0-2.9c-.237,0-.429-.3-.429-.671s.192-.671.429-.671.429.3.429.671S75.766,97.4,75.529,97.4Zm0-2.9c-.237,0-.429-.3-.429-.671s.192-.671.429-.671.429.3.429.671S75.766,94.5,75.529,94.5Zm0-2.9c-.237,0-.429-.3-.429-.671s.192-.671.429-.671.429.3.429.671S75.766,91.6,75.529,91.6Zm0-2.9c-.237,0-.429-.3-.429-.671s.192-.671.429-.671.429.3.429.671S75.766,88.7,75.529,88.7Zm0-2.9c-.237,0-.429-.3-.429-.671s.192-.671.429-.671.429.3.429.671S75.766,85.8,75.529,85.8Zm0-2.9c-.237,0-.429-.3-.429-.671s.192-.671.429-.671.429.3.429.671S75.766,82.9,75.529,82.9Zm0-2.9c-.237,0-.429-.3-.429-.671s.192-.671.429-.671.429.3.429.671S75.766,80,75.529,80Zm0-2.9c-.237,0-.429-.3-.429-.671s.192-.671.429-.671.429.3.429.671S75.766,77.1,75.529,77.1Zm0-2.9c-.237,0-.429-.3-.429-.671s.192-.671.429-.671.429.3.429.671S75.766,74.2,75.529,74.2Zm0-2.9c-.237,0-.429-.3-.429-.671s.192-.671.429-.671.429.3.429.671S75.766,71.3,75.529,71.3Zm0-2.9c-.237,0-.429-.3-.429-.671s.192-.671.429-.671.429.3.429.671S75.766,68.4,75.529,68.4Zm0-2.9c-.237,0-.429-.3-.429-.671s.192-.671.429-.671.429.3.429.671S75.766,65.5,75.529,65.5Zm0-2.9c-.237,0-.429-.3-.429-.671s.192-.671.429-.671.429.3.429.671S75.766,62.6,75.529,62.6Zm0-2.9c-.237,0-.429-.3-.429-.671s.192-.671.429-.671.429.3.429.671S75.766,59.7,75.529,59.7Zm0-2.9c-.237,0-.429-.3-.429-.671s.192-.671.429-.671.429.3.429.671S75.766,56.8,75.529,56.8Zm0-2.9c-.237,0-.429-.3-.429-.671s.192-.671.429-.671.429.3.429.671S75.766,53.9,75.529,53.9Zm0-2.9c-.237,0-.429-.3-.429-.671s.192-.671.429-.671.429.3.429.671S75.766,51,75.529,51Zm0-2.9c-.237,0-.429-.3-.429-.671s.192-.671.429-.671.429.3.429.671S75.766,48.1,75.529,48.1Zm0-2.9c-.237,0-.429-.3-.429-.671s.192-.671.429-.671.429.3.429.671S75.766,45.2,75.529,45.2Zm0-2.9c-.237,0-.429-.3-.429-.671s.192-.671.429-.671.429.3.429.671S75.766,42.3,75.529,42.3Zm0-2.9c-.237,0-.429-.3-.429-.671s.192-.671.429-.671.429.3.429.671S75.766,39.4,75.529,39.4Zm1.852,92.8c-.237,0-.429-.3-.429-.671s.192-.671.429-.671.429.3.429.671S77.618,132.2,77.381,132.2Zm0-2.9c-.237,0-.429-.3-.429-.671s.192-.671.429-.671.429.3.429.671S77.618,129.3,77.381,129.3Zm0-2.9c-.237,0-.429-.3-.429-.671s.192-.671.429-.671.429.3.429.671S77.618,126.4,77.381,126.4Zm0-2.9c-.237,0-.429-.3-.429-.671s.192-.671.429-.671.429.3.429.671S77.618,123.5,77.381,123.5Zm0-2.9c-.237,0-.429-.3-.429-.671s.192-.671.429-.671.429.3.429.671S77.618,120.6,77.381,120.6Zm0-2.9c-.237,0-.429-.3-.429-.671s.192-.671.429-.671.429.3.429.671S77.618,117.7,77.381,117.7Zm0-2.9c-.237,0-.429-.3-.429-.671s.192-.671.429-.671.429.3.429.671S77.618,114.8,77.381,114.8Zm0-2.9c-.237,0-.429-.3-.429-.671s.192-.671.429-.671.429.3.429.671S77.618,111.9,77.381,111.9Zm0-2.9c-.237,0-.429-.3-.429-.671s.192-.671.429-.671.429.3.429.671S77.618,109,77.381,109Zm0-2.9c-.237,0-.429-.3-.429-.671s.192-.671.429-.671.429.3.429.671S77.618,106.1,77.381,106.1Zm0-2.9c-.237,0-.429-.3-.429-.671s.192-.671.429-.671.429.3.429.671S77.618,103.2,77.381,103.2Zm0-2.9c-.237,0-.429-.3-.429-.671s.192-.671.429-.671.429.3.429.671S77.618,100.3,77.381,100.3Zm0-2.9c-.237,0-.429-.3-.429-.671s.192-.671.429-.671.429.3.429.671S77.618,97.4,77.381,97.4Zm0-2.9c-.237,0-.429-.3-.429-.671s.192-.671.429-.671.429.3.429.671S77.618,94.5,77.381,94.5Zm0-2.9c-.237,0-.429-.3-.429-.671s.192-.671.429-.671.429.3.429.671S77.618,91.6,77.381,91.6Zm0-2.9c-.237,0-.429-.3-.429-.671s.192-.671.429-.671.429.3.429.671S77.618,88.7,77.381,88.7Zm0-2.9c-.237,0-.429-.3-.429-.671s.192-.671.429-.671.429.3.429.671S77.618,85.8,77.381,85.8Zm0-2.9c-.237,0-.429-.3-.429-.671s.192-.671.429-.671.429.3.429.671S77.618,82.9,77.381,82.9Zm0-2.9c-.237,0-.429-.3-.429-.671s.192-.671.429-.671.429.3.429.671S77.618,80,77.381,80Zm0-2.9c-.237,0-.429-.3-.429-.671s.192-.671.429-.671.429.3.429.671S77.618,77.1,77.381,77.1Zm0-2.9c-.237,0-.429-.3-.429-.671s.192-.671.429-.671.429.3.429.671S77.618,74.2,77.381,74.2Zm0-2.9c-.237,0-.429-.3-.429-.671s.192-.671.429-.671.429.3.429.671S77.618,71.3,77.381,71.3Zm0-2.9c-.237,0-.429-.3-.429-.671s.192-.671.429-.671.429.3.429.671S77.618,68.4,77.381,68.4Zm0-2.9c-.237,0-.429-.3-.429-.671s.192-.671.429-.671.429.3.429.671S77.618,65.5,77.381,65.5Zm0-2.9c-.237,0-.429-.3-.429-.671s.192-.671.429-.671.429.3.429.671S77.618,62.6,77.381,62.6Zm0-2.9c-.237,0-.429-.3-.429-.671s.192-.671.429-.671.429.3.429.671S77.618,59.7,77.381,59.7Zm0-2.9c-.237,0-.429-.3-.429-.671s.192-.671.429-.671.429.3.429.671S77.618,56.8,77.381,56.8Zm0-2.9c-.237,0-.429-.3-.429-.671s.192-.671.429-.671.429.3.429.671S77.618,53.9,77.381,53.9Zm0-2.9c-.237,0-.429-.3-.429-.671s.192-.671.429-.671.429.3.429.671S77.618,51,77.381,51Zm0-2.9c-.237,0-.429-.3-.429-.671s.192-.671.429-.671.429.3.429.671S77.618,48.1,77.381,48.1Zm0-2.9c-.237,0-.429-.3-.429-.671s.192-.671.429-.671.429.3.429.671S77.618,45.2,77.381,45.2Zm0-2.9c-.237,0-.429-.3-.429-.671s.192-.671.429-.671.429.3.429.671S77.618,42.3,77.381,42.3Zm1.852,89.9c-.237,0-.429-.3-.429-.671s.192-.671.429-.671.429.3.429.671S79.47,132.2,79.233,132.2Zm0-2.9c-.237,0-.429-.3-.429-.671s.192-.671.429-.671.429.3.429.671S79.47,129.3,79.233,129.3Zm0-2.9c-.237,0-.429-.3-.429-.671s.192-.671.429-.671.429.3.429.671S79.47,126.4,79.233,126.4Zm0-2.9c-.237,0-.429-.3-.429-.671s.192-.671.429-.671.429.3.429.671S79.47,123.5,79.233,123.5Zm0-2.9c-.237,0-.429-.3-.429-.671s.192-.671.429-.671.429.3.429.671S79.47,120.6,79.233,120.6Zm0-2.9c-.237,0-.429-.3-.429-.671s.192-.671.429-.671.429.3.429.671S79.47,117.7,79.233,117.7Zm0-2.9c-.237,0-.429-.3-.429-.671s.192-.671.429-.671.429.3.429.671S79.47,114.8,79.233,114.8Zm0-2.9c-.237,0-.429-.3-.429-.671s.192-.671.429-.671.429.3.429.671S79.47,111.9,79.233,111.9Zm0-2.9c-.237,0-.429-.3-.429-.671s.192-.671.429-.671.429.3.429.671S79.47,109,79.233,109Zm0-2.9c-.237,0-.429-.3-.429-.671s.192-.671.429-.671.429.3.429.671S79.47,106.1,79.233,106.1Zm0-2.9c-.237,0-.429-.3-.429-.671s.192-.671.429-.671.429.3.429.671S79.47,103.2,79.233,103.2Zm0-2.9c-.237,0-.429-.3-.429-.671s.192-.671.429-.671.429.3.429.671S79.47,100.3,79.233,100.3Zm0-2.9c-.237,0-.429-.3-.429-.671s.192-.671.429-.671.429.3.429.671S79.47,97.4,79.233,97.4Zm0-2.9c-.237,0-.429-.3-.429-.671s.192-.671.429-.671.429.3.429.671S79.47,94.5,79.233,94.5Zm0-2.9c-.237,0-.429-.3-.429-.671s.192-.671.429-.671.429.3.429.671S79.47,91.6,79.233,91.6Zm0-2.9c-.237,0-.429-.3-.429-.671s.192-.671.429-.671.429.3.429.671S79.47,88.7,79.233,88.7Zm0-2.9c-.237,0-.429-.3-.429-.671s.192-.671.429-.671.429.3.429.671S79.47,85.8,79.233,85.8Zm0-2.9c-.237,0-.429-.3-.429-.671s.192-.671.429-.671.429.3.429.671S79.47,82.9,79.233,82.9Zm0-2.9c-.237,0-.429-.3-.429-.671s.192-.671.429-.671.429.3.429.671S79.47,80,79.233,80Zm0-2.9c-.237,0-.429-.3-.429-.671s.192-.671.429-.671.429.3.429.671S79.47,77.1,79.233,77.1Zm0-2.9c-.237,0-.429-.3-.429-.671s.192-.671.429-.671.429.3.429.671S79.47,74.2,79.233,74.2Zm0-2.9c-.237,0-.429-.3-.429-.671s.192-.671.429-.671.429.3.429.671S79.47,71.3,79.233,71.3Zm0-2.9c-.237,0-.429-.3-.429-.671s.192-.671.429-.671.429.3.429.671S79.47,68.4,79.233,68.4Zm0-2.9c-.237,0-.429-.3-.429-.671s.192-.671.429-.671.429.3.429.671S79.47,65.5,79.233,65.5Zm0-2.9c-.237,0-.429-.3-.429-.671s.192-.671.429-.671.429.3.429.671S79.47,62.6,79.233,62.6Zm0-2.9c-.237,0-.429-.3-.429-.671s.192-.671.429-.671.429.3.429.671S79.47,59.7,79.233,59.7Zm0-2.9c-.237,0-.429-.3-.429-.671s.192-.671.429-.671.429.3.429.671S79.47,56.8,79.233,56.8Zm0-2.9c-.237,0-.429-.3-.429-.671s.192-.671.429-.671.429.3.429.671S79.47,53.9,79.233,53.9Zm0-2.9c-.237,0-.429-.3-.429-.671s.192-.671.429-.671.429.3.429.671S79.47,51,79.233,51Zm0-2.9c-.237,0-.429-.3-.429-.671s.192-.671.429-.671.429.3.429.671S79.47,48.1,79.233,48.1Zm0-2.9c-.237,0-.429-.3-.429-.671s.192-.671.429-.671.429.3.429.671S79.47,45.2,79.233,45.2Zm0-2.9c-.237,0-.429-.3-.429-.671s.192-.671.429-.671.429.3.429.671S79.47,42.3,79.233,42.3Zm1.852,89.9c-.237,0-.429-.3-.429-.671s.192-.671.429-.671.429.3.429.671S81.322,132.2,81.086,132.2Zm0-2.9c-.237,0-.429-.3-.429-.671s.192-.671.429-.671.429.3.429.671S81.322,129.3,81.086,129.3Zm0-2.9c-.237,0-.429-.3-.429-.671s.192-.671.429-.671.429.3.429.671S81.322,126.4,81.086,126.4Zm0-2.9c-.237,0-.429-.3-.429-.671s.192-.671.429-.671.429.3.429.671S81.322,123.5,81.086,123.5Zm0-2.9c-.237,0-.429-.3-.429-.671s.192-.671.429-.671.429.3.429.671S81.322,120.6,81.086,120.6Zm0-2.9c-.237,0-.429-.3-.429-.671s.192-.671.429-.671.429.3.429.671S81.322,117.7,81.086,117.7Zm0-2.9c-.237,0-.429-.3-.429-.671s.192-.671.429-.671.429.3.429.671S81.322,114.8,81.086,114.8Zm0-2.9c-.237,0-.429-.3-.429-.671s.192-.671.429-.671.429.3.429.671S81.322,111.9,81.086,111.9Zm0-2.9c-.237,0-.429-.3-.429-.671s.192-.671.429-.671.429.3.429.671S81.322,109,81.086,109Zm0-2.9c-.237,0-.429-.3-.429-.671s.192-.671.429-.671.429.3.429.671S81.322,106.1,81.086,106.1Zm0-2.9c-.237,0-.429-.3-.429-.671s.192-.671.429-.671.429.3.429.671S81.322,103.2,81.086,103.2Zm0-2.9c-.237,0-.429-.3-.429-.671s.192-.671.429-.671.429.3.429.671S81.322,100.3,81.086,100.3Zm0-2.9c-.237,0-.429-.3-.429-.671s.192-.671.429-.671.429.3.429.671S81.322,97.4,81.086,97.4Zm0-2.9c-.237,0-.429-.3-.429-.671s.192-.671.429-.671.429.3.429.671S81.322,94.5,81.086,94.5Zm0-2.9c-.237,0-.429-.3-.429-.671s.192-.671.429-.671.429.3.429.671S81.322,91.6,81.086,91.6Zm0-2.9c-.237,0-.429-.3-.429-.671s.192-.671.429-.671.429.3.429.671S81.322,88.7,81.086,88.7Zm0-2.9c-.237,0-.429-.3-.429-.671s.192-.671.429-.671.429.3.429.671S81.322,85.8,81.086,85.8Zm0-2.9c-.237,0-.429-.3-.429-.671s.192-.671.429-.671.429.3.429.671S81.322,82.9,81.086,82.9Zm0-2.9c-.237,0-.429-.3-.429-.671s.192-.671.429-.671.429.3.429.671S81.322,80,81.086,80Zm0-2.9c-.237,0-.429-.3-.429-.671s.192-.671.429-.671.429.3.429.671S81.322,77.1,81.086,77.1Zm0-2.9c-.237,0-.429-.3-.429-.671s.192-.671.429-.671.429.3.429.671S81.322,74.2,81.086,74.2Zm0-2.9c-.237,0-.429-.3-.429-.671s.192-.671.429-.671.429.3.429.671S81.322,71.3,81.086,71.3Zm0-2.9c-.237,0-.429-.3-.429-.671s.192-.671.429-.671.429.3.429.671S81.322,68.4,81.086,68.4Zm0-2.9c-.237,0-.429-.3-.429-.671s.192-.671.429-.671.429.3.429.671S81.322,65.5,81.086,65.5Zm0-2.9c-.237,0-.429-.3-.429-.671s.192-.671.429-.671.429.3.429.671S81.322,62.6,81.086,62.6Zm0-2.9c-.237,0-.429-.3-.429-.671s.192-.671.429-.671.429.3.429.671S81.322,59.7,81.086,59.7Zm0-2.9c-.237,0-.429-.3-.429-.671s.192-.671.429-.671.429.3.429.671S81.322,56.8,81.086,56.8Zm0-2.9c-.237,0-.429-.3-.429-.671s.192-.671.429-.671.429.3.429.671S81.322,53.9,81.086,53.9Zm0-2.9c-.237,0-.429-.3-.429-.671s.192-.671.429-.671.429.3.429.671S81.322,51,81.086,51Zm0-2.9c-.237,0-.429-.3-.429-.671s.192-.671.429-.671.429.3.429.671S81.322,48.1,81.086,48.1Zm0-2.9c-.237,0-.429-.3-.429-.671s.192-.671.429-.671.429.3.429.671S81.322,45.2,81.086,45.2Zm0-2.9c-.237,0-.429-.3-.429-.671s.192-.671.429-.671.429.3.429.671S81.322,42.3,81.086,42.3Zm1.852,87c-.237,0-.429-.3-.429-.671s.192-.671.429-.671.429.3.429.671S83.175,129.3,82.938,129.3Zm0-2.9c-.237,0-.429-.3-.429-.671s.192-.671.429-.671.429.3.429.671S83.175,126.4,82.938,126.4Zm0-2.9c-.237,0-.429-.3-.429-.671s.192-.671.429-.671.429.3.429.671S83.175,123.5,82.938,123.5Zm0-2.9c-.237,0-.429-.3-.429-.671s.192-.671.429-.671.429.3.429.671S83.175,120.6,82.938,120.6Zm0-2.9c-.237,0-.429-.3-.429-.671s.192-.671.429-.671.429.3.429.671S83.175,117.7,82.938,117.7Zm0-2.9c-.237,0-.429-.3-.429-.671s.192-.671.429-.671.429.3.429.671S83.175,114.8,82.938,114.8Zm0-2.9c-.237,0-.429-.3-.429-.671s.192-.671.429-.671.429.3.429.671S83.175,111.9,82.938,111.9Zm0-2.9c-.237,0-.429-.3-.429-.671s.192-.671.429-.671.429.3.429.671S83.175,109,82.938,109Zm0-2.9c-.237,0-.429-.3-.429-.671s.192-.671.429-.671.429.3.429.671S83.175,106.1,82.938,106.1Zm0-2.9c-.237,0-.429-.3-.429-.671s.192-.671.429-.671.429.3.429.671S83.175,103.2,82.938,103.2Zm0-2.9c-.237,0-.429-.3-.429-.671s.192-.671.429-.671.429.3.429.671S83.175,100.3,82.938,100.3Zm0-2.9c-.237,0-.429-.3-.429-.671s.192-.671.429-.671.429.3.429.671S83.175,97.4,82.938,97.4Zm0-2.9c-.237,0-.429-.3-.429-.671s.192-.671.429-.671.429.3.429.671S83.175,94.5,82.938,94.5Zm0-2.9c-.237,0-.429-.3-.429-.671s.192-.671.429-.671.429.3.429.671S83.175,91.6,82.938,91.6Zm0-2.9c-.237,0-.429-.3-.429-.671s.192-.671.429-.671.429.3.429.671S83.175,88.7,82.938,88.7Zm0-2.9c-.237,0-.429-.3-.429-.671s.192-.671.429-.671.429.3.429.671S83.175,85.8,82.938,85.8Zm0-2.9c-.237,0-.429-.3-.429-.671s.192-.671.429-.671.429.3.429.671S83.175,82.9,82.938,82.9Zm0-2.9c-.237,0-.429-.3-.429-.671s.192-.671.429-.671.429.3.429.671S83.175,80,82.938,80Zm0-2.9c-.237,0-.429-.3-.429-.671s.192-.671.429-.671.429.3.429.671S83.175,77.1,82.938,77.1Zm0-2.9c-.237,0-.429-.3-.429-.671s.192-.671.429-.671.429.3.429.671S83.175,74.2,82.938,74.2Zm0-2.9c-.237,0-.429-.3-.429-.671s.192-.671.429-.671.429.3.429.671S83.175,71.3,82.938,71.3Zm0-2.9c-.237,0-.429-.3-.429-.671s.192-.671.429-.671.429.3.429.671S83.175,68.4,82.938,68.4Zm0-2.9c-.237,0-.429-.3-.429-.671s.192-.671.429-.671.429.3.429.671S83.175,65.5,82.938,65.5Zm0-2.9c-.237,0-.429-.3-.429-.671s.192-.671.429-.671.429.3.429.671S83.175,62.6,82.938,62.6Zm0-2.9c-.237,0-.429-.3-.429-.671s.192-.671.429-.671.429.3.429.671S83.175,59.7,82.938,59.7Zm0-2.9c-.237,0-.429-.3-.429-.671s.192-.671.429-.671.429.3.429.671S83.175,56.8,82.938,56.8Zm0-2.9c-.237,0-.429-.3-.429-.671s.192-.671.429-.671.429.3.429.671S83.175,53.9,82.938,53.9Zm0-2.9c-.237,0-.429-.3-.429-.671s.192-.671.429-.671.429.3.429.671S83.175,51,82.938,51Zm0-2.9c-.237,0-.429-.3-.429-.671s.192-.671.429-.671.429.3.429.671S83.175,48.1,82.938,48.1Zm0-2.9c-.237,0-.429-.3-.429-.671s.192-.671.429-.671.429.3.429.671S83.175,45.2,82.938,45.2Zm1.852,84.1c-.237,0-.429-.3-.429-.671s.192-.671.429-.671.429.3.429.671S85.027,129.3,84.79,129.3Zm0-2.9c-.237,0-.429-.3-.429-.671s.192-.671.429-.671.429.3.429.671S85.027,126.4,84.79,126.4Zm0-2.9c-.237,0-.429-.3-.429-.671s.192-.671.429-.671.429.3.429.671S85.027,123.5,84.79,123.5Zm0-2.9c-.237,0-.429-.3-.429-.671s.192-.671.429-.671.429.3.429.671S85.027,120.6,84.79,120.6Zm0-2.9c-.237,0-.429-.3-.429-.671s.192-.671.429-.671.429.3.429.671S85.027,117.7,84.79,117.7Zm0-2.9c-.237,0-.429-.3-.429-.671s.192-.671.429-.671.429.3.429.671S85.027,114.8,84.79,114.8Zm0-2.9c-.237,0-.429-.3-.429-.671s.192-.671.429-.671.429.3.429.671S85.027,111.9,84.79,111.9Zm0-2.9c-.237,0-.429-.3-.429-.671s.192-.671.429-.671.429.3.429.671S85.027,109,84.79,109Zm0-2.9c-.237,0-.429-.3-.429-.671s.192-.671.429-.671.429.3.429.671S85.027,106.1,84.79,106.1Zm0-2.9c-.237,0-.429-.3-.429-.671s.192-.671.429-.671.429.3.429.671S85.027,103.2,84.79,103.2Zm0-2.9c-.237,0-.429-.3-.429-.671s.192-.671.429-.671.429.3.429.671S85.027,100.3,84.79,100.3Zm0-2.9c-.237,0-.429-.3-.429-.671s.192-.671.429-.671.429.3.429.671S85.027,97.4,84.79,97.4Zm0-2.9c-.237,0-.429-.3-.429-.671s.192-.671.429-.671.429.3.429.671S85.027,94.5,84.79,94.5Zm0-2.9c-.237,0-.429-.3-.429-.671s.192-.671.429-.671.429.3.429.671S85.027,91.6,84.79,91.6Zm0-2.9c-.237,0-.429-.3-.429-.671s.192-.671.429-.671.429.3.429.671S85.027,88.7,84.79,88.7Zm0-2.9c-.237,0-.429-.3-.429-.671s.192-.671.429-.671.429.3.429.671S85.027,85.8,84.79,85.8Zm0-2.9c-.237,0-.429-.3-.429-.671s.192-.671.429-.671.429.3.429.671S85.027,82.9,84.79,82.9Zm0-2.9c-.237,0-.429-.3-.429-.671s.192-.671.429-.671.429.3.429.671S85.027,80,84.79,80Zm0-2.9c-.237,0-.429-.3-.429-.671s.192-.671.429-.671.429.3.429.671S85.027,77.1,84.79,77.1Zm0-2.9c-.237,0-.429-.3-.429-.671s.192-.671.429-.671.429.3.429.671S85.027,74.2,84.79,74.2Zm0-2.9c-.237,0-.429-.3-.429-.671s.192-.671.429-.671.429.3.429.671S85.027,71.3,84.79,71.3Zm0-2.9c-.237,0-.429-.3-.429-.671s.192-.671.429-.671.429.3.429.671S85.027,68.4,84.79,68.4Zm0-2.9c-.237,0-.429-.3-.429-.671s.192-.671.429-.671.429.3.429.671S85.027,65.5,84.79,65.5Zm0-2.9c-.237,0-.429-.3-.429-.671s.192-.671.429-.671.429.3.429.671S85.027,62.6,84.79,62.6Zm0-2.9c-.237,0-.429-.3-.429-.671s.192-.671.429-.671.429.3.429.671S85.027,59.7,84.79,59.7Zm0-2.9c-.237,0-.429-.3-.429-.671s.192-.671.429-.671.429.3.429.671S85.027,56.8,84.79,56.8Zm0-2.9c-.237,0-.429-.3-.429-.671s.192-.671.429-.671.429.3.429.671S85.027,53.9,84.79,53.9Zm0-2.9c-.237,0-.429-.3-.429-.671s.192-.671.429-.671.429.3.429.671S85.027,51,84.79,51Zm0-2.9c-.237,0-.429-.3-.429-.671s.192-.671.429-.671.429.3.429.671S85.027,48.1,84.79,48.1Zm0-2.9c-.237,0-.429-.3-.429-.671s.192-.671.429-.671.429.3.429.671S85.027,45.2,84.79,45.2Zm1.852,81.2c-.237,0-.429-.3-.429-.671s.192-.671.429-.671.429.3.429.671S86.879,126.4,86.642,126.4Zm0-2.9c-.237,0-.429-.3-.429-.671s.192-.671.429-.671.429.3.429.671S86.879,123.5,86.642,123.5Zm0-2.9c-.237,0-.429-.3-.429-.671s.192-.671.429-.671.429.3.429.671S86.879,120.6,86.642,120.6Zm0-2.9c-.237,0-.429-.3-.429-.671s.192-.671.429-.671.429.3.429.671S86.879,117.7,86.642,117.7Zm0-2.9c-.237,0-.429-.3-.429-.671s.192-.671.429-.671.429.3.429.671S86.879,114.8,86.642,114.8Zm0-2.9c-.237,0-.429-.3-.429-.671s.192-.671.429-.671.429.3.429.671S86.879,111.9,86.642,111.9Zm0-2.9c-.237,0-.429-.3-.429-.671s.192-.671.429-.671.429.3.429.671S86.879,109,86.642,109Zm0-2.9c-.237,0-.429-.3-.429-.671s.192-.671.429-.671.429.3.429.671S86.879,106.1,86.642,106.1Zm0-2.9c-.237,0-.429-.3-.429-.671s.192-.671.429-.671.429.3.429.671S86.879,103.2,86.642,103.2Zm0-2.9c-.237,0-.429-.3-.429-.671s.192-.671.429-.671.429.3.429.671S86.879,100.3,86.642,100.3Zm0-2.9c-.237,0-.429-.3-.429-.671s.192-.671.429-.671.429.3.429.671S86.879,97.4,86.642,97.4Zm0-2.9c-.237,0-.429-.3-.429-.671s.192-.671.429-.671.429.3.429.671S86.879,94.5,86.642,94.5Zm0-2.9c-.237,0-.429-.3-.429-.671s.192-.671.429-.671.429.3.429.671S86.879,91.6,86.642,91.6Zm0-2.9c-.237,0-.429-.3-.429-.671s.192-.671.429-.671.429.3.429.671S86.879,88.7,86.642,88.7Zm0-2.9c-.237,0-.429-.3-.429-.671s.192-.671.429-.671.429.3.429.671S86.879,85.8,86.642,85.8Zm0-2.9c-.237,0-.429-.3-.429-.671s.192-.671.429-.671.429.3.429.671S86.879,82.9,86.642,82.9Zm0-2.9c-.237,0-.429-.3-.429-.671s.192-.671.429-.671.429.3.429.671S86.879,80,86.642,80Zm0-2.9c-.237,0-.429-.3-.429-.671s.192-.671.429-.671.429.3.429.671S86.879,77.1,86.642,77.1Zm0-2.9c-.237,0-.429-.3-.429-.671s.192-.671.429-.671.429.3.429.671S86.879,74.2,86.642,74.2Zm0-2.9c-.237,0-.429-.3-.429-.671s.192-.671.429-.671.429.3.429.671S86.879,71.3,86.642,71.3Zm0-2.9c-.237,0-.429-.3-.429-.671s.192-.671.429-.671.429.3.429.671S86.879,68.4,86.642,68.4Zm0-2.9c-.237,0-.429-.3-.429-.671s.192-.671.429-.671.429.3.429.671S86.879,65.5,86.642,65.5Zm0-2.9c-.237,0-.429-.3-.429-.671s.192-.671.429-.671.429.3.429.671S86.879,62.6,86.642,62.6Zm0-2.9c-.237,0-.429-.3-.429-.671s.192-.671.429-.671.429.3.429.671S86.879,59.7,86.642,59.7Zm0-2.9c-.237,0-.429-.3-.429-.671s.192-.671.429-.671.429.3.429.671S86.879,56.8,86.642,56.8Zm0-2.9c-.237,0-.429-.3-.429-.671s.192-.671.429-.671.429.3.429.671S86.879,53.9,86.642,53.9Zm0-2.9c-.237,0-.429-.3-.429-.671s.192-.671.429-.671.429.3.429.671S86.879,51,86.642,51Zm0-2.9c-.237,0-.429-.3-.429-.671s.192-.671.429-.671.429.3.429.671S86.879,48.1,86.642,48.1Zm1.852,75.4c-.237,0-.429-.3-.429-.671s.192-.671.429-.671.429.3.429.671S88.731,123.5,88.494,123.5Zm0-2.9c-.237,0-.429-.3-.429-.671s.192-.671.429-.671.429.3.429.671S88.731,120.6,88.494,120.6Zm0-2.9c-.237,0-.429-.3-.429-.671s.192-.671.429-.671.429.3.429.671S88.731,117.7,88.494,117.7Zm0-2.9c-.237,0-.429-.3-.429-.671s.192-.671.429-.671.429.3.429.671S88.731,114.8,88.494,114.8Zm0-2.9c-.237,0-.429-.3-.429-.671s.192-.671.429-.671.429.3.429.671S88.731,111.9,88.494,111.9Zm0-2.9c-.237,0-.429-.3-.429-.671s.192-.671.429-.671.429.3.429.671S88.731,109,88.494,109Zm0-2.9c-.237,0-.429-.3-.429-.671s.192-.671.429-.671.429.3.429.671S88.731,106.1,88.494,106.1Zm0-2.9c-.237,0-.429-.3-.429-.671s.192-.671.429-.671.429.3.429.671S88.731,103.2,88.494,103.2Zm0-2.9c-.237,0-.429-.3-.429-.671s.192-.671.429-.671.429.3.429.671S88.731,100.3,88.494,100.3Zm0-2.9c-.237,0-.429-.3-.429-.671s.192-.671.429-.671.429.3.429.671S88.731,97.4,88.494,97.4Zm0-2.9c-.237,0-.429-.3-.429-.671s.192-.671.429-.671.429.3.429.671S88.731,94.5,88.494,94.5Zm0-2.9c-.237,0-.429-.3-.429-.671s.192-.671.429-.671.429.3.429.671S88.731,91.6,88.494,91.6Zm0-2.9c-.237,0-.429-.3-.429-.671s.192-.671.429-.671.429.3.429.671S88.731,88.7,88.494,88.7Zm0-2.9c-.237,0-.429-.3-.429-.671s.192-.671.429-.671.429.3.429.671S88.731,85.8,88.494,85.8Zm0-2.9c-.237,0-.429-.3-.429-.671s.192-.671.429-.671.429.3.429.671S88.731,82.9,88.494,82.9Zm0-2.9c-.237,0-.429-.3-.429-.671s.192-.671.429-.671.429.3.429.671S88.731,80,88.494,80Zm0-2.9c-.237,0-.429-.3-.429-.671s.192-.671.429-.671.429.3.429.671S88.731,77.1,88.494,77.1Zm0-2.9c-.237,0-.429-.3-.429-.671s.192-.671.429-.671.429.3.429.671S88.731,74.2,88.494,74.2Zm0-2.9c-.237,0-.429-.3-.429-.671s.192-.671.429-.671.429.3.429.671S88.731,71.3,88.494,71.3Zm0-2.9c-.237,0-.429-.3-.429-.671s.192-.671.429-.671.429.3.429.671S88.731,68.4,88.494,68.4Zm0-2.9c-.237,0-.429-.3-.429-.671s.192-.671.429-.671.429.3.429.671S88.731,65.5,88.494,65.5Zm0-2.9c-.237,0-.429-.3-.429-.671s.192-.671.429-.671.429.3.429.671S88.731,62.6,88.494,62.6Zm0-2.9c-.237,0-.429-.3-.429-.671s.192-.671.429-.671.429.3.429.671S88.731,59.7,88.494,59.7Zm0-2.9c-.237,0-.429-.3-.429-.671s.192-.671.429-.671.429.3.429.671S88.731,56.8,88.494,56.8Zm0-2.9c-.237,0-.429-.3-.429-.671s.192-.671.429-.671.429.3.429.671S88.731,53.9,88.494,53.9Zm0-2.9c-.237,0-.429-.3-.429-.671s.192-.671.429-.671.429.3.429.671S88.731,51,88.494,51Zm1.852,72.5c-.237,0-.429-.3-.429-.671s.192-.671.429-.671.429.3.429.671S90.583,123.5,90.347,123.5Zm0-2.9c-.237,0-.429-.3-.429-.671s.192-.671.429-.671.429.3.429.671S90.583,120.6,90.347,120.6Zm0-2.9c-.237,0-.429-.3-.429-.671s.192-.671.429-.671.429.3.429.671S90.583,117.7,90.347,117.7Zm0-2.9c-.237,0-.429-.3-.429-.671s.192-.671.429-.671.429.3.429.671S90.583,114.8,90.347,114.8Zm0-2.9c-.237,0-.429-.3-.429-.671s.192-.671.429-.671.429.3.429.671S90.583,111.9,90.347,111.9Zm0-2.9c-.237,0-.429-.3-.429-.671s.192-.671.429-.671.429.3.429.671S90.583,109,90.347,109Zm0-2.9c-.237,0-.429-.3-.429-.671s.192-.671.429-.671.429.3.429.671S90.583,106.1,90.347,106.1Zm0-2.9c-.237,0-.429-.3-.429-.671s.192-.671.429-.671.429.3.429.671S90.583,103.2,90.347,103.2Zm0-2.9c-.237,0-.429-.3-.429-.671s.192-.671.429-.671.429.3.429.671S90.583,100.3,90.347,100.3Zm0-2.9c-.237,0-.429-.3-.429-.671s.192-.671.429-.671.429.3.429.671S90.583,97.4,90.347,97.4Zm0-2.9c-.237,0-.429-.3-.429-.671s.192-.671.429-.671.429.3.429.671S90.583,94.5,90.347,94.5Zm0-2.9c-.237,0-.429-.3-.429-.671s.192-.671.429-.671.429.3.429.671S90.583,91.6,90.347,91.6Zm0-2.9c-.237,0-.429-.3-.429-.671s.192-.671.429-.671.429.3.429.671S90.583,88.7,90.347,88.7Zm0-2.9c-.237,0-.429-.3-.429-.671s.192-.671.429-.671.429.3.429.671S90.583,85.8,90.347,85.8Zm0-2.9c-.237,0-.429-.3-.429-.671s.192-.671.429-.671.429.3.429.671S90.583,82.9,90.347,82.9Zm0-2.9c-.237,0-.429-.3-.429-.671s.192-.671.429-.671.429.3.429.671S90.583,80,90.347,80Zm0-2.9c-.237,0-.429-.3-.429-.671s.192-.671.429-.671.429.3.429.671S90.583,77.1,90.347,77.1Zm0-2.9c-.237,0-.429-.3-.429-.671s.192-.671.429-.671.429.3.429.671S90.583,74.2,90.347,74.2Zm0-2.9c-.237,0-.429-.3-.429-.671s.192-.671.429-.671.429.3.429.671S90.583,71.3,90.347,71.3Zm0-2.9c-.237,0-.429-.3-.429-.671s.192-.671.429-.671.429.3.429.671S90.583,68.4,90.347,68.4Zm0-2.9c-.237,0-.429-.3-.429-.671s.192-.671.429-.671.429.3.429.671S90.583,65.5,90.347,65.5Zm0-2.9c-.237,0-.429-.3-.429-.671s.192-.671.429-.671.429.3.429.671S90.583,62.6,90.347,62.6Zm0-2.9c-.237,0-.429-.3-.429-.671s.192-.671.429-.671.429.3.429.671S90.583,59.7,90.347,59.7Zm0-2.9c-.237,0-.429-.3-.429-.671s.192-.671.429-.671.429.3.429.671S90.583,56.8,90.347,56.8Zm0-2.9c-.237,0-.429-.3-.429-.671s.192-.671.429-.671.429.3.429.671S90.583,53.9,90.347,53.9Zm0-2.9c-.237,0-.429-.3-.429-.671s.192-.671.429-.671.429.3.429.671S90.583,51,90.347,51ZM92.2,120.6c-.237,0-.429-.3-.429-.671s.192-.671.429-.671.429.3.429.671S92.436,120.6,92.2,120.6Zm0-2.9c-.237,0-.429-.3-.429-.671s.192-.671.429-.671.429.3.429.671S92.436,117.7,92.2,117.7Zm0-2.9c-.237,0-.429-.3-.429-.671s.192-.671.429-.671.429.3.429.671S92.436,114.8,92.2,114.8Zm0-2.9c-.237,0-.429-.3-.429-.671s.192-.671.429-.671.429.3.429.671S92.436,111.9,92.2,111.9Zm0-2.9c-.237,0-.429-.3-.429-.671s.192-.671.429-.671.429.3.429.671S92.436,109,92.2,109Zm0-2.9c-.237,0-.429-.3-.429-.671s.192-.671.429-.671.429.3.429.671S92.436,106.1,92.2,106.1Zm0-2.9c-.237,0-.429-.3-.429-.671s.192-.671.429-.671.429.3.429.671S92.436,103.2,92.2,103.2Zm0-2.9c-.237,0-.429-.3-.429-.671s.192-.671.429-.671.429.3.429.671S92.436,100.3,92.2,100.3Zm0-2.9c-.237,0-.429-.3-.429-.671s.192-.671.429-.671.429.3.429.671S92.436,97.4,92.2,97.4Zm0-2.9c-.237,0-.429-.3-.429-.671s.192-.671.429-.671.429.3.429.671S92.436,94.5,92.2,94.5Zm0-2.9c-.237,0-.429-.3-.429-.671s.192-.671.429-.671.429.3.429.671S92.436,91.6,92.2,91.6Zm0-2.9c-.237,0-.429-.3-.429-.671s.192-.671.429-.671.429.3.429.671S92.436,88.7,92.2,88.7Zm0-2.9c-.237,0-.429-.3-.429-.671s.192-.671.429-.671.429.3.429.671S92.436,85.8,92.2,85.8Zm0-2.9c-.237,0-.429-.3-.429-.671s.192-.671.429-.671.429.3.429.671S92.436,82.9,92.2,82.9Zm0-2.9c-.237,0-.429-.3-.429-.671s.192-.671.429-.671.429.3.429.671S92.436,80,92.2,80Zm0-2.9c-.237,0-.429-.3-.429-.671s.192-.671.429-.671.429.3.429.671S92.436,77.1,92.2,77.1Zm0-2.9c-.237,0-.429-.3-.429-.671s.192-.671.429-.671.429.3.429.671S92.436,74.2,92.2,74.2Zm0-2.9c-.237,0-.429-.3-.429-.671s.192-.671.429-.671.429.3.429.671S92.436,71.3,92.2,71.3Zm0-2.9c-.237,0-.429-.3-.429-.671s.192-.671.429-.671.429.3.429.671S92.436,68.4,92.2,68.4Zm0-2.9c-.237,0-.429-.3-.429-.671s.192-.671.429-.671.429.3.429.671S92.436,65.5,92.2,65.5Zm0-2.9c-.237,0-.429-.3-.429-.671s.192-.671.429-.671.429.3.429.671S92.436,62.6,92.2,62.6Zm0-2.9c-.237,0-.429-.3-.429-.671s.192-.671.429-.671.429.3.429.671S92.436,59.7,92.2,59.7Zm0-2.9c-.237,0-.429-.3-.429-.671s.192-.671.429-.671.429.3.429.671S92.436,56.8,92.2,56.8Zm0-2.9c-.237,0-.429-.3-.429-.671s.192-.671.429-.671.429.3.429.671S92.436,53.9,92.2,53.9Zm1.852,60.9c-.237,0-.429-.3-.429-.671s.192-.671.429-.671.429.3.429.671S94.288,114.8,94.051,114.8Zm0-2.9c-.237,0-.429-.3-.429-.671s.192-.671.429-.671.429.3.429.671S94.288,111.9,94.051,111.9Zm0-2.9c-.237,0-.429-.3-.429-.671s.192-.671.429-.671.429.3.429.671S94.288,109,94.051,109Zm0-2.9c-.237,0-.429-.3-.429-.671s.192-.671.429-.671.429.3.429.671S94.288,106.1,94.051,106.1Zm0-2.9c-.237,0-.429-.3-.429-.671s.192-.671.429-.671.429.3.429.671S94.288,103.2,94.051,103.2Zm0-2.9c-.237,0-.429-.3-.429-.671s.192-.671.429-.671.429.3.429.671S94.288,100.3,94.051,100.3Zm0-2.9c-.237,0-.429-.3-.429-.671s.192-.671.429-.671.429.3.429.671S94.288,97.4,94.051,97.4Zm0-2.9c-.237,0-.429-.3-.429-.671s.192-.671.429-.671.429.3.429.671S94.288,94.5,94.051,94.5Zm0-2.9c-.237,0-.429-.3-.429-.671s.192-.671.429-.671.429.3.429.671S94.288,91.6,94.051,91.6Zm0-2.9c-.237,0-.429-.3-.429-.671s.192-.671.429-.671.429.3.429.671S94.288,88.7,94.051,88.7Zm0-2.9c-.237,0-.429-.3-.429-.671s.192-.671.429-.671.429.3.429.671S94.288,85.8,94.051,85.8Zm0-2.9c-.237,0-.429-.3-.429-.671s.192-.671.429-.671.429.3.429.671S94.288,82.9,94.051,82.9Zm0-2.9c-.237,0-.429-.3-.429-.671s.192-.671.429-.671.429.3.429.671S94.288,80,94.051,80Zm0-2.9c-.237,0-.429-.3-.429-.671s.192-.671.429-.671.429.3.429.671S94.288,77.1,94.051,77.1Zm0-2.9c-.237,0-.429-.3-.429-.671s.192-.671.429-.671.429.3.429.671S94.288,74.2,94.051,74.2Zm0-2.9c-.237,0-.429-.3-.429-.671s.192-.671.429-.671.429.3.429.671S94.288,71.3,94.051,71.3Zm0-2.9c-.237,0-.429-.3-.429-.671s.192-.671.429-.671.429.3.429.671S94.288,68.4,94.051,68.4Zm0-2.9c-.237,0-.429-.3-.429-.671s.192-.671.429-.671.429.3.429.671S94.288,65.5,94.051,65.5Zm0-2.9c-.237,0-.429-.3-.429-.671s.192-.671.429-.671.429.3.429.671S94.288,62.6,94.051,62.6Zm0-2.9c-.237,0-.429-.3-.429-.671s.192-.671.429-.671.429.3.429.671S94.288,59.7,94.051,59.7ZM95.9,111.9c-.237,0-.429-.3-.429-.671s.192-.671.429-.671.429.3.429.671S96.14,111.9,95.9,111.9Zm0-2.9c-.237,0-.429-.3-.429-.671s.192-.671.429-.671.429.3.429.671S96.14,109,95.9,109Zm0-2.9c-.237,0-.429-.3-.429-.671s.192-.671.429-.671.429.3.429.671S96.14,106.1,95.9,106.1Zm0-2.9c-.237,0-.429-.3-.429-.671s.192-.671.429-.671.429.3.429.671S96.14,103.2,95.9,103.2Zm0-2.9c-.237,0-.429-.3-.429-.671s.192-.671.429-.671.429.3.429.671S96.14,100.3,95.9,100.3Zm0-2.9c-.237,0-.429-.3-.429-.671s.192-.671.429-.671.429.3.429.671S96.14,97.4,95.9,97.4Zm0-2.9c-.237,0-.429-.3-.429-.671s.192-.671.429-.671.429.3.429.671S96.14,94.5,95.9,94.5Zm0-2.9c-.237,0-.429-.3-.429-.671s.192-.671.429-.671.429.3.429.671S96.14,91.6,95.9,91.6Zm0-2.9c-.237,0-.429-.3-.429-.671s.192-.671.429-.671.429.3.429.671S96.14,88.7,95.9,88.7Zm0-2.9c-.237,0-.429-.3-.429-.671s.192-.671.429-.671.429.3.429.671S96.14,85.8,95.9,85.8Zm0-2.9c-.237,0-.429-.3-.429-.671s.192-.671.429-.671.429.3.429.671S96.14,82.9,95.9,82.9Zm0-2.9c-.237,0-.429-.3-.429-.671s.192-.671.429-.671.429.3.429.671S96.14,80,95.9,80Zm0-2.9c-.237,0-.429-.3-.429-.671s.192-.671.429-.671.429.3.429.671S96.14,77.1,95.9,77.1Zm0-2.9c-.237,0-.429-.3-.429-.671s.192-.671.429-.671.429.3.429.671S96.14,74.2,95.9,74.2Zm0-2.9c-.237,0-.429-.3-.429-.671s.192-.671.429-.671.429.3.429.671S96.14,71.3,95.9,71.3Zm0-2.9c-.237,0-.429-.3-.429-.671s.192-.671.429-.671.429.3.429.671S96.14,68.4,95.9,68.4Zm0-2.9c-.237,0-.429-.3-.429-.671s.192-.671.429-.671.429.3.429.671S96.14,65.5,95.9,65.5Zm0-2.9c-.237,0-.429-.3-.429-.671s.192-.671.429-.671.429.3.429.671S96.14,62.6,95.9,62.6Zm1.852,43.5c-.237,0-.429-.3-.429-.671s.192-.671.429-.671.429.3.429.671S97.992,106.1,97.755,106.1Zm0-2.9c-.237,0-.429-.3-.429-.671s.192-.671.429-.671.429.3.429.671S97.992,103.2,97.755,103.2Zm0-2.9c-.237,0-.429-.3-.429-.671s.192-.671.429-.671.429.3.429.671S97.992,100.3,97.755,100.3Zm0-2.9c-.237,0-.429-.3-.429-.671s.192-.671.429-.671.429.3.429.671S97.992,97.4,97.755,97.4Zm0-2.9c-.237,0-.429-.3-.429-.671s.192-.671.429-.671.429.3.429.671S97.992,94.5,97.755,94.5Zm0-2.9c-.237,0-.429-.3-.429-.671s.192-.671.429-.671.429.3.429.671S97.992,91.6,97.755,91.6Zm0-2.9c-.237,0-.429-.3-.429-.671s.192-.671.429-.671.429.3.429.671S97.992,88.7,97.755,88.7Zm0-2.9c-.237,0-.429-.3-.429-.671s.192-.671.429-.671.429.3.429.671S97.992,85.8,97.755,85.8Zm0-2.9c-.237,0-.429-.3-.429-.671s.192-.671.429-.671.429.3.429.671S97.992,82.9,97.755,82.9Zm0-2.9c-.237,0-.429-.3-.429-.671s.192-.671.429-.671.429.3.429.671S97.992,80,97.755,80Zm0-2.9c-.237,0-.429-.3-.429-.671s.192-.671.429-.671.429.3.429.671S97.992,77.1,97.755,77.1Zm0-2.9c-.237,0-.429-.3-.429-.671s.192-.671.429-.671.429.3.429.671S97.992,74.2,97.755,74.2Zm0-2.9c-.237,0-.429-.3-.429-.671s.192-.671.429-.671.429.3.429.671S97.992,71.3,97.755,71.3Zm0-2.9c-.237,0-.429-.3-.429-.671s.192-.671.429-.671.429.3.429.671S97.992,68.4,97.755,68.4Zm1.852,29c-.237,0-.429-.3-.429-.671s.192-.671.429-.671.429.3.429.671S99.844,97.4,99.608,97.4Zm0-2.9c-.237,0-.429-.3-.429-.671s.192-.671.429-.671.429.3.429.671S99.844,94.5,99.608,94.5Zm0-2.9c-.237,0-.429-.3-.429-.671s.192-.671.429-.671.429.3.429.671S99.844,91.6,99.608,91.6Zm0-2.9c-.237,0-.429-.3-.429-.671s.192-.671.429-.671.429.3.429.671S99.844,88.7,99.608,88.7Zm0-2.9c-.237,0-.429-.3-.429-.671s.192-.671.429-.671.429.3.429.671S99.844,85.8,99.608,85.8Zm0-2.9c-.237,0-.429-.3-.429-.671s.192-.671.429-.671.429.3.429.671S99.844,82.9,99.608,82.9Zm0-2.9c-.237,0-.429-.3-.429-.671s.192-.671.429-.671.429.3.429.671S99.844,80,99.608,80Zm0-2.9c-.237,0-.429-.3-.429-.671s.192-.671.429-.671.429.3.429.671S99.844,77.1,99.608,77.1Z" transform="translate(421.369 287.806)" fill="#26aab7"/>
        <path id="Shape_2" data-name="Shape 2" d="M68.331,0V59.043H0a9.509,9.509,0,0,1,1.426-.912c2.548-1.317,5.359-1.642,7.82-3.267a17.836,17.836,0,0,0,5.96-7.753c1.519-3.351,2.774-6.859,5.116-9.4a18.714,18.714,0,0,1,9.131-5.062,14.723,14.723,0,0,0,8.277-6.435c1.213-1.87,2.15-4.017,3.341-5.911a9.429,9.429,0,0,1,5.6-4.444c1.965-.514,4.225-.59,5.873-2.26A8.7,8.7,0,0,0,54.478,8.8c.5-3.1.471-7.208,2.833-8.8Z" transform="translate(68.331 59.043) rotate(180)" fill="#7d6eb2"/>
      </g>
    </g>
  </g>
</svg>
