<svg xmlns="http://www.w3.org/2000/svg" xmlns:xlink="http://www.w3.org/1999/xlink" width="1240" height="619" viewBox="0 0 1240 619">
  <defs>
    <clipPath id="clip-path">
      <rect id="Rectángulo_401512" data-name="Rectángulo 401512" width="1240" height="619" rx="10" transform="translate(285 2313)" fill="#aee6e6"/>
    </clipPath>
    <clipPath id="clip-path-2">
      <rect id="Rectángulo_400993" data-name="Rectángulo 400993" width="43.242" height="83.858" transform="translate(76.882 74.52) rotate(152.705)" fill="none" stroke="#7d6eb2" stroke-width="1"/>
    </clipPath>
  </defs>
  <g id="Grupo_1101512" data-name="Grupo 1101512" transform="translate(-180 -2774)">
    <g id="Grupo_1101511" data-name="Grupo 1101511">
      <rect id="Rectángulo_401888" data-name="Rectángulo 401888" width="1240" height="618" rx="10" transform="translate(180 2774)" fill="#aee6e6" opacity="0.5"/>
      <g id="Enmascarar_grupo_1098709" data-name="Enmascarar grupo 1098709" transform="translate(-105 461)" clip-path="url(#clip-path)">
        <g id="Grupo_1099853" data-name="Grupo 1099853" transform="translate(254.493 2291.605)">
          <g id="Grupo_1098993" data-name="Grupo 1098993" transform="matrix(0.469, -0.883, 0.883, 0.469, 43.6, 592.466)">
            <g id="Grupo_1098992" data-name="Grupo 1098992" transform="translate(0 0)" clip-path="url(#clip-path-2)">
              <g id="Grupo_1098991" data-name="Grupo 1098991" transform="translate(-30.816 6.87)">
                <circle id="Elipse_11491" data-name="Elipse 11491" cx="40.066" cy="40.066" r="40.066" transform="translate(0 22.925) rotate(-16.624)" fill="none" stroke="#7d6eb2" stroke-miterlimit="10" stroke-width="2"/>
                <circle id="Elipse_11492" data-name="Elipse 11492" cx="35.661" cy="35.661" r="35.661" transform="translate(11.238 82.291) rotate(-85.029)" fill="none" stroke="#7d6eb2" stroke-miterlimit="10" stroke-width="2"/>
                <circle id="Elipse_11493" data-name="Elipse 11493" cx="31.255" cy="31.255" r="31.255" transform="matrix(0.14, -0.99, 0.99, 0.14, 14.521, 76.412)" fill="none" stroke="#7d6eb2" stroke-miterlimit="10" stroke-width="2"/>
                <circle id="Elipse_11494" data-name="Elipse 11494" cx="26.85" cy="26.85" r="26.85" transform="translate(23.005 23.005)" fill="none" stroke="#7d6eb2" stroke-miterlimit="10" stroke-width="2"/>
                <circle id="Elipse_11495" data-name="Elipse 11495" cx="22.444" cy="22.444" r="22.444" transform="translate(25.075 30.019) rotate(-6.323)" fill="none" stroke="#7d6eb2" stroke-miterlimit="10" stroke-width="2"/>
                <path id="Trazado_873122" data-name="Trazado 873122" d="M18.038,0A18.038,18.038,0,1,1,0,18.038,18.038,18.038,0,0,1,18.038,0Z" transform="translate(24.668 53.906) rotate(-54.14)" fill="none" stroke="#7d6eb2" stroke-width="2"/>
                <circle id="Elipse_11496" data-name="Elipse 11496" cx="13.633" cy="13.633" r="13.633" transform="matrix(0.495, -0.869, 0.869, 0.495, 31.263, 54.959)" fill="none" stroke="#7d6eb2" stroke-miterlimit="10" stroke-width="2"/>
                <circle id="Elipse_11497" data-name="Elipse 11497" cx="9.227" cy="9.227" r="9.227" transform="translate(37.96 44.489) rotate(-20.72)" fill="none" stroke="#7d6eb2" stroke-miterlimit="10" stroke-width="2"/>
                <path id="Trazado_873123" data-name="Trazado 873123" d="M.538,7.034a4.821,4.821,0,1,1,6.5,2.073A4.822,4.822,0,0,1,.538,7.034Z" transform="translate(45.032 45.032)" fill="none" stroke="#7d6eb2" stroke-miterlimit="10" stroke-width="2"/>
              </g>
            </g>
          </g>
          <g id="Grupo_1098998" data-name="Grupo 1098998" transform="translate(1125.141 38.615)">
            <g id="Grupo_1098994" data-name="Grupo 1098994" transform="translate(0 0)">
              <path id="Trazado_873124" data-name="Trazado 873124" d="M640.186,391.326c5.17,0,5.17,3.1,10.34,3.1s5.17-3.1,10.339-3.1,5.168,3.1,10.337,3.1,5.169-3.1,10.339-3.1,5.17,3.1,10.34,3.1,5.17-3.1,10.339-3.1,5.17,3.1,10.34,3.1,5.17-3.1,10.34-3.1,5.171,3.1,10.342,3.1,5.171-3.1,10.34-3.1,5.171,3.1,10.341,3.1,5.171-3.1,10.342-3.1,5.169,3.1,10.338,3.1,5.171-3.1,10.341-3.1,5.172,3.1,10.344,3.1,5.171-3.1,10.341-3.1,5.174,3.1,10.349,3.1,5.174-3.1,10.348-3.1" transform="translate(-640.186 -391.326)" fill="none" stroke="#26aab7" stroke-miterlimit="10" stroke-width="2"/>
            </g>
            <g id="Grupo_1098995" data-name="Grupo 1098995" transform="translate(0 13.367)">
              <path id="Trazado_873125" data-name="Trazado 873125" d="M640.186,408.556c5.17,0,5.17,3.1,10.34,3.1s5.17-3.1,10.339-3.1,5.168,3.1,10.337,3.1,5.169-3.1,10.339-3.1,5.17,3.1,10.34,3.1,5.17-3.1,10.339-3.1,5.17,3.1,10.34,3.1,5.17-3.1,10.34-3.1,5.171,3.1,10.342,3.1,5.171-3.1,10.34-3.1,5.171,3.1,10.341,3.1,5.171-3.1,10.342-3.1,5.169,3.1,10.338,3.1,5.171-3.1,10.341-3.1,5.172,3.1,10.344,3.1,5.171-3.1,10.341-3.1,5.174,3.1,10.349,3.1,5.174-3.1,10.348-3.1" transform="translate(-640.186 -408.556)" fill="none" stroke="#26aab7" stroke-miterlimit="10" stroke-width="2"/>
            </g>
            <g id="Grupo_1098996" data-name="Grupo 1098996" transform="translate(0 26.734)">
              <path id="Trazado_873126" data-name="Trazado 873126" d="M640.186,425.786c5.17,0,5.17,3.1,10.34,3.1s5.17-3.1,10.339-3.1,5.168,3.1,10.337,3.1,5.169-3.1,10.339-3.1,5.17,3.1,10.34,3.1,5.17-3.1,10.339-3.1,5.17,3.1,10.34,3.1,5.17-3.1,10.34-3.1,5.171,3.1,10.342,3.1,5.171-3.1,10.34-3.1,5.171,3.1,10.341,3.1,5.171-3.1,10.342-3.1,5.169,3.1,10.338,3.1,5.171-3.1,10.341-3.1,5.172,3.1,10.344,3.1,5.171-3.1,10.341-3.1,5.174,3.1,10.349,3.1,5.174-3.1,10.348-3.1" transform="translate(-640.186 -425.786)" fill="none" stroke="#26aab7" stroke-miterlimit="10" stroke-width="2"/>
            </g>
            <g id="Grupo_1098997" data-name="Grupo 1098997" transform="translate(0 40.1)">
              <path id="Trazado_873127" data-name="Trazado 873127" d="M640.186,443.016c5.17,0,5.17,3.1,10.34,3.1s5.17-3.1,10.339-3.1,5.168,3.1,10.337,3.1,5.169-3.1,10.339-3.1,5.17,3.1,10.34,3.1,5.17-3.1,10.339-3.1,5.17,3.1,10.34,3.1,5.17-3.1,10.34-3.1,5.171,3.1,10.342,3.1,5.171-3.1,10.34-3.1,5.171,3.1,10.341,3.1,5.171-3.1,10.342-3.1,5.169,3.1,10.338,3.1,5.171-3.1,10.341-3.1,5.172,3.1,10.344,3.1,5.171-3.1,10.341-3.1,5.174,3.1,10.349,3.1,5.174-3.1,10.348-3.1" transform="translate(-640.186 -443.016)" fill="none" stroke="#26aab7" stroke-miterlimit="10" stroke-width="2"/>
            </g>
          </g>
          <path id="Trazado_873128" data-name="Trazado 873128" d="M46.169,134.208c-.6,0-8.113-.487-8.113-1.088a1.088,1.088,0,0,1,2.175,0C40.231,133.721,46.77,134.208,46.169,134.208Zm-7.025-4.7a1.088,1.088,0,1,1,1.088-1.088A1.088,1.088,0,0,1,39.144,129.509Zm0-4.7a1.088,1.088,0,1,1,1.088-1.088A1.088,1.088,0,0,1,39.144,124.81Zm0-4.7a1.088,1.088,0,1,1,1.088-1.088A1.088,1.088,0,0,1,39.144,120.111Zm0-4.7a1.088,1.088,0,1,1,1.088-1.088A1.088,1.088,0,0,1,39.144,115.413Zm0-4.7a1.088,1.088,0,1,1,1.088-1.088A1.088,1.088,0,0,1,39.144,110.714Zm0-4.7a1.088,1.088,0,1,1,1.088-1.088A1.088,1.088,0,0,1,39.144,106.015Zm0-4.7a1.088,1.088,0,1,1,1.088-1.088A1.088,1.088,0,0,1,39.144,101.316Zm4.7,46.988a1.088,1.088,0,1,1,1.088-1.088A1.088,1.088,0,0,1,43.842,148.3Zm0-4.7a1.088,1.088,0,1,1,1.088-1.088A1.088,1.088,0,0,1,43.842,143.606Zm0-4.7a1.088,1.088,0,1,1,1.088-1.088A1.088,1.088,0,0,1,43.842,138.907Zm0-4.7a1.088,1.088,0,1,1,1.088-1.088A1.088,1.088,0,0,1,43.842,134.208Zm0-4.7a1.088,1.088,0,1,1,1.088-1.088A1.088,1.088,0,0,1,43.842,129.509Zm0-4.7a1.088,1.088,0,1,1,1.088-1.088A1.088,1.088,0,0,1,43.842,124.81Zm0-4.7a1.088,1.088,0,1,1,1.088-1.088A1.088,1.088,0,0,1,43.842,120.111Zm0-4.7a1.088,1.088,0,1,1,1.088-1.088A1.088,1.088,0,0,1,43.842,115.413Zm0-4.7a1.088,1.088,0,1,1,1.088-1.088A1.088,1.088,0,0,1,43.842,110.714Zm0-4.7a1.088,1.088,0,1,1,1.088-1.088A1.088,1.088,0,0,1,43.842,106.015Zm0-4.7a1.088,1.088,0,1,1,1.088-1.088A1.088,1.088,0,0,1,43.842,101.316Zm0-4.7A1.088,1.088,0,1,1,44.93,95.53,1.088,1.088,0,0,1,43.842,96.617Zm0-4.7a1.088,1.088,0,1,1,1.088-1.088A1.088,1.088,0,0,1,43.842,91.918Zm0-4.7a1.088,1.088,0,1,1,1.088-1.088A1.088,1.088,0,0,1,43.842,87.22Zm4.7,70.483a1.088,1.088,0,1,1,1.088-1.088A1.088,1.088,0,0,1,48.541,157.7Zm0-4.7a1.088,1.088,0,1,1,1.088-1.088A1.088,1.088,0,0,1,48.541,153Zm0-4.7a1.088,1.088,0,1,1,1.088-1.088A1.088,1.088,0,0,1,48.541,148.3Zm0-4.7a1.088,1.088,0,1,1,1.088-1.088A1.088,1.088,0,0,1,48.541,143.606Zm0-4.7a1.088,1.088,0,1,1,1.088-1.088A1.088,1.088,0,0,1,48.541,138.907Zm0-4.7a1.088,1.088,0,1,1,1.088-1.088A1.088,1.088,0,0,1,48.541,134.208Zm0-4.7a1.088,1.088,0,1,1,1.088-1.088A1.088,1.088,0,0,1,48.541,129.509Zm0-4.7a1.088,1.088,0,1,1,1.088-1.088A1.088,1.088,0,0,1,48.541,124.81Zm0-4.7a1.088,1.088,0,1,1,1.088-1.088A1.088,1.088,0,0,1,48.541,120.111Zm0-4.7a1.088,1.088,0,1,1,1.088-1.088A1.088,1.088,0,0,1,48.541,115.413Zm0-4.7a1.088,1.088,0,1,1,1.088-1.088A1.088,1.088,0,0,1,48.541,110.714Zm0-4.7a1.088,1.088,0,1,1,1.088-1.088A1.088,1.088,0,0,1,48.541,106.015Zm0-4.7a1.088,1.088,0,1,1,1.088-1.088A1.088,1.088,0,0,1,48.541,101.316Zm0-4.7a1.088,1.088,0,1,1,1.088-1.088A1.088,1.088,0,0,1,48.541,96.617Zm0-4.7a1.088,1.088,0,1,1,1.088-1.088A1.088,1.088,0,0,1,48.541,91.918Zm0-4.7a1.088,1.088,0,1,1,1.088-1.088A1.088,1.088,0,0,1,48.541,87.22Zm0-4.7a1.088,1.088,0,1,1,1.088-1.088A1.088,1.088,0,0,1,48.541,82.521Zm0-4.7a1.088,1.088,0,1,1,1.088-1.088A1.088,1.088,0,0,1,48.541,77.822Zm4.7,84.579a1.088,1.088,0,1,1,1.088-1.088A1.088,1.088,0,0,1,53.24,162.4Zm0-4.7a1.088,1.088,0,1,1,1.088-1.088A1.088,1.088,0,0,1,53.24,157.7Zm0-4.7a1.088,1.088,0,1,1,1.088-1.088A1.088,1.088,0,0,1,53.24,153Zm0-4.7a1.088,1.088,0,1,1,1.088-1.088A1.088,1.088,0,0,1,53.24,148.3Zm0-4.7a1.088,1.088,0,1,1,1.088-1.088A1.088,1.088,0,0,1,53.24,143.606Zm0-4.7a1.088,1.088,0,1,1,1.088-1.088A1.088,1.088,0,0,1,53.24,138.907Zm0-4.7a1.088,1.088,0,1,1,1.088-1.088A1.088,1.088,0,0,1,53.24,134.208Zm0-4.7a1.088,1.088,0,1,1,1.088-1.088A1.088,1.088,0,0,1,53.24,129.509Zm0-4.7a1.088,1.088,0,1,1,1.088-1.088A1.088,1.088,0,0,1,53.24,124.81Zm0-4.7a1.088,1.088,0,1,1,1.088-1.088A1.088,1.088,0,0,1,53.24,120.111Zm0-4.7a1.088,1.088,0,1,1,1.088-1.088A1.088,1.088,0,0,1,53.24,115.413Zm0-4.7a1.088,1.088,0,1,1,1.088-1.088A1.088,1.088,0,0,1,53.24,110.714Zm0-4.7a1.088,1.088,0,1,1,1.088-1.088A1.088,1.088,0,0,1,53.24,106.015Zm0-4.7a1.088,1.088,0,1,1,1.088-1.088A1.088,1.088,0,0,1,53.24,101.316Zm0-4.7a1.088,1.088,0,1,1,1.088-1.088A1.088,1.088,0,0,1,53.24,96.617Zm0-4.7a1.088,1.088,0,1,1,1.088-1.088A1.088,1.088,0,0,1,53.24,91.918Zm0-4.7a1.088,1.088,0,1,1,1.088-1.088A1.088,1.088,0,0,1,53.24,87.22Zm0-4.7a1.088,1.088,0,1,1,1.088-1.088A1.088,1.088,0,0,1,53.24,82.521Zm0-4.7a1.088,1.088,0,1,1,1.088-1.088A1.088,1.088,0,0,1,53.24,77.822Zm0-4.7a1.088,1.088,0,1,1,1.088-1.088A1.088,1.088,0,0,1,53.24,73.123Zm4.7,98.676a1.088,1.088,0,1,1,1.088-1.088A1.088,1.088,0,0,1,57.939,171.8Zm0-4.7a1.088,1.088,0,1,1,1.088-1.088A1.088,1.088,0,0,1,57.939,167.1Zm0-4.7a1.088,1.088,0,1,1,1.088-1.088A1.088,1.088,0,0,1,57.939,162.4Zm0-4.7a1.088,1.088,0,1,1,1.088-1.088A1.088,1.088,0,0,1,57.939,157.7Zm0-4.7a1.088,1.088,0,1,1,1.088-1.088A1.088,1.088,0,0,1,57.939,153Zm0-4.7a1.088,1.088,0,1,1,1.088-1.088A1.088,1.088,0,0,1,57.939,148.3Zm0-4.7a1.088,1.088,0,1,1,1.088-1.088A1.088,1.088,0,0,1,57.939,143.606Zm0-4.7a1.088,1.088,0,1,1,1.088-1.088A1.088,1.088,0,0,1,57.939,138.907Zm0-4.7a1.088,1.088,0,1,1,1.088-1.088A1.088,1.088,0,0,1,57.939,134.208Zm0-4.7a1.088,1.088,0,1,1,1.088-1.088A1.088,1.088,0,0,1,57.939,129.509Zm0-4.7a1.088,1.088,0,1,1,1.088-1.088A1.088,1.088,0,0,1,57.939,124.81Zm0-4.7a1.088,1.088,0,1,1,1.088-1.088A1.088,1.088,0,0,1,57.939,120.111Zm0-4.7a1.088,1.088,0,1,1,1.088-1.088A1.088,1.088,0,0,1,57.939,115.413Zm0-4.7a1.088,1.088,0,1,1,1.088-1.088A1.088,1.088,0,0,1,57.939,110.714Zm0-4.7a1.088,1.088,0,1,1,1.088-1.088A1.088,1.088,0,0,1,57.939,106.015Zm0-4.7a1.088,1.088,0,1,1,1.088-1.088A1.088,1.088,0,0,1,57.939,101.316Zm0-4.7a1.088,1.088,0,1,1,1.088-1.088A1.088,1.088,0,0,1,57.939,96.617Zm0-4.7a1.088,1.088,0,1,1,1.088-1.088A1.088,1.088,0,0,1,57.939,91.918Zm0-4.7a1.088,1.088,0,1,1,1.088-1.088A1.088,1.088,0,0,1,57.939,87.22Zm0-4.7a1.088,1.088,0,1,1,1.088-1.088A1.088,1.088,0,0,1,57.939,82.521Zm0-4.7a1.088,1.088,0,1,1,1.088-1.088A1.088,1.088,0,0,1,57.939,77.822Zm0-4.7a1.088,1.088,0,1,1,1.088-1.088A1.088,1.088,0,0,1,57.939,73.123Zm0-4.7a1.088,1.088,0,1,1,1.088-1.088A1.088,1.088,0,0,1,57.939,68.424Zm0-4.7a1.088,1.088,0,1,1,1.088-1.088A1.088,1.088,0,0,1,57.939,63.725Zm4.7,112.772a1.088,1.088,0,1,1,1.088-1.088A1.088,1.088,0,0,1,62.638,176.5Zm0-4.7a1.088,1.088,0,1,1,1.088-1.088A1.088,1.088,0,0,1,62.638,171.8Zm0-4.7a1.088,1.088,0,1,1,1.088-1.088A1.088,1.088,0,0,1,62.638,167.1Zm0-4.7a1.088,1.088,0,1,1,1.088-1.088A1.088,1.088,0,0,1,62.638,162.4Zm0-4.7a1.088,1.088,0,1,1,1.088-1.088A1.088,1.088,0,0,1,62.638,157.7Zm0-4.7a1.088,1.088,0,1,1,1.088-1.088A1.088,1.088,0,0,1,62.638,153Zm0-4.7a1.088,1.088,0,1,1,1.088-1.088A1.088,1.088,0,0,1,62.638,148.3Zm0-4.7a1.088,1.088,0,1,1,1.088-1.088A1.088,1.088,0,0,1,62.638,143.606Zm0-4.7a1.088,1.088,0,1,1,1.088-1.088A1.088,1.088,0,0,1,62.638,138.907Zm0-4.7a1.088,1.088,0,1,1,1.088-1.088A1.088,1.088,0,0,1,62.638,134.208Zm0-4.7a1.088,1.088,0,1,1,1.088-1.088A1.088,1.088,0,0,1,62.638,129.509Zm0-4.7a1.088,1.088,0,1,1,1.088-1.088A1.088,1.088,0,0,1,62.638,124.81Zm0-4.7a1.088,1.088,0,1,1,1.088-1.088A1.088,1.088,0,0,1,62.638,120.111Zm0-4.7a1.088,1.088,0,1,1,1.088-1.088A1.088,1.088,0,0,1,62.638,115.413Zm0-4.7a1.088,1.088,0,1,1,1.088-1.088A1.088,1.088,0,0,1,62.638,110.714Zm0-4.7a1.088,1.088,0,1,1,1.088-1.088A1.088,1.088,0,0,1,62.638,106.015Zm0-4.7a1.088,1.088,0,1,1,1.088-1.088A1.088,1.088,0,0,1,62.638,101.316Zm0-4.7a1.088,1.088,0,1,1,1.088-1.088A1.088,1.088,0,0,1,62.638,96.617Zm0-4.7a1.088,1.088,0,1,1,1.088-1.088A1.088,1.088,0,0,1,62.638,91.918Zm0-4.7a1.088,1.088,0,1,1,1.088-1.088A1.088,1.088,0,0,1,62.638,87.22Zm0-4.7a1.088,1.088,0,1,1,1.088-1.088A1.088,1.088,0,0,1,62.638,82.521Zm0-4.7a1.088,1.088,0,1,1,1.088-1.088A1.088,1.088,0,0,1,62.638,77.822Zm0-4.7a1.088,1.088,0,1,1,1.088-1.088A1.088,1.088,0,0,1,62.638,73.123Zm0-4.7a1.088,1.088,0,1,1,1.088-1.088A1.088,1.088,0,0,1,62.638,68.424Zm0-4.7a1.088,1.088,0,1,1,1.088-1.088A1.088,1.088,0,0,1,62.638,63.725Zm0-4.7a1.088,1.088,0,1,1,1.088-1.088A1.088,1.088,0,0,1,62.638,59.027Zm4.7,117.471a1.088,1.088,0,1,1,1.088-1.088A1.088,1.088,0,0,1,67.337,176.5Zm0-4.7a1.088,1.088,0,1,1,1.088-1.088A1.088,1.088,0,0,1,67.337,171.8Zm0-4.7a1.088,1.088,0,1,1,1.088-1.088A1.088,1.088,0,0,1,67.337,167.1Zm0-4.7a1.088,1.088,0,1,1,1.088-1.088A1.088,1.088,0,0,1,67.337,162.4Zm0-4.7a1.088,1.088,0,1,1,1.088-1.088A1.088,1.088,0,0,1,67.337,157.7Zm0-4.7a1.088,1.088,0,1,1,1.088-1.088A1.088,1.088,0,0,1,67.337,153Zm0-4.7a1.088,1.088,0,1,1,1.088-1.088A1.088,1.088,0,0,1,67.337,148.3Zm0-4.7a1.088,1.088,0,1,1,1.088-1.088A1.088,1.088,0,0,1,67.337,143.606Zm0-4.7a1.088,1.088,0,1,1,1.088-1.088A1.088,1.088,0,0,1,67.337,138.907Zm0-4.7a1.088,1.088,0,1,1,1.088-1.088A1.088,1.088,0,0,1,67.337,134.208Zm0-4.7a1.088,1.088,0,1,1,1.088-1.088A1.088,1.088,0,0,1,67.337,129.509Zm0-4.7a1.088,1.088,0,1,1,1.088-1.088A1.088,1.088,0,0,1,67.337,124.81Zm0-4.7a1.088,1.088,0,1,1,1.088-1.088A1.088,1.088,0,0,1,67.337,120.111Zm0-4.7a1.088,1.088,0,1,1,1.088-1.088A1.088,1.088,0,0,1,67.337,115.413Zm0-4.7a1.088,1.088,0,1,1,1.088-1.088A1.088,1.088,0,0,1,67.337,110.714Zm0-4.7a1.088,1.088,0,1,1,1.088-1.088A1.088,1.088,0,0,1,67.337,106.015Zm0-4.7a1.088,1.088,0,1,1,1.088-1.088A1.088,1.088,0,0,1,67.337,101.316Zm0-4.7a1.088,1.088,0,1,1,1.088-1.088A1.088,1.088,0,0,1,67.337,96.617Zm0-4.7a1.088,1.088,0,1,1,1.088-1.088A1.088,1.088,0,0,1,67.337,91.918Zm0-4.7a1.088,1.088,0,1,1,1.088-1.088A1.088,1.088,0,0,1,67.337,87.22Zm0-4.7a1.088,1.088,0,1,1,1.088-1.088A1.088,1.088,0,0,1,67.337,82.521Zm0-4.7a1.088,1.088,0,1,1,1.088-1.088A1.088,1.088,0,0,1,67.337,77.822Zm0-4.7a1.088,1.088,0,1,1,1.088-1.088A1.088,1.088,0,0,1,67.337,73.123Zm0-4.7a1.088,1.088,0,1,1,1.088-1.088A1.088,1.088,0,0,1,67.337,68.424Zm0-4.7a1.088,1.088,0,1,1,1.088-1.088A1.088,1.088,0,0,1,67.337,63.725Zm0-4.7a1.088,1.088,0,1,1,1.088-1.088A1.088,1.088,0,0,1,67.337,59.027Zm4.7,122.17a1.088,1.088,0,1,1,1.088-1.088A1.088,1.088,0,0,1,72.035,181.2Zm0-4.7a1.088,1.088,0,1,1,1.088-1.088A1.088,1.088,0,0,1,72.035,176.5Zm0-4.7a1.088,1.088,0,1,1,1.088-1.088A1.088,1.088,0,0,1,72.035,171.8Zm0-4.7a1.088,1.088,0,1,1,1.088-1.088A1.088,1.088,0,0,1,72.035,167.1Zm0-4.7a1.088,1.088,0,1,1,1.088-1.088A1.088,1.088,0,0,1,72.035,162.4Zm0-4.7a1.088,1.088,0,1,1,1.088-1.088A1.088,1.088,0,0,1,72.035,157.7Zm0-4.7a1.088,1.088,0,1,1,1.088-1.088A1.088,1.088,0,0,1,72.035,153Zm0-4.7a1.088,1.088,0,1,1,1.088-1.088A1.088,1.088,0,0,1,72.035,148.3Zm0-4.7a1.088,1.088,0,1,1,1.088-1.088A1.088,1.088,0,0,1,72.035,143.606Zm0-4.7a1.088,1.088,0,1,1,1.088-1.088A1.088,1.088,0,0,1,72.035,138.907Zm0-4.7a1.088,1.088,0,1,1,1.088-1.088A1.088,1.088,0,0,1,72.035,134.208Zm0-4.7a1.088,1.088,0,1,1,1.088-1.088A1.088,1.088,0,0,1,72.035,129.509Zm0-4.7a1.088,1.088,0,1,1,1.088-1.088A1.088,1.088,0,0,1,72.035,124.81Zm0-4.7a1.088,1.088,0,1,1,1.088-1.088A1.088,1.088,0,0,1,72.035,120.111Zm0-4.7a1.088,1.088,0,1,1,1.088-1.088A1.088,1.088,0,0,1,72.035,115.413Zm0-4.7a1.088,1.088,0,1,1,1.088-1.088A1.088,1.088,0,0,1,72.035,110.714Zm0-4.7a1.088,1.088,0,1,1,1.088-1.088A1.088,1.088,0,0,1,72.035,106.015Zm0-4.7a1.088,1.088,0,1,1,1.088-1.088A1.088,1.088,0,0,1,72.035,101.316Zm0-4.7a1.088,1.088,0,1,1,1.088-1.088A1.088,1.088,0,0,1,72.035,96.617Zm0-4.7a1.088,1.088,0,1,1,1.088-1.088A1.088,1.088,0,0,1,72.035,91.918Zm0-4.7a1.088,1.088,0,1,1,1.088-1.088A1.088,1.088,0,0,1,72.035,87.22Zm0-4.7a1.088,1.088,0,1,1,1.088-1.088A1.088,1.088,0,0,1,72.035,82.521Zm0-4.7a1.088,1.088,0,1,1,1.088-1.088A1.088,1.088,0,0,1,72.035,77.822Zm0-4.7a1.088,1.088,0,1,1,1.088-1.088A1.088,1.088,0,0,1,72.035,73.123Zm0-4.7a1.088,1.088,0,1,1,1.088-1.088A1.088,1.088,0,0,1,72.035,68.424Zm0-4.7a1.088,1.088,0,1,1,1.088-1.088A1.088,1.088,0,0,1,72.035,63.725Zm0-4.7a1.088,1.088,0,1,1,1.088-1.088A1.088,1.088,0,0,1,72.035,59.027Zm0-4.7a1.088,1.088,0,1,1,1.088-1.088A1.088,1.088,0,0,1,72.035,54.328Zm4.7,131.567a1.088,1.088,0,1,1,1.088-1.088A1.088,1.088,0,0,1,76.734,185.9Zm0-4.7a1.088,1.088,0,1,1,1.088-1.088A1.088,1.088,0,0,1,76.734,181.2Zm0-4.7a1.088,1.088,0,1,1,1.088-1.088A1.088,1.088,0,0,1,76.734,176.5Zm0-4.7a1.088,1.088,0,1,1,1.088-1.088A1.088,1.088,0,0,1,76.734,171.8Zm0-4.7a1.088,1.088,0,1,1,1.088-1.088A1.088,1.088,0,0,1,76.734,167.1Zm0-4.7a1.088,1.088,0,1,1,1.088-1.088A1.088,1.088,0,0,1,76.734,162.4Zm0-4.7a1.088,1.088,0,1,1,1.088-1.088A1.088,1.088,0,0,1,76.734,157.7Zm0-4.7a1.088,1.088,0,1,1,1.088-1.088A1.088,1.088,0,0,1,76.734,153Zm0-4.7a1.088,1.088,0,1,1,1.088-1.088A1.088,1.088,0,0,1,76.734,148.3Zm0-4.7a1.088,1.088,0,1,1,1.088-1.088A1.088,1.088,0,0,1,76.734,143.606Zm0-4.7a1.088,1.088,0,1,1,1.088-1.088A1.088,1.088,0,0,1,76.734,138.907Zm0-4.7a1.088,1.088,0,1,1,1.088-1.088A1.088,1.088,0,0,1,76.734,134.208Zm0-4.7a1.088,1.088,0,1,1,1.088-1.088A1.088,1.088,0,0,1,76.734,129.509Zm0-4.7a1.088,1.088,0,1,1,1.088-1.088A1.088,1.088,0,0,1,76.734,124.81Zm0-4.7a1.088,1.088,0,1,1,1.088-1.088A1.088,1.088,0,0,1,76.734,120.111Zm0-4.7a1.088,1.088,0,1,1,1.088-1.088A1.088,1.088,0,0,1,76.734,115.413Zm0-4.7a1.088,1.088,0,1,1,1.088-1.088A1.088,1.088,0,0,1,76.734,110.714Zm0-4.7a1.088,1.088,0,1,1,1.088-1.088A1.088,1.088,0,0,1,76.734,106.015Zm0-4.7a1.088,1.088,0,1,1,1.088-1.088A1.088,1.088,0,0,1,76.734,101.316Zm0-4.7a1.088,1.088,0,1,1,1.088-1.088A1.088,1.088,0,0,1,76.734,96.617Zm0-4.7a1.088,1.088,0,1,1,1.088-1.088A1.088,1.088,0,0,1,76.734,91.918Zm0-4.7a1.088,1.088,0,1,1,1.088-1.088A1.088,1.088,0,0,1,76.734,87.22Zm0-4.7a1.088,1.088,0,1,1,1.088-1.088A1.088,1.088,0,0,1,76.734,82.521Zm0-4.7a1.088,1.088,0,1,1,1.088-1.088A1.088,1.088,0,0,1,76.734,77.822Zm0-4.7a1.088,1.088,0,1,1,1.088-1.088A1.088,1.088,0,0,1,76.734,73.123Zm0-4.7a1.088,1.088,0,1,1,1.088-1.088A1.088,1.088,0,0,1,76.734,68.424Zm0-4.7a1.088,1.088,0,1,1,1.088-1.088A1.088,1.088,0,0,1,76.734,63.725Zm0-4.7a1.088,1.088,0,1,1,1.088-1.088A1.088,1.088,0,0,1,76.734,59.027Zm0-4.7a1.088,1.088,0,1,1,1.088-1.088A1.088,1.088,0,0,1,76.734,54.328Zm0-4.7a1.088,1.088,0,1,1,1.088-1.088A1.088,1.088,0,0,1,76.734,49.629Zm4.7,136.266a1.088,1.088,0,1,1,1.088-1.088A1.088,1.088,0,0,1,81.433,185.9Zm0-4.7a1.088,1.088,0,1,1,1.088-1.088A1.088,1.088,0,0,1,81.433,181.2Zm0-4.7a1.088,1.088,0,1,1,1.088-1.088A1.088,1.088,0,0,1,81.433,176.5Zm0-4.7a1.088,1.088,0,1,1,1.088-1.088A1.088,1.088,0,0,1,81.433,171.8Zm0-4.7a1.088,1.088,0,1,1,1.088-1.088A1.088,1.088,0,0,1,81.433,167.1Zm0-4.7a1.088,1.088,0,1,1,1.088-1.088A1.088,1.088,0,0,1,81.433,162.4Zm0-4.7a1.088,1.088,0,1,1,1.088-1.088A1.088,1.088,0,0,1,81.433,157.7Zm0-4.7a1.088,1.088,0,1,1,1.088-1.088A1.088,1.088,0,0,1,81.433,153Zm0-4.7a1.088,1.088,0,1,1,1.088-1.088A1.088,1.088,0,0,1,81.433,148.3Zm0-4.7a1.088,1.088,0,1,1,1.088-1.088A1.088,1.088,0,0,1,81.433,143.606Zm0-4.7a1.088,1.088,0,1,1,1.088-1.088A1.088,1.088,0,0,1,81.433,138.907Zm0-4.7a1.088,1.088,0,1,1,1.088-1.088A1.088,1.088,0,0,1,81.433,134.208Zm0-4.7a1.088,1.088,0,1,1,1.088-1.088A1.088,1.088,0,0,1,81.433,129.509Zm0-4.7a1.088,1.088,0,1,1,1.088-1.088A1.088,1.088,0,0,1,81.433,124.81Zm0-4.7a1.088,1.088,0,1,1,1.088-1.088A1.088,1.088,0,0,1,81.433,120.111Zm0-4.7a1.088,1.088,0,1,1,1.088-1.088A1.088,1.088,0,0,1,81.433,115.413Zm0-4.7a1.088,1.088,0,1,1,1.088-1.088A1.088,1.088,0,0,1,81.433,110.714Zm0-4.7a1.088,1.088,0,1,1,1.088-1.088A1.088,1.088,0,0,1,81.433,106.015Zm0-4.7a1.088,1.088,0,1,1,1.088-1.088A1.088,1.088,0,0,1,81.433,101.316Zm0-4.7a1.088,1.088,0,1,1,1.088-1.088A1.088,1.088,0,0,1,81.433,96.617Zm0-4.7a1.088,1.088,0,1,1,1.088-1.088A1.088,1.088,0,0,1,81.433,91.918Zm0-4.7a1.088,1.088,0,1,1,1.088-1.088A1.088,1.088,0,0,1,81.433,87.22Zm0-4.7a1.088,1.088,0,1,1,1.088-1.088A1.088,1.088,0,0,1,81.433,82.521Zm0-4.7a1.088,1.088,0,1,1,1.088-1.088A1.088,1.088,0,0,1,81.433,77.822Zm0-4.7a1.088,1.088,0,1,1,1.088-1.088A1.088,1.088,0,0,1,81.433,73.123Zm0-4.7a1.088,1.088,0,1,1,1.088-1.088A1.088,1.088,0,0,1,81.433,68.424Zm0-4.7a1.088,1.088,0,1,1,1.088-1.088A1.088,1.088,0,0,1,81.433,63.725Zm0-4.7a1.088,1.088,0,1,1,1.088-1.088A1.088,1.088,0,0,1,81.433,59.027Zm0-4.7a1.088,1.088,0,1,1,1.088-1.088A1.088,1.088,0,0,1,81.433,54.328Zm0-4.7a1.088,1.088,0,1,1,1.088-1.088A1.088,1.088,0,0,1,81.433,49.629Zm4.7,140.965a1.088,1.088,0,1,1,1.088-1.088A1.088,1.088,0,0,1,86.132,190.594Zm0-4.7a1.088,1.088,0,1,1,1.088-1.088A1.088,1.088,0,0,1,86.132,185.9Zm0-4.7a1.088,1.088,0,1,1,1.088-1.088A1.088,1.088,0,0,1,86.132,181.2Zm0-4.7a1.088,1.088,0,1,1,1.088-1.088A1.088,1.088,0,0,1,86.132,176.5Zm0-4.7a1.088,1.088,0,1,1,1.088-1.088A1.088,1.088,0,0,1,86.132,171.8Zm0-4.7a1.088,1.088,0,1,1,1.088-1.088A1.088,1.088,0,0,1,86.132,167.1Zm0-4.7a1.088,1.088,0,1,1,1.088-1.088A1.088,1.088,0,0,1,86.132,162.4Zm0-4.7a1.088,1.088,0,1,1,1.088-1.088A1.088,1.088,0,0,1,86.132,157.7Zm0-4.7a1.088,1.088,0,1,1,1.088-1.088A1.088,1.088,0,0,1,86.132,153Zm0-4.7a1.088,1.088,0,1,1,1.088-1.088A1.088,1.088,0,0,1,86.132,148.3Zm0-4.7a1.088,1.088,0,1,1,1.088-1.088A1.088,1.088,0,0,1,86.132,143.606Zm0-4.7a1.088,1.088,0,1,1,1.088-1.088A1.088,1.088,0,0,1,86.132,138.907Zm0-4.7a1.088,1.088,0,1,1,1.088-1.088A1.088,1.088,0,0,1,86.132,134.208Zm0-4.7a1.088,1.088,0,1,1,1.088-1.088A1.088,1.088,0,0,1,86.132,129.509Zm0-4.7a1.088,1.088,0,1,1,1.088-1.088A1.088,1.088,0,0,1,86.132,124.81Zm0-4.7a1.088,1.088,0,1,1,1.088-1.088A1.088,1.088,0,0,1,86.132,120.111Zm0-4.7a1.088,1.088,0,1,1,1.088-1.088A1.088,1.088,0,0,1,86.132,115.413Zm0-4.7a1.088,1.088,0,1,1,1.088-1.088A1.088,1.088,0,0,1,86.132,110.714Zm0-4.7a1.088,1.088,0,1,1,1.088-1.088A1.088,1.088,0,0,1,86.132,106.015Zm0-4.7a1.088,1.088,0,1,1,1.088-1.088A1.088,1.088,0,0,1,86.132,101.316Zm0-4.7A1.088,1.088,0,1,1,87.22,95.53,1.088,1.088,0,0,1,86.132,96.617Zm0-4.7a1.088,1.088,0,1,1,1.088-1.088A1.088,1.088,0,0,1,86.132,91.918Zm0-4.7a1.088,1.088,0,1,1,1.088-1.088A1.088,1.088,0,0,1,86.132,87.22Zm0-4.7a1.088,1.088,0,1,1,1.088-1.088A1.088,1.088,0,0,1,86.132,82.521Zm0-4.7a1.088,1.088,0,1,1,1.088-1.088A1.088,1.088,0,0,1,86.132,77.822Zm0-4.7a1.088,1.088,0,1,1,1.088-1.088A1.088,1.088,0,0,1,86.132,73.123Zm0-4.7a1.088,1.088,0,1,1,1.088-1.088A1.088,1.088,0,0,1,86.132,68.424Zm0-4.7a1.088,1.088,0,1,1,1.088-1.088A1.088,1.088,0,0,1,86.132,63.725Zm0-4.7a1.088,1.088,0,1,1,1.088-1.088A1.088,1.088,0,0,1,86.132,59.027Zm0-4.7A1.088,1.088,0,1,1,87.22,53.24,1.088,1.088,0,0,1,86.132,54.328Zm0-4.7a1.088,1.088,0,1,1,1.088-1.088A1.088,1.088,0,0,1,86.132,49.629Zm0-4.7a1.088,1.088,0,1,1,1.088-1.088A1.088,1.088,0,0,1,86.132,44.93Zm4.7,145.664a1.088,1.088,0,1,1,1.088-1.088A1.088,1.088,0,0,1,90.831,190.594Zm0-4.7a1.088,1.088,0,1,1,1.088-1.088A1.088,1.088,0,0,1,90.831,185.9Zm0-4.7a1.088,1.088,0,1,1,1.088-1.088A1.088,1.088,0,0,1,90.831,181.2Zm0-4.7a1.088,1.088,0,1,1,1.088-1.088A1.088,1.088,0,0,1,90.831,176.5Zm0-4.7a1.088,1.088,0,1,1,1.088-1.088A1.088,1.088,0,0,1,90.831,171.8Zm0-4.7a1.088,1.088,0,1,1,1.088-1.088A1.088,1.088,0,0,1,90.831,167.1Zm0-4.7a1.088,1.088,0,1,1,1.088-1.088A1.088,1.088,0,0,1,90.831,162.4Zm0-4.7a1.088,1.088,0,1,1,1.088-1.088A1.088,1.088,0,0,1,90.831,157.7Zm0-4.7a1.088,1.088,0,1,1,1.088-1.088A1.088,1.088,0,0,1,90.831,153Zm0-4.7a1.088,1.088,0,1,1,1.088-1.088A1.088,1.088,0,0,1,90.831,148.3Zm0-4.7a1.088,1.088,0,1,1,1.088-1.088A1.088,1.088,0,0,1,90.831,143.606Zm0-4.7a1.088,1.088,0,1,1,1.088-1.088A1.088,1.088,0,0,1,90.831,138.907Zm0-4.7a1.088,1.088,0,1,1,1.088-1.088A1.088,1.088,0,0,1,90.831,134.208Zm0-4.7a1.088,1.088,0,1,1,1.088-1.088A1.088,1.088,0,0,1,90.831,129.509Zm0-4.7a1.088,1.088,0,1,1,1.088-1.088A1.088,1.088,0,0,1,90.831,124.81Zm0-4.7a1.088,1.088,0,1,1,1.088-1.088A1.088,1.088,0,0,1,90.831,120.111Zm0-4.7a1.088,1.088,0,1,1,1.088-1.088A1.088,1.088,0,0,1,90.831,115.413Zm0-4.7a1.088,1.088,0,1,1,1.088-1.088A1.088,1.088,0,0,1,90.831,110.714Zm0-4.7a1.088,1.088,0,1,1,1.088-1.088A1.088,1.088,0,0,1,90.831,106.015Zm0-4.7a1.088,1.088,0,1,1,1.088-1.088A1.088,1.088,0,0,1,90.831,101.316Zm0-4.7a1.088,1.088,0,1,1,1.088-1.088A1.088,1.088,0,0,1,90.831,96.617Zm0-4.7a1.088,1.088,0,1,1,1.088-1.088A1.088,1.088,0,0,1,90.831,91.918Zm0-4.7a1.088,1.088,0,1,1,1.088-1.088A1.088,1.088,0,0,1,90.831,87.22Zm0-4.7a1.088,1.088,0,1,1,1.088-1.088A1.088,1.088,0,0,1,90.831,82.521Zm0-4.7a1.088,1.088,0,1,1,1.088-1.088A1.088,1.088,0,0,1,90.831,77.822Zm0-4.7a1.088,1.088,0,1,1,1.088-1.088A1.088,1.088,0,0,1,90.831,73.123Zm0-4.7a1.088,1.088,0,1,1,1.088-1.088A1.088,1.088,0,0,1,90.831,68.424Zm0-4.7a1.088,1.088,0,1,1,1.088-1.088A1.088,1.088,0,0,1,90.831,63.725Zm0-4.7a1.088,1.088,0,1,1,1.088-1.088A1.088,1.088,0,0,1,90.831,59.027Zm0-4.7a1.088,1.088,0,1,1,1.088-1.088A1.088,1.088,0,0,1,90.831,54.328Zm0-4.7a1.088,1.088,0,1,1,1.088-1.088A1.088,1.088,0,0,1,90.831,49.629Zm0-4.7a1.088,1.088,0,1,1,1.088-1.088A1.088,1.088,0,0,1,90.831,44.93Zm4.7,145.664a1.088,1.088,0,1,1,1.088-1.088A1.088,1.088,0,0,1,95.53,190.594Zm0-4.7a1.088,1.088,0,1,1,1.088-1.088A1.088,1.088,0,0,1,95.53,185.9Zm0-4.7a1.088,1.088,0,1,1,1.088-1.088A1.088,1.088,0,0,1,95.53,181.2Zm0-4.7a1.088,1.088,0,1,1,1.088-1.088A1.088,1.088,0,0,1,95.53,176.5Zm0-4.7a1.088,1.088,0,1,1,1.088-1.088A1.088,1.088,0,0,1,95.53,171.8Zm0-4.7a1.088,1.088,0,1,1,1.088-1.088A1.088,1.088,0,0,1,95.53,167.1Zm0-4.7a1.088,1.088,0,1,1,1.088-1.088A1.088,1.088,0,0,1,95.53,162.4Zm0-4.7a1.088,1.088,0,1,1,1.088-1.088A1.088,1.088,0,0,1,95.53,157.7Zm0-4.7a1.088,1.088,0,1,1,1.088-1.088A1.088,1.088,0,0,1,95.53,153Zm0-4.7a1.088,1.088,0,1,1,1.088-1.088A1.088,1.088,0,0,1,95.53,148.3Zm0-4.7a1.088,1.088,0,1,1,1.088-1.088A1.088,1.088,0,0,1,95.53,143.606Zm0-4.7a1.088,1.088,0,1,1,1.088-1.088A1.088,1.088,0,0,1,95.53,138.907Zm0-4.7a1.088,1.088,0,1,1,1.088-1.088A1.088,1.088,0,0,1,95.53,134.208Zm0-4.7a1.088,1.088,0,1,1,1.088-1.088A1.088,1.088,0,0,1,95.53,129.509Zm0-4.7a1.088,1.088,0,1,1,1.088-1.088A1.088,1.088,0,0,1,95.53,124.81Zm0-4.7a1.088,1.088,0,1,1,1.088-1.088A1.088,1.088,0,0,1,95.53,120.111Zm0-4.7a1.088,1.088,0,1,1,1.088-1.088A1.088,1.088,0,0,1,95.53,115.413Zm0-4.7a1.088,1.088,0,1,1,1.088-1.088A1.088,1.088,0,0,1,95.53,110.714Zm0-4.7a1.088,1.088,0,1,1,1.088-1.088A1.088,1.088,0,0,1,95.53,106.015Zm0-4.7a1.088,1.088,0,1,1,1.088-1.088A1.088,1.088,0,0,1,95.53,101.316Zm0-4.7a1.088,1.088,0,1,1,1.088-1.088A1.088,1.088,0,0,1,95.53,96.617Zm0-4.7a1.088,1.088,0,1,1,1.088-1.088A1.088,1.088,0,0,1,95.53,91.918Zm0-4.7a1.088,1.088,0,1,1,1.088-1.088A1.088,1.088,0,0,1,95.53,87.22Zm0-4.7a1.088,1.088,0,1,1,1.088-1.088A1.088,1.088,0,0,1,95.53,82.521Zm0-4.7a1.088,1.088,0,1,1,1.088-1.088A1.088,1.088,0,0,1,95.53,77.822Zm0-4.7a1.088,1.088,0,1,1,1.088-1.088A1.088,1.088,0,0,1,95.53,73.123Zm0-4.7a1.088,1.088,0,1,1,1.088-1.088A1.088,1.088,0,0,1,95.53,68.424Zm0-4.7a1.088,1.088,0,1,1,1.088-1.088A1.088,1.088,0,0,1,95.53,63.725Zm0-4.7a1.088,1.088,0,1,1,1.088-1.088A1.088,1.088,0,0,1,95.53,59.027Zm0-4.7a1.088,1.088,0,1,1,1.088-1.088A1.088,1.088,0,0,1,95.53,54.328Zm0-4.7a1.088,1.088,0,1,1,1.088-1.088A1.088,1.088,0,0,1,95.53,49.629Zm0-4.7a1.088,1.088,0,1,1,1.088-1.088A1.088,1.088,0,0,1,95.53,44.93Zm4.7,150.363a1.088,1.088,0,1,1,1.088-1.088A1.088,1.088,0,0,1,100.229,195.293Zm0-4.7a1.088,1.088,0,1,1,1.088-1.088A1.088,1.088,0,0,1,100.229,190.594Zm0-4.7a1.088,1.088,0,1,1,1.088-1.088A1.088,1.088,0,0,1,100.229,185.9Zm0-4.7a1.088,1.088,0,1,1,1.088-1.088A1.088,1.088,0,0,1,100.229,181.2Zm0-4.7a1.088,1.088,0,1,1,1.088-1.088A1.088,1.088,0,0,1,100.229,176.5Zm0-4.7a1.088,1.088,0,1,1,1.088-1.088A1.088,1.088,0,0,1,100.229,171.8Zm0-4.7a1.088,1.088,0,1,1,1.088-1.088A1.088,1.088,0,0,1,100.229,167.1Zm0-4.7a1.088,1.088,0,1,1,1.088-1.088A1.088,1.088,0,0,1,100.229,162.4Zm0-4.7a1.088,1.088,0,1,1,1.088-1.088A1.088,1.088,0,0,1,100.229,157.7Zm0-4.7a1.088,1.088,0,1,1,1.088-1.088A1.088,1.088,0,0,1,100.229,153Zm0-4.7a1.088,1.088,0,1,1,1.088-1.088A1.088,1.088,0,0,1,100.229,148.3Zm0-4.7a1.088,1.088,0,1,1,1.088-1.088A1.088,1.088,0,0,1,100.229,143.606Zm0-4.7a1.088,1.088,0,1,1,1.088-1.088A1.088,1.088,0,0,1,100.229,138.907Zm0-4.7a1.088,1.088,0,1,1,1.088-1.088A1.088,1.088,0,0,1,100.229,134.208Zm0-4.7a1.088,1.088,0,1,1,1.088-1.088A1.088,1.088,0,0,1,100.229,129.509Zm0-4.7a1.088,1.088,0,1,1,1.088-1.088A1.088,1.088,0,0,1,100.229,124.81Zm0-4.7a1.088,1.088,0,1,1,1.088-1.088A1.088,1.088,0,0,1,100.229,120.111Zm0-4.7a1.088,1.088,0,1,1,1.088-1.088A1.088,1.088,0,0,1,100.229,115.413Zm0-4.7a1.088,1.088,0,1,1,1.088-1.088A1.088,1.088,0,0,1,100.229,110.714Zm0-4.7a1.088,1.088,0,1,1,1.088-1.088A1.088,1.088,0,0,1,100.229,106.015Zm0-4.7a1.088,1.088,0,1,1,1.088-1.088A1.088,1.088,0,0,1,100.229,101.316Zm0-4.7a1.088,1.088,0,1,1,1.088-1.088A1.088,1.088,0,0,1,100.229,96.617Zm0-4.7a1.088,1.088,0,1,1,1.088-1.088A1.088,1.088,0,0,1,100.229,91.918Zm0-4.7a1.088,1.088,0,1,1,1.088-1.088A1.088,1.088,0,0,1,100.229,87.22Zm0-4.7a1.088,1.088,0,1,1,1.088-1.088A1.088,1.088,0,0,1,100.229,82.521Zm0-4.7a1.088,1.088,0,1,1,1.088-1.088A1.088,1.088,0,0,1,100.229,77.822Zm0-4.7a1.088,1.088,0,1,1,1.088-1.088A1.088,1.088,0,0,1,100.229,73.123Zm0-4.7a1.088,1.088,0,1,1,1.088-1.088A1.088,1.088,0,0,1,100.229,68.424Zm0-4.7a1.088,1.088,0,1,1,1.088-1.088A1.088,1.088,0,0,1,100.229,63.725Zm0-4.7a1.088,1.088,0,1,1,1.088-1.088A1.088,1.088,0,0,1,100.229,59.027Zm0-4.7a1.088,1.088,0,1,1,1.088-1.088A1.088,1.088,0,0,1,100.229,54.328Zm0-4.7a1.088,1.088,0,1,1,1.088-1.088A1.088,1.088,0,0,1,100.229,49.629Zm0-4.7a1.088,1.088,0,1,1,1.088-1.088A1.088,1.088,0,0,1,100.229,44.93Zm0-4.7a1.088,1.088,0,1,1,1.088-1.088A1.088,1.088,0,0,1,100.229,40.231Zm4.7,155.062a1.088,1.088,0,1,1,1.088-1.088A1.088,1.088,0,0,1,104.927,195.293Zm0-4.7a1.088,1.088,0,1,1,1.088-1.088A1.088,1.088,0,0,1,104.927,190.594Zm0-4.7a1.088,1.088,0,1,1,1.088-1.088A1.088,1.088,0,0,1,104.927,185.9Zm0-4.7a1.088,1.088,0,1,1,1.088-1.088A1.088,1.088,0,0,1,104.927,181.2Zm0-4.7a1.088,1.088,0,1,1,1.088-1.088A1.088,1.088,0,0,1,104.927,176.5Zm0-4.7a1.088,1.088,0,1,1,1.088-1.088A1.088,1.088,0,0,1,104.927,171.8Zm0-4.7a1.088,1.088,0,1,1,1.088-1.088A1.088,1.088,0,0,1,104.927,167.1Zm0-4.7a1.088,1.088,0,1,1,1.088-1.088A1.088,1.088,0,0,1,104.927,162.4Zm0-4.7a1.088,1.088,0,1,1,1.088-1.088A1.088,1.088,0,0,1,104.927,157.7Zm0-4.7a1.088,1.088,0,1,1,1.088-1.088A1.088,1.088,0,0,1,104.927,153Zm0-4.7a1.088,1.088,0,1,1,1.088-1.088A1.088,1.088,0,0,1,104.927,148.3Zm0-4.7a1.088,1.088,0,1,1,1.088-1.088A1.088,1.088,0,0,1,104.927,143.606Zm0-4.7a1.088,1.088,0,1,1,1.088-1.088A1.088,1.088,0,0,1,104.927,138.907Zm0-4.7a1.088,1.088,0,1,1,1.088-1.088A1.088,1.088,0,0,1,104.927,134.208Zm0-4.7a1.088,1.088,0,1,1,1.088-1.088A1.088,1.088,0,0,1,104.927,129.509Zm0-4.7a1.088,1.088,0,1,1,1.088-1.088A1.088,1.088,0,0,1,104.927,124.81Zm0-4.7a1.088,1.088,0,1,1,1.088-1.088A1.088,1.088,0,0,1,104.927,120.111Zm0-4.7a1.088,1.088,0,1,1,1.088-1.088A1.088,1.088,0,0,1,104.927,115.413Zm0-4.7a1.088,1.088,0,1,1,1.088-1.088A1.088,1.088,0,0,1,104.927,110.714Zm0-4.7a1.088,1.088,0,1,1,1.088-1.088A1.088,1.088,0,0,1,104.927,106.015Zm0-4.7a1.088,1.088,0,1,1,1.088-1.088A1.088,1.088,0,0,1,104.927,101.316Zm0-4.7a1.088,1.088,0,1,1,1.088-1.088A1.088,1.088,0,0,1,104.927,96.617Zm0-4.7a1.088,1.088,0,1,1,1.088-1.088A1.088,1.088,0,0,1,104.927,91.918Zm0-4.7a1.088,1.088,0,1,1,1.088-1.088A1.088,1.088,0,0,1,104.927,87.22Zm0-4.7a1.088,1.088,0,1,1,1.088-1.088A1.088,1.088,0,0,1,104.927,82.521Zm0-4.7a1.088,1.088,0,1,1,1.088-1.088A1.088,1.088,0,0,1,104.927,77.822Zm0-4.7a1.088,1.088,0,1,1,1.088-1.088A1.088,1.088,0,0,1,104.927,73.123Zm0-4.7a1.088,1.088,0,1,1,1.088-1.088A1.088,1.088,0,0,1,104.927,68.424Zm0-4.7a1.088,1.088,0,1,1,1.088-1.088A1.088,1.088,0,0,1,104.927,63.725Zm0-4.7a1.088,1.088,0,1,1,1.088-1.088A1.088,1.088,0,0,1,104.927,59.027Zm0-4.7a1.088,1.088,0,1,1,1.088-1.088A1.088,1.088,0,0,1,104.927,54.328Zm0-4.7a1.088,1.088,0,1,1,1.088-1.088A1.088,1.088,0,0,1,104.927,49.629Zm0-4.7a1.088,1.088,0,1,1,1.088-1.088A1.088,1.088,0,0,1,104.927,44.93Zm0-4.7a1.088,1.088,0,1,1,1.088-1.088A1.088,1.088,0,0,1,104.927,40.231Zm4.7,155.062a1.088,1.088,0,1,1,1.088-1.088A1.088,1.088,0,0,1,109.626,195.293Zm0-4.7a1.088,1.088,0,1,1,1.088-1.088A1.088,1.088,0,0,1,109.626,190.594Zm0-4.7a1.088,1.088,0,1,1,1.088-1.088A1.088,1.088,0,0,1,109.626,185.9Zm0-4.7a1.088,1.088,0,1,1,1.088-1.088A1.088,1.088,0,0,1,109.626,181.2Zm0-4.7a1.088,1.088,0,1,1,1.088-1.088A1.088,1.088,0,0,1,109.626,176.5Zm0-4.7a1.088,1.088,0,1,1,1.088-1.088A1.088,1.088,0,0,1,109.626,171.8Zm0-4.7a1.088,1.088,0,1,1,1.088-1.088A1.088,1.088,0,0,1,109.626,167.1Zm0-4.7a1.088,1.088,0,1,1,1.088-1.088A1.088,1.088,0,0,1,109.626,162.4Zm0-4.7a1.088,1.088,0,1,1,1.088-1.088A1.088,1.088,0,0,1,109.626,157.7Zm0-4.7a1.088,1.088,0,1,1,1.088-1.088A1.088,1.088,0,0,1,109.626,153Zm0-4.7a1.088,1.088,0,1,1,1.088-1.088A1.088,1.088,0,0,1,109.626,148.3Zm0-4.7a1.088,1.088,0,1,1,1.088-1.088A1.088,1.088,0,0,1,109.626,143.606Zm0-4.7a1.088,1.088,0,1,1,1.088-1.088A1.088,1.088,0,0,1,109.626,138.907Zm0-4.7a1.088,1.088,0,1,1,1.088-1.088A1.088,1.088,0,0,1,109.626,134.208Zm0-4.7a1.088,1.088,0,1,1,1.088-1.088A1.088,1.088,0,0,1,109.626,129.509Zm0-4.7a1.088,1.088,0,1,1,1.088-1.088A1.088,1.088,0,0,1,109.626,124.81Zm0-4.7a1.088,1.088,0,1,1,1.088-1.088A1.088,1.088,0,0,1,109.626,120.111Zm0-4.7a1.088,1.088,0,1,1,1.088-1.088A1.088,1.088,0,0,1,109.626,115.413Zm0-4.7a1.088,1.088,0,1,1,1.088-1.088A1.088,1.088,0,0,1,109.626,110.714Zm0-4.7a1.088,1.088,0,1,1,1.088-1.088A1.088,1.088,0,0,1,109.626,106.015Zm0-4.7a1.088,1.088,0,1,1,1.088-1.088A1.088,1.088,0,0,1,109.626,101.316Zm0-4.7a1.088,1.088,0,1,1,1.088-1.088A1.088,1.088,0,0,1,109.626,96.617Zm0-4.7a1.088,1.088,0,1,1,1.088-1.088A1.088,1.088,0,0,1,109.626,91.918Zm0-4.7a1.088,1.088,0,1,1,1.088-1.088A1.088,1.088,0,0,1,109.626,87.22Zm0-4.7a1.088,1.088,0,1,1,1.088-1.088A1.088,1.088,0,0,1,109.626,82.521Zm0-4.7a1.088,1.088,0,1,1,1.088-1.088A1.088,1.088,0,0,1,109.626,77.822Zm0-4.7a1.088,1.088,0,1,1,1.088-1.088A1.088,1.088,0,0,1,109.626,73.123Zm0-4.7a1.088,1.088,0,1,1,1.088-1.088A1.088,1.088,0,0,1,109.626,68.424Zm0-4.7a1.088,1.088,0,1,1,1.088-1.088A1.088,1.088,0,0,1,109.626,63.725Zm0-4.7a1.088,1.088,0,1,1,1.088-1.088A1.088,1.088,0,0,1,109.626,59.027Zm0-4.7a1.088,1.088,0,1,1,1.088-1.088A1.088,1.088,0,0,1,109.626,54.328Zm0-4.7a1.088,1.088,0,1,1,1.088-1.088A1.088,1.088,0,0,1,109.626,49.629Zm0-4.7a1.088,1.088,0,1,1,1.088-1.088A1.088,1.088,0,0,1,109.626,44.93Zm0-4.7a1.088,1.088,0,1,1,1.088-1.088A1.088,1.088,0,0,1,109.626,40.231Zm4.7,155.062a1.088,1.088,0,1,1,1.088-1.088A1.088,1.088,0,0,1,114.325,195.293Zm0-4.7a1.088,1.088,0,1,1,1.088-1.088A1.088,1.088,0,0,1,114.325,190.594Zm0-4.7a1.088,1.088,0,1,1,1.088-1.088A1.088,1.088,0,0,1,114.325,185.9Zm0-4.7a1.088,1.088,0,1,1,1.088-1.088A1.088,1.088,0,0,1,114.325,181.2Zm0-4.7a1.088,1.088,0,1,1,1.088-1.088A1.088,1.088,0,0,1,114.325,176.5Zm0-4.7a1.088,1.088,0,1,1,1.088-1.088A1.088,1.088,0,0,1,114.325,171.8Zm0-4.7a1.088,1.088,0,1,1,1.088-1.088A1.088,1.088,0,0,1,114.325,167.1Zm0-4.7a1.088,1.088,0,1,1,1.088-1.088A1.088,1.088,0,0,1,114.325,162.4Zm0-4.7a1.088,1.088,0,1,1,1.088-1.088A1.088,1.088,0,0,1,114.325,157.7Zm0-4.7a1.088,1.088,0,1,1,1.088-1.088A1.088,1.088,0,0,1,114.325,153Zm0-4.7a1.088,1.088,0,1,1,1.088-1.088A1.088,1.088,0,0,1,114.325,148.3Zm0-4.7a1.088,1.088,0,1,1,1.088-1.088A1.088,1.088,0,0,1,114.325,143.606Zm0-4.7a1.088,1.088,0,1,1,1.088-1.088A1.088,1.088,0,0,1,114.325,138.907Zm0-4.7a1.088,1.088,0,1,1,1.088-1.088A1.088,1.088,0,0,1,114.325,134.208Zm0-4.7a1.088,1.088,0,1,1,1.088-1.088A1.088,1.088,0,0,1,114.325,129.509Zm0-4.7a1.088,1.088,0,1,1,1.088-1.088A1.088,1.088,0,0,1,114.325,124.81Zm0-4.7a1.088,1.088,0,1,1,1.088-1.088A1.088,1.088,0,0,1,114.325,120.111Zm0-4.7a1.088,1.088,0,1,1,1.088-1.088A1.088,1.088,0,0,1,114.325,115.413Zm0-4.7a1.088,1.088,0,1,1,1.088-1.088A1.088,1.088,0,0,1,114.325,110.714Zm0-4.7a1.088,1.088,0,1,1,1.088-1.088A1.088,1.088,0,0,1,114.325,106.015Zm0-4.7a1.088,1.088,0,1,1,1.088-1.088A1.088,1.088,0,0,1,114.325,101.316Zm0-4.7a1.088,1.088,0,1,1,1.088-1.088A1.088,1.088,0,0,1,114.325,96.617Zm0-4.7a1.088,1.088,0,1,1,1.088-1.088A1.088,1.088,0,0,1,114.325,91.918Zm0-4.7a1.088,1.088,0,1,1,1.088-1.088A1.088,1.088,0,0,1,114.325,87.22Zm0-4.7a1.088,1.088,0,1,1,1.088-1.088A1.088,1.088,0,0,1,114.325,82.521Zm0-4.7a1.088,1.088,0,1,1,1.088-1.088A1.088,1.088,0,0,1,114.325,77.822Zm0-4.7a1.088,1.088,0,1,1,1.088-1.088A1.088,1.088,0,0,1,114.325,73.123Zm0-4.7a1.088,1.088,0,1,1,1.088-1.088A1.088,1.088,0,0,1,114.325,68.424Zm0-4.7a1.088,1.088,0,1,1,1.088-1.088A1.088,1.088,0,0,1,114.325,63.725Zm0-4.7a1.088,1.088,0,1,1,1.088-1.088A1.088,1.088,0,0,1,114.325,59.027Zm0-4.7a1.088,1.088,0,1,1,1.088-1.088A1.088,1.088,0,0,1,114.325,54.328Zm0-4.7a1.088,1.088,0,1,1,1.088-1.088A1.088,1.088,0,0,1,114.325,49.629Zm0-4.7a1.088,1.088,0,1,1,1.088-1.088A1.088,1.088,0,0,1,114.325,44.93Zm0-4.7a1.088,1.088,0,1,1,1.088-1.088A1.088,1.088,0,0,1,114.325,40.231Zm4.7,155.062a1.088,1.088,0,1,1,1.088-1.088A1.088,1.088,0,0,1,119.024,195.293Zm0-4.7a1.088,1.088,0,1,1,1.088-1.088A1.088,1.088,0,0,1,119.024,190.594Zm0-4.7a1.088,1.088,0,1,1,1.088-1.088A1.088,1.088,0,0,1,119.024,185.9Zm0-4.7a1.088,1.088,0,1,1,1.088-1.088A1.088,1.088,0,0,1,119.024,181.2Zm0-4.7a1.088,1.088,0,1,1,1.088-1.088A1.088,1.088,0,0,1,119.024,176.5Zm0-4.7a1.088,1.088,0,1,1,1.088-1.088A1.088,1.088,0,0,1,119.024,171.8Zm0-4.7a1.088,1.088,0,1,1,1.088-1.088A1.088,1.088,0,0,1,119.024,167.1Zm0-4.7a1.088,1.088,0,1,1,1.088-1.088A1.088,1.088,0,0,1,119.024,162.4Zm0-4.7a1.088,1.088,0,1,1,1.088-1.088A1.088,1.088,0,0,1,119.024,157.7Zm0-4.7a1.088,1.088,0,1,1,1.088-1.088A1.088,1.088,0,0,1,119.024,153Zm0-4.7a1.088,1.088,0,1,1,1.088-1.088A1.088,1.088,0,0,1,119.024,148.3Zm0-4.7a1.088,1.088,0,1,1,1.088-1.088A1.088,1.088,0,0,1,119.024,143.606Zm0-4.7a1.088,1.088,0,1,1,1.088-1.088A1.088,1.088,0,0,1,119.024,138.907Zm0-4.7a1.088,1.088,0,1,1,1.088-1.088A1.088,1.088,0,0,1,119.024,134.208Zm0-4.7a1.088,1.088,0,1,1,1.088-1.088A1.088,1.088,0,0,1,119.024,129.509Zm0-4.7a1.088,1.088,0,1,1,1.088-1.088A1.088,1.088,0,0,1,119.024,124.81Zm0-4.7a1.088,1.088,0,1,1,1.088-1.088A1.088,1.088,0,0,1,119.024,120.111Zm0-4.7a1.088,1.088,0,1,1,1.088-1.088A1.088,1.088,0,0,1,119.024,115.413Zm0-4.7a1.088,1.088,0,1,1,1.088-1.088A1.088,1.088,0,0,1,119.024,110.714Zm0-4.7a1.088,1.088,0,1,1,1.088-1.088A1.088,1.088,0,0,1,119.024,106.015Zm0-4.7a1.088,1.088,0,1,1,1.088-1.088A1.088,1.088,0,0,1,119.024,101.316Zm0-4.7a1.088,1.088,0,1,1,1.088-1.088A1.088,1.088,0,0,1,119.024,96.617Zm0-4.7a1.088,1.088,0,1,1,1.088-1.088A1.088,1.088,0,0,1,119.024,91.918Zm0-4.7a1.088,1.088,0,1,1,1.088-1.088A1.088,1.088,0,0,1,119.024,87.22Zm0-4.7a1.088,1.088,0,1,1,1.088-1.088A1.088,1.088,0,0,1,119.024,82.521Zm0-4.7a1.088,1.088,0,1,1,1.088-1.088A1.088,1.088,0,0,1,119.024,77.822Zm0-4.7a1.088,1.088,0,1,1,1.088-1.088A1.088,1.088,0,0,1,119.024,73.123Zm0-4.7a1.088,1.088,0,1,1,1.088-1.088A1.088,1.088,0,0,1,119.024,68.424Zm0-4.7a1.088,1.088,0,1,1,1.088-1.088A1.088,1.088,0,0,1,119.024,63.725Zm0-4.7a1.088,1.088,0,1,1,1.088-1.088A1.088,1.088,0,0,1,119.024,59.027Zm0-4.7a1.088,1.088,0,1,1,1.088-1.088A1.088,1.088,0,0,1,119.024,54.328Zm0-4.7a1.088,1.088,0,1,1,1.088-1.088A1.088,1.088,0,0,1,119.024,49.629Zm0-4.7a1.088,1.088,0,1,1,1.088-1.088A1.088,1.088,0,0,1,119.024,44.93Zm0-4.7a1.088,1.088,0,1,1,1.088-1.088A1.088,1.088,0,0,1,119.024,40.231Zm4.7,155.062a1.088,1.088,0,1,1,1.088-1.088A1.088,1.088,0,0,1,123.723,195.293Zm0-4.7a1.088,1.088,0,1,1,1.088-1.088A1.088,1.088,0,0,1,123.723,190.594Zm0-4.7a1.088,1.088,0,1,1,1.088-1.088A1.088,1.088,0,0,1,123.723,185.9Zm0-4.7a1.088,1.088,0,1,1,1.088-1.088A1.088,1.088,0,0,1,123.723,181.2Zm0-4.7a1.088,1.088,0,1,1,1.088-1.088A1.088,1.088,0,0,1,123.723,176.5Zm0-4.7a1.088,1.088,0,1,1,1.088-1.088A1.088,1.088,0,0,1,123.723,171.8Zm0-4.7a1.088,1.088,0,1,1,1.088-1.088A1.088,1.088,0,0,1,123.723,167.1Zm0-4.7a1.088,1.088,0,1,1,1.088-1.088A1.088,1.088,0,0,1,123.723,162.4Zm0-4.7a1.088,1.088,0,1,1,1.088-1.088A1.088,1.088,0,0,1,123.723,157.7Zm0-4.7a1.088,1.088,0,1,1,1.088-1.088A1.088,1.088,0,0,1,123.723,153Zm0-4.7a1.088,1.088,0,1,1,1.088-1.088A1.088,1.088,0,0,1,123.723,148.3Zm0-4.7a1.088,1.088,0,1,1,1.088-1.088A1.088,1.088,0,0,1,123.723,143.606Zm0-4.7a1.088,1.088,0,1,1,1.088-1.088A1.088,1.088,0,0,1,123.723,138.907Zm0-4.7a1.088,1.088,0,1,1,1.088-1.088A1.088,1.088,0,0,1,123.723,134.208Zm0-4.7a1.088,1.088,0,1,1,1.088-1.088A1.088,1.088,0,0,1,123.723,129.509Zm0-4.7a1.088,1.088,0,1,1,1.088-1.088A1.088,1.088,0,0,1,123.723,124.81Zm0-4.7a1.088,1.088,0,1,1,1.088-1.088A1.088,1.088,0,0,1,123.723,120.111Zm0-4.7a1.088,1.088,0,1,1,1.088-1.088A1.088,1.088,0,0,1,123.723,115.413Zm0-4.7a1.088,1.088,0,1,1,1.088-1.088A1.088,1.088,0,0,1,123.723,110.714Zm0-4.7a1.088,1.088,0,1,1,1.088-1.088A1.088,1.088,0,0,1,123.723,106.015Zm0-4.7a1.088,1.088,0,1,1,1.088-1.088A1.088,1.088,0,0,1,123.723,101.316Zm0-4.7a1.088,1.088,0,1,1,1.088-1.088A1.088,1.088,0,0,1,123.723,96.617Zm0-4.7a1.088,1.088,0,1,1,1.088-1.088A1.088,1.088,0,0,1,123.723,91.918Zm0-4.7a1.088,1.088,0,1,1,1.088-1.088A1.088,1.088,0,0,1,123.723,87.22Zm0-4.7a1.088,1.088,0,1,1,1.088-1.088A1.088,1.088,0,0,1,123.723,82.521Zm0-4.7a1.088,1.088,0,1,1,1.088-1.088A1.088,1.088,0,0,1,123.723,77.822Zm0-4.7a1.088,1.088,0,1,1,1.088-1.088A1.088,1.088,0,0,1,123.723,73.123Zm0-4.7a1.088,1.088,0,1,1,1.088-1.088A1.088,1.088,0,0,1,123.723,68.424Zm0-4.7a1.088,1.088,0,1,1,1.088-1.088A1.088,1.088,0,0,1,123.723,63.725Zm0-4.7a1.088,1.088,0,1,1,1.088-1.088A1.088,1.088,0,0,1,123.723,59.027Zm0-4.7a1.088,1.088,0,1,1,1.088-1.088A1.088,1.088,0,0,1,123.723,54.328Zm0-4.7a1.088,1.088,0,1,1,1.088-1.088A1.088,1.088,0,0,1,123.723,49.629Zm0-4.7a1.088,1.088,0,1,1,1.088-1.088A1.088,1.088,0,0,1,123.723,44.93Zm0-4.7a1.088,1.088,0,1,1,1.088-1.088A1.088,1.088,0,0,1,123.723,40.231Zm4.7,155.062a1.088,1.088,0,1,1,1.088-1.088A1.088,1.088,0,0,1,128.422,195.293Zm0-4.7a1.088,1.088,0,1,1,1.088-1.088A1.088,1.088,0,0,1,128.422,190.594Zm0-4.7a1.088,1.088,0,1,1,1.088-1.088A1.088,1.088,0,0,1,128.422,185.9Zm0-4.7a1.088,1.088,0,1,1,1.088-1.088A1.088,1.088,0,0,1,128.422,181.2Zm0-4.7a1.088,1.088,0,1,1,1.088-1.088A1.088,1.088,0,0,1,128.422,176.5Zm0-4.7a1.088,1.088,0,1,1,1.088-1.088A1.088,1.088,0,0,1,128.422,171.8Zm0-4.7a1.088,1.088,0,1,1,1.088-1.088A1.088,1.088,0,0,1,128.422,167.1Zm0-4.7a1.088,1.088,0,1,1,1.088-1.088A1.088,1.088,0,0,1,128.422,162.4Zm0-4.7a1.088,1.088,0,1,1,1.088-1.088A1.088,1.088,0,0,1,128.422,157.7Zm0-4.7a1.088,1.088,0,1,1,1.088-1.088A1.088,1.088,0,0,1,128.422,153Zm0-4.7a1.088,1.088,0,1,1,1.088-1.088A1.088,1.088,0,0,1,128.422,148.3Zm0-4.7a1.088,1.088,0,1,1,1.088-1.088A1.088,1.088,0,0,1,128.422,143.606Zm0-4.7a1.088,1.088,0,1,1,1.088-1.088A1.088,1.088,0,0,1,128.422,138.907Zm0-4.7a1.088,1.088,0,1,1,1.088-1.088A1.088,1.088,0,0,1,128.422,134.208Zm0-4.7a1.088,1.088,0,1,1,1.088-1.088A1.088,1.088,0,0,1,128.422,129.509Zm0-4.7a1.088,1.088,0,1,1,1.088-1.088A1.088,1.088,0,0,1,128.422,124.81Zm0-4.7a1.088,1.088,0,1,1,1.088-1.088A1.088,1.088,0,0,1,128.422,120.111Zm0-4.7a1.088,1.088,0,1,1,1.088-1.088A1.088,1.088,0,0,1,128.422,115.413Zm0-4.7a1.088,1.088,0,1,1,1.088-1.088A1.088,1.088,0,0,1,128.422,110.714Zm0-4.7a1.088,1.088,0,1,1,1.088-1.088A1.088,1.088,0,0,1,128.422,106.015Zm0-4.7a1.088,1.088,0,1,1,1.088-1.088A1.088,1.088,0,0,1,128.422,101.316Zm0-4.7a1.088,1.088,0,1,1,1.088-1.088A1.088,1.088,0,0,1,128.422,96.617Zm0-4.7a1.088,1.088,0,1,1,1.088-1.088A1.088,1.088,0,0,1,128.422,91.918Zm0-4.7a1.088,1.088,0,1,1,1.088-1.088A1.088,1.088,0,0,1,128.422,87.22Zm0-4.7a1.088,1.088,0,1,1,1.088-1.088A1.088,1.088,0,0,1,128.422,82.521Zm0-4.7a1.088,1.088,0,1,1,1.088-1.088A1.088,1.088,0,0,1,128.422,77.822Zm0-4.7a1.088,1.088,0,1,1,1.088-1.088A1.088,1.088,0,0,1,128.422,73.123Zm0-4.7a1.088,1.088,0,1,1,1.088-1.088A1.088,1.088,0,0,1,128.422,68.424Zm0-4.7a1.088,1.088,0,1,1,1.088-1.088A1.088,1.088,0,0,1,128.422,63.725Zm0-4.7a1.088,1.088,0,1,1,1.088-1.088A1.088,1.088,0,0,1,128.422,59.027Zm0-4.7a1.088,1.088,0,1,1,1.088-1.088A1.088,1.088,0,0,1,128.422,54.328Zm0-4.7a1.088,1.088,0,1,1,1.088-1.088A1.088,1.088,0,0,1,128.422,49.629Zm0-4.7a1.088,1.088,0,1,1,1.088-1.088A1.088,1.088,0,0,1,128.422,44.93Zm0-4.7a1.088,1.088,0,1,1,1.088-1.088A1.088,1.088,0,0,1,128.422,40.231Zm4.7,155.062a1.088,1.088,0,1,1,1.088-1.088A1.088,1.088,0,0,1,133.12,195.293Zm0-4.7a1.088,1.088,0,1,1,1.088-1.088A1.088,1.088,0,0,1,133.12,190.594Zm0-4.7a1.088,1.088,0,1,1,1.088-1.088A1.088,1.088,0,0,1,133.12,185.9Zm0-4.7a1.088,1.088,0,1,1,1.088-1.088A1.088,1.088,0,0,1,133.12,181.2Zm0-4.7a1.088,1.088,0,1,1,1.088-1.088A1.088,1.088,0,0,1,133.12,176.5Zm0-4.7a1.088,1.088,0,1,1,1.088-1.088A1.088,1.088,0,0,1,133.12,171.8Zm0-4.7a1.088,1.088,0,1,1,1.088-1.088A1.088,1.088,0,0,1,133.12,167.1Zm0-4.7a1.088,1.088,0,1,1,1.088-1.088A1.088,1.088,0,0,1,133.12,162.4Zm0-4.7a1.088,1.088,0,1,1,1.088-1.088A1.088,1.088,0,0,1,133.12,157.7Zm0-4.7a1.088,1.088,0,1,1,1.088-1.088A1.088,1.088,0,0,1,133.12,153Zm0-4.7a1.088,1.088,0,1,1,1.088-1.088A1.088,1.088,0,0,1,133.12,148.3Zm0-4.7a1.088,1.088,0,1,1,1.088-1.088A1.088,1.088,0,0,1,133.12,143.606Zm0-4.7a1.088,1.088,0,1,1,1.088-1.088A1.088,1.088,0,0,1,133.12,138.907Zm0-4.7a1.088,1.088,0,1,1,1.088-1.088A1.088,1.088,0,0,1,133.12,134.208Zm0-4.7a1.088,1.088,0,1,1,1.088-1.088A1.088,1.088,0,0,1,133.12,129.509Zm0-4.7a1.088,1.088,0,1,1,1.088-1.088A1.088,1.088,0,0,1,133.12,124.81Zm0-4.7a1.088,1.088,0,1,1,1.088-1.088A1.088,1.088,0,0,1,133.12,120.111Zm0-4.7a1.088,1.088,0,1,1,1.088-1.088A1.088,1.088,0,0,1,133.12,115.413Zm0-4.7a1.088,1.088,0,1,1,1.088-1.088A1.088,1.088,0,0,1,133.12,110.714Zm0-4.7a1.088,1.088,0,1,1,1.088-1.088A1.088,1.088,0,0,1,133.12,106.015Zm0-4.7a1.088,1.088,0,1,1,1.088-1.088A1.088,1.088,0,0,1,133.12,101.316Zm0-4.7a1.088,1.088,0,1,1,1.088-1.088A1.088,1.088,0,0,1,133.12,96.617Zm0-4.7a1.088,1.088,0,1,1,1.088-1.088A1.088,1.088,0,0,1,133.12,91.918Zm0-4.7a1.088,1.088,0,1,1,1.088-1.088A1.088,1.088,0,0,1,133.12,87.22Zm0-4.7a1.088,1.088,0,1,1,1.088-1.088A1.088,1.088,0,0,1,133.12,82.521Zm0-4.7a1.088,1.088,0,1,1,1.088-1.088A1.088,1.088,0,0,1,133.12,77.822Zm0-4.7a1.088,1.088,0,1,1,1.088-1.088A1.088,1.088,0,0,1,133.12,73.123Zm0-4.7a1.088,1.088,0,1,1,1.088-1.088A1.088,1.088,0,0,1,133.12,68.424Zm0-4.7a1.088,1.088,0,1,1,1.088-1.088A1.088,1.088,0,0,1,133.12,63.725Zm0-4.7a1.088,1.088,0,1,1,1.088-1.088A1.088,1.088,0,0,1,133.12,59.027Zm0-4.7a1.088,1.088,0,1,1,1.088-1.088A1.088,1.088,0,0,1,133.12,54.328Zm0-4.7a1.088,1.088,0,1,1,1.088-1.088A1.088,1.088,0,0,1,133.12,49.629Zm0-4.7a1.088,1.088,0,1,1,1.088-1.088A1.088,1.088,0,0,1,133.12,44.93Zm0-4.7a1.088,1.088,0,1,1,1.088-1.088A1.088,1.088,0,0,1,133.12,40.231Zm4.7,150.363a1.088,1.088,0,1,1,1.088-1.088A1.088,1.088,0,0,1,137.819,190.594Zm0-4.7a1.088,1.088,0,1,1,1.088-1.088A1.088,1.088,0,0,1,137.819,185.9Zm0-4.7a1.088,1.088,0,1,1,1.088-1.088A1.088,1.088,0,0,1,137.819,181.2Zm0-4.7a1.088,1.088,0,1,1,1.088-1.088A1.088,1.088,0,0,1,137.819,176.5Zm0-4.7a1.088,1.088,0,1,1,1.088-1.088A1.088,1.088,0,0,1,137.819,171.8Zm0-4.7a1.088,1.088,0,1,1,1.088-1.088A1.088,1.088,0,0,1,137.819,167.1Zm0-4.7a1.088,1.088,0,1,1,1.088-1.088A1.088,1.088,0,0,1,137.819,162.4Zm0-4.7a1.088,1.088,0,1,1,1.088-1.088A1.088,1.088,0,0,1,137.819,157.7Zm0-4.7a1.088,1.088,0,1,1,1.088-1.088A1.088,1.088,0,0,1,137.819,153Zm0-4.7a1.088,1.088,0,1,1,1.088-1.088A1.088,1.088,0,0,1,137.819,148.3Zm0-4.7a1.088,1.088,0,1,1,1.088-1.088A1.088,1.088,0,0,1,137.819,143.606Zm0-4.7a1.088,1.088,0,1,1,1.088-1.088A1.088,1.088,0,0,1,137.819,138.907Zm0-4.7a1.088,1.088,0,1,1,1.088-1.088A1.088,1.088,0,0,1,137.819,134.208Zm0-4.7a1.088,1.088,0,1,1,1.088-1.088A1.088,1.088,0,0,1,137.819,129.509Zm0-4.7a1.088,1.088,0,1,1,1.088-1.088A1.088,1.088,0,0,1,137.819,124.81Zm0-4.7a1.088,1.088,0,1,1,1.088-1.088A1.088,1.088,0,0,1,137.819,120.111Zm0-4.7a1.088,1.088,0,1,1,1.088-1.088A1.088,1.088,0,0,1,137.819,115.413Zm0-4.7a1.088,1.088,0,1,1,1.088-1.088A1.088,1.088,0,0,1,137.819,110.714Zm0-4.7a1.088,1.088,0,1,1,1.088-1.088A1.088,1.088,0,0,1,137.819,106.015Zm0-4.7a1.088,1.088,0,1,1,1.088-1.088A1.088,1.088,0,0,1,137.819,101.316Zm0-4.7a1.088,1.088,0,1,1,1.088-1.088A1.088,1.088,0,0,1,137.819,96.617Zm0-4.7a1.088,1.088,0,1,1,1.088-1.088A1.088,1.088,0,0,1,137.819,91.918Zm0-4.7a1.088,1.088,0,1,1,1.088-1.088A1.088,1.088,0,0,1,137.819,87.22Zm0-4.7a1.088,1.088,0,1,1,1.088-1.088A1.088,1.088,0,0,1,137.819,82.521Zm0-4.7a1.088,1.088,0,1,1,1.088-1.088A1.088,1.088,0,0,1,137.819,77.822Zm0-4.7a1.088,1.088,0,1,1,1.088-1.088A1.088,1.088,0,0,1,137.819,73.123Zm0-4.7a1.088,1.088,0,1,1,1.088-1.088A1.088,1.088,0,0,1,137.819,68.424Zm0-4.7a1.088,1.088,0,1,1,1.088-1.088A1.088,1.088,0,0,1,137.819,63.725Zm0-4.7a1.088,1.088,0,1,1,1.088-1.088A1.088,1.088,0,0,1,137.819,59.027Zm0-4.7a1.088,1.088,0,1,1,1.088-1.088A1.088,1.088,0,0,1,137.819,54.328Zm0-4.7a1.088,1.088,0,1,1,1.088-1.088A1.088,1.088,0,0,1,137.819,49.629Zm0-4.7a1.088,1.088,0,1,1,1.088-1.088A1.088,1.088,0,0,1,137.819,44.93Zm4.7,145.664a1.088,1.088,0,1,1,1.088-1.088A1.088,1.088,0,0,1,142.518,190.594Zm0-4.7a1.088,1.088,0,1,1,1.088-1.088A1.088,1.088,0,0,1,142.518,185.9Zm0-4.7a1.088,1.088,0,1,1,1.088-1.088A1.088,1.088,0,0,1,142.518,181.2Zm0-4.7a1.088,1.088,0,1,1,1.088-1.088A1.088,1.088,0,0,1,142.518,176.5Zm0-4.7a1.088,1.088,0,1,1,1.088-1.088A1.088,1.088,0,0,1,142.518,171.8Zm0-4.7a1.088,1.088,0,1,1,1.088-1.088A1.088,1.088,0,0,1,142.518,167.1Zm0-4.7a1.088,1.088,0,1,1,1.088-1.088A1.088,1.088,0,0,1,142.518,162.4Zm0-4.7a1.088,1.088,0,1,1,1.088-1.088A1.088,1.088,0,0,1,142.518,157.7Zm0-4.7a1.088,1.088,0,1,1,1.088-1.088A1.088,1.088,0,0,1,142.518,153Zm0-4.7a1.088,1.088,0,1,1,1.088-1.088A1.088,1.088,0,0,1,142.518,148.3Zm0-4.7a1.088,1.088,0,1,1,1.088-1.088A1.088,1.088,0,0,1,142.518,143.606Zm0-4.7a1.088,1.088,0,1,1,1.088-1.088A1.088,1.088,0,0,1,142.518,138.907Zm0-4.7a1.088,1.088,0,1,1,1.088-1.088A1.088,1.088,0,0,1,142.518,134.208Zm0-4.7a1.088,1.088,0,1,1,1.088-1.088A1.088,1.088,0,0,1,142.518,129.509Zm0-4.7a1.088,1.088,0,1,1,1.088-1.088A1.088,1.088,0,0,1,142.518,124.81Zm0-4.7a1.088,1.088,0,1,1,1.088-1.088A1.088,1.088,0,0,1,142.518,120.111Zm0-4.7a1.088,1.088,0,1,1,1.088-1.088A1.088,1.088,0,0,1,142.518,115.413Zm0-4.7a1.088,1.088,0,1,1,1.088-1.088A1.088,1.088,0,0,1,142.518,110.714Zm0-4.7a1.088,1.088,0,1,1,1.088-1.088A1.088,1.088,0,0,1,142.518,106.015Zm0-4.7a1.088,1.088,0,1,1,1.088-1.088A1.088,1.088,0,0,1,142.518,101.316Zm0-4.7a1.088,1.088,0,1,1,1.088-1.088A1.088,1.088,0,0,1,142.518,96.617Zm0-4.7a1.088,1.088,0,1,1,1.088-1.088A1.088,1.088,0,0,1,142.518,91.918Zm0-4.7a1.088,1.088,0,1,1,1.088-1.088A1.088,1.088,0,0,1,142.518,87.22Zm0-4.7a1.088,1.088,0,1,1,1.088-1.088A1.088,1.088,0,0,1,142.518,82.521Zm0-4.7a1.088,1.088,0,1,1,1.088-1.088A1.088,1.088,0,0,1,142.518,77.822Zm0-4.7a1.088,1.088,0,1,1,1.088-1.088A1.088,1.088,0,0,1,142.518,73.123Zm0-4.7a1.088,1.088,0,1,1,1.088-1.088A1.088,1.088,0,0,1,142.518,68.424Zm0-4.7a1.088,1.088,0,1,1,1.088-1.088A1.088,1.088,0,0,1,142.518,63.725Zm0-4.7a1.088,1.088,0,1,1,1.088-1.088A1.088,1.088,0,0,1,142.518,59.027Zm0-4.7a1.088,1.088,0,1,1,1.088-1.088A1.088,1.088,0,0,1,142.518,54.328Zm0-4.7a1.088,1.088,0,1,1,1.088-1.088A1.088,1.088,0,0,1,142.518,49.629Zm0-4.7a1.088,1.088,0,1,1,1.088-1.088A1.088,1.088,0,0,1,142.518,44.93Zm4.7,145.664a1.088,1.088,0,1,1,1.088-1.088A1.088,1.088,0,0,1,147.217,190.594Zm0-4.7a1.088,1.088,0,1,1,1.088-1.088A1.088,1.088,0,0,1,147.217,185.9Zm0-4.7a1.088,1.088,0,1,1,1.088-1.088A1.088,1.088,0,0,1,147.217,181.2Zm0-4.7a1.088,1.088,0,1,1,1.088-1.088A1.088,1.088,0,0,1,147.217,176.5Zm0-4.7a1.088,1.088,0,1,1,1.088-1.088A1.088,1.088,0,0,1,147.217,171.8Zm0-4.7a1.088,1.088,0,1,1,1.088-1.088A1.088,1.088,0,0,1,147.217,167.1Zm0-4.7a1.088,1.088,0,1,1,1.088-1.088A1.088,1.088,0,0,1,147.217,162.4Zm0-4.7a1.088,1.088,0,1,1,1.088-1.088A1.088,1.088,0,0,1,147.217,157.7Zm0-4.7a1.088,1.088,0,1,1,1.088-1.088A1.088,1.088,0,0,1,147.217,153Zm0-4.7a1.088,1.088,0,1,1,1.088-1.088A1.088,1.088,0,0,1,147.217,148.3Zm0-4.7a1.088,1.088,0,1,1,1.088-1.088A1.088,1.088,0,0,1,147.217,143.606Zm0-4.7a1.088,1.088,0,1,1,1.088-1.088A1.088,1.088,0,0,1,147.217,138.907Zm0-4.7a1.088,1.088,0,1,1,1.088-1.088A1.088,1.088,0,0,1,147.217,134.208Zm0-4.7a1.088,1.088,0,1,1,1.088-1.088A1.088,1.088,0,0,1,147.217,129.509Zm0-4.7a1.088,1.088,0,1,1,1.088-1.088A1.088,1.088,0,0,1,147.217,124.81Zm0-4.7a1.088,1.088,0,1,1,1.088-1.088A1.088,1.088,0,0,1,147.217,120.111Zm0-4.7a1.088,1.088,0,1,1,1.088-1.088A1.088,1.088,0,0,1,147.217,115.413Zm0-4.7a1.088,1.088,0,1,1,1.088-1.088A1.088,1.088,0,0,1,147.217,110.714Zm0-4.7a1.088,1.088,0,1,1,1.088-1.088A1.088,1.088,0,0,1,147.217,106.015Zm0-4.7a1.088,1.088,0,1,1,1.088-1.088A1.088,1.088,0,0,1,147.217,101.316Zm0-4.7A1.088,1.088,0,1,1,148.3,95.53,1.088,1.088,0,0,1,147.217,96.617Zm0-4.7a1.088,1.088,0,1,1,1.088-1.088A1.088,1.088,0,0,1,147.217,91.918Zm0-4.7a1.088,1.088,0,1,1,1.088-1.088A1.088,1.088,0,0,1,147.217,87.22Zm0-4.7a1.088,1.088,0,1,1,1.088-1.088A1.088,1.088,0,0,1,147.217,82.521Zm0-4.7a1.088,1.088,0,1,1,1.088-1.088A1.088,1.088,0,0,1,147.217,77.822Zm0-4.7a1.088,1.088,0,1,1,1.088-1.088A1.088,1.088,0,0,1,147.217,73.123Zm0-4.7a1.088,1.088,0,1,1,1.088-1.088A1.088,1.088,0,0,1,147.217,68.424Zm0-4.7a1.088,1.088,0,1,1,1.088-1.088A1.088,1.088,0,0,1,147.217,63.725Zm0-4.7a1.088,1.088,0,1,1,1.088-1.088A1.088,1.088,0,0,1,147.217,59.027Zm0-4.7A1.088,1.088,0,1,1,148.3,53.24,1.088,1.088,0,0,1,147.217,54.328Zm0-4.7a1.088,1.088,0,1,1,1.088-1.088A1.088,1.088,0,0,1,147.217,49.629Zm0-4.7a1.088,1.088,0,1,1,1.088-1.088A1.088,1.088,0,0,1,147.217,44.93Zm4.7,140.965A1.088,1.088,0,1,1,153,184.808,1.088,1.088,0,0,1,151.916,185.9Zm0-4.7A1.088,1.088,0,1,1,153,180.109,1.088,1.088,0,0,1,151.916,181.2Zm0-4.7A1.088,1.088,0,1,1,153,175.41,1.088,1.088,0,0,1,151.916,176.5Zm0-4.7A1.088,1.088,0,1,1,153,170.711,1.088,1.088,0,0,1,151.916,171.8Zm0-4.7A1.088,1.088,0,1,1,153,166.012,1.088,1.088,0,0,1,151.916,167.1Zm0-4.7A1.088,1.088,0,1,1,153,161.313,1.088,1.088,0,0,1,151.916,162.4Zm0-4.7A1.088,1.088,0,1,1,153,156.615,1.088,1.088,0,0,1,151.916,157.7Zm0-4.7A1.088,1.088,0,1,1,153,151.916,1.088,1.088,0,0,1,151.916,153Zm0-4.7A1.088,1.088,0,1,1,153,147.217,1.088,1.088,0,0,1,151.916,148.3Zm0-4.7A1.088,1.088,0,1,1,153,142.518,1.088,1.088,0,0,1,151.916,143.606Zm0-4.7A1.088,1.088,0,1,1,153,137.819,1.088,1.088,0,0,1,151.916,138.907Zm0-4.7A1.088,1.088,0,1,1,153,133.12,1.088,1.088,0,0,1,151.916,134.208Zm0-4.7A1.088,1.088,0,1,1,153,128.422,1.088,1.088,0,0,1,151.916,129.509Zm0-4.7A1.088,1.088,0,1,1,153,123.723,1.088,1.088,0,0,1,151.916,124.81Zm0-4.7A1.088,1.088,0,1,1,153,119.024,1.088,1.088,0,0,1,151.916,120.111Zm0-4.7A1.088,1.088,0,1,1,153,114.325,1.088,1.088,0,0,1,151.916,115.413Zm0-4.7A1.088,1.088,0,1,1,153,109.626,1.088,1.088,0,0,1,151.916,110.714Zm0-4.7A1.088,1.088,0,1,1,153,104.927,1.088,1.088,0,0,1,151.916,106.015Zm0-4.7A1.088,1.088,0,1,1,153,100.229,1.088,1.088,0,0,1,151.916,101.316Zm0-4.7A1.088,1.088,0,1,1,153,95.53,1.088,1.088,0,0,1,151.916,96.617Zm0-4.7A1.088,1.088,0,1,1,153,90.831,1.088,1.088,0,0,1,151.916,91.918Zm0-4.7A1.088,1.088,0,1,1,153,86.132,1.088,1.088,0,0,1,151.916,87.22Zm0-4.7A1.088,1.088,0,1,1,153,81.433,1.088,1.088,0,0,1,151.916,82.521Zm0-4.7A1.088,1.088,0,1,1,153,76.734,1.088,1.088,0,0,1,151.916,77.822Zm0-4.7A1.088,1.088,0,1,1,153,72.035,1.088,1.088,0,0,1,151.916,73.123Zm0-4.7A1.088,1.088,0,1,1,153,67.337,1.088,1.088,0,0,1,151.916,68.424Zm0-4.7A1.088,1.088,0,1,1,153,62.638,1.088,1.088,0,0,1,151.916,63.725Zm0-4.7A1.088,1.088,0,1,1,153,57.939,1.088,1.088,0,0,1,151.916,59.027Zm0-4.7A1.088,1.088,0,1,1,153,53.24,1.088,1.088,0,0,1,151.916,54.328Zm0-4.7A1.088,1.088,0,1,1,153,48.541,1.088,1.088,0,0,1,151.916,49.629Zm4.7,136.266a1.088,1.088,0,1,1,1.088-1.088A1.088,1.088,0,0,1,156.615,185.9Zm0-4.7a1.088,1.088,0,1,1,1.088-1.088A1.088,1.088,0,0,1,156.615,181.2Zm0-4.7a1.088,1.088,0,1,1,1.088-1.088A1.088,1.088,0,0,1,156.615,176.5Zm0-4.7a1.088,1.088,0,1,1,1.088-1.088A1.088,1.088,0,0,1,156.615,171.8Zm0-4.7a1.088,1.088,0,1,1,1.088-1.088A1.088,1.088,0,0,1,156.615,167.1Zm0-4.7a1.088,1.088,0,1,1,1.088-1.088A1.088,1.088,0,0,1,156.615,162.4Zm0-4.7a1.088,1.088,0,1,1,1.088-1.088A1.088,1.088,0,0,1,156.615,157.7Zm0-4.7a1.088,1.088,0,1,1,1.088-1.088A1.088,1.088,0,0,1,156.615,153Zm0-4.7a1.088,1.088,0,1,1,1.088-1.088A1.088,1.088,0,0,1,156.615,148.3Zm0-4.7a1.088,1.088,0,1,1,1.088-1.088A1.088,1.088,0,0,1,156.615,143.606Zm0-4.7a1.088,1.088,0,1,1,1.088-1.088A1.088,1.088,0,0,1,156.615,138.907Zm0-4.7a1.088,1.088,0,1,1,1.088-1.088A1.088,1.088,0,0,1,156.615,134.208Zm0-4.7a1.088,1.088,0,1,1,1.088-1.088A1.088,1.088,0,0,1,156.615,129.509Zm0-4.7a1.088,1.088,0,1,1,1.088-1.088A1.088,1.088,0,0,1,156.615,124.81Zm0-4.7a1.088,1.088,0,1,1,1.088-1.088A1.088,1.088,0,0,1,156.615,120.111Zm0-4.7a1.088,1.088,0,1,1,1.088-1.088A1.088,1.088,0,0,1,156.615,115.413Zm0-4.7a1.088,1.088,0,1,1,1.088-1.088A1.088,1.088,0,0,1,156.615,110.714Zm0-4.7a1.088,1.088,0,1,1,1.088-1.088A1.088,1.088,0,0,1,156.615,106.015Zm0-4.7a1.088,1.088,0,1,1,1.088-1.088A1.088,1.088,0,0,1,156.615,101.316Zm0-4.7A1.088,1.088,0,1,1,157.7,95.53,1.088,1.088,0,0,1,156.615,96.617Zm0-4.7a1.088,1.088,0,1,1,1.088-1.088A1.088,1.088,0,0,1,156.615,91.918Zm0-4.7a1.088,1.088,0,1,1,1.088-1.088A1.088,1.088,0,0,1,156.615,87.22Zm0-4.7a1.088,1.088,0,1,1,1.088-1.088A1.088,1.088,0,0,1,156.615,82.521Zm0-4.7a1.088,1.088,0,1,1,1.088-1.088A1.088,1.088,0,0,1,156.615,77.822Zm0-4.7a1.088,1.088,0,1,1,1.088-1.088A1.088,1.088,0,0,1,156.615,73.123Zm0-4.7a1.088,1.088,0,1,1,1.088-1.088A1.088,1.088,0,0,1,156.615,68.424Zm0-4.7a1.088,1.088,0,1,1,1.088-1.088A1.088,1.088,0,0,1,156.615,63.725Zm0-4.7a1.088,1.088,0,1,1,1.088-1.088A1.088,1.088,0,0,1,156.615,59.027Zm0-4.7A1.088,1.088,0,1,1,157.7,53.24,1.088,1.088,0,0,1,156.615,54.328Zm0-4.7a1.088,1.088,0,1,1,1.088-1.088A1.088,1.088,0,0,1,156.615,49.629Zm4.7,131.567a1.088,1.088,0,1,1,1.088-1.088A1.088,1.088,0,0,1,161.313,181.2Zm0-4.7a1.088,1.088,0,1,1,1.088-1.088A1.088,1.088,0,0,1,161.313,176.5Zm0-4.7a1.088,1.088,0,1,1,1.088-1.088A1.088,1.088,0,0,1,161.313,171.8Zm0-4.7a1.088,1.088,0,1,1,1.088-1.088A1.088,1.088,0,0,1,161.313,167.1Zm0-4.7a1.088,1.088,0,1,1,1.088-1.088A1.088,1.088,0,0,1,161.313,162.4Zm0-4.7a1.088,1.088,0,1,1,1.088-1.088A1.088,1.088,0,0,1,161.313,157.7Zm0-4.7a1.088,1.088,0,1,1,1.088-1.088A1.088,1.088,0,0,1,161.313,153Zm0-4.7a1.088,1.088,0,1,1,1.088-1.088A1.088,1.088,0,0,1,161.313,148.3Zm0-4.7a1.088,1.088,0,1,1,1.088-1.088A1.088,1.088,0,0,1,161.313,143.606Zm0-4.7a1.088,1.088,0,1,1,1.088-1.088A1.088,1.088,0,0,1,161.313,138.907Zm0-4.7a1.088,1.088,0,1,1,1.088-1.088A1.088,1.088,0,0,1,161.313,134.208Zm0-4.7a1.088,1.088,0,1,1,1.088-1.088A1.088,1.088,0,0,1,161.313,129.509Zm0-4.7a1.088,1.088,0,1,1,1.088-1.088A1.088,1.088,0,0,1,161.313,124.81Zm0-4.7a1.088,1.088,0,1,1,1.088-1.088A1.088,1.088,0,0,1,161.313,120.111Zm0-4.7a1.088,1.088,0,1,1,1.088-1.088A1.088,1.088,0,0,1,161.313,115.413Zm0-4.7a1.088,1.088,0,1,1,1.088-1.088A1.088,1.088,0,0,1,161.313,110.714Zm0-4.7a1.088,1.088,0,1,1,1.088-1.088A1.088,1.088,0,0,1,161.313,106.015Zm0-4.7a1.088,1.088,0,1,1,1.088-1.088A1.088,1.088,0,0,1,161.313,101.316Zm0-4.7A1.088,1.088,0,1,1,162.4,95.53,1.088,1.088,0,0,1,161.313,96.617Zm0-4.7a1.088,1.088,0,1,1,1.088-1.088A1.088,1.088,0,0,1,161.313,91.918Zm0-4.7a1.088,1.088,0,1,1,1.088-1.088A1.088,1.088,0,0,1,161.313,87.22Zm0-4.7a1.088,1.088,0,1,1,1.088-1.088A1.088,1.088,0,0,1,161.313,82.521Zm0-4.7a1.088,1.088,0,1,1,1.088-1.088A1.088,1.088,0,0,1,161.313,77.822Zm0-4.7a1.088,1.088,0,1,1,1.088-1.088A1.088,1.088,0,0,1,161.313,73.123Zm0-4.7a1.088,1.088,0,1,1,1.088-1.088A1.088,1.088,0,0,1,161.313,68.424Zm0-4.7a1.088,1.088,0,1,1,1.088-1.088A1.088,1.088,0,0,1,161.313,63.725Zm0-4.7a1.088,1.088,0,1,1,1.088-1.088A1.088,1.088,0,0,1,161.313,59.027Zm0-4.7A1.088,1.088,0,1,1,162.4,53.24,1.088,1.088,0,0,1,161.313,54.328Zm4.7,122.17a1.088,1.088,0,1,1,1.088-1.088A1.088,1.088,0,0,1,166.012,176.5Zm0-4.7a1.088,1.088,0,1,1,1.088-1.088A1.088,1.088,0,0,1,166.012,171.8Zm0-4.7a1.088,1.088,0,1,1,1.088-1.088A1.088,1.088,0,0,1,166.012,167.1Zm0-4.7a1.088,1.088,0,1,1,1.088-1.088A1.088,1.088,0,0,1,166.012,162.4Zm0-4.7a1.088,1.088,0,1,1,1.088-1.088A1.088,1.088,0,0,1,166.012,157.7Zm0-4.7a1.088,1.088,0,1,1,1.088-1.088A1.088,1.088,0,0,1,166.012,153Zm0-4.7a1.088,1.088,0,1,1,1.088-1.088A1.088,1.088,0,0,1,166.012,148.3Zm0-4.7a1.088,1.088,0,1,1,1.088-1.088A1.088,1.088,0,0,1,166.012,143.606Zm0-4.7a1.088,1.088,0,1,1,1.088-1.088A1.088,1.088,0,0,1,166.012,138.907Zm0-4.7a1.088,1.088,0,1,1,1.088-1.088A1.088,1.088,0,0,1,166.012,134.208Zm0-4.7a1.088,1.088,0,1,1,1.088-1.088A1.088,1.088,0,0,1,166.012,129.509Zm0-4.7a1.088,1.088,0,1,1,1.088-1.088A1.088,1.088,0,0,1,166.012,124.81Zm0-4.7a1.088,1.088,0,1,1,1.088-1.088A1.088,1.088,0,0,1,166.012,120.111Zm0-4.7a1.088,1.088,0,1,1,1.088-1.088A1.088,1.088,0,0,1,166.012,115.413Zm0-4.7a1.088,1.088,0,1,1,1.088-1.088A1.088,1.088,0,0,1,166.012,110.714Zm0-4.7a1.088,1.088,0,1,1,1.088-1.088A1.088,1.088,0,0,1,166.012,106.015Zm0-4.7a1.088,1.088,0,1,1,1.088-1.088A1.088,1.088,0,0,1,166.012,101.316Zm0-4.7A1.088,1.088,0,1,1,167.1,95.53,1.088,1.088,0,0,1,166.012,96.617Zm0-4.7a1.088,1.088,0,1,1,1.088-1.088A1.088,1.088,0,0,1,166.012,91.918Zm0-4.7a1.088,1.088,0,1,1,1.088-1.088A1.088,1.088,0,0,1,166.012,87.22Zm0-4.7a1.088,1.088,0,1,1,1.088-1.088A1.088,1.088,0,0,1,166.012,82.521Zm0-4.7a1.088,1.088,0,1,1,1.088-1.088A1.088,1.088,0,0,1,166.012,77.822Zm0-4.7a1.088,1.088,0,1,1,1.088-1.088A1.088,1.088,0,0,1,166.012,73.123Zm0-4.7a1.088,1.088,0,1,1,1.088-1.088A1.088,1.088,0,0,1,166.012,68.424Zm0-4.7a1.088,1.088,0,1,1,1.088-1.088A1.088,1.088,0,0,1,166.012,63.725Zm0-4.7a1.088,1.088,0,1,1,1.088-1.088A1.088,1.088,0,0,1,166.012,59.027Zm4.7,117.471a1.088,1.088,0,1,1,1.088-1.088A1.088,1.088,0,0,1,170.711,176.5Zm0-4.7a1.088,1.088,0,1,1,1.088-1.088A1.088,1.088,0,0,1,170.711,171.8Zm0-4.7a1.088,1.088,0,1,1,1.088-1.088A1.088,1.088,0,0,1,170.711,167.1Zm0-4.7a1.088,1.088,0,1,1,1.088-1.088A1.088,1.088,0,0,1,170.711,162.4Zm0-4.7a1.088,1.088,0,1,1,1.088-1.088A1.088,1.088,0,0,1,170.711,157.7Zm0-4.7a1.088,1.088,0,1,1,1.088-1.088A1.088,1.088,0,0,1,170.711,153Zm0-4.7a1.088,1.088,0,1,1,1.088-1.088A1.088,1.088,0,0,1,170.711,148.3Zm0-4.7a1.088,1.088,0,1,1,1.088-1.088A1.088,1.088,0,0,1,170.711,143.606Zm0-4.7a1.088,1.088,0,1,1,1.088-1.088A1.088,1.088,0,0,1,170.711,138.907Zm0-4.7a1.088,1.088,0,1,1,1.088-1.088A1.088,1.088,0,0,1,170.711,134.208Zm0-4.7a1.088,1.088,0,1,1,1.088-1.088A1.088,1.088,0,0,1,170.711,129.509Zm0-4.7a1.088,1.088,0,1,1,1.088-1.088A1.088,1.088,0,0,1,170.711,124.81Zm0-4.7a1.088,1.088,0,1,1,1.088-1.088A1.088,1.088,0,0,1,170.711,120.111Zm0-4.7a1.088,1.088,0,1,1,1.088-1.088A1.088,1.088,0,0,1,170.711,115.413Zm0-4.7a1.088,1.088,0,1,1,1.088-1.088A1.088,1.088,0,0,1,170.711,110.714Zm0-4.7a1.088,1.088,0,1,1,1.088-1.088A1.088,1.088,0,0,1,170.711,106.015Zm0-4.7a1.088,1.088,0,1,1,1.088-1.088A1.088,1.088,0,0,1,170.711,101.316Zm0-4.7A1.088,1.088,0,1,1,171.8,95.53,1.088,1.088,0,0,1,170.711,96.617Zm0-4.7a1.088,1.088,0,1,1,1.088-1.088A1.088,1.088,0,0,1,170.711,91.918Zm0-4.7a1.088,1.088,0,1,1,1.088-1.088A1.088,1.088,0,0,1,170.711,87.22Zm0-4.7a1.088,1.088,0,1,1,1.088-1.088A1.088,1.088,0,0,1,170.711,82.521Zm0-4.7a1.088,1.088,0,1,1,1.088-1.088A1.088,1.088,0,0,1,170.711,77.822Zm0-4.7a1.088,1.088,0,1,1,1.088-1.088A1.088,1.088,0,0,1,170.711,73.123Zm0-4.7a1.088,1.088,0,1,1,1.088-1.088A1.088,1.088,0,0,1,170.711,68.424Zm0-4.7a1.088,1.088,0,1,1,1.088-1.088A1.088,1.088,0,0,1,170.711,63.725Zm0-4.7a1.088,1.088,0,1,1,1.088-1.088A1.088,1.088,0,0,1,170.711,59.027Zm4.7,112.772a1.088,1.088,0,1,1,1.088-1.088A1.088,1.088,0,0,1,175.41,171.8Zm0-4.7a1.088,1.088,0,1,1,1.088-1.088A1.088,1.088,0,0,1,175.41,167.1Zm0-4.7a1.088,1.088,0,1,1,1.088-1.088A1.088,1.088,0,0,1,175.41,162.4Zm0-4.7a1.088,1.088,0,1,1,1.088-1.088A1.088,1.088,0,0,1,175.41,157.7Zm0-4.7a1.088,1.088,0,1,1,1.088-1.088A1.088,1.088,0,0,1,175.41,153Zm0-4.7a1.088,1.088,0,1,1,1.088-1.088A1.088,1.088,0,0,1,175.41,148.3Zm0-4.7a1.088,1.088,0,1,1,1.088-1.088A1.088,1.088,0,0,1,175.41,143.606Zm0-4.7a1.088,1.088,0,1,1,1.088-1.088A1.088,1.088,0,0,1,175.41,138.907Zm0-4.7a1.088,1.088,0,1,1,1.088-1.088A1.088,1.088,0,0,1,175.41,134.208Zm0-4.7a1.088,1.088,0,1,1,1.088-1.088A1.088,1.088,0,0,1,175.41,129.509Zm0-4.7a1.088,1.088,0,1,1,1.088-1.088A1.088,1.088,0,0,1,175.41,124.81Zm0-4.7a1.088,1.088,0,1,1,1.088-1.088A1.088,1.088,0,0,1,175.41,120.111Zm0-4.7a1.088,1.088,0,1,1,1.088-1.088A1.088,1.088,0,0,1,175.41,115.413Zm0-4.7a1.088,1.088,0,1,1,1.088-1.088A1.088,1.088,0,0,1,175.41,110.714Zm0-4.7a1.088,1.088,0,1,1,1.088-1.088A1.088,1.088,0,0,1,175.41,106.015Zm0-4.7a1.088,1.088,0,1,1,1.088-1.088A1.088,1.088,0,0,1,175.41,101.316Zm0-4.7A1.088,1.088,0,1,1,176.5,95.53,1.088,1.088,0,0,1,175.41,96.617Zm0-4.7a1.088,1.088,0,1,1,1.088-1.088A1.088,1.088,0,0,1,175.41,91.918Zm0-4.7a1.088,1.088,0,1,1,1.088-1.088A1.088,1.088,0,0,1,175.41,87.22Zm0-4.7a1.088,1.088,0,1,1,1.088-1.088A1.088,1.088,0,0,1,175.41,82.521Zm0-4.7a1.088,1.088,0,1,1,1.088-1.088A1.088,1.088,0,0,1,175.41,77.822Zm0-4.7a1.088,1.088,0,1,1,1.088-1.088A1.088,1.088,0,0,1,175.41,73.123Zm0-4.7a1.088,1.088,0,1,1,1.088-1.088A1.088,1.088,0,0,1,175.41,68.424Zm0-4.7a1.088,1.088,0,1,1,1.088-1.088A1.088,1.088,0,0,1,175.41,63.725Zm4.7,98.676a1.088,1.088,0,1,1,1.088-1.088A1.088,1.088,0,0,1,180.109,162.4Zm0-4.7a1.088,1.088,0,1,1,1.088-1.088A1.088,1.088,0,0,1,180.109,157.7Zm0-4.7a1.088,1.088,0,1,1,1.088-1.088A1.088,1.088,0,0,1,180.109,153Zm0-4.7a1.088,1.088,0,1,1,1.088-1.088A1.088,1.088,0,0,1,180.109,148.3Zm0-4.7a1.088,1.088,0,1,1,1.088-1.088A1.088,1.088,0,0,1,180.109,143.606Zm0-4.7a1.088,1.088,0,1,1,1.088-1.088A1.088,1.088,0,0,1,180.109,138.907Zm0-4.7a1.088,1.088,0,1,1,1.088-1.088A1.088,1.088,0,0,1,180.109,134.208Zm0-4.7a1.088,1.088,0,1,1,1.088-1.088A1.088,1.088,0,0,1,180.109,129.509Zm0-4.7a1.088,1.088,0,1,1,1.088-1.088A1.088,1.088,0,0,1,180.109,124.81Zm0-4.7a1.088,1.088,0,1,1,1.088-1.088A1.088,1.088,0,0,1,180.109,120.111Zm0-4.7a1.088,1.088,0,1,1,1.088-1.088A1.088,1.088,0,0,1,180.109,115.413Zm0-4.7a1.088,1.088,0,1,1,1.088-1.088A1.088,1.088,0,0,1,180.109,110.714Zm0-4.7a1.088,1.088,0,1,1,1.088-1.088A1.088,1.088,0,0,1,180.109,106.015Zm0-4.7a1.088,1.088,0,1,1,1.088-1.088A1.088,1.088,0,0,1,180.109,101.316Zm0-4.7A1.088,1.088,0,1,1,181.2,95.53,1.088,1.088,0,0,1,180.109,96.617Zm0-4.7a1.088,1.088,0,1,1,1.088-1.088A1.088,1.088,0,0,1,180.109,91.918Zm0-4.7a1.088,1.088,0,1,1,1.088-1.088A1.088,1.088,0,0,1,180.109,87.22Zm0-4.7a1.088,1.088,0,1,1,1.088-1.088A1.088,1.088,0,0,1,180.109,82.521Zm0-4.7a1.088,1.088,0,1,1,1.088-1.088A1.088,1.088,0,0,1,180.109,77.822Zm0-4.7a1.088,1.088,0,1,1,1.088-1.088A1.088,1.088,0,0,1,180.109,73.123Zm4.7,84.579a1.088,1.088,0,1,1,1.088-1.088A1.088,1.088,0,0,1,184.808,157.7Zm0-4.7a1.088,1.088,0,1,1,1.088-1.088A1.088,1.088,0,0,1,184.808,153Zm0-4.7a1.088,1.088,0,1,1,1.088-1.088A1.088,1.088,0,0,1,184.808,148.3Zm0-4.7a1.088,1.088,0,1,1,1.088-1.088A1.088,1.088,0,0,1,184.808,143.606Zm0-4.7a1.088,1.088,0,1,1,1.088-1.088A1.088,1.088,0,0,1,184.808,138.907Zm0-4.7a1.088,1.088,0,1,1,1.088-1.088A1.088,1.088,0,0,1,184.808,134.208Zm0-4.7a1.088,1.088,0,1,1,1.088-1.088A1.088,1.088,0,0,1,184.808,129.509Zm0-4.7a1.088,1.088,0,1,1,1.088-1.088A1.088,1.088,0,0,1,184.808,124.81Zm0-4.7a1.088,1.088,0,1,1,1.088-1.088A1.088,1.088,0,0,1,184.808,120.111Zm0-4.7a1.088,1.088,0,1,1,1.088-1.088A1.088,1.088,0,0,1,184.808,115.413Zm0-4.7a1.088,1.088,0,1,1,1.088-1.088A1.088,1.088,0,0,1,184.808,110.714Zm0-4.7a1.088,1.088,0,1,1,1.088-1.088A1.088,1.088,0,0,1,184.808,106.015Zm0-4.7a1.088,1.088,0,1,1,1.088-1.088A1.088,1.088,0,0,1,184.808,101.316Zm0-4.7A1.088,1.088,0,1,1,185.9,95.53,1.088,1.088,0,0,1,184.808,96.617Zm0-4.7a1.088,1.088,0,1,1,1.088-1.088A1.088,1.088,0,0,1,184.808,91.918Zm0-4.7a1.088,1.088,0,1,1,1.088-1.088A1.088,1.088,0,0,1,184.808,87.22Zm0-4.7a1.088,1.088,0,1,1,1.088-1.088A1.088,1.088,0,0,1,184.808,82.521Zm0-4.7a1.088,1.088,0,1,1,1.088-1.088A1.088,1.088,0,0,1,184.808,77.822Zm4.7,70.483a1.088,1.088,0,1,1,1.088-1.088A1.088,1.088,0,0,1,189.506,148.3Zm0-4.7a1.088,1.088,0,1,1,1.088-1.088A1.088,1.088,0,0,1,189.506,143.606Zm0-4.7a1.088,1.088,0,1,1,1.088-1.088A1.088,1.088,0,0,1,189.506,138.907Zm0-4.7a1.088,1.088,0,1,1,1.088-1.088A1.088,1.088,0,0,1,189.506,134.208Zm0-4.7a1.088,1.088,0,1,1,1.088-1.088A1.088,1.088,0,0,1,189.506,129.509Zm0-4.7a1.088,1.088,0,1,1,1.088-1.088A1.088,1.088,0,0,1,189.506,124.81Zm0-4.7a1.088,1.088,0,1,1,1.088-1.088A1.088,1.088,0,0,1,189.506,120.111Zm0-4.7a1.088,1.088,0,1,1,1.088-1.088A1.088,1.088,0,0,1,189.506,115.413Zm0-4.7a1.088,1.088,0,1,1,1.088-1.088A1.088,1.088,0,0,1,189.506,110.714Zm0-4.7a1.088,1.088,0,1,1,1.088-1.088A1.088,1.088,0,0,1,189.506,106.015Zm0-4.7a1.088,1.088,0,1,1,1.088-1.088A1.088,1.088,0,0,1,189.506,101.316Zm0-4.7a1.088,1.088,0,1,1,1.088-1.088A1.088,1.088,0,0,1,189.506,96.617Zm0-4.7a1.088,1.088,0,1,1,1.088-1.088A1.088,1.088,0,0,1,189.506,91.918Zm0-4.7a1.088,1.088,0,1,1,1.088-1.088A1.088,1.088,0,0,1,189.506,87.22Zm4.7,46.988a1.088,1.088,0,1,1,1.088-1.088A1.088,1.088,0,0,1,194.205,134.208Zm0-4.7a1.088,1.088,0,1,1,1.088-1.088A1.088,1.088,0,0,1,194.205,129.509Zm0-4.7a1.088,1.088,0,1,1,1.088-1.088A1.088,1.088,0,0,1,194.205,124.81Zm0-4.7a1.088,1.088,0,1,1,1.088-1.088A1.088,1.088,0,0,1,194.205,120.111Zm0-4.7a1.088,1.088,0,1,1,1.088-1.088A1.088,1.088,0,0,1,194.205,115.413Zm0-4.7a1.088,1.088,0,1,1,1.088-1.088A1.088,1.088,0,0,1,194.205,110.714Zm0-4.7a1.088,1.088,0,1,1,1.088-1.088A1.088,1.088,0,0,1,194.205,106.015Zm0-4.7a1.088,1.088,0,1,1,1.088-1.088A1.088,1.088,0,0,1,194.205,101.316Z" transform="translate(1089.214 506.947)" fill="#26aab7"/>
          <path id="Shape_2" data-name="Shape 2" d="M173.348,0V95.669H0a28.453,28.453,0,0,1,3.617-1.477c6.464-2.134,13.6-2.661,19.838-5.293a35.3,35.3,0,0,0,15.12-12.562C42.43,70.907,45.614,65.223,51.554,61.1c6.528-4.53,14.957-6.745,23.164-8.2a39.673,39.673,0,0,0,21-10.427c3.078-3.03,5.454-6.51,8.476-9.578a25.1,25.1,0,0,1,14.2-7.2c4.984-.833,10.718-.957,14.9-3.661,2.95-1.908,4.175-4.829,4.912-7.763C139.466,9.239,139.4,2.587,145.391,0Z" transform="translate(173.348 95.669) rotate(180)" fill="#7d6eb2"/>
        </g>
      </g>
    </g>
  </g>
</svg>
