<svg xmlns="http://www.w3.org/2000/svg" xmlns:xlink="http://www.w3.org/1999/xlink" width="78.501" height="74.687" viewBox="0 0 78.501 74.687">
  <defs>
    <clipPath id="clip-path">
      <rect id="Rectángulo_401465" data-name="Rectángulo 401465" width="63" height="64" transform="translate(-850.024 -3865)" fill="#fff" stroke="#707070" stroke-width="1"/>
    </clipPath>
  </defs>
  <g id="Grupo_1101458" data-name="Grupo 1101458" transform="translate(857.775 3818)">
    <path id="_12068" data-name="12068" d="M72.033,71.913c-8.038-1.11-16.53-.839-23.844,2.675C38.045,79.46,31.382,90.507,31.127,101.757s5.606,22.305,14.66,28.988,21,9.051,32.068,7.045c11.165-2.023,21.645-8.583,27.469-18.322,3.735-6.245,5.48-13.956,3.417-20.934a28.6,28.6,0,0,0-6.787-11.156A50.145,50.145,0,0,0,72.033,71.913Z" transform="translate(-888.894 -3881.794)" fill="#26aab7"/>
    <g id="Enmascarar_grupo_1098779" data-name="Enmascarar grupo 1098779" transform="translate(0 47)" clip-path="url(#clip-path)">
      <g id="imaginacion" transform="translate(-850.024 -3864.5)">
        <path id="Trazado_877929" data-name="Trazado 877929" d="M14.231,18.262A4.778,4.778,0,0,0,5.568,16.4a1.912,1.912,0,0,0-2.734,1.725q0,.081.007.161a2.867,2.867,0,0,0,.949,5.573h9.555a2.867,2.867,0,0,0,.886-5.594Z" fill="#c8effe"/>
        <path id="Trazado_877930" data-name="Trazado 877930" d="M12.389,44.407H10.8a7.383,7.383,0,0,1-7.239-5.935l-1-5a4.838,4.838,0,0,1,6.274-5.538l3.558,1.186V44.407Z" fill="#ffbd86"/>
        <path id="Trazado_877931" data-name="Trazado 877931" d="M50.611,44.407H52.2a7.383,7.383,0,0,0,7.239-5.935l1-5a4.838,4.838,0,0,0-6.274-5.538l-3.558,1.186V44.407Z" fill="#f6a96c"/>
        <path id="Trazado_877932" data-name="Trazado 877932" d="M31.5,6.656c-7.433,0-13.628,7.9-13.892,15.289l2.426,1.911,1.4-1.911a10.08,10.08,0,0,1,20.133,0l1.4,1.911,2.426-1.911C45.128,14.552,38.933,6.656,31.5,6.656Z" fill="#46cc8d"/>
        <path id="Trazado_877933" data-name="Trazado 877933" d="M41.566,21.945l1.4,1.911,2.425-1.911a14.906,14.906,0,0,0-.3-2.461H41.128A9.86,9.86,0,0,1,41.566,21.945Z" fill="#00c27a"/>
        <path id="Trazado_877934" data-name="Trazado 877934" d="M17.907,19.484a14.893,14.893,0,0,0-.3,2.461l2.426,1.911,1.4-1.911a9.86,9.86,0,0,1,.438-2.461Z" fill="#00c27a"/>
        <path id="Trazado_877935" data-name="Trazado 877935" d="M31.5,2.834c-9.522,0-17.451,9.619-17.716,19.111l2.427,1.911,1.4-1.911a13.9,13.9,0,0,1,27.784,0l1.4,1.911,2.427-1.911C48.951,12.453,41.022,2.834,31.5,2.834Z" fill="#fee903"/>
        <path id="Trazado_877936" data-name="Trazado 877936" d="M46.713,12.939a21.668,21.668,0,0,0-3.238-4.5,2.867,2.867,0,0,0,2.358,4.5h.88Z" fill="#f4d902"/>
        <path id="Trazado_877937" data-name="Trazado 877937" d="M45.392,21.945l1.4,1.911,2.427-1.911a18.393,18.393,0,0,0-.237-2.461h-3.9A13.629,13.629,0,0,1,45.392,21.945Z" fill="#f4d902"/>
        <path id="Trazado_877938" data-name="Trazado 877938" d="M14.021,19.484a18.413,18.413,0,0,0-.237,2.461l2.427,1.911,1.4-1.911a13.628,13.628,0,0,1,.313-2.461Z" fill="#f4d902"/>
        <path id="Trazado_877939" data-name="Trazado 877939" d="M31.5,4.745a17.814,17.814,0,0,1,17.716,17.2l1.395,1.911,2.429-1.911A21.547,21.547,0,0,0,31.5.923h0A21.547,21.547,0,0,0,9.961,21.945l2.429,1.911,1.395-1.911A17.814,17.814,0,0,1,31.5,4.745Z" fill="#e53950"/>
        <path id="Trazado_877940" data-name="Trazado 877940" d="M43.123,9.135a18.022,18.022,0,0,1,3.292,3.8h4.414a21.663,21.663,0,0,0-5.486-6.982,1.9,1.9,0,0,0-.465,1.249c0,.054,0,.108.007.161A2.874,2.874,0,0,0,43.123,9.135Z" fill="#ca2e43"/>
        <path id="Trazado_877941" data-name="Trazado 877941" d="M49.216,21.945l1.395,1.911,2.429-1.911a21.557,21.557,0,0,0-.2-2.461h-3.87A17.444,17.444,0,0,1,49.216,21.945Z" fill="#ca2e43"/>
        <path id="Trazado_877942" data-name="Trazado 877942" d="M10.158,19.484a21.529,21.529,0,0,0-.2,2.461l2.429,1.911,1.395-1.911a17.408,17.408,0,0,1,.244-2.461Z" fill="#ca2e43"/>
        <path id="Trazado_877943" data-name="Trazado 877943" d="M12.389,4.275a9.814,9.814,0,0,0-3.35,3.35,9.833,9.833,0,0,0-3.352-3.35A9.872,9.872,0,0,0,9.039.923,9.85,9.85,0,0,0,12.389,4.275Z" fill="#fee903"/>
        <path id="Trazado_877944" data-name="Trazado 877944" d="M62.077,17.168a8.4,8.4,0,0,0-2.866,2.866,8.414,8.414,0,0,0-2.867-2.866A8.444,8.444,0,0,0,59.211,14.3,8.427,8.427,0,0,0,62.077,17.168Z" fill="#fee903"/>
        <path id="Trazado_877945" data-name="Trazado 877945" d="M9.961,21.945q-.021.925.037,1.866L11.2,43A20.342,20.342,0,0,0,31.5,62.077h0A20.342,20.342,0,0,0,51.8,43L53,23.811q.059-.941.037-1.866Z" fill="#fed2a4"/>
        <path id="Trazado_877946" data-name="Trazado 877946" d="M53.039,21.945h-5l-1.162,18.6a20.342,20.342,0,0,1-20.3,19.073h0a20.311,20.311,0,0,1-6.544-1.077A20.263,20.263,0,0,0,31.5,62.077h0A20.342,20.342,0,0,0,51.8,43L53,23.811Q53.061,22.87,53.039,21.945Z" fill="#ffbd86"/>
        <path id="Trazado_877947" data-name="Trazado 877947" d="M56.274,4.885A4.778,4.778,0,0,0,47.611,3.02a1.912,1.912,0,0,0-2.734,1.725q0,.081.007.161a2.867,2.867,0,0,0,.949,5.572h9.555a2.867,2.867,0,0,0,.886-5.594Z" fill="#c8effe"/>
        <path id="Trazado_877948" data-name="Trazado 877948" d="M56.274,4.885A4.778,4.778,0,0,0,47.611,3.02a1.912,1.912,0,0,0-2.734,1.725q0,.081.007.161a2.867,2.867,0,0,0,.949,5.572h9.555a2.867,2.867,0,0,0,.886-5.594Z" fill="none" stroke="#000" stroke-linecap="round" stroke-linejoin="round" stroke-miterlimit="10" stroke-width="1.846"/>
        <path id="Trazado_877949" data-name="Trazado 877949" d="M6.968,36.034l-.662-3.312a.96.96,0,0,1,.2-.833,1.03,1.03,0,0,1,.779-.388,1.056,1.056,0,0,1,.338.058l2.92.973" fill="none" stroke="#000" stroke-linecap="round" stroke-linejoin="round" stroke-miterlimit="10" stroke-width="1.846"/>
        <path id="Trazado_877950" data-name="Trazado 877950" d="M56.032,36.034l.662-3.312a.96.96,0,0,0-.2-.833,1.03,1.03,0,0,0-.779-.388,1.056,1.056,0,0,0-.338.058l-2.92.973" fill="none" stroke="#000" stroke-linecap="round" stroke-linejoin="round" stroke-miterlimit="10" stroke-width="1.846"/>
        <path id="Trazado_877951" data-name="Trazado 877951" d="M35.322,35.322V39.89a3.076,3.076,0,0,1-3.076,3.076H30.754" fill="none" stroke="#000" stroke-linecap="round" stroke-linejoin="round" stroke-miterlimit="10" stroke-width="1.846"/>
        <path id="Trazado_877952" data-name="Trazado 877952" d="M39.608,49.163a11.466,11.466,0,0,1-16.216,0" fill="none" stroke="#000" stroke-linecap="round" stroke-linejoin="round" stroke-miterlimit="10" stroke-width="1.846"/>
        <path id="Trazado_877953" data-name="Trazado 877953" d="M14.864,53.445A20.328,20.328,0,0,0,31.5,62.077h0A20.342,20.342,0,0,0,51.8,43L53,23.811q.059-.941.037-1.866H9.961q-.021.925.037,1.866L11.2,43a20.308,20.308,0,0,0,1.545,6.614" fill="none" stroke="#000" stroke-linecap="round" stroke-linejoin="round" stroke-miterlimit="10" stroke-width="1.846"/>
        <path id="Trazado_877954" data-name="Trazado 877954" d="M13.784,21.945a17.724,17.724,0,0,1,35.432,0" fill="none" stroke="#000" stroke-linecap="round" stroke-linejoin="round" stroke-miterlimit="10" stroke-width="1.846"/>
        <path id="Trazado_877955" data-name="Trazado 877955" d="M19.282,4.719A21.426,21.426,0,0,1,31.5.923h0a21.429,21.429,0,0,1,12.84,4.241" fill="none" stroke="#000" stroke-linecap="round" stroke-linejoin="round" stroke-miterlimit="10" stroke-width="1.846"/>
        <path id="Trazado_877956" data-name="Trazado 877956" d="M9.96,21.945A21.47,21.47,0,0,1,15.97,7.535" fill="none" stroke="#000" stroke-linecap="round" stroke-linejoin="round" stroke-miterlimit="10" stroke-width="1.846"/>
        <path id="Trazado_877957" data-name="Trazado 877957" d="M53.04,21.945A21.4,21.4,0,0,0,49.4,10.478" fill="none" stroke="#000" stroke-linecap="round" stroke-linejoin="round" stroke-miterlimit="10" stroke-width="1.846"/>
        <path id="Trazado_877958" data-name="Trazado 877958" d="M12.389,4.275a9.814,9.814,0,0,0-3.35,3.35,9.833,9.833,0,0,0-3.352-3.35A9.872,9.872,0,0,0,9.039.923,9.85,9.85,0,0,0,12.389,4.275Z" fill="none" stroke="#000" stroke-linecap="round" stroke-linejoin="round" stroke-miterlimit="10" stroke-width="1.846"/>
        <path id="Trazado_877959" data-name="Trazado 877959" d="M62.077,17.168a8.4,8.4,0,0,0-2.866,2.866,8.414,8.414,0,0,0-2.867-2.866A8.444,8.444,0,0,0,59.211,14.3,8.427,8.427,0,0,0,62.077,17.168Z" fill="none" stroke="#000" stroke-linecap="round" stroke-linejoin="round" stroke-miterlimit="10" stroke-width="1.846"/>
        <path id="Trazado_877960" data-name="Trazado 877960" d="M21.433,21.945a10.08,10.08,0,0,1,20.133,0" fill="none" stroke="#000" stroke-linecap="round" stroke-linejoin="round" stroke-miterlimit="10" stroke-width="1.846"/>
        <path id="Trazado_877961" data-name="Trazado 877961" d="M17.608,21.945a13.9,13.9,0,0,1,27.784,0" fill="none" stroke="#000" stroke-linecap="round" stroke-linejoin="round" stroke-miterlimit="10" stroke-width="1.846"/>
        <path id="Trazado_877962" data-name="Trazado 877962" d="M11.4,14.685A4.782,4.782,0,0,0,5.568,16.4a1.912,1.912,0,0,0-2.734,1.725q0,.081.007.161a2.867,2.867,0,0,0,.949,5.572H10l0-.045" fill="none" stroke="#000" stroke-linecap="round" stroke-linejoin="round" stroke-miterlimit="10" stroke-width="1.846"/>
        <path id="Trazado_877963" data-name="Trazado 877963" d="M10.285,28.417l-1.454-.485a4.838,4.838,0,0,0-6.274,5.538l1,5A7.383,7.383,0,0,0,10.8,44.407h.536" fill="none" stroke="#000" stroke-linecap="round" stroke-linejoin="round" stroke-miterlimit="10" stroke-width="1.846"/>
        <path id="Trazado_877964" data-name="Trazado 877964" d="M57.647,42.01a7.363,7.363,0,0,0,1.795-3.538l1-5a4.838,4.838,0,0,0-6.274-5.538l-1.454.485" fill="none" stroke="#000" stroke-linecap="round" stroke-linejoin="round" stroke-miterlimit="10" stroke-width="1.846"/>
        <path id="Trazado_877965" data-name="Trazado 877965" d="M51.667,44.407H52.2a7.382,7.382,0,0,0,1.816-.226" fill="none" stroke="#000" stroke-linecap="round" stroke-linejoin="round" stroke-miterlimit="10" stroke-width="1.846"/>
      </g>
    </g>
  </g>
</svg>
