<svg xmlns="http://www.w3.org/2000/svg" width="505.024" height="145" viewBox="0 0 505.024 145">
  <g id="Grupo_1101511" data-name="Grupo 1101511" transform="translate(-915 -3651.5)">
    <path id="Trazado_878419" data-name="Trazado 878419" d="M0,0H505.024V145H0Z" transform="translate(915 3651.5)" fill="#aee6e6"/>
    <path id="Trazado_878426" data-name="Trazado 878426" d="M0,0H425.024" transform="translate(955.5 3714)" fill="none" stroke="#7d6eb2" stroke-width="5"/>
    <path id="Trazado_878439" data-name="Trazado 878439" d="M0,0V35" transform="translate(955.524 3700)" fill="none" stroke="#7d6eb2" stroke-width="5"/>
    <path id="Trazado_878438" data-name="Trazado 878438" d="M0,0V17" transform="translate(983.524 3706.499)" fill="none" stroke="#7d6eb2" stroke-width="1"/>
    <path id="Trazado_878436" data-name="Trazado 878436" d="M0,0V17" transform="translate(1012.524 3706.499)" fill="none" stroke="#7d6eb2" stroke-width="1"/>
    <path id="Trazado_878435" data-name="Trazado 878435" d="M0,0V17" transform="translate(1040.524 3706.499)" fill="none" stroke="#7d6eb2" stroke-width="1"/>
    <path id="Trazado_878434" data-name="Trazado 878434" d="M0,0V17" transform="translate(1068.524 3706.499)" fill="none" stroke="#7d6eb2" stroke-width="1"/>
    <path id="Trazado_878433" data-name="Trazado 878433" d="M0,0V17" transform="translate(1097.524 3706.499)" fill="none" stroke="#7d6eb2" stroke-width="1"/>
    <path id="Trazado_878432" data-name="Trazado 878432" d="M0,0V17" transform="translate(1125.524 3706.499)" fill="none" stroke="#7d6eb2" stroke-width="1"/>
    <path id="Trazado_878431" data-name="Trazado 878431" d="M0,0V17" transform="translate(1153.524 3706.499)" fill="none" stroke="#7d6eb2" stroke-width="1"/>
    <path id="Trazado_878430" data-name="Trazado 878430" d="M0,0V17" transform="translate(1182.524 3706.499)" fill="none" stroke="#7d6eb2" stroke-width="1"/>
    <path id="Trazado_878429" data-name="Trazado 878429" d="M0,0V17" transform="translate(1210.524 3706.499)" fill="none" stroke="#7d6eb2" stroke-width="1"/>
    <path id="Trazado_878427" data-name="Trazado 878427" d="M0,0V17" transform="translate(1238.524 3706.499)" fill="none" stroke="#7d6eb2" stroke-width="1"/>
    <path id="Trazado_878425" data-name="Trazado 878425" d="M0,0V17" transform="translate(1267.524 3706.499)" fill="none" stroke="#7d6eb2" stroke-width="1"/>
    <path id="Trazado_878422" data-name="Trazado 878422" d="M0,0V17" transform="translate(1295.524 3706.499)" fill="none" stroke="#7d6eb2" stroke-width="1"/>
    <path id="Trazado_878423" data-name="Trazado 878423" d="M0,0V17" transform="translate(1323.524 3706.499)" fill="none" stroke="#7d6eb2" stroke-width="1"/>
    <path id="Trazado_878424" data-name="Trazado 878424" d="M0,0V17" transform="translate(1352.524 3706.499)" fill="none" stroke="#7d6eb2" stroke-width="1"/>
    <path id="Trazado_878421" data-name="Trazado 878421" d="M0,0V35" transform="translate(1380.524 3700)" fill="none" stroke="#7d6eb2" stroke-width="5"/>
    <path id="Far_far_away_behind" data-name="Far far away, behind" d="M-.712,0h-8.93V-1.934l4.113-4.324A4.909,4.909,0,0,0-4.008-9.009a1.913,1.913,0,0,0-.36-1.257A1.287,1.287,0,0,0-5.414-10.7a1.3,1.3,0,0,0-1.1.576,2.366,2.366,0,0,0-.422,1.437H-9.905a4.2,4.2,0,0,1,.589-2.175,4.129,4.129,0,0,1,1.635-1.56,4.856,4.856,0,0,1,2.338-.562,4.777,4.777,0,0,1,3.195.958A3.42,3.42,0,0,1-1.028-9.272,4,4,0,0,1-1.31-7.8a6.456,6.456,0,0,1-.875,1.5A22.029,22.029,0,0,1-4.1-4.192L-5.748-2.285H-.712ZM9.668-5.229a6.11,6.11,0,0,1-1.165,4A4.024,4.024,0,0,1,5.221.176a4.046,4.046,0,0,1-3.3-1.415A6.1,6.1,0,0,1,.747-5.229V-7.567a6.11,6.11,0,0,1,1.165-4A4.034,4.034,0,0,1,5.2-12.973a4.036,4.036,0,0,1,3.3,1.415,6.116,6.116,0,0,1,1.169,4ZM6.706-7.945a4.564,4.564,0,0,0-.36-2.061A1.2,1.2,0,0,0,5.2-10.687a1.176,1.176,0,0,0-1.112.633,4.3,4.3,0,0,0-.374,1.916v3.27a4.6,4.6,0,0,0,.36,2.1,1.209,1.209,0,0,0,1.143.664,1.193,1.193,0,0,0,1.116-.646,4.39,4.39,0,0,0,.369-2.026Z" transform="translate(955.5 3761)" fill="#12263f"/>
    <path id="Far_far_away_behind-2" data-name="Far far away, behind" d="M-.712,0h-8.93V-1.934l4.113-4.324A4.909,4.909,0,0,0-4.008-9.009a1.913,1.913,0,0,0-.36-1.257A1.287,1.287,0,0,0-5.414-10.7a1.3,1.3,0,0,0-1.1.576,2.366,2.366,0,0,0-.422,1.437H-9.905a4.2,4.2,0,0,1,.589-2.175,4.129,4.129,0,0,1,1.635-1.56,4.856,4.856,0,0,1,2.338-.562,4.777,4.777,0,0,1,3.195.958A3.42,3.42,0,0,1-1.028-9.272,4,4,0,0,1-1.31-7.8a6.456,6.456,0,0,1-.875,1.5A22.029,22.029,0,0,1-4.1-4.192L-5.748-2.285H-.712ZM9.712,0H.782V-1.934L4.9-6.258A4.909,4.909,0,0,0,6.416-9.009a1.913,1.913,0,0,0-.36-1.257A1.287,1.287,0,0,0,5.01-10.7a1.3,1.3,0,0,0-1.1.576,2.366,2.366,0,0,0-.422,1.437H.519a4.2,4.2,0,0,1,.589-2.175,4.129,4.129,0,0,1,1.635-1.56,4.856,4.856,0,0,1,2.338-.562,4.777,4.777,0,0,1,3.195.958A3.42,3.42,0,0,1,9.4-9.272,4,4,0,0,1,9.114-7.8,6.456,6.456,0,0,1,8.24-6.3a22.029,22.029,0,0,1-1.912,2.1L4.676-2.285H9.712Z" transform="translate(1010 3761)" fill="#12263f"/>
    <path id="Far_far_away_behind-3" data-name="Far far away, behind" d="M-.712,0h-8.93V-1.934l4.113-4.324A4.909,4.909,0,0,0-4.008-9.009a1.913,1.913,0,0,0-.36-1.257A1.287,1.287,0,0,0-5.414-10.7a1.3,1.3,0,0,0-1.1.576,2.366,2.366,0,0,0-.422,1.437H-9.905a4.2,4.2,0,0,1,.589-2.175,4.129,4.129,0,0,1,1.635-1.56,4.856,4.856,0,0,1,2.338-.562,4.777,4.777,0,0,1,3.195.958A3.42,3.42,0,0,1-1.028-9.272,4,4,0,0,1-1.31-7.8a6.456,6.456,0,0,1-.875,1.5A22.029,22.029,0,0,1-4.1-4.192L-5.748-2.285H-.712Zm4.2-7.638h1.4A1.453,1.453,0,0,0,6.548-9.264a1.406,1.406,0,0,0-.4-1.033,1.5,1.5,0,0,0-1.116-.4,1.606,1.606,0,0,0-1.024.343,1.046,1.046,0,0,0-.435.853H.615a3.032,3.032,0,0,1,.563-1.8,3.715,3.715,0,0,1,1.56-1.235,5.334,5.334,0,0,1,2.193-.444,5.241,5.241,0,0,1,3.357.976A3.243,3.243,0,0,1,9.51-9.325,2.7,2.7,0,0,1,9-7.765,3.6,3.6,0,0,1,7.532-6.574a3.441,3.441,0,0,1,1.6,1.121,2.951,2.951,0,0,1,.58,1.859A3.3,3.3,0,0,1,8.394-.853,5.472,5.472,0,0,1,4.931.176,5.675,5.675,0,0,1,2.6-.3,3.656,3.656,0,0,1,.967-1.63,3.45,3.45,0,0,1,.413-3.56H3.393a1.334,1.334,0,0,0,.475,1.02,1.676,1.676,0,0,0,1.169.431,1.755,1.755,0,0,0,1.248-.435A1.454,1.454,0,0,0,6.75-3.656a1.7,1.7,0,0,0-.483-1.371,2.021,2.021,0,0,0-1.336-.4H3.489Z" transform="translate(1041.024 3761)" fill="#12263f"/>
    <path id="Far_far_away_behind-4" data-name="Far far away, behind" d="M-6.935-7.638h1.4A1.453,1.453,0,0,0-3.876-9.264a1.406,1.406,0,0,0-.4-1.033,1.5,1.5,0,0,0-1.116-.4,1.606,1.606,0,0,0-1.024.343,1.046,1.046,0,0,0-.435.853H-9.809a3.032,3.032,0,0,1,.563-1.8,3.715,3.715,0,0,1,1.56-1.235,5.334,5.334,0,0,1,2.193-.444,5.241,5.241,0,0,1,3.357.976A3.243,3.243,0,0,1-.914-9.325a2.7,2.7,0,0,1-.505,1.56A3.6,3.6,0,0,1-2.892-6.574a3.441,3.441,0,0,1,1.6,1.121,2.951,2.951,0,0,1,.58,1.859A3.3,3.3,0,0,1-2.03-.853,5.472,5.472,0,0,1-5.493.176,5.675,5.675,0,0,1-7.827-.3,3.656,3.656,0,0,1-9.457-1.63a3.45,3.45,0,0,1-.554-1.929h2.979a1.334,1.334,0,0,0,.475,1.02,1.676,1.676,0,0,0,1.169.431A1.755,1.755,0,0,0-4.14-2.544a1.454,1.454,0,0,0,.466-1.112,1.7,1.7,0,0,0-.483-1.371,2.021,2.021,0,0,0-1.336-.4H-6.935Zm16.6,2.408a6.11,6.11,0,0,1-1.165,4A4.024,4.024,0,0,1,5.221.176a4.046,4.046,0,0,1-3.3-1.415A6.1,6.1,0,0,1,.747-5.229V-7.567a6.11,6.11,0,0,1,1.165-4A4.034,4.034,0,0,1,5.2-12.973a4.036,4.036,0,0,1,3.3,1.415,6.116,6.116,0,0,1,1.169,4ZM6.706-7.945a4.564,4.564,0,0,0-.36-2.061A1.2,1.2,0,0,0,5.2-10.687a1.176,1.176,0,0,0-1.112.633,4.3,4.3,0,0,0-.374,1.916v3.27a4.6,4.6,0,0,0,.36,2.1,1.209,1.209,0,0,0,1.143.664,1.193,1.193,0,0,0,1.116-.646,4.39,4.39,0,0,0,.369-2.026Z" transform="translate(1240.024 3761)" fill="#12263f"/>
    <path id="Far_far_away_behind-5" data-name="Far far away, behind" d="M-6.935-7.638h1.4A1.453,1.453,0,0,0-3.876-9.264a1.406,1.406,0,0,0-.4-1.033,1.5,1.5,0,0,0-1.116-.4,1.606,1.606,0,0,0-1.024.343,1.046,1.046,0,0,0-.435.853H-9.809a3.032,3.032,0,0,1,.563-1.8,3.715,3.715,0,0,1,1.56-1.235,5.334,5.334,0,0,1,2.193-.444,5.241,5.241,0,0,1,3.357.976A3.243,3.243,0,0,1-.914-9.325a2.7,2.7,0,0,1-.505,1.56A3.6,3.6,0,0,1-2.892-6.574a3.441,3.441,0,0,1,1.6,1.121,2.951,2.951,0,0,1,.58,1.859A3.3,3.3,0,0,1-2.03-.853,5.472,5.472,0,0,1-5.493.176,5.675,5.675,0,0,1-7.827-.3,3.656,3.656,0,0,1-9.457-1.63a3.45,3.45,0,0,1-.554-1.929h2.979a1.334,1.334,0,0,0,.475,1.02,1.676,1.676,0,0,0,1.169.431A1.755,1.755,0,0,0-4.14-2.544a1.454,1.454,0,0,0,.466-1.112,1.7,1.7,0,0,0-.483-1.371,2.021,2.021,0,0,0-1.336-.4H-6.935ZM7.348,0H4.377V-9.457L1.459-8.6v-2.25L7.075-12.8h.272Z" transform="translate(1267.024 3761)" fill="#12263f"/>
    <path id="Far_far_away_behind-6" data-name="Far far away, behind" d="M-6.935-7.638h1.4A1.453,1.453,0,0,0-3.876-9.264a1.406,1.406,0,0,0-.4-1.033,1.5,1.5,0,0,0-1.116-.4,1.606,1.606,0,0,0-1.024.343,1.046,1.046,0,0,0-.435.853H-9.809a3.032,3.032,0,0,1,.563-1.8,3.715,3.715,0,0,1,1.56-1.235,5.334,5.334,0,0,1,2.193-.444,5.241,5.241,0,0,1,3.357.976A3.243,3.243,0,0,1-.914-9.325a2.7,2.7,0,0,1-.505,1.56A3.6,3.6,0,0,1-2.892-6.574a3.441,3.441,0,0,1,1.6,1.121,2.951,2.951,0,0,1,.58,1.859A3.3,3.3,0,0,1-2.03-.853,5.472,5.472,0,0,1-5.493.176,5.675,5.675,0,0,1-7.827-.3,3.656,3.656,0,0,1-9.457-1.63a3.45,3.45,0,0,1-.554-1.929h2.979a1.334,1.334,0,0,0,.475,1.02,1.676,1.676,0,0,0,1.169.431A1.755,1.755,0,0,0-4.14-2.544a1.454,1.454,0,0,0,.466-1.112,1.7,1.7,0,0,0-.483-1.371,2.021,2.021,0,0,0-1.336-.4H-6.935ZM.958-6.258,1.74-12.8H9.22v2.3H4.148l-.29,2.54a3.5,3.5,0,0,1,.831-.325A3.805,3.805,0,0,1,5.7-8.42,3.754,3.754,0,0,1,8.626-7.291,4.549,4.549,0,0,1,9.65-4.122,4.541,4.541,0,0,1,9.1-1.894,3.776,3.776,0,0,1,7.559-.36,4.87,4.87,0,0,1,5.212.176a5.236,5.236,0,0,1-2.259-.5A4.053,4.053,0,0,1,1.3-1.683,3.312,3.312,0,0,1,.712-3.639H3.683a1.685,1.685,0,0,0,.448,1.116,1.421,1.421,0,0,0,1.063.413q1.494,0,1.494-2.215,0-2.048-1.828-2.048A1.823,1.823,0,0,0,3.313-5.7Z" transform="translate(1380.524 3761)" fill="#12263f"/>
    <g id="Trazado_878437" data-name="Trazado 878437" transform="translate(957.024 3686)" fill="none">
      <path d="M28,0A28,28,0,1,1,0,28,28,28,0,0,1,28,0Z" stroke="none"/>
      <path d="M 28 1 C 24.35457992553711 1 20.81874084472656 1.713741302490234 17.49068832397461 3.121379852294922 C 14.27566909790039 4.481220245361328 11.38806915283203 6.42816162109375 8.908119201660156 8.908119201660156 C 6.42816162109375 11.38806915283203 4.481220245361328 14.27566909790039 3.121379852294922 17.49068832397461 C 1.713741302490234 20.81874084472656 1 24.35457992553711 1 28 C 1 31.64542007446289 1.713741302490234 35.18125915527344 3.121379852294922 38.50930786132812 C 4.481220245361328 41.72433090209961 6.42816162109375 44.61193084716797 8.908119201660156 47.09188079833984 C 11.38806915283203 49.57183837890625 14.27566909790039 51.51877975463867 17.49068832397461 52.87862014770508 C 20.81874084472656 54.28625869750977 24.35457992553711 55 28 55 C 31.64542007446289 55 35.18125915527344 54.28625869750977 38.50930786132812 52.87862014770508 C 41.72433090209961 51.51877975463867 44.61193084716797 49.57183837890625 47.09188079833984 47.09188079833984 C 49.57183837890625 44.61193084716797 51.51877975463867 41.72433090209961 52.87862014770508 38.50930786132812 C 54.28625869750977 35.18125915527344 55 31.64542007446289 55 28 C 55 24.35457992553711 54.28625869750977 20.81874084472656 52.87862014770508 17.49068832397461 C 51.51877975463867 14.27566909790039 49.57183837890625 11.38806915283203 47.09188079833984 8.908119201660156 C 44.61193084716797 6.42816162109375 41.72433090209961 4.481220245361328 38.50930786132812 3.121379852294922 C 35.18125915527344 1.713741302490234 31.64542007446289 1 28 1 M 28 0 C 43.46397018432617 0 56 12.53602981567383 56 28 C 56 43.46397018432617 43.46397018432617 56 28 56 C 12.53602981567383 56 0 43.46397018432617 0 28 C 0 12.53602981567383 12.53602981567383 0 28 0 Z" stroke="none" fill="#26aab7"/>
    </g>
    <g id="Trazado_878420" data-name="Trazado 878420" transform="translate(1267.024 3686)" fill="none">
      <path d="M55.5,0C86.152,0,111,12.312,111,27.5S86.152,55,55.5,55,0,42.688,0,27.5,24.848,0,55.5,0Z" stroke="none"/>
      <path d="M 55.5 1 C 48.07633972167969 1 40.87701416015625 1.719940185546875 34.10201263427734 3.139816284179688 C 27.57585906982422 4.507553100585938 21.72083282470703 6.46258544921875 16.69955444335938 8.950599670410156 C 11.72435760498047 11.41579818725586 7.829109191894531 14.27372360229492 5.122047424316406 17.44499969482422 C 2.386863708496094 20.64923095703125 1 24.0322151184082 1 27.5 C 1 30.9677848815918 2.386863708496094 34.35076904296875 5.122047424316406 37.55500030517578 C 7.829109191894531 40.72627639770508 11.72435760498047 43.58419799804688 16.69955444335938 46.04940032958984 C 21.72083282470703 48.53741455078125 27.57585906982422 50.49244689941406 34.10201263427734 51.86018371582031 C 40.87701416015625 53.28005981445312 48.07633972167969 54 55.5 54 C 62.92366027832031 54 70.12298583984375 53.28005981445312 76.89797973632812 51.86018371582031 C 83.42414093017578 50.49244689941406 89.27916717529297 48.53741455078125 94.30044555664062 46.04940032958984 C 99.27565002441406 43.58419799804688 103.1708908081055 40.72627639770508 105.8779525756836 37.55500030517578 C 108.6131362915039 34.35076904296875 110 30.9677848815918 110 27.5 C 110 24.0322151184082 108.6131362915039 20.64923095703125 105.8779525756836 17.44499969482422 C 103.1708908081055 14.27372360229492 99.27565002441406 11.41579818725586 94.30044555664062 8.950599670410156 C 89.27916717529297 6.46258544921875 83.42414093017578 4.507553100585938 76.89797973632812 3.139816284179688 C 70.12298583984375 1.719940185546875 62.92366027832031 1 55.5 1 M 55.5 0 C 86.15180206298828 0 111 12.31216812133789 111 27.5 C 111 42.68783187866211 86.15180206298828 55 55.5 55 C 24.84819793701172 55 0 42.68783187866211 0 27.5 C 0 12.31216812133789 24.84819793701172 0 55.5 0 Z" stroke="none" fill="#26aab7"/>
    </g>
    <g id="Trazado_878428" data-name="Trazado 878428" transform="translate(1041.024 3671)" fill="none">
      <path d="M99,0c54.676,0,99,19.476,99,43.5S153.676,87,99,87,0,67.524,0,43.5,44.324,0,99,0Z" stroke="none"/>
      <path d="M 99 1 C 85.69622802734375 1 72.79254913330078 2.144477844238281 60.64744567871094 4.401603698730469 C 48.93402099609375 6.578521728515625 38.42045593261719 9.692276000976562 29.39869689941406 13.6563720703125 C 24.96824645996094 15.60307312011719 20.9490966796875 17.74312591552734 17.45285034179688 20.01702880859375 C 13.94094848632812 22.3011474609375 10.92889404296875 24.73847579956055 8.500350952148438 27.26134872436523 C 3.523468017578125 32.43154907226562 1 37.89502334594727 1 43.5 C 1 49.10497665405273 3.523468017578125 54.56845092773438 8.500350952148438 59.7386474609375 C 10.92889404296875 62.26152420043945 13.94094848632812 64.6988525390625 17.45285034179688 66.98297119140625 C 20.9490966796875 69.25687408447266 24.96824645996094 71.39692687988281 29.39869689941406 73.3436279296875 C 38.42045593261719 77.30772399902344 48.93402099609375 80.42147827148438 60.64744567871094 82.59840393066406 C 72.79254913330078 84.85552215576172 85.69622802734375 86 99 86 C 112.3037719726562 86 125.2074508666992 84.85552215576172 137.3525543212891 82.59840393066406 C 149.0659790039062 80.42147827148438 159.5795593261719 77.30772399902344 168.6013031005859 73.3436279296875 C 173.0317535400391 71.39692687988281 177.0509033203125 69.25687408447266 180.5471496582031 66.98297119140625 C 184.0590515136719 64.6988525390625 187.0711059570312 62.26152420043945 189.4996490478516 59.7386474609375 C 194.4765319824219 54.56845092773438 197 49.10497665405273 197 43.5 C 197 37.89502334594727 194.4765319824219 32.43154907226562 189.4996490478516 27.26134872436523 C 187.0711059570312 24.73847579956055 184.0590515136719 22.3011474609375 180.5471496582031 20.01702880859375 C 177.0509033203125 17.74312591552734 173.0317535400391 15.60307312011719 168.6013031005859 13.6563720703125 C 159.5795593261719 9.692276000976562 149.0659790039062 6.578521728515625 137.3525543212891 4.401603698730469 C 125.2074508666992 2.144477844238281 112.3037719726562 1 99 1 M 99 0 C 153.6762084960938 0 198 19.47562408447266 198 43.5 C 198 67.52437591552734 153.6762084960938 87 99 87 C 44.32380676269531 87 0 67.52437591552734 0 43.5 C 0 19.47562408447266 44.32380676269531 0 99 0 Z" stroke="none" fill="#26aab7"/>
    </g>
  </g>
</svg>
