<svg xmlns="http://www.w3.org/2000/svg" xmlns:xlink="http://www.w3.org/1999/xlink" width="78.501" height="75.824" viewBox="0 0 78.501 75.824">
  <defs>
    <clipPath id="clip-path">
      <rect id="Rectángulo_401173" data-name="Rectángulo 401173" width="66" height="66" transform="translate(606 4677.291)" fill="#fff" stroke="#707070" stroke-width="1"/>
    </clipPath>
  </defs>
  <g id="Grupo_1101512" data-name="Grupo 1101512" transform="translate(-580 -4661.305)">
    <g id="Grupo_1101446" data-name="Grupo 1101446" transform="translate(-20 -15.986)">
      <path id="_12068" data-name="12068" d="M72.033,71.913c-8.038-1.11-16.53-.839-23.844,2.675C38.045,79.46,31.382,90.507,31.127,101.757s5.606,22.305,14.66,28.988,21,9.051,32.068,7.045c11.165-2.023,21.645-8.583,27.469-18.322,3.735-6.245,5.48-13.956,3.417-20.934a28.6,28.6,0,0,0-6.787-11.156A50.145,50.145,0,0,0,72.033,71.913Z" transform="translate(568.881 4614.633)" fill="#26aab7"/>
      <g id="Enmascarar_grupo_1098773" data-name="Enmascarar grupo 1098773" clip-path="url(#clip-path)">
        <g id="objetivo_2_" data-name="objetivo (2)" transform="translate(603.8 4675.091)">
          <ellipse id="Elipse_11657" data-name="Elipse 11657" cx="17.654" cy="24.647" rx="17.654" ry="24.647" transform="translate(26.633 10.553)" fill="#e0e0e0"/>
          <path id="Trazado_877757" data-name="Trazado 877757" d="M44.287,53.246c-5.229,0-11.054-7.412-11.054-18.046s5.825-18.046,11.054-18.046S55.342,24.565,55.342,35.2,49.516,53.246,44.287,53.246Z" fill="#7d6eb2"/>
          <path id="Trazado_877758" data-name="Trazado 877758" d="M35.433,37.4c0-10.635,5.825-18.046,11.054-18.046A7.468,7.468,0,0,1,51,21.114c-1.986-2.519-4.4-3.961-6.708-3.961-5.229,0-11.054,7.412-11.054,18.046,0,7.573,2.957,13.494,6.546,16.286A22.9,22.9,0,0,1,35.433,37.4Z" fill="#62529b"/>
          <ellipse id="Elipse_11658" data-name="Elipse 11658" cx="4.715" cy="9.094" rx="4.715" ry="9.094" transform="translate(39.573 26.106)" fill="#f5f5f5"/>
          <path id="Trazado_877759" data-name="Trazado 877759" d="M49.446,10.553a12.856,12.856,0,0,0-2.579.265C55.394,12.561,61.942,22.812,61.942,35.2S55.394,57.839,46.866,59.582a12.856,12.856,0,0,0,2.579.265C59.2,59.847,67.1,48.812,67.1,35.2S59.2,10.554,49.446,10.554Z" fill="#757576"/>
          <path id="Trazado_877760" data-name="Trazado 877760" d="M12.865,39.379H3.3L6.6,35.2,3.3,31.021h9.565a2.2,2.2,0,0,1,2.2,2.2v3.959a2.2,2.2,0,0,1-2.2,2.2Z" fill="#7d6eb2"/>
          <path id="Trazado_877761" data-name="Trazado 877761" d="M49.446,9.454a14,14,0,0,0-2.57.251,13.809,13.809,0,0,0-2.589-.251c-9.113,0-16.879,8.918-18.465,21.206A1.1,1.1,0,0,0,28,30.941c1.443-11.176,8.291-19.287,16.284-19.287,9.128,0,16.554,10.563,16.554,23.546S53.416,58.746,44.287,58.746c-8.867,0-16.108-9.975-16.516-22.446h4.4c.391,10.836,6.439,18.046,12.117,18.046,5.87,0,12.155-7.694,12.155-19.146S50.157,16.054,44.287,16.054c-5.383,0-10.454,6.264-11.794,14.571a1.1,1.1,0,1,0,2.172.35c1.284-7.963,5.9-12.721,9.622-12.721,4.7,0,9.955,7.247,9.955,16.946s-5.256,16.946-9.955,16.946c-4.518,0-9.537-6.708-9.917-15.846h4.136c.3,5.18,2.733,9.094,5.782,9.094,3.26,0,5.814-4.478,5.814-10.194s-2.554-10.194-5.814-10.194c-3.048,0-5.478,3.914-5.782,9.094H16.165v-.879a3.3,3.3,0,0,0-3.3-3.3H3.3A1.1,1.1,0,0,0,2.437,31.7L5.2,35.2,2.437,38.7A1.1,1.1,0,0,0,3.3,40.479h9.565a3.3,3.3,0,0,0,3.3-3.3V36.3h9.388c.422,13.688,8.662,24.646,18.734,24.646a13.808,13.808,0,0,0,2.589-.251,14,14,0,0,0,2.57.251C59.787,60.946,68.2,49.4,68.2,35.2S59.787,9.454,49.446,9.454ZM13.965,37.179a1.1,1.1,0,0,1-1.1,1.1H5.57l1.893-2.4a1.1,1.1,0,0,0,0-1.363l-1.893-2.4h7.294a1.1,1.1,0,0,1,1.1,1.1v3.958Zm30.323-9.973c1.71,0,3.614,3.283,3.614,7.994s-1.9,7.994-3.614,7.994c-1.573,0-3.307-2.782-3.575-6.894h3.575a1.1,1.1,0,0,0,0-2.2H40.712C40.981,29.988,42.715,27.206,44.287,27.206Zm8.24,31.116c6.221-4.2,10.515-12.982,10.515-23.122S58.748,16.274,52.527,12.078C60.186,14.14,66,23.716,66,35.2S60.186,56.26,52.527,58.322Z"/>
        </g>
      </g>
    </g>
  </g>
</svg>
