<svg id="Grupo_1101442" data-name="Grupo 1101442" xmlns="http://www.w3.org/2000/svg" xmlns:xlink="http://www.w3.org/1999/xlink" width="392.024" height="291.804" viewBox="0 0 392.024 291.804">
  <defs>
    <clipPath id="clip-path">
      <rect id="Rect치ngulo_402249" data-name="Rect치ngulo 402249" width="392.024" height="291.804" fill="none"/>
    </clipPath>
    <clipPath id="clip-path-2">
      <path id="Trazado_877529" data-name="Trazado 877529" d="M923.754,299.241a13.884,13.884,0,1,0,13.884-13.825,13.854,13.854,0,0,0-13.884,13.825" transform="translate(-923.754 -285.416)" fill="none"/>
    </clipPath>
    <clipPath id="clip-path-4">
      <path id="Trazado_877538" data-name="Trazado 877538" d="M1406.282,185.532a15.073,15.073,0,1,0,15.073-15.009,15.041,15.041,0,0,0-15.073,15.009" transform="translate(-1406.282 -170.523)" fill="none"/>
    </clipPath>
    <clipPath id="clip-path-6">
      <path id="Trazado_877553" data-name="Trazado 877553" d="M1025.363,612.089a16.358,16.358,0,1,0,16.358-16.337,16.347,16.347,0,0,0-16.358,16.337" transform="translate(-1025.363 -595.752)" fill="none"/>
    </clipPath>
    <clipPath id="clip-path-8">
      <path id="Trazado_877561" data-name="Trazado 877561" d="M1340.747,617.771a16.358,16.358,0,1,0,16.358-16.289,16.324,16.324,0,0,0-16.358,16.289" transform="translate(-1340.747 -601.482)" fill="none"/>
    </clipPath>
  </defs>
  <g id="Grupo_1101425" data-name="Grupo 1101425">
    <g id="Grupo_1101424" data-name="Grupo 1101424" clip-path="url(#clip-path)">
      <path id="Trazado_877507" data-name="Trazado 877507" d="M947.125,1259.182H840.247a6.605,6.605,0,0,1-6.605-6.6V1227.4H953.731v25.18a6.605,6.605,0,0,1-6.605,6.6" transform="translate(-700.713 -1031.682)" fill="#fff"/>
      <path id="Trazado_877508" data-name="Trazado 877508" d="M945.276,1257.685H838.4a6.964,6.964,0,0,1-6.956-6.956V1225.55a.35.35,0,0,1,.351-.351H951.881a.351.351,0,0,1,.351.351v25.179a6.964,6.964,0,0,1-6.956,6.956M832.143,1225.9v24.829a6.262,6.262,0,0,0,6.255,6.255H945.276a6.262,6.262,0,0,0,6.255-6.255V1225.9Z" transform="translate(-698.864 -1029.834)"/>
      <path id="Trazado_877509" data-name="Trazado 877509" d="M970.992,1272.721H859.851a.351.351,0,1,1,0-.7H970.992a.351.351,0,1,1,0,.7" transform="translate(-722.448 -1069.189)"/>
      <path id="Trazado_877510" data-name="Trazado 877510" d="M507.672,198.4H178.722V9.993A7.794,7.794,0,0,1,186.516,2.2H499.878a7.793,7.793,0,0,1,7.793,7.794Z" transform="translate(-150.224 -1.848)" fill="#fff"/>
      <path id="Trazado_877511" data-name="Trazado 877511" d="M505.824,196.9H176.874a.351.351,0,0,1-.351-.351V8.144A8.153,8.153,0,0,1,184.667,0H498.03a8.153,8.153,0,0,1,8.144,8.144V196.549a.351.351,0,0,1-.351.351m-328.6-.7H505.473V8.144A7.451,7.451,0,0,0,498.03.7H184.667a7.451,7.451,0,0,0-7.443,7.443Z" transform="translate(-148.375)"/>
      <path id="Trazado_877512" data-name="Trazado 877512" d="M1647.823,121.193a.351.351,0,0,1-.351-.351V83.849a7.451,7.451,0,0,0-7.443-7.443H1548.64a.351.351,0,0,1,0-.7h91.389a8.153,8.153,0,0,1,8.144,8.144v36.994a.35.35,0,0,1-.35.351" transform="translate(-1301.407 -63.633)"/>
      <path id="Trazado_877513" data-name="Trazado 877513" d="M246.058,123.32a.351.351,0,0,1-.351-.351V83.849a8.153,8.153,0,0,1,8.144-8.144h137.9a.351.351,0,0,1,0,.7h-137.9a7.451,7.451,0,0,0-7.443,7.443V122.97a.351.351,0,0,1-.351.351" transform="translate(-206.528 -63.633)"/>
      <path id="Trazado_877514" data-name="Trazado 877514" d="M246.058,796.495a.351.351,0,0,1-.351-.351V772.1a.351.351,0,0,1,.7,0v24.048a.351.351,0,0,1-.351.351" transform="translate(-206.528 -648.687)"/>
      <path id="Trazado_877515" data-name="Trazado 877515" d="M880.791,1164.326h-163a.351.351,0,1,1,0-.7h163a.351.351,0,1,1,0,.7" transform="translate(-603.038 -978.079)"/>
      <path id="Trazado_877516" data-name="Trazado 877516" d="M984.6,164.21a69.949,69.949,0,1,1-69.948-69.866A69.907,69.907,0,0,1,984.6,164.21" transform="translate(-710.011 -79.3)" fill="#fff"/>
      <path id="Trazado_877517" data-name="Trazado 877517" d="M912.8,232.578a70.217,70.217,0,1,1,70.3-70.217,70.338,70.338,0,0,1-70.3,70.217m0-139.732a69.515,69.515,0,1,0,69.6,69.515,69.635,69.635,0,0,0-69.6-69.515" transform="translate(-708.163 -77.451)"/>
      <path id="Trazado_877518" data-name="Trazado 877518" d="M1362.791,85.994a80.556,80.556,0,0,0-78.163-61.9V104.89s65.132-15.891,78.163-18.9" transform="translate(-1079.787 -20.255)" fill="#e2eaff"/>
      <path id="Trazado_877519" data-name="Trazado 877519" d="M841.412,153.829A75.98,75.98,0,0,0,811.764,204.2c18.5,2.473,75.486,10,75.486,10s-38.322-50.247-45.837-60.367" transform="translate(-682.324 -129.3)" fill="#fff"/>
      <path id="Trazado_877520" data-name="Trazado 877520" d="M885.4,212.7a.341.341,0,0,1-.046,0c-.57-.075-57.2-7.554-75.486-10a.351.351,0,0,1-.3-.4,76.729,76.729,0,0,1,29.785-50.6.351.351,0,0,1,.492.072c7.428,10,45.451,59.86,45.834,60.363a.351.351,0,0,1-.279.563m-75.089-10.65c17.4,2.324,67.222,8.906,74.3,9.841-4.536-5.949-37.716-49.472-45.118-59.416a76.034,76.034,0,0,0-29.181,49.575" transform="translate(-680.475 -127.452)"/>
      <path id="Trazado_877521" data-name="Trazado 877521" d="M943.116,288.913a15.852,15.852,0,1,1-15.851-15.785,15.818,15.818,0,0,1,15.851,15.785" transform="translate(-766.083 -229.576)" fill="#fff"/>
      <path id="Trazado_877522" data-name="Trazado 877522" d="M925.415,303.2a16.136,16.136,0,1,1,16.2-16.135,16.187,16.187,0,0,1-16.2,16.135m0-31.569a15.434,15.434,0,1,0,15.5,15.434,15.485,15.485,0,0,0-15.5-15.434" transform="translate(-764.234 -227.727)"/>
    </g>
  </g>
  <g id="Grupo_1101427" data-name="Grupo 1101427" transform="translate(147.298 45.511)">
    <g id="Grupo_1101426" data-name="Grupo 1101426" clip-path="url(#clip-path-2)">
      <path id="Trazado_877523" data-name="Trazado 877523" d="M974.929,319.483l-.589-11.71c-.27-5.37-3.688-9.545-7.815-9.545s-7.545,4.175-7.815,9.545l-.589,11.71Z" transform="translate(-952.642 -296.185)"/>
      <path id="Trazado_877524" data-name="Trazado 877524" d="M949.519,383.062a5.962,5.962,0,0,0-4.4-4.143l-4.467-1.025v-5.618h-6.772v5.618l-4.467,1.025a5.962,5.962,0,0,0-4.4,4.143l-1.7,8.964h27.907Z" transform="translate(-923.386 -358.427)" fill="#fff"/>
      <path id="Trazado_877525" data-name="Trazado 877525" d="M949.374,390.528H921.467a.35.35,0,0,1-.344-.416l1.7-8.964a6.325,6.325,0,0,1,4.663-4.419l4.194-.962v-5.339a.351.351,0,0,1,.351-.351h6.772a.351.351,0,0,1,.351.351v5.339l4.195.962a6.316,6.316,0,0,1,4.655,4.387c0,.01.006.021.008.032l1.7,8.964a.35.35,0,0,1-.344.416m-27.484-.7h27.06l-1.622-8.531a5.614,5.614,0,0,0-4.133-3.884l-4.467-1.024a.351.351,0,0,1-.272-.342v-5.267h-6.07v5.267a.351.351,0,0,1-.272.342l-4.467,1.024a5.615,5.615,0,0,0-4.139,3.9Z" transform="translate(-921.537 -356.577)"/>
      <path id="Trazado_877526" data-name="Trazado 877526" d="M981.363,317.514a1.211,1.211,0,0,0-.728.051c-.2-3.12-2.334-5.236-4.943-5.236s-4.747,2.116-4.943,5.236a1.211,1.211,0,0,0-.728-.051,1.626,1.626,0,0,0,.777,3.114,1.173,1.173,0,0,0,.328-.138c.755,2.3,2.515,4.068,4.566,4.068s3.812-1.764,4.566-4.068a1.173,1.173,0,0,0,.327.138,1.626,1.626,0,0,0,.777-3.114" transform="translate(-961.809 -308.038)" fill="#fff"/>
      <path id="Trazado_877527" data-name="Trazado 877527" d="M973.845,323.059c-1.988,0-3.868-1.572-4.772-3.95l-.037.01a1.853,1.853,0,0,1-2.139-1.484,2.081,2.081,0,0,1,.21-1.567,1.6,1.6,0,0,1,.983-.743,1.515,1.515,0,0,1,.5-.038c.357-3.012,2.514-5.157,5.256-5.157s4.9,2.145,5.257,5.157a1.527,1.527,0,0,1,.5.038,1.6,1.6,0,0,1,.983.743,2.081,2.081,0,0,1,.21,1.567,1.855,1.855,0,0,1-2.139,1.484l-.037-.01c-.9,2.378-2.785,3.95-4.773,3.95m-4.566-4.769a.351.351,0,0,1,.333.242c.75,2.289,2.451,3.826,4.233,3.826s3.484-1.538,4.233-3.826a.351.351,0,0,1,.515-.191.825.825,0,0,0,.23.1,1.159,1.159,0,0,0,1.29-.973,1.376,1.376,0,0,0-.131-1.036.9.9,0,0,0-.55-.424.858.858,0,0,0-.518.038.351.351,0,0,1-.475-.306c-.179-2.843-2.111-4.907-4.594-4.907s-4.414,2.064-4.593,4.907a.351.351,0,0,1-.475.306.859.859,0,0,0-.519-.038.9.9,0,0,0-.551.424,1.377,1.377,0,0,0-.131,1.036,1.159,1.159,0,0,0,1.29.973.825.825,0,0,0,.23-.1.351.351,0,0,1,.182-.051" transform="translate(-959.962 -306.188)"/>
      <path id="Trazado_877528" data-name="Trazado 877528" d="M979.1,313.859c2.472-.463,5.049-2.656,6.6-4.631a6.78,6.78,0,0,0,3.5,4.524s.778-6.983-5.066-6.758-5.026,6.865-5.026,6.865" transform="translate(-970.24 -303.549)"/>
    </g>
  </g>
  <g id="Grupo_1101429" data-name="Grupo 1101429">
    <g id="Grupo_1101428" data-name="Grupo 1101428" clip-path="url(#clip-path)">
      <path id="Trazado_877530" data-name="Trazado 877530" d="M1427.3,174.319a17.209,17.209,0,1,1-17.209-17.136,17.173,17.173,0,0,1,17.209,17.136" transform="translate(-1170.782 -132.119)" fill="#fff"/>
      <path id="Trazado_877531" data-name="Trazado 877531" d="M1408.245,189.957a17.487,17.487,0,1,1,17.56-17.487,17.543,17.543,0,0,1-17.56,17.487m0-34.273A16.786,16.786,0,1,0,1425.1,172.47a16.841,16.841,0,0,0-16.858-16.786" transform="translate(-1168.933 -130.27)"/>
    </g>
  </g>
  <g id="Grupo_1101431" data-name="Grupo 1101431" transform="translate(224.239 27.191)">
    <g id="Grupo_1101430" data-name="Grupo 1101430" clip-path="url(#clip-path-4)">
      <path id="Trazado_877532" data-name="Trazado 877532" d="M1434.255,284.766h-30.3a.351.351,0,0,1-.344-.416l1.85-9.732a6.835,6.835,0,0,1,5.039-4.774l4.577-1.05v-5.819a.351.351,0,0,1,.351-.351h7.351a.351.351,0,0,1,.351.351v5.819l4.577,1.05a6.827,6.827,0,0,1,5.031,4.742.3.3,0,0,1,.008.032l1.85,9.732a.351.351,0,0,1-.345.416m-29.873-.7h29.45l-1.768-9.3a6.126,6.126,0,0,0-4.51-4.238l-4.85-1.112a.351.351,0,0,1-.272-.342v-5.748h-6.65v5.748a.351.351,0,0,1-.272.342l-4.849,1.112a6.125,6.125,0,0,0-4.515,4.254Z" transform="translate(-1404.033 -247.937)"/>
      <path id="Trazado_877533" data-name="Trazado 877533" d="M1469.133,206.36a1.3,1.3,0,0,0-.782.055c-.212-3.354-2.51-5.629-5.315-5.629s-5.1,2.275-5.315,5.629a1.3,1.3,0,0,0-.782-.055,1.748,1.748,0,0,0,.836,3.348,1.269,1.269,0,0,0,.352-.149c.812,2.477,2.7,4.374,4.909,4.374s4.1-1.9,4.91-4.374a1.261,1.261,0,0,0,.352.149,1.748,1.748,0,0,0,.836-3.348" transform="translate(-1447.963 -195.96)" fill="#fff"/>
      <path id="Trazado_877534" data-name="Trazado 877534" d="M1461.19,212.435c-2.132,0-4.151-1.694-5.115-4.253l-.062.017a1.965,1.965,0,0,1-2.268-1.577,2.213,2.213,0,0,1,.224-1.665,1.692,1.692,0,0,1,1.04-.787,1.614,1.614,0,0,1,.553-.038c.373-3.239,2.686-5.547,5.628-5.547s5.255,2.309,5.628,5.547a1.615,1.615,0,0,1,.554.038,1.694,1.694,0,0,1,1.041.787,2.212,2.212,0,0,1,.223,1.665,1.967,1.967,0,0,1-2.268,1.577l-.062-.017c-.964,2.559-2.982,4.252-5.115,4.252m-4.91-5.075a.35.35,0,0,1,.333.242c.81,2.472,2.649,4.132,4.576,4.132s3.767-1.661,4.576-4.132a.351.351,0,0,1,.515-.191.92.92,0,0,0,.254.108,1.274,1.274,0,0,0,1.419-1.066,1.507,1.507,0,0,0-.144-1.134.992.992,0,0,0-.608-.468.947.947,0,0,0-.573.042.351.351,0,0,1-.475-.306c-.193-3.072-2.281-5.3-4.965-5.3s-4.771,2.229-4.965,5.3a.351.351,0,0,1-.475.306.956.956,0,0,0-.573-.042.991.991,0,0,0-.608.468,1.506,1.506,0,0,0-.144,1.134,1.271,1.271,0,0,0,1.419,1.066.908.908,0,0,0,.255-.108.348.348,0,0,1,.181-.051" transform="translate(-1446.117 -194.11)"/>
      <path id="Trazado_877535" data-name="Trazado 877535" d="M1473.079,258.688c-2.231,0-4.338-1.855-5.243-4.615a.351.351,0,1,1,.666-.218c.81,2.472,2.649,4.132,4.576,4.132s3.767-1.661,4.576-4.132a.351.351,0,0,1,.667.218c-.9,2.761-3.011,4.615-5.243,4.615" transform="translate(-1458.007 -240.363)"/>
      <path id="Trazado_877536" data-name="Trazado 877536" d="M1460.637,186.12c-1.338,1.591-1.366,4.188-.076,6.516l1.321,1.546c-.013-3.759.613-4.772,1.221-4.957,1-.306,2.192,1.569,4.369,1.523a2.084,2.084,0,0,0,1.528-.539c.391-.437.332-.972.45-.983.194-.019.546,1,1.221,4.957l1.3-1.558a14.219,14.219,0,0,0-.207-7.972,2.964,2.964,0,0,1-1.61,1.822c-1.757.579-3.074-2-5.89-1.991a4.874,4.874,0,0,0-3.632,1.638" transform="translate(-1451.109 -182.256)" fill="#fff"/>
      <path id="Trazado_877537" data-name="Trazado 877537" d="M1460.071,192.683a.351.351,0,0,1-.267-.123l-1.321-1.546a.4.4,0,0,1-.04-.058c-1.354-2.442-1.308-5.22.114-6.911a5.211,5.211,0,0,1,3.9-1.763h.009a6.465,6.465,0,0,1,3.559,1.289c.84.533,1.505.954,2.213.72a2.565,2.565,0,0,0,1.4-1.621.35.35,0,0,1,.658.026,14.576,14.576,0,0,1,.212,8.168.349.349,0,0,1-.07.136l-1.3,1.558a.351.351,0,0,1-.615-.166c-.4-2.329-.666-3.519-.835-4.126a1.669,1.669,0,0,1-.229.328,2.413,2.413,0,0,1-1.782.656,5.3,5.3,0,0,1-3.024-1.039c-.51-.317-.951-.59-1.25-.5s-.986.722-.972,4.62a.35.35,0,0,1-.351.352m7.633-5.663c.337,0,.635.34,1.372,4.508l.769-.918a13.867,13.867,0,0,0,.021-6.85,2.685,2.685,0,0,1-1.409,1.2c-1.025.338-1.891-.212-2.808-.793a5.807,5.807,0,0,0-3.183-1.18h-.008a4.491,4.491,0,0,0-3.364,1.513c-1.231,1.464-1.252,3.907-.055,6.089l.692.809c.076-2.685.545-4.076,1.458-4.355.6-.184,1.168.167,1.824.574a4.7,4.7,0,0,0,2.639.934,1.764,1.764,0,0,0,1.275-.423,1.312,1.312,0,0,0,.276-.616c.039-.17.105-.454.4-.482.033,0,.066-.006.1-.006m-8.878-2.75h0Z" transform="translate(-1449.298 -180.407)"/>
    </g>
  </g>
  <g id="Grupo_1101433" data-name="Grupo 1101433">
    <g id="Grupo_1101432" data-name="Grupo 1101432" clip-path="url(#clip-path)">
      <path id="Trazado_877539" data-name="Trazado 877539" d="M1048.176,599.883a18.676,18.676,0,1,1-18.676-18.652,18.664,18.664,0,0,1,18.676,18.652" transform="translate(-849.642 -488.55)" fill="#fff"/>
      <path id="Trazado_877540" data-name="Trazado 877540" d="M1027.652,617.037a19,19,0,1,1,19.027-19,19.037,19.037,0,0,1-19.027,19m0-37.305a18.3,18.3,0,1,0,18.325,18.3,18.335,18.335,0,0,0-18.325-18.3" transform="translate(-847.794 -486.701)"/>
    </g>
  </g>
  <g id="Grupo_1101435" data-name="Grupo 1101435" transform="translate(163.5 94.996)">
    <g id="Grupo_1101434" data-name="Grupo 1101434" clip-path="url(#clip-path-6)">
      <path id="Trazado_877541" data-name="Trazado 877541" d="M1073.171,606.923a3.047,3.047,0,0,0-3.567-4.384,3.338,3.338,0,0,0-6.523-1.318,5.5,5.5,0,0,1-6.438,1.349,2.876,2.876,0,0,0-1.81,5.115,3.414,3.414,0,0,0-.845,6.278,2.5,2.5,0,0,0,3.093,3.4,2.421,2.421,0,1,0,4.781.537c0-1.336,2.589-1.734,2.589-.191a2.8,2.8,0,1,0,5.45-.883c.048,0,.1.007.145.007a2.671,2.671,0,0,0,2.672-2.669c0-.059-.005-.116-.009-.174.045,0,.089.007.134.007a3.544,3.544,0,0,0,.327-7.073" transform="translate(-1047.97 -598.32)" fill="#fff"/>
      <path id="Trazado_877542" data-name="Trazado 877542" d="M1065.4,619a3.15,3.15,0,0,1-3.149-3.145c0-.561-.469-.645-.749-.645-.55,0-1.138.336-1.138.835a2.772,2.772,0,0,1-5.545,0c0-.026,0-.052,0-.078a2.793,2.793,0,0,1-.4.029,2.858,2.858,0,0,1-2.856-2.853,2.81,2.81,0,0,1,.144-.892,3.763,3.763,0,0,1,.625-6.568,3.228,3.228,0,0,1,3.756-5.047,3.254,3.254,0,0,1,3.132-2.44,3.21,3.21,0,0,1,1.853.585,3.69,3.69,0,0,1,7.057,1.458,3.394,3.394,0,0,1,3.705,4.555,3.895,3.895,0,0,1-.62,7.693,3.027,3.027,0,0,1-2.715,2.827,3.111,3.111,0,0,1,.048.54A3.15,3.15,0,0,1,1065.4,619m-3.9-4.49a1.326,1.326,0,0,1,1.45,1.346,2.447,2.447,0,1,0,4.767-.772.351.351,0,0,1,.352-.461l.049,0c.025,0,.051,0,.077,0a2.322,2.322,0,0,0,2.321-2.318c0-.038,0-.075-.005-.113l0-.038a.351.351,0,0,1,.363-.373l.065,0,.056,0a3.193,3.193,0,0,0,.295-6.373.351.351,0,0,1-.275-.52,2.7,2.7,0,0,0-3.157-3.879.351.351,0,0,1-.452-.375,3.09,3.09,0,0,0,.023-.355,2.989,2.989,0,0,0-5.86-.826.351.351,0,0,1-.582.154,2.518,2.518,0,0,0-1.766-.72,2.543,2.543,0,0,0-2.52,2.307.351.351,0,0,1-.539.265,2.526,2.526,0,0,0-2.957,4.088.351.351,0,0,1-.134.612,3.063,3.063,0,0,0-.758,5.634.351.351,0,0,1,.145.45,2.128,2.128,0,0,0-.195.889,2.151,2.151,0,0,0,2.854,2.033.35.35,0,0,1,.455.409,2.07,2.07,0,1,0,4.089.459,1.721,1.721,0,0,1,1.84-1.537" transform="translate(-1046.12 -596.471)"/>
      <path id="Trazado_877543" data-name="Trazado 877543" d="M1050.539,736.4l-9.252-2.128-9.252,2.128a7.033,7.033,0,0,0-5.181,4.9l-2.008,10.593h32.881l-2.008-10.593a7.034,7.034,0,0,0-5.18-4.9" transform="translate(-1024.928 -712.183)" fill="#fff"/>
      <path id="Trazado_877544" data-name="Trazado 877544" d="M1055.878,750.391H1023a.35.35,0,0,1-.344-.416l2.008-10.593a7.4,7.4,0,0,1,5.446-5.172l9.252-2.128a.35.35,0,0,1,.158,0l9.252,2.128a7.388,7.388,0,0,1,5.439,5.14l2.016,10.625a.351.351,0,0,1-.345.416m-32.457-.7h32.034l-1.929-10.177a6.678,6.678,0,0,0-4.915-4.619l-9.173-2.11-9.173,2.11a6.686,6.686,0,0,0-4.922,4.652Z" transform="translate(-1023.08 -710.336)"/>
      <path id="Trazado_877545" data-name="Trazado 877545" d="M1103.231,705.573l1.234-7.18h5.415l1.22,7.1Z" transform="translate(-1090.814 -682.026)" fill="#fff"/>
      <path id="Trazado_877546" data-name="Trazado 877546" d="M1093.239,633.682a1.424,1.424,0,0,0-.858.06c-.232-3.687-2.75-6.187-5.824-6.187s-5.593,2.5-5.824,6.187a1.424,1.424,0,0,0-.858-.06,1.922,1.922,0,0,0,.916,3.68,1.39,1.39,0,0,0,.385-.163c.889,2.723,2.963,4.807,5.38,4.807s4.491-2.084,5.38-4.807a1.39,1.39,0,0,0,.385.163,1.922,1.922,0,0,0,.916-3.68" transform="translate(-1070.2 -622.484)" fill="#fff"/>
      <path id="Trazado_877547" data-name="Trazado 877547" d="M1080.734,665.827a1.423,1.423,0,0,0-.858-.06,1.922,1.922,0,0,0,.916,3.68,1.379,1.379,0,0,0,.386-.163c.889,2.723,2.963,4.807,5.38,4.807s4.491-2.084,5.38-4.807a1.38,1.38,0,0,0,.385.163,1.922,1.922,0,0,0,.916-3.68,1.422,1.422,0,0,0-.857.06Z" transform="translate(-1070.2 -654.569)" fill="#fff"/>
      <path id="Trazado_877548" data-name="Trazado 877548" d="M1084.708,672.594c-2.331,0-4.538-1.865-5.585-4.681-.032.01-.064.019-.1.027a2.121,2.121,0,0,1-2.445-1.708,2.415,2.415,0,0,1,.16-1.655,1.833,1.833,0,0,1,1.2-1,1.778,1.778,0,0,1,1.067.073.351.351,0,0,1-.251.655,1.078,1.078,0,0,0-.647-.047,1.143,1.143,0,0,0-.741.629,1.713,1.713,0,0,0-.108,1.174,1.427,1.427,0,0,0,1.6,1.2,1.022,1.022,0,0,0,.288-.122.35.35,0,0,1,.515.191c.892,2.731,2.92,4.565,5.047,4.565s4.155-1.835,5.047-4.565a.351.351,0,0,1,.516-.191,1.027,1.027,0,0,0,.288.122,1.428,1.428,0,0,0,1.6-1.2,1.713,1.713,0,0,0-.108-1.174,1.143,1.143,0,0,0-.741-.629,1.066,1.066,0,0,0-.647.047.351.351,0,0,1-.251-.655,1.777,1.777,0,0,1,1.067-.073,1.833,1.833,0,0,1,1.2,1,2.417,2.417,0,0,1,.16,1.655,2.122,2.122,0,0,1-2.446,1.708q-.048-.012-.1-.027c-1.047,2.816-3.254,4.681-5.585,4.681" transform="translate(-1068.35 -652.721)"/>
      <path id="Trazado_877549" data-name="Trazado 877549" d="M1091.425,642.388a13.062,13.062,0,0,0,7.673-4.547,6.5,6.5,0,0,0,3.975,4.547Z" transform="translate(-1080.891 -631.13)" fill="#fff"/>
      <path id="Trazado_877550" data-name="Trazado 877550" d="M1101.224,640.889a.352.352,0,0,1-.141-.03,7.054,7.054,0,0,1-4.008-4.111,13.482,13.482,0,0,1-7.434,4.135.351.351,0,0,1-.129-.689,12.618,12.618,0,0,0,7.462-4.418.35.35,0,0,1,.622.156,6.09,6.09,0,0,0,3.771,4.285.351.351,0,0,1-.142.672" transform="translate(-1079.042 -629.28)"/>
      <path id="Trazado_877551" data-name="Trazado 877551" d="M1146,713.854a.351.351,0,0,1-.345-.291l-.8-4.641a.351.351,0,0,1,.691-.119l.8,4.641a.351.351,0,0,1-.286.405.371.371,0,0,1-.06.005" transform="translate(-1125.795 -690.532)"/>
      <path id="Trazado_877552" data-name="Trazado 877552" d="M1102,714.087a.368.368,0,0,1-.059-.005.351.351,0,0,1-.286-.405l.79-4.6a.351.351,0,1,1,.691.119l-.79,4.6a.351.351,0,0,1-.345.291" transform="translate(-1089.486 -690.765)"/>
    </g>
  </g>
  <g id="Grupo_1101437" data-name="Grupo 1101437">
    <g id="Grupo_1101436" data-name="Grupo 1101436" clip-path="url(#clip-path)">
      <path id="Trazado_877554" data-name="Trazado 877554" d="M1363.56,605.6a18.677,18.677,0,1,1-18.676-18.6,18.637,18.637,0,0,1,18.676,18.6" transform="translate(-1114.736 -493.403)" fill="#fff"/>
      <path id="Trazado_877555" data-name="Trazado 877555" d="M1343.035,622.7a18.949,18.949,0,1,1,19.027-18.948,19.01,19.01,0,0,1-19.027,18.948m0-37.2a18.247,18.247,0,1,0,18.326,18.247,18.307,18.307,0,0,0-18.326-18.247" transform="translate(-1112.888 -491.555)"/>
    </g>
  </g>
  <g id="Grupo_1101439" data-name="Grupo 1101439" transform="translate(213.79 95.91)">
    <g id="Grupo_1101438" data-name="Grupo 1101438" clip-path="url(#clip-path-8)">
      <path id="Trazado_877556" data-name="Trazado 877556" d="M1401.019,613.62c-.082,1-1.017,1.377-1.347,2.023s.077,1.23-.662,2.222c-.724.971-1.519.524-2.115.945-.578.408-1.017,1.155-1.681,1.436-.641.271-1.421.044-2.121.183-.673.134-1.346.658-2.053.659-.678,0-1.319-.67-2.011-.8s-1.231.437-1.86.2c-1.265-.477-.952-1.082-1.518-1.452-.588-.385-1.7-.277-2.374-.938-.774-.761-.2-1.409-.571-2-.378-.606-1.246-.577-1.54-1.745-.273-1.089.288-1.6.247-2.325s-.742-1.395-.485-2.1c.4-1.082,1.087-1.137,1.417-1.783s.172-1.622.609-2.209c.577-.776,1.511-.464,2.107-.885.578-.408.666-1.168,1.462-1.655.718-.44,1.631.165,2.331.026.673-.134.877-.884,1.843-.868.824.015,1.347.756,2.039.888s1.207-.432,2.075-.105c.973.367.9,1.156,1.465,1.526.588.385,1.3.118,2.041.777.808.718.341,1.474.708,2.061.378.606,1.327.915,1.546,1.587s-.313,1.531-.228,2.253c.11.932.764,1,.675,2.078" transform="translate(-1374.474 -602.383)"/>
      <path id="Trazado_877557" data-name="Trazado 877557" d="M1371.262,725.595H1338.38a.35.35,0,0,1-.344-.416l2.008-10.562a7.388,7.388,0,0,1,5.447-5.158l4.991-1.145v-6.34a.351.351,0,0,1,.351-.351h7.979a.351.351,0,0,1,.351.351v6.34l4.991,1.145a7.379,7.379,0,0,1,5.439,5.125.3.3,0,0,1,.008.032l2.008,10.562a.35.35,0,0,1-.344.416m-32.458-.7h32.034l-1.926-10.129a6.678,6.678,0,0,0-4.918-4.622l-5.263-1.207a.351.351,0,0,1-.272-.342v-6.268h-7.277v6.268a.351.351,0,0,1-.272.342l-5.263,1.207a6.678,6.678,0,0,0-4.922,4.638Z" transform="translate(-1338.463 -685.656)"/>
      <path id="Trazado_877558" data-name="Trazado 877558" d="M1408.958,653.165a1.417,1.417,0,0,0-.85.059c-.229-3.641-2.723-3.683-5.768-3.683s-5.539.042-5.768,3.683a1.416,1.416,0,0,0-.849-.059,1.9,1.9,0,0,0,.907,3.634,1.366,1.366,0,0,0,.382-.161c.881,2.689,2.935,4.747,5.328,4.747s4.448-2.058,5.328-4.747a1.365,1.365,0,0,0,.382.161,1.9,1.9,0,0,0,.907-3.634" transform="translate(-1385.982 -641.878)" fill="#fff"/>
      <path id="Trazado_877559" data-name="Trazado 877559" d="M1400.494,659.887c-2.309,0-4.5-1.842-5.533-4.622l-.094.026a2.106,2.106,0,0,1-2.425-1.69,2.369,2.369,0,0,1,.239-1.784,1.807,1.807,0,0,1,1.111-.841,1.721,1.721,0,0,1,.621-.037c.428-3.6,3.3-3.6,6.081-3.6s5.652,0,6.081,3.6a1.723,1.723,0,0,1,.621.037,1.808,1.808,0,0,1,1.111.84,2.367,2.367,0,0,1,.24,1.785,2.105,2.105,0,0,1-2.426,1.69c-.031-.008-.062-.016-.093-.026-1.038,2.78-3.224,4.622-5.533,4.622m-5.328-5.448a.35.35,0,0,1,.333.242c.883,2.695,2.89,4.505,5,4.505s4.113-1.811,5-4.505a.351.351,0,0,1,.515-.191,1.022,1.022,0,0,0,.284.121,1.411,1.411,0,0,0,1.577-1.178,1.665,1.665,0,0,0-.16-1.253,1.1,1.1,0,0,0-.678-.521,1.054,1.054,0,0,0-.64.046.351.351,0,0,1-.475-.305c-.2-3.2-2.093-3.355-5.418-3.355s-5.217.156-5.418,3.354a.351.351,0,0,1-.474.306,1.057,1.057,0,0,0-.641-.046,1.1,1.1,0,0,0-.678.521,1.662,1.662,0,0,0-.159,1.253,1.408,1.408,0,0,0,1.576,1.178,1,1,0,0,0,.285-.121.351.351,0,0,1,.181-.051" transform="translate(-1384.136 -640.029)"/>
      <path id="Trazado_877560" data-name="Trazado 877560" d="M1406.59,668.659l.188-.4c1,3.9,2.107,4.834,2.949,4.945.9.118,1.4-.712,2.932-.7,1.482.013,1.942.809,2.8.657.784-.138,1.759-1.036,2.531-4.474l.426-.273a9.211,9.211,0,0,1-1.266,5.075c-.539.9-2.167,3.605-4.725,3.628-2.895.026-4.652-3.407-4.947-3.975a8.45,8.45,0,0,1-.892-4.48" transform="translate(-1396.072 -657.608)"/>
    </g>
  </g>
  <g id="Grupo_1101441" data-name="Grupo 1101441">
    <g id="Grupo_1101440" data-name="Grupo 1101440" clip-path="url(#clip-path)">
      <rect id="Rect치ngulo_402253" data-name="Rect치ngulo 402253" width="72.553" height="32.798" transform="translate(80.302 146.305)" fill="#e2eaff"/>
      <path id="Trazado_877562" data-name="Trazado 877562" d="M846.77,968.583h-11.2a.526.526,0,1,1,0-1.052h11.2a.526.526,0,0,1,0,1.052" transform="translate(-701.887 -813.253)" fill="#fff"/>
      <path id="Trazado_877563" data-name="Trazado 877563" d="M586.541,968.583H550.826a.526.526,0,1,1,0-1.052h35.715a.526.526,0,1,1,0,1.052" transform="translate(-462.552 -813.253)" fill="#fff"/>
      <path id="Trazado_877564" data-name="Trazado 877564" d="M722.967,1018.124H688.276a.526.526,0,0,1,0-1.052h34.691a.526.526,0,0,1,0,1.052" transform="translate(-578.084 -854.894)" fill="#fff"/>
      <path id="Trazado_877565" data-name="Trazado 877565" d="M564.816,1018.124h-13.99a.526.526,0,1,1,0-1.052h13.99a.526.526,0,1,1,0,1.052" transform="translate(-462.552 -854.894)" fill="#fff"/>
      <path id="Trazado_877566" data-name="Trazado 877566" d="M820.463,1067.666h-16.2a.526.526,0,1,1,0-1.052h16.2a.526.526,0,0,1,0,1.052" transform="translate(-675.581 -896.537)" fill="#fff"/>
      <path id="Trazado_877567" data-name="Trazado 877567" d="M581.55,1067.666H550.826a.526.526,0,1,1,0-1.052H581.55a.526.526,0,1,1,0,1.052" transform="translate(-462.552 -896.537)" fill="#fff"/>
      <path id="Trazado_877568" data-name="Trazado 877568" d="M1094.454,954.556h-88.43a.351.351,0,0,1,0-.7H1094.1V938.3a.351.351,0,0,1,.7,0v15.9a.351.351,0,0,1-.351.351" transform="translate(-845.313 -788.391)"/>
      <path id="Trazado_877569" data-name="Trazado 877569" d="M1740.695,694.654l-20.16-.641s-13.222,148.186-15.381,170.85l-5.022,5.432a2.685,2.685,0,0,0,1.971,4.507h32.345a8.428,8.428,0,0,0,8.425-8.2l2.132-79.129s6.463,47.432,39.733,77.979l-1.767,2.581a4.326,4.326,0,0,0,3.57,6.77h5.027a24.31,24.31,0,0,0,16.212-6.144,45.661,45.661,0,0,0,11.6-16.13,9.176,9.176,0,0,0-1.218-9.207c-8.6-11.11-32.548-42.662-38.545-56.953-7.346-17.507-6.4-62.29-23.349-90.636Z" transform="translate(-1428.433 -583.349)" fill="#fff"/>
      <path id="Trazado_877570" data-name="Trazado 877570" d="M1789.713,873.3h-5.028a4.677,4.677,0,0,1-3.859-7.319l1.6-2.33c-17.1-15.8-26.952-36.1-32.211-50.376a158.166,158.166,0,0,1-6.805-24.124l-2.037,75.607a8.732,8.732,0,0,1-8.775,8.542h-32.345a3.035,3.035,0,0,1-2.229-5.1l4.942-5.345c2.168-22.789,15.237-169.25,15.369-170.729a.351.351,0,0,1,.349-.32h.011l20.159.641h.013l15.577,1.078a.349.349,0,0,1,.277.17c10.568,17.675,14.243,41.988,17.2,61.524,1.83,12.11,3.411,22.568,6.175,29.156,5.894,14.045,28.887,44.453,38.5,56.875a9.526,9.526,0,0,1,1.263,9.559,45.765,45.765,0,0,1-11.691,16.254,24.621,24.621,0,0,1-16.446,6.233m-46.562-88.031a.351.351,0,0,1,.347.3,146.281,146.281,0,0,0,7.378,27.478c5.255,14.261,15.115,34.563,32.244,50.29a.351.351,0,0,1,.052.456l-1.767,2.581a3.976,3.976,0,0,0,3.28,6.222h5.028a23.924,23.924,0,0,0,15.979-6.055,45.078,45.078,0,0,0,11.513-16.006,8.825,8.825,0,0,0-1.173-8.854c-9.629-12.444-32.665-42.911-38.591-57.032-2.8-6.668-4.385-17.167-6.222-29.323-2.935-19.417-6.586-43.569-17.01-61.112l-15.387-1.064-19.823-.63c-.7,7.849-13.266,148.632-15.352,170.522a.349.349,0,0,1-.091.2l-5.022,5.432a2.334,2.334,0,0,0,1.714,3.918h32.345a8.034,8.034,0,0,0,8.074-7.86l2.133-79.129a.351.351,0,0,1,.331-.341h.02" transform="translate(-1426.578 -581.5)"/>
      <path id="Trazado_877571" data-name="Trazado 877571" d="M1981.7,983.289h0a.351.351,0,0,1-.349-.353c.11-17.4.99-35.016,2.616-52.345a.351.351,0,0,1,.277-.31l6.364-1.34a.351.351,0,1,1,.145.686l-6.111,1.287c-1.609,17.226-2.48,34.729-2.589,52.027a.351.351,0,0,1-.351.348" transform="translate(-1665.415 -780.809)"/>
      <path id="Trazado_877572" data-name="Trazado 877572" d="M2239.83,1624.077a.351.351,0,0,1-.1-.686,43.671,43.671,0,0,0,27.155-24.488.351.351,0,1,1,.646.273,44.38,44.38,0,0,1-27.6,24.886.337.337,0,0,1-.1.016" transform="translate(-1882.382 -1343.768)"/>
      <path id="Trazado_877573" data-name="Trazado 877573" d="M2242.292,1772.957a.348.348,0,0,1-.157-.037,20.342,20.342,0,0,1-4.565-3.125.351.351,0,0,1,.471-.52,19.635,19.635,0,0,0,4.407,3.018.351.351,0,0,1-.157.664" transform="translate(-1880.681 -1487.079)"/>
      <path id="Trazado_877574" data-name="Trazado 877574" d="M1764.832,1762.981a138.737,138.737,0,0,1-18.251-1.2.351.351,0,0,1,.093-.7,138.122,138.122,0,0,0,34.081.278.351.351,0,0,1,.081.7,138.708,138.708,0,0,1-16,.926" transform="translate(-1467.823 -1480.265)"/>
      <path id="Trazado_877575" data-name="Trazado 877575" d="M1833.4,671s6.682,6.207,11.866,28.719c0,0-9.357-1.8-26.421,2.246a14.161,14.161,0,0,1-17.35-12.016,86.232,86.232,0,0,1-.655-14.641l-1.419,20.625a6.617,6.617,0,0,1-6.6,6.162s4.513-27.926,6.419-33.516Z" transform="translate(-1506.944 -561.975)" fill="#fff"/>
      <path id="Trazado_877576" data-name="Trazado 877576" d="M1813.715,700.854a14.5,14.5,0,0,1-14.416-12.707q-.375-3.04-.56-5.9l-.816,11.864a6.989,6.989,0,0,1-6.952,6.489.351.351,0,0,1-.346-.407c.185-1.141,4.539-28.019,6.433-33.573a.351.351,0,0,1,.356-.237l34.163,2.418a.348.348,0,0,1,.214.093c.276.256,6.821,6.538,11.97,28.9a.351.351,0,0,1-.408.423c-.093-.018-9.5-1.735-26.274,2.243a14.577,14.577,0,0,1-3.363.393m-14.724-27.741h.021a.351.351,0,0,1,.33.368,85.228,85.228,0,0,0,.652,14.58,13.81,13.81,0,0,0,16.921,11.717c14.708-3.487,23.831-2.628,26.043-2.329-4.761-20.36-10.786-27.146-11.563-27.954l-33.759-2.39c-1.789,5.631-5.687,29.32-6.252,32.782a6.288,6.288,0,0,0,5.837-5.822l1.419-20.625a.351.351,0,0,1,.35-.327" transform="translate(-1505.095 -560.127)"/>
      <path id="Trazado_877577" data-name="Trazado 877577" d="M2056.879,737.407h-8.62l-5.594,4.58s-7.237-3.2-8.952-1.292,1.124,3.59,3.51,3.59c3.972,0,7.644,4.041,8.082,5.576l1.8,6.865s8.066-2.882,10.4-4.8Z" transform="translate(-1708.985 -619.823)" fill="#fff"/>
      <path id="Trazado_877578" data-name="Trazado 877578" d="M2045.254,755.228a.35.35,0,0,1-.339-.261l-1.8-6.865c-.388-1.361-3.961-5.315-7.743-5.315-1.629,0-3.658-.771-4.232-2.06a1.863,1.863,0,0,1,.461-2.115c1.722-1.915,7.8.539,9.156,1.12l5.428-4.444a.351.351,0,0,1,.222-.079h8.619a.351.351,0,0,1,.35.336l.629,14.515a.35.35,0,0,1-.127.286c-2.352,1.938-10.171,4.745-10.5,4.863a.353.353,0,0,1-.118.02m-11.509-16.647a2.16,2.16,0,0,0-1.628.5,1.2,1.2,0,0,0-.342,1.361c.4.891,2.042,1.644,3.591,1.644,4.135,0,7.926,4.1,8.419,5.831l1.709,6.5c1.551-.57,7.678-2.877,9.8-4.506l-.607-14h-8.158l-5.5,4.5a.351.351,0,0,1-.364.049,21.622,21.622,0,0,0-6.922-1.878" transform="translate(-1707.13 -617.975)"/>
      <path id="Trazado_877579" data-name="Trazado 877579" d="M1533.386,374.937l1.125-5.381s-14.79-21.993-18.338-21.562,1.8,6.874,2.688,8.171c0,0-3.085-1.188-2.658,1.944a1.875,1.875,0,0,0-2.515,2s-2.486-.779-1.836,3.351,2.527,2.572,2.527,2.572l7.406,13.393Z" transform="translate(-1270.687 -292.499)" fill="#fff"/>
      <path id="Trazado_877580" data-name="Trazado 877580" d="M1519.94,377.931a.35.35,0,0,1-.307-.181l-7.231-13.077a1.463,1.463,0,0,1-1.14.066c-.789-.3-1.328-1.331-1.6-3.07-.265-1.686-.057-2.837.618-3.419a1.718,1.718,0,0,1,1.242-.391,2.256,2.256,0,0,1,.858-1.655,2.326,2.326,0,0,1,1.59-.362,1.973,1.973,0,0,1,.636-1.718,2.154,2.154,0,0,1,1.573-.35c-2.084-2.8-3.91-5.591-3.274-7.077a1.571,1.571,0,0,1,1.382-.892,1.038,1.038,0,0,1,.125-.007c3.827,0,17.038,19.477,18.547,21.722a.349.349,0,0,1,.052.268l-1.125,5.381a.351.351,0,0,1-.217.255l-11.6,4.484a.35.35,0,0,1-.126.024m-7.405-14.093a.352.352,0,0,1,.307.18l7.257,13.125,11.14-4.3,1.055-5.049c-5.9-8.766-15.479-21.587-17.922-21.287-.654.08-.781.375-.822.472-.57,1.332,2.2,5.046,3.239,6.444.225.3.406.546.518.709a.351.351,0,0,1-.415.526c-.343-.13-1.343-.381-1.852.023-.326.259-.439.779-.334,1.546a.351.351,0,0,1-.449.383,1.911,1.911,0,0,0-1.469.171,1.812,1.812,0,0,0-.593,1.5.351.351,0,0,1-.456.325,1.167,1.167,0,0,0-1.006.187c-.327.286-.658,1-.378,2.775.3,1.924.851,2.405,1.151,2.521a.916.916,0,0,0,.807-.165.355.355,0,0,1,.222-.078m19.008,9.259h0Z" transform="translate(-1268.844 -290.659)"/>
      <path id="Trazado_877581" data-name="Trazado 877581" d="M1561.672,403.061a.35.35,0,0,1-.309-.184,7.205,7.205,0,0,0-3.149-3.016.351.351,0,0,1,.308-.63,7.913,7.913,0,0,1,3.458,3.312.351.351,0,0,1-.308.518" transform="translate(-1309.583 -335.542)"/>
      <path id="Trazado_877582" data-name="Trazado 877582" d="M1542.988,416.741a.351.351,0,0,1-.327-.223,7.594,7.594,0,0,0-2.528-3.295.351.351,0,0,1,.417-.564,8.3,8.3,0,0,1,2.765,3.6.351.351,0,0,1-.326.479" transform="translate(-1294.431 -346.801)"/>
      <path id="Trazado_877583" data-name="Trazado 877583" d="M1528.378,427.268a.35.35,0,0,1-.315-.2,7.144,7.144,0,0,0-2.256-2.659.351.351,0,1,1,.407-.571,7.849,7.849,0,0,1,2.478,2.921.351.351,0,0,1-.314.505" transform="translate(-1282.385 -356.203)"/>
      <path id="Trazado_877584" data-name="Trazado 877584" d="M1521.8,447.531a.351.351,0,0,1-.322-.21l-1.026-2.346a.351.351,0,0,1,.643-.281l1.026,2.346a.35.35,0,0,1-.181.462.346.346,0,0,1-.14.03" transform="translate(-1277.982 -373.608)"/>
      <path id="Trazado_877585" data-name="Trazado 877585" d="M1587.439,419.642s-9.755,2.142-12.727,9.865c0,0,8.45,21.3,21.974,22.385a19.918,19.918,0,0,0,19.128-9.566l-2.042,9.287s33.066.364,40.631,2.89l1.613-14.678s10.916,11.851,12.188,16.1l-5.316,4.247a27.391,27.391,0,0,1,9.249,14.515s16.471-7.167,16.008-23.673-16.192-33-33.742-39.106-35.776-4.864-42.854-1.714c-8.3,3.7-18.185,19.316-18.185,19.316Z" transform="translate(-1323.615 -342.585)" fill="#26aab7"/>
      <path id="Trazado_877586" data-name="Trazado 877586" d="M1669.8,551.662a.351.351,0,0,1-.312-.51,29.485,29.485,0,0,1,2.962-4.683.351.351,0,1,1,.555.429,28.808,28.808,0,0,0-2.891,4.572.35.35,0,0,1-.313.192" transform="translate(-1403.244 -459.218)"/>
      <path id="Trazado_877587" data-name="Trazado 877587" d="M2084.312,573.253a.351.351,0,0,1-.349-.385,38.915,38.915,0,0,1,.984-5.691.351.351,0,0,1,.68.171,38.341,38.341,0,0,0-.935,5.27.35.35,0,0,1-.046.448l-.09.088a.351.351,0,0,1-.245.1" transform="translate(-1751.662 -476.515)"/>
      <path id="Trazado_877588" data-name="Trazado 877588" d="M2163.56,690.633a.351.351,0,0,1-.234-.611l3.262-2.937a.351.351,0,0,1,.47.521l-3.263,2.937a.349.349,0,0,1-.234.09" transform="translate(-1818.274 -577.449)"/>
      <path id="Trazado_877589" data-name="Trazado 877589" d="M1832.776,549a.351.351,0,0,1-.3-.526,135.033,135.033,0,0,1,8.751-13.255.352.352,0,0,1,.422-.111l.921.406a.351.351,0,1,1-.283.642l-.666-.293a134.39,134.39,0,0,0-8.539,12.962.349.349,0,0,1-.3.175" transform="translate(-1540.235 -449.76)"/>
      <path id="Trazado_877590" data-name="Trazado 877590" d="M1918.484,238.973s-7.961,16.953-4.78,19.941c2.037,1.913,5.994,1.913,5.994,1.913l.631,5.4,9.13,1.4s7.743-25.16-10.976-28.646" transform="translate(-1607.923 -200.867)" fill="#fff"/>
      <path id="Trazado_877591" data-name="Trazado 877591" d="M1927.659,266.122a.353.353,0,0,1-.053,0l-9.13-1.4a.35.35,0,0,1-.3-.306l-.6-5.1c-1-.043-4.125-.313-5.921-2-3.273-3.074,3.876-18.587,4.7-20.346a.349.349,0,0,1,.382-.2,14.361,14.361,0,0,1,10.191,6.651c5.218,8.625,1.228,21.883,1.055,22.443a.351.351,0,0,1-.335.248m-8.813-2.053,8.561,1.309c.557-2.005,3.572-13.917-1.069-21.586a13.611,13.611,0,0,0-9.453-6.271c-2.243,4.834-7.157,17.021-4.741,19.289,1.91,1.793,5.716,1.817,5.754,1.817a.351.351,0,0,1,.348.31Z" transform="translate(-1606.121 -199.019)"/>
      <path id="Trazado_877592" data-name="Trazado 877592" d="M1943.614,359.52h0a.35.35,0,0,1-.347-.354,1.331,1.331,0,0,0-1.385-1.264.351.351,0,0,1-.07-.7,2.03,2.03,0,0,1,2.156,1.968.351.351,0,0,1-.351.348" transform="translate(-1631.911 -300.239)"/>
      <path id="Trazado_877593" data-name="Trazado 877593" d="M1970.863,319.8a.351.351,0,0,1-.32-.493,3.35,3.35,0,0,1,2.984-1.94h.018a.351.351,0,0,1,0,.7h-.016a2.629,2.629,0,0,0-2.343,1.523.35.35,0,0,1-.321.209" transform="translate(-1656.304 -266.759)"/>
      <path id="Trazado_877594" data-name="Trazado 877594" d="M1946.673,251.983c-3.659,2.439-10.906,5.8-23.546,6.384a6.918,6.918,0,0,1-7.083-8.553q.053-.2.119-.411c1.756-5.524,5.179-9.422-.378-14.879s-4.587-14.951-2.96-16.523c0,0,6.94-1.317,4.914-5.461-1.031-2.109-2.285-1.833-3.269-1.054a1.911,1.911,0,0,1-2.848-.494,10.739,10.739,0,0,0-4.984-4.7s-4.368-.659-5.563-3.731,5.229-10.869,17.456-6.5,10.923,13.471,11.938,17.084,2.676,9.414,8.019,12.292,7.6,6.575,6.309,12.918c-.938,4.6.693,7.483,2.333,9.144a2.924,2.924,0,0,1-.458,4.477" transform="translate(-1597.821 -163.712)"/>
      <path id="Trazado_877595" data-name="Trazado 877595" d="M581.93,1705.3l-10.247-8.749-.684-5.2-12.632-3.979-20.889,12.166.609,5.389a5.251,5.251,0,0,0,5.218,4.661H580.35a2.434,2.434,0,0,0,1.58-4.285" transform="translate(-451.773 -1418.312)" fill="#fff"/>
      <path id="Trazado_877596" data-name="Trazado 877596" d="M578.5,1708.091H541.453a5.6,5.6,0,0,1-5.566-4.972l-.609-5.389a.352.352,0,0,1,.172-.343l20.89-12.166a.35.35,0,0,1,.282-.032l12.632,3.98a.351.351,0,0,1,.242.289l.667,5.07,10.145,8.661a2.784,2.784,0,0,1-1.808,4.9M536,1697.878l.583,5.162a4.9,4.9,0,0,0,4.869,4.35H578.5a2.083,2.083,0,0,0,1.352-3.668l-10.247-8.748a.352.352,0,0,1-.12-.221l-.656-4.982-12.271-3.866Z" transform="translate(-449.923 -1416.463)"/>
      <path id="Trazado_877597" data-name="Trazado 877597" d="M2.444,1712.242a5.185,5.185,0,0,0,4.951,6.723H42.5a5.185,5.185,0,0,0,5.078-4.138L50,1703.071l-12.915-4.544-32.9,8.1Z" transform="translate(-1.855 -1427.688)" fill="#fff"/>
      <path id="Trazado_877598" data-name="Trazado 877598" d="M40.647,1717.467H5.541a5.535,5.535,0,0,1-5.286-7.177L2,1704.675a.351.351,0,0,1,.251-.236l32.9-8.1a.35.35,0,0,1,.2.01l12.916,4.544a.351.351,0,0,1,.227.4l-2.425,11.756a5.557,5.557,0,0,1-5.422,4.418M2.609,1705.073.924,1710.5a4.834,4.834,0,0,0,4.617,6.268H40.647a4.853,4.853,0,0,0,4.735-3.858l2.363-11.456-12.528-4.408Zm-2.02,5.321h0Z" transform="translate(0 -1425.839)"/>
      <path id="Trazado_877599" data-name="Trazado 877599" d="M109.613,649.958l-15.15-3.395L70,654.319l-7.83,15.024L14.63,822.405l45.817-3.557L84.847,708.3,98,824.692l33.522-8.187Z" transform="translate(-12.297 -543.465)" fill="#26aab7"/>
      <path id="Trazado_877600" data-name="Trazado 877600" d="M451.917,861.317a.338.338,0,0,1-.065-.006.351.351,0,0,1-.28-.409l3.92-20.83a11.573,11.573,0,0,1,4.181-6.927l1.837-1.457a.351.351,0,1,1,.436.549l-1.837,1.457a10.874,10.874,0,0,0-3.927,6.507l-3.92,20.83a.351.351,0,0,1-.344.286" transform="translate(-379.561 -699.007)"/>
      <path id="Trazado_877601" data-name="Trazado 877601" d="M566.706,233.919c2.668-1.685,5.242-3.992,6.36-2.575s-2.634,4.47-2.634,4.47c3.917-.148,6.812-4.693,8.258-3.944s.076,3.04.076,3.04,1.838-2.858,3.5-1.54-1.289,4.224-1.289,4.224,2.6-2.429,3.86-.164-6.288,5.558-6.288,5.558c1.5-.555,3.853-.627,4.092.49s-2.488,1.975-5.29,3.286a30.091,30.091,0,0,1-7.053,1.9c-.064,3.111-1.688,18.368-3.041,30.641-.928,8.416-6.3,18.556-16.213,15.5a.255.255,0,0,0-.11.011c-.365.042-10.642-3.423-11.008-3.4-3.147.222,4.673-24.539,6.269-29.839l4.739,3.847s6.315-16.861,7.544-21.61c1.63-6.3,5.561-8.215,8.229-9.9" transform="translate(-453.21 -194.085)" fill="#fff"/>
      <path id="Trazado_877602" data-name="Trazado 877602" d="M552.82,293.862a12.183,12.183,0,0,1-3.546-.557l-.029,0c-.207.023-.921-.182-5.868-1.776-2.155-.7-4.83-1.557-5.185-1.617a.829.829,0,0,1-.7-.327c-1.606-2.017,2.449-16.229,6.16-28.386.192-.631.355-1.164.48-1.578a.351.351,0,0,1,.557-.171l4.36,3.539c1.018-2.731,6.265-16.877,7.362-21.118,1.525-5.9,5.077-8.077,7.671-9.669.244-.15.482-.3.71-.44.531-.335,1.061-.7,1.575-1.049,2.135-1.459,4.152-2.837,5.248-1.447.939,1.191-.684,3.088-1.8,4.168a12.311,12.311,0,0,0,4.173-2.4c1.282-.988,2.3-1.769,3.138-1.332a1.492,1.492,0,0,1,.782.945,2.183,2.183,0,0,1,.048.863,2.955,2.955,0,0,1,1.339-.67,1.8,1.8,0,0,1,1.464.4,1.613,1.613,0,0,1,.638,1.222,3.593,3.593,0,0,1-.651,1.959,2.5,2.5,0,0,1,1.2-.139,2.03,2.03,0,0,1,1.472,1.122,1.5,1.5,0,0,1,.092,1.253c-.46,1.361-2.671,2.792-4.4,3.734a3.256,3.256,0,0,1,1.485.32,1.256,1.256,0,0,1,.662.839c.247,1.159-1.424,1.888-3.738,2.9-.567.247-1.154.5-1.747.781a29.063,29.063,0,0,1-6.86,1.891c-.148,3.694-1.72,18.457-3.033,30.376-.56,5.08-2.839,11.612-7.557,14.708a9.846,9.846,0,0,1-5.5,1.663m-3.533-1.266a.446.446,0,0,1,.13.019,9.669,9.669,0,0,0,8.517-1c4.519-2.966,6.727-9.5,7.245-14.2,1.351-12.255,2.974-27.514,3.038-30.61a.351.351,0,0,1,.3-.34,29.926,29.926,0,0,0,6.953-1.875c.6-.282,1.193-.539,1.764-.788,1.7-.742,3.46-1.508,3.332-2.107a.564.564,0,0,0-.315-.37,4.823,4.823,0,0,0-3.312.136.351.351,0,0,1-.262-.65c1.528-.667,5.613-2.754,6.163-4.379a.812.812,0,0,0-.04-.687,1.35,1.35,0,0,0-.966-.77c-1.058-.167-2.335,1.008-2.348,1.02a.351.351,0,0,1-.485-.506c.489-.483,1.746-1.961,1.69-2.99a.927.927,0,0,0-.373-.709,1.113,1.113,0,0,0-.913-.255,4.046,4.046,0,0,0-2.074,1.71.351.351,0,0,1-.6-.369,3.248,3.248,0,0,0,.493-2.035.8.8,0,0,0-.43-.513c-.448-.232-1.389.5-2.387,1.264-1.521,1.173-3.414,2.632-5.7,2.718a.356.356,0,0,1-.342-.227.351.351,0,0,1,.107-.4c1.136-.926,3.262-3.116,2.58-3.981s-2.444.323-4.3,1.592c-.518.354-1.055.721-1.6,1.062-.23.146-.471.293-.718.445-2.63,1.616-5.9,3.626-7.359,9.247-1.22,4.713-7.491,21.476-7.555,21.645a.351.351,0,0,1-.549.149l-4.334-3.518c-.1.317-.207.679-.329,1.08-5.218,17.092-7.332,26.427-6.282,27.745a.132.132,0,0,0,.133.063,48.692,48.692,0,0,1,5.42,1.651c2.3.742,5.155,1.662,5.594,1.742a.481.481,0,0,1,.1-.011m15.69-60.534h0Z" transform="translate(-451.48 -192.227)"/>
      <path id="Trazado_877603" data-name="Trazado 877603" d="M768.261,305.828a.351.351,0,0,1-.126-.678l2.285-.881a.351.351,0,0,1,.252.654l-2.285.881a.348.348,0,0,1-.126.023" transform="translate(-645.463 -255.732)"/>
      <path id="Trazado_877604" data-name="Trazado 877604" d="M760.523,274.9a.351.351,0,0,1-.1-.688,23.25,23.25,0,0,0,5.733-2.516.351.351,0,1,1,.366.6,23.949,23.949,0,0,1-5.905,2.592.356.356,0,0,1-.1.014" transform="translate(-638.958 -228.329)"/>
      <path id="Trazado_877605" data-name="Trazado 877605" d="M750.373,258.936a.351.351,0,0,1-.07-.694,13.827,13.827,0,0,0,5.2-2.255.351.351,0,1,1,.406.572,14.534,14.534,0,0,1-5.463,2.37.357.357,0,0,1-.071.007" transform="translate(-630.428 -215.114)"/>
      <path id="Trazado_877606" data-name="Trazado 877606" d="M723.727,269.118a.351.351,0,0,1-.342-.429,6.328,6.328,0,0,0,.048-1.836c-.02-.3-.041-.6-.044-.908a3.259,3.259,0,0,1,1.189-2.809.351.351,0,1,1,.381.589,2.608,2.608,0,0,0-.868,2.214c0,.285.022.581.042.867a6.944,6.944,0,0,1-.064,2.04.351.351,0,0,1-.341.273" transform="translate(-608.029 -221.13)"/>
      <path id="Trazado_877607" data-name="Trazado 877607" d="M717.788,342.009a.351.351,0,0,1-.2-.641,6.452,6.452,0,0,1,1.933-.893.351.351,0,1,1,.185.677,5.744,5.744,0,0,0-1.723.8.349.349,0,0,1-.2.061" transform="translate(-603.038 -286.174)"/>
      <path id="Trazado_877608" data-name="Trazado 877608" d="M596.154,460.318a.351.351,0,0,1-.341-.435l2.21-8.954a.351.351,0,0,1,.681.168l-2.21,8.954a.351.351,0,0,1-.34.267" transform="translate(-500.799 -378.802)"/>
      <path id="Trazado_877609" data-name="Trazado 877609" d="M214.024,388.625l4.032-15.96s-8.31-10.821-29.573-12.136c-26.27-1.623-46.043,14.627-46.043,14.627L160.5,393.7l5.307-2.288,5.066,24.223h50.089Z" transform="translate(-119.727 -302.945)" fill="#fff"/>
      <path id="Trazado_877610" data-name="Trazado 877610" d="M219.116,414.149H213.2a.351.351,0,0,1,0-.7h5.459l-6.828-26.576a.354.354,0,0,1,0-.173l3.989-15.789c-1.028-1.217-9.624-10.661-29.211-11.871-24.09-1.488-42.918,12.32-45.5,14.312l17.622,18.1,5.085-2.192a.35.35,0,0,1,.482.25l5.008,23.944h7.668a.351.351,0,0,1,0,.7h-7.953a.351.351,0,0,1-.343-.279l-4.978-23.8-4.913,2.118a.351.351,0,0,1-.39-.077l-18.062-18.548a.351.351,0,0,1,.029-.516c.2-.163,20.181-16.32,46.287-14.706,21.178,1.309,29.745,12.163,29.829,12.272a.35.35,0,0,1,.062.3l-4.01,15.874,6.918,26.927a.351.351,0,0,1-.34.438" transform="translate(-117.879 -301.105)"/>
      <path id="Trazado_877611" data-name="Trazado 877611" d="M281.5,528.821a.351.351,0,0,1-.339-.264l-.841-3.283A.351.351,0,0,1,281,525.1l.841,3.283a.351.351,0,0,1-.253.427.36.36,0,0,1-.087.011" transform="translate(-235.61 -441.148)"/>
      <path id="Trazado_877612" data-name="Trazado 877612" d="M579.38,480.939l1.911,8.992Z" transform="translate(-486.995 -404.251)" fill="#fff"/>
      <path id="Trazado_877613" data-name="Trazado 877613" d="M579.441,488.432a.351.351,0,0,1-.343-.278l-1.911-8.992a.351.351,0,0,1,.686-.146l1.911,8.992a.351.351,0,0,1-.27.416.355.355,0,0,1-.073.008" transform="translate(-485.145 -402.401)"/>
      <path id="Trazado_877614" data-name="Trazado 877614" d="M95.8,477.945l4.024-3.1-15.6-16.018a74.2,74.2,0,0,0-8.16,8.18c-6.893,8.11-4.408,18.747,4.076,25.174,8.284,6.277,22.522,15.732,32.242,14.965,1.469-.116,10.517-5.77,14.412-7.715a1.365,1.365,0,0,0,.674-1.7l-.181-.486,1.7-.61a1.386,1.386,0,0,0,.881-1.619l-.024-.1a1.264,1.264,0,0,0-1.33-.973l-1.957.154,4.244-1.661a1.637,1.637,0,0,0,1.04-1.524,1.235,1.235,0,0,0-1.214-1.237,25.311,25.311,0,0,0-5.533.354s5.541-1.328,5.719-1.941c.261-.9-.86-2.407-6.471-1.358s-8.252,3.379-8.252,3.379Z" transform="translate(-60.584 -385.667)" fill="#fff"/>
      <path id="Trazado_877615" data-name="Trazado 877615" d="M109.4,505.695c-9.908,0-23.772-9.352-31.331-15.08-4.675-3.542-7.554-8.277-8.107-13.334a16.042,16.042,0,0,1,3.976-12.347,66.3,66.3,0,0,1,7.067-7.193c.363-.328.736-.665,1.123-1.019a.35.35,0,0,1,.488.014l15.6,16.018a.351.351,0,0,1-.038.523l-3.616,2.783,19.641,11.777a19.4,19.4,0,0,1,8.218-3.3c4.274-.8,5.923-.14,6.553.555a1.3,1.3,0,0,1,.32,1.245c-.04.14-.138.477-2.136,1.135.561-.007,1.112,0,1.618,0a1.593,1.593,0,0,1,1.559,1.587,1.975,1.975,0,0,1-1.263,1.85l-2.134.835a1.6,1.6,0,0,1,1.391,1.238l.024.1a1.736,1.736,0,0,1-1.1,2.028l-1.367.491.057.153a1.715,1.715,0,0,1-.846,2.133c-1.5.749-3.725,2.027-6.083,3.381-4.654,2.671-7.545,4.3-8.458,4.371q-.566.045-1.15.044m-27.05-48.226c-.3.272-.59.535-.875.792a65.709,65.709,0,0,0-7,7.127A15.356,15.356,0,0,0,70.663,477.2,19.184,19.184,0,0,0,78.5,490.056c7.777,5.892,22.28,15.661,32,14.9.822-.065,4.893-2.4,8.164-4.28,2.366-1.359,4.6-2.642,6.118-3.4a1.014,1.014,0,0,0,.5-1.261l-.181-.486a.351.351,0,0,1,.21-.453l1.7-.61a1.035,1.035,0,0,0,.658-1.209l-.024-.1a.909.909,0,0,0-.961-.7l-1.957.154a.351.351,0,0,1-.155-.676l4.244-1.66a1.279,1.279,0,0,0,.817-1.2.889.889,0,0,0-.869-.886,29,29,0,0,0-5.115.264l-.33.08a.351.351,0,0,1-.177-.678c.1-.029.216-.057.335-.082a24.236,24.236,0,0,0,5.152-1.659.612.612,0,0,0-.175-.539c-.336-.37-1.584-1.145-5.9-.337-5.434,1.017-8.059,3.275-8.085,3.3a.351.351,0,0,1-.412.037L93.763,476.4a.351.351,0,0,1-.033-.579l3.712-2.857Zm46.3,28.618h0Z" transform="translate(-58.729 -383.818)"/>
      <path id="Trazado_877616" data-name="Trazado 877616" d="M395.783,679.8a.351.351,0,0,1-.1-.686l2.2-.665a.351.351,0,0,1,.2.671l-2.2.665a.356.356,0,0,1-.1.015" transform="translate(-332.378 -570.257)"/>
      <path id="Trazado_877617" data-name="Trazado 877617" d="M387.281,699.8a.351.351,0,0,1-.141-.672,36.125,36.125,0,0,1,4.759-1.706.351.351,0,1,1,.19.675,35.445,35.445,0,0,0-4.666,1.672.349.349,0,0,1-.141.03" transform="translate(-325.232 -586.206)"/>
      <path id="Trazado_877618" data-name="Trazado 877618" d="M179.627,553.556a.349.349,0,0,1-.185-.053l-6.6-4.094a.351.351,0,0,1,.37-.6l6.6,4.094a.351.351,0,0,1-.185.649" transform="translate(-145.14 -461.258)"/>
      <path id="Trazado_877619" data-name="Trazado 877619" d="M350.3,161.772a7.538,7.538,0,0,0-6.079-3.459,12.892,12.892,0,0,0-6.949,1.842c-3.166,1.766-6.042,4.908-5.762,8.521-2.358-.209-4.475,1.965-4.741,4.316a7.774,7.774,0,0,0,2.691,6.292c1.407,1.323,4.181,3.493,6.188,3.635,1.966.139,4.663-1.594,6.246-2.613a21.191,21.191,0,0,0,8.512-10.623c.906-2.568,1.26-5.555-.107-7.91" transform="translate(-274.632 -133.055)"/>
      <path id="Trazado_877620" data-name="Trazado 877620" d="M365.355,284.517l1.349,11.527L362.4,297.05l13.888,8.265,4.938-7.66-4.262-1.5-.782-8.375Z" transform="translate(-304.611 -239.149)" fill="#fff"/>
      <path id="Trazado_877621" data-name="Trazado 877621" d="M374.437,303.817a.351.351,0,0,1-.179-.049L360.37,295.5a.351.351,0,0,1,.1-.643l4-.935-1.313-11.216a.351.351,0,0,1,.449-.376l10.825,3.258a.351.351,0,0,1,.248.3l.762,8.152,4.05,1.43a.351.351,0,0,1,.178.521l-4.938,7.66a.352.352,0,0,1-.3.161m-12.961-8.472,12.85,7.647,4.514-7L375,294.633a.352.352,0,0,1-.233-.3l-.76-8.14-10.087-3.036,1.287,11a.351.351,0,0,1-.269.382Z" transform="translate(-302.763 -237.301)"/>
      <path id="Trazado_877622" data-name="Trazado 877622" d="M365.782,225.685a1.9,1.9,0,0,0-2.4-.229,2.417,2.417,0,0,0-.962,2.3,3.341,3.341,0,0,0,1.357,2.171,5.489,5.489,0,0,0,2.425.949,11.73,11.73,0,0,0,3.831,4.84A4.906,4.906,0,0,0,378,232.686a12.858,12.858,0,0,0,.146-3.966,41.977,41.977,0,0,0-2.165-10.259,14.979,14.979,0,0,0-3.96.178,5.682,5.682,0,0,0-3.357,1.972,6.627,6.627,0,0,0-.986,4.7c.053.511.343,2.217-.6,2.153-.631-.044-.925-1.368-1.3-1.779" transform="translate(-304.611 -183.586)" fill="#fff"/>
      <path id="Trazado_877623" data-name="Trazado 877623" d="M371.519,235.239a6.609,6.609,0,0,1-3.527-1.075,12.046,12.046,0,0,1-3.875-4.818,5.69,5.69,0,0,1-2.4-.983,3.679,3.679,0,0,1-1.5-2.4,2.773,2.773,0,0,1,1.113-2.641,2.262,2.262,0,0,1,2.857.284h0a3.249,3.249,0,0,1,.437.76c.157.333.419.89.624.9a.166.166,0,0,0,.151-.044c.245-.257.128-1.239.09-1.562l-.018-.161a6.83,6.83,0,0,1,1.056-4.949,6.02,6.02,0,0,1,3.561-2.1,15.334,15.334,0,0,1,4.052-.186.351.351,0,0,1,.314.236,42.33,42.33,0,0,1,2.184,10.345,13.163,13.163,0,0,1-.154,4.074,5.741,5.741,0,0,1-2.221,3.5,4.8,4.8,0,0,1-2.749.819m-8.91-11.6a1.587,1.587,0,0,0-.881.259,2.058,2.058,0,0,0-.81,1.965,2.979,2.979,0,0,0,1.219,1.936,5.116,5.116,0,0,0,2.271.884.351.351,0,0,1,.26.192,11.606,11.606,0,0,0,3.708,4.7,4.558,4.558,0,0,0,7.43-2.819,12.539,12.539,0,0,0,.138-3.858,41.608,41.608,0,0,0-2.071-9.95,14.02,14.02,0,0,0-3.63.182,5.324,5.324,0,0,0-3.152,1.841,6.166,6.166,0,0,0-.917,4.453l.017.15a2.789,2.789,0,0,1-.278,2.128.86.86,0,0,1-.708.26c-.615-.042-.931-.713-1.21-1.3a3,3,0,0,0-.323-.589,1.432,1.432,0,0,0-1.063-.432" transform="translate(-302.762 -181.738)"/>
      <path id="Trazado_877624" data-name="Trazado 877624" d="M376.842,280.432a.35.35,0,0,1-.29-.153,2.707,2.707,0,0,0-1.876-1.143.351.351,0,1,1,.086-.7,3.417,3.417,0,0,1,2.369,1.443.351.351,0,0,1-.289.549" transform="translate(-314.673 -234.04)"/>
    </g>
  </g>
</svg>
