<svg xmlns="http://www.w3.org/2000/svg" xmlns:xlink="http://www.w3.org/1999/xlink" width="400" height="255.21" viewBox="0 0 400 255.21">
  <defs>
    <clipPath id="clip-path">
      <rect id="Rectángulo_402329" data-name="Rectángulo 402329" width="376.667" height="251.21" fill="none"/>
    </clipPath>
  </defs>
  <g id="Grupo_1101512" data-name="Grupo 1101512" transform="translate(-180.024 -8821.79)">
    <rect id="Rectángulo_402045" data-name="Rectángulo 402045" width="400" height="99" transform="translate(180.024 8978)" fill="#ffd947"/>
    <g id="Grupo_1101464" data-name="Grupo 1101464" transform="translate(191.691 8821.79)">
      <g id="Grupo_1101463" data-name="Grupo 1101463" clip-path="url(#clip-path)">
        <path id="Trazado_877966" data-name="Trazado 877966" d="M1859.091,1092.745s26.432-10.224,43.136,5.807,17.747,85.692-38.443,92.325h-83.525Z" transform="translate(-1535.877 -939.969)" fill="#f4eae2"/>
        <path id="Trazado_877967" data-name="Trazado 877967" d="M1861.885,1189.3h-83.525a.3.3,0,0,1-.236-.492l78.832-98.132a.3.3,0,0,1,.126-.093,57.768,57.768,0,0,1,15.394-3.128c8-.508,19.352.642,28.06,9,4.65,4.462,8.1,12.953,9.474,23.3a75,75,0,0,1-3.072,33.056,54.337,54.337,0,0,1-15.278,23.816c-7.905,7.015-17.912,11.279-29.741,12.676l-.035,0m-82.894-.6h82.876c21.754-2.573,37.556-15.386,44.5-36.081,7.437-22.169,2.676-47.159-6.247-55.723-8.545-8.2-19.721-9.329-27.587-8.833a57.524,57.524,0,0,0-15.156,3.061Z" transform="translate(-1533.977 -938.088)" fill="#3d3d3d"/>
        <path id="Trazado_877968" data-name="Trazado 877968" d="M2557.692,1341.658a.3.3,0,0,1-.188-.539,25.148,25.148,0,0,0,8.529-12.877.3.3,0,0,1,.583.162,25.76,25.76,0,0,1-8.736,13.188.3.3,0,0,1-.188.066" transform="translate(-2206.328 -1145.719)" fill="#3d3d3d"/>
        <path id="Trazado_877969" data-name="Trazado 877969" d="M2068.96,1043.1c6.846-1.842,12.707-4.354,16.942-7.973,0,0,.627-28.937-11.213-50.426a16.877,16.877,0,0,0-4.4-5.153c-4.066-3.176-12.355-7.912-25.415-7.652,0,0-16.8,2.789-20.969,10.092-4.2,7.358-11.216,28.021-11.216,28.021Z" transform="translate(-1736.403 -838.468)" fill="#7d6eb2"/>
        <path id="Trazado_877970" data-name="Trazado 877970" d="M2136.973,1148.05a.3.3,0,0,1-.291-.218l-4.631-16.021a.3.3,0,0,1,.581-.168l4.631,16.021a.3.3,0,0,1-.207.374.306.306,0,0,1-.084.012" transform="translate(-1839.368 -976.11)" fill="#3d3d3d"/>
        <path id="Trazado_877971" data-name="Trazado 877971" d="M1640.214,1347.044s-6.446-19.07-33.49-19.28c-17.173-.134-38.5.116-51.776.316a20.351,20.351,0,0,0-18.044,11.549l-22.972,47.9-7.9,6.2a1.48,1.48,0,0,0,.914,2.645h45.925a8.8,8.8,0,0,0,4.322-1.136,188.789,188.789,0,0,0,43.585-34.633c12.378-8.165,25.114-7.588,39.437-13.559" transform="translate(-1298.802 -1145.465)" fill="#f4eae2"/>
        <path id="Trazado_877972" data-name="Trazado 877972" d="M1550.971,1394.773h-45.926a1.782,1.782,0,0,1-1.1-3.185l7.846-6.157,22.941-47.834a20.538,20.538,0,0,1,18.313-11.721c14.357-.216,34.995-.447,51.782-.316a.3.3,0,0,1,0,.6h0c-16.782-.131-37.415.1-51.769.316a19.937,19.937,0,0,0-17.776,11.378l-22.972,47.9a.3.3,0,0,1-.086.107l-7.9,6.2a1.178,1.178,0,0,0,.727,2.1h45.926a8.521,8.521,0,0,0,4.174-1.1,189.839,189.839,0,0,0,43.511-34.574.288.288,0,0,1,.055-.047c7.332-4.836,14.739-6.613,22.58-8.493a107.3,107.3,0,0,0,16.907-5.093.3.3,0,1,1,.233.558,107.788,107.788,0,0,1-17,5.123c-7.778,1.865-15.125,3.627-22.358,8.39a190.529,190.529,0,0,1-43.633,34.664,9.13,9.13,0,0,1-4.471,1.175" transform="translate(-1296.902 -1143.563)" fill="#3d3d3d"/>
        <path id="Trazado_877973" data-name="Trazado 877973" d="M1621.427,1416.224h-2.309a2.243,2.243,0,0,1-1.143-4.173l6.208-3.676,49.457-47.705a36.363,36.363,0,0,1,24.821-10.223l4.373-.061a.315.315,0,0,1,.306.3.3.3,0,0,1-.3.307l-4.374.061a35.761,35.761,0,0,0-24.409,10.053l-49.483,47.73a.306.306,0,0,1-.056.043l-6.238,3.694a1.638,1.638,0,0,0,.835,3.048h2.309a.3.3,0,0,1,0,.6" transform="translate(-1394.917 -1165.014)" fill="#3d3d3d"/>
        <path id="Trazado_877974" data-name="Trazado 877974" d="M1910.481,1440.283a.3.3,0,0,1-.1-.016.3.3,0,0,1-.191-.382l5.124-15.343a.3.3,0,1,1,.573.192l-5.124,15.343a.3.3,0,0,1-.287.207" transform="translate(-1647.963 -1228.813)" fill="#3d3d3d"/>
        <path id="Trazado_877975" data-name="Trazado 877975" d="M2204.726,1493.026a.3.3,0,0,1-.2-.525,72.128,72.128,0,0,0,9.315-10.393.3.3,0,1,1,.487.358,72.739,72.739,0,0,1-9.393,10.481.3.3,0,0,1-.2.079" transform="translate(-1901.815 -1278.548)" fill="#3d3d3d"/>
        <path id="Trazado_877976" data-name="Trazado 877976" d="M1705.845,1774.737h-.015l-36.254-1.746a.3.3,0,1,1,.029-.6l36.254,1.746a.3.3,0,0,1-.014.6" transform="translate(-1440.14 -1529.085)" fill="#3d3d3d"/>
        <path id="Trazado_877977" data-name="Trazado 877977" d="M1580.579,1761.764H1565.27a.3.3,0,1,1,0-.6h15.309a.3.3,0,1,1,0,.6" transform="translate(-1350.14 -1519.4)" fill="#3d3d3d"/>
        <path id="Trazado_877978" data-name="Trazado 877978" d="M2053.757,1079.788l-8.942,21.931s-28.608.391-31.31,4.957,1.65,6.375,1.65,6.375,33,4.909,42.146,1.479,14.842-24.037,16.084-31.741-19.627-3-19.627-3" transform="translate(-1736.342 -930.335)" fill="#00be75"/>
        <path id="Trazado_877979" data-name="Trazado 877979" d="M2336.2,1198.885a.3.3,0,0,1-.106-.585c7.226-2.709,12-16.49,13.712-22.29a.3.3,0,1,1,.58.172c-2.163,7.311-6.868,19.981-14.08,22.684a.3.3,0,0,1-.106.019" transform="translate(-2015.243 -1014.388)" fill="#3d3d3d"/>
        <path id="Trazado_877980" data-name="Trazado 877980" d="M2017.164,1128.441a.3.3,0,0,1-.153-.042.3.3,0,0,1-.106-.414c2.666-4.5,28.6-5.056,31.366-5.1l7.931-19.449a.3.3,0,1,1,.56.228l-8.006,19.635a.3.3,0,0,1-.276.188c-9.837.135-28.986,1.313-31.054,4.808a.3.3,0,0,1-.26.148" transform="translate(-1740.001 -951.799)" fill="#3d3d3d"/>
        <path id="Trazado_877981" data-name="Trazado 877981" d="M1834.019,1328.784h53.111a2.389,2.389,0,1,0,0-4.777H1829.92Z" transform="translate(-1578.721 -1142.255)" fill="#3d3d3d"/>
        <path id="Trazado_877982" data-name="Trazado 877982" d="M1756.392,1138.744l38.916-.705-13.911-32.361a3.227,3.227,0,0,0-2.961-1.943h-35.948a2.543,2.543,0,0,0-2.341,3.538l12.331,29.026a4.023,4.023,0,0,0,3.914,2.445" transform="translate(-1501.095 -952.222)" fill="#3d3d3d"/>
        <path id="Trazado_877983" data-name="Trazado 877983" d="M1878.244,1174.148a1.219,1.219,0,1,0,1.219-1.219,1.219,1.219,0,0,0-1.219,1.219" transform="translate(-1620.411 -1011.917)" fill="#f4eae2"/>
        <path id="Trazado_877984" data-name="Trazado 877984" d="M2209.149,979.451a.3.3,0,0,1-.233-.109c-.3-.364-.726-.856-1.178-1.382-.7-.814-1.492-1.736-1.991-2.36a.3.3,0,1,1,.472-.378c.493.616,1.282,1.534,1.978,2.344.454.529.879,1.024,1.184,1.389a.3.3,0,0,1-.232.5" transform="translate(-1902.9 -841.253)" fill="#3d3d3d"/>
        <path id="Trazado_877985" data-name="Trazado 877985" d="M2201.212,913.113l3.9,5.817a4.989,4.989,0,0,0,2.206,1.818l2.583,1.088s-5.012,11.234-13.69,9.129c0,0-5.658-1.728-.285-8.643l-1.758-2.276Z" transform="translate(-1892.489 -787.767)" fill="#f4eae2"/>
        <path id="Trazado_877986" data-name="Trazado 877986" d="M2255.759,920.238a.3.3,0,0,1-.118-.024l-2.583-1.088a5.278,5.278,0,0,1-2.339-1.928l-3.9-5.817a.3.3,0,1,1,.5-.337l3.9,5.818a4.674,4.674,0,0,0,2.072,1.708l2.583,1.088a.3.3,0,0,1-.117.581" transform="translate(-1938.343 -785.867)" fill="#3d3d3d"/>
        <path id="Trazado_877987" data-name="Trazado 877987" d="M2199.3,922.836a.3.3,0,0,1-.236-.113l-3.52-4.389a.3.3,0,0,1,.024-.4l7.04-6.933a.3.3,0,1,1,.424.431l-6.846,6.741,3.35,4.176a.3.3,0,0,1-.236.491" transform="translate(-1894.097 -785.866)" fill="#3d3d3d"/>
        <path id="Trazado_877988" data-name="Trazado 877988" d="M2128.578,788.7a3.873,3.873,0,0,0-2.566,1.664,5.48,5.48,0,0,0-2.313-3.273,8.449,8.449,0,0,0-3.841-1.328,10.3,10.3,0,0,0-8.283,2.683,8.29,8.29,0,0,0-2.19,8.258,6.955,6.955,0,0,0,6.849,4.771,13.783,13.783,0,0,0-.333,5,6.093,6.093,0,0,0,2.5,4.208,6.031,6.031,0,0,0,5.481.275,12.561,12.561,0,0,0,4.471-3.465c.736-.829,1.422-1.7,2.131-2.553.363-.436.728-.877,1.119-1.288a5.364,5.364,0,0,0,.772-.761,8.167,8.167,0,0,0,1.518-6.193c-.107-1.223-1.78-8.7-5.316-8" transform="translate(-1819.518 -677.84)" fill="#3d3d3d"/>
        <path id="Trazado_877989" data-name="Trazado 877989" d="M2165.421,852.808a43.364,43.364,0,0,0-1.987,7.357,1.869,1.869,0,0,0,.928,1.875,9.856,9.856,0,0,0,6.184.938c5.188-.622,5.258-4.537,5.512-6.061.319-1.913-.56-3.419-3.632-2.647a7.77,7.77,0,0,1-7-1.461" transform="translate(-1866.438 -735.74)" fill="#f4eae2"/>
        <path id="Trazado_877990" data-name="Trazado 877990" d="M2166.932,861.487a9.162,9.162,0,0,1-4.621-1.084,2.168,2.168,0,0,1-1.078-2.178,43.028,43.028,0,0,1,2-7.421.3.3,0,0,1,.491-.116,7.544,7.544,0,0,0,6.723,1.388c1.537-.386,2.67-.256,3.368.388a2.763,2.763,0,0,1,.636,2.6c-.021.126-.041.27-.062.426-.237,1.716-.73,5.288-5.711,5.885a14.714,14.714,0,0,1-1.749.108m-3.271-10.072a41.041,41.041,0,0,0-1.828,6.891,1.566,1.566,0,0,0,.779,1.572,9.552,9.552,0,0,0,6,.9c4.518-.542,4.952-3.681,5.185-5.367.022-.163.043-.312.065-.443a2.278,2.278,0,0,0-.45-2.058c-.531-.49-1.5-.575-2.811-.247a8.145,8.145,0,0,1-6.937-1.249" transform="translate(-1864.537 -733.842)" fill="#3d3d3d"/>
        <path id="Trazado_877991" data-name="Trazado 877991" d="M2256.035,900.448a24.691,24.691,0,0,0,1.339-3.15s3.259-1.7,3.754.914-3.455,4.818-5.093,2.235" transform="translate(-1946.342 -773.656)" fill="#f4eae2"/>
        <path id="Trazado_877992" data-name="Trazado 877992" d="M2256.153,900.008a2.6,2.6,0,0,1-2.272-1.291.3.3,0,0,1-.013-.3,24.569,24.569,0,0,0,1.321-3.105.3.3,0,0,1,.147-.173c.077-.04,1.907-.978,3.159-.37a1.944,1.944,0,0,1,1.031,1.5,3.44,3.44,0,0,1-3.373,3.745m-1.667-1.475a2.113,2.113,0,0,0,2.639.679,2.707,2.707,0,0,0,1.806-2.836,1.358,1.358,0,0,0-.7-1.065,3.439,3.439,0,0,0-2.51.31,24.865,24.865,0,0,1-1.235,2.912" transform="translate(-1944.442 -771.764)" fill="#3d3d3d"/>
        <path id="Trazado_877993" data-name="Trazado 877993" d="M2262.821,913.291a.3.3,0,0,1-.208-.521,2.981,2.981,0,0,1,2.468-.767.3.3,0,0,1-.094.6,2.359,2.359,0,0,0-1.957.609.3.3,0,0,1-.208.083" transform="translate(-1951.936 -786.779)" fill="#3d3d3d"/>
        <path id="Trazado_877994" data-name="Trazado 877994" d="M129.617,796.129s31.168-36.673,35.871-60.2-8.623-58.883-12.859-64.126-36-1.2-36-1.2L95.423,806.655a4.016,4.016,0,0,0-.044.518l33.412-4.192Zm8.476-74.909c.076-.259,2.159,5.34,1.932,6.275a23.972,23.972,0,0,1-3.11,4.932,107.653,107.653,0,0,1,1.177-11.207" transform="translate(-82.286 -577.261)" fill="#7d6eb2"/>
        <path id="Trazado_877995" data-name="Trazado 877995" d="M99.345,1652.574h30.773a2.048,2.048,0,0,0,1.757-3.1l-3.091-5.165L95.372,1648.5a3.975,3.975,0,0,0,3.973,4.072" transform="translate(-82.279 -1418.59)" fill="#f4eae2"/>
        <path id="Trazado_877996" data-name="Trazado 877996" d="M128.216,1650.976H97.444a4.278,4.278,0,0,1-4.276-4.382.3.3,0,0,1,.31-.294.3.3,0,0,1,.295.31,3.674,3.674,0,0,0,3.671,3.762h30.773a1.745,1.745,0,0,0,1.5-2.641l-3.091-5.165a.3.3,0,0,1,.519-.31l3.091,5.165a2.35,2.35,0,0,1-2.017,3.557" transform="translate(-80.377 -1416.69)" fill="#3d3d3d"/>
        <path id="Trazado_877997" data-name="Trazado 877997" d="M344.8,899.164l-.033,0a.3.3,0,0,1-.268-.333l10.969-101.091a5.722,5.722,0,0,1,1.7-3.484l3.289-3.188a.3.3,0,0,1,.421.434l-3.29,3.188a5.115,5.115,0,0,0-1.522,3.115L345.1,898.895a.3.3,0,0,1-.3.269" transform="translate(-297.203 -682.401)" fill="#f4eae2"/>
        <path id="Trazado_877998" data-name="Trazado 877998" d="M407.035,1051.569a.3.3,0,0,1-.288-.21l-3.029-9.472a.3.3,0,1,1,.576-.184l3.029,9.472a.3.3,0,0,1-.288.395" transform="translate(-348.285 -898.524)" fill="#f4eae2"/>
        <path id="Trazado_877999" data-name="Trazado 877999" d="M241.443,423.665a12.233,12.233,0,0,1-8.887-6.65c-2.622-5.316-5.6-10.476-7.848-14.2a13.224,13.224,0,0,0-10.157-6.341c-10.289-.9-20.976-1.049-27.848-1.021a12.974,12.974,0,0,0-11.42,6.9,152.918,152.918,0,0,0-9.511,23.087,10.42,10.42,0,0,0,9.749,13.662c10.715.044,34.335,0,34.335,0l5.363-17.735,8.315,12.01a29.236,29.236,0,0,0,5.154,5.715s8.276-.005,9.634-.009a49.963,49.963,0,0,1,7.391-14.662c-1.53-.279-2.972-.533-4.269-.757" transform="translate(-142.566 -341.165)" fill="#f4eae2"/>
        <path id="Trazado_878000" data-name="Trazado 878000" d="M187.224,437.524c-5.088,0-10.086,0-13.636-.019a10.469,10.469,0,0,1-8.52-4.417,10.646,10.646,0,0,1-1.516-9.641,150.261,150.261,0,0,1,9.531-23.134,13.252,13.252,0,0,1,11.686-7.063c7.087-.029,17.67.125,27.876,1.023a13.572,13.572,0,0,1,10.389,6.486c2.1,3.478,5.171,8.768,7.861,14.222a11.97,11.97,0,0,0,8.667,6.486c1.3.224,2.741.479,4.272.758a.3.3,0,0,1,.189.476,49.433,49.433,0,0,0-7.347,14.573.3.3,0,0,1-.288.213c-1.359,0-9.635.009-9.635.009h0a.3.3,0,0,1-.188-.066,29.858,29.858,0,0,1-5.214-5.779l-7.958-11.495-5.182,17.136a.3.3,0,0,1-.289.215c-.157,0-10.6.019-20.7.019m-.894-43.673q-.8,0-1.557,0a12.649,12.649,0,0,0-11.154,6.741,149.683,149.683,0,0,0-9.491,23.04,10.048,10.048,0,0,0,1.432,9.1,9.871,9.871,0,0,0,8.032,4.166c10.037.041,31.668,0,34.109,0L213,419.38a.3.3,0,0,1,.538-.085l8.315,12.01a29.682,29.682,0,0,0,5.013,5.585c.931,0,7.577,0,9.3-.008a50.045,50.045,0,0,1,7.087-14.148c-1.354-.245-2.632-.47-3.793-.671a12.576,12.576,0,0,1-9.106-6.814c-2.681-5.435-5.741-10.71-7.836-14.177a12.966,12.966,0,0,0-9.925-6.2c-9.46-.832-19.251-1.023-26.263-1.023" transform="translate(-140.634 -339.265)" fill="#3d3d3d"/>
        <path id="Trazado_878001" data-name="Trazado 878001" d="M530.809,493.33a.3.3,0,0,1-.288-.4l4.317-13.348a.3.3,0,0,1,.575.186L531.1,493.121a.3.3,0,0,1-.288.209" transform="translate(-457.682 -413.572)" fill="#3d3d3d"/>
        <path id="Trazado_878002" data-name="Trazado 878002" d="M292.92,603.772h-.01l-14.568-.455a.3.3,0,0,1-.293-.312.307.307,0,0,1,.312-.293l14.568.455a.3.3,0,0,1-.009.6" transform="translate(-239.881 -519.977)" fill="#3d3d3d"/>
        <path id="Trazado_878003" data-name="Trazado 878003" d="M303.726,549.918a.3.3,0,0,1-.286-.4,81.956,81.956,0,0,1,3.465-8.555.3.3,0,0,1,.547.258,81.361,81.361,0,0,0-3.44,8.492.3.3,0,0,1-.286.2" transform="translate(-261.771 -466.554)" fill="#3d3d3d"/>
        <path id="Trazado_878004" data-name="Trazado 878004" d="M345.84,608.9s13.651,2.431,19.348,3.277c9.757,1.45,11.508,6.9,11.982,9.159a1.582,1.582,0,0,1-1.555,1.9H337.4s2.31-11.445,8.441-14.334" transform="translate(-291.083 -525.313)" fill="#f4eae2"/>
        <path id="Trazado_878005" data-name="Trazado 878005" d="M373.714,621.635H335.5a.3.3,0,0,1-.3-.362c.1-.473,2.411-11.627,8.609-14.547a.3.3,0,0,1,.182-.024c.136.024,13.712,2.44,19.339,3.276,6.927,1.029,11.158,4.278,12.234,9.4a1.862,1.862,0,0,1-.379,1.562,1.888,1.888,0,0,1-1.472.7m-37.839-.6h37.839a1.284,1.284,0,0,0,1-.477,1.258,1.258,0,0,0,.257-1.056c-1.019-4.848-5.076-7.933-11.731-8.922-5.385-.8-18.028-3.043-19.261-3.261-5.257,2.564-7.654,11.77-8.107,13.717" transform="translate(-289.182 -523.414)" fill="#3d3d3d"/>
        <path id="Trazado_878006" data-name="Trazado 878006" d="M506.833,664.106a.3.3,0,0,1-.031-.6,1.016,1.016,0,0,0,.766-1.042,2.885,2.885,0,0,0-.622-1.532,10.724,10.724,0,0,0-6.835-4.4.3.3,0,0,1,.109-.595,11.332,11.332,0,0,1,7.222,4.653,3.422,3.422,0,0,1,.73,1.875,1.616,1.616,0,0,1-1.309,1.646l-.031,0" transform="translate(-431.246 -565.884)" fill="#3d3d3d"/>
        <path id="Trazado_878007" data-name="Trazado 878007" d="M546.537,653.523a.3.3,0,0,1-.138-.571,1.813,1.813,0,0,0,.886-1.49,4.129,4.129,0,0,0-.394-1.914,10.063,10.063,0,0,0-5.187-5.311.3.3,0,0,1,.245-.553,10.673,10.673,0,0,1,5.5,5.633,4.834,4.834,0,0,1,.438,2.195,2.418,2.418,0,0,1-1.213,1.977.3.3,0,0,1-.138.034" transform="translate(-467.187 -555.301)" fill="#3d3d3d"/>
        <path id="Trazado_878008" data-name="Trazado 878008" d="M572.365,648.289a.3.3,0,0,1-.172-.551,1.938,1.938,0,0,0,.75-1.413,4.3,4.3,0,0,0-.261-1.758,12.164,12.164,0,0,0-5.258-6.407.3.3,0,0,1,.292-.53,12.822,12.822,0,0,1,5.542,6.752,5.079,5.079,0,0,1,.287,2,2.511,2.511,0,0,1-1.008,1.852.3.3,0,0,1-.171.053" transform="translate(-489.397 -550.068)" fill="#3d3d3d"/>
        <path id="Trazado_878009" data-name="Trazado 878009" d="M697.552,621.172h32.306s2.02-5.495-6.644-9.871c-5.132-2.592-18.271-4.791-18.271-4.791s-5.837,6.36-7.391,14.661" transform="translate(-601.797 -523.253)" fill="#f4eae2"/>
        <path id="Trazado_878010" data-name="Trazado 878010" d="M727.957,619.574H695.651a.3.3,0,0,1-.3-.358c1.553-8.291,7.407-14.746,7.466-14.81a.3.3,0,0,1,.272-.094c.538.09,13.243,2.237,18.357,4.819,8.8,4.446,6.813,10.187,6.792,10.245a.3.3,0,0,1-.284.2m-31.939-.6h31.714c.26-1.005.929-5.518-6.556-9.3-4.723-2.385-16.487-4.47-18.019-4.734-.788.9-5.646,6.7-7.139,14.033" transform="translate(-599.896 -521.353)" fill="#3d3d3d"/>
        <path id="Trazado_878011" data-name="Trazado 878011" d="M795.685,656.37a.3.3,0,0,1-.209-.521,1.553,1.553,0,0,0,.2-1.762,3.094,3.094,0,0,0-1.532-1.333,11.782,11.782,0,0,0-1.84-.594,6.87,6.87,0,0,1-3.107-1.4,3.708,3.708,0,0,1-1.073-3.359.3.3,0,0,1,.593.119,3.091,3.091,0,0,0,.894,2.8,6.329,6.329,0,0,0,2.847,1.26,12.252,12.252,0,0,1,1.935.628,3.617,3.617,0,0,1,1.825,1.617,2.158,2.158,0,0,1-.329,2.465.3.3,0,0,1-.209.084" transform="translate(-679.883 -558.317)" fill="#3d3d3d"/>
        <path id="Trazado_878012" data-name="Trazado 878012" d="M846.1,652.05a.3.3,0,0,1-.276-.425c.547-1.236-.545-2.663-1.04-3.22-2.125-2.388-5.158-3.937-7.835-5.3a.3.3,0,0,1,.275-.539c2.724,1.391,5.811,2.968,8.011,5.44,1.211,1.36,1.627,2.769,1.142,3.866a.3.3,0,0,1-.277.18" transform="translate(-721.914 -554.328)" fill="#3d3d3d"/>
        <path id="Trazado_878013" data-name="Trazado 878013" d="M371.029,236.89a7.1,7.1,0,0,0-1.4-5.652,10.609,10.609,0,0,0-4.842-3.413,21.393,21.393,0,0,0-5.88-1.122,11.705,11.705,0,0,0-5.566.623,4.426,4.426,0,0,0-2.274,2.027,3.36,3.36,0,0,0,1.065,4.064,4.42,4.42,0,0,0-4.751,1.189,5.544,5.544,0,0,0-1.207,4.866A7.49,7.49,0,0,0,349,243.722a11.655,11.655,0,0,0,4.739,2.056,16.31,16.31,0,0,0,10.21-1.2,6.694,6.694,0,0,0,2.034-1.358c.563-.59.561-1.408,1.017-1.979.352-.441,1.136-.543,1.611-.842a5.562,5.562,0,0,0,2.423-3.5" transform="translate(-298.54 -195.523)" fill="#3d3d3d"/>
        <path id="Trazado_878014" data-name="Trazado 878014" d="M405.009,356.429l-3.51,4.645a2.884,2.884,0,0,0-.575,2.031c.165,1.613.827,4.343,3.385,4.955,3.685.883,6.664-4.544,6.664-4.544Z" transform="translate(-345.875 -307.501)" fill="#f4eae2"/>
        <path id="Trazado_878015" data-name="Trazado 878015" d="M403.236,366.561a3.838,3.838,0,0,1-.9-.107c-2.747-.658-3.444-3.552-3.616-5.218a3.178,3.178,0,0,1,.635-2.245l3.51-4.645a.3.3,0,0,1,.233-.12.3.3,0,0,1,.24.108l5.964,7.088a.3.3,0,0,1,.034.34c-.116.212-2.678,4.8-6.1,4.8m-.115-11.548-3.282,4.343a2.574,2.574,0,0,0-.515,1.818c.155,1.507.77,4.121,3.154,4.692a3.191,3.191,0,0,0,.745.088c2.73,0,4.981-3.474,5.481-4.307Z" transform="translate(-343.974 -305.6)" fill="#3d3d3d"/>
        <path id="Trazado_878016" data-name="Trazado 878016" d="M397.434,303.917s2.05,6.088,7.954,5.343,3.982-12.314,2.924-16.413c0,0-7.753.9-8.137,3.528s1.534,3.362-.128,4.71c-1.531,1.242-2.613-1.156-2.613-1.156s-1.911-2.435-4.038-.278c-2.159,2.189,1.14,5.232,4.038,4.265" transform="translate(-338.793 -252.648)" fill="#f4eae2"/>
        <path id="Trazado_878017" data-name="Trazado 878017" d="M402.521,307.725c-4.627,0-6.69-4.218-7.158-5.341a4.19,4.19,0,0,1-4.442-1.719,2.416,2.416,0,0,1,.37-3.126,2.846,2.846,0,0,1,2.2-.978,3.52,3.52,0,0,1,2.292,1.281.317.317,0,0,1,.038.062c.143.316.651,1.167,1.269,1.313a1,1,0,0,0,.878-.267c.769-.624.64-.993.359-1.8a5.239,5.239,0,0,1-.34-2.717c.406-2.775,7.584-3.689,8.4-3.784a.3.3,0,0,1,.328.225c1.016,3.937,2.112,11.517-.221,14.954a4.065,4.065,0,0,1-2.958,1.834,8.117,8.117,0,0,1-1.015.065m-6.977-6.011a.3.3,0,0,1,.286.206c.081.239,2.044,5.845,7.63,5.14a3.44,3.44,0,0,0,2.534-1.574c2.163-3.187,1.172-10.3.2-14.206-2.254.3-7.334,1.352-7.611,3.239a4.656,4.656,0,0,0,.313,2.431,1.839,1.839,0,0,1-.549,2.47,1.581,1.581,0,0,1-1.4.386c-.949-.225-1.55-1.381-1.662-1.613a2.909,2.909,0,0,0-1.835-1.028,2.273,2.273,0,0,0-1.731.8,1.8,1.8,0,0,0-.287,2.382,3.6,3.6,0,0,0,4.015,1.384.3.3,0,0,1,.1-.016" transform="translate(-336.903 -250.747)" fill="#3d3d3d"/>
        <path id="Trazado_878018" data-name="Trazado 878018" d="M412.629,355.294a.3.3,0,0,1-.282-.194,1.855,1.855,0,0,0-1.6-1.153.3.3,0,0,1-.288-.317.308.308,0,0,1,.317-.287,2.476,2.476,0,0,1,2.132,1.539.3.3,0,0,1-.282.411" transform="translate(-354.117 -304.839)" fill="#3d3d3d"/>
        <path id="Trazado_878019" data-name="Trazado 878019" d="M607.829,692.59s14.548,108.559,14.715,134.755a4.124,4.124,0,0,1-4.123,4.155H590.789a1.427,1.427,0,0,1-1.093-2.345l4.524-5.39-5.111-73.357-8.55,76.772a4.858,4.858,0,0,1-4.828,4.321H541.285a1.292,1.292,0,0,1-.749-2.344l5.634-4.01s21.882-103.4,24.329-132.556Z" transform="translate(-465.865 -597.516)" fill="#3d3d3d"/>
        <path id="Trazado_878020" data-name="Trazado 878020" d="M616.516,829.9H588.884a1.729,1.729,0,0,1-1.325-2.841l4.445-5.3-4.87-69.9-8.18,73.451a5.156,5.156,0,0,1-5.129,4.589H539.38a1.594,1.594,0,0,1-.924-2.893l5.538-3.942c.844-4,21.917-104.031,24.3-132.4a.3.3,0,0,1,.3-.277h37.329a.3.3,0,0,1,.3.262c.146,1.086,14.552,108.878,14.717,134.793a4.426,4.426,0,0,1-4.425,4.459m-29.312-81.7h.006a.3.3,0,0,1,.3.281l5.111,73.357a.3.3,0,0,1-.07.215l-4.524,5.39a1.125,1.125,0,0,0,.862,1.848h27.632a3.821,3.821,0,0,0,3.82-3.85c-.161-25.253-13.88-128.483-14.677-134.455H568.872c-2.535,29.218-24.093,131.285-24.311,132.316a.3.3,0,0,1-.12.184l-5.634,4.01a.989.989,0,0,0,.574,1.8h34.444a4.551,4.551,0,0,0,4.528-4.051l8.55-76.772a.3.3,0,0,1,.3-.269" transform="translate(-463.96 -595.616)" fill="#3d3d3d"/>
        <path id="Trazado_878021" data-name="Trazado 878021" d="M858.916,857.414a.3.3,0,0,1-.3-.282l-2.369-35.392a5.685,5.685,0,0,0-3.516-4.9l.1-.286.116-.279.017.007a6.287,6.287,0,0,1,3.888,5.42l2.369,35.392a.3.3,0,0,1-.282.322h-.02" transform="translate(-735.672 -704.22)" fill="#f4eae2"/>
        <path id="Trazado_878022" data-name="Trazado 878022" d="M959.007,1646.568H933.13a.3.3,0,1,1,0-.6h25.876a.3.3,0,0,1,0,.6" transform="translate(-804.776 -1420.016)" fill="#f4eae2"/>
        <path id="Trazado_878023" data-name="Trazado 878023" d="M615.18,1656.625H583.1a.3.3,0,1,1,0-.6H615.18a.3.3,0,0,1,0,.6" transform="translate(-502.799 -1428.693)" fill="#f4eae2"/>
        <path id="Trazado_878024" data-name="Trazado 878024" d="M686.145,223.341c.217-3.3,2.858-6.149,6.047-7.51a20.511,20.511,0,0,1,10.309-1.05c9.026,1.02,17.449,5.062,24.572,10.4,2.758,2.065,5.451,4.471,6.58,7.62s.17,7.185-2.953,8.72a5.344,5.344,0,0,1,2.061,5.462,8.32,8.32,0,0,1-3.572,4.942c-4.491,3.109-10.892,2.813-15.869.454s-8.772-6.451-12.079-10.682c-2.674-3.422-5.19-8.347-8.95-10.794-3.033-1.974-6.422-3.364-6.146-7.557" transform="translate(-591.942 -185.121)" fill="#3d3d3d"/>
        <path id="Trazado_878025" data-name="Trazado 878025" d="M706.187,436.2s3.179-30.5-14.349-40.785-36.072,1.041-40.2,3.686-6.555,11.8-3.633,25.581,8.2,11.518,8.2,11.518Z" transform="translate(-557.943 -337.475)" fill="#7d6eb2"/>
        <path id="Trazado_878026" data-name="Trazado 878026" d="M950.57,510.852a.3.3,0,0,1-.3-.241,45.342,45.342,0,0,0-7.562-17.137.3.3,0,1,1,.49-.354,45.946,45.946,0,0,1,7.664,17.367.3.3,0,0,1-.234.358.31.31,0,0,1-.062.006" transform="translate(-813.254 -425.32)" fill="#3d3d3d"/>
        <path id="Trazado_878027" data-name="Trazado 878027" d="M749.23,519.017a.3.3,0,0,1-.281-.19,48.324,48.324,0,0,1-3.183-12.788.3.3,0,0,1,.268-.333.3.3,0,0,1,.333.268,47.718,47.718,0,0,0,3.144,12.628.3.3,0,0,1-.281.415" transform="translate(-643.391 -436.284)" fill="#3d3d3d"/>
        <path id="Trazado_878028" data-name="Trazado 878028" d="M724.667,596.389a.3.3,0,0,1-.122-.579,76.774,76.774,0,0,1,10.489-3.728.3.3,0,0,1,.161.583,76.168,76.168,0,0,0-10.406,3.7.3.3,0,0,1-.121.026" transform="translate(-624.929 -510.796)" fill="#3d3d3d"/>
        <path id="Trazado_878029" data-name="Trazado 878029" d="M804.031,551.414c-.14.071-2.826,8.7-.718,13.257,0,0,9.682-2.192,13.889-3.475,0,0-.329,2.015,1.33,1.771a4.1,4.1,0,0,0,2.922-4.926s1.925-.58.081-3.84c0,0,1.87-2.371-.144-4.005,0,0,8.142-3.2,7.735-5.217s-21.16,4.435-25.095,6.435" transform="translate(-692.346 -469.836)" fill="#f4eae2"/>
        <path id="Trazado_878030" data-name="Trazado 878030" d="M932.861,632.341a.3.3,0,0,1-.3-.281,2.228,2.228,0,0,0-.75-1.5.3.3,0,1,1,.395-.457,2.805,2.805,0,0,1,.958,1.911.3.3,0,0,1-.28.323h-.022" transform="translate(-803.807 -543.546)" fill="#3d3d3d"/>
        <path id="Trazado_878031" data-name="Trazado 878031" d="M929.667,605.089a.3.3,0,0,1-.252-.136,3.206,3.206,0,0,0-1.286-1.123.3.3,0,0,1,.262-.545,3.812,3.812,0,0,1,1.528,1.334.3.3,0,0,1-.252.469" transform="translate(-800.573 -520.445)" fill="#3d3d3d"/>
        <path id="Trazado_878032" data-name="Trazado 878032" d="M774.291,340.177l1.91,2.775s-3.82,7.625,2.768,9c4.756.994,7.046-4.94,7.911-8.264a1.618,1.618,0,0,0-1.447-2.024l-.842-.061-5-7.93Z" transform="translate(-668.002 -287.87)" fill="#f4eae2"/>
        <path id="Trazado_878033" data-name="Trazado 878033" d="M775.908,343.687a.3.3,0,0,1-.249-.131l-3.516-5.107a.3.3,0,0,1,.014-.363l5.3-6.5a.3.3,0,0,1,.469.382l-5.16,6.326,3.387,4.921a.3.3,0,0,1-.249.474" transform="translate(-666.102 -285.971)" fill="#3d3d3d"/>
        <path id="Trazado_878034" data-name="Trazado 878034" d="M741.637,284.268s.973-3.231,2.993-2.832,2.558,5.525-3.153,5.721c0,0-2.4,5.562-8.339,4.7-6.45-.933-2.5-15.362-2.5-15.362s4.965-.616,6.9,1.346c2.74,2.786.026,7.428,4.1,6.424" transform="translate(-629.31 -238.463)" fill="#f4eae2"/>
        <path id="Trazado_878035" data-name="Trazado 878035" d="M732.422,290.333a8.776,8.776,0,0,1-1.258-.093,3.831,3.831,0,0,1-2.754-1.77c-2.662-4.064-.1-13.568.009-13.971a.3.3,0,0,1,.254-.22c.209-.026,5.136-.611,7.148,1.434a6.57,6.57,0,0,1,1.571,4.24c.1.934.182,1.74.631,2.056a1.875,1.875,0,0,0,1.449.084c.244-.7,1.287-3.267,3.285-2.873A2.5,2.5,0,0,1,744.4,282c-.129,1.605-1.424,3.358-4.659,3.531-.445.882-2.687,4.8-7.319,4.8m-3.471-15.474c-.356,1.4-2.345,9.754-.034,13.281a3.209,3.209,0,0,0,2.335,1.5c5.628.815,7.924-4.305,8.018-4.524a.3.3,0,0,1,.267-.182c2.972-.1,4.15-1.608,4.26-2.983a1.931,1.931,0,0,0-1.156-2.139c-1.732-.342-2.636,2.593-2.645,2.623a.3.3,0,0,1-.217.206,2.521,2.521,0,0,1-2.1-.139c-.674-.473-.772-1.407-.884-2.488a6,6,0,0,0-1.4-3.879c-1.591-1.616-5.506-1.365-6.44-1.279m10.756,7.491h0Z" transform="translate(-627.379 -236.545)" fill="#3d3d3d"/>
        <path id="Trazado_878036" data-name="Trazado 878036" d="M817.615,333.176a.3.3,0,0,1-.243-.481,3.763,3.763,0,0,1,2.222-1.434.3.3,0,1,1,.126.591,3.151,3.151,0,0,0-1.861,1.2.3.3,0,0,1-.244.123" transform="translate(-705.118 -285.782)" fill="#3d3d3d"/>
        <path id="Trazado_878037" data-name="Trazado 878037" d="M896.9,695.876h-43a1.934,1.934,0,1,1,0-3.868h46.314Z" transform="translate(-735.021 -597.014)" fill="#3d3d3d"/>
        <path id="Trazado_878038" data-name="Trazado 878038" d="M981.279,542.031l-31.5-.571,11.262-26.2a2.612,2.612,0,0,1,2.4-1.573h29.1a2.059,2.059,0,0,1,1.895,2.864l-9.983,23.5a3.258,3.258,0,0,1-3.169,1.979" transform="translate(-819.396 -443.173)" fill="#3d3d3d"/>
        <path id="Trazado_878039" data-name="Trazado 878039" d="M1151.923,570.691a.987.987,0,1,1-.987-.987.987.987,0,0,1,.987.987" transform="translate(-992.093 -491.499)" fill="#f4eae2"/>
        <path id="Trazado_878040" data-name="Trazado 878040" d="M1187.578,873.2a.3.3,0,0,1-.3-.251l-22.068-128.591a.3.3,0,1,1,.6-.1l22.068,128.591a.3.3,0,0,1-.247.349.308.308,0,0,1-.051,0" transform="translate(-1005.256 -641.873)" fill="#3d3d3d"/>
        <path id="Trazado_878041" data-name="Trazado 878041" d="M1313.566,1667.007a2.764,2.764,0,1,1-2.764-2.764,2.764,2.764,0,0,1,2.764,2.764" transform="translate(-1128.479 -1435.787)" fill="#3d3d3d"/>
        <path id="Trazado_878042" data-name="Trazado 878042" d="M18.234,873.2a.313.313,0,0,1-.051,0,.3.3,0,0,1-.247-.349L40,744.255a.3.3,0,1,1,.6.1L18.532,872.948a.3.3,0,0,1-.3.251" transform="translate(-15.47 -641.872)" fill="#3d3d3d"/>
        <path id="Trazado_878043" data-name="Trazado 878043" d="M0,1667.007a2.764,2.764,0,1,0,2.764-2.764A2.764,2.764,0,0,0,0,1667.007" transform="translate(0 -1435.787)" fill="#3d3d3d"/>
        <rect id="Rectángulo_402328" data-name="Rectángulo 402328" width="160.053" height="5.334" transform="translate(12.517 97.735)" fill="#f4eae2"/>
        <path id="Trazado_878044" data-name="Trazado 878044" d="M249.332,715.71H89.279a.3.3,0,0,1-.3-.3v-5.334a.3.3,0,0,1,.3-.3H171.51a.3.3,0,1,1,0,.6H89.582v4.73H249.03v-4.73h-7.066a.3.3,0,1,1,0-.6h7.369a.3.3,0,0,1,.3.3v5.334a.3.3,0,0,1-.3.3" transform="translate(-76.763 -612.338)" fill="#3d3d3d"/>
        <path id="Trazado_878045" data-name="Trazado 878045" d="M22.328,1704.51h0Z" transform="translate(-19.263 -1470.526)" fill="#f4eae2"/>
        <path id="Trazado_878046" data-name="Trazado 878046" d="M222.134,1702.914H20.427a.3.3,0,1,1,0-.6H222.134a.3.3,0,1,1,0,.6" transform="translate(-17.362 -1468.628)" fill="#3d3d3d"/>
        <path id="Trazado_878047" data-name="Trazado 878047" d="M1368.323,47.669a47.669,47.669,0,1,0-64.734,44.51v21.143h34.13V92.179a47.677,47.677,0,0,0,30.6-44.51" transform="translate(-1098.238)" fill="#ffd947"/>
        <path id="Trazado_878048" data-name="Trazado 878048" d="M1512.309,916.841a11.831,11.831,0,0,1-4.957-1.033,13.413,13.413,0,0,1-6.767-7.932.3.3,0,0,1,.291-.385h28.307V897.054h-33.326a.3.3,0,0,1,0-.6h33.628a.3.3,0,0,1,.3.3v11.042a.3.3,0,0,1-.3.3H1501.3a12.877,12.877,0,0,0,6.311,7.165c3.579,1.626,8.026,1.217,13.215-1.216a.3.3,0,0,1,.257.547,20.94,20.94,0,0,1-8.772,2.249" transform="translate(-1290.255 -773.391)" fill="#3d3d3d"/>
        <path id="Trazado_878049" data-name="Trazado 878049" d="M1514.467,312.744a.3.3,0,0,1-.3-.242l-13.389-65.638a.3.3,0,1,1,.592-.121l13.389,65.638a.3.3,0,0,1-.236.357.307.307,0,0,1-.061.006" transform="translate(-1294.76 -212.663)" fill="#3d3d3d"/>
        <path id="Trazado_878050" data-name="Trazado 878050" d="M1638.072,312.744a.31.31,0,0,1-.061-.006.3.3,0,0,1-.235-.357l13.389-65.638a.3.3,0,0,1,.592.121L1638.367,312.5a.3.3,0,0,1-.3.242" transform="translate(-1412.947 -212.663)" fill="#3d3d3d"/>
        <path id="Trazado_878051" data-name="Trazado 878051" d="M1544.629,207.922l-.036,0a.3.3,0,0,1-.263-.251l-1.953-11.9-3.544,7.145a.3.3,0,0,1-.271.168h-3.86a.3.3,0,1,1,0-.6h3.673l3.878-7.818a.3.3,0,0,1,.569.085l1.935,11.789,4.428-10.479a.3.3,0,0,1,.288-.184.3.3,0,0,1,.276.2l2.262,6.405h5.163a.3.3,0,1,1,0,.6H1551.8a.3.3,0,0,1-.285-.2l-2.073-5.871-4.532,10.724a.3.3,0,0,1-.278.185" transform="translate(-1323.768 -167.797)" fill="#3d3d3d"/>
        <path id="Trazado_878052" data-name="Trazado 878052" d="M1136.5,220.145a.3.3,0,0,1-.3-.3V176.487a.3.3,0,0,1,.3-.3h20.307a.3.3,0,0,1,0,.6h-20v43.053a.3.3,0,0,1-.3.3" transform="translate(-980.232 -152)" fill="#3d3d3d"/>
        <path id="Trazado_878053" data-name="Trazado 878053" d="M1633.714,1100.883h-17.093a.3.3,0,0,1-.3-.3v-18.692a.3.3,0,0,1,.6,0v18.39h16.791a.3.3,0,0,1,0,.6" transform="translate(-1394.442 -933.114)" fill="#3d3d3d"/>
        <path id="Trazado_878054" data-name="Trazado 878054" d="M1066.208,1826.2H894.99a.3.3,0,0,1,0-.6h171.218a.3.3,0,1,1,0,.6" transform="translate(-771.871 -1574.99)" fill="#3d3d3d"/>
        <path id="Trazado_878055" data-name="Trazado 878055" d="M1941.137,692.294a.3.3,0,0,1-.3-.3v-57.6a.3.3,0,0,1,.3-.3h30.871a.3.3,0,0,1,0,.6h-30.569v57.3a.3.3,0,0,1-.3.3" transform="translate(-1674.41 -547.046)" fill="#3d3d3d"/>
        <path id="Trazado_878056" data-name="Trazado 878056" d="M2227.957,614.821a3.416,3.416,0,1,1-3.416-3.416,3.416,3.416,0,0,1,3.416,3.416" transform="translate(-1916.223 -527.475)" fill="#3d3d3d"/>
        <path id="Trazado_878057" data-name="Trazado 878057" d="M2344.861,634.695h-48.233a.3.3,0,0,1,0-.6h48.233a.3.3,0,1,1,0,.6" transform="translate(-1981.102 -547.046)" fill="#3d3d3d"/>
        <path id="Trazado_878058" data-name="Trazado 878058" d="M2227.957,481.405a3.416,3.416,0,1,1-3.416-3.416,3.416,3.416,0,0,1,3.416,3.416" transform="translate(-1916.223 -412.374)" fill="#3d3d3d"/>
        <path id="Trazado_878059" data-name="Trazado 878059" d="M2344.861,501.279h-48.233a.3.3,0,0,1,0-.6h48.233a.3.3,0,1,1,0,.6" transform="translate(-1981.102 -431.945)" fill="#3d3d3d"/>
        <path id="Trazado_878060" data-name="Trazado 878060" d="M2227.957,347.99a3.416,3.416,0,1,1-3.416-3.416,3.416,3.416,0,0,1,3.416,3.416" transform="translate(-1916.223 -297.273)" fill="#3d3d3d"/>
        <path id="Trazado_878061" data-name="Trazado 878061" d="M2344.861,367.864h-48.233a.3.3,0,0,1,0-.6h48.233a.3.3,0,1,1,0,.6" transform="translate(-1981.102 -316.844)" fill="#3d3d3d"/>
      </g>
    </g>
  </g>
</svg>
