<svg xmlns="http://www.w3.org/2000/svg" xmlns:xlink="http://www.w3.org/1999/xlink" width="521.057" height="277.477" viewBox="0 0 521.057 277.477">
  <defs>
    <clipPath id="clip-path">
      <rect id="Rectángulo_402238" data-name="Rectángulo 402238" width="407.637" height="271.577" fill="none"/>
    </clipPath>
  </defs>
  <g id="Grupo_1101423" data-name="Grupo 1101423" transform="translate(-1929 10533.577)">
    <path id="Rectángulo_35205" data-name="Rectángulo 35205" d="M54,0H468.057a53,53,0,0,1,53,53V222.679a0,0,0,0,1,0,0H0a0,0,0,0,1,0,0V54A54,54,0,0,1,54,0Z" transform="translate(1929 -10478.779)" fill="#aee6e6"/>
    <g id="Grupo_1101416" data-name="Grupo 1101416" transform="translate(1986 -10533.577)">
      <g id="Grupo_1101415" data-name="Grupo 1101415" clip-path="url(#clip-path)">
        <path id="Trazado_877152" data-name="Trazado 877152" d="M269.881,248.3a6.824,6.824,0,0,0,1.643-2.5,2.451,2.451,0,0,0-.763-2.716c-.592-.4-1.383-.424-1.951-.854a2.3,2.3,0,0,1-.511-2.662,7.9,7.9,0,0,1,1.744-2.312,16.6,16.6,0,0,0,4.1-6.681,8.82,8.82,0,0,0-1.1-7.563,6.07,6.07,0,0,0-7.008-2.153c-1.785.779-2.954,2.489-4.027,4.115a96.906,96.906,0,0,0-7.469,12.68,32.426,32.426,0,0,0-3.3,14.225,11.337,11.337,0,0,0,1.161,5.181,5.556,5.556,0,0,0,4.183,3c2.878.253,3.982-2.767,5.81-4.369a90.226,90.226,0,0,0,7.494-7.385" transform="translate(-213.943 -187.733)" fill="#f4eae2"/>
        <path id="Trazado_877153" data-name="Trazado 877153" d="M255.043,258.507q-.181,0-.372-.017a5.875,5.875,0,0,1-4.441-3.167,11.443,11.443,0,0,1-1.2-5.329,32.634,32.634,0,0,1,3.333-14.37,97.571,97.571,0,0,1,7.493-12.724c1-1.511,2.236-3.391,4.169-4.235a6.353,6.353,0,0,1,7.4,2.259,9.1,9.1,0,0,1,1.155,7.846,16.728,16.728,0,0,1-4.175,6.817l-.193.2a6.815,6.815,0,0,0-1.486,2.006,1.978,1.978,0,0,0,.4,2.279,3.024,3.024,0,0,0,.914.4,3.891,3.891,0,0,1,1.022.441,2.771,2.771,0,0,1,.894,3.081,7.085,7.085,0,0,1-1.714,2.629,90.844,90.844,0,0,1-7.521,7.412,12.555,12.555,0,0,0-1.465,1.64c-1.108,1.39-2.252,2.826-4.218,2.826m11.1-39.615a4.643,4.643,0,0,0-1.861.373c-1.755.766-2.936,2.557-3.884,4a97.01,97.01,0,0,0-7.445,12.637,31.988,31.988,0,0,0-3.274,14.08,10.829,10.829,0,0,0,1.121,5.032,5.217,5.217,0,0,0,3.924,2.83c1.849.162,2.9-1.162,4.021-2.565a13.277,13.277,0,0,1,1.545-1.724,90.179,90.179,0,0,0,7.467-7.358,6.563,6.563,0,0,0,1.572-2.378,2.14,2.14,0,0,0-.632-2.351,3.367,3.367,0,0,0-.857-.36,3.556,3.556,0,0,1-1.11-.5,2.633,2.633,0,0,1-.616-3.045,7.306,7.306,0,0,1,1.618-2.211l.191-.2a16.1,16.1,0,0,0,4.023-6.546,8.447,8.447,0,0,0-1.051-7.279,6.062,6.062,0,0,0-4.753-2.422M268,246.41h0Z" transform="translate(-212.066 -185.842)" fill="#3d3d3d"/>
        <path id="Trazado_877154" data-name="Trazado 877154" d="M131.853,235.016c-2.321-3.552-2.52-8.779.539-11.719,1.251-1.2,3.113-2.33,2.9-4.053a3.449,3.449,0,0,0-.937-1.768c-1.591-1.83-3.73-3.092-5.481-4.769s-3.161-4.072-2.625-6.437a5.671,5.671,0,0,1,4.376-4.01,9.679,9.679,0,0,1,6.084.916c5.684,2.647,9.222,8.667,10.416,14.822s.382,12.507-.57,18.7a9.448,9.448,0,0,1-1.251,3.994c-3.238,4.715-11.477-2.654-13.454-5.68" transform="translate(-107.417 -172.098)" fill="#f4eae2"/>
        <path id="Trazado_877155" data-name="Trazado 877155" d="M140.5,240.681h-.056c-3.877-.045-9.141-4.888-10.759-7.363-2.283-3.493-2.688-8.987.586-12.134.259-.249.545-.5.822-.736,1.047-.9,2.129-1.84,1.982-3.042a3.192,3.192,0,0,0-.86-1.593,22.161,22.161,0,0,0-3.1-2.765c-.794-.624-1.615-1.269-2.36-1.982-1.049-1-3.414-3.673-2.717-6.745a5.987,5.987,0,0,1,4.624-4.257,10.111,10.111,0,0,1,6.293.939c5.286,2.461,9.248,8.09,10.6,15.056,1.2,6.168.414,12.42-.567,18.816a9.831,9.831,0,0,1-1.3,4.129,3.669,3.669,0,0,1-3.182,1.677m-10.16-40.143a7.118,7.118,0,0,0-1.537.163,5.325,5.325,0,0,0-4.127,3.763c-.622,2.746,1.563,5.2,2.532,6.128.722.692,1.53,1.326,2.312,1.941a22.65,22.65,0,0,1,3.19,2.85,3.777,3.777,0,0,1,1.015,1.943c.189,1.548-1.082,2.647-2.2,3.616-.283.245-.551.476-.8.712-3.029,2.912-2.629,8.034-.492,11.3,1.613,2.468,6.718,7.026,10.219,7.066a3.01,3.01,0,0,0,2.692-1.393,9.193,9.193,0,0,0,1.2-3.858c.973-6.337,1.748-12.527.572-18.592-1.311-6.761-5.136-12.215-10.233-14.588a10.535,10.535,0,0,0-4.339-1.056" transform="translate(-105.525 -170.221)" fill="#3d3d3d"/>
        <path id="Trazado_877156" data-name="Trazado 877156" d="M176.934,280.391a.326.326,0,0,1-.22-.085c-3.135-2.849-3.09-7.681-2.785-10.307.136-1.168.345-2.347.547-3.487a27.606,27.606,0,0,0,.639-7.141c-.29-3.328-2.446-7.106-5.87-7.553a.327.327,0,1,1,.085-.649c3.8.5,6.118,4.473,6.438,8.145a28.09,28.09,0,0,1-.646,7.312c-.2,1.131-.408,2.3-.542,3.449-.291,2.5-.344,7.094,2.575,9.747a.327.327,0,0,1-.22.569" transform="translate(-143.886 -213.893)" fill="#3d3d3d"/>
        <path id="Trazado_877157" data-name="Trazado 877157" d="M199.531,135.613c.9-2.053,2.238-4.034,2.234-6.274-.005-3.243-2.745-5.7-4.68-8.3-3.467-4.665-4.586-11.185-2.187-16.479s8.544-8.834,14.222-7.591a7.333,7.333,0,0,1,5.058,3.444c1.119,2.151.632,4.767-.092,7.081s-1.671,4.67-1.387,7.078c.5,4.27,4.678,7.311,5.552,11.521.908,4.373-1.953,8.585-4.924,11.92a49.1,49.1,0,0,0-4.812,5.835c-1.57,2.432-1.755,4.6-2.3,7.338-.584,2.913-2.542,3.248-4.451,1.158a14.873,14.873,0,0,1-3.283-7.4,16.482,16.482,0,0,1,1.054-9.327" transform="translate(-164.887 -82.364)" fill="#f4eae2"/>
        <path id="Trazado_877158" data-name="Trazado 877158" d="M202.19,152.156a3.736,3.736,0,0,1-2.592-1.446,15.461,15.461,0,0,1-3.363-7.566,16.908,16.908,0,0,1,1.076-9.513c.224-.514.478-1.028.724-1.526a10.59,10.59,0,0,0,1.483-4.617c0-2.429-1.67-4.462-3.281-6.428-.449-.548-.913-1.114-1.334-1.68-3.714-5-4.586-11.595-2.222-16.809,2.537-5.6,8.946-9.012,14.59-7.775a7.606,7.606,0,0,1,5.278,3.613c1.231,2.364.609,5.159-.07,7.33-.1.333-.213.668-.323,1a14.208,14.208,0,0,0-1.052,5.939c.255,2.159,1.471,3.977,2.759,5.9a16.359,16.359,0,0,1,2.789,5.592c1,4.792-2.377,9.26-5,12.2q-.426.478-.858.954a39.007,39.007,0,0,0-3.923,4.84,14.932,14.932,0,0,0-2.011,5.928c-.078.42-.158.851-.247,1.3-.3,1.477-.97,2.432-1.9,2.69a1.948,1.948,0,0,1-.524.071m-4.28-18.264a16.246,16.246,0,0,0-1.031,9.141,14.8,14.8,0,0,0,3.2,7.236c.865.948,1.761,1.38,2.458,1.186.678-.189,1.186-.965,1.431-2.188.089-.443.168-.871.245-1.288a15.442,15.442,0,0,1,2.1-6.164,39.478,39.478,0,0,1,3.988-4.924q.429-.475.855-.951c2.529-2.838,5.783-7.132,4.848-11.635a15.88,15.88,0,0,0-2.692-5.361c-1.274-1.9-2.592-3.873-2.865-6.189a14.693,14.693,0,0,1,1.08-6.218c.108-.333.217-.665.321-1,.642-2.051,1.234-4.68.114-6.832a6.961,6.961,0,0,0-4.838-3.276c-5.354-1.172-11.44,2.081-13.854,7.406-2.267,5-1.423,11.34,2.151,16.149.411.553.871,1.114,1.315,1.656,1.684,2.055,3.426,4.179,3.43,6.842a11.235,11.235,0,0,1-1.55,4.908c-.243.491-.493,1-.711,1.5" transform="translate(-162.966 -80.512)" fill="#3d3d3d"/>
        <path id="Trazado_877159" data-name="Trazado 877159" d="M252.981,188.236a.326.326,0,0,1-.247-.113c-2.324-2.675-2.082-6.669-1.081-9.515a33.059,33.059,0,0,1,2.831-5.632c.569-.972,1.157-1.976,1.674-2.989,1.785-3.5,2.275-6.549,1.455-9.078a15.121,15.121,0,0,0-2.726-4.479,24.579,24.579,0,0,1-2.084-2.98,12.516,12.516,0,0,1,.833-13.195.327.327,0,0,1,.526.389,11.843,11.843,0,0,0-.789,12.486,24.077,24.077,0,0,0,2.031,2.9,15.839,15.839,0,0,1,2.832,4.678c.875,2.7.372,5.922-1.494,9.577-.526,1.029-1.119,2.042-1.692,3.022a32.574,32.574,0,0,0-2.778,5.519c-.94,2.673-1.182,6.406.958,8.869a.327.327,0,0,1-.247.542" transform="translate(-213.688 -119.328)" fill="#3d3d3d"/>
        <path id="Trazado_877160" data-name="Trazado 877160" d="M169.659,448.185h-40.08l2.731,30.644h34.619Z" transform="translate(-110.348 -381.673)" fill="#3d3d3d"/>
        <path id="Trazado_877161" data-name="Trazado 877161" d="M206.582,812.153H8.629A6.424,6.424,0,0,1,2.2,805.729V658.4a6.424,6.424,0,0,1,6.424-6.424H206.582a6.424,6.424,0,0,1,6.424,6.424V805.729a6.424,6.424,0,0,1-6.424,6.424" transform="translate(-1.878 -555.219)" fill="#f4eae2"/>
        <path id="Trazado_877162" data-name="Trazado 877162" d="M204.7,810.6H6.751A6.759,6.759,0,0,1,0,803.852V656.521a6.759,6.759,0,0,1,6.751-6.751H204.7a6.759,6.759,0,0,1,6.751,6.751V803.852A6.759,6.759,0,0,1,204.7,810.6M6.751,650.424a6.1,6.1,0,0,0-6.1,6.1V803.852a6.1,6.1,0,0,0,6.1,6.1H204.7a6.1,6.1,0,0,0,6.1-6.1V656.521a6.1,6.1,0,0,0-6.1-6.1Z" transform="translate(0 -553.342)" fill="#3d3d3d"/>
        <path id="Trazado_877163" data-name="Trazado 877163" d="M44.2,689.641a3.326,3.326,0,1,1-3.326-3.323,3.324,3.324,0,0,1,3.326,3.323" transform="translate(-31.977 -584.466)" fill="#f4eae2"/>
        <path id="Trazado_877164" data-name="Trazado 877164" d="M39,691.413a3.65,3.65,0,1,1,3.653-3.65A3.655,3.655,0,0,1,39,691.413m0-6.645a3,3,0,1,0,3,3,3,3,0,0,0-3-3" transform="translate(-30.101 -582.589)" fill="#3d3d3d"/>
        <path id="Trazado_877165" data-name="Trazado 877165" d="M109.6,689.641a3.326,3.326,0,1,1-3.326-3.323,3.324,3.324,0,0,1,3.326,3.323" transform="translate(-87.671 -584.466)" fill="#f4eae2"/>
        <path id="Trazado_877166" data-name="Trazado 877166" d="M104.4,691.413a3.65,3.65,0,1,1,3.653-3.65,3.656,3.656,0,0,1-3.653,3.65m0-6.645a3,3,0,1,0,3,3,3,3,0,0,0-3-3" transform="translate(-85.793 -582.589)" fill="#3d3d3d"/>
        <path id="Trazado_877167" data-name="Trazado 877167" d="M175,689.641a3.326,3.326,0,1,1-3.326-3.323A3.324,3.324,0,0,1,175,689.641" transform="translate(-143.364 -584.466)" fill="#f4eae2"/>
        <path id="Trazado_877168" data-name="Trazado 877168" d="M169.8,691.413a3.65,3.65,0,1,1,3.653-3.65,3.656,3.656,0,0,1-3.653,3.65m0-6.645a3,3,0,1,0,3,3,3,3,0,0,0-3-3" transform="translate(-141.487 -582.589)" fill="#3d3d3d"/>
        <path id="Trazado_877169" data-name="Trazado 877169" d="M228.175,902.165H24.569a.327.327,0,0,1-.327-.327V764.179a.327.327,0,0,1,.327-.327H228.175a.327.327,0,0,1,.327.327V901.838a.327.327,0,0,1-.327.327M24.9,901.51H227.848v-137H24.9Z" transform="translate(-20.644 -650.494)" fill="#3d3d3d"/>
        <rect id="Rectángulo_402237" data-name="Rectángulo 402237" width="117.253" height="78.156" transform="translate(71.274 141.399)" fill="#ffd947"/>
        <path id="Trazado_877170" data-name="Trazado 877170" d="M706.418,1147.548l-32.03-57.839-49,5.374a172.419,172.419,0,0,0-11.537,52.465Z" transform="translate(-522.756 -927.993)" fill="#3d3d3d"/>
        <path id="Trazado_877171" data-name="Trazado 877171" d="M704.473,1145.737a.327.327,0,0,1-.286-.169l-31.779-57.388-48.59,5.33a174.2,174.2,0,0,0-11.424,51.9.327.327,0,0,1-.653-.037,174.307,174.307,0,0,1,11.549-52.3.327.327,0,0,1,.265-.2l49-5.374a.328.328,0,0,1,.322.167l31.885,57.578a.327.327,0,0,1-.286.486" transform="translate(-520.955 -926.116)" fill="#3d3d3d"/>
        <path id="Trazado_877172" data-name="Trazado 877172" d="M924.708,1400.348l-.04,0a.328.328,0,0,1-.285-.365l.613-4.989a10.221,10.221,0,0,1,6.3-8.222l1.4-.568a.327.327,0,1,1,.246.606l-1.4.568a9.566,9.566,0,0,0-5.9,7.695l-.613,4.989a.327.327,0,0,1-.324.287" transform="translate(-787.2 -1180.466)" fill="#f4eae2"/>
        <path id="Trazado_877173" data-name="Trazado 877173" d="M680.44,305.734c.923,3.231-1.567,5.542-1.837,7.967-.274,2.458,1.7,3.781.554,7.78-1.126,3.917-4.159,3.454-5.536,5.485-1.335,1.969-1.829,4.843-3.589,6.517-1.7,1.614-4.422,1.825-6.459,3.1-1.959,1.222-3.456,3.668-5.682,4.512-2.133.809-4.948-.544-7.284-.137s-3.356,2.836-5.619,2.837c-4.546,0-4.283-2.276-6.5-2.769-2.309-.513-5.683,1.148-8.587-.135-3.342-1.477-2.316-4.192-4.167-5.606-1.909-1.458-4.609-.338-6.92-3.666-2.154-3.1-.992-5.375-1.982-7.612-.977-2.207-3.992-3.509-4.018-6.03-.04-3.875,2.073-4.872,2.344-7.3.274-2.458-1.386-5.311-.706-7.679.9-3.127,4.206-3.257,5.583-5.289,1.335-1.969.708-4.468,2.636-6.948,1.74-2.237,5.331-1.417,7.368-2.687,1.959-1.222,1.711-3.826,4.773-4.92,2.611-.933,5.138.78,7.474.373s3.287-2.794,6.407-2.794c3.5,0,4.2,2.572,6.425,3.064,2.309.513,4.233-1.171,7.347.023,3.4,1.3,2.824,4.236,4.675,5.65,1.909,1.459,5.264,1.3,6.753,3.16,1.513,1.886.834,5.192,1.959,7.365,1.452,2.8,3.6,2.252,4.593,5.741" transform="translate(-521.867 -239.07)" fill="#3d3d3d"/>
        <path id="Trazado_877174" data-name="Trazado 877174" d="M872.907,545.52l-1.068,17.954c.852,7.041,5.93,10.927,8.978,10.282,2.8-.593,5.512-5.357,4.655-11.313l.125-10.452s-9.08-8.488-12.69-6.471" transform="translate(-742.456 -464.299)" fill="#f4eae2"/>
        <path id="Trazado_877175" data-name="Trazado 877175" d="M866.366,470.884a2.195,2.195,0,0,0-.92,2.3,2.888,2.888,0,0,0,1.644,1.944,4.272,4.272,0,0,0,2.586.241c.81,2.761,10.377,7.81,13.481,4.369,2.18-2.416,1.821-8.6,1.034-11.758s-2.16-6.167-2.68-9.38a29.982,29.982,0,0,0-10.3,4.211,7.277,7.277,0,0,0-1.821,1.666,3.231,3.231,0,0,0-.646,2.33,17.514,17.514,0,0,0,.922,2.356c.188.608.144,2.029-.745,2.075-.4.02-.808-.454-1.2-.548a1.822,1.822,0,0,0-1.353.2" transform="translate(-736.971 -390.542)" fill="#f4eae2"/>
        <path id="Trazado_877176" data-name="Trazado 877176" d="M878.166,479.347a9.961,9.961,0,0,1-2.2-.272c-3.54-.808-7.521-3.318-8.375-5.219a4.493,4.493,0,0,1-2.512-.311,3.232,3.232,0,0,1-1.827-2.173,2.533,2.533,0,0,1,1.07-2.646,2.137,2.137,0,0,1,1.6-.235,2.07,2.07,0,0,1,.616.307,1.114,1.114,0,0,0,.491.233.387.387,0,0,0,.319-.186,2.044,2.044,0,0,0,.131-1.465,6.77,6.77,0,0,0-.4-.932,5.255,5.255,0,0,1-.536-1.471,3.517,3.517,0,0,1,.7-2.571,7.6,7.6,0,0,1,1.9-1.744,29.865,29.865,0,0,1,10.412-4.26.327.327,0,0,1,.4.266,36.073,36.073,0,0,0,1.508,5.51c.414,1.249.842,2.541,1.166,3.843.69,2.769,1.326,9.358-1.108,12.056a4.33,4.33,0,0,1-3.359,1.27M867.8,473.162a.327.327,0,0,1,.314.235c.446,1.519,4.3,4.2,8,5.041,1.592.363,3.739.52,4.929-.8,2.039-2.259,1.778-8.174.959-11.46-.318-1.278-.742-2.558-1.153-3.8a38.963,38.963,0,0,1-1.473-5.264,28.82,28.82,0,0,0-9.851,4.08,7,7,0,0,0-1.742,1.588,2.908,2.908,0,0,0-.589,2.089,4.684,4.684,0,0,0,.479,1.286,7.378,7.378,0,0,1,.432,1.023,2.647,2.647,0,0,1-.219,2.034,1.04,1.04,0,0,1-.822.465,1.532,1.532,0,0,1-.879-.336,1.653,1.653,0,0,0-.414-.221,1.5,1.5,0,0,0-1.106.157h0a1.861,1.861,0,0,0-.769,1.95,2.566,2.566,0,0,0,1.46,1.715,3.957,3.957,0,0,0,2.387.217.329.329,0,0,1,.063-.006m-3.311-4.156h0Z" transform="translate(-735.095 -388.663)" fill="#3d3d3d"/>
        <path id="Trazado_877177" data-name="Trazado 877177" d="M882.007,551.968a.325.325,0,0,1-.169-.047,7.555,7.555,0,0,0-2.536-.962.327.327,0,0,1,.119-.643,8.2,8.2,0,0,1,2.754,1.045.327.327,0,0,1-.169.607" transform="translate(-748.584 -468.642)" fill="#3d3d3d"/>
        <path id="Trazado_877178" data-name="Trazado 877178" d="M422.3,685.429s-17.124,28.6,7.768,31.613,47.012,1.055,51.715-6.02,10.345-22.952,10.345-22.952,20.457,11.57,31.519,9.67c28.144-4.836,7.955-41.545,7.955-41.545l-24.405-1.009,5.312,13.807s-10.546-17.573-26.382-20.6c-4.529-.865-10.519,1.083-17.193-.091-2.9-.509-.542-6.158-2.514-6.47-2.1-.369-4.212-.553-4.212-.553L459.9,646.6l-3.188-5.91a34.364,34.364,0,0,0-6.717-.875c-2.195,0-.993,3.633-2.976,5.433-1.366,1.24-2.233.526-8.17,1.289a62.379,62.379,0,0,0-9.622,2.01s-1.415.39-2.853.926c-6.916,2.574-19,7.787-29.8,16.05-5.152,3.941-14.592-.185-16.02,6.277-5.891,26.674-.731,37.1,9.156,41.366a14.225,14.225,0,0,0,17.344-5.107c3.716-5.443,9.1-13.38,15.25-22.633" transform="translate(-321.952 -544.866)" fill="#7d6eb2"/>
        <path id="Trazado_877179" data-name="Trazado 877179" d="M927.19,745.419h-.022a.491.491,0,0,1-.469-.512q.037-.848.066-1.631a.491.491,0,0,1,.981.036q-.029.786-.066,1.638a.491.491,0,0,1-.49.469m.12-3.269H927.3a.491.491,0,0,1-.477-.5q.025-.862.039-1.631a.491.491,0,1,1,.981.019q-.015.773-.039,1.64a.491.491,0,0,1-.49.477m.062-3.271h0a.491.491,0,0,1-.487-.5q.006-.633.005-1.183v-.447a.491.491,0,0,1,.489-.492h0a.491.491,0,0,1,.491.489v.45q0,.554-.005,1.192a.491.491,0,0,1-.49.486m-.015-3.271a.491.491,0,0,1-.491-.481c-.022-1.07-.054-1.609-.055-1.615a.491.491,0,0,1,.98-.06c0,.022.034.562.056,1.655a.491.491,0,0,1-.481.5h-.01" transform="translate(-789.174 -624.214)" fill="#f4eae2"/>
        <path id="Trazado_877180" data-name="Trazado 877180" d="M919.55,697.931h-.012L917,697.9a.855.855,0,0,1-.822-1.044l.906-4a.868.868,0,0,1,.85-.666l.695.014a.853.853,0,0,1,.816.662l.932,4.022a.855.855,0,0,1-.832,1.048m-2.376-1.015,2.216.031-.874-3.768-.493-.01Z" transform="translate(-780.2 -589.464)" fill="#f4eae2"/>
        <path id="Trazado_877181" data-name="Trazado 877181" d="M923.269,683.708h-.005l-.927-.007a.749.749,0,0,1-.743-.755l.006-.768a.751.751,0,0,1,.755-.744l.926.007a.749.749,0,0,1,.743.755l-.005.768a.75.75,0,0,1-.749.743m0-.981h0Zm-.693-.005.462,0,0-.3-.462,0Zm-.23-.305h0Z" transform="translate(-784.827 -580.308)" fill="#f4eae2"/>
        <path id="Trazado_877182" data-name="Trazado 877182" d="M1222.927,585.826l-15.919-28.509,10.6-3.232L1232.366,584Z" transform="translate(-1027.885 -471.858)" fill="#3d3d3d"/>
        <path id="Trazado_877183" data-name="Trazado 877183" d="M1196.191,484.4h-9.143a7.212,7.212,0,0,1-7.212-7.212v-4.511a7.212,7.212,0,0,1,7.212-7.212h9.143Z" transform="translate(-1004.745 -396.392)" fill="#f4eae2"/>
        <path id="Trazado_877184" data-name="Trazado 877184" d="M1194.312,482.854h-9.142a7.548,7.548,0,0,1-7.54-7.539V470.8a7.548,7.548,0,0,1,7.54-7.539h9.142a.327.327,0,0,1,.327.327v18.935a.327.327,0,0,1-.327.327m-9.142-18.935a6.893,6.893,0,0,0-6.885,6.885v4.511a6.893,6.893,0,0,0,6.885,6.885h8.815V463.918Z" transform="translate(-1002.866 -394.514)" fill="#3d3d3d"/>
        <path id="Trazado_877185" data-name="Trazado 877185" d="M1326.412,326.388s-1.543-8.688-8.095-7.987c-4.783.512-35.234,10.991-51.326,16.611a14.831,14.831,0,0,0,3.308,28.747l48.645,5.227s5.16-.643,7.621-8.554-.153-34.044-.153-34.044" transform="translate(-1070.502 -271.115)" fill="#f4eae2"/>
        <path id="Trazado_877186" data-name="Trazado 877186" d="M1317.067,367.436l-.035,0-48.645-5.227a15.158,15.158,0,0,1-3.381-29.382c17.154-5.991,46.643-16.118,51.4-16.628,6.778-.726,8.436,8.165,8.452,8.255,0,.008,0,.016,0,.025.107,1.07,2.593,26.29.14,34.174-2.5,8.02-7.674,8.754-7.894,8.781l-.04,0m.1-50.625a6.486,6.486,0,0,0-.688.037c-4.691.5-34.126,10.613-51.253,16.6a14.5,14.5,0,0,0,3.235,28.113l48.6,5.222c.434-.076,5.056-1.054,7.317-8.321,2.392-7.686-.094-33.181-.165-33.9-.064-.336-1.548-7.745-7.048-7.745" transform="translate(-1068.625 -269.238)" fill="#3d3d3d"/>
        <path id="Trazado_877187" data-name="Trazado 877187" d="M1613.45,344c0,13.978-6.044,25.309-13.5,25.309s-13.5-11.331-13.5-25.309,6.044-25.309,13.5-25.309,13.5,11.331,13.5,25.309" transform="translate(-1351.017 -271.394)" fill="#f4eae2"/>
        <path id="Trazado_877188" data-name="Trazado 877188" d="M1598.074,367.756c-7.624,0-13.827-11.5-13.827-25.636s6.2-25.636,13.827-25.636,13.827,11.5,13.827,25.636-6.2,25.636-13.827,25.636m0-50.618c-7.263,0-13.172,11.207-13.172,24.982s5.909,24.982,13.172,24.982,13.172-11.207,13.172-24.982-5.909-24.982-13.172-24.982" transform="translate(-1349.14 -269.517)" fill="#3d3d3d"/>
        <path id="Trazado_877189" data-name="Trazado 877189" d="M1614.857,441.512a.327.327,0,0,1-.02-.654,9.732,9.732,0,0,0-.245-19.441.327.327,0,0,1,.031-.654,10.387,10.387,0,0,1,.255,20.747h-.021" transform="translate(-1374.716 -358.321)" fill="#3d3d3d"/>
        <path id="Trazado_877190" data-name="Trazado 877190" d="M1703.205,399.064a.327.327,0,0,1-.276-.5,36.543,36.543,0,0,0,2.042-35.524,21.3,21.3,0,0,0-1.365-2.432.327.327,0,1,1,.546-.36,21.946,21.946,0,0,1,1.408,2.507,37.2,37.2,0,0,1-2.078,36.159.327.327,0,0,1-.277.152" transform="translate(-1450.167 -306.658)" fill="#3d3d3d"/>
        <path id="Trazado_877191" data-name="Trazado 877191" d="M1246.395,644.229s14.833,2.655,23.173-3.437l-1.7-3.708s2.2-2.177-.029-2.975c0,0,2.075-4.135-1.529-4.381,0,0,2.4-5.394-3.141-4.369,0,0,3.327-6.086-2.877-4.614-4.91,1.164-5.934,2.763-5.934,2.763s2.739-6.781-.694-6.08a15.328,15.328,0,0,0-4.469,2.017,14,14,0,0,0-5.732,16.631Z" transform="translate(-1058.217 -525.757)" fill="#f4eae2"/>
        <path id="Trazado_877192" data-name="Trazado 877192" d="M1249.412,654.711a.327.327,0,0,1-.305-.21l-7.768-20.189a14.4,14.4,0,0,1,5.865-17.026,15.72,15.72,0,0,1,4.576-2.059,1.611,1.611,0,0,1,1.68.44c.852,1.024.284,3.41-.188,4.883a15.6,15.6,0,0,1,5.126-2c1.878-.445,3.144-.259,3.763.552.84,1.1.175,3.012-.246,3.965a3.073,3.073,0,0,1,2.924.83c.865,1.1.391,2.878.11,3.678a2.258,2.258,0,0,1,1.691,1.062c.643,1.126.1,2.744-.184,3.424a1.485,1.485,0,0,1,.859,1,2.857,2.857,0,0,1-.876,2.206l1.389,3.025a.327.327,0,1,1-.594.273l-1.481-3.225a.328.328,0,0,1,.067-.369c.285-.283.994-1.152.856-1.769-.063-.283-.32-.507-.765-.666a.327.327,0,0,1-.182-.455c.01-.02.986-2,.343-3.124a1.848,1.848,0,0,0-1.6-.784.327.327,0,0,1-.277-.459c.01-.023,1.007-2.309.132-3.417-.474-.6-1.454-.768-2.914-.5a.327.327,0,0,1-.347-.479c.406-.743,1.3-2.88.577-3.827-.442-.579-1.511-.687-3.092-.312-4.664,1.106-5.726,2.609-5.736,2.624a.329.329,0,0,1-.426.107.326.326,0,0,1-.151-.41c.661-1.637,1.441-4.555.721-5.419-.076-.091-.307-.368-1.046-.218a15.08,15.08,0,0,0-4.362,1.974,13.737,13.737,0,0,0-5.6,16.242l7.765,20.182a.327.327,0,0,1-.188.423.323.323,0,0,1-.117.022" transform="translate(-1056.402 -523.876)" fill="#3d3d3d"/>
        <path id="Trazado_877193" data-name="Trazado 877193" d="M1291.962,702.926l6.084,11.791a4.356,4.356,0,0,0,7.853-3.762l-.4-.9s-4.5.815-2.733-2.2c0,0-5.089.607-2.573-3.37a3.614,3.614,0,0,1-2.356-.089c-1.616-.736-2.925-2.792.427-5.681a9.542,9.542,0,0,1-5.025.677,27.156,27.156,0,0,1-1.279,3.529" transform="translate(-1100.231 -595.029)" fill="#3d3d3d"/>
        <path id="Trazado_877194" data-name="Trazado 877194" d="M1318.709,678.856a.327.327,0,0,1-.157-.615c2.645-1.439,5.294-2.957,7.875-4.51a.327.327,0,1,1,.337.56c-2.589,1.558-5.246,3.08-7.9,4.524a.328.328,0,0,1-.156.04" transform="translate(-1122.729 -573.708)" fill="#3d3d3d"/>
        <path id="Trazado_877195" data-name="Trazado 877195" d="M1329.319,710.76a.327.327,0,0,1-.153-.616,106.4,106.4,0,0,0,10.2-6.142.327.327,0,0,1,.368.541,107,107,0,0,1-10.263,6.18.325.325,0,0,1-.152.038" transform="translate(-1131.766 -599.478)" fill="#3d3d3d"/>
        <path id="Trazado_877196" data-name="Trazado 877196" d="M1350.328,741.191a.327.327,0,0,1-.158-.614l7.62-4.2a.327.327,0,1,1,.316.573l-7.62,4.2a.325.325,0,0,1-.157.041" transform="translate(-1149.657 -627.062)" fill="#3d3d3d"/>
        <path id="Trazado_877197" data-name="Trazado 877197" d="M1293.016,664.088H1293a2.123,2.123,0,0,1-1.827-2.007c-.146-2.04,1.321-3.91,4.359-5.56a.327.327,0,1,1,.312.575c-2.792,1.516-4.144,3.177-4.019,4.938a1.474,1.474,0,0,0,1.208,1.4.327.327,0,0,1-.017.654" transform="translate(-1099.55 -559.057)" fill="#3d3d3d"/>
        <path id="Trazado_877198" data-name="Trazado 877198" d="M1841.856,462.071a51.58,51.58,0,0,1-5.886-.349,89.641,89.641,0,0,1-31.293-9.789.327.327,0,0,1,.329-.566,88.944,88.944,0,0,0,31.039,9.7c17.516,2.01,24.582-5.627,24.652-5.7a.327.327,0,0,1,.488.436c-.257.288-5.765,6.268-19.328,6.268" transform="translate(-1536.718 -384.345)" fill="#3d3d3d"/>
        <path id="Trazado_877199" data-name="Trazado 877199" d="M1841.856,519.045a51.58,51.58,0,0,1-5.886-.349,89.644,89.644,0,0,1-31.293-9.789.327.327,0,0,1,.329-.566,88.944,88.944,0,0,0,31.039,9.7c17.516,2.01,24.582-5.627,24.652-5.7a.327.327,0,0,1,.488.435c-.257.288-5.765,6.268-19.328,6.268" transform="translate(-1536.718 -432.864)" fill="#3d3d3d"/>
        <path id="Trazado_877200" data-name="Trazado 877200" d="M311.77,564c-3.218-2.58-6.223-5.954-7.882-4.277s2.766,6.192,2.766,6.192c-5.066-.766-8.159-7.094-10.147-6.332s-.545,3.936-.545,3.936-1.968-3.981-4.32-2.513,1.055,5.675,1.055,5.675-3.022-3.536-4.989-.779,7.352,8.14,7.352,8.14c-1.866-.941-4.912-1.38-5.386.036s2.942,2.93,6.389,5.044a39.331,39.331,0,0,0,8.88,3.508c-.642,6.984-1.355,13.093-1.641,18.224a5.063,5.063,0,0,0,3.9,5.209q.7.163,1.408.294a40.249,40.249,0,0,0,12.313.233l.048-.006a4.8,4.8,0,0,0,4.141-5.548c-1.051-6.363-3.208-16.622-4.108-22.971-1.194-8.42-6.017-11.484-9.236-14.065" transform="translate(-244.78 -476.279)" fill="#f4eae2"/>
        <path id="Trazado_877201" data-name="Trazado 877201" d="M301.5,601.661h0a.327.327,0,0,1-.323-.331A189.616,189.616,0,0,1,302.707,581a38.108,38.108,0,0,1-8.693-3.473c-.732-.449-1.457-.867-2.158-1.272-2.8-1.618-4.828-2.787-4.371-4.154a1.513,1.513,0,0,1,.909-.912,4.68,4.68,0,0,1,2.444-.119c-2.14-1.455-5.138-3.794-5.556-5.722a1.831,1.831,0,0,1,.282-1.509,2.528,2.528,0,0,1,1.975-1.186,3.4,3.4,0,0,1,1.832.53,5,5,0,0,1-.726-2.923,1.983,1.983,0,0,1,.947-1.4,2.231,2.231,0,0,1,1.854-.287,4.035,4.035,0,0,1,1.826,1.293,3.018,3.018,0,0,1,.161-1.418,1.824,1.824,0,0,1,1.08-1.04c1.082-.415,2.256.722,3.743,2.161,1.5,1.456,3.33,3.224,5.568,3.921-1.256-1.446-3.483-4.413-2.045-5.867,1.541-1.557,3.913.489,6.424,2.656.616.532,1.254,1.081,1.9,1.6.275.221.563.445.859.676,3.117,2.435,7.387,5.77,8.5,13.6.074.525.626,3.514,1.265,6.975.951,5.15,2.133,11.559,2.267,12.693a.327.327,0,0,1-.65.076c-.131-1.112-1.311-7.51-2.26-12.65-.64-3.468-1.193-6.463-1.269-7-1.073-7.566-5.053-10.675-8.251-13.174-.3-.233-.588-.459-.865-.681-.651-.522-1.293-1.076-1.914-1.611-2.372-2.046-4.42-3.814-5.531-2.691-1.169,1.181,1.678,4.621,2.767,5.733a.327.327,0,0,1-.283.552c-2.909-.44-5.137-2.6-6.927-4.33-1.267-1.226-2.361-2.286-3.054-2.021a1.176,1.176,0,0,0-.708.677,4.36,4.36,0,0,0,.344,2.818.327.327,0,0,1-.591.281c-.011-.022-1.1-2.189-2.525-2.593a1.579,1.579,0,0,0-1.327.213,1.336,1.336,0,0,0-.649.957c-.279,1.663,1.763,4.209,1.784,4.235a.327.327,0,0,1-.5.419c-.015-.018-1.535-1.777-3-1.715a1.886,1.886,0,0,0-1.469.913,1.186,1.186,0,0,0-.175.991c.586,2.7,7.356,6.637,7.424,6.676a.327.327,0,0,1-.311.575c-1.3-.655-3.348-1.1-4.391-.667a.86.86,0,0,0-.537.515c-.288.861,1.832,2.084,4.077,3.38.7.407,1.434.827,2.173,1.281a39.229,39.229,0,0,0,8.79,3.47.327.327,0,0,1,.244.356,190.417,190.417,0,0,0-1.566,20.546.327.327,0,0,1-.327.323" transform="translate(-242.901 -474.398)" fill="#3d3d3d"/>
        <path id="Trazado_877202" data-name="Trazado 877202" d="M342.049,658.624a.326.326,0,0,1-.151-.037l-2.838-1.479a.327.327,0,1,1,.3-.58l2.838,1.479a.327.327,0,0,1-.151.617" transform="translate(-288.593 -559.066)" fill="#3d3d3d"/>
        <path id="Trazado_877203" data-name="Trazado 877203" d="M331.4,613.552a.329.329,0,0,1-.125-.025,31.182,31.182,0,0,1-7.259-4.215.327.327,0,0,1,.4-.517,30.514,30.514,0,0,0,7.106,4.126.327.327,0,0,1-.125.63" transform="translate(-275.825 -518.39)" fill="#3d3d3d"/>
        <path id="Trazado_877204" data-name="Trazado 877204" d="M351.719,593.308a.329.329,0,0,1-.1-.016,18.864,18.864,0,0,1-6.7-3.852.327.327,0,0,1,.436-.488,18.2,18.2,0,0,0,6.466,3.718.327.327,0,0,1-.1.638" transform="translate(-293.638 -501.479)" fill="#3d3d3d"/>
        <path id="Trazado_877205" data-name="Trazado 877205" d="M419.3,615.031a.327.327,0,0,1-.325-.291,8.972,8.972,0,0,1,.215-2.622c.068-.37.138-.753.183-1.126a3.528,3.528,0,0,0-.85-3.12.327.327,0,0,1,.415-.506c1.216,1,1.2,2.749,1.085,3.705-.048.392-.119.784-.189,1.164a8.358,8.358,0,0,0-.209,2.431.327.327,0,0,1-.288.362l-.037,0" transform="translate(-356.309 -517.169)" fill="#3d3d3d"/>
        <path id="Trazado_877206" data-name="Trazado 877206" d="M410.187,717.454a.326.326,0,0,1-.213-.079,7.645,7.645,0,0,0-2.158-1.309.327.327,0,1,1,.242-.608,8.288,8.288,0,0,1,2.343,1.421.327.327,0,0,1-.214.575" transform="translate(-347.119 -609.262)" fill="#3d3d3d"/>
        <path id="Trazado_877207" data-name="Trazado 877207" d="M769.377,960.665a16.015,16.015,0,0,1-4.63-.677,16.4,16.4,0,0,1-10.115-8.928.327.327,0,1,1,.6-.266,15.541,15.541,0,0,0,22.532,6.812.327.327,0,0,1,.351.552,16.375,16.375,0,0,1-8.736,2.506" transform="translate(-642.618 -809.528)" fill="#3d3d3d"/>
        <path id="Trazado_877208" data-name="Trazado 877208" d="M1016.35,917.2a15.916,15.916,0,0,1-3.8-.455.327.327,0,1,1,.156-.635,15.541,15.541,0,0,0,19.182-13.644.327.327,0,0,1,.651.061A16.167,16.167,0,0,1,1016.35,917.2" transform="translate(-862.076 -768.283)" fill="#3d3d3d"/>
        <path id="Trazado_877209" data-name="Trazado 877209" d="M548.028,883.649a.327.327,0,0,1-.326-.307l-1.052-17.305a.327.327,0,1,1,.653-.04l1.052,17.305a.327.327,0,0,1-.307.346h-.02" transform="translate(-465.525 -737.218)" fill="#3d3d3d"/>
        <path id="Trazado_877210" data-name="Trazado 877210" d="M2399.573,361.428c.648,3.555,1.188,7.12,1.939,10.657.809,3.807,1.908,7.549,2.656,11.367.359,1.832.656,3.677,1.049,5.5.173.8.382,1.6.562,2.407a13.306,13.306,0,0,0,1.275,6.471,9.831,9.831,0,0,0,5.446,4.279,27.286,27.286,0,0,0,7.633,1.594c1.22.1,2.435.094,3.657.095,1.83,0,3.658.07,5.488.081a29.994,29.994,0,0,0,10.721-1.51,17.165,17.165,0,0,0,6.578-4.264,12.592,12.592,0,0,0,3.309-6.8,19.982,19.982,0,0,0-1.325-9.078c-2.2-6.492-6.2-12.293-10.557-17.517-3.99-4.779-8.094-9.677-13.087-13.448a26.915,26.915,0,0,0-7.835-4.261,24.193,24.193,0,0,0-7.193-1.1,15.328,15.328,0,0,0-7.28,1.47,7.405,7.405,0,0,0-2.569,2.154,7.6,7.6,0,0,0-1.279,3.565c-.336,2.789.313,5.6.811,8.332" transform="translate(-2042.7 -294.573)" fill="#3d3d3d"/>
        <path id="Trazado_877211" data-name="Trazado 877211" d="M2431.594,461.84l4.052,14.727s-8.021,10.2-14.283,9.8-5.1-7.493-.429-9.694l3.345-.512-1.347-11.455Z" transform="translate(-2058.348 -393.302)" fill="#f4eae2"/>
        <path id="Trazado_877212" data-name="Trazado 877212" d="M2456.432,475.567a.327.327,0,0,1-.324-.285l-1.6-12.413a.327.327,0,0,1,.222-.353l8.663-2.864a.327.327,0,0,1,.419.227l3.386,12.749a.327.327,0,1,1-.632.168l-3.3-12.413-8.077,2.67,1.566,12.145a.327.327,0,0,1-.282.366l-.042,0" transform="translate(-2090.249 -391.424)" fill="#3d3d3d"/>
        <path id="Trazado_877213" data-name="Trazado 877213" d="M2445.514,557.407a.327.327,0,0,1-.049-.651l2.486-.381a.327.327,0,0,1,.1.647l-2.486.381a.331.331,0,0,1-.05,0" transform="translate(-2082.315 -473.805)" fill="#3d3d3d"/>
        <path id="Trazado_877214" data-name="Trazado 877214" d="M2425.982,401.685a10.145,10.145,0,0,0,.258,5.18,6.14,6.14,0,0,0,3.438,3.744,6.047,6.047,0,0,0,4.436-.173,9.541,9.541,0,0,0,3.562-2.758,3.663,3.663,0,0,0,4.175-1.42,2.712,2.712,0,0,0,.266-2.61,1.835,1.835,0,0,0-2.3-.919c-.471.223-.807.677-1.287.88a1.792,1.792,0,0,1-1.656-.232,3.626,3.626,0,0,1-1.105-1.326,7.662,7.662,0,0,1-.715-5.323c-.039.168-.934.422-1.094.476a7.385,7.385,0,0,1-1.233.3,7.7,7.7,0,0,1-2.5-.024,7.535,7.535,0,0,1-1.229-.321,4.032,4.032,0,0,0-1.067-.416c-.707-.008-.917,1.28-1.087,1.778a22.134,22.134,0,0,0-.866,3.162" transform="translate(-2065.777 -337.852)" fill="#f4eae2"/>
        <path id="Trazado_877215" data-name="Trazado 877215" d="M2429.72,409.4a5.719,5.719,0,0,1-2.042-.363,6.472,6.472,0,0,1-3.63-3.941,10.372,10.372,0,0,1-.271-5.348,22.188,22.188,0,0,1,.878-3.209c.028-.082.057-.186.09-.3.178-.638.476-1.707,1.311-1.7a2.03,2.03,0,0,1,.85.285,3.008,3.008,0,0,0,.322.15,7.2,7.2,0,0,0,1.175.307,7.343,7.343,0,0,0,2.389.023,7.055,7.055,0,0,0,1.178-.287l.115-.037a4.14,4.14,0,0,0,.806-.3.327.327,0,0,1,.6.247h0a7.346,7.346,0,0,0,.684,5.093,3.247,3.247,0,0,0,1,1.21,1.458,1.458,0,0,0,1.347.2,2.553,2.553,0,0,0,.589-.4,3.311,3.311,0,0,1,.685-.472,2.16,2.16,0,0,1,2.733,1.07,3.012,3.012,0,0,1-.284,2.933,3.975,3.975,0,0,1-4.341,1.62,9.669,9.669,0,0,1-3.544,2.682,6.871,6.871,0,0,1-2.637.54m-3.673-14.206c-.331,0-.552.792-.672,1.218-.036.131-.069.248-.1.339a21.642,21.642,0,0,0-.854,3.115,9.736,9.736,0,0,0,.244,5.013,5.814,5.814,0,0,0,3.246,3.547,5.721,5.721,0,0,0,4.193-.169,9.153,9.153,0,0,0,3.438-2.666.328.328,0,0,1,.361-.1,3.34,3.34,0,0,0,3.79-1.289,2.388,2.388,0,0,0,.247-2.288,1.507,1.507,0,0,0-1.866-.769,2.8,2.8,0,0,0-.549.385,3.058,3.058,0,0,1-.75.5,2.114,2.114,0,0,1-1.966-.261,3.863,3.863,0,0,1-1.211-1.442,8.028,8.028,0,0,1-.872-4.871c-.127.045-.274.094-.444.147l-.1.031a7.747,7.747,0,0,1-1.288.314,8,8,0,0,1-2.6-.025,7.859,7.859,0,0,1-1.282-.335,3.492,3.492,0,0,1-.4-.183,1.642,1.642,0,0,0-.561-.214Zm-1.948,4.613h0Zm8.753-5.032v0h0" transform="translate(-2063.895 -335.975)" fill="#3d3d3d"/>
        <path id="Trazado_877216" data-name="Trazado 877216" d="M2511.405,451.729a2.171,2.171,0,0,0-2.023,1.215Z" transform="translate(-2136.983 -384.689)" fill="#f4eae2"/>
        <path id="Trazado_877217" data-name="Trazado 877217" d="M2507.5,451.395a.327.327,0,0,1-.3-.466,2.5,2.5,0,0,1,2.336-1.4.327.327,0,0,1-.033.653,1.857,1.857,0,0,0-1.71,1.027.327.327,0,0,1-.3.188" transform="translate(-2135.104 -382.812)" fill="#3d3d3d"/>
        <path id="Trazado_877218" data-name="Trazado 877218" d="M2027.921,816.066l3.223,144.5a5.509,5.509,0,0,1-5.507,5.642h-32.719a5.509,5.509,0,0,1-5.473-6.139l4.284-37.863-10.168,39.784a5.509,5.509,0,0,1-5.337,4.145H1931.7a2.365,2.365,0,0,1-1.758-3.947l8.2-9.108,55.348-136.261Z" transform="translate(-1643.009 -694.96)" fill="#3d3d3d"/>
        <path id="Trazado_877219" data-name="Trazado 877219" d="M2023.755,964.659h-32.719a5.836,5.836,0,0,1-5.8-6.5l3.75-33.143L1980,960.193a5.833,5.833,0,0,1-5.654,4.391h-44.529a2.692,2.692,0,0,1-2-4.494l8.162-9.066L1991.3,814.817a.327.327,0,0,1,.3-.2l34.435-.752a.33.33,0,0,1,.334.32l3.223,144.5a5.836,5.836,0,0,1-5.834,5.977M1989.848,920a.328.328,0,0,1,.326.364l-4.284,37.864a5.182,5.182,0,0,0,5.147,5.776h32.719a5.182,5.182,0,0,0,5.18-5.307l-3.215-144.175-33.893.74L1936.56,951.324a.324.324,0,0,1-.06.1l-8.2,9.108a2.038,2.038,0,0,0,1.515,3.4h44.529a5.179,5.179,0,0,0,5.02-3.9l10.168-39.784a.327.327,0,0,1,.317-.246m-53.591,31.2h0Z" transform="translate(-1641.127 -693.082)" fill="#3d3d3d"/>
        <path id="Trazado_877220" data-name="Trazado 877220" d="M2349.125,1065.84l-.038,0a.328.328,0,0,1-.287-.363l8.641-74.72a2.949,2.949,0,0,0-1.094-2.656l-1.884-1.508a.327.327,0,0,1,.409-.511l1.884,1.508a3.6,3.6,0,0,1,1.334,3.242l-8.641,74.72a.327.327,0,0,1-.324.29" transform="translate(-2000.229 -839.682)" fill="#f4eae2"/>
        <path id="Trazado_877221" data-name="Trazado 877221" d="M2116.3,1532.813c-.881,0-1.74-.059-2.525-.121a96.238,96.238,0,0,1-32.464-8.408.327.327,0,0,1,.272-.6,95.589,95.589,0,0,0,32.244,8.35,21.526,21.526,0,0,0,4.22.022.327.327,0,0,1,.078.65,15.175,15.175,0,0,1-1.825.1" transform="translate(-1772.275 -1297.544)" fill="#f4eae2"/>
        <path id="Trazado_877222" data-name="Trazado 877222" d="M2374.411,1585.848a125.878,125.878,0,0,1-19.975-1.6.327.327,0,0,1,.1-.646,125.192,125.192,0,0,0,36.806.437.327.327,0,1,1,.088.648,125.892,125.892,0,0,1-17.022,1.157" transform="translate(-2004.797 -1348.591)" fill="#f4eae2"/>
        <path id="Trazado_877223" data-name="Trazado 877223" d="M2043.927,1739.644h-43.544a.327.327,0,0,1,0-.654h43.544a.327.327,0,1,1,0,.654" transform="translate(-1703.241 -1480.919)" fill="#f4eae2"/>
        <path id="Trazado_877224" data-name="Trazado 877224" d="M2379.085,1739.644h-40.526a.327.327,0,1,1,0-.654h40.526a.327.327,0,0,1,0,.654" transform="translate(-1991.232 -1480.919)" fill="#f4eae2"/>
        <path id="Trazado_877225" data-name="Trazado 877225" d="M2303.989,547.08c-2.567-3.077-8.046-3.685-14.757-3.24a9.953,9.953,0,0,1-1.38,1.547,9.8,9.8,0,0,1-3.359,1.992,10.283,10.283,0,0,1-3.961.511,7.612,7.612,0,0,1-5.251-2.275q-1.626.26-3.257.524a29.339,29.339,0,0,0-19.052,13.386c-13.833,23.834-5.242,29.673-1.484,30.842,5.619,1.748,10.586-4.026,10.586-4.026l15.832-.352c26.616,8.86,25.524-5.17,27.583-13.583s3.078-19.844-1.5-25.327" transform="translate(-1912.165 -463.022)" fill="#7d6eb2"/>
        <path id="Trazado_877226" data-name="Trazado 877226" d="M2319.317,507.2s.566-2.256-1.366-1.619c0,0-.167-2.64-2.125-1.128l2.836-3.7c.306-.4-.059-1.333-.059-1.333a1.037,1.037,0,0,0-1.5-.028,118.218,118.218,0,0,0-21.572,31.393,46.509,46.509,0,0,0,14.439,3.929s10.172-24.967,10.533-26.333c.461-1.744-1.185-1.185-1.185-1.185" transform="translate(-1954.867 -425.024)" fill="#f4eae2"/>
        <path id="Trazado_877227" data-name="Trazado 877227" d="M2392.738,707.024l-10.847-2.137-2.068,5.088-2.266,7.767,12.9,5.505s3.046-9.594,2.278-16.223" transform="translate(-2024.72 -600.28)" fill="#f4eae2"/>
        <path id="Trazado_877228" data-name="Trazado 877228" d="M2375.677,530.138a.327.327,0,0,1-.262-.522c2.026-2.727,4.135-5.334,6.271-7.749a.327.327,0,0,1,.49.434c-2.123,2.4-4.221,4.993-6.235,7.705a.327.327,0,0,1-.263.132" transform="translate(-2022.842 -444.326)" fill="#3d3d3d"/>
        <path id="Trazado_877229" data-name="Trazado 877229" d="M2271.7,718.188a.327.327,0,0,1-.306-.443,33.714,33.714,0,0,1,3.074-6.137.327.327,0,0,1,.552.351,33.069,33.069,0,0,0-3.015,6.018.326.326,0,0,1-.306.211" transform="translate(-1934.293 -605.874)" fill="#3d3d3d"/>
        <path id="Trazado_877230" data-name="Trazado 877230" d="M2493.56,721.042a.328.328,0,0,1-.113-.02,60.339,60.339,0,0,0-11.779-3.02.327.327,0,0,1,.1-.647,61.024,61.024,0,0,1,11.907,3.053.327.327,0,0,1-.113.634" transform="translate(-2113.144 -610.894)" fill="#3d3d3d"/>
        <path id="Trazado_877231" data-name="Trazado 877231" d="M2547.922,664.334a.327.327,0,0,1-.312-.426,68.476,68.476,0,0,0,2.637-11.872.327.327,0,0,1,.649.084,69.127,69.127,0,0,1-2.663,11.986.327.327,0,0,1-.312.228" transform="translate(-2169.524 -555.029)" fill="#3d3d3d"/>
        <path id="Trazado_877232" data-name="Trazado 877232" d="M2357.133,797.448a.327.327,0,0,1-.248-.541,11.673,11.673,0,0,0,2.509-5.023.327.327,0,0,1,.636.153,12.312,12.312,0,0,1-2.65,5.3.326.326,0,0,1-.248.113" transform="translate(-2007.049 -674.153)" fill="#3d3d3d"/>
        <path id="Trazado_877233" data-name="Trazado 877233" d="M2469.532,535.576l3.049,2.883-5.236,8.449-3.387-5.039-3.45,4.67-2.024-6.9,1.439-2.344,4.472,1.649Z" transform="translate(-2093.638 -456.095)" fill="#f4eae2"/>
        <path id="Trazado_877234" data-name="Trazado 877234" d="M2470.771,537.4a.329.329,0,0,1-.113-.02l-4.472-1.649a.327.327,0,1,1,.227-.614l4.317,1.592,5-3.281a.327.327,0,0,1,.359.547l-5.136,3.371a.328.328,0,0,1-.18.054" transform="translate(-2100.014 -454.217)" fill="#3d3d3d"/>
        <path id="Trazado_877235" data-name="Trazado 877235" d="M2458.195,552.428a.327.327,0,0,1-.306-.444c.371-.969.481-1.291.507-1.391a1.438,1.438,0,0,0,.016-1.018.416.416,0,0,0-.314-.176.327.327,0,1,1,.112-.645,1.065,1.065,0,0,1,.754.467,1.92,1.92,0,0,1,.066,1.539c-.029.109-.115.378-.529,1.458a.327.327,0,0,1-.305.21" transform="translate(-2093.078 -467.313)" fill="#3d3d3d"/>
        <path id="Trazado_877236" data-name="Trazado 877236" d="M2317.567,1825.743h-74.094a.327.327,0,1,1,0-.654h74.094a.327.327,0,0,1,0,.654" transform="translate(-1910.257 -1554.241)" fill="#3d3d3d"/>
        <path id="Trazado_877237" data-name="Trazado 877237" d="M1074.268,43.964l7.6-7.872h94.118a15.544,15.544,0,0,0,15.544-15.544V15.725A15.725,15.725,0,0,0,1175.8,0h-85.856a15.681,15.681,0,0,0-15.681,15.681Z" transform="translate(-914.844)" fill="#ffd947"/>
        <path id="Trazado_877238" data-name="Trazado 877238" d="M1191.139,63.238a10.923,10.923,0,1,1-10.923-10.923,10.923,10.923,0,0,1,10.923,10.923" transform="translate(-995.766 -44.551)" fill="#f4eae2"/>
        <path id="Trazado_877239" data-name="Trazado 877239" d="M1397.21,52.633l1.061,2.15,2.373.345a.571.571,0,0,1,.316.974l-1.717,1.674.405,2.363a.571.571,0,0,1-.828.6l-2.122-1.116-2.122,1.116a.571.571,0,0,1-.828-.6l.406-2.363-1.717-1.674a.571.571,0,0,1,.316-.974l2.373-.345,1.061-2.15a.571.571,0,0,1,1.024,0" transform="translate(-1185.647 -44.551)" fill="#f4eae2"/>
        <path id="Trazado_877240" data-name="Trazado 877240" d="M1475.8,52.633l1.061,2.15,2.373.345a.571.571,0,0,1,.316.974l-1.717,1.674.406,2.363a.571.571,0,0,1-.828.6l-2.122-1.116-2.122,1.116a.571.571,0,0,1-.828-.6l.405-2.363-1.717-1.674a.571.571,0,0,1,.316-.974l2.373-.345,1.061-2.15a.571.571,0,0,1,1.024,0" transform="translate(-1252.574 -44.551)" fill="#f4eae2"/>
        <path id="Trazado_877241" data-name="Trazado 877241" d="M1554.391,52.633l1.061,2.15,2.373.345a.571.571,0,0,1,.316.974l-1.717,1.674.405,2.363a.571.571,0,0,1-.828.6l-2.122-1.116-2.122,1.116a.571.571,0,0,1-.828-.6l.405-2.363-1.717-1.674a.571.571,0,0,1,.316-.974l2.373-.345,1.061-2.15a.571.571,0,0,1,1.024,0" transform="translate(-1319.501 -44.551)" fill="#f4eae2"/>
        <path id="Trazado_877242" data-name="Trazado 877242" d="M1632.982,52.633l1.061,2.15,2.373.345a.571.571,0,0,1,.316.974l-1.717,1.674.405,2.363a.571.571,0,0,1-.828.6l-2.122-1.116-2.122,1.116a.571.571,0,0,1-.828-.6l.406-2.363-1.717-1.674a.571.571,0,0,1,.316-.974l2.373-.345,1.061-2.15a.571.571,0,0,1,1.024,0" transform="translate(-1386.43 -44.551)" fill="#f4eae2"/>
        <path id="Trazado_877243" data-name="Trazado 877243" d="M1711.573,52.633l1.061,2.15,2.373.345a.571.571,0,0,1,.316.974l-1.717,1.674.405,2.363a.571.571,0,0,1-.828.6l-2.122-1.116-2.122,1.116a.571.571,0,0,1-.828-.6l.405-2.363L1706.8,56.1a.571.571,0,0,1,.316-.974l2.373-.345,1.061-2.15a.571.571,0,0,1,1.024,0" transform="translate(-1453.357 -44.551)" fill="#f4eae2"/>
        <path id="Trazado_877244" data-name="Trazado 877244" d="M1711.045,146.574h-10.4a.327.327,0,1,1,0-.654h10.4a.327.327,0,1,1,0,.654" transform="translate(-1447.985 -124.265)" fill="#3d3d3d"/>
        <path id="Trazado_877245" data-name="Trazado 877245" d="M1429.043,146.574h-38.658a.327.327,0,1,1,0-.654h38.658a.327.327,0,0,1,0,.654" transform="translate(-1183.769 -124.265)" fill="#3d3d3d"/>
        <path id="Trazado_877246" data-name="Trazado 877246" d="M1564.5,185.791h-35.939a.327.327,0,1,1,0-.654H1564.5a.327.327,0,0,1,0,.654" transform="translate(-1301.441 -157.662)" fill="#3d3d3d"/>
        <path id="Trazado_877247" data-name="Trazado 877247" d="M1402.8,185.791h-12.414a.327.327,0,0,1,0-.654H1402.8a.327.327,0,0,1,0,.654" transform="translate(-1183.769 -157.662)" fill="#3d3d3d"/>
        <path id="Trazado_877248" data-name="Trazado 877248" d="M1941.6,188.907l5.56,1.547,1.9-6.773-5.56-1.547Z" transform="translate(-1653.459 -155.104)" fill="#f4eae2"/>
        <path id="Trazado_877249" data-name="Trazado 877249" d="M1945.281,188.9a.327.327,0,0,1-.088-.012l-5.56-1.547a.327.327,0,0,1-.227-.4l1.9-6.773a.327.327,0,0,1,.4-.227l5.56,1.547a.328.328,0,0,1,.227.4l-1.9,6.773a.327.327,0,0,1-.315.239m-5.157-2.1,4.93,1.372,1.719-6.143-4.93-1.372Z" transform="translate(-1651.582 -153.227)" fill="#3d3d3d"/>
        <path id="Trazado_877250" data-name="Trazado 877250" d="M1915.542,284.263l5.42,1.5.068.019,1.875-6.7-5.494-1.528Z" transform="translate(-1631.271 -236.365)" fill="#f4eae2"/>
        <path id="Trazado_877251" data-name="Trazado 877251" d="M1919.154,284.233a.327.327,0,0,1-.088-.012l-5.489-1.521a.327.327,0,0,1-.228-.4l1.87-6.709a.327.327,0,0,1,.4-.227l5.494,1.529a.327.327,0,0,1,.227.4l-1.875,6.7a.327.327,0,0,1-.315.239m-5.086-2.076,4.859,1.346,1.7-6.071-4.864-1.353Z" transform="translate(-1629.393 -234.486)" fill="#3d3d3d"/>
        <path id="Trazado_877252" data-name="Trazado 877252" d="M1804.708,174.9l-12.031-3.347a3.512,3.512,0,0,1-2.657-4.186l.272-.973a3.525,3.525,0,0,1,4.447-2.21l11.965,3.329,1.888-6.775-11.9-3.312c-5.426-1.51-10.932,1.226-12.3,6.111l-.883,3.155c-1.367,4.885,1.923,10.068,7.349,11.577l11.984,3.334Z" transform="translate(-1518.566 -133.706)" fill="#f4eae2"/>
        <path id="Trazado_877253" data-name="Trazado 877253" d="M1801.007,180.383a.327.327,0,0,1-.088-.012l-11.984-3.334c-4.462-1.242-7.706-5.051-7.89-9.263a.327.327,0,0,1,.654-.028c.171,3.933,3.219,7.495,7.411,8.662l11.669,3.247,1.693-6.073-11.716-3.26a4.209,4.209,0,0,1-2.542-1.948,3.456,3.456,0,0,1-.343-2.642l.272-.973a3.856,3.856,0,0,1,4.85-2.437l11.65,3.241,1.713-6.145-11.588-3.224a11.08,11.08,0,0,0-1.829-.347.327.327,0,0,1,.067-.651,11.733,11.733,0,0,1,1.938.367l11.9,3.312a.327.327,0,0,1,.227.4l-1.889,6.775a.327.327,0,0,1-.4.227l-11.965-3.329a3.2,3.2,0,0,0-4.045,1.983l-.273.973a2.808,2.808,0,0,0,.283,2.144,3.553,3.553,0,0,0,2.147,1.639l12.031,3.347a.327.327,0,0,1,.228.4l-1.869,6.7a.327.327,0,0,1-.315.239" transform="translate(-1516.734 -132.162)" fill="#3d3d3d"/>
        <path id="Trazado_877254" data-name="Trazado 877254" d="M1994.476,299.675a.331.331,0,0,1-.091-.013l-6.37-1.844a.327.327,0,0,1,.182-.629l6.37,1.844a.327.327,0,0,1-.091.642" transform="translate(-1692.786 -253.075)" fill="#3d3d3d"/>
        <path id="Trazado_877255" data-name="Trazado 877255" d="M1980.206,306.478a.332.332,0,0,1-.091-.013l-3.539-1.025a.327.327,0,0,1,.182-.628l3.539,1.025a.327.327,0,0,1-.091.642" transform="translate(-1683.046 -259.566)" fill="#3d3d3d"/>
        <path id="Trazado_877256" data-name="Trazado 877256" d="M1971.315,332.414a.33.33,0,0,1-.091-.013l-2.031-.588a.327.327,0,0,1,.182-.629l2.031.588a.327.327,0,0,1-.091.642" transform="translate(-1676.758 -282.025)" fill="#3d3d3d"/>
        <path id="Trazado_877257" data-name="Trazado 877257" d="M1985.583,322.123a.328.328,0,0,1-.093-.013l-1.642-.487a.327.327,0,0,1,.186-.627l1.642.487a.327.327,0,0,1-.093.641" transform="translate(-1689.24 -273.347)" fill="#3d3d3d"/>
        <path id="Trazado_877258" data-name="Trazado 877258" d="M2009.736,201.963a.337.337,0,0,1-.091-.013l-4.343-1.258a.327.327,0,0,1,.182-.628l4.344,1.257a.327.327,0,0,1-.091.642" transform="translate(-1707.508 -170.363)" fill="#3d3d3d"/>
        <path id="Trazado_877259" data-name="Trazado 877259" d="M2016.085,213.974a.33.33,0,0,1-.091-.013l-1.044-.3a.327.327,0,0,1,.182-.628l1.044.3a.327.327,0,0,1-.091.642" transform="translate(-1715.724 -181.405)" fill="#3d3d3d"/>
        <path id="Trazado_877260" data-name="Trazado 877260" d="M1997.9,226.119a.328.328,0,0,1-.093-.013l-1.908-.562a.327.327,0,0,1,.185-.628l1.908.562a.327.327,0,0,1-.092.641" transform="translate(-1699.501 -191.526)" fill="#3d3d3d"/>
        <path id="Trazado_877261" data-name="Trazado 877261" d="M1997.378,237.661a.33.33,0,0,1-.091-.013l-1.351-.391a.327.327,0,0,1,.182-.628l1.351.391a.327.327,0,0,1-.091.642" transform="translate(-1699.532 -201.501)" fill="#3d3d3d"/>
        <path id="Trazado_877262" data-name="Trazado 877262" d="M2321.659,178.143v11.679H2310.11a11.506,11.506,0,1,1,11.519-12.33.081.081,0,0,0,0,.03c.016.209.023.416.026.622" transform="translate(-1957.448 -142.06)" fill="#3d3d3d"/>
        <path id="Trazado_877263" data-name="Trazado 877263" d="M2336.714,216.947c-.094,0-.155,0-.177,0a.32.32,0,0,1-.089-.015.326.326,0,0,1-.1-.042c-.231-.147-5.647-3.656-4.184-8.4a3.571,3.571,0,0,1,4.374-2.487,3.441,3.441,0,0,1,2.358,2.96,3.679,3.679,0,0,1,.967-.8,3.318,3.318,0,0,1,2.652-.314,3.565,3.565,0,0,1,2.212,4.518h0c-1.35,4.37-6.922,4.587-8.014,4.587m-.173-.349h0Zm.076-.318.038.012c.8,0,6.22-.152,7.448-4.125a2.911,2.911,0,0,0-1.78-3.7,2.671,2.671,0,0,0-2.134.256,3.111,3.111,0,0,0-1.416,1.789.633.633,0,0,1-.064.148.327.327,0,0,1-.613-.183.967.967,0,0,1,.017-.116c0-.011.006-.028.009-.038a2.8,2.8,0,1,0-5.333-1.645c-1.225,3.975,3.164,7.151,3.828,7.6m7.8-4.017h0Z" transform="translate(-1985.852 -175.303)" fill="#3d3d3d"/>
      </g>
    </g>
  </g>
</svg>
