<svg xmlns="http://www.w3.org/2000/svg" xmlns:xlink="http://www.w3.org/1999/xlink" width="521.057" height="277.478" viewBox="0 0 521.057 277.478">
  <defs>
    <clipPath id="clip-path">
      <rect id="Rectángulo_402248" data-name="Rectángulo 402248" width="412.088" height="275.078" fill="none"/>
    </clipPath>
  </defs>
  <g id="Grupo_1101512" data-name="Grupo 1101512" transform="translate(-1132 9879.577)">
    <g id="Grupo_1101421" data-name="Grupo 1101421" transform="translate(-797 -476)">
      <path id="Rectángulo_35205" data-name="Rectángulo 35205" d="M54,0H468.057a53,53,0,0,1,53,53V222.679a0,0,0,0,1,0,0H0a0,0,0,0,1,0,0V54A54,54,0,0,1,54,0Z" transform="translate(1929 -9348.779)" fill="#aee6e6"/>
      <g id="Grupo_1101420" data-name="Grupo 1101420" transform="translate(1983.484 -9403.577)">
        <g id="Grupo_1101419" data-name="Grupo 1101419" clip-path="url(#clip-path)">
          <path id="Trazado_877385" data-name="Trazado 877385" d="M2470.373,658.3a4.947,4.947,0,0,0-.533.256,19.849,19.849,0,0,0-4.139-4.233,4.863,4.863,0,1,0-8.871-3.79,19.82,19.82,0,0,0-5.917-.064,4.862,4.862,0,1,0-8.951,3.6,19.84,19.84,0,0,0-4.229,4.143,4.865,4.865,0,1,0-3.787,8.878,19.876,19.876,0,0,0-.064,5.923,4.866,4.866,0,1,0,3.594,8.958,19.848,19.848,0,0,0,4.139,4.233,4.861,4.861,0,1,0,8.675,4.349,4.882,4.882,0,0,0,.2-.558,19.826,19.826,0,0,0,5.917.064,4.862,4.862,0,1,0,8.951-3.6,19.851,19.851,0,0,0,4.23-4.143,4.916,4.916,0,0,0,.527.268,4.865,4.865,0,1,0,3.26-9.146,19.867,19.867,0,0,0,.064-5.923,4.929,4.929,0,0,0,.562-.184,4.866,4.866,0,0,0-3.624-9.031m-13.76,19.325a7.934,7.934,0,1,1,4.4-10.32,7.926,7.926,0,0,1-4.4,10.32" transform="translate(-2064.96 -549.619)" fill="#3d3d3d"/>
          <path id="Trazado_877386" data-name="Trazado 877386" d="M2257.447,371.094a4.9,4.9,0,0,0-.533.256,19.857,19.857,0,0,0-4.139-4.233,4.863,4.863,0,1,0-8.871-3.79,19.822,19.822,0,0,0-5.917-.064,4.936,4.936,0,0,0-.184-.563,4.863,4.863,0,1,0-9.023,3.627,4.923,4.923,0,0,0,.256.533,19.849,19.849,0,0,0-4.23,4.143,4.865,4.865,0,1,0-3.787,8.878,19.867,19.867,0,0,0-.064,5.923,4.866,4.866,0,1,0,3.594,8.958,19.855,19.855,0,0,0,4.139,4.233,4.863,4.863,0,1,0,8.871,3.79,19.827,19.827,0,0,0,5.918.064,4.861,4.861,0,1,0,9.207-3.064,4.843,4.843,0,0,0-.256-.533,19.848,19.848,0,0,0,4.23-4.142,4.865,4.865,0,1,0,3.787-8.878,19.868,19.868,0,0,0,.064-5.923,4.922,4.922,0,0,0,.562-.184,4.866,4.866,0,0,0-3.624-9.031m-13.76,19.325a7.934,7.934,0,1,1,4.4-10.32,7.926,7.926,0,0,1-4.4,10.32" transform="translate(-1884.04 -305.586)" fill="#f4eae2"/>
          <path id="Trazado_877387" data-name="Trazado 877387" d="M2246.307,404.918a5.2,5.2,0,0,1-4.818-3.263c-.041-.1-.079-.207-.115-.32a20.146,20.146,0,0,1-5.449-.059c-.038.113-.078.217-.121.318a5.194,5.194,0,1,1-9.552-4.081c.042-.1.09-.2.146-.308a20.169,20.169,0,0,1-3.812-3.9c-.107.052-.209.1-.31.139a5.2,5.2,0,0,1-3.871-9.645c.1-.041.207-.079.32-.115a20.19,20.19,0,0,1,.059-5.454c-.113-.039-.218-.079-.318-.121a5.2,5.2,0,1,1,4.078-9.56c.1.043.2.091.307.145a20.159,20.159,0,0,1,3.895-3.814c-.052-.107-.1-.21-.139-.311a5.193,5.193,0,1,1,9.637-3.874c.041.1.079.207.115.32a20.149,20.149,0,0,1,5.449.059c.038-.112.079-.218.121-.318a5.194,5.194,0,1,1,9.552,4.081c-.042.1-.091.2-.146.308a20.157,20.157,0,0,1,3.812,3.9c.107-.052.209-.1.31-.139a5.2,5.2,0,0,1,3.871,9.645c-.1.04-.207.078-.32.115a20.18,20.18,0,0,1-.059,5.454c.113.038.218.079.317.121a5.2,5.2,0,1,1-4.078,9.56c-.1-.043-.2-.091-.307-.145a20.168,20.168,0,0,1-3.895,3.815c.053.108.1.21.139.311a5.2,5.2,0,0,1-4.82,7.136m-4.694-4.28a.331.331,0,0,1,.32.246,4.392,4.392,0,0,0,.171.525,4.531,4.531,0,1,0,8.409-3.38,4.549,4.549,0,0,0-.24-.5.331.331,0,0,1,.1-.427,19.493,19.493,0,0,0,4.159-4.073.331.331,0,0,1,.43-.087,4.543,4.543,0,0,0,.492.25,4.534,4.534,0,0,0,3.558-8.342,4.569,4.569,0,0,0-.52-.182.331.331,0,0,1-.235-.371,19.536,19.536,0,0,0,.063-5.824.331.331,0,0,1,.242-.366,4.533,4.533,0,1,0-2.853-8.588h0a4.49,4.49,0,0,0-.5.239.331.331,0,0,1-.428-.1,19.505,19.505,0,0,0-4.07-4.163.331.331,0,0,1-.087-.43,4.53,4.53,0,1,0-8.084-4.053,4.64,4.64,0,0,0-.182.521.332.332,0,0,1-.371.235,19.479,19.479,0,0,0-5.819-.063.332.332,0,0,1-.366-.242,4.606,4.606,0,0,0-.171-.525,4.532,4.532,0,1,0-8.409,3.38,4.736,4.736,0,0,0,.239.5.331.331,0,0,1-.1.428,19.5,19.5,0,0,0-4.159,4.073.331.331,0,0,1-.43.087,4.546,4.546,0,0,0-.491-.25,4.534,4.534,0,1,0-3.038,8.524.332.332,0,0,1,.235.371,19.528,19.528,0,0,0-.063,5.824.331.331,0,0,1-.243.366,4.535,4.535,0,1,0,3.35,8.348.331.331,0,0,1,.428.1,19.5,19.5,0,0,0,4.07,4.163.331.331,0,0,1,.087.43,4.491,4.491,0,0,0-.25.492,4.532,4.532,0,1,0,8.334,3.562,4.466,4.466,0,0,0,.182-.521.332.332,0,0,1,.371-.234,19.484,19.484,0,0,0,5.819.063.338.338,0,0,1,.046,0m13.969-31.425h0Zm-16.716,20.233a8.273,8.273,0,1,1,3.079-.6,8.234,8.234,0,0,1-3.079.6m0-15.878a7.612,7.612,0,1,0,2.982.615,7.581,7.581,0,0,0-2.982-.615" transform="translate(-1882.175 -303.705)" fill="#3d3d3d"/>
          <path id="Trazado_877388" data-name="Trazado 877388" d="M689.745,268.536H403.822V99.469a9.163,9.163,0,0,1,9.163-9.163h267.6a9.163,9.163,0,0,1,9.163,9.163Z" transform="translate(-343.121 -76.732)" fill="#f4eae2"/>
          <path id="Trazado_877389" data-name="Trazado 877389" d="M687.873,267H401.95a.331.331,0,0,1-.331-.331V97.6a9.505,9.505,0,0,1,9.494-9.494h267.6A9.505,9.505,0,0,1,688.2,97.6V266.665a.331.331,0,0,1-.331.331m-285.592-.662H687.542V97.6a8.842,8.842,0,0,0-8.832-8.832h-267.6a8.842,8.842,0,0,0-8.832,8.832Z" transform="translate(-341.249 -74.861)" fill="#3d3d3d"/>
          <path id="Trazado_877390" data-name="Trazado 877390" d="M484.96,558.25H460.79a.331.331,0,0,1-.331-.331v-97.38a.331.331,0,0,1,.662,0v97.049H484.96a.331.331,0,1,1,0,.662" transform="translate(-391.245 -391.031)" fill="#3d3d3d"/>
          <path id="Trazado_877391" data-name="Trazado 877391" d="M920.309,212.572a.331.331,0,0,1-.331-.331V140.354H685.914a.331.331,0,1,1,0-.662H920.309a.331.331,0,0,1,.331.331v72.217a.331.331,0,0,1-.331.331" transform="translate(-582.529 -118.694)" fill="#3d3d3d"/>
          <path id="Trazado_877392" data-name="Trazado 877392" d="M475.714,1210.061H180.278c-13.52,0-25.948-5.79-32.362-15.077-2.166-3.136-3.008-5.263.8-5.263H506.844c3.637,0,4.22.254,2.405,3.406-5.93,10.3-19.059,16.933-33.535,16.933" transform="translate(-124.119 -1010.887)" fill="#f4eae2"/>
          <path id="Trazado_877393" data-name="Trazado 877393" d="M473.835,1208.521H178.4c-13.646,0-26.15-5.832-32.634-15.22-1.439-2.083-2.283-3.688-1.727-4.748.365-.7,1.282-1.033,2.8-1.033H504.964c1.958,0,3.177.052,3.593.773.378.653-.044,1.642-.9,3.13-5.978,10.387-19.254,17.1-33.822,17.1m-326.993-20.339c-1.235,0-1.981.229-2.217.679-.429.818.675,2.6,1.686,4.065,6.361,9.212,18.658,14.934,32.089,14.934H473.835c14.335,0,27.386-6.582,33.248-16.767.541-.94,1.132-2.069.9-2.468s-1.563-.442-3.02-.442Z" transform="translate(-122.24 -1009.016)" fill="#3d3d3d"/>
          <path id="Trazado_877394" data-name="Trazado 877394" d="M1464.6,229.6a32.511,32.511,0,1,0,45.535,5.726A32.561,32.561,0,0,0,1464.6,229.6" transform="translate(-1233.816 -189.275)" fill="#f4eae2"/>
          <path id="Trazado_877395" data-name="Trazado 877395" d="M1482.848,286.247a33.225,33.225,0,0,1-4.119-.257,32.588,32.588,0,0,1-21.843-12.443,32.93,32.93,0,0,1,5.719-46.1,32.738,32.738,0,0,1,46,5.784,32.93,32.93,0,0,1-5.719,46.1,32.454,32.454,0,0,1-20.038,6.916m-.2-65.053a31.792,31.792,0,0,0-19.632,6.776,32.266,32.266,0,0,0-5.6,45.17,32.075,32.075,0,0,0,45.07,5.668,32.266,32.266,0,0,0,5.6-45.17,31.93,31.93,0,0,0-21.4-12.192,32.569,32.569,0,0,0-4.036-.252" transform="translate(-1232.026 -187.383)" fill="#3d3d3d"/>
          <path id="Trazado_877396" data-name="Trazado 877396" d="M1566.088,192.252a37.345,37.345,0,0,1,44.956,11.018l-29.6,23.075s-12.742-28.45-15.355-34.092" transform="translate(-1330.68 -160.489)" fill="#3d3d3d"/>
          <path id="Trazado_877397" data-name="Trazado 877397" d="M1705.131,437.165a35,35,0,0,1-9.9,25c-6.114-6.021-24.911-24.593-24.911-24.593s29.02-.279,34.807-.408" transform="translate(-1419.248 -371.452)" fill="#f4eae2"/>
          <path id="Trazado_877398" data-name="Trazado 877398" d="M1693.363,460.626a.331.331,0,0,1-.232-.1c-6.044-5.953-24.723-24.407-24.911-24.593a.331.331,0,0,1,.23-.567c.29,0,29.084-.28,34.8-.408a.323.323,0,0,1,.236.092.329.329,0,0,1,.1.233,35.518,35.518,0,0,1-9.991,25.238.331.331,0,0,1-.234.1Zm-24.112-24.6c3.139,3.1,18.453,18.229,24.106,23.8a34.861,34.861,0,0,0,9.577-24.192c-5.809.118-29.069.349-33.682.394" transform="translate(-1417.376 -369.581)" fill="#3d3d3d"/>
          <path id="Trazado_877399" data-name="Trazado 877399" d="M1386.352,455.437a16.492,16.492,0,1,1-16.492-16.513,16.5,16.5,0,0,1,16.492,16.513" transform="translate(-1149.936 -372.947)" fill="#f4eae2"/>
          <path id="Trazado_877400" data-name="Trazado 877400" d="M1367.99,470.41a16.844,16.844,0,1,1,16.823-16.844,16.853,16.853,0,0,1-16.823,16.844m0-33.026a16.182,16.182,0,1,0,16.161,16.182,16.189,16.189,0,0,0-16.161-16.182" transform="translate(-1148.065 -371.076)" fill="#3d3d3d"/>
          <path id="Trazado_877401" data-name="Trazado 877401" d="M1414.928,455.437a16.492,16.492,0,1,1-16.492-16.513,16.5,16.5,0,0,1,16.492,16.513" transform="translate(-1174.217 -372.947)" fill="#f4eae2"/>
          <path id="Trazado_877402" data-name="Trazado 877402" d="M1396.566,470.41a16.844,16.844,0,1,1,16.823-16.844,16.853,16.853,0,0,1-16.823,16.844m0-33.026a16.182,16.182,0,1,0,16.16,16.182,16.189,16.189,0,0,0-16.16-16.182" transform="translate(-1172.346 -371.076)" fill="#3d3d3d"/>
          <path id="Trazado_877403" data-name="Trazado 877403" d="M1442.53,455.437a16.492,16.492,0,1,1-16.492-16.513,16.5,16.5,0,0,1,16.492,16.513" transform="translate(-1197.67 -372.947)" fill="#f4eae2"/>
          <path id="Trazado_877404" data-name="Trazado 877404" d="M1424.167,470.41a16.844,16.844,0,1,1,16.823-16.844,16.853,16.853,0,0,1-16.823,16.844m0-33.026a16.182,16.182,0,1,0,16.16,16.182,16.19,16.19,0,0,0-16.16-16.182" transform="translate(-1195.798 -371.076)" fill="#3d3d3d"/>
          <path id="Trazado_877405" data-name="Trazado 877405" d="M1458.935,475.393a12.966,12.966,0,1,1-12.966-12.982,12.974,12.974,0,0,1,12.966,12.982" transform="translate(-1217.601 -392.903)" fill="#f4eae2"/>
          <path id="Trazado_877406" data-name="Trazado 877406" d="M1444.1,486.835a13.314,13.314,0,1,1,13.3-13.314,13.32,13.32,0,0,1-13.3,13.314m0-25.965a12.652,12.652,0,1,0,12.635,12.651A12.657,12.657,0,0,0,1444.1,460.87" transform="translate(-1215.728 -391.031)" fill="#3d3d3d"/>
          <path id="Trazado_877407" data-name="Trazado 877407" d="M1501.959,503.473a2.679,2.679,0,0,0-.6-.9,3.876,3.876,0,0,0-1.012-.708,15.016,15.016,0,0,0-1.739-.693,9.024,9.024,0,0,1-1.742-.767,2.454,2.454,0,0,1-.872-.836,2.552,2.552,0,0,1-.261-1.253,2.335,2.335,0,0,1,.786-1.818,3.055,3.055,0,0,1,2.1-.7,2.785,2.785,0,0,1,2.134.838,3.144,3.144,0,0,1,.781,2.222.055.055,0,0,0,.055.055h.445a.055.055,0,0,0,.055-.055,3.746,3.746,0,0,0-.839-2.568,3.262,3.262,0,0,0-2.329-1.027v-1.493a.055.055,0,0,0-.055-.055h-.454a.054.054,0,0,0-.054.055v1.492a3.5,3.5,0,0,0-2.284.876,2.862,2.862,0,0,0-.9,2.2,3.076,3.076,0,0,0,.307,1.43,2.892,2.892,0,0,0,.946,1.031,8.536,8.536,0,0,0,1.964.9,10.848,10.848,0,0,1,1.99.866,2.655,2.655,0,0,1,.942.884,2.4,2.4,0,0,1,.277,1.214,2.3,2.3,0,0,1-.823,1.79,3.071,3.071,0,0,1-2.1.729,3.522,3.522,0,0,1-2.443-.81,2.88,2.88,0,0,1-.894-2.242.055.055,0,0,0-.055-.055h-.445a.055.055,0,0,0-.055.055,3.466,3.466,0,0,0,.974,2.6,3.992,3.992,0,0,0,2.689,1.009v1.492a.055.055,0,0,0,.055.055h.454a.055.055,0,0,0,.055-.055v-1.5a3.533,3.533,0,0,0,2.272-.908,2.868,2.868,0,0,0,.871-2.167,3.169,3.169,0,0,0-.2-1.168" transform="translate(-1270.098 -419.496)" fill="#3d3d3d"/>
          <path id="Trazado_877408" data-name="Trazado 877408" d="M1729.123,616.341h-17.079a.331.331,0,0,1-.331-.331V594.44a.331.331,0,1,1,.662,0v21.239h16.748a.331.331,0,1,1,0,.662" transform="translate(-1454.415 -504.805)" fill="#3d3d3d"/>
          <path id="Trazado_877409" data-name="Trazado 877409" d="M1844.22,719.961a4.266,4.266,0,1,0-4.256-4.278,4.267,4.267,0,0,0,4.256,4.278" transform="translate(-1563.388 -604.49)" fill="#3d3d3d"/>
          <path id="Trazado_877410" data-name="Trazado 877410" d="M643.465,407.748H542.137a.331.331,0,0,1-.331-.331V344.333a.331.331,0,1,1,.662,0v62.753h101a.331.331,0,1,1,0,.662" transform="translate(-460.364 -292.293)" fill="#3d3d3d"/>
          <rect id="Rectángulo_402240" data-name="Rectángulo 402240" width="7.938" height="42.391" transform="translate(85.986 69.088)" fill="#ffd947"/>
          <rect id="Rectángulo_402241" data-name="Rectángulo 402241" width="7.938" height="22.776" transform="translate(98.482 88.703)" fill="#ffd947"/>
          <rect id="Rectángulo_402242" data-name="Rectángulo 402242" width="7.938" height="27.698" transform="translate(110.978 83.781)" fill="#ffd947"/>
          <rect id="Rectángulo_402243" data-name="Rectángulo 402243" width="7.938" height="39.835" transform="translate(123.474 71.644)" fill="#ffd947"/>
          <rect id="Rectángulo_402244" data-name="Rectángulo 402244" width="7.538" height="33.835" transform="translate(136.17 77.644)" fill="#ffd947"/>
          <rect id="Rectángulo_402245" data-name="Rectángulo 402245" width="7.938" height="50.726" transform="translate(148.465 60.753)" fill="#ffd947"/>
          <rect id="Rectángulo_402246" data-name="Rectángulo 402246" width="7.938" height="55.948" transform="translate(160.961 55.531)" fill="#ffd947"/>
          <rect id="Rectángulo_402247" data-name="Rectángulo 402247" width="7.938" height="59.439" transform="translate(173.457 52.04)" fill="#ffd947"/>
          <path id="Trazado_877411" data-name="Trazado 877411" d="M607.02,361.689a.328.328,0,0,1-.086-.011l-12.858-3.473a.331.331,0,1,1,.173-.639l12.742,3.441,25.552-11.765,24.308-10.135L681.8,323.25l7.47-6.367a.331.331,0,1,1,.429.5l-7.487,6.382a.306.306,0,0,1-.037.027l-24.991,15.885a.341.341,0,0,1-.05.026l-24.323,10.141-25.65,11.811a.331.331,0,0,1-.138.03" transform="translate(-504.569 -269.183)" fill="#3d3d3d"/>
          <path id="Trazado_877412" data-name="Trazado 877412" d="M832.705,515.833a3.252,3.252,0,1,1-3.252-3.312,3.282,3.282,0,0,1,3.252,3.312" transform="translate(-702.011 -435.481)" fill="#f4eae2"/>
          <path id="Trazado_877413" data-name="Trazado 877413" d="M998.965,448.419a3.252,3.252,0,1,1-3.252-3.312,3.282,3.282,0,0,1,3.252,3.312" transform="translate(-843.279 -378.2)" fill="#3d3d3d"/>
          <path id="Trazado_877414" data-name="Trazado 877414" d="M1165.226,342.744a3.252,3.252,0,1,1-3.252-3.312,3.282,3.282,0,0,1,3.252,3.312" transform="translate(-984.549 -288.41)" fill="#f4eae2"/>
          <path id="Trazado_877415" data-name="Trazado 877415" d="M1166.881,339.31a.331.331,0,0,1-.273-.144,2.886,2.886,0,0,0-4.661-.174.331.331,0,1,1-.517-.413,3.547,3.547,0,0,1,5.724.213.331.331,0,0,1-.273.518" transform="translate(-986.786 -286.538)" fill="#3d3d3d"/>
          <path id="Trazado_877416" data-name="Trazado 877416" d="M666.443,590.4a3.252,3.252,0,1,1-3.252-3.312,3.282,3.282,0,0,1,3.252,3.312" transform="translate(-560.741 -498.843)" fill="#f4eae2"/>
          <path id="Trazado_877417" data-name="Trazado 877417" d="M664.4,586.521a.331.331,0,0,1-.236-.563,3.539,3.539,0,0,1,4.541-.445.331.331,0,1,1-.376.546,2.877,2.877,0,0,0-3.693.364.331.331,0,0,1-.236.1" transform="translate(-564.253 -496.971)" fill="#3d3d3d"/>
          <path id="Trazado_877418" data-name="Trazado 877418" d="M153.923,1636.148a3.964,3.964,0,1,0,4.013-3.918,3.966,3.966,0,0,0-4.013,3.918" transform="translate(-130.786 -1386.88)" fill="#f4eae2"/>
          <path id="Trazado_877419" data-name="Trazado 877419" d="M156.018,1638.624h-.054a4.3,4.3,0,0,1,.051-8.6h.054a4.3,4.3,0,0,1-.051,8.6m0-7.933a3.631,3.631,0,1,0,.046,0h-.046" transform="translate(-128.915 -1385.009)" fill="#3d3d3d"/>
          <path id="Trazado_877420" data-name="Trazado 877420" d="M76.962,1635.2a3.964,3.964,0,1,0,4.013-3.918,3.966,3.966,0,0,0-4.013,3.918" transform="translate(-65.393 -1386.076)" fill="#f4eae2"/>
          <path id="Trazado_877421" data-name="Trazado 877421" d="M79.056,1637.678H79a4.3,4.3,0,0,1,.051-8.6h.054a4.3,4.3,0,0,1-.051,8.6m0-7.934a3.631,3.631,0,1,0,.046,0h-.046" transform="translate(-63.521 -1384.205)" fill="#3d3d3d"/>
          <path id="Trazado_877422" data-name="Trazado 877422" d="M0,1634.256a3.964,3.964,0,1,0,4.013-3.918A3.966,3.966,0,0,0,0,1634.256" transform="translate(0 -1385.272)" fill="#3d3d3d"/>
          <path id="Trazado_877423" data-name="Trazado 877423" d="M240.546,1404.777h0l-16.55-.155a.331.331,0,0,1,0-.662h0l16.219.152.417-44.483a.331.331,0,0,1,.331-.328h0a.331.331,0,0,1,.328.334l-.421,44.814a.332.332,0,0,1-.331.328" transform="translate(-190.045 -1154.976)" fill="#3d3d3d"/>
          <path id="Trazado_877424" data-name="Trazado 877424" d="M1949.389,1447.434l18.077-65.922a152.263,152.263,0,0,1,52.73,2.113c1.619,3.178,3.718,7.573,5.854,12.939a161.538,161.538,0,0,1,7.986,26.84,191.824,191.824,0,0,1,3.653,24.248l-43.879-.186Z" transform="translate(-1656.365 -1172.687)" fill="#7d6eb2"/>
          <path id="Trazado_877425" data-name="Trazado 877425" d="M2152.442,481.588a7.6,7.6,0,0,1,3.056-4.955,4.991,4.991,0,0,1,5.536-.063,6.32,6.32,0,0,1,2.206,3.421,8.777,8.777,0,0,1-.436,6.358,6.245,6.245,0,0,1-5,3.5c-4.773.295-6.117-4.31-5.362-8.258" transform="translate(-1828.728 -404.247)" fill="#3d3d3d"/>
          <path id="Trazado_877426" data-name="Trazado 877426" d="M1996.7,577.847a23.3,23.3,0,0,0-.9-7.9c-.7-2.16-1.938-4.06-2.268-6.345a8.753,8.753,0,0,1,1.754-6.535,10.258,10.258,0,0,1,4.617-3.211c3.278-1.293,8.5-3.353,14.285-1.9,7.365,1.851,11.515,8.363,13.927,12.149a34.864,34.864,0,0,1,2.414,4.4,61.551,61.551,0,0,1,3.17,8.621c1.438,4.969,4.1,7.372,8.7,13.735,7.567,10.457,14.149,19.554,11.343,24.362-1.508,2.583-6.027,4.335-9.642,4.154-4.629-.231-5.013-3.315-9.184-4-6.938-1.136-17.678,11.144-27.174,7.858-3.1-1.074-4.793-3.683-6.674-6.586-1.13-1.743-3.087-5.306-3.833-17.57-.348-5.716-.531-14.928-.541-21.238" transform="translate(-1693.806 -468.569)" fill="#3d3d3d"/>
          <path id="Trazado_877427" data-name="Trazado 877427" d="M2083.957,744.7l11.063,17.878-13.839,5.7-11.037-20.834Z" transform="translate(-1758.969 -632.761)" fill="#f4eae2"/>
          <path id="Trazado_877428" data-name="Trazado 877428" d="M2174.811,766.839a.332.332,0,0,1-.282-.157l-7.193-11.615a.331.331,0,0,1,.563-.349l7.193,11.615a.331.331,0,0,1-.281.505" transform="translate(-1841.508 -641.14)" fill="#3d3d3d"/>
          <path id="Trazado_877429" data-name="Trazado 877429" d="M2089.16,799.974a.331.331,0,0,1-.29-.171l-7.283-13.155a.331.331,0,0,1,.58-.321l7.283,13.155a.331.331,0,0,1-.29.492" transform="translate(-1768.657 -667.985)" fill="#3d3d3d"/>
          <path id="Trazado_877430" data-name="Trazado 877430" d="M2041.975,657.746a2.363,2.363,0,0,1,2.629-.978,3.647,3.647,0,0,1,2.174,4.179,4.208,4.208,0,0,1-3.644,3.132,3.768,3.768,0,0,1-2.782-.569,12.539,12.539,0,0,1-5.058,3.972,8.5,8.5,0,0,1-6.34.114c-3.354-1.38-5.222-5.161-5.4-8.788s.742-6.364,1.954-9.787c3.577,1.066,5.948.626,7.509-.066,1.657-.735,3.144-2.085,3.828-1.582.475.349.245,1.356.177,1.838-.234,1.677.474,4.338,4.949,8.535" transform="translate(-1719.366 -549.969)" fill="#f4eae2"/>
          <path id="Trazado_877431" data-name="Trazado 877431" d="M2030.023,666.595a8.049,8.049,0,0,1-3.062-.585c-3.2-1.316-5.4-4.88-5.6-9.078-.185-3.825.863-6.782,1.973-9.913a.331.331,0,0,1,.406-.207,10.437,10.437,0,0,0,7.28-.052,15.492,15.492,0,0,0,1.579-.853c1.091-.645,1.952-1.154,2.579-.694.582.428.435,1.357.337,1.971-.011.066-.02.126-.028.18-.3,2.116,1.246,4.806,4.584,8a2.6,2.6,0,0,1,2.768-.8,3.972,3.972,0,0,1,2.394,4.566,4.533,4.533,0,0,1-3.934,3.39,4.248,4.248,0,0,1-2.743-.458,12.747,12.747,0,0,1-5,3.838,9.455,9.455,0,0,1-3.527.7m-6.171-19.061c-1.218,3.454-1.993,6.023-1.832,9.366.156,3.231,1.822,7.112,5.193,8.5a8.153,8.153,0,0,0,6.09-.115,12.215,12.215,0,0,0,4.921-3.87.331.331,0,0,1,.452-.066,3.445,3.445,0,0,0,2.558.51,3.857,3.857,0,0,0,3.353-2.875,3.334,3.334,0,0,0-1.954-3.792,2.017,2.017,0,0,0-2.248.843.332.332,0,0,1-.5.061c-3.686-3.457-5.385-6.426-5.05-8.823.008-.058.018-.122.029-.192.059-.371.182-1.144-.075-1.333-.274-.2-1.111.294-1.85.73a16.311,16.311,0,0,1-1.648.888,10.882,10.882,0,0,1-7.435.168" transform="translate(-1717.498 -548.077)" fill="#3d3d3d"/>
          <path id="Trazado_877432" data-name="Trazado 877432" d="M2141.477,731.651a.331.331,0,0,1-.256-.541,4.609,4.609,0,0,1,2.828-1.613.331.331,0,0,1,.1.654,3.939,3.939,0,0,0-2.417,1.378.332.332,0,0,1-.256.121" transform="translate(-1819.297 -619.839)" fill="#3d3d3d"/>
          <path id="Trazado_877433" data-name="Trazado 877433" d="M2137.329,747.267a2.565,2.565,0,1,1-2.565-2.565,2.565,2.565,0,0,1,2.565,2.565" transform="translate(-1811.696 -632.761)" fill="#3d3d3d"/>
          <path id="Trazado_877434" data-name="Trazado 877434" d="M1422.28,1211.242l1.243-.819a32.894,32.894,0,0,1,15.59-5.328l30.13-2.3.032-20.885-40.924,2.667c-2.835.185-5.634,1.325-8.327,2.23l-3.367,1.13-7.412,12.22Z" transform="translate(-1197.413 -1004.252)" fill="#f4eae2"/>
          <path id="Trazado_877435" data-name="Trazado 877435" d="M1420.409,1209.7a.33.33,0,0,1-.214-.079l-13.035-11.083a.332.332,0,0,1-.069-.424l7.412-12.22a.331.331,0,0,1,.178-.142l3.367-1.13c.459-.154.921-.315,1.386-.477a27.181,27.181,0,0,1,7.025-1.769l40.924-2.667a.324.324,0,0,1,.248.089.332.332,0,0,1,.1.242l-.032,20.885a.331.331,0,0,1-.306.33l-30.13,2.3a32.642,32.642,0,0,0-15.433,5.274l-1.243.819a.331.331,0,0,1-.182.055m-12.6-11.484,12.63,10.739,1.036-.682a33.305,33.305,0,0,1,15.747-5.382l29.825-2.275.031-20.225-40.57,2.644a26.692,26.692,0,0,0-6.85,1.734c-.468.163-.932.325-1.393.48l-3.252,1.092Z" transform="translate(-1195.542 -1002.379)" fill="#3d3d3d"/>
          <path id="Trazado_877436" data-name="Trazado 877436" d="M1713.794,807.283c-5.94-.108-14.871,6.788-18.387,11.622-4.775,6.565-8.2,14.639-10.3,20.674l-5.865,17.969-51.593,6.288,2.95,24.788c21.56-.36,37.394-.938,41.892-1.256a49.687,49.687,0,0,0,8.1-1.215c1.72-.41,3.128-.848,4.106-1.176a41.873,41.873,0,0,0,1.108,5.918c.744,2.833,1.273,4.845,2.186,6.227,2.157,3.266,8.068,3.59,19.8,4.1,8.566.375,12.849.563,12.977.563,7.012.051,16.586-.006,28.229-.456-15.2-85.1-28.836-93.935-35.2-94.051" transform="translate(-1382.985 -685.934)" fill="#f4eae2"/>
          <path id="Trazado_877437" data-name="Trazado 877437" d="M2416.165,1347.127a.331.331,0,0,1-.012-.662l.722-.027c-.9-5.019-1.817-9.909-2.731-14.542a.331.331,0,0,1,.65-.128c.937,4.752,1.88,9.774,2.8,14.929a.331.331,0,0,1-.313.389l-1.1.042h-.013" transform="translate(-2051.254 -1131.355)" fill="#3d3d3d"/>
          <path id="Trazado_877438" data-name="Trazado 877438" d="M1691.651,1019.682a.319.319,0,0,1-.065-.006,9.354,9.354,0,0,1-4.7-2.452c-1.862-1.82-2.452-4.009-3.27-7.039-.266-.984-.526-2.168-.734-3.335-.132-.742-.244-1.488-.336-2.229-1.228.4-2.487.755-3.748,1.056a50.626,50.626,0,0,1-8.155,1.223c-3.988.282-18.892.872-41.91,1.256h-.005a.331.331,0,0,1-.329-.292l-2.95-24.788a.331.331,0,0,1,.289-.368l51.384-6.262,5.8-17.769c.639-1.67,1.263-3.327,1.859-4.941.719-1.946,1.442-3.946,2.148-5.944a.331.331,0,0,1,.625.22c-.707,2-1.431,4-2.151,5.953-.6,1.617-1.222,3.276-1.856,4.933l-5.859,17.953a.331.331,0,0,1-.274.226l-51.265,6.248,2.875,24.163c22.834-.385,37.611-.97,41.575-1.25a49.991,49.991,0,0,0,8.048-1.207c1.375-.328,2.747-.721,4.078-1.167a.331.331,0,0,1,.434.276c.1.86.224,1.729.376,2.583.207,1.158.463,2.322.723,3.287.82,3.039,1.361,5.045,3.092,6.737a8.692,8.692,0,0,0,4.371,2.277.331.331,0,0,1-.064.656" transform="translate(-1381.113 -805.136)" fill="#3d3d3d"/>
          <path id="Trazado_877439" data-name="Trazado 877439" d="M1990.919,1159.055a.331.331,0,0,1-.327-.283c-.565-3.85-1.047-7.763-1.433-11.63-.522-5.229-.885-10.54-1.08-15.784a.331.331,0,0,1,.318-.343.327.327,0,0,1,.343.319c.194,5.231.556,10.527,1.077,15.742.385,3.857.866,7.76,1.429,11.6a.331.331,0,0,1-.279.376.354.354,0,0,1-.049,0" transform="translate(-1689.239 -961.005)" fill="#3d3d3d"/>
          <path id="Trazado_877440" data-name="Trazado 877440" d="M1764.227,999l25.682,1.688a2.134,2.134,0,0,0,2.191-2.7l-8.572-30.863a2.13,2.13,0,0,0-1.911-1.557l-25.682-1.688a2.134,2.134,0,0,0-2.191,2.7l8.572,30.863a2.13,2.13,0,0,0,1.912,1.557" transform="translate(-1490.06 -818.983)" fill="#3d3d3d"/>
          <path id="Trazado_877441" data-name="Trazado 877441" d="M1853.069,1005.7a1.258,1.258,0,1,0,1.773.117,1.262,1.262,0,0,0-1.773-.117" transform="translate(-1574.159 -854.258)" fill="#f4eae2"/>
          <path id="Trazado_877442" data-name="Trazado 877442" d="M1855.7,1012.932a1.838,1.838,0,0,1-1.148-2.737c.916-1.9,12.576-5.856,31.411,5.544,1.922,1.163,3.652,2.23,5.214,3.208-1.782,4.9-5.526,14.542-11.824,20.457-4.234-5.516-9.147-10.978-15-12.227-10.334-2.206-1.338-3.833-1.338-3.833s-7.787-.6-7.669-2.395c.157-2.39,6.466-2.168,9.137-1.966.725.073,1.177.107,1.177.107s-.458-.053-1.177-.107c-2.956-.3-10.514-1.231-11.111-3.111-.744-2.341,2.326-2.94,2.326-2.94" transform="translate(-1574.687 -856.447)" fill="#f4eae2"/>
          <path id="Trazado_877443" data-name="Trazado 877443" d="M1877.48,1037.882h-.027a.332.332,0,0,1-.236-.129c-4.06-5.29-8.995-10.865-14.8-12.1-4.654-.993-5.239-1.841-5.229-2.468.011-.706,1.015-1.215,2.035-1.551-2.553-.321-6.173-1.043-6.074-2.554a1.682,1.682,0,0,1,.618-1.183,6.958,6.958,0,0,1,3.706-1.119c-3.19-.572-5.891-1.417-6.284-2.653a2.2,2.2,0,0,1,.157-1.859,3.284,3.284,0,0,1,1.612-1.254,2.117,2.117,0,0,1-.719-.847,2.271,2.271,0,0,1,.144-1.961,4.877,4.877,0,0,1,2.915-1.733c2.7-.8,12.775-2.662,28.966,7.137,1.842,1.115,3.6,2.2,5.218,3.21a.331.331,0,0,1,.135.394c-1.283,3.53-5.188,14.274-11.908,20.585a.332.332,0,0,1-.227.09m-17.83-20.537c-2.105,0-4.485.207-5.453,1.047a1.029,1.029,0,0,0-.391.727c-.06.908,3.776,1.768,7.364,2.043a.331.331,0,0,1,.033.656c-1.582.287-3.35.921-3.357,1.373,0,.082.12.831,4.706,1.81,5.91,1.261,10.875,6.76,14.966,12.057,6.294-6.09,10.045-16.148,11.383-19.825-1.554-.972-3.229-2-4.982-3.063-15.958-9.659-25.8-7.853-28.434-7.069a4.468,4.468,0,0,0-2.507,1.385,1.649,1.649,0,0,0-.137,1.4,1.9,1.9,0,0,0,1.079.873.331.331,0,0,1-.027.643,3.367,3.367,0,0,0-1.98,1.2,1.549,1.549,0,0,0-.094,1.319c.364,1.145,4.513,2.25,10.829,2.882.709.054,1.163.106,1.182.108a.331.331,0,0,1,.291.36.336.336,0,0,1-.355.3s-.456-.035-1.185-.108c-.712-.054-1.78-.115-2.929-.115" transform="translate(-1572.811 -854.595)" fill="#3d3d3d"/>
          <path id="Trazado_877444" data-name="Trazado 877444" d="M1882.676,1040.883a.328.328,0,0,1-.082-.01,41.971,41.971,0,0,0-10.7-1.03.325.325,0,0,1-.338-.324.331.331,0,0,1,.324-.338,42.627,42.627,0,0,1,10.88,1.05.331.331,0,0,1-.081.652" transform="translate(-1590.229 -882.966)" fill="#3d3d3d"/>
          <path id="Trazado_877445" data-name="Trazado 877445" d="M2107.469,833.119a.331.331,0,0,1-.21-.587,40.4,40.4,0,0,1,3.476-2.57.331.331,0,0,1,.341.568,40.631,40.631,0,0,0-3.4,2.514.33.33,0,0,1-.21.075" transform="translate(-1790.402 -705.165)" fill="#3d3d3d"/>
          <path id="Trazado_877446" data-name="Trazado 877446" d="M2050.171,859.7l-9.466-48.041a16.45,16.45,0,0,1,2.934-1.673,16.631,16.631,0,0,1,5.754-1.376,17.325,17.325,0,0,1,4.634.545c11.331,3.1,16.888,21.121,18.811,27.814,1.321,4.6,9.812,27.84,10.968,43.634.526,7.192-1.708,12.232-4.649,14.335-15.2,10.874-38.8-6.371-45.88-13.479-3.072-3.084-6.286-7.7-9.532-11.93,6.3-5.914,10.212-15.255,11.994-20.156l14.432,10.328" transform="translate(-1719.544 -687.055)" fill="#f4eae2"/>
          <path id="Trazado_877447" data-name="Trazado 877447" d="M2171.143,1057.322a.332.332,0,0,1-.318-.24c-1.143-4.012-2.344-8.067-3.57-12.051q-.484-1.575-.974-3.139a.331.331,0,0,1,.632-.2q.491,1.565.976,3.142c1.226,3.988,2.429,8.047,3.574,12.064a.331.331,0,0,1-.228.409.327.327,0,0,1-.091.013" transform="translate(-1840.641 -884.914)" fill="#3d3d3d"/>
          <path id="Trazado_877448" data-name="Trazado 877448" d="M2065.794,1057.2a36.625,36.625,0,0,1-14.628-3.512,72.334,72.334,0,0,1-19.994-13.552,86.636,86.636,0,0,1-7.209-8.848c-.769-1.027-1.565-2.09-2.351-3.113a.33.33,0,0,1,.036-.443c5.809-5.455,9.683-13.9,11.909-20.028a.331.331,0,0,1,.487-.168c12.953,8.118,14.476,10.338,14.534,10.429a.331.331,0,1,1-.556.359c-.059-.085-1.625-2.243-13.984-10.01-2.244,6.081-6.057,14.26-11.72,19.693.729.953,1.463,1.933,2.174,2.883a86.152,86.152,0,0,0,7.148,8.778,71.581,71.581,0,0,0,19.793,13.414c7.246,3.2,17.579,5.81,25.659.03,4.248-3.039,5.484-8.733,4.007-18.463-1.407-9.273-5.168-21.7-9.931-37.424l-.52-1.717a.331.331,0,0,1,.634-.192l.52,1.717c4.77,15.753,8.537,28.2,9.952,37.517,1.519,10.008.2,15.9-4.277,19.1a19.648,19.648,0,0,1-11.685,3.549" transform="translate(-1717.673 -845.508)" fill="#3d3d3d"/>
          <path id="Trazado_877449" data-name="Trazado 877449" d="M2163.952,835.428a.332.332,0,0,1-.312-.219c-.369-1.025-.74-2.344-1.168-3.872-2.171-7.724-5.8-20.652-17.416-23.734a16.429,16.429,0,0,0-4.542-.534,9.114,9.114,0,0,0-6.707,2.884,8.145,8.145,0,0,0-1.057,1.7,14.433,14.433,0,0,0-.665,9.176.331.331,0,0,1-.647.143,15.085,15.085,0,0,1,.714-9.6,8.809,8.809,0,0,1,1.149-1.84,9.774,9.774,0,0,1,7.2-3.12,17.089,17.089,0,0,1,4.725.556c11.976,3.179,15.674,16.334,17.883,24.195.426,1.516.794,2.825,1.155,3.827a.332.332,0,0,1-.312.443" transform="translate(-1810.659 -685.189)" fill="#3d3d3d"/>
          <path id="Trazado_877450" data-name="Trazado 877450" d="M2207.538,1155.062a.328.328,0,0,1-.209-.075c-.365-.3-.886-.738-1.536-1.285-1.959-1.65-4.92-4.145-8.322-6.8a.331.331,0,1,1,.407-.522c3.411,2.659,6.378,5.158,8.341,6.812.647.545,1.166.982,1.529,1.28a.331.331,0,0,1-.21.587" transform="translate(-1867.048 -974.004)" fill="#3d3d3d"/>
          <path id="Trazado_877451" data-name="Trazado 877451" d="M1344.434,731.2c-6.969-1.785-10.655-5.094-12.6-7.966.737-2.352,1.474-4.7,2.281-7.019,3.114-8.932,7.849-18,16.152-22.519a8.259,8.259,0,0,1,4.806-1.26,3.7,3.7,0,0,1,3.373,3.188c.147,3.77-6.4,4.476-7.105,8.182a4.686,4.686,0,0,1,7.217,2.309,4.129,4.129,0,0,1,3.259,5.138,4.693,4.693,0,0,1-3.087,8.2q-.387,5.275-1.193,10.507a19.2,19.2,0,0,1-13.1,1.242" transform="translate(-1131.638 -588.322)" fill="#f4eae2"/>
          <path id="Trazado_877452" data-name="Trazado 877452" d="M1347.432,730.287a19.888,19.888,0,0,1-4.951-.634c-7.306-1.872-10.989-5.438-12.792-8.1a.332.332,0,0,1-.042-.285c.729-2.328,1.477-4.715,2.284-7.029,4-11.487,9.338-18.912,16.306-22.7a8.7,8.7,0,0,1,5-1.3,4.026,4.026,0,0,1,3.664,3.5c.084,2.156-1.792,3.373-3.606,4.551a8.982,8.982,0,0,0-3.194,2.833,4.906,4.906,0,0,1,3.657-.188,4.731,4.731,0,0,1,3.186,3.014,4.49,4.49,0,0,1,3.372,5.329,5.024,5.024,0,0,1-3.153,8.62c-.258,3.4-.652,6.844-1.174,10.238a.332.332,0,0,1-.186.249,19.622,19.622,0,0,1-8.374,1.9m-4.787-1.276a18.847,18.847,0,0,0,12.719-1.147c.521-3.419.912-6.885,1.164-10.306a.331.331,0,0,1,.328-.307,4.362,4.362,0,0,0,2.868-7.62.331.331,0,0,1-.095-.349,3.8,3.8,0,0,0-2.985-4.707.331.331,0,0,1-.28-.248,4.357,4.357,0,0,0-6.681-2.138.331.331,0,0,1-.541-.314c.365-1.911,2.109-3.043,3.795-4.137,1.736-1.126,3.375-2.19,3.305-3.97a3.4,3.4,0,0,0-3.081-2.872,8.092,8.092,0,0,0-4.609,1.222c-6.817,3.707-12.049,11.013-16,22.337-.788,2.26-1.52,4.594-2.229,6.856,1.771,2.553,5.333,5.91,12.318,7.7" transform="translate(-1129.767 -586.453)" fill="#3d3d3d"/>
          <path id="Trazado_877453" data-name="Trazado 877453" d="M1391.577,799.925a2.27,2.27,0,0,1-.885-.176.331.331,0,1,1,.257-.61,2.4,2.4,0,0,0,2.649-.979,8.269,8.269,0,0,0,1.155-2.613c.049-.156.1-.312.147-.466a5.946,5.946,0,0,1,1.883-3.092,6.548,6.548,0,0,1,1.8-.838c.291-.1.591-.2.87-.324.741-.319,1.54-.945,1.565-1.747.029-.943-.985-1.637-1.592-1.967a10.468,10.468,0,0,0-13.365,2.913.331.331,0,0,1-.529-.4,11.131,11.131,0,0,1,14.211-3.1c1.279.694,1.967,1.607,1.938,2.569a2.844,2.844,0,0,1-1.965,2.335c-.3.13-.614.238-.916.342a5.957,5.957,0,0,0-1.627.746,5.371,5.371,0,0,0-1.646,2.762c-.049.153-.1.306-.146.461a8.757,8.757,0,0,1-1.263,2.82,3.4,3.4,0,0,1-2.546,1.362" transform="translate(-1177.211 -667.162)" fill="#3d3d3d"/>
          <path id="Trazado_877454" data-name="Trazado 877454" d="M1456.982,794.786a2.887,2.887,0,0,1-2.319-1.038.331.331,0,0,1,.52-.41,2.593,2.593,0,0,0,2.983.547,5.607,5.607,0,0,0,2.446-2.411,13.157,13.157,0,0,0,1.859-5.888.331.331,0,0,1,.661.045,13.83,13.83,0,0,1-1.954,6.185,6.227,6.227,0,0,1-2.751,2.677,3.693,3.693,0,0,1-1.446.294" transform="translate(-1235.944 -667.237)" fill="#3d3d3d"/>
          <path id="Trazado_877455" data-name="Trazado 877455" d="M1471.833,824.158a3.618,3.618,0,0,1-3.457-2.315.331.331,0,1,1,.631-.2,2.979,2.979,0,0,0,3.157,1.835,5.045,5.045,0,0,0,3.377-2.172,14.931,14.931,0,0,0,1.847-3.884.331.331,0,1,1,.623.225,15.933,15.933,0,0,1-1.936,4.051,5.7,5.7,0,0,1-3.84,2.439,3.726,3.726,0,0,1-.4.022" transform="translate(-1247.642 -694.364)" fill="#3d3d3d"/>
          <path id="Trazado_877456" data-name="Trazado 877456" d="M1492.766,862.734a3.235,3.235,0,0,1-2.68-1.432.331.331,0,1,1,.557-.358,2.539,2.539,0,0,0,2.65,1.067.331.331,0,0,1,.153.644,2.938,2.938,0,0,1-.68.079" transform="translate(-1266.058 -731.401)" fill="#3d3d3d"/>
          <path id="Trazado_877457" data-name="Trazado 877457" d="M1004.762,877.1c.84-.484,4.254,2.051,5.092,2.517l10.914,6.069,24.771,13.775c3.78-5.9,5.889-12.621,7.994-19.341,1.945,2.872,5.631,6.18,12.6,7.966a19.2,19.2,0,0,0,13.1-1.242,134.3,134.3,0,0,1-8.655,30.979c-1.924,4.643-4.257,9.362-8.275,12.376a19.585,19.585,0,0,1-14.31,3.266,40.882,40.882,0,0,1-15.064-5.178c-10.773-6.66-20.145-11.68-25.264-23.245-2.56-5.783-2.272-17.311-3-23.6-.1-.86-.834-3.809.091-4.343" transform="translate(-853.338 -745.205)" fill="#f4eae2"/>
          <path id="Trazado_877458" data-name="Trazado 877458" d="M1049.2,932.136a23.187,23.187,0,0,1-3.108-.211A41.321,41.321,0,0,1,1030.9,926.7q-1.272-.786-2.515-1.546c-9.723-5.955-18.119-11.1-22.877-21.847-1.839-4.154-2.219-11.062-2.554-17.156-.133-2.426-.259-4.716-.469-6.538-.017-.151-.055-.369-.1-.627-.305-1.765-.529-3.531.355-4.041.7-.4,2.14.381,4.558,1.968.368.241.685.45.861.547l35.412,19.692c3.658-5.809,5.758-12.513,7.791-19a.331.331,0,0,1,.59-.087c1.739,2.568,5.3,6.011,12.408,7.831a18.852,18.852,0,0,0,12.878-1.221.331.331,0,0,1,.469.35,134.582,134.582,0,0,1-8.677,31.055c-1.945,4.693-4.306,9.457-8.382,12.514a19.081,19.081,0,0,1-11.445,3.54m-46.131-56.616c-.558.322-.176,2.525-.033,3.354.048.273.087.5.105.664.212,1.841.339,4.142.473,6.577.332,6.038.708,12.882,2.5,16.925,4.674,10.56,12.989,15.653,22.618,21.55q1.244.762,2.517,1.547a40.618,40.618,0,0,0,14.934,5.132,19.255,19.255,0,0,0,14.067-3.2c3.948-2.961,6.259-7.632,8.168-12.238a133.929,133.929,0,0,0,8.54-30.3,19.483,19.483,0,0,1-12.762,1.008c-6.814-1.746-10.476-4.966-12.4-7.551-2.015,6.427-4.145,13.031-7.832,18.785a.331.331,0,0,1-.44.111l-35.685-19.844c-.2-.109-.508-.314-.9-.572-.838-.55-3.386-2.222-3.864-1.948" transform="translate(-851.48 -743.339)" fill="#3d3d3d"/>
          <path id="Trazado_877459" data-name="Trazado 877459" d="M1244.728,1037.642a.331.331,0,0,1-.229-.57,28.848,28.848,0,0,0,3.626-4.223.331.331,0,1,1,.542.381,29.548,29.548,0,0,1-3.709,4.32.33.33,0,0,1-.229.092" transform="translate(-1057.344 -877.476)" fill="#3d3d3d"/>
          <path id="Trazado_877460" data-name="Trazado 877460" d="M813.329,835.1a4.043,4.043,0,0,1,2.881,2.866c5.549,20.611,16.272,54.012,21.02,74.86.826,3.627,1.392,7.463.339,11.031a16.963,16.963,0,0,1-5.836,8.131,50.494,50.494,0,0,1-8.667,5.263c-4.162-9.427-5.36-34.354-8.692-44.106-3.228-9.449-6.464-18.927-8.5-28.7-1.428-6.847-24.054-6.238-23.856-13.24.056-1.988-7.053-12.7-5.726-14.326,3.177-3.894,34.306-2.492,37.039-1.777" transform="translate(-659.461 -708.856)" fill="#f4eae2"/>
          <path id="Trazado_877461" data-name="Trazado 877461" d="M821.223,935.763a.331.331,0,0,1-.3-.2c-2.292-5.192-3.681-14.965-5.024-24.416-1.12-7.879-2.177-15.322-3.678-19.716-3.18-9.307-6.468-18.932-8.513-28.742-.657-3.149-6.38-4.7-11.915-6.205-6.2-1.683-12.056-3.273-11.948-7.112.021-.738-1.248-3.179-2.476-5.539-2.471-4.751-4.027-7.943-3.175-8.986,3.355-4.113,34.887-2.54,37.379-1.888a4.388,4.388,0,0,1,3.117,3.1c2.115,7.855,4.965,17.515,7.983,27.742,4.965,16.824,10.1,34.222,13.039,47.131.784,3.442,1.437,7.463.334,11.2a17.241,17.241,0,0,1-5.945,8.3,50.846,50.846,0,0,1-8.723,5.3.333.333,0,0,1-.153.037M794.2,832.768l-1.07,0c-10.467.058-17.185.967-18.431,2.5-.639.784,1.7,5.284,3.25,8.262,1.6,3.071,2.575,5,2.55,5.863-.094,3.318,5.779,4.912,11.459,6.454,5.728,1.555,11.65,3.163,12.389,6.709,2.038,9.771,5.319,19.375,8.492,28.663,1.521,4.453,2.583,11.926,3.707,19.837,1.308,9.211,2.661,18.73,4.835,23.918a48.617,48.617,0,0,0,8.3-5.063,16.586,16.586,0,0,0,5.726-7.967c1.059-3.589.42-7.506-.344-10.864-2.935-12.889-8.067-30.276-13.029-47.091-3.02-10.231-5.871-19.894-7.988-27.757A3.724,3.724,0,0,0,811.4,833.6c-1.311-.343-9.127-.832-17.2-.832" transform="translate(-657.618 -707.035)" fill="#3d3d3d"/>
          <path id="Trazado_877462" data-name="Trazado 877462" d="M540.705,1387.969c12.946-34.618,24.956-65.07,31.167-76.124l53.515-1.621a612.439,612.439,0,0,1,4.4,77.805Z" transform="translate(-459.428 -1113.277)" fill="#3d3d3d"/>
          <path id="Trazado_877463" data-name="Trazado 877463" d="M877.753,1546.541a.331.331,0,0,1-.315-.434l14.263-43.479a8.043,8.043,0,0,1,5.8-5.3l3.988-.922a.331.331,0,1,1,.149.645l-3.988.922a7.378,7.378,0,0,0-5.318,4.864l-14.263,43.479a.331.331,0,0,1-.315.228" transform="translate(-745.531 -1271.463)" fill="#f4eae2"/>
          <path id="Trazado_877464" data-name="Trazado 877464" d="M538.833,1386.429a.331.331,0,0,1-.31-.447c15.351-41.033,25.845-66.66,31.188-76.17a.331.331,0,0,1,.279-.169l53.515-1.621h.01a.331.331,0,0,1,.328.286,615.426,615.426,0,0,1,4.389,77.684.331.331,0,0,1-.331.329h0a.331.331,0,0,1-.329-.333,619.177,619.177,0,0,0-4.343-77.3L570.2,1310.3c-5.355,9.608-15.8,35.146-31.054,75.915a.331.331,0,0,1-.31.215" transform="translate(-457.557 -1111.405)" fill="#3d3d3d"/>
          <path id="Trazado_877465" data-name="Trazado 877465" d="M780.944,890.944h45.1a3.481,3.481,0,0,0,3.353-4.41c-1.408-5.1-3.984-14.412-7.442-26.862-5.36-19.294-8.821-32.881-10.693-37.392s-2.2-6.95-9.833-7.29c-7.037-.314-15.489-1.393-16.321,6.567a5.564,5.564,0,0,1-2.248,3.862l-5,3.708Z" transform="translate(-660.938 -692.289)" fill="#7d6eb2"/>
          <path id="Trazado_877466" data-name="Trazado 877466" d="M866.44,907.924a.331.331,0,0,1-.244-.107l-7.054-7.7a.331.331,0,0,1,.488-.448l6.761,7.376,5.587-8.86a.331.331,0,0,1,.468-.1l7.381,5.114,1.112-4.014a.331.331,0,0,1,.638.177l-1.237,4.463a.331.331,0,0,1-.507.184l-7.48-5.183-5.633,8.934a.331.331,0,0,1-.25.153h-.03" transform="translate(-729.925 -763.046)" fill="#f4eae2"/>
          <path id="Trazado_877467" data-name="Trazado 877467" d="M1193.23,1182.772h23.31a47.759,47.759,0,0,1,20.217,4.49l-5.792,2.142,11.16,19.38c1.874,3.255-1.862,6.994-4.638,4.611q-.095-.081-.189-.172c.686,3.357-3.882,4.221-6.2,1.29.628,3.074-3.54,4.61-6.331,1.319,1.017,3.531-3.95,4.923-6.221,1.3-2.4-3.828-9.772-16.448-9.772-16.448h-15.965Z" transform="translate(-1013.513 -1004.983)" fill="#f4eae2"/>
          <path id="Trazado_877468" data-name="Trazado 877468" d="M1220.217,1217.72a4.535,4.535,0,0,1-3.82-2.287c-2.225-3.552-8.807-14.8-9.682-16.292h-15.775a.331.331,0,0,1-.331-.339l.417-17.909a.331.331,0,0,1,.331-.323h23.31a48.407,48.407,0,0,1,20.357,4.522.331.331,0,0,1-.025.61l-5.424,2.006,10.964,19.04a3.979,3.979,0,0,1-.892,5.06,3.152,3.152,0,0,1-3.823.284,2.568,2.568,0,0,1-1.545,2.342,4.46,4.46,0,0,1-4.667-.906,2.749,2.749,0,0,1-1.595,2.262,4.3,4.3,0,0,1-4.656-.891,2.722,2.722,0,0,1-1.672,2.516,3.624,3.624,0,0,1-1.473.3m-28.937-19.241h15.626a.331.331,0,0,1,.286.164c.074.126,7.4,12.658,9.767,16.439a3.629,3.629,0,0,0,4.461,1.729,2.141,2.141,0,0,0,1.161-2.758.331.331,0,0,1,.571-.306c1.523,1.8,3.4,2.022,4.576,1.448a2.138,2.138,0,0,0,1.178-2.486.331.331,0,0,1,.584-.271,3.9,3.9,0,0,0,4.51,1.4,2.016,2.016,0,0,0,1.1-2.415.331.331,0,0,1,.554-.305c.058.056.116.109.175.159a2.512,2.512,0,0,0,3.4.025,3.28,3.28,0,0,0,.741-4.219l-11.16-19.38a.331.331,0,0,1,.172-.476l5.039-1.863a47.764,47.764,0,0,0-19.349-4.127h-22.987Z" transform="translate(-1011.642 -1003.112)" fill="#3d3d3d"/>
          <path id="Trazado_877469" data-name="Trazado 877469" d="M1293.326,1286.671l-6.405,2.769a2.55,2.55,0,0,1-2.019-4.683l6.405-2.768a2.55,2.55,0,0,1,2.019,4.683" transform="translate(-1090.454 -1089.107)" fill="#f4eae2"/>
          <path id="Trazado_877470" data-name="Trazado 877470" d="M1284.045,1288.1a2.883,2.883,0,0,1-1.141-5.528l6.406-2.769a2.877,2.877,0,0,1,3.783,1.5,2.885,2.885,0,0,1-1.5,3.787l-6.405,2.769a2.866,2.866,0,0,1-1.14.238m6.4-7.872a2.208,2.208,0,0,0-.877.183l-6.406,2.769a2.22,2.22,0,0,0,.062,4.1,2.2,2.2,0,0,0,1.695-.026l6.406-2.769a2.22,2.22,0,0,0-.879-4.258m1.01,4.562h0Z" transform="translate(-1088.587 -1087.23)" fill="#3d3d3d"/>
          <path id="Trazado_877471" data-name="Trazado 877471" d="M1310.285,1315.54l-6.405,2.769a2.55,2.55,0,0,1-2.019-4.683l6.405-2.769a2.55,2.55,0,0,1,2.019,4.683" transform="translate(-1104.864 -1113.636)" fill="#f4eae2"/>
          <path id="Trazado_877472" data-name="Trazado 877472" d="M1301,1316.973a2.883,2.883,0,0,1-1.141-5.529l6.406-2.768a2.876,2.876,0,0,1,3.783,1.5,2.886,2.886,0,0,1-1.5,3.787l-6.406,2.768a2.866,2.866,0,0,1-1.14.238m6.4-7.872a2.209,2.209,0,0,0-.877.183l-6.405,2.769a2.22,2.22,0,0,0,.062,4.1,2.2,2.2,0,0,0,1.695-.025l6.405-2.769a2.22,2.22,0,0,0-.879-4.258m1.01,4.562h0Z" transform="translate(-1102.997 -1111.759)" fill="#3d3d3d"/>
          <path id="Trazado_877473" data-name="Trazado 877473" d="M1329.716,1344.409l-6.405,2.769a2.55,2.55,0,0,1-2.019-4.683l6.405-2.769a2.55,2.55,0,0,1,2.019,4.683" transform="translate(-1121.374 -1138.166)" fill="#f4eae2"/>
          <path id="Trazado_877474" data-name="Trazado 877474" d="M1320.436,1345.842a2.883,2.883,0,0,1-1.141-5.528l6.405-2.769a2.877,2.877,0,0,1,3.783,1.5,2.885,2.885,0,0,1-1.5,3.787l-6.406,2.769a2.869,2.869,0,0,1-1.14.237m6.4-7.872a2.209,2.209,0,0,0-.878.183l-6.406,2.769a2.22,2.22,0,0,0,.062,4.1,2.2,2.2,0,0,0,1.694-.026l6.405-2.768a2.221,2.221,0,0,0-.878-4.258" transform="translate(-1119.507 -1136.289)" fill="#3d3d3d"/>
          <path id="Trazado_877475" data-name="Trazado 877475" d="M1355.6,1372.873l-5.281,2.283a2.1,2.1,0,0,1-1.664-3.861l5.281-2.283a2.1,2.1,0,0,1,1.665,3.861" transform="translate(-1144.85 -1163.082)" fill="#f4eae2"/>
          <path id="Trazado_877476" data-name="Trazado 877476" d="M1347.615,1373.785a2.435,2.435,0,0,1-.964-4.669l5.281-2.282a2.433,2.433,0,0,1,1.927,4.469l-5.281,2.283a2.424,2.424,0,0,1-.963.2m5.28-6.49a1.764,1.764,0,0,0-.7.146l-5.281,2.283a1.772,1.772,0,0,0,.049,3.273,1.757,1.757,0,0,0,1.353-.02l5.28-2.283a1.772,1.772,0,0,0-.7-3.4" transform="translate(-1142.982 -1161.206)" fill="#3d3d3d"/>
          <path id="Trazado_877477" data-name="Trazado 877477" d="M1393.174,1217.966l-13.705,4.574s-.3,4.994,4.6,3.9c6.9-1.536,8.3,1.258,11.948,2.239,5.942,1.6,9.073-1.663,9.073-1.663Z" transform="translate(-1172.11 -1034.886)" fill="#f4eae2"/>
          <path id="Trazado_877478" data-name="Trazado 877478" d="M1397.349,1227.587a12.63,12.63,0,0,1-3.292-.458,14.651,14.651,0,0,1-2.885-1.2c-2.13-1.078-4.143-2.1-8.905-1.036a4.056,4.056,0,0,1-3.665-.6,4.841,4.841,0,0,1-1.337-3.643.33.33,0,0,1,.226-.294l13.706-4.574a.331.331,0,0,1,.209.628l-13.482,4.5a4.022,4.022,0,0,0,1.111,2.882,3.446,3.446,0,0,0,3.089.458c4.993-1.111,7.207.009,9.348,1.092a13.939,13.939,0,0,0,2.759,1.151c5.688,1.531,8.719-1.542,8.748-1.573a.331.331,0,0,1,.478.458,8.684,8.684,0,0,1-6.106,2.211" transform="translate(-1170.235 -1033.014)" fill="#3d3d3d"/>
          <path id="Trazado_877479" data-name="Trazado 877479" d="M583.2,863.843c2.349-2.352,4.658-3.491,5.429-6.726.519-2.175.627-5.306,2.851-5.5,0,0,4.478-.5,7.558,4.668,1.545,2.59,2,5.671,2.406,8.66,2.643,19.438,4.679,49.193,1.111,68.482-.512,2.768-2.572,14.42-8.752,17.38-3.949,1.892-8.925,1.487-13.3,1.487-4.476,0-19.833,1.6-20.992-1.482-.227-.6-.956-1-.883-2.511,2.029-9.126,9.29-38.33,14.486-56.2,3.674-12.635,6.432-24.594,10.087-28.254" transform="translate(-474.652 -723.592)" fill="#f4eae2"/>
          <path id="Trazado_877480" data-name="Trazado 877480" d="M562.333,951h-1.22a4.715,4.715,0,0,1-4.6-5.721c3.513-16.152,18.906-74.728,23.728-82.659a14.474,14.474,0,0,1,2.909-3.147c1.465-1.3,2.849-2.528,3.274-4.312.092-.387.17-.8.253-1.238.385-2.031.82-4.334,2.891-4.517a8.1,8.1,0,0,1,6.507,2.96.331.331,0,0,1-.493.442,7.539,7.539,0,0,0-5.948-2.743c-1.579.14-1.948,2.093-2.306,3.982-.084.446-.164.867-.26,1.269-.474,1.987-2,3.343-3.478,4.654a13.984,13.984,0,0,0-2.783,3c-4.79,7.88-20.139,66.33-23.646,82.456a4.052,4.052,0,0,0,3.954,4.918c7.858,0,21.491-.023,24.562-.235,5.153-.356,9.174-2.51,10.756-5.763,1.062-2.183,6.655-20,6.581-22.568a.331.331,0,0,1,.662-.019c.079,2.726-5.54,20.6-6.648,22.877-2.432,5-8.717,5.955-11.306,6.134-2.937.2-15.406.237-23.388.237" transform="translate(-472.767 -721.71)" fill="#3d3d3d"/>
          <path id="Trazado_877481" data-name="Trazado 877481" d="M706.677,935.442l23.5,34.255h41.388v27.291l-45.636,2.64c-.131.008-.262.012-.394.011a27.215,27.215,0,0,1-22.143-11.68l-13.8-19.834a23.1,23.1,0,0,1,9.781-34.387l.561-.243a5.518,5.518,0,0,1,6.74,1.946" transform="translate(-582.417 -792.792)" fill="#f4eae2"/>
          <path id="Trazado_877482" data-name="Trazado 877482" d="M728.09,1183.445a.329.329,0,0,1-.148-.035,27.649,27.649,0,0,1-10.292-8.911l-15.037-21.618a.331.331,0,1,1,.544-.378l15.037,21.618a26.983,26.983,0,0,0,10.044,8.7.331.331,0,0,1-.148.627" transform="translate(-596.948 -979.143)" fill="#3d3d3d"/>
          <path id="Trazado_877483" data-name="Trazado 877483" d="M825.282,1205.294a27.568,27.568,0,0,1-22.63-11.822.331.331,0,0,1,.544-.378,26.9,26.9,0,0,0,22.068,11.538l45.5-2.633v-26.647H846.2a.331.331,0,1,1,0-.662H871.1a.331.331,0,0,1,.331.331v27.291a.331.331,0,0,1-.312.33l-45.833,2.651Z" transform="translate(-681.951 -998.116)" fill="#3d3d3d"/>
          <path id="Trazado_877484" data-name="Trazado 877484" d="M818.254,575.206c.545-1.872,5.524-7.671,7.061-8.868a4.423,4.423,0,0,1,5.394-.232,13.268,13.268,0,0,1,12.2-1.6,10.818,10.818,0,0,1,6.81,9.938c-.117,4.276-8.135.846-7.843,8.716-.678,3.711-4.155,6.519-7.878,7.1-3.363.522-9.262-.9-11.218-4.261-2.16-3.717-5.889-6.112-4.527-10.788" transform="translate(-695.01 -478.943)" fill="#3d3d3d"/>
          <path id="Trazado_877485" data-name="Trazado 877485" d="M876.765,744.62l-2.785,17.646s-12.8-7.977-12.9-8.1,2.181-15.14,2.181-15.14,2.961-4.963,13.5,5.6" transform="translate(-731.648 -626.946)" fill="#f4eae2"/>
          <path id="Trazado_877486" data-name="Trazado 877486" d="M868.748,645.948s4.779,12.613,0,16.674c-2.836,2.409-11.8,3.673-17.526-5a4.822,4.822,0,0,1-4.873-3.869c-.905-4.063,1.121-5.594,4.4-2.735,0,0,3.967,2.023,2.663-3.61-.568-2.453,1.524-4.689,6.1-6.013,8.285-2.395,7.516-.3,9.233,4.553" transform="translate(-718.944 -544.139)" fill="#f4eae2"/>
          <path id="Trazado_877487" data-name="Trazado 877487" d="M864.839,745.691a13.019,13.019,0,0,1-1.831-.13c-2.776-.4-6.745-1.872-9.961-6.649a5.14,5.14,0,0,1-4.522-2.718.331.331,0,0,1,.59-.3,4.587,4.587,0,0,0,4.092,2.355.335.335,0,0,1,.292.148c3.1,4.69,6.932,6.128,9.6,6.508a9.915,9.915,0,0,0,7.433-1.578c1.555-1.322,2.213-3.774,1.954-7.291a.331.331,0,1,1,.66-.049c.276,3.739-.46,6.378-2.185,7.844a9.838,9.838,0,0,1-6.124,1.86" transform="translate(-720.948 -625.096)" fill="#3d3d3d"/>
          <path id="Trazado_877488" data-name="Trazado 877488" d="M862.282,726.2a.331.331,0,0,1-.288-.167,3.074,3.074,0,0,0-2.607-1.507h0a.331.331,0,0,1,0-.662h.014a3.708,3.708,0,0,1,3.17,1.84.332.332,0,0,1-.287.5" transform="translate(-729.925 -615.055)" fill="#3d3d3d"/>
          <path id="Trazado_877489" data-name="Trazado 877489" d="M863.8,761.763l-.655-.1s.789-5.369,1.344-9.054a.331.331,0,0,1,.655.1c-.555,3.684-1.344,9.052-1.344,9.052" transform="translate(-733.398 -639.243)" fill="#3d3d3d"/>
          <path id="Trazado_877490" data-name="Trazado 877490" d="M958.231,801a.34.34,0,0,1-.052,0,.331.331,0,0,1-.275-.379l.39-2.47a.331.331,0,1,1,.654.1l-.39,2.471a.331.331,0,0,1-.327.279" transform="translate(-813.912 -677.933)" fill="#3d3d3d"/>
          <path id="Trazado_877491" data-name="Trazado 877491" d="M293.566,31.835A29.724,29.724,0,1,1,263.842,2.2a29.678,29.678,0,0,1,29.724,29.633" transform="translate(-198.926 -1.871)" fill="#f4eae2"/>
          <path id="Trazado_877492" data-name="Trazado 877492" d="M261.97,59.927a29.964,29.964,0,1,1,30.055-29.964A30.043,30.043,0,0,1,261.97,59.927m0-59.265a29.3,29.3,0,1,0,29.393,29.3A29.38,29.38,0,0,0,261.97.662" transform="translate(-197.054)" fill="#3d3d3d"/>
          <path id="Trazado_877493" data-name="Trazado 877493" d="M300.9,91.876a23.133,23.133,0,1,1,16.382-6.765A23.052,23.052,0,0,1,300.9,91.876" transform="translate(-235.984 -38.815)" fill="#ffd947"/>
          <path id="Trazado_877494" data-name="Trazado 877494" d="M342.777,126.239a15.735,15.735,0,1,1,11.143-4.6,15.681,15.681,0,0,1-11.143,4.6" transform="translate(-277.862 -80.564)" fill="#f4eae2"/>
          <path id="Trazado_877495" data-name="Trazado 877495" d="M382.9,159.164a8.648,8.648,0,1,1,6.124-2.529,8.617,8.617,0,0,1-6.124,2.529" transform="translate(-317.986 -120.566)" fill="#ffd947"/>
          <path id="Trazado_877496" data-name="Trazado 877496" d="M418.423,188.311a2.374,2.374,0,1,1,1.681-.694,2.365,2.365,0,0,1-1.681.694" transform="translate(-353.508 -155.978)" fill="#f4eae2"/>
          <path id="Trazado_877497" data-name="Trazado 877497" d="M378.431,168.195l7.825,4.181-7.118-5.3Z" transform="translate(-321.547 -141.966)" fill="#3d3d3d"/>
          <path id="Trazado_877498" data-name="Trazado 877498" d="M201.6,10.78l6.775,4.3.091-4.755a6.136,6.136,0,0,0-2.849-5.3l-3.86-2.448Z" transform="translate(-171.298 -2.187)" fill="#f4eae2"/>
          <path id="Trazado_877499" data-name="Trazado 877499" d="M206.5,13.536a.33.33,0,0,1-.177-.051l-6.775-4.3A.331.331,0,0,1,199.4,8.9L199.556.7a.331.331,0,0,1,.508-.273l3.859,2.447a6.5,6.5,0,0,1,3,5.585l-.091,4.755a.331.331,0,0,1-.331.325m-6.44-4.807,6.121,3.881.08-4.166a5.839,5.839,0,0,0-2.7-5.014L200.207,1.3Z" transform="translate(-169.426 -0.316)" fill="#3d3d3d"/>
          <path id="Trazado_877500" data-name="Trazado 877500" d="M160.01,57.163l6.775,4.3-4.264,2.109a6.14,6.14,0,0,1-6.01-.318l-3.86-2.447Z" transform="translate(-129.706 -48.57)" fill="#f4eae2"/>
          <path id="Trazado_877501" data-name="Trazado 877501" d="M157.933,62.659a6.485,6.485,0,0,1-3.47-1L150.6,59.211a.331.331,0,0,1,.03-.576l7.358-3.639a.33.33,0,0,1,.324.017l6.775,4.3a.331.331,0,0,1-.03.576L160.8,61.993a6.461,6.461,0,0,1-2.864.665m-6.478-3.692,3.362,2.132a5.842,5.842,0,0,0,5.686.3l3.736-1.848-6.121-3.881Z" transform="translate(-127.834 -46.699)" fill="#3d3d3d"/>
          <path id="Trazado_877502" data-name="Trazado 877502" d="M210.379,61.75l20.236,12.832,1.169-1.843L211.548,59.907a1.075,1.075,0,0,0-1.483.332l-.018.028a1.075,1.075,0,0,0,.332,1.483" transform="translate(-178.331 -50.76)" fill="#f4eae2"/>
          <path id="Trazado_877503" data-name="Trazado 877503" d="M221.012,68.144a.329.329,0,0,1-.177-.052l-12.506-7.931a1.406,1.406,0,0,1-.435-1.94l.019-.029a1.407,1.407,0,0,1,1.939-.433l12.534,7.948a.331.331,0,1,1-.354.559L209.5,58.318a.744.744,0,0,0-1.026.23l-.019.029a.743.743,0,0,0,.23,1.026l12.507,7.931a.331.331,0,0,1-.178.611" transform="translate(-176.458 -48.891)" fill="#3d3d3d"/>
          <path id="Trazado_877504" data-name="Trazado 877504" d="M311.6,123.911l8.283,5.252a1.773,1.773,0,0,0,2.447-.547l.03-.047a1.773,1.773,0,0,0-.547-2.447l-8.282-5.252Z" transform="translate(-264.76 -102.701)" fill="#f4eae2"/>
          <path id="Trazado_877505" data-name="Trazado 877505" d="M312.294,125.146a.331.331,0,0,1-.279-.509l1.163-1.833a.331.331,0,0,1,.559.355l-1.163,1.833a.331.331,0,0,1-.28.154" transform="translate(-265.07 -104.214)" fill="#3d3d3d"/>
          <path id="Trazado_877506" data-name="Trazado 877506" d="M339.3,140.39a2.09,2.09,0,0,1-1.123-.327l-4.684-2.971a.331.331,0,1,1,.354-.559l4.684,2.971a1.444,1.444,0,0,0,1.99-.445l.03-.047a1.442,1.442,0,0,0-.446-1.99l-4.8-3.042a.331.331,0,1,1,.354-.559l4.8,3.042a2.1,2.1,0,0,1,.65,2.9l-.03.047a2.1,2.1,0,0,1-1.78.976" transform="translate(-283.23 -113.322)" fill="#3d3d3d"/>
        </g>
      </g>
    </g>
  </g>
</svg>
