<svg xmlns="http://www.w3.org/2000/svg" width="505.024" height="149" viewBox="0 0 505.024 149">
  <g id="Grupo_1101510" data-name="Grupo 1101510" transform="translate(-915 -2408.501)">
    <path id="Trazado_878415" data-name="Trazado 878415" d="M0,0H505.024V149H0Z" transform="translate(915 2408.501)" fill="#aee6e6"/>
    <path id="Trazado_878417" data-name="Trazado 878417" d="M0,0H425.024" transform="translate(955.5 2471.001)" fill="none" stroke="#7d6eb2" stroke-width="5"/>
    <path id="Trazado_878418" data-name="Trazado 878418" d="M0,0V35" transform="translate(955.5 2457.001)" fill="none" stroke="#7d6eb2" stroke-width="5"/>
    <path id="Trazado_878416" data-name="Trazado 878416" d="M0,0V35" transform="translate(1380.524 2457.001)" fill="none" stroke="#7d6eb2" stroke-width="5"/>
    <path id="Far_far_away_behind" data-name="Far far away, behind" d="M-.712,0h-8.93V-1.934l4.113-4.324A4.909,4.909,0,0,0-4.008-9.009a1.913,1.913,0,0,0-.36-1.257A1.287,1.287,0,0,0-5.414-10.7a1.3,1.3,0,0,0-1.1.576,2.366,2.366,0,0,0-.422,1.437H-9.905a4.2,4.2,0,0,1,.589-2.175,4.129,4.129,0,0,1,1.635-1.56,4.856,4.856,0,0,1,2.338-.562,4.777,4.777,0,0,1,3.195.958A3.42,3.42,0,0,1-1.028-9.272,4,4,0,0,1-1.31-7.8a6.456,6.456,0,0,1-.875,1.5A22.029,22.029,0,0,1-4.1-4.192L-5.748-2.285H-.712ZM9.668-5.229a6.11,6.11,0,0,1-1.165,4A4.024,4.024,0,0,1,5.221.176a4.046,4.046,0,0,1-3.3-1.415A6.1,6.1,0,0,1,.747-5.229V-7.567a6.11,6.11,0,0,1,1.165-4A4.034,4.034,0,0,1,5.2-12.973a4.036,4.036,0,0,1,3.3,1.415,6.116,6.116,0,0,1,1.169,4ZM6.706-7.945a4.564,4.564,0,0,0-.36-2.061A1.2,1.2,0,0,0,5.2-10.687a1.176,1.176,0,0,0-1.112.633,4.3,4.3,0,0,0-.374,1.916v3.27a4.6,4.6,0,0,0,.36,2.1,1.209,1.209,0,0,0,1.143.664,1.193,1.193,0,0,0,1.116-.646,4.39,4.39,0,0,0,.369-2.026Z" transform="translate(955.5 2518.001)" fill="#12263f"/>
    <path id="Far_far_away_behind-2" data-name="Far far away, behind" d="M-6.935-7.638h1.4A1.453,1.453,0,0,0-3.876-9.264a1.406,1.406,0,0,0-.4-1.033,1.5,1.5,0,0,0-1.116-.4,1.606,1.606,0,0,0-1.024.343,1.046,1.046,0,0,0-.435.853H-9.809a3.032,3.032,0,0,1,.563-1.8,3.715,3.715,0,0,1,1.56-1.235,5.334,5.334,0,0,1,2.193-.444,5.241,5.241,0,0,1,3.357.976A3.243,3.243,0,0,1-.914-9.325a2.7,2.7,0,0,1-.505,1.56A3.6,3.6,0,0,1-2.892-6.574a3.441,3.441,0,0,1,1.6,1.121,2.951,2.951,0,0,1,.58,1.859A3.3,3.3,0,0,1-2.03-.853,5.472,5.472,0,0,1-5.493.176,5.675,5.675,0,0,1-7.827-.3,3.656,3.656,0,0,1-9.457-1.63a3.45,3.45,0,0,1-.554-1.929h2.979a1.334,1.334,0,0,0,.475,1.02,1.676,1.676,0,0,0,1.169.431A1.755,1.755,0,0,0-4.14-2.544a1.454,1.454,0,0,0,.466-1.112,1.7,1.7,0,0,0-.483-1.371,2.021,2.021,0,0,0-1.336-.4H-6.935ZM.958-6.258,1.74-12.8H9.22v2.3H4.148l-.29,2.54a3.5,3.5,0,0,1,.831-.325A3.805,3.805,0,0,1,5.7-8.42,3.754,3.754,0,0,1,8.626-7.291,4.549,4.549,0,0,1,9.65-4.122,4.541,4.541,0,0,1,9.1-1.894,3.776,3.776,0,0,1,7.559-.36,4.87,4.87,0,0,1,5.212.176a5.236,5.236,0,0,1-2.259-.5A4.053,4.053,0,0,1,1.3-1.683,3.312,3.312,0,0,1,.712-3.639H3.683a1.685,1.685,0,0,0,.448,1.116,1.421,1.421,0,0,0,1.063.413q1.494,0,1.494-2.215,0-2.048-1.828-2.048A1.823,1.823,0,0,0,3.313-5.7Z" transform="translate(1380.524 2518.001)" fill="#12263f"/>
  </g>
</svg>
