<svg xmlns="http://www.w3.org/2000/svg" width="399.527" height="374.464" viewBox="0 0 399.527 374.464">
  <g id="Segmentation-pana" transform="translate(-9.23 -31.36)">
    <g id="freepik--background-complete--inject-18" transform="translate(16.848 31.36)">
      <path id="Trazado_877625" data-name="Trazado 877625" d="M221.415,133.446,199.06,148.427a34.348,34.348,0,0,0,19.45,13.749,31.8,31.8,0,0,0,29.13-6.425,37.618,37.618,0,0,0,2.913-2.672l.067-.067h0L226.692,130Z" transform="translate(-48.686 -47.904)" fill="#e0e0e0"/>
      <path id="Trazado_877626" data-name="Trazado 877626" d="M194.547,103.257a31.9,31.9,0,0,0-.874,31.918l.491.907c.108.191.208.383.325.574.325.558.666,1.107,1.024,1.665l.05.075h0a.465.465,0,0,0,.042.067h0l22.355-14.981,5.252-3.521L211.259,89h0a31.818,31.818,0,0,0-6.217,3.246,34.864,34.864,0,0,0-10.5,11.011Z" transform="translate(-47.136 -41.028)" fill="#ebebeb"/>
      <path id="Trazado_877627" data-name="Trazado 877627" d="M232.065,119.3l23.945,23.037A33.224,33.224,0,0,0,220.08,88.318L232.04,119.3" transform="translate(-52.212 -40.537)" fill="#f5f5f5"/>
      <path id="Trazado_877628" data-name="Trazado 877628" d="M59.72,272.142c11.56-6.85,15.048-20.807,15.489-33.532.075-2.122.466-4.344-.424-6.267s-3.188-3.371-5.168-2.605c-1.665.633-2.5,2.414-3.471,3.862a12.484,12.484,0,0,1-5.36,4.4c-1.423.608-3.138.924-4.436.092-1.789-1.132-1.831-3.679-1.665-5.826l.9-11.777a19.309,19.309,0,0,0-.216-6.309,6.567,6.567,0,0,0-3.853-4.7c-1.989-.7-4.586.283-5.16,2.314a21.016,21.016,0,0,0-.241,2.622,2.23,2.23,0,0,1-1.456,2c-.832.183-1.665-.474-2.28-1.132a28.867,28.867,0,0,1-4.569-7.948,38.875,38.875,0,0,0-4.211-8.165A11.48,11.48,0,0,0,26.1,194.3c-3.013-.383-6.433,1.257-7.416,4.161s.566,6.051,2.314,8.589a47.548,47.548,0,0,0,9.272,9.987,3.9,3.9,0,0,1,1.5,1.973c.366,1.44-1.082,2.747-2.5,3.113-1.665.408-3.329.125-4.994.208s-3.529.674-4.27,2.189c-1.024,2.1.641,4.478,2.339,6.076A41.056,41.056,0,0,0,34,238.318a13.707,13.707,0,0,1,4.336,2.5c1.2,1.174,1.831,3.121.957,4.553s-2.921,1.723-4.586,1.307a27.63,27.63,0,0,1-4.569-2.089c-2.855-1.29-6.658-1.357-8.714,1.024a6.658,6.658,0,0,0-1.132,5.826,15.355,15.355,0,0,0,2.88,5.435,41.173,41.173,0,0,0,16.7,13.383c6.658,2.8,12.917,3.862,19.85,1.889" transform="translate(-18.383 -58.679)" fill="#ebebeb"/>
      <path id="Trazado_877629" data-name="Trazado 877629" d="M57.636,264.279a187.639,187.639,0,0,0-6.184-20.807c-.641-1.814-1.282-3.612-1.906-5.385s-1.257-3.512-1.972-5.185a91.547,91.547,0,0,0-4.652-9.4c-1.665-2.921-3.329-5.626-4.86-8.156s-3.1-4.844-4.561-6.9a75.969,75.969,0,0,0-7.665-9.2c-.982-1.007-1.773-1.773-2.314-2.28l-.624-.574-.216-.191a2.557,2.557,0,0,0,.191.208l.6.6c.533.524,1.307,1.307,2.28,2.33a78.682,78.682,0,0,1,7.54,9.188c1.456,2.056,2.955,4.386,4.519,6.908s3.2,5.243,4.827,8.156a97.317,97.317,0,0,1,4.652,9.371c.707,1.665,1.323,3.412,1.956,5.177s1.265,3.57,1.906,5.385a191.5,191.5,0,0,1,6.2,20.807" transform="translate(-19.103 -59.006)" fill="#e0e0e0"/>
      <path id="Trazado_877630" data-name="Trazado 877630" d="M52.5,235.571a4.944,4.944,0,0,0,.258-.882c.15-.583.333-1.415.558-2.455.441-2.081.957-4.994,1.515-8.165s1.124-6.059,1.606-8.123c.241-1.04.441-1.873.591-2.447a4.553,4.553,0,0,0,.2-.9,4.486,4.486,0,0,0-.316.832c-.183.566-.424,1.39-.691,2.422-.541,2.056-1.149,4.935-1.665,8.131S53.507,230,53.133,232.15c-.183,1.007-.341,1.831-.458,2.5a4.661,4.661,0,0,0-.175.924Z" transform="translate(-24.105 -61.758)" fill="#e0e0e0"/>
      <path id="Trazado_877631" data-name="Trazado 877631" d="M19.93,231.85a1.091,1.091,0,0,0,.283.067l.832.125c.7.1,1.714.258,2.963.483,2.5.433,5.926,1.157,9.671,2.122s7.1,2.006,9.5,2.821c1.207.4,2.172.749,2.838.99l.774.266a1.04,1.04,0,0,0,.275.075l-.258-.133-.749-.325c-.649-.275-1.606-.666-2.8-1.09-2.389-.874-5.734-1.939-9.488-2.913a98.136,98.136,0,0,0-9.721-2.039c-1.257-.2-2.272-.316-2.98-.383l-.832-.067Z" transform="translate(-18.642 -64.987)" fill="#e0e0e0"/>
      <path id="Trazado_877632" data-name="Trazado 877632" d="M64.36,270.587a1.241,1.241,0,0,0,.2-.316l.533-.957c.466-.832,1.1-2.039,1.864-3.546,1.531-3.013,3.521-7.249,5.659-11.943s4.095-8.939,5.576-11.976l1.764-3.587.483-.982a1.664,1.664,0,0,0,.15-.35,1.665,1.665,0,0,0-.208.325l-.508.949c-.458.832-1.09,2.039-1.856,3.546-1.54,3.021-3.529,7.249-5.668,11.943s-4.128,8.939-5.593,11.976l-1.773,3.6-.474,1.015a1.956,1.956,0,0,0-.15.308Z" transform="translate(-26.094 -65.839)" fill="#e0e0e0"/>
      <path id="Trazado_877633" data-name="Trazado 877633" d="M21.49,260.41a3.8,3.8,0,0,0,.35.166l1.04.416,3.828,1.506c3.221,1.282,7.665,3.1,12.559,5.118s9.355,3.8,12.6,4.994c1.665.616,2.946,1.1,3.862,1.415l1.065.366a1.9,1.9,0,0,0,.375.1,2.1,2.1,0,0,0-.358-.166l-1.032-.416L51.951,272.4c-3.229-1.273-7.665-3.1-12.567-5.11s-9.346-3.812-12.6-5.035c-1.665-.616-2.946-1.1-3.862-1.415l-1.057-.358A1.834,1.834,0,0,0,21.49,260.41Z" transform="translate(-18.904 -69.777)" fill="#e0e0e0"/>
      <path id="Trazado_877634" data-name="Trazado 877634" d="M52.6,311.809c-12.484,45.118,9.546,73.432,37.569,95.82s63.378,34.007,99.232,34.814c39.217.882,96.386-6.242,127.588-23.936,17.028-9.663,34.806-23.945,46.724-39.475s9.105-49.845,6.217-69.2c-4.161-27.948-37.228-45.592-64.177-54.056s-56.054-6.017-83.977-1.714" transform="translate(-23.521 -68.052)" fill="#ebebeb"/>
      <path id="Trazado_877635" data-name="Trazado 877635" d="M459.414,170.441A16.147,16.147,0,0,1,460,174.6l3.487,1.8-1.665,6.292-3.92-.125a16.338,16.338,0,0,1-2.555,3.379l1.19,3.737-5.6,3.287-2.688-2.855a15.689,15.689,0,0,1-4.161.574l-1.806,3.5-6.284-1.665.125-3.928a15.6,15.6,0,0,1-3.379-2.547l-3.745,1.19-3.288-5.6,2.863-2.688a16.086,16.086,0,0,1-.583-4.161l-3.487-1.806,1.665-6.284,3.92.125a16.171,16.171,0,0,1,2.555-3.387l-1.19-3.737,5.6-3.329,2.688,2.863a15.7,15.7,0,0,1,4.161-.583l1.806-3.487,6.284,1.665-.125,3.928a15.631,15.631,0,0,1,3.379,2.555l3.745-1.19,3.288,5.6-2.863,2.68Zm-9.263,1.015a6.966,6.966,0,1,0,.729,5.287A6.974,6.974,0,0,0,450.151,171.456Z" transform="translate(-86.498 -52.124)" fill="#f5f5f5" fill-rule="evenodd"/>
      <path id="Trazado_877636" data-name="Trazado 877636" d="M397.224,183.549a32.343,32.343,0,0,1,1.174,8.464l7.033,3.637L402.1,208.335l-7.915-.258a32,32,0,0,1-5.152,6.816l2.4,7.549-11.3,6.658-5.41-5.776a32.1,32.1,0,0,1-8.464,1.182l-3.645,7.033-12.676-3.329.25-7.915a32,32,0,0,1-6.816-5.152l-7.549,2.405-6.658-11.3,5.776-5.418a31.625,31.625,0,0,1-1.174-8.464l-6.983-3.6,3.329-12.684,7.915.25a32.46,32.46,0,0,1,5.152-6.816l-2.405-7.54,11.3-6.658,5.418,5.768a32.343,32.343,0,0,1,8.464-1.174l3.637-7.033,12.684,3.329-.25,7.923a32.242,32.242,0,0,1,6.816,5.143l7.54-2.4,6.658,11.3-5.776,5.418Zm-18.66,2.031a14.057,14.057,0,1,0-4.994,19.242A14.057,14.057,0,0,0,378.564,185.58Z" transform="translate(-70.108 -51.742)" fill="#ebebeb" fill-rule="evenodd"/>
      <path id="Trazado_877637" data-name="Trazado 877637" d="M423.629,127.4a12.784,12.784,0,0,1,.449,3.254l2.713,1.407-1.273,4.885-3.054-.1a12.319,12.319,0,0,1-1.981,2.63l.924,2.9-4.353,2.563-2.089-2.23a12.484,12.484,0,0,1-3.262.458l-1.4,2.722-4.894-1.265.1-3.054a12.535,12.535,0,0,1-2.63-1.981l-2.9.924-2.555-4.361,2.222-2.081a12.144,12.144,0,0,1-.449-3.263L396.48,129.4l1.265-4.9,3.046.1a12.642,12.642,0,0,1,1.989-2.63l-.874-2.9,4.353-2.555,2.089,2.222a12.144,12.144,0,0,1,3.263-.449l1.4-2.713,4.885,1.273-.092,3.046a12.043,12.043,0,0,1,2.622,1.989l2.913-.932,2.555,4.361-2.222,2.089Zm-7.208.782a5.418,5.418,0,1,0-1.931,7.416A5.418,5.418,0,0,0,416.421,128.179Z" transform="translate(-81.798 -45.484)" fill="#e0e0e0"/>
      <path id="Trazado_877638" data-name="Trazado 877638" d="M418.378,130.159a4.029,4.029,0,0,1,.583,1.207,5.393,5.393,0,0,1-.141,3.629,5.51,5.51,0,0,1-4.1,3.371,5.369,5.369,0,0,1-1.6.067,5.16,5.16,0,0,1-1.615-.424,5.543,5.543,0,0,1-3.329-5.676,5.243,5.243,0,0,1,.416-1.615,5.428,5.428,0,0,1,.832-1.365,5.559,5.559,0,0,1,2.405-1.665,5.46,5.46,0,0,1,5.768,1.373,4.086,4.086,0,0,1,.774,1.1,11,11,0,0,0-.832-1.015,5.393,5.393,0,0,0-3.179-1.506,5.193,5.193,0,0,0-2.422.291,5.293,5.293,0,0,0-2.247,1.631,5.236,5.236,0,0,0-.782,1.3,4.935,4.935,0,0,0-.391,1.531,5.26,5.26,0,0,0,3.154,5.368,4.994,4.994,0,0,0,1.523.4,5.1,5.1,0,0,0,1.515-.05,5.327,5.327,0,0,0,2.5-1.2,5.235,5.235,0,0,0,1.432-1.972,5.385,5.385,0,0,0,.233-3.512C418.611,130.583,418.344,130.175,418.378,130.159Z" transform="translate(-83.755 -47.464)" fill="#e0e0e0"/>
      <path id="Trazado_877639" data-name="Trazado 877639" d="M423.592,127.368s0-.05.125-.141l.416-.408,1.665-1.581v.067l-2.58-4.344h.091l-2.9.94h-.058a12.524,12.524,0,0,0-2.613-1.956h-.058v-.058c0-.957.058-1.981.092-3.054l.083.108-4.894-1.257.141-.058-1.4,2.713v.067h-.075a12.484,12.484,0,0,0-3.229.449h-.075l-.058-.058-2.089-2.222h.167l-4.469,2.588.058-.175.932,2.913v.083l-.067.067a12.342,12.342,0,0,0-1.956,2.6l-.042.075H400.7l-3.055-.1.158-.108c-.408,1.548-.832,3.2-1.273,4.885l-.075-.175,2.7,1.4.083.042v.1a12.485,12.485,0,0,0,.449,3.213h0v.092l-.067.058-2.222,2.089v-.191l2.555,4.353-.183-.067,2.913-.924h.083l.067.067a12.22,12.22,0,0,0,2.6,1.956l.075.05v.092q-.05,1.548-.1,3.046l-.108-.15,4.885,1.282-.166.067c.483-.915.949-1.814,1.407-2.7l.042-.075h.083a12.542,12.542,0,0,0,3.229-.441h.075l.058.058,2.081,2.23h-.158l4.361-2.547-.058.141c-.316-1.024-.624-1.989-.916-2.913v-.067l.042-.042a12.269,12.269,0,0,0,1.981-2.605v-.05h.067l3.046.108-.091.067c.5-1.889.932-3.5,1.3-4.877v.075l-2.7-1.415h0a13.017,13.017,0,0,0-.233-2.5l-.133-.6a1.013,1.013,0,0,1,0-.191.514.514,0,0,0,.058.191,5.931,5.931,0,0,1,.158.591,12.136,12.136,0,0,1,.283,2.5v-.042l2.721,1.382h.042v.058c-.358,1.382-.766,3-1.248,4.894v.067h-.067l-3.054-.083.092-.058a12.136,12.136,0,0,1-2,2.655v-.108c.291.924.6,1.881.932,2.9v.092l-.083.05-4.253,2.488-.091.05-.067-.075-2.1-2.222.133.042a12.309,12.309,0,0,1-3.329.458l.125-.075-1.4,2.713-.05.1h-.117l-4.885-1.265h-.117v-.117c0-1.007.058-2.022.092-3.054l.075.141a12.585,12.585,0,0,1-2.655-2.006h.15l-2.9.924-.117.042-.067-.108-2.555-4.353-.067-.108.092-.083,2.222-2.089v.158h0a12.737,12.737,0,0,1-.458-3.329l.083.133-2.7-1.4-.117-.058v-.117c.441-1.665.874-3.329,1.273-4.885v-.125h.175l3.054.1-.133.075a12.628,12.628,0,0,1,2.006-2.655v.141c-.316-1.007-.633-2-.924-2.9v-.108l.1-.058,4.361-2.555.092-.058.075.083,2.089,2.231-.142-.042a12.66,12.66,0,0,1,3.329-.449l-.117.067,1.407-2.7.05-.083h.092l4.8,1.332h.083v.092c-.042,1.074-.075,2.1-.108,3.054l-.05-.1a12.61,12.61,0,0,1,2.638,2.014h-.092l2.913-.916h.058v.058c1.032,1.773,1.881,3.246,2.5,4.369h0l-1.665,1.531-.441.391Z" transform="translate(-81.761 -45.455)" fill="#e0e0e0"/>
      <rect id="Rectángulo_402256" data-name="Rectángulo 402256" width="50.22" height="52.35" transform="translate(274.091 0.017)" fill="#e0e0e0"/>
      <rect id="Rectángulo_402257" data-name="Rectángulo 402257" width="50.22" height="52.35" transform="translate(270.688 0.017)" fill="#fafafa"/>
      <path id="Trazado_877640" data-name="Trazado 877640" d="M393.87,83.744H343.6V31.36h50.27Zm-50.22,0h50.22V31.393H343.633Z" transform="translate(-72.929 -31.36)" fill="#e0e0e0"/>
      <rect id="Rectángulo_402258" data-name="Rectángulo 402258" width="36.72" height="38.276" transform="translate(277.446 7.058)" fill="#fafafa"/>
      <path id="Trazado_877641" data-name="Trazado 877641" d="M350.395,86.13a6.335,6.335,0,0,1-.907,1.057c-.591.616-1.415,1.456-2.339,2.364s-1.773,1.723-2.364,2.3a5.568,5.568,0,0,1-1.065.882,6.408,6.408,0,0,1,.907-1.049c.583-.616,1.407-1.456,2.339-2.372s1.773-1.723,2.405-2.3a5.7,5.7,0,0,1,1.024-.882Z" transform="translate(-72.949 -40.546)" fill="#e0e0e0"/>
      <path id="Trazado_877642" data-name="Trazado 877642" d="M395.85,86a5.826,5.826,0,0,1,1.057.907c.616.583,1.456,1.407,2.364,2.33s1.7,1.756,2.3,2.422a5.7,5.7,0,0,1,.882,1.057,6.051,6.051,0,0,1-1.049-.891c-.616-.591-1.456-1.415-2.372-2.339s-1.723-1.781-2.3-2.405A6.041,6.041,0,0,1,395.85,86Z" transform="translate(-81.693 -40.524)" fill="#e0e0e0"/>
      <path id="Trazado_877643" data-name="Trazado 877643" d="M395.73,38.658a6.524,6.524,0,0,1,.907-1.049c.591-.624,1.415-1.456,2.339-2.372s1.773-1.723,2.4-2.3A5.7,5.7,0,0,1,402.43,32a5.708,5.708,0,0,1-.9,1.049c-.583.624-1.415,1.456-2.339,2.372s-1.781,1.723-2.405,2.3a5.3,5.3,0,0,1-1.057.94Z" transform="translate(-81.673 -31.467)" fill="#e0e0e0"/>
      <path id="Trazado_877644" data-name="Trazado 877644" d="M350.28,38.716a5.71,5.71,0,0,1-1.049-.891c-.624-.591-1.456-1.415-2.364-2.339s-1.723-1.773-2.3-2.4A6.35,6.35,0,0,1,343.68,32a6.225,6.225,0,0,1,1.1.924c.616.583,1.456,1.407,2.364,2.339s1.731,1.773,2.305,2.4A5.6,5.6,0,0,1,350.28,38.716Z" transform="translate(-72.943 -31.467)" fill="#e0e0e0"/>
      <path id="Trazado_877645" data-name="Trazado 877645" d="M388.342,78.051V67.464c0-6.708,0-16.254-.075-27.69l.142.141h-36.62l.158-.158V78.043l-.133-.141,26.508.075h9.971a.558.558,0,0,1,.175,0H378.454l-26.633.067h-.141V39.45h36.928v.141c0,11.469-.05,21.048-.067,27.781,0,3.329,0,5.959-.042,7.765v2.555a.557.557,0,0,1-.158.358Z" transform="translate(-74.284 -32.717)" fill="#e0e0e0"/>
      <rect id="Rectángulo_402259" data-name="Rectángulo 402259" width="12.251" height="12.251" transform="translate(289.672 20.066)" fill="#ebebeb"/>
    </g>
    <g id="freepik--Floor--inject-18" transform="translate(9.23 244.464)">
      <path id="Trazado_877646" data-name="Trazado 877646" d="M402.706,287.626c0,.117-88.088.216-196.725.216s-196.75-.1-196.75-.216,88.072-.216,196.75-.216S402.706,287.5,402.706,287.626Z" transform="translate(-9.23 -287.41)" fill="#263238"/>
    </g>
    <g id="freepik--Chart--inject-18" transform="translate(45.31 81.888)">
      <path id="Trazado_877647" data-name="Trazado 877647" d="M79.92,373.055S52.039,352.481,52.588,329.51V244.227L209.4,239l1.6,62.288Z" transform="translate(-52.58 -116.714)" fill="#263238"/>
      <path id="Trazado_877648" data-name="Trazado 877648" d="M85.2,382.7c-.117,0-.466-19.309-.774-43.12s-.466-43.12-.341-43.12.466,19.292.774,43.112S85.313,382.692,85.2,382.7Z" transform="translate(-57.857 -126.351)" fill="#455a64"/>
      <path id="Trazado_877649" data-name="Trazado 877649" d="M94.818,378.2a.949.949,0,0,1,0-.25l.15-.741c.125-.658.3-1.573.516-2.738.466-2.405,1.115-5.826,1.931-10.046,1.606-8.489,3.762-20.233,5.917-33.241s3.912-24.81,5.118-33.366c.6-4.253,1.082-7.707,1.423-10.137.166-1.174.3-2.089.391-2.755.05-.291.083-.524.117-.716a.99.99,0,0,1,.05-.241.833.833,0,0,1,0,.25,3.093,3.093,0,0,1-.067.724c-.075.658-.183,1.581-.316,2.763-.283,2.4-.716,5.868-1.282,10.154-1.14,8.564-2.846,20.382-4.994,33.4S99.421,356,97.731,364.484c-.832,4.236-1.556,7.657-2.064,9.987l-.591,2.722c-.075.291-.125.516-.166.7a1.1,1.1,0,0,1-.092.308Z" transform="translate(-59.663 -124.256)" fill="#455a64"/>
      <path id="Trazado_877650" data-name="Trazado 877650" d="M127,367.619a.882.882,0,0,1,0-.241l.125-.716c.125-.658.3-1.573.516-2.73.458-2.405,1.115-5.826,1.923-10.054,1.615-8.489,3.762-20.233,5.926-33.233s3.9-24.818,5.118-33.374c.6-4.253,1.082-7.707,1.423-10.129.166-1.173.3-2.1.391-2.755.05-.291.083-.533.117-.716a.991.991,0,0,1,.05-.241.832.832,0,0,1,0,.25c0,.183-.042.424-.067.716-.083.666-.183,1.59-.316,2.763-.283,2.405-.716,5.876-1.282,10.154-1.14,8.572-2.846,20.391-4.994,33.408s-4.353,24.744-6.042,33.216c-.832,4.236-1.556,7.665-2.064,9.987-.258,1.157-.449,2.064-.6,2.713l-.158.707A1.135,1.135,0,0,0,127,367.619Z" transform="translate(-65.061 -122.488)" fill="#455a64"/>
      <path id="Trazado_877651" data-name="Trazado 877651" d="M159.158,357.017a.949.949,0,0,1,0-.25l.125-.707c.125-.658.3-1.573.516-2.738.458-2.405,1.115-5.826,1.923-10.046,1.615-8.489,3.762-20.233,5.926-33.233s3.9-24.819,5.118-33.374c.6-4.253,1.082-7.707,1.423-10.137.166-1.173.3-2.089.391-2.755.05-.291.083-.524.117-.707a1.006,1.006,0,0,1,.05-.25,1.421,1.421,0,0,1,0,.25,2.76,2.76,0,0,1-.075.724c-.075.658-.175,1.59-.308,2.763-.283,2.4-.716,5.868-1.29,10.154-1.132,8.564-2.838,20.382-4.994,33.4s-4.353,24.744-6.051,33.224c-.832,4.236-1.548,7.657-2.056,9.987q-.391,1.731-.6,2.722c-.067.291-.117.524-.166.7A.907.907,0,0,1,159.158,357.017Z" transform="translate(-70.455 -120.709)" fill="#455a64"/>
      <path id="Trazado_877652" data-name="Trazado 877652" d="M191.328,346.449a.882.882,0,0,1,0-.241l.125-.716c.125-.658.291-1.573.516-2.73.458-2.405,1.115-5.826,1.923-10.054,1.615-8.489,3.762-20.224,5.917-33.233s3.912-24.819,5.127-33.374c.591-4.253,1.082-7.707,1.415-10.129.175-1.174.3-2.1.4-2.755.042-.291.083-.533.108-.716a1.232,1.232,0,0,1,.058-.241,1.407,1.407,0,0,1,0,.25c0,.183-.042.424-.075.716-.075.666-.175,1.59-.316,2.763-.275,2.405-.716,5.876-1.282,10.154-1.132,8.572-2.838,20.391-4.994,33.408s-4.361,24.744-6.051,33.216c-.832,4.236-1.548,7.665-2.056,10.029-.258,1.157-.458,2.064-.6,2.713l-.166.707a1.04,1.04,0,0,1-.05.233Z" transform="translate(-75.85 -118.938)" fill="#455a64"/>
      <path id="Trazado_877653" data-name="Trazado 877653" d="M223.5,335.869a.947.947,0,0,1,0-.25l.125-.707c.125-.658.291-1.573.516-2.738.458-2.405,1.115-5.826,1.923-10.046,1.615-8.489,3.762-20.233,5.917-33.233s3.912-24.819,5.127-33.374c.591-4.253,1.074-7.707,1.415-10.137.166-1.165.3-2.089.4-2.755.042-.291.083-.524.108-.707a.891.891,0,0,1,.058-.241,1.323,1.323,0,0,1,0,.241c0,.191-.042.424-.075.724-.075.657-.183,1.59-.316,2.763-.275,2.4-.716,5.868-1.282,10.154-1.132,8.564-2.838,20.382-4.994,33.4s-4.344,24.744-6.009,33.224c-.832,4.236-1.548,7.657-2.064,9.987l-.591,2.722c-.067.291-.125.524-.166.7A1.393,1.393,0,0,1,223.5,335.869Z" transform="translate(-81.246 -117.163)" fill="#455a64"/>
      <path id="Trazado_877654" data-name="Trazado 877654" d="M78.806,271.814S-1,209.119,117.848,166.565c0,0,60.273-22.471,122.22-15.813L209.4,223.992Z" transform="translate(-52.581 -101.705)" fill="#455a64"/>
      <path id="Trazado_877655" data-name="Trazado 877655" d="M254.957,92.07,241,163.854l88.737-57.427S303.512,92.553,254.957,92.07Z" transform="translate(-84.183 -92.07)" fill="#7d6eb2"/>
      <path id="Trazado_877656" data-name="Trazado 877656" d="M241,299.687V166.747l88.737-57.427V234.844Z" transform="translate(-84.183 -94.963)" fill="#7d6eb2"/>
      <path id="Trazado_877657" data-name="Trazado 877657" d="M254.957,92.07,241,163.854l88.737-57.427S303.512,92.553,254.957,92.07Z" transform="translate(-84.183 -92.07)" opacity="0.3"/>
      <path id="Trazado_877658" data-name="Trazado 877658" d="M251.06,330.193V285.25S396.167,299.607,397.283,302s0,50.245,0,50.245Z" transform="translate(-85.87 -124.471)" fill="#7d6eb2"/>
      <path id="Trazado_877659" data-name="Trazado 877659" d="M251.06,272.866l91.55-61.256s39.625,9.088,52.433,34.956,2.23,43.07,2.23,43.07Z" transform="translate(-85.87 -112.12)" fill="#7d6eb2"/>
      <path id="Trazado_877660" data-name="Trazado 877660" d="M251.06,272.866l91.55-61.256s39.625,9.088,52.433,34.956,2.23,43.07,2.23,43.07C354.312,283.319,304.5,277.868,251.06,272.866Z" transform="translate(-85.87 -112.12)" fill="#fff" opacity="0.2"/>
      <path id="Trazado_877661" data-name="Trazado 877661" d="M430.861,279.33s1.665,53.807,0,58.983-4.111,12.9-4.111,12.9V300.969Z" transform="translate(-115.337 -123.478)" fill="#7d6eb2"/>
      <path id="Trazado_877662" data-name="Trazado 877662" d="M251.06,330.193V285.25S396.167,299.607,397.283,302s0,50.245,0,50.245Z" transform="translate(-85.87 -124.471)" opacity="0.3"/>
      <path id="Trazado_877663" data-name="Trazado 877663" d="M381.095,301.75c.083.075-6.617,7.382-14.981,16.313s-15.139,16.1-15.264,16.021,6.608-7.382,14.981-16.313S381,301.667,381.095,301.75Z" transform="translate(-102.607 -127.238)" fill="#263238"/>
      <path id="Trazado_877664" data-name="Trazado 877664" d="M416.408,305a2.734,2.734,0,0,1-.241.366l-.774,1.007c-.674.874-1.665,2.114-2.921,3.637-2.5,3.054-6,7.216-9.987,11.71s-7.715,8.464-10.453,11.3c-1.365,1.415-2.5,2.547-3.271,3.329-.358.358-.666.649-.907.882a1.987,1.987,0,0,1-.333.291,3,3,0,0,1,.275-.35l.832-.94,3.171-3.421c2.672-2.88,6.35-6.891,10.345-11.377s7.532-8.614,10.079-11.61c1.248-1.465,2.272-2.663,3.021-3.554l.832-.949a1.938,1.938,0,0,1,.333-.325Z" transform="translate(-108.758 -127.783)" fill="#263238"/>
      <path id="Trazado_877665" data-name="Trazado 877665" d="M345.76,297.75a3.32,3.32,0,0,1-.275.375l-.832,1c-.741.832-1.839,2.106-3.2,3.62-2.73,3.038-6.558,7.183-10.886,11.652s-8.323,8.456-11.269,11.286c-1.473,1.415-2.672,2.555-3.512,3.329l-.974.882c-.225.2-.35.3-.358.283a1.875,1.875,0,0,1,.3-.35l.915-.94,3.412-3.421c2.88-2.888,6.85-6.891,11.177-11.369s8.19-8.581,10.969-11.569l3.329-3.521.907-.949A2.344,2.344,0,0,1,345.76,297.75Z" transform="translate(-96.502 -126.567)" fill="#263238"/>
      <path id="Trazado_877666" data-name="Trazado 877666" d="M316.816,292.19c.1.075-5.243,7.232-11.918,15.988s-12.168,15.813-12.268,15.73,5.243-7.224,11.927-15.988S316.724,292.115,316.816,292.19Z" transform="translate(-92.842 -125.635)" fill="#263238"/>
      <path id="Trazado_877667" data-name="Trazado 877667" d="M292.724,289.69c.092.075-4.586,6-10.437,13.242S271.61,315.965,271.51,315.89s4.586-6,10.437-13.233S292.666,289.615,292.724,289.69Z" transform="translate(-89.3 -125.215)" fill="#263238"/>
      <path id="Trazado_877668" data-name="Trazado 877668" d="M268.623,287.67a3.987,3.987,0,0,1-.558.774l-1.665,2.031c-1.382,1.714-3.263,4.1-5.26,6.791s-3.72,5.193-4.994,7.016l-1.465,2.156a4.438,4.438,0,0,1-.583.766,4.02,4.02,0,0,1,.441-.832c.3-.541.766-1.3,1.348-2.23,1.174-1.864,2.871-4.4,4.869-7.108s3.928-5.06,5.376-6.725c.716-.832,1.315-1.5,1.739-1.948A3.836,3.836,0,0,1,268.623,287.67Z" transform="translate(-86.38 -124.877)" fill="#263238"/>
      <path id="Trazado_877669" data-name="Trazado 877669" d="M377.786,403.579s31.768-17.636,39.883-37.943l-.258-16.646-40.182,34.956-6.159-4.419,1.665,19.608Z" transform="translate(-105.998 -135.161)" fill="#455a64"/>
      <path id="Trazado_877670" data-name="Trazado 877670" d="M365.587,381.765s21.764-8.131,40.182-34.956L301.66,335.94Z" transform="translate(-94.357 -132.973)" fill="#263238"/>
      <path id="Trazado_877671" data-name="Trazado 877671" d="M378.454,391c.117,0,.308,4.428.424,9.879s.108,9.9,0,9.9-.308-4.419-.416-9.879S378.337,391,378.454,391Z" transform="translate(-107.223 -142.208)" fill="#263238"/>
      <path id="Trazado_877672" data-name="Trazado 877672" d="M96.16,357.227v41.364s32.925,28.239,110.5,30.628,120.555-24.885,120.555-24.885l-3.329-39.242L212.429,339.25Z" transform="translate(-59.89 -133.528)" fill="#7d6eb2"/>
      <path id="Trazado_877673" data-name="Trazado 877673" d="M96.16,357.227v41.364s32.925,28.239,110.5,30.628,120.555-24.885,120.555-24.885l-3.329-39.242L212.429,339.25Z" transform="translate(-59.89 -133.528)" opacity="0.3"/>
      <path id="Trazado_877674" data-name="Trazado 877674" d="M96.16,351.538,216.707,305.33l107.156,54.1s-60.273,30.628-126.132,23.5C132.547,375.8,96.16,351.538,96.16,351.538Z" transform="translate(-59.89 -127.839)" fill="#7d6eb2"/>
      <path id="Trazado_877675" data-name="Trazado 877675" d="M258.369,398.92a2.847,2.847,0,0,1-.266.449l-.832,1.248c-.732,1.082-1.806,2.622-3.154,4.519-2.7,3.787-6.525,8.947-10.944,14.5s-8.6,10.437-11.652,13.907c-1.548,1.739-2.813,3.138-3.7,4.086l-1.024,1.082a3,3,0,0,1-.383.358,2.334,2.334,0,0,1,.316-.416l.965-1.14c.891-1.024,2.106-2.439,3.6-4.161,3.029-3.521,7.158-8.439,11.577-13.982s8.323-10.67,11.036-14.407l3.263-4.436.9-1.2A3.075,3.075,0,0,1,258.369,398.92Z" transform="translate(-81.736 -143.536)" fill="#263238"/>
      <path id="Trazado_877676" data-name="Trazado 877676" d="M285.308,395.88c.1.067-6.4,9.654-14.515,21.406s-14.806,21.223-14.873,21.14,6.4-9.646,14.515-21.406S285.208,395.813,285.308,395.88Z" transform="translate(-86.685 -143.026)" fill="#263238"/>
      <path id="Trazado_877677" data-name="Trazado 877677" d="M313.346,389.87c.1.067-6.875,10.329-15.58,22.921s-15.813,22.754-15.946,22.688,6.883-10.337,15.589-22.929S313.246,389.8,313.346,389.87Z" transform="translate(-91.029 -142.018)" fill="#263238"/>
      <path id="Trazado_877678" data-name="Trazado 877678" d="M342.047,378.89a2.616,2.616,0,0,1-.266.558c-.216.391-.491.916-.832,1.565-.741,1.357-1.839,3.329-3.213,5.693-2.755,4.786-6.658,11.336-11.152,18.46s-8.739,13.458-11.877,18c-1.565,2.272-2.855,4.095-3.762,5.352l-1.024,1.431a4.405,4.405,0,0,1-.391.483,2.579,2.579,0,0,1,.316-.533l.982-1.482,3.637-5.426c3.071-4.578,7.274-10.944,11.768-18.06s8.439-13.641,11.252-18.385l3.329-5.618c.375-.633.682-1.14.916-1.523a4.009,4.009,0,0,1,.316-.516Z" transform="translate(-95.677 -140.176)" fill="#263238"/>
      <path id="Trazado_877679" data-name="Trazado 877679" d="M365.435,374.94c.108.05-4.994,10.661-11.4,23.695s-11.652,23.562-11.793,23.512,4.994-10.661,11.4-23.7S365.343,374.882,365.435,374.94Z" transform="translate(-101.162 -139.514)" fill="#263238"/>
      <path id="Trazado_877680" data-name="Trazado 877680" d="M369.973,403c.108.05-1.615,3.729-3.845,8.206s-4.161,8.056-4.228,8.007,1.615-3.729,3.845-8.206A87.967,87.967,0,0,1,369.973,403Z" transform="translate(-104.46 -144.22)" fill="#263238"/>
      <path id="Trazado_877681" data-name="Trazado 877681" d="M233.778,400.67c.092.075-7.441,8.589-16.812,19.009s-17.053,18.809-17.137,18.726,7.432-8.589,16.812-19.009S233.7,400.587,233.778,400.67Z" transform="translate(-77.277 -143.829)" fill="#263238"/>
      <path id="Trazado_877682" data-name="Trazado 877682" d="M210.865,399.12c.092.083-7.424,8.156-16.77,18.035s-17,17.827-17.095,17.744,7.416-8.156,16.77-18.035S210.782,399.02,210.865,399.12Z" transform="translate(-73.448 -143.569)" fill="#263238"/>
      <path id="Trazado_877683" data-name="Trazado 877683" d="M180.776,394c.092.083-6.658,8.131-15.031,17.977s-15.264,17.811-15.356,17.711,6.658-8.123,15.031-17.977S180.685,393.942,180.776,394Z" transform="translate(-68.985 -142.711)" fill="#263238"/>
      <path id="Trazado_877684" data-name="Trazado 877684" d="M157.135,389.94a2.878,2.878,0,0,1-.258.358l-.832.957c-.716.832-1.773,2.022-3.088,3.479-2.63,2.921-6.334,6.891-10.512,11.186s-8.065,8.09-10.911,10.82c-1.423,1.357-2.588,2.439-3.4,3.179l-.94.832a1.782,1.782,0,0,1-.35.275,1.989,1.989,0,0,1,.291-.333l.882-.907,3.329-3.271c2.788-2.763,6.658-6.592,10.82-10.878s7.915-8.231,10.6-11.094l3.188-3.379.882-.907a1.706,1.706,0,0,1,.3-.316Z" transform="translate(-65.035 -142.03)" fill="#263238"/>
      <path id="Trazado_877685" data-name="Trazado 877685" d="M135.927,382.23a2.511,2.511,0,0,1-.283.308l-.891.832-3.329,3.038c-2.78,2.563-6.583,6.151-10.67,10.22s-7.69,7.857-10.262,10.628l-3.054,3.287-.832.882a2,2,0,0,1-.316.291,1.464,1.464,0,0,1,.25-.35l.774-.94c.682-.832,1.665-1.964,2.946-3.379,2.5-2.821,6.092-6.658,10.187-10.728s7.973-7.624,10.8-10.12c1.415-1.257,2.58-2.255,3.387-2.938l.949-.774C135.8,382.3,135.919,382.213,135.927,382.23Z" transform="translate(-61.589 -140.736)" fill="#263238"/>
      <path id="Trazado_877686" data-name="Trazado 877686" d="M116.1,374.78c.083.092-4.419,4.161-10.046,9.155s-10.262,8.93-10.337,8.839,4.419-4.161,10.046-9.155S116.027,374.7,116.1,374.78Z" transform="translate(-59.816 -139.487)" fill="#263238"/>
    </g>
    <g id="freepik--Character--inject-18" transform="translate(67.396 87.824)">
      <path id="Trazado_877687" data-name="Trazado 877687" d="M168.569,118a5.218,5.218,0,0,0,2.538,6.517c1.2.558,2.6.624,3.762,1.257a4.353,4.353,0,0,1,2.206,3.512c.075,1.315-.458,2.713.083,3.92.666,1.5,2.555,1.889,3.962,2.7a6.758,6.758,0,0,1,3.213,5.243,8.09,8.09,0,0,1-2.022,5.876,9.155,9.155,0,0,1-10.686,2.147,11.652,11.652,0,0,1-5.293-6.017,26.782,26.782,0,0,1-1.723-7.973,81.262,81.262,0,0,1-.067-14.581" transform="translate(-93.396 -102.356)" fill="#263238"/>
      <path id="Trazado_877688" data-name="Trazado 877688" d="M147.921,99.59a8.2,8.2,0,0,0-7.707,3.254,13.566,13.566,0,0,0-2.6,8.639,24.843,24.843,0,0,0,2.122,8.93,6.067,6.067,0,0,0,2,2.888c1.59,1.032,3.679.308,5.26-.749a16.812,16.812,0,0,0,7.124-13.458,11.785,11.785,0,0,0-1.581-6.492,6.442,6.442,0,0,0-5.327-3.213" transform="translate(-88.927 -99.235)" fill="#263238"/>
      <path id="Trazado_877689" data-name="Trazado 877689" d="M189.979,210.977l-41.764-2.439c-.258-.6-.441-.949-.441-.949l-11.327.258-3.687-.216-.141.3-37.985.832c-7.574,0-15.53,4.669-15.514,10.57-.075,5.618,2.663,11.71,9.446,11.552l51.759-.308h51.759c6.783.117,8.564-3.978,8.564-8.83C201.431,212.758,195.763,211.036,189.979,210.977Z" transform="translate(-79.118 -117.382)" fill="#263238"/>
      <path id="Trazado_877690" data-name="Trazado 877690" d="M96.2,232.43H100l10.42-.075,34.748-.141-.141.158c-.075-1.14-.158-2.355-.233-3.579-.166-2.5-.325-4.994-.474-7.307l.125.133-32.018-3.471-9.5-1.065-2.555-.3-.658-.083h0l.666.058,2.563.25,9.5.974,32.034,3.379h.125v.125c.15,2.347.308,4.8.474,7.307.075,1.223.158,2.439.233,3.57v.158h-.166l-34.748.05H96.45Z" transform="translate(-81.983 -118.91)" fill="#455a64"/>
      <path id="Trazado_877691" data-name="Trazado 877691" d="M106.759,217.04c0,.042-.549-.383-1.465-.932a15.746,15.746,0,0,0-3.8-1.665,16,16,0,0,0-4.111-.591,10.689,10.689,0,0,1-1.739,0,1.374,1.374,0,0,1,.458-.108,9.6,9.6,0,0,1,1.282-.125,13.832,13.832,0,0,1,8.023,2.289,8.63,8.63,0,0,1,1.024.774C106.626,216.906,106.759,217.023,106.759,217.04Z" transform="translate(-81.889 -118.392)" fill="#455a64"/>
      <path id="Trazado_877692" data-name="Trazado 877692" d="M201.008,214.79c0,.083-8.206,2.1-18.377,4.5S164.2,223.578,164.18,223.5s8.215-2.1,18.385-4.5S200.992,214.715,201.008,214.79Z" transform="translate(-93.385 -118.589)" fill="#455a64"/>
      <path id="Trazado_877693" data-name="Trazado 877693" d="M198.893,213.85a15.9,15.9,0,0,0-3.229,1.556,16.105,16.105,0,0,0-2.613,2.439,2.888,2.888,0,0,1,.558-.916,8.631,8.631,0,0,1,1.9-1.764,8.323,8.323,0,0,1,2.33-1.124,2.8,2.8,0,0,1,1.057-.191Z" transform="translate(-98.227 -118.432)" fill="#455a64"/>
      <path id="Trazado_877694" data-name="Trazado 877694" d="M154.43,223.78l7.8,1.065.017,8.481-7.166-.166Z" transform="translate(-91.75 -120.098)" fill="#b78876"/>
      <path id="Trazado_877695" data-name="Trazado 877695" d="M163.8,225.06h3.5a3.862,3.862,0,0,1,1.939.516l1.856,1.065a29.332,29.332,0,0,0,3.229,1.531c2.139.682,5.726,1.59,6.483,2.172,2.156,1.665,1.506,3.62.325,3.828-1.04.183-17.32-.624-17.32-.624Z" transform="translate(-93.321 -120.312)" fill="#7d6eb2"/>
      <path id="Trazado_877696" data-name="Trazado 877696" d="M170.658,233.5a5.484,5.484,0,0,1-.383-2.206,5.584,5.584,0,0,1,.241-2.222,19.808,19.808,0,0,1,.05,2.214,20.43,20.43,0,0,1,.092,2.214Z" transform="translate(-94.403 -120.985)" fill="#263238"/>
      <path id="Trazado_877697" data-name="Trazado 877697" d="M172.709,233.507a6.924,6.924,0,0,1-.133-2.022,7.174,7.174,0,0,1,.15-2.014,7.082,7.082,0,0,1,.141,2.022A7.349,7.349,0,0,1,172.709,233.507Z" transform="translate(-94.789 -121.052)" fill="#263238"/>
      <path id="Trazado_877698" data-name="Trazado 877698" d="M175.027,233.881a14.624,14.624,0,0,1-.333-4.161,7.964,7.964,0,0,1,.308,2.072,7.607,7.607,0,0,1,.025,2.089Z" transform="translate(-95.144 -121.094)" fill="#263238"/>
      <path id="Trazado_877699" data-name="Trazado 877699" d="M168.206,230.978a2.189,2.189,0,0,1-.716-.225,6.533,6.533,0,0,1-2.255-1.548,1.806,1.806,0,0,1-.449-.633.832.832,0,0,1,.092-.832.633.633,0,0,1,.433-.241,1.131,1.131,0,0,1,.474.05,3.5,3.5,0,0,1,.749,6.209,2.256,2.256,0,0,1-.832.366.949.949,0,0,1-.458,0,.624.624,0,0,1-.291-.383.89.89,0,0,1,.1-.832,2.5,2.5,0,0,1,.449-.541,5.418,5.418,0,0,1,1.723-1.14,2.289,2.289,0,0,1,.724-.2s-.25.1-.674.308a5.726,5.726,0,0,0-1.623,1.173,2.338,2.338,0,0,0-.4.508.7.7,0,0,0-.083.591.466.466,0,0,0,.549.183,1.8,1.8,0,0,0,.7-.333,3.238,3.238,0,0,0-.682-5.726.549.549,0,0,0-.624.092.641.641,0,0,0-.067.624,3.446,3.446,0,0,0,.832,1.032A9.48,9.48,0,0,0,168.206,230.978Z" transform="translate(-93.475 -120.72)" fill="#263238"/>
      <path id="Trazado_877700" data-name="Trazado 877700" d="M181.96,234.177a1.9,1.9,0,0,0,.424-.533,1.989,1.989,0,0,0-.233-1.764,3.953,3.953,0,0,0-2.172-1.665c-.99-.35-2.172-.516-3.329-.891a23.428,23.428,0,0,1-5.826-2.622,17.874,17.874,0,0,1-1.581-1.107,3.179,3.179,0,0,1-.533-.466,4.044,4.044,0,0,1,.6.375c.375.25.924.616,1.665,1.024a25.926,25.926,0,0,0,5.776,2.5c1.173.358,2.339.533,3.371.916a4.078,4.078,0,0,1,2.264,1.781,2.081,2.081,0,0,1,.15,1.914,1.082,1.082,0,0,1-.358.4C182.026,234.177,181.968,234.177,181.96,234.177Z" transform="translate(-94.145 -120.324)" fill="#263238"/>
      <path id="Trazado_877701" data-name="Trazado 877701" d="M177.951,156.48l13.316,22.987a9.788,9.788,0,0,1,.291,9.247h0a9.771,9.771,0,0,1-9.014,5.426l-20.308-.516-.558-7.382,17.877-3.471-12.11-20.807Z" transform="translate(-92.966 -108.81)" fill="#b78876"/>
      <path id="Trazado_877702" data-name="Trazado 877702" d="M119.991,196.058l18.685,4.894.391-5.6-17.236-9.946,12.484-23.362-10.57-5.393L110.586,179.7h0a10.82,10.82,0,0,0,6.267,15.372Z" transform="translate(-84.185 -108.838)" fill="#b78876"/>
      <path id="Trazado_877703" data-name="Trazado 877703" d="M165.161,168.908l12.75-6.758a65.223,65.223,0,0,0-5.493-9.105A28.056,28.056,0,0,0,155.34,142.35h0l-14.681.216a19.193,19.193,0,0,0-5.227,1.215v-.058c-7.965,1.781-16.762,19.184-16.762,19.184l11.652,6.084.258,1.823a12.484,12.484,0,0,0,3.046,6.5L130.3,199.569l37.694.682-4.836-15.921Z" transform="translate(-85.752 -106.44)" fill="#7d6eb2"/>
      <path id="Trazado_877704" data-name="Trazado 877704" d="M153.47,144.673a7.174,7.174,0,0,0,7.016-7.083l.333-28.514h0a2.28,2.28,0,0,0-2.031-2.305l-12.051-3.046c-3.853-.408-6.417,4.344-6.658,8.215a68.848,68.848,0,0,0,.075,12.775c1.024,6.45,5.967,7.274,5.967,7.274v5.551a7.174,7.174,0,0,0,7.332,7.133Z" transform="translate(-89.3 -99.958)" fill="#b78876"/>
      <path id="Trazado_877705" data-name="Trazado 877705" d="M142.46,117.659a.834.834,0,1,0,.832-.749A.832.832,0,0,0,142.46,117.659Z" transform="translate(-89.742 -102.173)" fill="#263238"/>
      <path id="Trazado_877706" data-name="Trazado 877706" d="M141.5,116.714c.1.108.724-.358,1.615-.358s1.548.449,1.665.341-.058-.241-.341-.449a2.255,2.255,0,0,0-1.307-.408,2.214,2.214,0,0,0-1.29.416C141.539,116.473,141.447,116.664,141.5,116.714Z" transform="translate(-89.578 -101.994)" fill="#263238"/>
      <path id="Trazado_877707" data-name="Trazado 877707" d="M153,117.849a.834.834,0,1,0,.832-.749A.832.832,0,0,0,153,117.849Z" transform="translate(-91.51 -102.205)" fill="#263238"/>
      <path id="Trazado_877708" data-name="Trazado 877708" d="M152,116.914c.108.108.732-.358,1.665-.358s1.54.449,1.665.341-.058-.241-.341-.449a2.28,2.28,0,0,0-1.315-.408,2.255,2.255,0,0,0-1.29.416C152.058,116.673,152,116.839,152,116.914Z" transform="translate(-91.342 -102.027)" fill="#263238"/>
      <path id="Trazado_877709" data-name="Trazado 877709" d="M147.675,123.506a6.093,6.093,0,0,0-1.448-.258c-.225,0-.441-.067-.474-.225a1.132,1.132,0,0,1,.15-.674c.208-.549.433-1.124.674-1.731a29.73,29.73,0,0,0,1.506-4.528,29.688,29.688,0,0,0-1.873,4.394c-.225.608-.441,1.19-.641,1.748a1.273,1.273,0,0,0-.117.891.574.574,0,0,0,.375.333,1.664,1.664,0,0,0,.383.05A5.244,5.244,0,0,0,147.675,123.506Z" transform="translate(-90.239 -102.036)" fill="#263238"/>
      <path id="Trazado_877710" data-name="Trazado 877710" d="M147.39,137.225a16.454,16.454,0,0,0,8.639-2.305s-2.089,4.428-8.547,3.828Z" transform="translate(-90.569 -105.194)" fill="#aa6550"/>
      <path id="Trazado_877711" data-name="Trazado 877711" d="M148.562,127.479a1.59,1.59,0,0,1,1.44-.591,1.448,1.448,0,0,1,1.015.541.916.916,0,0,1,.067,1.057,1.074,1.074,0,0,1-1.165.3,3.412,3.412,0,0,1-1.14-.682,1.049,1.049,0,0,1-.25-.258.283.283,0,0,1,0-.333" transform="translate(-90.751 -103.845)" fill="#aa6550"/>
      <path id="Trazado_877712" data-name="Trazado 877712" d="M150.708,125.76c-.141,0-.15.965-.974,1.665s-1.856.583-1.864.716.233.183.666.2a2.422,2.422,0,0,0,1.556-.541,2.114,2.114,0,0,0,.749-1.382C150.883,126,150.775,125.76,150.708,125.76Z" transform="translate(-90.649 -103.657)" fill="#263238"/>
      <path id="Trazado_877713" data-name="Trazado 877713" d="M151.529,115.085c.092.241.982.125,2.022.25s1.889.408,2.031.191-.083-.333-.424-.566a3.4,3.4,0,0,0-1.506-.524,3.487,3.487,0,0,0-1.581.183C151.687,114.777,151.5,114.968,151.529,115.085Z" transform="translate(-91.263 -101.754)" fill="#263238"/>
      <path id="Trazado_877714" data-name="Trazado 877714" d="M141.645,114.739c.15.2.766,0,1.506,0s1.357.141,1.506-.075-.042-.3-.308-.491a2.181,2.181,0,0,0-2.43.075C141.662,114.431,141.57,114.639,141.645,114.739Z" transform="translate(-89.601 -101.658)" fill="#263238"/>
      <path id="Trazado_877715" data-name="Trazado 877715" d="M145.358,100.9a7.574,7.574,0,0,0,4.794,6.4c1.182.441,2.455.574,3.637,1a3.9,3.9,0,0,1,2.663,2.5,6.292,6.292,0,0,1-.424,3.154,3.311,3.311,0,0,0,.341,3.071c.724.8,1.764.9,2.2,1.739s-.067,1.856-.433,2.755a6.758,6.758,0,0,0-.383,4.22,4.669,4.669,0,0,0,2.688,3.171,1.348,1.348,0,0,0,1.49-.15c.266-.308.05-.832.225-1.174,2.813-6.084,4.095-8.323,4.1-14.565a13.833,13.833,0,0,0-2.4-8.323,6.5,6.5,0,0,0-3.013-2.663,29.962,29.962,0,0,0-7.9-2.372,15.181,15.181,0,0,0-4.1-.449,5.127,5.127,0,0,0-3.645,1.706" transform="translate(-90.202 -99.203)" fill="#263238"/>
      <path id="Trazado_877716" data-name="Trazado 877716" d="M145.9,102.971a3.512,3.512,0,0,0-1.939,2.439,10.245,10.245,0,0,1-1.107,3.029,18.566,18.566,0,0,1-1.956,1.923,5.643,5.643,0,0,0-1.232,5.535,9.064,9.064,0,0,1,6.1-13.416" transform="translate(-89.071 -99.753)" fill="#263238"/>
      <path id="Trazado_877717" data-name="Trazado 877717" d="M159.049,113.983a6.55,6.55,0,0,0-1.024-2.5,4.944,4.944,0,0,0-2.305-1.764,11.835,11.835,0,0,0-3.645-.4,8.18,8.18,0,0,1-1.964-.291,6.375,6.375,0,0,1-1.665-.832,6.5,6.5,0,0,1-2.072-2.314,5.826,5.826,0,0,1-.641-1.989,1.948,1.948,0,0,1,0-.766,9.156,9.156,0,0,0,.916,2.605,6.5,6.5,0,0,0,2.031,2.131,5.951,5.951,0,0,0,1.573.741,8.256,8.256,0,0,0,1.864.266,11.561,11.561,0,0,1,3.762.458,4.994,4.994,0,0,1,2.414,1.964,4.86,4.86,0,0,1,.766,1.948,1.948,1.948,0,0,1-.008.741Z" transform="translate(-90.285 -99.862)" fill="#263238"/>
      <path id="Trazado_877718" data-name="Trazado 877718" d="M169.9,121.033a3.163,3.163,0,0,0,5.693,1.781,4.627,4.627,0,0,0,.774-2.913,4.86,4.86,0,0,0-.583-2.372,3.429,3.429,0,0,0-6.359,1.323" transform="translate(-94.266 -101.994)" fill="#263238"/>
      <path id="Trazado_877719" data-name="Trazado 877719" d="M169.844,116.72a4.994,4.994,0,0,1,.591,2.888,4.894,4.894,0,0,1-.749,2.846c-.117,0,.283-1.282.316-2.863S169.719,116.753,169.844,116.72Z" transform="translate(-94.305 -102.141)" fill="#7d6eb2"/>
      <path id="Trazado_877720" data-name="Trazado 877720" d="M166.481,113.415a1.3,1.3,0,0,1-.191.183,2.664,2.664,0,0,1-.691.333,3.887,3.887,0,0,1-2.747-.291,7.49,7.49,0,0,1-2.888-2.921,12.38,12.38,0,0,0-3.029-3.8c-1.407-.974-3.179-1.04-4.652-1.531a11.236,11.236,0,0,1-3.62-1.931,10.686,10.686,0,0,1-1.914-2,3.2,3.2,0,0,1-.508-.874,15.73,15.73,0,0,0,2.613,2.63,11.352,11.352,0,0,0,3.554,1.8c1.415.458,3.2.516,4.769,1.548s2.322,2.672,3.121,3.937a7.491,7.491,0,0,0,2.688,2.863,3.87,3.87,0,0,0,2.572.4,5.211,5.211,0,0,0,.924-.35Z" transform="translate(-90.376 -99.436)" fill="#455a64"/>
      <path id="Trazado_877721" data-name="Trazado 877721" d="M166.146,111.5a.649.649,0,0,1-.2.15,1.781,1.781,0,0,1-.666.191,3.046,3.046,0,0,1-2.322-.932,29.594,29.594,0,0,1-2.181-2.98,10.961,10.961,0,0,0-3.329-2.88,23,23,0,0,0-4.161-1.665,31.133,31.133,0,0,1-3.471-1.257,10.32,10.32,0,0,1-2.147-1.282,3.2,3.2,0,0,1-.649-.641,15.814,15.814,0,0,0,2.921,1.665c.957.4,2.139.766,3.462,1.165a21.4,21.4,0,0,1,4.228,1.665,11.111,11.111,0,0,1,3.412,3.021,36.181,36.181,0,0,0,2.072,3,2.963,2.963,0,0,0,2.2.957A4.161,4.161,0,0,0,166.146,111.5Z" transform="translate(-90.507 -99.372)" fill="#455a64"/>
      <path id="Trazado_877722" data-name="Trazado 877722" d="M183.135,147.162a7.441,7.441,0,0,1,0-1.19,9.313,9.313,0,0,0-.441-3.154,4.245,4.245,0,0,0-1.232-1.748,16.267,16.267,0,0,0-2.131-1.382,6.375,6.375,0,0,1-2.147-1.956,6.142,6.142,0,0,1-1.032-2.955,6.01,6.01,0,0,1,.092-1.6c.108-.516.266-1,.391-1.473a3.329,3.329,0,0,0-.092-2.605,4.211,4.211,0,0,0-1.814-1.606c-.707-.358-1.415-.6-2.047-.874a5.085,5.085,0,0,1-2.605-1.973,2.688,2.688,0,0,1-.316-.832V123.5a3.837,3.837,0,0,0,.474,1.065,5.11,5.11,0,0,0,2.563,1.781c.633.25,1.357.474,2.1.832a4.519,4.519,0,0,1,1.972,1.731,2.9,2.9,0,0,1,.383,1.432,5.917,5.917,0,0,1-.233,1.481,7.665,7.665,0,0,0-.458,2.93,5.826,5.826,0,0,0,.949,2.755,6.142,6.142,0,0,0,2.006,1.848,15.34,15.34,0,0,1,2.164,1.456,4.453,4.453,0,0,1,1.273,1.906,8.572,8.572,0,0,1,.325,3.263,5.533,5.533,0,0,1-.141,1.182Z" transform="translate(-94.321 -103.278)" fill="#455a64"/>
      <path id="Trazado_877723" data-name="Trazado 877723" d="M176.587,120.936c-.067,0-.141-.358-.633-.649a6.242,6.242,0,0,0-2.122-.674,12.209,12.209,0,0,0-3.213.166,1.888,1.888,0,0,1,.891-.441,5.826,5.826,0,0,1,2.389-.15,4.819,4.819,0,0,1,2.239.832C176.671,120.461,176.646,120.961,176.587,120.936Z" transform="translate(-94.465 -102.545)" fill="#455a64"/>
      <path id="Trazado_877724" data-name="Trazado 877724" d="M176.121,123.3c0,.05-.258.291-.832.508a4.528,4.528,0,0,1-2.3.258,4.478,4.478,0,0,1-2.131-.891c-.474-.366-.674-.682-.633-.716a8.789,8.789,0,0,0,2.821,1.182A8.473,8.473,0,0,0,176.121,123.3Z" transform="translate(-94.399 -103.104)" fill="#455a64"/>
      <path id="Trazado_877725" data-name="Trazado 877725" d="M141.174,203.255c-.375-.666-1.989-32.775-1.382-32.775H164.47L163,202.19Z" transform="translate(-89.272 -111.158)" fill="#263238"/>
      <path id="Trazado_877726" data-name="Trazado 877726" d="M129.9,212.537l-2.2-24.8,45.925-.125-2.98,25.126Z" transform="translate(-87.267 -114.031)" fill="#e0e0e0"/>
      <path id="Trazado_877727" data-name="Trazado 877727" d="M157.669,202.983a2.93,2.93,0,1,1-2.938-2.913,2.93,2.93,0,0,1,2.938,2.913Z" transform="translate(-91.31 -116.121)" fill="#fafafa"/>
      <path id="Trazado_877728" data-name="Trazado 877728" d="M141.723,143.043s1.456,14.748,2.239,22.7a1.814,1.814,0,0,1-.266,1.448,1.257,1.257,0,0,1-1.748-.15,3.088,3.088,0,0,1-.732-1.8c-.533-5.135-1.665-14.881-2.106-21.448C139.11,143.834,140.858,142.819,141.723,143.043Z" transform="translate(-89.18 -106.551)" fill="#263238"/>
      <path id="Trazado_877729" data-name="Trazado 877729" d="M166.539,143.043s-1.456,14.748-2.239,22.7a1.814,1.814,0,0,0,.266,1.448,1.257,1.257,0,0,0,1.748-.15,3.1,3.1,0,0,0,.741-1.8c.524-5.135,1.665-14.881,2.1-21.448C169.127,143.834,167.371,142.819,166.539,143.043Z" transform="translate(-93.397 -106.551)" fill="#263238"/>
      <path id="Trazado_877730" data-name="Trazado 877730" d="M144.321,170.8a.759.759,0,0,1,.216.782,1.248,1.248,0,0,1-.516.774,1.4,1.4,0,0,1-1.132.158,1.665,1.665,0,0,1-.924-.649,1.8,1.8,0,0,1-.308-.832c-.05-.5.083-.832.133-.782s.05.3.166.724A1.548,1.548,0,0,0,143,172.1a1.09,1.09,0,0,0,.832-.083,1.065,1.065,0,0,0,.441-.524C144.438,171.106,144.254,170.873,144.321,170.8Z" transform="translate(-89.606 -111.118)" fill="#455a64"/>
      <path id="Trazado_877731" data-name="Trazado 877731" d="M143.187,170.294a.635.635,0,0,0,0,.341c.058.175.166.333.375.225s.175-.291,0-.433-.266-.125-.291-.183.15-.208.449-.075a.6.6,0,0,1,.341.449.616.616,0,0,1-.35.633.633.633,0,0,1-.716-.092.583.583,0,0,1-.158-.541C142.97,170.294,143.17,170.244,143.187,170.294Z" transform="translate(-89.803 -111.097)" fill="#455a64"/>
      <path id="Trazado_877732" data-name="Trazado 877732" d="M166.813,170.312c.05,0,.191.341.133.94a2.089,2.089,0,0,1-.383,1.007,1.665,1.665,0,0,1-1.19.641,1.265,1.265,0,0,1-1.2-.666,1.848,1.848,0,0,1-.216-1.057c.058-.591.2-.916.25-.907a8.619,8.619,0,0,1,.058.907,1.748,1.748,0,0,0,.25.832.9.9,0,0,0,.832.441,1.365,1.365,0,0,0,.907-.458,2.122,2.122,0,0,0,.391-.832C166.771,170.678,166.746,170.32,166.813,170.312Z" transform="translate(-93.347 -111.123)" fill="#455a64"/>
      <path id="Trazado_877733" data-name="Trazado 877733" d="M165.562,170.974a.425.425,0,0,0,0,.275c.058.133.075.2.208.158s.141-.133.067-.258-.183-.125-.208-.183.133-.191.383-.067a.483.483,0,0,1,.266.408.508.508,0,0,1-.358.508.524.524,0,0,1-.608-.166.516.516,0,0,1-.05-.483C165.337,170.891,165.554,170.9,165.562,170.974Z" transform="translate(-93.56 -111.22)" fill="#455a64"/>
      <path id="Trazado_877734" data-name="Trazado 877734" d="M162.008,182.188a3.754,3.754,0,0,1-.624.333,14.985,14.985,0,0,1-1.789.657,20.99,20.99,0,0,1-12.484-.158,15.416,15.416,0,0,1-1.773-.7c-.408-.2-.624-.316-.608-.341s.94.316,2.5.749a23.736,23.736,0,0,0,12.276.15C161.051,182.487,161.975,182.121,162.008,182.188Z" transform="translate(-90.123 -113.087)" fill="#455a64"/>
      <path id="Trazado_877735" data-name="Trazado 877735" d="M134.766,166.67a29.826,29.826,0,0,0-1.465,3.487,30.268,30.268,0,0,0-.591,3.737,6.775,6.775,0,0,1,.175-3.853A6.858,6.858,0,0,1,134.766,166.67Z" transform="translate(-88.073 -110.519)" fill="#263238"/>
      <path id="Trazado_877736" data-name="Trazado 877736" d="M121.491,176a1.948,1.948,0,0,1-.183.591,9.787,9.787,0,0,1-.832,1.481,10.678,10.678,0,0,1-4.211,3.62,12.535,12.535,0,0,1-2.921.949,8.738,8.738,0,0,0-2.28.832,4.27,4.27,0,0,0-1.573,1.548,1.352,1.352,0,0,1,.2-.591,3.579,3.579,0,0,1,1.207-1.215,8.224,8.224,0,0,1,2.347-.974,13.741,13.741,0,0,0,2.838-.957,11.452,11.452,0,0,0,4.161-3.4C121.075,176.765,121.417,175.95,121.491,176Z" transform="translate(-84.212 -112.083)" fill="#263238"/>
      <path id="Trazado_877737" data-name="Trazado 877737" d="M116.17,182.405a12.176,12.176,0,0,0,.832-1.19,3.754,3.754,0,0,0,.058-3.279l-.075-.15.333.05a4.394,4.394,0,0,0-1.332,2.946c-.05.832.133,1.382.058,1.4a2.355,2.355,0,0,1-.366-1.407,4.386,4.386,0,0,1,1.348-3.254l.208-.2.125.25.083.166a3.828,3.828,0,0,1-.175,3.629A2.14,2.14,0,0,1,116.17,182.405Z" transform="translate(-85.25 -112.305)" fill="#263238"/>
      <path id="Trazado_877738" data-name="Trazado 877738" d="M119.48,181.4a2.1,2.1,0,0,1,1.4-.416,3.82,3.82,0,0,1,3.146,1.523l.092.117.183.25-.308.083a4.386,4.386,0,0,1-3.379-.491c-.757-.466-1.049-.957-1.007-.982a12.515,12.515,0,0,0,1.157.716,4.428,4.428,0,0,0,3.113.333l-.117.333-.083-.108a3.77,3.77,0,0,0-2.8-1.465,13.387,13.387,0,0,0-1.4.108Z" transform="translate(-85.888 -112.918)" fill="#263238"/>
      <path id="Trazado_877739" data-name="Trazado 877739" d="M122.16,178.463a2.486,2.486,0,0,1,1.015-1.04,3.82,3.82,0,0,1,3.487-.208l.141.067.275.125-.225.216a4.37,4.37,0,0,1-3.188,1.223,2.289,2.289,0,0,1-1.365-.366c0-.067.533.108,1.365.067a4.469,4.469,0,0,0,2.88-1.232l.058.35-.117-.05a3.779,3.779,0,0,0-3.163.083A12.827,12.827,0,0,0,122.16,178.463Z" transform="translate(-86.337 -112.233)" fill="#263238"/>
      <path id="Trazado_877740" data-name="Trazado 877740" d="M113,183.937a2.022,2.022,0,0,1,1.432-.283,3.82,3.82,0,0,1,2.988,1.8l.083.133.158.258-.316.058a4.419,4.419,0,0,1-3.329-.832c-.707-.541-.949-1.049-.915-1.074s.383.383,1.09.832a4.494,4.494,0,0,0,3.071.616l-.15.316-.067-.108a3.8,3.8,0,0,0-2.655-1.723,13.047,13.047,0,0,0-1.39.008Z" transform="translate(-84.801 -113.362)" fill="#263238"/>
    </g>
    <g id="freepik--Plants--inject-18" transform="translate(13.724 154.97)">
      <path id="Trazado_877741" data-name="Trazado 877741" d="M26.782,261.177c-.907,1.29-2.663.832-3.479.075a6.517,6.517,0,0,1-1.473-3.021c-.724-2.5-1.44-5.11-.907-7.64a4.228,4.228,0,0,1,.974-2.081,2.2,2.2,0,0,1,2.1-.7,3.229,3.229,0,0,1,1.839,1.931,18.16,18.16,0,0,1,1.781,7.815,6.317,6.317,0,0,1-.832,3.62" transform="translate(-15.654 -191.266)" fill="#7d6eb2"/>
      <g id="Grupo_1101443" data-name="Grupo 1101443" transform="translate(5.083 56.499)" opacity="0.2">
        <path id="Trazado_877742" data-name="Trazado 877742" d="M26.782,261.177c-.907,1.29-2.663.832-3.479.075a6.517,6.517,0,0,1-1.473-3.021c-.724-2.5-1.44-5.11-.907-7.64a4.228,4.228,0,0,1,.974-2.081,2.2,2.2,0,0,1,2.1-.7,3.229,3.229,0,0,1,1.839,1.931,18.16,18.16,0,0,1,1.781,7.815,6.317,6.317,0,0,1-.832,3.62" transform="translate(-20.738 -247.764)"/>
      </g>
      <path id="Trazado_877743" data-name="Trazado 877743" d="M22.378,271.6a7.849,7.849,0,0,0-4.86-.624,4.1,4.1,0,0,0-2.405,1.074,1.739,1.739,0,0,0,0,2.405,2.272,2.272,0,0,0,1.515.383c1.29,0,2.713-.241,3.737.533.591.441.982,1.174,1.665,1.39a1.665,1.665,0,0,0,1.823-.832,2.838,2.838,0,0,0,.241-2.039,3.2,3.2,0,0,0-1.714-2.289Z" transform="translate(-14.63 -195.135)" fill="#7d6eb2"/>
      <path id="Trazado_877744" data-name="Trazado 877744" d="M30.805,263.87a4.719,4.719,0,0,1-.732-4.328,8.414,8.414,0,0,1,2.563-3.72,13.791,13.791,0,0,1,4.594-2.7,4.918,4.918,0,0,1,2.064-.358,2.164,2.164,0,0,1,1.731,1.032c.483.924,0,2.039-.483,2.955a34.956,34.956,0,0,1-3.013,4.594,8.123,8.123,0,0,1-3.329,2.838c-1.382.524-2.813.466-3.537-.491" transform="translate(-17.181 -192.103)" fill="#7d6eb2"/>
      <path id="Trazado_877745" data-name="Trazado 877745" d="M26.731,284.917a3.187,3.187,0,0,1-.083-.591c0-.424-.092-.965-.15-1.6a22.339,22.339,0,0,0-.366-2.355A17.661,17.661,0,0,0,25.3,277.6a10.111,10.111,0,0,0-1.423-2.5,5.368,5.368,0,0,0-1.789-1.49,5.06,5.06,0,0,0-1.506-.466,3.33,3.33,0,0,1-.591-.083,2.123,2.123,0,0,1,.6,0,4.5,4.5,0,0,1,1.573.416,5.21,5.21,0,0,1,1.889,1.5,10.037,10.037,0,0,1,1.473,2.563,18.168,18.168,0,0,1,.832,2.821,19.7,19.7,0,0,1,.308,2.38c.05.682.075,1.232.083,1.615a2.555,2.555,0,0,1-.017.558Z" transform="translate(-15.529 -195.506)" fill="#263238"/>
      <path id="Trazado_877746" data-name="Trazado 877746" d="M27.4,280.49a1.04,1.04,0,0,1,0-.275V276.57c-.058-2.414-.266-5.751-.666-9.421s-.949-6.966-1.432-9.338c-.117-.591-.233-1.124-.341-1.59s-.2-.874-.283-1.207l-.183-.757a1.09,1.09,0,0,1-.05-.266,1.174,1.174,0,0,1,.1.258l.225.741c.1.325.2.732.316,1.2s.258,1,.383,1.59a88.994,88.994,0,0,1,1.506,9.346c.4,3.679.583,7.024.6,9.446,0,1.207,0,2.189-.042,2.871a4.872,4.872,0,0,1-.05.774A1.4,1.4,0,0,1,27.4,280.49Z" transform="translate(-16.277 -192.31)" fill="#263238"/>
      <path id="Trazado_877747" data-name="Trazado 877747" d="M27.936,274.434a4.7,4.7,0,0,1,0-.832,20.6,20.6,0,0,1,.25-2.206,27.9,27.9,0,0,1,.716-3.213,28.689,28.689,0,0,1,1.348-3.8,20.383,20.383,0,0,1,3.945-6.142,10.557,10.557,0,0,1,.932-.832c.141-.117.266-.241.4-.333l.358-.25a5.982,5.982,0,0,1,.682-.441A27.264,27.264,0,0,0,34.32,258.4a21.548,21.548,0,0,0-3.837,6.1,29.2,29.2,0,0,0-1.348,3.77,30.2,30.2,0,0,0-.766,3.179c-.166.916-.266,1.665-.325,2.181a5.4,5.4,0,0,1-.108.807Z" transform="translate(-16.859 -192.712)" fill="#263238"/>
      <path id="Trazado_877748" data-name="Trazado 877748" d="M454.859,264.616c.483-1.923-.782-3.837-2.2-5.218s-3.113-2.622-3.853-4.453c-1.207-2.971.366-6.841-1.665-9.313-1.2-1.456-3.329-1.931-4.4-3.487a7.89,7.89,0,0,1-.982-2.8,28.372,28.372,0,0,0-7.124-13.158,24.586,24.586,0,0,0,2.838,12.7,16.254,16.254,0,0,1,2.131,4.819c.458,2.83-1.107,5.759-.4,8.531.832,3.179,4.4,5.285,4.586,8.556.158,2.771-2.239,5.21-2.039,7.982A7.44,7.44,0,0,0,443,272.048c2.156,3.546,5.318,5.976,10.079,5.868l5.826.175Z" transform="translate(-85.07 -187.647)" fill="#7d6eb2"/>
      <g id="Grupo_1101444" data-name="Grupo 1101444" transform="translate(349.536 38.543)" opacity="0.3">
        <path id="Trazado_877749" data-name="Trazado 877749" d="M454.859,264.616c.483-1.923-.782-3.837-2.2-5.218s-3.113-2.622-3.853-4.453c-1.207-2.971.366-6.841-1.665-9.313-1.2-1.456-3.329-1.931-4.4-3.487a7.89,7.89,0,0,1-.982-2.8,28.372,28.372,0,0,0-7.124-13.158,24.586,24.586,0,0,0,2.838,12.7,16.254,16.254,0,0,1,2.131,4.819c.458,2.83-1.107,5.759-.4,8.531.832,3.179,4.4,5.285,4.586,8.556.158,2.771-2.239,5.21-2.039,7.982A7.44,7.44,0,0,0,443,272.048c2.156,3.546,5.318,5.976,10.079,5.868l5.826.175Z" transform="translate(-434.606 -226.19)"/>
      </g>
      <path id="Trazado_877750" data-name="Trazado 877750" d="M464.631,274.161a4.636,4.636,0,0,0,1.606-.05,9.4,9.4,0,0,0,1.889-.483,8.322,8.322,0,0,0,2.339-1.3,3.379,3.379,0,0,0,.957-1.282,6.241,6.241,0,0,0,.258-1.748,16.644,16.644,0,0,1,.133-1.889,5.185,5.185,0,0,1,.7-1.881c.682-1.207,1.814-2.355,2.172-4a13.15,13.15,0,0,0-.183-5.11,10.769,10.769,0,0,1,.108-5.485c.616-1.831,1.881-3.487,2.5-5.551s.316-4.311.433-6.517a8.83,8.83,0,0,1,.741-3.246c.466-1.032,1.115-2.014,1.623-3.1,1.024-2.206,1.19-4.694,1.465-7.141.133-1.232.258-2.5.4-3.729a17.712,17.712,0,0,1,.624-3.737,32.525,32.525,0,0,1,1.373-3.62,11.517,11.517,0,0,0,.666-1.889,18.508,18.508,0,0,0,.183-2.006,24.42,24.42,0,0,0-.183-4.045c-.166-1.34-.416-2.68-.566-4.028v-.5l-.291.15a8.98,8.98,0,0,0-3.129,2.663,14.331,14.331,0,0,0-1.906,3.57,43.13,43.13,0,0,0-1.773,7.657,20.808,20.808,0,0,1-2.364,7.066c-.633,1.049-1.4,2-2.072,3.013a8.265,8.265,0,0,0-1.423,3.329c-.333,2.5,1.04,4.636.766,6.816a7.558,7.558,0,0,1-1.049,3.038c-.524.932-1.14,1.806-1.723,2.68a16.52,16.52,0,0,0-1.556,2.7,8.514,8.514,0,0,0-.7,2.93c-.133,1.972.158,3.837,0,5.6a12.76,12.76,0,0,1-1.415,4.8c-.7,1.44-1.473,2.738-2.122,4a18.633,18.633,0,0,0-.874,1.864,8.756,8.756,0,0,0-.508,1.848,11.835,11.835,0,0,0,0,3.329,8.407,8.407,0,0,0,1.665,4.236,4.114,4.114,0,0,0,.474.508,2.847,2.847,0,0,0,.383.325l.341.233a7.9,7.9,0,0,1-1.14-1.115,8.414,8.414,0,0,1-1.606-4.211,11.212,11.212,0,0,1,.058-3.279,8.748,8.748,0,0,1,.5-1.806c.25-.608.549-1.215.882-1.839.657-1.257,1.44-2.547,2.156-4a13.141,13.141,0,0,0,1.465-4.885c.141-1.8-.142-3.67,0-5.593a8.322,8.322,0,0,1,.682-2.838,16.793,16.793,0,0,1,1.54-2.647c.583-.832,1.207-1.731,1.748-2.688a7.823,7.823,0,0,0,1.09-3.163c.275-2.33-1.09-4.5-.749-6.8a7.756,7.756,0,0,1,1.382-3.188c.658-1,1.432-1.956,2.081-3.021a21.165,21.165,0,0,0,2.414-7.191,43.28,43.28,0,0,1,1.764-7.59,13.8,13.8,0,0,1,1.856-3.471,8.647,8.647,0,0,1,3-2.563l-.266-.15v.241c.158,1.365.408,2.7.566,4.028a23.645,23.645,0,0,1,.183,3.978,13.556,13.556,0,0,1-.166,1.948,11.65,11.65,0,0,1-.649,1.823,32.379,32.379,0,0,0-1.382,3.662,18.75,18.75,0,0,0-.641,3.8c-.133,1.257-.258,2.5-.391,3.737-.266,2.447-.433,4.9-1.423,7.033-.483,1.057-1.132,2.039-1.615,3.1a9.062,9.062,0,0,0-.757,3.371c-.117,2.247.191,4.453-.408,6.45s-1.856,3.654-2.5,5.535a11.144,11.144,0,0,0-.1,5.626,12.926,12.926,0,0,1,.225,4.994c-.333,1.565-1.432,2.7-2.131,3.953a5.617,5.617,0,0,0-.716,1.956c-.092.666-.083,1.307-.108,1.914a5.826,5.826,0,0,1-.241,1.665,3.113,3.113,0,0,1-.9,1.232,7.931,7.931,0,0,1-2.28,1.3,9.448,9.448,0,0,1-1.864.516,7.084,7.084,0,0,1-1.182.125Z" transform="translate(-89.599 -183.56)" fill="#263238"/>
      <path id="Trazado_877751" data-name="Trazado 877751" d="M483.285,206a1.033,1.033,0,0,0-.05.183,2.678,2.678,0,0,1-.133.524c-.108.458-.241,1.157-.458,2.022s-.749,1.848-1.19,3.054-.932,2.588-1.365,4.161-.832,3.329-1.223,5.143a21.64,21.64,0,0,1-1.839,5.718c-.466.957-1.007,1.914-1.423,2.971a13.65,13.65,0,0,0-.832,3.329,67.172,67.172,0,0,1-1.215,7.066c-1.148,4.786-2.23,9.346-3.229,13.5s-1.931,7.873-2.7,11.019-1.365,5.643-1.789,7.432l-.474,2.022a2.487,2.487,0,0,1-.108.533.5.5,0,0,0,0,.183,1.664,1.664,0,0,0,.058-.175c.042-.142.092-.308.15-.524.133-.483.308-1.157.541-2.006l1.906-7.407c.791-3.138,1.731-6.858,2.78-10.994l3.254-13.508a65.868,65.868,0,0,0,1.215-7.091,13.591,13.591,0,0,1,.791-3.279c.408-1.024.932-1.981,1.407-2.938a21.5,21.5,0,0,0,1.823-5.826c.391-1.856.757-3.579,1.182-5.135s.832-2.946,1.3-4.161a27.128,27.128,0,0,0,1.14-3.1c.208-.9.308-1.573.391-2.039a2.8,2.8,0,0,1,.091-.541.6.6,0,0,0,0-.141Z" transform="translate(-90.209 -184.261)" fill="#263238"/>
      <path id="Trazado_877752" data-name="Trazado 877752" d="M462.119,270.49c3.8-2.289,4.86-9.155,3.246-13.316s-4.419-7.9-4.877-12.309c-.35-3.387.741-6.883-.067-10.187-1.09-4.469-5.476-7.915-5.451-12.484,0-2.58,1.465-4.994,1.332-7.59-.158-3.163-2.605-5.659-4.161-8.439-2.33-4.253-2.5-9.3-3.329-14.074s-2.663-9.887-6.916-12.21c-.608,4.062-1.665,6.85-1.29,12.343.133,1.981,2.447,5.743,2.788,10.071.2,2.588.341,5.177.516,7.765a24.663,24.663,0,0,0,1.265,7.441c.7,1.8,1.823,3.437,2.347,5.293.982,3.5-.266,7.316.533,10.861.682,3.013,2.78,5.593,3.221,8.639.624,4.295-2.122,8.764-.682,12.85.716,2.022,2.4,3.645,2.888,5.743.375,1.623,0,3.329.325,4.994.549,2.63,5.585,4.644,8.264,4.469" transform="translate(-86.063 -179.88)" fill="#7d6eb2"/>
      <path id="Trazado_877753" data-name="Trazado 877753" d="M443.519,184.69a.985.985,0,0,0,0,.233,5.6,5.6,0,0,0,.092.666c.091.583.191,1.448.4,2.555s.832,2.38,1.273,3.9.982,3.254,1.423,5.21.832,4.12,1.215,6.45a27.141,27.141,0,0,0,2,7.274c.541,1.223,1.149,2.439,1.606,3.729a16.762,16.762,0,0,1,.832,4.12,81.376,81.376,0,0,0,1.165,8.872c1.2,6.009,2.347,11.735,3.387,16.945s2.081,9.862,2.913,13.791l2,9.3.566,2.5.158.658a.384.384,0,0,0,.058.225.828.828,0,0,0,0-.233,4.822,4.822,0,0,0-.117-.658L462,267.676l-1.881-9.322c-.832-3.937-1.773-8.622-2.838-13.816s-2.172-10.928-3.329-16.937a84.648,84.648,0,0,1-1.165-8.847,17.227,17.227,0,0,0-.832-4.161,40.593,40.593,0,0,0-1.665-3.754,26.733,26.733,0,0,1-2.006-7.191c-.408-2.322-.832-4.494-1.265-6.45a48.782,48.782,0,0,0-1.481-5.218c-.516-1.515-1.1-2.763-1.332-3.853s-.358-1.964-.466-2.538c-.058-.275-.1-.5-.125-.666a1.024,1.024,0,0,0-.091-.233Z" transform="translate(-86.563 -180.687)" fill="#263238"/>
    </g>
    <g id="freepik--speech-bubble--inject-18" transform="translate(43.065 63.66)">
      <path id="Trazado_877754" data-name="Trazado 877754" d="M49.889,97.019a3.578,3.578,0,0,0,.067-.5q.05-.524.125-1.448a17.1,17.1,0,0,1,.35-2.33c.1-.449.141-.957.3-1.465s.3-1.065.466-1.665a27.757,27.757,0,0,1,3.87-7.782A26.711,26.711,0,0,1,79.942,70.861c.624.042,1.232.2,1.856.291a13.209,13.209,0,0,1,1.873.416A25.884,25.884,0,0,1,90.962,74.7,27.107,27.107,0,0,1,101.9,87.906a26.283,26.283,0,0,1,1.764,9.155,25.8,25.8,0,0,1-1.506,9.521l-.341.932-.05.117.05.117c2.122,4.627,4.161,9.155,6.209,13.566l.333-.391L96.164,116.5l-.15-.05-.117.117a26.636,26.636,0,0,1-33.175,3.853,27.607,27.607,0,0,1-6.933-6.209,29.787,29.787,0,0,1-3.853-6.658,30.362,30.362,0,0,1-1.556-5.61q-.166-1.182-.3-2.1c0-.6-.05-1.115-.067-1.54a6.884,6.884,0,0,0-.05-.949,1.9,1.9,0,0,0,0-.316,1.764,1.764,0,0,0,0,.316v2.522c0,.608.158,1.315.25,2.114a29.13,29.13,0,0,0,1.5,5.676,29.488,29.488,0,0,0,3.837,6.791,28.015,28.015,0,0,0,6.916,6.334,27.038,27.038,0,0,0,33.74-3.82l-.266.067,12.185,4.428.608.225-.275-.616-6.184-13.6v.233l.35-.949a26.633,26.633,0,0,0,1.54-9.729,27.057,27.057,0,0,0-1.814-9.388A27.507,27.507,0,0,0,91.178,74.19a26.184,26.184,0,0,0-7.432-3.163,12.567,12.567,0,0,0-1.906-.416c-.633-.092-1.257-.25-1.889-.291a25.6,25.6,0,0,0-3.729-.133,26.025,26.025,0,0,0-13.008,3.745,27.257,27.257,0,0,0-8.4,7.749,27.606,27.606,0,0,0-3.82,7.9l-.449,1.665a13.558,13.558,0,0,0-.275,1.49,16.421,16.421,0,0,0-.3,2.347c0,.616-.058,1.1-.075,1.456A3.246,3.246,0,0,0,49.889,97.019Z" transform="translate(-49.884 -70.169)" fill="#263238"/>
      <path id="Trazado_877755" data-name="Trazado 877755" d="M80.095,101.144l9.754-.191a9.754,9.754,0,1,1-10.17-9.563Z" transform="translate(-53.315 -73.728)" fill="#7d6eb2"/>
      <path id="Trazado_877756" data-name="Trazado 877756" d="M85.078,98.224,84.67,88.47a10.262,10.262,0,0,1,7.074,2.63,10.054,10.054,0,0,1,3.088,6.783Z" transform="translate(-55.718 -73.238)" fill="#7d6eb2"/>
    </g>
  </g>
</svg>
