<svg xmlns="http://www.w3.org/2000/svg" width="137.047" height="137.047" viewBox="0 0 137.047 137.047">
  <g id="spread-social-distancing-home-human" transform="translate(-16 -16)">
    <path id="Trazado_24323" data-name="Trazado 24323" d="M385.114,161.136v18.273H344V161.136A9.136,9.136,0,0,1,353.136,152l4.568,13.7h13.7l4.568-13.7A9.137,9.137,0,0,1,385.114,161.136Z" transform="translate(-234.351 -97.17)" fill="#ff7956"/>
    <path id="Trazado_24324" data-name="Trazado 24324" d="M398.841,58.284v6.852A9.136,9.136,0,0,1,391.92,74a8.919,8.919,0,0,1-2.216.274h-4.568A8.918,8.918,0,0,1,382.921,74,9.136,9.136,0,0,1,376,65.136V58.284h6.852L389.7,56l2.284,2.284Z" transform="translate(-257.215 -28.579)" fill="#ffdaaa"/>
    <path id="Trazado_24325" data-name="Trazado 24325" d="M398.841,33.136v2.284h-6.852L389.7,33.136l-6.852,2.284H376V33.136A9.136,9.136,0,0,1,385.136,24H389.7A9.136,9.136,0,0,1,398.841,33.136Z" transform="translate(-257.215 -5.716)" fill="#ffde55"/>
    <path id="Trazado_24326" data-name="Trazado 24326" d="M398.841,152l-4.568,13.7h-13.7L376,152h22.841Z" transform="translate(-257.215 -97.17)" fill="#c0ab91"/>
    <path id="Trazado_24327" data-name="Trazado 24327" d="M225.114,407.989v11.421H184V401.136A9.137,9.137,0,0,1,193.136,392l4.568,13.7h13.7l4.568-13.7a9.137,9.137,0,0,1,9.136,9.136Z" transform="translate(-120.034 -268.647)" fill="#57a4ff"/>
    <path id="Trazado_24328" data-name="Trazado 24328" d="M238.841,298.284v6.852A9.136,9.136,0,0,1,231.92,314a8.92,8.92,0,0,1-2.216.274h-4.568a8.92,8.92,0,0,1-2.216-.274A9.136,9.136,0,0,1,216,305.136v-6.852h6.852L229.7,296l2.284,2.284Z" transform="translate(-142.897 -200.056)" fill="#ffdaaa"/>
    <path id="Trazado_24329" data-name="Trazado 24329" d="M238.841,273.136v2.284h-6.852l-2.284-2.284-6.852,2.284H216v-2.284A9.137,9.137,0,0,1,225.136,264H229.7A9.137,9.137,0,0,1,238.841,273.136Z" transform="translate(-142.897 -177.192)" fill="#ffde55"/>
    <path id="Trazado_24330" data-name="Trazado 24330" d="M238.841,392l-4.568,13.7h-13.7L216,392h22.841Z" transform="translate(-142.897 -268.647)" fill="#c0ab91"/>
    <path id="Trazado_24331" data-name="Trazado 24331" d="M65.114,161.136v18.273H24V161.136A9.136,9.136,0,0,1,33.136,152L37.7,165.7h13.7L55.978,152A9.136,9.136,0,0,1,65.114,161.136Z" transform="translate(-5.716 -97.17)" fill="#c0ab91"/>
    <path id="Trazado_24332" data-name="Trazado 24332" d="M78.841,62.852v2.284A9.136,9.136,0,0,1,71.92,74a8.919,8.919,0,0,1-2.216.274H65.136A8.919,8.919,0,0,1,62.921,74,9.136,9.136,0,0,1,56,65.136V58.284h6.852L69.7,56l2.284,2.284h6.852Z" transform="translate(-28.579 -28.579)" fill="#ffdaaa"/>
    <path id="Trazado_24333" data-name="Trazado 24333" d="M78.841,33.136v2.284H71.989L69.7,33.136l-6.852,2.284H56V33.136A9.136,9.136,0,0,1,65.136,24H69.7A9.136,9.136,0,0,1,78.841,33.136Z" transform="translate(-28.579 -5.716)" fill="#ffde55"/>
    <path id="Trazado_24334" data-name="Trazado 24334" d="M78.841,152l-4.568,13.7h-13.7L56,152H78.841Z" transform="translate(-28.579 -97.17)" fill="#ff7956"/>
    <path id="Trazado_24335" data-name="Trazado 24335" d="M442.273,161.136v18.273h-9.136V161.136A9.137,9.137,0,0,0,424,152h9.136A9.136,9.136,0,0,1,442.273,161.136Z" transform="translate(-291.51 -97.17)" fill="#ff5023"/>
    <path id="Trazado_24336" data-name="Trazado 24336" d="M433.136,152l-4.568,13.7H424l4.568-13.7Z" transform="translate(-291.51 -97.17)" fill="#a78966"/>
    <path id="Trazado_24337" data-name="Trazado 24337" d="M421.7,72v4.568a9.136,9.136,0,0,1-6.921,8.862,8.918,8.918,0,0,1-2.216.274H408a8.918,8.918,0,0,0,2.216-.274,9.136,9.136,0,0,0,6.921-8.862V72Z" transform="translate(-280.078 -40.011)" fill="#ffc477"/>
    <path id="Trazado_24338" data-name="Trazado 24338" d="M421.7,33.136V37.7h-4.568V33.136A9.137,9.137,0,0,0,408,24h4.568A9.137,9.137,0,0,1,421.7,33.136Z" transform="translate(-280.078 -5.716)" fill="#ffcd00"/>
    <path id="Trazado_24339" data-name="Trazado 24339" d="M409.136,119.314v9.136H400v-9.136l.069-.274a8.918,8.918,0,0,0,2.216.274h4.568a8.918,8.918,0,0,0,2.216-.274Z" transform="translate(-274.362 -73.621)" fill="#ffc477"/>
    <path id="Trazado_24340" data-name="Trazado 24340" d="M122.273,161.136v18.273h-9.136V161.136A9.136,9.136,0,0,0,104,152h9.136A9.136,9.136,0,0,1,122.273,161.136Z" transform="translate(-62.875 -97.17)" fill="#a78966"/>
    <path id="Trazado_24341" data-name="Trazado 24341" d="M113.136,152l-4.568,13.7H104l4.568-13.7Z" transform="translate(-62.875 -97.17)" fill="#ff5023"/>
    <path id="Trazado_24342" data-name="Trazado 24342" d="M101.7,72v4.568a9.136,9.136,0,0,1-6.921,8.862,8.918,8.918,0,0,1-2.216.274H88a8.918,8.918,0,0,0,2.216-.274,9.136,9.136,0,0,0,6.921-8.862V72Z" transform="translate(-51.443 -40.011)" fill="#ffc477"/>
    <path id="Trazado_24343" data-name="Trazado 24343" d="M101.7,33.136V37.7H97.136V33.136A9.136,9.136,0,0,0,88,24h4.568A9.137,9.137,0,0,1,101.7,33.136Z" transform="translate(-51.443 -5.716)" fill="#ffcd00"/>
    <path id="Trazado_24344" data-name="Trazado 24344" d="M89.136,119.314v9.136H80v-9.136l.069-.274a8.918,8.918,0,0,0,2.216.274h4.568a8.918,8.918,0,0,0,2.216-.274Z" transform="translate(-45.727 -73.621)" fill="#ffc477"/>
    <path id="Trazado_24345" data-name="Trazado 24345" d="M282.273,401.136v18.273h-9.136V401.136A9.137,9.137,0,0,0,264,392h9.136A9.136,9.136,0,0,1,282.273,401.136Z" transform="translate(-177.192 -268.647)" fill="#006df0"/>
    <path id="Trazado_24346" data-name="Trazado 24346" d="M261.7,312v4.568a9.136,9.136,0,0,1-6.921,8.862,8.92,8.92,0,0,1-2.216.274H248a8.92,8.92,0,0,0,2.216-.274,9.136,9.136,0,0,0,6.921-8.862V312Z" transform="translate(-165.761 -211.488)" fill="#ffc477"/>
    <path id="Trazado_24347" data-name="Trazado 24347" d="M261.7,273.136V277.7h-4.568v-4.568A9.136,9.136,0,0,0,248,264h4.568A9.136,9.136,0,0,1,261.7,273.136Z" transform="translate(-165.761 -177.192)" fill="#ffcd00"/>
    <path id="Trazado_24348" data-name="Trazado 24348" d="M273.136,392l-4.568,13.7H264l4.568-13.7Z" transform="translate(-177.192 -268.647)" fill="#a78966"/>
    <path id="Trazado_24349" data-name="Trazado 24349" d="M249.136,359.314v9.136H240v-9.136l.069-.274a8.917,8.917,0,0,0,2.216.274h4.568a8.917,8.917,0,0,0,2.216-.274Z" transform="translate(-160.045 -245.097)" fill="#ffc477"/>
    <path id="Trazado_24350" data-name="Trazado 24350" d="M210.262,292.546h-4.568v-5.528a11.452,11.452,0,0,0,6.852-10.461v-9.136A11.421,11.421,0,0,0,201.125,256h-4.568a11.421,11.421,0,0,0-11.421,11.421v9.136a11.452,11.452,0,0,0,6.852,10.461v5.528h-4.568A11.421,11.421,0,0,0,176,303.966v18.273a2.284,2.284,0,0,0,2.284,2.284H219.4a2.284,2.284,0,0,0,2.284-2.284V303.966A11.421,11.421,0,0,0,210.262,292.546Zm-13.7-31.978h4.568a6.873,6.873,0,0,1,6.852,6.852h-3.632l-1.6-1.622a2.3,2.3,0,0,0-2.353-.548l-6.487,2.17h-4.2A6.873,6.873,0,0,1,196.557,260.568ZM189.7,276.557v-4.568h4.568a2.709,2.709,0,0,0,.731-.114l5.5-1.85,1.279,1.3a2.359,2.359,0,0,0,1.622.662h4.568v4.568a6.873,6.873,0,0,1-6.852,6.852h-4.568A6.873,6.873,0,0,1,189.7,276.557Zm11.421,11.421v4.568h-4.568v-4.568Zm5.962,9.136-3.038,9.136H193.633l-3.038-9.136Zm10.027,22.841H180.568V303.966a6.834,6.834,0,0,1,5.276-6.647l3.974,11.946a2.316,2.316,0,0,0,2.17,1.553h13.7a2.316,2.316,0,0,0,2.17-1.553l3.974-11.946a6.834,6.834,0,0,1,5.276,6.647Z" transform="translate(-114.318 -171.477)"/>
    <path id="Trazado_24351" data-name="Trazado 24351" d="M370.262,52.546h-4.568V47.018a11.452,11.452,0,0,0,6.852-10.461V27.421A11.421,11.421,0,0,0,361.125,16h-4.568a11.421,11.421,0,0,0-11.421,11.421v9.136a11.452,11.452,0,0,0,6.852,10.461v5.528h-4.568A11.421,11.421,0,0,0,336,63.966V82.239a2.284,2.284,0,0,0,2.284,2.284H379.4a2.284,2.284,0,0,0,2.284-2.284V63.966A11.421,11.421,0,0,0,370.262,52.546Zm-13.7-31.978h4.568a6.873,6.873,0,0,1,6.852,6.852h-3.632l-1.6-1.622a2.3,2.3,0,0,0-2.353-.548l-6.487,2.17h-4.2A6.873,6.873,0,0,1,356.557,20.568ZM349.7,36.557V31.989h4.568a2.71,2.71,0,0,0,.731-.114l5.5-1.85,1.279,1.3a2.359,2.359,0,0,0,1.622.662h4.568v4.568a6.873,6.873,0,0,1-6.852,6.852h-4.568A6.873,6.873,0,0,1,349.7,36.557Zm11.421,11.421v4.568h-4.568V47.978Zm5.962,9.136-3.038,9.136H353.633L350.6,57.114Zm10.027,22.841H340.568V63.966a6.834,6.834,0,0,1,5.276-6.647l3.974,11.946a2.316,2.316,0,0,0,2.17,1.553h13.7a2.316,2.316,0,0,0,2.17-1.553l3.974-11.946a6.834,6.834,0,0,1,5.276,6.647Z" transform="translate(-228.635)"/>
    <path id="Trazado_24352" data-name="Trazado 24352" d="M50.262,52.546H45.693V47.018a11.452,11.452,0,0,0,6.852-10.461V27.421A11.421,11.421,0,0,0,41.125,16H36.557A11.421,11.421,0,0,0,25.136,27.421v9.136a11.452,11.452,0,0,0,6.852,10.461v5.528H27.421A11.421,11.421,0,0,0,16,63.966V82.239a2.284,2.284,0,0,0,2.284,2.284H59.4a2.284,2.284,0,0,0,2.284-2.284V63.966A11.421,11.421,0,0,0,50.262,52.546Zm-13.7-31.978h4.568a6.873,6.873,0,0,1,6.852,6.852H44.346l-1.6-1.622a2.3,2.3,0,0,0-2.353-.548l-6.487,2.17H29.7A6.873,6.873,0,0,1,36.557,20.568ZM29.7,36.557V31.989h4.568A2.71,2.71,0,0,0,35,31.875l5.5-1.85,1.279,1.3a2.359,2.359,0,0,0,1.622.662h4.568v4.568a6.873,6.873,0,0,1-6.852,6.852H36.557A6.873,6.873,0,0,1,29.7,36.557ZM41.125,47.978v4.568H36.557V47.978Zm5.962,9.136-3.038,9.136H33.633L30.6,57.114ZM57.114,79.955H20.568V63.966a6.834,6.834,0,0,1,5.276-6.647l3.974,11.946a2.316,2.316,0,0,0,2.17,1.553h13.7a2.316,2.316,0,0,0,2.17-1.553L51.838,57.32a6.834,6.834,0,0,1,5.276,6.647Z"/>
    <path id="Trazado_24353" data-name="Trazado 24353" d="M88,272h4.568v4.568H88Z" transform="translate(-51.443 -182.908)"/>
    <path id="Trazado_24354" data-name="Trazado 24354" d="M144,440h4.568v4.568H144Z" transform="translate(-91.454 -302.942)"/>
    <path id="Trazado_24355" data-name="Trazado 24355" d="M92.568,304H88v41.114a2.284,2.284,0,0,0,2.284,2.284h9.136V342.83H92.568Z" transform="translate(-51.443 -205.772)"/>
    <path id="Trazado_24356" data-name="Trazado 24356" d="M408,272h4.568v4.568H408Z" transform="translate(-280.078 -182.908)"/>
    <path id="Trazado_24357" data-name="Trazado 24357" d="M352,440h4.568v4.568H352Z" transform="translate(-240.067 -302.942)"/>
    <path id="Trazado_24358" data-name="Trazado 24358" d="M390.852,342.83H384V347.4h9.136a2.284,2.284,0,0,0,2.284-2.284V304h-4.568Z" transform="translate(-262.931 -205.772)"/>
    <path id="Trazado_24359" data-name="Trazado 24359" d="M160,72h4.568v4.568H160Z" transform="translate(-102.886 -40.011)"/>
    <path id="Trazado_24360" data-name="Trazado 24360" d="M336,72h4.568v4.568H336Z" transform="translate(-228.635 -40.011)"/>
    <path id="Trazado_24361" data-name="Trazado 24361" d="M192,72h36.546v4.568H192Z" transform="translate(-125.749 -40.011)"/>
  </g>
</svg>
