<svg xmlns="http://www.w3.org/2000/svg" width="742.133" height="413.424" viewBox="0 0 742.133 413.424">
  <g id="Grupo_16089" data-name="Grupo 16089" transform="translate(-162.16 -181.825)">
    <g id="Grupo_15989" data-name="Grupo 15989" transform="translate(267.393 258.412)">
      <path id="Trazado_26289" data-name="Trazado 26289" d="M1100.37,543.98h-18.023v-40.2c-.28-.16-.557-.32-.834-.48h-5.373v-.02h-31.262v.02h-.026v6.027h.026v4.144h-.026v6.025h.026v4.159h-.026v6.027h.026v.021l-3.312-.021V498.155h-35.079v3.993h-.017v6.025h.017v5.3h-.017v6.025h.017v4.159h-.017v6.027h.017v3.849h-.017v6.027h.017V543.4h-.017v6.027h.017v3.624h-.017v3.827h.017v.417h-39.54v34.489H952.175v8.686H936.248V585.511H907.6V544.864h-4.481v-4.049h-.641v4.049h-3.716v-.007H880.175v-4.043h-.641v4.043h-4.842V565.3l-24.066-.112V577.8H830.221V499.81H769.768v83.553H751.306V538.183H690.853v292.3l413.094-1.575Z" transform="translate(-660.548 -493.647)" fill="#dfebfa"/>
      <path id="Trazado_26290" data-name="Trazado 26290" d="M603,861.9v237.081H572.643V861.9Z" transform="translate(-572.643 -764.142)" fill="#dfebfa"/>
      <rect id="Rectángulo_4027" data-name="Rectángulo 4027" width="44.899" height="13.22" transform="translate(124.773 6.164)" fill="#eef6ff"/>
      <rect id="Rectángulo_4028" data-name="Rectángulo 4028" width="44.899" height="13.22" transform="translate(124.773 26.512)" fill="#eef6ff"/>
      <rect id="Rectángulo_4029" data-name="Rectángulo 4029" width="44.899" height="13.22" transform="translate(124.773 47.285)" fill="#eef6ff"/>
      <rect id="Rectángulo_4030" data-name="Rectángulo 4030" width="44.899" height="13.22" transform="translate(124.773 68.389)" fill="#eef6ff"/>
      <rect id="Rectángulo_4031" data-name="Rectángulo 4031" width="44.899" height="13.22" transform="translate(124.773 88.752)" fill="#eef6ff"/>
      <g id="Grupo_15984" data-name="Grupo 15984" transform="translate(345.946 4.508)">
        <rect id="Rectángulo_4032" data-name="Rectángulo 4032" width="22.45" height="8.029" fill="#eef6ff"/>
        <rect id="Rectángulo_4033" data-name="Rectángulo 4033" width="22.45" height="8.029" transform="translate(0 12.358)" fill="#eef6ff"/>
        <rect id="Rectángulo_4034" data-name="Rectángulo 4034" width="22.45" height="8.029" transform="translate(0 24.974)" fill="#eef6ff"/>
        <rect id="Rectángulo_4035" data-name="Rectángulo 4035" width="22.45" height="8.029" transform="translate(0 37.79)" fill="#eef6ff"/>
        <rect id="Rectángulo_4036" data-name="Rectángulo 4036" width="22.45" height="8.029" transform="translate(0 50.157)" fill="#eef6ff"/>
      </g>
      <g id="Grupo_15985" data-name="Grupo 15985" transform="translate(345.946 68.276)">
        <rect id="Rectángulo_4037" data-name="Rectángulo 4037" width="22.45" height="8.029" fill="#eef6ff"/>
        <rect id="Rectángulo_4038" data-name="Rectángulo 4038" width="22.45" height="8.029" transform="translate(0 12.358)" fill="#eef6ff"/>
        <rect id="Rectángulo_4039" data-name="Rectángulo 4039" width="22.45" height="8.029" transform="translate(0 24.974)" fill="#eef6ff"/>
        <rect id="Rectángulo_4040" data-name="Rectángulo 4040" width="22.45" height="8.029" transform="translate(0 37.79)" fill="#eef6ff"/>
        <rect id="Rectángulo_4041" data-name="Rectángulo 4041" width="22.45" height="8.029" transform="translate(0 50.157)" fill="#eef6ff"/>
      </g>
      <g id="Grupo_15986" data-name="Grupo 15986" transform="translate(384.373 9.774)">
        <rect id="Rectángulo_4042" data-name="Rectángulo 4042" width="22.45" height="8.029" fill="#eef6ff"/>
        <rect id="Rectángulo_4043" data-name="Rectángulo 4043" width="22.45" height="8.029" transform="translate(0 12.358)" fill="#eef6ff"/>
        <rect id="Rectángulo_4044" data-name="Rectángulo 4044" width="22.45" height="8.029" transform="translate(0 24.974)" fill="#eef6ff"/>
        <rect id="Rectángulo_4045" data-name="Rectángulo 4045" width="22.45" height="8.029" transform="translate(0 37.79)" fill="#eef6ff"/>
        <rect id="Rectángulo_4046" data-name="Rectángulo 4046" width="22.45" height="8.029" transform="translate(0 50.157)" fill="#eef6ff"/>
      </g>
      <g id="Grupo_15987" data-name="Grupo 15987" transform="translate(384.373 72.823)">
        <rect id="Rectángulo_4047" data-name="Rectángulo 4047" width="22.45" height="8.029" fill="#eef6ff"/>
        <rect id="Rectángulo_4048" data-name="Rectángulo 4048" width="22.45" height="8.029" transform="translate(0 12.358)" fill="#eef6ff"/>
        <rect id="Rectángulo_4049" data-name="Rectángulo 4049" width="22.45" height="8.029" transform="translate(0 24.974)" fill="#eef6ff"/>
        <rect id="Rectángulo_4050" data-name="Rectángulo 4050" width="22.45" height="8.029" transform="translate(0 37.79)" fill="#eef6ff"/>
        <rect id="Rectángulo_4051" data-name="Rectángulo 4051" width="22.45" height="8.029" transform="translate(0 50.157)" fill="#eef6ff"/>
      </g>
      <g id="Grupo_15988" data-name="Grupo 15988" transform="translate(384.373 137.163)">
        <rect id="Rectángulo_4052" data-name="Rectángulo 4052" width="22.45" height="8.029" fill="#eef6ff"/>
        <rect id="Rectángulo_4053" data-name="Rectángulo 4053" width="22.45" height="8.029" transform="translate(0 12.358)" fill="#eef6ff"/>
        <rect id="Rectángulo_4054" data-name="Rectángulo 4054" width="22.45" height="8.029" transform="translate(0 24.973)" fill="#eef6ff"/>
        <rect id="Rectángulo_4055" data-name="Rectángulo 4055" width="22.45" height="8.029" transform="translate(0 37.79)" fill="#eef6ff"/>
        <rect id="Rectángulo_4056" data-name="Rectángulo 4056" width="22.45" height="8.029" transform="translate(0 50.157)" fill="#eef6ff"/>
      </g>
      <rect id="Rectángulo_4057" data-name="Rectángulo 4057" width="1.114" height="16.381" transform="translate(313.761 47.564)" fill="#dfebfa"/>
      <rect id="Rectángulo_4058" data-name="Rectángulo 4058" width="1.732" height="31.723" transform="translate(332.529 33.496)" fill="#dfebfa"/>
      <rect id="Rectángulo_4059" data-name="Rectángulo 4059" width="0.722" height="5.841" transform="translate(113.233 0.322)" fill="#dfebfa"/>
      <rect id="Rectángulo_4060" data-name="Rectángulo 4060" width="0.722" height="5.841" transform="translate(128.536 0.322)" fill="#dfebfa"/>
      <rect id="Rectángulo_4061" data-name="Rectángulo 4061" width="0.722" height="5.841" transform="translate(163.618 0.322)" fill="#dfebfa"/>
      <rect id="Rectángulo_4062" data-name="Rectángulo 4062" width="0.557" height="4.508" transform="translate(349.421)" fill="#dfebfa"/>
      <rect id="Rectángulo_4063" data-name="Rectángulo 4063" width="0.557" height="4.508" transform="translate(375.756)" fill="#dfebfa"/>
      <rect id="Rectángulo_4064" data-name="Rectángulo 4064" width="0.722" height="5.841" transform="translate(149.903 0.322)" fill="#dfebfa"/>
    </g>
    <path id="Trazado_26291" data-name="Trazado 26291" d="M1431.736,651.2c-6.135-15.315-32.246-7.247-32.246-7.247s-14.882,29.8-20.077,31.076,7.749-27.963,7.749-27.963c-10.33.207-34.9,15.776-34.9,15.776s5.428,32.1.079,32.057-3.356-28.667-3.356-28.667c-9.538,4.123-17.414,16.735-17.414,16.735-9.334,20.132,17,31.078,17,31.078s1.641,11.165-3.774,24.825h0a38.392,38.392,0,0,0-2.4,6.774l2.695-.315q.2-1.123.487-2.178a.016.016,0,0,1,0-.013c0-.01.006-.02.008-.03.136-.438.332-1.062.578-1.823v0s0,0,0,0c.635-1.708,1.051-2.964,1.3-3.865a.071.071,0,0,0,0-.008c1.875-5.348,4.657-12.357,6.865-14.017a5.25,5.25,0,0,1-.721-1.169l.721,1.169c5.77,9.345,29.029,8.292,41.571,4.151s6.516-7.109-1.092-12.182-21.925-1.824-26.479-3.629,1.437-4.844,10.081-5.189,13.931,7.722,27.925,7.419,21.49-27.567,21.49-27.567c-9.208,4.084-26.96.818-28-2.4s24.366-5.859,28.2-7.31S1437.871,666.514,1431.736,651.2Z" transform="translate(-868.13 -342.075)" fill="#afcdfb"/>
    <path id="Trazado_26292" data-name="Trazado 26292" d="M2027.572,1454.055c-4.438-20.435-38.775-15.853-38.775-15.853s-24.88,34.111-31.642,34.612,15.577-33.318,15.577-33.318c-12.954-1.918-46.94,12.365-46.94,12.365s.021,41.261-6.656,40.082,1.846-36.536,1.846-36.536c-12.791,3.144-25.292,17.246-25.292,17.246-15.908,23.2,14.7,42.426,14.7,42.426a54.456,54.456,0,0,1-2.122,12.161q-.266.956-.583,1.969h6.336a7.256,7.256,0,0,1,1.611-1.233,10.8,10.8,0,0,0,.592,1.233h54.638c-.678-.634-1.39-1.288-2.119-1.969-.272-.255-.548-.511-.828-.773-8.441-7.944-27.02-6.9-32.33-10.113s2.817-5.753,13.694-4.363,15.785,12.586,33.338,15.158q.4.061.807.092a14.029,14.029,0,0,0,2.425,0c16.136-1.424,29.438-30.017,29.438-30.017-12.372,3.165-33.869-4.66-34.5-8.9s31.686-2.19,36.792-3.2S2032.014,1474.49,2027.572,1454.055Zm-111.943,73.914a4.85,4.85,0,0,1-.351-.729,8.505,8.505,0,0,1-.3-.879c.116.286.235.579.354.879C1915.431,1527.479,1915.53,1527.721,1915.629,1527.97Z" transform="translate(-1285.708 -933.961)" fill="#c7dcfb"/>
    <path id="Trazado_26293" data-name="Trazado 26293" d="M324.619,813.3c3.875-14.892,28.985-10.5,28.985-10.5s17.276,25.824,22.233,26.393-10.459-24.963-10.459-24.963c9.583-1.023,34.144,10.493,34.144,10.493s-1.247,30.339,3.7,29.672-.266-26.92-.266-26.92c9.31,2.693,18.082,13.437,18.082,13.437,11,17.53-12.074,30.756-12.074,30.756s-.205,10.523,6.412,22.527h0a35.784,35.784,0,0,1,3.017,5.986l-2.531.025q-.32-1.015-.706-1.958a.016.016,0,0,0-.005-.012l-.011-.027c-.177-.389-.432-.943-.749-1.618v0s0,0,0,0c-.788-1.506-1.322-2.619-1.66-3.423a.025.025,0,0,1,0-.007c-2.364-4.728-5.763-10.886-8-12.162a4.909,4.909,0,0,0,.53-1.166l-.53,1.166c-4.24,9.326-25.885,11.087-37.977,8.731s-6.866-5.812-.422-11.4,20.073-4.267,24.074-6.473-1.9-4.314-9.938-3.615-11.982,8.784-24.966,10.15-23.127-22.981-23.127-22.981c9,2.7,25.042-2.414,25.631-5.514s-23.235-2.555-26.957-3.447S320.744,828.2,324.619,813.3Z" transform="translate(-119.931 -461.333)" fill="#afcdfb" opacity="0.5"/>
    <path id="Trazado_26294" data-name="Trazado 26294" d="M904.293,1787.63v.286a.843.843,0,0,1-.841.841H163a.845.845,0,0,1-.841-.841v-.286a.846.846,0,0,1,.841-.841h740.45A.843.843,0,0,1,904.293,1787.63Z" transform="translate(0 -1193.509)" fill="#2e3552"/>
    <path id="Trazado_26295" data-name="Trazado 26295" d="M902.153,1102.55l-297.225,4.416a4.96,4.96,0,0,1-4.881-3.738L543.362,880.169a4.96,4.96,0,0,1,4.786-6.182l298.024-1.272A4.96,4.96,0,0,1,851,876.453l55.886,219.915A4.96,4.96,0,0,1,902.153,1102.55Z" transform="translate(-283.36 -513.771)" fill="#162b4c"/>
    <path id="Trazado_26296" data-name="Trazado 26296" d="M921.2,1102.515l-293.778,1.253c-3.222.014-7.764,2.065-8.557-1.058l-53.1-219.965A7.02,7.02,0,0,1,572.54,874l293.778-1.254a7.02,7.02,0,0,1,6.834,5.291l54.823,215.733A7.02,7.02,0,0,1,921.2,1102.515Z" transform="translate(-299.973 -513.791)" fill="#233862"/>
    <path id="Trazado_26297" data-name="Trazado 26297" d="M934.2,1106.55l-111.957.473-47.134.2-128.1.542a3.324,3.324,0,0,1-3.229-2.5L593.96,911l-4.18-16.306a3.32,3.32,0,0,1,3.2-4.146l281.576-1.192,5.617-.024a3.32,3.32,0,0,1,3.229,2.5L888.32,911l12.7,49.535,11.279,43.983,25.1,97.885A3.32,3.32,0,0,1,934.2,1106.55Z" transform="translate(-317.915 -526.128)" fill="#9cc4ff"/>
    <path id="Trazado_26298" data-name="Trazado 26298" d="M888.32,911H593.96l-4.18-16.306a3.32,3.32,0,0,1,3.2-4.146l281.576-1.192,5.617-.024a3.32,3.32,0,0,1,3.229,2.5Z" transform="translate(-317.915 -526.128)" fill="#cfe3ff"/>
    <g id="Grupo_15990" data-name="Grupo 15990" transform="translate(200.863 272.699)">
      <path id="Trazado_26299" data-name="Trazado 26299" d="M346.68,580.007l-33.551,4.786,22.265-15.176,1.132,4.865,8.159,1.478Z" transform="translate(-313.128 -561.076)" fill="#9ec3f6"/>
      <path id="Trazado_26300" data-name="Trazado 26300" d="M313.128,583.065l27.92-14.4,27.365-1.376Z" transform="translate(-313.128 -559.348)" fill="#fff"/>
      <path id="Trazado_26301" data-name="Trazado 26301" d="M335.393,544.84l-22.265,15.176L330.365,536.3Z" transform="translate(-313.128 -536.298)" fill="#fff"/>
    </g>
    <g id="Grupo_15991" data-name="Grupo 15991" transform="translate(748.692 280.876)">
      <path id="Trazado_26302" data-name="Trazado 26302" d="M2538.72,613.915l35.094,5.006-23.289-15.874-1.184,5.089-8.535,1.546Z" transform="translate(-2515.987 -594.113)" fill="#9ec3f6"/>
      <path id="Trazado_26303" data-name="Trazado 26303" d="M2507.873,617.114l-29.2-15.057-28.623-1.44Z" transform="translate(-2450.046 -592.305)" fill="#fff"/>
      <path id="Trazado_26304" data-name="Trazado 26304" d="M2584.77,577.13,2608.058,593,2590.03,568.2Z" transform="translate(-2550.231 -568.195)" fill="#fff"/>
    </g>
    <g id="Grupo_16073" data-name="Grupo 16073" transform="translate(395.417 181.825)">
      <g id="Grupo_15992" data-name="Grupo 15992" transform="translate(87.681 71.779)">
        <circle id="Elipse_1071" data-name="Elipse 1071" cx="12.37" cy="12.37" r="12.37" fill="#d5e5fb"/>
      </g>
      <g id="Grupo_15993" data-name="Grupo 15993" transform="translate(93.103 75.216)">
        <path id="Trazado_26305" data-name="Trazado 26305" d="M1446.81,479.191a3.97,3.97,0,1,1,3.97,3.97A3.971,3.971,0,0,1,1446.81,479.191Z" transform="translate(-1443.832 -475.221)" fill="#fff"/>
        <path id="Trazado_26306" data-name="Trazado 26306" d="M1442.143,506.195a6.949,6.949,0,0,0-6.948,6.948h13.9A6.948,6.948,0,0,0,1442.143,506.195Z" transform="translate(-1435.195 -498.254)" fill="#fff"/>
      </g>
      <g id="Grupo_15994" data-name="Grupo 15994" transform="translate(0 42.621)">
        <circle id="Elipse_1072" data-name="Elipse 1072" cx="8.345" cy="8.345" r="8.345" transform="translate(0 16.681) rotate(-88.093)" fill="#c6dcf7"/>
      </g>
      <g id="Grupo_15995" data-name="Grupo 15995" transform="translate(3.931 44.669)">
        <circle id="Elipse_1073" data-name="Elipse 1073" cx="2.678" cy="2.678" r="2.678" transform="translate(1.465 5.214) rotate(-76.718)" fill="#fff"/>
        <path id="Trazado_26307" data-name="Trazado 26307" d="M1092.047,379.083a4.687,4.687,0,0,0-4.687,4.687h9.374A4.687,4.687,0,0,0,1092.047,379.083Z" transform="translate(-1087.36 -373.182)" fill="#fff"/>
      </g>
      <g id="Grupo_16010" data-name="Grupo 16010" transform="translate(68.089 8.828)">
        <g id="Grupo_16002" data-name="Grupo 16002">
          <g id="Grupo_15998" data-name="Grupo 15998">
            <g id="Grupo_15996" data-name="Grupo 15996">
              <path id="Trazado_26308" data-name="Trazado 26308" d="M1337.654,216.772a.726.726,0,1,1,.481.908A.727.727,0,0,1,1337.654,216.772Z" transform="translate(-1337.622 -216.259)" fill="#d5e5fb"/>
              <path id="Trazado_26309" data-name="Trazado 26309" d="M1350.187,220.629a.726.726,0,1,1,.481.908A.726.726,0,0,1,1350.187,220.629Z" transform="translate(-1346.942 -219.127)" fill="#d5e5fb"/>
              <path id="Trazado_26310" data-name="Trazado 26310" d="M1363.366,225.443a.726.726,0,1,1,.908-.481A.726.726,0,0,1,1363.366,225.443Z" transform="translate(-1356.385 -222.032)" fill="#d5e5fb"/>
            </g>
            <g id="Grupo_15997" data-name="Grupo 15997" transform="translate(9.724 2.992)">
              <path id="Trazado_26311" data-name="Trazado 26311" d="M1375.583,228.443a.726.726,0,1,1,.481.908A.726.726,0,0,1,1375.583,228.443Z" transform="translate(-1375.551 -227.93)" fill="#d5e5fb"/>
              <path id="Trazado_26312" data-name="Trazado 26312" d="M1388.116,232.3a.727.727,0,1,1,.481.908A.727.727,0,0,1,1388.116,232.3Z" transform="translate(-1384.871 -230.797)" fill="#d5e5fb"/>
              <path id="Trazado_26313" data-name="Trazado 26313" d="M1401.295,237.113a.726.726,0,1,1,.908-.481A.726.726,0,0,1,1401.295,237.113Z" transform="translate(-1394.314 -233.702)" fill="#d5e5fb"/>
            </g>
          </g>
          <g id="Grupo_16001" data-name="Grupo 16001" transform="translate(19.317 5.944)">
            <g id="Grupo_15999" data-name="Grupo 15999">
              <path id="Trazado_26314" data-name="Trazado 26314" d="M1413,239.956a.726.726,0,1,1,.481.908A.727.727,0,0,1,1413,239.956Z" transform="translate(-1412.972 -239.443)" fill="#d5e5fb"/>
              <path id="Trazado_26315" data-name="Trazado 26315" d="M1425.537,243.812a.727.727,0,1,1,.481.908A.727.727,0,0,1,1425.537,243.812Z" transform="translate(-1422.292 -242.311)" fill="#d5e5fb"/>
              <path id="Trazado_26316" data-name="Trazado 26316" d="M1438.716,248.627a.726.726,0,1,1,.908-.481A.727.727,0,0,1,1438.716,248.627Z" transform="translate(-1431.735 -245.216)" fill="#d5e5fb"/>
            </g>
            <g id="Grupo_16000" data-name="Grupo 16000" transform="translate(9.724 2.992)">
              <path id="Trazado_26317" data-name="Trazado 26317" d="M1450.933,251.626a.726.726,0,1,1,.481.908A.727.727,0,0,1,1450.933,251.626Z" transform="translate(-1450.901 -251.113)" fill="#d5e5fb"/>
              <path id="Trazado_26318" data-name="Trazado 26318" d="M1463.466,255.483a.726.726,0,1,1,.481.908A.726.726,0,0,1,1463.466,255.483Z" transform="translate(-1460.221 -253.981)" fill="#d5e5fb"/>
              <path id="Trazado_26319" data-name="Trazado 26319" d="M1476.645,260.3a.726.726,0,1,1,.908-.481A.726.726,0,0,1,1476.645,260.3Z" transform="translate(-1469.664 -256.886)" fill="#d5e5fb"/>
            </g>
          </g>
        </g>
        <g id="Grupo_16009" data-name="Grupo 16009" transform="translate(38.773 11.93)">
          <g id="Grupo_16005" data-name="Grupo 16005">
            <g id="Grupo_16003" data-name="Grupo 16003">
              <path id="Trazado_26320" data-name="Trazado 26320" d="M1488.9,263.306a.726.726,0,1,1,.481.908A.726.726,0,0,1,1488.9,263.306Z" transform="translate(-1488.863 -262.793)" fill="#d5e5fb"/>
              <path id="Trazado_26321" data-name="Trazado 26321" d="M1501.427,267.163a.727.727,0,1,1,.481.908A.727.727,0,0,1,1501.427,267.163Z" transform="translate(-1498.182 -265.661)" fill="#d5e5fb"/>
              <path id="Trazado_26322" data-name="Trazado 26322" d="M1514.607,271.978a.727.727,0,1,1,.908-.481A.727.727,0,0,1,1514.607,271.978Z" transform="translate(-1507.626 -268.567)" fill="#d5e5fb"/>
            </g>
            <g id="Grupo_16004" data-name="Grupo 16004" transform="translate(9.724 2.992)">
              <path id="Trazado_26323" data-name="Trazado 26323" d="M1526.824,274.977a.726.726,0,1,1,.481.908A.726.726,0,0,1,1526.824,274.977Z" transform="translate(-1526.792 -274.464)" fill="#d5e5fb"/>
              <path id="Trazado_26324" data-name="Trazado 26324" d="M1539.357,278.833a.727.727,0,1,1,.481.908A.727.727,0,0,1,1539.357,278.833Z" transform="translate(-1536.112 -277.331)" fill="#d5e5fb"/>
              <path id="Trazado_26325" data-name="Trazado 26325" d="M1552.536,283.648a.727.727,0,1,1,.908-.481A.727.727,0,0,1,1552.536,283.648Z" transform="translate(-1545.555 -280.237)" fill="#d5e5fb"/>
            </g>
          </g>
          <g id="Grupo_16008" data-name="Grupo 16008" transform="translate(19.317 5.944)">
            <g id="Grupo_16006" data-name="Grupo 16006">
              <path id="Trazado_26326" data-name="Trazado 26326" d="M1564.245,286.491a.726.726,0,1,1,.481.908A.726.726,0,0,1,1564.245,286.491Z" transform="translate(-1564.213 -285.978)" fill="#d5e5fb"/>
              <path id="Trazado_26327" data-name="Trazado 26327" d="M1576.778,290.346a.727.727,0,1,1,.481.908A.727.727,0,0,1,1576.778,290.346Z" transform="translate(-1573.533 -288.845)" fill="#d5e5fb"/>
              <path id="Trazado_26328" data-name="Trazado 26328" d="M1589.957,295.161a.726.726,0,1,1,.908-.481A.726.726,0,0,1,1589.957,295.161Z" transform="translate(-1582.975 -291.75)" fill="#d5e5fb"/>
            </g>
            <g id="Grupo_16007" data-name="Grupo 16007" transform="translate(9.724 2.992)">
              <path id="Trazado_26329" data-name="Trazado 26329" d="M1602.174,298.16a.726.726,0,1,1,.481.908A.727.727,0,0,1,1602.174,298.16Z" transform="translate(-1602.142 -297.647)" fill="#d5e5fb"/>
              <path id="Trazado_26330" data-name="Trazado 26330" d="M1614.707,302.017a.727.727,0,1,1,.481.908A.726.726,0,0,1,1614.707,302.017Z" transform="translate(-1611.462 -300.515)" fill="#d5e5fb"/>
              <path id="Trazado_26331" data-name="Trazado 26331" d="M1627.886,306.832a.727.727,0,1,1,.908-.481A.727.727,0,0,1,1627.886,306.832Z" transform="translate(-1620.905 -303.421)" fill="#d5e5fb"/>
            </g>
          </g>
        </g>
      </g>
      <g id="Grupo_16022" data-name="Grupo 16022" transform="translate(108.422 23.79)">
        <g id="Grupo_16014" data-name="Grupo 16014" transform="translate(0 32.725)">
          <g id="Grupo_16013" data-name="Grupo 16013">
            <g id="Grupo_16011" data-name="Grupo 16011" transform="translate(0 8.207)">
              <path id="Trazado_26332" data-name="Trazado 26332" d="M1495.247,456.893a.726.726,0,1,1,1.016-.157A.727.727,0,0,1,1495.247,456.893Z" transform="translate(-1494.95 -450.121)" fill="#d5e5fb"/>
              <path id="Trazado_26333" data-name="Trazado 26333" d="M1503,446.315a.727.727,0,1,1,1.015-.157A.727.727,0,0,1,1503,446.315Z" transform="translate(-1500.712 -442.255)" fill="#d5e5fb"/>
              <path id="Trazado_26334" data-name="Trazado 26334" d="M1511.863,435.441a.726.726,0,1,1-.157-1.015A.726.726,0,0,1,1511.863,435.441Z" transform="translate(-1506.551 -434.285)" fill="#d5e5fb"/>
            </g>
            <g id="Grupo_16012" data-name="Grupo 16012" transform="translate(6.012)">
              <path id="Trazado_26335" data-name="Trazado 26335" d="M1518.7,424.88a.727.727,0,1,1,1.015-.157A.726.726,0,0,1,1518.7,424.88Z" transform="translate(-1518.401 -418.108)" fill="#d5e5fb"/>
              <path id="Trazado_26336" data-name="Trazado 26336" d="M1526.448,414.3a.726.726,0,1,1,1.016-.157A.727.727,0,0,1,1526.448,414.3Z" transform="translate(-1524.164 -410.241)" fill="#d5e5fb"/>
              <path id="Trazado_26337" data-name="Trazado 26337" d="M1535.315,403.427a.727.727,0,1,1-.157-1.015A.727.727,0,0,1,1535.315,403.427Z" transform="translate(-1530.003 -402.272)" fill="#d5e5fb"/>
            </g>
          </g>
        </g>
        <g id="Grupo_16021" data-name="Grupo 16021" transform="translate(12.029)">
          <g id="Grupo_16017" data-name="Grupo 16017" transform="translate(0 16.304)">
            <g id="Grupo_16015" data-name="Grupo 16015" transform="translate(0 8.207)">
              <path id="Trazado_26338" data-name="Trazado 26338" d="M1542.17,392.84a.727.727,0,1,1,1.015-.157A.727.727,0,0,1,1542.17,392.84Z" transform="translate(-1541.873 -386.068)" fill="#d5e5fb"/>
              <path id="Trazado_26339" data-name="Trazado 26339" d="M1549.919,382.262a.726.726,0,1,1,1.015-.157A.726.726,0,0,1,1549.919,382.262Z" transform="translate(-1547.635 -378.201)" fill="#d5e5fb"/>
              <path id="Trazado_26340" data-name="Trazado 26340" d="M1558.786,371.387a.726.726,0,1,1-.157-1.015A.726.726,0,0,1,1558.786,371.387Z" transform="translate(-1553.474 -370.231)" fill="#d5e5fb"/>
            </g>
            <g id="Grupo_16016" data-name="Grupo 16016" transform="translate(6.012)">
              <path id="Trazado_26341" data-name="Trazado 26341" d="M1565.622,360.827a.726.726,0,1,1,1.015-.157A.726.726,0,0,1,1565.622,360.827Z" transform="translate(-1565.325 -354.054)" fill="#d5e5fb"/>
              <path id="Trazado_26342" data-name="Trazado 26342" d="M1573.371,350.248a.726.726,0,1,1,1.015-.157A.727.727,0,0,1,1573.371,350.248Z" transform="translate(-1571.087 -346.188)" fill="#d5e5fb"/>
              <path id="Trazado_26343" data-name="Trazado 26343" d="M1582.238,339.374a.727.727,0,1,1-.157-1.015A.727.727,0,0,1,1582.238,339.374Z" transform="translate(-1576.926 -338.218)" fill="#d5e5fb"/>
            </g>
          </g>
          <g id="Grupo_16020" data-name="Grupo 16020" transform="translate(11.944)">
            <g id="Grupo_16018" data-name="Grupo 16018" transform="translate(0 8.207)">
              <path id="Trazado_26344" data-name="Trazado 26344" d="M1588.759,329.242a.727.727,0,1,1,1.016-.157A.727.727,0,0,1,1588.759,329.242Z" transform="translate(-1588.462 -322.47)" fill="#d5e5fb"/>
              <path id="Trazado_26345" data-name="Trazado 26345" d="M1596.508,318.664a.726.726,0,1,1,1.016-.157A.726.726,0,0,1,1596.508,318.664Z" transform="translate(-1594.224 -314.604)" fill="#d5e5fb"/>
              <path id="Trazado_26346" data-name="Trazado 26346" d="M1605.375,307.79a.727.727,0,1,1-.157-1.015A.727.727,0,0,1,1605.375,307.79Z" transform="translate(-1600.063 -306.634)" fill="#d5e5fb"/>
            </g>
            <g id="Grupo_16019" data-name="Grupo 16019" transform="translate(6.012)">
              <path id="Trazado_26347" data-name="Trazado 26347" d="M1612.21,297.229a.727.727,0,1,1,1.016-.157A.727.727,0,0,1,1612.21,297.229Z" transform="translate(-1611.913 -290.457)" fill="#d5e5fb"/>
              <path id="Trazado_26348" data-name="Trazado 26348" d="M1619.96,286.651a.726.726,0,1,1,1.015-.157A.726.726,0,0,1,1619.96,286.651Z" transform="translate(-1617.676 -282.591)" fill="#d5e5fb"/>
              <path id="Trazado_26349" data-name="Trazado 26349" d="M1628.826,275.777a.727.727,0,1,1-.157-1.015A.726.726,0,0,1,1628.826,275.777Z" transform="translate(-1623.514 -274.621)" fill="#d5e5fb"/>
            </g>
          </g>
        </g>
      </g>
      <g id="Grupo_16034" data-name="Grupo 16034" transform="translate(114.722 72.732)">
        <g id="Grupo_16026" data-name="Grupo 16026" transform="translate(0 6.562)">
          <g id="Grupo_16025" data-name="Grupo 16025">
            <g id="Grupo_16023" data-name="Grupo 16023" transform="translate(0 1.646)">
              <path id="Trazado_26350" data-name="Trazado 26350" d="M1519.534,502.66a.726.726,0,1,1,.834.6A.726.726,0,0,1,1519.534,502.66Z" transform="translate(-1519.524 -500.721)" fill="#d5e5fb"/>
              <path id="Trazado_26351" data-name="Trazado 26351" d="M1532.474,500.539a.726.726,0,1,1,.834.6A.727.727,0,0,1,1532.474,500.539Z" transform="translate(-1529.147 -499.144)" fill="#d5e5fb"/>
              <path id="Trazado_26352" data-name="Trazado 26352" d="M1546.419,498.989a.726.726,0,1,1,.6-.834A.726.726,0,0,1,1546.419,498.989Z" transform="translate(-1538.896 -497.545)" fill="#d5e5fb"/>
            </g>
            <g id="Grupo_16024" data-name="Grupo 16024" transform="translate(10.039)">
              <path id="Trazado_26353" data-name="Trazado 26353" d="M1558.695,496.24a.726.726,0,1,1,.834.6A.727.727,0,0,1,1558.695,496.24Z" transform="translate(-1558.685 -494.302)" fill="#d5e5fb"/>
              <path id="Trazado_26354" data-name="Trazado 26354" d="M1571.635,494.119a.726.726,0,1,1,.834.6A.726.726,0,0,1,1571.635,494.119Z" transform="translate(-1568.308 -492.724)" fill="#d5e5fb"/>
              <path id="Trazado_26355" data-name="Trazado 26355" d="M1585.581,492.57a.726.726,0,1,1,.6-.834A.726.726,0,0,1,1585.581,492.57Z" transform="translate(-1578.058 -491.126)" fill="#d5e5fb"/>
            </g>
          </g>
        </g>
        <g id="Grupo_16033" data-name="Grupo 16033" transform="translate(20.088)">
          <g id="Grupo_16029" data-name="Grupo 16029" transform="translate(0 3.269)">
            <g id="Grupo_16027" data-name="Grupo 16027" transform="translate(0 1.646)">
              <path id="Trazado_26356" data-name="Trazado 26356" d="M1597.89,489.815a.726.726,0,1,1,.834.6A.727.727,0,0,1,1597.89,489.815Z" transform="translate(-1597.88 -487.877)" fill="#d5e5fb"/>
              <path id="Trazado_26357" data-name="Trazado 26357" d="M1610.83,487.694a.726.726,0,1,1,.835.6A.727.727,0,0,1,1610.83,487.694Z" transform="translate(-1607.503 -486.299)" fill="#d5e5fb"/>
              <path id="Trazado_26358" data-name="Trazado 26358" d="M1624.775,486.145a.726.726,0,1,1,.6-.834A.727.727,0,0,1,1624.775,486.145Z" transform="translate(-1617.253 -484.701)" fill="#d5e5fb"/>
            </g>
            <g id="Grupo_16028" data-name="Grupo 16028" transform="translate(10.039)">
              <path id="Trazado_26359" data-name="Trazado 26359" d="M1637.051,483.4a.726.726,0,1,1,.834.6A.727.727,0,0,1,1637.051,483.4Z" transform="translate(-1637.041 -481.457)" fill="#d5e5fb"/>
              <path id="Trazado_26360" data-name="Trazado 26360" d="M1649.992,481.275a.726.726,0,1,1,.834.6A.727.727,0,0,1,1649.992,481.275Z" transform="translate(-1646.665 -479.88)" fill="#d5e5fb"/>
              <path id="Trazado_26361" data-name="Trazado 26361" d="M1663.936,479.725a.727.727,0,1,1,.6-.834A.727.727,0,0,1,1663.936,479.725Z" transform="translate(-1656.414 -478.281)" fill="#d5e5fb"/>
            </g>
          </g>
          <g id="Grupo_16032" data-name="Grupo 16032" transform="translate(19.945)">
            <g id="Grupo_16030" data-name="Grupo 16030" transform="translate(0 1.646)">
              <path id="Trazado_26362" data-name="Trazado 26362" d="M1675.688,477.063a.726.726,0,1,1,.834.6A.727.727,0,0,1,1675.688,477.063Z" transform="translate(-1675.678 -475.124)" fill="#d5e5fb"/>
              <path id="Trazado_26363" data-name="Trazado 26363" d="M1688.628,474.941a.726.726,0,1,1,.834.6A.727.727,0,0,1,1688.628,474.941Z" transform="translate(-1685.301 -473.546)" fill="#d5e5fb"/>
              <path id="Trazado_26364" data-name="Trazado 26364" d="M1702.573,473.392a.727.727,0,1,1,.6-.834A.726.726,0,0,1,1702.573,473.392Z" transform="translate(-1695.051 -471.948)" fill="#d5e5fb"/>
            </g>
            <g id="Grupo_16031" data-name="Grupo 16031" transform="translate(10.039)">
              <path id="Trazado_26365" data-name="Trazado 26365" d="M1714.849,470.643a.727.727,0,1,1,.834.6A.727.727,0,0,1,1714.849,470.643Z" transform="translate(-1714.839 -468.705)" fill="#d5e5fb"/>
              <path id="Trazado_26366" data-name="Trazado 26366" d="M1727.789,468.522a.727.727,0,1,1,.834.6A.727.727,0,0,1,1727.789,468.522Z" transform="translate(-1724.462 -467.127)" fill="#d5e5fb"/>
              <path id="Trazado_26367" data-name="Trazado 26367" d="M1741.734,466.973a.726.726,0,1,1,.6-.834A.727.727,0,0,1,1741.734,466.973Z" transform="translate(-1734.212 -465.529)" fill="#d5e5fb"/>
            </g>
          </g>
        </g>
      </g>
      <g id="Grupo_16046" data-name="Grupo 16046" transform="translate(77.178 13.431)">
        <g id="Grupo_16038" data-name="Grupo 16038" transform="translate(12.353 38.64)">
          <g id="Grupo_16037" data-name="Grupo 16037">
            <g id="Grupo_16035" data-name="Grupo 16035" transform="translate(3.098 9.69)">
              <path id="Trazado_26368" data-name="Trazado 26368" d="M1442.329,449.3a.726.726,0,1,1,.471-.913A.726.726,0,0,1,1442.329,449.3Z" transform="translate(-1439.321 -441.439)" fill="#d5e5fb"/>
              <path id="Trazado_26369" data-name="Trazado 26369" d="M1438.336,436.813a.726.726,0,1,1,.471-.913A.727.727,0,0,1,1438.336,436.813Z" transform="translate(-1436.351 -432.151)" fill="#d5e5fb"/>
              <path id="Trazado_26370" data-name="Trazado 26370" d="M1434.761,423.246a.727.727,0,1,1-.913-.471A.726.726,0,0,1,1434.761,423.246Z" transform="translate(-1433.343 -422.74)" fill="#d5e5fb"/>
            </g>
            <g id="Grupo_16036" data-name="Grupo 16036">
              <path id="Trazado_26371" data-name="Trazado 26371" d="M1430.245,411.5a.726.726,0,1,1,.471-.913A.726.726,0,0,1,1430.245,411.5Z" transform="translate(-1427.236 -403.639)" fill="#d5e5fb"/>
              <path id="Trazado_26372" data-name="Trazado 26372" d="M1426.252,399.014a.727.727,0,1,1,.471-.913A.727.727,0,0,1,1426.252,399.014Z" transform="translate(-1424.267 -394.351)" fill="#d5e5fb"/>
              <path id="Trazado_26373" data-name="Trazado 26373" d="M1422.677,385.446a.726.726,0,1,1-.913-.471A.726.726,0,0,1,1422.677,385.446Z" transform="translate(-1421.258 -384.941)" fill="#d5e5fb"/>
            </g>
          </g>
        </g>
        <g id="Grupo_16045" data-name="Grupo 16045">
          <g id="Grupo_16041" data-name="Grupo 16041" transform="translate(6.154 19.251)">
            <g id="Grupo_16039" data-name="Grupo 16039" transform="translate(3.098 9.69)">
              <path id="Trazado_26374" data-name="Trazado 26374" d="M1418.151,373.673a.727.727,0,1,1,.471-.913A.727.727,0,0,1,1418.151,373.673Z" transform="translate(-1415.142 -365.808)" fill="#d5e5fb"/>
              <path id="Trazado_26375" data-name="Trazado 26375" d="M1414.158,361.182a.726.726,0,1,1,.471-.913A.726.726,0,0,1,1414.158,361.182Z" transform="translate(-1412.173 -356.519)" fill="#d5e5fb"/>
              <path id="Trazado_26376" data-name="Trazado 26376" d="M1410.583,347.614a.726.726,0,1,1-.913-.471A.726.726,0,0,1,1410.583,347.614Z" transform="translate(-1409.164 -347.109)" fill="#d5e5fb"/>
            </g>
            <g id="Grupo_16040" data-name="Grupo 16040">
              <path id="Trazado_26377" data-name="Trazado 26377" d="M1406.067,335.873a.726.726,0,1,1,.471-.913A.726.726,0,0,1,1406.067,335.873Z" transform="translate(-1403.058 -328.008)" fill="#d5e5fb"/>
              <path id="Trazado_26378" data-name="Trazado 26378" d="M1402.074,323.383a.726.726,0,1,1,.471-.913A.727.727,0,0,1,1402.074,323.383Z" transform="translate(-1400.089 -318.72)" fill="#d5e5fb"/>
              <path id="Trazado_26379" data-name="Trazado 26379" d="M1398.5,309.815a.726.726,0,1,1-.913-.471A.726.726,0,0,1,1398.5,309.815Z" transform="translate(-1397.08 -309.31)" fill="#d5e5fb"/>
            </g>
          </g>
          <g id="Grupo_16044" data-name="Grupo 16044">
            <g id="Grupo_16042" data-name="Grupo 16042" transform="translate(3.098 9.691)">
              <path id="Trazado_26380" data-name="Trazado 26380" d="M1394.145,298.58a.726.726,0,1,1,.47-.913A.726.726,0,0,1,1394.145,298.58Z" transform="translate(-1391.136 -290.715)" fill="#d5e5fb"/>
              <path id="Trazado_26381" data-name="Trazado 26381" d="M1390.152,286.09a.726.726,0,1,1,.471-.913A.727.727,0,0,1,1390.152,286.09Z" transform="translate(-1388.167 -281.427)" fill="#d5e5fb"/>
              <path id="Trazado_26382" data-name="Trazado 26382" d="M1386.577,272.522a.726.726,0,1,1-.913-.471A.726.726,0,0,1,1386.577,272.522Z" transform="translate(-1385.158 -272.017)" fill="#d5e5fb"/>
            </g>
            <g id="Grupo_16043" data-name="Grupo 16043">
              <path id="Trazado_26383" data-name="Trazado 26383" d="M1382.061,260.781a.726.726,0,1,1,.471-.913A.727.727,0,0,1,1382.061,260.781Z" transform="translate(-1379.052 -252.916)" fill="#d5e5fb"/>
              <path id="Trazado_26384" data-name="Trazado 26384" d="M1378.068,248.291a.727.727,0,1,1,.471-.913A.727.727,0,0,1,1378.068,248.291Z" transform="translate(-1376.083 -243.628)" fill="#d5e5fb"/>
              <path id="Trazado_26385" data-name="Trazado 26385" d="M1374.493,234.722a.726.726,0,1,1-.913-.471A.726.726,0,0,1,1374.493,234.722Z" transform="translate(-1373.074 -234.217)" fill="#d5e5fb"/>
            </g>
          </g>
        </g>
      </g>
      <g id="Grupo_16058" data-name="Grupo 16058" transform="translate(13.137 13.359)">
        <g id="Grupo_16050" data-name="Grupo 16050" transform="translate(0 23.044)">
          <g id="Grupo_16049" data-name="Grupo 16049">
            <g id="Grupo_16047" data-name="Grupo 16047" transform="translate(0 5.779)">
              <path id="Trazado_26386" data-name="Trazado 26386" d="M1123.4,362.5a.726.726,0,1,1,1.01.185A.726.726,0,0,1,1123.4,362.5Z" transform="translate(-1123.269 -357.516)" fill="#d5e5fb"/>
              <path id="Trazado_26387" data-name="Trazado 26387" d="M1134.19,355.051a.726.726,0,1,1,1.01.185A.726.726,0,0,1,1134.19,355.051Z" transform="translate(-1131.294 -351.977)" fill="#d5e5fb"/>
              <path id="Trazado_26388" data-name="Trazado 26388" d="M1146.134,347.689a.726.726,0,1,1,.185-1.011A.727.727,0,0,1,1146.134,347.689Z" transform="translate(-1139.425 -346.365)" fill="#d5e5fb"/>
            </g>
            <g id="Grupo_16048" data-name="Grupo 16048" transform="translate(8.373)">
              <path id="Trazado_26389" data-name="Trazado 26389" d="M1156.058,339.957a.726.726,0,1,1,1.01.185A.726.726,0,0,1,1156.058,339.957Z" transform="translate(-1155.929 -334.974)" fill="#d5e5fb"/>
              <path id="Trazado_26390" data-name="Trazado 26390" d="M1166.849,332.508a.726.726,0,1,1,1.01.185A.726.726,0,0,1,1166.849,332.508Z" transform="translate(-1163.954 -329.434)" fill="#d5e5fb"/>
              <path id="Trazado_26391" data-name="Trazado 26391" d="M1178.794,325.147a.726.726,0,1,1,.185-1.011A.727.727,0,0,1,1178.794,325.147Z" transform="translate(-1172.085 -323.822)" fill="#d5e5fb"/>
            </g>
          </g>
        </g>
        <g id="Grupo_16057" data-name="Grupo 16057" transform="translate(16.753)">
          <g id="Grupo_16053" data-name="Grupo 16053" transform="translate(0 11.481)">
            <g id="Grupo_16051" data-name="Grupo 16051" transform="translate(0 5.779)">
              <path id="Trazado_26392" data-name="Trazado 26392" d="M1188.745,317.4a.726.726,0,1,1,1.011.185A.727.727,0,0,1,1188.745,317.4Z" transform="translate(-1188.616 -312.412)" fill="#d5e5fb"/>
              <path id="Trazado_26393" data-name="Trazado 26393" d="M1199.537,309.947a.726.726,0,1,1,1.011.185A.726.726,0,0,1,1199.537,309.947Z" transform="translate(-1196.641 -306.873)" fill="#d5e5fb"/>
              <path id="Trazado_26394" data-name="Trazado 26394" d="M1211.481,302.585a.726.726,0,1,1,.185-1.011A.727.727,0,0,1,1211.481,302.585Z" transform="translate(-1204.772 -301.261)" fill="#d5e5fb"/>
            </g>
            <g id="Grupo_16052" data-name="Grupo 16052" transform="translate(8.373)">
              <path id="Trazado_26395" data-name="Trazado 26395" d="M1221.4,294.853a.727.727,0,1,1,1.011.185A.726.726,0,0,1,1221.4,294.853Z" transform="translate(-1221.276 -289.87)" fill="#d5e5fb"/>
              <path id="Trazado_26396" data-name="Trazado 26396" d="M1232.2,287.4a.726.726,0,1,1,1.011.185A.726.726,0,0,1,1232.2,287.4Z" transform="translate(-1229.301 -284.33)" fill="#d5e5fb"/>
              <path id="Trazado_26397" data-name="Trazado 26397" d="M1244.141,280.042a.726.726,0,1,1,.185-1.011A.727.727,0,0,1,1244.141,280.042Z" transform="translate(-1237.432 -278.718)" fill="#d5e5fb"/>
            </g>
          </g>
          <g id="Grupo_16056" data-name="Grupo 16056" transform="translate(16.633)">
            <g id="Grupo_16054" data-name="Grupo 16054" transform="translate(0 5.779)">
              <path id="Trazado_26398" data-name="Trazado 26398" d="M1253.627,272.613a.726.726,0,1,1,1.01.185A.726.726,0,0,1,1253.627,272.613Z" transform="translate(-1253.498 -267.629)" fill="#d5e5fb"/>
              <path id="Trazado_26399" data-name="Trazado 26399" d="M1264.419,265.164a.726.726,0,1,1,1.01.185A.727.727,0,0,1,1264.419,265.164Z" transform="translate(-1261.524 -262.09)" fill="#d5e5fb"/>
              <path id="Trazado_26400" data-name="Trazado 26400" d="M1276.363,257.8a.726.726,0,1,1,.185-1.011A.726.726,0,0,1,1276.363,257.8Z" transform="translate(-1269.654 -256.478)" fill="#d5e5fb"/>
            </g>
            <g id="Grupo_16055" data-name="Grupo 16055" transform="translate(8.373)">
              <path id="Trazado_26401" data-name="Trazado 26401" d="M1286.286,250.07a.727.727,0,1,1,1.011.185A.727.727,0,0,1,1286.286,250.07Z" transform="translate(-1286.158 -245.087)" fill="#d5e5fb"/>
              <path id="Trazado_26402" data-name="Trazado 26402" d="M1297.079,242.622a.726.726,0,1,1,1.01.185A.726.726,0,0,1,1297.079,242.622Z" transform="translate(-1294.183 -239.548)" fill="#d5e5fb"/>
              <path id="Trazado_26403" data-name="Trazado 26403" d="M1309.023,235.26a.726.726,0,1,1,.185-1.011A.726.726,0,0,1,1309.023,235.26Z" transform="translate(-1302.314 -233.936)" fill="#d5e5fb"/>
            </g>
          </g>
        </g>
      </g>
      <g id="Grupo_16067" data-name="Grupo 16067" transform="translate(151.94 37.029)">
        <g id="Grupo_16062" data-name="Grupo 16062">
          <g id="Grupo_16061" data-name="Grupo 16061">
            <g id="Grupo_16059" data-name="Grupo 16059">
              <path id="Trazado_26404" data-name="Trazado 26404" d="M1664.925,326.465a.727.727,0,1,1-.022,1.027A.727.727,0,0,1,1664.925,326.465Z" transform="translate(-1664.701 -326.263)" fill="#d5e5fb"/>
              <path id="Trazado_26405" data-name="Trazado 26405" d="M1674,335.933a.726.726,0,1,1-.022,1.027A.726.726,0,0,1,1674,335.933Z" transform="translate(-1671.447 -333.304)" fill="#d5e5fb"/>
              <path id="Trazado_26406" data-name="Trazado 26406" d="M1683.166,346.554a.727.727,0,1,1,1.027.022A.727.727,0,0,1,1683.166,346.554Z" transform="translate(-1678.282 -340.438)" fill="#d5e5fb"/>
            </g>
            <g id="Grupo_16060" data-name="Grupo 16060" transform="translate(7.038 7.346)">
              <path id="Trazado_26407" data-name="Trazado 26407" d="M1692.378,355.12a.726.726,0,1,1-.022,1.027A.727.727,0,0,1,1692.378,355.12Z" transform="translate(-1692.154 -354.918)" fill="#d5e5fb"/>
              <path id="Trazado_26408" data-name="Trazado 26408" d="M1701.451,364.588a.726.726,0,1,1-.022,1.027A.726.726,0,0,1,1701.451,364.588Z" transform="translate(-1698.901 -361.959)" fill="#d5e5fb"/>
              <path id="Trazado_26409" data-name="Trazado 26409" d="M1710.62,375.208a.727.727,0,1,1,1.027.022A.726.726,0,0,1,1710.62,375.208Z" transform="translate(-1705.736 -369.093)" fill="#d5e5fb"/>
            </g>
          </g>
        </g>
        <g id="Grupo_16066" data-name="Grupo 16066" transform="translate(14.082 14.698)">
          <g id="Grupo_16065" data-name="Grupo 16065">
            <g id="Grupo_16063" data-name="Grupo 16063">
              <path id="Trazado_26410" data-name="Trazado 26410" d="M1719.856,383.8a.727.727,0,1,1-.022,1.027A.726.726,0,0,1,1719.856,383.8Z" transform="translate(-1719.632 -383.597)" fill="#d5e5fb"/>
              <path id="Trazado_26411" data-name="Trazado 26411" d="M1728.928,393.267a.726.726,0,1,1-.022,1.027A.726.726,0,0,1,1728.928,393.267Z" transform="translate(-1726.378 -390.638)" fill="#d5e5fb"/>
              <path id="Trazado_26412" data-name="Trazado 26412" d="M1738.1,403.888a.726.726,0,1,1,1.027.022A.727.727,0,0,1,1738.1,403.888Z" transform="translate(-1733.213 -397.772)" fill="#d5e5fb"/>
            </g>
            <g id="Grupo_16064" data-name="Grupo 16064" transform="translate(7.038 7.346)">
              <path id="Trazado_26413" data-name="Trazado 26413" d="M1747.31,412.454a.726.726,0,1,1-.022,1.027A.727.727,0,0,1,1747.31,412.454Z" transform="translate(-1747.086 -412.252)" fill="#d5e5fb"/>
              <path id="Trazado_26414" data-name="Trazado 26414" d="M1756.382,421.922a.726.726,0,1,1-.022,1.027A.726.726,0,0,1,1756.382,421.922Z" transform="translate(-1753.832 -419.293)" fill="#d5e5fb"/>
              <path id="Trazado_26415" data-name="Trazado 26415" d="M1765.551,432.543a.726.726,0,1,1,1.027.022A.726.726,0,0,1,1765.551,432.543Z" transform="translate(-1760.667 -426.427)" fill="#d5e5fb"/>
            </g>
          </g>
        </g>
      </g>
      <g id="Grupo_16068" data-name="Grupo 16068" transform="translate(63.719 0)">
        <circle id="Elipse_1074" data-name="Elipse 1074" cx="10.281" cy="10.281" r="10.281" fill="#d5e5fb"/>
      </g>
      <g id="Grupo_16069" data-name="Grupo 16069" transform="translate(68.226 2.856)">
        <path id="Trazado_26416" data-name="Trazado 26416" d="M1347.808,196.267a3.3,3.3,0,1,1,3.3,3.3A3.3,3.3,0,0,1,1347.808,196.267Z" transform="translate(-1345.333 -192.967)" fill="#fff"/>
        <path id="Trazado_26417" data-name="Trazado 26417" d="M1343.929,218.71a5.775,5.775,0,0,0-5.775,5.775H1349.7A5.775,5.775,0,0,0,1343.929,218.71Z" transform="translate(-1338.154 -212.11)" fill="#fff"/>
      </g>
      <g id="Grupo_16070" data-name="Grupo 16070" transform="translate(129.392 12.574)">
        <circle id="Elipse_1075" data-name="Elipse 1075" cx="15.842" cy="15.842" r="15.842" fill="#c6dcf7"/>
      </g>
      <g id="Grupo_16071" data-name="Grupo 16071" transform="translate(136.336 16.975)">
        <circle id="Elipse_1076" data-name="Elipse 1076" cx="5.085" cy="5.085" r="5.085" transform="translate(3.814)" fill="#fff"/>
        <path id="Trazado_26418" data-name="Trazado 26418" d="M1612.73,287.709a8.9,8.9,0,0,0-8.9,8.9h17.8A8.9,8.9,0,0,0,1612.73,287.709Z" transform="translate(-1603.832 -277.54)" fill="#fff"/>
      </g>
      <path id="Trazado_26419" data-name="Trazado 26419" d="M1751.526,430.982a10.7,10.7,0,1,1,10.7,10.7A10.7,10.7,0,0,1,1751.526,430.982Z" transform="translate(-1577.327 -359.153)" fill="#d5e5fb"/>
      <g id="Grupo_16072" data-name="Grupo 16072" transform="translate(180.298 64.152)">
        <path id="Trazado_26420" data-name="Trazado 26420" d="M1781.178,442.282a1.664,1.664,0,0,0-.084-.58,1.215,1.215,0,0,0-.3-.458,2.3,2.3,0,0,0-.537-.383,6.051,6.051,0,0,0-.807-.348,15.912,15.912,0,0,1-1.489-.628,5.011,5.011,0,0,1-1.142-.748,2.953,2.953,0,0,1-.73-.98,3.331,3.331,0,0,1,.007-2.532,2.806,2.806,0,0,1,.687-.944,3.5,3.5,0,0,1,1.057-.645,4.67,4.67,0,0,1,1.372-.3l.024-1.672,1.346.019-.024,1.7a4.178,4.178,0,0,1,1.307.4,3.159,3.159,0,0,1,1.609,1.864,4.2,4.2,0,0,1,.2,1.414l-2.431-.035a2.048,2.048,0,0,0-.4-1.409,1.425,1.425,0,0,0-1.108-.481,1.811,1.811,0,0,0-.653.1,1.224,1.224,0,0,0-.455.283,1.146,1.146,0,0,0-.267.43,1.691,1.691,0,0,0-.092.538,1.545,1.545,0,0,0,.076.525,1.142,1.142,0,0,0,.284.438,2.31,2.31,0,0,0,.541.383,7.727,7.727,0,0,0,.84.376q.811.316,1.476.647a5.077,5.077,0,0,1,1.137.755,2.848,2.848,0,0,1,.976,2.3,3.041,3.041,0,0,1-.258,1.231,2.769,2.769,0,0,1-.691.936,3.386,3.386,0,0,1-1.065.626,5.036,5.036,0,0,1-1.38.292l-.022,1.555-1.338-.02.023-1.547a5.657,5.657,0,0,1-1.346-.324,3.581,3.581,0,0,1-1.147-.693,3.2,3.2,0,0,1-.791-1.125,3.9,3.9,0,0,1-.28-1.614l2.432.036a2.4,2.4,0,0,0,.142.928,1.554,1.554,0,0,0,.408.6,1.511,1.511,0,0,0,.589.321,2.589,2.589,0,0,0,.676.1,2.163,2.163,0,0,0,.7-.092,1.442,1.442,0,0,0,.5-.274,1.149,1.149,0,0,0,.309-.421A1.4,1.4,0,0,0,1781.178,442.282Z" transform="translate(-1775.314 -432.061)" fill="#fff"/>
      </g>
    </g>
    <g id="Grupo_16075" data-name="Grupo 16075" transform="translate(769.932 399.637)">
      <g id="Grupo_16074" data-name="Grupo 16074" transform="translate(52.363 107.081)">
        <path id="Trazado_26421" data-name="Trazado 26421" d="M2761.841,1475.334l-18.5,2.637a4.436,4.436,0,0,1-5-3.754l-1.143-8.019a4.435,4.435,0,0,1,3.755-5l18.5-2.637a4.436,4.436,0,0,1,5,3.755l1.143,8.019A4.436,4.436,0,0,1,2761.841,1475.334Z" transform="translate(-2737.147 -1456.109)" fill="#233862"/>
        <path id="Trazado_26422" data-name="Trazado 26422" d="M2746.7,1458.87l1.156,8.111a4.449,4.449,0,0,0,2.613,3.436,4.367,4.367,0,0,0,1.442.364h0a4.324,4.324,0,0,0,.964-.03l18.471-2.633a4.452,4.452,0,0,0,3.769-5.021l-1.155-8.113a4.453,4.453,0,0,0-5.022-3.769l-6.36.907-.246-1.731a1.466,1.466,0,0,0-1.656-1.243l-.7.1-3.869.551-.961.138a1.466,1.466,0,0,0-1.244,1.657l.246,1.73-3.684.524c-.146.021-.288.049-.427.083h0a4.455,4.455,0,0,0-3.066,2.677h0A4.4,4.4,0,0,0,2746.7,1458.87Zm14.971-6.618-6.609.943-.247-1.73a.548.548,0,0,1,.465-.618l1.66-.236,3.045-.435.822-.117a.558.558,0,0,1,.165,0,.548.548,0,0,1,.454.462Z" transform="translate(-2744.221 -1449.134)" fill="#2b478b"/>
      </g>
      <path id="Trazado_26423" data-name="Trazado 26423" d="M2778.584,1427.318a6.422,6.422,0,0,1,1.01,1.812c.261,3.505-1.34,3.99,2.807,5.938,0,0,1.77.675,1.8-.7s-1.229-1.4-1-3.322c.265-2.22.239-2.24-1.218-3.4l-.965-1.594Z" transform="translate(-2715.598 -1324.89)" fill="#ffb27d"/>
      <path id="Trazado_26424" data-name="Trazado 26424" d="M2780.325,1437s-.936.976-.995,1.381c-.19,1.3-.625,1.865-.407,2.007.453.294,1.053-.67,1.339-1.536A3.953,3.953,0,0,0,2780.325,1437Z" transform="translate(-2715.806 -1333.031)" fill="#ffb27d"/>
      <path id="Trazado_26425" data-name="Trazado 26425" d="M2628.276,1738.023l.98-7.062-4.118-3.442-1.3,9.349Z" transform="translate(-2600.526 -1549.071)" fill="#ffb27d"/>
      <path id="Trazado_26426" data-name="Trazado 26426" d="M2587.791,1767.162h16.792a9.227,9.227,0,0,0-.474-4.5c-.841-1.863-2.148-3.013-2.268-4.44a5.044,5.044,0,0,1-4.808,1.479,18.425,18.425,0,0,1-2.914,3.777C2593.022,1764.265,2588.129,1763.984,2587.791,1767.162Z" transform="translate(-2573.718 -1571.902)" fill="#233862"/>
      <path id="Trazado_26427" data-name="Trazado 26427" d="M2600.858,1369.835c1.1,8.833,2,17.162,2.728,24.924,3.907,41.356,3.141,66.633,3.141,66.633s.282.748,2.705.76a13.874,13.874,0,0,0,2.71-.292s8.75-27.006,8.074-42.374a23.571,23.571,0,0,0-.683-4.974c-2.1-7.862,7.767-37.933-2.958-49.131S2600.353,1365.781,2600.858,1369.835Z" transform="translate(-2583.411 -1276.243)" fill="#f99746"/>
      <path id="Trazado_26428" data-name="Trazado 26428" d="M2600.858,1369.835c1.1,8.833,2,17.162,2.728,24.924l16.631,24.727a23.571,23.571,0,0,0-.683-4.974c-2.1-7.862,7.767-37.933-2.958-49.131S2600.353,1365.781,2600.858,1369.835Z" transform="translate(-2583.411 -1276.243)" fill="#ed7d2b"/>
      <path id="Trazado_26429" data-name="Trazado 26429" d="M2537.128,1040.778s.4-2.018.86-3.558c.2-.682-1.2-5.158-2.177-5.709s-3.506,2.464-2.789,4.778c.368,1.189.973,5.058.973,5.058Z" transform="translate(-2532.896 -1031.445)" fill="#ffb27d"/>
      <path id="Trazado_26430" data-name="Trazado 26430" d="M2549.4,1055.071s.529-1.17,1.006-1.36.99-2.1,1.34-2.862c0,0-.339-.5-.931.142-.361.389-1.167,1.531-1.167,1.531Z" transform="translate(-2545.171 -1045.738)" fill="#ffb27d"/>
      <path id="Trazado_26431" data-name="Trazado 26431" d="M2734.877,1733.274c.238-2.264.3-8.219.3-8.219s-6.068-1.94-5.845-.608a42.866,42.866,0,0,1,.8,9.789l2.454,1.466Z" transform="translate(-2678.966 -1546.439)" fill="#ffb27d"/>
      <path id="Trazado_26432" data-name="Trazado 26432" d="M2620.721,1391.26s23.442,64.26,28.057,92.133a4.674,4.674,0,0,0,3.063.491,3.425,3.425,0,0,0,2.882-1.847s4.235-33.408-4.183-45.007c-5.783-7.969,2.495-42.964-10.975-45.77S2620.721,1391.26,2620.721,1391.26Z" transform="translate(-2598.206 -1298.089)" fill="#f99746"/>
      <path id="Trazado_26433" data-name="Trazado 26433" d="M2633.947,1129.553a7.355,7.355,0,0,0,.354.785,6.3,6.3,0,0,0,.681,1.048,9.473,9.473,0,0,1-.283-1.214v0c-.037-.214-.07-.443-.1-.692a25.934,25.934,0,0,1-.057-4.615,25.332,25.332,0,0,0,.393,4.579c.035.194.076.389.122.583a10.679,10.679,0,0,0,.579,1.847c.043.109.092.217.143.323a47.177,47.177,0,0,1,5.344,5.992c1.313,1.688,2.642,3.529,3.9,5.382.485.715.96,1.429,1.418,2.139l0,0c.195.3.383.593.569.888a0,0,0,0,1,0,0c.232.367.456.728.677,1.089.615,1,1.186,1.965,1.7,2.884.117.209.232.415.341.618,1.584,2.9,2.528,5.21,2.313,6.094l.291-.2c.053-.035.112-.077.178-.122.648-.449,1.924-1.326,3.542-2.422l.106-.327.807-2.5a5.808,5.808,0,0,1-.062,2.253c2.534-1.713,5.7-3.824,8.562-5.658l0,0c2.142-1.372,4.114-2.588,5.54-3.374a36.148,36.148,0,0,0-.9-3.628c.837.371,1.636,2.126,2.012,3.052.1-.048.188-.089.272-.125,0,0,.157-7.164-9.2-13.923-4.9-3.542-8.379-5.224-7.646-8.686s1.366-18.735-9.431-16.321a6.7,6.7,0,0,0-2.281-.971,2.031,2.031,0,0,1,.842.563,8.038,8.038,0,0,0-4.412.183,6.738,6.738,0,0,0-2.677,2.9l0,0c-.055.1-.113.2-.171.3a24.978,24.978,0,0,0-1.123,2.242,37.642,37.642,0,0,0-1.7,4.719v0c-.162.552-.311,1.109-.448,1.675a.5.5,0,0,0-.02.083v0C2633.023,1121.516,2632.683,1126.328,2633.947,1129.553Z" transform="translate(-2607.439 -1085.646)" fill="#163560"/>
      <path id="Trazado_26434" data-name="Trazado 26434" d="M2644.873,1188.54c-.036.01,3.023,2.224,5.618,1.914,2.44-.291,4.425-3.1,4.394-3.115-.964-.345-1.047-1.753-.154-7.615l-.462.021-7.772.372s-.182,2.4-.51,4.64C2645.712,1186.637,2645.333,1188.4,2644.873,1188.54Z" transform="translate(-2616.166 -1141.71)" fill="#ffb27d"/>
      <path id="Trazado_26435" data-name="Trazado 26435" d="M2649.729,1180.179s-.182,2.4-.51,4.641c4.243.51,7.049-3.012,8.282-5.012Z" transform="translate(-2619.398 -1141.772)" fill="#ed975d"/>
      <path id="Trazado_26436" data-name="Trazado 26436" d="M2650.47,1129.815a22.453,22.453,0,0,0,3.711-6.081c.7-2.079.787-10.157-7.338-10.2a10.93,10.93,0,0,0-4.734,1.028c-1.9.91-4.768,3.057-3.008,10.38l.377,2.441Z" transform="translate(-2611.466 -1092.486)" fill="#163560"/>
      <path id="Trazado_26437" data-name="Trazado 26437" d="M2594.7,1258.2s13.787,4.6,26.486,1.507c.15-.036,7.408-6.461,7.408-6.461-.177-.484-1.509-8.447-1.683-8.892-2.253-5.814-6.37-37.367-9.81-38.923-.878.957-3.388,1.611-5.537,1.421-2.474-.219-3.3-1.288-3.1-2.437-2.738,1.294-4.842,2.5-4.842,2.5C2601.116,1210.667,2594.7,1258.2,2594.7,1258.2Z" transform="translate(-2578.852 -1160.075)" fill="#fff"/>
      <path id="Trazado_26438" data-name="Trazado 26438" d="M2638.82,1140.853s9.971,1.652,10.9-4.574,2.849-10.205-3.478-11.523-7.923.872-8.74,2.874S2636.25,1140.263,2638.82,1140.853Z" transform="translate(-2610.215 -1100.537)" fill="#ffb27d"/>
      <path id="Trazado_26439" data-name="Trazado 26439" d="M2655.769,1119.945s1.65,7.712,5.69,9.417,6.029.85,6.029.85a12.022,12.022,0,0,1-2.845-7.605S2658.351,1116.775,2655.769,1119.945Z" transform="translate(-2624.269 -1096.555)" fill="#163560"/>
      <path id="Trazado_26440" data-name="Trazado 26440" d="M2641.48,1121.118a8.918,8.918,0,0,0-3.02,2.838c-.734,1.511-1.444,4.742-2.379,4.49,0,0-1.323-5.272,1.412-7.736C2640.393,1118.1,2641.48,1121.118,2641.48,1121.118Z" transform="translate(-2609.39 -1097.034)" fill="#163560"/>
      <path id="Trazado_26441" data-name="Trazado 26441" d="M2536.731,1066.782a6.378,6.378,0,0,1,1.783-.551,5.543,5.543,0,0,1,1.566.164s2.813,17.488,3.022,18.415,12.067,14.285,15.264,14.231c2.887-.048,6.307,2.18,6.942,2.609,0,0-5.787,10.437-7.094,21.295-1.1,9.164-3.81,43.246-3.81,43.246s.207,2.081-3.683.962-4.862-2.045-4.862-2.045,3.573-35.229,4.323-46.184c.1-1.471.752-6.593.013-7.607-4.917-6.751-12.683-17.687-13.116-20.012C2536.444,1087.889,2536.731,1066.782,2536.731,1066.782Z" transform="translate(-2535.7 -1057.305)" fill="#2b478b"/>
      <path id="Trazado_26442" data-name="Trazado 26442" d="M2696.416,1767.162h16.791a9.223,9.223,0,0,0-.474-4.5c-.841-1.863-2.148-3.013-2.268-4.44a5.044,5.044,0,0,1-4.807,1.479,18.425,18.425,0,0,1-2.914,3.777C2701.646,1764.265,2696.754,1763.984,2696.416,1767.162Z" transform="translate(-2654.495 -1571.902)" fill="#233862"/>
      <path id="Trazado_26443" data-name="Trazado 26443" d="M2664.8,1271.471s1.133,5.476,6.324,5.13,12.718-2.949,12.718-2.949-.35-5.707-.918-13.7c-.551-7.756-1.306-17.661-2.147-26.589-1.15-12.19-2.456-22.552-3.615-23.109a41.658,41.658,0,0,0-8.733-2.707s-3.81,16.279-4.464,24.318C2663.354,1239.387,2664.8,1271.471,2664.8,1271.471Z" transform="translate(-2630.251 -1162.399)" fill="#2b478b"/>
      <path id="Trazado_26444" data-name="Trazado 26444" d="M2646.068,1174.07a4.451,4.451,0,0,1-2.642.5c-.98-.147-1.2-1.309-1.2-1.309a3.862,3.862,0,0,1,1.768,0A7.537,7.537,0,0,1,2646.068,1174.07Z" transform="translate(-2614.197 -1136.832)" fill="#fff"/>
      <path id="Trazado_26445" data-name="Trazado 26445" d="M2705.384,1282.248s.074,17.855,6.287,30.519c.982,2,1.684,2.8,2.165,2.734-.551-7.756-1.306-17.661-2.147-26.589Z" transform="translate(-2661.164 -1217.951)" fill="#233862"/>
      <path id="Trazado_26446" data-name="Trazado 26446" d="M2702.594,1214.01s5.728,1.686,8.319,5.388,10.981,24.552,13.2,32.2,3.208,18.94,3.208,18.94a11.64,11.64,0,0,1-6.827,0s-4.771-17.049-6.581-18.94-12.435-20.974-12.435-20.974Z" transform="translate(-2658.261 -1167.207)" fill="#2b478b"/>
    </g>
    <g id="Grupo_16076" data-name="Grupo 16076" transform="translate(354.273 318.342)">
      <path id="Trazado_26447" data-name="Trazado 26447" d="M1392.58,911.561s-45.948-15.944-143.865,3.115c-30.293,5.9-68.2,17.826-109.053,27.943l-24.16-84.482.7-.181c12.352-3.181,53.686-14.681,101.576-32.5,43.234-16.084,92.058-37.038,127.972-77.636l34.691,121.3Z" transform="translate(-1063.211 -739.236)" fill="#ed7d2b"/>
      <path id="Trazado_26448" data-name="Trazado 26448" d="M1382.485,869.123c-15.479-3.668-61.373-11.053-140.662,4.274-30.853,5.964-69.436,18.125-111.04,28.4l-12.537-43.843c12.352-3.181,53.686-14.681,101.576-32.5,43.235-16.084,92.058-37.038,127.972-77.636Z" transform="translate(-1065.252 -739.236)" fill="#f99746"/>
      <path id="Trazado_26449" data-name="Trazado 26449" d="M2060.211,892.326h0a2.638,2.638,0,0,1-3.262-1.811l-49.42-172.81a2.639,2.639,0,0,1,1.812-3.263h0a2.639,2.639,0,0,1,3.263,1.812l49.42,172.81A2.639,2.639,0,0,1,2060.211,892.326Z" transform="translate(-1726.479 -714.34)" fill="#ed7d2b"/>
      <path id="Trazado_26450" data-name="Trazado 26450" d="M938.482,1277.023l49.621-14.19-24.185-84.569-49.621,14.19a3.823,3.823,0,0,0-2.616,4.712l22.089,77.24A3.822,3.822,0,0,0,938.482,1277.023Z" transform="translate(-911.534 -1059.331)" fill="#d66316"/>
      <path id="Trazado_26451" data-name="Trazado 26451" d="M1351.089,1517.283l-44.063.188-21.985-46.559-8.123-17.208.016-.006,40.184-12.687.726,1.63,7.464,16.756Z" transform="translate(-1183.246 -1254.718)" fill="#f99746"/>
      <path id="Trazado_26452" data-name="Trazado 26452" d="M1374.652,1570.617l-44.063.188-21.985-46.559,40.267-11.515Z" transform="translate(-1206.81 -1308.052)" fill="#ed7d2b"/>
    </g>
    <g id="Grupo_16077" data-name="Grupo 16077" transform="translate(680.66 336.882)">
      <path id="Trazado_26453" data-name="Trazado 26453" d="M2232.2,787.7h0a2.865,2.865,0,0,1-.4,4.021l-42.46,34.815a2.865,2.865,0,0,1-4.021-.4h0a2.865,2.865,0,0,1,.4-4.021l42.46-34.815A2.865,2.865,0,0,1,2232.2,787.7Z" transform="translate(-2184.674 -786.658)" fill="#f99746"/>
      <path id="Trazado_26454" data-name="Trazado 26454" d="M2292.8,1114.512h0a2.865,2.865,0,0,1-3.125,2.562l-54.641-5.406a2.865,2.865,0,0,1-2.562-3.124h0a2.865,2.865,0,0,1,3.125-2.562l54.641,5.406A2.865,2.865,0,0,1,2292.8,1114.512Z" transform="translate(-2220.212 -1024.108)" fill="#f99746"/>
      <path id="Trazado_26455" data-name="Trazado 26455" d="M2305.018,956.492h0a2.866,2.866,0,0,1-2.3,3.322l-76.563,13.926a2.865,2.865,0,0,1-3.322-2.3h0a2.866,2.866,0,0,1,2.3-3.322l76.563-13.926A2.866,2.866,0,0,1,2305.018,956.492Z" transform="translate(-2213.016 -911.208)" fill="#f99746"/>
    </g>
    <g id="Grupo_16078" data-name="Grupo 16078" transform="translate(518.597 394.049)">
      <path id="Trazado_26456" data-name="Trazado 26456" d="M1634.208,1720.291a16.173,16.173,0,0,1,.423-3.959c.424-.988,1.976-5.01,1.976-5.01h6.069a37.2,37.2,0,0,1,1.2,4.869c.071,1.2,0,4.1,0,4.1Z" transform="translate(-1613.265 -1531.437)" fill="#233862"/>
      <path id="Trazado_26457" data-name="Trazado 26457" d="M1756.384,1720.291a16.159,16.159,0,0,0-.424-3.959c-.423-.988-1.976-5.01-1.976-5.01h-6.069a37.157,37.157,0,0,0-1.2,4.869c-.071,1.2,0,4.1,0,4.1Z" transform="translate(-1696.906 -1531.437)" fill="#233862"/>
      <path id="Trazado_26458" data-name="Trazado 26458" d="M1667.159,1085.8s-.214,6.616-1.061,9.58l-6.7,4.675,25.229,3.776-6.017-8.313s-1.817-8.871-.864-12.152S1667.159,1085.8,1667.159,1085.8Z" transform="translate(-1631.995 -1063.709)" fill="#ffb27d"/>
      <path id="Trazado_26459" data-name="Trazado 26459" d="M1689.533,1099.371s2,4.8,5.753,4.7,4.613-4.355,4.613-4.355Z" transform="translate(-1654.406 -1076.369)" fill="#ed985f"/>
      <path id="Trazado_26460" data-name="Trazado 26460" d="M1673.473,1028.761a60.322,60.322,0,0,0-2.06-7.893c-.847-1.835-1.553-10.021,7.833-10.444,0,0,3.6.423,5.575-.776,0,0,0,1.2-.494,1.623a6.239,6.239,0,0,1,5.787,2.047c2.541,2.823-1.693,12.7-1.482,15.032Z" transform="translate(-1640.59 -1009.647)" fill="#2c3a64"/>
      <path id="Trazado_26461" data-name="Trazado 26461" d="M1687.858,1057.8c-2.723-.048-7.735-3.674-7.735-8.164v-7.006a2.8,2.8,0,0,1,2.541-2.981h10.388a2.8,2.8,0,0,1,2.54,2.981v6.61C1695.592,1053.951,1690.98,1057.858,1687.858,1057.8Z" transform="translate(-1647.409 -1031.96)" fill="#ffb27d"/>
      <path id="Trazado_26462" data-name="Trazado 26462" d="M1679.118,1041.771s.014-4.21,3.349-4.857,10.8,2.052,11.856-1.018-14.425-3.017-15.2-1.059S1679.118,1041.771,1679.118,1041.771Z" transform="translate(-1646.404 -1027.356)" fill="#2c3a64"/>
      <path id="Trazado_26463" data-name="Trazado 26463" d="M1633.612,1344.942s1.062,32.425-.526,50.926.012,44.248.012,44.248a12.007,12.007,0,0,0,10.582,0s6.037-35.742,6-44.248c-.041-9.059,6.57-49.512,6.57-49.512Z" transform="translate(-1611.908 -1258.984)" fill="#2b478b"/>
      <path id="Trazado_26464" data-name="Trazado 26464" d="M1716.51,1439.956a12,12,0,0,1-10.581,0s-6.036-35.741-6-44.248c.017-3.825-1.152-13.253-2.509-22.865-1.857-13.15-4.063-26.646-4.063-26.646l23.515-1.469s-1.939,32.481-.351,50.98S1716.51,1439.956,1716.51,1439.956Z" transform="translate(-1657.251 -1258.825)" fill="#2b478b"/>
      <path id="Trazado_26465" data-name="Trazado 26465" d="M1671.712,1192.86a117.671,117.671,0,0,1-19.17,1.941,92.7,92.7,0,0,1-11.773-.9c-3.815-.506-6.551-1.042-6.551-1.042s-2.032.178-.832-9.842c.913-7.626.627-14.511.424-21.595-.023-.787-.006-1.719.042-2.756.389-8.259,2.888-23.127,4.791-23.925a34.853,34.853,0,0,1,7.831-1.565c0,.1,2.9,4.34,6.347,4.816a11.94,11.94,0,0,0,6.163-4.679,67.1,67.1,0,0,1,9.66,1.863s.36,1.575,1.719,28.9C1670.9,1174.9,1674.6,1192.9,1671.712,1192.86Z" transform="translate(-1612.371 -1101.508)" fill="#fff"/>
      <path id="Trazado_26466" data-name="Trazado 26466" d="M1711.715,1444.578c.017-3.825-1.151-13.253-2.508-22.865a45.251,45.251,0,0,1,4.838-11.267C1718.385,1422.619,1711.715,1444.578,1711.715,1444.578Z" transform="translate(-1669.037 -1307.696)" fill="#233862"/>
      <path id="Trazado_26467" data-name="Trazado 26467" d="M1564.688,1171.309c-.239.2.595,2.265,1.823,4.958,2.528,5.532,6.726,13.7,6.726,13.7a24.232,24.232,0,0,1-1.275,3.73,88.952,88.952,0,0,1-14.523-13.891c-4.086-5.091-4.925-8.011-4.925-8.011,15.726-32.01,26.793-33.191,26.793-33.191L1578,1159.762S1565.417,1170.7,1564.688,1171.309Z" transform="translate(-1552.515 -1105.546)" fill="#fff"/>
      <path id="Trazado_26468" data-name="Trazado 26468" d="M1628.407,1334.279s3.811-3.528,5.363-1.552,1.835,5.081.635,4.869-3.67-1.341-4.022-.776-1.934,1.644-2.414.787S1628.407,1334.279,1628.407,1334.279Z" transform="translate(-1608.522 -1249.454)" fill="#ffb27d"/>
      <path id="Trazado_26469" data-name="Trazado 26469" d="M1587.522,1299.21a24.206,24.206,0,0,1-1.275,3.73,88.961,88.961,0,0,1-14.523-13.891,18.12,18.12,0,0,0,9.072-3.542C1583.324,1291.04,1587.522,1299.21,1587.522,1299.21Z" transform="translate(-1566.8 -1214.787)" fill="#ffb27d"/>
      <path id="Trazado_26470" data-name="Trazado 26470" d="M1794.062,1172.708s-.838,2.92-4.924,8.011a88.952,88.952,0,0,1-14.524,13.891,24.273,24.273,0,0,1-1.274-3.73s4.2-8.17,6.726-13.7c1.228-2.693,2.062-4.759,1.823-4.958-.565-.47-8.252-7.15-11.682-10.128l-1.63-1.418-.785-20.841S1778.336,1140.7,1794.062,1172.708Z" transform="translate(-1712.602 -1106.457)" fill="#fff"/>
      <path id="Trazado_26471" data-name="Trazado 26471" d="M1773.145,1334.279s-3.811-3.528-5.363-1.552-1.835,5.081-.635,4.869,3.67-1.341,4.022-.776,1.934,1.644,2.413.787S1773.145,1334.279,1773.145,1334.279Z" transform="translate(-1711.57 -1249.454)" fill="#ffb27d"/>
      <path id="Trazado_26472" data-name="Trazado 26472" d="M1789.433,1299.21a24.241,24.241,0,0,0,1.274,3.73,88.959,88.959,0,0,0,14.523-13.891,18.119,18.119,0,0,1-9.072-3.542C1793.631,1291.04,1789.433,1299.21,1789.433,1299.21Z" transform="translate(-1728.696 -1214.787)" fill="#ffb27d"/>
      <path id="Trazado_26473" data-name="Trazado 26473" d="M1682.739,1126.884a2.677,2.677,0,0,0-1.438,1.737s4.493,4.622,7.433,4.693Z" transform="translate(-1648.285 -1096.829)" fill="#ed7d2b"/>
      <path id="Trazado_26474" data-name="Trazado 26474" d="M1710.3,1132.636l5.8-6.663a2.721,2.721,0,0,1,1.18,2.084S1712.79,1132.813,1710.3,1132.636Z" transform="translate(-1669.847 -1096.151)" fill="#ed7d2b"/>
      <path id="Trazado_26475" data-name="Trazado 26475" d="M1696.9,1149.955s-4.427,38.214-2.885,42.872a31.851,31.851,0,0,0,2.7,5.92,1.569,1.569,0,0,0,2.716-.005c1.175-2.041,2.712-4.995,2.712-6.493,0-2.428-3.359-42.326-3.359-42.326Z" transform="translate(-1657.499 -1113.96)" fill="#f99746"/>
      <path id="Trazado_26476" data-name="Trazado 26476" d="M1700.654,1142.289a27.879,27.879,0,0,1,4.3-.1.451.451,0,0,1,.346.67c-.456.822-1.388,2.247-2.362,2.247C1701.573,1145.1,1699.441,1142.383,1700.654,1142.289Z" transform="translate(-1662.409 -1108.168)" fill="#ed7d2b"/>
      <path id="Trazado_26477" data-name="Trazado 26477" d="M1701.832,1092.322a2.979,2.979,0,0,0,2.329,1.106,2.769,2.769,0,0,0,2.177-1.106A14.765,14.765,0,0,0,1701.832,1092.322Z" transform="translate(-1663.552 -1070.991)" fill="#fff"/>
    </g>
    <g id="Grupo_16082" data-name="Grupo 16082" transform="translate(539.113 367.276)">
      <path id="Trazado_26478" data-name="Trazado 26478" d="M1669.99,947.065l-2.062,1.479-2.072-1.463a2.538,2.538,0,0,1,4.134-.016Z" transform="translate(-1657.316 -935.55)" fill="#fff"/>
      <g id="Grupo_16079" data-name="Grupo 16079" transform="translate(5.597 6.852)">
        <path id="Trazado_26479" data-name="Trazado 26479" d="M1659.392,931.945a6.127,6.127,0,0,0-5.015,2.606l1.308.919a4.532,4.532,0,0,1,7.392-.027l1.3-.935A6.133,6.133,0,0,0,1659.392,931.945Z" transform="translate(-1654.377 -931.945)" fill="#fff"/>
      </g>
      <g id="Grupo_16080" data-name="Grupo 16080">
        <path id="Trazado_26480" data-name="Trazado 26480" d="M1643.156,905.216a12.964,12.964,0,0,0-10.613,5.512l1.308.919a11.38,11.38,0,0,1,18.56-.069l1.3-.934A12.965,12.965,0,0,0,1643.156,905.216Z" transform="translate(-1632.543 -905.216)" fill="#fff"/>
      </g>
      <g id="Grupo_16081" data-name="Grupo 16081" transform="translate(3.045 3.749)">
        <path id="Trazado_26481" data-name="Trazado 26481" d="M1651.987,919.841a9.274,9.274,0,0,0-7.568,3.91l1.308.919a7.688,7.688,0,0,1,12.487-.048l1.3-.929A9.273,9.273,0,0,0,1651.987,919.841Z" transform="translate(-1644.419 -919.841)" fill="#fff"/>
      </g>
    </g>
    <g id="Grupo_16084" data-name="Grupo 16084" transform="translate(242.149 393.163)">
      <path id="Trazado_26482" data-name="Trazado 26482" d="M829.826,1062.915s-3.058-5.435,0-6.54,4.442-.086,4.588,1.152-1.165,6.117-1.165,6.117Z" transform="translate(-737.638 -1043.158)" fill="#ffb27d"/>
      <path id="Trazado_26483" data-name="Trazado 26483" d="M716.289,1114.027a98.92,98.92,0,0,1-15.33,1.574,85.515,85.515,0,0,1-11.783-.53q-1.389-.16-2.671-.355c-9.028-1.369-14.013-3.8-14.013-3.8s8.249-17.266,14.911-16.6c7.818.779,21.065,7.794,22.381,5.827,1.483-2.217,2.723-21.226,2.723-21.226,3.466-2.374,5.536.128,5.536.128S724.814,1112.489,716.289,1114.027Z" transform="translate(-621.65 -1059.511)" fill="#f99746"/>
      <path id="Trazado_26484" data-name="Trazado 26484" d="M758.719,1191.318a98.844,98.844,0,0,1-15.33,1.574,85.5,85.5,0,0,1-11.783-.53c-2.08-6.615-3.576-13.371.607-9.3C739.593,1190.249,758.719,1191.318,758.719,1191.318Z" transform="translate(-664.08 -1136.802)" fill="#ed7d2b"/>
      <path id="Trazado_26485" data-name="Trazado 26485" d="M669.7,1754.933s-.593,6.864.858,7.578l18.569-.038s0-2.143-2.983-2.619-8.222-2.222-9.109-6.112S669.7,1754.933,669.7,1754.933Z" transform="translate(-619.486 -1561.007)" fill="#233862"/>
      <path id="Trazado_26486" data-name="Trazado 26486" d="M654.745,1376.214c-.092,4.489-.307,9.118-.73,13.279-2.005,19.744-2.71,43.6-3,48.2-.5,7.983-2.077,20.738-2.077,20.738s-3.128,2.969-9.226,1.553a207.615,207.615,0,0,1-6.181-37.714q-.027-.476-.051-.956c-.131-2.557-.268-5.482-.408-8.635-.929-21.12-1.938-52.494-1.938-52.494l23.3-5.472S654.973,1365.025,654.745,1376.214Z" transform="translate(-590.896 -1265.365)" fill="#2a4e96"/>
      <path id="Trazado_26487" data-name="Trazado 26487" d="M633.074,1412.678c-.929-21.12-1.938-52.494-1.938-52.494l23.3-5.472S637.583,1405.174,633.074,1412.678Z" transform="translate(-590.896 -1265.365)" fill="#233862"/>
      <path id="Trazado_26488" data-name="Trazado 26488" d="M479.021,1361.6s-3.792,4.459-4.133,5.7-.948,5.691-.623,7.029,2.846-3.732,3.763-4.274-.688,2.017-.375,2.444,2.124-1.493,2.83-2.143.636-4.147,1.484-6.215S479.021,1361.6,479.021,1361.6Z" transform="translate(-474.172 -1270.484)" fill="#ffb27d"/>
      <path id="Trazado_26489" data-name="Trazado 26489" d="M481.658,1728.066s-3.305,3.016-2.66,5.159,3.627,3.572,4.03,6.191,2.015,4.048,3.466,4.048h6.918s1.068-1.843-1.512-2.4-3.552-3.634-3.391-6.491a50.361,50.361,0,0,0-.242-6.667l-5.481-1.27Z" transform="translate(-477.699 -1541.941)" fill="#233862"/>
      <path id="Trazado_26490" data-name="Trazado 26490" d="M545.526,1357.35s-21.813,46.671-33.42,67.149-15.235,26.193-15.235,26.193-6.65-2.619-7.255-4.405c0,0,4.439-39.534,12.212-49.171,4.393-5.446,9.552-21.787,9.794-27.5s5.337-19.355,5.337-19.355Z" transform="translate(-485.657 -1262.052)" fill="#2a4e96"/>
      <path id="Trazado_26491" data-name="Trazado 26491" d="M619.636,1190.133a37.8,37.8,0,0,1-20.951,5.261c-5.388-.236-16.075-1.763-17.8-6.048-.405-1.006-.108-2.283.5-4.242,1.577-5.093,5.252-14.792,4.142-36.3a35.272,35.272,0,0,1,.144-5.643c1.156-10.592,7.227-16.865,13.094-18.915,14.309-5,19.079,1.927,19.079,1.927s6.325,5.011,7.278,15.469C627.027,1162.562,619.636,1190.133,619.636,1190.133Z" transform="translate(-553.389 -1092.634)" fill="#f99746"/>
      <path id="Trazado_26492" data-name="Trazado 26492" d="M667.523,1086.37s6.565,3.993,13.687,2.864c0,0,1.408-.358.716-2.011a21.2,21.2,0,0,0,.632-2.205,33.329,33.329,0,0,0,.815-3.6l-4.041-4.248-3.828-4.059C674.447,1082.816,667.523,1086.37,667.523,1086.37Z" transform="translate(-617.955 -1055.957)" fill="#ffb27d"/>
      <path id="Trazado_26493" data-name="Trazado 26493" d="M696.264,1087.467s2.2,5.878,7.667,8.225c.625-2.281,1.031-4.668,1.031-4.668l-4.257-3.178Z" transform="translate(-639.328 -1066.631)" fill="#ed985f"/>
      <path id="Trazado_26494" data-name="Trazado 26494" d="M705.344,1045.281s-12.533,1.566-13.412-6.135-3.09-12.686,4.875-14.012,9.858,1.442,10.786,3.943S708.582,1044.675,705.344,1045.281Z" transform="translate(-635.392 -1020.022)" fill="#ffb27d"/>
      <path id="Trazado_26495" data-name="Trazado 26495" d="M676.546,1010.051c-.108-.134-.365-.248-.944-.3a2.357,2.357,0,0,1,1.1-.265,2.921,2.921,0,0,1,2.038-2.509,1.742,1.742,0,0,0-.892,1.224c1.671-1.591,5.164-2.664,14.681-1.549,12.543,1.469,8.092,9.367,6.427,10.265s-5.665-1.889-8.709-1.763-3.786,4.489-4.839,5.052-.607-.486-1.976-1.168-1.588,1.621-1.243,3.136-1.643,3.423-1.643,3.423l-1.855-2.156c-1.855-2.156-3.344-11.047-2.394-12.894C676.377,1010.382,676.461,1010.217,676.546,1010.051Z" transform="translate(-623.963 -1006.191)" fill="#1d2a49"/>
      <g id="Grupo_16083" data-name="Grupo 16083" transform="translate(68.382 6.194)">
        <path id="Trazado_26496" data-name="Trazado 26496" d="M766.445,1055.692l-21.276.19-.145-3.2,21.21-1.644Z" transform="translate(-743.969 -1045.734)" fill="#2a4e96"/>
        <path id="Trazado_26497" data-name="Trazado 26497" d="M823.27,1050.18l-23.164.335-.264-5.82,23.1-1.79Z" transform="translate(-784.733 -1039.687)" fill="#2a4e96"/>
        <path id="Trazado_26498" data-name="Trazado 26498" d="M894.46,1045.209l-19.534.024-.357-7.856,19.455-1.77Z" transform="translate(-840.304 -1034.26)" fill="#233862"/>
        <path id="Trazado_26499" data-name="Trazado 26499" d="M948.6,1042.628h0a1.092,1.092,0,0,0,1.041-1.141l-.458-10.092a1.092,1.092,0,0,0-1.141-1.042h0a1.092,1.092,0,0,0-1.042,1.141l.458,10.092A1.092,1.092,0,0,0,948.6,1042.628Z" transform="translate(-894.169 -1030.353)" fill="#233862"/>
        <path id="Trazado_26500" data-name="Trazado 26500" d="M742.044,1059.374h0a.971.971,0,0,1-1.014-.926l-.119-2.619a.971.971,0,0,1,.926-1.014h0a.971.971,0,0,1,1.014.926l.119,2.619A.971.971,0,0,1,742.044,1059.374Z" transform="translate(-740.91 -1048.543)" fill="#2a4e96"/>
      </g>
      <path id="Trazado_26501" data-name="Trazado 26501" d="M583.372,1245.165c1.577-5.093,5.252-14.792,4.142-36.3a35.272,35.272,0,0,1,.144-5.643h0c4.709-.4,11.907,4.686,11.907,4.686S595.134,1234.938,583.372,1245.165Z" transform="translate(-555.377 -1152.695)" fill="#ed7d2b"/>
      <path id="Trazado_26502" data-name="Trazado 26502" d="M533.394,1124.822s-12.075,2.075-18.373,9.764-16.428,18.529-18.823,22.325-9.044,29.631-9.044,29.631.439.831,2.273,1.314a4.324,4.324,0,0,0,3.028-.255s8.81-15.077,12.125-22.608c1.377-3.129,25.2-15.522,34.158-14.238C542.255,1151.259,533.394,1124.822,533.394,1124.822Z" transform="translate(-483.826 -1094.409)" fill="#f99746"/>
      <path id="Trazado_26503" data-name="Trazado 26503" d="M828.088,1044.987s2.6,1.588,4.15.916,1.417-1.287,1.417-1.287S828.962,1043.313,828.088,1044.987Z" transform="translate(-737.357 -1034.406)" fill="#ffb27d"/>
      <path id="Trazado_26504" data-name="Trazado 26504" d="M576.917,1155.96s-5.3,33.455-42.9,43.2l-4.1,8.08,7.195,1.218s42.8-12.4,42.227-53.086Z" transform="translate(-515.632 -1117.125)" fill="#bc3f3f"/>
      <path id="Trazado_26505" data-name="Trazado 26505" d="M704.989,1136.847l-1.735.17v2.512l2.557,2.658,2.431-.592v-3.486l-1.748-1.262Z" transform="translate(-644.525 -1103.351)" fill="#a02e2e"/>
      <path id="Trazado_26506" data-name="Trazado 26506" d="M667.446,1110.9s-1.68.379-5.52,3.57c0,0,3.82,8.107,11.878,9.078a26.938,26.938,0,0,1,.453-6S667.869,1115.262,667.446,1110.9Z" transform="translate(-613.793 -1084.053)" fill="#ed7d2b"/>
      <path id="Trazado_26507" data-name="Trazado 26507" d="M710.023,1130.38s3.932,2.087,4.223,5.34c0,0,1.5-2.381,1.067-4.031a13.437,13.437,0,0,0-1.784-3.539S713.664,1130.137,710.023,1130.38Z" transform="translate(-649.559 -1096.884)" fill="#ed7d2b"/>
    </g>
    <g id="Grupo_16088" data-name="Grupo 16088" transform="translate(325.05 250.935)">
      <path id="Trazado_26508" data-name="Trazado 26508" d="M974.862,832.512a29.637,29.637,0,0,1-8.825,10.247l-21.248.1S977.838,827.086,974.862,832.512Z" transform="translate(-907.04 -733.965)" fill="#233862"/>
      <g id="Grupo_16085" data-name="Grupo 16085" transform="translate(0)">
        <path id="Trazado_26509" data-name="Trazado 26509" d="M1001.556,997.831a1.954,1.954,0,0,0-.307,2.1.016.016,0,0,0,.005.01c.532,1.384,2.229,2.907,4.195,4.423.251.195.474.372.67.536.051.043.1.086.151.13s.078.068.116.1c1.838,1.628,1.166,2.022,4.475,5.334,3.773,3.773,6.319,3.792,7.036,3.428.607-.311-.678-2.326-2.1-4.592-.069-.109-.137-.22-.207-.33-.19-.3-.378-.607-.567-.91-1.67-2.727-1.281-4.03-.979-8.145.246-3.344,4.824-18.747,4.824-18.747l-7.108-1.081s-1.893,12.231-4.206,14.154c-1.237,1.026-2.644,1.066-3.838,1.831-.084.053-.167.108-.248.164A9.294,9.294,0,0,0,1001.556,997.831Z" transform="translate(-948.899 -844.55)" fill="#ffb27d"/>
        <path id="Trazado_26510" data-name="Trazado 26510" d="M1001.556,1044.2a1.954,1.954,0,0,0-.307,2.1.015.015,0,0,0,.005.01c.645,1.38,2.3,2.9,4.2,4.409.248.2.468.38.663.551.051.043.1.086.151.13s.078.068.116.1c1.838,1.628,1.166,2.022,4.475,5.334,3.773,3.774,6.319,3.792,7.036,3.428.607-.311-.678-2.326-2.1-4.592a15.752,15.752,0,0,1-6.685-4.725c-2.282-2.8-3.839-6.417-5.4-8.5-.084.053-.167.108-.248.164A9.293,9.293,0,0,0,1001.556,1044.2Z" transform="translate(-948.899 -890.92)" fill="#233862"/>
        <path id="Trazado_26511" data-name="Trazado 26511" d="M1208.147,983.292c.481,2.178,3.591,1.751,7.056.832s2.658.108,7.6-.539,6.411-2.524,6.547-3.264c.122-.657-2.331-.839-4.964-1.09-.331-.031-.663-.065-1-.1-2.973-.314-5.183-2.185-7.908-3.7-2.581-1.438-6.509-7.429-6.509-7.429l-6.787.672s3.674,5.347,5.1,7.676a8.213,8.213,0,0,1,.759,4.619A8.729,8.729,0,0,0,1208.147,983.292Z" transform="translate(-1098.453 -835.564)" fill="#ffb27d"/>
        <path id="Trazado_26512" data-name="Trazado 26512" d="M1232.108,1016.7c3.466-.92,2.658.108,7.6-.539s6.411-2.524,6.547-3.264c.122-.657-2.331-.839-4.964-1.09l-.024.051a13.973,13.973,0,0,1-7.054,2.346c-3.361.148-6.942-.745-9.263-.661a8.735,8.735,0,0,0,.1,2.324C1225.533,1018.048,1228.643,1017.621,1232.108,1016.7Z" transform="translate(-1115.359 -868.142)" fill="#233862"/>
        <path id="Trazado_26513" data-name="Trazado 26513" d="M1054.946,829.041l-6.017,17.224-7.855,22.489a13.436,13.436,0,0,1-4.415-.316,19.106,19.106,0,0,1-4.3-1.99s1.83-24.016,5.856-37.862c1.031-3.554,2.209-6.435,3.539-8.07C1048.257,812.512,1054.946,829.041,1054.946,829.041Z" transform="translate(-972.159 -724.262)" fill="#233862"/>
        <path id="Trazado_26514" data-name="Trazado 26514" d="M915.97,748.009c-4.189-1.261-16.028.7-27.909,3.268l-2.578-4.07-25.8-1.5s-8.129,19.019-3.238,30.939a4.092,4.092,0,0,0,4.3,2.684s1.425-.076,1.426-.075,14.4-.079,19.375-.178c12.811-.253,26.94-9.342,28.783-9.748,3.016-.666,4.347,5.367,7.5,11.667s29.022,27.6,29.022,27.6a22.387,22.387,0,0,0,5.513-.676,5.44,5.44,0,0,0,2.343-1.544S925.418,750.853,915.97,748.009Z" transform="translate(-840.18 -670.257)" fill="#2b478b"/>
        <path id="Trazado_26515" data-name="Trazado 26515" d="M838.617,452.761a9.139,9.139,0,0,0-4.979-1.182,14.883,14.883,0,0,1-2.464-.113c-9.788-1.119-15.383,13.182-15.644,17.487-.48,7.935-4.648,9.226-10.449,14.3-11.632,10.182-7.935,21.674-1.383,25.841,3.932,2.5,10.721-.212,10.721-.212.1.066,18.5-10.773,27.575-16.005C855.71,490.655,844.207,455.941,838.617,452.761Z" transform="translate(-797.545 -451.404)" fill="#233862"/>
        <path id="Trazado_26516" data-name="Trazado 26516" d="M903.874,555.674c.041.025-4.482,1.67-7.554.381-2.89-1.209-5.153-5.88-5.11-5.883,1.3-.086,2.71-1.254,3.664-8.751l.559.188,9.4,3.173s-.617,3.007-1,5.866C903.511,553.049,903.358,555.346,903.874,555.674Z" transform="translate(-867.197 -518.345)" fill="#ffb27d"/>
        <path id="Trazado_26517" data-name="Trazado 26517" d="M917.081,545.329s-.617,3.007-1,5.866c-5.378-.859-7.587-6.157-8.4-9.039Z" transform="translate(-879.449 -518.891)" fill="#ed975d"/>
        <path id="Trazado_26518" data-name="Trazado 26518" d="M915.683,501.131s-12.8-1.461-11.766-9.418.076-13.5,8.292-12.907,9.406,3.838,9.707,6.578S919.039,501.306,915.683,501.131Z" transform="translate(-876.603 -471.749)" fill="#ffb27d"/>
        <path id="Trazado_26519" data-name="Trazado 26519" d="M910.461,478.923s-8.033,7.2-13.58,7.881-7.687-1.065-7.687-1.065a21.711,21.711,0,0,0,5.107-7.214,3.909,3.909,0,0,1,3.177-2.368C901.441,475.737,908.962,475.432,910.461,478.923Z" transform="translate(-865.699 -469.627)" fill="#233862"/>
        <path id="Trazado_26520" data-name="Trazado 26520" d="M952.174,481a20.127,20.127,0,0,1,3.685,4.533c.868,1.876,1.207,6.4.58,8.205,0,0,4.1-8.366,1.605-12.342C955.4,477.178,952.174,481,952.174,481Z" transform="translate(-912.533 -472.231)" fill="#233862"/>
        <path id="Trazado_26521" data-name="Trazado 26521" d="M884.531,598.724c.124,25.847.3,20.442-2.481,22.95-.669.6-2.577.993-5.094,1.21-7.913.682-21.867-.348-22.426-1.8-1.928-5.03-.669-6.63-2.346-14.357-.175-.822-.39-1.711-.64-2.679-1.376-5.3-2.65-7.091,1.692-15.738,3.937-7.834,8.062-14.21,8.449-13.991,10.918,6.193,11.682.791,11.682.791S884.472,586.116,884.531,598.724Z" transform="translate(-836.734 -542.803)" fill="#9cc4ff"/>
        <path id="Trazado_26522" data-name="Trazado 26522" d="M1048.929,876.021l-7.855,22.489a13.436,13.436,0,0,1-4.415-.316,19.11,19.11,0,0,1-4.3-1.99s1.83-24.016,5.856-37.862Z" transform="translate(-972.159 -754.018)" fill="#2b478b"/>
        <path id="Trazado_26523" data-name="Trazado 26523" d="M940.445,577.414s11.141,1.663,12.539,6.419,9.626,32.71,9.626,32.71-5.625,1.125-8.284-1.431-9.552-24.015-9.552-24.015Z" transform="translate(-903.811 -545.11)" fill="#9cc4ff"/>
        <path id="Trazado_26524" data-name="Trazado 26524" d="M882.587,685.472c-7.913.682-21.867-.348-22.425-1.8-1.928-5.03-.669-6.63-2.346-14.357l3.609-10.836s-.4,12,3.2,15.078,14.589,5.8,16.359,8.4A9.639,9.639,0,0,1,882.587,685.472Z" transform="translate(-842.364 -605.391)" fill="#7da6ef"/>
        <path id="Trazado_26525" data-name="Trazado 26525" d="M918.644,740.845s7.782-1.895,9.057-1.226,4.407,3.134,4.811,4.006-2.821-.612-3.865-.87c-.676-.167-2.435.483-3.306.793a11.035,11.035,0,0,1-5.938.715Z" transform="translate(-887.598 -665.625)" fill="#ffb27d"/>
        <path id="Trazado_26526" data-name="Trazado 26526" d="M823.771,574.311s-10.483.854-14.016,5.993c-4.974,7.235-14.52,37.837-8.625,41.777,6.639,4.437,29.828.606,29.828.606s.7-3.633-.409-5.361-18.665-4.21-19.489-5,9.784-15.947,9.736-18.37S823.771,574.311,823.771,574.311Z" transform="translate(-798.826 -542.802)" fill="#9cc4ff"/>
        <path id="Trazado_26527" data-name="Trazado 26527" d="M955.618,748.491a15.11,15.11,0,0,0,2.221,2.322,1.6,1.6,0,0,0,.888.172l-1.143-1.965Z" transform="translate(-915.094 -672.329)" fill="#ffb27d"/>
        <path id="Trazado_26528" data-name="Trazado 26528" d="M953.974,740.034l4.808,2.218a.849.849,0,0,1-.783.32,11.352,11.352,0,0,1-2.077-.527Z" transform="translate(-913.871 -666.04)" fill="#ffb27d"/>
      </g>
      <g id="Grupo_16087" data-name="Grupo 16087" transform="translate(31.157 52.575)">
        <g id="Grupo_16086" data-name="Grupo 16086">
          <path id="Trazado_26529" data-name="Trazado 26529" d="M964.532,685.631l37.668-.744,10.775-28.4-37.61.743Z" transform="translate(-952.879 -656.486)" fill="#f99746"/>
          <path id="Trazado_26530" data-name="Trazado 26530" d="M968.819,762.955l-49.741.982.022,1.1,49.3-.973Z" transform="translate(-919.078 -735.66)" fill="#ed7d2b"/>
        </g>
        <path id="Trazado_26531" data-name="Trazado 26531" d="M1062.7,707.917a1.305,1.305,0,0,0-1.315-1.768,2.571,2.571,0,0,0-2.272,1.839,1.305,1.305,0,0,0,1.315,1.768A2.57,2.57,0,0,0,1062.7,707.917Z" transform="translate(-1023.166 -693.417)" fill="#fff"/>
      </g>
    </g>
    <path id="Trazado_26532" data-name="Trazado 26532" d="M778.691,1740.816h436.794a5.525,5.525,0,0,1,5.525,5.525v1.207a5.525,5.525,0,0,1-5.531,5.525l-436.927-.49a5.525,5.525,0,0,1-5.426-6.531l.133-.717A5.525,5.525,0,0,1,778.691,1740.816Z" transform="translate(-454.267 -1159.322)" fill="#233862"/>
  </g>
</svg>
