<svg xmlns="http://www.w3.org/2000/svg" xmlns:xlink="http://www.w3.org/1999/xlink" width="75.857" height="107.169" viewBox="0 0 75.857 107.169">
  <defs>
    <radialGradient id="radial-gradient" cx="0.5" cy="0.5" r="0.5" gradientUnits="objectBoundingBox">
      <stop offset="0" stop-color="#db9c94" stop-opacity="0.6"/>
      <stop offset="1" stop-color="#ecc19c"/>
    </radialGradient>
  </defs>
  <g id="Grupo_16144" data-name="Grupo 16144" transform="translate(-576.768 -227.502)">
    <path id="Trazado_26574" data-name="Trazado 26574" d="M635.264,347.5a69.96,69.96,0,0,1-.8-13.707H614.454a69.934,69.934,0,0,1-.8,13.707c-1.161,6.23-8.1,6.23-8.1,6.23l18.907,5.011,18.906-5.011S636.425,353.733,635.264,347.5Z" transform="translate(-6.518 -24.072)" fill="#ecc19c"/>
    <g id="Grupo_16127" data-name="Grupo 16127" transform="translate(607.886 308.586)">
      <path id="Trazado_26575" data-name="Trazado 26575" d="M637.7,346.257a9.471,9.471,0,0,1-8.729,1.366c-7.53-2.222-10.792-5.709-11.973-7.3.247-4.522.248-8,.248-8l20.007.233A69.7,69.7,0,0,0,637.7,346.257Z" transform="translate(-616.996 -332.325)" fill="#cca88d"/>
    </g>
    <g id="Grupo_16128" data-name="Grupo 16128" transform="translate(583.848 274.167)">
      <path id="Trazado_26576" data-name="Trazado 26576" d="M593.359,291.007s-4.573-6.146-6.486-1.344-.682,11.545,1.406,14.73,6.269,8.274,7.592,8.37,2.4-.488,3.734-1.708Z" transform="translate(-585.921 -287.829)" fill="#ecc19c"/>
      <path id="Trazado_26577" data-name="Trazado 26577" d="M595.3,295.594s-3.068-4.124-4.351-.9a12.312,12.312,0,0,0,.943,9.883c1.4,2.137,4.206,5.551,5.094,5.616a3.276,3.276,0,0,0,2.5-1.146Z" transform="translate(-586.915 -289.105)" fill="#db9c94" opacity="0.6"/>
    </g>
    <g id="Grupo_16129" data-name="Grupo 16129" transform="translate(639.975 275.015)">
      <path id="Trazado_26578" data-name="Trazado 26578" d="M664.176,291.949s4.222-5.872,6.034-1.25a18.031,18.031,0,0,1-1.219,14.132c-1.926,3.045-5.79,7.9-7.022,7.988s-2.24-.483-3.489-1.662Z" transform="translate(-658.48 -288.925)" fill="#ecc19c"/>
      <path id="Trazado_26579" data-name="Trazado 26579" d="M663.611,296.342s2.833-3.94,4.049-.839a12.1,12.1,0,0,1-.818,9.482c-1.292,2.043-3.884,5.3-4.711,5.36a3.059,3.059,0,0,1-2.341-1.116Z" transform="translate(-658.777 -290.145)" fill="#db9c94" opacity="0.6"/>
    </g>
    <path id="Trazado_26580" data-name="Trazado 26580" d="M620.4,234.28c.154,0,.306.006.46.008s.305-.008.459-.008c16.251,0,31.531,13.331,31.531,31.33s-15.28,33.85-31.531,33.85c-.153,0-.306-.005-.459-.009s-.306.009-.46.009c-16.25,0-31.531-15.851-31.531-33.85S604.152,234.28,620.4,234.28Z" transform="translate(-2.741 -1.535)" fill="#333"/>
    <path id="Trazado_26581" data-name="Trazado 26581" d="M623.069,324.552c-8.654,0-18.845-7.362-23.586-14.249-1.432-2.081-1.937-12.75-1.937-20.068,0-10.521-.168-24.562,3.022-30.422,4.24-7.79,16.23-6.311,22.5-6.311h.118c6.271,0,18.261-1.479,22.5,6.311,3.189,5.86,3.021,19.9,3.021,30.422,0,7.318-.5,17.987-1.937,20.068-4.741,6.887-14.932,14.249-23.586,14.249Z" transform="translate(-4.705 -5.863)" fill="#ecc19c"/>
    <path id="Trazado_26582" data-name="Trazado 26582" d="M637.2,250.623s-34.906,20.427-60.432,11.6c0,0,8.707-8.2,12.95-15.346,4.591-7.735,22.024-29.219,48.546-14.135l-.58-5.135s5.511,3.629,6.323,12.376c0,0,6.551.033,8.052,4l-4.254-1.1a22.754,22.754,0,0,1,4.254,11.506c.784,13.336-4.1,21.32-4.1,21.32a25.01,25.01,0,0,1-4.5-11.184C642.035,252.653,639.586,252.765,637.2,250.623Z" transform="translate(0 0)" fill="#333"/>
    <g id="Grupo_16131" data-name="Grupo 16131" transform="translate(580.148 244.048)">
      <g id="Grupo_16130" data-name="Grupo 16130" transform="translate(0)">
        <path id="Trazado_26583" data-name="Trazado 26583" d="M639.447,248.892s-.646.765-1.9,1.98c-.63.6-1.4,1.34-2.325,2.126s-1.973,1.682-3.173,2.58a71.615,71.615,0,0,1-8.553,5.664c-.814.473-1.658.925-2.522,1.366-.854.46-1.744.876-2.638,1.3s-1.812.825-2.735,1.216c-.936.364-1.862.762-2.813,1.1s-1.9.682-2.864.973c-.955.318-1.921.589-2.885.837-.956.275-1.922.487-2.878.688-.95.223-1.905.374-2.84.53a50.819,50.819,0,0,1-5.439.578c-.866.065-1.714.057-2.531.061s-1.606-.026-2.362-.074a39.8,39.8,0,0,1-4.1-.406c-1.211-.192-2.254-.422-3.107-.606-1.7-.454-2.642-.754-2.642-.754s1.008-.017,2.728.026l3.1-.076c1.193-.088,2.527-.141,3.976-.3.725-.064,1.477-.143,2.251-.272s1.576-.192,2.392-.359c1.637-.268,3.349-.615,5.107-1.027s3.558-.9,5.371-1.45l1.365-.416,1.363-.456c.916-.286,1.817-.632,2.725-.958,1.815-.653,3.605-1.382,5.363-2.119,1.747-.758,3.469-1.51,5.111-2.3s3.226-1.565,4.719-2.328,2.9-1.5,4.189-2.208c2.577-1.412,4.712-2.644,6.206-3.52Z" transform="translate(-581.138 -248.892)" fill="#1a1a1a"/>
      </g>
    </g>
    <g id="Grupo_16133" data-name="Grupo 16133" transform="translate(578.363 239.926)">
      <g id="Grupo_16132" data-name="Grupo 16132">
        <path id="Trazado_26584" data-name="Trazado 26584" d="M638.924,243.563s-.8.652-2.246,1.706-3.546,2.524-6.139,4.158c-1.3.819-2.7,1.7-4.219,2.589s-3.123,1.808-4.813,2.714-3.445,1.825-5.253,2.711-3.668,1.746-5.537,2.587c-1.884.81-3.773,1.611-5.665,2.324s-3.769,1.385-5.614,1.963c-.921.289-1.826.576-2.73.811-.9.253-1.778.486-2.646.683a49.7,49.7,0,0,1-4.932.934,31.648,31.648,0,0,1-4.241.364,14.664,14.664,0,0,1-1.779-.017,13.061,13.061,0,0,1-1.5-.127c-.453-.06-.853-.116-1.2-.173l-.869-.226-.71-.2.739-.014.872-.008c.345-.04.738-.078,1.174-.117a12.545,12.545,0,0,0,1.438-.207c.521-.091,1.081-.168,1.675-.318.6-.134,1.226-.259,1.884-.458s1.355-.338,2.071-.573c.718-.22,1.464-.436,2.228-.712.767-.26,1.562-.511,2.368-.818.81-.288,1.643-.581,2.485-.914s1.71-.645,2.582-1c1.75-.685,3.545-1.441,5.372-2.2s3.672-1.566,5.514-2.379c7.38-3.242,14.72-6.648,20.311-9.083,2.782-1.243,5.127-2.241,6.775-2.934S638.924,243.563,638.924,243.563Z" transform="translate(-578.83 -243.563)" fill="#1a1a1a"/>
      </g>
    </g>
    <g id="Grupo_16135" data-name="Grupo 16135" transform="translate(591.178 230.446)">
      <g id="Grupo_16134" data-name="Grupo 16134" transform="translate(0)">
        <path id="Trazado_26585" data-name="Trazado 26585" d="M641.065,237.561l-2.125-.5-2.425-.514c-.933-.194-1.992-.37-3.132-.586-1.149-.183-2.389-.374-3.7-.532-1.308-.174-2.689-.3-4.11-.4-1.422-.081-2.888-.149-4.369-.123a43.315,43.315,0,0,0-4.459.263c-.739.094-1.483.159-2.208.306l-1.091.187-1.072.24a35.936,35.936,0,0,0-4.107,1.21c-.654.237-1.272.528-1.9.767l-1.78.854-1.644.916c-.537.293-1.014.641-1.5.943s-.916.64-1.34.949-.845.588-1.2.893c-.7.622-1.383,1.115-1.882,1.585-1,.938-1.619,1.464-1.619,1.464s.354-.709,1.055-1.934c.354-.61.858-1.3,1.436-2.1.289-.4.648-.784,1-1.215a13.446,13.446,0,0,1,1.2-1.278c.449-.416.893-.887,1.4-1.311s1.057-.849,1.626-1.276c.589-.394,1.2-.8,1.836-1.194.654-.36,1.327-.732,2.027-1.074a27.606,27.606,0,0,1,4.5-1.666l1.19-.318c.4-.09.806-.163,1.211-.241.81-.173,1.631-.262,2.452-.372.821-.092,1.645-.127,2.464-.179.818-.008,1.637-.038,2.441.009l1.2.051,1.184.109c.787.062,1.554.183,2.308.295a40.568,40.568,0,0,1,4.281.93c1.344.352,2.58.8,3.711,1.211a36.992,36.992,0,0,1,5.266,2.454A19.755,19.755,0,0,1,641.065,237.561Z" transform="translate(-595.397 -231.307)" fill="#1a1a1a"/>
      </g>
    </g>
    <g id="Grupo_16137" data-name="Grupo 16137" transform="translate(580.148 237.624)">
      <g id="Grupo_16136" data-name="Grupo 16136" transform="translate(0)">
        <path id="Trazado_26586" data-name="Trazado 26586" d="M634.765,240.823l-.667.13c-.432.073-1.062.232-1.862.389-.8.185-1.763.4-2.862.671s-2.331.6-3.669.958c-.671.169-1.363.371-2.075.6l-2.209.654-2.311.757-1.194.381-1.2.436-2.465.874-2.491.982c-1.689.626-3.352,1.389-5.029,2.116-.418.183-.845.348-1.259.542l-1.229.6-2.453,1.173c-1.619.788-3.156,1.674-4.692,2.45-.779.372-1.481.843-2.2,1.248l-2.106,1.218c-1.4.752-2.628,1.6-3.813,2.33l-1.692,1.059a17.075,17.075,0,0,0-1.518.975c-.924.653-1.756,1.2-2.439,1.65-1.368.9-2.186,1.4-2.186,1.4s.6-.726,1.7-1.95c.555-.61,1.226-1.36,2.027-2.19a37.972,37.972,0,0,1,2.832-2.635,42.062,42.062,0,0,1,3.528-2.937l2.024-1.485c.694-.5,1.4-1.033,2.16-1.487l2.312-1.423c.787-.47,1.563-.988,2.408-1.394l2.516-1.293,1.272-.64c.428-.207.869-.387,1.3-.579,1.754-.739,3.492-1.521,5.279-2.094.884-.31,1.76-.621,2.635-.895l2.615-.733,1.278-.348,1.271-.278,2.457-.518c1.616-.254,3.132-.521,4.553-.639.708-.068,1.384-.149,2.03-.2l1.839-.08c1.15-.064,2.162-.018,2.987-.006A24.07,24.07,0,0,1,634.765,240.823Z" transform="translate(-581.138 -240.588)" fill="#1a1a1a"/>
      </g>
    </g>
    <path id="Trazado_26587" data-name="Trazado 26587" d="M630.635,307.036s.17.411.443.927l.443.857.218.457a3.979,3.979,0,0,1,.177.454,2.725,2.725,0,0,1,.121.427,2.421,2.421,0,0,1,.029.389,1.175,1.175,0,0,1-.064.371,1.137,1.137,0,0,1-.142.363c-.07.106-.111.236-.183.327s-.132.178-.185.251c-.1.15-.164.25-.164.25a2.39,2.39,0,0,0,.295-.039,3.232,3.232,0,0,0,.34-.08,1.78,1.78,0,0,0,.412-.213,1.655,1.655,0,0,0,.23-.156c.07-.07.136-.149.208-.231a1.689,1.689,0,0,0,.333-.607,1.182,1.182,0,0,0,.075-.363,1.6,1.6,0,0,0,.019-.377,2.63,2.63,0,0,0-.145-.714,3.043,3.043,0,0,0-.292-.621,4.052,4.052,0,0,0-.375-.514,3.937,3.937,0,0,0-.825-.712A3.03,3.03,0,0,0,630.635,307.036Z" transform="translate(-12.199 -18.012)" fill="#db9c94" opacity="0.6"/>
    <g id="Grupo_16138" data-name="Grupo 16138" transform="translate(604.529 298.559)">
      <path id="Trazado_26588" data-name="Trazado 26588" d="M633.277,335.613s-.5-.008-1.165.019c-.335.012-.716.022-1.113.045s-.815.036-1.228.036-.825.01-1.214,0c-.2,0-.385-.01-.567-.021s-.361-.006-.523-.023-.32-.016-.459-.025-.259-.024-.362-.031c-.209-.012-.338-.008-.338-.008a3.314,3.314,0,0,0,.224.251,2.988,2.988,0,0,0,.693.548,2.73,2.73,0,0,0,.525.275,3.478,3.478,0,0,0,.625.217,4.948,4.948,0,0,0,1.421.169,5.253,5.253,0,0,0,2.536-.689A3.3,3.3,0,0,0,633.277,335.613Z" transform="translate(-615.749 -323.04)" fill="#db9c94"/>
      <path id="Trazado_26589" data-name="Trazado 26589" d="M640.373,319.363s-15.358,4.445-27.716,0C612.657,319.363,625.429,341.169,640.373,319.363Z" transform="translate(-612.657 -319.363)" fill="#fff"/>
    </g>
    <g id="Grupo_16140" data-name="Grupo 16140" transform="translate(593.729 267.44)">
      <path id="Trazado_26590" data-name="Trazado 26590" d="M613.63,283.038a2.4,2.4,0,0,0,2.027-1.064,1.958,1.958,0,0,0-.689-2.1c-1.9-1.463-8.153-.7-12.3,1.682-1.88,1.079-3.971,4.131-3.974,4.138.2-.12.319-.177.439-.234l.528-.249q.528-.249,1.06-.49c.709-.319,1.426-.62,2.156-.886a15.588,15.588,0,0,1,2.778-.762C608.291,282.636,610.979,283.038,613.63,283.038Z" transform="translate(-598.695 -279.132)"/>
      <g id="Grupo_16139" data-name="Grupo 16139" transform="translate(11.097 10.91)">
        <path id="Trazado_26591" data-name="Trazado 26591" d="M618.011,298.618a5.662,5.662,0,0,0,.155-1.6c-.1-2.152-1.319-3.846-2.733-3.783s-2.482,1.858-2.387,4.01a5.694,5.694,0,0,0,.234,1.369,5.681,5.681,0,0,1,2.326-.709A6.25,6.25,0,0,1,618.011,298.618Z" transform="translate(-613.04 -293.237)"/>
      </g>
    </g>
    <g id="Grupo_16142" data-name="Grupo 16142" transform="translate(626.153 267.46)">
      <path id="Trazado_26592" data-name="Trazado 26592" d="M642.749,283.065A2.4,2.4,0,0,1,640.723,282a1.958,1.958,0,0,1,.689-2.1c1.9-1.463,8.152-.7,12.3,1.682,1.88,1.079,3.971,4.131,3.974,4.138a4.862,4.862,0,0,0-.439-.234l-.528-.249q-.528-.249-1.06-.49c-.709-.319-1.426-.62-2.157-.886a15.574,15.574,0,0,0-2.779-.762C648.088,282.663,645.4,283.065,642.749,283.065Z" transform="translate(-640.612 -279.159)"/>
      <g id="Grupo_16141" data-name="Grupo 16141" transform="translate(0.844 10.91)">
        <path id="Trazado_26593" data-name="Trazado 26593" d="M641.865,298.645a5.61,5.61,0,0,1-.155-1.6c.1-2.152,1.318-3.846,2.732-3.783s2.483,1.858,2.387,4.01a5.689,5.689,0,0,1-.234,1.369,5.676,5.676,0,0,0-2.326-.709A6.249,6.249,0,0,0,641.865,298.645Z" transform="translate(-641.703 -293.264)"/>
      </g>
    </g>
    <g id="Grupo_16143" data-name="Grupo 16143" transform="translate(593.793 289.37)">
      <circle id="Elipse_1077" data-name="Elipse 1077" cx="5.666" cy="5.666" r="5.666" transform="translate(0 0)" fill="url(#radial-gradient)"/>
      <circle id="Elipse_1078" data-name="Elipse 1078" cx="5.666" cy="5.666" r="5.666" transform="translate(37.855 0)" fill="url(#radial-gradient)"/>
    </g>
  </g>
</svg>
