<svg xmlns="http://www.w3.org/2000/svg" width="73.929" height="104.445" viewBox="0 0 73.929 104.445">
  <g id="Grupo_16126" data-name="Grupo 16126" transform="translate(-31.01 -60.479)">
    <path id="Trazado_26554" data-name="Trazado 26554" d="M88.751,180.131a68.186,68.186,0,0,1-.783-13.359H68.47a68.156,68.156,0,0,1-.783,13.359c-1.132,6.072-7.895,6.072-7.895,6.072l18.426,4.883L96.645,186.2S89.882,186.2,88.751,180.131Z" transform="translate(-7.084 -26.161)" fill="#ecc19c"/>
    <g id="Grupo_16110" data-name="Grupo 16110" transform="translate(61.337 139.502)">
      <path id="Trazado_26555" data-name="Trazado 26555" d="M91.414,178.88a9.232,9.232,0,0,1-8.507,1.331c-7.339-2.166-10.517-5.564-11.668-7.117.24-4.407.242-7.793.242-7.793l19.5.227A67.939,67.939,0,0,0,91.414,178.88Z" transform="translate(-71.238 -165.301)" fill="#cca88d"/>
    </g>
    <g id="Grupo_16111" data-name="Grupo 16111" transform="translate(37.91 105.957)">
      <path id="Trazado_26556" data-name="Trazado 26556" d="M47.412,123.9s-4.457-5.99-6.321-1.31-.665,11.252,1.371,14.356,6.109,8.064,7.4,8.158,2.341-.476,3.639-1.665Z" transform="translate(-40.163 -120.805)" fill="#ecc19c"/>
      <path id="Trazado_26557" data-name="Trazado 26557" d="M49.413,128.516s-2.99-4.019-4.241-.879a12,12,0,0,0,.919,9.632c1.366,2.083,4.1,5.411,4.965,5.474a3.2,3.2,0,0,0,2.441-1.117Z" transform="translate(-41.243 -122.191)" fill="#db9c94" opacity="0.6"/>
    </g>
    <g id="Grupo_16112" data-name="Grupo 16112" transform="translate(92.611 106.784)">
      <path id="Trazado_26558" data-name="Trazado 26558" d="M118.274,124.849s4.115-5.723,5.88-1.219a17.572,17.572,0,0,1-1.188,13.773c-1.877,2.968-5.643,7.7-6.844,7.786s-2.183-.471-3.4-1.621Z" transform="translate(-112.722 -121.902)" fill="#ecc19c"/>
      <path id="Trazado_26559" data-name="Trazado 26559" d="M117.756,129.266s2.761-3.839,3.946-.818a11.791,11.791,0,0,1-.8,9.241c-1.259,1.991-3.785,5.168-4.591,5.224a2.98,2.98,0,0,1-2.281-1.087Z" transform="translate(-113.044 -123.228)" fill="#db9c94" opacity="0.6"/>
    </g>
    <path id="Trazado_26560" data-name="Trazado 26560" d="M73.843,67.257c.15,0,.3.006.448.007s.3-.007.448-.007c15.837,0,30.729,12.992,30.729,30.533s-14.892,32.99-30.729,32.99c-.15,0-.3-.006-.448-.009s-.3.009-.448.009c-15.837,0-30.73-15.449-30.73-32.99S58.006,67.257,73.843,67.257Z" transform="translate(-2.979 -1.668)" fill="#333"/>
    <path id="Trazado_26561" data-name="Trazado 26561" d="M76.662,155.721c-8.434,0-18.367-7.175-22.987-13.888-1.4-2.028-1.888-12.425-1.888-19.558,0-10.253-.164-23.938,2.945-29.649,4.132-7.592,15.818-6.151,21.929-6.151h.115c6.112,0,17.8-1.441,21.929,6.151,3.108,5.711,2.945,19.4,2.945,29.649,0,7.132-.492,17.53-1.888,19.558-4.62,6.712-14.553,13.888-22.986,13.888Z" transform="translate(-5.114 -6.371)" fill="#ecc19c"/>
    <path id="Trazado_26562" data-name="Trazado 26562" d="M84.683,138.152s.165.4.432.9l.431.835.213.446a3.938,3.938,0,0,1,.173.443,2.746,2.746,0,0,1,.118.416,2.45,2.45,0,0,1,.028.379,1.188,1.188,0,0,1-.063.361,1.127,1.127,0,0,1-.139.354c-.069.1-.109.23-.179.319s-.129.174-.18.245c-.1.146-.16.243-.16.243a2.332,2.332,0,0,0,.287-.038,3.149,3.149,0,0,0,.332-.078,1.72,1.72,0,0,0,.4-.207,1.657,1.657,0,0,0,.224-.152c.067-.068.133-.145.2-.224a1.65,1.65,0,0,0,.325-.593,1.151,1.151,0,0,0,.073-.354,1.55,1.55,0,0,0,.019-.367,2.564,2.564,0,0,0-.142-.7,3,3,0,0,0-.285-.605,3.944,3.944,0,0,0-.366-.5,3.836,3.836,0,0,0-.8-.694A2.974,2.974,0,0,0,84.683,138.152Z" transform="translate(-13.21 -19.117)" fill="#db9c94" opacity="0.6"/>
    <g id="Grupo_16114" data-name="Grupo 16114" transform="translate(47.919 100.616)">
      <path id="Trazado_26563" data-name="Trazado 26563" d="M68.2,118.263a2.337,2.337,0,0,0,2.158-.561,1.908,1.908,0,0,0-.188-2.144c-1.481-1.81-7.583-2.467-12.044-1.128-2.023.607-4.684,3.04-4.689,3.046.22-.069.343-.1.469-.125l.556-.12c.372-.079.743-.156,1.115-.229.743-.146,1.49-.273,2.243-.364a15.182,15.182,0,0,1,2.806-.107C63.224,116.7,65.687,117.676,68.2,118.263Z" transform="translate(-53.439 -113.72)"/>
      <g id="Grupo_16113" data-name="Grupo 16113" transform="translate(10.29 8.016)">
        <path id="Trazado_26564" data-name="Trazado 26564" d="M69.757,131.951c-1.378.061-2.57-1.59-2.663-3.687s.948-3.848,2.326-3.909,2.57,1.59,2.663,3.688S71.135,131.889,69.757,131.951Z" transform="translate(-67.088 -124.353)"/>
      </g>
    </g>
    <g id="Grupo_16116" data-name="Grupo 16116" transform="translate(77.982 100.616)">
      <path id="Trazado_26565" data-name="Trazado 26565" d="M95.727,118.263a2.337,2.337,0,0,1-2.158-.561,1.907,1.907,0,0,1,.189-2.144c1.48-1.81,7.582-2.467,12.043-1.128,2.023.607,4.684,3.04,4.689,3.046-.22-.069-.343-.1-.469-.125l-.556-.12c-.372-.079-.743-.156-1.115-.229-.743-.146-1.49-.273-2.243-.364a15.182,15.182,0,0,0-2.806-.107C100.705,116.7,98.242,117.676,95.727,118.263Z" transform="translate(-93.318 -113.72)"/>
      <g id="Grupo_16115" data-name="Grupo 16115" transform="translate(1.881 8.016)">
        <path id="Trazado_26566" data-name="Trazado 26566" d="M98.146,131.951c1.378.061,2.57-1.59,2.663-3.687s-.948-3.848-2.326-3.909-2.57,1.59-2.663,3.688S96.768,131.889,98.146,131.951Z" transform="translate(-95.813 -124.353)"/>
      </g>
    </g>
    <g id="Grupo_16117" data-name="Grupo 16117" transform="translate(59.822 130.92)">
      <path id="Trazado_26567" data-name="Trazado 26567" d="M80.015,160.814s.455-.007,1.064.017c.306.01.654.02,1.016.041s.743.032,1.121.033.753.01,1.108,0c.18,0,.352-.009.518-.02s.329-.005.477-.021.292-.014.418-.023.237-.022.332-.029c.19-.01.308-.008.308-.008a2.84,2.84,0,0,1-.2.229,2.7,2.7,0,0,1-.633.5,2.511,2.511,0,0,1-.479.251,3.2,3.2,0,0,1-.571.2,4.548,4.548,0,0,1-1.3.155,4.8,4.8,0,0,1-2.314-.63A3,3,0,0,1,80.015,160.814Z" transform="translate(-71.884 -155.612)" fill="#db9c94"/>
      <path id="Trazado_26568" data-name="Trazado 26568" d="M90.763,154.449a2.825,2.825,0,0,1-.562.117,5.042,5.042,0,0,1-.593.038c-.8.012-1.623-.014-2.448-.018s-1.659.011-2.507.078c-.424.038-.854.083-1.292.163-.225.051-.44.084-.675.16a4.125,4.125,0,0,0-.719.27l-.078.046c.012-.01-.026.011-.046.019s-.047.026-.074.038c-.051.026-.1.051-.152.081-.1.054-.2.116-.3.182a2.578,2.578,0,0,1-.366.207,1.345,1.345,0,0,1-.26.093,1.567,1.567,0,0,1-.153.035,1.519,1.519,0,0,1-.153-.035,1.354,1.354,0,0,1-.261-.093,2.566,2.566,0,0,1-.365-.207c-.1-.066-.2-.128-.3-.182-.049-.03-.1-.056-.152-.081-.026-.013-.048-.029-.074-.038s-.057-.029-.046-.019l-.078-.046a4.1,4.1,0,0,0-.718-.27c-.235-.076-.451-.109-.675-.16-.438-.08-.868-.125-1.292-.163-.848-.066-1.68-.082-2.507-.078s-1.647.03-2.447.018a5.032,5.032,0,0,1-.593-.038,2.825,2.825,0,0,1-.562-.117,4.258,4.258,0,0,1-1.092-.531,3.489,3.489,0,0,0,.919.886,3,3,0,0,0,.594.311,5.8,5.8,0,0,0,.617.21,23.542,23.542,0,0,0,2.467.5l2.412.375c.394.062.777.143,1.147.225.174.05.366.087.52.149a3.67,3.67,0,0,1,.421.167l.119.074a1.242,1.242,0,0,0,.167.079,1.665,1.665,0,0,0,.347.112,1.793,1.793,0,0,0,.75.011,7.507,7.507,0,0,1,1.666,0,1.793,1.793,0,0,0,.75-.011,1.665,1.665,0,0,0,.347-.112,1.242,1.242,0,0,0,.167-.079l.118-.074a3.743,3.743,0,0,1,.421-.167c.153-.061.345-.1.52-.149.369-.082.752-.164,1.147-.225l2.412-.375a23.542,23.542,0,0,0,2.467-.5,5.724,5.724,0,0,0,.617-.21,2.984,2.984,0,0,0,.595-.311,3.474,3.474,0,0,0,.918-.886A4.242,4.242,0,0,1,90.763,154.449Z" transform="translate(-69.229 -153.918)" fill="#db9c94"/>
    </g>
    <path id="Trazado_26569" data-name="Trazado 26569" d="M89.906,83.012S55.888,102.92,31.01,94.32c0,0,8.486-7.987,12.621-14.956C48.1,71.825,65.095,50.888,90.943,65.589l-.565-5s5.371,3.538,6.162,12.062c0,0,6.385.032,7.848,3.9l-4.146-1.068a22.176,22.176,0,0,1,4.146,11.214c.764,13-3.993,20.778-3.993,20.778a24.375,24.375,0,0,1-4.387-10.9C94.618,84.99,92.232,85.1,89.906,83.012Z" transform="translate(0 0)" fill="#333"/>
    <g id="Grupo_16119" data-name="Grupo 16119" transform="translate(34.304 76.604)">
      <g id="Grupo_16118" data-name="Grupo 16118" transform="translate(0 0)">
        <path id="Trazado_26570" data-name="Trazado 26570" d="M92.207,81.868s-.629.746-1.853,1.93c-.614.589-1.362,1.306-2.266,2.072S86.165,87.51,85,88.385a69.882,69.882,0,0,1-8.336,5.521c-.793.461-1.616.9-2.458,1.331-.832.448-1.7.854-2.571,1.27s-1.766.8-2.666,1.184c-.912.356-1.815.743-2.741,1.074s-1.852.665-2.791.949c-.931.309-1.872.574-2.812.816-.932.267-1.873.474-2.8.67-.926.217-1.857.364-2.768.516a49.323,49.323,0,0,1-5.3.563c-.844.063-1.671.056-2.467.06s-1.565-.026-2.3-.072a38.809,38.809,0,0,1-4-.4c-1.18-.188-2.2-.412-3.028-.59-1.655-.443-2.575-.736-2.575-.736s.982-.016,2.659.025l3.02-.074c1.162-.086,2.464-.136,3.875-.295.706-.062,1.439-.139,2.194-.265s1.536-.187,2.331-.35c1.6-.261,3.264-.6,4.977-1s3.468-.872,5.235-1.413L61,96.767l1.328-.444c.893-.278,1.771-.616,2.656-.933,1.77-.636,3.514-1.347,5.227-2.065,1.7-.739,3.381-1.471,4.981-2.241s3.144-1.525,4.6-2.268,2.828-1.462,4.082-2.153c2.512-1.377,4.592-2.577,6.048-3.431Z" transform="translate(-35.38 -81.868)" fill="#1a1a1a"/>
      </g>
    </g>
    <g id="Grupo_16121" data-name="Grupo 16121" transform="translate(32.564 72.586)">
      <g id="Grupo_16120" data-name="Grupo 16120" transform="translate(0)">
        <path id="Trazado_26571" data-name="Trazado 26571" d="M91.639,76.539s-.776.636-2.188,1.662-3.456,2.46-5.983,4.053c-1.263.8-2.634,1.661-4.112,2.523s-3.044,1.762-4.691,2.645-3.357,1.778-5.12,2.642-3.575,1.7-5.4,2.521c-1.836.789-3.677,1.57-5.521,2.265s-3.673,1.351-5.471,1.913c-.9.281-1.78.562-2.66.792-.873.246-1.732.473-2.579.665a48.692,48.692,0,0,1-4.806.911,30.984,30.984,0,0,1-4.134.354,14.286,14.286,0,0,1-1.734-.017,12.917,12.917,0,0,1-1.466-.123c-.441-.059-.832-.114-1.169-.169l-.847-.221-.692-.191.72-.014.85-.008c.336-.039.719-.076,1.144-.114a12.214,12.214,0,0,0,1.4-.2c.507-.089,1.053-.164,1.634-.31.58-.13,1.194-.253,1.836-.447s1.321-.329,2.018-.559c.7-.213,1.427-.424,2.171-.694.747-.253,1.521-.5,2.308-.8.789-.281,1.6-.567,2.422-.891s1.666-.629,2.516-.975c1.706-.666,3.455-1.4,5.236-2.144,1.775-.755,3.579-1.527,5.375-2.32,7.192-3.159,14.345-6.48,19.794-8.852,2.711-1.211,5-2.183,6.6-2.859S91.639,76.539,91.639,76.539Z" transform="translate(-33.072 -76.539)" fill="#1a1a1a"/>
      </g>
    </g>
    <g id="Grupo_16123" data-name="Grupo 16123" transform="translate(45.054 63.348)">
      <g id="Grupo_16122" data-name="Grupo 16122">
        <path id="Trazado_26572" data-name="Trazado 26572" d="M94.145,70.378l-2.07-.485-2.363-.5c-.909-.188-1.941-.36-3.052-.57-1.119-.179-2.328-.366-3.605-.519-1.275-.169-2.62-.289-4.005-.391-1.386-.079-2.814-.146-4.258-.12a42,42,0,0,0-4.346.256c-.72.091-1.445.154-2.152.3l-1.064.182-1.045.234a35.016,35.016,0,0,0-4,1.178c-.637.231-1.24.516-1.855.747l-1.735.832-1.6.893c-.524.286-.989.625-1.463.919s-.893.624-1.306.926-.823.572-1.172.869c-.683.607-1.348,1.087-1.834,1.545-.974.914-1.578,1.426-1.578,1.426s.345-.691,1.028-1.885c.345-.593.836-1.265,1.4-2.048.282-.391.632-.764.977-1.184a13.187,13.187,0,0,1,1.174-1.245c.437-.406.87-.865,1.369-1.278s1.03-.827,1.585-1.242c.574-.384,1.171-.776,1.79-1.165.638-.351,1.293-.713,1.975-1.046a26.836,26.836,0,0,1,4.388-1.623l1.16-.31c.391-.088.786-.16,1.181-.235.789-.169,1.589-.256,2.389-.363.8-.09,1.6-.124,2.4-.173.8-.008,1.6-.037,2.379.008l1.173.05,1.154.107c.767.06,1.515.177,2.25.287a39.352,39.352,0,0,1,4.173.905c1.309.343,2.514.776,3.616,1.181a36.052,36.052,0,0,1,5.132,2.391A19.164,19.164,0,0,1,94.145,70.378Z" transform="translate(-49.639 -64.284)" fill="#1a1a1a"/>
      </g>
    </g>
    <g id="Grupo_16125" data-name="Grupo 16125" transform="translate(34.304 70.344)">
      <g id="Grupo_16124" data-name="Grupo 16124" transform="translate(0 0)">
        <path id="Trazado_26573" data-name="Trazado 26573" d="M87.644,73.793l-.65.127c-.421.071-1.035.225-1.815.379-.777.18-1.718.389-2.789.654s-2.272.58-3.576.933c-.654.165-1.328.363-2.022.585l-2.153.637-2.252.738-1.164.372-1.172.425-2.4.851-2.427.958c-1.646.609-3.267,1.353-4.9,2.062-.408.179-.824.339-1.227.528l-1.2.587L55.5,84.773c-1.578.768-3.076,1.631-4.573,2.388-.759.363-1.444.822-2.148,1.218l-2.051,1.187c-1.363.733-2.562,1.564-3.717,2.271l-1.649,1.032a16.643,16.643,0,0,0-1.48.95c-.9.636-1.711,1.165-2.376,1.608-1.334.883-2.131,1.361-2.131,1.361s.581-.707,1.661-1.9c.541-.594,1.195-1.325,1.976-2.134a37.167,37.167,0,0,1,2.76-2.568,40.86,40.86,0,0,1,3.438-2.862l1.972-1.448c.676-.491,1.36-1.006,2.106-1.45l2.253-1.386c.767-.458,1.524-.963,2.347-1.358l2.452-1.26,1.24-.624c.418-.2.847-.377,1.272-.564,1.71-.72,3.4-1.481,5.144-2.041.862-.3,1.715-.605,2.568-.872l2.549-.714,1.245-.339,1.239-.271,2.394-.5c1.575-.248,3.052-.507,4.437-.622.691-.066,1.349-.146,1.978-.192l1.793-.078c1.121-.062,2.107-.017,2.911-.006A23.457,23.457,0,0,1,87.644,73.793Z" transform="translate(-35.38 -73.564)" fill="#1a1a1a"/>
      </g>
    </g>
  </g>
</svg>
