<svg xmlns="http://www.w3.org/2000/svg" width="73.59" height="103.967" viewBox="0 0 73.59 103.967">
  <g id="Grupo_16162" data-name="Grupo 16162" transform="translate(-711.783 -60.479)">
    <path id="Trazado_26594" data-name="Trazado 26594" d="M769.39,180.069a67.876,67.876,0,0,1-.78-13.3H749.2a67.873,67.873,0,0,1-.78,13.3c-1.126,6.045-7.858,6.045-7.858,6.045l18.342,4.86,18.342-4.86S770.517,186.114,769.39,180.069Z" transform="translate(-7.183 -26.529)" fill="#ecc19c"/>
    <g id="Grupo_16145" data-name="Grupo 16145" transform="translate(741.971 139.14)">
      <path id="Trazado_26595" data-name="Trazado 26595" d="M772.094,178.818a9.19,9.19,0,0,1-8.469,1.324c-7.305-2.156-10.469-5.538-11.614-7.084.239-4.387.24-7.757.24-7.757l19.41.226A67.7,67.7,0,0,0,772.094,178.818Z" transform="translate(-752.011 -165.301)" fill="#cca88d"/>
    </g>
    <g id="Grupo_16146" data-name="Grupo 16146" transform="translate(718.651 105.749)">
      <path id="Trazado_26596" data-name="Trazado 26596" d="M728.15,123.889s-4.437-5.963-6.292-1.3-.662,11.2,1.364,14.29S729.3,144.9,730.589,145s2.33-.474,3.621-1.658Z" transform="translate(-720.935 -120.805)" fill="#ecc19c"/>
      <path id="Trazado_26597" data-name="Trazado 26597" d="M730.163,128.506s-2.976-4-4.221-.875a11.95,11.95,0,0,0,.915,9.588c1.36,2.073,4.081,5.386,4.942,5.449a3.183,3.183,0,0,0,2.431-1.112Z" transform="translate(-722.03 -122.211)" fill="#db9c94" opacity="0.6"/>
    </g>
    <g id="Grupo_16147" data-name="Grupo 16147" transform="translate(773.101 106.572)">
      <path id="Trazado_26598" data-name="Trazado 26598" d="M799.02,124.835s4.1-5.7,5.853-1.213a17.492,17.492,0,0,1-1.183,13.709c-1.869,2.954-5.616,7.668-6.812,7.75s-2.174-.469-3.384-1.613Z" transform="translate(-793.495 -121.902)" fill="#ecc19c"/>
      <path id="Trazado_26599" data-name="Trazado 26599" d="M798.512,129.257s2.748-3.822,3.927-.814a11.741,11.741,0,0,1-.793,9.2c-1.254,1.982-3.769,5.144-4.571,5.2a2.966,2.966,0,0,1-2.271-1.082Z" transform="translate(-793.822 -123.246)" fill="#db9c94" opacity="0.6"/>
    </g>
    <path id="Trazado_26600" data-name="Trazado 26600" d="M754.474,67.257c.149,0,.3.006.446.007s.3-.007.446-.007c15.765,0,30.589,12.932,30.589,30.394s-14.825,32.839-30.589,32.839c-.149,0-.3-.006-.446-.009s-.3.009-.446.009c-15.765,0-30.589-15.378-30.589-32.839S738.71,67.257,754.474,67.257Z" transform="translate(-3.02 -1.692)" fill="#333"/>
    <path id="Trazado_26601" data-name="Trazado 26601" d="M757.32,155.4c-8.395,0-18.283-7.143-22.881-13.824-1.39-2.019-1.88-12.368-1.88-19.468,0-10.206-.163-23.828,2.932-29.513,4.114-7.557,15.745-6.123,21.829-6.123h.115c6.084,0,17.715-1.435,21.829,6.123,3.095,5.685,2.932,19.307,2.932,29.513,0,7.1-.49,17.45-1.88,19.468-4.6,6.682-14.486,13.824-22.881,13.824Z" transform="translate(-5.185 -6.461)" fill="#ecc19c"/>
    <path id="Trazado_26602" data-name="Trazado 26602" d="M770.41,82.908s-33.863,19.817-58.627,11.256c0,0,8.446-7.951,12.562-14.888,4.454-7.5,21.366-28.345,47.1-13.712l-.563-4.982s5.347,3.522,6.134,12.007c0,0,6.355.032,7.811,3.877L780.7,75.4a22.074,22.074,0,0,1,4.127,11.163c.761,12.939-3.974,20.683-3.974,20.683a24.263,24.263,0,0,1-4.367-10.85C775.1,84.878,772.724,84.986,770.41,82.908Z" transform="translate(0 0)" fill="#333"/>
    <g id="Grupo_16149" data-name="Grupo 16149" transform="translate(715.062 76.53)">
      <g id="Grupo_16148" data-name="Grupo 16148" transform="translate(0 0)">
        <path id="Trazado_26603" data-name="Trazado 26603" d="M772.719,81.868s-.627.742-1.845,1.921c-.612.586-1.356,1.3-2.256,2.063s-1.914,1.632-3.078,2.5a69.632,69.632,0,0,1-8.3,5.5c-.789.459-1.608.9-2.446,1.325-.828.446-1.691.85-2.559,1.264s-1.758.8-2.654,1.179c-.908.354-1.806.739-2.729,1.069s-1.843.662-2.778.945c-.926.308-1.863.571-2.8.812-.928.266-1.865.472-2.792.667-.922.216-1.848.362-2.756.513a49.1,49.1,0,0,1-5.276.561c-.84.063-1.663.056-2.455.059s-1.558-.026-2.291-.072a38.647,38.647,0,0,1-3.979-.393c-1.174-.187-2.186-.41-3.014-.588-1.646-.441-2.563-.732-2.563-.732s.978-.016,2.647.025l3.005-.074c1.157-.086,2.452-.136,3.858-.293.7-.062,1.432-.139,2.183-.264s1.529-.186,2.321-.348c1.587-.26,3.249-.6,4.953-1s3.452-.868,5.211-1.406l1.324-.4,1.322-.442c.889-.277,1.764-.613,2.644-.929,1.762-.633,3.5-1.341,5.2-2.055,1.7-.735,3.366-1.464,4.958-2.231s3.129-1.518,4.578-2.257,2.815-1.455,4.064-2.143c2.5-1.37,4.571-2.565,6.021-3.415Z" transform="translate(-716.152 -81.868)" fill="#1a1a1a"/>
      </g>
    </g>
    <g id="Grupo_16151" data-name="Grupo 16151" transform="translate(713.33 72.531)">
      <g id="Grupo_16150" data-name="Grupo 16150" transform="translate(0 0)">
        <path id="Trazado_26604" data-name="Trazado 26604" d="M772.143,76.539s-.771.633-2.178,1.655-3.439,2.449-5.955,4.034c-1.257.8-2.622,1.653-4.093,2.512s-3.03,1.754-4.668,2.632-3.342,1.77-5.1,2.63-3.558,1.694-5.372,2.509c-1.827.786-3.659,1.562-5.5,2.255s-3.656,1.345-5.446,1.9c-.894.28-1.772.56-2.648.788-.869.245-1.724.471-2.566.662a48.479,48.479,0,0,1-4.785.907,30.83,30.83,0,0,1-4.115.353A14.208,14.208,0,0,1,718,99.364a12.826,12.826,0,0,1-1.459-.122c-.439-.059-.828-.113-1.163-.168l-.843-.22-.69-.191.717-.014.846-.008c.335-.039.716-.076,1.139-.113a12.159,12.159,0,0,0,1.4-.2c.505-.089,1.048-.163,1.626-.308.577-.13,1.189-.251,1.827-.445s1.315-.328,2.01-.556c.7-.212,1.42-.422,2.161-.691.743-.252,1.514-.5,2.3-.792.786-.28,1.594-.564,2.411-.887s1.658-.627,2.5-.97c1.7-.663,3.439-1.4,5.212-2.134,1.767-.752,3.562-1.52,5.351-2.309,7.159-3.144,14.28-6.45,19.7-8.811,2.7-1.205,4.974-2.173,6.573-2.846S772.143,76.539,772.143,76.539Z" transform="translate(-713.844 -76.539)" fill="#1a1a1a"/>
      </g>
    </g>
    <g id="Grupo_16153" data-name="Grupo 16153" transform="translate(725.763 63.334)">
      <g id="Grupo_16152" data-name="Grupo 16152">
        <path id="Trazado_26605" data-name="Trazado 26605" d="M774.715,70.35l-2.061-.483-2.353-.5c-.9-.188-1.932-.359-3.038-.567-1.114-.178-2.317-.364-3.589-.517s-2.608-.287-3.986-.389c-1.381-.079-2.8-.145-4.239-.119a41.811,41.811,0,0,0-4.326.255c-.717.091-1.439.153-2.142.3l-1.059.182-1.039.233a34.771,34.771,0,0,0-3.985,1.173c-.635.23-1.234.513-1.847.744l-1.727.828-1.594.888c-.522.284-.985.622-1.456.915s-.889.621-1.3.922-.82.57-1.167.865c-.68.6-1.342,1.082-1.826,1.538-.97.91-1.57,1.42-1.57,1.42s.342-.688,1.023-1.876c.344-.591.832-1.259,1.393-2.039.281-.389.629-.761.973-1.179a13.117,13.117,0,0,1,1.168-1.24c.435-.4.866-.861,1.363-1.272s1.025-.823,1.577-1.237c.572-.383,1.165-.773,1.781-1.159.635-.349,1.287-.71,1.966-1.042a26.713,26.713,0,0,1,4.368-1.616l1.155-.308c.389-.088.782-.159,1.176-.234.785-.168,1.583-.255,2.378-.362.8-.089,1.6-.123,2.391-.173.793-.008,1.587-.037,2.368.008l1.167.05,1.15.107c.762.059,1.507.176,2.238.286a39.129,39.129,0,0,1,4.154.9c1.3.341,2.5.773,3.6,1.175a35.885,35.885,0,0,1,5.109,2.38A19.169,19.169,0,0,1,774.715,70.35Z" transform="translate(-730.412 -64.284)" fill="#1a1a1a"/>
      </g>
    </g>
    <g id="Grupo_16155" data-name="Grupo 16155" transform="translate(715.062 70.299)">
      <g id="Grupo_16154" data-name="Grupo 16154">
        <path id="Trazado_26606" data-name="Trazado 26606" d="M768.176,73.792l-.646.127c-.419.071-1.03.224-1.807.377-.774.179-1.71.387-2.776.651s-2.261.578-3.559.929c-.651.164-1.322.361-2.013.582l-2.143.634-2.242.735-1.159.371-1.167.423-2.391.847-2.417.954c-1.639.606-3.252,1.347-4.879,2.052-.406.178-.82.338-1.221.526l-1.192.584-2.379,1.138c-1.571.765-3.062,1.624-4.553,2.377-.756.361-1.436.818-2.138,1.212l-2.042,1.181c-1.357.729-2.55,1.556-3.7,2.26l-1.641,1.027a16.588,16.588,0,0,0-1.474.946c-.9.633-1.7,1.16-2.365,1.6-1.328.879-2.121,1.354-2.121,1.354s.579-.7,1.653-1.892c.539-.591,1.189-1.319,1.967-2.124a36.976,36.976,0,0,1,2.747-2.557,40.758,40.758,0,0,1,3.423-2.849l1.963-1.442c.673-.489,1.354-1,2.1-1.443l2.243-1.38c.764-.456,1.517-.959,2.336-1.352l2.441-1.255,1.234-.621c.416-.2.844-.375,1.266-.561,1.7-.717,3.388-1.475,5.121-2.031.858-.3,1.707-.6,2.557-.868l2.537-.711,1.24-.338,1.233-.27,2.384-.5c1.567-.247,3.038-.5,4.417-.619.687-.066,1.342-.146,1.968-.191l1.785-.077c1.116-.062,2.1-.017,2.9-.006A23.349,23.349,0,0,1,768.176,73.792Z" transform="translate(-716.152 -73.564)" fill="#1a1a1a"/>
      </g>
    </g>
    <path id="Trazado_26607" data-name="Trazado 26607" d="M765.565,138.164s.164.4.429.9l.43.831.212.444a3.845,3.845,0,0,1,.172.44,2.675,2.675,0,0,1,.117.414,2.441,2.441,0,0,1,.029.377,1.161,1.161,0,0,1-.063.359,1.087,1.087,0,0,1-.138.352c-.068.1-.108.229-.177.318s-.129.173-.18.244c-.1.145-.158.242-.158.242a2.5,2.5,0,0,0,.285-.038c.091-.019.2-.04.33-.078a1.754,1.754,0,0,0,.4-.207,1.639,1.639,0,0,0,.222-.151c.068-.068.132-.144.2-.224a1.643,1.643,0,0,0,.323-.59,1.14,1.14,0,0,0,.073-.352,1.539,1.539,0,0,0,.019-.365,2.547,2.547,0,0,0-.141-.693,2.958,2.958,0,0,0-.284-.6,3.92,3.92,0,0,0-.364-.5,3.8,3.8,0,0,0-.8-.691A2.932,2.932,0,0,0,765.565,138.164Z" transform="translate(-13.423 -19.389)" fill="#db9c94" opacity="0.6"/>
    <g id="Grupo_16157" data-name="Grupo 16157" transform="translate(728.066 95.839)">
      <path id="Trazado_26608" data-name="Trazado 26608" d="M747.974,111.391a2.33,2.33,0,0,0,1.968-1.03,1.9,1.9,0,0,0-.666-2.037c-1.842-1.422-7.908-.687-11.932,1.615-1.826,1.045-3.858,4-3.862,4.008.2-.116.31-.171.426-.227l.513-.241q.512-.241,1.029-.473c.688-.308,1.384-.6,2.093-.858a15.21,15.21,0,0,1,2.7-.735C742.8,110.993,745.4,111.388,747.974,111.391Z" transform="translate(-733.482 -107.599)"/>
      <g id="Grupo_16156" data-name="Grupo 16156" transform="translate(10.876 12.585)">
        <path id="Trazado_26609" data-name="Trazado 26609" d="M752.943,128.039a5.236,5.236,0,0,1-.138,1.495c-.351-1.607-1.356-2.763-2.512-2.713-1.03.038-1.859,1.03-2.185,2.4a5.992,5.992,0,0,1-.126-.967c-.1-2.085.942-3.818,2.311-3.881S752.855,125.954,752.943,128.039Z" transform="translate(-747.975 -124.37)"/>
      </g>
    </g>
    <g id="Grupo_16159" data-name="Grupo 16159" transform="translate(759.751 95.837)">
      <path id="Trazado_26610" data-name="Trazado 26610" d="M777.781,111.389a2.329,2.329,0,0,1-1.968-1.03,1.9,1.9,0,0,1,.666-2.037c1.842-1.422,7.909-.687,11.932,1.615,1.826,1.045,3.858,4,3.862,4.008-.2-.116-.31-.171-.426-.227l-.513-.241q-.512-.241-1.03-.474c-.688-.308-1.384-.6-2.092-.857a15.146,15.146,0,0,0-2.7-.735C782.959,110.991,780.352,111.385,777.781,111.389Z" transform="translate(-775.705 -107.597)"/>
      <g id="Grupo_16158" data-name="Grupo 16158" transform="translate(0.718 12.585)">
        <path id="Trazado_26611" data-name="Trazado 26611" d="M776.668,128.037a5.24,5.24,0,0,0,.138,1.495c.351-1.607,1.356-2.763,2.512-2.713,1.03.038,1.859,1.03,2.185,2.4a5.992,5.992,0,0,0,.126-.967c.1-2.085-.943-3.818-2.311-3.881S776.756,125.952,776.668,128.037Z" transform="translate(-776.661 -124.368)"/>
      </g>
    </g>
    <path id="Trazado_26612" data-name="Trazado 26612" d="M761.522,169.845s.453-.007,1.059.017c.3.01.651.02,1.012.041s.74.032,1.116.032.75.011,1.1,0c.179,0,.35-.009.516-.019s.328-.005.475-.022.29-.014.416-.022.236-.022.329-.029c.19-.01.308-.008.308-.008a2.989,2.989,0,0,1-.2.228,2.682,2.682,0,0,1-.63.5,2.5,2.5,0,0,1-.477.25,3.128,3.128,0,0,1-.569.2,4.466,4.466,0,0,1-1.292.155,4.78,4.78,0,0,1-2.3-.627A2.988,2.988,0,0,1,761.522,169.845Z" transform="translate(-12.414 -27.292)" fill="#db9c94"/>
    <g id="Grupo_16161" data-name="Grupo 16161" transform="translate(740.347 126.655)">
      <path id="Trazado_26613" data-name="Trazado 26613" d="M772.926,148.736c-1.026-.5-6.367,1.748-11.561,1.758-4.972.011-9.806-2.233-10.788-1.758-3.02,1.463,3.819,14.861,11.473,14.411C769.7,163.6,775.946,150.2,772.926,148.736Z" transform="translate(-749.847 -148.665)" fill="#7a2742"/>
      <g id="Grupo_16160" data-name="Grupo 16160" transform="translate(1.345 0)">
        <path id="Trazado_26614" data-name="Trazado 26614" d="M772.035,148.775a4.832,4.832,0,0,1-.608,2.7c-.844,1.164-3.02,4.116-11.918,3.483-7.119-.506-7.861-4.647-7.87-6.292,1.645.1,5.9,1.83,10.257,1.822C765.843,150.478,769.875,149.179,772.035,148.775Z" transform="translate(-751.639 -148.665)" fill="#fff"/>
      </g>
    </g>
  </g>
</svg>
