<svg xmlns="http://www.w3.org/2000/svg" width="75.199" height="106.24" viewBox="0 0 75.199 106.24">
  <g id="Grupo_16109" data-name="Grupo 16109" transform="translate(-167.165 -60.479)">
    <path id="Trazado_26533" data-name="Trazado 26533" d="M225.4,180.36a69.327,69.327,0,0,1-.8-13.588H204.774a69.358,69.358,0,0,1-.8,13.588c-1.151,6.177-8.029,6.177-8.029,6.177L214.69,191.5l18.743-4.967S226.554,186.537,225.4,180.36Z" transform="translate(-6.711 -24.785)" fill="#ecc19c"/>
    <g id="Grupo_16090" data-name="Grupo 16090" transform="translate(198.013 140.859)">
      <path id="Trazado_26534" data-name="Trazado 26534" d="M227.915,179.113a9.391,9.391,0,0,1-8.654,1.353c-7.465-2.2-10.7-5.659-11.868-7.239.244-4.483.245-7.927.245-7.927l19.834.231A69.174,69.174,0,0,0,227.915,179.113Z" transform="translate(-207.393 -165.301)" fill="#cca88d"/>
    </g>
    <g id="Grupo_16091" data-name="Grupo 16091" transform="translate(174.184 106.739)">
      <path id="Trazado_26535" data-name="Trazado 26535" d="M183.69,123.956s-4.533-6.093-6.429-1.333-.677,11.445,1.393,14.6,6.215,8.2,7.527,8.3,2.381-.485,3.7-1.694Z" transform="translate(-176.318 -120.805)" fill="#ecc19c"/>
      <path id="Trazado_26536" data-name="Trazado 26536" d="M185.652,128.551s-3.042-4.088-4.314-.894a12.211,12.211,0,0,0,.935,9.8c1.389,2.119,4.17,5.5,5.05,5.568a3.251,3.251,0,0,0,2.484-1.136Z" transform="translate(-177.341 -122.118)" fill="#db9c94" opacity="0.6"/>
    </g>
    <g id="Grupo_16092" data-name="Grupo 16092" transform="translate(229.824 107.58)">
      <path id="Trazado_26537" data-name="Trazado 26537" d="M254.523,124.9s4.185-5.821,5.981-1.24a17.874,17.874,0,0,1-1.209,14.009c-1.909,3.019-5.739,7.835-6.96,7.92s-2.221-.479-3.458-1.649Z" transform="translate(-248.877 -121.902)" fill="#ecc19c"/>
      <path id="Trazado_26538" data-name="Trazado 26538" d="M253.975,129.3s2.808-3.905,4.013-.832a11.993,11.993,0,0,1-.811,9.4c-1.281,2.025-3.851,5.257-4.671,5.313a3.031,3.031,0,0,1-2.32-1.106Z" transform="translate(-249.182 -123.158)" fill="#db9c94" opacity="0.6"/>
    </g>
    <path id="Trazado_26539" data-name="Trazado 26539" d="M210.525,67.257c.153,0,.3.006.455.007s.3-.007.456-.007c16.109,0,31.258,13.215,31.258,31.058s-15.149,33.557-31.258,33.557c-.152,0-.3-.006-.456-.009s-.3.009-.455.009c-16.109,0-31.257-15.715-31.257-33.557S194.416,67.257,210.525,67.257Z" transform="translate(-2.822 -1.58)" fill="#333"/>
    <path id="Trazado_26540" data-name="Trazado 26540" d="M213.244,156.912c-8.578,0-18.681-7.3-23.381-14.126-1.42-2.063-1.921-12.639-1.921-19.894,0-10.43-.166-24.349,3-30.158,4.2-7.723,16.09-6.257,22.306-6.257h.117c6.217,0,18.1-1.466,22.306,6.257,3.162,5.809,3,19.729,3,30.158,0,7.255-.5,17.831-1.92,19.894-4.7,6.828-14.8,14.126-23.382,14.126Z" transform="translate(-4.844 -6.036)" fill="#ecc19c"/>
    <path id="Trazado_26541" data-name="Trazado 26541" d="M220.837,138.152s.169.407.439.919l.439.85.216.453a4,4,0,0,1,.176.45,2.706,2.706,0,0,1,.12.423,2.5,2.5,0,0,1,.029.386,1.187,1.187,0,0,1-.064.367,1.111,1.111,0,0,1-.141.36c-.069.105-.11.234-.182.324s-.131.177-.183.249c-.1.149-.162.248-.162.248a2.352,2.352,0,0,0,.291-.039,3.154,3.154,0,0,0,.337-.08,1.754,1.754,0,0,0,.41-.211,1.681,1.681,0,0,0,.227-.155c.069-.069.135-.147.206-.228a1.679,1.679,0,0,0,.331-.6,1.17,1.17,0,0,0,.074-.36,1.576,1.576,0,0,0,.019-.373,2.608,2.608,0,0,0-.144-.709,3.013,3.013,0,0,0-.29-.616,4.012,4.012,0,0,0-.372-.509,3.9,3.9,0,0,0-.817-.706A3.025,3.025,0,0,0,220.837,138.152Z" transform="translate(-12.515 -18.111)" fill="#db9c94" opacity="0.6"/>
    <g id="Grupo_16094" data-name="Grupo 16094" transform="translate(184.364 101.306)">
      <path id="Trazado_26542" data-name="Trazado 26542" d="M204.61,118.341a2.378,2.378,0,0,0,2.2-.571,1.941,1.941,0,0,0-.192-2.181c-1.505-1.841-7.714-2.51-12.251-1.147-2.058.617-4.764,3.093-4.769,3.1a4.882,4.882,0,0,1,.476-.127l.566-.122q.566-.121,1.134-.233c.756-.148,1.516-.278,2.281-.37a15.445,15.445,0,0,1,2.854-.109C199.547,116.75,202.052,117.744,204.61,118.341Z" transform="translate(-189.594 -113.72)"/>
      <g id="Grupo_16093" data-name="Grupo 16093" transform="translate(10.466 8.153)">
        <path id="Trazado_26543" data-name="Trazado 26543" d="M205.957,132.081c-1.4.062-2.614-1.617-2.708-3.751s.965-3.914,2.366-3.976,2.614,1.617,2.709,3.751S207.358,132.019,205.957,132.081Z" transform="translate(-203.242 -124.353)"/>
      </g>
    </g>
    <g id="Grupo_16096" data-name="Grupo 16096" transform="translate(214.944 101.306)">
      <path id="Trazado_26544" data-name="Trazado 26544" d="M231.922,118.341a2.378,2.378,0,0,1-2.2-.571,1.941,1.941,0,0,1,.192-2.181c1.505-1.841,7.714-2.51,12.251-1.147,2.058.617,4.764,3.093,4.769,3.1a4.826,4.826,0,0,0-.477-.127l-.565-.122q-.566-.121-1.134-.233c-.756-.148-1.516-.278-2.281-.37a15.445,15.445,0,0,0-2.854-.109C236.986,116.75,234.481,117.744,231.922,118.341Z" transform="translate(-229.472 -113.72)"/>
      <g id="Grupo_16095" data-name="Grupo 16095" transform="translate(1.913 8.153)">
        <path id="Trazado_26545" data-name="Trazado 26545" d="M234.34,132.081c1.4.062,2.615-1.617,2.709-3.751s-.965-3.914-2.366-3.976-2.615,1.617-2.709,3.751S232.939,132.019,234.34,132.081Z" transform="translate(-231.967 -124.353)"/>
      </g>
    </g>
    <g id="Grupo_16097" data-name="Grupo 16097" transform="translate(196.472 132.13)">
      <path id="Trazado_26546" data-name="Trazado 26546" d="M216.169,160.814s.463-.007,1.082.018c.311.01.665.021,1.034.041s.757.033,1.14.034.767.01,1.128,0c.182,0,.357-.009.527-.02s.335-.005.485-.021.3-.015.426-.023.241-.022.337-.029c.193-.01.314-.008.314-.008a2.889,2.889,0,0,1-.208.233,2.752,2.752,0,0,1-.643.51,2.585,2.585,0,0,1-.488.255,3.255,3.255,0,0,1-.58.2,4.621,4.621,0,0,1-1.32.158,4.884,4.884,0,0,1-2.355-.641A3.064,3.064,0,0,1,216.169,160.814Z" transform="translate(-207.899 -155.523)" fill="#db9c94"/>
      <path id="Trazado_26547" data-name="Trazado 26547" d="M227.287,154.458a2.873,2.873,0,0,1-.571.119,5.113,5.113,0,0,1-.6.039c-.814.012-1.651-.015-2.49-.018s-1.688.012-2.55.079c-.43.038-.869.084-1.314.166-.228.052-.447.085-.686.163a4.166,4.166,0,0,0-.731.275l-.08.047c.012-.01-.028.011-.047.019s-.049.026-.075.039c-.051.026-.1.052-.154.083-.1.054-.2.118-.3.185a2.613,2.613,0,0,1-.371.21,1.376,1.376,0,0,1-.265.094,1.545,1.545,0,0,1-.156.036,1.594,1.594,0,0,1-.156-.036,1.368,1.368,0,0,1-.265-.094,2.625,2.625,0,0,1-.372-.21c-.1-.067-.2-.13-.3-.185-.05-.031-.1-.057-.154-.083-.026-.013-.049-.029-.075-.039s-.059-.029-.047-.019l-.08-.047a4.211,4.211,0,0,0-.731-.275c-.24-.077-.459-.11-.687-.163-.446-.081-.883-.127-1.314-.166-.863-.067-1.709-.084-2.55-.079s-1.676.031-2.49.018a5.136,5.136,0,0,1-.6-.039,2.873,2.873,0,0,1-.571-.119,4.315,4.315,0,0,1-1.11-.54,3.546,3.546,0,0,0,.934.9,3.036,3.036,0,0,0,.605.316,5.821,5.821,0,0,0,.627.213,23.951,23.951,0,0,0,2.51.509l2.453.381c.4.063.791.146,1.166.229.178.051.373.089.529.151a3.81,3.81,0,0,1,.429.17l.12.075a1.264,1.264,0,0,0,.169.081,1.7,1.7,0,0,0,.353.114,1.824,1.824,0,0,0,.763.011,7.636,7.636,0,0,1,1.695,0,1.828,1.828,0,0,0,.764-.011,1.725,1.725,0,0,0,.353-.114,1.255,1.255,0,0,0,.169-.081l.121-.075a3.736,3.736,0,0,1,.428-.17c.156-.062.352-.1.529-.151.376-.084.765-.166,1.166-.229l2.453-.381a23.951,23.951,0,0,0,2.51-.509,5.894,5.894,0,0,0,.628-.213,3.051,3.051,0,0,0,.6-.316,3.538,3.538,0,0,0,.935-.9A4.331,4.331,0,0,1,227.287,154.458Z" transform="translate(-205.384 -153.918)" fill="#db9c94"/>
    </g>
    <path id="Trazado_26548" data-name="Trazado 26548" d="M227.073,83.4s-34.6,20.25-59.908,11.5c0,0,8.631-8.125,12.837-15.213,4.55-7.668,21.832-28.965,48.125-14.011l-.575-5.091s5.464,3.6,6.268,12.269c0,0,6.493.032,7.982,3.962l-4.218-1.087A22.557,22.557,0,0,1,241.8,87.137c.778,13.222-4.061,21.135-4.061,21.135a24.8,24.8,0,0,1-4.462-11.087C231.866,85.412,229.438,85.522,227.073,83.4Z" transform="translate(0 0)" fill="#333"/>
    <g id="Grupo_16099" data-name="Grupo 16099" transform="translate(170.515 76.881)">
      <g id="Grupo_16098" data-name="Grupo 16098">
        <path id="Trazado_26549" data-name="Trazado 26549" d="M229.338,81.868s-.64.758-1.886,1.963c-.624.6-1.386,1.328-2.305,2.108S223.192,87.607,222,88.5a71.159,71.159,0,0,1-8.48,5.615c-.807.469-1.643.917-2.5,1.354-.847.455-1.729.869-2.616,1.291s-1.8.817-2.711,1.2c-.927.362-1.846.755-2.788,1.093s-1.883.676-2.839.965c-.946.314-1.9.584-2.859.83-.949.271-1.906.482-2.853.682-.941.221-1.889.37-2.816.525a50.155,50.155,0,0,1-5.391.573c-.859.064-1.7.057-2.51.061s-1.591-.026-2.341-.074a39.453,39.453,0,0,1-4.065-.4c-1.2-.191-2.235-.419-3.08-.6-1.683-.451-2.62-.748-2.62-.748s1-.016,2.705.025l3.072-.075c1.182-.087,2.505-.139,3.941-.3.718-.063,1.463-.142,2.231-.27s1.563-.19,2.372-.356c1.623-.265,3.32-.61,5.062-1.018s3.528-.887,5.326-1.437l1.353-.413,1.35-.452c.908-.283,1.8-.626,2.7-.949,1.8-.646,3.574-1.37,5.316-2.1,1.732-.751,3.439-1.5,5.066-2.28s3.2-1.551,4.678-2.307,2.876-1.487,4.152-2.19c2.556-1.4,4.671-2.621,6.152-3.49Z" transform="translate(-171.534 -81.868)" fill="#1a1a1a"/>
      </g>
    </g>
    <g id="Grupo_16101" data-name="Grupo 16101" transform="translate(168.745 72.794)">
      <g id="Grupo_16100" data-name="Grupo 16100" transform="translate(0 0)">
        <path id="Trazado_26550" data-name="Trazado 26550" d="M228.8,76.539s-.789.646-2.227,1.691-3.514,2.5-6.086,4.122c-1.284.813-2.679,1.689-4.182,2.567s-3.1,1.792-4.77,2.69-3.415,1.809-5.208,2.688-3.636,1.731-5.488,2.564c-1.867.8-3.74,1.6-5.616,2.3s-3.736,1.374-5.564,1.946c-.914.286-1.811.572-2.707.805-.887.25-1.762.482-2.623.676a49.5,49.5,0,0,1-4.889.927,31.506,31.506,0,0,1-4.205.36,14.52,14.52,0,0,1-1.763-.018,13.106,13.106,0,0,1-1.491-.125c-.449-.06-.846-.116-1.189-.172l-.861-.225-.7-.195.732-.014.865-.008c.341-.04.731-.077,1.163-.116a12.436,12.436,0,0,0,1.426-.2c.515-.09,1.071-.166,1.661-.315.59-.133,1.215-.257,1.868-.455s1.343-.335,2.053-.568c.712-.217,1.452-.432,2.208-.706.759-.258,1.547-.506,2.347-.81.8-.286,1.628-.577,2.463-.906s1.7-.64,2.56-.992c1.736-.678,3.514-1.429,5.326-2.181,1.806-.768,3.641-1.553,5.467-2.36,7.316-3.213,14.592-6.591,20.135-9,2.758-1.232,5.083-2.221,6.717-2.909S228.8,76.539,228.8,76.539Z" transform="translate(-169.226 -76.539)" fill="#1a1a1a"/>
      </g>
    </g>
    <g id="Grupo_16103" data-name="Grupo 16103" transform="translate(181.45 63.397)">
      <g id="Grupo_16102" data-name="Grupo 16102">
        <path id="Trazado_26551" data-name="Trazado 26551" d="M231.065,70.483l-2.106-.493-2.4-.509c-.924-.192-1.975-.367-3.1-.58-1.139-.182-2.368-.372-3.667-.528-1.3-.172-2.665-.294-4.073-.4-1.41-.081-2.863-.148-4.331-.122a42.739,42.739,0,0,0-4.422.261c-.732.093-1.47.156-2.189.3l-1.082.186-1.062.238a35.572,35.572,0,0,0-4.072,1.2c-.649.235-1.261.525-1.888.76l-1.764.847-1.629.908c-.533.291-1.006.636-1.488.935s-.907.635-1.327.942-.837.582-1.192.884c-.694.617-1.37,1.106-1.865,1.571-.992.929-1.6,1.451-1.6,1.451s.35-.7,1.045-1.917c.351-.6.85-1.287,1.423-2.083.288-.4.643-.778.995-1.2a13.312,13.312,0,0,1,1.194-1.267c.445-.413.884-.88,1.392-1.3s1.048-.841,1.612-1.264c.584-.391,1.191-.79,1.82-1.185.649-.357,1.315-.725,2.009-1.064a27.279,27.279,0,0,1,4.464-1.651l1.179-.315c.4-.09.8-.163,1.2-.239.8-.172,1.617-.261,2.43-.37.814-.091,1.631-.126,2.443-.176.811-.008,1.622-.038,2.42.008l1.192.051,1.175.109c.779.061,1.54.18,2.288.292a40.013,40.013,0,0,1,4.244.921c1.332.349,2.557.79,3.679,1.2a36.714,36.714,0,0,1,5.221,2.432A19.624,19.624,0,0,1,231.065,70.483Z" transform="translate(-185.794 -64.284)" fill="#1a1a1a"/>
      </g>
    </g>
    <g id="Grupo_16105" data-name="Grupo 16105" transform="translate(170.515 70.513)">
      <g id="Grupo_16104" data-name="Grupo 16104">
        <path id="Trazado_26552" data-name="Trazado 26552" d="M224.7,73.8l-.66.13c-.429.072-1.053.229-1.846.386-.791.183-1.748.4-2.838.665s-2.31.59-3.637.949c-.665.168-1.351.369-2.057.6l-2.19.648-2.291.751-1.184.379-1.192.432-2.444.866-2.47.975c-1.674.62-3.323,1.376-4.985,2.1-.415.182-.839.345-1.248.538l-1.218.6-2.432,1.163c-1.606.781-3.129,1.659-4.652,2.429-.772.369-1.468.836-2.185,1.238l-2.087,1.207c-1.386.745-2.606,1.59-3.78,2.31l-1.677,1.05a16.95,16.95,0,0,0-1.506.966c-.915.647-1.741,1.186-2.417,1.636-1.357.9-2.168,1.384-2.168,1.384s.592-.719,1.689-1.933c.551-.6,1.215-1.348,2.01-2.171a37.961,37.961,0,0,1,2.807-2.613,41.807,41.807,0,0,1,3.5-2.911l2.006-1.473c.688-.5,1.383-1.024,2.143-1.475l2.291-1.41c.781-.466,1.551-.98,2.388-1.382l2.494-1.282,1.262-.635c.424-.2.861-.383,1.293-.574,1.74-.732,3.462-1.507,5.234-2.076.876-.307,1.744-.616,2.612-.887l2.593-.726,1.267-.345,1.26-.276,2.436-.513c1.6-.252,3.1-.515,4.514-.633.7-.067,1.371-.149,2.011-.2l1.824-.079c1.14-.063,2.144-.018,2.961-.006A23.862,23.862,0,0,1,224.7,73.8Z" transform="translate(-171.534 -73.564)" fill="#1a1a1a"/>
      </g>
    </g>
    <g id="Grupo_16108" data-name="Grupo 16108" transform="translate(181.979 104.844)">
      <g id="Grupo_16107" data-name="Grupo 16107">
        <g id="Grupo_16106" data-name="Grupo 16106">
          <path id="Trazado_26553" data-name="Trazado 26553" d="M239.134,120.141s-2.748-.559-4.279-.874-3.131-.63-4.523-.77a21.176,21.176,0,0,0-4.7,0c-1.67.207-3.619.386-5.394.746s-3.341.741-3.967.88a24.8,24.8,0,0,1-3.309.245v0l-.078,0c-.074,0-.141,0-.2-.005v.007a24.66,24.66,0,0,1-3.308-.252c-.626-.14-2.192-.524-3.966-.887s-3.722-.547-5.392-.758a21.216,21.216,0,0,0-4.7,0c-1.392.138-2.992.449-4.524.761s-4.28.866-4.28.866a23.014,23.014,0,0,0,0,2.47,2.031,2.031,0,0,0,.225.853,12.784,12.784,0,0,0,1.216,1.411c.365.366.383.661.608,1.427s.693,2.505,1.057,3.515a17.276,17.276,0,0,0,1.649,3.933,6.474,6.474,0,0,0,2.972,2.16,13.5,13.5,0,0,0,4.07.909,18.144,18.144,0,0,0,3.392-.118,7.889,7.889,0,0,0,2.557-.676,9.279,9.279,0,0,0,2.646-1.859,17.2,17.2,0,0,0,2.474-3.442,14.654,14.654,0,0,0,1.251-3.287,5.231,5.231,0,0,1,.982-2.226c.143-.178.715-.188,1.064-.176V125l.118-.008c.1.005.157.011.157.011v-.018c.348-.011.922,0,1.064.179a5.235,5.235,0,0,1,.978,2.228,14.611,14.611,0,0,0,1.244,3.29,17.216,17.216,0,0,0,2.467,3.447,9.282,9.282,0,0,0,2.642,1.864,7.9,7.9,0,0,0,2.557.681,18.118,18.118,0,0,0,3.392.125,13.5,13.5,0,0,0,4.072-.9,6.473,6.473,0,0,0,2.977-2.154,17.29,17.29,0,0,0,1.657-3.93c.367-1.009.837-2.748,1.064-3.514s.245-1.061.61-1.426a12.769,12.769,0,0,0,1.219-1.408,2.027,2.027,0,0,0,.227-.852A22.944,22.944,0,0,0,239.134,120.141Zm-29.792,5.55a11.856,11.856,0,0,1-1.07,3.2,10.307,10.307,0,0,1-4.139,5.121,10.767,10.767,0,0,1-6.484,1.123,7.163,7.163,0,0,1-5.445-3.21,14.073,14.073,0,0,1-1.623-7.593c.071-2.381,1.791-3.471,3.981-3.872a32.421,32.421,0,0,1,5.417-.525,16.436,16.436,0,0,1,6.24.939,6,6,0,0,1,2.6,1.838A3.589,3.589,0,0,1,209.342,125.691Zm25.717-.623c-.127,3.3-.777,7.5-4.01,9.21a8.949,8.949,0,0,1-3.268.913,9.992,9.992,0,0,1-7.314-1.863A12.777,12.777,0,0,1,216.3,125.7c-.457-4.148,3.814-5.412,7.194-5.669a26.837,26.837,0,0,1,8.1.515c1.941.472,3.514,1.626,3.484,3.789C235.074,124.567,235.068,124.814,235.059,125.067Z" transform="translate(-186.483 -118.334)"/>
        </g>
      </g>
    </g>
  </g>
</svg>
