<svg xmlns="http://www.w3.org/2000/svg" width="74.621" height="105.424" viewBox="0 0 74.621 105.424">
  <g id="Grupo_16180" data-name="Grupo 16180" transform="translate(-817.117 -227.502)">
    <path id="Trazado_26615" data-name="Trazado 26615" d="M875.129,347.28a68.823,68.823,0,0,1-.791-13.484h-19.68a68.826,68.826,0,0,1-.791,13.484c-1.141,6.129-7.968,6.129-7.968,6.129l18.6,4.929,18.6-4.929S876.27,353.408,875.129,347.28Z" transform="translate(-6.881 -25.411)" fill="#ecc19c"/>
    <g id="Grupo_16163" data-name="Grupo 16163" transform="translate(847.728 307.265)">
      <path id="Trazado_26616" data-name="Trazado 26616" d="M877.709,346.03a9.315,9.315,0,0,1-8.586,1.344c-7.408-2.186-10.616-5.616-11.778-7.183.242-4.448.243-7.867.243-7.867l19.682.23A68.631,68.631,0,0,0,877.709,346.03Z" transform="translate(-857.345 -332.324)" fill="#cca88d"/>
    </g>
    <g id="Grupo_16164" data-name="Grupo 16164" transform="translate(824.082 273.407)">
      <path id="Trazado_26617" data-name="Trazado 26617" d="M833.586,290.956s-4.5-6.046-6.38-1.322-.672,11.357,1.383,14.49,6.167,8.139,7.469,8.234,2.363-.48,3.673-1.68Z" transform="translate(-826.27 -287.829)" fill="#ecc19c"/>
      <path id="Trazado_26618" data-name="Trazado 26618" d="M835.566,295.559s-3.019-4.057-4.281-.887a12.115,12.115,0,0,0,.928,9.722c1.378,2.1,4.138,5.46,5.012,5.524a3.225,3.225,0,0,0,2.464-1.127Z" transform="translate(-827.319 -289.176)" fill="#db9c94" opacity="0.6"/>
    </g>
    <g id="Grupo_16165" data-name="Grupo 16165" transform="translate(879.294 274.241)">
      <path id="Trazado_26619" data-name="Trazado 26619" d="M904.432,291.9s4.154-5.777,5.936-1.23a17.741,17.741,0,0,1-1.2,13.9c-1.894,3-5.695,7.775-6.907,7.858s-2.2-.476-3.432-1.636Z" transform="translate(-898.829 -288.925)" fill="#ecc19c"/>
      <path id="Trazado_26620" data-name="Trazado 26620" d="M903.9,296.309s2.786-3.876,3.983-.826a11.9,11.9,0,0,1-.805,9.327c-1.271,2.01-3.821,5.217-4.634,5.273a3.008,3.008,0,0,1-2.3-1.1Z" transform="translate(-899.142 -290.213)" fill="#db9c94" opacity="0.6"/>
    </g>
    <path id="Trazado_26621" data-name="Trazado 26621" d="M860.238,234.28c.151,0,.3.006.451.008s.3-.008.452-.008c15.986,0,31.018,13.114,31.018,30.82s-15.032,33.3-31.018,33.3c-.151,0-.3-.005-.452-.009s-.3.009-.451.009c-15.986,0-31.018-15.593-31.018-33.3S844.252,234.28,860.238,234.28Z" transform="translate(-2.893 -1.62)" fill="#333"/>
    <path id="Trazado_26622" data-name="Trazado 26622" d="M863,323.394c-8.513,0-18.538-7.242-23.2-14.017-1.408-2.047-1.905-12.543-1.905-19.741,0-10.35-.165-24.162,2.972-29.927,4.171-7.663,15.966-6.208,22.135-6.208h.116c6.17,0,17.964-1.455,22.135,6.208,3.138,5.765,2.973,19.577,2.973,29.927,0,7.2-.5,17.694-1.905,19.741-4.664,6.775-14.69,14.017-23.2,14.017Z" transform="translate(-4.967 -6.189)" fill="#ecc19c"/>
    <path id="Trazado_26623" data-name="Trazado 26623" d="M870.79,305.176s.167.4.436.912l.435.843.215.45a3.957,3.957,0,0,1,.174.446,2.708,2.708,0,0,1,.119.421,2.386,2.386,0,0,1,.029.383,1.2,1.2,0,0,1-.063.364,1.121,1.121,0,0,1-.141.357c-.068.1-.11.232-.18.322s-.131.175-.183.247c-.1.147-.161.246-.161.246a2.328,2.328,0,0,0,.289-.039,3.084,3.084,0,0,0,.335-.079,1.785,1.785,0,0,0,.406-.209,1.673,1.673,0,0,0,.226-.154c.068-.068.134-.146.2-.227a1.666,1.666,0,0,0,.328-.6,1.161,1.161,0,0,0,.074-.357,1.491,1.491,0,0,0,.019-.371,2.581,2.581,0,0,0-.142-.7,3.04,3.04,0,0,0-.288-.612,3.957,3.957,0,0,0-.369-.5,3.87,3.87,0,0,0-.811-.7A2.974,2.974,0,0,0,870.79,305.176Z" transform="translate(-12.831 -18.569)" fill="#db9c94" opacity="0.6"/>
    <path id="Trazado_26624" data-name="Trazado 26624" d="M876.565,250.246s-34.337,20.095-59.448,11.414c0,0,8.564-8.063,12.739-15.1,4.515-7.609,21.665-28.743,47.755-13.9l-.571-5.051s5.422,3.57,6.22,12.175c0,0,6.444.032,7.921,3.932L887,242.637a22.384,22.384,0,0,1,4.185,11.319c.772,13.119-4.029,20.973-4.029,20.973a24.609,24.609,0,0,1-4.429-11C881.321,252.244,878.913,252.353,876.565,250.246Z" fill="#333"/>
    <g id="Grupo_16167" data-name="Grupo 16167" transform="translate(820.442 243.778)">
      <g id="Grupo_16166" data-name="Grupo 16166">
        <path id="Trazado_26625" data-name="Trazado 26625" d="M878.846,248.892s-.635.753-1.871,1.948c-.619.594-1.375,1.318-2.287,2.092s-1.941,1.655-3.121,2.538a70.466,70.466,0,0,1-8.414,5.572c-.8.466-1.631.91-2.48,1.344-.84.453-1.716.862-2.595,1.281s-1.782.811-2.691,1.2c-.92.358-1.832.75-2.767,1.084s-1.868.671-2.817.958c-.939.313-1.889.579-2.838.823-.941.27-1.891.479-2.831.676-.934.219-1.873.368-2.794.521a49.976,49.976,0,0,1-5.349.568c-.852.064-1.687.056-2.49.06s-1.58-.026-2.324-.073a39.141,39.141,0,0,1-4.034-.4c-1.191-.189-2.217-.415-3.057-.6-1.67-.447-2.6-.742-2.6-.742s.992-.017,2.685.025l3.048-.075c1.173-.088,2.486-.138,3.911-.3.713-.063,1.453-.141,2.214-.268s1.55-.189,2.353-.353c1.61-.264,3.295-.6,5.023-1.011s3.5-.881,5.285-1.426l1.342-.409,1.341-.448c.9-.282,1.787-.622,2.68-.943,1.787-.641,3.548-1.36,5.276-2.083,1.72-.746,3.414-1.485,5.028-2.262s3.174-1.539,4.642-2.29,2.855-1.475,4.12-2.172c2.536-1.389,4.636-2.6,6.106-3.463Z" transform="translate(-821.486 -248.892)" fill="#1a1a1a"/>
      </g>
    </g>
    <g id="Grupo_16169" data-name="Grupo 16169" transform="translate(818.686 239.723)">
      <g id="Grupo_16168" data-name="Grupo 16168">
        <path id="Trazado_26626" data-name="Trazado 26626" d="M878.295,243.563s-.783.641-2.209,1.678-3.488,2.483-6.04,4.091c-1.274.806-2.658,1.676-4.15,2.547s-3.073,1.778-4.734,2.669-3.389,1.8-5.168,2.667-3.608,1.718-5.447,2.545c-1.853.8-3.711,1.584-5.573,2.287s-3.707,1.363-5.521,1.931c-.907.284-1.8.567-2.685.8-.881.249-1.749.478-2.6.672a49.112,49.112,0,0,1-4.852.919,31.14,31.14,0,0,1-4.173.358,14.415,14.415,0,0,1-1.749-.017,12.837,12.837,0,0,1-1.479-.125c-.445-.059-.839-.114-1.179-.17l-.854-.222-.7-.193.727-.014.858-.008c.339-.04.726-.077,1.155-.115a12.334,12.334,0,0,0,1.415-.2c.511-.089,1.063-.165,1.648-.313.586-.132,1.206-.255,1.854-.45s1.333-.333,2.037-.565c.706-.215,1.44-.428,2.192-.7.754-.256,1.536-.5,2.329-.8.8-.283,1.615-.571,2.445-.9s1.682-.635,2.539-.983c1.723-.673,3.487-1.418,5.285-2.165s3.613-1.54,5.425-2.341c7.259-3.189,14.481-6.54,19.981-8.935,2.736-1.223,5.043-2.2,6.665-2.886S878.295,243.563,878.295,243.563Z" transform="translate(-819.179 -243.563)" fill="#1a1a1a"/>
      </g>
    </g>
    <g id="Grupo_16171" data-name="Grupo 16171" transform="translate(831.292 230.398)">
      <g id="Grupo_16170" data-name="Grupo 16170">
        <path id="Trazado_26627" data-name="Trazado 26627" d="M880.669,237.459l-2.09-.489-2.385-.505c-.918-.191-1.96-.364-3.081-.576-1.131-.18-2.351-.368-3.639-.524-1.287-.171-2.645-.291-4.043-.395-1.4-.08-2.841-.146-4.3-.121a42.643,42.643,0,0,0-4.388.259c-.726.093-1.459.156-2.171.3l-1.074.184-1.054.236a35.3,35.3,0,0,0-4.041,1.19c-.643.233-1.252.52-1.873.754l-1.752.84-1.616.9c-.528.288-1,.631-1.475.928s-.9.63-1.318.934-.831.578-1.182.878c-.689.612-1.361,1.1-1.851,1.559-.983.922-1.593,1.44-1.593,1.44s.347-.7,1.038-1.9c.348-.6.843-1.278,1.412-2.067.285-.4.638-.772.986-1.2a13.308,13.308,0,0,1,1.185-1.256c.441-.409.878-.873,1.382-1.29s1.039-.835,1.6-1.255c.58-.387,1.182-.784,1.806-1.175.644-.355,1.3-.72,1.994-1.056a27.16,27.16,0,0,1,4.429-1.639l1.17-.313c.395-.088.794-.161,1.192-.237.8-.17,1.6-.258,2.411-.366.808-.091,1.619-.125,2.424-.176.805-.008,1.609-.037,2.4.009l1.184.049,1.165.108c.773.061,1.528.18,2.271.29a39.846,39.846,0,0,1,4.211.915c1.322.345,2.538.784,3.651,1.192a36.431,36.431,0,0,1,5.18,2.414A19.472,19.472,0,0,1,880.669,237.459Z" transform="translate(-835.746 -231.307)" fill="#1a1a1a"/>
      </g>
    </g>
    <g id="Grupo_16173" data-name="Grupo 16173" transform="translate(820.442 237.46)">
      <g id="Grupo_16172" data-name="Grupo 16172">
        <path id="Trazado_26628" data-name="Trazado 26628" d="M874.24,240.819l-.656.128c-.425.072-1.045.228-1.832.383-.785.182-1.735.393-2.816.66s-2.293.586-3.608.942c-.66.166-1.341.365-2.041.59l-2.174.643-2.272.745-1.175.375-1.183.429-2.425.86-2.45.966c-1.662.616-3.3,1.367-4.948,2.082-.412.18-.832.342-1.238.533l-1.209.591L841.8,251.9c-1.593.775-3.105,1.646-4.617,2.41-.766.366-1.456.829-2.167,1.228l-2.071,1.2c-1.376.74-2.585,1.578-3.751,2.292l-1.664,1.042a16.791,16.791,0,0,0-1.494.959c-.909.642-1.728,1.176-2.4,1.623-1.346.89-2.151,1.373-2.151,1.373s.587-.714,1.677-1.918c.546-.6,1.206-1.338,1.994-2.154a37.537,37.537,0,0,1,2.786-2.593,41.4,41.4,0,0,1,3.471-2.889l1.99-1.461c.683-.5,1.373-1.016,2.126-1.463l2.274-1.4c.775-.463,1.539-.972,2.37-1.371l2.475-1.272,1.252-.63c.422-.2.854-.38,1.283-.569,1.727-.727,3.436-1.5,5.193-2.06.87-.305,1.73-.611,2.592-.88l2.573-.721,1.256-.342,1.25-.273,2.417-.509c1.589-.25,3.08-.512,4.479-.629.7-.067,1.361-.147,2-.193l1.81-.078c1.131-.063,2.127-.017,2.939-.006A23.669,23.669,0,0,1,874.24,240.819Z" transform="translate(-821.486 -240.588)" fill="#1a1a1a"/>
      </g>
    </g>
    <g id="Grupo_16175" data-name="Grupo 16175" transform="translate(845.876 298.899)">
      <path id="Trazado_26629" data-name="Trazado 26629" d="M872.717,335.012s-.491,0-1.146.029c-.33.014-.7.027-1.094.052s-.8.042-1.208.046-.812.018-1.195.006c-.194,0-.379-.006-.559-.016s-.355,0-.514-.019-.314-.013-.45-.02-.256-.021-.357-.028c-.205-.009-.333-.005-.333-.005a3.123,3.123,0,0,0,.222.246,2.907,2.907,0,0,0,.686.533,2.691,2.691,0,0,0,.518.266,3.452,3.452,0,0,0,.617.208,4.876,4.876,0,0,0,1.4.155,5.177,5.177,0,0,0,2.488-.7A3.23,3.23,0,0,0,872.717,335.012Z" transform="translate(-857.529 -324.601)" fill="#db9c94"/>
      <path id="Trazado_26630" data-name="Trazado 26630" d="M878.979,321.33s-9.159,3.054-24.068.2C854.911,321.532,866.161,340.375,878.979,321.33Z" transform="translate(-854.911 -321.33)" fill="#7a2742"/>
      <g id="Grupo_16174" data-name="Grupo 16174" transform="translate(1.173 0.454)">
        <path id="Trazado_26631" data-name="Trazado 26631" d="M856.452,321.929c2.784,3.1,6.169,4.567,11.833,4.6a12.284,12.284,0,0,0,9.3-4.6A58.793,58.793,0,0,1,856.452,321.929Z" transform="translate(-856.452 -321.927)" fill="#fff"/>
      </g>
    </g>
    <g id="Grupo_16177" data-name="Grupo 16177" transform="translate(833.612 267.419)">
      <path id="Trazado_26632" data-name="Trazado 26632" d="M853.489,283.8a2.362,2.362,0,0,0,2-1.044,1.928,1.928,0,0,0-.675-2.065c-1.868-1.442-8.02-.7-12.1,1.638-1.851,1.059-3.912,4.059-3.916,4.064.2-.117.315-.174.432-.229l.52-.245c.347-.162.694-.323,1.044-.479.7-.313,1.4-.609,2.122-.87a15.351,15.351,0,0,1,2.735-.745C848.238,283.4,850.882,283.8,853.489,283.8Z" transform="translate(-838.794 -279.96)"/>
      <g id="Grupo_16176" data-name="Grupo 16176" transform="translate(10.927 12.922)">
        <path id="Trazado_26633" data-name="Trazado 26633" d="M853.192,298.473a5.352,5.352,0,0,1,.035-1.522c.469,1.6,1.565,2.7,2.731,2.569,1.039-.11,1.808-1.171,2.043-2.579a6.1,6.1,0,0,1,.195.969c.247,2.1-.686,3.928-2.067,4.087S853.426,300.576,853.192,298.473Z" transform="translate(-853.154 -296.941)"/>
      </g>
    </g>
    <g id="Grupo_16179" data-name="Grupo 16179" transform="translate(865.635 267.662)">
      <path id="Trazado_26634" data-name="Trazado 26634" d="M882.982,284.123a2.359,2.359,0,0,1-1.994-1.043,1.927,1.927,0,0,1,.675-2.065c1.868-1.442,8.019-.7,12.1,1.638,1.851,1.058,3.911,4.058,3.916,4.064-.2-.118-.315-.173-.433-.23-.173-.081-.346-.164-.519-.244-.347-.163-.694-.323-1.044-.48-.7-.312-1.4-.609-2.122-.869a15.356,15.356,0,0,0-2.735-.746C888.234,283.721,885.589,284.12,882.982,284.123Z" transform="translate(-880.877 -280.279)"/>
      <g id="Grupo_16178" data-name="Grupo 16178" transform="translate(0.792 12.921)">
        <path id="Trazado_26635" data-name="Trazado 26635" d="M886.961,298.791a5.318,5.318,0,0,0-.036-1.521c-.468,1.6-1.565,2.7-2.73,2.569-1.039-.11-1.809-1.172-2.043-2.58a6.131,6.131,0,0,0-.195.969c-.247,2.1.686,3.929,2.067,4.088S886.727,300.894,886.961,298.791Z" transform="translate(-881.918 -297.259)"/>
      </g>
    </g>
  </g>
</svg>
