<svg xmlns="http://www.w3.org/2000/svg" width="390.396" height="96.698" viewBox="0 0 390.396 96.698">
  <g id="Grupo_16264" data-name="Grupo 16264" transform="translate(-252 -1292.147)">
    <path id="Rectángulo_3814" data-name="Rectángulo 3814" d="M13.191,0H377.2A13.191,13.191,0,0,1,390.4,13.191V58.5a13.19,13.19,0,0,1-13.19,13.19H13.191A13.191,13.191,0,0,1,0,58.5V13.191A13.191,13.191,0,0,1,13.191,0Z" transform="translate(252 1304.649)" fill="#bfe0e6"/>
    <g id="Grupo_14197" data-name="Grupo 14197" transform="translate(604.935 950.278)">
      <circle id="Elipse_917" data-name="Elipse 917" cx="44.255" cy="44.255" r="44.255" transform="translate(-317.952 429.959) rotate(-84.419)" fill="#ffe9d4"/>
      <path id="Trazado_23527" data-name="Trazado 23527" d="M-269.6,433.219a43.084,43.084,0,0,0,43-43,43.084,43.084,0,0,0-43-43,43.084,43.084,0,0,0-43,43A43.084,43.084,0,0,0-269.6,433.219Z" fill="#f49a44" fill-rule="evenodd"/>
      <path id="Trazado_23528" data-name="Trazado 23528" d="M-312.6,390.371l16.475-18.658,43.564,11.84,14.72,13.846-31.878,35.82A43,43,0,0,1-312.6,390.371Z" fill="#c47a35" fill-rule="evenodd"/>
      <path id="Trazado_23529" data-name="Trazado 23529" d="M-269.6,409.941c16.375,0,29.73-10.888,29.73-24.236s-13.355-24.237-29.73-24.237-29.731,10.888-29.731,24.237S-285.979,409.941-269.6,409.941Z" fill="#f49a44" fill-rule="evenodd"/>
      <path id="Trazado_23530" data-name="Trazado 23530" d="M-269.6,414.685c15.426,0,28.007-10.992,28.007-24.467S-254.177,365.75-269.6,365.75s-28.007,10.991-28.007,24.468S-285.029,414.685-269.6,414.685Z" fill="#ffe9d4" fill-rule="evenodd"/>
      <g id="Grupo_14194" data-name="Grupo 14194">
        <ellipse id="Elipse_918" data-name="Elipse 918" cx="5.03" cy="5.784" rx="5.03" ry="5.784" transform="translate(-247.139 387.501)" fill="#ffe9d4"/>
        <path id="Trazado_23531" data-name="Trazado 23531" d="M-297.1,399.069c2.771,0,5.031-2.6,5.031-5.784s-2.26-5.784-5.031-5.784-5.029,2.6-5.029,5.784S-299.868,399.069-297.1,399.069Z" fill="#ffe9d4" fill-rule="evenodd"/>
      </g>
      <path id="Trazado_23532" data-name="Trazado 23532" d="M-269.489,406.373c4.384.59,9.32-.891,14.415-5.814,1.465-1.417.1-1.662-1.18-.74-5.022,3.605-8.587,5.872-13.222,5.523C-270.968,405.228-271.64,405.394-269.489,406.373Z" fill="#f49a44" fill-rule="evenodd"/>
      <path id="Trazado_23533" data-name="Trazado 23533" d="M-289.207,386.818c25.22-.932,32.992-12.066,35.949-19.229,1.017-2.464-5.648-1.985-7.336.418C-265.164,374.514-275.569,382.441-289.207,386.818Z" fill="#f49a44" fill-rule="evenodd"/>
      <path id="Trazado_23534" data-name="Trazado 23534" d="M-301.106,377.7c24.14,7.36,42.481-6.646,47.593-12.471C-263.052,359.086-284.669,349.335-301.106,377.7Z" fill="#f49a44" fill-rule="evenodd"/>
      <path id="Trazado_23535" data-name="Trazado 23535" d="M-265.558,397.3a5.359,5.359,0,0,1-8.09,0c-.51-.677-.221-.7.147-.522,1.559.75,6.209.82,7.8,0C-265.341,396.585-265.049,396.619-265.558,397.3Z" fill="#f49a44" fill-rule="evenodd"/>
      <g id="Grupo_14195" data-name="Grupo 14195">
        <path id="Trazado_23536" data-name="Trazado 23536" d="M-295.5,380.7c-1.058,6.874-2.115,11.368,0,18.77S-305.545,385.99-295.5,380.7Z" fill="#f49a44" fill-rule="evenodd"/>
        <path id="Trazado_23537" data-name="Trazado 23537" d="M-243.708,380.7c1.058,6.874,2.115,11.368,0,18.77S-233.663,385.99-243.708,380.7Z" fill="#f49a44" fill-rule="evenodd"/>
      </g>
      <path id="Trazado_23538" data-name="Trazado 23538" d="M-238.256,379.773c-15.313-.492-23.746-8.323-26.7-15.487-1.017-2.463,6.9-.432,9.1,1.52C-248.849,372.04-249.053,375.08-238.256,379.773Z" fill="#f49a44" fill-rule="evenodd"/>
      <path id="Trazado_23539" data-name="Trazado 23539" d="M-255.874,399.771c.3,0,.6-.017.915-.041,7.168-.542,8.833-3.525,9.518-7.3.751-4.142.761-5.584,1.9-5.965.838-.279,1.015-1.2.952-2.284s-.1-1.194-1.523-1.649a56.2,56.2,0,0,0-11.765-.634v1.117c3.59-.166,7.059.244,8.085.849,2.352,1.388,1.9,8.057.063,11.358-1.29,2.322-4.9,3.484-8.148,3.494Zm-13.781-15.713c-1.586.035-8.126-1.713-12.753-2.094-.3-.025-.609-.045-.925-.062v1.117c3.733.173,7.6.968,8.983,2.816,2.284,3.045-1.4,10.469-4.886,12.119a9.816,9.816,0,0,1-4.1.766v1.052a9.464,9.464,0,0,0,9.237-5.5c1.357-2.6.94-6.188,4.492-6.188s3.2,3.523,4.557,6.125a9.386,9.386,0,0,0,9.173,5.561V398.72a9.816,9.816,0,0,1-4.1-.766c-3.49-1.65-7.17-9.074-4.886-12.119,1.386-1.848,5.25-2.643,8.983-2.816V381.9c-.316.017-.625.037-.925.062C-260.94,382.3-265.924,383.976-269.655,384.058Zm-13.678-2.156a56.2,56.2,0,0,0-11.765.634c-1.419.455-1.46.57-1.523,1.649s.113,2.005.952,2.284c1.142.381,1.152,1.823,1.9,5.965.684,3.771,2.35,6.754,9.517,7.3.315.024.62.037.916.042V398.72c-3.248-.01-6.858-1.172-8.148-3.494-1.834-3.3-2.29-9.97.063-11.358,1.025-.605,4.495-1.015,8.085-.849Z" fill="#f49a44" fill-rule="evenodd"/>
      <path id="Trazado_23540" data-name="Trazado 23540" d="M-263.995,381.646c2.69-3.77,5.994-4.553,9.745-1.96.947.653.533.746-.1.646a6.557,6.557,0,0,0-9.271,1.85C-263.968,382.72-264.663,382.583-263.995,381.646Z" fill="#f49a44" fill-rule="evenodd"/>
      <path id="Trazado_23541" data-name="Trazado 23541" d="M-276.374,381.646c-2.69-3.77-5.993-4.553-9.745-1.96-.946.653-.532.746.1.646a6.557,6.557,0,0,1,9.271,1.85C-276.4,382.72-275.706,382.583-276.374,381.646Z" fill="#f49a44" fill-rule="evenodd"/>
      <g id="Grupo_14196" data-name="Grupo 14196">
        <path id="Trazado_23542" data-name="Trazado 23542" d="M-251.847,390.237a5.359,5.359,0,0,1-8.091,0c-.508-.677-.219-.7.149-.522,1.558.75,6.208.82,7.794,0C-251.629,389.526-251.337,389.56-251.847,390.237Z" fill="#f49a44" fill-rule="evenodd"/>
        <path id="Trazado_23543" data-name="Trazado 23543" d="M-279.21,390.237a5.359,5.359,0,0,1-8.091,0c-.509-.677-.22-.7.148-.522,1.558.75,6.208.82,7.8,0C-278.994,389.526-278.7,389.56-279.21,390.237Z" fill="#f49a44" fill-rule="evenodd"/>
      </g>
    </g>
    <path id="Trazado_23599" data-name="Trazado 23599" d="M-332.338,389.849a3.242,3.242,0,0,1,2.757,3.346v5.734q0,4.485-4.228,4.486h-2.39q-4.225,0-4.227-4.486v-1.691h3.529v1.434q0,1.543,1.4,1.544h.809a1.381,1.381,0,0,0,1.58-1.544v-5.441q0-1.728-2.058-1.727h-.956v-2.978h.515q2.058,0,2.058-1.728v-5a1.38,1.38,0,0,0-1.58-1.543h-.478q-1.4,0-1.4,1.543v2.684h-3.529v-2.941q0-4.521,4.227-4.522h2.059q4.227,0,4.228,4.522V386.8A2.8,2.8,0,0,1-332.338,389.849Z" transform="translate(604.935 950.278)" fill="#18353b"/>
    <text id="Hacer_una_lista_de_las_variaciones._" data-name="Hacer una lista de
las variaciones. " transform="translate(398 1315)" font-size="24" font-family="BebasNeue-Regular, Bebas Neue" letter-spacing="0.01em"><tspan x="0" y="22">Hacer una lista de</tspan><tspan x="0" y="44">las variaciones. </tspan></text>
  </g>
</svg>
