<svg xmlns="http://www.w3.org/2000/svg" xmlns:xlink="http://www.w3.org/1999/xlink" width="265" height="254.056" viewBox="0 0 265 254.056">
  <defs>
    <linearGradient id="linear-gradient" x1="1" y1="0.5" x2="0" y2="0.5" gradientUnits="objectBoundingBox">
      <stop offset="0" stop-color="#ff5900"/>
      <stop offset="1" stop-color="#bd179b"/>
    </linearGradient>
    <linearGradient id="linear-gradient-2" x1="0.68" y1="0.694" x2="-0.185" y2="-0.235" gradientUnits="objectBoundingBox">
      <stop offset="0" stop-color="#fff" stop-opacity="0"/>
      <stop offset="1" stop-color="#fff" stop-opacity="0.502"/>
    </linearGradient>
    <linearGradient id="linear-gradient-3" x1="0.979" y1="0.307" x2="0.307" y2="0.654" gradientUnits="objectBoundingBox">
      <stop offset="0" stop-color="#f0ff5e"/>
      <stop offset="1" stop-color="#d100a6"/>
    </linearGradient>
    <linearGradient id="linear-gradient-4" x1="-0.611" y1="0.97" x2="1.579" y2="0.054" gradientUnits="objectBoundingBox">
      <stop offset="0" stop-color="#f7a820"/>
      <stop offset="0.322" stop-color="#eec016"/>
      <stop offset="1" stop-color="#d9ff00"/>
    </linearGradient>
    <linearGradient id="linear-gradient-5" x1="0.229" y1="0.952" x2="0.68" y2="0.164" gradientUnits="objectBoundingBox">
      <stop offset="0" stop-color="#f9df18"/>
      <stop offset="1" stop-color="#db00ba"/>
    </linearGradient>
    <linearGradient id="linear-gradient-6" x1="1.243" y1="-0.541" x2="-0.045" y2="0.533" gradientUnits="objectBoundingBox">
      <stop offset="0" stop-color="#f9df18"/>
      <stop offset="1" stop-color="#4dc106"/>
    </linearGradient>
    <linearGradient id="linear-gradient-7" x1="1.095" y1="0.677" x2="0.487" y2="0.5" xlink:href="#linear-gradient-6"/>
    <linearGradient id="linear-gradient-8" x1="-0.831" y1="-0.009" x2="-2.418" y2="0.881" xlink:href="#linear-gradient-6"/>
    <linearGradient id="linear-gradient-9" x1="0.5" y1="0.022" x2="0.5" y2="1.021" xlink:href="#linear-gradient"/>
  </defs>
  <g id="Grupo_14116" data-name="Grupo 14116" transform="translate(-38.546 -19.844)">
    <path id="Trazado_23227" data-name="Trazado 23227" d="M1273.739,39.69c7.718,11.754,5.447,26.678-1.841,38.7s-19.464,20.367-32.29,26.131c-8,3.593-16.388,6.339-24.073,10.555s-14.81,10.186-18.254,18.247c-3.991,9.341-2.486,20.241,1.357,29.645s15.375,22.38,21.415,28.317c-.161,2.863,5.45,10.935,3.194,13.762-3.194,2.3-10.232-8.425-30.205-5.555a39.25,39.25,0,0,0-23.681,12.2c-11.288,12.383-21.282,24.807-39.031,26.8a69.337,69.337,0,0,1-22.824-1.693c-5.574-1.249-11.082-2.947-16.775-3.425-12.812-1.075-21.525,6.527-27.952,16.879-6.042,9.729-6.874,20.813-11.719,30.932-1.009,2.106-2.464,4.276-4.725,4.86-4.53,1.17-3.518-3.672-3.518-6.543V39.231Z" transform="translate(-1004.147 -19.387)" fill="url(#linear-gradient)"/>
    <path id="Trazado_23228" data-name="Trazado 23228" d="M1315.893,40.674c-.205.631-.416,1.261-.637,1.888-6.654,18.853-20.826,35.393-39.385,42.831-16.828,6.744-35.576,5.749-53.691,6.466s-37.552,3.912-50.412,16.691c-10.226,10.16-14.591,24.734-22.856,36.546a64.939,64.939,0,0,1-13.082,13.782V40.555Z" transform="translate(-1097.258 -19.918)" fill="url(#linear-gradient-2)"/>
    <g id="Grupo_14093" data-name="Grupo 14093" transform="translate(94.074 103.492)">
      <path id="Trazado_23229" data-name="Trazado 23229" d="M1273.217,219.079s9.036-6.5,18.7-7.956l-7.837-19.821s-13.156,3.99-16.608,9.124Z" transform="translate(-1246.209 -183.869)" fill="#ff2e2e"/>
      <path id="Trazado_23230" data-name="Trazado 23230" d="M1323.309,224.718s-11.125-.292-19.941,3.937l-4.664-20.8s13.122-4.1,18.864-1.793Z" transform="translate(-1296.301 -189.507)" fill="#ff2e2e"/>
      <path id="Trazado_23231" data-name="Trazado 23231" d="M1267.2,197.78l5.741,18.653a38.109,38.109,0,0,1,18.871-11.04l-7.784-20.69S1269.327,188.255,1267.2,197.78Z" transform="translate(-1245.93 -181.222)" fill="#d6d6d6"/>
      <path id="Trazado_23232" data-name="Trazado 23232" d="M1319.971,204.283l5.741,18.653a38.1,38.1,0,0,0-21.812,1.481l-5.2-21.486S1312.855,197.6,1319.971,204.283Z" transform="translate(-1298.704 -187.725)" fill="#ccc"/>
      <path id="Trazado_23233" data-name="Trazado 23233" d="M1272.887,192.4l6.68,21.705s4.746-10.387,15.463-12.844l-8.119-22.367S1274.017,181.73,1272.887,192.4Z" transform="translate(-1252.559 -178.891)" fill="#fff"/>
      <path id="Trazado_23234" data-name="Trazado 23234" d="M1317.895,198.267l6.68,21.705s-9.765-5.921-20.008-1.927l-5.862-23.061S1310.962,190.081,1317.895,198.267Z" transform="translate(-1297.567 -184.761)" fill="#f0f0f0"/>
    </g>
    <g id="Grupo_14094" data-name="Grupo 14094" transform="translate(43.758 39.43)">
      <path id="Trazado_23235" data-name="Trazado 23235" d="M1376.815,222.907a.742.742,0,1,0,.742-.742A.742.742,0,0,0,1376.815,222.907Z" transform="translate(-1347.759 -132.184)" fill="#fff"/>
      <path id="Trazado_23236" data-name="Trazado 23236" d="M1282.345,216.476a2.026,2.026,0,1,0,2.026-2.026A2.025,2.025,0,0,0,1282.345,216.476Z" transform="translate(-1199.275 -129.09)" fill="#fff"/>
      <path id="Trazado_23237" data-name="Trazado 23237" d="M1336.464,162.09a.636.636,0,1,0,.637-.636A.637.637,0,0,0,1336.464,162.09Z" transform="translate(-1283.029 -107.835)" fill="#fff"/>
      <ellipse id="Elipse_891" data-name="Elipse 891" cx="1.251" cy="1.251" rx="1.251" ry="1.251" transform="translate(61.489 42.096)" fill="#fff"/>
      <path id="Trazado_23238" data-name="Trazado 23238" d="M1325.143,96.768a.894.894,0,1,0,.894-.894A.894.894,0,0,0,1325.143,96.768Z" transform="translate(-1265.442 -81.534)" fill="#fff"/>
      <path id="Trazado_23239" data-name="Trazado 23239" d="M1167.152,98.668a1.3,1.3,0,1,0,1.3-1.3A1.3,1.3,0,0,0,1167.152,98.668Z" transform="translate(-1013.639 -82.132)" fill="#fff"/>
      <path id="Trazado_23240" data-name="Trazado 23240" d="M1167.733,136.927a.476.476,0,1,0,.477-.477A.477.477,0,0,0,1167.733,136.927Z" transform="translate(-1012.918 -97.807)" fill="#fff"/>
      <ellipse id="Elipse_892" data-name="Elipse 892" cx="1.132" cy="1.132" rx="1.132" ry="1.132" transform="translate(98.676 18.383)" fill="#fff"/>
      <path id="Trazado_23241" data-name="Trazado 23241" d="M1201.892,194.006a1.112,1.112,0,1,0,1.112-1.112A1.112,1.112,0,0,0,1201.892,194.006Z" transform="translate(-1068.807 -120.444)" fill="#fff"/>
      <path id="Trazado_23242" data-name="Trazado 23242" d="M1415.811,73.093a1.162,1.162,0,1,0,1.162-1.162A1.162,1.162,0,0,0,1415.811,73.093Z" transform="translate(-1410.951 -71.931)" fill="#fff"/>
      <ellipse id="Elipse_893" data-name="Elipse 893" cx="1.017" cy="1.017" rx="1.017" ry="1.017" transform="translate(0 47.875)" fill="#fff"/>
      <ellipse id="Elipse_894" data-name="Elipse 894" cx="0.689" cy="0.689" rx="0.689" ry="0.689" transform="translate(57.369 144.593)" fill="#fff"/>
      <ellipse id="Elipse_895" data-name="Elipse 895" cx="2.028" cy="2.028" rx="2.028" ry="2.028" transform="translate(3.815 140.537)" fill="#fff"/>
      <ellipse id="Elipse_896" data-name="Elipse 896" cx="1.668" cy="1.668" rx="1.668" ry="1.668" transform="translate(62.571 160.919)" fill="#fff"/>
      <ellipse id="Elipse_897" data-name="Elipse 897" cx="1.192" cy="1.192" rx="1.192" ry="1.192" transform="translate(83.904 108.838)" fill="#fff"/>
      <path id="Trazado_23243" data-name="Trazado 23243" d="M1365.362,264.391a.746.746,0,1,0,.746-.746A.746.746,0,0,0,1365.362,264.391Z" transform="translate(-1329.455 -148.82)" fill="#fff"/>
      <path id="Trazado_23244" data-name="Trazado 23244" d="M1423.571,235.878a.983.983,0,1,0,.983-.983A.983.983,0,0,0,1423.571,235.878Z" transform="translate(-1423.001 -137.289)" fill="#fff"/>
      <path id="Trazado_23245" data-name="Trazado 23245" d="M1335.4,187.162a.636.636,0,1,0,.636-.637A.637.637,0,0,0,1335.4,187.162Z" transform="translate(-1281.329 -117.89)" fill="#fff"/>
      <path id="Trazado_23246" data-name="Trazado 23246" d="M1289.763,84.788h.976A1.791,1.791,0,0,0,1292.531,83V82.02a.642.642,0,0,1,.553-.649.617.617,0,0,1,.68.614V83a1.792,1.792,0,0,0,1.792,1.791h.976a.641.641,0,0,1,.649.553.617.617,0,0,1-.614.681h-1.011a1.792,1.792,0,0,0-1.792,1.791v.976a.64.64,0,0,1-.553.649.617.617,0,0,1-.681-.613V87.814a1.791,1.791,0,0,0-1.792-1.791h-1.011a.618.618,0,0,1-.614-.681A.642.642,0,0,1,1289.763,84.788Z" transform="translate(-1214.115 -75.716)" fill="#fff"/>
      <path id="Trazado_23247" data-name="Trazado 23247" d="M1230.732,207.634l.69-.69a1.792,1.792,0,0,0,0-2.534l-.69-.69a.642.642,0,0,1-.068-.85.617.617,0,0,1,.915-.047l.715.715a1.791,1.791,0,0,0,2.534,0l.69-.69a.642.642,0,0,1,.85-.068.617.617,0,0,1,.047.915l-.715.715a1.791,1.791,0,0,0,0,2.534l.69.69a.642.642,0,0,1,.068.85.617.617,0,0,1-.915.047l-.715-.715a1.792,1.792,0,0,0-2.534,0l-.715.715a.617.617,0,0,1-.915-.047A.642.642,0,0,1,1230.732,207.634Z" transform="translate(-1118.442 -124.354)" fill="#fff"/>
      <path id="Trazado_23248" data-name="Trazado 23248" d="M1353.113,307.646l.69-.69a1.792,1.792,0,0,0,0-2.534l-.69-.69a.642.642,0,0,1-.068-.851.617.617,0,0,1,.915-.047l.715.715a1.793,1.793,0,0,0,2.534,0l.69-.69a.642.642,0,0,1,.85-.068.617.617,0,0,1,.047.915l-.714.715a1.791,1.791,0,0,0,0,2.534l.69.69a.642.642,0,0,1,.068.85.617.617,0,0,1-.915.047l-.715-.715a1.793,1.793,0,0,0-2.534,0l-.715.715a.617.617,0,0,1-.915-.047A.641.641,0,0,1,1353.113,307.646Z" transform="translate(-1314.122 -164.464)" fill="#fff"/>
    </g>
    <g id="Grupo_14095" data-name="Grupo 14095" transform="translate(44.869 107.86)">
      <path id="Trazado_23249" data-name="Trazado 23249" d="M1366.683,213.056c-.638-4.885,1.372-9.871,4.629-13.567,1.537-1.745,3.493-3.663,3.118-5.958-.261-1.594-1.931-3.45-.661-4.995.973-1.184,3.445-1.592,4.848-1.889a21.934,21.934,0,0,1,11.658.743,20.278,20.278,0,0,1,5.9,3.207,15.453,15.453,0,0,1,5.518,7.837c1.251,4.577-.318,9.534-2.949,13.482a27.172,27.172,0,0,1-16.994,11.422,14.977,14.977,0,0,1-5.98.172C1370.948,222.516,1367.321,217.942,1366.683,213.056Zm11.948-18.62a3.829,3.829,0,0,0,3.106-.728,1.845,1.845,0,0,0,.81-1.422,1.646,1.646,0,0,0-.577-1.114,2.885,2.885,0,0,0-3.181-.324c-.91.473-2.056,1.709-1.43,2.8A1.852,1.852,0,0,0,1378.632,194.436Z" transform="translate(-1366.565 -186.183)" fill="#fff7d9"/>
      <path id="Trazado_23250" data-name="Trazado 23250" d="M1404.051,211.871c.481,1.411-.26,2.9-.747,4.312a8.727,8.727,0,0,1-.7,1.734,2.029,2.029,0,0,1-1.476,1.036,2.317,2.317,0,0,1-1.92-1.134,15.025,15.025,0,0,0-1.318-1.921,7.182,7.182,0,0,1-.928-.927,2.478,2.478,0,0,1,.149-2.584C1398.375,210.268,1402.982,208.736,1404.051,211.871Z" transform="translate(-1386.665 -195.77)" fill="#ffc400"/>
      <path id="Trazado_23251" data-name="Trazado 23251" d="M1382.551,197.87c.95.676,1.161,1.964,1.495,3.082a6.785,6.785,0,0,1,.35,1.419,1.588,1.588,0,0,1-.464,1.333,1.813,1.813,0,0,1-1.738.156,11.875,11.875,0,0,0-1.715-.618,5.665,5.665,0,0,1-1.013-.164,1.94,1.94,0,0,1-1.085-1.71C1378.212,199.444,1380.44,196.366,1382.551,197.87Z" transform="translate(-1355.904 -190.71)" fill="#ff2f00"/>
      <path id="Trazado_23252" data-name="Trazado 23252" d="M1406.949,230.517c.846.933,1.747,2.006,1.7,3.265a3.962,3.962,0,0,1-4.568,3.386,3.048,3.048,0,0,1-1.824-2.389,6.137,6.137,0,0,1,.413-3.087c.283-.787.756-2.108,1.637-2.416C1405.339,228.914,1406.324,229.828,1406.949,230.517Z" transform="translate(-1394.416 -203.433)" fill="#2228b3"/>
      <path id="Trazado_23253" data-name="Trazado 23253" d="M1385.139,220.514a4.556,4.556,0,0,1-.251,2.53,5.911,5.911,0,0,1-.888,1.845,2.563,2.563,0,0,1-1.716,1.03,2.475,2.475,0,0,1-2.085-.979,4.613,4.613,0,0,1-.872-2.207,4.83,4.83,0,0,1,.272-2.761A3.028,3.028,0,0,1,1385.139,220.514Z" transform="translate(-1357.257 -199.103)" fill="#009245"/>
    </g>
    <g id="Grupo_14096" data-name="Grupo 14096" transform="translate(99.45 157.29)">
      <ellipse id="Elipse_898" data-name="Elipse 898" cx="20.861" cy="20.861" rx="20.861" ry="20.861" transform="matrix(-0.829, -0.559, 0.559, -0.829, 34.593, 57.919)" fill="#e02828"/>
      <ellipse id="Elipse_899" data-name="Elipse 899" cx="19.14" cy="20.785" rx="19.14" ry="20.785" transform="translate(17.718 53.639) rotate(-115.545)" fill="#ff2e2e"/>
      <path id="Trazado_23254" data-name="Trazado 23254" d="M1254.089,284.39q.558.207,1.1.444a13.056,13.056,0,0,0-.529,5.118,27.95,27.95,0,0,0,12,20.583c-.129.388-.267.773-.419,1.154a29.174,29.174,0,0,1-12.771-21.651A14.176,14.176,0,0,1,1254.089,284.39Z" transform="translate(-1217.915 -275)" fill="#d61e1e"/>
      <path id="Trazado_23255" data-name="Trazado 23255" d="M1308.877,329.417a37.572,37.572,0,0,0-10.423-28c.178-.377.37-.747.571-1.113a38.77,38.77,0,0,1,11.019,29.589Q1309.454,329.671,1308.877,329.417Z" transform="translate(-1288.348 -281.382)" fill="#d61e1e"/>
      <path id="Trazado_23256" data-name="Trazado 23256" d="M1269.193,284.181a158.232,158.232,0,0,0,17.89,37.407c-.336.209-.679.411-1.03.6a159.4,159.4,0,0,1-17.975-37.586C1268.448,284.451,1268.82,284.312,1269.193,284.181Z" transform="translate(-1247.108 -274.916)" fill="#d61e1e"/>
      <path id="Trazado_23257" data-name="Trazado 23257" d="M1292.588,298.938c.206.339.4.688.59,1.042a168.467,168.467,0,0,1-36.918,19.418c-.1-.2-.211-.4-.31-.609-.074-.155-.14-.313-.21-.469A167.226,167.226,0,0,0,1292.588,298.938Z" transform="translate(-1245.814 -280.834)" fill="#d61e1e"/>
    </g>
    <g id="Grupo_14097" data-name="Grupo 14097" transform="translate(71.135 73.614)">
      <path id="Trazado_23258" data-name="Trazado 23258" d="M1301.028,129.891h0a2.292,2.292,0,0,1,3.217-.4l40.407,31.425,4.738,6.588-7.552-2.969-40.407-31.425a2.293,2.293,0,0,1-.4-3.217Z" transform="translate(-1300.545 -129.006)" fill="#494ed1"/>
      <path id="Trazado_23259" data-name="Trazado 23259" d="M1307.691,130.182a2.468,2.468,0,0,1,3.416-.661l40.379,31.461.5.76-1.21,1.576-43.115-33.093C1307.673,130.211,1307.68,130.2,1307.691,130.182Z" transform="translate(-1307.406 -129.038)" fill="#2228b3"/>
      <path id="Trazado_23260" data-name="Trazado 23260" d="M1300.556,185.866a1.193,1.193,0,0,1,.265-.94c.273-.365.972-.317,1.268-.741.308-.443.038-.973.324-1.442a1.066,1.066,0,0,1,.9-.544l.062.049,4.738,6.588Z" transform="translate(-1259.263 -150.339)" fill="#fab594"/>
      <path id="Trazado_23261" data-name="Trazado 23261" d="M1301.224,190.623l1.144,1.591-1.823-.717a.908.908,0,0,1,.679-.874Z" transform="translate(-1253.524 -153.718)" fill="#0d0b30"/>
      <path id="Trazado_23262" data-name="Trazado 23262" d="M1370.208,129.891a2.292,2.292,0,0,1,3.217-.4l3.71,2.885-2.815,3.619-3.71-2.885A2.293,2.293,0,0,1,1370.208,129.891Z" transform="translate(-1369.725 -129.006)" fill="#1fddff"/>
      <rect id="Rect치ngulo_3762" data-name="Rect치ngulo 3762" width="0.619" height="4.585" transform="translate(3.952 6.488) rotate(-142.128)" fill="#0d0b30"/>
      <rect id="Rect치ngulo_3763" data-name="Rect치ngulo 3763" width="0.619" height="4.585" transform="translate(4.839 7.177) rotate(-142.128)" fill="#0d0b30"/>
    </g>
    <g id="Grupo_14100" data-name="Grupo 14100" transform="translate(139.351 78.425)">
      <path id="Trazado_23263" data-name="Trazado 23263" d="M1209.437,137.312a24.4,24.4,0,0,1,12.908,1.672,26.993,26.993,0,0,1,12.675,9.829,20.869,20.869,0,0,1,3.167,15.954,8.173,8.173,0,0,1-2.938,5.091c-2.316,1.579-5.488.821-7.552-.939s-3.31-4.308-4.649-6.706-2.931-4.812-5.358-6.006c-2.783-1.369-6.125-.876-9.2-.151s-6.236,1.662-9.294,1.092a5.994,5.994,0,0,1-3.417-1.742,6.281,6.281,0,0,1-.948-5.888c.942-3.194,3.592-6.167,6.065-8.281A17.692,17.692,0,0,1,1209.437,137.312Z" transform="translate(-1194.51 -137.038)" fill="url(#linear-gradient-3)"/>
      <g id="Grupo_14098" data-name="Grupo 14098" transform="translate(8.129 3.766)">
        <path id="Trazado_23264" data-name="Trazado 23264" d="M1240.478,144.408a1.917,1.917,0,1,0,2.561-.891A1.917,1.917,0,0,0,1240.478,144.408Z" transform="translate(-1235.53 -143.326)" fill="#0d0b30"/>
        <path id="Trazado_23265" data-name="Trazado 23265" d="M1245.657,155.113a1.917,1.917,0,1,0,2.56-.891A1.917,1.917,0,0,0,1245.657,155.113Z" transform="translate(-1243.81 -147.619)" fill="#0d0b30"/>
        <path id="Trazado_23266" data-name="Trazado 23266" d="M1240.275,151.46a1.917,1.917,0,1,0,.891,2.56A1.916,1.916,0,0,0,1240.275,151.46Z" transform="translate(-1231.112 -146.511)" fill="#0d0b30"/>
        <path id="Trazado_23267" data-name="Trazado 23267" d="M1250.98,146.281a1.917,1.917,0,1,0,.891,2.56A1.917,1.917,0,0,0,1250.98,146.281Z" transform="translate(-1248.228 -144.434)" fill="#0d0b30"/>
      </g>
      <g id="Grupo_14099" data-name="Grupo 14099" transform="translate(30.995 14.827)">
        <path id="Trazado_23268" data-name="Trazado 23268" d="M1202.3,162.877a1.917,1.917,0,1,0,2.56-.891A1.916,1.916,0,0,0,1202.3,162.877Z" transform="translate(-1197.352 -161.794)" fill="#0d0b30"/>
        <path id="Trazado_23269" data-name="Trazado 23269" d="M1207.479,173.581a1.917,1.917,0,1,0,2.56-.891A1.917,1.917,0,0,0,1207.479,173.581Z" transform="translate(-1205.632 -166.087)" fill="#0d0b30"/>
        <path id="Trazado_23270" data-name="Trazado 23270" d="M1202.1,169.928a1.917,1.917,0,1,0,.891,2.56A1.917,1.917,0,0,0,1202.1,169.928Z" transform="translate(-1192.934 -164.979)" fill="#0d0b30"/>
        <path id="Trazado_23271" data-name="Trazado 23271" d="M1212.8,164.749a1.917,1.917,0,1,0,.891,2.56A1.918,1.918,0,0,0,1212.8,164.749Z" transform="translate(-1210.051 -162.902)" fill="#0d0b30"/>
      </g>
      <path id="Trazado_23272" data-name="Trazado 23272" d="M1222.2,155.979l4.043,1.956a1.068,1.068,0,0,1-.93,1.922l-4.043-1.956a1.068,1.068,0,0,1,.93-1.923Z" transform="translate(-1198.368 -144.592)" fill="#fff"/>
    </g>
    <g id="Grupo_14102" data-name="Grupo 14102" transform="translate(40.016 161.947)">
      <path id="Trazado_23273" data-name="Trazado 23273" d="M1392.195,388.441c2.121-3.481,1.24-8.261-.573-11.911s-4.564-6.753-6.587-10.292-3.292-7.884-1.809-11.681c1.155-2.956,3.848-5.234,4.479-8.344,1.286-6.334-6.51-12.161-4.614-18.34,1.56-5.083,8.319-6.185,11.955-10.063,5.211-5.559,2.568-14.639,4.783-21.93,2.166-7.132,8.743-11.86,14.909-16.047,2.179-1.48,4.472-3,7.089-3.3s5.628,1.066,6.252,3.625c.848,3.483-2.894,6.491-3.171,10.065-.184,2.375,1.218,4.608,2.934,6.261s3.777,2.914,5.485,4.575c5.756,5.593,6.231,15.735,1.023,21.842-1.963,2.3-4.531,4-6.725,6.077s-4.094,4.8-4.072,7.821c.033,4.624,4.48,8.424,4.242,13.043-.156,3.041-2.331,5.583-4.628,7.582s-4.893,3.789-6.436,6.414-1.918,6.655.5,8.5Z" transform="translate(-1382.58 -276.488)" fill="url(#linear-gradient-4)"/>
      <g id="Grupo_14101" data-name="Grupo 14101" transform="translate(13.781 13.346)">
        <path id="Trazado_23274" data-name="Trazado 23274" d="M1424.663,385.319a.613.613,0,0,1-.569.049,3.016,3.016,0,0,1-1.711-1.886,5.916,5.916,0,0,1,.6-4.6c.341-.594.741-1.163,1.128-1.711a8.279,8.279,0,0,0,1.8-3.665c.17-1.527-.566-2.964-1.345-4.484a13.222,13.222,0,0,1-1.466-3.772c-.483-2.874,1-6.118,3.976-8.68a37.787,37.787,0,0,1,3.7-2.7,34.467,34.467,0,0,0,3.824-2.825c2.6-2.327,3.815-5.177,3.259-7.625a11.441,11.441,0,0,0-1.89-3.69,11.083,11.083,0,0,1-2.142-4.6c-.359-2.689,1.1-4.984,2.518-7.2,1.125-1.764,2.288-3.589,2.454-5.543.2-2.354-1-4.481-2.281-6.733a16.224,16.224,0,0,1-2.492-6.319c-.4-4.248,2.538-7.946,4.78-10.357a.61.61,0,0,1,.872-.032.617.617,0,0,1,.032.871c-2.081,2.239-4.807,5.649-4.457,9.4a15.325,15.325,0,0,0,2.339,5.825c1.312,2.317,2.668,4.711,2.436,7.445-.192,2.256-1.438,4.211-2.643,6.1-1.355,2.126-2.635,4.134-2.336,6.379A10.022,10.022,0,0,0,1437,339.04a12.549,12.549,0,0,1,2.068,4.1c.656,2.891-.7,6.186-3.639,8.815a35.077,35.077,0,0,1-3.961,2.931,36.914,36.914,0,0,0-3.582,2.613c-2.643,2.278-3.976,5.1-3.566,7.542a12.149,12.149,0,0,0,1.349,3.414c.828,1.617,1.684,3.289,1.472,5.184a9.291,9.291,0,0,1-2.016,4.237c-.37.526-.753,1.069-1.064,1.613a4.766,4.766,0,0,0-.505,3.592,1.8,1.8,0,0,0,1.017,1.146.616.616,0,0,1,.095,1.088Z" transform="translate(-1422.151 -298.772)" fill="#b0a100"/>
      </g>
    </g>
    <g id="Grupo_14104" data-name="Grupo 14104" transform="translate(66.479 196.762)">
      <path id="Trazado_23275" data-name="Trazado 23275" d="M1339.916,404.193c2.42-1.829,3.117-5.378,2.861-8.4s-1.312-5.922-1.744-8.924-.122-6.357,1.943-8.579c1.607-1.73,4.094-2.569,5.381-4.55,2.622-4.031-1.179-10.2,1.822-13.954,2.469-3.091,7.449-2.006,11.026-3.7,5.126-2.422,5.781-9.429,9.307-13.868,3.449-4.344,9.295-5.817,14.707-7.028a12.277,12.277,0,0,1,5.809-.348c1.893.507,3.6,2.277,3.335,4.218-.365,2.643-3.778,3.7-4.947,6.1a6.131,6.131,0,0,0,.318,5.135c.735,1.614,1.817,3.05,2.545,4.666a12.336,12.336,0,0,1-5.266,15.4,64.187,64.187,0,0,1-6.316,2.367c-2.088.841-4.145,2.2-4.958,4.3-1.241,3.21.8,7.056-.631,10.187-.94,2.062-3.141,3.226-5.277,3.981s-4.423,1.284-6.209,2.679-3.147,4.081-1.977,6.021Z" transform="translate(-1339.916 -334.616)" fill="#d6c61a"/>
      <g id="Grupo_14103" data-name="Grupo 14103" transform="translate(6.84 7.122)">
        <path id="Trazado_23276" data-name="Trazado 23276" d="M1361.856,402.443a.456.456,0,0,1-.407-.122,2.246,2.246,0,0,1-.668-1.773,4.405,4.405,0,0,1,1.675-3.019c.4-.318.831-.6,1.249-.876a6.155,6.155,0,0,0,2.247-2.044,6.082,6.082,0,0,0,.3-3.471,9.84,9.84,0,0,1,.017-3.011c.452-2.121,2.368-3.96,5.126-4.92a28.116,28.116,0,0,1,3.3-.858,25.638,25.638,0,0,0,3.419-.909c2.433-.9,4.057-2.54,4.34-4.385a8.508,8.508,0,0,0-.3-3.07,8.243,8.243,0,0,1-.225-3.769c.487-1.96,2.127-3.148,3.713-4.3a9.668,9.668,0,0,0,3.214-3.165c.782-1.574.531-3.376.263-5.283a12.063,12.063,0,0,1,0-5.054c.886-3.049,3.93-4.805,6.14-5.861a.455.455,0,0,1,.613.216.46.46,0,0,1-.216.612c-2.053.98-4.872,2.595-5.657,5.29a11.413,11.413,0,0,0,.025,4.671c.274,1.962.558,3.99-.35,5.819a10.357,10.357,0,0,1-3.5,3.5c-1.519,1.1-2.955,2.141-3.361,3.776a7.447,7.447,0,0,0,.232,3.352,9.346,9.346,0,0,1,.308,3.406c-.336,2.18-2.178,4.089-4.929,5.105a26.045,26.045,0,0,1-3.543.945,27.632,27.632,0,0,0-3.194.829c-2.452.853-4.146,2.44-4.531,4.244a9.038,9.038,0,0,0,0,2.732,5.318,5.318,0,0,1-2.953,6.371c-.4.263-.813.534-1.177.825a3.546,3.546,0,0,0-1.332,2.348,1.336,1.336,0,0,0,.391,1.072.459.459,0,0,1-.233.779Z" transform="translate(-1360.777 -346.507)" fill="#fff35c"/>
      </g>
    </g>
    <g id="Grupo_14106" data-name="Grupo 14106" transform="translate(142.818 133.26)">
      <g id="Grupo_14105" data-name="Grupo 14105" transform="translate(0 0.642)">
        <path id="Trazado_23277" data-name="Trazado 23277" d="M1212.89,249.554c10.929-7.108,21.1-16.2,19.213-19.106s-14.326,2.707-25.256,9.815-21.1,16.2-19.213,19.106S1201.961,256.662,1212.89,249.554Zm-5.766-8.865c13.046-8.485,23.228-12,24.554-9.964s-6.019,9.92-19.065,18.4-23.228,12-24.553,9.963S1194.079,249.173,1207.124,240.688Z" transform="translate(-1187.406 -229.664)" fill="#fff"/>
      </g>
      <ellipse id="Elipse_900" data-name="Elipse 900" cx="13.46" cy="13.46" rx="13.46" ry="13.46" transform="translate(32.862 31.829) rotate(-168.271)" fill="#1fddff"/>
      <path id="Trazado_23278" data-name="Trazado 23278" d="M1202.776,258.383a4.634,4.634,0,0,1,1.534-1.741,9.5,9.5,0,0,0,1.375-1.06,1.81,1.81,0,0,0,.547-1.577c-.2-.9-1.351-1.493-1.236-2.409.086-.686.833-1.055,1.484-1.289a22.252,22.252,0,0,0,4.637-1.988,7.132,7.132,0,0,0,1.913-1.783,13.461,13.461,0,0,1-4.292,15.886,10.073,10.073,0,0,0-3-.386,3.514,3.514,0,0,1-2.945-1.393A2.521,2.521,0,0,1,1202.776,258.383Z" transform="translate(-1178.183 -235.789)" fill="#0aabe0"/>
      <path id="Trazado_23279" data-name="Trazado 23279" d="M1238.313,239.589a5.135,5.135,0,0,0,.225.8,3.492,3.492,0,0,0,1.478,1.646c.432.237.909.382,1.338.625a1.712,1.712,0,0,1,.908,1.1c.132.731-.449,1.375-.959,1.915a10.832,10.832,0,0,0-2.269,3.3,5.388,5.388,0,0,0-.147,3.932c.336.858.943,1.588,1.289,2.442a4.435,4.435,0,0,1,.2,2.663,3.37,3.37,0,0,1-.722,1.446,13.458,13.458,0,0,1-1.345-19.879Z" transform="translate(-1225.595 -233.002)" fill="#0aabe0"/>
      <path id="Trazado_23280" data-name="Trazado 23280" d="M1227.258,233.664a2.314,2.314,0,0,1-1.616,1.153,7.867,7.867,0,0,1-2.241.02,4.978,4.978,0,0,0-2.22.208,6.415,6.415,0,0,1-1.655.7,2.978,2.978,0,0,1-2.007-.88,3.531,3.531,0,0,1-.913-.934A13.452,13.452,0,0,1,1227.258,233.664Z" transform="translate(-1199.821 -230.236)" fill="#0aabe0"/>
      <path id="Trazado_23281" data-name="Trazado 23281" d="M1203.385,263.919q-.218-.159-.431-.328a123.759,123.759,0,0,0,21.382-13.891c.045.175.087.351.125.528a120.657,120.657,0,0,1-21.076,13.691Z" transform="translate(-1188.849 -237.057)" fill="#fff"/>
    </g>
    <g id="Grupo_14107" data-name="Grupo 14107" transform="translate(66.036 141.312)">
      <ellipse id="Elipse_901" data-name="Elipse 901" cx="9.134" cy="9.134" rx="9.134" ry="9.134" transform="matrix(-0.898, -0.44, 0.44, -0.898, 16.404, 24.443)" fill="#e61e64"/>
      <path id="Trazado_23282" data-name="Trazado 23282" d="M1354.962,255.123a9.1,9.1,0,0,1,1.456-2.448,25.419,25.419,0,0,0,3.8.777,50.821,50.821,0,0,1,7.464,1.218,12.129,12.129,0,0,1,4.8,2.669,9.06,9.06,0,0,1-.067,2.806,12.164,12.164,0,0,0-3.621-1.514,50.345,50.345,0,0,0-6.249-.9,17.263,17.263,0,0,1-6.066-1.639A12.493,12.493,0,0,1,1354.962,255.123Z" transform="translate(-1351.214 -246.303)" fill="#a8023d"/>
      <path id="Trazado_23283" data-name="Trazado 23283" d="M1358.2,266.715a9.114,9.114,0,0,1-.8-3.094,20.78,20.78,0,0,0,9.233,2.582,24.662,24.662,0,0,1,5.009.322,6.071,6.071,0,0,1,2.529,1.336,9.086,9.086,0,0,1-2.4,2.5,22.325,22.325,0,0,1-5.637.235,14.585,14.585,0,0,1-5.591-2.315C1359.747,267.781,1358.976,267.246,1358.2,266.715Z" transform="translate(-1354.275 -250.693)" fill="#a8023d"/>
      <path id="Trazado_23284" data-name="Trazado 23284" d="M1370.37,248.567a.986.986,0,1,0,1.227-.661A.985.985,0,0,0,1370.37,248.567Z" transform="translate(-1360.152 -244.373)" fill="#a8023d"/>
      <path id="Trazado_23285" data-name="Trazado 23285" d="M1369.395,251.408a.337.337,0,1,0,.42-.226A.337.337,0,0,0,1369.395,251.408Z" transform="translate(-1357.339 -245.698)" fill="#a8023d"/>
      <path id="Trazado_23286" data-name="Trazado 23286" d="M1372.677,251.677a.643.643,0,1,0,.8-.431A.643.643,0,0,0,1372.677,251.677Z" transform="translate(-1363.177 -245.719)" fill="#a8023d"/>
    </g>
    <path id="Trazado_23287" data-name="Trazado 23287" d="M1307.633,408.911c1.489-2.892,1.232-6.394.324-9.518s-2.414-6.046-3.38-9.152a10.914,10.914,0,0,1-.593-4.787,4.994,4.994,0,0,1,2.62-3.861c2.024-.934,4.567.138,5.822,1.98a9.193,9.193,0,0,1,1.133,6.437,8.948,8.948,0,0,0-.171,2.686,2.251,2.251,0,0,0,1.638,1.932c1.524.263,2.5-1.634,2.571-3.18.292-6.173-5.067-11.262-5.926-17.382a7.245,7.245,0,0,1,.389-3.915,4.009,4.009,0,0,1,2.948-2.424,4.269,4.269,0,0,1,3.884,1.926,10.665,10.665,0,0,1,1.554,4.248,46.439,46.439,0,0,1,.784,6.393c.072,1.366.4,3.126,1.753,3.341,1.057.168,1.948-.839,2.3-1.849a8.41,8.41,0,0,0-.442-5.676c-.69-1.811-1.672-3.505-2.274-5.347a7.4,7.4,0,0,1,.11-5.658c.9-1.718,3.126-2.814,4.869-1.966A4.475,4.475,0,0,1,1329.7,367a18.016,18.016,0,0,1-.229,3.219c-.133,1.091.02,2.087-.039,3.183a1.862,1.862,0,0,0,.541,1.633,1.268,1.268,0,0,0,1.16.146c1.285-.449,1.524-2.805,1.684-3.954.184-1.32.24-2.661.535-3.96a9.432,9.432,0,0,1,2.981-5.1,7.319,7.319,0,0,1,5.57-1.75,6.532,6.532,0,0,1,2.863,1.1c2.035,1.4,1.96,3.973.834,5.962a13.334,13.334,0,0,1-3.1,3.433,40.02,40.02,0,0,0-3.155,2.9,7.834,7.834,0,0,0-2.24,3.182,2.146,2.146,0,0,0-.008,1.494,1.662,1.662,0,0,0,1.166.863,6.445,6.445,0,0,0,3.124-.218,4.472,4.472,0,0,1,2.244-.19,2.977,2.977,0,0,1,2.111,2.717,4.3,4.3,0,0,1-2.914,4.106,10.064,10.064,0,0,1-2.668.641,6.679,6.679,0,0,1-3.593-.5,6.719,6.719,0,0,0-3.064-.631,2.326,2.326,0,0,0-2.157,1.944,2.01,2.01,0,0,0,.679,1.551c.976.895,2.11.754,3.317.673a6.835,6.835,0,0,1,4.01.868,4.506,4.506,0,0,1,2.2,3.359c.206,2.487-2.184,4.6-4.656,4.935s-4.926-.633-7.171-1.724a7.488,7.488,0,0,0-3.074-1.005c-.9-.013-2.408.473-2.693,1.449-.3,1.045.81,2.321,1.582,2.838a11.434,11.434,0,0,0,3.47,1.285c2.6.706,5.986,3.046,5.231,6.238-.5,2.129-2.938,3.186-5.115,3.391-5.052.477-10.247-1.846-15.125-.445a12,12,0,0,1-3.831.912C1308.853,411.477,1307.028,410.086,1307.633,408.911Z" transform="translate(-1203.864 -148.182)" fill="url(#linear-gradient-5)"/>
    <path id="Trazado_23288" data-name="Trazado 23288" d="M1271.039,425.014a9.047,9.047,0,0,0,3.436-5.649c.514-2.2.6-4.48,1.07-6.688a7.571,7.571,0,0,1,1.271-3.1,3.466,3.466,0,0,1,2.9-1.445,3.417,3.417,0,0,1,2.849,3.18,6.38,6.38,0,0,1-1.506,4.281,6.212,6.212,0,0,0-1.018,1.567,1.563,1.563,0,0,0,.334,1.727c.833.678,2.068-.139,2.638-1.049,2.278-3.636.768-8.54,2.331-12.535a5.025,5.025,0,0,1,1.568-2.236,2.781,2.781,0,0,1,2.608-.464,2.963,2.963,0,0,1,1.695,2.487,7.412,7.412,0,0,1-.506,3.1,32.245,32.245,0,0,1-1.7,4.135c-.421.85-.82,2.028-.076,2.618a1.654,1.654,0,0,0,2.02-.336,5.838,5.838,0,0,0,1.666-3.585c.2-1.33.181-2.69.444-4.009a5.14,5.14,0,0,1,1.993-3.385,2.716,2.716,0,0,1,3.615.467,3.108,3.108,0,0,1-.013,3.072,12.466,12.466,0,0,1-1.234,1.87c-.452.615-.7,1.27-1.107,1.912a1.292,1.292,0,0,0-.228,1.172.88.88,0,0,0,.652.483c.93.165,1.877-1.179,2.365-1.82.561-.736,1.051-1.528,1.672-2.214a6.549,6.549,0,0,1,3.539-2.071,5.082,5.082,0,0,1,3.966.837,4.535,4.535,0,0,1,1.357,1.642c.754,1.542-.166,3.071-1.524,3.891a9.261,9.261,0,0,1-3.043,1.022,27.825,27.825,0,0,0-2.895.679,5.43,5.43,0,0,0-2.438,1.163,1.486,1.486,0,0,0-.514.9,1.153,1.153,0,0,0,.411.919,4.478,4.478,0,0,0,1.964.931,3.112,3.112,0,0,1,1.422.649,2.068,2.068,0,0,1,.352,2.363,2.986,2.986,0,0,1-3.161,1.493,6.97,6.97,0,0,1-1.833-.52,4.639,4.639,0,0,1-2-1.528,4.668,4.668,0,0,0-1.639-1.425,1.615,1.615,0,0,0-1.967.442,1.4,1.4,0,0,0-.117,1.17c.286.874,1.02,1.174,1.778,1.536a4.747,4.747,0,0,1,2.131,1.89,3.131,3.131,0,0,1,.189,2.782c-.722,1.575-2.886,2.038-4.5,1.4a8.9,8.9,0,0,1-3.752-3.484,5.2,5.2,0,0,0-1.518-1.654c-.541-.315-1.618-.534-2.123-.04-.54.528-.3,1.679-.009,2.256a7.969,7.969,0,0,0,1.662,1.959c1.333,1.312,2.585,3.881,1.042,5.555-1.03,1.116-2.862.927-4.25.31-3.219-1.431-5.572-4.6-9-5.417a8.325,8.325,0,0,1-2.629-.753C1270.9,426.982,1270.273,425.519,1271.039,425.014Z" transform="translate(-1147.491 -165.06)" fill="url(#linear-gradient-6)"/>
    <path id="Trazado_23289" data-name="Trazado 23289" d="M1334.074,26.456c2.579.682,5.338-.141,7.68-1.419s4.416-3,6.733-4.32a8.951,8.951,0,0,1,3.729-1.319,4.1,4.1,0,0,1,3.555,1.418,4.036,4.036,0,0,1-.559,5.012,7.538,7.538,0,0,1-4.956,2.042,7.309,7.309,0,0,0-2.181.337,1.846,1.846,0,0,0-1.259,1.652c.058,1.267,1.75,1.712,3,1.5,4.995-.854,8.126-6.043,12.875-7.81a5.936,5.936,0,0,1,3.2-.379,3.286,3.286,0,0,1,2.461,1.933,3.5,3.5,0,0,1-.858,3.45,8.742,8.742,0,0,1-3.128,1.993,38.1,38.1,0,0,1-4.981,1.755c-1.082.3-2.432.873-2.367,1.993.052.876,1.015,1.412,1.886,1.515a6.9,6.9,0,0,0,4.468-1.354c1.328-.872,2.512-1.957,3.881-2.764a6.07,6.07,0,0,1,4.55-.909,3.208,3.208,0,0,1,2.433,3.553,3.669,3.669,0,0,1-2.716,2.405,14.713,14.713,0,0,1-2.618.385c-.9.086-1.668.385-2.556.53a1.525,1.525,0,0,0-1.212.722,1.041,1.041,0,0,0,.087.954c.586.95,2.516.725,3.464.651,1.089-.085,2.172-.277,3.266-.269a7.737,7.737,0,0,1,4.609,1.488,6,6,0,0,1,2.383,4.152,5.371,5.371,0,0,1-.379,2.487c-.765,1.877-2.837,2.27-4.628,1.719a10.928,10.928,0,0,1-3.295-1.876,32.824,32.824,0,0,0-2.876-2.015,6.424,6.424,0,0,0-2.943-1.233,1.753,1.753,0,0,0-1.2.257,1.36,1.36,0,0,0-.486,1.086,5.284,5.284,0,0,0,.725,2.463,3.667,3.667,0,0,1,.548,1.763,2.443,2.443,0,0,1-1.8,2.171,3.529,3.529,0,0,1-3.8-1.61,8.233,8.233,0,0,1-.984-2.024,5.48,5.48,0,0,1-.23-2.966,5.5,5.5,0,0,0-.035-2.565,1.907,1.907,0,0,0-1.937-1.385,1.65,1.65,0,0,0-1.123.818,3.28,3.28,0,0,0,.046,2.775,5.6,5.6,0,0,1,.011,3.365,3.7,3.7,0,0,1-2.3,2.356c-1.956.6-4.066-.939-4.774-2.859a10.515,10.515,0,0,1,.117-6.046,6.132,6.132,0,0,0,.262-2.639c-.148-.725-.8-1.845-1.635-1.9-.89-.06-1.715,1.058-1.994,1.767a9.4,9.4,0,0,0-.418,3.005c-.106,2.207-1.384,5.331-4.073,5.289-1.794-.028-3.069-1.791-3.618-3.5-1.273-3.962-.329-8.532-2.31-12.191a9.839,9.839,0,0,1-1.406-2.908C1332.235,27.886,1333.027,26.179,1334.074,26.456Z" transform="translate(-1269.677 0.551)" fill="url(#linear-gradient-7)"/>
    <path id="Trazado_23290" data-name="Trazado 23290" d="M1387.879,32.885c1.887,2.526,5.046,3.789,8.152,4.326s6.29.466,9.406.945a10.584,10.584,0,0,1,4.421,1.517,4.839,4.839,0,0,1,2.25,3.922c-.047,2.16-2.06,3.918-4.2,4.229a8.9,8.9,0,0,1-6.087-1.748,8.678,8.678,0,0,0-2.266-1.29,2.182,2.182,0,0,0-2.379.606c-.876,1.215.363,2.87,1.677,3.589,5.251,2.877,11.96.371,17.654,2.223a7.024,7.024,0,0,1,3.244,2,3.882,3.882,0,0,1,.859,3.6,4.136,4.136,0,0,1-3.326,2.565,10.339,10.339,0,0,1-4.359-.452,45.073,45.073,0,0,1-5.9-2.033c-1.22-.518-2.894-.977-3.655.107-.6.849-.1,2.053.634,2.787a8.145,8.145,0,0,0,5.13,2.027c1.87.168,3.763.032,5.622.291a7.17,7.17,0,0,1,4.879,2.5c1.117,1.51,1.123,3.918-.356,5.076a4.335,4.335,0,0,1-4.28.233,17.43,17.43,0,0,1-2.707-1.566c-.894-.58-1.826-.869-2.755-1.387a1.8,1.8,0,0,0-1.652-.222,1.227,1.227,0,0,0-.62.948c-.155,1.31,1.8,2.519,2.729,3.146,1.071.721,2.214,1.339,3.22,2.148a9.133,9.133,0,0,1,3.175,4.762,7.094,7.094,0,0,1-.842,5.594,6.338,6.338,0,0,1-2.177,2.024c-2.086,1.176-4.293.019-5.546-1.806a12.942,12.942,0,0,1-1.673-4.157,38.81,38.81,0,0,0-1.182-3.977,7.588,7.588,0,0,0-1.82-3.3,2.071,2.071,0,0,0-1.3-.642,1.608,1.608,0,0,0-1.247.648,6.247,6.247,0,0,0-1.137,2.813,4.331,4.331,0,0,1-.788,2.035,2.885,2.885,0,0,1-3.263.685,4.169,4.169,0,0,1-2.338-4.282,9.729,9.729,0,0,1,.575-2.6,6.476,6.476,0,0,1,1.965-2.916,6.516,6.516,0,0,0,1.851-2.4,2.254,2.254,0,0,0-.776-2.7,1.949,1.949,0,0,0-1.64-.068c-1.194.47-1.552,1.518-1.995,2.6a6.621,6.621,0,0,1-2.46,3.123,4.367,4.367,0,0,1-3.86.491c-2.253-.877-3.075-3.854-2.32-6.151s2.643-4.021,4.547-5.512a7.259,7.259,0,0,0,2.181-2.25c.394-.78.611-2.3-.118-2.961-.78-.709-2.365-.281-3.144.172a11.093,11.093,0,0,0-2.593,2.475c-1.719,1.965-5.2,3.919-7.655,1.906-1.64-1.342-1.526-3.911-.78-5.9,1.73-4.6,5.96-8.14,6.812-12.982a11.632,11.632,0,0,1,.834-3.724C1385.126,32.858,1387.113,31.86,1387.879,32.885Z" transform="translate(-1337.792 -12.478)" fill="url(#linear-gradient-8)"/>
    <path id="Trazado_23318" data-name="Trazado 23318" d="M1132.793,224.718a27.412,27.412,0,0,1-1.681-17.034c1.423-5.627,5.348-10.744,10.752-12.866,3.182-1.249,7.339-1.184,9.432,1.52,1.54,1.99,1.477,4.845.585,7.2a32.583,32.583,0,0,1-3.9,6.44,29.607,29.607,0,0,0-4.871,11.124,17.616,17.616,0,0,0,1.235,10.718c.858,1.788,4.12,5.526.81,6.5C1139.453,239.985,1134.3,228.358,1132.793,224.718Z" transform="translate(-930.636 -81.472)" fill="#9b0260"/>
    <ellipse id="Elipse_902" data-name="Elipse 902" cx="3.489" cy="3.489" rx="3.489" ry="3.489" transform="translate(214.897 159.542)" fill="#ab026a"/>
    <path id="Trazado_23319" data-name="Trazado 23319" d="M1238.016,364.646c-2.029.649-4.17,1.183-5.825,2.525s-2.653,3.795-1.606,5.649,3.51,2.263,5.635,2.245a27.77,27.77,0,0,0,16.729-5.664,24.092,24.092,0,0,0,9.034-15.054c.452-2.9-1.214-4.611-4.073-3.284-1.854.861-2.511,2.761-3.813,4.208C1250.071,359.745,1243.657,362.84,1238.016,364.646Z" transform="translate(-1099.92 -144.267)" fill="#6a2484"/>
    <path id="Trazado_23320" data-name="Trazado 23320" d="M1002.662,40.255c-.012-.072-.016-.143-.026-.214h21.594c1.712,3.827,1.521,8.228.965,12.389a80.261,80.261,0,0,1-8.827,27.284c-3.582,6.666-8.67,13.223-15.959,15.252-2.273.633-5.342.4-6.164-1.812-.707-1.9.765-3.849,2.037-5.429a45.677,45.677,0,0,0,9.395-36.762C1005.022,47.3,1003.235,43.876,1002.662,40.255Z" transform="translate(-722.044 -19.712)" fill="url(#linear-gradient-9)"/>
  </g>
</svg>
