<svg xmlns="http://www.w3.org/2000/svg" xmlns:xlink="http://www.w3.org/1999/xlink" width="265" height="247.021" viewBox="0 0 265 247.021">
  <defs>
    <linearGradient id="linear-gradient" x1="1" y1="0.5" x2="0" y2="0.5" gradientUnits="objectBoundingBox">
      <stop offset="0" stop-color="#ff5900"/>
      <stop offset="1" stop-color="#bd179b"/>
    </linearGradient>
    <linearGradient id="linear-gradient-2" x1="0.68" y1="0.694" x2="-0.185" y2="-0.235" gradientUnits="objectBoundingBox">
      <stop offset="0" stop-color="#fff" stop-opacity="0"/>
      <stop offset="1" stop-color="#fff" stop-opacity="0.502"/>
    </linearGradient>
    <linearGradient id="linear-gradient-3" x1="0.5" y1="0.022" x2="0.5" y2="1.021" xlink:href="#linear-gradient"/>
  </defs>
  <g id="Grupo_14119" data-name="Grupo 14119" transform="translate(-151.035 -1073.844)">
    <path id="Trazado_23321" data-name="Trazado 23321" d="M231.043.459c7.719,11.755,5.447,26.681-1.841,38.707S209.736,59.536,196.909,65.3c-8,3.593-16.389,6.34-24.076,10.556S158.022,86.043,154.577,94.1c-3.991,9.342-2.486,20.243,1.357,29.648s15.377,22.382,21.417,28.319c-.161,2.863,5.451,10.937,3.194,13.764-3.194,2.3-10.233-8.426-30.208-5.556a39.254,39.254,0,0,0-23.683,12.2c-11.289,12.384-21.284,24.809-39.035,26.806a69.344,69.344,0,0,1-22.826-1.693c-5.575-1.249-11.083-2.948-16.777-3.426-12.814-1.075-21.527,6.528-27.955,16.88-6.043,9.73-6.874,20.815-11.721,30.935-1.009,2.106-2.464,4.276-4.725,4.86C-.916,248.012.1,243.17.1,240.3V0Z" transform="translate(416.035 1320.865) rotate(180)" fill="url(#linear-gradient)"/>
    <path id="Trazado_23322" data-name="Trazado 23322" d="M180.08.119c-.205.631-.416,1.261-.637,1.888-6.655,18.855-20.828,35.4-39.388,42.835-16.83,6.745-35.58,5.749-53.7,6.467S48.8,55.222,35.941,68C25.714,78.163,21.349,92.738,13.083,104.551A64.948,64.948,0,0,1,0,118.334V0Z" transform="translate(416.035 1320.072) rotate(180)" fill="url(#linear-gradient-2)"/>
    <path id="Trazado_23323" data-name="Trazado 23323" d="M2.372,30.687A27.415,27.415,0,0,1,.691,13.651C2.114,8.024,6.04,2.906,11.443.783,14.626-.466,18.783-.4,20.876,2.3c1.54,1.99,1.477,4.846.585,7.2a32.586,32.586,0,0,1-3.9,6.44A29.61,29.61,0,0,0,12.69,27.068a17.617,17.617,0,0,0,1.235,10.719c.858,1.788,4.12,5.527.81,6.5C9.032,45.956,3.88,34.327,2.372,30.687Z" transform="translate(254.806 1228.138) rotate(180)" fill="#9b0260"/>
    <ellipse id="Elipse_903" data-name="Elipse 903" cx="3.489" cy="3.489" rx="3.489" ry="3.489" transform="translate(239.693 1181.153) rotate(180)" fill="#ab026a"/>
    <path id="Trazado_23324" data-name="Trazado 23324" d="M7.861,14.041c-2.029.649-4.17,1.184-5.825,2.525s-2.654,3.8-1.606,5.65,3.51,2.264,5.635,2.246A27.773,27.773,0,0,0,22.8,18.8,24.1,24.1,0,0,0,31.831,3.741c.452-2.9-1.214-4.612-4.073-3.284-1.855.861-2.511,2.761-3.813,4.209C19.917,9.14,13.5,12.235,7.861,14.041Z" transform="translate(324.361 1134.351) rotate(180)" fill="#6a2484"/>
    <path id="Trazado_23325" data-name="Trazado 23325" d="M8.6.214C8.59.142,8.586.072,8.577,0h21.6c1.713,3.828,1.521,8.229.966,12.39A80.269,80.269,0,0,1,22.31,39.677C18.728,46.343,13.639,52.9,6.349,54.93c-2.273.633-5.342.4-6.165-1.813-.707-1.9.765-3.849,2.037-5.43a46.123,46.123,0,0,0,9.952-24.771,45.824,45.824,0,0,0-.556-11.995C10.962,7.263,9.175,3.835,8.6.214Z" transform="translate(182.567 1320.38) rotate(180)" fill="url(#linear-gradient-3)"/>
  </g>
</svg>
