<svg id="Grupo_14118" data-name="Grupo 14118" xmlns="http://www.w3.org/2000/svg" xmlns:xlink="http://www.w3.org/1999/xlink" width="144.656" height="180.494" viewBox="0 0 144.656 180.494">
  <defs>
    <linearGradient id="linear-gradient" x1="1" y1="0.5" x2="0" y2="0.5" gradientUnits="objectBoundingBox">
      <stop offset="0" stop-color="#f9df18"/>
      <stop offset="1" stop-color="#4dc106"/>
    </linearGradient>
    <linearGradient id="linear-gradient-2" x1="13.549" y1="1.225" x2="12.358" y2="1.225" gradientUnits="objectBoundingBox">
      <stop offset="0" stop-color="#2f3591"/>
      <stop offset="0.249" stop-color="#272f80"/>
      <stop offset="0.734" stop-color="#142256"/>
      <stop offset="1" stop-color="#091a3d"/>
    </linearGradient>
    <linearGradient id="linear-gradient-3" x1="15.234" y1="1.02" x2="13.752" y2="1.02" gradientUnits="objectBoundingBox">
      <stop offset="0" stop-color="#2f3591"/>
      <stop offset="0.507" stop-color="#2d42a1"/>
      <stop offset="1" stop-color="#2b54b5"/>
    </linearGradient>
  </defs>
  <g id="Grupo_14068" data-name="Grupo 14068" transform="translate(0 0)">
    <path id="Trazado_23120" data-name="Trazado 23120" d="M741.388,516.209l1.651-2.955,1.651-2.955a1.541,1.541,0,0,1,2.132-.528L863.491,577.71a1.854,1.854,0,0,1,.743,2.488l-.333.594-.332.6a1.853,1.853,0,0,1-2.508.671l-119-63.756A1.541,1.541,0,0,1,741.388,516.209Z" transform="translate(-719.798 -500.082)" fill="#ff6161"/>
    <path id="Trazado_23121" data-name="Trazado 23121" d="M857.586,516.7l4.082-7.3a.72.72,0,0,1,.986-.254l2.082,1.163a.721.721,0,0,1,.3.973l-4.082,7.3a.719.719,0,0,1-.985.254l-2.082-1.164A.72.72,0,0,1,857.586,516.7Z" transform="translate(-836.761 -500.082)" fill="#dedede"/>
    <path id="Trazado_23122" data-name="Trazado 23122" d="M885.86,509.464a11.006,11.006,0,0,0-8.34-5.312c-2.205-.237-4.4.2-6.61.135a15.106,15.106,0,0,1-9.907-4.2c-.394,6.038,11.729,16.5,20.774,16.69C881.83,516.676,885.86,509.464,885.86,509.464Z" transform="translate(-860.994 -500.082)" fill="url(#linear-gradient)"/>
  </g>
  <g id="Grupo_14069" data-name="Grupo 14069" transform="translate(37.86 26.78)">
    <path id="Trazado_23123" data-name="Trazado 23123" d="M811.27,616.281q-1.3,12.152-2.593,24.3a10.829,10.829,0,0,0,.025,3.655,3.669,3.669,0,0,0,2.229,2.717c1.85.6,14.871-8.037,20.429-9.029.282,1.015,1.06,2.313,1.342,3.327a85.652,85.652,0,0,1-17.528,12.138c-2.666,1.391-5.663,2.672-8.594,2-4.393-1-6.655-5.8-7.983-10.105a97.108,97.108,0,0,1-4.3-28.608,9.831,9.831,0,0,1,1.042-5.264c1.648-2.637,5.426-3.222,8.347-2.153S809.115,614.038,811.27,616.281Z" transform="translate(-778.995 -526.862)" fill="url(#linear-gradient-2)"/>
    <path id="Trazado_23124" data-name="Trazado 23124" d="M840.6,613.759c-4.767,12.376-15.833,20.5-17.976,34.652,9.582,5.416,16.743,11.505,25.347,17.137-.486,1.051.353,4.441-.133,5.491-11.17-4.321-20.83-8.739-30.091-15.067-1.707-1.167-3.522-2.472-4.162-4.438a9.468,9.468,0,0,1-.242-3.422q.589-11.558,1.179-23.114c.16-3.124,1.213-12.634,2.066-15.644s1.58.449,4.128-1.366a10.642,10.642,0,0,1,10.738-.812C834.826,608.877,841.961,610.239,840.6,613.759Z" transform="translate(-813.304 -526.862)" fill="url(#linear-gradient-3)"/>
    <path id="Trazado_23125" data-name="Trazado 23125" d="M807.375,557.567a3.933,3.933,0,0,0-.94,1.78,2.983,2.983,0,0,0,.936,2.411,5.644,5.644,0,0,0,3.7,1.653,7.491,7.491,0,0,0,3.985-.925,5.875,5.875,0,0,0,3.223-4.066,7.171,7.171,0,0,0-.7-3.764c-.718-1.719-2.231-4.08-4.3-2.774A25.286,25.286,0,0,0,807.375,557.567Z" transform="translate(-776.734 -526.862)" fill="#ffaa75"/>
    <path id="Trazado_23126" data-name="Trazado 23126" d="M839.912,575.182c.044.035-9.119,14.359-11.306,19.518-2.1,4.96-5.553,20.529-5.553,20.529l-21.374-8.27s8.725-14.2,10.571-19.384c1.857-5.212,4.228-21.446,4.308-21.428,0,0,9.705.456,12.787,1.648S839.912,575.182,839.912,575.182Z" transform="translate(-793.591 -526.862)" fill="#ffaa75"/>
    <path id="Trazado_23127" data-name="Trazado 23127" d="M839.522,569.087s-10.547-9.279-11.661-13.063c-1.456-4.947,1.331-20.583,1.331-20.583l-3.728-.835s-5.562,17.016-4.354,22.656c1.45,6.765,17.39,19.148,17.39,19.148Z" transform="translate(-812.459 -526.862)" fill="#ffaa75"/>
    <path id="Trazado_23128" data-name="Trazado 23128" d="M778.489,575.182s7.932,9.615,11.611,9.2c5.507-.628,13.784-16.941,13.784-16.941l3.152,2.181s-8.491,20.686-15,22.588c-4.959,1.451-18.908-8.344-18.908-8.344Z" transform="translate(-732.168 -526.862)" fill="#ffaa75"/>
    <path id="Trazado_23129" data-name="Trazado 23129" d="M815.892,561.629l-4.708,8.476-7.455-2.884,1.622-4.191Z" transform="translate(-771.621 -526.862)" fill="#ffaa75"/>
    <path id="Trazado_23130" data-name="Trazado 23130" d="M783.652,575.182s7.932,9.615,11.611,9.2c2.19-.25,4.336-3.23,6.717-6.5a27.236,27.236,0,0,1,5.056,3.792c-2.839,5.068-6.791,9.648-9.833,10.537-4.959,1.451-18.908-8.344-18.908-8.344Z" transform="translate(-737.331 -526.862)" fill="#e8732a"/>
    <path id="Trazado_23131" data-name="Trazado 23131" d="M824.494,549.44c-.781,2.731-1.072,5.04-.618,6.584,1.114,3.784,15.813,12.605,15.813,12.605l-5.257,8.483s-15.857-13.085-17.307-19.85a24.918,24.918,0,0,1,.207-9.277A33.331,33.331,0,0,1,824.494,549.44Z" transform="translate(-808.475 -526.862)" fill="#e8732a"/>
    <path id="Trazado_23132" data-name="Trazado 23132" d="M843.007,586.648c-2.881,2.145-4.541,5.746-5.2,9.328-.745,4.031-.443,8.171-.6,12.266-.086,2.224.179,5.484-.226,7.992a3.279,3.279,0,0,1-5.086,2.182,37.815,37.815,0,0,0-22.954-6.446,17.761,17.761,0,0,1-3.593.038,4.505,4.505,0,0,1-3.082-1.664c-1.083-1.518-.666-3.644.144-5.324,2.308-4.783,7.116-7.776,10.584-11.8a25.172,25.172,0,0,0,5.957-18.232c-.276-3.436,1.974-6.519,4.45-8.917a66.553,66.553,0,0,1,12.255,1.481c4.765,2,11.384,7.628,11.384,7.628a4.457,4.457,0,0,1-.237,2.2l-1.758,6.277A6.57,6.57,0,0,1,843.007,586.648Z" transform="translate(-800.714 -526.862)" fill="#e8732a"/>
    <path id="Trazado_23133" data-name="Trazado 23133" d="M832.464,535.441a3.6,3.6,0,0,1,.7-1.911c.255-.32.605-.551.87-.862a3.857,3.857,0,0,0,.707-1.676,6.766,6.766,0,0,0,.147-2.928,1.449,1.449,0,0,0-.868-1.17,1.316,1.316,0,0,0-1.005.212c-.3.183-.564.424-.869.6-.822.473-1.91.453-2.591,1.113a2.528,2.528,0,0,0-.634,1.888c.014.683,0,1.258.037,1.94a5.149,5.149,0,0,1-.226,1.959C829.059,534.682,832.464,535.441,832.464,535.441Z" transform="translate(-815.731 -526.862)" fill="#ffaa75"/>
    <path id="Trazado_23134" data-name="Trazado 23134" d="M769.453,567.436a5.019,5.019,0,0,0,.676-1.937c.061-.4-.008-.818.04-1.223.073-.608.65-1.032,1-1.537a6.748,6.748,0,0,1,2.048-2.1,1.447,1.447,0,0,1,1.448-.159,1.314,1.314,0,0,1,.528.881c.07.345.072.7.15,1.045.212.924.966,1.709.945,2.657a2.527,2.527,0,0,1-.954,1.748c-.51.454-.923.855-1.448,1.292a5.191,5.191,0,0,0-1.277,1.512C772.33,569.432,769.453,567.436,769.453,567.436Z" transform="translate(-697.736 -526.862)" fill="#ffaa75"/>
    <path id="Trazado_23135" data-name="Trazado 23135" d="M790.594,637.485a3.661,3.661,0,0,1,2.831,1.352,9.116,9.116,0,0,1,1.551,2.862,27.544,27.544,0,0,1,1.8,8.247,1.067,1.067,0,0,1-1.621.981,17.756,17.756,0,0,1-6.735-10.6A2.459,2.459,0,0,1,790.594,637.485Z" transform="translate(-737.158 -526.862)" fill="#23224d"/>
    <path id="Trazado_23136" data-name="Trazado 23136" d="M808.3,665.334a4.1,4.1,0,0,1,3.17,1.515,10.222,10.222,0,0,1,1.737,3.205,30.855,30.855,0,0,1,2.013,9.235,1.2,1.2,0,0,1-1.816,1.1,19.882,19.882,0,0,1-7.542-11.876A2.755,2.755,0,0,1,808.3,665.334Z" transform="translate(-773.052 -526.862)" fill="#23224d"/>
    <path id="Trazado_23137" data-name="Trazado 23137" d="M787.411,553.18a8.453,8.453,0,0,1-3.489-1.907,3.605,3.605,0,0,1-.986-3.671,3.52,3.52,0,0,1,3.737-1.957,6.969,6.969,0,0,1,3.9,2.185c1.074,1.071,1.971,2.31,3.061,3.364,1.569,1.519,3.512,2.63,4.972,4.254s2.367,4.071,1.341,6a5.512,5.512,0,0,0,1.2,6.165c1.565,1.518,3.662,2.324,5.575,3.37s3.8,2.532,4.324,4.648c.577,2.326-.617,4.96.461,7.1,1,1.988,3.47,2.625,5.311,3.876a8.274,8.274,0,1,1-10.356,12.836c-1.594-1.516-2.585-3.665-4.446-4.837-2.45-1.543-5.6-.953-8.494-.971-4.1-.025-8.429-1.629-10.636-5.081-1.891-2.957-1.938-6.7-3.057-10.026-.72-2.141-1.893-4.127-2.405-6.327s-.19-4.822,1.589-6.214c1.474-1.153,3.764-1.35,4.629-3.009.746-1.433.048-3.383,1.022-4.672a4.8,4.8,0,0,1,1.888-1.252,3.366,3.366,0,0,0,1.731-1.427A2.178,2.178,0,0,0,787.411,553.18Z" transform="translate(-749.624 -526.862)" fill="#23224d"/>
  </g>
</svg>
