<svg xmlns="http://www.w3.org/2000/svg" width="1121.269" height="1136" viewBox="0 0 1121.269 1136">
  <g id="Grupo_16275" data-name="Grupo 16275" transform="translate(-138.73 -1276)">
    <rect id="Rectángulo_3845" data-name="Rectángulo 3845" width="947" height="1136" transform="translate(224 1276)" fill="#002b45"/>
    <path id="Trazado_18379" data-name="Trazado 18379" d="M3210.514,972.719v91.789h272V972.719Z" transform="translate(-2922.514 401.281)" fill="#d5f4fc"/>
    <path id="Trazado_23975" data-name="Trazado 23975" d="M3210.514,972.719v91.789h272V972.719Z" transform="translate(-2922.682 881.281)" fill="#d5f4fc"/>
    <path id="Trazado_23609" data-name="Trazado 23609" d="M3210.514,972.719v91.789h272V972.719Z" transform="translate(-2646.346 401.281)" fill="#d5f4fc"/>
    <path id="Trazado_23976" data-name="Trazado 23976" d="M3210.514,972.719v91.789h272V972.719Z" transform="translate(-2646.346 881.281)" fill="#d5f4fc"/>
    <path id="Trazado_23614" data-name="Trazado 23614" d="M3210.514,972.719v91.789h272V972.719Z" transform="translate(-2370.346 401.281)" fill="#d5f4fc"/>
    <path id="Trazado_23981" data-name="Trazado 23981" d="M3210.514,972.719v91.789h272V972.719Z" transform="translate(-2370.346 881.281)" fill="#d5f4fc"/>
    <path id="Trazado_23605" data-name="Trazado 23605" d="M3210.514,972.719v91.789h272V972.719Z" transform="translate(-2922.682 593.755)" fill="#d5f4fc"/>
    <path id="Trazado_23979" data-name="Trazado 23979" d="M3210.514,972.719v91.789h272V972.719Z" transform="translate(-2922.682 1073.755)" fill="#d5f4fc"/>
    <path id="Trazado_23611" data-name="Trazado 23611" d="M3210.514,972.719v91.789h272V972.719Z" transform="translate(-2646.346 593.281)" fill="#d5f4fc"/>
    <path id="Trazado_23980" data-name="Trazado 23980" d="M3210.514,972.719v91.789h272V972.719Z" transform="translate(-2646.346 1073.281)" fill="#d5f4fc"/>
    <path id="Trazado_23616" data-name="Trazado 23616" d="M3210.514,972.719v91.789h272V972.719Z" transform="translate(-2370.682 593.281)" fill="#d5f4fc"/>
    <path id="Trazado_23982" data-name="Trazado 23982" d="M3210.514,972.719v91.789h272V972.719Z" transform="translate(-2370.682 1073.281)" fill="#d5f4fc"/>
    <path id="Trazado_23602" data-name="Trazado 23602" d="M3210.514,972.719v91.789h272V972.719Z" transform="translate(-2922.682 497.281)" fill="#d5f4fc"/>
    <path id="Trazado_23977" data-name="Trazado 23977" d="M3210.514,972.719v91.789h272V972.719Z" transform="translate(-2922.682 977.281)" fill="#d5f4fc"/>
    <path id="Trazado_23610" data-name="Trazado 23610" d="M3210.514,972.719v91.789h272V972.719Z" transform="translate(-2646.346 497.281)" fill="#d5f4fc"/>
    <path id="Trazado_23978" data-name="Trazado 23978" d="M3210.514,972.719v91.789h272V972.719Z" transform="translate(-2646.346 977.281)" fill="#d5f4fc"/>
    <path id="Trazado_23615" data-name="Trazado 23615" d="M3210.514,972.719v91.789h272V972.719Z" transform="translate(-2370.682 497.281)" fill="#d5f4fc"/>
    <path id="Trazado_23983" data-name="Trazado 23983" d="M3210.514,972.719v91.789h272V972.719Z" transform="translate(-2370.682 977.281)" fill="#d5f4fc"/>
    <path id="Trazado_23604" data-name="Trazado 23604" d="M3210.514,972.719v91.789h272V972.719Z" transform="translate(-2922.682 689.281)" fill="#d5f4fc"/>
    <path id="Trazado_23984" data-name="Trazado 23984" d="M3210.514,972.719v91.789h272V972.719Z" transform="translate(-2922.682 1169.281)" fill="#d5f4fc"/>
    <path id="Trazado_23612" data-name="Trazado 23612" d="M3210.514,972.719v91.789h272V972.719Z" transform="translate(-2646.346 689.281)" fill="#d5f4fc"/>
    <path id="Trazado_23985" data-name="Trazado 23985" d="M3210.514,972.719v91.789h272V972.719Z" transform="translate(-2646.346 1169.281)" fill="#d5f4fc"/>
    <path id="Trazado_23617" data-name="Trazado 23617" d="M3210.514,972.719v91.789h272V972.719Z" transform="translate(-2370.682 689.281)" fill="#d5f4fc"/>
    <path id="Trazado_23986" data-name="Trazado 23986" d="M3210.514,972.719v91.789h272V972.719Z" transform="translate(-2370.682 1169.281)" fill="#d5f4fc"/>
    <path id="Trazado_23608" data-name="Trazado 23608" d="M3210.514,972.719v91.789h272V972.719Z" transform="translate(-2922.514 785.281)" fill="#d5f4fc"/>
    <path id="Trazado_23987" data-name="Trazado 23987" d="M3210.514,972.719v91.789h272V972.719Z" transform="translate(-2922.346 1265.281)" fill="#d5f4fc"/>
    <path id="Trazado_23613" data-name="Trazado 23613" d="M3210.514,972.719v91.789h272V972.719Z" transform="translate(-2646.346 785.281)" fill="#d5f4fc"/>
    <path id="Trazado_23988" data-name="Trazado 23988" d="M3210.514,972.719v91.789h272V972.719Z" transform="translate(-2646.346 1265.281)" fill="#d5f4fc"/>
    <path id="Trazado_23618" data-name="Trazado 23618" d="M3210.514,972.719v91.789h272V972.719Z" transform="translate(-2370.682 785.281)" fill="#d5f4fc"/>
    <path id="Trazado_23989" data-name="Trazado 23989" d="M3210.514,972.719v91.789h272V972.719Z" transform="translate(-2370.682 1265.281)" fill="#d5f4fc"/>
    <text id="_0._Videos" data-name="0. Videos" transform="translate(324 1430)" font-size="26" font-family="OpenSans-Bold, Open Sans" font-weight="700"><tspan x="0" y="0">0. Videos</tspan></text>
    <text id="_5._Columnas_" data-name="5. Columnas " transform="translate(324 1910)" font-size="26" font-family="OpenSans-Bold, Open Sans" font-weight="700"><tspan x="0" y="0">5. Columnas </tspan></text>
    <text id="_0._Jugar" data-name="0. Jugar" transform="translate(592 1430)" font-size="26" font-family="OpenSans-Bold, Open Sans" font-weight="700"><tspan x="0" y="0">0. Jugar</tspan></text>
    <text id="_5._Leer" data-name="5. Leer" transform="translate(592 1910)" font-size="26" font-family="OpenSans-Bold, Open Sans" font-weight="700"><tspan x="0" y="0">5. Leer</tspan></text>
    <text id="_11" data-name="11" transform="translate(891 1430)" font-size="26" font-family="OpenSans-Bold, Open Sans" font-weight="700"><tspan x="0" y="0">11</tspan></text>
    <text id="_97" data-name="97" transform="translate(891 1910)" font-size="26" font-family="OpenSans-Bold, Open Sans" font-weight="700"><tspan x="0" y="0">97</tspan></text>
    <text id="_1._Fotos" data-name="1. Fotos" transform="translate(324 1526)" font-size="26" font-family="OpenSans-Bold, Open Sans" font-weight="700"><tspan x="0" y="0">1. Fotos</tspan></text>
    <text id="_6._Educación" data-name="6. Educación" transform="translate(324 2006)" font-size="26" font-family="OpenSans-Bold, Open Sans" font-weight="700"><tspan x="0" y="0">6. Educación</tspan></text>
    <text id="_1._Comer" data-name="1. Comer" transform="translate(592 1526)" font-size="26" font-family="OpenSans-Bold, Open Sans" font-weight="700"><tspan x="0" y="0">1. Comer</tspan></text>
    <text id="_6._Reír" data-name="6. Reír" transform="translate(592 2006)" font-size="26" font-family="OpenSans-Bold, Open Sans" font-weight="700"><tspan x="0" y="0">6. Reír</tspan></text>
    <text id="_21" data-name="21" transform="translate(891 1526)" font-size="26" font-family="OpenSans-Bold, Open Sans" font-weight="700"><tspan x="0" y="0">21</tspan></text>
    <text id="_06" data-name="06" transform="translate(891 2006)" font-size="26" font-family="OpenSans-Bold, Open Sans" font-weight="700"><tspan x="0" y="0">06</tspan></text>
    <text id="_2._Juegos" data-name="2. Juegos" transform="translate(324 1609)" font-size="26" font-family="OpenSans-Bold, Open Sans" font-weight="700"><tspan x="0" y="0">2. Juegos</tspan></text>
    <text id="_7._Cultura" data-name="7. Cultura" transform="translate(324 2089)" font-size="26" font-family="OpenSans-Bold, Open Sans" font-weight="700"><tspan x="0" y="0">7. Cultura</tspan></text>
    <text id="_2._Correr" data-name="2. Correr" transform="translate(592 1622)" font-size="26" font-family="OpenSans-Bold, Open Sans" font-weight="700"><tspan x="0" y="0">2. Correr</tspan></text>
    <text id="_7._Bailar" data-name="7. Bailar" transform="translate(592 2102)" font-size="26" font-family="OpenSans-Bold, Open Sans" font-weight="700"><tspan x="0" y="0">7. Bailar</tspan></text>
    <text id="_54" data-name="54" transform="translate(891 1622)" font-size="26" font-family="OpenSans-Bold, Open Sans" font-weight="700"><tspan x="0" y="0">54</tspan></text>
    <text id="_70" data-name="70" transform="translate(891 2102)" font-size="26" font-family="OpenSans-Bold, Open Sans" font-weight="700"><tspan x="0" y="0">70</tspan></text>
    <text id="_3._Noticias" data-name="3. Noticias" transform="translate(326 1718)" font-size="26" font-family="OpenSans-Bold, Open Sans" font-weight="700"><tspan x="0" y="0">3. Noticias</tspan></text>
    <text id="_8._Deportes" data-name="8. Deportes" transform="translate(326 2198)" font-size="26" font-family="OpenSans-Bold, Open Sans" font-weight="700"><tspan x="0" y="0">8. Deportes</tspan></text>
    <text id="_3._Escribir" data-name="3. Escribir" transform="translate(592 1718)" font-size="26" font-family="OpenSans-Bold, Open Sans" font-weight="700"><tspan x="0" y="0">3. Escribir</tspan></text>
    <text id="_8._Cantar" data-name="8. Cantar" transform="translate(592 2198)" font-size="26" font-family="OpenSans-Bold, Open Sans" font-weight="700"><tspan x="0" y="0">8. Cantar</tspan></text>
    <text id="_33" data-name="33" transform="translate(891 1718)" font-size="26" font-family="OpenSans-Bold, Open Sans" font-weight="700"><tspan x="0" y="0">33</tspan></text>
    <text id="_98" data-name="98" transform="translate(891 2198)" font-size="26" font-family="OpenSans-Bold, Open Sans" font-weight="700"><tspan x="0" y="0">98</tspan></text>
    <text id="_4._Entretenimiento" data-name="4. Entretenimiento" transform="translate(302 1814)" font-size="26" font-family="OpenSans-Bold, Open Sans" font-weight="700"><tspan x="0" y="0">4. Entretenimiento</tspan></text>
    <text id="_9._Comercio" data-name="9. Comercio" transform="translate(324 2294)" font-size="26" font-family="OpenSans-Bold, Open Sans" font-weight="700"><tspan x="0" y="0">9. Comercio</tspan></text>
    <text id="_4._Caminar" data-name="4. Caminar" transform="translate(592 1814)" font-size="26" font-family="OpenSans-Bold, Open Sans" font-weight="700"><tspan x="0" y="0">4. Caminar</tspan></text>
    <text id="_9._Hablar" data-name="9. Hablar" transform="translate(592 2294)" font-size="26" font-family="OpenSans-Bold, Open Sans" font-weight="700"><tspan x="0" y="0">9. Hablar</tspan></text>
    <text id="_78" data-name="78" transform="translate(891 1814)" font-size="26" font-family="OpenSans-Bold, Open Sans" font-weight="700"><tspan x="0" y="0">78</tspan></text>
    <text id="_46" data-name="46" transform="translate(891 2294)" font-size="26" font-family="OpenSans-Bold, Open Sans" font-weight="700"><tspan x="0" y="0">46</tspan></text>
    <text id="Tabla_3_-_Ejemplo_de_lista_cruzada" data-name="Tabla 3 - Ejemplo de lista cruzada" transform="translate(708.999 1336)" fill="#fff" font-size="24" font-family="SegoeUI-Bold, Segoe UI" font-weight="700"><tspan x="-187.934" y="0">Tabla 3 - Ejemplo de lista cruzada</tspan></text>
    <text id="Fuente:_Fundación_Neuronilla_para_la_Creatividad_y_la_Innovación_2020_" data-name="Fuente: Fundación Neuronilla para la Creatividad y la Innovación (2020)" transform="translate(287.5 2381)" fill="#fff" font-size="24" font-family="SegoeUI-Bold, Segoe UI" font-weight="700"><tspan x="0" y="0">Fuente: Fundación Neuronilla para la Creatividad y la Innovación (2020)</tspan></text>
    <g id="Grupo_14299" data-name="Grupo 14299" transform="translate(138.73 1998.153)">
      <path id="Trazado_23888" data-name="Trazado 23888" d="M225.277,663.344H153.072a6.282,6.282,0,1,1,0-12.564h72.205a6.282,6.282,0,1,1,0,12.564Z" transform="translate(-122.292 -331.074)" fill="#2c224f" opacity="0.32"/>
      <g id="Grupo_14264" data-name="Grupo 14264" transform="translate(80.164 43.35)">
        <g id="Grupo_14261" data-name="Grupo 14261" transform="translate(0 22.044)">
          <g id="Grupo_14260" data-name="Grupo 14260">
            <path id="Trazado_23889" data-name="Trazado 23889" d="M248.577,286.116l-16.261-14.787c-.25-.98,3.147-2.835,7.4-10.2l.227-.187c.127-.055.283-.125.495-.221-.657.2,3.7-.111,4.881-.606,5.395,1.178,5.771,4.411,13.461,14.684C257.492,280.338,253.191,283.508,248.577,286.116Z" transform="translate(-232.303 -260.113)" fill="#32b1dc"/>
          </g>
        </g>
        <g id="Grupo_14263" data-name="Grupo 14263" transform="translate(16.274)">
          <g id="Grupo_14262" data-name="Grupo 14262">
            <path id="Trazado_23890" data-name="Trazado 23890" d="M309.2,232.283a6.759,6.759,0,0,0-.015-2.392,4.079,4.079,0,0,0-3.246-3.361,2.955,2.955,0,0,0-.456.029l.1-.185a9.319,9.319,0,0,1-1.022-.123c1.334.26.47.176-.232.129-.223.069-1.257.216-1.489.279-.2.053-.389.118-.583.179-.08.035-.171.074-.314.134-.592.323-1.2.6-1.776.952-.033.02-.068.034-.1.053a53.671,53.671,0,0,0-2.4,5.538,11.074,11.074,0,0,0-.879,4.679,4.518,4.518,0,0,0,2.308,3.672c-1.6,6.176-3.117,12.941-4.815,19.491l11.219,2.438A166.483,166.483,0,0,0,309.2,232.283Z" transform="translate(-270.207 -226.25)" fill="#ffb288"/>
            <path id="Trazado_23891" data-name="Trazado 23891" d="M281.372,280.179c-1.182,4.564-2.448,9.024-3.886,13.1a86.512,86.512,0,0,1-9.979-11.482c-1.289,5.541-5.59,8.711-10.2,11.319l19.881,18.6a4.642,4.642,0,0,0,7.675-2.263,188.1,188.1,0,0,0,7.732-26.843Z" transform="translate(-257.302 -245.073)" fill="#32b1dc"/>
          </g>
        </g>
      </g>
      <g id="Grupo_14265" data-name="Grupo 14265" transform="translate(0 0)">
        <path id="Trazado_23892" data-name="Trazado 23892" d="M145.865,171.341c-3.486,7.411.437,18.264-8.206,22.367-4.091,1.942-9.975,1.6-13.866,3.744-3.809,2.1-4.861,6.165-4.36,10.05s2.306,7.771,3.313,11.666a6.388,6.388,0,0,1,.135,3.806c-1.124,2.971-5.924,3.7-9.077,5.514-4.913,2.823-5.671,8.546-3.485,13.591s6.8,9.552,11.535,13.763c3.9,3.466,8.11,6.927,13.323,9.072,8.756,3.6,18.781,2.8,26.727.158,12.646-4.209,21.785-12.9,24.6-23.4,2.075-7.734.95-16.494,5.709-23.22,3-4.238,8.092-7.269,11.618-11.228,5.749-6.452,6.978-15.393,3.27-23.78-1.316-2.976-3.4-4.743-5.779-7.26-3.51-3.717-3.135-3.971-4.087-8.144-1.247-5.471-5.979-6.661-13.558-7.759C169.308,158.194,150.619,161.234,145.865,171.341Z" transform="translate(-109.157 -159.657)" fill="#622668"/>
      </g>
      <path id="Trazado_23893" data-name="Trazado 23893" d="M223.622,642.094a.8.8,0,0,1,.148-.217c1.7,9.062,8.407,7.717,11.872,2.655l8.442,2.972c4.571,1.525,2.89,5.982-2.256,5.982H222.242c-.939,0-1.65-.548-1.484-1.145Z" transform="translate(-148.101 -327.967)" fill="#fc425d"/>
      <g id="Grupo_14266" data-name="Grupo 14266" transform="translate(34.967 166.169)">
        <path id="Trazado_23894" data-name="Trazado 23894" d="M185.778,646.937l-10.729-3.74-.158.271c-1.441,2.444-8.892,6.143-9.342-1.808l-2.669,10.5a.719.719,0,0,0,.016.253,1.321,1.321,0,0,0,1.441.983h19.228a5.281,5.281,0,0,0,4.084-1.592C188.989,650.247,188.594,647.97,185.778,646.937Z" transform="translate(-162.872 -494.06)" fill="#fc425d"/>
        <path id="Trazado_23895" data-name="Trazado 23895" d="M227.334,495.08c2.757-26.748,5.157-56.674,5.8-80.043-13.037-.607-63.984,1.379-63.984,1.379,7.381,22.656,22.718,50.977,15.7,74.679-.34,1.148-.712,2.457-1.1,3.83l19.094.068c.016-.043.031-.084.046-.127h7.245v.153Z" transform="translate(-165.062 -414.922)" fill="#383872"/>
        <path id="Trazado_23896" data-name="Trazado 23896" d="M169.8,594.209l12.77-.134c.429-1.267.9-2.668,1.439-4.257,8.59-25.335,14.955-40.674,19.056-51.928l-19.094-.068C179.547,553.653,172.462,583.058,169.8,594.209Z" transform="translate(-165.292 -457.817)" fill="#f9b9aa"/>
        <path id="Trazado_23897" data-name="Trazado 23897" d="M176.315,637.387l.158-.271c1.676-2.894,2.493-5.157,5.106-12.88l-12.77.134c-.555,2.33-.92,3.874-1.023,4.314a24.98,24.98,0,0,0-.814,6.894C167.423,643.529,174.873,639.831,176.315,637.387Z" transform="translate(-164.296 -487.979)" fill="#f9b9aa"/>
        <path id="Trazado_23898" data-name="Trazado 23898" d="M230.425,537.965a550.464,550.464,0,0,1-3.134,56.676l13.208-.148c2.021-12,4.713-33.014,7.131-56.467Z" transform="translate(-185.356 -457.868)" fill="#f9b9aa"/>
        <path id="Trazado_23899" data-name="Trazado 23899" d="M225.63,633.709c-1.508,11.861,8.252,10.85,11.163,5.517.6-1.1,1.709-6.34,3.071-14.424l-13.208.148C226.333,627.87,226,630.792,225.63,633.709Z" transform="translate(-184.721 -488.176)" fill="#f9b9aa"/>
      </g>
      <path id="Trazado_23900" data-name="Trazado 23900" d="M168.061,258.35a6.408,6.408,0,0,0-1.2,1.909,11.622,11.622,0,0,0,1.682,11.227c4.367,6.043,9.9,18.847,10.727,30.784a39.23,39.23,0,0,1-.165,7.974,35.338,35.338,0,0,1-1.057,3.984c-3.08,9.168-9.688,17.015-11.7,26.474a28.88,28.88,0,0,0,.363,13.33,6.782,6.782,0,0,0,2,3.248,46.927,46.927,0,0,0,21.037,9.765l-1.214-122.561A58.482,58.482,0,0,0,168.061,258.35Z" transform="translate(-128.906 -189.264)" fill="#32b1dc"/>
      <path id="Trazado_23901" data-name="Trazado 23901" d="M200.912,243.2l-.158.055,1.214,122.561a48.027,48.027,0,0,0,6.787.783,53.061,53.061,0,0,0,19.948-3.48l1.182-116.16C219.206,238.853,208.2,240.473,200.912,243.2Z" transform="translate(-141.127 -188.041)" fill="#fff"/>
      <path id="Trazado_23902" data-name="Trazado 23902" d="M257.961,336.514c-.255-2.271-2.587-17.54-3.606-22.472-.262-1.265-.493-2.543-.7-3.826a81.516,81.516,0,0,1-2.251-16.707c-.031-1.626.013-3.254.055-4.881.184-7.117,3.843-26.767,3.843-26.767a44.934,44.934,0,0,0-10.428-11.687l-1.182,116.16a89.933,89.933,0,0,0,15.461-7.37C259.18,357.615,257.968,336.512,257.961,336.514Z" transform="translate(-156.113 -191.25)" fill="#32b1dc"/>
      <path id="Trazado_23903" data-name="Trazado 23903" d="M163.479,304.262c3.028-6.319,11.178-22.3,14.661-27.76,6.619-10.365-9.223-11.678-18.129-8.455L148.37,301.662,146,308.492l-.256.74c-.954,4.967-1.017,5.981-.86,6.568a5.09,5.09,0,0,0,.525,2.275c2.54,6.953,5.307,13.373,8.123,19.224l11.6-4.656c-.542-1.237-1.066-2.467-1.563-3.683-2.617-6.974-3.4-16.773-3.4-16.773.365-1.078.783-2.185,1.24-3.308C162.026,307.369,162.733,305.82,163.479,304.262Z" transform="translate(-121.605 -196.946)" fill="#32b1dc"/>
      <path id="Trazado_23904" data-name="Trazado 23904" d="M189.935,401.289a12.5,12.5,0,0,0-2.556-4.532,4.767,4.767,0,0,0-4.395-1.457c-4.175-8.666-9.214-18.156-13.175-27.188l-11.6,4.656a194.916,194.916,0,0,0,23.4,37.636,7.564,7.564,0,0,0,1.678,1.993,4.231,4.231,0,0,0,4.924.538,3.05,3.05,0,0,0,.343-.343l.053.222a9.538,9.538,0,0,1,.9-.614c-1.243.718-.5.182.094-.27.13-.214.851-1.062.991-1.277.12-.182.227-.372.339-.558.04-.086.085-.182.158-.333.246-.685.534-1.341.75-2.04.012-.04.032-.077.045-.117A60.859,60.859,0,0,0,189.935,401.289Z" transform="translate(-126.277 -232.414)" fill="#f9b9aa"/>
      <path id="Trazado_23905" data-name="Trazado 23905" d="M224.229,193.477l.01-2.785-14.258-9.019a12.879,12.879,0,0,0-3.436,8.924l-.007,1.6a2.12,2.12,0,0,0-.359-.03c-1.507.018-2.733,1.6-2.741,3.538s1.208,3.491,2.714,3.474a2.129,2.129,0,0,0,.36-.038l0,.61a12.529,12.529,0,0,0,3.427,8.963l-.042,11.719c-1.56,1.163-2.534,2.71-1.566,4.376a83.632,83.632,0,0,0,4.942,7.788,2.761,2.761,0,0,0,4.43,0,83.915,83.915,0,0,0,4.942-7.788c1.072-1.845-.238-3.546-2.088-4.738l.04-11.37a12.67,12.67,0,0,0,3.573-8.216h.033c1.506-.018,2.734-1.6,2.741-3.537S225.735,193.458,224.229,193.477Z" transform="translate(-142.064 -167.341)" fill="#f9b9aa"/>
      <g id="Grupo_14297" data-name="Grupo 14297" transform="translate(115.261 42.466)">
        <path id="Trazado_23906" data-name="Trazado 23906" d="M339.872,230.132h-51.3a2.529,2.529,0,0,0-2.353,2.674V317.2a2.267,2.267,0,0,0,2.353,2.17h51.3a2.268,2.268,0,0,0,2.354-2.17V232.806A2.529,2.529,0,0,0,339.872,230.132Z" transform="translate(-286.218 -226.721)" fill="#5e5e92"/>
        <path id="Trazado_23907" data-name="Trazado 23907" d="M338.835,233.413H292.973a2.272,2.272,0,0,0-2.1,2.407v76a2.034,2.034,0,0,0,2.1,1.954h45.863a2.034,2.034,0,0,0,2.1-1.954v-76A2.272,2.272,0,0,0,338.835,233.413Z" transform="translate(-287.841 -227.866)" fill="#fff"/>
        <rect id="Rectángulo_3843" data-name="Rectángulo 3843" width="6.701" height="15.466" rx="3.35" transform="translate(36.721 0) rotate(90)" fill="#383872"/>
        <g id="Grupo_14272" data-name="Grupo 14272" transform="translate(24.001 19.081)">
          <g id="Grupo_14267" data-name="Grupo 14267">
            <path id="Trazado_23908" data-name="Trazado 23908" d="M338.143,255.812H324.029a.814.814,0,1,1,0-1.608h14.114a.814.814,0,1,1,0,1.608Z" transform="translate(-323.088 -254.204)" fill="#5e5e92"/>
          </g>
          <g id="Grupo_14268" data-name="Grupo 14268" transform="translate(18.101)">
            <path id="Trazado_23909" data-name="Trazado 23909" d="M356.492,255.812h-4.657a.814.814,0,1,1,0-1.608h4.657a.814.814,0,1,1,0,1.608Z" transform="translate(-350.894 -254.204)" fill="#5e5e92"/>
          </g>
          <g id="Grupo_14269" data-name="Grupo 14269" transform="translate(8.645 2.934)">
            <path id="Trazado_23910" data-name="Trazado 23910" d="M337.309,260.319h14.114a.814.814,0,1,0,0-1.608H337.309a.814.814,0,1,0,0,1.608Z" transform="translate(-336.368 -258.711)" fill="#5e5e92"/>
          </g>
          <g id="Grupo_14270" data-name="Grupo 14270" transform="translate(0 5.915)">
            <path id="Trazado_23911" data-name="Trazado 23911" d="M324.029,264.9h14.114a.814.814,0,1,0,0-1.608H324.029a.814.814,0,1,0,0,1.608Z" transform="translate(-323.088 -263.291)" fill="#5e5e92"/>
          </g>
          <g id="Grupo_14271" data-name="Grupo 14271" transform="translate(0 2.934)">
            <path id="Trazado_23912" data-name="Trazado 23912" d="M324.029,260.319h4.658a.814.814,0,1,0,0-1.608h-4.658a.814.814,0,1,0,0,1.608Z" transform="translate(-323.088 -258.711)" fill="#5e5e92"/>
          </g>
        </g>
        <g id="Grupo_14275" data-name="Grupo 14275" transform="translate(6.689 15.6)">
          <g id="Grupo_14273" data-name="Grupo 14273">
            <path id="Trazado_23913" data-name="Trazado 23913" d="M306.888,262.239H299.53a3.041,3.041,0,0,1-3.037-3.038V251.9a3.041,3.041,0,0,1,3.037-3.038h7.358a3.041,3.041,0,0,1,3.038,3.038V259.2A3.042,3.042,0,0,1,306.888,262.239Zm-7.358-12.731a2.39,2.39,0,0,0-2.386,2.387V259.2a2.39,2.39,0,0,0,2.386,2.387h7.358a2.39,2.39,0,0,0,2.387-2.387V251.9a2.39,2.39,0,0,0-2.387-2.387Z" transform="translate(-296.493 -248.857)" fill="#5e5e92"/>
          </g>
          <g id="Grupo_14274" data-name="Grupo 14274" transform="translate(2.118 1.609)">
            <path id="Trazado_23914" data-name="Trazado 23914" d="M303.641,262.337l-3.668-5.374a1.3,1.3,0,1,1,2.151-1.468l1.454,2.13,3.667-5.7a1.3,1.3,0,0,1,2.19,1.409Z" transform="translate(-299.746 -251.328)" fill="#fc425d"/>
          </g>
        </g>
        <g id="Grupo_14278" data-name="Grupo 14278" transform="translate(6.672 33.132)">
          <g id="Grupo_14276" data-name="Grupo 14276">
            <path id="Trazado_23915" data-name="Trazado 23915" d="M306.862,289.171H299.5a3.041,3.041,0,0,1-3.037-3.038v-7.306a3.041,3.041,0,0,1,3.037-3.038h7.358a3.041,3.041,0,0,1,3.038,3.038v7.306A3.042,3.042,0,0,1,306.862,289.171ZM299.5,276.44a2.39,2.39,0,0,0-2.386,2.387v7.306a2.39,2.39,0,0,0,2.386,2.387h7.358a2.39,2.39,0,0,0,2.387-2.387v-7.306a2.39,2.39,0,0,0-2.387-2.387Z" transform="translate(-296.467 -275.789)" fill="#5e5e92"/>
          </g>
          <g id="Grupo_14277" data-name="Grupo 14277" transform="translate(2.118 1.609)">
            <path id="Trazado_23916" data-name="Trazado 23916" d="M303.615,289.269l-3.668-5.374a1.3,1.3,0,1,1,2.15-1.468l1.454,2.13,3.668-5.7a1.3,1.3,0,0,1,2.19,1.409Z" transform="translate(-299.721 -278.261)" fill="#fc425d"/>
          </g>
        </g>
        <g id="Grupo_14281" data-name="Grupo 14281" transform="translate(6.84 49.884)">
          <g id="Grupo_14279" data-name="Grupo 14279">
            <path id="Trazado_23917" data-name="Trazado 23917" d="M307.121,314.9h-7.358a3.041,3.041,0,0,1-3.038-3.037v-7.306a3.041,3.041,0,0,1,3.038-3.037h7.358a3.041,3.041,0,0,1,3.037,3.037v7.306A3.041,3.041,0,0,1,307.121,314.9Zm-7.358-12.73a2.39,2.39,0,0,0-2.387,2.386v7.306a2.39,2.39,0,0,0,2.387,2.386h7.358a2.39,2.39,0,0,0,2.386-2.386v-7.306a2.39,2.39,0,0,0-2.386-2.386Z" transform="translate(-296.725 -301.522)" fill="#5e5e92"/>
          </g>
          <g id="Grupo_14280" data-name="Grupo 14280" transform="translate(2.118 1.609)">
            <path id="Trazado_23918" data-name="Trazado 23918" d="M303.874,315l-3.668-5.375a1.3,1.3,0,0,1,2.151-1.468l1.454,2.131,3.668-5.7A1.3,1.3,0,0,1,309.667,306Z" transform="translate(-299.979 -303.993)" fill="#fc425d"/>
          </g>
        </g>
        <g id="Grupo_14284" data-name="Grupo 14284" transform="translate(7.008 67.221)">
          <g id="Grupo_14282" data-name="Grupo 14282">
            <path id="Trazado_23919" data-name="Trazado 23919" d="M307.379,341.537h-7.358a3.042,3.042,0,0,1-3.038-3.038v-7.306a3.041,3.041,0,0,1,3.038-3.037h7.358a3.041,3.041,0,0,1,3.037,3.037V338.5A3.041,3.041,0,0,1,307.379,341.537Zm-7.358-12.731a2.39,2.39,0,0,0-2.387,2.386V338.5a2.39,2.39,0,0,0,2.387,2.387h7.358a2.39,2.39,0,0,0,2.386-2.387v-7.306a2.39,2.39,0,0,0-2.386-2.386Z" transform="translate(-296.983 -328.155)" fill="#5e5e92"/>
          </g>
          <g id="Grupo_14283" data-name="Grupo 14283" transform="translate(2.444 1.935)">
            <path id="Trazado_23920" data-name="Trazado 23920" d="M304.3,341.22l-3.392-4.969a.977.977,0,1,1,1.613-1.1l1.73,2.536,3.933-6.111a.977.977,0,1,1,1.642,1.057Z" transform="translate(-300.737 -331.128)" fill="#fc425d"/>
          </g>
        </g>
        <g id="Grupo_14287" data-name="Grupo 14287" transform="translate(23.833 38.764)">
          <g id="Grupo_14285" data-name="Grupo 14285">
            <path id="Trazado_23921" data-name="Trazado 23921" d="M337.884,286.048H323.771a.814.814,0,1,1,0-1.608h14.114a.814.814,0,1,1,0,1.608Z" transform="translate(-322.83 -284.44)" fill="#5e5e92"/>
          </g>
          <g id="Grupo_14286" data-name="Grupo 14286" transform="translate(18.101)">
            <path id="Trazado_23922" data-name="Trazado 23922" d="M356.234,286.048h-4.658a.814.814,0,1,1,0-1.608h4.658a.814.814,0,1,1,0,1.608Z" transform="translate(-350.636 -284.44)" fill="#5e5e92"/>
          </g>
        </g>
        <g id="Grupo_14292" data-name="Grupo 14292" transform="translate(23.665 54.091)">
          <g id="Grupo_14288" data-name="Grupo 14288">
            <path id="Trazado_23923" data-name="Trazado 23923" d="M337.626,309.593H323.513a.814.814,0,1,1,0-1.608h14.114a.814.814,0,1,1,0,1.608Z" transform="translate(-322.572 -307.985)" fill="#5e5e92"/>
          </g>
          <g id="Grupo_14289" data-name="Grupo 14289" transform="translate(18.101)">
            <path id="Trazado_23924" data-name="Trazado 23924" d="M355.976,309.593h-4.657a.814.814,0,1,1,0-1.608h4.657a.814.814,0,1,1,0,1.608Z" transform="translate(-350.378 -307.985)" fill="#5e5e92"/>
          </g>
          <g id="Grupo_14290" data-name="Grupo 14290" transform="translate(8.644 2.935)">
            <path id="Trazado_23925" data-name="Trazado 23925" d="M336.792,314.1h14.114a.814.814,0,1,0,0-1.607H336.792a.814.814,0,1,0,0,1.607Z" transform="translate(-335.851 -312.493)" fill="#5e5e92"/>
          </g>
          <g id="Grupo_14291" data-name="Grupo 14291" transform="translate(0 2.935)">
            <path id="Trazado_23926" data-name="Trazado 23926" d="M323.513,314.1h4.658a.814.814,0,1,0,0-1.607h-4.658a.814.814,0,1,0,0,1.607Z" transform="translate(-322.572 -312.493)" fill="#5e5e92"/>
          </g>
        </g>
        <g id="Grupo_14296" data-name="Grupo 14296" transform="translate(24.001 72.185)">
          <g id="Grupo_14293" data-name="Grupo 14293" transform="translate(8.645)">
            <path id="Trazado_23927" data-name="Trazado 23927" d="M337.309,337.388h14.114a.814.814,0,1,0,0-1.607H337.309a.814.814,0,1,0,0,1.607Z" transform="translate(-336.368 -335.781)" fill="#5e5e92"/>
          </g>
          <g id="Grupo_14294" data-name="Grupo 14294" transform="translate(0 2.981)">
            <path id="Trazado_23928" data-name="Trazado 23928" d="M324.029,341.969h14.114a.814.814,0,1,0,0-1.608H324.029a.814.814,0,1,0,0,1.608Z" transform="translate(-323.088 -340.361)" fill="#5e5e92"/>
          </g>
          <g id="Grupo_14295" data-name="Grupo 14295">
            <path id="Trazado_23929" data-name="Trazado 23929" d="M324.029,337.388h4.658a.814.814,0,1,0,0-1.607h-4.658a.814.814,0,1,0,0,1.607Z" transform="translate(-323.088 -335.781)" fill="#5e5e92"/>
          </g>
        </g>
      </g>
      <g id="Grupo_14298" data-name="Grupo 14298" transform="translate(123.938 40.99)">
        <path id="Trazado_23930" data-name="Trazado 23930" d="M311.827,228.55c-.218,2.973-3.14,5.152-6.528,4.866s-5.957-2.928-5.739-5.9,3.141-5.151,6.528-4.865S312.045,225.578,311.827,228.55Z" transform="translate(-299.547 -222.624)" fill="#f9b9aa"/>
      </g>
    </g>
    <g id="Grupo_14347" data-name="Grupo 14347" transform="translate(1082.675 1997.859)">
      <path id="Trazado_23931" data-name="Trazado 23931" d="M601.209,663.344H529a6.282,6.282,0,0,1,0-12.564h72.206a6.282,6.282,0,0,1,0,12.564Z" transform="translate(-440.179 -331.78)" fill="#2c224f" opacity="0.32"/>
      <path id="Trazado_23932" data-name="Trazado 23932" d="M647.074,289.161a112.27,112.27,0,0,0-3.338-16.376c-4.554-15.886-11.563-25.9-15.807-29.248-4.4-3.479-26.023-11.723-13.679,2.4a12.108,12.108,0,0,1-.449,2.918c-2.576,9.175.59,18,4.379,26.43,1.845,4.106,3.836,8.119,5.387,12.031,1.053,2.655,2,5.4,2.843,8.208a93.818,93.818,0,0,1,2.46,10.078c4.065,18.649,2.712,38.5-3.257,57.226-1.821,5.711,8.473,9.272,10.575,3.7C647.989,335.245,649.689,309.207,647.074,289.161Z" transform="translate(-470.812 -187.696)" fill="#383872"/>
      <path id="Trazado_23933" data-name="Trazado 23933" d="M539.582,647.59,560,640.917c1.006-.329,2.23.051,2.43.756l3.2,11.208c.186.652-.607,1.253-1.657,1.253H542.1C536.354,654.133,534.477,649.258,539.582,647.59Z" transform="translate(-445.026 -328.296)" fill="#622668"/>
      <path id="Trazado_23934" data-name="Trazado 23934" d="M555.286,420.9a522.73,522.73,0,0,0-2.944,71.766c.469,18.445,1.887,36.506,4.442,51.739.474,2.826.982,5.565,1.536,8.179,4.887,23.07-14.308,20.667-16.2,10.529q-1.419-7.62-2.7-15.295c-3.135-18.672-5.691-37.394-7.687-55.153-3.091-27.507-4.6-58.085-5.17-77.169Z" transform="translate(-441.523 -249.66)" fill="#32b1dc"/>
      <path id="Trazado_23935" data-name="Trazado 23935" d="M595.649,647.59l20.423-6.674c1.006-.329,2.229.051,2.43.756l3.2,11.208c.186.652-.608,1.253-1.657,1.253H598.169C592.421,654.133,590.544,649.258,595.649,647.59Z" transform="translate(-464.595 -328.296)" fill="#622668"/>
      <path id="Trazado_23936" data-name="Trazado 23936" d="M611.218,423.8a522.624,522.624,0,0,0-2.944,71.766c.469,18.445,1.887,36.506,4.442,51.739.474,2.826.982,5.565,1.536,8.179,4.888,23.07-14.308,20.667-16.2,10.529q-1.419-7.62-2.7-15.295c-3.135-18.672-5.691-37.394-7.687-55.153-3.09-27.507-4.854-52.682-5.421-71.766Z" transform="translate(-460.957 -252.557)" fill="#32b1dc"/>
      <g id="Grupo_14301" data-name="Grupo 14301" transform="translate(78.321 45.292)">
        <g id="Grupo_14300" data-name="Grupo 14300">
          <path id="Trazado_23937" data-name="Trazado 23937" d="M530.73,236.652a71.913,71.913,0,0,0-9.484,4.606,32.03,32.03,0,0,0-2.792,2.077c-5.861,4.535,2.029,40.447-.414,104.953-.25,6.6,5.3,12.237,12.432,12.423.091,0,.178,0,.258,0,.142,0,.272,0,.376,0l5,.115.595-126.384C534.7,235.108,532.675,235.857,530.73,236.652Z" transform="translate(-516.236 -231.759)" fill="#383872"/>
          <path id="Trazado_23938" data-name="Trazado 23938" d="M582.733,231.918c-10.735-1.956-21.923-1.9-27.386-.991a55.711,55.711,0,0,0-7.993,2.079L546.76,359.39c12.676.292,22.44.514,33.506.767Z" transform="translate(-526.89 -230.318)" fill="#fff"/>
          <path id="Trazado_23939" data-name="Trazado 23939" d="M617.811,238.486a41.825,41.825,0,0,0-8.166-3.515,71.258,71.258,0,0,0-8.946-2.194l-2.467,128.24,8.073.186,10.347.238q.923-3.107,1.831-6.218a43.2,43.2,0,0,0,1.624-10.964c.384-14.035,2.544-28.042,5.258-42.031,1.753-9.037,4.654-42.238,5.268-51.1C630.632,251.127,629.518,245.272,617.811,238.486Z" transform="translate(-544.855 -231.176)" fill="#383872"/>
        </g>
      </g>
      <g id="Grupo_14302" data-name="Grupo 14302" transform="translate(152.711 172.398)">
        <path id="Trazado_23940" data-name="Trazado 23940" d="M642.818,435.293c-.389,5.066-3.45,8.935-6.837,8.642s-5.817-4.638-5.427-9.7,3.451-8.935,6.837-8.642S643.208,430.227,642.818,435.293Z" transform="translate(-630.513 -425.574)" fill="#ffa58c"/>
      </g>
      <path id="Trazado_23941" data-name="Trazado 23941" d="M571.808,230.079a8.01,8.01,0,0,1,1.216.152c2.935.6,7.719,3.263,5.939,6.328a83.619,83.619,0,0,1-4.941,7.787,2.76,2.76,0,0,1-4.429,0,83.659,83.659,0,0,1-4.942-7.787c-1.779-3.065,3-5.731,5.94-6.328A8.011,8.011,0,0,1,571.808,230.079Z" transform="translate(-454.679 -184.943)" fill="#ffa58c"/>
      <g id="Grupo_14305" data-name="Grupo 14305" transform="translate(106.413 56.621)">
        <g id="Grupo_14303" data-name="Grupo 14303" transform="translate(0 2.991)">
          <path id="Trazado_23942" data-name="Trazado 23942" d="M570.3,318.317a2.583,2.583,0,0,1-3.651-1.184,101.384,101.384,0,0,1-5.507-14.177,45.463,45.463,0,0,1-1.716-9.281,18.339,18.339,0,0,1,.363-5.121,15.961,15.961,0,0,1,1.979-4.744c1.71-2.794,3.768-4.905,5.363-7.178a20.724,20.724,0,0,0,3.352-7.53c1.28-5.5.01-11.458-2.27-16.785a36.02,36.02,0,0,1,3.494,8.075,23.92,23.92,0,0,1,.842,9.027,23.549,23.549,0,0,1-2.768,8.9c-1.487,2.729-3.27,5.108-4.345,7.508a11.063,11.063,0,0,0-.809,7.177,39.72,39.72,0,0,0,2.437,7.727,93.866,93.866,0,0,0,6.654,12.4,2.748,2.748,0,0,1-.98,3.8Z" transform="translate(-559.391 -252.316)" fill="#fc425d"/>
        </g>
        <g id="Grupo_14304" data-name="Grupo 14304" transform="translate(7.651)">
          <path id="Trazado_23943" data-name="Trazado 23943" d="M575.437,247.934l-2.653-.21c-1.3-.1-2.131,2.125-1.316,3.531l1.176,2.025a1.174,1.174,0,0,0,2.065.163l1.477-1.816C577.211,250.367,576.738,248.037,575.437,247.934Z" transform="translate(-571.144 -247.721)" fill="#fc425d"/>
        </g>
      </g>
      <path id="Trazado_23944" data-name="Trazado 23944" d="M491.249,252.164c-2.056,4.992-3.75,9.906-6,16.059-.531,1.45-1.091,2.969-1.694,4.574-1.256-1.6-2.536-3.184-3.826-4.751-4.573-5.555-9.2-10.955-12.821-16.483a31.2,31.2,0,0,0-4.244-5.233c.009-.1.012-.2.019-.307l-10.721,2a21.7,21.7,0,0,0,1.256,4.7c1.517,4.047,5.585,14.487,10.514,24.853,4.83,10.157,10.489,20.242,15.392,24.172a5.2,5.2,0,0,0,5.5.575,23.612,23.612,0,0,0,12.012-12.79c2.079-4.115,3.377-9.019,4.864-13,.293-.785.577-1.575.865-2.362,2.064-5.646,4.027-11.341,6.316-16.9C513.122,246.487,495.651,241.475,491.249,252.164Z" transform="translate(-415.482 -190.508)" fill="#383872"/>
      <g id="Grupo_14314" data-name="Grupo 14314" transform="translate(104.71 0)">
        <path id="Trazado_23945" data-name="Trazado 23945" d="M557.971,166.435l-.626,6.2c-.932,9.237,3.844,17.348,10.615,18.026s13.073-6.324,14.006-15.56l.626-6.2c0-.046,0-.091.008-.138-6.658-5.04-14.856-7.017-23.268-8.021A22,22,0,0,0,557.971,166.435Z" transform="translate(-556.933 -160.742)" fill="#383872"/>
        <g id="Grupo_14307" data-name="Grupo 14307" transform="translate(18.603 19.522)">
          <g id="Grupo_14306" data-name="Grupo 14306">
            <path id="Trazado_23946" data-name="Trazado 23946" d="M588.177,190.731c1.553-.019,2.8,1.584,2.8,3.58s-1.272,3.628-2.825,3.646-2.8-1.585-2.8-3.58S586.625,190.749,588.177,190.731Z" transform="translate(-585.352 -190.731)" fill="#ffa58c"/>
          </g>
        </g>
        <g id="Grupo_14309" data-name="Grupo 14309" transform="translate(0 18.174)">
          <g id="Grupo_14308" data-name="Grupo 14308">
            <path id="Trazado_23947" data-name="Trazado 23947" d="M559.6,188.66c1.553-.018,2.8,1.585,2.8,3.58s-1.272,3.628-2.825,3.646-2.8-1.585-2.8-3.58S558.048,188.678,559.6,188.66Z" transform="translate(-556.775 -188.66)" fill="#ffa58c"/>
          </g>
        </g>
        <g id="Grupo_14311" data-name="Grupo 14311" transform="translate(3.166 7.355)">
          <g id="Grupo_14310" data-name="Grupo 14310">
            <path id="Trazado_23948" data-name="Trazado 23948" d="M565.217,172.041a13.275,13.275,0,0,0-3.541,9.2l-.036,9.436c-.025,6.447,4.058,11.673,9.073,11.615s9.139-5.381,9.164-11.827l.035-9.125Z" transform="translate(-561.639 -172.041)" fill="#ffa58c"/>
          </g>
        </g>
        <g id="Grupo_14313" data-name="Grupo 14313" transform="translate(5.778 24.158)">
          <g id="Grupo_14312" data-name="Grupo 14312">
            <path id="Trazado_23949" data-name="Trazado 23949" d="M576.287,224.039l-8.517.094a2.093,2.093,0,0,1-2.12-2.1l.1-21.935a2.174,2.174,0,0,1,2.138-2.149l8.516-.1a2.094,2.094,0,0,1,2.12,2.1l-.1,21.934A2.175,2.175,0,0,1,576.287,224.039Z" transform="translate(-565.651 -197.853)" fill="#ffa58c"/>
          </g>
        </g>
      </g>
      <g id="Grupo_14345" data-name="Grupo 14345" transform="translate(3.768 41.76)">
        <path id="Trazado_23950" data-name="Trazado 23950" d="M455.364,230.132h-51.3a2.529,2.529,0,0,0-2.354,2.674V317.2a2.268,2.268,0,0,0,2.354,2.17h51.3a2.268,2.268,0,0,0,2.354-2.17V232.806A2.529,2.529,0,0,0,455.364,230.132Z" transform="translate(-401.71 -226.721)" fill="#5e5e92"/>
        <path id="Trazado_23951" data-name="Trazado 23951" d="M454.328,233.413H408.465a2.271,2.271,0,0,0-2.1,2.407v76a2.033,2.033,0,0,0,2.1,1.954h45.863a2.033,2.033,0,0,0,2.1-1.954v-76A2.271,2.271,0,0,0,454.328,233.413Z" transform="translate(-403.333 -227.866)" fill="#fff"/>
        <rect id="Rectángulo_3844" data-name="Rectángulo 3844" width="6.701" height="15.466" rx="3.35" transform="translate(36.721 0) rotate(90)" fill="#383872"/>
        <g id="Grupo_14320" data-name="Grupo 14320" transform="translate(24.002 19.081)">
          <g id="Grupo_14315" data-name="Grupo 14315">
            <path id="Trazado_23952" data-name="Trazado 23952" d="M453.635,255.812H439.522a.814.814,0,1,1,0-1.608h14.114a.814.814,0,1,1,0,1.608Z" transform="translate(-438.581 -254.204)" fill="#5e5e92"/>
          </g>
          <g id="Grupo_14316" data-name="Grupo 14316" transform="translate(18.101)">
            <path id="Trazado_23953" data-name="Trazado 23953" d="M471.985,255.812h-4.658a.814.814,0,1,1,0-1.608h4.658a.814.814,0,1,1,0,1.608Z" transform="translate(-466.387 -254.204)" fill="#5e5e92"/>
          </g>
          <g id="Grupo_14317" data-name="Grupo 14317" transform="translate(8.644 2.934)">
            <path id="Trazado_23954" data-name="Trazado 23954" d="M452.8,260.319h14.114a.814.814,0,1,0,0-1.608H452.8a.814.814,0,1,0,0,1.608Z" transform="translate(-451.86 -258.711)" fill="#5e5e92"/>
          </g>
          <g id="Grupo_14318" data-name="Grupo 14318" transform="translate(0 5.915)">
            <path id="Trazado_23955" data-name="Trazado 23955" d="M439.522,264.9h14.114a.814.814,0,1,0,0-1.608H439.522a.814.814,0,1,0,0,1.608Z" transform="translate(-438.581 -263.291)" fill="#5e5e92"/>
          </g>
          <g id="Grupo_14319" data-name="Grupo 14319" transform="translate(0 2.934)">
            <path id="Trazado_23956" data-name="Trazado 23956" d="M439.522,260.319h4.658a.814.814,0,1,0,0-1.608h-4.658a.814.814,0,1,0,0,1.608Z" transform="translate(-438.581 -258.711)" fill="#5e5e92"/>
          </g>
        </g>
        <g id="Grupo_14323" data-name="Grupo 14323" transform="translate(6.689 15.6)">
          <g id="Grupo_14321" data-name="Grupo 14321">
            <path id="Trazado_23957" data-name="Trazado 23957" d="M422.38,262.239h-7.358a3.041,3.041,0,0,1-3.037-3.038V251.9a3.041,3.041,0,0,1,3.037-3.038h7.358a3.041,3.041,0,0,1,3.038,3.038V259.2A3.041,3.041,0,0,1,422.38,262.239Zm-7.358-12.731a2.389,2.389,0,0,0-2.386,2.387V259.2a2.389,2.389,0,0,0,2.386,2.387h7.358a2.389,2.389,0,0,0,2.387-2.387V251.9a2.389,2.389,0,0,0-2.387-2.387Z" transform="translate(-411.985 -248.857)" fill="#5e5e92"/>
          </g>
          <g id="Grupo_14322" data-name="Grupo 14322" transform="translate(2.118 1.609)">
            <path id="Trazado_23958" data-name="Trazado 23958" d="M419.133,262.337l-3.669-5.374a1.3,1.3,0,1,1,2.151-1.468l1.454,2.13,3.668-5.7a1.3,1.3,0,0,1,2.189,1.409Z" transform="translate(-415.238 -251.329)" fill="#fc425d"/>
          </g>
        </g>
        <g id="Grupo_14326" data-name="Grupo 14326" transform="translate(6.672 33.132)">
          <g id="Grupo_14324" data-name="Grupo 14324">
            <path id="Trazado_23959" data-name="Trazado 23959" d="M422.354,289.171H415a3.041,3.041,0,0,1-3.037-3.038v-7.306A3.041,3.041,0,0,1,415,275.789h7.359a3.041,3.041,0,0,1,3.037,3.038v7.306A3.042,3.042,0,0,1,422.354,289.171ZM415,276.44a2.39,2.39,0,0,0-2.386,2.387v7.306A2.39,2.39,0,0,0,415,288.52h7.358a2.39,2.39,0,0,0,2.387-2.387v-7.306a2.39,2.39,0,0,0-2.386-2.387Z" transform="translate(-411.959 -275.789)" fill="#5e5e92"/>
          </g>
          <g id="Grupo_14325" data-name="Grupo 14325" transform="translate(2.118 1.609)">
            <path id="Trazado_23960" data-name="Trazado 23960" d="M419.107,289.268l-3.669-5.374a1.3,1.3,0,1,1,2.151-1.468l1.454,2.13,3.668-5.7a1.3,1.3,0,0,1,2.189,1.409Z" transform="translate(-415.212 -278.261)" fill="#fc425d"/>
          </g>
        </g>
        <g id="Grupo_14329" data-name="Grupo 14329" transform="translate(6.84 49.884)">
          <g id="Grupo_14327" data-name="Grupo 14327">
            <path id="Trazado_23961" data-name="Trazado 23961" d="M422.613,314.9h-7.358a3.041,3.041,0,0,1-3.038-3.037v-7.306a3.041,3.041,0,0,1,3.038-3.037h7.358a3.041,3.041,0,0,1,3.038,3.037v7.306A3.041,3.041,0,0,1,422.613,314.9Zm-7.358-12.73a2.39,2.39,0,0,0-2.387,2.386v7.306a2.39,2.39,0,0,0,2.387,2.386h7.358A2.39,2.39,0,0,0,425,311.866v-7.306a2.39,2.39,0,0,0-2.387-2.386Z" transform="translate(-412.217 -301.522)" fill="#5e5e92"/>
          </g>
          <g id="Grupo_14328" data-name="Grupo 14328" transform="translate(2.118 1.609)">
            <path id="Trazado_23962" data-name="Trazado 23962" d="M419.365,315l-3.668-5.375a1.3,1.3,0,0,1,2.151-1.468l1.454,2.131,3.668-5.7a1.3,1.3,0,0,1,2.19,1.409Z" transform="translate(-415.471 -303.994)" fill="#fc425d"/>
          </g>
        </g>
        <g id="Grupo_14332" data-name="Grupo 14332" transform="translate(7.008 67.221)">
          <g id="Grupo_14330" data-name="Grupo 14330">
            <path id="Trazado_23963" data-name="Trazado 23963" d="M422.872,341.537h-7.359a3.041,3.041,0,0,1-3.037-3.038v-7.306a3.041,3.041,0,0,1,3.037-3.037h7.359a3.041,3.041,0,0,1,3.037,3.037V338.5A3.041,3.041,0,0,1,422.872,341.537Zm-7.359-12.731a2.389,2.389,0,0,0-2.386,2.386V338.5a2.389,2.389,0,0,0,2.386,2.387h7.359a2.39,2.39,0,0,0,2.386-2.387v-7.306a2.39,2.39,0,0,0-2.386-2.386Z" transform="translate(-412.476 -328.155)" fill="#5e5e92"/>
          </g>
          <g id="Grupo_14331" data-name="Grupo 14331" transform="translate(2.443 1.935)">
            <path id="Trazado_23964" data-name="Trazado 23964" d="M419.79,341.221l-3.391-4.969a.977.977,0,0,1,1.614-1.1l1.73,2.536,3.932-6.111a.977.977,0,0,1,1.643,1.057Z" transform="translate(-416.229 -331.128)" fill="#fc425d"/>
          </g>
        </g>
        <g id="Grupo_14335" data-name="Grupo 14335" transform="translate(23.833 38.764)">
          <g id="Grupo_14333" data-name="Grupo 14333">
            <path id="Trazado_23965" data-name="Trazado 23965" d="M453.376,286.048H439.263a.814.814,0,1,1,0-1.608h14.113a.814.814,0,1,1,0,1.608Z" transform="translate(-438.322 -284.44)" fill="#5e5e92"/>
          </g>
          <g id="Grupo_14334" data-name="Grupo 14334" transform="translate(18.101)">
            <path id="Trazado_23966" data-name="Trazado 23966" d="M471.726,286.048h-4.657a.814.814,0,1,1,0-1.608h4.657a.814.814,0,1,1,0,1.608Z" transform="translate(-466.128 -284.44)" fill="#5e5e92"/>
          </g>
        </g>
        <g id="Grupo_14340" data-name="Grupo 14340" transform="translate(23.665 54.091)">
          <g id="Grupo_14336" data-name="Grupo 14336">
            <path id="Trazado_23967" data-name="Trazado 23967" d="M453.118,309.593H439a.814.814,0,1,1,0-1.608h14.114a.814.814,0,1,1,0,1.608Z" transform="translate(-438.064 -307.985)" fill="#5e5e92"/>
          </g>
          <g id="Grupo_14337" data-name="Grupo 14337" transform="translate(18.101)">
            <path id="Trazado_23968" data-name="Trazado 23968" d="M471.468,309.593h-4.658a.814.814,0,1,1,0-1.608h4.658a.814.814,0,1,1,0,1.608Z" transform="translate(-465.87 -307.985)" fill="#5e5e92"/>
          </g>
          <g id="Grupo_14338" data-name="Grupo 14338" transform="translate(8.645 2.935)">
            <path id="Trazado_23969" data-name="Trazado 23969" d="M452.285,314.1H466.4a.814.814,0,1,0,0-1.607H452.285a.814.814,0,1,0,0,1.607Z" transform="translate(-451.344 -312.493)" fill="#5e5e92"/>
          </g>
          <g id="Grupo_14339" data-name="Grupo 14339" transform="translate(0 2.935)">
            <path id="Trazado_23970" data-name="Trazado 23970" d="M439,314.1h4.658a.814.814,0,1,0,0-1.607H439a.814.814,0,1,0,0,1.607Z" transform="translate(-438.064 -312.493)" fill="#5e5e92"/>
          </g>
        </g>
        <g id="Grupo_14344" data-name="Grupo 14344" transform="translate(24.002 72.185)">
          <g id="Grupo_14341" data-name="Grupo 14341" transform="translate(8.644)">
            <path id="Trazado_23971" data-name="Trazado 23971" d="M452.8,337.388h14.114a.814.814,0,1,0,0-1.607H452.8a.814.814,0,1,0,0,1.607Z" transform="translate(-451.86 -335.781)" fill="#5e5e92"/>
          </g>
          <g id="Grupo_14342" data-name="Grupo 14342" transform="translate(0 2.981)">
            <path id="Trazado_23972" data-name="Trazado 23972" d="M439.522,341.969h14.114a.814.814,0,1,0,0-1.608H439.522a.814.814,0,1,0,0,1.608Z" transform="translate(-438.581 -340.361)" fill="#5e5e92"/>
          </g>
          <g id="Grupo_14343" data-name="Grupo 14343">
            <path id="Trazado_23973" data-name="Trazado 23973" d="M439.522,337.388h4.658a.814.814,0,1,0,0-1.607h-4.658a.814.814,0,1,0,0,1.607Z" transform="translate(-438.581 -335.781)" fill="#5e5e92"/>
          </g>
        </g>
      </g>
      <g id="Grupo_14346" data-name="Grupo 14346" transform="translate(0 49.539)">
        <path id="Trazado_23974" data-name="Trazado 23974" d="M408.2,242.768c-.218,2.973-3.141,5.151-6.529,4.865s-5.956-2.927-5.738-5.9,3.141-5.152,6.528-4.865S408.42,239.795,408.2,242.768Z" transform="translate(-395.922 -236.842)" fill="#ffa58c"/>
      </g>
    </g>
  </g>
</svg>
