<svg xmlns="http://www.w3.org/2000/svg" width="189.848" height="424.001" viewBox="0 0 189.848 424.001">
  <g id="Grupo_14253" data-name="Grupo 14253" transform="translate(-510 -1128.515)">
    <g id="Grupo_14252" data-name="Grupo 14252" transform="translate(332.059 1058.004)">
      <ellipse id="Elipse_921" data-name="Elipse 921" cx="70.085" cy="14.14" rx="70.085" ry="14.14" transform="translate(200.666 466.232)" fill="#bfc4c4"/>
      <g id="Grupo_14251" data-name="Grupo 14251" transform="translate(177.941 70.51)">
        <path id="Trazado_23834" data-name="Trazado 23834" d="M211.361,264.572l1.3,15.631L205.5,349.889l12.374,61.871s-12.374,13.677-9.769,16.933,17.584-15.631,17.584-15.631l-1.954-61.22,20.841-57.312,28.656,56.01,27.354,60.569s3.908,13.677,10.42,14.328S305.8,408.5,305.8,408.5l-15.631-63.825-25.4-91.179S232.2,267.177,211.361,264.572Z" transform="translate(-169.604 -15.146)" fill="#393762"/>
        <path id="Trazado_23835" data-name="Trazado 23835" d="M263.4,253.5s-32.564,13.677-53.4,11.072l.307,3.685c5.373,2.445,19.218,8.007,29,5.433,9.067-2.386,20.225-10.711,25.544-14.994Z" transform="translate(-168.242 -15.146)" fill="#1d1d1d"/>
        <path id="Trazado_23836" data-name="Trazado 23836" d="M226.938,266.54l1.44,4.73,8.432-1.44-1.028-4.525Z" transform="translate(-163.118 -11.574)" fill="#bfbfc0"/>
        <path id="Trazado_23837" data-name="Trazado 23837" d="M244.53,266.648l-1.645-6.787,1.44-1.028,2.674,7.2" transform="translate(-158.293 -13.533)" fill="#393762"/>
        <path id="Trazado_23838" data-name="Trazado 23838" d="M214.655,268.586l-.823-5.964,2.262.411.823,6.581" transform="translate(-167.083 -12.386)" fill="#393762"/>
        <path id="Trazado_23839" data-name="Trazado 23839" d="M241.5,192.6l32.879,16.729a4.385,4.385,0,0,0,6.046-2.248L296.207,168.5l9.118,2.605-14.979,52.1a8.929,8.929,0,0,1-11.485,6.47L245.408,221.9Z" transform="translate(-158.712 -40.863)" fill="#f6ba99"/>
        <path id="Trazado_23840" data-name="Trazado 23840" d="M275.249,204.06a4.327,4.327,0,0,1-.87-.332L241.5,187l3.908,29.307,26.343,6.121Z" transform="translate(-158.712 -35.266)" fill="#b57053"/>
        <path id="Trazado_23841" data-name="Trazado 23841" d="M217.748,190.256,193,204.584l22.143,80.107s15.631,7.815,28.656,5.21,24.749-16.282,24.749-16.282L256.174,187l-30.61,1.3Z" transform="translate(-173.385 -35.266)" fill="#b57053"/>
        <path id="Trazado_23842" data-name="Trazado 23842" d="M205.389,174.165s-5.667-6.1-6.539-1.744,5.231,7.847,7.41,8.283S205.389,174.165,205.389,174.165Z" transform="translate(-171.641 -40.152)" fill="#f6ba99"/>
        <path id="Trazado_23843" data-name="Trazado 23843" d="M223.765,173.393s1.158-8.248,4.366-5.171.2,9.429-1.342,11.034S223.765,173.393,223.765,173.393Z" transform="translate(-164.077 -41.155)" fill="#f6ba99"/>
        <path id="Trazado_23844" data-name="Trazado 23844" d="M208.466,183.734l2.708,14.935,4.429,3.361a9.153,9.153,0,0,0,13.427-2.664l2.2-3.749-3.547-14.982Z" transform="translate(-168.706 -37.192)" fill="#f2957e"/>
        <path id="Trazado_23845" data-name="Trazado 23845" d="M214.849,153.667s-6.233-1.3-11.211,6.526c-3.987,6.265.693,24.393,2.716,31.364a6.419,6.419,0,0,0,3.4,4l8.584,4.106a6.442,6.442,0,0,0,8.256-2.42l4.885-7.891a6.437,6.437,0,0,0,.851-4.6l-4.061-21.324a12.023,12.023,0,0,0-10.337-9.746A13.689,13.689,0,0,0,214.849,153.667Z" transform="translate(-170.639 -45.376)" fill="#f6ba99"/>
        <path id="Trazado_23846" data-name="Trazado 23846" d="M216.9,180.56c.257,1.059-.009,2.031-.591,2.171s-1.262-.6-1.517-1.662.009-2.032.591-2.173S216.642,179.5,216.9,180.56Z" transform="translate(-166.823 -37.723)" fill="#393762"/>
        <path id="Trazado_23847" data-name="Trazado 23847" d="M205.78,180.585a2.178,2.178,0,0,0,1.744-2.616c-.436-2.18-2.18-5.667-1.308-10.027s6.1-6.975,6.1-6.975.871,1.744,6.539,3.923a28.374,28.374,0,0,0,9.156,2.18s0,5.666,1.308,7.41,3.487,4.8,3.923,1.744-1.744-12.643-1.744-12.643,3.052,0,1.308-5.667-12.643-8.283-20.489-8.283-17,12.206-14.385,17a39.018,39.018,0,0,1,3.487,8.283S204.472,181.456,205.78,180.585Z" transform="translate(-172.031 -46.572)" fill="#393762"/>
        <g id="Grupo_14249" data-name="Grupo 14249" transform="translate(50.375)">
          <path id="Trazado_23848" data-name="Trazado 23848" d="M239.948,204.608l2.027-7.905c10.433-40.7,62.414-29.244,69.844-58.228,3.228-12.59-4.92-23.415-20.143-27.317-16.69-4.279-29.555,2.1-32.858,14.978l-.825,3.22c-.826,3.221-2.959,4.235-6.179,3.409l-31.028-9.2c-2.927-.75-4.6-2.739-4.074-4.788l.826-3.221c9.081-35.426,43.415-52.521,84.7-41.938,40.405,10.358,60.608,39.875,51.827,74.128-12.459,48.6-64.941,35.459-71.771,62.1l-1.352,5.27c-.826,3.221-3.034,4.525-6.254,3.7l-31.035-7.955C240.431,210.034,239.122,207.828,239.948,204.608ZM225.23,251.068c3.3-12.881,17.423-20.5,31.183-16.968,13.177,3.378,22.185,16.921,18.883,29.8s-17.716,20.421-31.183,16.968C230.352,277.343,221.928,263.952,225.23,251.068Z" transform="translate(-216.615 -70.51)" fill="#c2defa"/>
        </g>
        <g id="Grupo_14250" data-name="Grupo 14250" transform="translate(50.375 3.973)">
          <path id="Trazado_23849" data-name="Trazado 23849" d="M239.948,207.658l2.027-7.905c10.433-40.7,62.414-29.244,69.844-58.228,3.228-12.59-4.92-23.415-20.143-27.317-16.69-4.279-29.555,2.1-32.858,14.978l-.825,3.22c-.826,3.221-2.959,4.235-6.179,3.409l-31.028-9.2c-2.927-.75-4.6-2.739-4.074-4.788l.826-3.221c9.081-35.426,43.415-52.522,84.7-41.938,40.405,10.358,60.608,39.875,51.827,74.128-12.459,48.6-64.941,35.459-71.771,62.1l-1.352,5.27c-.826,3.221-3.034,4.525-6.254,3.7l-31.035-7.956C240.431,213.084,239.122,210.878,239.948,207.658ZM225.23,254.118c3.3-12.881,17.423-20.5,31.183-16.968,13.177,3.378,22.185,16.921,18.883,29.8s-17.716,20.421-31.183,16.968C230.352,280.393,221.928,267,225.23,254.118Z" transform="translate(-216.615 -73.56)" fill="#7eb9f5"/>
        </g>
        <path id="Trazado_23850" data-name="Trazado 23850" d="M292.618,177.459l11.072-11.072,2.605-18.887s-1.3,0-5.21,2.605-7.815,12.374-7.815,12.374-5.861,5.21-7.815,7.164a8.258,8.258,0,0,0-1.954,5.21Z" transform="translate(-146.005 -47.217)" fill="#f6ba99"/>
        <path id="Trazado_23851" data-name="Trazado 23851" d="M222,228.059l18.236-4.559,11.072,1.954L250,228.71h-9.118l8.467,5.861,9.769,2.605-3.256,3.256-16.282,1.3-14.328-7.164Z" transform="translate(-164.611 -24.223)" fill="#f6ba99"/>
        <path id="Trazado_23852" data-name="Trazado 23852" d="M197.556,200.5l-19.247,47.29a4.864,4.864,0,0,0,5.617,6.569l55.285-12.667-3.882-6.674-32.564.651,2.605-7.815Z" transform="translate(-177.941 -31.182)" fill="#f6ba99"/>
        <path id="Trazado_23853" data-name="Trazado 23853" d="M201.082,235.669l2.605-7.815L195.872,200.5l-12.364,30.378C194.912,229.53,201.082,235.669,201.082,235.669Z" transform="translate(-176.257 -31.182)" fill="#b57053"/>
        <ellipse id="Elipse_922" data-name="Elipse 922" cx="0.947" cy="1.722" rx="0.947" ry="1.722" transform="translate(40.162 131.323) rotate(-9.785)" fill="#393762"/>
        <path id="Trazado_23854" data-name="Trazado 23854" d="M218.41,171.422c.161.937-.125,1.769-.641,1.857s-1.064-.6-1.226-1.536.125-1.769.641-1.857S218.248,170.486,218.41,171.422Z" transform="translate(-166.276 -40.446)" fill="#393762"/>
        <path id="Trazado_23855" data-name="Trazado 23855" d="M207.4,168.64s.516-1.894,3.615-1.894" transform="translate(-169.028 -41.394)" fill="none" stroke="#393762" stroke-linecap="round" stroke-miterlimit="10" stroke-width="1"/>
        <path id="Trazado_23856" data-name="Trazado 23856" d="M215.259,168.856s1.411-2.926,3.823-2.006" transform="translate(-166.651 -41.416)" fill="none" stroke="#393762" stroke-linecap="round" stroke-miterlimit="10" stroke-width="1"/>
        <path id="Trazado_23857" data-name="Trazado 23857" d="M214.223,169.337l1.894,8.436-2.238.516" transform="translate(-167.068 -40.61)" fill="none" stroke="#393762" stroke-linecap="round" stroke-miterlimit="10" stroke-width="0.5"/>
        <path id="Trazado_23858" data-name="Trazado 23858" d="M225.168,376.3c-6.513,1.3-7.815-1.3-7.815-1.3s-12.374,13.677-9.769,16.933S225.168,376.3,225.168,376.3Z" transform="translate(-169.082 21.614)" fill="#b57053"/>
        <path id="Trazado_23859" data-name="Trazado 23859" d="M278.684,375.876c.937,2.889,4.6,13,10.181,13.557,6.513.651-5.21-16.933-5.21-16.933S282.485,374.811,278.684,375.876Z" transform="translate(-147.462 20.857)" fill="#b57053"/>
      </g>
    </g>
  </g>
</svg>
