<svg id="Grupo_14299" data-name="Grupo 14299" xmlns="http://www.w3.org/2000/svg" width="171.269" height="332.27" viewBox="0 0 171.269 332.27">
  <path id="Trazado_23888" data-name="Trazado 23888" d="M225.277,663.344H153.072a6.282,6.282,0,1,1,0-12.564h72.205a6.282,6.282,0,1,1,0,12.564Z" transform="translate(-122.292 -331.074)" fill="#2c224f" opacity="0.32"/>
  <g id="Grupo_14264" data-name="Grupo 14264" transform="translate(80.164 43.35)">
    <g id="Grupo_14261" data-name="Grupo 14261" transform="translate(0 22.044)">
      <g id="Grupo_14260" data-name="Grupo 14260">
        <path id="Trazado_23889" data-name="Trazado 23889" d="M248.577,286.116l-16.261-14.787c-.25-.98,3.147-2.835,7.4-10.2l.227-.187c.127-.055.283-.125.495-.221-.657.2,3.7-.111,4.881-.606,5.395,1.178,5.771,4.411,13.461,14.684C257.492,280.338,253.191,283.508,248.577,286.116Z" transform="translate(-232.303 -260.113)" fill="#32b1dc"/>
      </g>
    </g>
    <g id="Grupo_14263" data-name="Grupo 14263" transform="translate(16.274)">
      <g id="Grupo_14262" data-name="Grupo 14262">
        <path id="Trazado_23890" data-name="Trazado 23890" d="M309.2,232.283a6.759,6.759,0,0,0-.015-2.392,4.079,4.079,0,0,0-3.246-3.361,2.955,2.955,0,0,0-.456.029l.1-.185a9.319,9.319,0,0,1-1.022-.123c1.334.26.47.176-.232.129-.223.069-1.257.216-1.489.279-.2.053-.389.118-.583.179-.08.035-.171.074-.314.134-.592.323-1.2.6-1.776.952-.033.02-.068.034-.1.053a53.671,53.671,0,0,0-2.4,5.538,11.074,11.074,0,0,0-.879,4.679,4.518,4.518,0,0,0,2.308,3.672c-1.6,6.176-3.117,12.941-4.815,19.491l11.219,2.438A166.483,166.483,0,0,0,309.2,232.283Z" transform="translate(-270.207 -226.25)" fill="#ffb288"/>
        <path id="Trazado_23891" data-name="Trazado 23891" d="M281.372,280.179c-1.182,4.564-2.448,9.024-3.886,13.1a86.512,86.512,0,0,1-9.979-11.482c-1.289,5.541-5.59,8.711-10.2,11.319l19.881,18.6a4.642,4.642,0,0,0,7.675-2.263,188.1,188.1,0,0,0,7.732-26.843Z" transform="translate(-257.302 -245.073)" fill="#32b1dc"/>
      </g>
    </g>
  </g>
  <g id="Grupo_14265" data-name="Grupo 14265" transform="translate(0 0)">
    <path id="Trazado_23892" data-name="Trazado 23892" d="M145.865,171.341c-3.486,7.411.437,18.264-8.206,22.367-4.091,1.942-9.975,1.6-13.866,3.744-3.809,2.1-4.861,6.165-4.36,10.05s2.306,7.771,3.313,11.666a6.388,6.388,0,0,1,.135,3.806c-1.124,2.971-5.924,3.7-9.077,5.514-4.913,2.823-5.671,8.546-3.485,13.591s6.8,9.552,11.535,13.763c3.9,3.466,8.11,6.927,13.323,9.072,8.756,3.6,18.781,2.8,26.727.158,12.646-4.209,21.785-12.9,24.6-23.4,2.075-7.734.95-16.494,5.709-23.22,3-4.238,8.092-7.269,11.618-11.228,5.749-6.452,6.978-15.393,3.27-23.78-1.316-2.976-3.4-4.743-5.779-7.26-3.51-3.717-3.135-3.971-4.087-8.144-1.247-5.471-5.979-6.661-13.558-7.759C169.308,158.194,150.619,161.234,145.865,171.341Z" transform="translate(-109.157 -159.657)" fill="#622668"/>
  </g>
  <path id="Trazado_23893" data-name="Trazado 23893" d="M223.622,642.094a.8.8,0,0,1,.148-.217c1.7,9.062,8.407,7.717,11.872,2.655l8.442,2.972c4.571,1.525,2.89,5.982-2.256,5.982H222.242c-.939,0-1.65-.548-1.484-1.145Z" transform="translate(-148.101 -327.967)" fill="#fc425d"/>
  <g id="Grupo_14266" data-name="Grupo 14266" transform="translate(34.967 166.169)">
    <path id="Trazado_23894" data-name="Trazado 23894" d="M185.778,646.937l-10.729-3.74-.158.271c-1.441,2.444-8.892,6.143-9.342-1.808l-2.669,10.5a.719.719,0,0,0,.016.253,1.321,1.321,0,0,0,1.441.983h19.228a5.281,5.281,0,0,0,4.084-1.592C188.989,650.247,188.594,647.97,185.778,646.937Z" transform="translate(-162.872 -494.06)" fill="#fc425d"/>
    <path id="Trazado_23895" data-name="Trazado 23895" d="M227.334,495.08c2.757-26.748,5.157-56.674,5.8-80.043-13.037-.607-63.984,1.379-63.984,1.379,7.381,22.656,22.718,50.977,15.7,74.679-.34,1.148-.712,2.457-1.1,3.83l19.094.068c.016-.043.031-.084.046-.127h7.245v.153Z" transform="translate(-165.062 -414.922)" fill="#383872"/>
    <path id="Trazado_23896" data-name="Trazado 23896" d="M169.8,594.209l12.77-.134c.429-1.267.9-2.668,1.439-4.257,8.59-25.335,14.955-40.674,19.056-51.928l-19.094-.068C179.547,553.653,172.462,583.058,169.8,594.209Z" transform="translate(-165.292 -457.817)" fill="#f9b9aa"/>
    <path id="Trazado_23897" data-name="Trazado 23897" d="M176.315,637.387l.158-.271c1.676-2.894,2.493-5.157,5.106-12.88l-12.77.134c-.555,2.33-.92,3.874-1.023,4.314a24.98,24.98,0,0,0-.814,6.894C167.423,643.529,174.873,639.831,176.315,637.387Z" transform="translate(-164.296 -487.979)" fill="#f9b9aa"/>
    <path id="Trazado_23898" data-name="Trazado 23898" d="M230.425,537.965a550.464,550.464,0,0,1-3.134,56.676l13.208-.148c2.021-12,4.713-33.014,7.131-56.467Z" transform="translate(-185.356 -457.868)" fill="#f9b9aa"/>
    <path id="Trazado_23899" data-name="Trazado 23899" d="M225.63,633.709c-1.508,11.861,8.252,10.85,11.163,5.517.6-1.1,1.709-6.34,3.071-14.424l-13.208.148C226.333,627.87,226,630.792,225.63,633.709Z" transform="translate(-184.721 -488.176)" fill="#f9b9aa"/>
  </g>
  <path id="Trazado_23900" data-name="Trazado 23900" d="M168.061,258.35a6.408,6.408,0,0,0-1.2,1.909,11.622,11.622,0,0,0,1.682,11.227c4.367,6.043,9.9,18.847,10.727,30.784a39.23,39.23,0,0,1-.165,7.974,35.338,35.338,0,0,1-1.057,3.984c-3.08,9.168-9.688,17.015-11.7,26.474a28.88,28.88,0,0,0,.363,13.33,6.782,6.782,0,0,0,2,3.248,46.927,46.927,0,0,0,21.037,9.765l-1.214-122.561A58.482,58.482,0,0,0,168.061,258.35Z" transform="translate(-128.906 -189.264)" fill="#32b1dc"/>
  <path id="Trazado_23901" data-name="Trazado 23901" d="M200.912,243.2l-.158.055,1.214,122.561a48.027,48.027,0,0,0,6.787.783,53.061,53.061,0,0,0,19.948-3.48l1.182-116.16C219.206,238.853,208.2,240.473,200.912,243.2Z" transform="translate(-141.127 -188.041)" fill="#fff"/>
  <path id="Trazado_23902" data-name="Trazado 23902" d="M257.961,336.514c-.255-2.271-2.587-17.54-3.606-22.472-.262-1.265-.493-2.543-.7-3.826a81.516,81.516,0,0,1-2.251-16.707c-.031-1.626.013-3.254.055-4.881.184-7.117,3.843-26.767,3.843-26.767a44.934,44.934,0,0,0-10.428-11.687l-1.182,116.16a89.933,89.933,0,0,0,15.461-7.37C259.18,357.615,257.968,336.512,257.961,336.514Z" transform="translate(-156.113 -191.25)" fill="#32b1dc"/>
  <path id="Trazado_23903" data-name="Trazado 23903" d="M163.479,304.262c3.028-6.319,11.178-22.3,14.661-27.76,6.619-10.365-9.223-11.678-18.129-8.455L148.37,301.662,146,308.492l-.256.74c-.954,4.967-1.017,5.981-.86,6.568a5.09,5.09,0,0,0,.525,2.275c2.54,6.953,5.307,13.373,8.123,19.224l11.6-4.656c-.542-1.237-1.066-2.467-1.563-3.683-2.617-6.974-3.4-16.773-3.4-16.773.365-1.078.783-2.185,1.24-3.308C162.026,307.369,162.733,305.82,163.479,304.262Z" transform="translate(-121.605 -196.946)" fill="#32b1dc"/>
  <path id="Trazado_23904" data-name="Trazado 23904" d="M189.935,401.289a12.5,12.5,0,0,0-2.556-4.532,4.767,4.767,0,0,0-4.395-1.457c-4.175-8.666-9.214-18.156-13.175-27.188l-11.6,4.656a194.916,194.916,0,0,0,23.4,37.636,7.564,7.564,0,0,0,1.678,1.993,4.231,4.231,0,0,0,4.924.538,3.05,3.05,0,0,0,.343-.343l.053.222a9.538,9.538,0,0,1,.9-.614c-1.243.718-.5.182.094-.27.13-.214.851-1.062.991-1.277.12-.182.227-.372.339-.558.04-.086.085-.182.158-.333.246-.685.534-1.341.75-2.04.012-.04.032-.077.045-.117A60.859,60.859,0,0,0,189.935,401.289Z" transform="translate(-126.277 -232.414)" fill="#f9b9aa"/>
  <path id="Trazado_23905" data-name="Trazado 23905" d="M224.229,193.477l.01-2.785-14.258-9.019a12.879,12.879,0,0,0-3.436,8.924l-.007,1.6a2.12,2.12,0,0,0-.359-.03c-1.507.018-2.733,1.6-2.741,3.538s1.208,3.491,2.714,3.474a2.129,2.129,0,0,0,.36-.038l0,.61a12.529,12.529,0,0,0,3.427,8.963l-.042,11.719c-1.56,1.163-2.534,2.71-1.566,4.376a83.632,83.632,0,0,0,4.942,7.788,2.761,2.761,0,0,0,4.43,0,83.915,83.915,0,0,0,4.942-7.788c1.072-1.845-.238-3.546-2.088-4.738l.04-11.37a12.67,12.67,0,0,0,3.573-8.216h.033c1.506-.018,2.734-1.6,2.741-3.537S225.735,193.458,224.229,193.477Z" transform="translate(-142.064 -167.341)" fill="#f9b9aa"/>
  <g id="Grupo_14297" data-name="Grupo 14297" transform="translate(115.261 42.466)">
    <path id="Trazado_23906" data-name="Trazado 23906" d="M339.872,230.132h-51.3a2.529,2.529,0,0,0-2.353,2.674V317.2a2.267,2.267,0,0,0,2.353,2.17h51.3a2.268,2.268,0,0,0,2.354-2.17V232.806A2.529,2.529,0,0,0,339.872,230.132Z" transform="translate(-286.218 -226.721)" fill="#5e5e92"/>
    <path id="Trazado_23907" data-name="Trazado 23907" d="M338.835,233.413H292.973a2.272,2.272,0,0,0-2.1,2.407v76a2.034,2.034,0,0,0,2.1,1.954h45.863a2.034,2.034,0,0,0,2.1-1.954v-76A2.272,2.272,0,0,0,338.835,233.413Z" transform="translate(-287.841 -227.866)" fill="#fff"/>
    <rect id="Rectángulo_3843" data-name="Rectángulo 3843" width="6.701" height="15.466" rx="3.35" transform="translate(36.721 0) rotate(90)" fill="#383872"/>
    <g id="Grupo_14272" data-name="Grupo 14272" transform="translate(24.001 19.081)">
      <g id="Grupo_14267" data-name="Grupo 14267">
        <path id="Trazado_23908" data-name="Trazado 23908" d="M338.143,255.812H324.029a.814.814,0,1,1,0-1.608h14.114a.814.814,0,1,1,0,1.608Z" transform="translate(-323.088 -254.204)" fill="#5e5e92"/>
      </g>
      <g id="Grupo_14268" data-name="Grupo 14268" transform="translate(18.101)">
        <path id="Trazado_23909" data-name="Trazado 23909" d="M356.492,255.812h-4.657a.814.814,0,1,1,0-1.608h4.657a.814.814,0,1,1,0,1.608Z" transform="translate(-350.894 -254.204)" fill="#5e5e92"/>
      </g>
      <g id="Grupo_14269" data-name="Grupo 14269" transform="translate(8.645 2.934)">
        <path id="Trazado_23910" data-name="Trazado 23910" d="M337.309,260.319h14.114a.814.814,0,1,0,0-1.608H337.309a.814.814,0,1,0,0,1.608Z" transform="translate(-336.368 -258.711)" fill="#5e5e92"/>
      </g>
      <g id="Grupo_14270" data-name="Grupo 14270" transform="translate(0 5.915)">
        <path id="Trazado_23911" data-name="Trazado 23911" d="M324.029,264.9h14.114a.814.814,0,1,0,0-1.608H324.029a.814.814,0,1,0,0,1.608Z" transform="translate(-323.088 -263.291)" fill="#5e5e92"/>
      </g>
      <g id="Grupo_14271" data-name="Grupo 14271" transform="translate(0 2.934)">
        <path id="Trazado_23912" data-name="Trazado 23912" d="M324.029,260.319h4.658a.814.814,0,1,0,0-1.608h-4.658a.814.814,0,1,0,0,1.608Z" transform="translate(-323.088 -258.711)" fill="#5e5e92"/>
      </g>
    </g>
    <g id="Grupo_14275" data-name="Grupo 14275" transform="translate(6.689 15.6)">
      <g id="Grupo_14273" data-name="Grupo 14273">
        <path id="Trazado_23913" data-name="Trazado 23913" d="M306.888,262.239H299.53a3.041,3.041,0,0,1-3.037-3.038V251.9a3.041,3.041,0,0,1,3.037-3.038h7.358a3.041,3.041,0,0,1,3.038,3.038V259.2A3.042,3.042,0,0,1,306.888,262.239Zm-7.358-12.731a2.39,2.39,0,0,0-2.386,2.387V259.2a2.39,2.39,0,0,0,2.386,2.387h7.358a2.39,2.39,0,0,0,2.387-2.387V251.9a2.39,2.39,0,0,0-2.387-2.387Z" transform="translate(-296.493 -248.857)" fill="#5e5e92"/>
      </g>
      <g id="Grupo_14274" data-name="Grupo 14274" transform="translate(2.118 1.609)">
        <path id="Trazado_23914" data-name="Trazado 23914" d="M303.641,262.337l-3.668-5.374a1.3,1.3,0,1,1,2.151-1.468l1.454,2.13,3.667-5.7a1.3,1.3,0,0,1,2.19,1.409Z" transform="translate(-299.746 -251.328)" fill="#fc425d"/>
      </g>
    </g>
    <g id="Grupo_14278" data-name="Grupo 14278" transform="translate(6.672 33.132)">
      <g id="Grupo_14276" data-name="Grupo 14276">
        <path id="Trazado_23915" data-name="Trazado 23915" d="M306.862,289.171H299.5a3.041,3.041,0,0,1-3.037-3.038v-7.306a3.041,3.041,0,0,1,3.037-3.038h7.358a3.041,3.041,0,0,1,3.038,3.038v7.306A3.042,3.042,0,0,1,306.862,289.171ZM299.5,276.44a2.39,2.39,0,0,0-2.386,2.387v7.306a2.39,2.39,0,0,0,2.386,2.387h7.358a2.39,2.39,0,0,0,2.387-2.387v-7.306a2.39,2.39,0,0,0-2.387-2.387Z" transform="translate(-296.467 -275.789)" fill="#5e5e92"/>
      </g>
      <g id="Grupo_14277" data-name="Grupo 14277" transform="translate(2.118 1.609)">
        <path id="Trazado_23916" data-name="Trazado 23916" d="M303.615,289.269l-3.668-5.374a1.3,1.3,0,1,1,2.15-1.468l1.454,2.13,3.668-5.7a1.3,1.3,0,0,1,2.19,1.409Z" transform="translate(-299.721 -278.261)" fill="#fc425d"/>
      </g>
    </g>
    <g id="Grupo_14281" data-name="Grupo 14281" transform="translate(6.84 49.884)">
      <g id="Grupo_14279" data-name="Grupo 14279">
        <path id="Trazado_23917" data-name="Trazado 23917" d="M307.121,314.9h-7.358a3.041,3.041,0,0,1-3.038-3.037v-7.306a3.041,3.041,0,0,1,3.038-3.037h7.358a3.041,3.041,0,0,1,3.037,3.037v7.306A3.041,3.041,0,0,1,307.121,314.9Zm-7.358-12.73a2.39,2.39,0,0,0-2.387,2.386v7.306a2.39,2.39,0,0,0,2.387,2.386h7.358a2.39,2.39,0,0,0,2.386-2.386v-7.306a2.39,2.39,0,0,0-2.386-2.386Z" transform="translate(-296.725 -301.522)" fill="#5e5e92"/>
      </g>
      <g id="Grupo_14280" data-name="Grupo 14280" transform="translate(2.118 1.609)">
        <path id="Trazado_23918" data-name="Trazado 23918" d="M303.874,315l-3.668-5.375a1.3,1.3,0,0,1,2.151-1.468l1.454,2.131,3.668-5.7A1.3,1.3,0,0,1,309.667,306Z" transform="translate(-299.979 -303.993)" fill="#fc425d"/>
      </g>
    </g>
    <g id="Grupo_14284" data-name="Grupo 14284" transform="translate(7.008 67.221)">
      <g id="Grupo_14282" data-name="Grupo 14282">
        <path id="Trazado_23919" data-name="Trazado 23919" d="M307.379,341.537h-7.358a3.042,3.042,0,0,1-3.038-3.038v-7.306a3.041,3.041,0,0,1,3.038-3.037h7.358a3.041,3.041,0,0,1,3.037,3.037V338.5A3.041,3.041,0,0,1,307.379,341.537Zm-7.358-12.731a2.39,2.39,0,0,0-2.387,2.386V338.5a2.39,2.39,0,0,0,2.387,2.387h7.358a2.39,2.39,0,0,0,2.386-2.387v-7.306a2.39,2.39,0,0,0-2.386-2.386Z" transform="translate(-296.983 -328.155)" fill="#5e5e92"/>
      </g>
      <g id="Grupo_14283" data-name="Grupo 14283" transform="translate(2.444 1.935)">
        <path id="Trazado_23920" data-name="Trazado 23920" d="M304.3,341.22l-3.392-4.969a.977.977,0,1,1,1.613-1.1l1.73,2.536,3.933-6.111a.977.977,0,1,1,1.642,1.057Z" transform="translate(-300.737 -331.128)" fill="#fc425d"/>
      </g>
    </g>
    <g id="Grupo_14287" data-name="Grupo 14287" transform="translate(23.833 38.764)">
      <g id="Grupo_14285" data-name="Grupo 14285">
        <path id="Trazado_23921" data-name="Trazado 23921" d="M337.884,286.048H323.771a.814.814,0,1,1,0-1.608h14.114a.814.814,0,1,1,0,1.608Z" transform="translate(-322.83 -284.44)" fill="#5e5e92"/>
      </g>
      <g id="Grupo_14286" data-name="Grupo 14286" transform="translate(18.101)">
        <path id="Trazado_23922" data-name="Trazado 23922" d="M356.234,286.048h-4.658a.814.814,0,1,1,0-1.608h4.658a.814.814,0,1,1,0,1.608Z" transform="translate(-350.636 -284.44)" fill="#5e5e92"/>
      </g>
    </g>
    <g id="Grupo_14292" data-name="Grupo 14292" transform="translate(23.665 54.091)">
      <g id="Grupo_14288" data-name="Grupo 14288">
        <path id="Trazado_23923" data-name="Trazado 23923" d="M337.626,309.593H323.513a.814.814,0,1,1,0-1.608h14.114a.814.814,0,1,1,0,1.608Z" transform="translate(-322.572 -307.985)" fill="#5e5e92"/>
      </g>
      <g id="Grupo_14289" data-name="Grupo 14289" transform="translate(18.101)">
        <path id="Trazado_23924" data-name="Trazado 23924" d="M355.976,309.593h-4.657a.814.814,0,1,1,0-1.608h4.657a.814.814,0,1,1,0,1.608Z" transform="translate(-350.378 -307.985)" fill="#5e5e92"/>
      </g>
      <g id="Grupo_14290" data-name="Grupo 14290" transform="translate(8.644 2.935)">
        <path id="Trazado_23925" data-name="Trazado 23925" d="M336.792,314.1h14.114a.814.814,0,1,0,0-1.607H336.792a.814.814,0,1,0,0,1.607Z" transform="translate(-335.851 -312.493)" fill="#5e5e92"/>
      </g>
      <g id="Grupo_14291" data-name="Grupo 14291" transform="translate(0 2.935)">
        <path id="Trazado_23926" data-name="Trazado 23926" d="M323.513,314.1h4.658a.814.814,0,1,0,0-1.607h-4.658a.814.814,0,1,0,0,1.607Z" transform="translate(-322.572 -312.493)" fill="#5e5e92"/>
      </g>
    </g>
    <g id="Grupo_14296" data-name="Grupo 14296" transform="translate(24.001 72.185)">
      <g id="Grupo_14293" data-name="Grupo 14293" transform="translate(8.645)">
        <path id="Trazado_23927" data-name="Trazado 23927" d="M337.309,337.388h14.114a.814.814,0,1,0,0-1.607H337.309a.814.814,0,1,0,0,1.607Z" transform="translate(-336.368 -335.781)" fill="#5e5e92"/>
      </g>
      <g id="Grupo_14294" data-name="Grupo 14294" transform="translate(0 2.981)">
        <path id="Trazado_23928" data-name="Trazado 23928" d="M324.029,341.969h14.114a.814.814,0,1,0,0-1.608H324.029a.814.814,0,1,0,0,1.608Z" transform="translate(-323.088 -340.361)" fill="#5e5e92"/>
      </g>
      <g id="Grupo_14295" data-name="Grupo 14295">
        <path id="Trazado_23929" data-name="Trazado 23929" d="M324.029,337.388h4.658a.814.814,0,1,0,0-1.607h-4.658a.814.814,0,1,0,0,1.607Z" transform="translate(-323.088 -335.781)" fill="#5e5e92"/>
      </g>
    </g>
  </g>
  <g id="Grupo_14298" data-name="Grupo 14298" transform="translate(123.938 40.99)">
    <path id="Trazado_23930" data-name="Trazado 23930" d="M311.827,228.55c-.218,2.973-3.14,5.152-6.528,4.866s-5.957-2.928-5.739-5.9,3.141-5.151,6.528-4.865S312.045,225.578,311.827,228.55Z" transform="translate(-299.547 -222.624)" fill="#f9b9aa"/>
  </g>
</svg>
