<svg xmlns="http://www.w3.org/2000/svg" width="360" height="235.084" viewBox="0 0 360 235.084">
  <g id="Grupo_14173" data-name="Grupo 14173" transform="translate(-35.849 -90.246)">
    <g id="Grupo_14141" data-name="Grupo 14141" transform="translate(35.849 102.89)">
      <path id="Trazado_23407" data-name="Trazado 23407" d="M298.607,142.614c-23.568-7.5-51.381-11.066-76.067-12.283a224.809,224.809,0,0,0-128.4,33.118c-20.454,12.655-39.28,29.2-49.972,50.749-26.83,54.067,15.343,103.618,68.253,114.149,26.682,5.31,54.2,3.1,81.354,1.377,35.283-2.235,70.7-3.6,105.975-1.189,13.453.919,27.132,2.37,40.294-.56,30.82-6.861,52.406-37.7,55.392-69.135a98.086,98.086,0,0,0-23.587-72.991,112.947,112.947,0,0,0-26.083-21.587A214.465,214.465,0,0,0,298.607,142.614Z" transform="translate(-35.849 -109.241)" fill="#d7eff9"/>
      <g id="Grupo_14140" data-name="Grupo 14140" transform="translate(221.121 59.6)">
        <g id="Grupo_14139" data-name="Grupo 14139" transform="translate(75.463)">
          <path id="Trazado_23408" data-name="Trazado 23408" d="M395.655,193.642l-6.417,4.366,9.983,2.646v8.438l4.873-5.942,11.052,2.81,10.934-24.2Z" transform="translate(-388.789 -177.084)" fill="#a7a9ac" style="mix-blend-mode: multiply;isolation: isolate"/>
          <g id="Grupo_14138" data-name="Grupo 14138">
            <g id="Grupo_14137" data-name="Grupo 14137">
              <g id="Grupo_14136" data-name="Grupo 14136">
                <path id="Trazado_23409" data-name="Trazado 23409" d="M399.832,201.091v7.952l6.824-7.223Z" transform="translate(-390.478 -180.167)" fill="#fff"/>
                <path id="Trazado_23410" data-name="Trazado 23410" d="M401.868,197.85,428.742,176.2,415.933,201.46Z" transform="translate(-390.803 -176.197)" fill="#fff"/>
                <path id="Trazado_23411" data-name="Trazado 23411" d="M426.643,176.2,388.7,193.136l11.065,4.715Z" transform="translate(-388.703 -176.197)" fill="#fff"/>
                <path id="Trazado_23412" data-name="Trazado 23412" d="M401.543,197.85l-1.712-.729L428.417,176.2Z" transform="translate(-390.478 -176.197)" fill="#19365a"/>
              </g>
            </g>
          </g>
        </g>
        <path id="Trazado_23413" data-name="Trazado 23413" d="M381.97,215.57c-8.036,7.176-19.277,9.866-30.05,9.691A33.523,33.523,0,0,1,338.2,222.6a13.226,13.226,0,0,1-5.616-4.524,7.366,7.366,0,0,1-.765-6.955,5.161,5.161,0,0,1,6.025-2.857c2.475.846,3.679,3.888,3.151,6.45s-2.384,4.653-4.434,6.277c-5.146,4.077-11.824,5.914-18.387,5.992a56.609,56.609,0,0,1-19.247-3.668" transform="translate(-298.923 -181.275)" fill="none" stroke="#244e80" stroke-linecap="round" stroke-linejoin="round" stroke-width="0.85" stroke-dasharray="2.835"/>
      </g>
      <path id="Trazado_23414" data-name="Trazado 23414" d="M168.28,202.2a7.333,7.333,0,0,0,2.725-.42,4.989,4.989,0,0,0,1.652-1.232c3.275-3.539,2.06-10.128-2.262-12.265s-10.3.894-11.122,5.645a3.719,3.719,0,0,0-6.971-.748c-1-3.816-2.716-7.61-5.766-10.113s-7.666-3.383-11.005-1.282c-4.233,2.664-4.79,8.556-4.46,13.547-.219-3.3-6.771.271-7.42,1.9-2.691-1.973-7.789.145-5.345,3.422,2.058,2.759,9.159,2.232,12.064,2.222C143.007,202.831,155.649,202.531,168.28,202.2Z" transform="translate(-48.896 -117.3)" fill="#fff"/>
      <path id="Trazado_23415" data-name="Trazado 23415" d="M371.6,126.884a7.326,7.326,0,0,0,2.724-.42,4.993,4.993,0,0,0,1.653-1.232c3.275-3.539,2.059-10.128-2.263-12.265s-10.3.894-11.121,5.645a3.72,3.72,0,0,0-6.972-.748c-1-3.816-2.715-7.61-5.765-10.113s-7.666-3.384-11.006-1.282c-4.233,2.664-4.789,8.556-4.46,13.547-.218-3.3-6.771.271-7.42,1.9-2.691-1.973-7.788.145-5.344,3.422,2.058,2.759,9.159,2.232,12.064,2.222C346.322,127.513,358.964,127.213,371.6,126.884Z" transform="translate(-81.319 -105.289)" fill="#d7eff9"/>
    </g>
    <g id="Grupo_14169" data-name="Grupo 14169" transform="translate(60.071 207.865)">
      <g id="Grupo_14143" data-name="Grupo 14143" transform="translate(159.973 41.937)">
        <path id="Rectángulo_3786" data-name="Rectángulo 3786" d="M8.061,0h10.67a8.061,8.061,0,0,1,8.061,8.061V39.179a0,0,0,0,1,0,0H0a0,0,0,0,1,0,0V8.061A8.061,8.061,0,0,1,8.061,0Z" transform="translate(29.612 31.112) rotate(6.242)" fill="#19365a"/>
        <path id="Trazado_23416" data-name="Trazado 23416" d="M277.427,312.353a15.517,15.517,0,0,1-6.753-4.137c-4.432-4.5-6.506-11.361-6.163-20.391,0-.01,0-.019,0-.029a63.6,63.6,0,0,0-9.436-.337c-.573,15.081,4.724,23.536,9.342,27.971a24.161,24.161,0,0,0,11.054,6.249,4.852,4.852,0,0,0,.958.1,4.762,4.762,0,0,0,1-9.424Z" transform="translate(-254.998 -281.245)" fill="#a05e47"/>
        <path id="Trazado_23417" data-name="Trazado 23417" d="M276.819,325.355a4.943,4.943,0,0,0,5.828-3.833,4.892,4.892,0,0,0-3.81-5.794,16.021,16.021,0,0,1-6.97-4.271,18.819,18.819,0,0,1-2.122-2.594l-7.068,6.992a27.75,27.75,0,0,0,2.732,3.048A24.946,24.946,0,0,0,276.819,325.355Z" transform="translate(-256.217 -284.665)" fill="#e59b39"/>
        <path id="Trazado_23418" data-name="Trazado 23418" d="M264.253,281.571a2.3,2.3,0,0,0-.387-1.137.841.841,0,0,0-1.076-.252c-.512.353-.238,1.177-.5,1.743a1.389,1.389,0,0,1-1.139.7,9.851,9.851,0,0,1-1.4-.045,4.813,4.813,0,0,0-4.73,3.929,1.659,1.659,0,0,0,.181,1.22,2.018,2.018,0,0,0,1.422.623,18.907,18.907,0,0,0,4.272.3c1.284-.1,3.411-.461,3.617-1.95A19.274,19.274,0,0,0,264.253,281.571Z" transform="translate(-254.991 -280.074)" fill="#a05e47"/>
        <path id="Trazado_23419" data-name="Trazado 23419" d="M257.489,288.1a1.505,1.505,0,0,1-.171-.228.165.165,0,0,1,.054-.227.163.163,0,0,1,.227.054.651.651,0,0,0,.5.37c.363.02.765-.388.889-.547a.164.164,0,0,1,.24-.021.863.863,0,0,0,.74.306c.32-.078.479-.5.481-.5a.164.164,0,0,1,.139-.107.167.167,0,0,1,.157.078.747.747,0,0,0,.461.4.424.424,0,0,0,.318-.074c1.346-.966-.294-4.111-.311-4.142a.165.165,0,1,1,.292-.155c.074.14,1.789,3.432.218,4.56a.76.76,0,0,1-.569.136.9.9,0,0,1-.528-.329,1,1,0,0,1-.577.449,1.062,1.062,0,0,1-.913-.272,1.512,1.512,0,0,1-1.054.545A.851.851,0,0,1,257.489,288.1Z" transform="translate(-255.358 -280.577)" fill="#632a1a"/>
        <path id="Trazado_23420" data-name="Trazado 23420" d="M260.894,287.462a.166.166,0,0,1-.041-.086,23.166,23.166,0,0,0-.953-4.024.164.164,0,1,1,.292-.152,22.679,22.679,0,0,1,.988,4.124.166.166,0,0,1-.285.138Z" transform="translate(-255.771 -280.558)" fill="#632a1a"/>
        <path id="Trazado_23421" data-name="Trazado 23421" d="M259.114,287.79a.159.159,0,0,1-.04-.082,22.562,22.562,0,0,0-1.013-3.907.165.165,0,1,1,.287-.162,21.983,21.983,0,0,1,1.049,4.011.165.165,0,0,1-.283.14Z" transform="translate(-255.477 -280.629)" fill="#632a1a"/>
        <path id="Trazado_23422" data-name="Trazado 23422" d="M262.984,286.879a.164.164,0,0,1-.038-.156.809.809,0,0,1,.448-.514,7.269,7.269,0,0,1-.446-1.291,2.666,2.666,0,0,1,.046-1.441,1.009,1.009,0,0,1,.33-.5.9.9,0,0,1,.9-.058,1.857,1.857,0,0,1,.637.544,5.049,5.049,0,0,1,1,1.977.165.165,0,1,1-.321.077,4.708,4.708,0,0,0-.933-1.846,1.519,1.519,0,0,0-.519-.452.563.563,0,0,0-.563.022.7.7,0,0,0-.217.345,2.348,2.348,0,0,0-.036,1.265,7.123,7.123,0,0,0,.442,1.262.268.268,0,0,1-.165.393.478.478,0,0,0-.283.308.166.166,0,0,1-.2.115A.172.172,0,0,1,262.984,286.879Z" transform="translate(-256.248 -280.513)" fill="#632a1a"/>
        <path id="Trazado_23423" data-name="Trazado 23423" d="M272.219,323.275l2.3,29.78a29.471,29.471,0,0,0,16.217,2.559c9.492-1.1,11.571-5.3,11.571-5.3s-1.64-29.22-1.916-29.51-1.4-9.891-15.133-7.93S272.219,323.275,272.219,323.275Z" transform="translate(-257.737 -285.263)" fill="#fbb040"/>
        <path id="Trazado_23424" data-name="Trazado 23424" d="M295.808,326.687s7.616,12.846,2.717,27.109c0,0,7.836-11.286,7.545-15.007S295.808,326.687,295.808,326.687Z" transform="translate(-261.5 -287.508)" fill="#d38e33"/>
        <path id="Trazado_23425" data-name="Trazado 23425" d="M313.027,334.975l-11.208-17.791a4.765,4.765,0,0,0-8.063,5.079l9.832,15.607L296.68,352.9a11.881,11.881,0,0,0,8.66,3.981l7.985-17.371A4.765,4.765,0,0,0,313.027,334.975Z" transform="translate(-261.056 -285.637)" fill="#a05e47"/>
        <g id="Grupo_14142" data-name="Grupo 14142" transform="translate(23.334 22.367)">
          <path id="Trazado_23426" data-name="Trazado 23426" d="M293.165,306.684l-2.974,7.709-4.8,1.864-2.639-3.434,1.789-4.636Z" transform="translate(-282.752 -306.684)" fill="#a05e47"/>
        </g>
        <path id="Trazado_23427" data-name="Trazado 23427" d="M290.738,310.8l-6.812-.329-.952,2.468C286.518,313.793,290.738,310.8,290.738,310.8Z" transform="translate(-259.453 -284.922)" fill="#774031"/>
        <rect id="Rectángulo_3787" data-name="Rectángulo 3787" width="14.026" height="20.055" rx="6.313" transform="translate(25.169 5.635) rotate(21.098)" fill="#a05e47"/>
        <path id="Trazado_23428" data-name="Trazado 23428" d="M292.8,290.212l-3.185-1.229a5.328,5.328,0,0,0-6.369,2.075,4.912,4.912,0,0,0,1.863,1.793,8.124,8.124,0,0,0,4.8.625,5.207,5.207,0,0,1,1.9-.043,1.465,1.465,0,0,1,1.189,1.315,1.689,1.689,0,0,1-.859,1.261,3.318,3.318,0,0,0-.783.592,2.242,2.242,0,0,0-.383,1.185,5.121,5.121,0,0,0,2.027,5.583c.1.082.2.164.309.242l2.522-6.537A5.322,5.322,0,0,0,292.8,290.212Z" transform="translate(-259.497 -281.438)" fill="#171e26" opacity="0.3"/>
        <path id="Trazado_23429" data-name="Trazado 23429" d="M297.451,306.162a1.719,1.719,0,1,1-.985-2.222A1.718,1.718,0,0,1,297.451,306.162Z" transform="translate(-261.232 -283.862)" fill="#a05e47"/>
        <path id="Trazado_23430" data-name="Trazado 23430" d="M301.819,317.185a4.765,4.765,0,0,0-8.063,5.079l5.05,8.017a38.883,38.883,0,0,0,8.482-4.416Z" transform="translate(-261.056 -285.637)" fill="#fbb040"/>
        <path id="Trazado_23431" data-name="Trazado 23431" d="M305.138,365.627a3.594,3.594,0,0,1-1,1.406,1.255,1.255,0,0,1-1.6-.01c-.208-.219-.321-.548-.6-.66-.352-.14-.715.15-1.08.255a1.455,1.455,0,0,1-1.642-.958,1.159,1.159,0,0,0-.327-.6c-.42-.289-1.062.263-1.478-.034-.319-.227-.229-.778-.54-1.015-.169-.127-.4-.118-.6-.2a.9.9,0,0,1-.471-.884,2.66,2.66,0,0,1,.331-1.006l.732-1.51a2.6,2.6,0,0,1,.537-.822,2.507,2.507,0,0,1,2.03-.359,11.3,11.3,0,0,1,3.9,1.1,5.638,5.638,0,0,1,2.427,2.326C306.226,363.583,305.55,364.776,305.138,365.627Z" transform="translate(-261.5 -292.689)" fill="#a05e47"/>
      </g>
      <g id="Grupo_14149" data-name="Grupo 14149" transform="translate(7.75 48.843)">
        <path id="Rectángulo_3788" data-name="Rectángulo 3788" d="M8.061,0h10.67a8.061,8.061,0,0,1,8.061,8.061V39.179a0,0,0,0,1,0,0H0a0,0,0,0,1,0,0V8.061A8.061,8.061,0,0,1,8.061,0Z" transform="translate(0 26.853)" fill="#19365a"/>
        <g id="Grupo_14148" data-name="Grupo 14148" transform="translate(4.7)">
          <g id="Grupo_14144" data-name="Grupo 14144" transform="translate(19.643 26.343)">
            <path id="Trazado_23432" data-name="Trazado 23432" d="M105.543,320.11a4.768,4.768,0,0,1,6.369,2.216l7.408,15.319,17.4-6.473c.914,5.861,3.349,8.5,3.349,8.5l-21.424,8.451a4.77,4.77,0,0,1-6-2.376l-9.317-19.267A4.767,4.767,0,0,1,105.543,320.11Z" transform="translate(-102.849 -319.633)" fill="#a05e47"/>
            <path id="Trazado_23433" data-name="Trazado 23433" d="M115.8,350.242a4.757,4.757,0,0,0,3.321-.036l7.935-3.13a27.356,27.356,0,0,1-6.492-7.631l-.769.286-2.868-5.93c-2.811-.973-7.819-1.115-11.119-1.089l7.31,15.118A4.76,4.76,0,0,0,115.8,350.242Z" transform="translate(-103.32 -321.718)" fill="#7f4637"/>
            <path id="Trazado_23434" data-name="Trazado 23434" d="M107.318,333.336l4.259,5.5,7.068-3.98-6.057-12.524a4.76,4.76,0,0,0-5.278-2.575l-.221.119Z" transform="translate(-103.525 -319.635)" fill="#d3afa5"/>
            <path id="Trazado_23435" data-name="Trazado 23435" d="M147.86,331.191a2.227,2.227,0,0,1,1.156-.082.812.812,0,0,1,.626.862c-.123.588-.957.652-1.363,1.093a1.337,1.337,0,0,0-.2,1.275,9.394,9.394,0,0,0,.561,1.225,4.638,4.638,0,0,1-1.721,5.671,1.6,1.6,0,0,1-1.152.3,1.944,1.944,0,0,1-1.085-1.03,18.242,18.242,0,0,1-1.863-3.683c-.387-1.181-.866-3.2.379-3.943A18.61,18.61,0,0,1,147.86,331.191Z" transform="translate(-109.156 -321.455)" fill="#a05e47"/>
            <path id="Trazado_23436" data-name="Trazado 23436" d="M145.579,340.166a1.49,1.49,0,0,0,.266.066.159.159,0,0,0,.182-.133.156.156,0,0,0-.133-.182.63.63,0,0,1-.515-.3,1.3,1.3,0,0,1,.154-.994.159.159,0,0,0-.071-.222c-.331-.155-.515-.338-.548-.543a.833.833,0,0,1,.263-.614.159.159,0,0,0-.085-.273.72.72,0,0,1-.53-.26.417.417,0,0,1-.054-.31c.356-1.557,3.762-1.276,3.8-1.273a.159.159,0,1,0,.028-.317c-.151-.013-3.718-.306-4.132,1.511a.738.738,0,0,0,.092.556.87.87,0,0,0,.49.346.966.966,0,0,0-.183.681,1.024,1.024,0,0,0,.583.709,1.461,1.461,0,0,0-.09,1.141A.824.824,0,0,0,145.579,340.166Z" transform="translate(-109.44 -322.049)" fill="#7f4637"/>
            <path id="Trazado_23437" data-name="Trazado 23437" d="M145.152,337.561a.154.154,0,0,0,.092.005,22.332,22.332,0,0,1,3.93-.657.159.159,0,0,0,.027-.317,21.915,21.915,0,0,0-4.033.666.158.158,0,0,0-.116.192A.155.155,0,0,0,145.152,337.561Z" transform="translate(-109.578 -322.336)" fill="#7f4637"/>
            <path id="Trazado_23438" data-name="Trazado 23438" d="M145.54,339.264a.157.157,0,0,0,.088.006,21.719,21.719,0,0,1,3.85-.561.159.159,0,0,0,.037-.316,21.22,21.22,0,0,0-3.956.567.158.158,0,0,0-.12.189A.156.156,0,0,0,145.54,339.264Z" transform="translate(-109.64 -322.623)" fill="#7f4637"/>
            <path id="Trazado_23439" data-name="Trazado 23439" d="M146.106,341.082a.16.16,0,0,0,.112,0,9.489,9.489,0,0,1,3.094-.6.16.16,0,0,0,.164-.156.162.162,0,0,0-.156-.163,9.7,9.7,0,0,0-3.218.625.16.16,0,0,0,0,.3Z" transform="translate(-109.731 -322.906)" fill="#7f4637"/>
            <path id="Trazado_23440" data-name="Trazado 23440" d="M144.8,335.324a.159.159,0,0,0,.152-.025.78.78,0,0,0,.289-.59,6.959,6.959,0,0,0,1.314-.087,2.576,2.576,0,0,0,1.263-.58.967.967,0,0,0,.322-.482.862.862,0,0,0-.285-.82,1.786,1.786,0,0,0-.72-.362,4.872,4.872,0,0,0-2.13-.147.159.159,0,0,0,.051.314,4.54,4.54,0,0,1,1.989.138,1.484,1.484,0,0,1,.6.292.545.545,0,0,1,.192.508.674.674,0,0,1-.226.322,2.26,2.26,0,0,1-1.11.505,6.721,6.721,0,0,1-1.286.079.257.257,0,0,0-.287.293.462.462,0,0,1-.169.367.159.159,0,0,0-.026.224A.169.169,0,0,0,144.8,335.324Z" transform="translate(-109.523 -321.633)" fill="#7f4637"/>
          </g>
          <path id="Trazado_23441" data-name="Trazado 23441" d="M109.857,326.457l-2.324,30.066a29.756,29.756,0,0,1-16.372,2.583c-9.583-1.115-11.682-5.349-11.682-5.349s1.656-29.5,1.935-29.792,1.412-9.985,15.277-8.006S109.857,326.457,109.857,326.457Z" transform="translate(-79.479 -292.661)" fill="#eacfc5"/>
          <g id="Grupo_14145" data-name="Grupo 14145" transform="translate(14.008 14.686)">
            <path id="Trazado_23442" data-name="Trazado 23442" d="M96.145,305.763V314.1l4.991,4,2.585-2.779v-5.017Z" transform="translate(-96.145 -305.763)" fill="#a05e47"/>
          </g>
          <path id="Trazado_23443" data-name="Trazado 23443" d="M97.384,310.969l6.535,2.165v2.67C100.273,315.318,97.384,310.969,97.384,310.969Z" transform="translate(-82.334 -291.908)" fill="#7f4637"/>
          <rect id="Rectángulo_3789" data-name="Rectángulo 3789" width="14.16" height="20.247" rx="7.08" transform="translate(28.169 22.46) rotate(180)" fill="#a05e47"/>
          <path id="Trazado_23444" data-name="Trazado 23444" d="M95.955,301.751c.229.565.985,1.017,1.431.6a1.16,1.16,0,0,0,.283-.593,9.088,9.088,0,0,0,.15-3.623c-.229-1.411-.757-2.988.049-4.169a2.216,2.216,0,0,1,2.481-.82c.46.16.856.471,1.32.619a6.739,6.739,0,0,0,2.87-.223c1.768-.229,3.695.451,5.284-.361a3.143,3.143,0,0,0,1.656-2.335,1.433,1.433,0,0,0-1.352-1.738c-1.231-.227-2.523.361-3.736.05-.756-.193-1.406-.721-2.178-.842-1.077-.169-2.093.481-3.155.726-1.083.25-2.227.076-3.313.314-2.266.5-3.819,2.732-4.238,5.013a17.883,17.883,0,0,0,.546,6.891q.26,1.22.519,2.442a2.659,2.659,0,0,0,.92,1.8.512.512,0,0,0,.314.1c.3-.03.387-.429.382-.735a21.7,21.7,0,0,0-.594-4.444C95.773,300.848,95.78,301.321,95.955,301.751Z" transform="translate(-81.69 -288.291)" fill="#171c27"/>
          <path id="Trazado_23445" data-name="Trazado 23445" d="M94.181,304.493a1.736,1.736,0,1,0,1.736-1.736A1.736,1.736,0,0,0,94.181,304.493Z" transform="translate(-81.824 -290.598)" fill="#a05e47"/>
          <g id="Grupo_14147" data-name="Grupo 14147" transform="translate(3.14 24.861)">
            <path id="Trazado_23446" data-name="Trazado 23446" d="M120.433,351.825a.376.376,0,0,1,.345-.048.408.408,0,0,1,.145.229,1.742,1.742,0,0,0,1.382,1.172,1.169,1.169,0,0,0,1.278-1.1,1.939,1.939,0,0,0-.611-1.116,3.446,3.446,0,0,0,2.066,1.4.48.48,0,0,0,.3-.045.491.491,0,0,0,.184-.281,1.973,1.973,0,0,0-.183-1.61,2.575,2.575,0,0,0,.778.584.872.872,0,0,0,.92-.113c.376-.361.189-.985-.024-1.462q-.344-.774-.689-1.548a7.934,7.934,0,0,0-.927-1.7,6.144,6.144,0,0,0-2.656-1.789,13.419,13.419,0,0,0-6.707-.8.9.9,0,0,0-.883.921,14.905,14.905,0,0,0,.1,7.4c.268.964.619,1.236,1.656,1.141A10.235,10.235,0,0,0,120.433,351.825Z" transform="translate(-88.241 -321.952)" fill="#a05e47"/>
            <g id="Grupo_14146" data-name="Grupo 14146" transform="translate(0.192 0.337)">
              <path id="Trazado_23447" data-name="Trazado 23447" d="M87.778,318.29a4.768,4.768,0,0,1,5.182,4.315l1.547,16.946,18.564-.134a57.239,57.239,0,0,0-1.271,9.633l-21.609.07a4.77,4.77,0,0,1-4.783-4.335l-1.945-21.313A4.767,4.767,0,0,1,87.778,318.29Z" transform="translate(-83.443 -318.27)" fill="#a05e47"/>
            </g>
            <path id="Trazado_23448" data-name="Trazado 23448" d="M124.121,351.895a23.04,23.04,0,0,0-1.706-3.09,1.941,1.941,0,0,0-1.615-.735" transform="translate(-89.209 -322.685)" fill="none" stroke="#7f4637" stroke-linecap="round" stroke-linejoin="round" stroke-width="0.567"/>
            <path id="Trazado_23449" data-name="Trazado 23449" d="M126.7,350.844l-1.489-3.283a3.043,3.043,0,0,0-1.919-1.439" transform="translate(-89.606 -322.375)" fill="none" stroke="#7f4637" stroke-linecap="round" stroke-linejoin="round" stroke-width="0.567"/>
            <path id="Trazado_23450" data-name="Trazado 23450" d="M93.073,322.36a4.939,4.939,0,1,0-9.837.9l1.287,14.107,9.8-1.256Z" transform="translate(-83.215 -317.869)" fill="#eacfc5"/>
            <path id="Trazado_23451" data-name="Trazado 23451" d="M83.443,326.067,84.559,338.3s7.5-.958,9.8-1.256l-1.213-13.3" transform="translate(-83.252 -318.807)" fill="none" stroke="#a5867c" stroke-linecap="round" stroke-linejoin="round" stroke-width="0.283"/>
          </g>
          <path id="Trazado_23452" data-name="Trazado 23452" d="M93.826,316.142l3.361,6.654,3.6-2.744,3.465,2.484a15.615,15.615,0,0,0,1.235-4.267" transform="translate(-81.767 -292.733)" fill="none" stroke="#a5867c" stroke-linecap="round" stroke-linejoin="round" stroke-width="0.283"/>
          <path id="Trazado_23453" data-name="Trazado 23453" d="M101.474,321.25l-.2,10.8h2.351" transform="translate(-82.954 -293.547)" fill="none" stroke="#a5867c" stroke-linecap="round" stroke-linejoin="round" stroke-width="0.283"/>
        </g>
      </g>
      <g id="Grupo_14155" data-name="Grupo 14155" transform="translate(85.717 49.915)">
        <path id="Rectángulo_3790" data-name="Rectángulo 3790" d="M8.061,0h10.67a8.061,8.061,0,0,1,8.061,8.061V39.179a0,0,0,0,1,0,0H0a0,0,0,0,1,0,0V8.061A8.061,8.061,0,0,1,8.061,0Z" transform="translate(0 27.291) rotate(-7.91)" fill="#19365a"/>
        <g id="Grupo_14154" data-name="Grupo 14154" transform="translate(11.38)">
          <path id="Trazado_23454" data-name="Trazado 23454" d="M200.126,290.878a10.913,10.913,0,0,0-3.892-.8,12.064,12.064,0,0,0-3.876.2,6.715,6.715,0,0,0-3.887,3.737,15.446,15.446,0,0,0-1.092,3.779c-.22,1.23-.5,2.427-.654,3.671-.324,2.681-.349,5.392-.783,8.061-.8,4.9-2.93,9.457-4.372,14.2s-2.153,10.026-.138,14.557a2.4,2.4,0,0,0,.712,1.02,2.569,2.569,0,0,0,1.083.371,39.952,39.952,0,0,0,7.183.608,6.547,6.547,0,0,0,2.557-.385,5.182,5.182,0,0,0,1.8-1.4c1.917-2.181,2.713-5.1,3.451-7.91l2.123-8.078c1.975-7.516,3.962-15.113,4.184-22.882.076-2.648-.185-5.6-2.132-7.395A7.485,7.485,0,0,0,200.126,290.878Z" transform="translate(-180.186 -289.638)" fill="#503972"/>
          <g id="Grupo_14150" data-name="Grupo 14150" transform="translate(15.377 22.687)">
            <path id="Trazado_23455" data-name="Trazado 23455" d="M231.63,330.751c-19.52,2.827-25.335-11.054-25.589-11.693a3.912,3.912,0,0,0-7.3,2.807,26.905,26.905,0,0,0,7.313,9.886c4.645,4.03,12.822,8.43,25.616,6.887.355-.043.715-.091,1.078-.143A21.742,21.742,0,0,0,231.63,330.751Z" transform="translate(-198.48 -316.558)" fill="#dba38d"/>
            <path id="Trazado_23456" data-name="Trazado 23456" d="M241.273,331.266a2.787,2.787,0,0,1,1.592-.273c.533.123.99.716.761,1.213-.2.424-.816.714-.672,1.158a.748.748,0,0,0,.277.331c1.436,1.116,3.357,1.331,5.032,2.04a2.685,2.685,0,0,1,1.726,1.629,2.014,2.014,0,0,1-.508,1.734,4.537,4.537,0,0,1-1.532,1.059,12.854,12.854,0,0,1-9.685.49,2.519,2.519,0,0,1-.965-.531,2.8,2.8,0,0,1-.54-.931,8.794,8.794,0,0,1-.659-2.037,4.965,4.965,0,0,1,1.347-4.014C238.58,331.886,239.81,331.827,241.273,331.266Z" transform="translate(-204.472 -318.854)" fill="#dba38d"/>
            <path id="Trazado_23457" data-name="Trazado 23457" d="M209.8,324.534a18.545,18.545,0,0,1-3.756-5.476,3.912,3.912,0,0,0-7.3,2.807,26.039,26.039,0,0,0,5.418,8.082A27.459,27.459,0,0,0,209.8,324.534Z" transform="translate(-198.48 -316.558)" fill="#f75454"/>
            <path id="Trazado_23458" data-name="Trazado 23458" d="M204.194,330.526a.13.13,0,0,1-.109-.039,26.243,26.243,0,0,1-5.446-8.126.131.131,0,0,1,.076-.168.129.129,0,0,1,.168.076,25.921,25.921,0,0,0,5.312,7.956,27.609,27.609,0,0,0,5.454-5.231,18.652,18.652,0,0,1-3.706-5.438.131.131,0,0,1,.243-.1,18.4,18.4,0,0,0,3.728,5.434.129.129,0,0,1,.01.168,27.751,27.751,0,0,1-5.669,5.441A.122.122,0,0,1,204.194,330.526Z" transform="translate(-198.504 -317.008)" fill="#bf4040"/>
          </g>
          <path id="Trazado_23459" data-name="Trazado 23459" d="M204.956,323.463a45.772,45.772,0,0,1,.123,7.977c-.14,5.879.053,11.9,2,17.475.66,1.89,1.272,3.582-.219,5.241-2.966,3.3-9.976,4.06-14.056,4.181-2.6.077-11.292-.072-12.4-3.714-.36-1.181.951-3.861,1.177-5.124.485-2.712.215-5.828.218-8.6a47.776,47.776,0,0,0-.9-11.026,14.442,14.442,0,0,1,.762-9.691,8.294,8.294,0,0,1,3.4-4,15.026,15.026,0,0,1,6.96-1.477c2.738-.01,6.335.133,8.8,1.453,2.322,1.244,3.589,4.316,4.046,6.754Q204.913,323.186,204.956,323.463Z" transform="translate(-180.21 -293.575)" fill="#f75454"/>
          <g id="Grupo_14152" data-name="Grupo 14152" transform="translate(6.941)">
            <g id="Grupo_14151" data-name="Grupo 14151" transform="translate(0 0.695)">
              <path id="Trazado_23460" data-name="Trazado 23460" d="M198.174,310.3l.141,5.031s.034,2.417-3.68,2.387a3.754,3.754,0,0,1-3.953-3.4l-.235-8.366Z" transform="translate(-188.764 -292.874)" fill="#eeb399"/>
              <path id="Trazado_23461" data-name="Trazado 23461" d="M191.83,310.936l6.616,1.987.075,2.678C194.85,315.215,191.83,310.936,191.83,310.936Z" transform="translate(-188.984 -293.669)" fill="#c18b76"/>
              <rect id="Rectángulo_3791" data-name="Rectángulo 3791" width="14.206" height="20.312" rx="6.313" transform="translate(16.098 20.304) rotate(178.388)" fill="#eeb399"/>
              <path id="Trazado_23462" data-name="Trazado 23462" d="M188.445,304.521a1.741,1.741,0,1,0,1.691-1.789A1.741,1.741,0,0,0,188.445,304.521Z" transform="translate(-188.444 -292.361)" fill="#eeb399"/>
            </g>
            <path id="Trazado_23463" data-name="Trazado 23463" d="M204.688,293.073s-5.995,8.133-14.977,7.576c0,0-1.988-10.734,6.752-11.054A10.134,10.134,0,0,1,204.688,293.073Z" transform="translate(-188.615 -289.566)" fill="#503972"/>
          </g>
          <g id="Grupo_14153" data-name="Grupo 14153" transform="translate(2.043 22.934)">
            <path id="Trazado_23464" data-name="Trazado 23464" d="M208.694,342.6c-18.841-5.83-18.134-20.863-18.087-21.549a3.912,3.912,0,0,0-7.8-.6,26.91,26.91,0,0,0,2.36,12.069c2.464,5.634,7.959,13.119,20.175,17.22q.509.171,1.035.335A21.747,21.747,0,0,0,208.694,342.6Z" transform="translate(-182.641 -316.852)" fill="#eeb399"/>
            <path id="Trazado_23465" data-name="Trazado 23465" d="M191.648,327.612a18.518,18.518,0,0,1-1.041-6.559,3.912,3.912,0,0,0-7.8-.6,26.047,26.047,0,0,0,1.423,9.626A27.476,27.476,0,0,0,191.648,327.612Z" transform="translate(-182.641 -316.852)" fill="#f75454"/>
            <path id="Trazado_23466" data-name="Trazado 23466" d="M184.162,330.86a.134.134,0,0,1-.082-.082,26.222,26.222,0,0,1-1.428-9.677.13.13,0,1,1,.26.021,25.9,25.9,0,0,0,1.381,9.466,27.565,27.565,0,0,0,7.171-2.382,18.656,18.656,0,0,1-1.011-6.5.132.132,0,0,1,.139-.122.13.13,0,0,1,.122.14,18.427,18.427,0,0,0,1.033,6.507.129.129,0,0,1-.063.157,27.771,27.771,0,0,1-7.456,2.479A.131.131,0,0,1,184.162,330.86Z" transform="translate(-182.616 -317.51)" fill="#bf4040"/>
            <path id="Trazado_23467" data-name="Trazado 23467" d="M216.892,347.485a2.793,2.793,0,0,1,1.555.437.967.967,0,0,1,.167,1.422c-.359.3-1.045.295-1.1.757a.737.737,0,0,0,.108.418c.817,1.625,2.46,2.644,3.668,4a2.686,2.686,0,0,1,.86,2.212,2.015,2.015,0,0,1-1.2,1.348,4.555,4.555,0,0,1-1.838.3,12.857,12.857,0,0,1-8.958-3.717,2.515,2.515,0,0,1-.644-.894,2.787,2.787,0,0,1-.088-1.073,8.833,8.833,0,0,1,.281-2.124,4.961,4.961,0,0,1,2.939-3.047C214.194,346.889,215.329,347.363,216.892,347.485Z" transform="translate(-186.888 -321.692)" fill="#eeb399"/>
          </g>
        </g>
      </g>
      <g id="Grupo_14164" data-name="Grupo 14164" transform="translate(0 49.689)">
        <path id="Rectángulo_3792" data-name="Rectángulo 3792" d="M8.061,0h10.67a8.061,8.061,0,0,1,8.061,8.061V39.179a0,0,0,0,1,0,0H0a0,0,0,0,1,0,0V8.061A8.061,8.061,0,0,1,8.061,0Z" transform="translate(278.083 24.699)" fill="#19365a"/>
        <path id="Trazado_23468" data-name="Trazado 23468" d="M384.372,320.77a4.724,4.724,0,0,0-6.68-.066l-12.034,11.8-14.173-11.661c-2.814,5.158-5.923,6.81-5.923,6.81L362.78,342.5a4.722,4.722,0,0,0,6.391-.206l15.135-14.842A4.722,4.722,0,0,0,384.372,320.77Z" transform="translate(-109.462 -294.091)" fill="#eeb399"/>
        <path id="Trazado_23469" data-name="Trazado 23469" d="M388.31,320.77a4.724,4.724,0,0,0-6.68-.066l-11.374,11.154c.9,2.262,2.66,6.034,5.131,8.2l12.857-12.609A4.722,4.722,0,0,0,388.31,320.77Z" transform="translate(-113.4 -294.091)" fill="#638dce"/>
        <path id="Trazado_23470" data-name="Trazado 23470" d="M347.289,317.061a2.2,2.2,0,0,0-1.05-.462.8.8,0,0,0-.872.593c-.082.588.674.928.905,1.475a1.327,1.327,0,0,1-.241,1.255,9.509,9.509,0,0,1-.934.954,4.593,4.593,0,0,0-.294,5.862,1.581,1.581,0,0,0,.974.662,1.925,1.925,0,0,0,1.357-.6,18.1,18.1,0,0,0,2.97-2.809c.756-.972,1.879-2.7.966-3.8A18.468,18.468,0,0,0,347.289,317.061Z" transform="translate(-109.195 -293.651)" fill="#eeb399"/>
        <path id="Trazado_23471" data-name="Trazado 23471" d="M347.431,326.161a1.414,1.414,0,0,1-.27-.028.157.157,0,0,1-.125-.184.155.155,0,0,1,.185-.124.621.621,0,0,0,.582-.112,1.293,1.293,0,0,0,.19-.978.154.154,0,0,1,.03-.122.159.159,0,0,1,.11-.06.634.634,0,0,0,.653-.983.157.157,0,0,1,.171-.226.716.716,0,0,0,.581-.066.41.41,0,0,0,.154-.271c.19-1.57-3.081-2.448-3.113-2.458a.157.157,0,1,1,.08-.3c.146.038,3.569.959,3.346,2.792a.728.728,0,0,1-.271.488.857.857,0,0,1-.572.159.962.962,0,0,1-.057.7,1.017,1.017,0,0,1-.782.466,1.448,1.448,0,0,1-.3,1.093A.816.816,0,0,1,347.431,326.161Z" transform="translate(-109.605 -294.232)" fill="#b57359"/>
        <path id="Trazado_23472" data-name="Trazado 23472" d="M348.7,323.872a.158.158,0,0,1-.087-.026,22.111,22.111,0,0,0-3.445-1.929.157.157,0,1,1,.082-.3,21.653,21.653,0,0,1,3.537,1.969.158.158,0,0,1-.087.289Z" transform="translate(-109.381 -294.45)" fill="#b57359"/>
        <path id="Trazado_23473" data-name="Trazado 23473" d="M347.783,325.336a.154.154,0,0,1-.084-.024,21.551,21.551,0,0,0-3.4-1.812.158.158,0,0,1,.071-.307,20.994,20.994,0,0,1,3.5,1.853.157.157,0,0,1-.084.29Z" transform="translate(-109.241 -294.702)" fill="#b57359"/>
        <path id="Trazado_23474" data-name="Trazado 23474" d="M346.78,326.886a.155.155,0,0,1-.1-.039,9.413,9.413,0,0,0-2.683-1.6.158.158,0,0,1-.1-.2.161.161,0,0,1,.2-.1,9.587,9.587,0,0,1,2.791,1.66.158.158,0,0,1-.1.277Z" transform="translate(-109.195 -294.982)" fill="#b57359"/>
        <path id="Trazado_23475" data-name="Trazado 23475" d="M349.849,322.047a.157.157,0,0,1-.134-.074.772.772,0,0,1-.071-.647,6.9,6.9,0,0,1-1.2-.52,2.54,2.54,0,0,1-.983-.963.958.958,0,0,1-.14-.556.857.857,0,0,1,.54-.67,1.784,1.784,0,0,1,.793-.1,4.817,4.817,0,0,1,2.034.577.156.156,0,0,1,.061.214.158.158,0,0,1-.214.061,4.488,4.488,0,0,0-1.9-.536,1.451,1.451,0,0,0-.653.072.536.536,0,0,0-.349.409.659.659,0,0,0,.1.376,2.242,2.242,0,0,0,.866.843,6.732,6.732,0,0,0,1.173.5.254.254,0,0,1,.168.369.458.458,0,0,0,.035.4.158.158,0,0,1-.051.217A.165.165,0,0,1,349.849,322.047Z" transform="translate(-109.743 -293.957)" fill="#b57359"/>
        <path id="Trazado_23476" data-name="Trazado 23476" d="M379.451,326.857l2.3,29.78a29.471,29.471,0,0,0,16.217,2.559c9.492-1.1,11.572-5.3,11.572-5.3s-1.64-29.221-1.916-29.51-1.4-9.891-15.133-7.93S379.451,326.857,379.451,326.857Z" transform="translate(-114.865 -293.587)" fill="#7298e2"/>
        <rect id="Rectángulo_3793" data-name="Rectángulo 3793" width="311.555" height="7.384" transform="translate(0 59.808)" fill="#5f87df"/>
        <g id="Grupo_14157" data-name="Grupo 14157" transform="translate(26.543 37.519)">
          <g id="Grupo_14156" data-name="Grupo 14156">
            <rect id="Rectángulo_3794" data-name="Rectángulo 3794" width="41.956" height="2.043" rx="0.5" transform="translate(41.956 23.755) rotate(180)" fill="#0d2638"/>
            <path id="Trazado_23477" data-name="Trazado 23477" d="M122.212,357.659H156.45a3.093,3.093,0,0,0,2.936-2.534l2.954-18.655a2.115,2.115,0,0,0-2.133-2.535H125.97a3.1,3.1,0,0,0-2.937,2.535l-2.954,18.655A2.115,2.115,0,0,0,122.212,357.659Z" transform="translate(-100.042 -333.935)" fill="#224cb3"/>
          </g>
          <circle id="Elipse_910" data-name="Elipse 910" cx="3.154" cy="3.154" r="3.154" transform="translate(38.755 8.658)" fill="#fff"/>
        </g>
        <path id="Trazado_23478" data-name="Trazado 23478" d="M407.259,331.276s2.1,25.147-4.061,25.64-16.555,0-16.555,0,12.543-2.4,13.918-9.38S407.259,331.276,407.259,331.276Z" transform="translate(-116.013 -295.992)" fill="#3f649e"/>
        <path id="Trazado_23479" data-name="Trazado 23479" d="M393.9,323.707c4.8-.674,5.473-4.981,5.468-7.4a21.9,21.9,0,0,0-5.567.15,24.559,24.559,0,0,0-6.133,1.619C387.818,320.115,388.733,324.434,393.9,323.707Z" transform="translate(-116.177 -293.587)" fill="#eeb399"/>
        <g id="Grupo_14158" data-name="Grupo 14158" transform="translate(273.295 14.509)">
          <path id="Trazado_23480" data-name="Trazado 23480" d="M397.319,306.559v8.263l-3.807,3.467-3.7-2.253v-4.969Z" transform="translate(-389.814 -306.559)" fill="#eeb399"/>
        </g>
        <path id="Trazado_23481" data-name="Trazado 23481" d="M396.288,311.516l-6.474,2.145v2.645C393.427,315.824,396.288,311.516,396.288,311.516Z" transform="translate(-116.519 -292.841)" fill="#cc957f"/>
        <rect id="Rectángulo_3795" data-name="Rectángulo 3795" width="14.026" height="20.055" rx="6.313" transform="translate(266.774 1.986)" fill="#eeb399"/>
        <path id="Trazado_23482" data-name="Trazado 23482" d="M380.875,293.346a1.462,1.462,0,0,0-.419,1.486,1.373,1.373,0,0,0,.6.585,3.213,3.213,0,0,0,2.864.15.839.839,0,0,0-.01,1.078,1.589,1.589,0,0,0,1.024.527,4.084,4.084,0,0,0,3.339-1.246,1.523,1.523,0,0,0,1.417,1.528c.7.023,1.371-.45,2.053-.3.2.337-.117.888.2,1.112a.561.561,0,0,0,.272.079c.647.062,1.42-.054,1.837.444.4.481.187,1.2.02,1.8a2.126,2.126,0,0,0,.066,1.668c.3.488,1.127.643,1.427.155.084-.139.115-.305.205-.44s.282-.23.414-.135a.374.374,0,0,1,.108.329,7.06,7.06,0,0,1-.73,2.029c-.251.678-.224,1.6.411,1.942a1.779,1.779,0,0,0,.623.167,2.687,2.687,0,0,0,1.965-.3,2.97,2.97,0,0,0,.894-1.688,1.819,1.819,0,0,0,.1-.746.627.627,0,0,0-.456-.545c-.3-.834.605-1.869.07-2.574a2.787,2.787,0,0,0-.437-.387,2.4,2.4,0,0,1-.727-1.5,10.964,10.964,0,0,1-.024-1.7,13.762,13.762,0,0,0-.337-3.286,3.252,3.252,0,0,0-.5-1.259,1.308,1.308,0,0,0-1.172-.565,3.369,3.369,0,0,0-1.348-2.084,2.037,2.037,0,0,0-2.37.066,1.065,1.065,0,0,1-.463.312.814.814,0,0,1-.435-.089c-1.3-.53-2.813-.978-4.076-.356a1.916,1.916,0,0,1-.584.237,1.718,1.718,0,0,1-.63-.1,1.74,1.74,0,0,0-1.475.162c-.458.343-.258.72-.3,1.173-.043.515-.329.483-.817.667A6.3,6.3,0,0,0,380.875,293.346Z" transform="translate(-115.014 -289.298)" fill="#171e26"/>
        <path id="Trazado_23483" data-name="Trazado 23483" d="M400.807,305.1a1.719,1.719,0,1,1-1.719-1.719A1.719,1.719,0,0,1,400.807,305.1Z" transform="translate(-117.724 -291.544)" fill="#eeb399"/>
        <g id="Grupo_14160" data-name="Grupo 14160" transform="translate(256.466 24.949)">
          <g id="Grupo_14159" data-name="Grupo 14159" transform="translate(0 0.247)">
            <path id="Trazado_23484" data-name="Trazado 23484" d="M401.283,319.292a4.775,4.775,0,0,0-5.166,4.329l-1.805,20.458-19.187,1.233a28,28,0,0,0,.61,9.511l23.269-1.5a4.765,4.765,0,0,0,4.441-4.337l2.165-24.532A4.766,4.766,0,0,0,401.283,319.292Z" transform="translate(-370.617 -319.273)" fill="#eeb399"/>
            <path id="Trazado_23485" data-name="Trazado 23485" d="M372.372,359.789a3.594,3.594,0,0,1-1.659-.466,1.253,1.253,0,0,1-.527-1.505c.135-.269.408-.487.419-.788.013-.38-.382-.624-.6-.931a1.455,1.455,0,0,1,.35-1.868c.175-.15.391-.285.451-.508.13-.493-.605-.913-.466-1.4.108-.376.657-.477.774-.85a2.706,2.706,0,0,0-.011-.632.9.9,0,0,1,.675-.74,2.651,2.651,0,0,1,1.058-.028l1.668.182a2.605,2.605,0,0,1,.956.229,2.509,2.509,0,0,1,1.021,1.79,11.3,11.3,0,0,1,.275,4.047,5.637,5.637,0,0,1-1.373,3.068C374.663,360.126,373.312,359.892,372.372,359.789Z" transform="translate(-369.792 -324.178)" fill="#eeb399"/>
          </g>
          <path id="Trazado_23486" data-name="Trazado 23486" d="M405.016,319a4.872,4.872,0,0,0-5.273,4.419l-1.516,17.171a30.446,30.446,0,0,0,9.538,2.595l1.669-18.912A4.864,4.864,0,0,0,405.016,319Z" transform="translate(-374.327 -318.98)" fill="#7298e2"/>
          <path id="Trazado_23487" data-name="Trazado 23487" d="M399.623,325.882l-1.4,15.807s5.848,2.508,9.538,2.595l1.574-16.274" transform="translate(-374.327 -320.081)" fill="none" stroke="#3c62a0" stroke-linecap="round" stroke-linejoin="round" stroke-width="0.283"/>
        </g>
        <g id="Grupo_14163" data-name="Grupo 14163" transform="translate(215.751 37.519)">
          <g id="Grupo_14161" data-name="Grupo 14161">
            <rect id="Rectángulo_3796" data-name="Rectángulo 3796" width="41.956" height="2.043" rx="0.5" transform="translate(20.375 21.712)" fill="#0d2638"/>
            <path id="Trazado_23488" data-name="Trazado 23488" d="M361.513,357.659H327.275a3.093,3.093,0,0,1-2.936-2.534l-2.955-18.655a2.116,2.116,0,0,1,2.134-2.535h34.237a3.1,3.1,0,0,1,2.937,2.535l2.954,18.655A2.115,2.115,0,0,1,361.513,357.659Z" transform="translate(-321.353 -333.935)" fill="#173658"/>
          </g>
          <g id="Grupo_14162" data-name="Grupo 14162" transform="translate(17.963 7.693)">
            <path id="Trazado_23489" data-name="Trazado 23489" d="M343.3,348.053a7.3,7.3,0,0,0-.493.939.9.9,0,0,0,.523,1.278,2.233,2.233,0,0,0,2.37-.64,3.572,3.572,0,0,0,.849-2.4,2.184,2.184,0,0,0-.75-1.863,1.636,1.636,0,0,0-.6-.245,1.387,1.387,0,0,0-1,.129c-.428.261-.459.749-.5,1.2A4.131,4.131,0,0,1,343.3,348.053Z" transform="translate(-342.724 -343.406)" fill="#fff"/>
            <path id="Trazado_23490" data-name="Trazado 23490" d="M345.134,344.015a1.234,1.234,0,0,1,.029-.532.564.564,0,0,1,.357-.373.7.7,0,0,1,.187-.022.567.567,0,0,1,.4.116.415.415,0,0,1,.116.319.8.8,0,0,1-.1.331,1.16,1.16,0,0,1-.56.535C345.217,344.529,345.173,344.33,345.134,344.015Z" transform="translate(-343.106 -343.088)" fill="#fff"/>
          </g>
        </g>
      </g>
      <g id="Grupo_14165" data-name="Grupo 14165" transform="translate(11.992)">
        <path id="Trazado_23491" data-name="Trazado 23491" d="M115.443,248.436a18.255,18.255,0,1,0-19.209,18.23l2.651,6.5,3.153-7.135A18.259,18.259,0,0,0,115.443,248.436Z" transform="translate(-78.934 -230.181)" fill="#fff" stroke="#1f74c2" stroke-linecap="round" stroke-linejoin="round" stroke-width="1"/>
        <path id="Trazado_23492" data-name="Trazado 23492" d="M105.448,246.651v-4.3h-4.3a3.228,3.228,0,0,0-6.457,0H90.4v15.05h4.3a3.228,3.228,0,0,1,6.457,0h4.3v-4.3a3.229,3.229,0,0,0,0-6.458Z" transform="translate(-80.762 -231.608)" fill="#5f87df"/>
      </g>
      <g id="Grupo_14166" data-name="Grupo 14166" transform="translate(276.416 2.731)">
        <path id="Trazado_23493" data-name="Trazado 23493" d="M428.346,259.371a18.255,18.255,0,1,0-25.1,8.453l-.332,7.016,5.863-5.147A18.258,18.258,0,0,0,428.346,259.371Z" transform="translate(-393.527 -233.43)" fill="#fff" stroke="#1f74c2" stroke-linecap="round" stroke-linejoin="round" stroke-width="1"/>
        <path id="Trazado_23494" data-name="Trazado 23494" d="M421.057,250.393a3.216,3.216,0,0,0-.793.11V246.1h-4.3a3.229,3.229,0,0,1-6.458,0h-4.3v4.3a3.229,3.229,0,0,0,0,6.458v4.3H409.6a3.229,3.229,0,0,1,6.458,0h4.208v-4.406a3.224,3.224,0,1,0,.793-6.348Z" transform="translate(-394.876 -235.45)" fill="#5f87df"/>
      </g>
      <g id="Grupo_14167" data-name="Grupo 14167" transform="translate(80.972 4.016)">
        <path id="Trazado_23495" data-name="Trazado 23495" d="M162.7,260.9a18.255,18.255,0,1,1,25.1,8.453l.332,7.016-5.863-5.147A18.259,18.259,0,0,1,162.7,260.9Z" transform="translate(-161.001 -234.959)" fill="#fff" stroke="#1f74c2" stroke-linecap="round" stroke-linejoin="round" stroke-width="1"/>
        <path id="Trazado_23496" data-name="Trazado 23496" d="M184.654,247.967a3.229,3.229,0,0,0-6.458,0h-4.3v15.05h4.3a3.229,3.229,0,1,1,6.458,0h4.3v-15.05Z" transform="translate(-163.058 -236.519)" fill="#5f87df"/>
      </g>
      <g id="Grupo_14168" data-name="Grupo 14168" transform="translate(204.964 7.544)">
        <path id="Trazado_23497" data-name="Trazado 23497" d="M338.544,271.364a18.255,18.255,0,1,0-26.32-2.928l-3.261,6.221,7.487-2.192A18.258,18.258,0,0,0,338.544,271.364Z" transform="translate(-308.518 -239.156)" fill="#fff" stroke="#1f74c2" stroke-linecap="round" stroke-linejoin="round" stroke-width="1"/>
        <path id="Trazado_23498" data-name="Trazado 23498" d="M336.027,256.244v-4.3h-4.3a3.229,3.229,0,1,0-6.458,0h-4.3v4.3a3.229,3.229,0,1,1,0,6.458V267h4.3a3.229,3.229,0,1,1,6.458,0h4.3v-4.3a3.229,3.229,0,0,0,0-6.458Z" transform="translate(-310.505 -240.681)" fill="#5f87df"/>
      </g>
    </g>
    <g id="Grupo_14172" data-name="Grupo 14172" transform="translate(163.682 90.246)">
      <g id="Grupo_14171" data-name="Grupo 14171" transform="translate(0.647)">
        <g id="Grupo_14170" data-name="Grupo 14170">
          <path id="Trazado_23499" data-name="Trazado 23499" d="M230.72,265.86s-.192,7.415,16.205,7.415,15.633-7.415,15.633-7.415Z" transform="translate(-195.406 -118.252)" fill="#224cb3"/>
          <rect id="Rectángulo_3797" data-name="Rectángulo 3797" width="40.998" height="21.371" rx="4.709" transform="translate(30.953 128.309)" fill="#19365a"/>
          <path id="Trazado_23500" data-name="Trazado 23500" d="M291.637,139.527C290.5,123.492,280.6,92.215,242.07,90.337v-.091q-.933,0-1.845.024-.913-.023-1.845-.024v.091c-38.53,1.878-48.43,33.155-49.567,49.19-1.172,16.536,7.422,29.425,14.582,42.315s9.765,30.141,10.872,36.391a6.819,6.819,0,0,0,6.77,6.054h38.373a6.819,6.819,0,0,0,6.77-6.054c1.107-6.249,3.711-23.5,10.872-36.391S292.809,156.063,291.637,139.527Z" transform="translate(-188.706 -90.246)" fill="#5f87df"/>
        </g>
        <path id="Trazado_23501" data-name="Trazado 23501" d="M234.281,239.522a135.537,135.537,0,0,0,6.439-42.878c-.069-5.728-.532-11.581-2.811-16.837-.411-.948-1.121-2.019-2.151-1.937-.909.072-1.469,1.019-1.763,1.882a11.328,11.328,0,0,0,9.5,14.912,5.866,5.866,0,0,0,2.663-.229c1.75-.647,2.8-2.429,3.467-4.172a20.277,20.277,0,0,0,.736-11.983c-.242-.983-.839-2.153-1.848-2.081-.712.051-1.2.725-1.524,1.362-1.724,3.42-1.526,7.538-.416,11.2a10.13,10.13,0,0,0,2.366,4.387c2.928,2.879,8.144,2.136,11.108-.706s4.071-7.125,4.352-11.222c.136-1.968-.372-4.548-2.326-4.82-2.013-.279-3.174,2.182-3.627,4.162a150.491,150.491,0,0,0-2.557,52.524c.422,3.3,1.014,6.724,3,9.384" transform="translate(-195.834 -103.953)" fill="none" stroke="#19365a" stroke-miterlimit="10" stroke-width="1"/>
        <path id="Trazado_23502" data-name="Trazado 23502" d="M205.625,112.381a17.4,17.4,0,0,0-3.544,5.611,6.708,6.708,0,0,0,.872,6.335c2.02,2.406,5.894,2.367,8.655.869s4.73-4.081,6.808-6.436c3.272-3.708,7.153-7.092,11.858-8.613,1.784-.577,3.657-.877,5.4-1.565a7.029,7.029,0,0,0,4.12-3.6,5.869,5.869,0,0,0-2.251-6.649c-4.94-3.57-11.351-.185-16.192,1.874C215.024,102.9,210.052,107.161,205.625,112.381Z" transform="translate(-190.774 -91.286)" fill="#709ce8"/>
      </g>
      <path id="Trazado_23503" data-name="Trazado 23503" d="M202.986,149.244v-4.3h-4.3a3.229,3.229,0,1,0-6.458,0h-4.3V160h4.3a3.229,3.229,0,1,1,6.458,0h4.3v-4.3a3.229,3.229,0,1,0,0-6.458Z" transform="translate(-187.936 -98.455)" fill="#d7eff9"/>
      <path id="Trazado_23504" data-name="Trazado 23504" d="M305.415,143.316a3.2,3.2,0,0,0-.793.11V139.02h-4.3a3.229,3.229,0,0,1-6.458,0h-4.3v4.3a3.229,3.229,0,0,0,0,6.458v4.3h4.384a3.229,3.229,0,0,1,6.458,0h4.208v-4.406a3.224,3.224,0,1,0,.793-6.348Z" transform="translate(-203.629 -98.024)" fill="#d7eff9"/>
      <path id="Trazado_23505" data-name="Trazado 23505" d="M221.824,210.738a3.229,3.229,0,1,0-6.458,0h-4.3v15.05h4.3a3.229,3.229,0,1,1,6.458,0h4.3v-15.05Z" transform="translate(-191.625 -108.946)" fill="#d7eff9"/>
      <path id="Trazado_23506" data-name="Trazado 23506" d="M284.068,207.554v-4.3h-4.3a3.229,3.229,0,1,0-6.458,0h-4.3v4.3a3.229,3.229,0,1,1,0,6.458v4.3h4.3a3.229,3.229,0,1,1,6.458,0h4.3v-4.3a3.229,3.229,0,1,0,0-6.458Z" transform="translate(-200.866 -107.753)" fill="#d7eff9"/>
    </g>
  </g>
</svg>
