<svg xmlns="http://www.w3.org/2000/svg" xmlns:xlink="http://www.w3.org/1999/xlink" width="390.396" height="89.502" viewBox="0 0 390.396 89.502">
  <defs>
    <clipPath id="clip-path">
      <rect width="89.502" height="89.502" fill="none"/>
    </clipPath>
  </defs>
  <g id="Grupo_16263" data-name="Grupo 16263" transform="translate(-248 -1003)">
    <g id="Grupo_16260" data-name="Grupo 16260">
      <g id="Grupo_16262" data-name="Grupo 16262">
        <path id="Rectángulo_3815" data-name="Rectángulo 3815" d="M13.191,0H377.2A13.191,13.191,0,0,1,390.4,13.191V58.5a13.19,13.19,0,0,1-13.19,13.19H13.191A13.191,13.191,0,0,1,0,58.5V13.191A13.191,13.191,0,0,1,13.191,0Z" transform="translate(248 1011.906)" fill="#bfe0e6"/>
      </g>
    </g>
    <g id="Cuadrícula_de_repetición_1" data-name="Cuadrícula de repetición 1" transform="translate(290.581 1003)" clip-path="url(#clip-path)">
      <g id="Grupo_14201" data-name="Grupo 14201" transform="translate(314.354 -52.722)">
        <path id="Trazado_23544" data-name="Trazado 23544" d="M-269.6,141.728a44.34,44.34,0,0,0,44.254-44.255A44.34,44.34,0,0,0-269.6,53.219a44.34,44.34,0,0,0-44.255,44.254A44.34,44.34,0,0,0-269.6,141.728Z" fill="#ffe9d4" fill-rule="evenodd"/>
        <circle id="Elipse_919" data-name="Elipse 919" cx="43.001" cy="43.001" r="43.001" transform="translate(-314.354 138.65) rotate(-87.618)" fill="#f49a44"/>
        <path id="Trazado_23545" data-name="Trazado 23545" d="M-312.6,97.626l16.475-18.657,43.564,11.839,14.72,13.847-31.877,35.818A43,43,0,0,1-312.6,97.626Z" fill="#c47a35" fill-rule="evenodd"/>
        <path id="Trazado_23546" data-name="Trazado 23546" d="M-269.6,117.2c16.375,0,29.73-10.888,29.73-24.237s-13.355-24.236-29.73-24.236-29.731,10.887-29.731,24.236S-285.979,117.2-269.6,117.2Z" fill="#f49a44" fill-rule="evenodd"/>
        <path id="Trazado_23547" data-name="Trazado 23547" d="M-269.6,121.941c15.426,0,28.007-10.991,28.007-24.468S-254.177,73-269.6,73-297.61,84-297.61,97.473-285.029,121.941-269.6,121.941Z" fill="#ffe9d4" fill-rule="evenodd"/>
        <g id="Grupo_14198" data-name="Grupo 14198">
          <path id="Trazado_23548" data-name="Trazado 23548" d="M-261.942,100.678a3.166,3.166,0,0,0,2.872-3.384,3.165,3.165,0,0,0-2.872-3.383,3.165,3.165,0,0,0-2.872,3.383A3.166,3.166,0,0,0-261.942,100.678Z" fill="#f49a44" fill-rule="evenodd"/>
          <path id="Trazado_23549" data-name="Trazado 23549" d="M-288.888,100.678a3.166,3.166,0,0,0,2.872-3.384,3.166,3.166,0,0,0-2.872-3.383,3.165,3.165,0,0,0-2.872,3.383A3.166,3.166,0,0,0-288.888,100.678Z" fill="#f49a44" fill-rule="evenodd"/>
        </g>
        <g id="Grupo_14199" data-name="Grupo 14199">
          <path id="Trazado_23550" data-name="Trazado 23550" d="M-242.108,106.325c2.77,0,5.029-2.6,5.029-5.785s-2.259-5.783-5.029-5.783-5.031,2.6-5.031,5.783S-244.879,106.325-242.108,106.325Z" fill="#ffe9d4" fill-rule="evenodd"/>
          <path id="Trazado_23551" data-name="Trazado 23551" d="M-297.1,106.325c2.771,0,5.031-2.6,5.031-5.785s-2.26-5.783-5.031-5.783-5.03,2.6-5.03,5.783S-299.868,106.325-297.1,106.325Z" fill="#ffe9d4" fill-rule="evenodd"/>
        </g>
        <path id="Trazado_23552" data-name="Trazado 23552" d="M-270.92,113.317c4.383,1.2,10.751.349,15.846-5.5,1.338-1.536.1-1.661-1.18-.739-5.022,3.605-10.019,5.561-14.654,5.21C-272.4,112.172-273.072,112.339-270.92,113.317Z" fill="#f49a44" fill-rule="evenodd"/>
        <path id="Trazado_23553" data-name="Trazado 23553" d="M-289.207,94.074c25.22-.932,32.992-12.066,35.95-19.23,1.017-2.463-5.648-1.984-7.336.419C-265.164,81.769-275.568,89.7-289.207,94.074Z" fill="#f49a44" fill-rule="evenodd"/>
        <path id="Trazado_23554" data-name="Trazado 23554" d="M-301.106,84.952c24.14,7.359,42.481-6.646,47.593-12.472C-263.052,66.341-284.669,56.591-301.106,84.952Z" fill="#f49a44" fill-rule="evenodd"/>
        <path id="Trazado_23555" data-name="Trazado 23555" d="M-265.558,104.551a5.358,5.358,0,0,1-8.09,0c-.509-.677-.22-.7.147-.521,1.56.75,6.209.82,7.8,0C-265.341,103.841-265.048,103.874-265.558,104.551Z" fill="#f49a44" fill-rule="evenodd"/>
        <g id="Grupo_14200" data-name="Grupo 14200">
          <path id="Trazado_23556" data-name="Trazado 23556" d="M-295.5,87.958c-1.058,6.873-2.115,11.368,0,18.769S-305.544,93.245-295.5,87.958Z" fill="#f49a44" fill-rule="evenodd"/>
          <path id="Trazado_23557" data-name="Trazado 23557" d="M-243.708,87.958c1.058,6.873,2.115,11.368,0,18.769S-233.662,93.245-243.708,87.958Z" fill="#f49a44" fill-rule="evenodd"/>
        </g>
        <path id="Trazado_23558" data-name="Trazado 23558" d="M-238.256,87.028c-15.312-.491-23.746-8.323-26.7-15.487-1.017-2.462,6.9-.431,9.1,1.52C-248.849,79.295-249.053,82.335-238.256,87.028Z" fill="#f49a44" fill-rule="evenodd"/>
        <path id="Trazado_23559" data-name="Trazado 23559" d="M-255.874,107.027c.3,0,.6-.017.915-.041,7.168-.542,8.834-3.526,9.518-7.3.751-4.141.761-5.584,1.9-5.964.838-.28,1.015-1.206.952-2.284s-.1-1.195-1.522-1.65a56.1,56.1,0,0,0-11.766-.633v1.117c3.591-.166,7.06.243,8.085.848,2.353,1.389,1.9,8.057.064,11.358-1.291,2.322-4.9,3.484-8.149,3.495Zm-13.781-15.714c-1.585.036-8.126-1.713-12.753-2.093-.3-.025-.609-.045-.925-.062v1.117c3.733.173,7.6.968,8.983,2.815,2.284,3.046-1.4,10.469-4.885,12.119a9.824,9.824,0,0,1-4.1.767v1.051a9.461,9.461,0,0,0,9.237-5.5c1.357-2.6.94-6.189,4.492-6.189s3.2,3.524,4.557,6.126a9.388,9.388,0,0,0,9.173,5.561v-1.051a9.815,9.815,0,0,1-4.1-.767c-3.49-1.65-7.17-9.073-4.886-12.119,1.386-1.847,5.25-2.642,8.983-2.815V89.158c-.316.017-.625.037-.924.062C-260.939,89.56-265.924,91.232-269.655,91.313Zm-13.678-2.155a56.154,56.154,0,0,0-11.765.633c-1.419.456-1.46.571-1.523,1.65s.114,2,.952,2.284c1.142.38,1.152,1.823,1.9,5.964.684,3.771,2.35,6.755,9.518,7.3.314.024.619.037.915.041v-1.051c-3.247-.01-6.858-1.173-8.148-3.495-1.834-3.3-2.29-9.969.063-11.358,1.025-.605,4.495-1.014,8.085-.848Z" fill="#f49a44" fill-rule="evenodd"/>
        <path id="Trazado_23560" data-name="Trazado 23560" d="M-263.995,88.9c2.69-3.771,5.994-4.554,9.746-1.961.946.654.532.746-.1.646a6.559,6.559,0,0,0-9.271,1.85C-263.968,89.975-264.663,89.838-263.995,88.9Z" fill="#f49a44" fill-rule="evenodd"/>
        <path id="Trazado_23561" data-name="Trazado 23561" d="M-276.374,88.9c-2.689-3.771-5.993-4.554-9.745-1.961-.946.654-.532.746.1.646a6.559,6.559,0,0,1,9.271,1.85C-276.4,89.975-275.7,89.838-276.374,88.9Z" fill="#f49a44" fill-rule="evenodd"/>
      </g>
    </g>
    <path id="Trazado_23562" data-name="Trazado 23562" d="M-337.5,90.121l-.808-2.427A6.743,6.743,0,0,0-336,86.261a7.62,7.62,0,0,0,1.507-1.986h.368l2.316,1.25V110.67H-335.3V89.459Z" transform="translate(604.935 950.278)" fill="#18353b"/>
    <text id="Especificar_el_problema_u_objetivo." data-name="Especificar el
problema u objetivo." transform="translate(398 1023)" font-size="24" font-family="BebasNeue-Regular, Bebas Neue" letter-spacing="0.01em"><tspan x="0" y="22">Especificar el</tspan><tspan x="0" y="44">problema u objetivo.</tspan></text>
  </g>
</svg>
