<svg id="Grupo_16234" data-name="Grupo 16234" xmlns="http://www.w3.org/2000/svg" width="130.409" height="146.785" viewBox="0 0 130.409 146.785">
  <g id="Grupo_16247" data-name="Grupo 16247" transform="translate(0 54.581)">
    <path id="Trazado_26857" data-name="Trazado 26857" d="M170.73,188.6c-2.187-2.741-4.442-5.62-5.151-9.054-.658-3.182-1.6-6.669-1.484-9.916a26.3,26.3,0,0,0-1.561-9.564c-3.366-9.62-7.387-8.04-8.806-7.108-1.4.915-1.9,2.619-1.668,5.238.189,2.107,2.852,11.746-.524,10.685-3.908-1.228-5.047-11.5-6.05-14.839-1.5-5-4.266-10.2-8.614-13.27-2.143-1.511-5.136-2.443-7.33-1.007a6.066,6.066,0,0,0-2.359,3.934c-.964,4.63,1.148,9.055,3.4,12.965.942,1.634,7.86,8.876,2.867,8.707-1.192-.04-11.895-6.471-11.866,1.566.01,2.83,3.484,5.3,8.879,8.268,3.369,1.851,15.534,6.264,15.341,9.42s-7.146-.984-5.682,4.666c.82,3.165,5.333,4.959,8.35,5.816,1.435.409,2.948.529,4.354,1.031,1.667.594,3.824,2.266,2.858,4.276-.422.878-1.384,1.41-1.777,2.3a2.772,2.772,0,0,0,.521,2.772,6.418,6.418,0,0,0,2.416,1.675c5.773,2.625,12.56,2.324,18.582.334s11.4-5.544,16.484-9.33" transform="translate(-121.583 -139.046)" fill="#b0d9c7"/>
    <g id="Grupo_16246" data-name="Grupo 16246" transform="translate(5.116 5.703)" opacity="0.25">
      <path id="Trazado_26858" data-name="Trazado 26858" d="M136.55,146.361s10.663,32.811,33.668,51.235" transform="translate(-129.997 -146.361)" fill="none" stroke="#fff" stroke-linecap="round" stroke-linejoin="round" stroke-width="1"/>
      <path id="Trazado_26859" data-name="Trazado 26859" d="M128.145,176.269s12.5,7.477,22.033,7.593" transform="translate(-128.145 -152.951)" fill="none" stroke="#fff" stroke-linecap="round" stroke-linejoin="round" stroke-width="1"/>
      <path id="Trazado_26860" data-name="Trazado 26860" d="M165.531,161.984c1.254,5.211,3.555,19.908-.563,27.648" transform="translate(-136.258 -149.803)" fill="none" stroke="#fff" stroke-linecap="round" stroke-linejoin="round" stroke-width="1"/>
      <path id="Trazado_26861" data-name="Trazado 26861" d="M150.925,204.227s4.957,3.314,19,3.161" transform="translate(-133.164 -159.111)" fill="none" stroke="#fff" stroke-linecap="round" stroke-linejoin="round" stroke-width="1"/>
      <path id="Trazado_26862" data-name="Trazado 26862" d="M166.673,220.282a22.108,22.108,0,0,0,13.2-4.16" transform="translate(-136.634 -161.732)" fill="none" stroke="#fff" stroke-linecap="round" stroke-linejoin="round" stroke-width="1"/>
    </g>
  </g>
  <g id="Grupo_16248" data-name="Grupo 16248" transform="translate(104.863 0)">
    <path id="Trazado_26863" data-name="Trazado 26863" d="M274.526,87.84a8,8,0,0,0-5.3-10.2,8.085,8.085,0,0,0-9.859,5.064,7.967,7.967,0,0,0-.006,5.187,15.457,15.457,0,0,1,.65,8.2l-.333,1.586,5.631,1.88.445-.952a17.761,17.761,0,0,1,5.861-6.8A7.954,7.954,0,0,0,274.526,87.84Z" transform="translate(-256.709 -70.863)" fill="#f7a60f"/>
    <path id="Trazado_26864" data-name="Trazado 26864" d="M262.127,99.012s5.275-11.569,4.449-13.331-2.821-.871-2.971.847-1.478,6.987,6.174,3.616c2.329-1.026,1.268-4.3-.543-4.17s-4.563,13.887-4.563,13.887" transform="translate(-257.413 -72.495)" fill="none" stroke="#fff" stroke-miterlimit="10" stroke-width="0.516"/>
    <path id="Trazado_26865" data-name="Trazado 26865" d="M261.409,107.4h0a3.32,3.32,0,0,1-2.1-4.2l.327-.982a.608.608,0,0,1,.77-.384l5.146,1.717a.609.609,0,0,1,.384.77l-.327.982A3.32,3.32,0,0,1,261.409,107.4Z" transform="translate(-256.754 -76.259)" fill="#4c4051"/>
    <path id="Trazado_26866" data-name="Trazado 26866" d="M259.4,77.946s-4.025-2.836-3.215-3.84S259.4,77.946,259.4,77.946Z" transform="translate(-256.081 -70.126)" fill="#f7a60f"/>
    <path id="Trazado_26867" data-name="Trazado 26867" d="M265.718,73.723s-3.013-3.9-1.943-4.616S265.718,73.723,265.718,73.723Z" transform="translate(-257.725 -69.04)" fill="#f7a60f"/>
    <path id="Trazado_26868" data-name="Trazado 26868" d="M282.592,86.066s4.922.15,4.876-1.14S282.592,86.066,282.592,86.066Z" transform="translate(-261.922 -72.457)" fill="#f7a60f"/>
    <path id="Trazado_26869" data-name="Trazado 26869" d="M280.219,78.9s4.748-1.306,4.325-2.525S280.219,78.9,280.219,78.9Z" transform="translate(-261.399 -70.602)" fill="#f7a60f"/>
    <path id="Trazado_26870" data-name="Trazado 26870" d="M272.919,74.188s.313-4.914,1.593-4.747S272.919,74.188,272.919,74.188Z" transform="translate(-259.791 -69.128)" fill="#f7a60f"/>
  </g>
  <g id="Grupo_16253" data-name="Grupo 16253" transform="translate(38.108 28.696)">
    <g id="Grupo_16251" data-name="Grupo 16251" transform="translate(0 83.684)">
      <path id="Trazado_26871" data-name="Trazado 26871" d="M243.267,228.483a11.361,11.361,0,0,0-7.031-9.579c-3.4-1.6-7.224-1.972-10.95-2.45-8.3-1.065-16.222-2.129-24.6-1.8-6.7.264-10.83,5.98-13.967,11.618-1.976,3.554-1.428,5.221,1.061,8.2a30.071,30.071,0,0,0,8.189,6.846c6.158,3.5,15.618,2.634,22.4,1.878,6.4-.713,12.046-.826,17.755-3.809C239.8,237.466,243.777,232.892,243.267,228.483Z" transform="translate(-173.778 -213.491)" fill="#3d3342"/>
      <g id="Grupo_16249" data-name="Grupo 16249" transform="translate(46.166 24.573)">
        <path id="Trazado_26872" data-name="Trazado 26872" d="M238.142,246.652a4.457,4.457,0,0,1,3.344-.875c1.465.11,5.5,1.468,7.481,1.637s4.074-.053,5.034,1.747c1.629,3.053.535,5.546-2.74,5.6-1.782.031-3.116-1.279-5.939-1.289-2.737-.009-6.869-1.346-7.9-3.406" transform="translate(-231.379 -244.93)" fill="#4c4051"/>
        <path id="Trazado_26873" data-name="Trazado 26873" d="M232.749,244.7a21.159,21.159,0,0,0,3.557,1.073c1.44.225,4.726.2,6.1,1.27,1.487,1.162.621,3.811-.451,4.347-1.732.866-2.992.2-5.872-1.044a18.682,18.682,0,0,0-6.408-1.243" transform="translate(-229.672 -244.696)" fill="#ffd1ab"/>
        <path id="Trazado_26874" data-name="Trazado 26874" d="M246.521,248.168s-1.035-.724-1.468-.1a9.7,9.7,0,0,0-.772,3.848c.264.809,1.9.7,1.9.7l1.675-3.406Z" transform="translate(-232.885 -245.383)" fill="#4c4051"/>
      </g>
      <path id="Trazado_26875" data-name="Trazado 26875" d="M177.574,233.177c-2.8-1.363-5.616-3-6.723-6.278s.151-8.66,3.62-11.659c4.228-3.657,8.549-1.74,11.706.32,6.466,4.211,10.218,8.536,17.967,12.811,2.293,1.265,15.164,8.02,15.164,8.02.245.89-1.247,7.182-2.376,7.171C204.609,243.49,187.59,238.053,177.574,233.177Z" transform="translate(-170.46 -213.179)" fill="#4c4051"/>
      <g id="Grupo_16250" data-name="Grupo 16250" transform="translate(6.496 23.737)">
        <path id="Trazado_26876" data-name="Trazado 26876" d="M195.875,245.628a4.562,4.562,0,0,0-3.426-.9c-1.5.112-5.641,1.5-7.666,1.677s-4.058-.054-5.2,1.44c-2.157,2.815.444,5.785,3.8,5.843,1.825.032,2.248-1.064,5.141-1.073,2.8-.009,7.037-1.379,8.094-3.491" transform="translate(-178.792 -243.864)" fill="#4c4051"/>
        <path id="Trazado_26877" data-name="Trazado 26877" d="M202.521,243.624a21.621,21.621,0,0,1-3.644,1.1c-1.475.232-4.842.2-6.248,1.3-1.523,1.191-.636,3.9.463,4.454,1.775.887,3.066.2,6.017-1.07a19.154,19.154,0,0,1,6.566-1.272" transform="translate(-181.662 -243.624)" fill="#ffd1ab"/>
        <path id="Trazado_26878" data-name="Trazado 26878" d="M191.284,247.181s1.061-.741,1.5-.105a9.934,9.934,0,0,1,.791,3.943c-.27.829-1.948.713-1.948.713l-1.716-3.491Z" transform="translate(-181.243 -244.328)" fill="#4c4051"/>
      </g>
      <path id="Trazado_26879" data-name="Trazado 26879" d="M242.807,236.872c3.318-1.258,6.719-2.783,8.675-5.914s1.874-8.339-1.133-11.294c-3.666-3.6-8.742-1.842-12.606.08-7.913,3.929-16.707,8.628-24.9,11.956-2.769,1.125-11.966,5.5-11.966,5.5-.471.852.855,7.223,2.03,6.931" transform="translate(-177.14 -214.148)" fill="#594a5f"/>
    </g>
    <g id="Grupo_16252" data-name="Grupo 16252" transform="translate(6.496)">
      <path id="Trazado_26880" data-name="Trazado 26880" d="M250.418,135.4c.218.6,1.835-2.671,2.921-2.061.158.083.924,1.237,1.1,1.381.345.281,1.077.047,1.451,1,.833,2.146.8,6.378-2.7,8.193-.051.112-3.225,13.777-5.166,20.543l-5.381-5.033c1.475-3.723,4.55-10.252,6.718-16.177a5.165,5.165,0,0,0,.21-3.807,24.638,24.638,0,0,1-1.435-5.634c-.025-.579,1.284-5.482,1.859-4.944.33.309.313,2.1-.062,4.084A4.118,4.118,0,0,0,250.418,135.4Z" transform="translate(-192.86 -110.91)" fill="#ffe1bd"/>
      <path id="Trazado_26881" data-name="Trazado 26881" d="M184.48,177.767c-2.3,4.259-5.069,8.471-5.618,13.279-.2,1.782-.012,3.778,1.265,5.036s5.076,1.365,6.856,1.458c2.489-7.751,3.122-15.454,5.61-23.205l3.7-11.521c.929-2.893,3.494-7.644,3.181-10.589-3.574.052-6.619,8.169-7.919,10.8C189.141,167.915,187.07,172.968,184.48,177.767Z" transform="translate(-178.792 -116.065)" fill="#f9b253"/>
      <path id="Trazado_26882" data-name="Trazado 26882" d="M225.706,201.227a35.048,35.048,0,0,1-5.053,2.639,27.59,27.59,0,0,1-7.9,1.569,65.3,65.3,0,0,1-20.714-1.713c-2.874-.711-4.214-2.118-4.276-4.705a12.09,12.09,0,0,1,.226-2.315c.784-4.225.062-8.129,1.838-12.029,2.151-4.714,2.678-10.352,4.16-15.313,1.374-4.6,2.763-9.216,4.294-13.764a9.8,9.8,0,0,1,4.234-5.527c2.6-1.45,5.593-.844,8.436-1.3,2.741-.44,7.037-1.367,10.4,2.053,1.492,1.52-.539,1.138-.052,2.988,1.608,6.127,2.858,12.333,3.884,18.583C225.667,175.388,227.848,199.96,225.706,201.227Z" transform="translate(-180.769 -115.204)" fill="#f9b253"/>
      <path id="Trazado_26883" data-name="Trazado 26883" d="M203.585,214.619l-15.767-1.325a18.35,18.35,0,0,1,.185-2.92,115.161,115.161,0,0,0,12.5.327C208.88,209.973,203.585,214.619,203.585,214.619Z" transform="translate(-180.78 -128.878)" fill="#e59a41"/>
      <path id="Trazado_26884" data-name="Trazado 26884" d="M236.744,162.628a91.014,91.014,0,0,1,4.967-9.053c.557-.89,1.7-3.532,2.7-3.873,1.142-.387,3.846.879,4.926,1.29a167.445,167.445,0,0,1-6.374,21.823,7.453,7.453,0,0,1-1.588,2.877c-1.637,1.591-4.428,1.357-6.33.1s-3.128-3.293-4.289-5.258c-2.034-3.441-4.365-7.079-5.37-10.992-.624-2.426-2.719-6.5-.487-8.6s4.241-.338,5.642,1.612c1.149,1.6,2.213,3.27,3.245,4.947C234.174,158.129,237.03,162.03,236.744,162.628Z" transform="translate(-188.73 -115.493)" fill="#f9b253"/>
      <path id="Trazado_26885" data-name="Trazado 26885" d="M226.016,120.169c2.236,3.632.526,8.726,2.781,12.347.9,1.449,2.4,2.567,2.855,4.212a3.738,3.738,0,0,1-5.261,4.353,4.632,4.632,0,0,0-.84-.39c-1.075-.283-2.014.689-2.914,1.341a4.5,4.5,0,0,1-3.862.791c-1.671-.51-2.739-2.151-3.335-3.793-1.666-4.59-.707-9.689.593-14.395.649-2.351,1.631-4.967,3.9-5.876" transform="translate(-186.671 -108.691)" fill="#2c1e56"/>
      <path id="Trazado_26886" data-name="Trazado 26886" d="M213.834,141.712s.023,4.243.681,4.5a16.631,16.631,0,0,0,2.764.774l.278,8.775-11.747-1.449-8.17-4.265s8.291-3,8.342-3.834-.608-5.515-.608-5.515" transform="translate(-182.945 -113.526)" fill="#ffe1bd"/>
      <path id="Trazado_26887" data-name="Trazado 26887" d="M222.756,119.1s.89,8.18-.393,12.514c-.951,3.211-5.124,6.295-8.68,6.35-9.789.264-11.9-12.987-11.868-13.631s14.27-6.612,14.27-6.612Z" transform="translate(-183.864 -108.462)" fill="#ffe1bd"/>
      <path id="Trazado_26888" data-name="Trazado 26888" d="M222.713,166.105s-22.355,11.558-24.3,11.073-19.541,12.956-19.541,12.956,1.817-33.454,12.808-38.616c5.6-2.623,2.776-2.74,7.751-2.78l2.2-.169c2.48,2.889,7.6,7.174,9.692,5.129,1.573-1.54.194-4.22-.257-5.612,3.162.423,6.493,1.132,8.321,2.689C224.493,155.139,222.713,166.105,222.713,166.105Z" transform="translate(-178.811 -115.153)" fill="#f9b253"/>
      <path id="Trazado_26889" data-name="Trazado 26889" d="M198.374,166.308s-6.174,24.214-5.328,24.711,12.751,2.2,12.751,2.2l.146-.666-11.306-2.294S199.123,171.487,198.374,166.308Z" transform="translate(-181.915 -119.168)" fill="#e59a41"/>
      <path id="Trazado_26890" data-name="Trazado 26890" d="M194.8,141.515c-.221-.111-.437-.23-.649-.349a5.392,5.392,0,0,1-2.7-2.578c-.73-1.819-1.131-4.629-.228-6.436.612-1.223,1.8-2.045,2.6-3.154a9.508,9.508,0,0,0,1.439-5.394,35.257,35.257,0,0,1,.23-5.657c.593-3.177,1.411-6.209,3.791-8.31,3.812-3.363,11.576-5.505,15.924-1.984.791.64.956,1.166,2,1.24a7.7,7.7,0,0,1,3.6.946c1.417.769,3.138,1.86,2.991,3.7a6.552,6.552,0,0,1-2.554,3.942,3.24,3.24,0,0,1-1.494.377c-1.656.076-3.06-.965-4.681-.747a3.1,3.1,0,0,0-2.01,1.187c-.567.739-.461,1.746-1.127,2.44-1.068,1.114-2.772,1.069-4.053,1.81a1.366,1.366,0,0,0-.547.476,1.46,1.46,0,0,0-.124.7l-.02,2.056c-.653-.267-.745-1.184-1.289-1.631a1.479,1.479,0,0,0-1.861.171,3.122,3.122,0,0,0-.851,1.81,5.149,5.149,0,0,0,.429,2.443c.462,1.384,1.692,2.609,2.633,1.661.728,1.011.009,2.752.015,3.919,0,.925.07,2.756.951,3.34.809.536,2.057.08,2.144,1.516a2.767,2.767,0,0,1-2.514,2.576,9.672,9.672,0,0,1-3.881-.57,6.054,6.054,0,0,0-3.878-.086,11.756,11.756,0,0,1-2.149,1.037A3.4,3.4,0,0,1,194.8,141.515Z" transform="translate(-181.417 -105.846)" fill="#2c1e56"/>
      <path id="Trazado_26891" data-name="Trazado 26891" d="M227.308,161.847s3.533,6.265,3.541,8.225a30.006,30.006,0,0,1-1.162,5.935l.954-.062a32.518,32.518,0,0,0,1.681-5.067,8.182,8.182,0,0,0-1.24-4.761c-1.179-2.137-3.359-5.271-4.075-5.594S227.308,161.847,227.308,161.847Z" transform="translate(-189.359 -117.884)" fill="#e59a41"/>
    </g>
    <path id="Trazado_26892" data-name="Trazado 26892" d="M185.576,214.063l50.781-.2L201.083,221.7Z" transform="translate(-173.791 -129.646)" fill="#82ccd8"/>
    <path id="Trazado_26893" data-name="Trazado 26893" d="M205.466,215.606l41.086-3.169,7.285-32.077-41.326,3.487Z" transform="translate(-178.173 -122.264)" fill="#97deef"/>
    <path id="Trazado_26894" data-name="Trazado 26894" d="M201.083,223.045l-15.507-7v-1.92l15.877,7.257Z" transform="translate(-173.791 -129.703)" fill="#75c1c9"/>
    <path id="Trazado_26895" data-name="Trazado 26895" d="M212.321,184.637l-1.073-.694-6.641,30.3,1.04.489Z" transform="translate(-177.984 -123.054)" fill="#75c1c9"/>
    <path id="Trazado_26896" data-name="Trazado 26896" d="M213.124,182.92l41.093-3.622,1.307.828L214.2,183.614Z" transform="translate(-179.86 -122.03)" fill="#75c1c9"/>
    <path id="Trazado_26897" data-name="Trazado 26897" d="M240.465,201.677c.205,1.52-1.276,2.975-3.307,3.249s-3.845-.736-4.05-2.257,1.276-2.975,3.307-3.25S240.26,200.156,240.465,201.677Z" transform="translate(-184.259 -126.454)" fill="#a7e8f2"/>
  </g>
</svg>
