<svg xmlns="http://www.w3.org/2000/svg" width="550" height="373.352" viewBox="0 0 550 373.352">
  <g id="men" transform="translate(-31.979 -32.46)">
    <g id="background" transform="translate(31.979 32.46)">
      <g id="leaves">
        <g id="leaves-2" data-name="leaves" transform="translate(0 23.082)">
          <path id="Trazado_24267" data-name="Trazado 24267" d="M181.371,184.91c-3.07-22.153-18.356-55.011-39.89-85.753-10.094-14.411-20.573-26.894-30.308-36.1C100.678,53.129,91.418,47.44,84.393,46.6l-.313-.038-.231.216c-7.819,7.29-12.905,25.974-14.323,52.608a314.721,314.721,0,0,0,5.827,77.486c1.113,5.339,2.365,10.444,3.724,15.171a119.393,119.393,0,0,0,9.08,23.326c10.341,19.2,27.353,30.3,46.071,30.3q1.939,0,3.905-.16A46.968,46.968,0,0,0,174.49,223C180.97,212.346,183.348,199.175,181.371,184.91Zm-7.2-22.068L137.756,207.38l-24.688-74.959,25.109-35.577q1.095,1.527,2.192,3.092C155.373,121.357,167.316,143.781,174.174,162.842Zm-64.612-41.071c1.481-2.466,12.954-21.562,21.13-34.921q3.309,4.228,6.643,8.828l-24.8,35.135ZM129.8,85.711c-7.49,12.229-17.914,29.56-20.8,34.356L85.3,48.116C96.38,50.178,112.686,64.077,129.8,85.711ZM84.013,48.538l16.938,51.435c-5.442-4.142-16.236-12.431-27.883-21.793.638-3.923,1.393-7.573,2.26-10.927C77.586,58.542,80.506,52.259,84.013,48.538ZM70.884,99.459c.381-7.156,1.031-13.75,1.941-19.732C85.506,89.906,97.081,98.744,101.7,102.248l23.6,71.645L72.525,150.287A313.713,313.713,0,0,1,70.884,99.459Zm1.823,52.4,53.165,23.783,7.62,23.14L78.27,183.646q-.832-3.442-1.586-7.051C75.039,168.7,73.709,160.368,72.707,151.857Zm65.316,92.3q-1.9.155-3.786.155c-18.212,0-34.788-10.838-44.883-29.587a117.937,117.937,0,0,1-8.971-23.056c-.6-2.1-1.183-4.277-1.741-6.512L134,200.328l13.807,41.929A45.633,45.633,0,0,1,138.023,244.157Zm11.08-2.321L138.26,208.91l36.449-44.575a110.419,110.419,0,0,1,5.316,20.762C184.249,215.57,167.637,235.454,149.1,241.836Z" transform="translate(-8.32 -46.563)" fill="#e6edb0"/>
          <g id="Grupo_14469" data-name="Grupo 14469" transform="translate(0 140.569)">
            <path id="Trazado_24268" data-name="Trazado 24268" d="M107.1,234.012c20.135,9.917,38.438,3.715,47.855-9.044,7.692-10.429,3.678-38.716-5.465-48.394C125.072,150.725,51.52,124.716,32.564,135.08,28.248,156.25,75.2,218.3,107.1,234.012Z" transform="translate(-31.783 -132.259)" fill="#c2cc76" fill-rule="evenodd"/>
            <path id="Trazado_24269" data-name="Trazado 24269" d="M159.236,200.616c-1.272-10.28-4.789-19.554-9.182-24.2-11.336-12-34.6-25.2-60.71-34.456-26.15-9.269-47.926-12-56.828-7.134l-.208.115-.047.231c-1.043,5.116.817,12.9,5.378,22.5q.466.98.969,1.98l-.008.128A189.575,189.575,0,0,0,56.04,187.09c4.306,5.706,8.81,11.154,13.378,16.226l.016.083A206.858,206.858,0,0,0,87.3,220.939c7.054,6.061,13.794,10.774,19.773,13.719a45.335,45.335,0,0,0,20,4.953,36.828,36.828,0,0,0,8.287-.931,34.833,34.833,0,0,0,20.205-13.22C159.177,220.553,160.552,211.266,159.236,200.616Zm-23.228-34.552c-.02,0-2.848,42.649-2.848,42.649L86.229,174.246,86.079,141.9q1.453.5,2.926,1.013C107.069,149.319,123.747,157.609,136.008,166.064ZM79.56,169.347c-.169-2.147-1.466-18.706-2.273-30.238q3.8,1.117,7.771,2.45l.149,31.937Zm-3.316-30.539c.737,10.555,1.905,25.575,2.231,29.744L33.459,135.49C40.847,131.844,56.608,133.143,76.244,138.808Zm-43.155-2.326L65.014,159.93c-5-.157-14.858-.509-25.7-1.133C34.732,149.528,32.5,141.754,33.089,136.482Zm6.743,23.366c11.828.673,22.393,1.021,26.629,1.146l44.854,32.942-41.464,8.342c-4.435-4.948-8.809-10.252-13-15.8A182.241,182.241,0,0,1,39.832,159.848Zm30.812,43.309,41.782-8.406L126.9,205.382,87.555,219.821A197.554,197.554,0,0,1,70.645,203.156Zm56.266,35.4a43.769,43.769,0,0,1-19.392-4.812,96.707,96.707,0,0,1-19.077-13.162l39.446-14.475,26.375,19.37A34.438,34.438,0,0,1,126.911,238.557Zm27.963-13.9-20.742-15.233,2.833-42.7a82.156,82.156,0,0,1,12.347,10.382c4.252,4.5,7.666,13.555,8.912,23.629C159.493,211,158.239,219.911,154.874,224.661Z" transform="translate(-31.979 -132.448)" fill="#e6edb0"/>
          </g>
        </g>
        <g id="leaves-3" data-name="leaves" transform="translate(354.276)">
          <g id="Grupo_14470" data-name="Grupo 14470" transform="translate(0)">
            <path id="Trazado_24270" data-name="Trazado 24270" d="M248.92,179.154c-1.406,30.4,16.226,49.775,37.187,54.559,17.128,3.9,50.1-16.424,57.17-33.033C362.155,156.325,354.59,50.83,331.43,32.9,302.785,39.011,251.144,131,248.92,179.154Z" transform="translate(-248.178 -32.183)" fill="#e6edb0" fill-rule="evenodd"/>
            <path id="Trazado_24271" data-name="Trazado 24271" d="M354.036,107.11c-2.665-37.511-11.071-66.044-21.942-74.462l-.242-.188-.3.064c-6.915,1.476-15.57,8-25.027,18.876q-.95,1.093-1.907,2.239l-.187.069.039.106a247.7,247.7,0,0,0-24.521,36.4c-4.746,8.431-9.067,16.964-12.889,25.375l-.116.082.048.07a269.349,269.349,0,0,0-12.138,31.611l-.079.075c-3.638,12.012-5.843,22.947-6.26,31.973-.664,14.392,2.91,27.292,10.337,37.31a47.189,47.189,0,0,0,27.366,17.925,21.513,21.513,0,0,0,4.768.5c7.738,0,17.828-3.331,28.074-9.4,12.079-7.149,21.69-16.545,25.084-24.519C352.9,180.627,356.7,144.569,354.036,107.11ZM314.7,109.783c2.525-1.347,22.472-11.977,36.39-19.246q.675,5.352,1.178,11.046L312.59,119.117Zm36.21-20.645c-12.766,6.661-30.9,16.315-35.826,18.938l16.7-73.977C340.338,41.283,347.292,61.608,350.908,89.137ZM330.4,34.195,318.546,86.717c-2.506-6.27-7.439-18.766-12.573-32.657C315.036,43.306,323.515,36.308,330.4,34.195ZM281.1,90.862a247.064,247.064,0,0,1,23.891-35.631c5.591,15.094,10.9,28.433,13.038,33.763L301.4,162.661l-32.9-47.065C272.252,107.4,276.474,99.082,281.1,90.862Zm19.907,73.547-5.377,23.819-39.325-41.114A267.649,267.649,0,0,1,267.873,117Zm-51.171,15.053c.4-8.75,2.512-19.321,6.026-30.9l39.42,41.212L285.507,233.1C266.572,228.3,248.424,210.034,249.839,179.462ZM342.924,200.7c-3.288,7.728-12.691,16.886-24.539,23.9C306.3,231.748,294.53,235.021,286.8,233.4l7.691-34.078,54.656-19.655A111.361,111.361,0,0,1,342.924,200.7Zm6.508-22.477c-.02-.054-54.6,19.573-54.6,19.573l17.395-77.067,40.158-17.748q.177,2.094.329,4.226C354.558,133.146,353.3,158.389,349.432,178.219Z" transform="translate(-248.436 -32.46)" fill="#fdf9d6"/>
          </g>
          <path id="Trazado_24272" data-name="Trazado 24272" d="M418.956,80.288l-.118-.393-.376-.164c-7.84-3.395-23.081-1.175-42.916,6.252a249.21,249.21,0,0,0-54.389,28.77c-3.524,2.5-6.835,5.028-9.837,7.512a94.689,94.689,0,0,0-14.085,14.012c-11.468,14.614-13.738,31.858-6.071,46.125a37.479,37.479,0,0,0,28.071,19.408,39.2,39.2,0,0,0,5.282.355c8.228,0,16.676-2.537,24.724-7.463C382.125,174.576,425.778,102.933,418.956,80.288Zm-9.715-.37a24.1,24.1,0,0,1,7.188.943l-30.646,27.407c1.344-5.493,3.779-15.234,6.658-25.825A70.137,70.137,0,0,1,409.24,79.918Zm-18.771,3.044c-3.27,12.092-5.931,22.925-7.01,27.382l-43.8,39.165.409-44.692C356.66,95.295,375.143,87.16,390.469,82.962Zm-18.249,39.8c2.774.362,19.356,2.524,31.336,4.18q-1.856,3.415-3.93,6.943l-32.389-6.668Zm-50.042-6.57c4.984-3.534,10.427-7.018,16.118-10.349l-.412,45.256-13.766,12.31-6.375-43.967Q319.893,117.816,322.178,116.194Zm-29.459,65.375c-7.324-13.632-5.118-30.156,5.905-44.2a92.91,92.91,0,0,1,13.82-13.742c1.183-.979,2.417-1.964,3.691-2.953l6.4,44.15L296.92,187.732A35.785,35.785,0,0,1,292.719,181.568Zm55.6,11.629c-8.228,5.036-16.28,7.149-23.649,7.149a36.4,36.4,0,0,1-26.578-11.295l20.03-17.91,43.05,12.1A85.793,85.793,0,0,1,348.319,193.2Zm14.365-11.368-43-12.084L365.6,128.683l33.076,6.81q-.638,1.07-1.3,2.147C386.659,155.195,374.263,170.861,362.685,181.829Zm41.762-56.545c-10.648-1.476-25.305-3.4-30.488-4.074L417.6,82.181C419.252,90.877,414.38,106.63,404.447,125.284Z" transform="translate(-224.084 -3.35)" fill="#eba71e"/>
        </g>
      </g>
      <path id="background-2" data-name="background" d="M531.046,248.273S526,324.138,449.3,345.689s-126.661,31.516-185.309,36.831S72.93,368.59,93.334,222.625,205.3,49.692,263.14,77.635s64.339,49.3,164.023,61.717S531.046,248.273,531.046,248.273Z" transform="translate(5.739 -9.932)" fill="#f6f6f6" fill-rule="evenodd"/>
    </g>
    <g id="man_2" transform="translate(280.181 95.566)">
      <g id="head" transform="translate(70.298 0)">
        <path id="Trazado_24273" data-name="Trazado 24273" d="M237.409,117.33s-.606-2.9,12.778-2.9,19.737-16.225,19.57-21.243-2.007-10.372-4.851-13.048-32.953,6.524-32.953,6.524.255,3.283.928,8.252A165.129,165.129,0,0,0,237.409,117.33Z" transform="translate(-223.157 -65.52)" fill="#f97070" fill-rule="evenodd"/>
        <path id="Trazado_24274" data-name="Trazado 24274" d="M252.835,144.861a52.13,52.13,0,0,0,31.508-15.634L268.917,98.135a9.5,9.5,0,0,0-.236-6.4c-1.142-2.458-3.532-3.239-5.285-1.8-2.843,2.342-2.008,24.757-2.008,24.757.628,11.714-6.593,17.018-12.09,19.351Z" transform="translate(-212.113 -59.429)" fill="#f97070" fill-rule="evenodd"/>
        <g id="Grupo_14474" data-name="Grupo 14474">
          <path id="Trazado_24275" data-name="Trazado 24275" d="M235.373,92.158s30.11-9.2,32.953-6.524,4.684,8.028,4.851,13.048-6.188,21.243-19.57,21.243-12.778,2.9-12.778,2.9c3.4,11.891,8.75,23.04,16.958,24.531a24.764,24.764,0,0,0,5.976-1.725c5.5-2.332,12.719-7.637,12.09-19.351,0,0-.835-22.415,2.008-24.757,1.753-1.444,4.142-.663,5.285,1.8,0,0-.1-16.85-3.779-22.7s-5.688-3.178-5.688-3.178-.169-5.521-7.694-6.19-36.133-.836-38.976,13.383,9.292,15.779,9.292,15.779C235.629,95.442,235.373,92.158,235.373,92.158Z" transform="translate(-226.578 -71.017)" fill="#25217c" fill-rule="evenodd"/>
          <path id="Trazado_24276" data-name="Trazado 24276" d="M265.267,80.017c-2.82-2.655-28.218,4.9-33.281,6.447a.335.335,0,1,0,.195.642c5.45-1.66,10.907-3.164,16.22-4.468,9.431-2.316,15.39-3.088,16.406-2.133,3.079,2.9,4.6,8.526,4.745,12.814.123,3.679-2.642,9.409-4.645,12.3-2.714,3.92-7.447,8.594-14.59,8.594-2.092,0-8.455,0-11.555,1.462-.295.139-1.751.881-1.55,1.843a.335.335,0,0,0,.327.268.349.349,0,0,0,.329-.4c-.077-.368.779-.91,1.18-1.1,2.964-1.4,9.215-1.4,11.269-1.4,7.434,0,12.337-4.832,15.141-8.884,1.915-2.766,4.9-8.66,4.765-12.706C270.075,88.87,268.486,83.046,265.267,80.017Z" transform="translate(-223.287 -65.643)" fill="#fff"/>
          <path id="Trazado_24277" data-name="Trazado 24277" d="M269.117,91.726a4.66,4.66,0,0,0-2.993-2.645,3.194,3.194,0,0,0-2.809.733c-2.71,2.232-2.316,21.568-2.131,25.033a18.756,18.756,0,0,1-3.676,12.969,20.261,20.261,0,0,1-8.21,6.054.336.336,0,0,0,0,.62.339.339,0,0,0,.126.025.334.334,0,0,0,.131-.026,20.943,20.943,0,0,0,8.476-6.259c2.818-3.6,4.1-8.115,3.818-13.419-.165-3.635-.5-22.513,1.885-24.48a2.562,2.562,0,0,1,2.244-.594,3.976,3.976,0,0,1,2.524,2.272.336.336,0,1,0,.609-.283Z" transform="translate(-212.244 -59.565)" fill="#fff"/>
          <g id="Grupo_14473" data-name="Grupo 14473" transform="translate(10.368 25.474)">
            <g id="Grupo_14471" data-name="Grupo 14471" transform="translate(2.771 4.917)">
              <path id="Trazado_24278" data-name="Trazado 24278" d="M237.9,93.2c.393.856.259,2.383-.609,2.768s-2.088-.522-2.48-1.372-.227-2.39.609-2.768C236.284,91.436,237.506,92.347,237.9,93.2Z" transform="translate(-234.606 -88.218)" fill="#232323" fill-rule="evenodd"/>
              <path id="Trazado_24279" data-name="Trazado 24279" d="M248.589,91.05c.393.856.228,2.388-.609,2.768-.867.388-2.09-.522-2.481-1.372s-.257-2.383.61-2.768S248.2,90.2,248.589,91.05Z" transform="translate(-227.804 -89.585)" fill="#232323" fill-rule="evenodd"/>
            </g>
            <g id="Grupo_14472" data-name="Grupo 14472">
              <path id="Trazado_24280" data-name="Trazado 24280" d="M244.142,87.142A7.718,7.718,0,0,1,245.4,86.8a11.247,11.247,0,0,1,6.249.538.585.585,0,0,1-.445,1.082,9.9,9.9,0,0,0-5.578-.491,8.243,8.243,0,0,0-.808.2c-.088.031-.149.049-.208.067a.608.608,0,0,1-.815-.3A.6.6,0,0,1,244.142,87.142Z" transform="translate(-226.006 -86.581)" fill="#232323" fill-rule="evenodd"/>
              <path id="Trazado_24281" data-name="Trazado 24281" d="M232.972,90.6a3.782,3.782,0,0,1,.864-1.026,6.2,6.2,0,0,1,2.933-1.383,10.682,10.682,0,0,1,3.416-.085.576.576,0,0,1,.506.635.586.586,0,0,1-.655.506,9.558,9.558,0,0,0-3.041.067,5.049,5.049,0,0,0-2.388,1.119,2.943,2.943,0,0,0-.494.517c-.051.064-.1.116-.1.139a.576.576,0,1,1-1.043-.489Z" transform="translate(-232.913 -85.671)" fill="#232323" fill-rule="evenodd"/>
            </g>
            <path id="Trazado_24282" data-name="Trazado 24282" d="M239.924,94.138l.638,9.882,3.692-.741a.286.286,0,0,1,.113.56l-4.056.815a.26.26,0,0,1-.234-.064.335.335,0,0,1-.108-.229l-.617-10.246a.279.279,0,0,1,.291-.273A.3.3,0,0,1,239.924,94.138Z" transform="translate(-228.813 -81.958)" fill="#232323" fill-rule="evenodd"/>
            <path id="Trazado_24283" data-name="Trazado 24283" d="M250.5,102.864s-2.647,2.663-9.589,5.1c0,0,2.9,2.334,5.54,1.365S250.5,102.864,250.5,102.864Z" transform="translate(-227.822 -76.214)" fill="#fefefe" fill-rule="evenodd"/>
          </g>
        </g>
      </g>
      <g id="body" transform="translate(0 69.462)">
        <path id="pants" d="M369.273,227.912c-2.633-4.717-4.321-7.742-4.321-7.742-14.051,17.4-80.961,27.6-83.637,27.266l1.789,13.388c14.094-3.571,29.037-7.589,45.163-12.121A112.628,112.628,0,0,0,369.273,227.912Z" transform="translate(-121.429 -45.513)" fill="#c2cc76" fill-rule="evenodd"/>
        <g id="body-2" data-name="body">
          <g id="Grupo_14476" data-name="Grupo 14476" transform="translate(0 10.485)">
            <path id="Trazado_24284" data-name="Trazado 24284" d="M354.722,227.785s-.653,24.93,2.116,26.778,4.308-10.616,4.308-10.616-.154,18.306,6.769,24.46,5.6-42.07,5.6-42.07Z" transform="translate(-74.734 -52.071)" fill="#f97070" fill-rule="evenodd"/>
            <g id="Grupo_14475" data-name="Grupo 14475" transform="translate(0 159.989)">
              <path id="Trazado_24285" data-name="Trazado 24285" d="M185.131,238.741c2.676,3.262,23.92.669,23.92.669a2.584,2.584,0,0,0,.052-1.124,3.32,3.32,0,0,0-.247-.805c-2.064-4.645-14.74-9.319-19.879-9.612-5.462-.313-6.409,6.584-4.339,10.159A5.341,5.341,0,0,0,185.131,238.741Z" transform="translate(-183.627 -211.092)" fill="#f97070" fill-rule="evenodd"/>
              <path id="Trazado_24286" data-name="Trazado 24286" d="M191.249,230.878c3.679,1,9.869-6.021,9.869-6.021s6.75-1.318,12.108-1.872c-2.038-2.218-6.359-5.977-11.743-5.287C193.925,218.666,187.568,229.875,191.249,230.878Z" transform="translate(-179.458 -217.614)" fill="#f97070" fill-rule="evenodd"/>
            </g>
            <path id="Trazado_24287" data-name="Trazado 24287" d="M377.217,270.857C367.388,281,348.175,288.009,330.466,292.6a2.267,2.267,0,0,0-.447-.882c-24.871-30.284-41.757-67.763-52.515-105.251a377.133,377.133,0,0,1-9.136-39.682c-.907-5.241-1.787-10.693-2.3-15.992a2.276,2.276,0,1,0-4.53.437c.522,5.416,1.417,10.977,2.344,16.331a382.009,382.009,0,0,0,9.247,40.163c10.833,37.749,27.788,75.417,52.684,106.04a316.461,316.461,0,0,1-33.906,6.193s-.669,5.352,2.007,5.687,69.586-9.869,83.637-27.266C377.551,278.384,379.727,272.027,377.217,270.857Z" transform="translate(-134.028 -114.212)" fill="#eba71e" fill-rule="evenodd"/>
            <path id="Trazado_24288" data-name="Trazado 24288" d="M370.251,298.252c17.707-4.6,36.922-11.607,46.751-21.748,0,0,1-15.056-2.676-22.415s-27.089-66.614-27.089-66.614C399.7,192.69,414.328,198.55,424.7,201.9c0,0,16.392,76.946,29.105,93.675l21.745-1.673s2.111-86.077-17.961-110.834-76.714-57.109-94.446-61.46a59.443,59.443,0,0,0-8.753-1.412c-15.655-1.414-31.726,2.249-31.726,2.249l-14.387,11.208-7.694-8.7-.836,11.208-11.373,0s-17.567,18.234-22.92,40.649c-1.871,7.832-2.025,22.279-1.435,37.764.306,8.025.812,16.328,1.383,24.133.939,12.83,2.052,24.315,2.743,31-20.6,3.44-42.535,12.445-53.838,17.537-.106,3.861-4.529,11.863-9.63,16.071a16.131,16.131,0,0,1-5.63,2.922,3.319,3.319,0,0,1,.247.805c7.256.9,65.2,7.825,85.565,1.244,21.745-7.026,19.8-37.5,19.8-37.5,6.645,15.77,12.36,28.163,14.662,30.135,7.026,6.023,12.378,4.684,12.378,4.684a316.458,316.458,0,0,0,33.906-6.193c-24.9-30.623-41.85-68.291-52.684-106.04a382,382,0,0,1-9.247-40.163c-.926-5.354-1.822-10.915-2.344-16.331a2.276,2.276,0,1,1,4.53-.437c.512,5.3,1.393,10.751,2.3,15.992a377.132,377.132,0,0,0,9.136,39.682c10.758,37.489,27.644,74.967,52.515,105.251A2.267,2.267,0,0,1,370.251,298.252Z" transform="translate(-173.812 -119.859)" fill="#fcd485" fill-rule="evenodd"/>
            <path id="Trazado_24289" data-name="Trazado 24289" d="M240.05,192.582a.335.335,0,0,0-.589-.195.328.328,0,0,0-.08.242c1,13.753,2.116,25.9,3.4,37.145a.336.336,0,0,0,.332.3.343.343,0,0,0,.334-.373C242.166,218.473,241.055,206.332,240.05,192.582Z" transform="translate(-148.13 -73.761)" fill="#fff"/>
            <path id="Trazado_24290" data-name="Trazado 24290" d="M300.642,161.6a71.787,71.787,0,0,1-3.308-7.36,69.178,69.178,0,0,1-4.429-16.36c-.92-7.195-.026-13.085,2.655-17.506a.335.335,0,1,0-.573-.349c-2.763,4.553-3.687,10.589-2.748,17.94a69.869,69.869,0,0,0,4.47,16.521,72.084,72.084,0,0,0,3.34,7.429.336.336,0,0,0,.617-.059A.33.33,0,0,0,300.642,161.6Z" transform="translate(-114.7 -119.863)" fill="#fff"/>
            <path id="Trazado_24291" data-name="Trazado 24291" d="M361.354,179.56c-8.751-2.828-17.581-6.321-25.171-9.373-12.373-4.977-24.829-10.26-37.022-15.7a.335.335,0,0,0-.442.169.334.334,0,0,0,.169.444c12.208,5.45,24.672,10.738,37.045,15.714,7.6,3.057,16.442,6.557,25.215,9.39a.323.323,0,0,0,.1.016.335.335,0,0,0,.1-.655Z" transform="translate(-110.367 -97.84)" fill="#fff"/>
            <path id="Trazado_24292" data-name="Trazado 24292" d="M276.134,242.785c-2.908-6.907-5.949-14.326-9.568-23.349-7.386-18.423-14.653-37.119-21.6-55.568a.344.344,0,0,0-.177-.188.337.337,0,0,0-.255-.008.333.333,0,0,0-.188.177.322.322,0,0,0-.008.255c6.946,18.455,14.215,37.155,21.6,55.581,3.616,9.013,6.656,16.436,9.573,23.361a.336.336,0,0,0,.311.2.335.335,0,0,0,.308-.465Z" transform="translate(-144.986 -91.983)" fill="#fff"/>
          </g>
          <g id="Grupo_14477" data-name="Grupo 14477" transform="translate(110.684)">
            <path id="Trazado_24293" data-name="Trazado 24293" d="M274.9,137.6,289.286,126.4l-6.319-12.734A52.13,52.13,0,0,1,251.459,129.3L255,140.111l11.373,0,.836-11.208Z" transform="translate(-251.123 -113.326)" fill="#eba71e" fill-rule="evenodd"/>
            <path id="Trazado_24294" data-name="Trazado 24294" d="M289.717,126.377,283.4,113.649a.325.325,0,0,0-.07-.1.336.336,0,0,0-.475.011A51.839,51.839,0,0,1,262.1,126.737a45.254,45.254,0,0,1-10.529,2.354.336.336,0,0,0,.02.671,45.883,45.883,0,0,0,10.725-2.39,52.569,52.569,0,0,0,20.7-13l6.106,12.306a.339.339,0,0,0,.45.152.336.336,0,0,0,.169-.195A.323.323,0,0,0,289.717,126.377Z" transform="translate(-251.254 -113.457)" fill="#fff"/>
          </g>
        </g>
      </g>
    </g>
    <g id="man_1" transform="translate(115.72 92.572)">
      <g id="body-3" data-name="body" transform="translate(0 71.671)">
        <path id="pants-2" data-name="pants" d="M179.324,275.089l-1.863-17.563-39.241-1.57,1.99-25.585-10.02,25.251-5.812-1.961C141.351,264.413,160.559,271.151,179.324,275.089Z" transform="translate(-56.89 -38.234)" fill="#adbee3" fill-rule="evenodd"/>
        <g id="body-4" data-name="body">
          <g id="Grupo_14478" data-name="Grupo 14478" transform="translate(85.639)">
            <path id="Trazado_24295" data-name="Trazado 24295" d="M156.917,189.929c7.025-22.079,24.076-59.52,24.076-59.52a44.744,44.744,0,0,0-5.54-1.661l-12.211,5.688-2.34-14.218-9.2,10.7-11.878-9.2s-1.651.247-4.355.777C135.468,122.5,153.572,169.523,156.917,189.929Z" transform="translate(-135.468 -108.369)" fill="#fcd485" fill-rule="evenodd"/>
            <path id="Trazado_24296" data-name="Trazado 24296" d="M161.547,139.044l12.211-5.688-.884-11.756c-16.105.288-31.457-8.622-31.457-8.622l-3.288,13.352,11.878,9.2,9.2-10.7Z" transform="translate(-133.774 -112.978)" fill="#eba71e" fill-rule="evenodd"/>
          </g>
          <g id="body-5" data-name="body" transform="translate(0 14.13)">
            <g id="Grupo_14480" data-name="Grupo 14480" transform="translate(88.21 12.779)">
              <path id="Trazado_24297" data-name="Trazado 24297" d="M137.039,258.659c14.221,5.128,28.349,10.39,39.143,14.455,1.419-3.689,5.363-24.608,9.313-46.736,5.905,9.936,25.614,39.935,49.044,41.33,28.1,1.671,70.336-35.084,70.336-35.084-.571-7.805-1.077-16.108-1.383-24.133-40.778,6.689-62.929,23.755-62.929,23.755s-29.942-76.612-38.474-91a35.78,35.78,0,0,0-12-11.83l-13.761,27.218,6.023,9.368L152.53,195.619c-6.892,24.938-15.491,63.041-15.491,63.041Z" transform="translate(-137.039 -129.419)" fill="#88a9e3" fill-rule="evenodd"/>
              <g id="Grupo_14479" data-name="Grupo 14479" transform="translate(10.094 83.007)">
                <path id="Trazado_24298" data-name="Trazado 24298" d="M149.209,180.135a3.345,3.345,0,1,1-3.345,3.345,3.345,3.345,0,0,1,3.345-3.345Z" transform="translate(-141.514 -180.135)" fill="#e0f0ff" fill-rule="evenodd"/>
                <path id="Trazado_24299" data-name="Trazado 24299" d="M146.468,192.807a3.262,3.262,0,1,1-3.262,3.262A3.262,3.262,0,0,1,146.468,192.807Z" transform="translate(-143.206 -172.067)" fill="#e0f0ff" fill-rule="evenodd"/>
              </g>
            </g>
            <path id="Trazado_24300" data-name="Trazado 24300" d="M132.835,255.956l39.241,1.57,2.576.1,3.01-25.343c-10.954-.018-26.447-.394-42.837-1.915Z" transform="translate(-51.505 -52.364)" fill="#88a9e3" fill-rule="evenodd"/>
            <path id="Trazado_24301" data-name="Trazado 24301" d="M153.454,233.991c-17.018-1.578-35-4.386-49.877-9.3a114.415,114.415,0,0,0,34.045,32.595l5.812,1.961Z" transform="translate(-70.134 -55.983)" fill="#88a9e3" fill-rule="evenodd"/>
            <path id="Trazado_24302" data-name="Trazado 24302" d="M104.672,284.714c16.414,7.969,39.9,12.036,61.792,14.064,16.39,1.52,31.883,1.9,42.837,1.915,9.745.016,15.9-.25,15.9-.25a27.243,27.243,0,0,0,4.522-13.457,23.267,23.267,0,0,0-.007-2.435s-7.715-2.972-19.218-7.3c-10.794-4.066-24.922-9.328-39.143-14.455,0,0,8.6-38.1,15.491-63.041.506-1.83,1-3.589,1.484-5.257l-15.5-27.367,5.688-7.694-19.166-36.5c-7.794,2.041-17.436,5.236-24.871,9.853q-.83.513-1.62,1.052c-14.72,10.036-52.859,78.954-49.513,125.792C84.139,270.671,92.442,278.776,104.672,284.714Z" transform="translate(-83.144 -120.771)" fill="#88a9e3" fill-rule="evenodd"/>
            <path id="Trazado_24303" data-name="Trazado 24303" d="M146.5,197.513,176.32,167.9l-6.023-9.368,13.761-27.218a53.591,53.591,0,0,0-10.092-4.869s-17.051,37.441-24.076,59.52c-.6,1.892-1.239,4.007-1.9,6.292C147.506,193.923,147.01,195.683,146.5,197.513Z" transform="translate(-42.803 -118.534)" fill="#cce7ff" fill-rule="evenodd"/>
            <path id="Trazado_24304" data-name="Trazado 24304" d="M143.186,167.966l15.5,27.367c.663-2.285,1.3-4.4,1.9-6.292-3.345-20.406-21.449-67.43-21.449-67.43-2.434.48-5.722,1.19-9.427,2.16l19.166,36.5Z" transform="translate(-53.496 -121.611)" fill="#cce7ff" fill-rule="evenodd"/>
            <path id="Trazado_24305" data-name="Trazado 24305" d="M121.834,132.439a11,11,0,0,0-4.861-3.337,6.975,6.975,0,0,0-2.357-.352.337.337,0,0,0-.192.591.331.331,0,0,0,.244.079,6.283,6.283,0,0,1,2.1.322,10.341,10.341,0,0,1,4.558,3.139c4.354,4.976,6.512,14.725,6.241,28.2a.335.335,0,0,0,.329.342.337.337,0,0,0,.342-.329C128.522,147.254,126.364,137.614,121.834,132.439Z" transform="translate(-63.302 -117.072)" fill="#fff"/>
            <path id="Trazado_24306" data-name="Trazado 24306" d="M216.6,228.964c-6.085-15.578-12.457-31.456-18.941-47.193-3.252-7.889-7.129-17.213-11.246-26.547-1.26-2.858-2.936-6.617-4.73-10.372-1.2-2.521-2.3-4.782-3.579-6.935a30.651,30.651,0,0,0-2.354-3.409.335.335,0,0,0-.6.17.337.337,0,0,0,.07.247,29.882,29.882,0,0,1,2.3,3.334c1.26,2.126,2.355,4.373,3.552,6.881,1.789,3.746,3.463,7.5,4.72,10.354,4.116,9.334,7.992,18.65,11.239,26.533,6.481,15.727,12.853,31.6,18.938,47.181a.33.33,0,0,0,.178.185.32.32,0,0,0,.134.029.346.346,0,0,0,.121-.023.339.339,0,0,0,.191-.435Z" transform="translate(-24.559 -113.48)" fill="#fff"/>
            <path id="Trazado_24307" data-name="Trazado 24307" d="M204.6,239.581a.333.333,0,0,0-.237-.1c-14.807-.025-36.989-.687-58.577-3.707-24.914-3.485-43.2-9.262-54.361-17.169a.335.335,0,1,0-.388.547c11.233,7.961,29.592,13.773,54.571,17.275,21.639,3.034,43.895,3.7,58.756,3.725a.332.332,0,0,0,.237-.1.334.334,0,0,0,0-.473Z" transform="translate(-78.207 -59.895)" fill="#fff"/>
            <path id="Trazado_24308" data-name="Trazado 24308" d="M216.543,170.823a.338.338,0,0,0-.386.275c-3.018,18.022-6.057,35.675-9.031,52.469-2.19,12.364-4.066,22.752-6.1,33.263-.866,4.471-1.612,8.216-2.437,11.964-.265,1.2-.581,2.609-.936,4l-.021.083c-.167.648-.337,1.319-.557,1.946-14.081-5.3-26.693-9.959-38.551-14.236,3.106-13.786,6.488-27.989,10.054-42.212,1.689-6.74,3.134-12.315,4.55-17.542q.393-1.446.791-2.894l29.755-29.554a.333.333,0,0,0,.046-.419l-5.918-9.206,9.4-18.59a.334.334,0,0,0,.02-.257.341.341,0,0,0-.169-.195.329.329,0,0,0-.255-.018.333.333,0,0,0-.195.167l-9.486,18.761a.327.327,0,0,0,.018.332l5.874,9.139-28.729,28.534c.4-1.437.771-2.745,1.128-3.979a.319.319,0,0,0,.033-.108c.651-2.247,1.27-4.287,1.889-6.233,2.53-7.953,5.548-15.717,8.432-22.924,2.867-7.169,6.051-14.771,9.73-23.239a.335.335,0,0,0-.432-.445.322.322,0,0,0-.183.178c-3.681,8.472-6.866,16.079-9.738,23.256-2.589,6.471-5.563,14.094-8.03,21.672-.786-4.313-1.939-8.674-2.969-12.388-1.357-4.892-2.944-10.1-5-16.4-2.987-9.165-6.39-18.894-10.4-29.74a.33.33,0,0,0-.175-.188.333.333,0,0,0-.257-.01.327.327,0,0,0-.188.173.333.333,0,0,0-.01.257c4.012,10.838,7.413,20.559,10.4,29.716,2.048,6.283,3.632,11.486,4.987,16.37a131.294,131.294,0,0,1,3.172,13.585c-.545,1.719-1.09,3.5-1.66,5.452l-14.994-26.479,5.558-7.519a.33.33,0,0,0,.028-.355l-16.3-31.042a.335.335,0,0,0-.594.311l16.2,30.855-5.563,7.526a.333.333,0,0,0-.021.365l15.423,27.238c-.674,2.334-1.373,4.838-2.26,8.118-1.417,5.233-2.866,10.81-4.555,17.554-3.557,14.19-6.935,28.369-10.04,42.145l-.146-.052c-12.382-4.46-21.847-7.761-30.69-10.7-5-1.663-9.085-2.969-12.866-4.113,1.946-4.129,3.553-8.414,4.73-11.693,1.525-4.251,3.054-8.964,4.671-14.411,2.306-7.755,4.542-16.121,6.836-25.573.851-3.5,1.843-7.65,2.756-11.878a.331.331,0,0,0-.046-.254.335.335,0,0,0-.211-.146.327.327,0,0,0-.252.046.341.341,0,0,0-.147.211c-.913,4.228-1.9,8.368-2.751,11.861-2.291,9.437-4.525,17.793-6.828,25.541-1.614,5.435-3.139,10.138-4.66,14.375a112.671,112.671,0,0,1-4.823,11.7c-2.7-.812-5.887-1.743-9.133-2.511a.334.334,0,0,0-.4.249.33.33,0,0,0,.041.254.335.335,0,0,0,.208.151c3.381.8,6.717,1.779,9.817,2.719,3.766,1.141,7.85,2.445,12.848,4.108,8.841,2.94,18.3,6.237,30.675,10.7,12.159,4.38,25.123,9.167,39.639,14.634a.312.312,0,0,0,.121.023.335.335,0,0,0,.313-.214,21.293,21.293,0,0,0,.7-2.362c.375-1.463.692-2.877.956-4.074.828-3.759,1.574-7.508,2.442-11.981,2.038-10.522,3.913-20.912,6.1-33.274,2.974-16.8,6.013-34.452,9.031-52.474A.336.336,0,0,0,216.543,170.823Z" transform="translate(-69.919 -118.778)" fill="#fff"/>
            <path id="Trazado_24309" data-name="Trazado 24309" d="M172.543,255.356a.338.338,0,0,0-.321-.309l-38.895-1.555,1.507-19.393a.335.335,0,0,0-.668-.052l-1.537,19.74a.336.336,0,0,0,.321.362l38.953,1.558,1.818,17.158.691.147Z" transform="translate(-51.636 -50.22)" fill="#fff" fill-rule="evenodd"/>
            <path id="Trazado_24310" data-name="Trazado 24310" d="M138.647,233.94a.335.335,0,0,0-.44-.175.335.335,0,0,0-.178.185l-7.584,19.108-6.769-2.283q1.188.771,2.394,1.517l4.462,1.5a.312.312,0,0,0,.108.018.335.335,0,0,0,.313-.213l7.7-19.4A.333.333,0,0,0,138.647,233.94Z" transform="translate(-57.338 -50.221)" fill="#fff" fill-rule="evenodd"/>
            <g id="Grupo_14481" data-name="Grupo 14481" transform="translate(141.72 153.717)">
              <path id="Trazado_24311" data-name="Trazado 24311" d="M169.938,241.485s14.372,3.257,23.416,4.391c-2.07-3.575-1.123-10.472,4.339-10.159,5.139.293,17.815,4.967,19.879,9.612a16.131,16.131,0,0,0,5.63-2.922c5.1-4.208,9.524-12.21,9.63-16.071.033-1.2-.352-2-1.265-2.162a23.784,23.784,0,0,0-5.457.136c-5.359.555-12.108,1.872-12.108,1.872s-6.19,7.026-9.869,6.021,2.676-12.211,10.234-13.18c1.732-1.574,2.787-2.9,2.144-3.38-2.007-1.506-42.052,12.383-42.052,12.383A27.243,27.243,0,0,1,169.938,241.485Z" transform="translate(-169.602 -215.53)" fill="#f97070" fill-rule="evenodd"/>
              <path id="Trazado_24312" data-name="Trazado 24312" d="M232.606,223.007a1.721,1.721,0,0,0-.849-.391c-2.157-.375-6,.147-8.293.46l-.2.028c-2.99.406-6.084.918-9.19,1.52a.366.366,0,0,0-.141.064c-2.146,2.419-6.838,6.71-9.576,5.964a1.051,1.051,0,0,1-.5-.29c-.887-.959.273-3.467.514-3.959a17.575,17.575,0,0,1,4.422-5.532,11.739,11.739,0,0,1,5.755-2.743.332.332,0,0,0,.223-.128.337.337,0,0,0-.308-.538,12.194,12.194,0,0,0-6.1,2.894,18.227,18.227,0,0,0-4.6,5.753c-.5,1.011-1.527,3.5-.4,4.71a1.7,1.7,0,0,0,.818.481c3.686,1.007,9.408-5.226,10.133-6.038,3.056-.591,6.1-1.093,9.041-1.494,1.953-.265,3.442-.426,4.828-.52a15.812,15.812,0,0,1,3.462.029,1.045,1.045,0,0,1,.525.237c1.039.9.054,3.92-.273,4.822a31.886,31.886,0,0,1-4.409,7.9,27.132,27.132,0,0,1-4.362,4.683,15.749,15.749,0,0,1-5.237,2.773c-2.537-4.912-15.5-9.28-20.04-9.54a4.841,4.841,0,0,0-4.548,2.188,8.582,8.582,0,0,0-.4,7.892c-2.8-.37-5.532-.846-7.609-1.221-4.979-.9-10.074-1.936-15.143-3.084a.333.333,0,0,0-.4.252.328.328,0,0,0,.043.254.336.336,0,0,0,.209.149c5.079,1.149,10.184,2.188,15.172,3.09,2.27.409,5.262.928,8.278,1.306a.322.322,0,0,0,.157-.016.385.385,0,0,0,.152-.115.332.332,0,0,0,.065-.159.339.339,0,0,0-.018-.157,8.084,8.084,0,0,1-.057-7.65,4.219,4.219,0,0,1,4.062-2.061c3.717.213,8.755,2.213,10.21,2.82,1.853.773,8,3.532,9.365,6.557a3.209,3.209,0,0,1,.239.763.335.335,0,0,0,.331.28.347.347,0,0,0,.332-.391,3.633,3.633,0,0,0-.136-.537,16.362,16.362,0,0,0,5.4-2.876,27.724,27.724,0,0,0,4.471-4.8,32.572,32.572,0,0,0,4.5-8.075C233.231,226.613,233.82,224.065,232.606,223.007Z" transform="translate(-169.732 -214.302)" fill="#fff"/>
            </g>
          </g>
        </g>
      </g>
      <g id="head-2" data-name="head" transform="translate(92.947)">
        <path id="Trazado_24313" data-name="Trazado 24313" d="M171.1,137.627a4.377,4.377,0,0,0,1.049,0c17.73,1.339,23.418-52.189,23.418-52.189-14.423-1.131-33.919-10.242-36.93-7.566S151.57,94.8,151.57,94.8a16.84,16.84,0,0,0-4.157.108,6.2,6.2,0,0,0-3.705,1.732c-2.174,2.509,4.182,7.527,4.182,7.527l-7.751,31.477s15.352,8.91,31.457,8.622Z" transform="translate(-139.803 -63.974)" fill="#f97070" fill-rule="evenodd"/>
        <path id="Trazado_24314" data-name="Trazado 24314" d="M155.806,83.08c3.012-2.676,22.508,6.436,36.93,7.566,0,0,3.383.63,4.219-7.4s-16.226-18.9-42.823-11.709a5.821,5.821,0,0,1-3.681,1.84c-2.007,0-4.013,1.339-5.018,11.711a132.4,132.4,0,0,0-.848,15.035,16.84,16.84,0,0,1,4.157-.108S152.794,85.756,155.806,83.08Z" transform="translate(-136.976 -69.188)" fill="#25217c" fill-rule="evenodd"/>
        <path id="Trazado_24315" data-name="Trazado 24315" d="M171.719,121.395a59.089,59.089,0,0,1-21.6-4.157,65.971,65.971,0,0,1-9.681-4.419.336.336,0,0,0-.337.581,65.726,65.726,0,0,0,9.783,4.467,60.53,60.53,0,0,0,21.056,4.206c.265,0,.53,0,.794-.007a.336.336,0,0,0,.329-.342A.332.332,0,0,0,171.719,121.395Z" transform="translate(-139.933 -41.437)" fill="#fff"/>
        <path id="Trazado_24316" data-name="Trazado 24316" d="M166.581,119.443a.333.333,0,0,0-.228-.119c-7.033-.615-15.017-9.714-18.123-13.6a.335.335,0,0,0-.524.419c3.16,3.951,11.3,13.207,18.588,13.846a.346.346,0,0,0,.365-.306A.333.333,0,0,0,166.581,119.443Z" transform="translate(-135.031 -46.004)" fill="#fff"/>
        <g id="Grupo_14484" data-name="Grupo 14484" transform="translate(26.701 26.008)">
          <g id="Grupo_14482" data-name="Grupo 14482" transform="translate(2.031 4.676)">
            <path id="Trazado_24317" data-name="Trazado 24317" d="M167.826,91.5c-.385.807-.28,2.26.538,2.638s1.993-.465,2.378-1.267.252-2.267-.538-2.64C169.385,89.848,168.21,90.695,167.826,91.5Z" transform="translate(-151.042 -86.535)" fill="#232323" fill-rule="evenodd"/>
            <path id="Trazado_24318" data-name="Trazado 24318" d="M157.7,89.3c-.386.809-.252,2.267.537,2.64.818.381,1.993-.465,2.378-1.267s.282-2.26-.537-2.64S158.081,88.495,157.7,89.3Z" transform="translate(-157.488 -87.935)" fill="#232323" fill-rule="evenodd"/>
          </g>
          <g id="Grupo_14483" data-name="Grupo 14483">
            <path id="Trazado_24319" data-name="Trazado 24319" d="M163.725,85.665a7.442,7.442,0,0,0-1.187-.347,10.684,10.684,0,0,0-5.948.419.551.551,0,0,0-.3.709.557.557,0,0,0,.71.326,9.42,9.42,0,0,1,5.309-.385c.344.075.6.149.768.2.083.029.139.049.195.067a.581.581,0,0,0,.781-.273A.566.566,0,0,0,163.725,85.665Z" transform="translate(-156.247 -85.078)" fill="#232323" fill-rule="evenodd"/>
            <path id="Trazado_24320" data-name="Trazado 24320" d="M174.119,89.13a3.619,3.619,0,0,0-.807-.99,5.894,5.894,0,0,0-2.768-1.357,10.174,10.174,0,0,0-3.246-.133.546.546,0,0,0-.489.6.557.557,0,0,0,.614.489,9.032,9.032,0,0,1,2.89.11,4.8,4.8,0,0,1,2.254,1.1,2.846,2.846,0,0,1,.462.5c.046.061.1.11.092.133a.547.547,0,1,0,1-.448Z" transform="translate(-149.523 -84.121)" fill="#232323" fill-rule="evenodd"/>
          </g>
          <path id="Trazado_24321" data-name="Trazado 24321" d="M165.644,94.264l.172,6.262-3.5-.759a.271.271,0,0,0-.115.53l3.841.835a.244.244,0,0,0,.223-.057.317.317,0,0,0,.108-.216l-.187-6.609a.265.265,0,0,0-.273-.264A.281.281,0,0,0,165.644,94.264Z" transform="translate(-152.588 -79.407)" fill="#232323" fill-rule="evenodd"/>
          <path id="Trazado_24322" data-name="Trazado 24322" d="M157.717,100.269a9.066,9.066,0,0,0,1.21,2.311,7.608,7.608,0,0,0,4.594,3.044,10.257,10.257,0,0,0,4.665-.18.284.284,0,0,0,.19-.324.255.255,0,0,0-.316-.2,9.842,9.842,0,0,1-4.422.169,7.593,7.593,0,0,1-5.124-4.334,2.642,2.642,0,0,1-.2-.47l-.062-.129a.274.274,0,0,0-.342-.223A.271.271,0,0,0,157.717,100.269Z" transform="translate(-155.315 -75.627)" fill="#232323" fill-rule="evenodd"/>
        </g>
      </g>
    </g>
  </g>
</svg>
