<svg xmlns="http://www.w3.org/2000/svg" width="781.833" height="569.408" viewBox="0 0 781.833 569.408">
  <g id="Grupo_16231" data-name="Grupo 16231" transform="translate(-169.088 -106.763)">
    <g id="Grupo_16228" data-name="Grupo 16228" transform="translate(185.288 172.35)">
      <g id="Grupo_16210" data-name="Grupo 16210" transform="translate(662.115 246.845)">
        <path id="Trazado_26649" data-name="Trazado 26649" d="M2188.767,1435.631h-3.948l-4.512,3.175-3.895.643v1.887h12.354Z" transform="translate(-2134.271 -1271.114)" fill="#3cc4c9"/>
        <g id="Grupo_16206" data-name="Grupo 16206" transform="translate(43.95 24.621)">
          <path id="Trazado_26650" data-name="Trazado 26650" d="M2209.765,1111.93l-4.092,3.7-2.1-1.03-3.528-10.255,8.046-2.031C2209.084,1108.139,2209.765,1111.93,2209.765,1111.93Z" transform="translate(-2193.374 -1082.047)" fill="#f4acc8"/>
          <path id="Trazado_26651" data-name="Trazado 26651" d="M2192.269,1045.854c3.513,2.356,4.482,14.539,5.573,20.969l-10.792,2.4-5.6-19.384Z" transform="translate(-2181.452 -1045.854)" fill="#3cc4c9"/>
          <path id="Trazado_26652" data-name="Trazado 26652" d="M2209.878,1131.779l1.72,30.089,2.625.091c2.653-5.949,4.652-24.7,1.843-32.847Z" transform="translate(-2199.676 -1099.229)" fill="#f4acc8"/>
          <path id="Trazado_26653" data-name="Trazado 26653" d="M2207.625,1220.376l-1.644,4.26-2.3,2.623,1.84.423a3.037,3.037,0,0,0,2.941-.933l1.319-1.473.469-4.81Z" transform="translate(-2195.702 -1157.738)" fill="#f4acc8"/>
        </g>
        <g id="Grupo_16207" data-name="Grupo 16207" transform="translate(25.17)">
          <path id="Trazado_26654" data-name="Trazado 26654" d="M2152.311,1013.446l.65,9.732,8.552,0-3.395-11.572Z" transform="translate(-2143.99 -999.275)" fill="#f4acc8"/>
          <path id="Trazado_26655" data-name="Trazado 26655" d="M2138.968,995.694c.286,1.479,2.021,2.474,4.541.823l3.8-3.793.73-6.743-3.625-4.811-8.062,2.274Z" transform="translate(-2133.761 -979.765)" fill="#f4acc8"/>
          <path id="Trazado_26656" data-name="Trazado 26656" d="M2139.26,977.413l-7.878,1.709-2.121.047c-.461,2.653.256,4.2,2.6,4.219l3.307.156,2.664,8.392a9.372,9.372,0,0,0,5.041-1.094c1.161-.714,1.094-1.419,1.216-2.776l.451-5.037C2144.762,978.907,2142.759,976.613,2139.26,977.413Z" transform="translate(-2129.128 -977.255)" fill="#4f2674"/>
        </g>
        <g id="Grupo_16208" data-name="Grupo 16208" transform="translate(21.497 6.983)">
          <path id="Trazado_26657" data-name="Trazado 26657" d="M2132.66,1011.43h-6.495a1.693,1.693,0,0,1-1.51-1.162l-3.713-12.394a.835.835,0,0,1,.814-1.162h6.495a1.693,1.693,0,0,1,1.51,1.162l3.713,12.394A.835.835,0,0,1,2132.66,1011.43Z" transform="translate(-2120.173 -996.712)" fill="#8cadff"/>
          <path id="Trazado_26658" data-name="Trazado 26658" d="M2130.661,1011.43h-6.495a1.693,1.693,0,0,1-1.51-1.162l-3.713-12.394a.835.835,0,0,1,.814-1.162h6.5a1.692,1.692,0,0,1,1.51,1.162l3.714,12.394A.835.835,0,0,1,2130.661,1011.43Z" transform="translate(-2118.892 -996.712)" fill="#b3c9ff"/>
        </g>
        <g id="Grupo_16209" data-name="Grupo 16209" transform="translate(1.805 11.403)">
          <path id="Trazado_26659" data-name="Trazado 26659" d="M2083.833,1034.953c-7.54,4.085-13.36,6.366-19.8,10.788l1.517,5.887c5.42-2.052,14.371-8.221,20-14.68Z" transform="translate(-2064.029 -1025.647)" fill="#f4acc8"/>
          <path id="Trazado_26660" data-name="Trazado 26660" d="M2119.633,1013.514l-.984-4.489-.8.466-.233,4.219-1.316,5.378,2.754,1.238,1.561-3.362Z" transform="translate(-2097.537 -1009.025)" fill="#f4acc8"/>
          <path id="Trazado_26661" data-name="Trazado 26661" d="M2122.96,1030.349l-.565-3.006,4.365-2.683.19,1.531Z" transform="translate(-2101.446 -1019.048)" fill="#f4acc8"/>
        </g>
        <path id="Trazado_26662" data-name="Trazado 26662" d="M2182.26,1301.022c2.45,15.883,4.231,29.721,2.153,48.31h-4.2l-10.591-48.314Z" transform="translate(-2129.917 -1184.815)" fill="#f4acc8"/>
        <path id="Trazado_26663" data-name="Trazado 26663" d="M2156.294,1222.63l-4.808-43.885h17.253a204.513,204.513,0,0,1,3.007,43.89Z" transform="translate(-2118.291 -1106.427)" fill="#4f2674"/>
        <path id="Trazado_26664" data-name="Trazado 26664" d="M2090.7,1435.631h-3.948l-4.512,3.175-3.895.643v1.887H2090.7Z" transform="translate(-2071.4 -1271.114)" fill="#3cc4c9"/>
        <path id="Trazado_26665" data-name="Trazado 26665" d="M2118.889,1301.021c-2.6,15.883-5.465,29.721-13.458,48.311h-3.948l4.768-48.315Z" transform="translate(-2086.235 -1184.814)" fill="#f4acc8"/>
        <path id="Trazado_26666" data-name="Trazado 26666" d="M2111.218,1222.63a427.72,427.72,0,0,1,4.272-43.886h17.253a208.917,208.917,0,0,1-6.074,43.89Z" transform="translate(-2092.476 -1106.427)" fill="#4f2674"/>
        <path id="Trazado_26667" data-name="Trazado 26667" d="M2060.8,1059.732c-2.622,2.238-2.367,6.346.628,6.844,0,0,3.1.083,7.187.1l-.865-9.9C2065.324,1057.774,2063.265,1058.647,2060.8,1059.732Z" transform="translate(-2058.999 -1028.236)" fill="#f4acc8"/>
        <path id="Trazado_26668" data-name="Trazado 26668" d="M2119.764,1072.864c-.031-7.8-1.912-26.917-1.592-33.442,9.723-4.461,22.876-5.131,33.506,0,.352,10.929-2.495,35.2-2.495,35.2l.181,17.629h-31.206Z" transform="translate(-2096.91 -1014.8)" fill="#3cc4c9"/>
        <path id="Trazado_26669" data-name="Trazado 26669" d="M2102.155,1054.762l-1.232-14.876c-4.486.725-11.254,3.107-18.466,6.063a32.554,32.554,0,0,0,0,11.661A86.416,86.416,0,0,0,2102.155,1054.762Z" transform="translate(-2073.7 -1017.407)" fill="#3cc4c9"/>
      </g>
      <g id="Grupo_16212" data-name="Grupo 16212" transform="translate(120.548 0)">
        <path id="Trazado_26670" data-name="Trazado 26670" d="M700.275,397.553l-5.38,1.659s-10.7-18.484-14.939-28.11l10.052-5.435c4.289,10.85,8.154,19.43,10.815,29.715Z" transform="translate(-633.347 -338.33)" fill="#3cc4c9"/>
        <path id="Trazado_26671" data-name="Trazado 26671" d="M558.084,723.157l3.615,1.68,4.556-6.408-4.968-3.1C560.241,717.879,559.181,720.484,558.084,723.157Z" transform="translate(-555.216 -562.493)" fill="#b3680a"/>
        <path id="Trazado_26672" data-name="Trazado 26672" d="M614.949,499.238l-27.651-.062s-2.51,17.385-3.914,32.362a34.747,34.747,0,0,1-3.867,12.792c-5.023,9.639-7.729,20.743-12.513,32.426l4.969,3.1L595.117,549.2a33.944,33.944,0,0,0,4.1-7.5C603.65,530.42,614.949,499.238,614.949,499.238Z" transform="translate(-560.935 -423.921)" fill="#2c72b7"/>
        <path id="Trazado_26673" data-name="Trazado 26673" d="M663.189,540.128,652.536,499.1l-27.708-.121c2.351,13.07,12.814,26.818,21.083,40.978a33.39,33.39,0,0,1,3.033,6.812,162.455,162.455,0,0,0,16.172,36.6l5.807-2.064-7.216-38.845Q663.489,541.286,663.189,540.128Z" transform="translate(-598.006 -423.794)" fill="#2c72b7"/>
        <path id="Trazado_26674" data-name="Trazado 26674" d="M737.078,730.42c1.458,2.4,2.976,4.86,4.573,7.428l2.871-1.3-1.637-8.189Z" transform="translate(-669.967 -570.845)" fill="#b3680a"/>
        <path id="Trazado_26675" data-name="Trazado 26675" d="M749.82,752.3l2.871-1.3,5.866.99,4.031-1.09.929,1.748L752.3,757.732Z" transform="translate(-678.135 -585.294)" fill="#3cc4c9"/>
        <path id="Trazado_26676" data-name="Trazado 26676" d="M639.309,387.308c0-6.969,3.084-21.886,3.773-30.344a4.912,4.912,0,0,0-3.312-5.049c-9.984-3.393-23.286-3.44-33.229,1.359-.369,11.445,6.438,35.877,6.438,35.877l-.838,14.134h29.091l-1.955-15.971Z" transform="translate(-586.271 -327.967)" fill="#3cc4c9"/>
        <path id="Trazado_26677" data-name="Trazado 26677" d="M638.684,349.958,651.8,361.341l2.75-10.94A49.883,49.883,0,0,0,638.684,349.958Z" transform="translate(-606.888 -327.981)" fill="#b3680a"/>
        <path id="Trazado_26678" data-name="Trazado 26678" d="M593.229,395.52l-5.1-2.4s2.554-31.186,6.615-33.115a13.377,13.377,0,0,1,7.863,16.058l-4.99,17.578Z" transform="translate(-574.481 -334.703)" fill="#3cc4c9"/>
        <path id="Trazado_26679" data-name="Trazado 26679" d="M552.962,737.141l3.614,1.68,2.4,5.442,3.128,2.765-.948,1.738L550.094,742.4Z" transform="translate(-550.094 -576.476)" fill="#3cc4c9"/>
        <path id="Trazado_26680" data-name="Trazado 26680" d="M587.86,422.578a7.138,7.138,0,0,0,1.34,5.991,4.394,4.394,0,0,0,6.463.291c6.725-6.625,15.67-15.465,18.739-20.235l-.656-2.671Z" transform="translate(-574.207 -364.157)" fill="#b3680a"/>
        <path id="Trazado_26681" data-name="Trazado 26681" d="M660.912,404.693l4.9-.668,3.064,1.065.04-.968a2.87,2.87,0,0,0-1.592-2.687l-1.627-.807,3.211-.069.349-.7-5.186-.034-3.818,2.2Z" transform="translate(-620.717 -360.225)" fill="#b3680a"/>
        <path id="Trazado_26682" data-name="Trazado 26682" d="M704.845,388.456h8.887a2.316,2.316,0,0,0,2.066-1.59l5.081-16.958a1.143,1.143,0,0,0-1.114-1.59h-8.887a2.316,2.316,0,0,0-2.066,1.59l-5.081,16.958A1.143,1.143,0,0,0,704.845,388.456Z" transform="translate(-648.544 -340.029)" fill="#8cadff"/>
        <path id="Trazado_26683" data-name="Trazado 26683" d="M708.293,388.456h8.631a2.316,2.316,0,0,0,2.066-1.59l5.08-16.958a1.142,1.142,0,0,0-1.113-1.59h-8.631a2.316,2.316,0,0,0-2.066,1.59l-5.08,16.958A1.143,1.143,0,0,0,708.293,388.456Z" transform="translate(-650.754 -340.029)" fill="#b3c9ff"/>
        <path id="Trazado_26684" data-name="Trazado 26684" d="M733.526,399l.772-3.879-.588-2.635,1.049-3.4,4.195,2.52-.421,4.456-2.468,3.432Z" transform="translate(-667.69 -353.341)" fill="#b3680a"/>
        <path id="Trazado_26685" data-name="Trazado 26685" d="M728.873,429.984l-.478-12.778-2.54-.49-4.295,11.066.007,4.157C724.314,435.8,728.873,434.985,728.873,429.984Z" transform="translate(-660.018 -371.057)" fill="#b3680a"/>
        <g id="Grupo_16211" data-name="Grupo 16211" transform="translate(35.806)">
          <path id="Trazado_26686" data-name="Trazado 26686" d="M658.844,328.926l1.205,9.98-7.73-3.581.795-9.205Z" transform="translate(-651.436 -312.976)" fill="#b3680a"/>
          <path id="Trazado_26687" data-name="Trazado 26687" d="M662.551,308.978c-.31,1.547-2.133,2.577-4.76.83l-3.956-4-.718-7.066,3.831-5.013,8.426,2.438Z" transform="translate(-651.947 -292.212)" fill="#b3680a"/>
          <path id="Trazado_26688" data-name="Trazado 26688" d="M660.8,290.74l-5.267-1.039c-3.643-.927-5.8,1.424-5.668,5.746l.344,5.284c.093,1.425.005,2.16,1.2,2.937l.35-.508a4.954,4.954,0,0,0,.8-3.668c-.167-.972.135-1.819.671-1.91s1.1.606,1.266,1.558c2.411-1.371,1.977-4.882,4.562-4.99l-.352,2.434,3.515-.349a2.373,2.373,0,0,0,2.105-1.966C664.539,292.6,662.453,291.067,660.8,290.74Z" transform="translate(-649.857 -289.501)" fill="#4f2674"/>
        </g>
      </g>
      <g id="Grupo_16214" data-name="Grupo 16214" transform="translate(152.353 336.123)">
        <path id="Trazado_26689" data-name="Trazado 26689" d="M707.2,1366.686l16.927,20.919-1.2,2.255c-5.792-2.773-18.986-13.313-22.081-21.226Z" transform="translate(-678.544 -1316.192)" fill="#ec5665"/>
        <path id="Trazado_26690" data-name="Trazado 26690" d="M707.2,1317.844c-1.422,4.494-5.951,5-6.35,1.949.648-8.045,2.174-21.346,6.4-29.293l8.164,2.428Z" transform="translate(-678.544 -1267.35)" fill="#ec5665"/>
        <path id="Trazado_26691" data-name="Trazado 26691" d="M680.264,1384.611c-4.916,7.644-6.1,23.662-8.409,37.595-.691,4.172-1.2,9.084-4.512,11.714-11.708,9.3-14.816,27.421-19.227,44.313l2.592,1.445c17.727-9.176,31.906-42.961,32.731-44.6l17.749-35.349Z" transform="translate(-644.74 -1327.683)" fill="#3cc4c9"/>
        <path id="Trazado_26692" data-name="Trazado 26692" d="M836.892,1303.143l8.148,2.652a2.233,2.233,0,0,0,2.369-.841l9.719-14.032a1.1,1.1,0,0,0-.546-1.79l-8.148-2.652a2.234,2.234,0,0,0-2.369.841l-9.719,14.032A1.1,1.1,0,0,0,836.892,1303.143Z" transform="translate(-765.244 -1264.719)" fill="#8cadff"/>
        <path id="Trazado_26693" data-name="Trazado 26693" d="M834.385,1302.327l8.148,2.652a2.233,2.233,0,0,0,2.369-.841l9.719-14.033a1.1,1.1,0,0,0-.546-1.79l-8.148-2.652a2.233,2.233,0,0,0-2.369.841l-9.719,14.033A1.1,1.1,0,0,0,834.385,1302.327Z" transform="translate(-763.636 -1264.196)" fill="#b3c9ff"/>
        <path id="Trazado_26694" data-name="Trazado 26694" d="M836.368,1303.116c-.092-.03-.143-.071-.151-.1a.362.362,0,0,1,.09-.255l9.719-14.032a1.306,1.306,0,0,1,1.3-.48l8.148,2.652c.092.03.143.071.151.1a.363.363,0,0,1-.09.256l-9.719,14.032a1.306,1.306,0,0,1-1.3.48Z" transform="translate(-765.326 -1265.885)" fill="#4f2674"/>
        <path id="Trazado_26695" data-name="Trazado 26695" d="M859.5,1325.868l1.57-2.17,2.532-2.984.714.287-1.141,2.875,4.442-1.262-.248,1.079-2.525,2.151-1.58,2.926-3.039-.454Z" transform="translate(-780.253 -1286.719)" fill="#f4acc8"/>
        <path id="Trazado_26696" data-name="Trazado 26696" d="M752.613,1263.152l-1.936,5.7-4.856-.8,1.7-8.079Z" transform="translate(-707.377 -1247.779)" fill="#f4acc8"/>
        <path id="Trazado_26697" data-name="Trazado 26697" d="M745.04,1318.153c.008-7.678-5.3-29.616-5.6-36.048-6.792-1.118-10.3-2.8-20.786,2.249-.36,10.772,6.824,33.778,6.824,33.778Z" transform="translate(-689.95 -1261.204)" fill="#ec5665"/>
        <path id="Trazado_26698" data-name="Trazado 26698" d="M827.743,1333.236l-18.522,7.01,2.151,6.8c6.725-2.724,13.548-7.493,16.666-10.741Z" transform="translate(-748.022 -1294.748)" fill="#ec5665"/>
        <path id="Trazado_26699" data-name="Trazado 26699" d="M785.263,1309.389c2.057,4.241-.884,7.722-3.272,5.781-5.06-6.288-13.1-17-15.49-25.673l3.62-5.265a7.784,7.784,0,0,1,5.183,3.979Z" transform="translate(-720.635 -1263.332)" fill="#ec5665"/>
        <path id="Trazado_26700" data-name="Trazado 26700" d="M642.085,1645.459l2.592,1.446,2.005,4.7,2.972,2.383-1.117,1.507-9.829-5.481Z" transform="translate(-638.709 -1494.909)" fill="#ec5665"/>
        <path id="Trazado_26701" data-name="Trazado 26701" d="M831.122,1658.8l2.765-1.079,4.9,1.447,3.73-.775.451,1.82-10.485,4.09Z" transform="translate(-762.062 -1502.77)" fill="#ec5665"/>
        <g id="Grupo_16213" data-name="Grupo 16213" transform="translate(24.329)">
          <path id="Trazado_26702" data-name="Trazado 26702" d="M756.054,1243.257c-.119,1.48-1.709,2.645-4.358,1.3l-4.14-3.3-1.452-6.526,3.026-5.109,8.146,1.348Z" transform="translate(-731.888 -1228.323)" fill="#f4acc8"/>
          <path id="Trazado_26703" data-name="Trazado 26703" d="M734.1,1226.65c-1.791.591-5.512-.235-9.988-.629-7.2-.634-8.043,13.226-11.395,14.914l-3.95,1.842a3.94,3.94,0,0,0-2.229,4.171c.31,2.013,2.112,5.051,6.94,5.548,6.113.63,12.474-4.2,14.177-20.734l4.36-.7C734.258,1230.513,734.793,1228.945,734.1,1226.65Z" transform="translate(-706.494 -1226)" fill="#945561"/>
        </g>
        <path id="Trazado_26704" data-name="Trazado 26704" d="M752.01,1384.3H732.445c-3.74,5.736-3.434,16.569-1.862,20.414,5.436,13.292,19.553,19.987,18.282,34.781-1.529,17.8,4.772,30.039,17.094,43.9l2.765-1.078C768.144,1464.628,753.625,1388.934,752.01,1384.3Z" transform="translate(-696.9 -1327.481)" fill="#3cc4c9"/>
      </g>
      <g id="Grupo_16215" data-name="Grupo 16215" transform="translate(601.678 3.952)">
        <path id="Trazado_26705" data-name="Trazado 26705" d="M2164.417,740.715l.027-3.242,6.94-3.246,2.955,4.646-7.5,5.325-7.618,1.1-.582-1.867Z" transform="translate(-2062.442 -578.561)" fill="#ec5665"/>
        <path id="Trazado_26706" data-name="Trazado 26706" d="M1991.05,763.885l-7.067-.12-4.907,5.332-5.217.654-.122,1.931h16.975Z" transform="translate(-1943.901 -597.497)" fill="#ec5665"/>
        <path id="Trazado_26707" data-name="Trazado 26707" d="M2026.61,494.916l28.59-4.133c3.393,12.545,4.74,23.794,5.832,34.813a30.785,30.785,0,0,0,6.256,15.783c7.544,9.775,14.03,22.611,19.452,36.78l-6.943,3.455-30.342-35.031a30.79,30.79,0,0,1-5.237-8.529Z" transform="translate(-1977.797 -422.493)" fill="#3cc4c9"/>
        <path id="Trazado_26708" data-name="Trazado 26708" d="M1998.635,479.011l25.887,12.819c-4.324,12.255-9.6,22.282-14.95,31.975a30.784,30.784,0,0,0-3.8,16.546c.666,12.33-1.276,26.579-4.851,41.323l-7.826-.461-4.959-46.7a30.8,30.8,0,0,1,.526-9.994C1991.445,511.81,1998.635,479.011,1998.635,479.011Z" transform="translate(-1953.008 -414.945)" fill="#3cc4c9"/>
        <path id="Trazado_26709" data-name="Trazado 26709" d="M1982.087,404.053l8.891,7.2c-5.547,5.822-10.648,10.76-10.648,10.76l-4.822-2.651-1.044-4.55Z" transform="translate(-1944.367 -366.891)" fill="#f4acc8"/>
        <path id="Trazado_26710" data-name="Trazado 26710" d="M2005.26,364.533c3.666-3.666,12.622,2.749,11.058,7.183a144.228,144.228,0,0,1-11.723,13.505l-8.891-7.2Z" transform="translate(-1957.984 -340.858)" fill="#ec5665"/>
        <rect id="Rectángulo_4073" data-name="Rectángulo 4073" width="13.655" height="6.441" rx="3.22" transform="translate(40.912 31.444) rotate(39.597)" fill="#ec5665"/>
        <path id="Trazado_26711" data-name="Trazado 26711" d="M1933.487,428.975l4.815,3.54-2.587,5.476c-9.9,3.547-23.692.669-29.747-.639l-1.1-2.429Z" transform="translate(-1899.753 -382.868)" fill="#f4acc8"/>
        <path id="Trazado_26712" data-name="Trazado 26712" d="M2013.461,358.175a38.266,38.266,0,0,1,27.237-.372,5.083,5.083,0,0,1,3.282,4.627c.349,12.4,1.025,41.885,1.256,52.061a3.447,3.447,0,0,1-3.451,3.524h-34.244a3.452,3.452,0,0,1-3.443-3.7c.758-10.4,3.121-39.963,6.314-52.656A5.038,5.038,0,0,1,2013.461,358.175Z" transform="translate(-1963.359 -335.749)" fill="#ec5665"/>
        <path id="Trazado_26713" data-name="Trazado 26713" d="M2043.31,356.69a38.431,38.431,0,0,1,15.321-.757c-1.212,2.4-6.153,5.432-9.758,5.432C2045.659,361.366,2043.31,359.53,2043.31,356.69Z" transform="translate(-1988.503 -335.758)" fill="#f4acc8"/>
        <path id="Trazado_26714" data-name="Trazado 26714" d="M2051.917,333.433l-.91,8.219,9.632-1.51-2.776-9.452Z" transform="translate(-1993.438 -319.859)" fill="#f4acc8"/>
        <path id="Trazado_26715" data-name="Trazado 26715" d="M2044.694,318.405c.107,1.538,1.745,2.764,4.51,1.4l4.837-2.886,1.078-7.255-3.086-5.338-8.472,1.31Z" transform="translate(-1988.664 -302.957)" fill="#f4acc8"/>
        <path id="Trazado_26716" data-name="Trazado 26716" d="M2037.308,307.454a1.689,1.689,0,0,1-1.8-1.8l.5-5.118,2.049,1.665,8.438-1.648c3.654-.378,5.4,2.2,4.664,6.362l-1.083,5.061c-.272,1.269-.189,1.946-1.2,2.5l-1.541-3.6-1.231.11.535,4.961-1.67,1.461c-2.759,2.2-4.888,1.227-5.383-.466l-.274-3.416,5.224-.482-.1-6.283,1.876-1.214Z" transform="translate(-1983.498 -300.512)" fill="#945561"/>
        <path id="Trazado_26717" data-name="Trazado 26717" d="M2065.076,323.927c-.278.9-.091,1.761.417,1.917s1.144-.449,1.422-1.352.091-1.762-.417-1.918S2065.354,323.024,2065.076,323.927Z" transform="translate(-2002.375 -314.64)" fill="#f4acc8"/>
        <path id="Trazado_26718" data-name="Trazado 26718" d="M2142.574,409.058l-2.9,4.678-4.6.806-10.4-8.214,7.266-8.927C2137.657,403.42,2142.574,409.058,2142.574,409.058Z" transform="translate(-2040.666 -362.626)" fill="#f4acc8"/>
        <path id="Trazado_26719" data-name="Trazado 26719" d="M2094.735,363.688a140.19,140.19,0,0,1,12.438,11.945l-7.266,8.927-12.92-10.2C2083.517,370.507,2090.388,361.9,2094.735,363.688Z" transform="translate(-2015.898 -340.858)" fill="#ec5665"/>
        <path id="Trazado_26720" data-name="Trazado 26720" d="M2159.042,512.649l-1.2,1.012-.165,2.688-1.87,1.934-.88,3.44,4.878.04,1.961-4.008.115-3.673Z" transform="translate(-2060.061 -436.51)" fill="#f4acc8"/>
        <path id="Trazado_26721" data-name="Trazado 26721" d="M2149.223,426.844l3.7-4.691,5.385,2.773c3.205,10.012,1.431,25.135-.084,31.141l-4.041-.421Z" transform="translate(-2056.403 -378.494)" fill="#f4acc8"/>
        <path id="Trazado_26722" data-name="Trazado 26722" d="M1909.387,421.912h-8.858a2.309,2.309,0,0,1-2.06-1.585l-5.064-16.9a1.139,1.139,0,0,1,1.11-1.585h8.858a2.308,2.308,0,0,1,2.059,1.585l5.065,16.9A1.139,1.139,0,0,1,1909.387,421.912Z" transform="translate(-1892.356 -365.471)" fill="#8cadff"/>
        <path id="Trazado_26723" data-name="Trazado 26723" d="M1906.661,421.912H1897.8a2.308,2.308,0,0,1-2.06-1.585l-5.065-16.9a1.139,1.139,0,0,1,1.11-1.585h8.858a2.309,2.309,0,0,1,2.06,1.585l5.064,16.9A1.139,1.139,0,0,1,1906.661,421.912Z" transform="translate(-1890.609 -365.471)" fill="#b3c9ff"/>
        <path id="Trazado_26724" data-name="Trazado 26724" d="M1900.3,430.571l-.169-2.23,1.595-2.411-1.046-3.394-4.182,2.512.419,4.442,2.46,3.421A2.888,2.888,0,0,0,1900.3,430.571Z" transform="translate(-1894.386 -378.74)" fill="#f4acc8"/>
        <rect id="Rectángulo_4074" data-name="Rectángulo 4074" width="13.655" height="6.441" rx="3.22" transform="translate(92.313 34.097) rotate(130.791)" fill="#ec5665"/>
      </g>
      <g id="Grupo_16217" data-name="Grupo 16217" transform="translate(498.464 343.601)">
        <path id="Trazado_26725" data-name="Trazado 26725" d="M1686.476,1340.524c3.809-4.491,14.138-17.435,16.752-20.319,4.191-4.623,10.495.454,7.161,5.746-2.042,3.242-21.6,24.331-26.542,20.446Z" transform="translate(-1654.844 -1292.712)" fill="#b3680a"/>
        <path id="Trazado_26726" data-name="Trazado 26726" d="M1663.045,1360.916l-3.851,5.673c-5.3-3.631-7.852-6.781-13.8-13.859l1.51-2.84Z" transform="translate(-1630.19 -1312.903)" fill="#b3680a"/>
        <path id="Trazado_26727" data-name="Trazado 26727" d="M1639.6,1344.156l-1.673-2.471-1.341-2-.23-3.169,4.3.738,1.092,3.84.315,3.018Z" transform="translate(-1624.397 -1304.329)" fill="#b3680a"/>
        <path id="Trazado_26728" data-name="Trazado 26728" d="M1731.016,1255.6l8.578,2.3.745,7.455.463,12.915h-8.91C1726.77,1270.041,1724.448,1257.858,1731.016,1255.6Z" transform="translate(-1682.502 -1252.457)" fill="#4f2674"/>
        <path id="Trazado_26729" data-name="Trazado 26729" d="M1723.522,1323.952c0-4.213,6.519-8.8,8.045-12.121a16.728,16.728,0,0,1,10.578.559,7,7,0,0,1,4.641,7.6c-.711,5.814-2.742,11.269-3.133,16.684h-19.564C1724.089,1331.448,1723.522,1328.86,1723.522,1323.952Z" transform="translate(-1680.279 -1288.116)" fill="#2c72b7"/>
        <path id="Trazado_26730" data-name="Trazado 26730" d="M1766.915,1427.677c2.679,9.758,2.15,22.631,2.009,34.013a12.549,12.549,0,0,0,3.47,8.874c8.5,8.818,15.084,19.456,23.034,30.444l-1.962,2.015-32.833-26.74a12.716,12.716,0,0,1-4.287-6.7l-8.731-34.076Z" transform="translate(-1695.724 -1362.771)" fill="#b3680a"/>
        <path id="Trazado_26731" data-name="Trazado 26731" d="M1685.017,1443.787l8.05-46.307s.8-9.045.869-15.344H1713.5c.344,5.092,9.471,9.94,7.664,20.657-.634,3.76-13.565,22.352-20.53,34.459a50.792,50.792,0,0,0-4.939,12.188c-3.4,12.666-9.011,24.493-16.416,39.11l-2.79-.355Z" transform="translate(-1650.126 -1333.576)" fill="#b3680a"/>
        <path id="Trazado_26732" data-name="Trazado 26732" d="M1871.832,1631.99,1869.87,1634l-.944,5.222-2.133,3.052,1.186,1.308,7.439-7.642Z" transform="translate(-1772.128 -1493.753)" fill="#2c72b7"/>
        <path id="Trazado_26733" data-name="Trazado 26733" d="M1663.575,1677.992l-2.79-.355-4.739,2.387-3.722.132-.331,1.734,10.58,1.345Z" transform="translate(-1634.422 -1523.017)" fill="#2c72b7"/>
        <path id="Trazado_26734" data-name="Trazado 26734" d="M1710.941,1397.481a108.2,108.2,0,0,0,1.8-15.344H1732.3c.238,3.525,7.71,9.251,9.066,17.155,1.462,8.529,1.638,19.869.758,32.713h-36.309Z" transform="translate(-1668.927 -1333.576)" fill="#ec5665"/>
        <path id="Trazado_26735" data-name="Trazado 26735" d="M1745.981,1291.66l-.321,8.658,7.322-2.8-1.785-8.288Z" transform="translate(-1694.472 -1274.012)" fill="#b3680a"/>
        <path id="Trazado_26736" data-name="Trazado 26736" d="M1737.89,1271.039a11.06,11.06,0,0,0,4.311-1.459,3.212,3.212,0,0,0,1.444-1.623c1.087-2.7,3.383-9.859-2.129-11.349a7.884,7.884,0,0,0-4.414.718,4.7,4.7,0,0,0-2.945,4.666,41.658,41.658,0,0,0,1.067,6.992A2.649,2.649,0,0,0,1737.89,1271.039Z" transform="translate(-1687.091 -1253.031)" fill="#b3680a"/>
        <path id="Trazado_26737" data-name="Trazado 26737" d="M1722.407,1247.678a4.118,4.118,0,0,0,3.836,1.219l7.185-1.674c3.195-.781,9.2-1.2,9.2,7.28,0,4.109,4.862,2.544,8.207,14.59-2.616,2.8-13.31,4.846-16.829-3.244-2.463-5.663.669-9.5-2.533-12.306C1727.141,1253.544,1722.407,1253.849,1722.407,1247.678Z" transform="translate(-1679.564 -1246.837)" fill="#4f2674"/>
        <g id="Grupo_16216" data-name="Grupo 16216" transform="translate(32.619 26.49)">
          <path id="Trazado_26738" data-name="Trazado 26738" d="M1762.236,1326.567c.156-6.238,9.044-8.424,9.975-2.238.57,3.789-1.334,34.451-7.552,34.731l-1.844-6.165C1762.774,1347.737,1762.139,1330.458,1762.236,1326.567Z" transform="translate(-1737.71 -1320.644)" fill="#b3680a"/>
          <path id="Trazado_26739" data-name="Trazado 26739" d="M1732.112,1408.7l.787,6.812c-5.8.792-9.769-.234-18.9-1.709l-1.317-2.912Z" transform="translate(-1705.951 -1377.094)" fill="#b3680a"/>
          <path id="Trazado_26740" data-name="Trazado 26740" d="M1701.972,1412.743l-3.487-.554-2.321-.639-2.243-2.25,3.74-2.25,3.335,2.2,2.21,2.08Z" transform="translate(-1693.921 -1376.037)" fill="#b3680a"/>
        </g>
        <path id="Trazado_26741" data-name="Trazado 26741" d="M1617.4,1324.407h-7.927a2.066,2.066,0,0,1-1.843-1.418l-4.532-15.126a1.019,1.019,0,0,1,.993-1.418h7.927a2.066,2.066,0,0,1,1.843,1.418l4.532,15.126A1.019,1.019,0,0,1,1617.4,1324.407Z" transform="translate(-1603.038 -1285.051)" fill="#8cadff"/>
        <path id="Trazado_26742" data-name="Trazado 26742" d="M1619.841,1324.407h-7.927a2.066,2.066,0,0,1-1.843-1.418l-4.531-15.126a1.019,1.019,0,0,1,.993-1.418h7.927a2.066,2.066,0,0,1,1.843,1.418l4.532,15.126A1.019,1.019,0,0,1,1619.841,1324.407Z" transform="translate(-1604.602 -1285.051)" fill="#b3c9ff"/>
        <path id="Trazado_26743" data-name="Trazado 26743" d="M1621.405,1325.094a.229.229,0,0,0,.16-.041.337.337,0,0,0-.006-.25l-4.531-15.126a1.209,1.209,0,0,0-1-.794H1608.1a.231.231,0,0,0-.161.041.335.335,0,0,0,.006.25l4.532,15.126a1.209,1.209,0,0,0,1,.794Z" transform="translate(-1606.166 -1286.614)" fill="#4f2674"/>
        <path id="Trazado_26744" data-name="Trazado 26744" d="M1640.081,1334.78l1.059-1.571-3.667-3-.365,1.381Z" transform="translate(-1624.88 -1300.284)" fill="#b3680a"/>
      </g>
      <g id="Grupo_16219" data-name="Grupo 16219" transform="translate(0 225.31)">
        <path id="Trazado_26745" data-name="Trazado 26745" d="M221.731,1353.6l.06-5.013-2.948-3.221-4.618,3.463,4.531,5.632,4.427,3.438,1.075-1.578Z" transform="translate(-214.225 -1191.709)" fill="#2c72b7"/>
        <path id="Trazado_26746" data-name="Trazado 26746" d="M239.06,1116.078a182.839,182.839,0,0,0-2.678,33.676,24.488,24.488,0,0,1-3.664,13.046c-6.294,10.059-10.195,20.945-16.305,34.538l9.247,6.12,25.405-36.86a24.849,24.849,0,0,0,3.785-9.7l6.248-38.562Z" transform="translate(-215.628 -1044.718)" fill="#ec5665"/>
        <path id="Trazado_26747" data-name="Trazado 26747" d="M318.335,1116.078l-37.514.06c2.712,6.84,15.288,27.6,22.014,39.452a25.474,25.474,0,0,1,3.3,12.962c-.19,12.849,1.906,25.1,4.612,40.627H321.36l2.438-46.811a25.482,25.482,0,0,0-.168-4.533Z" transform="translate(-256.919 -1044.718)" fill="#ec5665"/>
        <path id="Trazado_26748" data-name="Trazado 26748" d="M309.555,944.3l.975,14.7-13.907.172,4.567-14.739Z" transform="translate(-267.049 -934.592)" fill="#f4acc8"/>
        <path id="Trazado_26749" data-name="Trazado 26749" d="M339.366,951.892l-1.294-.3,1.107-4.741,1.11,4.087A.774.774,0,0,1,339.366,951.892Z" transform="translate(-293.622 -936.227)" fill="#f4acc8"/>
        <path id="Trazado_26750" data-name="Trazado 26750" d="M308.795,926.938l-1,4.153a6.231,6.231,0,0,0,2.51,6.578l3.506,2.429c2.7,1.829,4.591.782,4.926-.813,0,0,1.125-4.885,2.187-9.492a6.231,6.231,0,0,0-12.13-2.855Z" transform="translate(-274.101 -920.401)" fill="#f4acc8"/>
        <path id="Trazado_26751" data-name="Trazado 26751" d="M303.865,986.68c-1.785-4.877-6.5-14.132-18.09-14.132-5.941,0-10.934,7.038-12.084,11.374-3.3,12.446.4,30.184.4,44.932l39.743-.06C318.467,1011.527,306.7,994.415,303.865,986.68Z" transform="translate(-251.47 -952.703)" fill="#2c72b7"/>
        <path id="Trazado_26752" data-name="Trazado 26752" d="M371.8,1375.476h4.933l4.757,3.206,3.973.649.119,1.905H372.161Z" transform="translate(-315.245 -1211.014)" fill="#2c72b7"/>
        <path id="Trazado_26753" data-name="Trazado 26753" d="M384.311,976.443h8.569a2.233,2.233,0,0,0,1.992-1.533l4.9-16.352a1.1,1.1,0,0,0-1.074-1.533h-8.569a2.233,2.233,0,0,0-1.992,1.533l-4.9,16.352A1.1,1.1,0,0,0,384.311,976.443Z" transform="translate(-322.533 -942.751)" fill="#8cadff"/>
        <path id="Trazado_26754" data-name="Trazado 26754" d="M381.675,976.443h8.569a2.233,2.233,0,0,0,1.992-1.533l4.9-16.352a1.1,1.1,0,0,0-1.073-1.533h-8.569a2.233,2.233,0,0,0-1.992,1.533l-4.9,16.352A1.1,1.1,0,0,0,381.675,976.443Z" transform="translate(-320.843 -942.751)" fill="#b3c9ff"/>
        <path id="Trazado_26755" data-name="Trazado 26755" d="M383.365,977.186a.249.249,0,0,1-.174-.044.362.362,0,0,1,.006-.271l4.9-16.351a1.306,1.306,0,0,1,1.086-.859h8.569a.248.248,0,0,1,.174.044.361.361,0,0,1-.006.271l-4.9,16.351a1.308,1.308,0,0,1-1.086.858Z" transform="translate(-322.533 -944.441)" fill="#4f2674"/>
        <g id="Grupo_16218" data-name="Grupo 16218" transform="translate(38.82 24.515)">
          <path id="Trazado_26756" data-name="Trazado 26756" d="M333.275,988.465a110.831,110.831,0,0,1,6.131,10.37l-8.892,6.364a90.856,90.856,0,0,1-7.635-12.983C320.137,986.034,329.511,982.867,333.275,988.465Z" transform="translate(-322.384 -985.559)" fill="#2c72b7"/>
          <path id="Trazado_26757" data-name="Trazado 26757" d="M361.672,1038.294l-3.948,5.287a81.933,81.933,0,0,1-12.688-14.669l8.892-6.364C356.531,1027.49,358.872,1032.576,361.672,1038.294Z" transform="translate(-336.906 -1009.272)" fill="#f4acc8"/>
          <path id="Trazado_26758" data-name="Trazado 26758" d="M374.544,1029.448l12.881-20.142,2.4,1.247c-.537,5.635-4.531,17.143-9.762,24.117a2.379,2.379,0,0,1-4.189-.745Z" transform="translate(-355.823 -1000.783)" fill="#f4acc8"/>
          <path id="Trazado_26759" data-name="Trazado 26759" d="M410.434,995.757l1.324-4.417,2.6-3.168a17.568,17.568,0,0,1,.685,3.016l.142,1.992L412.829,997Z" transform="translate(-378.832 -987.234)" fill="#f4acc8"/>
        </g>
        <path id="Trazado_26760" data-name="Trazado 26760" d="M317.871,942.323l-1.761-.411-.053-7.783-8.913-2.079-1.926,6.182a2.868,2.868,0,0,0,2.087,3.646l3.318.775a.845.845,0,0,0,1.008-.6l.842-3.107a.845.845,0,0,1,1.639.413l-1.463,6.268a1.249,1.249,0,0,0,.7,1.444c2.07.862,3.478-.091,3.763-1.446Z" transform="translate(-272.476 -926.74)" fill="#4f2674"/>
        <path id="Trazado_26761" data-name="Trazado 26761" d="M311.859,924.645l1-.193A2.682,2.682,0,0,0,314.1,919.8c-4.726-4.258-9.962-2.964-15.56,2.257Z" transform="translate(-268.278 -917.255)" fill="#4f2674"/>
        <path id="Trazado_26762" data-name="Trazado 26762" d="M408.862,995.141l1.4-1.5-3.407-3.827-.623,1.412Z" transform="translate(-337.315 -963.773)" fill="#f4acc8"/>
      </g>
      <g id="Grupo_16227" data-name="Grupo 16227" transform="translate(237.667 68.677)">
        <g id="Grupo_16220" data-name="Grupo 16220" transform="translate(54.194 25.24)">
          <rect id="Rectángulo_4075" data-name="Rectángulo 4075" width="155.447" height="310.894" rx="42.77" fill="#64c2e4"/>
          <path id="Trazado_26763" data-name="Trazado 26763" d="M1052.4,592.582a9.963,9.963,0,0,0-9.952,9.952v251.8a9.963,9.963,0,0,0,9.952,9.952h124.745a9.962,9.962,0,0,0,9.951-9.952v-251.8a9.963,9.963,0,0,0-9.951-9.952Z" transform="translate(-1037.048 -577.72)" fill="#ebf1f9"/>
          <circle id="Elipse_1079" data-name="Elipse 1079" cx="3.288" cy="3.288" r="3.288" transform="translate(74.436 4.875)" fill="#b2e1e9"/>
          <path id="Trazado_26764" data-name="Trazado 26764" d="M1224.3,1381.471h-35.068a3.287,3.287,0,1,1,0-6.575H1224.3a3.287,3.287,0,1,1,0,6.575Z" transform="translate(-1129.041 -1079.25)" fill="#b2e1e9"/>
        </g>
        <g id="Grupo_16226" data-name="Grupo 16226">
          <path id="Trazado_26765" data-name="Trazado 26765" d="M1179.283,1179.977h-79.8c-4.955,23.737-6.507,40.62-7.622,60.882h40.812l3.223-12.115c.692,5.409,1.378,8.925,2.039,12.115h37.989Z" transform="translate(-1014.53 -929.05)" fill="#2c72b7"/>
          <path id="Trazado_26766" data-name="Trazado 26766" d="M1310.185,875.49c-20.636-15.924-39.937-37.2-56.262-59.638-12.5-16.735-6.884-25.354,5.67-30.03,7.892.592,14.579,3.241,20.73,11.086,17.721,22.6,25.4,35.8,38.879,58.466Z" transform="translate(-1113.927 -676.363)" fill="#ec5665"/>
          <g id="Grupo_16222" data-name="Grupo 16222" transform="translate(162.888)">
            <path id="Trazado_26767" data-name="Trazado 26767" d="M1450.408,825.383l-6.844-2.723-7.16,18.2,12.967,5.829C1450.13,838.506,1450.349,831.009,1450.408,825.383Z" transform="translate(-1398.302 -699.979)" fill="#e3e3e3"/>
            <path id="Trazado_26768" data-name="Trazado 26768" d="M1409.079,873.381l-15.3,38.895,10.566,19.347c11.55-12.1,18.987-33.664,20.693-52.066Z" transform="translate(-1370.977 -732.496)" fill="#ec5665"/>
            <g id="Grupo_16221" data-name="Grupo 16221">
              <path id="Trazado_26769" data-name="Trazado 26769" d="M1435.367,780.834l-4.706,1.678a6.242,6.242,0,0,1-6.328-1.3c-8.83-8.143-17.884-25.8-21.467-36.476l20-7.13c2.778,8.96,10.065,25.372,15.626,33.012A6.665,6.665,0,0,1,1435.367,780.834Z" transform="translate(-1376.801 -645.45)" fill="#2c72b7"/>
              <path id="Trazado_26770" data-name="Trazado 26770" d="M1371.287,681.965l-16.97,6.051a18.017,18.017,0,1,1-12.1-33.941l16.97-6.051Z" transform="translate(-1330.245 -588.022)" fill="#3cc4c9"/>
              <path id="Trazado_26771" data-name="Trazado 26771" d="M1399.494,562.228c-3.253,1.778-3.368,9.887-.344,18.369s8.243,14.689,11.884,14c0,.009,79.955.266,79.955.266l-29.739-83.413Z" transform="translate(-1373.018 -500.466)" fill="#3cc4c9"/>
              <ellipse id="Elipse_1080" data-name="Elipse 1080" cx="17.211" cy="49.454" rx="17.211" ry="49.454" transform="matrix(0.942, -0.336, 0.336, 0.942, 71.2, 11.56)" fill="#2c72b7"/>
              <path id="Trazado_26772" data-name="Trazado 26772" d="M1566.46,606.812a135.238,135.238,0,0,0,6.685,15.647l18.24-9.962-9.218-25.856-20.428,3.824A135.216,135.216,0,0,0,1566.46,606.812Z" transform="translate(-1478.652 -548.671)" fill="#3cc4c9"/>
              <ellipse id="Elipse_1081" data-name="Elipse 1081" cx="4.777" cy="13.725" rx="4.777" ry="13.725" transform="matrix(0.942, -0.336, 0.336, 0.942, 99.015, 39.575)" fill="#b3c9ff"/>
              <path id="Trazado_26773" data-name="Trazado 26773" d="M1592.056,587.639c-5.271,1.879-11.932-1.758-18.757-10.243-6.347-7.891-12.33-19.213-16.846-31.879s-7.045-25.219-7.122-35.346c-.083-10.888,2.775-17.92,8.046-19.8s11.933,1.758,18.757,10.243c6.348,7.891,12.33,19.213,16.846,31.879s7.045,25.219,7.122,35.346C1600.184,578.729,1597.327,585.76,1592.056,587.639Zm-33.216-93.164c-6.7,2.388-7.639,23.336,1.717,49.578s23.338,41.869,30.035,39.482,7.639-23.336-1.717-49.578S1565.537,492.088,1558.84,494.476Z" transform="translate(-1470.697 -486.644)" fill="#b3c9ff"/>
            </g>
            <path id="Trazado_26774" data-name="Trazado 26774" d="M1435.123,804.495l-10.333-14.634-4.195-9.041-2.454,1.138,2.066,10.713,6.3,9.684Zm-.179-25.8,8.548,13.418,2.311-4.833-2.377-5.785-4.264-8.8-1.67.112Z" transform="translate(-1386.594 -667.949)" fill="#f4acc8"/>
          </g>
          <path id="Trazado_26775" data-name="Trazado 26775" d="M1155.74,877.972c.476-17.216,3.5-55.605,4.573-80.061a20.844,20.844,0,0,0-15.376-21.068c-24.141-6.481-52.58-8.618-73.133.4a14.877,14.877,0,0,0-8.9,14.535c1.267,32.927,18.11,86.19,18.11,86.19l-9.489,61.653h95.347l-11.219-61.653Z" transform="translate(-995.959 -666.997)" fill="#ec5665"/>
          <path id="Trazado_26776" data-name="Trazado 26776" d="M1202.285,878.839l-4.907-104.233a142.483,142.483,0,0,0-37.988-3.135l27.458,107.451-2.223,46.392h17.33Z" transform="translate(-1057.824 -667.01)" fill="#e3e3e3"/>
          <g id="Grupo_16223" data-name="Grupo 16223" transform="translate(12.55 115.185)">
            <path id="Trazado_26777" data-name="Trazado 26777" d="M935.466,850.543l-6.519,4.206c.328,3.043.792,6.714,1.416,10.775l12.087-3.1Z" transform="translate(-922.64 -833.039)" fill="#e3e3e3"/>
            <path id="Trazado_26778" data-name="Trazado 26778" d="M911.376,804.182l18.774-2.408.81,4.631,4.078,2.551-8.459,14.367-8.9.161Z" transform="translate(-911.376 -801.774)" fill="#f4acc8"/>
            <path id="Trazado_26779" data-name="Trazado 26779" d="M1009.737,895.323c3.1-23.978,7.52-61.051,21-87.483l30.612,16.659c-7.382,25.7-19.3,58.81-30.879,80.118Z" transform="translate(-974.434 -805.663)" fill="#ec5665"/>
            <path id="Trazado_26780" data-name="Trazado 26780" d="M969.4,933.814l-29.466-50.155-14.913,3.119c3.1,20.181,13.082,50.2,28.319,63.349,7.367,5.869,14.989,8.131,22.821,3.1Z" transform="translate(-920.121 -854.269)" fill="#ec5665"/>
          </g>
          <path id="Trazado_26781" data-name="Trazado 26781" d="M1228.476,1200.531l-.683,14.255h19.564l-1.55-14.255Z" transform="translate(-1101.677 -942.227)" fill="#2c72b7"/>
          <g id="Grupo_16224" data-name="Grupo 16224" transform="translate(100.796 45.704)">
            <path id="Trazado_26782" data-name="Trazado 26782" d="M1198.437,716.128l-4.152,28.447L1175.634,728.9l9.091-24.811Z" transform="translate(-1169.034 -669.668)" fill="#f4acc8"/>
            <path id="Trazado_26783" data-name="Trazado 26783" d="M1204.649,664.071c.277,4.5-4.005,8.688-12.55,5.787l-13.955-6.184-7.082-20.971,6.91-16.668,25.081.557Z" transform="translate(-1166.103 -619.629)" fill="#f4acc8"/>
            <path id="Trazado_26784" data-name="Trazado 26784" d="M1255.264,670.067l5.9,10.9-4.936.9Z" transform="translate(-1220.084 -647.858)" fill="#f4acc8"/>
            <path id="Trazado_26785" data-name="Trazado 26785" d="M1195.6,645.967l-6.9,1.2a8.505,8.505,0,0,1-9.6-5.917s-1.924-10.657-2.021-13.143l18.554-5.739,4.374-14.18-6.186,1.451-24.127.945c-10.745.3-14.837,8.454-11.1,20.24l5.079,14.268c1.369,3.845,1.7,5.938,5.605,7.139l1.39-4.091a8.423,8.423,0,0,0-1.081-7.341,8.717,8.717,0,0,1-.634-1.15c-1.15-2.513-.937-5.075.477-5.722s3.492.865,4.643,3.378c1.01,2.207,1.632,17.282,1.632,17.282l8.979,4.554c8.707,2.367,12.722-2.074,12.168-6.552Z" transform="translate(-1157.245 -608.188)" fill="#4f2674"/>
          </g>
          <path id="Trazado_26786" data-name="Trazado 26786" d="M1171.685,764.385l10.273,24.834,9.8-8.484-16.978-20.244Z" transform="translate(-1065.706 -660.124)" fill="#fff"/>
          <path id="Trazado_26787" data-name="Trazado 26787" d="M1232.5,768.045l2.031,21.1-6.928-6.5,2.8-19.175Z" transform="translate(-1101.552 -662.034)" fill="#fff"/>
          <g id="Grupo_16225" data-name="Grupo 16225" transform="translate(0 77.784)">
            <path id="Trazado_26788" data-name="Trazado 26788" d="M907.365,697.57V730.5a8.982,8.982,0,1,1-17.965,0V697.57H876.409V730.5a21.974,21.974,0,1,0,43.947,0V697.57Z" transform="translate(-876.409 -697.57)" fill="#2c72b7"/>
            <rect id="Rectángulo_4076" data-name="Rectángulo 4076" width="12.991" height="11.017" fill="#ec5665"/>
            <rect id="Rectángulo_4077" data-name="Rectángulo 4077" width="12.991" height="11.017" transform="translate(30.956)" fill="#3cc4c9"/>
          </g>
          <path id="Trazado_26789" data-name="Trazado 26789" d="M920.285,801.977l14.513-3,1.341,4.035-7.488,5.78-6.194-.212Z" transform="translate(-904.537 -684.794)" fill="#f4acc8"/>
        </g>
      </g>
    </g>
    <g id="Grupo_16230" data-name="Grupo 16230" transform="translate(169.088 106.763)">
      <g id="Grupo_16229" data-name="Grupo 16229" transform="translate(44.082 28.963)">
        <path id="Trazado_26790" data-name="Trazado 26790" d="M297.1,306a1.078,1.078,0,0,1,2.11-.442,1.087,1.087,0,0,1-.829,1.281,1.513,1.513,0,0,1-.226.022A1.09,1.09,0,0,1,297.1,306Zm-.862-4.232a1.08,1.08,0,1,1,1.271.851,1.363,1.363,0,0,1-.2.022A1.092,1.092,0,0,1,296.237,301.765Zm-.8-4.252a1.077,1.077,0,1,1,1.249.872,1.214,1.214,0,0,1-.193.022A1.081,1.081,0,0,1,295.44,297.512Zm-.732-4.253a1.081,1.081,0,0,1,2.132-.356,1.092,1.092,0,0,1-.894,1.239,1.023,1.023,0,0,1-.172.01A1.075,1.075,0,0,1,294.708,293.259Zm-.657-4.274a1.072,1.072,0,1,1,1.217.9.842.842,0,0,1-.162.01A1.075,1.075,0,0,1,294.051,288.985Zm-.593-4.286a1.08,1.08,0,0,1,.937-1.206,1.055,1.055,0,0,1,1.2.926,1.072,1.072,0,0,1-.926,1.206.634.634,0,0,1-.14.01A1.079,1.079,0,0,1,293.458,284.7Zm-.506-4.307a1.077,1.077,0,1,1,1.185.958c-.033,0-.076.011-.108.011A1.083,1.083,0,0,1,292.952,280.392Zm-.409-4.307a1.075,1.075,0,1,1,1.163.98c-.033,0-.065.01-.1.01A1.076,1.076,0,0,1,292.544,276.085Zm-.323-4.317a1.079,1.079,0,1,1,1.141,1c-.022,0-.043.01-.065.01A1.082,1.082,0,0,1,292.22,271.768Zm-.215-4.329a1.084,1.084,0,0,1,1.044-1.12,1.077,1.077,0,0,1,.076,2.154A1.089,1.089,0,0,1,292.005,267.438Zm-.1-4.339a1.087,1.087,0,0,1,1.066-1.088,1.077,1.077,0,1,1-1.066,1.088ZM293,259.858a1.077,1.077,0,1,1,.043-2.153,1.077,1.077,0,0,1-.022,2.153Zm.118-4.307a.947.947,0,1,1,.065.011A.129.129,0,0,1,293.114,255.551Zm.28-4.285a1.076,1.076,0,1,1,.193-2.143,1.074,1.074,0,0,1-.1,2.143Zm.43-4.286a1.075,1.075,0,1,1,1.206-.925,1.087,1.087,0,0,1-1.066.937A.561.561,0,0,1,293.825,246.98Zm.6-4.264a1.065,1.065,0,0,1-.873-1.238,1.076,1.076,0,1,1,2.121.366,1.044,1.044,0,0,1-1.249.871Zm.8-4.22a1.091,1.091,0,0,1-.808-1.292,1.076,1.076,0,1,1,1.055,1.314A1.983,1.983,0,0,1,295.224,238.5Zm1.012-4.188a1.075,1.075,0,1,1,1.335-.744,1.091,1.091,0,0,1-1.044.787A.9.9,0,0,1,296.237,234.308Zm1.227-4.124a1.078,1.078,0,0,1,.711-2.034,1.079,1.079,0,0,1-.356,2.1A1.071,1.071,0,0,1,297.464,230.183Zm1.486-4.038a1.072,1.072,0,1,1,.409.086A1.118,1.118,0,0,1,298.95,226.146Zm1.734-3.93a1.087,1.087,0,0,1-.474-1.453,1.074,1.074,0,1,1,.958,1.562A1.089,1.089,0,0,1,300.684,222.215Zm2-3.812a1.078,1.078,0,1,1,1.486-.366,1.092,1.092,0,0,1-.926.528A1.077,1.077,0,0,1,302.686,218.4Zm2.294-3.639a1.071,1.071,0,0,1-.258-1.5,1.077,1.077,0,1,1,1.755,1.249,1.073,1.073,0,0,1-.872.452A1.059,1.059,0,0,1,304.98,214.764Zm178.879-.247a1.059,1.059,0,1,1,.355.064A1.034,1.034,0,0,1,483.859,214.517Zm-4.07-1.4a1.076,1.076,0,1,1,1.368-.668,1.089,1.089,0,0,1-1.023.732A1.047,1.047,0,0,1,479.789,213.118Zm-4.07-1.379a1.073,1.073,0,1,1,1.357-.678,1.082,1.082,0,0,1-1.023.743A.92.92,0,0,1,475.719,211.739Zm-168.176-.421a1.093,1.093,0,1,1,.7.248A1.072,1.072,0,0,1,307.542,211.319Zm164.1-.925a1.087,1.087,0,0,1-.689-1.368,1.078,1.078,0,0,1,2.046.678,1.081,1.081,0,0,1-1.023.743A1.124,1.124,0,0,1,471.638,210.393Zm-4.092-1.336a1.075,1.075,0,1,1,.657-2.046,1.064,1.064,0,0,1,.7,1.346,1.082,1.082,0,0,1-1.034.754A1.119,1.119,0,0,1,467.546,209.058Zm-157.161-.98a1.073,1.073,0,0,1,0-1.519,1.086,1.086,0,0,1,1.529,0,1.073,1.073,0,0,1,0,1.519,1.092,1.092,0,0,1-1.529,0Zm153.059-.323a1.078,1.078,0,0,1,.646-2.057,1.079,1.079,0,0,1-.323,2.11A1.118,1.118,0,0,1,463.444,207.755Zm-4.1-1.282a1.065,1.065,0,0,1-.71-1.346,1.076,1.076,0,1,1,1.034,1.4A1.117,1.117,0,0,1,459.341,206.473ZM313.486,205.1a1.094,1.094,0,1,1,.819.376A1.086,1.086,0,0,1,313.486,205.1Zm141.742.129a1.039,1.039,0,1,1,.312.054A1.022,1.022,0,0,1,455.228,205.225Zm-4.124-1.217a1.077,1.077,0,1,1,.3.043A.963.963,0,0,1,451.1,204.007Zm-4.134-1.184a1.073,1.073,0,1,1,.3.043A.959.959,0,0,1,446.97,202.823Zm-130.157-.441a1.082,1.082,0,0,1,.248-1.507,1.073,1.073,0,1,1-.248,1.507Zm126.022-.711a1.077,1.077,0,1,1,1.324-.753,1.083,1.083,0,0,1-1.045.786A1.2,1.2,0,0,1,442.835,201.671Zm-4.157-1.12a1.081,1.081,0,1,1,1.324-.764,1.091,1.091,0,0,1-1.044.8A1.3,1.3,0,0,1,438.679,200.551Zm-118.323-.623a1.073,1.073,0,1,1,1.83-1.12,1.083,1.083,0,0,1-.355,1.486,1.148,1.148,0,0,1-.56.15A1.051,1.051,0,0,1,320.356,199.928Zm114.167-.464a1.088,1.088,0,1,1,.269.032A1.2,1.2,0,0,1,434.522,199.464Zm-4.167-1.044a1.07,1.07,0,1,1,.259.033A1.071,1.071,0,0,1,430.355,198.419Zm-106.3-.657a1.078,1.078,0,0,1,1.916-.99,1.087,1.087,0,0,1-.463,1.454,1.117,1.117,0,0,1-.485.118A1.094,1.094,0,0,1,324.06,197.762Zm102.118-.344a1.059,1.059,0,1,1,.248.032A1.072,1.072,0,0,1,426.178,197.418Zm-98.253-1.561a1.064,1.064,0,0,1,.56-1.411,1.073,1.073,0,1,1,.851,1.97.939.939,0,0,1-.42.086A1.066,1.066,0,0,1,327.925,195.857Zm94.064.6a1.091,1.091,0,0,1-.808-1.292,1.072,1.072,0,0,1,1.281-.818,1.079,1.079,0,0,1-.237,2.132A2.012,2.012,0,0,1,421.989,196.46Zm-4.188-.915a1.084,1.084,0,1,1,.215.021A1.5,1.5,0,0,1,417.8,195.545Zm-85.9-1.325a1.081,1.081,0,1,1,1.379.647,1.037,1.037,0,0,1-.355.064A1.1,1.1,0,0,1,331.9,194.22Zm81.693.452a1.076,1.076,0,0,1,.42-2.11,1.076,1.076,0,0,1-.2,2.133A.707.707,0,0,1,413.591,194.672Zm-4.221-.808a1.079,1.079,0,0,1,.4-2.121,1.081,1.081,0,0,1-.194,2.143A1.367,1.367,0,0,1,409.37,193.865Zm-73.4-1.044a1.078,1.078,0,1,1,1.346.721.8.8,0,0,1-.312.053A1.092,1.092,0,0,1,335.969,192.82Zm69.181.28a1.076,1.076,0,0,1,.366-2.121,1.1,1.1,0,0,1,.883,1.249,1.083,1.083,0,0,1-1.066.894A1.11,1.11,0,0,1,405.149,193.1Zm-65.036-1.442a1.08,1.08,0,1,1,1.3.8,1.058,1.058,0,0,1-.248.033A1.082,1.082,0,0,1,340.114,191.658Zm60.8.754a1.07,1.07,0,0,1-.894-1.227,1.073,1.073,0,1,1,1.055,1.238A.816.816,0,0,1,400.917,192.411Zm-4.242-.635a1.078,1.078,0,1,1,.15.01A.73.73,0,0,1,396.675,191.776ZM344.313,190.7a1.079,1.079,0,1,1,1.26.861,1.233,1.233,0,0,1-.2.022A1.082,1.082,0,0,1,344.313,190.7Zm48.108.516a1.15,1.15,0,1,1,.129,0Zm-43.866-1.27a1.077,1.077,0,1,1,1.216.9.843.843,0,0,1-.161.01A1.073,1.073,0,0,1,348.556,189.946Zm39.6.775a1.139,1.139,0,1,1,.118,0Zm-35.338-1.356a1.077,1.077,0,1,1,1.184.958h-.119A1.072,1.072,0,0,1,352.82,189.364Zm31.074.948a1.136,1.136,0,1,1,.1,0Zm-4.264-.323a1.114,1.114,0,1,1,.065,0Zm-22.525-1.044a1.074,1.074,0,1,1,1.152,1h-.086A1.078,1.078,0,0,1,357.105,188.945Zm18.24.808a1.113,1.113,0,1,1,.043,0ZM361.4,188.675a1.078,1.078,0,1,1,1.12,1.034A1.081,1.081,0,0,1,361.4,188.675Zm9.669.948a1.088,1.088,0,1,1,.022,0Zm-5.362-1.088A1.077,1.077,0,1,1,366.8,189.6,1.063,1.063,0,0,1,365.708,188.535Z" transform="translate(-291.908 -187.458)" fill="#64c2e4"/>
        <path id="Trazado_26791" data-name="Trazado 26791" d="M1065.486,225.63a1.069,1.069,0,0,1-.969-1.173,1.071,1.071,0,1,1,1.066,1.173Zm.463-4.285a1.076,1.076,0,1,1,.366-2.121,1.08,1.08,0,0,1-.183,2.142A1.1,1.1,0,0,1,1065.949,221.345Zm.807-4.221a1.1,1.1,0,1,1,.28.033A1.288,1.288,0,0,1,1066.756,217.125Zm171.687-1.228a1.077,1.077,0,1,1,2.154-.032,1.077,1.077,0,0,1-2.154.032Zm-3.252,1.034a1.088,1.088,0,1,1,.022,0Zm7.559-1.131a1.078,1.078,0,1,1,1.13,1.023A1.1,1.1,0,0,1,1242.75,215.8Zm-11.9.97a1.1,1.1,0,0,1-1.023-1.142,1.078,1.078,0,1,1,1.077,1.142Zm16.2-1.239a1.076,1.076,0,1,1,1.173.97.415.415,0,0,1-.107.01A1.074,1.074,0,0,1,1247.057,215.53Zm-20.534.948a1.08,1.08,0,1,1,1.163-.991,1.078,1.078,0,0,1-1.077.991Zm-4.318-.409a1.025,1.025,0,1,1,.119.012A.407.407,0,0,1,1222.206,216.069Zm29.136-1a1.057,1.057,0,0,1,.906-1.216,1.07,1.07,0,0,1,1.216.9,1.094,1.094,0,0,1-.905,1.227c-.054,0-.107.012-.15.012A1.078,1.078,0,0,1,1251.342,215.068Zm-33.432.506a1.074,1.074,0,1,1,.269-2.132,1.055,1.055,0,0,1,.926,1.194,1.071,1.071,0,0,1-1.066.948A.543.543,0,0,1,1217.91,215.574Zm37.675-1.195a1.077,1.077,0,1,1,1.281.839,1.452,1.452,0,0,1-.226.022A1.089,1.089,0,0,1,1255.585,214.379Zm-41.972.613a1.081,1.081,0,1,1,.162.012A.751.751,0,0,1,1213.613,214.992Zm-4.274-.656a1.1,1.1,0,1,1,.172.011A.927.927,0,0,1,1209.339,214.336Zm50.457-.894a1.077,1.077,0,1,1,2.078-.571,1.085,1.085,0,0,1-.754,1.325,1.393,1.393,0,0,1-.29.042A1.079,1.079,0,0,1,1259.8,213.442Zm-54.72.173a1.052,1.052,0,1,1,.193.021A1.239,1.239,0,0,1,1205.075,213.615Zm-137.091-.625a1.069,1.069,0,0,1-.613-1.389,1.075,1.075,0,1,1,2,.786,1.068,1.068,0,0,1-1,.678A.994.994,0,0,1,1067.984,212.99Zm195.946-.764a1.073,1.073,0,1,1,1.367.656,1.03,1.03,0,0,1-.355.065A1.074,1.074,0,0,1,1263.93,212.225Zm-63.108.613a1.121,1.121,0,1,1,.205.012A1.256,1.256,0,0,1,1200.821,212.839Zm-4.242-.828a1.077,1.077,0,1,1,.43-2.11,1.077,1.077,0,0,1-.214,2.131A1.657,1.657,0,0,1,1196.58,212.01Zm-4.221-.873a1.076,1.076,0,1,1,.215.022A1.5,1.5,0,0,1,1192.359,211.137Zm-4.232-.9a1.1,1.1,0,0,1-.828-1.292,1.071,1.071,0,0,1,1.281-.818,1.078,1.078,0,0,1-.226,2.132A1.673,1.673,0,0,1,1188.127,210.233Zm-4.221-.948a1.076,1.076,0,1,1,.474-2.1,1.08,1.08,0,0,1-.248,2.133A.8.8,0,0,1,1183.906,209.286Zm-114.221-.237a1.078,1.078,0,0,1-.409-1.465,1.09,1.09,0,0,1,1.475-.409,1.076,1.076,0,0,1,.409,1.465,1.085,1.085,0,0,1-1.475.409Zm110.011-.721a1.078,1.078,0,1,1,1.282-.808,1.059,1.059,0,0,1-1.044.829A.9.9,0,0,1,1179.7,208.328Zm-4.209-.98a1.079,1.079,0,0,1,.495-2.1,1.08,1.08,0,0,1-.248,2.132A1.068,1.068,0,0,1,1175.486,207.348Zm-4.189-.991a1.056,1.056,0,1,1,.248.033A1.084,1.084,0,0,1,1171.3,206.357Zm-99.351-.969a1.077,1.077,0,1,1,1.507-.173,1.047,1.047,0,0,1-.839.4A1.08,1.08,0,0,1,1071.947,205.388Zm95.162-.033a1.056,1.056,0,1,1,.247.033A1.026,1.026,0,0,1,1167.109,205.355Zm-4.178-1a1.073,1.073,0,1,1,1.292-.8,1.08,1.08,0,0,1-1.046.83A.893.893,0,0,1,1162.932,204.354Zm-4.2-.991a1.1,1.1,0,0,1-.8-1.3,1.079,1.079,0,1,1,1.056,1.325A2.163,2.163,0,0,1,1158.732,203.364Zm-83.975-1.227a1.087,1.087,0,0,1,.086-1.529,1.074,1.074,0,0,1,1.519.087,1.083,1.083,0,0,1-.8,1.8A1.081,1.081,0,0,1,1074.756,202.136Zm79.787.237a1.078,1.078,0,0,1-.8-1.3,1.062,1.062,0,0,1,1.292-.8,1.074,1.074,0,0,1-.248,2.121A2.1,2.1,0,0,1,1154.544,202.373Zm-4.189-.98a1.078,1.078,0,1,1,.485-2.1,1.081,1.081,0,0,1-.247,2.133A.888.888,0,0,1,1150.354,201.393Zm-4.2-.958a1.058,1.058,0,0,1-.808-1.282,1.072,1.072,0,0,1,1.281-.818,1.079,1.079,0,0,1-.237,2.133A.992.992,0,0,1,1146.156,200.435Zm-68.071-1.034a1.075,1.075,0,1,1,1.486.323,1.045,1.045,0,0,1-.582.173A1.087,1.087,0,0,1,1078.084,199.4Zm63.872.118a1.089,1.089,0,1,1,.226.022A1.516,1.516,0,0,1,1141.956,199.519Zm-4.21-.894a1.063,1.063,0,0,1-.829-1.27,1.08,1.08,0,0,1,1.271-.84,1.078,1.078,0,0,1-.216,2.132A1.522,1.522,0,0,1,1137.746,198.626Zm-55.958-1.4a1.081,1.081,0,1,1,.991.635A1.094,1.094,0,0,1,1081.788,197.226Zm51.749.561a1.08,1.08,0,0,1,.409-2.122,1.076,1.076,0,0,1-.2,2.132A1.411,1.411,0,0,1,1133.537,197.786Zm-4.222-.8a1.077,1.077,0,1,1,1.249-.871,1.063,1.063,0,0,1-1.054.893A1.192,1.192,0,0,1,1129.315,196.989Zm-43.532-1.389a1.076,1.076,0,1,1,2.057-.635,1.08,1.08,0,0,1-.721,1.346,1.043,1.043,0,0,1-1.335-.711Zm39.312.668a1.09,1.09,0,1,1,.173.011A.882.882,0,0,1,1125.094,196.268Zm-4.242-.645a1.068,1.068,0,0,1-.916-1.218,1.082,1.082,0,0,1,1.218-.915,1.094,1.094,0,0,1,.915,1.217,1.08,1.08,0,0,1-1.077.926A.631.631,0,0,1,1120.852,195.622Zm-30.924-1.175a1.062,1.062,0,0,1,.839-1.26,1.076,1.076,0,1,1,.421,2.11,1.214,1.214,0,0,1-.2.022A1.071,1.071,0,0,1,1089.929,194.448Zm26.67.636a1.079,1.079,0,1,1,.249-2.143,1.075,1.075,0,0,1-.119,2.143Zm-22.429-1.368a1.073,1.073,0,1,1,1.184.937.4.4,0,0,1-.118.011A1.064,1.064,0,0,1,1094.17,193.716Zm18.176.937a1.081,1.081,0,1,1,1.163-.98,1.067,1.067,0,0,1-1.066.98Zm-5.276-1.421a1.072,1.072,0,1,1,1.022,1.13A1.065,1.065,0,0,1,1107.07,193.231Zm-8.614.065a1.064,1.064,0,0,1,1.022-1.12,1.072,1.072,0,1,1-1.022,1.12Zm5.372.948a1.082,1.082,0,0,1,.011-2.164,1.082,1.082,0,1,1-.011,2.164Z" transform="translate(-787.213 -190.421)" fill="#64c2e4"/>
        <path id="Trazado_26792" data-name="Trazado 26792" d="M543.7,1188.188a1.077,1.077,0,1,1,.076-2.154,1.077,1.077,0,0,1-.043,2.154Zm3.263-1.12a1.075,1.075,0,0,1,.969-1.173,1.06,1.06,0,0,1,1.174.968,1.081,1.081,0,0,1-.969,1.173h-.108A1.072,1.072,0,0,1,546.966,1187.068Zm-7.7.646a1.078,1.078,0,0,1,.388-2.121,1.08,1.08,0,0,1-.194,2.143A1.219,1.219,0,0,1,539.267,1187.714Zm11.973-1.2a1.074,1.074,0,1,1,1.281.829,1.936,1.936,0,0,1-.237.021A1.068,1.068,0,0,1,551.24,1186.518Zm-16.291.054a1.064,1.064,0,0,1-.656-1.368,1.079,1.079,0,0,1,1.367-.668,1.079,1.079,0,0,1-.355,2.1A1.025,1.025,0,0,1,534.949,1186.573Zm20.469-1.077a1.08,1.08,0,0,1,2.057-.657,1.08,1.08,0,0,1-.7,1.357,1.133,1.133,0,0,1-.334.053A1.079,1.079,0,0,1,555.418,1185.5Zm-24.55-.733a1.059,1.059,0,0,1-.431-1.453,1.071,1.071,0,1,1,.431,1.453Zm28.62-.678a1.074,1.074,0,1,1,1.411.581,1.182,1.182,0,0,1-.42.086A1.085,1.085,0,0,1,559.488,1184.085Zm3.941-1.745a1.074,1.074,0,1,1,1.443.474,1.106,1.106,0,0,1-.485.119A1.056,1.056,0,0,1,563.429,1182.34Zm-36.308,0a1.076,1.076,0,1,1,1.508-.2,1.08,1.08,0,0,1-.861.42A1.035,1.035,0,0,1,527.121,1182.34Zm40.109-2.013a1.077,1.077,0,1,1,1.475.378,1.037,1.037,0,0,1-.549.15A1.069,1.069,0,0,1,567.23,1180.327Zm-43.457-.925a1.085,1.085,0,0,1,.01-1.529,1.081,1.081,0,1,1,.754,1.841A1.073,1.073,0,0,1,523.773,1179.4Zm47.129-1.325a1.075,1.075,0,1,1,1.5.3,1.125,1.125,0,0,1-.6.183A1.072,1.072,0,0,1,570.9,1178.077Zm-50.037-2.014a1.078,1.078,0,1,1,1.507.194,1.046,1.046,0,0,1-.657.216A1.083,1.083,0,0,1,520.865,1176.063Zm53.579-.43a1.078,1.078,0,1,1,1.733-1.282,1.069,1.069,0,0,1-.862,1.712A1.1,1.1,0,0,1,574.444,1175.633Zm-56.077-3.22a1.077,1.077,0,1,1,1.841-1.12,1.07,1.07,0,0,1-.355,1.475,1.124,1.124,0,0,1-.57.162A1.079,1.079,0,0,1,518.367,1172.413Zm-2.11-3.865a1.068,1.068,0,0,1,.5-1.443,1.076,1.076,0,1,1,.936,1.938,1.025,1.025,0,0,1-.463.107A1.082,1.082,0,0,1,516.257,1168.548Zm-1.766-4.017a1.076,1.076,0,1,1,2-.785,1.069,1.069,0,0,1-.613,1.389,1,1,0,0,1-.388.075A1.071,1.071,0,0,1,514.491,1164.531Zm-1.464-4.134a1.078,1.078,0,1,1,1.356.711,1.1,1.1,0,0,1-.323.043A1.08,1.08,0,0,1,513.027,1160.4Zm-1.184-4.2a1.077,1.077,0,1,1,1.3.785,1.03,1.03,0,0,1-.258.033A1.08,1.08,0,0,1,511.842,1156.2Zm-.948-4.264a1.08,1.08,0,1,1,1.26.851.684.684,0,0,1-.2.021A1.08,1.08,0,0,1,510.895,1151.934Zm-.733-4.286a1.077,1.077,0,1,1,2.132-.312,1.07,1.07,0,0,1-.9,1.217.863.863,0,0,1-.162.01A1.085,1.085,0,0,1,510.162,1147.648Zm-.538-4.317a1.088,1.088,0,0,1,.969-1.185,1.077,1.077,0,0,1,.216,2.143H510.7A1.083,1.083,0,0,1,509.624,1143.331Zm-.366-4.34a1.088,1.088,0,0,1,1.012-1.141,1.079,1.079,0,0,1,.14,2.154h-.075A1.09,1.09,0,0,1,509.258,1138.991Zm-.2-4.339a1.077,1.077,0,1,1,1.109,1.045A1.079,1.079,0,0,1,509.054,1134.652Zm-.065-4.328a1.077,1.077,0,1,1,1.077,1.066A1.071,1.071,0,0,1,508.989,1130.324Zm1.109-3.241a1.089,1.089,0,1,1,.043,0Zm.161-4.3a1.108,1.108,0,1,1,.054,0Zm.258-4.3a1.08,1.08,0,0,1,.172-2.153,1.091,1.091,0,0,1,.991,1.163,1.079,1.079,0,0,1-1.077.991Zm.377-4.3a1.076,1.076,0,0,1-.959-1.184,1.06,1.06,0,0,1,1.174-.958,1.073,1.073,0,0,1-.108,2.142Zm.463-4.285a1.075,1.075,0,0,1,.269-2.133,1.075,1.075,0,0,1-.13,2.143A.637.637,0,0,1,511.357,1109.909Zm.56-4.264a1.078,1.078,0,1,1,1.227-.916,1.094,1.094,0,0,1-1.066.926C512.025,1105.655,511.972,1105.645,511.917,1105.645Zm.646-4.264a1.034,1.034,0,1,1,.173.021A.965.965,0,0,1,512.563,1101.381Zm.721-4.243a1.078,1.078,0,0,1,.388-2.121,1.081,1.081,0,0,1-.194,2.143A1.218,1.218,0,0,1,513.285,1097.138Zm.8-4.231a1.079,1.079,0,0,1-.84-1.27,1.062,1.062,0,0,1,1.26-.84,1.075,1.075,0,0,1-.2,2.131A1.353,1.353,0,0,1,514.082,1092.907Zm.872-4.221a1.084,1.084,0,1,1,.226.021A.833.833,0,0,1,514.954,1088.686Zm.926-4.2a1.106,1.106,0,1,1,.247.022A1.966,1.966,0,0,1,515.88,1084.486Zm1-4.2a1.072,1.072,0,0,1-.786-1.3,1.077,1.077,0,1,1,2.089.527,1.071,1.071,0,0,1-1.045.807A1.1,1.1,0,0,1,516.881,1080.288Zm1.056-4.167a1.093,1.093,0,1,1,.269.032A1.237,1.237,0,0,1,517.937,1076.12Zm1.12-4.167a1.072,1.072,0,1,1,1.324-.744,1.092,1.092,0,0,1-1.044.787A.883.883,0,0,1,519.056,1071.954Zm1.163-4.146a1.078,1.078,0,0,1-.732-1.334,1.083,1.083,0,1,1,2.078.613,1.084,1.084,0,0,1-1.044.765A1.014,1.014,0,0,1,520.219,1067.807Zm1.227-4.123a1.075,1.075,0,0,1,.625-2.057,1.071,1.071,0,0,1-.313,2.1A1.066,1.066,0,0,1,521.447,1063.685Z" transform="translate(-431.076 -747.843)" fill="#64c2e4"/>
        <path id="Trazado_26793" data-name="Trazado 26793" d="M1788.151,548.3a1.074,1.074,0,1,1,1.357.679,1.238,1.238,0,0,1-.333.053A1.072,1.072,0,0,1,1788.151,548.3Zm-1.239-4.209a1.074,1.074,0,0,1,.776-1.314,1.088,1.088,0,0,1,1.313.787,1.077,1.077,0,0,1-.787,1.3,1.124,1.124,0,0,1-.269.032A1.069,1.069,0,0,1,1786.913,544.086Zm-.894-4.318a1.072,1.072,0,0,1,.894-1.227,1.079,1.079,0,1,1,.335,2.133c-.053,0-.109.01-.162.01A1.076,1.076,0,0,1,1786.019,539.767Zm-.44-4.4a1.078,1.078,0,1,1,1.119,1.034A1.08,1.08,0,0,1,1785.579,535.364Zm1.087-3.273a1.022,1.022,0,1,1,.107.01A.337.337,0,0,1,1786.666,532.091Zm.57-4.242a1.077,1.077,0,0,1,.527-2.089,1.076,1.076,0,0,1-.269,2.121A1.076,1.076,0,0,1,1787.236,527.849Zm1.217-4.114a1.091,1.091,0,1,1,.43.086A1.03,1.03,0,0,1,1788.453,523.735Zm1.841-3.876a1.067,1.067,0,0,1-.355-1.475,1.078,1.078,0,1,1,.915,1.636A1.114,1.114,0,0,1,1790.294,519.859Zm2.358-3.6a1.078,1.078,0,1,1,1.325-1.7,1.077,1.077,0,0,1-.667,1.926A1.077,1.077,0,0,1,1792.652,516.262Zm2.724-3.327a1.078,1.078,0,0,1,1.465-1.582,1.087,1.087,0,0,1,.053,1.529,1.051,1.051,0,0,1-.787.335A1.039,1.039,0,0,1,1795.376,512.935Zm2.982-3.111a1.063,1.063,0,0,1,.022-1.518,1.085,1.085,0,0,1,1.529.033,1.072,1.072,0,0,1-.033,1.518,1.04,1.04,0,0,1-.742.3A1.029,1.029,0,0,1,1798.358,509.823Zm3.133-2.95a1.075,1.075,0,1,1,1.519.076,1.034,1.034,0,0,1-.721.28A1.06,1.06,0,0,1,1801.492,506.873Zm3.209-2.865a1.088,1.088,0,0,1,.107-1.529,1.076,1.076,0,0,1,1.411,1.626,1.017,1.017,0,0,1-.7.269A1.109,1.109,0,0,1,1804.7,504.009Zm3.251-2.842a1.074,1.074,0,0,1,.087-1.518,1.079,1.079,0,1,1,1.432,1.615,1.065,1.065,0,0,1-.711.269A1.041,1.041,0,0,1,1807.952,501.166Zm3.22-2.864a1.065,1.065,0,0,1,.064-1.519,1.082,1.082,0,1,1-.064,1.519Zm3.155-2.928a1.074,1.074,0,1,1,1.519.021,1.046,1.046,0,0,1-.754.3A1.07,1.07,0,0,1,1814.326,495.374Zm3.047-3.037a1.1,1.1,0,0,1-.053-1.529,1.085,1.085,0,0,1,1.529-.043,1.072,1.072,0,0,1,.043,1.518,1.059,1.059,0,0,1-.785.345A1.076,1.076,0,0,1,1817.374,492.337Zm2.9-3.187a1.078,1.078,0,1,1,1.518-.129,1.1,1.1,0,0,1-.819.388A1.082,1.082,0,0,1,1820.271,489.15Zm2.713-3.338a1.071,1.071,0,0,1-.226-1.508,1.059,1.059,0,0,1,1.5-.226,1.075,1.075,0,0,1-1.271,1.734Zm2.476-3.511a1.081,1.081,0,0,1,1.153-1.83,1.081,1.081,0,0,1-.582,1.992A1.117,1.117,0,0,1,1825.46,482.3Zm2.219-3.693a1.06,1.06,0,1,1,.506.129A1.069,1.069,0,0,1,1827.678,478.609Zm1.927-3.844a1.076,1.076,0,1,1,.84-1.981,1.083,1.083,0,0,1,.57,1.422,1.064,1.064,0,0,1-.991.646A.943.943,0,0,1,1829.606,474.764Zm1.615-3.983a1.075,1.075,0,1,1,.689-2.036,1.084,1.084,0,0,1,.678,1.368,1.1,1.1,0,0,1-1.033.721A.9.9,0,0,1,1831.221,470.781Zm1.292-4.092a1.073,1.073,0,0,1-.765-1.313,1.089,1.089,0,0,1,1.313-.775,1.079,1.079,0,0,1-.269,2.121A1.22,1.22,0,0,1,1832.513,466.689Zm1-4.178a1.089,1.089,0,0,1-.861-1.26,1.079,1.079,0,1,1,1.054,1.271A1.1,1.1,0,0,1,1833.514,462.511Zm.711-4.242a1.05,1.05,0,1,1,.129.01C1834.312,458.28,1834.269,458.269,1834.225,458.269Z" transform="translate(-1249.479 -359.693)" fill="#64c2e4"/>
        <path id="Trazado_26794" data-name="Trazado 26794" d="M1583.981,1208.088a1.069,1.069,0,0,1,.355-1.475,1.073,1.073,0,1,1,1.12,1.831,1.059,1.059,0,0,1-.559.162A1.08,1.08,0,0,1,1583.981,1208.088Zm-2.218-3.726a1.091,1.091,0,0,1,.409-1.475,1.078,1.078,0,1,1,.528,2.014A1.1,1.1,0,0,1,1581.763,1204.362Zm-2.1-3.8a1.069,1.069,0,0,1,.441-1.453,1.074,1.074,0,1,1,1.012,1.895,1.067,1.067,0,0,1-1.453-.442Zm-1.97-3.876a1.076,1.076,0,0,1,1.938-.937,1.081,1.081,0,0,1-.506,1.443,1.2,1.2,0,0,1-.463.108A1.075,1.075,0,0,1,1577.693,1196.685Zm-1.808-3.974a1.088,1.088,0,0,1,.581-1.41,1.079,1.079,0,1,1,.419,2.078A1.092,1.092,0,0,1,1575.885,1192.712Zm-1.583-4.069a1.093,1.093,0,0,1,.666-1.379,1.078,1.078,0,0,1,.711,2.035,1.029,1.029,0,0,1-.355.065A1.087,1.087,0,0,1,1574.3,1188.642Zm-1.272-4.21a1.073,1.073,0,1,1,1.3.775,1.172,1.172,0,0,1-.269.033A1.068,1.068,0,0,1,1573.031,1184.432Zm-.851-4.35a1.075,1.075,0,1,1,1.206.925.617.617,0,0,1-.14.012A1.071,1.071,0,0,1,1572.18,1180.082Zm.819-3.359a1.078,1.078,0,0,1,.107-2.154,1.077,1.077,0,0,1-.054,2.154Zm.452-4.274a1.076,1.076,0,0,1,.635-2.057,1.08,1.08,0,0,1-.323,2.11A1.15,1.15,0,0,1,1573.451,1172.448Zm1.583-3.995a1.073,1.073,0,0,1-.259-1.5,1.077,1.077,0,1,1,1.755,1.249,1.07,1.07,0,0,1-.872.452A1.034,1.034,0,0,1,1575.034,1168.454Zm100.277-2.983a1.077,1.077,0,1,1,1.077,1.077A1.081,1.081,0,0,1,1675.311,1165.47Zm-4.307-.129a1.078,1.078,0,1,1,1.034,1.12A1.081,1.081,0,0,1,1671,1165.341Zm9.755,1.087a1.079,1.079,0,1,1,1.012-1.141,1.083,1.083,0,0,1-1.012,1.141Zm-13.049-.193a1.109,1.109,0,1,1,.074,0Zm16.2-1.141a1.076,1.076,0,0,1,2.131-.3,1.077,1.077,0,0,1-.915,1.217c-.053,0-.1.01-.15.01A1.076,1.076,0,0,1,1683.914,1165.094Zm-20.523.808a1.008,1.008,0,1,1,.1.01C1663.456,1165.912,1663.423,1165.9,1663.391,1165.9Zm-85.6-.733a1.079,1.079,0,0,1,1.712-1.313,1.093,1.093,0,0,1-.2,1.518,1.046,1.046,0,0,1-.657.216A1.059,1.059,0,0,1,1577.79,1165.168Zm81.294.324a1.062,1.062,0,0,1-.958-1.175,1.076,1.076,0,0,1,1.174-.968,1.079,1.079,0,0,1-.107,2.153A.38.38,0,0,1,1659.084,1165.493Zm29.072-1.132a1.079,1.079,0,1,1,1.335.743.894.894,0,0,1-.29.043A1.093,1.093,0,0,1,1688.156,1164.361Zm-33.367.678a1.152,1.152,0,1,1,.118,0Zm-4.286-.506a1.051,1.051,0,1,1,.129.01A.538.538,0,0,1,1650.5,1164.533Zm-4.285-.516a1.08,1.08,0,1,1,.269-2.143,1.081,1.081,0,0,1-.141,2.153C1646.3,1164.028,1646.26,1164.017,1646.218,1164.017Zm46.019-1.034a1.065,1.065,0,0,1,.4-1.465,1.076,1.076,0,1,1,1.077,1.863,1.106,1.106,0,0,1-.538.151A1.073,1.073,0,0,1,1692.237,1162.983Zm-50.295.5a1.075,1.075,0,1,1,.269-2.132,1.076,1.076,0,0,1-.14,2.143A.537.537,0,0,1,1641.942,1163.479Zm-60.577-.7a1.077,1.077,0,1,1,1.422.528.921.921,0,0,1-.442.107A1.08,1.08,0,0,1,1581.365,1162.779Zm56.3.162a1.074,1.074,0,1,1,.259-2.132,1.075,1.075,0,0,1-.129,2.143A.539.539,0,0,1,1637.668,1162.94Zm-4.274-.517a1.052,1.052,0,1,1,.129.01C1633.479,1162.433,1633.437,1162.423,1633.394,1162.423Zm-48.044-1.26a1.068,1.068,0,0,1,.742-1.324,1.075,1.075,0,1,1,.593,2.067.937.937,0,0,1-.292.044A1.092,1.092,0,0,1,1585.349,1161.163Zm43.769.754a1.048,1.048,0,1,1,.119.01C1629.2,1161.928,1629.161,1161.917,1629.118,1161.917Zm-4.274-.475a1.025,1.025,0,1,1,.119.012C1624.919,1161.455,1624.887,1161.443,1624.844,1161.443Zm-4.274-.42a1.082,1.082,0,0,1,.2-2.153,1.079,1.079,0,0,1-.107,2.153Zm-31.043-.9a1.093,1.093,0,0,1,.883-1.249,1.081,1.081,0,0,1,.366,2.132c-.066,0-.13.012-.183.012A1.094,1.094,0,0,1,1589.527,1160.119Zm106.232.4a1.06,1.06,0,0,1-.238-1.5,1.072,1.072,0,1,1,.238,1.5Zm-79.463.13a1.075,1.075,0,1,1,1.151-.992,1.078,1.078,0,0,1-1.066,1C1616.349,1160.658,1616.326,1160.647,1616.3,1160.647Zm-22.5-1.175a1.076,1.076,0,1,1,1.174.969.372.372,0,0,1-.107.011A1.074,1.074,0,0,1,1593.791,1159.473Zm17.217-.258a1.072,1.072,0,0,1,1.13-1.012,1.088,1.088,0,0,1,1.012,1.142,1.073,1.073,0,1,1-2.142-.13Zm-12.921-.086a1.066,1.066,0,0,1,1.034-1.12,1.078,1.078,0,1,1-1.034,1.12Zm9.648,1.034a1.077,1.077,0,1,1,1.12-1.045,1.09,1.09,0,0,1-1.077,1.045Zm-5.341-1.152a1.066,1.066,0,0,1,1.077-1.077,1.077,1.077,0,1,1-.011,2.153A1.063,1.063,0,0,1,1602.394,1159.01Zm95.4-2.25a1.083,1.083,0,0,1,.312-2.143,1.083,1.083,0,0,1-.162,2.153C1697.9,1156.77,1697.846,1156.759,1697.793,1156.759Zm-1.034-5.179a1.081,1.081,0,1,1,1.249.883,1.125,1.125,0,0,1-.183.022A1.093,1.093,0,0,1,1696.759,1151.58Z" transform="translate(-1112.541 -804.74)" fill="#64c2e4"/>
        <path id="Trazado_26795" data-name="Trazado 26795" d="M1036.528,1429.133a1.077,1.077,0,1,1,1.087,1.077A1.09,1.09,0,0,1,1036.528,1429.133Zm-3.263,1.012a1.095,1.095,0,1,1,.033,0Zm7.57-1.066a1.078,1.078,0,1,1,1.12,1.023A1.075,1.075,0,0,1,1040.835,1429.078Zm-11.908.862a1.078,1.078,0,0,1-1-1.153,1.067,1.067,0,0,1,1.142-1,1.078,1.078,0,0,1-.065,2.153Zm16.2-1.089a1.08,1.08,0,1,1,1.163.991c-.033,0-.065.012-.087.012A1.081,1.081,0,0,1,1045.132,1428.852Zm-20.534.722a1.076,1.076,0,0,1-.958-1.184,1.06,1.06,0,0,1,1.174-.958,1.073,1.073,0,0,1-.107,2.142Zm24.83-1.1a1.073,1.073,0,1,1,2.132-.248,1.07,1.07,0,0,1-.937,1.2.536.536,0,0,1-.129.01A1.079,1.079,0,0,1,1049.428,1428.476Zm-29.137.581a1.064,1.064,0,1,1,.14.011A.617.617,0,0,1,1020.291,1429.057Zm33.4-1.109a1.079,1.079,0,1,1,1.238.894,1.027,1.027,0,0,1-.172.01A1.075,1.075,0,0,1,1053.692,1427.948Zm-37.7.452a1.107,1.107,0,1,1,.184.012A.96.96,0,0,1,1015.995,1428.4Zm41.951-1.151a1.089,1.089,0,0,1,.849-1.272,1.081,1.081,0,0,1,.41,2.122,1.242,1.242,0,0,1-.205.021A1.071,1.071,0,0,1,1057.946,1427.249Zm-46.215.344a1.077,1.077,0,0,1,.431-2.11,1.077,1.077,0,0,1-.216,2.132A.715.715,0,0,1,1011.731,1427.592Zm50.435-1.206a1.068,1.068,0,0,1,.8-1.291,1.078,1.078,0,1,1,.5,2.1,1.834,1.834,0,0,1-.247.022A1.078,1.078,0,0,1,1062.166,1426.386Zm-54.677.269a1.068,1.068,0,1,1,.259.033A1.028,1.028,0,0,1,1007.489,1426.655Zm58.855-1.291a1.089,1.089,0,0,1,.754-1.325,1.077,1.077,0,1,1,.57,2.078,1.13,1.13,0,0,1-.28.033A1.091,1.091,0,0,1,1066.344,1425.365Zm-63.055.214a1.077,1.077,0,0,1,.571-2.078,1.09,1.09,0,0,1,.754,1.325,1.1,1.1,0,0,1-1.044.8A1.317,1.317,0,0,1,1003.289,1425.579Zm67.2-1.4a1.074,1.074,0,1,1,1.356.7,1.244,1.244,0,0,1-.333.053A1.073,1.073,0,0,1,1070.489,1424.179Zm-71.367.195a1.086,1.086,0,0,1-.721-1.346,1.08,1.08,0,1,1,1.034,1.388A1.022,1.022,0,0,1,999.122,1424.374Zm75.448-1.541a1.081,1.081,0,1,1,1.389.647,1.136,1.136,0,0,1-.366.064A1.1,1.1,0,0,1,1074.57,1422.833Zm-79.582.194a1.064,1.064,0,0,1-.668-1.358,1.075,1.075,0,1,1,2.036.69,1.057,1.057,0,0,1-1.368.668Zm83.62-1.7a1.087,1.087,0,0,1,.592-1.411,1.077,1.077,0,0,1,.819,1.993,1.179,1.179,0,0,1-.41.085A1.089,1.089,0,0,1,1078.607,1421.327Zm-87.7.247a1.072,1.072,0,0,1-.625-1.389,1.056,1.056,0,0,1,1.379-.625,1.073,1.073,0,0,1-.377,2.079A1.158,1.158,0,0,1,990.906,1421.573Zm91.685-1.927a1.072,1.072,0,0,1,.528-1.422,1.088,1.088,0,0,1,1.432.528,1.1,1.1,0,0,1-.538,1.432,1.048,1.048,0,0,1-.442.1A1.069,1.069,0,0,1,1082.591,1419.646Zm-95.723.345a1.1,1.1,0,1,1,.409.076A1.074,1.074,0,0,1,986.869,1419.991Zm99.631-2.176a1.074,1.074,0,1,1,1.443.474,1.1,1.1,0,0,1-.485.119A1.056,1.056,0,0,1,1086.5,1417.815Zm-103.626.474a1.064,1.064,0,1,1,.442.1A1.07,1.07,0,0,1,982.874,1418.29Zm-3.941-1.808a1.075,1.075,0,0,1,.926-1.939,1.073,1.073,0,0,1-.463,2.046A1.055,1.055,0,0,1,978.933,1416.481Zm111.389-.657a1.077,1.077,0,1,1,1.465.42,1.013,1.013,0,0,1-.518.14A1.074,1.074,0,0,1,1090.323,1415.824Zm-115.276-1.26a1.076,1.076,0,1,1,.485.119A1.137,1.137,0,0,1,975.047,1414.564Zm119.023-.883a1.073,1.073,0,1,1,1.475.355,1.05,1.05,0,0,1-.56.162A1.063,1.063,0,0,1,1094.07,1413.681Zm-122.857-1.141a1.079,1.079,0,0,1,1.034-1.895,1.092,1.092,0,0,1,.431,1.464,1.066,1.066,0,0,1-.947.56A1.117,1.117,0,0,1,971.213,1412.54Zm126.507-1.152a1.061,1.061,0,0,1,.292-1.486,1.075,1.075,0,0,1,1.5.29,1.084,1.084,0,0,1-.894,1.68A1.06,1.06,0,0,1,1097.72,1411.388Zm-130.286-.969a1.1,1.1,0,1,1,.538.141A1.084,1.084,0,0,1,967.434,1410.418Zm133.828-1.464a1.068,1.068,0,1,1,.872.441A1.109,1.109,0,0,1,1101.262,1408.955Zm-137.543-.754a1.081,1.081,0,0,1-.355-1.486,1.084,1.084,0,1,1,.355,1.486Zm140.989-1.831a1.087,1.087,0,0,1,.172-1.518,1.077,1.077,0,0,1,1.346,1.68,1.087,1.087,0,0,1-1.518-.162Zm-144.661-.485a1.074,1.074,0,1,1,1.5-.312,1.094,1.094,0,0,1-.9.484A1.082,1.082,0,0,1,960.047,1405.885Zm148-2.25a1.076,1.076,0,0,1,.1-1.518,1.1,1.1,0,0,1,1.529.108,1.084,1.084,0,0,1-.107,1.518,1.046,1.046,0,0,1-.711.269A1.064,1.064,0,0,1,1108.045,1403.635Zm-151.6-.14a1.1,1.1,0,0,1-.28-1.507,1.081,1.081,0,1,1,.894,1.69A1.16,1.16,0,0,1,956.44,1403.5Zm-3.542-2.487a1.08,1.08,0,1,1,1.508-.248,1.1,1.1,0,0,1-.883.441A1.118,1.118,0,0,1,952.9,1401.008Zm158.357-.226a1.085,1.085,0,0,1,.043-1.529,1.071,1.071,0,0,1,1.519.043,1.078,1.078,0,0,1-1.562,1.486Zm-161.846-2.348a1.079,1.079,0,0,1-.214-1.507,1.077,1.077,0,1,1,1.722,1.292,1.062,1.062,0,0,1-.861.43A1.036,1.036,0,0,1,949.409,1398.434Zm164.946-.646a1.073,1.073,0,1,1,1.519-.022,1.1,1.1,0,0,1-.776.324A1.039,1.039,0,0,1,1114.355,1397.788Zm-168.37-2a1.061,1.061,0,1,1,.668.238A1.034,1.034,0,0,1,945.985,1395.785Zm171.331-1.108a1.085,1.085,0,1,1,.711.269A1.068,1.068,0,0,1,1117.316,1394.677Zm-174.7-1.6a1.072,1.072,0,1,1,.689.247A1.107,1.107,0,0,1,942.615,1393.073Zm177.523-1.637a1.074,1.074,0,0,1,1.367-1.658,1.064,1.064,0,0,1,.151,1.508,1.077,1.077,0,0,1-.829.4A1.1,1.1,0,0,1,1120.138,1391.435Zm-180.828-1.163a1.062,1.062,0,1,1,.7.269A1.035,1.035,0,0,1,939.309,1390.272Zm183.52-2.185a1.075,1.075,0,1,1,.646.216A1.038,1.038,0,0,1,1122.83,1388.087Zm-186.772-.667a1.085,1.085,0,1,1,.721.269A1.074,1.074,0,0,1,936.058,1387.42Zm189.323-2.789a1.076,1.076,0,0,1-.281-1.5,1.077,1.077,0,0,1,1.777,1.217,1.076,1.076,0,0,1-.894.474A1.053,1.053,0,0,1,1125.381,1384.631Zm-192.511-.14a1.069,1.069,0,1,1,.732.29A1.073,1.073,0,0,1,932.871,1384.491Zm-3.133-2.994a1.072,1.072,0,0,1-.022-1.519,1.082,1.082,0,0,1,1.551,1.508,1.079,1.079,0,0,1-1.529.01Zm198.045-.431a1.082,1.082,0,1,1,.571.162A1.117,1.117,0,0,1,1127.782,1381.067Zm-201.114-2.616a1.074,1.074,0,1,1,1.518.011,1.055,1.055,0,0,1-.754.312A1.068,1.068,0,0,1,926.668,1378.45Zm203.376-1.056a1.072,1.072,0,1,1,1.065-1.862,1.072,1.072,0,0,1-.538,2A1,1,0,0,1,1130.044,1377.394Zm-206.391-2.045a1.086,1.086,0,0,1,.043-1.529,1.078,1.078,0,0,1,1.485,1.562,1.081,1.081,0,0,1-1.529-.033Zm208.49-1.712a1.071,1.071,0,0,1-.452-1.454,1.06,1.06,0,0,1,1.443-.452,1.069,1.069,0,0,1-.5,2.024A1.043,1.043,0,0,1,1132.143,1373.637Zm-211.44-1.454a1.071,1.071,0,1,1,.8.355A1.075,1.075,0,0,1,920.7,1372.183Zm213.389-2.39a1.072,1.072,0,0,1-.518-1.422,1.075,1.075,0,1,1,1.95.9,1.066,1.066,0,0,1-.969.625A1,1,0,0,1,1134.092,1369.793Zm-216.285-.818a1.076,1.076,0,0,1,1.615-1.422,1.085,1.085,0,0,1-.1,1.519,1.127,1.127,0,0,1-.711.269A1.092,1.092,0,0,1,917.807,1368.975Zm-2.842-3.263a1.077,1.077,0,1,1,1.518.119,1.066,1.066,0,0,1-.7.258A1.081,1.081,0,0,1,914.965,1365.712Zm220.915.172a1.067,1.067,0,1,1,.42.086A1.174,1.174,0,0,1,1135.88,1365.885Zm-223.693-3.479a1.078,1.078,0,1,1,1.517.14,1.043,1.043,0,0,1-.689.248A1.063,1.063,0,0,1,912.187,1362.406Zm225.319-.506a1.094,1.094,0,1,1,.377.064A1.207,1.207,0,0,1,1137.505,1361.9Zm-228.043-2.854a1.064,1.064,0,0,1,.162-1.507,1.077,1.077,0,0,1,1.517.161,1.089,1.089,0,0,1-.171,1.518,1.034,1.034,0,0,1-.668.238A1.046,1.046,0,0,1,909.462,1359.047Zm229.519-1.195a1.079,1.079,0,0,1-.69-1.356,1.076,1.076,0,1,1,2.046.667,1.082,1.082,0,0,1-1.023.743A1.184,1.184,0,0,1,1138.981,1357.852Zm-232.2-2.2a1.082,1.082,0,1,1,1.518.193,1.086,1.086,0,0,1-.657.215A1.1,1.1,0,0,1,906.781,1355.656Zm233.5-1.907a1.074,1.074,0,1,1,.3.043A1.393,1.393,0,0,1,1140.284,1353.749Zm-236.119-1.539a1.076,1.076,0,1,1,1.507.216,1.037,1.037,0,0,1-.646.215A1.092,1.092,0,0,1,904.165,1352.21Zm237.259-2.616a1.075,1.075,0,1,1,.259.032A1.088,1.088,0,0,1,1141.424,1349.594Zm-239.822-.861a1.074,1.074,0,0,1,.236-1.508,1.079,1.079,0,1,1,.635,1.949A1.062,1.062,0,0,1,901.6,1348.733Zm-2.52-3.522a1.083,1.083,0,0,1,.269-1.5,1.072,1.072,0,0,1,1.5.258,1.085,1.085,0,0,1-.258,1.508,1.121,1.121,0,0,1-.625.193A1.086,1.086,0,0,1,899.083,1345.211Zm243.332.194a1.078,1.078,0,0,1-.851-1.27,1.091,1.091,0,0,1,1.282-.84,1.079,1.079,0,0,1-.215,2.133A1.235,1.235,0,0,1,1142.415,1345.4Zm-245.787-3.736a1.076,1.076,0,1,1,1.5.28,1.041,1.041,0,0,1-.6.183A1.077,1.077,0,0,1,896.628,1341.669Zm246.607-.485a1.093,1.093,0,1,1,.171.012A.831.831,0,0,1,1143.234,1341.184Zm-249.019-3.111a1.076,1.076,0,0,1,1.8-1.184,1.076,1.076,0,1,1-1.8,1.184Zm249.675-1.152a1.064,1.064,0,1,1,.14.01A.674.674,0,0,1,1143.89,1336.92Zm-252.033-2.466a1.075,1.075,0,1,1,1.486.323,1.017,1.017,0,0,1-.581.172A1.064,1.064,0,0,1,891.857,1334.454Zm252.55-1.809a1,1,0,1,1,.1.011A.293.293,0,0,1,1144.408,1332.646ZM889.542,1330.8a1.079,1.079,0,1,1,1.486.345,1.085,1.085,0,0,1-1.486-.345Zm255.209-2.445a1.078,1.078,0,0,1,.119-2.153,1.077,1.077,0,0,1-.053,2.153Zm-257.47-1.237a1.082,1.082,0,0,1,.366-1.476,1.078,1.078,0,0,1,1.12,1.841,1.045,1.045,0,0,1-.56.15A1.083,1.083,0,0,1,887.281,1327.122Zm-2.207-3.7a1.076,1.076,0,1,1,1.475.378,1.035,1.035,0,0,1-.549.151A1.077,1.077,0,0,1,885.074,1323.417Zm-2.165-3.736a1.076,1.076,0,1,1,1.464.4,1.09,1.09,0,0,1-.538.14A1.066,1.066,0,0,1,882.91,1319.682Zm-2.132-3.769a1.077,1.077,0,1,1,1.884-1.044,1.075,1.075,0,0,1-.409,1.464,1.036,1.036,0,0,1-.527.14A1.1,1.1,0,0,1,880.778,1315.913Zm-2.067-3.789a1.069,1.069,0,0,1,.431-1.454,1.077,1.077,0,1,1,1.023,1.895,1.067,1.067,0,0,1-1.454-.44Z" transform="translate(-668.013 -907.451)" fill="#64c2e4"/>
        <path id="Trazado_26796" data-name="Trazado 26796" d="M365.215,824.093a1.065,1.065,0,0,1-.387-1.465,1.076,1.076,0,1,1,.926,1.615A1.1,1.1,0,0,1,365.215,824.093Zm2.121-3.747a1.079,1.079,0,1,1,1.454-.463,1.067,1.067,0,0,1-.958.581A1.02,1.02,0,0,1,367.336,820.345Zm1.928-3.843a1.081,1.081,0,0,1-.528-1.432,1.077,1.077,0,1,1,.98,1.529A1.148,1.148,0,0,1,369.264,816.5Zm1.723-3.952a1.062,1.062,0,1,1,.387.075A1,1,0,0,1,370.987,812.55Zm1.486-4.049a1.076,1.076,0,1,1,.636-2.056,1.079,1.079,0,0,1-.323,2.11A.766.766,0,0,1,372.473,808.5Zm1.2-4.135a1.073,1.073,0,1,1,1.3-.8,1.08,1.08,0,0,1-1.055.828A1.009,1.009,0,0,1,373.668,804.366Zm.894-4.21a1.083,1.083,0,1,1,.162.011A.762.762,0,0,1,374.562,800.156Zm.538-4.274a1.073,1.073,0,1,1,1.141-1.012,1.084,1.084,0,0,1-1.077,1.022C375.143,795.892,375.122,795.882,375.1,795.882Zm-.98-5.33a1.072,1.072,0,1,1,2.143-.1,1.08,1.08,0,0,1-1.023,1.13h-.054A1.069,1.069,0,0,1,374.12,790.552Zm-.42-4.156a1.079,1.079,0,1,1,1.227.894.845.845,0,0,1-.161.01A1.075,1.075,0,0,1,373.7,786.4Zm-.883-4.081a1.079,1.079,0,1,1,1.325.742.881.881,0,0,1-.28.043A1.083,1.083,0,0,1,372.817,782.315Zm-1.367-3.941a1.074,1.074,0,1,1,1.411.571.989.989,0,0,1-.42.086A1.059,1.059,0,0,1,371.45,778.374Zm-1.863-3.726a1.076,1.076,0,0,1,1.863-1.077,1.064,1.064,0,0,1-.388,1.465,1,1,0,0,1-.538.15A1.1,1.1,0,0,1,369.587,774.649Zm-2.315-3.456a1.075,1.075,0,1,1,1.7-1.314,1.08,1.08,0,0,1-.194,1.517,1.041,1.041,0,0,1-.656.216A1.06,1.06,0,0,1,367.272,771.193Zm-2.746-3.134a1.062,1.062,0,0,1,.011-1.518,1.073,1.073,0,1,1,1.507,1.529,1.055,1.055,0,0,1-.754.313A1.067,1.067,0,0,1,364.526,768.059Zm-3.112-2.778a1.091,1.091,0,0,1-.172-1.519,1.077,1.077,0,0,1,1.691,1.336,1.093,1.093,0,0,1-1.519.183Zm-3.423-2.412a1.083,1.083,0,1,1,.57.162A1.112,1.112,0,0,1,357.991,762.869Zm-3.661-2.035a1.053,1.053,0,1,1,.474.119A1.06,1.06,0,0,1,354.33,760.834Zm-3.866-1.658a1.077,1.077,0,0,1,.764-2.014,1.089,1.089,0,0,1,.624,1.389,1.075,1.075,0,0,1-1,.7A.992.992,0,0,1,350.464,759.176Zm-3.995-1.292a1.078,1.078,0,1,1,1.324-.754,1.092,1.092,0,0,1-1.044.786A1.3,1.3,0,0,1,346.469,757.884Zm-4.113-.958a1.129,1.129,0,1,1,.2.01A1.339,1.339,0,0,1,342.356,756.926Zm-4.177-.647a1.073,1.073,0,1,1,1.195-.948,1.081,1.081,0,0,1-1.066.959A.489.489,0,0,1,338.179,756.279Zm-4.222-.333a1.078,1.078,0,0,1,.108-2.153,1.077,1.077,0,0,1-.054,2.153Zm-5.329-1.109a1.077,1.077,0,1,1,1.1,1.056A1.1,1.1,0,0,1,328.628,754.836Z" transform="translate(-315.448 -550.493)" fill="#64c2e4"/>
        <path id="Trazado_26797" data-name="Trazado 26797" d="M1989.958,871.119a1.072,1.072,0,0,1,2.132-.216,1.078,1.078,0,0,1-.959,1.185h-.107A1.066,1.066,0,0,1,1989.958,871.119Zm-.516-4.232a1.081,1.081,0,1,1,1.217.927h-.14A1.08,1.08,0,0,1,1989.442,866.888Zm-.657-4.21a1.077,1.077,0,1,1,1.249.873,1.222,1.222,0,0,1-.194.01A1.081,1.081,0,0,1,1988.785,862.677Zm-.829-4.178a1.075,1.075,0,1,1,1.281.818,1.648,1.648,0,0,1-.226.022A1.072,1.072,0,0,1,1987.955,858.5Zm-1.012-4.134a1.063,1.063,0,0,1,.754-1.313,1.076,1.076,0,1,1,.56,2.078,1.21,1.21,0,0,1-.28.033A1.067,1.067,0,0,1,1986.943,854.365Zm-1.227-4.06a1.082,1.082,0,1,1,2.056-.678,1.078,1.078,0,0,1-.689,1.356.942.942,0,0,1-.333.054A1.076,1.076,0,0,1,1985.717,850.305Zm-1.432-3.995a1.075,1.075,0,1,1,1.389.614,1.245,1.245,0,0,1-.388.076A1.065,1.065,0,0,1,1984.284,846.311Zm-1.68-3.886a1.077,1.077,0,1,1,1.432.516.962.962,0,0,1-.452.108A1.088,1.088,0,0,1,1982.6,842.424Zm-1.927-3.769a1.077,1.077,0,1,1,1.465.42,1.014,1.014,0,0,1-.518.14A1.1,1.1,0,0,1,1980.677,838.656Zm-2.175-3.607a1.077,1.077,0,0,1,.3-1.5,1.081,1.081,0,1,1,1.185,1.809,1.079,1.079,0,0,1-1.486-.312Zm-2.456-3.434a1.068,1.068,0,0,1,.194-1.508,1.078,1.078,0,1,1,1.325,1.7,1.083,1.083,0,0,1-1.519-.193Zm-2.7-3.23a1.079,1.079,0,0,1,1.593-1.454,1.083,1.083,0,0,1-.8,1.81A1.075,1.075,0,0,1,1973.345,828.384Zm-2.951-3a1.064,1.064,0,0,1-.053-1.518,1.074,1.074,0,1,1,.785,1.809A1.054,1.054,0,0,1,1970.394,825.379Zm-3.2-2.768a1.065,1.065,0,0,1-.162-1.508,1.087,1.087,0,0,1,1.518-.172,1.077,1.077,0,0,1-.678,1.916A1.082,1.082,0,0,1,1967.2,822.612Zm-3.392-2.5a1.081,1.081,0,1,1,1.5-.29,1.056,1.056,0,0,1-.882.473A1.161,1.161,0,0,1,1963.8,820.113Zm-3.575-2.25a1.091,1.091,0,1,1,.538.14A1.087,1.087,0,0,1,1960.229,817.863Zm-3.726-2a1.062,1.062,0,1,1,.474.118A1.074,1.074,0,0,1,1956.5,815.861Zm-3.855-1.756a1.074,1.074,0,0,1,.829-1.981,1.074,1.074,0,0,1-.419,2.067A.959.959,0,0,1,1952.649,814.105Zm-3.962-1.517a1.083,1.083,0,0,1-.646-1.378,1.072,1.072,0,0,1,1.367-.657,1.088,1.088,0,0,1,.657,1.378,1.074,1.074,0,0,1-1.012.711A1.035,1.035,0,0,1,1948.687,812.588Zm-4.038-1.314a1.078,1.078,0,0,1,.614-2.067,1.076,1.076,0,0,1-.3,2.11A1.037,1.037,0,0,1,1944.649,811.273Zm-4.1-1.12a1.076,1.076,0,1,1,.516-2.088,1.084,1.084,0,0,1,.787,1.3,1.069,1.069,0,0,1-1.045.818A1.032,1.032,0,0,1,1940.547,810.154Zm-4.156-.937a1.068,1.068,0,0,1-.84-1.26,1.077,1.077,0,1,1,1.055,1.292A.738.738,0,0,1,1936.391,809.217Zm-4.2-.765a1.1,1.1,0,1,1,.184.011A.987.987,0,0,1,1932.191,808.452Zm-4.221-.623a1.065,1.065,0,1,1,.141.01A.7.7,0,0,1,1927.97,807.829Zm-4.242-.485a1.094,1.094,0,0,1-.97-1.185,1.077,1.077,0,0,1,1.185-.958,1.075,1.075,0,0,1-.108,2.143Zm-4.264-.366a1.121,1.121,0,1,1,.075,0Z" transform="translate(-1334.675 -583.241)" fill="#64c2e4"/>
      </g>
      <rect id="Rectángulo_4078" data-name="Rectángulo 4078" width="45.835" height="45.835" rx="22.918" transform="translate(298.953 123.486) rotate(180)" fill="#2a80f7"/>
      <path id="Trazado_26798" data-name="Trazado 26798" d="M922.916,369.365a15.123,15.123,0,0,0,3.326-8.735h-6.6A15.328,15.328,0,0,0,922.916,369.365Zm-1.042-20.185a15.146,15.146,0,0,0-10.036-4.5v14.4h6.255A16.867,16.867,0,0,1,921.875,349.181Zm4.367,9.906a15.123,15.123,0,0,0-3.326-8.735,15.327,15.327,0,0,0-3.276,8.735Zm-14.4,1.544v14.4a15.146,15.146,0,0,0,10.036-4.5,16.867,16.867,0,0,1-3.781-9.906Zm-7.8-1.544h6.255v-14.4a15.144,15.144,0,0,0-10.036,4.5A16.867,16.867,0,0,1,904.04,359.087Zm-3.781,11.45a15.144,15.144,0,0,0,10.036,4.5v-14.4H904.04A16.867,16.867,0,0,1,900.259,370.536Zm-1.042-20.185a15.121,15.121,0,0,0-3.326,8.735h6.6A15.33,15.33,0,0,0,899.217,350.352Zm-3.326,10.279a15.123,15.123,0,0,0,3.326,8.735,15.328,15.328,0,0,0,3.276-8.735Z" transform="translate(-635.031 -259.29)" fill="#fff"/>
      <rect id="Rectángulo_4079" data-name="Rectángulo 4079" width="25.047" height="25.047" rx="12.524" transform="translate(334.869 88.181) rotate(180)" fill="#bfd5f7"/>
      <rect id="Rectángulo_4080" data-name="Rectángulo 4080" width="25.047" height="25.047" rx="12.524" transform="translate(300.437 40.374) rotate(180)" fill="#f7941d"/>
      <circle id="Elipse_1082" data-name="Elipse 1082" cx="10.535" cy="10.535" r="10.535" transform="translate(237.584 51.626)" fill="#ec5665"/>
      <rect id="Rectángulo_4081" data-name="Rectángulo 4081" width="38.837" height="38.837" rx="19.419" transform="translate(57.87 251.945) rotate(180)" fill="#2a80f7"/>
      <path id="Trazado_26799" data-name="Trazado 26799" d="M256.462,718.065a3.082,3.082,0,1,0,0,6.164h-3.037a1.976,1.976,0,0,0-1.976,1.976v6.12h8.1V721.147A3.082,3.082,0,0,0,256.462,718.065Zm-5.013,21.971a1.976,1.976,0,0,0,1.976,1.976h6.119v-8.1h-8.1Zm9.687,1.976h6.12a1.976,1.976,0,0,0,1.975-1.976v-6.12h-8.1Zm6.12-17.783h-3.038a3.082,3.082,0,1,0-3.082-3.082v11.178h8.1v-6.12A1.975,1.975,0,0,0,267.256,724.229Z" transform="translate(-221.888 -498.66)" fill="#fff"/>
      <rect id="Rectángulo_4082" data-name="Rectángulo 4082" width="25.047" height="25.047" rx="12.524" transform="translate(91.548 214.402) rotate(180)" fill="#f7941d"/>
      <rect id="Rectángulo_4083" data-name="Rectángulo 4083" width="25.047" height="25.047" rx="12.524" transform="translate(62.853 172.331) rotate(180)" fill="#bfd5f7"/>
      <circle id="Elipse_1083" data-name="Elipse 1083" cx="10.535" cy="10.535" r="10.535" transform="translate(0 183.584)" fill="#ec5665"/>
      <circle id="Elipse_1084" data-name="Elipse 1084" cx="5.674" cy="5.674" r="5.674" transform="translate(298.251 0)" fill="#ec5665"/>
      <rect id="Rectángulo_4084" data-name="Rectángulo 4084" width="25.047" height="25.047" rx="12.524" transform="translate(546.526 303.517)" fill="#f7941d"/>
      <rect id="Rectángulo_4085" data-name="Rectángulo 4085" width="25.047" height="25.047" rx="12.524" transform="translate(603.906 238.498)" fill="#bfd5f7"/>
      <circle id="Elipse_1085" data-name="Elipse 1085" cx="12.678" cy="12.678" r="12.678" transform="translate(631.78 312.73) rotate(-80.783)" fill="#ec5665"/>
      <circle id="Elipse_1086" data-name="Elipse 1086" cx="5.674" cy="5.674" r="5.674" transform="translate(581.341 220.024)" fill="#ec5665"/>
      <rect id="Rectángulo_4086" data-name="Rectángulo 4086" width="51.377" height="51.377" rx="25.688" transform="translate(600.531 323.082)" fill="#2a80f7"/>
      <path id="Trazado_26800" data-name="Trazado 26800" d="M1892.185,1045.161a7.7,7.7,0,0,1-3.687-2.35,5.967,5.967,0,0,0-1.379-1.222,6.982,6.982,0,0,0-7.444.224l-6.559-6.559.273-.273a.943.943,0,0,0,0-1.335l-5.032-5.033a.944.944,0,0,0-1.335,0l-3.083,3.082a.944.944,0,0,0,0,1.335l5.033,5.033a.944.944,0,0,0,1.335,0l.273-.274,6.562,6.562a6.767,6.767,0,0,0,.579,8.443,5.876,5.876,0,0,0,.441.4,7.1,7.1,0,0,1,2.283,3.533,7.383,7.383,0,0,0,1.949,3.225c3.036,2.935,8.2,2.776,11.708-.373,3.942-3.537,4.391-9.3,1.086-12.6A7.376,7.376,0,0,0,1892.185,1045.161Zm-3.908,7.791a3.124,3.124,0,1,1,0-4.418A3.124,3.124,0,0,1,1888.276,1052.952Z" transform="translate(-1255.455 -697.571)" fill="#fff"/>
      <rect id="Rectángulo_4087" data-name="Rectángulo 4087" width="38.837" height="38.837" rx="19.419" transform="translate(578.155 99.768) rotate(180)" fill="#2a80f7"/>
      <rect id="Rectángulo_4088" data-name="Rectángulo 4088" width="25.047" height="25.047" rx="12.524" transform="translate(611.833 62.225) rotate(180)" fill="#f7941d"/>
      <rect id="Rectángulo_4098" data-name="Rectángulo 4098" width="25.047" height="25.047" rx="12.524" transform="translate(781.833 287.225) rotate(180)" fill="#f7941d"/>
      <circle id="Elipse_1087" data-name="Elipse 1087" cx="10.535" cy="10.535" r="10.535" transform="translate(520.285 31.407)" fill="#ec5665"/>
      <path id="Trazado_26801" data-name="Trazado 26801" d="M1709.844,301.992c-.764-.214-1.528-.393-2.291-.546a5.808,5.808,0,0,1-11.557,0c-.764.153-1.527.333-2.291.546l-5.4,5.4,4.019,4.019,1.378-1.378v12.364h16.139V310.031l1.378,1.378,4.02-4.019Z" transform="translate(-1143.038 -231.571)" fill="#fff"/>
      <rect id="Rectángulo_4089" data-name="Rectángulo 4089" width="45.835" height="45.835" rx="22.918" transform="translate(191.882 396.654) rotate(180)" fill="#2a80f7"/>
      <rect id="Rectángulo_4090" data-name="Rectángulo 4090" width="25.047" height="25.047" rx="12.524" transform="translate(222.061 361.349) rotate(180)" fill="#bfd5f7"/>
      <rect id="Rectángulo_4091" data-name="Rectángulo 4091" width="25.047" height="25.047" rx="12.524" transform="translate(193.366 313.542) rotate(180)" fill="#f7941d"/>
      <circle id="Elipse_1088" data-name="Elipse 1088" cx="10.535" cy="10.535" r="10.535" transform="translate(130.513 324.794)" fill="#ec5665"/>
      <circle id="Elipse_1089" data-name="Elipse 1089" cx="5.674" cy="5.674" r="5.674" transform="translate(191.181 273.168)" fill="#ec5665"/>
      <path id="Trazado_26802" data-name="Trazado 26802" d="M618.753,1135.316h-.56a1.8,1.8,0,0,0,.986-2.191l-2.168-6.836h.781a.96.96,0,0,0,0-1.92h-1.281a.961.961,0,0,0,0-1.921c.03,0,2.2-4.243,2.2-4.243a1.283,1.283,0,0,0-1.048-1.844H616.21v-2.121h-2.4v2.121h-1.452a1.282,1.282,0,0,0-1.047,1.844l2.167,4.243a.961.961,0,0,0,.031,1.921h-1.28a.96.96,0,1,0,0,1.92h.781l-2.168,6.836a1.8,1.8,0,0,0,.987,2.191h-.56a1.6,1.6,0,1,0,0,3.2h7.484a1.6,1.6,0,1,0,0-3.2Zm10.046-.488a1.781,1.781,0,0,0,1.605-2.337l-3.957-6.042,3.841.969,1.048-1.5c-1.706-1.706-3.142-4.932-5.3-5.831v-2.129h-2.124l-1.932,2.214a5.542,5.542,0,0,0-1.514,3.815v5.636l1.377,1.377h.224v1.656a2.143,2.143,0,0,0,1.643,2.162,4.015,4.015,0,0,0-2.494,3.7h10.04A4.015,4.015,0,0,0,628.8,1134.828Z" transform="translate(-451.538 -752.642)" fill="#fff"/>
    </g>
  </g>
</svg>
