<svg xmlns="http://www.w3.org/2000/svg" width="99.426" height="109.599" viewBox="0 0 99.426 109.599">
  <g id="Grupo_1100614" data-name="Grupo 1100614" transform="translate(-1256.334 -197.201)">
    <g id="Grupo_1100613" data-name="Grupo 1100613" transform="translate(12316.239 11672)" style="mix-blend-mode: multiply;isolation: isolate">
      <path id="Trazado_875082" data-name="Trazado 875082" d="M104.521,47.76A47.76,47.76,0,1,1,56.761,0a47.76,47.76,0,0,1,47.76,47.76" transform="translate(-11065 -11467.799)" fill="#7d6eb2"/>
      <path id="Trazado_875083" data-name="Trazado 875083" d="M69.836,47.76,68.2.028Q69.017,0,69.836,0a47.76,47.76,0,0,1,0,95.52q-.567,0-1.134-.013Z" transform="translate(-11078.075 -11467.799)" fill="#7d6eb2"/>
      <path id="Trazado_875084" data-name="Trazado 875084" d="M67.2,47.76,56.286,1.265a47.76,47.76,0,0,1,48.77,75.62Z" transform="translate(-11075.444 -11467.799)" fill="#7d6eb2"/>
      <path id="Trazado_875085" data-name="Trazado 875085" d="M61.608,47.76,30.948,11.141a47.76,47.76,0,0,1,78.42,36.619Z" transform="translate(-11069.848 -11467.799)" fill="#7d6eb2"/>
      <path id="Trazado_875086" data-name="Trazado 875086" d="M86.919,54.724A23.194,23.194,0,1,1,63.725,31.53,23.194,23.194,0,0,1,86.919,54.724" transform="translate(-11071.964 -11474.763)" fill="#7d6eb2"/>
      <path id="Trazado_875087" data-name="Trazado 875087" d="M70.079,131.3q-.39,0-.779-.005" transform="translate(-11078.318 -11496.797)" fill="#7d6eb2" stroke="#558bff" stroke-miterlimit="10" stroke-width="0.6"/>
    </g>
    <g id="Grupo_1100612" data-name="Grupo 1100612" transform="translate(12312.333 11665)">
      <path id="Trazado_875082-2" data-name="Trazado 875082" d="M104.521,47.76A47.76,47.76,0,1,1,56.761,0a47.76,47.76,0,0,1,47.76,47.76" transform="translate(-11065 -11467.799)" fill="#558bff"/>
      <path id="Trazado_875083-2" data-name="Trazado 875083" d="M69.836,47.76,68.2.028Q69.017,0,69.836,0a47.76,47.76,0,0,1,0,95.52q-.567,0-1.134-.013Z" transform="translate(-11078.075 -11467.799)" fill="#fed095"/>
      <path id="Trazado_875084-2" data-name="Trazado 875084" d="M67.2,47.76,56.286,1.265a47.76,47.76,0,0,1,48.77,75.62Z" transform="translate(-11075.444 -11467.799)" fill="#fc8469"/>
      <path id="Trazado_875085-2" data-name="Trazado 875085" d="M61.608,47.76,30.948,11.141a47.76,47.76,0,0,1,78.42,36.619Z" transform="translate(-11069.848 -11467.799)" fill="#a8d8ff"/>
      <path id="Trazado_875086-2" data-name="Trazado 875086" d="M86.919,54.724A23.194,23.194,0,1,1,63.725,31.53,23.194,23.194,0,0,1,86.919,54.724" transform="translate(-11071.964 -11474.763)" fill="#fff"/>
      <path id="Trazado_875087-2" data-name="Trazado 875087" d="M70.079,131.3q-.39,0-.779-.005" transform="translate(-11078.318 -11496.797)" fill="none" stroke="#558bff" stroke-miterlimit="10" stroke-width="0.6"/>
    </g>
  </g>
</svg>
