<svg xmlns="http://www.w3.org/2000/svg" xmlns:xlink="http://www.w3.org/1999/xlink" width="103.013" height="143.144" viewBox="0 0 103.013 143.144">
  <defs>
    <clipPath id="clip-path">
      <rect id="Rect치ngulo_402141" data-name="Rect치ngulo 402141" width="82.072" height="131.457" fill="#7d6eb2"/>
    </clipPath>
    <clipPath id="clip-path-2">
      <rect id="Rect치ngulo_402141-2" data-name="Rect치ngulo 402141" width="83.32" height="133.457" fill="none"/>
    </clipPath>
  </defs>
  <g id="Grupo_1101292" data-name="Grupo 1101292" transform="translate(-853.603 -259.432) rotate(7)">
    <g id="Grupo_1101291" data-name="Grupo 1101291" transform="translate(900.574 153.488)" style="mix-blend-mode: multiply;isolation: isolate">
      <g id="Grupo_1101289" data-name="Grupo 1101289" clip-path="url(#clip-path)">
        <path id="Trazado_876054" data-name="Trazado 876054" d="M41.036,0h0A41.036,41.036,0,0,0,0,41.036C0,67.224,19.766,74.608,19.766,88.388c0,3.52,2.881,13.407,6.4,13.407H55.9c3.52,0,6.4-9.887,6.4-13.407,0-13.78,19.767-21.164,19.767-47.353A41.036,41.036,0,0,0,41.036,0" fill="#7d6eb2" fill-rule="evenodd"/>
        <path id="Trazado_876055" data-name="Trazado 876055" d="M88.855,22.706A25.706,25.706,0,0,1,106.75,36.293a4.35,4.35,0,0,0,6.182,1.737l.078-.048a4.3,4.3,0,0,0,1.6-5.57,34.427,34.427,0,0,0-24.055-18.3A4.351,4.351,0,0,0,85.4,18.782l.008.089a4.306,4.306,0,0,0,3.445,3.835" transform="translate(-40.77 -6.698)" fill="#7d6eb2"/>
        <path id="Trazado_876056" data-name="Trazado 876056" d="M135.521,83.33l-.245-.053a4.267,4.267,0,0,0-5.093,3.468,19.242,19.242,0,0,1-.428,1.9,4.24,4.24,0,0,0,1.854,4.74l.193.121a4.252,4.252,0,0,0,6.363-2.472c.244-.874.456-1.809.632-2.815a4.251,4.251,0,0,0-3.276-4.892" transform="translate(-61.88 -39.718)" fill="#7d6eb2"/>
        <path id="Trazado_876057" data-name="Trazado 876057" d="M32.292,119.414l-.2.153a4.267,4.267,0,0,0-.653,6.127,19.251,19.251,0,0,1,1.173,1.558,4.241,4.241,0,0,0,4.813,1.655l.217-.068a4.252,4.252,0,0,0,2.235-6.451c-.508-.751-1.084-1.518-1.737-2.3a4.251,4.251,0,0,0-5.849-.669" transform="translate(-14.533 -56.602)" fill="#7d6eb2"/>
        <path id="Trazado_876058" data-name="Trazado 876058" d="M57.67,84.874c-5.055-.711-8.077-3.2-8.582-10.042-.155-2.091-.027-6.1,2.6-6.724,3.5-.827,5.676,5.23,6.3,7.656a73.079,73.079,0,0,1,1.438,7.295c.866.052,1.8.064,2.79.054l4.9,0c.837,0,1.627-.017,2.367-.064a73.063,73.063,0,0,1,1.437-7.288c.625-2.426,2.8-8.484,6.3-7.656,2.628.621,2.756,4.633,2.6,6.724-.5,6.784-3.467,9.31-8.58,10.037-.2,1.419-.368,2.833-.531,4.221-.63,5.378-1.082,10.786-1.506,16.185-.494,6.292-.924,12.592-1.492,18.878a1,1,0,1,1-1.992-.18l0-.04c.564-6.264.994-12.544,1.486-18.814.426-5.424.881-10.857,1.514-16.261.147-1.25.3-2.519.473-3.794q-1,.055-2.082.053l-4.885,0c-.877.009-1.715,0-2.513-.047.172,1.274.327,2.543.473,3.791.633,5.4,1.088,10.837,1.514,16.261.483,6.158.907,12.326,1.456,18.479l.034.375a1,1,0,1,1-1.992.18c-.567-6.285-1-12.586-1.492-18.878-.424-5.4-.877-10.806-1.506-16.185-.163-1.386-.335-2.8-.53-4.216m-.3-2.043c-.347-2.228-.769-4.444-1.316-6.568A14.4,14.4,0,0,0,53.8,71.145c-.3-.373-1.084-1.225-1.65-1.092-1.185.281-1.126,3.81-1.066,4.631.406,5.5,2.55,7.492,6.287,8.147m14.17-.012c3.784-.667,5.883-2.679,6.285-8.135.06-.821.119-4.35-1.066-4.631-.565-.134-1.353.718-1.649,1.092a14.394,14.394,0,0,0-2.255,5.118c-.546,2.121-.967,4.333-1.315,6.556" transform="translate(-23.418 -32.483)" fill="#7d6eb2" fill-rule="evenodd"/>
        <path id="Trazado_876059" data-name="Trazado 876059" d="M79.214,237.892a7.936,7.936,0,0,1-7.874,7.154h0a7.937,7.937,0,0,1-7.874-7.154,21.285,21.285,0,0,0,7.874,1.5h0a21.282,21.282,0,0,0,7.874-1.5" transform="translate(-30.303 -113.589)" fill="#7d6eb2" fill-rule="evenodd"/>
        <path id="Trazado_876060" data-name="Trazado 876060" d="M80.385,163.189v19.068a21.534,21.534,0,0,1-21.47,21.47h0a21.533,21.533,0,0,1-21.47-21.47V163.188a46.385,46.385,0,0,0,42.941,0" transform="translate(-17.879 -77.919)" fill="#7d6eb2" fill-rule="evenodd"/>
        <path id="Trazado_876061" data-name="Trazado 876061" d="M37.444,175.246q.752.358,1.5.692,20,8.9,39.948,0,.745-.333,1.491-.69v2.64q-21.439,9.811-42.941-.005Zm42.941,9v2.64q-21.439,9.811-42.941,0v-2.639q.752.358,1.5.693,20,8.9,39.948,0,.745-.335,1.491-.69m-.491,8.325a21.22,21.22,0,0,1-.9,3.023,49.2,49.2,0,0,1-40.163-.008,21.165,21.165,0,0,1-.9-3.02q.506.237,1.012.462,20,8.9,39.948,0,.5-.223,1-.458" transform="translate(-17.879 -83.677)" fill="#7d6eb2" fill-rule="evenodd"/>
      </g>
    </g>
    <g id="Grupo_1101290" data-name="Grupo 1101290" transform="translate(895 151.488)">
      <g id="Grupo_1101289-2" data-name="Grupo 1101289" clip-path="url(#clip-path-2)">
        <path id="Trazado_876054-2" data-name="Trazado 876054" d="M41.66,0h0A41.66,41.66,0,0,0,0,41.66C0,68.247,20.067,75.743,20.067,89.733c0,3.573,2.925,13.611,6.5,13.611H56.754c3.574,0,6.5-10.038,6.5-13.611,0-13.99,20.068-21.486,20.068-48.073A41.66,41.66,0,0,0,41.66,0" fill="#ffdc2d" fill-rule="evenodd"/>
        <path id="Trazado_876055-2" data-name="Trazado 876055" d="M88.908,22.838a26.1,26.1,0,0,1,18.166,13.793,4.416,4.416,0,0,0,6.276,1.764l.079-.049a4.368,4.368,0,0,0,1.624-5.654A34.951,34.951,0,0,0,90.633,14.111a4.417,4.417,0,0,0-5.23,4.743l.008.09a4.372,4.372,0,0,0,3.5,3.893" transform="translate(-40.091 -6.586)" fill="#ffef80"/>
        <path id="Trazado_876056-2" data-name="Trazado 876056" d="M135.611,83.333l-.249-.054a4.332,4.332,0,0,0-5.17,3.521,19.54,19.54,0,0,1-.434,1.931,4.3,4.3,0,0,0,1.882,4.812l.2.123a4.317,4.317,0,0,0,6.46-2.51c.248-.887.463-1.836.641-2.858a4.316,4.316,0,0,0-3.326-4.966" transform="translate(-60.85 -39.057)" fill="#ffef80"/>
        <path id="Trazado_876057-2" data-name="Trazado 876057" d="M32.32,119.427l-.2.155a4.332,4.332,0,0,0-.663,6.22,19.544,19.544,0,0,1,1.19,1.581,4.305,4.305,0,0,0,4.887,1.68l.22-.069a4.317,4.317,0,0,0,2.269-6.549c-.516-.763-1.1-1.542-1.763-2.338a4.316,4.316,0,0,0-5.938-.68" transform="translate(-14.291 -55.66)" fill="#ffef80"/>
        <path id="Trazado_876058-2" data-name="Trazado 876058" d="M57.8,85.13c-5.132-.722-8.2-3.245-8.712-10.2-.157-2.123-.028-6.2,2.641-6.827,3.551-.839,5.762,5.31,6.4,7.773a74.19,74.19,0,0,1,1.46,7.406c.88.053,1.824.065,2.833.055l4.97,0c.85,0,1.652-.018,2.4-.065a74.173,74.173,0,0,1,1.459-7.4c.634-2.463,2.845-8.613,6.4-7.773,2.668.631,2.8,4.7,2.64,6.827-.508,6.888-3.52,9.451-8.711,10.19-.2,1.441-.374,2.876-.539,4.285-.64,5.46-1.1,10.95-1.529,16.431-.5,6.387-.938,12.784-1.514,19.165a1.015,1.015,0,1,1-2.022-.182l0-.041c.573-6.359,1.009-12.735,1.509-19.1.432-5.507.894-11.023,1.537-16.508.149-1.269.306-2.557.48-3.852q-1.012.056-2.113.054l-4.959,0c-.89.009-1.742,0-2.552-.048.175,1.293.332,2.581.48,3.849.642,5.486,1.1,11,1.537,16.508.491,6.252.92,12.513,1.478,18.76l.034.381a1.015,1.015,0,1,1-2.022.182c-.576-6.381-1.013-12.777-1.514-19.165-.431-5.481-.89-10.971-1.529-16.431C58.174,88,58,86.569,57.8,85.13M57.5,83.056c-.353-2.262-.78-4.512-1.336-6.668a14.614,14.614,0,0,0-2.29-5.2c-.3-.379-1.1-1.244-1.675-1.108-1.2.285-1.143,3.868-1.082,4.7.412,5.579,2.589,7.606,6.383,8.271m14.386-.012c3.841-.677,5.972-2.72,6.381-8.258.061-.833.12-4.416-1.083-4.7-.574-.136-1.373.729-1.674,1.108a14.613,14.613,0,0,0-2.289,5.2c-.554,2.153-.982,4.4-1.335,6.656" transform="translate(-23.028 -31.942)" fill="#e9662c" fill-rule="evenodd"/>
        <path id="Trazado_876059-2" data-name="Trazado 876059" d="M79.453,237.892a8.057,8.057,0,0,1-7.994,7.263h0a8.058,8.058,0,0,1-7.994-7.263,21.608,21.608,0,0,0,7.994,1.527h0a21.606,21.606,0,0,0,7.994-1.527" transform="translate(-29.799 -111.698)" fill="#3d465b" fill-rule="evenodd"/>
        <path id="Trazado_876060-2" data-name="Trazado 876060" d="M81.039,163.189v19.358a21.861,21.861,0,0,1-21.8,21.8h0a21.861,21.861,0,0,1-21.8-21.8V163.188a47.091,47.091,0,0,0,43.595,0" transform="translate(-17.581 -76.622)" fill="#ffc" fill-rule="evenodd"/>
        <path id="Trazado_876061-2" data-name="Trazado 876061" d="M37.444,175.246q.763.364,1.525.7,20.3,9.03,40.556,0,.756-.338,1.514-.7v2.68q-21.766,9.961-43.595-.005Zm43.595,9.133v2.68q-21.766,9.961-43.595,0v-2.679q.763.364,1.525.7,20.3,9.031,40.556,0,.756-.34,1.514-.7m-.5,8.451a21.542,21.542,0,0,1-.913,3.069,49.944,49.944,0,0,1-40.775-.008,21.487,21.487,0,0,1-.911-3.066q.513.24,1.028.469,20.3,9.03,40.556,0,.508-.227,1.016-.465" transform="translate(-17.581 -82.283)" fill="#3d465b" fill-rule="evenodd"/>
      </g>
    </g>
  </g>
</svg>
