<svg xmlns="http://www.w3.org/2000/svg" xmlns:xlink="http://www.w3.org/1999/xlink" width="78.501" height="75.824" viewBox="0 0 78.501 75.824">
  <defs>
    <clipPath id="clip-path">
      <rect id="Rectángulo_401173" data-name="Rectángulo 401173" width="66" height="66" transform="translate(-1213.275 -3866.137)" fill="#fff" stroke="#707070" stroke-width="1"/>
    </clipPath>
  </defs>
  <g id="Grupo_1101459" data-name="Grupo 1101459" transform="translate(1219.275 3819.137)">
    <path id="_12068" data-name="12068" d="M72.033,71.913c-8.038-1.11-16.53-.839-23.844,2.675C38.045,79.46,31.382,90.507,31.127,101.757s5.606,22.305,14.66,28.988,21,9.051,32.068,7.045c11.165-2.023,21.645-8.583,27.469-18.322,3.735-6.245,5.48-13.956,3.417-20.934a28.6,28.6,0,0,0-6.787-11.156A50.145,50.145,0,0,0,72.033,71.913Z" transform="translate(-1250.394 -3881.794)" fill="#26aab7"/>
    <g id="Enmascarar_grupo_1098778" data-name="Enmascarar grupo 1098778" transform="translate(0 47)" clip-path="url(#clip-path)">
      <g id="comedia" transform="translate(-1213.275 -3866.137)">
        <g id="Grupo_1101456" data-name="Grupo 1101456">
          <path id="Trazado_877923" data-name="Trazado 877923" d="M25.059,34.577c14.66,0,24.995-5.4,24.995-15.806a17.419,17.419,0,0,0-2.187-7.266C43.863,6.543,35.9,4,25.833,4,11.173,4,.967,9.4.967,19.8a13.173,13.173,0,0,0,1.542,6.363c3.9,5.788,12.485,8.411,22.55,8.411Z" fill="#fff3bf"/>
          <path id="Trazado_877924" data-name="Trazado 877924" d="M9.67,32.56c-1.959,8.727,1.536,13.415,10.84,15.15-5.307-2.73-6.868-7.333-4.783-13.116l-.005,0a46.756,46.756,0,0,0,10.111,1.016c14.66,0,24.866-5.4,24.866-15.806a12.86,12.86,0,0,0-2.831-8.3,13.173,13.173,0,0,1,1.542,6.363c0,10.406-10.206,15.806-24.866,15.806-10.065,0-18.03-2.546-22.035-7.509A15.264,15.264,0,0,0,9.67,32.56Z" fill="#ffe07d"/>
          <path id="Trazado_877925" data-name="Trazado 877925" d="M41.894,19.343a.967.967,0,0,1,.892,1.341c-1.243,2.974-5.37,9.861-16.953,9.861S10.122,23.658,8.88,20.684a.967.967,0,0,1,.892-1.341Z" fill="#f5fcff"/>
          <path id="Trazado_877926" data-name="Trazado 877926" d="M40.385,60.972c10.718,0,19.916-12.864,19.916-25.9,0-3.768-1.1-7.85-3.272-10.289a13.9,13.9,0,0,0-9.123-2.919c-5.843,0-10.155,2.236-10.966,3.427-1.282,1.883-3.81,10.317-11.107,10.317a2.489,2.489,0,0,0-2.313,3.607,26.275,26.275,0,0,0,5.792,2.549l-1,2c5.123,2.006,14.655-.634,17.926-2.658C44.58,47.5,38.491,53.095,28.884,53.472a.965.965,0,0,0-.875,1.3c1.783,3.4,6.543,6.2,12.376,6.2Z" fill="#bfc5eb"/>
          <path id="Trazado_877927" data-name="Trazado 877927" d="M29.923,40.541l-.612,1.223c-3.4,0-5.178-1.205-5.792-2.549a17.542,17.542,0,0,0,5.98.673.451.451,0,0,1,.424.652Zm-1.614,3.227-.285.57a.967.967,0,0,0,.815,1.4c7.716.359,14.091-1.945,17.4-4.626.081-.311.163-.785.232-1.223a.451.451,0,0,0-.712-.434c-3.789,2.728-9.526,4.775-17.446,4.315ZM62.047,42.5a3.423,3.423,0,0,0-1.666.009,30.216,30.216,0,0,0,.951-7.433c0-4.3-1.471-7.931-4.3-10.289,1.706,2.807,2.369,6.521,2.369,10.289,0,12.691-8.984,25-19.014,25-5.833,0-10.958-3.034-12.376-5.3C29.646,59.065,34.552,62,40.385,62c6.706,0,12.768-4.687,16.625-11.268a3.77,3.77,0,0,0,2.459,2.142c2.251.559,4.652-1.312,5.364-4.178s-.535-5.644-2.786-6.2Z" fill="#8a94db"/>
        </g>
        <g id="Grupo_1101457" data-name="Grupo 1101457">
          <path id="Trazado_877928" data-name="Trazado 877928" d="M40.385,62.97c-6.151,0-11.488-3.157-13.279-7.856a1.918,1.918,0,0,1,.193-1.736,1.95,1.95,0,0,1,1.547-.872,21.051,21.051,0,0,0,7.311-1.544.967.967,0,1,1,.745,1.784,22.97,22.97,0,0,1-7.98,1.692h0c1.513,3.948,6.119,6.6,11.468,6.6,5.928,0,11.831-4.034,15.791-10.79a.967.967,0,0,1,1.707.074A2.816,2.816,0,0,0,59.7,51.939c1.73.43,3.611-1.128,4.193-3.473a5.159,5.159,0,0,0-.225-3.338,2.837,2.837,0,0,0-1.855-1.694,2.459,2.459,0,0,0-1.2.009.967.967,0,0,1-1.171-1.177,29.2,29.2,0,0,0,.921-7.194A12.355,12.355,0,0,0,57.2,26.261c-2.168-2.243-5.383-3.429-9.3-3.429-4.924,0-8.588,1.669-9.8,2.639a9.054,9.054,0,0,0,6.306,3.106.967.967,0,1,1-.151,1.928,10.85,10.85,0,0,1-7.232-3.332l-.061.124c-1.593,3.242-4.557,9.278-11.134,9.278a1.5,1.5,0,0,0-1.6,1.508,2.15,2.15,0,0,0,1,1.7A6.8,6.8,0,0,0,29.312,40.8a.967.967,0,0,1,.865,1.4l-1.287,2.574c4.933.228,12.273-.789,16.737-4.411a.967.967,0,0,1,1.545.993,16.707,16.707,0,0,1-6.753,9.477.967.967,0,0,1-1.1-1.59A15.155,15.155,0,0,0,44.3,43.534a29.335,29.335,0,0,1-13.842,3.208q-.816,0-1.659-.039a1.935,1.935,0,0,1-1.643-2.8l.628-1.256a7.643,7.643,0,0,1-3.7-1.3A4.08,4.08,0,0,1,22.3,38.083a3.485,3.485,0,0,1,.375-1.594,45.483,45.483,0,0,1-6.3-.772,9.856,9.856,0,0,0-.115,6.253,9.05,9.05,0,0,0,4.7,4.88.967.967,0,0,1-.62,1.81c-5.173-.965-8.6-2.82-10.48-5.67-1.666-2.527-2.087-5.771-1.282-9.9C2.96,30.157,0,25.577,0,19.8A14.014,14.014,0,0,1,5.761,8.283a.967.967,0,1,1,1.17,1.539,11.993,11.993,0,0,0-5,9.98c0,5.208,2.82,9.318,8.156,11.886a.967.967,0,0,1,.524,1.083c-.886,3.945-.606,6.939.854,9.154a9.779,9.779,0,0,0,4.58,3.512c-2.382-2.9-2.832-6.728-1.23-11.171a.967.967,0,0,1,1.12-.616,45.827,45.827,0,0,0,9.9.991c3.287,0,5.506-1.92,7.079-4.113a24.243,24.243,0,0,1-7.079.984C13.669,31.512,9.3,24.2,7.988,21.057a1.934,1.934,0,0,1,1.783-2.681H41.894a1.934,1.934,0,0,1,1.783,2.681q-.051.121-.1.242a23.355,23.355,0,0,1,4.332-.4c4.45,0,8.145,1.389,10.686,4.018A14.24,14.24,0,0,1,62.3,35.073a30.834,30.834,0,0,1-.679,6.375,4.314,4.314,0,0,1,.66.111,4.725,4.725,0,0,1,3.153,2.778,7.1,7.1,0,0,1,.338,4.6c-.84,3.379-3.771,5.57-6.536,4.883a4.429,4.429,0,0,1-2.188-1.306c-4.294,6.578-10.437,10.46-16.663,10.46ZM9.771,20.31c3.495,8.366,12.4,9.269,16.061,9.269a20.594,20.594,0,0,0,8.693-1.728c.259-.5.493-.972.706-1.406.18-.366.341-.694.491-.979q-.248-.4-.469-.83a.967.967,0,0,1,1.721-.881l.057.11A12.673,12.673,0,0,1,40.2,22.226c.27-.1.567-.2.891-.305a13.767,13.767,0,0,0,.8-1.609ZM38.044,37.081a.967.967,0,0,1-.331-1.876,8.666,8.666,0,0,1,5.873,0,.967.967,0,0,1-.67,1.814,6.7,6.7,0,0,0-4.543,0A.965.965,0,0,1,38.044,37.081Zm12.545-18.13a.967.967,0,0,1-.958-.849c-.51-4.157-2.911-7.427-7.136-9.717C38.366,6.147,32.6,4.964,25.833,4.964c-6.365,0-11.874,1.053-15.931,3.044A.967.967,0,1,1,9.05,6.273c4.321-2.121,10.125-3.242,16.783-3.242,7.093,0,13.173,1.264,17.583,3.655,4.738,2.569,7.551,6.435,8.134,11.182a.967.967,0,0,1-.842,1.077,1.006,1.006,0,0,1-.119.007Zm-34.936-3.07a.967.967,0,0,1-.262-1.9l3.97-1.119-3.97-1.119a.967.967,0,1,1,.524-1.861l7.271,2.049a.967.967,0,0,1,0,1.861l-7.271,2.049a.975.975,0,0,1-.263.036Zm20.36,0a.965.965,0,0,1-.263-.036L28.479,13.8a.967.967,0,0,1,0-1.861L35.75,9.885a.967.967,0,1,1,.524,1.861l-3.97,1.119,3.97,1.119a.967.967,0,0,1-.262,1.9Z"/>
        </g>
      </g>
    </g>
  </g>
</svg>
