<svg xmlns="http://www.w3.org/2000/svg" xmlns:xlink="http://www.w3.org/1999/xlink" width="78.501" height="75.824" viewBox="0 0 78.501 75.824">
  <defs>
    <clipPath id="clip-path">
      <rect id="Rectángulo_401173" data-name="Rectángulo 401173" width="66" height="66" transform="translate(192.524 401.588)" fill="#fff" stroke="#707070" stroke-width="1"/>
    </clipPath>
  </defs>
  <g id="Grupo_1101515" data-name="Grupo 1101515" transform="translate(-186.524 -401.588)">
    <path id="_12068" data-name="12068" d="M72.033,71.913c-8.038-1.11-16.53-.839-23.844,2.675C38.045,79.46,31.382,90.507,31.127,101.757s5.606,22.305,14.66,28.988,21,9.051,32.068,7.045c11.165-2.023,21.645-8.583,27.469-18.322,3.735-6.245,5.48-13.956,3.417-20.934a28.6,28.6,0,0,0-6.787-11.156A50.145,50.145,0,0,0,72.033,71.913Z" transform="translate(155.405 338.931)" fill="#26aab7"/>
    <g id="Enmascarar_grupo_1098772" data-name="Enmascarar grupo 1098772" clip-path="url(#clip-path)">
      <g id="estrategia" transform="translate(192.524 401.588)">
        <g id="Grupo_1101412" data-name="Grupo 1101412">
          <path id="Trazado_877028" data-name="Trazado 877028" d="M46.356,23.225A22.258,22.258,0,1,0,9.446,39.98,16.15,16.15,0,0,1,15.022,52.12v3.143A3.482,3.482,0,0,0,18.5,58.744H29.693a3.482,3.482,0,0,0,3.482-3.482V52.336a16.647,16.647,0,0,1,5.677-12.445A22.2,22.2,0,0,0,46.356,23.225Z" fill="#e490d0"/>
          <path id="Trazado_877029" data-name="Trazado 877029" d="M24.055.967c-.458,0-.912.017-1.362.045A22.257,22.257,0,0,1,36.049,39.891a16.647,16.647,0,0,0-5.677,12.445v2.926a3.482,3.482,0,0,1-3.482,3.482h2.8a3.482,3.482,0,0,0,3.482-3.482V52.336a16.647,16.647,0,0,1,5.677-12.445A22.258,22.258,0,0,0,24.055.967Z" fill="#df73c1"/>
          <circle id="Elipse_11654" data-name="Elipse 11654" cx="17.177" cy="17.177" r="17.177" transform="translate(6.921 6.048)" fill="#f6f1f1"/>
          <path id="Trazado_877030" data-name="Trazado 877030" d="M24.1,6.048q-.708,0-1.4.057a17.177,17.177,0,0,1,0,34.24q.693.056,1.4.057a17.177,17.177,0,1,0,0-34.354Z" fill="#efe7e4"/>
          <circle id="Elipse_11655" data-name="Elipse 11655" cx="11.567" cy="11.567" r="11.567" transform="translate(12.531 11.658)" fill="#e490d0"/>
          <path id="Trazado_877031" data-name="Trazado 877031" d="M24.1,11.658a11.686,11.686,0,0,0-1.5.1,11.568,11.568,0,0,1,0,22.94,11.567,11.567,0,1,0,1.5-23.037Z" fill="#df73c1"/>
          <circle id="Elipse_11656" data-name="Elipse 11656" cx="5.359" cy="5.359" r="5.359" transform="translate(18.74 17.866)" fill="#f6f1f1"/>
          <path id="Trazado_877032" data-name="Trazado 877032" d="M24.1,17.866a5.362,5.362,0,0,0-1.377.18,5.359,5.359,0,0,1,0,10.358A5.359,5.359,0,1,0,24.1,17.866Z" fill="#efe7e4"/>
          <path id="Trazado_877033" data-name="Trazado 877033" d="M24.1,65.033a4.787,4.787,0,0,1-4.787-4.787v-1.5h9.574v1.5A4.787,4.787,0,0,1,24.1,65.033Z" fill="#365e7d"/>
          <path id="Trazado_877034" data-name="Trazado 877034" d="M19.311,60.247a4.838,4.838,0,0,0,.03.532h9.513a4.838,4.838,0,0,0,.03-.532v-1.5H19.311Z" fill="#2b4d66"/>
        </g>
        <path id="Trazado_877035" data-name="Trazado 877035" d="M64.606,14.544,61.191,12.77l.608-.188a.967.967,0,1,0-.571-1.847l-1.123.347L61.567,6.89a.967.967,0,0,0-1.826-.637l-1.933,5.539-1.738.537,1.443-4.135a.967.967,0,0,0-1.826-.637l-1.914,5.482-7.78,2.405A23.269,23.269,0,0,0,24.1,0h-.046A23.225,23.225,0,0,0,8.81,40.708a15.754,15.754,0,0,1,1.349,1.335.967.967,0,1,0,1.44-1.291,17.7,17.7,0,0,0-1.515-1.5A21.276,21.276,0,0,1,24.056,1.934H24.1A21.333,21.333,0,0,1,44.144,16.016l-3.021.934a18.145,18.145,0,1,0-3.607,18.488.967.967,0,1,0-1.43-1.3,16.21,16.21,0,1,1,3.186-16.614L35.752,18.61a12.463,12.463,0,1,0,.572,1.847l3.521-1.088a16.24,16.24,0,0,1-1.618,11.806.967.967,0,1,0,1.684.95A18.176,18.176,0,0,0,41.7,18.8l3.017-.933a21.352,21.352,0,0,1-6.5,21.3,17.818,17.818,0,0,0-5.465,8.909H15.491a17.03,17.03,0,0,0-1.477-3.864.967.967,0,0,0-1.709.905,15.1,15.1,0,0,1,1.186,2.959h-.96a.967.967,0,0,0,0,1.934H13.9a14.732,14.732,0,0,1,.153,2.11v.356H12.531a.967.967,0,0,0,0,1.934h1.524v.853a4.454,4.454,0,0,0,4.289,4.445v.539a5.754,5.754,0,0,0,11.507,0v-.539a4.454,4.454,0,0,0,4.289-4.445v-.853h1.524a.967.967,0,1,0,0-1.934H34.141v-.139a15.191,15.191,0,0,1,.179-2.326h1.345a.967.967,0,1,0,0-1.934h-.916a15.9,15.9,0,0,1,4.743-7.461,23.29,23.29,0,0,0,7.071-23.323l7.883-2.437,5.215,2.709a.967.967,0,0,0,.892-1.716l-3.477-1.806,1.486-.459,5.153,2.678a.967.967,0,1,0,.891-1.716ZM34.7,23.225a10.6,10.6,0,1,1-.8-4.041l-4.12,1.274a6.354,6.354,0,0,0-3.4-3.132.967.967,0,1,0-.7,1.8A4.4,4.4,0,0,1,27.9,21.038L23.813,22.3a.967.967,0,1,0,.571,1.847l4.093-1.265q.014.17.014.342a4.392,4.392,0,1,1-5.975-4.1.967.967,0,1,0-.7-1.8,6.325,6.325,0,1,0,8.607,5.9,6.2,6.2,0,0,0-.069-.922l4.115-1.272a10.6,10.6,0,0,1,.228,2.194Zm-6.78,37.022a3.82,3.82,0,0,1-7.64,0v-.536h7.64Zm4.289-4.984a2.518,2.518,0,0,1-2.515,2.515H18.5a2.518,2.518,0,0,1-2.515-2.515v-.853H32.207Zm0-2.926v.139H15.989V52.12a16.643,16.643,0,0,0-.135-2.11H32.366A17.113,17.113,0,0,0,32.207,52.336Z"/>
      </g>
    </g>
  </g>
</svg>
