<svg xmlns="http://www.w3.org/2000/svg" xmlns:xlink="http://www.w3.org/1999/xlink" width="78.501" height="73.824" viewBox="0 0 78.501 73.824">
  <defs>
    <clipPath id="clip-path">
      <rect id="Rectángulo_402146" data-name="Rectángulo 402146" width="65" height="65" transform="translate(295 519)" fill="#fff" stroke="#707070" stroke-width="1"/>
    </clipPath>
  </defs>
  <g id="Grupo_1101511" data-name="Grupo 1101511" transform="translate(-288 -457)">
    <path id="_12068" data-name="12068" d="M72.033,71.913c-8.038-1.11-16.53-.839-23.844,2.675C38.045,79.46,31.382,90.507,31.127,101.757s5.606,22.305,14.66,28.988,21,9.051,32.068,7.045c11.165-2.023,21.645-8.583,27.469-18.322,3.735-6.245,5.48-13.956,3.417-20.934a28.6,28.6,0,0,0-6.787-11.156A50.145,50.145,0,0,0,72.033,71.913Z" transform="translate(256.881 392.343)" fill="#26aab7"/>
    <g id="Enmascarar_grupo_1098757" data-name="Enmascarar grupo 1098757" transform="translate(0 -62)" clip-path="url(#clip-path)">
      <g id="idea-genial_1_" data-name="idea-genial (1)" transform="translate(295 523.245)">
        <path id="Trazado_876242" data-name="Trazado 876242" d="M25.86.966C12.111.966.965,10.573.965,22.426A19.514,19.514,0,0,0,5.934,35.292L2.957,45.214l8.837-5.081A27.627,27.627,0,0,0,25.86,43.886c13.749,0,24.895-9.608,24.895-21.46S39.609.966,25.86.966Zm0,0" fill="#77f6fb"/>
        <path id="Trazado_876243" data-name="Trazado 876243" d="M55.907,46.712A20.216,20.216,0,0,0,64.034,30.85C64.034,19,52.889,9.39,39.14,9.39S14.245,19,14.245,30.85,25.391,52.31,39.14,52.31a28.176,28.176,0,0,0,10.392-1.955l9.024,5.189Zm0,0" fill="#fed563"/>
        <path id="Trazado_876244" data-name="Trazado 876244" d="M50.754,22.426a19.373,19.373,0,0,0-4.335-12.1A28.59,28.59,0,0,0,39.14,9.39C25.391,9.39,14.245,19,14.245,30.85a19.375,19.375,0,0,0,4.335,12.1,28.591,28.591,0,0,0,7.279.933c13.749,0,24.895-9.608,24.895-21.46Zm0,0" fill="#fc315f"/>
        <path id="Trazado_876245" data-name="Trazado 876245" d="M40.086,23.222a8.159,8.159,0,0,1-3.819,6.915H27.574A8.168,8.168,0,0,1,33.69,15.249l.176.041a8.168,8.168,0,0,1,6.221,7.932Zm0,0" fill="#fcbb65"/>
        <path id="Trazado_876246" data-name="Trazado 876246" d="M40.086,23.222a8.159,8.159,0,0,1-3.819,6.915H31.461a8.168,8.168,0,0,1,2.4-14.847A8.168,8.168,0,0,1,40.086,23.222Zm0,0" fill="#fed563"/>
        <path id="Trazado_876247" data-name="Trazado 876247" d="M37.537,32.094A2.141,2.141,0,0,1,35.4,34.235H28.445a2.141,2.141,0,1,1,0-4.282H35.4a2.141,2.141,0,0,1,2.141,2.141Zm0,0" fill="#d5e8ec"/>
        <path id="Trazado_876248" data-name="Trazado 876248" d="M36.05,36.376a2.14,2.14,0,0,1-2.141,2.141H29.933a2.141,2.141,0,0,1,0-4.282h3.977a2.141,2.141,0,0,1,2.141,2.141Zm0,0" fill="#d5e8ec"/>
        <path id="Trazado_876249" data-name="Trazado 876249" d="M41.051,23.222A9.131,9.131,0,1,0,26,30.177a3.1,3.1,0,0,0,1.18,4.754,3.108,3.108,0,0,0,2.751,4.551h3.977a3.1,3.1,0,0,0,2.749-4.549,3.1,3.1,0,0,0,1.18-4.756,9.079,9.079,0,0,0,3.213-6.956Zm-16.331,0a7.2,7.2,0,1,1,11.4,5.851,3.1,3.1,0,0,0-.723-.086H32.886v-2.13a3.35,3.35,0,0,0,2.38-3.2.965.965,0,0,0-1.931,0,1.414,1.414,0,0,1-2.829,0,.965.965,0,0,0-1.931,0,3.35,3.35,0,0,0,2.379,3.2v2.13h-2.51a3.114,3.114,0,0,0-.725.085,7.166,7.166,0,0,1-3-5.851ZM33.909,33.27H28.445a1.176,1.176,0,1,1,0-2.351H35.4a1.176,1.176,0,1,1,0,2.351Zm.831,3.938a1.168,1.168,0,0,1-.831.345H29.933a1.176,1.176,0,1,1,0-2.352h3.977a1.176,1.176,0,0,1,.831,2.007Zm0,0"/>
        <path id="Trazado_876250" data-name="Trazado 876250" d="M57.018,47.056A21.159,21.159,0,0,0,65,30.85a20.9,20.9,0,0,0-7.627-15.906,26.7,26.7,0,0,0-10.4-5.475,23.942,23.942,0,0,0-2.885-2.95A27.836,27.836,0,0,0,25.86,0,29.016,29.016,0,0,0,13.128,2.9a.965.965,0,1,0,.851,1.733,27.082,27.082,0,0,1,11.881-2.7A25.782,25.782,0,0,1,43.686,8.769a30.09,30.09,0,0,0-4.546-.344,27.835,27.835,0,0,0-18.234,6.52A20.9,20.9,0,0,0,13.28,30.85a20.085,20.085,0,0,0,2.9,10.323,25.248,25.248,0,0,1-3.9-1.872.966.966,0,0,0-.973-.006L4.579,43.168l2.28-7.6a.964.964,0,0,0-.2-.911A18.473,18.473,0,0,1,1.931,22.426c0-6.153,3.189-11.927,8.75-15.841A.966.966,0,0,0,9.569,5.005C3.488,9.286,0,15.636,0,22.426A20.3,20.3,0,0,0,4.858,35.517L2.033,44.936A.965.965,0,0,0,3.438,46.05l8.355-4.8A27.624,27.624,0,0,0,18.025,43.8q.712.873,1.521,1.689a27.091,27.091,0,0,0,15.4,7.493.965.965,0,1,0,.271-1.912A25.257,25.257,0,0,1,21.3,44.5a29.936,29.936,0,0,0,4.563.349,27.836,27.836,0,0,0,18.233-6.519,20.9,20.9,0,0,0,7.627-15.906A19.972,19.972,0,0,0,48.84,12.117C57.215,15.31,63.069,22.505,63.069,30.85a19.344,19.344,0,0,1-7.759,15.1.965.965,0,0,0-.328,1.036L56.935,53.5l-6.921-3.98a.965.965,0,0,0-.837-.061A27.1,27.1,0,0,1,39.14,51.345a.965.965,0,1,0,0,1.931,29.062,29.062,0,0,0,10.31-1.854l8.625,4.959a.965.965,0,0,0,1.405-1.114Zm-7.229-24.63c0,11.3-10.734,20.5-23.929,20.5a27.68,27.68,0,0,1-6.717-.819A18.46,18.46,0,0,1,15.211,30.85c0-11.3,10.734-20.5,23.929-20.5a27.6,27.6,0,0,1,6.712.822,18.353,18.353,0,0,1,3.937,11.248Zm0,0"/>
      </g>
    </g>
  </g>
</svg>
