<svg xmlns="http://www.w3.org/2000/svg" xmlns:xlink="http://www.w3.org/1999/xlink" width="230" height="204.286" viewBox="0 0 230 204.286">
  <defs>
    <clipPath id="clip-path">
      <rect id="Rectángulo_401923" data-name="Rectángulo 401923" width="186.039" height="204.286" fill="none"/>
    </clipPath>
    <clipPath id="clip-path-2">
      <rect id="Rectángulo_401922" data-name="Rectángulo 401922" width="67.394" height="67.537" transform="translate(41.259 103.344)" fill="none"/>
    </clipPath>
    <clipPath id="clip-path-4">
      <rect id="Rectángulo_401924" data-name="Rectángulo 401924" width="83.236" height="91.84" transform="translate(89.176 14.753)" fill="none"/>
    </clipPath>
    <clipPath id="clip-path-5">
      <rect id="Rectángulo_401925" data-name="Rectángulo 401925" width="76.131" height="87.92" transform="translate(92.729 18.673)" fill="none"/>
    </clipPath>
    <clipPath id="clip-path-7">
      <rect id="Rectángulo_401930" data-name="Rectángulo 401930" width="67.193" height="57.773" transform="translate(97.753 25.195)" fill="none"/>
    </clipPath>
  </defs>
  <g id="Grupo_1101511" data-name="Grupo 1101511" transform="translate(-685 -5452.857)">
    <g id="Grupo_1100857" data-name="Grupo 1100857" transform="translate(0 -164.143)">
      <path id="Rectángulo_401917" data-name="Rectángulo 401917" d="M40,0H190a40,40,0,0,1,40,40V82a0,0,0,0,1,0,0H0a0,0,0,0,1,0,0V40A40,40,0,0,1,40,0Z" transform="translate(685 5722)" fill="#26aab7" opacity="0.74"/>
      <g id="Grupo_1100854" data-name="Grupo 1100854" transform="translate(706.98 5617)">
        <g id="Grupo_1100855" data-name="Grupo 1100855">
          <g id="Grupo_1100834" data-name="Grupo 1100834">
            <g id="Grupo_1100856" data-name="Grupo 1100856">
              <path id="Trazado_875248" data-name="Trazado 875248" d="M95.152,195.511a85.125,85.125,0,1,1,85.125-85.125,85.222,85.222,0,0,1-85.125,85.125m0-166.08a80.955,80.955,0,1,0,80.955,80.955A81.046,81.046,0,0,0,95.152,29.431" fill="#7d6eb2"/>
              <path id="Trazado_875249" data-name="Trazado 875249" d="M168.666,110.386A73.515,73.515,0,1,1,95.151,36.871a73.515,73.515,0,0,1,73.515,73.515" fill="#7d6eb2"/>
            </g>
          </g>
          <g id="Grupo_1100839" data-name="Grupo 1100839">
            <g id="Grupo_1100838" data-name="Grupo 1100838" clip-path="url(#clip-path)">
              <path id="Trazado_875250" data-name="Trazado 875250" d="M21.2,99.993c-.834,15.025-1.435,30.492.048,45.483,1.152,11.675,6.058,21.292,18.2,24.158,11.258,2.655,27.294,2.452,36.818-5.011,4.435-3.482,5.98-8.393,5.684-13.894-.407-7.649-6.473-49.541-8.284-62.606C72.571,80.167,71.5,72.1,69.009,64.411c-5.238-16.135-13.291-16.433-14.4-16.758-.958-.613-7.013-2.91-15.729-.132a17.01,17.01,0,0,0-10.359,9.22c-6.268,12.95-6.537,29.184-7.325,43.252" fill="#263238"/>
              <path id="Trazado_875251" data-name="Trazado 875251" d="M57.171,50.321c9.6,4.487,11.889,14.97,14.214,24.365,3.237,13.079,6.25,26.217,8.625,39.482,1.142,6.378,2.141,12.783,2.947,19.212.772,6.153,1.974,12.719,1.56,18.936-.686,10.279-10.09,14.955-19.2,16.419a.349.349,0,0,1-.131-.686c5.189-1.029,10.486-2.471,14.349-6.321,4.953-4.937,4.377-11.38,3.792-17.8-1-10.921-2.614-21.779-4.62-32.558s-4.4-21.514-6.961-32.188c-2.436-10.16-4.2-23.539-14.63-28.7-.1-.048-.043-.208.058-.161" fill="#263238"/>
              <path id="Trazado_875252" data-name="Trazado 875252" d="M24.106,67.716c1.824-7.854,5.9-15.511,14.175-17.792.016,0,.019.02.005.025-10.69,3.4-13.293,15.087-14.718,24.845q-2.249,15.4-3.347,30.941c-.714,9.956-1.221,19.993-1.027,29.976.21,10.776,2.161,20.869,8.525,29.75.132.184-.118.4-.27.23-6.268-7.182-8.343-17.08-8.846-26.345-.663-12.2.128-24.612,1.083-36.777.907-11.559,1.792-23.537,4.42-34.853" fill="#263238"/>
              <path id="Trazado_875253" data-name="Trazado 875253" d="M44.951,116.838c7.218,21.291,23.081,53.968,34.513,52.8,10.437-1.064,42.091-14.658,51.33-21.568,9.3-6.954-15.078-33.557-21.049-30.237-9.01,5.009-29.091,17.264-31.345,16.75-2.81-.64-6.864-7.066-24.161-25.555-7.076-7.564-12.361-1.256-9.288,7.807" fill="#ffc4c0"/>
              <path id="Trazado_875254" data-name="Trazado 875254" d="M130.03,148.365c3.847-1.386,20.919-9.291,25.178-12.553s15.833-13.54,13.665-17.055-5.8-.778-5.8-.778,4.2-5.113,1.7-8.453-8.01,1.106-8.01,1.106,3.931-5.566,1.195-8.719-7.524,2.244-7.524,2.244,3.832-4.921.485-6.57c-4.026-1.983-10.065,7.888-15.036,11.137-1.129.739-23.949,13.326-23.949,13.326Z" fill="#ffc4c0"/>
              <path id="Trazado_875255" data-name="Trazado 875255" d="M150.854,103.7c-4.458,7.249-7.662,9.649-15.182,13.341-.147.072-.073.307.088.245,7.693-2.945,12.146-5.376,15.456-13.388.162-.392-.15-.543-.362-.2" fill="#263238"/>
              <path id="Trazado_875256" data-name="Trazado 875256" d="M157.107,110.05c-5.287,7.124-8.74,9.758-16.331,14.2-.108.063-.012.251.1.2,7.812-3.738,12.2-6.266,16.547-14.078.2-.353-.075-.649-.317-.323" fill="#263238"/>
              <path id="Trazado_875257" data-name="Trazado 875257" d="M162.684,118.194c-5.617,6.528-9.278,9.579-17.2,12.949a.158.158,0,0,0,.107.3c8.414-2.65,13.01-6.424,17.275-13.055.291-.453.173-.6-.18-.192" fill="#263238"/>
              <path id="Trazado_875258" data-name="Trazado 875258" d="M107.14,124.032s4.758-9.542,7.774-13.273,19.369-13.5,21.678-10.086c2.983,4.406-5.347,11.9-9.906,15.044,0,0,6.909,10.185,2.1,16.86s-21.641-8.545-21.641-8.545" fill="#ffc4c0"/>
              <path id="Trazado_875259" data-name="Trazado 875259" d="M137.015,102.152c-.178,5.98-6.429,9.715-10.625,13.091a.492.492,0,0,0,.02.809c2.61,4.462,4.994,11.517,2.7,16.47a.125.125,0,0,0,.216.124c3.178-4.979,1.4-12.1-1.771-16.806,4.357-3.395,10.462-7.416,9.514-13.689a.029.029,0,0,0-.058,0" fill="#263238"/>
              <path id="Trazado_875260" data-name="Trazado 875260" d="M105.659,119.188l21.877,33.792s-39.775,19.953-49.554,17.734-26.5-28.269-34.483-51.7,7.506-15.526,13.847-8.618,20.19,22.948,20.846,22.665,27.467-13.871,27.467-13.871" fill="#aee6e6"/>
              <g id="Grupo_1100837" data-name="Grupo 1100837" opacity="0.1">
                <g id="Grupo_1100836" data-name="Grupo 1100836">
                  <g id="Grupo_1100835" data-name="Grupo 1100835" clip-path="url(#clip-path-2)">
                    <path id="Trazado_875261" data-name="Trazado 875261" d="M108.653,161.722c-11.689,5.052-25.459,10.171-30.668,8.986-9.783-2.215-26.508-28.258-34.491-51.7-3.923-11.5-2.18-15.46,1.365-15.665Z"/>
                  </g>
                </g>
              </g>
              <path id="Trazado_875262" data-name="Trazado 875262" d="M115.827,149.267q-1.026-1.75-2.075-3.485c-1.395-2.319-9.77-16.074-13.066-20.245-.088-.112-.256.018-.2.139,2.316,4.813,10.991,18.313,12.435,20.537q1.107,1.709,2.232,3.4c.757,1.136,1.644,2.18,2.4,3.318.074.112.259.022.189-.1-.686-1.159-1.229-2.4-1.912-3.57" fill="#263238"/>
              <path id="Trazado_875263" data-name="Trazado 875263" d="M71.138,159.675l4.145,26.078s-.8.1-10.347.375l-2.88-7.493-3.784,7.787L0,186.724l5.548-17.983c5.911-16.572,11.093-45.9,22.208-58.421,8.833-9.946,19.426-9.406,26.292-2.689,1.737,1.7,19.319,26.312,21.666,36.547,1.679,7.32-4.576,15.5-4.576,15.5" fill="#aee6e6"/>
              <path id="Trazado_875264" data-name="Trazado 875264" d="M50.26,155.983a58.309,58.309,0,0,1,10.267.959c1.691.339,3.362.769,5.036,1.243.834.237,1.668.439,2.508.637a9.257,9.257,0,0,0,2.652.322c.079,0,.092.137.014.147A12.254,12.254,0,0,1,65.8,159.2c-1.718-.323-3.426-.743-5.142-1.087-3.462-.7-6.921-1.39-10.406-1.785-.161-.018-.156-.346.006-.343" fill="#263238"/>
              <path id="Trazado_875265" data-name="Trazado 875265" d="M42.284,160.491a61.61,61.61,0,0,1,8.344-1.363,41.043,41.043,0,0,1,4.225-.133c.675.009,1.351.033,2.027.066.743.037,1.488.194,2.23.218.078,0,.094.147.014.147-.7,0-1.4.146-2.1.2s-1.4.1-2.1.15c-1.4.1-2.8.227-4.208.315-2.812.177-5.608.387-8.409.68-.151.017-.168-.246-.026-.279" fill="#263238"/>
              <path id="Trazado_875266" data-name="Trazado 875266" d="M35.106,104.507c2.043,6.146,7.713,18.066,11.777,23.706a90.812,90.812,0,0,0,13.888,14.6A40.076,40.076,0,0,0,62.64,131.63c0-6.033-3.944-12.727-6.946-21.951-.82-1.082-1.4-1.806-1.645-2.052a16.025,16.025,0,0,0-18.943-3.12" fill="#ebebeb"/>
              <path id="Trazado_875267" data-name="Trazado 875267" d="M60.771,142.808c1.78,5.063,3.052,11.577,1.188,16.422.1,6.468.16,12.935.1,19.4-.29-6.463-.453-12.929-.583-19.4,1.841-5.269.682-11.153-.7-16.43" fill="#263238"/>
              <path id="Trazado_875268" data-name="Trazado 875268" d="M57.061,148.483a1.3,1.3,0,0,0,2.583-.216,1.3,1.3,0,0,0-2.583.216m0,0a1.546,1.546,0,0,1,3.081-.257,1.546,1.546,0,0,1-3.081.257" fill="#263238"/>
              <path id="Trazado_875269" data-name="Trazado 875269" d="M57.061,159.47a1.3,1.3,0,0,0,2.583-.216,1.3,1.3,0,0,0-2.583.216m0,0a1.546,1.546,0,0,1,3.081-.257,1.546,1.546,0,0,1-3.081.257" fill="#263238"/>
              <path id="Trazado_875270" data-name="Trazado 875270" d="M57.061,170.456a1.3,1.3,0,0,0,2.583-.216,1.3,1.3,0,0,0-2.583.216m0,0a1.546,1.546,0,0,1,3.081-.257,1.546,1.546,0,0,1-3.081.257" fill="#263238"/>
              <path id="Trazado_875271" data-name="Trazado 875271" d="M57.061,181.443a1.3,1.3,0,0,0,2.583-.216,1.3,1.3,0,0,0-2.583.216m0,0a1.546,1.546,0,0,1,3.081-.257,1.546,1.546,0,0,1-3.081.257" fill="#263238"/>
              <path id="Trazado_875272" data-name="Trazado 875272" d="M37.817,105.976c.085,1.466,5.22,11.775,11.71,12.59,2.114.262,4.059-11.213,4.059-11.213l.338-.814,4.712-11.4L46.254,83.777l-1.809-1.533s-1.083,3.2-2.392,7.209c-.062.185-.124.37-.187.569-.08.225-.158.436-.223.649-.2.6-.408,1.2-.6,1.815-.147.465-.293.916-.431,1.409s-.286.971-.436,1.462a79.506,79.506,0,0,0-2.359,10.619" fill="#ffc4c0"/>
              <path id="Trazado_875273" data-name="Trazado 875273" d="M42.053,89.452a24.744,24.744,0,0,0,11.871,17.086l4.712-11.4L46.254,83.777l-1.808-1.533s-1.084,3.2-2.393,7.208" fill="#263238"/>
              <path id="Trazado_875274" data-name="Trazado 875274" d="M74.22,70.788c6.217,20.74-5.5,26.806-9.977,28.142-4.061,1.212-18.044,4.825-26.371-15.162s-.649-29.434,8.492-32.7S68,50.047,74.22,70.788" fill="#ffc4c0"/>
              <path id="Trazado_875275" data-name="Trazado 875275" d="M69.705,67.492a14.074,14.074,0,0,1-1.5.02,2.413,2.413,0,0,1-1.529-.27.77.77,0,0,1-.205-.918,1.909,1.909,0,0,1,1.739-.849,2.811,2.811,0,0,1,1.936.582.822.822,0,0,1-.446,1.435" fill="#263238"/>
              <path id="Trazado_875276" data-name="Trazado 875276" d="M56.407,74.046a14.137,14.137,0,0,0,1.433-.428,2.413,2.413,0,0,0,1.378-.715.77.77,0,0,0-.078-.937,1.909,1.909,0,0,0-1.913-.29,2.8,2.8,0,0,0-1.674,1.134.822.822,0,0,0,.854,1.236" fill="#263238"/>
              <path id="Trazado_875277" data-name="Trazado 875277" d="M59.761,75.725c-.025-.051-.1.1-.079.155.4,1.419.625,3.112-.55,3.908-.037.026-.015.1.031.079,1.524-.618,1.207-2.861.6-4.142" fill="#263238"/>
              <path id="Trazado_875278" data-name="Trazado 875278" d="M58.111,74.55c-2.344.4-1.372,5.059.8,4.688,2.138-.364,1.166-5.023-.8-4.688" fill="#263238"/>
              <path id="Trazado_875279" data-name="Trazado 875279" d="M57.248,74.988c-.352.348-.655.9-1.135,1.048-.556.174-1.085-.224-1.555-.616-.049-.041-.079.008-.069.07.173.9.708,1.74,1.692,1.674.9-.061,1.361-.982,1.4-1.926.007-.175-.188-.39-.329-.25" fill="#263238"/>
              <path id="Trazado_875280" data-name="Trazado 875280" d="M68.105,73.384c0-.057.127.046.137.1.244,1.455.768,3.08,2.172,3.3.044.006.054.08,0,.083-1.64.095-2.315-2.069-2.313-3.486" fill="#263238"/>
              <path id="Trazado_875281" data-name="Trazado 875281" d="M69.093,71.616c2.289-.643,3.406,3.984,1.285,4.579-2.087.586-3.2-4.04-1.285-4.579" fill="#263238"/>
              <path id="Trazado_875282" data-name="Trazado 875282" d="M70.131,71.687c.425.157.894.515,1.337.438.515-.089.768-.679.976-1.237.021-.058.067-.028.083.033.238.878.168,1.87-.64,2.245-.738.342-1.49-.28-1.913-1.11-.079-.153-.014-.432.157-.369" fill="#263238"/>
              <path id="Trazado_875283" data-name="Trazado 875283" d="M61.9,86.848c.392.3.8.729,1.336.708A3.9,3.9,0,0,0,64.769,87a.052.052,0,0,1,.073.067,1.986,1.986,0,0,1-1.76,1.023,1.571,1.571,0,0,1-1.31-1.153c-.033-.082.076-.128.133-.084" fill="#263238"/>
              <path id="Trazado_875284" data-name="Trazado 875284" d="M67.02,80.506s.691,2.112.877,3.134c.016.1-.223.186-.566.269-.016.009-.024.017-.04.009a4.939,4.939,0,0,1-5.047-.96c-.089-.087.022-.216.127-.169a7.448,7.448,0,0,0,4.666.468c.021-.3-1.306-3.579-1.146-3.62a9.026,9.026,0,0,1,2.416.1c-1.313-4.442-3.328-8.637-4.57-13.08a.142.142,0,0,1,.256-.114c2.422,4.247,4.046,9.326,5.52,13.878.19.566-2.053.18-2.493.08" fill="#263238"/>
              <path id="Trazado_875285" data-name="Trazado 875285" d="M67.119,83.554A6.033,6.033,0,0,1,65.15,85.9a2.715,2.715,0,0,1-1.592.449c-1.234-.055-1.494-1.12-1.477-2.083a6.457,6.457,0,0,1,.22-1.516,7.826,7.826,0,0,0,4.818.808" fill="#263238"/>
              <path id="Trazado_875286" data-name="Trazado 875286" d="M65.15,85.9a2.72,2.72,0,0,1-1.592.449c-1.234-.055-1.494-1.12-1.477-2.083A2.805,2.805,0,0,1,65.15,85.9" fill="#ff9cbd"/>
              <path id="Trazado_875287" data-name="Trazado 875287" d="M37.171,83.079c3.638-.35,3.147-8.019,3.147-8.019s7.3-1.252,7.871-12.161a16.4,16.4,0,0,1-1.713,9.237S59.1,68.526,62.633,56.818c0,0-1.2,5.859-2.887,8.162,0,0,5.131-2.447,7-7.286,0,0,3.336,5.818,5.37,7.231,0,0-4.462-22.409-24.89-16.374,0,0-12.9,3.147-15.784,14.3s5.733,20.23,5.733,20.23" fill="#263238"/>
              <path id="Trazado_875288" data-name="Trazado 875288" d="M40.636,83.276s-6-5.657-8.661-3.383,2.811,11.143,6.609,11.723a3.661,3.661,0,0,0,4.4-2.924Z" fill="#ffc4c0"/>
              <path id="Trazado_875289" data-name="Trazado 875289" d="M33.606,82.4a.05.05,0,0,0,0,.1c2.68.488,4.456,2.51,5.861,4.7a2.021,2.021,0,0,0-3.073.074c-.055.059.027.147.094.118a2.251,2.251,0,0,1,2.586.266,10.837,10.837,0,0,1,1.57,1.722c.162.2.536,0,.4-.241-.01-.018-.022-.035-.032-.053-.592-3.165-3.957-7.066-7.406-6.681" fill="#263238"/>
              <path id="Trazado_875290" data-name="Trazado 875290" d="M26.194,128.294c4.085,23.978,24.217,68.829,37.332,73.05,15.182,4.887,67.889-11.961,78.232-19.536,4.117-3.015-17.828-29.569-22.948-27.685-21.463,7.9-40.488,11.949-43.249,10.07C71.316,161.309,54,136.5,42.747,121.115c-14.139-19.334-18.386-3.58-16.553,7.179" fill="#ffc4c0"/>
              <path id="Trazado_875291" data-name="Trazado 875291" d="M140.4,182.528c2.345-.836,18.492-12.554,23.25-18.055a70.686,70.686,0,0,0,12.412-19.245c4.787-11.154,5.563-14.259,5.967-18.073.291-2.747-5.237-6.86-12.964,8.672-5.448,10.952-12.336,11.654-17.559,11.555a80.335,80.335,0,0,0-37.086,8.294s16.964,30.067,25.98,26.852" fill="#ffc4c0"/>
              <path id="Trazado_875292" data-name="Trazado 875292" d="M154.113,147.295c-5.394.081,12.139-10.861,12.4-17s-5.716-4.208-10.432-.742c-16.37,12.029-28.725,11.442-37.026,22.938s35.053-5.2,35.053-5.2" fill="#ffc4c0"/>
              <path id="Trazado_875293" data-name="Trazado 875293" d="M118.253,153.865c4.493-8.47,13.92-11.992,22.1-15.871,2.086-.955,4.2-1.88,6.2-2.942,4.949-2.791,9.475-6.729,14.986-8.483a4.629,4.629,0,0,1,3.4.021,4.724,4.724,0,0,0-3.324.232c-5.385,2.135-9.629,6.154-14.629,9.027-2.047,1.12-4.139,2.071-6.221,3.052-8.218,3.8-17.378,7.018-22.514,14.964" fill="#263238"/>
              <path id="Trazado_875294" data-name="Trazado 875294" d="M76.714,162.713c4.193,1.137,33.41-6.876,33.41-6.876l16.421,39.7s-50.878,11.842-62.754,7.73-30.369-44.465-36.348-67.913c-5.62-22.044,1.872-36.431,17.61-13.594,0,0,29.469,40.354,31.661,40.949" fill="#aee6e6"/>
              <path id="Trazado_875295" data-name="Trazado 875295" d="M63.163,202.05c-9.953-5.1-22.225-31.77-24.586-37-1.512-3.35-2.893-6.756-4.248-10.173-2.713-6.839-5.21-13.758-7.587-20.719a.1.1,0,0,0-.187.057q1.959,8.06,4.7,15.934a59.085,59.085,0,0,1-3.248-6.063c-.046-.1-.215-.023-.176.079a33.366,33.366,0,0,0,3.784,7.01c1.865,5.261,3.976,10.435,6.325,15.48.678,1.456,14.873,34.127,25.994,37.163,3.865,1.055,17.1.1,19.905-.541.122-.028.152-.178.015-.181-3.817-.09-17.14.778-20.7-1.043" fill="#263238"/>
              <path id="Trazado_875296" data-name="Trazado 875296" d="M115.554,190.735q-.736-2.058-1.5-4.1c-1.015-2.734-7.139-18.968-9.8-24.042-.072-.135-.276-.032-.238.108,1.492,5.558,7.984,21.582,9.069,24.226q.833,2.028,1.685,4.048c.575,1.355,1.306,2.637,1.874,3.991.056.133.27.075.219-.066-.495-1.364-.821-2.79-1.312-4.161" fill="#263238"/>
              <path id="Trazado_875297" data-name="Trazado 875297" d="M110.134,155.9c-2.421.106-24.291,5.189-29.118,6.276a9.872,9.872,0,0,1-3.57.491c-1.257-.2-2.08-1.24-2.866-2.142-1.566-1.8-18.664-24.4-19.908-25.513-.468-.418-.839-.5-.4.213.761,1.224,17.389,23.546,18.9,25.3,1.4,1.633,2.723,3.347,5.081,3.25,1.038-.043,30.528-6.657,31.977-7.262.307-.128.281-.632-.1-.615" fill="#263238"/>
            </g>
          </g>
          <g id="Grupo_1100847" data-name="Grupo 1100847">
            <g id="Grupo_1100846" data-name="Grupo 1100846" clip-path="url(#clip-path)">
              <g id="Grupo_1100842" data-name="Grupo 1100842" opacity="0.3">
                <g id="Grupo_1100841" data-name="Grupo 1100841">
                  <g id="Grupo_1100840" data-name="Grupo 1100840" clip-path="url(#clip-path-4)">
                    <path id="Trazado_875298" data-name="Trazado 875298" d="M172.3,59.153c-2.058,25.781-23.537,33.553-23.537,33.553-1.58,3.919-3.638,13.886-3.638,13.886H116.459s-2.058-9.967-3.637-13.886c0,0-21.479-7.772-23.538-33.553-1.43-17.913,11.326-44.394,41.355-44.4h.311c30.029.006,42.785,26.487,41.355,44.4" fill="#ffc727"/>
                  </g>
                </g>
              </g>
              <g id="Grupo_1100845" data-name="Grupo 1100845" opacity="0.8">
                <g id="Grupo_1100844" data-name="Grupo 1100844">
                  <g id="Grupo_1100843" data-name="Grupo 1100843" clip-path="url(#clip-path-5)">
                    <path id="Trazado_875299" data-name="Trazado 875299" d="M168.761,59.283c-1.883,23.58-21.528,30.689-21.528,30.689-1.445,3.584-3.327,16.621-3.327,16.621H117.683s-1.883-13.037-3.327-16.621c0,0-19.646-7.109-21.528-30.689-1.308-16.384,10.359-40.6,37.824-40.61h.285c27.465.006,39.132,24.226,37.824,40.61" fill="#ffc727"/>
                  </g>
                </g>
              </g>
            </g>
          </g>
          <rect id="Rectángulo_401927" data-name="Rectángulo 401927" width="3" height="45.922" transform="translate(113.923 64.163) rotate(-10.575)" fill="#a6a6a6"/>
          <rect id="Rectángulo_401928" data-name="Rectángulo 401928" width="45.921" height="3" transform="matrix(0.183, -0.983, 0.983, 0.183, 136.308, 108.754)" fill="#a6a6a6"/>
          <g id="Grupo_1100852" data-name="Grupo 1100852">
            <g id="Grupo_1100851" data-name="Grupo 1100851" clip-path="url(#clip-path)">
              <path id="Trazado_875300" data-name="Trazado 875300" d="M130.8,79.035c-2.659,0-4.96-2.358-6.593-5.323a3.429,3.429,0,0,1-2.413,1.239c-4.367,0-6.092-8.868-6.163-9.246l.982-.186c.444,2.345,2.241,8.432,5.181,8.432a2.736,2.736,0,0,0,1.925-1.183,20.039,20.039,0,0,1-2.1-7.99c0-2.544.975-4,2.675-4h0c1.958,0,3.082,1.547,3.082,4.244a15.013,15.013,0,0,1-2.475,7.844c1.538,2.891,3.683,5.173,5.9,5.173,1.71,0,3.438-1.365,4.868-3.84.1-.185.209-.373.31-.566a11.885,11.885,0,0,1-2.573-7.607c0-3.237,1.237-5.25,3.231-5.25a2.136,2.136,0,0,1,1.909,1.17c1.27,2.2.6,7.4-1.367,11.524a3.954,3.954,0,0,0,2.685,1.065c2.513,0,4.768-6.134,5.424-8.5l.964.267c-.262.945-2.669,9.23-6.388,9.23h0a4.858,4.858,0,0,1-3.137-1.177c-.063.115-.127.229-.192.341-1.638,2.839-3.62,4.34-5.733,4.34m5.836-17.263c-1.648,0-2.232,2.29-2.231,4.25a11.67,11.67,0,0,0,2.037,6.647c1.661-3.719,2.291-8.4,1.238-10.227a1.148,1.148,0,0,0-1.044-.67m-12.342,0h0c-1.384,0-1.675,1.634-1.675,3a18.039,18.039,0,0,0,1.77,7.051,14.252,14.252,0,0,0,1.988-6.811c0-1.479-.362-3.244-2.082-3.244" fill="#a6a6a6"/>
              <rect id="Rectángulo_401929" data-name="Rectángulo 401929" width="35.917" height="19.768" transform="translate(112.836 106.628)" fill="#636363"/>
              <path id="Trazado_875301" data-name="Trazado 875301" d="M144.681,126.394c-2.112,3.745-6.163,7.1-13.887,7.1s-11.774-3.351-13.886-7.1Z" fill="#636363"/>
              <path id="Trazado_875302" data-name="Trazado 875302" d="M144.681,126.394a13.3,13.3,0,0,1-2.327,3.039l-24.728-1.9a12.922,12.922,0,0,1-.718-1.143Z" fill="#474343"/>
              <path id="Trazado_875303" data-name="Trazado 875303" d="M149.8,110.4l-38.018,3.515v-1.724l38.018-3.515Z" fill="#444040"/>
              <path id="Trazado_875304" data-name="Trazado 875304" d="M149.8,115.616l-38.018,3.515v-1.724l38.018-3.515Z" fill="#444040"/>
              <path id="Trazado_875305" data-name="Trazado 875305" d="M149.8,120.835l-38.018,3.515v-1.724l38.018-3.515Z" fill="#444040"/>
              <g id="Grupo_1100850" data-name="Grupo 1100850" opacity="0.5">
                <g id="Grupo_1100849" data-name="Grupo 1100849">
                  <g id="Grupo_1100848" data-name="Grupo 1100848" clip-path="url(#clip-path-7)">
                    <path id="Trazado_875306" data-name="Trazado 875306" d="M98.332,53.13c1.317.22,3.022-6.575,10.329-14.441,3.247-3.495,15.562-7.866,14.674-11.9s-11.874.114-17.4,6.516c-8.893,10.3-8.815,19.621-7.6,19.824" fill="#fff"/>
                    <path id="Trazado_875307" data-name="Trazado 875307" d="M163.128,54.546a1.883,1.883,0,0,0,0-3.764,1.883,1.883,0,0,0,0,3.764" fill="#fff"/>
                    <path id="Trazado_875308" data-name="Trazado 875308" d="M151.276,82.856c1.324,1.009,7.752-4.921,10.65-12,2.4-5.873,2.819-13.3,1.2-13.731s-2.667,9.759-4.611,13.511c-2.455,4.736-8.656,11.139-7.241,12.218" fill="#fff"/>
                  </g>
                </g>
              </g>
              <path id="Trazado_875309" data-name="Trazado 875309" d="M130.327,9.9a24.049,24.049,0,0,1-.183-9.9,24.031,24.031,0,0,1,.183,9.9" fill="#ffd947"/>
              <path id="Trazado_875310" data-name="Trazado 875310" d="M107.719,16.21a24.036,24.036,0,0,1-5.109-8.484,24.028,24.028,0,0,1,5.109,8.484" fill="#ffd947"/>
              <path id="Trazado_875311" data-name="Trazado 875311" d="M91.293,32.978a24.045,24.045,0,0,1-8.667-4.793,24.045,24.045,0,0,1,8.667,4.793" fill="#ffd947"/>
              <path id="Trazado_875312" data-name="Trazado 875312" d="M85.452,55.711a24.049,24.049,0,0,1-9.9.183,24.031,24.031,0,0,1,9.9-.183" fill="#ffd947"/>
              <path id="Trazado_875313" data-name="Trazado 875313" d="M91.761,78.32a24.036,24.036,0,0,1-8.484,5.109,24.028,24.028,0,0,1,8.484-5.109" fill="#ffd947"/>
              <path id="Trazado_875314" data-name="Trazado 875314" d="M170.295,77.51a24.045,24.045,0,0,1,8.667,4.793,24.03,24.03,0,0,1-8.667-4.793" fill="#ffd947"/>
              <path id="Trazado_875315" data-name="Trazado 875315" d="M176.136,54.777a24.032,24.032,0,0,1,9.9-.182,24.048,24.048,0,0,1-9.9.182" fill="#ffd947"/>
              <path id="Trazado_875316" data-name="Trazado 875316" d="M169.828,32.168a24.036,24.036,0,0,1,8.484-5.109,24.028,24.028,0,0,1-8.484,5.109" fill="#ffd947"/>
              <path id="Trazado_875317" data-name="Trazado 875317" d="M153.061,15.743a24.045,24.045,0,0,1,4.793-8.667,24.03,24.03,0,0,1-4.793,8.667" fill="#ffd947"/>
            </g>
          </g>
        </g>
      </g>
    </g>
  </g>
</svg>
