<svg xmlns="http://www.w3.org/2000/svg" width="295" height="305.64" viewBox="0 0 295 305.64">
  <g id="Grupo_1101449" data-name="Grupo 1101449" transform="translate(-180.024 -7195.673)">
    <path id="Rectángulo_401560" data-name="Rectángulo 401560" d="M0,0H178A117,117,0,0,1,295,117v44a0,0,0,0,1,0,0H0a0,0,0,0,1,0,0V0A0,0,0,0,1,0,0Z" transform="translate(180.024 7340.313)" fill="#26aab7" opacity="0.37"/>
    <g id="Creative_thinking-rafiki" data-name="Creative thinking-rafiki" transform="translate(144.751 7135.251)">
      <g id="freepik--Shadow--inject-5" transform="translate(67.696 331.48)">
        <ellipse id="freepik--path--inject-5" cx="113.583" cy="9.11" rx="113.583" ry="9.11" fill="#7d6eb2"/>
      </g>
      <g id="freepik--Elements--inject-5" transform="translate(75.278 60.421)">
        <path id="Trazado_877784" data-name="Trazado 877784" d="M124.5,258.383,113.47,232.79l34.14-14.72Z" transform="translate(-113.47 -94.29)" fill="#7d6eb2"/>
        <path id="Trazado_877785" data-name="Trazado 877785" d="M124.5,258.383,113.47,232.79l34.14-14.72Z" transform="translate(-113.47 -94.29)" opacity="0.2"/>
        <path id="Trazado_877786" data-name="Trazado 877786" d="M183.831,271.293a14,14,0,1,1-25.673-11.163Z" transform="translate(-121.966 -102.5)" fill="#7d6eb2"/>
        <path id="Trazado_877787" data-name="Trazado 877787" d="M170.04,250.768h-1.932v-7.927a1.255,1.255,0,0,0-1.247-1.247h-5.714a3.219,3.219,0,0,1-3.219-3.179V232.7a1.255,1.255,0,0,0-1.247-1.247h-5.714a3.219,3.219,0,0,1-3.179-3.179V222.56a1.255,1.255,0,0,0-1.247-1.247h-5.714a3.219,3.219,0,0,1-3.179-3.219v-5.714a1.256,1.256,0,0,0-1.255-1.247H128.44V209.2h7.951a3.219,3.219,0,0,1,3.219,3.179v5.714a1.239,1.239,0,0,0,1.247,1.247H146.6a3.219,3.219,0,0,1,3.219,3.179v5.714a1.239,1.239,0,0,0,1.247,1.247h5.714a3.219,3.219,0,0,1,3.179,3.219v5.714a1.239,1.239,0,0,0,1.247,1.247h5.714a3.219,3.219,0,0,1,3.179,3.219Z" transform="translate(-116.392 -92.559)" fill="#7d6eb2"/>
        <g id="Grupo_1101447" data-name="Grupo 1101447" transform="translate(12.048 116.641)" opacity="0.5">
          <path id="Trazado_877788" data-name="Trazado 877788" d="M170.04,250.768h-1.932v-7.927a1.255,1.255,0,0,0-1.247-1.247h-5.714a3.219,3.219,0,0,1-3.219-3.179V232.7a1.255,1.255,0,0,0-1.247-1.247h-5.714a3.219,3.219,0,0,1-3.179-3.179V222.56a1.255,1.255,0,0,0-1.247-1.247h-5.714a3.219,3.219,0,0,1-3.179-3.219v-5.714a1.256,1.256,0,0,0-1.255-1.247H128.44V209.2h7.951a3.219,3.219,0,0,1,3.219,3.179v5.714a1.239,1.239,0,0,0,1.247,1.247H146.6a3.219,3.219,0,0,1,3.219,3.179v5.714a1.239,1.239,0,0,0,1.247,1.247h5.714a3.219,3.219,0,0,1,3.179,3.219v5.714a1.239,1.239,0,0,0,1.247,1.247h5.714a3.219,3.219,0,0,1,3.179,3.219Z" transform="translate(-128.44 -209.2)" fill="#fff"/>
        </g>
        <rect id="Rectángulo_402326" data-name="Rectángulo 402326" width="19.106" height="19.106" transform="translate(67.855 121.152) rotate(45)" fill="#7d6eb2"/>
        <rect id="Rectángulo_402327" data-name="Rectángulo 402327" width="19.106" height="19.106" transform="translate(67.855 121.152) rotate(45)" fill="#fff" opacity="0.2"/>
        <path id="Trazado_877789" data-name="Trazado 877789" d="M269.674,130.43c-3.042-10.648-5.634-23.846-16.764-21.3-6.076,1.4-4.434-7.123-4.024-10.068s3.686-5.585,6.318-4.209c1.151.6,1.883,1.787,2.93,2.559,2.6,1.907,6.5.692,8.627-1.73S269.714,90,270.575,86.9s1.932-6.342,4.362-8.458a8.8,8.8,0,0,1,13.682,10.543c4.418-.435,7.927-3.9,10.535-7.493s4.829-7.638,8.394-10.269,9.175-3.284,12.153,0c3.179,3.509,1.61,9.32-1.545,12.877s-7.533,5.827-10.7,9.376-4.877,9.263-1.8,12.877c2.342,2.752,6.358,3.1,9.859,4.024s7.243,2.946,8.708,6.358-.249,8.249-3.919,8.853c-4.185.692-7.163-3.807-9.167-7.549s-5.738-7.959-9.658-6.366c-4.1,1.658-3.606,7.621-1.972,11.734a66.4,66.4,0,0,0,7.09,13.279c1.907,2.769,4.024,6.438,2.068,9.167-2.213,3.01-7.324,1.159-9.207-2.06-2.785-4.829-2.414-16.3-10.648-15.436-2.149.225-3.944,2.5-6.044,3.082C279,132.45,270.7,134.035,269.674,130.43Z" transform="translate(-139.803 -65.191)" fill="#7d6eb2"/>
        <path id="Trazado_877790" data-name="Trazado 877790" d="M269.674,130.43c-3.042-10.648-5.634-23.846-16.764-21.3-6.076,1.4-4.434-7.123-4.024-10.068s3.686-5.585,6.318-4.209c1.151.6,1.883,1.787,2.93,2.559,2.6,1.907,6.5.692,8.627-1.73S269.714,90,270.575,86.9s1.932-6.342,4.362-8.458a8.8,8.8,0,0,1,13.682,10.543c4.418-.435,7.927-3.9,10.535-7.493s4.829-7.638,8.394-10.269,9.175-3.284,12.153,0c3.179,3.509,1.61,9.32-1.545,12.877s-7.533,5.827-10.7,9.376-4.877,9.263-1.8,12.877c2.342,2.752,6.358,3.1,9.859,4.024s7.243,2.946,8.708,6.358-.249,8.249-3.919,8.853c-4.185.692-7.163-3.807-9.167-7.549s-5.738-7.959-9.658-6.366c-4.1,1.658-3.606,7.621-1.972,11.734a66.4,66.4,0,0,0,7.09,13.279c1.907,2.769,4.024,6.438,2.068,9.167-2.213,3.01-7.324,1.159-9.207-2.06-2.785-4.829-2.414-16.3-10.648-15.436-2.149.225-3.944,2.5-6.044,3.082C279,132.45,270.7,134.035,269.674,130.43Z" transform="translate(-139.803 -65.191)" fill="#fff" opacity="0.1"/>
        <path id="Trazado_877791" data-name="Trazado 877791" d="M358.62,110.535a2.511,2.511,0,0,0,.491,2,2.294,2.294,0,0,0,1.706.966,3.147,3.147,0,0,0,2.777-2.752,2.109,2.109,0,0,0-1.022-1.722,2.648,2.648,0,0,0-3.952,1.513Z" transform="translate(-161.315 -72.925)" fill="#7d6eb2"/>
        <path id="Trazado_877792" data-name="Trazado 877792" d="M340.933,162.892a1.851,1.851,0,0,0,.37,1.473,1.658,1.658,0,0,0,1.288.756,1.972,1.972,0,0,0,1.425-.708,2.02,2.02,0,0,0,.628-1.328,1.562,1.562,0,0,0-.757-1.272,1.972,1.972,0,0,0-2.954,1.078Z" transform="translate(-157.865 -83.247)" fill="#7d6eb2"/>
        <path id="Trazado_877793" data-name="Trazado 877793" d="M293.184,67.6a5.022,5.022,0,0,0,.716,3.493,3.267,3.267,0,0,0,2.479,1.69,3.734,3.734,0,0,0,2.809-1.69,5.134,5.134,0,0,0,1.223-3.131,3.9,3.9,0,0,0-1.481-3.01C296.878,63.392,293.748,64.592,293.184,67.6Z" transform="translate(-148.537 -64.268)" fill="#7d6eb2"/>
        <path id="Trazado_877794" data-name="Trazado 877794" d="M342.468,78.519a4.942,4.942,0,0,0,.99,4.024,4.612,4.612,0,0,0,3.445,1.907,6.31,6.31,0,0,0,5.513-5.481,4.241,4.241,0,0,0-2.036-3.445C347.546,73.715,343.241,75.083,342.468,78.519Z" transform="translate(-158.152 -66.309)" fill="#7d6eb2"/>
        <path id="Trazado_877795" data-name="Trazado 877795" d="M342.468,78.519a4.942,4.942,0,0,0,.99,4.024,4.612,4.612,0,0,0,3.445,1.907,6.31,6.31,0,0,0,5.513-5.481,4.241,4.241,0,0,0-2.036-3.445C347.546,73.715,343.241,75.083,342.468,78.519Z" transform="translate(-158.152 -66.309)" fill="#fff" opacity="0.1"/>
        <path id="Trazado_877796" data-name="Trazado 877796" d="M224.53,100.657s1.135-33.142,13.682-31S224.53,100.657,224.53,100.657Z" transform="translate(-135.149 -65.3)" fill="#7d6eb2"/>
        <path id="Trazado_877797" data-name="Trazado 877797" d="M209.628,92.163S190.16,77,196.051,71.632,209.628,92.163,209.628,92.163Z" transform="translate(-129.373 -65.563)" fill="#7d6eb2"/>
        <path id="Trazado_877798" data-name="Trazado 877798" d="M209.628,92.163S190.16,77,196.051,71.632,209.628,92.163,209.628,92.163Z" transform="translate(-129.373 -65.563)" fill="#fff" opacity="0.5"/>
        <path id="Trazado_877799" data-name="Trazado 877799" d="M202.72,174.516s8.458-19.034,15.492-14.486S202.72,174.516,202.72,174.516Z" transform="translate(-130.891 -82.824)" fill="#7d6eb2"/>
        <path id="Trazado_877800" data-name="Trazado 877800" d="M202.72,174.516s8.458-19.034,15.492-14.486S202.72,174.516,202.72,174.516Z" transform="translate(-130.891 -82.824)" opacity="0.2"/>
        <path id="Trazado_877801" data-name="Trazado 877801" d="M153.621,178.227s-8.8-10.9-12.579-6.736S153.621,178.227,153.621,178.227Z" transform="translate(-118.741 -85.013)" fill="#7d6eb2"/>
        <path id="Trazado_877802" data-name="Trazado 877802" d="M153.621,178.227s-8.8-10.9-12.579-6.736S153.621,178.227,153.621,178.227Z" transform="translate(-118.741 -85.013)" fill="#fff" opacity="0.5"/>
      </g>
      <g id="freepik--light-bulb--inject-5" transform="translate(87.34 82.4)">
        <path id="Trazado_877803" data-name="Trazado 877803" d="M198.01,119.772a31.938,31.938,0,1,0-63.434,7.493c1.5,12.7,12.627,20.12,20.209,29.416,2.35,2.881,3.509,14.559,3.509,14.559l26.9-3.179s-1.61-11.629,0-14.977C190.4,142.274,199.507,132.48,198.01,119.772Z" transform="translate(-129.608 -91.577)" fill="#7d6eb2"/>
        <path id="Trazado_877804" data-name="Trazado 877804" d="M0,0H27.09V2.02a5.746,5.746,0,0,1-5.746,5.746H5.746A5.746,5.746,0,0,1,0,2.02Z" transform="matrix(0.993, -0.117, 0.117, 0.993, 28.905, 81.448)" fill="#263238"/>
        <path id="Trazado_877805" data-name="Trazado 877805" d="M.008,0h12.66V.588A5.746,5.746,0,0,1,6.921,6.334H5.746A5.746,5.746,0,0,1,0,.588V0Z" transform="translate(37.167 90.147) rotate(-6.73)" fill="#263238"/>
        <path id="Trazado_877806" data-name="Trazado 877806" d="M.008,0h12.66V.588A5.746,5.746,0,0,1,6.921,6.334H5.746A5.746,5.746,0,0,1,0,.588V0Z" transform="translate(37.167 90.147) rotate(-6.73)" fill="#fff" opacity="0.5"/>
        <path id="Trazado_877807" data-name="Trazado 877807" d="M203.471,119.977a31.943,31.943,0,0,0-22.8-26.929c-7.493-.724-18.889-1.054-18.325,3.694.8,7.05,16.539,2.2,20.531,5.682s-10.559,12.571-5.473,15.983,13.794-6.092,13.794-6.092-2.221,13.328,1.61,13.818,2.165-10.02,4.587-10.31,5.706,4.885,4.145,17.142A26.687,26.687,0,0,0,203.471,119.977Z" transform="translate(-135.068 -91.782)" fill="#7d6eb2"/>
        <path id="Trazado_877808" data-name="Trazado 877808" d="M203.471,119.977a31.943,31.943,0,0,0-22.8-26.929c-7.493-.724-18.889-1.054-18.325,3.694.8,7.05,16.539,2.2,20.531,5.682s-10.559,12.571-5.473,15.983,13.794-6.092,13.794-6.092-2.221,13.328,1.61,13.818,2.165-10.02,4.587-10.31,5.706,4.885,4.145,17.142A26.687,26.687,0,0,0,203.471,119.977Z" transform="translate(-135.068 -91.782)" fill="#fff" opacity="0.5"/>
        <path id="Trazado_877809" data-name="Trazado 877809" d="M188.561,129.35s-11.879,5.416-8.442,9.7S188.561,129.35,188.561,129.35Z" transform="translate(-138.419 -98.95)" fill="#7d6eb2"/>
        <path id="Trazado_877810" data-name="Trazado 877810" d="M188.561,129.35s-11.879,5.416-8.442,9.7S188.561,129.35,188.561,129.35Z" transform="translate(-138.419 -98.95)" fill="#fff" opacity="0.7"/>
        <path id="Trazado_877811" data-name="Trazado 877811" d="M146.571,93.176a40.4,40.4,0,0,0-4.9,4.257c-.266.282.161.708.427.427a39.724,39.724,0,0,1,4.772-4.161C147.183,93.465,146.869,92.942,146.571,93.176Z" transform="translate(-131.02 -91.878)" fill="#7d6eb2"/>
        <path id="Trazado_877812" data-name="Trazado 877812" d="M134.592,105.456a39.057,39.057,0,0,0-5.915,25.15c.04.378.644.386.6,0a38.542,38.542,0,0,1,5.835-24.844c.209-.33-.314-.628-.523-.306Z" transform="translate(-128.457 -94.259)" fill="#7d6eb2"/>
        <g id="Grupo_1101448" data-name="Grupo 1101448" transform="translate(28.905 78.269)" opacity="0.7">
          <path id="Trazado_877813" data-name="Trazado 877813" d="M0,0H27.09V2.02a5.746,5.746,0,0,1-5.746,5.746H5.746A5.746,5.746,0,0,1,0,2.02Z" transform="matrix(0.993, -0.117, 0.117, 0.993, 0, 3.179)" fill="#fff"/>
        </g>
      </g>
      <g id="freepik--Character--inject-5" transform="translate(151.412 90.386)">
        <path id="Trazado_877814" data-name="Trazado 877814" d="M317.1,308.406l17.2-4.716,3.815,6.406-15.895,6.833Z" transform="translate(-229.352 -140.967)" fill="#ffb573"/>
        <path id="Trazado_877815" data-name="Trazado 877815" d="M344.1,314.831a3.412,3.412,0,0,1,.5,2.342.708.708,0,0,1-.74.346.949.949,0,0,1-.652-.33c-.909-1.014-.732-4.185-.724-4.322a.185.185,0,0,1,.129-.169.2.2,0,0,1,.209.072A14.207,14.207,0,0,1,344.1,314.831Zm-.8,1.8a.925.925,0,0,0,.2.3.507.507,0,0,0,.394.217c.274,0,.346-.072.378-.153.3-.555-.58-2.342-1.4-3.573a8.524,8.524,0,0,0,.418,3.211Z" transform="translate(-234.303 -142.724)" fill="#7d6eb2"/>
        <path id="Trazado_877816" data-name="Trazado 877816" d="M342.305,312.787a.12.12,0,0,1,0,.073c.04,1.03-.644,3.493-1.513,3.742-.193.072-.5.048-.8-.394a1.385,1.385,0,0,1-.177-1.07c.29-1.272,2.1-2.414,2.189-2.463a.193.193,0,0,1,.185,0A.2.2,0,0,1,342.305,312.787Zm-2,3.155.04.1c.177.29.306.249.354.241.5-.193,1.143-1.907,1.223-3.042a4.427,4.427,0,0,0-1.7,2.02A.958.958,0,0,0,340.309,315.942Z" transform="translate(-233.777 -142.716)" fill="#7d6eb2"/>
        <path id="Trazado_877817" data-name="Trazado 877817" d="M340.279,309.265l-3.847-7.71a.684.684,0,0,1,.185-.845l5.577-4.523a1.151,1.151,0,0,1,1.61.153,1.17,1.17,0,0,1,.137.209c1.336,2.8,2.414,5.352,4.153,8.8,2.036,4.08,2.012,2.8,4.475,7.573,1.481,2.873-1.545,5.038-2.318,3.9-3.509-5.263-5.489-5-8.579-6.157A2.825,2.825,0,0,1,340.279,309.265Z" transform="translate(-233.111 -139.452)" fill="#263238"/>
        <path id="Trazado_877818" data-name="Trazado 877818" d="M331.319,314.281l3.734-1.61-2.688-7.541-3.565.974Z" transform="translate(-231.635 -141.248)" opacity="0.1"/>
        <path id="Trazado_877819" data-name="Trazado 877819" d="M271.6,335.44l16.917,5.642-.394,7.444-17.005-3.155Z" transform="translate(-220.376 -147.164)" fill="#ffb573"/>
        <path id="Trazado_877820" data-name="Trazado 877820" d="M290.769,354.843a3.372,3.372,0,0,1-.885,2.229.7.7,0,0,1-.8-.121.95.95,0,0,1-.362-.636c-.193-1.352,1.714-3.887,1.795-4.024a.193.193,0,0,1,.209-.064.185.185,0,0,1,.129.169A13.56,13.56,0,0,1,290.769,354.843Zm-1.682,1.054a1.365,1.365,0,0,0,0,.362.531.531,0,0,0,.217.394c.209.169.33.129.4.089.555-.3.8-2.27.8-3.75A8.69,8.69,0,0,0,289.087,355.9Z" transform="translate(-223.809 -150.44)" fill="#7d6eb2"/>
        <path id="Trazado_877821" data-name="Trazado 877821" d="M290.456,352.459a.234.234,0,0,1,0,.072c-.539.885-2.479,2.551-3.332,2.27-.209-.048-.451-.233-.435-.757a1.4,1.4,0,0,1,.443-.99c.95-.893,3.09-.8,3.219-.8a.185.185,0,0,1,.161.1.233.233,0,0,1-.056.1Zm-3.42,1.505v.1c0,.338.113.378.161.4.523.113,2.012-.95,2.7-1.851a4.5,4.5,0,0,0-2.535.732,1.046,1.046,0,0,0-.314.612Z" transform="translate(-223.415 -150.445)" fill="#7d6eb2"/>
        <path id="Trazado_877822" data-name="Trazado 877822" d="M290.13,348.919l1.086-8.547a.692.692,0,0,1,.62-.6l7.155-.66a1.151,1.151,0,0,1,1.255,1.038,1.209,1.209,0,0,1,0,.241c-.443,3.074-.958,5.795-1.441,9.658-.579,4.531.113,3.453-.491,8.78-.362,3.219-4.08,3.34-4.088,1.956,0-6.326-1.787-7.243-3.71-9.891a2.785,2.785,0,0,1-.386-1.972Z" transform="translate(-224.079 -147.88)" fill="#263238"/>
        <path id="Trazado_877823" data-name="Trazado 877823" d="M278.3,347.074l4.064.748,1.626-8.088-3.171-1.054Z" transform="translate(-221.778 -147.797)" opacity="0.1"/>
        <path id="Trazado_877824" data-name="Trazado 877824" d="M227.876,233.91s-7.147,12.611-16,42.389-2.954,39.974,24.949,46.678L263.649,327l2.149-9.658s-22.631-10.849-35.749-15.42a2.648,2.648,0,0,1-1.529-3.67c4.378-8.933,18.124-38.067,23.058-61.39Z" transform="translate(-208.069 -127.346)" fill="#7d6eb2"/>
        <path id="Trazado_877825" data-name="Trazado 877825" d="M227.876,233.91s-7.147,12.611-16,42.389-2.954,39.974,24.949,46.678L263.649,327l2.149-9.658s-22.84-10.929-35.934-15.484a2.471,2.471,0,0,1-1.425-3.436c4.282-8.724,18.172-38.083,23.138-61.559Z" transform="translate(-208.069 -127.346)" opacity="0.1"/>
        <path id="Trazado_877826" data-name="Trazado 877826" d="M278.494,335.647l-3.074,12.072s1.61,1.811,3.525.958l2.664-12.33a2.084,2.084,0,0,0-3.115-.7Z" transform="translate(-221.216 -147.122)" fill="#7d6eb2"/>
        <path id="Trazado_877827" data-name="Trazado 877827" d="M278.494,335.647l-3.074,12.072s1.61,1.811,3.525.958l2.664-12.33a2.084,2.084,0,0,0-3.115-.7Z" transform="translate(-221.216 -147.122)" fill="#fff" opacity="0.6"/>
        <path id="Trazado_877828" data-name="Trazado 877828" d="M241.444,243.515c1.03,14.4,5.907,41.045,9.931,56.875s14.752,19.042,26.019,16.9S306.907,304.414,314.681,302l-3.219-10.462s-25.255,4.925-36,9.794a2.213,2.213,0,0,1-3.123-2.028c0-11.6-.8-46.872-11.042-62.227L241.444,235S241.3,241.39,241.444,243.515Z" transform="translate(-214.571 -127.559)" fill="#7d6eb2"/>
        <path id="Trazado_877829" data-name="Trazado 877829" d="M325.88,304.134l4.088,12.474a3.646,3.646,0,0,0,3.219-1.006L329.1,303.265A2.5,2.5,0,0,0,325.88,304.134Z" transform="translate(-231.065 -140.832)" fill="#7d6eb2"/>
        <path id="Trazado_877830" data-name="Trazado 877830" d="M325.88,304.134l4.088,12.474a3.646,3.646,0,0,0,3.219-1.006L329.1,303.265A2.5,2.5,0,0,0,325.88,304.134Z" transform="translate(-231.065 -140.832)" fill="#fff" opacity="0.6"/>
        <path id="Trazado_877831" data-name="Trazado 877831" d="M243.4,160.682l-2.414-12.507a3.764,3.764,0,0,1,0-1.529l6.438-24.595,3.155-3.364a2.849,2.849,0,0,0,.668-1.827v-2.117a2.866,2.866,0,0,1,.145-.909l.62-1.771a2.833,2.833,0,0,0-1.835-3.606l-.386-.121a2.825,2.825,0,0,0-2.2.209l-3.718,2.02a2.841,2.841,0,0,0-1.473,2.358l-.33,7.243s-11.267,20.925-10.6,28.031,4.024,17.77,4.024,17.77A9.738,9.738,0,0,0,243.4,160.682Z" transform="translate(-212.632 -102.809)" fill="#ffb573"/>
        <path id="Trazado_877832" data-name="Trazado 877832" d="M288.3,172.073l11.935-7.782,9.126-23.339-.9-4.153a2.245,2.245,0,0,1,.217-1.545l1.247-2.35a2.278,2.278,0,0,1,2-1.207h.274a2.254,2.254,0,0,0,1.215-.354l1.392-.877a2.27,2.27,0,0,1,3.219.853l2.02,5.328a2.27,2.27,0,0,1-.547,2.8L315,143.9s-4.571,23.734-6.986,26.357-15.565,9.191-15.565,9.191Z" transform="translate(-223.73 -107.085)" fill="#ffb573"/>
        <path id="Trazado_877833" data-name="Trazado 877833" d="M247.666,178.7l-1.851-6.3s1.344-2.817-1.07-2.817a22.462,22.462,0,0,0-11.7,8.386s-1.207,2.624.8,2.752l2.012,9.255S247.795,185.008,247.666,178.7Z" transform="translate(-212.874 -114.789)" fill="#263238"/>
        <path id="Trazado_877834" data-name="Trazado 877834" d="M273.55,183.322s8.45-2.294,10.06-3.831c0,0,.877-2.3,2.487-2.036s5.288,6,5.288,11.766c0,0,0,2.954-2.414,1.473a48.307,48.307,0,0,1-13.279,5.907S270.331,188.279,273.55,183.322Z" transform="translate(-220.65 -116.322)" fill="#263238"/>
        <path id="Trazado_877835" data-name="Trazado 877835" d="M258.5,182.513a18.346,18.346,0,0,0,9.328-1.61,2.463,2.463,0,0,0,.362-.8c-2.535-3.3-.748-9.408.74-13.529l-9.231,5.69c.314,3.436.145,5.392-4.829,5.787a3.525,3.525,0,0,0-.966,1.054C254.407,180.6,255.59,182.119,258.5,182.513Z" transform="translate(-217.015 -114.202)" fill="#ffb573"/>
        <path id="Trazado_877836" data-name="Trazado 877836" d="M266.6,169.43l-5.432,3.412a13.351,13.351,0,0,1,.048,2.414c1.859,0,4.958-1.078,5.634-2.994A5.722,5.722,0,0,0,266.6,169.43Z" transform="translate(-218.434 -114.76)" opacity="0.2"/>
        <path id="Trazado_877837" data-name="Trazado 877837" d="M265.154,141.955s-9.392-1.312-8.257,3.066S265.154,141.955,265.154,141.955Z" transform="translate(-217.581 -109.361)" fill="#263238"/>
        <path id="Trazado_877838" data-name="Trazado 877838" d="M265.154,141.955s-9.392-1.312-8.257,3.066S265.154,141.955,265.154,141.955Z" transform="translate(-217.581 -109.361)" opacity="0.5"/>
        <path id="Trazado_877839" data-name="Trazado 877839" d="M281.675,141.82c-.467-1.666-1.61-6.326.8-6.793,4.233-.8,5.086,3.952,5.086,3.952s5.98-.1,2.229,5.432c0,0,2.366,4.523-2.672,4.024C284.145,148.1,282.23,143.768,281.675,141.82Z" transform="translate(-222.304 -108.027)" fill="#263238"/>
        <path id="Trazado_877840" data-name="Trazado 877840" d="M281.675,141.82c-.467-1.666-1.61-6.326.8-6.793,4.233-.8,5.086,3.952,5.086,3.952s5.98-.1,2.229,5.432c0,0,2.366,4.523-2.672,4.024C284.145,148.1,282.23,143.768,281.675,141.82Z" transform="translate(-222.304 -108.027)" opacity="0.2"/>
        <path id="Trazado_877841" data-name="Trazado 877841" d="M280,143.138a2.929,2.929,0,0,1,4.475.644c1.915,2.8-1.61,4.829-1.61,4.829S281.915,144.482,280,143.138Z" transform="translate(-222.11 -109.473)" fill="#7d6eb2"/>
        <path id="Trazado_877842" data-name="Trazado 877842" d="M273.154,169.66s1.449,3.775-.378,3.887S273.428,172.155,273.154,169.66Z" transform="translate(-220.567 -114.805)" fill="#263238"/>
        <path id="Trazado_877843" data-name="Trazado 877843" d="M275.374,155.141c-2.986,6.688-4.112,9.569-8.853,11.774-7.187,3.324-14.744-1.819-13.81-9.255.853-6.7,5.634-16.539,13.327-16.692a9.988,9.988,0,0,1,9.368,14.173Z" transform="translate(-216.768 -109.203)" fill="#ffb573"/>
        <path id="Trazado_877844" data-name="Trazado 877844" d="M258.345,152.469c-.217.563-.684.893-1.038.765s-.491-.708-.29-1.264.684-.893,1.038-.748S258.546,151.914,258.345,152.469Z" transform="translate(-217.605 -111.199)" fill="#263238"/>
        <path id="Trazado_877845" data-name="Trazado 877845" d="M258.223,151.123,257,150.23S257.322,151.534,258.223,151.123Z" transform="translate(-217.62 -111.012)" fill="#263238"/>
        <path id="Trazado_877846" data-name="Trazado 877846" d="M258.622,156a15.943,15.943,0,0,1-3.332,2.809,2.624,2.624,0,0,0,1.851,1.119Z" transform="translate(-217.286 -112.138)" fill="#ed893e"/>
        <path id="Trazado_877847" data-name="Trazado 877847" d="M269.923,153.649a.354.354,0,0,1-.338-.241,4.129,4.129,0,0,0-2.487-2.173.346.346,0,0,1-.241-.435.338.338,0,0,1,.427-.233h0a4.773,4.773,0,0,1,2.954,2.632.346.346,0,0,1-.225.435h0A.153.153,0,0,1,269.923,153.649Z" transform="translate(-219.541 -111.075)" fill="#263238"/>
        <path id="Trazado_877848" data-name="Trazado 877848" d="M257.6,147.862a.346.346,0,0,1,0-.676,3.4,3.4,0,0,1,3.123.8.33.33,0,0,1,0,.475h0a.338.338,0,0,1-.483,0h0a2.817,2.817,0,0,0-2.463-.6A.29.29,0,0,1,257.6,147.862Z" transform="translate(-217.685 -110.399)" fill="#263238"/>
        <path id="Trazado_877849" data-name="Trazado 877849" d="M266.165,155.39c-.217.547-.684.893-1.038.765s-.491-.708-.29-1.264.684-.893,1.046-.8S266.334,154.819,266.165,155.39Z" transform="translate(-219.132 -111.762)" fill="#263238"/>
        <path id="Trazado_877850" data-name="Trazado 877850" d="M266.041,154.113l-1.191-.893S265.148,154.484,266.041,154.113Z" transform="translate(-219.152 -111.596)" fill="#263238"/>
        <path id="Trazado_877851" data-name="Trazado 877851" d="M273.771,157.464a22.688,22.688,0,0,1-1.022-11.815s-12.136-.1-8.225-3.139c0,0-10.229-2.688-6.229-7.292s11-1.425,13.786,2.6c0,0,6.189,2.495,7,9.046.958,7.718-8.5,19.468-9.118,16.442C269.6,161.52,273.771,157.464,273.771,157.464Z" transform="translate(-217.692 -107.639)" fill="#263238"/>
        <path id="Trazado_877852" data-name="Trazado 877852" d="M279.4,165.03a5.255,5.255,0,0,1-3.541,1.859c-1.843.145-2.414-1.61-1.61-3.147.741-1.4,2.575-3.163,4.282-2.608a2.358,2.358,0,0,1,1.425,3.026,2.415,2.415,0,0,1-.555.869Z" transform="translate(-220.919 -113.12)" fill="#ffb573"/>
        <path id="Trazado_877853" data-name="Trazado 877853" d="M265.051,182.575a12.451,12.451,0,0,1-9.907,2.672c-4.523-.869-5.07-3.614-4.966-5.247-8.458-.08-12.032,2.213-12.032,2.213-6.237,8.652-7.847,43.661-7.847,43.661,14.285,4.426,31.621,4.628,31.621,4.628,1.408-11.871,11.6-40.039,11.6-40.039S272.287,185.633,265.051,182.575Z" transform="translate(-212.408 -116.822)" fill="#263238"/>
        <path id="Trazado_877854" data-name="Trazado 877854" d="M253.034,179.62h2.358s-.571,3.453,3.75,4.257,9.9-1.98,9.9-1.98l2.374,1.111s-6.157,4.692-13.134,3.082S253.034,179.62,253.034,179.62Z" transform="translate(-216.809 -116.749)" fill="#263238"/>
        <path id="Trazado_877855" data-name="Trazado 877855" d="M253.034,179.62h2.358s-.571,3.453,3.75,4.257,9.9-1.98,9.9-1.98l2.374,1.111s-6.157,4.692-13.134,3.082S253.034,179.62,253.034,179.62Z" transform="translate(-216.809 -116.749)" fill="#fff" opacity="0.7"/>
        <path id="Trazado_877856" data-name="Trazado 877856" d="M265.838,106.973c-.072-.121-.885-2.744,2.664-4.37s4.217-.089,6.31-1.1a11.219,11.219,0,0,1-3.791,5.223C268.044,109.065,266.136,107.456,265.838,106.973Z" transform="translate(-219.32 -101.5)"/>
        <path id="Trazado_877857" data-name="Trazado 877857" d="M250.963,116.8c-4.338,2.712-17.472,9.658-18.18,8.531s11.267-9.907,15.613-12.619,8.418-4.024,9.126-2.865S255.293,114.089,250.963,116.8Z" transform="translate(-212.887 -103.047)" fill="#7d6eb2"/>
        <path id="Trazado_877858" data-name="Trazado 877858" d="M250.963,116.8c-4.338,2.712-17.472,9.658-18.18,8.531s11.267-9.907,15.613-12.619,8.418-4.024,9.126-2.865S255.293,114.089,250.963,116.8Z" transform="translate(-212.887 -103.047)" fill="#fff" opacity="0.4"/>
        <path id="Trazado_877859" data-name="Trazado 877859" d="M0,0H2.962V4.346A.652.652,0,0,1,2.31,5H.7a.652.652,0,0,1-.652-.652V0Z" transform="translate(46.477 3.914) rotate(57.95)" fill="#263238"/>
        <path id="Trazado_877860" data-name="Trazado 877860" d="M0,0H2.962V4.346A.652.652,0,0,1,2.31,5H.7a.652.652,0,0,1-.652-.652V0Z" transform="translate(46.477 3.914) rotate(57.95)" fill="#fff" opacity="0.5"/>
        <path id="Trazado_877861" data-name="Trazado 877861" d="M275.187,101.5c-2.093,1.014-2.76-.523-6.31,1.1a7.114,7.114,0,0,0-1,.563.5.5,0,0,0-.081.652c.628.8,3.01-1.022,3.461-.451s-1.062,1.054-.507,1.8-.652,1.457-.121,2.076a6.492,6.492,0,0,0,.765-.523,11.219,11.219,0,0,0,3.791-5.223Z" transform="translate(-219.711 -101.5)" fill="#7d6eb2"/>
        <path id="Trazado_877862" data-name="Trazado 877862" d="M328.687,120.9c-9.279-1.408-17.343.99-18.012,5.352-.378,2.487,5.272,3.171,8.853,5.2,2.712,1.537,2.744,4.66,6.744,5.263,9.279,1.408,17.343-.99,18-5.352S337.975,122.319,328.687,120.9Zm-1.561,8.925c-2.141-.33-3.767-1.3-3.63-2.181s1.972-1.328,4.121-1.006,3.766,1.3,3.63,2.181-1.972,1.336-4.121,1.014Z" transform="translate(-228.094 -105.209)" fill="#7d6eb2"/>
        <path id="Trazado_877863" data-name="Trazado 877863" d="M328.687,120.9c-9.279-1.408-17.343.99-18.012,5.352-.378,2.487,5.272,3.171,8.853,5.2,2.712,1.537,2.744,4.66,6.744,5.263,9.279,1.408,17.343-.99,18-5.352S337.975,122.319,328.687,120.9Zm-1.561,8.925c-2.141-.33-3.767-1.3-3.63-2.181s1.972-1.328,4.121-1.006,3.766,1.3,3.63,2.181-1.972,1.336-4.121,1.014Z" transform="translate(-228.094 -105.209)" fill="#263238" opacity="0.9"/>
        <path id="Trazado_877864" data-name="Trazado 877864" d="M323.32,125.7c0,.684-1.183,1.239-2.648,1.239S318,126.373,318,125.7s1.183-1.247,2.648-1.247S323.32,125,323.32,125.7Z" transform="translate(-229.527 -105.98)" fill="#7d6eb2"/>
        <path id="Trazado_877865" data-name="Trazado 877865" d="M323.32,125.7c0,.684-1.183,1.239-2.648,1.239S318,126.373,318,125.7s1.183-1.247,2.648-1.247S323.32,125,323.32,125.7Z" transform="translate(-229.527 -105.98)" fill="#fff" opacity="0.9"/>
        <path id="Trazado_877866" data-name="Trazado 877866" d="M333.129,122.608c0,.531-1.07.958-2.414.958s-2.414-.427-2.414-.958,1.078-.958,2.414-.958S333.129,122.077,333.129,122.608Z" transform="translate(-231.538 -105.433)" fill="#7d6eb2"/>
        <path id="Trazado_877867" data-name="Trazado 877867" d="M333.129,122.608c0,.531-1.07.958-2.414.958s-2.414-.427-2.414-.958,1.078-.958,2.414-.958S333.129,122.077,333.129,122.608Z" transform="translate(-231.538 -105.433)" fill="#fff" opacity="0.7"/>
        <ellipse id="Elipse_11661" data-name="Elipse 11661" cx="3.115" cy="1.32" rx="3.115" ry="1.32" transform="translate(104.295 19.323)" fill="#7d6eb2"/>
        <ellipse id="Elipse_11662" data-name="Elipse 11662" cx="3.115" cy="1.32" rx="3.115" ry="1.32" transform="translate(104.295 19.323)" fill="#fff" opacity="0.6"/>
        <path id="Trazado_877868" data-name="Trazado 877868" d="M347.228,134.447c0,.66-1.28,1.207-2.849,1.207s-2.849-.547-2.849-1.207,1.272-1.207,2.849-1.207S347.228,133.779,347.228,134.447Z" transform="translate(-234.12 -107.696)" fill="#7d6eb2"/>
        <path id="Trazado_877869" data-name="Trazado 877869" d="M347.228,134.447c0,.66-1.28,1.207-2.849,1.207s-2.849-.547-2.849-1.207,1.272-1.207,2.849-1.207S347.228,133.779,347.228,134.447Z" transform="translate(-234.12 -107.696)" fill="#fff" opacity="0.8"/>
        <path id="Trazado_877870" data-name="Trazado 877870" d="M336.147,136.108c0,.765-1.368,1.376-3.058,1.376s-3.058-.612-3.058-1.376,1.368-1.368,3.058-1.368S336.147,135.352,336.147,136.108Z" transform="translate(-231.875 -107.988)" fill="#7d6eb2"/>
        <path id="Trazado_877871" data-name="Trazado 877871" d="M336.147,136.108c0,.765-1.368,1.376-3.058,1.376s-3.058-.612-3.058-1.376,1.368-1.368,3.058-1.368S336.147,135.352,336.147,136.108Z" transform="translate(-231.875 -107.988)" fill="#fff" opacity="0.4"/>
        <path id="Trazado_877872" data-name="Trazado 877872" d="M316.37,132.627s3.066-2.463,5.078-2.527a.8.8,0,0,1,.8.8c0,.652-.1,1.553-.652,1.714a15.288,15.288,0,0,0-2.817,1.61Z" transform="translate(-229.209 -107.083)" fill="#ffb573"/>
        <path id="Trazado_877873" data-name="Trazado 877873" d="M236.918,195.882c.338-1.489.974-4.209,4.829-.885s3.018-1.7,6.036-1.537-.853,6.149-.853,6.149,4.781-.491,4.732,2.414-6.2,1.779-6.2,1.779-2.865,8.6-5.473,5.513,1.714-6.438,1.022-9.223S236.161,199.367,236.918,195.882Z" transform="translate(-213.682 -119.442)" fill="#7d6eb2"/>
        <path id="Trazado_877874" data-name="Trazado 877874" d="M236.918,195.882c.338-1.489.974-4.209,4.829-.885s3.018-1.7,6.036-1.537-.853,6.149-.853,6.149,4.781-.491,4.732,2.414-6.2,1.779-6.2,1.779-2.865,8.6-5.473,5.513,1.714-6.438,1.022-9.223S236.161,199.367,236.918,195.882Z" transform="translate(-213.682 -119.442)" fill="#fff" opacity="0.8"/>
        <path id="Trazado_877875" data-name="Trazado 877875" d="M256.655,230.217c.354-1.9-1.215-6.149,1.4-7.6s2.455,5.159,4.941,3.8,3.3,1.183,2.229,3.8-2.978,3.018-2.229,5.432-1.521.274-4.941-1.336S256.293,232.164,256.655,230.217Z" transform="translate(-217.412 -125.101)" fill="#7d6eb2"/>
        <path id="Trazado_877876" data-name="Trazado 877876" d="M256.655,230.217c.354-1.9-1.215-6.149,1.4-7.6s2.455,5.159,4.941,3.8,3.3,1.183,2.229,3.8-2.978,3.018-2.229,5.432-1.521.274-4.941-1.336S256.293,232.164,256.655,230.217Z" transform="translate(-217.412 -125.101)" opacity="0.2"/>
        <path id="Trazado_877877" data-name="Trazado 877877" d="M228.527,376.652a38.993,38.993,0,0,0,3.348,25.609c.169.346.732.137.563-.209a38.55,38.55,0,0,1-3.316-25.3C229.2,376.37,228.6,376.273,228.527,376.652Z" transform="translate(-211.899 -155.162)" fill="#7d6eb2"/>
        <path id="Trazado_877878" data-name="Trazado 877878" d="M237.416,366.637a2.491,2.491,0,0,1-.612-.1,39.243,39.243,0,0,0-1.441,17.013c.048.378.652.362.6,0A38.728,38.728,0,0,1,237.416,366.637Z" transform="translate(-213.327 -153.235)" fill="#7d6eb2"/>
        <path id="Trazado_877879" data-name="Trazado 877879" d="M241.351,356.193a41.492,41.492,0,0,0-2.141,4.161,1.762,1.762,0,0,1,.507.346,40.914,40.914,0,0,1,2.165-4.217C242.083,356.145,241.552,355.855,241.351,356.193Z" transform="translate(-214.148 -151.186)" fill="#7d6eb2"/>
        <path id="Trazado_877880" data-name="Trazado 877880" d="M256.74,163.24a30.043,30.043,0,0,1,6.8-.1,3.85,3.85,0,0,1-4.265,2.962,2.624,2.624,0,0,1-2.527-2.608A2.489,2.489,0,0,1,256.74,163.24Z" transform="translate(-217.569 -113.511)" fill="#263238"/>
        <path id="Trazado_877881" data-name="Trazado 877881" d="M260.691,165.163a4.024,4.024,0,0,0-2.8.708,2.624,2.624,0,0,0,1.61.62,4.024,4.024,0,0,0,2.8-.716,2.5,2.5,0,0,0-1.61-.612Z" transform="translate(-217.794 -113.921)" fill="#a02724"/>
        <path id="Trazado_877882" data-name="Trazado 877882" d="M257,163.2a1.239,1.239,0,0,0,.8.917,22.743,22.743,0,0,0,4.442-.209,1.352,1.352,0,0,0,1.127-.8,35.6,35.6,0,0,0-6.374.1Z" transform="translate(-217.62 -113.506)" fill="#fff"/>
      </g>
      <g id="freepik--Music--inject-5" transform="translate(162.776 143.1)">
        <path id="Trazado_877883" data-name="Trazado 877883" d="M315.146,198.43l-10.7,2.873.8,15.436a6.912,6.912,0,0,0-2.35.258c-2.414.668-4.378,2.326-4.306,3.71s2.125,1.972,4.571,1.312,4.378-2.334,4.306-3.718c-.2-3.766-.756-14.486-.756-14.486l6.793-1.851Z" transform="translate(-237.105 -173.135)" fill="#7d6eb2"/>
        <path id="Trazado_877884" data-name="Trazado 877884" d="M364.392,206.06l-6.286,1.706.475,9.078a4.1,4.1,0,0,0-1.384.145c-1.441.394-2.567,1.368-2.527,2.189s1.247,1.159,2.688.764,2.567-1.368,2.527-2.181c-.113-2.213-.443-8.507-.443-8.507l4.024-1.078Z" transform="translate(-248.05 -174.624)" fill="#7d6eb2"/>
        <path id="Trazado_877885" data-name="Trazado 877885" d="M234.479,214.88l-7.927,2.157.6,11.444a5.257,5.257,0,0,0-1.738.185c-1.811.5-3.219,1.73-3.219,2.76s1.61,1.457,3.388.966,3.219-1.73,3.219-2.752c-.145-2.793-.563-10.72-.563-10.72l5.046-1.368Z" transform="translate(-222.19 -176.346)" fill="#7d6eb2"/>
        <path id="Trazado_877886" data-name="Trazado 877886" d="M234.479,214.88l-7.927,2.157.6,11.444a5.257,5.257,0,0,0-1.738.185c-1.811.5-3.219,1.73-3.219,2.76s1.61,1.457,3.388.966,3.219-1.73,3.219-2.752c-.145-2.793-.563-10.72-.563-10.72l5.046-1.368Z" transform="translate(-222.19 -176.346)" fill="#fff" opacity="0.2"/>
        <path id="Trazado_877887" data-name="Trazado 877887" d="M316.7,223.143l.974,18.51a8.541,8.541,0,0,0-2.817.306c-2.93.8-5.239,2.793-5.159,4.459s2.543,2.358,5.481,1.561,5.239-2.793,5.159-4.451c-.241-4.515-.909-17.327-.909-17.327l13.134-3.573.8,14.768a8.563,8.563,0,0,0-2.817.314c-2.937.8-5.247,2.793-5.159,4.451s2.543,2.358,5.473,1.561,5.247-2.793,5.159-4.451c-.233-4.515-1.1-21.062-1.1-21.062Z" transform="translate(-239.271 -176.996)" fill="#7d6eb2"/>
        <path id="Trazado_877888" data-name="Trazado 877888" d="M322.575,169.414l.483,9.215a4.024,4.024,0,0,0-1.4.153c-1.457.394-2.608,1.384-2.567,2.213s1.264,1.175,2.728.8,2.616-1.392,2.567-2.221c-.113-2.245-.451-8.628-.451-8.628l6.543-1.779.386,7.356a4.194,4.194,0,0,0-1.384.129c-1.465.4-2.616,1.392-2.575,2.221s1.264,1.175,2.728.8,2.616-1.392,2.567-2.221c-.113-2.245-.547-10.462-.547-10.462Z" transform="translate(-241.104 -167)" fill="#7d6eb2"/>
        <path id="Trazado_877889" data-name="Trazado 877889" d="M322.575,169.414l.483,9.215a4.024,4.024,0,0,0-1.4.153c-1.457.394-2.608,1.384-2.567,2.213s1.264,1.175,2.728.8,2.616-1.392,2.567-2.221c-.113-2.245-.451-8.628-.451-8.628l6.543-1.779.386,7.356a4.194,4.194,0,0,0-1.384.129c-1.465.4-2.616,1.392-2.575,2.221s1.264,1.175,2.728.8,2.616-1.392,2.567-2.221c-.113-2.245-.547-10.462-.547-10.462Z" transform="translate(-241.104 -167)" opacity="0.2"/>
        <ellipse id="Elipse_11663" data-name="Elipse 11663" cx="19.436" cy="10.293" rx="19.436" ry="10.293" transform="translate(58.885 83.494) rotate(-10.9)" fill="#7d6eb2"/>
        <path id="Trazado_877890" data-name="Trazado 877890" d="M327.676,286.571,320.6,278.74l-3.662,9.867a33.047,33.047,0,0,0,10.736-2.068Z" transform="translate(-240.685 -188.811)" fill="#fff"/>
        <path id="Trazado_877891" data-name="Trazado 877891" d="M323.4,266.44a32.819,32.819,0,0,0-5.456.587A32.05,32.05,0,0,0,312.7,268.5l7.074,7.831Z" transform="translate(-239.857 -186.41)" fill="#fff"/>
        <path id="Trazado_877892" data-name="Trazado 877892" d="M311.448,288.617l6.438-9.827-14.816,7.243a13.015,13.015,0,0,0,3.646,1.714A21.727,21.727,0,0,0,311.448,288.617Z" transform="translate(-237.978 -188.821)" fill="#263238"/>
        <path id="Trazado_877893" data-name="Trazado 877893" d="M336.308,269.089a12.789,12.789,0,0,0-3.646-1.714,21.732,21.732,0,0,0-4.724-.845l-6.438,9.827Z" transform="translate(-241.575 -186.428)" fill="#263238"/>
        <path id="Trazado_877894" data-name="Trazado 877894" d="M325.945,276.8c.33,1.722-2.036,3.63-5.288,4.249s-6.165-.258-6.495-1.98,2.036-3.63,5.288-4.257S325.615,275.077,325.945,276.8Z" transform="translate(-240.137 -188.005)" fill="#7d6eb2"/>
        <path id="Trazado_877895" data-name="Trazado 877895" d="M325.945,276.8c.33,1.722-2.036,3.63-5.288,4.249s-6.165-.258-6.495-1.98,2.036-3.63,5.288-4.257S325.615,275.077,325.945,276.8Z" transform="translate(-240.137 -188.005)" opacity="0.3"/>
        <path id="Trazado_877896" data-name="Trazado 877896" d="M322.342,278.37c.064.33-.394.692-1.014.8s-1.175-.048-1.239-.378.394-.692,1.014-.8S322.278,278.04,322.342,278.37Z" transform="translate(-241.298 -188.658)" fill="#fff"/>
        <ellipse id="Elipse_11664" data-name="Elipse 11664" cx="5.964" cy="11.259" rx="5.964" ry="11.259" transform="translate(107.018 65.721) rotate(-72.44)" fill="#7d6eb2"/>
        <path id="Trazado_877897" data-name="Trazado 877897" d="M371.074,251.749l-1.449-5.939-4.6,4.024a19.925,19.925,0,0,0,2.946,1.207A18.761,18.761,0,0,0,371.074,251.749Z" transform="translate(-250.072 -182.383)" fill="#fff"/>
        <path id="Trazado_877898" data-name="Trazado 877898" d="M374.994,240.337a19.929,19.929,0,0,0-2.946-1.207,18.764,18.764,0,0,0-3.1-.7l1.441,5.939Z" transform="translate(-250.837 -180.943)" fill="#fff"/>
        <path id="Trazado_877899" data-name="Trazado 877899" d="M362.429,248.946l6-3.219-9.545-.386a7.468,7.468,0,0,0,1.384,1.875A12.714,12.714,0,0,0,362.429,248.946Z" transform="translate(-248.872 -182.292)" fill="#263238"/>
        <path id="Trazado_877900" data-name="Trazado 877900" d="M380.293,245.414a7.47,7.47,0,0,0-1.384-1.875,13.134,13.134,0,0,0-2.165-1.738l-6,3.219Z" transform="translate(-251.187 -181.601)" fill="#263238"/>
        <path id="Trazado_877901" data-name="Trazado 877901" d="M373.242,246.361c-.306.974-2.036,1.288-3.863.708s-3.066-1.835-2.76-2.8,2.036-1.288,3.863-.708S373.548,245.395,373.242,246.361Z" transform="translate(-250.373 -181.888)" fill="#7d6eb2"/>
        <path id="Trazado_877902" data-name="Trazado 877902" d="M373.242,246.361c-.306.974-2.036,1.288-3.863.708s-3.066-1.835-2.76-2.8,2.036-1.288,3.863-.708S373.548,245.395,373.242,246.361Z" transform="translate(-250.373 -181.888)" opacity="0.3"/>
        <path id="Trazado_877903" data-name="Trazado 877903" d="M371.221,245.917c-.056.185-.386.241-.74.137s-.579-.354-.523-.539.386-.241.74-.137S371.278,245.731,371.221,245.917Z" transform="translate(-251.032 -182.289)" fill="#fff"/>
      </g>
    </g>
  </g>
</svg>
