<svg id="Grupo_1101198" data-name="Grupo 1101198" xmlns="http://www.w3.org/2000/svg" xmlns:xlink="http://www.w3.org/1999/xlink" width="294.976" height="426.494" viewBox="0 0 294.976 426.494">
  <defs>
    <clipPath id="clip-path">
      <rect id="Rectángulo_402114" data-name="Rectángulo 402114" width="294.976" height="426.494" fill="none"/>
    </clipPath>
    <clipPath id="clip-path-5">
      <rect id="Rectángulo_402094" data-name="Rectángulo 402094" width="41.878" height="56.779" fill="none"/>
    </clipPath>
    <clipPath id="clip-path-8">
      <rect id="Rectángulo_402097" data-name="Rectángulo 402097" width="104.309" height="55.943" fill="none"/>
    </clipPath>
    <clipPath id="clip-path-10">
      <rect id="Rectángulo_402099" data-name="Rectángulo 402099" width="194.158" height="68.666" fill="none"/>
    </clipPath>
    <clipPath id="clip-path-11">
      <rect id="Rectángulo_402100" data-name="Rectángulo 402100" width="104.159" height="149.375" fill="none"/>
    </clipPath>
    <clipPath id="clip-path-12">
      <rect id="Rectángulo_402101" data-name="Rectángulo 402101" width="104.233" height="62.763" fill="none"/>
    </clipPath>
    <clipPath id="clip-path-14">
      <rect id="Rectángulo_402103" data-name="Rectángulo 402103" width="136.418" height="84.856" fill="none"/>
    </clipPath>
    <clipPath id="clip-path-16">
      <rect id="Rectángulo_402105" data-name="Rectángulo 402105" width="134.99" height="80.054" fill="none"/>
    </clipPath>
    <clipPath id="clip-path-17">
      <rect id="Rectángulo_402106" data-name="Rectángulo 402106" width="37.167" height="10.604" fill="none"/>
    </clipPath>
    <clipPath id="clip-path-19">
      <rect id="Rectángulo_402108" data-name="Rectángulo 402108" width="96.422" height="90.67" fill="none"/>
    </clipPath>
    <clipPath id="clip-path-20">
      <rect id="Rectángulo_402109" data-name="Rectángulo 402109" width="43.778" height="1.754" fill="none"/>
    </clipPath>
    <clipPath id="clip-path-22">
      <rect id="Rectángulo_402111" data-name="Rectángulo 402111" width="60.264" height="42.882" fill="none"/>
    </clipPath>
    <clipPath id="clip-path-23">
      <rect id="Rectángulo_402112" data-name="Rectángulo 402112" width="17.639" height="18.079" fill="none"/>
    </clipPath>
  </defs>
  <g id="Grupo_1101197" data-name="Grupo 1101197" clip-path="url(#clip-path)">
    <g id="Grupo_1101141" data-name="Grupo 1101141">
      <g id="Grupo_1101140" data-name="Grupo 1101140" clip-path="url(#clip-path)">
        <path id="Trazado_875885" data-name="Trazado 875885" d="M218.562,265.994a4.926,4.926,0,1,1-4.926-4.926,4.926,4.926,0,0,1,4.926,4.926" transform="translate(-16.293 -20.38)" fill="#e0e0e0"/>
      </g>
    </g>
    <g id="Grupo_1101143" data-name="Grupo 1101143">
      <g id="Grupo_1101142" data-name="Grupo 1101142" clip-path="url(#clip-path)">
        <path id="Trazado_875886" data-name="Trazado 875886" d="M86.009,83.208c-.064.116-6.714-3.385-14.853-7.821s-14.688-8.126-14.625-8.242,6.713,3.384,14.855,7.821,14.686,8.126,14.623,8.242" transform="translate(-4.413 -5.241)" fill="#263238"/>
        <path id="Trazado_875887" data-name="Trazado 875887" d="M167.172,0c.133,0,.24,8.485.24,18.948S167.3,37.9,167.172,37.9s-.24-8.483-.24-18.949S167.039,0,167.172,0" transform="translate(-13.031)" fill="#263238"/>
        <path id="Trazado_875888" data-name="Trazado 875888" d="M121.093,48.062c-.107.078-2.834-3.482-6.089-7.951s-5.81-8.155-5.7-8.234,2.833,3.481,6.09,7.952,5.808,8.155,5.7,8.233" transform="translate(-8.532 -2.488)" fill="#263238"/>
        <path id="Trazado_875889" data-name="Trazado 875889" d="M246.365,94c-.064-.116,6.485-3.807,14.624-8.242s14.791-7.938,14.854-7.821-6.483,3.806-14.625,8.242S246.429,94.121,246.365,94" transform="translate(-19.232 -6.084)" fill="#263238"/>
        <path id="Trazado_875890" data-name="Trazado 875890" d="M218.113,52.451c-.107-.078,2.446-3.764,5.7-8.233s5.983-8.029,6.09-7.952-2.445,3.764-5.7,8.234-5.982,8.029-6.089,7.951" transform="translate(-17.026 -2.831)" fill="#263238"/>
      </g>
    </g>
    <g id="Grupo_1101148" data-name="Grupo 1101148">
      <g id="Grupo_1101147" data-name="Grupo 1101147" clip-path="url(#clip-path)">
        <path id="Trazado_875891" data-name="Trazado 875891" d="M67.86,199.923c-.116.064-.459-.336-.765-.892s-.46-1.06-.344-1.124.458.336.764.891.461,1.06.345,1.124" transform="translate(-5.208 -15.449)" fill="#263238"/>
        <path id="Trazado_875892" data-name="Trazado 875892" d="M72.577,208.522c-.116.065-.708-.788-1.322-1.9a5.73,5.73,0,0,1-.9-2.135c.116-.064.708.788,1.322,1.9a5.736,5.736,0,0,1,.9,2.135" transform="translate(-5.49 -15.962)" fill="#263238"/>
        <path id="Trazado_875893" data-name="Trazado 875893" d="M77.538,217.2c-.113.068-.726-.77-1.367-1.871a5.731,5.731,0,0,1-.953-2.112c.115-.066.727.772,1.367,1.871a5.728,5.728,0,0,1,.953,2.112" transform="translate(-5.87 -16.644)" fill="#263238"/>
        <path id="Trazado_875894" data-name="Trazado 875894" d="M82.855,225.679c-.11.075-.762-.733-1.458-1.8a5.73,5.73,0,0,1-1.056-2.066c.112-.07.765.738,1.458,1.8a5.774,5.774,0,0,1,1.056,2.065" transform="translate(-6.27 -17.315)" fill="#263238"/>
        <path id="Trazado_875895" data-name="Trazado 875895" d="M88.8,233.727c-.1.086-.823-.66-1.612-1.667a5.729,5.729,0,0,1-1.235-1.964c.107-.078.829.667,1.612,1.667a5.784,5.784,0,0,1,1.235,1.964" transform="translate(-6.708 -17.962)" fill="#263238"/>
        <path id="Trazado_875896" data-name="Trazado 875896" d="M95.861,240.779c-.083.1-.927-.5-1.884-1.351s-1.658-1.614-1.564-1.708a5.8,5.8,0,0,1,1.884,1.351c.947.84,1.648,1.605,1.565,1.708" transform="translate(-7.213 -18.556)" fill="#263238"/>
        <path id="Trazado_875897" data-name="Trazado 875897" d="M103.979,246.612a5.71,5.71,0,0,1-2.052-1.076c-1.063-.707-1.862-1.368-1.786-1.476a5.768,5.768,0,0,1,2.052,1.076c1.056.7,1.855,1.364,1.786,1.476" transform="translate(-7.817 -19.051)" fill="#263238"/>
        <path id="Trazado_875898" data-name="Trazado 875898" d="M112.737,251.43a5.7,5.7,0,0,1-2.166-.825c-1.141-.576-2.014-1.138-1.95-1.254a11.195,11.195,0,0,1,4.116,2.079" transform="translate(-8.479 -19.463)" fill="#263238"/>
        <path id="Trazado_875899" data-name="Trazado 875899" d="M122.121,254.847a4.933,4.933,0,0,1-2.3-.362,5.1,5.1,0,0,1-2.118-.962,6.6,6.6,0,0,1,2.257.5,6.89,6.89,0,0,1,2.159.822" transform="translate(-9.188 -19.788)" fill="#263238"/>
        <path id="Trazado_875900" data-name="Trazado 875900" d="M132.045,255.155a4.822,4.822,0,0,1-2.269.517,4.722,4.722,0,0,1-2.321-.165,7.365,7.365,0,0,1,2.285-.313,7.11,7.11,0,0,1,2.306-.039" transform="translate(-9.95 -19.913)" fill="#263238"/>
        <path id="Trazado_875901" data-name="Trazado 875901" d="M141.628,252.288a11.187,11.187,0,0,1-4.332,1.58,11.188,11.188,0,0,1,4.332-1.58" transform="translate(-10.718 -19.692)" fill="#263238"/>
        <path id="Trazado_875902" data-name="Trazado 875902" d="M150.63,247.893c.064.116-.8.689-1.934,1.279a5.726,5.726,0,0,1-2.156.852,11.177,11.177,0,0,1,4.09-2.131" transform="translate(-11.439 -19.35)" fill="#263238"/>
        <path id="Trazado_875903" data-name="Trazado 875903" d="M159.4,243.074a11.222,11.222,0,0,1-4.047,2.215c-.065-.116.79-.706,1.909-1.318a5.742,5.742,0,0,1,2.138-.9" transform="translate(-12.127 -18.974)" fill="#263238"/>
        <path id="Trazado_875904" data-name="Trazado 875904" d="M168.414,238.767a11.195,11.195,0,0,1-4.2,1.9,11.194,11.194,0,0,1,4.2-1.9" transform="translate(-12.819 -18.637)" fill="#263238"/>
        <path id="Trazado_875905" data-name="Trazado 875905" d="M177.7,235.091a11.168,11.168,0,0,1-4.316,1.617,11.183,11.183,0,0,1,4.316-1.617" transform="translate(-13.535 -18.35)" fill="#263238"/>
        <path id="Trazado_875906" data-name="Trazado 875906" d="M187.259,232.2a11.183,11.183,0,0,1-4.443,1.23,11.183,11.183,0,0,1,4.443-1.23" transform="translate(-14.271 -18.123)" fill="#263238"/>
        <path id="Trazado_875907" data-name="Trazado 875907" d="M197.07,230.333a11.17,11.17,0,0,1-4.553.724,11.17,11.17,0,0,1,4.553-.724" transform="translate(-15.029 -17.975)" fill="#263238"/>
        <path id="Trazado_875908" data-name="Trazado 875908" d="M207.044,229.764a11.2,11.2,0,0,1-4.609.092,11.157,11.157,0,0,1,4.609-.092" transform="translate(-15.803 -17.921)" fill="#263238"/>
        <path id="Trazado_875909" data-name="Trazado 875909" d="M216.991,230.71a11.178,11.178,0,0,1-4.565-.645,11.178,11.178,0,0,1,4.565.645" transform="translate(-16.583 -17.953)" fill="#263238"/>
        <path id="Trazado_875910" data-name="Trazado 875910" d="M226.629,233.335a11.208,11.208,0,0,1-4.38-1.444,11.206,11.206,0,0,1,4.38,1.444" transform="translate(-17.349 -18.099)" fill="#263238"/>
        <path id="Trazado_875911" data-name="Trazado 875911" d="M235.637,237.659a11.213,11.213,0,0,1-4.049-2.208,5.7,5.7,0,0,1,2.14.893c1.124.613,1.978,1.2,1.909,1.315" transform="translate(-18.078 -18.378)" fill="#263238"/>
        <path id="Trazado_875912" data-name="Trazado 875912" d="M243.724,243.529a5.8,5.8,0,0,1-1.943-1.265c-.985-.8-1.718-1.53-1.641-1.637s.948.458,1.943,1.264,1.73,1.54,1.641,1.638" transform="translate(-18.746 -18.783)" fill="#263238"/>
        <path id="Trazado_875913" data-name="Trazado 875913" d="M250.543,250.829c-.107.078-.85-.647-1.658-1.621a5.816,5.816,0,0,1-1.288-1.928c.1-.091.839.634,1.658,1.621s1.395,1.849,1.288,1.928" transform="translate(-19.327 -19.303)" fill="#263238"/>
        <path id="Trazado_875914" data-name="Trazado 875914" d="M255.579,259.441c-.061.025-.22-.188-.427-.55s-.465-.874-.767-1.43a5.767,5.767,0,0,1-.845-2.153c.113-.067.686.8,1.276,1.941a8.076,8.076,0,0,1,.648,1.506c.128.4.177.662.115.687" transform="translate(-19.79 -19.93)" fill="#263238"/>
        <path id="Trazado_875915" data-name="Trazado 875915" d="M258.229,269.053a16.617,16.617,0,0,1-.876-4.525,8.476,8.476,0,0,1,.876,4.525" transform="translate(-20.086 -20.65)" fill="#263238"/>
        <path id="Trazado_875916" data-name="Trazado 875916" d="M258.131,279.015a16.73,16.73,0,0,1,.4-4.588,8.416,8.416,0,0,1-.4,4.588" transform="translate(-20.145 -21.423)" fill="#263238"/>
        <path id="Trazado_875917" data-name="Trazado 875917" d="M255.2,288.569a16.766,16.766,0,0,1,1.661-4.3,8.42,8.42,0,0,1-1.661,4.3" transform="translate(-19.92 -22.191)" fill="#263238"/>
        <path id="Trazado_875918" data-name="Trazado 875918" d="M251.33,295.173c-.105-.081.1-.564.467-1.081s.75-.875.861-.8-.1.555-.468,1.08-.755.884-.86.8" transform="translate(-19.617 -22.894)" fill="#263238"/>
        <path id="Trazado_875919" data-name="Trazado 875919" d="M36.369,201.585l-7.759-65.9L88.28,168.456,70.488,179.671l-3.274,12.8-12.288-2.544Z" transform="translate(-2.233 -10.592)" fill="#fff"/>
        <g id="Grupo_1101146" data-name="Grupo 1101146" transform="translate(26.377 125.097)" opacity="0.3">
          <g id="Grupo_1101145" data-name="Grupo 1101145">
            <g id="Grupo_1101144" data-name="Grupo 1101144" clip-path="url(#clip-path-5)">
              <path id="Trazado_875920" data-name="Trazado 875920" d="M70.488,179.672,28.61,135.689l26.317,54.237,12.288,2.544Z" transform="translate(-28.61 -135.689)"/>
            </g>
          </g>
        </g>
        <path id="Trazado_875921" data-name="Trazado 875921" d="M54.935,189.937s-.055-.089-.149-.271-.235-.464-.409-.809c-.36-.728-.88-1.779-1.545-3.126L47.2,174.2l-18.47-38.115A.166.166,0,0,1,29,135.9l.148.156,29.287,30.8,8.848,9.361c1.032,1.1,1.836,1.961,2.393,2.557l.617.67c.137.152.2.236.2.236s-.08-.068-.226-.213l-.64-.647-2.439-2.514-8.924-9.288L28.91,136.285l-.148-.156.269-.186c7.179,14.9,13.674,28.384,18.382,38.156l5.534,11.575c.642,1.359,1.142,2.419,1.49,3.154l.38.823c.084.186.119.286.119.286" transform="translate(-2.242 -10.605)" fill="#263238"/>
        <path id="Trazado_875922" data-name="Trazado 875922" d="M28.949,137.089a3.626,3.626,0,0,1,.424.535c.288.4.666.929,1.139,1.588l4.114,5.89,13.422,19.533L61.356,184.25c1.661,2.491,3.017,4.521,3.987,5.976l1.064,1.638a3.643,3.643,0,0,1,.344.59,3.733,3.733,0,0,1-.423-.536q-.431-.6-1.139-1.588l-4.114-5.888L47.651,164.906,34.345,145.292l-3.987-5.975-1.065-1.638a3.64,3.64,0,0,1-.344-.59" transform="translate(-2.26 -10.702)" fill="#263238"/>
        <path id="Trazado_875923" data-name="Trazado 875923" d="M36.346,201.55s.113-.08.326-.219l.945-.608,3.639-2.327,13.569-8.631.05-.032.059.012,12.293,2.513-.21.132c.993-3.912,2.09-8.229,3.251-12.8l.02-.078.068-.043,17.78-11.237.012.391-28.8-15.8L28.479,135.852l.332-.224c2.214,19.228,4.106,35.669,5.448,47.323.662,5.831,1.187,10.464,1.549,13.659.177,1.582.313,2.806.408,3.656.043.406.077.719.1.951.021.215.029.334.029.334a3.028,3.028,0,0,1-.046-.3c-.029-.223-.067-.526-.118-.917-.1-.834-.254-2.039-.446-3.595-.388-3.176-.951-7.781-1.658-13.578-1.408-11.693-3.393-28.188-5.714-47.48l-.053-.434.384.211L59.575,152.4l28.792,15.824.338.186-.326.206-17.806,11.2.089-.122c-1.177,4.57-2.289,8.884-3.3,12.791l-.043.167-.168-.035-12.28-2.575.109-.019-13.758,8.537L37.586,200.8l-.931.571c-.207.125-.309.181-.309.181" transform="translate(-2.21 -10.558)" fill="#263238"/>
      </g>
    </g>
    <g id="Grupo_1101150" data-name="Grupo 1101150">
      <g id="Grupo_1101149" data-name="Grupo 1101149" clip-path="url(#clip-path)">
        <path id="Trazado_875924" data-name="Trazado 875924" d="M8.749,252.651a6.056,6.056,0,0,0,4.112,2.217,2.818,2.818,0,0,1,1.892,1.239,2.945,2.945,0,0,1-.516,4.075L0,269.983l9.276,13.472a3.012,3.012,0,0,0,3.85.278,2.813,2.813,0,0,0,1.251-1.884,6.054,6.054,0,0,1,2.244-4.1c2.3-1.5,5.1-.7,6.793,1.9s1.286,5.486-1.011,6.982a6.053,6.053,0,0,1-4.655.393,2.818,2.818,0,0,0-2.229.382,2.847,2.847,0,0,0-.94,3.748l9.616,13.967,14.8-10.4a2.855,2.855,0,0,1,3.956.81,2.816,2.816,0,0,1,.4,2.227,6.056,6.056,0,0,0,.422,4.652c1.51,2.287,4.4,2.678,6.988.967s3.367-4.517,1.857-6.806a6.056,6.056,0,0,0-4.111-2.217,2.815,2.815,0,0,1-1.893-1.239,2.856,2.856,0,0,1,.81-3.956L63.6,278.5,39.173,243.014,22.369,254.5a2.855,2.855,0,0,1-3.956-.81,2.815,2.815,0,0,1-.4-2.226,6.058,6.058,0,0,0-.422-4.653c-1.51-2.287-4.395-2.678-6.987-.967s-3.368,4.518-1.858,6.806" transform="translate(0 -18.97)" fill="#26aab7"/>
        <path id="Trazado_875925" data-name="Trazado 875925" d="M312.716,211.868a6.053,6.053,0,0,0-4.642-.525,2.815,2.815,0,0,1-2.217-.444,2.943,2.943,0,0,1-1.039-3.974l9.558-14.4-13.628-9.045a3.013,3.013,0,0,0-3.677,1.176,2.816,2.816,0,0,0-.459,2.214,6.051,6.051,0,0,1-.555,4.638c-1.574,2.244-4.469,2.553-7.011.769s-3.238-4.612-1.664-6.856a6.06,6.06,0,0,1,4.174-2.1,2.816,2.816,0,0,0,1.926-1.185,2.846,2.846,0,0,0-.524-3.828l-14.129-9.378L268.97,184.1a2.856,2.856,0,0,1-3.973.723,2.818,2.818,0,0,1-1.2-1.919,6.058,6.058,0,0,0-2.126-4.16c-2.253-1.56-5.077-.847-6.844,1.707s-1.441,5.448.812,7.008a6.053,6.053,0,0,0,4.642.525,2.815,2.815,0,0,1,2.217.444,2.855,2.855,0,0,1,.723,3.974l-11.041,15.926,35.894,23.823,11.312-16.923a2.857,2.857,0,0,1,3.974-.723,2.817,2.817,0,0,1,1.2,1.919,6.057,6.057,0,0,0,2.126,4.16c2.254,1.56,5.077.847,6.844-1.707s1.441-5.448-.812-7.008" transform="translate(-19.686 -13.187)" fill="#ffd947"/>
      </g>
    </g>
    <path id="Trazado_875926" data-name="Trazado 875926" d="M53.545,407.18,157.7,449.959v-111.5l-104.16-37.87Z" transform="translate(-4.18 -23.464)" fill="#7d6eb2"/>
    <path id="Trazado_875927" data-name="Trazado 875927" d="M166.523,338.675V450.18l104.309-42.46-.616-104.309Z" transform="translate(-12.999 -23.685)" fill="#7d6eb2"/>
    <g id="Grupo_1101155" data-name="Grupo 1101155">
      <g id="Grupo_1101154" data-name="Grupo 1101154" clip-path="url(#clip-path)">
        <g id="Grupo_1101153" data-name="Grupo 1101153" transform="translate(153.524 311.026)" opacity="0.2">
          <g id="Grupo_1101152" data-name="Grupo 1101152">
            <g id="Grupo_1101151" data-name="Grupo 1101151" clip-path="url(#clip-path-8)">
              <path id="Trazado_875928" data-name="Trazado 875928" d="M270.832,364.565,197.3,393.3l-30.78-51.98,104.089-3.962Z" transform="translate(-166.523 -337.362)"/>
            </g>
          </g>
        </g>
      </g>
    </g>
    <path id="Trazado_875929" data-name="Trazado 875929" d="M53.545,297.566,157.7,261.926,261.4,300.173,157.7,335.436Z" transform="translate(-4.18 -20.447)" fill="#7d6eb2"/>
    <g id="Grupo_1101166" data-name="Grupo 1101166">
      <g id="Grupo_1101165" data-name="Grupo 1101165" clip-path="url(#clip-path)">
        <g id="Grupo_1101158" data-name="Grupo 1101158" transform="translate(56.212 243.902)" opacity="0.3">
          <g id="Grupo_1101157" data-name="Grupo 1101157">
            <g id="Grupo_1101156" data-name="Grupo 1101156" clip-path="url(#clip-path-10)">
              <path id="Trazado_875930" data-name="Trazado 875930" d="M60.972,297.838l97.27-33.284,96.888,35.737-96.835,32.93Z" transform="translate(-60.972 -264.554)"/>
            </g>
          </g>
        </g>
        <g id="Grupo_1101161" data-name="Grupo 1101161" transform="translate(49.133 277.119)" opacity="0.3">
          <g id="Grupo_1101160" data-name="Grupo 1101160">
            <g id="Grupo_1101159" data-name="Grupo 1101159" clip-path="url(#clip-path-11)">
              <path id="Trazado_875931" data-name="Trazado 875931" d="M53.545,300.584v106.6L157.7,449.959V338.453Z" transform="translate(-53.545 -300.584)"/>
            </g>
          </g>
        </g>
        <g id="Grupo_1101164" data-name="Grupo 1101164" transform="translate(49.291 314.989)" opacity="0.2">
          <g id="Grupo_1101163" data-name="Grupo 1101163">
            <g id="Grupo_1101162" data-name="Grupo 1101162" clip-path="url(#clip-path-12)">
              <path id="Trazado_875932" data-name="Trazado 875932" d="M53.539,376.565,125.2,404.423l32.5-62.763S53,356.137,53.466,356.137s.073,20.428.073,20.428" transform="translate(-53.464 -341.66)"/>
            </g>
          </g>
        </g>
      </g>
    </g>
    <path id="Trazado_875933" data-name="Trazado 875933" d="M122.345,385.44,18.555,346.168l32.259-45.583,104.159,37.87Z" transform="translate(-1.448 -23.465)" fill="#7d6eb2"/>
    <g id="Grupo_1101171" data-name="Grupo 1101171">
      <g id="Grupo_1101170" data-name="Grupo 1101170" clip-path="url(#clip-path)">
        <g id="Grupo_1101169" data-name="Grupo 1101169" transform="translate(17.106 277.119)" opacity="0.2">
          <g id="Grupo_1101168" data-name="Grupo 1101168">
            <g id="Grupo_1101167" data-name="Grupo 1101167" clip-path="url(#clip-path-14)">
              <path id="Trazado_875934" data-name="Trazado 875934" d="M122.345,385.44,18.555,346.168l32.259-45.583,104.159,37.87Z" transform="translate(-18.554 -300.584)"/>
            </g>
          </g>
        </g>
      </g>
    </g>
    <path id="Trazado_875935" data-name="Trazado 875935" d="M199.387,383.465l-32.863-44.791,103.693-35.262,31.3,43.486Z" transform="translate(-12.999 -23.685)" fill="#7d6eb2"/>
    <g id="Grupo_1101179" data-name="Grupo 1101179">
      <g id="Grupo_1101178" data-name="Grupo 1101178" clip-path="url(#clip-path)">
        <g id="Grupo_1101174" data-name="Grupo 1101174" transform="translate(147.488 279.726)" opacity="0.2">
          <g id="Grupo_1101173" data-name="Grupo 1101173">
            <g id="Grupo_1101172" data-name="Grupo 1101172" clip-path="url(#clip-path-16)">
              <path id="Trazado_875936" data-name="Trazado 875936" d="M199.387,383.465l-32.863-44.791,103.693-35.262,31.3,43.486Z" transform="translate(-160.061 -303.411)" fill="#fff"/>
            </g>
          </g>
        </g>
        <path id="Trazado_875937" data-name="Trazado 875937" d="M241.306,302.692c-.37-3.482-4.286-6.425-7.5-5.034A12.006,12.006,0,1,0,212.255,287.3a19.655,19.655,0,0,0-18.866,5.216l3.1,8.234c2.171,5.32,7.135,9.149,12.558,11.045s11.3,2.067,17.036,1.742c3.5-.2,7.1-.606,10.15-2.321s5.445-5.039,5.076-8.521" transform="translate(-15.097 -21.818)" fill="#e0e0e0"/>
        <path id="Trazado_875938" data-name="Trazado 875938" d="M230.181,292.339a21.113,21.113,0,0,0-16.113,10.54c-2.928-6.049-12-7.941-17.1-3.568,2.626-6.724-.289-15.4-6.845-18.418-4.581-2.109-10.372-.709-13.872,2.749a62.054,62.054,0,0,1-9.038-24.3c-2.835-20.912-2.475-30.564-2.475-30.564l-13.01,1.589s-.063,28.975-3.673,41.542a41.507,41.507,0,0,1-1.609,4.543,20,20,0,0,0-15.01-3.1c-9.692,2.078-16.871,12.321-15.519,22.14a12.228,12.228,0,0,0-19.588,6.132,27.6,27.6,0,0,0-27.344-4.1l90.088,32.907,89.148-30.368c-4.312-5.094-11.4-8.366-18.042-7.721" transform="translate(-5.385 -17.859)" fill="#fff"/>
        <path id="Trazado_875939" data-name="Trazado 875939" d="M230.126,292.319s.444-.049,1.321-.1a19.811,19.811,0,0,1,3.891.309,22.291,22.291,0,0,1,6.029,2.065,22.786,22.786,0,0,1,6.873,5.386l.089.105-.131.044L159.086,330.6l-.067.023-.067-.025-90.1-32.873-.575-.21.567-.231a27.886,27.886,0,0,1,27.584,4.136l-.383.121a12.473,12.473,0,0,1,19.973-6.252l-.391.218a19.933,19.933,0,0,1,.159-5.851,20.909,20.909,0,0,1,1.858-5.5,21.163,21.163,0,0,1,3.238-4.773,19.9,19.9,0,0,1,4.353-3.722,21.442,21.442,0,0,1,2.5-1.375,19.78,19.78,0,0,1,2.69-.938,17.12,17.12,0,0,1,5.611-.61,21.241,21.241,0,0,1,10.481,3.5l-.344.105a47.219,47.219,0,0,0,3.054-11.563c.6-3.92.993-7.831,1.3-11.7.582-7.746.856-15.34.923-22.729l0-.194.19-.023,13.011-1.583.241-.03,0,.248c-.061,5.206.308,10.324.735,15.292s1,9.814,1.625,14.516a61.784,61.784,0,0,0,9.087,24.96l-.267-.032a13.531,13.531,0,0,1,9.257-3.776,11.515,11.515,0,0,1,4.742.984,12.7,12.7,0,0,1,3.8,2.731,15.246,15.246,0,0,1,3.9,7.841,17.346,17.346,0,0,1,.175,4.166,15.786,15.786,0,0,1-.909,3.894l-.2-.145a10.352,10.352,0,0,1,5.137-2.262,12.352,12.352,0,0,1,5.17.345,10.981,10.981,0,0,1,6.959,5.542l-.167,0a20.958,20.958,0,0,1,5.652-6.4,21.7,21.7,0,0,1,5.508-2.983,21.177,21.177,0,0,1,3.731-.966c.861-.112,1.3-.148,1.3-.148s-.44.07-1.3.2a22.262,22.262,0,0,0-3.7,1.01,21.788,21.788,0,0,0-5.455,3.006A20.863,20.863,0,0,0,214.1,302.9l-.088.156-.079-.16a10.787,10.787,0,0,0-6.85-5.408,12.118,12.118,0,0,0-5.072-.321A10.1,10.1,0,0,0,197,299.389l-.372.313.167-.459a15.524,15.524,0,0,0,.88-3.824,17.036,17.036,0,0,0-.183-4.093,14.954,14.954,0,0,0-3.837-7.679,12.4,12.4,0,0,0-3.709-2.655,11.189,11.189,0,0,0-4.612-.946,13.2,13.2,0,0,0-9.016,3.7l-.154.15-.113-.182a62.074,62.074,0,0,1-9.179-25.091c-.633-4.7-1.2-9.55-1.647-14.531s-.809-10.089-.753-15.344l.238.218-13.009,1.6.191-.217c-.06,7.405-.328,15-.906,22.764-.307,3.879-.7,7.8-1.3,11.738a47.654,47.654,0,0,1-3.078,11.672l-.112.258-.232-.153a20.784,20.784,0,0,0-10.248-3.419,16.647,16.647,0,0,0-5.464.6,19.25,19.25,0,0,0-2.62.914,20.834,20.834,0,0,0-2.443,1.342,19.48,19.48,0,0,0-4.253,3.638,20.707,20.707,0,0,0-3.166,4.669,20.433,20.433,0,0,0-1.814,5.378,19.445,19.445,0,0,0-.155,5.7l.074.6-.465-.385a11.994,11.994,0,0,0-19.2,6.012l-.1.354-.286-.233a27.411,27.411,0,0,0-27.1-4.068l-.008-.442,90.075,32.94-.134,0,89.182-30.266-.042.15a22.7,22.7,0,0,0-6.795-5.379,22.417,22.417,0,0,0-5.982-2.1,20.584,20.584,0,0,0-3.871-.355c-.875.034-1.322.05-1.322.05" transform="translate(-5.33 -17.839)" fill="#263238"/>
        <g id="Grupo_1101177" data-name="Grupo 1101177" transform="translate(131.383 281.854)" opacity="0.3">
          <g id="Grupo_1101176" data-name="Grupo 1101176">
            <g id="Grupo_1101175" data-name="Grupo 1101175" clip-path="url(#clip-path-17)">
              <path id="Trazado_875940" data-name="Trazado 875940" d="M168.993,306.594c-4.641-1.349-9.6-.978-14.325.033a22.944,22.944,0,0,0-7.122,3.235,12.2,12.2,0,0,0-5.039,6.461c4.8-4.49,12.946-7.493,19.426-7.5a26.262,26.262,0,0,1,17.742,7.036c-1.753-4.635-6.041-7.918-10.682-9.266" transform="translate(-142.508 -305.719)"/>
            </g>
          </g>
        </g>
        <path id="Trazado_875941" data-name="Trazado 875941" d="M142.508,316.552c-.012-.012.076-.115.252-.3s.434-.467.8-.791a23.969,23.969,0,0,1,3.275-2.529A26.382,26.382,0,0,1,173,311.408a24.087,24.087,0,0,1,3.546,2.132c.4.278.685.533.886.692s.3.257.285.27a11.425,11.425,0,0,1-1.277-.809,28.993,28.993,0,0,0-3.586-1.98,27.012,27.012,0,0,0-25.835,1.5,29.134,29.134,0,0,0-3.333,2.383,11.377,11.377,0,0,1-1.175.951" transform="translate(-11.125 -24.094)" fill="#263238"/>
        <path id="Trazado_875942" data-name="Trazado 875942" d="M113.458,287.747a3.193,3.193,0,0,0-3.539-.461,3.3,3.3,0,0,0-1.848,3.209,2.882,2.882,0,0,0,1.024,1.687,3.645,3.645,0,0,0,3.166.786,3.183,3.183,0,0,0,2.31-2.245,2.829,2.829,0,0,0-1.113-2.977" transform="translate(-8.434 -22.398)" fill="#fff"/>
        <path id="Trazado_875943" data-name="Trazado 875943" d="M188.016,251.342a3.193,3.193,0,0,0-3.539-.461,3.3,3.3,0,0,0-1.848,3.209,2.882,2.882,0,0,0,1.024,1.687,3.645,3.645,0,0,0,3.166.786,3.183,3.183,0,0,0,2.31-2.245,2.829,2.829,0,0,0-1.113-2.977" transform="translate(-14.254 -19.556)" fill="#fff"/>
        <path id="Trazado_875944" data-name="Trazado 875944" d="M188,251.329c.009-.019.292.08.643.471a2.9,2.9,0,0,1,.71,2.059,3.225,3.225,0,0,1-1.81,2.654,3.744,3.744,0,0,1-3.894-.431,3.259,3.259,0,0,1-1.22-1.737,2.747,2.747,0,0,1,.256-1.969,4.042,4.042,0,0,1,1.163-1.329,3.278,3.278,0,0,1,1.395-.651,3.033,3.033,0,0,1,2.13.449c.438.266.642.461.626.484a3.6,3.6,0,0,1-.713-.319,3.023,3.023,0,0,0-1.973-.282,3.7,3.7,0,0,0-2.235,1.849,2.329,2.329,0,0,0-.2,1.649,2.83,2.83,0,0,0,1.055,1.472,3.338,3.338,0,0,0,3.408.417,2.91,2.91,0,0,0,1.668-2.281,2.877,2.877,0,0,0-.517-1.919c-.283-.4-.524-.55-.5-.586" transform="translate(-14.234 -19.543)" fill="#263238"/>
        <path id="Trazado_875945" data-name="Trazado 875945" d="M96.579,278.515c-2.072-1.376-4.657-2.723-7.8-1.015-2.554,1.525-4.551,4.133-4.072,7.068a6.351,6.351,0,0,0,2.258,3.717,8.039,8.039,0,0,0,6.974,1.734,7.017,7.017,0,0,0,5.09-4.949,6.234,6.234,0,0,0-2.452-6.556" transform="translate(-6.607 -21.6)" fill="#fff"/>
        <path id="Trazado_875946" data-name="Trazado 875946" d="M96.559,278.5a1.552,1.552,0,0,1,.389.224,5.219,5.219,0,0,1,.941.881,6.379,6.379,0,0,1,1.448,4.451,6.92,6.92,0,0,1-3.9,5.625,8,8,0,0,1-8.286-.942,6.921,6.921,0,0,1-2.588-3.666,5.8,5.8,0,0,1,.528-4.147,8.761,8.761,0,0,1,2.473-2.86,7.077,7.077,0,0,1,2.968-1.423,5.9,5.9,0,0,1,2.716.1,8.388,8.388,0,0,1,1.884.785,11.713,11.713,0,0,1,1.083.684,1.606,1.606,0,0,1,.347.284c-.023.037-.533-.311-1.518-.8a6.671,6.671,0,0,0-4.442-.721,6.8,6.8,0,0,0-2.793,1.405,8.445,8.445,0,0,0-2.323,2.746,5.383,5.383,0,0,0-.467,3.827,6.5,6.5,0,0,0,2.423,3.4,7.6,7.6,0,0,0,7.8.928A6.6,6.6,0,0,0,99,284.035a6.342,6.342,0,0,0-1.255-4.31,10.071,10.071,0,0,0-1.185-1.222" transform="translate(-6.588 -21.587)" fill="#263238"/>
        <path id="Trazado_875947" data-name="Trazado 875947" d="M166.513,453.166a1.267,1.267,0,0,1-.024-.288c-.006-.217-.013-.5-.023-.845-.009-.775-.023-1.863-.04-3.249-.006-2.855-.016-6.929-.027-11.949.015-10.091.126-24.028.294-39.421s.323-29.308.434-39.425c.053-5.02.1-9.093.126-11.947.021-1.385.038-2.474.05-3.248.01-.35.018-.629.025-.845a1.292,1.292,0,0,1,.025-.288,1.263,1.263,0,0,1,.024.288c.006.217.014.5.023.845.009.775.023,1.863.04,3.248.006,2.855.016,6.928.027,11.949-.014,10.09-.126,24.029-.294,39.428-.169,15.379-.323,29.3-.433,39.418-.053,5.02-.1,9.093-.127,11.947-.021,1.386-.038,2.474-.05,3.249-.01.35-.018.629-.025.845a1.293,1.293,0,0,1-.025.288" transform="translate(-12.99 -26.671)" fill="#263238"/>
      </g>
    </g>
    <g id="Grupo_1101196" data-name="Grupo 1101196">
      <g id="Grupo_1101195" data-name="Grupo 1101195" clip-path="url(#clip-path)">
        <path id="Trazado_875948" data-name="Trazado 875948" d="M226.546,116.844c.336-36.439-28.527-65.5-64.467-64.912S96.727,82.539,96.391,118.978a64.025,64.025,0,0,0,36.8,59.082c-.072,7.818-.154,16.645-.154,16.645l57.038-.935s.431-9.348.635-17.688a68.135,68.135,0,0,0,35.839-59.238" transform="translate(-7.524 -4.053)" fill="#7d6eb2"/>
        <g id="Grupo_1101182" data-name="Grupo 1101182" transform="translate(107.26 67.537)" opacity="0.3">
          <g id="Grupo_1101181" data-name="Grupo 1101181">
            <g id="Grupo_1101180" data-name="Grupo 1101180" clip-path="url(#clip-path-19)">
              <path id="Trazado_875949" data-name="Trazado 875949" d="M216.323,122.948a32.175,32.175,0,0,0,.682-7.706,8.725,8.725,0,0,0-.728-3.339s.312-6.165-2.392-7.021l-1.144-.429s1.144-.771-.1-2.654-1.04-4.195-2.184-5.736c-1.118-1.506-2.247-4.14-4.727-4.018a.553.553,0,0,0,.1-.006h0a.516.516,0,0,0-.109-.012l-.043,0-.087-.007c.106-.109,1.335-1.485-1.059-4.688-2.5-3.339-2.392-4.623-5.721-5.651a19.806,19.806,0,0,1-6.345-3.168c-2.288-1.456-7.177-6.507-14.875-4.966s-5.986,7.192-6.218,10.1.543,7.791,0,10.36-.6,6.251,0,7.791,0,9.846,0,9.846V135.62S170.3,157.453,172.9,159.85s7.921,5.309,15.559,3.169,10.133-3.939,11.9-5.566c0,0,5.734-2.055,5.623-7.62a10.594,10.594,0,0,0,3.843-3.6c1.457-2.4,3.328-4.024,3.745-6.336s-.624-2.911-.624-2.911,1.247-.342,1.768-3.424,1.872-4.795,1.56-6.165a5.259,5.259,0,0,0-1.457-2.4,3.085,3.085,0,0,0,1.5-2.055" transform="translate(-120.604 -73.256)" fill="#fff"/>
              <path id="Trazado_875950" data-name="Trazado 875950" d="M162,126.679V111.822s-.6-8.3,0-9.845.543-5.223,0-7.791.231-7.449,0-10.361,1.479-8.562-6.218-10.1S143.2,77.233,140.91,78.688a19.807,19.807,0,0,1-6.345,3.168c-3.328,1.028-3.225,2.312-5.721,5.651-2.394,3.2-1.165,4.579-1.059,4.687l-.087.008-.043,0a.576.576,0,0,0-.11.011.468.468,0,0,0,.1.006c-2.48-.123-3.608,2.511-4.727,4.018-1.144,1.541-.936,3.853-2.184,5.737s-.1,2.654-.1,2.654l-1.144.428c-2.7.856-2.392,7.021-2.392,7.021a8.725,8.725,0,0,0-.728,3.339,32.164,32.164,0,0,0,.682,7.706,3.082,3.082,0,0,0,1.5,2.055,5.253,5.253,0,0,0-1.456,2.4c-.312,1.37,1.04,3.083,1.56,6.165s1.768,3.425,1.768,3.425-1.04.6-.624,2.911,2.288,3.939,3.745,6.336a10.6,10.6,0,0,0,3.843,3.6c-.111,5.565,5.623,7.62,5.623,7.62,1.768,1.627,4.264,3.425,11.9,5.566s12.958-.771,15.558-3.168S162,135.8,162,135.8Z" transform="translate(-116.342 -73.27)" fill="#fff"/>
            </g>
          </g>
        </g>
        <path id="Trazado_875951" data-name="Trazado 875951" d="M158,197.635c-.135-21.4,1.146-42.827.62-64.217-.106-4.32-.277-8.649-.739-12.938-.582-5.38-1.766-11.355-6.7-14.277a8.234,8.234,0,0,0-7.234-.76,10.6,10.6,0,0,0-5.186,5.231,27.314,27.314,0,0,0-2.263,15.843c1.474,10.632,8.318,19.806,18.376,23.311a29.62,29.62,0,0,0,29.884-6.361c7.793-7.477,12.051-20.3,8.367-30.6-1.59-4.446-5.39-9.388-10.654-8.72-5.112.649-7.612,5.823-8.749,10.348-1.315,5.233-1.594,10.812-2.024,16.157-.5,6.238-.827,12.485-1.089,18.731-.54,12.864-.776,25.731-1.32,38.6q-.18,4.262-.423,8.523c-.055.958,1.415.875,1.471-.08,1.325-22.765,1.021-45.582,3.041-68.327.445-5.013.715-10.328,2.312-15.158.775-2.348,2.007-4.851,4.122-6.258a6.373,6.373,0,0,1,7.135.044c4.54,2.97,5.953,9.123,5.941,14.321a30.239,30.239,0,0,1-4.37,15.366,27.927,27.927,0,0,1-26.747,13.408,26.352,26.352,0,0,1-22.46-17.844,28.928,28.928,0,0,1-1.1-15.027c1-5.005,4.163-12.082,10.377-10.255,5.955,1.752,7.269,8.654,7.846,14.1.4,3.779.569,7.588.679,11.393.577,19.812-.423,39.677-.577,59.507q-.024,3.009-.008,6.018c.006.96,1.477.881,1.47-.079" transform="translate(-10.632 -8.125)" fill="#fff"/>
        <path id="Trazado_875952" data-name="Trazado 875952" d="M152.3,237.463a17.172,17.172,0,0,1,3.694,3.286,3.7,3.7,0,0,0,3.017,1.412l11.477-.2a3.97,3.97,0,0,0,3.23-1.776,7.459,7.459,0,0,1,3.95-3.161Z" transform="translate(-11.889 -18.503)" fill="#455a64"/>
        <path id="Trazado_875953" data-name="Trazado 875953" d="M139.118,202.512c0,.234,2.507,18.365,3.467,25.3a8.268,8.268,0,0,0,4.689,6.5,7.607,7.607,0,0,0,3.261.671l25.105-.431s6.561-.113,8.093-5.415c1.613-5.581,4.762-27.474,4.762-27.474Z" transform="translate(-10.86 -15.743)" fill="#263238"/>
        <path id="Trazado_875954" data-name="Trazado 875954" d="M186.9,227.44l-45.59.946a1.213,1.213,0,0,1-1.237-1.234v-.138a1.293,1.293,0,0,1,1.25-1.287l45.591-.946a1.214,1.214,0,0,1,1.237,1.235v.137a1.292,1.292,0,0,1-1.25,1.287" transform="translate(-10.935 -17.547)" fill="#455a64"/>
        <path id="Trazado_875955" data-name="Trazado 875955" d="M187.494,221.219l-46.771.971a1.215,1.215,0,0,1-1.238-1.235v-.138a1.293,1.293,0,0,1,1.25-1.287l46.772-.97a1.213,1.213,0,0,1,1.237,1.234v.138a1.293,1.293,0,0,1-1.251,1.287" transform="translate(-10.889 -17.061)" fill="#455a64"/>
        <path id="Trazado_875956" data-name="Trazado 875956" d="M188.415,214.989,139.747,216a1.215,1.215,0,0,1-1.238-1.235v-.137a1.293,1.293,0,0,1,1.25-1.288l48.668-1.01a1.215,1.215,0,0,1,1.238,1.235v.138a1.293,1.293,0,0,1-1.25,1.287" transform="translate(-10.812 -16.575)" fill="#e0e0e0"/>
        <path id="Trazado_875957" data-name="Trazado 875957" d="M188.4,214.981a1.385,1.385,0,0,0,.913-.487,1.421,1.421,0,0,0,.246-1.2,1.154,1.154,0,0,0-1.246-.885l-11.3.3-37.27.837a1.071,1.071,0,0,0-.921.584,1.319,1.319,0,0,0,0,1.12,1.01,1.01,0,0,0,.914.527l1.334-.028,5.235-.105,9.9-.193,16.755-.3,11.3-.167,3.07-.023.8,0a1.283,1.283,0,0,1,.272.017,1.31,1.31,0,0,1-.273.028l-.8.038-3.072.1-11.3.3-16.756.394-9.9.219-5.235.112-1.334.029a1.424,1.424,0,0,1-1.285-.742,1.523,1.523,0,0,1-.173-.759,1.584,1.584,0,0,1,.168-.766,1.508,1.508,0,0,1,1.3-.822l37.27-.711,11.3-.166a1.29,1.29,0,0,1,1.366,1.021,1.512,1.512,0,0,1-.3,1.289,1.279,1.279,0,0,1-.7.418.817.817,0,0,1-.275.015" transform="translate(-10.794 -16.568)" fill="#263238"/>
        <path id="Trazado_875958" data-name="Trazado 875958" d="M132.941,190.691c0,.471.936,11.587,1.422,17.292a6.683,6.683,0,0,0,3.03,5.079l2.546,1.636,48.541-.833,2.539-1.7a7.127,7.127,0,0,0,3.124-5.257l1.588-17.295Z" transform="translate(-10.378 -14.802)" fill="#455a64"/>
        <g id="Grupo_1101185" data-name="Grupo 1101185" transform="translate(131.199 209.856)" opacity="0.3">
          <g id="Grupo_1101184" data-name="Grupo 1101184">
            <g id="Grupo_1101183" data-name="Grupo 1101183" clip-path="url(#clip-path-20)">
              <path id="Trazado_875959" data-name="Trazado 875959" d="M142.308,228.455a72.03,72.03,0,0,0,15.588.872c4.467-.095,8.846-.054,13.7-.232,3.553-.13,6.824-.355,10.368-.56a10.425,10.425,0,0,0,4.125-.909Z" transform="translate(-142.308 -227.625)"/>
            </g>
          </g>
        </g>
        <g id="Grupo_1101188" data-name="Grupo 1101188" transform="translate(131.247 204.173)" opacity="0.3">
          <g id="Grupo_1101187" data-name="Grupo 1101187">
            <g id="Grupo_1101186" data-name="Grupo 1101186" clip-path="url(#clip-path-20)">
              <path id="Trazado_875960" data-name="Trazado 875960" d="M142.36,222.29a72.091,72.091,0,0,0,15.588.873c4.467-.1,8.846-.055,13.7-.233,3.554-.13,6.826-.355,10.37-.56a10.445,10.445,0,0,0,4.125-.908Z" transform="translate(-142.36 -221.461)"/>
            </g>
          </g>
        </g>
        <path id="Trazado_875961" data-name="Trazado 875961" d="M193.105,210.96c0,.119-12.985.438-29,.713s-29,.4-29,.284,12.983-.438,29-.714,28.995-.4,28.994-.283" transform="translate(-10.547 -16.465)" fill="#263238"/>
        <path id="Trazado_875962" data-name="Trazado 875962" d="M195.345,189.263c0,.131-14.1.537-31.49.9s-31.5.56-31.506.429,14.094-.537,31.493-.9,31.5-.56,31.5-.429" transform="translate(-10.332 -14.771)" fill="#263238"/>
        <g id="Grupo_1101191" data-name="Grupo 1101191" transform="translate(141.119 54.356)" opacity="0.2">
          <g id="Grupo_1101190" data-name="Grupo 1101190">
            <g id="Grupo_1101189" data-name="Grupo 1101189" clip-path="url(#clip-path-22)">
              <path id="Trazado_875963" data-name="Trazado 875963" d="M153.069,71.789c-.062-2.8,1.776-5.72,4.44-8.084a19.359,19.359,0,0,1,13.809-4.722c14.676.7,24.772,5.123,34.853,16.658,3.415,3.907,7.422,11.13,7.148,16.664a10.351,10.351,0,0,1-3.371,7.328c-5.478,4.782-13.142,1.014-17.646-3.911-4.2-4.59-7.542-10.431-13.258-12.854-4.709-2-10.122-1.254-15.209-1.949s-10.65-3.915-10.765-9.132" transform="translate(-153.068 -58.959)" fill="#fff"/>
            </g>
          </g>
        </g>
        <g id="Grupo_1101194" data-name="Grupo 1101194" transform="translate(193.684 102.368)" opacity="0.2">
          <g id="Grupo_1101193" data-name="Grupo 1101193">
            <g id="Grupo_1101192" data-name="Grupo 1101192" clip-path="url(#clip-path-23)">
              <path id="Trazado_875964" data-name="Trazado 875964" d="M210.36,117.584c1.446-4.339,6.655-7.171,10.156-6.431a9.582,9.582,0,0,1,6.561,5.53,9.4,9.4,0,0,1-2.144,10.091,8.539,8.539,0,0,1-10,1.259c-3.054-1.846-5.734-6.969-4.574-10.449" transform="translate(-210.084 -111.036)" fill="#fff"/>
            </g>
          </g>
        </g>
      </g>
    </g>
  </g>
</svg>
