<svg xmlns="http://www.w3.org/2000/svg" xmlns:xlink="http://www.w3.org/1999/xlink" width="78.501" height="74.824" viewBox="0 0 78.501 74.824">
  <defs>
    <clipPath id="clip-path">
      <rect id="Rectángulo_402190" data-name="Rectángulo 402190" width="64" height="64" transform="translate(1027 6790)" fill="#fff" stroke="#707070" stroke-width="1"/>
    </clipPath>
  </defs>
  <g id="Grupo_1101515" data-name="Grupo 1101515" transform="translate(-1020 -6790)">
    <g id="Grupo_1101514" data-name="Grupo 1101514">
      <path id="_12068" data-name="12068" d="M72.033,71.913c-8.038-1.11-16.53-.839-23.844,2.675C38.045,79.46,31.382,90.507,31.127,101.757s5.606,22.305,14.66,28.988,21,9.051,32.068,7.045c11.165-2.023,21.645-8.583,27.469-18.322,3.735-6.245,5.48-13.956,3.417-20.934a28.6,28.6,0,0,0-6.787-11.156A50.145,50.145,0,0,0,72.033,71.913Z" transform="translate(988.881 6726.343)" fill="#26aab7"/>
      <g id="Enmascarar_grupo_1098763" data-name="Enmascarar grupo 1098763" clip-path="url(#clip-path)">
        <g id="idea-genial_2_" data-name="idea-genial (2)" transform="translate(1027 6790)">
          <g id="Grupo_1101329" data-name="Grupo 1101329">
            <path id="Trazado_876528" data-name="Trazado 876528" d="M31.5,24.984a5.132,5.132,0,0,1-9.138-1.995c-.223-1.049,0-.8-1.042-1.219A4.024,4.024,0,0,1,18.8,18.032a4.137,4.137,0,0,1,2.516-3.738c.5-.22.429-.386.007-.6A4.232,4.232,0,0,1,18.8,9.96,4.057,4.057,0,0,1,21.34,6.212c.967-.393.8-.159,1.013-1.18A5.13,5.13,0,0,1,31.492,3c.337.439.656.486,1.01,0A5.133,5.133,0,0,1,41.64,5c.213,1.024,0,.794,1.045,1.223a4.034,4.034,0,0,1,.014,7.469c-.464.191-.486.408,0,.613a4.032,4.032,0,0,1-.011,7.462c-.957.393-.815.184-1.052,1.226a5.164,5.164,0,0,1-5.018,4.061,5.084,5.084,0,0,1-4.11-2.059c-.368-.5-.656-.5-1.017-.011Z" fill="#fff0af" fill-rule="evenodd"/>
            <path id="Trazado_876529" data-name="Trazado 876529" d="M35.1,1.166A5.142,5.142,0,0,1,41.64,5c.213,1.024,0,.794,1.045,1.223a4.034,4.034,0,0,1,.014,7.469c-.464.191-.486.408,0,.613a4.032,4.032,0,0,1-.011,7.462c-.957.393-.815.184-1.052,1.226A5.146,5.146,0,0,1,35.1,26.827a5.208,5.208,0,0,0,3.508-3.834c.237-1.042.1-.833,1.052-1.226a4.032,4.032,0,0,0,.011-7.462c-.489-.206-.468-.422,0-.613a4.034,4.034,0,0,0-.014-7.469c-1.045-.429-.833-.2-1.045-1.223a5.111,5.111,0,0,0-3.5-3.834Z" fill="#ffe07d" fill-rule="evenodd"/>
            <path id="Trazado_876530" data-name="Trazado 876530" d="M31.5,60.992A5.13,5.13,0,0,1,22.357,59c-.223-1.045,0-.8-1.042-1.215A4.031,4.031,0,0,1,18.8,54.043a4.129,4.129,0,0,1,2.516-3.738c.5-.22.429-.39.007-.6A4.233,4.233,0,0,1,18.8,45.968a4.061,4.061,0,0,1,2.541-3.749c.967-.39.8-.156,1.013-1.18a5.13,5.13,0,0,1,9.138-2.027c.337.443.656.486,1.01,0a5.132,5.132,0,0,1,9.138,1.995c.213,1.021,0,.794,1.045,1.219A4.034,4.034,0,0,1,42.7,49.7c-.464.195-.486.408,0,.613a4.035,4.035,0,0,1-.011,7.466c-.957.39-.815.184-1.052,1.226a5.168,5.168,0,0,1-5.018,4.061A5.087,5.087,0,0,1,32.512,61c-.368-.5-.656-.5-1.017-.011Z" fill="#e27f84" fill-rule="evenodd"/>
            <path id="Trazado_876531" data-name="Trazado 876531" d="M35.1,37.173a5.257,5.257,0,0,1,1.52-.227,5.119,5.119,0,0,1,5.017,4.064c.213,1.021,0,.794,1.045,1.219A4.034,4.034,0,0,1,42.7,49.7c-.464.195-.486.408,0,.613a4.035,4.035,0,0,1-.011,7.466c-.957.39-.815.184-1.052,1.226a5.134,5.134,0,0,1-6.541,3.83A5.2,5.2,0,0,0,38.606,59c.237-1.042.1-.836,1.052-1.226a4.035,4.035,0,0,0,.011-7.466c-.489-.206-.468-.418,0-.613a4.034,4.034,0,0,0-.014-7.469c-1.045-.425-.833-.2-1.045-1.219a5.116,5.116,0,0,0-3.5-3.838Z" fill="#c9646d" fill-rule="evenodd"/>
          </g>
          <path id="Trazado_876532" data-name="Trazado 876532" d="M19.937,14a4.978,4.978,0,0,1,1.439-8.791A6.063,6.063,0,0,1,32,2.14,6.116,6.116,0,0,1,33.4.928a6.064,6.064,0,0,1,9.223,4.277A4.971,4.971,0,0,1,44.063,14a4.979,4.979,0,0,1-1.439,8.791A6.06,6.06,0,0,1,33.4,27.064,6.123,6.123,0,0,1,32,25.852a6.064,6.064,0,0,1-10.623-3.065A4.968,4.968,0,0,1,19.937,14ZM51.462,49.068h5.971V21.278a.939.939,0,0,1,1.878,0V50a.938.938,0,0,1-.939.939H51.462l.333.33A.937.937,0,0,1,50.47,52.6L48.539,50.67a.937.937,0,0,1,0-1.329l1.931-1.928A.937.937,0,0,1,51.8,48.739ZM59.31,17.029a.939.939,0,0,1-1.878,0V14.935H49.2a.939.939,0,0,1,0-1.878h9.17A.941.941,0,0,1,59.31,14ZM12.535,14.935H6.564V42.726a.937.937,0,0,1-1.875,0V14a.941.941,0,0,1,.939-.939h6.906l-.33-.33A.937.937,0,1,1,13.53,11.4l1.931,1.931a.939.939,0,0,1,0,1.325L13.53,16.59a.937.937,0,1,1-1.325-1.325ZM4.69,46.971a.937.937,0,0,1,1.874,0v2.1H14.8a.937.937,0,0,1,0,1.874H5.629A.938.938,0,0,1,4.69,50ZM28.639,55.6a.937.937,0,1,1,0,1.874,4.2,4.2,0,0,1-3.5-6.53h-2.3a3.1,3.1,0,0,0-.454,6.169.933.933,0,0,1,.8.967A4.2,4.2,0,0,0,29.6,61.491a4.248,4.248,0,0,0,1.556-1.733.934.934,0,0,1,1.683,0,4.2,4.2,0,0,0,7.976-1.74.943.943,0,0,1,.875-.921,3.1,3.1,0,0,0-.532-6.155H34.124a.937.937,0,1,1,0-1.874h7.037a3.1,3.1,0,0,0,.528-6.155.942.942,0,0,1-.872-.921,4.2,4.2,0,0,0-7.976-1.74.934.934,0,0,1-1.683,0A4.248,4.248,0,0,0,29.6,38.52a4.2,4.2,0,0,0-6.421,3.412.933.933,0,0,1-.8.967,3.1,3.1,0,0,0,.454,6.169h2.3a4.2,4.2,0,0,1,3.5-6.53.937.937,0,1,1,0,1.874,2.328,2.328,0,0,0,0,4.656h1.237a.937.937,0,1,1,0,1.874H28.639a2.328,2.328,0,0,0,0,4.656Zm0-36.011a.937.937,0,1,1,0,1.874,4.2,4.2,0,0,1-3.5-6.527h-2.3a3.1,3.1,0,0,0-.454,6.166.936.936,0,0,1,.8.967A4.2,4.2,0,0,0,29.6,25.48a4.248,4.248,0,0,0,1.556-1.733.934.934,0,0,1,1.683,0,4.2,4.2,0,0,0,7.976-1.74.942.942,0,0,1,.84-.914,3.1,3.1,0,0,0-.5-6.159H34.124a.939.939,0,0,1,0-1.878h7.037A3.1,3.1,0,0,0,41.679,6.9a.94.94,0,0,1-.861-.918,4.2,4.2,0,0,0-7.976-1.74.934.934,0,0,1-1.683,0A4.248,4.248,0,0,0,29.6,2.512a4.2,4.2,0,0,0-6.421,3.412.936.936,0,0,1-.8.967,3.1,3.1,0,0,0,.454,6.165h2.3a4.2,4.2,0,0,1,3.5-6.527.937.937,0,1,1,0,1.874,2.326,2.326,0,1,0,0,4.652h1.237a.939.939,0,0,1,0,1.878H28.639a2.326,2.326,0,0,0,0,4.653Zm7.289,39.728a.937.937,0,0,1,0-1.874,1.062,1.062,0,0,0,.744-.308,1.052,1.052,0,0,0,0-1.488,1.058,1.058,0,0,0-.744-.3.939.939,0,0,1,0-1.878,2.927,2.927,0,0,1,0,5.854Zm0-36.011a.937.937,0,0,1,0-1.874,1.051,1.051,0,1,0,0-2.1.937.937,0,0,1,0-1.874,2.925,2.925,0,1,1,0,5.85Zm0,23.241a.937.937,0,0,1,0-1.874,1.047,1.047,0,0,0,.744-.308,1.033,1.033,0,0,0,.308-.741,1.047,1.047,0,0,0-.308-.744,1.061,1.061,0,0,0-.744-.308.937.937,0,0,1,0-1.874,2.925,2.925,0,1,1,0,5.85Zm0-36.007a.937.937,0,0,1,0-1.874A1.053,1.053,0,0,0,36.98,7.611a1.032,1.032,0,0,0-.308-.74,1.047,1.047,0,0,0-.744-.308.937.937,0,0,1,0-1.875,2.925,2.925,0,1,1,0,5.85ZM44.063,50a4.979,4.979,0,0,1-1.439,8.791A6.068,6.068,0,0,1,32,61.86a5.942,5.942,0,0,1-1.4,1.212,6.064,6.064,0,0,1-9.223-4.277A4.968,4.968,0,0,1,19.937,50a4.974,4.974,0,0,1,1.438-8.787A6.065,6.065,0,0,1,30.6,36.936,6.116,6.116,0,0,1,32,38.147a6.206,6.206,0,0,1,1.4-1.212,6.067,6.067,0,0,1,9.223,4.281A4.968,4.968,0,0,1,44.063,50Z"/>
        </g>
      </g>
    </g>
  </g>
</svg>
