<svg xmlns="http://www.w3.org/2000/svg" xmlns:xlink="http://www.w3.org/1999/xlink" width="78.501" height="74.824" viewBox="0 0 78.501 74.824">
  <defs>
    <clipPath id="clip-path">
      <rect id="Rectángulo_401173" data-name="Rectángulo 401173" width="64" height="64" transform="translate(416.804 7877.863)" fill="#fff" stroke="#707070" stroke-width="1"/>
    </clipPath>
  </defs>
  <g id="Grupo_1101460" data-name="Grupo 1101460" transform="translate(-409.803 -7877.863)">
    <path id="_12068" data-name="12068" d="M72.033,71.913c-8.038-1.11-16.53-.839-23.844,2.675C38.045,79.46,31.382,90.507,31.127,101.757s5.606,22.305,14.66,28.988,21,9.051,32.068,7.045c11.165-2.023,21.645-8.583,27.469-18.322,3.735-6.245,5.48-13.956,3.417-20.934a28.6,28.6,0,0,0-6.787-11.156A50.145,50.145,0,0,0,72.033,71.913Z" transform="translate(378.684 7814.206)" fill="#26aab7"/>
    <g id="Enmascarar_grupo_1098775" data-name="Enmascarar grupo 1098775" clip-path="url(#clip-path)">
      <g id="ventas" transform="translate(416.8 7877.859)">
        <path id="Trazado_877904" data-name="Trazado 877904" d="M41.371,10.984h0l-.008,0Zm-.145,37.09h0l-.017-.006Zm-.351-.146c-15.633-6.536-15.531-9.22-30.9-9.22-12.114,0-12.114-18.314,0-18.314,15.272,0,15.4-2.692,30.751-9.142-2.969,1.681-5.208,9.234-5.208,18.3,0,9.213,2.313,16.866,5.355,18.377Z" fill="#77cedb" fill-rule="evenodd"/>
        <path id="Trazado_877905" data-name="Trazado 877905" d="M12.437,38.735l3.61,13.879,5.607.492L19.135,39.238a55.284,55.284,0,0,0-6.7-.5Z" fill="#77cedb" fill-rule="evenodd"/>
        <ellipse id="Elipse_11665" data-name="Elipse 11665" cx="6.457" cy="18.648" rx="6.457" ry="18.648" transform="translate(35.519 10.903)" fill="#fcb13c"/>
        <path id="Trazado_877906" data-name="Trazado 877906" d="M41.979,47.3c1.361,0,2.683-1.856,3.723-4.857,2.462-7.109,2.462-18.684,0-25.791-1.039-3-2.362-4.857-3.723-4.857-1.9,0-3.294,3.619-3.723,4.857a34.385,34.385,0,0,0-1.548,7.379h5.886a2.839,2.839,0,0,1,2.417,1.854,9.169,9.169,0,0,1,0,7.325,2.839,2.839,0,0,1-2.417,1.854H36.709a34.368,34.368,0,0,0,1.548,7.379C38.7,43.719,40.084,47.3,41.979,47.3ZM16.9,39.873l.99,4.475,1.413.792-.927-5.1c-.472-.063-.963-.118-1.476-.166Zm5.621,12.995A.9.9,0,0,1,21.578,54l-5.607-.492v0a.893.893,0,0,1-.787-.666L11.745,39.617c-.566-.009-1.153-.013-1.767-.013-13.3,0-13.3-20.106,0-20.106,11.052,0,14.028-1.434,20.85-4.717,1.726-.831,9.3-4.774,11.15-4.774,2.206,0,4.112,2.318,5.41,6.068,2.6,7.509,2.6,19.444,0,26.954-1.3,3.748-3.2,6.068-5.41,6.068-1.971,0-9.377-3.9-11.306-4.827-4-1.928-6.647-3.207-10.431-3.93l2.277,12.529Zm-2.8-5.445.851,4.687-3.815-.334L13.6,39.664q.745.027,1.435.068l1.192,5.393a.894.894,0,0,0,.435.586v0ZM30.807,33.506a28.807,28.807,0,0,0,.785,7,17.543,17.543,0,0,0,.869,2.637l-1.011-.488c-5.494-2.651-8.543-4.122-15.094-4.634a5.77,5.77,0,0,1-2.806-1.258A5.569,5.569,0,0,1,11.912,34.1a.893.893,0,0,0-1.709.518,7.468,7.468,0,0,0,1.868,3.217c-.666-.012-1.362-.018-2.093-.018-10.924,0-10.925-16.522,0-16.522,1.216,0,2.336-.017,3.378-.051A9.561,9.561,0,0,0,11.392,23.6,13.465,13.465,0,0,0,9.771,30.83a.893.893,0,0,0,1.786-.035,11.743,11.743,0,0,1,1.376-6.282,8.384,8.384,0,0,1,4.239-3.505c6.046-.577,9.113-2.055,14.434-4.616q.7-.338,1.462-.7a18.9,18.9,0,0,0-1.214,3.5A40.5,40.5,0,0,0,30.8,28.883a.893.893,0,0,0,1.786-.006,38.624,38.624,0,0,1,1-9.248c.591-2.358,1.425-4.249,2.491-5.21a.88.88,0,0,0,.181-.224q.664-.3,1.377-.623a17.942,17.942,0,0,0-1.07,2.507c-2.6,7.509-2.6,19.444,0,26.954a17.976,17.976,0,0,0,1.084,2.533c-.833-.371-1.614-.728-2.35-1.07q-.017-.025-.038-.05a11.421,11.421,0,0,1-1.938-4.368,27.068,27.068,0,0,1-.735-6.561.893.893,0,0,0-1.786-.01Zm22.1,8.731a.9.9,0,1,1,.462-1.729l8.043,2.156a.9.9,0,1,1-.462,1.729ZM52.85,19.59a.9.9,0,1,1-.462-1.729l8.47-2.27a.9.9,0,1,1,.462,1.729Zm.887,10.62a.9.9,0,1,1,0-1.792h9.371a.9.9,0,0,1,0,1.792ZM40.209,33.275H36.547a52.8,52.8,0,0,1,0-7.449h3.661l-.031.061a9.169,9.169,0,0,0,0,7.325Zm3.2-6.6a7.456,7.456,0,0,1,0,5.743c-.261.527-.553.853-.814.853s-.553-.326-.814-.853a7.456,7.456,0,0,1,0-5.743c.261-.527.553-.853.814-.853s.553.326.814.853Z" fill="#010101" fill-rule="evenodd"/>
      </g>
    </g>
  </g>
</svg>
