<svg xmlns="http://www.w3.org/2000/svg" xmlns:xlink="http://www.w3.org/1999/xlink" width="78.501" height="70.574" viewBox="0 0 78.501 70.574">
  <defs>
    <clipPath id="clip-path">
      <rect id="Rectángulo_401729" data-name="Rectángulo 401729" width="59" height="59" transform="translate(406 8035)" fill="#fff" stroke="#707070" stroke-width="1"/>
    </clipPath>
  </defs>
  <g id="Grupo_1101334" data-name="Grupo 1101334" transform="translate(-396.499 -8035)">
    <path id="_12068" data-name="12068" d="M72.033,71.913c-8.038-1.11-16.53-.839-23.844,2.675C38.045,79.46,31.382,90.507,31.127,101.757s5.606,22.305,14.66,28.988,21,9.051,32.068,7.045c11.165-2.023,21.645-8.583,27.469-18.322,3.735-6.245,5.48-13.956,3.417-20.934a28.6,28.6,0,0,0-6.787-11.156A50.145,50.145,0,0,0,72.033,71.913Z" transform="translate(365.38 7967.093)" fill="#7d6eb2"/>
    <g id="Enmascarar_grupo_1098765" data-name="Enmascarar grupo 1098765" clip-path="url(#clip-path)">
      <g id="experiencia" transform="translate(406 8035)">
        <g id="Grupo_1101331" data-name="Grupo 1101331">
          <path id="Trazado_876533" data-name="Trazado 876533" d="M11.109,26.851H7.442v2.218A1.657,1.657,0,0,0,9.1,30.725h.354a1.657,1.657,0,0,0,1.657-1.657V26.851Z" fill="#a59ca6"/>
          <path id="Trazado_876534" data-name="Trazado 876534" d="M35.287,42.343l.224.034A6.252,6.252,0,0,0,42.2,33.71L40.32,29.385a5.234,5.234,0,0,1-.379-1.337,10.554,10.554,0,0,0-20.893,0,5.234,5.234,0,0,1-.379,1.337L16.794,33.71a6.252,6.252,0,0,0,6.685,8.667l.224-.034,3.6-.865h4.86Z" fill="#a59ca6"/>
          <path id="Trazado_876535" data-name="Trazado 876535" d="M32.168,47.3l4.96,1.99a7.255,7.255,0,0,1,4.553,6.733V57.1a1.039,1.039,0,0,1-1.039,1.039H18.117A1.039,1.039,0,0,1,17.078,57.1V56.024a7.255,7.255,0,0,1,4.553-6.733l4.96-1.99,1.521-.611h2.6Z" fill="#e79098"/>
          <path id="Trazado_876536" data-name="Trazado 876536" d="M32.168,47.3l-.024-.01-.323.039-4.656,1.624V47.071l-.574.231-4.96,1.99a7.254,7.254,0,0,0-4.553,6.733V57.1a1.039,1.039,0,0,0,1.039,1.039h1.75v-.845a7.254,7.254,0,0,1,4.553-6.733l.42-.169a1.445,1.445,0,0,1,1.508.256,4.513,4.513,0,0,0,7.5-2.671Z" fill="#e17983"/>
          <path id="Trazado_876537" data-name="Trazado 876537" d="M32.168,47.3a2.789,2.789,0,1,1-5.577,0V40.626h5.577Z" fill="#ffd1c2"/>
          <g id="Grupo_1101330" data-name="Grupo 1101330">
            <path id="Trazado_876538" data-name="Trazado 876538" d="M36.391,30.318v7.951a6.9,6.9,0,0,1-13.792,0V32.285a8.1,8.1,0,0,1,1.777-5.065.577.577,0,0,1,.814-.087l.322.262a8.455,8.455,0,0,0,5.113,1.894l4.888.129A.9.9,0,0,1,36.391,30.318Z" fill="#ffe0d1"/>
            <path id="Trazado_876539" data-name="Trazado 876539" d="M23.593,28.867l.433.318a12.122,12.122,0,0,0,6.875,2.3l5.491.131v-1.3a.9.9,0,0,0-.877-.9l-4.888-.129A8.456,8.456,0,0,1,25.512,27.4l-.322-.262a.577.577,0,0,0-.814.087,8.11,8.11,0,0,0-.972,1.546.792.792,0,0,1,.188.1Z" fill="#ffd1c2"/>
            <path id="Trazado_876540" data-name="Trazado 876540" d="M15.309,18.638a6.067,6.067,0,0,0-8.438-5.568A5.566,5.566,0,0,0,3.722,16.2a6.153,6.153,0,0,0,.619,5.912l2.9,4.519V27.5a.385.385,0,0,0,.385.385h3.292a.385.385,0,0,0,.385-.385V26.63l2.9-4.519A6.007,6.007,0,0,0,15.309,18.638Z" fill="#fbe88c"/>
            <path id="Trazado_876541" data-name="Trazado 876541" d="M9.817,27.5V26.63l-2.9-4.519A6.153,6.153,0,0,1,6.3,16.2a5.566,5.566,0,0,1,3.149-3.128,6.929,6.929,0,0,1,1.107-.331,6.361,6.361,0,0,0-3.68.331A5.566,5.566,0,0,0,3.722,16.2a6.153,6.153,0,0,0,.619,5.912l2.9,4.519V27.5a.385.385,0,0,0,.385.385H10.2A.385.385,0,0,1,9.817,27.5Z" fill="#f9de58"/>
            <path id="Trazado_876542" data-name="Trazado 876542" d="M9.984,21.841H8.567a.859.859,0,0,1-.859-.859V19.565a.859.859,0,0,1,.859-.859H9.984a.859.859,0,0,1,.859.859v1.418A.859.859,0,0,1,9.984,21.841Z" fill="#f9de58"/>
            <circle id="Elipse_11653" data-name="Elipse 11653" cx="6.807" cy="6.807" r="6.807" transform="translate(22.573 0.864)" fill="#b3e5ee"/>
            <path id="Trazado_876543" data-name="Trazado 876543" d="M25.545,7.257a6.812,6.812,0,0,1,4.4-6.37c-.187-.015-.377-.023-.568-.023A6.807,6.807,0,1,0,31.785,14.04,6.807,6.807,0,0,1,25.545,7.257Z" fill="#86d7e5"/>
            <path id="Trazado_876544" data-name="Trazado 876544" d="M49.494,12.875l1.694,3.433a.484.484,0,0,0,.364.265l3.789.551a.484.484,0,0,1,.268.825l-2.742,2.672a.484.484,0,0,0-.139.428l.647,3.773a.484.484,0,0,1-.7.51l-3.389-1.782a.484.484,0,0,0-.45,0l-3.389,1.782a.484.484,0,0,1-.7-.51l.647-3.773a.484.484,0,0,0-.139-.428l-2.742-2.672a.484.484,0,0,1,.268-.825l3.789-.551a.484.484,0,0,0,.364-.265l1.694-3.433a.484.484,0,0,1,.868,0Z" fill="#fbe88c"/>
            <path id="Trazado_876545" data-name="Trazado 876545" d="M53.377,24.823l-.07-.409-3.98-2.093a.57.57,0,0,0-.531,0l-1.886.991a.348.348,0,0,1-.5-.367l.4-2.312a.587.587,0,0,0-.169-.519l-1.546-1.507a.493.493,0,0,1,.273-.842l2.133-.31a.549.549,0,0,0,.414-.3l1.85-3.749-.263-.532a.484.484,0,0,0-.868,0l-1.694,3.433a.484.484,0,0,1-.364.265l-3.789.551a.484.484,0,0,0-.268.826l2.742,2.672a.484.484,0,0,1,.139.428l-.647,3.773a.484.484,0,0,0,.7.51l3.389-1.782a.484.484,0,0,1,.45,0l3.389,1.782a.484.484,0,0,0,.7-.51Z" fill="#f9de58"/>
          </g>
        </g>
        <g id="Grupo_1101332" data-name="Grupo 1101332">
          <path id="Trazado_876546" data-name="Trazado 876546" d="M41.113,29.041a4.362,4.362,0,0,1-.316-1.116,11.432,11.432,0,0,0-.821-2.9.864.864,0,1,0-1.586.685,9.7,9.7,0,0,1,.7,2.465,6.1,6.1,0,0,0,.441,1.558L41.4,34.054a5.388,5.388,0,0,1-4.894,7.532,7.713,7.713,0,0,0,.746-3.316V30.318a1.755,1.755,0,0,0-1.718-1.764l-4.888-.129a7.632,7.632,0,0,1-4.591-1.7l-.322-.262a1.441,1.441,0,0,0-2.034.217,9,9,0,0,0-1.967,5.6v5.984a7.713,7.713,0,0,0,.746,3.316,5.388,5.388,0,0,1-4.894-7.532l1.876-4.325a6.105,6.105,0,0,0,.441-1.558,9.689,9.689,0,0,1,16.53-5.383.864.864,0,1,0,1.237-1.206,11.418,11.418,0,0,0-19.478,6.343,4.362,4.362,0,0,1-.316,1.116L16,33.366a7.12,7.12,0,0,0,6.489,9.951,7.375,7.375,0,0,0,1.051-.077,7.815,7.815,0,0,0,2.185,1.81v1.667L21.309,48.49a8.081,8.081,0,0,0-5.1,7.535v2.112a.864.864,0,0,0,1.728,0V56.024a6.361,6.361,0,0,1,4.011-5.931l3.977-1.6a3.652,3.652,0,0,0,6.9,0l3.977,1.6c.1.042.215.09.347.153a.864.864,0,1,0,.736-1.564c-.164-.077-.3-.138-.44-.193l-4.418-1.772V45.172a7.809,7.809,0,0,0,2.416-1.932,7.356,7.356,0,0,0,1.051.077,7.12,7.12,0,0,0,6.489-9.951ZM31.3,47.3a1.925,1.925,0,0,1-3.849,0V45.755a7.723,7.723,0,0,0,3.849.059Zm-1.809-3a6.039,6.039,0,0,1-6.032-6.032V32.285a7.27,7.27,0,0,1,1.411-4.295l.093.075A9.369,9.369,0,0,0,30.6,30.152l4.888.129a.037.037,0,0,1,.036.037v7.951A6.039,6.039,0,0,1,29.495,44.3Z"/>
          <path id="Trazado_876547" data-name="Trazado 876547" d="M39.848,51.128a.864.864,0,0,0-.206,1.2,6.357,6.357,0,0,1,1.176,3.692v2.112a.864.864,0,0,0,1.728,0V56.024a8.075,8.075,0,0,0-1.494-4.69.864.864,0,0,0-1.2-.206Z"/>
          <path id="Trazado_876548" data-name="Trazado 876548" d="M13.163,12.94a7.018,7.018,0,0,0-6.606-.674A6.441,6.441,0,0,0,2.919,15.88,7.356,7.356,0,0,0,2.4,19.145a.864.864,0,0,0,1.724-.125,5.642,5.642,0,0,1,.4-2.5,4.708,4.708,0,0,1,2.66-2.641,5.315,5.315,0,0,1,5,.491A5.17,5.17,0,0,1,13.5,21.612l-.021.031-2.9,4.519a.865.865,0,0,0-.137.467v.394h-.3V22.7a1.725,1.725,0,0,0,1.568-1.715V19.565a1.725,1.725,0,0,0-1.723-1.723H8.567a1.725,1.725,0,0,0-1.723,1.723v1.418A1.725,1.725,0,0,0,8.412,22.7v4.326h-.3V26.63a.865.865,0,0,0-.137-.467L5.33,22.05a.864.864,0,1,0-1.454.934l2.5,3.9V27.5a1.24,1.24,0,0,0,.2.671v.895A2.524,2.524,0,0,0,9.1,31.589h.354a2.524,2.524,0,0,0,2.521-2.521v-.895a1.24,1.24,0,0,0,.2-.671v-.619l2.756-4.291a6.9,6.9,0,0,0-1.764-9.653ZM9.98,19.565l.006,1.413-.663,0-.046,0-.053,0-.651,0,0-1.413Zm.266,9.5a.794.794,0,0,1-.793.793H9.1a.794.794,0,0,1-.793-.793v-.317h1.94Z"/>
          <path id="Trazado_876549" data-name="Trazado 876549" d="M29.38,15.341a7.671,7.671,0,1,0-7.671-7.671,7.679,7.679,0,0,0,7.671,7.671Zm0-13.613a5.943,5.943,0,1,1-5.943,5.943A5.949,5.949,0,0,1,29.38,1.728Z"/>
          <path id="Trazado_876550" data-name="Trazado 876550" d="M27.86,10.554a.864.864,0,0,0,1.222,0l4.037-4.037A.864.864,0,0,0,31.9,5.3L28.472,8.721,27.89,8.14a.864.864,0,1,0-1.222,1.222Z"/>
          <path id="Trazado_876551" data-name="Trazado 876551" d="M56.554,17.186a1.34,1.34,0,0,0-1.088-.918l-3.591-.522-1.606-3.254a1.348,1.348,0,0,0-2.418,0l-1.606,3.254-3.591.522a1.348,1.348,0,0,0-.747,2.3l2.6,2.533-.613,3.577A1.348,1.348,0,0,0,45.849,26.1l3.212-1.689L52.272,26.1a1.348,1.348,0,0,0,1.956-1.421L53.615,21.1l2.6-2.533a1.34,1.34,0,0,0,.341-1.382ZM52.265,20a1.348,1.348,0,0,0-.388,1.193l.517,3.014-2.707-1.423a1.348,1.348,0,0,0-1.255,0L45.726,24.21l.517-3.015A1.348,1.348,0,0,0,45.855,20l-2.19-2.135,3.027-.44a1.348,1.348,0,0,0,1.015-.737l1.354-2.743,1.353,2.742a1.348,1.348,0,0,0,1.015.738l3.026.44Z"/>
          <path id="Trazado_876552" data-name="Trazado 876552" d="M38.542,11.083a25.154,25.154,0,0,1,3.813,1.876.863.863,0,0,0,.614,1.609l1.637-.488a.864.864,0,0,0,.617-.828v-1.77a.864.864,0,1,0-1.728,0v.149A26.9,26.9,0,0,0,39.17,9.473a.864.864,0,1,0-.628,1.61Z"/>
          <path id="Trazado_876553" data-name="Trazado 876553" d="M15.745,13.211a.86.86,0,0,0,.451-.128,25.268,25.268,0,0,1,2.505-1.35l-.045.168a.864.864,0,1,0,1.669.446l.528-1.974A.864.864,0,0,0,20.3,9.333l-1.583-.539a.864.864,0,0,0-.879,1.438,27,27,0,0,0-2.543,1.379.864.864,0,0,0,.453,1.6Z"/>
        </g>
      </g>
    </g>
  </g>
</svg>
