<svg xmlns="http://www.w3.org/2000/svg" xmlns:xlink="http://www.w3.org/1999/xlink" width="78.501" height="75.824" viewBox="0 0 78.501 75.824">
  <defs>
    <clipPath id="clip-path">
      <rect id="Rectángulo_401173" data-name="Rectángulo 401173" width="66" height="66" transform="translate(756.75 7876.863)" fill="#fff" stroke="#707070" stroke-width="1"/>
    </clipPath>
    <clipPath id="clip-path-2">
      <path id="path6825" d="M0-66H66V0H0Z"/>
    </clipPath>
  </defs>
  <g id="Grupo_1101461" data-name="Grupo 1101461" transform="translate(-750.749 -7876.863)">
    <path id="_12068" data-name="12068" d="M72.033,71.913c-8.038-1.11-16.53-.839-23.844,2.675C38.045,79.46,31.382,90.507,31.127,101.757s5.606,22.305,14.66,28.988,21,9.051,32.068,7.045c11.165-2.023,21.645-8.583,27.469-18.322,3.735-6.245,5.48-13.956,3.417-20.934a28.6,28.6,0,0,0-6.787-11.156A50.145,50.145,0,0,0,72.033,71.913Z" transform="translate(719.63 7814.206)" fill="#26aab7"/>
    <g id="Enmascarar_grupo_1098776" data-name="Enmascarar grupo 1098776" clip-path="url(#clip-path)">
      <g id="g6819" transform="translate(756.75 7942.863)">
        <g id="g6821">
          <g id="g6823" clip-path="url(#clip-path-2)">
            <g id="g6829" transform="translate(51.348 16.952)">
              <path id="path6831" d="M0,0C-5.843-17.875-30.854-17.875-36.7,0a34.965,34.965,0,0,0-1.725,10.881A35,35,0,0,0-18.348,42.545,35,35,0,0,0,1.725,10.881,34.961,34.961,0,0,0,0,0" fill="#dd636e"/>
            </g>
          </g>
        </g>
        <g id="g6833">
          <g id="g6835" clip-path="url(#clip-path-2)">
            <g id="g6841" transform="translate(36.402 -49.832)">
              <path id="path6843" d="M0,0A12.288,12.288,0,0,0-.165-2.01a.894.894,0,0,1,.359-.868l1.791-1.3a.9.9,0,0,0,.25-1.176L-.356-9.845A.9.9,0,0,0-1.5-10.216l-2.024.9a.894.894,0,0,1-.932-.123,12.208,12.208,0,0,0-3.48-2.012.893.893,0,0,1-.571-.745l-.231-2.2a.9.9,0,0,0-.894-.8h-5.184a.9.9,0,0,0-.894.8l-.231,2.2a.893.893,0,0,1-.571.745,12.208,12.208,0,0,0-3.48,2.012.894.894,0,0,1-.932.123l-2.024-.9a.9.9,0,0,0-1.144.372l-2.592,4.49a.9.9,0,0,0,.25,1.176l1.792,1.3a.894.894,0,0,1,.359.868A12.288,12.288,0,0,0-24.447,0a12.289,12.289,0,0,0,.165,2.01.894.894,0,0,1-.359.867l-1.792,1.3a.9.9,0,0,0-.25,1.176l2.592,4.49a.9.9,0,0,0,1.144.371l2.024-.9a.894.894,0,0,1,.932.123,12.2,12.2,0,0,0,3.48,2.012.893.893,0,0,1,.571.745l.231,2.2a.9.9,0,0,0,.894.805h5.184a.9.9,0,0,0,.894-.805l.231-2.2a.893.893,0,0,1,.571-.745,12.211,12.211,0,0,0,3.48-2.012.894.894,0,0,1,.932-.123l2.024.9A.9.9,0,0,0-.356,9.845l2.592-4.49a.9.9,0,0,0-.25-1.176L.194,2.878A.893.893,0,0,1-.165,2.01,12.287,12.287,0,0,0,0,0" fill="#dfeaef"/>
            </g>
            <g id="g6845" transform="translate(23.147 -65.032)">
              <path id="path6847" d="M0,0A.9.9,0,0,0-.893.805l-.231,2.2A.893.893,0,0,1-1.7,3.75,4.323,4.323,0,0,1-3.4,3.807c.049-.02.1-.039.147-.057a.893.893,0,0,0,.571-.745l.231-2.2A.9.9,0,0,1-1.561,0Z" fill="#b4d0d5"/>
            </g>
            <g id="g6849" transform="translate(13.872 -39.988)">
              <path id="path6851" d="M0,0-2.592-4.49a.9.9,0,0,1,.25-1.176l1.792-1.3a.894.894,0,0,0,.359-.868,12.287,12.287,0,0,1-.165-2.01,12.285,12.285,0,0,1,.165-2.01.893.893,0,0,0-.359-.868l-1.792-1.3a.9.9,0,0,1-.25-1.176L0-19.689a.9.9,0,0,1,.1-.141l-.518-.231a.9.9,0,0,0-1.144.372L-4.153-15.2a.9.9,0,0,0,.25,1.176l1.792,1.3a.894.894,0,0,1,.359.868,12.285,12.285,0,0,0-.165,2.01,12.287,12.287,0,0,0,.165,2.01.894.894,0,0,1-.359.868L-3.9-5.666a.9.9,0,0,0-.25,1.176L-1.561,0A.9.9,0,0,0-.417.372L.1.141A.9.9,0,0,1,0,0" fill="#b4d0d5"/>
            </g>
            <g id="g6853" transform="translate(23.147 -34.633)">
              <path id="path6855" d="M0,0H-1.561a.9.9,0,0,1-.893-.8l-.231-2.2a.894.894,0,0,0-.571-.745l-.056-.022A3.619,3.619,0,0,1-1.7-3.75a.894.894,0,0,1,.571.745L-.893-.8A.9.9,0,0,0,0,0" fill="#b4d0d5"/>
            </g>
            <g id="g6857" transform="translate(32.178 -49.832)">
              <path id="path6859" d="M0,0A8,8,0,0,0-8-8a8,8,0,0,0-8,8A8,8,0,0,0-8,8,8,8,0,0,0,0,0" fill="#b4d0d5"/>
            </g>
            <g id="g6861" transform="translate(18.441 -44.257)">
              <path id="path6863" d="M0,0A7.975,7.975,0,0,0,5.736,2.425a8,8,0,0,0,8-8,8,8,0,0,0-8-8,8,8,0,0,0-8,8,7.973,7.973,0,0,0,.318,2.239" fill="none" stroke="#000" stroke-linecap="round" stroke-linejoin="round" stroke-miterlimit="10" stroke-width="1.934"/>
            </g>
            <g id="g6865" transform="translate(20.707 -35.349)">
              <path id="path6867" d="M0,0A.614.614,0,0,1-.014-.089l-.23-2.2a.9.9,0,0,0-.572-.745A12.187,12.187,0,0,1-4.3-5.046a.9.9,0,0,0-.933-.122l-2.024.9A.9.9,0,0,1-8.4-4.639l-2.593-4.489a.9.9,0,0,1,.25-1.177l1.792-1.3a.894.894,0,0,0,.359-.867,12.213,12.213,0,0,1-.165-2.011,12.2,12.2,0,0,1,.165-2.011.894.894,0,0,0-.359-.867l-1.792-1.3a.9.9,0,0,1-.25-1.177l2.593-4.49A.9.9,0,0,1-7.253-24.7l2.024.9A.9.9,0,0,0-4.3-23.92a12.184,12.184,0,0,1,3.48-2.012.9.9,0,0,0,.572-.744l.23-2.2a.9.9,0,0,1,.894-.8H6.064a.9.9,0,0,1,.894.8l.23,2.2a.9.9,0,0,0,.572.744,12.2,12.2,0,0,1,3.48,2.012.9.9,0,0,0,.931.122l2.024-.9a.9.9,0,0,1,1.144.371l1.876,3.248" fill="none" stroke="#000" stroke-linecap="round" stroke-linejoin="round" stroke-miterlimit="10" stroke-width="1.934"/>
            </g>
            <g id="g6869" transform="translate(51.455 -41.229)">
              <path id="path6871" d="M0,0A12.289,12.289,0,0,0-.165-2.01a.893.893,0,0,1,.359-.867l1.792-1.3a.9.9,0,0,0,.25-1.176L-.356-9.845A.9.9,0,0,0-1.5-10.216l-2.024.9a.893.893,0,0,1-.932-.123,12.21,12.21,0,0,0-3.48-2.012.893.893,0,0,1-.571-.745l-.231-2.2a.9.9,0,0,0-.894-.805h-5.184a.9.9,0,0,0-.894.805l-.231,2.2a.893.893,0,0,1-.571.745,12.208,12.208,0,0,0-3.48,2.012.893.893,0,0,1-.932.123l-2.024-.9a.9.9,0,0,0-1.144.371l-2.592,4.49a.9.9,0,0,0,.25,1.176l1.792,1.3a.894.894,0,0,1,.359.868A12.289,12.289,0,0,0-24.447,0a12.288,12.288,0,0,0,.165,2.01.894.894,0,0,1-.359.868l-1.792,1.3a.9.9,0,0,0-.25,1.176l2.592,4.49a.9.9,0,0,0,1.144.372l2.024-.9a.893.893,0,0,1,.932.123,12.208,12.208,0,0,0,3.48,2.012.893.893,0,0,1,.571.745l.231,2.2a.9.9,0,0,0,.894.8h5.184a.9.9,0,0,0,.894-.8l.231-2.2a.893.893,0,0,1,.571-.745,12.21,12.21,0,0,0,3.48-2.012.893.893,0,0,1,.932-.123l2.024.9A.9.9,0,0,0-.356,9.845l2.592-4.49a.9.9,0,0,0-.25-1.176L.194,2.878A.894.894,0,0,1-.165,2.01,12.289,12.289,0,0,0,0,0" fill="#617881"/>
            </g>
            <g id="g6873" transform="translate(38.201 -56.429)">
              <path id="path6875" d="M0,0A.9.9,0,0,0-.893.805l-.231,2.2A.892.892,0,0,1-1.7,3.75,4.324,4.324,0,0,1-3.4,3.807c.049-.02.1-.039.147-.057a.893.893,0,0,0,.571-.745l.231-2.2A.9.9,0,0,1-1.561,0Z" fill="#475959"/>
            </g>
            <g id="g6877" transform="translate(28.926 -31.385)">
              <path id="path6879" d="M0,0-2.592-4.49a.9.9,0,0,1,.25-1.176l1.792-1.3a.894.894,0,0,0,.359-.868,12.289,12.289,0,0,1-.165-2.01,12.287,12.287,0,0,1,.165-2.01.894.894,0,0,0-.359-.868l-1.792-1.3a.9.9,0,0,1-.25-1.176L0-19.689a.9.9,0,0,1,.1-.141l-.518-.231a.9.9,0,0,0-1.144.372L-4.153-15.2a.9.9,0,0,0,.25,1.176l1.792,1.3a.894.894,0,0,1,.359.868,12.273,12.273,0,0,0-.165,2.01,12.275,12.275,0,0,0,.165,2.01.894.894,0,0,1-.359.868L-3.9-5.666a.9.9,0,0,0-.25,1.176L-1.561,0A.9.9,0,0,0-.417.372L.1.141A.89.89,0,0,1,0,0" fill="#475959"/>
            </g>
            <g id="g6881" transform="translate(38.201 -26.03)">
              <path id="path6883" d="M0,0H-1.561a.9.9,0,0,1-.893-.8l-.231-2.2a.894.894,0,0,0-.571-.745l-.056-.022A3.619,3.619,0,0,1-1.7-3.75a.893.893,0,0,1,.571.745L-.893-.8A.9.9,0,0,0,0,0" fill="#475959"/>
            </g>
            <g id="g6885" transform="translate(43.391 -41.229)">
              <path id="path6887" d="M0,0A4.159,4.159,0,0,0-4.159-4.159,4.159,4.159,0,0,0-8.318,0,4.159,4.159,0,0,0-4.159,4.159,4.159,4.159,0,0,0,0,0" fill="#b4d0d5"/>
            </g>
            <g id="g6889" transform="translate(43.391 -41.229)">
              <path id="path6891" d="M0,0A4.159,4.159,0,0,0-4.159-4.159,4.159,4.159,0,0,0-8.318,0,4.159,4.159,0,0,0-4.159,4.159,4.159,4.159,0,0,0,0,0Z" fill="none" stroke="#000" stroke-linecap="round" stroke-linejoin="round" stroke-miterlimit="10" stroke-width="1.934"/>
            </g>
            <g id="g6893" transform="translate(53.389 -35.349)">
              <path id="path6895" d="M0,0,.3-.525A.9.9,0,0,0,.053-1.7L-1.739-3A.9.9,0,0,1-2.1-3.871,12.194,12.194,0,0,0-1.933-5.88,12.2,12.2,0,0,0-2.1-7.891a.9.9,0,0,1,.359-.868l1.792-1.3A.9.9,0,0,0,.3-11.235l-2.593-4.49A.9.9,0,0,0-3.434-16.1l-2.024.9a.892.892,0,0,1-.931-.124A12.257,12.257,0,0,0-9.87-17.331a.89.89,0,0,1-.571-.745l-.231-2.2a.9.9,0,0,0-.893-.8h-5.184a.9.9,0,0,0-.894.8l-.23,2.2a.9.9,0,0,1-.572.746,12.214,12.214,0,0,0-3.48,2.011.894.894,0,0,1-.933.124l-2.024-.9a.9.9,0,0,0-1.144.371l-2.591,4.49a.9.9,0,0,0,.25,1.176l1.792,1.3a.893.893,0,0,1,.358.868A12.341,12.341,0,0,0-26.38-5.88a12.336,12.336,0,0,0,.164,2.009A.893.893,0,0,1-26.574-3l-1.792,1.3a.9.9,0,0,0-.25,1.177l.3.525" fill="none" stroke="#000" stroke-linecap="round" stroke-linejoin="round" stroke-miterlimit="10" stroke-width="1.934"/>
            </g>
            <g id="g6897" transform="translate(52.364 -14.173)">
              <path id="path6899" d="M0,0H.026A4.012,4.012,0,0,0,4.038-4.012,4.013,4.013,0,0,0,.026-8.026c-.029,0-.058,0-.086,0H-36.8c-.029,0-.058,0-.086,0A4.013,4.013,0,0,0-40.9-4.012,4.012,4.012,0,0,0-36.886,0h.026" fill="#f1b986"/>
            </g>
            <g id="g6901" transform="translate(54.167 -21.783)">
              <path id="path6903" d="M0,0-27.251.117-40.783.174c-.483-4.4-1.393-9.423-1.1-13.741H1.967C2.427-7.449,0,0,0,0" fill="#f6e266"/>
            </g>
            <g id="g6905" transform="translate(26.916 -21.666)">
              <path id="path6907" d="M0,0-13.532.057c-.483-4.4-1.393-9.423-1.1-13.741H-2.561c.3,1.194.675,2.384,1.052,3.533Z" fill="#ecc32e"/>
            </g>
            <g id="g6909" transform="translate(52.403 -17.245)">
              <path id="path6911" d="M0,0Q0,3.169-.162,6.34a10.27,10.27,0,0,1-9.782,9.737q-5.542.263-11.085.182h0q-2.983-.042-5.965-.182A10.272,10.272,0,0,1-36.778,6.34Q-37.066.693-36.84-4.952h0c2.06-.763,3.286-3.136,4.014-5.774A5.3,5.3,0,0,1-27-14.572a5.229,5.229,0,0,1,2.749,1.264,8.75,8.75,0,0,0,5.777,2.171,8.754,8.754,0,0,0,5.778-2.171,5.211,5.211,0,0,1,3.46-1.312,5.289,5.289,0,0,1,5.119,3.894C-3.387-8.088-2.161-5.715-.1-4.952Q0-2.475,0,0" fill="#f1d0a5"/>
            </g>
            <g id="g6913" transform="translate(31.372 -0.985)">
              <path id="path6915" d="M0,0Q-2.983-.042-5.965-.182a10.272,10.272,0,0,1-9.782-9.737q-.289-5.647-.063-11.292h0c2.06-.763,3.286-3.136,4.014-5.774a5.3,5.3,0,0,1,5.829-3.846C-7.855-13.96-5.965-.185,0,0" fill="#f1b986"/>
            </g>
            <g id="g6917" transform="translate(30.18 -12.447)">
              <path id="path6919" d="M0,0A4.154,4.154,0,0,0,3.754,2.374,4.154,4.154,0,0,0,7.508,0" fill="none" stroke="#000" stroke-linecap="round" stroke-linejoin="round" stroke-miterlimit="10" stroke-width="1.934"/>
            </g>
            <g id="g6921" transform="translate(15.503 -14.173)">
              <path id="path6923" d="M0,0H-.026A4.013,4.013,0,0,1-4.038-4.012,4.013,4.013,0,0,1-.026-8.026c.029,0,.058,0,.086,0" fill="none" stroke="#000" stroke-linecap="round" stroke-linejoin="round" stroke-miterlimit="10" stroke-width="1.934"/>
            </g>
            <g id="g6925" transform="translate(52.364 -14.173)">
              <path id="path6927" d="M0,0H.026A4.012,4.012,0,0,0,4.038-4.012,4.013,4.013,0,0,0,.026-8.026c-.029,0-.058,0-.086,0" fill="none" stroke="#000" stroke-linecap="round" stroke-linejoin="round" stroke-miterlimit="10" stroke-width="1.934"/>
            </g>
            <g id="g6929" transform="translate(27.023 -19.594)">
              <path id="path6931" d="M0,0C0,1.352-.731,2.448-1.632,2.448S-3.264,1.352-3.264,0s.731-2.448,1.632-2.448S0-1.352,0,0"/>
            </g>
            <g id="g6933" transform="translate(27.023 -19.594)">
              <path id="path6935" d="M0,0C0,1.352-.731,2.448-1.632,2.448S-3.264,1.352-3.264,0s.731-2.448,1.632-2.448S0-1.352,0,0Z" fill="none" stroke="#000" stroke-miterlimit="10" stroke-width="0.064"/>
            </g>
            <g id="g6937" transform="translate(44.109 -19.594)">
              <path id="path6939" d="M0,0C0,1.352-.731,2.448-1.632,2.448S-3.264,1.352-3.264,0s.731-2.448,1.632-2.448S0-1.352,0,0"/>
            </g>
            <g id="g6941" transform="translate(44.109 -19.594)">
              <path id="path6943" d="M0,0C0,1.352-.731,2.448-1.632,2.448S-3.264,1.352-3.264,0s.731-2.448,1.632-2.448S0-1.352,0,0Z" fill="none" stroke="#000" stroke-miterlimit="10" stroke-width="0.064"/>
            </g>
            <g id="g6945" transform="translate(54.167 -21.784)">
              <path id="path6947" d="M0,0S2.427-7.447,1.967-13.566H-41.886c-.29,4.319.622,9.337,1.1,13.739" fill="none" stroke="#000" stroke-linecap="round" stroke-linejoin="round" stroke-miterlimit="10" stroke-width="1.934"/>
            </g>
            <g id="g6949" transform="translate(50.795 -6.148)">
              <path id="path6951" d="M0,0A10.219,10.219,0,0,0,1.445-4.757q.162-3.169.162-6.341,0-2.475-.1-4.951c-2.061-.764-3.287-3.136-4.014-5.775a5.29,5.29,0,0,0-5.119-3.894,5.215,5.215,0,0,0-3.46,1.312,8.75,8.75,0,0,1-5.778,2.171,8.747,8.747,0,0,1-5.776-2.171,5.233,5.233,0,0,0-2.75-1.263,5.3,5.3,0,0,0-5.829,3.845c-.728,2.639-1.954,5.011-4.014,5.775h0q-.226,5.646.063,11.292A10.271,10.271,0,0,0-25.388,4.98q2.984.139,5.964.183h0q5.542.077,11.085-.183A10.256,10.256,0,0,0-2.563,2.871" fill="none" stroke="#000" stroke-linecap="round" stroke-linejoin="round" stroke-miterlimit="10" stroke-width="1.934"/>
            </g>
            <g id="g6953" transform="translate(41.649 -62.537)">
              <path id="path6955" d="M0,0,.866-2.5" fill="none" stroke="#000" stroke-linecap="round" stroke-linejoin="round" stroke-miterlimit="10" stroke-width="1.934"/>
            </g>
            <g id="g6957" transform="translate(43.186 -60.063)">
              <path id="path6959" d="M0,0,3.754-2.592" fill="none" stroke="#000" stroke-linecap="round" stroke-linejoin="round" stroke-miterlimit="10" stroke-width="1.934"/>
            </g>
            <g id="g6961" transform="translate(44.926 -57.689)">
              <path id="path6963" d="M0,0,2.278.029" fill="none" stroke="#000" stroke-linecap="round" stroke-linejoin="round" stroke-miterlimit="10" stroke-width="1.934"/>
            </g>
          </g>
        </g>
      </g>
    </g>
  </g>
</svg>
