<svg xmlns="http://www.w3.org/2000/svg" xmlns:xlink="http://www.w3.org/1999/xlink" width="398.439" height="421.839" viewBox="0 0 398.439 421.839">
  <defs>
    <clipPath id="clip-path">
      <rect id="Rectángulo_401965" data-name="Rectángulo 401965" width="398.439" height="421.839" transform="translate(-23)" fill="none"/>
    </clipPath>
    <clipPath id="clip-path-2">
      <rect id="Rectángulo_401959" data-name="Rectángulo 401959" width="352.439" height="421.839" fill="none"/>
    </clipPath>
    <clipPath id="clip-path-5">
      <rect id="Rectángulo_401961" data-name="Rectángulo 401961" width="56.074" height="35.506" transform="translate(207.247 239.28)" fill="none"/>
    </clipPath>
    <clipPath id="clip-path-6">
      <rect id="Rectángulo_401962" data-name="Rectángulo 401962" width="43.146" height="45.808" transform="translate(89.871 86.172)" fill="none"/>
    </clipPath>
    <clipPath id="clip-path-7">
      <rect id="Rectángulo_401963" data-name="Rectángulo 401963" width="37.113" height="39.634" transform="translate(85.699 95.796)" fill="none"/>
    </clipPath>
  </defs>
  <g id="Grupo_1100937" data-name="Grupo 1100937" transform="translate(23)">
    <g id="Grupo_1100936" data-name="Grupo 1100936" clip-path="url(#clip-path)">
      <g id="Grupo_1100922" data-name="Grupo 1100922">
        <g id="Grupo_1100921" data-name="Grupo 1100921" clip-path="url(#clip-path-2)">
          <path id="Trazado_875475" data-name="Trazado 875475" d="M315.346,328.4a40.715,40.715,0,0,0-18.923-12.2c-5.093-1.434-12.814-2.741-20.675-.824a27.915,27.915,0,0,0-12.708,6.839c-4.205,3.964-7.416,9.43-9.543,16.246a3.949,3.949,0,0,0,2.707,4.972l13.354,3.76a3.971,3.971,0,0,0,4.688-2.21c1.771-4.021,6.241-10.373,16.284-7.732a12.608,12.608,0,0,1,9.568,11.065,14.141,14.141,0,0,1-4.554,11.955c-5.2,4.858-11.992,3.915-15.577,2.92a7.778,7.778,0,0,0-9.564,5.35l-4.045,14.37a3.958,3.958,0,0,0,2.734,4.877l13.012,3.662a3.958,3.958,0,0,0,4.877-2.734l.85-3.019a.174.174,0,0,1,.16-.128,39.183,39.183,0,0,0,16.241-4.763c8.408-4.682,14.112-12.174,16.953-22.268,4.066-14.446-.931-24.364-5.839-30.141" fill="#e0e0e0"/>
          <path id="Trazado_875476" data-name="Trazado 875476" d="M275.228,393.425l-1.138-.32a10.252,10.252,0,1,0-5.556,19.737l1.138.32a10.252,10.252,0,1,0,5.556-19.737" fill="#e0e0e0"/>
          <path id="Trazado_875477" data-name="Trazado 875477" d="M344.022,248.814a20.882,20.882,0,0,0-11.3-2.374,21.3,21.3,0,0,0-10.051,3.4,14.308,14.308,0,0,0-4.833,5.6,19.01,19.01,0,0,0-1.593,9.528,2.026,2.026,0,0,0,2.208,1.886l7.083-.647a2.037,2.037,0,0,0,1.841-1.917c.111-2.25,1.088-6.111,6.38-6.687a6.466,6.466,0,0,1,6.61,3.546,7.25,7.25,0,0,1,.01,6.559c-1.6,3.28-5.026,4.072-6.924,4.253a3.987,3.987,0,0,0-3.6,4.314l.7,7.623a2.029,2.029,0,0,0,2.2,1.834l6.9-.63a2.029,2.029,0,0,0,1.834-2.2l-.146-1.6a.09.09,0,0,1,.054-.09,20.114,20.114,0,0,0,6.9-5.257,18.1,18.1,0,0,0,4.038-13.77c-.7-7.663-4.91-11.5-8.319-13.364" fill="#f5f5f5"/>
          <path id="Trazado_875478" data-name="Trazado 875478" d="M336.725,287.3l-.6.055a5.257,5.257,0,0,0,.956,10.47l.6-.055a5.257,5.257,0,0,0-.956-10.47" fill="#f5f5f5"/>
          <path id="Trazado_875479" data-name="Trazado 875479" d="M60.341,86.075a17.417,17.417,0,0,0-8.523-4.481,17.773,17.773,0,0,0-8.839.431,11.942,11.942,0,0,0-5.156,3.394A15.843,15.843,0,0,0,34.372,92.7a1.689,1.689,0,0,0,1.341,2.016l5.832,1.1A1.7,1.7,0,0,0,43.458,94.7a5.481,5.481,0,0,1,6.645-3.91A5.39,5.39,0,0,1,54.6,95.138,6.048,6.048,0,0,1,53.11,100.4c-2.033,2.267-4.961,2.122-6.526,1.834a3.326,3.326,0,0,0-3.872,2.64l-1.18,6.275a1.693,1.693,0,0,0,1.35,1.975l5.681,1.068a1.693,1.693,0,0,0,1.975-1.349l.248-1.319a.076.076,0,0,1,.063-.06,16.768,16.768,0,0,0,6.739-2.644,15.1,15.1,0,0,0,6.381-10.128c1.186-6.308-1.318-10.345-3.628-12.62" fill="#f5f5f5"/>
          <path id="Trazado_875480" data-name="Trazado 875480" d="M45.708,115.294l-.5-.093a4.385,4.385,0,1,0-1.621,8.618l.5.094a4.385,4.385,0,0,0,1.62-8.619" fill="#f5f5f5"/>
          <path id="Trazado_875481" data-name="Trazado 875481" d="M333.47,88.079a20.881,20.881,0,0,0-11.287-2.418,21.289,21.289,0,0,0-10.065,3.354,14.307,14.307,0,0,0-4.855,5.584,19,19,0,0,0-1.631,9.522,2.025,2.025,0,0,0,2.2,1.894l7.086-.619a2.035,2.035,0,0,0,1.848-1.91c.12-2.249,1.113-6.106,6.408-6.661a6.465,6.465,0,0,1,6.6,3.572,7.252,7.252,0,0,1-.016,6.559c-1.614,3.274-5.042,4.053-6.941,4.226a3.987,3.987,0,0,0-3.617,4.3l.666,7.626a2.03,2.03,0,0,0,2.2,1.843l6.9-.6a2.03,2.03,0,0,0,1.843-2.2l-.14-1.6a.09.09,0,0,1,.054-.09,20.09,20.09,0,0,0,6.925-5.229,18.1,18.1,0,0,0,4.093-13.754c-.669-7.666-4.865-11.517-8.266-13.4" fill="#ebebeb"/>
          <path id="Trazado_875482" data-name="Trazado 875482" d="M326.02,126.538l-.6.053a5.256,5.256,0,0,0,.915,10.473l.6-.053a5.256,5.256,0,0,0-.915-10.473" fill="#ebebeb"/>
          <path id="Trazado_875483" data-name="Trazado 875483" d="M120.416,318.513a25.276,25.276,0,0,0-13.826-2.036,25.8,25.8,0,0,0-11.9,4.842,17.345,17.345,0,0,0-5.427,7.128,23.014,23.014,0,0,0-1.223,11.632,2.452,2.452,0,0,0,2.807,2.116l8.513-1.3a2.464,2.464,0,0,0,2.082-2.452c-.031-2.728.865-7.465,7.219-8.551a7.826,7.826,0,0,1,8.248,3.8,8.775,8.775,0,0,1,.5,7.926c-1.694,4.082-5.773,5.292-8.055,5.649a4.829,4.829,0,0,0-4.032,5.479l1.4,9.161a2.456,2.456,0,0,0,2.8,2.054l8.3-1.27a2.458,2.458,0,0,0,2.054-2.8l-.3-1.924a.109.109,0,0,1,.058-.113,24.334,24.334,0,0,0,7.957-6.862,21.913,21.913,0,0,0,3.865-16.938c-1.41-9.209-6.781-13.532-11.038-15.537" fill="#ebebeb"/>
          <path id="Trazado_875484" data-name="Trazado 875484" d="M114.434,365.563l-.726.111a6.364,6.364,0,0,0,1.927,12.582l.726-.111a6.364,6.364,0,0,0-1.927-12.582" fill="#ebebeb"/>
          <path id="Trazado_875485" data-name="Trazado 875485" d="M45.769,145.168a35.515,35.515,0,0,0-19.431-2.826c-4.56.707-11.16,2.466-16.7,6.833A24.354,24.354,0,0,0,2.028,159.2,32.326,32.326,0,0,0,.339,175.548a3.444,3.444,0,0,0,3.948,2.966l11.958-1.853a3.462,3.462,0,0,0,2.919-3.451c-.051-3.831,1.2-10.49,10.121-12.031a11,11,0,0,1,11.6,5.315,12.333,12.333,0,0,1,.716,11.134c-2.369,5.739-8.1,7.45-11.3,7.958a6.785,6.785,0,0,0-5.652,7.708l1.994,12.866a3.453,3.453,0,0,0,3.936,2.88l11.65-1.806A3.45,3.45,0,0,0,45.1,203.3l-.419-2.7a.152.152,0,0,1,.081-.158,34.17,34.17,0,0,0,11.162-9.661c4.976-6.759,6.789-14.769,5.388-23.807-2-12.935-9.561-18.995-15.547-21.8" fill="#ebebeb"/>
          <path id="Trazado_875486" data-name="Trazado 875486" d="M37.482,211.287l-1.019.158A8.941,8.941,0,1,0,39.2,229.117l1.019-.158a8.941,8.941,0,0,0-2.739-17.672" fill="#ebebeb"/>
        </g>
      </g>
      <g id="Grupo_1100924" data-name="Grupo 1100924">
        <g id="Grupo_1100923" data-name="Grupo 1100923" clip-path="url(#clip-path-2)">
          <path id="Trazado_875487" data-name="Trazado 875487" d="M214.178,63.673l9.012,1.5a34.845,34.845,0,1,0-6.166-10.855l-.011-.016Z" fill="#fff"/>
          <path id="Trazado_875488" data-name="Trazado 875488" d="M214.178,63.673s.046-.2.16-.6q.182-.632.517-1.791c.473-1.614,1.164-3.968,2.057-7.013l.062-.21.126.181.011.016-.187.1a34.672,34.672,0,0,1-1.642-16.725,35.812,35.812,0,0,1,3.352-10.593,34.954,34.954,0,0,1,7.644-10.05,35.7,35.7,0,0,1,11.988-7.133A34.217,34.217,0,0,1,253.23,7.98a35.785,35.785,0,0,1,15.189,5.156A34.287,34.287,0,0,1,280.1,25.217a35.934,35.934,0,0,1,3.429,7.941c.2.686.328,1.39.494,2.082a19.52,19.52,0,0,1,.423,2.086q.127,1.054.254,2.1l.121,1.048.019,1.051a35.712,35.712,0,0,1-3.167,15.89A34.139,34.139,0,0,1,272.419,69.5a35.755,35.755,0,0,1-12.334,6.75,35.081,35.081,0,0,1-12.62,1.472l-2.935-.342c-.958-.135-1.88-.388-2.795-.571a31.533,31.533,0,0,1-5.126-1.641,34.626,34.626,0,0,1-13.5-9.929l.061.035L216.464,64.1l-1.718-.31c-.384-.071-.568-.114-.568-.114s.215.024.612.083l1.751.267,6.666,1.05.037.006.025.03a34.719,34.719,0,0,0,13.466,9.753,31.223,31.223,0,0,0,5.085,1.6c.906.177,1.818.424,2.767.552l2.9.326a34.782,34.782,0,0,0,12.467-1.5,35.392,35.392,0,0,0,12.16-6.7,33.7,33.7,0,0,0,9.1-11.933,35.238,35.238,0,0,0,3.1-15.663l-.017-1.036-.12-1.031q-.126-1.033-.252-2.072a19.212,19.212,0,0,0-.418-2.054c-.164-.681-.291-1.375-.487-2.052a35.534,35.534,0,0,0-3.38-7.822,33.807,33.807,0,0,0-11.5-11.906,35.339,35.339,0,0,0-14.965-5.1A33.8,33.8,0,0,0,238.423,10.3a35.32,35.32,0,0,0-11.853,7.011,34.645,34.645,0,0,0-7.588,9.9,35.563,35.563,0,0,0-3.367,10.468,34.712,34.712,0,0,0,1.509,16.6l.253.741-.44-.646-.011-.016.188-.03-2.156,6.914c-.248.78-.437,1.378-.571,1.8-.131.407-.209.623-.209.623" fill="#263238"/>
          <path id="Trazado_875489" data-name="Trazado 875489" d="M257.221,26.778a14.908,14.908,0,0,0-7.9-2.368,15.217,15.217,0,0,0-7.357,1.811,10.228,10.228,0,0,0-3.776,3.7,13.57,13.57,0,0,0-1.706,6.685,1.448,1.448,0,0,0,1.457,1.475l5.08-.035a1.454,1.454,0,0,0,1.425-1.254,4.693,4.693,0,0,1,4.943-4.374,4.617,4.617,0,0,1,4.491,2.92A5.18,5.18,0,0,1,253.493,40a5.917,5.917,0,0,1-5.183,2.61,2.847,2.847,0,0,0-2.821,2.854l.037,5.466a1.45,1.45,0,0,0,1.458,1.438l4.949-.034a1.448,1.448,0,0,0,1.438-1.457l-.008-1.149a.065.065,0,0,1,.044-.061,14.358,14.358,0,0,0,5.23-3.326,12.927,12.927,0,0,0,3.7-9.557,11.45,11.45,0,0,0-5.117-10.01" fill="#26aab7"/>
          <path id="Trazado_875490" data-name="Trazado 875490" d="M249.715,53.73l-.433,0a3.754,3.754,0,1,0,.051,7.508l.433,0a3.754,3.754,0,1,0-.051-7.508" fill="#26aab7"/>
        </g>
      </g>
      <g id="Grupo_1100935" data-name="Grupo 1100935">
        <g id="Grupo_1100934" data-name="Grupo 1100934" clip-path="url(#clip-path-2)">
          <path id="Trazado_875491" data-name="Trazado 875491" d="M263.51,108.751C239.9,92.87,211.826,87.212,193.427,87.212c-17.231,0-42.589,2.717-65.541,15.664a90.908,90.908,0,0,0-33.8,32.65C84.4,151.664,79.155,171.632,78.5,194.877a12.865,12.865,0,0,0,12.873,13.2h45.181A12.928,12.928,0,0,0,149.3,197.013c2-14.168,10.413-38.024,44.224-38.607,25.757-.442,36.385,18.2,39.759,26.243,5.492,13.082,4.1,28.594-3.726,41.5-12.023,19.822-34.14,22.857-46.253,22.9a25.331,25.331,0,0,0-25.264,25.209v48.618a12.891,12.891,0,0,0,12.877,12.876h44.02a12.891,12.891,0,0,0,12.877-12.876V312.658a.569.569,0,0,1,.389-.54,127.651,127.651,0,0,0,46.711-29.263c22.226-22.1,33.495-50.618,33.495-84.77,0-48.874-24.418-75.556-44.9-89.334" fill="#7d6eb2"/>
          <path id="Trazado_875492" data-name="Trazado 875492" d="M191.823,358.429h3.553a31.705,31.705,0,0,1,0,63.41h-3.553a31.705,31.705,0,1,1,0-63.41" fill="#263238"/>
          <path id="Trazado_875493" data-name="Trazado 875493" d="M170.751,345.152h44a12.689,12.689,0,0,0,12.871-12.468V312.807a.552.552,0,0,1,.389-.522,106.511,106.511,0,0,0,20.712-10.071c-28.114-.2-79.359-.484-90.845-.066v30.536a12.689,12.689,0,0,0,12.871,12.468" fill="#263238"/>
          <path id="Trazado_875494" data-name="Trazado 875494" d="M206.992,124.9l-28.237-82c-5.963-20.532-22.882-34.175-43.241-27.646l-1.846.713A38.221,38.221,0,0,0,110.79,62.484c5.267,17.767,11.315,37.33,15,46.53,7.63,19.044,27.605,13.7,27.605,13.7.043-.015,4.445,12.694,6.371,18.4l10.341,10.218,4.272-4.667Z" fill="#ffc09d"/>
          <path id="Trazado_875495" data-name="Trazado 875495" d="M153.4,122.713s12.334-3.952,22.069-16.993c0,0-.436,16.7-20.2,22.357Z" fill="#ff9b6c"/>
          <path id="Trazado_875496" data-name="Trazado 875496" d="M124.605,75.433a2.929,2.929,0,0,0,3.7,1.739,2.8,2.8,0,0,0,1.865-3.552,2.93,2.93,0,0,0-3.7-1.742,2.8,2.8,0,0,0-1.867,3.555" fill="#263238"/>
          <path id="Trazado_875497" data-name="Trazado 875497" d="M117.809,68.435c.476.225,1.954-2.107,4.9-3.234,2.924-1.171,5.667-.49,5.846-.974.1-.219-.5-.731-1.7-1.051a8.033,8.033,0,0,0-4.851.338,7.713,7.713,0,0,0-3.727,3.021c-.636,1.043-.694,1.806-.465,1.9" fill="#263238"/>
          <path id="Trazado_875498" data-name="Trazado 875498" d="M149.192,65.684c.477.225,1.959-2.107,4.9-3.235,2.924-1.169,5.667-.49,5.847-.974.094-.219-.495-.73-1.7-1.05a8.041,8.041,0,0,0-4.851.338,7.73,7.73,0,0,0-3.728,3.02c-.633,1.043-.692,1.806-.465,1.9" fill="#263238"/>
          <path id="Trazado_875499" data-name="Trazado 875499" d="M145.079,84.652c-.051-.172-2,.218-5.109.983-.781.213-1.55.339-1.874-.125a4.106,4.106,0,0,1-.359-2.42q.006-3.135.012-6.576c-.062-9.333-.415-16.889-.791-16.884s-.632,7.576-.57,16.908c.034,2.295.063,4.482.1,6.575a4.661,4.661,0,0,0,.749,3.1,2.019,2.019,0,0,0,1.659.621,5.473,5.473,0,0,0,1.344-.315c3.043-.991,4.9-1.692,4.844-1.864" fill="#263238"/>
          <path id="Trazado_875500" data-name="Trazado 875500" d="M142.393,49.149c.69.6,3.238-1.3,6.683-2.712,3.418-1.487,6.549-2,6.6-2.908.011-.428-.836-.878-2.294-1.013A12.54,12.54,0,0,0,143.263,46.8c-.918,1.141-1.186,2.062-.87,2.352" fill="#263238"/>
          <path id="Trazado_875501" data-name="Trazado 875501" d="M114.333,59.841c.863.444,3.013-1.142,5.9-2.244,2.85-1.187,5.514-1.523,5.818-2.435.122-.432-.512-.962-1.818-1.2a9.942,9.942,0,0,0-5.218.677,9.774,9.774,0,0,0-4.222,3.093c-.769,1.068-.849,1.884-.457,2.112" fill="#263238"/>
          <path id="Trazado_875502" data-name="Trazado 875502" d="M182.352,56.75c.271-.267,11.646-8.969,16.283,4.275s-9.617,15.168-9.773,14.8-6.51-19.071-6.51-19.071" fill="#ffc09d"/>
          <path id="Trazado_875503" data-name="Trazado 875503" d="M191.151,69.387c.043-.063.287.08.74.123a2.441,2.441,0,0,0,1.737-.569c1.219-1,1.619-3.637.848-6.046a8.073,8.073,0,0,0-1.8-3.077,2.825,2.825,0,0,0-2.356-1.164,1.245,1.245,0,0,0-1.14,1.109c-.048.433.129.668.067.715-.026.046-.362-.123-.447-.707a1.555,1.555,0,0,1,.231-1.012,1.844,1.844,0,0,1,1.157-.784,3.438,3.438,0,0,1,3.13,1.21,8.283,8.283,0,0,1,2.091,3.411c.85,2.7.358,5.675-1.363,6.9a2.619,2.619,0,0,1-2.233.388c-.524-.183-.7-.455-.66-.5" fill="#ff9b6c"/>
          <path id="Trazado_875504" data-name="Trazado 875504" d="M155.075,83.318c-.467.127.55,3.184-1.34,6.228s-5.255,3.8-5.136,4.232c.021.206.924.351,2.312-.072a8.029,8.029,0,0,0,4.345-3.359,6.992,6.992,0,0,0,.927-5.157c-.311-1.317-.9-1.96-1.108-1.872" fill="#263238"/>
          <path id="Trazado_875505" data-name="Trazado 875505" d="M77.721,53.184a3.325,3.325,0,0,1,.828-2.35c1.2-1.43,2.989-1.926,4.667-2.548a29.545,29.545,0,0,0,11.038-7.309,14.624,14.624,0,0,1-4.441-1.244c-2.891-1.381-5.272-4.215-5.3-7.419a1.95,1.95,0,0,1,.592-1.631c.767-.567,1.817.012,2.652.471,2.747,1.508,4.9,1.812,7.737.479A12.451,12.451,0,0,0,100,28.372c.036-.08.064-.164.1-.243.438-.953.87-1.868,1.3-2.758l0-.007v0c3.239-6.693,6.315-11.623,10.1-14.951,5.545-4.878,15.98-9.74,23.341-10.346s15.337,2.727,18.705,9.3c2.653-4.526,8.335-6.5,13.589-6.269l.1-.091c5.769.021,10.588,4.41,13.942,9.1.183.257.357.521.536.781a21.541,21.541,0,0,0,9.271,4.306c.6.114,1.289.267,1.55.816a1.755,1.755,0,0,1-.4,1.674,10.831,10.831,0,0,1-3.54,3.185,24.32,24.32,0,0,0,2.968,3c.924.776,2.024,1.707,1.878,2.905a2.291,2.291,0,0,1-1.915,1.782,6.709,6.709,0,0,1-2.766-.239l3.161,3.5a12.838,12.838,0,0,1-5.705,1.592c.633,5.271,3,14.611,2.912,18.367-3.491,1.3-4.479,1.218-6.044,2.43-2.024,1.568.28,5.317-3.109,5.216-1.725-.053-6.083-4.986-7.136-6.353a80.127,80.127,0,0,1-14.544-30.836,25.764,25.764,0,0,0-9.409-2.771l.3.126c-6.074.027-12.847.335-17.086,4.685-3.288,3.374-4.174,8.331-5.989,12.679-3.442,8.238-8.654,13.825-16.94,17.151,1.3,6.111,4.442,15.745,6.078,21.3l-8.5-9.273.012.045c-.6-.506-1.14-1.042-1.667-1.582l-.172-.159-.009-.025a35.824,35.824,0,0,0-2.626-2.561l-.036.065c-2.036,3.647-7.793,1.2-6.582-2.8a8.1,8.1,0,0,1,1.063-2.235,5.713,5.713,0,0,1-4.665,3.139A4.481,4.481,0,0,1,87.606,58.9a3.811,3.811,0,0,1,1.127-3.639,12.862,12.862,0,0,1-7.443.911c-1.638-.3-3.427-1.106-3.569-2.984" fill="#263238"/>
          <path id="Trazado_875506" data-name="Trazado 875506" d="M148.237,13.742a17.742,17.742,0,0,1,2.569,1.092,14.732,14.732,0,0,1,5.239,5.384,25.9,25.9,0,0,1,2.23,4.748c.636,1.781,1.166,3.742,1.738,5.8a54.207,54.207,0,0,0,2.093,6.4,23.629,23.629,0,0,0,1.618,3.2,7.4,7.4,0,0,0,2.512,2.769,3.1,3.1,0,0,0,3.057-.044,4.609,4.609,0,0,0,1.97-2.257,10.635,10.635,0,0,0,.131-5.582l-.389.192a17.215,17.215,0,0,0,3.786,3.228,6.121,6.121,0,0,0,4.492.724,3.939,3.939,0,0,0,1.873-1.054,3.409,3.409,0,0,0,.886-1.814,3.532,3.532,0,0,0-.193-1.862,2.553,2.553,0,0,0-1.153-1.287l-.141.255a13.242,13.242,0,0,0,5.261,1.656,11.837,11.837,0,0,0,1.466.047,2.206,2.206,0,0,0,.5-.049,2.582,2.582,0,0,0-.5-.032c-.33-.017-.819-.039-1.449-.122a13.666,13.666,0,0,1-5.132-1.753l-.141.256a2.634,2.634,0,0,1,1.143,2.833,3.079,3.079,0,0,1-.81,1.615,3.581,3.581,0,0,1-1.706.933A5.733,5.733,0,0,1,175,38.3a17,17,0,0,1-3.669-3.171l-.5-.523.108.716a10.282,10.282,0,0,1-.119,5.332,4.156,4.156,0,0,1-1.763,2.018,2.613,2.613,0,0,1-2.6.04,7,7,0,0,1-2.334-2.6,23.489,23.489,0,0,1-1.591-3.129,55.168,55.168,0,0,1-2.1-6.341c-.584-2.056-1.13-4.021-1.79-5.819a25.874,25.874,0,0,0-2.315-4.791A14.533,14.533,0,0,0,150.9,14.67a8.333,8.333,0,0,0-2.659-.928" fill="#455a64"/>
          <path id="Trazado_875507" data-name="Trazado 875507" d="M94.956,53.7a.746.746,0,0,0,.2.077l.608.183a6.786,6.786,0,0,0,1.006.237,10.962,10.962,0,0,0,1.4.2,18.207,18.207,0,0,0,8.816-1.43,23.265,23.265,0,0,0,10.169-8.436,40.3,40.3,0,0,0,5.965-15.114c.583-2.842.883-5.651,1.367-8.317a27.191,27.191,0,0,1,2.25-7.422,14.026,14.026,0,0,1,4.388-5.355,10.062,10.062,0,0,1,2.823-1.376,11.085,11.085,0,0,1,2.878-.432A11.894,11.894,0,0,1,144.9,9.6a14.237,14.237,0,0,1,2.023,2.552.7.7,0,0,0-.087-.2l-.3-.56a10.236,10.236,0,0,0-1.506-1.929,11.691,11.691,0,0,0-3.2-2.175,12.011,12.011,0,0,0-5.008-1.1,11.3,11.3,0,0,0-2.979.416A10.359,10.359,0,0,0,130.9,8.005a14.348,14.348,0,0,0-4.555,5.483,27.374,27.374,0,0,0-2.318,7.536c-.493,2.687-.8,5.491-1.375,8.306a40.32,40.32,0,0,1-5.858,14.958,23.14,23.14,0,0,1-9.937,8.375,18.481,18.481,0,0,1-8.668,1.555,29.182,29.182,0,0,1-3.229-.515" fill="#455a64"/>
          <path id="Trazado_875508" data-name="Trazado 875508" d="M90.194,45.812a3.2,3.2,0,0,0,.865.239,15.815,15.815,0,0,0,2.425.32,21.228,21.228,0,0,0,3.634-.078,22.357,22.357,0,0,0,8.452-2.677,21.251,21.251,0,0,0,3.016-2.028,16.006,16.006,0,0,0,1.8-1.658,3.219,3.219,0,0,0,.57-.693c-.065-.064-.941.864-2.576,2.082a24.193,24.193,0,0,1-3.019,1.908,23.978,23.978,0,0,1-8.292,2.627,24.372,24.372,0,0,1-3.568.178c-2.038-.055-3.289-.309-3.305-.22" fill="#455a64"/>
          <path id="Trazado_875509" data-name="Trazado 875509" d="M126.463,184.43c-.173.05,2.094,11.4,4.314,23.177h.7c-2.219-11.775-4.842-23.227-5.015-23.177" fill="#263238"/>
          <path id="Trazado_875510" data-name="Trazado 875510" d="M136.043,208.176c6.418,0,12.326-4.624,13.223-10.922,2.017-14.148,10.09-38.094,44.124-38.677,25.926-.441,36.839,17.91,39.9,26.073,4.853,12.957,4.251,28.684-3.626,41.567-12.1,19.793-34.365,22.824-46.558,22.868a25.4,25.4,0,0,0-25.43,25.172V327.12L227.9,325.8V312.6a.569.569,0,0,1,.392-.539,122.586,122.586,0,0,0,37.381-20.93l-4.572-60.88s13.366-25.689,12.7-31.469c-6.052-52.8-24.011-82.681-31.309-85.468-8.2-3.128-39.835-1.605-39.835-1.605S189,137.033,169.83,139.837c-10.667,1.561-14.562-11.76-14.562-11.76L130.49,142.6c-17.635,8.9-21.057,43.5-21.381,65.572Z" fill="#ffd947"/>
          <g id="Grupo_1100927" data-name="Grupo 1100927" opacity="0.3">
            <g id="Grupo_1100926" data-name="Grupo 1100926">
              <g id="Grupo_1100925" data-name="Grupo 1100925" clip-path="url(#clip-path-5)">
                <path id="Trazado_875511" data-name="Trazado 875511" d="M217.436,239.28c14.157,3.6,28.114,8.163,42.271,11.767a5.4,5.4,0,0,1,2.878,1.4c1.042,1.208.807,3.039.341,4.564a27.788,27.788,0,0,1-8.525,12.432c-3.08,2.706-6.77,4.989-10.858,5.308-4.552.356-8.928-1.756-12.777-4.212a67.337,67.337,0,0,1-23.519-25.872s3.319-1.366,5.859-2.724a45.354,45.354,0,0,0,4.33-2.659"/>
              </g>
            </g>
          </g>
          <path id="Trazado_875512" data-name="Trazado 875512" d="M233,185.016c5.661,13.062,4.225,28.552-3.841,41.435a44.7,44.7,0,0,1-16.394,15.68A133.441,133.441,0,0,0,232.974,260.6c7.231,5.132,23.9,3.673,30.216-7.561,7.8-13.86,8.447-49.268,8.447-49.268l1.481-21.346-43.6-6.678-.35,1.2A46.985,46.985,0,0,1,233,185.016" fill="#ffc09d"/>
          <path id="Trazado_875513" data-name="Trazado 875513" d="M157.081,176.046l-2.482,3.913c-1.887,1.3-3.683.587-4.849-1.832l-26.838-40.85,6.538-4.158,29.643,39.174s.417,2.077-2.012,3.753" fill="#455a64"/>
          <path id="Trazado_875514" data-name="Trazado 875514" d="M95.077,136.577a29.863,29.863,0,1,1,27.29,1.111,29.713,29.713,0,0,1-27.29-1.111m28.443-50.24a27.853,27.853,0,1,0,11.558,12.517A27.86,27.86,0,0,0,123.52,86.337" fill="#263238"/>
          <path id="Trazado_875515" data-name="Trazado 875515" d="M96.349,135.324a29.863,29.863,0,1,1,27.29,1.111,29.708,29.708,0,0,1-27.29-1.111m28.443-50.24A27.853,27.853,0,1,0,136.35,97.6a27.86,27.86,0,0,0-11.558-12.517" fill="#455a64"/>
          <path id="Trazado_875516" data-name="Trazado 875516" d="M135.912,109.752a2.9,2.9,0,0,1-.031-.491c-.023-.321.015-.795-.057-1.4a21.361,21.361,0,0,0-.989-5.043,27.056,27.056,0,0,0-1.308-3.3,28.863,28.863,0,0,0-2.044-3.526,27.54,27.54,0,0,0-2.806-3.52,26.428,26.428,0,0,0-3.586-3.234,24.586,24.586,0,0,0-4.136-2.483,26.641,26.641,0,0,0-4.235-1.515,25.326,25.326,0,0,0-7.564-.767,24.253,24.253,0,0,0-5.083.789c-.6.133-1.036.311-1.347.391a2.835,2.835,0,0,1-.476.126,2.75,2.75,0,0,1,.455-.186c.305-.1.742-.3,1.335-.451a22.674,22.674,0,0,1,5.1-.895,25,25,0,0,1,7.65.707,26.412,26.412,0,0,1,4.294,1.517,24.637,24.637,0,0,1,4.2,2.511,26.294,26.294,0,0,1,3.623,3.277,27.324,27.324,0,0,1,2.822,3.568,28.383,28.383,0,0,1,2.038,3.577,26.267,26.267,0,0,1,1.285,3.349,20.172,20.172,0,0,1,.9,5.1,13.049,13.049,0,0,1,0,1.41,2.874,2.874,0,0,1-.034.49" fill="#fff"/>
          <path id="Trazado_875517" data-name="Trazado 875517" d="M104.736,134.073c.021-.074,1.385.434,3.686.748l.9.109c.314.036.645.036.985.057.68.055,1.408.019,2.174,0a23.18,23.18,0,0,0,9.55-2.573c.67-.372,1.318-.707,1.878-1.1.283-.189.569-.356.823-.544l.726-.548c1.832-1.428,2.756-2.552,2.811-2.5a6,6,0,0,1-.651.78,8.728,8.728,0,0,1-.833.852,14.421,14.421,0,0,1-1.186,1.045l-.722.571c-.253.2-.539.369-.822.566a21.683,21.683,0,0,1-1.887,1.135,22.465,22.465,0,0,1-9.674,2.607,21.449,21.449,0,0,1-2.2-.034c-.344-.027-.677-.034-.995-.076l-.911-.13a14.694,14.694,0,0,1-1.55-.308,8.716,8.716,0,0,1-1.149-.319,6.076,6.076,0,0,1-.955-.346" fill="#fff"/>
          <path id="Trazado_875518" data-name="Trazado 875518" d="M125.293,114.938c-.063.062-3.958-3.836-8.7-8.706s-8.532-8.868-8.469-8.93,3.957,3.836,8.7,8.707,8.531,8.867,8.468,8.929" fill="#fff"/>
          <path id="Trazado_875519" data-name="Trazado 875519" d="M120.695,122.763a1.854,1.854,0,0,1-.284-.277l-.766-.835-2.785-3.1c-2.348-2.619-5.6-6.228-9.239-10.174s-6.972-7.482-9.392-10.035l-2.862-3.027-.77-.832a1.771,1.771,0,0,1-.253-.305,1.864,1.864,0,0,1,.3.26l.813.79c.7.69,1.705,1.7,2.936,2.956,2.462,2.514,5.823,6.028,9.464,9.976s6.868,7.583,9.174,10.241c1.153,1.329,2.078,2.411,2.709,3.166l.721.875a1.885,1.885,0,0,1,.235.319" fill="#fff"/>
          <g id="Grupo_1100930" data-name="Grupo 1100930" opacity="0.3">
            <g id="Grupo_1100929" data-name="Grupo 1100929">
              <g id="Grupo_1100928" data-name="Grupo 1100928" clip-path="url(#clip-path-6)">
                <path id="Trazado_875520" data-name="Trazado 875520" d="M96.334,86.172l36.683,39.848s-2.969,4.153-5.689,5.959L89.871,91.2a21.413,21.413,0,0,1,6.463-5.028" fill="#fff"/>
              </g>
            </g>
          </g>
          <g id="Grupo_1100933" data-name="Grupo 1100933" opacity="0.3">
            <g id="Grupo_1100932" data-name="Grupo 1100932">
              <g id="Grupo_1100931" data-name="Grupo 1100931" clip-path="url(#clip-path-7)">
                <path id="Trazado_875521" data-name="Trazado 875521" d="M86.718,95.8,122.8,134.62s.334.183-2.151.81L85.7,97.767A4.968,4.968,0,0,1,86.718,95.8" fill="#fff"/>
              </g>
            </g>
          </g>
          <path id="Trazado_875522" data-name="Trazado 875522" d="M181.689,159.851c-7.706-6.188-26.591-21.323-27.454-21.726-1.086-.508-17.707-6.413-20.891-4.516s-11.72,12.612-11.72,12.612.81,6.664,8.256,1.9l6.662-4.267-.012.007,7.916,1.85s-9.654,4.032-11.7,6.151-5.271,10.238-3.257,12.107a7.811,7.811,0,0,0,4.352,2.028s-3.985,5.66,3.084,9.077c0,0,1.033,4.758,4.52,6.623s9.984,1.205,9.984,1.205a3.06,3.06,0,0,0,.775-4.736c-2.238-2.954-6.367-3.363-6.367-3.363l5.117-2.985a23.536,23.536,0,0,1,6.606,3.862,57.237,57.237,0,0,1,9.337-9.362c5.236-3.794,14.788-6.462,14.788-6.462" fill="#ffc09d"/>
          <path id="Trazado_875523" data-name="Trazado 875523" d="M148.931,162.365a2.611,2.611,0,0,0-.76.045,11.523,11.523,0,0,0-2.021.469,13.348,13.348,0,0,0-8.916,9.7,11.623,11.623,0,0,0-.3,2.054,2.619,2.619,0,0,0,.019.761c.071.006.087-1.082.538-2.749a13.883,13.883,0,0,1,8.744-9.509c1.623-.589,2.706-.695,2.694-.766" fill="#ff9b6c"/>
          <path id="Trazado_875524" data-name="Trazado 875524" d="M149.272,153.752a3.373,3.373,0,0,0-.812.057,7.6,7.6,0,0,0-.942.155,12.45,12.45,0,0,0-1.232.293,18.533,18.533,0,0,0-3.085,1.162,19.537,19.537,0,0,0-6.369,4.9,18.545,18.545,0,0,0-1.912,2.687c-.252.4-.427.785-.6,1.116a7.625,7.625,0,0,0-.39.872,3.332,3.332,0,0,0-.263.77c.069.03.493-1.05,1.479-2.619a20.545,20.545,0,0,1,1.946-2.6,22.62,22.62,0,0,1,2.9-2.713,26.609,26.609,0,0,1,3.5-2.374,16.174,16.174,0,0,1,2.869-.953c1.769-.553,2.921-.687,2.91-.761" fill="#ff9b6c"/>
          <path id="Trazado_875525" data-name="Trazado 875525" d="M150.717,143.86a2.192,2.192,0,0,0-1.075-.242,5.919,5.919,0,0,0-2.623.469,4.964,4.964,0,0,0-2.158,1.563,2.193,2.193,0,0,0-.573.941,7.531,7.531,0,0,1,6.429-2.731" fill="#ff9b6c"/>
          <path id="Trazado_875526" data-name="Trazado 875526" d="M239.427,112.521s24.39,2.34,32.133,23.53c6.145,16.819,9.484,67.206,7.944,68.233l-43.061-1.377c-.567-12.287-3.876-21.76-8.514-27.89Z" fill="#ffd947"/>
          <path id="Trazado_875527" data-name="Trazado 875527" d="M237.1,202.907a3.441,3.441,0,0,1,.845.471c.527.328,1.268.838,2.162,1.5a57.887,57.887,0,0,1,6.553,5.686,67.158,67.158,0,0,1,5.705,6.534c.671.884,1.2,1.611,1.541,2.128a3.468,3.468,0,0,1,.495.831,31.95,31.95,0,0,1-2.324-2.729c-1.414-1.7-3.408-4.012-5.786-6.4a78.689,78.689,0,0,0-6.409-5.761c-1.721-1.385-2.828-2.193-2.782-2.26" fill="#ff9b6c"/>
          <path id="Trazado_875528" data-name="Trazado 875528" d="M231.973,151.077c.142.024-.648,5.4-1.765,12.013s-2.137,11.951-2.279,11.927.649-5.4,1.765-12.014,2.137-11.95,2.279-11.926" fill="#263238"/>
          <path id="Trazado_875529" data-name="Trazado 875529" d="M177.779,302.18a3.681,3.681,0,0,1,.714-.108l2.059-.208,7.574-.716c6.394-.614,15.218-1.536,24.94-2.764s18.5-2.536,24.847-3.534l7.513-1.192,2.045-.311a3.941,3.941,0,0,1,.72-.074,3.646,3.646,0,0,1-.7.177l-2.028.408c-1.763.346-4.323.811-7.489,1.355-6.334,1.092-15.11,2.455-24.841,3.688s-18.568,2.093-24.974,2.613c-3.2.261-5.795.448-7.59.552l-2.067.111a3.774,3.774,0,0,1-.722,0" fill="#263238"/>
          <path id="Trazado_875530" data-name="Trazado 875530" d="M173.971,295.743a11.716,11.716,0,0,1,1.775-.161l4.844-.257,15.981-.82,15.978-.925,4.844-.273a11.937,11.937,0,0,1,1.781-.034,11.516,11.516,0,0,1-1.766.237c-1.139.119-2.791.268-4.832.437-4.084.338-9.731.737-15.976,1.078s-11.9.558-16,.668c-2.048.055-3.705.086-4.852.092a11.64,11.64,0,0,1-1.781-.042" fill="#263238"/>
          <path id="Trazado_875531" data-name="Trazado 875531" d="M105.386,204.567a5.271,5.271,0,0,1,.779-1.71,5.056,5.056,0,0,1,8.506.18,3.113,3.113,0,0,1,2.321-3,3.561,3.561,0,0,1,3.391,1.02,5.12,5.12,0,0,1,1.747,2.864c1.049-2.356,6.443-2.068,7.1-.3,0,0,4.641-5.08,7.014-2.582.987,1.037.564,2.63-.089,4.224-.872,2.129-1.446,3.017-2.587,5.361l-4.393.24c-.37,1.375-1.149,6.966-1.314,8.38a9.739,9.739,0,0,1-1.2,4.064,4.238,4.238,0,0,1-3.483,2.135,2.754,2.754,0,0,1-2.742-2.662,6.7,6.7,0,0,1-1.665,3.182A3.6,3.6,0,0,1,115.449,227a2.492,2.492,0,0,1-1.866-2.721c-1.566,1.085-3.881.121-4.875-1.5s-1.018-3.646-.958-5.55a12.584,12.584,0,0,0-.458-5.18,4.725,4.725,0,0,1-.346-.739,8.709,8.709,0,0,1-.058-1.254,9.55,9.55,0,0,0-.529-2.6q-.1-.276-.22-.543c-.214-.472-.528-.873-.769-1.325a.861.861,0,0,1-.111-.31,2.085,2.085,0,0,1,.127-.705" fill="#ffc09d"/>
          <path id="Trazado_875532" data-name="Trazado 875532" d="M100.444,202.128a4.09,4.09,0,0,0-3.237,1.076c-.929,1.038-1.143,3.522-1.037,4.911,1.628.308,2.5-.055,4.124.252.343.065.63-.022.914.181.751.533.629,2.329.932,3.2a3.131,3.131,0,0,0,3.955,1.691,4.2,4.2,0,0,0,2.538-3.743,6.5,6.5,0,0,0-1.654-4.379,9.075,9.075,0,0,0-6.535-3.188" fill="#ffc09d"/>
          <path id="Trazado_875533" data-name="Trazado 875533" d="M128.169,216.918c-.166-.035.5-3.015.928-6.722a29.59,29.59,0,0,0,.178-4.756,15.429,15.429,0,0,1-.126-1.983,5.116,5.116,0,0,1,.492,1.949,20.818,20.818,0,0,1-.026,4.846,37.542,37.542,0,0,1-.845,4.755,7.175,7.175,0,0,1-.6,1.911" fill="#ff9b6c"/>
          <path id="Trazado_875534" data-name="Trazado 875534" d="M120.241,223.319a17.066,17.066,0,0,1,.435-2.84c.318-1.743.764-4.146,1.1-6.818a49.312,49.312,0,0,0,.422-6.872c-.026-1.762-.153-2.851-.069-2.864a10.458,10.458,0,0,1,.437,2.85,36.642,36.642,0,0,1-.273,6.95,65.662,65.662,0,0,1-1.258,6.829,14.581,14.581,0,0,1-.8,2.765" fill="#ff9b6c"/>
          <path id="Trazado_875535" data-name="Trazado 875535" d="M113.533,224.461a29.278,29.278,0,0,1,.549-3.161,60.919,60.919,0,0,0,.838-15.364,29.034,29.034,0,0,1-.2-3.2,2.785,2.785,0,0,1,.22.839c.112.545.233,1.341.349,2.33a46.912,46.912,0,0,1-.844,15.47c-.222.97-.43,1.748-.6,2.278a2.8,2.8,0,0,1-.31.81" fill="#ff9b6c"/>
          <path id="Trazado_875536" data-name="Trazado 875536" d="M104.689,204.879a2.787,2.787,0,0,1,1.37.692,6.951,6.951,0,0,1,2.223,2.969,5.943,5.943,0,0,1,.3,3.707c-.291.967-.9,1.3-.918,1.241a5.11,5.11,0,0,0,.561-1.331,6.5,6.5,0,0,0-.423-3.426,7.926,7.926,0,0,0-1.976-2.877c-.666-.618-1.173-.9-1.133-.975" fill="#ff9b6c"/>
        </g>
      </g>
    </g>
  </g>
</svg>
