<svg id="Grupo_1100106" data-name="Grupo 1100106" xmlns="http://www.w3.org/2000/svg" width="400" height="162" viewBox="0 0 400 162">
  <rect id="Rectángulo_401607" data-name="Rectángulo 401607" width="400" height="162" rx="10" transform="translate(0 0)" fill="#26aab7" opacity="0.4"/>
  <g id="Grupo_1100103" data-name="Grupo 1100103" transform="translate(343 139.558)">
    <g id="Grupo_1100091" data-name="Grupo 1100091" transform="translate(0 0)">
      <path id="Trazado_874599" data-name="Trazado 874599" d="M640.186,391.326c1.583,0,1.583.95,3.166.95s1.583-.95,3.166-.95,1.583.95,3.165.95,1.583-.95,3.166-.95,1.583.95,3.166.95,1.583-.95,3.166-.95,1.583.95,3.166.95,1.583-.95,3.166-.95,1.584.95,3.167.95,1.583-.95,3.166-.95,1.583.95,3.167.95,1.584-.95,3.167-.95,1.583.95,3.166.95,1.583-.95,3.167-.95,1.584.95,3.168.95,1.583-.95,3.167-.95,1.585.95,3.169.95,1.584-.95,3.169-.95" transform="translate(-640.186 -391.326)" fill="none" stroke="#26aab7" stroke-miterlimit="10" stroke-width="2"/>
    </g>
    <g id="Grupo_1100092" data-name="Grupo 1100092" transform="translate(0 4.093)">
      <path id="Trazado_874600" data-name="Trazado 874600" d="M640.186,408.556c1.583,0,1.583.95,3.166.95s1.583-.95,3.166-.95,1.583.95,3.165.95,1.583-.95,3.166-.95,1.583.95,3.166.95,1.583-.95,3.166-.95,1.583.95,3.166.95,1.583-.95,3.166-.95,1.584.95,3.167.95,1.583-.95,3.166-.95,1.583.95,3.167.95,1.584-.95,3.167-.95,1.583.95,3.166.95,1.583-.95,3.167-.95,1.584.95,3.168.95,1.583-.95,3.167-.95,1.585.95,3.169.95,1.584-.95,3.169-.95" transform="translate(-640.186 -408.556)" fill="none" stroke="#26aab7" stroke-miterlimit="10" stroke-width="2"/>
    </g>
    <g id="Grupo_1100093" data-name="Grupo 1100093" transform="translate(0 8.186)">
      <path id="Trazado_874601" data-name="Trazado 874601" d="M640.186,425.786c1.583,0,1.583.95,3.166.95s1.583-.95,3.166-.95,1.583.95,3.165.95,1.583-.95,3.166-.95,1.583.95,3.166.95,1.583-.95,3.166-.95,1.583.95,3.166.95,1.583-.95,3.166-.95,1.584.95,3.167.95,1.583-.95,3.166-.95,1.583.95,3.167.95,1.584-.95,3.167-.95,1.583.95,3.166.95,1.583-.95,3.167-.95,1.584.95,3.168.95,1.583-.95,3.167-.95,1.585.95,3.169.95,1.584-.95,3.169-.95" transform="translate(-640.186 -425.786)" fill="none" stroke="#26aab7" stroke-miterlimit="10" stroke-width="2"/>
    </g>
    <g id="Grupo_1100094" data-name="Grupo 1100094" transform="translate(0 12.279)">
      <path id="Trazado_874602" data-name="Trazado 874602" d="M640.186,443.016c1.583,0,1.583.95,3.166.95s1.583-.95,3.166-.95,1.583.95,3.165.95,1.583-.95,3.166-.95,1.583.95,3.166.95,1.583-.95,3.166-.95,1.583.95,3.166.95,1.583-.95,3.166-.95,1.584.95,3.167.95,1.583-.95,3.166-.95,1.583.95,3.167.95,1.584-.95,3.167-.95,1.583.95,3.166.95,1.583-.95,3.167-.95,1.584.95,3.168.95,1.583-.95,3.167-.95,1.585.95,3.169.95,1.584-.95,3.169-.95" transform="translate(-640.186 -443.016)" fill="none" stroke="#26aab7" stroke-miterlimit="10" stroke-width="2"/>
    </g>
  </g>
</svg>
