<svg xmlns="http://www.w3.org/2000/svg" xmlns:xlink="http://www.w3.org/1999/xlink" width="151.991" height="137.004" viewBox="0 0 151.991 137.004">
  <defs>
    <clipPath id="clip-path">
      <rect id="Rectángulo_402143" data-name="Rectángulo 402143" width="136.323" height="137.004" fill="none"/>
    </clipPath>
  </defs>
  <g id="Grupo_1101511" data-name="Grupo 1101511" transform="translate(-373 -896.596)">
    <path id="_12068" data-name="12068" d="M103.949,72.366C89.64,70.39,74.525,70.874,61.5,77.128,43.447,85.8,31.588,105.464,31.133,125.491s9.978,39.705,26.1,51.6S94.6,193.2,114.312,189.632c19.875-3.6,38.53-15.279,48.9-32.614,6.648-11.116,9.755-24.842,6.082-37.264-2.217-7.5-6.75-14.14-12.082-19.858A89.263,89.263,0,0,0,103.949,72.366Z" transform="translate(347.881 839.667)" fill="#26aab7"/>
    <g id="Grupo_1099024" data-name="Grupo 1099024" transform="translate(322.136 1158.56) rotate(-90)">
      <path id="Trazado_873104" data-name="Trazado 873104" d="M149.557,395.548a1.582,1.582,0,1,0-.106-2.456A1.573,1.573,0,0,0,149.557,395.548Z" transform="translate(16.93 -215.31)" fill="#fff"/>
      <path id="Trazado_873105" data-name="Trazado 873105" d="M417.219,416a1.582,1.582,0,1,0-.105-2.456A1.573,1.573,0,0,0,417.219,416Z" transform="translate(-229.435 -227.035)" fill="#ffd947"/>
      <path id="Trazado_873106" data-name="Trazado 873106" d="M303.26,44.546a1.582,1.582,0,1,0-.106-2.456A1.573,1.573,0,0,0,303.26,44.546Z" transform="translate(-52.901 9.151)" fill="#7d6eb2"/>
      <path id="Trazado_873109" data-name="Trazado 873109" d="M339.452,404.413a3.448,3.448,0,1,0-1.687-4.918A3.468,3.468,0,0,0,339.452,404.413Z" transform="translate(-82.207 -231.255)" fill="#7d6eb2"/>
      <path id="Trazado_873110" data-name="Trazado 873110" d="M390.262,440.006a3.448,3.448,0,1,0-1.687-4.918A3.468,3.468,0,0,0,390.262,440.006Z" transform="translate(-181.42 -237.38)" fill="#ffd947"/>
      <path id="Trazado_873111" data-name="Trazado 873111" d="M176.115,56.142a3.448,3.448,0,1,0-1.687-4.918A3.468,3.468,0,0,0,176.115,56.142Z" transform="translate(-28.13 4.456)" fill="#ffd947"/>
      <path id="Trazado_873113" data-name="Trazado 873113" d="M321.56,66.974a3.448,3.448,0,1,0-1.687-4.918A3.468,3.468,0,0,0,321.56,66.974Z" transform="translate(-76.565 -0.895)" fill="#ffd947"/>
      <circle id="Elipse_11485" data-name="Elipse 11485" cx="1.689" cy="1.689" r="1.689" transform="translate(144.167 189.255)" fill="none" stroke="#26aab7" stroke-linecap="round" stroke-linejoin="round" stroke-width="1.5"/>
    </g>
    <g id="Grupo_1101295" data-name="Grupo 1101295" transform="translate(380.707 896.596)">
      <g id="Grupo_1101294" data-name="Grupo 1101294" clip-path="url(#clip-path)">
        <path id="Trazado_876080" data-name="Trazado 876080" d="M90.26,5.8c19.859,2.376,28.872,22.783,32.37,34.067l3.382-1.3S116.223-.672,87.281.009C35.793,1.221,33.122,39.941,33.122,39.941l2.406.968C38.748,31.747,52.4,1.268,90.26,5.8" transform="translate(-11.976 0)" fill="#f86c93"/>
        <path id="Trazado_876081" data-name="Trazado 876081" d="M90.408,27.3C63.641,24.751,52.229,47.182,49.42,53.929l2.044.823S65.19,29.686,88.173,32.36,116.9,54.114,116.9,54.114l2.367-.907C115.4,42.89,107.124,28.892,90.408,27.3" transform="translate(-17.869 -9.799)" fill="#7d6eb2"/>
        <path id="Trazado_876082" data-name="Trazado 876082" d="M91.623,8.823C53.758,4.293,40.111,34.772,36.89,43.934L40.4,45.348c10.092-23.466,27.963-34.968,50.37-30.78C105.944,17.4,115.257,33.845,119.784,44.5l4.208-1.612c-3.5-11.285-12.511-31.692-32.37-34.067" transform="translate(-13.339 -3.025)" fill="#ffd947"/>
        <path id="Trazado_876083" data-name="Trazado 876083" d="M92.76,17.6c-22.407-4.188-40.278,7.314-50.37,30.78l4.489,1.807C49.687,43.441,61.1,21.01,87.866,23.559c16.716,1.592,25,15.59,28.861,25.908l5.046-1.932c-4.526-10.656-13.839-27.1-29.012-29.933" transform="translate(-15.328 -6.058)" fill="#aee6e6"/>
        <path id="Trazado_876084" data-name="Trazado 876084" d="M39.557,40.481a.319.319,0,0,1-.285-.463C51.115,16.589,64.689,7.63,87.657,8.1c27.344.546,36.284,30.468,36.371,30.77a.319.319,0,1,1-.613.177c-.086-.3-8.9-29.771-35.771-30.308-22.705-.452-36.09,8.4-47.8,31.567a.318.318,0,0,1-.285.175" transform="translate(-14.188 -2.923)" fill="#261d2a"/>
        <path id="Trazado_876085" data-name="Trazado 876085" d="M121.989,48.887a.32.32,0,0,1-.3-.215c-.1-.3-10.794-30.345-34.819-31.287C62.246,16.428,52.362,31.5,44.362,47.031a.319.319,0,1,1-.567-.292c8.094-15.713,18.106-30.98,43.1-29.99,24.463.96,35.292,31.408,35.4,31.715a.32.32,0,0,1-.3.424" transform="translate(-15.822 -6.039)" fill="#261d2a"/>
        <path id="Trazado_876086" data-name="Trazado 876086" d="M119.014,55.37a.319.319,0,0,1-.312-.253c-.057-.269-6.023-26.925-31.433-27.16l-.393,0c-25.18,0-36,22.435-36.106,22.663a.319.319,0,0,1-.578-.271c.109-.231,11.094-23.03,36.684-23.03l.4,0c25.926.24,31.992,27.392,32.051,27.666a.319.319,0,0,1-.246.379.29.29,0,0,1-.066.007" transform="translate(-18.137 -9.877)" fill="#261d2a"/>
        <path id="Trazado_876087" data-name="Trazado 876087" d="M174.455,200.967c-.189,0-.68-.018-2.046-2.341-.162,0-.321,0-.478,0-2.874,0-3.043-.294-3.134-.452a.447.447,0,0,1,0-.381.306.306,0,0,1,.05-.064c.009-.01.938-.949,2.079-2.023-.87-2.047-.612-2.441-.513-2.593a.513.513,0,0,1,.446-.236c.015,0,.086.005.1.008a8.684,8.684,0,0,1,2.155.859c1.475-1.231,1.978-1.393,2.252-1.393a.484.484,0,0,1,.449.262,7.4,7.4,0,0,1,.12,2.711,15.849,15.849,0,0,1,2.446,1.71.517.517,0,0,1,.08.532c-.082.188-.27.621-2.914.889a5.565,5.565,0,0,1-.756,2.368.464.464,0,0,1-.335.142Zm-1.311-2.358a6.848,6.848,0,0,0,1.258,1.672,7.13,7.13,0,0,0,.488-1.766c-.554.043-1.145.075-1.746.094m-3.532-.739a16.423,16.423,0,0,0,2.435.12c-.3-.55-.592-1.119-.844-1.664-.672.636-1.254,1.209-1.591,1.544m2.083-2c.31.686.686,1.424,1.079,2.115.771-.017,1.532-.056,2.229-.114.112-.7.206-1.468.268-2.2-.707-.422-1.428-.827-2.066-1.16-.45.386-.957.841-1.511,1.357m4.184.172c-.057.591-.132,1.2-.219,1.766a6.477,6.477,0,0,0,2.149-.45,17.086,17.086,0,0,0-1.93-1.316m-4.936-2.505a4.691,4.691,0,0,0,.484,1.711c.416-.385.806-.735,1.164-1.046a7.926,7.926,0,0,0-1.648-.665m2.791.534c.5.268,1.047.573,1.59.892a7.985,7.985,0,0,0-.039-1.948,6.148,6.148,0,0,0-1.551,1.056" transform="translate(-61.019 -69.552)" fill="#261d2a"/>
        <path id="Trazado_876088" data-name="Trazado 876088" d="M21.379,28.823a.386.386,0,0,1-.412-.368.314.314,0,0,1,.006-.081c0-.013.275-1.307.652-2.828-1.889-1.282-1.85-1.759-1.835-1.942a.535.535,0,0,1,.334-.448,8.681,8.681,0,0,1,2.278-.446c.642-2.058,1.021-2.478,1.42-2.478a.458.458,0,0,1,.236.064,7.39,7.39,0,0,1,1.571,2.213c.382-.01.748-.015,1.083-.015a8.072,8.072,0,0,1,1.9.127.517.517,0,0,1,.356.4c.033.2.11.668-1.968,2.326a5.556,5.556,0,0,1,.647,2.4.516.516,0,0,1-.575.395h0a8.284,8.284,0,0,1-2.621-.951,11.28,11.28,0,0,1-3.071,1.626m.812-2.905c-.22.9-.4,1.7-.5,2.16A16.963,16.963,0,0,0,23.8,26.858c-.553-.3-1.1-.62-1.611-.941m2.868.868a6.958,6.958,0,0,0,1.963.721,7.153,7.153,0,0,0-.546-1.747c-.442.336-.922.684-1.417,1.025m-2.706-1.521c.633.409,1.349.825,2.054,1.193.638-.432,1.257-.878,1.811-1.3-.286-.651-.622-1.345-.965-1.993-.823.029-1.648.08-2.365.145-.169.569-.349,1.226-.535,1.959m-1.9-1.554a4.715,4.715,0,0,0,1.334,1.177c.142-.55.28-1.055.412-1.51a7.957,7.957,0,0,0-1.745.334m5.507-.569c.271.527.536,1.077.772,1.6A6.493,6.493,0,0,0,28.3,23.2a11.852,11.852,0,0,0-1.586-.07c-.236,0-.487,0-.748.008m-2.14-2.222a6.226,6.226,0,0,0-.732,1.727c.568-.047,1.191-.086,1.819-.112a8.019,8.019,0,0,0-1.087-1.615" transform="translate(-7.155 -7.316)" fill="#261d2a"/>
        <path id="Trazado_876089" data-name="Trazado 876089" d="M7.922,85.983c-.239,0-.465,0-1.117-2.548-2.168-.407-2.358-.659-2.422-.744a.422.422,0,0,1-.059-.322c.038-.138.128-.456,2.6-1.463.878-2.32,1.175-2.32,1.373-2.32a.437.437,0,0,1,.3.153,6.367,6.367,0,0,1,.527,1.65c.07.28.155.619.2.765.13.057.419.16.659.245,1.27.449,1.6.6,1.658.9a.427.427,0,0,1-.117.349,11.5,11.5,0,0,1-2.13.926c-1.036,2.386-1.257,2.4-1.452,2.409h-.02m-2.735-3.57c.43.124,1.234.3,1.934.431a.32.32,0,0,1,.253.236c.181.723.419,1.548.588,2.008.238-.43.6-1.208.9-1.895a.317.317,0,0,1,.186-.174c.6-.213,1.274-.475,1.685-.659-.293-.123-.7-.267-.963-.36-.725-.257-.861-.312-.953-.435A3.594,3.594,0,0,1,8.5,80.543c-.071-.283-.181-.72-.276-1.04a17.757,17.757,0,0,0-.757,1.757.319.319,0,0,1-.179.185,20.76,20.76,0,0,0-2.1.968" transform="translate(-1.56 -28.415)" fill="#261d2a"/>
        <path id="Trazado_876090" data-name="Trazado 876090" d="M194.758,142.8c-.239,0-.465,0-1.117-2.549-2.169-.408-2.358-.659-2.422-.744a.422.422,0,0,1-.059-.322c.038-.137.127-.456,2.6-1.463.878-2.32,1.175-2.32,1.374-2.32a.442.442,0,0,1,.3.153,6.377,6.377,0,0,1,.527,1.65c.07.28.155.619.2.765.13.057.42.16.661.245,1.269.449,1.6.6,1.656.9a.425.425,0,0,1-.117.349,11.569,11.569,0,0,1-2.128.926c-1.037,2.386-1.258,2.4-1.453,2.409h-.02m-2.734-3.571c.43.124,1.234.3,1.934.432a.319.319,0,0,1,.253.236c.181.724.419,1.549.588,2.008.238-.429.6-1.207.9-1.895a.316.316,0,0,1,.186-.174c.6-.214,1.273-.476,1.685-.659-.293-.123-.7-.267-.963-.359-.725-.257-.862-.312-.954-.435a3.584,3.584,0,0,1-.316-1.023c-.071-.283-.181-.72-.276-1.039a17.642,17.642,0,0,0-.757,1.758.32.32,0,0,1-.179.184,20.944,20.944,0,0,0-2.1.968" transform="translate(-69.116 -48.958)" fill="#261d2a"/>
        <path id="Trazado_876091" data-name="Trazado 876091" d="M172.576,26.725c-.239,0-.465,0-1.117-2.549-2.168-.407-2.358-.659-2.422-.744a.422.422,0,0,1-.059-.322c.038-.137.127-.456,2.6-1.463.877-2.32,1.175-2.32,1.374-2.32a.439.439,0,0,1,.3.153,6.376,6.376,0,0,1,.527,1.65c.07.28.155.619.2.765.13.057.42.16.661.245,1.269.449,1.6.6,1.656.9a.425.425,0,0,1-.117.349,11.519,11.519,0,0,1-2.129.926c-1.036,2.386-1.256,2.4-1.452,2.41h-.02m-2.734-3.571c.43.124,1.234.3,1.934.431a.32.32,0,0,1,.253.236c.181.723.419,1.548.587,2.008.238-.43.6-1.208.9-1.895a.32.32,0,0,1,.186-.174c.6-.213,1.273-.475,1.685-.659-.292-.123-.7-.267-.961-.359-.726-.257-.862-.312-.954-.435a3.6,3.6,0,0,1-.316-1.023c-.071-.283-.181-.72-.276-1.039A17.693,17.693,0,0,0,172.122,22a.319.319,0,0,1-.179.185,20.948,20.948,0,0,0-2.1.968" transform="translate(-61.096 -6.988)" fill="#261d2a"/>
        <path id="Trazado_876092" data-name="Trazado 876092" d="M41.975,18.8a2.393,2.393,0,1,1,2.393-2.393A2.4,2.4,0,0,1,41.975,18.8m0-4.147a1.754,1.754,0,1,0,1.754,1.754,1.756,1.756,0,0,0-1.754-1.754" transform="translate(-14.312 -5.069)" fill="#261d2a"/>
        <path id="Trazado_876093" data-name="Trazado 876093" d="M202.642,32.89a2.393,2.393,0,1,1,2.393-2.393,2.4,2.4,0,0,1-2.393,2.393m0-4.147A1.754,1.754,0,1,0,204.4,30.5a1.756,1.756,0,0,0-1.754-1.754" transform="translate(-72.407 -10.162)" fill="#261d2a"/>
        <path id="Trazado_876094" data-name="Trazado 876094" d="M41.642,211.89a2.393,2.393,0,1,1,2.393-2.393,2.4,2.4,0,0,1-2.393,2.393m0-4.147A1.754,1.754,0,1,0,43.4,209.5a1.756,1.756,0,0,0-1.754-1.754" transform="translate(-14.192 -74.885)" fill="#261d2a"/>
        <path id="Trazado_876095" data-name="Trazado 876095" d="M25.613,56.346S24.8,50.589,30.364,52.4s3.811,7.107,1.678,5.321,1.776-7.95,6.048-5.264,3.375,7.989.367,8.408,1.763-6.18,5.6-2.17-4.378,11.469-7.792,8.79-.806-7.085.033-4.424-1.327,5.3-7.337,5.254S25.593,59,27.72,61.671s-1.33,5.741-5.6,2.612.5-9.729,3.493-7.937" transform="translate(-7.384 -18.726)" fill="#fff"/>
        <path id="Trazado_876096" data-name="Trazado 876096" d="M28.923,68.455h-.152a3.634,3.634,0,0,1-3.82-2.739,6.76,6.76,0,0,1-3.2-1.355,4.332,4.332,0,0,1-1.561-5.112c.679-2.077,2.5-3.705,4.144-3.705a2.449,2.449,0,0,1,.741.112,4.747,4.747,0,0,1,.891-3.16c.882-1.016,2.349-1.22,4.318-.579a7.445,7.445,0,0,1,2.049,1.006,4.674,4.674,0,0,1,3.4-1.632,4.368,4.368,0,0,1,2.344.717A6.2,6.2,0,0,1,41.138,56.9a4.057,4.057,0,0,1,2.963,1.4,4.127,4.127,0,0,1,.634,4.72c-1.179,2.758-4.4,5.177-6.9,5.177a3.08,3.08,0,0,1-1.954-.636,5.378,5.378,0,0,1-.755-.716c-1.335,1.058-3.469,1.616-6.2,1.616m-3.3-2.718a3.007,3.007,0,0,0,3.152,2.079h.147c3.209,0,4.921-.771,5.82-1.488a3.911,3.911,0,0,1-.371-3.785,1.237,1.237,0,0,1,1.019-.806c.259,0,.737.137,1.024,1.047A3.507,3.507,0,0,1,35.6,66.41a4.777,4.777,0,0,0,.675.644,2.461,2.461,0,0,0,1.56.5c2.233,0,5.241-2.283,6.313-4.789a3.529,3.529,0,0,0-.508-4.028,3.441,3.441,0,0,0-2.51-1.2A3.523,3.523,0,0,1,38.318,61a2.2,2.2,0,0,1-.3.023.888.888,0,0,1-1.008-.845c-.049-1.071,1.506-2.895,3.493-3.228a5.567,5.567,0,0,0-2.764-4.4,3.739,3.739,0,0,0-2-.619,4.03,4.03,0,0,0-2.906,1.4A3.637,3.637,0,0,1,34.081,57.1a1.5,1.5,0,0,1-1.363,1.118h0a1.66,1.66,0,0,1-1.064-.437c-1.161-.972-.781-2.92.272-4.367a6.873,6.873,0,0,0-1.842-.894c-1.693-.552-2.932-.422-3.637.389a4.7,4.7,0,0,0-.7,3.209.319.319,0,0,1-.48.319,1.794,1.794,0,0,0-.935-.258c-1.362,0-2.948,1.465-3.537,3.266a3.723,3.723,0,0,0,1.332,4.4,6.3,6.3,0,0,0,2.69,1.209,5.338,5.338,0,0,1,.834-3.753,1.25,1.25,0,0,1,2.137-.01,2.685,2.685,0,0,1,.481,2.894,2.988,2.988,0,0,1-2.642,1.552m9.767-3.361c-.107,0-.292.142-.449.454a3.292,3.292,0,0,0,.274,3.052,2.9,2.9,0,0,0,.591-2.9c-.14-.443-.312-.6-.416-.6m-8.665-1.05a.847.847,0,0,0-.58.373,4.752,4.752,0,0,0-.68,3.4,2.4,2.4,0,0,0,2.225-1.2,2.074,2.074,0,0,0-.406-2.219.816.816,0,0,0-.559-.363M40.481,57.6c-1.607.337-2.868,1.841-2.836,2.545,0,.088.01.236.37.236a1.56,1.56,0,0,0,.215-.017A2.871,2.871,0,0,0,40.481,57.6m-8.06-3.786c-.955,1.319-1.128,2.833-.359,3.477a1.065,1.065,0,0,0,.655.288c.324,0,.608-.259.76-.691a2.992,2.992,0,0,0-1.057-3.074" transform="translate(-7.201 -18.546)" fill="#261d2a"/>
        <path id="Trazado_876097" data-name="Trazado 876097" d="M12.216,181.263s-.715-5.047,4.166-3.46,3.34,6.23,1.47,4.665,1.557-6.97,5.3-4.614,2.958,7,.321,7.372,1.546-5.419,4.907-1.9-3.839,10.056-6.832,7.706-.706-6.211.029-3.878-1.163,4.645-6.432,4.606-2.949-8.167-1.085-5.826-1.166,5.033-4.909,2.29.44-8.529,3.062-6.958" transform="translate(-2.772 -64.097)" fill="#fff"/>
        <path id="Trazado_876098" data-name="Trazado 876098" d="M15.1,191.9h-.133a3.274,3.274,0,0,1-3.38-2.4,5.985,5.985,0,0,1-2.8-1.193A3.833,3.833,0,0,1,7.4,183.773c.6-1.837,2.213-3.276,3.67-3.276a2.19,2.19,0,0,1,.608.084,4.158,4.158,0,0,1,.792-2.743c.785-.9,2.085-1.086,3.827-.52a6.6,6.6,0,0,1,1.779.867,4.129,4.129,0,0,1,2.99-1.418,3.876,3.876,0,0,1,2.075.635,5.488,5.488,0,0,1,2.7,4.283,3.606,3.606,0,0,1,2.589,1.236,3.655,3.655,0,0,1,.563,4.182c-1.039,2.43-3.882,4.562-6.085,4.562a2.737,2.737,0,0,1-1.738-.566,4.8,4.8,0,0,1-.642-.6,8.9,8.9,0,0,1-5.432,1.4m-2.838-2.385a2.6,2.6,0,0,0,2.709,1.746H15.1c2.769,0,4.26-.656,5.049-1.274a3.465,3.465,0,0,1-.308-3.327,1.123,1.123,0,0,1,.929-.728c.238,0,.676.123.935.945a3.153,3.153,0,0,1-.7,3.19,4.122,4.122,0,0,0,.564.533,2.123,2.123,0,0,0,1.344.43c1.943,0,4.563-1.99,5.5-4.175a3.057,3.057,0,0,0-.437-3.488,2.992,2.992,0,0,0-2.137-1.039,3.118,3.118,0,0,1-2.494,3.037,1.911,1.911,0,0,1-.271.02h0a.815.815,0,0,1-.923-.778c-.043-.947,1.316-2.553,3.061-2.865a4.85,4.85,0,0,0-2.4-3.795,3.225,3.225,0,0,0-4.228.645,3.215,3.215,0,0,1,1.08,3.33,1.312,1.312,0,0,1-2.19.614c-1.028-.861-.707-2.57.208-3.85a6.014,6.014,0,0,0-1.572-.757c-1.48-.481-2.536-.374-3.149.331a4.064,4.064,0,0,0-.6,2.78.319.319,0,0,1-.48.319,1.536,1.536,0,0,0-.8-.22c-1.178,0-2.552,1.272-3.064,2.836a3.264,3.264,0,0,0,1.154,3.811,5.531,5.531,0,0,0,2.289,1.044,4.706,4.706,0,0,1,.746-3.267,1.272,1.272,0,0,1,.976-.553,1.227,1.227,0,0,1,.959.544,2.39,2.39,0,0,1,.426,2.579,2.647,2.647,0,0,1-2.3,1.38m8.508-2.944c-.068,0-.219.1-.358.377a2.834,2.834,0,0,0,.211,2.59,2.5,2.5,0,0,0,.474-2.467c-.124-.395-.268-.5-.327-.5m-7.6-.921a.689.689,0,0,0-.478.312,4.117,4.117,0,0,0-.594,2.92,2.056,2.056,0,0,0,1.881-1.025,1.779,1.779,0,0,0-.35-1.9.684.684,0,0,0-.46-.3m12.013-3.253a3.189,3.189,0,0,0-2.4,2.18c0,.072.008.169.285.169a1.374,1.374,0,0,0,.183-.013,2.464,2.464,0,0,0,1.934-2.335m-7.015-3.31c-.8,1.131-.946,2.414-.295,2.959a.676.676,0,0,0,1.179-.336,2.571,2.571,0,0,0-.884-2.623" transform="translate(-2.588 -63.916)" fill="#261d2a"/>
        <path id="Trazado_876099" data-name="Trazado 876099" d="M154.266,59.911s-.816-5.757,4.751-3.946,3.811,7.107,1.678,5.321,1.776-7.95,6.048-5.264,3.375,7.989.367,8.408,1.763-6.18,5.6-2.17-4.378,11.469-7.792,8.79-.806-7.085.033-4.424-1.327,5.3-7.337,5.254-3.364-9.316-1.238-6.645-1.33,5.741-5.6,2.612.5-9.729,3.493-7.937" transform="translate(-53.903 -20.015)" fill="#fff"/>
        <path id="Trazado_876100" data-name="Trazado 876100" d="M157.579,72.019h-.153a3.634,3.634,0,0,1-3.82-2.738,6.763,6.763,0,0,1-3.2-1.356,4.331,4.331,0,0,1-1.56-5.112c.679-2.077,2.5-3.7,4.143-3.7a2.449,2.449,0,0,1,.741.112,4.746,4.746,0,0,1,.891-3.16c.882-1.016,2.349-1.22,4.318-.58a7.45,7.45,0,0,1,2.05,1.007,4.673,4.673,0,0,1,3.4-1.632,4.369,4.369,0,0,1,2.343.717,6.2,6.2,0,0,1,3.061,4.89,4.062,4.062,0,0,1,2.964,1.4,4.126,4.126,0,0,1,.633,4.72c-1.179,2.758-4.4,5.177-6.9,5.177a3.081,3.081,0,0,1-1.954-.636,5.452,5.452,0,0,1-.755-.716c-1.334,1.058-3.468,1.615-6.2,1.615m-3.3-2.718a3.005,3.005,0,0,0,3.151,2.079h.148c3.208,0,4.92-.771,5.818-1.488a3.91,3.91,0,0,1-.37-3.785,1.236,1.236,0,0,1,1.018-.806c.26,0,.737.136,1.024,1.047a3.507,3.507,0,0,1-.816,3.624,4.706,4.706,0,0,0,.675.644,2.458,2.458,0,0,0,1.56.5c2.233,0,5.241-2.283,6.313-4.789a3.529,3.529,0,0,0-.508-4.028,3.444,3.444,0,0,0-2.511-1.2,3.523,3.523,0,0,1-2.811,3.465c-.961.133-1.29-.361-1.311-.822-.049-1.071,1.507-2.894,3.494-3.228a5.57,5.57,0,0,0-2.764-4.4,3.741,3.741,0,0,0-2-.619,4.028,4.028,0,0,0-2.907,1.4,3.635,3.635,0,0,1,1.253,3.781,1.5,1.5,0,0,1-1.362,1.117h0a1.659,1.659,0,0,1-1.064-.437c-1.161-.973-.781-2.92.272-4.367a6.878,6.878,0,0,0-1.843-.9c-1.694-.552-2.934-.421-3.638.391a4.686,4.686,0,0,0-.7,3.207.32.32,0,0,1-.48.319,1.788,1.788,0,0,0-.935-.258c-1.361,0-2.948,1.465-3.537,3.265a3.725,3.725,0,0,0,1.332,4.4,6.305,6.305,0,0,0,2.69,1.209,5.342,5.342,0,0,1,.833-3.753,1.25,1.25,0,0,1,2.137-.01,2.686,2.686,0,0,1,.481,2.895,2.987,2.987,0,0,1-2.64,1.551m9.765-3.361c-.106,0-.292.142-.448.454a3.293,3.293,0,0,0,.273,3.052,2.9,2.9,0,0,0,.591-2.9c-.14-.444-.312-.6-.416-.6m-8.665-1.05a.846.846,0,0,0-.579.373,4.751,4.751,0,0,0-.68,3.4,2.4,2.4,0,0,0,2.224-1.194,2.075,2.075,0,0,0-.406-2.22.818.818,0,0,0-.559-.363m13.755-3.722c-1.607.338-2.868,1.842-2.837,2.546,0,.088.01.235.37.235a1.552,1.552,0,0,0,.215-.016,2.871,2.871,0,0,0,2.252-2.765m-8.059-3.785c-.847,1.182-1.213,2.762-.359,3.476a.814.814,0,0,0,1.414-.4,2.991,2.991,0,0,0-1.055-3.073" transform="translate(-53.72 -19.835)" fill="#261d2a"/>
        <path id="Trazado_876101" data-name="Trazado 876101" d="M177.466,157.99s-.715-5.047,4.166-3.46,3.34,6.23,1.47,4.665,1.557-6.97,5.3-4.614,2.958,7,.321,7.372,1.546-5.419,4.907-1.9-3.839,10.056-6.832,7.706-.706-6.211.029-3.878-1.163,4.645-6.432,4.606-2.949-8.167-1.085-5.826-1.166,5.033-4.909,2.29.44-8.529,3.063-6.958" transform="translate(-62.523 -55.682)" fill="#fff"/>
        <path id="Trazado_876102" data-name="Trazado 876102" d="M180.347,168.623h-.134a3.275,3.275,0,0,1-3.38-2.4,5.978,5.978,0,0,1-2.8-1.193,3.833,3.833,0,0,1-1.383-4.525c.6-1.837,2.213-3.276,3.67-3.276a2.192,2.192,0,0,1,.608.085,4.163,4.163,0,0,1,.792-2.743c.786-.9,2.086-1.086,3.827-.52a6.615,6.615,0,0,1,1.779.868,4.131,4.131,0,0,1,2.991-1.418,3.867,3.867,0,0,1,2.075.635,5.487,5.487,0,0,1,2.7,4.282,3.606,3.606,0,0,1,2.588,1.237,3.655,3.655,0,0,1,.564,4.181c-1.039,2.43-3.882,4.563-6.085,4.563a2.741,2.741,0,0,1-1.738-.566,4.8,4.8,0,0,1-.642-.6,8.908,8.908,0,0,1-5.432,1.4m-2.838-2.385a2.6,2.6,0,0,0,2.709,1.746h.13c2.769,0,4.26-.656,5.049-1.274a3.464,3.464,0,0,1-.308-3.327,1.121,1.121,0,0,1,.929-.728c.237,0,.675.123.935.945a3.152,3.152,0,0,1-.7,3.19,4.125,4.125,0,0,0,.564.534,2.123,2.123,0,0,0,1.344.43c1.943,0,4.563-1.991,5.5-4.175a3.058,3.058,0,0,0-.437-3.489,3,3,0,0,0-2.137-1.039,3.12,3.12,0,0,1-2.495,3.038c-.871.121-1.175-.335-1.194-.758-.043-.947,1.316-2.553,3.061-2.865a4.852,4.852,0,0,0-2.4-3.795,3.226,3.226,0,0,0-4.228.646,3.215,3.215,0,0,1,1.08,3.329,1.355,1.355,0,0,1-1.232,1.006h0a1.491,1.491,0,0,1-.958-.392c-1.028-.86-.707-2.57.208-3.85a6.008,6.008,0,0,0-1.572-.757c-1.478-.481-2.534-.375-3.147.329a4.082,4.082,0,0,0-.6,2.782.32.32,0,0,1-.48.318,1.537,1.537,0,0,0-.8-.221c-1.178,0-2.552,1.272-3.064,2.836a3.264,3.264,0,0,0,1.154,3.811,5.529,5.529,0,0,0,2.289,1.044,4.712,4.712,0,0,1,.746-3.267,1.272,1.272,0,0,1,.976-.552,1.227,1.227,0,0,1,.96.543,2.392,2.392,0,0,1,.426,2.579,2.647,2.647,0,0,1-2.3,1.38m8.508-2.944c-.068,0-.22.1-.358.376a2.835,2.835,0,0,0,.211,2.591,2.5,2.5,0,0,0,.474-2.468c-.124-.395-.268-.5-.326-.5m-7.6-.921a.685.685,0,0,0-.477.312,4.113,4.113,0,0,0-.594,2.919,2.054,2.054,0,0,0,1.881-1.025,1.78,1.78,0,0,0-.35-1.9.683.683,0,0,0-.46-.3m12.013-3.253a3.19,3.19,0,0,0-2.4,2.181c0,.071.007.169.285.169a1.376,1.376,0,0,0,.183-.014,2.463,2.463,0,0,0,1.934-2.335m-7.014-3.309c-.8,1.131-.946,2.414-.295,2.959a.9.9,0,0,0,.548.243c.267,0,.5-.216.63-.579a2.571,2.571,0,0,0-.883-2.623" transform="translate(-62.34 -55.502)" fill="#261d2a"/>
        <path id="Trazado_876103" data-name="Trazado 876103" d="M192,79.6H192c-.525-.01-.97-.036-1.295-.06a.319.319,0,1,1,.049-.637c.315.024.748.049,1.257.058A.319.319,0,0,1,192,79.6m1.277-.014a.319.319,0,0,1-.012-.638c.427-.017.848-.048,1.253-.092a.326.326,0,0,1,.352.283.319.319,0,0,1-.283.352c-.418.045-.855.078-1.3.1h-.013m2.538-.283a.319.319,0,0,1-.061-.633,11.264,11.264,0,0,0,1.205-.3.319.319,0,0,1,.191.609,11.849,11.849,0,0,1-1.274.32.343.343,0,0,1-.062.006m2.427-.781a.319.319,0,0,1-.142-.605,5.626,5.626,0,0,0,1.021-.64.319.319,0,0,1,.4.5,6.225,6.225,0,0,1-1.138.714.32.32,0,0,1-.141.033m1.953-1.6a.319.319,0,0,1-.262-.5,3.725,3.725,0,0,0,.51-1.051.319.319,0,0,1,.611.186,4.363,4.363,0,0,1-.6,1.23.319.319,0,0,1-.262.137m.753-2.395h-.011a.319.319,0,0,1-.308-.329l0-.165a6.544,6.544,0,0,0-.09-1.045.319.319,0,1,1,.63-.1,7.157,7.157,0,0,1,.1,1.149l0,.185a.32.32,0,0,1-.319.309m-.382-2.514a.319.319,0,0,1-.307-.233q-.178-.629-.378-1.2a.319.319,0,0,1,.6-.212q.2.587.39,1.237a.319.319,0,0,1-.221.394.313.313,0,0,1-.087.012m-.852-2.4a.319.319,0,0,1-.292-.19c-.174-.394-.36-.769-.554-1.116a.319.319,0,1,1,.557-.312c.2.364.4.757.58,1.17a.319.319,0,0,1-.162.421.334.334,0,0,1-.13.027m-7.1-1.972h-.005a3.16,3.16,0,0,1-.63-.058.319.319,0,0,1,.128-.626,1.792,1.792,0,0,0,.507.045,4.384,4.384,0,0,0,.652-.053.324.324,0,0,1,.363.269.318.318,0,0,1-.268.363,5.045,5.045,0,0,1-.746.06m5.847-.247a.319.319,0,0,1-.259-.132,8.059,8.059,0,0,0-.789-.94.319.319,0,1,1,.455-.448,8.8,8.8,0,0,1,.852,1.013.319.319,0,0,1-.072.446.31.31,0,0,1-.186.061m-3.91-.12a.319.319,0,0,1-.1-.621,8.187,8.187,0,0,0,1.128-.488.319.319,0,1,1,.3.566,8.918,8.918,0,0,1-1.216.525.316.316,0,0,1-.1.017m-3.257-.524a.346.346,0,0,1-.067-.007.319.319,0,0,1-.246-.379,1.593,1.593,0,0,1,.169-.435,3.514,3.514,0,0,1,.6-.79.319.319,0,0,1,.449.454,2.828,2.828,0,0,0-.488.645.969.969,0,0,0-.1.258.319.319,0,0,1-.312.253m5.515-.655a.319.319,0,0,1-.251-.516.293.293,0,0,1-.072-.037,4.692,4.692,0,0,0-1.059-.546.319.319,0,1,1,.214-.6,5.283,5.283,0,0,1,1.2.62.316.316,0,0,1,.137.223c.2-.165.389-.338.568-.516a.319.319,0,1,1,.453.45,8.433,8.433,0,0,1-1.006.863.315.315,0,0,1-.188.062m-3.772-1.1a.319.319,0,0,1-.114-.617,3.592,3.592,0,0,1,1.3-.239h.065a.319.319,0,0,1-.005.638h-.01a3.056,3.056,0,0,0-1.124.2.314.314,0,0,1-.115.022m5.559-.709a.318.318,0,0,1-.261-.5,6.757,6.757,0,0,0,.605-1.055.319.319,0,0,1,.581.266,7.358,7.358,0,0,1-.663,1.156.318.318,0,0,1-.262.136m1.058-2.307a.3.3,0,0,1-.079-.01.319.319,0,0,1-.231-.388,7.141,7.141,0,0,0,.2-1.2.319.319,0,1,1,.636.049,7.771,7.771,0,0,1-.214,1.311.32.32,0,0,1-.309.241m.2-2.532a.319.319,0,0,1-.318-.3,9.56,9.56,0,0,0-.124-.991l-.043-.234a.319.319,0,1,1,.626-.124c.016.082.032.164.046.248a10.2,10.2,0,0,1,.133,1.056.319.319,0,0,1-.3.341h-.024m-.481-2.5a.319.319,0,0,1-.305-.225,9.844,9.844,0,0,0-.433-1.157.319.319,0,0,1,.582-.262,10.662,10.662,0,0,1,.462,1.232.319.319,0,0,1-.306.412m-1.06-2.312a.319.319,0,0,1-.266-.143,6.419,6.419,0,0,0-.76-.946.319.319,0,0,1,.456-.446,6.978,6.978,0,0,1,.836,1.041.319.319,0,0,1-.266.495M187.4,54.6c-.652,0-.887-.329-.887-.636a.984.984,0,0,1,.292-.634.319.319,0,0,1,.481.419.671.671,0,0,0-.129.193c.034,0,.1.02.248.02a.349.349,0,0,1,.351.312.293.293,0,0,1-.273.325Zm1.3-.314a.319.319,0,0,1-.125-.613,5.434,5.434,0,0,0,1.048-.6A.319.319,0,0,1,190,53.6a6.074,6.074,0,0,1-1.171.665.326.326,0,0,1-.126.026m-.655-1.214a.319.319,0,0,1-.167-.591,8.61,8.61,0,0,1,1.183-.6.32.32,0,0,1,.246.59,7.874,7.874,0,0,0-1.1.553.316.316,0,0,1-.167.047m8.5-.253a.316.316,0,0,1-.177-.054,5.748,5.748,0,0,0-1.07-.557.319.319,0,0,1,.234-.594,6.385,6.385,0,0,1,1.189.619.319.319,0,0,1-.176.585m-5.783-.014a.319.319,0,0,1-.237-.533q.117-.13.226-.267c-.091.021-.181.044-.271.069a.319.319,0,1,1-.166-.617c.313-.084.631-.154.948-.207a.318.318,0,0,1,.405-.075.4.4,0,0,1,.038.025.319.319,0,0,1-.016.631l-.038.005A6.249,6.249,0,0,1,191,52.7a.318.318,0,0,1-.237.105m3.428-.923a.315.315,0,0,1-.059-.006,7.4,7.4,0,0,0-1.216-.117.319.319,0,0,1,.005-.638h.005a7.933,7.933,0,0,1,1.322.128.319.319,0,0,1-.057.633m-2.172-1.277a.313.313,0,0,1-.1-.015.319.319,0,0,1-.208-.4A6.455,6.455,0,0,0,191.966,49a.328.328,0,0,1,.354-.279.318.318,0,0,1,.28.354,6.979,6.979,0,0,1-.28,1.3.318.318,0,0,1-.3.222m.309-2.519a.319.319,0,0,1-.319-.305,9.369,9.369,0,0,0-.14-1.225.319.319,0,1,1,.628-.113,9.878,9.878,0,0,1,.149,1.309.318.318,0,0,1-.3.333h-.015m-.446-2.507a.319.319,0,0,1-.3-.223,7.012,7.012,0,0,0-.464-1.127.319.319,0,0,1,.566-.3,7.641,7.641,0,0,1,.506,1.23.32.32,0,0,1-.3.416m-1.193-2.237a.319.319,0,0,1-.243-.112,4.779,4.779,0,0,0-.878-.808.32.32,0,0,1,.37-.521,5.466,5.466,0,0,1,.995.915.319.319,0,0,1-.243.525m-10.745-.569a.319.319,0,0,1-.135-.608c.019-.009.478-.223,1.218-.483a.319.319,0,0,1,.212.6c-.708.248-1.155.456-1.159.458a.312.312,0,0,1-.135.031m2.408-.852a.319.319,0,0,1-.084-.628c.43-.117.857-.216,1.269-.3a.319.319,0,1,1,.119.628c-.4.075-.806.171-1.22.284a.322.322,0,0,1-.084.011m6.28-.046a.317.317,0,0,1-.117-.022,6.17,6.17,0,0,0-1.166-.329.319.319,0,1,1,.115-.628,6.754,6.754,0,0,1,1.287.364.319.319,0,0,1-.118.615m-3.772-.426a.319.319,0,0,1-.029-.637,11.1,11.1,0,0,1,1.315-.049.319.319,0,0,1-.009.638h-.009l-.236,0c-.322,0-.658.017-1,.049h-.031" transform="translate(-64.948 -14.738)" fill="#261d2a"/>
        <path id="Trazado_876104" data-name="Trazado 876104" d="M29.125,151.626a.319.319,0,0,1-.318-.3l-.006-.081a.32.32,0,0,1,.3-.341.325.325,0,0,1,.34.3l.006.082a.32.32,0,0,1-.3.34h-.022m-.151-1.349a.319.319,0,0,1-.315-.269A10.978,10.978,0,0,0,28.4,148.8a.319.319,0,1,1,.615-.17,11.453,11.453,0,0,1,.275,1.281.319.319,0,0,1-.266.365.264.264,0,0,1-.05,0m-.7-2.446a.319.319,0,0,1-.292-.188,6.2,6.2,0,0,0-.6-1.053.319.319,0,1,1,.52-.37,6.892,6.892,0,0,1,.66,1.161.319.319,0,0,1-.291.45M26.8,145.777a.318.318,0,0,1-.211-.08,5.362,5.362,0,0,0-.984-.686.319.319,0,1,1,.3-.561,5.93,5.93,0,0,1,1.1.768.319.319,0,0,1-.211.559m-2.218-1.222a.328.328,0,0,1-.1-.015,8.775,8.775,0,0,0-1.2-.289.319.319,0,1,1,.109-.629,9.469,9.469,0,0,1,1.283.31.319.319,0,0,1-.1.623m-11.435-.135a.319.319,0,0,1,0-.638c.418,0,.841-.018,1.265-.038a.319.319,0,0,1,.029.638c-.432.02-.861.034-1.286.038Zm-1.276-.017H11.86c-.456-.019-.893-.052-1.3-.1a.319.319,0,1,1,.073-.634c.389.045.809.077,1.249.1a.319.319,0,0,1-.013.638m3.827-.093a.319.319,0,0,1-.02-.638l1.272-.086a.328.328,0,0,1,.341.3.32.32,0,0,1-.3.34l-1.275.086H15.7m2.549-.17a.319.319,0,0,1-.02-.638c.432-.026.861-.049,1.284-.063a.307.307,0,0,1,.331.307.32.32,0,0,1-.308.331c-.419.015-.841.037-1.268.063h-.019m3.829-.036h-.024c-.409-.03-.827-.044-1.254-.047a.319.319,0,0,1,0-.638h0c.467,0,.892.019,1.3.049a.319.319,0,0,1-.023.637M9.341,144.1a.366.366,0,0,1-.069-.007,9.669,9.669,0,0,1-1.266-.371.319.319,0,1,1,.222-.6,9.01,9.01,0,0,0,1.183.345.319.319,0,0,1-.07.631m-2.377-.9a.316.316,0,0,1-.16-.043,6.9,6.9,0,0,1-1.086-.779.319.319,0,1,1,.42-.48,6.261,6.261,0,0,0,.986.706.319.319,0,0,1-.16.6m-1.923-1.659a.318.318,0,0,1-.242-.112,10.942,10.942,0,0,1-.8-1.045.319.319,0,0,1,.531-.354,10.287,10.287,0,0,0,.751.983.319.319,0,0,1-.242.527m-1.4-2.127a.319.319,0,0,1-.291-.188,5.946,5.946,0,0,1-.416-1.28.319.319,0,0,1,.626-.124,5.286,5.286,0,0,0,.372,1.143.319.319,0,0,1-.291.45m-.468-2.482H3.149a.319.319,0,0,1-.291-.345,4.751,4.751,0,0,1,.312-1.325.319.319,0,1,1,.6.232,4.123,4.123,0,0,0-.271,1.147.319.319,0,0,1-.317.292m.9-2.354a.323.323,0,0,1-.184-.058.32.32,0,0,1-.077-.445,7.249,7.249,0,0,1,.869-1.011.319.319,0,0,1,.446.457,6.582,6.582,0,0,0-.794.922.317.317,0,0,1-.261.135m1.807-1.791a.319.319,0,0,1-.19-.576,12.028,12.028,0,0,1,1.1-.718.319.319,0,1,1,.32.552,11.605,11.605,0,0,0-1.04.68.316.316,0,0,1-.189.063m2.734-1.018-.032,0A6.512,6.512,0,0,1,7.27,131.5a.319.319,0,1,1,.191-.609c.122.038.245.072.367.1a.326.326,0,0,1,.124-.1c.4-.183.8-.349,1.21-.493a.319.319,0,0,1,.213.6c-.183.065-.367.135-.55.209a.323.323,0,0,1,.108.272.32.32,0,0,1-.317.288m1.272-.02a.319.319,0,0,1-.041-.635,4.087,4.087,0,0,0,1.136-.315.319.319,0,0,1,.266.581,4.736,4.736,0,0,1-1.317.366.322.322,0,0,1-.043,0m-3.7-.728a.316.316,0,0,1-.149-.038,8.515,8.515,0,0,1-1.118-.712.319.319,0,1,1,.382-.511,7.919,7.919,0,0,0,1.034.659.319.319,0,0,1-.149.6m4.3-.367a.319.319,0,0,1-.073-.629c.158-.038.31-.07.455-.1a1.762,1.762,0,0,1,1.011.029.32.32,0,0,1-.271.579,1.771,1.771,0,0,0-.627.02c-.133.024-.275.054-.421.089a.319.319,0,0,1-.073.008M4.148,129.5a.32.32,0,0,1-.223-.091,12.363,12.363,0,0,1-.885-.965.319.319,0,0,1,.493-.406,11.64,11.64,0,0,0,.839.914.319.319,0,0,1,.005.451.316.316,0,0,1-.228.1m-1.631-1.959a.319.319,0,0,1-.263-.139c-.179-.261-.359-.538-.535-.829l-.16-.269a.319.319,0,1,1,.551-.322l.155.261q.255.419.515.8a.32.32,0,0,1-.263.5m-1.276-2.208a.32.32,0,0,1-.289-.184,11.508,11.508,0,0,1-.491-1.217.319.319,0,1,1,.605-.2,10.937,10.937,0,0,0,.464,1.149.319.319,0,0,1-.154.425.312.312,0,0,1-.135.031m-.8-2.418a.319.319,0,0,1-.313-.262A7.448,7.448,0,0,1,0,121.329a.319.319,0,0,1,.318-.32h0a.319.319,0,0,1,.319.317,6.9,6.9,0,0,0,.117,1.213.319.319,0,0,1-.255.372.306.306,0,0,1-.059.006m0-2.536a.326.326,0,0,1-.065-.006A.319.319,0,0,1,.132,120a5.979,5.979,0,0,1,.416-1.277.319.319,0,1,1,.581.264,5.383,5.383,0,0,0-.372,1.142.319.319,0,0,1-.312.255m1.042-2.305a.319.319,0,0,1-.257-.509,7.177,7.177,0,0,1,.9-.99.319.319,0,1,1,.432.469,6.551,6.551,0,0,0-.815.9.32.32,0,0,1-.256.129m6.08-1.636-.041-.32.041-.319a2.58,2.58,0,0,0,1.066-.218.319.319,0,0,1,.269.579,3.186,3.186,0,0,1-1.336.277m-4.22-.093a.32.32,0,0,1-.177-.585,9.459,9.459,0,0,1,1.151-.649.319.319,0,0,1,.275.576,8.789,8.789,0,0,0-1.073.605.318.318,0,0,1-.176.053m2.934-.156a.327.327,0,0,1-.117-.022,4.431,4.431,0,0,1-1.179-.7.32.32,0,0,1,.341-.535.319.319,0,0,1,.222-.309,9.192,9.192,0,0,1,1.284-.317.319.319,0,1,1,.106.629,8.6,8.6,0,0,0-1.194.295h0a3.61,3.61,0,0,0,.656.342.319.319,0,0,1-.117.616m3.059-.948a.319.319,0,0,1-.252-.123.8.8,0,0,0-.461-.208,2.841,2.841,0,0,0-.485-.061.319.319,0,0,1,.029-.638,3.459,3.459,0,0,1,.594.075,1.4,1.4,0,0,1,.825.437.32.32,0,0,1-.251.516m-5.028-.626a.321.321,0,0,1-.256-.128,7.6,7.6,0,0,1-.7-1.134.319.319,0,1,1,.57-.287,6.982,6.982,0,0,0,.637,1.039.32.32,0,0,1-.255.511m-1.161-2.262a.319.319,0,0,1-.3-.214q-.107-.308-.206-.644c-.06-.207-.113-.412-.161-.613a.319.319,0,1,1,.621-.147q.067.287.153.582.093.319.2.611a.319.319,0,0,1-.3.425m-.572-2.482a.319.319,0,0,1-.317-.286,9.5,9.5,0,0,1-.054-1c0-.109,0-.216.005-.322a.3.3,0,0,1,.331-.307.319.319,0,0,1,.307.33c0,.1-.005.2-.005.3a8.909,8.909,0,0,0,.05.931.319.319,0,0,1-.284.351l-.034,0m.1-2.542a.324.324,0,0,1-.06-.006.319.319,0,0,1-.254-.373,8.513,8.513,0,0,1,.347-1.277.319.319,0,1,1,.6.214,7.876,7.876,0,0,0-.32,1.182.319.319,0,0,1-.313.26m.85-2.4a.319.319,0,0,1-.281-.471,9.645,9.645,0,0,1,.7-1.117.319.319,0,0,1,.516.376,8.884,8.884,0,0,0-.656,1.043.32.32,0,0,1-.282.169m1.5-2.063a.32.32,0,0,1-.233-.538,11.877,11.877,0,0,1,.951-.906.319.319,0,0,1,.414.486,11.122,11.122,0,0,0-.9.856.319.319,0,0,1-.233.1m1.939-1.659a.319.319,0,0,1-.18-.583,9.305,9.305,0,0,1,1.141-.683.319.319,0,1,1,.276.576,8.922,8.922,0,0,0-1.057.635.316.316,0,0,1-.18.056" transform="translate(0 -36.127)" fill="#261d2a"/>
        <path id="Trazado_876105" data-name="Trazado 876105" d="M161.3,125.1s1.394-27.543-.523-27.543-4.881.7-5.927,2.964-1.918,27.891-2.964,29.46S161.3,125.1,161.3,125.1" transform="translate(-54.893 -35.276)" fill="#7d6eb2"/>
        <path id="Trazado_876106" data-name="Trazado 876106" d="M109.465,165.751l27.665-1.277s-2.1-17.785,1.885-22.765,15.143-14.338,17.781-20.745,3.52-29.373,3.52-29.373.942-4.334-2.639-4.9-4.711,1.507-5.088,4.523c0,0-4.146-3.015-6.407.188s-.363,24.8-3.015,27.323c-17.906,17.021-28.042,14.345-30.869,21.882s-2.833,25.143-2.833,25.143" transform="translate(-39.581 -31.313)" fill="#7d6eb2"/>
        <path id="Trazado_876107" data-name="Trazado 876107" d="M170.043,122.308a.319.319,0,0,1-.174-.587c.025-.017,2.511-1.694,2.87-6.54.373-5.028,1.309-19.635,1.319-19.782a.324.324,0,0,1,.339-.3.319.319,0,0,1,.3.339c-.01.147-.946,14.758-1.319,19.789-.384,5.187-3.048,6.956-3.161,7.028a.317.317,0,0,1-.172.051" transform="translate(-61.369 -34.387)" fill="#261d2a"/>
        <path id="Trazado_876108" data-name="Trazado 876108" d="M163.193,144.048a.315.315,0,0,1-.183-.057.32.32,0,0,1-.079-.445c.441-.631,1.018-1.751.854-2.154-.014-.033-.043-.1-.209-.135a2.757,2.757,0,0,0-2.173.914.319.319,0,0,1-.475-.427,3.369,3.369,0,0,1,2.767-1.113.857.857,0,0,1,.681.522c.353.87-.706,2.452-.923,2.761a.318.318,0,0,1-.261.136" transform="translate(-58.16 -50.835)" fill="#261d2a"/>
        <path id="Trazado_876109" data-name="Trazado 876109" d="M162.074,123.321a.3.3,0,0,1-.053,0,.319.319,0,0,1-.262-.368c.656-3.921,2.106-24.026,2.12-24.229a.319.319,0,1,1,.637.046c-.06.828-1.466,20.337-2.127,24.289a.319.319,0,0,1-.314.266" transform="translate(-58.487 -35.588)" fill="#261d2a"/>
        <path id="Trazado_876110" data-name="Trazado 876110" d="M115.5,166.483a.32.32,0,0,1-.3-.218c-.068-.206-1.614-5.117,4.332-11.062a15.449,15.449,0,0,1,6.617-4.3,20.961,20.961,0,0,0,7.776-4.829c5.573-4.971,11.162-9.491,14.331-8.917a2.709,2.709,0,0,1,1.963,1.512c.926,1.76-1.064,5.005-6.085,9.922-3.616,3.541-7.531,6.65-7.57,6.681a.319.319,0,0,1-.4-.5c4.28-3.391,15.047-12.84,13.487-15.8a2.073,2.073,0,0,0-1.512-1.182c-2.912-.531-8.6,4.136-13.792,8.765a21.523,21.523,0,0,1-7.981,4.952,14.749,14.749,0,0,0-6.386,4.15c-5.648,5.647-4.192,10.362-4.177,10.409a.319.319,0,0,1-.3.419" transform="translate(-41.571 -49.577)" fill="#261d2a"/>
        <path id="Trazado_876111" data-name="Trazado 876111" d="M147.566,195.563a.316.316,0,0,1-.177-.054.319.319,0,0,1-.089-.442,2.864,2.864,0,0,0,.114-1.825.319.319,0,0,1,.621-.146,3.441,3.441,0,0,1-.2,2.325.319.319,0,0,1-.266.142" transform="translate(-53.242 -69.731)" fill="#261d2a"/>
        <path id="Trazado_876112" data-name="Trazado 876112" d="M148.191,187.938a.316.316,0,0,1-.177-.054.319.319,0,0,1-.089-.442,2.864,2.864,0,0,0,.114-1.825.319.319,0,0,1,.621-.146,3.441,3.441,0,0,1-.2,2.325.319.319,0,0,1-.266.142" transform="translate(-53.468 -66.974)" fill="#261d2a"/>
        <path id="Trazado_876113" data-name="Trazado 876113" d="M143.316,192.938a.316.316,0,0,1-.177-.054.319.319,0,0,1-.089-.442,2.864,2.864,0,0,0,.114-1.825.319.319,0,0,1,.621-.146,3.441,3.441,0,0,1-.2,2.325.319.319,0,0,1-.266.142" transform="translate(-51.705 -68.782)" fill="#261d2a"/>
        <path id="Trazado_876114" data-name="Trazado 876114" d="M144.316,199.813a.316.316,0,0,1-.177-.054.319.319,0,0,1-.089-.442,2.864,2.864,0,0,0,.114-1.825.319.319,0,0,1,.621-.146,3.441,3.441,0,0,1-.2,2.325.319.319,0,0,1-.266.142" transform="translate(-52.067 -71.268)" fill="#261d2a"/>
        <path id="Trazado_876115" data-name="Trazado 876115" d="M148.316,203.813a.316.316,0,0,1-.177-.054.319.319,0,0,1-.089-.442,2.864,2.864,0,0,0,.114-1.825.319.319,0,0,1,.621-.146,3.441,3.441,0,0,1-.2,2.325.319.319,0,0,1-.266.142" transform="translate(-53.513 -72.714)" fill="#261d2a"/>
        <path id="Trazado_876116" data-name="Trazado 876116" d="M42.471,125.1s-1.394-27.543.523-27.543,4.881.7,5.927,2.964,1.918,27.891,2.964,29.46-9.413-4.881-9.413-4.881" transform="translate(-15.18 -35.276)" fill="#7d6eb2"/>
        <path id="Trazado_876117" data-name="Trazado 876117" d="M71.092,165.751l-27.665-1.277s2.1-17.785-1.885-22.765S26.4,127.372,23.762,120.964s-3.52-29.373-3.52-29.373-.942-4.334,2.639-4.9,4.711,1.507,5.088,4.523c0,0,4.146-3.015,6.407.188s.363,24.8,3.015,27.323c17.906,17.021,28.042,14.345,30.869,21.882s2.833,25.143,2.833,25.143" transform="translate(-7.279 -31.313)" fill="#7d6eb2"/>
        <path id="Trazado_876118" data-name="Trazado 876118" d="M36.561,122.308a.314.314,0,0,1-.173-.051c-.112-.072-2.776-1.841-3.161-7.028-.373-5.031-1.309-19.642-1.319-19.789a.319.319,0,0,1,.3-.339.326.326,0,0,1,.339.3c.01.147.946,14.754,1.319,19.782.361,4.872,2.844,6.523,2.87,6.539a.319.319,0,0,1-.173.587" transform="translate(-11.537 -34.387)" fill="#261d2a"/>
        <path id="Trazado_876119" data-name="Trazado 876119" d="M44.187,144.047a.318.318,0,0,1-.261-.136c-.216-.308-1.276-1.891-.923-2.761a.857.857,0,0,1,.681-.522,3.342,3.342,0,0,1,2.767,1.113.319.319,0,0,1-.474.427,2.77,2.77,0,0,0-2.173-.914c-.166.032-.195.1-.209.136-.163.4.413,1.523.854,2.153a.319.319,0,0,1-.261.5" transform="translate(-15.524 -50.834)" fill="#261d2a"/>
        <path id="Trazado_876120" data-name="Trazado 876120" d="M45.782,123.321a.319.319,0,0,1-.314-.266c-.66-3.951-2.067-23.461-2.127-24.289a.319.319,0,0,1,.3-.342.323.323,0,0,1,.342.3c.014.2,1.464,20.307,2.119,24.229a.319.319,0,0,1-.262.368.3.3,0,0,1-.053,0" transform="translate(-15.671 -35.588)" fill="#261d2a"/>
        <path id="Trazado_876121" data-name="Trazado 876121" d="M73.829,166.483a.319.319,0,0,1-.3-.419c.015-.047,1.472-4.762-4.176-10.409a14.75,14.75,0,0,0-6.387-4.15,21.523,21.523,0,0,1-7.981-4.952c-5.191-4.63-10.905-9.288-13.792-8.765a2.073,2.073,0,0,0-1.512,1.182c-1.561,2.964,9.207,12.414,13.487,15.8a.319.319,0,0,1-.4.5c-.04-.031-3.954-3.14-7.57-6.681-5.021-4.916-7.011-8.162-6.085-9.922a2.708,2.708,0,0,1,1.963-1.512c3.158-.572,8.757,3.947,14.331,8.917a20.962,20.962,0,0,0,7.776,4.829,15.454,15.454,0,0,1,6.618,4.3c5.945,5.945,4.4,10.856,4.331,11.062a.32.32,0,0,1-.3.218" transform="translate(-14.063 -49.577)" fill="#261d2a"/>
        <path id="Trazado_876122" data-name="Trazado 876122" d="M62.6,193.836a.319.319,0,0,1-.266-.142,3.441,3.441,0,0,1-.2-2.325.319.319,0,0,1,.621.146,2.864,2.864,0,0,0,.114,1.825.319.319,0,0,1-.089.442.316.316,0,0,1-.177.054" transform="translate(-22.424 -69.107)" fill="#261d2a"/>
        <path id="Trazado_876123" data-name="Trazado 876123" d="M61.976,186.211a.319.319,0,0,1-.266-.142,3.441,3.441,0,0,1-.2-2.325.319.319,0,0,1,.621.146,2.864,2.864,0,0,0,.114,1.825.319.319,0,0,1-.089.442.316.316,0,0,1-.177.054" transform="translate(-22.198 -66.35)" fill="#261d2a"/>
        <path id="Trazado_876124" data-name="Trazado 876124" d="M66.851,191.211a.319.319,0,0,1-.266-.142,3.441,3.441,0,0,1-.2-2.325.319.319,0,0,1,.621.146,2.864,2.864,0,0,0,.114,1.825.319.319,0,0,1-.266.5" transform="translate(-23.961 -68.158)" fill="#261d2a"/>
        <path id="Trazado_876125" data-name="Trazado 876125" d="M65.851,198.086a.319.319,0,0,1-.266-.142,3.441,3.441,0,0,1-.2-2.325.319.319,0,0,1,.621.146,2.864,2.864,0,0,0,.114,1.825.319.319,0,0,1-.089.442.316.316,0,0,1-.177.054" transform="translate(-23.599 -70.643)" fill="#261d2a"/>
        <path id="Trazado_876126" data-name="Trazado 876126" d="M61.851,202.086a.319.319,0,0,1-.266-.142,3.441,3.441,0,0,1-.2-2.325.319.319,0,0,1,.621.146,2.864,2.864,0,0,0,.114,1.825.319.319,0,0,1-.089.442.316.316,0,0,1-.177.054" transform="translate(-22.153 -72.09)" fill="#261d2a"/>
        <path id="Trazado_876127" data-name="Trazado 876127" d="M102.235,149.937c-1.066,0-1.838-.094-1.948-.352-.255-.6-1.253-7.1-1.45-8.4a.319.319,0,0,1,.268-.363.323.323,0,0,1,.363.268c.432,2.833,1.161,7.388,1.378,8.158,1.239.363,10.656-.58,11.693-1.173-.021-.841-.871-5.512-1.428-8.39a.32.32,0,0,1,.628-.121c.155.805,1.519,7.888,1.433,8.67-.03.271-.064.577-3.114,1.028a77.1,77.1,0,0,1-7.822.675" transform="translate(-35.736 -50.37)" fill="#261d2a"/>
        <path id="Trazado_876128" data-name="Trazado 876128" d="M79.554,109.628S78.48,95.055,74.617,94.341c-14.1-2.609-25-20.787-8.094-37.048C87.1,37.509,117.2,54.6,114.717,77.035c-1.56,14.12-12.99,11.709-13.266,17.514s.155,13.54.155,13.54Z" transform="translate(-20.945 -17.568)" fill="#ffd947"/>
        <path id="Trazado_876129" data-name="Trazado 876129" d="M88.385,127.249l24.333-.976s.954,12.715.3,12.792-22.479,1.625-22.786,1.288-1.851-13.1-1.851-13.1" transform="translate(-31.959 -45.658)" fill="#aee6e6"/>
        <path id="Trazado_876130" data-name="Trazado 876130" d="M93.467,113.641a.319.319,0,0,1-.309-.241c-.483-1.9-4.66-18.628-2.672-21.064a.958.958,0,0,1,.8-.369c1.463.07,2.95,1.412,4.014,2.975a9.932,9.932,0,0,1,2.476-4.154,2.11,2.11,0,0,1,2.512-.44,4.68,4.68,0,0,1,1.777,1.862,4.649,4.649,0,0,1,1.543-1.092,2.306,2.306,0,0,1,2.432.333c1.315,1.069,1.733,4.873,1.276,11.629-.331,4.894-1.029,9.558-1.037,9.6a.325.325,0,0,1-.363.268.32.32,0,0,1-.267-.364c.771-5.112,2.271-18.788-.011-20.642a1.676,1.676,0,0,0-1.791-.236,4.181,4.181,0,0,0-1.472,1.1,10.465,10.465,0,0,1,.914,4.256c-.019,1.206-.335,2.021-.887,2.294a1.3,1.3,0,0,1-1.4-.278,2.873,2.873,0,0,1-.961-2.822,7.452,7.452,0,0,1,1.571-3.53,4.3,4.3,0,0,0-1.62-1.822,1.513,1.513,0,0,0-1.8.364,9.661,9.661,0,0,0-2.455,4.358c.094.162.182.324.266.485.349.676,1.1,2.339.571,3.167a.922.922,0,0,1-.857.4.98.98,0,0,1-.9-.757,6.224,6.224,0,0,1,.236-3.19c-.962-1.568-2.434-3.07-3.8-3.135a.307.307,0,0,0-.274.135c-1.352,1.655.931,13.169,2.8,20.5a.319.319,0,0,1-.231.388.3.3,0,0,1-.079.01M95.5,96.547a4.686,4.686,0,0,0-.079,2.178c.107.315.257.322.322.325.217.011.266-.074.289-.11.181-.283.087-1.146-.532-2.393m6.412-3.163a6.752,6.752,0,0,0-1.244,2.962,2.3,2.3,0,0,0,.707,2.226c.217.16.52.33.741.22.246-.122.516-.641.534-1.733a9.546,9.546,0,0,0-.739-3.675" transform="translate(-32.525 -32.582)" fill="#261d2a"/>
        <path id="Trazado_876131" data-name="Trazado 876131" d="M133.037,71.028a.319.319,0,0,1-.312-.257,3.275,3.275,0,0,0-1.36-1.929.319.319,0,0,1,.332-.545,3.864,3.864,0,0,1,1.654,2.348.319.319,0,0,1-.25.375.314.314,0,0,1-.064.006" transform="translate(-47.444 -24.679)" fill="#261d2a"/>
        <path id="Trazado_876132" data-name="Trazado 876132" d="M132.449,76.485a.319.319,0,0,1-.312-.257,3.275,3.275,0,0,0-1.36-1.929.319.319,0,0,1,.332-.545,3.865,3.865,0,0,1,1.654,2.348.319.319,0,0,1-.25.375.314.314,0,0,1-.064.006" transform="translate(-47.232 -26.652)" fill="#261d2a"/>
        <path id="Trazado_876133" data-name="Trazado 876133" d="M138.725,75.454a.319.319,0,0,1-.312-.257,3.238,3.238,0,0,0-1.359-1.927.319.319,0,0,1,.331-.546,3.865,3.865,0,0,1,1.653,2.348.319.319,0,0,1-.25.375.3.3,0,0,1-.063.006" transform="translate(-49.501 -26.279)" fill="#261d2a"/>
        <path id="Trazado_876134" data-name="Trazado 876134" d="M126.332,70.8a.319.319,0,0,1-.312-.257,3.24,3.24,0,0,0-1.359-1.927.319.319,0,0,1,.331-.546,3.869,3.869,0,0,1,1.654,2.348.319.319,0,0,1-.25.375.314.314,0,0,1-.064.006" transform="translate(-45.02 -24.597)" fill="#261d2a"/>
        <path id="Trazado_876135" data-name="Trazado 876135" d="M138.218,82.023a.319.319,0,0,1-.312-.257,3.241,3.241,0,0,0-1.359-1.928.319.319,0,0,1,.331-.545,3.864,3.864,0,0,1,1.653,2.348.319.319,0,0,1-.25.375.3.3,0,0,1-.063.006" transform="translate(-49.318 -28.654)" fill="#261d2a"/>
        <path id="Trazado_876136" data-name="Trazado 876136" d="M141.218,89.382a.293.293,0,0,1-.041,0,.319.319,0,0,1-.276-.357,3.242,3.242,0,0,0-.672-2.261.319.319,0,0,1,.489-.411,3.872,3.872,0,0,1,.817,2.753.319.319,0,0,1-.316.279" transform="translate(-50.677 -31.182)" fill="#261d2a"/>
        <path id="Trazado_876137" data-name="Trazado 876137" d="M135.276,85.758h-.029a.32.32,0,0,1-.29-.346,3.273,3.273,0,0,0-.762-2.233.319.319,0,0,1,.472-.429,3.865,3.865,0,0,1,.926,2.718.319.319,0,0,1-.317.291" transform="translate(-48.493 -29.883)" fill="#261d2a"/>
        <path id="Trazado_876138" data-name="Trazado 876138" d="M94.941,136.831a2.206,2.206,0,0,1-1.826-1.3,2.692,2.692,0,0,1-1.343.707,2.047,2.047,0,0,1-1.74-.361c-1.266-.975-1.4-3.346-1.41-3.446a.319.319,0,0,1,.638-.034c0,.022.13,2.18,1.163,2.975a1.425,1.425,0,0,0,1.22.241,2.026,2.026,0,0,0,1.178-.7c-.019-.044-.035-.089-.052-.135-.4-1.067-.6-2.729.192-3.081a.633.633,0,0,1,.683.094,2.377,2.377,0,0,1,.315,2.219,3.428,3.428,0,0,1-.407.976c.292.594.859,1.415,1.683,1.166a1.547,1.547,0,0,0,.928-.828,2.467,2.467,0,0,1-.157-.3c-.546-1.231-.271-2.916.186-3.281a.429.429,0,0,1,.48-.047c.479.262.571,1.561.483,2.4a4.722,4.722,0,0,1-.258,1.153,1.853,1.853,0,0,0,1.784.471,3.225,3.225,0,0,0,2.236-1.545c-.434-1.191-.422-2.656.312-3.1a.58.58,0,0,1,.666,0c.42.31.387,1.179.216,1.89a5.319,5.319,0,0,1-.481,1.257,1.88,1.88,0,0,0,2.234,1.286,3.074,3.074,0,0,0,1.675-1.189,3.717,3.717,0,0,1-.343-.939c-.215-.991.042-1.839.639-2.11a.657.657,0,0,1,.721.06,1.691,1.691,0,0,1,.266,1.638,4.584,4.584,0,0,1-.535,1.368,2.6,2.6,0,0,0,2.234,1.161,2.129,2.129,0,0,0,1.914-1.532c0-.011.009-.024.014-.036-.559-1.187-.732-2.663-.1-3.153a.536.536,0,0,1,.658-.043c.546.379.524,1.924.165,3.073l-.027.084c.054.1.113.2.177.3.426.651,1.127,1.32,2.049.818a.319.319,0,1,1,.306.561c-1,.543-2.055.189-2.838-.953a2.594,2.594,0,0,1-2.315,1.524,3.249,3.249,0,0,1-2.616-1.25,3.625,3.625,0,0,1-1.878,1.239,2.386,2.386,0,0,1-2.8-1.283,3.792,3.792,0,0,1-2.446,1.5,2.57,2.57,0,0,1-2.184-.5,2.115,2.115,0,0,1-1.181.915,1.656,1.656,0,0,1-.475.072m1.512-4.273a3.857,3.857,0,0,0,.008,1.848,4.863,4.863,0,0,0-.008-1.848m-3.23-.289c-.162.077-.285.855.015,1.9a3.2,3.2,0,0,0,.172-.7c.089-.722-.1-1.154-.187-1.2m12.93-.442s-.019.006-.057.023c-.3.137-.423.736-.28,1.394a3.132,3.132,0,0,0,.114.4,3.781,3.781,0,0,0,.283-.9c.1-.581-.01-.873-.061-.908m-4.616-.188a2.046,2.046,0,0,0-.2,1.671l.027-.079a2.777,2.777,0,0,0,.174-1.592m9.15-.3a2.294,2.294,0,0,0,.042,1.535,3.45,3.45,0,0,0-.042-1.535" transform="translate(-32.044 -47.237)" fill="#261d2a"/>
        <path id="Trazado_876139" data-name="Trazado 876139" d="M100.6,152.6a.319.319,0,0,1-.017-.638l12.945-.672a.309.309,0,0,1,.335.3.318.318,0,0,1-.3.335l-12.945.673H100.6" transform="translate(-36.26 -54.703)" fill="#261d2a"/>
        <path id="Trazado_876140" data-name="Trazado 876140" d="M100.863,149.632a.319.319,0,0,1-.033-.636l12.1-1.261a.319.319,0,0,1,.066.635l-12.1,1.261-.034,0" transform="translate(-36.355 -53.417)" fill="#261d2a"/>
      </g>
    </g>
  </g>
</svg>
