<svg xmlns="http://www.w3.org/2000/svg" xmlns:xlink="http://www.w3.org/1999/xlink" width="78.501" height="74.688" viewBox="0 0 78.501 74.688">
  <defs>
    <clipPath id="clip-path">
      <rect id="Rectángulo_401465" data-name="Rectángulo 401465" width="63" height="64" transform="translate(1120 7878)" fill="#fff" stroke="#707070" stroke-width="1"/>
    </clipPath>
  </defs>
  <g id="Grupo_1101462" data-name="Grupo 1101462" transform="translate(-1112.25 -7878)">
    <path id="_12068" data-name="12068" d="M72.033,71.913c-8.038-1.11-16.53-.839-23.844,2.675C38.045,79.46,31.382,90.507,31.127,101.757s5.606,22.305,14.66,28.988,21,9.051,32.068,7.045c11.165-2.023,21.645-8.583,27.469-18.322,3.735-6.245,5.48-13.956,3.417-20.934a28.6,28.6,0,0,0-6.787-11.156A50.145,50.145,0,0,0,72.033,71.913Z" transform="translate(1081.131 7814.206)" fill="#26aab7"/>
    <g id="Enmascarar_grupo_1098777" data-name="Enmascarar grupo 1098777" clip-path="url(#clip-path)">
      <g id="pensamiento-positivo" transform="translate(1119.5 7878)">
        <g id="Grupo_1101454" data-name="Grupo 1101454">
          <circle id="Elipse_11666" data-name="Elipse 11666" cx="21.233" cy="21.233" r="21.233" transform="translate(1.596 20.595)" fill="#fee97d"/>
          <g id="Grupo_1101453" data-name="Grupo 1101453">
            <g id="XMLID_195_">
              <g id="Grupo_1101450" data-name="Grupo 1101450">
                <path id="Trazado_877907" data-name="Trazado 877907" d="M25.106,20.717h0a21.468,21.468,0,0,0-2.277-.122,21.233,21.233,0,1,0,4.337,42.021,21.238,21.238,0,0,1-3.251-40.623,3.148,3.148,0,0,1,3.054.47l.013.01,10.359,8L36.016,33.76a2.9,2.9,0,0,0,4.4,3.418l2.61-1.909A21.251,21.251,0,0,0,25.106,20.717Z" fill="#fee45a"/>
                <path id="Trazado_877908" data-name="Trazado 877908" d="M24.629,47.277c-.1-.033-8.843,2.294-8.843,2.294L13.3,54.217a15.627,15.627,0,0,0,19.064,0l1.277-4.247s-8.909-2.659-9.009-2.693Z" fill="#f37c7c"/>
                <path id="Trazado_877909" data-name="Trazado 877909" d="M36.461,46.295a.959.959,0,0,1,.9,1.308,15.683,15.683,0,0,1-5,6.614h0a16.861,16.861,0,0,0-9.531-2.74,16.861,16.861,0,0,0-9.531,2.74h0a15.683,15.683,0,0,1-5-6.614.959.959,0,0,1,.9-1.308Z" fill="#ee6161"/>
              </g>
            </g>
            <path id="Trazado_877910" data-name="Trazado 877910" d="M14.154,36.637a1.988,1.988,0,0,1-1.988-1.988V32.785a1.988,1.988,0,1,1,3.975,0v1.864a1.988,1.988,0,0,1-1.988,1.988Z" fill="#baafb9"/>
            <path id="Trazado_877911" data-name="Trazado 877911" d="M31.5,36.637a1.988,1.988,0,0,0,1.988-1.988V32.785a1.988,1.988,0,1,0-3.975,0v1.864A1.988,1.988,0,0,0,31.5,36.637Z" fill="#baafb9"/>
            <path id="Trazado_877912" data-name="Trazado 877912" d="M60.673,5.958a10.912,10.912,0,0,0-13.8-3.994L44,3.3a1.57,1.57,0,0,1-1.333,0L39.8,1.964A10.908,10.908,0,0,0,24.508,14.109l8.908,3.473v3.389l-2.068,1.707.176.136,8.446,6.524a.673.673,0,0,1,.213.787l-1.842,4.567a.393.393,0,0,0,.6.464l4.4-3.217L58.161,20.49A10.912,10.912,0,0,0,60.673,5.958Z" fill="#a6e7f0"/>
            <path id="Trazado_877913" data-name="Trazado 877913" d="M33.04,17.384,31.4,15.334a5.564,5.564,0,0,1-1.216-3.465v-.023a10.913,10.913,0,0,1,7.96-10.5,10.909,10.909,0,0,0-13.64,12.761l8.592,3.35Z" fill="#6bd9e7"/>
            <g id="Grupo_1101451" data-name="Grupo 1101451">
              <path id="Trazado_877914" data-name="Trazado 877914" d="M45.888,29.339,42.627,26.82a56.305,56.305,0,0,1-9.211-8.971v3.123l-2.068,1.707.176.136,8.446,6.524a.673.673,0,0,1,.213.787l-1.842,4.567a.393.393,0,0,0,.6.464l4.4-3.217,2.8-2.166a.671.671,0,0,0-.253-.434Z" fill="#6bd9e7"/>
            </g>
            <g id="XMLID_194_">
              <g id="Grupo_1101452" data-name="Grupo 1101452">
                <path id="Trazado_877915" data-name="Trazado 877915" d="M46.926,12.084a4.07,4.07,0,0,1,4.029,4.646L50.4,20.6a4.07,4.07,0,0,1-4.029,3.494H39.781a5.342,5.342,0,0,1-2.608-.682l-1.3-.728H31.629l-.281,0L28.514,20.49A10.968,10.968,0,0,1,24.5,14.076l12.077,0a.974.974,0,0,0,.615-.218l1.581-1.282A.606.606,0,0,0,39,12.1V9.111a2.416,2.416,0,0,1,4.815-.288l.35,2.91a.4.4,0,0,0,.4.351Z" fill="#ffe5c2"/>
              </g>
            </g>
          </g>
          <path id="Trazado_877916" data-name="Trazado 877916" d="M33.04,17.384,31.4,15.334a5.557,5.557,0,0,1-.756-1.26l-6.146,0a10.968,10.968,0,0,0,4.013,6.413l2.834,2.189.281,0h4.248l1.3.728a5.346,5.346,0,0,0,2.162.66A56.286,56.286,0,0,1,33.04,17.384Z" fill="#fed2a4"/>
        </g>
        <g id="Grupo_1101455" data-name="Grupo 1101455">
          <path id="Trazado_877917" data-name="Trazado 877917" d="M35.25,57.874a20.1,20.1,0,0,1-12.422,4.246,20.293,20.293,0,1,1,0-40.586q.277,0,.552.008a.94.94,0,0,0,.05-1.879q-.3-.008-.6-.008a22.172,22.172,0,1,0,0,44.345A21.958,21.958,0,0,0,36.4,59.36a.94.94,0,0,0-1.152-1.485Z"/>
          <path id="Trazado_877918" data-name="Trazado 877918" d="M43.167,35.638a.94.94,0,0,0-.677,1.143,20.327,20.327,0,0,1-4.446,18.472A.94.94,0,0,0,39.453,56.5,22.207,22.207,0,0,0,44.31,36.316a.94.94,0,0,0-1.143-.677Z"/>
          <path id="Trazado_877919" data-name="Trazado 877919" d="M7.62,46.19a1.889,1.889,0,0,0-.193,1.76,16.576,16.576,0,0,0,30.8,0,1.9,1.9,0,0,0-1.769-2.6H9.2a1.9,1.9,0,0,0-1.576.836Zm28.865,1.065a14.657,14.657,0,0,1-4.183,5.8,18.066,18.066,0,0,0-9.473-2.52c-.36,0-.742.012-1.166.036a.94.94,0,0,0,.107,1.876c.389-.022.735-.033,1.06-.033a16.524,16.524,0,0,1,7.818,1.853,14.7,14.7,0,0,1-15.634,0,14.712,14.712,0,0,1,2.957-1.19.94.94,0,1,0-.515-1.807,16.131,16.131,0,0,0-4.1,1.784,14.668,14.668,0,0,1-4.185-5.8.026.026,0,0,1,.025-.02H36.462a.022.022,0,0,1,.023.022Z"/>
          <path id="Trazado_877920" data-name="Trazado 877920" d="M17.081,34.649V32.785a2.927,2.927,0,1,0-5.855,0v1.864a2.927,2.927,0,1,0,5.855,0Zm-3.975,0V32.785a1.048,1.048,0,1,1,2.1,0v1.864a1.048,1.048,0,0,1-2.1,0Z"/>
          <path id="Trazado_877921" data-name="Trazado 877921" d="M34.431,34.649V32.785a2.927,2.927,0,1,0-5.855,0v1.864a2.927,2.927,0,0,0,5.855,0Zm-3.975,0V32.785a1.048,1.048,0,1,1,2.1,0v1.864a1.048,1.048,0,0,1-2.1,0Z"/>
          <path id="Trazado_877922" data-name="Trazado 877922" d="M61.464,5.45A11.853,11.853,0,0,0,46.477,1.112l-2.871,1.34a.635.635,0,0,1-.538,0L40.2,1.112A11.853,11.853,0,0,0,27.94,21.234l11.3,8.726-1.767,4.382a1.33,1.33,0,0,0,2.021,1.573l4.4-3.217.02-.015L58.734,21.234A11.853,11.853,0,0,0,61.464,5.45Zm-.147,8.1a9.949,9.949,0,0,1-3.732,6.194L42.773,31.187l-2.842,2.078,1.125-2.788a1.62,1.62,0,0,0-.511-1.882L34.1,23.621h1.526l1.082.607a6.284,6.284,0,0,0,3.068.8h6.593a5.034,5.034,0,0,0,4.959-4.3l.552-3.866a5.009,5.009,0,0,0-4.959-5.718H45.041l-.292-2.434a3.356,3.356,0,0,0-6.688.4v2.832L36.6,13.124a.038.038,0,0,1-.024.008H33.822a.94.94,0,0,0,0,1.879h2.757a1.923,1.923,0,0,0,1.207-.427L39.367,13.3a1.541,1.541,0,0,0,.573-1.2V9.111a1.476,1.476,0,0,1,2.942-.176l.349,2.91a1.339,1.339,0,0,0,1.329,1.179h2.365a3.13,3.13,0,0,1,3.1,3.573l-.552,3.866a3.145,3.145,0,0,1-3.1,2.687H39.781a4.4,4.4,0,0,1-2.148-.561l-1.3-.727a.939.939,0,0,0-.46-.12H31.672l-2.583-2a9.945,9.945,0,0,1-3.362-4.734h4.091a.94.94,0,1,0,0-1.879H25.295A9.983,9.983,0,0,1,39.4,2.815l2.871,1.34a2.51,2.51,0,0,0,2.127,0l2.871-1.34A9.974,9.974,0,0,1,61.317,13.552Z"/>
        </g>
      </g>
    </g>
  </g>
</svg>
