<svg xmlns="http://www.w3.org/2000/svg" xmlns:xlink="http://www.w3.org/1999/xlink" width="78.501" height="74.824" viewBox="0 0 78.501 74.824">
  <defs>
    <clipPath id="clip-path">
      <rect id="Rectángulo_402188" data-name="Rectángulo 402188" width="64" height="64" transform="translate(187 6790)" fill="#fff" stroke="#707070" stroke-width="1"/>
    </clipPath>
  </defs>
  <g id="Grupo_1101512" data-name="Grupo 1101512" transform="translate(-186.499 -6875)">
    <g id="Grupo_1101511" data-name="Grupo 1101511">
      <g id="Grupo_1101510" data-name="Grupo 1101510" transform="translate(6.499 85)">
        <path id="_12068" data-name="12068" d="M72.033,71.913c-8.038-1.11-16.53-.839-23.844,2.675C38.045,79.46,31.382,90.507,31.127,101.757s5.606,22.305,14.66,28.988,21,9.051,32.068,7.045c11.165-2.023,21.645-8.583,27.469-18.322,3.735-6.245,5.48-13.956,3.417-20.934a28.6,28.6,0,0,0-6.787-11.156A50.145,50.145,0,0,0,72.033,71.913Z" transform="translate(148.881 6726.343)" fill="#26aab7"/>
        <g id="Enmascarar_grupo_1098761" data-name="Enmascarar grupo 1098761" clip-path="url(#clip-path)">
          <g id="idea-genial3" transform="translate(187 6790)">
            <g id="Grupo_1101320" data-name="Grupo 1101320">
              <g id="Grupo_1101314" data-name="Grupo 1101314">
                <path id="Trazado_876449" data-name="Trazado 876449" d="M42.222,23.978q0,.994-.1,1.964a20.068,20.068,0,0,1-5.074,11.508,23.9,23.9,0,0,0-5.81,11.474l-.139.724H13.039l-.131-.686A22.847,22.847,0,0,0,7.3,37.676a20.15,20.15,0,1,1,34.924-13.7Z" fill="#ffe177"/>
                <path id="Trazado_876450" data-name="Trazado 876450" d="M42.222,23.978a20.068,20.068,0,0,1-5.169,13.471,23.9,23.9,0,0,0-5.81,11.474l-.139.724h-3.75l.139-.724A23.9,23.9,0,0,1,33.3,37.449,20.149,20.149,0,0,0,20.21,3.914q.973-.092,1.971-.088A20.151,20.151,0,0,1,42.222,23.978Z" fill="#ffd15b"/>
                <g id="Grupo_1101313" data-name="Grupo 1101313">
                  <path id="Trazado_876451" data-name="Trazado 876451" d="M42.222,23.978q0,.994-.1,1.964h-.9a3.485,3.485,0,0,0-2.55,1.11l-3.156,3.39a1.266,1.266,0,0,1-2.193-.862V7.259A20.132,20.132,0,0,1,42.222,23.978Z" fill="#ffd15b"/>
                </g>
                <path id="Trazado_876452" data-name="Trazado 876452" d="M31.105,49.646H13.039v3.928a4.467,4.467,0,0,0,4.467,4.467h9.133a4.467,4.467,0,0,0,4.467-4.467Z" fill="#bec6ed"/>
                <path id="Trazado_876453" data-name="Trazado 876453" d="M31.1,49.646v3.928a4.466,4.466,0,0,1-4.466,4.466h-3.75a4.466,4.466,0,0,0,4.466-4.466V49.646Z" fill="#a2aee6"/>
                <path id="Trazado_876454" data-name="Trazado 876454" d="M22.072,63.063h0a3.429,3.429,0,0,1-3.429-3.429V58.041H25.5v1.593A3.429,3.429,0,0,1,22.072,63.063Z" fill="#d5daf3"/>
                <path id="Trazado_876455" data-name="Trazado 876455" d="M25.5,58.04v1.594a3.429,3.429,0,0,1-5.3,2.871,3.425,3.425,0,0,0,1.554-2.871V58.04Z" fill="#bec6ed"/>
              </g>
              <g id="Grupo_1101315" data-name="Grupo 1101315">
                <path id="Trazado_876456" data-name="Trazado 876456" d="M22.072,12.646V37.222a1.988,1.988,0,0,1-1.988,1.988h0A2.676,2.676,0,0,1,17.551,37.4l-.586-1.723s-6.2-.179-6.115-7.086c0,0-3.356-2.985-1.926-8.751,1.231-4.963,6.195-6.189,7.63-5.83a4.052,4.052,0,0,1,3.829-3.05A1.69,1.69,0,0,1,22.072,12.646Z" fill="#ffdfcf"/>
                <path id="Trazado_876457" data-name="Trazado 876457" d="M22.073,12.646V37.221a1.988,1.988,0,0,1-1.987,1.989,2.666,2.666,0,0,1-2.05-.956s0,0,0,0a1.983,1.983,0,0,0,.288-1.031V12.646a1.687,1.687,0,0,0-.257-.9,3.728,3.728,0,0,1,2.318-.794A1.69,1.69,0,0,1,22.073,12.646Z" fill="#ffcebf"/>
                <path id="Trazado_876458" data-name="Trazado 876458" d="M35.2,25.28a7.528,7.528,0,0,1-1.9,3.307c.087,6.908-6.114,7.086-6.114,7.086L26.594,37.4A2.676,2.676,0,0,1,24.06,39.21a1.988,1.988,0,0,1-1.988-1.988V12.646a1.69,1.69,0,0,1,1.689-1.691,4.053,4.053,0,0,1,3.829,3.05,3.75,3.75,0,0,1,1.464.031,7.8,7.8,0,0,1,6.165,5.8A10.227,10.227,0,0,1,35.2,25.28Z" fill="#ffdfcf"/>
                <path id="Trazado_876459" data-name="Trazado 876459" d="M35.2,25.28a7.518,7.518,0,0,1-1.9,3.306c.088,6.908-6.114,7.086-6.114,7.086L26.594,37.4A2.676,2.676,0,0,1,24.06,39.21a1.988,1.988,0,0,1-1.7-.958,2.669,2.669,0,0,0,.484-.857l.227-.667A1.81,1.81,0,0,1,24.4,35.537a6.229,6.229,0,0,0,5.127-6.147,2.428,2.428,0,0,1,.518-1.355,8.183,8.183,0,0,0,1.4-2.754,10.222,10.222,0,0,0,.022-5.444,7.8,7.8,0,0,0-6.165-5.8,5.546,5.546,0,0,0-.7-.083,1.259,1.259,0,0,1-1.057-.711,4.274,4.274,0,0,0-1.223-1.492,1.688,1.688,0,0,1,1.433-.8,4.053,4.053,0,0,1,3.829,3.05,3.768,3.768,0,0,1,1.465.031,7.8,7.8,0,0,1,6.165,5.8A10.222,10.222,0,0,1,35.2,25.28Z" fill="#ffcebf"/>
              </g>
              <path id="Trazado_876460" data-name="Trazado 876460" d="M24.865,53.756H19.28a1.432,1.432,0,0,1-1.432-1.432V49.646H26.3v2.678A1.432,1.432,0,0,1,24.865,53.756Z" fill="#6c7fd8"/>
              <path id="Trazado_876461" data-name="Trazado 876461" d="M26.3,49.646v2.678a1.432,1.432,0,0,1-1.431,1.432h-3.75a1.432,1.432,0,0,0,1.431-1.432V49.646Z" fill="#4f66d0"/>
              <g id="Grupo_1101319" data-name="Grupo 1101319">
                <g id="Grupo_1101316" data-name="Grupo 1101316">
                  <path id="Trazado_876462" data-name="Trazado 876462" d="M59.665.938H39.49a2.414,2.414,0,0,0-2.414,2.414V29.579a1.266,1.266,0,0,0,2.193.863l3.156-3.39a3.485,3.485,0,0,1,2.55-1.11h14.69a2.414,2.414,0,0,0,2.414-2.414V3.352A2.414,2.414,0,0,0,59.665.938Z" fill="#ffe177"/>
                </g>
                <g id="Grupo_1101317" data-name="Grupo 1101317">
                  <path id="Trazado_876463" data-name="Trazado 876463" d="M62.079,3.352V23.526a2.415,2.415,0,0,1-2.414,2.415h-4.34a2.415,2.415,0,0,0,2.414-2.415V3.351A2.414,2.414,0,0,0,55.325.938h4.34A2.414,2.414,0,0,1,62.079,3.352Z" fill="#ffd15b"/>
                </g>
                <g id="Grupo_1101318" data-name="Grupo 1101318">
                  <path id="Trazado_876464" data-name="Trazado 876464" d="M49.578,12.739V22.53a1.149,1.149,0,0,1-.523-.126l-6.977-3.557a1.232,1.232,0,0,1-.661-1.1V9.324a1.259,1.259,0,0,1,.182-.653Z" fill="#bec6ed"/>
                  <path id="Trazado_876465" data-name="Trazado 876465" d="M49.578,12.739v9.791a1.15,1.15,0,0,1-.522-.126L47.078,21.4V11.464Z" fill="#a2aee6"/>
                  <path id="Trazado_876466" data-name="Trazado 876466" d="M57.739,9.324v8.423a1.231,1.231,0,0,1-.661,1.1L50.1,22.4a1.149,1.149,0,0,1-.523.126V12.739l7.979-4.068A1.259,1.259,0,0,1,57.739,9.324Z" fill="#d5daf3"/>
                  <path id="Trazado_876467" data-name="Trazado 876467" d="M57.739,9.324v8.422a1.23,1.23,0,0,1-.661,1.1L50.1,22.4a1.159,1.159,0,0,1-.524.126V21.4l5-2.55a1.23,1.23,0,0,0,.661-1.1V9.853l2.319-1.182A1.263,1.263,0,0,1,57.739,9.324Z" fill="#bec6ed"/>
                  <path id="Trazado_876468" data-name="Trazado 876468" d="M57.557,8.671l-7.979,4.068L41.6,8.671a1.2,1.2,0,0,1,.457-.436l6.977-3.748.005,0a1.148,1.148,0,0,1,1.086,0L57.1,8.235A1.2,1.2,0,0,1,57.557,8.671Z" fill="#6c7fd8"/>
                  <path id="Trazado_876469" data-name="Trazado 876469" d="M57.558,8.67l-7.98,4.069-1.25-.637,6.259-3.191a.382.382,0,0,0,.02-.672l-.006,0-6.272-3.37.7-.379.006,0a1.149,1.149,0,0,1,1.086,0L57.1,8.236A1.2,1.2,0,0,1,57.558,8.67Z" fill="#4f66d0"/>
                </g>
              </g>
            </g>
            <g id="Grupo_1101325" data-name="Grupo 1101325">
              <g id="Grupo_1101322" data-name="Grupo 1101322">
                <g id="Grupo_1101321" data-name="Grupo 1101321">
                  <path id="Trazado_876470" data-name="Trazado 876470" d="M55.325,25.941h4.34a2.414,2.414,0,0,0,2.414-2.414V3.352A2.414,2.414,0,0,0,59.665.938H39.49a2.414,2.414,0,0,0-2.414,2.414V29.578a1.266,1.266,0,0,0,2.193.863l3.156-3.39a3.485,3.485,0,0,1,2.55-1.11h5.993" fill="none" stroke="#000" stroke-linecap="round" stroke-linejoin="round" stroke-miterlimit="10" stroke-width="1.875"/>
                </g>
                <path id="Trazado_876471" data-name="Trazado 876471" d="M49.578,12.739V22.53a1.149,1.149,0,0,1-.523-.126l-6.977-3.557a1.232,1.232,0,0,1-.661-1.1V9.324A1.259,1.259,0,0,1,41.6,8.67Z" fill="none" stroke="#000" stroke-linecap="round" stroke-linejoin="round" stroke-miterlimit="10" stroke-width="1.875"/>
                <path id="Trazado_876472" data-name="Trazado 876472" d="M57.739,9.324v8.423a1.231,1.231,0,0,1-.661,1.1L50.1,22.4a1.149,1.149,0,0,1-.523.126V12.739l7.979-4.068A1.259,1.259,0,0,1,57.739,9.324Z" fill="none" stroke="#000" stroke-linecap="round" stroke-linejoin="round" stroke-miterlimit="10" stroke-width="1.875"/>
                <path id="Trazado_876473" data-name="Trazado 876473" d="M57.557,8.671l-7.979,4.068L41.6,8.671a1.2,1.2,0,0,1,.457-.436l6.977-3.748.005,0a1.148,1.148,0,0,1,1.086,0L57.1,8.235A1.2,1.2,0,0,1,57.557,8.671Z" fill="none" stroke="#000" stroke-linecap="round" stroke-linejoin="round" stroke-miterlimit="10" stroke-width="1.875"/>
              </g>
              <g id="Grupo_1101323" data-name="Grupo 1101323">
                <path id="Trazado_876474" data-name="Trazado 876474" d="M33.041,7.07A20.15,20.15,0,0,0,7.3,37.676,22.848,22.848,0,0,1,12.908,48.96l.131.686H31.105l.138-.723a23.91,23.91,0,0,1,5.81-11.474,20.076,20.076,0,0,0,4.841-9.828" fill="none" stroke="#000" stroke-linecap="round" stroke-linejoin="round" stroke-miterlimit="10" stroke-width="1.875"/>
                <path id="Trazado_876475" data-name="Trazado 876475" d="M14.347,56.732a4.453,4.453,0,0,0,3.159,1.308h9.133a4.467,4.467,0,0,0,4.467-4.467V49.646H13.039v3.041" fill="none" stroke="#000" stroke-linecap="round" stroke-linejoin="round" stroke-miterlimit="10" stroke-width="1.875"/>
                <path id="Trazado_876476" data-name="Trazado 876476" d="M22.072,63.063h0a3.429,3.429,0,0,1-3.429-3.429V58.041H25.5v1.593A3.429,3.429,0,0,1,22.072,63.063Z" fill="none" stroke="#000" stroke-linecap="round" stroke-linejoin="round" stroke-miterlimit="10" stroke-width="1.875"/>
              </g>
              <g id="Grupo_1101324" data-name="Grupo 1101324">
                <path id="Trazado_876477" data-name="Trazado 876477" d="M22.072,12.646V37.222a1.988,1.988,0,0,1-1.988,1.988h0A2.676,2.676,0,0,1,17.551,37.4l-.586-1.723s-6.2-.179-6.115-7.086c0,0-3.356-2.985-1.926-8.751,1.231-4.963,6.195-6.189,7.63-5.83a4.052,4.052,0,0,1,3.829-3.05A1.69,1.69,0,0,1,22.072,12.646Z" fill="none" stroke="#000" stroke-linecap="round" stroke-linejoin="round" stroke-miterlimit="10" stroke-width="1.875"/>
                <path id="Trazado_876478" data-name="Trazado 876478" d="M35.2,25.28a7.528,7.528,0,0,1-1.9,3.307c.087,6.908-6.114,7.086-6.114,7.086L26.594,37.4A2.676,2.676,0,0,1,24.06,39.21a1.988,1.988,0,0,1-1.988-1.988V12.646a1.69,1.69,0,0,1,1.689-1.691,4.053,4.053,0,0,1,3.829,3.05,3.75,3.75,0,0,1,1.464.031,7.8,7.8,0,0,1,6.165,5.8A10.227,10.227,0,0,1,35.2,25.28Z" fill="none" stroke="#000" stroke-linecap="round" stroke-linejoin="round" stroke-miterlimit="10" stroke-width="1.875"/>
              </g>
              <path id="Trazado_876479" data-name="Trazado 876479" d="M24.865,53.756H19.28a1.432,1.432,0,0,1-1.432-1.432V49.646H26.3v2.678A1.432,1.432,0,0,1,24.865,53.756Z" fill="none" stroke="#000" stroke-linecap="round" stroke-linejoin="round" stroke-miterlimit="10" stroke-width="1.875"/>
              <line id="Línea_1755" data-name="Línea 1755" x1="1.508" y1="4.748" transform="translate(15.457 30.925)" fill="none" stroke="#000" stroke-linecap="round" stroke-linejoin="round" stroke-miterlimit="10" stroke-width="1.875"/>
              <path id="Trazado_876480" data-name="Trazado 876480" d="M10.85,28.587a4.564,4.564,0,0,1,2.33-3.866" fill="none" stroke="#000" stroke-linecap="round" stroke-linejoin="round" stroke-miterlimit="10" stroke-width="1.875"/>
              <path id="Trazado_876481" data-name="Trazado 876481" d="M12.96,21.258s-1.429,4.232,2.693,5" fill="none" stroke="#000" stroke-linecap="round" stroke-linejoin="round" stroke-miterlimit="10" stroke-width="1.875"/>
              <path id="Trazado_876482" data-name="Trazado 876482" d="M16.554,14.005a5.575,5.575,0,0,0,.178,3.277" fill="none" stroke="#000" stroke-linecap="round" stroke-linejoin="round" stroke-miterlimit="10" stroke-width="1.875"/>
              <line id="Línea_1756" data-name="Línea 1756" y1="4.748" x2="1.508" transform="translate(27.18 30.925)" fill="none" stroke="#000" stroke-linecap="round" stroke-linejoin="round" stroke-miterlimit="10" stroke-width="1.875"/>
              <path id="Trazado_876483" data-name="Trazado 876483" d="M33.294,28.587a4.564,4.564,0,0,0-2.33-3.866" fill="none" stroke="#000" stroke-linecap="round" stroke-linejoin="round" stroke-miterlimit="10" stroke-width="1.875"/>
              <path id="Trazado_876484" data-name="Trazado 876484" d="M31.184,21.258s1.429,4.232-2.693,5" fill="none" stroke="#000" stroke-linecap="round" stroke-linejoin="round" stroke-miterlimit="10" stroke-width="1.875"/>
              <path id="Trazado_876485" data-name="Trazado 876485" d="M27.59,14.005a5.575,5.575,0,0,1-.178,3.277" fill="none" stroke="#000" stroke-linecap="round" stroke-linejoin="round" stroke-miterlimit="10" stroke-width="1.875"/>
            </g>
          </g>
        </g>
      </g>
    </g>
  </g>
</svg>
