<svg xmlns="http://www.w3.org/2000/svg" xmlns:xlink="http://www.w3.org/1999/xlink" width="78.501" height="70.574" viewBox="0 0 78.501 70.574">
  <defs>
    <clipPath id="clip-path">
      <rect id="Rectángulo_401729" data-name="Rectángulo 401729" width="59" height="59" transform="translate(303 5305)" fill="#fff" stroke="#707070" stroke-width="1"/>
    </clipPath>
  </defs>
  <g id="Grupo_1100231" data-name="Grupo 1100231" transform="translate(-291.499 -5305)">
    <path id="_12068" data-name="12068" d="M72.033,71.913c-8.038-1.11-16.53-.839-23.844,2.675C38.045,79.46,31.382,90.507,31.127,101.757s5.606,22.305,14.66,28.988,21,9.051,32.068,7.045c11.165-2.023,21.645-8.583,27.469-18.322,3.735-6.245,5.48-13.956,3.417-20.934a28.6,28.6,0,0,0-6.787-11.156A50.145,50.145,0,0,0,72.033,71.913Z" transform="translate(260.38 5237.093)" fill="#7d6eb2"/>
    <g id="Enmascarar_grupo_1098744" data-name="Enmascarar grupo 1098744" clip-path="url(#clip-path)">
      <g id="cpm" transform="translate(302.048 5304.048)">
        <g id="Grupo_1100311" data-name="Grupo 1100311">
          <g id="Grupo_1100299" data-name="Grupo 1100299">
            <path id="Trazado_875073" data-name="Trazado 875073" d="M5.71,51.387H59v3.806A3.805,3.805,0,0,1,55.194,59H5.71A3.805,3.805,0,0,1,1.9,55.194V51.387Z" fill="#969faa"/>
          </g>
          <g id="Grupo_1100300" data-name="Grupo 1100300">
            <path id="Trazado_875074" data-name="Trazado 875074" d="M5.71,19.032H55.194V51.387H5.71Z" fill="#ccd1d9"/>
          </g>
          <g id="Grupo_1100301" data-name="Grupo 1100301">
            <path id="Trazado_875075" data-name="Trazado 875075" d="M9.516,19.032H51.387v27.6a.952.952,0,0,1-.952.952H10.468a.952.952,0,0,1-.952-.952Z" fill="#69d6f4"/>
          </g>
          <g id="Grupo_1100302" data-name="Grupo 1100302">
            <path id="Trazado_875076" data-name="Trazado 875076" d="M41.871,41.871h1.9a1.909,1.909,0,0,1,1.9,1.9v1.9a1.909,1.909,0,0,1-1.9,1.9H32.355a1.909,1.909,0,0,1-1.9-1.9v-1.9a1.909,1.909,0,0,1,1.9-1.9h9.516Z" fill="#ffc729"/>
          </g>
          <g id="Grupo_1100303" data-name="Grupo 1100303">
            <path id="Trazado_875077" data-name="Trazado 875077" d="M26.645,36.161h1.9a1.909,1.909,0,0,1,1.9,1.9v1.9a1.909,1.909,0,0,1-1.9,1.9H17.129a1.909,1.909,0,0,1-1.9-1.9v-1.9a1.909,1.909,0,0,1,1.9-1.9h9.516Z" fill="#ffc729"/>
          </g>
          <g id="Grupo_1100304" data-name="Grupo 1100304">
            <path id="Trazado_875078" data-name="Trazado 875078" d="M41.871,36.161h1.9a1.909,1.909,0,0,1,1.9,1.9v1.9a1.909,1.909,0,0,1-1.9,1.9H32.355a1.909,1.909,0,0,1-1.9-1.9v-1.9a1.909,1.909,0,0,1,1.9-1.9h9.516Z" fill="#fcd770"/>
          </g>
          <g id="Grupo_1100305" data-name="Grupo 1100305">
            <path id="Trazado_875079" data-name="Trazado 875079" d="M26.645,41.871h1.9a1.909,1.909,0,0,1,1.9,1.9v1.9a1.909,1.909,0,0,1-1.9,1.9H17.129a1.909,1.909,0,0,1-1.9-1.9v-1.9a1.909,1.909,0,0,1,1.9-1.9h9.516Z" fill="#fcd770"/>
          </g>
          <g id="Grupo_1100306" data-name="Grupo 1100306">
            <path id="Trazado_875080" data-name="Trazado 875080" d="M19.032,36.161h-1.9a1.909,1.909,0,0,1-1.9-1.9v-1.9a1.909,1.909,0,0,1,1.9-1.9h11.5a1.912,1.912,0,0,1,1.818,1.9v1.9a1.909,1.909,0,0,1-1.9,1.9H19.032Z" fill="#fcd770"/>
          </g>
          <g id="Grupo_1100307" data-name="Grupo 1100307">
            <path id="Trazado_875081" data-name="Trazado 875081" d="M55.194,19.47a37.7,37.7,0,0,1-3.806,2.845,38.118,38.118,0,0,1-7.565,3.816,38.1,38.1,0,0,1-13.37,2.417,13.323,13.323,0,0,0,0-26.645,38.328,38.328,0,0,1,25.065,9.345l2.76,2.408a2.066,2.066,0,0,1,0,3.14L55.517,19.2c-.1.1-.219.181-.324.266Z" fill="#e6e9ed"/>
          </g>
          <g id="Grupo_1100308" data-name="Grupo 1100308">
            <path id="Trazado_875082" data-name="Trazado 875082" d="M30.452,28.548c-.571,0-1.151-.01-1.722-.038A38.389,38.389,0,0,1,9.516,22.315,37.7,37.7,0,0,1,5.71,19.47c-.1-.086-.219-.171-.324-.266L2.626,16.8a2.066,2.066,0,0,1,0-3.14l2.76-2.408A38.385,38.385,0,0,1,30.452,1.9a13.323,13.323,0,0,0,0,26.645Z" fill="#e6e9ed"/>
          </g>
          <g id="Grupo_1100309" data-name="Grupo 1100309">
            <path id="Trazado_875083" data-name="Trazado 875083" d="M30.452,1.9A13.323,13.323,0,1,1,17.129,15.226,13.325,13.325,0,0,1,30.452,1.9Z" fill="#ffc729"/>
          </g>
          <g id="Grupo_1100310" data-name="Grupo 1100310">
            <circle id="Elipse_11621" data-name="Elipse 11621" cx="9.516" cy="9.516" r="9.516" transform="translate(20.935 5.71)" fill="#fcd770"/>
          </g>
        </g>
        <g id="Grupo_1100312" data-name="Grupo 1100312">
          <path id="Trazado_875084" data-name="Trazado 875084" d="M56.145,19.911,58.9,17.52a3.036,3.036,0,0,0,0-4.589l-2.768-2.4a39.217,39.217,0,0,0-51.368,0L2,12.931A3.036,3.036,0,0,0,2,17.52l2.759,2.39V50.435H.952v4.758A4.763,4.763,0,0,0,5.71,59.952H55.194a4.763,4.763,0,0,0,4.758-4.758V50.435H56.145ZM54.89,11.971l2.768,2.4a1.132,1.132,0,0,1,0,1.711l-2.768,2.4a37.32,37.32,0,0,1-15.826,8.1,14.221,14.221,0,0,0,0-22.715A37.324,37.324,0,0,1,54.89,11.971ZM16.177,34.258v-1.9a.953.953,0,0,1,.952-.952h.952v1.9h1.9V31.4h1.9v1.9h1.9V31.4h1.9v1.9h1.9V31.4h.952a.953.953,0,0,1,.952.952v1.9a.953.953,0,0,1-.952.952H17.129A.953.953,0,0,1,16.177,34.258ZM35.21,39.016v-1.9h1.9v1.9h1.9v-1.9h1.9v1.9h1.9v-1.9h.952a.953.953,0,0,1,.952.952v1.9a.953.953,0,0,1-.952.952H32.355a.953.953,0,0,1-.952-.952v-1.9a.953.953,0,0,1,.952-.952h.952v1.9Zm-18.081,1.9a.953.953,0,0,1-.952-.952v-1.9a.953.953,0,0,1,.952-.952h.952v1.9h1.9v-1.9h1.9v1.9h1.9v-1.9h1.9v1.9h1.9v-1.9h.952a.953.953,0,0,1,.952.952v1.9a.953.953,0,0,1-.952.952Zm-.952,4.758v-1.9a.953.953,0,0,1,.952-.952h.952v1.9h1.9v-1.9h1.9v1.9h1.9v-1.9h1.9v1.9h1.9v-1.9h.952a.953.953,0,0,1,.952.952v1.9a.953.953,0,0,1-.952.952H17.129A.953.953,0,0,1,16.177,45.677Zm15.226,0v-1.9a.953.953,0,0,1,.952-.952h.952v1.9h1.9v-1.9h1.9v1.9h1.9v-1.9h1.9v1.9h1.9v-1.9h.952a.953.953,0,0,1,.952.952v1.9a.953.953,0,0,1-.952.952H32.355A.953.953,0,0,1,31.4,45.677Zm14.484-3.806a2.832,2.832,0,0,0,.742-1.9v-1.9a2.858,2.858,0,0,0-2.855-2.855H32.355a2.817,2.817,0,0,0-1.255.3,2.817,2.817,0,0,0,.3-1.255v-1.9A2.858,2.858,0,0,0,28.548,29.5H17.129a2.858,2.858,0,0,0-2.855,2.855v1.9a2.836,2.836,0,0,0,.742,1.9,2.832,2.832,0,0,0-.742,1.9v1.9a2.836,2.836,0,0,0,.742,1.9,2.832,2.832,0,0,0-.742,1.9v1.9a2.823,2.823,0,0,0,.175.952H10.468v-22.6A39.219,39.219,0,0,0,30.452,29.5a39.219,39.219,0,0,0,19.984-5.475v22.6H46.454a2.823,2.823,0,0,0,.175-.952v-1.9A2.836,2.836,0,0,0,45.887,41.871ZM30.452,27.6A12.371,12.371,0,1,1,42.823,15.226,12.385,12.385,0,0,1,30.452,27.6ZM2.855,15.226a1.13,1.13,0,0,1,.391-.856l2.768-2.4a37.32,37.32,0,0,1,15.826-8.1,14.221,14.221,0,0,0,0,22.715,37.3,37.3,0,0,1-15.826-8.1l-2.768-2.4a1.13,1.13,0,0,1-.391-.856Zm3.806,6.222q.934.712,1.9,1.367V46.629a1.905,1.905,0,0,0,1.9,1.9H50.435a1.905,1.905,0,0,0,1.9-1.9V22.814q.971-.652,1.9-1.367V50.435H6.661ZM58.048,55.194a2.858,2.858,0,0,1-2.855,2.855H5.71a2.858,2.858,0,0,1-2.855-2.855V52.339H58.048Z"/>
          <circle id="Elipse_11622" data-name="Elipse 11622" cx="0.952" cy="0.952" r="0.952" transform="translate(6.661 54.242)"/>
          <circle id="Elipse_11623" data-name="Elipse 11623" cx="0.952" cy="0.952" r="0.952" transform="translate(10.468 54.242)"/>
          <circle id="Elipse_11624" data-name="Elipse 11624" cx="0.952" cy="0.952" r="0.952" transform="translate(14.274 54.242)"/>
          <path id="Trazado_875085" data-name="Trazado 875085" d="M29.5,12.371h1.9a.953.953,0,0,1,.952.952h1.9A2.858,2.858,0,0,0,31.4,10.468v-1.9H29.5v1.9a2.855,2.855,0,1,0,0,5.71h1.9a.952.952,0,1,1,0,1.9H29.5a.953.953,0,0,1-.952-.952h-1.9A2.858,2.858,0,0,0,29.5,19.984v1.9h1.9v-1.9a2.855,2.855,0,1,0,0-5.71H29.5a.952.952,0,0,1,0-1.9Z"/>
          <path id="Trazado_875086" data-name="Trazado 875086" d="M30.452,4.758A10.468,10.468,0,1,0,40.919,15.226,10.48,10.48,0,0,0,30.452,4.758Zm0,19.032a8.565,8.565,0,1,1,8.565-8.565A8.574,8.574,0,0,1,30.452,23.79Z"/>
        </g>
      </g>
    </g>
  </g>
</svg>
