<svg xmlns="http://www.w3.org/2000/svg" xmlns:xlink="http://www.w3.org/1999/xlink" width="96.836" height="97.423" viewBox="0 0 96.836 97.423">
  <defs>
    <clipPath id="clip-path">
      <rect id="Rectángulo_402212" data-name="Rectángulo 402212" width="80" height="80" transform="translate(1110.5 11523)" fill="#fff" stroke="#707070" stroke-width="1"/>
    </clipPath>
  </defs>
  <g id="Grupo_1101385" data-name="Grupo 1101385" transform="translate(-1102.053 -11516.424)">
    <path id="_12068" data-name="12068" d="M72.033,71.913c-8.038-1.11-16.53-.839-23.844,2.675C38.045,79.46,31.382,90.507,31.127,101.757s5.606,22.305,14.66,28.988,21,9.051,32.068,7.045c11.165-2.023,21.645-8.583,27.469-18.322,3.735-6.245,5.48-13.956,3.417-20.934a28.6,28.6,0,0,0-6.787-11.156A50.145,50.145,0,0,0,72.033,71.913Z" transform="translate(1080.381 11469.343)" fill="#26aab7"/>
    <g id="Enmascarar_grupo_1098769" data-name="Enmascarar grupo 1098769" clip-path="url(#clip-path)">
      <g id="dibujo" transform="translate(916.861 11043.17)">
        <g id="ICON">
          <g id="Grupo_1101369" data-name="Grupo 1101369">
            <path id="Trazado_876615" data-name="Trazado 876615" d="M213.829,521.746a25.208,25.208,0,0,0,2.494,7.925l-5.741,5.466a8.322,8.322,0,0,0-5.688,2.072,9.708,9.708,0,0,0-3.207,5.332,49.188,49.188,0,0,0-.845,5.63c-.422,3.186-1.189,6.245-5.5,7.726a1.378,1.378,0,0,0-.283,2.472s8.36,5.452,20.442-4.707c2.338-1.966,4.7-4.874,4.979-8.149.012-.143.021-.288.025-.433l4.207-4.551c6.66,5.763,15.244,9.615,23.946,6.439a18.79,18.79,0,0,0,5.176-3.247,10.2,10.2,0,0,0,7.287,1.724c5.648-1.23,8.809-6.355,10.359-12.535,2.168-8.652,1.244-19.284.82-22.25-.618-4.324-2.443-9.943-5.1-13.318a7.68,7.68,0,0,0-5.343-3.3c-1.715-.114-3.633.565-5.634,2.544a5.293,5.293,0,0,0-6.067.876l-31.738,30.211a21.514,21.514,0,0,1-1.82-5.925h.525a5.371,5.371,0,0,0,5.365-5.109c.018-.086.037-.728.057-.958a7.9,7.9,0,0,1,1.886-4.466,12.2,12.2,0,0,0,3.028-8.051,12.41,12.41,0,0,0-24.819,0,12.079,12.079,0,0,0,3.046,8.043,7.921,7.921,0,0,1,1.918,5.166v0a5.371,5.371,0,0,0,5.372,5.372ZM226.587,538.5c5.9,5.095,13.432,8.682,21.128,5.874a14.858,14.858,0,0,0,3.872-2.339,17.013,17.013,0,0,1-2.418-2.643c-3.1-4.211-4.13-9.675-.385-13.809a6.994,6.994,0,0,1,10.624.33c2.54,3.18,2.223,6.982.415,10.547a22.461,22.461,0,0,1-3.9,5.315,10.445,10.445,0,0,0,1.013.485,6.128,6.128,0,0,0,3.6.485c4.645-1.011,7-5.427,8.272-10.509,2.065-8.24,1.169-18.366.765-21.191-.556-3.89-2.147-8.965-4.534-12a5.007,5.007,0,0,0-3.359-2.254,4.583,4.583,0,0,0-3.41,1.65,5.259,5.259,0,0,1-.572,6.4Zm27.059,1.692a20.3,20.3,0,0,0,3.717-4.98c1.3-2.559,1.712-5.295-.112-7.578a4.229,4.229,0,0,0-6.425-.2c-2.8,3.093-1.761,7.17.561,10.322a14.856,14.856,0,0,0,2.259,2.435Z" fill="#121212" fill-rule="evenodd"/>
          </g>
          <g id="Grupo_1101370" data-name="Grupo 1101370">
            <path id="Trazado_876616" data-name="Trazado 876616" d="M215.471,540.189a7.126,7.126,0,0,1,2.228,3.927c.452,3.043-1.875,5.672-3.97,7.435-6.289,5.288-11.341,5.77-14.305,5.357,2.937-2.111,3.726-5.158,4.152-8.374a45.854,45.854,0,0,1,.783-5.308,7.022,7.022,0,0,1,2.29-3.888c3.84-3.166,7.719-.252,8.822.852Z" fill="#f15b45" fill-rule="evenodd"/>
          </g>
          <g id="Grupo_1101371" data-name="Grupo 1101371">
            <path id="Trazado_876617" data-name="Trazado 876617" d="M208.463,538.26a8.613,8.613,0,0,1,3.08,1.929,7.115,7.115,0,0,1,2.227,3.927c.454,3.043-1.875,5.672-3.97,7.435-3.981,3.346-7.465,4.769-10.239,5.257,2.824-2.107,3.595-5.11,4.015-8.274a45.85,45.85,0,0,1,.783-5.308,7.021,7.021,0,0,1,2.29-3.888,6.476,6.476,0,0,1,1.813-1.077Z" fill="#fa6852" fill-rule="evenodd"/>
          </g>
          <g id="Grupo_1101372" data-name="Grupo 1101372">
            <path id="Trazado_876618" data-name="Trazado 876618" d="M248.039,503.289l-34.226,32.58a11.741,11.741,0,0,1,3.61,2.37,11.125,11.125,0,0,1,2.441,3.475l32.011-34.633a8.766,8.766,0,0,0-3.835-3.792Z" fill="#cbd8e1" fill-rule="evenodd"/>
          </g>
          <g id="Grupo_1101373" data-name="Grupo 1101373">
            <path id="Trazado_876619" data-name="Trazado 876619" d="M218.669,539.669l31.973-34.359a7.226,7.226,0,0,0-2.6-2.021l-34.226,32.58a11.741,11.741,0,0,1,3.61,2.37,13.258,13.258,0,0,1,1.246,1.43Z" fill="#e4ebf0" fill-rule="evenodd"/>
          </g>
          <g id="Grupo_1101374" data-name="Grupo 1101374">
            <path id="Trazado_876620" data-name="Trazado 876620" d="M216.435,518.988h.7a2.613,2.613,0,0,0,2.614-2.614c0-.106.034-.568.043-.695a10.651,10.651,0,0,1,2.563-6.268.017.017,0,0,1,.007-.007,9.447,9.447,0,0,0,2.351-6.242,9.652,9.652,0,0,0-19.3,0,9.336,9.336,0,0,0,2.359,6.223.072.072,0,0,1,.014.015,10.674,10.674,0,0,1,2.591,6.971v0a2.615,2.615,0,0,0,2.614,2.614h.694l-.021-12.757-1.593-1.051a1.378,1.378,0,1,1,1.518-2.3l1.475.972,1.475-.972a1.378,1.378,0,1,1,1.518,2.3l-1.637,1.08Z" fill="#edbc2b" fill-rule="evenodd"/>
          </g>
          <g id="Grupo_1101375" data-name="Grupo 1101375">
            <path id="Trazado_876621" data-name="Trazado 876621" d="M213.654,493.718a9.587,9.587,0,0,0-8.248,9.444,9.336,9.336,0,0,0,2.359,6.223.072.072,0,0,1,.014.015,10.674,10.674,0,0,1,2.591,6.971v0a2.615,2.615,0,0,0,2.614,2.614h.694l-.021-12.757-1.593-1.051a1.378,1.378,0,1,1,1.518-2.3l1.475.972,1.475-.972a1.378,1.378,0,1,1,1.518,2.3l-1.637,1.08.018,11.659a2.613,2.613,0,0,0,.507-1.546c0-.106.033-.568.041-.695a10.668,10.668,0,0,1,2.563-6.268s0-.005.007-.007a9.448,9.448,0,0,0,2.352-6.242,9.587,9.587,0,0,0-8.249-9.444Z" fill="#face4e" fill-rule="evenodd"/>
          </g>
          <g id="Grupo_1101376" data-name="Grupo 1101376">
            <path id="Trazado_876622" data-name="Trazado 876622" d="M253.82,504.974l1.853-2a2.5,2.5,0,0,0-.068-3.466v0a2.535,2.535,0,0,0-3.539-.043l-1.923,1.83a12.487,12.487,0,0,1,3.679,3.687Z" fill="#6f747d" fill-rule="evenodd"/>
          </g>
          <g id="Grupo_1101377" data-name="Grupo 1101377">
            <path id="Trazado_876623" data-name="Trazado 876623" d="M252.643,503.438l1.267-1.372a1.713,1.713,0,1,0-1.845-2.609l-1.923,1.83A11.513,11.513,0,0,1,252.643,503.438Z" fill="#7c828d" fill-rule="evenodd"/>
          </g>
          <g id="Grupo_1101378" data-name="Grupo 1101378">
            <path id="Trazado_876624" data-name="Trazado 876624" d="M233.794,495.394l-1.539.626a1.379,1.379,0,0,0,1.04,2.554l1.539-.626a1.379,1.379,0,0,0-1.04-2.554Z" fill="#121212" fill-rule="evenodd"/>
          </g>
          <g id="Grupo_1101379" data-name="Grupo 1101379">
            <path id="Trazado_876625" data-name="Trazado 876625" d="M197.854,495.943l-1.536-.633a1.379,1.379,0,1,0-1.051,2.549l1.536.633a1.379,1.379,0,1,0,1.051-2.549Z" fill="#121212" fill-rule="evenodd"/>
          </g>
          <g id="Grupo_1101380" data-name="Grupo 1101380">
            <path id="Trazado_876626" data-name="Trazado 876626" d="M197.611,489l2.878,2.879a1.379,1.379,0,0,0,1.951-1.95l-2.879-2.879a1.379,1.379,0,1,0-1.95,1.95Z" fill="#121212" fill-rule="evenodd"/>
          </g>
          <g id="Grupo_1101381" data-name="Grupo 1101381">
            <path id="Trazado_876627" data-name="Trazado 876627" d="M230.511,487.048l-2.879,2.879a1.379,1.379,0,0,0,1.95,1.95L232.461,489a1.379,1.379,0,1,0-1.95-1.95Z" fill="#121212" fill-rule="evenodd"/>
          </g>
          <g id="Grupo_1101382" data-name="Grupo 1101382">
            <path id="Trazado_876628" data-name="Trazado 876628" d="M221.691,484.745l-.633,1.537a1.379,1.379,0,0,0,2.549,1.051l.633-1.537a1.379,1.379,0,0,0-2.549-1.051Z" fill="#121212" fill-rule="evenodd"/>
          </g>
          <g id="Grupo_1101383" data-name="Grupo 1101383">
            <path id="Trazado_876629" data-name="Trazado 876629" d="M209.1,486.255l-.626-1.539a1.379,1.379,0,1,0-2.555,1.04l.627,1.539a1.379,1.379,0,1,0,2.554-1.04Z" fill="#121212" fill-rule="evenodd"/>
          </g>
          <g id="Grupo_1101384" data-name="Grupo 1101384">
            <path id="Trazado_876630" data-name="Trazado 876630" d="M213.657,481.208v4.154a1.379,1.379,0,0,0,2.758,0v-4.154a1.379,1.379,0,0,0-2.758,0Z" fill="#121212" fill-rule="evenodd"/>
          </g>
        </g>
      </g>
    </g>
    <g id="Grupo_1101344" data-name="Grupo 1101344" transform="translate(1027.064 11774.56) rotate(-90)">
      <path id="Trazado_873104" data-name="Trazado 873104" d="M149.557,395.548a1.582,1.582,0,1,0-.106-2.456A1.573,1.573,0,0,0,149.557,395.548Z" transform="translate(15.93 -245.31)" fill="#fff"/>
      <path id="Trazado_873105" data-name="Trazado 873105" d="M417.219,416a1.582,1.582,0,1,0-.105-2.456A1.573,1.573,0,0,0,417.219,416Z" transform="translate(-225.435 -246.323)" fill="#ffd947"/>
      <path id="Trazado_873106" data-name="Trazado 873106" d="M303.26,44.546a1.582,1.582,0,1,0-.106-2.456A1.573,1.573,0,0,0,303.26,44.546Z" transform="translate(-71.901 35.132)" fill="#7d6eb2"/>
      <path id="Trazado_873109" data-name="Trazado 873109" d="M339.452,404.413a3.448,3.448,0,1,0-1.687-4.918A3.468,3.468,0,0,0,339.452,404.413Z" transform="translate(-86.035 -252.255)" fill="#7d6eb2"/>
      <path id="Trazado_873110" data-name="Trazado 873110" d="M390.262,440.006a3.448,3.448,0,1,0-1.687-4.918A3.468,3.468,0,0,0,390.262,440.006Z" transform="translate(-188.42 -268.41)" fill="#ffd947"/>
      <path id="Trazado_873111" data-name="Trazado 873111" d="M176.115,56.142a3.448,3.448,0,1,0-1.687-4.918A3.468,3.468,0,0,0,176.115,56.142Z" transform="translate(0.87 25.456)" fill="#ffd947"/>
      <path id="Trazado_873113" data-name="Trazado 873113" d="M321.56,66.974a3.448,3.448,0,1,0-1.687-4.918A3.468,3.468,0,0,0,321.56,66.974Z" transform="translate(-97.565 19.105)" fill="#ffd947"/>
      <circle id="Elipse_11485" data-name="Elipse 11485" cx="1.689" cy="1.689" r="1.689" transform="translate(161.463 137.255)" fill="none" stroke="#26aab7" stroke-linecap="round" stroke-linejoin="round" stroke-width="1.5"/>
    </g>
  </g>
</svg>
