<svg xmlns="http://www.w3.org/2000/svg" xmlns:xlink="http://www.w3.org/1999/xlink" width="820" height="339.411" viewBox="0 0 820 339.411">
  <defs>
    <clipPath id="clip-path">
      <rect id="Rect치ngulo_402118" data-name="Rect치ngulo 402118" width="820" height="339.411" rx="20" fill="#aee6e6"/>
    </clipPath>
    <clipPath id="clip-path-2">
      <path id="Trazado_875980" data-name="Trazado 875980" d="M0,0,25.145.042,25.227,55.5.082,55.453Z" transform="translate(48.523 50.512) rotate(152.705)" fill="none" stroke="#7d6eb2" stroke-width="1"/>
    </clipPath>
  </defs>
  <g id="Grupo_1101513" data-name="Grupo 1101513" transform="translate(-599.024 -11582.99)">
    <rect id="Rect치ngulo_402115" data-name="Rect치ngulo 402115" width="820" height="338.97" rx="20" transform="translate(599.024 11583.431)" fill="#7d6eb2" opacity="0.1"/>
    <g id="Enmascarar_grupo_1098751" data-name="Enmascarar grupo 1098751" transform="translate(599.024 11582.99)" clip-path="url(#clip-path)">
      <g id="Grupo_1101214" data-name="Grupo 1101214" transform="translate(-20.174 -4.3)">
        <g id="Grupo_1101208" data-name="Grupo 1101208" transform="matrix(0.469, -0.883, 0.883, 0.469, 28.832, 321.869)">
          <g id="Grupo_1101207" data-name="Grupo 1101207" transform="translate(0 0)" clip-path="url(#clip-path-2)">
            <g id="Grupo_1101206" data-name="Grupo 1101206" transform="translate(-18.233 3.402)">
              <path id="Trazado_875973" data-name="Trazado 875973" d="M23.422.618c12.936.342,23.7,12.425,24.04,26.989S37.594,53.7,24.659,53.361.96,40.935.618,26.371,10.486.277,23.422.618Z" transform="translate(0.758 14.757) rotate(-16.624)" fill="none" stroke="#7d6eb2" stroke-width="2"/>
              <path id="Trazado_875974" data-name="Trazado 875974" d="M22.739-1.3C35.3-2.017,44.9,7.062,44.179,18.98S32.7,41.14,20.14,41.858-2.017,33.5-1.3,21.579,10.181-.582,22.739-1.3Z" transform="translate(9.455 53.343) rotate(-85.029)" fill="none" stroke="#7d6eb2" stroke-width="2"/>
              <path id="Trazado_875975" data-name="Trazado 875975" d="M19.8-1.187C30.741-1.843,39.076,6.15,38.421,16.664S28.367,36.235,17.429,36.89-1.843,29.554-1.187,19.039,8.867-.532,19.8-1.187Z" transform="matrix(0.14, -0.99, 0.99, 0.14, 11.227, 49.667)" fill="none" stroke="#7d6eb2" stroke-width="2"/>
              <path id="Trazado_875976" data-name="Trazado 875976" d="M16.085.888c8.883.491,16.482,8.626,16.973,18.171s-6.313,16.885-15.2,16.395S1.379,26.828.888,17.283,7.2.4,16.085.888Z" transform="translate(14.542 15.569)" fill="none" stroke="#7d6eb2" stroke-width="2"/>
              <path id="Trazado_875977" data-name="Trazado 875977" d="M13.295.615c7.343.34,13.57,7.15,13.91,15.212S21.867,30.15,14.525,29.81.955,22.66.615,14.6,5.952.275,13.295.615Z" transform="translate(16.015 20.153) rotate(-6.323)" fill="none" stroke="#7d6eb2" stroke-width="2"/>
              <path id="Trazado_875965" data-name="Trazado 875965" d="M10.768-.569c5.947-.314,10.513,4.646,10.2,11.08s-5.391,11.9-11.338,12.219S-.884,18.083-.569,11.649,4.821-.255,10.768-.569Z" transform="translate(16.561 35.516) rotate(-54.14)" fill="none" stroke="#7d6eb2" stroke-width="2"/>
              <path id="Trazado_875978" data-name="Trazado 875978" d="M8.239-.492c4.55-.272,8.018,3.4,7.747,8.212s-4.18,8.924-8.731,9.2S-.764,13.51-.492,8.7,3.689-.22,8.239-.492Z" transform="matrix(0.495, -0.869, 0.869, 0.495, 20.547, 36.412)" fill="none" stroke="#7d6eb2" stroke-width="2"/>
              <path id="Trazado_875979" data-name="Trazado 875979" d="M5.377.093c2.97.051,5.419,2.819,5.47,6.183s-2.315,6.048-5.285,6S.144,9.453.093,6.09,2.407.041,5.377.093Z" transform="translate(24.212 29.893) rotate(-20.72)" fill="none" stroke="#7d6eb2" stroke-width="2"/>
              <path id="Trazado_875966" data-name="Trazado 875966" d="M.555,4.545A3,3,0,0,1,1.582.432a3.027,3.027,0,0,1,3.96,1.55A3,3,0,0,1,4.515,6.095,3.026,3.026,0,0,1,.555,4.545Z" transform="translate(28.467 30.477)" fill="none" stroke="#7d6eb2" stroke-miterlimit="10" stroke-width="2"/>
            </g>
          </g>
        </g>
        <g id="Grupo_1101213" data-name="Grupo 1101213" transform="translate(784.174 10.796)">
          <g id="Grupo_1101209" data-name="Grupo 1101209" transform="translate(0 0)">
            <path id="Trazado_875967" data-name="Trazado 875967" d="M640.186,391.326c2.3,0,2.3,1.216,4.609,1.216s2.3-1.216,4.608-1.216,2.3,1.216,4.607,1.216,2.3-1.216,4.608-1.216,2.3,1.216,4.609,1.216,2.3-1.216,4.608-1.216,2.3,1.216,4.608,1.216,2.3-1.216,4.609-1.216,2.3,1.216,4.609,1.216,2.3-1.216,4.609-1.216,2.3,1.216,4.609,1.216,2.3-1.216,4.609-1.216,2.3,1.216,4.608,1.216,2.3-1.216,4.609-1.216,2.305,1.216,4.611,1.216,2.3-1.216,4.609-1.216,2.306,1.216,4.613,1.216,2.306-1.216,4.612-1.216" transform="translate(-640.186 -391.326)" fill="none" stroke="#26aab7" stroke-miterlimit="10" stroke-width="2"/>
          </g>
          <g id="Grupo_1101210" data-name="Grupo 1101210" transform="translate(0 5.239)">
            <path id="Trazado_875968" data-name="Trazado 875968" d="M640.186,408.556c2.3,0,2.3,1.216,4.609,1.216s2.3-1.216,4.608-1.216,2.3,1.216,4.607,1.216,2.3-1.216,4.608-1.216,2.3,1.216,4.609,1.216,2.3-1.216,4.608-1.216,2.3,1.216,4.608,1.216,2.3-1.216,4.609-1.216,2.3,1.216,4.609,1.216,2.3-1.216,4.609-1.216,2.3,1.216,4.609,1.216,2.3-1.216,4.609-1.216,2.3,1.216,4.608,1.216,2.3-1.216,4.609-1.216,2.305,1.216,4.611,1.216,2.3-1.216,4.609-1.216,2.306,1.216,4.613,1.216,2.306-1.216,4.612-1.216" transform="translate(-640.186 -408.556)" fill="none" stroke="#26aab7" stroke-miterlimit="10" stroke-width="2"/>
          </g>
          <g id="Grupo_1101211" data-name="Grupo 1101211" transform="translate(0 10.477)">
            <path id="Trazado_875969" data-name="Trazado 875969" d="M640.186,425.786c2.3,0,2.3,1.216,4.609,1.216s2.3-1.216,4.608-1.216,2.3,1.216,4.607,1.216,2.3-1.216,4.608-1.216,2.3,1.216,4.609,1.216,2.3-1.216,4.608-1.216,2.3,1.216,4.608,1.216,2.3-1.216,4.609-1.216,2.3,1.216,4.609,1.216,2.3-1.216,4.609-1.216,2.3,1.216,4.609,1.216,2.3-1.216,4.609-1.216S697.793,427,700.1,427s2.3-1.216,4.609-1.216S707.011,427,709.317,427s2.3-1.216,4.609-1.216S716.232,427,718.538,427s2.306-1.216,4.612-1.216" transform="translate(-640.186 -425.786)" fill="none" stroke="#26aab7" stroke-miterlimit="10" stroke-width="2"/>
          </g>
          <g id="Grupo_1101212" data-name="Grupo 1101212" transform="translate(0 15.716)">
            <path id="Trazado_875970" data-name="Trazado 875970" d="M640.186,443.016c2.3,0,2.3,1.216,4.609,1.216s2.3-1.216,4.608-1.216,2.3,1.216,4.607,1.216,2.3-1.216,4.608-1.216,2.3,1.216,4.609,1.216,2.3-1.216,4.608-1.216,2.3,1.216,4.608,1.216,2.3-1.216,4.609-1.216,2.3,1.216,4.609,1.216,2.3-1.216,4.609-1.216,2.3,1.216,4.609,1.216,2.3-1.216,4.609-1.216,2.3,1.216,4.608,1.216,2.3-1.216,4.609-1.216,2.305,1.216,4.611,1.216,2.3-1.216,4.609-1.216,2.306,1.216,4.613,1.216,2.306-1.216,4.612-1.216" transform="translate(-640.186 -443.016)" fill="none" stroke="#26aab7" stroke-miterlimit="10" stroke-width="2"/>
          </g>
        </g>
        <path id="Trazado_875971" data-name="Trazado 875971" d="M43.421,93.966c-.4,0-5.365-.283-5.365-.632a.725.725,0,0,1,1.438,0C39.494,93.683,43.818,93.966,43.421,93.966Zm-4.646-2.732a.638.638,0,1,1,.719-.632A.68.68,0,0,1,38.775,91.234Zm0-2.732a.638.638,0,1,1,.719-.632A.68.68,0,0,1,38.775,88.5Zm0-2.732a.638.638,0,1,1,.719-.632A.68.68,0,0,1,38.775,85.769Zm0-2.732a.638.638,0,1,1,.719-.632A.68.68,0,0,1,38.775,83.037Zm0-2.732a.638.638,0,1,1,.719-.632A.68.68,0,0,1,38.775,80.3Zm0-2.732a.638.638,0,1,1,.719-.632A.68.68,0,0,1,38.775,77.572Zm0-2.732a.638.638,0,1,1,.719-.632A.68.68,0,0,1,38.775,74.84Zm3.107,27.323a.638.638,0,1,1,.719-.632A.68.68,0,0,1,41.883,102.163Zm0-2.732A.638.638,0,1,1,42.6,98.8.68.68,0,0,1,41.883,99.43Zm0-2.732a.638.638,0,1,1,.719-.632A.68.68,0,0,1,41.883,96.7Zm0-2.732a.638.638,0,1,1,.719-.632A.68.68,0,0,1,41.883,93.966Zm0-2.732A.638.638,0,1,1,42.6,90.6.68.68,0,0,1,41.883,91.234Zm0-2.732a.638.638,0,1,1,.719-.632A.68.68,0,0,1,41.883,88.5Zm0-2.732a.638.638,0,1,1,.719-.632A.68.68,0,0,1,41.883,85.769Zm0-2.732A.638.638,0,1,1,42.6,82.4.68.68,0,0,1,41.883,83.037Zm0-2.732a.638.638,0,1,1,.719-.632A.68.68,0,0,1,41.883,80.3Zm0-2.732a.638.638,0,1,1,.719-.632A.68.68,0,0,1,41.883,77.572Zm0-2.732a.638.638,0,1,1,.719-.632A.68.68,0,0,1,41.883,74.84Zm0-2.732a.638.638,0,1,1,.719-.632A.68.68,0,0,1,41.883,72.108Zm0-2.732a.638.638,0,1,1,.719-.632A.68.68,0,0,1,41.883,69.376Zm0-2.732a.638.638,0,1,1,.719-.632A.68.68,0,0,1,41.883,66.643Zm3.107,40.984a.638.638,0,1,1,.719-.632A.68.68,0,0,1,44.99,107.627Zm0-2.732a.638.638,0,1,1,.719-.632A.68.68,0,0,1,44.99,104.895Zm0-2.732a.638.638,0,1,1,.719-.632A.68.68,0,0,1,44.99,102.163Zm0-2.732a.638.638,0,1,1,.719-.632A.68.68,0,0,1,44.99,99.43Zm0-2.732a.638.638,0,1,1,.719-.632A.68.68,0,0,1,44.99,96.7Zm0-2.732a.638.638,0,1,1,.719-.632A.68.68,0,0,1,44.99,93.966Zm0-2.732a.638.638,0,1,1,.719-.632A.68.68,0,0,1,44.99,91.234Zm0-2.732a.638.638,0,1,1,.719-.632A.68.68,0,0,1,44.99,88.5Zm0-2.732a.638.638,0,1,1,.719-.632A.68.68,0,0,1,44.99,85.769Zm0-2.732a.638.638,0,1,1,.719-.632A.68.68,0,0,1,44.99,83.037Zm0-2.732a.638.638,0,1,1,.719-.632A.68.68,0,0,1,44.99,80.3Zm0-2.732a.638.638,0,1,1,.719-.632A.68.68,0,0,1,44.99,77.572Zm0-2.732a.638.638,0,1,1,.719-.632A.68.68,0,0,1,44.99,74.84Zm0-2.732a.638.638,0,1,1,.719-.632A.68.68,0,0,1,44.99,72.108Zm0-2.732a.638.638,0,1,1,.719-.632A.68.68,0,0,1,44.99,69.376Zm0-2.732a.638.638,0,1,1,.719-.632A.68.68,0,0,1,44.99,66.643Zm0-2.732a.638.638,0,1,1,.719-.632A.68.68,0,0,1,44.99,63.911Zm0-2.732a.638.638,0,1,1,.719-.632A.68.68,0,0,1,44.99,61.179ZM48.1,110.359a.638.638,0,1,1,.719-.632A.68.68,0,0,1,48.1,110.359Zm0-2.732a.638.638,0,1,1,.719-.632A.68.68,0,0,1,48.1,107.627Zm0-2.732a.638.638,0,1,1,.719-.632A.68.68,0,0,1,48.1,104.895Zm0-2.732a.638.638,0,1,1,.719-.632A.68.68,0,0,1,48.1,102.163Zm0-2.732a.638.638,0,1,1,.719-.632A.68.68,0,0,1,48.1,99.43Zm0-2.732a.638.638,0,1,1,.719-.632A.68.68,0,0,1,48.1,96.7Zm0-2.732a.638.638,0,1,1,.719-.632A.68.68,0,0,1,48.1,93.966Zm0-2.732a.638.638,0,1,1,.719-.632A.68.68,0,0,1,48.1,91.234Zm0-2.732a.638.638,0,1,1,.719-.632A.68.68,0,0,1,48.1,88.5Zm0-2.732a.638.638,0,1,1,.719-.632A.68.68,0,0,1,48.1,85.769Zm0-2.732a.638.638,0,1,1,.719-.632A.68.68,0,0,1,48.1,83.037Zm0-2.732a.638.638,0,1,1,.719-.632A.68.68,0,0,1,48.1,80.3Zm0-2.732a.638.638,0,1,1,.719-.632A.68.68,0,0,1,48.1,77.572Zm0-2.732a.638.638,0,1,1,.719-.632A.68.68,0,0,1,48.1,74.84Zm0-2.732a.638.638,0,1,1,.719-.632A.68.68,0,0,1,48.1,72.108Zm0-2.732a.638.638,0,1,1,.719-.632A.68.68,0,0,1,48.1,69.376Zm0-2.732a.638.638,0,1,1,.719-.632A.68.68,0,0,1,48.1,66.643Zm0-2.732a.638.638,0,1,1,.719-.632A.68.68,0,0,1,48.1,63.911Zm0-2.732a.638.638,0,1,1,.719-.632A.68.68,0,0,1,48.1,61.179Zm0-2.732a.638.638,0,1,1,.719-.632A.68.68,0,0,1,48.1,58.447ZM51.2,115.824a.638.638,0,1,1,.719-.632A.68.68,0,0,1,51.2,115.824Zm0-2.732a.638.638,0,1,1,.719-.632A.68.68,0,0,1,51.2,113.092Zm0-2.732a.638.638,0,1,1,.719-.632A.68.68,0,0,1,51.2,110.359Zm0-2.732a.638.638,0,1,1,.719-.632A.68.68,0,0,1,51.2,107.627Zm0-2.732a.638.638,0,1,1,.719-.632A.68.68,0,0,1,51.2,104.895Zm0-2.732a.638.638,0,1,1,.719-.632A.68.68,0,0,1,51.2,102.163Zm0-2.732a.638.638,0,1,1,.719-.632A.68.68,0,0,1,51.2,99.43Zm0-2.732a.638.638,0,1,1,.719-.632A.68.68,0,0,1,51.2,96.7Zm0-2.732a.638.638,0,1,1,.719-.632A.68.68,0,0,1,51.2,93.966Zm0-2.732a.638.638,0,1,1,.719-.632A.68.68,0,0,1,51.2,91.234Zm0-2.732a.638.638,0,1,1,.719-.632A.68.68,0,0,1,51.2,88.5Zm0-2.732a.638.638,0,1,1,.719-.632A.68.68,0,0,1,51.2,85.769Zm0-2.732a.638.638,0,1,1,.719-.632A.68.68,0,0,1,51.2,83.037Zm0-2.732a.638.638,0,1,1,.719-.632A.68.68,0,0,1,51.2,80.3Zm0-2.732a.638.638,0,1,1,.719-.632A.68.68,0,0,1,51.2,77.572Zm0-2.732a.638.638,0,1,1,.719-.632A.68.68,0,0,1,51.2,74.84Zm0-2.732a.638.638,0,1,1,.719-.632A.68.68,0,0,1,51.2,72.108Zm0-2.732a.638.638,0,1,1,.719-.632A.68.68,0,0,1,51.2,69.376Zm0-2.732a.638.638,0,1,1,.719-.632A.68.68,0,0,1,51.2,66.643Zm0-2.732a.638.638,0,1,1,.719-.632A.68.68,0,0,1,51.2,63.911Zm0-2.732a.638.638,0,1,1,.719-.632A.68.68,0,0,1,51.2,61.179Zm0-2.732a.638.638,0,1,1,.719-.632A.68.68,0,0,1,51.2,58.447Zm0-2.732a.638.638,0,1,1,.719-.632A.68.68,0,0,1,51.2,55.714Zm0-2.732a.638.638,0,1,1,.719-.632A.68.68,0,0,1,51.2,52.982Zm3.107,65.574a.638.638,0,1,1,.719-.632A.68.68,0,0,1,54.312,118.556Zm0-2.732a.638.638,0,1,1,.719-.632A.68.68,0,0,1,54.312,115.824Zm0-2.732a.638.638,0,1,1,.719-.632A.68.68,0,0,1,54.312,113.092Zm0-2.732a.638.638,0,1,1,.719-.632A.68.68,0,0,1,54.312,110.359Zm0-2.732a.638.638,0,1,1,.719-.632A.68.68,0,0,1,54.312,107.627Zm0-2.732a.638.638,0,1,1,.719-.632A.68.68,0,0,1,54.312,104.895Zm0-2.732a.638.638,0,1,1,.719-.632A.68.68,0,0,1,54.312,102.163Zm0-2.732a.638.638,0,1,1,.719-.632A.68.68,0,0,1,54.312,99.43Zm0-2.732a.638.638,0,1,1,.719-.632A.68.68,0,0,1,54.312,96.7Zm0-2.732a.638.638,0,1,1,.719-.632A.68.68,0,0,1,54.312,93.966Zm0-2.732a.638.638,0,1,1,.719-.632A.68.68,0,0,1,54.312,91.234Zm0-2.732a.638.638,0,1,1,.719-.632A.68.68,0,0,1,54.312,88.5Zm0-2.732a.638.638,0,1,1,.719-.632A.68.68,0,0,1,54.312,85.769Zm0-2.732a.638.638,0,1,1,.719-.632A.68.68,0,0,1,54.312,83.037Zm0-2.732a.638.638,0,1,1,.719-.632A.68.68,0,0,1,54.312,80.3Zm0-2.732a.638.638,0,1,1,.719-.632A.68.68,0,0,1,54.312,77.572Zm0-2.732a.638.638,0,1,1,.719-.632A.68.68,0,0,1,54.312,74.84Zm0-2.732a.638.638,0,1,1,.719-.632A.68.68,0,0,1,54.312,72.108Zm0-2.732a.638.638,0,1,1,.719-.632A.68.68,0,0,1,54.312,69.376Zm0-2.732a.638.638,0,1,1,.719-.632A.68.68,0,0,1,54.312,66.643Zm0-2.732a.638.638,0,1,1,.719-.632A.68.68,0,0,1,54.312,63.911Zm0-2.732a.638.638,0,1,1,.719-.632A.68.68,0,0,1,54.312,61.179Zm0-2.732a.638.638,0,1,1,.719-.632A.68.68,0,0,1,54.312,58.447Zm0-2.732a.638.638,0,1,1,.719-.632A.68.68,0,0,1,54.312,55.714Zm0-2.732a.638.638,0,1,1,.719-.632A.68.68,0,0,1,54.312,52.982Zm0-2.732a.638.638,0,1,1,.719-.632A.68.68,0,0,1,54.312,50.25Zm3.107,68.306a.638.638,0,1,1,.719-.632A.68.68,0,0,1,57.419,118.556Zm0-2.732a.638.638,0,1,1,.719-.632A.68.68,0,0,1,57.419,115.824Zm0-2.732a.638.638,0,1,1,.719-.632A.68.68,0,0,1,57.419,113.092Zm0-2.732a.638.638,0,1,1,.719-.632A.68.68,0,0,1,57.419,110.359Zm0-2.732a.638.638,0,1,1,.719-.632A.68.68,0,0,1,57.419,107.627Zm0-2.732a.638.638,0,1,1,.719-.632A.68.68,0,0,1,57.419,104.895Zm0-2.732a.638.638,0,1,1,.719-.632A.68.68,0,0,1,57.419,102.163Zm0-2.732a.638.638,0,1,1,.719-.632A.68.68,0,0,1,57.419,99.43Zm0-2.732a.638.638,0,1,1,.719-.632A.68.68,0,0,1,57.419,96.7Zm0-2.732a.638.638,0,1,1,.719-.632A.68.68,0,0,1,57.419,93.966Zm0-2.732a.638.638,0,1,1,.719-.632A.68.68,0,0,1,57.419,91.234Zm0-2.732a.638.638,0,1,1,.719-.632A.68.68,0,0,1,57.419,88.5Zm0-2.732a.638.638,0,1,1,.719-.632A.68.68,0,0,1,57.419,85.769Zm0-2.732a.638.638,0,1,1,.719-.632A.68.68,0,0,1,57.419,83.037Zm0-2.732a.638.638,0,1,1,.719-.632A.68.68,0,0,1,57.419,80.3Zm0-2.732a.638.638,0,1,1,.719-.632A.68.68,0,0,1,57.419,77.572Zm0-2.732a.638.638,0,1,1,.719-.632A.68.68,0,0,1,57.419,74.84Zm0-2.732a.638.638,0,1,1,.719-.632A.68.68,0,0,1,57.419,72.108Zm0-2.732a.638.638,0,1,1,.719-.632A.68.68,0,0,1,57.419,69.376Zm0-2.732a.638.638,0,1,1,.719-.632A.68.68,0,0,1,57.419,66.643Zm0-2.732a.638.638,0,1,1,.719-.632A.68.68,0,0,1,57.419,63.911Zm0-2.732a.638.638,0,1,1,.719-.632A.68.68,0,0,1,57.419,61.179Zm0-2.732a.638.638,0,1,1,.719-.632A.68.68,0,0,1,57.419,58.447Zm0-2.732a.638.638,0,1,1,.719-.632A.68.68,0,0,1,57.419,55.714Zm0-2.732a.638.638,0,1,1,.719-.632A.68.68,0,0,1,57.419,52.982Zm0-2.732a.638.638,0,1,1,.719-.632A.68.68,0,0,1,57.419,50.25Zm3.107,71.039a.638.638,0,1,1,.719-.632A.68.68,0,0,1,60.526,121.288Zm0-2.732a.638.638,0,1,1,.719-.632A.68.68,0,0,1,60.526,118.556Zm0-2.732a.638.638,0,1,1,.719-.632A.68.68,0,0,1,60.526,115.824Zm0-2.732a.638.638,0,1,1,.719-.632A.68.68,0,0,1,60.526,113.092Zm0-2.732a.638.638,0,1,1,.719-.632A.68.68,0,0,1,60.526,110.359Zm0-2.732a.638.638,0,1,1,.719-.632A.68.68,0,0,1,60.526,107.627Zm0-2.732a.638.638,0,1,1,.719-.632A.68.68,0,0,1,60.526,104.895Zm0-2.732a.638.638,0,1,1,.719-.632A.68.68,0,0,1,60.526,102.163Zm0-2.732a.638.638,0,1,1,.719-.632A.68.68,0,0,1,60.526,99.43Zm0-2.732a.638.638,0,1,1,.719-.632A.68.68,0,0,1,60.526,96.7Zm0-2.732a.638.638,0,1,1,.719-.632A.68.68,0,0,1,60.526,93.966Zm0-2.732a.638.638,0,1,1,.719-.632A.68.68,0,0,1,60.526,91.234Zm0-2.732a.638.638,0,1,1,.719-.632A.68.68,0,0,1,60.526,88.5Zm0-2.732a.638.638,0,1,1,.719-.632A.68.68,0,0,1,60.526,85.769Zm0-2.732a.638.638,0,1,1,.719-.632A.68.68,0,0,1,60.526,83.037Zm0-2.732a.638.638,0,1,1,.719-.632A.68.68,0,0,1,60.526,80.3Zm0-2.732a.638.638,0,1,1,.719-.632A.68.68,0,0,1,60.526,77.572Zm0-2.732a.638.638,0,1,1,.719-.632A.68.68,0,0,1,60.526,74.84Zm0-2.732a.638.638,0,1,1,.719-.632A.68.68,0,0,1,60.526,72.108Zm0-2.732a.638.638,0,1,1,.719-.632A.68.68,0,0,1,60.526,69.376Zm0-2.732a.638.638,0,1,1,.719-.632A.68.68,0,0,1,60.526,66.643Zm0-2.732a.638.638,0,1,1,.719-.632A.68.68,0,0,1,60.526,63.911Zm0-2.732a.638.638,0,1,1,.719-.632A.68.68,0,0,1,60.526,61.179Zm0-2.732a.638.638,0,1,1,.719-.632A.68.68,0,0,1,60.526,58.447Zm0-2.732a.638.638,0,1,1,.719-.632A.68.68,0,0,1,60.526,55.714Zm0-2.732a.638.638,0,1,1,.719-.632A.68.68,0,0,1,60.526,52.982Zm0-2.732a.638.638,0,1,1,.719-.632A.68.68,0,0,1,60.526,50.25Zm0-2.732a.638.638,0,1,1,.719-.632A.68.68,0,0,1,60.526,47.518Zm3.107,76.5a.638.638,0,1,1,.719-.632A.68.68,0,0,1,63.634,124.021Zm0-2.732a.638.638,0,1,1,.719-.632A.68.68,0,0,1,63.634,121.288Zm0-2.732a.638.638,0,1,1,.719-.632A.68.68,0,0,1,63.634,118.556Zm0-2.732a.638.638,0,1,1,.719-.632A.68.68,0,0,1,63.634,115.824Zm0-2.732a.638.638,0,1,1,.719-.632A.68.68,0,0,1,63.634,113.092Zm0-2.732a.638.638,0,1,1,.719-.632A.68.68,0,0,1,63.634,110.359Zm0-2.732a.638.638,0,1,1,.719-.632A.68.68,0,0,1,63.634,107.627Zm0-2.732a.638.638,0,1,1,.719-.632A.68.68,0,0,1,63.634,104.895Zm0-2.732a.638.638,0,1,1,.719-.632A.68.68,0,0,1,63.634,102.163Zm0-2.732a.638.638,0,1,1,.719-.632A.68.68,0,0,1,63.634,99.43Zm0-2.732a.638.638,0,1,1,.719-.632A.68.68,0,0,1,63.634,96.7Zm0-2.732a.638.638,0,1,1,.719-.632A.68.68,0,0,1,63.634,93.966Zm0-2.732a.638.638,0,1,1,.719-.632A.68.68,0,0,1,63.634,91.234Zm0-2.732a.638.638,0,1,1,.719-.632A.68.68,0,0,1,63.634,88.5Zm0-2.732a.638.638,0,1,1,.719-.632A.68.68,0,0,1,63.634,85.769Zm0-2.732a.638.638,0,1,1,.719-.632A.68.68,0,0,1,63.634,83.037Zm0-2.732a.638.638,0,1,1,.719-.632A.68.68,0,0,1,63.634,80.3Zm0-2.732a.638.638,0,1,1,.719-.632A.68.68,0,0,1,63.634,77.572Zm0-2.732a.638.638,0,1,1,.719-.632A.68.68,0,0,1,63.634,74.84Zm0-2.732a.638.638,0,1,1,.719-.632A.68.68,0,0,1,63.634,72.108Zm0-2.732a.638.638,0,1,1,.719-.632A.68.68,0,0,1,63.634,69.376Zm0-2.732a.638.638,0,1,1,.719-.632A.68.68,0,0,1,63.634,66.643Zm0-2.732a.638.638,0,1,1,.719-.632A.68.68,0,0,1,63.634,63.911Zm0-2.732a.638.638,0,1,1,.719-.632A.68.68,0,0,1,63.634,61.179Zm0-2.732a.638.638,0,1,1,.719-.632A.68.68,0,0,1,63.634,58.447Zm0-2.732a.638.638,0,1,1,.719-.632A.68.68,0,0,1,63.634,55.714Zm0-2.732a.638.638,0,1,1,.719-.632A.68.68,0,0,1,63.634,52.982Zm0-2.732a.638.638,0,1,1,.719-.632A.68.68,0,0,1,63.634,50.25Zm0-2.732a.638.638,0,1,1,.719-.632A.68.68,0,0,1,63.634,47.518Zm0-2.732a.638.638,0,1,1,.719-.632A.68.68,0,0,1,63.634,44.785Zm3.107,79.235a.638.638,0,1,1,.719-.632A.68.68,0,0,1,66.741,124.021Zm0-2.732a.638.638,0,1,1,.719-.632A.68.68,0,0,1,66.741,121.288Zm0-2.732a.638.638,0,1,1,.719-.632A.68.68,0,0,1,66.741,118.556Zm0-2.732a.638.638,0,1,1,.719-.632A.68.68,0,0,1,66.741,115.824Zm0-2.732a.638.638,0,1,1,.719-.632A.68.68,0,0,1,66.741,113.092Zm0-2.732a.638.638,0,1,1,.719-.632A.68.68,0,0,1,66.741,110.359Zm0-2.732a.638.638,0,1,1,.719-.632A.68.68,0,0,1,66.741,107.627Zm0-2.732a.638.638,0,1,1,.719-.632A.68.68,0,0,1,66.741,104.895Zm0-2.732a.638.638,0,1,1,.719-.632A.68.68,0,0,1,66.741,102.163Zm0-2.732a.638.638,0,1,1,.719-.632A.68.68,0,0,1,66.741,99.43Zm0-2.732a.638.638,0,1,1,.719-.632A.68.68,0,0,1,66.741,96.7Zm0-2.732a.638.638,0,1,1,.719-.632A.68.68,0,0,1,66.741,93.966Zm0-2.732a.638.638,0,1,1,.719-.632A.68.68,0,0,1,66.741,91.234Zm0-2.732a.638.638,0,1,1,.719-.632A.68.68,0,0,1,66.741,88.5Zm0-2.732a.638.638,0,1,1,.719-.632A.68.68,0,0,1,66.741,85.769Zm0-2.732a.638.638,0,1,1,.719-.632A.68.68,0,0,1,66.741,83.037Zm0-2.732a.638.638,0,1,1,.719-.632A.68.68,0,0,1,66.741,80.3Zm0-2.732a.638.638,0,1,1,.719-.632A.68.68,0,0,1,66.741,77.572Zm0-2.732a.638.638,0,1,1,.719-.632A.68.68,0,0,1,66.741,74.84Zm0-2.732a.638.638,0,1,1,.719-.632A.68.68,0,0,1,66.741,72.108Zm0-2.732a.638.638,0,1,1,.719-.632A.68.68,0,0,1,66.741,69.376Zm0-2.732a.638.638,0,1,1,.719-.632A.68.68,0,0,1,66.741,66.643Zm0-2.732a.638.638,0,1,1,.719-.632A.68.68,0,0,1,66.741,63.911Zm0-2.732a.638.638,0,1,1,.719-.632A.68.68,0,0,1,66.741,61.179Zm0-2.732a.638.638,0,1,1,.719-.632A.68.68,0,0,1,66.741,58.447Zm0-2.732a.638.638,0,1,1,.719-.632A.68.68,0,0,1,66.741,55.714Zm0-2.732a.638.638,0,1,1,.719-.632A.68.68,0,0,1,66.741,52.982Zm0-2.732a.638.638,0,1,1,.719-.632A.68.68,0,0,1,66.741,50.25Zm0-2.732a.638.638,0,1,1,.719-.632A.68.68,0,0,1,66.741,47.518Zm0-2.732a.638.638,0,1,1,.719-.632A.68.68,0,0,1,66.741,44.785Zm3.107,81.968a.638.638,0,1,1,.719-.632A.68.68,0,0,1,69.848,126.753Zm0-2.732a.638.638,0,1,1,.719-.632A.68.68,0,0,1,69.848,124.021Zm0-2.732a.638.638,0,1,1,.719-.632A.68.68,0,0,1,69.848,121.288Zm0-2.732a.638.638,0,1,1,.719-.632A.68.68,0,0,1,69.848,118.556Zm0-2.732a.638.638,0,1,1,.719-.632A.68.68,0,0,1,69.848,115.824Zm0-2.732a.638.638,0,1,1,.719-.632A.68.68,0,0,1,69.848,113.092Zm0-2.732a.638.638,0,1,1,.719-.632A.68.68,0,0,1,69.848,110.359Zm0-2.732a.638.638,0,1,1,.719-.632A.68.68,0,0,1,69.848,107.627Zm0-2.732a.638.638,0,1,1,.719-.632A.68.68,0,0,1,69.848,104.895Zm0-2.732a.638.638,0,1,1,.719-.632A.68.68,0,0,1,69.848,102.163Zm0-2.732a.638.638,0,1,1,.719-.632A.68.68,0,0,1,69.848,99.43Zm0-2.732a.638.638,0,1,1,.719-.632A.68.68,0,0,1,69.848,96.7Zm0-2.732a.638.638,0,1,1,.719-.632A.68.68,0,0,1,69.848,93.966Zm0-2.732a.638.638,0,1,1,.719-.632A.68.68,0,0,1,69.848,91.234Zm0-2.732a.638.638,0,1,1,.719-.632A.68.68,0,0,1,69.848,88.5Zm0-2.732a.638.638,0,1,1,.719-.632A.68.68,0,0,1,69.848,85.769Zm0-2.732a.638.638,0,1,1,.719-.632A.68.68,0,0,1,69.848,83.037Zm0-2.732a.638.638,0,1,1,.719-.632A.68.68,0,0,1,69.848,80.3Zm0-2.732a.638.638,0,1,1,.719-.632A.68.68,0,0,1,69.848,77.572Zm0-2.732a.638.638,0,1,1,.719-.632A.68.68,0,0,1,69.848,74.84Zm0-2.732a.638.638,0,1,1,.719-.632A.68.68,0,0,1,69.848,72.108Zm0-2.732a.638.638,0,1,1,.719-.632A.68.68,0,0,1,69.848,69.376Zm0-2.732a.638.638,0,1,1,.719-.632A.68.68,0,0,1,69.848,66.643Zm0-2.732a.638.638,0,1,1,.719-.632A.68.68,0,0,1,69.848,63.911Zm0-2.732a.638.638,0,1,1,.719-.632A.68.68,0,0,1,69.848,61.179Zm0-2.732a.638.638,0,1,1,.719-.632A.68.68,0,0,1,69.848,58.447Zm0-2.732a.638.638,0,1,1,.719-.632A.68.68,0,0,1,69.848,55.714Zm0-2.732a.638.638,0,1,1,.719-.632A.68.68,0,0,1,69.848,52.982Zm0-2.732a.638.638,0,1,1,.719-.632A.68.68,0,0,1,69.848,50.25Zm0-2.732a.638.638,0,1,1,.719-.632A.68.68,0,0,1,69.848,47.518Zm0-2.732a.638.638,0,1,1,.719-.632A.68.68,0,0,1,69.848,44.785Zm0-2.732a.638.638,0,1,1,.719-.632A.68.68,0,0,1,69.848,42.053Zm3.107,84.7a.638.638,0,1,1,.719-.632A.68.68,0,0,1,72.955,126.753Zm0-2.732a.638.638,0,1,1,.719-.632A.68.68,0,0,1,72.955,124.021Zm0-2.732a.638.638,0,1,1,.719-.632A.68.68,0,0,1,72.955,121.288Zm0-2.732a.638.638,0,1,1,.719-.632A.68.68,0,0,1,72.955,118.556Zm0-2.732a.638.638,0,1,1,.719-.632A.68.68,0,0,1,72.955,115.824Zm0-2.732a.638.638,0,1,1,.719-.632A.68.68,0,0,1,72.955,113.092Zm0-2.732a.638.638,0,1,1,.719-.632A.68.68,0,0,1,72.955,110.359Zm0-2.732a.638.638,0,1,1,.719-.632A.68.68,0,0,1,72.955,107.627Zm0-2.732a.638.638,0,1,1,.719-.632A.68.68,0,0,1,72.955,104.895Zm0-2.732a.638.638,0,1,1,.719-.632A.68.68,0,0,1,72.955,102.163Zm0-2.732a.638.638,0,1,1,.719-.632A.68.68,0,0,1,72.955,99.43Zm0-2.732a.638.638,0,1,1,.719-.632A.68.68,0,0,1,72.955,96.7Zm0-2.732a.638.638,0,1,1,.719-.632A.68.68,0,0,1,72.955,93.966Zm0-2.732a.638.638,0,1,1,.719-.632A.68.68,0,0,1,72.955,91.234Zm0-2.732a.638.638,0,1,1,.719-.632A.68.68,0,0,1,72.955,88.5Zm0-2.732a.638.638,0,1,1,.719-.632A.68.68,0,0,1,72.955,85.769Zm0-2.732a.638.638,0,1,1,.719-.632A.68.68,0,0,1,72.955,83.037Zm0-2.732a.638.638,0,1,1,.719-.632A.68.68,0,0,1,72.955,80.3Zm0-2.732a.638.638,0,1,1,.719-.632A.68.68,0,0,1,72.955,77.572Zm0-2.732a.638.638,0,1,1,.719-.632A.68.68,0,0,1,72.955,74.84Zm0-2.732a.638.638,0,1,1,.719-.632A.68.68,0,0,1,72.955,72.108Zm0-2.732a.638.638,0,1,1,.719-.632A.68.68,0,0,1,72.955,69.376Zm0-2.732a.638.638,0,1,1,.719-.632A.68.68,0,0,1,72.955,66.643Zm0-2.732a.638.638,0,1,1,.719-.632A.68.68,0,0,1,72.955,63.911Zm0-2.732a.638.638,0,1,1,.719-.632A.68.68,0,0,1,72.955,61.179Zm0-2.732a.638.638,0,1,1,.719-.632A.68.68,0,0,1,72.955,58.447Zm0-2.732a.638.638,0,1,1,.719-.632A.68.68,0,0,1,72.955,55.714Zm0-2.732a.638.638,0,1,1,.719-.632A.68.68,0,0,1,72.955,52.982Zm0-2.732a.638.638,0,1,1,.719-.632A.68.68,0,0,1,72.955,50.25Zm0-2.732a.638.638,0,1,1,.719-.632A.68.68,0,0,1,72.955,47.518Zm0-2.732a.638.638,0,1,1,.719-.632A.68.68,0,0,1,72.955,44.785Zm0-2.732a.638.638,0,1,1,.719-.632A.68.68,0,0,1,72.955,42.053Zm3.107,84.7a.638.638,0,1,1,.719-.632A.68.68,0,0,1,76.063,126.753Zm0-2.732a.638.638,0,1,1,.719-.632A.68.68,0,0,1,76.063,124.021Zm0-2.732a.638.638,0,1,1,.719-.632A.68.68,0,0,1,76.063,121.288Zm0-2.732a.638.638,0,1,1,.719-.632A.68.68,0,0,1,76.063,118.556Zm0-2.732a.638.638,0,1,1,.719-.632A.68.68,0,0,1,76.063,115.824Zm0-2.732a.638.638,0,1,1,.719-.632A.68.68,0,0,1,76.063,113.092Zm0-2.732a.638.638,0,1,1,.719-.632A.68.68,0,0,1,76.063,110.359Zm0-2.732a.638.638,0,1,1,.719-.632A.68.68,0,0,1,76.063,107.627Zm0-2.732a.638.638,0,1,1,.719-.632A.68.68,0,0,1,76.063,104.895Zm0-2.732a.638.638,0,1,1,.719-.632A.68.68,0,0,1,76.063,102.163Zm0-2.732a.638.638,0,1,1,.719-.632A.68.68,0,0,1,76.063,99.43Zm0-2.732a.638.638,0,1,1,.719-.632A.68.68,0,0,1,76.063,96.7Zm0-2.732a.638.638,0,1,1,.719-.632A.68.68,0,0,1,76.063,93.966Zm0-2.732a.638.638,0,1,1,.719-.632A.68.68,0,0,1,76.063,91.234Zm0-2.732a.638.638,0,1,1,.719-.632A.68.68,0,0,1,76.063,88.5Zm0-2.732a.638.638,0,1,1,.719-.632A.68.68,0,0,1,76.063,85.769Zm0-2.732a.638.638,0,1,1,.719-.632A.68.68,0,0,1,76.063,83.037Zm0-2.732a.638.638,0,1,1,.719-.632A.68.68,0,0,1,76.063,80.3Zm0-2.732a.638.638,0,1,1,.719-.632A.68.68,0,0,1,76.063,77.572Zm0-2.732a.638.638,0,1,1,.719-.632A.68.68,0,0,1,76.063,74.84Zm0-2.732a.638.638,0,1,1,.719-.632A.68.68,0,0,1,76.063,72.108Zm0-2.732a.638.638,0,1,1,.719-.632A.68.68,0,0,1,76.063,69.376Zm0-2.732a.638.638,0,1,1,.719-.632A.68.68,0,0,1,76.063,66.643Zm0-2.732a.638.638,0,1,1,.719-.632A.68.68,0,0,1,76.063,63.911Zm0-2.732a.638.638,0,1,1,.719-.632A.68.68,0,0,1,76.063,61.179Zm0-2.732a.638.638,0,1,1,.719-.632A.68.68,0,0,1,76.063,58.447Zm0-2.732a.638.638,0,1,1,.719-.632A.68.68,0,0,1,76.063,55.714Zm0-2.732a.638.638,0,1,1,.719-.632A.68.68,0,0,1,76.063,52.982Zm0-2.732a.638.638,0,1,1,.719-.632A.68.68,0,0,1,76.063,50.25Zm0-2.732a.638.638,0,1,1,.719-.632A.68.68,0,0,1,76.063,47.518Zm0-2.732a.638.638,0,1,1,.719-.632A.68.68,0,0,1,76.063,44.785Zm0-2.732a.638.638,0,1,1,.719-.632A.68.68,0,0,1,76.063,42.053Zm3.107,87.432a.638.638,0,1,1,.719-.632A.68.68,0,0,1,79.17,129.485Zm0-2.732a.638.638,0,1,1,.719-.632A.68.68,0,0,1,79.17,126.753Zm0-2.732a.638.638,0,1,1,.719-.632A.68.68,0,0,1,79.17,124.021Zm0-2.732a.638.638,0,1,1,.719-.632A.68.68,0,0,1,79.17,121.288Zm0-2.732a.638.638,0,1,1,.719-.632A.68.68,0,0,1,79.17,118.556Zm0-2.732a.638.638,0,1,1,.719-.632A.68.68,0,0,1,79.17,115.824Zm0-2.732a.638.638,0,1,1,.719-.632A.68.68,0,0,1,79.17,113.092Zm0-2.732a.638.638,0,1,1,.719-.632A.68.68,0,0,1,79.17,110.359Zm0-2.732a.638.638,0,1,1,.719-.632A.68.68,0,0,1,79.17,107.627Zm0-2.732a.638.638,0,1,1,.719-.632A.68.68,0,0,1,79.17,104.895Zm0-2.732a.638.638,0,1,1,.719-.632A.68.68,0,0,1,79.17,102.163Zm0-2.732a.638.638,0,1,1,.719-.632A.68.68,0,0,1,79.17,99.43Zm0-2.732a.638.638,0,1,1,.719-.632A.68.68,0,0,1,79.17,96.7Zm0-2.732a.638.638,0,1,1,.719-.632A.68.68,0,0,1,79.17,93.966Zm0-2.732a.638.638,0,1,1,.719-.632A.68.68,0,0,1,79.17,91.234Zm0-2.732a.638.638,0,1,1,.719-.632A.68.68,0,0,1,79.17,88.5Zm0-2.732a.638.638,0,1,1,.719-.632A.68.68,0,0,1,79.17,85.769Zm0-2.732a.638.638,0,1,1,.719-.632A.68.68,0,0,1,79.17,83.037Zm0-2.732a.638.638,0,1,1,.719-.632A.68.68,0,0,1,79.17,80.3Zm0-2.732a.638.638,0,1,1,.719-.632A.68.68,0,0,1,79.17,77.572Zm0-2.732a.638.638,0,1,1,.719-.632A.68.68,0,0,1,79.17,74.84Zm0-2.732a.638.638,0,1,1,.719-.632A.68.68,0,0,1,79.17,72.108Zm0-2.732a.638.638,0,1,1,.719-.632A.68.68,0,0,1,79.17,69.376Zm0-2.732a.638.638,0,1,1,.719-.632A.68.68,0,0,1,79.17,66.643Zm0-2.732a.638.638,0,1,1,.719-.632A.68.68,0,0,1,79.17,63.911Zm0-2.732a.638.638,0,1,1,.719-.632A.68.68,0,0,1,79.17,61.179Zm0-2.732a.638.638,0,1,1,.719-.632A.68.68,0,0,1,79.17,58.447Zm0-2.732a.638.638,0,1,1,.719-.632A.68.68,0,0,1,79.17,55.714Zm0-2.732a.638.638,0,1,1,.719-.632A.68.68,0,0,1,79.17,52.982Zm0-2.732a.638.638,0,1,1,.719-.632A.68.68,0,0,1,79.17,50.25Zm0-2.732a.638.638,0,1,1,.719-.632A.68.68,0,0,1,79.17,47.518Zm0-2.732a.638.638,0,1,1,.719-.632A.68.68,0,0,1,79.17,44.785Zm0-2.732a.638.638,0,1,1,.719-.632A.68.68,0,0,1,79.17,42.053Zm0-2.732a.638.638,0,1,1,.719-.632A.68.68,0,0,1,79.17,39.321Zm3.107,90.164a.638.638,0,1,1,.719-.632A.68.68,0,0,1,82.277,129.485Zm0-2.732a.638.638,0,1,1,.719-.632A.68.68,0,0,1,82.277,126.753Zm0-2.732a.638.638,0,1,1,.719-.632A.68.68,0,0,1,82.277,124.021Zm0-2.732a.638.638,0,1,1,.719-.632A.68.68,0,0,1,82.277,121.288Zm0-2.732a.638.638,0,1,1,.719-.632A.68.68,0,0,1,82.277,118.556Zm0-2.732a.638.638,0,1,1,.719-.632A.68.68,0,0,1,82.277,115.824Zm0-2.732a.638.638,0,1,1,.719-.632A.68.68,0,0,1,82.277,113.092Zm0-2.732a.638.638,0,1,1,.719-.632A.68.68,0,0,1,82.277,110.359Zm0-2.732a.638.638,0,1,1,.719-.632A.68.68,0,0,1,82.277,107.627Zm0-2.732a.638.638,0,1,1,.719-.632A.68.68,0,0,1,82.277,104.895Zm0-2.732A.638.638,0,1,1,83,101.53.68.68,0,0,1,82.277,102.163Zm0-2.732A.638.638,0,1,1,83,98.8.68.68,0,0,1,82.277,99.43Zm0-2.732A.638.638,0,1,1,83,96.066.68.68,0,0,1,82.277,96.7Zm0-2.732A.638.638,0,1,1,83,93.334.68.68,0,0,1,82.277,93.966Zm0-2.732A.638.638,0,1,1,83,90.6.68.68,0,0,1,82.277,91.234Zm0-2.732A.638.638,0,1,1,83,87.869.68.68,0,0,1,82.277,88.5Zm0-2.732A.638.638,0,1,1,83,85.137.68.68,0,0,1,82.277,85.769Zm0-2.732A.638.638,0,1,1,83,82.4.68.68,0,0,1,82.277,83.037Zm0-2.732A.638.638,0,1,1,83,79.672.68.68,0,0,1,82.277,80.3Zm0-2.732A.638.638,0,1,1,83,76.94.68.68,0,0,1,82.277,77.572Zm0-2.732A.638.638,0,1,1,83,74.208.68.68,0,0,1,82.277,74.84Zm0-2.732A.638.638,0,1,1,83,71.475.68.68,0,0,1,82.277,72.108Zm0-2.732A.638.638,0,1,1,83,68.743.68.68,0,0,1,82.277,69.376Zm0-2.732A.638.638,0,1,1,83,66.011.68.68,0,0,1,82.277,66.643Zm0-2.732A.638.638,0,1,1,83,63.279.68.68,0,0,1,82.277,63.911Zm0-2.732A.638.638,0,1,1,83,60.546.68.68,0,0,1,82.277,61.179Zm0-2.732A.638.638,0,1,1,83,57.814.68.68,0,0,1,82.277,58.447Zm0-2.732A.638.638,0,1,1,83,55.082.68.68,0,0,1,82.277,55.714Zm0-2.732A.638.638,0,1,1,83,52.35.68.68,0,0,1,82.277,52.982Zm0-2.732A.638.638,0,1,1,83,49.617.68.68,0,0,1,82.277,50.25Zm0-2.732A.638.638,0,1,1,83,46.885.68.68,0,0,1,82.277,47.518Zm0-2.732A.638.638,0,1,1,83,44.153.68.68,0,0,1,82.277,44.785Zm0-2.732A.638.638,0,1,1,83,41.421.68.68,0,0,1,82.277,42.053Zm0-2.732A.638.638,0,1,1,83,38.688.68.68,0,0,1,82.277,39.321Zm3.107,90.164a.638.638,0,1,1,.719-.632A.68.68,0,0,1,85.385,129.485Zm0-2.732a.638.638,0,1,1,.719-.632A.68.68,0,0,1,85.385,126.753Zm0-2.732a.638.638,0,1,1,.719-.632A.68.68,0,0,1,85.385,124.021Zm0-2.732a.638.638,0,1,1,.719-.632A.68.68,0,0,1,85.385,121.288Zm0-2.732a.638.638,0,1,1,.719-.632A.68.68,0,0,1,85.385,118.556Zm0-2.732a.638.638,0,1,1,.719-.632A.68.68,0,0,1,85.385,115.824Zm0-2.732a.638.638,0,1,1,.719-.632A.68.68,0,0,1,85.385,113.092Zm0-2.732a.638.638,0,1,1,.719-.632A.68.68,0,0,1,85.385,110.359Zm0-2.732a.638.638,0,1,1,.719-.632A.68.68,0,0,1,85.385,107.627Zm0-2.732a.638.638,0,1,1,.719-.632A.68.68,0,0,1,85.385,104.895Zm0-2.732a.638.638,0,1,1,.719-.632A.68.68,0,0,1,85.385,102.163Zm0-2.732A.638.638,0,1,1,86.1,98.8.68.68,0,0,1,85.385,99.43Zm0-2.732a.638.638,0,1,1,.719-.632A.68.68,0,0,1,85.385,96.7Zm0-2.732a.638.638,0,1,1,.719-.632A.68.68,0,0,1,85.385,93.966Zm0-2.732A.638.638,0,1,1,86.1,90.6.68.68,0,0,1,85.385,91.234Zm0-2.732a.638.638,0,1,1,.719-.632A.68.68,0,0,1,85.385,88.5Zm0-2.732a.638.638,0,1,1,.719-.632A.68.68,0,0,1,85.385,85.769Zm0-2.732A.638.638,0,1,1,86.1,82.4.68.68,0,0,1,85.385,83.037Zm0-2.732a.638.638,0,1,1,.719-.632A.68.68,0,0,1,85.385,80.3Zm0-2.732a.638.638,0,1,1,.719-.632A.68.68,0,0,1,85.385,77.572Zm0-2.732a.638.638,0,1,1,.719-.632A.68.68,0,0,1,85.385,74.84Zm0-2.732a.638.638,0,1,1,.719-.632A.68.68,0,0,1,85.385,72.108Zm0-2.732a.638.638,0,1,1,.719-.632A.68.68,0,0,1,85.385,69.376Zm0-2.732a.638.638,0,1,1,.719-.632A.68.68,0,0,1,85.385,66.643Zm0-2.732a.638.638,0,1,1,.719-.632A.68.68,0,0,1,85.385,63.911Zm0-2.732a.638.638,0,1,1,.719-.632A.68.68,0,0,1,85.385,61.179Zm0-2.732a.638.638,0,1,1,.719-.632A.68.68,0,0,1,85.385,58.447Zm0-2.732a.638.638,0,1,1,.719-.632A.68.68,0,0,1,85.385,55.714Zm0-2.732a.638.638,0,1,1,.719-.632A.68.68,0,0,1,85.385,52.982Zm0-2.732a.638.638,0,1,1,.719-.632A.68.68,0,0,1,85.385,50.25Zm0-2.732a.638.638,0,1,1,.719-.632A.68.68,0,0,1,85.385,47.518Zm0-2.732a.638.638,0,1,1,.719-.632A.68.68,0,0,1,85.385,44.785Zm0-2.732a.638.638,0,1,1,.719-.632A.68.68,0,0,1,85.385,42.053Zm0-2.732a.638.638,0,1,1,.719-.632A.68.68,0,0,1,85.385,39.321Zm3.107,90.164a.638.638,0,1,1,.719-.632A.68.68,0,0,1,88.492,129.485Zm0-2.732a.638.638,0,1,1,.719-.632A.68.68,0,0,1,88.492,126.753Zm0-2.732a.638.638,0,1,1,.719-.632A.68.68,0,0,1,88.492,124.021Zm0-2.732a.638.638,0,1,1,.719-.632A.68.68,0,0,1,88.492,121.288Zm0-2.732a.638.638,0,1,1,.719-.632A.68.68,0,0,1,88.492,118.556Zm0-2.732a.638.638,0,1,1,.719-.632A.68.68,0,0,1,88.492,115.824Zm0-2.732a.638.638,0,1,1,.719-.632A.68.68,0,0,1,88.492,113.092Zm0-2.732a.638.638,0,1,1,.719-.632A.68.68,0,0,1,88.492,110.359Zm0-2.732a.638.638,0,1,1,.719-.632A.68.68,0,0,1,88.492,107.627Zm0-2.732a.638.638,0,1,1,.719-.632A.68.68,0,0,1,88.492,104.895Zm0-2.732a.638.638,0,1,1,.719-.632A.68.68,0,0,1,88.492,102.163Zm0-2.732a.638.638,0,1,1,.719-.632A.68.68,0,0,1,88.492,99.43Zm0-2.732a.638.638,0,1,1,.719-.632A.68.68,0,0,1,88.492,96.7Zm0-2.732a.638.638,0,1,1,.719-.632A.68.68,0,0,1,88.492,93.966Zm0-2.732a.638.638,0,1,1,.719-.632A.68.68,0,0,1,88.492,91.234Zm0-2.732a.638.638,0,1,1,.719-.632A.68.68,0,0,1,88.492,88.5Zm0-2.732a.638.638,0,1,1,.719-.632A.68.68,0,0,1,88.492,85.769Zm0-2.732a.638.638,0,1,1,.719-.632A.68.68,0,0,1,88.492,83.037Zm0-2.732a.638.638,0,1,1,.719-.632A.68.68,0,0,1,88.492,80.3Zm0-2.732a.638.638,0,1,1,.719-.632A.68.68,0,0,1,88.492,77.572Zm0-2.732a.638.638,0,1,1,.719-.632A.68.68,0,0,1,88.492,74.84Zm0-2.732a.638.638,0,1,1,.719-.632A.68.68,0,0,1,88.492,72.108Zm0-2.732a.638.638,0,1,1,.719-.632A.68.68,0,0,1,88.492,69.376Zm0-2.732a.638.638,0,1,1,.719-.632A.68.68,0,0,1,88.492,66.643Zm0-2.732a.638.638,0,1,1,.719-.632A.68.68,0,0,1,88.492,63.911Zm0-2.732a.638.638,0,1,1,.719-.632A.68.68,0,0,1,88.492,61.179Zm0-2.732a.638.638,0,1,1,.719-.632A.68.68,0,0,1,88.492,58.447Zm0-2.732a.638.638,0,1,1,.719-.632A.68.68,0,0,1,88.492,55.714Zm0-2.732a.638.638,0,1,1,.719-.632A.68.68,0,0,1,88.492,52.982Zm0-2.732a.638.638,0,1,1,.719-.632A.68.68,0,0,1,88.492,50.25Zm0-2.732a.638.638,0,1,1,.719-.632A.68.68,0,0,1,88.492,47.518Zm0-2.732a.638.638,0,1,1,.719-.632A.68.68,0,0,1,88.492,44.785Zm0-2.732a.638.638,0,1,1,.719-.632A.68.68,0,0,1,88.492,42.053Zm0-2.732a.638.638,0,1,1,.719-.632A.68.68,0,0,1,88.492,39.321ZM91.6,129.485a.638.638,0,1,1,.719-.632A.68.68,0,0,1,91.6,129.485Zm0-2.732a.638.638,0,1,1,.719-.632A.68.68,0,0,1,91.6,126.753Zm0-2.732a.638.638,0,1,1,.719-.632A.68.68,0,0,1,91.6,124.021Zm0-2.732a.638.638,0,1,1,.719-.632A.68.68,0,0,1,91.6,121.288Zm0-2.732a.638.638,0,1,1,.719-.632A.68.68,0,0,1,91.6,118.556Zm0-2.732a.638.638,0,1,1,.719-.632A.68.68,0,0,1,91.6,115.824Zm0-2.732a.638.638,0,1,1,.719-.632A.68.68,0,0,1,91.6,113.092Zm0-2.732a.638.638,0,1,1,.719-.632A.68.68,0,0,1,91.6,110.359Zm0-2.732a.638.638,0,1,1,.719-.632A.68.68,0,0,1,91.6,107.627Zm0-2.732a.638.638,0,1,1,.719-.632A.68.68,0,0,1,91.6,104.895Zm0-2.732a.638.638,0,1,1,.719-.632A.68.68,0,0,1,91.6,102.163Zm0-2.732a.638.638,0,1,1,.719-.632A.68.68,0,0,1,91.6,99.43Zm0-2.732a.638.638,0,1,1,.719-.632A.68.68,0,0,1,91.6,96.7Zm0-2.732a.638.638,0,1,1,.719-.632A.68.68,0,0,1,91.6,93.966Zm0-2.732a.638.638,0,1,1,.719-.632A.68.68,0,0,1,91.6,91.234Zm0-2.732a.638.638,0,1,1,.719-.632A.68.68,0,0,1,91.6,88.5Zm0-2.732a.638.638,0,1,1,.719-.632A.68.68,0,0,1,91.6,85.769Zm0-2.732a.638.638,0,1,1,.719-.632A.68.68,0,0,1,91.6,83.037Zm0-2.732a.638.638,0,1,1,.719-.632A.68.68,0,0,1,91.6,80.3Zm0-2.732a.638.638,0,1,1,.719-.632A.68.68,0,0,1,91.6,77.572Zm0-2.732a.638.638,0,1,1,.719-.632A.68.68,0,0,1,91.6,74.84Zm0-2.732a.638.638,0,1,1,.719-.632A.68.68,0,0,1,91.6,72.108Zm0-2.732a.638.638,0,1,1,.719-.632A.68.68,0,0,1,91.6,69.376Zm0-2.732a.638.638,0,1,1,.719-.632A.68.68,0,0,1,91.6,66.643Zm0-2.732a.638.638,0,1,1,.719-.632A.68.68,0,0,1,91.6,63.911Zm0-2.732a.638.638,0,1,1,.719-.632A.68.68,0,0,1,91.6,61.179Zm0-2.732a.638.638,0,1,1,.719-.632A.68.68,0,0,1,91.6,58.447Zm0-2.732a.638.638,0,1,1,.719-.632A.68.68,0,0,1,91.6,55.714Zm0-2.732a.638.638,0,1,1,.719-.632A.68.68,0,0,1,91.6,52.982Zm0-2.732a.638.638,0,1,1,.719-.632A.68.68,0,0,1,91.6,50.25Zm0-2.732a.638.638,0,1,1,.719-.632A.68.68,0,0,1,91.6,47.518Zm0-2.732a.638.638,0,1,1,.719-.632A.68.68,0,0,1,91.6,44.785Zm0-2.732a.638.638,0,1,1,.719-.632A.68.68,0,0,1,91.6,42.053Zm0-2.732a.638.638,0,1,1,.719-.632A.68.68,0,0,1,91.6,39.321Zm3.107,90.164a.638.638,0,1,1,.719-.632A.68.68,0,0,1,94.707,129.485Zm0-2.732a.638.638,0,1,1,.719-.632A.68.68,0,0,1,94.707,126.753Zm0-2.732a.638.638,0,1,1,.719-.632A.68.68,0,0,1,94.707,124.021Zm0-2.732a.638.638,0,1,1,.719-.632A.68.68,0,0,1,94.707,121.288Zm0-2.732a.638.638,0,1,1,.719-.632A.68.68,0,0,1,94.707,118.556Zm0-2.732a.638.638,0,1,1,.719-.632A.68.68,0,0,1,94.707,115.824Zm0-2.732a.638.638,0,1,1,.719-.632A.68.68,0,0,1,94.707,113.092Zm0-2.732a.638.638,0,1,1,.719-.632A.68.68,0,0,1,94.707,110.359Zm0-2.732a.638.638,0,1,1,.719-.632A.68.68,0,0,1,94.707,107.627Zm0-2.732a.638.638,0,1,1,.719-.632A.68.68,0,0,1,94.707,104.895Zm0-2.732a.638.638,0,1,1,.719-.632A.68.68,0,0,1,94.707,102.163Zm0-2.732a.638.638,0,1,1,.719-.632A.68.68,0,0,1,94.707,99.43Zm0-2.732a.638.638,0,1,1,.719-.632A.68.68,0,0,1,94.707,96.7Zm0-2.732a.638.638,0,1,1,.719-.632A.68.68,0,0,1,94.707,93.966Zm0-2.732a.638.638,0,1,1,.719-.632A.68.68,0,0,1,94.707,91.234Zm0-2.732a.638.638,0,1,1,.719-.632A.68.68,0,0,1,94.707,88.5Zm0-2.732a.638.638,0,1,1,.719-.632A.68.68,0,0,1,94.707,85.769Zm0-2.732a.638.638,0,1,1,.719-.632A.68.68,0,0,1,94.707,83.037Zm0-2.732a.638.638,0,1,1,.719-.632A.68.68,0,0,1,94.707,80.3Zm0-2.732a.638.638,0,1,1,.719-.632A.68.68,0,0,1,94.707,77.572Zm0-2.732a.638.638,0,1,1,.719-.632A.68.68,0,0,1,94.707,74.84Zm0-2.732a.638.638,0,1,1,.719-.632A.68.68,0,0,1,94.707,72.108Zm0-2.732a.638.638,0,1,1,.719-.632A.68.68,0,0,1,94.707,69.376Zm0-2.732a.638.638,0,1,1,.719-.632A.68.68,0,0,1,94.707,66.643Zm0-2.732a.638.638,0,1,1,.719-.632A.68.68,0,0,1,94.707,63.911Zm0-2.732a.638.638,0,1,1,.719-.632A.68.68,0,0,1,94.707,61.179Zm0-2.732a.638.638,0,1,1,.719-.632A.68.68,0,0,1,94.707,58.447Zm0-2.732a.638.638,0,1,1,.719-.632A.68.68,0,0,1,94.707,55.714Zm0-2.732a.638.638,0,1,1,.719-.632A.68.68,0,0,1,94.707,52.982Zm0-2.732a.638.638,0,1,1,.719-.632A.68.68,0,0,1,94.707,50.25Zm0-2.732a.638.638,0,1,1,.719-.632A.68.68,0,0,1,94.707,47.518Zm0-2.732a.638.638,0,1,1,.719-.632A.68.68,0,0,1,94.707,44.785Zm0-2.732a.638.638,0,1,1,.719-.632A.68.68,0,0,1,94.707,42.053Zm0-2.732a.638.638,0,1,1,.719-.632A.68.68,0,0,1,94.707,39.321Zm3.107,90.164a.638.638,0,1,1,.719-.632A.68.68,0,0,1,97.814,129.485Zm0-2.732a.638.638,0,1,1,.719-.632A.68.68,0,0,1,97.814,126.753Zm0-2.732a.638.638,0,1,1,.719-.632A.68.68,0,0,1,97.814,124.021Zm0-2.732a.638.638,0,1,1,.719-.632A.68.68,0,0,1,97.814,121.288Zm0-2.732a.638.638,0,1,1,.719-.632A.68.68,0,0,1,97.814,118.556Zm0-2.732a.638.638,0,1,1,.719-.632A.68.68,0,0,1,97.814,115.824Zm0-2.732a.638.638,0,1,1,.719-.632A.68.68,0,0,1,97.814,113.092Zm0-2.732a.638.638,0,1,1,.719-.632A.68.68,0,0,1,97.814,110.359Zm0-2.732a.638.638,0,1,1,.719-.632A.68.68,0,0,1,97.814,107.627Zm0-2.732a.638.638,0,1,1,.719-.632A.68.68,0,0,1,97.814,104.895Zm0-2.732a.638.638,0,1,1,.719-.632A.68.68,0,0,1,97.814,102.163Zm0-2.732a.638.638,0,1,1,.719-.632A.68.68,0,0,1,97.814,99.43Zm0-2.732a.638.638,0,1,1,.719-.632A.68.68,0,0,1,97.814,96.7Zm0-2.732a.638.638,0,1,1,.719-.632A.68.68,0,0,1,97.814,93.966Zm0-2.732a.638.638,0,1,1,.719-.632A.68.68,0,0,1,97.814,91.234Zm0-2.732a.638.638,0,1,1,.719-.632A.68.68,0,0,1,97.814,88.5Zm0-2.732a.638.638,0,1,1,.719-.632A.68.68,0,0,1,97.814,85.769Zm0-2.732a.638.638,0,1,1,.719-.632A.68.68,0,0,1,97.814,83.037Zm0-2.732a.638.638,0,1,1,.719-.632A.68.68,0,0,1,97.814,80.3Zm0-2.732a.638.638,0,1,1,.719-.632A.68.68,0,0,1,97.814,77.572Zm0-2.732a.638.638,0,1,1,.719-.632A.68.68,0,0,1,97.814,74.84Zm0-2.732a.638.638,0,1,1,.719-.632A.68.68,0,0,1,97.814,72.108Zm0-2.732a.638.638,0,1,1,.719-.632A.68.68,0,0,1,97.814,69.376Zm0-2.732a.638.638,0,1,1,.719-.632A.68.68,0,0,1,97.814,66.643Zm0-2.732a.638.638,0,1,1,.719-.632A.68.68,0,0,1,97.814,63.911Zm0-2.732a.638.638,0,1,1,.719-.632A.68.68,0,0,1,97.814,61.179Zm0-2.732a.638.638,0,1,1,.719-.632A.68.68,0,0,1,97.814,58.447Zm0-2.732a.638.638,0,1,1,.719-.632A.68.68,0,0,1,97.814,55.714Zm0-2.732a.638.638,0,1,1,.719-.632A.68.68,0,0,1,97.814,52.982Zm0-2.732a.638.638,0,1,1,.719-.632A.68.68,0,0,1,97.814,50.25Zm0-2.732a.638.638,0,1,1,.719-.632A.68.68,0,0,1,97.814,47.518Zm0-2.732a.638.638,0,1,1,.719-.632A.68.68,0,0,1,97.814,44.785Zm0-2.732a.638.638,0,1,1,.719-.632A.68.68,0,0,1,97.814,42.053Zm0-2.732a.638.638,0,1,1,.719-.632A.68.68,0,0,1,97.814,39.321Zm3.107,90.164a.638.638,0,1,1,.719-.632A.68.68,0,0,1,100.921,129.485Zm0-2.732a.638.638,0,1,1,.719-.632A.68.68,0,0,1,100.921,126.753Zm0-2.732a.638.638,0,1,1,.719-.632A.68.68,0,0,1,100.921,124.021Zm0-2.732a.638.638,0,1,1,.719-.632A.68.68,0,0,1,100.921,121.288Zm0-2.732a.638.638,0,1,1,.719-.632A.68.68,0,0,1,100.921,118.556Zm0-2.732a.638.638,0,1,1,.719-.632A.68.68,0,0,1,100.921,115.824Zm0-2.732a.638.638,0,1,1,.719-.632A.68.68,0,0,1,100.921,113.092Zm0-2.732a.638.638,0,1,1,.719-.632A.68.68,0,0,1,100.921,110.359Zm0-2.732a.638.638,0,1,1,.719-.632A.68.68,0,0,1,100.921,107.627Zm0-2.732a.638.638,0,1,1,.719-.632A.68.68,0,0,1,100.921,104.895Zm0-2.732a.638.638,0,1,1,.719-.632A.68.68,0,0,1,100.921,102.163Zm0-2.732a.638.638,0,1,1,.719-.632A.68.68,0,0,1,100.921,99.43Zm0-2.732a.638.638,0,1,1,.719-.632A.68.68,0,0,1,100.921,96.7Zm0-2.732a.638.638,0,1,1,.719-.632A.68.68,0,0,1,100.921,93.966Zm0-2.732a.638.638,0,1,1,.719-.632A.68.68,0,0,1,100.921,91.234Zm0-2.732a.638.638,0,1,1,.719-.632A.68.68,0,0,1,100.921,88.5Zm0-2.732a.638.638,0,1,1,.719-.632A.68.68,0,0,1,100.921,85.769Zm0-2.732a.638.638,0,1,1,.719-.632A.68.68,0,0,1,100.921,83.037Zm0-2.732a.638.638,0,1,1,.719-.632A.68.68,0,0,1,100.921,80.3Zm0-2.732a.638.638,0,1,1,.719-.632A.68.68,0,0,1,100.921,77.572Zm0-2.732a.638.638,0,1,1,.719-.632A.68.68,0,0,1,100.921,74.84Zm0-2.732a.638.638,0,1,1,.719-.632A.68.68,0,0,1,100.921,72.108Zm0-2.732a.638.638,0,1,1,.719-.632A.68.68,0,0,1,100.921,69.376Zm0-2.732a.638.638,0,1,1,.719-.632A.68.68,0,0,1,100.921,66.643Zm0-2.732a.638.638,0,1,1,.719-.632A.68.68,0,0,1,100.921,63.911Zm0-2.732a.638.638,0,1,1,.719-.632A.68.68,0,0,1,100.921,61.179Zm0-2.732a.638.638,0,1,1,.719-.632A.68.68,0,0,1,100.921,58.447Zm0-2.732a.638.638,0,1,1,.719-.632A.68.68,0,0,1,100.921,55.714Zm0-2.732a.638.638,0,1,1,.719-.632A.68.68,0,0,1,100.921,52.982Zm0-2.732a.638.638,0,1,1,.719-.632A.68.68,0,0,1,100.921,50.25Zm0-2.732a.638.638,0,1,1,.719-.632A.68.68,0,0,1,100.921,47.518Zm0-2.732a.638.638,0,1,1,.719-.632A.68.68,0,0,1,100.921,44.785Zm0-2.732a.638.638,0,1,1,.719-.632A.68.68,0,0,1,100.921,42.053Zm0-2.732a.638.638,0,1,1,.719-.632A.68.68,0,0,1,100.921,39.321Zm3.107,87.432a.638.638,0,1,1,.719-.632A.68.68,0,0,1,104.028,126.753Zm0-2.732a.638.638,0,1,1,.719-.632A.68.68,0,0,1,104.028,124.021Zm0-2.732a.638.638,0,1,1,.719-.632A.68.68,0,0,1,104.028,121.288Zm0-2.732a.638.638,0,1,1,.719-.632A.68.68,0,0,1,104.028,118.556Zm0-2.732a.638.638,0,1,1,.719-.632A.68.68,0,0,1,104.028,115.824Zm0-2.732a.638.638,0,1,1,.719-.632A.68.68,0,0,1,104.028,113.092Zm0-2.732a.638.638,0,1,1,.719-.632A.68.68,0,0,1,104.028,110.359Zm0-2.732a.638.638,0,1,1,.719-.632A.68.68,0,0,1,104.028,107.627Zm0-2.732a.638.638,0,1,1,.719-.632A.68.68,0,0,1,104.028,104.895Zm0-2.732a.638.638,0,1,1,.719-.632A.68.68,0,0,1,104.028,102.163Zm0-2.732a.638.638,0,1,1,.719-.632A.68.68,0,0,1,104.028,99.43Zm0-2.732a.638.638,0,1,1,.719-.632A.68.68,0,0,1,104.028,96.7Zm0-2.732a.638.638,0,1,1,.719-.632A.68.68,0,0,1,104.028,93.966Zm0-2.732a.638.638,0,1,1,.719-.632A.68.68,0,0,1,104.028,91.234Zm0-2.732a.638.638,0,1,1,.719-.632A.68.68,0,0,1,104.028,88.5Zm0-2.732a.638.638,0,1,1,.719-.632A.68.68,0,0,1,104.028,85.769Zm0-2.732a.638.638,0,1,1,.719-.632A.68.68,0,0,1,104.028,83.037Zm0-2.732a.638.638,0,1,1,.719-.632A.68.68,0,0,1,104.028,80.3Zm0-2.732a.638.638,0,1,1,.719-.632A.68.68,0,0,1,104.028,77.572Zm0-2.732a.638.638,0,1,1,.719-.632A.68.68,0,0,1,104.028,74.84Zm0-2.732a.638.638,0,1,1,.719-.632A.68.68,0,0,1,104.028,72.108Zm0-2.732a.638.638,0,1,1,.719-.632A.68.68,0,0,1,104.028,69.376Zm0-2.732a.638.638,0,1,1,.719-.632A.68.68,0,0,1,104.028,66.643Zm0-2.732a.638.638,0,1,1,.719-.632A.68.68,0,0,1,104.028,63.911Zm0-2.732a.638.638,0,1,1,.719-.632A.68.68,0,0,1,104.028,61.179Zm0-2.732a.638.638,0,1,1,.719-.632A.68.68,0,0,1,104.028,58.447Zm0-2.732a.638.638,0,1,1,.719-.632A.68.68,0,0,1,104.028,55.714Zm0-2.732a.638.638,0,1,1,.719-.632A.68.68,0,0,1,104.028,52.982Zm0-2.732a.638.638,0,1,1,.719-.632A.68.68,0,0,1,104.028,50.25Zm0-2.732a.638.638,0,1,1,.719-.632A.68.68,0,0,1,104.028,47.518Zm0-2.732a.638.638,0,1,1,.719-.632A.68.68,0,0,1,104.028,44.785Zm0-2.732a.638.638,0,1,1,.719-.632A.68.68,0,0,1,104.028,42.053Zm3.107,84.7a.638.638,0,1,1,.719-.632A.68.68,0,0,1,107.136,126.753Zm0-2.732a.638.638,0,1,1,.719-.632A.68.68,0,0,1,107.136,124.021Zm0-2.732a.638.638,0,1,1,.719-.632A.68.68,0,0,1,107.136,121.288Zm0-2.732a.638.638,0,1,1,.719-.632A.68.68,0,0,1,107.136,118.556Zm0-2.732a.638.638,0,1,1,.719-.632A.68.68,0,0,1,107.136,115.824Zm0-2.732a.638.638,0,1,1,.719-.632A.68.68,0,0,1,107.136,113.092Zm0-2.732a.638.638,0,1,1,.719-.632A.68.68,0,0,1,107.136,110.359Zm0-2.732a.638.638,0,1,1,.719-.632A.68.68,0,0,1,107.136,107.627Zm0-2.732a.638.638,0,1,1,.719-.632A.68.68,0,0,1,107.136,104.895Zm0-2.732a.638.638,0,1,1,.719-.632A.68.68,0,0,1,107.136,102.163Zm0-2.732a.638.638,0,1,1,.719-.632A.68.68,0,0,1,107.136,99.43Zm0-2.732a.638.638,0,1,1,.719-.632A.68.68,0,0,1,107.136,96.7Zm0-2.732a.638.638,0,1,1,.719-.632A.68.68,0,0,1,107.136,93.966Zm0-2.732a.638.638,0,1,1,.719-.632A.68.68,0,0,1,107.136,91.234Zm0-2.732a.638.638,0,1,1,.719-.632A.68.68,0,0,1,107.136,88.5Zm0-2.732a.638.638,0,1,1,.719-.632A.68.68,0,0,1,107.136,85.769Zm0-2.732a.638.638,0,1,1,.719-.632A.68.68,0,0,1,107.136,83.037Zm0-2.732a.638.638,0,1,1,.719-.632A.68.68,0,0,1,107.136,80.3Zm0-2.732a.638.638,0,1,1,.719-.632A.68.68,0,0,1,107.136,77.572Zm0-2.732a.638.638,0,1,1,.719-.632A.68.68,0,0,1,107.136,74.84Zm0-2.732a.638.638,0,1,1,.719-.632A.68.68,0,0,1,107.136,72.108Zm0-2.732a.638.638,0,1,1,.719-.632A.68.68,0,0,1,107.136,69.376Zm0-2.732a.638.638,0,1,1,.719-.632A.68.68,0,0,1,107.136,66.643Zm0-2.732a.638.638,0,1,1,.719-.632A.68.68,0,0,1,107.136,63.911Zm0-2.732a.638.638,0,1,1,.719-.632A.68.68,0,0,1,107.136,61.179Zm0-2.732a.638.638,0,1,1,.719-.632A.68.68,0,0,1,107.136,58.447Zm0-2.732a.638.638,0,1,1,.719-.632A.68.68,0,0,1,107.136,55.714Zm0-2.732a.638.638,0,1,1,.719-.632A.68.68,0,0,1,107.136,52.982Zm0-2.732a.638.638,0,1,1,.719-.632A.68.68,0,0,1,107.136,50.25Zm0-2.732a.638.638,0,1,1,.719-.632A.68.68,0,0,1,107.136,47.518Zm0-2.732a.638.638,0,1,1,.719-.632A.68.68,0,0,1,107.136,44.785Zm0-2.732a.638.638,0,1,1,.719-.632A.68.68,0,0,1,107.136,42.053Zm3.107,84.7a.638.638,0,1,1,.719-.632A.68.68,0,0,1,110.243,126.753Zm0-2.732a.638.638,0,1,1,.719-.632A.68.68,0,0,1,110.243,124.021Zm0-2.732a.638.638,0,1,1,.719-.632A.68.68,0,0,1,110.243,121.288Zm0-2.732a.638.638,0,1,1,.719-.632A.68.68,0,0,1,110.243,118.556Zm0-2.732a.638.638,0,1,1,.719-.632A.68.68,0,0,1,110.243,115.824Zm0-2.732a.638.638,0,1,1,.719-.632A.68.68,0,0,1,110.243,113.092Zm0-2.732a.638.638,0,1,1,.719-.632A.68.68,0,0,1,110.243,110.359Zm0-2.732a.638.638,0,1,1,.719-.632A.68.68,0,0,1,110.243,107.627Zm0-2.732a.638.638,0,1,1,.719-.632A.68.68,0,0,1,110.243,104.895Zm0-2.732a.638.638,0,1,1,.719-.632A.68.68,0,0,1,110.243,102.163Zm0-2.732a.638.638,0,1,1,.719-.632A.68.68,0,0,1,110.243,99.43Zm0-2.732a.638.638,0,1,1,.719-.632A.68.68,0,0,1,110.243,96.7Zm0-2.732a.638.638,0,1,1,.719-.632A.68.68,0,0,1,110.243,93.966Zm0-2.732a.638.638,0,1,1,.719-.632A.68.68,0,0,1,110.243,91.234Zm0-2.732a.638.638,0,1,1,.719-.632A.68.68,0,0,1,110.243,88.5Zm0-2.732a.638.638,0,1,1,.719-.632A.68.68,0,0,1,110.243,85.769Zm0-2.732a.638.638,0,1,1,.719-.632A.68.68,0,0,1,110.243,83.037Zm0-2.732a.638.638,0,1,1,.719-.632A.68.68,0,0,1,110.243,80.3Zm0-2.732a.638.638,0,1,1,.719-.632A.68.68,0,0,1,110.243,77.572Zm0-2.732a.638.638,0,1,1,.719-.632A.68.68,0,0,1,110.243,74.84Zm0-2.732a.638.638,0,1,1,.719-.632A.68.68,0,0,1,110.243,72.108Zm0-2.732a.638.638,0,1,1,.719-.632A.68.68,0,0,1,110.243,69.376Zm0-2.732a.638.638,0,1,1,.719-.632A.68.68,0,0,1,110.243,66.643Zm0-2.732a.638.638,0,1,1,.719-.632A.68.68,0,0,1,110.243,63.911Zm0-2.732a.638.638,0,1,1,.719-.632A.68.68,0,0,1,110.243,61.179Zm0-2.732a.638.638,0,1,1,.719-.632A.68.68,0,0,1,110.243,58.447Zm0-2.732a.638.638,0,1,1,.719-.632A.68.68,0,0,1,110.243,55.714Zm0-2.732a.638.638,0,1,1,.719-.632A.68.68,0,0,1,110.243,52.982Zm0-2.732a.638.638,0,1,1,.719-.632A.68.68,0,0,1,110.243,50.25Zm0-2.732a.638.638,0,1,1,.719-.632A.68.68,0,0,1,110.243,47.518Zm0-2.732a.638.638,0,1,1,.719-.632A.68.68,0,0,1,110.243,44.785Zm0-2.732a.638.638,0,1,1,.719-.632A.68.68,0,0,1,110.243,42.053Zm3.107,81.968a.638.638,0,1,1,.719-.632A.68.68,0,0,1,113.35,124.021Zm0-2.732a.638.638,0,1,1,.719-.632A.68.68,0,0,1,113.35,121.288Zm0-2.732a.638.638,0,1,1,.719-.632A.68.68,0,0,1,113.35,118.556Zm0-2.732a.638.638,0,1,1,.719-.632A.68.68,0,0,1,113.35,115.824Zm0-2.732a.638.638,0,1,1,.719-.632A.68.68,0,0,1,113.35,113.092Zm0-2.732a.638.638,0,1,1,.719-.632A.68.68,0,0,1,113.35,110.359Zm0-2.732a.638.638,0,1,1,.719-.632A.68.68,0,0,1,113.35,107.627Zm0-2.732a.638.638,0,1,1,.719-.632A.68.68,0,0,1,113.35,104.895Zm0-2.732a.638.638,0,1,1,.719-.632A.68.68,0,0,1,113.35,102.163Zm0-2.732a.638.638,0,1,1,.719-.632A.68.68,0,0,1,113.35,99.43Zm0-2.732a.638.638,0,1,1,.719-.632A.68.68,0,0,1,113.35,96.7Zm0-2.732a.638.638,0,1,1,.719-.632A.68.68,0,0,1,113.35,93.966Zm0-2.732a.638.638,0,1,1,.719-.632A.68.68,0,0,1,113.35,91.234Zm0-2.732a.638.638,0,1,1,.719-.632A.68.68,0,0,1,113.35,88.5Zm0-2.732a.638.638,0,1,1,.719-.632A.68.68,0,0,1,113.35,85.769Zm0-2.732a.638.638,0,1,1,.719-.632A.68.68,0,0,1,113.35,83.037Zm0-2.732a.638.638,0,1,1,.719-.632A.68.68,0,0,1,113.35,80.3Zm0-2.732a.638.638,0,1,1,.719-.632A.68.68,0,0,1,113.35,77.572Zm0-2.732a.638.638,0,1,1,.719-.632A.68.68,0,0,1,113.35,74.84Zm0-2.732a.638.638,0,1,1,.719-.632A.68.68,0,0,1,113.35,72.108Zm0-2.732a.638.638,0,1,1,.719-.632A.68.68,0,0,1,113.35,69.376Zm0-2.732a.638.638,0,1,1,.719-.632A.68.68,0,0,1,113.35,66.643Zm0-2.732a.638.638,0,1,1,.719-.632A.68.68,0,0,1,113.35,63.911Zm0-2.732a.638.638,0,1,1,.719-.632A.68.68,0,0,1,113.35,61.179Zm0-2.732a.638.638,0,1,1,.719-.632A.68.68,0,0,1,113.35,58.447Zm0-2.732a.638.638,0,1,1,.719-.632A.68.68,0,0,1,113.35,55.714Zm0-2.732a.638.638,0,1,1,.719-.632A.68.68,0,0,1,113.35,52.982Zm0-2.732a.638.638,0,1,1,.719-.632A.68.68,0,0,1,113.35,50.25Zm0-2.732a.638.638,0,1,1,.719-.632A.68.68,0,0,1,113.35,47.518Zm0-2.732a.638.638,0,1,1,.719-.632A.68.68,0,0,1,113.35,44.785Zm3.107,79.235a.638.638,0,1,1,.719-.632A.68.68,0,0,1,116.458,124.021Zm0-2.732a.638.638,0,1,1,.719-.632A.68.68,0,0,1,116.458,121.288Zm0-2.732a.638.638,0,1,1,.719-.632A.68.68,0,0,1,116.458,118.556Zm0-2.732a.638.638,0,1,1,.719-.632A.68.68,0,0,1,116.458,115.824Zm0-2.732a.638.638,0,1,1,.719-.632A.68.68,0,0,1,116.458,113.092Zm0-2.732a.638.638,0,1,1,.719-.632A.68.68,0,0,1,116.458,110.359Zm0-2.732a.638.638,0,1,1,.719-.632A.68.68,0,0,1,116.458,107.627Zm0-2.732a.638.638,0,1,1,.719-.632A.68.68,0,0,1,116.458,104.895Zm0-2.732a.638.638,0,1,1,.719-.632A.68.68,0,0,1,116.458,102.163Zm0-2.732a.638.638,0,1,1,.719-.632A.68.68,0,0,1,116.458,99.43Zm0-2.732a.638.638,0,1,1,.719-.632A.68.68,0,0,1,116.458,96.7Zm0-2.732a.638.638,0,1,1,.719-.632A.68.68,0,0,1,116.458,93.966Zm0-2.732a.638.638,0,1,1,.719-.632A.68.68,0,0,1,116.458,91.234Zm0-2.732a.638.638,0,1,1,.719-.632A.68.68,0,0,1,116.458,88.5Zm0-2.732a.638.638,0,1,1,.719-.632A.68.68,0,0,1,116.458,85.769Zm0-2.732a.638.638,0,1,1,.719-.632A.68.68,0,0,1,116.458,83.037Zm0-2.732a.638.638,0,1,1,.719-.632A.68.68,0,0,1,116.458,80.3Zm0-2.732a.638.638,0,1,1,.719-.632A.68.68,0,0,1,116.458,77.572Zm0-2.732a.638.638,0,1,1,.719-.632A.68.68,0,0,1,116.458,74.84Zm0-2.732a.638.638,0,1,1,.719-.632A.68.68,0,0,1,116.458,72.108Zm0-2.732a.638.638,0,1,1,.719-.632A.68.68,0,0,1,116.458,69.376Zm0-2.732a.638.638,0,1,1,.719-.632A.68.68,0,0,1,116.458,66.643Zm0-2.732a.638.638,0,1,1,.719-.632A.68.68,0,0,1,116.458,63.911Zm0-2.732a.638.638,0,1,1,.719-.632A.68.68,0,0,1,116.458,61.179Zm0-2.732a.638.638,0,1,1,.719-.632A.68.68,0,0,1,116.458,58.447Zm0-2.732a.638.638,0,1,1,.719-.632A.68.68,0,0,1,116.458,55.714Zm0-2.732a.638.638,0,1,1,.719-.632A.68.68,0,0,1,116.458,52.982Zm0-2.732a.638.638,0,1,1,.719-.632A.68.68,0,0,1,116.458,50.25Zm0-2.732a.638.638,0,1,1,.719-.632A.68.68,0,0,1,116.458,47.518Zm0-2.732a.638.638,0,1,1,.719-.632A.68.68,0,0,1,116.458,44.785Zm3.107,76.5a.638.638,0,1,1,.719-.632A.68.68,0,0,1,119.565,121.288Zm0-2.732a.638.638,0,1,1,.719-.632A.68.68,0,0,1,119.565,118.556Zm0-2.732a.638.638,0,1,1,.719-.632A.68.68,0,0,1,119.565,115.824Zm0-2.732a.638.638,0,1,1,.719-.632A.68.68,0,0,1,119.565,113.092Zm0-2.732a.638.638,0,1,1,.719-.632A.68.68,0,0,1,119.565,110.359Zm0-2.732a.638.638,0,1,1,.719-.632A.68.68,0,0,1,119.565,107.627Zm0-2.732a.638.638,0,1,1,.719-.632A.68.68,0,0,1,119.565,104.895Zm0-2.732a.638.638,0,1,1,.719-.632A.68.68,0,0,1,119.565,102.163Zm0-2.732a.638.638,0,1,1,.719-.632A.68.68,0,0,1,119.565,99.43Zm0-2.732a.638.638,0,1,1,.719-.632A.68.68,0,0,1,119.565,96.7Zm0-2.732a.638.638,0,1,1,.719-.632A.68.68,0,0,1,119.565,93.966Zm0-2.732a.638.638,0,1,1,.719-.632A.68.68,0,0,1,119.565,91.234Zm0-2.732a.638.638,0,1,1,.719-.632A.68.68,0,0,1,119.565,88.5Zm0-2.732a.638.638,0,1,1,.719-.632A.68.68,0,0,1,119.565,85.769Zm0-2.732a.638.638,0,1,1,.719-.632A.68.68,0,0,1,119.565,83.037Zm0-2.732a.638.638,0,1,1,.719-.632A.68.68,0,0,1,119.565,80.3Zm0-2.732a.638.638,0,1,1,.719-.632A.68.68,0,0,1,119.565,77.572Zm0-2.732a.638.638,0,1,1,.719-.632A.68.68,0,0,1,119.565,74.84Zm0-2.732a.638.638,0,1,1,.719-.632A.68.68,0,0,1,119.565,72.108Zm0-2.732a.638.638,0,1,1,.719-.632A.68.68,0,0,1,119.565,69.376Zm0-2.732a.638.638,0,1,1,.719-.632A.68.68,0,0,1,119.565,66.643Zm0-2.732a.638.638,0,1,1,.719-.632A.68.68,0,0,1,119.565,63.911Zm0-2.732a.638.638,0,1,1,.719-.632A.68.68,0,0,1,119.565,61.179Zm0-2.732a.638.638,0,1,1,.719-.632A.68.68,0,0,1,119.565,58.447Zm0-2.732a.638.638,0,1,1,.719-.632A.68.68,0,0,1,119.565,55.714Zm0-2.732a.638.638,0,1,1,.719-.632A.68.68,0,0,1,119.565,52.982Zm0-2.732a.638.638,0,1,1,.719-.632A.68.68,0,0,1,119.565,50.25Zm0-2.732a.638.638,0,1,1,.719-.632A.68.68,0,0,1,119.565,47.518Zm3.107,71.039a.638.638,0,1,1,.719-.632A.68.68,0,0,1,122.672,118.556Zm0-2.732a.638.638,0,1,1,.719-.632A.68.68,0,0,1,122.672,115.824Zm0-2.732a.638.638,0,1,1,.719-.632A.68.68,0,0,1,122.672,113.092Zm0-2.732a.638.638,0,1,1,.719-.632A.68.68,0,0,1,122.672,110.359Zm0-2.732a.638.638,0,1,1,.719-.632A.68.68,0,0,1,122.672,107.627Zm0-2.732a.638.638,0,1,1,.719-.632A.68.68,0,0,1,122.672,104.895Zm0-2.732a.638.638,0,1,1,.719-.632A.68.68,0,0,1,122.672,102.163Zm0-2.732a.638.638,0,1,1,.719-.632A.68.68,0,0,1,122.672,99.43Zm0-2.732a.638.638,0,1,1,.719-.632A.68.68,0,0,1,122.672,96.7Zm0-2.732a.638.638,0,1,1,.719-.632A.68.68,0,0,1,122.672,93.966Zm0-2.732a.638.638,0,1,1,.719-.632A.68.68,0,0,1,122.672,91.234Zm0-2.732a.638.638,0,1,1,.719-.632A.68.68,0,0,1,122.672,88.5Zm0-2.732a.638.638,0,1,1,.719-.632A.68.68,0,0,1,122.672,85.769Zm0-2.732a.638.638,0,1,1,.719-.632A.68.68,0,0,1,122.672,83.037Zm0-2.732a.638.638,0,1,1,.719-.632A.68.68,0,0,1,122.672,80.3Zm0-2.732a.638.638,0,1,1,.719-.632A.68.68,0,0,1,122.672,77.572Zm0-2.732a.638.638,0,1,1,.719-.632A.68.68,0,0,1,122.672,74.84Zm0-2.732a.638.638,0,1,1,.719-.632A.68.68,0,0,1,122.672,72.108Zm0-2.732a.638.638,0,1,1,.719-.632A.68.68,0,0,1,122.672,69.376Zm0-2.732a.638.638,0,1,1,.719-.632A.68.68,0,0,1,122.672,66.643Zm0-2.732a.638.638,0,1,1,.719-.632A.68.68,0,0,1,122.672,63.911Zm0-2.732a.638.638,0,1,1,.719-.632A.68.68,0,0,1,122.672,61.179Zm0-2.732a.638.638,0,1,1,.719-.632A.68.68,0,0,1,122.672,58.447Zm0-2.732a.638.638,0,1,1,.719-.632A.68.68,0,0,1,122.672,55.714Zm0-2.732a.638.638,0,1,1,.719-.632A.68.68,0,0,1,122.672,52.982Zm0-2.732a.638.638,0,1,1,.719-.632A.68.68,0,0,1,122.672,50.25Zm3.107,68.306a.638.638,0,1,1,.719-.632A.68.68,0,0,1,125.78,118.556Zm0-2.732a.638.638,0,1,1,.719-.632A.68.68,0,0,1,125.78,115.824Zm0-2.732a.638.638,0,1,1,.719-.632A.68.68,0,0,1,125.78,113.092Zm0-2.732a.638.638,0,1,1,.719-.632A.68.68,0,0,1,125.78,110.359Zm0-2.732a.638.638,0,1,1,.719-.632A.68.68,0,0,1,125.78,107.627Zm0-2.732a.638.638,0,1,1,.719-.632A.68.68,0,0,1,125.78,104.895Zm0-2.732a.638.638,0,1,1,.719-.632A.68.68,0,0,1,125.78,102.163Zm0-2.732a.638.638,0,1,1,.719-.632A.68.68,0,0,1,125.78,99.43Zm0-2.732a.638.638,0,1,1,.719-.632A.68.68,0,0,1,125.78,96.7Zm0-2.732a.638.638,0,1,1,.719-.632A.68.68,0,0,1,125.78,93.966Zm0-2.732a.638.638,0,1,1,.719-.632A.68.68,0,0,1,125.78,91.234Zm0-2.732a.638.638,0,1,1,.719-.632A.68.68,0,0,1,125.78,88.5Zm0-2.732a.638.638,0,1,1,.719-.632A.68.68,0,0,1,125.78,85.769Zm0-2.732a.638.638,0,1,1,.719-.632A.68.68,0,0,1,125.78,83.037Zm0-2.732a.638.638,0,1,1,.719-.632A.68.68,0,0,1,125.78,80.3Zm0-2.732a.638.638,0,1,1,.719-.632A.68.68,0,0,1,125.78,77.572Zm0-2.732a.638.638,0,1,1,.719-.632A.68.68,0,0,1,125.78,74.84Zm0-2.732a.638.638,0,1,1,.719-.632A.68.68,0,0,1,125.78,72.108Zm0-2.732a.638.638,0,1,1,.719-.632A.68.68,0,0,1,125.78,69.376Zm0-2.732a.638.638,0,1,1,.719-.632A.68.68,0,0,1,125.78,66.643Zm0-2.732a.638.638,0,1,1,.719-.632A.68.68,0,0,1,125.78,63.911Zm0-2.732a.638.638,0,1,1,.719-.632A.68.68,0,0,1,125.78,61.179Zm0-2.732a.638.638,0,1,1,.719-.632A.68.68,0,0,1,125.78,58.447Zm0-2.732a.638.638,0,1,1,.719-.632A.68.68,0,0,1,125.78,55.714Zm0-2.732a.638.638,0,1,1,.719-.632A.68.68,0,0,1,125.78,52.982Zm0-2.732a.638.638,0,1,1,.719-.632A.68.68,0,0,1,125.78,50.25Zm3.107,65.574a.638.638,0,1,1,.719-.632A.68.68,0,0,1,128.887,115.824Zm0-2.732a.638.638,0,1,1,.719-.632A.68.68,0,0,1,128.887,113.092Zm0-2.732a.638.638,0,1,1,.719-.632A.68.68,0,0,1,128.887,110.359Zm0-2.732a.638.638,0,1,1,.719-.632A.68.68,0,0,1,128.887,107.627Zm0-2.732a.638.638,0,1,1,.719-.632A.68.68,0,0,1,128.887,104.895Zm0-2.732a.638.638,0,1,1,.719-.632A.68.68,0,0,1,128.887,102.163Zm0-2.732a.638.638,0,1,1,.719-.632A.68.68,0,0,1,128.887,99.43Zm0-2.732a.638.638,0,1,1,.719-.632A.68.68,0,0,1,128.887,96.7Zm0-2.732a.638.638,0,1,1,.719-.632A.68.68,0,0,1,128.887,93.966Zm0-2.732a.638.638,0,1,1,.719-.632A.68.68,0,0,1,128.887,91.234Zm0-2.732a.638.638,0,1,1,.719-.632A.68.68,0,0,1,128.887,88.5Zm0-2.732a.638.638,0,1,1,.719-.632A.68.68,0,0,1,128.887,85.769Zm0-2.732a.638.638,0,1,1,.719-.632A.68.68,0,0,1,128.887,83.037Zm0-2.732a.638.638,0,1,1,.719-.632A.68.68,0,0,1,128.887,80.3Zm0-2.732a.638.638,0,1,1,.719-.632A.68.68,0,0,1,128.887,77.572Zm0-2.732a.638.638,0,1,1,.719-.632A.68.68,0,0,1,128.887,74.84Zm0-2.732a.638.638,0,1,1,.719-.632A.68.68,0,0,1,128.887,72.108Zm0-2.732a.638.638,0,1,1,.719-.632A.68.68,0,0,1,128.887,69.376Zm0-2.732a.638.638,0,1,1,.719-.632A.68.68,0,0,1,128.887,66.643Zm0-2.732a.638.638,0,1,1,.719-.632A.68.68,0,0,1,128.887,63.911Zm0-2.732a.638.638,0,1,1,.719-.632A.68.68,0,0,1,128.887,61.179Zm0-2.732a.638.638,0,1,1,.719-.632A.68.68,0,0,1,128.887,58.447Zm0-2.732a.638.638,0,1,1,.719-.632A.68.68,0,0,1,128.887,55.714Zm0-2.732a.638.638,0,1,1,.719-.632A.68.68,0,0,1,128.887,52.982Zm3.107,57.377a.638.638,0,1,1,.719-.632A.68.68,0,0,1,131.994,110.359Zm0-2.732a.638.638,0,1,1,.719-.632A.68.68,0,0,1,131.994,107.627Zm0-2.732a.638.638,0,1,1,.719-.632A.68.68,0,0,1,131.994,104.895Zm0-2.732a.638.638,0,1,1,.719-.632A.68.68,0,0,1,131.994,102.163Zm0-2.732a.638.638,0,1,1,.719-.632A.68.68,0,0,1,131.994,99.43Zm0-2.732a.638.638,0,1,1,.719-.632A.68.68,0,0,1,131.994,96.7Zm0-2.732a.638.638,0,1,1,.719-.632A.68.68,0,0,1,131.994,93.966Zm0-2.732a.638.638,0,1,1,.719-.632A.68.68,0,0,1,131.994,91.234Zm0-2.732a.638.638,0,1,1,.719-.632A.68.68,0,0,1,131.994,88.5Zm0-2.732a.638.638,0,1,1,.719-.632A.68.68,0,0,1,131.994,85.769Zm0-2.732a.638.638,0,1,1,.719-.632A.68.68,0,0,1,131.994,83.037Zm0-2.732a.638.638,0,1,1,.719-.632A.68.68,0,0,1,131.994,80.3Zm0-2.732a.638.638,0,1,1,.719-.632A.68.68,0,0,1,131.994,77.572Zm0-2.732a.638.638,0,1,1,.719-.632A.68.68,0,0,1,131.994,74.84Zm0-2.732a.638.638,0,1,1,.719-.632A.68.68,0,0,1,131.994,72.108Zm0-2.732a.638.638,0,1,1,.719-.632A.68.68,0,0,1,131.994,69.376Zm0-2.732a.638.638,0,1,1,.719-.632A.68.68,0,0,1,131.994,66.643Zm0-2.732a.638.638,0,1,1,.719-.632A.68.68,0,0,1,131.994,63.911Zm0-2.732a.638.638,0,1,1,.719-.632A.68.68,0,0,1,131.994,61.179Zm0-2.732a.638.638,0,1,1,.719-.632A.68.68,0,0,1,131.994,58.447Zm3.107,49.181a.638.638,0,1,1,.719-.632A.68.68,0,0,1,135.1,107.627Zm0-2.732a.638.638,0,1,1,.719-.632A.68.68,0,0,1,135.1,104.895Zm0-2.732a.638.638,0,1,1,.719-.632A.68.68,0,0,1,135.1,102.163Zm0-2.732a.638.638,0,1,1,.719-.632A.68.68,0,0,1,135.1,99.43Zm0-2.732a.638.638,0,1,1,.719-.632A.68.68,0,0,1,135.1,96.7Zm0-2.732a.638.638,0,1,1,.719-.632A.68.68,0,0,1,135.1,93.966Zm0-2.732a.638.638,0,1,1,.719-.632A.68.68,0,0,1,135.1,91.234Zm0-2.732a.638.638,0,1,1,.719-.632A.68.68,0,0,1,135.1,88.5Zm0-2.732a.638.638,0,1,1,.719-.632A.68.68,0,0,1,135.1,85.769Zm0-2.732a.638.638,0,1,1,.719-.632A.68.68,0,0,1,135.1,83.037Zm0-2.732a.638.638,0,1,1,.719-.632A.68.68,0,0,1,135.1,80.3Zm0-2.732a.638.638,0,1,1,.719-.632A.68.68,0,0,1,135.1,77.572Zm0-2.732a.638.638,0,1,1,.719-.632A.68.68,0,0,1,135.1,74.84Zm0-2.732a.638.638,0,1,1,.719-.632A.68.68,0,0,1,135.1,72.108Zm0-2.732a.638.638,0,1,1,.719-.632A.68.68,0,0,1,135.1,69.376Zm0-2.732a.638.638,0,1,1,.719-.632A.68.68,0,0,1,135.1,66.643Zm0-2.732a.638.638,0,1,1,.719-.632A.68.68,0,0,1,135.1,63.911Zm0-2.732a.638.638,0,1,1,.719-.632A.68.68,0,0,1,135.1,61.179Zm3.107,40.984a.638.638,0,1,1,.719-.632A.68.68,0,0,1,138.209,102.163Zm0-2.732a.638.638,0,1,1,.719-.632A.68.68,0,0,1,138.209,99.43Zm0-2.732a.638.638,0,1,1,.719-.632A.68.68,0,0,1,138.209,96.7Zm0-2.732a.638.638,0,1,1,.719-.632A.68.68,0,0,1,138.209,93.966Zm0-2.732a.638.638,0,1,1,.719-.632A.68.68,0,0,1,138.209,91.234Zm0-2.732a.638.638,0,1,1,.719-.632A.68.68,0,0,1,138.209,88.5Zm0-2.732a.638.638,0,1,1,.719-.632A.68.68,0,0,1,138.209,85.769Zm0-2.732a.638.638,0,1,1,.719-.632A.68.68,0,0,1,138.209,83.037Zm0-2.732a.638.638,0,1,1,.719-.632A.68.68,0,0,1,138.209,80.3Zm0-2.732a.638.638,0,1,1,.719-.632A.68.68,0,0,1,138.209,77.572Zm0-2.732a.638.638,0,1,1,.719-.632A.68.68,0,0,1,138.209,74.84Zm0-2.732a.638.638,0,1,1,.719-.632A.68.68,0,0,1,138.209,72.108Zm0-2.732a.638.638,0,1,1,.719-.632A.68.68,0,0,1,138.209,69.376Zm0-2.732a.638.638,0,1,1,.719-.632A.68.68,0,0,1,138.209,66.643Zm3.107,27.323a.638.638,0,1,1,.719-.632A.68.68,0,0,1,141.316,93.966Zm0-2.732a.638.638,0,1,1,.719-.632A.68.68,0,0,1,141.316,91.234Zm0-2.732a.638.638,0,1,1,.719-.632A.68.68,0,0,1,141.316,88.5Zm0-2.732a.638.638,0,1,1,.719-.632A.68.68,0,0,1,141.316,85.769Zm0-2.732a.638.638,0,1,1,.719-.632A.68.68,0,0,1,141.316,83.037Zm0-2.732a.638.638,0,1,1,.719-.632A.68.68,0,0,1,141.316,80.3Zm0-2.732a.638.638,0,1,1,.719-.632A.68.68,0,0,1,141.316,77.572Zm0-2.732a.638.638,0,1,1,.719-.632A.68.68,0,0,1,141.316,74.84Z" transform="translate(732.683 268.964)" fill="#26aab7"/>
        <path id="Shape_2" data-name="Shape 2" d="M114.633,0V55.629H0a20.362,20.362,0,0,1,2.392-.859c4.274-1.241,8.991-1.547,13.119-3.078a22.893,22.893,0,0,0,10-7.3c2.549-3.157,4.654-6.462,8.582-8.86,4.317-2.634,9.891-3.922,15.318-4.769A27.733,27.733,0,0,0,63.3,24.7c2.036-1.762,3.607-3.785,5.605-5.57a17.489,17.489,0,0,1,9.39-4.187c3.3-.484,7.088-.556,9.853-2.129A6.984,6.984,0,0,0,91.392,8.3c.835-2.923.79-6.791,4.753-8.3Z" transform="translate(114.633 55.629) rotate(180)" fill="#7d6eb2"/>
      </g>
    </g>
  </g>
</svg>
