<svg xmlns="http://www.w3.org/2000/svg" xmlns:xlink="http://www.w3.org/1999/xlink" width="505" height="390.473" viewBox="0 0 505 390.473">
  <defs>
    <clipPath id="clip-path">
      <rect id="Rectángulo_401957" data-name="Rectángulo 401957" width="420" height="390.472" fill="none"/>
    </clipPath>
    <clipPath id="clip-path-6">
      <rect id="Rectángulo_401949" data-name="Rectángulo 401949" width="17.943" height="46.968" fill="none"/>
    </clipPath>
    <clipPath id="clip-path-7">
      <rect id="Rectángulo_401950" data-name="Rectángulo 401950" width="73.546" height="17.541" fill="none"/>
    </clipPath>
    <clipPath id="clip-path-8">
      <rect id="Rectángulo_401951" data-name="Rectángulo 401951" width="42.617" height="80.595" fill="none"/>
    </clipPath>
    <clipPath id="clip-path-10">
      <rect id="Rectángulo_401953" data-name="Rectángulo 401953" width="45.708" height="84.865" fill="none"/>
    </clipPath>
    <clipPath id="clip-path-11">
      <rect id="Rectángulo_401954" data-name="Rectángulo 401954" width="56.254" height="98.127" fill="none"/>
    </clipPath>
    <clipPath id="clip-path-12">
      <rect id="Rectángulo_401955" data-name="Rectángulo 401955" width="110.731" height="62.224" fill="none"/>
    </clipPath>
  </defs>
  <g id="Grupo_1101511" data-name="Grupo 1101511" transform="translate(-810 -9091.764)">
    <path id="Rectángulo_401540" data-name="Rectángulo 401540" d="M85,0H420a85,85,0,0,1,85,85v31.88a0,0,0,0,1,0,0H0a0,0,0,0,1,0,0V85A85,85,0,0,1,85,0Z" transform="translate(810 9365.355)" fill="#7d6eb2" opacity="0.43"/>
    <g id="Grupo_1100919" data-name="Grupo 1100919" transform="translate(853 9091.764)">
      <g id="Grupo_1100918" data-name="Grupo 1100918" clip-path="url(#clip-path)">
        <g id="Grupo_1100891" data-name="Grupo 1100891">
          <g id="Grupo_1100890" data-name="Grupo 1100890" clip-path="url(#clip-path)">
            <g id="Grupo_1100920" data-name="Grupo 1100920" transform="translate(0 0)">
              <path id="Trazado_875359" data-name="Trazado 875359" d="M225.314,2.4A26.592,26.592,0,0,0,210.767.242a27.147,27.147,0,0,0-12.525,5.083,18.235,18.235,0,0,0-5.719,7.495,24.211,24.211,0,0,0-1.3,12.24,2.579,2.579,0,0,0,2.951,2.229l8.96-1.363a2.594,2.594,0,0,0,2.194-2.579c-.03-2.87.917-7.854,7.6-8.99a8.237,8.237,0,0,1,8.677,4.005,9.236,9.236,0,0,1,.513,8.341c-1.786,4.294-6.08,5.563-8.481,5.937a5.08,5.08,0,0,0-4.249,5.761l1.467,9.641a2.585,2.585,0,0,0,2.941,2.166l8.73-1.329a2.586,2.586,0,0,0,2.165-2.941l-.308-2.026a.113.113,0,0,1,.06-.118,25.613,25.613,0,0,0,8.38-7.212c3.741-5.053,5.115-11.049,4.085-17.821-1.474-9.693-7.122-14.247-11.6-16.361" transform="translate(-15.871 0)" fill="#aee6e6"/>
              <path id="Trazado_875360" data-name="Trazado 875360" d="M220.923,56.6l-.764.116a6.7,6.7,0,0,0,2.014,13.242l.764-.116A6.7,6.7,0,1,0,220.923,56.6" transform="translate(-17.823 -4.697)" fill="#aee6e6"/>
              <path id="Trazado_875361" data-name="Trazado 875361" d="M29.625,171.715a19.348,19.348,0,0,0-8.816-6.062A19.747,19.747,0,0,0,11,164.971a13.262,13.262,0,0,0-6.134,3.068A17.617,17.617,0,0,0,.1,175.621a1.878,1.878,0,0,0,1.215,2.4L7.609,180a1.886,1.886,0,0,0,2.258-.984c.9-1.884,3.111-4.839,7.844-3.442a5.992,5.992,0,0,1,4.388,5.391,6.717,6.717,0,0,1-2.332,5.614c-2.541,2.234-5.753,1.691-7.441,1.167a3.7,3.7,0,0,0-4.619,2.406l-2.124,6.769a1.88,1.88,0,0,0,1.23,2.356l6.129,1.924a1.879,1.879,0,0,0,2.355-1.23l.447-1.422a.084.084,0,0,1,.078-.059,18.623,18.623,0,0,0,7.783-2.033,16.776,16.776,0,0,0,8.368-10.338c2.136-6.8-.1-11.587-2.347-14.4" transform="translate(0 -13.68)" fill="#aee6e6"/>
              <path id="Trazado_875362" data-name="Trazado 875362" d="M9.9,205.389l-.536-.168a4.872,4.872,0,0,0-2.918,9.3l.536.169a4.872,4.872,0,0,0,2.918-9.3" transform="translate(-0.253 -17.036)" fill="#aee6e6"/>
              <path id="Trazado_875363" data-name="Trazado 875363" d="M449.038,161.857a27.188,27.188,0,0,0-12.6-8.206,27.752,27.752,0,0,0-13.8-.617,18.635,18.635,0,0,0-8.508,4.525,24.743,24.743,0,0,0-6.425,10.817A2.636,2.636,0,0,0,409.5,171.7l8.9,2.554a2.651,2.651,0,0,0,3.138-1.46c1.2-2.679,4.2-6.906,10.9-5.11a8.418,8.418,0,0,1,6.353,7.419,9.443,9.443,0,0,1-3.08,7.968c-3.49,3.227-8.02,2.576-10.41,1.9a5.194,5.194,0,0,0-6.4,3.541l-2.748,9.583a2.642,2.642,0,0,0,1.81,3.265l8.676,2.488a2.644,2.644,0,0,0,3.266-1.81l.578-2.013a.116.116,0,0,1,.107-.084,26.174,26.174,0,0,0,10.86-3.128c5.63-3.1,9.462-8.083,11.392-14.814,2.763-9.633-.542-16.272-3.8-20.145" transform="translate(-33.871 -12.666)" fill="#aee6e6"/>
              <path id="Trazado_875364" data-name="Trazado 875364" d="M422.488,209.878l-.759-.217a6.846,6.846,0,1,0-3.774,13.161l.759.217a6.846,6.846,0,1,0,3.774-13.161" transform="translate(-34.321 -17.401)" fill="#aee6e6"/>
            </g>
          </g>
        </g>
        <g id="Grupo_1100893" data-name="Grupo 1100893">
          <g id="Grupo_1100892" data-name="Grupo 1100892" clip-path="url(#clip-path)">
            <path id="Trazado_875365" data-name="Trazado 875365" d="M65.436,73.045a29.53,29.53,0,1,1-29.53-29.531,29.53,29.53,0,0,1,29.53,29.531" transform="translate(-0.53 -3.616)" fill="#fff"/>
            <path id="Trazado_875366" data-name="Trazado 875366" d="M65.419,73.031s-.021-.162-.043-.478-.05-.795-.09-1.4c-.018-.309-.039-.654-.061-1.032-.04-.378-.12-.788-.187-1.233s-.147-.925-.228-1.438a15.659,15.659,0,0,0-.385-1.609A28.145,28.145,0,0,0,61.156,58a29.353,29.353,0,0,0-7.479-8.342L52.4,48.717c-.447-.292-.917-.561-1.382-.847-.475-.27-.924-.6-1.433-.829l-1.526-.732-.777-.368-.814-.3-1.654-.6c-.561-.185-1.149-.305-1.731-.463a14.837,14.837,0,0,0-1.778-.4,27.19,27.19,0,0,0-3.713-.429c-.634-.022-1.272-.084-1.914-.074l-1.943.1c-.326.023-.656.02-.981.063l-.979.15c-.654.109-1.318.185-1.976.322a30.913,30.913,0,0,0-3.914,1.149A30.544,30.544,0,0,0,22.06,47.14c-.62.336-1.214.727-1.827,1.092-.3.192-.622.356-.907.573l-.865.647a33.079,33.079,0,0,0-3.329,2.83L13.64,53.925l-.375.413-.337.447-.672.9-.675.9-.59.965-.59.972-.3.487-.25.513-1,2.07q-.4,1.082-.8,2.173a31.335,31.335,0,0,0-1.515,9.258,31.383,31.383,0,0,0,1.512,9.262q.4,1.091.8,2.174.5,1.04,1,2.07l.25.513.3.488.59.972.591.966.675.9.672.9.337.447.376.414,1.492,1.643a33,33,0,0,0,3.33,2.83l.864.647c.286.217.607.381.908.574.613.364,1.208.756,1.828,1.092a30.427,30.427,0,0,0,3.829,1.683,31.041,31.041,0,0,0,3.915,1.15c.657.136,1.322.212,1.976.32l.979.151c.325.043.655.04.981.063l1.943.1c.644.009,1.282-.052,1.915-.074a27.19,27.19,0,0,0,3.713-.43,14.877,14.877,0,0,0,1.778-.4c.581-.158,1.17-.277,1.731-.463l1.654-.6.815-.3.776-.368,1.526-.732c.509-.231.958-.559,1.433-.829.465-.287.936-.555,1.382-.847l1.272-.947a29.345,29.345,0,0,0,7.478-8.341,28.151,28.151,0,0,0,3.269-7.834,15.93,15.93,0,0,0,.386-1.61q.121-.767.227-1.437c.067-.446.148-.855.187-1.233.022-.379.043-.723.061-1.032.039-.608.069-1.074.09-1.4s.043-.478.043-.478,0,.162-.006.479-.029.8-.052,1.406q-.019.465-.043,1.036c-.034.38-.109.791-.17,1.24s-.137.931-.212,1.446a15.969,15.969,0,0,1-.37,1.621,28.02,28.02,0,0,1-3.231,7.9,29.442,29.442,0,0,1-7.5,8.445l-1.279.96c-.449.3-.923.569-1.392.861-.478.274-.931.606-1.444.842l-1.538.744-.782.374-.822.3-1.669.613c-.567.19-1.16.313-1.747.474a15.2,15.2,0,0,1-1.8.412,27.445,27.445,0,0,1-3.753.444c-.639.024-1.285.087-1.935.079l-1.965-.1c-.329-.023-.663-.02-.992-.062l-.991-.15c-.661-.108-1.333-.184-2-.321a31.228,31.228,0,0,1-3.963-1.155,30.87,30.87,0,0,1-3.877-1.7c-.628-.34-1.23-.734-1.852-1.1-.3-.194-.629-.359-.919-.579l-.876-.655a33.117,33.117,0,0,1-3.373-2.862l-1.513-1.661-.38-.418-.342-.452-.681-.91-.684-.914-.6-.977-.6-.984-.3-.494-.254-.52-1.01-2.1q-.4-1.1-.808-2.2a31.718,31.718,0,0,1-1.533-9.379,31.661,31.661,0,0,1,1.536-9.375q.4-1.1.808-2.2.506-1.052,1.01-2.1l.255-.52.3-.493.6-.984.6-.977.683-.914.681-.91.342-.451.38-.418,1.512-1.662a33.314,33.314,0,0,1,3.373-2.86l.876-.654c.29-.219.614-.385.919-.579.622-.368,1.223-.763,1.851-1.1a30.932,30.932,0,0,1,3.877-1.7,31.328,31.328,0,0,1,3.963-1.154c.665-.137,1.337-.213,2-.321l.991-.15c.329-.042.662-.04.992-.062l1.965-.1c.65-.009,1.295.055,1.935.078a27.577,27.577,0,0,1,3.752.445,15.2,15.2,0,0,1,1.8.411c.587.161,1.18.285,1.747.474l1.669.613.822.3.783.373,1.538.745c.513.235.966.568,1.444.842.469.291.943.563,1.392.86l1.279.961a29.432,29.432,0,0,1,7.5,8.444A28.019,28.019,0,0,1,64.567,65.8a15.914,15.914,0,0,1,.37,1.621q.113.773.212,1.446c.061.448.136.86.17,1.24q.023.571.043,1.037c.023.609.04,1.076.052,1.406s.006.479.006.479" transform="translate(-0.513 -3.602)" fill="#263238"/>
            <path id="Trazado_875367" data-name="Trazado 875367" d="M27.125,69.251h5.611a4.768,4.768,0,0,1,4.9-4.8,4.539,4.539,0,0,1,4.4,2.9,5.026,5.026,0,0,1-.4,4.543c-.952,1.569-3.037,2.995-6.818,2.329v8.233h5.547V79.466a10.834,10.834,0,0,0,7.781-10.586c0-8.2-7.357-10.11-10.507-10.11-2.408,0-10.611.582-10.506,10.48" transform="translate(-2.254 -4.884)" fill="#ffd947"/>
            <rect id="Rectángulo_401945" data-name="Rectángulo 401945" width="5.63" height="5.258" transform="translate(32.54 79.711)" fill="#ffd947"/>
            <path id="Trazado_875368" data-name="Trazado 875368" d="M71.432,105.446a4.508,4.508,0,1,1-4.508-4.508,4.508,4.508,0,0,1,4.508,4.508" transform="translate(-5.187 -8.388)" fill="#fff"/>
            <path id="Trazado_875369" data-name="Trazado 875369" d="M71.415,105.432c-.039,0-.026-.4-.211-1.083a4.5,4.5,0,0,0-1.649-2.4,4.387,4.387,0,0,0-4.125-.594,4.3,4.3,0,0,0-2.006,1.517,4.318,4.318,0,0,0,0,5.113,4.3,4.3,0,0,0,2.006,1.517,4.387,4.387,0,0,0,4.125-.594,4.5,4.5,0,0,0,1.649-2.4c.185-.681.171-1.085.211-1.083a.862.862,0,0,1,.023.29,3.47,3.47,0,0,1-.094.828,4.486,4.486,0,0,1-1.629,2.57,4.641,4.641,0,0,1-6.586-.915,4.651,4.651,0,0,1,0-5.545,4.641,4.641,0,0,1,6.585-.916,4.491,4.491,0,0,1,1.63,2.57,3.477,3.477,0,0,1,.094.829.862.862,0,0,1-.023.29" transform="translate(-5.17 -8.374)" fill="#263238"/>
          </g>
        </g>
        <g id="Grupo_1100895" data-name="Grupo 1100895">
          <g id="Grupo_1100894" data-name="Grupo 1100894" clip-path="url(#clip-path)">
            <path id="Trazado_875370" data-name="Trazado 875370" d="M424.788,52.907a31.032,31.032,0,1,1-31.032-31.032,31.033,31.033,0,0,1,31.032,31.032" transform="translate(-30.143 -1.818)" fill="#fff"/>
            <path id="Trazado_875371" data-name="Trazado 875371" d="M424.77,52.893s-.022-.171-.045-.5-.053-.834-.094-1.473q-.029-.488-.064-1.085c-.041-.4-.126-.828-.2-1.3l-.239-1.51a17,17,0,0,0-.405-1.692,29.594,29.594,0,0,0-3.437-8.233,30.825,30.825,0,0,0-7.86-8.766l-1.336-1c-.47-.307-.964-.589-1.452-.889-.5-.284-.971-.629-1.506-.871l-1.6-.769-.816-.386-.856-.313-1.737-.633c-.591-.2-1.208-.321-1.819-.487a15.78,15.78,0,0,0-1.869-.423,28.736,28.736,0,0,0-3.9-.451c-.666-.023-1.336-.088-2.012-.078l-2.043.105c-.342.024-.688.022-1.031.067l-1.029.159c-.687.114-1.385.194-2.076.337a32.659,32.659,0,0,0-4.114,1.207,32.266,32.266,0,0,0-4.023,1.769c-.651.353-1.275.765-1.921,1.147-.315.2-.653.375-.953.6l-.909.68a34.884,34.884,0,0,0-3.5,2.973l-1.568,1.727-.394.434-.354.469-.706.944-.71.949-.621,1.015-.62,1.021-.311.513-.264.539-1.047,2.175q-.417,1.137-.837,2.284a32.944,32.944,0,0,0-1.591,9.729,32.973,32.973,0,0,0,1.589,9.733q.419,1.146.836,2.285l1.048,2.175.263.54.311.513.621,1.021.621,1.015.71.95.706.944.354.469.394.435,1.568,1.727a34.781,34.781,0,0,0,3.5,2.974l.908.68c.3.228.638.4.954.6.645.382,1.27.794,1.922,1.148a32.213,32.213,0,0,0,4.023,1.769,32.628,32.628,0,0,0,4.115,1.207c.69.143,1.389.224,2.076.337l1.029.159c.343.045.689.043,1.032.067l2.042.105c.676.01,1.347-.055,2.013-.078a28.764,28.764,0,0,0,3.9-.451,15.63,15.63,0,0,0,1.868-.424c.612-.166,1.229-.292,1.819-.487l1.737-.633.856-.312.816-.387,1.6-.769c.535-.242,1.008-.587,1.506-.871.489-.3.984-.582,1.452-.89l1.336-.995a30.825,30.825,0,0,0,7.859-8.766,29.558,29.558,0,0,0,3.436-8.232,16.738,16.738,0,0,0,.405-1.692l.239-1.51c.07-.469.155-.9.2-1.3q.036-.6.064-1.085c.041-.638.072-1.128.094-1.473s.045-.5.045-.5,0,.171-.005.5-.031.838-.055,1.477q-.021.49-.046,1.089c-.035.4-.114.832-.178,1.3s-.143.977-.223,1.519a16.5,16.5,0,0,1-.39,1.7,29.413,29.413,0,0,1-3.394,8.307,30.952,30.952,0,0,1-7.88,8.874l-1.344,1.009c-.472.313-.97.6-1.462.9-.5.288-.978.637-1.517.885l-1.616.782-.822.393-.864.317-1.754.645c-.6.2-1.219.328-1.837.5a15.9,15.9,0,0,1-1.886.433,28.909,28.909,0,0,1-3.944.467c-.673.025-1.351.092-2.034.083l-2.066-.1c-.346-.023-.7-.02-1.042-.065l-1.041-.158c-.7-.114-1.4-.193-2.1-.337a32.958,32.958,0,0,1-4.165-1.213,32.576,32.576,0,0,1-4.075-1.783c-.659-.357-1.293-.772-1.946-1.159-.32-.2-.661-.379-.966-.609l-.921-.687a34.922,34.922,0,0,1-3.545-3.007l-1.59-1.747-.4-.439-.359-.475-.716-.955-.718-.961-.63-1.027-.629-1.034-.315-.519-.267-.546-1.062-2.2-.848-2.313a33.315,33.315,0,0,1-1.612-9.856,33.315,33.315,0,0,1,1.614-9.852q.426-1.161.849-2.312l1.061-2.2.268-.546.315-.519.628-1.033.63-1.027.719-.961.715-.955.359-.474.4-.44,1.589-1.746a35.03,35.03,0,0,1,3.544-3.007l.921-.687c.3-.23.645-.4.965-.609.653-.386,1.286-.8,1.946-1.158a32.428,32.428,0,0,1,4.074-1.783,32.939,32.939,0,0,1,4.164-1.213c.7-.143,1.406-.224,2.1-.337l1.041-.158c.346-.045.7-.042,1.042-.065l2.065-.1c.683-.009,1.361.058,2.034.083a28.908,28.908,0,0,1,3.944.467,15.963,15.963,0,0,1,1.887.432c.616.17,1.24.3,1.836.5l1.753.645.865.318.821.392,1.617.782c.539.247,1.016.6,1.517.885.492.305.99.591,1.463.9l1.344,1.009a30.954,30.954,0,0,1,7.881,8.874,29.45,29.45,0,0,1,3.4,8.308,16.5,16.5,0,0,1,.39,1.7q.12.813.223,1.519c.063.471.142.9.178,1.3q.026.6.046,1.089c.024.64.042,1.131.055,1.478s.005.5.005.5" transform="translate(-30.125 -1.803)" fill="#263238"/>
            <path id="Trazado_875372" data-name="Trazado 875372" d="M384.527,48.921h5.9a5.011,5.011,0,0,1,5.145-5.039,4.77,4.77,0,0,1,4.619,3.045,5.282,5.282,0,0,1-.42,4.775c-1,1.649-3.191,3.148-7.165,2.447V62.8h5.831V59.656a11.384,11.384,0,0,0,8.176-11.125c0-8.621-7.731-10.623-11.041-10.623-2.531,0-11.151.612-11.04,11.013" transform="translate(-31.955 -3.15)" fill="#26aab7"/>
            <rect id="Rectángulo_401947" data-name="Rectángulo 401947" width="5.917" height="5.525" transform="translate(360.631 61.897)" fill="#26aab7"/>
            <path id="Trazado_875373" data-name="Trazado 875373" d="M364.217,84.455a4.738,4.738,0,1,1-4.738-4.738,4.737,4.737,0,0,1,4.738,4.738" transform="translate(-29.48 -6.625)" fill="#fff"/>
            <path id="Trazado_875374" data-name="Trazado 875374" d="M364.2,84.44c-.042,0-.027-.422-.222-1.138a4.726,4.726,0,0,0-1.733-2.518,4.61,4.61,0,0,0-4.335-.624,4.511,4.511,0,0,0-2.108,1.594,4.538,4.538,0,0,0,0,5.373,4.519,4.519,0,0,0,2.109,1.594,4.609,4.609,0,0,0,4.335-.624,4.729,4.729,0,0,0,1.733-2.518c.2-.716.18-1.14.222-1.138a.9.9,0,0,1,.024.3,3.642,3.642,0,0,1-.1.871,4.718,4.718,0,0,1-1.713,2.7,4.877,4.877,0,0,1-6.921-.962,4.886,4.886,0,0,1,0-5.828,4.876,4.876,0,0,1,6.92-.962,4.715,4.715,0,0,1,1.713,2.7,3.642,3.642,0,0,1,.1.871.9.9,0,0,1-.024.3" transform="translate(-29.462 -6.61)" fill="#263238"/>
          </g>
        </g>
        <g id="Grupo_1100906" data-name="Grupo 1100906">
          <g id="Grupo_1100905" data-name="Grupo 1100905" clip-path="url(#clip-path)">
            <path id="Trazado_875375" data-name="Trazado 875375" d="M165.83,329.635c-9.9-24.792-17.322-42.011-17.322-42.011L58.016,301.378s-16.265,41.7-14.857,60.616,8.031,52.236,8.031,52.236h109.5s15.034-59.8,5.138-84.595" transform="translate(-3.579 -23.902)" fill="#263238"/>
            <path id="Trazado_875376" data-name="Trazado 875376" d="M141.3,104.079c.71-7.153,1.782-14.345,4.4-21.039S152.6,70.125,158.66,66.256l1.555,1.448a9.023,9.023,0,0,1,15.755-2.414A8.909,8.909,0,0,1,185.7,78.827a8.167,8.167,0,0,1,3.636,14.807,11.885,11.885,0,0,1-7.329,20.869,9.394,9.394,0,0,1-16.408,8.236c.332,4.281-3.092,8.334-7.263,9.352s-8.715-.666-11.759-3.7a20.413,20.413,0,0,1-5.362-11.472,51.53,51.53,0,0,1,.077-12.846" transform="translate(-11.704 -5.124)" fill="#263238"/>
            <path id="Trazado_875377" data-name="Trazado 875377" d="M161.28,73.358c4.162,1.348,5.014,4.718,5.878,7.527,1.861,6.046-.232,14.992-3.614,20.337s-7.093,8.06-13.354,8.965L149.579,81.4Z" transform="translate(-12.43 -6.096)" fill="#26aab7"/>
            <path id="Trazado_875378" data-name="Trazado 875378" d="M158.234,87.72a9.97,9.97,0,0,0-.885-12.752c1.822-2.289,1.168-5.82-.684-8.085s-4.6-3.565-7.259-4.793c-1.458-6.7-8.976-11.409-15.64-9.8-3.471-5.1-10.867-5.9-16.792-4.176a15.792,15.792,0,0,1-4.4.961,25.612,25.612,0,0,1-3.283-.455c-6.028-.811-12.011,3.433-14.361,9.042a11.136,11.136,0,0,1-1.28,2.61,15.07,15.07,0,0,1-2.979,2.38,9.628,9.628,0,0,0-3.687,7.118c-.1,2.341.646,4.826-.339,6.951-.494,1.065-1.387,1.926-1.771,3.036-1.115,3.216,2.45,6.5,1.79,9.843-.135.68-.442,1.315-.631,1.984a5.933,5.933,0,0,0,.361,4.152c.476.988,1.243,1.892,1.307,2.985a9.623,9.623,0,0,1-.487,2.435c-.407,1.993,3.894,9.68,5.615,10.763l51.468.46a9.615,9.615,0,0,0,7.442-8.28,3.511,3.511,0,0,1,.48-1.892,4.1,4.1,0,0,1,1.4-.913c3.314-1.78,3.713-6.329,3.365-10.075a4.565,4.565,0,0,1,.028-1.572,5.764,5.764,0,0,1,1.215-1.928" transform="translate(-7.035 -3.93)" fill="#263238"/>
            <path id="Trazado_875379" data-name="Trazado 875379" d="M143.912,88.987c.152-9.108-5.56-19.576-14.609-24.03-5.7-2.808-10.154-2.826-13.152-3.175a20.849,20.849,0,0,0-12.139,2.545c-2.836.667-13.233,10.186-13.772,20.515-.6,11.475-.88,25.509.57,34.051,2.917,17.175,16.127,19.224,16.127,19.224,0-.026-1.23,28.551-1.23,28.551L131.1,187.475l7.757-34.162Z" transform="translate(-7.459 -5.124)" fill="#ffc09d"/>
            <path id="Trazado_875380" data-name="Trazado 875380" d="M108.479,144.467a43.947,43.947,0,0,0,23.053-6.39s-6,12.193-23.241,10.767Z" transform="translate(-8.999 -11.474)" fill="#ff9b6c"/>
            <path id="Trazado_875381" data-name="Trazado 875381" d="M145.957,108.853c-.011-1.281,1.438-4.319,2.7-4.529,3.373-.562,9.467-.357,9.616,8.225.2,11.73-11.312,9.11-11.642,9.178-1.87.382-.638-8.449-.675-12.873" transform="translate(-12.099 -8.654)" fill="#ffc09d"/>
            <path id="Trazado_875382" data-name="Trazado 875382" d="M150.172,117.74c.051-.039.207.139.555.292a2.044,2.044,0,0,0,1.528.006c1.231-.476,2.241-2.462,2.261-4.577a6.767,6.767,0,0,0-.623-2.917A2.358,2.358,0,0,0,152.33,109a1.041,1.041,0,0,0-1.2.579c-.152.331-.072.565-.135.585-.032.03-.255-.191-.169-.678a1.3,1.3,0,0,1,.449-.744,1.544,1.544,0,0,1,1.124-.318,2.874,2.874,0,0,1,2.166,1.782,6.938,6.938,0,0,1,.766,3.257c-.035,2.366-1.206,4.6-2.894,5.117a2.191,2.191,0,0,1-1.874-.278c-.369-.283-.435-.545-.394-.567" transform="translate(-12.479 -9.01)" fill="#ff9b6c"/>
            <path id="Trazado_875383" data-name="Trazado 875383" d="M87.532,82.592a31.09,31.09,0,0,1,4.126-12.051,24.983,24.983,0,0,1,5.3-7.066,27.542,27.542,0,0,1,6.335-3.821c5.876-2.787,12.431-5.152,18.776-3.723,3.406.768,6.472,2.578,9.455,4.392a35.449,35.449,0,0,1,6.5,4.684,26.564,26.564,0,0,1,4.222,5.612,36.375,36.375,0,0,1,5.23,15.8c.383,5.583,4.608,10.521,1.334,15.059-.253.351-6.084,1.559-6.486,1.719-.947.377-1.99-.652-1.982-1.672a3.758,3.758,0,0,1,1.465-2.584c-1.451-.049-2.447-1.665-2.355-3.115a7.684,7.684,0,0,1,1.812-3.895,1.125,1.125,0,0,0,.252-.5c.06-.494-.5-.8-.928-1.053a3.949,3.949,0,0,1-.419-6.183,5.3,5.3,0,0,1-3.614-6.707,1.7,1.7,0,0,0,.169-1.308c-.2-.391-.68-.513-1.1-.636a6.727,6.727,0,0,1-4.5-7.575,16.861,16.861,0,0,1-4.868-.216,5.694,5.694,0,0,1-3.841-2.772,6.353,6.353,0,0,1-10.747.576,16.625,16.625,0,0,1-8.052-1.246,7.861,7.861,0,0,1-5.12,5.513c-.484.156-1.042.308-1.274.76a1.85,1.85,0,0,0-.107.954c.086,1.638-1.03,2.335-1.933,3.705S92.7,78.647,91.119,78.2c.175,2.789-1.317,4.82-3.672,6.326Z" transform="translate(-7.267 -4.612)" fill="#263238"/>
            <path id="Trazado_875384" data-name="Trazado 875384" d="M84.893,79.742a4.491,4.491,0,0,1,.621-1.264c.245-.392.592-.85.919-1.435a5.444,5.444,0,0,0,.637-2.2,17.062,17.062,0,0,0-.076-2.9,12.884,12.884,0,0,1,.061-3.483,9.77,9.77,0,0,1,1.51-3.71,9.563,9.563,0,0,1,1.428-1.673,14.435,14.435,0,0,1,1.841-1.395A7.282,7.282,0,0,0,93.6,60.13a9.48,9.48,0,0,0,1.092-2.218,15.739,15.739,0,0,1,7.324-8.1,14,14,0,0,1,2.815-1.087,12.608,12.608,0,0,1,3.08-.375,14.155,14.155,0,0,1,1.582.112c.525.077,1.043.182,1.563.27a7.543,7.543,0,0,0,3.135-.024c1.048-.216,2.075-.6,3.157-.883a20.589,20.589,0,0,1,6.758-.678,17.927,17.927,0,0,1,3.447.6,11.572,11.572,0,0,1,5.939,3.846c.147.193.294.384.44.574l-.188-.072a13.611,13.611,0,0,1,15.846,9.936l-.094-.116a37.17,37.17,0,0,1,4.131,2.135,12.386,12.386,0,0,1,3.382,2.974,8.053,8.053,0,0,1,1.561,4.036,5.54,5.54,0,0,1-1.087,3.976l-.012-.2a9.715,9.715,0,0,1,2.752,6,9.948,9.948,0,0,1-1.171,5.84,9.653,9.653,0,0,1-.769,1.167,12.635,12.635,0,0,0-.8,1.054,2.5,2.5,0,0,0-.407,1.153,7.115,7.115,0,0,0,.043,1.218,19.257,19.257,0,0,1-.088,4.453,9.3,9.3,0,0,1-1.126,3.4,5.762,5.762,0,0,1-1.808,1.919c-.6.4-1.137.564-1.433.784a2.615,2.615,0,0,0-.424.358,1.359,1.359,0,0,1,.4-.4c.294-.236.829-.412,1.409-.821a5.729,5.729,0,0,0,1.746-1.91,9.268,9.268,0,0,0,1.071-3.358,19.211,19.211,0,0,0,.05-4.41,7.307,7.307,0,0,1-.052-1.254,2.727,2.727,0,0,1,.433-1.252,12.442,12.442,0,0,1,.806-1.078,9.355,9.355,0,0,0,.742-1.142,9.708,9.708,0,0,0,1.113-5.7,9.439,9.439,0,0,0-2.69-5.817l-.1-.094.083-.1a5.244,5.244,0,0,0,1.011-3.765,7.743,7.743,0,0,0-1.51-3.873,12.066,12.066,0,0,0-3.3-2.886,37.016,37.016,0,0,0-4.1-2.109l-.076-.035-.018-.083a13.278,13.278,0,0,0-15.434-9.663l-.111.027-.077-.1-.425-.554a11.224,11.224,0,0,0-5.76-3.728,17.581,17.581,0,0,0-3.372-.593,20.288,20.288,0,0,0-6.644.66c-1.063.271-2.1.661-3.177.882a8.088,8.088,0,0,1-1.64.184A9.616,9.616,0,0,1,111,49.063c-.527-.09-1.043-.2-1.555-.272a14.26,14.26,0,0,0-1.537-.112,12.333,12.333,0,0,0-3,.359,13.7,13.7,0,0,0-2.752,1.054,15.482,15.482,0,0,0-7.213,7.922,9.691,9.691,0,0,1-1.136,2.273,7.5,7.5,0,0,1-1.837,1.6,14.144,14.144,0,0,0-1.821,1.363,9.4,9.4,0,0,0-1.4,1.625,9.578,9.578,0,0,0-1.5,3.619,12.76,12.76,0,0,0-.088,3.436,16.934,16.934,0,0,1,.046,2.927,5.55,5.55,0,0,1-.683,2.235c-.342.59-.7,1.038-.951,1.423a6.818,6.818,0,0,0-.53.9c-.1.213-.141.328-.15.325" transform="translate(-7.055 -3.915)" fill="#455a64"/>
            <path id="Trazado_875385" data-name="Trazado 875385" d="M130.593,49.844c-.017.027-.311-.175-.884-.45a7.886,7.886,0,0,0-2.564-.726,7.422,7.422,0,0,0-3.851.593,7.652,7.652,0,0,0-3.483,3.205,6.537,6.537,0,0,0-.573,1.332,1.465,1.465,0,0,0,.1,1.235l.29.4-.475-.129a4.852,4.852,0,0,0-3.624.46,4.681,4.681,0,0,0-1.973,2.187,5.154,5.154,0,0,0-.443,1.936c-.012.469.027.727,0,.732-.01,0-.029-.061-.055-.184a3.248,3.248,0,0,1-.065-.546,4.9,4.9,0,0,1,2.386-4.383,5.108,5.108,0,0,1,3.865-.534l-.185.267a1.8,1.8,0,0,1-.156-1.528,6.766,6.766,0,0,1,.6-1.413,7.854,7.854,0,0,1,3.66-3.331,7.48,7.48,0,0,1,4.013-.543,7.341,7.341,0,0,1,2.6.852,5.274,5.274,0,0,1,.625.4c.135.1.2.161.2.171" transform="translate(-9.389 -4.018)" fill="#455a64"/>
            <path id="Trazado_875386" data-name="Trazado 875386" d="M151.647,64.5c.014.016-.124.171-.406.423a7.661,7.661,0,0,1-1.32.932,5.622,5.622,0,0,1-2.334.721,4.194,4.194,0,0,1-2.919-.858l.259-.041-.339.484c-.125.158-.263.308-.4.465a7.1,7.1,0,0,1-2.917,1.848,7.291,7.291,0,0,1-2.793.372,6.464,6.464,0,0,1-1.851-.406,2.275,2.275,0,0,1-.614-.323,10.113,10.113,0,0,0,2.477.48,7.439,7.439,0,0,0,2.675-.431,7.011,7.011,0,0,0,2.765-1.781c.126-.149.258-.291.375-.439l.323-.456.115-.161.146.119a3.946,3.946,0,0,0,2.679.818,5.643,5.643,0,0,0,2.244-.617c1.192-.614,1.8-1.2,1.835-1.148" transform="translate(-11.303 -5.36)" fill="#455a64"/>
            <path id="Trazado_875387" data-name="Trazado 875387" d="M158.275,76.226c.012,0,0,.076-.027.216a2.009,2.009,0,0,1-.257.569,3.13,3.13,0,0,1-1.881,1.272,5.976,5.976,0,0,1-3.353-.337,19.118,19.118,0,0,1-1.858-.716,3.206,3.206,0,0,1-1.632-1.463c-.026-.064-.051-.128-.074-.188l.277.082a13.44,13.44,0,0,1-3.463,2.117,6.049,6.049,0,0,1-3.292.366,4.363,4.363,0,0,1-2.037-.907,2.734,2.734,0,0,1-.427-.431c-.085-.11-.125-.171-.115-.178.025-.022.21.2.626.5a4.534,4.534,0,0,0,1.994.77,5.955,5.955,0,0,0,3.134-.423,13.782,13.782,0,0,0,3.361-2.092l.185-.148.092.23.062.156a2.9,2.9,0,0,0,1.46,1.3c.6.286,1.229.507,1.812.72a5.911,5.911,0,0,0,3.191.4,3.116,3.116,0,0,0,1.826-1.108,5.03,5.03,0,0,0,.4-.707" transform="translate(-11.645 -6.252)" fill="#455a64"/>
            <path id="Trazado_875388" data-name="Trazado 875388" d="M118.608,102.124a2.17,2.17,0,0,0,2.021,2.256,2.076,2.076,0,0,0,2.3-1.883,2.172,2.172,0,0,0-2.019-2.257,2.077,2.077,0,0,0-2.3,1.885" transform="translate(-9.856 -8.329)" fill="#263238"/>
            <path id="Trazado_875389" data-name="Trazado 875389" d="M95.678,101.5a2.17,2.17,0,0,0,2.021,2.256,2.076,2.076,0,0,0,2.3-1.883,2.173,2.173,0,0,0-2.019-2.257,2.077,2.077,0,0,0-2.3,1.885" transform="translate(-7.951 -8.277)" fill="#263238"/>
            <path id="Trazado_875390" data-name="Trazado 875390" d="M94.741,93.623c.259.292,1.942-.872,4.276-.79,2.333.047,4.008,1.3,4.269,1.026.129-.123-.129-.643-.857-1.209a5.96,5.96,0,0,0-3.406-1.172,5.721,5.721,0,0,0-3.415.983c-.735.528-.995,1.032-.866,1.163" transform="translate(-7.871 -7.602)" fill="#263238"/>
            <path id="Trazado_875391" data-name="Trazado 875391" d="M120.058,94.853c.289.263,1.845-1.066,4.174-1.225,2.324-.193,4.12.885,4.352.582.115-.136-.192-.626-.977-1.115a5.951,5.951,0,0,0-3.508-.816,5.73,5.73,0,0,0-3.3,1.329c-.675.6-.883,1.129-.743,1.245" transform="translate(-9.974 -7.667)" fill="#263238"/>
            <path id="Trazado_875392" data-name="Trazado 875392" d="M110.034,112.439a15.5,15.5,0,0,0-3.769-.806c-.593-.081-1.154-.217-1.241-.627a3.031,3.031,0,0,1,.455-1.754q.91-2.136,1.909-4.482c2.655-6.383,4.6-11.64,4.341-11.745s-2.621,4.984-5.277,11.368q-.96,2.361-1.835,4.511a3.449,3.449,0,0,0-.384,2.33,1.5,1.5,0,0,0,.952.9,4.042,4.042,0,0,0,1.008.172,15.168,15.168,0,0,0,3.843.129" transform="translate(-8.654 -7.73)" fill="#263238"/>
            <path id="Trazado_875393" data-name="Trazado 875393" d="M114.239,117.98a3.332,3.332,0,0,1,2.259,1.308c.51.732.878,2.444.371,3.11-.432.568-2.36.566-3.686.4a1.631,1.631,0,0,1-1.33-1.087l-.524-1.507a1.626,1.626,0,0,1,1.015-2.091,4.351,4.351,0,0,1,1.894-.13" transform="translate(-9.244 -9.8)" fill="#ff9b6c"/>
            <path id="Trazado_875394" data-name="Trazado 875394" d="M118.9,85.542c.348.579,2.579-.162,5.331-.362,2.75-.255,5.071.11,5.319-.518.107-.3-.385-.811-1.379-1.244a9.3,9.3,0,0,0-8.115.67c-.91.591-1.311,1.177-1.156,1.454" transform="translate(-9.878 -6.879)" fill="#263238"/>
            <path id="Trazado_875395" data-name="Trazado 875395" d="M95.365,89.406c.49.517,2.337-.083,4.576-.17,2.236-.154,4.146.245,4.568-.321.184-.275-.129-.8-.971-1.277a7.1,7.1,0,0,0-3.746-.769,7,7,0,0,0-3.623,1.164c-.777.567-1.021,1.12-.805,1.373" transform="translate(-7.919 -7.218)" fill="#263238"/>
            <path id="Trazado_875396" data-name="Trazado 875396" d="M172.359,192.086l-22.025,79.888,7.726,22.9c-29.084,12.818-71.126,16.892-104.266.833,0,0,11.258-33.031,11.64-39.461s-2.384-43.99.679-56.586,11.833-39.6,11.833-39.6l25.8-4.1c11.828,6.353,19.4,7.3,32.121-.063l24.03,5.241Z" transform="translate(-4.47 -12.956)" fill="#7d6eb2"/>
            <path id="Trazado_875397" data-name="Trazado 875397" d="M76.834,160.02S62.981,161.487,57.4,172.881c-5.511,11.256-20.807,61.076-21.64,69.4s5.92,19.525,11.806,21.074l17.849-17.794,14.809,1.319,19.5-90.974Z" transform="translate(-2.966 -12.956)" fill="#7d6eb2"/>
            <g id="Grupo_1100898" data-name="Grupo 1100898" transform="translate(45.465 177.667)" opacity="0.3">
              <g id="Grupo_1100897" data-name="Grupo 1100897">
                <g id="Grupo_1100896" data-name="Grupo 1100896" clip-path="url(#clip-path-6)">
                  <path id="Trazado_875398" data-name="Trazado 875398" d="M67.529,193.769a67.007,67.007,0,0,0-3.483,35.321l-9.753-3.643a30.45,30.45,0,0,0,10.134,8.889,23.774,23.774,0,0,0-8.057-1.35c-2.732.178-5.555,1.495-6.784,3.94a32.836,32.836,0,0,1,9.652-.79c3.219.376,6.468,1.862,8.2,4.6A113.088,113.088,0,0,1,64.7,209.006" transform="translate(-49.585 -193.769)"/>
                </g>
              </g>
            </g>
            <g id="Grupo_1100901" data-name="Grupo 1100901" transform="translate(58.516 246.181)" opacity="0.3">
              <g id="Grupo_1100900" data-name="Grupo 1100900">
                <g id="Grupo_1100899" data-name="Grupo 1100899" clip-path="url(#clip-path-7)">
                  <path id="Trazado_875399" data-name="Trazado 875399" d="M64.665,268.493l72.7,7.2c-5.24-.112-9.273,4.324-13.809,6.948-8.4,4.86-18.862,3.5-28.45,1.992l-23.829-3.747c-2-.315-4.14-.693-5.617-2.084-2.649-2.492-1.924-6.8-.995-10.312" transform="translate(-63.819 -268.493)"/>
                </g>
              </g>
            </g>
            <path id="Trazado_875400" data-name="Trazado 875400" d="M122.872,260.767l12.174-11.754a5.619,5.619,0,0,1,4.434-1.555c3.474.329,9.363.94,10.574,1.411,1.741.677,3.385,1.644,3.869,2.515a51.365,51.365,0,0,1,2.224,6.868,15.786,15.786,0,0,1-.194,2.477,1.721,1.721,0,0,1-2.525,1.313,2.86,2.86,0,0,1-1.15-1.081,3.854,3.854,0,0,1-.677-2.031s.387,5.224-3.869,5.32c0,0,1.96,4.45-3.518,6.287,0,0,.2,2.9-4.378,3.289a55.759,55.759,0,0,1-8.742,0s-8.375,6.016-14.275,6.4-19.113-2.191-19.113-2.191L96.111,253.7Z" transform="translate(-7.987 -20.562)" fill="#ffc09d"/>
            <path id="Trazado_875401" data-name="Trazado 875401" d="M143.286,253.842a13.013,13.013,0,0,0,1.95.817c1.222.457,2.923,1.066,4.855,1.58.955.271,1.92.425,2.721.645a2.96,2.96,0,0,1,1.659,1.361,13.8,13.8,0,0,0,.878,1.276c.239.283.409.4.421.389a3.685,3.685,0,0,0-.32-.466c-.207-.3-.448-.756-.785-1.324a4.5,4.5,0,0,0-.664-.87,2.694,2.694,0,0,0-1.1-.652c-.856-.252-1.771-.4-2.73-.674-1.916-.509-3.623-1.082-4.862-1.483a14.23,14.23,0,0,0-2.026-.6" transform="translate(-11.907 -21.094)" fill="#ff9b6c"/>
            <path id="Trazado_875402" data-name="Trazado 875402" d="M141.577,261.977a6.506,6.506,0,0,0,1.355.625c.854.344,2.046.787,3.376,1.232s2.551.809,3.439,1.049a6.542,6.542,0,0,0,1.458.315,7.074,7.074,0,0,0-1.391-.536l-3.4-1.138-3.4-1.139a7.1,7.1,0,0,0-1.434-.409" transform="translate(-11.765 -21.77)" fill="#ff9b6c"/>
            <path id="Trazado_875403" data-name="Trazado 875403" d="M138.3,269.542c-.01.1,2.12.317,4.653,1.008s4.488,1.56,4.529,1.468a5.111,5.111,0,0,0-1.242-.66A22.944,22.944,0,0,0,139.7,269.6a5.093,5.093,0,0,0-1.406-.054" transform="translate(-11.493 -22.397)" fill="#ff9b6c"/>
            <path id="Trazado_875404" data-name="Trazado 875404" d="M102.65,279.257l-54.005-8.621s6.49-27.088,15.958-27.088c1.388,0,49.358,15.585,49.358,15.585Z" transform="translate(-4.042 -20.239)" fill="#7d6eb2"/>
            <path id="Trazado_875405" data-name="Trazado 875405" d="M117.85,268.873a10.177,10.177,0,0,0,1.265-1.159l2.951-2.9c1.146-1.14,2.168-2.188,2.885-2.97a8.15,8.15,0,0,0,1.1-1.319,9.848,9.848,0,0,0-1.267,1.159l-2.951,2.9c-1.145,1.14-2.169,2.188-2.886,2.969a8.088,8.088,0,0,0-1.1,1.32" transform="translate(-9.793 -21.65)" fill="#ff9b6c"/>
            <path id="Trazado_875406" data-name="Trazado 875406" d="M114.038,258.78a2.386,2.386,0,0,1-.687-.128l-1.925-.513-7.037-2.025c-5.932-1.741-14.111-4.2-23.131-6.958l-13.925-4.3-.11-.034-.082-.11a12.349,12.349,0,0,0-6.295-4.253,15.806,15.806,0,0,0-6.019-.613,18.109,18.109,0,0,0-3.89.777c-.879.282-1.335.485-1.353.449a4.371,4.371,0,0,1,1.278-.659,16.074,16.074,0,0,1,10.151-.513,12.754,12.754,0,0,1,6.716,4.429l-.192-.144,13.948,4.229c9.02,2.76,17.173,5.3,23.064,7.176l6.965,2.26,1.882.652a2.383,2.383,0,0,1,.641.278" transform="translate(-4.121 -19.887)" fill="#263238"/>
            <path id="Trazado_875407" data-name="Trazado 875407" d="M101.667,162.729c.451-1.5,2.988-15.378,4.02-18.607,1.455-4.552,13.284-12.693,13.284-12.693s-1.855-4.274-6.891-2.053c-5.963,2.631-8.91,7.057-10.412,6.157S90.8,125.1,88.244,125.4s-3.114,2.92-2.212,3.972a23.384,23.384,0,0,1,1.913,2.789s-5.408-1.628-4.356,4.293c0,0-6.159-3.843-5.558,4.268,0,0-4.055-1.652-4.958,1.2s1.772,6.159,3.124,8.412,5.74,15.322,5.74,15.322l.051,11.522,21.534-4.427Z" transform="translate(-6.057 -10.42)" fill="#ffc09d"/>
            <path id="Trazado_875408" data-name="Trazado 875408" d="M101.633,162.7a3.9,3.9,0,0,1,.17.662l.4,1.931c.345,1.747.834,4.229,1.459,7.4l.034.173-.175.038-21.511,4.541-.356.075,0-.366c-.027-3.548-.056-7.43-.087-11.523l.017.105c-1.537-4.432-3.134-9.2-5.14-14.017-.981-2.32-3.026-4.341-3.762-7.155a5.377,5.377,0,0,1-.143-2.2,2.879,2.879,0,0,1,1.166-2.007,3.588,3.588,0,0,1,2.254-.506,7.717,7.717,0,0,1,2.181.487l-.527.385a13.76,13.76,0,0,1,.052-2.428,4.179,4.179,0,0,1,1.03-2.4,2.913,2.913,0,0,1,2.6-.714,7.111,7.111,0,0,1,2.461.913l-.586.4a5.254,5.254,0,0,1,.4-3.608,2.949,2.949,0,0,1,2.1-1.289,5.834,5.834,0,0,1,2.345.166l-.447.566a22.5,22.5,0,0,0-1.763-2.6,2.39,2.39,0,0,1-.6-1.721,3.2,3.2,0,0,1,.586-1.685,3.112,3.112,0,0,1,1.4-1.085,4.046,4.046,0,0,1,.843-.22,2.587,2.587,0,0,1,.932.08,10.557,10.557,0,0,1,2.808,1.573c3.36,2.453,6.239,5.269,9.142,7.812a4.722,4.722,0,0,0,1.028.756,1.635,1.635,0,0,0,1.064-.339,27.79,27.79,0,0,0,2.239-1.662,35.1,35.1,0,0,1,4.581-3.154c1.583-.835,3.252-1.762,5.135-1.685a4.966,4.966,0,0,1,4.263,2.883l.109.231-.221.158c-4.609,3.276-8.752,6.5-11.683,9.971a8.587,8.587,0,0,0-1.623,2.775c-.3,1.011-.535,2.018-.76,2.979q-.637,2.894-1.165,5.3c-.675,3.163-1.208,5.659-1.583,7.42-.19.852-.343,1.5-.459,1.938a4.39,4.39,0,0,1-.209.65,4.53,4.53,0,0,1,.115-.671l.368-1.957c.335-1.768.811-4.275,1.414-7.453.329-1.61.693-3.39,1.09-5.328.214-.969.435-1.976.734-3.02a9.05,9.05,0,0,1,1.68-2.956c2.974-3.588,7.093-6.836,11.724-10.176l-.112.389a4.32,4.32,0,0,0-3.705-2.472c-1.627-.072-3.216.787-4.77,1.622a34.833,34.833,0,0,0-4.479,3.113,27.309,27.309,0,0,1-2.308,1.723,2.214,2.214,0,0,1-1.619.424,4.465,4.465,0,0,1-1.322-.9c-2.937-2.556-5.815-5.353-9.107-7.748a10.02,10.02,0,0,0-2.576-1.456,1.765,1.765,0,0,0-.609-.059,3.357,3.357,0,0,0-.671.174,2.328,2.328,0,0,0-1.055.822,1.971,1.971,0,0,0-.015,2.465,23.061,23.061,0,0,1,1.837,2.7l.489.816-.935-.25c-1.254-.335-2.906-.3-3.569.8a4.568,4.568,0,0,0-.293,3.054l.118.811-.705-.414a6.382,6.382,0,0,0-2.164-.8,2.132,2.132,0,0,0-1.947.5c-.954,1.03-.926,2.764-.86,4.218l.027.585-.554-.2c-1.214-.443-2.731-.7-3.717-.064a2.12,2.12,0,0,0-.848,1.5,4.631,4.631,0,0,0,.126,1.891,13.259,13.259,0,0,0,1.686,3.559,23.552,23.552,0,0,1,2.016,3.49c2.018,4.889,3.585,9.639,5.105,14.1l.017.05v.053c.006,4.094.01,7.975.016,11.523l-.359-.291,21.559-4.309-.141.209c-.553-3.2-.987-5.7-1.292-7.461-.131-.813-.234-1.454-.312-1.937a3.416,3.416,0,0,1-.074-.658" transform="translate(-6.023 -10.387)" fill="#ff9b6c"/>
            <path id="Trazado_875409" data-name="Trazado 875409" d="M89.33,132.935a30.391,30.391,0,0,0,2.614,2.438,30.622,30.622,0,0,0,2.675,2.372,14.558,14.558,0,0,0-2.455-2.613,14.614,14.614,0,0,0-2.833-2.2" transform="translate(-7.423 -11.047)" fill="#ff9b6c"/>
            <path id="Trazado_875410" data-name="Trazado 875410" d="M84.077,137.1a8.86,8.86,0,0,0,3.327,4.29c.063-.073-.832-.9-1.742-2.084s-1.5-2.249-1.585-2.206" transform="translate(-6.986 -11.393)" fill="#ff9b6c"/>
            <path id="Trazado_875411" data-name="Trazado 875411" d="M78.586,141.785a14.332,14.332,0,0,0,2.528,3.5,14.379,14.379,0,0,0-2.528-3.5" transform="translate(-6.53 -11.782)" fill="#ff9b6c"/>
            <path id="Trazado_875412" data-name="Trazado 875412" d="M162.213,161.62l-23.161,23.11-23.761,29.852-9.45-39.782L81.7,179.762s1.7,44.939,9.134,65.305c1.414,3.877,5.6,6.759,7.464,7.645,11.673,5.544,23.069-3.033,23.069-3.033s48.7-32.686,53.978-54.567c2.493-10.332,1.494-22.616-2.753-27.674-3.734-4.446-10.374-5.819-10.374-5.819" transform="translate(-6.789 -13.431)" fill="#7d6eb2"/>
            <path id="Trazado_875413" data-name="Trazado 875413" d="M175.319,196.284s-.055.241-.185.708a16.621,16.621,0,0,1-.652,2.047,35.946,35.946,0,0,1-3.823,7.31,82.239,82.239,0,0,1-8.1,10.246,168.771,168.771,0,0,1-12.387,12.082c-4.787,4.268-10.228,8.717-16.218,13.3q-4.5,3.43-9.415,6.92l-2.49,1.736c-.827.57-1.692,1.173-2.594,1.68a29.883,29.883,0,0,1-5.782,2.522,21.576,21.576,0,0,1-12.938.244,14.054,14.054,0,0,1-1.579-.589,11.986,11.986,0,0,1-1.552-.692,18.681,18.681,0,0,1-2.811-1.942,13.837,13.837,0,0,1-4.182-5.486,106.117,106.117,0,0,1-3.622-13.613c-.887-4.684-1.71-9.451-2.324-14.305-1.7-12.947-2.673-25.559-3.217-37.5l-.009-.2.193-.039,24.147-4.947.2-.042.048.2c3.57,15.114,6.747,28.562,9.4,39.793l-.279-.073,19.22-20.674,5.2-5.556,1.354-1.431c.307-.321.472-.476.472-.476s-.142.177-.437.507l-1.321,1.462-5.134,5.615-19.112,20.775-.207.226-.071-.3-9.5-39.77.251.16-24.141,4.978.183-.234c.555,11.925,1.53,24.533,3.23,37.458.613,4.848,1.434,9.6,2.317,14.275a105.979,105.979,0,0,0,3.6,13.544,13.386,13.386,0,0,0,4.039,5.293,18.253,18.253,0,0,0,2.736,1.894,11.6,11.6,0,0,0,1.506.671,13.511,13.511,0,0,0,1.541.577,21.139,21.139,0,0,0,12.671-.228,29.509,29.509,0,0,0,5.7-2.476c.9-.505,1.718-1.074,2.567-1.658l2.488-1.727q4.92-3.465,9.417-6.892c5.993-4.559,11.439-8.987,16.233-13.233a170.665,170.665,0,0,0,12.415-12.01,83.639,83.639,0,0,0,8.144-10.167A37.063,37.063,0,0,0,174.392,199a19.094,19.094,0,0,0,.7-2.025c.146-.46.232-.694.232-.694" transform="translate(-6.767 -14.602)" fill="#263238"/>
            <path id="Trazado_875414" data-name="Trazado 875414" d="M122.688,237.519c-.085-.019.2-1.169.346-3.054a22.974,22.974,0,0,0,.011-3.313,24.125,24.125,0,0,0-.666-3.993A25.744,25.744,0,0,0,119.5,220.4c-.986-1.617-1.716-2.546-1.649-2.6.026-.021.229.193.578.6a19.107,19.107,0,0,1,1.357,1.816,22.81,22.81,0,0,1,3.061,6.824,22.2,22.2,0,0,1,.642,4.086,19.869,19.869,0,0,1-.115,3.372,14.869,14.869,0,0,1-.415,2.233,2.792,2.792,0,0,1-.266.789" transform="translate(-9.793 -18.099)" fill="#263238"/>
            <path id="Trazado_875415" data-name="Trazado 875415" d="M118.785,121.145c-.043.127-.541.071-1.3-.083a23.881,23.881,0,0,0-2.919-.471,8.874,8.874,0,0,0-2.854.171c-.715.166-1.016.457-1.132.408-.056-.026-.057-.184.087-.4a2.141,2.141,0,0,1,.8-.64,6.1,6.1,0,0,1,3.173-.493,9.508,9.508,0,0,1,3.048.779c.728.326,1.139.6,1.1.727" transform="translate(-9.186 -9.94)" fill="#263238"/>
            <g id="Grupo_1100904" data-name="Grupo 1100904" transform="translate(119.826 177.914)" opacity="0.3">
              <g id="Grupo_1100903" data-name="Grupo 1100903">
                <g id="Grupo_1100902" data-name="Grupo 1100902" clip-path="url(#clip-path-8)">
                  <path id="Trazado_875416" data-name="Trazado 875416" d="M157.249,274.634s-10.6-1.3-16.305-2.182c-3.117-.481-7.863-.983-8.761-1.854-1.116-1.082-1.109-2.884-1.227-4.434-2.022-26.449,7.071-55.062,35.178-72.125l7.168,1.885-.463,17.23Z" transform="translate(-130.686 -194.039)"/>
                </g>
              </g>
            </g>
          </g>
        </g>
        <g id="Grupo_1100917" data-name="Grupo 1100917">
          <g id="Grupo_1100916" data-name="Grupo 1100916" clip-path="url(#clip-path)">
            <path id="Trazado_875417" data-name="Trazado 875417" d="M336.8,53.81a7.37,7.37,0,0,0,2.769-14.4,7.666,7.666,0,0,0-7-12.76,9.176,9.176,0,0,0-14.016-7.178,10.315,10.315,0,0,0-12.7.055,7.545,7.545,0,0,0-7.747,4.019,7.545,7.545,0,0,0,1.575,8.583" transform="translate(-24.715 -1.439)" fill="#263238"/>
            <path id="Trazado_875418" data-name="Trazado 875418" d="M302.886,27.695l1.619-.038a31.268,31.268,0,0,1,31.83,28.02c1.57,15.075,3.111,31.749,3.2,39.854C339.72,112.313,323,115.313,323,115.313l1.889,20.122-40.746-.312-5.306-73.016c-1.908-17.384,6.619-32.985,24.049-34.412" transform="translate(-23.15 -2.298)" fill="#ffc09d"/>
            <path id="Trazado_875419" data-name="Trazado 875419" d="M324.954,122.714a43.462,43.462,0,0,1-23.132-5.944S308.639,129,325.344,127.1Z" transform="translate(-25.082 -9.704)" fill="#ff9b6c"/>
            <path id="Trazado_875420" data-name="Trazado 875420" d="M335.549,77.884a2.4,2.4,0,0,1-2.254,2.471,2.292,2.292,0,0,1-2.52-2.1,2.4,2.4,0,0,1,2.251-2.473,2.3,2.3,0,0,1,2.523,2.1" transform="translate(-27.488 -6.297)" fill="#263238"/>
            <path id="Trazado_875421" data-name="Trazado 875421" d="M336.987,67.042c-.29.32-2.135-.982-4.714-.915-2.576.03-4.438,1.4-4.724,1.092-.141-.138.148-.709.958-1.327a6.572,6.572,0,0,1,3.773-1.261,6.316,6.316,0,0,1,3.761,1.119c.808.59,1.088,1.149.945,1.292" transform="translate(-27.217 -5.371)" fill="#263238"/>
            <path id="Trazado_875422" data-name="Trazado 875422" d="M311.337,77.884a2.4,2.4,0,0,1-2.254,2.47,2.292,2.292,0,0,1-2.521-2.1,2.4,2.4,0,0,1,2.252-2.472,2.3,2.3,0,0,1,2.522,2.1" transform="translate(-25.475 -6.297)" fill="#263238"/>
            <path id="Trazado_875423" data-name="Trazado 875423" d="M309.361,68.211c-.29.319-2.139-.981-4.715-.914-2.576.029-4.437,1.4-4.724,1.091-.141-.137.146-.708.959-1.327a6.576,6.576,0,0,1,3.772-1.26,6.317,6.317,0,0,1,3.762,1.118c.8.59,1.087,1.149.945,1.292" transform="translate(-24.921 -5.468)" fill="#263238"/>
            <path id="Trazado_875424" data-name="Trazado 875424" d="M320.755,87.1c-.016-.147,1.581-.461,4.169-.854.657-.083,1.277-.228,1.378-.68a3.366,3.366,0,0,0-.485-1.941q-.985-2.367-2.064-4.968c-2.87-7.075-4.963-12.9-4.678-13.011s2.844,5.53,5.714,12.6q1.037,2.617,1.982,5a3.809,3.809,0,0,1,.4,2.576,1.652,1.652,0,0,1-1.06.988,4.405,4.405,0,0,1-1.114.182c-2.61.2-4.231.25-4.244.105" transform="translate(-26.513 -5.455)" fill="#263238"/>
            <path id="Trazado_875425" data-name="Trazado 875425" d="M309.858,62.384c-.325.662-2.551,0-5.273-.02-2.721-.086-5,.48-5.267-.193-.115-.321.355-.92,1.323-1.465a8.169,8.169,0,0,1,4.061-.954,7.869,7.869,0,0,1,3.968,1.117c.916.584,1.331,1.2,1.187,1.516" transform="translate(-24.872 -4.965)" fill="#263238"/>
            <path id="Trazado_875426" data-name="Trazado 875426" d="M336.758,55.432c-.53.6-2.671.039-5.231.071-2.56-.043-4.717.5-5.229-.1-.225-.292.1-.887,1.035-1.462a8.327,8.327,0,0,1,4.23-1.059,8.187,8.187,0,0,1,4.2,1.08c.918.581,1.229,1.177,1,1.468" transform="translate(-27.11 -4.395)" fill="#263238"/>
            <path id="Trazado_875427" data-name="Trazado 875427" d="M334.177,47.831s-4.67-10.4-9.793-12.738c-6.2-2.825-8.686,3.969-14.568,2.471s-11.805-4.209-17.672.448c-6.423,5.1-3.279,8.5-3.509,15.949-.934,30.217-6.247,38.88-8.146,24.7-.208-1.553-4.559-2.691-5.353-9.256-1.03-8.513-1.6-18.865.164-24.964,1.486-5.141,4.314-8.735,9.441-12.744,8.094-6.329,19.405-6.725,27.107-6.13s22.722,9.09,22.328,22.262" transform="translate(-22.784 -2.108)" fill="#263238"/>
            <path id="Trazado_875428" data-name="Trazado 875428" d="M281.2,82.58a4.554,4.554,0,0,0-5.019-4.274c-3.122.37-6.562,2.228-6.2,8.689.634,11.461,12.01,8.461,12.011,8.131,0-.224-.48-7.752-.788-12.546" transform="translate(-22.433 -6.505)" fill="#ffc09d"/>
            <path id="Trazado_875429" data-name="Trazado 875429" d="M279.609,91.289c-.052-.034-.193.151-.521.325a2,2,0,0,1-1.491.113c-1.236-.377-2.361-2.243-2.531-4.306a6.6,6.6,0,0,1,.4-2.889,2.309,2.309,0,0,1,1.417-1.616,1.017,1.017,0,0,1,1.208.482c.171.312.112.545.173.561.034.027.236-.206.116-.674a1.272,1.272,0,0,0-.491-.693,1.5,1.5,0,0,0-1.12-.231,2.812,2.812,0,0,0-1.988,1.892,6.8,6.8,0,0,0-.515,3.232c.2,2.306,1.5,4.4,3.186,4.788a2.137,2.137,0,0,0,1.809-.4c.339-.3.385-.562.345-.581" transform="translate(-22.79 -6.842)" fill="#ff9b6c"/>
            <path id="Trazado_875430" data-name="Trazado 875430" d="M280.876,55.6a10.9,10.9,0,0,0,4.91,2.13c1.8.136,3.828-.943,4.088-2.728.118-.8-.1-1.724.412-2.353.609-.751,1.771-.547,2.733-.468,3.343.276,7.154-3.5,7.927-6.762a2.993,2.993,0,0,0,4.02.735,10.722,10.722,0,0,0,2.706-2.521c.981-1.176,2.37-2.241,3.891-2.061a11.288,11.288,0,0,0,2.508.491c1.5-.169,2.2-1.949,2.39-3.449s.33-3.249,1.586-4.091c1.164-.781,2.707-.381,4.1-.209s3.174-.2,3.5-1.56a2.724,2.724,0,0,0-.561-2.069,7.431,7.431,0,0,0-8.834-2.608,10.071,10.071,0,0,0-18.544-1.52,10.221,10.221,0,0,0-16.247,4.107,7.408,7.408,0,0,0-8.1,10.968c-2.035,1.226-3.752,3.315-3.739,5.69s2.38,4.686,4.657,4.009a4.1,4.1,0,0,0,7.189,3.925" transform="translate(-22.406 -1.753)" fill="#263238"/>
            <path id="Trazado_875431" data-name="Trazado 875431" d="M317.273,32.371a.618.618,0,0,1,0,.21c-.013.138-.016.347-.059.614a7.227,7.227,0,0,1-.781,2.23,8.229,8.229,0,0,1-2.48,2.771,7.645,7.645,0,0,1-4.667,1.449l.188-.258a4.156,4.156,0,0,1-.156,3.172,11.883,11.883,0,0,1-1.9,2.866,8.654,8.654,0,0,1-1.253,1.347,4.021,4.021,0,0,1-1.8.716,4.188,4.188,0,0,1-3.723-1.237l.425-.132a8.6,8.6,0,0,1-3.51,6.037,6.277,6.277,0,0,1-3.737,1.322,11.323,11.323,0,0,1-3.731-.728l.3-.142a9.036,9.036,0,0,1-2.632,3.6,4.814,4.814,0,0,1-3.97,1.181,6.321,6.321,0,0,1-4.981-4.83l.263.115a5.914,5.914,0,0,1-3.928.671,6.429,6.429,0,0,1-2.777-1.162,5.554,5.554,0,0,1-1.314-1.372,2.791,2.791,0,0,1-.305-.587,6.91,6.91,0,0,0,1.731,1.8,6.367,6.367,0,0,0,2.708,1.044,5.655,5.655,0,0,0,3.7-.7l.213-.127.05.242a5.961,5.961,0,0,0,4.71,4.474,4.37,4.37,0,0,0,3.6-1.114,8.617,8.617,0,0,0,2.472-3.418l.086-.215.217.072a10.926,10.926,0,0,0,3.569.693,5.784,5.784,0,0,0,3.451-1.23,8.146,8.146,0,0,0,3.32-5.689l.059-.545.368.412a3.721,3.721,0,0,0,3.287,1.092,3.556,3.556,0,0,0,1.6-.623,8.3,8.3,0,0,0,1.182-1.262,11.568,11.568,0,0,0,1.856-2.744,3.765,3.765,0,0,0,.183-2.872l-.1-.271.289.013a7.375,7.375,0,0,0,4.474-1.318,8.17,8.17,0,0,0,2.468-2.626,8.874,8.874,0,0,0,1.024-2.948" transform="translate(-22.5 -2.69)" fill="#455a64"/>
            <path id="Trazado_875432" data-name="Trazado 875432" d="M225.573,143.242s-43.114,15.185-55.586,21.457c-9.743,4.9-15.916,22.679-.923,30.087,11.18,5.525,71.7-5.034,71.7-5.034Z" transform="translate(-13.302 -11.904)" fill="#ffc09d"/>
            <path id="Trazado_875433" data-name="Trazado 875433" d="M364.373,307.5l-109.546-4.145-3.967,37.29-4.388,74.8,55.918.236c.024-.317,6.974-42.046,6.974-42.046l3.16-.827-.292,42.873h52.411c2.752-35.479,4.324-65.279,4.42-68.083a136.9,136.9,0,0,0-4.69-40.1" transform="translate(-20.482 -25.209)" fill="#263238"/>
            <path id="Trazado_875434" data-name="Trazado 875434" d="M310.766,351.746a7.547,7.547,0,0,0,1.664.847,18.794,18.794,0,0,0,4.9,1.484,10.159,10.159,0,0,0,3.589-.127,7.379,7.379,0,0,0,3.676-1.96,8.913,8.913,0,0,0,2.106-4.074c.4-1.533.591-3.117.845-4.73.97-6.467,1.562-12.361,1.872-16.633.156-2.135.245-3.867.283-5.064a7.948,7.948,0,0,0-.03-1.865,8.266,8.266,0,0,0-.29,1.842c-.148,1.362-.329,3.045-.545,5.035-.458,4.25-1.141,10.114-2.108,16.563-.494,3.188-.786,6.427-2.682,8.4a8.1,8.1,0,0,1-6.649,2.036,21.92,21.92,0,0,1-4.847-1.2,8.83,8.83,0,0,0-1.781-.548" transform="translate(-25.825 -26.561)" fill="#455a64"/>
            <path id="Trazado_875435" data-name="Trazado 875435" d="M321.751,321.219c.011-.036-.261-.193-.811-.2a3.488,3.488,0,0,0-2.15.792,3.9,3.9,0,0,0-1.513,3.078,3.865,3.865,0,0,0,6.68,2.188,3.9,3.9,0,0,0,.6-3.378,3.49,3.49,0,0,0-1.264-1.91c-.45-.316-.761-.351-.774-.315a4.391,4.391,0,0,1,1.47,2.359,3.4,3.4,0,0,1-.624,2.765,3.159,3.159,0,0,1-5.327-1.745,3.406,3.406,0,0,1,1.132-2.6,4.4,4.4,0,0,1,2.581-1.033" transform="translate(-26.366 -26.677)" fill="#455a64"/>
            <path id="Trazado_875436" data-name="Trazado 875436" d="M255.585,340.311a4.23,4.23,0,0,0,1.335.15,24.7,24.7,0,0,0,3.655-.113,35.406,35.406,0,0,0,21.477-10.137,24.9,24.9,0,0,0,2.41-2.751c.515-.693.777-1.091.732-1.126-.114-.092-1.3,1.394-3.545,3.455a39.306,39.306,0,0,1-21.142,9.98c-3.016.42-4.919.394-4.921.541" transform="translate(-21.239 -27.118)" fill="#455a64"/>
            <path id="Trazado_875437" data-name="Trazado 875437" d="M365.679,286.828c-2.149-4.893-1.75-5.343-1.75-5.343l-6.091-53.3-5.849-51.848-4.744-38.377-27.4-5.868s-3.154,8.742-16.4,9.007c-15.26.3-24.006-13.342-24.006-13.342l-43.818,9.408,16.478,113.019,1.976,30.442s-3.272,4.926-3.272,10.21-.215,8.807-.215,8.807c40.672,11.173,81.033,20.849,118.17,10.033,0,0-.925-17.958-3.074-22.851" transform="translate(-19.58 -10.617)" fill="#7d6eb2"/>
            <path id="Trazado_875438" data-name="Trazado 875438" d="M346.458,136.706s15.794,1.764,21.4,7.713S391.375,179.8,391.375,179.8l-26.02,35.6L353.3,198.949Z" transform="translate(-28.791 -11.36)" fill="#7d6eb2"/>
            <path id="Trazado_875439" data-name="Trazado 875439" d="M359.59,156.8c.219-.021,2.708,19.543,5.557,43.692s4.985,43.753,4.766,43.774-2.707-19.539-5.557-43.7-4.985-43.748-4.766-43.769" transform="translate(-29.881 -13.03)" fill="#263238"/>
            <path id="Trazado_875440" data-name="Trazado 875440" d="M232.436,138.021,197.35,153.593l12.7,35.516,33.817,5.359Z" transform="translate(-16.4 -11.47)" fill="#7d6eb2"/>
            <path id="Trazado_875441" data-name="Trazado 875441" d="M240.88,163.7c.234-.025,1.907,13.831,3.738,30.945s3.126,31.013,2.892,31.038-1.907-13.828-3.738-30.947-3.126-31.011-2.892-31.036" transform="translate(-20.015 -13.603)" fill="#263238"/>
            <g id="Grupo_1100909" data-name="Grupo 1100909" transform="translate(229.514 245.303)" opacity="0.3">
              <g id="Grupo_1100908" data-name="Grupo 1100908">
                <g id="Grupo_1100907" data-name="Grupo 1100907" clip-path="url(#clip-path-10)">
                  <path id="Trazado_875442" data-name="Trazado 875442" d="M250.316,352.4c19.048-6.848,29.6-20.343,38.123-34.657s9.737-34.468,4.284-50.208c0,0-39.367,38.083-39.647,38.922s-2.76,45.942-2.76,45.942" transform="translate(-250.316 -267.536)"/>
                </g>
              </g>
            </g>
            <g id="Grupo_1100912" data-name="Grupo 1100912" transform="translate(283.033 125.346)" opacity="0.3">
              <g id="Grupo_1100911" data-name="Grupo 1100911">
                <g id="Grupo_1100910" data-name="Grupo 1100910" clip-path="url(#clip-path-11)">
                  <path id="Trazado_875443" data-name="Trazado 875443" d="M308.75,141.352c-.471,3.867,1.689,7.595,4.339,10.45s5.859,5.181,8.274,8.238c2.757,3.489,4.335,7.74,5.87,11.912l9.616,26.142c2.761,7.5,5.558,15.083,9.935,21.775s10.542,12.516,18.154,14.963l-5.779-49.093L328.669,136.7Z" transform="translate(-308.685 -136.706)"/>
                </g>
              </g>
            </g>
            <path id="Trazado_875444" data-name="Trazado 875444" d="M339.429,139.039c0-.617.49-23.356-1.035-25.826a18.913,18.913,0,0,1-3.051-7.1,1.526,1.526,0,0,0-.683-2.2c-1.516-.846-3.92,1.217-3.972,4.867s.366,9.892.366,9.892-16.775-9.522-21.374-9.786-11.5-1.11-11.863,1.111-.051,2.75,2.352,3.6,6.219,1.429,9.981,2.7a47.92,47.92,0,0,1,5.488,2.132s-8.57-2.523-10.452,0-1.62,4.8-.418,6.014a3.878,3.878,0,0,0-2.3,3.861c.261,2.8,1.516,3.491,1.516,3.491s-2.509,1.9-1.307,4.338,4.024.9,6.689,3.65,9.3,9.2,11.863,10.631,8.413,2.01,8.413,2.01Z" transform="translate(-24.739 -8.62)" fill="#ffc09d"/>
            <path id="Trazado_875445" data-name="Trazado 875445" d="M339.409,139.024a1.706,1.706,0,0,1-.149.232l-.475.676-1.88,2.625-7.182,9.923-.041.057-.071-.007c-1.158-.122-2.365-.292-3.618-.528a22.872,22.872,0,0,1-3.861-1.022,7.576,7.576,0,0,1-1.872-1.02c-.591-.413-1.158-.871-1.733-1.339-1.142-.946-2.282-1.965-3.44-3.032s-2.332-2.185-3.521-3.349l-1.794-1.783a8.252,8.252,0,0,0-1.933-1.628,8.435,8.435,0,0,0-2.45-.828,4.145,4.145,0,0,1-2.5-1.2,3.189,3.189,0,0,1-.655-2.765,4.682,4.682,0,0,1,1.616-2.417l.024.33a3.567,3.567,0,0,1-1.243-1.819,7.6,7.6,0,0,1-.391-2.182,3.758,3.758,0,0,1,.642-2.206,4.5,4.5,0,0,1,1.793-1.508l-.068.336a4.022,4.022,0,0,1-.741-4.156,7.364,7.364,0,0,1,1.014-1.954,2.366,2.366,0,0,1,.848-.8,4.307,4.307,0,0,1,1.074-.4,13.33,13.33,0,0,1,4.463.006,33.794,33.794,0,0,1,4.419.932l-.158.4a55.932,55.932,0,0,0-7.011-2.6c-2.438-.728-4.984-1.2-7.524-1.922a10.723,10.723,0,0,1-2.663-1.092,1.875,1.875,0,0,1-.835-1.281,5.021,5.021,0,0,1,.048-1.456,1.907,1.907,0,0,1,.211-.748,1.744,1.744,0,0,1,.575-.546,4.373,4.373,0,0,1,1.376-.471,15.711,15.711,0,0,1,2.782-.207c1.84,0,3.65.142,5.439.266a24.138,24.138,0,0,1,2.69.259c.442.1.868.234,1.3.349l1.257.436a96.858,96.858,0,0,1,9.374,4.287q4.47,2.284,8.589,4.614l-.293.184c-.206-3.6-.419-7.05-.326-10.388a5.681,5.681,0,0,1,2.146-4.338,2.363,2.363,0,0,1,1.185-.4,1.814,1.814,0,0,1,1.18.4,1.677,1.677,0,0,1,.673,1.038,1.85,1.85,0,0,1-.229,1.2l.023-.109a18.4,18.4,0,0,0,2.814,6.718,3.146,3.146,0,0,1,.4.808,7,7,0,0,1,.209.852c.1.566.176,1.124.232,1.675.116,1.1.182,2.168.238,3.2.2,4.132.2,7.7.2,10.618s-.05,5.187-.084,6.726q-.032,1.135-.049,1.752c-.015.392-.034.6-.034.6s-.015-.2-.015-.6,0-1,0-1.753c0-1.556,0-3.821,0-6.725-.028-2.915-.052-6.482-.275-10.6-.061-1.03-.134-2.094-.254-3.186-.059-.546-.134-1.1-.237-1.65a3.808,3.808,0,0,0-.578-1.558,18.627,18.627,0,0,1-2.887-6.831l-.008-.053.032-.057a1.517,1.517,0,0,0,.18-.967,1.332,1.332,0,0,0-.546-.822,1.618,1.618,0,0,0-1.967.021,5.346,5.346,0,0,0-1.972,4.07c-.081,3.274.139,6.75.354,10.334l.021.362-.315-.177c-2.742-1.537-5.607-3.073-8.582-4.588a96.793,96.793,0,0,0-9.334-4.254l-1.238-.429c-.42-.111-.839-.243-1.262-.337a23.8,23.8,0,0,0-2.632-.248c-1.789-.123-3.593-.261-5.408-.261a15.4,15.4,0,0,0-2.7.2c-.848.172-1.837.474-1.811,1.4a4.656,4.656,0,0,0-.049,1.323,1.423,1.423,0,0,0,.653.992,10.457,10.457,0,0,0,2.536,1.032c2.5.707,5.065,1.188,7.523,1.923a56.069,56.069,0,0,1,7.081,2.636l-.158.4a33.493,33.493,0,0,0-4.356-.921,12.952,12.952,0,0,0-4.309-.019,2.523,2.523,0,0,0-1.673,1.026,6.987,6.987,0,0,0-.96,1.84,3.608,3.608,0,0,0,.636,3.736l.206.207-.274.128a4.093,4.093,0,0,0-1.612,1.356,3.355,3.355,0,0,0-.576,1.972A7.206,7.206,0,0,0,303,130a3.291,3.291,0,0,0,1.055,1.6l.232.16-.207.171a4.308,4.308,0,0,0-1.476,2.193,2.8,2.8,0,0,0,.57,2.43,3.791,3.791,0,0,0,2.292,1.075,8.793,8.793,0,0,1,2.547.874,8.588,8.588,0,0,1,2.009,1.7l1.784,1.785q1.776,1.748,3.5,3.356c1.152,1.069,2.285,2.089,3.415,3.034a13.06,13.06,0,0,0,3.513,2.329,22.708,22.708,0,0,0,3.805,1.029c1.242.241,2.445.419,3.591.548l-.111.049,7.26-9.828,1.937-2.6.505-.665c.115-.149.182-.221.182-.221" transform="translate(-24.719 -8.605)" fill="#ff9b6c"/>
            <path id="Trazado_875446" data-name="Trazado 875446" d="M396.146,195.11c-1.676-3.2-5.462-9.871-7.287-13.953l-11.992,4.358s-33.967-45.885-35.052-45.885-15.838,13.678-15.838,13.678c.651.651,31.235,70.746,42.949,78.339s20.446,12.415,26.738,1.568,7.857-24,.481-38.1" transform="translate(-27.089 -11.603)" fill="#ffc09d"/>
            <path id="Trazado_875447" data-name="Trazado 875447" d="M396.791,210.2a4.838,4.838,0,0,1-.563-.889c-.333-.588-.827-1.43-1.453-2.46a87.352,87.352,0,0,0-5.337-7.755c-2.243-2.918-4.419-5.445-6-7.269l-1.875-2.16a4.808,4.808,0,0,1-.65-.828,4.817,4.817,0,0,1,.776.712c.48.477,1.157,1.183,1.981,2.069,1.645,1.773,3.867,4.277,6.12,7.21a68.254,68.254,0,0,1,5.257,7.864c.6,1.055,1.05,1.924,1.337,2.538a4.822,4.822,0,0,1,.412.969" transform="translate(-31.654 -15.692)" fill="#ff9b6c"/>
            <path id="Trazado_875448" data-name="Trazado 875448" d="M322.2,100.385c-.3.225-1.569-1.078-3.576-1.78-1.991-.753-3.8-.567-3.884-.935-.039-.167.392-.456,1.195-.61a6.337,6.337,0,0,1,5.742,2.09c.515.633.661,1.132.524,1.235" transform="translate(-26.155 -8.059)" fill="#263238"/>
            <path id="Trazado_875449" data-name="Trazado 875449" d="M352.178,300.14a2.011,2.011,0,0,1-.419.246c-.287.138-.693.383-1.256.609a19.643,19.643,0,0,1-4.953,1.333,28.888,28.888,0,0,1-7.608-.038,56.709,56.709,0,0,1-9.088-2.03c-6.315-1.93-11.9-4.046-15.9-5.682-2-.82-3.6-1.519-4.7-2.019l-1.261-.589a2.038,2.038,0,0,1-.427-.233,1.946,1.946,0,0,1,.462.152l1.293.513,4.75,1.887c4.022,1.56,9.621,3.626,15.916,5.55a59.2,59.2,0,0,0,9.013,2.05,29.8,29.8,0,0,0,7.517.131,21.364,21.364,0,0,0,4.93-1.185c1.116-.443,1.72-.733,1.738-.7" transform="translate(-25.475 -24.244)" fill="#263238"/>
            <path id="Trazado_875450" data-name="Trazado 875450" d="M254.943,204.223a86.043,86.043,0,0,0-45.464-14.006c-11.181-.007-27.635,1.745-42.533,10.135A58.989,58.989,0,0,0,145,221.523c-6.291,10.467-9.7,23.421-10.135,38.5a8.347,8.347,0,0,0,8.347,8.571l29.316.019a8.389,8.389,0,0,0,8.276-7.173c1.306-9.193,6.772-24.667,28.711-25.031,16.721-.27,23.6,11.828,25.787,17.045a29.877,29.877,0,0,1-2.436,26.923c-7.809,12.856-22.161,14.815-30.021,14.839a16.435,16.435,0,0,0-16.4,16.346l-.021,31.546a8.364,8.364,0,0,0,8.348,8.361l28.563.018a8.364,8.364,0,0,0,8.36-8.349l0-6.627a.368.368,0,0,1,.253-.35,82.838,82.838,0,0,0,30.321-18.968c14.431-14.328,21.755-32.829,21.77-54.988.021-31.712-15.811-49.036-29.1-57.984" transform="translate(-11.207 -15.807)" fill="#ffd947"/>
            <path id="Trazado_875451" data-name="Trazado 875451" d="M215.128,374.757l-2.5,0a21.664,21.664,0,0,0-.029,43.328l2.5,0a21.664,21.664,0,1,0,.028-43.328" transform="translate(-15.868 -31.142)" fill="#ffd947"/>
            <g id="Grupo_1100915" data-name="Grupo 1100915" transform="translate(161.197 182.738)" opacity="0.3">
              <g id="Grupo_1100914" data-name="Grupo 1100914">
                <g id="Grupo_1100913" data-name="Grupo 1100913" clip-path="url(#clip-path-12)">
                  <path id="Trazado_875452" data-name="Trazado 875452" d="M286.341,242.7a36.445,36.445,0,0,0-2.416-9.29c-5.719-14.269-19.138-23.992-34.412-25.729L175.807,199.3c8.015,8.191,18.479,9.822,29.573,12.7s23.037,7.187,34.245,9.572c3.6.766,7.313,1.721,10.111,4.108,2.73,2.328,4.253,5.732,5.691,9.019l6.393,14.614c2.433,5.562,5.671,11.843,12.221,12.2a10.362,10.362,0,0,0,7.247-2.568c4.744-4.067,5.745-10.4,5.053-16.241" transform="translate(-175.807 -199.3)"/>
                </g>
              </g>
            </g>
            <path id="Trazado_875453" data-name="Trazado 875453" d="M284.8,220.635c-.57-1-11.772-14.7-17.341-20.01-3.6-3.429-9.015-5.794-12.412-7.045,0,0-56.085-20.253-59.977-22.23l-25.189,25.772c8.769,2.439,68.306,16.774,82.994,20,2.569,3,5.154,5.454,5.154,5.454L262.3,232.6a40.4,40.4,0,0,1,.185,7.567c-.307,3.915,2.868,2.389,2.868,2.389a54.784,54.784,0,0,0,.057,5.941c0,.035,0,.07.007.1.208,2.623,3.976,2.947,4.778.441L273.085,240s-.379,8.229-.534,12.809a4.578,4.578,0,0,0,.373,2.076,2.853,2.853,0,0,0,5.337-.622l3.39-14.305-1.1-8.762L283.4,239.2a54.909,54.909,0,0,1,.627,10.29c-.063,2.4.747,3.428,1.743,3.79a2.772,2.772,0,0,0,3.573-2.49l1.085-13.256s-5.058-15.9-5.628-16.9" transform="translate(-14.117 -14.239)" fill="#ffc09d"/>
            <path id="Trazado_875454" data-name="Trazado 875454" d="M193.4,170.256a16.487,16.487,0,0,1,4.125.847,97.767,97.767,0,0,1,9.59,3.319c3.68,1.462,6.968,2.874,9.35,3.885a23.024,23.024,0,0,1,3.81,1.77,18.649,18.649,0,0,1-4.03-1.209c-2.444-.871-5.774-2.2-9.442-3.654s-7.009-2.707-9.455-3.536a27.621,27.621,0,0,1-3.947-1.422" transform="translate(-16.072 -14.147)" fill="#ff9b6c"/>
          </g>
        </g>
      </g>
    </g>
  </g>
</svg>
