<svg xmlns="http://www.w3.org/2000/svg" xmlns:xlink="http://www.w3.org/1999/xlink" width="521.057" height="271.831" viewBox="0 0 521.057 271.831">
  <defs>
    <clipPath id="clip-path">
      <rect id="Rect치ngulo_402236" data-name="Rect치ngulo 402236" width="400.943" height="267.671" fill="none"/>
    </clipPath>
  </defs>
  <g id="Grupo_1101510" data-name="Grupo 1101510" transform="translate(-239 -1235.999)">
    <g id="Grupo_1100499" data-name="Grupo 1100499" transform="translate(12 -7694.07)">
      <path id="Rect치ngulo_35205" data-name="Rect치ngulo 35205" d="M54,0H468.057a53,53,0,0,1,53,53V222.679a0,0,0,0,1,0,0H0a0,0,0,0,1,0,0V54A54,54,0,0,1,54,0Z" transform="translate(227 8979.221)" fill="#aee6e6"/>
      <g id="Grupo_1101414" data-name="Grupo 1101414" transform="translate(287.057 8930.069)">
        <g id="Grupo_1101413" data-name="Grupo 1101413" clip-path="url(#clip-path)">
          <path id="Trazado_877036" data-name="Trazado 877036" d="M1785.373,1276.011a5.79,5.79,0,0,0-.622.321,23.508,23.508,0,0,0-5.037-4.875,5.863,5.863,0,0,0,.3-.633,5.757,5.757,0,1,0-10.922-3.563,23.463,23.463,0,0,0-7,.118,5.756,5.756,0,1,0-10.474,4.551,23.491,23.491,0,0,0-4.869,5.041,5.76,5.76,0,1,0-4.19,10.632,23.55,23.55,0,0,0,.119,7.012,5.762,5.762,0,1,0,4.548,10.485,23.5,23.5,0,0,0,5.037,4.875,5.757,5.757,0,1,0,10.622,4.2,23.471,23.471,0,0,0,7-.118,5.756,5.756,0,1,0,10.474-4.551,23.5,23.5,0,0,0,4.869-5.041,5.76,5.76,0,1,0,4.19-10.632,23.533,23.533,0,0,0-.119-7.012,5.759,5.759,0,1,0-3.926-10.806m-15.13,24.52a10.7,10.7,0,1,1,5.547-14.075,10.687,10.687,0,0,1-5.547,14.075" transform="translate(-1483.991 -1078.217)" fill="#3d3d3d"/>
          <path id="Trazado_877037" data-name="Trazado 877037" d="M1577.735,1107.5a3.48,3.48,0,0,0-.376.194,14.224,14.224,0,0,0-3.047-2.948,3.451,3.451,0,0,0,.181-.383,3.482,3.482,0,1,0-6.606-2.155,14.192,14.192,0,0,0-4.237.071,3.524,3.524,0,0,0-.142-.4,3.482,3.482,0,1,0-6.193,3.152,14.208,14.208,0,0,0-2.945,3.049,3.484,3.484,0,1,0-2.535,6.431,14.236,14.236,0,0,0,.072,4.241,3.485,3.485,0,1,0,2.751,6.342,14.219,14.219,0,0,0,3.047,2.948,3.482,3.482,0,1,0,6.425,2.538,14.192,14.192,0,0,0,4.237-.072,3.481,3.481,0,1,0,6.335-2.753,14.219,14.219,0,0,0,2.945-3.049,3.546,3.546,0,0,0,.383.181,3.484,3.484,0,1,0,2.152-6.612,14.236,14.236,0,0,0-.072-4.241,3.466,3.466,0,0,0,2.205-4.727,3.48,3.48,0,0,0-4.58-1.809m-9.151,14.831a6.471,6.471,0,1,1,3.355-8.513,6.464,6.464,0,0,1-3.355,8.513" transform="translate(-1322.624 -938.761)" fill="#3d3d3d"/>
          <path id="Trazado_877038" data-name="Trazado 877038" d="M1238.13,109.128a48.687,48.687,0,1,1-48.687-48.674,48.68,48.68,0,0,1,48.687,48.674" transform="translate(-973.899 -51.611)" fill="#f4eae2"/>
          <path id="Trazado_877039" data-name="Trazado 877039" d="M1187.564,156.245a49,49,0,1,1,49.009-49,49.058,49.058,0,0,1-49.009,49m0-97.349a48.352,48.352,0,1,0,48.365,48.352A48.413,48.413,0,0,0,1187.564,58.9" transform="translate(-972.02 -49.732)" fill="#3d3d3d"/>
          <path id="Trazado_877040" data-name="Trazado 877040" d="M1252.119,209.727a37.944,37.944,0,1,1,26.834-11.112,37.705,37.705,0,0,1-26.834,11.112" transform="translate(-1036.575 -114.271)" fill="#ffd947"/>
          <path id="Trazado_877041" data-name="Trazado 877041" d="M1322.949,268.406a25.81,25.81,0,1,1,18.253-7.558,25.647,25.647,0,0,1-18.253,7.558" transform="translate(-1107.405 -185.082)" fill="#f4eae2"/>
          <path id="Trazado_877042" data-name="Trazado 877042" d="M1390.812,324.627a14.185,14.185,0,1,1,10.031-4.154,14.1,14.1,0,0,1-10.031,4.154" transform="translate(-1175.268 -252.927)" fill="#ffd947"/>
          <path id="Trazado_877043" data-name="Trazado 877043" d="M1488.482,325.482l-14.866,7.943,13.523-10.06Z" transform="translate(-1258.072 -276.067)" fill="#3d3d3d"/>
          <path id="Trazado_877044" data-name="Trazado 877044" d="M1844.33,17.79l-12.871,8.162-.173-9.033A11.657,11.657,0,0,1,1836.7,6.852l7.332-4.65Z" transform="translate(-1563.425 -1.88)" fill="#f4eae2"/>
          <path id="Trazado_877045" data-name="Trazado 877045" d="M1829.581,24.394a.322.322,0,0,1-.322-.316l-.173-9.033A12.05,12.05,0,0,1,1834.649,4.7l7.332-4.65a.322.322,0,0,1,.494.266l.3,15.588a.323.323,0,0,1-.149.278l-12.871,8.162a.324.324,0,0,1-.173.05M1841.843.9l-6.849,4.343a11.4,11.4,0,0,0-5.263,9.79l.162,8.461,12.235-7.758Z" transform="translate(-1561.547 0)" fill="#3d3d3d"/>
          <path id="Trazado_877046" data-name="Trazado 877046" d="M1845.353,108.775l-12.871,8.162,8.1,4.006a11.663,11.663,0,0,0,11.417-.6l7.332-4.65Z" transform="translate(-1564.448 -92.865)" fill="#f4eae2"/>
          <path id="Trazado_877047" data-name="Trazado 877047" d="M1843.864,120.585a11.966,11.966,0,0,1-5.3-1.232l-8.1-4.006a.322.322,0,0,1-.03-.561l12.871-8.162a.322.322,0,0,1,.315-.017l13.978,6.914a.322.322,0,0,1,.03.561l-7.332,4.65a12.014,12.014,0,0,1-6.428,1.853m-12.605-5.562,7.587,3.752a11.407,11.407,0,0,0,11.1-.588l6.849-4.343-13.3-6.58Z" transform="translate(-1562.569 -90.986)" fill="#3d3d3d"/>
          <path id="Trazado_877048" data-name="Trazado 877048" d="M1661.264,115.087l-39.221,24.871-2.222-3.5,39.222-24.872a1.119,1.119,0,0,1,1.544.346l1.022,1.611a1.119,1.119,0,0,1-.346,1.545" transform="translate(-1382.892 -95.114)" fill="#f4eae2"/>
          <path id="Trazado_877049" data-name="Trazado 877049" d="M1620.164,138.4a.321.321,0,0,1-.272-.149l-2.222-3.5a.322.322,0,0,1,.1-.444l39.222-24.871a1.443,1.443,0,0,1,1.989.445l1.022,1.611a1.441,1.441,0,0,1-.445,1.989l-39.221,24.871a.322.322,0,0,1-.172.05m-1.777-3.724,1.877,2.958,38.95-24.7a.8.8,0,0,0,.246-1.1l-1.022-1.611a.8.8,0,0,0-1.1-.246Z" transform="translate(-1381.013 -93.239)" fill="#3d3d3d"/>
          <path id="Trazado_877050" data-name="Trazado 877050" d="M1579.993,238.926l-17.02,10.793a1.847,1.847,0,0,1-2.548-.57l-1.687-2.658a1.847,1.847,0,0,1,.57-2.549l17.02-10.793Z" transform="translate(-1330.498 -199.047)" fill="#f4eae2"/>
          <path id="Trazado_877051" data-name="Trazado 877051" d="M1560.105,287.676a2.168,2.168,0,0,1-1.834-1.006l-1.687-2.658a2.169,2.169,0,0,1,.669-2.993l6.421-4.072a.322.322,0,1,1,.345.544l-6.421,4.072a1.525,1.525,0,0,0-.471,2.1l1.687,2.658a1.526,1.526,0,0,0,2.1.471l6.462-4.1a.322.322,0,0,1,.345.544l-6.462,4.1a2.157,2.157,0,0,1-1.158.337" transform="translate(-1328.616 -236.396)" fill="#3d3d3d"/>
          <path id="Trazado_877052" data-name="Trazado 877052" d="M1686.068,242.8a.321.321,0,0,1-.266-.14l-2.341-3.426a.322.322,0,0,1,.532-.363l2.341,3.426a.322.322,0,0,1-.266.5" transform="translate(-1437.176 -203.808)" fill="#3d3d3d"/>
          <path id="Trazado_877053" data-name="Trazado 877053" d="M229.595,786.44l-4.059,137.911a7.291,7.291,0,0,1-1.784,4.312l-5.869,6.718a1.8,1.8,0,0,0,1.354,2.98H257.9a5.29,5.29,0,0,0,5.288-5.451l-3.255-106.892,34.02,108.633A5.29,5.29,0,0,0,299,938.361h40.4a1.8,1.8,0,0,0,.991-3.3l-10.949-7.234a7.292,7.292,0,0,1-2.818-3.551l-47.952-138.3Z" transform="translate(-185.631 -671.012)" fill="#3d3d3d"/>
          <path id="Trazado_877054" data-name="Trazado 877054" d="M506.124,1018.841h0a.322.322,0,0,1-.321-.323l.026-6.741a.322.322,0,0,1,.322-.321h0a.322.322,0,0,1,.321.323l-.026,6.741a.322.322,0,0,1-.322.321" transform="translate(-431.819 -863.512)" fill="#3d3d3d"/>
          <path id="Trazado_877055" data-name="Trazado 877055" d="M321.407,1759.259h-.012c-11.286-.406-22.714-1.077-33.967-1.994a.322.322,0,1,1,.052-.642c11.243.916,22.662,1.586,33.938,1.992a.322.322,0,0,1-.011.644" transform="translate(-245.133 -1499.684)" fill="#f4eae2"/>
          <path id="Trazado_877056" data-name="Trazado 877056" d="M740.1,1751.037a.322.322,0,0,1,0-.644,224.429,224.429,0,0,0,31.726-2.719.322.322,0,0,1,.1.636,225.161,225.161,0,0,1-31.817,2.726Z" transform="translate(-631.572 -1492.042)" fill="#f4eae2"/>
          <path id="Trazado_877057" data-name="Trazado 877057" d="M414.615,178.03c1.1-1.649,2-3.687,1.374-5.565a3.97,3.97,0,0,0-5.092-2.3,22.594,22.594,0,0,0,1.96-4.47c-5.276-.152-10.7.78-15.214,3.519s-7.985,7.463-8.4,12.724a9.306,9.306,0,0,0,1.515,6.266,10.127,10.127,0,0,0,5.827,3.464,12.451,12.451,0,0,0,8.778-.7,8.093,8.093,0,0,0,3.885-4.535,6.535,6.535,0,0,0,.308-1.517c.029-.372-.159-1.058-.016-1.385.17-.389.9-.777,1.215-1.06q.683-.606,1.316-1.264a22.835,22.835,0,0,0,2.549-3.174" transform="translate(-332.272 -141.442)" fill="#3d3d3d"/>
          <path id="Trazado_877058" data-name="Trazado 877058" d="M527.784,224.482a.322.322,0,0,1-.229-.548,9.416,9.416,0,0,0,2.339-3.963.322.322,0,1,1,.618.182,10.063,10.063,0,0,1-2.5,4.235.322.322,0,0,1-.229.1" transform="translate(-450.311 -187.599)" fill="#3d3d3d"/>
          <path id="Trazado_877059" data-name="Trazado 877059" d="M417.918,347.687l-2.951-.321.778-10.076s-2.452-12.28-11.9-3.11l-1.73,13.68-2.777.349s1.126,6.381,9.053,6.363c6.733-.015,9.642-2.287,9.524-6.886" transform="translate(-340.93 -282.397)" fill="#f4eae2"/>
          <path id="Trazado_877060" data-name="Trazado 877060" d="M405.157,346.508a.322.322,0,0,1-.04-.641l1.4-.177,1.7-13.432a.321.321,0,0,1,.1-.19c2.958-2.872,5.574-3.981,7.777-3.3,3.528,1.1,4.615,6.35,4.659,6.573a.328.328,0,0,1,.005.088L420,345.2l1.429.156a.322.322,0,0,1-.07.64l-1.739-.189a.322.322,0,0,1-.286-.345l.775-10.029c-.108-.489-1.2-5.109-4.212-6.044-1.942-.6-4.314.428-7.055,3.065l-1.716,13.568a.322.322,0,0,1-.279.279l-1.651.208-.041,0" transform="translate(-345.621 -280.515)" fill="#3d3d3d"/>
          <path id="Trazado_877061" data-name="Trazado 877061" d="M424.448,267.831a10.782,10.782,0,0,0,4.931,2.5,7.317,7.317,0,0,0,5.366-.966c2.6-1.724,3.541-5.223,3.082-8.307s-2.062-5.864-3.657-8.544c0,0-6.084,4.664-11.673,5.417a8.7,8.7,0,0,0-.382,5.318s-1.241-1.127-2.381-.383a3.224,3.224,0,0,0-1.135,3.885,3.618,3.618,0,0,0,3.6,2.028,3.244,3.244,0,0,0,2.251-.945" transform="translate(-357.157 -215.577)" fill="#f4eae2"/>
          <path id="Trazado_877062" data-name="Trazado 877062" d="M428.972,268.914a8.377,8.377,0,0,1-1.558-.147,10.989,10.989,0,0,1-4.856-2.383,3.706,3.706,0,0,1-2.235.833A3.938,3.938,0,0,1,416.4,265a3.524,3.524,0,0,1,1.253-4.284,2.042,2.042,0,0,1,2.095-.036,9.067,9.067,0,0,1,.545-4.747.322.322,0,0,1,.257-.2c5.438-.732,11.46-5.307,11.52-5.353a.322.322,0,0,1,.472.091c1.432,2.4,3.214,5.4,3.7,8.661.534,3.585-.731,6.97-3.223,8.623a7.325,7.325,0,0,1-4.046,1.161m-6.428-3.284a.321.321,0,0,1,.209.078,10.468,10.468,0,0,0,4.781,2.427,6.981,6.981,0,0,0,5.129-.918c2.6-1.724,3.349-5.256,2.942-7.992-.447-3-2.065-5.818-3.433-8.12-1.274.931-6.42,4.5-11.346,5.237a8.31,8.31,0,0,0-.3,4.952.322.322,0,0,1-.53.313c-.043-.039-1.074-.949-1.989-.352a2.9,2.9,0,0,0-1.016,3.485,3.275,3.275,0,0,0,3.272,1.838,2.932,2.932,0,0,0,2.049-.846.321.321,0,0,1,.234-.1" transform="translate(-355.253 -213.699)" fill="#3d3d3d"/>
          <path id="Trazado_877063" data-name="Trazado 877063" d="M438.468,339.693a.319.319,0,0,1-.073-.008,7.13,7.13,0,0,1-2.1-.853.322.322,0,0,1,.334-.551,6.482,6.482,0,0,0,1.908.777.322.322,0,0,1-.072.636" transform="translate(-372.349 -288.761)" fill="#3d3d3d"/>
          <path id="Trazado_877064" data-name="Trazado 877064" d="M214.933,476.713A60.061,60.061,0,0,0,261.8,460.5c-5.076-2.906-8.193-8.11-9.851-15.027,0,0-8.664,8.441-16.94,8.445-7.182,0-22.711-7.614-38.793-8.693a8.428,8.428,0,0,1-1.447,2.829,8.665,8.665,0,0,1-5.375,2.8,13.756,13.756,0,0,1-5.8-.32,10.46,10.46,0,0,1-4.564-2.56,7.383,7.383,0,0,1-1.391-1.923c-11.623.925-18.941,2.333-25.081,9.829-7.913,9.66-14.507,27.833-12.586,39.307s7.2,15.024,13.927,17.234l-.294,6.2a9.6,9.6,0,0,0,12.925,9.458l53.751-19.913a5.154,5.154,0,0,0,3.092-6.483Z" transform="translate(-119.213 -380.106)" fill="#7d6eb2"/>
          <path id="Trazado_877065" data-name="Trazado 877065" d="M643.234,630.249a.323.323,0,0,1-.305-.22l-1.446-4.329a.322.322,0,0,1,.611-.2l1.446,4.329a.322.322,0,0,1-.305.424" transform="translate(-547.64 -533.818)" fill="#3d3d3d"/>
          <path id="Trazado_877066" data-name="Trazado 877066" d="M904.011,329.667c7.129-6.511,13.682-13.8,21.89-18.887a5.454,5.454,0,0,1,2.337-.96,2.006,2.006,0,0,1,2.082,1.134,2.8,2.8,0,0,1-.646,2.4,22.534,22.534,0,0,1-6,6.021s3.759.576,3.566,4.114c0,0,2.218.395,1.213,4.672a4.409,4.409,0,0,1-1.739,5.222c-2.155,1.347-3.573.812-3.573.812s-7.207,9.019-11.9,12.11-11.061-13.133-7.223-16.638" transform="translate(-770.776 -264.496)" fill="#f4eae2"/>
          <path id="Trazado_877067" data-name="Trazado 877067" d="M918.807,342.725a.322.322,0,0,1-.214-.563,99.132,99.132,0,0,0,9.292-10.047.322.322,0,0,1,.365-.1c.051.018,1.317.449,3.289-.784a4.054,4.054,0,0,0,1.608-4.836.323.323,0,0,1-.012-.186c.488-2.076.177-3.139-.169-3.665a1.378,1.378,0,0,0-.787-.616.322.322,0,0,1-.265-.335c.175-3.209-3.151-3.757-3.293-3.779a.322.322,0,0,1-.126-.588,22.17,22.17,0,0,0,5.913-5.931,2.584,2.584,0,0,0,.609-2.11,1.7,1.7,0,0,0-1.752-.923,5.143,5.143,0,0,0-2.194.913c-6.081,3.767-11.769,9.229-17.27,14.51-1.579,1.516-3.071,2.948-4.57,4.34a.322.322,0,0,1-.438-.472c1.495-1.388,2.985-2.818,4.562-4.332,5.525-5.3,11.239-10.79,17.377-14.593a5.751,5.751,0,0,1,2.479-1.007,2.325,2.325,0,0,1,2.412,1.347,3.123,3.123,0,0,1-.682,2.689,23.345,23.345,0,0,1-5.507,5.711,4.168,4.168,0,0,1,3.131,4.016,2.142,2.142,0,0,1,.94.808c.6.9.689,2.276.279,4.078a4.711,4.711,0,0,1-1.9,5.51,5,5,0,0,1-3.624.9,98.059,98.059,0,0,1-9.236,9.963.32.32,0,0,1-.214.081" transform="translate(-775.777 -262.618)" fill="#3d3d3d"/>
          <path id="Trazado_877068" data-name="Trazado 877068" d="M1016.485,413.334a2.452,2.452,0,0,1-1.479-.464,2.055,2.055,0,0,1-.783-1.562,1.653,1.653,0,0,1,.556-1.33.322.322,0,0,1,.415.492,1.021,1.021,0,0,0-.328.819,1.4,1.4,0,0,0,.526,1.065,2.224,2.224,0,0,0,2.271.039,5.916,5.916,0,0,0,1.888-1.776,11.846,11.846,0,0,0,2.017-3.562,6.343,6.343,0,0,0,.281-1.48.322.322,0,1,1,.643.042,6.986,6.986,0,0,1-.31,1.63,12.442,12.442,0,0,1-2.121,3.762,6.631,6.631,0,0,1-2.1,1.955,3.235,3.235,0,0,1-1.472.368" transform="translate(-865.874 -345.997)" fill="#3d3d3d"/>
          <path id="Trazado_877069" data-name="Trazado 877069" d="M974.392,392.5a1.85,1.85,0,0,1-1.71-.921.322.322,0,0,1,.573-.293,1.463,1.463,0,0,0,1.823.439,5.188,5.188,0,0,0,1.6-1.246c.087-.087.174-.175.262-.261a3.912,3.912,0,0,1,2.372-1.3,4.347,4.347,0,0,1,1.576.29,3.392,3.392,0,0,0,1.444.248,1.581,1.581,0,0,0,1.11-.766,2.332,2.332,0,0,0,.268-1.9,4.378,4.378,0,0,0-2.623-2.43,8.571,8.571,0,0,0-4.616-.521.322.322,0,0,1-.1-.635,9.216,9.216,0,0,1,4.963.56,5,5,0,0,1,2.994,2.833,2.991,2.991,0,0,1-.338,2.438,2.213,2.213,0,0,1-1.567,1.06,3.927,3.927,0,0,1-1.725-.272,3.854,3.854,0,0,0-1.342-.261,3.351,3.351,0,0,0-1.96,1.122c-.086.084-.171.17-.257.256a5.736,5.736,0,0,1-1.814,1.387,2.472,2.472,0,0,1-.932.18" transform="translate(-830.38 -327.046)" fill="#3d3d3d"/>
          <path id="Trazado_877070" data-name="Trazado 877070" d="M1024.914,443.888a2.456,2.456,0,0,1-.971-.191,1.918,1.918,0,0,1-1.184-1.625.322.322,0,1,1,.643-.024,1.282,1.282,0,0,0,.8,1.057,2.14,2.14,0,0,0,1.494.01,5.429,5.429,0,0,0,1.446-.8,8.9,8.9,0,0,0,2.9-3.171.322.322,0,0,1,.577.287,9.516,9.516,0,0,1-3.1,3.407,6.01,6.01,0,0,1-1.623.889,3.171,3.171,0,0,1-.975.16" transform="translate(-873.161 -374.76)" fill="#3d3d3d"/>
          <path id="Trazado_877071" data-name="Trazado 877071" d="M1036.608,470.122a.321.321,0,0,1-.228-.094,2.378,2.378,0,0,1-.5-.737.322.322,0,1,1,.591-.256,1.758,1.758,0,0,0,.366.538.322.322,0,0,1-.228.549" transform="translate(-884.34 -400.264)" fill="#3d3d3d"/>
          <path id="Trazado_877072" data-name="Trazado 877072" d="M436.722,532.934h-27.09a.874.874,0,0,0-.838.625L398.5,568.236a.874.874,0,0,0,.838,1.123h27.09a.874.874,0,0,0,.838-.625l10.292-34.676a.874.874,0,0,0-.838-1.123" transform="translate(-340.183 -454.983)" fill="#3d3d3d"/>
          <path id="Trazado_877073" data-name="Trazado 877073" d="M385.858,644.363c1.164-1.122,1.875-2.341,1.131-3.535a2.544,2.544,0,0,0-3.671-.547,7.421,7.421,0,0,0,2.068-2.138,2.24,2.24,0,0,0-2.543-3.446,4.881,4.881,0,0,0-1.205.462,2,2,0,0,0,.159-1.958,3,3,0,0,0-3.017-1.357,8.79,8.79,0,0,0-3.244,1.3c-6.835,3.848-20.342,11.665-20.342,11.665-.355,1.944,6.762,17.6,9.454,20.217,1.742-.523,14.8-10.985,19.749-15.229a7.078,7.078,0,0,0,2.1-2.474,2.461,2.461,0,0,0-.643-2.956" transform="translate(-303.229 -539.405)" fill="#f4eae2"/>
          <path id="Trazado_877074" data-name="Trazado 877074" d="M479.367,660.671a.322.322,0,0,1-.169-.6c2.495-1.535,4.995-3.142,7.43-4.775a.322.322,0,1,1,.359.535c-2.443,1.638-4.95,3.249-7.452,4.789a.319.319,0,0,1-.168.048" transform="translate(-408.976 -559.403)" fill="#3d3d3d"/>
          <path id="Trazado_877075" data-name="Trazado 877075" d="M501.009,693.707a.322.322,0,0,1-.188-.584l6.451-4.613a.322.322,0,1,1,.374.524l-6.451,4.613a.32.32,0,0,1-.187.06" transform="translate(-427.452 -587.751)" fill="#3d3d3d"/>
          <path id="Trazado_877076" data-name="Trazado 877076" d="M521.69,722a.322.322,0,0,1-.181-.588c1.955-1.323,3.871-2.754,5.694-4.252a.322.322,0,0,1,.409.5c-1.839,1.511-3.771,2.954-5.742,4.288a.321.321,0,0,1-.18.055" transform="translate(-445.108 -612.203)" fill="#3d3d3d"/>
          <path id="Trazado_877077" data-name="Trazado 877077" d="M244.842,869.559a34.374,34.374,0,0,1-5.519-.444.322.322,0,1,1,.1-.635,34.348,34.348,0,0,0,25.717-6.2.322.322,0,0,1,.382.519,35.025,35.025,0,0,1-20.683,6.76" transform="translate(-204.087 -736.103)" fill="#3d3d3d"/>
          <path id="Trazado_877078" data-name="Trazado 877078" d="M249.142,730.68a.322.322,0,0,1-.161-.6l14.5-8.376a.322.322,0,1,1,.322.557l-14.5,8.376a.32.32,0,0,1-.161.043" transform="translate(-212.425 -616.104)" fill="#3d3d3d"/>
          <path id="Trazado_877079" data-name="Trazado 877079" d="M280.885,643.062a.311.311,0,0,1-.065-.007.322.322,0,0,1-.251-.38l3.9-19.034a.322.322,0,1,1,.631.129l-3.9,19.034a.322.322,0,0,1-.315.257" transform="translate(-239.525 -532.203)" fill="#3d3d3d"/>
          <path id="Trazado_877080" data-name="Trazado 877080" d="M2084.957,1432.356l4.971,50.363a5.972,5.972,0,0,1-5.946,6.555h-30.26a3.189,3.189,0,0,1-2.564-5.088l5.042-6.794-5.087-46.116Z" transform="translate(-1750.597 -1221.925)" fill="#f4eae2"/>
          <path id="Trazado_877081" data-name="Trazado 877081" d="M2082.119,1487.715h-30.26a3.511,3.511,0,0,1-2.823-5.6l4.966-6.693-5.073-45.99a.322.322,0,0,1,.084-.254.311.311,0,0,1,.246-.1l33.845,1.08a.322.322,0,0,1,.31.29l4.97,50.363a6.293,6.293,0,0,1-6.266,6.909m-32.509-57.987,5.046,45.747a.322.322,0,0,1-.062.227l-5.042,6.794a2.867,2.867,0,0,0,2.306,4.575h30.26a5.649,5.649,0,0,0,5.625-6.2l-4.943-50.082Z" transform="translate(-1748.734 -1220.044)" fill="#3d3d3d"/>
          <path id="Trazado_877082" data-name="Trazado 877082" d="M2112.718,1762.366a65.9,65.9,0,0,1-17.08-2.245.322.322,0,0,1,.167-.622,65.4,65.4,0,0,0,31.148.654.322.322,0,0,1,.141.628,65.793,65.793,0,0,1-14.377,1.585" transform="translate(-1788.908 -1502.131)" fill="#3d3d3d"/>
          <path id="Trazado_877083" data-name="Trazado 877083" d="M2271.837,1371.128l19.676,40.667a5.965,5.965,0,0,1-1.313,6.972l-14.593,13.542a21.04,21.04,0,0,1-14.311,5.615h-3.932a2.982,2.982,0,0,1-2.661-4.332l5.539-10.9s-13.676-32.08-22.847-38.807Z" transform="translate(-1910.134 -1170.575)" fill="#f4eae2"/>
          <path id="Trazado_877084" data-name="Trazado 877084" d="M2259.416,1436.368h-3.932a3.3,3.3,0,0,1-2.949-4.8l5.471-10.766c-.99-2.3-13.99-32.161-22.682-38.536a.322.322,0,0,1,.078-.562l34.443-12.757a.322.322,0,0,1,.4.162l19.676,40.667a6.256,6.256,0,0,1-1.384,7.348l-14.594,13.542a21.3,21.3,0,0,1-14.53,5.7m-23.245-54.261c9.115,7.378,21.937,37.289,22.487,38.58a.323.323,0,0,1-.009.272l-5.539,10.9a2.661,2.661,0,0,0,2.375,3.865h3.932a20.655,20.655,0,0,0,14.092-5.53l14.594-13.542a5.615,5.615,0,0,0,1.242-6.6l-19.549-40.4Z" transform="translate(-1908.255 -1168.697)" fill="#3d3d3d"/>
          <path id="Trazado_877085" data-name="Trazado 877085" d="M2400.626,1633.892a.322.322,0,0,1-.045-.641,40.638,40.638,0,0,0,26.043-15.028.322.322,0,1,1,.507.4,41.289,41.289,0,0,1-26.46,15.269.35.35,0,0,1-.046,0" transform="translate(-2049.216 -1381.423)" fill="#3d3d3d"/>
          <path id="Trazado_877086" data-name="Trazado 877086" d="M2013.678,686.4a178.93,178.93,0,0,0-12.043,38.168,182.516,182.516,0,0,0,1.473,75.978s40.194,7.059,73.842-12.516L2057.9,762.112V717.181a62.531,62.531,0,0,0-7.432-29.567l-3.54-6.6-33.25,5.383" transform="translate(-1706.034 -581.405)" fill="#7d6eb2"/>
          <path id="Trazado_877087" data-name="Trazado 877087" d="M2156.738,984.268a.321.321,0,0,1-.2-.071,47.479,47.479,0,0,1-17.561-31.4c-1.242-10.954,1.538-21.883,4.227-32.452a157.645,157.645,0,0,0,4.057-19.276.322.322,0,0,1,.639.079,158.164,158.164,0,0,1-4.073,19.356c-2.674,10.513-5.44,21.384-4.211,32.221a46.831,46.831,0,0,0,17.324,30.974.322.322,0,0,1-.2.573" transform="translate(-1825.85 -769.027)" fill="#3d3d3d"/>
          <path id="Trazado_877088" data-name="Trazado 877088" d="M2126.888,152.672c4.156-1.552,5.742-1.033,6.439-.336,1.088,1.088.222,2.823.333,7.914.077,3.5.128,5.235,1.064,6.3,1.5,1.711,4.225,2.818,8.645,2.013,9.493-1.728,1.618,7.991,10.14,10.474s15.966-8.854,13.485-15.765-9.062-3.887-10.249-6.587,2.481-5.885-.593-10.42c-2.495-3.68-9.871-3.725-10.734-7.5s-3.667-9.718-11.219-7.343a7.706,7.706,0,0,0-9.277-.7c-3.894,2.514-.863,6.425-8.738,7.289s-4.153,10.2-1.133,11.824,3.8.648,3.8.648l8.033,2.194" transform="translate(-1802.634 -110.507)" fill="#3d3d3d"/>
          <path id="Trazado_877089" data-name="Trazado 877089" d="M2189.527,288.2l7.553,15.294.771,1.561s-9.539,11.757-16.727,11.293-5.849-8.6-.493-11.126l3.839-.588-4.886-13.147Z" transform="translate(-1857.863 -246.047)" fill="#f4eae2"/>
          <path id="Trazado_877090" data-name="Trazado 877090" d="M2202.822,323.362a.323.323,0,0,1-.3-.212l-5.176-14.247a.322.322,0,1,1,.6-.22l5.177,14.247a.322.322,0,0,1-.3.432" transform="translate(-1875.924 -263.351)" fill="#3d3d3d"/>
          <path id="Trazado_877091" data-name="Trazado 877091" d="M2203.942,399.86a.322.322,0,0,1-.048-.64l3.685-.564a.322.322,0,1,1,.1.636l-3.685.564a.334.334,0,0,1-.049,0" transform="translate(-1881.3 -340.342)" fill="#3d3d3d"/>
          <path id="Trazado_877092" data-name="Trazado 877092" d="M2163.739,218.068a11.642,11.642,0,0,0,.295,5.946,7.047,7.047,0,0,0,3.946,4.3,6.94,6.94,0,0,0,5.091-.2,10.953,10.953,0,0,0,4.088-3.165,4.2,4.2,0,0,0,4.791-1.63,3.113,3.113,0,0,0,.3-3,2.107,2.107,0,0,0-2.639-1.055c-.541.256-.926.777-1.477,1.01a2.057,2.057,0,0,1-1.9-.266,4.153,4.153,0,0,1-1.269-1.522,8.793,8.793,0,0,1-.821-6.11c-.045.193-1.072.485-1.255.547a8.477,8.477,0,0,1-1.415.345,8.844,8.844,0,0,1-2.864-.027,8.64,8.64,0,0,1-1.41-.369,4.623,4.623,0,0,0-1.224-.478c-.811-.009-1.052,1.469-1.248,2.041a25.3,25.3,0,0,0-.994,3.629" transform="translate(-1847.042 -181.315)" fill="#f4eae2"/>
          <path id="Trazado_877093" data-name="Trazado 877093" d="M2168.3,227.146a6.511,6.511,0,0,1-2.325-.413,7.377,7.377,0,0,1-4.135-4.491,11.858,11.858,0,0,1-.308-6.111,25.438,25.438,0,0,1,1.006-3.675c.032-.095.066-.216.1-.351.212-.76.533-1.908,1.44-1.908h.012a2.292,2.292,0,0,1,.952.322,3.572,3.572,0,0,0,.376.175,8.358,8.358,0,0,0,1.357.355,8.473,8.473,0,0,0,2.76.026,8.142,8.142,0,0,0,1.361-.332l.128-.041a4.418,4.418,0,0,0,.951-.361.322.322,0,0,1,.593.233h0a8.49,8.49,0,0,0,.79,5.882,3.78,3.78,0,0,0,1.165,1.408,1.728,1.728,0,0,0,1.6.237,2.951,2.951,0,0,0,.689-.47,3.744,3.744,0,0,1,.775-.534,2.425,2.425,0,0,1,3.065,1.2,3.4,3.4,0,0,1-.323,3.313,4.506,4.506,0,0,1-4.956,1.828,11.061,11.061,0,0,1-4.07,3.089,7.837,7.837,0,0,1-3.005.616m-4.216-16.305c-.421,0-.682.934-.822,1.437-.042.149-.079.282-.115.386a24.91,24.91,0,0,0-.982,3.583,11.227,11.227,0,0,0,.282,5.781,6.727,6.727,0,0,0,3.758,4.1,6.622,6.622,0,0,0,4.852-.195,10.551,10.551,0,0,0,3.966-3.074.323.323,0,0,1,.355-.1,3.89,3.89,0,0,0,4.413-1.5,2.8,2.8,0,0,0,.287-2.679,1.786,1.786,0,0,0-2.213-.907,3.224,3.224,0,0,0-.641.449,3.48,3.48,0,0,1-.848.566,2.374,2.374,0,0,1-2.206-.3,4.386,4.386,0,0,1-1.373-1.636,9.161,9.161,0,0,1-.982-5.646c-.163.06-.359.125-.594.2l-.114.036a8.8,8.8,0,0,1-1.469.358,9.12,9.12,0,0,1-2.969-.028,8.974,8.974,0,0,1-1.462-.382,3.935,3.935,0,0,1-.453-.208,1.914,1.914,0,0,0-.667-.251Zm-2.235,5.348h0Zm10.1-5.763h0" transform="translate(-1845.156 -179.436)" fill="#3d3d3d"/>
          <path id="Trazado_877094" data-name="Trazado 877094" d="M2263.182,276.427a2.491,2.491,0,0,0-2.322,1.395Z" transform="translate(-1930.168 -235.992)" fill="#f4eae2"/>
          <path id="Trazado_877095" data-name="Trazado 877095" d="M2258.98,276.265a.322.322,0,0,1-.291-.459,2.815,2.815,0,0,1,2.629-1.579.322.322,0,1,1-.032.643,2.162,2.162,0,0,0-2.014,1.21.322.322,0,0,1-.292.185" transform="translate(-1928.288 -234.114)" fill="#3d3d3d"/>
          <path id="Trazado_877096" data-name="Trazado 877096" d="M2099.794,449.255c3.525-1.467,5.406-4.715,7.423-9.018a63.562,63.562,0,0,0,5.848-27.11c-.015-4.622-.589-9.484-3.291-13.234-2.924-4.058-7.923-6.167-12.869-6.912a10.63,10.63,0,0,0-5.945.433c-2.387,1.076-3.841,3.471-5.639,5.374a17.058,17.058,0,0,1-7.721,4.675c-1.871.528-4.13.659-5.354-1.135a3.958,3.958,0,0,1-.588-2.761c.269-2.022,1.591-3.581,2.874-5.074a9.062,9.062,0,0,0-6.941,2.149,22.036,22.036,0,0,0-4.694,5.781,102.2,102.2,0,0,0-9.549,20.734,18.812,18.812,0,0,0-1.4,7.9,12.8,12.8,0,0,0,.629,4.414,9.4,9.4,0,0,0,1.43,2.3,14.524,14.524,0,0,0,5.2,3.923c3.71,1.677,14.284,3.037,20.1,4.441,6.736,1.627,8.8,3.719,15.359,3.884a11.843,11.843,0,0,0,5.131-.766" transform="translate(-1751.765 -335.315)" fill="#f4eae2"/>
          <path id="Trazado_877097" data-name="Trazado 877097" d="M2097.916,447.688a.322.322,0,0,1-.149-.607c3.662-1.909,5.814-5.743,7.28-8.869a63.418,63.418,0,0,0,5.817-26.973c-.012-4.005-.391-9.107-3.23-13.047-2.541-3.527-7.036-5.935-12.656-6.781a10.427,10.427,0,0,0-5.764.409,12.3,12.3,0,0,0-4.115,3.67c-.457.545-.929,1.109-1.422,1.631a17.291,17.291,0,0,1-7.867,4.764c-2.658.751-4.632.314-5.707-1.264a4.277,4.277,0,0,1-.642-2.985,9.512,9.512,0,0,1,2.555-4.781,8.957,8.957,0,0,0-6.1,2.149,21.833,21.833,0,0,0-4.621,5.7,101.045,101.045,0,0,0-9.519,20.669,18.588,18.588,0,0,0-1.385,7.766c.278,2.682.763,5.717,3.016,7.8.641.592,1.316,1.186,2,1.765a.322.322,0,1,1-.414.493c-.7-.585-1.379-1.186-2.027-1.785-2.419-2.236-2.93-5.409-3.22-8.208a19.121,19.121,0,0,1,1.416-8.041,101.712,101.712,0,0,1,9.58-20.8,22.4,22.4,0,0,1,4.767-5.863,9.335,9.335,0,0,1,7.194-2.216.322.322,0,0,1,.193.528c-1.248,1.452-2.539,2.953-2.8,4.906a3.638,3.638,0,0,0,.536,2.538c.917,1.346,2.6,1.685,5,1.007a16.646,16.646,0,0,0,7.574-4.586c.48-.508.946-1.064,1.4-1.6a12.964,12.964,0,0,1,4.344-3.844,11,11,0,0,1,6.125-.458c5.793.872,10.439,3.373,13.082,7.042,2.946,4.088,3.338,9.32,3.351,13.422a64.057,64.057,0,0,1-5.878,27.248c-1.509,3.218-3.732,7.168-7.565,9.166a.319.319,0,0,1-.149.036" transform="translate(-1749.887 -333.427)" fill="#3d3d3d"/>
          <path id="Trazado_877098" data-name="Trazado 877098" d="M2322.529,535.189a.322.322,0,0,1-.307-.42l3.89-12.211a.322.322,0,0,1,.614.2l-3.89,12.211a.322.322,0,0,1-.306.224" transform="translate(-1982.541 -445.932)" fill="#3d3d3d"/>
          <path id="Trazado_877099" data-name="Trazado 877099" d="M2134.6,516.1a.334.334,0,0,1-.046,0,.322.322,0,0,1-.273-.364,50.983,50.983,0,0,1,2.511-10.058.322.322,0,1,1,.605.219,50.36,50.36,0,0,0-2.479,9.931.322.322,0,0,1-.319.276" transform="translate(-1822.1 -431.53)" fill="#3d3d3d"/>
          <path id="Trazado_877100" data-name="Trazado 877100" d="M2135.029,602.345a2.9,2.9,0,0,1-2.052-.513c-.195-.121-11.6-7.814-12.451-8.144a.252.252,0,0,0-.175-.028c-.57.169.119,3.381-4.533-.2-.795-.612-.012-2.264.986-2.376a1.9,1.9,0,0,1-.264-3.66,1.479,1.479,0,0,1-1.487-1.531,2.918,2.918,0,0,1,1.127-2.059c-2.249.944-5.491,3.876-7.113,1.691-.349-2.143,1.193-3.189,2.914-4.513a12.489,12.489,0,0,1,6.052-2.192,29.6,29.6,0,0,1,14.25,1.677,31.972,31.972,0,0,1,7.648,4.255,2.9,2.9,0,0,1,.962.837,1.541,1.541,0,0,1,.139.916,49.339,49.339,0,0,1-1.707,8.505c-.187.6-1.761,5.688-3.375,6.9a2.529,2.529,0,0,1-.919.428" transform="translate(-1800.535 -493.952)" fill="#f4eae2"/>
          <path id="Trazado_877101" data-name="Trazado 877101" d="M2132.748,600.82a3.533,3.533,0,0,1-1.819-.6c-.032-.02-.376-.25-.93-.622-6.931-4.647-10.768-7.159-11.414-7.472-.026.065-.056.154-.079.226a1.567,1.567,0,0,1-.934,1.173c-.793.246-2.008-.292-3.828-1.691a1.328,1.328,0,0,1-.383-1.469,1.594,1.594,0,0,0-.287-2.869,2.285,2.285,0,0,1,.744-1.811,1.73,1.73,0,0,1-.3-.216,1.99,1.99,0,0,1-.663-1.461,2.479,2.479,0,0,1,.273-1.093c-.169.1-.341.2-.516.3-2.013,1.165-4.3,2.485-5.679.622a.32.32,0,0,1-.059-.14c-.362-2.219,1.156-3.381,2.763-4.611l.271-.208a12.672,12.672,0,0,1,6.206-2.256,29.853,29.853,0,0,1,14.407,1.694,32.134,32.134,0,0,1,7.718,4.292l.145.1a2.61,2.61,0,0,1,.916.848,1.841,1.841,0,0,1,.176,1.088,50.169,50.169,0,0,1-1.721,8.581c-.541,1.743-1.96,5.914-3.489,7.064a2.858,2.858,0,0,1-1.05.486,2.375,2.375,0,0,1-.466.046m-14.225-9.375a.588.588,0,0,1,.238.055c.52.2,4.095,2.533,11.6,7.563.537.36.872.585.912.61a2.562,2.562,0,0,0,1.818.47,2.232,2.232,0,0,0,.79-.369c1.126-.848,2.423-4.036,3.26-6.737a49.4,49.4,0,0,0,1.7-8.446,1.234,1.234,0,0,0-.1-.732,2.235,2.235,0,0,0-.716-.623l-.147-.1a31.565,31.565,0,0,0-7.577-4.217,29.212,29.212,0,0,0-14.095-1.659,12.061,12.061,0,0,0-5.9,2.128l-.273.209c-1.552,1.188-2.783,2.131-2.531,3.918.972,1.214,2.6.41,4.792-.857a17.642,17.642,0,0,1,1.891-1,.322.322,0,0,1,.337.538,2.7,2.7,0,0,0-1.018,1.82,1.346,1.346,0,0,0,.445.974.859.859,0,0,0,.678.236.322.322,0,0,1,.148.623,1.58,1.58,0,0,0,.219,3.041.322.322,0,0,1-.027.636,1.37,1.37,0,0,0-.98,1.016.744.744,0,0,0,.155.785c1.986,1.527,2.86,1.706,3.244,1.586.276-.086.387-.368.513-.757.1-.3.2-.6.488-.688a.5.5,0,0,1,.141-.02m.073.336-.106.3a.122.122,0,0,0,.044,0Z" transform="translate(-1798.656 -492.066)" fill="#3d3d3d"/>
          <path id="Trazado_877102" data-name="Trazado 877102" d="M2172.944,675.135a.328.328,0,0,1-.115-.021l-2.058-.783a.322.322,0,0,1,.229-.6l2.058.783a.322.322,0,0,1-.115.623" transform="translate(-1853.079 -575.166)" fill="#3d3d3d"/>
          <path id="Trazado_877103" data-name="Trazado 877103" d="M2325.349,624.128a.319.319,0,0,1-.182-.056c-.6-.413-1.157-.832-1.744-1.276-.924-.7-1.88-1.42-3.2-2.265a.322.322,0,0,1,.346-.543c1.344.858,2.354,1.621,3.245,2.294.581.439,1.13.854,1.72,1.259a.322.322,0,0,1-.182.587" transform="translate(-1980.718 -529.26)" fill="#3d3d3d"/>
          <path id="Trazado_877104" data-name="Trazado 877104" d="M2279.625,742.449a.319.319,0,0,1-.2-.069c-1.141-.9-1.918-1.618-2.67-2.315s-1.509-1.4-2.629-2.281a.322.322,0,0,1,.4-.506c1.141.9,1.918,1.618,2.67,2.315s1.509,1.4,2.63,2.281a.322.322,0,0,1-.2.575" transform="translate(-1941.389 -629.379)" fill="#3d3d3d"/>
          <path id="Trazado_877105" data-name="Trazado 877105" d="M1971.759,608.667a5.243,5.243,0,0,1-1.521,3.717c-.647.542-1.88,1.165-5.081.593-1.734-.31-4.768-1.1-10.835-5.3a34.012,34.012,0,0,1-6.977-5.917,14.789,14.789,0,0,1-3.153-7.435.825.825,0,0,1,.171-.661c.57-.538,2.288.752,3.039.91.365.076,6.4,3.027,12.35,3.412,2.726.177,3.172-.313,4.914.291a10.541,10.541,0,0,1,5.145,4.285,9.442,9.442,0,0,1,1.948,6.1" transform="translate(-1659.813 -506.719)" fill="#f4eae2"/>
          <path id="Trazado_877106" data-name="Trazado 877106" d="M1966.634,612.468c-4.81,0-12.353-4.714-16.372-7.8-3.125-2.4-4.851-4.473-5.956-7.155a15.182,15.182,0,0,1-1.11-4.948.322.322,0,0,1,.3-.339.325.325,0,0,1,.339.3,14.537,14.537,0,0,0,1.063,4.738c1.058,2.569,2.725,4.565,5.753,6.89,4.55,3.493,11.654,7.678,15.959,7.679a3.762,3.762,0,0,0,2.566-.812,5.335,5.335,0,0,0,1.412-3.484,9.941,9.941,0,0,0-1.892-5.914,12.511,12.511,0,0,0-5.937-4.563.322.322,0,0,1,.228-.6,13.152,13.152,0,0,1,6.241,4.8,10.568,10.568,0,0,1,2,6.293,5.836,5.836,0,0,1-1.629,3.951,4.351,4.351,0,0,1-2.972.96" transform="translate(-1658.967 -505.602)" fill="#3d3d3d"/>
          <path id="Trazado_877107" data-name="Trazado 877107" d="M1909.735,545.98h14.932a1.037,1.037,0,0,1,.816.4l12.037,15.316a1.038,1.038,0,0,1-.816,1.679h-14.415a1.037,1.037,0,0,1-.8-.38l-12.554-15.316a1.037,1.037,0,0,1,.8-1.7" transform="translate(-1629.514 -466.12)" fill="#3d3d3d"/>
          <path id="Trazado_877108" data-name="Trazado 877108" d="M1949.6,558.044c.112-.082.434-.327.65-.211.186.1.221.349.233.561q.179,3.11.357,6.221a7.831,7.831,0,0,1,1.658-5.186c.3-.348.818-.675,1.167-.382a.919.919,0,0,1,.214.765c-.1,2.328-1.035,4.734-.216,6.915a15.887,15.887,0,0,1,.978-4.055,2.963,2.963,0,0,1,.926-1.412,1.161,1.161,0,0,1,1.547.1c.37.481.141,1.167-.062,1.738a13.106,13.106,0,0,0-.73,5.189,6.355,6.355,0,0,1,1.531-3.791,1.863,1.863,0,0,1,1.075-.531,1.039,1.039,0,0,1,1.021.525,1.849,1.849,0,0,1-.1,1.307,9.032,9.032,0,0,0,0,5.106c.363,1.241,1.918,2.912.273,3.882a2.944,2.944,0,0,1-1.91.266c-2.257-.324-4.859-2.542-4.859-2.542-2.339-1.946-3.617-3.008-4.523-5.053a10.552,10.552,0,0,1-.877-4.4c-.015-2.912,1.076-4.59,1.644-5.01" transform="translate(-1663.033 -476.214)" fill="#f4eae2"/>
          <path id="Trazado_877109" data-name="Trazado 877109" d="M43.233,94.577H2.608C1.168,94.577,0,96.092,0,97.961v24.026c0,1.869,1.168,3.384,2.608,3.384H52.154l-6.194-6.808-.118-20.6c0-1.869-1.168-3.384-2.608-3.384" transform="translate(0 -80.743)" fill="#ffd947"/>
          <path id="Trazado_877110" data-name="Trazado 877110" d="M113.372,155.835H96.053a.322.322,0,0,1-.322-.322V137.96a.322.322,0,1,1,.644,0v17.231h17a.322.322,0,1,1,0,.644" transform="translate(-81.729 -117.506)" fill="#3d3d3d"/>
          <path id="Trazado_877111" data-name="Trazado 877111" d="M111.069,164.8a.322.322,0,0,1-.215-.562L125.4,151.183a.322.322,0,0,1,.43.479L111.284,164.72a.321.321,0,0,1-.215.082" transform="translate(-94.548 -128.999)" fill="#3d3d3d"/>
          <path id="Trazado_877112" data-name="Trazado 877112" d="M200.321,152.4a.321.321,0,0,1-.313-.4l.434-1.75-1.54.018h0a.322.322,0,0,1,0-.644l1.957-.023a.34.34,0,0,1,.256.122.322.322,0,0,1,.06.277l-.534,2.154a.322.322,0,0,1-.312.244" transform="translate(-169.531 -127.722)" fill="#3d3d3d"/>
          <path id="Trazado_877113" data-name="Trazado 877113" d="M2529.186,168.854a1.527,1.527,0,0,0-.092.155,6.019,6.019,0,0,0-1.758-.373,1.4,1.4,0,0,0-.021-.178,1.477,1.477,0,1,0-2.9.541,1.451,1.451,0,0,0,.044.174,6.03,6.03,0,0,0-1.508.981,1.447,1.447,0,0,0-.141-.111,1.478,1.478,0,0,0-1.674,2.437,1.448,1.448,0,0,0,.155.092,6.034,6.034,0,0,0-.375,1.76,1.5,1.5,0,0,0-.178.021,1.477,1.477,0,1,0,.711,2.861,6.012,6.012,0,0,0,.979,1.508,1.5,1.5,0,0,0-.112.141,1.476,1.476,0,1,0,2.434,1.672,1.5,1.5,0,0,0,.092-.155,6.021,6.021,0,0,0,1.759.373,1.445,1.445,0,0,0,.021.178,1.477,1.477,0,0,0,2.9-.541,1.454,1.454,0,0,0-.044-.174,6.034,6.034,0,0,0,1.508-.981,1.478,1.478,0,1,0,1.661-2.417,6.042,6.042,0,0,0,.375-1.76,1.464,1.464,0,0,0,.178-.021,1.477,1.477,0,0,0-.537-2.905,1.449,1.449,0,0,0-.174.045,6.026,6.026,0,0,0-.979-1.508,1.548,1.548,0,0,0,.112-.141,1.477,1.477,0,1,0-2.434-1.672m.04,7.392a2.742,2.742,0,1,1-.705-3.815,2.744,2.744,0,0,1,.705,3.815" transform="translate(-2150.997 -142.786)" fill="#3d3d3d"/>
          <path id="Trazado_877114" data-name="Trazado 877114" d="M2577.894,5.465a2.536,2.536,0,0,0-.022.3,10.23,10.23,0,0,0-2.958.764,2.474,2.474,0,0,0-.167-.256,2.511,2.511,0,1,0-3.811,3.253,10.26,10.26,0,0,0-1.552,2.634,2.543,2.543,0,0,0-.3-.063,2.512,2.512,0,1,0-.4,5,10.275,10.275,0,0,0,.762,2.961,2.511,2.511,0,1,0,2.993,3.982,10.243,10.243,0,0,0,2.63,1.553,2.585,2.585,0,0,0-.063.3,2.509,2.509,0,1,0,4.969.7,2.638,2.638,0,0,0,.022-.3,10.227,10.227,0,0,0,2.958-.764,2.537,2.537,0,0,0,.167.256,2.511,2.511,0,1,0,4.01-3.022,2.447,2.447,0,0,0-.2-.231,10.252,10.252,0,0,0,1.552-2.634,2.512,2.512,0,1,0,.7-4.935,10.273,10.273,0,0,0-.762-2.961,2.51,2.51,0,1,0-2.762-4.181,2.492,2.492,0,0,0-.231.2,10.232,10.232,0,0,0-2.631-1.553,2.537,2.537,0,0,0,.063-.3,2.509,2.509,0,1,0-4.969-.7m5.656,11.218a4.66,4.66,0,1,1-3.962-5.271,4.663,4.663,0,0,1,3.962,5.271" transform="translate(-2190.866 -2.82)" fill="#3d3d3d"/>
          <path id="Trazado_877115" data-name="Trazado 877115" d="M2623.659,758.975a.322.322,0,0,1-.322-.322l-.014-32a.322.322,0,1,1,.644,0l.014,32a.322.322,0,0,1-.322.322" transform="translate(-2239.614 -620.09)" fill="#3d3d3d"/>
          <path id="Trazado_877116" data-name="Trazado 877116" d="M2310.752,1204.553h-73.04a.322.322,0,1,1,0-.644h72.718l-.087-106.191a.322.322,0,0,1,.322-.322h0a.322.322,0,0,1,.322.322l.087,106.513a.322.322,0,0,1-.322.322" transform="translate(-1910.131 -936.882)" fill="#3d3d3d"/>
          <path id="Trazado_877117" data-name="Trazado 877117" d="M942.463,876.8a7.292,7.292,0,1,1-7.292-7.3,7.3,7.3,0,0,1,7.292,7.3" transform="translate(-792.159 -742.315)" fill="#3d3d3d"/>
          <path id="Trazado_877118" data-name="Trazado 877118" d="M951.919,900.734h0a.483.483,0,0,1-.4-.216l-2.884-4.338a.483.483,0,0,1,.8-.535l2.486,3.74,4.545-6.695a.483.483,0,1,1,.8.543l-4.949,7.289a.484.484,0,0,1-.4.212" transform="translate(-809.809 -761.938)" fill="#f4eae2"/>
          <path id="Trazado_877119" data-name="Trazado 877119" d="M942.463,1145.659a7.292,7.292,0,1,1-7.292-7.3,7.3,7.3,0,0,1,7.292,7.3" transform="translate(-792.159 -971.851)" fill="#3d3d3d"/>
          <path id="Trazado_877120" data-name="Trazado 877120" d="M951.919,1169.6h0a.482.482,0,0,1-.4-.215l-2.884-4.338a.483.483,0,1,1,.8-.535l2.486,3.74,4.545-6.695a.483.483,0,0,1,.8.543l-4.949,7.289a.483.483,0,0,1-.4.212" transform="translate(-809.809 -991.474)" fill="#f4eae2"/>
          <path id="Trazado_877121" data-name="Trazado 877121" d="M942.463,1011.228a7.292,7.292,0,1,1-7.292-7.3,7.3,7.3,0,0,1,7.292,7.3" transform="translate(-792.159 -857.083)" fill="#3d3d3d"/>
          <path id="Trazado_877122" data-name="Trazado 877122" d="M951.919,1035.166h0a.483.483,0,0,1-.4-.216l-2.884-4.338a.483.483,0,1,1,.8-.535l2.486,3.74,4.545-6.695a.483.483,0,0,1,.8.543l-4.949,7.289a.483.483,0,0,1-.4.212" transform="translate(-809.809 -876.706)" fill="#f4eae2"/>
          <path id="Trazado_877123" data-name="Trazado 877123" d="M1103.51,902.939H1066.5a.322.322,0,0,1,0-.644h37.007a.322.322,0,1,1,0,.644" transform="translate(-910.233 -770.318)" fill="#3d3d3d"/>
          <path id="Trazado_877124" data-name="Trazado 877124" d="M1103.51,932.773H1066.5a.322.322,0,0,1,0-.644h37.007a.322.322,0,1,1,0,.644" transform="translate(-910.233 -795.788)" fill="#3d3d3d"/>
          <path id="Trazado_877125" data-name="Trazado 877125" d="M1103.51,1171.8H1066.5a.322.322,0,0,1,0-.644h37.007a.322.322,0,1,1,0,.644" transform="translate(-910.233 -999.854)" fill="#3d3d3d"/>
          <path id="Trazado_877126" data-name="Trazado 877126" d="M1103.51,1233.44a.322.322,0,0,1-.322-.322v-31.483H1066.5a.322.322,0,1,1,0-.644h37.007a.322.322,0,0,1,.322.322v31.8a.322.322,0,0,1-.322.322" transform="translate(-910.233 -1025.325)" fill="#3d3d3d"/>
          <path id="Trazado_877127" data-name="Trazado 877127" d="M1103.51,1037.37H1066.5a.322.322,0,0,1,0-.644h37.007a.322.322,0,1,1,0,.644" transform="translate(-910.233 -885.086)" fill="#3d3d3d"/>
          <path id="Trazado_877128" data-name="Trazado 877128" d="M1103.51,1067.2H1066.5a.322.322,0,0,1,0-.644h37.007a.322.322,0,1,1,0,.644" transform="translate(-910.233 -910.557)" fill="#3d3d3d"/>
          <path id="Trazado_877129" data-name="Trazado 877129" d="M804.334,710.612a.322.322,0,0,1-.322-.322V688.584l-28.569.074h0a.322.322,0,0,1,0-.644l28.892-.075h0a.322.322,0,0,1,.322.322V710.29a.322.322,0,0,1-.322.322" transform="translate(-661.744 -587.315)" fill="#3d3d3d"/>
          <path id="Trazado_877130" data-name="Trazado 877130" d="M1301.782,1519.376a3.359,3.359,0,1,1-3.359,3.359,3.359,3.359,0,0,1,3.359-3.359" transform="translate(-1108.505 -1297.139)" fill="#3d3d3d"/>
          <path id="Trazado_877131" data-name="Trazado 877131" d="M1301.782,1452.362a3.359,3.359,0,1,1-3.359,3.359,3.359,3.359,0,0,1,3.359-3.359" transform="translate(-1108.505 -1239.927)" fill="#f4eae2"/>
          <path id="Trazado_877132" data-name="Trazado 877132" d="M1299.9,1457.522a3.681,3.681,0,1,1,3.681-3.681,3.685,3.685,0,0,1-3.681,3.681m0-6.718a3.037,3.037,0,1,0,3.037,3.037,3.04,3.04,0,0,0-3.037-3.037" transform="translate(-1106.626 -1238.047)" fill="#3d3d3d"/>
          <path id="Trazado_877133" data-name="Trazado 877133" d="M1301.782,1385.348a3.359,3.359,0,1,1-3.359,3.359,3.359,3.359,0,0,1,3.359-3.359" transform="translate(-1108.505 -1182.715)" fill="#f4eae2"/>
          <path id="Trazado_877134" data-name="Trazado 877134" d="M1299.9,1390.508a3.681,3.681,0,1,1,3.681-3.681,3.685,3.685,0,0,1-3.681,3.681m0-6.718a3.037,3.037,0,1,0,3.037,3.037,3.041,3.041,0,0,0-3.037-3.037" transform="translate(-1106.626 -1180.835)" fill="#3d3d3d"/>
          <path id="Trazado_877135" data-name="Trazado 877135" d="M1022.934,25.687a3.027,3.027,0,1,1,3.027,3.027,3.027,3.027,0,0,1-3.027-3.027" transform="translate(-873.311 -19.346)" fill="#3d3d3d"/>
          <path id="Trazado_877136" data-name="Trazado 877136" d="M962.538,25.687a3.027,3.027,0,1,1,3.027,3.027,3.027,3.027,0,0,1-3.027-3.027" transform="translate(-821.749 -19.346)" fill="#3d3d3d"/>
          <path id="Trazado_877137" data-name="Trazado 877137" d="M902.141,25.687a3.027,3.027,0,1,1,3.027,3.027,3.027,3.027,0,0,1-3.027-3.027" transform="translate(-770.186 -19.346)" fill="#3d3d3d"/>
          <path id="Trazado_877138" data-name="Trazado 877138" d="M1065.17,95.358h-23.419a.322.322,0,0,1-.322-.322V84.345a.322.322,0,0,1,.644,0V94.714h23.1a.322.322,0,0,1,0,.644" transform="translate(-889.101 -71.733)" fill="#3d3d3d"/>
          <path id="Trazado_877139" data-name="Trazado 877139" d="M673.368,42.245H656.817a.322.322,0,0,1,0-.644h16.552a.322.322,0,1,1,0,.644" transform="translate(-560.47 -35.516)" fill="#3d3d3d"/>
          <path id="Trazado_877140" data-name="Trazado 877140" d="M802,42.245h-8.614a.322.322,0,0,1,0-.644H802a.322.322,0,0,1,0,.644" transform="translate(-677.066 -35.516)" fill="#3d3d3d"/>
          <path id="Trazado_877141" data-name="Trazado 877141" d="M666.007,1.746h-9.19a.322.322,0,0,1,0-.644h9.19a.322.322,0,0,1,0,.644" transform="translate(-560.47 -0.941)" fill="#3d3d3d"/>
          <path id="Trazado_877142" data-name="Trazado 877142" d="M759.335,1.746H743.412a.322.322,0,1,1,0-.644h15.923a.322.322,0,1,1,0,.644" transform="translate(-634.399 -0.941)" fill="#3d3d3d"/>
          <path id="Trazado_877143" data-name="Trazado 877143" d="M2651.256,660.168a.322.322,0,0,1-.322-.322V641.865a.322.322,0,1,1,.644,0v17.981a.322.322,0,0,1-.322.322" transform="translate(-2263.186 -547.706)" fill="#3d3d3d"/>
          <path id="Trazado_877144" data-name="Trazado 877144" d="M2635.207,578.7a3.077,3.077,0,1,1,3.072-3.077,3.074,3.074,0,0,1-3.072,3.077" transform="translate(-2247.137 -488.796)" fill="#f4eae2"/>
          <path id="Trazado_877145" data-name="Trazado 877145" d="M2633.329,577.139a3.4,3.4,0,1,1,3.393-3.4,3.4,3.4,0,0,1-3.393,3.4m0-6.154a2.755,2.755,0,1,0,2.75,2.755,2.755,2.755,0,0,0-2.75-2.755" transform="translate(-2245.259 -486.918)" fill="#3d3d3d"/>
          <path id="Trazado_877146" data-name="Trazado 877146" d="M2635.207,518.934a3.077,3.077,0,1,1,3.072-3.077,3.074,3.074,0,0,1-3.072,3.077" transform="translate(-2247.137 -437.776)" fill="#f4eae2"/>
          <path id="Trazado_877147" data-name="Trazado 877147" d="M2633.327,517.378a3.4,3.4,0,1,1,3.394-3.4,3.4,3.4,0,0,1-3.394,3.4m0-6.154a2.755,2.755,0,1,0,2.75,2.755,2.756,2.756,0,0,0-2.75-2.755" transform="translate(-2245.258 -435.898)" fill="#3d3d3d"/>
          <path id="Trazado_877148" data-name="Trazado 877148" d="M2635.207,460.97a3.077,3.077,0,1,1,3.072-3.077,3.074,3.074,0,0,1-3.072,3.077" transform="translate(-2247.137 -388.291)" fill="#3d3d3d"/>
          <path id="Trazado_877149" data-name="Trazado 877149" d="M2563.6,1098.04h-29.618a.322.322,0,1,1,0-.644H2563.6a.322.322,0,0,1,0,.644" transform="translate(-2163.066 -936.882)" fill="#3d3d3d"/>
          <path id="Trazado_877150" data-name="Trazado 877150" d="M2616.186,1060.839h-20.608a.322.322,0,1,1,0-.644h20.608a.322.322,0,1,1,0,.644" transform="translate(-2215.652 -905.122)" fill="#3d3d3d"/>
          <path id="Trazado_877151" data-name="Trazado 877151" d="M2651.256,243.066a.322.322,0,0,1-.322-.322V210.5a.322.322,0,1,1,.644,0v32.243a.322.322,0,0,1-.322.322" transform="translate(-2263.186 -179.436)" fill="#3d3d3d"/>
        </g>
      </g>
    </g>
  </g>
</svg>
