<svg xmlns="http://www.w3.org/2000/svg" xmlns:xlink="http://www.w3.org/1999/xlink" width="96.836" height="97.423" viewBox="0 0 96.836 97.423">
  <defs>
    <clipPath id="clip-path">
      <rect id="Rectángulo_402213" data-name="Rectángulo 402213" width="80" height="80" transform="translate(-2973.529 -177)" fill="#fff" stroke="#707070" stroke-width="1"/>
    </clipPath>
  </defs>
  <g id="Grupo_1101388" data-name="Grupo 1101388" transform="translate(2981.947 183.576)">
    <path id="_12068" data-name="12068" d="M72.033,71.913c-8.038-1.11-16.53-.839-23.844,2.675C38.045,79.46,31.382,90.507,31.127,101.757s5.606,22.305,14.66,28.988,21,9.051,32.068,7.045c11.165-2.023,21.645-8.583,27.469-18.322,3.735-6.245,5.48-13.956,3.417-20.934a28.6,28.6,0,0,0-6.787-11.156A50.145,50.145,0,0,0,72.033,71.913Z" transform="translate(-3003.648 -230.657)" fill="#26aab7"/>
    <g id="Enmascarar_grupo_1098770" data-name="Enmascarar grupo 1098770" clip-path="url(#clip-path)">
      <g id="cabeza" transform="translate(-2967.466 -177)">
        <path id="Trazado_876631" data-name="Trazado 876631" d="M6.686,9.3h6.644V19.933H6.686Zm0,0" fill="#a8a8a8"/>
        <path id="Trazado_876632" data-name="Trazado 876632" d="M66.486,14.618l-9.3,5.316V9.3Zm0,0" fill="#f95925"/>
        <path id="Trazado_876633" data-name="Trazado 876633" d="M18.646,14.618H57.184v5.316H18.646Zm0,0" fill="#fce013"/>
        <path id="Trazado_876634" data-name="Trazado 876634" d="M18.646,9.3H57.184v5.316H18.646Zm0,0" fill="#66bf93"/>
        <path id="Trazado_876635" data-name="Trazado 876635" d="M18.646,14.618v5.316H13.331V9.3h5.316Zm0,0" fill="#606060"/>
        <path id="Trazado_876636" data-name="Trazado 876636" d="M65.158,37.209v2.777A26.165,26.165,0,0,1,60.427,55l-4.572,6.524V79.734H21.3L19.975,73.09H8.015V53.156H1.37l9.3-15.947Zm0,0" fill="#f7bab4"/>
        <path id="Trazado_876637" data-name="Trazado 876637" d="M47.882,1.329H46.553A2.658,2.658,0,0,0,43.9,3.987a2.658,2.658,0,0,0-2.658-2.658H39.909a2.658,2.658,0,0,0-2.658,2.658,2.658,2.658,0,0,0-2.658-2.658H33.264a2.658,2.658,0,0,0-2.658,2.658,2.658,2.658,0,0,0-2.658-2.658H26.62a2.658,2.658,0,0,0-2.658,2.658V19.933H17.317l9.3,13.289V41.2h18.6V33.847a9.621,9.621,0,0,0,5.316-8.6V3.987A2.658,2.658,0,0,0,47.882,1.329Zm0,0" fill="#f7bab4"/>
        <path id="Trazado_876638" data-name="Trazado 876638" d="M47.882,0H46.553A3.989,3.989,0,0,0,43.9,1.036,3.987,3.987,0,0,0,41.237,0H39.909a3.989,3.989,0,0,0-2.658,1.036A3.987,3.987,0,0,0,34.593,0H33.264a3.989,3.989,0,0,0-2.658,1.036A3.987,3.987,0,0,0,27.948,0H26.62a3.987,3.987,0,0,0-3.987,3.987V18.6H17.317a1.3,1.3,0,0,0-1.089,2.047l9.063,13V41.2a1.329,1.329,0,0,0,1.329,1.329h18.6A1.329,1.329,0,0,0,46.553,41.2V34.631a10.9,10.9,0,0,0,5.316-9.382V3.987A3.986,3.986,0,0,0,47.882,0Zm1.329,25.249a8.265,8.265,0,0,1-4.584,7.415,1.329,1.329,0,0,0-.731,1.183L43.776,41.2H27.829l.119-7.973a1.247,1.247,0,0,0-.239-.757l-7.84-11.2h4.092a1.329,1.329,0,0,0,1.329-1.329V3.987A1.329,1.329,0,0,1,26.62,2.658h1.329a1.329,1.329,0,0,1,1.329,1.329V9.3h2.658V3.987a1.329,1.329,0,0,1,1.329-1.329h1.329a1.329,1.329,0,0,1,1.329,1.329V9.3H38.58V3.987a1.329,1.329,0,0,1,1.329-1.329h1.329a1.329,1.329,0,0,1,1.329,1.329V9.3h2.658V3.987a1.329,1.329,0,0,1,1.329-1.329h1.329a1.329,1.329,0,0,1,1.329,1.329Zm0,0" fill="#e3928a"/>
        <path id="Trazado_876639" data-name="Trazado 876639" d="M21.3,41.2H47.882V58.472H21.3Zm0,0" fill="#49bceb"/>
        <path id="Trazado_876640" data-name="Trazado 876640" d="M29.277,48.5a1.993,1.993,0,1,1-1.993-1.993A1.993,1.993,0,0,1,29.277,48.5Zm0,0" fill="#34a3d1"/>
        <path id="Trazado_876641" data-name="Trazado 876641" d="M29.277,48.5a1.993,1.993,0,1,1-1.993-1.993A1.993,1.993,0,0,1,29.277,48.5Zm0,0"/>
        <path id="Trazado_876642" data-name="Trazado 876642" d="M19.975,71.761H9.344v-18.6a1.329,1.329,0,0,0-1.329-1.329H3.683l8.133-13.953L9.53,36.545.228,52.492A1.329,1.329,0,0,0,1.37,54.485H6.686v18.6a1.329,1.329,0,0,0,1.329,1.329H18.886L19.975,80l2.658-.532L21.3,72.823a1.328,1.328,0,0,0-1.329-1.063Zm0,0"/>
        <path id="Trazado_876643" data-name="Trazado 876643" d="M63.829,39.986a24.715,24.715,0,0,1-4.492,14.246l-4.571,6.538a1.25,1.25,0,0,0-.239.757V79.734h2.658V61.954l4.333-6.14a27.347,27.347,0,0,0,4.97-15.827V37.209H63.829Zm0,0"/>
        <path id="Trazado_876644" data-name="Trazado 876644" d="M67.151,13.462l-9.3-5.316h-.212a1.331,1.331,0,0,0-.452-.173H51.869V3.987A3.986,3.986,0,0,0,47.882,0H46.553A3.987,3.987,0,0,0,43.9,1.023,3.985,3.985,0,0,0,41.237,0H39.909a3.987,3.987,0,0,0-2.658,1.023A3.985,3.985,0,0,0,34.593,0H33.264a3.987,3.987,0,0,0-2.658,1.023A3.985,3.985,0,0,0,27.948,0H26.62a3.987,3.987,0,0,0-3.987,3.987V7.973H6.686A1.329,1.329,0,0,0,5.357,9.3V19.933a1.329,1.329,0,0,0,1.329,1.329h9.941l8.664,12.385v6.219H21.3A1.329,1.329,0,0,0,19.975,41.2V58.472A1.329,1.329,0,0,0,21.3,59.8H47.882a1.329,1.329,0,0,0,1.329-1.329V41.2a1.329,1.329,0,0,0-1.329-1.329H46.553V34.631a10.9,10.9,0,0,0,5.316-9.382V21.262h5.316a1.333,1.333,0,0,0,.452-.093h.212l9.3-5.316a1.329,1.329,0,0,0,0-2.313ZM12,18.6H8.015V10.631H12Zm7.973-7.973h2.658v2.658H19.975Zm0,5.316h2.658V18.6H19.975ZM17.317,18.6H14.659V10.631h2.658ZM46.553,57.143H22.633V42.525h23.92Zm2.658-31.894a8.265,8.265,0,0,1-4.584,7.415,1.329,1.329,0,0,0-.731,1.183v6.02H27.948V33.222a1.247,1.247,0,0,0-.239-.757l-7.84-11.2h4.092a1.329,1.329,0,0,0,1.329-1.329V3.987A1.329,1.329,0,0,1,26.62,2.658h1.329a1.329,1.329,0,0,1,1.329,1.329V9.3a1.329,1.329,0,0,0,2.658,0V3.987a1.329,1.329,0,0,1,1.329-1.329h1.329a1.329,1.329,0,0,1,1.329,1.329V9.3a1.329,1.329,0,0,0,2.658,0V3.987a1.329,1.329,0,0,1,1.329-1.329h1.329a1.329,1.329,0,0,1,1.329,1.329V9.3a1.329,1.329,0,1,0,2.658,0V3.987a1.329,1.329,0,0,1,1.329-1.329h1.329a1.329,1.329,0,0,1,1.329,1.329ZM55.855,18.6H51.869V15.947h3.987Zm0-5.316H51.869V10.631h3.987Zm2.658,4.359V11.588l5.316,3.03Zm0,0"/>
      </g>
    </g>
    <g id="Grupo_1101345" data-name="Grupo 1101345" transform="translate(-3056.936 74.56) rotate(-90)">
      <path id="Trazado_873104" data-name="Trazado 873104" d="M149.557,395.548a1.582,1.582,0,1,0-.106-2.456A1.573,1.573,0,0,0,149.557,395.548Z" transform="translate(15.93 -245.31)" fill="#fff"/>
      <path id="Trazado_873105" data-name="Trazado 873105" d="M417.219,416a1.582,1.582,0,1,0-.105-2.456A1.573,1.573,0,0,0,417.219,416Z" transform="translate(-225.435 -246.323)" fill="#ffd947"/>
      <path id="Trazado_873106" data-name="Trazado 873106" d="M303.26,44.546a1.582,1.582,0,1,0-.106-2.456A1.573,1.573,0,0,0,303.26,44.546Z" transform="translate(-71.901 35.132)" fill="#7d6eb2"/>
      <path id="Trazado_873109" data-name="Trazado 873109" d="M339.452,404.413a3.448,3.448,0,1,0-1.687-4.918A3.468,3.468,0,0,0,339.452,404.413Z" transform="translate(-86.035 -252.255)" fill="#7d6eb2"/>
      <path id="Trazado_873110" data-name="Trazado 873110" d="M390.262,440.006a3.448,3.448,0,1,0-1.687-4.918A3.468,3.468,0,0,0,390.262,440.006Z" transform="translate(-188.42 -268.41)" fill="#ffd947"/>
      <path id="Trazado_873111" data-name="Trazado 873111" d="M176.115,56.142a3.448,3.448,0,1,0-1.687-4.918A3.468,3.468,0,0,0,176.115,56.142Z" transform="translate(0.87 25.456)" fill="#ffd947"/>
      <path id="Trazado_873113" data-name="Trazado 873113" d="M321.56,66.974a3.448,3.448,0,1,0-1.687-4.918A3.468,3.468,0,0,0,321.56,66.974Z" transform="translate(-97.565 19.105)" fill="#ffd947"/>
      <circle id="Elipse_11485" data-name="Elipse 11485" cx="1.689" cy="1.689" r="1.689" transform="translate(161.463 137.255)" fill="none" stroke="#26aab7" stroke-linecap="round" stroke-linejoin="round" stroke-width="1.5"/>
    </g>
  </g>
</svg>
