<svg xmlns="http://www.w3.org/2000/svg" xmlns:xlink="http://www.w3.org/1999/xlink" width="96.836" height="97.422" viewBox="0 0 96.836 97.422">
  <defs>
    <clipPath id="clip-path">
      <rect id="Rectángulo_402211" data-name="Rectángulo 402211" width="80" height="80" transform="translate(760 11523)" fill="#fff" stroke="#707070" stroke-width="1"/>
    </clipPath>
  </defs>
  <g id="Grupo_1101386" data-name="Grupo 1101386" transform="translate(-751.582 -11516.424)">
    <path id="_12068" data-name="12068" d="M72.033,71.913c-8.038-1.11-16.53-.839-23.844,2.675C38.045,79.46,31.382,90.507,31.127,101.757s5.606,22.305,14.66,28.988,21,9.051,32.068,7.045c11.165-2.023,21.645-8.583,27.469-18.322,3.735-6.245,5.48-13.956,3.417-20.934a28.6,28.6,0,0,0-6.787-11.156A50.145,50.145,0,0,0,72.033,71.913Z" transform="translate(729.881 11469.343)" fill="#26aab7"/>
    <g id="Enmascarar_grupo_1098768" data-name="Enmascarar grupo 1098768" clip-path="url(#clip-path)">
      <path id="Trazado_876614" data-name="Trazado 876614" d="M0,0H42.25L61,18V77H0Z" transform="translate(761 11525)" fill="#fff"/>
      <g id="idea-de-escritura" transform="translate(757.088 11520.089)">
        <g id="Grupo_1101367" data-name="Grupo 1101367">
          <g id="Grupo_1101348" data-name="Grupo 1101348">
            <g id="Grupo_1101346" data-name="Grupo 1101346">
              <path id="Trazado_876594" data-name="Trazado 876594" d="M59.872,82.912H9.837a6.805,6.805,0,0,1-6.921-6.667V9.567A6.8,6.8,0,0,1,9.837,2.913H45.473a1.211,1.211,0,0,1,.837.336l20.109,19.2a1.208,1.208,0,0,1,.375.877V33.639a1.212,1.212,0,0,1-.4.9L52.819,46.855l-1.574,6.591,6.676-.913,6.846-6.216a1.212,1.212,0,0,1,2.026.9v29.03a6.805,6.805,0,0,1-6.921,6.667ZM9.837,5.337a4.374,4.374,0,0,0-4.5,4.23V76.245a4.38,4.38,0,0,0,4.5,4.242H59.872a4.38,4.38,0,0,0,4.5-4.242V49.953l-5.089,4.62a1.2,1.2,0,0,1-.431.253,1.631,1.631,0,0,1-.254.063l-8.776,1.2a1.212,1.212,0,0,1-1.343-1.483l2.061-8.63s0,0,0-.005l.012-.049a1.212,1.212,0,0,1,.363-.611L64.369,33.1V23.843L44.988,5.337Zm41.879,40.92.071.017Z"/>
            </g>
            <g id="Grupo_1101347" data-name="Grupo 1101347">
              <path id="Trazado_876595" data-name="Trazado 876595" d="M65.587,24.532h-14.4a6.8,6.8,0,0,1-6.921-6.661V4.124a1.212,1.212,0,0,1,2.049-.877l20.112,19.2a1.212,1.212,0,0,1-.837,2.089ZM46.687,6.957V17.87a4.378,4.378,0,0,0,4.5,4.237H62.562Z"/>
            </g>
          </g>
          <g id="Grupo_1101349" data-name="Grupo 1101349">
            <path id="Trazado_876596" data-name="Trazado 876596" d="M37.013,31.023a10.927,10.927,0,0,1-3.207,7.706,14.053,14.053,0,0,0-4.31,9.823v.4H21.009v-.39a13.563,13.563,0,0,0-4.179-9.688,10.911,10.911,0,0,1-3.239-9.4,11.555,11.555,0,0,1,10.248-9.6c7.121-.793,13.174,4.5,13.174,11.145Z" fill="#ffcc2e"/>
          </g>
          <g id="Grupo_1101350" data-name="Grupo 1101350">
            <path id="Trazado_876597" data-name="Trazado 876597" d="M29.5,50.159H21.008A1.212,1.212,0,0,1,19.8,48.947v-.391a12.3,12.3,0,0,0-3.814-8.821A12.11,12.11,0,0,1,12.391,29.3,12.817,12.817,0,0,1,23.706,18.674,13.372,13.372,0,0,1,34.1,21.93a12.245,12.245,0,0,1,4.122,9.093,12.122,12.122,0,0,1-3.557,8.558,12.865,12.865,0,0,0-3.959,8.971v.4A1.212,1.212,0,0,1,29.5,50.159Zm-7.3-2.424h6.113a15.443,15.443,0,0,1,4.635-9.858,9.66,9.66,0,0,0-.457-14.14,10.956,10.956,0,0,0-8.514-2.654,10.365,10.365,0,0,0-9.182,8.559A9.709,9.709,0,0,0,17.677,38,14.751,14.751,0,0,1,22.2,47.735Z"/>
          </g>
          <g id="Grupo_1101351" data-name="Grupo 1101351">
            <path id="Trazado_876598" data-name="Trazado 876598" d="M25.394,57.651H25.1a7.4,7.4,0,0,1-7.392-7.393v-.375a2.151,2.151,0,0,1,2.148-2.148h10.78a2.151,2.151,0,0,1,2.148,2.148v.375a7.4,7.4,0,0,1-7.392,7.393Zm-5.26-7.492v.1A4.974,4.974,0,0,0,25.1,55.227h.292a4.974,4.974,0,0,0,4.968-4.969v-.1Z"/>
          </g>
          <g id="Grupo_1101352" data-name="Grupo 1101352">
            <path id="Trazado_876599" data-name="Trazado 876599" d="M18.1,17.489a1.2,1.2,0,0,1-.829-.328l-1.722-1.613a1.212,1.212,0,1,1,1.655-1.771l1.725,1.615a1.212,1.212,0,0,1-.829,2.1Z"/>
          </g>
          <g id="Grupo_1101353" data-name="Grupo 1101353">
            <path id="Trazado_876600" data-name="Trazado 876600" d="M25.247,14.629a1.212,1.212,0,0,1-1.212-1.212v-2.3a1.212,1.212,0,1,1,2.424,0v2.3a1.212,1.212,0,0,1-1.212,1.212Z"/>
          </g>
          <g id="Grupo_1101354" data-name="Grupo 1101354">
            <path id="Trazado_876601" data-name="Trazado 876601" d="M32.392,17.489a1.212,1.212,0,0,1-.829-2.1l1.725-1.615a1.212,1.212,0,1,1,1.655,1.771L33.22,17.161a1.2,1.2,0,0,1-.829.328Z"/>
          </g>
          <g id="Grupo_1101355" data-name="Grupo 1101355">
            <path id="Trazado_876602" data-name="Trazado 876602" d="M49.655,56.1a1.212,1.212,0,0,1-1.179-1.494l2.061-8.63a1.212,1.212,0,0,1,2.079-.531l6.715,7.43a1.212,1.212,0,0,1-.735,2.013l-8.776,1.2a1.2,1.2,0,0,1-.165.011Zm2.7-7.322-1.115,4.668,4.748-.649Z"/>
          </g>
          <g id="Grupo_1101356" data-name="Grupo 1101356">
            <path id="Trazado_876603" data-name="Trazado 876603" d="M78.382,36.815l-.062,0a1.209,1.209,0,0,1-.838-.4l-6.74-7.466a1.212,1.212,0,0,1,.085-1.709l2.509-2.279a3.65,3.65,0,0,1,5.174.261l3.46,3.823a3.7,3.7,0,0,1-.25,5.174l0,0L79.2,36.5a1.215,1.215,0,0,1-.813.313Zm-5.031-8.594,5.118,5.669,1.618-1.463a1.264,1.264,0,0,0,.08-1.763L76.707,26.84a1.227,1.227,0,0,0-1.738-.089Zm7.552,5.1h.012Z"/>
          </g>
          <g id="Grupo_1101357" data-name="Grupo 1101357">
            <path id="Trazado_876604" data-name="Trazado 876604" d="M58.447,54.89a1.236,1.236,0,0,1-.916-.39l-6.715-7.43a1.214,1.214,0,0,1-.278-1.1,1.378,1.378,0,0,1,.375-.659L70.828,27.239a1.18,1.18,0,0,1,.875-.313,1.21,1.21,0,0,1,.839.4l6.74,7.466A1.212,1.212,0,0,1,79.2,36.5L59.281,54.573a1.2,1.2,0,0,1-.431.253,1.278,1.278,0,0,1-.4.065Zm-5.04-8.569,5.118,5.663L76.671,35.518l-5.115-5.666Z"/>
          </g>
          <g id="Grupo_1101358" data-name="Grupo 1101358">
            <path id="Trazado_876605" data-name="Trazado 876605" d="M49.655,56.1a1.212,1.212,0,0,1-1.179-1.494l2.061-8.63a1.212,1.212,0,0,1,2.079-.531l6.715,7.43a1.212,1.212,0,0,1-.735,2.013l-8.776,1.2a1.2,1.2,0,0,1-.165.011Zm2.7-7.322-1.115,4.668,4.748-.649Z"/>
          </g>
          <g id="Grupo_1101359" data-name="Grupo 1101359">
            <path id="Trazado_876606" data-name="Trazado 876606" d="M78.382,36.815l-.062,0a1.209,1.209,0,0,1-.838-.4l-6.74-7.466a1.212,1.212,0,0,1,.085-1.709l2.509-2.279a3.65,3.65,0,0,1,5.174.261l3.46,3.823a3.7,3.7,0,0,1-.25,5.174l0,0L79.2,36.5a1.215,1.215,0,0,1-.813.313Zm-5.031-8.594,5.118,5.669,1.618-1.463a1.264,1.264,0,0,0,.08-1.763L76.707,26.84a1.227,1.227,0,0,0-1.738-.089Zm7.552,5.1h.012Z"/>
          </g>
          <g id="Grupo_1101360" data-name="Grupo 1101360">
            <path id="Trazado_876607" data-name="Trazado 876607" d="M78.382,35.6l-12.8,11.612-7.115,6.46-.036.012-6.715-7.43.012-.048,13.854-12.57,6.061-5.5,3.37,3.733Z" fill="#fd8d65"/>
          </g>
          <g id="Grupo_1101361" data-name="Grupo 1101361">
            <path id="Trazado_876608" data-name="Trazado 876608" d="M58.447,54.89a1.236,1.236,0,0,1-.916-.39l-6.715-7.43a1.214,1.214,0,0,1-.278-1.1,1.378,1.378,0,0,1,.375-.659L70.828,27.239a1.18,1.18,0,0,1,.875-.313,1.21,1.21,0,0,1,.839.4l6.74,7.466A1.212,1.212,0,0,1,79.2,36.5L59.281,54.573a1.2,1.2,0,0,1-.431.253,1.278,1.278,0,0,1-.4.065Zm-5.04-8.569,5.118,5.663L76.671,35.518l-5.115-5.666Z"/>
          </g>
          <g id="Grupo_1101362" data-name="Grupo 1101362">
            <path id="Trazado_876609" data-name="Trazado 876609" d="M56.672,75.228H13.043a1.212,1.212,0,1,1,0-2.424H56.672a1.212,1.212,0,1,1,0,2.424Z"/>
          </g>
          <g id="Grupo_1101363" data-name="Grupo 1101363">
            <path id="Trazado_876610" data-name="Trazado 876610" d="M56.672,67.354H13.043a1.212,1.212,0,0,1,0-2.424H56.672a1.212,1.212,0,0,1,0,2.424Z"/>
          </g>
          <g id="Grupo_1101364" data-name="Grupo 1101364">
            <path id="Trazado_876611" data-name="Trazado 876611" d="M25.247,50.159a1.212,1.212,0,0,1-1.212-1.212V31.666a1.212,1.212,0,0,1,2.424,0V48.947A1.212,1.212,0,0,1,25.247,50.159Z"/>
          </g>
          <g id="Grupo_1101365" data-name="Grupo 1101365">
            <path id="Trazado_876612" data-name="Trazado 876612" d="M28.411,36.03a4.366,4.366,0,0,1-3.164-1.355,4.373,4.373,0,0,1-7.538-3.02,1.212,1.212,0,1,1,2.424,0,1.951,1.951,0,1,0,3.9,0,1.212,1.212,0,1,1,2.424,0,1.951,1.951,0,0,0,3.9,0,1.212,1.212,0,1,1,2.424,0,4.38,4.38,0,0,1-4.375,4.376Z"/>
          </g>
          <g id="Grupo_1101366" data-name="Grupo 1101366">
            <path id="Trazado_876613" data-name="Trazado 876613" d="M29.441,61.62a6.293,6.293,0,0,1-2.308-.4c-1.632-.639-3.42-3.127-3.1-5.014a1.213,1.213,0,0,1,2.391.4,3.237,3.237,0,0,0,1.592,2.351,6.1,6.1,0,0,0,3.118.065,15.646,15.646,0,0,0,8.04-3.4q.19-.17.367-.349A8.62,8.62,0,0,1,35.681,47.7a4.467,4.467,0,0,1,1.787-3.456,3.571,3.571,0,0,1,3.361-.439,5.736,5.736,0,0,1,3.308,3.849,9.241,9.241,0,0,1-.849,6.552c2.076.413,4.695.217,6.01-.821a1.212,1.212,0,1,1,1.5,1.9c-2.172,1.715-6.117,1.9-8.952,1.06a11.493,11.493,0,0,1-1.055,1.082,17.749,17.749,0,0,1-9.266,3.994,12.922,12.922,0,0,1-2.088.2ZM39.546,45.993a1.183,1.183,0,0,0-.69.237,2.078,2.078,0,0,0-.755,1.615A6.252,6.252,0,0,0,41,53.33a6.962,6.962,0,0,0,.8-5.059,3.371,3.371,0,0,0-1.8-2.193,1.292,1.292,0,0,0-.449-.086Z"/>
          </g>
        </g>
      </g>
    </g>
    <g id="Grupo_1101343" data-name="Grupo 1101343" transform="translate(676.593 11774.56) rotate(-90)">
      <path id="Trazado_873104" data-name="Trazado 873104" d="M149.557,395.548a1.582,1.582,0,1,0-.106-2.456A1.573,1.573,0,0,0,149.557,395.548Z" transform="translate(15.93 -245.31)" fill="#fff"/>
      <path id="Trazado_873105" data-name="Trazado 873105" d="M417.219,416a1.582,1.582,0,1,0-.105-2.456A1.573,1.573,0,0,0,417.219,416Z" transform="translate(-225.435 -246.323)" fill="#ffd947"/>
      <path id="Trazado_873106" data-name="Trazado 873106" d="M303.26,44.546a1.582,1.582,0,1,0-.106-2.456A1.573,1.573,0,0,0,303.26,44.546Z" transform="translate(-71.901 35.132)" fill="#7d6eb2"/>
      <path id="Trazado_873109" data-name="Trazado 873109" d="M339.452,404.413a3.448,3.448,0,1,0-1.687-4.918A3.468,3.468,0,0,0,339.452,404.413Z" transform="translate(-86.035 -252.255)" fill="#7d6eb2"/>
      <path id="Trazado_873110" data-name="Trazado 873110" d="M390.262,440.006a3.448,3.448,0,1,0-1.687-4.918A3.468,3.468,0,0,0,390.262,440.006Z" transform="translate(-188.42 -268.41)" fill="#ffd947"/>
      <path id="Trazado_873111" data-name="Trazado 873111" d="M176.115,56.142a3.448,3.448,0,1,0-1.687-4.918A3.468,3.468,0,0,0,176.115,56.142Z" transform="translate(0.87 25.456)" fill="#ffd947"/>
      <path id="Trazado_873113" data-name="Trazado 873113" d="M321.56,66.974a3.448,3.448,0,1,0-1.687-4.918A3.468,3.468,0,0,0,321.56,66.974Z" transform="translate(-97.565 19.105)" fill="#ffd947"/>
      <circle id="Elipse_11485" data-name="Elipse 11485" cx="1.689" cy="1.689" r="1.689" transform="translate(161.463 137.255)" fill="none" stroke="#26aab7" stroke-linecap="round" stroke-linejoin="round" stroke-width="1.5"/>
    </g>
  </g>
</svg>
