<svg xmlns="http://www.w3.org/2000/svg" xmlns:xlink="http://www.w3.org/1999/xlink" width="96.836" height="97.423" viewBox="0 0 96.836 97.423">
  <defs>
    <clipPath id="clip-path">
      <rect id="Rectángulo_402210" data-name="Rectángulo 402210" width="80" height="80" transform="translate(409 11523)" fill="#fff" stroke="#707070" stroke-width="1"/>
    </clipPath>
  </defs>
  <g id="Grupo_1101387" data-name="Grupo 1101387" transform="translate(-400.124 -11516.424)">
    <path id="_12068" data-name="12068" d="M72.033,71.913c-8.038-1.11-16.53-.839-23.844,2.675C38.045,79.46,31.382,90.507,31.127,101.757s5.606,22.305,14.66,28.988,21,9.051,32.068,7.045c11.165-2.023,21.645-8.583,27.469-18.322,3.735-6.245,5.48-13.956,3.417-20.934a28.6,28.6,0,0,0-6.787-11.156A50.145,50.145,0,0,0,72.033,71.913Z" transform="translate(378.881 11469.343)" fill="#26aab7"/>
    <g id="Enmascarar_grupo_1098767" data-name="Enmascarar grupo 1098767" clip-path="url(#clip-path)">
      <g id="escritura" transform="translate(409 11523)">
        <g id="Grupo_1101340" data-name="Grupo 1101340">
          <path id="Trazado_876571" data-name="Trazado 876571" d="M78.573,65.368q-.054,2.526-.12,5.1-.1,4.029-.244,8.147c-1.377.128-2.7.189-3.892.209a50.843,50.843,0,0,1-5.792-.209q-.141-4.113-.244-8.147-.068-2.587-.12-5.133c-.186-8.768-.255-17.12-.255-24.711,0-12.6.191-23.113.361-29.969a41.534,41.534,0,0,1,3.147-6.509,34.91,34.91,0,0,1,1.953-2.948,41.141,41.141,0,0,1,5.1,9.457C78.739,21.642,79.067,42.027,78.573,65.368Z" fill="#ffe36c"/>
          <path id="Trazado_876572" data-name="Trazado 876572" d="M78.573,65.368q-.054,2.526-.12,5.1-.1,4.029-.244,8.147c-1.377.128-2.7.189-3.892.209.962-28.546.566-55.2.244-68.169a41.459,41.459,0,0,0-3.147-6.509,34.91,34.91,0,0,1,1.953-2.948,41.141,41.141,0,0,1,5.1,9.457C78.739,21.642,79.067,42.027,78.573,65.368Z" fill="#ffc46e"/>
          <path id="Trazado_876573" data-name="Trazado 876573" d="M78.573,65.368q-.054,2.526-.12,5.1-.1,4.029-.244,8.147c-1.377.128-2.7.189-3.892.209a50.843,50.843,0,0,1-5.792-.209q-.141-4.113-.244-8.147-.068-2.587-.12-5.133l.106-.022a47.786,47.786,0,0,1,6.419-.272,37.869,37.869,0,0,1,3.783.272Z" fill="#f4f1e1"/>
          <path id="Trazado_876574" data-name="Trazado 876574" d="M78.573,65.368q-.054,2.526-.12,5.1-.1,4.029-.244,8.147c-1.377.128-2.7.189-3.892.209.158-4.662.278-9.273.369-13.782a37.873,37.873,0,0,1,3.783.272Z" fill="#f4e5cb"/>
          <path id="Trazado_876575" data-name="Trazado 876575" d="M78.453,70.463q-.1,4.029-.244,8.147c-1.377.128-2.7.189-3.892.209a50.843,50.843,0,0,1-5.792-.209q-.141-4.113-.244-8.147a47.96,47.96,0,0,1,6.289-.272A38.155,38.155,0,0,1,78.453,70.463Z" fill="#ff7878"/>
          <path id="Trazado_876576" data-name="Trazado 876576" d="M78.468,10.65a38.062,38.062,0,0,1-3.9.275,47.719,47.719,0,0,1-6.3-.275,41.533,41.533,0,0,1,3.147-6.509,34.91,34.91,0,0,1,1.953-2.948A41.137,41.137,0,0,1,78.468,10.65Z" fill="#8389aa"/>
          <path id="Trazado_876577" data-name="Trazado 876577" d="M74.56,10.65a41.459,41.459,0,0,0-3.147-6.509,34.91,34.91,0,0,1,1.953-2.948,41.141,41.141,0,0,1,5.1,9.457,38.062,38.062,0,0,1-3.9.275C74.565,10.833,74.562,10.741,74.56,10.65Z" fill="#646d91"/>
          <path id="Trazado_876578" data-name="Trazado 876578" d="M60.86,78.3q-2.679.108-5.345.189C27.568,79.352,1.687,78.3,1.687,78.3c-.734-25.821-.539-49.64-.3-63.647a82.549,82.549,0,0,1,12.434-13.3c9.7-.2,25.742-.322,41.692.167,1.786.055,3.57.117,5.344.187C60.86,1.7,62.02,37.5,60.86,78.3Z" fill="#f4f1e1"/>
          <path id="Trazado_876579" data-name="Trazado 876579" d="M60.86,78.3q-2.679.108-5.345.189c.489-35.278.12-68.125,0-76.97,1.786.055,3.57.117,5.344.187,0,0,1.16,35.8,0,76.594Z" fill="#f4e5cb"/>
          <path id="Trazado_876580" data-name="Trazado 876580" d="M13.9,14.65a78.575,78.575,0,0,1-12.508,0,82.549,82.549,0,0,1,12.434-13.3A108.639,108.639,0,0,1,13.9,14.65Z" fill="#fab684"/>
          <path id="Trazado_876581" data-name="Trazado 876581" d="M74.57,70.191a38.156,38.156,0,0,1,3.883.272q-.1,4.029-.244,8.147c-1.377.128-2.7.189-3.892.209Q74.464,74.469,74.57,70.191Z" fill="#f4536f"/>
        </g>
        <g id="Grupo_1101341" data-name="Grupo 1101341">
          <path id="Trazado_876582" data-name="Trazado 876582" d="M61.158,13.511h-.021A1.172,1.172,0,0,0,59.985,14.7c.257,14.857.415,37.666-.266,62.465-25.915.984-51.38.193-56.892,0C2.606,69.082,2.458,60.6,2.39,51.95a1.172,1.172,0,0,0-1.172-1.163h-.01A1.172,1.172,0,0,0,.046,51.969C.118,61.032.276,69.9.516,78.33a1.172,1.172,0,0,0,1.124,1.138c.195.008,13.245.528,30.677.528,8.78,0,18.674-.132,28.591-.528a1.172,1.172,0,0,0,1.125-1.138c.718-25.265.558-48.567.3-63.667a1.172,1.172,0,0,0-1.171-1.152Z"/>
          <path id="Trazado_876583" data-name="Trazado 876583" d="M1.184,47.623h0a1.172,1.172,0,0,0,1.167-1.177c-.052-12.507.067-23.319.185-30.535,1.152.074,3.006.164,5.228.164,1.883,0,4.03-.065,6.232-.258a1.172,1.172,0,0,0,1.066-1.085,107.7,107.7,0,0,0,0-12.236c8.137-.153,26.291-.36,44.654.336.035,1.2.093,3.372.157,6.323A1.172,1.172,0,1,0,62.221,9.1c-.1-4.692-.189-7.412-.19-7.438A1.172,1.172,0,0,0,60.907.533C41.129-.256,21.376.021,13.8.177a1.173,1.173,0,0,0-.735.278A83.633,83.633,0,0,0,.45,13.951a1.172,1.172,0,0,0-.231.678C.094,21.826-.042,33.19.013,46.456a1.172,1.172,0,0,0,1.172,1.167Zm11.6-43.8c.19,4.426.077,8.058,0,9.738a78.55,78.55,0,0,1-9.133.062,82.275,82.275,0,0,1,9.134-9.8Z"/>
          <path id="Trazado_876584" data-name="Trazado 876584" d="M79.639,10.622a1.174,1.174,0,0,0-.068-.364A41.956,41.956,0,0,0,74.308.494a1.172,1.172,0,0,0-1.882,0,41.95,41.95,0,0,0-5.264,9.763,1.174,1.174,0,0,0-.068.364c-.248,10.006-.5,25.827-.277,44.374a1.172,1.172,0,0,0,2.343-.028c-.21-17.751.009-33,.246-43.027.977.08,2.436.169,4.133.169,1.175,0,2.465-.043,3.787-.159.26,11.045.537,30.194.1,52.068a48.349,48.349,0,0,0-8.123.008q-.035-1.77-.065-3.55a1.172,1.172,0,0,0-1.171-1.152h-.02A1.172,1.172,0,0,0,66.9,60.516c.1,6.179.257,12.281.456,18.134A1.172,1.172,0,0,0,68.4,79.775,49.251,49.251,0,0,0,73.342,80c1.467,0,3.169-.056,4.975-.223a1.172,1.172,0,0,0,1.063-1.127c.979-28.7.582-54.942.258-68.029Zm-9.7-.993a41.466,41.466,0,0,1,3.427-6.4A41.485,41.485,0,0,1,76.8,9.642,46.83,46.83,0,0,1,69.939,9.629Zm7.134,67.9a54.972,54.972,0,0,1-7.413,0q-.1-2.966-.18-6.007a46.486,46.486,0,0,1,7.773-.01Q77.173,74.5,77.073,77.527Zm.241-8.363a48.405,48.405,0,0,0-7.894.009q-.034-1.392-.065-2.8a46.5,46.5,0,0,1,8.025-.009q-.03,1.392-.065,2.8Z"/>
          <path id="Trazado_876585" data-name="Trazado 876585" d="M51.444,24.21H11.1a1.172,1.172,0,1,0,0,2.344h40.34a1.172,1.172,0,0,0,0-2.344Z"/>
          <path id="Trazado_876586" data-name="Trazado 876586" d="M37.515,18.585a1.172,1.172,0,1,0,0-2.344H25.032a1.172,1.172,0,0,0,0,2.344Z"/>
          <path id="Trazado_876587" data-name="Trazado 876587" d="M51.444,40.146H11.1a1.172,1.172,0,1,0,0,2.344h40.34a1.172,1.172,0,0,0,0-2.344Z"/>
          <path id="Trazado_876588" data-name="Trazado 876588" d="M51.444,48.115H11.1a1.172,1.172,0,0,0,0,2.344h40.34a1.172,1.172,0,0,0,0-2.344Z"/>
          <path id="Trazado_876589" data-name="Trazado 876589" d="M51.444,56.083H11.1a1.172,1.172,0,1,0,0,2.344h40.34a1.172,1.172,0,0,0,0-2.344Z"/>
          <path id="Trazado_876590" data-name="Trazado 876590" d="M51.444,64.052H44.819a1.172,1.172,0,0,0,0,2.344h6.625a1.172,1.172,0,0,0,0-2.344Z"/>
          <path id="Trazado_876591" data-name="Trazado 876591" d="M11.1,64.052a1.172,1.172,0,0,0,0,2.344H40.146a1.172,1.172,0,0,0,0-2.344Z"/>
          <path id="Trazado_876592" data-name="Trazado 876592" d="M11.1,34.522h6.625a1.172,1.172,0,1,0,0-2.344H11.1a1.172,1.172,0,1,0,0,2.344Z"/>
          <path id="Trazado_876593" data-name="Trazado 876593" d="M51.444,32.178H22.4a1.172,1.172,0,1,0,0,2.344H51.444a1.172,1.172,0,0,0,0-2.344Z"/>
        </g>
      </g>
    </g>
    <g id="Grupo_1101342" data-name="Grupo 1101342" transform="translate(325.136 11774.56) rotate(-90)">
      <path id="Trazado_873104" data-name="Trazado 873104" d="M149.557,395.548a1.582,1.582,0,1,0-.106-2.456A1.573,1.573,0,0,0,149.557,395.548Z" transform="translate(15.93 -245.31)" fill="#fff"/>
      <path id="Trazado_873105" data-name="Trazado 873105" d="M417.219,416a1.582,1.582,0,1,0-.105-2.456A1.573,1.573,0,0,0,417.219,416Z" transform="translate(-225.435 -246.323)" fill="#ffd947"/>
      <path id="Trazado_873106" data-name="Trazado 873106" d="M303.26,44.546a1.582,1.582,0,1,0-.106-2.456A1.573,1.573,0,0,0,303.26,44.546Z" transform="translate(-71.901 35.132)" fill="#7d6eb2"/>
      <path id="Trazado_873109" data-name="Trazado 873109" d="M339.452,404.413a3.448,3.448,0,1,0-1.687-4.918A3.468,3.468,0,0,0,339.452,404.413Z" transform="translate(-86.035 -252.255)" fill="#7d6eb2"/>
      <path id="Trazado_873110" data-name="Trazado 873110" d="M390.262,440.006a3.448,3.448,0,1,0-1.687-4.918A3.468,3.468,0,0,0,390.262,440.006Z" transform="translate(-188.42 -268.41)" fill="#ffd947"/>
      <path id="Trazado_873111" data-name="Trazado 873111" d="M176.115,56.142a3.448,3.448,0,1,0-1.687-4.918A3.468,3.468,0,0,0,176.115,56.142Z" transform="translate(0.87 25.456)" fill="#ffd947"/>
      <path id="Trazado_873113" data-name="Trazado 873113" d="M321.56,66.974a3.448,3.448,0,1,0-1.687-4.918A3.468,3.468,0,0,0,321.56,66.974Z" transform="translate(-97.565 19.105)" fill="#ffd947"/>
      <circle id="Elipse_11485" data-name="Elipse 11485" cx="1.689" cy="1.689" r="1.689" transform="translate(161.463 137.255)" fill="none" stroke="#26aab7" stroke-linecap="round" stroke-linejoin="round" stroke-width="1.5"/>
    </g>
  </g>
</svg>
