<svg xmlns="http://www.w3.org/2000/svg" width="190" height="172.893" viewBox="0 0 190 172.893">
  <g id="Grupo_1101528" data-name="Grupo 1101528" transform="translate(-1230 -9245)">
    <path id="_12068" data-name="12068" d="M130.145,72.738c-19.456-2.687-40.007-2.03-57.712,6.474C47.882,91,31.757,117.741,31.138,144.972s13.567,53.987,35.482,70.162,50.816,21.908,77.616,17.051c27.024-4.9,52.39-20.775,66.486-44.346,9.039-15.115,13.264-33.778,8.27-50.667-3.015-10.194-9.178-19.225-16.427-27A121.37,121.37,0,0,0,130.145,72.738Z" transform="translate(1198.881 9184.036)" fill="#26aab7"/>
    <g id="idea" transform="translate(1206.543 9245.001)">
      <path id="Trazado_878417" data-name="Trazado 878417" d="M391.952,253.276h-1.44l2.176-29.547h7.817a9.953,9.953,0,0,1,9.953,9.953v1.089a18.506,18.506,0,0,1-18.506,18.506Z" transform="translate(-228.444 -151.192)" fill="#f9a58e"/>
      <path id="Trazado_878418" data-name="Trazado 878418" d="M78.474,253.276h1.44l-2.176-29.547H69.921a9.953,9.953,0,0,0-9.953,9.953v1.089A18.506,18.506,0,0,0,78.474,253.276Z" transform="translate(-5.068 -151.192)" fill="#eaac9d"/>
      <path id="Trazado_878419" data-name="Trazado 878419" d="M193.357,430.114v-8.47c-8.3,5.681-17.475,8.934-23.689,8.934s-15.384-3.253-23.689-8.934v8.47a12.271,12.271,0,0,1-6.963,11.064L129,445.982a1.328,1.328,0,0,0,.575,2.525h80.178a1.328,1.328,0,0,0,.575-2.525l-10.012-4.8a12.271,12.271,0,0,1-6.963-11.064Z" transform="translate(-51.212 -284.939)" fill="#ffcbbe"/>
      <path id="Trazado_878420" data-name="Trazado 878420" d="M205.43,94.436a46.515,46.515,0,1,0-92.779,0l3.163,42.946c1.667,22.641,29.581,38.332,43.227,38.332s41.559-15.691,43.227-38.332Z" transform="translate(-40.584 -30.075)" fill="#ffcbbe"/>
      <path id="Trazado_878421" data-name="Trazado 878421" d="M222.21,51.145a46.461,46.461,0,0,1,19.38,41.294l-3.163,42.946c-1.667,22.642-29.58,38.332-43.227,38.332a31.792,31.792,0,0,1-9.978-1.95c8.1,5.371,16.918,8.434,22.947,8.434,13.646,0,41.559-15.691,43.227-38.332l3.163-42.946A46.539,46.539,0,0,0,222.21,51.145Z" transform="translate(-89.713 -34.563)" fill="#eaac9d"/>
      <path id="Trazado_878422" data-name="Trazado 878422" d="M213.305,113.252l-2.831-1.32a4.055,4.055,0,0,1-1.5-6.149,37.937,37.937,0,0,0-6.725-6.925,23.626,23.626,0,0,1-11.021,14.386,3.5,3.5,0,0,0-1.642,2.261l-.693,3.053a3.385,3.385,0,0,1-3.3,2.636h-12.27a3.385,3.385,0,0,1-3.3-2.636l-.687-3.025a3.556,3.556,0,0,0-1.666-2.3,23.624,23.624,0,0,1-11-14.376,37.915,37.915,0,0,0-7.129,7.474c.038.07.074.141.107.213a4.053,4.053,0,0,1-1.96,5.386l-1.877.875a36.214,36.214,0,0,0-3.059,12.378,4.943,4.943,0,0,0,4.932,5.269h63.556a4.943,4.943,0,0,0,4.932-5.269A36.215,36.215,0,0,0,213.305,113.252Z" transform="translate(-61.002 -66.807)" fill="#9dc6fb"/>
      <path id="Trazado_878423" data-name="Trazado 878423" d="M216.169,125.184a36.214,36.214,0,0,0-2.864-11.933l-2.831-1.32a4.055,4.055,0,0,1-1.5-6.149,37.939,37.939,0,0,0-6.725-6.925,23.447,23.447,0,0,1-2.677,6.255A36.173,36.173,0,0,1,203.2,118.7a4.943,4.943,0,0,1-4.932,5.269H142.849q-.06.606-.1,1.216a4.943,4.943,0,0,0,4.932,5.269h63.556A4.943,4.943,0,0,0,216.169,125.184Z" transform="translate(-61.002 -66.807)" fill="#80b4fb"/>
      <path id="Trazado_878424" data-name="Trazado 878424" d="M247.7,177.008H232.391v-8.923a.335.335,0,0,1,.336-.336h14.637a.335.335,0,0,1,.336.336Z" transform="translate(-121.589 -113.362)" fill="#c6c1c8"/>
      <path id="Trazado_878425" data-name="Trazado 878425" d="M230.435,31.074a23.576,23.576,0,1,0-35.365,20.421,3.556,3.556,0,0,1,1.666,2.3l.687,3.025a3.385,3.385,0,0,0,3.3,2.636H213a3.385,3.385,0,0,0,3.3-2.636l.693-3.053a3.5,3.5,0,0,1,1.642-2.261,23.566,23.566,0,0,0,11.8-20.431Z" transform="translate(-88.403 -5.067)" fill="#f6e781"/>
      <path id="Trazado_878426" data-name="Trazado 878426" d="M237.832,8.315a23.58,23.58,0,0,1-4.741,37.257,3.5,3.5,0,0,0-1.642,2.261l-.693,3.053a3.385,3.385,0,0,1-3.3,2.636h-3.583a3.694,3.694,0,0,1,.293.824l.687,3.025a3.385,3.385,0,0,0,3.3,2.636h12.27a3.385,3.385,0,0,0,3.3-2.636l.693-3.053a3.5,3.5,0,0,1,1.642-2.261,23.581,23.581,0,0,0-8.228-43.742Z" transform="translate(-115.831 -5.619)" fill="#f4dd45"/>
      <path id="Trazado_878427" data-name="Trazado 878427" d="M365.174,74.522h-6.122a4.053,4.053,0,0,1,0-8.105h6.122a4.053,4.053,0,0,1,0,8.105Z" transform="translate(-204.445 -44.884)" fill="#fff9e2"/>
      <path id="Trazado_878428" data-name="Trazado 878428" d="M355.754,17.225l-5.548,2.587a4.053,4.053,0,0,1-3.426-7.346l5.548-2.587a4.053,4.053,0,1,1,3.426,7.346Z" transform="translate(-197.308 -6.419)" fill="#fff9e2"/>
      <path id="Trazado_878429" data-name="Trazado 878429" d="M355.754,118.317l-5.548-2.587a4.053,4.053,0,0,0-3.426,7.346l5.548,2.587a4.053,4.053,0,1,0,3.426-7.346Z" transform="translate(-197.308 -77.951)" fill="#fff9e2"/>
      <path id="Trazado_878430" data-name="Trazado 878430" d="M114.827,74.522h6.122a4.053,4.053,0,0,0,0-8.105h-6.122a4.053,4.053,0,1,0,0,8.105Z" transform="translate(-39.402 -44.884)" fill="#fff9e2"/>
      <path id="Trazado_878431" data-name="Trazado 878431" d="M125.438,17.225l5.548,2.587a4.053,4.053,0,0,0,3.426-7.346l-5.548-2.587a4.053,4.053,0,1,0-3.426,7.346Z" transform="translate(-47.729 -6.419)" fill="#fff9e2"/>
      <path id="Trazado_878432" data-name="Trazado 878432" d="M125.438,118.317l5.548-2.587a4.053,4.053,0,0,1,3.426,7.346l-5.548,2.587a4.053,4.053,0,1,1-3.426-7.346Z" transform="translate(-47.729 -77.951)" fill="#fff9e2"/>
      <g id="Grupo_1101527" data-name="Grupo 1101527" transform="translate(52.468 -0.001)">
        <path id="Trazado_878433" data-name="Trazado 878433" d="M172.061,70.105h-5.2l.41-5.566a48.761,48.761,0,0,0-9.286-32.469h2.744a6.484,6.484,0,0,0,0-12.969h-6.122a6.491,6.491,0,0,0-5.744,3.478,49.155,49.155,0,0,0-5.385-3.716A26.016,26.016,0,0,0,117.828.006a25.583,25.583,0,0,0-11.522,3.025,2.432,2.432,0,0,0,2.286,4.293,20.757,20.757,0,0,1,9.35-2.455,21.147,21.147,0,0,1,11.07,39.463,5.939,5.939,0,0,0-2.8,3.828l-.693,3.053a.948.948,0,0,1-.93.742h-4.084v-9a8.97,8.97,0,0,0,6.523-8.619,2.432,2.432,0,0,0-4.863,0,4.091,4.091,0,1,1-8.182,0,2.432,2.432,0,0,0-4.863,0,8.97,8.97,0,0,0,6.523,8.619v9h-3.324a.948.948,0,0,1-.93-.742l-.687-3.025a6,6,0,0,0-2.819-3.866,21.113,21.113,0,0,1-6.774-30.364,2.431,2.431,0,0,0-3.986-2.785,25.918,25.918,0,0,0-3.67,7.679A49.089,49.089,0,0,0,87.5,23.021,6.5,6.5,0,0,0,81.547,19.1H75.425a6.484,6.484,0,1,0,0,12.969h3.5a49.133,49.133,0,0,0-4.993,8.508,6.563,6.563,0,0,0-.783,1.8A48.821,48.821,0,0,0,69.643,64.54l.41,5.566h-5.2A12.4,12.4,0,0,0,52.468,82.49v1.088A20.963,20.963,0,0,0,72.585,104.5l.22,2.985a33.524,33.524,0,0,0,3.5,12.478A2.432,2.432,0,1,0,80.66,117.8a28.689,28.689,0,0,1-3.005-10.672C76.6,92.744,75.7,80.606,74.492,64.182a43.77,43.77,0,0,1,1.42-14.692,6.508,6.508,0,0,0,4.731.918,38.85,38.85,0,0,0-1.323,7.809,7.38,7.38,0,0,0,7.358,7.861h47.634a2.432,2.432,0,0,0,0-4.863h-5.77V55.283a5.811,5.811,0,0,0,1.722-2.992l.694-3.053a1.063,1.063,0,0,1,.487-.694,26.09,26.09,0,0,0,10.9-12.291,35.583,35.583,0,0,1,2.741,2.983,6.482,6.482,0,0,0,3.354,8.093l1.975.921a33.8,33.8,0,0,1,2.322,10.29,2.509,2.509,0,0,1-2.506,2.675h-4.574a2.432,2.432,0,0,0,0,4.863h4.574a7.38,7.38,0,0,0,7.358-7.861,38.852,38.852,0,0,0-1.3-7.708,6.523,6.523,0,0,0,4.575-1.48,43.775,43.775,0,0,1,1.548,15.153q-1.586,21.544-3.163,42.946c-1.415,19.217-25.979,36.079-40.8,36.079-8.288,0-22.254-6.309-31.523-16.422a2.432,2.432,0,1,0-3.586,3.286A58.022,58.022,0,0,0,92.336,138v7.179a9.891,9.891,0,0,1-5.583,8.872l-10.012,4.8A3.759,3.759,0,0,0,78.367,166h80.178a3.759,3.759,0,0,0,1.626-7.149l-10.012-4.8a9.891,9.891,0,0,1-5.583-8.872v-7.216c10.058-7.211,18.6-17.845,19.532-30.473l.22-2.985a20.963,20.963,0,0,0,20.117-20.922V82.49A12.4,12.4,0,0,0,172.061,70.105ZM88.288,35.879a6.471,6.471,0,0,0-5.748-.44,44.15,44.15,0,0,1,9.918-10.1,26.061,26.061,0,0,0,.5,5.793,40.345,40.345,0,0,0-4.672,4.747ZM73.8,25.586a1.623,1.623,0,0,1,1.621-1.621h6.122a1.621,1.621,0,0,1,0,3.242H75.425A1.623,1.623,0,0,1,73.8,25.586ZM57.331,83.578V82.49a7.529,7.529,0,0,1,7.521-7.521H70.41l1.815,24.641A16.1,16.1,0,0,1,57.331,83.578ZM84.173,58.539a33.765,33.765,0,0,1,2.5-10.727l1.037-.484a6.486,6.486,0,0,0,3.563-7.4,35.56,35.56,0,0,1,3.283-3.665,26.023,26.023,0,0,0,10.893,12.272,1.125,1.125,0,0,1,.513.733l.687,3.025a5.811,5.811,0,0,0,1.722,2.993v5.932H86.678A2.509,2.509,0,0,1,84.173,58.539Zm29.061,2.675v-4.4H123.68v4.4Zm34.822,97.216,5.638,2.706H83.219l5.638-2.706A14.779,14.779,0,0,0,97.2,145.175v-4.028c7.781,4.544,15.716,6.924,21.257,6.924,5.8,0,13.673-2.5,21.257-6.953v4.057a14.78,14.78,0,0,0,8.343,13.256Zm6.551-134.466h6.122a1.621,1.621,0,0,1,0,3.242h-6.122a1.614,1.614,0,0,1-1.079-.412l-.154-.158a1.623,1.623,0,0,1,1.233-2.672ZM158.2,44.724a1.623,1.623,0,0,1-2.154.784L150.5,42.92a1.621,1.621,0,1,1,1.37-2.938l5.548,2.587a1.621,1.621,0,0,1,.784,2.154ZM78.736,42.57l5.548-2.587a1.621,1.621,0,1,1,1.37,2.938l-5.548,2.587a1.621,1.621,0,1,1-1.37-2.938Zm75.189-7a6.457,6.457,0,0,0-5.535.025,40.363,40.363,0,0,0-4.44-4.47,25.856,25.856,0,0,0,.505-5.79,44.18,44.18,0,0,1,10.274,10.61Zm25.657,48a16.1,16.1,0,0,1-14.894,16.031L166.5,74.968h5.558a7.529,7.529,0,0,1,7.521,7.521Z" transform="translate(-52.468 0.001)" fill="#222221"/>
        <path id="Trazado_878434" data-name="Trazado 878434" d="M190.572,238.286H171.195a2.432,2.432,0,1,0,0,4.863h19.377a2.432,2.432,0,1,0,0-4.863Z" transform="translate(-131.058 -161.029)" fill="#222221"/>
        <path id="Trazado_878435" data-name="Trazado 878435" d="M259.838,259.951V247.193a4.048,4.048,0,0,1,4.044-4.044h12.9a2.432,2.432,0,1,0,0-4.863h-12.9a8.917,8.917,0,0,0-8.907,8.907v12.758a4.048,4.048,0,0,1-4.044,4.044,2.432,2.432,0,1,0,0,4.863A8.917,8.917,0,0,0,259.838,259.951Z" transform="translate(-184.942 -161.029)" fill="#222221"/>
        <path id="Trazado_878436" data-name="Trazado 878436" d="M203.114,368.885a2.431,2.431,0,1,0-2.18,4.347l2.035,1.021a33.4,33.4,0,0,0,29.822,0l2.035-1.021a2.432,2.432,0,1,0-2.18-4.347l-2.035,1.021a28.52,28.52,0,0,1-25.461,0Z" transform="translate(-151.892 -249.11)" fill="#222221"/>
        <path id="Trazado_878437" data-name="Trazado 878437" d="M203.169,44.92a2.431,2.431,0,0,0,2.495-2.367,13.173,13.173,0,0,1,12.711-12.678,2.432,2.432,0,0,0-.115-4.862A18.093,18.093,0,0,0,200.8,42.426,2.432,2.432,0,0,0,203.169,44.92Z" transform="translate(-152.709 -16.903)" fill="#222221"/>
        <path id="Trazado_878438" data-name="Trazado 878438" d="M341.2,17.168a6.442,6.442,0,0,0,4.958-.216l5.548-2.587a6.484,6.484,0,1,0-5.481-11.754L340.68,5.2a6.484,6.484,0,0,0,.523,11.97Zm.694-6.647a1.61,1.61,0,0,1,.838-.915l5.548-2.587a1.621,1.621,0,0,1,1.371,2.938l-5.549,2.587A1.624,1.624,0,0,1,341.9,10.52Z" transform="translate(-244.705 -1.354)" fill="#222221"/>
        <path id="Trazado_878439" data-name="Trazado 878439" d="M119.338,14.364l5.548,2.587A6.485,6.485,0,1,0,130.367,5.2L124.819,2.61a6.484,6.484,0,0,0-5.481,11.754ZM120.609,7.8a1.623,1.623,0,0,1,2.154-.784L128.312,9.6a1.621,1.621,0,1,1-1.37,2.938l-5.548-2.587a1.62,1.62,0,0,1-.784-2.154Z" transform="translate(-95.126 -1.353)" fill="#222221"/>
      </g>
    </g>
  </g>
</svg>
