<svg xmlns="http://www.w3.org/2000/svg" xmlns:xlink="http://www.w3.org/1999/xlink" width="151.991" height="133.933" viewBox="0 0 151.991 133.933">
  <defs>
    <clipPath id="clip-path">
      <rect id="Rectángulo_402144" data-name="Rectángulo 402144" width="128.001" height="133.933" fill="none"/>
    </clipPath>
  </defs>
  <g id="Grupo_1101512" data-name="Grupo 1101512" transform="translate(-724 -896.596)">
    <path id="_12068" data-name="12068" d="M103.949,72.366C89.64,70.39,74.525,70.874,61.5,77.128,43.447,85.8,31.588,105.464,31.133,125.491s9.978,39.705,26.1,51.6S94.6,193.2,114.312,189.632c19.875-3.6,38.53-15.279,48.9-32.614,6.648-11.116,9.755-24.842,6.082-37.264-2.217-7.5-6.75-14.14-12.082-19.858A89.263,89.263,0,0,0,103.949,72.366Z" transform="translate(698.881 839.667)" fill="#26aab7"/>
    <g id="Grupo_1100756" data-name="Grupo 1100756" transform="translate(673.136 1158.56) rotate(-90)">
      <path id="Trazado_873104" data-name="Trazado 873104" d="M149.557,395.548a1.582,1.582,0,1,0-.106-2.456A1.573,1.573,0,0,0,149.557,395.548Z" transform="translate(13.93 -213.31)" fill="#fff"/>
      <path id="Trazado_873105" data-name="Trazado 873105" d="M417.219,416a1.582,1.582,0,1,0-.105-2.456A1.573,1.573,0,0,0,417.219,416Z" transform="translate(-222.435 -227.035)" fill="#ffd947"/>
      <path id="Trazado_873106" data-name="Trazado 873106" d="M303.26,44.546a1.582,1.582,0,1,0-.106-2.456A1.573,1.573,0,0,0,303.26,44.546Z" transform="translate(-52.901 9.151)" fill="#7d6eb2"/>
      <path id="Trazado_873109" data-name="Trazado 873109" d="M339.452,404.413a3.448,3.448,0,1,0-1.687-4.918A3.468,3.468,0,0,0,339.452,404.413Z" transform="translate(-82.207 -231.255)" fill="#7d6eb2"/>
      <path id="Trazado_873110" data-name="Trazado 873110" d="M390.262,440.006a3.448,3.448,0,1,0-1.687-4.918A3.468,3.468,0,0,0,390.262,440.006Z" transform="translate(-181.42 -237.38)" fill="#ffd947"/>
      <path id="Trazado_873111" data-name="Trazado 873111" d="M176.115,56.142a3.448,3.448,0,1,0-1.687-4.918A3.468,3.468,0,0,0,176.115,56.142Z" transform="translate(-38.569 18.202)" fill="#ffd947"/>
      <path id="Trazado_873113" data-name="Trazado 873113" d="M321.56,66.974a3.448,3.448,0,1,0-1.687-4.918A3.468,3.468,0,0,0,321.56,66.974Z" transform="translate(-76.565 -0.895)" fill="#ffd947"/>
      <circle id="Elipse_11485" data-name="Elipse 11485" cx="1.689" cy="1.689" r="1.689" transform="translate(149.167 187.566)" fill="none" stroke="#26aab7" stroke-linecap="round" stroke-linejoin="round" stroke-width="1.5"/>
    </g>
    <g id="Grupo_1101297" data-name="Grupo 1101297" transform="translate(732 896.596)">
      <g id="Grupo_1101296" data-name="Grupo 1101296" clip-path="url(#clip-path)">
        <path id="Trazado_876141" data-name="Trazado 876141" d="M127.358,34.341c-.607,0-1.172-.012-1.531-.02l-.343-.006c-.4,0-.465-.234-.5-2.209a10.347,10.347,0,0,1-3.1-1.3c-1.485,1.437-1.609,1.437-1.779,1.437a.389.389,0,0,1-.262-.108L119.6,31.9c-2.495-2.39-3-3.114-3-3.506a.448.448,0,0,1,.128-.325c.056-.056.569-.566,1.38-1.367a10.372,10.372,0,0,1-.9-2.544c-1.1.006-1.79.008-1.868.008a.45.45,0,0,1-.321-.139c-.275-.28-.429-1.147-.357-4.6,0-.163.006-.282.006-.343,0-.4.09-.481,2.847-.509a10.36,10.36,0,0,1,1.353-2.637l-1.688-1.782a.351.351,0,0,1-.006-.476c.361-.4,2.2-2.4,2.927-2.649a.457.457,0,0,1,.127-.02c.175,0,.373,0,2.277,1.7a10.337,10.337,0,0,1,2.8-1.007c.047-1.791.079-2.93.079-2.93a.35.35,0,0,1,.333-.34s.79-.041,1.662-.041a5.658,5.658,0,0,1,2.281.237c.223.111.373.186.53,3.234a10.331,10.331,0,0,1,2.34.962c2.025-1.818,2.228-1.818,2.408-1.818a.452.452,0,0,1,.126.02c.731.244,2.567,2.249,2.927,2.649a.351.351,0,0,1-.006.476s-.724.767-1.878,1.983a10.364,10.364,0,0,1,1.3,2.76c1.713.045,2.8.076,2.8.076a.349.349,0,0,1,.34.332c.028.537.147,3.254-.2,3.943-.105.209-.175.351-2.649.5a10.313,10.313,0,0,1-.874,2.727c.945.934,1.546,1.531,1.608,1.593a.448.448,0,0,1,.128.325c0,.392-.508,1.116-3,3.506l-.244.235a.388.388,0,0,1-.261.108c-.175,0-.3,0-1.912-1.567a10.344,10.344,0,0,1-2.576,1.221c.006,1.029.008,1.67.008,1.745,0,.482-.464.7-3.207.7m-1.606-.722h.089c.356.008.916.02,1.517.02a11.138,11.138,0,0,0,2.506-.156c0-.289,0-.937-.009-1.842a.351.351,0,0,1,.254-.339,9.7,9.7,0,0,0,2.864-1.362.349.349,0,0,1,.445.036c.947.927,1.385,1.316,1.586,1.478l.062-.059a18.124,18.124,0,0,0,2.752-2.942c-.24-.239-.838-.832-1.674-1.657a.351.351,0,0,1-.065-.409,9.647,9.647,0,0,0,.965-3.023.351.351,0,0,1,.327-.3,16.454,16.454,0,0,0,2.378-.223,15.638,15.638,0,0,0,.1-3.175l-2.724-.073a.35.35,0,0,1-.328-.257,9.7,9.7,0,0,0-1.437-3.029.351.351,0,0,1,.032-.444c.873-.919,1.527-1.611,1.849-1.951a15.2,15.2,0,0,0-2.336-2.182,26.556,26.556,0,0,0-2.108,1.791.35.35,0,0,1-.414.041,9.672,9.672,0,0,0-2.627-1.08.35.35,0,0,1-.266-.323,20.554,20.554,0,0,0-.252-2.932,8.118,8.118,0,0,0-1.872-.13c-.514,0-1,.015-1.3.026-.014.493-.042,1.519-.078,2.885a.349.349,0,0,1-.289.336,9.667,9.667,0,0,0-3.077,1.1.35.35,0,0,1-.407-.045,18.2,18.2,0,0,0-1.992-1.661,15.7,15.7,0,0,0-2.317,2.172l1.664,1.756a.351.351,0,0,1,.027.45,9.7,9.7,0,0,0-1.5,2.911.352.352,0,0,1-.332.246c-1.5.012-2.137.05-2.408.078l0,.089a18.058,18.058,0,0,0,.135,4.023l1.994-.01a.339.339,0,0,1,.346.285,9.66,9.66,0,0,0,1.012,2.859.35.35,0,0,1-.061.417c-.717.708-1.231,1.218-1.45,1.436a18.165,18.165,0,0,0,2.752,2.942l.062.059c.191-.154.6-.512,1.449-1.344a.35.35,0,0,1,.438-.041,9.661,9.661,0,0,0,3.371,1.411.35.35,0,0,1,.278.338c.016,1.07.048,1.568.072,1.8" transform="translate(-34.331 -2.516)" fill="#261d2a"/>
        <path id="Trazado_876142" data-name="Trazado 876142" d="M129.933,32.087a7.528,7.528,0,1,1,7.528-7.528,7.537,7.537,0,0,1-7.528,7.528m0-14.355a6.827,6.827,0,1,0,6.827,6.827,6.835,6.835,0,0,0-6.827-6.827" transform="translate(-36.657 -5.1)" fill="#261d2a"/>
        <path id="Trazado_876143" data-name="Trazado 876143" d="M131.338,30.319a4.241,4.241,0,1,1,4.24-4.24,4.245,4.245,0,0,1-4.24,4.24m0-7.781a3.54,3.54,0,1,0,3.54,3.54,3.544,3.544,0,0,0-3.54-3.54" transform="translate(-38.063 -6.54)" fill="#261d2a"/>
        <path id="Trazado_876144" data-name="Trazado 876144" d="M148.561,76.944c-.857,0-1.657-.017-2.165-.028-.233,0-.4-.008-.488-.008-.386,0-.51,0-.563-3.1a14.526,14.526,0,0,1-4.557-1.907c-2.137,2.074-2.314,2.074-2.5,2.074a.4.4,0,0,1-.267-.109c-.061-.061-.185-.18-.354-.342-3.479-3.335-4.2-4.353-4.2-4.856a.488.488,0,0,1,.139-.356c.081-.081.837-.833,2.029-2.012a14.543,14.543,0,0,1-1.341-3.777c-1.627.009-2.65.012-2.763.012a.488.488,0,0,1-.35-.153c-.352-.359-.565-1.586-.462-6.408,0-.233.008-.4.008-.488,0-.408,0-.538,3.992-.576a14.54,14.54,0,0,1,2-3.894c-1.525-1.608-2.473-2.612-2.473-2.612a.35.35,0,0,1-.006-.475c.31-.344,3.063-3.371,4.084-3.711a.5.5,0,0,1,.132-.021c.2,0,.478,0,3.206,2.441a14.549,14.549,0,0,1,4.125-1.482c.068-2.6.115-4.265.115-4.265a.351.351,0,0,1,.333-.34c.011,0,1.13-.057,2.346-.057,2.524,0,3.007.241,3.166.321.244.122.455.228.675,4.562a14.565,14.565,0,0,1,3.475,1.428c2.9-2.607,3.182-2.607,3.391-2.607a.5.5,0,0,1,.133.021c1.021.34,3.774,3.367,4.083,3.711a.35.35,0,0,1,0,.475s-1.06,1.122-2.741,2.894a14.525,14.525,0,0,1,1.924,4.067c2.488.065,4.064.11,4.064.11a.351.351,0,0,1,.34.332c.023.463.218,4.549-.264,5.512-.113.228-.212.425-3.744.631a14.543,14.543,0,0,1-1.292,4.032c1.381,1.364,2.262,2.24,2.351,2.328a.491.491,0,0,1,.139.357c-.006.5-.722,1.521-4.2,4.856-.17.162-.294.281-.354.342a.4.4,0,0,1-.267.109c-.192,0-.373,0-2.691-2.26a14.549,14.549,0,0,1-3.812,1.809c.009,1.519.012,2.469.012,2.578,0,.476-.324.841-4.4.841m-2.4-.733.253.006c.5.011,1.3.027,2.15.027a12.992,12.992,0,0,0,3.7-.263c0-.339,0-1.308-.013-2.715a.349.349,0,0,1,.253-.338,13.894,13.894,0,0,0,4.1-1.95.352.352,0,0,1,.446.036A31.674,31.674,0,0,0,159.4,73.2l.186-.178c3.117-2.988,3.843-3.973,3.966-4.3-.277-.275-1.164-1.155-2.444-2.42a.351.351,0,0,1-.065-.41,13.84,13.84,0,0,0,1.381-4.326.35.35,0,0,1,.327-.3,19.9,19.9,0,0,0,3.474-.343,21.207,21.207,0,0,0,.172-4.758c-.609-.018-2.041-.057-4-.108a.35.35,0,0,1-.329-.256,13.848,13.848,0,0,0-2.055-4.336.351.351,0,0,1,.032-.444c1.327-1.4,2.3-2.424,2.712-2.863a20.778,20.778,0,0,0-3.5-3.25,25.829,25.829,0,0,0-3.09,2.586.348.348,0,0,1-.413.041A13.845,13.845,0,0,0,152,45.993a.349.349,0,0,1-.265-.323,24.56,24.56,0,0,0-.383-4.261,10.19,10.19,0,0,0-2.771-.214c-.808,0-1.572.025-1.987.042-.018.633-.06,2.152-.113,4.222a.351.351,0,0,1-.289.336,13.847,13.847,0,0,0-4.406,1.577.351.351,0,0,1-.406-.044,21.718,21.718,0,0,0-2.916-2.41,21.152,21.152,0,0,0-3.485,3.243c.387.41,1.257,1.33,2.45,2.586a.351.351,0,0,1,.027.45,13.88,13.88,0,0,0-2.144,4.166.352.352,0,0,1-.331.246,35.2,35.2,0,0,0-3.554.127c0,.074,0,.158-.006.254-.092,4.321.092,5.531.233,5.846.353,0,1.4,0,2.929-.014a.383.383,0,0,1,.346.286,13.821,13.821,0,0,0,1.449,4.091.351.351,0,0,1-.062.418c-1.107,1.094-1.873,1.854-2.128,2.107.123.322.849,1.307,3.966,4.3l.185.178a28.955,28.955,0,0,0,2.164-1.992.349.349,0,0,1,.438-.041,13.816,13.816,0,0,0,4.825,2.02.351.351,0,0,1,.279.338c.026,1.723.08,2.413.118,2.689" transform="translate(-39.139 -12.127)" fill="#261d2a"/>
        <path id="Trazado_876145" data-name="Trazado 876145" d="M152.209,73.749a10.516,10.516,0,1,1,10.516-10.516,10.527,10.527,0,0,1-10.516,10.516m0-20.331a9.815,9.815,0,1,0,9.815,9.815,9.826,9.826,0,0,0-9.815-9.815" transform="translate(-42.434 -15.788)" fill="#261d2a"/>
        <path id="Trazado_876146" data-name="Trazado 876146" d="M154.2,71.246a5.86,5.86,0,1,1,5.86-5.86,5.866,5.866,0,0,1-5.86,5.86m0-11.02a5.16,5.16,0,1,0,5.159,5.16,5.165,5.165,0,0,0-5.159-5.16" transform="translate(-44.424 -17.827)" fill="#261d2a"/>
        <path id="Trazado_876147" data-name="Trazado 876147" d="M76.3,86.329S65.81,135.063,65.712,136.38s5.407,22.074,6.991,20.226c4.878-5.7,13.475-15.931,13.475-15.931l11.7-50.082s-20.171-7.2-21.58-4.263" transform="translate(-19.679 -25.642)" fill="#fff"/>
        <path id="Trazado_876148" data-name="Trazado 876148" d="M72.331,156.923h0a.923.923,0,0,1-.661-.357c-2.1-2.258-6.556-19.009-6.455-20.362.1-1.325,10.164-48.107,10.593-50.1a.34.34,0,0,1,.027-.078c.291-.608,1.1-.9,2.46-.9,5.522,0,18.984,4.785,19.554,4.988a.35.35,0,0,1,.223.41L86.37,140.6a.353.353,0,0,1-.073.146c-.086.1-8.654,10.3-13.477,15.933a.631.631,0,0,1-.489.24M76.482,86.3c-3.629,16.86-10.493,48.934-10.569,49.955a84.423,84.423,0,0,0,2.588,10.3c2.131,7.152,3.372,9.408,3.805,9.649,4.633-5.409,12.665-14.967,13.4-15.843l11.61-49.694c-2.038-.713-14.064-4.844-19.023-4.844-1.307,0-1.7.286-1.812.476" transform="translate(-19.53 -25.493)" fill="#261d2a"/>
        <path id="Trazado_876149" data-name="Trazado 876149" d="M86.348,148.776c-1.092.385-3.237-4.356-4.511-5.547s-5.618,4.612-6.279,4.564-4.229-4.942-5.071-6.134-5.592,2.214-5.592,2.214,5.341-33.158,7.443-32.925,22.333,3.9,22.1,4.6-8.09,33.229-8.09,33.229" transform="translate(-19.434 -33.226)" fill="#7d6eb2"/>
        <path id="Trazado_876150" data-name="Trazado 876150" d="M68.644,171.948s12.3,1.587,11.646,2.89c-2.1,4.2-6.13,8.319-7.793,8.494-1.052.111-3.853-11.384-3.853-11.384" transform="translate(-20.557 -51.494)" fill="#728f9e"/>
        <path id="Trazado_876151" data-name="Trazado 876151" d="M68.92,81.767s20.741,5.9,22.167,2.77,3.565-10.312,3.565-10.312S121.64,71.178,122.3,45.4c.473-18.352-42-44.144-61.355-17.606S70.1,70.149,70.1,70.149Z" transform="translate(-16.235 -4.916)" fill="#ffd947"/>
        <path id="Trazado_876152" data-name="Trazado 876152" d="M75.688,98.9s24.347,3.835,24.246,4.6-1.5,8.025-2.636,8.754-23.415-4.218-23.415-4.218Z" transform="translate(-22.126 -29.617)" fill="#fff"/>
        <path id="Trazado_876153" data-name="Trazado 876153" d="M96.629,112.519c-3.571,0-22.181-4.124-22.972-4.3a.351.351,0,0,1-.268-.41L75.2,98.677a.354.354,0,0,1,.4-.277c.061.01,6.16.971,12.167,2.013,12.481,2.165,12.435,2.505,12.373,2.975-.011.078-1.4,8.111-2.8,9a1.324,1.324,0,0,1-.708.129m-22.485-4.91c2.58.568,19.248,4.209,22.485,4.209a1.229,1.229,0,0,0,.35-.029c.829-.532,2.155-6.536,2.43-8.3-1.6-.7-15.012-2.988-23.592-4.344Z" transform="translate(-21.977 -29.467)" fill="#261d2a"/>
        <path id="Trazado_876154" data-name="Trazado 876154" d="M97.786,113.187a.345.345,0,0,1-.08-.009l-23.488-5.452a.35.35,0,0,1,.158-.682L97.865,112.5a.35.35,0,0,1-.079.691" transform="translate(-22.145 -32.054)" fill="#261d2a"/>
        <path id="Trazado_876155" data-name="Trazado 876155" d="M99.171,107.9a.32.32,0,0,1-.072-.008l-22.9-4.775a.35.35,0,1,1,.143-.686L99.243,107.2a.35.35,0,0,1-.071.693" transform="translate(-22.735 -30.672)" fill="#261d2a"/>
        <path id="Trazado_876156" data-name="Trazado 876156" d="M95.074,90.723a.343.343,0,0,1-.165-.042.35.35,0,0,1-.142-.474C97.833,84.526,104.931,69.3,101,67.082a2.587,2.587,0,0,0-3,.083,4.139,4.139,0,0,0-.558.5,12.961,12.961,0,0,1-.4,6.306c-.509,1.352-1.118,1.526-1.541,1.432-.272-.06-.628-.286-.785-1.024a10.031,10.031,0,0,1,1.982-6.914,4.835,4.835,0,0,0-2.059-3.346,2,2,0,0,0-2.467.455,8.945,8.945,0,0,0-1.971,2.878,12.981,12.981,0,0,1,.24,2.111c.088,2.289-.338,5.717-1.337,5.929-.23.052-.558-.018-.8-.623-.593-1.482-.038-4.768,1.164-7.475l-.008-.037c-.379-1.589-1.063-2.46-2.032-2.589a.846.846,0,0,0-.686.246c-2.572,2.236-3.346,16.439-3.4,23.637a.35.35,0,0,1-.35.348h0a.351.351,0,0,1-.348-.353c.006-.862.186-21.161,3.637-24.16a1.526,1.526,0,0,1,1.238-.412,3.1,3.1,0,0,1,2.408,2.373,8.619,8.619,0,0,1,1.781-2.4,2.7,2.7,0,0,1,3.269-.544,5.233,5.233,0,0,1,2.284,3.36c.106-.095.214-.184.326-.265a3.273,3.273,0,0,1,3.761-.129c2.289,1.29,1.959,5.767-.982,13.308A111.13,111.13,0,0,1,95.383,90.54a.351.351,0,0,1-.309.184m-5.4-22.02c-.837,2.277-1.194,4.74-.728,5.9.02.05.039.09.055.121.427-.6.939-3.445.673-6.026m7.178-.291a9.506,9.506,0,0,0-1.458,5.821c.066.312.173.469.249.485.165.036.46-.261.736-.995a12.246,12.246,0,0,0,.473-5.311" transform="translate(-24.748 -18.917)" fill="#261d2a"/>
        <path id="Trazado_876157" data-name="Trazado 876157" d="M88.244,145.269a.342.342,0,0,1-.088-.011.35.35,0,0,1-.252-.427L95,117.336a.351.351,0,0,1,.679.175l-7.093,27.5a.35.35,0,0,1-.339.263" transform="translate(-26.322 -35.061)" fill="#261d2a"/>
        <path id="Trazado_876158" data-name="Trazado 876158" d="M72.369,142.632a.341.341,0,0,1-.088-.011.349.349,0,0,1-.251-.427L79.3,114.085a.35.35,0,1,1,.677.175l-7.268,28.109a.349.349,0,0,1-.338.263" transform="translate(-21.568 -34.087)" fill="#261d2a"/>
        <path id="Trazado_876159" data-name="Trazado 876159" d="M148.541,118.929s-.785-5.538,4.571-3.8,3.665,6.836,1.613,5.119,1.709-7.648,5.819-5.063,3.246,7.685.352,8.089,1.7-5.946,5.384-2.088-4.212,11.034-7.5,8.456-.775-6.815.032-4.256-1.276,5.1-7.058,5.054-3.236-8.961-1.191-6.392-1.28,5.523-5.387,2.513.483-9.359,3.36-7.635" transform="translate(-42.989 -34.304)" fill="#fff"/>
        <path id="Trazado_876160" data-name="Trazado 876160" d="M151.751,130.645H151.6a3.594,3.594,0,0,1-3.709-2.638,6.56,6.56,0,0,1-3.074-1.309,4.208,4.208,0,0,1-1.518-4.966c.66-2.015,2.429-3.594,4.028-3.594a2.414,2.414,0,0,1,.668.093,4.56,4.56,0,0,1,.869-3.01c.86-.991,2.287-1.192,4.2-.57a7.28,7.28,0,0,1,1.952.952,4.529,4.529,0,0,1,3.281-1.556,4.247,4.247,0,0,1,2.277.7,6.02,6.02,0,0,1,2.963,4.7,3.959,3.959,0,0,1,2.84,1.356,4.011,4.011,0,0,1,.619,4.588c-1.14,2.667-4.26,5.007-6.677,5.007a3.007,3.007,0,0,1-1.906-.621,5.267,5.267,0,0,1-.7-.664,9.771,9.771,0,0,1-5.961,1.538m-3.114-2.617a2.854,2.854,0,0,0,2.972,1.916h.142c3.039,0,4.674-.72,5.54-1.4a3.8,3.8,0,0,1-.337-3.651,1.228,1.228,0,0,1,1.019-.8c.261,0,.741.135,1.026,1.037a3.459,3.459,0,0,1-.769,3.5,4.527,4.527,0,0,0,.619.585,2.323,2.323,0,0,0,1.474.471c2.133,0,5.009-2.184,6.034-4.581a3.355,3.355,0,0,0-.481-3.828,3.285,3.285,0,0,0-2.345-1.14,3.422,3.422,0,0,1-2.738,3.333,2.2,2.2,0,0,1-.3.022h0a.894.894,0,0,1-1.012-.854c-.048-1.038,1.444-2.8,3.359-3.143a5.324,5.324,0,0,0-2.637-4.164,3.54,3.54,0,0,0-4.64.708,3.528,3.528,0,0,1,1.185,3.654,1.486,1.486,0,0,1-1.351,1.1,1.637,1.637,0,0,1-1.051-.431c-1.128-.944-.776-2.819.228-4.224a6.591,6.591,0,0,0-1.725-.829c-1.623-.528-2.781-.411-3.454.363a4.461,4.461,0,0,0-.661,3.051.351.351,0,0,1-.527.35,1.687,1.687,0,0,0-.878-.242c-1.292,0-2.8,1.4-3.362,3.112a3.582,3.582,0,0,0,1.266,4.183,6.077,6.077,0,0,0,2.512,1.146,5.174,5.174,0,0,1,.818-3.585,1.4,1.4,0,0,1,1.071-.607,1.345,1.345,0,0,1,1.052.6,2.624,2.624,0,0,1,.468,2.83,2.9,2.9,0,0,1-2.52,1.515m9.335-3.23c-.075,0-.241.109-.393.413a3.108,3.108,0,0,0,.231,2.842,2.743,2.743,0,0,0,.52-2.708c-.137-.433-.294-.547-.358-.547m-8.336-1.011a.756.756,0,0,0-.524.343,4.517,4.517,0,0,0-.651,3.2,2.255,2.255,0,0,0,2.064-1.124,1.953,1.953,0,0,0-.385-2.09.749.749,0,0,0-.5-.333m13.182-3.569a3.5,3.5,0,0,0-2.636,2.393c0,.078.008.185.312.185.053-.014.128-.006.2-.015a2.7,2.7,0,0,0,2.123-2.563m-7.7-3.631c-.881,1.241-1.039,2.649-.324,3.247a.741.741,0,0,0,1.292-.368,2.821,2.821,0,0,0-.969-2.878" transform="translate(-42.837 -34.154)" fill="#261d2a"/>
        <path id="Trazado_876161" data-name="Trazado 876161" d="M37.228,172.378s-.785-5.538,4.571-3.8,3.665,6.836,1.613,5.119,1.709-7.648,5.819-5.063,3.246,7.685.352,8.089,1.7-5.946,5.384-2.088-4.212,11.034-7.5,8.456-.775-6.815.032-4.256-1.276,5.1-7.058,5.054-3.236-8.961-1.191-6.392-1.28,5.523-5.387,2.513.483-9.359,3.36-7.635" transform="translate(-9.653 -50.31)" fill="#fff"/>
        <path id="Trazado_876162" data-name="Trazado 876162" d="M40.439,184.094h-.147a3.594,3.594,0,0,1-3.709-2.638,6.56,6.56,0,0,1-3.074-1.309,4.208,4.208,0,0,1-1.518-4.966c.66-2.015,2.429-3.594,4.028-3.594a2.414,2.414,0,0,1,.668.093,4.559,4.559,0,0,1,.869-3.01c.86-.991,2.287-1.192,4.2-.57a7.279,7.279,0,0,1,1.952.952,4.529,4.529,0,0,1,3.281-1.556,4.247,4.247,0,0,1,2.277.7,6.02,6.02,0,0,1,2.963,4.7,3.959,3.959,0,0,1,2.84,1.356,4.011,4.011,0,0,1,.619,4.588c-1.14,2.667-4.26,5.007-6.677,5.007a3.007,3.007,0,0,1-1.906-.621,5.267,5.267,0,0,1-.7-.664,9.771,9.771,0,0,1-5.961,1.538m-3.114-2.617a2.854,2.854,0,0,0,2.972,1.916h.142c3.039,0,4.674-.72,5.54-1.4a3.8,3.8,0,0,1-.337-3.651,1.228,1.228,0,0,1,1.019-.8c.261,0,.741.135,1.026,1.037a3.459,3.459,0,0,1-.769,3.5,4.527,4.527,0,0,0,.619.585,2.323,2.323,0,0,0,1.474.471c2.133,0,5.009-2.184,6.034-4.581a3.355,3.355,0,0,0-.481-3.828,3.286,3.286,0,0,0-2.345-1.14,3.422,3.422,0,0,1-2.738,3.333,2.2,2.2,0,0,1-.3.022h0a.894.894,0,0,1-1.012-.854c-.048-1.038,1.444-2.8,3.359-3.143a5.324,5.324,0,0,0-2.637-4.164,3.54,3.54,0,0,0-4.64.708,3.528,3.528,0,0,1,1.185,3.654,1.486,1.486,0,0,1-1.351,1.1,1.637,1.637,0,0,1-1.051-.431c-1.128-.944-.776-2.819.228-4.224a6.591,6.591,0,0,0-1.725-.829c-1.623-.528-2.781-.411-3.454.363a4.461,4.461,0,0,0-.661,3.051.351.351,0,0,1-.527.35,1.687,1.687,0,0,0-.878-.242c-1.292,0-2.8,1.4-3.362,3.112a3.582,3.582,0,0,0,1.266,4.183,6.077,6.077,0,0,0,2.512,1.146,5.174,5.174,0,0,1,.818-3.585,1.4,1.4,0,0,1,1.071-.607,1.345,1.345,0,0,1,1.052.6,2.624,2.624,0,0,1,.468,2.83,2.9,2.9,0,0,1-2.52,1.515m9.335-3.23c-.075,0-.241.109-.393.413A3.108,3.108,0,0,0,46.5,181.5a2.743,2.743,0,0,0,.52-2.708c-.137-.433-.294-.547-.358-.547m-8.336-1.011a.756.756,0,0,0-.524.343,4.517,4.517,0,0,0-.651,3.2,2.255,2.255,0,0,0,2.064-1.124,1.953,1.953,0,0,0-.385-2.09.749.749,0,0,0-.5-.333m13.182-3.569a3.5,3.5,0,0,0-2.636,2.393c0,.078.008.185.312.185.053-.014.128-.006.2-.015a2.7,2.7,0,0,0,2.123-2.563m-7.7-3.631c-.881,1.241-1.039,2.649-.324,3.247a.741.741,0,0,0,1.292-.368,2.821,2.821,0,0,0-.969-2.878" transform="translate(-9.502 -50.161)" fill="#261d2a"/>
        <path id="Trazado_876163" data-name="Trazado 876163" d="M5.5,97.6s-.785-5.538,4.571-3.8,3.665,6.836,1.613,5.119,1.709-7.648,5.82-5.063,3.246,7.685.352,8.089,1.7-5.946,5.384-2.088-4.212,11.034-7.5,8.456-.774-6.815.032-4.256-1.276,5.1-7.058,5.054-3.236-8.961-1.191-6.392-1.28,5.523-5.386,2.513S2.623,95.872,5.5,97.6" transform="translate(-0.152 -27.915)" fill="#fff"/>
        <path id="Trazado_876164" data-name="Trazado 876164" d="M8.711,109.312H8.564a3.593,3.593,0,0,1-3.709-2.638,6.563,6.563,0,0,1-3.074-1.309A4.207,4.207,0,0,1,.264,100.4c.659-2.016,2.429-3.6,4.027-3.6a2.414,2.414,0,0,1,.668.093,4.56,4.56,0,0,1,.869-3.01c.861-.992,2.287-1.192,4.2-.57a7.28,7.28,0,0,1,1.952.952,4.532,4.532,0,0,1,3.281-1.556,4.245,4.245,0,0,1,2.277.7,6.021,6.021,0,0,1,2.963,4.7,3.958,3.958,0,0,1,2.841,1.357,4.01,4.01,0,0,1,.618,4.588c-1.14,2.667-4.26,5.007-6.677,5.007a3.008,3.008,0,0,1-1.907-.621,5.267,5.267,0,0,1-.7-.664,9.772,9.772,0,0,1-5.961,1.538M5.6,106.695a2.853,2.853,0,0,0,2.972,1.916h.142c3.039,0,4.674-.72,5.54-1.4a3.8,3.8,0,0,1-.337-3.651,1.23,1.23,0,0,1,1.019-.8c.261,0,.742.135,1.026,1.037a3.461,3.461,0,0,1-.768,3.5,4.528,4.528,0,0,0,.619.586,2.327,2.327,0,0,0,1.475.471c2.132,0,5.008-2.184,6.033-4.581a3.355,3.355,0,0,0-.481-3.828,3.288,3.288,0,0,0-2.345-1.14,3.422,3.422,0,0,1-2.738,3.333,2.2,2.2,0,0,1-.3.022h0a.894.894,0,0,1-1.012-.854c-.048-1.038,1.444-2.8,3.359-3.143A5.324,5.324,0,0,0,17.166,94a3.54,3.54,0,0,0-4.639.709,3.53,3.53,0,0,1,1.185,3.653,1.487,1.487,0,0,1-1.352,1.1,1.636,1.636,0,0,1-1.051-.43c-1.128-.944-.776-2.82.228-4.224a6.57,6.57,0,0,0-1.725-.83c-1.622-.528-2.78-.412-3.453.361A4.48,4.48,0,0,0,5.7,97.4a.351.351,0,0,1-.527.349,1.687,1.687,0,0,0-.878-.242C3,97.5,1.492,98.9.93,100.617A3.582,3.582,0,0,0,2.2,104.8a6.077,6.077,0,0,0,2.512,1.146,5.174,5.174,0,0,1,.818-3.585,1.4,1.4,0,0,1,1.071-.606,1.346,1.346,0,0,1,1.053.6,2.624,2.624,0,0,1,.467,2.83,2.9,2.9,0,0,1-2.52,1.515m9.335-3.23c-.075,0-.24.109-.392.413a3.109,3.109,0,0,0,.23,2.843,2.743,2.743,0,0,0,.52-2.708c-.137-.433-.294-.547-.358-.547M6.6,102.454a.752.752,0,0,0-.523.343,4.513,4.513,0,0,0-.651,3.2,2.255,2.255,0,0,0,2.064-1.124,1.955,1.955,0,0,0-.385-2.09.753.753,0,0,0-.505-.332m13.182-3.57a3.5,3.5,0,0,0-2.636,2.393c0,.078.008.185.312.185.027-.009.128-.006.2-.015a2.7,2.7,0,0,0,2.123-2.563m-7.7-3.631c-.881,1.241-1.038,2.649-.324,3.247a.981.981,0,0,0,.6.267c.293,0,.551-.237.691-.635a2.821,2.821,0,0,0-.969-2.878" transform="translate(0 -27.765)" fill="#261d2a"/>
        <path id="Trazado_876165" data-name="Trazado 876165" d="M132.518,42.68a.351.351,0,0,1-.343-.282,3.553,3.553,0,0,0-1.491-2.115.35.35,0,1,1,.364-.6,4.243,4.243,0,0,1,1.814,2.577.35.35,0,0,1-.275.412.338.338,0,0,1-.069.007" transform="translate(-39.086 -11.869)" fill="#261d2a"/>
        <path id="Trazado_876166" data-name="Trazado 876166" d="M131.93,48.136a.351.351,0,0,1-.343-.282,3.556,3.556,0,0,0-1.491-2.116.35.35,0,1,1,.364-.6,4.24,4.24,0,0,1,1.814,2.577.35.35,0,0,1-.275.412.338.338,0,0,1-.069.007" transform="translate(-38.91 -13.503)" fill="#261d2a"/>
        <path id="Trazado_876167" data-name="Trazado 876167" d="M138.206,47.1a.351.351,0,0,1-.343-.282,3.556,3.556,0,0,0-1.491-2.116.35.35,0,1,1,.364-.6,4.24,4.24,0,0,1,1.814,2.577.35.35,0,0,1-.275.412.338.338,0,0,1-.069.007" transform="translate(-40.79 -13.194)" fill="#261d2a"/>
        <path id="Trazado_876168" data-name="Trazado 876168" d="M125.813,42.453a.351.351,0,0,1-.343-.282,3.556,3.556,0,0,0-1.491-2.116.35.35,0,1,1,.364-.6,4.246,4.246,0,0,1,1.814,2.577.35.35,0,0,1-.275.412.338.338,0,0,1-.069.007" transform="translate(-37.078 -11.801)" fill="#261d2a"/>
        <path id="Trazado_876169" data-name="Trazado 876169" d="M126.657,36.466a.351.351,0,0,1-.343-.282,3.583,3.583,0,0,0-1.491-2.116.35.35,0,0,1,.365-.6A4.246,4.246,0,0,1,127,36.047a.35.35,0,0,1-.275.412.338.338,0,0,1-.069.007" transform="translate(-37.331 -10.008)" fill="#261d2a"/>
        <path id="Trazado_876170" data-name="Trazado 876170" d="M137.7,53.674a.351.351,0,0,1-.343-.282,3.553,3.553,0,0,0-1.491-2.115.351.351,0,1,1,.365-.6,4.249,4.249,0,0,1,1.814,2.577.35.35,0,0,1-.275.412.338.338,0,0,1-.069.007" transform="translate(-40.638 -15.162)" fill="#261d2a"/>
        <path id="Trazado_876171" data-name="Trazado 876171" d="M140.625,61.068a.328.328,0,0,1-.045,0,.351.351,0,0,1-.3-.392,3.558,3.558,0,0,0-.737-2.481.351.351,0,0,1,.537-.451,4.244,4.244,0,0,1,.9,3.021.351.351,0,0,1-.347.306" transform="translate(-41.764 -17.255)" fill="#261d2a"/>
        <path id="Trazado_876172" data-name="Trazado 876172" d="M134.692,57.442h-.031a.351.351,0,0,1-.319-.379,3.559,3.559,0,0,0-.836-2.45.35.35,0,1,1,.518-.472,4.248,4.248,0,0,1,1.016,2.982.351.351,0,0,1-.349.32" transform="translate(-39.955 -16.18)" fill="#261d2a"/>
        <path id="Trazado_876173" data-name="Trazado 876173" d="M38.863,143.943c-.607,0-1.171-.012-1.531-.02l-.342-.006c-.4,0-.466-.234-.5-2.209a10.334,10.334,0,0,1-3.1-1.3c-1.485,1.437-1.609,1.437-1.779,1.437a.387.387,0,0,1-.261-.108c-.043-.043-.13-.126-.249-.24-2.49-2.387-2.993-3.11-3-3.5a.451.451,0,0,1,.129-.325c.056-.056.569-.566,1.38-1.368a10.309,10.309,0,0,1-.9-2.543c-1.1.006-1.79.008-1.868.008a.448.448,0,0,1-.321-.139c-.275-.28-.429-1.147-.357-4.6,0-.163.006-.282.006-.343,0-.4.09-.481,2.847-.509a10.383,10.383,0,0,1,1.353-2.637c-1.043-1.1-1.689-1.783-1.689-1.783a.35.35,0,0,1,0-.475c.361-.4,2.2-2.4,2.927-2.649a.457.457,0,0,1,.127-.02c.175,0,.373,0,2.277,1.7a10.343,10.343,0,0,1,2.8-1.007c.047-1.791.079-2.93.079-2.93a.35.35,0,0,1,.333-.34S38,118,38.874,118a5.66,5.66,0,0,1,2.282.237c.223.111.373.186.53,3.233a10.357,10.357,0,0,1,2.341.963c2.024-1.818,2.227-1.818,2.408-1.818a.456.456,0,0,1,.126.02c.731.244,2.567,2.249,2.927,2.649a.35.35,0,0,1-.006.475s-.724.768-1.878,1.984a10.364,10.364,0,0,1,1.3,2.76c1.713.045,2.8.076,2.8.076a.35.35,0,0,1,.34.332c.027.537.147,3.254-.2,3.943-.105.209-.175.35-2.649.5a10.348,10.348,0,0,1-.874,2.727c.945.934,1.546,1.531,1.608,1.593a.448.448,0,0,1,.128.325c0,.392-.507,1.115-3,3.5-.118.113-.2.2-.246.237a.388.388,0,0,1-.261.108c-.174,0-.3,0-1.912-1.567a10.368,10.368,0,0,1-2.576,1.221c.006,1.029.008,1.67.008,1.745,0,.482-.463.7-3.208.7m-1.6-.722h.089c.355.008.915.02,1.515.02a11.066,11.066,0,0,0,2.507-.157c0-.289,0-.937-.009-1.842a.351.351,0,0,1,.254-.338,9.7,9.7,0,0,0,2.864-1.362.349.349,0,0,1,.445.036c.947.928,1.385,1.316,1.586,1.478l.064-.062a18.1,18.1,0,0,0,2.75-2.94c-.24-.238-.838-.832-1.674-1.656a.351.351,0,0,1-.065-.409,9.648,9.648,0,0,0,.965-3.023.352.352,0,0,1,.327-.3,16.581,16.581,0,0,0,2.378-.223,15.693,15.693,0,0,0,.1-3.175c-.474-.013-1.439-.04-2.724-.073a.35.35,0,0,1-.328-.257,9.711,9.711,0,0,0-1.437-3.029.351.351,0,0,1,.032-.444c.873-.919,1.527-1.611,1.849-1.952a15.221,15.221,0,0,0-2.336-2.181,26.177,26.177,0,0,0-2.108,1.791.351.351,0,0,1-.414.041,9.649,9.649,0,0,0-2.628-1.08.352.352,0,0,1-.265-.323,20.538,20.538,0,0,0-.252-2.932,8.122,8.122,0,0,0-1.873-.13c-.513,0-1,.015-1.3.026-.014.493-.042,1.519-.078,2.884a.349.349,0,0,1-.289.336,9.659,9.659,0,0,0-3.077,1.1.35.35,0,0,1-.407-.045,18.049,18.049,0,0,0-1.993-1.661,15.741,15.741,0,0,0-2.317,2.172c.3.317.884.934,1.664,1.756a.351.351,0,0,1,.027.45,9.688,9.688,0,0,0-1.5,2.911.352.352,0,0,1-.332.246c-1.5.012-2.137.05-2.408.078l0,.09A18.045,18.045,0,0,0,27,133.07c.3,0,1.007,0,1.994-.009a.33.33,0,0,1,.346.286,9.672,9.672,0,0,0,1.012,2.858.35.35,0,0,1-.062.417c-.716.708-1.23,1.218-1.449,1.435a18.125,18.125,0,0,0,2.746,2.937l.067.064c.191-.154.6-.512,1.449-1.344a.349.349,0,0,1,.438-.041,9.666,9.666,0,0,0,3.371,1.411.35.35,0,0,1,.278.338c.016,1.07.048,1.568.072,1.8" transform="translate(-7.829 -35.339)" fill="#261d2a"/>
        <path id="Trazado_876174" data-name="Trazado 876174" d="M41.439,141.688a7.528,7.528,0,1,1,7.528-7.528,7.537,7.537,0,0,1-7.528,7.528m0-14.355a6.827,6.827,0,1,0,6.827,6.827,6.835,6.835,0,0,0-6.827-6.827" transform="translate(-10.156 -37.923)" fill="#261d2a"/>
        <path id="Trazado_876175" data-name="Trazado 876175" d="M42.844,139.92a4.241,4.241,0,1,1,4.241-4.241,4.245,4.245,0,0,1-4.241,4.241m0-7.781a3.54,3.54,0,1,0,3.54,3.54,3.544,3.544,0,0,0-3.54-3.54" transform="translate(-11.561 -39.363)" fill="#261d2a"/>
        <path id="Trazado_876176" data-name="Trazado 876176" d="M10.443,153.066c-.258,0-.526,0-1.283-2.964-2.53-.474-2.747-.764-2.82-.86a.471.471,0,0,1-.066-.357c.043-.158.146-.523,3.019-1.694,1.02-2.7,1.372-2.7,1.583-2.7a.487.487,0,0,1,.332.169,7.392,7.392,0,0,1,.609,1.912c.083.333.184.736.24.9.147.067.492.188.778.289,1.447.512,1.849.7,1.916,1.033a.475.475,0,0,1-.13.386,13.523,13.523,0,0,1-2.481,1.077c-1.2,2.774-1.465,2.789-1.676,2.8h-.022m-3.236-4.13c.493.148,1.459.365,2.3.518a.35.35,0,0,1,.277.259c.218.867.5,1.856.7,2.384.277-.492.717-1.426,1.073-2.249a.347.347,0,0,1,.2-.191c.719-.256,1.533-.574,2.008-.788-.344-.148-.848-.326-1.167-.439-.827-.292-1-.361-1.1-.5a4.3,4.3,0,0,1-.364-1.183c-.086-.345-.221-.884-.337-1.26a20.192,20.192,0,0,0-.906,2.094.346.346,0,0,1-.2.2,23.631,23.631,0,0,0-2.492,1.153" transform="translate(-1.876 -43.273)" fill="#261d2a"/>
        <path id="Trazado_876177" data-name="Trazado 876177" d="M99.857,8.57c-.258,0-.526,0-1.283-2.964-2.53-.475-2.747-.764-2.82-.861a.47.47,0,0,1-.066-.357c.043-.157.146-.522,3.019-1.693C99.727,0,100.078,0,100.289,0a.487.487,0,0,1,.333.169,7.419,7.419,0,0,1,.61,1.914c.083.332.184.735.24.9.147.067.493.189.78.291,1.447.511,1.847.7,1.915,1.032a.472.472,0,0,1-.13.385,13.519,13.519,0,0,1-2.481,1.078c-1.2,2.774-1.465,2.789-1.676,2.8h-.022M96.621,4.44c.493.148,1.459.365,2.3.518a.35.35,0,0,1,.277.259c.218.867.5,1.856.7,2.384.277-.492.717-1.426,1.073-2.249a.347.347,0,0,1,.2-.191c.719-.257,1.533-.574,2.008-.788-.343-.148-.846-.326-1.166-.439-.828-.293-1-.362-1.1-.5a4.3,4.3,0,0,1-.363-1.181c-.086-.345-.222-.885-.338-1.262a20.126,20.126,0,0,0-.906,2.094.346.346,0,0,1-.2.2A23.632,23.632,0,0,0,96.621,4.44" transform="translate(-28.653)" fill="#261d2a"/>
        <path id="Trazado_876178" data-name="Trazado 876178" d="M136.094,103.447c-.258,0-.526,0-1.283-2.964-2.53-.474-2.747-.764-2.82-.86a.471.471,0,0,1-.066-.357c.043-.158.146-.523,3.019-1.694,1.02-2.7,1.372-2.7,1.582-2.7a.487.487,0,0,1,.333.169,7.419,7.419,0,0,1,.61,1.914c.083.332.184.735.24.9.147.067.492.188.778.289,1.447.512,1.849.7,1.916,1.033a.473.473,0,0,1-.13.385,13.448,13.448,0,0,1-2.481,1.078c-1.2,2.774-1.465,2.789-1.676,2.8h-.022m-3.236-4.13c.493.148,1.459.365,2.3.518a.35.35,0,0,1,.277.259c.218.867.5,1.856.7,2.384.277-.492.717-1.426,1.073-2.249a.347.347,0,0,1,.2-.191c.719-.256,1.533-.574,2.008-.788-.343-.148-.848-.326-1.167-.439-.827-.292-1-.361-1.1-.5a4.269,4.269,0,0,1-.364-1.182c-.086-.345-.222-.885-.338-1.262a20.126,20.126,0,0,0-.906,2.094.346.346,0,0,1-.2.2,23.634,23.634,0,0,0-2.492,1.153" transform="translate(-39.505 -28.413)" fill="#261d2a"/>
        <path id="Trazado_876179" data-name="Trazado 876179" d="M163.52,152.076a2.626,2.626,0,1,1,2.626-2.626,2.628,2.628,0,0,1-2.626,2.626m0-4.551a1.925,1.925,0,1,0,1.925,1.925,1.927,1.927,0,0,0-1.925-1.925" transform="translate(-48.184 -43.971)" fill="#261d2a"/>
        <path id="Trazado_876180" data-name="Trazado 876180" d="M19.542,43.954a2.626,2.626,0,1,1,2.626-2.626,2.628,2.628,0,0,1-2.626,2.626m0-4.551a1.925,1.925,0,1,0,1.925,1.925A1.927,1.927,0,0,0,19.542,39.4" transform="translate(-5.066 -11.591)" fill="#261d2a"/>
        <path id="Trazado_876181" data-name="Trazado 876181" d="M103.987,184.558a2.626,2.626,0,1,1,2.626-2.626,2.628,2.628,0,0,1-2.626,2.626m0-4.551a1.925,1.925,0,1,0,1.925,1.925,1.927,1.927,0,0,0-1.925-1.925" transform="translate(-30.355 -53.698)" fill="#261d2a"/>
        <path id="Trazado_876182" data-name="Trazado 876182" d="M130.689,174.745c-.246,0-.811-.012-1.662-3.19-3.635-.951-3.756-1.4-3.8-1.569a.414.414,0,0,1,.112-.408.355.355,0,0,1,.071-.054c.013-.008,1.314-.754,2.885-1.582-.315-2.374.038-2.782.157-2.918a.592.592,0,0,1,.716-.144,9.806,9.806,0,0,1,2.094,1.59,8.068,8.068,0,0,1,2.627-.873.583.583,0,0,1,.651.443,8.39,8.39,0,0,1-.688,2.993,18.03,18.03,0,0,1,2.154,2.6.574.574,0,0,1-.041.553c-.319.476-1.407.479-3.475.126a6.309,6.309,0,0,1-1.538,2.358.52.52,0,0,1-.26.071Zm-.88-2.993a7.62,7.62,0,0,0,.883,2.235,7.5,7.5,0,0,0,1.083-1.8c-.628-.122-1.293-.268-1.966-.432m2.986-.1a9.152,9.152,0,0,0,2.513.156,19.081,19.081,0,0,0-1.728-2.045c-.244.637-.513,1.285-.785,1.889m-3.194-.677c.851.216,1.7.4,2.482.551.336-.737.672-1.549.962-2.331-.648-.677-1.316-1.34-1.915-1.9-.611.287-1.306.633-2.071,1.031.131.846.32,1.77.542,2.647M126.17,169.9a18.968,18.968,0,0,0,2.661.88c-.168-.7-.314-1.422-.426-2.1-.943.5-1.766.959-2.235,1.222m5.649-2.911c.475.45.984.956,1.489,1.476a9.1,9.1,0,0,0,.551-2.158,6.955,6.955,0,0,0-2.04.682m-2.87-1.437a5.208,5.208,0,0,0,.008,2.045c.582-.3,1.122-.57,1.614-.8a9.446,9.446,0,0,0-1.622-1.241" transform="translate(-37.498 -49.359)" fill="#261d2a"/>
        <path id="Trazado_876183" data-name="Trazado 876183" d="M54.764,18.549c-.226,0-.747,0-2.5-2.289a6.879,6.879,0,0,1-2.732.679.516.516,0,0,1-.362-.3c-.077-.17-.312-.682,1.077-3.3-2.014-3.172-1.8-3.582-1.716-3.738a.418.418,0,0,1,.361-.222.425.425,0,0,1,.089.008c.015,0,1.475.343,3.19.807,1.442-2.035,1.97-2.035,2.173-2.035a.59.59,0,0,1,.553.386,9.871,9.871,0,0,1,.449,2.591c2.2.736,2.617,1.136,2.736,1.457a.526.526,0,0,1-.041.461A8.417,8.417,0,0,1,55.5,14.783a18.08,18.08,0,0,1-.2,3.374.57.57,0,0,1-.542.392m-1.822-2.564a7.183,7.183,0,0,0,1.733,1.826,19.087,19.087,0,0,0,.127-2.675c-.612.3-1.25.591-1.861.849m-2.253-1.964a7.579,7.579,0,0,0-.876,2.238,8.211,8.211,0,0,0,2.02-.583c-.376-.517-.764-1.077-1.145-1.655m.375-.708c.476.737.97,1.454,1.442,2.094.748-.31,1.547-.677,2.291-1.051-.013-.937-.05-1.877-.108-2.694-.642-.206-1.387-.426-2.219-.656-.481.708-.972,1.514-1.407,2.308M55.407,11.9c.041.654.071,1.371.085,2.095a9.039,9.039,0,0,0,1.88-1.211,6.9,6.9,0,0,0-1.965-.884m-6.118-1.716a18.919,18.919,0,0,0,1.348,2.456c.355-.628.739-1.255,1.12-1.829-1.032-.275-1.946-.5-2.468-.627M52.9,10.4c.63.177,1.209.347,1.73.511a9.495,9.495,0,0,0-.343-2.015A5.193,5.193,0,0,0,52.9,10.4" transform="translate(-14.521 -2.445)" fill="#261d2a"/>
        <path id="Trazado_876184" data-name="Trazado 876184" d="M40.911,46.506c-.636,0-1.762-1.765-3.345-5.248a.352.352,0,0,1,.04-.357c1.989-2.612,4.9-6.515,6.283-8.536-1.94,1.674-5.877,5.323-8.5,7.8a.367.367,0,0,1-.264.1c-.585-.04-3.535-.284-4.151-1.2a.488.488,0,0,1,0-.519c.747-1.4,12.843-7.766,13.973-7.766a.714.714,0,0,1,.109.011.342.342,0,0,1,.067.021l.006,0,.007,0a.38.38,0,0,1,.085.048h0c.2.157.308.354-.1,2.341-.318,1.557-3.08,13.026-4.092,13.288a.674.674,0,0,1-.124.015m-2.621-5.348a23.224,23.224,0,0,0,2.556,4.572c.74-1.327,3.055-9.693,3.7-13.093-.878,1.332-2.667,3.811-6.252,8.521m-6.632-2.387a8.631,8.631,0,0,0,3.365.778c2.781-2.628,5.942-5.568,7.949-7.289-3.508,1.667-10.473,5.475-11.314,6.511" transform="translate(-9.255 -9.216)" fill="#261d2a"/>
        <path id="Trazado_876185" data-name="Trazado 876185" d="M38.84,49.055a.518.518,0,0,1-.249-.062c-.509-.272-1.386-2.908-2.032-5.071a.35.35,0,1,1,.671-.2,30.618,30.618,0,0,0,1.657,4.591A7.278,7.278,0,0,0,40.12,46.5a.35.35,0,1,1,.622.323c-.312.6-1.1,2.018-1.723,2.209a.612.612,0,0,1-.179.028" transform="translate(-10.944 -13.018)" fill="#261d2a"/>
        <path id="Trazado_876186" data-name="Trazado 876186" d="M107.969,146.714h-.011a12.874,12.874,0,0,1-1.435-.125.35.35,0,0,1-.3-.4.346.346,0,0,1,.4-.3,12.121,12.121,0,0,0,1.356.118.35.35,0,0,1-.011.7m1.4-.032a.35.35,0,0,1-.026-.7c.448-.034.9-.092,1.354-.172a.35.35,0,1,1,.123.69c-.473.084-.952.144-1.424.18h-.027m-4.165-.375a.364.364,0,0,1-.094-.013,7.449,7.449,0,0,1-1.385-.51.35.35,0,0,1,.326-.619,7,7,0,0,0,1.246.454.35.35,0,0,1-.093.688m6.92-.111a.35.35,0,0,1-.092-.687c.431-.119.869-.261,1.3-.422a.35.35,0,1,1,.244.656c-.453.168-.91.317-1.36.441a.33.33,0,0,1-.094.013m2.624-.972a.35.35,0,0,1-.148-.668c.408-.19.82-.4,1.224-.626a.35.35,0,1,1,.341.612c-.42.234-.847.453-1.27.649a.346.346,0,0,1-.147.033m2.447-1.36a.35.35,0,0,1-.191-.644q.56-.361,1.135-.784a.35.35,0,0,1,.415.565q-.593.436-1.17.808a.346.346,0,0,1-.19.056m2.257-1.656a.35.35,0,0,1-.223-.621q.519-.427,1.047-.905a.351.351,0,1,1,.471.519q-.541.491-1.073.927a.346.346,0,0,1-.222.08m2.076-1.88a.35.35,0,0,1-.247-.6l.105-.105c.294-.294.572-.595.829-.9a.35.35,0,1,1,.534.453c-.268.317-.56.633-.866.939l-.109.108a.348.348,0,0,1-.247.1m1.8-2.138a.35.35,0,0,1-.289-.547,11.678,11.678,0,0,0,.7-1.166.35.35,0,0,1,.621.324,12.2,12.2,0,0,1-.741,1.236.35.35,0,0,1-.29.153m1.286-2.481a.343.343,0,0,1-.12-.021.35.35,0,0,1-.209-.449,9.852,9.852,0,0,0,.375-1.3.35.35,0,0,1,.685.148,10.661,10.661,0,0,1-.4,1.391.35.35,0,0,1-.329.23m.588-2.73h-.025a.35.35,0,0,1-.324-.374c.018-.237.025-.474.025-.709,0-.215-.006-.43-.02-.644a.35.35,0,0,1,.326-.372.36.36,0,0,1,.373.327q.022.343.022.689c0,.253-.008.506-.027.759a.35.35,0,0,1-.349.325m-.177-2.788a.35.35,0,0,1-.343-.283,11.632,11.632,0,0,0-.34-1.315.35.35,0,0,1,.667-.215,12.159,12.159,0,0,1,.36,1.4.351.351,0,0,1-.277.411.364.364,0,0,1-.067.006m-.851-2.662a.351.351,0,0,1-.32-.208c-.182-.408-.39-.818-.618-1.218a.35.35,0,0,1,.609-.347c.239.42.457.85.649,1.28a.349.349,0,0,1-.177.462.346.346,0,0,1-.143.031m-1.382-2.434a.35.35,0,0,1-.288-.149c-.258-.371-.538-.738-.832-1.091a.35.35,0,0,1,.539-.448c.306.368.6.751.868,1.138a.35.35,0,0,1-.287.551M121,122.942a.348.348,0,0,1-.25-.105c-.319-.326-.656-.642-1-.94a.35.35,0,0,1,.458-.53c.359.31.71.64,1.043.979a.35.35,0,0,1-.25.6m-2.119-1.832a.352.352,0,0,1-.206-.067c-.373-.273-.757-.527-1.142-.758a.35.35,0,0,1,.361-.6c.4.241.8.507,1.194.792a.35.35,0,0,1-.207.633m-2.4-1.437a.345.345,0,0,1-.149-.034,11.653,11.653,0,0,0-1.26-.509.35.35,0,1,1,.222-.665,12.4,12.4,0,0,1,1.337.54.35.35,0,0,1-.15.667m-2.654-.871a.363.363,0,0,1-.061,0,6.935,6.935,0,0,0-1.18-.109l-.144,0a.366.366,0,0,1-.359-.341.35.35,0,0,1,.341-.359l.163,0a7.708,7.708,0,0,1,1.3.118.35.35,0,0,1-.06.7" transform="translate(-31.007 -35.335)" fill="#261d2a"/>
        <path id="Trazado_876187" data-name="Trazado 876187" d="M51.627,90.587h-.018c-.022,0-.548-.029-1.431-.14a.35.35,0,1,1,.088-.695c.855.108,1.374.135,1.379.135a.35.35,0,0,1-.018.7m-2.8-.344a.345.345,0,0,1-.059,0c-.429-.073-.9-.16-1.393-.266a.35.35,0,1,1,.146-.685c.485.1.944.189,1.365.261a.35.35,0,0,1-.058.7m-2.747-.583A.336.336,0,0,1,46,89.649q-.664-.169-1.367-.38a.35.35,0,1,1,.2-.67c.457.138.905.261,1.338.373a.35.35,0,0,1-.086.689M43.4,88.846a.36.36,0,0,1-.117-.02c-.438-.156-.881-.324-1.327-.507a.35.35,0,1,1,.266-.647q.651.267,1.295.494a.35.35,0,0,1-.117.68m-2.593-1.07a.355.355,0,0,1-.151-.034q-.636-.3-1.265-.652a.35.35,0,1,1,.34-.612q.608.338,1.227.633a.35.35,0,0,1-.151.666m-2.448-1.364a.345.345,0,0,1-.19-.057c-.4-.261-.8-.537-1.168-.82a.35.35,0,0,1,.425-.558c.357.273.736.539,1.125.79a.351.351,0,0,1-.191.644m-2.226-1.7a.354.354,0,0,1-.235-.09c-.358-.322-.7-.66-1.02-1a.35.35,0,0,1,.513-.476c.3.329.633.651.975.959a.35.35,0,0,1-.234.611m-1.9-2.052a.349.349,0,0,1-.279-.138,14.021,14.021,0,0,1-.81-1.182.35.35,0,1,1,.6-.366c.235.382.494.761.77,1.124a.35.35,0,0,1-.278.562m-1.456-2.382a.35.35,0,0,1-.316-.2,13.793,13.793,0,0,1-.549-1.324.35.35,0,1,1,.66-.235,13.111,13.111,0,0,0,.521,1.257.351.351,0,0,1-.165.467.347.347,0,0,1-.151.034m-.938-2.628a.35.35,0,0,1-.339-.266c-.113-.455-.206-.928-.277-1.4a.35.35,0,0,1,.693-.1c.069.455.157.906.264,1.341a.348.348,0,0,1-.34.434M31.4,74.89a.352.352,0,0,1-.349-.318q-.069-.748-.089-1.42a.35.35,0,0,1,.7-.021q.02.65.086,1.376a.35.35,0,0,1-.316.382H31.4m-.074-2.8H31.31a.351.351,0,0,1-.331-.368c0-.093.011-.186.018-.277a.313.313,0,0,1-.247.1c-.486-.006-.968-.034-1.432-.083a.351.351,0,0,1-.311-.385.344.344,0,0,1,.385-.311c.442.047.9.074,1.366.079a.351.351,0,0,1,.28.144c.025-.24.056-.471.093-.694a.35.35,0,1,1,.691.114,12.34,12.34,0,0,0-.142,1.353.35.35,0,0,1-.35.332m.824-.593a.35.35,0,0,1-.025-.7c.457-.034.915-.088,1.361-.162a.351.351,0,0,1,.113.692c-.466.076-.944.132-1.422.168h-.027m-4.181-.261a.322.322,0,0,1-.077-.009,10.01,10.01,0,0,1-1.391-.414.35.35,0,0,1,.25-.654,9.431,9.431,0,0,0,1.293.385.35.35,0,0,1-.076.692m6.943-.2a.35.35,0,0,1-.091-.689,8.977,8.977,0,0,0,1.274-.439.35.35,0,1,1,.282.641,9.677,9.677,0,0,1-1.374.474.339.339,0,0,1-.091.012m-9.542-.819a.352.352,0,0,1-.185-.053,5.928,5.928,0,0,1-1.157-.931.35.35,0,1,1,.507-.483,5.215,5.215,0,0,0,1.02.82.35.35,0,0,1-.186.647m12.041-.385a.35.35,0,0,1-.253-.593,1.026,1.026,0,0,0,.151-.2,1.362,1.362,0,0,0,.192-.684c0-.041,0-.085-.007-.128a.35.35,0,0,1,.7-.071c.007.065.01.131.011.2a2.058,2.058,0,0,1-.284,1.035,1.748,1.748,0,0,1-.254.333.349.349,0,0,1-.253.109m-5.606-.5a.349.349,0,0,1-.332-.462,6.021,6.021,0,0,1,.633-1.34.35.35,0,0,1,.588.38,5.362,5.362,0,0,0-.558,1.185.35.35,0,0,1-.331.238M23.48,68.209a.351.351,0,0,1-.313-.193A5.323,5.323,0,0,1,22.7,66.6a.35.35,0,0,1,.689-.128,4.591,4.591,0,0,0,.409,1.229.35.35,0,0,1-.156.471.347.347,0,0,1-.157.037m13.734-.879a.346.346,0,0,1-.244-.1,2.624,2.624,0,0,0-1.058-.616.35.35,0,1,1,.207-.669,3.311,3.311,0,0,1,1.341.785.35.35,0,0,1-.245.6m-3.864-.27a.35.35,0,0,1-.205-.635,3.322,3.322,0,0,1,1.43-.595.35.35,0,0,1,.11.692,2.624,2.624,0,0,0-1.131.471.353.353,0,0,1-.2.066m-10.4-1.566h-.014a.35.35,0,0,1-.336-.364,8.969,8.969,0,0,1,.18-1.444.35.35,0,1,1,.686.14,8.348,8.348,0,0,0-.166,1.332.351.351,0,0,1-.35.337m.535-2.74a.333.333,0,0,1-.109-.018.351.351,0,0,1-.223-.442c.142-.429.313-.88.509-1.337a.35.35,0,0,1,.644.276c-.188.439-.352.87-.488,1.281a.35.35,0,0,1-.333.24m1.095-2.575a.341.341,0,0,1-.159-.039.35.35,0,0,1-.153-.471q.308-.6.68-1.246a.35.35,0,1,1,.606.352q-.363.625-.662,1.213a.351.351,0,0,1-.312.191m1.4-2.425a.351.351,0,0,1-.295-.539q.367-.574.783-1.178a.35.35,0,1,1,.577.4q-.409.593-.769,1.156a.35.35,0,0,1-.3.162m1.59-2.307a.35.35,0,0,1-.282-.558q.406-.551.851-1.124a.35.35,0,0,1,.553.431q-.439.565-.839,1.109a.35.35,0,0,1-.283.142m1.718-2.212a.35.35,0,0,1-.271-.572l.393-.478a.35.35,0,0,1,.539.448l-.389.474a.35.35,0,0,1-.272.129" transform="translate(-6.767 -15.59)" fill="#261d2a"/>
      </g>
    </g>
  </g>
</svg>
