<svg xmlns="http://www.w3.org/2000/svg" xmlns:xlink="http://www.w3.org/1999/xlink" width="163.496" height="141.547" viewBox="0 0 163.496 141.547">
  <defs>
    <clipPath id="clip-path">
      <rect id="Rectángulo_402215" data-name="Rectángulo 402215" width="154.185" height="137.496" fill="none"/>
    </clipPath>
  </defs>
  <g id="Grupo_1101396" data-name="Grupo 1101396" transform="translate(-1039.504 -12609.596)">
    <path id="_12068" data-name="12068" d="M103.949,72.366C89.64,70.39,74.525,70.874,61.5,77.128,43.447,85.8,31.588,105.464,31.133,125.491s9.978,39.705,26.1,51.6S94.6,193.2,114.312,189.632c19.875-3.6,38.53-15.279,48.9-32.614,6.648-11.116,9.755-24.842,6.082-37.264-2.217-7.5-6.75-14.14-12.082-19.858A89.263,89.263,0,0,0,103.949,72.366Z" transform="translate(1014.385 12552.667)" fill="#26aab7"/>
    <g id="Grupo_1100957" data-name="Grupo 1100957" transform="translate(988.64 12871.56) rotate(-90)">
      <path id="Trazado_873104" data-name="Trazado 873104" d="M149.557,395.548a1.582,1.582,0,1,0-.106-2.456A1.573,1.573,0,0,0,149.557,395.548Z" transform="translate(13.93 -213.31)" fill="#fff"/>
      <path id="Trazado_873105" data-name="Trazado 873105" d="M417.219,416a1.582,1.582,0,1,0-.105-2.456A1.573,1.573,0,0,0,417.219,416Z" transform="translate(-222.435 -227.035)" fill="#ffd947"/>
      <path id="Trazado_873106" data-name="Trazado 873106" d="M303.26,44.546a1.582,1.582,0,1,0-.106-2.456A1.573,1.573,0,0,0,303.26,44.546Z" transform="translate(-52.901 9.151)" fill="#7d6eb2"/>
      <path id="Trazado_873109" data-name="Trazado 873109" d="M339.452,404.413a3.448,3.448,0,1,0-1.687-4.918A3.468,3.468,0,0,0,339.452,404.413Z" transform="translate(-82.207 -231.255)" fill="#7d6eb2"/>
      <path id="Trazado_873110" data-name="Trazado 873110" d="M390.262,440.006a3.448,3.448,0,1,0-1.687-4.918A3.468,3.468,0,0,0,390.262,440.006Z" transform="translate(-181.42 -237.38)" fill="#ffd947"/>
      <path id="Trazado_873111" data-name="Trazado 873111" d="M176.115,56.142a3.448,3.448,0,1,0-1.687-4.918A3.468,3.468,0,0,0,176.115,56.142Z" transform="translate(-53.569 24.202)" fill="#ffd947"/>
      <path id="Trazado_873113" data-name="Trazado 873113" d="M321.56,66.974a3.448,3.448,0,1,0-1.687-4.918A3.468,3.468,0,0,0,321.56,66.974Z" transform="translate(-76.565 -0.895)" fill="#ffd947"/>
      <circle id="Elipse_11485" data-name="Elipse 11485" cx="1.689" cy="1.689" r="1.689" transform="translate(149.167 187.566)" fill="none" stroke="#26aab7" stroke-linecap="round" stroke-linejoin="round" stroke-width="1.5"/>
    </g>
    <g id="Grupo_1101393" data-name="Grupo 1101393" transform="translate(1048.815 12609.596)">
      <g id="Grupo_1101392" data-name="Grupo 1101392" clip-path="url(#clip-path)">
        <path id="Trazado_876676" data-name="Trazado 876676" d="M43.405,40.243s-1.9-.054-4.885-.132a16.067,16.067,0,0,0-2.383-5.026c2.029-2.137,3.321-3.505,3.321-3.505s-3.359-3.722-4.449-4.085c-.234-.079-1.682,1.116-3.809,3.036a16.045,16.045,0,0,0-4.359-1.793c-.148-3.018-.332-5-.56-5.115-1.027-.514-6.035-.257-6.035-.257s-.057,2.017-.139,5.143A16.036,16.036,0,0,0,15,30.338c-2.005-1.8-3.368-2.919-3.594-2.843-1.09.363-4.448,4.085-4.448,4.085s1.166,1.235,3.023,3.192A16.1,16.1,0,0,0,7.5,39.6c-2.7.023-4.407.1-4.407.258,0,.77-.256,7.575.514,7.575.135,0,1.421,0,3.449-.016a16.062,16.062,0,0,0,1.68,4.743c-1.467,1.45-2.407,2.383-2.5,2.48-.544.545,4.449,5.175,4.994,5.72.1.1,1.155-.843,2.8-2.445a16.077,16.077,0,0,0,5.593,2.34c.032,2.127.108,3.428.246,3.428.771,0,7.575.256,7.575-.514,0-.129,0-1.321-.014-3.21a16.1,16.1,0,0,0,4.752-2.26c1.769,1.731,2.913,2.768,3.02,2.661.544-.545,5.538-5.175,4.993-5.72-.1-.1-1.183-1.177-2.861-2.833a16.044,16.044,0,0,0,1.6-5.015c2.511-.139,4.119-.309,4.221-.514.514-1.027.256-6.034.256-6.034M23.26,55.972A11.494,11.494,0,1,1,34.753,44.479,11.494,11.494,0,0,1,23.26,55.972" transform="translate(-0.871 -6.654)" fill="#fff"/>
        <path id="Trazado_876677" data-name="Trazado 876677" d="M22.718,63.937c-.969,0-1.872-.019-2.446-.031-.263-.006-.457-.01-.553-.01-.4,0-.539,0-.6-3.5a16.363,16.363,0,0,1-5.195-2.175C11.5,60.58,11.307,60.58,11.1,60.58a.418.418,0,0,1-.275-.112c-.068-.069-.208-.2-.4-.384-3.4-3.264-4.734-4.8-4.742-5.465a.509.509,0,0,1,.146-.375c.092-.092.955-.95,2.315-2.294a16.408,16.408,0,0,1-1.533-4.317c-1.858.01-3.028.014-3.156.014a.506.506,0,0,1-.368-.161c-.469-.479-.612-2.5-.512-7.217.006-.264.01-.457.01-.554,0-.422,0-.569,4.5-.612a16.451,16.451,0,0,1,2.282-4.444c-1.737-1.831-2.818-2.976-2.818-2.976a.357.357,0,0,1-.005-.484c.35-.389,3.455-3.8,4.6-4.185a.539.539,0,0,1,.139-.021c.223,0,.527,0,3.618,2.768a16.356,16.356,0,0,1,4.707-1.691c.077-2.962.131-4.855.131-4.855a.357.357,0,0,1,.339-.347c.013,0,1.277-.065,2.651-.065,2.844,0,3.384.27,3.562.359.254.127.5.248.744,5.154a16.4,16.4,0,0,1,3.971,1.632c3.286-2.957,3.611-2.956,3.829-2.956a.529.529,0,0,1,.138.021c1.146.382,4.251,3.8,4.6,4.185a.357.357,0,0,1-.006.484s-1.207,1.279-3.121,3.294a16.4,16.4,0,0,1,2.2,4.641c2.829.074,4.623.126,4.623.126a.357.357,0,0,1,.347.339c.026.522.246,5.132-.294,6.213-.119.237-.231.462-4.233.694a16.387,16.387,0,0,1-1.474,4.6c1.572,1.554,2.577,2.552,2.677,2.653a.5.5,0,0,1,.146.375c-.007.669-1.335,2.2-4.738,5.463-.191.184-.332.319-.4.387a.418.418,0,0,1-.275.112c-.2,0-.407,0-3.038-2.566a16.413,16.413,0,0,1-4.353,2.066c.01,1.735.013,2.821.013,2.944,0,.517-.363.912-4.933.912m-2.749-.752.319.006c.57.012,1.467.031,2.43.031,3.192,0,4.014-.217,4.219-.311,0-.357-.005-1.467-.014-3.095a.358.358,0,0,1,.259-.345,15.712,15.712,0,0,0,4.647-2.21.355.355,0,0,1,.454.038,34.452,34.452,0,0,0,2.7,2.49l.234-.224c3.6-3.451,4.389-4.548,4.5-4.895-.291-.289-1.3-1.295-2.781-2.754a.357.357,0,0,1-.066-.417,15.687,15.687,0,0,0,1.566-4.9.357.357,0,0,1,.334-.3,21.273,21.273,0,0,0,3.955-.4,23.709,23.709,0,0,0,.2-5.448c-.667-.019-2.3-.064-4.553-.122a.358.358,0,0,1-.335-.262,15.684,15.684,0,0,0-2.33-4.915.357.357,0,0,1,.032-.453c1.527-1.61,2.637-2.783,3.092-3.264a23.34,23.34,0,0,0-4.01-3.716A26.968,26.968,0,0,0,31.3,30.652a.357.357,0,0,1-.422.042,15.687,15.687,0,0,0-4.262-1.752.357.357,0,0,1-.271-.329,26.6,26.6,0,0,0-.44-4.845,11.217,11.217,0,0,0-3.165-.251c-.938,0-1.824.031-2.284.049-.02.693-.069,2.429-.13,4.81a.357.357,0,0,1-.3.342,15.689,15.689,0,0,0-4.992,1.788.359.359,0,0,1-.415-.046A23.3,23.3,0,0,0,11.3,27.722a23.709,23.709,0,0,0-4,3.71c.424.449,1.421,1.5,2.8,2.951a.358.358,0,0,1,.027.459A15.715,15.715,0,0,0,7.7,39.563a.359.359,0,0,1-.339.251,38.063,38.063,0,0,0-4.055.149c0,.09,0,.2-.006.32-.106,4.989.112,6.323.276,6.649.372,0,1.573-.005,3.336-.016h0a.357.357,0,0,1,.351.291A15.726,15.726,0,0,0,8.9,51.845a.358.358,0,0,1-.062.425c-1.279,1.263-2.156,2.135-2.424,2.4.114.347.9,1.445,4.507,4.9l.231.221a31.44,31.44,0,0,0,2.476-2.275.356.356,0,0,1,.447-.042,15.669,15.669,0,0,0,5.468,2.289.357.357,0,0,1,.284.344,28.793,28.793,0,0,0,.139,3.078m3.148-7A11.851,11.851,0,1,1,34.969,44.335,11.865,11.865,0,0,1,23.118,56.187m0-22.988A11.137,11.137,0,1,0,34.254,44.335,11.149,11.149,0,0,0,23.118,33.2" transform="translate(-0.729 -6.512)" fill="#261d2a"/>
        <path id="Trazado_876678" data-name="Trazado 876678" d="M35.078,50.632a6.23,6.23,0,1,1-6.23-6.23,6.23,6.23,0,0,1,6.23,6.23" transform="translate(-6.459 -12.68)" fill="#fff"/>
        <path id="Trazado_876679" data-name="Trazado 876679" d="M28.705,57.076a6.587,6.587,0,1,1,6.587-6.587,6.594,6.594,0,0,1-6.587,6.587m0-12.46a5.873,5.873,0,1,0,5.873,5.873,5.88,5.88,0,0,0-5.873-5.873" transform="translate(-6.316 -12.537)" fill="#261d2a"/>
        <path id="Trazado_876680" data-name="Trazado 876680" d="M81.885,22.235s-1.129-.864-2.9-2.212a12,12,0,0,0,.752-4.082c2.16-.407,3.539-.672,3.539-.672s-.408-3.719-.909-4.414a12.74,12.74,0,0,0-3.63.174,11.968,11.968,0,0,0-1.856-2.987c1.228-1.891,1.983-3.171,1.894-3.34-.4-.759-3.539-2.79-3.539-2.79s-.915,1.2-2.329,3.051A11.99,11.99,0,0,0,69.02,3.842,11.709,11.709,0,0,0,68.087.552c-.818-.256-4.475.53-4.475.53s.166,1.257.436,3.251a12.028,12.028,0,0,0-3.611,1.838A13.119,13.119,0,0,0,57.657,4.4c-.336.466-3.462,4.472-3,4.808.081.059.861.618,2.094,1.5a11.987,11.987,0,0,0-1.054,3.6c-1.522.237-2.5.392-2.6.408-.567.092.433,5.074.525,5.641A10.1,10.1,0,0,0,56.39,20.1a12,12,0,0,0,2.363,3.858,9.006,9.006,0,0,0-1.347,2.181c.467.336,4.472,3.462,4.808,3,.056-.079.574-.8,1.392-1.949a11.991,11.991,0,0,0,3.862.707,11.425,11.425,0,0,0,.666,2.928c.567-.091,5.61-.714,5.518-1.281-.017-.109-.2-1.229-.494-2.964a11.963,11.963,0,0,0,3.159-2.335,10.491,10.491,0,0,0,2.778,1.532c.759-.4,2.79-3.54,2.79-3.54m-19.057.724A8.576,8.576,0,1,1,74.8,21.022a8.576,8.576,0,0,1-11.973,1.938" transform="translate(-15.115 -0.143)" fill="#fff"/>
        <path id="Trazado_876681" data-name="Trazado 876681" d="M67.988,31.038c-.341,0-.451,0-.964-2.937a12.353,12.353,0,0,1-3.425-.632l-1.206,1.689a.512.512,0,0,1-.442.24c-.547,0-1.869-.83-4.567-2.863-.156-.119-.272-.206-.331-.247-.321-.231-.345-.361,1.1-2.444a12.291,12.291,0,0,1-2.137-3.491,20.892,20.892,0,0,1-2.325.26c-.125,0-.506,0-.561-.34-.011-.071-.037-.212-.073-.4-.742-4.036-.729-5.076-.468-5.445a.478.478,0,0,1,.312-.2c.094-.015.964-.153,2.336-.367a12.325,12.325,0,0,1,.924-3.171C55.071,9.9,54.386,9.413,54.31,9.358a.481.481,0,0,1-.19-.319c-.067-.447.387-1.383,2.859-4.66.118-.156.2-.27.246-.328a.412.412,0,0,1,.314-.157c.165,0,.351,0,2.751,1.693a12.368,12.368,0,0,1,3.221-1.644c-.246-1.823-.4-2.957-.4-2.957a.357.357,0,0,1,.279-.4A27.461,27.461,0,0,1,67.452,0a2.055,2.055,0,0,1,.6.068c.246.077.426.133,1.122,3.306a12.323,12.323,0,0,1,3.484,1c1.314-1.725,2.155-2.823,2.155-2.823a.356.356,0,0,1,.477-.083c.538.348,3.242,2.123,3.662,2.924.12.229.215.412-1.768,3.479a12.321,12.321,0,0,1,1.634,2.63c1.388-.149,2.335-.221,2.892-.221.429,0,.673.034.808.221.529.736.9,3.949.974,4.585a.357.357,0,0,1-.288.39s-1.259.241-3.255.618a12.353,12.353,0,0,1-.679,3.659c1.65,1.257,2.691,2.054,2.691,2.054a.357.357,0,0,1,.083.478c-.347.537-2.122,3.242-2.923,3.661a.521.521,0,0,1-.2.048c-.16,0-.424,0-2.692-1.44a12.292,12.292,0,0,1-2.814,2.076c.267,1.59.435,2.608.452,2.711a.474.474,0,0,1-.092.359c-.269.364-1.252.7-5.318,1.274-.193.027-.334.047-.4.059Zm-4.525-4.35a.352.352,0,0,1,.121.021,11.618,11.618,0,0,0,3.748.686.358.358,0,0,1,.346.3c.285,1.651.441,2.324.519,2.6l.156-.022c3.463-.485,4.492-.792,4.78-.954-.061-.367-.229-1.381-.471-2.819a.359.359,0,0,1,.19-.378,11.584,11.584,0,0,0,3.065-2.266.358.358,0,0,1,.449-.051,18.322,18.322,0,0,0,2.5,1.463,18.217,18.217,0,0,0,2.392-3.088c-.432-.33-1.37-1.047-2.634-2.01a.355.355,0,0,1-.119-.408,11.63,11.63,0,0,0,.729-3.961.357.357,0,0,1,.291-.348c1.541-.291,2.684-.509,3.213-.609a18.283,18.283,0,0,0-.754-3.831C81.935,11,81.848,11,81.708,11c-.557,0-1.59.083-3.073.246a.357.357,0,0,1-.367-.213,11.609,11.609,0,0,0-1.8-2.9.358.358,0,0,1-.027-.426,22.559,22.559,0,0,0,1.824-3.063A18.22,18.22,0,0,0,75.177,2.25c-.343.449-1.1,1.445-2.127,2.787a.358.358,0,0,1-.439.105,11.615,11.615,0,0,0-3.772-1.089.357.357,0,0,1-.31-.279A20.177,20.177,0,0,0,67.742.73a2.165,2.165,0,0,0-.29-.016,24.273,24.273,0,0,0-3.585.507c.066.5.2,1.529.392,2.921a.357.357,0,0,1-.246.389,11.631,11.631,0,0,0-3.5,1.783.356.356,0,0,1-.421.005c-1.531-1.085-2.172-1.489-2.44-1.637l-.1.128c-2.1,2.79-2.616,3.736-2.706,4.053.271.194.974.7,1.975,1.411a.357.357,0,0,1,.116.443,11.633,11.633,0,0,0-1.022,3.5.358.358,0,0,1-.3.309c-1.241.193-2.119.331-2.453.385-.062.324-.029,1.4.6,4.834.011.057.02.109.029.157.3-.011.957-.076,2.4-.291a.358.358,0,0,1,.387.227,11.6,11.6,0,0,0,2.292,3.744.356.356,0,0,1,.029.445c-.779,1.115-1.092,1.62-1.218,1.846l.129.1c2.788,2.1,3.733,2.614,4.051,2.7l1.307-1.83a.356.356,0,0,1,.291-.15m4.232-1.893a8.934,8.934,0,0,1-7.237-14.161,8.962,8.962,0,0,1,7.251-3.707,8.934,8.934,0,0,1,7.238,14.161,8.964,8.964,0,0,1-7.252,3.707m.014-17.153a8.219,8.219,0,0,0-4.815,14.885,8.157,8.157,0,0,0,4.8,1.554A8.219,8.219,0,0,0,72.511,9.195a8.161,8.161,0,0,0-4.8-1.554" transform="translate(-14.972)" fill="#261d2a"/>
        <path id="Trazado_876682" data-name="Trazado 876682" d="M75.639,23.171a4.649,4.649,0,1,1-1.05-6.489,4.648,4.648,0,0,1,1.05,6.489" transform="translate(-19.196 -4.513)" fill="#fff"/>
        <path id="Trazado_876683" data-name="Trazado 876683" d="M71.723,25.314a5.006,5.006,0,0,1-4.056-7.934A5.022,5.022,0,0,1,71.731,15.3a5.005,5.005,0,0,1,4.055,7.934,5.021,5.021,0,0,1-4.063,2.078m.008-9.3a4.291,4.291,0,0,0-2.515,7.772,4.291,4.291,0,1,0,2.515-7.772" transform="translate(-19.054 -4.37)" fill="#261d2a"/>
        <path id="Trazado_876684" data-name="Trazado 876684" d="M106.225,17.78c-.266,0-.517,0-1.22-2.8-2.375-.457-2.583-.735-2.653-.829a.473.473,0,0,1-.065-.36c.043-.151.142-.5,2.856-1.6.973-2.539,1.3-2.539,1.521-2.539a.488.488,0,0,1,.336.171,7,7,0,0,1,.572,1.815c.075.306.166.675.218.837.142.064.458.176.72.271,1.392.5,1.752.669,1.817,1a.476.476,0,0,1-.133.388,12.574,12.574,0,0,1-2.339,1.007c-1.149,2.613-1.393,2.626-1.609,2.637h-.021m-2.966-3.938c.474.137,1.344.335,2.1.477a.359.359,0,0,1,.281.266c.194.786.448,1.682.629,2.189.263-.472.664-1.315.989-2.06a.36.36,0,0,1,.209-.194c.649-.229,1.382-.509,1.835-.708-.318-.134-.755-.291-1.037-.392-.8-.286-.947-.347-1.048-.484a3.909,3.909,0,0,1-.342-1.125c-.076-.306-.191-.776-.294-1.125a19.576,19.576,0,0,0-.829,1.907.36.36,0,0,1-.2.206,23.043,23.043,0,0,0-2.295,1.043" transform="translate(-29.207 -2.757)" fill="#261d2a"/>
        <path id="Trazado_876685" data-name="Trazado 876685" d="M34.229,178.272c-.266,0-.517,0-1.22-2.8-2.375-.457-2.583-.736-2.652-.829a.471.471,0,0,1-.065-.359c.043-.151.142-.5,2.855-1.6.974-2.539,1.3-2.539,1.522-2.539a.49.49,0,0,1,.336.171,6.994,6.994,0,0,1,.572,1.815c.075.306.166.675.218.837.142.064.457.176.719.27,1.393.5,1.753.669,1.818,1a.476.476,0,0,1-.133.388,12.618,12.618,0,0,1-2.339,1.007c-1.148,2.613-1.392,2.626-1.608,2.637h-.021m-2.966-3.938c.474.137,1.344.336,2.1.477a.357.357,0,0,1,.281.266c.194.786.448,1.682.63,2.189.263-.472.664-1.315.989-2.06a.36.36,0,0,1,.209-.194c.649-.229,1.382-.509,1.835-.708-.318-.134-.756-.291-1.039-.393-.8-.285-.945-.346-1.047-.484a3.936,3.936,0,0,1-.342-1.125c-.075-.306-.191-.776-.293-1.125a19.487,19.487,0,0,0-.829,1.907.359.359,0,0,1-.2.206,23.04,23.04,0,0,0-2.295,1.043" transform="translate(-8.647 -48.588)" fill="#261d2a"/>
        <path id="Trazado_876686" data-name="Trazado 876686" d="M11.482,109.369h-.011a2.537,2.537,0,1,1,.011,0m.008-4.349a1.817,1.817,0,1,0-.016,3.634l.008.357v-.357a1.817,1.817,0,0,0,.008-3.634" transform="translate(-2.556 -29.787)" fill="#261d2a"/>
        <path id="Trazado_876687" data-name="Trazado 876687" d="M171.395,80.342h-.011a2.537,2.537,0,1,1,.011,0m.008-4.349a1.817,1.817,0,1,0-.016,3.634l.008.357v-.357a1.817,1.817,0,0,0,.008-3.634" transform="translate(-48.222 -21.497)" fill="#261d2a"/>
        <path id="Trazado_876688" data-name="Trazado 876688" d="M150.393,149.433s-.741-5.229,4.315-3.584,3.461,6.455,1.524,4.833,1.613-7.22,5.493-4.78,3.065,7.255.333,7.637,1.6-5.613,5.083-1.971-3.977,10.416-7.077,7.983-.732-6.434.03-4.018-1.205,4.812-6.664,4.772-3.056-8.46-1.125-6.035-1.208,5.214-5.086,2.373.456-8.836,3.173-7.209" transform="translate(-41.601 -41.492)" fill="#fff"/>
        <path id="Trazado_876689" data-name="Trazado 876689" d="M153.424,160.527h-.14a3.419,3.419,0,0,1-3.522-2.493,6.233,6.233,0,0,1-2.9-1.239,4,4,0,0,1-1.442-4.717c.626-1.913,2.308-3.411,3.828-3.411a2.32,2.32,0,0,1,.6.079,4.3,4.3,0,0,1,.827-2.823c.819-.944,2.177-1.138,3.994-.547a6.9,6.9,0,0,1,1.831.889,4.043,4.043,0,0,1,5.265-.8,5.714,5.714,0,0,1,2.808,4.432,3.769,3.769,0,0,1,2.676,1.288,3.812,3.812,0,0,1,.589,4.36c-1.08,2.527-4.037,4.743-6.329,4.743a2.862,2.862,0,0,1-1.816-.592,4.971,4.971,0,0,1-.652-.611,9.291,9.291,0,0,1-5.624,1.442m-2.9-2.473a2.672,2.672,0,0,0,2.77,1.759h.134c2.839,0,4.376-.666,5.194-1.3a3.613,3.613,0,0,1-.307-3.452,1.188,1.188,0,0,1,.986-.769c.254,0,.72.13.994,1a3.289,3.289,0,0,1-.715,3.313,4.269,4.269,0,0,0,.565.531,2.166,2.166,0,0,0,1.375.44c2,0,4.708-2.054,5.672-4.309a3.141,3.141,0,0,0-.449-3.585,3.083,3.083,0,0,0-2.17-1.068,3.251,3.251,0,0,1-2.606,3.146,2.074,2.074,0,0,1-.284.021.87.87,0,0,1-.983-.832c-.044-.985,1.362-2.656,3.171-2.991a5.006,5.006,0,0,0-2.476-3.887,3.311,3.311,0,0,0-4.329.645,3.35,3.35,0,0,1,1.107,3.459,1.429,1.429,0,0,1-1.3,1.06,1.591,1.591,0,0,1-1.01-.412c-1.071-.9-.748-2.668.2-4a6.243,6.243,0,0,0-1.6-.765c-1.52-.494-2.606-.387-3.233.335a4.184,4.184,0,0,0-.618,2.859.357.357,0,0,1-.537.357,1.571,1.571,0,0,0-.815-.224c-1.21,0-2.622,1.31-3.148,2.919a3.357,3.357,0,0,0,1.185,3.919,5.737,5.737,0,0,0,2.326,1.071,4.9,4.9,0,0,1,.782-3.369,1.344,1.344,0,0,1,1.032-.583,1.3,1.3,0,0,1,1.014.573,2.505,2.505,0,0,1,.444,2.7,2.757,2.757,0,0,1-2.366,1.442m8.777-3.047c-.061,0-.21.1-.347.375a2.9,2.9,0,0,0,.2,2.626,2.562,2.562,0,0,0,.461-2.5c-.128-.407-.272-.5-.312-.5m-7.869-.954a.689.689,0,0,0-.474.314,4.228,4.228,0,0,0-.613,2.981,2.1,2.1,0,0,0,1.9-1.046,1.82,1.82,0,0,0-.361-1.945.684.684,0,0,0-.455-.3m12.415-3.362a3.264,3.264,0,0,0-2.432,2.223c0,.067.007.149.269.149a.838.838,0,0,0,.185-.014,2.517,2.517,0,0,0,1.978-2.359m-7.232-3.422c-.808,1.155-.952,2.453-.293,3a.674.674,0,0,0,1.178-.336,2.628,2.628,0,0,0-.885-2.668" transform="translate(-41.457 -41.357)" fill="#261d2a"/>
        <path id="Trazado_876690" data-name="Trazado 876690" d="M128.566,14.182s-.741-5.229,4.315-3.584,3.461,6.455,1.524,4.833,1.613-7.22,5.493-4.78,3.065,7.255.333,7.637,1.6-5.613,5.083-1.971-3.977,10.416-7.077,7.983-.732-6.434.03-4.018-1.205,4.812-6.663,4.772-3.056-8.46-1.125-6.035-1.208,5.214-5.086,2.373.456-8.836,3.173-7.209" transform="translate(-35.368 -2.868)" fill="#fff"/>
        <path id="Trazado_876691" data-name="Trazado 876691" d="M131.6,25.276h-.14a3.418,3.418,0,0,1-3.521-2.493,6.235,6.235,0,0,1-2.9-1.239,4,4,0,0,1-1.442-4.717c.626-1.913,2.307-3.411,3.828-3.411a2.319,2.319,0,0,1,.6.079,4.3,4.3,0,0,1,.827-2.823c.82-.944,2.177-1.137,3.994-.547a6.9,6.9,0,0,1,1.831.889,4.042,4.042,0,0,1,5.265-.8,5.716,5.716,0,0,1,2.808,4.432,3.769,3.769,0,0,1,2.676,1.288,3.812,3.812,0,0,1,.589,4.36c-1.08,2.527-4.037,4.743-6.329,4.743a2.864,2.864,0,0,1-1.816-.592,4.971,4.971,0,0,1-.652-.611,9.292,9.292,0,0,1-5.624,1.442m-2.9-2.473a2.671,2.671,0,0,0,2.769,1.759h.134c2.839,0,4.376-.666,5.195-1.3a3.611,3.611,0,0,1-.308-3.452,1.188,1.188,0,0,1,.986-.769c.254,0,.721.13.994,1a3.292,3.292,0,0,1-.716,3.314,4.311,4.311,0,0,0,.565.53,2.166,2.166,0,0,0,1.375.44c2,0,4.708-2.054,5.672-4.309a3.142,3.142,0,0,0-.448-3.585,3.085,3.085,0,0,0-2.17-1.068,3.25,3.25,0,0,1-2.6,3.146,2.073,2.073,0,0,1-.284.021h0a.87.87,0,0,1-.983-.832c-.044-.986,1.362-2.656,3.171-2.991a5.006,5.006,0,0,0-2.476-3.887,3.31,3.31,0,0,0-4.328.645,3.351,3.351,0,0,1,1.106,3.46,1.429,1.429,0,0,1-1.3,1.06,1.591,1.591,0,0,1-1.01-.412c-1.071-.9-.749-2.668.2-4a6.2,6.2,0,0,0-1.6-.765c-1.519-.5-2.6-.387-3.231.334A4.2,4.2,0,0,0,128.775,14a.357.357,0,0,1-.537.356,1.569,1.569,0,0,0-.814-.224c-1.21,0-2.623,1.31-3.149,2.919a3.357,3.357,0,0,0,1.185,3.919,5.737,5.737,0,0,0,2.326,1.071,4.9,4.9,0,0,1,.782-3.369,1.345,1.345,0,0,1,1.032-.583,1.3,1.3,0,0,1,1.014.573,2.506,2.506,0,0,1,.445,2.7,2.759,2.759,0,0,1-2.366,1.442m8.776-3.047c-.061,0-.21.1-.347.375a2.9,2.9,0,0,0,.2,2.626,2.564,2.564,0,0,0,.462-2.5c-.128-.407-.272-.5-.313-.5M129.6,18.8a.689.689,0,0,0-.474.314,4.229,4.229,0,0,0-.613,2.981,2.1,2.1,0,0,0,1.9-1.046,1.82,1.82,0,0,0-.36-1.945.687.687,0,0,0-.456-.3m12.415-3.362a3.266,3.266,0,0,0-2.432,2.223c0,.067.007.149.269.149.039.027.119,0,.186-.014a2.517,2.517,0,0,0,1.977-2.359m-7.232-3.422c-.808,1.155-.952,2.453-.293,3a.674.674,0,0,0,1.179-.336,2.628,2.628,0,0,0-.886-2.668" transform="translate(-35.223 -2.733)" fill="#261d2a"/>
        <path id="Trazado_876692" data-name="Trazado 876692" d="M5.221,138.079s-.741-5.229,4.315-3.584,3.461,6.455,1.524,4.833,1.613-7.22,5.493-4.78,3.065,7.255.333,7.637,1.6-5.613,5.083-1.971-3.977,10.416-7.077,7.983-.732-6.434.03-4.018-1.205,4.812-6.664,4.772-3.056-8.46-1.125-6.035-1.208,5.214-5.086,2.373.456-8.836,3.173-7.209" transform="translate(-0.145 -38.249)" fill="#fff"/>
        <path id="Trazado_876693" data-name="Trazado 876693" d="M8.252,149.173h-.14a3.419,3.419,0,0,1-3.522-2.493,6.233,6.233,0,0,1-2.9-1.239,4,4,0,0,1-1.442-4.717c.626-1.913,2.307-3.411,3.828-3.411a2.319,2.319,0,0,1,.6.079,4.3,4.3,0,0,1,.827-2.823c.82-.944,2.177-1.137,3.994-.547a6.9,6.9,0,0,1,1.831.889,4.041,4.041,0,0,1,5.265-.8,5.716,5.716,0,0,1,2.808,4.432,3.769,3.769,0,0,1,2.676,1.288,3.812,3.812,0,0,1,.589,4.36c-1.08,2.527-4.037,4.743-6.329,4.743a2.864,2.864,0,0,1-1.816-.592,4.972,4.972,0,0,1-.652-.611,9.292,9.292,0,0,1-5.624,1.442m-2.9-2.473a2.672,2.672,0,0,0,2.77,1.759h.134c2.839,0,4.376-.666,5.194-1.3a3.613,3.613,0,0,1-.307-3.452,1.188,1.188,0,0,1,.986-.769c.254,0,.721.13.994,1a3.292,3.292,0,0,1-.716,3.314,4.31,4.31,0,0,0,.565.53,2.166,2.166,0,0,0,1.375.44c2,0,4.708-2.054,5.672-4.309a3.141,3.141,0,0,0-.449-3.585,3.083,3.083,0,0,0-2.17-1.068,3.251,3.251,0,0,1-2.606,3.146c-.932.13-1.247-.359-1.267-.811-.045-.985,1.361-2.655,3.171-2.991a5.006,5.006,0,0,0-2.476-3.887,3.31,3.31,0,0,0-4.328.645A3.351,3.351,0,0,1,13,138.819a1.429,1.429,0,0,1-1.3,1.06,1.591,1.591,0,0,1-1.01-.412c-1.071-.9-.748-2.668.2-4a6.243,6.243,0,0,0-1.6-.765c-1.52-.494-2.606-.387-3.233.335a4.184,4.184,0,0,0-.618,2.859.357.357,0,0,1-.537.357,1.569,1.569,0,0,0-.814-.224c-1.21,0-2.623,1.31-3.149,2.919a3.357,3.357,0,0,0,1.185,3.919,5.737,5.737,0,0,0,2.326,1.071,4.9,4.9,0,0,1,.782-3.369,1.346,1.346,0,0,1,1.032-.582,1.3,1.3,0,0,1,1.014.573,2.506,2.506,0,0,1,.445,2.7A2.759,2.759,0,0,1,5.347,146.7m8.777-3.047c-.061,0-.21.1-.347.375a2.9,2.9,0,0,0,.2,2.626,2.562,2.562,0,0,0,.462-2.5c-.128-.407-.272-.5-.313-.5M6.255,142.7a.689.689,0,0,0-.474.314,4.228,4.228,0,0,0-.613,2.981,2.1,2.1,0,0,0,1.9-1.046A1.821,1.821,0,0,0,6.711,143a.687.687,0,0,0-.456-.3m12.415-3.362a3.263,3.263,0,0,0-2.431,2.223c0,.067.006.149.269.149a1.343,1.343,0,0,0,.185-.014,2.517,2.517,0,0,0,1.978-2.359m-7.232-3.422c-.808,1.155-.952,2.453-.293,3a.674.674,0,0,0,1.179-.337,2.628,2.628,0,0,0-.886-2.668" transform="translate(0 -38.114)" fill="#261d2a"/>
        <path id="Trazado_876694" data-name="Trazado 876694" d="M122.375,82.61A47.67,47.67,0,1,1,74.7,34.94a47.671,47.671,0,0,1,47.67,47.67" transform="translate(-7.72 -9.978)" fill="#e86184"/>
        <path id="Trazado_876695" data-name="Trazado 876695" d="M115.95,86.889A36.966,36.966,0,1,1,78.983,49.923,36.966,36.966,0,0,1,115.95,86.889" transform="translate(-11.999 -14.256)" fill="#feffff"/>
        <path id="Trazado_876696" data-name="Trazado 876696" d="M111.152,90.084A28.973,28.973,0,1,1,82.179,61.111a28.973,28.973,0,0,1,28.973,28.973" transform="translate(-15.194 -17.451)" fill="#7d6eb2"/>
        <path id="Trazado_876697" data-name="Trazado 876697" d="M105.84,93.621A20.124,20.124,0,1,1,85.716,73.5,20.124,20.124,0,0,1,105.84,93.621" transform="translate(-18.731 -20.988)" fill="#feffff"/>
        <path id="Trazado_876698" data-name="Trazado 876698" d="M100.528,97.158A11.275,11.275,0,1,1,89.253,85.883a11.275,11.275,0,0,1,11.275,11.275" transform="translate(-22.268 -24.525)" fill="#e86184"/>
        <path id="Trazado_876699" data-name="Trazado 876699" d="M97.175,38.87a.356.356,0,0,1-.255-.106,5.087,5.087,0,0,0-2.823-.8.357.357,0,0,1,.016-.714c.243.006,2.4.076,3.318,1.009a.356.356,0,0,1-.255.607" transform="translate(-26.771 -10.639)" fill="#261d2a"/>
        <path id="Trazado_876700" data-name="Trazado 876700" d="M101.256,43.6A.357.357,0,0,1,101,43.49a5.087,5.087,0,0,0-2.823-.8.357.357,0,0,1-.349-.364.353.353,0,0,1,.365-.35c.243.006,2.4.077,3.318,1.009a.357.357,0,0,1-.255.607" transform="translate(-27.937 -11.988)" fill="#261d2a"/>
        <path id="Trazado_876701" data-name="Trazado 876701" d="M106.356,40.416a.357.357,0,0,1-.256-.107,5.085,5.085,0,0,0-2.823-.8.357.357,0,0,1-.349-.364.34.34,0,0,1,.364-.35c.244.006,2.4.077,3.318,1.009a.357.357,0,0,1-.254.607" transform="translate(-29.393 -11.08)" fill="#261d2a"/>
        <path id="Trazado_876702" data-name="Trazado 876702" d="M92.374,42.6a.354.354,0,0,1-.191-.056,5.079,5.079,0,0,0-2.929-.131.357.357,0,1,1-.148-.7c.238-.05,2.359-.472,3.461.227a.357.357,0,0,1-.192.659" transform="translate(-25.365 -11.862)" fill="#261d2a"/>
        <path id="Trazado_876703" data-name="Trazado 876703" d="M83.534,38.872a.357.357,0,0,1-.1-.7c.234-.069,2.315-.654,3.467-.042a.357.357,0,0,1-.334.631,5.114,5.114,0,0,0-2.931.1.331.331,0,0,1-.1.015" transform="translate(-23.753 -10.81)" fill="#261d2a"/>
        <path id="Trazado_876704" data-name="Trazado 876704" d="M95.459,64.991a.353.353,0,0,1-.224-.079,5.092,5.092,0,0,0-2.9-.459.357.357,0,0,1-.068-.712c.241-.024,2.4-.205,3.413.614a.357.357,0,0,1-.224.635" transform="translate(-26.257 -18.193)" fill="#261d2a"/>
        <path id="Trazado_876705" data-name="Trazado 876705" d="M93.565,88.8a.353.353,0,0,1-.224-.079,5.092,5.092,0,0,0-2.9-.459.357.357,0,0,1-.068-.712c.241-.024,2.4-.205,3.413.614a.357.357,0,0,1-.224.635" transform="translate(-25.717 -24.991)" fill="#261d2a"/>
        <path id="Trazado_876706" data-name="Trazado 876706" d="M98.707,91.558a.353.353,0,0,1-.224-.079,5.1,5.1,0,0,0-2.9-.459.357.357,0,0,1-.068-.712c.241-.024,2.4-.205,3.413.614a.357.357,0,0,1-.224.635" transform="translate(-27.185 -25.78)" fill="#261d2a"/>
        <path id="Trazado_876707" data-name="Trazado 876707" d="M86.625,92.006a.357.357,0,0,1-.123-.692c.228-.084,2.268-.807,3.457-.271a.357.357,0,1,1-.293.652,5.1,5.1,0,0,0-2.918.289.352.352,0,0,1-.123.022" transform="translate(-24.635 -25.943)" fill="#261d2a"/>
        <path id="Trazado_876708" data-name="Trazado 876708" d="M100.066,69.208a.353.353,0,0,1-.224-.079,5.1,5.1,0,0,0-2.9-.459.362.362,0,0,1-.39-.321.358.358,0,0,1,.322-.39c.241-.024,2.4-.205,3.413.614a.357.357,0,0,1-.224.635" transform="translate(-27.573 -19.397)" fill="#261d2a"/>
        <path id="Trazado_876709" data-name="Trazado 876709" d="M104.758,65.452a.353.353,0,0,1-.224-.079,5.1,5.1,0,0,0-2.9-.459.357.357,0,0,1-.068-.712c.241-.024,2.4-.205,3.413.614a.357.357,0,0,1-.224.635" transform="translate(-28.913 -18.325)" fill="#261d2a"/>
        <path id="Trazado_876710" data-name="Trazado 876710" d="M87.942,69.373a.357.357,0,0,1-.114-.7c.231-.078,2.288-.744,3.463-.179a.357.357,0,0,1-.309.644,5.076,5.076,0,0,0-2.925.213.355.355,0,0,1-.114.019" transform="translate(-25.011 -19.497)" fill="#261d2a"/>
        <path id="Trazado_876711" data-name="Trazado 876711" d="M81.928,66.5a.357.357,0,0,1-.141-.686c.224-.1,2.221-.922,3.439-.447a.357.357,0,1,1-.259.666,5.091,5.091,0,0,0-2.9.439.361.361,0,0,1-.14.029" transform="translate(-23.294 -18.625)" fill="#261d2a"/>
        <path id="Trazado_876712" data-name="Trazado 876712" d="M93.786,163.539h-.012c-.243-.008-2.4-.1-3.306-1.046a.357.357,0,0,1,.516-.5,5.083,5.083,0,0,0,2.814.827.357.357,0,0,1-.011.714" transform="translate(-25.806 -46.23)" fill="#261d2a"/>
        <path id="Trazado_876713" data-name="Trazado 876713" d="M89.758,158.767h-.012c-.243-.008-2.4-.1-3.306-1.047a.357.357,0,0,1,.516-.494,5.1,5.1,0,0,0,2.814.827.357.357,0,0,1-.011.714" transform="translate(-24.656 -44.868)" fill="#261d2a"/>
        <path id="Trazado_876714" data-name="Trazado 876714" d="M84.623,161.89h-.012c-.243-.008-2.4-.1-3.306-1.047a.357.357,0,0,1,.516-.494,5.1,5.1,0,0,0,2.814.827.357.357,0,0,1-.011.714" transform="translate(-23.19 -45.759)" fill="#261d2a"/>
        <path id="Trazado_876715" data-name="Trazado 876715" d="M97.2,159.516a3.565,3.565,0,0,1-1.878-.419.357.357,0,0,1,.389-.6,5.108,5.108,0,0,0,2.928.164.357.357,0,0,1,.139.7,8.719,8.719,0,0,1-1.579.154" transform="translate(-27.174 -45.245)" fill="#261d2a"/>
        <path id="Trazado_876716" data-name="Trazado 876716" d="M102.37,163.289a3.048,3.048,0,0,1-1.431-.292.357.357,0,1,1,.342-.627,5.08,5.08,0,0,0,2.931-.063.357.357,0,0,1,.194.687,8.3,8.3,0,0,1-2.037.3" transform="translate(-28.772 -46.346)" fill="#261d2a"/>
        <path id="Trazado_876717" data-name="Trazado 876717" d="M95.214,137.23a4.69,4.69,0,0,1-2.742-.677.357.357,0,1,1,.454-.552,5.1,5.1,0,0,0,2.891.492.351.351,0,0,1,.386.325.357.357,0,0,1-.325.387c-.074.006-.324.025-.664.025" transform="translate(-26.37 -38.815)" fill="#261d2a"/>
        <path id="Trazado_876718" data-name="Trazado 876718" d="M90.655,132.962a4.69,4.69,0,0,1-2.742-.677.357.357,0,1,1,.454-.551,5.1,5.1,0,0,0,2.891.492.351.351,0,0,1,.386.325.357.357,0,0,1-.325.387c-.074.006-.324.025-.664.025" transform="translate(-25.068 -37.596)" fill="#261d2a"/>
        <path id="Trazado_876719" data-name="Trazado 876719" d="M85.921,136.665a4.69,4.69,0,0,1-2.742-.677.357.357,0,0,1,.454-.552,5.1,5.1,0,0,0,2.891.492.351.351,0,0,1,.387.325.358.358,0,0,1-.326.387c-.074.006-.323.025-.664.025" transform="translate(-23.716 -38.653)" fill="#261d2a"/>
        <path id="Trazado_876720" data-name="Trazado 876720" d="M98.135,132.788a2.834,2.834,0,0,1-1.241-.239.357.357,0,0,1,.317-.64,5.1,5.1,0,0,0,2.926-.18.357.357,0,1,1,.221.679,8.029,8.029,0,0,1-2.224.38" transform="translate(-27.613 -37.613)" fill="#261d2a"/>
        <path id="Trazado_876721" data-name="Trazado 876721" d="M103.861,135.834a2.512,2.512,0,0,1-.929-.156.357.357,0,1,1,.266-.663,5.1,5.1,0,0,0,2.9-.406.357.357,0,0,1,.273.66,7.542,7.542,0,0,1-2.515.564" transform="translate(-29.33 -38.432)" fill="#261d2a"/>
        <path id="Trazado_876722" data-name="Trazado 876722" d="M129.883,60.593s1.857-9.285,3.018-12.071,24.142-20.66,25.07-18.571-5.8,13.464-5.8,13.464,14.393-3.482,15.089-1.393-20.892,17.178-25.3,17.642-12.071.929-12.071.929" transform="translate(-37.091 -8.505)" fill="#ffd947"/>
        <line id="Línea_1757" data-name="Línea 1757" y1="36.304" x2="47.304" transform="translate(67.773 34.91)" fill="#fff"/>
        <path id="Trazado_876723" data-name="Trazado 876723" d="M94.721,85.383a.357.357,0,0,1-.218-.64l47.3-36.3a.357.357,0,0,1,.435.567l-47.3,36.3a.355.355,0,0,1-.217.074" transform="translate(-26.947 -13.812)" fill="#261d2a"/>
        <path id="Trazado_876724" data-name="Trazado 876724" d="M170.209,48.767c-15.082,0-15.245-.489-15.342-.78-.469-1.407,1.7-11.7,1.954-12.868a.357.357,0,0,1,.7.149c-.892,4.18-2.181,11.039-2,12.365,1.21.305,9.537.42,14.692.42a.357.357,0,0,1,0,.714" transform="translate(-44.206 -9.948)" fill="#261d2a"/>
        <path id="Trazado_876725" data-name="Trazado 876725" d="M159.354,57.124h-.009c-.411-.01-10.1-.253-13.143-1.269-.894-.3-.855-4.572.115-12.7a.358.358,0,1,1,.71.084c-.639,5.356-1.016,11.244-.552,11.958,3,.969,12.788,1.215,12.886,1.217a.357.357,0,0,1-.009.714" transform="translate(-41.567 -12.232)" fill="#261d2a"/>
        <path id="Trazado_876726" data-name="Trazado 876726" d="M150.181,63.517c-3.741,0-12.522-.059-13.253-.607s-.186-6.694.4-11.757a.352.352,0,0,1,.4-.314.358.358,0,0,1,.314.4c-.565,4.922-.955,10.353-.652,11.111.818.3,7.141.458,12.8.458a.357.357,0,1,1,0,.714" transform="translate(-39.003 -14.517)" fill="#261d2a"/>
        <path id="Trazado_876727" data-name="Trazado 876727" d="M156.661,100.348s6.474-8.8,11.279-8.557c7.779.389,33.837.778,30.726,2.723S187,100.736,187,100.736s10.52,8.7,7,8.557c-9.723-.389-31.892-1.167-31.892-1.167Z" transform="translate(-44.737 -26.211)" fill="#ffd947"/>
        <path id="Trazado_876728" data-name="Trazado 876728" d="M169.266,104.24h-.007l-73.074-1.4a.357.357,0,0,1,.007-.714H96.2l73.074,1.4a.357.357,0,0,1-.007.714" transform="translate(-27.367 -29.163)" fill="#261d2a"/>
        <path id="Trazado_876729" data-name="Trazado 876729" d="M196.256,109.625a.356.356,0,0,1-.259-.111c-2.985-3.126-7.572-7.882-7.978-8.166a.451.451,0,0,1-.175-.336c0-.231.015-.846,11.8-8.122a.357.357,0,0,1,.376.607c-3.959,2.445-10.236,6.454-11.338,7.482,1.327,1.232,6.687,6.839,7.837,8.042a.357.357,0,0,1-.259.6" transform="translate(-53.642 -26.511)" fill="#261d2a"/>
        <path id="Trazado_876730" data-name="Trazado 876730" d="M182.74,109.161a.357.357,0,0,1-.279-.134c-.059-.073-5.9-7.332-6.784-8.39a.625.625,0,0,1-.132-.5c.214-1.665,7.792-7.154,9.308-8.238a.357.357,0,0,1,.415.582c-4.346,3.1-9.029,6.953-9.016,7.756.859,1,6.706,8.267,6.765,8.34a.357.357,0,0,1-.278.581" transform="translate(-50.128 -26.226)" fill="#261d2a"/>
        <path id="Trazado_876731" data-name="Trazado 876731" d="M170.151,108.84a.354.354,0,0,1-.278-.133c-.249-.306-6.088-7.52-6.45-8.064-.208-.312-.523-.784,8.266-9.208a.357.357,0,0,1,.5.516c-3.654,3.5-7.624,7.538-8.085,8.408.676.9,4.734,5.928,6.328,7.9a.357.357,0,0,1-.277.582" transform="translate(-46.648 -26.083)" fill="#261d2a"/>
        <path id="Trazado_876732" data-name="Trazado 876732" d="M120.3,179.87h0a.491.491,0,0,1-.282-.077c-.241-.159-.878-.583,1.675-6.409a.357.357,0,0,1,.3-.212c3.48-.28,8.644-.748,11.2-1.086-2.707-.365-8.374-.889-12.182-1.2a.359.359,0,0,1-.252-.136c-.381-.488-2.268-2.977-1.984-4.1.045-.178.2-.39.692-.39,2.028,0,14.294,4.366,15.635,5.523a.329.329,0,0,1,.04.032.41.41,0,0,1,.047.057.164.164,0,0,1,.014.022h0a.343.343,0,0,1,.029.066l0,.006,0,.009a.324.324,0,0,1,.022.1.522.522,0,0,1-.162.387c-.956,1.031-13.251,7.415-14.8,7.415m0-.714v0Zm1.962-5.29a24.153,24.153,0,0,0-1.8,5.268c1.55-.34,9.9-4.493,13-6.376-1.645.25-4.864.6-11.2,1.109m-1.038-3.683c4.074.337,8.673.754,11.435,1.122-3.734-1.582-11.585-4.337-13.195-4.337h-.011a9.208,9.208,0,0,0,1.771,3.216" transform="translate(-33.911 -47.477)" fill="#261d2a"/>
        <path id="Trazado_876733" data-name="Trazado 876733" d="M118.9,177.736a1.543,1.543,0,0,1-.754-.144.564.564,0,0,1-.269-.352c-.144-.587,1.311-3.136,2.557-5.17a.357.357,0,0,1,.609.373,31.807,31.807,0,0,0-2.451,4.563,7.528,7.528,0,0,0,2.32-.31.357.357,0,1,1,.178.692,10.1,10.1,0,0,1-2.191.347" transform="translate(-33.66 -49.089)" fill="#261d2a"/>
        <path id="Trazado_876734" data-name="Trazado 876734" d="M81.36,180.046a.357.357,0,0,1,0-.714c.462,0,.93-.025,1.393-.07a.357.357,0,0,1,.069.711c-.485.047-.977.072-1.46.074Zm-1.427-.064H79.9c-.485-.046-.973-.116-1.449-.209a.357.357,0,0,1,.136-.7,13.909,13.909,0,0,0,1.379.2.357.357,0,0,1-.033.713m4.267-.211a.358.358,0,0,1-.067-.709c.458-.088.914-.2,1.356-.327a.357.357,0,1,1,.2.686c-.464.136-.942.251-1.422.344a.371.371,0,0,1-.068.006m-7.067-.336a.346.346,0,0,1-.1-.016,14.06,14.06,0,0,1-1.378-.5.357.357,0,1,1,.279-.658,13.322,13.322,0,0,0,1.307.474.357.357,0,0,1-.1.7m9.807-.467a.357.357,0,0,1-.134-.689,12.94,12.94,0,0,0,1.261-.586.357.357,0,0,1,.336.631,13.954,13.954,0,0,1-1.33.618.363.363,0,0,1-.133.026m-12.449-.65a.319.319,0,0,1-.156-.041c-.475-.267-.873-.507-1.246-.748a.357.357,0,0,1,.387-.6q.542.349,1.158.7a.382.382,0,0,1,.161.5.356.356,0,0,1-.3.194m14.963-.7a.357.357,0,0,1-.206-.649,9.433,9.433,0,0,0,1.07-.867.357.357,0,1,1,.49.52,10.28,10.28,0,0,1-1.15.932.355.355,0,0,1-.2.064m-17.342-.854a.356.356,0,0,1-.216-.073c-.4-.308-.781-.624-1.12-.941a.357.357,0,0,1,.487-.523c.322.3.681.6,1.067.9a.358.358,0,0,1-.217.642m-11.1-.359q-.249,0-.5-.007a.358.358,0,0,1-.347-.366.383.383,0,0,1,.367-.348c.173,0,.339,0,.514.007q.453,0,.886-.021a.357.357,0,1,1,.035.714c-.311.016-.635.028-.953.022m-1.918-.1-.039,0c-.494-.054-.979-.131-1.445-.228a.357.357,0,0,1,.146-.7c.443.093.905.166,1.375.217a.357.357,0,0,1-.039.712m4.275-.046a.357.357,0,0,1-.046-.712c.468-.061.93-.142,1.375-.242a.357.357,0,0,1,.156.7c-.465.1-.949.189-1.438.254l-.046,0m-7.064-.545a.36.36,0,0,1-.111-.018,11.96,11.96,0,0,1-1.367-.544.357.357,0,0,1,.305-.647,11.118,11.118,0,0,0,1.285.512.357.357,0,0,1-.112.7m35.209-.059a.351.351,0,0,1-.211-.069.357.357,0,0,1-.077-.5,5.546,5.546,0,0,0,.662-1.164.357.357,0,0,1,.66.273,6.3,6.3,0,0,1-.747,1.313.354.354,0,0,1-.288.146m-25.361-.022a.357.357,0,0,1-.112-.7,12.827,12.827,0,0,0,1.293-.507.358.358,0,1,1,.3.651,13.542,13.542,0,0,1-1.366.534.338.338,0,0,1-.111.019m3.889-.823a.358.358,0,0,1-.276-.131c-.151-.183-.291-.368-.419-.553q-.2.137-.417.266a.357.357,0,0,1-.372-.61c.139-.084.275-.172.409-.262-.014-.025-.029-.05-.042-.076a.357.357,0,0,1,.624-.346l.138-.11a.358.358,0,0,1,.45.556c-.069.055-.139.111-.21.165q.18.259.392.517a.358.358,0,0,1-.276.584m-16.309-.319a.353.353,0,0,1-.2-.059,10.03,10.03,0,0,1-1.176-.9.357.357,0,0,1,.474-.534,9.39,9.39,0,0,0,1.092.833.357.357,0,0,1-.2.657m17.216-1.848a.357.357,0,0,1-.266-.6,6.767,6.767,0,0,0,.808-1.087.357.357,0,0,1,.616.362,7.445,7.445,0,0,1-.892,1.2.359.359,0,0,1-.266.118m-19.34-.045a.357.357,0,0,1-.276-.13,9.216,9.216,0,0,1-.849-1.219.357.357,0,0,1,.618-.359,8.485,8.485,0,0,0,.782,1.124.357.357,0,0,1-.275.584m17.116-.3a.357.357,0,0,1-.349-.28,4.023,4.023,0,0,1-.1-.862,3.4,3.4,0,0,1,.073-.708.357.357,0,0,1,.7.15,2.68,2.68,0,0,0-.057.557,3.327,3.327,0,0,0,.08.709.357.357,0,0,1-.271.426.415.415,0,0,1-.077.008m3.6-2.126a.326.326,0,0,1-.064-.006.356.356,0,0,1-.287-.415A1.851,1.851,0,0,0,72,169.43a.677.677,0,0,0-.246-.594.357.357,0,1,1,.375-.607,1.339,1.339,0,0,1,.586,1.2,2.534,2.534,0,0,1-.044.455.357.357,0,0,1-.351.293m-22.145-.039a.356.356,0,0,1-.334-.232,8.2,8.2,0,0,1-.4-1.437.357.357,0,0,1,.7-.126,7.511,7.511,0,0,0,.361,1.313.357.357,0,0,1-.209.459.346.346,0,0,1-.125.023m19.174-.5a.357.357,0,0,1-.259-.6,3.166,3.166,0,0,1,1.355-.834.357.357,0,0,1,.217.68,2.471,2.471,0,0,0-1.054.646.356.356,0,0,1-.259.111m-20.635-1.612a6.228,6.228,0,0,1-.812-.056.357.357,0,1,1,.1-.708,5.27,5.27,0,0,0,1.332.011.357.357,0,0,1,.09.709,5.612,5.612,0,0,1-.705.044m-2.15-.389a.361.361,0,0,1-.118-.02,9.652,9.652,0,0,1-1.355-.6.357.357,0,0,1,.336-.63,9.032,9.032,0,0,0,1.255.556.357.357,0,0,1-.118.694m4.181-.037a.357.357,0,0,1-.148-.682,4.174,4.174,0,0,0,1.1-.72.357.357,0,1,1,.482.527,4.884,4.884,0,0,1-1.282.844.358.358,0,0,1-.146.031m-1.055-.257H49.68a.357.357,0,0,1-.344-.369,5.537,5.537,0,0,1,.251-1.5.357.357,0,0,1,.68.219A4.823,4.823,0,0,0,50.049,167a.357.357,0,0,1-.357.345m-5.647-1.032a.352.352,0,0,1-.2-.064q-.276-.191-.559-.408-.313-.239-.6-.486a.357.357,0,1,1,.465-.542q.272.234.569.461.27.206.533.389a.357.357,0,0,1-.2.651m8.759-.618a.35.35,0,0,1-.161-.039.357.357,0,0,1-.157-.48,1.971,1.971,0,0,0,.239-.847.711.711,0,0,0-.038-.244.357.357,0,1,1,.671-.246,1.425,1.425,0,0,1,.081.49,2.653,2.653,0,0,1-.316,1.17.358.358,0,0,1-.319.2m-2.2-1a.357.357,0,0,1-.267-.594,2.821,2.821,0,0,1,1.13-.786c.078-.029.154-.054.227-.076a.357.357,0,1,1,.2.686c-.056.016-.114.036-.175.059a2.119,2.119,0,0,0-.845.591.359.359,0,0,1-.268.12m-8.724-.244a.356.356,0,0,1-.262-.114,11.575,11.575,0,0,1-.93-1.142.357.357,0,1,1,.582-.414,10.994,10.994,0,0,0,.873,1.072.357.357,0,0,1-.262.6m-1.65-2.321a.357.357,0,0,1-.316-.191,10.9,10.9,0,0,1-.6-1.35.357.357,0,1,1,.671-.244,10.308,10.308,0,0,0,.559,1.261.356.356,0,0,1-.316.524m-.978-2.676a.357.357,0,0,1-.348-.28,12.319,12.319,0,0,1-.23-1.453.358.358,0,0,1,.321-.39.364.364,0,0,1,.39.321,11.461,11.461,0,0,0,.216,1.367.357.357,0,0,1-.271.427.362.362,0,0,1-.078.009m-.281-2.838h0a.358.358,0,0,1-.354-.362c.006-.477.037-.969.091-1.461a.364.364,0,0,1,.4-.316.358.358,0,0,1,.316.394c-.053.469-.082.938-.088,1.391a.357.357,0,0,1-.357.353m.311-2.838a.357.357,0,0,1-.351-.428c.1-.472.213-.949.347-1.416a.357.357,0,1,1,.687.2c-.129.449-.241.907-.334,1.361a.357.357,0,0,1-.349.286m.789-2.746a.352.352,0,0,1-.126-.023.357.357,0,0,1-.209-.46,13.008,13.008,0,0,1,.584-1.354.357.357,0,1,1,.632.331,12.823,12.823,0,0,0-.548,1.274.358.358,0,0,1-.334.231" transform="translate(-11.028 -42.55)" fill="#261d2a"/>
      </g>
    </g>
  </g>
</svg>
