<svg xmlns="http://www.w3.org/2000/svg" xmlns:xlink="http://www.w3.org/1999/xlink" width="400" height="206.654" viewBox="0 0 400 206.654">
  <defs>
    <clipPath id="clip-path">
      <rect id="Rect치ngulo_402217" data-name="Rect치ngulo 402217" width="352.108" height="206.654" fill="none"/>
    </clipPath>
  </defs>
  <g id="Grupo_1101510" data-name="Grupo 1101510" transform="translate(-915 -13168.369)">
    <path id="Rect치ngulo_401989" data-name="Rect치ngulo 401989" d="M20,0H380a20,20,0,0,1,20,20V126a0,0,0,0,1,0,0H0a0,0,0,0,1,0,0V20A20,20,0,0,1,20,0Z" transform="translate(915 13249)" fill="#aee6e6"/>
    <g id="Grupo_1101399" data-name="Grupo 1101399" transform="translate(924 13168.369)">
      <g id="Grupo_1101398" data-name="Grupo 1101398" clip-path="url(#clip-path)">
        <path id="Trazado_876797" data-name="Trazado 876797" d="M540.005,163.251c1.719,2.53,4.338,4.163,1.883,6.478-2.739,2.583-10.28,10.418-10.28,10.418l6.777,14.872s10.624-10.724,16.188-16.693,8.568-12.115,4.926-18.49-19.494,3.415-19.494,3.415" transform="translate(-241.076 -71.506)" fill="#f2ac30"/>
        <path id="Trazado_876798" data-name="Trazado 876798" d="M539.545,163.091c.733,1.037,1.606,1.966,2.323,3.014.977,1.43.249,2.508-.843,3.557-1.323,1.273-2.609,2.582-3.9,3.89q-2.987,3.032-5.939,6.1a.282.282,0,0,0-.043.331q3.389,7.435,6.777,14.872a.275.275,0,0,0,.429.056q4.088-4.128,8.138-8.292,3.176-3.262,6.315-6.557a41.679,41.679,0,0,0,6.41-8.06,13.3,13.3,0,0,0,1.712-8.9c-.375-2.1-1.37-4.555-3.422-5.494-3.468-1.587-8.169.4-11.373,1.772a49.5,49.5,0,0,0-6.49,3.336c-.3.184-.026.657.275.472a49.059,49.059,0,0,1,8.187-4.022,20.119,20.119,0,0,1,6.528-1.51c2.672-.075,4.154,1.178,5.166,3.576,3.156,7.481-3.362,14.226-8.086,19.189-3.891,4.086-7.84,8.116-11.8,12.133q-.972.988-1.947,1.972l.429.056-6.754-14.824c-.08-.176-.174.4-.009.225l.318-.33q.751-.779,1.5-1.554,2.365-2.44,4.749-4.858,1.16-1.175,2.333-2.336a11.66,11.66,0,0,0,1.955-2.013c1.376-2.329-1.243-4.339-2.474-6.078-.2-.285-.675-.013-.471.276" transform="translate(-240.852 -71.207)" fill="#f2ac30"/>
        <path id="Trazado_876799" data-name="Trazado 876799" d="M459.272,228.973c-.325,4.445-4.289,46.438-6.527,70.069h24.674l6.742-57.778,5.541,57.778h28.177c-2.017-19.928-5.277-51.765-6.1-57.625-1.215-8.651-2.884-23.928-10.168-36.371-5.008-.759-45.223,8.6-45.223,8.6.91,2.73,3.339,9.1,2.883,15.327" transform="translate(-205.313 -92.965)" fill="#32015c"/>
        <path id="Trazado_876800" data-name="Trazado 876800" d="M454.639,273.439q-1.194,12.684-2.4,25.368h.545q1.667-17.594,3.325-35.189c1.091-11.618,2.348-23.241,3.207-34.88.321-5.247-1.158-10.215-2.8-15.128q8.325-1.934,16.683-3.72c8.317-1.788,16.725-3.77,25.193-4.7.709-.078,2.6-.514,2.989.159a60,60,0,0,1,4.791,10.855,111.909,111.909,0,0,1,4.424,20.043c1,6.978,1.75,13.982,2.5,20.992q2.211,20.776,4.289,41.566h.546q-2-19.814-4.082-39.619c-.711-6.72-1.4-13.445-2.313-20.141a144.159,144.159,0,0,0-3.65-19.133,72.107,72.107,0,0,0-3.712-10.3,54.6,54.6,0,0,0-2.55-4.939c-.146-.251-.75-.177-.993-.178a51.3,51.3,0,0,0-8.791,1.128c-4.5.78-8.984,1.685-13.458,2.615q-10.77,2.239-21.488,4.725l-.8.186a.273.273,0,0,0-.191.336c1.665,4.955,3.2,9.957,2.874,15.254-1.1,14.917-2.728,29.811-4.131,44.7" transform="translate(-205.083 -92.731)" fill="#32015c"/>
        <path id="Trazado_876801" data-name="Trazado 876801" d="M504.682,271.135a.273.273,0,0,0-.547,0q-2.114,18.119-4.228,36.237-1.258,10.77-2.513,21.541h.546q1.289-11.041,2.577-22.082,1.933-16.562,3.865-33.124,1.622,16.9,3.242,33.8l2.053,21.4h.547q-1.066-11.11-2.131-22.219l-3.41-35.558" transform="translate(-225.56 -122.836)" fill="#32015c"/>
        <path id="Trazado_876802" data-name="Trazado 876802" d="M319.348,80.116c-.606-1.82-3.135-9-3.135-9s-7.386-4.652-10.623-6.473-4.654-8.093.607-9.612c1.417-2.63,3.581-2.86,4.8-2.153.808-5.969,3.828-6.688,7.167-5.575s5.371,3.98,7.394,8.533,2.5,6.984,4.216,11.537,3.035,7.994,3.035,7.994-3.946,8.3-13.456,4.754" transform="translate(-137.269 -21.251)" fill="#ffd4d4"/>
        <path id="Trazado_876803" data-name="Trazado 876803" d="M324.174,73.227a8.094,8.094,0,1,1-8.093-8.093,8.093,8.093,0,0,1,8.093,8.093" transform="translate(-139.667 -29.537)" fill="#d4336e"/>
        <path id="Trazado_876804" data-name="Trazado 876804" d="M305.531,66.784c1.139,1.29,3.035.607,2.732-2.2,1.9-.153,2.276-2.808,4.021-5.161.759,3.036,2.125,3.415,3.111,2.959s1.821-1.062,1.9-3.869.912-3.566,2.125-3.187,2.277,3.187,3.793,6.677,1.67,6.222-.532,6.752-4.172,1.366-5.462,3.718.227,4.628,4.25,2.884A10.032,10.032,0,0,0,326.7,70.8a40.508,40.508,0,0,0-2.428-12.822c-2.352-5.767-7.665-4.554-7.665-4.554l-6.3,4.7L305.3,63.522" transform="translate(-138.451 -24.181)" fill="#ffd4d4"/>
        <path id="Trazado_876805" data-name="Trazado 876805" d="M473.065,62.3c2.933.253,6.02-3.035,5.312-6.981s-6.931,2.074-6.931,2.074Z" transform="translate(-213.793 -24.479)" fill="#495edb"/>
        <path id="Trazado_876806" data-name="Trazado 876806" d="M472.838,62.326a5.531,5.531,0,0,0,5.035-3.271c.63-1.213,1.355-4.466-.21-5.359-2.087-1.19-5.27,1.942-6.636,3.257a.271.271,0,0,0-.07.266l1.619,4.907c.11.333.638.191.527-.145q-.69-2.094-1.382-4.187l-.215-.653c.019.056-.192.29.1.021.466-.432.953-.841,1.45-1.236.914-.726,3.735-3,4.668-1.342.786,1.4.068,3.589-.676,4.834a4.759,4.759,0,0,1-4.206,2.362c-.352-.015-.351.531,0,.547" transform="translate(-213.566 -24.23)" fill="#495edb"/>
        <path id="Trazado_876807" data-name="Trazado 876807" d="M419.009,30.325c-.607,3.844-1.316,7.158,2.124,13.329s4.654,13.936,15.984,12.367a39.312,39.312,0,0,1,1.418,5.16l14.871-3.237-4.755-14.469c6.324-1.87,6.22-5.844,5.107-8.474s-10.974-13.073-14.516-13.983-16.591-.2-20.233,9.307" transform="translate(-189.785 -9.398)" fill="#ffd4d4"/>
        <path id="Trazado_876808" data-name="Trazado 876808" d="M449.231,57.052c.933-1.042-.771-3.287-1.757-2.34s.992,3.2,1.757,2.34" transform="translate(-202.8 -24.708)"/>
        <path id="Trazado_876809" data-name="Trazado 876809" d="M430.21,59.552c.932-1.044-.772-3.287-1.759-2.34s.994,3.2,1.759,2.34" transform="translate(-194.173 -25.841)"/>
        <path id="Trazado_876810" data-name="Trazado 876810" d="M434.185,61.21a5.9,5.9,0,0,1-2.863-.792c-1.321-.881-1.191-2.147-.891-3.27.643-2.777-.66-5.21-3.576-6.665a.273.273,0,1,1,.244-.489c3.113,1.554,4.557,4.278,3.862,7.286-.314,1.178-.315,2.031.643,2.671a5.355,5.355,0,0,0,2.581.713.273.273,0,0,1,0,.547" transform="translate(-193.503 -22.658)"/>
        <path id="Trazado_876811" data-name="Trazado 876811" d="M441.23,70.817a.273.273,0,0,1-.063-.539,9.962,9.962,0,0,0,5.621-3.6.273.273,0,0,1,.419.352,10.469,10.469,0,0,1-5.913,3.783.254.254,0,0,1-.063.008" transform="translate(-199.967 -30.191)"/>
        <path id="Trazado_876812" data-name="Trazado 876812" d="M452.615,75.77a.273.273,0,0,1-.1-.528,13.231,13.231,0,0,0,4.708-3.222l.23-.261a12.034,12.034,0,0,0,1.7-2.256,21.982,21.982,0,0,0,1.2-2.7,8,8,0,0,0,.642-2.638.273.273,0,1,1,.547,0,8.451,8.451,0,0,1-.676,2.828,22.515,22.515,0,0,1-1.228,2.764,12.455,12.455,0,0,1-1.771,2.363l-.238.269a13.782,13.782,0,0,1-4.912,3.362.274.274,0,0,1-.1.019" transform="translate(-205.13 -28.974)"/>
        <path id="Trazado_876813" data-name="Trazado 876813" d="M442.979,48.406c-.4-1.315,1.162-2.176,3.389-1.265s2.663,1.928,1.972,1.77c-4-.91-5.108.051-5.361-.506" transform="translate(-200.855 -21.206)" fill="#495edb"/>
        <path id="Trazado_876814" data-name="Trazado 876814" d="M443.033,48.106c-.447-1.911,2.483-1.173,3.342-.8a5.551,5.551,0,0,1,1.556.97l.114.121q.123.343.159.028c-.384-.058-.766-.16-1.15-.226a13.005,13.005,0,0,0-2.74-.185c-.184.007-1.2.215-1.308.031a.273.273,0,0,0-.472.276c.351.626,1.638.239,2.185.228a20.426,20.426,0,0,1,3.445.419.434.434,0,0,0,.541-.392c0-.415-.457-.782-.754-.995a7.168,7.168,0,0,0-3.026-1.279c-1.289-.2-2.768.459-2.419,1.954.081.343.607.2.527-.145" transform="translate(-200.646 -20.979)" fill="#495edb"/>
        <path id="Trazado_876815" data-name="Trazado 876815" d="M425.133,50.057c-1.418-.809-3.289-1.264-3.9-.455s-.1,1.771.506,1.72a27.758,27.758,0,0,1,3.845-.354c.5,0,0-.556-.456-.91" transform="translate(-190.9 -22.301)" fill="#495edb"/>
        <path id="Trazado_876816" data-name="Trazado 876816" d="M425.042,49.558c-.982-.537-2.644-1.338-3.77-.759-.823.424-1.239,2.007-.174,2.441a2.669,2.669,0,0,0,1.358-.028c.748-.1,1.5-.2,2.252-.243.379-.021.869.133,1.1-.245.239-.395-.487-.939-.708-1.123-.269-.224-.659.161-.386.386.133.111.691.438.352.428a8.334,8.334,0,0,0-.97.051c-.659.057-1.314.154-1.967.244-.2.028-.407.055-.611.075q-.627-.1-.481-.879c.076-.539.515-.673.94-.715a5.241,5.241,0,0,1,2.793.839c.309.169.585-.3.275-.472" transform="translate(-190.673 -22.039)" fill="#495edb"/>
        <path id="Trazado_876817" data-name="Trazado 876817" d="M432.626,15.193c-.709,3.643.2,10.875,3.743,14.67s3.035-2.985,2.631-4.1c2.023-2.326,5.856-2.762,7.324.982.456,1.516-.332,4.328-.332,4.328a5.745,5.745,0,0,0,2.973-6.929c-.961-2.124-1.315-6.273-1.062-9.51s-2.986-10.571-11.939-8.245c-2.535-4.407-5.142-5.241-9.725-4.554-4.163.623-8.822-2.2-12.312-1.035-2.307.769-3.659,3.263-.168,6.753-5.413-1.518-10.268-1.315-12.393,4.047s.6,12.292,9.055,12.444a17.781,17.781,0,0,1,.732-3.4c.657,3.945,3.971,4.008,7.057,1.631a30.033,30.033,0,0,0,5.514-5.918c-1.215,3.288-.152,3.693,2.225,3.44s5.11-3.947,6.678-4.6" transform="translate(-181.7 -0.235)" fill="#495edb"/>
        <path id="Trazado_876818" data-name="Trazado 876818" d="M432.146,14.885a20.45,20.45,0,0,0,1.308,10.835c.406,1.031,3.28,6.865,5.139,5.066a3.761,3.761,0,0,0,.746-2.636,11.555,11.555,0,0,0-.092-1.667c-.071-.6-.271-.785.156-1.2a3.908,3.908,0,0,1,5.6-.113c1.436,1.5,1,3.79.51,5.6a.276.276,0,0,0,.4.309,6.116,6.116,0,0,0,3.42-5.785,16.71,16.71,0,0,0-.928-3.38,24.73,24.73,0,0,1-.521-5.83,12,12,0,0,0-.718-5.425,8.925,8.925,0,0,0-3.983-4.27A8.216,8.216,0,0,0,440.2,5.5a12.516,12.516,0,0,0-2.079-.031c-.422.027-2.143.53-2.351.177a8.445,8.445,0,0,0-5.577-4.4,12.087,12.087,0,0,0-3.779.022,16.758,16.758,0,0,1-5.871-.461c-2.568-.573-5.709-1.544-8.09.092-2.6,1.785-.725,4.919.9,6.609l.266-.457c-2.772-.758-6.1-1.4-8.826-.129a8.412,8.412,0,0,0-4.5,6.648,9.325,9.325,0,0,0,1.891,7.092c1.915,2.422,5.062,3.323,8.027,3.417a.28.28,0,0,0,.273-.273,17.431,17.431,0,0,1,.722-3.329h-.527c.651,3.321,3.33,4.1,6.176,2.635,2.79-1.432,5.134-4.309,6.894-6.857l-.5-.21c-.338.959-.831,2.226-.258,3.193.46.776,1.7.674,2.445.622,3.082-.22,4.559-3.447,7.118-4.671.318-.151.041-.623-.275-.472-1.9.907-3.222,2.829-4.994,3.958a4.547,4.547,0,0,1-3.252.6c-1.376-.262-.538-2.292-.256-3.089.109-.309-.333-.451-.5-.211a28.691,28.691,0,0,1-4.772,5.3,7.566,7.566,0,0,1-4.25,2.082c-1.843.141-2.74-1.448-3.05-3.026-.056-.283-.448-.238-.527,0a18.212,18.212,0,0,0-.742,3.474l.273-.273a10.158,10.158,0,0,1-7.453-3.036,8.514,8.514,0,0,1-1.983-6.361,8.094,8.094,0,0,1,4.015-6.609c2.622-1.379,5.99-.685,8.685.052a.275.275,0,0,0,.266-.456c-1.836-1.911-3.268-5.084.048-6.3,2.714-.992,6.061.481,8.763.939,2.525.428,4.986-.376,7.5.008,2.57.393,4.221,2.4,5.468,4.516a.277.277,0,0,0,.309.125c3-.735,6.13-.591,8.591,1.439a8.7,8.7,0,0,1,2.979,5.536c.16,1.31-.072,2.68-.044,4a24.237,24.237,0,0,0,.616,5.026c.37,1.568,1.027,2.683.683,4.361a5.3,5.3,0,0,1-3.007,3.825l.4.308c.642-2.344.878-4.8-1.1-6.561-1.939-1.722-4.8-.7-6.349.985a.276.276,0,0,0-.07.266,8.294,8.294,0,0,1,.2,3.545c-.384,2.788-2.634.1-3.415-1.041a18.734,18.734,0,0,1-2.63-13.076c.062-.345-.465-.492-.527-.145" transform="translate(-181.484 0)" fill="#495edb"/>
        <path id="Trazado_876819" data-name="Trazado 876819" d="M419.694,33.061a.273.273,0,0,1-.271-.238l-.048-.349a7.6,7.6,0,0,1-.1-2.049,7.324,7.324,0,0,1,1.681-3.529,6.689,6.689,0,0,1,1.369-1.364.273.273,0,1,1,.313.448,6.231,6.231,0,0,0-1.259,1.262,6.787,6.787,0,0,0-1.563,3.262,7.211,7.211,0,0,0,.1,1.894l.049.354a.274.274,0,0,1-.236.307l-.036,0" transform="translate(-190.117 -11.556)"/>
        <path id="Trazado_876820" data-name="Trazado 876820" d="M470.4,48.479a.279.279,0,0,1-.042,0,.265.265,0,0,1-.226-.3,5.414,5.414,0,0,0,.1-.865,3.685,3.685,0,0,0-.095-.748c-.093-.416-.2-.887-.348-1.342a9.443,9.443,0,0,0-.836-1.92.273.273,0,1,1,.472-.275,9.98,9.98,0,0,1,.884,2.03,14.148,14.148,0,0,1,.36,1.388,4.177,4.177,0,0,1,.108.868,5.726,5.726,0,0,1-.1.936.285.285,0,0,1-.274.238" transform="translate(-212.644 -19.447)"/>
        <path id="Trazado_876821" data-name="Trazado 876821" d="M332.237,97.148c3.187.91,10.168-.759,13.659-5.614,2.429,5.463,10.623,23.825,11.229,24.735s8.043-4.553,16.542-11.382,13.657-8.8,18.817-8.193,7.588-.152,7.133-3.035-1.062-5.312-1.062-5.312,5.918,2.428,15.175-3.035c1.973,5.767,1.821,6.829,2.58,7.739s7.588-1.972,14.113-1.061,19.981,15.288,26.354,21.246c7.79,7.284,16.819,15.175,12.444,23.978-3.055,6.143-14.061,1.82-14.061,1.82s-.912-2.731-5.767-7.587-13.051-13.2-13.051-13.2,9.611,28.936,11.432,33.336c-9.712,8.194-38.184,12.347-45.9,8.838-2.525-7.577-11.056-33.827-14.85-40.96-11.533,8.043-19.576,15.783-26.4,18.21s-12.9,4.856-18.97-11.685c-3.475-9.471-9.409-28.833-9.409-28.833" transform="translate(-150.664 -38.687)" fill="#ffd947"/>
        <path id="Trazado_876822" data-name="Trazado 876822" d="M331.935,97.185c4.986,1.306,11.042-1.81,13.967-5.74h-.472c3.561,8.01,7.016,16.091,10.839,23.98.343.709.539,1.165,1.414.878,2.019-.661,3.893-2.256,5.591-3.473,6.286-4.507,11.968-10.073,18.791-13.774a19.215,19.215,0,0,1,7.068-2.353c2.463-.263,4.9.406,7.366.16,1.487-.148,2.962-.78,3.192-2.4a11.165,11.165,0,0,0-.461-3.478c-.19-.983-.4-1.964-.64-2.935l-.336.336a10.892,10.892,0,0,0,4.189.54,23.751,23.751,0,0,0,11.2-3.6l-.4-.163c.772,2.275,1.3,4.644,2.112,6.9.439,1.218,1.13,1.3,2.35,1.13,3.4-.462,6.642-1.345,10.105-1.329a12.623,12.623,0,0,1,6.934,2.158c4.975,3.066,9.288,7.293,13.488,11.316,4.28,4.1,8.59,8.179,12.833,12.316,4.9,4.781,11.068,11.474,7.875,18.825-2.071,4.766-8.428,3.75-12.433,2.571q-.705-.207-1.394-.461c-.259-.1.121.243.068.1-.059-.159-.131-.313-.2-.467a23.352,23.352,0,0,0-3.9-5.385c-4.032-4.513-8.533-8.668-12.778-12.983q-1-1.012-1.991-2.026a.275.275,0,0,0-.457.266q3.239,9.751,6.546,19.479c1.326,3.9,2.649,7.794,4.054,11.662.2.546.4,1.09.608,1.631.083.215.182.391.114.448a19.043,19.043,0,0,1-1.538,1.126,35.1,35.1,0,0,1-6.621,3.336,78.865,78.865,0,0,1-16.435,4.325,66.275,66.275,0,0,1-15.571.949,24.486,24.486,0,0,1-2.868-.384c-.343-.067-2.158-.324-2.282-.7q-.864-2.59-1.719-5.185c-1.7-5.114-3.411-10.22-5.18-15.309-1.393-4.008-2.819-8.006-4.335-11.97a76.81,76.81,0,0,0-3.593-8.409.273.273,0,0,0-.374-.1c-6.3,4.407-12.192,9.354-18.477,13.774a35.047,35.047,0,0,1-12.509,5.864c-4.449.988-7.73-1.23-10.145-4.868-3.4-5.125-5.084-11.462-7-17.259q-3.241-9.789-6.249-19.655c-.1-.336-.631-.192-.527.145,2.616,8.532,5.3,17.052,8.218,25.484,1.793,5.174,3.652,11.182,7.92,14.9,2.642,2.3,5.895,2.377,9.122,1.478a38.694,38.694,0,0,0,12.067-6.056c6.06-4.3,11.766-9.074,17.857-13.337l-.374-.1a99.333,99.333,0,0,1,4.985,12.144c1.979,5.383,3.84,10.81,5.673,16.244,1.388,4.113,2.744,8.237,4.114,12.355.328.986,3.083,1.172,3.946,1.3a39.535,39.535,0,0,0,6.377.295,85.742,85.742,0,0,0,19.919-2.947c5.6-1.471,11.642-3.446,16.167-7.208a.265.265,0,0,0,.07-.266c-2.451-5.967-4.335-12.211-6.4-18.319q-2.536-7.5-5.033-15.017l-.457.266q4.638,4.725,9.3,9.43c2.318,2.339,4.736,4.6,6.824,7.155a14.857,14.857,0,0,1,2.625,4.08c.2.548,2,.79,2.446.91a19.664,19.664,0,0,0,6.157.748,7.2,7.2,0,0,0,5.319-2.4c1.645-2,2.028-5,1.694-7.476-.408-3.028-2.166-5.756-3.995-8.118a70.847,70.847,0,0,0-7.863-8.153c-4.121-3.853-8.091-7.861-12.211-11.714-3.917-3.663-8.04-7.554-12.829-10.061-5.149-2.694-10.844-.5-16.212.1-1.143.128-1.292-.7-1.56-1.64-.582-2.032-1.167-4.053-1.847-6.055a.277.277,0,0,0-.4-.163,23.708,23.708,0,0,1-10.922,3.529,10.131,10.131,0,0,1-4.044-.521c-.2-.082-.381.153-.336.336.241.973.445,1.954.641,2.936.269,1.355,1.01,3.323-.148,4.45-.9.878-2.608.818-3.757.807-1.458-.014-2.9-.289-4.354-.294-5.647-.023-10.766,3.474-15.088,6.727-5.569,4.192-10.8,9.2-16.952,12.556-.217.119-1.181.7-1.338.42-.231-.414-.426-.851-.629-1.279-.824-1.734-1.616-3.484-2.41-5.232q-4.108-9.036-8.125-18.113c-.092-.208-.365-.144-.472,0-2.774,3.727-8.62,6.728-13.35,5.489a.273.273,0,0,0-.145.527" transform="translate(-150.435 -38.461)" fill="#ffd947"/>
        <path id="Trazado_876823" data-name="Trazado 876823" d="M318.9,77.883a2.488,2.488,0,0,1-1.915-.731,2.712,2.712,0,0,1-.049-3.174c1.383-2.522,3.527-3.341,5.638-3.852a1.694,1.694,0,0,0,1.2-.907c.524-1.052.22-3-.856-5.471-1.355-3.119-2.527-5.813-3.645-6.161a1.182,1.182,0,0,0-1.068.026c-.414.3-.644,1.152-.682,2.544-.079,2.956-1.017,3.631-2.054,4.11a1.8,1.8,0,0,1-1.577.009,3.971,3.971,0,0,1-1.758-2.584,20.487,20.487,0,0,0-1.109,1.966c-.7,1.362-1.312,2.551-2.51,2.8.085,1.359-.343,2.372-1.17,2.737a1.779,1.779,0,0,1-2.061-.59.273.273,0,1,1,.41-.362,1.253,1.253,0,0,0,1.431.453c.5-.222.982-.979.824-2.442a.274.274,0,0,1,.25-.3c1.078-.086,1.635-1.17,2.34-2.54a17.536,17.536,0,0,1,1.484-2.511.27.27,0,0,1,.273-.1.274.274,0,0,1,.212.2c.472,1.89,1.142,2.56,1.62,2.789a1.277,1.277,0,0,0,1.111-.013c.941-.434,1.667-.977,1.737-3.628.044-1.617.334-2.562.91-2.974a1.726,1.726,0,0,1,1.548-.1c1.3.4,2.307,2.607,3.985,6.466.807,1.858,1.609,4.4.843,5.932a2.234,2.234,0,0,1-1.561,1.194c-1.989.481-4.006,1.248-5.286,3.584a2.2,2.2,0,0,0-.027,2.542c.68.747,2.149.731,3.928-.04a9.878,9.878,0,0,0,5.092-4.411.273.273,0,0,1,.5.218,10.223,10.223,0,0,1-5.377,4.7,6.8,6.8,0,0,1-2.634.638" transform="translate(-138.412 -25.817)"/>
        <path id="Trazado_876824" data-name="Trazado 876824" d="M338.954,117.637a6.8,6.8,0,0,1-2.6-.485.273.273,0,0,1,.207-.506,7.9,7.9,0,0,0,5.063.066,12.8,12.8,0,0,0,5.653-2.746c.1-.1.226-.218.352-.334a4.932,4.932,0,0,0,1.035-1.19.273.273,0,1,1,.477.266A5.43,5.43,0,0,1,348,114.032c-.121.111-.238.22-.346.329a13.308,13.308,0,0,1-5.894,2.88,11.138,11.138,0,0,1-2.8.4" transform="translate(-152.452 -50.927)"/>
        <path id="Trazado_876825" data-name="Trazado 876825" d="M339.136,115.059a.274.274,0,0,1-.257-.179c-.168-.46-.326-.927-.487-1.4-.226-.666-.46-1.354-.725-2.034-.283-.705-.6-1.506-.865-2.289-.068-.2-.154-.4-.239-.6a3.966,3.966,0,0,1-.381-1.234.273.273,0,1,1,.544-.046,3.555,3.555,0,0,0,.338,1.063c.091.211.183.424.256.643.256.767.574,1.561.854,2.261s.507,1.388.735,2.059c.16.469.317.933.484,1.388a.274.274,0,0,1-.163.351.284.284,0,0,1-.094.016" transform="translate(-152.452 -48.534)"/>
        <path id="Trazado_876826" data-name="Trazado 876826" d="M344.017,114.369a.273.273,0,0,1-.232-.128,5.568,5.568,0,0,1-.457-1.047c-.056-.155-.112-.312-.173-.463-.107-.319-.22-.622-.334-.925s-.228-.607-.33-.911c-.217-.61-.5-1.281-.848-2.046-.157-.368-.287-.743-.412-1.107s-.251-.728-.4-1.074a.273.273,0,1,1,.5-.216c.157.365.288.745.415,1.113s.248.72.395,1.063c.357.773.641,1.459.865,2.09.1.3.213.6.324.9s.233.62.336.93c.058.142.116.3.174.466a5.08,5.08,0,0,0,.407.942.274.274,0,0,1-.087.377.269.269,0,0,1-.145.042" transform="translate(-154.552 -48.199)"/>
        <path id="Trazado_876827" data-name="Trazado 876827" d="M350.183,112.333a.273.273,0,0,1-.265-.207,6.174,6.174,0,0,0-.307-.823c-.069-.161-.135-.319-.189-.463-.126-.3-.242-.61-.359-.92s-.223-.595-.346-.892l-.029-.071c-.587-1.417-1.194-2.883-1.84-4.323a.273.273,0,0,1,.5-.224c.649,1.447,1.258,2.917,1.846,4.338l.029.07c.126.3.24.607.354.91s.227.607.354.911c.055.147.119.3.184.451a6.615,6.615,0,0,1,.334.9.274.274,0,0,1-.265.34" transform="translate(-157.279 -47.275)"/>
        <path id="Trazado_876828" data-name="Trazado 876828" d="M353.91,107.811a.272.272,0,0,1-.244-.15,4.769,4.769,0,0,1-.217-.541,4.638,4.638,0,0,0-.187-.473l-.774-1.879a13.846,13.846,0,0,1-.607-1.444c-.036-.083-.095-.2-.155-.314a3.059,3.059,0,0,1-.362-.952.273.273,0,0,1,.542-.069,2.692,2.692,0,0,0,.307.771c.067.131.131.256.18.371a13.825,13.825,0,0,0,.591,1.407l.165.357.612,1.529a4.648,4.648,0,0,1,.2.513,4.359,4.359,0,0,0,.19.478.273.273,0,0,1-.121.367.276.276,0,0,1-.123.029" transform="translate(-159.336 -46.142)"/>
        <path id="Trazado_876829" data-name="Trazado 876829" d="M459.3,99.156a.272.272,0,0,1-.271-.246,7.674,7.674,0,0,0-.341-1.508c-.056-.234-.1-.444-.142-.653a11.015,11.015,0,0,0-.314-1.269c-.248-.644-.451-1.306-.649-1.946-.09-.324-.154-.606-.217-.886s-.125-.55-.2-.825a.273.273,0,0,1,.527-.144c.077.283.141.566.206.848s.124.547.2.821c.2.656.4,1.309.649,1.947a11.668,11.668,0,0,1,.335,1.343c.042.2.084.41.132.615a7.846,7.846,0,0,1,.359,1.6.273.273,0,0,1-.244.3H459.3" transform="translate(-207.313 -41.484)"/>
        <path id="Trazado_876830" data-name="Trazado 876830" d="M464.3,99.662a.273.273,0,0,1-.273-.273,1.689,1.689,0,0,0-.094-.459c-.019-.064-.037-.125-.051-.183a6.52,6.52,0,0,0-.246-.941c-.169-.782-.387-1.521-.559-2.081-.106-.4-.2-.782-.286-1.168s-.173-.745-.273-1.118c-.038-.187-.09-.363-.143-.543a4.048,4.048,0,0,1-.22-1.146.273.273,0,0,1,.547,0,3.64,3.64,0,0,0,.2.99c.058.2.114.388.151.574.1.362.185.74.273,1.118s.177.761.279,1.142c.172.56.393,1.314.56,2.087a6.744,6.744,0,0,1,.254.974l.04.137a2.156,2.156,0,0,1,.116.615.273.273,0,0,1-.273.273" transform="translate(-209.579 -41.484)"/>
        <path id="Trazado_876831" data-name="Trazado 876831" d="M469.859,98.635a.274.274,0,0,1-.26-.187c-.026-.078-.051-.168-.077-.26s-.049-.172-.074-.246a3.887,3.887,0,0,1-.211-.742,11.815,11.815,0,0,0-.287-1.194c-.057-.2-.114-.409-.165-.614l-.187-.7c-.348-1.3-.677-2.521-.977-3.806a.274.274,0,0,1,.533-.125c.3,1.277.625,2.5.972,3.79l.189.7c.051.2.106.4.162.6a12.021,12.021,0,0,1,.3,1.243,3.391,3.391,0,0,0,.186.65c.033.1.06.191.087.285s.048.166.071.237a.273.273,0,0,1-.26.36" transform="translate(-212.055 -41.064)"/>
        <path id="Trazado_876832" data-name="Trazado 876832" d="M475.153,96.665a.274.274,0,0,1-.261-.191c-.37-1.165-.683-2.324-.964-3.4l-.143-.469c-.156-.515-.318-1.049-.509-1.582-.086-.239-.156-.5-.225-.757a6.558,6.558,0,0,0-.322-.993.274.274,0,0,1,.5-.225,6.978,6.978,0,0,1,.351,1.077c.066.245.13.488.211.713.2.547.36,1.087.518,1.609l.145.477c.284,1.083.593,2.234.96,3.387a.273.273,0,0,1-.178.343.267.267,0,0,1-.083.013" transform="translate(-214.364 -40.308)"/>
        <path id="Trazado_876833" data-name="Trazado 876833" d="M460.421,103.661a5.659,5.659,0,0,1-1.034-.089,11.439,11.439,0,0,1-1.372-.32,9.15,9.15,0,0,0-1.54-.334.273.273,0,0,1,.055-.544,9.694,9.694,0,0,1,1.631.351,11.124,11.124,0,0,0,1.317.308,6.123,6.123,0,0,0,1.656.049,6.5,6.5,0,0,1,.766-.011,5.183,5.183,0,0,0,.983-.038,15.335,15.335,0,0,0,3.477-1.195,22.74,22.74,0,0,0,2.9-1.5c.552-.35,1.109-.706,1.655-1.1.287-.24.6-.554.878-.832a.273.273,0,1,1,.386.386c-.285.286-.608.61-.929.877-.573.418-1.138.778-1.685,1.125a23.4,23.4,0,0,1-2.98,1.545,15.737,15.737,0,0,1-3.608,1.233,5.636,5.636,0,0,1-1.086.045,6.107,6.107,0,0,0-.7.009c-.274.023-.525.034-.76.034" transform="translate(-206.893 -44.589)"/>
        <path id="Trazado_876834" data-name="Trazado 876834" d="M431.045,145.61a.273.273,0,0,1-.244-.151c-.12-.24-.219-.5-.314-.746s-.185-.48-.294-.7a10.813,10.813,0,0,0-.6-1.347c-.113-.252-.228-.465-.343-.679a5.2,5.2,0,0,1-.6-1.457.273.273,0,0,1,.536-.107,4.71,4.71,0,0,0,.545,1.305c.121.226.243.452.346.687a10.718,10.718,0,0,1,.616,1.39,7.581,7.581,0,0,1,.3.708c.1.248.186.481.293.7a.273.273,0,0,1-.244.4" transform="translate(-194.385 -63.582)"/>
        <path id="Trazado_876835" data-name="Trazado 876835" d="M514.287,139.191a.311.311,0,0,1-.141-.034,6.169,6.169,0,0,1-1.408-1.115c-.162-.156-.325-.314-.495-.465a11.04,11.04,0,0,0-1.614-1.138l-2.113-1.359a.331.331,0,0,1-.1-.448.311.311,0,0,1,.434-.1l2.1,1.353a11.54,11.54,0,0,1,1.7,1.2c.18.16.35.323.519.486a5.589,5.589,0,0,0,1.259,1.008.33.33,0,0,1,.142.436.315.315,0,0,1-.283.18" transform="translate(-230.537 -60.984)"/>
        <path id="Trazado_876836" data-name="Trazado 876836" d="M541.019,199.387a.274.274,0,0,1-.256-.178l-3.529-9.485a.273.273,0,0,1,.513-.191l3.529,9.485a.274.274,0,0,1-.161.352.28.28,0,0,1-.1.017" transform="translate(-243.62 -85.87)"/>
        <path id="Trazado_876837" data-name="Trazado 876837" d="M474.445,227.189a72.677,72.677,0,0,1-7.6-.391.272.272,0,0,1-.243-.3.267.267,0,0,1,.3-.243c14.749,1.552,31.32-1.635,42.222-8.12a.273.273,0,1,1,.28.469c-9.15,5.443-22.254,8.585-34.955,8.585" transform="translate(-211.595 -98.903)"/>
        <path id="Trazado_876838" data-name="Trazado 876838" d="M535.335,240.916a6.736,6.736,0,0,1-2.638-.557c-4.042-1.71-7.25-7.088-8.52-11.362a.273.273,0,0,1,.524-.156c1.274,4.287,4.5,9.446,8.209,11.014a6.036,6.036,0,0,0,5.365-.251.273.273,0,1,1,.253.484,6.844,6.844,0,0,1-3.193.827" transform="translate(-237.701 -103.688)"/>
        <path id="Trazado_876839" data-name="Trazado 876839" d="M547.651,244.459a.273.273,0,0,1-.272-.248c-1.045-11.047-6.744-22.551-6.8-22.666a.273.273,0,1,1,.489-.244c.058.116,5.8,11.708,6.857,22.859a.274.274,0,0,1-.247.3h-.026" transform="translate(-245.131 -100.288)"/>
        <path id="Trazado_876840" data-name="Trazado 876840" d="M308.967,68.417a1.792,1.792,0,0,1-1.368-.659,4.238,4.238,0,0,1-.822-2.224,7.936,7.936,0,0,1,1.328-4.162.273.273,0,1,1,.469.281,7.428,7.428,0,0,0-1.251,3.866,3.692,3.692,0,0,0,.708,1.905,1.2,1.2,0,0,0,1.259.4.273.273,0,1,1,.16.522,1.646,1.646,0,0,1-.483.072" transform="translate(-139.116 -27.771)"/>
        <path id="Trazado_876841" data-name="Trazado 876841" d="M317.8,61.357a.273.273,0,0,1-.272-.244,27.614,27.614,0,0,1-.087-3.152c0-.292.005-.579.005-.854a.273.273,0,1,1,.547,0c0,.277,0,.565-.005.859a27.146,27.146,0,0,0,.084,3.088.274.274,0,0,1-.242.3l-.03,0" transform="translate(-143.952 -25.773)"/>
        <path id="Trazado_876842" data-name="Trazado 876842" d="M500.706,246.827a11.73,11.73,0,0,1-3-.45.273.273,0,0,1-.183-.181l-6.588-21.268a.273.273,0,0,1,.522-.161L498,245.892a8.987,8.987,0,0,0,4.031.232c-1.341-4.649-4.479-16.749-4.512-16.873a.274.274,0,1,1,.53-.138c.032.126,3.288,12.677,4.581,17.112a.274.274,0,0,1-.168.333,5.134,5.134,0,0,1-1.752.267" transform="translate(-222.624 -101.84)"/>
        <path id="Trazado_876843" data-name="Trazado 876843" d="M141.245,144.129a16.74,16.74,0,0,1-4.191,1.539c-.36.056-1.677-10.037-1.677-10.037,6.108-2.239,9.1-4.351,10.723-9s-2.845-5.462-3.1-10.154c-.2-3.751.569-15.847-13.391-14.026S104.419,124,110.085,129.965s10.826,6.777,10.725,8.3-5.464,9.813-5.766,10.217,3.844,8.6,8.093,10.32,27.821.91,18.109-14.67" transform="translate(-49.242 -46.374)" fill="#ffd4d4"/>
        <path id="Trazado_876844" data-name="Trazado 876844" d="M53.61,331.9C53,323.1,53,294.416,69.848,281.973c1.366-1.062,2.479-4.249,2.479-4.249,7.536,1.972,26.861,7.133,35.409,6.678a46.452,46.452,0,0,1-3.844,7.284l2.68,40.062-22,.456-4.4-6.981.606,6.677Z" transform="translate(-24.23 -125.944)" fill="#f2ac30"/>
        <path id="Trazado_876845" data-name="Trazado 876845" d="M53.638,331.673a86.058,86.058,0,0,1,2.269-26.6,48.911,48.911,0,0,1,6.742-15.648,31.9,31.9,0,0,1,5.8-6.435,11,11,0,0,0,2.524-2.5,15.045,15.045,0,0,0,1.336-2.837c.011-.03.022-.06.032-.09l-.336.191c5.753,1.506,11.513,2.986,17.326,4.249,5.869,1.274,12.109,2.721,18.156,2.439l-.263-.346a38.073,38.073,0,0,1-3.731,7.084c-.218.345-.087.807-.061,1.2q.287,4.294.575,8.587.84,12.567,1.681,25.134l.362,5.416.273-.273L89.47,331.6l-3.832.08L84.6,331.7c-.468.009,0,.2-.134-.008l-4.306-6.831c-.134-.213-.535-.148-.509.138q.3,3.339.606,6.677l.273-.273H53.365a.273.273,0,0,0,0,.547H80.528a.274.274,0,0,0,.273-.273q-.3-3.338-.606-6.677l-.509.138,4.306,6.832c.248.394.609.279,1.037.27l3.751-.078,17.546-.363a.274.274,0,0,0,.273-.273q-1.306-19.523-2.612-39.045-.027-.412-.055-.822c-.022-.321-.078-.01.178-.418a37.928,37.928,0,0,0,3.643-6.987.274.274,0,0,0-.263-.346c-6.009.281-12.176-1.162-18.012-2.419-5.814-1.253-11.572-2.742-17.325-4.249a.279.279,0,0,0-.336.191,16.933,16.933,0,0,1-1.147,2.515,12.175,12.175,0,0,1-3.122,3.11,32.474,32.474,0,0,0-5.372,6.1,48.342,48.342,0,0,0-6.629,15.131,85.353,85.353,0,0,0-2.5,26.783q.018.3.039.605c.024.35.571.352.547,0" transform="translate(-23.985 -125.717)" fill="#f2ac30"/>
        <path id="Trazado_876846" data-name="Trazado 876846" d="M99.655,291.43a.265.265,0,0,1-.046,0c-6.215-1.07-11.952-3.483-14.615-6.147a.273.273,0,0,1,.386-.386c2.589,2.589,8.211,4.942,14.321,5.994a.273.273,0,0,1-.046.543" transform="translate(-38.507 -129.158)"/>
        <path id="Trazado_876847" data-name="Trazado 876847" d="M63.091,336.831a.273.273,0,0,1-.273-.261c-.259-5.8-.766-35.373,14.667-48.178a.273.273,0,1,1,.349.421C62.6,301.452,63.108,330.792,63.365,336.545a.273.273,0,0,1-.261.285h-.013" transform="translate(-28.452 -130.753)"/>
        <path id="Trazado_876848" data-name="Trazado 876848" d="M159.226,170.76c4.509-1.093,6.443-2.6,9.428-2.9,1.012-3.238-2.377-8.8-4.754-9.814a19.277,19.277,0,0,1-6.475,2.884c.708,4.777,1.8,9.832,1.8,9.832" transform="translate(-71.39 -71.671)" fill="#32015c"/>
        <path id="Trazado_876849" data-name="Trazado 876849" d="M159.076,170.785c3.144-.789,6.126-2.512,9.356-2.893a.281.281,0,0,0,.263-.2c.786-2.91-.942-6.138-2.725-8.33-.274-.337-1.843-2.174-2.431-1.793a18.543,18.543,0,0,1-6.41,2.856.278.278,0,0,0-.191.336q.744,4.942,1.8,9.832c.074.345.6.2.527-.145q-1.053-4.885-1.8-9.832-.1.168-.191.336a13.482,13.482,0,0,0,2.744-.873c.558-.24,1.1-.5,1.647-.771.283-.143,1.845-1.28,2.074-1.172,1.977.935,3.323,3.528,4.058,5.462a7.677,7.677,0,0,1,.525,3.167c-.056.972-1.642.885-2.435,1.135-2.345.741-4.561,1.757-6.958,2.358a.274.274,0,0,0,.145.527" transform="translate(-71.168 -71.432)" fill="#32015c"/>
        <path id="Trazado_876850" data-name="Trazado 876850" d="M144.658,162.2a18.033,18.033,0,0,1-8.37-2.057.273.273,0,0,1,.257-.482,17.325,17.325,0,0,0,11.115,1.711.273.273,0,0,1,.1.537,16.346,16.346,0,0,1-3.106.291" transform="translate(-61.739 -72.388)"/>
        <path id="Trazado_876851" data-name="Trazado 876851" d="M90.759,113.772c1.342,4.227,4.079,5.349,3.377-.966,11.912-7.132,12.329-16.941,10.66-20.356,7.36.987,12.293,4.325,11.154,12.672,7.815-2.048,7.285-15.251.53-17.679-.151-9.561-10.576-11.978-20.865-6.147C91,83.91,89.364,87.1,83.079,89.557c-7.372,2.885-9.929,12.3-9.929,20.221,0,12.057-.07,17.956-9.555,25.315s-18.386,16.7-12.9,28.3A11.478,11.478,0,0,0,61.319,170c-2.048,9.484,3.793,15.1,9.409,14.72,0,0,1.593-19.728,3.642-28.378s6.069-12.217,12.823-15.631,8.484-4.618,7.815-11.154a73.039,73.039,0,0,0-1.441-8.878c-5.995,2.5-8.971-.97-9.637-3.491-1.062-4.021,4.477-7.133,6.829-3.415" transform="translate(-22.228 -35.442)" fill="#32015c"/>
        <path id="Trazado_876852" data-name="Trazado 876852" d="M90.276,113.618c.314.945,2.1,5.215,3.583,3.143a3.154,3.154,0,0,0,.4-1.421,9.224,9.224,0,0,0,.036-1.4c-.023-1.065.07-1.3.979-1.888a27.608,27.608,0,0,0,5.459-4.639c3.4-3.757,6.462-10.273,4.081-15.326l-.308.4c3.017.423,6.132,1.22,8.445,3.315,2.557,2.316,2.915,5.858,2.508,9.093a.274.274,0,0,0,.345.263c4.262-1.2,6.094-5.5,5.911-9.642a11.25,11.25,0,0,0-1.928-5.864,7.941,7.941,0,0,0-1.846-1.865,6.492,6.492,0,0,0-1.305-.717c-.251-.108-.214-1.347-.263-1.677-.772-5.178-5.459-7.713-10.324-7.739-6.341-.034-11.642,3.453-16.35,7.3a28.106,28.106,0,0,1-4,2.753c-1.575.887-3.318,1.406-4.872,2.329A14.77,14.77,0,0,0,75.5,96.1c-2.883,5.574-2.778,11.751-2.869,17.844-.081,5.4-.6,10.736-3.859,15.236a35.518,35.518,0,0,1-6.958,6.576,56.385,56.385,0,0,0-7.773,7.375,23.357,23.357,0,0,0-5.092,9.357,16.361,16.361,0,0,0,1.29,10.823A11.671,11.671,0,0,0,61.1,170.044l-.263-.346c-.791,3.876-.529,7.983,1.858,11.269a9.173,9.173,0,0,0,7.814,3.8.28.28,0,0,0,.273-.273,240.7,240.7,0,0,1,3.189-26.234c1.139-5.889,3.405-11.134,8.377-14.732a76.629,76.629,0,0,1,7.833-4.42,9.685,9.685,0,0,0,4.4-4.034c1.1-2.355.554-5.315.245-7.771a63.427,63.427,0,0,0-1.217-6.922.272.272,0,0,0-.336-.191c-3.429,1.363-7.527,1.125-9.105-2.7-1.55-3.761,3.634-7.435,6.134-3.8.2.288.672.015.472-.276-2.378-3.459-8.028-1.15-7.442,3a6.213,6.213,0,0,0,2.708,4.208c2.2,1.512,5.064,1.02,7.379.1l-.336-.191a66.5,66.5,0,0,1,1.258,7.267c.32,2.532.776,5.5-.655,7.784-1.362,2.18-4.279,3.363-6.467,4.477a33.834,33.834,0,0,0-6.954,4.429c-4.2,3.638-5.927,8.9-6.93,14.2-1.022,5.4-1.628,10.877-2.2,16.334-.333,3.156-.64,6.317-.9,9.48l.273-.273a8.71,8.71,0,0,1-7.2-3.34c-2.515-3.051-2.7-7.329-1.948-11.035a.277.277,0,0,0-.263-.346,11.182,11.182,0,0,1-10.014-5.738c-3.893-6.8-1.537-14.242,3.08-19.928a52.565,52.565,0,0,1,7.7-7.42,43.985,43.985,0,0,0,6.958-6.4c3.123-3.915,4.046-8.665,4.284-13.553.295-6.059-.2-11.979,1.885-17.806a16.749,16.749,0,0,1,4.766-7.176,15.379,15.379,0,0,1,4.172-2.29A23.662,23.662,0,0,0,88.323,86.7c2.242-1.581,4.195-3.518,6.524-4.984a22.991,22.991,0,0,1,9.783-3.441,11.884,11.884,0,0,1,7.841,1.7,8.75,8.75,0,0,1,3.517,7.247.283.283,0,0,0,.2.263c6.911,2.641,6.707,15.109-.53,17.152l.346.263c.411-3.268.014-6.578-2.279-9.092-2.27-2.489-5.872-3.394-9.076-3.843a.277.277,0,0,0-.308.4c1.22,2.59.686,5.849-.217,8.44-1.753,5.033-5.9,8.839-10.346,11.542a.268.268,0,0,0-.135.236c.067.672.554,4.082-.649,4.162-1.119.075-1.954-2.557-2.192-3.27-.11-.332-.638-.19-.527.145" transform="translate(-22.008 -35.215)" fill="#32015c"/>
        <path id="Trazado_876853" data-name="Trazado 876853" d="M148.41,135.2c-1.387.184-1.556,3-.19,2.921s1.327-3.074.19-2.921" transform="translate(-66.788 -61.309)"/>
        <path id="Trazado_876854" data-name="Trazado 876854" d="M148.844,134.988a.273.273,0,0,1-.155-.5l.058-.04a3.477,3.477,0,0,0,1-.853.273.273,0,1,1,.478.266,3.673,3.673,0,0,1-1.163,1.037l-.059.041a.273.273,0,0,1-.155.048" transform="translate(-67.374 -60.52)"/>
        <path id="Trazado_876855" data-name="Trazado 876855" d="M166.651,129.3c-1.378.236-1.445,3.051-.083,2.926s1.215-3.12.083-2.926" transform="translate(-75.089 -58.634)"/>
        <path id="Trazado_876856" data-name="Trazado 876856" d="M167.056,129.071a.273.273,0,0,1-.164-.492l.07-.052a3.439,3.439,0,0,0,.951-.88.273.273,0,1,1,.488.248,3.618,3.618,0,0,1-1.112,1.07l-.069.052a.27.27,0,0,1-.163.055" transform="translate(-75.633 -57.818)"/>
        <path id="Trazado_876857" data-name="Trazado 876857" d="M161.878,137.748a.273.273,0,0,1-.2-.463c.166-.173.324-.333.473-.485,1.566-1.595,1.988-2.023.443-4.372l-.079-.121c-1.811-2.753-2.065-3.3-.425-6.344a.273.273,0,1,1,.48.259c-1.531,2.847-1.347,3.125.4,5.785l.079.121c1.787,2.717,1.114,3.4-.51,5.055-.148.151-.3.31-.47.482a.271.271,0,0,1-.2.084" transform="translate(-73.011 -57.057)"/>
        <path id="Trazado_876858" data-name="Trazado 876858" d="M141.751,128.795c-.969,1.753-.8,2.654.455,1.556a19.152,19.152,0,0,1,4.06-2.695c1.024-.455.035-1.738-1.594-1.441a5.164,5.164,0,0,0-2.921,2.58" transform="translate(-64 -57.216)"/>
        <path id="Trazado_876859" data-name="Trazado 876859" d="M141.145,130.877h0a.482.482,0,0,1-.427-.238c-.277-.47.156-1.458.568-2.2a5.352,5.352,0,0,1,3.112-2.717,2.974,2.974,0,0,1,.525-.048,1.72,1.72,0,0,1,1.79,1.066.83.83,0,0,1-.561.942,18.868,18.868,0,0,0-3.991,2.65,1.753,1.753,0,0,1-1.015.548m0-.547,0,.273v-.273h0m3.779-4.113a2.4,2.4,0,0,0-.427.039,4.955,4.955,0,0,0-2.731,2.443,3.442,3.442,0,0,0-.586,1.626,1.673,1.673,0,0,0,.622-.408,19.531,19.531,0,0,1,4.129-2.739c.193-.085.277-.2.249-.329-.056-.265-.524-.633-1.256-.633" transform="translate(-63.773 -56.99)"/>
        <path id="Trazado_876860" data-name="Trazado 876860" d="M163.015,123.88c.986-1.783,2.616-3.566,3.452-3.339s1.214,1.366.721,1.708-.873-.608-2.5.493c-1.43.964-1.746,1.441-1.669,1.138" transform="translate(-73.92 -54.655)"/>
        <path id="Trazado_876861" data-name="Trazado 876861" d="M162.8,124.019h-.134l-.1-.111a.359.359,0,0,1-.044-.32l.026-.065c1.009-1.824,2.744-3.75,3.763-3.47a1.629,1.629,0,0,1,1.123,1.267.8.8,0,0,1-1.09.992,1.7,1.7,0,0,0-.452-.073,2.4,2.4,0,0,0-1.283.5c-.673.454-1.094.8-1.346,1s-.336.273-.468.273m3.291-3.449c-.534,0-1.527.922-2.387,2.146.175-.128.376-.271.6-.425a2.907,2.907,0,0,1,1.588-.6,2.2,2.2,0,0,1,.591.091c.142.037.217.088.322.015a.385.385,0,0,0,.091-.387,1.079,1.079,0,0,0-.727-.833.318.318,0,0,0-.082-.01" transform="translate(-73.694 -54.43)"/>
        <path id="Trazado_876862" data-name="Trazado 876862" d="M154.29,151.23a3.453,3.453,0,0,1-2.257-.912,7.855,7.855,0,0,1-1.691-2.082.273.273,0,1,1,.473-.274,7.3,7.3,0,0,0,1.568,1.937,2.788,2.788,0,0,0,2.393.739,2.523,2.523,0,0,0,1.084-.506.273.273,0,1,1,.363.408,3.038,3.038,0,0,1-1.329.631,3.225,3.225,0,0,1-.6.058" transform="translate(-68.161 -67.036)"/>
        <path id="Trazado_876863" data-name="Trazado 876863" d="M156.485,149.164c-.139,0-.279-.01-.418-.02-.438-.031-.88-.044-1.3-.1-.193-.027-.386-.054-.579-.068-.533-.087-.961-.161-1.444-.272-.145-.039-.279-.071-.413-.1a7.943,7.943,0,0,1-.871-.247,3.8,3.8,0,0,1-.495-.2c-.11-.05-.223-.1-.343-.146a.273.273,0,1,1,.193-.51c.131.049.254.1.374.158a3.371,3.371,0,0,0,.439.175,7.459,7.459,0,0,0,.831.236c.139.034.278.067.417.105.458.1.878.177,1.378.26.18.013.384.04.588.069.443.062.851.069,1.265.1a4.159,4.159,0,0,0,1.006-.052l.1.537a4.454,4.454,0,0,1-.727.08" transform="translate(-68.225 -66.88)"/>
        <path id="Trazado_876864" data-name="Trazado 876864" d="M158.9,132.372a2.749,2.749,0,0,1,1.258-1.036,1.583,1.583,0,0,1,1.464.331.273.273,0,0,0,.276-.472,2.151,2.151,0,0,0-1.885-.385,3.123,3.123,0,0,0-1.584,1.286c-.2.291.273.564.472.276" transform="translate(-71.821 -59.281)" fill="#495edb"/>
        <path id="Trazado_876865" data-name="Trazado 876865" d="M147.925,122.305c-6.759-4.207-11.3,7.683-5.923,11.622,2.821,2.067,6.222.357,7.608-2.5s1.055-7.137-1.685-9.117c-.286-.207-.559.267-.276.472,2.408,1.741,2.594,5.3,1.693,7.874-1.039,2.973-4.557,4.914-7.248,2.645-4.448-3.749-.512-14.295,5.555-10.519.3.187.574-.286.276-.472" transform="translate(-63.321 -55.061)" fill="#495edb"/>
        <path id="Trazado_876866" data-name="Trazado 876866" d="M131.5,141.585l5.274-1.556a.273.273,0,0,0-.145-.527l-5.274,1.556a.273.273,0,0,0,.145.527" transform="translate(-59.479 -63.257)" fill="#495edb"/>
        <path id="Trazado_876867" data-name="Trazado 876867" d="M171.713,124.1c.375-2.295.34-6.154-2.036-7.448a2.878,2.878,0,0,0-3.113.668c-1.354,1.134-1.9,3.154-2.209,4.808-.413,2.24-.651,6.974,2.581,7.352,2.978.348,4.314-2.984,4.778-5.379.067-.344-.46-.491-.527-.145-.384,1.985-1.28,4.764-3.638,5-3.024.308-2.951-3.943-2.776-5.885.182-2.022,1.742-7.523,4.84-5.836,1.97,1.073,1.877,4.862,1.574,6.717-.056.345.47.492.527.145" transform="translate(-74.425 -52.792)" fill="#495edb"/>
        <path id="Trazado_876868" data-name="Trazado 876868" d="M151.406,357.2c.621-.994-.444-2.535-.986-3.111-1.6-1.7-3.262-3.187-6.4-3.339-1.149-.055-3.724.459-4.856.2-1.835-.414-2.581-13.252-2.581-13.252-7.284.986-15.074,2.125-15.074,2.125s4.1,16.487,5.21,17.6a4.61,4.61,0,0,0,4.6,1.516,49.565,49.565,0,0,1,6.171-1.112,11.936,11.936,0,0,1,5.16.607c.733.248.831.868,2.227.355.563-.208,1.948.582,2.529.4a5.806,5.806,0,0,0,1.114-.759c.151-.228,1.82.452,2.882-1.24" transform="translate(-55.103 -153.143)" fill="#ffd4d4"/>
        <path id="Trazado_876869" data-name="Trazado 876869" d="M88.612,227.687,88,231.329s3.844,2.933,10.925,3.743c1.417,6.879,7.386,31.161,7.386,31.161,5.16,1.214,12.9-.1,15.326-1.72-.1-7.588-2.983-25.292-3.793-26.81a13.123,13.123,0,0,0,5.565.3c2.225-6.78,4.957-14.165,5.968-17s2.024-4.046,4.452-5.058,10.522-4.552,8.9-17.6c5.16.708,12.749,1.922,12.749,1.922l-.2-21.65s-13.052-6.476-24.18-1.012c3.44,3.238,2.328,8.9-3.946,11.939s-14.771.4-19.728-5.666a21.6,21.6,0,0,0-15.479,16.9c-2.023,10.42-3.339,26.911-3.339,26.911" transform="translate(-39.909 -79.549)" fill="#7d6eb2"/>
        <path id="Trazado_876870" data-name="Trazado 876870" d="M88.125,227.369l-.607,3.642a.29.29,0,0,0,.125.309,15.388,15.388,0,0,0,2.938,1.626,25.953,25.953,0,0,0,3.264,1.191c.455.136,4.614.839,4.63.915.782,3.779,1.695,7.532,2.584,11.286q2.341,9.873,4.77,19.723a.272.272,0,0,0,.191.191,26.258,26.258,0,0,0,13.668-.882,8.735,8.735,0,0,0,1.869-.867c.355-.225.1-1.367.087-1.721-.088-1.929-.275-3.855-.482-5.775-.45-4.186-1.051-8.359-1.75-12.511-.272-1.617-.563-3.232-.905-4.837a10.016,10.016,0,0,0-.645-2.34l-.309.4a13.4,13.4,0,0,0,5.709.3c.242-.057.3-.525.344-.654q.462-1.4.939-2.8.853-2.512,1.742-5.01c.925-2.62,1.875-5.231,2.818-7.845.954-2.643,1.959-4.654,4.666-5.785a15.1,15.1,0,0,0,6.077-4.415c3.021-3.758,3.476-8.789,2.938-13.416l-.346.264c4.257.587,8.505,1.243,12.749,1.922a.278.278,0,0,0,.346-.263q-.1-10.825-.2-21.65a.27.27,0,0,0-.136-.236c-7.374-3.633-16.935-4.6-24.456-1.012a.276.276,0,0,0-.055.43,5.857,5.857,0,0,1,1.13,6.971c-1.344,2.789-4.426,4.593-7.313,5.366-6.3,1.687-13.108-1.664-17.1-6.451a.268.268,0,0,0-.266-.07,23.038,23.038,0,0,0-10.177,6.165c-3.672,3.835-5.14,8.649-6,13.762-1.349,7.982-2.191,16.076-2.837,24.143-.028.351.519.349.547,0,.293-3.669.663-7.333,1.068-10.992.369-3.333.784-6.661,1.273-9.978a49.464,49.464,0,0,1,2-9.52,21.346,21.346,0,0,1,12.066-12.291c.489-.2.988-.378,1.49-.544.77-.255,1.017.379,1.527.917a19.644,19.644,0,0,0,3.771,3.028,18.271,18.271,0,0,0,8.4,2.748c4.069.3,8.652-1.319,11.163-4.651,2.116-2.809,2.247-6.441-.345-8.991q-.027.214-.055.429c6.147-2.93,13.151-2.547,19.538-.636a30.553,30.553,0,0,1,4.27,1.6c.031.015-.04-.343-.036.163l.015,1.594q.093,9.852.184,19.7l.346-.264c-4.244-.678-8.492-1.334-12.749-1.922-.155-.021-.368.068-.346.263.547,4.7.049,9.649-3.08,13.4-1.731,2.074-3.966,3.151-6.344,4.266a7.364,7.364,0,0,0-3.631,4.159c-.9,2.141-1.6,4.384-2.384,6.567q-1.671,4.654-3.257,9.337c-.061.183-.477,1.681-.487,1.683a6.32,6.32,0,0,1-.806.1,15.574,15.574,0,0,1-4.552-.421.276.276,0,0,0-.309.4,16.161,16.161,0,0,1,.952,4c.481,2.512.883,5.039,1.259,7.568.436,2.935.815,5.88,1.119,8.832q.189,1.84.315,3.686c.036.538.063,1.076.085,1.614.03.735.045.839-.626,1.164-2.807,1.355-6.293,1.656-9.356,1.722-.807.017-1.614-.017-2.418-.075-.259-.019-2.378-.257-2.364-.2l-.173-.7q-1.324-5.4-2.629-10.8c-1.578-6.535-3.221-13.067-4.584-19.651a.279.279,0,0,0-.263-.2,25.52,25.52,0,0,1-10.043-3.214q-.33-.2-.645-.419c-.21-.146.067-.008.03.213.028-.166.055-.332.083-.5l.52-3.121c.057-.345-.469-.492-.527-.145" transform="translate(-39.685 -79.303)" fill="#7d6eb2"/>
        <path id="Trazado_876871" data-name="Trazado 876871" d="M104.077,268.5a.274.274,0,0,1-.268-.219c-1.679-8.3-3.506-16.274-4.444-19.4a.273.273,0,0,1,.524-.157c.942,3.142,2.774,11.14,4.456,19.449a.274.274,0,0,1-.214.322.269.269,0,0,1-.055.005" transform="translate(-45.055 -112.703)"/>
        <path id="Trazado_876872" data-name="Trazado 876872" d="M139.5,267.942a.273.273,0,0,1-.268-.222,13.416,13.416,0,0,0-.985-2.639,38.121,38.121,0,0,1-1.842-4.82c-.7-2.342-.844-7.676-.976-12.382-.08-2.885-.156-5.609-.349-7.188a.272.272,0,0,1,.238-.3.269.269,0,0,1,.3.238c.2,1.6.272,4.342.353,7.239.131,4.672.278,9.969.953,12.242a37.528,37.528,0,0,0,1.818,4.754,13.7,13.7,0,0,1,1.023,2.759.273.273,0,0,1-.218.319.27.27,0,0,1-.051,0" transform="translate(-61.256 -109.01)"/>
        <path id="Trazado_876873" data-name="Trazado 876873" d="M187.608,214.048a.273.273,0,0,1-.272-.245c0-.03-.307-2.952-.606-4.945a.273.273,0,0,1,.54-.081c.3,2.006.606,4.941.609,4.97a.273.273,0,0,1-.244.3l-.028,0" transform="translate(-84.678 -94.572)"/>
        <path id="Trazado_876874" data-name="Trazado 876874" d="M101.738,359.762a.273.273,0,0,1-.273-.26l-.354-6.929a.273.273,0,1,1,.546-.028l.354,6.93a.273.273,0,0,1-.259.286h-.014" transform="translate(-45.852 -159.756)"/>
        <path id="Trazado_876875" data-name="Trazado 876875" d="M101.659,356.529a.273.273,0,0,1-.058-.54l4.6-1.013a.273.273,0,0,1,.118.534l-4.6,1.012a.272.272,0,0,1-.059.007" transform="translate(-45.977 -160.973)"/>
        <path id="Trazado_876876" data-name="Trazado 876876" d="M157.651,372.541a.273.273,0,0,1-.08-.534c.066-.02.081-.048.091-.075a1.926,1.926,0,0,0-.389-1.131,6.506,6.506,0,0,0-4.064-2.41,7.234,7.234,0,0,0-2.063-.048,7.761,7.761,0,0,0-.97.184c-.171.04-.342.08-.513.114a.273.273,0,1,1-.107-.536c.166-.033.331-.072.5-.11a8.3,8.3,0,0,1,1.048-.2,7.778,7.778,0,0,1,2.209.055,7.071,7.071,0,0,1,4.413,2.635c.075.113.668,1.033.455,1.628a.656.656,0,0,1-.444.414.275.275,0,0,1-.08.012" transform="translate(-67.721 -166.767)"/>
        <path id="Trazado_876877" data-name="Trazado 876877" d="M162.641,371.013a.273.273,0,0,1-.122-.518c.406-.2.577-.4.609-.7a1.935,1.935,0,0,0-.035-1.137,5.274,5.274,0,0,0-1.649-2.171A7.559,7.559,0,0,0,159,365.126a4.628,4.628,0,0,0-2.537-.237c-.393.027-.774.09-1.141.151s-.77.128-1.162.155a.27.27,0,0,1-.291-.255.274.274,0,0,1,.255-.291c.365-.024.743-.087,1.108-.148s.774-.129,1.168-.155a5.1,5.1,0,0,1,2.8.27,8.04,8.04,0,0,1,2.616,1.471,5.679,5.679,0,0,1,1.8,2.4,2.408,2.408,0,0,1,.053,1.4,1.414,1.414,0,0,1-.9,1.089.271.271,0,0,1-.122.029" transform="translate(-69.777 -165.188)"/>
        <path id="Trazado_876878" data-name="Trazado 876878" d="M243.176,118.291l-1.365-5.464s3.54-9.2,5.462-9.509,4.149-1.519,3.441-4.958-2.429-2.63-2.429-2.63C246.565,92.8,245.047,93,244.035,93.5c-2.732-3.641-8.6-4.148-11.838,1.821s-2.124,17.4.1,30.755c3.44-2.327,10.876-7.789,10.876-7.789" transform="translate(-104.381 -41.174)" fill="#ffd4d4"/>
        <path id="Trazado_876879" data-name="Trazado 876879" d="M137.032,199.5a22.144,22.144,0,0,1-14.929-5.76.273.273,0,1,1,.365-.407,21.633,21.633,0,0,0,15.947,5.575c3.884-.258,7.4-1.6,8.963-3.428a13.413,13.413,0,0,0,2.78-7.692.285.285,0,0,1,.283-.263.273.273,0,0,1,.263.283,13.71,13.71,0,0,1-2.909,8.025c-1.654,1.934-5.32,3.354-9.344,3.621-.426.028-.9.046-1.419.046" transform="translate(-55.33 -85.037)"/>
        <path id="Trazado_876880" data-name="Trazado 876880" d="M238.127,116.6c-1.971-.725-2.266-2.419-.651-3.763l8.718-7.265c1.614-1.346,3.226-.752,3.582,1.319l1.935,11.18c.359,2.071-.962,3.17-2.934,2.446Z" transform="translate(-107.219 -47.548)" fill="#7db3db"/>
        <path id="Trazado_876881" data-name="Trazado 876881" d="M255.874,104.785c.1,1.811,1.157,2.213,1.911,1.761-.3,2.011,1.509,2.413,2.013,1.96s-.152-6.336-3.672-5.884a3.635,3.635,0,0,0-.252,2.163" transform="translate(-116.007 -46.526)" fill="#ffd4d4"/>
        <path id="Trazado_876882" data-name="Trazado 876882" d="M240.678,90.972c-4.6-1.282-8.9,2.339-10.26,9.2a42.447,42.447,0,0,0-.041,11.483,17.535,17.535,0,0,1,2.249.365l.28-5.36c1.283.378,6.941,1.132,7.771-1.961s-2.868-4.074-6.187-2.867c.377-1.66,1.207-4.451,3.319-5.206s3.395,4.678,5.809,3.32,1.659-7.695-2.942-8.978" transform="translate(-104.305 -41.139)" fill="#ffd4d4"/>
        <path id="Trazado_876883" data-name="Trazado 876883" d="M238.137,109.195a12.546,12.546,0,0,1-3.129-.375.273.273,0,0,1,.154-.524c.956.281,4.349.753,6.236-.305a2.358,2.358,0,0,0,1.194-1.464,2.056,2.056,0,0,0-.51-2.2c-1.044-.958-3.232-1.1-5.32-.337a.269.269,0,0,1-.274-.052.272.272,0,0,1-.086-.265c.691-3.043,1.835-4.81,3.493-5.4,1.174-.42,2.065.691,2.928,1.764,1.061,1.319,1.832,2.141,2.839,1.576a2.446,2.446,0,0,0,1.082-1.653,6.178,6.178,0,0,0-.96-4.634.273.273,0,1,1,.453-.306,6.747,6.747,0,0,1,1.039,5.066,2.973,2.973,0,0,1-1.346,2c-1.484.836-2.574-.516-3.533-1.709-.778-.966-1.512-1.878-2.318-1.591-1.385.5-2.379,1.98-3.03,4.534,2.126-.638,4.3-.409,5.4.6a2.572,2.572,0,0,1,.668,2.747,2.884,2.884,0,0,1-1.455,1.8,7.446,7.446,0,0,1-3.528.729" transform="translate(-106.483 -43.032)"/>
        <path id="Trazado_876884" data-name="Trazado 876884" d="M256.781,105.263a1.389,1.389,0,0,1-.24-.02c-.4-.07-1.086-.393-1.161-1.764a.273.273,0,1,1,.546-.03c.028.521.174,1.161.709,1.255.785.135,2.167-.893,2.839-2.479a3.816,3.816,0,0,0-.25-3.036.273.273,0,1,1,.493-.235,4.3,4.3,0,0,1,.261,3.485c-.678,1.6-2.09,2.824-3.2,2.824" transform="translate(-115.811 -44.804)"/>
        <path id="Trazado_876885" data-name="Trazado 876885" d="M260.6,111.9a1.543,1.543,0,0,1-1.014-.355,2.163,2.163,0,0,1-.522-2.139.273.273,0,1,1,.537.1,1.659,1.659,0,0,0,.339,1.62,1.219,1.219,0,0,0,1.229.117.273.273,0,0,1,.187.513,2.2,2.2,0,0,1-.756.142" transform="translate(-117.451 -49.512)"/>
        <path id="Trazado_876886" data-name="Trazado 876886" d="M312.049,137.712l-40.633-23.459a16.326,16.326,0,0,0-14.718,0l-40.633,23.459a16.326,16.326,0,0,0-7.359,12.747v46.919a16.328,16.328,0,0,0,7.359,12.747L256.7,233.584a16.322,16.322,0,0,0,14.718,0l40.633-23.459a16.329,16.329,0,0,0,7.359-12.747V150.459a16.327,16.327,0,0,0-7.359-12.747" transform="translate(-94.644 -51.017)" fill="#def2ff"/>
        <path id="Trazado_876887" data-name="Trazado 876887" d="M315.975,185.265a27.721,27.721,0,1,0-39.6,25.052c3.029,1.84,3.037,4.229,2.905,8.5-.11,3.592-.354,6.485,1.3,8.005,1.321,1.448,4.255,2.455,7.669,2.455s6.347-1.008,7.67-2.455c1.655-1.52,1.412-4.414,1.3-8.005-.131-4.267-.124-6.656,2.9-8.5a27.723,27.723,0,0,0,15.846-25.052" transform="translate(-118.148 -71.444)" fill="#ffd947"/>
        <path id="Trazado_876888" data-name="Trazado 876888" d="M316.073,185.037a27.991,27.991,0,0,0-50.517-16.624c-7.535,10.033-7.065,24.216.589,34.015a28.137,28.137,0,0,0,6.874,6.208,37.286,37.286,0,0,1,4.08,2.443,5.656,5.656,0,0,1,1.732,4.037c.272,3.212-.548,6.539.246,9.7.641,2.552,3.406,3.667,5.717,4.178,3.9.863,10.838.45,12.287-4.178,1.433-4.581-2.18-11.982,3.361-14.661a28.238,28.238,0,0,0,15.631-25.119.273.273,0,0,0-.547,0,27.481,27.481,0,0,1-15.36,24.647,6.173,6.173,0,0,0-3.386,5.431c-.28,3.3.915,7.275-.541,10.376-1.549,3.3-7.036,3.476-10.052,3.176a10,10,0,0,1-5.164-1.869c-1.445-1.142-1.665-2.878-1.718-4.6-.093-3.033.613-6.3-.328-9.252-.833-2.618-3.576-3.45-5.684-4.779a27.452,27.452,0,0,1-12.5-26.172c1.338-13.065,12.4-23.364,25.368-24.337a27.451,27.451,0,0,1,29.362,27.382.273.273,0,0,0,.547,0" transform="translate(-117.973 -71.215)" fill="#f2ac30"/>
        <path id="Trazado_876889" data-name="Trazado 876889" d="M312.76,262.563a41.9,41.9,0,0,1-18.027,0,29.945,29.945,0,0,1,.043,3.875c-.11,3.592-.353,6.485,1.3,8.005,1.321,1.448,4.255,2.456,7.669,2.456s6.347-1.008,7.67-2.456c1.655-1.52,1.412-4.414,1.3-8.005a30.05,30.05,0,0,1,.043-3.875" transform="translate(-133.64 -119.068)" fill="#62529b"/>
        <path id="Trazado_876890" data-name="Trazado 876890" d="M312.36,262.074a42.265,42.265,0,0,1-17.881,0,.276.276,0,0,0-.346.263c.317,3.535-.9,7.736.655,11.057,1.379,2.939,5.833,3.513,8.631,3.552,2.987.042,7.017-.713,8.633-3.552a9.026,9.026,0,0,0,.69-4.413c-.008-2.215-.234-4.432-.036-6.645.032-.351-.515-.348-.547,0-.294,3.281.544,6.74-.265,9.961-.855,3.4-5.6,4.061-8.475,4.1-3.026.043-7.433-.774-8.474-4.1a14.471,14.471,0,0,1-.271-4.657,44.482,44.482,0,0,0,0-5.3l-.346.264a42.969,42.969,0,0,0,18.172,0c.344-.075.2-.6-.145-.527" transform="translate(-133.313 -118.843)" fill="#32015c"/>
        <path id="Trazado_876891" data-name="Trazado 876891" d="M293.249,233.317h-.019a.546.546,0,0,1-.527-.565,49.289,49.289,0,0,0-2.476-16.927,11.842,11.842,0,0,1-1.765.079c-5.328-.156-8.377-2.958-9.369-5.31a3.493,3.493,0,0,1,.308-3.787c.524-.569,1.8-1.395,4.474-.525,3.241,1.056,5.519,4.31,7.069,8.317a10.141,10.141,0,0,0,4.953-2.682,16.921,16.921,0,0,1-4.913-10.978c-.165-4.543,2.313-6.546,4.687-6.907a5.185,5.185,0,0,1,5.859,3.647c.881,3.253-.36,9.506-3.611,13.628q-.226.287-.461.556a11.132,11.132,0,0,0,1.722,1.185,9.479,9.479,0,0,0,2,.831c1.993-6,4.894-8.6,6.533-9.641a4.515,4.515,0,0,1,4.6-.325,3.635,3.635,0,0,1,1.93,3.187c.019,1.335-.638,3.971-5.245,6.628a10.4,10.4,0,0,1-7.051,1.446,53.265,53.265,0,0,0-1.787,16.68.547.547,0,0,1-.532.562.558.558,0,0,1-.561-.532,55,55,0,0,1,1.782-16.961,10.615,10.615,0,0,1-2.2-.919,12.094,12.094,0,0,1-1.943-1.348,11.179,11.179,0,0,1-5.385,2.98,52.277,52.277,0,0,1,2.474,17.152.546.546,0,0,1-.546.528m-11.507-26.324a2.005,2.005,0,0,0-1.537.554,2.462,2.462,0,0,0-.107,2.623c.867,2.054,3.585,4.5,8.395,4.642a10.662,10.662,0,0,0,1.334-.043c-1.478-3.689-3.552-6.555-6.292-7.447a5.9,5.9,0,0,0-1.793-.328m20.542,7.124a9.475,9.475,0,0,0,6.167-1.335c3.012-1.737,4.725-3.8,4.7-5.665a2.523,2.523,0,0,0-1.356-2.241,3.442,3.442,0,0,0-3.5.285c-1.21.769-4.026,3.1-6.011,8.956m-5.816-19.053a4.2,4.2,0,0,0-.635.048c-1.908.289-3.9,1.961-3.759,5.787a15.755,15.755,0,0,0,4.571,10.23q.219-.252.414-.5c3.324-4.215,4.119-10.065,3.415-12.665a4.04,4.04,0,0,0-4.005-2.9" transform="translate(-126.383 -87.961)" fill="#62529b"/>
        <path id="Trazado_876892" data-name="Trazado 876892" d="M304.55,269.673a25.631,25.631,0,0,1-7.259-.951.273.273,0,1,1,.154-.524c4.762,1.4,9.774.941,14.1.4a.277.277,0,0,1,.3.238.273.273,0,0,1-.237.3,56.806,56.806,0,0,1-7.061.532" transform="translate(-134.728 -121.619)"/>
        <path id="Trazado_876893" data-name="Trazado 876893" d="M230.069,243.155c-1.648,1.291-3.238.651-3.531-1.422l-1.585-11.2c-.293-2.074,1.054-3.129,3-2.347l10.489,4.224c1.942.782,2.183,2.478.535,3.769Z" transform="translate(-101.994 -103.364)" fill="#d4336e"/>
        <path id="Trazado_876894" data-name="Trazado 876894" d="M295.6,311.212a2.2,2.2,0,0,1-.933-.2,2.289,2.289,0,0,1-1.185-2.371,4.172,4.172,0,0,1,2.5-3.565,7.521,7.521,0,0,1,.828-.374,6.893,6.893,0,0,0-3.93-1.665,4.322,4.322,0,0,0-4.436,2.4.273.273,0,1,1-.489-.244,4.855,4.855,0,0,1,4.967-2.7,7.436,7.436,0,0,1,4.469,2.011,10.831,10.831,0,0,1,8.54,1.047.273.273,0,1,1-.3.458,10.225,10.225,0,0,0-7.82-1.06,5.113,5.113,0,0,1,1.013,1.766,3.332,3.332,0,0,1-1.018,3.594,3.434,3.434,0,0,1-2.209.9m1.646-6.085a7.364,7.364,0,0,0-1.007.436,3.672,3.672,0,0,0-2.211,3.094,1.82,1.82,0,0,0,.869,1.864,2.511,2.511,0,0,0,2.551-.619,2.785,2.785,0,0,0,.857-3.018,4.7,4.7,0,0,0-1.06-1.756" transform="translate(-130.572 -137.168)" fill="#495edb"/>
        <path id="Trazado_876895" data-name="Trazado 876895" d="M371.01,261.02a6.576,6.576,0,1,1-6.576-6.576,6.576,6.576,0,0,1,6.576,6.576" transform="translate(-162.283 -115.386)" fill="#7db3db"/>
        <path id="Trazado_876896" data-name="Trazado 876896" d="M374.024,170.308a3.186,3.186,0,0,1-4.465.607l-4.954-3.765a3.187,3.187,0,0,1,3.858-5.074l4.953,3.766a3.188,3.188,0,0,1,.607,4.466" transform="translate(-164.772 -73.204)" fill="#ffc4c4"/>
        <path id="Trazado_876897" data-name="Trazado 876897" d="M255.443,272.642a3.186,3.186,0,0,1,4.011,2.055l1.909,5.922a3.187,3.187,0,0,1-6.067,1.955l-1.908-5.922a3.187,3.187,0,0,1,2.056-4.01" transform="translate(-114.837 -123.569)" fill="#ffc4c4"/>
        <path id="Trazado_876898" data-name="Trazado 876898" d="M237.511,181.643a4.6,4.6,0,1,1,4.6-4.6,4.6,4.6,0,0,1-4.6,4.6m0-8.65a4.052,4.052,0,1,0,4.052,4.052,4.057,4.057,0,0,0-4.052-4.052" transform="translate(-105.622 -78.202)" fill="#495edb"/>
        <path id="Trazado_876899" data-name="Trazado 876899" d="M283.358,141.187a11.006,11.006,0,0,1-3-.474.273.273,0,0,1,.15-.526c2.877.819,4.84.555,6.773-.914a15.345,15.345,0,0,0,1.691-1.5,5.536,5.536,0,0,1-2.335-2.146,4.932,4.932,0,0,1-.4-4.117,2.657,2.657,0,0,1,1.867-1.642,3.325,3.325,0,0,1,3.509,1.838c1.016,2.028-.3,4.247-1.694,5.841a4.854,4.854,0,0,0,2.04.127,5.6,5.6,0,0,0,4.6-4.121.273.273,0,1,1,.527.141,6.148,6.148,0,0,1-5.046,4.521,5.4,5.4,0,0,1-2.528-.221,16.862,16.862,0,0,1-1.9,1.716,6.737,6.737,0,0,1-4.249,1.479m5.18-10.806a2.706,2.706,0,0,0-.336.021,2.094,2.094,0,0,0-1.461,1.313,4.345,4.345,0,0,0,.357,3.626,4.959,4.959,0,0,0,2.265,2.007c1.461-1.63,2.611-3.7,1.747-5.426a2.738,2.738,0,0,0-2.571-1.541" transform="translate(-127.046 -58.88)" fill="#f2ac30"/>
        <path id="Trazado_876900" data-name="Trazado 876900" d="M407.792,229.089a45.24,45.24,0,0,0-2.152-8.232c-.606-1.571-.166-2.554-2.519-3.92s-5.236-3.794-5.767-4.022-1.365-3.489-4.477-.607-6.524,3.111-7.359.379c-1.594-.3-2.5-1.593-2.049-2.5s4.1-3.414,4.1-3.414c-1.821.985-5.008,1.213-5.463-.151s1.062-2.429,3.642-3.187,12.9-5.388,15.706-3.642,7.286,5.539,10.472,7.664,4.325,5.538,5.843,9.56,2.731,8.271,2.731,8.271-3.98,6.993-12.705,3.805" transform="translate(-173.241 -90.424)" fill="#ffd4d4"/>
        <path id="Trazado_876901" data-name="Trazado 876901" d="M386.4,221.305a2.113,2.113,0,0,1-1.829-.994.274.274,0,0,1,.451-.31c.992,1.442,2.692.584,4.492-.507l.362-.218c.137-.072.264-.134.391-.2a4.9,4.9,0,0,0,1.221-.755.273.273,0,1,1,.374.4,5.362,5.362,0,0,1-1.354.847c-.123.061-.246.122-.366.185l-.345.208a7.373,7.373,0,0,1-3.4,1.342" transform="translate(-174.377 -98.974)"/>
        <path id="Trazado_876902" data-name="Trazado 876902" d="M384.888,212.811a3.6,3.6,0,0,1-.93-.118.273.273,0,1,1,.139-.528,4.816,4.816,0,0,0,2.137-.065c.174-.032.351-.063.531-.092a11.372,11.372,0,0,0,1.81-.589c.137-.07.279-.134.422-.2s.272-.124.42-.2c.1-.051.2-.114.306-.178a2.853,2.853,0,0,1,.7-.346.273.273,0,1,1,.15.525,2.416,2.416,0,0,0-.566.286c-.117.073-.233.144-.348.2-.154.078-.3.143-.439.207s-.272.124-.421.2a11.9,11.9,0,0,1-1.934.629c-.195.031-.367.062-.538.093a8.086,8.086,0,0,1-1.444.173" transform="translate(-174.027 -95.452)"/>
        <path id="Trazado_876903" data-name="Trazado 876903" d="M406.425,196.653a2.347,2.347,0,0,1,.654,3.24l-6.3,9.48a2.343,2.343,0,0,1-3.238.655l-9.481-6.3a2.345,2.345,0,0,1-.654-3.239l6.3-9.479a2.343,2.343,0,0,1,3.238-.655Z" transform="translate(-175.509 -86.149)" fill="#495edb"/>
        <path id="Trazado_876904" data-name="Trazado 876904" d="M504.649,152.213c-14.061.747-11.636,12.34-10.513,16.129,1.028,3.468-3.747,6.361-1.31,10.644s6.736,6.6,13.414,6.907c0,0-.331,7.437-.634,9.863l13.963-.911c-.585-4.3-1.846-13.221-.127-16.541.7-1.35,4.921,4.321,9.407-2.579s-10.14-24.258-24.2-23.512" transform="translate(-223.171 -69.016)" fill="#ffd4d4"/>
        <path id="Trazado_876905" data-name="Trazado 876905" d="M517.7,210.689a.273.273,0,0,1-.016-.546,17.592,17.592,0,0,0,9.576-3.676.273.273,0,0,1,.341.427,18.152,18.152,0,0,1-9.885,3.794H517.7" transform="translate(-234.647 -93.603)"/>
        <path id="Trazado_876906" data-name="Trazado 876906" d="M518.186,184.709c1.4-.07,2.074,2.665.717,2.838s-1.864-2.781-.717-2.838" transform="translate(-234.702 -83.762)"/>
        <path id="Trazado_876907" data-name="Trazado 876907" d="M517.783,184.619a.27.27,0,0,1-.112-.024l-.084-.038a3.627,3.627,0,0,1-1.314-.8.274.274,0,0,1,.422-.348,3.438,3.438,0,0,0,1.116.65l.084.038a.273.273,0,0,1-.112.522" transform="translate(-234.094 -83.127)"/>
        <path id="Trazado_876908" data-name="Trazado 876908" d="M499.2,182.22c1.4-.02,1.975,2.738.613,2.862s-1.761-2.847-.613-2.862" transform="translate(-226.073 -82.634)"/>
        <path id="Trazado_876909" data-name="Trazado 876909" d="M498.829,182.1a.28.28,0,0,1-.122-.028l-.092-.046a3.585,3.585,0,0,1-1.273-.843.273.273,0,0,1,.433-.332,3.415,3.415,0,0,0,1.083.685l.093.046a.273.273,0,0,1-.122.518" transform="translate(-225.511 -81.965)"/>
        <path id="Trazado_876910" data-name="Trazado 876910" d="M505.316,187.887a3.553,3.553,0,0,1-2.552-.79c-.966-.864-.4-1.913-.019-2.608a7.258,7.258,0,0,0,1.089-3.461,3.218,3.218,0,0,0-1.014-2.245l-.249-.305a.273.273,0,1,1,.426-.342l.245.3a3.731,3.731,0,0,1,1.138,2.581,7.747,7.747,0,0,1-1.155,3.732c-.448.824-.7,1.4-.1,1.94a3.663,3.663,0,0,0,2.749.641c.156,0,.312-.008.467-.009h0a.273.273,0,0,1,0,.547c-.152,0-.3,0-.457.009-.191,0-.384.009-.576.009" transform="translate(-227.754 -80.736)"/>
        <path id="Trazado_876911" data-name="Trazado 876911" d="M508.878,200.055c-.82,0-1.568-.719-2.224-2.137a.275.275,0,0,1,.027-.275.28.28,0,0,1,.253-.111,7.759,7.759,0,0,0,4.432-1.811.273.273,0,0,1,.47.237c-.34,1.7-1.482,4.1-2.957,4.1m-1.54-1.985c.5.944,1.025,1.439,1.54,1.439.918,0,1.773-1.472,2.211-2.849a9.616,9.616,0,0,1-3.75,1.41" transform="translate(-229.749 -88.716)"/>
        <path id="Trazado_876912" data-name="Trazado 876912" d="M514.774,177.039c-.378-.948.548-2.018,2.254-1.3a6.93,6.93,0,0,1,3.124,2.894c.607,1.137-.115.475-.836-.093a4.972,4.972,0,0,0-3.485-1.2c-.625.013-.982.072-1.059-.307" transform="translate(-233.404 -79.589)" fill="#d4336e"/>
        <path id="Trazado_876913" data-name="Trazado 876913" d="M520.1,179.31c-.207,0-.438-.179-.941-.583l-.239-.191a4.664,4.664,0,0,0-3.17-1.138l-.337.007c-.1,0-.192.005-.275.005-.243,0-.75,0-.859-.537a1.3,1.3,0,0,1,.137-1.223,1.986,1.986,0,0,1,2.491-.381,7.155,7.155,0,0,1,3.259,3.017c.262.49.313.7.211.87a.372.372,0,0,1-.277.154m-4.351-2.459a5.224,5.224,0,0,1,3.509,1.256l.243.193.085.068a6.7,6.7,0,0,0-2.892-2.6c-.81-.342-1.526-.257-1.827.185a.8.8,0,0,0-.067.76c.026.109.034.146.337.146.079,0,.165,0,.259-.005Z" transform="translate(-233.174 -79.369)" fill="#d4336e"/>
        <path id="Trazado_876914" data-name="Trazado 876914" d="M488.358,145.666c1.214-2.073,6.07-7.285,12.849-10.168,0,6.375,3.388,16.288,11.229,16.54-.253,2.631-.556,4.553.1,4.806s2.833-1.163,3.187-4.3c1.874-2.023,6.372-1.366,7.386,1.822s-2.074,8.144-7.739,5.868c-.911-.152-2.024,1.518-1.821,5.159,4.6.506,9.662-1.113,12.445-5.867a14.724,14.724,0,0,0-.609-15.226c-2.882-4.655-3.439-6.526-2.882-8.9,8.4,1.72,13.613-4.152,12.476-11.588s-8.285-12.023-16.327-9.974-10.316,11.545-2.186,17.079c-1.139,1.289-4.636.031-9.037-2.017s-17.507-5.042-23.978,5.085c-6.626,10.37,3.187,17.147,5.691,16.465a13.94,13.94,0,0,1-.784-4.78" transform="translate(-218.213 -51.4)" fill="#d4336e"/>
        <path id="Trazado_876915" data-name="Trazado 876915" d="M528.825,276.038c-5.16-11.937-6.88-19.019-11.836-31.361s-14.062-12.342-19.525-12.95-7.225-3.1-7.529-7.141c-11.229,4.148-13.413-1.154-13.615-.749-.962,5.97-2.833,5.969-9.309,5.058S452.24,238.5,445.564,247.1c0,0-4.048-11.382-5.06-13.1-5.311,4.628-9.66,4.133-12.923,3.071,0,0,1.418,5.023,2.246,8.513-6.519,2.2,1.308,19.645,4.759,26.354,6.323,12.292,17.341,8.636,25.74-4.111,2.035,2.1,4.317,4.25,4.42,5.262a56.027,56.027,0,0,1-.466,9.32c-.5,3.035-3.034,11.736-3.034,12.039s3.236,8.195,3.236,8.195,31.767.608,31.667,5.16c4.856-.708,21.043.3,30.654-4.351s7.182-15.478,2.023-27.417M504.14,289.6l1.315-14.366,3.642,13.961Z" transform="translate(-193.78 -101.496)" fill="#26aab7"/>
        <path id="Trazado_876916" data-name="Trazado 876916" d="M528.819,275.677c-2.852-6.622-5.227-13.409-7.636-20.2q-1.893-5.336-3.974-10.6a24.475,24.475,0,0,0-4.818-7.946c-3.046-3.217-7.21-4.744-11.518-5.307a35.658,35.658,0,0,1-6.56-1.016c-2.888-.944-4.1-3.383-4.349-6.248a.276.276,0,0,0-.346-.263c-3.779,1.366-9.331,2.936-12.733-.166-.232-.212-.716-.918-1.045-.458a6.251,6.251,0,0,0-.354,1.712,8.831,8.831,0,0,1-.57,1.675,3.2,3.2,0,0,1-2.141,1.818c-2.306.632-4.756-.38-7.072-.331-2.362.05-4.584,1.431-6.422,2.782-5.62,4.132-9.915,10.1-14.153,15.559l.457.121q-1.078-3.031-2.2-6.043a48.933,48.933,0,0,0-2.886-7.124.278.278,0,0,0-.43-.056c-3.721,3.166-7.936,4.5-12.657,3a.275.275,0,0,0-.336.336c.8,2.824,1.562,5.659,2.246,8.513.064-.112.128-.224.191-.336-3.614,1.327-2.814,6.3-2.207,9.221a66.994,66.994,0,0,0,5.476,14.853c2.129,4.48,4.863,9.418,10.233,10.275,5.506.878,10.53-3.364,13.9-7.183a42.141,42.141,0,0,0,3.409-4.521l-.429.056c.883.909,1.779,1.8,2.647,2.728.654.7,1.652,1.583,1.711,2.6a46.808,46.808,0,0,1-.115,5.523,55.586,55.586,0,0,1-2.23,11.127c-.364,1.35-.748,2.7-1.091,4.051a2.81,2.81,0,0,0,.377,1.736c.894,2.325,1.843,4.628,2.788,6.933a.283.283,0,0,0,.263.2c4.981.1,9.967.369,14.931.79a90.64,90.64,0,0,1,10.983,1.461c1.182.248,5.449.876,5.479,2.636a.279.279,0,0,0,.346.263c4.493-.623,9.137-.377,13.66-.7,5.56-.4,11.284-1.134,16.43-3.386,11.71-5.124,6.53-19.29,2.75-28.083-.139-.323-.609-.044-.472.275,2.265,5.268,4.534,10.98,4.489,16.805a11.822,11.822,0,0,1-1.937,6.6c-1.567,2.312-4.143,3.622-6.686,4.57-5.213,1.946-10.931,2.47-16.444,2.8-3.956.234-8,.052-11.935.6l.345.264c-.035-2.047-3.835-2.693-5.258-3.025a85.1,85.1,0,0,0-12.287-1.663c-3.824-.319-7.659-.522-11.494-.66q-1.356-.048-2.711-.081c-.392-.009.155.392-.028-.052q-.481-1.176-.958-2.354-.8-1.959-1.57-3.927c-.228-.581-.659-1.345-.535-1.849.7-2.826,1.534-5.617,2.239-8.441a44.325,44.325,0,0,0,1.225-9.819c.023-.962.285-2.454-.174-3.359-.969-1.914-2.881-3.426-4.351-4.94a.276.276,0,0,0-.429.055c-3.257,4.889-7.826,10.291-13.929,11.4-5.881,1.072-9.657-3.891-11.97-8.544a81.722,81.722,0,0,1-5.5-13.708c-.816-2.841-2.75-9.538,1.214-10.994a.28.28,0,0,0,.191-.337c-.684-2.853-1.45-5.689-2.246-8.513l-.336.336c4.918,1.562,9.318.152,13.189-3.142l-.429-.055a49.928,49.928,0,0,1,2.933,7.268q1.069,2.877,2.1,5.769c.061.171.32.3.457.121,4.3-5.533,8.642-11.5,14.339-15.692,2.307-1.7,4.728-2.739,7.612-2.342,1.913.262,4.145.7,6.011-.018,1.536-.595,2.157-2.219,2.537-3.691.134-.522.426-1.131,0-1.489.086.073.163.16.242.24a7.376,7.376,0,0,0,.91.776c3.571,2.6,8.885,1.108,12.6-.234l-.346-.264a7.807,7.807,0,0,0,2.3,5.42c1.75,1.571,4.265,1.876,6.505,2.1,4.573.455,8.972,1.289,12.6,4.326a21.067,21.067,0,0,1,5.66,8.32c1.5,3.655,2.849,7.376,4.173,11.1,2.43,6.833,4.82,13.663,7.691,20.329.139.323.609.044.472-.275" transform="translate(-193.537 -101.273)" fill="#26aab7"/>
        <path id="Trazado_876917" data-name="Trazado 876917" d="M567.934,332.035l1.315-14.366-.537.073q1.821,6.98,3.642,13.961l.263-.346-4.957.4c-.349.028-.352.576,0,.547l4.957-.4a.278.278,0,0,0,.264-.346q-1.822-6.981-3.642-13.961a.275.275,0,0,0-.537.073l-1.315,14.366c-.032.351.514.348.547,0" transform="translate(-257.301 -143.936)" fill="#7db3db"/>
        <path id="Trazado_876918" data-name="Trazado 876918" d="M456.262,352.557c2.226-2.125,7.587-5.868,8.9-3.946A4.636,4.636,0,0,1,468.6,347.5c1.518-1.619,3.34-2.024,5.16.1s7.283,6.677,8.2,7.587,7.993.708,23.877-2.732c3.237,1.315,3.411,10.475,3.411,10.475-5.9.373-49.33.167-49.33.167Z" transform="translate(-206.908 -156.97)" fill="#ffd4d4"/>
        <path id="Trazado_876919" data-name="Trazado 876919" d="M480.755,358.985a.273.273,0,0,1-.2-.082l-.075-.077a.267.267,0,0,1-.066-.111,4.814,4.814,0,0,1-.523-1.189c-.142-.283-.274-.566-.406-.848s-.267-.573-.421-.879c-.333-.515-.644-1.1-.945-1.663-.236-.444-.479-.9-.739-1.332-.391.457-.811.9-1.219,1.327a23.949,23.949,0,0,0-1.718,1.94l-.1.131c-.676.911-1.935,2.6-3.518,1.685a1.667,1.667,0,0,1-.863-1.039,3.581,3.581,0,0,1,.536-2.521c.388-.622.815-1.224,1.229-1.806s.829-1.168,1.2-1.767c.2-.306.386-.621.568-.936a8.7,8.7,0,0,1,1.291-1.843.273.273,0,0,1,.386.386,8.173,8.173,0,0,0-1.2,1.731c-.189.325-.377.65-.583.959-.379.606-.8,1.207-1.217,1.788s-.831,1.171-1.207,1.771a3.13,3.13,0,0,0-.478,2.089,1.133,1.133,0,0,0,.6.711c1.085.627,1.95-.367,2.816-1.532l.1-.134a24.379,24.379,0,0,1,1.758-1.987c.51-.536.992-1.042,1.436-1.589a.274.274,0,0,1,.442.025c.348.541.659,1.124.96,1.689s.6,1.129.937,1.65c.171.336.306.627.442.919s.259.556.407.852a.437.437,0,0,1,.02.053,3.771,3.771,0,0,0,.555,1.189.274.274,0,0,1-.214.444" transform="translate(-213.089 -157.764)"/>
        <path id="Trazado_876920" data-name="Trazado 876920" d="M462.529,357.943a2.2,2.2,0,0,1-1.754-.783c-1-1.4.45-2.849.927-3.326a26.263,26.263,0,0,1,5.447-3.687.273.273,0,1,1,.267.477,25.846,25.846,0,0,0-5.332,3.6c-1.088,1.087-1.367,1.916-.876,2.6a2.031,2.031,0,0,0,2.463.293,11.518,11.518,0,0,0,2.285-1.547l.36.412a11.984,11.984,0,0,1-2.41,1.628,3.134,3.134,0,0,1-1.378.328" transform="translate(-208.798 -158.771)"/>
        <path id="Trazado_876921" data-name="Trazado 876921" d="M457.887,363.219a.273.273,0,0,1-.038-.544,3.132,3.132,0,0,0,1.514-.681.273.273,0,1,1,.386.386,3.645,3.645,0,0,1-1.824.836l-.039,0" transform="translate(-207.521 -164.122)"/>
        <path id="Trazado_876922" data-name="Trazado 876922" d="M486.852,288.612a.272.272,0,0,1-.186-.074,10.77,10.77,0,0,1-2.44-3.9c-1.6-5.02-.318-10.242,1.311-15.137.089-.266-.346-.753-.634-1.075-.112-.126-.218-.245-.3-.352-.287-.488-.555-.946-.821-1.4a.273.273,0,1,1,.473-.274q.4.689.8,1.373c.056.069.153.178.257.293.415.466.933,1.047.744,1.613-1.6,4.807-2.866,9.926-1.309,14.8a10.327,10.327,0,0,0,2.292,3.67.273.273,0,0,1-.186.473" transform="translate(-219.255 -120.743)"/>
        <path id="Trazado_876923" data-name="Trazado 876923" d="M433.31,261.56a5.15,5.15,0,0,1-2.677-.552.273.273,0,0,1,.3-.457c1.64,1.082,7.417.4,12.037-2.752a.273.273,0,1,1,.308.451,18.781,18.781,0,0,1-9.968,3.31" transform="translate(-195.23 -116.887)"/>
        <path id="Trazado_876924" data-name="Trazado 876924" d="M462.634,272.507a.274.274,0,0,1-.268-.222,34.6,34.6,0,0,0-2.36-7.558.273.273,0,1,1,.508-.2,35.046,35.046,0,0,1,2.388,7.657.273.273,0,0,1-.217.32.277.277,0,0,1-.052,0" transform="translate(-208.597 -119.88)"/>
        <path id="Trazado_876925" data-name="Trazado 876925" d="M569.378,316.893a.274.274,0,0,1-.263-.2c-.426-1.481-.882-3.18-1.365-4.979-.964-3.6-2.057-7.673-3.214-11.073-1.667-4.9-3-9.894-4.454-15.443a.273.273,0,0,1,.2-.333.27.27,0,0,1,.333.2c1.447,5.539,2.781,10.521,4.443,15.405,1.162,3.417,2.258,7.5,3.224,11.108.482,1.8.937,3.493,1.362,4.968a.273.273,0,0,1-.186.338.264.264,0,0,1-.076.011" transform="translate(-253.985 -129.178)"/>
        <path id="Trazado_876926" data-name="Trazado 876926" d="M546.313,350.825a.269.269,0,0,1-.191-.079.333.333,0,0,1-.08-.328.352.352,0,0,1,.3-.177.2.2,0,0,0,.076-.009.3.3,0,0,1,.056-.021c.12-.03.241-.074.367-.119a4.514,4.514,0,0,1,.63-.189,8.335,8.335,0,0,0,1.208-.29l.289-.084c.257-.045.483-.064.7-.084l.276-.026c-.015-.035-.03-.069-.045-.1a3.534,3.534,0,0,1-.441-2.077,4.125,4.125,0,0,1,1.945-2.534,11.886,11.886,0,0,1,4.587-1.34c.3-.046.6-.091.9-.14a36.386,36.386,0,0,1,3.838-.342c.625-.033,1.251-.066,1.877-.116,1.492-.076,3.028-.154,4.573-.154h3.339a.273.273,0,1,1,0,.547H567.18c-1.532,0-3.06.077-4.538.152-.623.05-1.253.083-1.883.116a35.883,35.883,0,0,0-3.78.336c-.3.05-.6.1-.907.142a11.494,11.494,0,0,0-4.379,1.262,3.6,3.6,0,0,0-1.7,2.161,3.087,3.087,0,0,0,.4,1.767c.065.148.13.295.188.441a.273.273,0,0,1-.2.37,6.189,6.189,0,0,1-.671.083c-.2.017-.415.036-.627.072l-.256.076a8.666,8.666,0,0,1-1.269.3,3.946,3.946,0,0,0-.539.165c-.134.048-.263.093-.392.127a.629.629,0,0,1-.173.047.276.276,0,0,1-.149.044" transform="translate(-247.614 -155.371)"/>
        <path id="Trazado_876927" data-name="Trazado 876927" d="M557.974,366.014a.273.273,0,0,1-.273-.273,16.122,16.122,0,0,0-.968-5.671l-.133-.374a10.316,10.316,0,0,0-1.2-2.6,6.3,6.3,0,0,0-2.258-1.889.273.273,0,1,1,.262-.479,6.818,6.818,0,0,1,2.451,2.065,10.764,10.764,0,0,1,1.263,2.722l.13.368a16.566,16.566,0,0,1,1,5.686c0,.006,0,.013,0,.02v.152a.273.273,0,0,1-.273.273" transform="translate(-250.775 -160.848)"/>
        <path id="Trazado_876928" data-name="Trazado 876928" d="M505.926,306.931h-.016a.273.273,0,0,1-.257-.289,28.935,28.935,0,0,1,1.392-5.13,22.123,22.123,0,0,0,.939-2.875c.117-.42.234-.844.365-1.271a49.171,49.171,0,0,0,2.211-9.654,15.411,15.411,0,0,0,.3-3.009,8.583,8.583,0,0,0-.592-2.745c-.184-.582-.375-1.158-.567-1.737-.444-1.34-.9-2.727-1.261-4.152a28.823,28.823,0,0,1-1.018-5.907,10.506,10.506,0,0,1,.115-2.338c.032-.25.063-.5.088-.752l.025-.254c.1-.967.2-1.967.383-2.907.156-.524.28-1.023.4-1.522s.257-1.024.412-1.539a22.062,22.062,0,0,1,.759-2.2c.117-.3.238-.618.358-.948.338-1.068.64-2.157.96-3.309.244-.876.49-1.76.755-2.645.1-.484.225-1,.349-1.5s.253-1.012.353-1.514c.065-.231.115-.43.165-.627a9.122,9.122,0,0,1,.458-1.451.273.273,0,0,1,.5.215,8.727,8.727,0,0,0-.43,1.37c-.051.2-.1.407-.164.621-.1.494-.228,1.015-.354,1.518s-.25,1-.349,1.5c-.27.906-.515,1.786-.757,2.659-.308,1.106-.625,2.25-.969,3.338-.126.345-.246.66-.365.968a21.731,21.731,0,0,0-.744,2.158c-.153.509-.281,1.023-.406,1.52s-.254,1.015-.406,1.521c-.175.89-.274,1.876-.369,2.829l-.026.255c-.025.255-.057.51-.089.765a9.939,9.939,0,0,0-.114,2.216,28.466,28.466,0,0,0,1,5.814c.356,1.42.813,2.8,1.254,4.128.193.582.385,1.161.568,1.74a9.1,9.1,0,0,1,.619,2.915,15.8,15.8,0,0,1-.308,3.088,49.556,49.556,0,0,1-2.229,9.733c-.129.423-.245.842-.361,1.259a23.132,23.132,0,0,1-.963,2.944,28.688,28.688,0,0,0-1.349,4.946.273.273,0,0,1-.273.257" transform="translate(-229.306 -111.78)"/>
        <path id="Trazado_876929" data-name="Trazado 876929" d="M523.135,238.434a2.638,2.638,0,0,1-2.164-1.283,8.962,8.962,0,0,1-1.5-4.438c-.047-.313-.1-.632-.15-.949-.419.713-.845,1.42-1.313,2.121l-.128.195c-.655.994-1.875,2.843-3.252,3.015a1.745,1.745,0,0,1-1.431-.5c-1.094-1.016-1.015-2.305-.938-3.551l.014-.233a.273.273,0,1,1,.545.032l-.014.234c-.072,1.171-.14,2.277.762,3.116a1.2,1.2,0,0,0,.994.363c1.127-.14,2.3-1.919,2.863-2.774l.13-.2c.595-.891,1.126-1.8,1.639-2.68a.3.3,0,0,1,.289-.151.268.268,0,0,1,.236.192c.125.559.21,1.134.294,1.69a8.439,8.439,0,0,0,1.4,4.2,2.008,2.008,0,0,0,2.49.9,18.219,18.219,0,0,0,3.222-1.5,10.589,10.589,0,0,0,2.588-2.218.273.273,0,0,1,.42.35,11.135,11.135,0,0,1-2.721,2.333,18.675,18.675,0,0,1-3.315,1.542,2.576,2.576,0,0,1-.96.194" transform="translate(-232.283 -104.641)"/>
        <path id="Trazado_876930" data-name="Trazado 876930" d="M522.4,243.733a1.1,1.1,0,0,1-.2-.018.916.916,0,0,1-.748-.753,1.375,1.375,0,0,1,.475-1.427,1.313,1.313,0,0,1,1.442-.08.273.273,0,0,1,.135.3.977.977,0,0,1,.14.307,1.362,1.362,0,0,1-.187,1.083,1.274,1.274,0,0,1-1.058.584m.3-1.909a.716.716,0,0,0-.437.146.829.829,0,0,0-.27.877.373.373,0,0,0,.311.33.732.732,0,0,0,.709-.338.823.823,0,0,0,.109-.632.365.365,0,0,0-.213-.261.273.273,0,0,1-.131-.119.739.739,0,0,0-.078,0" transform="translate(-236.453 -109.416)"/>
        <path id="Trazado_876931" data-name="Trazado 876931" d="M517.662,269.683a1.173,1.173,0,0,1-.779-.34,1.318,1.318,0,0,1-.387-1.05,1.775,1.775,0,0,1,.707-1.271.907.907,0,0,1,1.051-.054.3.3,0,0,1,.124.092.735.735,0,0,1,.5.649,1.979,1.979,0,0,1-.778,1.857.921.921,0,0,1-.442.116m.06-2.311a.317.317,0,0,0-.191.089,1.237,1.237,0,0,0-.489.871.767.767,0,0,0,.215.614c.325.285.52.179.583.143a1.462,1.462,0,0,0,.5-1.29c-.008-.046-.038-.2-.114-.212a.274.274,0,0,1-.173-.109l0,0a1.084,1.084,0,0,0-.33-.1" transform="translate(-234.221 -121.001)"/>
        <path id="Trazado_876932" data-name="Trazado 876932" d="M515.826,297.193a.953.953,0,0,1-.736-.412,1.844,1.844,0,0,1-.288-1.32,1.057,1.057,0,0,1,.423-.75.275.275,0,0,1,.259-.024.261.261,0,0,1,.286-.249,1.094,1.094,0,0,1,1.065.93,1.68,1.68,0,0,1-.689,1.753.744.744,0,0,1-.32.072m-.178-2.231a.273.273,0,0,1-.121.2.544.544,0,0,0-.185.379,1.31,1.31,0,0,0,.172.892c.148.18.281.246.4.19a1.194,1.194,0,0,0,.387-1.152.545.545,0,0,0-.556-.492.286.286,0,0,1-.095-.021" transform="translate(-233.445 -133.522)"/>
        <path id="Trazado_876933" data-name="Trazado 876933" d="M517.611,336.964a.711.711,0,0,1-.39-.115,1.787,1.787,0,0,1-.487-1.731,3.04,3.04,0,0,0,.3-.412.479.479,0,0,0,.139-.14,1.088,1.088,0,0,1,.1-.113.252.252,0,0,1,.07-.051.973.973,0,0,1,1.15.278,1.447,1.447,0,0,1-.17,2,1.168,1.168,0,0,1-.7.287m-.337-1.769a.282.282,0,0,1-.006.041c-.085.384.014,1,.247,1.152.125.083.319-.031.458-.138a.9.9,0,0,0,.108-1.2.486.486,0,0,0-.46-.174l-.019.025a.966.966,0,0,1-.325.3l0,0" transform="translate(-234.312 -151.605)"/>
        <path id="Trazado_876934" data-name="Trazado 876934" d="M425.672,213.585c-1.062-1.164-3.744-2.58-6.12-3.744-2.017-.986-4.705.86-1.822,3.946s8.3,4.6,8.3,4.6" transform="translate(-188.862 -95.039)" fill="#ffd4d4"/>
        <path id="Trazado_876935" data-name="Trazado 876935" d="M425.8,218.435a.267.267,0,0,1-.074-.01c-.224-.063-5.52-1.573-8.423-4.679-1.912-2.046-1.315-3.352-.97-3.818a2.515,2.515,0,0,1,3.111-.56c2.3,1.125,5.079,2.575,6.2,3.805a.273.273,0,0,1-.4.368c-1.073-1.176-3.961-2.665-6.039-3.682a1.992,1.992,0,0,0-2.432.393c-.55.743-.2,1.909.93,3.12,2.8,3,8.117,4.511,8.171,4.526a.273.273,0,0,1-.074.537" transform="translate(-188.633 -94.811)"/>
        <path id="Trazado_876936" data-name="Trazado 876936" d="M441.233,343.037H419.66l-8.681-25.356a6.378,6.378,0,0,0-5.626-4.02H368.511a2.853,2.853,0,0,0-2.872,4.02l8.943,26.12c.979,2.536,1.093,4.623,3.635,4.623h63.016a2.694,2.694,0,0,0,0-5.387" transform="translate(-165.714 -142.241)" fill="#f2ac30"/>
        <path id="Trazado_876937" data-name="Trazado 876937" d="M441.034,342.462H419.675c-.422,0,.107.373-.008.036l-.985-2.878-4-11.682-3.357-9.805c-.98-2.864-3.239-5.045-6.432-5.045H372.57c-1.853,0-4.345-.383-6.081.426-2.787,1.3-.989,4.891-.292,6.925l3.978,11.618,3.519,10.279c.805,2.349,1.276,6.061,4.362,6.061H441.02c3.864,0,3.8-5.678.014-5.934-.353-.023-.35.523,0,.547,3.336.225,2.938,4.84-.261,4.84H378.117c-2.425,0-2.84-2.578-3.476-4.436l-.742-2.166q-3.774-11.026-7.55-22.052l-.646-1.887c-.816-2.383.978-3.674,3.11-3.674H401.6c3.123,0,6.059-.307,8.251,2.555a9.613,9.613,0,0,1,1.187,2.778q.776,2.266,1.552,4.533,3.3,9.654,6.611,19.308a.279.279,0,0,0,.263.2h21.574a.273.273,0,0,0,0-.547" transform="translate(-165.514 -141.939)" fill="#f2ac30"/>
        <path id="Trazado_876938" data-name="Trazado 876938" d="M425.4,369.148H382.557a.273.273,0,1,1,0-.547H425.4a.273.273,0,0,1,0,.547" transform="translate(-173.36 -167.155)"/>
        <path id="Trazado_876939" data-name="Trazado 876939" d="M410.154,346.066c-1.87,0-3.927-1.854-4.586-4.133a3.8,3.8,0,0,1,.377-3.347,2.355,2.355,0,0,1,1.935-.937c1.871,0,3.927,1.854,4.585,4.134a3.8,3.8,0,0,1-.378,3.347,2.354,2.354,0,0,1-1.934.936M407.88,338.2a1.8,1.8,0,0,0-1.5.718,3.272,3.272,0,0,0-.289,2.868c.6,2.061,2.417,3.738,4.061,3.738a1.8,1.8,0,0,0,1.5-.718,3.269,3.269,0,0,0,.289-2.868c-.594-2.062-2.415-3.739-4.06-3.739" transform="translate(-183.824 -153.119)"/>
        <path id="Trazado_876940" data-name="Trazado 876940" d="M499.378,176.313c-1.294-1.574-3.22-2.941-4-2.564s-.947,1.563-.4,1.809.748-.756,2.552.031c1.581.689,1.976,1.009,1.846.725" transform="translate(-224.32 -78.764)" fill="#d4336e"/>
        <path id="Trazado_876941" data-name="Trazado 876941" d="M499.142,176.463h0a1.818,1.818,0,0,1-.654-.255c-.292-.141-.711-.344-1.291-.6a2.891,2.891,0,0,0-1.111-.285,1.439,1.439,0,0,0-.673.175.907.907,0,0,1-.771.078.9.9,0,0,1-.481-.854,1.628,1.628,0,0,1,.874-1.451.975.975,0,0,1,.426-.09c1.079,0,2.816,1.4,3.9,2.727a.3.3,0,0,1,.038.06.366.366,0,0,1,0,.354.337.337,0,0,1-.258.137m-3.056-1.682a3.369,3.369,0,0,1,1.33.33c.318.138.588.262.816.369a5.44,5.44,0,0,0-2.771-1.748.438.438,0,0,0-.188.036,1.077,1.077,0,0,0-.565.952c0,.068.015.3.159.362a.147.147,0,0,0,.065.016.764.764,0,0,0,.249-.09,1.967,1.967,0,0,1,.906-.227" transform="translate(-224.094 -78.537)" fill="#d4336e"/>
        <path id="Trazado_876942" data-name="Trazado 876942" d="M549.962,144.71a.273.273,0,0,1-.24-.144,14.669,14.669,0,0,1-1.252-2.856,9.123,9.123,0,0,1-.626-3.081,1.733,1.733,0,0,1,.824-1.6,1.336,1.336,0,0,1,1.455.219c2.372,1.819,1.141,5.611.5,7.157a.272.272,0,0,1-.357.148.283.283,0,0,1-.047-.025.273.273,0,0,1-.128.15.279.279,0,0,1-.13.032m-.77-7.259a.6.6,0,0,0-.276.066,1.219,1.219,0,0,0-.525,1.113,8.675,8.675,0,0,0,.6,2.914,13.74,13.74,0,0,0,1.14,2.627c.594-1.444,1.722-4.909-.334-6.486a1.072,1.072,0,0,0-.6-.234" transform="translate(-248.439 -62.084)"/>
        <path id="Trazado_876943" data-name="Trazado 876943" d="M557.464,151.9a7.8,7.8,0,0,1-2.817-.761l-.375-.152c-.96-.411-2-.827-3.006-1.23a.273.273,0,0,1,.1-.527h.008a.272.272,0,0,1,.155-.182l.555-.246A15.174,15.174,0,0,1,555,147.734c1.419-.283,3.362-.077,4.193,1.434a1.775,1.775,0,0,1-1.523,2.727c-.068,0-.136.006-.2.006m-5.493-2.449c.849.34,1.709.688,2.51,1.031l.373.152a6.673,6.673,0,0,0,2.781.715,1.232,1.232,0,0,0,1.074-1.922c-.687-1.248-2.366-1.4-3.6-1.158a14.744,14.744,0,0,0-2.8,1.032Z" transform="translate(-249.913 -66.946)"/>
        <path id="Trazado_876944" data-name="Trazado 876944" d="M552.039,151.13a.272.272,0,0,1-.164-.055c-.246-.185-.481-.4-.707-.6a8.052,8.052,0,0,0-.92-.755,13.133,13.133,0,0,1-1.2-.841c-.23-.174-.465-.351-.719-.529a35.221,35.221,0,0,1-2.906-2.695.274.274,0,0,1,.387-.387,34.555,34.555,0,0,0,2.847,2.644c.245.172.485.353.721.532a13.013,13.013,0,0,0,1.161.814,8.469,8.469,0,0,1,1,.812c.149.135.292.266.438.387a.281.281,0,0,1,.339.265v.137a.275.275,0,0,1-.151.244.278.278,0,0,1-.122.029" transform="translate(-247.305 -65.84)"/>
        <path id="Trazado_876945" data-name="Trazado 876945" d="M203.97,348.589H189.547a.274.274,0,0,1-.267-.216l-6.8-31.539a2.743,2.743,0,0,1,.383-2.333,2.459,2.459,0,0,1,2.785-.537l37.739,12.14a2.276,2.276,0,0,1,.9,4.18l-20.134,18.233a.273.273,0,0,1-.183.071m-14.2-.547h14.1l20.056-18.163a1.745,1.745,0,0,0-.7-3.255l-37.738-12.14a1.953,1.953,0,0,0-2.193.36,2.222,2.222,0,0,0-.273,1.875Z" transform="translate(-82.711 -142.293)" fill="#ffd4d4"/>
        <path id="Trazado_876946" data-name="Trazado 876946" d="M195.862,27.992h-.07c-1.789-.032-3.478-1.266-4.635-3.387a10.8,10.8,0,0,1,.211-9.724,13.121,13.121,0,0,0-5.72.708c-4.131,1.53-6.122,4.91-5.327,9.043a.273.273,0,1,1-.537.1c-.85-4.417,1.271-8.028,5.674-9.658a13.675,13.675,0,0,1,6.175-.71,12.769,12.769,0,0,1,1.691-2.4c3.293-3.684,7.988-4.654,12.88-2.66a.273.273,0,0,1-.206.506c-4.667-1.9-9.137-.984-12.267,2.518a12.278,12.278,0,0,0-1.519,2.117,9.205,9.205,0,0,1,6.774,4.22c1.478,2.587,1.659,5.2.5,7.161a4.219,4.219,0,0,1-3.621,2.165m-3.92-13.043a10.286,10.286,0,0,0-.306,9.394c1.076,1.972,2.555,3.074,4.165,3.1a3.709,3.709,0,0,0,3.211-1.9c1.06-1.79.878-4.2-.5-6.611a8.731,8.731,0,0,0-6.57-3.987" transform="translate(-81.446 -3.759)" fill="#f2ac30"/>
        <path id="Trazado_876947" data-name="Trazado 876947" d="M13.2,176.692a7.751,7.751,0,0,1-3.411-.851.273.273,0,1,1,.24-.491,6.146,6.146,0,0,0,7.422-1.033,9.106,9.106,0,0,0,1.768-2.446,6.26,6.26,0,0,1-4.514-3.4c-1.278-2.691-.842-4.927-.008-6.122a2.721,2.721,0,0,1,2.481-1.278c1.206.111,2.284,1.086,3.036,2.745a9.889,9.889,0,0,1-.206,7.635,7.581,7.581,0,0,0,3.055-.272c2.5-.767,4.938-3.085,4.293-7.291a.273.273,0,0,1,.541-.083c.7,4.55-1.957,7.063-4.673,7.9a8.141,8.141,0,0,1-3.449.269,9.669,9.669,0,0,1-1.943,2.742,6.552,6.552,0,0,1-4.632,1.983M16.955,161.6a2.238,2.238,0,0,0-1.811,1.055c-.747,1.068-1.124,3.094.054,5.574a5.75,5.75,0,0,0,4.258,3.13,9.347,9.347,0,0,0,.26-7.325c-.667-1.472-1.587-2.334-2.588-2.427-.057-.005-.115-.008-.173-.008" transform="translate(-4.369 -73.037)" fill="#ffd4d4"/>
        <path id="Trazado_876948" data-name="Trazado 876948" d="M618.043,250.192a.274.274,0,0,1-.125-.03c-3.739-1.918-5.175-5.557-3.84-9.735a12.754,12.754,0,0,1,3.021-4.938,11.881,11.881,0,0,1-.788-2.612c-.816-4.542,1.172-8.552,5.454-11a.273.273,0,0,1,.271.474c-4.069,2.33-5.96,6.132-5.187,10.433a11.444,11.444,0,0,0,.67,2.3,8.592,8.592,0,0,1,6.983-2.536c2.755.4,4.78,1.772,5.556,3.761a3.944,3.944,0,0,1-.534,3.97c-1.055,1.3-2.935,1.832-5.165,1.463a10.075,10.075,0,0,1-7.018-5.725,12.206,12.206,0,0,0-2.742,4.578c-1.247,3.9.088,7.3,3.569,9.081a.273.273,0,0,1-.125.516m-.295-14.587a9.562,9.562,0,0,0,6.7,5.6c2.06.343,3.71-.109,4.651-1.268a3.408,3.408,0,0,0,.449-3.428c-.7-1.8-2.571-3.046-5.126-3.418a8.108,8.108,0,0,0-6.675,2.518" transform="translate(-278.253 -100.6)" fill="#f2ac30"/>
        <path id="Trazado_876949" data-name="Trazado 876949" d="M555.276,71.285a3.068,3.068,0,0,1-2.543-1.34l-5.478-8.064a3.076,3.076,0,0,1,.813-4.258l8.065-5.479a3.074,3.074,0,0,1,4.259.816l5.478,8.063a3.073,3.073,0,0,1-.814,4.26l-8.063,5.477a3.046,3.046,0,0,1-1.717.527m2.572-19.121a2.5,2.5,0,0,0-1.407.431l-8.065,5.479a2.527,2.527,0,0,0-.668,3.5l5.478,8.064a2.527,2.527,0,0,0,3.5.668l8.063-5.477a2.524,2.524,0,0,0,.669-3.5l-5.478-8.064a2.521,2.521,0,0,0-2.092-1.1" transform="translate(-247.933 -23.408)" fill="#ffd4d4"/>
        <path id="Trazado_876950" data-name="Trazado 876950" d="M505.728,35.239a3.668,3.668,0,1,1,3.669-3.668,3.673,3.673,0,0,1-3.669,3.668m0-6.79a3.122,3.122,0,1,0,3.122,3.123,3.126,3.126,0,0,0-3.122-3.123" transform="translate(-227.676 -12.653)" fill="#7db3db"/>
        <path id="Trazado_876951" data-name="Trazado 876951" d="M53.369,100.67a2.623,2.623,0,1,1-2.623-2.623,2.624,2.624,0,0,1,2.623,2.623" transform="translate(-21.823 -44.463)" fill="#7db3db"/>
        <path id="Trazado_876952" data-name="Trazado 876952" d="M64.292,91.044a2.623,2.623,0,1,1-2.623-2.624,2.624,2.624,0,0,1,2.623,2.624" transform="translate(-26.776 -40.097)" fill="#7db3db"/>
        <path id="Trazado_876953" data-name="Trazado 876953" d="M66.142,105.114a2.624,2.624,0,1,1-2.624-2.624,2.622,2.622,0,0,1,2.624,2.624" transform="translate(-27.615 -46.478)" fill="#7db3db"/>
        <path id="Trazado_876954" data-name="Trazado 876954" d="M351.934,356.8a2.908,2.908,0,0,1-2.63-1.678,2.893,2.893,0,1,1,2.63,1.678m0-5.248a2.35,2.35,0,1,0,2.134,1.361,2.34,2.34,0,0,0-2.134-1.361" transform="translate(-158.281 -159.173)" fill="#7db3db"/>
        <path id="Trazado_876955" data-name="Trazado 876955" d="M338.607,350.936a2.9,2.9,0,0,1-1.221-5.525,2.866,2.866,0,0,1,1.216-.269,2.9,2.9,0,0,1,1.22,5.525,2.864,2.864,0,0,1-1.215.269m0-5.248a2.351,2.351,0,0,0-2.13,3.339,2.362,2.362,0,0,0,2.135,1.362,2.32,2.32,0,0,0,.985-.219,2.35,2.35,0,0,0-.99-4.483" transform="translate(-152.238 -156.517)" fill="#7db3db"/>
        <path id="Trazado_876956" data-name="Trazado 876956" d="M350.59,343.337a2.9,2.9,0,1,1,2.627-4.116,2.9,2.9,0,0,1-2.627,4.116m0-5.248a2.35,2.35,0,1,0,2.134,1.361,2.339,2.339,0,0,0-2.134-1.361" transform="translate(-157.674 -153.07)" fill="#7db3db"/>
        <path id="Trazado_876957" data-name="Trazado 876957" d="M606.142,184.484a2.9,2.9,0,0,1-2.722-3.893,2.9,2.9,0,0,1,2.717-1.9,2.9,2.9,0,0,1,1.221,5.524,2.867,2.867,0,0,1-1.215.269m-.005-5.247a2.35,2.35,0,0,0-2.129,3.339,2.36,2.36,0,0,0,2.135,1.362,2.351,2.351,0,0,0,2.129-3.34,2.361,2.361,0,0,0-2.135-1.361" transform="translate(-273.561 -81.033)" fill="#495edb"/>
        <path id="Trazado_876958" data-name="Trazado 876958" d="M592.812,178.624a2.907,2.907,0,0,1-2.63-1.679,2.9,2.9,0,0,1,2.626-4.115,2.9,2.9,0,0,1,1.22,5.525,2.867,2.867,0,0,1-1.216.269m0-5.248a2.35,2.35,0,0,0-2.13,3.339,2.358,2.358,0,0,0,2.134,1.362,2.351,2.351,0,0,0,2.13-3.34,2.36,2.36,0,0,0-2.134-1.361" transform="translate(-267.516 -78.376)" fill="#495edb"/>
        <path id="Trazado_876959" data-name="Trazado 876959" d="M604.8,171.026a2.9,2.9,0,1,1,2.72-1.9,2.9,2.9,0,0,1-2.72,1.9m0-5.247a2.351,2.351,0,1,0,2.133,1.361,2.339,2.339,0,0,0-2.133-1.361" transform="translate(-272.953 -74.93)" fill="#495edb"/>
        <path id="Trazado_876960" data-name="Trazado 876960" d="M350.187,377.223H.547a.547.547,0,1,1,0-1.093H350.187a.547.547,0,0,1,0,1.093" transform="translate(0 -170.569)" fill="#32015c"/>
      </g>
    </g>
  </g>
</svg>
