<svg xmlns="http://www.w3.org/2000/svg" width="255" height="164.015" viewBox="0 0 255 164.015">
  <g id="Grupo_1101311" data-name="Grupo 1101311" transform="translate(-1060 -2980.985)">
    <path id="Rectángulo_401889" data-name="Rectángulo 401889" d="M30,0H225a30,30,0,0,1,30,30V85a0,0,0,0,1,0,0H0a0,0,0,0,1,0,0V30A30,30,0,0,1,30,0Z" transform="translate(1060 3060)" fill="#aee6e6"/>
    <g id="Grupo_1101308" data-name="Grupo 1101308" transform="translate(1067.307 2980.985)">
      <g id="Grupo_1101310" data-name="Grupo 1101310">
        <path id="Trazado_876279" data-name="Trazado 876279" d="M284.254,327.078v3.974h14.434a7.508,7.508,0,0,1,15.016,0h14.435v-3.974h-6.966a15.393,15.393,0,0,0-1.555-3.753l4.926-4.927-5.663-5.663-4.926,4.927a15.411,15.411,0,0,0-3.753-1.556v-6.966h-8.01v6.966a15.409,15.409,0,0,0-3.753,1.556l-4.927-4.927-5.663,5.663,4.927,4.927a15.409,15.409,0,0,0-1.556,3.753Z" transform="translate(-154.106 -167.599)" fill="#a0e1e1"/>
        <path id="Trazado_876280" data-name="Trazado 876280" d="M238.419,223.721c-.02-.871-2.151-87.123-18.194-87.123-11.037,0-14.575,24.337-17.7,45.809-2.38,16.373-4.436,30.515-9.49,30.515-4.724,0-5.867-15.9-7.316-36.02-2.1-29.122-4.7-65.365-19.668-65.365-13.445,0-16.448,29.484-18.861,53.176-1.848,18.149-3.445,33.823-9.045,33.823-3.773,0-4.816-10.571-6.024-22.81-1.508-15.284-3.217-32.608-10.587-32.608-5.789,0-7.512,16.975-9.178,33.392-1.632,16.081-3.174,31.271-8.464,31.271-5.1,0-6.4-12.375-7.78-25.477-1.569-14.9-3.19-30.3-10.163-30.3-6.72,0-10.256,13.525-13.677,26.6-3.4,13-6.609,25.275-12.82,25.275-5.558,0-6.1-16.659-6.721-35.947-.667-20.6-1.422-43.945-8.6-50.633a6.524,6.524,0,0,0-4.84-1.863c-20.636.8-22.6,107.209-22.62,108.284l-.38-.006c0-.269.473-27.233,3.507-53.949C23.887,133.8,30.441,115.4,39.281,115.055A6.909,6.909,0,0,1,44.4,117.02c7.3,6.8,8.053,30.226,8.722,50.9.592,18.3,1.151,35.578,6.34,35.578,5.917,0,9.239-12.7,12.452-24.991,3.457-13.219,7.031-26.889,14.045-26.889,7.315,0,8.955,15.579,10.541,30.646,1.361,12.926,2.646,25.136,7.4,25.136,4.946,0,6.542-15.723,8.085-30.929,1.684-16.585,3.424-33.734,9.557-33.734,7.715,0,9.442,17.506,10.966,32.952,1.14,11.553,2.217,22.466,5.645,22.466,5.256,0,6.837-15.516,8.666-33.481,2.555-25.085,5.451-53.517,19.239-53.517,15.317,0,17.94,36.439,20.047,65.718,1.378,19.138,2.568,35.666,6.937,35.666,4.724,0,6.856-14.664,9.113-30.189,3.143-21.625,6.706-46.134,18.073-46.134,16.412,0,18.494,83.923,18.575,87.495Z" transform="translate(-8.834 -60.262)" fill="#26aab7"/>
        <path id="Trazado_876281" data-name="Trazado 876281" d="M34.818,170.114a2.2,2.2,0,1,1-2.2-2.2,2.2,2.2,0,0,1,2.2,2.2" transform="translate(-16.495 -91.036)" fill="#7d6eb2"/>
        <path id="Trazado_876282" data-name="Trazado 876282" d="M189.96,257.818a2.2,2.2,0,1,1-2.2-2.2,2.2,2.2,0,0,1,2.2,2.2" transform="translate(-100.604 -138.584)" fill="#7d6eb2"/>
        <path id="Trazado_876283" data-name="Trazado 876283" d="M283.849,299.165a2.2,2.2,0,1,1-2.2-2.2,2.2,2.2,0,0,1,2.2,2.2" transform="translate(-151.505 -161)" fill="#7d6eb2"/>
        <path id="Trazado_876284" data-name="Trazado 876284" d="M324.977,119.411a2.2,2.2,0,1,1-2.2-2.2,2.2,2.2,0,0,1,2.2,2.2" transform="translate(-173.802 -63.547)" fill="#7d6eb2"/>
        <path id="Trazado_876285" data-name="Trazado 876285" d="M429.066,220.42a2.2,2.2,0,1,1-2.2-2.2,2.2,2.2,0,0,1,2.2,2.2" transform="translate(-230.233 -118.309)" fill="#7d6eb2"/>
        <path id="Trazado_876286" data-name="Trazado 876286" d="M490.566,230.247a2.2,2.2,0,1,1-2.2-2.2,2.2,2.2,0,0,1,2.2,2.2" transform="translate(-263.575 -123.636)" fill="#7d6eb2"/>
        <path id="Trazado_876300" data-name="Trazado 876300" d="M128.443,109.411a2.734,2.734,0,0,0,1.79-3.506c-.443-1.365-2.675-1.679-6.827-.111s-7.141,1.4-7.4,2.749.849,2.011,2.879,1.753l1.8,4.207Z" transform="translate(-62.872 -56.786)" fill="#365896"/>
        <path id="Trazado_876301" data-name="Trazado 876301" d="M107.662,208.613l12.176,62.038h-8.3L97.364,218.826,80.127,269.752h-7.8l13.525-61.139Z" transform="translate(-39.211 -113.098)" fill="#1b2536"/>
        <path id="Trazado_876302" data-name="Trazado 876302" d="M128.552,113.184l5.333-.867a18.55,18.55,0,0,1,.35,3.377,4.22,4.22,0,0,1,.923,2.879,3.742,3.742,0,0,1-2.878,3.819l.037,3.358H125.8l.941-8.3s2.177-.535,1.808-4.262" transform="translate(-68.203 -60.892)" fill="#d9956a"/>
        <path id="Trazado_876303" data-name="Trazado 876303" d="M125.6,123.517a2.161,2.161,0,1,1-1.228-2.559,2.017,2.017,0,0,1,1.228,2.559" transform="translate(-65.892 -65.469)" fill="#d9956a"/>
        <path id="Trazado_876304" data-name="Trazado 876304" d="M125.887,124.381a2.1,2.1,0,0,0-1.213-1.238,1.819,1.819,0,0,0-1.336.152l-.09-.153a1.981,1.981,0,0,1,1.48-.168,2.273,2.273,0,0,1,1.321,1.334Z" transform="translate(-66.817 -66.627)" fill="#422424"/>
        <rect id="Rectángulo_402150" data-name="Rectángulo 402150" width="1.266" height="0.177" transform="translate(57.236 57.587) rotate(-77.328)" fill="#422424"/>
        <path id="Trazado_876305" data-name="Trazado 876305" d="M134.788,133.147a4.45,4.45,0,0,1-2.9-1.1l.116-.134a4.278,4.278,0,0,0,3.158,1.031l.027.175a2.828,2.828,0,0,1-.4.023" transform="translate(-71.499 -71.518)" fill="#422424"/>
        <path id="Trazado_876306" data-name="Trazado 876306" d="M138.361,120.649l-.082-.157.551-.288a.149.149,0,0,0,.08-.106.161.161,0,0,0-.036-.135,3.206,3.206,0,0,1-.641-1.883h.177a3.087,3.087,0,0,0,.6,1.768.335.335,0,0,1,.076.283.328.328,0,0,1-.171.229Z" transform="translate(-74.941 -64.016)" fill="#422424"/>
        <path id="Trazado_876307" data-name="Trazado 876307" d="M136.281,124.931h2.712s-.867,2.343-1.513,2.362-1.2-2.362-1.2-2.362" transform="translate(-73.884 -67.73)" fill="#422424"/>
        <path id="Trazado_876308" data-name="Trazado 876308" d="M137.68,126.756a2.95,2.95,0,0,0-.8.109c.223.663.56,1.428.927,1.417.34-.01.74-.663,1.044-1.281a2.783,2.783,0,0,0-1.168-.246" transform="translate(-74.206 -68.72)" fill="#943232"/>
        <path id="Trazado_876309" data-name="Trazado 876309" d="M134.413,117.753c-.252.034-.384.5-.3,1.035a1.927,1.927,0,0,0,.13.446l.369-.249s-.093.286-.187.554a.365.365,0,0,0,.3.16c.252-.034.384-.5.3-1.035s-.364-.946-.616-.912" transform="translate(-72.696 -63.838)" fill="#1b2536"/>
        <path id="Trazado_876310" data-name="Trazado 876310" d="M140.686,116.907c-.252.034-.384.5-.3,1.035a1.927,1.927,0,0,0,.13.446l.369-.249s-.093.286-.187.554a.365.365,0,0,0,.3.16c.252-.034.384-.5.3-1.035s-.364-.946-.616-.912" transform="translate(-76.097 -63.379)" fill="#1b2536"/>
        <path id="Trazado_876311" data-name="Trazado 876311" d="M133.851,116.236a.163.163,0,0,1-.067-.014,2.62,2.62,0,0,0-1.543.005.172.172,0,0,1-.105-.327,2.928,2.928,0,0,1,1.782.005.172.172,0,0,1-.067.33" transform="translate(-71.572 -62.757)" fill="#365896"/>
        <path id="Trazado_876312" data-name="Trazado 876312" d="M139.293,115.461a.172.172,0,0,1-.1-.311,2.342,2.342,0,0,1,1.611-.31.172.172,0,1,1-.047.34,2.048,2.048,0,0,0-1.365.249.172.172,0,0,1-.1.031" transform="translate(-75.424 -62.246)" fill="#365896"/>
        <path id="Trazado_876313" data-name="Trazado 876313" d="M112.2,138.713h6.285a.994.994,0,0,1,.966.763l.232.971,8.406,2.968,7.27,12.125,3.174-3.767,5.093,2.173-3.089,7.909a5.777,5.777,0,0,1-8.653,2.659l-6.8-4.678-1.309,8.14s4.65,3.972-.554,3.972H101.157a.943.943,0,0,1-.923-1.132L106.1,142.19l4.908-1.89.24-.86a.994.994,0,0,1,.957-.727" transform="translate(-54.33 -75.202)" fill="#d65353"/>
        <rect id="Rectángulo_402151" data-name="Rectángulo 402151" width="5.206" height="0.197" transform="matrix(0.614, -0.789, 0.789, 0.614, 77.756, 84.385)" fill="#1b2536"/>
        <rect id="Rectángulo_402152" data-name="Rectángulo 402152" width="6.576" height="0.197" transform="translate(70.657 84.62) rotate(-81.437)" fill="#1b2536"/>
        <path id="Trazado_876314" data-name="Trazado 876314" d="M158.377,158.174H137.73l3.451-16.519h20.647Z" transform="translate(-74.67 -76.797)" fill="#edd1c2"/>
        <path id="Trazado_876315" data-name="Trazado 876315" d="M164.176,147.514H148.92a.585.585,0,0,1-.466-.211.611.611,0,0,1-.113-.521.9.9,0,0,1,.835-.691h15.256a.586.586,0,0,1,.467.211.61.61,0,0,1,.112.521.9.9,0,0,1-.835.691m-15-1.226a.692.692,0,0,0-.642.535.419.419,0,0,0,.073.357.393.393,0,0,0,.313.138h15.256a.692.692,0,0,0,.642-.535.419.419,0,0,0-.073-.357.393.393,0,0,0-.314-.138Z" transform="translate(-80.414 -79.202)" fill="#fff"/>
        <path id="Trazado_876316" data-name="Trazado 876316" d="M162.906,153.6H147.649a.586.586,0,0,1-.466-.21.612.612,0,0,1-.113-.521.9.9,0,0,1,.835-.691h15.256a.586.586,0,0,1,.467.211.61.61,0,0,1,.112.521.9.9,0,0,1-.835.691m-15-1.226a.692.692,0,0,0-.642.535.419.419,0,0,0,.072.356.392.392,0,0,0,.314.138h15.256a.692.692,0,0,0,.642-.535.419.419,0,0,0-.073-.357.393.393,0,0,0-.314-.138Z" transform="translate(-79.725 -82.502)" fill="#fff"/>
        <path id="Trazado_876317" data-name="Trazado 876317" d="M157.668,159.685H146.377a.585.585,0,0,1-.466-.211.61.61,0,0,1-.113-.521.9.9,0,0,1,.835-.691h11.291a.585.585,0,0,1,.466.211.61.61,0,0,1,.113.521.9.9,0,0,1-.835.691m-11.034-1.226a.692.692,0,0,0-.642.534.419.419,0,0,0,.073.357.392.392,0,0,0,.313.138h11.291a.692.692,0,0,0,.642-.535.419.419,0,0,0-.072-.357.393.393,0,0,0-.314-.138Z" transform="translate(-79.035 -85.801)" fill="#fff"/>
        <path id="Trazado_876318" data-name="Trazado 876318" d="M160.363,165.77H145.106a.586.586,0,0,1-.466-.21.612.612,0,0,1-.113-.521.9.9,0,0,1,.835-.691h15.256a.586.586,0,0,1,.467.211.61.61,0,0,1,.112.521.9.9,0,0,1-.835.691m-15-1.226a.692.692,0,0,0-.642.535.419.419,0,0,0,.072.356.392.392,0,0,0,.314.138h15.256a.692.692,0,0,0,.642-.535.419.419,0,0,0-.073-.357.393.393,0,0,0-.314-.138Z" transform="translate(-78.346 -89.1)" fill="#fff"/>
        <path id="Trazado_876319" data-name="Trazado 876319" d="M153.132,171.856h-9.3a.585.585,0,0,1-.466-.211.611.611,0,0,1-.113-.521.9.9,0,0,1,.835-.691h9.3a.586.586,0,0,1,.467.211.611.611,0,0,1,.113.521.9.9,0,0,1-.835.691m-9.042-1.226a.692.692,0,0,0-.642.534.42.42,0,0,0,.072.357.392.392,0,0,0,.314.138h9.3a.691.691,0,0,0,.642-.534.419.419,0,0,0-.073-.357.393.393,0,0,0-.314-.138Z" transform="translate(-77.657 -92.399)" fill="#fff"/>
        <path id="Trazado_876320" data-name="Trazado 876320" d="M102.6,184.65s9.165-4.172,14.971-5.718c-2.277,4.177-8.991,9.366-13.221,12.365a1.762,1.762,0,0,1-2.745-1.793Z" transform="translate(-55.064 -97.007)" fill="#1b2536"/>
        <path id="Trazado_876321" data-name="Trazado 876321" d="M95.38,146.307c-2.4.73-4.428,2.243-7.565,5.823s-9.855,10.207-6.421,15.721c4.022,6.458,19.042-2.177,24.725-6.605l-2.952-5.573-9.558,2.8,3.617-5.372Z" transform="translate(-43.611 -79.319)" fill="#d65353"/>
        <path id="Trazado_876322" data-name="Trazado 876322" d="M101.515,171.171a10.038,10.038,0,0,0-4.489-.61l-.04-.192a10,10,0,0,1,4.589.615Z" transform="translate(-52.58 -92.332)" fill="#1b2536"/>
        <path id="Trazado_876323" data-name="Trazado 876323" d="M130.075,158.257l2.362-.849,2.19-4.618a1.746,1.746,0,0,1,1.163-.948l3.029-.74a.944.944,0,0,1,1.162.805l.247,2.064a.756.756,0,0,1-.477.794l-2.385.924s2.064.335,2.932.446c.124.016.123.477,0,.5a20.809,20.809,0,0,1-2.932.055s-1.386,2.684-3.3,2.74l-2.4,1.833Z" transform="translate(-70.519 -81.904)" fill="#d9956a"/>
        <path id="Trazado_876324" data-name="Trazado 876324" d="M142.387,154.7l-.047-.171,4.267-1.158.047.171Z" transform="translate(-77.169 -83.149)" fill="#422424"/>
        <path id="Trazado_876325" data-name="Trazado 876325" d="M143.077,157.137l-.047-.171,4.123-1.119.047.171Z" transform="translate(-77.543 -84.491)" fill="#422424"/>
        <path id="Trazado_876326" data-name="Trazado 876326" d="M187.448,159.765v-3.346l.551-2.779a1.512,1.512,0,0,0-.636-1.547l-2.488-1.682a.518.518,0,0,0-.792.3l-.972,3.81a.5.5,0,0,0,.225.554l1.122.685-.523,2.505Z" transform="translate(-99.264 -81.495)" fill="#d9956a"/>
        <rect id="Rectángulo_402153" data-name="Rectángulo 402153" width="0.177" height="1.434" transform="translate(85.148 74.34) rotate(-58.833)" fill="#422424"/>
        <path id="Trazado_876327" data-name="Trazado 876327" d="M186.228,159.249l-2.73-1.6.089-.153,2.73,1.6Z" transform="translate(-99.482 -85.387)" fill="#422424"/>
        <path id="Trazado_876328" data-name="Trazado 876328" d="M186.817,156.653l-2.73-1.6.089-.153,2.73,1.6Z" transform="translate(-99.801 -83.979)" fill="#422424"/>
        <path id="Trazado_876329" data-name="Trazado 876329" d="M187.576,154.175l-2.73-1.6.089-.153,2.73,1.6Z" transform="translate(-100.213 -82.636)" fill="#422424"/>
        <rect id="Rectángulo_402154" data-name="Rectángulo 402154" width="9.169" height="0.197" transform="matrix(0.846, -0.534, 0.534, 0.846, 59.038, 91.038)" fill="#1b2536"/>
        <path id="Trazado_876330" data-name="Trazado 876330" d="M76.952,340.212l.684,2.879,7.73,3.395.369,1.686H68.981l2.878-7.96Z" transform="translate(-37.398 -184.444)" fill="#1b2536"/>
        <path id="Trazado_876331" data-name="Trazado 876331" d="M122.338,115.96a10.574,10.574,0,0,0,2.753-.77l-2.08,2.344Z" transform="translate(-66.325 -62.449)" fill="#1b2536"/>
        <path id="Trazado_876332" data-name="Trazado 876332" d="M112.895,172.242l-2.915-5.5-16.824,5.007-.056-.189,16.979-5.053,2.99,5.644Z" transform="translate(-50.473 -90.27)" fill="#1b2536"/>
        <rect id="Rectángulo_402155" data-name="Rectángulo 402155" width="7.499" height="0.197" transform="matrix(0.567, -0.823, 0.823, 0.567, 49.92, 79.104)" fill="#1b2536"/>
        <path id="Trazado_876333" data-name="Trazado 876333" d="M446.37,266.034v-9.546h-8.3a18.354,18.354,0,0,0-1.854-4.472l5.871-5.871-6.749-6.749-5.871,5.871a18.382,18.382,0,0,0-4.472-1.853v-8.3h-9.546v8.3a18.382,18.382,0,0,0-4.472,1.853L405.1,239.4l-6.749,6.749,5.871,5.871a18.354,18.354,0,0,0-1.854,4.472h-8.3v9.546h8.3a18.354,18.354,0,0,0,1.854,4.472l-5.871,5.871,6.749,6.749,5.871-5.871a18.363,18.363,0,0,0,4.472,1.853v8.3h9.546v-8.3a18.362,18.362,0,0,0,4.472-1.853l5.871,5.871,6.749-6.749-5.871-5.871a18.354,18.354,0,0,0,1.854-4.472Zm-17.2-4.773a8.95,8.95,0,1,1-8.949-8.949,8.96,8.96,0,0,1,8.949,8.949" transform="translate(-213.642 -127.464)" fill="#26aab7"/>
        <path id="Trazado_876334" data-name="Trazado 876334" d="M392.024,130.346l-1.107,4.356s-2.466-2.743-2.294-4.785Z" transform="translate(-210.684 -70.434)" fill="#1b2536"/>
        <path id="Trazado_876335" data-name="Trazado 876335" d="M334.573,333.886l-.607,3.912-6.4,2.979a2.373,2.373,0,0,0-1.222,1.323l-.959,2.572H340.46l-.823-6.525.449-4.26Z" transform="translate(-176.403 -181.014)" fill="#d68d8d"/>
        <path id="Trazado_876336" data-name="Trazado 876336" d="M336.173,340.755h0a1.55,1.55,0,0,0-1.55-1.55H334.2l-.229,1.476-6.4,2.979a2.373,2.373,0,0,0-1.222,1.323l-.959,2.572H340.46l-.824-6.525.029-.275Z" transform="translate(-176.403 -183.897)" fill="#1b2536"/>
        <path id="Trazado_876337" data-name="Trazado 876337" d="M325.382,355.68H340.46l-.188-1.489H325.937Z" transform="translate(-176.403 -192.022)" fill="#4a6cab"/>
        <path id="Trazado_876338" data-name="Trazado 876338" d="M410.2,333.886l.276,3.915-6.434,2.912a2.372,2.372,0,0,0-1.236,1.31l-.985,2.719h15.077l-.755-6.534-.431-4.265Z" transform="translate(-217.842 -181.014)" fill="#d68d8d"/>
        <path id="Trazado_876339" data-name="Trazado 876339" d="M416.137,341.027l-.04-.393h-3.834l-.031-.219a1.55,1.55,0,0,0-1.534-1.331h-.335l.109,1.535-6.434,2.912a2.372,2.372,0,0,0-1.236,1.31l-.985,2.72h15.077Z" transform="translate(-217.842 -183.832)" fill="#1b2536"/>
        <path id="Trazado_876340" data-name="Trazado 876340" d="M401.816,355.655h15.077l-.173-1.491-14.334-.149Z" transform="translate(-217.842 -191.927)" fill="#4a6cab"/>
        <path id="Trazado_876341" data-name="Trazado 876341" d="M340.095,246.293h-10.04l1.291-4.88H338.8Zm-8.506-1.181h6.972l-.666-2.519h-5.64Z" transform="translate(-178.937 -130.88)" fill="#1b2536"/>
        <path id="Trazado_876342" data-name="Trazado 876342" d="M336.68,267.306H318.307a1.945,1.945,0,0,1-1.945-1.945V255.22h22.263v10.141a1.945,1.945,0,0,1-1.945,1.945" transform="translate(-171.513 -138.366)" fill="#6e9296"/>
        <path id="Trazado_876343" data-name="Trazado 876343" d="M337.4,254H315.851a1.089,1.089,0,0,1-1.089-1.09v-2.3a2.376,2.376,0,0,1,2.376-2.375h18.976a2.375,2.375,0,0,1,2.375,2.375v2.3A1.089,1.089,0,0,1,337.4,254" transform="translate(-170.646 -134.581)" fill="#496163"/>
        <rect id="Rectángulo_402156" data-name="Rectángulo 402156" width="1.876" height="2.565" transform="translate(147.747 116.854)" fill="#fff"/>
        <rect id="Rectángulo_402157" data-name="Rectángulo 402157" width="1.876" height="2.565" transform="translate(162.337 116.854)" fill="#fff"/>
        <path id="Trazado_876344" data-name="Trazado 876344" d="M324.551,260.318h-2.072v-5.312h2.072Zm-1.876-.2h1.679V255.2h-1.679Z" transform="translate(-174.83 -138.249)" fill="#1b2536"/>
        <path id="Trazado_876345" data-name="Trazado 876345" d="M356.416,260.318h-2.073v-5.312h2.073Zm-1.876-.2h1.679V255.2h-1.679Z" transform="translate(-192.104 -138.249)" fill="#1b2536"/>
        <path id="Trazado_876346" data-name="Trazado 876346" d="M355.915,209.285v4.945l-9.258,22.246a18.793,18.793,0,0,0-1.31,4.992L342.261,267.3h8.414l3.857-21.249a25.533,25.533,0,0,1,1.572-5.3l7.779-19.834h1.742L376.433,267.3h8.045l-7.454-53.436-.443-4.945Z" transform="translate(-185.554 -113.262)" fill="#4a6cab"/>
        <rect id="Rectángulo_402158" data-name="Rectángulo 402158" width="20.897" height="0.197" transform="translate(170.361 98.139)" fill="#1b2536"/>
        <path id="Trazado_876347" data-name="Trazado 876347" d="M390.387,222l-.665-11.071.2-.011.665,11.071Z" transform="translate(-211.285 -114.348)" fill="#1b2536"/>
        <path id="Trazado_876348" data-name="Trazado 876348" d="M388.094,218.554h-.138a1.864,1.864,0,0,1-1.853-1.73l-.37-5.41.2-.013.37,5.41a1.666,1.666,0,0,0,1.657,1.547h.138Z" transform="translate(-209.122 -114.609)" fill="#1b2536"/>
        <path id="Trazado_876349" data-name="Trazado 876349" d="M413.121,218.55a4.779,4.779,0,0,1-3.569-1.577c-1.824-2.085-1.521-5.544-1.517-5.579l.2.019c0,.033-.3,3.411,1.47,5.431a4.589,4.589,0,0,0,3.428,1.51Z" transform="translate(-221.202 -114.606)" fill="#1b2536"/>
        <path id="Trazado_876350" data-name="Trazado 876350" d="M369.305,219l-.012-.2c3.9-.255,3.8-6.837,3.8-6.9l.2,0c0,.069.105,6.837-3.984,7.1" transform="translate(-200.209 -114.877)" fill="#1b2536"/>
        <rect id="Rectángulo_402159" data-name="Rectángulo 402159" width="0.197" height="9.965" transform="matrix(0.015, -1, 1, 0.015, 174.087, 107.746)" fill="#1b2536"/>
        <path id="Trazado_876351" data-name="Trazado 876351" d="M357.074,280.167l-.195-.031,3.765-23.618,9.085-21.169.18.078-9.078,21.145Z" transform="translate(-193.479 -127.593)" fill="#1b2536"/>
        <rect id="Rectángulo_402160" data-name="Rectángulo 402160" width="0.197" height="49.392" transform="translate(190.24 103.582) rotate(-7.327)" fill="#1b2536"/>
        <path id="Trazado_876352" data-name="Trazado 876352" d="M372.083,210.791l21.084,2.793-.418-4.668-20.666.369Z" transform="translate(-201.722 -113.262)" fill="#1b2536"/>
        <path id="Trazado_876353" data-name="Trazado 876353" d="M346.028,185.784l-1.144,5.683-7.823,15.684-1.433,4.971a.817.817,0,0,0,.785,1.044H339.7a.877.877,0,0,0,.872-.968l-.342-3.276,12.621-15.02.074-8.119Z" transform="translate(-181.94 -100.721)" fill="#d9956a"/>
        <path id="Trazado_876354" data-name="Trazado 876354" d="M341.744,239.866l-.177,0v-.024a.764.764,0,0,0-.765-.772h-.952l.043-.119a5.494,5.494,0,0,0,.131-3.845l.162-.073a5.515,5.515,0,0,1-.085,3.86h.7a.941.941,0,0,1,.942.951Z" transform="translate(-184.247 -127.42)" fill="#422424"/>
        <rect id="Rectángulo_402161" data-name="Rectángulo 402161" width="2.3" height="0.177" transform="translate(156.136 109.957)" fill="#422424"/>
        <path id="Trazado_876355" data-name="Trazado 876355" d="M344.326,242.7l-.521-2.357.173-.038.521,2.357Z" transform="translate(-186.392 -130.281)" fill="#422424"/>
        <path id="Trazado_876356" data-name="Trazado 876356" d="M342.124,241.945l-.353-1.6.173-.038.353,1.6Z" transform="translate(-185.289 -130.281)" fill="#422424"/>
        <path id="Trazado_876357" data-name="Trazado 876357" d="M357.14,188.608s1.946,1.384,7.42,2.564l.049-5.389h-6.9Z" transform="translate(-193.621 -100.721)" fill="#1b2536"/>
        <path id="Trazado_876358" data-name="Trazado 876358" d="M369.118,151.388s7.362.065,10.96,1.983,9.521,13.543,9.521,13.543l-7.085.443,1.462,10.333a1.229,1.229,0,0,1-1.217,1.4H360.445c-2.251,0,.7-1.845.7-1.845l-.664-8.155s-4.945.959-7.823-.3l4.531-11.691a7.21,7.21,0,0,1,5.382-4.479Z" transform="translate(-191.191 -82.074)" fill="#6e9296"/>
        <path id="Trazado_876359" data-name="Trazado 876359" d="M385.284,147.54l2.005,2.05-3.468,4.112L382,151.572l-1.162,1.965-2.532-3.488,1.619-1.605Z" transform="translate(-205.093 -79.988)" fill="#496163"/>
        <rect id="Rectángulo_402162" data-name="Rectángulo 402162" width="0.197" height="8.19" transform="matrix(0.987, -0.161, 0.161, 0.987, 186.022, 77.44)" fill="#1b2536"/>
        <rect id="Rectángulo_402163" data-name="Rectángulo 402163" width="0.196" height="9.631" transform="matrix(0.996, -0.086, 0.086, 0.996, 168.363, 77.432)" fill="#1b2536"/>
        <path id="Trazado_876360" data-name="Trazado 876360" d="M388.8,181.835l-2.01-23.551.2-.016,2.01,23.55Z" transform="translate(-209.693 -85.804)" fill="#1b2536"/>
        <path id="Trazado_876361" data-name="Trazado 876361" d="M390.1,188.728H377.7l-1.608-14.667h12.4Z" transform="translate(-203.895 -94.366)" fill="#fff"/>
        <path id="Trazado_876362" data-name="Trazado 876362" d="M387.914,172.426a.964.964,0,0,0-.919-.765.736.736,0,0,0-.752.765h-1.254l.112,1.024h4.179l-.112-1.024Z" transform="translate(-208.719 -93.065)" fill="#d4780e"/>
        <path id="Trazado_876363" data-name="Trazado 876363" d="M416.255,333.672H424.3l-.325-2.325h-8.262Z" transform="translate(-225.376 -179.637)" fill="#6b89bf"/>
        <path id="Trazado_876364" data-name="Trazado 876364" d="M351.1,331.347h-8.558l-.278,2.325h8.414Z" transform="translate(-185.554 -179.637)" fill="#6b89bf"/>
        <path id="Trazado_876365" data-name="Trazado 876365" d="M400.514,183.255l-9.475.572.239,1.887-9.063-1.588a5,5,0,0,0-3.853-2.769.151.151,0,0,0-.1.278A2.883,2.883,0,0,1,379.478,183l-2.417.092-1.151-.26a.3.3,0,0,0-.363.317l.248,2.776a.766.766,0,0,0,.625.684,13.342,13.342,0,0,0,2.153.173,5.7,5.7,0,0,0,3.211.609,37.167,37.167,0,0,0,12.4,5.572c7.067,1.624,7.565-3.727,6.33-9.7" transform="translate(-203.6 -98.32)" fill="#d9956a"/>
        <path id="Trazado_876366" data-name="Trazado 876366" d="M377.97,186.992a7.986,7.986,0,0,1-2.38-.407l.059-.167a7.722,7.722,0,0,0,2.623.389l.011.177q-.157.009-.312.009" transform="translate(-203.623 -101.065)" fill="#422424"/>
        <path id="Trazado_876367" data-name="Trazado 876367" d="M378.137,188.911a7.98,7.98,0,0,1-2.381-.408l.059-.167a7.655,7.655,0,0,0,2.623.389l.011.177q-.157.009-.312.009" transform="translate(-203.713 -102.105)" fill="#422424"/>
        <path id="Trazado_876368" data-name="Trazado 876368" d="M378.3,190.831a7.987,7.987,0,0,1-2.38-.407l.059-.167a7.737,7.737,0,0,0,2.623.389l.011.177q-.157.009-.312.009" transform="translate(-203.803 -103.146)" fill="#422424"/>
        <path id="Trazado_876369" data-name="Trazado 876369" d="M414.5,191.535l-4.622-.677.026-.175,4.622.677Z" transform="translate(-222.212 -103.378)" fill="#422424"/>
        <path id="Trazado_876370" data-name="Trazado 876370" d="M375.881,128.317s-.443,2.915-.849,4.982.443,3.911,3.063,3.8v1.661l2.067,2.1,3.506-2.879-.222-5.72s-1.845-.554-1.624-3.248Z" transform="translate(-203.269 -69.566)" fill="#d9956a"/>
        <path id="Trazado_876371" data-name="Trazado 876371" d="M382.6,145.651h0l0-.177h0a3.643,3.643,0,0,0,2.912-1.581l.15.093a3.825,3.825,0,0,1-3.064,1.666" transform="translate(-207.424 -78.01)" fill="#422424"/>
        <path id="Trazado_876372" data-name="Trazado 876372" d="M392.819,137.231a1.39,1.39,0,1,1,.031-2.192,1.574,1.574,0,0,1-.031,2.192" transform="translate(-211.576 -73.079)" fill="#d9956a"/>
        <path id="Trazado_876373" data-name="Trazado 876373" d="M391.373,137.522l-.175-.025a1.575,1.575,0,0,1,1.163-1.148.805.805,0,0,1,.909.333l-.148.1a.636.636,0,0,0-.722-.257,1.406,1.406,0,0,0-1.027,1" transform="translate(-212.085 -73.905)" fill="#422424"/>
        <path id="Trazado_876374" data-name="Trazado 876374" d="M393.079,138.058l-.71-.878.138-.111.71.878Z" transform="translate(-212.72 -74.311)" fill="#422424"/>
        <path id="Trazado_876375" data-name="Trazado 876375" d="M378.845,133.845l.274.133a1.842,1.842,0,0,0,.058-.3c.053-.5-.1-.9-.337-.907s-.477.392-.53.887.1.9.337.907c.15,0,.3-.15.4-.386Z" transform="translate(-205.092 -71.982)" fill="#28364f"/>
        <path id="Trazado_876376" data-name="Trazado 876376" d="M384.471,133.971l.274.133a1.838,1.838,0,0,0,.059-.3c.053-.495-.1-.9-.337-.907s-.477.392-.53.887.1.9.337.907c.149,0,.3-.15.4-.386Z" transform="translate(-208.143 -72.051)" fill="#28364f"/>
        <path id="Trazado_876377" data-name="Trazado 876377" d="M380.22,137.088l.543-2.1.172.044-.481,1.858,1.245-.1.016.177Z" transform="translate(-206.134 -73.183)" fill="#422424"/>
        <path id="Trazado_876378" data-name="Trazado 876378" d="M380.377,140.6a3.041,3.041,0,0,1-.708-.076l.046-.171a3.061,3.061,0,0,0,2.671-.685l.12.13a3.1,3.1,0,0,1-2.129.8" transform="translate(-205.835 -75.721)" fill="#422424"/>
        <path id="Trazado_876379" data-name="Trazado 876379" d="M376.9,124l8.863,1.119s1.07-4.162-3.73-4.808A4.364,4.364,0,0,0,376.9,124" transform="translate(-204.336 -65.194)" fill="#4a75c9"/>
        <path id="Trazado_876380" data-name="Trazado 876380" d="M382.219,120.34c-.061-.01-.118-.021-.181-.029A4.363,4.363,0,0,0,376.9,124l4.271.54Z" transform="translate(-204.336 -65.194)" fill="#6e9296"/>
        <path id="Trazado_876381" data-name="Trazado 876381" d="M376.377,127.572l-8.324-1.055a.782.782,0,0,1,.87-.663l7.615.958Z" transform="translate(-199.537 -68.228)" fill="#1b2536"/>
        <path id="Trazado_876382" data-name="Trazado 876382" d="M78.267,200.99a3.066,3.066,0,0,0-3.386-1,3.184,3.184,0,0,0-2.407,3.46c0,.913.111,2.214-1.467,2.3a2.014,2.014,0,0,0-1.965,2.131,2.613,2.613,0,0,1-1.107,2.463h8.11Z" transform="translate(-36.83 -108.347)" fill="#6e4c2e"/>
        <path id="Trazado_876383" data-name="Trazado 876383" d="M85.252,210.673l1.719-7.229a4.915,4.915,0,0,0-1.238.932,4.561,4.561,0,0,0-.482,6.3" transform="translate(-45.655 -110.296)" fill="#1b2536"/>
        <path id="Trazado_876384" data-name="Trazado 876384" d="M88.6,203.929a1.749,1.749,0,1,1-1.747-1.844,1.8,1.8,0,0,1,1.747,1.844" transform="translate(-46.137 -109.559)" fill="#1b2536"/>
        <path id="Trazado_876385" data-name="Trazado 876385" d="M95.26,204.625c-.775-2.989-5.591-5.453-8.635-2.325a4.654,4.654,0,0,0,.249,7.058Z" transform="translate(-46.138 -108.888)" fill="#6e4c2e"/>
        <path id="Trazado_876386" data-name="Trazado 876386" d="M63.73,310.585H60.5l6.947,18.621H37.779l6.947-18.621H41.495l-8.03,21.525h38.3Z" transform="translate(-18.142 -168.382)" fill="#496163"/>
        <path id="Trazado_876387" data-name="Trazado 876387" d="M100.883,330.621l-1.771,6.68,6.753,3.247.753.188a2.047,2.047,0,0,1,1.536,2.236H91.51a.68.68,0,0,1-.625-.95l2.064-4.8,1.734-6.605Z" transform="translate(-49.242 -179.244)" fill="#de6767"/>
        <path id="Trazado_876388" data-name="Trazado 876388" d="M93.773,338.2l-.824,3.137-2.064,4.8a.68.68,0,0,0,.625.95h16.643a2.047,2.047,0,0,0-1.536-2.236l-.753-.188-6.753-3.248.852-3.211Z" transform="translate(-49.242 -183.351)" fill="#1b2536"/>
        <path id="Trazado_876389" data-name="Trazado 876389" d="M125.321,285.425l9.769,19.917H123.65a10.008,10.008,0,0,1-1.845-5.019c0-2.509-3.572-4.18-4.115-6.2s-4.226-7.012-4.226-7.012l-2.219-5.093h8.611a6.085,6.085,0,0,1,5.464,3.406" transform="translate(-60.311 -152.895)" fill="#1b2536"/>
        <path id="Trazado_876390" data-name="Trazado 876390" d="M51.324,310.585H48.093l-2.458,6.589a8.162,8.162,0,0,0,2.69,1.45Z" transform="translate(-24.741 -168.381)" fill="#1b2536"/>
        <path id="Trazado_876391" data-name="Trazado 876391" d="M95.741,310.585H92.51L95.65,319h3.231Z" transform="translate(-50.154 -168.382)" fill="#1b2536"/>
        <path id="Trazado_876392" data-name="Trazado 876392" d="M46.64,246.4l12.912,34.61H37.27A7.761,7.761,0,0,1,30,275.967L20.7,251.03a3.427,3.427,0,0,1,3.211-4.625Z" transform="translate(-11.101 -133.587)" fill="#496163"/>
        <path id="Trazado_876393" data-name="Trazado 876393" d="M60.961,277.426,49.388,246.4H26.654a3.422,3.422,0,0,0-1.11.188,3.46,3.46,0,0,0,.2.848l9.3,24.937a7.761,7.761,0,0,0,7.271,5.048Z" transform="translate(-13.848 -133.587)" fill="#1b2536"/>
        <rect id="Rectángulo_402164" data-name="Rectángulo 402164" width="7.512" height="0.197" transform="translate(20.837 141.001)" fill="#1b2536"/>
        <path id="Trazado_876394" data-name="Trazado 876394" d="M67.384,277.059H77.4a5.364,5.364,0,0,1,5.1,7.012l-5.265,16.311H66.092a8,8,0,0,1,1.845-3.4c1.255-1.107-.362-2.657.336-4.355.619-1.506,1.328-1.909,1.583-3.321H50.8c-3.875,0-8.746-5.812-1.716-16.44H66.24l-.332,2.823Z" transform="translate(-24.673 -147.935)" fill="#4a6cab"/>
        <path id="Trazado_876395" data-name="Trazado 876395" d="M53.459,273.259s11.815.521,14.634,3.8h3.6L70.217,275.7l.332-2.823Z" transform="translate(-28.982 -147.936)" fill="#1b2536"/>
        <rect id="Rectángulo_402165" data-name="Rectángulo 402165" width="6.388" height="0.197" transform="translate(35.917 129.026)" fill="#1b2536"/>
        <path id="Trazado_876396" data-name="Trazado 876396" d="M79.965,299.121l-.189-.054,4.384-15.129a2.5,2.5,0,0,0-2.4-3.2H64.184a1.7,1.7,0,0,1-1.621-2.2l1.788-5.729.188.059-1.788,5.729a1.5,1.5,0,0,0,1.434,1.949H81.757a2.7,2.7,0,0,1,2.591,3.449Z" transform="translate(-33.876 -147.9)" fill="#1b2536"/>
        <rect id="Rectángulo_402166" data-name="Rectángulo 402166" width="6.171" height="0.197" transform="matrix(0.837, -0.548, 0.548, 0.837, 47.935, 135.761)" fill="#1b2536"/>
        <rect id="Rectángulo_402167" data-name="Rectángulo 402167" width="9.387" height="0.197" transform="matrix(0.682, -0.731, 0.731, 0.682, 47.213, 140.312)" fill="#1b2536"/>
        <rect id="Rectángulo_402168" data-name="Rectángulo 402168" width="8.99" height="0.197" transform="translate(26.526 134.65) rotate(-34.468)" fill="#1b2536"/>
        <path id="Trazado_876397" data-name="Trazado 876397" d="M56.322,285.758l-.058-.188,5.425-1.661.058.188Z" transform="translate(-30.503 -153.92)" fill="#1b2536"/>
        <path id="Trazado_876398" data-name="Trazado 876398" d="M71.213,248.451c-1.332-2.64-2.38-4.824-2.39-4.846l.182-.087c.01.021,1.057,2.2,2.389,4.842Z" transform="translate(-37.312 -132.022)"/>
        <path id="Trazado_876399" data-name="Trazado 876399" d="M78.98,237.24s-1.806-3.339-2.388-4.462c-.6-1.162-1.2-2.83-5.9-4.381s-11.016-1.993-13.2,3.792a134.918,134.918,0,0,0-4.041,13.534l-1.493,1.537a.79.79,0,0,0,.567,1.341H69.943Z" transform="translate(-28.045 -123.278)" fill="#ffd947"/>
        <path id="Trazado_876400" data-name="Trazado 876400" d="M102.561,248.9l2.988,5.582,10.519,4.568s5.751-.312,6.718,2.83H100.173l-4.948-10.314Z" transform="translate(-51.626 -134.941)" fill="#cc8151"/>
        <path id="Trazado_876401" data-name="Trazado 876401" d="M75.665,256.68c-.94-1.665-4.8-9.284-4.8-9.284l2.21,9.292a3.591,3.591,0,0,0,3.493,2.759h1.241a10.536,10.536,0,0,1-2.14-2.768" transform="translate(-38.417 -134.124)" fill="#1b2536"/>
        <rect id="Rectángulo_402169" data-name="Rectángulo 402169" width="6.864" height="0.197" transform="translate(26.543 123.282) rotate(-25.194)" fill="#1b2536"/>
        <path id="Trazado_876402" data-name="Trazado 876402" d="M95.776,245.737l-.186-.063a8.288,8.288,0,0,0,0-4.241l-.005-.02L96,238.266l.2.026-.413,3.107a8.3,8.3,0,0,1-.007,4.338" transform="translate(-51.82 -129.174)" fill="#1b2536"/>
        <path id="Trazado_876403" data-name="Trazado 876403" d="M87.867,211.436l1.259-2.823,5.051.222a3.37,3.37,0,0,1,0,1.661,14.982,14.982,0,0,0-.67,2.657c-.1,1.218.089,4.788-4.173,4.318l-1.82,3.238s-3.052.729-4.407-3.455Z" transform="translate(-45.055 -113.098)" fill="#d9956a"/>
        <path id="Trazado_876404" data-name="Trazado 876404" d="M90.132,215.3a1.86,1.86,0,1,1-1.467-1.972,1.745,1.745,0,0,1,1.467,1.972" transform="translate(-46.89 -115.631)" fill="#d9956a"/>
        <path id="Trazado_876405" data-name="Trazado 876405" d="M90.583,216.261c-.621-1.48-1.608-1.227-1.617-1.222l-.047-.171c.011,0,1.147-.3,1.827,1.325Z" transform="translate(-48.207 -116.477)" fill="#422424"/>
        <path id="Trazado_876406" data-name="Trazado 876406" d="M89.563,216.42l-.132-.118.712-.8.132.118Z" transform="translate(-48.484 -116.832)" fill="#422424"/>
        <path id="Trazado_876407" data-name="Trazado 876407" d="M95.612,218.616a1.03,1.03,0,1,1-1.031-1.031,1.031,1.031,0,0,1,1.031,1.031" transform="translate(-50.718 -117.962)" fill="#d65353"/>
        <path id="Trazado_876408" data-name="Trazado 876408" d="M92.975,226.233a4.266,4.266,0,0,1-2.565-1.368l.149-.1A4.17,4.17,0,0,0,93,226.058Z" transform="translate(-49.015 -121.857)" fill="#422424"/>
        <path id="Trazado_876409" data-name="Trazado 876409" d="M72.793,219.945l-.188-.071.885-2.371.188.071Z" transform="translate(-39.362 -117.918)" fill="#fff"/>
        <rect id="Rectángulo_402170" data-name="Rectángulo 402170" width="2.531" height="0.201" transform="translate(34.769 101.956) rotate(-69.46)" fill="#fff"/>
        <rect id="Rectángulo_402171" data-name="Rectángulo 402171" width="2.531" height="0.201" transform="translate(36.297 101.956) rotate(-69.46)" fill="#fff"/>
        <rect id="Rectángulo_402172" data-name="Rectángulo 402172" width="2.531" height="0.201" transform="translate(37.825 101.956) rotate(-69.46)" fill="#fff"/>
        <path id="Trazado_876410" data-name="Trazado 876410" d="M103.4,215.037l-.281.112a1.734,1.734,0,0,1,0-.288c.043-.478.26-.858.484-.85s.373.4.33.881-.26.858-.484.85c-.14-.005-.25-.161-.3-.394Z" transform="translate(-55.901 -116.024)" fill="#1b2536"/>
        <path id="Trazado_876411" data-name="Trazado 876411" d="M98.115,214.83l-.281.112a1.734,1.734,0,0,1,0-.288c.043-.478.26-.858.484-.85s.373.4.33.881-.26.858-.484.85c-.14-.005-.25-.161-.3-.394Z" transform="translate(-53.037 -115.912)" fill="#1b2536"/>
        <path id="Trazado_876412" data-name="Trazado 876412" d="M101.18,216.688h-.027l-.624-.051.016-.2.625.052a.1.1,0,0,0,.1-.05.11.11,0,0,0,0-.114,2.755,2.755,0,0,1-.144-1.649l.2.042a2.605,2.605,0,0,0,.123,1.508.312.312,0,0,1-.271.464" transform="translate(-54.501 -116.383)"/>
        <path id="Trazado_876413" data-name="Trazado 876413" d="M98.8,220.6a3.894,3.894,0,0,1-1.792-.448l.081-.157a3.494,3.494,0,0,0,2.492.327l.056.168a2.858,2.858,0,0,1-.837.11" transform="translate(-52.595 -119.27)" fill="#422424"/>
        <path id="Trazado_876414" data-name="Trazado 876414" d="M97.079,211.687c.17-.26,1.761.141,1.78.4s-2.015-.036-1.78-.4" transform="translate(-52.62 -114.719)" fill="#6e4c2e"/>
        <path id="Trazado_876415" data-name="Trazado 876415" d="M104.738,212.578c-.143-.276-1.766-.035-1.811.217s2.009.164,1.811-.217" transform="translate(-55.801 -115.181)" fill="#6e4c2e"/>
        <path id="Trazado_876416" data-name="Trazado 876416" d="M98.531,300.237l-.2-.015a8.481,8.481,0,0,0-.115-1.722c-.2-1.478-.418-3.155,1.262-4.4l.117.158c-1.588,1.178-1.383,2.723-1.184,4.217a8.637,8.637,0,0,1,.117,1.763" transform="translate(-53.176 -159.443)" fill="#1b2536"/>
        <path id="Trazado_876417" data-name="Trazado 876417" d="M90.885,355.132a.681.681,0,0,0,.625.95h16.643a2.033,2.033,0,0,0-.272-1.281H91.027Z" transform="translate(-49.242 -192.353)" fill="#6b89bf"/>
        <path id="Trazado_876418" data-name="Trazado 876418" d="M91.168,328.968a10.1,10.1,0,0,0-.706,1.827h11.145l.589-1.827Z" transform="translate(-49.043 -178.348)" fill="#6b89bf"/>
        <path id="Trazado_876419" data-name="Trazado 876419" d="M82.707,247.4l3.536,7.181,14.946,4.76s5.037-1.218,7.75,1.827H85.413c-2.768,0-5.48-.166-7.916-4.484-1.048-1.858-2.239-4.156-3.257-6.172Z" transform="translate(-40.249 -134.124)" fill="#d9956a"/>
        <path id="Trazado_876420" data-name="Trazado 876420" d="M88.141,238.455l-3.715-7.544.176-.087,3.716,7.544Z" transform="translate(-45.771 -125.14)" fill="#1b2536"/>
        <path id="Trazado_876421" data-name="Trazado 876421" d="M88.346,220.221a.744.744,0,1,1,.744-.744.745.745,0,0,1-.744.744m0-1.03a.286.286,0,1,0,.286.286.287.287,0,0,0-.286-.286" transform="translate(-47.493 -118.584)" fill="#943232"/>
        <path id="Trazado_876422" data-name="Trazado 876422" d="M152.924,317.516H111.605l12.461-33.4h28.858Z" transform="translate(-60.506 -154.031)" fill="#496163"/>
        <path id="Trazado_876423" data-name="Trazado 876423" d="M137.16,286.154l29.619,10.8V284.115H137.921Z" transform="translate(-74.36 -154.031)" fill="#1b2536"/>
        <path id="Trazado_876424" data-name="Trazado 876424" d="M146.88,281.1H102.274a1.817,1.817,0,1,1,0-3.635H146.88Z" transform="translate(-54.461 -150.426)" fill="#496163"/>
        <rect id="Rectángulo_402173" data-name="Rectángulo 402173" width="240.387" height="0.573" transform="translate(0 163.442)" fill="#28364f"/>
        <path id="Trazado_876425" data-name="Trazado 876425" d="M82.269,76.962a.721.721,0,0,1-.625-.362l-4.214-7.209a1.173,1.173,0,0,0-1.01-.58H63.252a2.292,2.292,0,0,1-2.289-2.289V47.211a2.292,2.292,0,0,1,2.289-2.289H91.345a2.292,2.292,0,0,1,2.289,2.289V66.522a2.292,2.292,0,0,1-2.289,2.289H84.173A1.171,1.171,0,0,0,83,69.981v6.251a.721.721,0,0,1-.539.7.736.736,0,0,1-.2.027M63.252,45.488a1.725,1.725,0,0,0-1.723,1.723V66.522a1.726,1.726,0,0,0,1.723,1.723H76.42a1.742,1.742,0,0,1,1.5.86l4.214,7.209a.163.163,0,0,0,.3-.082V69.981a1.739,1.739,0,0,1,1.737-1.737h7.171a1.726,1.726,0,0,0,1.723-1.723V47.211a1.725,1.725,0,0,0-1.723-1.723Z" transform="translate(-33.051 -24.354)" fill="#aee6e6"/>
        <path id="Trazado_876426" data-name="Trazado 876426" d="M94.449,60.756A6.4,6.4,0,1,1,86.317,56.8a6.4,6.4,0,0,1,8.132,3.959" transform="translate(-44.459 -30.602)" fill="#ffd947"/>
        <path id="Trazado_876427" data-name="Trazado 876427" d="M85.37,59.693a6.369,6.369,0,0,1,.773.994c3.59-.847,5.822-.933,6.3-.628-.271.785-4.064,3.254-11.129,5.693s-11.573,2.834-12.27,2.384c.184-.532,1.994-1.841,5.342-3.389a6.321,6.321,0,0,1,0-1.259C71,64.994,67.394,67,67.919,68.522c.939,2.722,13.246-1.491,13.77-1.672S94.5,62.394,93.558,59.673c-.525-1.521-4.6-.876-8.188.021" transform="translate(-36.794 -31.856)" fill="#7d6eb2"/>
        <path id="Trazado_876428" data-name="Trazado 876428" d="M204.726,217.986s5.093-12.732,20.7-21.92c0,0,3.986-10.384,9.691-14a2.361,2.361,0,0,1,3.42,2.89l-5.693,14.458h16.72Z" transform="translate(-110.991 -98.508)" fill="#62529b"/>
        <path id="Trazado_876429" data-name="Trazado 876429" d="M242.8,67.181a25.122,25.122,0,0,0-49.6,0c-1.255,9.078,1.107,14.318,5.609,21.7,4.925,8.074,6.79,19.189,6.79,19.189h24.8s1.865-11.115,6.79-19.189c4.5-7.381,6.864-12.621,5.609-21.7" transform="translate(-104.564 -24.978)" fill="#ffd947"/>
        <path id="Trazado_876430" data-name="Trazado 876430" d="M232.3,179.669a106.6,106.6,0,0,1-13.064-.652l2.477,17.067c.075.515,4.814.927,10.587.927s10.512-.413,10.587-.927l2.477-17.067a106.6,106.6,0,0,1-13.064.652" transform="translate(-118.856 -97.053)" fill="#1b2536"/>
        <path id="Trazado_876431" data-name="Trazado 876431" d="M246.523,208.5c0,2.66-3.023,4.816-6.752,4.816s-6.752-2.156-6.752-4.816,3.023-4.816,6.752-4.816,6.752,2.156,6.752,4.816" transform="translate(-126.33 -110.425)" fill="#1b2536"/>
        <path id="Trazado_876432" data-name="Trazado 876432" d="M243.942,110.126a.473.473,0,0,1-.067,0,.458.458,0,0,1-.387-.52l1.143-7.838a.418.418,0,0,1,0-.107q.077-.456.147-.935c.815-5.587.422-10.083-.409-11.044a.289.289,0,0,0-.192-.125c-.354,0-1.363,1.295-2.223,5.3a.458.458,0,0,1-.9-.061c-.3-3.917-1.107-5.236-1.43-5.236-.345,0-1.245,1.287-1.825,5.267a.458.458,0,0,1-.906,0c-.579-3.98-1.48-5.267-1.825-5.267-.322,0-1.13,1.319-1.429,5.236a.458.458,0,0,1-.9.061c-.86-4-1.868-5.3-2.222-5.3a.289.289,0,0,0-.192.125c-.831.962-1.224,5.457-.41,11.044q.07.479.147.935l1.148,7.946a.458.458,0,1,1-.907.131l-1.146-7.934c-.051-.3-.1-.618-.149-.945-.685-4.7-.691-10.255.623-11.775a1.151,1.151,0,0,1,.885-.442c1.093,0,1.93,1.789,2.5,3.638.337-1.965.949-3.638,2.053-3.638s1.809,1.671,2.278,3.63c.469-1.96,1.188-3.63,2.278-3.63s1.716,1.673,2.053,3.638c.573-1.848,1.41-3.638,2.5-3.638a1.152,1.152,0,0,1,.885.442c1.315,1.521,1.309,7.074.623,11.775-.042.293-.087.579-.134.858a.427.427,0,0,1,0,.087l-1.157,7.934a.458.458,0,0,1-.452.391" transform="translate(-123.906 -48.054)" fill="#fff"/>
        <g id="Grupo_1101309" data-name="Grupo 1101309" transform="translate(66.698)">
          <rect id="Rectángulo_402174" data-name="Rectángulo 402174" width="1.374" height="13.688" transform="matrix(0.94, -0.342, 0.342, 0.94, 29.905, 3.09)" fill="#ffa53d"/>
          <rect id="Rectángulo_402175" data-name="Rectángulo 402175" width="1.374" height="13.688" transform="matrix(0.766, -0.643, 0.643, 0.766, 15.785, 11.518)" fill="#ffa53d"/>
          <rect id="Rectángulo_402176" data-name="Rectángulo 402176" width="1.373" height="13.688" transform="matrix(0.5, -0.866, 0.866, 0.5, 5.399, 24.266)" fill="#ffa53d"/>
          <rect id="Rectángulo_402177" data-name="Rectángulo 402177" width="1.374" height="13.688" transform="translate(0 39.798) rotate(-80)" fill="#ffa53d"/>
          <rect id="Rectángulo_402178" data-name="Rectángulo 402178" width="1.374" height="13.688" transform="translate(46.056)" fill="#ffa53d"/>
          <rect id="Rectángulo_402179" data-name="Rectángulo 402179" width="13.688" height="1.374" transform="matrix(0.342, -0.94, 0.94, 0.342, 57.608, 15.483)" fill="#ffa53d"/>
          <rect id="Rectángulo_402180" data-name="Rectángulo 402180" width="13.688" height="1.374" transform="matrix(0.643, -0.766, 0.766, 0.643, 67.849, 21.119)" fill="#ffa53d"/>
          <rect id="Rectángulo_402181" data-name="Rectángulo 402181" width="13.688" height="1.373" transform="matrix(0.866, -0.5, 0.5, 0.866, 75.546, 29.92)" fill="#ffa53d"/>
          <rect id="Rectángulo_402182" data-name="Rectángulo 402182" width="13.688" height="1.374" transform="matrix(0.985, -0.174, 0.174, 0.985, 79.768, 40.823)" fill="#ffa53d"/>
        </g>
        <path id="Trazado_876433" data-name="Trazado 876433" d="M222.464,222.37V209.2l29.155-17.6a17.005,17.005,0,0,0,7.954-11.581l2.9-16.28a1.832,1.832,0,0,0-1.608-2.15c-1.711-.171-4.248.3-6.182,3.771l.266-8.593a1.838,1.838,0,0,0-2.064-1.88l-.619.077a6.969,6.969,0,0,0-6.1,6.915v14.44l-3.065-14.072a1.49,1.49,0,0,0-2.318-.9l-1.06.752a7.794,7.794,0,0,0-3.128,7.921l2.705,13.217-7.664-12.293a1.219,1.219,0,0,0-1.943-.166,5.836,5.836,0,0,0-.922,6.376l4,8.464-5.867,5.425s-28.452,2.325-28.452,18.931v12.4Z" transform="translate(-107.583 -83.96)" fill="#7d6eb2"/>
        <path id="Trazado_876434" data-name="Trazado 876434" d="M198.439,288.274l24.024,1.771v4.65H198.439Z" transform="translate(-107.582 -156.285)" fill="#62529b"/>
        <path id="Trazado_876435" data-name="Trazado 876435" d="M264.488,234.779a.172.172,0,0,1-.118-.3l10.955-10.348a4.047,4.047,0,0,0,.473-5.345l-.424-.572a.172.172,0,0,1,.277-.2l.423.572a4.391,4.391,0,0,1-.513,5.8l-10.955,10.348a.17.17,0,0,1-.118.047" transform="translate(-143.297 -118.155)" fill="#1b2536"/>
        <path id="Trazado_876436" data-name="Trazado 876436" d="M278.926,226.979a.172.172,0,0,1-.121-.294l8.323-8.305a11.394,11.394,0,0,0,3.111-10.455l-.378-1.789a.172.172,0,0,1,.337-.071l.377,1.789a11.734,11.734,0,0,1-3.2,10.769l-8.323,8.306a.171.171,0,0,1-.121.05" transform="translate(-151.124 -111.642)" fill="#1b2536"/>
        <path id="Trazado_876437" data-name="Trazado 876437" d="M293.665,210.086a.172.172,0,0,1-.11-.3l7.593-6.359a12.673,12.673,0,0,0,4.53-9.373l.362-13.59c0-.1.081-.192.177-.167a.171.171,0,0,1,.167.176l-.362,13.59a13.018,13.018,0,0,1-4.653,9.628l-7.594,6.359a.171.171,0,0,1-.11.04" transform="translate(-159.115 -97.742)" fill="#1b2536"/>
        <rect id="Rectángulo_402183" data-name="Rectángulo 402183" width="35.427" height="13.617" transform="translate(86.76 134.977)" fill="#d4fbfb"/>
        <rect id="Rectángulo_402184" data-name="Rectángulo 402184" width="38.557" height="17.999" transform="translate(85.195 145.729)" fill="#26aab7"/>
        <rect id="Rectángulo_402185" data-name="Rectángulo 402185" width="0.458" height="12.815" transform="translate(107.471 145.73)" fill="#bedce0"/>
        <path id="Trazado_876438" data-name="Trazado 876438" d="M242.18,326.251a2.111,2.111,0,1,1,2.111-2.111,2.114,2.114,0,0,1-2.111,2.111m0-3.764a1.653,1.653,0,1,0,1.653,1.653,1.655,1.655,0,0,0-1.653-1.653" transform="translate(-130.152 -174.586)" fill="#bedce0"/>
        <path id="Trazado_876439" data-name="Trazado 876439" d="M242.18,340.948a2.111,2.111,0,1,1,2.111-2.111,2.114,2.114,0,0,1-2.111,2.111m0-3.764a1.653,1.653,0,1,0,1.653,1.653,1.655,1.655,0,0,0-1.653-1.653" transform="translate(-130.152 -182.554)" fill="#bedce0"/>
        <path id="Trazado_876440" data-name="Trazado 876440" d="M113.821,218.053l-7.791,20.883h28.858l7.791-20.883Z" transform="translate(-57.483 -118.216)" fill="#bedce0"/>
        <rect id="Rectángulo_402186" data-name="Rectángulo 402186" width="22.289" height="0.344" transform="translate(49.874 120.664) rotate(-69.587)" fill="#4a75c9"/>
        <path id="Trazado_876441" data-name="Trazado 876441" d="M143.527,237.5a2.977,2.977,0,0,1-2.431-1.1,3.17,3.17,0,0,1-.462-2.8,5.307,5.307,0,0,1,4.821-3.819,2.976,2.976,0,0,1,2.43,1.1,3.171,3.171,0,0,1,.462,2.8,5.307,5.307,0,0,1-4.821,3.819m1.929-7.381a4.944,4.944,0,0,0-4.488,3.562,2.835,2.835,0,0,0,.4,2.5,2.641,2.641,0,0,0,2.158.971,4.944,4.944,0,0,0,4.488-3.561,2.836,2.836,0,0,0-.4-2.5,2.642,2.642,0,0,0-2.158-.971" transform="translate(-76.173 -124.573)" fill="#fff"/>
        <path id="Trazado_876442" data-name="Trazado 876442" d="M135.835,250.581l.607,6.106h14.605l-6.774-6.106Z" transform="translate(-73.642 -135.85)" fill="#4a75c9"/>
        <path id="Trazado_876443" data-name="Trazado 876443" d="M144.273,250.581l4.556,12.212h-8.438l-4.556-12.212Z" transform="translate(-73.642 -135.85)" fill="#bedce0"/>
        <rect id="Rectángulo_402187" data-name="Rectángulo 402187" width="0.344" height="13.178" transform="translate(62.939 114.791) rotate(-20.918)" fill="#4a75c9"/>
        <path id="Trazado_876444" data-name="Trazado 876444" d="M389.067,66.251c0-5.78-5.648-10.465-12.615-10.465s-12.615,4.685-12.615,10.465c0,4.515,3.448,8.363,8.279,9.83a4.461,4.461,0,0,1,2.721,2.416l1.616,3.481,1.616-3.481a4.462,4.462,0,0,1,2.721-2.416c4.831-1.467,8.279-5.315,8.279-9.83" transform="translate(-197.251 -30.244)" fill="#7d6eb2"/>
        <path id="Trazado_876445" data-name="Trazado 876445" d="M378.563,77a1.143,1.143,0,1,1-1.144-1.144A1.144,1.144,0,0,1,378.563,77" transform="translate(-203.995 -41.123)" fill="#fff"/>
        <path id="Trazado_876446" data-name="Trazado 876446" d="M386.974,77a1.144,1.144,0,1,1-1.144-1.144A1.144,1.144,0,0,1,386.974,77" transform="translate(-208.555 -41.123)" fill="#fff"/>
        <path id="Trazado_876447" data-name="Trazado 876447" d="M395.384,77a1.143,1.143,0,1,1-1.144-1.144A1.144,1.144,0,0,1,395.384,77" transform="translate(-213.115 -41.123)" fill="#fff"/>
        <path id="Trazado_876448" data-name="Trazado 876448" d="M403.795,77a1.143,1.143,0,1,1-1.144-1.144A1.144,1.144,0,0,1,403.795,77" transform="translate(-217.675 -41.123)" fill="#fff"/>
      </g>
    </g>
  </g>
</svg>
