<svg xmlns="http://www.w3.org/2000/svg" xmlns:xlink="http://www.w3.org/1999/xlink" width="400" height="241" viewBox="0 0 400 241">
  <defs>
    <clipPath id="clip-path">
      <rect id="Rectángulo_402366" data-name="Rectángulo 402366" width="210.664" height="241" fill="none"/>
    </clipPath>
    <clipPath id="clip-path-3">
      <rect id="Rectángulo_402345" data-name="Rectángulo 402345" width="35.89" height="59.036" fill="none"/>
    </clipPath>
    <clipPath id="clip-path-6">
      <rect id="Rectángulo_402353" data-name="Rectángulo 402353" width="4.028" height="4.8" fill="none"/>
    </clipPath>
    <clipPath id="clip-path-7">
      <rect id="Rectángulo_402356" data-name="Rectángulo 402356" width="3.583" height="0.517" fill="none"/>
    </clipPath>
    <clipPath id="clip-path-8">
      <rect id="Rectángulo_402359" data-name="Rectángulo 402359" width="7.258" height="0.516" fill="none"/>
    </clipPath>
    <clipPath id="clip-path-9">
      <rect id="Rectángulo_402362" data-name="Rectángulo 402362" width="7.258" height="0.517" fill="none"/>
    </clipPath>
  </defs>
  <g id="Grupo_1101513" data-name="Grupo 1101513" transform="translate(5305 -2568)">
    <path id="Rectángulo_402235" data-name="Rectángulo 402235" d="M20,0H380a20,20,0,0,1,20,20V126a0,0,0,0,1,0,0H0a0,0,0,0,1,0,0V20A20,20,0,0,1,20,0Z" transform="translate(-5305 2683)" fill="#aee6e6"/>
    <g id="Grupo_1101496" data-name="Grupo 1101496" transform="translate(-5198.643 2568)">
      <g id="Grupo_1101495" data-name="Grupo 1101495" clip-path="url(#clip-path)">
        <g id="Grupo_1101478" data-name="Grupo 1101478">
          <g id="Grupo_1101477" data-name="Grupo 1101477" clip-path="url(#clip-path)">
            <path id="Trazado_878239" data-name="Trazado 878239" d="M276.625,355.088H217.209q-1.672-4.959-3.157-9.706c-1.22-3.91-2.235-7.683-3.026-11.263-.187-.847-.361-1.687-.523-2.515-.318-1.625-.591-3.206-.809-4.738-1.108-7.689-.946-14.077.629-18.41,1.4-3.873,3.935-6.1,7.708-6.145.149-.006.305-.006.454,0,.305.006.61.031.928.069,6.052.7,14.862,6.363,26.8,18.765q4.287,4.464,9.127,10.111,1.606,1.877,3.325,3.848c5.367,6.176,11.5,12.981,17.962,19.986" transform="translate(-78.868 -114.088)" fill="#ad6359"/>
            <path id="Trazado_878240" data-name="Trazado 878240" d="M283.829,348.845H205.187c-1.519-3.891-2.932-7.633-4.209-11.176q-1.429-3.969-2.553-7.646c-.305-1-.6-1.98-.865-2.945h-.006q-.822-2.886-1.444-5.579c-.268-1.133-.511-2.235-.722-3.318-.205-1.015-.392-2.011-.554-2.982-.106-.647-.205-1.283-.293-1.911s-.168-1.245-.243-1.849c-.112-.959-.205-1.887-.268-2.8-.037-.486-.068-.965-.093-1.432,0-.081-.006-.162-.012-.243-.293-6.438.6-11.468,2.528-15a11.182,11.182,0,0,1,5.958-5.41,3.988,3.988,0,0,1,.454-.168c2.964-.977,6.587-.809,10.765.56h.006c5.373,1.762,11.655,5.5,18.622,11.319,14.276,11.923,33.378,31.23,51.571,50.581" transform="translate(-73.165 -107.845)" fill="#7d6eb2"/>
            <path id="Trazado_878241" data-name="Trazado 878241" d="M291.768,340.359a39.97,39.97,0,0,0,4.694,12.969c1.631,2.8,4.744,6.637,8.306,4.3a5.14,5.14,0,0,0,1.743-2.011c-4.906-5.193-9.875-10.341-14.743-15.254m-17.2,20.808h7.365c-2.49-1.55-5.336-2.21-7.365,0m7.11-30.875c-4.327-4.246-8.555-8.268-12.527-11.879a8.391,8.391,0,0,0-1.015,5.853,22.407,22.407,0,0,0,.361,2.957,33.529,33.529,0,0,0,3.182,9.258c1.227,2.279,3.437,6.17,6.544,6.12a3.321,3.321,0,0,0,2.727-1.42,9.025,9.025,0,0,0,1.42-4.825,31.923,31.923,0,0,0-.691-6.064" transform="translate(-101.152 -120.166)" fill="#263238"/>
            <g id="Grupo_1101476" data-name="Grupo 1101476" transform="translate(120.707 181.964)" opacity="0.1">
              <g id="Grupo_1101475" data-name="Grupo 1101475">
                <g id="Grupo_1101474" data-name="Grupo 1101474" clip-path="url(#clip-path-3)">
                  <path id="Trazado_878242" data-name="Trazado 878242" d="M229.763,351.3H205.2c-1.525-3.891-2.939-7.633-4.209-11.176q-1.429-3.969-2.559-7.646-.458-1.494-.872-2.945-.822-2.886-1.444-5.572l-.006-.006c-.268-1.133-.511-2.235-.722-3.319-.205-1.015-.392-2.011-.554-2.982-.106-.647-.205-1.283-.293-1.911s-.168-1.245-.243-1.849c-1.015-8.617-.187-15.148,2.179-19.463a13.3,13.3,0,0,1,1.457-2.167l1.83,3.393,4.856,9.009,6.394,11.861,2.316,4.3.6,1.1,9.09,16.86,4.788,8.885Z" transform="translate(-193.873 -292.262)"/>
                </g>
              </g>
            </g>
            <path id="Trazado_878243" data-name="Trazado 878243" d="M224.937,344.965H185.1c0-6.606.006-13,.012-19.033.006-1.177.006-2.341.006-3.493.006-2.173.012-4.3.019-6.357.037-14.955.106-26.741.137-32.575V283.5c.019-2.584.031-4,.031-4l-.361-1.357-.71-2.659a45.814,45.814,0,0,1,14.992,7.023q1.251.878,2.515,1.905a42.03,42.03,0,0,1,5.921,5.865c.187.224.367.442.548.672.318.4.629.816.934,1.239.349.467.685.946,1.009,1.444v.006a40.344,40.344,0,0,1,3.966,7.59c2.609,6.606,6.164,21.754,10.049,40.108q.374,1.793.766,3.63" transform="translate(-69.53 -103.965)" fill="#62529b"/>
            <path id="Trazado_878244" data-name="Trazado 878244" d="M167.165,345.817H39.767c15.335-25.371,29.91-46.9,37.674-54.721a31.443,31.443,0,0,1,3.312-2.908,40.813,40.813,0,0,1,7.683-4.663,53.767,53.767,0,0,1,8.343-3.113c1.569-.454,3.169-.841,4.788-1.177a76.98,76.98,0,0,1,23.093-1.083h.006c1.967.205,3.891.486,5.759.841a50.882,50.882,0,0,1,13.828,4.533,30.255,30.255,0,0,1,2.97,1.737,20.5,20.5,0,0,1,5.317,4.944c.2.28.4.585.6.921.131.218.261.442.392.679q.318.579.635,1.233.756,1.569,1.525,3.586v.006c3.038,8.007,6.158,21.106,9.165,36.672.772,4.022,1.544,8.206,2.3,12.514" transform="translate(-15.008 -104.817)" fill="#ebebeb"/>
            <path id="Trazado_878245" data-name="Trazado 878245" d="M124.21,301.008a144.764,144.764,0,0,0,14.121,16.114A65.242,65.242,0,0,0,155.2,329.436c6.138,3.018,13.153,4.359,19.782,2.84,6.6-1.453,12.237-6.611,14.936-13.3a20.778,20.778,0,0,1-14.18,15.967c-7.334,2.318-15.375.935-22.074-2.307a56.72,56.72,0,0,1-17.322-13.6,79.738,79.738,0,0,1-12.13-18.024" transform="translate(-46.876 -113.598)" fill="#c7c7c7"/>
            <path id="Trazado_878246" data-name="Trazado 878246" d="M94,345.912H26.657c12.932-25.029,24.07-45.793,28.4-51.166a.006.006,0,0,0,.006-.006,9.206,9.206,0,0,1,.7-.8c5.211-5.174,12.739-8.872,19.556-11.394a102.858,102.858,0,0,1,16.412-4.551s.031.878.093,2.515c.118,3.318.355,9.738.641,18.193q.047,1.289.093,2.634c.417,12.141.94,27.918,1.438,44.579" transform="translate(-10.06 -104.912)" fill="#7d6eb2"/>
            <path id="Trazado_878247" data-name="Trazado 878247" d="M112.977,329.812v-.006c-.044-.106-.093-.205-.143-.305-.062-.125-.131-.243-.2-.355,0-.006-.006-.006-.012-.012a3.985,3.985,0,0,0-.243-.324V328.8a1.75,1.75,0,0,0-.181-.193c-.093-.093-.187-.174-.28-.255h-.006a3.1,3.1,0,0,0-.293-.205,1.681,1.681,0,0,0-.205-.112,2.631,2.631,0,0,0-.641-.23c-.037-.012-.081-.019-.118-.031h-.006a4.382,4.382,0,0,0-2.048.162,14.239,14.239,0,0,0-4.122,2.235,33.625,33.625,0,0,0-4.358,3.842c-.461.479-.909.978-1.345,1.488-.293.342-.573.691-.853,1.046s-.548.71-.816,1.077a26.762,26.762,0,0,0-4.514,9.6c-.168.386-.33.766-.473,1.152q-.1.252-.187.5c-.05.143-.1.286-.143.43-.062.181-.112.361-.162.535-.616,2.167-.641,4.128.423,5.379a2.729,2.729,0,0,0,.187.2,3.447,3.447,0,0,0,.423.355h.006a4.273,4.273,0,0,0,1.432.641,1.157,1.157,0,0,0,.212.037,1.189,1.189,0,0,0,.205.037,4.364,4.364,0,0,0,1.874-.224c.174-.056.355-.125.535-.2l.006-.006a5.828,5.828,0,0,0,.635-.3c.2-.1.4-.212.591-.33.174-.106.342-.212.517-.33a20.883,20.883,0,0,0,2.111-1.65c.093-.081.181-.162.268-.243s.156-.137.237-.218c.168-.149.33-.3.492-.454.075-.069.149-.137.224-.212.268-.249.517-.5.753-.722.2-.2.386-.38.554-.542.324-.311.648-.635.965-.965.243-.249.479-.5.716-.76.274-.293.542-.6.809-.9s.529-.616.784-.928v-.006a32.836,32.836,0,0,0,4.9-8.057c.971-2.353,2.627-6.842,1.488-9.638" transform="translate(-34.418 -123.678)" fill="#263238"/>
            <path id="Trazado_878248" data-name="Trazado 878248" d="M77.3,313.4v.006c-1.662,7.154-5.541,15.733-11.717,25.035-.7,1.052-1.407,2.123-2.123,3.225l-.006.006c-1.774,2.727-3.617,5.6-5.5,8.6H2.507c17.614-17.514,45.09-59.64,66.3-60.7,9.783-.491,11.337,11.556,8.492,23.827" transform="translate(-0.946 -109.277)" fill="#ad6359"/>
            <path id="Trazado_878249" data-name="Trazado 878249" d="M80.539,301.109a50.788,50.788,0,0,1-1.98,12.819v.006q-.392,1.457-.865,2.976c-.125.392-.249.791-.38,1.189-.2.6-.4,1.22-.623,1.849-.162.455-.324.915-.492,1.376-.143.4-.293.809-.448,1.214s-.305.822-.467,1.239c-.629,1.662-1.3,3.387-2.017,5.155-.174.442-.355.89-.542,1.339s-.367.9-.554,1.357v.006c-2.21,5.361-4.744,11.138-7.5,17.165H0c.112-.112,19.475-25.529,34.7-41.725,14.01-14.907,30.228-24.431,38.731-20.567,4.284,1.947,6.73,6.307,7.073,12.757v.006c.031.591.05,1.2.037,1.837" transform="translate(0 -107.801)" fill="#7d6eb2"/>
            <path id="Trazado_878250" data-name="Trazado 878250" d="M112.834,329.5c-.062-.125-.131-.243-.2-.355,0-.006-.006-.006-.012-.012a3.985,3.985,0,0,0-.243-.324V328.8a1.75,1.75,0,0,0-.181-.193,2.164,2.164,0,0,0-.28-.255h-.006a3.1,3.1,0,0,0-.293-.205,1.681,1.681,0,0,0-.205-.112,2.631,2.631,0,0,0-.641-.23V327.8a1.018,1.018,0,0,0-.118-.025h-.006a4.382,4.382,0,0,0-2.048.162,14.239,14.239,0,0,0-4.122,2.235,33.625,33.625,0,0,0-4.358,3.842c-.461.479-.909.978-1.345,1.488-.293.342-.573.691-.853,1.046s-.548.71-.816,1.077a26.762,26.762,0,0,0-4.514,9.6c-.168.386-.33.766-.473,1.152q-.1.252-.187.5c-.05.143-.1.286-.143.43-.062.181-.112.361-.162.535-.616,2.167-.641,4.128.423,5.379a2.729,2.729,0,0,0,.187.2,3.447,3.447,0,0,0,.423.355h.006a4.372,4.372,0,0,0,1.438.635c.068.012.137.031.205.044a1.189,1.189,0,0,0,.205.037,4.364,4.364,0,0,0,1.874-.224c.174-.056.355-.125.535-.2l.006-.006a5.828,5.828,0,0,0,.635-.3c.2-.1.4-.212.591-.33.174-.106.342-.212.517-.33a20.883,20.883,0,0,0,2.111-1.65c.093-.081.181-.162.268-.243s.156-.137.237-.218c.168-.149.33-.3.492-.454.075-.069.149-.137.224-.212.268-.249.517-.5.753-.722.2-.2.386-.38.554-.542.324-.311.648-.635.965-.965.243-.249.479-.5.716-.76.274-.293.542-.6.809-.9s.529-.616.784-.928v-.006c.187-.455.374-.909.554-1.357s.367-.9.542-1.339c.716-1.768,1.388-3.493,2.017-5.155.162-.417.318-.828.467-1.239s.305-.816.448-1.214c.168-.461.33-.921.492-1.376.218-.629.423-1.245.623-1.849.131-.4.255-.8.38-1.189q.476-1.522.865-2.976v-.006c-.044-.106-.093-.205-.143-.305" transform="translate(-34.418 -123.678)" fill="#263238"/>
            <path id="Trazado_878251" data-name="Trazado 878251" d="M106.255,384.841c-.224.43-.448.865-.679,1.3H105c.305-.492.616-.977.928-1.469a.187.187,0,0,1,.33.174" transform="translate(-39.625 -145.136)" fill="#263238"/>
            <path id="Trazado_878252" data-name="Trazado 878252" d="M208.668,95.584c-.056-.025-.112.056-.062.087,5.971,4.022,9.545,11.344,6.774,18.491-2.372,6.108-7.558,8.791-13.305,9.426,4.937-2.422,9.2-6.351,10.9-11.643A14.9,14.9,0,0,0,208.419,95.8c4.551-5.317,7.583-12.514,5.946-19.4A14.831,14.831,0,0,0,202.348,65c3.412-6.027,3.144-13.859-1.214-19.22a17.519,17.519,0,0,0-17.308-5.709A13.986,13.986,0,0,0,170.8,20.049a9.4,9.4,0,0,0-3.362-9.769c-3.343-2.727-7.9-3.045-12.153-2.584A11.181,11.181,0,0,0,147.266.244a10.832,10.832,0,0,0-12.172,6.444C129.123,3.3,122.15.468,115.109,2c-5.8,1.264-11.182,5.56-12.309,11.462a21.407,21.407,0,0,0-28.31,13.8,15.164,15.164,0,0,0-13.423,6.189A21.881,21.881,0,0,0,56.7,42.986a11.325,11.325,0,0,0-10.665,7.347c-1.637,4.315-.591,8.455,1.469,12.191a8.329,8.329,0,0,1-1.071,3.536,18.785,18.785,0,0,0-.43,17.875c-5.653,5.28-5.18,14.88.928,19.313a14.2,14.2,0,0,0,5.747,19.407,20.892,20.892,0,0,0,.193,17.576c2.061,4.2,6.214,7.951,11.095,7.49-1.2,3.543,1.669,7.123,5.049,8.38a18.3,18.3,0,0,0,4,.909c1.613.212,3.748.05,5.193.828,1.513.791,2.16,2.646,3.119,3.941a16.308,16.308,0,0,0,2.366,2.54,19.465,19.465,0,0,0,19.743,2.957,18.012,18.012,0,0,0,4.514-2.609c3.337,4.445,9.2,5.317,14.6,4.427.641-.106,1.276-.237,1.9-.386A33.669,33.669,0,0,0,130,166.7a17.127,17.127,0,0,1,1.874-.716,6.877,6.877,0,0,1,3.188-.255c1.133.187,2.2.623,3.337.816,3.848.648,7.154-1.2,10.2-3.362a16.465,16.465,0,0,0,9.246,5.909h.006c9.875,2.185,20.976-5.485,23.08-16.8a19.254,19.254,0,0,0,16.592-6.562l.006-.006a17.207,17.207,0,0,0,1.2-1.613,18.138,18.138,0,0,0,.99-17.875v-.006c.006-.006.006-.006,0-.012s.006-.006,0-.012c-.181-.374-.374-.741-.585-1.1.187.006.38.012.573.006,7.16.093,14.164-3.132,16.9-10.46,2.9-7.783-.953-15.4-7.938-19.064M56.577,44.107s-1.463.685-2.136,1.1a15.486,15.486,0,0,0-7.017,10.752,15.554,15.554,0,0,0,.006,3.916c.019.174.019.318.031.486a13.731,13.731,0,0,1-.679-7.583,11.932,11.932,0,0,1,9.843-9.264c-.037.361-.05.6-.05.6M147.067,1.19c3.748.89,5.784,3.524,6.842,6.681-.025,0-.05.006-.075.006a11.894,11.894,0,0,0-5.386-3.954A11.412,11.412,0,0,0,136,7.192c-.106-.062-.218-.118-.324-.181,2.571-4.059,6.033-7.091,11.394-5.821m11.026,166.7h-.006a18.822,18.822,0,0,1-8.866-5.149c.044-.031.093-.062.137-.093a19.727,19.727,0,0,0,9.109,3.487v.006a20.835,20.835,0,0,0,18.728-7.882c-4.657,6.911-11.717,11.319-19.1,9.632" transform="translate(-15.867 0)" fill="#263238"/>
            <path id="Trazado_878253" data-name="Trazado 878253" d="M179.958,293.388c-13.3,2.369-35.167-10.434-43.157-27.194-.54-1.152,6.586-45.486,7.086-54.417l55.258,16.746s-6.556,18.414-7.332,33.991a20.009,20.009,0,0,0,.181,3.688c.008.169.046.375.047.611.743,7.026.775,24.275-12.082,26.574" transform="translate(-51.616 -79.923)" fill="#ad6359"/>
            <path id="Trazado_878254" data-name="Trazado 878254" d="M198.556,266.9c0,.157.044.352.045.588a35.686,35.686,0,0,1-5.765.017c-32.379-2.546-37.791-42.65-38.646-53.9L168,217.788l37.721,11.434s-6.565,18.418-7.314,33.994a19.061,19.061,0,0,0,.154,3.685" transform="translate(-58.19 -80.614)" fill="#263238"/>
            <path id="Trazado_878255" data-name="Trazado 878255" d="M132.991,91.036c-4.8,20.69,9.914,78.5,25.224,90.571,22.192,17.493,56.53,16.959,70.888-9.262,13.918-25.416-6.588-100.422-23.5-111.182-24.912-15.848-65.525-.69-72.611,29.873" transform="translate(-49.842 -20.681)" fill="#ad6359"/>
            <path id="Trazado_878256" data-name="Trazado 878256" d="M224.268,162.388c-.068-.14-.26.261-.214.42,1.1,3.868,1.7,8.482-1.506,10.655-.1.067-.039.26.087.21,4.153-1.679,3.291-7.8,1.633-11.285" transform="translate(-83.969 -61.273)" fill="#263238"/>
            <path id="Trazado_878257" data-name="Trazado 878257" d="M215.874,157.232c-6.389,1.088-3.745,13.786,2.175,12.78,5.826-.991,3.182-13.691-2.175-12.78" transform="translate(-80.073 -59.32)" fill="#263238"/>
            <path id="Trazado_878258" data-name="Trazado 878258" d="M263.185,154.562c0-.157.347.121.375.283.7,3.96,2.156,8.378,5.986,8.944.119.017.149.218.014.226-4.47.293-6.352-5.592-6.375-9.453" transform="translate(-99.324 -58.313)" fill="#263238"/>
            <path id="Trazado_878259" data-name="Trazado 878259" d="M265.842,146.71c6.227-1.8,9.364,10.789,3.595,12.453-5.678,1.64-8.815-10.947-3.595-12.453" transform="translate(-99.323 -55.301)" fill="#263238"/>
            <path id="Trazado_878260" data-name="Trazado 878260" d="M205.614,141.793a50.639,50.639,0,0,1,5.137-1.409c1.977-.519,3.5-1.136,5.513-.438a2.744,2.744,0,0,1,1.53,2.98c-.618,2.525-2.881,3.762-5.235,4.483a9.991,9.991,0,0,1-7.194-.272c-2.395-.973-2-4.5.25-5.344" transform="translate(-76.89 -52.697)" fill="#263238"/>
            <path id="Trazado_878261" data-name="Trazado 878261" d="M265.689,126.306a50.369,50.369,0,0,1-5.316-.326c-2.039-.148-3.676-.055-5.358-1.367a2.742,2.742,0,0,1-.485-3.314c1.4-2.189,3.94-2.628,6.4-2.551a9.989,9.989,0,0,1,6.722,2.58c1.952,1.695.437,4.9-1.964,4.978" transform="translate(-95.926 -44.812)" fill="#263238"/>
            <path id="Trazado_878262" data-name="Trazado 878262" d="M244.248,222.691c.87,1.027,1.7,2.408,3.144,2.667a10.613,10.613,0,0,0,4.395-.6.141.141,0,0,1,.154.222,5.411,5.411,0,0,1-5.283,1.691c-1.781-.488-2.528-2.138-2.81-3.837-.039-.237.274-.293.4-.144" transform="translate(-92.025 -84.011)" fill="#263238"/>
            <path id="Trazado_878263" data-name="Trazado 878263" d="M234.161,174.637a13.4,13.4,0,0,0,9.845,4.313,16.852,16.852,0,0,0,4.785-.623,4.8,4.8,0,0,0,.888-.265c.276-.085.526-.163.826-.281a.979.979,0,0,0,.624-1l-.006-.028a1.846,1.846,0,0,0-.107-.39l0-.029-.067-.339c-.446-3-1.539-7.484-1.539-7.484,1.187.354,7.187,1.87,6.824.326-3.054-12.766-6.45-26.965-12.184-39.023a.365.365,0,0,0-.69.224c2.449,12.386,7.06,24.258,9.72,36.661-1.894-.361-5.007-1.1-6.563-.789-.4.2,2.266,8.633,2.358,10a.48.48,0,0,1,0,.146c-4.9,1.527-8.945.682-14.407-1.823-.327-.17-.588.146-.3.412" transform="translate(-88.324 -48.907)" fill="#263238"/>
            <path id="Trazado_878264" data-name="Trazado 878264" d="M217.062,81.086c-2.478-4.937-5.049-5.716-5.049-5.716s-.766-6.12-7.3-13.224c-6.842-7.434-13.249-7.7-13.249-7.7s-3.6-3.125-10.889-4.844a40.994,40.994,0,0,0-7.409-1.052c-2.814-.149-11.157.816-13.6,2.185-2.808,1.588-6.164.436-9.252.784a20.582,20.582,0,0,0-8.156,2.7,22.209,22.209,0,0,0-5.622,4.626,34.444,34.444,0,0,0-2.565,3.536,9.8,9.8,0,0,1-4.881,3.785,17.771,17.771,0,0,0-9.569,11,22.818,22.818,0,0,0-.89,9.32c.361,3.922-3.5,6.295-4.582,9.856a13.346,13.346,0,0,0-.5,2.335,14.838,14.838,0,0,0,5.348,13.305c-4.626,4.333-5.454,12.757-1.88,18.828a12.9,12.9,0,0,0,2.789,3.318c.112.093.224.187.336.274a13.63,13.63,0,0,0,2.055,1.332,20.94,20.94,0,0,0,6.936,2.061,12,12,0,0,0,2.584.068c.274.006.542.006.809-.006a11.4,11.4,0,0,0,1.669-.181,11.643,11.643,0,0,0,2.235-.654,13.638,13.638,0,0,0,5.28-3.835,15.359,15.359,0,0,0,2.385-3.761,15.619,15.619,0,0,0-.075-12.932v-.087s10.913,2.661,15.632-5.358c2.889-4.912,3.219-11.176,2.484-17.147,12.427,5.727,27.413-3.5,27.519-18.517,3.742,3.163,11.877,6.971,16.036,5.047,3.524,12.683,10.277,12.427,12.854,12.259a.845.845,0,0,0,.181-.019c.324-.05,1.189-5.927-1.662-11.593m-73.55,46.149a15.125,15.125,0,0,1-3.213,5.292,6.231,6.231,0,0,1-.442.467c.131-.174.256-.349.374-.529a15.276,15.276,0,0,0,1.526-2.833,18.053,18.053,0,0,0,.809-2.4,36.9,36.9,0,0,0,.934-9.943,14.865,14.865,0,0,1,.012,9.943m31.566-34.247c6.351-2.708,11.307-8.791,13.037-16.885-.9,9.3-6.158,14.718-13.037,16.885" transform="translate(-42.809 -18.318)" fill="#263238"/>
            <path id="Trazado_878265" data-name="Trazado 878265" d="M119.213,107.086c8.261,7.146,21.548,6.761,31.761.448,6.7-4.14,10.178-13.5,16.508-21.578,10.423-13.3,35.073-16.413,28.469-37.005-5.871-18.307-36.408-20.479-62.721-5.041-23.246,13.638-32.579,47.12-14.017,63.176" transform="translate(-41.27 -12.692)" fill="#fff"/>
            <path id="Trazado_878266" data-name="Trazado 878266" d="M225.275,162.442a14.758,14.758,0,0,0-.479-1.488v-.006c-.137-.361-.28-.722-.442-1.071a18.279,18.279,0,0,0-23.068-9.644c-.417.156-.822.324-1.22.511a18.3,18.3,0,0,0-10.3,13.019,18.51,18.51,0,0,0-.324,2.428,18.284,18.284,0,0,0,24.637,18.274,17.774,17.774,0,0,0,3.767-1.936c.249-.162.492-.336.735-.517a18.308,18.308,0,0,0,6.693-19.569m-12.054,19.73a15.829,15.829,0,1,1,9.289-20.365,15.845,15.845,0,0,1-9.289,20.365" transform="translate(-71.481 -56.261)" fill="#ffc727"/>
            <path id="Trazado_878267" data-name="Trazado 878267" d="M287.679,149.295a21.776,21.776,0,0,0-6.612-11.587,14.135,14.135,0,0,0-5.329-3.013,10.636,10.636,0,0,0-5.392-.174c-3.617.828-6.556,3.505-8.268,7.534a19.777,19.777,0,0,0-1.507,6.842v.006a22.6,22.6,0,0,0,.012,2.428,24.191,24.191,0,0,0,.336,2.8c.068.411.156.828.249,1.239a23.377,23.377,0,0,0,3.225,7.639c3.25,4.925,8.119,7.851,12.932,7.328a11.179,11.179,0,0,0,1.183-.2,10.32,10.32,0,0,0,3.306-1.407c5.174-3.331,7.751-11.219,5.865-19.438m-6.108,16.592a8.282,8.282,0,0,1-3.611,1.874c-6.021,1.382-12.465-4.433-14.413-12.938a22.988,22.988,0,0,1-.479-3.063v-.006c-.031-.311-.05-.629-.062-.94v-.006c-.025-.523-.025-1.04-.006-1.557v-.006a17.432,17.432,0,0,1,1.32-6.232c.131-.311.274-.61.43-.9a9.388,9.388,0,0,1,6.145-5.2,8.936,8.936,0,0,1,.909-.156,8.838,8.838,0,0,1,4.7.847,12.5,12.5,0,0,1,2.957,1.949,19.386,19.386,0,0,1,5.84,10.3c1.507,6.587-.125,12.9-3.729,16.045" transform="translate(-98.327 -50.666)" fill="#ffc727"/>
            <path id="Trazado_878268" data-name="Trazado 878268" d="M244.865,167.7l-1.949-1.474c2.182-2.886,7.729-7.367,13.143-3.71l-1.367,2.023c-4.846-3.284-9.626,2.9-9.828,3.161" transform="translate(-91.675 -60.815)" fill="#ffc727"/>
            <path id="Trazado_878269" data-name="Trazado 878269" d="M119.68,184.97l-2.226-1.006c.472-1.039,4.742-10.174,10.142-11.345,5.049-1.08,34.268-.213,35.664-.154l-.1,2.44c-9.419-.4-31.144-.745-35.042.1-3.566.772-7.3,7.453-8.434,9.962" transform="translate(-44.326 -64.942)" fill="#ffc727"/>
            <path id="Trazado_878270" data-name="Trazado 878270" d="M146.193,180.02S131.3,162.289,123.14,167.763s4.209,31.995,14.613,34.849,13.233-6.722,13.233-6.722Z" transform="translate(-45.473 -62.917)" fill="#ad6359"/>
            <path id="Trazado_878271" data-name="Trazado 878271" d="M130.664,180.467a.14.14,0,0,0-.029.275c7.314,2.234,11.612,8.452,14.817,15.009-2.332-2.427-5.318-3.6-8.6-.8-.172.148.031.42.225.36,2.838-.875,4.968-.559,7.128,1.584a30.566,30.566,0,0,1,3.818,5.313c.386.6,1.5.164,1.191-.542-.022-.052-.049-.106-.072-.158-.621-9.018-8.735-21-18.481-21.045" transform="translate(-49.262 -68.107)" fill="#263238"/>
            <path id="Trazado_878272" data-name="Trazado 878272" d="M184.146,43.634v6.083a1.163,1.163,0,0,1-1.163,1.163,1.19,1.19,0,0,1-.918-.451,2.425,2.425,0,1,0,0,3.073,1.191,1.191,0,0,1,.918-.45,1.163,1.163,0,0,1,1.163,1.162V60.3h-6.084A1.163,1.163,0,0,0,176.9,61.46a1.189,1.189,0,0,0,.451.918,2.425,2.425,0,1,1-3.073,0,1.191,1.191,0,0,0,.45-.918,1.163,1.163,0,0,0-1.162-1.163h-6.083V54.214a1.163,1.163,0,0,1,1.163-1.162,1.191,1.191,0,0,1,.918.45,2.425,2.425,0,1,0,0-3.073,1.19,1.19,0,0,1-.918.451,1.163,1.163,0,0,1-1.163-1.163V43.634h6.083a1.163,1.163,0,0,0,1.162-1.163,1.191,1.191,0,0,0-.45-.918,2.425,2.425,0,1,1,3.073,0,1.19,1.19,0,0,0-.451.918,1.163,1.163,0,0,0,1.162,1.163Z" transform="translate(-63.207 -14.057)" fill="#263238"/>
            <path id="Trazado_878273" data-name="Trazado 878273" d="M180.276,37.4h-6.083a1.163,1.163,0,0,1-1.162-1.162,1.19,1.19,0,0,1,.451-.918,2.425,2.425,0,1,0-3.073,0,1.192,1.192,0,0,1,.45.918A1.162,1.162,0,0,1,169.7,37.4h-6.083V31.317a1.163,1.163,0,0,0-1.162-1.163,1.189,1.189,0,0,0-.918.451,2.425,2.425,0,1,1,0-3.073,1.191,1.191,0,0,0,.918.45,1.163,1.163,0,0,0,1.162-1.162V20.736H169.7a1.163,1.163,0,0,1,1.162,1.163,1.191,1.191,0,0,1-.45.918,2.425,2.425,0,1,0,3.073,0,1.189,1.189,0,0,1-.451-.918,1.163,1.163,0,0,1,1.162-1.163h6.083v6.083a1.162,1.162,0,0,0,1.162,1.162,1.192,1.192,0,0,0,.918-.45,2.425,2.425,0,1,1,0,3.073,1.19,1.19,0,0,0-.918-.451,1.163,1.163,0,0,0-1.162,1.163Z" transform="translate(-59.337 -7.826)" fill="#fff"/>
            <path id="Trazado_878274" data-name="Trazado 878274" d="M83.6,94.7h6.083a1.163,1.163,0,0,1,1.163,1.163,1.19,1.19,0,0,1-.451.918,2.425,2.425,0,1,0,3.073,0,1.191,1.191,0,0,1-.45-.918A1.163,1.163,0,0,1,94.176,94.7h6.084v6.084a1.162,1.162,0,0,0,1.162,1.162,1.189,1.189,0,0,0,.918-.451,2.425,2.425,0,1,1,0,3.073,1.189,1.189,0,0,0-.918-.451,1.163,1.163,0,0,0-1.162,1.162v6.083H94.176a1.163,1.163,0,0,1-1.162-1.163,1.191,1.191,0,0,1,.45-.918,2.425,2.425,0,1,0-3.073,0,1.19,1.19,0,0,1,.451.918,1.163,1.163,0,0,1-1.163,1.163H83.6v-6.083a1.163,1.163,0,0,0-1.162-1.162,1.192,1.192,0,0,0-.918.45,2.425,2.425,0,1,1,0-3.073,1.19,1.19,0,0,0,.918.451A1.163,1.163,0,0,0,83.6,100.78Z" transform="translate(-29.139 -35.738)" fill="#fff"/>
          </g>
        </g>
        <g id="Grupo_1101480" data-name="Grupo 1101480">
          <g id="Grupo_1101479" data-name="Grupo 1101479" clip-path="url(#clip-path)">
            <path id="Trazado_878275" data-name="Trazado 878275" d="M136.885,46.541c6.176,11.516.7,18.241,1.534,21.879a60.327,60.327,0,0,0,2.372,6.437L129.667,82.61a58.314,58.314,0,0,0-5.219-4.452c-3.118-2.047-11.329.769-19.989-9.015C98.764,62.717,96.324,48,108.1,39.8s24.724-.821,28.789,6.741" transform="translate(-37.634 -13.663)" fill="#ffc727"/>
            <rect id="Rectángulo_402347" data-name="Rectángulo 402347" width="0.446" height="21.942" transform="translate(79.579 52.465) rotate(-45.444)" fill="#fff"/>
            <rect id="Rectángulo_402348" data-name="Rectángulo 402348" width="0.445" height="21.942" transform="matrix(0.912, -0.411, 0.411, 0.912, 91.61, 43.98)" fill="#fff"/>
            <path id="Trazado_878276" data-name="Trazado 878276" d="M138.576,81.129c-1.178.82-2.932.181-3.873-.275l-.2-.1a1.627,1.627,0,0,1-.573,1.233c-1.626,1.133-4.652-1.8-4.78-1.928l.156-.159c.031.029,3.021,2.932,4.5,1.9a1.481,1.481,0,0,0,.488-1.164,9.286,9.286,0,0,1-3.03-2.562c-.659-.945-.686-1.7-.077-2.123h0a1.167,1.167,0,0,1,1.219-.111c1.089.51,1.964,2.545,2.1,4.124a4.577,4.577,0,0,1,.017.546c1.444.758,2.987,1.09,3.931.432.709-.495,1.034-1.542.913-2.951q-.017-.2-.045-.4a5.5,5.5,0,0,1-3.1-2.251c-.84-1.2-.916-2.264-.2-2.763a.9.9,0,0,1,.941-.053c1.082.507,2.226,2.744,2.555,4.887a2.029,2.029,0,0,0,1.528-.323h0c1.266-.883-.133-4.919-.148-4.96l.21-.074c.06.173,1.469,4.238.064,5.216a2.241,2.241,0,0,1-1.624.359c.014.113.026.227.036.339C139.675,79.032,139.572,80.435,138.576,81.129Zm-2.428-8.362c-.722.5-.342,1.6.255,2.453a5.545,5.545,0,0,0,2.88,2.152c-.334-2.029-1.423-4.173-2.416-4.638a.672.672,0,0,0-.72.033m-4.838,3.371h0c-.662.463-.2,1.335.132,1.814a8.93,8.93,0,0,0,2.855,2.442c0-.129-.006-.265-.018-.407-.126-1.487-.968-3.47-1.972-3.942a.947.947,0,0,0-1,.093" transform="translate(-48.74 -27.196)" fill="#fff"/>
            <rect id="Rectángulo_402349" data-name="Rectángulo 402349" width="16.731" height="3.27" transform="translate(90.404 69.375) rotate(-34.878)" fill="#dbdbdb"/>
            <rect id="Rectángulo_402350" data-name="Rectángulo 402350" width="16.731" height="3.27" transform="translate(92.576 72.492) rotate(-34.878)" fill="#dbdbdb"/>
            <rect id="Rectángulo_402351" data-name="Rectángulo 402351" width="16.731" height="3.27" transform="translate(94.748 75.608) rotate(-34.878)" fill="#dbdbdb"/>
            <path id="Trazado_878277" data-name="Trazado 878277" d="M106.277,69.189c-3.572-5.608-3.873-14.289,1.548-18.843-3.713,5.645-3.231,12.58-1.548,18.843" transform="translate(-39.122 -19)" fill="#fff"/>
          </g>
        </g>
        <g id="Grupo_1101494" data-name="Grupo 1101494">
          <g id="Grupo_1101493" data-name="Grupo 1101493" clip-path="url(#clip-path)">
            <path id="Trazado_878278" data-name="Trazado 878278" d="M196.284,94.017a7.981,7.981,0,0,0,.136-3.048l1.885-.8-.876-2.591-2.019.514a7.848,7.848,0,0,0-2.044-2.307l.748-1.845-2.451-1.213-1.015,1.72a8.018,8.018,0,0,0-3.177-.224l-.732-1.717-2.584.871.461,1.813a7.979,7.979,0,0,0-2.475,2.166l-1.626-.652-1.207,2.446,1.519.906a8.055,8.055,0,0,0-.166,3.342l-1.58.675.871,2.584,1.74-.442a7.87,7.87,0,0,0,2.248,2.441l-.666,1.641,2.451,1.213.96-1.616a8.012,8.012,0,0,0,3.218.1l.74,1.741,2.59-.87-.494-1.946a7.993,7.993,0,0,0,2.271-2.125l1.863.744,1.206-2.44Zm-8.38,3.622a5.579,5.579,0,1,1,6.313-4.735,5.58,5.58,0,0,1-6.313,4.735" transform="translate(-67.583 -31.136)" fill="#dbdbdb"/>
            <path id="Trazado_878279" data-name="Trazado 878279" d="M197.99,100.8l-1.03.78-1.908-2.518-.7-.921a1.626,1.626,0,0,0,.4-.227,1.676,1.676,0,0,0,.529-.685l.742.978Z" transform="translate(-73.348 -36.692)" fill="#dbdbdb"/>
            <path id="Trazado_878280" data-name="Trazado 878280" d="M193.883,92.769a2.811,2.811,0,1,0-.91,4.192,2.814,2.814,0,0,0,.973-.856,2.812,2.812,0,0,0-.062-3.336m-1.208,3.045a1.68,1.68,0,1,1,.529-.685,1.667,1.667,0,0,1-.529.685" transform="translate(-71.268 -34.595)" fill="#dbdbdb"/>
            <path id="Trazado_878281" data-name="Trazado 878281" d="M125.379,122.76a5.564,5.564,0,0,0,.961-1.9l1.426.032.187-1.9-1.429-.254a5.47,5.47,0,0,0-.635-2.051l1-.957-1.207-1.474-1.139.8a5.581,5.581,0,0,0-1.952-1.053l.029-1.3-1.89-.189-.228,1.283a5.563,5.563,0,0,0-2.193.664l-.844-.88L116,114.8l.7,1.01a5.613,5.613,0,0,0-1.065,2.074l-1.2-.025-.189,1.89,1.232.219a5.465,5.465,0,0,0,.726,2.194l-.894.85,1.208,1.474,1.073-.75a5.592,5.592,0,0,0,2.015.984l-.031,1.317,1.894.191.245-1.377a5.577,5.577,0,0,0,2.052-.7l.969,1.007,1.466-1.2Zm-6.359-.106a3.887,3.887,0,1,1,5.366-1.194,3.887,3.887,0,0,1-5.366,1.194" transform="translate(-43.119 -42.465)" fill="#dbdbdb"/>
            <path id="Trazado_878282" data-name="Trazado 878282" d="M172.36,135.492a5.575,5.575,0,0,0,1.8-1.131l1.206.761,1.136-1.529-1.095-.953a5.478,5.478,0,0,0,.511-2.086l1.353-.3-.276-1.885-1.388.1a5.585,5.585,0,0,0-1.131-1.908l.693-1.1-1.524-1.134-.855.983a5.565,5.565,0,0,0-2.223-.559l-.271-1.19-1.88.279.084,1.229a5.6,5.6,0,0,0-1.98,1.231l-1.013-.638-1.134,1.524.943.821a5.464,5.464,0,0,0-.507,2.255l-1.2.27.277,1.885,1.307-.091a5.579,5.579,0,0,0,1.222,1.881l-.7,1.114,1.525,1.138.918-1.055a5.579,5.579,0,0,0,2.118.458l.313,1.362,1.877-.277Zm-5.4-3.363a3.887,3.887,0,1,1,5.216,1.738,3.887,3.887,0,0,1-5.216-1.738" transform="translate(-61.743 -46.63)" fill="#ffc727"/>
            <path id="Trazado_878283" data-name="Trazado 878283" d="M149.08,134.966a7.974,7.974,0,0,0-.859-2.928l1.524-1.368-1.668-2.167-1.743,1.139a7.856,7.856,0,0,0-2.681-1.52l.109-1.988-2.711-.354-.4,1.956a8.028,8.028,0,0,0-3.078.817l-1.248-1.387-2.162,1.661,1.023,1.566a8,8,0,0,0-1.641,2.851l-1.748-.09-.35,2.705,1.73.365a8.05,8.05,0,0,0,.926,3.216l-1.276,1.15,1.661,2.163,1.5-.982a7.857,7.857,0,0,0,2.916,1.581l-.1,1.768,2.712.354.385-1.84a8.022,8.022,0,0,0,3.075-.952l1.264,1.408,2.169-1.662-1.1-1.681A8,8,0,0,0,148.769,138l2,.1.351-2.7Zm-6.755,6.141a5.58,5.58,0,1,1,4.439-6.524,5.58,5.58,0,0,1-4.439,6.524" transform="translate(-49.605 -47.468)" fill="#37474f"/>
            <g id="Grupo_1101483" data-name="Grupo 1101483" transform="translate(91.155 85.189)" opacity="0.6">
              <g id="Grupo_1101482" data-name="Grupo 1101482">
                <g id="Grupo_1101481" data-name="Grupo 1101481" clip-path="url(#clip-path-6)">
                  <path id="Trazado_878284" data-name="Trazado 878284" d="M150.1,137.99a1.165,1.165,0,1,1-1.164-1.164,1.164,1.164,0,0,1,1.164,1.164" transform="translate(-146.924 -136.826)" fill="#455a64"/>
                  <path id="Trazado_878285" data-name="Trazado 878285" d="M150.437,142.633v.426h-4.028v-.426a2.014,2.014,0,0,1,4.028,0" transform="translate(-146.409 -138.259)" fill="#455a64"/>
                </g>
              </g>
            </g>
            <path id="Trazado_878286" data-name="Trazado 878286" d="M145.313,139.118a1.165,1.165,0,1,1-1.164-1.164,1.164,1.164,0,0,1,1.164,1.164" transform="translate(-53.961 -52.063)" fill="#37474f"/>
            <path id="Trazado_878287" data-name="Trazado 878287" d="M145.646,143.761v.426h-4.028v-.426a2.014,2.014,0,0,1,4.028,0" transform="translate(-53.446 -53.496)" fill="#37474f"/>
            <path id="Trazado_878288" data-name="Trazado 878288" d="M228.312,59.786l.3-2.327-2.727-.634a12.909,12.909,0,0,0-.5-3.749l2.448-1.319-.9-2.169-2.677.818a12.491,12.491,0,0,0-2.315-2.994l1.471-2.372-1.865-1.427-1.915,2.042a12.3,12.3,0,0,0-3.5-1.433l.083-2.791-2.328-.3-.634,2.727a12.7,12.7,0,0,0-3.749.507l-1.319-2.454-2.169.9.812,2.677a12.748,12.748,0,0,0-2.987,2.315l-2.373-1.465L200.042,48.2l2.049,1.9a12.3,12.3,0,0,0-1.434,3.5l-2.791-.077-.3,2.322,2.727.641a12.732,12.732,0,0,0,.507,3.749l-2.461,1.319.907,2.169,2.677-.812a12.87,12.87,0,0,0,2.309,2.987l-1.459,2.366,1.865,1.434,1.9-2.043a12.491,12.491,0,0,0,3.508,1.434l-.083,2.784,2.322.3.641-2.721a12.924,12.924,0,0,0,3.749-.514l1.319,2.455,2.169-.9-.818-2.677a12.492,12.492,0,0,0,2.994-2.315l2.372,1.471,1.421-1.865-2.037-1.909a12.913,12.913,0,0,0,1.434-3.5Zm-15.223,5.125a8.259,8.259,0,1,1,8.258-8.258,8.259,8.259,0,0,1-8.258,8.258" transform="translate(-74.558 -15.521)" fill="#ffc727"/>
            <path id="Trazado_878289" data-name="Trazado 878289" d="M223.166,57.958a1.691,1.691,0,1,1-1.69-1.69,1.69,1.69,0,0,1,1.69,1.69" transform="translate(-82.945 -21.235)" fill="#ffc727"/>
            <rect id="Rectángulo_402354" data-name="Rectángulo 402354" width="3.583" height="0.517" transform="translate(136.739 38.155)" fill="#ffc727"/>
            <g id="Grupo_1101486" data-name="Grupo 1101486" transform="translate(136.739 38.155)" opacity="0.1">
              <g id="Grupo_1101485" data-name="Grupo 1101485">
                <g id="Grupo_1101484" data-name="Grupo 1101484" clip-path="url(#clip-path-7)">
                  <rect id="Rectángulo_402355" data-name="Rectángulo 402355" width="3.583" height="0.517" transform="translate(0 0)"/>
                </g>
              </g>
            </g>
            <rect id="Rectángulo_402357" data-name="Rectángulo 402357" width="7.258" height="0.517" transform="translate(134.901 45.267)" fill="#ffc727"/>
            <g id="Grupo_1101489" data-name="Grupo 1101489" transform="translate(134.902 45.268)" opacity="0.1">
              <g id="Grupo_1101488" data-name="Grupo 1101488">
                <g id="Grupo_1101487" data-name="Grupo 1101487" clip-path="url(#clip-path-8)">
                  <rect id="Rectángulo_402358" data-name="Rectángulo 402358" width="7.258" height="0.517" transform="translate(-0.001 -0.001)"/>
                </g>
              </g>
            </g>
            <rect id="Rectángulo_402360" data-name="Rectángulo 402360" width="7.258" height="0.517" transform="translate(134.901 46.716)" fill="#ffc727"/>
            <g id="Grupo_1101492" data-name="Grupo 1101492" transform="translate(134.902 46.716)" opacity="0.1">
              <g id="Grupo_1101491" data-name="Grupo 1101491">
                <g id="Grupo_1101490" data-name="Grupo 1101490" clip-path="url(#clip-path-9)">
                  <rect id="Rectángulo_402361" data-name="Rectángulo 402361" width="7.258" height="0.517" transform="translate(-0.001 0)"/>
                </g>
              </g>
            </g>
            <rect id="Rectángulo_402363" data-name="Rectángulo 402363" width="6.718" height="0.932" transform="translate(135.171 45.784)" fill="#ffc727"/>
            <rect id="Rectángulo_402364" data-name="Rectángulo 402364" width="2.923" height="0.517" transform="translate(137.069 38.671)" fill="#ffc727"/>
            <path id="Trazado_878290" data-name="Trazado 878290" d="M223.669,69.022h-5.938a6.481,6.481,0,0,0,1.637-2.976c.236-1.368.352-3.1.352-3.1h1.96s.116,1.735.354,3.1a6.468,6.468,0,0,0,1.636,2.976" transform="translate(-82.17 -23.754)" fill="#ffc727"/>
          </g>
        </g>
      </g>
    </g>
  </g>
</svg>
