<svg xmlns="http://www.w3.org/2000/svg" xmlns:xlink="http://www.w3.org/1999/xlink" width="151.991" height="133.933" viewBox="0 0 151.991 133.933">
  <defs>
    <clipPath id="clip-path">
      <rect id="Rectángulo_402145" data-name="Rectángulo 402145" width="126.03" height="133.934" fill="none"/>
    </clipPath>
  </defs>
  <g id="Grupo_1101513" data-name="Grupo 1101513" transform="translate(-1075 -896.596)">
    <path id="_12068" data-name="12068" d="M103.949,72.366C89.64,70.39,74.525,70.874,61.5,77.128,43.447,85.8,31.588,105.464,31.133,125.491s9.978,39.705,26.1,51.6S94.6,193.2,114.312,189.632c19.875-3.6,38.53-15.279,48.9-32.614,6.648-11.116,9.755-24.842,6.082-37.264-2.217-7.5-6.75-14.14-12.082-19.858A89.263,89.263,0,0,0,103.949,72.366Z" transform="translate(1049.881 839.667)" fill="#26aab7"/>
    <g id="Grupo_1100758" data-name="Grupo 1100758" transform="translate(1024.136 1158.56) rotate(-90)">
      <path id="Trazado_873104" data-name="Trazado 873104" d="M149.557,395.548a1.582,1.582,0,1,0-.106-2.456A1.573,1.573,0,0,0,149.557,395.548Z" transform="translate(8.93 -203.46)" fill="#fff"/>
      <path id="Trazado_873105" data-name="Trazado 873105" d="M417.219,416a1.582,1.582,0,1,0-.105-2.456A1.573,1.573,0,0,0,417.219,416Z" transform="translate(-217.435 -227.035)" fill="#ffd947"/>
      <path id="Trazado_873106" data-name="Trazado 873106" d="M303.26,44.546a1.582,1.582,0,1,0-.106-2.456A1.573,1.573,0,0,0,303.26,44.546Z" transform="translate(-52.901 9.151)" fill="#7d6eb2"/>
      <path id="Trazado_873109" data-name="Trazado 873109" d="M339.452,404.413a3.448,3.448,0,1,0-1.687-4.918A3.468,3.468,0,0,0,339.452,404.413Z" transform="translate(-82.207 -231.255)" fill="#7d6eb2"/>
      <path id="Trazado_873110" data-name="Trazado 873110" d="M390.262,440.006a3.448,3.448,0,1,0-1.687-4.918A3.468,3.468,0,0,0,390.262,440.006Z" transform="translate(-181.42 -237.38)" fill="#ffd947"/>
      <path id="Trazado_873111" data-name="Trazado 873111" d="M176.115,56.142a3.448,3.448,0,1,0-1.687-4.918A3.468,3.468,0,0,0,176.115,56.142Z" transform="translate(-44.569 23.202)" fill="#ffd947"/>
      <path id="Trazado_873113" data-name="Trazado 873113" d="M321.56,66.974a3.448,3.448,0,1,0-1.687-4.918A3.468,3.468,0,0,0,321.56,66.974Z" transform="translate(-76.565 -0.895)" fill="#ffd947"/>
      <circle id="Elipse_11485" data-name="Elipse 11485" cx="1.689" cy="1.689" r="1.689" transform="translate(149.167 187.566)" fill="none" stroke="#26aab7" stroke-linecap="round" stroke-linejoin="round" stroke-width="1.5"/>
    </g>
    <g id="Grupo_1101299" data-name="Grupo 1101299" transform="translate(1087.854 896.596)">
      <g id="Grupo_1101298" data-name="Grupo 1101298" clip-path="url(#clip-path)">
        <path id="Trazado_876188" data-name="Trazado 876188" d="M149.493,27.369c-.178,0-.7-.02-2.139-2.461q-.261,0-.513,0c-3.01,0-3.184-.3-3.278-.466a.379.379,0,0,1,0-.381.3.3,0,0,1,.049-.065c.01-.01.992-1,2.2-2.136-.917-2.153-.649-2.562-.547-2.719a.522.522,0,0,1,.453-.24c.016,0,.088.006.1.008a9.175,9.175,0,0,1,2.272.907c1.553-1.3,2.079-1.467,2.364-1.467a.489.489,0,0,1,.454.264,7.8,7.8,0,0,1,.124,2.85,16.792,16.792,0,0,1,2.576,1.8.524.524,0,0,1,.082.54c-.085.195-.28.644-3.062.925a5.879,5.879,0,0,1-.792,2.494.462.462,0,0,1-.343.144m-1.412-2.477a6.974,6.974,0,0,0,1.363,1.8,7.343,7.343,0,0,0,.53-1.907c-.6.048-1.241.082-1.893.1m-3.719-.746a16.08,16.08,0,0,0,2.633.132c-.328-.594-.642-1.212-.914-1.8-.732.694-1.366,1.317-1.719,1.669m2.206-2.125c.329.729.729,1.514,1.147,2.248.82-.018,1.631-.06,2.371-.122.12-.747.219-1.563.286-2.338-.752-.448-1.518-.879-2.2-1.233-.478.411-1.018.9-1.609,1.445m4.405.153c-.061.639-.142,1.295-.237,1.911a6.531,6.531,0,0,0,2.314-.491,17.27,17.27,0,0,0-2.077-1.42m-5.189-2.625a4.753,4.753,0,0,0,.519,1.856q.682-.631,1.265-1.138a8.775,8.775,0,0,0-1.784-.718m2.917.589c.544.289,1.134.62,1.723.966a8.262,8.262,0,0,0-.045-2.1,6.247,6.247,0,0,0-1.678,1.137" transform="translate(-52.756 -6.747)" fill="#261d2a"/>
        <path id="Trazado_876189" data-name="Trazado 876189" d="M34.11,34.407c-.178,0-.705-.02-2.14-2.461-.173,0-.345,0-.513,0-3.01,0-3.184-.3-3.278-.466a.378.378,0,0,1,0-.381.3.3,0,0,1,.049-.065c.01-.01.992-1,2.2-2.136-.917-2.153-.649-2.562-.547-2.719a.522.522,0,0,1,.452-.24c.016,0,.089.006.1.008a9.139,9.139,0,0,1,2.272.907c1.553-1.3,2.079-1.467,2.364-1.467a.49.49,0,0,1,.455.264,7.808,7.808,0,0,1,.123,2.85,16.791,16.791,0,0,1,2.576,1.8.524.524,0,0,1,.082.54c-.085.195-.28.644-3.062.925a5.857,5.857,0,0,1-.792,2.494.449.449,0,0,1-.343.144M32.7,31.93a6.955,6.955,0,0,0,1.364,1.8,7.371,7.371,0,0,0,.53-1.907c-.6.048-1.242.082-1.894.1m-3.719-.746a18.58,18.58,0,0,0,2.633.132c-.329-.6-.642-1.212-.914-1.8-.732.693-1.366,1.317-1.719,1.669m2.206-2.125c.329.728.729,1.513,1.147,2.248.82-.018,1.631-.06,2.371-.122.12-.747.219-1.562.286-2.338-.751-.448-1.518-.879-2.2-1.233-.478.411-1.018.895-1.609,1.445m4.406.152c-.061.639-.142,1.3-.238,1.911a6.526,6.526,0,0,0,2.314-.491,17.241,17.241,0,0,0-2.076-1.42M30.4,26.588a4.744,4.744,0,0,0,.519,1.855c.454-.42.878-.8,1.265-1.138a8.726,8.726,0,0,0-1.785-.717m2.917.588c.544.289,1.134.62,1.723.966a8.3,8.3,0,0,0-.045-2.1,6.233,6.233,0,0,0-1.678,1.137" transform="translate(-10.34 -9.334)" fill="#261d2a"/>
        <path id="Trazado_876190" data-name="Trazado 876190" d="M5.015,108.059s-.708-5,4.126-3.427,3.309,6.172,1.456,4.621,1.542-6.9,5.253-4.571,2.931,6.937.318,7.3,1.531-5.368,4.861-1.885-3.8,9.961-6.767,7.634-.7-6.153.028-3.842-1.152,4.6-6.371,4.563S5,110.364,6.845,112.683s-1.155,4.986-4.863,2.268.436-8.449,3.034-6.892" transform="translate(-0.187 -38.268)" fill="#fff"/>
        <path id="Trazado_876191" data-name="Trazado 876191" d="M7.864,118.586H7.731A3.243,3.243,0,0,1,4.383,116.2a5.93,5.93,0,0,1-2.775-1.182,3.8,3.8,0,0,1-1.37-4.482c.6-1.819,2.193-3.245,3.636-3.245a2.171,2.171,0,0,1,.6.083,4.115,4.115,0,0,1,.785-2.717c.777-.9,2.065-1.076,3.791-.515a6.54,6.54,0,0,1,1.762.86,4.09,4.09,0,0,1,2.963-1.405,3.83,3.83,0,0,1,2.055.629,5.436,5.436,0,0,1,2.675,4.241,3.572,3.572,0,0,1,2.564,1.225,3.621,3.621,0,0,1,.558,4.142c-1.029,2.407-3.846,4.519-6.028,4.519a2.713,2.713,0,0,1-1.721-.56,4.791,4.791,0,0,1-.636-.6,8.821,8.821,0,0,1-5.381,1.388m-2.811-2.363a2.575,2.575,0,0,0,2.683,1.73h.128c2.743,0,4.219-.649,5-1.262a3.433,3.433,0,0,1-.3-3.3,1.111,1.111,0,0,1,.92-.721c.235,0,.669.121.926.937a3.123,3.123,0,0,1-.694,3.159,4.087,4.087,0,0,0,.559.528,2.1,2.1,0,0,0,1.331.426c1.926,0,4.522-1.971,5.447-4.136a3.029,3.029,0,0,0-.434-3.455A2.968,2.968,0,0,0,18.5,109.1a3.089,3.089,0,0,1-2.471,3.009c-.867.123-1.164-.331-1.183-.751-.042-.938,1.3-2.529,3.032-2.838a4.806,4.806,0,0,0-2.38-3.759,3.2,3.2,0,0,0-4.188.64,3.184,3.184,0,0,1,1.07,3.3,1.342,1.342,0,0,1-1.22,1,1.478,1.478,0,0,1-.949-.389c-1.018-.852-.7-2.545.206-3.814a5.955,5.955,0,0,0-1.558-.749c-1.463-.476-2.509-.372-3.116.326a4.046,4.046,0,0,0-.6,2.756.316.316,0,0,1-.138.307.319.319,0,0,1-.337.008,1.518,1.518,0,0,0-.792-.218c-1.167,0-2.528,1.26-3.035,2.809a3.233,3.233,0,0,0,1.143,3.775,5.486,5.486,0,0,0,2.268,1.035,4.669,4.669,0,0,1,.739-3.237,1.262,1.262,0,0,1,.967-.548,1.214,1.214,0,0,1,.95.539,2.369,2.369,0,0,1,.422,2.555,2.623,2.623,0,0,1-2.275,1.367m8.427-2.916c-.068,0-.218.1-.355.372a2.808,2.808,0,0,0,.208,2.566,2.476,2.476,0,0,0,.47-2.444c-.123-.391-.266-.495-.323-.495m-7.525-.913a.681.681,0,0,0-.472.31,4.073,4.073,0,0,0-.588,2.892,2.036,2.036,0,0,0,1.863-1.015,1.763,1.763,0,0,0-.347-1.886.676.676,0,0,0-.455-.3m11.9-3.222a3.158,3.158,0,0,0-2.38,2.16c0,.071.007.167.283.167a1.361,1.361,0,0,0,.181-.013,2.443,2.443,0,0,0,1.916-2.314m-6.949-3.278c-.795,1.12-.937,2.391-.292,2.931a.669.669,0,0,0,1.167-.333,2.547,2.547,0,0,0-.875-2.6" transform="translate(0 -38.084)" fill="#261d2a"/>
        <path id="Trazado_876192" data-name="Trazado 876192" d="M155.015,180.059s-.708-5,4.126-3.427,3.309,6.172,1.456,4.621,1.542-6.9,5.253-4.571,2.931,6.937.318,7.3,1.531-5.368,4.861-1.885-3.8,9.961-6.767,7.634-.7-6.153.028-3.842-1.152,4.6-6.371,4.563-2.922-8.09-1.075-5.771-1.155,4.986-4.863,2.268.436-8.449,3.034-6.892" transform="translate(-55.327 -64.736)" fill="#fff"/>
        <path id="Trazado_876193" data-name="Trazado 876193" d="M157.864,190.586h-.133a3.243,3.243,0,0,1-3.348-2.381,5.93,5.93,0,0,1-2.775-1.182,3.8,3.8,0,0,1-1.37-4.482c.6-1.819,2.193-3.245,3.636-3.245a2.17,2.17,0,0,1,.6.083,4.115,4.115,0,0,1,.785-2.717c.777-.895,2.065-1.076,3.791-.515a6.541,6.541,0,0,1,1.762.86,4.09,4.09,0,0,1,2.963-1.405,3.83,3.83,0,0,1,2.055.629,5.436,5.436,0,0,1,2.675,4.241,3.572,3.572,0,0,1,2.564,1.225,3.621,3.621,0,0,1,.558,4.142c-1.029,2.407-3.846,4.519-6.028,4.519a2.713,2.713,0,0,1-1.721-.56,4.791,4.791,0,0,1-.636-.6,8.821,8.821,0,0,1-5.381,1.388m-2.811-2.363a2.575,2.575,0,0,0,2.683,1.73h.128c2.743,0,4.219-.649,5-1.262a3.433,3.433,0,0,1-.3-3.3,1.111,1.111,0,0,1,.92-.721c.235,0,.669.121.926.937a3.123,3.123,0,0,1-.694,3.159,4.086,4.086,0,0,0,.559.528,2.1,2.1,0,0,0,1.331.426c1.926,0,4.522-1.971,5.447-4.136a3.029,3.029,0,0,0-.434-3.455,2.968,2.968,0,0,0-2.117-1.03,3.089,3.089,0,0,1-2.471,3.009c-.869.122-1.164-.331-1.183-.751-.042-.938,1.3-2.529,3.032-2.838a4.806,4.806,0,0,0-2.38-3.759,3.2,3.2,0,0,0-4.188.64,3.184,3.184,0,0,1,1.07,3.3,1.342,1.342,0,0,1-1.22,1,1.478,1.478,0,0,1-.949-.389c-1.018-.852-.7-2.545.206-3.814a5.955,5.955,0,0,0-1.558-.749c-1.463-.476-2.509-.372-3.116.326a4.046,4.046,0,0,0-.6,2.756.316.316,0,0,1-.476.315,1.518,1.518,0,0,0-.792-.218c-1.167,0-2.528,1.26-3.035,2.809a3.233,3.233,0,0,0,1.143,3.775,5.486,5.486,0,0,0,2.268,1.035,4.669,4.669,0,0,1,.739-3.237,1.262,1.262,0,0,1,.967-.548,1.215,1.215,0,0,1,.95.539,2.369,2.369,0,0,1,.422,2.555,2.623,2.623,0,0,1-2.275,1.367m8.427-2.916c-.068,0-.218.1-.355.372a2.808,2.808,0,0,0,.208,2.566,2.476,2.476,0,0,0,.47-2.444c-.123-.391-.266-.495-.323-.495m-7.525-.913a.681.681,0,0,0-.472.31,4.073,4.073,0,0,0-.588,2.892,2.036,2.036,0,0,0,1.863-1.015,1.763,1.763,0,0,0-.347-1.886.676.676,0,0,0-.455-.3m11.9-3.222a3.158,3.158,0,0,0-2.38,2.16c0,.071.007.167.283.167a1.362,1.362,0,0,0,.181-.013,2.443,2.443,0,0,0,1.916-2.314m-6.949-3.278c-.795,1.12-.937,2.391-.292,2.931a.669.669,0,0,0,1.167-.333,2.547,2.547,0,0,0-.875-2.6" transform="translate(-55.141 -64.552)" fill="#261d2a"/>
        <path id="Trazado_876194" data-name="Trazado 876194" d="M135.258,56.089l-.546,3c14.911,3.921,15.824,14.371,15.591,18.4,1.454-.181,3.042-.383,4.544-.583-.151-4.03-1.918-18.787-19.588-20.818" transform="translate(-49.521 -20.619)" fill="#aee6e6"/>
        <path id="Trazado_876195" data-name="Trazado 876195" d="M134.461,60.834l-.429,2.358s10.737.319,10.761,16.679c0,0,2.357-.275,5.26-.636.233-4.03-.68-14.479-15.591-18.4" transform="translate(-49.271 -22.363)" fill="#7d6eb2"/>
        <path id="Trazado_876196" data-name="Trazado 876196" d="M136.291,49.881l-.715,3.926c17.67,2.031,19.438,16.788,19.588,20.818,1.535-.2,2.971-.406,4.075-.581-.192-2.141-2.61-23.334-22.948-24.164" transform="translate(-49.839 -18.337)" fill="#ffd947"/>
        <path id="Trazado_876197" data-name="Trazado 876197" d="M137.124,46.227l-.417,2.291c20.338.83,22.757,22.023,22.948,24.164.913-.144,1.6-.269,1.917-.361,1.826-.528-1.64-27.5-24.448-26.094" transform="translate(-50.254 -16.974)" fill="#f86c93"/>
        <path id="Trazado_876198" data-name="Trazado 876198" d="M159.47,74.177a.317.317,0,0,1-.315-.288c-.02-.225-2.22-22.543-22.654-23.876a.316.316,0,0,1-.3-.336.309.309,0,0,1,.336-.3c20.979,1.369,23.223,24.221,23.243,24.452a.317.317,0,0,1-.288.343h-.028" transform="translate(-50.07 -18.152)" fill="#261d2a"/>
        <path id="Trazado_876199" data-name="Trazado 876199" d="M154.981,77.04a.316.316,0,0,1-.316-.3c-.01-.188-1.236-18.853-19.3-20.521a.316.316,0,0,1-.286-.344.322.322,0,0,1,.344-.286c18.615,1.719,19.865,20.923,19.876,21.116a.316.316,0,0,1-.3.333h-.017" transform="translate(-49.655 -20.435)" fill="#261d2a"/>
        <path id="Trazado_876200" data-name="Trazado 876200" d="M150.118,79.368h-.007a.316.316,0,0,1-.309-.323c0-.151.142-15.1-15.335-18.083a.317.317,0,0,1,.12-.622C150.6,63.424,150.437,78.9,150.434,79.058a.317.317,0,0,1-.316.309" transform="translate(-49.336 -22.18)" fill="#261d2a"/>
        <path id="Trazado_876201" data-name="Trazado 876201" d="M47.7,48.352,47.153,45.8c-24.73-.724-27.539,28.585-25.544,29.093.379.1,1.232.22,2.365.358.078-5.846,1.91-26.355,23.731-26.9" transform="translate(-7.753 -16.831)" fill="#f86c93"/>
        <path id="Trazado_876202" data-name="Trazado 876202" d="M50.04,52.9l-.66-3.061c-21.821.542-23.653,21.05-23.731,26.9,1.3.159,2.98.335,4.734.509C30.5,72.205,32.232,55.391,50.04,52.9" transform="translate(-9.429 -18.323)" fill="#ffd947"/>
        <path id="Trazado_876203" data-name="Trazado 876203" d="M43.7,81.913c1.992.177,3.385.295,3.385.295C46.535,64.5,58.143,63.781,58.143,63.781l-.637-2.951C44.058,64.124,43.535,77.763,43.7,81.913" transform="translate(-16.056 -22.361)" fill="#7d6eb2"/>
        <path id="Trazado_876204" data-name="Trazado 876204" d="M53.631,58.571l-.839-3.887c-17.809,2.485-19.542,19.3-19.657,24.345,2.325.23,4.78.454,6.686.624-.162-4.15.362-17.789,13.81-21.083" transform="translate(-12.181 -20.102)" fill="#aee6e6"/>
        <path id="Trazado_876205" data-name="Trazado 876205" d="M43.482,82.045a.316.316,0,0,1-.315-.294c-1.253-17.67,13.9-21.378,14.054-21.413a.316.316,0,0,1,.142.616c-.148.034-14.779,3.632-13.565,20.753a.316.316,0,0,1-.293.338h-.023" transform="translate(-15.841 -22.178)" fill="#261d2a"/>
        <path id="Trazado_876206" data-name="Trazado 876206" d="M32.952,79.162h-.011a.316.316,0,0,1-.305-.327c.379-11.627,5.776-17.711,10.238-20.768a23.354,23.354,0,0,1,9.7-3.88.316.316,0,1,1,.07.629c-.187.021-18.669,2.329-19.377,24.041a.316.316,0,0,1-.316.305" transform="translate(-11.997 -19.919)" fill="#261d2a"/>
        <path id="Trazado_876207" data-name="Trazado 876207" d="M25.466,76.869H25.45a.316.316,0,0,1-.3-.331c.467-9.568,3.367-16.808,8.621-21.516a23.31,23.31,0,0,1,15.446-5.681.316.316,0,0,1-.039.631A22.626,22.626,0,0,0,34.185,55.5c-5.119,4.591-7.946,11.68-8.4,21.068a.316.316,0,0,1-.316.3" transform="translate(-9.245 -18.135)" fill="#261d2a"/>
        <path id="Trazado_876208" data-name="Trazado 876208" d="M131.141,190.545c-.233,0-.475,0-1.158-2.676-2.284-.429-2.48-.69-2.546-.777a.423.423,0,0,1-.059-.321c.039-.142.131-.471,2.725-1.529.921-2.433,1.238-2.433,1.429-2.433a.441.441,0,0,1,.3.153,6.679,6.679,0,0,1,.551,1.728c.075.3.166.663.216.813.133.06.445.17.7.261,1.307.462,1.669.63,1.73.933a.428.428,0,0,1-.118.348,12.169,12.169,0,0,1-2.239.972c-1.088,2.5-1.323,2.519-1.513,2.53h-.02m-2.922-3.729c.445.133,1.317.329,2.077.467a.316.316,0,0,1,.25.234c.2.784.455,1.676.633,2.152.25-.444.648-1.287.968-2.031a.315.315,0,0,1,.184-.173c.649-.231,1.384-.517,1.812-.711-.311-.133-.765-.295-1.054-.4-.746-.264-.9-.326-.993-.45a3.854,3.854,0,0,1-.328-1.066c-.078-.311-.2-.8-.3-1.14a18.286,18.286,0,0,0-.818,1.89.312.312,0,0,1-.177.183,21.212,21.212,0,0,0-2.249,1.041" transform="translate(-46.821 -67.201)" fill="#261d2a"/>
        <path id="Trazado_876209" data-name="Trazado 876209" d="M20.134,140.5c-.233,0-.475,0-1.158-2.676-2.284-.428-2.48-.689-2.546-.776a.426.426,0,0,1-.059-.323c.04-.142.132-.471,2.725-1.529.921-2.434,1.238-2.434,1.429-2.434a.442.442,0,0,1,.3.152,6.7,6.7,0,0,1,.551,1.728c.075.3.166.663.216.813.133.061.445.17.7.261,1.307.462,1.669.63,1.73.933a.428.428,0,0,1-.118.348,12.1,12.1,0,0,1-2.239.973c-1.088,2.5-1.323,2.518-1.513,2.529h-.02m-2.922-3.729c.445.133,1.317.329,2.077.467a.317.317,0,0,1,.25.234c.2.784.455,1.676.633,2.152.25-.444.648-1.286.968-2.03a.314.314,0,0,1,.184-.172c.649-.232,1.384-.517,1.812-.711-.311-.134-.765-.295-1.054-.4-.746-.264-.9-.326-.993-.45a3.854,3.854,0,0,1-.328-1.066c-.078-.311-.2-.8-.3-1.14a18.289,18.289,0,0,0-.818,1.89.312.312,0,0,1-.177.183,21.334,21.334,0,0,0-2.249,1.041" transform="translate(-6.014 -48.804)" fill="#261d2a"/>
        <path id="Trazado_876210" data-name="Trazado 876210" d="M13.27,155.121a2.37,2.37,0,1,1,2.37-2.37,2.373,2.373,0,0,1-2.37,2.37m0-4.108a1.738,1.738,0,1,0,1.738,1.738,1.74,1.74,0,0,0-1.738-1.738" transform="translate(-4.007 -55.281)" fill="#261d2a"/>
        <path id="Trazado_876211" data-name="Trazado 876211" d="M165.851,41.206a2.37,2.37,0,1,1,2.37-2.37,2.373,2.373,0,0,1-2.37,2.37m0-4.108a1.738,1.738,0,1,0,1.738,1.738,1.74,1.74,0,0,0-1.738-1.738" transform="translate(-60.097 -13.405)" fill="#261d2a"/>
        <path id="Trazado_876212" data-name="Trazado 876212" d="M183.851,171.873a2.37,2.37,0,1,1,2.37-2.37,2.373,2.373,0,0,1-2.37,2.37m0-4.108a1.738,1.738,0,1,0,1.738,1.738,1.74,1.74,0,0,0-1.738-1.738" transform="translate(-66.713 -61.439)" fill="#261d2a"/>
        <path id="Trazado_876213" data-name="Trazado 876213" d="M177.92,109.762c-1.429,0-1.611-.113-1.728-.285-.139-.207-.508-.754,3.408-4.529a.315.315,0,0,1,.316-.073c2.888.927,6.977,2.2,9.108,2.763-2.046-1.179-6.281-3.4-9.148-4.869a.318.318,0,0,1-.161-.2c-.142-.51-.823-3.092-.23-3.894a.422.422,0,0,1,.35-.166c1.333,0,9.806,7.979,10.831,9.462a.33.33,0,0,1,.077.108.288.288,0,0,1,.022.073l0,.013h0a.271.271,0,0,1,0,.064v.012a.306.306,0,0,1-.015.089h0a.141.141,0,0,1-.013.028.3.3,0,0,1-.063.1l0,0a.385.385,0,0,1-.242.1c-1.988.8-12.4,1.2-12.514,1.2m-1.135-.681a8.9,8.9,0,0,0,1.135.049,103.88,103.88,0,0,0,11.08-.847c-2.6-.676-7.847-2.347-9.1-2.747a21.125,21.125,0,0,0-3.119,3.546m3.5-6.811c3.06,1.568,6.5,3.363,8.568,4.554-2.492-2.508-7.789-7.25-8.919-7.652a7.8,7.8,0,0,0,.351,3.1" transform="translate(-64.741 -36.214)" fill="#261d2a"/>
        <path id="Trazado_876214" data-name="Trazado 876214" d="M178.556,108.917a.357.357,0,0,1-.044,0c-.6-.085-2.05-.332-2.4-.8a.489.489,0,0,1-.1-.374c.078-.515,2.057-2.055,3.7-3.256a.316.316,0,1,1,.372.512,27.539,27.539,0,0,0-3.409,2.792,6.59,6.59,0,0,0,1.918.5.316.316,0,0,1-.044.629" transform="translate(-64.702 -38.386)" fill="#261d2a"/>
        <path id="Trazado_876215" data-name="Trazado 876215" d="M95.463,51.553S91,60.031,91.783,60.292s4.692.845,4.692.845-1.336,5.793-.552,6.055,4.464-8.708,3.68-8.969-4.14-.575-4.14-1.035c0-1.408,1.307-7.2,0-5.635" transform="translate(-33.706 -18.853)" fill="#ffd947"/>
        <path id="Trazado_876216" data-name="Trazado 876216" d="M112.088,50.044s.629,9.561,1.434,9.373,4.441-1.733,4.441-1.733,1.891,5.636,2.7,5.449-.749-9.757-1.554-9.569-3.829,1.675-4.069,1.283c-.736-1.2-2.654-6.822-2.947-4.8" transform="translate(-41.204 -18.237)" fill="#ffd947"/>
        <path id="Trazado_876217" data-name="Trazado 876217" d="M78.363,48.5s-8.437,4.54-7.933,5.194,3.42,3.321,3.42,3.321-4.343,4.06-3.839,4.714S78.577,57,78.073,56.343s-3.113-2.789-2.857-3.17C76,52,80.323,47.927,78.363,48.5" transform="translate(-25.722 -17.808)" fill="#ffd947"/>
        <path id="Trazado_876218" data-name="Trazado 876218" d="M68.023,10.75s-.761-5.379,5.521-5.236c6.751.155,3.5,6.008,2.423,3.8S75.078-.062,84.54.535s6.815,11.787,4.613,10.33,2.013-8.707,8.04-5.021,4.26,11.991,1.586,11.128.556-6.506,4.814-1.914-4.416,12.1-8.559,11.107S91.213,21.4,93.119,21.35s.524,8.713-9.514,7.432-7.677-9.112-5.878-7.9,1.159,6.229-7.5,6.124S63.2,15.2,66.963,15.734s-1.186,6.451-3.765,2,2.151-7.85,4.825-6.987" transform="translate(-22.958 -0.184)" fill="#fff"/>
        <path id="Trazado_876219" data-name="Trazado 876219" d="M85.355,29.042a15.657,15.657,0,0,1-1.972-.13c-3.932-.5-5.841-1.978-6.765-3.226a11.8,11.8,0,0,1-6.3,1.453l-.273,0a6.43,6.43,0,0,1-5.177-2.285,7.654,7.654,0,0,1-1.291-6.082,4.406,4.406,0,0,1-.831-1.058,4.8,4.8,0,0,1-.179-4.959,5.334,5.334,0,0,1,4.375-2.637,3.49,3.49,0,0,1,.558.044,5.174,5.174,0,0,1,1.146-3.473A5.64,5.64,0,0,1,73.118,5.01l.251,0a8.731,8.731,0,0,1,1.833.219c.446-1.914,2.244-5.635,9.175-5.2,4.682.3,6.232,3.038,6.741,4.915a5.942,5.942,0,0,1,6.056.44,8.666,8.666,0,0,1,4.205,7.628,6.206,6.206,0,0,1,2.262,1.642,4.646,4.646,0,0,1,.711,5.351c-1.43,3.278-5.66,6.376-8.7,6.376a3.778,3.778,0,0,1-.873-.1,5.887,5.887,0,0,1-1.857-.767c-.964,1.433-3.132,3.521-7.566,3.521M77.13,25.315c.847,1.142,2.622,2.5,6.333,2.97a14.976,14.976,0,0,0,1.892.125c4.178,0,6.184-1.952,7.062-3.271a2.974,2.974,0,0,1-1.036-3.072,1.669,1.669,0,0,1,1.549-1.217h0a.914.914,0,0,1,.823.5,4.169,4.169,0,0,1-.5,3.63,5.241,5.241,0,0,0,1.674.692,3.142,3.142,0,0,0,.727.08c2.779,0,6.8-2.97,8.123-6a4.1,4.1,0,0,0-.6-4.668,5.864,5.864,0,0,0-1.838-1.4c-.208,2.042-1.166,3.482-2.361,3.482a1.557,1.557,0,0,1-.481-.078,1.672,1.672,0,0,1-1.167-1.967,2.88,2.88,0,0,1,2.82-2.344,3.164,3.164,0,0,1,.6.058,8.019,8.019,0,0,0-3.9-6.906,5.288,5.288,0,0,0-5.583-.338,6.638,6.638,0,0,1-.87,4.959,1.316,1.316,0,0,1-1.017.576,1.036,1.036,0,0,1-.579-.183,1.781,1.781,0,0,1-.734-1.578,5.562,5.562,0,0,1,2.491-4.073c-.414-1.7-1.773-4.346-6.216-4.627-.369-.023-.723-.034-1.064-.034-5.5,0-7.044,2.881-7.465,4.784a2.606,2.606,0,0,1,2,2.886c-.138.921-.75,1.642-1.394,1.642A1.015,1.015,0,0,1,75.5,9.27a6.3,6.3,0,0,1-.413-3.414,8.017,8.017,0,0,0-1.733-.21l-.237,0A5.053,5.053,0,0,0,69.123,7.1a4.776,4.776,0,0,0-.969,3.426.316.316,0,0,1-.41.345,2.625,2.625,0,0,0-.806-.119,4.741,4.741,0,0,0-3.827,2.321,4.1,4.1,0,0,0,.178,4.326,4.188,4.188,0,0,0,.462.653c.562-1.878,1.735-3,3.074-2.812,1.083.154,1.692.771,1.63,1.652A3.213,3.213,0,0,1,65.4,19.515a2.551,2.551,0,0,1-1.26-.331,6.93,6.93,0,0,0,1.217,5.274A5.745,5.745,0,0,0,70.049,26.5l.266,0a11.2,11.2,0,0,0,5.958-1.35,4.311,4.311,0,0,1-.259-4.064c.419-.772,1.134-1.043,1.708-.658a2.334,2.334,0,0,1,.954,1.924,3.8,3.8,0,0,1-1.546,2.956m.027-4.429c-.2,0-.415.19-.586.507a3.7,3.7,0,0,0,.216,3.386,3.156,3.156,0,0,0,1.258-2.409,1.708,1.708,0,0,0-.675-1.411.372.372,0,0,0-.212-.073m15.8.6a1.029,1.029,0,0,0-.971.781,2.313,2.313,0,0,0,.765,2.32,3.581,3.581,0,0,0,.455-2.921c-.1-.18-.209-.18-.25-.18M64.276,18.522a1.961,1.961,0,0,0,1.128.36,2.6,2.6,0,0,0,2.42-2.039c.048-.677-.565-.907-1.087-.981-1.067-.154-2.025.916-2.461,2.66m35.876-5.111a2.234,2.234,0,0,0-2.2,1.809,1.064,1.064,0,0,0,.736,1.267.95.95,0,0,0,.288.047c.857,0,1.6-1.324,1.744-3.058a2.617,2.617,0,0,0-.573-.066M90.685,5.977a4.8,4.8,0,0,0-1.989,3.4,1.187,1.187,0,0,0,.45,1.044c.249.164.493.061.756-.264a5.94,5.94,0,0,0,.782-4.175M75.7,6.051a5.581,5.581,0,0,0,.369,2.941c.071.146.188.319.343.319.28,0,.676-.482.769-1.1A1.959,1.959,0,0,0,75.7,6.051" transform="translate(-22.775 0)" fill="#261d2a"/>
        <path id="Trazado_876220" data-name="Trazado 876220" d="M76.469,99.629a.276.276,0,0,1-.051,0,29.436,29.436,0,0,0-3.235-.271c-4.135-.2-8.822-.429-8.6-6,.178-4.532,1.4-8.059,3.2-9.307a1.693,1.693,0,0,1-.009-.226c.132-4.315,3.461-5.846,6.273-5.846q.384,0,.768.035a5.085,5.085,0,0,1,.99-4.194c1.269-1.582,3.494-2.452,6.265-2.452a15.183,15.183,0,0,1,2.476.214,4.586,4.586,0,0,1,3.772,4.138c.307-.022.617-.034.925-.034a9.59,9.59,0,0,1,4.32.906,5.968,5.968,0,0,1,3.157,4.1,5.984,5.984,0,0,1,4.43.1c6.271,2.568,6.292,6.621,5.607,12.509-.29,2.5-5.362,4.256-15.506,5.381-7.342.815-14.7.954-14.773.955Zm-8.5-14.935c-1.524,1.235-2.59,4.56-2.753,8.68-.194,4.95,3.787,5.143,8,5.348A30.187,30.187,0,0,1,76.491,99c8.1-.147,29.133-1.467,29.634-5.776.67-5.769.653-9.446-5.219-11.85a5.341,5.341,0,0,0-4.094-.047,4.759,4.759,0,0,1-2.691,4.914c-.914.419-1.559.209-1.7-.44-.238-1.126,1.238-3.66,3.7-4.859a5.337,5.337,0,0,0-2.854-3.794,8.957,8.957,0,0,0-4.028-.834c-.283,0-.567.009-.848.03a7.294,7.294,0,0,1-1.309,5.016c-.935,1.059-2.161.962-3.173-.314a2.774,2.774,0,0,1-.687-2.9c.511-1.205,2.167-2.079,4.462-2.367A3.986,3.986,0,0,0,84.438,72.2a14.49,14.49,0,0,0-2.373-.206c-2.575,0-4.625.787-5.772,2.215a4.525,4.525,0,0,0-.822,3.889,6.23,6.23,0,0,1,2.779,1.176c1.04.838,1.021,1.46.916,1.757a1.061,1.061,0,0,1-1.085.625c-1.114,0-2.542-.939-3.123-3a7.511,7.511,0,0,0-.916-.056c-2.621,0-5.46,1.345-5.635,5.107,1.124-.42,2.365-.015,3.608,1.2.971.95,1.336,1.608,1.147,2.07-.08.2-.288.431-.825.431a6.008,6.008,0,0,1-4.374-2.718m.54-.34c.52,1.282,2.86,2.426,3.834,2.426.189,0,.242-.043.244-.045s.051-.336-1.008-1.372c-1.107-1.082-2.139-1.43-3.07-1.009M96.2,81.608c-2.074,1.11-3.319,3.29-3.156,4.057.023.109.063.164.219.164a1.5,1.5,0,0,0,.6-.168A4.114,4.114,0,0,0,96.2,81.608M87.762,76.4c-2.039.257-3.542,1.006-3.958,1.986a2.23,2.23,0,0,0,.6,2.261c.761.958,1.52,1.06,2.2.288A6.61,6.61,0,0,0,87.762,76.4m-12.1,2.377a2.938,2.938,0,0,0,2.423,2.243c.253,0,.445-.08.488-.2.06-.172-.092-.551-.717-1.054a5.409,5.409,0,0,0-2.2-.987" transform="translate(-23.737 -26.232)" fill="#261d2a"/>
        <path id="Trazado_876221" data-name="Trazado 876221" d="M46.519,98.254l63.37-.868s-1.544,40.86-2.98,43.451-16.342,7.119-16.342,7.119l2.377,13.773-26.316.107,2.136-11.966s-16.258-5.278-18.874-8.819c-1.2-1.619-3.369-42.8-3.369-42.8" transform="translate(-17.101 -35.8)" fill="#7d6eb2"/>
        <path id="Trazado_876222" data-name="Trazado 876222" d="M60.867,125.988s7.326-9.812,18.576.654c0,0-9.722,11.311-18.576-.654" transform="translate(-22.375 -44.78)" fill="#fff"/>
        <path id="Trazado_876223" data-name="Trazado 876223" d="M77.284,127.027a4.188,4.188,0,1,1-4.188-4.188,4.188,4.188,0,0,1,4.188,4.188" transform="translate(-25.331 -45.156)" fill="#26aab7"/>
        <path id="Trazado_876224" data-name="Trazado 876224" d="M124.745,125.988s-7.326-9.812-18.576.654c0,0,9.722,11.311,18.576-.654" transform="translate(-39.028 -44.78)" fill="#fff"/>
        <path id="Trazado_876225" data-name="Trazado 876225" d="M114.257,127.027a4.188,4.188,0,1,0,4.188-4.188,4.188,4.188,0,0,0-4.188,4.188" transform="translate(-42.002 -45.156)" fill="#26aab7"/>
        <path id="Trazado_876226" data-name="Trazado 876226" d="M91.819,164.179a11.529,11.529,0,0,1-3.031-.413,13.873,13.873,0,0,1-5.126-2.657.316.316,0,0,1,.42-.474c.317.28,7.857,6.789,15.649-.508a.316.316,0,1,1,.433.462,12,12,0,0,1-8.344,3.59" transform="translate(-30.715 -58.832)" fill="#261d2a"/>
        <path id="Trazado_876227" data-name="Trazado 876227" d="M44.153,125.217s-3.086-4.244-5.915-.9-1.286,16.846,7.073,13.116-1.157-12.217-1.157-12.217" transform="translate(-13.578 -45.228)" fill="#7d6eb2"/>
        <path id="Trazado_876228" data-name="Trazado 876228" d="M44.979,137.208a.316.316,0,0,1-.316-.311c-.065-4.2-1-5.633-1.78-6.1a1.6,1.6,0,0,0-1.485-.059.316.316,0,0,1-.3-.558,2.239,2.239,0,0,1,2.094.067c1.338.787,2.045,3.02,2.1,6.636a.316.316,0,0,1-.311.321Z" transform="translate(-15.048 -47.772)" fill="#261d2a"/>
        <path id="Trazado_876229" data-name="Trazado 876229" d="M142.694,125.217s3.086-4.244,5.915-.9,1.286,16.846-7.073,13.116,1.157-12.217,1.157-12.217" transform="translate(-50.766 -45.228)" fill="#7d6eb2"/>
        <path id="Trazado_876230" data-name="Trazado 876230" d="M146.2,137.208h-.005a.316.316,0,0,1-.311-.321c.056-3.616.762-5.849,2.1-6.636a2.233,2.233,0,0,1,2.094-.067.316.316,0,0,1-.3.557,1.6,1.6,0,0,0-1.485.059c-.777.464-1.716,1.9-1.78,6.1a.317.317,0,0,1-.316.311" transform="translate(-53.627 -47.771)" fill="#261d2a"/>
        <path id="Trazado_876231" data-name="Trazado 876231" d="M94.3,149.858a.316.316,0,0,1-.178-.054c-.94-.639-5.652-3.863-6.065-4.69a.518.518,0,0,1,.018-.515c.366-.593,2.366-.72,3.723-.735V133.647a.316.316,0,0,1,.632,0v10.531a.316.316,0,0,1-.316.316,10.443,10.443,0,0,0-3.453.4,46.855,46.855,0,0,0,5.611,4.248,64.726,64.726,0,0,0,5.367-5.3,39.8,39.8,0,0,0-4.115.249.316.316,0,0,1-.348-.309l-.2-10.33a.316.316,0,0,1,.31-.323h.006a.317.317,0,0,1,.316.31l.192,9.989a23.474,23.474,0,0,1,4.36-.151.429.429,0,0,1,.247.276c.042.2.154.735-5.9,6.218a.316.316,0,0,1-.212.082" transform="translate(-32.348 -48.94)" fill="#261d2a"/>
        <path id="Trazado_876232" data-name="Trazado 876232" d="M66.569,122.142a.316.316,0,0,1-.286-.18l-.977-2.043a.316.316,0,0,1,.571-.273l.977,2.042a.317.317,0,0,1-.285.453" transform="translate(-23.996 -43.917)" fill="#261d2a"/>
        <path id="Trazado_876233" data-name="Trazado 876233" d="M73.264,120.583a.316.316,0,0,1-.316-.3l-.089-2.31a.316.316,0,0,1,.3-.328.333.333,0,0,1,.328.3l.089,2.309a.317.317,0,0,1-.3.329Z" transform="translate(-26.784 -43.246)" fill="#261d2a"/>
        <path id="Trazado_876234" data-name="Trazado 876234" d="M79.775,121.758a.333.333,0,0,1-.107-.018.316.316,0,0,1-.19-.4l.8-2.22a.316.316,0,1,1,.594.214l-.8,2.22a.316.316,0,0,1-.3.209" transform="translate(-29.21 -43.71)" fill="#261d2a"/>
        <path id="Trazado_876235" data-name="Trazado 876235" d="M119.873,120.354a.316.316,0,0,1-.312-.266l-.355-2.22a.316.316,0,0,1,.625-.1l.355,2.22a.317.317,0,0,1-.262.362.347.347,0,0,1-.051,0" transform="translate(-43.819 -43.194)" fill="#261d2a"/>
        <path id="Trazado_876236" data-name="Trazado 876236" d="M111.859,123.026a.318.318,0,0,1-.283-.174l-1.144-2.29a.316.316,0,0,1,.565-.283l1.145,2.289a.317.317,0,0,1-.142.425.322.322,0,0,1-.141.033" transform="translate(-40.583 -44.151)" fill="#261d2a"/>
        <path id="Trazado_876237" data-name="Trazado 876237" d="M128.66,121.653a.37.37,0,0,1-.069-.007.318.318,0,0,1-.24-.377l.572-2.575a.316.316,0,1,1,.618.137l-.572,2.574a.316.316,0,0,1-.309.248" transform="translate(-47.18 -43.542)" fill="#261d2a"/>
        <path id="Trazado_876240" data-name="Trazado 876240" d="M159.854,142.791h-.014a11.44,11.44,0,0,1-1.295-.132.316.316,0,0,1,.1-.625,10.7,10.7,0,0,0,1.221.125.316.316,0,0,1-.013.632m1.262-.025a.316.316,0,0,1-.027-.631,9.154,9.154,0,0,0,1.208-.185.316.316,0,0,1,.137.617,9.767,9.767,0,0,1-1.291.2h-.027m-3.756-.369a.337.337,0,0,1-.082-.011c-.406-.109-.821-.242-1.233-.393a.316.316,0,0,1,.219-.593c.393.145.79.271,1.178.375a.316.316,0,0,1-.082.622m6.218-.181a.316.316,0,0,1-.111-.613,9.265,9.265,0,0,0,1.114-.5.316.316,0,0,1,.3.558,10.06,10.06,0,0,1-1.19.536.321.321,0,0,1-.11.02m-8.591-.691a.31.31,0,0,1-.133-.03c-.384-.179-.77-.378-1.148-.589a.316.316,0,1,1,.31-.551c.364.2.735.395,1.1.567a.316.316,0,0,1-.134.6m10.82-.489a.316.316,0,0,1-.182-.575,11.389,11.389,0,0,0,.966-.761.316.316,0,0,1,.417.476,12.194,12.194,0,0,1-1.019.8.318.318,0,0,1-.181.058m-13.025-.749a.314.314,0,0,1-.175-.053,12.344,12.344,0,0,1-1.053-.77.316.316,0,1,1,.409-.483s.368.309.995.727a.316.316,0,0,1-.175.579m14.925-.913a.317.317,0,0,1-.23-.533c.272-.29.544-.605.809-.937a.316.316,0,0,1,.495.394c-.275.345-.558.674-.843.976a.314.314,0,0,1-.23.1m1.563-1.983A.316.316,0,0,1,169,136.9a10.605,10.605,0,0,0,.6-1.069.316.316,0,0,1,.569.278,11.328,11.328,0,0,1-.639,1.133.315.315,0,0,1-.266.145m1.1-2.269a.34.34,0,0,1-.1-.016.317.317,0,0,1-.2-.4,9.222,9.222,0,0,0,.319-1.179.316.316,0,1,1,.62.125,9.978,9.978,0,0,1-.34,1.26.317.317,0,0,1-.3.214m.5-2.473h-.021a.316.316,0,0,1-.295-.336c.015-.214.021-.428.021-.641,0-.2-.006-.39-.018-.584a.316.316,0,0,1,.3-.335.311.311,0,0,1,.335.3c.013.206.019.414.019.622,0,.226-.008.454-.023.682a.316.316,0,0,1-.316.3m-.149-2.518a.317.317,0,0,1-.311-.259,10.956,10.956,0,0,0-.289-1.194.316.316,0,0,1,.605-.183,11.619,11.619,0,0,1,.306,1.264.317.317,0,0,1-.254.368.449.449,0,0,1-.058,0M170,127.713a.317.317,0,0,1-.292-.194c-.157-.376-.337-.751-.532-1.113a.316.316,0,0,1,.557-.3c.206.381.393.773.559,1.169a.315.315,0,0,1-.169.414.322.322,0,0,1-.123.025M165.5,126.23l-.171,0a.317.317,0,0,1-.3-.329.338.338,0,0,1,.328-.3l.178,0a5.336,5.336,0,0,0,1.009-.095.316.316,0,0,1,.119.621,6.448,6.448,0,0,1-1.159.106m-1.406-.191a.305.305,0,0,1-.085-.012,4.516,4.516,0,0,1-1.241-.544.316.316,0,0,1,.342-.532,3.915,3.915,0,0,0,1.068.467.316.316,0,0,1-.085.621m3.71-.288a.316.316,0,0,1-.131-.6,4.535,4.535,0,0,0,.522-.28c-.128-.174-.261-.345-.4-.512a.316.316,0,1,1,.49-.4c.144.176.283.357.419.541a.316.316,0,0,1,.367.513l-.006.005a.316.316,0,0,1-.509.37,5.264,5.264,0,0,1-.627.338.321.321,0,0,1-.13.028m-5.76-1.1a.316.316,0,0,1-.267-.146,2.666,2.666,0,0,1-.417-1.351.316.316,0,0,1,.3-.328.326.326,0,0,1,.328.3,2.044,2.044,0,0,0,.319,1.035.316.316,0,0,1-.267.486m7.671-.507a.316.316,0,0,1-.263-.491,4.306,4.306,0,0,0,.509-1.058.316.316,0,0,1,.6.2,4.95,4.95,0,0,1-.584,1.212.317.317,0,0,1-.264.14m-2.516-.616a.314.314,0,0,1-.225-.094,10.84,10.84,0,0,0-.914-.821.316.316,0,0,1,.395-.495,11.388,11.388,0,0,1,.968.87.317.317,0,0,1-.224.539m-5.293-1.3a.308.308,0,0,1-.128-.027.316.316,0,0,1-.161-.417,1.705,1.705,0,0,1,1.109-.995.316.316,0,1,1,.173.608,1.067,1.067,0,0,0-.7.643.314.314,0,0,1-.289.188m3.31-.261a.318.318,0,0,1-.157-.042,4.868,4.868,0,0,0-1.085-.476.316.316,0,0,1-.218-.39.312.312,0,0,1,.391-.218,5.483,5.483,0,0,1,1.227.536.316.316,0,0,1-.158.59m5.294-.193h-.028a.316.316,0,0,1-.286-.343q.025-.27.025-.56a3.721,3.721,0,0,0-.049-.615.316.316,0,0,1,.624-.1,4.416,4.416,0,0,1,.057.719c0,.212-.009.417-.027.615a.317.317,0,0,1-.315.288m-.458-2.423a.316.316,0,0,1-.269-.15,3.178,3.178,0,0,0-.77-.837.316.316,0,1,1,.387-.5,3.817,3.817,0,0,1,.921,1,.315.315,0,0,1-.1.434.312.312,0,0,1-.166.047m-1.931-1.563a.316.316,0,0,1-.132-.029,9.451,9.451,0,0,0-1.145-.431.316.316,0,1,1,.187-.6,10.063,10.063,0,0,1,1.222.461.316.316,0,0,1-.133.6m-2.407-.773a.315.315,0,0,1-.072-.008c-.4-.094-.812-.18-1.228-.261a.316.316,0,1,1,.121-.62c.424.083.843.169,1.251.265a.316.316,0,0,1-.072.624m-2.485-.5a.314.314,0,0,1-.059-.006c-.419-.078-.838-.158-1.25-.242a.317.317,0,0,1,.127-.62c.409.084.823.163,1.239.241a.316.316,0,0,1-.058.627M160.75,116a.3.3,0,0,1-.078-.01c-.462-.116-.868-.237-1.241-.367a.316.316,0,1,1,.208-.6c.355.123.744.238,1.188.35a.316.316,0,0,1-.077.623m-2.375-.861a.317.317,0,0,1-.149-.038,4.782,4.782,0,0,1-1.093-.785.316.316,0,1,1,.442-.452,4.159,4.159,0,0,0,.95.68.316.316,0,0,1-.151.6m-1.73-1.759a.316.316,0,0,1-.292-.193,3.748,3.748,0,0,1-.281-1.332.316.316,0,1,1,.632-.022,3.117,3.117,0,0,0,.232,1.109.317.317,0,0,1-.169.414.313.313,0,0,1-.123.025m-.14-2.476a.305.305,0,0,1-.063-.006.315.315,0,0,1-.247-.372q.026-.127.057-.258c.083-.344.178-.68.284-1a.316.316,0,0,1,.6.2c-.1.3-.19.62-.269.948-.02.08-.037.158-.052.235a.317.317,0,0,1-.31.253m.8-2.39a.313.313,0,0,1-.137-.032.317.317,0,0,1-.147-.423,8.154,8.154,0,0,1,.665-1.132.316.316,0,1,1,.516.364,7.5,7.5,0,0,0-.612,1.045.318.318,0,0,1-.285.178m1.463-2.044a.317.317,0,0,1-.218-.546,6.25,6.25,0,0,1,1.054-.809.316.316,0,1,1,.329.539,5.638,5.638,0,0,0-.947.728.316.316,0,0,1-.218.087m7.822-1.212a.3.3,0,0,1-.109-.02c-.008,0-.252-.091-.66-.193a.316.316,0,0,1,.154-.614c.455.114.725.214.725.214a.316.316,0,0,1-.109.612m-5.681-.1a.316.316,0,0,1-.106-.613,7.192,7.192,0,0,1,1.281-.325.316.316,0,0,1,.1.625,6.642,6.642,0,0,0-1.169.3.31.31,0,0,1-.106.018m3.746-.335a.266.266,0,0,1-.039,0,9.449,9.449,0,0,0-1.169-.074.34.34,0,0,1-.343-.316.3.3,0,0,1,.29-.316v.316l.043-.317h0a10.071,10.071,0,0,1,1.254.079.316.316,0,0,1-.039.63" transform="translate(-55.671 -38.272)" fill="#261d2a"/>
        <path id="Trazado_876241" data-name="Trazado 876241" d="M47.817,191.458c-.359,0-.725-.005-1.1-.016a.316.316,0,0,1-.307-.325.325.325,0,0,1,.325-.307c.37.011.732.015,1.084.016h.171a.316.316,0,0,1,0,.632Zm1.435-.029a.316.316,0,0,1-.013-.632q.644-.028,1.248-.078a.312.312,0,0,1,.341.288.316.316,0,0,1-.289.341q-.617.051-1.274.08Zm-3.79-.045h-.022c-.432-.03-.863-.075-1.28-.136a.316.316,0,0,1,.091-.626c.4.059.816.1,1.232.131a.316.316,0,0,1-.021.632m6.307-.166a.317.317,0,0,1-.04-.63c.427-.054.838-.118,1.234-.187a.312.312,0,0,1,.367.256.316.316,0,0,1-.256.366q-.609.108-1.264.193a.3.3,0,0,1-.04,0m-8.805-.2a.321.321,0,0,1-.073-.008c-.426-.1-.845-.22-1.244-.357a.316.316,0,1,1,.206-.6c.379.13.777.244,1.183.34a.316.316,0,0,1-.072.624m11.292-.24a.316.316,0,0,1-.07-.624c.419-.1.821-.2,1.207-.311a.316.316,0,0,1,.174.608q-.6.17-1.239.319a.347.347,0,0,1-.071.008m-13.676-.583a.325.325,0,0,1-.135-.03,10.45,10.45,0,0,1-1.14-.631.316.316,0,1,1,.341-.532,9.709,9.709,0,0,0,1.07.591.316.316,0,0,1-.136.6m16.106-.11a.316.316,0,0,1-.1-.615q.61-.21,1.172-.432a.316.316,0,0,1,.231.588c-.384.151-.783.3-1.2.441a.3.3,0,0,1-.1.018m2.353-.923a.316.316,0,0,1-.127-.606c.4-.174.776-.348,1.145-.519a.317.317,0,0,1,.266.575c-.373.172-.758.348-1.157.524a.32.32,0,0,1-.126.027m-20.58-.326a.317.317,0,0,1-.2-.075,9.553,9.553,0,0,1-.937-.909.316.316,0,1,1,.47-.422,8.935,8.935,0,0,0,.875.849.316.316,0,0,1-.2.558m22.877-.729a.316.316,0,0,1-.133-.6c.4-.182.782-.357,1.166-.518a.316.316,0,1,1,.244.583c-.376.158-.756.329-1.145.509a.318.318,0,0,1-.132.029m10.885-.029a.318.318,0,0,1-.136-.031q-.591-.282-1.139-.5a.316.316,0,1,1,.236-.587c.377.152.768.324,1.175.518a.316.316,0,0,1-.136.6m-8.549-.934a.316.316,0,0,1-.1-.616,11.2,11.2,0,0,1,1.252-.344.316.316,0,1,1,.131.618,10.577,10.577,0,0,0-1.182.326.323.323,0,0,1-.1.016m6.2,0a.291.291,0,0,1-.095-.015,12.267,12.267,0,0,0-1.191-.311.317.317,0,1,1,.127-.62,12.794,12.794,0,0,1,1.254.328.316.316,0,0,1-.095.617m-33.1-.176a.317.317,0,0,1-.261-.137,10.6,10.6,0,0,1-.667-1.117.316.316,0,1,1,.562-.29,10.05,10.05,0,0,0,.627,1.05.316.316,0,0,1-.082.44.311.311,0,0,1-.178.056m30.627-.322h-.025a8.725,8.725,0,0,0-1.218-.007.308.308,0,0,1-.336-.3.316.316,0,0,1,.295-.336,9.148,9.148,0,0,1,1.308.007.316.316,0,0,1-.024.632m-31.79-1.916a.315.315,0,0,1-.295-.2,12.874,12.874,0,0,1-.4-1.232.316.316,0,1,1,.61-.167,12.224,12.224,0,0,0,.381,1.172.316.316,0,0,1-.182.409.32.32,0,0,1-.113.021m-.669-2.437a.316.316,0,0,1-.311-.26c-.074-.409-.134-.839-.179-1.276a.317.317,0,0,1,.63-.064c.042.422.1.835.172,1.229a.318.318,0,0,1-.255.367.357.357,0,0,1-.057,0m-.258-2.514a.316.316,0,0,1-.316-.306c-.007-.207-.009-.414-.009-.619,0-.223,0-.444.011-.666a.329.329,0,0,1,.326-.305A.316.316,0,0,1,35,178.2c-.007.214-.01.429-.01.644,0,.2,0,.4.009.6a.316.316,0,0,1-.305.326Zm.08-2.526h-.029a.316.316,0,0,1-.286-.343c.036-.4.083-.8.139-1.187l-.093.028a.316.316,0,1,1-.179-.606,6.333,6.333,0,0,0,1.115-.452.316.316,0,0,1,.29.562q-.269.138-.544.253a.317.317,0,0,1,.049.221c-.06.405-.11.819-.148,1.238a.317.317,0,0,1-.315.288m-2-1.252a5.912,5.912,0,0,1-.91-.071.316.316,0,0,1,.1-.625,4.951,4.951,0,0,0,.823.064c.121,0,.244,0,.367-.012a.316.316,0,0,1,.042.631,3,3,0,0,1-.42.013m-2.079-.393a.321.321,0,0,1-.113-.02A7.263,7.263,0,0,1,29.387,175a.316.316,0,1,1,.329-.539,6.6,6.6,0,0,0,1.081.531.317.317,0,0,1-.113.612m4.448-.857a.312.312,0,0,1-.064-.006.317.317,0,0,1-.247-.374c.089-.43.187-.848.293-1.25a.316.316,0,1,1,.612.163c-.1.39-.2.8-.285,1.214a.316.316,0,0,1-.309.253m1.544-.08a.316.316,0,0,1-.165-.586c.365-.223.711-.454,1.028-.687a.316.316,0,0,1,.374.51c-.332.244-.693.484-1.073.717a.317.317,0,0,1-.164.046m-8.15-.36a.317.317,0,0,1-.2-.075,9.876,9.876,0,0,1-.94-.906.316.316,0,0,1,.467-.426,9.386,9.386,0,0,0,.88.849.317.317,0,0,1-.2.558M38.7,173.155a.316.316,0,0,1-.216-.547,7.412,7.412,0,0,0,.818-.892.316.316,0,1,1,.5.384,7.943,7.943,0,0,1-.889.97.315.315,0,0,1-.216.085m-11.878-.715a.316.316,0,0,1-.257-.132,12.229,12.229,0,0,1-.7-1.095.316.316,0,1,1,.551-.311,11.478,11.478,0,0,0,.661,1.038.316.316,0,0,1-.073.441.311.311,0,0,1-.184.059m8.961-.14a.291.291,0,0,1-.1-.016.316.316,0,0,1-.2-.4c.144-.427.3-.834.457-1.207a.316.316,0,1,1,.581.249c-.153.357-.3.747-.439,1.16a.316.316,0,0,1-.3.215m4.414-1.159a.315.315,0,0,1-.292-.438,2.537,2.537,0,0,0,.215-.968c0-.04,0-.08,0-.12a.317.317,0,0,1,.292-.338.31.31,0,0,1,.338.293c0,.054.006.109.006.165a3.149,3.149,0,0,1-.264,1.211.316.316,0,0,1-.292.194m-14.618-.9a.317.317,0,0,1-.29-.19,12.586,12.586,0,0,1-.455-1.215.316.316,0,0,1,.6-.19,11.972,11.972,0,0,0,.432,1.153.317.317,0,0,1-.164.417.33.33,0,0,1-.126.026m11.212-.26a.312.312,0,0,1-.158-.042.316.316,0,0,1-.115-.433,4.492,4.492,0,0,1,.823-1.081.316.316,0,0,1,.423.47,3.927,3.927,0,0,0-.7.928.315.315,0,0,1-.274.157m3.1-1.177a.316.316,0,0,1-.2-.07,1.26,1.26,0,0,0-.957-.238.311.311,0,0,1-.352-.277.316.316,0,0,1,.277-.35,1.864,1.864,0,0,1,1.429.372.317.317,0,0,1-.2.563m-15.072-.973a.316.316,0,0,1-.31-.254,10.863,10.863,0,0,1-.178-1.291.316.316,0,0,1,.63-.047,10.229,10.229,0,0,0,.168,1.214.316.316,0,0,1-.249.372.3.3,0,0,1-.062.006m-.181-2.516h-.02a.317.317,0,0,1-.3-.336,8.224,8.224,0,0,1,.184-1.3.316.316,0,0,1,.617.139,7.566,7.566,0,0,0-.17,1.2.317.317,0,0,1-.315.3m.566-2.452a.324.324,0,0,1-.125-.026.317.317,0,0,1-.164-.417,6.423,6.423,0,0,1,.5-.937l.144-.216a.316.316,0,1,1,.522.357l-.137.2a5.762,5.762,0,0,0-.453.844.316.316,0,0,1-.29.19m1.4-2.094a.316.316,0,0,1-.235-.527,9.767,9.767,0,0,1,.935-.91.316.316,0,1,1,.41.48,9.356,9.356,0,0,0-.875.852.314.314,0,0,1-.235.1m1.916-1.639a.316.316,0,0,1-.173-.581,11.02,11.02,0,0,1,1.129-.647.316.316,0,1,1,.282.565,10.611,10.611,0,0,0-1.064.61.313.313,0,0,1-.173.052M30.781,158a.316.316,0,0,1-.11-.613c.4-.147.813-.279,1.235-.391a.316.316,0,0,1,.162.612c-.4.107-.8.232-1.177.372a.323.323,0,0,1-.11.02m2.442-.651a.316.316,0,0,1-.054-.627c.418-.073.849-.13,1.28-.17a.316.316,0,0,1,.058.63c-.414.038-.828.093-1.229.163a.268.268,0,0,1-.054.005m3.783-.188-.035,0s-.4-.043-1.043-.043h-.176l-.013-.632h.189a11.136,11.136,0,0,1,1.113.047.316.316,0,0,1-.035.63" transform="translate(-8.942 -57.525)" fill="#261d2a"/>
      </g>
    </g>
  </g>
</svg>
