<svg xmlns="http://www.w3.org/2000/svg" xmlns:xlink="http://www.w3.org/1999/xlink" width="400" height="225" viewBox="0 0 400 225">
  <defs>
    <clipPath id="clip-path">
      <rect id="Rectángulo_402372" data-name="Rectángulo 402372" width="298.006" height="223.009" fill="none"/>
    </clipPath>
    <clipPath id="clip-path-3">
      <rect id="Rectángulo_402367" data-name="Rectángulo 402367" width="35.036" height="25.995" fill="none"/>
    </clipPath>
    <clipPath id="clip-path-5">
      <rect id="Rectángulo_402369" data-name="Rectángulo 402369" width="12.313" height="14.246" fill="none"/>
    </clipPath>
  </defs>
  <g id="Grupo_1101514" data-name="Grupo 1101514" transform="translate(5305 -2968)">
    <path id="Rectángulo_402332" data-name="Rectángulo 402332" d="M20,0H380a20,20,0,0,1,20,20V126a0,0,0,0,1,0,0H0a0,0,0,0,1,0,0V20A20,20,0,0,1,20,0Z" transform="translate(-5305 3067)" fill="#aee6e6"/>
    <g id="Grupo_1101508" data-name="Grupo 1101508" transform="translate(-5263.003 2968)">
      <g id="Grupo_1101507" data-name="Grupo 1101507" clip-path="url(#clip-path)">
        <g id="Grupo_1101501" data-name="Grupo 1101501">
          <g id="Grupo_1101500" data-name="Grupo 1101500" clip-path="url(#clip-path)">
            <g id="Grupo_1101499" data-name="Grupo 1101499" transform="translate(259.443 73.149)" style="mix-blend-mode: multiply;isolation: isolate">
              <g id="Grupo_1101498" data-name="Grupo 1101498">
                <g id="Grupo_1101497" data-name="Grupo 1101497" clip-path="url(#clip-path-3)">
                  <path id="Trazado_878291" data-name="Trazado 878291" d="M330.674,102.814l-6.1,4.152,9.494,2.516v8.025l4.634-5.651,10.511,2.672,10.4-23.015Z" transform="translate(-324.571 -91.512)" fill="#a7a9ac"/>
                </g>
              </g>
            </g>
          </g>
        </g>
        <path id="Trazado_878292" data-name="Trazado 878292" d="M335.165,110.845v7.562l6.49-6.868Z" transform="translate(-67.254 -22.242)" fill="#fff"/>
        <path id="Trazado_878293" data-name="Trazado 878293" d="M337.2,106.543,362.759,85.95l-12.181,24.026Z" transform="translate(-67.662 -17.247)" fill="#fff"/>
        <path id="Trazado_878294" data-name="Trazado 878294" d="M360.117,85.951l-36.08,16.109,10.523,4.484Z" transform="translate(-65.021 -17.247)" fill="#fff"/>
        <path id="Trazado_878295" data-name="Trazado 878295" d="M336.793,106.543l-1.627-.694,27.185-19.9Z" transform="translate(-67.254 -17.247)" fill="#19365a"/>
        <g id="Grupo_1101506" data-name="Grupo 1101506">
          <g id="Grupo_1101505" data-name="Grupo 1101505" clip-path="url(#clip-path)">
            <path id="Trazado_878296" data-name="Trazado 878296" d="M251.694,136.056h-.006c-.75-.014-1.517-.051-2.283-.11a.339.339,0,0,1-.313-.365.335.335,0,0,1,.365-.313c.752.057,1.508.093,2.244.107a.34.34,0,0,1-.006.68m2.266-.026a.34.34,0,0,1-.015-.679c.747-.032,1.5-.09,2.237-.171a.337.337,0,0,1,.376.3.341.341,0,0,1-.3.376c-.754.082-1.522.141-2.282.173h-.014m-6.782-.314-.043,0c-.739-.1-1.5-.211-2.257-.345a.34.34,0,0,1,.119-.67c.747.132,1.495.246,2.223.34a.34.34,0,0,1-.042.677m11.284-.184a.34.34,0,0,1-.062-.674c.74-.134,1.477-.295,2.189-.479a.34.34,0,0,1,.17.659c-.729.187-1.482.352-2.237.488a.332.332,0,0,1-.061.006m-15.745-.6a.381.381,0,0,1-.073-.008q-1.111-.246-2.217-.534a.34.34,0,0,1,.172-.659q1.092.285,2.191.528a.34.34,0,0,1-.074.672m43.526-.5a.34.34,0,0,1,0-.679q1.123-.007,2.252-.059a.316.316,0,0,1,.355.324.34.34,0,0,1-.324.356q-1.14.053-2.279.059Zm-23.4-.03a.34.34,0,0,1-.11-.662c.71-.242,1.411-.514,2.086-.809a.34.34,0,0,1,.271.623c-.691.3-1.41.58-2.137.829a.355.355,0,0,1-.11.018m21.131,0h-.011c-.787-.026-1.554-.07-2.278-.128a.34.34,0,0,1-.311-.366.334.334,0,0,1,.366-.312c.747.061,1.5.1,2.246.127a.34.34,0,0,1-.012.679m6.793-.18a.34.34,0,0,1-.03-.679q1.121-.1,2.237-.248a.349.349,0,0,1,.382.293.34.34,0,0,1-.293.381q-1.131.151-2.267.251l-.03,0m-11.306-.194a.326.326,0,0,1-.048,0c-.775-.109-1.533-.241-2.254-.394a.34.34,0,0,1,.141-.665c.707.149,1.448.28,2.208.386a.34.34,0,0,1-.046.677m-41.132-.234a.338.338,0,0,1-.1-.014q-1.091-.325-2.173-.68a.34.34,0,0,1,.213-.646q1.072.353,2.153.675a.34.34,0,0,1-.1.666m56.93-.17a.34.34,0,0,1-.06-.675c.738-.133,1.48-.285,2.2-.452a.34.34,0,0,1,.153.663c-.734.169-1.487.322-2.236.457a.311.311,0,0,1-.06.006m-20.225-.546a.327.327,0,0,1-.1-.015c-.746-.225-1.474-.482-2.165-.765a.34.34,0,1,1,.257-.629c.671.275,1.38.525,2.1.743a.34.34,0,0,1-.1.666m24.637-.472a.34.34,0,0,1-.093-.667c.726-.208,1.448-.434,2.143-.674a.34.34,0,1,1,.221.643c-.707.244-1.44.474-2.179.684a.338.338,0,0,1-.093.014m-32.682-.017a.34.34,0,0,1-.163-.639c.66-.361,1.3-.751,1.909-1.159a.34.34,0,1,1,.38.564c-.624.42-1.285.822-1.962,1.192a.336.336,0,0,1-.164.042m3.863-1.237a.349.349,0,0,1-.164-.042,15.087,15.087,0,0,1-1.942-1.264.34.34,0,1,1,.415-.538,14.524,14.524,0,0,0,1.855,1.206.34.34,0,0,1-.165.637m33.1-.225a.34.34,0,0,1-.129-.655c.7-.286,1.386-.593,2.049-.914a.34.34,0,0,1,.3.611c-.676.328-1.378.641-2.088.932a.336.336,0,0,1-.129.026m-33.213-1.072a.34.34,0,0,1-.218-.6,15.179,15.179,0,0,0,1.6-1.532.34.34,0,0,1,.508.452,15.837,15.837,0,0,1-1.671,1.6.337.337,0,0,1-.217.078m37.287-.9a.34.34,0,0,1-.168-.635c.657-.372,1.3-.767,1.913-1.17a.34.34,0,0,1,.375.568c-.625.412-1.282.815-1.952,1.194a.342.342,0,0,1-.168.044m-40.717-.586a.339.339,0,0,1-.258-.119,9.523,9.523,0,0,1-.758-1.012,8.077,8.077,0,0,1-.532-.95.34.34,0,0,1,.614-.292,7.711,7.711,0,0,0,.488.873,8.849,8.849,0,0,0,.7.939.34.34,0,0,1-.258.561m6.4-1.9a.337.337,0,0,1-.168-.045.341.341,0,0,1-.128-.464,7.515,7.515,0,0,0,.8-2.006.336.336,0,0,1,.408-.254.339.339,0,0,1,.254.408,8.185,8.185,0,0,1-.87,2.189.34.34,0,0,1-.3.173m38.1-.006a.34.34,0,0,1-.207-.609c.595-.458,1.176-.939,1.725-1.43a.34.34,0,1,1,.453.507c-.562.5-1.156.994-1.764,1.461a.335.335,0,0,1-.207.071m-46.4-2.133a.34.34,0,0,1-.335-.289,7.331,7.331,0,0,1-.085-1.1,6.647,6.647,0,0,1,.121-1.269.334.334,0,0,1,.4-.269.339.339,0,0,1,.268.4,5.943,5.943,0,0,0-.109,1.138,6.822,6.822,0,0,0,.078,1,.339.339,0,0,1-.285.387.377.377,0,0,1-.052,0m9.223-2.21a.341.341,0,0,1-.336-.289,5.512,5.512,0,0,0-.7-2,.34.34,0,0,1,.584-.349,6.22,6.22,0,0,1,.794,2.248.34.34,0,0,1-.285.386.284.284,0,0,1-.052,0m-8.316-2.116a.34.34,0,0,1-.277-.538,5.663,5.663,0,0,1,1.783-1.6.34.34,0,0,1,.337.59,4.971,4.971,0,0,0-1.567,1.4.34.34,0,0,1-.277.141m6-1.605a.335.335,0,0,1-.173-.048,3.548,3.548,0,0,0-1.836-.492c-.048,0-.1,0-.142,0a.32.32,0,0,1-.356-.325.34.34,0,0,1,.325-.355c.066,0,.127,0,.2,0a4.222,4.222,0,0,1,2.159.588.34.34,0,0,1-.173.632" transform="translate(-47.321 -23.551)" fill="#244e80"/>
            <path id="Trazado_878297" data-name="Trazado 878297" d="M245.815,266.818l-25.328-2.771,3.35-30.633a6.464,6.464,0,0,1,7.106-5.7l12.518,1.369a6.463,6.463,0,0,1,5.7,7.106Z" transform="translate(-44.243 -45.684)" fill="#19365a"/>
            <path id="Trazado_878298" data-name="Trazado 878298" d="M211.663,220.884a14.747,14.747,0,0,1-6.421-3.934c-4.216-4.28-6.187-10.8-5.861-19.392v-.027a60.592,60.592,0,0,0-8.973-.321c-.546,14.343,4.492,22.383,8.883,26.6a23,23,0,0,0,10.513,5.944,4.611,4.611,0,0,0,.91.092,4.529,4.529,0,0,0,.949-8.962" transform="translate(-38.199 -39.564)" fill="#a05e47"/>
            <path id="Trazado_878299" data-name="Trazado 878299" d="M211.459,234.3A4.7,4.7,0,0,0,217,230.656a4.653,4.653,0,0,0-3.624-5.51,15.231,15.231,0,0,1-6.628-4.061,17.956,17.956,0,0,1-2.018-2.467l-6.722,6.65a26.3,26.3,0,0,0,2.6,2.9,23.723,23.723,0,0,0,10.85,6.135" transform="translate(-39.732 -43.868)" fill="#1a97a4"/>
            <path id="Trazado_878300" data-name="Trazado 878300" d="M199.133,191.252a2.186,2.186,0,0,0-.368-1.082.8.8,0,0,0-1.023-.24c-.488.336-.226,1.119-.472,1.658a1.321,1.321,0,0,1-1.083.668,9.365,9.365,0,0,1-1.329-.042,4.577,4.577,0,0,0-4.5,3.735,1.576,1.576,0,0,0,.172,1.161,1.919,1.919,0,0,0,1.352.592,17.977,17.977,0,0,0,4.062.285c1.222-.1,3.244-.439,3.44-1.854a18.4,18.4,0,0,0-.253-4.882" transform="translate(-38.19 -38.091)" fill="#a05e47"/>
            <path id="Trazado_878301" data-name="Trazado 878301" d="M192.813,197.618a1.428,1.428,0,0,1-.161-.217.157.157,0,0,1,.267-.165.62.62,0,0,0,.473.352c.346.019.728-.369.846-.52a.159.159,0,0,1,.11-.06.157.157,0,0,1,.118.04.823.823,0,0,0,.7.291c.3-.074.456-.471.457-.475a.156.156,0,0,1,.132-.1.159.159,0,0,1,.149.074.711.711,0,0,0,.44.382.405.405,0,0,0,.3-.07c1.279-.918-.281-3.909-.3-3.939a.157.157,0,1,1,.277-.147c.07.133,1.7,3.264.208,4.336a.726.726,0,0,1-.541.13.858.858,0,0,1-.5-.313.95.95,0,0,1-.549.427,1.011,1.011,0,0,1-.868-.259,1.438,1.438,0,0,1-1,.518.809.809,0,0,1-.563-.284" transform="translate(-38.652 -38.723)" fill="#632a1a"/>
            <path id="Trazado_878302" data-name="Trazado 878302" d="M196.178,197a.153.153,0,0,1-.039-.082,21.98,21.98,0,0,0-.907-3.826.156.156,0,0,1,.066-.211.154.154,0,0,1,.211.066,21.581,21.581,0,0,1,.939,3.922.157.157,0,0,1-.27.13" transform="translate(-39.171 -38.7)" fill="#632a1a"/>
            <path id="Trazado_878303" data-name="Trazado 878303" d="M194.4,197.337a.151.151,0,0,1-.038-.078,21.455,21.455,0,0,0-.963-3.715.157.157,0,1,1,.273-.154,20.907,20.907,0,0,1,1,3.814.157.157,0,0,1-.269.133" transform="translate(-38.802 -38.789)" fill="#632a1a"/>
            <path id="Trazado_878304" data-name="Trazado 878304" d="M198.311,196.434a.16.16,0,0,1-.036-.149.773.773,0,0,1,.427-.488,6.849,6.849,0,0,1-.425-1.228,2.543,2.543,0,0,1,.044-1.37.961.961,0,0,1,.315-.478.852.852,0,0,1,.854-.055,1.766,1.766,0,0,1,.606.517,4.8,4.8,0,0,1,.949,1.88.157.157,0,0,1-.305.074,4.475,4.475,0,0,0-.886-1.755,1.446,1.446,0,0,0-.494-.43.534.534,0,0,0-.535.021.657.657,0,0,0-.207.329,2.234,2.234,0,0,0-.034,1.2,6.653,6.653,0,0,0,.42,1.2.253.253,0,0,1-.157.372.457.457,0,0,0-.269.294.157.157,0,0,1-.193.109.164.164,0,0,1-.073-.046" transform="translate(-39.772 -38.642)" fill="#632a1a"/>
            <path id="Trazado_878305" data-name="Trazado 878305" d="M207.552,232.505l2.189,28.321a28.031,28.031,0,0,0,15.423,2.432c9.027-1.05,11-5.038,11-5.038s-1.56-27.789-1.823-28.064-1.33-9.407-14.391-7.541-12.4,9.889-12.4,9.889" transform="translate(-41.646 -44.619)" fill="#26aab7"/>
            <path id="Trazado_878306" data-name="Trazado 878306" d="M231.141,236.441s7.243,12.216,2.584,25.78c0,0,7.452-10.733,7.176-14.271s-9.761-11.509-9.761-11.509" transform="translate(-46.38 -47.444)" fill="#1a97a4"/>
            <path id="Trazado_878307" data-name="Trazado 878307" d="M247.38,243.748,236.722,226.83a4.532,4.532,0,0,0-7.669,4.83L238.4,246.5l-6.569,14.289a11.3,11.3,0,0,0,8.236,3.787l7.594-16.52a4.534,4.534,0,0,0-.284-4.308" transform="translate(-45.821 -45.09)" fill="#a05e47"/>
            <path id="Trazado_878308" data-name="Trazado 878308" d="M227.988,216.438l-2.829,7.331-4.564,1.773-2.51-3.265,1.7-4.409Z" transform="translate(-43.761 -43.43)" fill="#a05e47"/>
            <path id="Trazado_878309" data-name="Trazado 878309" d="M225.691,220.542l-6.478-.313-.906,2.347c3.37.808,7.384-2.034,7.384-2.034" transform="translate(-43.805 -44.191)" fill="#774031"/>
            <path id="Trazado_878310" data-name="Trazado 878310" d="M219.787,217.681l-3.029-1.169a5.061,5.061,0,0,1-2.891-6.524l3.233-8.377a5.061,5.061,0,0,1,6.524-2.892l3.029,1.169a5.062,5.062,0,0,1,2.891,6.525l-3.232,8.377a5.062,5.062,0,0,1-6.525,2.891" transform="translate(-42.847 -39.807)" fill="#a05e47"/>
            <g id="Grupo_1101504" data-name="Grupo 1101504" transform="translate(174.721 158.576)" opacity="0.3">
              <g id="Grupo_1101503" data-name="Grupo 1101503">
                <g id="Grupo_1101502" data-name="Grupo 1101502" clip-path="url(#clip-path-5)">
                  <path id="Trazado_878311" data-name="Trazado 878311" d="M227.666,199.888l-3.029-1.169a5.067,5.067,0,0,0-6.057,1.973,4.677,4.677,0,0,0,1.772,1.706,7.723,7.723,0,0,0,4.568.594,4.951,4.951,0,0,1,1.811-.041,1.393,1.393,0,0,1,1.132,1.25,1.608,1.608,0,0,1-.818,1.2,3.136,3.136,0,0,0-.743.563,2.139,2.139,0,0,0-.365,1.126,6.04,6.04,0,0,0,.5,3.774,6.1,6.1,0,0,0,1.43,1.536c.1.078.193.155.293.23l2.4-6.216a5.062,5.062,0,0,0-2.891-6.525" transform="translate(-218.581 -198.383)" fill="#171e26"/>
                </g>
              </g>
            </g>
            <path id="Trazado_878312" data-name="Trazado 878312" d="M232.622,215.8a1.635,1.635,0,1,1-.937-2.113,1.634,1.634,0,0,1,.937,2.113" transform="translate(-46.043 -42.856)" fill="#a05e47"/>
            <path id="Trazado_878313" data-name="Trazado 878313" d="M236.722,226.83a4.532,4.532,0,0,0-7.669,4.83l4.8,7.624a36.982,36.982,0,0,0,8.066-4.2Z" transform="translate(-45.821 -45.09)" fill="#26aab7"/>
            <path id="Trazado_878314" data-name="Trazado 878314" d="M240.014,275.065a3.419,3.419,0,0,1-.948,1.337,1.192,1.192,0,0,1-1.516-.01c-.2-.208-.305-.521-.572-.628-.335-.133-.679.142-1.026.242a1.385,1.385,0,0,1-1.562-.911,1.1,1.1,0,0,0-.31-.566c-.4-.275-1.011.25-1.406-.032-.3-.216-.217-.74-.514-.965-.161-.121-.384-.113-.568-.193a.858.858,0,0,1-.448-.841,2.515,2.515,0,0,1,.314-.957l.7-1.436a2.48,2.48,0,0,1,.512-.783,2.386,2.386,0,0,1,1.93-.341,10.728,10.728,0,0,1,3.711,1.049,5.357,5.357,0,0,1,2.308,2.212c.436.877-.207,2.011-.6,2.82" transform="translate(-46.381 -53.964)" fill="#a05e47"/>
            <path id="Trazado_878315" data-name="Trazado 878315" d="M34.7,267.253H9.22V236.436a6.463,6.463,0,0,1,6.444-6.443H28.256a6.463,6.463,0,0,1,6.443,6.443Z" transform="translate(-1.85 -46.15)" fill="#19365a"/>
            <path id="Trazado_878316" data-name="Trazado 878316" d="M40.744,229.839a4.535,4.535,0,0,1,6.057,2.109l7.045,14.568,16.548-6.157c.869,5.575,3.185,8.081,3.185,8.081L53.2,256.477a4.535,4.535,0,0,1-5.709-2.259L38.635,235.9a4.535,4.535,0,0,1,2.109-6.057" transform="translate(-7.662 -46.028)" fill="#a05e47"/>
            <path id="Trazado_878317" data-name="Trazado 878317" d="M50.64,259.136A4.524,4.524,0,0,0,53.8,259.1l7.547-2.977a26.015,26.015,0,0,1-6.174-7.257l-.731.272L51.711,243.5c-2.673-.926-7.435-1.061-10.574-1.035l6.953,14.377a4.522,4.522,0,0,0,2.55,2.294" transform="translate(-8.254 -48.652)" fill="#7f4637"/>
            <path id="Trazado_878318" data-name="Trazado 878318" d="M42.639,242.42l4.05,5.228,6.722-3.786-5.76-11.91a4.527,4.527,0,0,0-5.019-2.449l-.21.114Z" transform="translate(-8.512 -46.032)" fill="#d3afa5"/>
            <path id="Trazado_878319" data-name="Trazado 878319" d="M82.925,240.938a2.126,2.126,0,0,1,1.1-.077.772.772,0,0,1,.6.819c-.117.559-.91.62-1.3,1.039a1.271,1.271,0,0,0-.189,1.213,8.985,8.985,0,0,0,.534,1.165,4.41,4.41,0,0,1-1.636,5.392,1.516,1.516,0,0,1-1.1.281c-.476-.106-.779-.562-1.032-.98a17.329,17.329,0,0,1-1.772-3.5c-.368-1.122-.823-3.045.36-3.749a17.732,17.732,0,0,1,4.432-1.6" transform="translate(-15.597 -48.322)" fill="#a05e47"/>
            <path id="Trazado_878320" data-name="Trazado 878320" d="M80.844,249.656a1.4,1.4,0,0,0,.253.062.151.151,0,1,0,.046-.3.594.594,0,0,1-.49-.289,1.238,1.238,0,0,1,.146-.946.153.153,0,0,0,.012-.12.151.151,0,0,0-.08-.09c-.315-.148-.491-.321-.522-.517a.79.79,0,0,1,.251-.584.151.151,0,0,0-.081-.26.687.687,0,0,1-.5-.248.389.389,0,0,1-.05-.294c.337-1.48,3.578-1.213,3.611-1.21a.151.151,0,0,0,.026-.3c-.145-.013-3.536-.292-3.93,1.437a.694.694,0,0,0,.087.529.825.825,0,0,0,.466.329.922.922,0,0,0-.175.647.977.977,0,0,0,.556.675,1.384,1.384,0,0,0-.086,1.084.785.785,0,0,0,.463.394" transform="translate(-15.955 -49.068)" fill="#7f4637"/>
            <path id="Trazado_878321" data-name="Trazado 878321" d="M80.481,247.267a.15.15,0,0,0,.086,0,21.21,21.21,0,0,1,3.738-.626.151.151,0,0,0,.026-.3,20.811,20.811,0,0,0-3.836.632.151.151,0,0,0-.014.289" transform="translate(-16.129 -49.43)" fill="#7f4637"/>
            <path id="Trazado_878322" data-name="Trazado 878322" d="M80.869,248.975a.149.149,0,0,0,.084.006,20.633,20.633,0,0,1,3.661-.534.152.152,0,0,0,.035-.3,20.235,20.235,0,0,0-3.762.54.151.151,0,0,0-.018.289" transform="translate(-16.207 -49.79)" fill="#7f4637"/>
            <path id="Trazado_878323" data-name="Trazado 878323" d="M81.435,250.789a.15.15,0,0,0,.106,0,9.039,9.039,0,0,1,2.942-.574.151.151,0,0,0,.009-.3,9.2,9.2,0,0,0-3.061.594.153.153,0,0,0-.086.2.157.157,0,0,0,.091.087" transform="translate(-16.32 -50.147)" fill="#7f4637"/>
            <path id="Trazado_878324" data-name="Trazado 878324" d="M80.132,244.924a.152.152,0,0,0,.145-.024.739.739,0,0,0,.275-.561,6.621,6.621,0,0,0,1.249-.082,2.446,2.446,0,0,0,1.2-.551.929.929,0,0,0,.307-.459.824.824,0,0,0-.271-.78,1.711,1.711,0,0,0-.686-.345,4.622,4.622,0,0,0-2.026-.139.151.151,0,0,0-.125.173.152.152,0,0,0,.173.125,4.317,4.317,0,0,1,1.891.131,1.4,1.4,0,0,1,.567.278.517.517,0,0,1,.182.483.631.631,0,0,1-.215.306,2.146,2.146,0,0,1-1.056.48,6.392,6.392,0,0,1-1.223.075.245.245,0,0,0-.273.279.438.438,0,0,1-.161.349.151.151,0,0,0-.024.213.158.158,0,0,0,.067.048" transform="translate(-16.059 -48.545)" fill="#7f4637"/>
            <path id="Trazado_878325" data-name="Trazado 878325" d="M43.7,235.683l-2.209,28.592a28.3,28.3,0,0,1-15.57,2.456c-9.113-1.06-11.109-5.087-11.109-5.087s1.574-28.055,1.839-28.333,1.343-9.5,14.53-7.614,12.52,9.985,12.52,9.985" transform="translate(-2.972 -45.238)" fill="#eacfc5"/>
            <path id="Trazado_878326" data-name="Trazado 878326" d="M31.478,215.517v7.933l4.747,3.808,2.458-2.643v-4.771Z" transform="translate(-6.316 -43.245)" fill="#a05e47"/>
            <path id="Trazado_878327" data-name="Trazado 878327" d="M32.717,220.723l6.215,2.059v2.54c-3.468-.463-6.215-4.6-6.215-4.6" transform="translate(-6.565 -44.29)" fill="#7f4637"/>
            <path id="Trazado_878328" data-name="Trazado 878328" d="M37.358,219.933h1.707a5.9,5.9,0,0,0,5.88-5.88v-7.495a5.9,5.9,0,0,0-5.88-5.88H37.358a5.9,5.9,0,0,0-5.88,5.88v7.495a5.9,5.9,0,0,0,5.88,5.88" transform="translate(-6.316 -40.268)" fill="#a05e47"/>
            <path id="Trazado_878329" data-name="Trazado 878329" d="M31.161,210.846c.217.537.936.967,1.359.572a1.1,1.1,0,0,0,.27-.564,8.639,8.639,0,0,0,.142-3.444c-.217-1.342-.721-2.842.046-3.965a2.108,2.108,0,0,1,2.36-.78c.437.152.815.448,1.255.588a6.391,6.391,0,0,0,2.728-.211c1.683-.217,3.515.428,5.025-.343a2.989,2.989,0,0,0,1.575-2.221,1.365,1.365,0,0,0-1.286-1.654c-1.172-.215-2.4.344-3.553.049-.719-.184-1.338-.686-2.071-.8-1.023-.161-1.99.457-3,.691-1.03.238-2.118.073-3.15.3-2.155.472-3.631,2.6-4.03,4.767a16.976,16.976,0,0,0,.519,6.554q.246,1.161.493,2.322a2.528,2.528,0,0,0,.875,1.711.483.483,0,0,0,.3.094c.289-.029.368-.408.363-.7a20.522,20.522,0,0,0-.564-4.226c.171.4.179.853.345,1.262" transform="translate(-5.754 -39.739)" fill="#171c27"/>
            <path id="Trazado_878330" data-name="Trazado 878330" d="M29.515,214.162a1.651,1.651,0,1,0,1.651-1.651,1.651,1.651,0,0,0-1.651,1.651" transform="translate(-5.922 -42.642)" fill="#a05e47"/>
            <path id="Trazado_878331" data-name="Trazado 878331" d="M55.486,261.169a.362.362,0,0,1,.328-.046.388.388,0,0,1,.138.218,1.654,1.654,0,0,0,1.314,1.114,1.11,1.11,0,0,0,1.214-1.048,1.839,1.839,0,0,0-.58-1.061,3.28,3.28,0,0,0,1.965,1.329.457.457,0,0,0,.281-.043.468.468,0,0,0,.175-.267,1.879,1.879,0,0,0-.174-1.532,2.445,2.445,0,0,0,.74.555.831.831,0,0,0,.874-.107c.357-.343.179-.938-.022-1.39q-.327-.736-.655-1.473a7.575,7.575,0,0,0-.882-1.611,5.835,5.835,0,0,0-2.526-1.7,12.753,12.753,0,0,0-6.379-.765,1.1,1.1,0,0,0-.405.113,1.128,1.128,0,0,0-.435.763,14.175,14.175,0,0,0,.1,7.041c.254.917.589,1.176,1.575,1.085a9.733,9.733,0,0,0,3.357-1.175" transform="translate(-10.045 -50.812)" fill="#a05e47"/>
            <path id="Trazado_878332" data-name="Trazado 878332" d="M22.9,228.042a4.536,4.536,0,0,1,4.928,4.1L29.3,248.262l17.654-.128a54.507,54.507,0,0,0-1.209,9.161l-20.549.066a4.535,4.535,0,0,1-4.549-4.123L18.8,232.97a4.533,4.533,0,0,1,4.1-4.928" transform="translate(-3.768 -45.755)" fill="#a05e47"/>
            <path id="Trazado_878333" data-name="Trazado 878333" d="M59.235,261.63a.227.227,0,0,1-.205-.131,21.829,21.829,0,0,0-1.6-2.893,1.6,1.6,0,0,0-1.337-.615.227.227,0,0,1-.045-.451,2.071,2.071,0,0,1,1.737.784,21.525,21.525,0,0,1,1.651,2.984.226.226,0,0,1-.11.3.228.228,0,0,1-.1.021" transform="translate(-11.207 -51.677)" fill="#7f4637"/>
            <path id="Trazado_878334" data-name="Trazado 878334" d="M61.809,260.536a.226.226,0,0,1-.207-.133l-1.416-3.122a2.685,2.685,0,0,0-1.655-1.239.226.226,0,1,1,.074-.447,3.094,3.094,0,0,1,1.986,1.483l1.424,3.138a.227.227,0,0,1-.206.32" transform="translate(-11.707 -51.287)" fill="#7f4637"/>
            <path id="Trazado_878335" data-name="Trazado 878335" d="M27.923,231.894a4.7,4.7,0,1,0-9.355.853l1.225,13.416,9.324-1.194Z" transform="translate(-3.722 -45.675)" fill="#eacfc5"/>
            <path id="Trazado_878336" data-name="Trazado 878336" d="M19.81,247.427a.117.117,0,0,1-.071-.025.112.112,0,0,1-.042-.078l-1.062-11.635a.113.113,0,0,1,.1-.123.114.114,0,0,1,.123.1l1.051,11.518c.914-.117,6.97-.89,9.1-1.165l-1.145-12.537a.113.113,0,1,1,.225-.021l1.154,12.646a.113.113,0,0,1-.1.122c-2.188.282-9.324,1.193-9.324,1.193H19.81" transform="translate(-3.739 -46.826)" fill="#a5867c"/>
            <path id="Trazado_878337" data-name="Trazado 878337" d="M32.328,232.309a.093.093,0,0,1-.026,0,.11.11,0,0,1-.075-.059l-3.2-6.328a.115.115,0,0,1,.05-.153.116.116,0,0,1,.152.051l3.136,6.206,3.316-2.528a.112.112,0,0,1,.134,0L39,231.773a13.879,13.879,0,0,0,1.109-3.883.114.114,0,1,1,.227,0,14.67,14.67,0,0,1-1.184,4.1.114.114,0,0,1-.074.065.118.118,0,0,1-.1-.018l-3.227-2.313L32.4,232.286a.113.113,0,0,1-.069.023" transform="translate(-5.823 -45.3)" fill="#a5867c"/>
            <path id="Trazado_878338" data-name="Trazado 878338" d="M38.813,241.358H36.577a.116.116,0,0,1-.081-.034.111.111,0,0,1-.032-.082l.193-10.27a.113.113,0,0,1,.113-.111h0a.114.114,0,0,1,.111.116l-.19,10.155h2.121a.113.113,0,1,1,0,.226" transform="translate(-7.317 -46.324)" fill="#a5867c"/>
            <path id="Trazado_878339" data-name="Trazado 878339" d="M132.552,264.515l-25.237,3.507L103.074,237.5a6.463,6.463,0,0,1,5.5-7.269l12.473-1.733a6.464,6.464,0,0,1,7.269,5.5Z" transform="translate(-20.67 -45.837)" fill="#19365a"/>
            <path id="Trazado_878340" data-name="Trazado 878340" d="M134.482,200.59a10.374,10.374,0,0,0-3.7-.765,11.473,11.473,0,0,0-3.686.193,6.386,6.386,0,0,0-3.7,3.554,14.689,14.689,0,0,0-1.038,3.594c-.209,1.169-.479,2.308-.622,3.491-.308,2.55-.332,5.128-.744,7.666-.756,4.655-2.787,8.993-4.157,13.506s-2.048,9.535-.131,13.844a2.288,2.288,0,0,0,.677.97,2.447,2.447,0,0,0,1.03.353,38.007,38.007,0,0,0,6.832.578,6.245,6.245,0,0,0,2.432-.366,4.934,4.934,0,0,0,1.711-1.329c1.823-2.074,2.58-4.851,3.282-7.523l2.019-7.682c1.878-7.148,3.768-14.372,3.979-21.76.072-2.518-.176-5.325-2.028-7.033a7.119,7.119,0,0,0-2.157-1.291" transform="translate(-23.18 -40.086)" fill="#503972"/>
            <path id="Trazado_878341" data-name="Trazado 878341" d="M165.339,239.81C146.775,242.5,141.244,229.3,141,228.689a3.721,3.721,0,0,0-6.946,2.67,25.6,25.6,0,0,0,6.955,9.4c4.417,3.833,12.195,8.017,24.361,6.55.337-.041.68-.086,1.025-.136a20.676,20.676,0,0,0-1.059-7.365" transform="translate(-26.851 -45.412)" fill="#dba38d"/>
            <path id="Trazado_878342" data-name="Trazado 878342" d="M176.351,241a2.658,2.658,0,0,1,1.514-.259c.507.116.942.681.724,1.153-.186.4-.777.68-.639,1.1a.709.709,0,0,0,.263.314c1.366,1.062,3.193,1.266,4.786,1.94a2.554,2.554,0,0,1,1.642,1.55,1.913,1.913,0,0,1-.483,1.648,4.333,4.333,0,0,1-1.457,1.008,12.224,12.224,0,0,1-9.211.465,2.4,2.4,0,0,1-.918-.5,2.658,2.658,0,0,1-.514-.886,8.448,8.448,0,0,1-.627-1.938,4.722,4.722,0,0,1,1.281-3.818c1.08-1.185,2.249-1.241,3.64-1.775" transform="translate(-34.39 -48.3)" fill="#dba38d"/>
            <path id="Trazado_878343" data-name="Trazado 878343" d="M144.575,233.9A17.635,17.635,0,0,1,141,228.689a3.72,3.72,0,0,0-6.945,2.67,24.781,24.781,0,0,0,5.153,7.686,26.117,26.117,0,0,0,5.365-5.148" transform="translate(-26.851 -45.412)" fill="#f75454"/>
            <path id="Trazado_878344" data-name="Trazado 878344" d="M139.256,239.733a.123.123,0,0,1-.1-.037,24.941,24.941,0,0,1-5.179-7.728.124.124,0,0,1,.072-.16.123.123,0,0,1,.16.072,24.659,24.659,0,0,0,5.051,7.566,26.2,26.2,0,0,0,5.187-4.974,17.736,17.736,0,0,1-3.523-5.172.124.124,0,0,1,.231-.091,17.492,17.492,0,0,0,3.545,5.167.124.124,0,0,1,.01.161,26.414,26.414,0,0,1-5.392,5.174.123.123,0,0,1-.058.022" transform="translate(-26.881 -45.977)" fill="#bf4040"/>
            <path id="Trazado_878345" data-name="Trazado 878345" d="M139.083,232.787a43.607,43.607,0,0,1,.118,7.587c-.134,5.591.05,11.313,1.9,16.618.628,1.8,1.21,3.408-.209,4.984-2.82,3.135-9.487,3.861-13.367,3.976-2.477.074-10.739-.069-11.793-3.531-.341-1.124.9-3.673,1.119-4.874a48.522,48.522,0,0,0,.207-8.182,45.479,45.479,0,0,0-.859-10.486,13.73,13.73,0,0,1,.723-9.216,7.889,7.889,0,0,1,3.238-3.8,14.287,14.287,0,0,1,6.618-1.4c2.6-.01,6.025.126,8.367,1.382,2.208,1.183,3.413,4.1,3.848,6.424q.049.263.09.526" transform="translate(-23.211 -45.039)" fill="#f75454"/>
            <path id="Trazado_878346" data-name="Trazado 878346" d="M133.128,219.842l.134,4.785s.033,2.3-3.5,2.269A3.57,3.57,0,0,1,126,223.661l-.224-7.955Z" transform="translate(-25.239 -43.283)" fill="#eeb399"/>
            <path id="Trazado_878347" data-name="Trazado 878347" d="M127.164,220.69l6.291,1.89.072,2.547c-3.491-.367-6.363-4.436-6.363-4.436" transform="translate(-25.517 -44.283)" fill="#c18b76"/>
            <path id="Trazado_878348" data-name="Trazado 878348" d="M130.978,219.729l3.416-.1a5.063,5.063,0,0,0,4.9-5.187l-.26-9.22a5.061,5.061,0,0,0-5.186-4.9l-3.416.1a5.062,5.062,0,0,0-4.9,5.187l.26,9.22a5.06,5.06,0,0,0,5.186,4.9" transform="translate(-25.189 -40.196)" fill="#eeb399"/>
            <path id="Trazado_878349" data-name="Trazado 878349" d="M123.778,214.188a1.656,1.656,0,1,0,1.608-1.7,1.655,1.655,0,0,0-1.608,1.7" transform="translate(-24.837 -42.637)" fill="#eeb399"/>
            <path id="Trazado_878350" data-name="Trazado 878350" d="M139.279,202.654s-5.7,7.734-14.243,7.206c0,0-1.89-10.209,6.421-10.512a9.635,9.635,0,0,1,7.822,3.306" transform="translate(-25.052 -39.995)" fill="#503972"/>
            <path id="Trazado_878351" data-name="Trazado 878351" d="M142.758,251.095c-17.918-5.544-17.245-19.84-17.2-20.493a3.721,3.721,0,0,0-7.419-.572,25.6,25.6,0,0,0,2.244,11.478c2.343,5.358,7.569,12.476,19.187,16.376q.483.163.984.318a20.682,20.682,0,0,0,2.205-7.107" transform="translate(-23.699 -45.47)" fill="#eeb399"/>
            <path id="Trazado_878352" data-name="Trazado 878352" d="M126.546,236.838a17.632,17.632,0,0,1-.99-6.237,3.72,3.72,0,0,0-7.419-.572,24.761,24.761,0,0,0,1.352,9.154,26.15,26.15,0,0,0,7.056-2.345" transform="translate(-23.699 -45.47)" fill="#f75454"/>
            <path id="Trazado_878353" data-name="Trazado 878353" d="M119.419,240.129a.125.125,0,0,1-.078-.078,24.964,24.964,0,0,1-1.359-9.2.125.125,0,0,1,.134-.114.123.123,0,0,1,.114.133,24.644,24.644,0,0,0,1.313,9,26.178,26.178,0,0,0,6.821-2.265,17.738,17.738,0,0,1-.962-6.183.124.124,0,1,1,.248.016,17.5,17.5,0,0,0,.982,6.189.123.123,0,0,1-.06.149,26.418,26.418,0,0,1-7.091,2.357.123.123,0,0,1-.062,0" transform="translate(-23.667 -46.299)" fill="#bf4040"/>
            <path id="Trazado_878354" data-name="Trazado 878354" d="M151.859,257.224a2.663,2.663,0,0,1,1.479.416.919.919,0,0,1,.158,1.352c-.341.285-.993.281-1.05.721a.713.713,0,0,0,.1.4c.778,1.546,2.34,2.515,3.489,3.808a2.552,2.552,0,0,1,.817,2.1,1.914,1.914,0,0,1-1.144,1.281,4.31,4.31,0,0,1-1.749.284,12.222,12.222,0,0,1-8.519-3.535,2.4,2.4,0,0,1-.611-.85,2.652,2.652,0,0,1-.084-1.021,8.355,8.355,0,0,1,.266-2.019,4.721,4.721,0,0,1,2.8-2.9c1.484-.607,2.563-.155,4.049-.04" transform="translate(-29.042 -51.56)" fill="#eeb399"/>
            <path id="Trazado_878355" data-name="Trazado 878355" d="M356.323,265.7H330.844V234.88a6.463,6.463,0,0,1,6.444-6.443H349.88a6.462,6.462,0,0,1,6.443,6.443Z" transform="translate(-66.387 -45.838)" fill="#19365a"/>
            <path id="Trazado_878356" data-name="Trazado 878356" d="M317.8,230.455a4.491,4.491,0,0,0-6.352-.062l-11.445,11.222-13.478-11.089c-2.676,4.906-5.634,6.476-5.634,6.476l16.375,14.115a4.492,4.492,0,0,0,6.078-.2l14.394-14.115a4.491,4.491,0,0,0,.062-6.352" transform="translate(-56.364 -45.973)" fill="#eeb399"/>
            <path id="Trazado_878357" data-name="Trazado 878357" d="M322.758,230.455a4.491,4.491,0,0,0-6.352-.062L305.589,241c.853,2.151,2.53,5.738,4.88,7.8L322.7,236.807a4.491,4.491,0,0,0,.062-6.352" transform="translate(-61.319 -45.973)" fill="#638dce"/>
            <path id="Trazado_878358" data-name="Trazado 878358" d="M282.456,226.792a2.088,2.088,0,0,0-1-.44.764.764,0,0,0-.83.564c-.078.56.64.882.861,1.4a1.262,1.262,0,0,1-.229,1.193,8.972,8.972,0,0,1-.889.906,4.37,4.37,0,0,0-.28,5.575,1.508,1.508,0,0,0,.927.629,1.827,1.827,0,0,0,1.289-.568,17.145,17.145,0,0,0,2.825-2.671c.719-.924,1.787-2.564.919-3.617a17.564,17.564,0,0,0-3.6-2.975" transform="translate(-56.028 -45.419)" fill="#eeb399"/>
            <path id="Trazado_878359" data-name="Trazado 878359" d="M282.716,235.624a1.345,1.345,0,0,1-.257-.026.15.15,0,1,1,.057-.294.591.591,0,0,0,.553-.105,1.23,1.23,0,0,0,.181-.93.146.146,0,0,1,.029-.116.149.149,0,0,1,.1-.058.6.6,0,0,0,.621-.935.149.149,0,0,1,.014-.158.152.152,0,0,1,.149-.057.678.678,0,0,0,.552-.062.39.39,0,0,0,.146-.258c.181-1.492-2.93-2.328-2.961-2.336a.15.15,0,1,1,.076-.29c.139.037,3.394.912,3.182,2.655a.692.692,0,0,1-.258.464.815.815,0,0,1-.544.151.913.913,0,0,1-.054.662.967.967,0,0,1-.743.443,1.378,1.378,0,0,1-.283,1.04.776.776,0,0,1-.564.212" transform="translate(-56.544 -46.15)" fill="#b57359"/>
            <path id="Trazado_878360" data-name="Trazado 878360" d="M283.856,233.514a.148.148,0,0,1-.082-.025,21.064,21.064,0,0,0-3.276-1.834.149.149,0,0,1,.078-.289,20.556,20.556,0,0,1,3.364,1.874.15.15,0,0,1-.083.274" transform="translate(-56.262 -46.425)" fill="#b57359"/>
            <path id="Trazado_878361" data-name="Trazado 878361" d="M282.94,234.984a.147.147,0,0,1-.08-.023,20.429,20.429,0,0,0-3.234-1.723.15.15,0,1,1,.068-.292,19.992,19.992,0,0,1,3.326,1.763.149.149,0,0,1-.08.276" transform="translate(-56.086 -46.742)" fill="#b57359"/>
            <path id="Trazado_878362" data-name="Trazado 878362" d="M281.971,236.544a.151.151,0,0,1-.1-.036,8.973,8.973,0,0,0-2.552-1.52.15.15,0,1,1,.094-.285,9.124,9.124,0,0,1,2.654,1.578.149.149,0,0,1-.1.262" transform="translate(-56.028 -47.094)" fill="#b57359"/>
            <path id="Trazado_878363" data-name="Trazado 878363" d="M285.059,231.627a.15.15,0,0,1-.128-.07.738.738,0,0,1-.069-.615,6.587,6.587,0,0,1-1.137-.495,2.431,2.431,0,0,1-.935-.916.919.919,0,0,1-.132-.53.815.815,0,0,1,.513-.636,1.687,1.687,0,0,1,.755-.092,4.593,4.593,0,0,1,1.936.548.15.15,0,1,1-.146.262,4.268,4.268,0,0,0-1.807-.511,1.371,1.371,0,0,0-.621.07.507.507,0,0,0-.331.389.625.625,0,0,0,.1.357,2.131,2.131,0,0,0,.823.8,6.359,6.359,0,0,0,1.115.48.242.242,0,0,1,.161.352.432.432,0,0,0,.034.379.151.151,0,0,1-.048.206.157.157,0,0,1-.079.022" transform="translate(-56.717 -45.804)" fill="#b57359"/>
            <path id="Trazado_878364" data-name="Trazado 878364" d="M314.784,236.088l2.189,28.321a28.031,28.031,0,0,0,15.422,2.432c9.027-1.05,11-5.038,11-5.038s-1.56-27.789-1.823-28.064-1.33-9.407-14.391-7.541-12.4,9.889-12.4,9.889" transform="translate(-63.163 -45.338)" fill="#7298e2"/>
            <rect id="Rectángulo_402370" data-name="Rectángulo 402370" width="296.289" height="7.021" transform="translate(0 215.988)" fill="#7d6eb2"/>
            <path id="Trazado_878365" data-name="Trazado 878365" d="M31.979,271.463h39.1a.4.4,0,0,0,.4-.4V269.92a.4.4,0,0,0-.4-.4h-39.1a.4.4,0,0,0-.4.4v1.144a.4.4,0,0,0,.4.4" transform="translate(-6.337 -54.081)" fill="#0d2638"/>
            <path id="Trazado_878366" data-name="Trazado 878366" d="M57.44,266.25H90a2.943,2.943,0,0,0,2.792-2.411L95.6,246.1a2.011,2.011,0,0,0-2.029-2.411H61.013a2.943,2.943,0,0,0-2.792,2.411l-2.81,17.74a2.011,2.011,0,0,0,2.029,2.411" transform="translate(-11.113 -48.898)" fill="#62529b"/>
            <path id="Trazado_878367" data-name="Trazado 878367" d="M83.687,256.988a3,3,0,1,1-3-3,3,3,0,0,1,3,3" transform="translate(-15.589 -50.965)" fill="#fff"/>
            <path id="Trazado_878368" data-name="Trazado 878368" d="M341.582,241.029s2,23.915-3.862,24.385-15.744,0-15.744,0,11.929-2.285,13.236-8.921,6.37-15.463,6.37-15.463" transform="translate(-64.607 -48.365)" fill="#3f649e"/>
            <path id="Trazado_878369" data-name="Trazado 878369" d="M328.93,233.093c4.561-.642,5.205-4.737,5.2-7.038a20.833,20.833,0,0,0-5.295.143,23.313,23.313,0,0,0-5.831,1.54c.14,1.939,1.01,6.047,5.925,5.356" transform="translate(-64.814 -45.338)" fill="#eeb399"/>
            <path id="Trazado_878370" data-name="Trazado 878370" d="M332.285,216.313v7.858l-3.62,3.3-3.517-2.143V220.6Z" transform="translate(-65.244 -43.405)" fill="#eeb399"/>
            <path id="Trazado_878371" data-name="Trazado 878371" d="M331.3,221.27l-6.157,2.039v2.516c3.436-.459,6.157-4.555,6.157-4.555" transform="translate(-65.244 -44.4)" fill="#cc957f"/>
            <path id="Trazado_878372" data-name="Trazado 878372" d="M325.681,220.486h-3.246a5.061,5.061,0,0,1-5.046-5.046v-8.979a5.061,5.061,0,0,1,5.046-5.047h3.246a5.061,5.061,0,0,1,5.046,5.047v8.979a5.061,5.061,0,0,1-5.046,5.046" transform="translate(-63.687 -40.415)" fill="#eeb399"/>
            <path id="Trazado_878373" data-name="Trazado 878373" d="M316.184,202.9a1.394,1.394,0,0,0-.4,1.413,1.305,1.305,0,0,0,.567.556,3.055,3.055,0,0,0,2.723.143.8.8,0,0,0-.01,1.025,1.51,1.51,0,0,0,.974.5,3.883,3.883,0,0,0,3.175-1.185,1.447,1.447,0,0,0,1.348,1.452c.663.022,1.3-.428,1.953-.288.19.321-.111.844.194,1.058a.533.533,0,0,0,.258.075c.615.06,1.35-.051,1.747.422.384.457.177,1.139.019,1.715a2.02,2.02,0,0,0,.062,1.586c.286.464,1.073.611,1.357.147.081-.132.11-.29.2-.419s.269-.219.393-.128a.354.354,0,0,1,.1.313,6.71,6.71,0,0,1-.694,1.929c-.239.645-.213,1.519.391,1.847a1.692,1.692,0,0,0,.592.159,2.555,2.555,0,0,0,1.869-.284,2.83,2.83,0,0,0,.85-1.605,1.757,1.757,0,0,0,.092-.71.6.6,0,0,0-.435-.518c-.284-.793.576-1.778.066-2.448a2.679,2.679,0,0,0-.415-.368,2.277,2.277,0,0,1-.691-1.428,10.33,10.33,0,0,1-.022-1.619,13.13,13.13,0,0,0-.321-3.125,3.1,3.1,0,0,0-.476-1.2,1.245,1.245,0,0,0-1.115-.537,3.2,3.2,0,0,0-1.282-1.982,1.938,1.938,0,0,0-2.254.062,1.006,1.006,0,0,1-.44.3.776.776,0,0,1-.415-.085c-1.24-.5-2.675-.929-3.876-.338a1.841,1.841,0,0,1-.556.225,1.628,1.628,0,0,1-.6-.1,1.656,1.656,0,0,0-1.4.154c-.435.326-.245.684-.281,1.115-.041.49-.313.46-.777.634a5.988,5.988,0,0,0-2.468,1.529" transform="translate(-63.35 -39.942)" fill="#171e26"/>
            <path id="Trazado_878374" data-name="Trazado 878374" d="M335.972,214.771a1.635,1.635,0,1,1-1.635-1.635,1.635,1.635,0,0,1,1.635,1.635" transform="translate(-66.76 -42.768)" fill="#eeb399"/>
            <path id="Trazado_878375" data-name="Trazado 878375" d="M335.326,229.045a4.54,4.54,0,0,0-4.913,4.116L328.7,252.616l-18.247,1.173a26.627,26.627,0,0,0,.58,9.045l22.129-1.423a4.53,4.53,0,0,0,4.224-4.124l2.059-23.33a4.531,4.531,0,0,0-4.116-4.913" transform="translate(-62.264 -45.956)" fill="#eeb399"/>
            <path id="Trazado_878376" data-name="Trazado 878376" d="M307.579,269.064a3.421,3.421,0,0,1-1.579-.442,1.194,1.194,0,0,1-.5-1.432c.129-.257.388-.464.4-.75.014-.361-.362-.592-.573-.886a1.383,1.383,0,0,1,.333-1.777c.166-.142.372-.271.428-.483.125-.469-.576-.868-.443-1.335.1-.357.624-.453.735-.808a2.57,2.57,0,0,0-.01-.6.859.859,0,0,1,.641-.7,2.525,2.525,0,0,1,1.007-.026l1.586.172a2.5,2.5,0,0,1,.909.218,2.389,2.389,0,0,1,.971,1.7,10.749,10.749,0,0,1,.261,3.849,5.366,5.366,0,0,1-1.306,2.918c-.679.7-1.963.481-2.858.384" transform="translate(-61.226 -52.128)" fill="#eeb399"/>
            <path id="Trazado_878377" data-name="Trazado 878377" d="M340.017,228.752a4.635,4.635,0,0,0-5.015,4.2l-1.441,16.331a28.972,28.972,0,0,0,9.071,2.467l1.588-17.984a4.627,4.627,0,0,0-4.2-5.015" transform="translate(-66.932 -45.897)" fill="#7298e2"/>
            <path id="Trazado_878378" data-name="Trazado 878378" d="M342.6,253.22h0c-3.492-.082-9.057-2.452-9.112-2.476a.112.112,0,0,1-.069-.114l1.327-15.032a.114.114,0,0,1,.113-.1h.01a.113.113,0,0,1,.1.123l-1.32,14.95c.669.28,5.616,2.305,8.848,2.423l1.486-15.371a.107.107,0,0,1,.124-.1.112.112,0,0,1,.1.124l-1.5,15.476a.112.112,0,0,1-.112.1" transform="translate(-66.903 -47.254)" fill="#3c62a0"/>
            <path id="Trazado_878379" data-name="Trazado 878379" d="M320.427,271.463h-39.1a.4.4,0,0,1-.4-.4V269.92a.4.4,0,0,1,.4-.4h39.1a.4.4,0,0,1,.4.4v1.144a.4.4,0,0,1-.4.4" transform="translate(-56.37 -54.081)" fill="#0d2638"/>
            <path id="Trazado_878380" data-name="Trazado 878380" d="M294.879,266.25h-32.56a2.943,2.943,0,0,1-2.792-2.411l-2.81-17.74a2.011,2.011,0,0,1,2.029-2.411h32.56A2.943,2.943,0,0,1,294.1,246.1l2.81,17.74a2.011,2.011,0,0,1-2.029,2.411" transform="translate(-51.506 -48.898)" fill="#173658"/>
            <path id="Trazado_878381" data-name="Trazado 878381" d="M278.6,257.662a6.989,6.989,0,0,0-.47.892.988.988,0,0,0,.106.958.976.976,0,0,0,.392.258,2.124,2.124,0,0,0,2.254-.608,3.4,3.4,0,0,0,.807-2.286,2.077,2.077,0,0,0-.714-1.771,1.563,1.563,0,0,0-.567-.233,1.319,1.319,0,0,0-.951.123c-.407.248-.436.712-.477,1.137a3.929,3.929,0,0,1-.38,1.531" transform="translate(-55.795 -51.135)" fill="#fff"/>
            <path id="Trazado_878382" data-name="Trazado 878382" d="M280.467,253.724a1.16,1.16,0,0,1,.028-.506.534.534,0,0,1,.339-.355.678.678,0,0,1,.179-.021.539.539,0,0,1,.38.11.393.393,0,0,1,.11.3.76.76,0,0,1-.1.315,1.093,1.093,0,0,1-.532.508c-.328.134-.369-.054-.406-.354" transform="translate(-56.275 -50.735)" fill="#fff"/>
            <path id="Trazado_878383" data-name="Trazado 878383" d="M48.988,157.3A17.36,17.36,0,1,0,30.72,174.632l2.521,6.185,3-6.786A17.365,17.365,0,0,0,48.988,157.3" transform="translate(-2.863 -28.079)" fill="#fff"/>
            <path id="Trazado_878384" data-name="Trazado 878384" d="M33.141,181.116h-.006a.4.4,0,0,1-.365-.249l-2.426-5.952a17.762,17.762,0,1,1,6.084-.651l-2.922,6.614a.4.4,0,0,1-.366.238m-1.613-40.883a16.961,16.961,0,0,0-.887,33.9.4.4,0,0,1,.349.249l2.166,5.313,2.618-5.925a.4.4,0,0,1,.259-.224,16.961,16.961,0,0,0-4.505-33.312" transform="translate(-2.763 -27.979)" fill="#62529b"/>
            <path id="Trazado_878385" data-name="Trazado 878385" d="M40.044,156.036v-4.085H35.959a3.071,3.071,0,1,0-6.141,0H25.732v14.312h4.085a3.071,3.071,0,0,1,6.141,0h4.085v-4.085a3.071,3.071,0,0,0,0-6.141" transform="translate(-5.163 -29.874)" fill="#7d6eb2"/>
            <path id="Trazado_878386" data-name="Trazado 878386" d="M361.974,167.853a17.36,17.36,0,1,0-23.868,8.04l-.316,6.671,5.575-4.894a17.366,17.366,0,0,0,18.608-9.818" transform="translate(-65.989 -28.731)" fill="#fff"/>
            <path id="Trazado_878387" data-name="Trazado 878387" d="M337.689,182.865a.4.4,0,0,1-.173-.039.4.4,0,0,1-.225-.379l.3-6.42a17.759,17.759,0,1,1,5.792,1.97l-5.433,4.769a.4.4,0,0,1-.264.1m8.461-39.376a16.96,16.96,0,0,0-7.958,31.95.4.4,0,0,1,.213.372l-.271,5.732L343,177.271a.4.4,0,0,1,.33-.094,16.96,16.96,0,1,0,2.819-33.688m15.722,24.266h0Z" transform="translate(-65.888 -28.632)" fill="#62529b"/>
            <path id="Trazado_878388" data-name="Trazado 878388" d="M355.456,159.936a3.016,3.016,0,0,0-.755.1v-4.19h-4.085a3.071,3.071,0,0,1-6.141,0h-4.085v4.085a3.071,3.071,0,1,0,0,6.141v4.085h4.169a3.071,3.071,0,0,1,6.141,0h4v-4.19a3.066,3.066,0,1,0,.755-6.037" transform="translate(-67.686 -31.273)" fill="#7d6eb2"/>
            <path id="Trazado_878389" data-name="Trazado 878389" d="M97.95,169.383a17.36,17.36,0,1,1,23.868,8.039l.316,6.672-5.575-4.894a17.366,17.366,0,0,1-18.608-9.818" transform="translate(-19.33 -29.038)" fill="#fff"/>
            <path id="Trazado_878390" data-name="Trazado 878390" d="M122.032,184.391a.4.4,0,0,1-.263-.1l-5.435-4.77a17.76,17.76,0,1,1,5.793-1.97l.3,6.421a.4.4,0,0,1-.4.418m-5.575-5.693a.4.4,0,0,1,.264.1l4.868,4.273-.272-5.732a.4.4,0,0,1,.213-.372,16.961,16.961,0,1,0-5.139,1.738.378.378,0,0,1,.066-.006" transform="translate(-19.229 -28.936)" fill="#62529b"/>
            <path id="Trazado_878391" data-name="Trazado 878391" d="M119.46,157.563a3.071,3.071,0,1,0-6.141,0h-4.085v14.312h4.085a3.071,3.071,0,0,1,6.141,0h4.085V157.563Z" transform="translate(-21.919 -31)" fill="#7d6eb2"/>
            <path id="Trazado_878392" data-name="Trazado 878392" d="M272.407,179.539a17.36,17.36,0,1,0-25.031-2.783l-3.1,5.915,7.12-2.084a17.364,17.364,0,0,0,21.013-1.048" transform="translate(-48.931 -29.88)" fill="#fff"/>
            <path id="Trazado_878393" data-name="Trazado 878393" d="M261.1,183.92a17.7,17.7,0,0,1-9.877-3l-6.938,2.031a.4.4,0,0,1-.466-.569l2.985-5.692a17.78,17.78,0,1,1,14.3,7.228m-9.809-3.834a.4.4,0,0,1,.226.07,16.96,16.96,0,1,0-3.926-3.744.4.4,0,0,1,.035.428l-2.664,5.082,6.216-1.819a.389.389,0,0,1,.113-.017" transform="translate(-48.829 -29.779)" fill="#62529b"/>
            <path id="Trazado_878394" data-name="Trazado 878394" d="M270.623,165.629v-4.085h-4.085a3.071,3.071,0,0,0-6.141,0h-4.085v4.085a3.071,3.071,0,0,1,0,6.142v4.085H260.4a3.071,3.071,0,0,1,6.141,0h4.085v-4.085a3.071,3.071,0,0,0,0-6.142" transform="translate(-51.431 -31.799)" fill="#7d6eb2"/>
            <path id="Trazado_878395" data-name="Trazado 878395" d="M166.053,175.614s-.181,7.051,15.411,7.051,14.868-7.051,14.868-7.051Z" transform="translate(-33.32 -35.238)" fill="#7d6eb2"/>
            <path id="Trazado_878396" data-name="Trazado 878396" d="M196.089,172.977H164.628a3.764,3.764,0,0,1-3.764-3.764v-12.8a3.764,3.764,0,0,1,3.764-3.764h31.461a3.764,3.764,0,0,1,3.764,3.764v12.8a3.764,3.764,0,0,1-3.764,3.764" transform="translate(-32.279 -30.631)" fill="#7d6eb2"/>
            <path id="Trazado_878397" data-name="Trazado 878397" d="M221.926,46.866C220.846,31.617,211.43,1.872,174.788.086V0q-.887,0-1.755.022Q172.167,0,171.279,0V.086c-36.642,1.787-46.056,31.532-47.137,46.781C123.028,62.592,131.2,74.85,138.01,87.107s9.286,28.665,10.339,34.608a6.485,6.485,0,0,0,6.439,5.758h36.493a6.485,6.485,0,0,0,6.439-5.758c1.053-5.943,3.529-22.35,10.339-34.608s14.982-24.516,13.868-40.241" transform="translate(-24.89)" fill="#ffd947"/>
            <path id="Trazado_878398" data-name="Trazado 878398" d="M192.558,149.12c-1.966-2.628-2.528-5.944-2.933-9.114a142.669,142.669,0,0,1-.046-36.064,7.13,7.13,0,0,1-6.448-1.683c-.065-.063-.129-.128-.19-.194a4.822,4.822,0,0,1-2.037,1.505,5.9,5.9,0,0,1-2.715.241,10.988,10.988,0,0,1-2.237-.484q.031,1,.041,1.966a128.746,128.746,0,0,1-6.143,40.9l-.761-.243a127.975,127.975,0,0,0,6.1-40.65c-.009-.743-.024-1.5-.052-2.276A11.155,11.155,0,0,1,168.821,89.1c.428-1.259,1.146-1.99,2.023-2.06.972-.07,1.819.643,2.444,2.081a37.549,37.549,0,0,1,2.633,13.335,10.023,10.023,0,0,0,2.356.556,5.166,5.166,0,0,0,2.351-.2,4.136,4.136,0,0,0,1.795-1.384,11.581,11.581,0,0,1-1.643-3.519c-1.234-4.075-1.084-7.964.422-10.95.481-.954,1.079-1.464,1.777-1.513,1-.069,1.8.783,2.174,2.281a19.72,19.72,0,0,1-.715,11.634,10.661,10.661,0,0,1-1.012,2.038q.128.145.268.281a6.421,6.421,0,0,0,6,1.428q.875-6.632,2.376-13.2c.516-2.251,1.8-4.563,3.894-4.266,2.121.295,2.7,2.882,2.556,5.007-.336,4.865-1.77,8.543-4.262,10.933a9.25,9.25,0,0,1-3.84,2.155,141.871,141.871,0,0,0,.007,36.16c.392,3.065.93,6.263,2.779,8.736Zm3.052-62.694c-1.832,0-2.623,3.037-2.767,3.669q-1.454,6.361-2.319,12.791a8.438,8.438,0,0,0,3.174-1.872c2.344-2.249,3.7-5.751,4.017-10.411.1-1.436-.184-3.926-1.868-4.161a1.746,1.746,0,0,0-.237-.017m-24.633,1.411a.673.673,0,0,0-.07,0c-.754.059-1.181,1.083-1.33,1.52a10.323,10.323,0,0,0,5.528,12.763,36.3,36.3,0,0,0-2.551-12.681c-.264-.608-.813-1.606-1.578-1.606m12.108-1.587c-.017,0-.034,0-.05,0-.4.029-.775.39-1.121,1.076-1.412,2.8-1.544,6.481-.37,10.359a11.288,11.288,0,0,0,1.36,3.048,10.327,10.327,0,0,0,.787-1.649,18.918,18.918,0,0,0,.685-11.157c-.193-.783-.644-1.678-1.291-1.678" transform="translate(-33.757 -17.147)" fill="#7d6eb2"/>
            <path id="Trazado_878399" data-name="Trazado 878399" d="M140.765,21.37a16.532,16.532,0,0,0-3.369,5.336,6.375,6.375,0,0,0,.829,6.024c1.921,2.289,5.6,2.252,8.231.827s4.5-3.881,6.475-6.121c3.112-3.527,6.8-6.744,11.277-8.191,1.7-.549,3.479-.834,5.138-1.488a6.686,6.686,0,0,0,3.918-3.426,5.582,5.582,0,0,0-2.141-6.324c-4.7-3.395-10.8-.176-15.4,1.782-6.021,2.559-10.75,6.615-14.96,11.579" transform="translate(-27.492 -1.309)" fill="#fcdf71"/>
            <path id="Trazado_878400" data-name="Trazado 878400" d="M137.582,58.63V54.544H133.5a3.071,3.071,0,1,0-6.141,0H123.27V68.856h4.085a3.071,3.071,0,0,1,6.141,0h4.085V64.771a3.071,3.071,0,0,0,0-6.141" transform="translate(-24.735 -10.328)" fill="#fff"/>
            <path id="Trazado_878401" data-name="Trazado 878401" d="M239.814,52.859a3.048,3.048,0,0,0-.755.1v-4.19h-4.085a3.071,3.071,0,0,1-6.141,0h-4.085v4.085a3.071,3.071,0,1,0,0,6.141v4.085h4.169a3.071,3.071,0,0,1,6.141,0h4V58.9a3.066,3.066,0,1,0,.755-6.037" transform="translate(-44.481 -9.787)" fill="#fff"/>
            <path id="Trazado_878402" data-name="Trazado 878402" d="M156.63,120.333a3.071,3.071,0,0,0-6.141,0H146.4v14.312h4.085a3.071,3.071,0,0,1,6.141,0h4.085V120.333Z" transform="translate(-29.377 -23.53)" fill="#fff"/>
            <path id="Trazado_878403" data-name="Trazado 878403" d="M218.664,116.94v-4.085h-4.085a3.071,3.071,0,1,0-6.141,0h-4.085v4.085a3.071,3.071,0,0,1,0,6.141v4.085h4.085a3.071,3.071,0,0,1,6.141,0h4.085v-4.085a3.071,3.071,0,1,0,0-6.141" transform="translate(-41.005 -22.029)" fill="#fff"/>
          </g>
        </g>
      </g>
    </g>
  </g>
</svg>
