<svg xmlns="http://www.w3.org/2000/svg" xmlns:xlink="http://www.w3.org/1999/xlink" width="151.991" height="137.547" viewBox="0 0 151.991 137.547">
  <defs>
    <clipPath id="clip-path">
      <rect id="Rectángulo_402216" data-name="Rectángulo 402216" width="129.886" height="137.495" fill="none"/>
    </clipPath>
  </defs>
  <g id="Grupo_1101510" data-name="Grupo 1101510" transform="translate(-409.005 -12609.596)">
    <g id="Grupo_1101397" data-name="Grupo 1101397">
      <path id="_12068" data-name="12068" d="M103.949,72.366C89.64,70.39,74.525,70.874,61.5,77.128,43.447,85.8,31.588,105.464,31.133,125.491s9.978,39.705,26.1,51.6S94.6,193.2,114.312,189.632c19.875-3.6,38.53-15.279,48.9-32.614,6.648-11.116,9.755-24.842,6.082-37.264-2.217-7.5-6.75-14.14-12.082-19.858A89.263,89.263,0,0,0,103.949,72.366Z" transform="translate(383.886 12552.667)" fill="#26aab7"/>
      <g id="Grupo_1099024" data-name="Grupo 1099024" transform="translate(358.141 12871.56) rotate(-90)">
        <path id="Trazado_873104" data-name="Trazado 873104" d="M149.557,395.548a1.582,1.582,0,1,0-.106-2.456A1.573,1.573,0,0,0,149.557,395.548Z" transform="translate(13.93 -213.31)" fill="#fff"/>
        <path id="Trazado_873105" data-name="Trazado 873105" d="M417.219,416a1.582,1.582,0,1,0-.105-2.456A1.573,1.573,0,0,0,417.219,416Z" transform="translate(-222.435 -227.035)" fill="#ffd947"/>
        <path id="Trazado_873106" data-name="Trazado 873106" d="M303.26,44.546a1.582,1.582,0,1,0-.106-2.456A1.573,1.573,0,0,0,303.26,44.546Z" transform="translate(-52.901 9.151)" fill="#7d6eb2"/>
        <path id="Trazado_873109" data-name="Trazado 873109" d="M339.452,404.413a3.448,3.448,0,1,0-1.687-4.918A3.468,3.468,0,0,0,339.452,404.413Z" transform="translate(-82.207 -231.255)" fill="#7d6eb2"/>
        <path id="Trazado_873110" data-name="Trazado 873110" d="M390.262,440.006a3.448,3.448,0,1,0-1.687-4.918A3.468,3.468,0,0,0,390.262,440.006Z" transform="translate(-181.42 -237.38)" fill="#ffd947"/>
        <path id="Trazado_873111" data-name="Trazado 873111" d="M176.115,56.142a3.448,3.448,0,1,0-1.687-4.918A3.468,3.468,0,0,0,176.115,56.142Z" transform="translate(-49.569 23.202)" fill="#ffd947"/>
        <path id="Trazado_873113" data-name="Trazado 873113" d="M321.56,66.974a3.448,3.448,0,1,0-1.687-4.918A3.468,3.468,0,0,0,321.56,66.974Z" transform="translate(-76.565 -0.895)" fill="#ffd947"/>
        <circle id="Elipse_11485" data-name="Elipse 11485" cx="1.689" cy="1.689" r="1.689" transform="translate(143.167 192.639)" fill="none" stroke="#26aab7" stroke-linecap="round" stroke-linejoin="round" stroke-width="1.5"/>
      </g>
      <g id="Grupo_1101395" data-name="Grupo 1101395" transform="translate(420.057 12609.596)">
        <g id="Grupo_1101394" data-name="Grupo 1101394" clip-path="url(#clip-path)">
          <path id="Trazado_876735" data-name="Trazado 876735" d="M120.036,37.374s-1.039-.8-2.667-2.035a11.039,11.039,0,0,0,.692-3.756c1.988-.375,3.256-.618,3.256-.618s-.375-3.421-.836-4.061a11.721,11.721,0,0,0-3.34.16,11.011,11.011,0,0,0-1.708-2.748,12.67,12.67,0,0,0,1.742-3.073c-.365-.7-3.256-2.567-3.256-2.567s-.842,1.1-2.143,2.807a11.031,11.031,0,0,0-3.578-1.033,10.773,10.773,0,0,0-.858-3.026c-.753-.236-4.117.488-4.117.488s.153,1.156.4,2.991A11.066,11.066,0,0,0,100.3,22.6a12.069,12.069,0,0,0-2.557-1.626c-.31.429-3.185,4.114-2.756,4.424.075.054.792.569,1.926,1.376a11.028,11.028,0,0,0-.969,3.315c-1.4.218-2.3.361-2.39.375-.522.085.4,4.668.483,5.19a9.293,9.293,0,0,0,2.54-.237,11.04,11.04,0,0,0,2.174,3.549,8.285,8.285,0,0,0-1.24,2.007c.429.31,4.114,3.185,4.424,2.757.052-.072.528-.737,1.281-1.793a11.051,11.051,0,0,0,3.553.651,10.51,10.51,0,0,0,.613,2.694c.522-.084,5.162-.657,5.077-1.179-.016-.1-.186-1.131-.455-2.727a11.006,11.006,0,0,0,2.906-2.149,9.652,9.652,0,0,0,2.556,1.41c.7-.366,2.567-3.257,2.567-3.257m-17.533.666a7.89,7.89,0,1,1,11.015-1.783A7.89,7.89,0,0,1,102.5,38.041" transform="translate(-32.009 -5.956)" fill="#fff"/>
          <path id="Trazado_876736" data-name="Trazado 876736" d="M107.211,45.433c-.314,0-.415,0-.888-2.7a11.392,11.392,0,0,1-3.15-.58c-.67.941-1.09,1.527-1.139,1.595a.448.448,0,0,1-.377.179c-.5,0-1.721-.764-4.2-2.636-.143-.108-.248-.187-.3-.225-.3-.212-.318-.332,1.014-2.249A11.322,11.322,0,0,1,96.2,35.6a19.349,19.349,0,0,1-2.137.239c-.115,0-.465,0-.516-.312-.011-.066-.035-.193-.067-.369-.683-3.716-.671-4.673-.431-5.014a.436.436,0,0,1,.287-.184c.088-.014.889-.141,2.151-.339a11.3,11.3,0,0,1,.85-2.917c-1.006-.718-1.637-1.17-1.708-1.22a.436.436,0,0,1-.174-.294c-.062-.411.356-1.273,2.63-4.287.108-.144.188-.248.226-.3a.379.379,0,0,1,.289-.144c.152,0,.323,0,2.531,1.558a11.37,11.37,0,0,1,2.964-1.513c-.227-1.677-.365-2.72-.365-2.72a.33.33,0,0,1,.257-.365,25.42,25.42,0,0,1,3.735-.542,1.922,1.922,0,0,1,.55.061c.227.072.392.125,1.032,3.043a11.316,11.316,0,0,1,3.2.921c1.209-1.587,1.982-2.6,1.982-2.6a.33.33,0,0,1,.439-.077c.495.32,2.983,1.952,3.369,2.69.11.211.2.379-1.627,3.2a11.379,11.379,0,0,1,1.5,2.42c1.275-.137,2.147-.2,2.659-.2.4,0,.62.032.745.2.486.675.831,3.632.9,4.217a.329.329,0,0,1-.265.359s-1.157.222-2.995.568a11.362,11.362,0,0,1-.624,3.367c1.517,1.156,2.475,1.89,2.475,1.89a.328.328,0,0,1,.076.439c-.319.495-1.952,2.983-2.69,3.369a.494.494,0,0,1-.186.043c-.148,0-.391,0-2.477-1.324a11.335,11.335,0,0,1-2.589,1.909c.246,1.464.4,2.4.416,2.494a.434.434,0,0,1-.085.33c-.246.335-1.15.647-4.887,1.171l-.377.054Zm-4.163-4a.346.346,0,0,1,.111.019,10.694,10.694,0,0,0,3.447.631.329.329,0,0,1,.319.273c.262,1.518.406,2.137.478,2.39l.149-.02a18.367,18.367,0,0,0,4.393-.876c-.055-.338-.211-1.271-.433-2.594a.328.328,0,0,1,.175-.348,10.7,10.7,0,0,0,2.82-2.086.327.327,0,0,1,.413-.047,16.831,16.831,0,0,0,2.3,1.346,16.769,16.769,0,0,0,2.2-2.84c-.4-.3-1.26-.964-2.424-1.85a.328.328,0,0,1-.109-.375,10.711,10.711,0,0,0,.672-3.644.329.329,0,0,1,.268-.32c1.418-.268,2.469-.467,2.956-.561A16.822,16.822,0,0,0,120.09,27a2.527,2.527,0,0,0-.258-.01c-.512,0-1.462.076-2.826.226a.324.324,0,0,1-.338-.2,10.684,10.684,0,0,0-1.657-2.667.329.329,0,0,1-.024-.392,20.575,20.575,0,0,0,1.677-2.817,16.744,16.744,0,0,0-2.84-2.2c-.316.413-1.017,1.33-1.957,2.564a.329.329,0,0,1-.4.1,10.662,10.662,0,0,0-3.47-1,.328.328,0,0,1-.285-.257,18.6,18.6,0,0,0-.724-2.8,2,2,0,0,0-.266-.014,22.26,22.26,0,0,0-3.3.467c.061.457.188,1.406.361,2.686a.327.327,0,0,1-.227.357,10.742,10.742,0,0,0-3.224,1.641.329.329,0,0,1-.387,0c-1.409-1-2-1.37-2.246-1.507l-.089.118a18.441,18.441,0,0,0-2.489,3.729c.25.178.9.642,1.818,1.3a.328.328,0,0,1,.106.408,10.693,10.693,0,0,0-.941,3.215.329.329,0,0,1-.275.284c-1.141.177-1.949.306-2.257.354a18.4,18.4,0,0,0,.555,4.452c.01.051.018.1.027.14.362-.013,1.1-.1,2.21-.268a.329.329,0,0,1,.356.208,10.662,10.662,0,0,0,2.109,3.444.328.328,0,0,1,.027.409c-.717,1.026-1,1.49-1.121,1.7l.116.088a18.387,18.387,0,0,0,3.729,2.489c.17-.238.6-.834,1.2-1.684a.328.328,0,0,1,.268-.138m3.892-1.741a8.22,8.22,0,0,1-6.658-13.029,8.245,8.245,0,0,1,6.671-3.411,8.219,8.219,0,0,1,6.659,13.028,8.248,8.248,0,0,1-6.673,3.411m.014-15.782a7.562,7.562,0,0,0-4.43,13.7,7.5,7.5,0,0,0,4.416,1.43,7.562,7.562,0,0,0,4.431-13.7,7.5,7.5,0,0,0-4.417-1.43" transform="translate(-31.837 -5.785)" fill="#261d2a"/>
          <path id="Trazado_876737" data-name="Trazado 876737" d="M115.432,39.458a4.277,4.277,0,1,1-.966-5.97,4.276,4.276,0,0,1,.966,5.97" transform="translate(-36.906 -11.2)" fill="#fff"/>
          <path id="Trazado_876738" data-name="Trazado 876738" d="M111.789,41.391a4.605,4.605,0,0,1-3.731-7.3A4.62,4.62,0,0,1,111.8,32.18a4.606,4.606,0,0,1,3.731,7.3,4.621,4.621,0,0,1-3.739,1.911m.007-8.554a3.948,3.948,0,1,0,3.2,6.258,3.948,3.948,0,0,0-3.2-6.258" transform="translate(-36.734 -11.029)" fill="#261d2a"/>
          <path id="Trazado_876739" data-name="Trazado 876739" d="M40.022,47.967s77.269,4.078,78.4,5.77-5.358,67.394-7.049,69.085-79.519-4.512-80.083-6.2,8.735-68.652,8.735-68.652" transform="translate(-10.714 -16.439)" fill="#feffff"/>
          <path id="Trazado_876740" data-name="Trazado 876740" d="M107.672,123.268c-8.181,0-27.95-1.35-43.915-2.688-8.877-.744-16.93-1.512-22.676-2.163-10.027-1.136-10.168-1.558-10.271-1.867-.572-1.715,7.768-61.939,8.722-68.8a.315.315,0,0,1,.343-.283c12.93.682,77.492,4.174,78.653,5.916.909,1.363-2.072,31.343-2.414,34.757-.561,5.582-3.42,33.486-4.677,34.743-.145.145-.386.386-3.765.386M31.427,116.28c2.813,1.526,60.535,6.331,76.245,6.331,2.749,0,3.238-.162,3.322-.211,1.51-1.926,8-65.556,6.991-68.631-2.189-1.228-47.531-4.027-77.844-5.63-2.565,18.476-8.95,65.439-8.714,68.141" transform="translate(-10.549 -16.267)" fill="#261d2a"/>
          <path id="Trazado_876741" data-name="Trazado 876741" d="M41.548,51.1l80.618,5.513,1.553-15.423L44.176,35.53Z" transform="translate(-14.239 -12.177)" fill="#aee6e6"/>
          <path id="Trazado_876742" data-name="Trazado 876742" d="M54.3,83.438l41.343-8.9-1.905-5.989,17.02,2.626L98.933,83.99l-1.748-4.458L58.415,95.9Z" transform="translate(-18.608 -23.493)" fill="#e86184"/>
          <path id="Trazado_876743" data-name="Trazado 876743" d="M52.666,135.946l2.82-20.763,14.354,1.538-2.307,20.763Z" transform="translate(-18.049 -39.475)" fill="#7d6eb2"/>
          <path id="Trazado_876744" data-name="Trazado 876744" d="M82.824,132.781l3.845-28.453,14.354,1.538-4.1,28.965Z" transform="translate(-28.385 -35.755)" fill="#62529b"/>
          <path id="Trazado_876745" data-name="Trazado 876745" d="M111.163,133.13l5.127-35.887,14.867,2.051-5.383,35.63Z" transform="translate(-38.097 -33.327)" fill="#4d3a8e"/>
          <path id="Trazado_876746" data-name="Trazado 876746" d="M150,48.779a.327.327,0,0,1-.225-.089,4.661,4.661,0,0,0-2.624-.63.341.341,0,0,1-.335-.323.329.329,0,0,1,.323-.335c.227,0,2.214-.014,3.087.81a.327.327,0,0,1,.013.463.323.323,0,0,1-.239.1" transform="translate(-50.315 -16.245)" fill="#261d2a"/>
          <path id="Trazado_876747" data-name="Trazado 876747" d="M155.421,54.3a.325.325,0,0,1-.225-.09,4.7,4.7,0,0,0-2.624-.63.324.324,0,0,1-.335-.323.329.329,0,0,1,.323-.335c.223,0,2.214-.014,3.087.81a.329.329,0,0,1-.225.567" transform="translate(-52.174 -18.137)" fill="#261d2a"/>
          <path id="Trazado_876748" data-name="Trazado 876748" d="M160.079,50.354a.325.325,0,0,1-.225-.09,4.615,4.615,0,0,0-2.624-.63.334.334,0,0,1-.335-.323.329.329,0,0,1,.323-.335c.222,0,2.214-.015,3.087.81a.329.329,0,0,1-.225.567" transform="translate(-53.77 -16.785)" fill="#261d2a"/>
          <path id="Trazado_876749" data-name="Trazado 876749" d="M147.164,54.134a.325.325,0,0,1-.225-.09,4.668,4.668,0,0,0-2.624-.63.329.329,0,0,1-.012-.657c.225,0,2.214-.014,3.087.81a.329.329,0,0,1-.225.567" transform="translate(-49.344 -18.08)" fill="#261d2a"/>
          <path id="Trazado_876750" data-name="Trazado 876750" d="M130.795,125.419a.325.325,0,0,1-.209-.075.329.329,0,0,1-.045-.463,4.692,4.692,0,0,0,.457-2.659.327.327,0,0,1,.3-.354.337.337,0,0,1,.354.3c.018.223.16,2.207-.6,3.132a.329.329,0,0,1-.254.12" transform="translate(-44.712 -41.765)" fill="#261d2a"/>
          <path id="Trazado_876751" data-name="Trazado 876751" d="M133.453,116.116a.325.325,0,0,1-.209-.075.329.329,0,0,1-.045-.463,4.676,4.676,0,0,0,.457-2.659.328.328,0,0,1,.655-.055c.018.223.161,2.207-.6,3.133a.329.329,0,0,1-.254.12" transform="translate(-45.623 -38.577)" fill="#261d2a"/>
          <path id="Trazado_876752" data-name="Trazado 876752" d="M128.8,116.781a.325.325,0,0,1-.209-.075.329.329,0,0,1-.045-.463,4.677,4.677,0,0,0,.456-2.659.328.328,0,0,1,.655-.055c.018.223.161,2.207-.6,3.132a.329.329,0,0,1-.254.12" transform="translate(-44.029 -38.805)" fill="#261d2a"/>
          <path id="Trazado_876753" data-name="Trazado 876753" d="M132.124,107.147a.328.328,0,0,1-.254-.538,4.685,4.685,0,0,0,.456-2.659.326.326,0,0,1,.3-.355.33.33,0,0,1,.355.3c.018.223.161,2.207-.6,3.133a.329.329,0,0,1-.253.12" transform="translate(-45.168 -35.503)" fill="#261d2a"/>
          <path id="Trazado_876754" data-name="Trazado 876754" d="M105.214,113.791a.325.325,0,0,1-.209-.075.329.329,0,0,1-.045-.463,4.679,4.679,0,0,0,.456-2.659.327.327,0,0,1,.3-.355.331.331,0,0,1,.355.3c.018.223.161,2.207-.6,3.133a.329.329,0,0,1-.254.12" transform="translate(-35.945 -37.78)" fill="#261d2a"/>
          <path id="Trazado_876755" data-name="Trazado 876755" d="M99.9,118.442a.325.325,0,0,1-.209-.075.329.329,0,0,1-.045-.463,4.692,4.692,0,0,0,.457-2.659.327.327,0,0,1,.3-.354.337.337,0,0,1,.354.3c.018.223.16,2.207-.6,3.132a.329.329,0,0,1-.254.12" transform="translate(-34.124 -39.374)" fill="#261d2a"/>
          <path id="Trazado_876756" data-name="Trazado 876756" d="M103.22,124.754a.325.325,0,0,1-.209-.075.329.329,0,0,1-.045-.463,4.7,4.7,0,0,0,.457-2.66.327.327,0,0,1,.3-.354.336.336,0,0,1,.354.3c.018.223.16,2.207-.6,3.133a.329.329,0,0,1-.254.12" transform="translate(-35.262 -41.537)" fill="#261d2a"/>
          <path id="Trazado_876757" data-name="Trazado 876757" d="M98.9,130.734a.325.325,0,0,1-.209-.075.329.329,0,0,1-.045-.463,4.679,4.679,0,0,0,.456-2.659.327.327,0,0,1,.3-.355.332.332,0,0,1,.355.3c.018.223.161,2.207-.6,3.133a.329.329,0,0,1-.254.12" transform="translate(-33.782 -43.587)" fill="#261d2a"/>
          <path id="Trazado_876758" data-name="Trazado 876758" d="M73.653,124.754a.325.325,0,0,1-.209-.075.329.329,0,0,1-.045-.463,4.679,4.679,0,0,0,.456-2.659.327.327,0,0,1,.3-.355.331.331,0,0,1,.355.3c.018.223.161,2.207-.6,3.133a.329.329,0,0,1-.254.12" transform="translate(-25.129 -41.537)" fill="#261d2a"/>
          <path id="Trazado_876759" data-name="Trazado 876759" d="M68,129.073a.325.325,0,0,1-.209-.075.329.329,0,0,1-.045-.463,4.7,4.7,0,0,0,.457-2.66.327.327,0,0,1,.3-.354.34.34,0,0,1,.354.3c.018.223.16,2.207-.6,3.133a.329.329,0,0,1-.254.12" transform="translate(-23.193 -43.018)" fill="#261d2a"/>
          <path id="Trazado_876760" data-name="Trazado 876760" d="M71.992,132.4a.325.325,0,0,1-.209-.075.329.329,0,0,1-.045-.463,4.679,4.679,0,0,0,.456-2.659.327.327,0,0,1,.3-.355.331.331,0,0,1,.355.3c.018.223.161,2.207-.6,3.133a.329.329,0,0,1-.254.12" transform="translate(-24.56 -44.156)" fill="#261d2a"/>
          <path id="Trazado_876761" data-name="Trazado 876761" d="M140.549,48.464a.325.325,0,0,1-.225-.09,4.661,4.661,0,0,0-2.624-.63.342.342,0,0,1-.335-.323.329.329,0,0,1,.323-.335c.226,0,2.213-.014,3.087.81a.329.329,0,0,1-.225.567" transform="translate(-47.077 -16.137)" fill="#261d2a"/>
          <path id="Trazado_876762" data-name="Trazado 876762" d="M135.509,53.5a.325.325,0,0,1-.225-.09,4.615,4.615,0,0,0-2.623-.63.332.332,0,0,1-.335-.323.329.329,0,0,1,.323-.335c.225,0,2.212-.014,3.086.81a.329.329,0,0,1-.225.567" transform="translate(-45.35 -17.864)" fill="#261d2a"/>
          <path id="Trazado_876763" data-name="Trazado 876763" d="M130.174,47.907a.327.327,0,0,1-.17-.047,4.693,4.693,0,0,0-2.7-.066.329.329,0,1,1-.149-.64c.218-.05,2.161-.479,3.187.143a.329.329,0,0,1-.17.61" transform="translate(-43.491 -16.095)" fill="#261d2a"/>
          <path id="Trazado_876764" data-name="Trazado 876764" d="M168.8,172.393s-1.039-.8-2.667-2.035a11.039,11.039,0,0,0,.692-3.756c1.988-.375,3.256-.618,3.256-.618s-.375-3.421-.836-4.061a11.72,11.72,0,0,0-3.34.16,11.011,11.011,0,0,0-1.708-2.748,12.671,12.671,0,0,0,1.742-3.073c-.365-.7-3.256-2.567-3.256-2.567s-.842,1.1-2.143,2.807a11.031,11.031,0,0,0-3.578-1.033,10.773,10.773,0,0,0-.858-3.026c-.753-.236-4.117.488-4.117.488s.153,1.156.4,2.991a11.065,11.065,0,0,0-3.323,1.691,12.068,12.068,0,0,0-2.557-1.626c-.31.429-3.185,4.114-2.756,4.424.075.054.792.569,1.927,1.376a11.028,11.028,0,0,0-.969,3.315c-1.4.218-2.3.361-2.39.375-.522.085.4,4.668.483,5.19a9.293,9.293,0,0,0,2.54-.237,11.04,11.04,0,0,0,2.174,3.549,8.285,8.285,0,0,0-1.24,2.007c.429.31,4.114,3.185,4.424,2.757.052-.072.528-.737,1.281-1.793a11.051,11.051,0,0,0,3.553.651,10.51,10.51,0,0,0,.613,2.694c.522-.084,5.162-.657,5.077-1.179-.016-.1-.186-1.131-.455-2.727a11.006,11.006,0,0,0,2.906-2.149,9.652,9.652,0,0,0,2.556,1.41c.7-.366,2.567-3.257,2.567-3.257m-17.533.666a7.89,7.89,0,1,1,11.015-1.783,7.89,7.89,0,0,1-11.015,1.783" transform="translate(-48.721 -52.229)" fill="#fff"/>
          <path id="Trazado_876765" data-name="Trazado 876765" d="M155.977,180.451c-.314,0-.415,0-.888-2.7a11.344,11.344,0,0,1-3.151-.58c-.67.941-1.09,1.527-1.139,1.595a.448.448,0,0,1-.377.179c-.5,0-1.719-.762-4.2-2.632-.146-.11-.253-.191-.307-.229-.29-.21-.314-.339,1.014-2.248a11.315,11.315,0,0,1-1.966-3.211,19.371,19.371,0,0,1-2.139.239c-.114,0-.463,0-.515-.312-.011-.068-.035-.2-.069-.381-.68-3.708-.668-4.663-.429-5a.434.434,0,0,1,.287-.184c.088-.014.889-.141,2.151-.338a11.305,11.305,0,0,1,.85-2.918l-1.707-1.22a.436.436,0,0,1-.174-.294c-.062-.411.356-1.272,2.63-4.287.108-.143.187-.248.225-.3a.379.379,0,0,1,.289-.144c.152,0,.323,0,2.531,1.558a11.359,11.359,0,0,1,2.964-1.512c-.227-1.678-.365-2.721-.365-2.721a.33.33,0,0,1,.257-.365,25.4,25.4,0,0,1,3.734-.542,1.929,1.929,0,0,1,.551.061c.225.071.391.122,1.032,3.043a11.341,11.341,0,0,1,3.2.921c1.209-1.587,1.982-2.6,1.982-2.6a.33.33,0,0,1,.439-.077c.495.32,2.983,1.953,3.369,2.691.114.218.2.378-1.626,3.2a11.384,11.384,0,0,1,1.5,2.421c1.259-.136,2.153-.205,2.659-.205.4,0,.619.032.744.2.487.676.831,3.632.9,4.218a.329.329,0,0,1-.265.359s-1.157.222-2.995.569a11.365,11.365,0,0,1-.624,3.366c1.517,1.157,2.475,1.89,2.475,1.89a.329.329,0,0,1,.076.44c-.319.495-1.951,2.983-2.69,3.369a.487.487,0,0,1-.185.043c-.147,0-.39,0-2.477-1.325a11.307,11.307,0,0,1-2.589,1.911c.246,1.463.4,2.4.416,2.494a.434.434,0,0,1-.085.33c-.247.335-1.153.648-4.9,1.172l-.368.053Zm-4.163-4a.346.346,0,0,1,.111.019,10.652,10.652,0,0,0,3.447.631.329.329,0,0,1,.319.273c.262,1.519.4,2.138.478,2.391l.139-.02a18.367,18.367,0,0,0,4.4-.877c-.055-.338-.211-1.271-.433-2.594a.328.328,0,0,1,.175-.348,10.66,10.66,0,0,0,2.819-2.086.327.327,0,0,1,.413-.047,16.929,16.929,0,0,0,2.3,1.346,16.707,16.707,0,0,0,2.2-2.84c-.4-.3-1.259-.963-2.423-1.85a.327.327,0,0,1-.109-.375,10.694,10.694,0,0,0,.671-3.643.329.329,0,0,1,.268-.32c1.418-.268,2.469-.468,2.956-.561a16.769,16.769,0,0,0-.694-3.524,2.454,2.454,0,0,0-.258-.011c-.514,0-1.465.077-2.826.227a.326.326,0,0,1-.338-.2,10.676,10.676,0,0,0-1.656-2.667.329.329,0,0,1-.024-.392,20.667,20.667,0,0,0,1.677-2.816,16.833,16.833,0,0,0-2.84-2.2c-.316.413-1.017,1.33-1.957,2.564a.327.327,0,0,1-.4.1,10.666,10.666,0,0,0-3.47-1,.329.329,0,0,1-.285-.258,18.536,18.536,0,0,0-.724-2.8,2.01,2.01,0,0,0-.267-.014,22.244,22.244,0,0,0-3.3.466c.061.457.188,1.407.361,2.687a.327.327,0,0,1-.227.357,10.726,10.726,0,0,0-3.224,1.641.33.33,0,0,1-.387,0c-1.409-1-2-1.37-2.246-1.507-.026.036-.056.075-.088.117a18.431,18.431,0,0,0-2.489,3.73c.25.178.9.642,1.817,1.3a.328.328,0,0,1,.106.408,10.7,10.7,0,0,0-.941,3.216.328.328,0,0,1-.275.284c-1.141.177-1.948.3-2.256.354a18.341,18.341,0,0,0,.553,4.441c.009.055.019.105.028.151.362-.014,1.1-.1,2.211-.268a.326.326,0,0,1,.356.208,10.678,10.678,0,0,0,2.108,3.445.328.328,0,0,1,.027.41c-.717,1.025-1,1.489-1.121,1.7l.122.092a18.365,18.365,0,0,0,3.724,2.485c.17-.237.6-.833,1.2-1.684a.328.328,0,0,1,.268-.138m3.892-1.741a8.22,8.22,0,0,1-6.658-13.029,8.244,8.244,0,0,1,6.671-3.41,8.219,8.219,0,0,1,6.659,13.027,8.248,8.248,0,0,1-6.673,3.411m.014-15.781a7.562,7.562,0,0,0-4.429,13.695,7.5,7.5,0,0,0,4.416,1.43,7.586,7.586,0,0,0,6.14-3.139,7.562,7.562,0,0,0-6.126-11.985" transform="translate(-48.55 -52.057)" fill="#261d2a"/>
          <path id="Trazado_876766" data-name="Trazado 876766" d="M164.2,174.477a4.277,4.277,0,1,1-.966-5.97,4.276,4.276,0,0,1,.966,5.97" transform="translate(-53.619 -57.472)" fill="#fff"/>
          <path id="Trazado_876767" data-name="Trazado 876767" d="M160.556,176.41a4.606,4.606,0,0,1-3.731-7.3,4.605,4.605,0,1,1,3.731,7.3m.007-8.554a3.948,3.948,0,1,0,3.2,6.258,3.948,3.948,0,0,0-3.2-6.258" transform="translate(-53.448 -57.301)" fill="#261d2a"/>
          <path id="Trazado_876768" data-name="Trazado 876768" d="M7.476,180.665c-.245,0-.475,0-1.123-2.577-2.185-.421-2.376-.676-2.44-.762a.433.433,0,0,1-.059-.331c.039-.139.13-.463,2.626-1.469.9-2.335,1.2-2.335,1.4-2.335a.449.449,0,0,1,.309.158,6.434,6.434,0,0,1,.525,1.67c.07.281.153.62.2.769.13.059.42.162.661.248,1.283.459,1.614.616,1.673.92a.437.437,0,0,1-.122.358,11.57,11.57,0,0,1-2.152.926c-1.057,2.4-1.281,2.416-1.48,2.426h-.02m-2.729-3.623c.436.126,1.236.309,1.935.439a.329.329,0,0,1,.259.244c.178.724.412,1.549.58,2.015.242-.434.61-1.209.91-1.895a.328.328,0,0,1,.192-.179c.6-.21,1.271-.469,1.689-.651-.293-.124-.7-.268-.956-.361-.732-.262-.87-.319-.963-.444a3.627,3.627,0,0,1-.315-1.035c-.069-.281-.175-.714-.269-1.035a17.929,17.929,0,0,0-.763,1.754.33.33,0,0,1-.185.189,21.129,21.129,0,0,0-2.111.96" transform="translate(-1.317 -59.354)" fill="#261d2a"/>
          <path id="Trazado_876769" data-name="Trazado 876769" d="M3.634,43.458c-.245,0-.475,0-1.123-2.577C.326,40.46.135,40.2.071,40.119a.433.433,0,0,1-.059-.331c.039-.139.131-.463,2.627-1.469.9-2.335,1.2-2.335,1.4-2.335a.449.449,0,0,1,.309.158,6.426,6.426,0,0,1,.526,1.67c.07.281.153.62.2.769.13.058.42.162.661.248,1.282.459,1.612.616,1.672.921a.436.436,0,0,1-.122.357,11.568,11.568,0,0,1-2.152.926c-1.057,2.405-1.282,2.416-1.48,2.426H3.634M.9,39.835c.436.126,1.236.309,1.935.439a.329.329,0,0,1,.259.244c.178.724.412,1.549.58,2.015.242-.434.61-1.209.91-1.895a.328.328,0,0,1,.192-.179c.6-.21,1.271-.469,1.689-.651-.293-.124-.7-.268-.956-.362-.732-.262-.87-.319-.964-.445a3.646,3.646,0,0,1-.315-1.034c-.069-.282-.175-.714-.27-1.035A17.942,17.942,0,0,0,3.2,38.686a.33.33,0,0,1-.185.189,21.151,21.151,0,0,0-2.112.96" transform="translate(0 -12.332)" fill="#261d2a"/>
          <path id="Trazado_876770" data-name="Trazado 876770" d="M172.136,107.019c-.245,0-.475,0-1.123-2.577-2.185-.421-2.376-.676-2.44-.762a.433.433,0,0,1-.059-.331c.039-.139.13-.463,2.626-1.469.9-2.335,1.2-2.335,1.4-2.335a.449.449,0,0,1,.309.158,6.434,6.434,0,0,1,.525,1.67c.07.281.153.62.2.769.13.058.42.162.661.248,1.283.459,1.614.616,1.673.92a.437.437,0,0,1-.122.358,11.568,11.568,0,0,1-2.152.926c-1.057,2.4-1.281,2.416-1.48,2.426h-.02m-2.729-3.623c.436.126,1.236.309,1.935.439a.329.329,0,0,1,.259.244c.178.724.412,1.549.58,2.015.242-.435.61-1.209.91-1.895a.328.328,0,0,1,.192-.179c.6-.21,1.271-.469,1.689-.651-.293-.124-.7-.268-.956-.361-.732-.262-.87-.319-.963-.444a3.627,3.627,0,0,1-.316-1.035c-.069-.281-.175-.714-.269-1.035a17.924,17.924,0,0,0-.763,1.754.33.33,0,0,1-.185.189,21.129,21.129,0,0,0-2.111.96" transform="translate(-57.748 -34.115)" fill="#261d2a"/>
          <path id="Trazado_876771" data-name="Trazado 876771" d="M17.411,93.21H17.4a2.334,2.334,0,1,1,.009,0m.008-4a1.672,1.672,0,1,0-.014,3.344l.007.329v-.329a1.672,1.672,0,0,0,.008-3.344" transform="translate(-5.169 -30.348)" fill="#261d2a"/>
          <path id="Trazado_876772" data-name="Trazado 876772" d="M157.412,29.876H157.4a2.333,2.333,0,1,1,.011,0m.007-4a1.672,1.672,0,1,0-.014,3.344l.008.329v-.329a1.672,1.672,0,0,0,.007-3.344" transform="translate(-53.149 -8.643)" fill="#261d2a"/>
          <path id="Trazado_876773" data-name="Trazado 876773" d="M18.077,8.452s-.682-4.811,3.97-3.3,3.184,5.939,1.4,4.447S24.934,2.958,28.5,5.2s2.82,6.675.306,7.026,1.474-5.164,4.677-1.813S29.828,20,26.975,17.76s-.673-5.92.028-3.7-1.109,4.427-6.131,4.39S18.061,10.67,19.838,12.9s-1.111,4.8-4.679,2.183.419-8.129,2.919-6.632" transform="translate(-4.709 -1.592)" fill="#fff"/>
          <path id="Trazado_876774" data-name="Trazado 876774" d="M20.824,18.621H20.7a3.146,3.146,0,0,1-3.24-2.294,5.751,5.751,0,0,1-2.665-1.14,3.678,3.678,0,0,1-1.326-4.341c.576-1.76,2.122-3.139,3.521-3.139a2.138,2.138,0,0,1,.555.072,3.961,3.961,0,0,1,.76-2.6c.755-.87,2-1.046,3.674-.5A6.306,6.306,0,0,1,23.66,5.5a3.72,3.72,0,0,1,4.846-.735A5.256,5.256,0,0,1,31.088,8.84a3.467,3.467,0,0,1,2.462,1.185,3.508,3.508,0,0,1,.542,4.012C33.1,16.361,30.378,18.4,28.27,18.4a2.638,2.638,0,0,1-1.671-.544,4.63,4.63,0,0,1-.6-.563,8.546,8.546,0,0,1-5.175,1.328m-2.671-2.276A2.459,2.459,0,0,0,20.7,17.963h.122c2.613,0,4.027-.613,4.78-1.2a3.322,3.322,0,0,1-.283-3.176,1.091,1.091,0,0,1,.907-.707c.233,0,.663.12.914.918a3.026,3.026,0,0,1-.658,3.048,3.885,3.885,0,0,0,.52.488,1.991,1.991,0,0,0,1.265.4c1.844,0,4.331-1.89,5.218-3.965a2.891,2.891,0,0,0-.412-3.3,2.839,2.839,0,0,0-2-.983,2.991,2.991,0,0,1-2.4,2.895c-.861.122-1.147-.331-1.165-.746-.041-.907,1.252-2.443,2.916-2.751a4.6,4.6,0,0,0-2.278-3.576,3.046,3.046,0,0,0-3.981.594A3.083,3.083,0,0,1,25.191,9.1a1.316,1.316,0,0,1-1.2.975h0a1.469,1.469,0,0,1-.929-.379c-.985-.825-.688-2.455.18-3.682a5.711,5.711,0,0,0-1.472-.7c-1.4-.455-2.4-.356-2.974.308a3.845,3.845,0,0,0-.569,2.63.329.329,0,0,1-.494.328,1.44,1.44,0,0,0-.75-.207c-1.112,0-2.412,1.2-2.9,2.686a3.088,3.088,0,0,0,1.091,3.606,5.273,5.273,0,0,0,2.139.985,4.506,4.506,0,0,1,.72-3.1,1.236,1.236,0,0,1,.95-.536,1.194,1.194,0,0,1,.933.528,2.3,2.3,0,0,1,.409,2.484,2.54,2.54,0,0,1-2.177,1.327m8.075-2.8c-.057,0-.193.094-.32.344a2.673,2.673,0,0,0,.183,2.416,2.359,2.359,0,0,0,.425-2.3c-.118-.374-.251-.458-.287-.458m-7.241-.878a.633.633,0,0,0-.436.289,3.889,3.889,0,0,0-.564,2.742,1.93,1.93,0,0,0,1.75-.962,1.674,1.674,0,0,0-.332-1.79.631.631,0,0,0-.419-.28M30.41,9.57a3.007,3.007,0,0,0-2.237,2.045c0,.062.007.138.248.138a1.339,1.339,0,0,0,.17-.012A2.316,2.316,0,0,0,30.41,9.57M23.756,6.423c-.743,1.062-.876,2.256-.269,2.764a.619.619,0,0,0,1.083-.31,2.416,2.416,0,0,0-.814-2.454" transform="translate(-4.535 -1.43)" fill="#261d2a"/>
          <path id="Trazado_876775" data-name="Trazado 876775" d="M52.9,169.939s-.682-4.811,3.97-3.3,3.184,5.939,1.4,4.447,1.484-6.643,5.054-4.4,2.82,6.675.306,7.026,1.474-5.164,4.677-1.813-3.658,9.583-6.511,7.345-.673-5.92.028-3.7-1.109,4.427-6.131,4.39-2.811-7.784-1.035-5.552-1.111,4.8-4.679,2.183.419-8.129,2.919-6.632" transform="translate(-16.643 -56.935)" fill="#fff"/>
          <path id="Trazado_876776" data-name="Trazado 876776" d="M55.646,180.108h-.128a3.145,3.145,0,0,1-3.24-2.294,5.75,5.75,0,0,1-2.666-1.14,3.676,3.676,0,0,1-1.326-4.34c.654-2,2.586-3.474,4.076-3.066a3.963,3.963,0,0,1,.761-2.6c.755-.87,2-1.046,3.674-.5a6.306,6.306,0,0,1,1.685.818,3.721,3.721,0,0,1,4.845-.735,5.255,5.255,0,0,1,2.583,4.078,3.462,3.462,0,0,1,2.462,1.185,3.507,3.507,0,0,1,.542,4.011c-.994,2.324-3.715,4.364-5.823,4.364a2.638,2.638,0,0,1-1.671-.544,4.63,4.63,0,0,1-.6-.563,8.544,8.544,0,0,1-5.175,1.328m-2.671-2.276a2.458,2.458,0,0,0,2.548,1.618h.122c2.613,0,4.027-.613,4.78-1.2a3.325,3.325,0,0,1-.283-3.177,1.093,1.093,0,0,1,.907-.707c.233,0,.663.12.914.918a3.027,3.027,0,0,1-.658,3.048,3.885,3.885,0,0,0,.52.488,1.991,1.991,0,0,0,1.265.4c1.844,0,4.332-1.89,5.218-3.965a2.89,2.89,0,0,0-.412-3.3,2.839,2.839,0,0,0-2-.983,2.99,2.99,0,0,1-2.4,2.894c-.862.121-1.147-.331-1.165-.746-.041-.907,1.252-2.443,2.916-2.751a4.6,4.6,0,0,0-2.278-3.576A3.046,3.046,0,0,0,59,167.4a3.083,3.083,0,0,1,1.017,3.183,1.28,1.28,0,0,1-2.127.6c-.985-.825-.688-2.455.181-3.683a5.743,5.743,0,0,0-1.472-.7c-1.4-.455-2.4-.357-2.974.308a3.849,3.849,0,0,0-.569,2.63.329.329,0,0,1-.494.328,1.446,1.446,0,0,0-.749-.207c-1.113,0-2.413,1.205-2.9,2.687a3.087,3.087,0,0,0,1.09,3.6,5.276,5.276,0,0,0,2.139.985,4.51,4.51,0,0,1,.72-3.1,1.237,1.237,0,0,1,.95-.536,1.194,1.194,0,0,1,.933.528,2.3,2.3,0,0,1,.409,2.484,2.54,2.54,0,0,1-2.177,1.327m8.075-2.8c-.057,0-.193.094-.32.345a2.67,2.67,0,0,0,.183,2.416,2.362,2.362,0,0,0,.425-2.3c-.118-.374-.251-.458-.288-.458m-7.24-.878a.633.633,0,0,0-.436.289,3.887,3.887,0,0,0-.564,2.742,1.929,1.929,0,0,0,1.75-.962,1.673,1.673,0,0,0-.332-1.789.63.63,0,0,0-.419-.28m11.422-3.093A3,3,0,0,0,63,173.1c0,.061.006.137.247.137a1.349,1.349,0,0,0,.17-.012,2.315,2.315,0,0,0,1.819-2.171m-6.654-3.148c-.744,1.062-.877,2.256-.269,2.764a.619.619,0,0,0,1.084-.309,2.416,2.416,0,0,0-.814-2.455" transform="translate(-16.469 -56.774)" fill="#261d2a"/>
          <path id="Trazado_876777" data-name="Trazado 876777" d="M41.114,175.863a.329.329,0,0,1-.008-.657c.425-.01.858-.035,1.289-.076a.336.336,0,0,1,.358.3.33.33,0,0,1-.3.358c-.446.041-.9.068-1.335.078Zm-1.315-.016h-.016c-.444-.022-.892-.06-1.332-.113a.328.328,0,0,1-.287-.365.333.333,0,0,1,.365-.287c.426.051.858.087,1.286.109a.329.329,0,0,1-.016.657m3.929-.227a.328.328,0,0,1-.053-.653q.647-.106,1.269-.249a.329.329,0,1,1,.148.64c-.429.1-.866.185-1.311.257a.3.3,0,0,1-.053,0m-6.535-.091a.353.353,0,0,1-.064-.006c-.432-.084-.87-.186-1.3-.3a.328.328,0,1,1,.172-.634c.417.112.839.21,1.257.291a.329.329,0,0,1-.062.651m9.1-.5a.329.329,0,0,1-.094-.643c.421-.125.831-.261,1.231-.4a.328.328,0,1,1,.223.617q-.618.225-1.267.418a.334.334,0,0,1-.094.013m-11.633-.184a.332.332,0,0,1-.106-.018c-.419-.144-.839-.3-1.25-.477a.329.329,0,0,1,.256-.606c.4.167.8.323,1.207.461a.329.329,0,0,1-.106.64m14.107-.709a.329.329,0,0,1-.129-.631c.406-.174.8-.355,1.18-.541a.329.329,0,1,1,.289.59q-.585.287-1.211.555a.33.33,0,0,1-.129.026m-16.529-.308a.318.318,0,0,1-.145-.034q-.587-.29-1.177-.628a.328.328,0,1,1,.326-.57q.574.327,1.142.609a.329.329,0,0,1-.146.623m18.889-.85a.329.329,0,0,1-.16-.616c.392-.217.765-.438,1.119-.659a.329.329,0,1,1,.348.558q-.545.339-1.149.676a.327.327,0,0,1-.159.041m-21.172-.45a.334.334,0,0,1-.178-.052q-.567-.366-1.1-.738a.329.329,0,1,1,.377-.54q.526.368,1.082.724a.329.329,0,0,1-.177.605m23.407-.937a.329.329,0,0,1-.186-.6c.383-.264.734-.519,1.054-.762a.329.329,0,1,1,.4.523c-.327.248-.688.511-1.08.781a.324.324,0,0,1-.186.058M27.8,171.025a.327.327,0,0,1-.2-.068q-.536-.41-1.039-.829a.329.329,0,0,1,.423-.5q.49.411,1.015.811a.329.329,0,0,1-.2.59M55.452,170a.329.329,0,0,1-.212-.58c.452-.381.774-.681.966-.864a.328.328,0,0,1,.456.473c-.2.191-.531.5-1,.894a.328.328,0,0,1-.212.078m-29.67-.663a.327.327,0,0,1-.223-.087q-.5-.456-.955-.925a.329.329,0,0,1,.469-.461q.448.455.932.9a.328.328,0,0,1-.223.57m-1.839-1.876a.329.329,0,0,1-.246-.111q-.448-.507-.854-1.024a.329.329,0,1,1,.517-.406q.394.5.829.994a.329.329,0,0,1-.246.546M22.32,165.4a.329.329,0,0,1-.27-.141q-.386-.557-.725-1.12a.328.328,0,1,1,.562-.34q.329.544.7,1.085a.329.329,0,0,1-.27.516m-1.355-2.251a.328.328,0,0,1-.292-.178c-.205-.4-.4-.806-.569-1.211a.329.329,0,0,1,.6-.258c.166.39.351.783.549,1.168a.328.328,0,0,1-.142.442.323.323,0,0,1-.15.036m-1.029-2.417a.329.329,0,0,1-.311-.223c-.144-.425-.271-.858-.379-1.286a.329.329,0,1,1,.638-.159c.1.411.224.826.363,1.234a.33.33,0,0,1-.312.434M19.3,158.18a.329.329,0,0,1-.324-.277c-.07-.442-.12-.893-.149-1.336a.329.329,0,1,1,.656-.043c.027.425.075.853.143,1.275a.33.33,0,0,1-.273.377.355.355,0,0,1-.053,0m-.163-2.619h-.011a.329.329,0,0,1-.317-.34,12.94,12.94,0,0,1,.119-1.343.329.329,0,0,1,.651.092,12.153,12.153,0,0,0-.112,1.274.329.329,0,0,1-.329.317m.375-2.6a.328.328,0,0,1-.318-.411,11.218,11.218,0,0,1,.419-1.286.329.329,0,0,1,.611.241,10.719,10.719,0,0,0-.4,1.211.328.328,0,0,1-.317.246m.963-2.437a.324.324,0,0,1-.158-.04.329.329,0,0,1-.13-.446q.089-.162.183-.32c-.076-.028-.153-.057-.23-.087a.329.329,0,0,1,.24-.613c.119.047.236.091.353.132.06-.087.121-.172.182-.256a.329.329,0,1,1,.53.389l-.056.077.2.054a.329.329,0,0,1,.237.4.325.325,0,0,1-.4.237c-.137-.035-.277-.074-.419-.117-.085.139-.167.279-.245.421a.329.329,0,0,1-.289.171m2.728-.233c-.137,0-.278,0-.423-.015a.329.329,0,0,1-.3-.351.339.339,0,0,1,.352-.3,4.6,4.6,0,0,0,1.22-.065.328.328,0,1,1,.128.644,4.967,4.967,0,0,1-.971.092m2.122-.564a.329.329,0,0,1-.177-.605,2.689,2.689,0,0,0,.822-.822.329.329,0,0,1,.555.353,3.355,3.355,0,0,1-1.021,1.023.328.328,0,0,1-.178.052m-6.265-.612a.331.331,0,0,1-.147-.035c-.381-.19-.775-.406-1.174-.641a.329.329,0,0,1,.334-.566c.386.227.767.435,1.134.619a.329.329,0,0,1-.147.623m2.964-.705a.328.328,0,0,1-.237-.556,10.1,10.1,0,0,1,1-.914.329.329,0,1,1,.409.515,9.583,9.583,0,0,0-.939.854.326.326,0,0,1-.237.1m-5.233-.618a.326.326,0,0,1-.179-.053q-.577-.377-1.1-.753a.329.329,0,1,1,.385-.532q.508.369,1.07.735a.329.329,0,0,1-.179.6m9.9-.214a.266.266,0,0,1-.039,0,.328.328,0,0,1-.288-.365,2,2,0,0,0,.014-.248,1.292,1.292,0,0,0-.208-.77.328.328,0,1,1,.52-.4,1.918,1.918,0,0,1,.346,1.169,2.684,2.684,0,0,1-.019.327.329.329,0,0,1-.325.291m-2.615-.8a.329.329,0,0,1-.17-.611,11.05,11.05,0,0,1,1.2-.625.329.329,0,1,1,.268.6,10.322,10.322,0,0,0-1.129.588.336.336,0,0,1-.17.047m-9.408-.532a.328.328,0,0,1-.208-.074c-.354-.289-.692-.586-1.006-.881a.329.329,0,1,1,.45-.479c.3.285.63.572.971.851a.328.328,0,0,1-.208.582m-1.909-1.8a.328.328,0,0,1-.245-.109c-.307-.34-.593-.692-.851-1.043a.329.329,0,0,1,.53-.389c.245.334.517.668.809.993a.329.329,0,0,1-.245.548m-1.542-2.12a.33.33,0,0,1-.287-.167,10.026,10.026,0,0,1-.587-1.226.329.329,0,0,1,.611-.241,9.311,9.311,0,0,0,.548,1.144.329.329,0,0,1-.286.49m-.957-2.437a.329.329,0,0,1-.321-.256,8.761,8.761,0,0,1-.2-1.349.329.329,0,0,1,.3-.351.336.336,0,0,1,.352.3,8.134,8.134,0,0,0,.185,1.248.329.329,0,0,1-.247.394.311.311,0,0,1-.073.009m-.185-2.612h-.027a.328.328,0,0,1-.3-.354,10.164,10.164,0,0,1,.2-1.342.328.328,0,1,1,.642.139,9.755,9.755,0,0,0-.187,1.255.328.328,0,0,1-.327.3m.547-2.562a.334.334,0,0,1-.106-.018.329.329,0,0,1-.205-.417c.138-.406.3-.826.495-1.251a.329.329,0,0,1,.6.269c-.182.4-.341.807-.472,1.194a.33.33,0,0,1-.312.223m1.069-2.4a.325.325,0,0,1-.156-.039.329.329,0,0,1-.132-.446c.214-.394.44-.779.674-1.152a.328.328,0,0,1,.6.135,3.424,3.424,0,0,0,1.136.053.331.331,0,0,1,.369.281.327.327,0,0,1-.281.369,4.073,4.073,0,0,1-1.42-.074.309.309,0,0,1-.088-.033c-.143.24-.283.484-.417.732a.33.33,0,0,1-.289.172m3.387-1.254a.329.329,0,0,1-.185-.6,2.787,2.787,0,0,0,.8-.852.329.329,0,0,1,.56.345,3.436,3.436,0,0,1-.989,1.05.325.325,0,0,1-.185.057m-3.762-.035a.323.323,0,0,1-.138-.03,9.954,9.954,0,0,1-1.188-.657.328.328,0,1,1,.354-.553,9.383,9.383,0,0,0,1.11.613.329.329,0,0,1-.138.627m1.762-.943a.329.329,0,0,1-.271-.516c.258-.373.517-.733.77-1.077a.328.328,0,1,1,.529.389c-.25.339-.5.694-.758,1.062a.329.329,0,0,1-.27.142M9.1,129.626a.331.331,0,0,1-.2-.069c-.332-.259-.676-.548-1.023-.86a.329.329,0,0,1,.439-.489c.336.3.668.582.989.831a.328.328,0,0,1-.2.588m7.365-.732a.33.33,0,0,1-.321-.4,3.313,3.313,0,0,0,.08-.694,2.059,2.059,0,0,0-.048-.464.328.328,0,1,1,.639-.152,2.678,2.678,0,0,1,.066.617,3.928,3.928,0,0,1-.1.834.327.327,0,0,1-.321.258m-1.833-.939a.328.328,0,0,1-.263-.526l.086-.115a3.083,3.083,0,0,1,.949-.9.329.329,0,0,1,.3.583,2.4,2.4,0,0,0-.727.709l-.087.116a.328.328,0,0,1-.263.131m-7.517-.087a.289.289,0,0,1-.206-.087c-.354-.354-.649-.671-.914-.979a.329.329,0,1,1,.5-.429c.255.3.539.6.843.906a.352.352,0,0,1,.019.483.343.343,0,0,1-.24.106m-1.681-1.986a.328.328,0,0,1-.269-.139,10.3,10.3,0,0,1-.709-1.157.329.329,0,1,1,.582-.3,9.53,9.53,0,0,0,.664,1.083.329.329,0,0,1-.269.518m-1.194-2.33a.328.328,0,0,1-.313-.23,6.184,6.184,0,0,1-.271-1.358.328.328,0,0,1,.3-.354.332.332,0,0,1,.354.3,5.6,5.6,0,0,0,.243,1.215.329.329,0,0,1-.214.412.347.347,0,0,1-.1.015m-.2-2.594a.276.276,0,0,1-.057-.005.328.328,0,0,1-.268-.38,5.81,5.81,0,0,1,.4-1.326.329.329,0,1,1,.6.264,5.122,5.122,0,0,0-.358,1.175.328.328,0,0,1-.323.272m1.029-2.391a.323.323,0,0,1-.189-.06.328.328,0,0,1-.08-.457,9,9,0,0,1,.87-1.05.329.329,0,0,1,.474.456,8.344,8.344,0,0,0-.806.971.327.327,0,0,1-.269.14m1.8-1.9a.329.329,0,0,1-.209-.582c.334-.275.7-.546,1.077-.807a.329.329,0,1,1,.371.543c-.365.249-.711.509-1.029.771a.329.329,0,0,1-.21.076m2.166-1.491a.329.329,0,0,1-.166-.613c.39-.228.784-.442,1.173-.639a.328.328,0,1,1,.3.585c-.378.193-.76.4-1.138.622a.331.331,0,0,1-.166.045m2.345-1.2a.329.329,0,0,1-.135-.628c.43-.193.843-.365,1.228-.517a.329.329,0,0,1,.241.611c-.377.149-.781.317-1.2.5a.327.327,0,0,1-.134.029m2.451-.967a.329.329,0,0,1-.107-.64c.774-.268,1.262-.4,1.282-.406a.329.329,0,0,1,.172.634c-.005,0-.488.133-1.24.393a.339.339,0,0,1-.107.018" transform="translate(-1.252 -38.368)" fill="#261d2a"/>
          <path id="Trazado_876778" data-name="Trazado 876778" d="M148.316,142.012s-37.735,27.822-39.663,28.023-19.243,2.429-18.969,1.136,9.274-18.255,9.274-18.255l41.333-27.552Z" transform="translate(-30.735 -42.964)" fill="#feffff"/>
          <path id="Trazado_876779" data-name="Trazado 876779" d="M91.583,171.73c-1.633,0-2.1-.162-2.3-.4a.464.464,0,0,1-.1-.393c.276-1.3,8.382-16.6,9.306-18.341a.331.331,0,0,1,.108-.12l41.334-27.552a.33.33,0,0,1,.269-.043.326.326,0,0,1,.209.174l8.024,16.649a.328.328,0,0,1-.1.407c-3.869,2.853-37.863,27.881-39.824,28.085-.243.026-.729.083-1.393.162-3.49.412-11.662,1.378-15.54,1.378m-1.709-.794a6.414,6.414,0,0,0,1.709.137c3.839,0,11.984-.962,15.463-1.373.669-.079,1.159-.137,1.4-.162,1.489-.248,24.222-16.7,39.281-27.8l-7.741-16.063-40.95,27.3c-3.482,6.562-8.63,16.451-9.165,17.964" transform="translate(-30.564 -42.793)" fill="#261d2a"/>
          <path id="Trazado_876780" data-name="Trazado 876780" d="M94.377,177.232l7.266,11.681s-12.882,1.765-13.323,1.179c-.883-1.173,6.057-12.86,6.057-12.86" transform="translate(-30.242 -60.74)" fill="#e86184"/>
          <path id="Trazado_876781" data-name="Trazado 876781" d="M113.492,170.22l.966-8.112-6.111-1.611,1.146-4.617s-5.523-.829-5.7-2.779,40.076-27.2,40.076-27.2,10.967,16.206,9.5,17.2-39.567,29.19-39.881,27.114" transform="translate(-35.572 -43.149)" fill="#7d6eb2"/>
          <path id="Trazado_876782" data-name="Trazado 876782" d="M119.844,167.232a.329.329,0,0,1-.188-.6c10.164-7.1,36.717-25.729,37.517-26.626a.335.335,0,0,1,.459-.041.321.321,0,0,1,.058.446c-.707.93-33.878,24.12-37.658,26.761a.325.325,0,0,1-.188.059" transform="translate(-40.959 -47.943)" fill="#261d2a"/>
          <path id="Trazado_876783" data-name="Trazado 876783" d="M111.118,157.194a.329.329,0,0,1-.191-.6l39.285-27.992a.329.329,0,1,1,.382.535l-39.286,27.992a.325.325,0,0,1-.191.061" transform="translate(-37.969 -44.054)" fill="#261d2a"/>
          <path id="Trazado_876784" data-name="Trazado 876784" d="M158.417,127.823s9.241,16.5,10,16.674,9.309-7.084,8.982-8.446-7.439-14.583-9.615-13.582-9.366,5.354-9.366,5.354" transform="translate(-54.292 -41.953)" fill="#fff"/>
          <path id="Trazado_876785" data-name="Trazado 876785" d="M168.274,144.657h0a.613.613,0,0,1-.1-.011c-.743-.171-5.964-9.249-10.212-16.834a.328.328,0,0,1,.116-.441c.294-.178,7.231-4.374,9.4-5.371a.938.938,0,0,1,.394-.084c2.716,0,9.4,12.716,9.677,13.888.087.364-.141.866-.742,1.629-1.765,2.239-7.5,7.224-8.529,7.224m-9.587-16.888c3.361,5.992,8.73,15.3,9.64,16.213a27.528,27.528,0,0,0,4.714-3.655c2.925-2.634,3.913-4.058,3.865-4.372a52.13,52.13,0,0,0-3.847-7.214c-3.522-5.724-4.864-6.169-5.191-6.169a.278.278,0,0,0-.12.024c-1.9.872-7.73,4.37-9.061,5.172" transform="translate(-54.12 -41.782)" fill="#261d2a"/>
          <path id="Trazado_876786" data-name="Trazado 876786" d="M162.628,123.432s9.54,17,10.906,17.1,8.43-6.641,8.43-6.641-10.579-15.735-11.418-15.5-7.919,5.043-7.919,5.043" transform="translate(-55.735 -40.572)" fill="#e86184"/>
          <path id="Trazado_876787" data-name="Trazado 876787" d="M15.182,38.11S48.857,14.151,50.56,14s17-1.854,16.737-.718S58.85,29.236,58.85,29.236L22.006,52.9Z" transform="translate(-5.203 -4.42)" fill="#feffff"/>
          <path id="Trazado_876788" data-name="Trazado 876788" d="M21.834,53.061a.338.338,0,0,1-.092-.013.328.328,0,0,1-.206-.178L14.711,38.076a.328.328,0,0,1,.108-.4c3.455-2.458,33.8-24.016,35.539-24.168.216-.018.651-.062,1.245-.122,2.918-.3,9.752-.985,13.3-.985,1.963,0,2.293.21,2.45.407a.446.446,0,0,1,.088.384c-.264,1.148-7.64,14.517-8.48,16.037a.336.336,0,0,1-.11.118L22.012,53.009a.336.336,0,0,1-.177.052M15.422,38.049l6.552,14.2L58.43,28.833c3.14-5.684,7.77-14.22,8.325-15.645a7.555,7.555,0,0,0-1.849-.135c-3.518,0-10.329.688-13.237.981-.6.06-1.036.1-1.253.123-1.359.234-21.585,14.354-34.993,23.891" transform="translate(-5.031 -4.248)" fill="#261d2a"/>
          <path id="Trazado_876789" data-name="Trazado 876789" d="M84,23.153l-6.23-10.4s11.38-1.364,11.761-.841C90.292,12.956,84,23.153,84,23.153" transform="translate(-26.653 -4.04)" fill="#e86184"/>
          <path id="Trazado_876790" data-name="Trazado 876790" d="M50.4,14.527l-.972,7.136,5.362,1.512-1.079,4.052s4.855.814,4.979,2.534S22.962,53.136,22.962,53.136s-9.425-14.448-8.117-15.3S50.156,12.694,50.4,14.527" transform="translate(-5.045 -4.945)" fill="#ffd947"/>
          <path id="Trazado_876791" data-name="Trazado 876791" d="M16.35,48.547a.326.326,0,0,1-.26-.523c.642-.814,30.23-20.761,33.6-23.033a.329.329,0,1,1,.367.546c-9.05,6.1-32.7,22.1-33.459,22.9a.346.346,0,0,1-.25.107" transform="translate(-5.491 -8.546)" fill="#261d2a"/>
          <path id="Trazado_876792" data-name="Trazado 876792" d="M21.59,58.053a.329.329,0,0,1-.186-.6L56.448,33.368a.329.329,0,0,1,.373.542L21.776,58a.325.325,0,0,1-.186.058" transform="translate(-7.286 -11.416)" fill="#261d2a"/>
          <path id="Trazado_876793" data-name="Trazado 876793" d="M24.265,61.492s-7.9-14.681-8.564-14.846-8.311,6.1-8.043,7.31S14,66.922,15.929,66.072s8.336-4.579,8.336-4.579" transform="translate(-2.622 -15.985)" fill="#fff"/>
          <path id="Trazado_876794" data-name="Trazado 876794" d="M15.542,66.272h0c-2.492,0-8.143-11.368-8.376-12.416-.072-.327.125-.758.639-1.4,1.513-1.887,6.763-6.315,7.7-6.315a.6.6,0,0,1,.108.013c.536.133,3.488,5.182,8.775,15.009a.328.328,0,0,1-.124.439c-.262.153-6.441,3.749-8.369,4.6a.864.864,0,0,1-.348.071M15.419,46.8c-.979.279-7.674,5.923-7.611,6.919.255,1.146,5.918,11.895,7.734,11.9a.208.208,0,0,0,.083-.016c1.668-.734,6.783-3.681,8.027-4.4-2.873-5.331-7.457-13.6-8.234-14.4" transform="translate(-2.45 -15.814)" fill="#261d2a"/>
          <path id="Trazado_876795" data-name="Trazado 876795" d="M21.18,64.84s-8.994-14.7-10.2-14.807-7.53,5.728-7.53,5.728,9.09,14.027,9.832,13.831S21.18,64.84,21.18,64.84" transform="translate(-1.184 -17.147)" fill="#e86184"/>
          <path id="Trazado_876796" data-name="Trazado 876796" d="M147.563,44.023h-.011a11.943,11.943,0,0,1-1.351-.108.329.329,0,0,1,.1-.649,11.26,11.26,0,0,0,1.269.1.329.329,0,0,1-.011.657m1.316-.009a.329.329,0,0,1-.016-.657c.431-.02.864-.056,1.287-.107a.328.328,0,1,1,.08.652c-.44.053-.89.09-1.336.111h-.015m2.609-.317a.328.328,0,0,1-.064-.651c.423-.085.844-.187,1.251-.3a.329.329,0,0,1,.181.632c-.425.122-.864.229-1.3.316a.307.307,0,0,1-.064.007m2.525-.726a.329.329,0,0,1-.117-.636c.4-.152.795-.326,1.177-.514a.329.329,0,1,1,.29.59c-.4.2-.815.377-1.232.538a.336.336,0,0,1-.118.022m2.354-1.162a.329.329,0,0,1-.172-.609c.362-.223.718-.468,1.056-.725a.329.329,0,0,1,.4.523c-.356.271-.73.528-1.109.762a.331.331,0,0,1-.173.049m2.086-1.591a.328.328,0,0,1-.224-.569c.307-.287.607-.595.894-.918a.328.328,0,1,1,.492.435c-.3.339-.615.662-.937.963a.331.331,0,0,1-.224.088m1.738-1.964a.329.329,0,0,1-.266-.523c.25-.342.489-.7.71-1.069A.329.329,0,1,1,161.2,37c-.231.384-.48.76-.742,1.118a.329.329,0,0,1-.266.135m1.357-2.245a.322.322,0,0,1-.146-.035.329.329,0,0,1-.148-.44c.186-.375.365-.77.53-1.175a.329.329,0,0,1,.608.249c-.171.419-.357.829-.55,1.219a.329.329,0,0,1-.294.182m.994-2.428a.312.312,0,0,1-.1-.017.328.328,0,0,1-.209-.415q.2-.6.37-1.24a.329.329,0,1,1,.636.169q-.177.664-.381,1.278a.329.329,0,0,1-.312.225m.672-2.539a.392.392,0,0,1-.062-.005.329.329,0,0,1-.262-.385c.082-.431.146-.858.188-1.272a.328.328,0,1,1,.653.067c-.044.432-.11.879-.2,1.328a.329.329,0,0,1-.323.267m.262-2.625a.317.317,0,0,1-.329-.316v-.025a11.137,11.137,0,0,0-.069-1.249.329.329,0,1,1,.653-.073,11.815,11.815,0,0,1,.073,1.322.339.339,0,0,1-.329.34m-.3-2.59a.329.329,0,0,1-.319-.251,8.99,8.99,0,0,0-.385-1.206.329.329,0,0,1,.611-.244,9.746,9.746,0,0,1,.412,1.295.328.328,0,0,1-.241.4.314.314,0,0,1-.078.01M148.2,24.269a1.874,1.874,0,0,1-1.421-.583.328.328,0,1,1,.485-.443,1.2,1.2,0,0,0,.912.369h0l.025.657Zm1.251-.367a.329.329,0,0,1-.162-.615,3.73,3.73,0,0,0,.93-.762.329.329,0,0,1,.489.439,4.392,4.392,0,0,1-1.1.9.326.326,0,0,1-.162.042m12.759-.506a.327.327,0,0,1-.285-.165,8.759,8.759,0,0,0-.71-1.048.329.329,0,0,1,.517-.407,9.429,9.429,0,0,1,.763,1.127.329.329,0,0,1-.285.492m-15.625-.845a.3.3,0,0,1-.326-.288v-.08a4.278,4.278,0,0,1,.231-1.321.329.329,0,0,1,.625.2,3.623,3.623,0,0,0-.2,1.116.357.357,0,0,1-.32.369ZM151.215,22a.328.328,0,0,1-.289-.486,6.945,6.945,0,0,0,.5-1.15.329.329,0,0,1,.624.207,7.614,7.614,0,0,1-.544,1.259.328.328,0,0,1-.288.17m9.373-.665a.322.322,0,0,1-.227-.092,10.051,10.051,0,0,0-.974-.817.328.328,0,0,1,.389-.529,10.37,10.37,0,0,1,1.039.872.329.329,0,0,1-.227.566m-13.177-1.2a.328.328,0,0,1-.254-.536,4.4,4.4,0,0,1,1.065-.928.329.329,0,0,1,.352.556,3.755,3.755,0,0,0-.909.788.326.326,0,0,1-.254.12m11.065-.358a.327.327,0,0,1-.161-.043,11.2,11.2,0,0,0-1.148-.56.329.329,0,0,1,.256-.606,11.824,11.824,0,0,1,1.215.594.329.329,0,0,1-.162.615m-6.418-.256a.361.361,0,0,1-.06-.005.329.329,0,0,1-.264-.383c.061-.337.108-.691.138-1.055a.334.334,0,0,1-.039-.142.329.329,0,0,1,.181-.308.322.322,0,0,1,.223-.068.332.332,0,0,1,.112.028q.567-.012,1.152.034a.328.328,0,0,1,.3.352.324.324,0,0,1-.352.3c-.316-.024-.635-.032-.934-.033-.032.347-.078.685-.137,1.008a.329.329,0,0,1-.323.269m4-.762a.336.336,0,0,1-.094-.014,12.336,12.336,0,0,0-1.244-.3.328.328,0,1,1,.12-.645,12.866,12.866,0,0,1,1.311.316.329.329,0,0,1-.093.644m-6.474-.045a.328.328,0,0,1-.109-.638,8.232,8.232,0,0,1,1.326-.34.328.328,0,0,1,.112.647,7.706,7.706,0,0,0-1.219.314.317.317,0,0,1-.109.018m2.655-1.81a.329.329,0,0,1-.329-.319c-.011-.413-.041-.845-.088-1.286a.329.329,0,0,1,.292-.362.334.334,0,0,1,.361.292c.049.457.08.906.091,1.337a.328.328,0,0,1-.319.337Zm-.276-2.613a.329.329,0,0,1-.323-.271q-.071-.405-.161-.828c-.031-.145-.065-.289-.1-.433a.329.329,0,1,1,.636-.166c.039.152.076.308.109.462q.092.435.165.851a.328.328,0,0,1-.266.381.283.283,0,0,1-.058.005m-27.523-1.245a1.834,1.834,0,0,1-1.153-.426.328.328,0,0,1,.411-.512,1.147,1.147,0,0,0,.955.259.329.329,0,0,1,.134.643,1.723,1.723,0,0,1-.347.035m1.349-.745a.329.329,0,0,1-.258-.532,3.3,3.3,0,0,0,.533-1.062.329.329,0,0,1,.628.2,3.96,3.96,0,0,1-.644,1.272.33.33,0,0,1-.258.126m25.5-.546a.329.329,0,0,1-.306-.208,11.242,11.242,0,0,0-.536-1.156.328.328,0,1,1,.58-.309,11.736,11.736,0,0,1,.567,1.224.329.329,0,0,1-.185.426.316.316,0,0,1-.121.023m-28.551-.121a.33.33,0,0,1-.3-.2,5.417,5.417,0,0,1-.363-1.349.329.329,0,1,1,.651-.093,4.76,4.76,0,0,0,.317,1.183.329.329,0,0,1-.172.432.336.336,0,0,1-.13.026m3.888-1.79h-.03a.329.329,0,0,1-.3-.356q.031-.334.03-.7c0-.179,0-.363-.016-.553a.312.312,0,0,1,.26-.369.347.347,0,0,1,.389.275.407.407,0,0,1,.007.074c.012.183.016.38.016.572,0,.266-.011.52-.032.76a.329.329,0,0,1-.327.3m23.434-.4a.327.327,0,0,1-.272-.145c-.237-.35-.494-.695-.768-1.027a.328.328,0,0,1,.507-.417c.287.348.558.71.805,1.077a.328.328,0,0,1-.088.456.323.323,0,0,1-.184.057m-27.734-.382h-.007a.329.329,0,0,1-.321-.336,11.6,11.6,0,0,1,.112-1.348.334.334,0,0,1,.371-.279.329.329,0,0,1,.28.371,10.7,10.7,0,0,0-.106,1.271.329.329,0,0,1-.329.321m26.071-1.648a.331.331,0,0,1-.236-.1c-.29-.3-.6-.6-.935-.889a.329.329,0,0,1,.435-.493c.342.3.669.613.971.923a.329.329,0,0,1-.007.465.324.324,0,0,1-.229.093m-22.049-.151a.329.329,0,0,1-.3-.206,4.825,4.825,0,0,0-.607-1.064.329.329,0,0,1,.528-.392,5.49,5.49,0,0,1,.689,1.211.328.328,0,0,1-.183.427.319.319,0,0,1-.122.024m-3.671-.8a.329.329,0,0,1-.321-.4c.087-.371.189-.757.308-1.158l.044-.139a.328.328,0,0,1,.624.205l-.037.12c-.117.39-.216.763-.3,1.121a.329.329,0,0,1-.32.254M99.3,6.219a.324.324,0,0,1-.233-.1.328.328,0,0,1,0-.465c.314-.312.649-.616.994-.9a.329.329,0,0,1,.42.506c-.331.275-.651.565-.951.863a.329.329,0,0,1-.232.1m47.122-.546a.327.327,0,0,1-.2-.068q-.51-.39-1.052-.754a.328.328,0,1,1,.366-.546q.558.374,1.086.778a.329.329,0,0,1-.2.59m-21.61-.52a.327.327,0,0,1-.223-.087,9.219,9.219,0,0,0-.991-.792.327.327,0,0,1-.14-.289.286.286,0,0,1-.066-.032.328.328,0,0,1-.1-.452,5.848,5.848,0,0,1,.872-1.081.329.329,0,0,1,.46.47,5.2,5.2,0,0,0-.684.821.333.333,0,0,1,.039.023,10.045,10.045,0,0,1,1.061.849.329.329,0,0,1-.223.571m-23.492-.611a.329.329,0,0,1-.187-.6c.364-.252.745-.494,1.133-.717a.328.328,0,0,1,.329.569c-.372.215-.737.447-1.087.689a.322.322,0,0,1-.187.058m42.922-.337a.33.33,0,0,1-.168-.045q-.555-.329-1.133-.628a.329.329,0,0,1,.3-.583c.394.205.784.421,1.165.645a.328.328,0,0,1-.168.611m-21.573-.563a.324.324,0,0,1-.158-.041c-.364-.2-.753-.39-1.155-.567a.329.329,0,1,1,.266-.6c.419.184.824.384,1.2.592a.329.329,0,0,1-.158.617m-19.076-.415a.328.328,0,0,1-.141-.625c.4-.189.808-.367,1.228-.531a.329.329,0,0,1,.239.613c-.4.158-.8.33-1.185.511a.326.326,0,0,1-.141.032m38.319-.234a.336.336,0,0,1-.136-.029q-.591-.27-1.195-.509a.329.329,0,0,1,.243-.611q.619.245,1.225.522a.329.329,0,0,1-.136.628m-21.644-.415a.316.316,0,0,1-.11-.019q-.6-.213-1.232-.391a.329.329,0,1,1,.178-.633c.436.123.864.259,1.274.4a.329.329,0,0,1-.11.638m-14.228-.306a.329.329,0,0,1-.1-.643q.638-.2,1.288-.354a.329.329,0,0,1,.154.64q-.629.151-1.248.342a.313.313,0,0,1-.1.015m19.38-.1a.328.328,0,0,1-.176-.605,8.165,8.165,0,0,1,1.212-.632.328.328,0,1,1,.256.6,7.619,7.619,0,0,0-1.115.581.328.328,0,0,1-.177.051m14.047-.147a.353.353,0,0,1-.106-.017q-.617-.211-1.24-.39A.329.329,0,1,1,138.3.984q.637.183,1.27.4a.329.329,0,0,1-.106.64M117.74,1.86a.329.329,0,0,1-.07-.008q-.625-.137-1.274-.24a.329.329,0,1,1,.1-.649c.444.071.881.154,1.31.248a.328.328,0,0,1-.07.649m-9.145-.2A.329.329,0,0,1,108.538,1q.659-.116,1.32-.193a.335.335,0,0,1,.364.289.329.329,0,0,1-.289.364q-.642.073-1.282.186a.291.291,0,0,1-.058.005m6.551-.212-.035,0c-.427-.044-.859-.078-1.293-.1a.328.328,0,1,1,.032-.656c.447.022.89.057,1.328.1a.329.329,0,0,1-.033.655m-3.94-.091A.329.329,0,0,1,111.187.7c.444-.026.889-.039,1.332-.041h0a.329.329,0,0,1,0,.657q-.646,0-1.295.04h-.02M136.94,1.3a.327.327,0,0,1-.075-.008c-.425-.1-.849-.188-1.272-.266a.329.329,0,0,1-.264-.383.332.332,0,0,1,.383-.264q.651.119,1.3.272a.328.328,0,0,1-.075.648m-9.113-.159a.329.329,0,0,1-.087-.645,12.546,12.546,0,0,1,1.319-.286.329.329,0,0,1,.106.649,11.8,11.8,0,0,0-1.251.271.361.361,0,0,1-.087.011m6.526-.308a.291.291,0,0,1-.041,0c-.434-.055-.866-.1-1.29-.125a.328.328,0,0,1-.306-.35.338.338,0,0,1,.35-.306c.437.03.881.072,1.328.128a.329.329,0,0,1-.041.655M130.416.706a.329.329,0,0,1-.024-.657c.425-.032.872-.048,1.326-.048a.333.333,0,0,1,.335.329.324.324,0,0,1-.323.329h-.012c-.439,0-.868.015-1.276.047h-.026" transform="translate(-33.92 0)" fill="#261d2a"/>
        </g>
      </g>
    </g>
  </g>
</svg>
