<svg xmlns="http://www.w3.org/2000/svg" xmlns:xlink="http://www.w3.org/1999/xlink" width="1350" height="802" viewBox="0 0 1350 802">
  <defs>
    <clipPath id="clip-path">
      <rect id="Rect치ngulo_401512" data-name="Rect치ngulo 401512" width="1350" height="802" rx="10" fill="#aee6e6"/>
    </clipPath>
    <clipPath id="clip-path-2">
      <path id="Trazado_878422" data-name="Trazado 878422" d="M.216.1,56.3-.022l-.254,91.3L-.038,91.4Z" transform="translate(91.553 80.568) rotate(152.705)" fill="none" stroke="#7d6eb2" stroke-width="1"/>
    </clipPath>
  </defs>
  <g id="Grupo_1101510" data-name="Grupo 1101510" transform="translate(-180 -2774)">
    <rect id="Rect치ngulo_401888" data-name="Rect치ngulo 401888" width="1350" height="802" rx="10" transform="translate(180 2774)" fill="#aee6e6" opacity="0.5"/>
    <g id="Enmascarar_grupo_1098709" data-name="Enmascarar grupo 1098709" transform="translate(180 2774)" clip-path="url(#clip-path)">
      <g id="Grupo_1099853" data-name="Grupo 1099853" transform="translate(-33.206 -27.729)">
        <g id="Grupo_1098993" data-name="Grupo 1098993" transform="matrix(0.469, -0.883, 0.883, 0.469, 44.351, 768.019)">
          <g id="Grupo_1098992" data-name="Grupo 1098992" transform="translate(0 0)" clip-path="url(#clip-path-2)">
            <g id="Grupo_1098991" data-name="Grupo 1098991" transform="translate(-40.743 9.431)">
              <path id="Trazado_878420" data-name="Trazado 878420" d="M52.937-.313c28.5-.888,50.884,18.062,50,42.326S78.221,86.667,49.72,87.556s-50.884-18.062-50-42.326S24.437.575,52.937-.313Z" transform="translate(-0.397 28.822) rotate(-16.624)" fill="none" stroke="#7d6eb2" stroke-width="2"/>
              <path id="Trazado_878415" data-name="Trazado 878415" d="M38.337.669C60.985,2.535,80.858,23.759,82.725,48.074S67.745,90.586,45.1,88.72,2.576,65.629.709,41.315,15.689-1.2,38.337.669Z" transform="translate(13.125 93.623) rotate(-85.029)" fill="none" stroke="#7d6eb2" stroke-width="2"/>
              <path id="Trazado_878416" data-name="Trazado 878416" d="M33.827.617C53.858,2.323,71.478,20.834,73.184,41.964S60.033,78.84,40,77.135,2.351,56.918.645,35.789,13.8-1.088,33.827.617Z" transform="matrix(0.14, -0.99, 0.99, 0.14, 17.592, 87.027)" fill="none" stroke="#7d6eb2" stroke-width="2"/>
              <path id="Trazado_878417" data-name="Trazado 878417" d="M35.488-.423C54.028-1.7,68.024,10.9,66.748,27.72s-17.34,31.487-35.88,32.763S-1.668,49.159-.392,32.341,16.948.853,35.488-.423Z" transform="translate(28.088 25.905)" fill="none" stroke="#7d6eb2" stroke-width="2"/>
              <path id="Trazado_878418" data-name="Trazado 878418" d="M29.781-.3c15.714-.883,27.737,9.623,26.853,23.466S42.3,48.947,26.582,49.831-1.154,40.208-.271,26.365,14.067.584,29.781-.3Z" transform="translate(30.528 34.424) rotate(-6.323)" fill="none" stroke="#7d6eb2" stroke-width="2"/>
              <path id="Trazado_873122" data-name="Trazado 873122" d="M21.456.312c12.51.818,23.315,10.6,24.132,21.842s-8.661,19.7-21.171,18.88S1.1,30.437.286,19.192,8.946-.506,21.456.312Z" transform="translate(31.074 62.414) rotate(-54.14)" fill="none" stroke="#7d6eb2" stroke-width="2"/>
              <path id="Trazado_878419" data-name="Trazado 878419" d="M15.831.269C25.142.975,33.262,8.554,33.969,17.2S27.7,32.273,18.39,31.567.959,23.281.253,14.638,6.521-.438,15.831.269Z" transform="matrix(0.495, -0.869, 0.869, 0.495, 38.968, 62.933)" fill="none" stroke="#7d6eb2" stroke-width="2"/>
              <path id="Trazado_878421" data-name="Trazado 878421" d="M12.127-.048c6.588-.133,11.82,4.27,11.687,9.833S18.233,19.968,11.646,20.1-.175,15.831-.042,10.267,5.54.085,12.127-.048Z" transform="translate(46.601 50.763) rotate(-20.72)" fill="none" stroke="#7d6eb2" stroke-width="2"/>
              <path id="Trazado_873123" data-name="Trazado 873123" d="M.412,8.27C-.911,5.691.5,2.312,3.563.724s6.62-.786,7.943,1.793-.088,5.957-3.152,7.545S1.735,10.849.412,8.27Z" transform="translate(55.307 50.542)" fill="none" stroke="#7d6eb2" stroke-miterlimit="10" stroke-width="2"/>
            </g>
          </g>
        </g>
        <g id="Grupo_1098998" data-name="Grupo 1098998" transform="translate(1224.675 50.047)">
          <g id="Grupo_1098994" data-name="Grupo 1098994" transform="translate(0 0)">
            <path id="Trazado_873124" data-name="Trazado 873124" d="M640.186,391.326c5.627,0,5.627,4.022,11.254,4.022s5.627-4.022,11.254-4.022,5.625,4.022,11.251,4.022,5.626-4.022,11.254-4.022,5.627,4.022,11.255,4.022,5.627-4.022,11.254-4.022,5.627,4.022,11.254,4.022,5.627-4.022,11.255-4.022,5.629,4.022,11.257,4.022,5.628-4.022,11.255-4.022,5.628,4.022,11.256,4.022,5.629-4.022,11.257-4.022,5.626,4.022,11.253,4.022,5.628-4.022,11.256-4.022,5.63,4.022,11.259,4.022,5.628-4.022,11.256-4.022,5.632,4.022,11.264,4.022,5.631-4.022,11.264-4.022" transform="translate(-640.186 -391.326)" fill="none" stroke="#26aab7" stroke-miterlimit="10" stroke-width="2"/>
          </g>
          <g id="Grupo_1098995" data-name="Grupo 1098995" transform="translate(0 17.324)">
            <path id="Trazado_873125" data-name="Trazado 873125" d="M640.186,408.556c5.627,0,5.627,4.022,11.254,4.022s5.627-4.022,11.254-4.022,5.625,4.022,11.251,4.022,5.626-4.022,11.254-4.022,5.627,4.022,11.255,4.022,5.627-4.022,11.254-4.022,5.627,4.022,11.254,4.022,5.627-4.022,11.255-4.022,5.629,4.022,11.257,4.022,5.628-4.022,11.255-4.022,5.628,4.022,11.256,4.022,5.629-4.022,11.257-4.022,5.626,4.022,11.253,4.022,5.628-4.022,11.256-4.022,5.63,4.022,11.259,4.022,5.628-4.022,11.256-4.022,5.632,4.022,11.264,4.022,5.631-4.022,11.264-4.022" transform="translate(-640.186 -408.556)" fill="none" stroke="#26aab7" stroke-miterlimit="10" stroke-width="2"/>
          </g>
          <g id="Grupo_1098996" data-name="Grupo 1098996" transform="translate(0 34.648)">
            <path id="Trazado_873126" data-name="Trazado 873126" d="M640.186,425.786c5.627,0,5.627,4.022,11.254,4.022s5.627-4.022,11.254-4.022,5.625,4.022,11.251,4.022,5.626-4.022,11.254-4.022,5.627,4.022,11.255,4.022,5.627-4.022,11.254-4.022,5.627,4.022,11.254,4.022,5.627-4.022,11.255-4.022,5.629,4.022,11.257,4.022,5.628-4.022,11.255-4.022,5.628,4.022,11.256,4.022,5.629-4.022,11.257-4.022,5.626,4.022,11.253,4.022,5.628-4.022,11.256-4.022,5.63,4.022,11.259,4.022,5.628-4.022,11.256-4.022,5.632,4.022,11.264,4.022,5.631-4.022,11.264-4.022" transform="translate(-640.186 -425.786)" fill="none" stroke="#26aab7" stroke-miterlimit="10" stroke-width="2"/>
          </g>
          <g id="Grupo_1098997" data-name="Grupo 1098997" transform="translate(0 51.972)">
            <path id="Trazado_873127" data-name="Trazado 873127" d="M640.186,443.016c5.627,0,5.627,4.022,11.254,4.022s5.627-4.022,11.254-4.022,5.625,4.022,11.251,4.022,5.626-4.022,11.254-4.022,5.627,4.022,11.255,4.022,5.627-4.022,11.254-4.022,5.627,4.022,11.254,4.022,5.627-4.022,11.255-4.022,5.629,4.022,11.257,4.022,5.628-4.022,11.255-4.022,5.628,4.022,11.256,4.022,5.629-4.022,11.257-4.022,5.626,4.022,11.253,4.022,5.628-4.022,11.256-4.022,5.63,4.022,11.259,4.022,5.628-4.022,11.256-4.022,5.632,4.022,11.264,4.022,5.631-4.022,11.264-4.022" transform="translate(-640.186 -443.016)" fill="none" stroke="#26aab7" stroke-miterlimit="10" stroke-width="2"/>
          </g>
        </g>
        <path id="Trazado_873128" data-name="Trazado 873128" d="M46.887,162.673c-.654,0-8.831-.631-8.831-1.41a1.2,1.2,0,1,1,2.368,0C40.424,162.042,47.54,162.673,46.887,162.673Zm-7.647-6.09a1.431,1.431,0,1,1,1.184-1.41A1.312,1.312,0,0,1,39.24,156.583Zm0-6.09a1.431,1.431,0,1,1,1.184-1.41A1.312,1.312,0,0,1,39.24,150.493Zm0-6.09a1.431,1.431,0,1,1,1.184-1.41A1.312,1.312,0,0,1,39.24,144.4Zm0-6.09a1.431,1.431,0,1,1,1.184-1.41A1.312,1.312,0,0,1,39.24,138.313Zm0-6.09a1.431,1.431,0,1,1,1.184-1.41A1.312,1.312,0,0,1,39.24,132.223Zm0-6.09a1.431,1.431,0,1,1,1.184-1.41A1.312,1.312,0,0,1,39.24,126.133Zm0-6.09a1.431,1.431,0,1,1,1.184-1.41A1.312,1.312,0,0,1,39.24,120.044Zm5.115,60.9a1.431,1.431,0,1,1,1.184-1.41A1.312,1.312,0,0,1,44.354,180.942Zm0-6.09a1.431,1.431,0,1,1,1.184-1.41A1.312,1.312,0,0,1,44.354,174.852Zm0-6.09a1.431,1.431,0,1,1,1.184-1.41A1.312,1.312,0,0,1,44.354,168.763Zm0-6.09a1.431,1.431,0,1,1,1.184-1.41A1.312,1.312,0,0,1,44.354,162.673Zm0-6.09a1.431,1.431,0,1,1,1.184-1.41A1.312,1.312,0,0,1,44.354,156.583Zm0-6.09a1.431,1.431,0,1,1,1.184-1.41A1.312,1.312,0,0,1,44.354,150.493Zm0-6.09a1.431,1.431,0,1,1,1.184-1.41A1.312,1.312,0,0,1,44.354,144.4Zm0-6.09a1.431,1.431,0,1,1,1.184-1.41A1.312,1.312,0,0,1,44.354,138.313Zm0-6.09a1.431,1.431,0,1,1,1.184-1.41A1.312,1.312,0,0,1,44.354,132.223Zm0-6.09a1.431,1.431,0,1,1,1.184-1.41A1.312,1.312,0,0,1,44.354,126.133Zm0-6.09a1.431,1.431,0,1,1,1.184-1.41A1.312,1.312,0,0,1,44.354,120.044Zm0-6.09a1.431,1.431,0,1,1,1.184-1.41A1.312,1.312,0,0,1,44.354,113.954Zm0-6.09a1.431,1.431,0,1,1,1.184-1.41A1.312,1.312,0,0,1,44.354,107.864Zm0-6.09a1.431,1.431,0,1,1,1.184-1.41A1.312,1.312,0,0,1,44.354,101.774Zm5.115,91.348a1.431,1.431,0,1,1,1.184-1.41A1.312,1.312,0,0,1,49.469,193.122Zm0-6.09a1.431,1.431,0,1,1,1.184-1.41A1.312,1.312,0,0,1,49.469,187.032Zm0-6.09a1.431,1.431,0,1,1,1.184-1.41A1.312,1.312,0,0,1,49.469,180.942Zm0-6.09a1.431,1.431,0,1,1,1.184-1.41A1.312,1.312,0,0,1,49.469,174.852Zm0-6.09a1.431,1.431,0,1,1,1.184-1.41A1.312,1.312,0,0,1,49.469,168.763Zm0-6.09a1.431,1.431,0,1,1,1.184-1.41A1.312,1.312,0,0,1,49.469,162.673Zm0-6.09a1.431,1.431,0,1,1,1.184-1.41A1.312,1.312,0,0,1,49.469,156.583Zm0-6.09a1.431,1.431,0,1,1,1.184-1.41A1.312,1.312,0,0,1,49.469,150.493Zm0-6.09a1.431,1.431,0,1,1,1.184-1.41A1.312,1.312,0,0,1,49.469,144.4Zm0-6.09a1.431,1.431,0,1,1,1.184-1.41A1.312,1.312,0,0,1,49.469,138.313Zm0-6.09a1.431,1.431,0,1,1,1.184-1.41A1.312,1.312,0,0,1,49.469,132.223Zm0-6.09a1.431,1.431,0,1,1,1.184-1.41A1.312,1.312,0,0,1,49.469,126.133Zm0-6.09a1.431,1.431,0,1,1,1.184-1.41A1.312,1.312,0,0,1,49.469,120.044Zm0-6.09a1.431,1.431,0,1,1,1.184-1.41A1.312,1.312,0,0,1,49.469,113.954Zm0-6.09a1.431,1.431,0,1,1,1.184-1.41A1.312,1.312,0,0,1,49.469,107.864Zm0-6.09a1.431,1.431,0,1,1,1.184-1.41A1.312,1.312,0,0,1,49.469,101.774Zm0-6.09a1.431,1.431,0,1,1,1.184-1.41A1.312,1.312,0,0,1,49.469,95.684Zm0-6.09a1.431,1.431,0,1,1,1.184-1.41A1.312,1.312,0,0,1,49.469,89.594Zm5.115,109.618a1.431,1.431,0,1,1,1.184-1.41A1.312,1.312,0,0,1,54.583,199.212Zm0-6.09a1.431,1.431,0,1,1,1.184-1.41A1.312,1.312,0,0,1,54.583,193.122Zm0-6.09a1.431,1.431,0,1,1,1.184-1.41A1.312,1.312,0,0,1,54.583,187.032Zm0-6.09a1.431,1.431,0,1,1,1.184-1.41A1.312,1.312,0,0,1,54.583,180.942Zm0-6.09a1.431,1.431,0,1,1,1.184-1.41A1.312,1.312,0,0,1,54.583,174.852Zm0-6.09a1.431,1.431,0,1,1,1.184-1.41A1.312,1.312,0,0,1,54.583,168.763Zm0-6.09a1.431,1.431,0,1,1,1.184-1.41A1.312,1.312,0,0,1,54.583,162.673Zm0-6.09a1.431,1.431,0,1,1,1.184-1.41A1.312,1.312,0,0,1,54.583,156.583Zm0-6.09a1.431,1.431,0,1,1,1.184-1.41A1.312,1.312,0,0,1,54.583,150.493Zm0-6.09a1.431,1.431,0,1,1,1.184-1.41A1.312,1.312,0,0,1,54.583,144.4Zm0-6.09a1.431,1.431,0,1,1,1.184-1.41A1.312,1.312,0,0,1,54.583,138.313Zm0-6.09a1.431,1.431,0,1,1,1.184-1.41A1.312,1.312,0,0,1,54.583,132.223Zm0-6.09a1.431,1.431,0,1,1,1.184-1.41A1.312,1.312,0,0,1,54.583,126.133Zm0-6.09a1.431,1.431,0,1,1,1.184-1.41A1.312,1.312,0,0,1,54.583,120.044Zm0-6.09a1.431,1.431,0,1,1,1.184-1.41A1.312,1.312,0,0,1,54.583,113.954Zm0-6.09a1.431,1.431,0,1,1,1.184-1.41A1.312,1.312,0,0,1,54.583,107.864Zm0-6.09a1.431,1.431,0,1,1,1.184-1.41A1.312,1.312,0,0,1,54.583,101.774Zm0-6.09a1.431,1.431,0,1,1,1.184-1.41A1.312,1.312,0,0,1,54.583,95.684Zm0-6.09a1.431,1.431,0,1,1,1.184-1.41A1.312,1.312,0,0,1,54.583,89.594Zm0-6.09a1.431,1.431,0,1,1,1.184-1.41A1.312,1.312,0,0,1,54.583,83.5ZM59.7,211.392a1.431,1.431,0,1,1,1.184-1.41A1.312,1.312,0,0,1,59.7,211.392Zm0-6.09a1.431,1.431,0,1,1,1.184-1.41A1.312,1.312,0,0,1,59.7,205.3Zm0-6.09a1.431,1.431,0,1,1,1.184-1.41A1.312,1.312,0,0,1,59.7,199.212Zm0-6.09a1.431,1.431,0,1,1,1.184-1.41A1.312,1.312,0,0,1,59.7,193.122Zm0-6.09a1.431,1.431,0,1,1,1.184-1.41A1.312,1.312,0,0,1,59.7,187.032Zm0-6.09a1.431,1.431,0,1,1,1.184-1.41A1.312,1.312,0,0,1,59.7,180.942Zm0-6.09a1.431,1.431,0,1,1,1.184-1.41A1.312,1.312,0,0,1,59.7,174.852Zm0-6.09a1.431,1.431,0,1,1,1.184-1.41A1.312,1.312,0,0,1,59.7,168.763Zm0-6.09a1.431,1.431,0,1,1,1.184-1.41A1.312,1.312,0,0,1,59.7,162.673Zm0-6.09a1.431,1.431,0,1,1,1.184-1.41A1.312,1.312,0,0,1,59.7,156.583Zm0-6.09a1.431,1.431,0,1,1,1.184-1.41A1.312,1.312,0,0,1,59.7,150.493Zm0-6.09a1.431,1.431,0,1,1,1.184-1.41A1.312,1.312,0,0,1,59.7,144.4Zm0-6.09a1.431,1.431,0,1,1,1.184-1.41A1.312,1.312,0,0,1,59.7,138.313Zm0-6.09a1.431,1.431,0,1,1,1.184-1.41A1.312,1.312,0,0,1,59.7,132.223Zm0-6.09a1.431,1.431,0,1,1,1.184-1.41A1.312,1.312,0,0,1,59.7,126.133Zm0-6.09a1.431,1.431,0,1,1,1.184-1.41A1.312,1.312,0,0,1,59.7,120.044Zm0-6.09a1.431,1.431,0,1,1,1.184-1.41A1.312,1.312,0,0,1,59.7,113.954Zm0-6.09a1.431,1.431,0,1,1,1.184-1.41A1.312,1.312,0,0,1,59.7,107.864Zm0-6.09a1.431,1.431,0,1,1,1.184-1.41A1.312,1.312,0,0,1,59.7,101.774Zm0-6.09a1.431,1.431,0,1,1,1.184-1.41A1.312,1.312,0,0,1,59.7,95.684Zm0-6.09a1.431,1.431,0,1,1,1.184-1.41A1.312,1.312,0,0,1,59.7,89.594Zm0-6.09a1.431,1.431,0,1,1,1.184-1.41A1.312,1.312,0,0,1,59.7,83.5Zm0-6.09A1.431,1.431,0,1,1,60.882,76,1.312,1.312,0,0,1,59.7,77.414Zm0-6.09a1.431,1.431,0,1,1,1.184-1.41A1.312,1.312,0,0,1,59.7,71.325Zm5.115,146.157A1.431,1.431,0,1,1,66,216.072,1.312,1.312,0,0,1,64.812,217.482Zm0-6.09A1.431,1.431,0,1,1,66,209.982,1.312,1.312,0,0,1,64.812,211.392Zm0-6.09A1.431,1.431,0,1,1,66,203.892,1.312,1.312,0,0,1,64.812,205.3Zm0-6.09A1.431,1.431,0,1,1,66,197.8,1.312,1.312,0,0,1,64.812,199.212Zm0-6.09A1.431,1.431,0,1,1,66,191.713,1.312,1.312,0,0,1,64.812,193.122Zm0-6.09A1.431,1.431,0,1,1,66,185.623,1.312,1.312,0,0,1,64.812,187.032Zm0-6.09A1.431,1.431,0,1,1,66,179.533,1.312,1.312,0,0,1,64.812,180.942Zm0-6.09A1.431,1.431,0,1,1,66,173.443,1.312,1.312,0,0,1,64.812,174.852Zm0-6.09A1.431,1.431,0,1,1,66,167.353,1.312,1.312,0,0,1,64.812,168.763Zm0-6.09A1.431,1.431,0,1,1,66,161.263,1.312,1.312,0,0,1,64.812,162.673Zm0-6.09A1.431,1.431,0,1,1,66,155.173,1.312,1.312,0,0,1,64.812,156.583Zm0-6.09A1.431,1.431,0,1,1,66,149.083,1.312,1.312,0,0,1,64.812,150.493Zm0-6.09A1.431,1.431,0,1,1,66,142.993,1.312,1.312,0,0,1,64.812,144.4Zm0-6.09A1.431,1.431,0,1,1,66,136.9,1.312,1.312,0,0,1,64.812,138.313Zm0-6.09A1.431,1.431,0,1,1,66,130.814,1.312,1.312,0,0,1,64.812,132.223Zm0-6.09A1.431,1.431,0,1,1,66,124.724,1.312,1.312,0,0,1,64.812,126.133Zm0-6.09A1.431,1.431,0,1,1,66,118.634,1.312,1.312,0,0,1,64.812,120.044Zm0-6.09A1.431,1.431,0,1,1,66,112.544,1.312,1.312,0,0,1,64.812,113.954Zm0-6.09A1.431,1.431,0,1,1,66,106.454,1.312,1.312,0,0,1,64.812,107.864Zm0-6.09A1.431,1.431,0,1,1,66,100.364,1.312,1.312,0,0,1,64.812,101.774Zm0-6.09A1.431,1.431,0,1,1,66,94.274,1.312,1.312,0,0,1,64.812,95.684Zm0-6.09A1.431,1.431,0,1,1,66,88.185,1.312,1.312,0,0,1,64.812,89.594Zm0-6.09A1.431,1.431,0,1,1,66,82.095,1.312,1.312,0,0,1,64.812,83.5Zm0-6.09A1.431,1.431,0,1,1,66,76,1.312,1.312,0,0,1,64.812,77.414Zm0-6.09A1.431,1.431,0,1,1,66,69.915,1.312,1.312,0,0,1,64.812,71.325Zm0-6.09A1.431,1.431,0,1,1,66,63.825,1.312,1.312,0,0,1,64.812,65.235Zm5.115,152.247a1.431,1.431,0,1,1,1.184-1.41A1.312,1.312,0,0,1,69.927,217.482Zm0-6.09a1.431,1.431,0,1,1,1.184-1.41A1.312,1.312,0,0,1,69.927,211.392Zm0-6.09a1.431,1.431,0,1,1,1.184-1.41A1.312,1.312,0,0,1,69.927,205.3Zm0-6.09a1.431,1.431,0,1,1,1.184-1.41A1.312,1.312,0,0,1,69.927,199.212Zm0-6.09a1.431,1.431,0,1,1,1.184-1.41A1.312,1.312,0,0,1,69.927,193.122Zm0-6.09a1.431,1.431,0,1,1,1.184-1.41A1.312,1.312,0,0,1,69.927,187.032Zm0-6.09a1.431,1.431,0,1,1,1.184-1.41A1.312,1.312,0,0,1,69.927,180.942Zm0-6.09a1.431,1.431,0,1,1,1.184-1.41A1.312,1.312,0,0,1,69.927,174.852Zm0-6.09a1.431,1.431,0,1,1,1.184-1.41A1.312,1.312,0,0,1,69.927,168.763Zm0-6.09a1.431,1.431,0,1,1,1.184-1.41A1.312,1.312,0,0,1,69.927,162.673Zm0-6.09a1.431,1.431,0,1,1,1.184-1.41A1.312,1.312,0,0,1,69.927,156.583Zm0-6.09a1.431,1.431,0,1,1,1.184-1.41A1.312,1.312,0,0,1,69.927,150.493Zm0-6.09a1.431,1.431,0,1,1,1.184-1.41A1.312,1.312,0,0,1,69.927,144.4Zm0-6.09a1.431,1.431,0,1,1,1.184-1.41A1.312,1.312,0,0,1,69.927,138.313Zm0-6.09a1.431,1.431,0,1,1,1.184-1.41A1.312,1.312,0,0,1,69.927,132.223Zm0-6.09a1.431,1.431,0,1,1,1.184-1.41A1.312,1.312,0,0,1,69.927,126.133Zm0-6.09a1.431,1.431,0,1,1,1.184-1.41A1.312,1.312,0,0,1,69.927,120.044Zm0-6.09a1.431,1.431,0,1,1,1.184-1.41A1.312,1.312,0,0,1,69.927,113.954Zm0-6.09a1.431,1.431,0,1,1,1.184-1.41A1.312,1.312,0,0,1,69.927,107.864Zm0-6.09a1.431,1.431,0,1,1,1.184-1.41A1.312,1.312,0,0,1,69.927,101.774Zm0-6.09a1.431,1.431,0,1,1,1.184-1.41A1.312,1.312,0,0,1,69.927,95.684Zm0-6.09a1.431,1.431,0,1,1,1.184-1.41A1.312,1.312,0,0,1,69.927,89.594Zm0-6.09a1.431,1.431,0,1,1,1.184-1.41A1.312,1.312,0,0,1,69.927,83.5Zm0-6.09A1.431,1.431,0,1,1,71.111,76,1.312,1.312,0,0,1,69.927,77.414Zm0-6.09a1.431,1.431,0,1,1,1.184-1.41A1.312,1.312,0,0,1,69.927,71.325Zm0-6.09a1.431,1.431,0,1,1,1.184-1.41A1.312,1.312,0,0,1,69.927,65.235Zm5.114,158.337a1.431,1.431,0,1,1,1.184-1.41A1.312,1.312,0,0,1,75.041,223.571Zm0-6.09a1.431,1.431,0,1,1,1.184-1.41A1.312,1.312,0,0,1,75.041,217.482Zm0-6.09a1.431,1.431,0,1,1,1.184-1.41A1.312,1.312,0,0,1,75.041,211.392Zm0-6.09a1.431,1.431,0,1,1,1.184-1.41A1.312,1.312,0,0,1,75.041,205.3Zm0-6.09a1.431,1.431,0,1,1,1.184-1.41A1.312,1.312,0,0,1,75.041,199.212Zm0-6.09a1.431,1.431,0,1,1,1.184-1.41A1.312,1.312,0,0,1,75.041,193.122Zm0-6.09a1.431,1.431,0,1,1,1.184-1.41A1.312,1.312,0,0,1,75.041,187.032Zm0-6.09a1.431,1.431,0,1,1,1.184-1.41A1.312,1.312,0,0,1,75.041,180.942Zm0-6.09a1.431,1.431,0,1,1,1.184-1.41A1.312,1.312,0,0,1,75.041,174.852Zm0-6.09a1.431,1.431,0,1,1,1.184-1.41A1.312,1.312,0,0,1,75.041,168.763Zm0-6.09a1.431,1.431,0,1,1,1.184-1.41A1.312,1.312,0,0,1,75.041,162.673Zm0-6.09a1.431,1.431,0,1,1,1.184-1.41A1.312,1.312,0,0,1,75.041,156.583Zm0-6.09a1.431,1.431,0,1,1,1.184-1.41A1.312,1.312,0,0,1,75.041,150.493Zm0-6.09a1.431,1.431,0,1,1,1.184-1.41A1.312,1.312,0,0,1,75.041,144.4Zm0-6.09a1.431,1.431,0,1,1,1.184-1.41A1.312,1.312,0,0,1,75.041,138.313Zm0-6.09a1.431,1.431,0,1,1,1.184-1.41A1.312,1.312,0,0,1,75.041,132.223Zm0-6.09a1.431,1.431,0,1,1,1.184-1.41A1.312,1.312,0,0,1,75.041,126.133Zm0-6.09a1.431,1.431,0,1,1,1.184-1.41A1.312,1.312,0,0,1,75.041,120.044Zm0-6.09a1.431,1.431,0,1,1,1.184-1.41A1.312,1.312,0,0,1,75.041,113.954Zm0-6.09a1.431,1.431,0,1,1,1.184-1.41A1.312,1.312,0,0,1,75.041,107.864Zm0-6.09a1.431,1.431,0,1,1,1.184-1.41A1.312,1.312,0,0,1,75.041,101.774Zm0-6.09a1.431,1.431,0,1,1,1.184-1.41A1.312,1.312,0,0,1,75.041,95.684Zm0-6.09a1.431,1.431,0,1,1,1.184-1.41A1.312,1.312,0,0,1,75.041,89.594Zm0-6.09a1.431,1.431,0,1,1,1.184-1.41A1.312,1.312,0,0,1,75.041,83.5Zm0-6.09A1.431,1.431,0,1,1,76.225,76,1.312,1.312,0,0,1,75.041,77.414Zm0-6.09a1.431,1.431,0,1,1,1.184-1.41A1.312,1.312,0,0,1,75.041,71.325Zm0-6.09a1.431,1.431,0,1,1,1.184-1.41A1.312,1.312,0,0,1,75.041,65.235Zm0-6.09a1.431,1.431,0,1,1,1.184-1.41A1.312,1.312,0,0,1,75.041,59.145Zm5.115,170.517a1.431,1.431,0,1,1,1.184-1.41A1.312,1.312,0,0,1,80.156,229.661Zm0-6.09a1.431,1.431,0,1,1,1.184-1.41A1.312,1.312,0,0,1,80.156,223.571Zm0-6.09a1.431,1.431,0,1,1,1.184-1.41A1.312,1.312,0,0,1,80.156,217.482Zm0-6.09a1.431,1.431,0,1,1,1.184-1.41A1.312,1.312,0,0,1,80.156,211.392Zm0-6.09a1.431,1.431,0,1,1,1.184-1.41A1.312,1.312,0,0,1,80.156,205.3Zm0-6.09a1.431,1.431,0,1,1,1.184-1.41A1.312,1.312,0,0,1,80.156,199.212Zm0-6.09a1.431,1.431,0,1,1,1.184-1.41A1.312,1.312,0,0,1,80.156,193.122Zm0-6.09a1.431,1.431,0,1,1,1.184-1.41A1.312,1.312,0,0,1,80.156,187.032Zm0-6.09a1.431,1.431,0,1,1,1.184-1.41A1.312,1.312,0,0,1,80.156,180.942Zm0-6.09a1.431,1.431,0,1,1,1.184-1.41A1.312,1.312,0,0,1,80.156,174.852Zm0-6.09a1.431,1.431,0,1,1,1.184-1.41A1.312,1.312,0,0,1,80.156,168.763Zm0-6.09a1.431,1.431,0,1,1,1.184-1.41A1.312,1.312,0,0,1,80.156,162.673Zm0-6.09a1.431,1.431,0,1,1,1.184-1.41A1.312,1.312,0,0,1,80.156,156.583Zm0-6.09a1.431,1.431,0,1,1,1.184-1.41A1.312,1.312,0,0,1,80.156,150.493Zm0-6.09a1.431,1.431,0,1,1,1.184-1.41A1.312,1.312,0,0,1,80.156,144.4Zm0-6.09a1.431,1.431,0,1,1,1.184-1.41A1.312,1.312,0,0,1,80.156,138.313Zm0-6.09a1.431,1.431,0,1,1,1.184-1.41A1.312,1.312,0,0,1,80.156,132.223Zm0-6.09a1.431,1.431,0,1,1,1.184-1.41A1.312,1.312,0,0,1,80.156,126.133Zm0-6.09a1.431,1.431,0,1,1,1.184-1.41A1.312,1.312,0,0,1,80.156,120.044Zm0-6.09a1.431,1.431,0,1,1,1.184-1.41A1.312,1.312,0,0,1,80.156,113.954Zm0-6.09a1.431,1.431,0,1,1,1.184-1.41A1.312,1.312,0,0,1,80.156,107.864Zm0-6.09a1.431,1.431,0,1,1,1.184-1.41A1.312,1.312,0,0,1,80.156,101.774Zm0-6.09a1.431,1.431,0,1,1,1.184-1.41A1.312,1.312,0,0,1,80.156,95.684Zm0-6.09a1.431,1.431,0,1,1,1.184-1.41A1.312,1.312,0,0,1,80.156,89.594Zm0-6.09a1.431,1.431,0,1,1,1.184-1.41A1.312,1.312,0,0,1,80.156,83.5Zm0-6.09A1.431,1.431,0,1,1,81.34,76,1.312,1.312,0,0,1,80.156,77.414Zm0-6.09a1.431,1.431,0,1,1,1.184-1.41A1.312,1.312,0,0,1,80.156,71.325Zm0-6.09a1.431,1.431,0,1,1,1.184-1.41A1.312,1.312,0,0,1,80.156,65.235Zm0-6.09a1.431,1.431,0,1,1,1.184-1.41A1.312,1.312,0,0,1,80.156,59.145Zm0-6.09a1.431,1.431,0,1,1,1.184-1.41A1.312,1.312,0,0,1,80.156,53.055ZM85.27,229.661a1.431,1.431,0,1,1,1.184-1.41A1.312,1.312,0,0,1,85.27,229.661Zm0-6.09a1.431,1.431,0,1,1,1.184-1.41A1.312,1.312,0,0,1,85.27,223.571Zm0-6.09a1.431,1.431,0,1,1,1.184-1.41A1.312,1.312,0,0,1,85.27,217.482Zm0-6.09a1.431,1.431,0,1,1,1.184-1.41A1.312,1.312,0,0,1,85.27,211.392Zm0-6.09a1.431,1.431,0,1,1,1.184-1.41A1.312,1.312,0,0,1,85.27,205.3Zm0-6.09a1.431,1.431,0,1,1,1.184-1.41A1.312,1.312,0,0,1,85.27,199.212Zm0-6.09a1.431,1.431,0,1,1,1.184-1.41A1.312,1.312,0,0,1,85.27,193.122Zm0-6.09a1.431,1.431,0,1,1,1.184-1.41A1.312,1.312,0,0,1,85.27,187.032Zm0-6.09a1.431,1.431,0,1,1,1.184-1.41A1.312,1.312,0,0,1,85.27,180.942Zm0-6.09a1.431,1.431,0,1,1,1.184-1.41A1.312,1.312,0,0,1,85.27,174.852Zm0-6.09a1.431,1.431,0,1,1,1.184-1.41A1.312,1.312,0,0,1,85.27,168.763Zm0-6.09a1.431,1.431,0,1,1,1.184-1.41A1.312,1.312,0,0,1,85.27,162.673Zm0-6.09a1.431,1.431,0,1,1,1.184-1.41A1.312,1.312,0,0,1,85.27,156.583Zm0-6.09a1.431,1.431,0,1,1,1.184-1.41A1.312,1.312,0,0,1,85.27,150.493Zm0-6.09a1.431,1.431,0,1,1,1.184-1.41A1.312,1.312,0,0,1,85.27,144.4Zm0-6.09a1.431,1.431,0,1,1,1.184-1.41A1.312,1.312,0,0,1,85.27,138.313Zm0-6.09a1.431,1.431,0,1,1,1.184-1.41A1.312,1.312,0,0,1,85.27,132.223Zm0-6.09a1.431,1.431,0,1,1,1.184-1.41A1.312,1.312,0,0,1,85.27,126.133Zm0-6.09a1.431,1.431,0,1,1,1.184-1.41A1.312,1.312,0,0,1,85.27,120.044Zm0-6.09a1.431,1.431,0,1,1,1.184-1.41A1.312,1.312,0,0,1,85.27,113.954Zm0-6.09a1.431,1.431,0,1,1,1.184-1.41A1.312,1.312,0,0,1,85.27,107.864Zm0-6.09a1.431,1.431,0,1,1,1.184-1.41A1.312,1.312,0,0,1,85.27,101.774Zm0-6.09a1.431,1.431,0,1,1,1.184-1.41A1.312,1.312,0,0,1,85.27,95.684Zm0-6.09a1.431,1.431,0,1,1,1.184-1.41A1.312,1.312,0,0,1,85.27,89.594Zm0-6.09a1.431,1.431,0,1,1,1.184-1.41A1.312,1.312,0,0,1,85.27,83.5Zm0-6.09A1.431,1.431,0,1,1,86.454,76,1.312,1.312,0,0,1,85.27,77.414Zm0-6.09a1.431,1.431,0,1,1,1.184-1.41A1.312,1.312,0,0,1,85.27,71.325Zm0-6.09a1.431,1.431,0,1,1,1.184-1.41A1.312,1.312,0,0,1,85.27,65.235Zm0-6.09a1.431,1.431,0,1,1,1.184-1.41A1.312,1.312,0,0,1,85.27,59.145Zm0-6.09a1.431,1.431,0,1,1,1.184-1.41A1.312,1.312,0,0,1,85.27,53.055Zm5.115,182.7a1.431,1.431,0,1,1,1.184-1.41A1.312,1.312,0,0,1,90.385,235.751Zm0-6.09a1.431,1.431,0,1,1,1.184-1.41A1.312,1.312,0,0,1,90.385,229.661Zm0-6.09a1.431,1.431,0,1,1,1.184-1.41A1.312,1.312,0,0,1,90.385,223.571Zm0-6.09a1.431,1.431,0,1,1,1.184-1.41A1.312,1.312,0,0,1,90.385,217.482Zm0-6.09a1.431,1.431,0,1,1,1.184-1.41A1.312,1.312,0,0,1,90.385,211.392Zm0-6.09a1.431,1.431,0,1,1,1.184-1.41A1.312,1.312,0,0,1,90.385,205.3Zm0-6.09a1.431,1.431,0,1,1,1.184-1.41A1.312,1.312,0,0,1,90.385,199.212Zm0-6.09a1.431,1.431,0,1,1,1.184-1.41A1.312,1.312,0,0,1,90.385,193.122Zm0-6.09a1.431,1.431,0,1,1,1.184-1.41A1.312,1.312,0,0,1,90.385,187.032Zm0-6.09a1.431,1.431,0,1,1,1.184-1.41A1.312,1.312,0,0,1,90.385,180.942Zm0-6.09a1.431,1.431,0,1,1,1.184-1.41A1.312,1.312,0,0,1,90.385,174.852Zm0-6.09a1.431,1.431,0,1,1,1.184-1.41A1.312,1.312,0,0,1,90.385,168.763Zm0-6.09a1.431,1.431,0,1,1,1.184-1.41A1.312,1.312,0,0,1,90.385,162.673Zm0-6.09a1.431,1.431,0,1,1,1.184-1.41A1.312,1.312,0,0,1,90.385,156.583Zm0-6.09a1.431,1.431,0,1,1,1.184-1.41A1.312,1.312,0,0,1,90.385,150.493Zm0-6.09a1.431,1.431,0,1,1,1.184-1.41A1.312,1.312,0,0,1,90.385,144.4Zm0-6.09a1.431,1.431,0,1,1,1.184-1.41A1.312,1.312,0,0,1,90.385,138.313Zm0-6.09a1.431,1.431,0,1,1,1.184-1.41A1.312,1.312,0,0,1,90.385,132.223Zm0-6.09a1.431,1.431,0,1,1,1.184-1.41A1.312,1.312,0,0,1,90.385,126.133Zm0-6.09a1.431,1.431,0,1,1,1.184-1.41A1.312,1.312,0,0,1,90.385,120.044Zm0-6.09a1.431,1.431,0,1,1,1.184-1.41A1.312,1.312,0,0,1,90.385,113.954Zm0-6.09a1.431,1.431,0,1,1,1.184-1.41A1.312,1.312,0,0,1,90.385,107.864Zm0-6.09a1.431,1.431,0,1,1,1.184-1.41A1.312,1.312,0,0,1,90.385,101.774Zm0-6.09a1.431,1.431,0,1,1,1.184-1.41A1.312,1.312,0,0,1,90.385,95.684Zm0-6.09a1.431,1.431,0,1,1,1.184-1.41A1.312,1.312,0,0,1,90.385,89.594Zm0-6.09a1.431,1.431,0,1,1,1.184-1.41A1.312,1.312,0,0,1,90.385,83.5Zm0-6.09A1.431,1.431,0,1,1,91.569,76,1.312,1.312,0,0,1,90.385,77.414Zm0-6.09a1.431,1.431,0,1,1,1.184-1.41A1.312,1.312,0,0,1,90.385,71.325Zm0-6.09a1.431,1.431,0,1,1,1.184-1.41A1.312,1.312,0,0,1,90.385,65.235Zm0-6.09a1.431,1.431,0,1,1,1.184-1.41A1.312,1.312,0,0,1,90.385,59.145Zm0-6.09a1.431,1.431,0,1,1,1.184-1.41A1.312,1.312,0,0,1,90.385,53.055Zm0-6.09a1.431,1.431,0,1,1,1.184-1.41A1.312,1.312,0,0,1,90.385,46.965ZM95.5,235.751a1.431,1.431,0,1,1,1.184-1.41A1.312,1.312,0,0,1,95.5,235.751Zm0-6.09a1.431,1.431,0,1,1,1.184-1.41A1.312,1.312,0,0,1,95.5,229.661Zm0-6.09a1.431,1.431,0,1,1,1.184-1.41A1.312,1.312,0,0,1,95.5,223.571Zm0-6.09a1.431,1.431,0,1,1,1.184-1.41A1.312,1.312,0,0,1,95.5,217.482Zm0-6.09a1.431,1.431,0,1,1,1.184-1.41A1.312,1.312,0,0,1,95.5,211.392Zm0-6.09a1.431,1.431,0,1,1,1.184-1.41A1.312,1.312,0,0,1,95.5,205.3Zm0-6.09a1.431,1.431,0,1,1,1.184-1.41A1.312,1.312,0,0,1,95.5,199.212Zm0-6.09a1.431,1.431,0,1,1,1.184-1.41A1.312,1.312,0,0,1,95.5,193.122Zm0-6.09a1.431,1.431,0,1,1,1.184-1.41A1.312,1.312,0,0,1,95.5,187.032Zm0-6.09a1.431,1.431,0,1,1,1.184-1.41A1.312,1.312,0,0,1,95.5,180.942Zm0-6.09a1.431,1.431,0,1,1,1.184-1.41A1.312,1.312,0,0,1,95.5,174.852Zm0-6.09a1.431,1.431,0,1,1,1.184-1.41A1.312,1.312,0,0,1,95.5,168.763Zm0-6.09a1.431,1.431,0,1,1,1.184-1.41A1.312,1.312,0,0,1,95.5,162.673Zm0-6.09a1.431,1.431,0,1,1,1.184-1.41A1.312,1.312,0,0,1,95.5,156.583Zm0-6.09a1.431,1.431,0,1,1,1.184-1.41A1.312,1.312,0,0,1,95.5,150.493Zm0-6.09a1.431,1.431,0,1,1,1.184-1.41A1.312,1.312,0,0,1,95.5,144.4Zm0-6.09a1.431,1.431,0,1,1,1.184-1.41A1.312,1.312,0,0,1,95.5,138.313Zm0-6.09a1.431,1.431,0,1,1,1.184-1.41A1.312,1.312,0,0,1,95.5,132.223Zm0-6.09a1.431,1.431,0,1,1,1.184-1.41A1.312,1.312,0,0,1,95.5,126.133Zm0-6.09a1.431,1.431,0,1,1,1.184-1.41A1.312,1.312,0,0,1,95.5,120.044Zm0-6.09a1.431,1.431,0,1,1,1.184-1.41A1.312,1.312,0,0,1,95.5,113.954Zm0-6.09a1.431,1.431,0,1,1,1.184-1.41A1.312,1.312,0,0,1,95.5,107.864Zm0-6.09a1.431,1.431,0,1,1,1.184-1.41A1.312,1.312,0,0,1,95.5,101.774Zm0-6.09a1.431,1.431,0,1,1,1.184-1.41A1.312,1.312,0,0,1,95.5,95.684Zm0-6.09a1.431,1.431,0,1,1,1.184-1.41A1.312,1.312,0,0,1,95.5,89.594Zm0-6.09a1.431,1.431,0,1,1,1.184-1.41A1.312,1.312,0,0,1,95.5,83.5Zm0-6.09A1.431,1.431,0,1,1,96.683,76,1.312,1.312,0,0,1,95.5,77.414Zm0-6.09a1.431,1.431,0,1,1,1.184-1.41A1.312,1.312,0,0,1,95.5,71.325Zm0-6.09a1.431,1.431,0,1,1,1.184-1.41A1.312,1.312,0,0,1,95.5,65.235Zm0-6.09a1.431,1.431,0,1,1,1.184-1.41A1.312,1.312,0,0,1,95.5,59.145Zm0-6.09a1.431,1.431,0,1,1,1.184-1.41A1.312,1.312,0,0,1,95.5,53.055Zm0-6.09a1.431,1.431,0,1,1,1.184-1.41A1.312,1.312,0,0,1,95.5,46.965Zm5.115,188.786a1.431,1.431,0,1,1,1.184-1.41A1.312,1.312,0,0,1,100.614,235.751Zm0-6.09a1.431,1.431,0,1,1,1.184-1.41A1.312,1.312,0,0,1,100.614,229.661Zm0-6.09a1.431,1.431,0,1,1,1.184-1.41A1.312,1.312,0,0,1,100.614,223.571Zm0-6.09a1.431,1.431,0,1,1,1.184-1.41A1.312,1.312,0,0,1,100.614,217.482Zm0-6.09a1.431,1.431,0,1,1,1.184-1.41A1.312,1.312,0,0,1,100.614,211.392Zm0-6.09a1.431,1.431,0,1,1,1.184-1.41A1.312,1.312,0,0,1,100.614,205.3Zm0-6.09a1.431,1.431,0,1,1,1.184-1.41A1.312,1.312,0,0,1,100.614,199.212Zm0-6.09a1.431,1.431,0,1,1,1.184-1.41A1.312,1.312,0,0,1,100.614,193.122Zm0-6.09a1.431,1.431,0,1,1,1.184-1.41A1.312,1.312,0,0,1,100.614,187.032Zm0-6.09a1.431,1.431,0,1,1,1.184-1.41A1.312,1.312,0,0,1,100.614,180.942Zm0-6.09a1.431,1.431,0,1,1,1.184-1.41A1.312,1.312,0,0,1,100.614,174.852Zm0-6.09a1.431,1.431,0,1,1,1.184-1.41A1.312,1.312,0,0,1,100.614,168.763Zm0-6.09a1.431,1.431,0,1,1,1.184-1.41A1.312,1.312,0,0,1,100.614,162.673Zm0-6.09a1.431,1.431,0,1,1,1.184-1.41A1.312,1.312,0,0,1,100.614,156.583Zm0-6.09a1.431,1.431,0,1,1,1.184-1.41A1.312,1.312,0,0,1,100.614,150.493Zm0-6.09a1.431,1.431,0,1,1,1.184-1.41A1.312,1.312,0,0,1,100.614,144.4Zm0-6.09a1.431,1.431,0,1,1,1.184-1.41A1.312,1.312,0,0,1,100.614,138.313Zm0-6.09a1.431,1.431,0,1,1,1.184-1.41A1.312,1.312,0,0,1,100.614,132.223Zm0-6.09a1.431,1.431,0,1,1,1.184-1.41A1.312,1.312,0,0,1,100.614,126.133Zm0-6.09a1.431,1.431,0,1,1,1.184-1.41A1.312,1.312,0,0,1,100.614,120.044Zm0-6.09a1.431,1.431,0,1,1,1.184-1.41A1.312,1.312,0,0,1,100.614,113.954Zm0-6.09a1.431,1.431,0,1,1,1.184-1.41A1.312,1.312,0,0,1,100.614,107.864Zm0-6.09a1.431,1.431,0,1,1,1.184-1.41A1.312,1.312,0,0,1,100.614,101.774Zm0-6.09a1.431,1.431,0,1,1,1.184-1.41A1.312,1.312,0,0,1,100.614,95.684Zm0-6.09a1.431,1.431,0,1,1,1.184-1.41A1.312,1.312,0,0,1,100.614,89.594Zm0-6.09a1.431,1.431,0,1,1,1.184-1.41A1.312,1.312,0,0,1,100.614,83.5Zm0-6.09A1.431,1.431,0,1,1,101.8,76,1.312,1.312,0,0,1,100.614,77.414Zm0-6.09a1.431,1.431,0,1,1,1.184-1.41A1.312,1.312,0,0,1,100.614,71.325Zm0-6.09a1.431,1.431,0,1,1,1.184-1.41A1.312,1.312,0,0,1,100.614,65.235Zm0-6.09a1.431,1.431,0,1,1,1.184-1.41A1.312,1.312,0,0,1,100.614,59.145Zm0-6.09a1.431,1.431,0,1,1,1.184-1.41A1.312,1.312,0,0,1,100.614,53.055Zm0-6.09a1.431,1.431,0,1,1,1.184-1.41A1.312,1.312,0,0,1,100.614,46.965Zm5.115,194.876a1.431,1.431,0,1,1,1.184-1.41A1.312,1.312,0,0,1,105.729,241.841Zm0-6.09a1.431,1.431,0,1,1,1.184-1.41A1.312,1.312,0,0,1,105.729,235.751Zm0-6.09a1.431,1.431,0,1,1,1.184-1.41A1.312,1.312,0,0,1,105.729,229.661Zm0-6.09a1.431,1.431,0,1,1,1.184-1.41A1.312,1.312,0,0,1,105.729,223.571Zm0-6.09a1.431,1.431,0,1,1,1.184-1.41A1.312,1.312,0,0,1,105.729,217.482Zm0-6.09a1.431,1.431,0,1,1,1.184-1.41A1.312,1.312,0,0,1,105.729,211.392Zm0-6.09a1.431,1.431,0,1,1,1.184-1.41A1.312,1.312,0,0,1,105.729,205.3Zm0-6.09a1.431,1.431,0,1,1,1.184-1.41A1.312,1.312,0,0,1,105.729,199.212Zm0-6.09a1.431,1.431,0,1,1,1.184-1.41A1.312,1.312,0,0,1,105.729,193.122Zm0-6.09a1.431,1.431,0,1,1,1.184-1.41A1.312,1.312,0,0,1,105.729,187.032Zm0-6.09a1.431,1.431,0,1,1,1.184-1.41A1.312,1.312,0,0,1,105.729,180.942Zm0-6.09a1.431,1.431,0,1,1,1.184-1.41A1.312,1.312,0,0,1,105.729,174.852Zm0-6.09a1.431,1.431,0,1,1,1.184-1.41A1.312,1.312,0,0,1,105.729,168.763Zm0-6.09a1.431,1.431,0,1,1,1.184-1.41A1.312,1.312,0,0,1,105.729,162.673Zm0-6.09a1.431,1.431,0,1,1,1.184-1.41A1.312,1.312,0,0,1,105.729,156.583Zm0-6.09a1.431,1.431,0,1,1,1.184-1.41A1.312,1.312,0,0,1,105.729,150.493Zm0-6.09a1.431,1.431,0,1,1,1.184-1.41A1.312,1.312,0,0,1,105.729,144.4Zm0-6.09a1.431,1.431,0,1,1,1.184-1.41A1.312,1.312,0,0,1,105.729,138.313Zm0-6.09a1.431,1.431,0,1,1,1.184-1.41A1.312,1.312,0,0,1,105.729,132.223Zm0-6.09a1.431,1.431,0,1,1,1.184-1.41A1.312,1.312,0,0,1,105.729,126.133Zm0-6.09a1.431,1.431,0,1,1,1.184-1.41A1.312,1.312,0,0,1,105.729,120.044Zm0-6.09a1.431,1.431,0,1,1,1.184-1.41A1.312,1.312,0,0,1,105.729,113.954Zm0-6.09a1.431,1.431,0,1,1,1.184-1.41A1.312,1.312,0,0,1,105.729,107.864Zm0-6.09a1.431,1.431,0,1,1,1.184-1.41A1.312,1.312,0,0,1,105.729,101.774Zm0-6.09a1.431,1.431,0,1,1,1.184-1.41A1.312,1.312,0,0,1,105.729,95.684Zm0-6.09a1.431,1.431,0,1,1,1.184-1.41A1.312,1.312,0,0,1,105.729,89.594Zm0-6.09a1.431,1.431,0,1,1,1.184-1.41A1.312,1.312,0,0,1,105.729,83.5Zm0-6.09A1.431,1.431,0,1,1,106.912,76,1.312,1.312,0,0,1,105.729,77.414Zm0-6.09a1.431,1.431,0,1,1,1.184-1.41A1.312,1.312,0,0,1,105.729,71.325Zm0-6.09a1.431,1.431,0,1,1,1.184-1.41A1.312,1.312,0,0,1,105.729,65.235Zm0-6.09a1.431,1.431,0,1,1,1.184-1.41A1.312,1.312,0,0,1,105.729,59.145Zm0-6.09a1.431,1.431,0,1,1,1.184-1.41A1.312,1.312,0,0,1,105.729,53.055Zm0-6.09a1.431,1.431,0,1,1,1.184-1.41A1.312,1.312,0,0,1,105.729,46.965Zm0-6.09a1.431,1.431,0,1,1,1.184-1.41A1.312,1.312,0,0,1,105.729,40.875Zm5.114,200.966a1.431,1.431,0,1,1,1.184-1.41A1.312,1.312,0,0,1,110.843,241.841Zm0-6.09a1.431,1.431,0,1,1,1.184-1.41A1.312,1.312,0,0,1,110.843,235.751Zm0-6.09a1.431,1.431,0,1,1,1.184-1.41A1.312,1.312,0,0,1,110.843,229.661Zm0-6.09a1.431,1.431,0,1,1,1.184-1.41A1.312,1.312,0,0,1,110.843,223.571Zm0-6.09a1.431,1.431,0,1,1,1.184-1.41A1.312,1.312,0,0,1,110.843,217.482Zm0-6.09a1.431,1.431,0,1,1,1.184-1.41A1.312,1.312,0,0,1,110.843,211.392Zm0-6.09a1.431,1.431,0,1,1,1.184-1.41A1.312,1.312,0,0,1,110.843,205.3Zm0-6.09a1.431,1.431,0,1,1,1.184-1.41A1.312,1.312,0,0,1,110.843,199.212Zm0-6.09a1.431,1.431,0,1,1,1.184-1.41A1.312,1.312,0,0,1,110.843,193.122Zm0-6.09a1.431,1.431,0,1,1,1.184-1.41A1.312,1.312,0,0,1,110.843,187.032Zm0-6.09a1.431,1.431,0,1,1,1.184-1.41A1.312,1.312,0,0,1,110.843,180.942Zm0-6.09a1.431,1.431,0,1,1,1.184-1.41A1.312,1.312,0,0,1,110.843,174.852Zm0-6.09a1.431,1.431,0,1,1,1.184-1.41A1.312,1.312,0,0,1,110.843,168.763Zm0-6.09a1.431,1.431,0,1,1,1.184-1.41A1.312,1.312,0,0,1,110.843,162.673Zm0-6.09a1.431,1.431,0,1,1,1.184-1.41A1.312,1.312,0,0,1,110.843,156.583Zm0-6.09a1.431,1.431,0,1,1,1.184-1.41A1.312,1.312,0,0,1,110.843,150.493Zm0-6.09a1.431,1.431,0,1,1,1.184-1.41A1.312,1.312,0,0,1,110.843,144.4Zm0-6.09a1.431,1.431,0,1,1,1.184-1.41A1.312,1.312,0,0,1,110.843,138.313Zm0-6.09a1.431,1.431,0,1,1,1.184-1.41A1.312,1.312,0,0,1,110.843,132.223Zm0-6.09a1.431,1.431,0,1,1,1.184-1.41A1.312,1.312,0,0,1,110.843,126.133Zm0-6.09a1.431,1.431,0,1,1,1.184-1.41A1.312,1.312,0,0,1,110.843,120.044Zm0-6.09a1.431,1.431,0,1,1,1.184-1.41A1.312,1.312,0,0,1,110.843,113.954Zm0-6.09a1.431,1.431,0,1,1,1.184-1.41A1.312,1.312,0,0,1,110.843,107.864Zm0-6.09a1.431,1.431,0,1,1,1.184-1.41A1.312,1.312,0,0,1,110.843,101.774Zm0-6.09a1.431,1.431,0,1,1,1.184-1.41A1.312,1.312,0,0,1,110.843,95.684Zm0-6.09a1.431,1.431,0,1,1,1.184-1.41A1.312,1.312,0,0,1,110.843,89.594Zm0-6.09a1.431,1.431,0,1,1,1.184-1.41A1.312,1.312,0,0,1,110.843,83.5Zm0-6.09A1.431,1.431,0,1,1,112.027,76,1.312,1.312,0,0,1,110.843,77.414Zm0-6.09a1.431,1.431,0,1,1,1.184-1.41A1.312,1.312,0,0,1,110.843,71.325Zm0-6.09a1.431,1.431,0,1,1,1.184-1.41A1.312,1.312,0,0,1,110.843,65.235Zm0-6.09a1.431,1.431,0,1,1,1.184-1.41A1.312,1.312,0,0,1,110.843,59.145Zm0-6.09a1.431,1.431,0,1,1,1.184-1.41A1.312,1.312,0,0,1,110.843,53.055Zm0-6.09a1.431,1.431,0,1,1,1.184-1.41A1.312,1.312,0,0,1,110.843,46.965Zm0-6.09a1.431,1.431,0,1,1,1.184-1.41A1.312,1.312,0,0,1,110.843,40.875Zm5.115,200.966a1.431,1.431,0,1,1,1.184-1.41A1.312,1.312,0,0,1,115.958,241.841Zm0-6.09a1.431,1.431,0,1,1,1.184-1.41A1.312,1.312,0,0,1,115.958,235.751Zm0-6.09a1.431,1.431,0,1,1,1.184-1.41A1.312,1.312,0,0,1,115.958,229.661Zm0-6.09a1.431,1.431,0,1,1,1.184-1.41A1.312,1.312,0,0,1,115.958,223.571Zm0-6.09a1.431,1.431,0,1,1,1.184-1.41A1.312,1.312,0,0,1,115.958,217.482Zm0-6.09a1.431,1.431,0,1,1,1.184-1.41A1.312,1.312,0,0,1,115.958,211.392Zm0-6.09a1.431,1.431,0,1,1,1.184-1.41A1.312,1.312,0,0,1,115.958,205.3Zm0-6.09a1.431,1.431,0,1,1,1.184-1.41A1.312,1.312,0,0,1,115.958,199.212Zm0-6.09a1.431,1.431,0,1,1,1.184-1.41A1.312,1.312,0,0,1,115.958,193.122Zm0-6.09a1.431,1.431,0,1,1,1.184-1.41A1.312,1.312,0,0,1,115.958,187.032Zm0-6.09a1.431,1.431,0,1,1,1.184-1.41A1.312,1.312,0,0,1,115.958,180.942Zm0-6.09a1.431,1.431,0,1,1,1.184-1.41A1.312,1.312,0,0,1,115.958,174.852Zm0-6.09a1.431,1.431,0,1,1,1.184-1.41A1.312,1.312,0,0,1,115.958,168.763Zm0-6.09a1.431,1.431,0,1,1,1.184-1.41A1.312,1.312,0,0,1,115.958,162.673Zm0-6.09a1.431,1.431,0,1,1,1.184-1.41A1.312,1.312,0,0,1,115.958,156.583Zm0-6.09a1.431,1.431,0,1,1,1.184-1.41A1.312,1.312,0,0,1,115.958,150.493Zm0-6.09a1.431,1.431,0,1,1,1.184-1.41A1.312,1.312,0,0,1,115.958,144.4Zm0-6.09a1.431,1.431,0,1,1,1.184-1.41A1.312,1.312,0,0,1,115.958,138.313Zm0-6.09a1.431,1.431,0,1,1,1.184-1.41A1.312,1.312,0,0,1,115.958,132.223Zm0-6.09a1.431,1.431,0,1,1,1.184-1.41A1.312,1.312,0,0,1,115.958,126.133Zm0-6.09a1.431,1.431,0,1,1,1.184-1.41A1.312,1.312,0,0,1,115.958,120.044Zm0-6.09a1.431,1.431,0,1,1,1.184-1.41A1.312,1.312,0,0,1,115.958,113.954Zm0-6.09a1.431,1.431,0,1,1,1.184-1.41A1.312,1.312,0,0,1,115.958,107.864Zm0-6.09a1.431,1.431,0,1,1,1.184-1.41A1.312,1.312,0,0,1,115.958,101.774Zm0-6.09a1.431,1.431,0,1,1,1.184-1.41A1.312,1.312,0,0,1,115.958,95.684Zm0-6.09a1.431,1.431,0,1,1,1.184-1.41A1.312,1.312,0,0,1,115.958,89.594Zm0-6.09a1.431,1.431,0,1,1,1.184-1.41A1.312,1.312,0,0,1,115.958,83.5Zm0-6.09A1.431,1.431,0,1,1,117.141,76,1.312,1.312,0,0,1,115.958,77.414Zm0-6.09a1.431,1.431,0,1,1,1.184-1.41A1.312,1.312,0,0,1,115.958,71.325Zm0-6.09a1.431,1.431,0,1,1,1.184-1.41A1.312,1.312,0,0,1,115.958,65.235Zm0-6.09a1.431,1.431,0,1,1,1.184-1.41A1.312,1.312,0,0,1,115.958,59.145Zm0-6.09a1.431,1.431,0,1,1,1.184-1.41A1.312,1.312,0,0,1,115.958,53.055Zm0-6.09a1.431,1.431,0,1,1,1.184-1.41A1.312,1.312,0,0,1,115.958,46.965Zm0-6.09a1.431,1.431,0,1,1,1.184-1.41A1.312,1.312,0,0,1,115.958,40.875Zm5.115,200.966a1.431,1.431,0,1,1,1.184-1.41A1.312,1.312,0,0,1,121.072,241.841Zm0-6.09a1.431,1.431,0,1,1,1.184-1.41A1.312,1.312,0,0,1,121.072,235.751Zm0-6.09a1.431,1.431,0,1,1,1.184-1.41A1.312,1.312,0,0,1,121.072,229.661Zm0-6.09a1.431,1.431,0,1,1,1.184-1.41A1.312,1.312,0,0,1,121.072,223.571Zm0-6.09a1.431,1.431,0,1,1,1.184-1.41A1.312,1.312,0,0,1,121.072,217.482Zm0-6.09a1.431,1.431,0,1,1,1.184-1.41A1.312,1.312,0,0,1,121.072,211.392Zm0-6.09a1.431,1.431,0,1,1,1.184-1.41A1.312,1.312,0,0,1,121.072,205.3Zm0-6.09a1.431,1.431,0,1,1,1.184-1.41A1.312,1.312,0,0,1,121.072,199.212Zm0-6.09a1.431,1.431,0,1,1,1.184-1.41A1.312,1.312,0,0,1,121.072,193.122Zm0-6.09a1.431,1.431,0,1,1,1.184-1.41A1.312,1.312,0,0,1,121.072,187.032Zm0-6.09a1.431,1.431,0,1,1,1.184-1.41A1.312,1.312,0,0,1,121.072,180.942Zm0-6.09a1.431,1.431,0,1,1,1.184-1.41A1.312,1.312,0,0,1,121.072,174.852Zm0-6.09a1.431,1.431,0,1,1,1.184-1.41A1.312,1.312,0,0,1,121.072,168.763Zm0-6.09a1.431,1.431,0,1,1,1.184-1.41A1.312,1.312,0,0,1,121.072,162.673Zm0-6.09a1.431,1.431,0,1,1,1.184-1.41A1.312,1.312,0,0,1,121.072,156.583Zm0-6.09a1.431,1.431,0,1,1,1.184-1.41A1.312,1.312,0,0,1,121.072,150.493Zm0-6.09a1.431,1.431,0,1,1,1.184-1.41A1.312,1.312,0,0,1,121.072,144.4Zm0-6.09a1.431,1.431,0,1,1,1.184-1.41A1.312,1.312,0,0,1,121.072,138.313Zm0-6.09a1.431,1.431,0,1,1,1.184-1.41A1.312,1.312,0,0,1,121.072,132.223Zm0-6.09a1.431,1.431,0,1,1,1.184-1.41A1.312,1.312,0,0,1,121.072,126.133Zm0-6.09a1.431,1.431,0,1,1,1.184-1.41A1.312,1.312,0,0,1,121.072,120.044Zm0-6.09a1.431,1.431,0,1,1,1.184-1.41A1.312,1.312,0,0,1,121.072,113.954Zm0-6.09a1.431,1.431,0,1,1,1.184-1.41A1.312,1.312,0,0,1,121.072,107.864Zm0-6.09a1.431,1.431,0,1,1,1.184-1.41A1.312,1.312,0,0,1,121.072,101.774Zm0-6.09a1.431,1.431,0,1,1,1.184-1.41A1.312,1.312,0,0,1,121.072,95.684Zm0-6.09a1.431,1.431,0,1,1,1.184-1.41A1.312,1.312,0,0,1,121.072,89.594Zm0-6.09a1.431,1.431,0,1,1,1.184-1.41A1.312,1.312,0,0,1,121.072,83.5Zm0-6.09A1.431,1.431,0,1,1,122.256,76,1.312,1.312,0,0,1,121.072,77.414Zm0-6.09a1.431,1.431,0,1,1,1.184-1.41A1.312,1.312,0,0,1,121.072,71.325Zm0-6.09a1.431,1.431,0,1,1,1.184-1.41A1.312,1.312,0,0,1,121.072,65.235Zm0-6.09a1.431,1.431,0,1,1,1.184-1.41A1.312,1.312,0,0,1,121.072,59.145Zm0-6.09a1.431,1.431,0,1,1,1.184-1.41A1.312,1.312,0,0,1,121.072,53.055Zm0-6.09a1.431,1.431,0,1,1,1.184-1.41A1.312,1.312,0,0,1,121.072,46.965Zm0-6.09a1.431,1.431,0,1,1,1.184-1.41A1.312,1.312,0,0,1,121.072,40.875Zm5.115,200.966a1.431,1.431,0,1,1,1.184-1.41A1.312,1.312,0,0,1,126.187,241.841Zm0-6.09a1.431,1.431,0,1,1,1.184-1.41A1.312,1.312,0,0,1,126.187,235.751Zm0-6.09a1.431,1.431,0,1,1,1.184-1.41A1.312,1.312,0,0,1,126.187,229.661Zm0-6.09a1.431,1.431,0,1,1,1.184-1.41A1.312,1.312,0,0,1,126.187,223.571Zm0-6.09a1.431,1.431,0,1,1,1.184-1.41A1.312,1.312,0,0,1,126.187,217.482Zm0-6.09a1.431,1.431,0,1,1,1.184-1.41A1.312,1.312,0,0,1,126.187,211.392Zm0-6.09a1.431,1.431,0,1,1,1.184-1.41A1.312,1.312,0,0,1,126.187,205.3Zm0-6.09a1.431,1.431,0,1,1,1.184-1.41A1.312,1.312,0,0,1,126.187,199.212Zm0-6.09a1.431,1.431,0,1,1,1.184-1.41A1.312,1.312,0,0,1,126.187,193.122Zm0-6.09a1.431,1.431,0,1,1,1.184-1.41A1.312,1.312,0,0,1,126.187,187.032Zm0-6.09a1.431,1.431,0,1,1,1.184-1.41A1.312,1.312,0,0,1,126.187,180.942Zm0-6.09a1.431,1.431,0,1,1,1.184-1.41A1.312,1.312,0,0,1,126.187,174.852Zm0-6.09a1.431,1.431,0,1,1,1.184-1.41A1.312,1.312,0,0,1,126.187,168.763Zm0-6.09a1.431,1.431,0,1,1,1.184-1.41A1.312,1.312,0,0,1,126.187,162.673Zm0-6.09a1.431,1.431,0,1,1,1.184-1.41A1.312,1.312,0,0,1,126.187,156.583Zm0-6.09a1.431,1.431,0,1,1,1.184-1.41A1.312,1.312,0,0,1,126.187,150.493Zm0-6.09a1.431,1.431,0,1,1,1.184-1.41A1.312,1.312,0,0,1,126.187,144.4Zm0-6.09a1.431,1.431,0,1,1,1.184-1.41A1.312,1.312,0,0,1,126.187,138.313Zm0-6.09a1.431,1.431,0,1,1,1.184-1.41A1.312,1.312,0,0,1,126.187,132.223Zm0-6.09a1.431,1.431,0,1,1,1.184-1.41A1.312,1.312,0,0,1,126.187,126.133Zm0-6.09a1.431,1.431,0,1,1,1.184-1.41A1.312,1.312,0,0,1,126.187,120.044Zm0-6.09a1.431,1.431,0,1,1,1.184-1.41A1.312,1.312,0,0,1,126.187,113.954Zm0-6.09a1.431,1.431,0,1,1,1.184-1.41A1.312,1.312,0,0,1,126.187,107.864Zm0-6.09a1.431,1.431,0,1,1,1.184-1.41A1.312,1.312,0,0,1,126.187,101.774Zm0-6.09a1.431,1.431,0,1,1,1.184-1.41A1.312,1.312,0,0,1,126.187,95.684Zm0-6.09a1.431,1.431,0,1,1,1.184-1.41A1.312,1.312,0,0,1,126.187,89.594Zm0-6.09a1.431,1.431,0,1,1,1.184-1.41A1.312,1.312,0,0,1,126.187,83.5Zm0-6.09A1.431,1.431,0,1,1,127.37,76,1.312,1.312,0,0,1,126.187,77.414Zm0-6.09a1.431,1.431,0,1,1,1.184-1.41A1.312,1.312,0,0,1,126.187,71.325Zm0-6.09a1.431,1.431,0,1,1,1.184-1.41A1.312,1.312,0,0,1,126.187,65.235Zm0-6.09a1.431,1.431,0,1,1,1.184-1.41A1.312,1.312,0,0,1,126.187,59.145Zm0-6.09a1.431,1.431,0,1,1,1.184-1.41A1.312,1.312,0,0,1,126.187,53.055Zm0-6.09a1.431,1.431,0,1,1,1.184-1.41A1.312,1.312,0,0,1,126.187,46.965Zm0-6.09a1.431,1.431,0,1,1,1.184-1.41A1.312,1.312,0,0,1,126.187,40.875ZM131.3,241.841a1.431,1.431,0,1,1,1.184-1.41A1.312,1.312,0,0,1,131.3,241.841Zm0-6.09a1.431,1.431,0,1,1,1.184-1.41A1.312,1.312,0,0,1,131.3,235.751Zm0-6.09a1.431,1.431,0,1,1,1.184-1.41A1.312,1.312,0,0,1,131.3,229.661Zm0-6.09a1.431,1.431,0,1,1,1.184-1.41A1.312,1.312,0,0,1,131.3,223.571Zm0-6.09a1.431,1.431,0,1,1,1.184-1.41A1.312,1.312,0,0,1,131.3,217.482Zm0-6.09a1.431,1.431,0,1,1,1.184-1.41A1.312,1.312,0,0,1,131.3,211.392Zm0-6.09a1.431,1.431,0,1,1,1.184-1.41A1.312,1.312,0,0,1,131.3,205.3Zm0-6.09a1.431,1.431,0,1,1,1.184-1.41A1.312,1.312,0,0,1,131.3,199.212Zm0-6.09a1.431,1.431,0,1,1,1.184-1.41A1.312,1.312,0,0,1,131.3,193.122Zm0-6.09a1.431,1.431,0,1,1,1.184-1.41A1.312,1.312,0,0,1,131.3,187.032Zm0-6.09a1.431,1.431,0,1,1,1.184-1.41A1.312,1.312,0,0,1,131.3,180.942Zm0-6.09a1.431,1.431,0,1,1,1.184-1.41A1.312,1.312,0,0,1,131.3,174.852Zm0-6.09a1.431,1.431,0,1,1,1.184-1.41A1.312,1.312,0,0,1,131.3,168.763Zm0-6.09a1.431,1.431,0,1,1,1.184-1.41A1.312,1.312,0,0,1,131.3,162.673Zm0-6.09a1.431,1.431,0,1,1,1.184-1.41A1.312,1.312,0,0,1,131.3,156.583Zm0-6.09a1.431,1.431,0,1,1,1.184-1.41A1.312,1.312,0,0,1,131.3,150.493Zm0-6.09a1.431,1.431,0,1,1,1.184-1.41A1.312,1.312,0,0,1,131.3,144.4Zm0-6.09a1.431,1.431,0,1,1,1.184-1.41A1.312,1.312,0,0,1,131.3,138.313Zm0-6.09a1.431,1.431,0,1,1,1.184-1.41A1.312,1.312,0,0,1,131.3,132.223Zm0-6.09a1.431,1.431,0,1,1,1.184-1.41A1.312,1.312,0,0,1,131.3,126.133Zm0-6.09a1.431,1.431,0,1,1,1.184-1.41A1.312,1.312,0,0,1,131.3,120.044Zm0-6.09a1.431,1.431,0,1,1,1.184-1.41A1.312,1.312,0,0,1,131.3,113.954Zm0-6.09a1.431,1.431,0,1,1,1.184-1.41A1.312,1.312,0,0,1,131.3,107.864Zm0-6.09a1.431,1.431,0,1,1,1.184-1.41A1.312,1.312,0,0,1,131.3,101.774Zm0-6.09a1.431,1.431,0,1,1,1.184-1.41A1.312,1.312,0,0,1,131.3,95.684Zm0-6.09a1.431,1.431,0,1,1,1.184-1.41A1.312,1.312,0,0,1,131.3,89.594Zm0-6.09a1.431,1.431,0,1,1,1.184-1.41A1.312,1.312,0,0,1,131.3,83.5Zm0-6.09A1.431,1.431,0,1,1,132.485,76,1.312,1.312,0,0,1,131.3,77.414Zm0-6.09a1.431,1.431,0,1,1,1.184-1.41A1.312,1.312,0,0,1,131.3,71.325Zm0-6.09a1.431,1.431,0,1,1,1.184-1.41A1.312,1.312,0,0,1,131.3,65.235Zm0-6.09a1.431,1.431,0,1,1,1.184-1.41A1.312,1.312,0,0,1,131.3,59.145Zm0-6.09a1.431,1.431,0,1,1,1.184-1.41A1.312,1.312,0,0,1,131.3,53.055Zm0-6.09a1.431,1.431,0,1,1,1.184-1.41A1.312,1.312,0,0,1,131.3,46.965Zm0-6.09a1.431,1.431,0,1,1,1.184-1.41A1.312,1.312,0,0,1,131.3,40.875Zm5.115,200.966a1.431,1.431,0,1,1,1.184-1.41A1.312,1.312,0,0,1,136.416,241.841Zm0-6.09a1.431,1.431,0,1,1,1.184-1.41A1.312,1.312,0,0,1,136.416,235.751Zm0-6.09a1.431,1.431,0,1,1,1.184-1.41A1.312,1.312,0,0,1,136.416,229.661Zm0-6.09a1.431,1.431,0,1,1,1.184-1.41A1.312,1.312,0,0,1,136.416,223.571Zm0-6.09a1.431,1.431,0,1,1,1.184-1.41A1.312,1.312,0,0,1,136.416,217.482Zm0-6.09a1.431,1.431,0,1,1,1.184-1.41A1.312,1.312,0,0,1,136.416,211.392Zm0-6.09a1.431,1.431,0,1,1,1.184-1.41A1.312,1.312,0,0,1,136.416,205.3Zm0-6.09a1.431,1.431,0,1,1,1.184-1.41A1.312,1.312,0,0,1,136.416,199.212Zm0-6.09a1.431,1.431,0,1,1,1.184-1.41A1.312,1.312,0,0,1,136.416,193.122Zm0-6.09a1.431,1.431,0,1,1,1.184-1.41A1.312,1.312,0,0,1,136.416,187.032Zm0-6.09a1.431,1.431,0,1,1,1.184-1.41A1.312,1.312,0,0,1,136.416,180.942Zm0-6.09a1.431,1.431,0,1,1,1.184-1.41A1.312,1.312,0,0,1,136.416,174.852Zm0-6.09a1.431,1.431,0,1,1,1.184-1.41A1.312,1.312,0,0,1,136.416,168.763Zm0-6.09a1.431,1.431,0,1,1,1.184-1.41A1.312,1.312,0,0,1,136.416,162.673Zm0-6.09a1.431,1.431,0,1,1,1.184-1.41A1.312,1.312,0,0,1,136.416,156.583Zm0-6.09a1.431,1.431,0,1,1,1.184-1.41A1.312,1.312,0,0,1,136.416,150.493Zm0-6.09a1.431,1.431,0,1,1,1.184-1.41A1.312,1.312,0,0,1,136.416,144.4Zm0-6.09a1.431,1.431,0,1,1,1.184-1.41A1.312,1.312,0,0,1,136.416,138.313Zm0-6.09a1.431,1.431,0,1,1,1.184-1.41A1.312,1.312,0,0,1,136.416,132.223Zm0-6.09a1.431,1.431,0,1,1,1.184-1.41A1.312,1.312,0,0,1,136.416,126.133Zm0-6.09a1.431,1.431,0,1,1,1.184-1.41A1.312,1.312,0,0,1,136.416,120.044Zm0-6.09a1.431,1.431,0,1,1,1.184-1.41A1.312,1.312,0,0,1,136.416,113.954Zm0-6.09a1.431,1.431,0,1,1,1.184-1.41A1.312,1.312,0,0,1,136.416,107.864Zm0-6.09a1.431,1.431,0,1,1,1.184-1.41A1.312,1.312,0,0,1,136.416,101.774Zm0-6.09a1.431,1.431,0,1,1,1.184-1.41A1.312,1.312,0,0,1,136.416,95.684Zm0-6.09a1.431,1.431,0,1,1,1.184-1.41A1.312,1.312,0,0,1,136.416,89.594Zm0-6.09a1.431,1.431,0,1,1,1.184-1.41A1.312,1.312,0,0,1,136.416,83.5Zm0-6.09A1.431,1.431,0,1,1,137.6,76,1.312,1.312,0,0,1,136.416,77.414Zm0-6.09a1.431,1.431,0,1,1,1.184-1.41A1.312,1.312,0,0,1,136.416,71.325Zm0-6.09a1.431,1.431,0,1,1,1.184-1.41A1.312,1.312,0,0,1,136.416,65.235Zm0-6.09a1.431,1.431,0,1,1,1.184-1.41A1.312,1.312,0,0,1,136.416,59.145Zm0-6.09a1.431,1.431,0,1,1,1.184-1.41A1.312,1.312,0,0,1,136.416,53.055Zm0-6.09a1.431,1.431,0,1,1,1.184-1.41A1.312,1.312,0,0,1,136.416,46.965Zm0-6.09a1.431,1.431,0,1,1,1.184-1.41A1.312,1.312,0,0,1,136.416,40.875Zm5.115,200.966a1.431,1.431,0,1,1,1.184-1.41A1.312,1.312,0,0,1,141.53,241.841Zm0-6.09a1.431,1.431,0,1,1,1.184-1.41A1.312,1.312,0,0,1,141.53,235.751Zm0-6.09a1.431,1.431,0,1,1,1.184-1.41A1.312,1.312,0,0,1,141.53,229.661Zm0-6.09a1.431,1.431,0,1,1,1.184-1.41A1.312,1.312,0,0,1,141.53,223.571Zm0-6.09a1.431,1.431,0,1,1,1.184-1.41A1.312,1.312,0,0,1,141.53,217.482Zm0-6.09a1.431,1.431,0,1,1,1.184-1.41A1.312,1.312,0,0,1,141.53,211.392Zm0-6.09a1.431,1.431,0,1,1,1.184-1.41A1.312,1.312,0,0,1,141.53,205.3Zm0-6.09a1.431,1.431,0,1,1,1.184-1.41A1.312,1.312,0,0,1,141.53,199.212Zm0-6.09a1.431,1.431,0,1,1,1.184-1.41A1.312,1.312,0,0,1,141.53,193.122Zm0-6.09a1.431,1.431,0,1,1,1.184-1.41A1.312,1.312,0,0,1,141.53,187.032Zm0-6.09a1.431,1.431,0,1,1,1.184-1.41A1.312,1.312,0,0,1,141.53,180.942Zm0-6.09a1.431,1.431,0,1,1,1.184-1.41A1.312,1.312,0,0,1,141.53,174.852Zm0-6.09a1.431,1.431,0,1,1,1.184-1.41A1.312,1.312,0,0,1,141.53,168.763Zm0-6.09a1.431,1.431,0,1,1,1.184-1.41A1.312,1.312,0,0,1,141.53,162.673Zm0-6.09a1.431,1.431,0,1,1,1.184-1.41A1.312,1.312,0,0,1,141.53,156.583Zm0-6.09a1.431,1.431,0,1,1,1.184-1.41A1.312,1.312,0,0,1,141.53,150.493Zm0-6.09a1.431,1.431,0,1,1,1.184-1.41A1.312,1.312,0,0,1,141.53,144.4Zm0-6.09a1.431,1.431,0,1,1,1.184-1.41A1.312,1.312,0,0,1,141.53,138.313Zm0-6.09a1.431,1.431,0,1,1,1.184-1.41A1.312,1.312,0,0,1,141.53,132.223Zm0-6.09a1.431,1.431,0,1,1,1.184-1.41A1.312,1.312,0,0,1,141.53,126.133Zm0-6.09a1.431,1.431,0,1,1,1.184-1.41A1.312,1.312,0,0,1,141.53,120.044Zm0-6.09a1.431,1.431,0,1,1,1.184-1.41A1.312,1.312,0,0,1,141.53,113.954Zm0-6.09a1.431,1.431,0,1,1,1.184-1.41A1.312,1.312,0,0,1,141.53,107.864Zm0-6.09a1.431,1.431,0,1,1,1.184-1.41A1.312,1.312,0,0,1,141.53,101.774Zm0-6.09a1.431,1.431,0,1,1,1.184-1.41A1.312,1.312,0,0,1,141.53,95.684Zm0-6.09a1.431,1.431,0,1,1,1.184-1.41A1.312,1.312,0,0,1,141.53,89.594Zm0-6.09a1.431,1.431,0,1,1,1.184-1.41A1.312,1.312,0,0,1,141.53,83.5Zm0-6.09A1.431,1.431,0,1,1,142.714,76,1.312,1.312,0,0,1,141.53,77.414Zm0-6.09a1.431,1.431,0,1,1,1.184-1.41A1.312,1.312,0,0,1,141.53,71.325Zm0-6.09a1.431,1.431,0,1,1,1.184-1.41A1.312,1.312,0,0,1,141.53,65.235Zm0-6.09a1.431,1.431,0,1,1,1.184-1.41A1.312,1.312,0,0,1,141.53,59.145Zm0-6.09a1.431,1.431,0,1,1,1.184-1.41A1.312,1.312,0,0,1,141.53,53.055Zm0-6.09a1.431,1.431,0,1,1,1.184-1.41A1.312,1.312,0,0,1,141.53,46.965Zm0-6.09a1.431,1.431,0,1,1,1.184-1.41A1.312,1.312,0,0,1,141.53,40.875Zm5.115,194.876a1.431,1.431,0,1,1,1.184-1.41A1.312,1.312,0,0,1,146.645,235.751Zm0-6.09a1.431,1.431,0,1,1,1.184-1.41A1.312,1.312,0,0,1,146.645,229.661Zm0-6.09a1.431,1.431,0,1,1,1.184-1.41A1.312,1.312,0,0,1,146.645,223.571Zm0-6.09a1.431,1.431,0,1,1,1.184-1.41A1.312,1.312,0,0,1,146.645,217.482Zm0-6.09a1.431,1.431,0,1,1,1.184-1.41A1.312,1.312,0,0,1,146.645,211.392Zm0-6.09a1.431,1.431,0,1,1,1.184-1.41A1.312,1.312,0,0,1,146.645,205.3Zm0-6.09a1.431,1.431,0,1,1,1.184-1.41A1.312,1.312,0,0,1,146.645,199.212Zm0-6.09a1.431,1.431,0,1,1,1.184-1.41A1.312,1.312,0,0,1,146.645,193.122Zm0-6.09a1.431,1.431,0,1,1,1.184-1.41A1.312,1.312,0,0,1,146.645,187.032Zm0-6.09a1.431,1.431,0,1,1,1.184-1.41A1.312,1.312,0,0,1,146.645,180.942Zm0-6.09a1.431,1.431,0,1,1,1.184-1.41A1.312,1.312,0,0,1,146.645,174.852Zm0-6.09a1.431,1.431,0,1,1,1.184-1.41A1.312,1.312,0,0,1,146.645,168.763Zm0-6.09a1.431,1.431,0,1,1,1.184-1.41A1.312,1.312,0,0,1,146.645,162.673Zm0-6.09a1.431,1.431,0,1,1,1.184-1.41A1.312,1.312,0,0,1,146.645,156.583Zm0-6.09a1.431,1.431,0,1,1,1.184-1.41A1.312,1.312,0,0,1,146.645,150.493Zm0-6.09a1.431,1.431,0,1,1,1.184-1.41A1.312,1.312,0,0,1,146.645,144.4Zm0-6.09a1.431,1.431,0,1,1,1.184-1.41A1.312,1.312,0,0,1,146.645,138.313Zm0-6.09a1.431,1.431,0,1,1,1.184-1.41A1.312,1.312,0,0,1,146.645,132.223Zm0-6.09a1.431,1.431,0,1,1,1.184-1.41A1.312,1.312,0,0,1,146.645,126.133Zm0-6.09a1.431,1.431,0,1,1,1.184-1.41A1.312,1.312,0,0,1,146.645,120.044Zm0-6.09a1.431,1.431,0,1,1,1.184-1.41A1.312,1.312,0,0,1,146.645,113.954Zm0-6.09a1.431,1.431,0,1,1,1.184-1.41A1.312,1.312,0,0,1,146.645,107.864Zm0-6.09a1.431,1.431,0,1,1,1.184-1.41A1.312,1.312,0,0,1,146.645,101.774Zm0-6.09a1.431,1.431,0,1,1,1.184-1.41A1.312,1.312,0,0,1,146.645,95.684Zm0-6.09a1.431,1.431,0,1,1,1.184-1.41A1.312,1.312,0,0,1,146.645,89.594Zm0-6.09a1.431,1.431,0,1,1,1.184-1.41A1.312,1.312,0,0,1,146.645,83.5Zm0-6.09A1.431,1.431,0,1,1,147.828,76,1.312,1.312,0,0,1,146.645,77.414Zm0-6.09a1.431,1.431,0,1,1,1.184-1.41A1.312,1.312,0,0,1,146.645,71.325Zm0-6.09a1.431,1.431,0,1,1,1.184-1.41A1.312,1.312,0,0,1,146.645,65.235Zm0-6.09a1.431,1.431,0,1,1,1.184-1.41A1.312,1.312,0,0,1,146.645,59.145Zm0-6.09a1.431,1.431,0,1,1,1.184-1.41A1.312,1.312,0,0,1,146.645,53.055Zm0-6.09a1.431,1.431,0,1,1,1.184-1.41A1.312,1.312,0,0,1,146.645,46.965Zm5.115,188.786a1.431,1.431,0,1,1,1.184-1.41A1.312,1.312,0,0,1,151.759,235.751Zm0-6.09a1.431,1.431,0,1,1,1.184-1.41A1.312,1.312,0,0,1,151.759,229.661Zm0-6.09a1.431,1.431,0,1,1,1.184-1.41A1.312,1.312,0,0,1,151.759,223.571Zm0-6.09a1.431,1.431,0,1,1,1.184-1.41A1.312,1.312,0,0,1,151.759,217.482Zm0-6.09a1.431,1.431,0,1,1,1.184-1.41A1.312,1.312,0,0,1,151.759,211.392Zm0-6.09a1.431,1.431,0,1,1,1.184-1.41A1.312,1.312,0,0,1,151.759,205.3Zm0-6.09a1.431,1.431,0,1,1,1.184-1.41A1.312,1.312,0,0,1,151.759,199.212Zm0-6.09a1.431,1.431,0,1,1,1.184-1.41A1.312,1.312,0,0,1,151.759,193.122Zm0-6.09a1.431,1.431,0,1,1,1.184-1.41A1.312,1.312,0,0,1,151.759,187.032Zm0-6.09a1.431,1.431,0,1,1,1.184-1.41A1.312,1.312,0,0,1,151.759,180.942Zm0-6.09a1.431,1.431,0,1,1,1.184-1.41A1.312,1.312,0,0,1,151.759,174.852Zm0-6.09a1.431,1.431,0,1,1,1.184-1.41A1.312,1.312,0,0,1,151.759,168.763Zm0-6.09a1.431,1.431,0,1,1,1.184-1.41A1.312,1.312,0,0,1,151.759,162.673Zm0-6.09a1.431,1.431,0,1,1,1.184-1.41A1.312,1.312,0,0,1,151.759,156.583Zm0-6.09a1.431,1.431,0,1,1,1.184-1.41A1.312,1.312,0,0,1,151.759,150.493Zm0-6.09a1.431,1.431,0,1,1,1.184-1.41A1.312,1.312,0,0,1,151.759,144.4Zm0-6.09a1.431,1.431,0,1,1,1.184-1.41A1.312,1.312,0,0,1,151.759,138.313Zm0-6.09a1.431,1.431,0,1,1,1.184-1.41A1.312,1.312,0,0,1,151.759,132.223Zm0-6.09a1.431,1.431,0,1,1,1.184-1.41A1.312,1.312,0,0,1,151.759,126.133Zm0-6.09a1.431,1.431,0,1,1,1.184-1.41A1.312,1.312,0,0,1,151.759,120.044Zm0-6.09a1.431,1.431,0,1,1,1.184-1.41A1.312,1.312,0,0,1,151.759,113.954Zm0-6.09a1.431,1.431,0,1,1,1.184-1.41A1.312,1.312,0,0,1,151.759,107.864Zm0-6.09a1.431,1.431,0,1,1,1.184-1.41A1.312,1.312,0,0,1,151.759,101.774Zm0-6.09a1.431,1.431,0,1,1,1.184-1.41A1.312,1.312,0,0,1,151.759,95.684Zm0-6.09a1.431,1.431,0,1,1,1.184-1.41A1.312,1.312,0,0,1,151.759,89.594Zm0-6.09a1.431,1.431,0,1,1,1.184-1.41A1.312,1.312,0,0,1,151.759,83.5Zm0-6.09A1.431,1.431,0,1,1,152.943,76,1.312,1.312,0,0,1,151.759,77.414Zm0-6.09a1.431,1.431,0,1,1,1.184-1.41A1.312,1.312,0,0,1,151.759,71.325Zm0-6.09a1.431,1.431,0,1,1,1.184-1.41A1.312,1.312,0,0,1,151.759,65.235Zm0-6.09a1.431,1.431,0,1,1,1.184-1.41A1.312,1.312,0,0,1,151.759,59.145Zm0-6.09a1.431,1.431,0,1,1,1.184-1.41A1.312,1.312,0,0,1,151.759,53.055Zm0-6.09a1.431,1.431,0,1,1,1.184-1.41A1.312,1.312,0,0,1,151.759,46.965Zm5.115,188.786a1.431,1.431,0,1,1,1.184-1.41A1.312,1.312,0,0,1,156.874,235.751Zm0-6.09a1.431,1.431,0,1,1,1.184-1.41A1.312,1.312,0,0,1,156.874,229.661Zm0-6.09a1.431,1.431,0,1,1,1.184-1.41A1.312,1.312,0,0,1,156.874,223.571Zm0-6.09a1.431,1.431,0,1,1,1.184-1.41A1.312,1.312,0,0,1,156.874,217.482Zm0-6.09a1.431,1.431,0,1,1,1.184-1.41A1.312,1.312,0,0,1,156.874,211.392Zm0-6.09a1.431,1.431,0,1,1,1.184-1.41A1.312,1.312,0,0,1,156.874,205.3Zm0-6.09a1.431,1.431,0,1,1,1.184-1.41A1.312,1.312,0,0,1,156.874,199.212Zm0-6.09a1.431,1.431,0,1,1,1.184-1.41A1.312,1.312,0,0,1,156.874,193.122Zm0-6.09a1.431,1.431,0,1,1,1.184-1.41A1.312,1.312,0,0,1,156.874,187.032Zm0-6.09a1.431,1.431,0,1,1,1.184-1.41A1.312,1.312,0,0,1,156.874,180.942Zm0-6.09a1.431,1.431,0,1,1,1.184-1.41A1.312,1.312,0,0,1,156.874,174.852Zm0-6.09a1.431,1.431,0,1,1,1.184-1.41A1.312,1.312,0,0,1,156.874,168.763Zm0-6.09a1.431,1.431,0,1,1,1.184-1.41A1.312,1.312,0,0,1,156.874,162.673Zm0-6.09a1.431,1.431,0,1,1,1.184-1.41A1.312,1.312,0,0,1,156.874,156.583Zm0-6.09a1.431,1.431,0,1,1,1.184-1.41A1.312,1.312,0,0,1,156.874,150.493Zm0-6.09a1.431,1.431,0,1,1,1.184-1.41A1.312,1.312,0,0,1,156.874,144.4Zm0-6.09a1.431,1.431,0,1,1,1.184-1.41A1.312,1.312,0,0,1,156.874,138.313Zm0-6.09a1.431,1.431,0,1,1,1.184-1.41A1.312,1.312,0,0,1,156.874,132.223Zm0-6.09a1.431,1.431,0,1,1,1.184-1.41A1.312,1.312,0,0,1,156.874,126.133Zm0-6.09a1.431,1.431,0,1,1,1.184-1.41A1.312,1.312,0,0,1,156.874,120.044Zm0-6.09a1.431,1.431,0,1,1,1.184-1.41A1.312,1.312,0,0,1,156.874,113.954Zm0-6.09a1.431,1.431,0,1,1,1.184-1.41A1.312,1.312,0,0,1,156.874,107.864Zm0-6.09a1.431,1.431,0,1,1,1.184-1.41A1.312,1.312,0,0,1,156.874,101.774Zm0-6.09a1.431,1.431,0,1,1,1.184-1.41A1.312,1.312,0,0,1,156.874,95.684Zm0-6.09a1.431,1.431,0,1,1,1.184-1.41A1.312,1.312,0,0,1,156.874,89.594Zm0-6.09a1.431,1.431,0,1,1,1.184-1.41A1.312,1.312,0,0,1,156.874,83.5Zm0-6.09A1.431,1.431,0,1,1,158.057,76,1.312,1.312,0,0,1,156.874,77.414Zm0-6.09a1.431,1.431,0,1,1,1.184-1.41A1.312,1.312,0,0,1,156.874,71.325Zm0-6.09a1.431,1.431,0,1,1,1.184-1.41A1.312,1.312,0,0,1,156.874,65.235Zm0-6.09a1.431,1.431,0,1,1,1.184-1.41A1.312,1.312,0,0,1,156.874,59.145Zm0-6.09a1.431,1.431,0,1,1,1.184-1.41A1.312,1.312,0,0,1,156.874,53.055Zm0-6.09a1.431,1.431,0,1,1,1.184-1.41A1.312,1.312,0,0,1,156.874,46.965Zm5.115,182.7a1.431,1.431,0,1,1,1.184-1.41A1.312,1.312,0,0,1,161.988,229.661Zm0-6.09a1.431,1.431,0,1,1,1.184-1.41A1.312,1.312,0,0,1,161.988,223.571Zm0-6.09a1.431,1.431,0,1,1,1.184-1.41A1.312,1.312,0,0,1,161.988,217.482Zm0-6.09a1.431,1.431,0,1,1,1.184-1.41A1.312,1.312,0,0,1,161.988,211.392Zm0-6.09a1.431,1.431,0,1,1,1.184-1.41A1.312,1.312,0,0,1,161.988,205.3Zm0-6.09a1.431,1.431,0,1,1,1.184-1.41A1.312,1.312,0,0,1,161.988,199.212Zm0-6.09a1.431,1.431,0,1,1,1.184-1.41A1.312,1.312,0,0,1,161.988,193.122Zm0-6.09a1.431,1.431,0,1,1,1.184-1.41A1.312,1.312,0,0,1,161.988,187.032Zm0-6.09a1.431,1.431,0,1,1,1.184-1.41A1.312,1.312,0,0,1,161.988,180.942Zm0-6.09a1.431,1.431,0,1,1,1.184-1.41A1.312,1.312,0,0,1,161.988,174.852Zm0-6.09a1.431,1.431,0,1,1,1.184-1.41A1.312,1.312,0,0,1,161.988,168.763Zm0-6.09a1.431,1.431,0,1,1,1.184-1.41A1.312,1.312,0,0,1,161.988,162.673Zm0-6.09a1.431,1.431,0,1,1,1.184-1.41A1.312,1.312,0,0,1,161.988,156.583Zm0-6.09a1.431,1.431,0,1,1,1.184-1.41A1.312,1.312,0,0,1,161.988,150.493Zm0-6.09a1.431,1.431,0,1,1,1.184-1.41A1.312,1.312,0,0,1,161.988,144.4Zm0-6.09a1.431,1.431,0,1,1,1.184-1.41A1.312,1.312,0,0,1,161.988,138.313Zm0-6.09a1.431,1.431,0,1,1,1.184-1.41A1.312,1.312,0,0,1,161.988,132.223Zm0-6.09a1.431,1.431,0,1,1,1.184-1.41A1.312,1.312,0,0,1,161.988,126.133Zm0-6.09a1.431,1.431,0,1,1,1.184-1.41A1.312,1.312,0,0,1,161.988,120.044Zm0-6.09a1.431,1.431,0,1,1,1.184-1.41A1.312,1.312,0,0,1,161.988,113.954Zm0-6.09a1.431,1.431,0,1,1,1.184-1.41A1.312,1.312,0,0,1,161.988,107.864Zm0-6.09a1.431,1.431,0,1,1,1.184-1.41A1.312,1.312,0,0,1,161.988,101.774Zm0-6.09a1.431,1.431,0,1,1,1.184-1.41A1.312,1.312,0,0,1,161.988,95.684Zm0-6.09a1.431,1.431,0,1,1,1.184-1.41A1.312,1.312,0,0,1,161.988,89.594Zm0-6.09a1.431,1.431,0,1,1,1.184-1.41A1.312,1.312,0,0,1,161.988,83.5Zm0-6.09A1.431,1.431,0,1,1,163.172,76,1.312,1.312,0,0,1,161.988,77.414Zm0-6.09a1.431,1.431,0,1,1,1.184-1.41A1.312,1.312,0,0,1,161.988,71.325Zm0-6.09a1.431,1.431,0,1,1,1.184-1.41A1.312,1.312,0,0,1,161.988,65.235Zm0-6.09a1.431,1.431,0,1,1,1.184-1.41A1.312,1.312,0,0,1,161.988,59.145Zm0-6.09a1.431,1.431,0,1,1,1.184-1.41A1.312,1.312,0,0,1,161.988,53.055ZM167.1,229.661a1.431,1.431,0,1,1,1.184-1.41A1.312,1.312,0,0,1,167.1,229.661Zm0-6.09a1.431,1.431,0,1,1,1.184-1.41A1.312,1.312,0,0,1,167.1,223.571Zm0-6.09a1.431,1.431,0,1,1,1.184-1.41A1.312,1.312,0,0,1,167.1,217.482Zm0-6.09a1.431,1.431,0,1,1,1.184-1.41A1.312,1.312,0,0,1,167.1,211.392Zm0-6.09a1.431,1.431,0,1,1,1.184-1.41A1.312,1.312,0,0,1,167.1,205.3Zm0-6.09a1.431,1.431,0,1,1,1.184-1.41A1.312,1.312,0,0,1,167.1,199.212Zm0-6.09a1.431,1.431,0,1,1,1.184-1.41A1.312,1.312,0,0,1,167.1,193.122Zm0-6.09a1.431,1.431,0,1,1,1.184-1.41A1.312,1.312,0,0,1,167.1,187.032Zm0-6.09a1.431,1.431,0,1,1,1.184-1.41A1.312,1.312,0,0,1,167.1,180.942Zm0-6.09a1.431,1.431,0,1,1,1.184-1.41A1.312,1.312,0,0,1,167.1,174.852Zm0-6.09a1.431,1.431,0,1,1,1.184-1.41A1.312,1.312,0,0,1,167.1,168.763Zm0-6.09a1.431,1.431,0,1,1,1.184-1.41A1.312,1.312,0,0,1,167.1,162.673Zm0-6.09a1.431,1.431,0,1,1,1.184-1.41A1.312,1.312,0,0,1,167.1,156.583Zm0-6.09a1.431,1.431,0,1,1,1.184-1.41A1.312,1.312,0,0,1,167.1,150.493Zm0-6.09a1.431,1.431,0,1,1,1.184-1.41A1.312,1.312,0,0,1,167.1,144.4Zm0-6.09a1.431,1.431,0,1,1,1.184-1.41A1.312,1.312,0,0,1,167.1,138.313Zm0-6.09a1.431,1.431,0,1,1,1.184-1.41A1.312,1.312,0,0,1,167.1,132.223Zm0-6.09a1.431,1.431,0,1,1,1.184-1.41A1.312,1.312,0,0,1,167.1,126.133Zm0-6.09a1.431,1.431,0,1,1,1.184-1.41A1.312,1.312,0,0,1,167.1,120.044Zm0-6.09a1.431,1.431,0,1,1,1.184-1.41A1.312,1.312,0,0,1,167.1,113.954Zm0-6.09a1.431,1.431,0,1,1,1.184-1.41A1.312,1.312,0,0,1,167.1,107.864Zm0-6.09a1.431,1.431,0,1,1,1.184-1.41A1.312,1.312,0,0,1,167.1,101.774Zm0-6.09a1.431,1.431,0,1,1,1.184-1.41A1.312,1.312,0,0,1,167.1,95.684Zm0-6.09a1.431,1.431,0,1,1,1.184-1.41A1.312,1.312,0,0,1,167.1,89.594Zm0-6.09a1.431,1.431,0,1,1,1.184-1.41A1.312,1.312,0,0,1,167.1,83.5Zm0-6.09A1.431,1.431,0,1,1,168.286,76,1.312,1.312,0,0,1,167.1,77.414Zm0-6.09a1.431,1.431,0,1,1,1.184-1.41A1.312,1.312,0,0,1,167.1,71.325Zm0-6.09a1.431,1.431,0,1,1,1.184-1.41A1.312,1.312,0,0,1,167.1,65.235Zm0-6.09a1.431,1.431,0,1,1,1.184-1.41A1.312,1.312,0,0,1,167.1,59.145Zm0-6.09a1.431,1.431,0,1,1,1.184-1.41A1.312,1.312,0,0,1,167.1,53.055Zm5.115,170.517a1.431,1.431,0,1,1,1.184-1.41A1.312,1.312,0,0,1,172.217,223.571Zm0-6.09a1.431,1.431,0,1,1,1.184-1.41A1.312,1.312,0,0,1,172.217,217.482Zm0-6.09a1.431,1.431,0,1,1,1.184-1.41A1.312,1.312,0,0,1,172.217,211.392Zm0-6.09a1.431,1.431,0,1,1,1.184-1.41A1.312,1.312,0,0,1,172.217,205.3Zm0-6.09a1.431,1.431,0,1,1,1.184-1.41A1.312,1.312,0,0,1,172.217,199.212Zm0-6.09a1.431,1.431,0,1,1,1.184-1.41A1.312,1.312,0,0,1,172.217,193.122Zm0-6.09a1.431,1.431,0,1,1,1.184-1.41A1.312,1.312,0,0,1,172.217,187.032Zm0-6.09a1.431,1.431,0,1,1,1.184-1.41A1.312,1.312,0,0,1,172.217,180.942Zm0-6.09a1.431,1.431,0,1,1,1.184-1.41A1.312,1.312,0,0,1,172.217,174.852Zm0-6.09a1.431,1.431,0,1,1,1.184-1.41A1.312,1.312,0,0,1,172.217,168.763Zm0-6.09a1.431,1.431,0,1,1,1.184-1.41A1.312,1.312,0,0,1,172.217,162.673Zm0-6.09a1.431,1.431,0,1,1,1.184-1.41A1.312,1.312,0,0,1,172.217,156.583Zm0-6.09a1.431,1.431,0,1,1,1.184-1.41A1.312,1.312,0,0,1,172.217,150.493Zm0-6.09a1.431,1.431,0,1,1,1.184-1.41A1.312,1.312,0,0,1,172.217,144.4Zm0-6.09a1.431,1.431,0,1,1,1.184-1.41A1.312,1.312,0,0,1,172.217,138.313Zm0-6.09a1.431,1.431,0,1,1,1.184-1.41A1.312,1.312,0,0,1,172.217,132.223Zm0-6.09a1.431,1.431,0,1,1,1.184-1.41A1.312,1.312,0,0,1,172.217,126.133Zm0-6.09a1.431,1.431,0,1,1,1.184-1.41A1.312,1.312,0,0,1,172.217,120.044Zm0-6.09a1.431,1.431,0,1,1,1.184-1.41A1.312,1.312,0,0,1,172.217,113.954Zm0-6.09a1.431,1.431,0,1,1,1.184-1.41A1.312,1.312,0,0,1,172.217,107.864Zm0-6.09a1.431,1.431,0,1,1,1.184-1.41A1.312,1.312,0,0,1,172.217,101.774Zm0-6.09a1.431,1.431,0,1,1,1.184-1.41A1.312,1.312,0,0,1,172.217,95.684Zm0-6.09a1.431,1.431,0,1,1,1.184-1.41A1.312,1.312,0,0,1,172.217,89.594Zm0-6.09a1.431,1.431,0,1,1,1.184-1.41A1.312,1.312,0,0,1,172.217,83.5Zm0-6.09A1.431,1.431,0,1,1,173.4,76,1.312,1.312,0,0,1,172.217,77.414Zm0-6.09a1.431,1.431,0,1,1,1.184-1.41A1.312,1.312,0,0,1,172.217,71.325Zm0-6.09a1.431,1.431,0,1,1,1.184-1.41A1.312,1.312,0,0,1,172.217,65.235Zm0-6.09a1.431,1.431,0,1,1,1.184-1.41A1.312,1.312,0,0,1,172.217,59.145Zm5.115,158.337a1.431,1.431,0,1,1,1.184-1.41A1.312,1.312,0,0,1,177.332,217.482Zm0-6.09a1.431,1.431,0,1,1,1.184-1.41A1.312,1.312,0,0,1,177.332,211.392Zm0-6.09a1.431,1.431,0,1,1,1.184-1.41A1.312,1.312,0,0,1,177.332,205.3Zm0-6.09a1.431,1.431,0,1,1,1.184-1.41A1.312,1.312,0,0,1,177.332,199.212Zm0-6.09a1.431,1.431,0,1,1,1.184-1.41A1.312,1.312,0,0,1,177.332,193.122Zm0-6.09a1.431,1.431,0,1,1,1.184-1.41A1.312,1.312,0,0,1,177.332,187.032Zm0-6.09a1.431,1.431,0,1,1,1.184-1.41A1.312,1.312,0,0,1,177.332,180.942Zm0-6.09a1.431,1.431,0,1,1,1.184-1.41A1.312,1.312,0,0,1,177.332,174.852Zm0-6.09a1.431,1.431,0,1,1,1.184-1.41A1.312,1.312,0,0,1,177.332,168.763Zm0-6.09a1.431,1.431,0,1,1,1.184-1.41A1.312,1.312,0,0,1,177.332,162.673Zm0-6.09a1.431,1.431,0,1,1,1.184-1.41A1.312,1.312,0,0,1,177.332,156.583Zm0-6.09a1.431,1.431,0,1,1,1.184-1.41A1.312,1.312,0,0,1,177.332,150.493Zm0-6.09a1.431,1.431,0,1,1,1.184-1.41A1.312,1.312,0,0,1,177.332,144.4Zm0-6.09a1.431,1.431,0,1,1,1.184-1.41A1.312,1.312,0,0,1,177.332,138.313Zm0-6.09a1.431,1.431,0,1,1,1.184-1.41A1.312,1.312,0,0,1,177.332,132.223Zm0-6.09a1.431,1.431,0,1,1,1.184-1.41A1.312,1.312,0,0,1,177.332,126.133Zm0-6.09a1.431,1.431,0,1,1,1.184-1.41A1.312,1.312,0,0,1,177.332,120.044Zm0-6.09a1.431,1.431,0,1,1,1.184-1.41A1.312,1.312,0,0,1,177.332,113.954Zm0-6.09a1.431,1.431,0,1,1,1.184-1.41A1.312,1.312,0,0,1,177.332,107.864Zm0-6.09a1.431,1.431,0,1,1,1.184-1.41A1.312,1.312,0,0,1,177.332,101.774Zm0-6.09a1.431,1.431,0,1,1,1.184-1.41A1.312,1.312,0,0,1,177.332,95.684Zm0-6.09a1.431,1.431,0,1,1,1.184-1.41A1.312,1.312,0,0,1,177.332,89.594Zm0-6.09a1.431,1.431,0,1,1,1.184-1.41A1.312,1.312,0,0,1,177.332,83.5Zm0-6.09A1.431,1.431,0,1,1,178.515,76,1.312,1.312,0,0,1,177.332,77.414Zm0-6.09a1.431,1.431,0,1,1,1.184-1.41A1.312,1.312,0,0,1,177.332,71.325Zm0-6.09a1.431,1.431,0,1,1,1.184-1.41A1.312,1.312,0,0,1,177.332,65.235Zm5.114,152.247a1.431,1.431,0,1,1,1.184-1.41A1.312,1.312,0,0,1,182.446,217.482Zm0-6.09a1.431,1.431,0,1,1,1.184-1.41A1.312,1.312,0,0,1,182.446,211.392Zm0-6.09a1.431,1.431,0,1,1,1.184-1.41A1.312,1.312,0,0,1,182.446,205.3Zm0-6.09a1.431,1.431,0,1,1,1.184-1.41A1.312,1.312,0,0,1,182.446,199.212Zm0-6.09a1.431,1.431,0,1,1,1.184-1.41A1.312,1.312,0,0,1,182.446,193.122Zm0-6.09a1.431,1.431,0,1,1,1.184-1.41A1.312,1.312,0,0,1,182.446,187.032Zm0-6.09a1.431,1.431,0,1,1,1.184-1.41A1.312,1.312,0,0,1,182.446,180.942Zm0-6.09a1.431,1.431,0,1,1,1.184-1.41A1.312,1.312,0,0,1,182.446,174.852Zm0-6.09a1.431,1.431,0,1,1,1.184-1.41A1.312,1.312,0,0,1,182.446,168.763Zm0-6.09a1.431,1.431,0,1,1,1.184-1.41A1.312,1.312,0,0,1,182.446,162.673Zm0-6.09a1.431,1.431,0,1,1,1.184-1.41A1.312,1.312,0,0,1,182.446,156.583Zm0-6.09a1.431,1.431,0,1,1,1.184-1.41A1.312,1.312,0,0,1,182.446,150.493Zm0-6.09a1.431,1.431,0,1,1,1.184-1.41A1.312,1.312,0,0,1,182.446,144.4Zm0-6.09a1.431,1.431,0,1,1,1.184-1.41A1.312,1.312,0,0,1,182.446,138.313Zm0-6.09a1.431,1.431,0,1,1,1.184-1.41A1.312,1.312,0,0,1,182.446,132.223Zm0-6.09a1.431,1.431,0,1,1,1.184-1.41A1.312,1.312,0,0,1,182.446,126.133Zm0-6.09a1.431,1.431,0,1,1,1.184-1.41A1.312,1.312,0,0,1,182.446,120.044Zm0-6.09a1.431,1.431,0,1,1,1.184-1.41A1.312,1.312,0,0,1,182.446,113.954Zm0-6.09a1.431,1.431,0,1,1,1.184-1.41A1.312,1.312,0,0,1,182.446,107.864Zm0-6.09a1.431,1.431,0,1,1,1.184-1.41A1.312,1.312,0,0,1,182.446,101.774Zm0-6.09a1.431,1.431,0,1,1,1.184-1.41A1.312,1.312,0,0,1,182.446,95.684Zm0-6.09a1.431,1.431,0,1,1,1.184-1.41A1.312,1.312,0,0,1,182.446,89.594Zm0-6.09a1.431,1.431,0,1,1,1.184-1.41A1.312,1.312,0,0,1,182.446,83.5Zm0-6.09A1.431,1.431,0,1,1,183.63,76,1.312,1.312,0,0,1,182.446,77.414Zm0-6.09a1.431,1.431,0,1,1,1.184-1.41A1.312,1.312,0,0,1,182.446,71.325Zm0-6.09a1.431,1.431,0,1,1,1.184-1.41A1.312,1.312,0,0,1,182.446,65.235Zm5.115,146.157a1.431,1.431,0,1,1,1.184-1.41A1.312,1.312,0,0,1,187.561,211.392Zm0-6.09a1.431,1.431,0,1,1,1.184-1.41A1.312,1.312,0,0,1,187.561,205.3Zm0-6.09a1.431,1.431,0,1,1,1.184-1.41A1.312,1.312,0,0,1,187.561,199.212Zm0-6.09a1.431,1.431,0,1,1,1.184-1.41A1.312,1.312,0,0,1,187.561,193.122Zm0-6.09a1.431,1.431,0,1,1,1.184-1.41A1.312,1.312,0,0,1,187.561,187.032Zm0-6.09a1.431,1.431,0,1,1,1.184-1.41A1.312,1.312,0,0,1,187.561,180.942Zm0-6.09a1.431,1.431,0,1,1,1.184-1.41A1.312,1.312,0,0,1,187.561,174.852Zm0-6.09a1.431,1.431,0,1,1,1.184-1.41A1.312,1.312,0,0,1,187.561,168.763Zm0-6.09a1.431,1.431,0,1,1,1.184-1.41A1.312,1.312,0,0,1,187.561,162.673Zm0-6.09a1.431,1.431,0,1,1,1.184-1.41A1.312,1.312,0,0,1,187.561,156.583Zm0-6.09a1.431,1.431,0,1,1,1.184-1.41A1.312,1.312,0,0,1,187.561,150.493Zm0-6.09a1.431,1.431,0,1,1,1.184-1.41A1.312,1.312,0,0,1,187.561,144.4Zm0-6.09a1.431,1.431,0,1,1,1.184-1.41A1.312,1.312,0,0,1,187.561,138.313Zm0-6.09a1.431,1.431,0,1,1,1.184-1.41A1.312,1.312,0,0,1,187.561,132.223Zm0-6.09a1.431,1.431,0,1,1,1.184-1.41A1.312,1.312,0,0,1,187.561,126.133Zm0-6.09a1.431,1.431,0,1,1,1.184-1.41A1.312,1.312,0,0,1,187.561,120.044Zm0-6.09a1.431,1.431,0,1,1,1.184-1.41A1.312,1.312,0,0,1,187.561,113.954Zm0-6.09a1.431,1.431,0,1,1,1.184-1.41A1.312,1.312,0,0,1,187.561,107.864Zm0-6.09a1.431,1.431,0,1,1,1.184-1.41A1.312,1.312,0,0,1,187.561,101.774Zm0-6.09a1.431,1.431,0,1,1,1.184-1.41A1.312,1.312,0,0,1,187.561,95.684Zm0-6.09a1.431,1.431,0,1,1,1.184-1.41A1.312,1.312,0,0,1,187.561,89.594Zm0-6.09a1.431,1.431,0,1,1,1.184-1.41A1.312,1.312,0,0,1,187.561,83.5Zm0-6.09A1.431,1.431,0,1,1,188.745,76,1.312,1.312,0,0,1,187.561,77.414Zm0-6.09a1.431,1.431,0,1,1,1.184-1.41A1.312,1.312,0,0,1,187.561,71.325Zm5.115,127.887a1.431,1.431,0,1,1,1.184-1.41A1.312,1.312,0,0,1,192.675,199.212Zm0-6.09a1.431,1.431,0,1,1,1.184-1.41A1.312,1.312,0,0,1,192.675,193.122Zm0-6.09a1.431,1.431,0,1,1,1.184-1.41A1.312,1.312,0,0,1,192.675,187.032Zm0-6.09a1.431,1.431,0,1,1,1.184-1.41A1.312,1.312,0,0,1,192.675,180.942Zm0-6.09a1.431,1.431,0,1,1,1.184-1.41A1.312,1.312,0,0,1,192.675,174.852Zm0-6.09a1.431,1.431,0,1,1,1.184-1.41A1.312,1.312,0,0,1,192.675,168.763Zm0-6.09a1.431,1.431,0,1,1,1.184-1.41A1.312,1.312,0,0,1,192.675,162.673Zm0-6.09a1.431,1.431,0,1,1,1.184-1.41A1.312,1.312,0,0,1,192.675,156.583Zm0-6.09a1.431,1.431,0,1,1,1.184-1.41A1.312,1.312,0,0,1,192.675,150.493Zm0-6.09a1.431,1.431,0,1,1,1.184-1.41A1.312,1.312,0,0,1,192.675,144.4Zm0-6.09a1.431,1.431,0,1,1,1.184-1.41A1.312,1.312,0,0,1,192.675,138.313Zm0-6.09a1.431,1.431,0,1,1,1.184-1.41A1.312,1.312,0,0,1,192.675,132.223Zm0-6.09a1.431,1.431,0,1,1,1.184-1.41A1.312,1.312,0,0,1,192.675,126.133Zm0-6.09a1.431,1.431,0,1,1,1.184-1.41A1.312,1.312,0,0,1,192.675,120.044Zm0-6.09a1.431,1.431,0,1,1,1.184-1.41A1.312,1.312,0,0,1,192.675,113.954Zm0-6.09a1.431,1.431,0,1,1,1.184-1.41A1.312,1.312,0,0,1,192.675,107.864Zm0-6.09a1.431,1.431,0,1,1,1.184-1.41A1.312,1.312,0,0,1,192.675,101.774Zm0-6.09a1.431,1.431,0,1,1,1.184-1.41A1.312,1.312,0,0,1,192.675,95.684Zm0-6.09a1.431,1.431,0,1,1,1.184-1.41A1.312,1.312,0,0,1,192.675,89.594Zm0-6.09a1.431,1.431,0,1,1,1.184-1.41A1.312,1.312,0,0,1,192.675,83.5Zm5.115,109.618a1.431,1.431,0,1,1,1.184-1.41A1.312,1.312,0,0,1,197.79,193.122Zm0-6.09a1.431,1.431,0,1,1,1.184-1.41A1.312,1.312,0,0,1,197.79,187.032Zm0-6.09a1.431,1.431,0,1,1,1.184-1.41A1.312,1.312,0,0,1,197.79,180.942Zm0-6.09a1.431,1.431,0,1,1,1.184-1.41A1.312,1.312,0,0,1,197.79,174.852Zm0-6.09a1.431,1.431,0,1,1,1.184-1.41A1.312,1.312,0,0,1,197.79,168.763Zm0-6.09a1.431,1.431,0,1,1,1.184-1.41A1.312,1.312,0,0,1,197.79,162.673Zm0-6.09a1.431,1.431,0,1,1,1.184-1.41A1.312,1.312,0,0,1,197.79,156.583Zm0-6.09a1.431,1.431,0,1,1,1.184-1.41A1.312,1.312,0,0,1,197.79,150.493Zm0-6.09a1.431,1.431,0,1,1,1.184-1.41A1.312,1.312,0,0,1,197.79,144.4Zm0-6.09a1.431,1.431,0,1,1,1.184-1.41A1.312,1.312,0,0,1,197.79,138.313Zm0-6.09a1.431,1.431,0,1,1,1.184-1.41A1.312,1.312,0,0,1,197.79,132.223Zm0-6.09a1.431,1.431,0,1,1,1.184-1.41A1.312,1.312,0,0,1,197.79,126.133Zm0-6.09a1.431,1.431,0,1,1,1.184-1.41A1.312,1.312,0,0,1,197.79,120.044Zm0-6.09a1.431,1.431,0,1,1,1.184-1.41A1.312,1.312,0,0,1,197.79,113.954Zm0-6.09a1.431,1.431,0,1,1,1.184-1.41A1.312,1.312,0,0,1,197.79,107.864Zm0-6.09a1.431,1.431,0,1,1,1.184-1.41A1.312,1.312,0,0,1,197.79,101.774Zm0-6.09a1.431,1.431,0,1,1,1.184-1.41A1.312,1.312,0,0,1,197.79,95.684Zm0-6.09a1.431,1.431,0,1,1,1.184-1.41A1.312,1.312,0,0,1,197.79,89.594Zm5.115,91.348a1.431,1.431,0,1,1,1.184-1.41A1.312,1.312,0,0,1,202.9,180.942Zm0-6.09a1.431,1.431,0,1,1,1.184-1.41A1.312,1.312,0,0,1,202.9,174.852Zm0-6.09a1.431,1.431,0,1,1,1.184-1.41A1.312,1.312,0,0,1,202.9,168.763Zm0-6.09a1.431,1.431,0,1,1,1.184-1.41A1.312,1.312,0,0,1,202.9,162.673Zm0-6.09a1.431,1.431,0,1,1,1.184-1.41A1.312,1.312,0,0,1,202.9,156.583Zm0-6.09a1.431,1.431,0,1,1,1.184-1.41A1.312,1.312,0,0,1,202.9,150.493Zm0-6.09a1.431,1.431,0,1,1,1.184-1.41A1.312,1.312,0,0,1,202.9,144.4Zm0-6.09a1.431,1.431,0,1,1,1.184-1.41A1.312,1.312,0,0,1,202.9,138.313Zm0-6.09a1.431,1.431,0,1,1,1.184-1.41A1.312,1.312,0,0,1,202.9,132.223Zm0-6.09a1.431,1.431,0,1,1,1.184-1.41A1.312,1.312,0,0,1,202.9,126.133Zm0-6.09a1.431,1.431,0,1,1,1.184-1.41A1.312,1.312,0,0,1,202.9,120.044Zm0-6.09a1.431,1.431,0,1,1,1.184-1.41A1.312,1.312,0,0,1,202.9,113.954Zm0-6.09a1.431,1.431,0,1,1,1.184-1.41A1.312,1.312,0,0,1,202.9,107.864Zm0-6.09a1.431,1.431,0,1,1,1.184-1.41A1.312,1.312,0,0,1,202.9,101.774Zm5.115,60.9a1.431,1.431,0,1,1,1.184-1.41A1.312,1.312,0,0,1,208.019,162.673Zm0-6.09a1.431,1.431,0,1,1,1.184-1.41A1.312,1.312,0,0,1,208.019,156.583Zm0-6.09a1.431,1.431,0,1,1,1.184-1.41A1.312,1.312,0,0,1,208.019,150.493Zm0-6.09a1.431,1.431,0,1,1,1.184-1.41A1.312,1.312,0,0,1,208.019,144.4Zm0-6.09a1.431,1.431,0,1,1,1.184-1.41A1.312,1.312,0,0,1,208.019,138.313Zm0-6.09a1.431,1.431,0,1,1,1.184-1.41A1.312,1.312,0,0,1,208.019,132.223Zm0-6.09a1.431,1.431,0,1,1,1.184-1.41A1.312,1.312,0,0,1,208.019,126.133Zm0-6.09a1.431,1.431,0,1,1,1.184-1.41A1.312,1.312,0,0,1,208.019,120.044Z" transform="translate(1188.936 668.289)" fill="#26aab7"/>
        <path id="Shape_2" data-name="Shape 2" d="M188.683,0V123.99H0a28.38,28.38,0,0,1,3.937-1.914c7.035-2.766,14.8-3.449,21.593-6.86,7.172-3.606,12.416-9.5,16.458-16.281,4.2-7.036,7.661-14.4,14.126-19.748,7.105-5.872,16.28-8.741,25.213-10.63a41.067,41.067,0,0,0,22.855-13.513c3.351-3.927,5.937-8.437,9.226-12.414A26.1,26.1,0,0,1,128.864,33.3c5.425-1.079,11.666-1.24,16.218-4.745,3.211-2.473,4.544-6.258,5.347-10.061,1.374-6.516,1.3-15.137,7.823-18.49Z" transform="translate(188.683 123.99) rotate(180)" fill="#7d6eb2"/>
      </g>
    </g>
  </g>
</svg>
