<svg xmlns="http://www.w3.org/2000/svg" xmlns:xlink="http://www.w3.org/1999/xlink" width="400" height="239" viewBox="0 0 400 239">
  <defs>
    <clipPath id="clip-path">
      <rect id="Rectángulo_402344" data-name="Rectángulo 402344" width="220.795" height="238.677" fill="none"/>
    </clipPath>
  </defs>
  <g id="Grupo_1101512" data-name="Grupo 1101512" transform="translate(5305 -2191)">
    <path id="Rectángulo_402234" data-name="Rectángulo 402234" d="M20,0H380a20,20,0,0,1,20,20V126a0,0,0,0,1,0,0H0a0,0,0,0,1,0,0V20A20,20,0,0,1,20,0Z" transform="translate(-5305 2304)" fill="#aee6e6"/>
    <g id="Grupo_1101473" data-name="Grupo 1101473" transform="translate(-5215.397 2191)">
      <g id="Grupo_1101472" data-name="Grupo 1101472" clip-path="url(#clip-path)">
        <path id="Trazado_878194" data-name="Trazado 878194" d="M193.574,348.784H171.066a9.95,9.95,0,0,1-9.95-9.95v-28.9h42.408v28.9a9.95,9.95,0,0,1-9.95,9.95" transform="translate(-61.667 -118.626)" fill="#455a64"/>
        <rect id="Rectángulo_402337" data-name="Rectángulo 402337" width="42.408" height="2.183" transform="translate(99.449 212.846)" fill="#263238"/>
        <path id="Trazado_878195" data-name="Trazado 878195" d="M161.116,354.244v1.55c0,.214.019.423.032.633h42.344c.014-.211.032-.42.032-.633v-1.55Z" transform="translate(-61.667 -135.586)" fill="#263238"/>
        <path id="Trazado_878196" data-name="Trazado 878196" d="M201.748,365.844a9.941,9.941,0,0,0,1.409-2.183H162.688a9.961,9.961,0,0,0,1.409,2.183Z" transform="translate(-62.269 -139.191)" fill="#263238"/>
        <path id="Trazado_878197" data-name="Trazado 878197" d="M221.467,114.217a68.431,68.431,0,1,0-122.1,42.456L114.1,176.63a61.542,61.542,0,0,1,12.035,36.559v2.353a12.507,12.507,0,0,0,12.508,12.507h28.78a12.507,12.507,0,0,0,12.507-12.507V213.19a61.544,61.544,0,0,1,12.036-36.559l14.739-19.958h0a68.139,68.139,0,0,0,14.761-42.455" transform="translate(-32.382 -17.525)" fill="#fff3c6"/>
        <path id="Trazado_878198" data-name="Trazado 878198" d="M181.953,251.1h2.237l26.268-118.666a16.023,16.023,0,0,0,.376-3.449l0-.081c-.014-.188-1.573-18.776-16.6-19.346a12.351,12.351,0,0,0-8.734,3.2,20.316,20.316,0,0,0-14.84-6.747l-.6,0a21.018,21.018,0,0,0-14.788,6.732,12.37,12.37,0,0,0-8.719-3.186c-15.026.57-16.586,19.158-16.6,19.346l0,.081a15.959,15.959,0,0,0,.377,3.449L156.588,251.1h2.236L132.452,131.962a13.823,13.823,0,0,1-.325-2.933c.079-.88,1.7-16.8,14.5-17.29a10.084,10.084,0,0,1,7.266,2.693,24.586,24.586,0,0,0-4.426,15.176c.218,6.324,2.774,10.729,6.22,10.729h.028a5.8,5.8,0,0,0,5.187-3.279c2.668-4.81,1.673-13.872-2.217-20.2a19.076,19.076,0,0,0-1.926-2.623c2.857-3.236,7.132-5.657,13.359-6.044h.486c6.226.286,10.486,2.8,13.327,6.139a19.256,19.256,0,0,0-1.843,2.529c-3.89,6.328-4.884,15.39-2.217,20.2a5.8,5.8,0,0,0,5.187,3.279c3.5.04,5.952-4.305,6.123-10.774a25.234,25.234,0,0,0-4.336-15.1,10.106,10.106,0,0,1,7.3-2.725c12.883.488,14.411,16.174,14.5,17.287a13.783,13.783,0,0,1-.326,2.936ZM156.827,118c3.462,5.632,4.454,13.874,2.167,18a3.686,3.686,0,0,1-3.293,2.154h-.012c-2.1,0-3.873-3.781-4.039-8.621a23.379,23.379,0,0,1,3.746-13.539A17.692,17.692,0,0,1,156.827,118M189,129.506c-.128,4.854-1.846,8.647-3.913,8.647h-.011A3.684,3.684,0,0,1,181.784,136c-2.288-4.123-1.295-12.365,2.167-18a17.664,17.664,0,0,1,1.325-1.88A24.252,24.252,0,0,1,189,129.506" transform="translate(-49.735 -40.574)" fill="#ffd947"/>
        <path id="Trazado_878199" data-name="Trazado 878199" d="M194.566,27.2a1.456,1.456,0,0,1-1.455-1.455V13.574a1.455,1.455,0,0,1,2.911,0V25.748a1.456,1.456,0,0,1-1.455,1.455" transform="translate(-73.913 -4.639)" fill="#263238"/>
        <path id="Trazado_878200" data-name="Trazado 878200" d="M332,165.166H319.829a1.456,1.456,0,0,1,0-2.912H332a1.456,1.456,0,0,1,0,2.912" transform="translate(-121.857 -62.102)" fill="#263238"/>
        <path id="Trazado_878201" data-name="Trazado 878201" d="M62.215,165.166H50.042a1.456,1.456,0,0,1,0-2.912H62.215a1.456,1.456,0,0,1,0,2.912" transform="translate(-18.597 -62.102)" fill="#263238"/>
        <path id="Trazado_878202" data-name="Trazado 878202" d="M289.459,259.827a1.449,1.449,0,0,1-1.029-.426l-8.608-8.608a1.455,1.455,0,1,1,2.058-2.058l8.608,8.608a1.456,1.456,0,0,1-1.029,2.485" transform="translate(-106.938 -95.039)" fill="#263238"/>
        <path id="Trazado_878203" data-name="Trazado 878203" d="M98.69,69.058a1.449,1.449,0,0,1-1.029-.427l-8.608-8.608a1.456,1.456,0,1,1,2.059-2.059l8.608,8.608a1.456,1.456,0,0,1-1.029,2.485" transform="translate(-33.922 -22.023)" fill="#263238"/>
        <path id="Trazado_878204" data-name="Trazado 878204" d="M280.85,69.058a1.456,1.456,0,0,1-1.029-2.485l8.608-8.608a1.455,1.455,0,1,1,2.058,2.059l-8.608,8.608a1.449,1.449,0,0,1-1.029.427" transform="translate(-106.938 -22.023)" fill="#263238"/>
        <path id="Trazado_878205" data-name="Trazado 878205" d="M90.082,259.827a1.456,1.456,0,0,1-1.029-2.485l8.608-8.608a1.455,1.455,0,1,1,2.059,2.058L91.111,259.4a1.449,1.449,0,0,1-1.029.426" transform="translate(-33.922 -95.039)" fill="#263238"/>
        <path id="Trazado_878206" data-name="Trazado 878206" d="M166.633,318.953s-44.03-5.072-46.5,37.9a3.639,3.639,0,0,0,3.637,3.836h85.72a3.639,3.639,0,0,0,3.637-3.836c-2.467-42.967-46.5-37.9-46.5-37.9" transform="translate(-45.98 -122.008)" fill="#7d6eb2"/>
        <path id="Trazado_878207" data-name="Trazado 878207" d="M146.43,372.785v-22.4l-7.513,22.4Z" transform="translate(-53.171 -134.108)" fill="#62529b"/>
        <path id="Trazado_878208" data-name="Trazado 878208" d="M239.848,372.785v-22.4l7.513,22.4Z" transform="translate(-91.802 -134.108)" fill="#62529b"/>
        <path id="Trazado_878209" data-name="Trazado 878209" d="M170.951,275.228v28.658c0,8.358,6.776,12.95,15.134,12.95s15.134-4.592,15.134-12.95V275.228Z" transform="translate(-65.431 -105.343)" fill="#ffbe9d"/>
        <path id="Trazado_878210" data-name="Trazado 878210" d="M201.219,295.18l-30.268.872V304a25.077,25.077,0,0,0,15.134,5.921c6.36.256,11.669-3.217,15.134-6.357Z" transform="translate(-65.431 -112.98)" fill="#eb996e"/>
        <path id="Trazado_878211" data-name="Trazado 878211" d="M145.926,214.6s-6.4-15.136-6.182-29.206,17.268-15.989,24.729-22.171,8.314-9.593,10.446-7.248-3.2,8.1-3.2,8.1,14.923-6.609,19.186-3.837-3.2,4.264-3.2,4.264,12.791,4.207,15.562,11.8-7.461,3.759-7.461,3.759l.852-2.771a14.875,14.875,0,0,1,8.651,11.3c1.368,8.527-2.043,22.861-4.814,27.845s-29.845,7.116-29.845,7.116Z" transform="translate(-53.485 -59.415)" fill="#263238"/>
        <path id="Trazado_878212" data-name="Trazado 878212" d="M198.049,227.643c-.142,0-.28.014-.42.022l-.393-15.636s.928-7.41-8.886-10.415c0,0-3.771,4.188-17.225,2.2-12.218-1.8-15.021-5.408-15.021-5.408s-5.281,2.2-5.481,11.617a167.713,167.713,0,0,0,.21,17.681c-4.5.52-8.524,4.525-8.123,9.065a8.387,8.387,0,0,0,8.964,7.626c.136,1.312.22,2.086.22,2.086h0a23.124,23.124,0,0,0,46.153-2.059h0a8.392,8.392,0,1,0,0-16.783" transform="translate(-54.611 -75.941)" fill="#ffbe9d"/>
        <path id="Trazado_878213" data-name="Trazado 878213" d="M199.8,198.2a7.544,7.544,0,0,0,1.742-1.025,3.743,3.743,0,0,0,1.175-1.515,2.661,2.661,0,0,0,.071-1.795,4.72,4.72,0,0,0-.936-1.621,12.153,12.153,0,0,0-3.041-2.463,20.974,20.974,0,0,0-3.592-1.721,27.357,27.357,0,0,0-7.842-1.607c-2.7-.2-5.425-.255-8.16-.2a43.714,43.714,0,0,1,8.2-.633,24,24,0,0,1,8.182,1.422,20.73,20.73,0,0,1,3.762,1.853,12.105,12.105,0,0,1,3.167,2.817,5.318,5.318,0,0,1,.962,1.974,3.3,3.3,0,0,1-.281,2.2,4.162,4.162,0,0,1-1.5,1.525,6.146,6.146,0,0,1-1.913.786" transform="translate(-68.596 -71.044)" fill="#455a64"/>
        <path id="Trazado_878214" data-name="Trazado 878214" d="M222.6,187.776a67.145,67.145,0,0,0,7,.833,14.62,14.62,0,0,0,3.4-.159,3.318,3.318,0,0,0,1.394-.556,1.123,1.123,0,0,0,.361-.477,2.1,2.1,0,0,0,.085-.333c.023-.127.042-.254.052-.383a5.769,5.769,0,0,0-.715-3.115,13.941,13.941,0,0,0-1.928-2.81,35.991,35.991,0,0,0-5.194-4.723,22.863,22.863,0,0,1,5.817,4.146,13.06,13.06,0,0,1,2.22,2.912,6.683,6.683,0,0,1,.886,3.691,4.767,4.767,0,0,1-.073.493,3.143,3.143,0,0,1-.146.521,2.2,2.2,0,0,1-.7.914,4.14,4.14,0,0,1-1.87.736,13.567,13.567,0,0,1-3.662-.009,31.948,31.948,0,0,1-6.933-1.681" transform="translate(-85.202 -67.384)" fill="#455a64"/>
        <path id="Trazado_878215" data-name="Trazado 878215" d="M203.24,162.225a51.175,51.175,0,0,0-6.306,1.352c-2.061.579-4.1,1.238-6.09,2.009-.989.4-2,.768-2.964,1.225l-1.471.644c-.479.24-.962.471-1.448.7-.979.443-1.912.975-2.878,1.452s-1.886,1.044-2.863,1.528c.841-.684,1.7-1.36,2.584-1.986.91-.591,1.8-1.231,2.757-1.747a41.734,41.734,0,0,1,5.892-2.834,39.443,39.443,0,0,1,6.286-1.817,25.138,25.138,0,0,1,6.5-.527" transform="translate(-68.596 -62.075)" fill="#455a64"/>
        <path id="Trazado_878216" data-name="Trazado 878216" d="M175.6,236.035a2.116,2.116,0,1,1-2.116-2.116,2.116,2.116,0,0,1,2.116,2.116" transform="translate(-65.592 -89.532)" fill="#263238"/>
        <path id="Trazado_878217" data-name="Trazado 878217" d="M212.19,236.035a2.116,2.116,0,1,1-2.116-2.116,2.116,2.116,0,0,1,2.116,2.116" transform="translate(-79.596 -89.532)" fill="#263238"/>
        <path id="Trazado_878218" data-name="Trazado 878218" d="M166.753,236.747a4.53,4.53,0,0,1,1.273-3.373,5.041,5.041,0,0,1,3.518-1.479,5.262,5.262,0,0,1,3.622,1.159,4.227,4.227,0,0,1,1.512,3.279,5.975,5.975,0,0,0-2.234-2.26,5.509,5.509,0,0,0-2.847-.591,5.055,5.055,0,0,0-2.755.832,6.8,6.8,0,0,0-2.089,2.433" transform="translate(-63.821 -88.755)" fill="#263238"/>
        <path id="Trazado_878219" data-name="Trazado 878219" d="M203.342,236.747a4.53,4.53,0,0,1,1.273-3.373,5.041,5.041,0,0,1,3.518-1.479,5.262,5.262,0,0,1,3.622,1.159,4.224,4.224,0,0,1,1.511,3.279,5.969,5.969,0,0,0-2.233-2.26,5.509,5.509,0,0,0-2.847-.591,5.055,5.055,0,0,0-2.755.832,6.8,6.8,0,0,0-2.089,2.433" transform="translate(-77.826 -88.755)" fill="#263238"/>
        <path id="Trazado_878220" data-name="Trazado 878220" d="M187.409,229.3a34.181,34.181,0,0,1,1.653,8.275,38.313,38.313,0,0,1,.119,4.244c-.044,1.416-.175,2.827-.3,4.215-.064.691-.131,1.383-.133,2.045a3.194,3.194,0,0,0,.344,1.719,1.881,1.881,0,0,0,1.471.66,2.574,2.574,0,0,0,1.717-.374,5.063,5.063,0,0,0,1.8-3.351,10.876,10.876,0,0,0-.027-4.128,9.961,9.961,0,0,1,.547,4.2,7.577,7.577,0,0,1-.483,2.129,4.134,4.134,0,0,1-1.351,1.842,3.35,3.35,0,0,1-2.272.63,3.963,3.963,0,0,1-1.167-.225,2.238,2.238,0,0,1-1.063-.783,2.8,2.8,0,0,1-.48-1.175,6.61,6.61,0,0,1-.1-1.138c-.006-.738.056-1.444.111-2.147a61.4,61.4,0,0,0,.412-8.316,57.031,57.031,0,0,0-.8-8.321" transform="translate(-71.73 -87.763)" fill="#263238"/>
        <path id="Trazado_878221" data-name="Trazado 878221" d="M180.061,270.609a11.021,11.021,0,0,0,3.666,2.867,9.08,9.08,0,0,0,4.4.86,12.509,12.509,0,0,0,4.456-.98,10.01,10.01,0,0,0,3.741-2.747,7.643,7.643,0,0,1-3.362,3.51,10.7,10.7,0,0,1-2.318.936,12.986,12.986,0,0,1-2.47.37l-.633.011c-.21,0-.422-.032-.632-.048a7.43,7.43,0,0,1-1.252-.2,8.417,8.417,0,0,1-5.591-4.578" transform="translate(-68.918 -103.575)" fill="#263238"/>
        <path id="Trazado_878222" data-name="Trazado 878222" d="M162.835,220.357a42.121,42.121,0,0,1,9.974-1.371.686.686,0,0,0,.552-1.075c-.667-.954-2.2-2.168-5.629-1.859-4.1.37-5.36,2.224-5.739,3.466a.679.679,0,0,0,.841.838" transform="translate(-61.992 -82.675)" fill="#263238"/>
        <path id="Trazado_878223" data-name="Trazado 878223" d="M213.884,220.357a42.133,42.133,0,0,0-9.975-1.371.685.685,0,0,1-.552-1.075c.666-.954,2.2-2.168,5.629-1.859,4.1.37,5.36,2.224,5.739,3.466a.678.678,0,0,1-.841.838" transform="translate(-77.787 -82.675)" fill="#263238"/>
        <path id="Trazado_878224" data-name="Trazado 878224" d="M152.257,262a6.181,6.181,0,0,1-4.082-1.588,6.058,6.058,0,0,1-1.9-4.12,5.37,5.37,0,0,1,5.421-6.047,6.96,6.96,0,0,0-3.381,2.269,4.479,4.479,0,0,0-.809,1.747,6.888,6.888,0,0,0-.157.961c0,.33-.01.663.015.993a6.3,6.3,0,0,0,.41,1.922,5.407,5.407,0,0,0,.416.886,7.445,7.445,0,0,0,.588.792A7.93,7.93,0,0,0,152.257,262" transform="translate(-55.978 -95.783)" fill="#eb996e"/>
        <path id="Trazado_878225" data-name="Trazado 878225" d="M232.618,249.586a6.181,6.181,0,0,1,4.083,1.588,6.06,6.06,0,0,1,1.9,4.119,5.37,5.37,0,0,1-5.421,6.047,6.96,6.96,0,0,0,3.381-2.269,4.479,4.479,0,0,0,.809-1.747,6.883,6.883,0,0,0,.157-.962c0-.33.01-.662-.015-.992a6.307,6.307,0,0,0-.41-1.923,5.428,5.428,0,0,0-.416-.885,7.45,7.45,0,0,0-.588-.792,7.93,7.93,0,0,0-3.479-2.184" transform="translate(-89.034 -95.529)" fill="#eb996e"/>
        <path id="Trazado_878226" data-name="Trazado 878226" d="M327.115,295.89l.007,0-5.785-16.177a1.479,1.479,0,0,0-1.9-.891l-12.229,4.487a1.479,1.479,0,0,0-.888,1.871l4.172,12.077c-1.3-.075-2.691.26-4.215,2.573a3.9,3.9,0,0,0-.657,2.608,4.637,4.637,0,0,0,9.191.124,4.749,4.749,0,0,0-.181-2.116l.058-.021-4.563-13.014,9.553-3.506,3.245,8.943c-1.325-.044-2.723.272-4.46,3.647a2.65,2.65,0,0,0-.306,1.491,4.636,4.636,0,0,0,5.416,4.054,4.714,4.714,0,0,0,3.495-2.954,4.348,4.348,0,0,0,.048-3.194" transform="translate(-116.965 -106.683)" fill="#263238"/>
        <path id="Trazado_878227" data-name="Trazado 878227" d="M339.365,203.334l.056.027,5.939-12.447,1.97-4.438h0l-1.145-.526a1.479,1.479,0,0,0-1.95.7l-5.554,11.506h0c-.888-.99-2.144-1.744-4.981-1.107a3.637,3.637,0,0,0-1.909,1.086A4.638,4.638,0,0,0,338,204.963a4.743,4.743,0,0,0,1.363-1.628" transform="translate(-126.534 -71.12)" fill="#7d6eb2"/>
        <path id="Trazado_878228" data-name="Trazado 878228" d="M123.119,11.95l-2.407-.068a11.636,11.636,0,0,0-3.457-5.3l1-2.289a2.078,2.078,0,0,0-1.076-2.735L114,.173a2.078,2.078,0,0,0-2.735,1.076l-1.039,2.386a11.892,11.892,0,0,0-3.689.3l-1.4-2.213a2.079,2.079,0,0,0-2.868-.643L99.34,2.932A2.078,2.078,0,0,0,98.7,5.8l1.4,2.213a11.877,11.877,0,0,0-1.86,3.241l-2.6-.073A2.078,2.078,0,0,0,93.5,13.2l-.1,3.463A2.078,2.078,0,0,0,95.422,18.8l2.5.07a11.617,11.617,0,0,0,3.331,5.382l-.961,2.208a2.078,2.078,0,0,0,1.076,2.735l3.177,1.383a2.079,2.079,0,0,0,2.735-1.076l.925-2.124a11.9,11.9,0,0,0,3.984-.277l1.221,1.928a2.078,2.078,0,0,0,2.868.644l2.927-1.854a2.078,2.078,0,0,0,.644-2.868l-1.222-1.928A11.9,11.9,0,0,0,120.59,19.5l2.315.065a2.078,2.078,0,0,0,2.136-2.02l.1-3.463a2.078,2.078,0,0,0-2.02-2.136m-10.525,8.672a6.043,6.043,0,1,1,1.872-8.339,6.05,6.05,0,0,1-1.872,8.339" transform="translate(-35.75 0)" fill="#7d6eb2"/>
        <path id="Trazado_878229" data-name="Trazado 878229" d="M37.25,115.854,13.475,132.71l-4.266-6.038,23.775-16.857a2.006,2.006,0,0,1,2.8.481l1.95,2.76a2.006,2.006,0,0,1-.481,2.8" transform="translate(-3.525 -41.891)" fill="#263238"/>
        <path id="Trazado_878230" data-name="Trazado 878230" d="M7.783,138.163l-.867-.81a11.425,11.425,0,0,1-3.695,6.177l.424.6.424.6a11.2,11.2,0,0,1,7.113-1.339,4.693,4.693,0,0,1,1.139-5.332,3.9,3.9,0,0,1-4.539.1" transform="translate(-1.233 -52.572)" fill="#7d6eb2"/>
        <path id="Trazado_878231" data-name="Trazado 878231" d="M1.989,147.342l1.316-.03-.468,1.23L1.052,149.8a.481.481,0,0,1-.67-.115l-.294-.415A.48.48,0,0,1,.2,148.6Z" transform="translate(0 -56.383)" fill="#263238"/>
        <path id="Trazado_878232" data-name="Trazado 878232" d="M315.521,13.125C309.133-3.482,292.847-3.011,283.529,7.2c0,0-7.7,8.311-2.083,16.688s13.676,2.741,20.717,7.968,19.746-2.123,13.358-18.73m-9.23,15.842a3.152,3.152,0,1,1,4.389.776,3.151,3.151,0,0,1-4.389-.776" transform="translate(-106.938 0)" fill="#7d6eb2"/>
        <path id="Trazado_878233" data-name="Trazado 878233" d="M302.844,37.53a2.394,2.394,0,1,1-2.394-2.393,2.394,2.394,0,0,1,2.394,2.393" transform="translate(-114.081 -13.449)" fill="#263238"/>
        <path id="Trazado_878234" data-name="Trazado 878234" d="M290.885,32.243a2.394,2.394,0,1,1-2.394-2.394,2.393,2.393,0,0,1,2.394,2.394" transform="translate(-109.503 -11.425)" fill="#263238"/>
        <path id="Trazado_878235" data-name="Trazado 878235" d="M291.766,18.395A2.394,2.394,0,1,1,289.373,16a2.393,2.393,0,0,1,2.394,2.394" transform="translate(-109.841 -6.124)" fill="#263238"/>
        <path id="Trazado_878236" data-name="Trazado 878236" d="M301.082,9.08a2.394,2.394,0,1,1-2.394-2.394,2.394,2.394,0,0,1,2.394,2.394" transform="translate(-113.406 -2.559)" fill="#263238"/>
        <path id="Trazado_878237" data-name="Trazado 878237" d="M313.977,7.569a2.394,2.394,0,1,1-2.394-2.394,2.394,2.394,0,0,1,2.394,2.394" transform="translate(-118.342 -1.981)" fill="#263238"/>
        <path id="Trazado_878238" data-name="Trazado 878238" d="M50.19,248.935,27.46,259.452a1.778,1.778,0,0,0-.842,2.413l15.789,31.4a1.778,1.778,0,0,0,2.384.792l23.093-11.546a1.778,1.778,0,0,0,.775-2.426L52.507,249.714a1.779,1.779,0,0,0-2.317-.779" transform="translate(-10.115 -95.216)" fill="#7d6eb2"/>
        <rect id="Rectángulo_402338" data-name="Rectángulo 402338" width="21.171" height="1.061" transform="translate(21.856 168.248) rotate(-25.816)" fill="#263238"/>
        <rect id="Rectángulo_402339" data-name="Rectángulo 402339" width="13.555" height="1.061" transform="translate(22.913 170.434) rotate(-25.816)" fill="#263238"/>
        <rect id="Rectángulo_402340" data-name="Rectángulo 402340" width="17.873" height="1.061" transform="translate(23.971 172.621) rotate(-25.816)" fill="#263238"/>
        <rect id="Rectángulo_402341" data-name="Rectángulo 402341" width="21.171" height="1.061" transform="translate(25.029 174.808) rotate(-25.816)" fill="#263238"/>
        <rect id="Rectángulo_402342" data-name="Rectángulo 402342" width="15.253" height="1.061" transform="translate(26.087 176.994) rotate(-25.815)" fill="#263238"/>
        <rect id="Rectángulo_402343" data-name="Rectángulo 402343" width="19.134" height="1.062" transform="translate(27.145 179.181) rotate(-25.817)" fill="#263238"/>
      </g>
    </g>
  </g>
</svg>
