<svg xmlns="http://www.w3.org/2000/svg" xmlns:xlink="http://www.w3.org/1999/xlink" width="400" height="233.667" viewBox="0 0 400 233.667">
  <defs>
    <clipPath id="clip-path">
      <rect id="Rectángulo_402221" data-name="Rectángulo 402221" width="3.524" height="7.776" fill="none"/>
    </clipPath>
    <clipPath id="clip-path-2">
      <rect id="Rectángulo_402225" data-name="Rectángulo 402225" width="3.836" height="7.62" fill="none"/>
    </clipPath>
  </defs>
  <g id="Grupo_1101510" data-name="Grupo 1101510" transform="translate(5305 -1441.333)">
    <path id="Rectángulo_402232" data-name="Rectángulo 402232" d="M20,0H380a20,20,0,0,1,20,20V126a0,0,0,0,1,0,0H0a0,0,0,0,1,0,0V20A20,20,0,0,1,20,0Z" transform="translate(-5305 1549)" fill="#aee6e6"/>
    <g id="Grupo_1101409" data-name="Grupo 1101409" transform="translate(-5255.255 1441.333)">
      <g id="Grupo_1101410" data-name="Grupo 1101410">
        <g id="Grupo_1101407" data-name="Grupo 1101407">
          <g id="Grupo_1101411" data-name="Grupo 1101411">
            <path id="Trazado_876961" data-name="Trazado 876961" d="M279.857,142.186A123.564,123.564,0,1,0,78.868,238.48H233.718a123.324,123.324,0,0,0,46.139-96.294" transform="translate(-11.066 -6.296)" fill="#7d6eb2"/>
            <path id="Trazado_876962" data-name="Trazado 876962" d="M218.885,29.419a.756.756,0,0,1-.756-.756V.756a.756.756,0,1,1,1.512,0V28.664a.756.756,0,0,1-.756.756" transform="translate(-73.753)" fill="#fff"/>
            <path id="Trazado_876963" data-name="Trazado 876963" d="M354.166,96.28a.756.756,0,0,1-.612-1.2L367.82,75.3a.755.755,0,1,1,1.225.884L354.78,95.966a.756.756,0,0,1-.614.314" transform="translate(-119.493 -25.354)" fill="#fff"/>
            <path id="Trazado_876964" data-name="Trazado 876964" d="M382.961,89.149a.756.756,0,0,1-.612-1.2l9.123-12.65a.756.756,0,0,1,1.226.884l-9.123,12.65a.756.756,0,0,1-.614.314" transform="translate(-129.229 -25.354)" fill="#fff"/>
            <path id="Trazado_876965" data-name="Trazado 876965" d="M70.046,96.28a.756.756,0,0,1-.614-.314L55.165,76.185a.756.756,0,1,1,1.226-.884L70.658,95.082a.756.756,0,0,1-.612,1.2" transform="translate(-18.604 -25.354)" fill="#fff"/>
            <path id="Trazado_876966" data-name="Trazado 876966" d="M43.878,89.149a.756.756,0,0,1-.614-.314l-9.123-12.65a.756.756,0,0,1,1.226-.884l9.123,12.65a.756.756,0,0,1-.612,1.2" transform="translate(-11.495 -25.354)" fill="#fff"/>
            <path id="Trazado_876967" data-name="Trazado 876967" d="M194.063,330.96l4.335,11.148a3.1,3.1,0,0,0,2.89,1.977h18.7a3.1,3.1,0,0,0,2.828-1.828l5.087-11.3Z" transform="translate(-65.616 -111.902)" fill="#402f22"/>
            <path id="Trazado_876968" data-name="Trazado 876968" d="M203.08,119.654a11.2,11.2,0,0,0-4.553.966v-.006s-3.34,1.867-5.2-.463V96.5a50.654,50.654,0,0,0-42.2,78.692h0l.033.048c.1.152.2.3.307.455,2.631,3.93,20.177,30.84,21.425,51.392a4.238,4.238,0,0,0,4.233,3.986h16.2V198.586c-1.856-2.33-5.2-.463-5.2-.463v0a11.274,11.274,0,1,1,0-20.618v0s3.34,1.867,5.2-.463V141.706c1.856-2.331,5.2-.464,5.2-.464v0a11.272,11.272,0,1,0,4.553-21.583" transform="translate(-48.237 -32.626)" fill="#ffd947"/>
            <path id="Trazado_876969" data-name="Trazado 876969" d="M193.812,231.55H176.627a5.231,5.231,0,0,1-5.213-4.909c-1.242-20.464-19.215-47.85-21.26-50.906l-1.328-1.983h.04A51.638,51.638,0,0,1,192.83,95.012h.982v24.259c1.369,1.283,3.711,0,3.735-.014l1.461-.817v.265a12.144,12.144,0,0,1,3.572-.534,12.256,12.256,0,0,1,0,24.512,12.138,12.138,0,0,1-3.572-.534v.261l-1.461-.812c-.1-.054-2.381-1.286-3.735-.015v35.291l-.214.269a4.539,4.539,0,0,1-4.982,1.3v.063l-.513-.225a6.533,6.533,0,0,1-.856-.377l-.01,0a10.292,10.292,0,1,0,0,18.822l.011-.005a6.524,6.524,0,0,1,.817-.361l.551-.244v.068a4.534,4.534,0,0,1,4.982,1.3l.214.269Zm-41.351-55.882a189.591,189.591,0,0,1,10.617,18.548c6.3,12.654,9.761,23.523,10.294,32.307a3.265,3.265,0,0,0,3.254,3.063h15.222V198.463c-1.368-1.285-3.71,0-3.735.014l-1.461.817v-.266a12.131,12.131,0,0,1-3.572.534,12.256,12.256,0,0,1,0-24.512,12.116,12.116,0,0,1,3.572.535v-.261l1.461.812c.1.055,2.383,1.287,3.735.015v-35.29l.214-.268a4.535,4.535,0,0,1,4.982-1.3v-.063l.514.226a6.483,6.483,0,0,1,.854.375l.011,0a10.2,10.2,0,0,0,4.155.881,10.292,10.292,0,1,0-4.156-19.7l-.011,0a6.547,6.547,0,0,1-.821.363l-.547.242v-.067a4.537,4.537,0,0,1-4.982-1.3l-.214-.268V96.984a49.673,49.673,0,0,0-40.4,77.157l.332.494c.142.213.321.481.532.8l.153.229Z" transform="translate(-47.736 -32.125)" fill="#f8e8d6"/>
            <path id="Trazado_876970" data-name="Trazado 876970" d="M259.106,145.2a50.874,50.874,0,0,0-48.661-48.683c-.66-.025-1.314-.024-1.969-.024v23.656c1.856,2.331,5.2.464,5.2.464v0a11.274,11.274,0,1,1,0,20.617v.005s-3.339-1.867-5.2.463v35.21c-2.009,1.456-5.2.579-5.2.579v.005a11.274,11.274,0,1,0,0,20.617v0s3.187-1.08,5.2.331V231.07h15.388a4.238,4.238,0,0,0,4.233-3.987c.981-16.143,12.017-36.208,17.985-45.983a50.5,50.5,0,0,0,13.025-35.9" transform="translate(-63.38 -32.626)" fill="#ffd947"/>
            <path id="Trazado_876971" data-name="Trazado 876971" d="M223.362,231.549H206.992v-33.03a6.226,6.226,0,0,0-3.9.032l-.007,0a12.257,12.257,0,1,1-.012-22.5,6.549,6.549,0,0,0,3.92-.193v-35l.214-.268a4.536,4.536,0,0,1,4.982-1.3v-.063l.513.226a6.543,6.543,0,0,1,.855.375l.011,0a10.292,10.292,0,1,0,0-18.822l-.011,0a6.536,6.536,0,0,1-.823.363l-.545.242v-.067a4.535,4.535,0,0,1-4.982-1.3l-.214-.267V95.011h1.069c.633.005,1.276,0,1.919.024a51.645,51.645,0,0,1,36.388,86.152c-6.258,10.263-16.84,29.739-17.794,45.453a5.231,5.231,0,0,1-5.213,4.909m-14.406-1.964h14.406a3.265,3.265,0,0,0,3.253-3.064c.983-16.178,11.779-36.037,18.126-46.435l.109-.147A49.682,49.682,0,0,0,209.906,97c-.318-.013-.634-.019-.95-.021V119.27c1.369,1.285,3.711,0,3.735-.014l1.461-.817v.265a12.14,12.14,0,0,1,3.572-.534,12.256,12.256,0,0,1,0,24.512,12.137,12.137,0,0,1-3.572-.534v.261l-1.461-.812c-.1-.054-2.381-1.286-3.735-.015v35.332l-.406.295a6.939,6.939,0,0,1-4.79.957v.336l-1.379-.606a10.292,10.292,0,1,0,0,18.821l1.379-.61v.273a6.559,6.559,0,0,1,4.779.768l.417.293Z" transform="translate(-62.879 -32.125)" fill="#f8e8d6"/>
            <path id="Trazado_876972" data-name="Trazado 876972" d="M225.424,306.067H187.89a4.355,4.355,0,1,1,0-8.71h37.534a4.355,4.355,0,0,1,0,8.71" transform="translate(-62.056 -100.541)" fill="#e5915b"/>
            <path id="Trazado_876973" data-name="Trazado 876973" d="M225.424,332.117H187.89a4.355,4.355,0,1,1,0-8.709h37.534a4.355,4.355,0,0,1,0,8.709" transform="translate(-62.056 -109.349)" fill="#e5915b"/>
            <path id="Trazado_876974" data-name="Trazado 876974" d="M227.634,319.226H182.7a4.3,4.3,0,0,1-4.3-4.3v-.118a4.3,4.3,0,0,1,4.3-4.3h44.93a4.3,4.3,0,0,1,4.3,4.3v.118a4.3,4.3,0,0,1-4.3,4.3" transform="translate(-60.322 -104.99)" fill="#e5915b"/>
            <rect id="Rectángulo_402218" data-name="Rectángulo 402218" width="39.38" height="1.289" transform="translate(125.053 204.882)" fill="#402f22"/>
            <rect id="Rectángulo_402219" data-name="Rectángulo 402219" width="40.669" height="1.289" transform="translate(124.409 213.591)" fill="#402f22"/>
            <rect id="Rectángulo_402220" data-name="Rectángulo 402220" width="291.267" height="0.967" transform="translate(0 231.7)" fill="#7d6eb2"/>
            <path id="Trazado_876975" data-name="Trazado 876975" d="M111.647,189.49l6.23,5.73,14.8-20.844,2.434,1.655s-8.624,21.176-14.555,28.537a3.144,3.144,0,0,1-4.114.7l-11.318-7.155Z" transform="translate(-35.542 -58.959)" fill="#d58858"/>
            <path id="Trazado_876976" data-name="Trazado 876976" d="M143.492,167.488l-.862-5.923a2.245,2.245,0,0,1,.181-1.258l3.437-7.494a.784.784,0,0,1,.519-.437c.473-.12,1.194-.132.985,1.012a52.3,52.3,0,0,1-1.626,5.719l-.2,1.223s.271-1.466,1.558-1.223.289,3.384.289,3.384,1.386,5.631-1.383,7.477-2.9-2.481-2.9-2.481" transform="translate(-48.217 -51.503)" fill="#d58858"/>
            <path id="Trazado_876977" data-name="Trazado 876977" d="M89.976,340.026a8.175,8.175,0,0,0-.685,4.193,2.752,2.752,0,0,0,2.73,2.287h16.121a.958.958,0,0,0,.507-1.771l-7.553-4.709Z" transform="translate(-30.168 -114.968)" fill="#402f22"/>
            <path id="Trazado_876978" data-name="Trazado 876978" d="M90.36,332.082l3.489-15.551,10.983,1.2-3.353,14.35Z" transform="translate(-30.552 -107.024)" fill="#e9a677"/>
            <path id="Trazado_876979" data-name="Trazado 876979" d="M35.074,340.026a8.175,8.175,0,0,0-.685,4.193,2.752,2.752,0,0,0,2.73,2.287H53.24a.958.958,0,0,0,.507-1.771l-7.553-4.709Z" transform="translate(-11.605 -114.968)" fill="#402f22"/>
            <path id="Trazado_876980" data-name="Trazado 876980" d="M35.458,332.082l3.489-15.551,10.983,1.2-3.353,14.35Z" transform="translate(-11.989 -107.024)" fill="#e9a677"/>
            <path id="Trazado_876981" data-name="Trazado 876981" d="M74.881,218.586l-8.828-10.223-15.721-4.04,2.648,18.825,13.074,3.543,4.4,1.1Z" transform="translate(-17.018 -69.085)" fill="#85c8fc"/>
            <path id="Trazado_876982" data-name="Trazado 876982" d="M42.828,204.324s-6.437,4.7-7.894,18.052,2.834,33.734,2.834,33.734l-9.63,34.525,20.871-.064,6.719-30.357a46.138,46.138,0,0,0,1.035-12.231l-1.493-30.461Z" transform="translate(-9.514 -69.085)" fill="#85c8fc"/>
            <path id="Trazado_876983" data-name="Trazado 876983" d="M80.214,179.013c.487.463,5.045-2.029,11.175,4.045l4.385,5.3-7.78,10.278-5.473-3.27L71.2,205.172s-14.172,3.27-20.869-10.123l11.4-14.514A9.524,9.524,0,0,1,71.97,177.3Z" transform="translate(-17.018 -59.811)" fill="#f5db68"/>
            <path id="Trazado_876984" data-name="Trazado 876984" d="M78.667,178.084s-5.236-5.172-10.458-3.661-11.281,7.367-12.97,17.35Z" transform="translate(-18.677 -58.881)" fill="#f5db68"/>
            <path id="Trazado_876985" data-name="Trazado 876985" d="M76.469,219.617l28.722,32.306s5.247,4.8,1.8,15.291S98.6,295.805,98.6,295.805l-19.338.346,8.99-34.937s-16.785-18.136-22.332-29.679Z" transform="translate(-22.287 -74.256)" fill="#85c8fc"/>
            <path id="Trazado_876986" data-name="Trazado 876986" d="M86.879,191.387l11.924,4.06,26.7-12.757,1.365,2.771-26.489,19.581a3.143,3.143,0,0,1-4.167.22L79.4,199.2Z" transform="translate(-26.846 -61.77)" fill="#e9a677"/>
            <path id="Trazado_876987" data-name="Trazado 876987" d="M147.118,175.165l-.171-5.983a2.236,2.236,0,0,1,.325-1.228l4.279-7.047a.786.786,0,0,1,.566-.374c.483-.064,1.2.007.862,1.119a52.391,52.391,0,0,1-2.276,5.493l-.344,1.192s.439-1.425,1.69-1.035-.1,3.4-.1,3.4.726,5.753-2.237,7.268-2.589-2.8-2.589-2.8" transform="translate(-49.684 -54.273)" fill="#e9a677"/>
            <path id="Trazado_876988" data-name="Trazado 876988" d="M69.947,197.584l4.527,3.338L85.74,188.815l-7.53-3.936a15.785,15.785,0,0,0-4.068-3.721,4.7,4.7,0,0,0-4.807,0c-4.92,2.9-5,6.923-3.989,10.062a13.2,13.2,0,0,0,4.6,6.366" transform="translate(-21.921 -61.029)" fill="#f5db68"/>
            <path id="Trazado_876989" data-name="Trazado 876989" d="M94.978,162.753l-.6.766a24.465,24.465,0,0,1-2.928-5.827l-8.431,13.117s.516,5.176,9.768,3.586l2.9-6.947Z" transform="translate(-28.071 -53.318)" fill="#e9a677"/>
            <path id="Trazado_876990" data-name="Trazado 876990" d="M99.189,158.538l-2.425-6.77-1.1,1.709a3.451,3.451,0,0,1-.119-1.749c.75-2.679,6.134-10.5,14.007-3.951,0,0,1.77.721,1.287,4.359a83.843,83.843,0,0,1-2.577,10.223,1.459,1.459,0,0,1-1.192,1.017l-.419.06s-5.6-2.448-7.464-4.9" transform="translate(-32.283 -49.103)" fill="#e9a677"/>
            <g id="Grupo_1101402" data-name="Grupo 1101402" transform="translate(63.383 102.664)" opacity="0.63">
              <g id="Grupo_1101401" data-name="Grupo 1101401">
                <g id="Grupo_1101400" data-name="Grupo 1101400" clip-path="url(#clip-path)">
                  <path id="Trazado_876991" data-name="Trazado 876991" d="M99.285,161.88a9.447,9.447,0,0,0-.443,1.006,25.283,25.283,0,0,1-3.08-6.067l1.1-1.709Z" transform="translate(-95.761 -155.109)" fill="#f5db68"/>
                </g>
              </g>
            </g>
            <path id="Trazado_876992" data-name="Trazado 876992" d="M99.285,161.88a9.447,9.447,0,0,0-.443,1.006,25.283,25.283,0,0,1-3.08-6.067l1.1-1.709Z" transform="translate(-32.378 -52.445)" fill="#e9a677"/>
            <path id="Trazado_876993" data-name="Trazado 876993" d="M100.368,165.338a9.447,9.447,0,0,0-.443,1.006c-.614,1.583-.875,3.194-.96,8.762l2.64-6.317,5.351,1.4a2.239,2.239,0,0,0,.877.05s-5.6-2.448-7.464-4.9" transform="translate(-33.461 -55.903)" fill="#d58858"/>
            <path id="Trazado_876994" data-name="Trazado 876994" d="M116.836,160.529l1.093,1.756a.575.575,0,0,1-.582.87l-1.235-.205Z" transform="translate(-39.259 -54.277)" fill="#e9a677"/>
            <path id="Trazado_876995" data-name="Trazado 876995" d="M109.152,147.948a10.9,10.9,0,0,1-6.637,6.411l-1.822,1.528s-1.69,2.319-8.433.76l2.608-10.355a2.95,2.95,0,0,1,2.554-2.22c3.31-.338,9.634-.374,11.731,3.875" transform="translate(-31.194 -48.667)" fill="#402f22"/>
            <path id="Trazado_876996" data-name="Trazado 876996" d="M114.994,159.533a.483.483,0,1,0,.555-.4.483.483,0,0,0-.555.4" transform="translate(-38.879 -53.804)" fill="#402f22"/>
            <path id="Trazado_876997" data-name="Trazado 876997" d="M115.261,157.123a.27.27,0,0,0,.144-.015,1.944,1.944,0,0,1,1.053.006.273.273,0,0,0,.15-.526,2.525,2.525,0,0,0-1.4.011.273.273,0,0,0,.055.524" transform="translate(-38.894 -52.912)" fill="#402f22"/>
            <path id="Trazado_876998" data-name="Trazado 876998" d="M102.965,157.311a2.323,2.323,0,1,0,2.672-1.911,2.323,2.323,0,0,0-2.672,1.911" transform="translate(-34.803 -52.532)" fill="#e9a677"/>
            <path id="Trazado_876999" data-name="Trazado 876999" d="M97.411,137.669a6.192,6.192,0,1,1-5.093-7.123,6.193,6.193,0,0,1,5.093,7.123" transform="translate(-28.777 -44.111)" fill="#402f22"/>
            <path id="Trazado_877000" data-name="Trazado 877000" d="M87.494,127.775a3.288,3.288,0,1,1-2.7-3.783,3.288,3.288,0,0,1,2.7,3.783" transform="translate(-27.374 -41.908)" fill="#402f22"/>
            <path id="Trazado_877001" data-name="Trazado 877001" d="M73.71,209.189l-12.259-6.021.3-.6,11.8,5.8,1.626-1.82.5.447Z" transform="translate(-20.777 -68.49)" fill="#ebb166"/>
            <rect id="Rectángulo_402222" data-name="Rectángulo 402222" width="3.857" height="0.671" transform="matrix(0.734, -0.679, 0.679, 0.734, 67.338, 131.955)" fill="#ebb166"/>
            <path id="Trazado_877002" data-name="Trazado 877002" d="M51.038,325.331c-7.927-.038-19.91-.07-20.432-.008L30.568,325l-.346-.1c.1-.342.1-.342,20.819-.246Z" transform="translate(-10.219 -109.753)" fill="#739cfb"/>
            <rect id="Rectángulo_402223" data-name="Rectángulo 402223" width="0.672" height="19.206" transform="translate(58.613 215.577) rotate(-88.013)" fill="#739cfb"/>
            <rect id="Rectángulo_402224" data-name="Rectángulo 402224" width="8.779" height="0.623" transform="translate(46.156 162.057) rotate(-45.86)" fill="#739cfb"/>
            <path id="Trazado_877003" data-name="Trazado 877003" d="M312.95,189.49l-6.23,5.73-14.8-20.844-2.434,1.655s8.624,21.176,14.555,28.537a3.144,3.144,0,0,0,4.114.7l11.318-7.155Z" transform="translate(-97.881 -58.959)" fill="#d58858"/>
            <path id="Trazado_877004" data-name="Trazado 877004" d="M293.6,167.488l.862-5.923a2.245,2.245,0,0,0-.181-1.258l-3.436-7.494a.784.784,0,0,0-.519-.437c-.473-.12-1.195-.132-.985,1.012a52.287,52.287,0,0,0,1.626,5.719l.2,1.223s-.271-1.466-1.558-1.223-.289,3.384-.289,3.384-1.386,5.631,1.383,7.477,2.9-2.481,2.9-2.481" transform="translate(-97.698 -51.503)" fill="#d58858"/>
            <path id="Trazado_877005" data-name="Trazado 877005" d="M338.617,340.026a8.175,8.175,0,0,1,.685,4.193,2.751,2.751,0,0,1-2.73,2.287h-18.03a1.334,1.334,0,0,1-.706-2.466l9.662-4.014Z" transform="translate(-107.252 -114.968)" fill="#402f22"/>
            <path id="Trazado_877006" data-name="Trazado 877006" d="M342.162,332.082l-3.489-15.551-10.983,1.2,3.353,14.35Z" transform="translate(-110.797 -107.024)" fill="#e9a677"/>
            <path id="Trazado_877007" data-name="Trazado 877007" d="M393.733,340.026a8.175,8.175,0,0,1,.685,4.193,2.751,2.751,0,0,1-2.73,2.287h-17.7a1.243,1.243,0,0,1-.658-2.3l9.287-4.182Z" transform="translate(-126.029 -114.968)" fill="#402f22"/>
            <path id="Trazado_877008" data-name="Trazado 877008" d="M397.064,332.082l-3.489-15.551-10.983,1.2,3.353,14.35Z" transform="translate(-129.36 -107.024)" fill="#e9a677"/>
            <path id="Trazado_877009" data-name="Trazado 877009" d="M352.493,218.586l8.828-10.223,15.721-4.04L374.4,223.148l-13.074,3.543-4.4,1.1Z" transform="translate(-119.183 -69.085)" fill="#85c8fc"/>
            <path id="Trazado_877010" data-name="Trazado 877010" d="M382.123,204.324s8.263,4.631,7.894,18.052c-.326,11.855-5.28,33.734-5.28,33.734l9.018,33.881-15.4-.064-9.743-29.712a46.14,46.14,0,0,1-1.035-12.231l2.1-30.461Z" transform="translate(-124.264 -69.085)" fill="#85c8fc"/>
            <path id="Trazado_877011" data-name="Trazado 877011" d="M336.487,178.828c-.487.463-5.044-2.029-11.175,4.045l-4.385,5.3,7.78,10.278,5.474-3.27,11.32,9.811s14.172,3.27,20.869-10.123l-12.4-15.777a7.166,7.166,0,0,0-7.7-2.434l-1.539.463Z" transform="translate(-108.51 -59.626)" fill="#db262a"/>
            <path id="Trazado_877012" data-name="Trazado 877012" d="M349.28,178.084s5.236-5.172,10.458-3.661,11.281,7.367,12.97,17.35Z" transform="translate(-118.097 -58.881)" fill="#db262a"/>
            <path id="Trazado_877013" data-name="Trazado 877013" d="M341.863,219.617l-28.722,32.306s-5.247,4.8-1.8,15.291,10.163,27.947,10.163,27.947l15.736.345-10.213-34.293s19.843-18.136,25.389-29.679Z" transform="translate(-104.873 -74.256)" fill="#85c8fc"/>
            <path id="Trazado_877014" data-name="Trazado 877014" d="M328.787,191.387l-11.924,4.06-26.7-12.757-1.365,2.771,26.489,19.581a3.144,3.144,0,0,0,4.168.22l16.813-6.064Z" transform="translate(-97.647 -61.77)" fill="#e9a677"/>
            <path id="Trazado_877015" data-name="Trazado 877015" d="M289.67,175.165l.171-5.983a2.236,2.236,0,0,0-.325-1.228l-4.279-7.047a.786.786,0,0,0-.566-.374c-.483-.064-1.2.007-.862,1.119a52.38,52.38,0,0,0,2.276,5.493l.344,1.192s-.439-1.425-1.689-1.035.1,3.4.1,3.4-.725,5.753,2.237,7.268,2.589-2.8,2.589-2.8" transform="translate(-95.931 -54.273)" fill="#e9a677"/>
            <path id="Trazado_877016" data-name="Trazado 877016" d="M359.288,197.584l-4.527,3.338L343.5,188.815l7.53-3.936a15.787,15.787,0,0,1,4.068-3.721,4.7,4.7,0,0,1,4.807,0c4.92,2.9,5,6.923,3.989,10.062a13.2,13.2,0,0,1-4.6,6.366" transform="translate(-116.141 -61.029)" fill="#db262a"/>
            <path id="Trazado_877017" data-name="Trazado 877017" d="M338.432,163.821l.545.8a24.454,24.454,0,0,0,3.292-5.617l7.274,12.651s-.846,5.124-9.962,2.945l-2.164-6.15Z" transform="translate(-114.086 -53.762)" fill="#e9a677"/>
            <path id="Trazado_877018" data-name="Trazado 877018" d="M333.166,159.48l2.851-6.59.984,1.773a3.435,3.435,0,0,0,.231-1.734c-.575-2.718-6.246-10.569-14.511-4.547,0,0-1.28.234-.753,3.971.4,2.866,1.408,8.231,1.911,10.351a1.454,1.454,0,0,0,1.121,1.09l.414.086s5.741-2.079,7.752-4.4" transform="translate(-108.819 -49.42)" fill="#e9a677"/>
            <g id="Grupo_1101405" data-name="Grupo 1101405" transform="translate(224.347 103.47)" opacity="0.63">
              <g id="Grupo_1101404" data-name="Grupo 1101404">
                <g id="Grupo_1101403" data-name="Grupo 1101403" clip-path="url(#clip-path-2)">
                  <path id="Trazado_877019" data-name="Trazado 877019" d="M338.952,162.916a9.263,9.263,0,0,1,.377,1.031,25.239,25.239,0,0,0,3.458-5.847l-.984-1.773Z" transform="translate(-338.952 -156.326)" fill="#f5db68"/>
                </g>
              </g>
            </g>
            <path id="Trazado_877020" data-name="Trazado 877020" d="M338.952,162.916a9.263,9.263,0,0,1,.377,1.031,25.239,25.239,0,0,0,3.458-5.847l-.984-1.773Z" transform="translate(-114.605 -52.856)" fill="#e9a677"/>
            <path id="Trazado_877021" data-name="Trazado 877021" d="M334.992,166.281a9.317,9.317,0,0,1,.377,1.031c.51,1.616.667,3.237.395,8.792l-2.225-6.463-5.421,1.047a2.21,2.21,0,0,1-.877-.006s5.741-2.08,7.752-4.4" transform="translate(-110.645 -56.222)" fill="#d58858"/>
            <path id="Trazado_877022" data-name="Trazado 877022" d="M322.53,160.456l-1.2,1.68a.573.573,0,0,0,.524.9l1.244-.125Z" transform="translate(-108.61 -54.253)" fill="#e9a677"/>
            <path id="Trazado_877023" data-name="Trazado 877023" d="M324.959,159.589a.482.482,0,1,1-.528-.432.483.483,0,0,1,.528.432" transform="translate(-109.548 -53.813)" fill="#402f22"/>
            <path id="Trazado_877024" data-name="Trazado 877024" d="M324.439,157.156a.276.276,0,0,1-.142-.024,1.937,1.937,0,0,0-1.05-.062.273.273,0,0,1-.116-.533,2.527,2.527,0,0,1,1.4.1.272.272,0,0,1-.088.518" transform="translate(-109.183 -52.909)" fill="#402f22"/>
            <path id="Trazado_877025" data-name="Trazado 877025" d="M334.433,144.194c-3.573-.284-9.714-.652-11.26.847a4.829,4.829,0,0,0-1.5,3.8l1.531.3a11.32,11.32,0,0,0,5.745,5.572l1.718,1.64s1.535,2.418,8.353,1.3l-1.836-9.957-.193-1.153a2.816,2.816,0,0,0-2.555-2.348" transform="translate(-108.757 -48.667)" fill="#402f22"/>
            <path id="Trazado_877026" data-name="Trazado 877026" d="M335.151,158.084a2.319,2.319,0,1,1-2.54-2.074,2.319,2.319,0,0,1,2.54,2.074" transform="translate(-111.755 -52.745)" fill="#e9a677"/>
            <rect id="Rectángulo_402226" data-name="Rectángulo 402226" width="0.623" height="8.779" transform="matrix(0.717, -0.697, 0.697, 0.717, 238.205, 156.484)" fill="#739cfb"/>
            <rect id="Rectángulo_402227" data-name="Rectángulo 402227" width="0.672" height="16.244" transform="translate(213.958 214.395) rotate(-89.377)" fill="#739cfb"/>
            <rect id="Rectángulo_402228" data-name="Rectángulo 402228" width="0.672" height="15.986" transform="translate(251.632 214.395) rotate(-89.367)" fill="#739cfb"/>
            <path id="Trazado_877027" data-name="Trazado 877027" d="M360.652,208.951l-2.587-2.781.491-.458,2.183,2.345,9.4-6.826.395.543Z" transform="translate(-121.067 -68.039)" fill="#971c22"/>
            <rect id="Rectángulo_402229" data-name="Rectángulo 402229" width="0.671" height="3.706" transform="translate(220.429 129.922) rotate(-46.1)" fill="#971c22"/>
          </g>
        </g>
      </g>
    </g>
  </g>
</svg>
