<svg xmlns="http://www.w3.org/2000/svg" xmlns:xlink="http://www.w3.org/1999/xlink" width="400" height="300" viewBox="0 0 400 300">
  <defs>
    <clipPath id="clip-path">
      <rect id="Rectángulo_402336" data-name="Rectángulo 402336" width="300" height="300" transform="translate(0 0.011)" fill="none"/>
    </clipPath>
  </defs>
  <g id="Grupo_1101511" data-name="Grupo 1101511" transform="translate(5305 -1776)">
    <path id="Rectángulo_402233" data-name="Rectángulo 402233" d="M20,0H380a20,20,0,0,1,20,20V126a0,0,0,0,1,0,0H0a0,0,0,0,1,0,0V20A20,20,0,0,1,20,0Z" transform="translate(-5305 1928)" fill="#aee6e6"/>
    <g id="Grupo_1101471" data-name="Grupo 1101471" transform="translate(-5264 1775.989)">
      <g id="Grupo_1101470" data-name="Grupo 1101470">
        <g id="Grupo_1101469" data-name="Grupo 1101469" clip-path="url(#clip-path)">
          <path id="Trazado_878120" data-name="Trazado 878120" d="M268.573,153.645a55.711,55.711,0,0,0-52.212-55.6c-34.114-2.112-62.341,27.232-58.921,61.241a55.668,55.668,0,0,0,23.733,40.175,21.525,21.525,0,0,1,9.362,17.665,21.354,21.354,0,0,0,21.354,21.354h1.952A21.355,21.355,0,0,0,235.2,217.126v0a21.44,21.44,0,0,1,9.3-17.624,55.639,55.639,0,0,0,24.073-45.856" transform="translate(-62.86 -39.173)" fill="#e0fbfc"/>
          <path id="Trazado_878121" data-name="Trazado 878121" d="M321.037,207.534a19.912,19.912,0,0,0-14.468,7.945c-3.746,5.088-5.572,14.2-2.251,19.922,1.432.389,2.312-.188,3.455-1.133,7.78-6.438,12.542-16.661,13.264-26.733" transform="translate(-121.026 -83.009)" fill="#fff"/>
          <path id="Trazado_878122" data-name="Trazado 878122" d="M190.972,134.426a28.365,28.365,0,0,1-9.557,14.537c-3.672,3.116-18.807,10.29-18.221.878.818-10.07,15.221-32.768,25.794-33.727,4.238,4.455,3.178,12.65,1.985,18.311" transform="translate(-65.267 -46.443)" fill="#fff"/>
          <path id="Trazado_878123" data-name="Trazado 878123" d="M220.223,243.792c2.094-18.433,1.442-37.342-3.674-55.174a16.893,16.893,0,0,0-3.243-6.851c-1.709-1.892-4.524-3.013-6.879-2.035-2.627,1.091-3.738,4.522-2.826,7.217a9.612,9.612,0,0,0,6.076,5.574,28.436,28.436,0,0,0,8.415,1.2c8.506.35,17.068.7,25.5-.5,4.164-.59,8.541-1.7,11.4-4.782a7.566,7.566,0,0,0,2.189-4.96,4.8,4.8,0,0,0-2.72-4.467c-2.384-.991-5.092.547-6.834,2.453-3.96,4.333-5.212,10.419-6.309,16.186-3.007,15.8-6.015,32.087-2.785,47.843" transform="translate(-81.31 -71.478)" fill="none" stroke="#1f2631" stroke-linecap="round" stroke-linejoin="round" stroke-width="2"/>
          <path id="Trazado_878124" data-name="Trazado 878124" d="M207.218,278.658h51.34V296.3a25.67,25.67,0,1,1-51.34,0Z" transform="translate(-82.883 -111.457)" fill="#7d6eb2"/>
          <path id="Trazado_878125" data-name="Trazado 878125" d="M258.558,281.3l-51.34,5.126h51.34Z" transform="translate(-82.883 -112.512)" fill="#62529b"/>
          <path id="Trazado_878126" data-name="Trazado 878126" d="M258.558,296.3l-51.34,5.126h51.34Z" transform="translate(-82.883 -118.511)" fill="#62529b"/>
          <path id="Trazado_878127" data-name="Trazado 878127" d="M259.344,313.063l-49.76,5.126H258.19Z" transform="translate(-83.829 -125.218)" fill="#62529b"/>
          <path id="Trazado_878128" data-name="Trazado 878128" d="M109.808,256.44a13.789,13.789,0,0,1-8.763,1.27,10.883,10.883,0,0,1-6.618-4.516,11.671,11.671,0,0,1-1.79-7.97c.426-2.55,3.244-1.939,5.053-1.576,2.354.472,4.345,1.491,6.823,1.546a14.957,14.957,0,0,0,13.566-7.827,56.272,56.272,0,0,0,4.089-8.231c1.462.979,4.888,1.946,4.7,3.939a26.2,26.2,0,0,1-2.52,8.01,33.469,33.469,0,0,1-10.353,12.838,23.949,23.949,0,0,1-4.182,2.517" transform="translate(-37.002 -91.649)" fill="#62529b"/>
          <path id="Trazado_878129" data-name="Trazado 878129" d="M138.542,221.279a2.263,2.263,0,0,1,.134-.6,1.266,1.266,0,0,1,1.235-.871,1.4,1.4,0,0,1,1.033,1.026,16.929,16.929,0,0,1,.326,2.345c.031.17.09.365.252.426.205.077.406-.115.542-.286l3.6-4.527a2.591,2.591,0,0,1,.666-.656.881.881,0,0,1,.893-.046c.388.241.715,1.611.188,1.861a1.564,1.564,0,0,1,1.4-.023,1.028,1.028,0,0,1,.5,1.226,1.228,1.228,0,0,1,1.312,1.955.661.661,0,0,1,.75.528,1.655,1.655,0,0,1-.163,1,12.168,12.168,0,0,1-6.885,6.294c-.838.295-1.36-.1-2.1-.422a10.233,10.233,0,0,1-2.263-1.578c-.954-.766-1.065-2.273-1.15-3.395l-.245-3.242a5.96,5.96,0,0,1-.019-1.008" transform="translate(-55.408 -87.189)" fill="#a67c52"/>
          <path id="Trazado_878130" data-name="Trazado 878130" d="M147.249,224.886c.341.164.707-.155.952-.443l1.739-2.051.844-1a3,3,0,0,0,.609-.772c-.681-.077-1.654,1.078-2.066,1.5a13.611,13.611,0,0,0-1.137,1.328c-.224.3-.941,1.055-.941,1.433" transform="translate(-58.896 -88.243)" fill="#754c24"/>
          <path id="Trazado_878131" data-name="Trazado 878131" d="M149.787,226.79a.327.327,0,0,0,.395.129.941.941,0,0,0,.359-.269q.914-.957,1.754-1.978a9.165,9.165,0,0,0,1.372-1.807,7.251,7.251,0,0,0-1.471,1.424l-2.408,2.5" transform="translate(-59.911 -89.141)" fill="#754c24"/>
          <path id="Trazado_878132" data-name="Trazado 878132" d="M153.324,228.535a2.088,2.088,0,0,0-.677.908,1.71,1.71,0,0,0,1.084-.551,9.378,9.378,0,0,0,2.395-2.984c-.98.789-1.872,1.771-2.8,2.627" transform="translate(-61.055 -90.358)" fill="#754c24"/>
          <path id="Trazado_878133" data-name="Trazado 878133" d="M105.647,227.144a1.571,1.571,0,0,1,.113.536c.032.944-.824,1.665-1.651,2.122-3.168,1.748-6.951,1.886-10.569,1.85a3.752,3.752,0,0,1-1.639-.266c-1.8-.892-.878-5.047-.466-6.527a13.254,13.254,0,0,0,.615-2.6c.095-1.36-.8-2.9-1.45-4.063a42.57,42.57,0,0,1-2.6-4.546,9.288,9.288,0,0,1,.178-7.268,8.933,8.933,0,0,1,5.013-4.708,5.566,5.566,0,0,1,6.933,3.931,23.988,23.988,0,0,1,.34,5.293,7.68,7.68,0,0,0,1.552,4.971c.776.866,1.912,1.486,2.29,2.587.685,2-1.566,4.231-.681,6.15.453.983,1.647,1.6,2.022,2.542" transform="translate(-34.937 -80.569)" fill="#1f2631"/>
          <path id="Trazado_878134" data-name="Trazado 878134" d="M104.825,450.2a16.746,16.746,0,0,1,4.375.268,9.235,9.235,0,0,1,.412-1.042c.136-.341.119-.709.257-1.05a.965.965,0,0,1,.832-.646c.413,0,.73.347,1.023.638a8.131,8.131,0,0,0,4.919,2.106,24.191,24.191,0,0,0,5.437-.253,1.186,1.186,0,0,0,.753-.28,1.048,1.048,0,0,0,.094-1.012c-.921-3.019-4.014-2.777-6.5-3.425a6.524,6.524,0,0,1-3.662-2.183,11.608,11.608,0,0,0-1.708-2.41,3.3,3.3,0,0,0-3.121-.347c-1.385.5-2.9,1.48-2.965,3.024-.094,2.2-.1,4.41-.147,6.612" transform="translate(-41.928 -176.123)" fill="#ee6c4d"/>
          <path id="Trazado_878135" data-name="Trazado 878135" d="M91.6,318.719a188.178,188.178,0,0,1,7.141,36.733c1.021,10.982.694,22.138.76,33.205.011,1.767.063,3.639-1.487,4.593-.493.3-6.3,1.642-6.4,1.377-2.045-5.255-4.362-10.848-4.818-16.52-.448-5.58.85-11.176.045-16.744a28.177,28.177,0,0,0-2.071-7.035c-2.1-4.908-5.2-9.317-7.8-13.979s-4.765-9.776-4.729-15.115A173.863,173.863,0,0,0,91.6,318.719" transform="translate(-28.896 -127.48)" fill="#2e4460"/>
          <path id="Trazado_878136" data-name="Trazado 878136" d="M109.3,370.692a6.218,6.218,0,0,0,.064,8.029" transform="translate(-43.142 -148.268)" fill="none" stroke="#1f2631" stroke-linecap="round" stroke-linejoin="round" stroke-width="1"/>
          <path id="Trazado_878137" data-name="Trazado 878137" d="M29.8,449.017a26,26,0,0,1,4.355.245c.391-.6-.058-1.514.15-2.208a1.343,1.343,0,0,1,1.115-1.009,1.568,1.568,0,0,1,1.185.625c.771.874,1.172,2.164,2.245,2.619a3.769,3.769,0,0,0,1.454.2l6.95.05c.283,0-.2-2.14-.29-2.35a4.578,4.578,0,0,0-1.605-2,11.016,11.016,0,0,0-3.123-1.249,6.251,6.251,0,0,1-2.929-1.595,2.5,2.5,0,0,1-.323-3.093l-4.668-1.673a2.131,2.131,0,0,0-1.2-.181,2,2,0,0,0-1.089,1,15.4,15.4,0,0,0-2.153,5.846c-.05.332-.168,4.772-.071,4.77" transform="translate(-11.906 -174.939)" fill="#ee6c4d"/>
          <path id="Trazado_878138" data-name="Trazado 878138" d="M47.369,319.375c-4.96,6.872-4.086,15.634-3.091,23.564.742,5.911,1.99,11.63-.471,17.353-1.707,3.97-4.665,7.272-6.658,11.106-3.178,6.113-3.738,13.2-4.237,20.075,1.312.879,5.359,3.722,7.073,2.864a3,3,0,0,0,1.064-1.132,189.938,189.938,0,0,0,14.766-27.329q1.578-3.6,3.006-7.254a38.222,38.222,0,0,0,1.406-6.227,102.88,102.88,0,0,0,2.006-15.811c.291-4.856.385-9.721.562-14.582Z" transform="translate(-13.164 -127.743)" fill="#3d5a80"/>
          <path id="Trazado_878139" data-name="Trazado 878139" d="M70.213,375.3a6.3,6.3,0,0,0-2.054,6.442" transform="translate(-27.176 -150.111)" fill="none" stroke="#1f2631" stroke-linecap="round" stroke-linejoin="round" stroke-width="1"/>
          <path id="Trazado_878140" data-name="Trazado 878140" d="M82.961,281.535a39.88,39.88,0,0,1,.769-12.84c.506-2.23,1.205-4.422,1.511-6.688.719-5.322-1.523-9.259-6.676-10.9-5.451-1.737-13.139-2-16.955,2.967-3.748,4.873-4.257,11.841-3.966,17.778.322,6.6-1.681,13.5-4.463,19.469a11,11,0,0,0-1.046,2.826c-.886,5.466,11.232,6.361,14.807,6.364a42.828,42.828,0,0,0,15.724-3.28,5.364,5.364,0,0,0,2.1-1.255c1.4-1.567.659-4,0-6a39.613,39.613,0,0,1-1.8-8.442" transform="translate(-20.834 -99.983)" fill="#7d6eb2"/>
          <path id="Trazado_878141" data-name="Trazado 878141" d="M81.02,237.472l-.823,4.536a2.147,2.147,0,0,0-.037.881,1.931,1.931,0,0,0,1.007,1.1,8.313,8.313,0,0,0,6.677.724,2.271,2.271,0,0,0,1.592-1.265,2.6,2.6,0,0,0,.05-.985q-.317-4.059-.633-8.119c-.133-1.705-.414-3.492-1.966-4.5a3.049,3.049,0,0,0-3.612.128,4.613,4.613,0,0,0-1.1,1.957,31.633,31.633,0,0,0-1.03,4.829l-.129.71" transform="translate(-32.049 -91.722)" fill="#a67c52"/>
          <path id="Trazado_878142" data-name="Trazado 878142" d="M87.938,242.339a2.092,2.092,0,0,0,.8-.131,2.682,2.682,0,0,0,1.421-2.935c-.353-2.327-2.44-4.647-4.892-4.665-2.372-.016-2.549,2.417-1.742,4.192a7.015,7.015,0,0,0,2.13,2.565,4.121,4.121,0,0,0,2.285.974" transform="translate(-33.233 -93.838)" fill="#754c24"/>
          <path id="Trazado_878143" data-name="Trazado 878143" d="M83.837,250.507q.682.555,1.41,1.051a1.178,1.178,0,0,0,.519.238,1.042,1.042,0,0,0,.644-.2,4.745,4.745,0,0,0,1.724-2.1,9.432,9.432,0,0,0,.5-1.408c.05-.182.286-.887.2-1.059a15.972,15.972,0,0,1,1.578,4.083,5.39,5.39,0,0,1-.769,4.2l-2.066-1.677c-.47-.382-1.382-1.424-1.939-1.358a4.558,4.558,0,0,0-1.166.655l-1.163.651a11.363,11.363,0,0,0-2.132,1.194,1.1,1.1,0,0,1-.653.2c-.325-.042-.537-.355-.688-.647a8.317,8.317,0,0,1,.254-7.942c.093.548.561.914.9,1.325q.616.736,1.3,1.414.737.733,1.545,1.39" transform="translate(-31.578 -98.546)" fill="#3d5a80"/>
          <path id="Trazado_878144" data-name="Trazado 878144" d="M89.042,264.322a.793.793,0,0,0,1.087-.179,2.249,2.249,0,0,0,.385-1.154,33.128,33.128,0,0,0,.344-5.766c-.041-1.024-.864-1.967-1.992-1.455-.761.346-.333.867-.056,1.471.936,2.048.487,4.906.232,7.085" transform="translate(-35.373 -102.244)" fill="#3d5a80"/>
          <path id="Trazado_878145" data-name="Trazado 878145" d="M165.965,264.385l.187-6.413L159,256.481a20.968,20.968,0,0,0-2.663-6.993l4.359-5.872-4.4-4.667-6.117,4.008a20.968,20.968,0,0,0-6.825-3.067l-1.07-7.23-6.412-.188-1.49,7.156a20.967,20.967,0,0,0-6.993,2.663l-5.872-4.358-4.667,4.4,4.008,6.117a20.956,20.956,0,0,0-3.067,6.825l-7.231,1.07-.187,6.412,7.156,1.49a20.955,20.955,0,0,0,2.663,6.993l-4.359,5.872,4.4,4.667,6.117-4.008a20.971,20.971,0,0,0,6.825,3.067l1.07,7.231,6.412.187,1.49-7.156a20.968,20.968,0,0,0,6.993-2.663l5.872,4.359,4.667-4.4-4.008-6.117a20.98,20.98,0,0,0,3.067-6.825ZM150.2,264.06h-8.247v8.247h-7.39V264.06h-8.247v-7.39h8.247v-8.247h7.39v8.247H150.2Z" transform="translate(-44.144 -92.984)" fill="#293241"/>
          <path id="Trazado_878146" data-name="Trazado 878146" d="M120.665,283.546a2.665,2.665,0,0,1,.841-.7.908.908,0,0,1,1.022.14,1.039,1.039,0,0,1-.074,1.253c-.26.37-.637.65-.879,1.032a.971.971,0,0,0,.051,1.24c.4.328,1,.06,1.44-.212l2.343-1.445c.539-.332,1.256-.661,1.757-.274a1.07,1.07,0,0,1,.324,1.042,3.15,3.15,0,0,1-.475,1.037.971.971,0,1,1,1.358,1.035.937.937,0,1,1,.934,1.588c.425-.275,1.007.239.977.744a1.8,1.8,0,0,1-.835,1.21,10.18,10.18,0,0,1-8.807,1.331,5.577,5.577,0,0,1-3.159-1.924c-1.912-2.707,1.591-5.348,3.18-7.1" transform="translate(-46.769 -113.095)" fill="#a67c52"/>
          <path id="Trazado_878147" data-name="Trazado 878147" d="M129.38,289.645a4.775,4.775,0,0,0-1.15.488c-.182.126-.356.344-.275.55a.387.387,0,0,0,.338.218,1.057,1.057,0,0,0,.415-.078,6.773,6.773,0,0,0,1.9-.941,3.833,3.833,0,0,0,1.3-1.64,8.7,8.7,0,0,1-2.531,1.4" transform="translate(-51.171 -115.29)" fill="#754c24"/>
          <path id="Trazado_878148" data-name="Trazado 878148" d="M130.987,292.633c-.188.046-.418.127-.437.319a.31.31,0,0,0,.253.3.836.836,0,0,0,.422-.044,5.311,5.311,0,0,0,1.8-.878c.41-.322,1.085-.974,1.1-1.533-.171.077-.3.277-.441.4a5.886,5.886,0,0,1-.808.617,6.275,6.275,0,0,1-1.886.814" transform="translate(-52.217 -116.313)" fill="#754c24"/>
          <path id="Trazado_878149" data-name="Trazado 878149" d="M132.7,295.187a1.352,1.352,0,0,0-.394.12.39.39,0,0,0-.217.328.38.38,0,0,0,.325.331.964.964,0,0,0,.49-.073,4.383,4.383,0,0,0,2.695-2.545,6.95,6.95,0,0,1-.995,1.007,5.164,5.164,0,0,1-1.9.83" transform="translate(-52.834 -117.333)" fill="#754c24"/>
          <path id="Trazado_878150" data-name="Trazado 878150" d="M94.671,276.688q-.071-.256-.148-.509a25.251,25.251,0,0,1-17.691-3.258,23.088,23.088,0,0,1-7.512-7.911,30.647,30.647,0,0,1-1.977-4.293c-.52-1.346-.772-2.784-1.424-4.1a1.506,1.506,0,0,0-2.67-.491,12.01,12.01,0,0,0-4.695,7.643,13.523,13.523,0,0,0,3.392,10.847,21.224,21.224,0,0,0,5.937,4.443,35.583,35.583,0,0,0,27.843,2.255c-.353-1.529-.634-3.107-1.055-4.623" transform="translate(-23.361 -102.212)" fill="#62529b"/>
          <path id="Trazado_878151" data-name="Trazado 878151" d="M79.86,289.452A4.6,4.6,0,0,1,83.6,291.6" transform="translate(-31.942 -115.774)" fill="none" stroke="#1f2631" stroke-linecap="round" stroke-linejoin="round" stroke-width="1"/>
          <path id="Trazado_878152" data-name="Trazado 878152" d="M77.211,215.481a15.881,15.881,0,0,0,.7,3.669c.292.95.344,1.93.66,2.88a10.044,10.044,0,0,0,3.442,4.74,13.985,13.985,0,0,0,7.384,2.659c1.307.106,2.714.085,3.659-.917a9.723,9.723,0,0,0,2.486-4.34,11.67,11.67,0,0,0,.231-5.085c-.223-1.242-.65-2.447-.764-3.708-.107-1.17.08-2.361-.1-3.525a6.232,6.232,0,0,0-3.408-4.361,10.3,10.3,0,0,0-6.073-1.083c-1.966.3-3.965.565-5.574,1.85a7.946,7.946,0,0,0-2.665,6.009q-.017.612.022,1.213" transform="translate(-30.872 -82.521)" fill="#a67c52"/>
          <path id="Trazado_878153" data-name="Trazado 878153" d="M100.49,228.141l.016.017a1.5,1.5,0,0,1,.465.871.9.9,0,0,1-1.089.935,1.984,1.984,0,0,1-1.387-1.309,4.582,4.582,0,0,1-.276-2.107c.035-.246.166-.544.414-.536.229.006.349.264.44.473a3.229,3.229,0,0,0,.685,1c.233.231.5.425.731.658" transform="translate(-39.273 -90.4)" fill="#804d1b"/>
          <path id="Trazado_878154" data-name="Trazado 878154" d="M93.1,224.873a.744.744,0,0,0,.67.475.672.672,0,0,0,.572-.608,1.221,1.221,0,0,0-.275-.841c-.667-.9-1.283.281-.967.974" transform="translate(-37.202 -89.425)" fill="#1f2631"/>
          <path id="Trazado_878155" data-name="Trazado 878155" d="M90.048,222.608A2.074,2.074,0,0,1,93,221.343" transform="translate(-36.017 -88.439)" fill="none" stroke="#1f2631" stroke-linecap="round" stroke-linejoin="round" stroke-width="1"/>
          <path id="Trazado_878156" data-name="Trazado 878156" d="M102.923,223.695c.073.347.355.627.646.564a.745.745,0,0,0,.483-.6c.094-.434-.058-1.341-.535-1.29-.458.049-.692.862-.595,1.321" transform="translate(-41.158 -88.944)" fill="#1f2631"/>
          <path id="Trazado_878157" data-name="Trazado 878157" d="M100.849,220.736a1.5,1.5,0,0,1,2.733-.6" transform="translate(-40.337 -87.782)" fill="none" stroke="#1f2631" stroke-linecap="round" stroke-linejoin="round" stroke-width="1"/>
          <path id="Trazado_878158" data-name="Trazado 878158" d="M100.811,235.429a3.492,3.492,0,0,1-4.522,1" transform="translate(-38.513 -94.166)" fill="none" stroke="#1f2631" stroke-linecap="round" stroke-linejoin="round" stroke-width="1"/>
          <path id="Trazado_878159" data-name="Trazado 878159" d="M68.706,231.033c-1.263-.289-2.515-.63-3.756-1a6.1,6.1,0,0,1-2.181-1,2.186,2.186,0,0,1-.844-2.126c.143-.559.573-1,.76-1.549.35-1.024-.214-2.114-.332-3.19a3.94,3.94,0,0,1,1.378-3.4c.434-.359.94-.62,1.4-.946,1.571-1.112,1.133-2.708.9-4.368a10.681,10.681,0,0,1,2.278-8.126c2.853-3.49,8.3-4.914,12.611-3.944a5.474,5.474,0,0,1,2.714,1.306,2.61,2.61,0,0,1,.69,2.787,4.149,4.149,0,0,1-1.892,1.7,14.485,14.485,0,0,0-4.077,3.13,5.434,5.434,0,0,0-1.244,4.81c.582,2,1.54,3.269.329,5.317a13.422,13.422,0,0,0-1.55,2.742,6.886,6.886,0,0,0,.432,4.168c.32.963,1.007,2.247.454,3.22a2.636,2.636,0,0,1-1.766,1.18,6.728,6.728,0,0,1-2.177.012,38,38,0,0,1-4.126-.719" transform="translate(-24.749 -80.428)" fill="#1f2631"/>
          <line id="Línea_1758" data-name="Línea 1758" x1="25.777" y2="69.432" transform="translate(228.83 205.17)" fill="none" stroke="#293241" stroke-miterlimit="10" stroke-width="5"/>
          <line id="Línea_1759" data-name="Línea 1759" x1="25.777" y2="69.432" transform="translate(189.448 205.17)" fill="none" stroke="#293241" stroke-miterlimit="10" stroke-width="5"/>
          <line id="Línea_1760" data-name="Línea 1760" x1="39.382" transform="translate(210.834 216.996)" fill="none" stroke="#293241" stroke-miterlimit="10" stroke-width="5"/>
          <line id="Línea_1761" data-name="Línea 1761" x1="39.382" transform="translate(206.995 228.52)" fill="none" stroke="#293241" stroke-miterlimit="10" stroke-width="5"/>
          <line id="Línea_1762" data-name="Línea 1762" x1="39.382" transform="translate(203.155 240.044)" fill="none" stroke="#293241" stroke-miterlimit="10" stroke-width="5"/>
          <line id="Línea_1763" data-name="Línea 1763" x1="39.382" transform="translate(199.325 251.576)" fill="none" stroke="#293241" stroke-miterlimit="10" stroke-width="5"/>
          <line id="Línea_1764" data-name="Línea 1764" x1="39.382" transform="translate(193.807 263.092)" fill="none" stroke="#293241" stroke-miterlimit="10" stroke-width="5"/>
          <line id="Línea_1765" data-name="Línea 1765" x2="25.777" y2="69.432" transform="translate(216.016 205.17)" fill="none" stroke="#3d5a80" stroke-miterlimit="10" stroke-width="5"/>
          <line id="Línea_1766" data-name="Línea 1766" x2="25.777" y2="69.432" transform="translate(255.399 205.17)" fill="none" stroke="#3d5a80" stroke-miterlimit="10" stroke-width="5"/>
          <line id="Línea_1767" data-name="Línea 1767" x2="39.382" transform="translate(220.407 216.996)" fill="none" stroke="#3d5a80" stroke-miterlimit="10" stroke-width="5"/>
          <line id="Línea_1768" data-name="Línea 1768" x2="39.382" transform="translate(224.246 228.52)" fill="none" stroke="#3d5a80" stroke-miterlimit="10" stroke-width="5"/>
          <line id="Línea_1769" data-name="Línea 1769" x2="39.382" transform="translate(228.086 240.044)" fill="none" stroke="#3d5a80" stroke-miterlimit="10" stroke-width="5"/>
          <line id="Línea_1770" data-name="Línea 1770" x2="39.382" transform="translate(231.916 251.576)" fill="none" stroke="#3d5a80" stroke-miterlimit="10" stroke-width="5"/>
          <line id="Línea_1771" data-name="Línea 1771" x2="39.382" transform="translate(237.435 263.092)" fill="none" stroke="#3d5a80" stroke-miterlimit="10" stroke-width="5"/>
          <rect id="Rectángulo_402335" data-name="Rectángulo 402335" width="69.738" height="8.55" transform="translate(200.88 200.895)" fill="#7d6eb2"/>
          <path id="Trazado_878160" data-name="Trazado 878160" d="M355.011,114.337a27.2,27.2,0,0,1-32.76-19.8c.013.05-3.666,1.753-4.009,1.915-1.691.8-1.8.807-1.6,2.63a14.969,14.969,0,0,0,2.4,6.565,40.48,40.48,0,0,0,32.894,19.594" transform="translate(-126.621 -37.813)" fill="#1f2631"/>
          <path id="Trazado_878161" data-name="Trazado 878161" d="M366.792,77.368a6.385,6.385,0,0,0-4.042,4.108,5.908,5.908,0,0,0-5,8.515,3.943,3.943,0,0,0-1.14,7.1,2.317,2.317,0,0,0-2.02,2.156,3.082,3.082,0,0,0,1.481,2.7,4.675,4.675,0,0,0,3.108.584,3.78,3.78,0,0,0,6.017,2.95,4.117,4.117,0,0,0,7.221-2.676,5.941,5.941,0,0,0,2.539-9.018,6.289,6.289,0,0,0,.458-9.935,3.949,3.949,0,0,0,.059-3.35,5.32,5.32,0,0,0-3.326-2.54c-1.8-.685-3.433-1.22-5.353-.591" transform="translate(-141.825 -30.834)" fill="#1f2631"/>
          <path id="Trazado_878162" data-name="Trazado 878162" d="M355.629,327.658a16.742,16.742,0,0,0-4.375.268,9.237,9.237,0,0,0-.412-1.042c-.136-.341-.119-.709-.257-1.05a.965.965,0,0,0-.832-.646c-.413,0-.73.347-1.023.638a8.13,8.13,0,0,1-4.919,2.106,24.189,24.189,0,0,1-5.437-.253,1.187,1.187,0,0,1-.753-.28,1.047,1.047,0,0,1-.093-1.012c.92-3.019,4.013-2.777,6.5-3.425a6.524,6.524,0,0,0,3.662-2.183,11.607,11.607,0,0,1,1.708-2.41,3.3,3.3,0,0,1,3.121-.347c1.385.5,2.9,1.48,2.965,3.024.094,2.2.1,4.41.147,6.612" transform="translate(-134.97 -127.109)" fill="#293241"/>
          <path id="Trazado_878163" data-name="Trazado 878163" d="M362.678,196.176a188.178,188.178,0,0,0-7.141,36.733c-.578,6.214-.361,12.449-.823,18.65-.464,6.24.557,12.575.8,18.811a33.89,33.89,0,0,0,7.149,1.715c2.826-7.258,5.874-14.555,5.769-22.474-.068-5.065-.733-10.154-.072-15.176,1.58-12.021,10.471-22.026,12.59-33.963-.3,1.705-9.429-.709-10.443-1.089-2.643-.992-5.206-2.175-7.832-3.205" transform="translate(-141.83 -78.466)" fill="#2e4460"/>
          <path id="Trazado_878164" data-name="Trazado 878164" d="M364.9,252.039a8.492,8.492,0,0,1-.7,7.729" transform="translate(-145.673 -100.81)" fill="none" stroke="#1f2631" stroke-linecap="round" stroke-linejoin="round" stroke-width="1"/>
          <path id="Trazado_878165" data-name="Trazado 878165" d="M433.364,326.474a26,26,0,0,0-4.355.245c-.391-.6.058-1.514-.151-2.208a1.343,1.343,0,0,0-1.115-1.009,1.568,1.568,0,0,0-1.185.625c-.771.875-1.172,2.164-2.245,2.619a3.77,3.77,0,0,1-1.454.2l-6.95.05c-.283,0,.2-2.139.29-2.35a4.585,4.585,0,0,1,1.605-2,11.011,11.011,0,0,1,3.123-1.249,6.251,6.251,0,0,0,2.929-1.595,2.5,2.5,0,0,0,.323-3.092l4.668-1.673a2.12,2.12,0,0,1,1.2-.181,2,2,0,0,1,1.089.995,15.4,15.4,0,0,1,2.153,5.847c.05.332.168,4.771.071,4.77" transform="translate(-166.32 -125.925)" fill="#293241"/>
          <path id="Trazado_878166" data-name="Trazado 878166" d="M407.6,196.832c4.96,6.872,4.086,15.634,3.091,23.563-.742,5.911-1.99,11.63.472,17.353,1.707,3.97,4.665,7.272,6.658,11.106,3.178,6.113,3.738,13.2,4.237,20.075-1.312.879-5.359,3.722-7.073,2.864a3,3,0,0,1-1.064-1.132,189.949,189.949,0,0,1-14.766-27.329q-1.578-3.6-3.005-7.255a38.2,38.2,0,0,1-1.406-6.226,102.953,102.953,0,0,1-2.006-15.811c-.291-4.856-.385-9.721-.562-14.582Z" transform="translate(-156.86 -78.728)" fill="#3d5a80"/>
          <path id="Trazado_878167" data-name="Trazado 878167" d="M406.792,253.614a8.417,8.417,0,0,1,2.658,7.956" transform="translate(-162.708 -101.44)" fill="none" stroke="#1f2631" stroke-linecap="round" stroke-linejoin="round" stroke-width="1"/>
          <path id="Trazado_878168" data-name="Trazado 878168" d="M368.864,158.687a34.328,34.328,0,0,0-.211-6.246c-.373-3.354-1-6.686-1.118-10.059a21.44,21.44,0,0,1,2.926-11.676c1.736-3.1,7.356-4.155,10.6-4a11.416,11.416,0,0,1,9.444,5.525c2.062,3.763,1.381,8.376.577,12.59-1.169,6.131-1.087,12.389,1.285,18.237.194.479,2.808,5.486,2.9,5.407-4.243,3.838-10.609,6-16.3,6.219-5.418.209-11.129-2.071-14.047-6.64.235.368,2.443-3.387,2.551-3.744a24.968,24.968,0,0,0,1.4-5.617" transform="translate(-145.957 -50.675)" fill="#7d6eb2"/>
          <path id="Trazado_878169" data-name="Trazado 878169" d="M387.612,114.928q.411,2.268.823,4.536a2.157,2.157,0,0,1,.037.881,1.931,1.931,0,0,1-1.007,1.1,8.313,8.313,0,0,1-6.677.724A2.271,2.271,0,0,1,379.2,120.9a2.6,2.6,0,0,1-.049-.985q.316-4.059.632-8.119c.133-1.705.414-3.492,1.966-4.5a3.049,3.049,0,0,1,3.612.128,4.613,4.613,0,0,1,1.1,1.957,31.631,31.631,0,0,1,1.03,4.829q.065.356.129.71" transform="translate(-151.641 -42.708)" fill="#fabe78"/>
          <path id="Trazado_878170" data-name="Trazado 878170" d="M382.214,119.8a2.069,2.069,0,0,1-.8-.131A2.682,2.682,0,0,1,380,116.729c.353-2.327,2.44-4.647,4.893-4.664,2.371-.017,2.548,2.417,1.741,4.192a7.018,7.018,0,0,1-2.13,2.565,4.121,4.121,0,0,1-2.285.974" transform="translate(-151.976 -44.823)" fill="#bb8f5a"/>
          <path id="Trazado_878171" data-name="Trazado 878171" d="M364.673,181.075a1.922,1.922,0,0,1-.409.308c-1.1.616-2.446-.053-3.52-.71-2.247-1.374-4.776-3.242-4.69-5.874a7.526,7.526,0,0,1,1.02-3.056c3.044-6.045,6.51-11.967,6.51-18.974.32-6.329-2.841-12.963-.2-19.071,1.053-2.436,3.614-6.266,6.551-6.133.166,2.93-.18,5.973-.2,8.919-.044,7.069.629,14.11.2,21.172a81.5,81.5,0,0,1-4.314,21.655,4.487,4.487,0,0,1-.947,1.763" transform="translate(-142.413 -51.022)" fill="#293241"/>
          <path id="Trazado_878172" data-name="Trazado 878172" d="M361.846,190.336a5.358,5.358,0,0,0,4.79-4.023l1.809.33a5.952,5.952,0,0,1-7.367,5.038" transform="translate(-144.423 -74.521)" fill="#1f2631"/>
          <path id="Trazado_878173" data-name="Trazado 878173" d="M390.887,144.646c1.3,10,4.927,20,8.176,29.219.816,2.317,1.772,4.812,3.866,6.094,2.077,1.272,4.711,1.006,7.122.664,2.749-.391,5.958-1.178,6.978-3.76.946-2.392-.53-4.99-1.868-7.187a100.91,100.91,0,0,1-6.952-13.666c-2.087-5.011-4.45-9.66-4.712-15.173-.157-3.322-.214-6.819-1.9-9.684-2.116-3.586-5.68-4.564-9.564-4.609a18.627,18.627,0,0,0-2.367,8.965c-.026,3.061.832,6.113,1.225,9.137" transform="translate(-155.856 -50.615)" fill="#293241"/>
          <path id="Trazado_878174" data-name="Trazado 878174" d="M417.952,194l.832-2.145a8,8,0,0,1-5.341-6.083c-.381.094-1.636.181-1.868.491-.215.288.1.876.2,1.179a10.858,10.858,0,0,0,1.414,2.814,10.734,10.734,0,0,0,2.131,2.242,17.691,17.691,0,0,0,2.633,1.5" transform="translate(-164.591 -74.304)" fill="#1f2631"/>
          <path id="Trazado_878175" data-name="Trazado 878175" d="M385.043,92.905a15.964,15.964,0,0,1-.7,3.669c-.292.949-.345,1.93-.66,2.879a10.056,10.056,0,0,1-3.442,4.74,13.989,13.989,0,0,1-7.384,2.659c-1.308.106-2.714.085-3.66-.917a11.179,11.179,0,0,1-2.046-3.072,11.619,11.619,0,0,1-1.031-5.047c.045-1.8.788-3.383,1.025-5.141.169-1.255.007-2.543.235-3.789a6.279,6.279,0,0,1,3.195-4.307,13.958,13.958,0,0,1,11.822,1.1,7.943,7.943,0,0,1,2.664,6.009c.013.408,0,.812-.02,1.213" transform="translate(-146.439 -33.474)" fill="#fabe78"/>
          <path id="Trazado_878176" data-name="Trazado 878176" d="M372.538,105.6l-.016.017a1.5,1.5,0,0,0-.465.871.9.9,0,0,0,1.089.935,1.984,1.984,0,0,0,1.387-1.309A4.592,4.592,0,0,0,374.81,104c-.035-.245-.166-.543-.414-.536-.229.006-.349.264-.44.473a3.228,3.228,0,0,1-.685,1c-.233.231-.5.425-.731.658" transform="translate(-148.813 -41.385)" fill="#fa9257"/>
          <path id="Trazado_878177" data-name="Trazado 878177" d="M380.9,102.329a.745.745,0,0,1-.67.475.672.672,0,0,1-.572-.608,1.221,1.221,0,0,1,.275-.841c.667-.9,1.283.281.967.974" transform="translate(-151.853 -40.41)" fill="#1f2631"/>
          <path id="Trazado_878178" data-name="Trazado 878178" d="M382.868,100.065a2.073,2.073,0,0,0-2.955-1.264" transform="translate(-151.957 -39.424)" fill="none" stroke="#1f2631" stroke-linecap="round" stroke-linejoin="round" stroke-width="1"/>
          <path id="Trazado_878179" data-name="Trazado 878179" d="M371.179,101.152c-.073.347-.356.628-.647.564a.745.745,0,0,1-.483-.6c-.094-.434.058-1.341.535-1.29.458.049.692.862.6,1.321" transform="translate(-148.001 -39.929)" fill="#1f2631"/>
          <path id="Trazado_878180" data-name="Trazado 878180" d="M372.216,98.193a1.5,1.5,0,0,0-2.733-.6" transform="translate(-147.785 -38.768)" fill="none" stroke="#1f2631" stroke-linecap="round" stroke-linejoin="round" stroke-width="1"/>
          <path id="Trazado_878181" data-name="Trazado 878181" d="M371.061,112.886a3.491,3.491,0,0,0,4.522,1" transform="translate(-148.416 -45.152)" fill="none" stroke="#1f2631" stroke-linecap="round" stroke-linejoin="round" stroke-width="1"/>
          <path id="Trazado_878182" data-name="Trazado 878182" d="M378.8,85.2a4.493,4.493,0,0,0,4.454,1.883,3.726,3.726,0,0,0,3.477,5.662,11.659,11.659,0,0,0-2.182,2.479,3.933,3.933,0,0,0-.489,3.176,2.408,2.408,0,0,0,2.534,1.68,3.3,3.3,0,1,0,4.761,4.236,3.825,3.825,0,1,0,4.324-6.26c.28.153,1.3-2.547,1.369-2.808a8.407,8.407,0,0,0,.148-3.459c-.32-1.931-1.526-4.816-3.623-5.333a5.906,5.906,0,0,0-7.1-6.724,4.564,4.564,0,0,0-4.393-1.679c-3.042.584-5.051,4.417-3.307,7.108l.026.04" transform="translate(-151.243 -31.191)" fill="#1f2631"/>
          <path id="Trazado_878183" data-name="Trazado 878183" d="M318.059,109.969l.265-6.246-6.952-1.543a20.44,20.44,0,0,0-2.505-6.847l4.321-5.665-4.229-4.6-6.011,3.826a20.415,20.415,0,0,0-6.61-3.075l-.949-7.059-6.246-.265L287.6,85.444a20.443,20.443,0,0,0-6.847,2.505l-5.665-4.321-4.6,4.229,3.827,6.011a20.423,20.423,0,0,0-3.076,6.61l-7.058.95-.265,6.246,6.952,1.543a20.438,20.438,0,0,0,2.505,6.847l-4.321,5.665,4.229,4.6,6.011-3.826a20.429,20.429,0,0,0,6.61,3.075l.95,7.059,6.245.265,1.544-6.953a20.413,20.413,0,0,0,6.847-2.505l5.665,4.321,4.6-4.229-3.826-6.01a20.433,20.433,0,0,0,3.075-6.61Zm-26.942,8.393A12.663,12.663,0,1,1,303.781,105.7a12.663,12.663,0,0,1-12.663,12.663" transform="translate(-105.558 -31.395)" fill="#ffd947"/>
          <path id="Trazado_878184" data-name="Trazado 878184" d="M336.326,134.4a2.225,2.225,0,0,0-.413-.817.761.761,0,0,0-.832-.231.869.869,0,0,0-.359.988c.076.364.257.692.312,1.06.011.076.046,1-.106.935a7,7,0,0,1-3-2.368,2.83,2.83,0,0,0-.5-.595.757.757,0,0,0-.726-.157c-.359.143-.453.77-.313,1.087-.247-.337-.482-.728-.963-.608a.856.856,0,0,0-.4,1.336.785.785,0,1,0-1.245.911c-.235-.352-.853-.151-1,.248a1.5,1.5,0,0,0,.24,1.207,8.523,8.523,0,0,0,6.326,3.945,4.668,4.668,0,0,0,3.065-.43c2.368-1.446.552-4.638-.089-6.51" transform="translate(-130.685 -53.267)" fill="#fabe78"/>
          <path id="Trazado_878185" data-name="Trazado 878185" d="M335.01,137.39c.115.077.283.145.377.044a.209.209,0,0,0,0-.255.643.643,0,0,0-.216-.169,9.2,9.2,0,0,1-2.445-2.149,6.815,6.815,0,0,0,2.286,2.53" transform="translate(-133.082 -53.941)" fill="#bb8f5a"/>
          <path id="Trazado_878186" data-name="Trazado 878186" d="M331.033,140.765a.276.276,0,0,0,.242.07.19.19,0,0,0,.087-.235.548.548,0,0,0-.165-.217,34.7,34.7,0,0,0-2.774-2.587,6.149,6.149,0,0,0,.995,1.474,8.237,8.237,0,0,0,.757.8c.1.1.858.6.858.692" transform="translate(-131.362 -55.116)" fill="#bb8f5a"/>
          <path id="Trazado_878187" data-name="Trazado 878187" d="M332.114,138.481a.643.643,0,0,0,.25.178.231.231,0,0,0,.272-.089c.065-.125-.041-.267-.139-.367l-2.356-2.411c.321.424.539.944.857,1.383q.253.347.532.675c.09.106.584.512.584.631" transform="translate(-132.049 -54.314)" fill="#bb8f5a"/>
          <path id="Trazado_878188" data-name="Trazado 878188" d="M342.4,137.754a2.921,2.921,0,0,1,.34-.383c1.041.517,1.632,1.273,2.79,1.668a35.614,35.614,0,0,0,4.3,1.153,88.95,88.95,0,0,0,9.014,1.231,19.641,19.641,0,0,0,3.913.136,15.255,15.255,0,0,0,6.936-2.9c2.149-1.462,4.32-2.808,6.51-4.21,2.1-1.341,5.144-2.284,6.2.721a8.813,8.813,0,0,1-.974,7.339,16.033,16.033,0,0,1-7,5.767c-5.968,2.849-12.158,2.96-18.5,1.6a35.5,35.5,0,0,1-16.328-8.3c.931-1.264,1.814-2.6,2.8-3.826" transform="translate(-135.831 -53.267)" fill="#1f2631"/>
          <path id="Trazado_878189" data-name="Trazado 878189" d="M377.929,155.535a5.43,5.43,0,0,1,7.335-1.523" transform="translate(-151.163 -61.275)" fill="none" stroke="#293241" stroke-linecap="round" stroke-linejoin="round" stroke-width="1"/>
          <path id="Trazado_878190" data-name="Trazado 878190" d="M317.017,92.377a7.59,7.59,0,0,0,.269,1.469,2.009,2.009,0,0,0,.427.867.8.8,0,0,0,.887.217c.209-.1.237-.377.307-.58a2.656,2.656,0,0,0,.375.848,1.134,1.134,0,0,0,.766.482.772.772,0,0,0,.62-.217,1.04,1.04,0,0,0,.161-.758,2.292,2.292,0,0,0,.775.943.9.9,0,0,0,.824.035c.337-.169.327-.613.4-.944a1.256,1.256,0,0,0,.283.544.531.531,0,0,0,.565.143c.273-.118.326-.475.328-.772a9.267,9.267,0,0,0-.248-2.154.721.721,0,0,1,.453.275,2.305,2.305,0,0,1,.08-.454,3.03,3.03,0,0,0,0-.562,3.957,3.957,0,0,0-.215-.949,3.887,3.887,0,0,0-1.976-1.984,4.228,4.228,0,0,0-3.317-.605A3.58,3.58,0,0,0,317.1,90.8a5.66,5.66,0,0,0-.086,1.582" transform="translate(-126.791 -35.225)" fill="#fabe78"/>
          <path id="Trazado_878191" data-name="Trazado 878191" d="M325.159,93.631c0-.143.053-.335.2-.326.119.007.169.152.19.27q.155.874.31,1.748l.151.853a3.539,3.539,0,0,1,.127.779c-.16-.075-.265-.369-.338-.521a6.558,6.558,0,0,1-.637-2.8" transform="translate(-130.056 -37.32)" fill="#bb8f5a"/>
          <path id="Trazado_878192" data-name="Trazado 878192" d="M322.378,95.291a4.03,4.03,0,0,1-.028-1.735c.022-.094.066-.2.161-.219a.174.174,0,0,1,.172.115.519.519,0,0,1,.024.22,13.955,13.955,0,0,0,.049,1.661q.037.415.1.826a2.908,2.908,0,0,1,.11.707,1.255,1.255,0,0,1-.294-.575,7.906,7.906,0,0,1-.293-1" transform="translate(-128.9 -37.332)" fill="#bb8f5a"/>
          <path id="Trazado_878193" data-name="Trazado 878193" d="M319.482,93.333c.009-.1.038-.224.137-.248a.169.169,0,0,1,.179.105.5.5,0,0,1,.029.221,27.038,27.038,0,0,0,.057,3.024,10.488,10.488,0,0,1-.412-1.586,9.676,9.676,0,0,1,.009-1.516" transform="translate(-127.769 -37.231)" fill="#bb8f5a"/>
        </g>
      </g>
    </g>
  </g>
</svg>
