<svg xmlns="http://www.w3.org/2000/svg" xmlns:xlink="http://www.w3.org/1999/xlink" width="521.057" height="281.393" viewBox="0 0 521.057 281.393">
  <defs>
    <clipPath id="clip-path">
      <rect id="Rect치ngulo_402239" data-name="Rect치ngulo 402239" width="416.905" height="277.992" fill="none"/>
    </clipPath>
  </defs>
  <g id="Grupo_1101511" data-name="Grupo 1101511" transform="translate(-1100 10474.077)">
    <g id="Grupo_1101422" data-name="Grupo 1101422" transform="translate(-829 -439.585)">
      <path id="Rect치ngulo_35205" data-name="Rect치ngulo 35205" d="M54,0H468.057a53,53,0,0,1,53,53V222.679a0,0,0,0,1,0,0H0a0,0,0,0,1,0,0V54A54,54,0,0,1,54,0Z" transform="translate(1929 -9975.779)" fill="#aee6e6"/>
      <g id="Grupo_1101418" data-name="Grupo 1101418" transform="translate(1981 -10034.492)">
        <g id="Grupo_1101417" data-name="Grupo 1101417" clip-path="url(#clip-path)">
          <path id="Trazado_877264" data-name="Trazado 877264" d="M158.277,1296.811a5.464,5.464,0,0,0,.6-.283,22.375,22.375,0,0,0,4.618,4.816,5.482,5.482,0,1,0,9.958,4.374,22.388,22.388,0,0,0,6.672.143,5.482,5.482,0,1,0,10.134-3.943,22.359,22.359,0,0,0,4.817-4.613,5.479,5.479,0,1,0,4.374-9.95,22.348,22.348,0,0,0,.141-6.667,5.479,5.479,0,1,0-3.949-10.128,22.374,22.374,0,0,0-4.618-4.816,5.482,5.482,0,1,0-9.958-4.374,22.388,22.388,0,0,0-6.672-.143,5.482,5.482,0,1,0-10.134,3.943,22.36,22.36,0,0,0-4.817,4.613,5.477,5.477,0,1,0-5,9.723,5.553,5.553,0,0,0,.627.227,22.342,22.342,0,0,0-.141,6.667,5.478,5.478,0,1,0,3.345,10.411m15.29-22.749a10.176,10.176,0,1,1-5.79,13.172,10.186,10.186,0,0,1,5.79-13.172" transform="translate(-127.894 -1066.135)" fill="#3d3d3d"/>
          <path id="Trazado_877265" data-name="Trazado 877265" d="M3.921,1158.289a3.062,3.062,0,0,0,.355-.124,12.634,12.634,0,0,0,2.317,2.97,3.095,3.095,0,1,0,5.179,3.367,3.129,3.129,0,0,0,.164-.339,12.644,12.644,0,0,0,3.74.463,3.1,3.1,0,1,0,5.921-1.634,12.634,12.634,0,0,0,2.973-2.315,3.053,3.053,0,0,0,.314.207,3.095,3.095,0,1,0,2.716-5.546,12.623,12.623,0,0,0,.463-3.738,3.094,3.094,0,1,0-1.635-5.917,12.621,12.621,0,0,0-2.317-2.97,3.1,3.1,0,1,0-5.343-3.028,12.643,12.643,0,0,0-3.74-.463,3.1,3.1,0,1,0-6.045,1.279,3.13,3.13,0,0,0,.124.355,12.64,12.64,0,0,0-2.972,2.315,3.083,3.083,0,0,0-4.535.958,3.077,3.077,0,0,0,1.5,4.381,12.614,12.614,0,0,0-.463,3.738,3.093,3.093,0,1,0,1.28,6.041m9.9-11.9a5.746,5.746,0,1,1-4.012,7.068,5.75,5.75,0,0,1,4.012-7.068" transform="translate(0 -963.926)" fill="#3d3d3d"/>
          <path id="Trazado_877266" data-name="Trazado 877266" d="M533.918,1179.753a8.014,8.014,0,0,0,7.424,3.975l262.154-.012a8.888,8.888,0,0,0,8.876-8.948l-.013-3.279-279.975.013s-.656,5.377,1.534,8.251" transform="translate(-451.433 -993.53)" fill="#f4eae2"/>
          <path id="Trazado_877267" data-name="Trazado 877267" d="M540.059,1200.5a9.316,9.316,0,0,1-9.28-9.28.335.335,0,0,1,.333-.336.326.326,0,0,1,.336.333,8.645,8.645,0,0,0,8.611,8.613l262.154-.012a8.553,8.553,0,0,0,8.541-8.612.335.335,0,0,1,.333-.336h0a.335.335,0,0,1,.335.333,9.222,9.222,0,0,1-9.211,9.284Z" transform="translate(-450.149 -1009.968)" fill="#3d3d3d"/>
          <path id="Trazado_877268" data-name="Trazado 877268" d="M809.479,235.4,529.5,235.41l-.608-157.3a10.318,10.318,0,0,1,10.317-10.374l259.261-.012A10.413,10.413,0,0,1,808.87,78.1Z" transform="translate(-448.552 -57.438)" fill="#f4eae2"/>
          <path id="Trazado_877269" data-name="Trazado 877269" d="M527.635,233.876a.335.335,0,0,1-.335-.333l-.608-157.3a10.652,10.652,0,0,1,10.652-10.71L796.6,65.523a10.76,10.76,0,0,1,10.732,10.706l.608,157.3a.335.335,0,0,1-.335.336ZM796.6,66.192,537.344,66.2a9.983,9.983,0,0,0-9.982,10.038l.607,156.964,279.306-.013-.607-156.962A10.09,10.09,0,0,0,796.6,66.192" transform="translate(-446.684 -55.57)" fill="#3d3d3d"/>
          <path id="Trazado_877270" data-name="Trazado 877270" d="M592.424,279.413l-.57-147.43a1.032,1.032,0,0,1,1.032-1.038l258.777-.012a1.042,1.042,0,0,1,1.04,1.038l.57,147.43Z" transform="translate(-501.946 -111.043)" fill="#f4eae2"/>
          <path id="Trazado_877271" data-name="Trazado 877271" d="M1004,1430.707h-6.871a6.791,6.791,0,0,0,.053,13.582l127.783-.006a6.791,6.791,0,0,0-.052-13.581h-7.467Z" transform="translate(-839.927 -1213.366)" fill="#f4eae2"/>
          <path id="Trazado_877272" data-name="Trazado 877272" d="M995.311,1442.754a7.16,7.16,0,0,1-7.141-7.124,7.089,7.089,0,0,1,7.089-7.127h6.87a.335.335,0,1,1,0,.669h-6.87a6.419,6.419,0,0,0-6.419,6.455,6.489,6.489,0,0,0,6.472,6.457l127.783-.006a6.42,6.42,0,0,0,6.419-6.455,6.489,6.489,0,0,0-6.472-6.457h-7.467a.335.335,0,0,1,0-.669h7.467a7.16,7.16,0,0,1,7.141,7.124,7.089,7.089,0,0,1-7.089,7.127Z" transform="translate(-838.058 -1211.496)" fill="#3d3d3d"/>
          <path id="Trazado_877273" data-name="Trazado 877273" d="M1237.674,1252l.105,27.163-94.726,0-.105-27.163Z" transform="translate(-969.325 -1061.812)" fill="#f4eae2"/>
          <path id="Trazado_877274" data-name="Trazado 877274" d="M1141.184,1277.635a.335.335,0,0,1-.335-.333l-.105-27.163a.335.335,0,0,1,.335-.336l94.726,0a.335.335,0,0,1,.335.334l.1,27.163a.334.334,0,0,1-.335.336Zm.231-27.163.1,26.494,94.057,0-.1-26.494Z" transform="translate(-967.456 -1059.943)" fill="#3d3d3d"/>
          <path id="Trazado_877275" data-name="Trazado 877275" d="M2021.026,131.235h43.467v14.607Z" transform="translate(-1714.016 -111.3)" fill="#f4eae2"/>
          <path id="Trazado_877276" data-name="Trazado 877276" d="M2062.625,144.307a.335.335,0,0,1-.335-.335V129.7h-43.132a.335.335,0,0,1,0-.669h43.467a.335.335,0,0,1,.335.335v14.607a.335.335,0,0,1-.335.335" transform="translate(-1712.147 -109.43)" fill="#3d3d3d"/>
          <path id="Trazado_877277" data-name="Trazado 877277" d="M1120.381,131.235h0Z" transform="translate(-950.186 -111.299)" fill="#f4eae2"/>
          <path id="Trazado_877278" data-name="Trazado 877278" d="M1180.488,129.7h-61.976a.335.335,0,0,1,0-.669h61.976a.335.335,0,0,1,0,.669" transform="translate(-948.317 -109.431)" fill="#3d3d3d"/>
          <path id="Trazado_877279" data-name="Trazado 877279" d="M591.854,142.618V131.235h24.972Z" transform="translate(-501.946 -111.3)" fill="#f4eae2"/>
          <path id="Trazado_877280" data-name="Trazado 877280" d="M589.986,141.083a.335.335,0,0,1-.335-.335V129.367a.335.335,0,0,1,.335-.335h24.972a.335.335,0,1,1,0,.669H590.32v11.047a.335.335,0,0,1-.335.335" transform="translate(-500.078 -109.431)" fill="#3d3d3d"/>
          <path id="Trazado_877281" data-name="Trazado 877281" d="M1699.067,634.121a31.257,31.257,0,1,1-31.377-31.267,31.119,31.119,0,0,1,31.377,31.267" transform="translate(-1387.948 -511.275)" fill="#f4eae2"/>
          <path id="Trazado_877282" data-name="Trazado 877282" d="M1666.062,663.857a31.779,31.779,0,0,1-31.712-31.6,31.454,31.454,0,0,1,31.471-31.606,31.778,31.778,0,0,1,31.712,31.6,31.454,31.454,0,0,1-31.47,31.606m-.24-62.538h0a30.785,30.785,0,0,0-30.8,30.934,31.11,31.11,0,0,0,31.042,30.934h0a30.784,30.784,0,0,0,30.8-30.934,31.108,31.108,0,0,0-31.041-30.934" transform="translate(-1386.078 -509.406)" fill="#3d3d3d"/>
          <path id="Trazado_877283" data-name="Trazado 877283" d="M1877.013,597.553a36.181,36.181,0,0,0-35.034-27.7l.14,36.159s29.077-7.114,34.894-8.458" transform="translate(-1562.167 -483.288)" fill="#3d3d3d"/>
          <path id="Trazado_877284" data-name="Trazado 877284" d="M1633.577,631.4a33.494,33.494,0,0,0-13.021,22.3c8.184,1.094,33.389,4.426,33.389,4.426s-17.028-22.248-20.368-26.728" transform="translate(-1374.38 -535.484)" fill="#f4eae2"/>
          <path id="Trazado_877285" data-name="Trazado 877285" d="M1652.076,656.593a.322.322,0,0,1-.044,0c-.252-.033-25.3-3.344-33.389-4.426a.335.335,0,0,1-.288-.376,34,34,0,0,1,13.152-22.526.335.335,0,0,1,.47.067c3.3,4.428,20.194,26.5,20.365,26.725a.335.335,0,0,1-.266.538m-33.01-5.047c7.554,1.009,27.955,3.707,32.254,4.275-2.759-3.606-16.309-21.321-19.677-25.82a33.34,33.34,0,0,0-12.577,21.545" transform="translate(-1372.512 -533.615)" fill="#3d3d3d"/>
          <path id="Trazado_877286" data-name="Trazado 877286" d="M2017.777,1057.383a2.916,2.916,0,1,1,2.927,2.916,2.9,2.9,0,0,1-2.927-2.916" transform="translate(-1711.26 -894.284)" fill="#3d3d3d"/>
          <path id="Trazado_877287" data-name="Trazado 877287" d="M1961.768,1057.386a2.916,2.916,0,1,1,2.927,2.917,2.9,2.9,0,0,1-2.927-2.917" transform="translate(-1663.759 -894.286)" fill="#3d3d3d"/>
          <path id="Trazado_877288" data-name="Trazado 877288" d="M1905.759,1057.388a2.915,2.915,0,1,1,2.927,2.916,2.9,2.9,0,0,1-2.927-2.916" transform="translate(-1616.258 -894.288)" fill="#3d3d3d"/>
          <path id="Trazado_877289" data-name="Trazado 877289" d="M1671.056,974.388a.335.335,0,0,1-.246-.561l16.087-17.511a.335.335,0,1,1,.493.453l-15.571,16.95,32.409,0a.335.335,0,1,1,0,.669Z" transform="translate(-1416.925 -810.951)" fill="#3d3d3d"/>
          <path id="Trazado_877290" data-name="Trazado 877290" d="M851.218,703.216a.335.335,0,0,1-.335-.333l-.239-61.887a.335.335,0,0,1,.333-.336h0a.335.335,0,0,1,.335.333l.238,61.554,103.49,0a.335.335,0,0,1,0,.669Z" transform="translate(-721.424 -543.338)" fill="#3d3d3d"/>
          <path id="Trazado_877291" data-name="Trazado 877291" d="M889.938,782.76H881.8l-.168-43.5h8.134Z" transform="translate(-747.708 -626.958)" fill="#3d3d3d"/>
          <path id="Trazado_877292" data-name="Trazado 877292" d="M974.657,895.133h-8.134l-.09-23.373h8.134Z" transform="translate(-819.623 -739.332)" fill="#3d3d3d"/>
          <path id="Trazado_877293" data-name="Trazado 877293" d="M1058.745,844.35h-8.134l-.126-32.469h8.134Z" transform="translate(-890.908 -688.55)" fill="#3d3d3d"/>
          <path id="Trazado_877294" data-name="Trazado 877294" d="M1142.722,764.914h-8.134l-.181-46.7h8.134Z" transform="translate(-962.081 -609.114)" fill="#3d3d3d"/>
          <path id="Trazado_877295" data-name="Trazado 877295" d="M1227.735,710.369h-7.724l-.218-56.466h7.724Z" transform="translate(-1034.496 -554.57)" fill="#3d3d3d"/>
          <path id="Trazado_877296" data-name="Trazado 877296" d="M1311.016,693.629h-8.134l-.23-59.464h8.134Z" transform="translate(-1104.768 -537.83)" fill="#3d3d3d"/>
          <path id="Trazado_877297" data-name="Trazado 877297" d="M1395.459,734.98h-8.134l-.2-52.056h8.134Z" transform="translate(-1176.408 -579.182)" fill="#3d3d3d"/>
          <path id="Trazado_877298" data-name="Trazado 877298" d="M1479.928,782.732h-8.134l-.168-43.5h8.134Z" transform="translate(-1248.074 -626.934)" fill="#3d3d3d"/>
          <path id="Trazado_877299" data-name="Trazado 877299" d="M1349.9,282.756l-95.224,0-.151-39.117,95.224,0Z" transform="translate(-1063.952 -206.628)" fill="#f4eae2"/>
          <path id="Trazado_877300" data-name="Trazado 877300" d="M1252.468,281.227l-.154-39.787,95.893,0,.154,39.786Zm.518-39.117.149,38.448,94.554,0-.148-38.448Z" transform="translate(-1062.077 -204.76)" fill="#3d3d3d"/>
          <path id="Trazado_877301" data-name="Trazado 877301" d="M1384.979,68.055a.335.335,0,0,1-.237-.571L1430.6,21.369a.334.334,0,0,1,.237-.1h0a.334.334,0,0,1,.236.1l17.052,17.012,31.482-31.656a.335.335,0,1,1,.474.472l-31.719,31.893a.33.33,0,0,1-.237.1.334.334,0,0,1-.236-.1l-17.052-17.012-45.626,45.877a.333.333,0,0,1-.237.1" transform="translate(-1174.305 -5.62)" fill="#3d3d3d"/>
          <path id="Trazado_877302" data-name="Trazado 877302" d="M1986.087,5.648l-.608-.282,1.842-3.979-3.969,1.864-.285-.606L1988.7,0Z" transform="translate(-1681.823 0)" fill="#3d3d3d"/>
          <path id="Trazado_877303" data-name="Trazado 877303" d="M1134.937,1826.254H1103.53a.335.335,0,0,1,0-.669h31.408a.335.335,0,0,1,0,.669" transform="translate(-935.61 -1548.262)" fill="#3d3d3d"/>
          <path id="Trazado_877304" data-name="Trazado 877304" d="M271.838,732.2l-5.9,151.558a7.708,7.708,0,0,1-1.841,4.576l-6.134,7.161a1.9,1.9,0,0,0,1.462,3.136l40.869-.4a5.591,5.591,0,0,0,5.533-5.816l-4.548-112.946S337.9,892.66,338.357,893.935a7.352,7.352,0,0,0,1.779,2.891,5.248,5.248,0,0,0,2.926,1.522c1.26.143,28.825.187,43.238.281a2.185,2.185,0,0,0,2.1-1.9,2.145,2.145,0,0,0-1.119-2.028L375.8,886.356a7.71,7.71,0,0,1-3.015-3.724L320.668,736.949Z" transform="translate(-218.381 -620.972)" fill="#f4eae2"/>
          <path id="Trazado_877305" data-name="Trazado 877305" d="M257.53,897.095a2.235,2.235,0,0,1-1.7-3.689l6.134-7.161a7.414,7.414,0,0,0,1.761-4.377l5.9-151.552A.335.335,0,0,1,270,730l48.83,4.75a.335.335,0,0,1,.283.22L371.229,880.65a7.321,7.321,0,0,0,2.882,3.555l11.481,8.344a2.472,2.472,0,0,1,1.27,2.341,2.517,2.517,0,0,1-2.413,2.2c-4.824-.031-11.089-.057-17.355-.082-12.9-.053-25.081-.1-25.939-.2a5.684,5.684,0,0,1-3.125-1.617,7.738,7.738,0,0,1-1.858-3.014c-.423-1.179-30.969-95.573-36.335-112.157l4.45,110.508a5.926,5.926,0,0,1-5.864,6.164l-40.869.4h-.023m12.758-166.4L264.4,881.9a8.091,8.091,0,0,1-1.922,4.78l-6.134,7.161a1.565,1.565,0,0,0,1.2,2.584l40.869-.4a5.257,5.257,0,0,0,5.2-5.468L299.07,777.611a.335.335,0,0,1,.653-.117c.366,1.132,36.629,113.2,37.08,114.458a7.014,7.014,0,0,0,1.7,2.767,5,5,0,0,0,2.727,1.426c.822.093,13.554.145,25.866.2,6.266.026,12.532.051,17.336.083a1.839,1.839,0,0,0,1.762-1.6,1.8,1.8,0,0,0-.951-1.705l-.031-.02-11.48-8.345a7.972,7.972,0,0,1-3.131-3.875l-52.047-145.49Z" transform="translate(-216.511 -619.103)" fill="#3d3d3d"/>
          <path id="Trazado_877306" data-name="Trazado 877306" d="M543.567,1002.043a.335.335,0,0,1-.335-.333l-.043-7.125a.335.335,0,0,1,.333-.337.331.331,0,0,1,.337.333l.043,7.125a.335.335,0,0,1-.333.337Z" transform="translate(-460.675 -843.213)" fill="#3d3d3d"/>
          <path id="Trazado_877307" data-name="Trazado 877307" d="M364.143,1757.227h-.009c-11.931-.312-24.017-.9-35.922-1.755a.335.335,0,1,1,.048-.668c11.9.852,23.971,1.442,35.892,1.754a.335.335,0,0,1-.009.669" transform="translate(-278.09 -1488.234)" fill="#3d3d3d"/>
          <path id="Trazado_877308" data-name="Trazado 877308" d="M789,1742.882a.335.335,0,0,1-.008-.669,237.226,237.226,0,0,0,33.505-3.2.335.335,0,1,1,.111.66,237.976,237.976,0,0,1-33.6,3.211H789" transform="translate(-668.858 -1474.836)" fill="#3d3d3d"/>
          <path id="Trazado_877309" data-name="Trazado 877309" d="M463.011,281.122l.6-9.133s-2.651-11.18-11.188-2.728l-1.456,12.5s-1.447,6.156,5.787,6.069c6.145-.074,6.261-6.706,6.261-6.706" transform="translate(-382.357 -225.678)" fill="#f4eae2"/>
          <path id="Trazado_877310" data-name="Trazado 877310" d="M464.662,278.1h-.011a.335.335,0,0,1-.324-.345l.243-7.6c-.1-.441-1.136-4.627-3.869-5.447-1.759-.527-3.9.428-6.36,2.84l-.939,8.058a.335.335,0,0,1-.665-.077l.952-8.175a.335.335,0,0,1,.1-.2c2.685-2.658,5.077-3.7,7.109-3.087,3.252.977,4.3,5.783,4.339,5.987a.342.342,0,0,1,.007.079L465,277.777a.335.335,0,0,1-.334.324" transform="translate(-383.961 -223.809)" fill="#3d3d3d"/>
          <path id="Trazado_877311" data-name="Trazado 877311" d="M429.695,151.045c4.48-1.058,5.886-2.342,5.886-2.342s1.452-1.021.89-4-6.045-7.2-12.27-1.227-13.681,11.613-7.869,12.429c0,0-3.115,5.757,5.066,4.612l2.972,3.411s4.237,8.374,11.384,5.979,4.876-5.3,3.979-8.126l-1.254-3.95a55.679,55.679,0,0,0-5.854,2.942c-5.284,2.948-7.41-8.667-2.93-9.724" transform="translate(-351.308 -119.113)" fill="#3d3d3d"/>
          <path id="Trazado_877312" data-name="Trazado 877312" d="M480.759,197.125c-4.48,1.057-7.509,1.955-5.86,5.924s3.506,6.749,8.79,3.8a55.676,55.676,0,0,1,5.854-2.942l-2.9-9.124s-1.406,1.285-5.886,2.342" transform="translate(-402.372 -165.194)" fill="#f4eae2"/>
          <path id="Trazado_877313" data-name="Trazado 877313" d="M486.276,195.836l2.443,7.692c-1.381.6-3.105,1.482-5.357,2.738a7.558,7.558,0,0,1-3.494,1.146c-2.026,0-3.167-1.767-4.351-4.618a3.052,3.052,0,0,1-.211-2.544c.618-1.21,2.808-1.811,5.606-2.472a19.994,19.994,0,0,0,5.364-1.942m.368-1.052s-1.406,1.285-5.886,2.342-7.509,1.955-5.86,5.924c1.169,2.814,2.443,5.031,4.97,5.031a8.074,8.074,0,0,0,3.82-1.23,55.647,55.647,0,0,1,5.854-2.942l-2.9-9.124" transform="translate(-402.372 -165.195)" fill="#3d3d3d"/>
          <path id="Trazado_877314" data-name="Trazado 877314" d="M451.537,263.206s-3.665-3.647-4.986-1.092,2.943,5.895,5.385,2.883Z" transform="translate(-378.506 -221.527)" fill="#f4eae2"/>
          <path id="Trazado_877315" data-name="Trazado 877315" d="M447.73,264.663a3.7,3.7,0,0,1-1.994-.618,3.118,3.118,0,0,1-1.376-3.95,1.843,1.843,0,0,1,1.379-1.066c1.758-.275,4.044,1.978,4.14,2.074a.336.336,0,0,1,.091.164l.4,1.791a.335.335,0,0,1-.067.284,3.249,3.249,0,0,1-2.573,1.32m-1.676-4.988a1.359,1.359,0,0,0-.211.016,1.194,1.194,0,0,0-.887.711,2.466,2.466,0,0,0,1.148,3.082,2.648,2.648,0,0,0,3.578-.443l-.342-1.532c-.613-.588-2.157-1.835-3.285-1.835" transform="translate(-376.612 -219.661)" fill="#3d3d3d"/>
          <path id="Trazado_877316" data-name="Trazado 877316" d="M459.548,275.933a.333.333,0,0,1-.2-.068,2.917,2.917,0,0,0-1.837-.579.335.335,0,1,1-.024-.669,3.552,3.552,0,0,1,2.265.714.335.335,0,0,1-.2.6" transform="translate(-387.716 -232.898)" fill="#3d3d3d"/>
          <path id="Trazado_877317" data-name="Trazado 877317" d="M278.192,376.034c10.731,10.208,23.279,12.529,28.43,8.091,5.967-5.142,3.019-20.228,2.678-21.973a39.324,39.324,0,0,0-1.689-6.036,65.721,65.721,0,0,1-17.062,3.226l.611,1.7c-1.445-1.469-8.407-8.386-17.162-11.353a34.627,34.627,0,0,0-11.211-1.886l-3.183.242L258.8,345l-2.892,3.2-2.824-2.6-6.848-1.6-1.4,4.292-.945.1c-10.6.948-17.265,2.3-22.8,9.193-7.135,8.885-12.99,25.527-11.134,35.979s6.7,13.645,12.864,15.6a19.623,19.623,0,0,0,5.929.679c.24,3.567.3,6.965.65,14.282l54.658-9.715Z" transform="translate(-177.762 -291.741)" fill="#7d6eb2"/>
          <path id="Trazado_877318" data-name="Trazado 877318" d="M650.882,528.4a.335.335,0,0,1-.316-.226l-1.358-3.937a.335.335,0,0,1,.633-.218l1.358,3.937a.335.335,0,0,1-.316.444" transform="translate(-550.572 -444.221)" fill="#3d3d3d"/>
          <path id="Trazado_877319" data-name="Trazado 877319" d="M748.307,462.964a.335.335,0,0,1-.31-.208l-2.646-6.479a.335.335,0,1,1,.62-.253l2.646,6.479a.335.335,0,0,1-.31.461" transform="translate(-632.105 -386.573)" fill="#3d3d3d"/>
          <path id="Trazado_877320" data-name="Trazado 877320" d="M709.192,287.076,697.38,265.924l7.864-2.4,10.951,22.2Z" transform="translate(-591.442 -223.494)" fill="#3d3d3d"/>
          <path id="Trazado_877321" data-name="Trazado 877321" d="M726.5,329.963a30.245,30.245,0,0,0,5.852,0,30.67,30.67,0,0,0,10.559-3.017l-.99-2.941s1.634-1.615-.021-2.208c0,0,1.539-3.068-1.135-3.25,0,0,1.779-4-2.33-3.242,0,0,2.469-4.515-2.135-3.424a13.831,13.831,0,0,0-4.4,2.05c.1-.249,1.425-3.661.354-4.4a1.008,1.008,0,0,0-.869-.112,11.384,11.384,0,0,0-3.316,1.5,10.39,10.39,0,0,0-4.253,12.339l2.688,6.7" transform="translate(-613.338 -262.385)" fill="#f4eae2"/>
          <path id="Trazado_877322" data-name="Trazado 877322" d="M724.686,328.428a.335.335,0,0,1-.311-.21l-2.688-6.7a10.776,10.776,0,0,1,4.387-12.748,11.754,11.754,0,0,1,3.425-1.54,1.323,1.323,0,0,1,1.126.164c.927.639.516,2.562.107,3.844a15,15,0,0,1,3.674-1.545c1.432-.339,2.4-.19,2.887.443.618.81.215,2.129-.107,2.891a2.271,2.271,0,0,1,2.092.666,3.086,3.086,0,0,1,.13,2.715,1.721,1.721,0,0,1,1.213.813,3.19,3.19,0,0,1-.1,2.544,1.167,1.167,0,0,1,.611.766,2.178,2.178,0,0,1-.648,1.691l.926,2.752a.335.335,0,0,1-.634.214l-.99-2.941a.336.336,0,0,1,.081-.345c.188-.187.7-.813.61-1.227-.039-.177-.211-.321-.509-.427a.335.335,0,0,1-.187-.465,2.906,2.906,0,0,0,.257-2.231,1.272,1.272,0,0,0-1.115-.535.335.335,0,0,1-.283-.47c.2-.46.62-1.8.11-2.441-.329-.417-1.027-.529-2.073-.336a.335.335,0,0,1-.355-.49c.293-.537.942-2.077.436-2.74-.384-.5-1.408-.385-2.2-.2a13.587,13.587,0,0,0-4.28,1.992.335.335,0,0,1-.535-.268v0a.336.336,0,0,1,.024-.122c.654-1.647,1.042-3.609.476-4-.077-.053-.207-.143-.612-.06a11.1,11.1,0,0,0-3.206,1.453,10.1,10.1,0,0,0-4.115,11.942L725,327.969a.335.335,0,0,1-.311.459" transform="translate(-611.521 -260.515)" fill="#3d3d3d"/>
          <path id="Trazado_877323" data-name="Trazado 877323" d="M758.959,371.484l4.514,8.749a3.232,3.232,0,0,0,5.827-2.791l-.3-.666s-3.335.605-2.028-1.63c0,0-3.776.45-1.909-2.5a2.682,2.682,0,0,1-1.748-.066c-1.2-.546-2.17-2.071.317-4.215a7.08,7.08,0,0,1-3.728.5,20.145,20.145,0,0,1-.949,2.618" transform="translate(-643.667 -312.406)" fill="#3d3d3d"/>
          <path id="Trazado_877324" data-name="Trazado 877324" d="M777.838,353.633a.335.335,0,0,1-.16-.629c1.962-1.068,3.927-2.193,5.839-3.344a.335.335,0,1,1,.345.573c-1.921,1.156-3.894,2.286-5.865,3.359a.335.335,0,0,1-.16.041" transform="translate(-659.393 -296.503)" fill="#3d3d3d"/>
          <path id="Trazado_877325" data-name="Trazado 877325" d="M785.528,376.786a.335.335,0,0,1-.157-.631,78.836,78.836,0,0,0,7.56-4.552.335.335,0,0,1,.377.553,79.492,79.492,0,0,1-7.624,4.591.334.334,0,0,1-.156.039" transform="translate(-665.915 -315.104)" fill="#3d3d3d"/>
          <path id="Trazado_877326" data-name="Trazado 877326" d="M800.758,398.81a.335.335,0,0,1-.162-.628l5.654-3.116a.335.335,0,1,1,.323.586l-5.654,3.117a.334.334,0,0,1-.161.042" transform="translate(-678.832 -335.017)" fill="#3d3d3d"/>
          <path id="Trazado_877327" data-name="Trazado 877327" d="M759.106,342.969a.331.331,0,0,1-.145-.033,2.332,2.332,0,0,1-1.308-1.5,2.543,2.543,0,0,1,.634-1.977,6.93,6.93,0,0,1,2.649-2.285.335.335,0,0,1,.3.6,6.269,6.269,0,0,0-2.4,2.064c-.389.575-.636.988-.534,1.462a1.676,1.676,0,0,0,.944,1.033.335.335,0,0,1-.146.636" transform="translate(-642.527 -285.926)" fill="#3d3d3d"/>
          <path id="Trazado_877328" data-name="Trazado 877328" d="M686.853,214.881l-4.919,1.384a7.025,7.025,0,0,1-3.8-13.524l4.919-1.384Z" transform="translate(-570.77 -170.768)" fill="#f4eae2"/>
          <path id="Trazado_877329" data-name="Trazado 877329" d="M678.157,214.993a7.36,7.36,0,0,1-2-14.445l4.919-1.384a.334.334,0,0,1,.413.232l3.8,13.524a.335.335,0,0,1-.231.413l-4.919,1.384a7.344,7.344,0,0,1-1.99.276m2.783-15.093-4.6,1.293a6.69,6.69,0,1,0,3.623,12.88l4.6-1.293Z" transform="translate(-568.893 -168.899)" fill="#3d3d3d"/>
          <path id="Trazado_877330" data-name="Trazado 877330" d="M770.942,25.676s-3.326-5.279-7.865-3.462c-3.314,1.327-22.957,14.93-33.322,22.177a11,11,0,0,0,8.139,19.868l36.7-6.194s4.078-.942,4.247-7.087-7.9-25.3-7.9-25.3" transform="translate(-614.915 -18.517)" fill="#3d3d3d"/>
          <path id="Trazado_877331" data-name="Trazado 877331" d="M964.714,35.283c2.829,10.055.774,19.43-4.59,20.939s-12-5.42-14.833-15.475-.774-19.43,4.589-20.939,12,5.42,14.833,15.475" transform="translate(-800.616 -16.624)" fill="#f4eae2"/>
          <path id="Trazado_877332" data-name="Trazado 877332" d="M956.83,54.882c-5.2,0-11.063-6.657-13.669-15.922-2.874-10.217-.711-19.8,4.821-21.352,2.719-.765,5.809.475,8.7,3.491a29.345,29.345,0,0,1,6.547,12.215,29.343,29.343,0,0,1,.782,13.837c-.895,4.081-2.885,6.75-5.6,7.515a5.806,5.806,0,0,1-1.577.215m-7.239-36.824a5.249,5.249,0,0,0-1.428.2c-5.177,1.456-7.132,10.664-4.358,20.526s9.244,16.7,14.42,15.243c2.469-.695,4.291-3.186,5.13-7.014a28.667,28.667,0,0,0-.773-13.512A28.667,28.667,0,0,0,956.2,21.564c-2.2-2.3-4.5-3.505-6.607-3.505" transform="translate(-798.808 -14.747)" fill="#3d3d3d"/>
          <path id="Trazado_877333" data-name="Trazado 877333" d="M967.432,118.077a.335.335,0,0,1-.11-.651,7.177,7.177,0,0,0-3.262-13.9.335.335,0,1,1-.077-.665,7.848,7.848,0,0,1,3.56,15.2.335.335,0,0,1-.11.019" transform="translate(-817.294 -87.19)" fill="#3d3d3d"/>
          <path id="Trazado_877334" data-name="Trazado 877334" d="M449.938,375.807a.337.337,0,0,1-.09-.012,35.029,35.029,0,0,1-8.274-3.5.335.335,0,0,1,.338-.578,34.349,34.349,0,0,0,7.81,3.349l.552-1.653a.335.335,0,1,1,.635.212l-.654,1.956a.335.335,0,0,1-.317.229" transform="translate(-374.354 -315.208)" fill="#3d3d3d"/>
          <path id="Trazado_877335" data-name="Trazado 877335" d="M527.348,376.027a.335.335,0,0,1-.27-.533l1.545-2.108a.335.335,0,0,1,.54.4l-1.545,2.108a.335.335,0,0,1-.27.137" transform="translate(-446.956 -316.55)" fill="#3d3d3d"/>
          <path id="Trazado_877336" data-name="Trazado 877336" d="M516.21,409.891l-10.133-31.271.223-3.472-1.526.572-2.064-.471,1.247,3.773,1.6,34.051Z" transform="translate(-426.345 -318.161)" fill="#f4eae2"/>
          <path id="Trazado_877337" data-name="Trazado 877337" d="M471.8,442.788l-24.722.242a.8.8,0,0,0-.759.578l-9.083,31.733a.8.8,0,0,0,.775,1.017l24.722-.242a.8.8,0,0,0,.759-.578l9.082-31.733a.8.8,0,0,0-.775-1.017" transform="translate(-370.793 -375.525)" fill="#3d3d3d"/>
          <path id="Trazado_877338" data-name="Trazado 877338" d="M426.415,542.266c1.052-1.034,1.69-2.153,1-3.236a2.322,2.322,0,0,0-3.355-.467,6.771,6.771,0,0,0,1.868-1.969,2.044,2.044,0,0,0-2.352-3.122,4.45,4.45,0,0,0-1.1.432,1.821,1.821,0,0,0,.128-1.789,2.733,2.733,0,0,0-2.766-1.211,8.021,8.021,0,0,0-2.949,1.213c-6.2,3.573-18.46,10.826-18.46,10.826-.638,5.017,3.813,15.164,8.809,18.363,1.585-.493,13.408-10.156,17.886-14.073a6.458,6.458,0,0,0,1.9-2.276,2.246,2.246,0,0,0-.614-2.691" transform="translate(-337.857 -450.236)" fill="#f4eae2"/>
          <path id="Trazado_877339" data-name="Trazado 877339" d="M507.342,556.183a.335.335,0,0,1-.178-.618c2.263-1.423,4.53-2.911,6.737-4.423a.335.335,0,1,1,.378.552c-2.214,1.516-4.488,3.009-6.759,4.437a.333.333,0,0,1-.178.052" transform="translate(-429.988 -467.369)" fill="#3d3d3d"/>
          <path id="Trazado_877340" data-name="Trazado 877340" d="M526.635,585.064a.335.335,0,0,1-.2-.605l5.846-4.267a.335.335,0,0,1,.395.541L526.833,585a.333.333,0,0,1-.2.064" transform="translate(-446.351 -492.001)" fill="#3d3d3d"/>
          <path id="Trazado_877341" data-name="Trazado 877341" d="M545.034,609.773a.335.335,0,0,1-.191-.61c1.771-1.224,3.506-2.546,5.155-3.928a.335.335,0,1,1,.43.513c-1.666,1.4-3.417,2.73-5.205,3.966a.332.332,0,0,1-.19.059" transform="translate(-461.955 -513.229)" fill="#3d3d3d"/>
          <path id="Trazado_877342" data-name="Trazado 877342" d="M335.688,740.846a.335.335,0,0,1-.011-.669,31.6,31.6,0,0,0,17.77-6.205.335.335,0,1,1,.4.535,32.273,32.273,0,0,1-18.149,6.339h-.011" transform="translate(-284.411 -622.418)" fill="#3d3d3d"/>
          <path id="Trazado_877343" data-name="Trazado 877343" d="M305.824,619.445a.335.335,0,0,1-.171-.623l13.153-7.773a.335.335,0,0,1,.341.576L305.994,619.4a.333.333,0,0,1-.17.047" transform="translate(-259.082 -518.186)" fill="#3d3d3d"/>
          <path id="Trazado_877344" data-name="Trazado 877344" d="M333.5,543.081a.335.335,0,0,1-.329-.4l3.391-17.4a.335.335,0,0,1,.657.128l-3.391,17.4a.335.335,0,0,1-.328.271" transform="translate(-282.553 -445.255)" fill="#3d3d3d"/>
          <path id="Trazado_877345" data-name="Trazado 877345" d="M376.2,653.778a.334.334,0,0,1-.22-.083,24.925,24.925,0,0,1-8.386-16.937.335.335,0,1,1,.668-.046,24.251,24.251,0,0,0,8.159,16.479.335.335,0,0,1-.221.587" transform="translate(-311.751 -539.726)" fill="#3d3d3d"/>
          <path id="Trazado_877346" data-name="Trazado 877346" d="M2068.126,178.246c.723-4.126,3.411-7.6,6.133-10.79,12.335-14.436,27.372-27.053,35.726-44.1,2.145-4.379,3.9-9.118,7.376-12.537a16.356,16.356,0,0,1,23.5.581c4.138,4.492,5.436,10.9,5.75,17a69.467,69.467,0,0,1-11.347,41.554,56.266,56.266,0,0,1-8.5,13.691c-6.588,7.928-15.342,14.408-25.412,16.613s-21.475-.416-28.406-8.046c-3.428-3.774-5.695-8.941-4.815-13.963" transform="translate(-1753.8 -90.001)" fill="#3d3d3d"/>
          <path id="Trazado_877347" data-name="Trazado 877347" d="M2152.575,1825.732H2047.289a.335.335,0,1,1,0-.669h105.286a.335.335,0,0,1,0,.669" transform="translate(-1736.005 -1547.821)" fill="#3d3d3d"/>
          <path id="Trazado_877348" data-name="Trazado 877348" d="M2057.65,612.153s12.235,9.052,11.678,29.2c-.489,17.69-.119,124.13-.021,149.814a5.554,5.554,0,0,1-5.556,5.574h-90.3a3.029,3.029,0,0,1-2.305-4.994,112.971,112.971,0,0,1,8.1-8.745,10.455,10.455,0,0,0,3.159-5.741c3.435-18.118,20.518-101.111,38.949-148.7,2-5.16,4.013-9.9,6.027-14.1l1.208-.092Z" transform="translate(-1671.093 -519.162)" fill="#3d3d3d"/>
          <path id="Trazado_877349" data-name="Trazado 877349" d="M2263.031,979.8h-3.2a2.713,2.713,0,0,1-2.042-4.5l4.728-5.4a17,17,0,0,0,4-8.485c4.527-27.959,11-132.435,11.064-133.487a.335.335,0,0,1,.668.041c-.065,1.052-6.539,105.561-11.071,133.552a17.676,17.676,0,0,1-4.152,8.819l-4.728,5.4a2.043,2.043,0,0,0,1.538,3.389h3.2a.335.335,0,0,1,0,.669" transform="translate(-1914.242 -701.893)" fill="#f4eae2"/>
          <path id="Trazado_877350" data-name="Trazado 877350" d="M2086.974,1723.9a74.784,74.784,0,0,1-27.052-5.071.335.335,0,0,1,.243-.624,74.043,74.043,0,0,0,31.8,4.854.335.335,0,0,1,.046.668q-2.511.173-5.037.173" transform="translate(-1746.822 -1457.178)" fill="#f4eae2"/>
          <path id="Trazado_877351" data-name="Trazado 877351" d="M2355.193,1745.519a140.976,140.976,0,0,1-25.544-2.335.335.335,0,1,1,.121-.658,140.264,140.264,0,0,0,43.147,1.2.335.335,0,0,1,.084.664,141.171,141.171,0,0,1-17.809,1.129" transform="translate(-1975.524 -1477.817)" fill="#f4eae2"/>
          <path id="Trazado_877352" data-name="Trazado 877352" d="M2054.2,296.1l6.948,6.841s55.587-.085,64.519,2.039,11.253,14.779,12.4,26.461.429,25.064-11.512,28.01-23.78-12.327-23.78-12.327H2081.5l1.8-6.857-3.489-13.485-18.93.3a12.481,12.481,0,0,1-9.406-4.055c-3.342-3.649-7.935-9.185-10.395-14.416Z" transform="translate(-1731.026 -251.122)" fill="#ffd947"/>
          <path id="Trazado_877353" data-name="Trazado 877353" d="M2518.734,536.727a.334.334,0,0,1-.213-.077,129.056,129.056,0,0,0-11.726-8.61.335.335,0,0,1,.365-.561,129.774,129.774,0,0,1,11.787,8.655.335.335,0,0,1-.213.593" transform="translate(-2125.863 -447.305)" fill="#f4eae2"/>
          <path id="Trazado_877354" data-name="Trazado 877354" d="M2545.336,484.067a.334.334,0,0,1-.333-.311l-.772-10.963a5.53,5.53,0,0,0-.435-2.141.335.335,0,1,1,.6-.306,6.117,6.117,0,0,1,.507,2.4l.771,10.963a.335.335,0,0,1-.31.358h-.024" transform="translate(-2157.341 -398.743)" fill="#f4eae2"/>
          <path id="Trazado_877355" data-name="Trazado 877355" d="M2148.268,424.312h24.916a2.061,2.061,0,0,0,1.946-2.743l-10.235-29.189a2.061,2.061,0,0,0-1.945-1.379h-24.916a2.061,2.061,0,0,0-1.945,2.743l10.235,29.189a2.061,2.061,0,0,0,1.945,1.379" transform="translate(-1811.498 -331.604)" fill="#f4eae2"/>
          <path id="Trazado_877356" data-name="Trazado 877356" d="M2238.3,449.415a1.216,1.216,0,1,0,1.72,0,1.215,1.215,0,0,0-1.72,0" transform="translate(-1897.985 -380.843)" fill="#3d3d3d"/>
          <path id="Trazado_877357" data-name="Trazado 877357" d="M2308.949,483.008a1.424,1.424,0,0,1-1.03-2.059c.614-1.518,9.456-5.169,24.644,2.691,1.55.8,2.946,1.539,4.207,2.216-1.132,3.882-3.752,11.293-8.337,16.188-3.564-4.051-7.446-7.791-12.047-8.459-8.127-1.18-1.233-2.9-1.233-2.9s-6.07-.066-6.07-1.462c0-1.856,4.9-2.005,6.987-1.985.566.019.918.023.918.023s-.358-.018-.918-.023c-2.308-.079-8.218-.418-8.776-1.841-.7-1.773,1.654-2.392,1.654-2.392" transform="translate(-1956.689 -406.04)" fill="#f4eae2"/>
          <path id="Trazado_877358" data-name="Trazado 877358" d="M2318.565,493.521a.33.33,0,0,1-.16-.041,11.62,11.62,0,0,0-3.938-1.369c-3.694-.536-4.22-1.169-4.248-1.717-.026-.516.555-.936,1.243-1.251-1.991-.144-4.584-.556-4.584-1.722a1.377,1.377,0,0,1,.44-1,4.773,4.773,0,0,1,2.354-.986c-2.3-.3-4.208-.819-4.561-1.717a1.778,1.778,0,0,1,.029-1.508,2.531,2.531,0,0,1,1.1-1.027,1.664,1.664,0,0,1-.516-.574,1.83,1.83,0,0,1,.01-1.589c.365-.9,2.8-2.239,7.073-2.378a.33.33,0,0,1,.345.324.334.334,0,0,1-.323.346c-4.02.131-6.233,1.361-6.475,1.96a1.206,1.206,0,0,0-.041,1.021,1.381,1.381,0,0,0,.833.585.335.335,0,0,1,.013.65,2.541,2.541,0,0,0-1.427.987,1.125,1.125,0,0,0,0,.959c.324.826,3.651,1.465,8.476,1.629.56.005.924.024.924.024a.335.335,0,0,1,.318.344.344.344,0,0,1-.338.325s-.355,0-.927-.023c-3.262-.033-5.654.389-6.4,1.126a.722.722,0,0,0-.242.525c0,.568,2.682,1.094,5.739,1.128a.335.335,0,0,1,.077.66c-1.386.345-2.488.913-2.476,1.153,0,.006.07.564,3.676,1.088a12.435,12.435,0,0,1,4.163,1.444.335.335,0,0,1-.161.629" transform="translate(-1954.816 -404.235)" fill="#3d3d3d"/>
          <path id="Trazado_877359" data-name="Trazado 877359" d="M2328.741,504.641a.33.33,0,0,1-.061-.006,32.631,32.631,0,0,0-8.333-.252.335.335,0,0,1-.058-.667,33.293,33.293,0,0,1,8.512.26.335.335,0,0,1-.061.664" transform="translate(-1967.559 -427.067)" fill="#3d3d3d"/>
          <path id="Trazado_877360" data-name="Trazado 877360" d="M1994.665,171.435s-17.784-20.389-19.4-21.774-3.973-.246-.648,4.1l2.674,4.092s-2.945-.661-2.674,2.416c0,0-2.131-.642-1.774,2.148,0,0-2.473-.493-1.862,2.148.59,2.546,10.567,19.384,10.567,19.384s10.519-5.56,13.117-12.514" transform="translate(-1671.491 -126.454)" fill="#f4eae2"/>
          <path id="Trazado_877361" data-name="Trazado 877361" d="M1979.681,182.413a.334.334,0,0,1-.288-.164c-.409-.689-10.01-16.911-10.6-19.479a2.162,2.162,0,0,1,.338-2.084,1.994,1.994,0,0,1,1.481-.509,2.123,2.123,0,0,1,.589-1.819,1.679,1.679,0,0,1,1.2-.352,2.363,2.363,0,0,1,.723-1.868,2.513,2.513,0,0,1,1.646-.548l-2.3-3.515c-2.434-3.18-1.733-4.439-1.319-4.831a1.873,1.873,0,0,1,2.465.293c1.616,1.385,18.708,20.975,19.435,21.808a.335.335,0,0,1-.5.44c-.178-.2-17.786-20.386-19.365-21.74-.56-.479-1.249-.618-1.569-.315-.469.443-.216,1.839,1.4,3.958l2.688,4.112a.335.335,0,0,1-.353.51,2.334,2.334,0,0,0-1.791.333,1.966,1.966,0,0,0-.476,1.727.335.335,0,0,1-.43.35,1.247,1.247,0,0,0-1.027.151c-.311.266-.42.831-.318,1.634a.335.335,0,0,1-.4.371,1.651,1.651,0,0,0-1.305.279,1.573,1.573,0,0,0-.165,1.465c.572,2.467,10.429,19.12,10.529,19.288a.335.335,0,0,1-.288.505" transform="translate(-1669.623 -124.583)" fill="#3d3d3d"/>
          <path id="Trazado_877362" data-name="Trazado 877362" d="M2020.472,227.352a3.339,3.339,0,0,1-2.073-.8,8.8,8.8,0,0,1-1.593-1.885l-.162-.233a5.958,5.958,0,0,0-1.732-1.805,6.449,6.449,0,0,0-.841-.385c-.208-.084-.416-.168-.617-.264a2.571,2.571,0,0,1-1.338-1.241.981.981,0,0,1,.138-1.1,1.158,1.158,0,0,1,1.042-.187l5.964,1.1a.335.335,0,1,1-.121.659l-5.964-1.1c-.1-.019-.373-.069-.457.011-.056.053-.05.211.013.358a1.939,1.939,0,0,0,1.011.9c.189.09.384.169.578.247a7.064,7.064,0,0,1,.928.427,6.522,6.522,0,0,1,1.944,2l.164.235a8.292,8.292,0,0,0,1.465,1.748,2.466,2.466,0,0,0,2.169.575.335.335,0,1,1,.2.639,2.4,2.4,0,0,1-.717.107" transform="translate(-1706.37 -186.074)" fill="#3d3d3d"/>
          <path id="Trazado_877363" data-name="Trazado 877363" d="M1998.882,226.269a1.9,1.9,0,0,1-.491-.065,3.254,3.254,0,0,1-1.324-.811,14.3,14.3,0,0,1-2.943-4.7.335.335,0,1,1,.609-.277,13.8,13.8,0,0,0,2.79,4.492,2.539,2.539,0,0,0,1.041.654,1.014,1.014,0,0,0,.981-.2,1.1,1.1,0,0,0,.208-.965,3.934,3.934,0,0,0-.509-1.13.335.335,0,0,1,.579-.336,4.5,4.5,0,0,1,.586,1.332,1.733,1.733,0,0,1-.384,1.566,1.59,1.59,0,0,1-1.143.447" transform="translate(-1691.174 -186.763)" fill="#3d3d3d"/>
          <path id="Trazado_877364" data-name="Trazado 877364" d="M1986.83,239.009a2.157,2.157,0,0,1-.524-.065,3.679,3.679,0,0,1-1.441-.82,8.145,8.145,0,0,1-2.586-4.188.335.335,0,0,1,.65-.161,7.469,7.469,0,0,0,2.371,3.841,2.948,2.948,0,0,0,1.169.68,1.219,1.219,0,0,0,1.117-.218.7.7,0,0,0,.119-.906.335.335,0,0,1,.511-.432,1.363,1.363,0,0,1-.175,1.829,1.777,1.777,0,0,1-1.211.442" transform="translate(-1681.146 -198.046)" fill="#3d3d3d"/>
          <path id="Trazado_877365" data-name="Trazado 877365" d="M1978.445,263.039a1.845,1.845,0,0,1-.542-.082,2.558,2.558,0,0,1-1.285-.975,6.551,6.551,0,0,1-.7-1.326.335.335,0,0,1,.615-.264,6.037,6.037,0,0,0,.626,1.195,1.935,1.935,0,0,0,.942.731,1.052,1.052,0,0,0,1.007-.186,1.2,1.2,0,0,0,.307-.936,4.281,4.281,0,0,0-.3-1.167.335.335,0,1,1,.63-.226,4.834,4.834,0,0,1,.338,1.356,1.847,1.847,0,0,1-.515,1.458,1.632,1.632,0,0,1-1.122.421" transform="translate(-1675.736 -220.148)" fill="#3d3d3d"/>
          <path id="Trazado_877366" data-name="Trazado 877366" d="M2306.053,647.752l5.423-12.79Z" transform="translate(-1955.744 -538.506)" fill="#3d3d3d"/>
          <path id="Trazado_877367" data-name="Trazado 877367" d="M2304.182,646.218a.338.338,0,0,1-.131-.027.335.335,0,0,1-.177-.439l5.423-12.79a.335.335,0,0,1,.616.261l-5.423,12.789a.335.335,0,0,1-.308.2" transform="translate(-1953.874 -536.638)" fill="#f4eae2"/>
          <path id="Trazado_877368" data-name="Trazado 877368" d="M2379.741,254.511l1.484,11.613a2.086,2.086,0,0,0,1.738,1.8l8.134.876s-6.488,4.8-17.474,4.035-13.216-5.045-13.216-5.045l8.535-.518a2.113,2.113,0,0,0,1.984-2.03l.256-6.88s6.248-5.29,8.558-3.847" transform="translate(-2001.842 -215.637)" fill="#f4eae2"/>
          <path id="Trazado_877369" data-name="Trazado 877369" d="M2419.694,179.809a1.754,1.754,0,0,1,.644,1.87,2.308,2.308,0,0,1-1.388,1.488,3.415,3.415,0,0,1-2.074.091c-.755,2.173-8.018,5.243-10.933,2.959-3.1-2.428-1.116-6.936-.364-9.427s1.966-4.839,2.507-7.383a23.962,23.962,0,0,1,8.058,3.766,5.812,5.812,0,0,1,1.388,1.4,2.582,2.582,0,0,1,.425,1.886,14.006,14.006,0,0,1-.828,1.844c-.174.478-.195,1.614.514,1.686.317.032.663-.331.98-.391a1.455,1.455,0,0,1,1.072.209" transform="translate(-2039.031 -143.673)" fill="#f4eae2"/>
          <path id="Trazado_877370" data-name="Trazado 877370" d="M2406.913,185.488a4.9,4.9,0,0,1-3.053-.877c-2.929-2.295-1.632-6.249-.773-8.866.108-.329.21-.638.295-.921.311-1.029.7-2.045,1.084-3.027a28.819,28.819,0,0,0,1.417-4.328.334.334,0,0,1,.42-.252,23.943,23.943,0,0,1,8.169,3.822,6.139,6.139,0,0,1,1.466,1.485,2.886,2.886,0,0,1,.472,2.135,4.276,4.276,0,0,1-.494,1.173,5.328,5.328,0,0,0-.349.718,1.578,1.578,0,0,0,.04,1.111.237.237,0,0,0,.193.127.982.982,0,0,0,.358-.157,1.7,1.7,0,0,1,.526-.229,1.782,1.782,0,0,1,1.322.261h0a2.1,2.1,0,0,1,.78,2.234,2.621,2.621,0,0,1-1.587,1.712,3.644,3.644,0,0,1-2,.164c-.7,1.322-3.081,2.6-5.21,3.229a11.032,11.032,0,0,1-3.073.486m-.455-17.528a31.755,31.755,0,0,1-1.368,4.079c-.375.971-.764,1.975-1.067,2.979-.087.288-.19.6-.3.936-.848,2.585-2.01,6.125.549,8.13,1.12.878,3.133.978,5.524.276s4.53-2.054,4.887-3.081a.334.334,0,0,1,.4-.215,3.093,3.093,0,0,0,1.869-.077,1.976,1.976,0,0,0,1.189-1.263,1.412,1.412,0,0,0-.508-1.507,1.124,1.124,0,0,0-.823-.158,1.3,1.3,0,0,0-.316.151,1.284,1.284,0,0,1-.76.243.9.9,0,0,1-.692-.437,2.2,2.2,0,0,1-.1-1.7,5.955,5.955,0,0,1,.39-.81,3.706,3.706,0,0,0,.425-.988,2.254,2.254,0,0,0-.378-1.636,5.52,5.52,0,0,0-1.312-1.318,22.87,22.87,0,0,0-7.605-3.609" transform="translate(-2037.156 -141.804)" fill="#3d3d3d"/>
          <path id="Trazado_877371" data-name="Trazado 877371" d="M2482.149,245.368a.335.335,0,0,1-.159-.63,6.633,6.633,0,0,1,2.265-.734.335.335,0,1,1,.089.664,5.959,5.959,0,0,0-2.037.66.335.335,0,0,1-.158.04" transform="translate(-2104.806 -206.936)" fill="#3d3d3d"/>
          <path id="Trazado_877372" data-name="Trazado 877372" d="M1636.6,1370.925h-49.918a2.471,2.471,0,0,1-2.471-2.471v-3.787a2.471,2.471,0,0,1,2.471-2.471H1636.6a2.471,2.471,0,0,1,2.471,2.471v3.787a2.471,2.471,0,0,1-2.471,2.471" transform="translate(-1343.552 -1155.267)" fill="#00be75"/>
          <path id="Trazado_877373" data-name="Trazado 877373" d="M1631.683,1543.323h-49.918a2.471,2.471,0,0,1-2.471-2.471v-3.787a2.471,2.471,0,0,1,2.471-2.471h49.918a2.471,2.471,0,0,1,2.471,2.471v3.787a2.471,2.471,0,0,1-2.471,2.471" transform="translate(-1339.386 -1301.475)" fill="#00be75"/>
          <path id="Trazado_877374" data-name="Trazado 877374" d="M1640.214,1485.857H1590.3a2.472,2.472,0,0,1-2.471-2.472V1479.6a2.471,2.471,0,0,1,2.471-2.471h49.918a2.471,2.471,0,0,1,2.471,2.471v3.787a2.471,2.471,0,0,1-2.471,2.472" transform="translate(-1346.621 -1252.739)" fill="#00be75"/>
          <path id="Trazado_877375" data-name="Trazado 877375" d="M1675.485,1428.391h-49.918a2.472,2.472,0,0,1-2.471-2.471v-3.787a2.472,2.472,0,0,1,2.471-2.471h49.918a2.471,2.471,0,0,1,2.471,2.471v3.787a2.471,2.471,0,0,1-2.471,2.471" transform="translate(-1376.534 -1204.003)" fill="#00be75"/>
          <path id="Trazado_877376" data-name="Trazado 877376" d="M1681.166,1418.127h-44.6a.335.335,0,0,1,0-.669h44.6a.335.335,0,0,1,0,.669" transform="translate(-1387.671 -1202.134)" fill="#3d3d3d"/>
          <path id="Trazado_877377" data-name="Trazado 877377" d="M1657.849,1600.788h-49.918a2.471,2.471,0,0,1-2.471-2.471v-3.787a2.471,2.471,0,0,1,2.471-2.471h49.918a2.471,2.471,0,0,1,2.471,2.471v3.787a2.471,2.471,0,0,1-2.471,2.471" transform="translate(-1361.577 -1350.212)" fill="#00be75"/>
          <path id="Trazado_877378" data-name="Trazado 877378" d="M1663.851,1590.525h-46.963a.335.335,0,0,1,0-.669h46.963a.335.335,0,0,1,0,.669" transform="translate(-1370.985 -1348.344)" fill="#3d3d3d"/>
          <path id="Trazado_877379" data-name="Trazado 877379" d="M1650.341,1533.059h-48.87a.335.335,0,1,1,0-.669h48.87a.335.335,0,1,1,0,.669" transform="translate(-1357.911 -1299.607)" fill="#3d3d3d"/>
          <path id="Trazado_877380" data-name="Trazado 877380" d="M1681.357,1475.594h-45.066a.335.335,0,1,1,0-.669h45.066a.335.335,0,1,1,0,.669" transform="translate(-1387.441 -1250.871)" fill="#3d3d3d"/>
          <path id="Trazado_877381" data-name="Trazado 877381" d="M1526.808,1344.085a25.069,25.069,0,1,1-25.069-25.069,25.069,25.069,0,0,1,25.069,25.069" transform="translate(-1252.35 -1118.646)" fill="#00be75"/>
          <path id="Trazado_877382" data-name="Trazado 877382" d="M1499.87,1367.621a25.4,25.4,0,1,1,25.4-25.4,25.433,25.433,0,0,1-25.4,25.4m0-50.139a24.735,24.735,0,1,0,24.735,24.735,24.763,24.763,0,0,0-24.735-24.735" transform="translate(-1250.482 -1116.778)" fill="#f4eae2"/>
          <path id="Trazado_877383" data-name="Trazado 877383" d="M1529.793,1392.185a20.044,20.044,0,1,1,20.044-20.044,20.067,20.067,0,0,1-20.044,20.044m0-39.419a19.375,19.375,0,1,0,19.375,19.375,19.4,19.4,0,0,0-19.375-19.375" transform="translate(-1280.406 -1146.701)" fill="#f4eae2"/>
          <path id="Trazado_877384" data-name="Trazado 877384" d="M1600.811,1412.691v-3.831a11.044,11.044,0,0,1-5.8-1.669l.91-2.541a10.111,10.111,0,0,0,5.462,1.631c2.693,0,4.513-1.555,4.513-3.717,0-2.086-1.479-3.375-4.286-4.513-3.869-1.517-6.258-3.262-6.258-6.562,0-3.148,2.238-5.538,5.728-6.107v-3.831h2.351v3.679a10.122,10.122,0,0,1,4.931,1.327l-.948,2.5a9.167,9.167,0,0,0-4.779-1.29c-2.92,0-4.02,1.745-4.02,3.262,0,1.972,1.4,2.958,4.7,4.324,3.907,1.593,5.879,3.565,5.879,6.941,0,3-2.086,5.8-5.993,6.448v3.944Z" transform="translate(-1352.713 -1171.683)" fill="#f4eae2"/>
        </g>
      </g>
    </g>
  </g>
</svg>
