<svg xmlns="http://www.w3.org/2000/svg" width="400" height="234.265" viewBox="0 0 400 234.265">
  <g id="Grupo_1101510" data-name="Grupo 1101510" transform="translate(-980 -1803.735)">
    <g id="Grupo_1101467" data-name="Grupo 1101467" transform="translate(-40 2)">
      <path id="Rectángulo_401883" data-name="Rectángulo 401883" d="M69,0H400a0,0,0,0,1,0,0V115a0,0,0,0,1,0,0H0a0,0,0,0,1,0,0V69A69,69,0,0,1,69,0Z" transform="translate(1020 1921)" fill="#7d6eb2"/>
      <g id="Grupo_1101466" data-name="Grupo 1101466" transform="translate(1094.667 1801.738)">
        <g id="Grupo_1101468" data-name="Grupo 1101468" transform="translate(0 -0.003)">
          <path id="Trazado_878062" data-name="Trazado 878062" d="M701.02,366.19l33.772-30.412s-.476-7.708-18.236-1.717-66.275,22.96-66.275,22.96l3.338,17.087Z" transform="translate(-519.089 -264.845)" fill="#26aab7"/>
          <path id="Trazado_878063" data-name="Trazado 878063" d="M252.554,742.654a73.439,73.439,0,0,1-42.307,14.182c-3.779-.6.113-4.227.984-5.676-70.222,11.058-72.587,6.094-20.09-41.457l-8.018.869c-7.1-2.391,29.568-25.32,33.43-26.324Z" transform="translate(-123.554 -546.204)" fill="#f4eae2"/>
          <path id="Trazado_878064" data-name="Trazado 878064" d="M208.493,755.522a.435.435,0,0,1-.069-.005,2.194,2.194,0,0,1-1.892-1.169c-.48-1.22.785-2.838,1.8-4.137l.158-.2c-34.477,5.4-52.541,6.982-55.487.822-2.932-6.13,9.493-19.084,35.072-42.294l-6.659.722a.448.448,0,0,1-.19-.021,1.539,1.539,0,0,1-1.21-1.56c.2-5.728,31.446-24.776,34.671-25.615a.443.443,0,0,1,.49.2l36,58.4a.444.444,0,0,1-.114.59,73.755,73.755,0,0,1-42.565,14.27Zm.984-6.564a.444.444,0,0,1,.38.673,12.684,12.684,0,0,1-.824,1.126c-.784,1-1.968,2.517-1.674,3.265.144.366.706.534,1.167.611a72.892,72.892,0,0,0,41.682-13.853l-35.6-57.759c-4.555,1.722-33.53,19.876-33.7,24.685-.008.223.05.472.518.655l7.916-.858a.444.444,0,0,1,.346.771c-24.768,22.434-38.579,36.526-35.879,42.171s22.437,3.74,55.6-1.482a.438.438,0,0,1,.069-.005" transform="translate(-121.8 -544.445)" fill="#3d3d3d"/>
          <path id="Trazado_878065" data-name="Trazado 878065" d="M378.461,787.93a.444.444,0,0,1-.247-.814l13.994-9.346a.444.444,0,1,1,.494.739l-13.994,9.346a.443.443,0,0,1-.246.075" transform="translate(-301.753 -620.798)" fill="#3d3d3d"/>
          <path id="Trazado_878066" data-name="Trazado 878066" d="M248.98,867.359a.444.444,0,0,1-.27-.8,486.359,486.359,0,0,1,44.656-30.351.444.444,0,1,1,.458.762,485.4,485.4,0,0,0-44.575,30.3.441.441,0,0,1-.27.091" transform="translate(-198.395 -667.458)" fill="#3d3d3d"/>
          <path id="Trazado_878067" data-name="Trazado 878067" d="M452.63,904.626a.444.444,0,0,1-.224-.828l12.2-7.115a.444.444,0,1,1,.448.768l-12.2,7.115a.445.445,0,0,1-.224.061" transform="translate(-360.959 -715.733)" fill="#3d3d3d"/>
          <path id="Trazado_878068" data-name="Trazado 878068" d="M639.422,806.408l3.32,26.414a2.709,2.709,0,0,0,4.264,1.882c11.437-8.195,45.309-34.957,43.652-63.408Z" transform="translate(-510.422 -615.69)" fill="#f4eae2"/>
          <path id="Trazado_878069" data-name="Trazado 878069" d="M643.68,833.9a3.171,3.171,0,0,1-3.137-2.78l-3.32-26.414a.444.444,0,0,1,.19-.422l51.237-35.112a.444.444,0,0,1,.695.341c.717,12.315-5.01,25.643-17.022,39.615a158.43,158.43,0,0,1-26.815,24.179,3.127,3.127,0,0,1-1.826.593m-5.542-29.036,3.286,26.146a2.265,2.265,0,0,0,1.349,1.81,2.236,2.236,0,0,0,2.216-.234c10.516-7.535,44.483-34.127,43.5-62.229Z" transform="translate(-508.664 -613.933)" fill="#3d3d3d"/>
          <path id="Trazado_878070" data-name="Trazado 878070" d="M387.7,552.145l-22.451-14.1a2.736,2.736,0,0,1,.088-4.683c12.19-7.011,50.542-26.73,75.529-13.294Z" transform="translate(-290.54 -411.489)" fill="#f4eae2"/>
          <path id="Trazado_878071" data-name="Trazado 878071" d="M385.939,550.783a.445.445,0,0,1-.236-.068l-22.451-14.1a3.18,3.18,0,0,1,.1-5.444,157.635,157.635,0,0,1,33.063-14.356c17.647-5.116,32.079-4.761,42.9,1.056a.444.444,0,0,1,.019.772l-53.166,32.078a.445.445,0,0,1-.23.064M419.1,514.15c-22.21,0-46.707,12.844-55.3,17.789a2.292,2.292,0,0,0-.074,3.922l22.22,13.956L438.2,518.288a41.873,41.873,0,0,0-19.1-4.138" transform="translate(-288.781 -409.683)" fill="#3d3d3d"/>
          <path id="Trazado_878072" data-name="Trazado 878072" d="M633.245,300.086l-.02-.031c-45.446-13.343-153.671,55.269-179.272,72.12-15.583,11.617,14.906,54.07,27.766,60.993a10.016,10.016,0,0,0,11.3.417c25.939-16.318,133.228-86.4,140.23-133.5" transform="translate(-358.912 -238.155)" fill="#fec432"/>
          <path id="Trazado_878076" data-name="Trazado 878076" d="M1124.442,379.283a.439.439,0,0,1-.269-.092,60.967,60.967,0,0,1-22.118-34.752.444.444,0,1,1,.868-.192,60.068,60.068,0,0,0,21.79,34.238.444.444,0,0,1-.27.8" transform="translate(-879.712 -274.518)" fill="#3d3d3d"/>
          <path id="Trazado_878077" data-name="Trazado 878077" d="M804.759,632.519c-4.166,4.544-7.533,8.509-8.37,10.287-2.574,5.472-1.427,34.286,1.049,41.3,0,0,5.5-5.6,13.223-13.8,3.129-13.615.244-28.846-5.9-37.786" transform="translate(-634.559 -504.911)" fill="#f4eae2"/>
          <path id="Trazado_878078" data-name="Trazado 878078" d="M802.851,847.15l-.237-.671a20.085,20.085,0,0,1-.662-2.506.444.444,0,1,1,.869-.181c.134.644.272,1.213.412,1.7,1.249-1.278,4.667-4.792,9.241-9.606a.444.444,0,1,1,.644.612c-5.787,6.093-9.729,10.1-9.768,10.145Z" transform="translate(-640.154 -667.139)" fill="#3d3d3d"/>
          <path id="Trazado_878079" data-name="Trazado 878079" d="M698.61,400.757c-28.754,7.289-51.751,15.067-51.751,15.067l-3.725-7.648-11.81,5.677c-8.656,49.319,53.892,13.681,62.94,11.388,0,0-12.1,11.942-20.761,21.385-.221,8.4.35,23.594,5.9,37.786,22.716-23.252,90.43-94.483,19.2-83.655" transform="translate(-503.303 -319.018)" fill="#26aab7"/>
          <path id="Trazado_878080" data-name="Trazado 878080" d="M952.567,504.074a.444.444,0,0,1-.277-.792l5.386-4.292a.444.444,0,1,1,.554.7l-5.386,4.292a.442.442,0,0,1-.276.1" transform="translate(-760.036 -398.243)" fill="#3d3d3d"/>
          <path id="Trazado_878081" data-name="Trazado 878081" d="M489.844,59.09c-3.857-9.606-15.552-3.98-21.558.353a59.769,59.769,0,0,1-14.718,6.215c-12.532,4.4-36.213,1.157-42.118,15.23-1.416,6.011,3.812,11.431,9.481,12.5,4.394,14.893,37.492,8.82,47.143,1.96a39.432,39.432,0,0,0,18.59-28.584c1.557-2.406,4.3-4.344,3.179-7.67" transform="translate(-328.256 -42.959)" fill="#3d3d3d"/>
          <path id="Trazado_878082" data-name="Trazado 878082" d="M419.4,384.973c-8.479,16.7-24.439,44.65-25.442,49.708-1.284,6.473,2.153,7.685,2.153,7.685,1.818,2.034,3.363.44,3.363.44,1.267,1.271,3.691-.333,3.691-.333,3.887,1.686,5.369-4.732,5.369-4.732,3.731-2.129,2.821-10.462,2.821-10.462l16.57-40.723Z" transform="translate(-314.246 -307.306)" fill="#f4eae2"/>
          <path id="Trazado_878083" data-name="Trazado 878083" d="M396.266,442.087h-.047a3.022,3.022,0,0,1-2.139-1.106c-.636-.286-3.553-1.961-2.327-8.143.663-3.346,7.5-16.067,14.748-29.535,3.813-7.09,7.756-14.422,10.733-20.288a.444.444,0,0,1,.477-.236l8.525,1.583a.445.445,0,0,1,.33.6l-16.529,40.62c.1,1.051.669,8.423-2.887,10.683-.21.794-1.133,3.835-3.132,4.844a3.114,3.114,0,0,1-2.583.1c-.612.356-2.446,1.279-3.735.409a2.551,2.551,0,0,1-1.435.466m21.61-58.374c-2.964,5.825-6.841,13.034-10.593,20.01-6.893,12.818-14.021,26.072-14.659,29.287-1.184,5.971,1.744,7.135,1.869,7.181a.463.463,0,0,1,.18.122,2.236,2.236,0,0,0,1.564.885,1.711,1.711,0,0,0,1.148-.459.444.444,0,0,1,.316-.135.5.5,0,0,1,.318.13c.983.986,3.109-.375,3.131-.39a.443.443,0,0,1,.422-.037,2.3,2.3,0,0,0,2.047.011c1.889-.953,2.705-4.4,2.713-4.436a.445.445,0,0,1,.213-.286c3.438-1.962,2.608-9.947,2.6-10.027a.442.442,0,0,1,.03-.216l16.365-40.218Z" transform="translate(-312.481 -305.548)" fill="#3d3d3d"/>
          <path id="Trazado_878084" data-name="Trazado 878084" d="M435.724,647.666a.445.445,0,0,1-.386-.223,7.147,7.147,0,0,1-.516-5.676.444.444,0,1,1,.839.292,6.22,6.22,0,0,0,.447,4.941.444.444,0,0,1-.385.666" transform="translate(-346.81 -512.055)" fill="#3d3d3d"/>
          <path id="Trazado_878085" data-name="Trazado 878085" d="M416.881,645.9a.444.444,0,0,1-.372-.2,7.059,7.059,0,0,1-.451-6.671.444.444,0,0,1,.8.382,6.139,6.139,0,0,0,.392,5.8.444.444,0,0,1-.371.688" transform="translate(-331.616 -509.902)" fill="#3d3d3d"/>
          <path id="Trazado_878086" data-name="Trazado 878086" d="M401.823,643.988a.442.442,0,0,1-.188-.042,1.075,1.075,0,0,1-.465-.727,10.176,10.176,0,0,1,.034-6.02.444.444,0,1,1,.846.27,9.268,9.268,0,0,0-.035,5.475,1.949,1.949,0,0,0,.09.255.445.445,0,0,1-.282.788m.295-.765h0Z" transform="translate(-319.886 -508.399)" fill="#3d3d3d"/>
          <path id="Trazado_878087" data-name="Trazado 878087" d="M454.751,630.889a.444.444,0,0,1-.4-.64,50.313,50.313,0,0,0,2.685-6.64.444.444,0,1,1,.845.273,51.144,51.144,0,0,1-2.732,6.758.444.444,0,0,1-.4.249" transform="translate(-362.653 -497.553)" fill="#3d3d3d"/>
          <path id="Trazado_878088" data-name="Trazado 878088" d="M461.416,643.908a.444.444,0,0,1-.034-.887l1.186-.091a.444.444,0,0,1,.068.886l-1.186.091h-.034" transform="translate(-367.973 -513.22)" fill="#3d3d3d"/>
          <path id="Trazado_878089" data-name="Trazado 878089" d="M251.874,694.6l-52.925-20.878a3.106,3.106,0,0,1-1.75-4.028l13.854-35.157a3.1,3.1,0,0,1,4.026-1.75L268,653.661a3.106,3.106,0,0,1,1.75,4.028L255.9,692.846a3.1,3.1,0,0,1-4.026,1.75" transform="translate(-157.242 -504.948)" fill="#f4eae2"/>
          <path id="Trazado_878090" data-name="Trazado 878090" d="M251.259,693.5a3.547,3.547,0,0,1-1.3-.25l-52.925-20.878a3.555,3.555,0,0,1-2-4.6l13.854-35.157a3.548,3.548,0,0,1,4.6-2l33.3,13.138a.444.444,0,1,1-.326.826l-33.3-13.138a2.659,2.659,0,0,0-3.45,1.5l-13.854,35.157a2.665,2.665,0,0,0,1.5,3.452l52.925,20.878a2.659,2.659,0,0,0,3.45-1.5l5.215-13.234a.444.444,0,0,1,.827.326l-5.216,13.235a3.556,3.556,0,0,1-3.3,2.25" transform="translate(-155.487 -503.185)" fill="#3d3d3d"/>
          <path id="Trazado_878091" data-name="Trazado 878091" d="M312.415,665.764a5.484,5.484,0,0,1-2.013-.384l-42.179-16.639a5.462,5.462,0,0,1-3.464-4.978l-.231-10.983a.449.449,0,0,1,.031-.172,3.548,3.548,0,0,1,4.6-2l33.3,13.138a.444.444,0,1,1-.326.826l-33.3-13.138a2.66,2.66,0,0,0-3.417,1.42l.229,10.89a4.575,4.575,0,0,0,2.9,4.17l42.179,16.639a4.571,4.571,0,0,0,4.965-1.067l7.434-7.637a.444.444,0,0,1,.637.62l-7.434,7.637a5.459,5.459,0,0,1-3.916,1.657" transform="translate(-211.16 -503.186)" fill="#3d3d3d"/>
          <path id="Trazado_878092" data-name="Trazado 878092" d="M262.623,715.451a1.894,1.894,0,0,1-1.067-2.456l10.412-26.423,3.522,1.389-10.412,26.423a1.892,1.892,0,0,1-2.455,1.067" transform="translate(-208.683 -548.059)" fill="#f4eae2"/>
          <path id="Trazado_878093" data-name="Trazado 878093" d="M261.561,714.271a2.341,2.341,0,0,1-2.175-3.2L269.8,684.652a.445.445,0,0,1,.577-.25l3.522,1.389a.445.445,0,0,1,.25.576L263.736,712.79a2.344,2.344,0,0,1-2.174,1.481m-.531-.991a1.449,1.449,0,0,0,1.879-.817l10.25-26.009-2.7-1.063L260.214,711.4a1.451,1.451,0,0,0,.816,1.88" transform="translate(-206.927 -546.302)" fill="#3d3d3d"/>
          <rect id="Rectángulo_402330" data-name="Rectángulo 402330" width="5.68" height="5.409" transform="matrix(0.367, -0.93, 0.93, 0.367, 54.894, 157.592)" fill="#f4eae2"/>
          <path id="Trazado_878094" data-name="Trazado 878094" d="M275.375,760.9a.448.448,0,0,1-.163-.031l-5.031-1.985a.444.444,0,0,1-.25-.576l2.082-5.284a.445.445,0,0,1,.577-.25l5.032,1.985a.444.444,0,0,1,.25.576l-2.083,5.284a.445.445,0,0,1-.413.281m-4.455-2.68,4.2,1.659,1.757-4.458-4.2-1.659Z" transform="translate(-215.448 -600.883)" fill="#3d3d3d"/>
          <path id="Trazado_878095" data-name="Trazado 878095" d="M424.657,779.371a1.894,1.894,0,0,1-1.067-2.456L434,750.492l3.522,1.389L427.112,778.3a1.892,1.892,0,0,1-2.455,1.067" transform="translate(-338.027 -599.083)" fill="#f4eae2"/>
          <path id="Trazado_878096" data-name="Trazado 878096" d="M423.6,778.192a2.341,2.341,0,0,1-2.175-3.2l10.413-26.423a.445.445,0,0,1,.577-.25l3.522,1.389a.444.444,0,0,1,.25.576L425.77,776.71a2.342,2.342,0,0,1-2.174,1.482m-.532-.991a1.448,1.448,0,0,0,1.879-.816l10.25-26.01-2.7-1.063-10.249,26.009a1.451,1.451,0,0,0,.816,1.88" transform="translate(-336.271 -597.327)" fill="#3d3d3d"/>
          <rect id="Rectángulo_402331" data-name="Rectángulo 402331" width="5.68" height="5.409" transform="matrix(0.367, -0.93, 0.93, 0.367, 87.584, 170.487)" fill="#f4eae2"/>
          <path id="Trazado_878097" data-name="Trazado 878097" d="M437.41,824.825a.456.456,0,0,1-.163-.031l-5.031-1.985a.444.444,0,0,1-.25-.576l2.082-5.284a.445.445,0,0,1,.577-.25l5.031,1.984a.445.445,0,0,1,.25.576l-2.082,5.285a.445.445,0,0,1-.414.281m-4.455-2.68,4.2,1.659,1.756-4.458-4.205-1.659Z" transform="translate(-344.793 -651.908)" fill="#3d3d3d"/>
          <path id="Trazado_878098" data-name="Trazado 878098" d="M363.372,613.066a5.367,5.367,0,0,0-6.93,3.051l-2.464,6.252,2.317.914,2.464-6.252a2.875,2.875,0,0,1,3.7-1.648Z" transform="translate(-282.565 -489.089)" fill="#f4eae2"/>
          <path id="Trazado_878099" data-name="Trazado 878099" d="M354.535,621.963a.449.449,0,0,1-.163-.031l-2.316-.914a.444.444,0,0,1-.25-.576l2.464-6.252a5.814,5.814,0,0,1,3.076-3.2,5.7,5.7,0,0,1,4.431-.1.444.444,0,0,1,.25.576l-.913,2.317a.445.445,0,0,1-.577.25,2.346,2.346,0,0,0-1.837.05,2.459,2.459,0,0,0-1.287,1.347l-2.464,6.252a.445.445,0,0,1-.413.281m-1.74-1.608,1.49.588,2.3-5.839a3.344,3.344,0,0,1,1.749-1.832,3.244,3.244,0,0,1,2.1-.2l.591-1.5a4.826,4.826,0,0,0-3.325.229,4.929,4.929,0,0,0-2.608,2.716Z" transform="translate(-280.806 -487.324)" fill="#3d3d3d"/>
          <path id="Trazado_878100" data-name="Trazado 878100" d="M463.675,641.2l-2.825-1.1c-.239.6-.946,2.266-.976,2.313l2.888,1.105a2.858,2.858,0,0,1,1.608,3.7l-2.464,6.252,2.317.914,2.464-6.252a5.352,5.352,0,0,0-3.011-6.933" transform="translate(-367.097 -510.963)" fill="#f4eae2"/>
          <path id="Trazado_878101" data-name="Trazado 878101" d="M470.506,705.984a.449.449,0,0,1-.163-.031l-2.316-.914a.444.444,0,1,1,.326-.826l2.316.914a.444.444,0,0,1-.163.858" transform="translate(-373.38 -562.116)" fill="#3d3d3d"/>
          <path id="Trazado_878102" data-name="Trazado 878102" d="M462.107,642.987a.443.443,0,0,1-.335-.153,2.371,2.371,0,0,0-.931-.658l-2.884-1.1a.444.444,0,0,1-.215-.655c.04-.088.707-1.657.937-2.236a.445.445,0,0,1,.575-.25l2.825,1.1a5.787,5.787,0,0,1,2.309,1.663.444.444,0,0,1-.681.571,4.891,4.891,0,0,0-1.953-1.406l-2.417-.941c-.174.422-.439,1.055-.627,1.492l2.453.938a3.305,3.305,0,0,1,1.28.9.444.444,0,0,1-.335.736" transform="translate(-365.338 -509.207)" fill="#3d3d3d"/>
          <path id="Trazado_878103" data-name="Trazado 878103" d="M1047.229,12.861c6.826-2.924,17.586-9.921,25.017-10.661,3.817,1.87-3.306,4.908-5.017,5.4,0,0,2.367,1.173,1.5,3.487,0,0,1.386.728-.172,3.365.329,2.032-2.543,4.212-4.775,2.9,0,0-14.843,8.608-18.6,9.68s-1.231-12.646,2.041-14.173" transform="translate(-832.832 -1.756)" fill="#f4eae2"/>
          <path id="Trazado_878104" data-name="Trazado 878104" d="M1061.032,24.914a.444.444,0,0,1-.183-.85c3.641-1.638,16.307-8.783,16.435-8.855a.442.442,0,0,1,.443,0,2.676,2.676,0,0,0,2.914-.209,2.416,2.416,0,0,0,1.2-2.238.446.446,0,0,1,.056-.3,3.092,3.092,0,0,0,.63-2.306.778.778,0,0,0-.282-.439.444.444,0,0,1-.209-.549,2.408,2.408,0,0,0-1.283-2.934.445.445,0,0,1,.075-.824c1.718-.5,5.692-2.39,5.8-3.654.026-.3-.225-.589-.748-.865-4.946.519-11.8,4.068-17.854,7.2-2.537,1.314-4.933,2.554-6.9,3.411a.444.444,0,1,1-.355-.815c1.94-.845,4.323-2.079,6.846-3.385,6.177-3.2,13.179-6.824,18.306-7.311a.446.446,0,0,1,.238.043c.96.471,1.415,1.075,1.352,1.8-.155,1.776-3.782,3.448-5.589,4.135a3.061,3.061,0,0,1,1.041,3.207,1.739,1.739,0,0,1,.415.739,3.854,3.854,0,0,1-.643,2.868,3.353,3.353,0,0,1-1.593,2.949,3.62,3.62,0,0,1-3.635.366c-1.737.978-12.834,7.215-16.295,8.771a.441.441,0,0,1-.182.039" transform="translate(-846.552 0.003)" fill="#3d3d3d"/>
          <path id="Trazado_878105" data-name="Trazado 878105" d="M1136.892,50.576a2.543,2.543,0,0,1-1.759-.7.45.45,0,0,1-.06-.068,1.666,1.666,0,0,1-.224-1.393,1.37,1.37,0,0,1,.772-.909.444.444,0,0,1,.344.82.5.5,0,0,0-.26.332.779.779,0,0,0,.07.6,1.661,1.661,0,0,0,1.506.4c1.553-.3,3.25-2.261,3.829-3.5a.444.444,0,1,1,.8.377c-.649,1.384-2.516,3.611-4.463,3.992a2.9,2.9,0,0,1-.559.056" transform="translate(-905.849 -36.636)" fill="#3d3d3d"/>
          <path id="Trazado_878106" data-name="Trazado 878106" d="M1123.23,31.219a1.632,1.632,0,0,1-.278-.024,2.935,2.935,0,0,1-1.176-.581,2.487,2.487,0,0,0-.76-.422,3.022,3.022,0,0,0-1.683.462,3.111,3.111,0,0,1-2.334.452,1.776,1.776,0,0,1-.957-1.047.444.444,0,0,1,.821-.341.93.93,0,0,0,.459.561c.384.15,1.021-.146,1.639-.431a3.539,3.539,0,0,1,2.277-.516,3.227,3.227,0,0,1,1.051.557,2.211,2.211,0,0,0,.814.431.888.888,0,0,0,.71-.225,1.426,1.426,0,0,0,.5-1.043c-.121-1.942-2.453-3.022-3.991-3.267a.444.444,0,1,1,.14-.877c2.251.359,4.6,1.889,4.74,4.117a2.327,2.327,0,0,1-.815,1.751,1.794,1.794,0,0,1-1.156.445" transform="translate(-890.86 -19.876)" fill="#3d3d3d"/>
          <path id="Trazado_878107" data-name="Trazado 878107" d="M1138.959,65.746a2.288,2.288,0,0,1-.785-.126,1.764,1.764,0,0,1-1.134-1.776.444.444,0,0,1,.427-.461.438.438,0,0,1,.461.427c.027.7.328.893.551.975,1.043.383,3.263-.716,4.05-1.581a.444.444,0,1,1,.657.6,7,7,0,0,1-4.227,1.945" transform="translate(-907.647 -50.336)" fill="#3d3d3d"/>
          <path id="Trazado_878108" data-name="Trazado 878108" d="M1142.267,73.332a.444.444,0,0,1-.395-.24,1.881,1.881,0,0,1-.2-.674.445.445,0,0,1,.884-.092,1.006,1.006,0,0,0,.106.357.444.444,0,0,1-.19.6.439.439,0,0,1-.2.05" transform="translate(-911.342 -57.417)" fill="#3d3d3d"/>
          <path id="Trazado_878109" data-name="Trazado 878109" d="M547.76,55.046,479.738,87.152c-24.113,12.474-38.66,8.2-62.121,72.245-.172.092,13.633,3.7,13.633,3.7.146-.067,28.564-45.6,28.564-45.6l-1.173,24.226L499.5,124.513a8.338,8.338,0,0,0,5.032-6.713l2.96-25.114,40.353-24.273c-1.887-3.9-1.537-8.469-.084-13.366" transform="translate(-333.363 -43.94)" fill="#f4eae2"/>
          <path id="Trazado_878110" data-name="Trazado 878110" d="M429.5,161.787a.434.434,0,0,1-.116-.016l-13.633-3.7a.444.444,0,0,1-.3-.576c18.578-52.967,33.088-59.344,51.459-67.417,3.476-1.528,7.071-3.107,10.877-5.076l.007.013c.161-.093.406-.209.772-.381l67.258-31.745a.444.444,0,0,1,.615.528c-1.622,5.467-1.6,9.612.058,13.046a.445.445,0,0,1-.171.574L506.155,91.2l-2.934,24.9a8.8,8.8,0,0,1-5.3,7.071.444.444,0,1,1-.345-.819,7.905,7.905,0,0,0,4.764-6.356L505.3,90.876a.445.445,0,0,1,.212-.329L545.521,66.48c-1.476-3.324-1.545-7.384-.206-12.373L478.178,85.8c-3.818,1.975-7.425,3.561-10.914,5.094-18.122,7.963-32.447,14.259-50.82,66.447l12.854,3.491,28.389-45.317a.444.444,0,0,1,.82.257l-1.135,23.438,1.84-1a.444.444,0,1,1,.422.781l-2.533,1.371a.444.444,0,0,1-.655-.412l1.091-22.528-27.662,44.156a.446.446,0,0,1-.377.208" transform="translate(-331.612 -42.183)" fill="#3d3d3d"/>
          <path id="Trazado_878111" data-name="Trazado 878111" d="M661.969,347.35c-3.594,0-7.007-1.321-8.776-4.678a.444.444,0,1,1,.786-.414c2.427,4.608,8.788,5.034,13.815,3.072a.444.444,0,0,1,.323.828,17.2,17.2,0,0,1-6.149,1.193" transform="translate(-521.374 -273.019)" fill="#3d3d3d"/>
          <path id="Trazado_878112" data-name="Trazado 878112" d="M809.958,258.782a.444.444,0,0,1-.111-.874,9.38,9.38,0,0,0,5.944-12.717.444.444,0,1,1,.8-.377,10.267,10.267,0,0,1-6.526,13.955.45.45,0,0,1-.112.014" transform="translate(-646.199 -195.218)" fill="#3d3d3d"/>
          <path id="Trazado_878113" data-name="Trazado 878113" d="M719.322,156.44l-3.142,12.929c1.4,4.136,4.072,10.443,6.526,9.976,4.224-.8,3.265-14.866,5.025-21.149Z" transform="translate(-571.694 -124.878)" fill="#f4eae2"/>
          <path id="Trazado_878114" data-name="Trazado 878114" d="M720.693,178.055c-2.775,0-5.366-6.387-6.692-10.3a.444.444,0,0,1-.011-.248l3.142-12.929a.443.443,0,0,1,.522-.33L726.063,156a.444.444,0,0,1,.337.555A52.744,52.744,0,0,0,725.23,165c-.576,6.393-1.121,12.432-4.2,13.018a1.8,1.8,0,0,1-.338.032m-5.809-10.465c2.083,6.107,4.429,9.859,5.98,9.56,2.421-.461,2.984-6.711,3.481-12.225a59.385,59.385,0,0,1,1.079-8.148l-7.53-1.573Z" transform="translate(-569.936 -123.12)" fill="#3d3d3d"/>
          <path id="Trazado_878115" data-name="Trazado 878115" d="M731.7,97.256c1.791,7.086-5.674,10.914-10.762,6.042-6.466,2.067-6.216-7.777-.45-3.143.976-.084.683-1.336.335-1.935-1.8-4.688,2.908-8.928,7.292-9.554.283-.061,1.154-.367,1.408-.22a40.855,40.855,0,0,1,2.176,8.809" transform="translate(-571.648 -70.571)" fill="#f4eae2"/>
          <path id="Trazado_878116" data-name="Trazado 878116" d="M724.251,104.178a7.787,7.787,0,0,1-5.195-2.14c-3.123.886-4.406-.915-4.729-1.5a2.745,2.745,0,0,1,.353-3.385c.46-.387,1.772-1.068,4.152.765a.147.147,0,0,0,.066-.068,1.586,1.586,0,0,0-.224-1.165.5.5,0,0,1-.03-.063,6.18,6.18,0,0,1,.507-5.509,10.315,10.315,0,0,1,7.138-4.644l.21-.058c.659-.184,1.151-.3,1.484-.106a.445.445,0,0,1,.187.214,40.706,40.706,0,0,1,2.2,8.889c.841,3.353-.252,6.375-2.856,7.891a6.44,6.44,0,0,1-3.262.881m-5.079-3.083a.444.444,0,0,1,.307.123c2.261,2.164,5.239,2.679,7.586,1.311,2.251-1.311,3.185-3.964,2.437-6.924,0-.012-.006-.024-.007-.036a41.351,41.351,0,0,0-2.05-8.471,6.226,6.226,0,0,0-.709.166c-.121.034-.223.062-.293.077a9.4,9.4,0,0,0-6.527,4.22,5.319,5.319,0,0,0-.455,4.71,2.345,2.345,0,0,1,.225,1.987,1.1,1.1,0,0,1-.925.58.444.444,0,0,1-.317-.1c-1.368-1.1-2.562-1.44-3.192-.911a1.886,1.886,0,0,0-.146,2.276c.666,1.206,2.136,1.584,3.932,1.009a.446.446,0,0,1,.135-.021" transform="translate(-569.886 -68.811)" fill="#3d3d3d"/>
          <path id="Trazado_878117" data-name="Trazado 878117" d="M726.969,153.568h-.019l-1.523-.064a.444.444,0,0,1-.425-.463.451.451,0,0,1,.463-.425l1.523.064a.444.444,0,0,1-.018.888" transform="translate(-578.736 -121.826)" fill="#3d3d3d"/>
        </g>
      </g>
    </g>
  </g>
</svg>
